v 0.00027 0.02 0.075444
v -0.023349 0.018311 0.075444
v -0.005183 0.010014 0.075444
v -0.003827 0.011029 0.075444
v 0.000149 0.021689 0.075444
v -0.02347 0.02 0.075444
v -0.0116 0.00813 0.075444
v -0.023349 0.021689 0.075444
v -0.022989 0.016656 0.075444
v -0.022397 0.015069 0.075444
v -0.000211 0.016656 0.075444
v 0.000149 0.018311 0.075444
v -0.002629 0.012227 0.075444
v -0.022989 0.023344 0.075444
v -0.018017 0.029985 0.075444
v -0.001615 0.026417 0.075444
v -0.021585 0.026417 0.075444
v -0.022397 0.024931 0.075444
v -0.021585 0.013583 0.075444
v -0.013289 0.008251 0.075444
v -0.008256 0.031389 0.075444
v -0.018017 0.010014 0.075444
v -0.02057 0.012227 0.075444
v -0.019373 0.011029 0.075444
v -0.001615 0.013583 0.075444
v -0.000803 0.015069 0.075444
v -0.013289 0.031749 0.075444
v -0.009911 0.031749 0.075444
v -0.0116 0.031869 0.075444
v -0.016531 0.009203 0.075444
v -0.014944 0.008611 0.075444
v -0.014944 0.031389 0.075444
v -0.016531 0.030797 0.075444
v -0.002629 0.027773 0.075444
v -0.003827 0.02897 0.075444
v -0.009911 0.008251 0.075444
v -0.000211 0.023344 0.075444
v -0.000803 0.024931 0.075444
v -0.008256 0.008611 0.075444
v -0.006669 0.009203 0.075444
v -0.005183 0.029985 0.075444
v -0.006669 0.030797 0.075444
v -0.019373 0.02897 0.075444
v -0.02057 0.027773 0.075444
v -0.000578 0.02 0.083452
v -0.014705 0.009425 0.083452
v -0.013168 0.009091 0.083452
v -0.016178 0.009974 0.083452
v -0.021625 0.015421 0.083452
v -0.005641 0.010728 0.083452
v -0.022175 0.023105 0.083452
v -0.013168 0.030909 0.083452
v -0.014705 0.030575 0.083452
v -0.007021 0.030025 0.083452
v -0.0116 0.008978 0.083452
v -0.007021 0.009974 0.083452
v -0.020872 0.014041 0.083452
v -0.010031 0.009091 0.083452
v -0.008495 0.009425 0.083452
v -0.016178 0.030025 0.083452
v -0.019929 0.012782 0.083452
v -0.000691 0.018431 0.083452
v -0.002328 0.014041 0.083452
v -0.004382 0.01167 0.083452
v -0.00327 0.012782 0.083452
v -0.022509 0.018431 0.083452
v -0.022175 0.016895 0.083452
v -0.020872 0.025959 0.083452
v -0.021625 0.024578 0.083452
v -0.001574 0.024578 0.083452
v -0.019929 0.027217 0.083452
v -0.000691 0.021568 0.083452
v -0.001025 0.023105 0.083452
v -0.002328 0.025959 0.083452
v -0.00327 0.027217 0.083452
v -0.018817 0.01167 0.083452
v -0.017559 0.010728 0.083452
v -0.004382 0.028329 0.083452
v -0.005641 0.029272 0.083452
v -0.008495 0.030575 0.083452
v -0.017559 0.029272 0.083452
v -0.018817 0.028329 0.083452
v -0.001574 0.015421 0.083452
v -0.001025 0.016895 0.083452
v -0.010031 0.030909 0.083452
v -0.0116 0.031021 0.083452
v -0.022509 0.021568 0.083452
v -0.022621 0.02 0.083452
v -0.003795 0.029007 0.085499
v -0.005156 0.030026 0.085499
v -0.006649 0.030841 0.085499
v -0.008242 0.031436 0.085499
v -0.009904 0.031797 0.085499
v -0.0116 0.031918 0.085499
v -0.013296 0.031797 0.085499
v -0.014958 0.031436 0.085499
v -0.016551 0.030841 0.085499
v -0.018044 0.030026 0.085499
v -0.019405 0.029007 0.085499
v -0.020607 0.027805 0.085499
v -0.021626 0.026444 0.085499
v -0.022441 0.024951 0.085499
v -0.023036 0.023358 0.085499
v -0.023397 0.021696 0.085499
v -0.000758 0.015049 0.085499
v -0.000164 0.016642 0.085499
v 0.000197 0.018304 0.085499
v 0.000319 0.02 0.085499
v 0.000197 0.021696 0.085499
v -0.000164 0.023358 0.085499
v -0.000758 0.024951 0.085499
v -0.001573 0.026444 0.085499
v -0.002592 0.027805 0.085499
v -0.013296 0.008203 0.085499
v -0.0116 0.008081 0.085499
v -0.009904 0.008203 0.085499
v -0.008242 0.008564 0.085499
v -0.006649 0.009158 0.085499
v -0.005156 0.009973 0.085499
v -0.003795 0.010992 0.085499
v -0.002592 0.012195 0.085499
v -0.001573 0.013556 0.085499
v -0.023036 0.016642 0.085499
v -0.022441 0.015049 0.085499
v -0.021626 0.013556 0.085499
v -0.020607 0.012195 0.085499
v -0.019405 0.010992 0.085499
v -0.018044 0.009973 0.085499
v -0.016551 0.009158 0.085499
v -0.014958 0.008564 0.085499
v -0.023397 0.018304 0.085499
v -0.023518 0.02 0.085499
v -0.004382 0.028329 0.085499
v -0.005641 0.029272 0.085499
v -0.007021 0.030025 0.085499
v -0.008495 0.030575 0.085499
v -0.010031 0.030909 0.085499
v -0.0116 0.031021 0.085499
v -0.013168 0.030909 0.085499
v -0.014705 0.030575 0.085499
v -0.016178 0.030025 0.085499
v -0.017559 0.029272 0.085499
v -0.018817 0.028329 0.085499
v -0.019929 0.027217 0.085499
v -0.020872 0.025959 0.085499
v -0.021625 0.024578 0.085499
v -0.022175 0.023105 0.085499
v -0.022509 0.021568 0.085499
v -0.001574 0.015421 0.085499
v -0.001025 0.016895 0.085499
v -0.000691 0.018431 0.085499
v -0.000578 0.02 0.085499
v -0.000691 0.021568 0.085499
v -0.001025 0.023105 0.085499
v -0.001574 0.024578 0.085499
v -0.002328 0.025959 0.085499
v -0.00327 0.027217 0.085499
v -0.013168 0.009091 0.085499
v -0.0116 0.008978 0.085499
v -0.010031 0.009091 0.085499
v -0.008495 0.009425 0.085499
v -0.007021 0.009974 0.085499
v -0.005641 0.010728 0.085499
v -0.004382 0.01167 0.085499
v -0.00327 0.012782 0.085499
v -0.002328 0.014041 0.085499
v -0.022175 0.016895 0.085499
v -0.021625 0.015421 0.085499
v -0.020872 0.014041 0.085499
v -0.019929 0.012782 0.085499
v -0.018817 0.01167 0.085499
v -0.017559 0.010728 0.085499
v -0.016178 0.009974 0.085499
v -0.014705 0.009425 0.085499
v -0.022509 0.018431 0.085499
v -0.022621 0.02 0.085499
v -0.004382 0.028329 0.076004
v -0.005641 0.029272 0.076004
v -0.007021 0.030025 0.076004
v -0.008495 0.030575 0.076004
v -0.010031 0.030909 0.076004
v -0.0116 0.031021 0.076004
v -0.013168 0.030909 0.076004
v -0.014705 0.030575 0.076004
v -0.016178 0.030025 0.076004
v -0.017559 0.029272 0.076004
v -0.018817 0.028329 0.076004
v -0.019929 0.027217 0.076004
v -0.020872 0.025959 0.076004
v -0.021625 0.024578 0.076004
v -0.022175 0.023105 0.076004
v -0.022509 0.021568 0.076004
v -0.001574 0.015421 0.076004
v -0.001025 0.016895 0.076004
v -0.000691 0.018431 0.076004
v -0.000578 0.02 0.076004
v -0.000691 0.021568 0.076004
v -0.001025 0.023105 0.076004
v -0.001574 0.024578 0.076004
v -0.002328 0.025959 0.076004
v -0.00327 0.027217 0.076004
v -0.013168 0.009091 0.076004
v -0.0116 0.008978 0.076004
v -0.010031 0.009091 0.076004
v -0.008495 0.009425 0.076004
v -0.007021 0.009974 0.076004
v -0.005641 0.010728 0.076004
v -0.004382 0.01167 0.076004
v -0.00327 0.012782 0.076004
v -0.002328 0.014041 0.076004
v -0.022175 0.016895 0.076004
v -0.021625 0.015421 0.076004
v -0.020872 0.014041 0.076004
v -0.019929 0.012782 0.076004
v -0.018817 0.01167 0.076004
v -0.017559 0.010728 0.076004
v -0.016178 0.009974 0.076004
v -0.014705 0.009425 0.076004
v -0.022509 0.018431 0.076004
v -0.022621 0.02 0.076004
v -0.003721 0.029092 0.075425
v -0.005095 0.030121 0.075425
v -0.006602 0.030944 0.075425
v -0.00821 0.031543 0.075425
v -0.009888 0.031908 0.075425
v -0.0116 0.032031 0.075425
v -0.013312 0.031908 0.075425
v -0.014989 0.031543 0.075425
v -0.016598 0.030944 0.075425
v -0.018104 0.030121 0.075425
v -0.019478 0.029092 0.075425
v -0.020692 0.027878 0.075425
v -0.021721 0.026504 0.075425
v -0.022544 0.024998 0.075425
v -0.023143 0.023389 0.075425
v -0.023508 0.021712 0.075425
v -0.000656 0.015002 0.075425
v -5.6e-05 0.01661 0.075425
v 0.000309 0.018288 0.075425
v 0.000431 0.02 0.075425
v 0.000309 0.021712 0.075425
v -5.6e-05 0.023389 0.075425
v -0.000656 0.024998 0.075425
v -0.001479 0.026504 0.075425
v -0.002508 0.027878 0.075425
v -0.013312 0.008091 0.075425
v -0.0116 0.007969 0.075425
v -0.009888 0.008091 0.075425
v -0.00821 0.008456 0.075425
v -0.006602 0.009056 0.075425
v -0.005095 0.009879 0.075425
v -0.003721 0.010908 0.075425
v -0.002508 0.012121 0.075425
v -0.001479 0.013495 0.075425
v -0.023143 0.01661 0.075425
v -0.022544 0.015002 0.075425
v -0.021721 0.013495 0.075425
v -0.020692 0.012121 0.075425
v -0.019478 0.010908 0.075425
v -0.018104 0.009879 0.075425
v -0.016598 0.009056 0.075425
v -0.014989 0.008456 0.075425
v -0.023508 0.018288 0.075425
v -0.023631 0.02 0.075425
v -0.003047 0.029871 0.074743
v -0.004539 0.030987 0.074743
v -0.006174 0.03188 0.074743
v -0.00792 0.032532 0.074743
v -0.009741 0.032928 0.074743
v -0.0116 0.033061 0.074743
v -0.013459 0.032928 0.074743
v -0.01528 0.032532 0.074743
v -0.017026 0.03188 0.074743
v -0.018661 0.030987 0.074743
v -0.020153 0.029871 0.074743
v -0.021471 0.028553 0.074743
v -0.022587 0.027061 0.074743
v -0.02348 0.025425 0.074743
v -0.024132 0.02368 0.074743
v -0.024528 0.021859 0.074743
v 0.000281 0.014574 0.074743
v 0.000932 0.01632 0.074743
v 0.001328 0.018141 0.074743
v 0.001461 0.02 0.074743
v 0.001328 0.021859 0.074743
v 0.000932 0.02368 0.074743
v 0.000281 0.025425 0.074743
v -0.000612 0.027061 0.074743
v -0.001729 0.028553 0.074743
v -0.013459 0.007072 0.074743
v -0.0116 0.006939 0.074743
v -0.009741 0.007072 0.074743
v -0.00792 0.007468 0.074743
v -0.006174 0.008119 0.074743
v -0.004539 0.009012 0.074743
v -0.003047 0.010129 0.074743
v -0.001729 0.011447 0.074743
v -0.000612 0.012939 0.074743
v -0.024132 0.01632 0.074743
v -0.02348 0.014574 0.074743
v -0.022587 0.012939 0.074743
v -0.021471 0.011447 0.074743
v -0.020153 0.010129 0.074743
v -0.018661 0.009012 0.074743
v -0.017026 0.008119 0.074743
v -0.01528 0.007468 0.074743
v -0.024528 0.018141 0.074743
v -0.024661 0.02 0.074743
v -0.002431 0.030581 0.074002
v -0.004031 0.031778 0.074002
v -0.005784 0.032735 0.074002
v -0.007655 0.033433 0.074002
v -0.009607 0.033858 0.074002
v -0.0116 0.034001 0.074002
v -0.013592 0.033858 0.074002
v -0.015544 0.033433 0.074002
v -0.017416 0.032735 0.074002
v -0.019169 0.031778 0.074002
v -0.020768 0.030581 0.074002
v -0.022181 0.029168 0.074002
v -0.023378 0.027569 0.074002
v -0.024335 0.025816 0.074002
v -0.025033 0.023944 0.074002
v -0.025458 0.021992 0.074002
v 0.001136 0.014184 0.074002
v 0.001834 0.016055 0.074002
v 0.002258 0.018007 0.074002
v 0.002401 0.02 0.074002
v 0.002258 0.021992 0.074002
v 0.001834 0.023944 0.074002
v 0.001136 0.025816 0.074002
v 0.000178 0.027569 0.074002
v -0.001019 0.029168 0.074002
v -0.013592 0.006142 0.074002
v -0.0116 0.005999 0.074002
v -0.009607 0.006142 0.074002
v -0.007655 0.006566 0.074002
v -0.005784 0.007264 0.074002
v -0.004031 0.008222 0.074002
v -0.002431 0.009419 0.074002
v -0.001019 0.010831 0.074002
v 0.000178 0.012431 0.074002
v -0.025033 0.016055 0.074002
v -0.024335 0.014184 0.074002
v -0.023378 0.012431 0.074002
v -0.022181 0.010831 0.074002
v -0.020768 0.009419 0.074002
v -0.019169 0.008222 0.074002
v -0.017416 0.007264 0.074002
v -0.015544 0.006566 0.074002
v -0.025458 0.018007 0.074002
v -0.025601 0.02 0.074002
v -0.002431 0.030581 0.072998
v -0.004031 0.031778 0.072998
v -0.005784 0.032735 0.072998
v -0.007655 0.033433 0.072998
v -0.009607 0.033858 0.072998
v -0.0116 0.034001 0.072998
v -0.013592 0.033858 0.072998
v -0.015544 0.033433 0.072998
v -0.017416 0.032735 0.072998
v -0.019169 0.031778 0.072998
v -0.020768 0.030581 0.072998
v -0.022181 0.029168 0.072998
v -0.023378 0.027569 0.072998
v -0.024335 0.025816 0.072998
v -0.025033 0.023944 0.072998
v -0.025458 0.021992 0.072998
v 0.001136 0.014184 0.072998
v 0.001834 0.016055 0.072998
v 0.002258 0.018007 0.072998
v 0.002401 0.02 0.072998
v 0.002258 0.021992 0.072998
v 0.001834 0.023944 0.072998
v 0.001136 0.025816 0.072998
v 0.000178 0.027569 0.072998
v -0.001019 0.029168 0.072998
v -0.013592 0.006142 0.072998
v -0.0116 0.005999 0.072998
v -0.009607 0.006142 0.072998
v -0.007655 0.006566 0.072998
v -0.005784 0.007264 0.072998
v -0.004031 0.008222 0.072998
v -0.002431 0.009419 0.072998
v -0.001019 0.010831 0.072998
v 0.000178 0.012431 0.072998
v -0.025033 0.016055 0.072998
v -0.024335 0.014184 0.072998
v -0.023378 0.012431 0.072998
v -0.022181 0.010831 0.072998
v -0.020768 0.009419 0.072998
v -0.019169 0.008222 0.072998
v -0.017416 0.007264 0.072998
v -0.015544 0.006566 0.072998
v -0.025458 0.018007 0.072998
v -0.025601 0.02 0.072998
v 0.000124 0.021686 0.075532
v -0.022965 0.016663 0.075532
v -0.0116 0.008155 0.075532
v 0.000245 0.02 0.075532
v -0.023324 0.018314 0.075532
v -0.021564 0.026404 0.075532
v -0.020552 0.012243 0.075532
v -0.001635 0.013596 0.075532
v -0.009914 0.031724 0.075532
v -0.01652 0.009225 0.075532
v -0.014937 0.031365 0.075532
v -0.002648 0.027757 0.075532
v -0.009914 0.008276 0.075532
v -0.000235 0.023337 0.075532
v -0.008263 0.008635 0.075532
v -0.005196 0.029964 0.075532
v -0.019357 0.028952 0.075532
v -0.005196 0.010035 0.075532
v -0.002648 0.012243 0.075532
v -0.008263 0.031365 0.075532
v -0.001635 0.026404 0.075532
v -0.018004 0.029964 0.075532
v -0.000235 0.016663 0.075532
v -0.021564 0.013596 0.075532
v -0.020552 0.027757 0.075532
v -0.006679 0.030774 0.075532
v -0.006679 0.009225 0.075532
v -0.000825 0.02492 0.075532
v -0.003843 0.028952 0.075532
v -0.01652 0.030774 0.075532
v -0.014937 0.008635 0.075532
v -0.0116 0.031845 0.075532
v -0.013286 0.031724 0.075532
v -0.000825 0.015079 0.075532
v -0.019357 0.011048 0.075532
v -0.018004 0.010035 0.075532
v -0.013286 0.008276 0.075532
v -0.022374 0.02492 0.075532
v -0.022965 0.023337 0.075532
v 0.000124 0.018314 0.075532
v -0.022374 0.015079 0.075532
v -0.023324 0.021686 0.075532
v -0.023445 0.02 0.075532
v -0.003843 0.011048 0.075532
f 100 145 101
f 110 153 154
f 91 134 135
f 121 164 165
f 109 152 153
f 131 176 175
f 104 147 148
f 122 149 105
f 115 158 159
f 113 133 89
f 107 152 108
f 124 167 168
f 128 173 129
f 98 143 99
f 94 139 95
f 126 169 170
f 124 169 125
f 126 171 127
f 384 393 396
f 118 161 162
f 106 149 150
f 112 155 156
f 96 139 140
f 128 171 172
f 121 166 122
f 100 143 144
f 130 173 174
f 94 137 138
f 115 160 116
f 120 163 164
f 89 134 90
f 91 136 92
f 98 141 142
f 110 155 111
f 131 167 123
f 96 141 97
f 130 158 114
f 113 156 157
f 104 176 132
f 118 163 119
f 92 137 93
f 117 160 161
f 102 147 103
f 102 145 146
f 106 151 107
f 100 144 145
f 110 109 153
f 91 90 134
f 121 120 164
f 109 108 152
f 131 132 176
f 104 103 147
f 122 166 149
f 115 114 158
f 113 157 133
f 107 151 152
f 124 123 167
f 128 172 173
f 98 142 143
f 94 138 139
f 126 125 169
f 124 168 169
f 126 170 171
f 365 364 361
f 364 363 361
f 363 362 361
f 361 360 357
f 360 359 357
f 359 358 357
f 357 356 355
f 355 354 353
f 353 377 374
f 377 376 374
f 376 375 374
f 374 373 370
f 373 372 370
f 372 371 370
f 370 369 386
f 386 385 370
f 385 384 370
f 384 383 382
f 382 381 380
f 380 379 378
f 378 394 380
f 394 393 380
f 393 392 389
f 392 391 389
f 391 390 389
f 389 388 396
f 388 387 395
f 396 388 395
f 396 368 366
f 368 367 366
f 366 365 396
f 357 355 374
f 355 353 374
f 384 382 393
f 382 380 393
f 365 361 396
f 361 357 396
f 374 370 384
f 393 389 396
f 357 374 396
f 374 384 396
f 118 117 161
f 106 105 149
f 112 111 155
f 96 95 139
f 128 127 171
f 121 165 166
f 100 99 143
f 130 129 173
f 94 93 137
f 115 159 160
f 120 119 163
f 89 133 134
f 91 135 136
f 98 97 141
f 110 154 155
f 131 175 167
f 96 140 141
f 130 174 158
f 113 112 156
f 104 148 176
f 118 162 163
f 92 136 137
f 117 116 160
f 102 146 147
f 102 101 145
f 106 150 151
f 402 18 434
f 424 16 417
f 436 1 400
f 400 5 397
f 418 43 413
f 404 13 25
f 404 26 430
f 406 31 427
f 423 39 40
f 435 8 438
f 413 44 421
f 408 35 425
f 436 11 12
f 416 28 405
f 414 40 3
f 430 11 419
f 409 7 36
f 403 19 23
f 431 23 24
f 405 29 428
f 424 37 38
f 415 4 13
f 440 3 4
f 422 21 416
f 435 18 14
f 411 36 39
f 429 29 27
f 426 32 33
f 412 42 422
f 431 22 432
f 433 31 20
f 439 8 6
f 398 10 437
f 425 41 412
f 420 10 19
f 417 34 408
f 439 2 401
f 429 32 407
f 406 22 30
f 421 17 402
f 397 37 410
f 418 33 15
f 398 2 9
f 433 7 399
f 87 220 88
f 85 182 86
f 83 194 84
f 81 187 82
f 80 181 85
f 78 178 79
f 76 216 77
f 74 201 75
f 72 198 73
f 82 188 71
f 70 200 74
f 68 190 69
f 66 211 67
f 64 209 65
f 65 210 63
f 84 195 62
f 61 215 76
f 60 186 81
f 58 205 59
f 57 214 61
f 59 206 56
f 55 204 58
f 79 179 54
f 52 184 53
f 75 177 78
f 53 185 60
f 51 192 87
f 50 208 64
f 49 213 57
f 73 199 70
f 56 207 50
f 77 217 48
f 54 180 80
f 63 193 83
f 86 183 52
f 69 191 51
f 47 203 55
f 46 202 47
f 62 196 45
f 67 212 49
f 48 218 46
f 88 219 66
f 45 197 72
f 71 189 68
f 43 232 44
f 41 223 42
f 39 250 40
f 38 242 243
f 36 249 39
f 35 245 221
f 33 228 229
f 30 262 31
f 28 226 29
f 27 226 227
f 26 254 237
f 24 258 259
f 24 260 22
f 28 224 225
f 20 262 246
f 19 258 23
f 17 234 18
f 16 245 34
f 43 230 231
f 14 234 235
f 25 253 254
f 12 238 239
f 9 256 10
f 14 236 8
f 36 247 248
f 17 232 233
f 6 236 264
f 19 256 257
f 37 241 242
f 41 221 222
f 22 261 30
f 3 252 4
f 9 263 255
f 20 247 7
f 3 250 251
f 27 228 32
f 1 241 5
f 1 239 240
f 21 223 224
f 26 238 11
f 6 263 2
f 16 243 244
f 4 253 13
f 15 229 230
f 239 282 283
f 255 300 256
f 235 280 236
f 248 291 292
f 233 276 277
f 264 280 308
f 257 300 301
f 241 286 242
f 222 265 266
f 260 305 261
f 251 296 252
f 255 307 299
f 246 291 247
f 251 294 295
f 227 272 228
f 240 285 241
f 240 283 284
f 224 267 268
f 237 282 238
f 264 307 263
f 243 288 244
f 252 297 253
f 230 273 274
f 231 276 232
f 222 267 223
f 249 294 250
f 243 286 287
f 248 293 249
f 221 289 265
f 229 272 273
f 261 306 262
f 225 270 226
f 226 271 227
f 237 298 281
f 259 302 303
f 259 304 260
f 225 268 269
f 246 306 290
f 257 302 258
f 233 278 234
f 244 289 245
f 231 274 275
f 235 278 279
f 254 297 298
f 268 311 312
f 281 326 282
f 308 351 307
f 287 332 288
f 296 341 297
f 274 317 318
f 275 320 276
f 266 311 267
f 293 338 294
f 287 330 331
f 292 337 293
f 265 333 309
f 273 316 317
f 305 350 306
f 269 314 270
f 271 314 315
f 281 342 325
f 303 346 347
f 303 348 304
f 269 312 313
f 290 350 334
f 301 346 302
f 277 322 278
f 288 333 289
f 275 318 319
f 279 322 323
f 298 341 342
f 283 326 327
f 299 344 300
f 279 324 280
f 292 335 336
f 277 320 321
f 308 324 352
f 301 344 345
f 285 330 286
f 266 309 310
f 305 348 349
f 295 340 296
f 299 351 343
f 290 335 291
f 295 338 339
f 271 316 272
f 284 329 285
f 284 327 328
f 345 390 346
f 321 366 322
f 332 377 333
f 318 363 319
f 322 367 323
f 341 386 342
f 326 371 327
f 343 388 344
f 323 368 324
f 335 380 336
f 320 365 321
f 324 396 352
f 344 389 345
f 329 374 330
f 309 354 310
f 348 393 349
f 339 384 340
f 351 387 343
f 334 379 335
f 338 383 339
f 315 360 316
f 328 373 329
f 327 372 328
f 311 356 312
f 325 370 326
f 352 395 351
f 331 376 332
f 340 385 341
f 317 362 318
f 319 364 320
f 310 355 311
f 337 382 338
f 330 375 331
f 336 381 337
f 333 353 309
f 316 361 317
f 349 394 350
f 313 358 314
f 314 359 315
f 342 369 325
f 346 391 347
f 347 392 348
f 312 357 313
f 350 378 334
f 202 399 203
f 211 401 398
f 186 426 418
f 197 410 198
f 189 421 402
f 216 406 217
f 183 407 184
f 220 401 219
f 200 408 201
f 213 437 420
f 178 425 412
f 211 437 212
f 220 438 439
f 202 427 433
f 215 432 216
f 178 422 179
f 185 407 426
f 182 429 183
f 204 411 205
f 191 434 435
f 180 422 416
f 207 440 208
f 208 415 209
f 199 410 424
f 181 428 182
f 215 403 431
f 213 403 214
f 204 399 409
f 193 419 194
f 207 423 414
f 181 416 405
f 195 419 436
f 177 408 425
f 187 421 188
f 191 438 192
f 205 423 206
f 217 427 218
f 193 404 430
f 210 415 404
f 187 418 413
f 196 397 197
f 196 436 400
f 199 417 200
f 189 434 190
f 402 17 18
f 424 38 16
f 436 12 1
f 400 1 5
f 418 15 43
f 404 415 13
f 404 25 26
f 406 30 31
f 423 411 39
f 435 14 8
f 413 43 44
f 408 34 35
f 436 419 11
f 416 21 28
f 414 423 40
f 430 26 11
f 409 399 7
f 403 420 19
f 431 403 23
f 405 28 29
f 424 410 37
f 415 440 4
f 440 414 3
f 422 42 21
f 435 434 18
f 411 409 36
f 429 428 29
f 426 407 32
f 412 41 42
f 431 24 22
f 433 427 31
f 439 438 8
f 398 9 10
f 425 35 41
f 420 437 10
f 417 16 34
f 439 6 2
f 429 27 32
f 406 432 22
f 421 44 17
f 397 5 37
f 418 426 33
f 398 401 2
f 433 20 7
f 87 192 220
f 85 181 182
f 83 193 194
f 81 186 187
f 80 180 181
f 78 177 178
f 76 215 216
f 74 200 201
f 72 197 198
f 82 187 188
f 70 199 200
f 68 189 190
f 66 219 211
f 64 208 209
f 65 209 210
f 84 194 195
f 61 214 215
f 60 185 186
f 58 204 205
f 57 213 214
f 59 205 206
f 55 203 204
f 79 178 179
f 52 183 184
f 75 201 177
f 53 184 185
f 51 191 192
f 50 207 208
f 49 212 213
f 73 198 199
f 56 206 207
f 77 216 217
f 54 179 180
f 63 210 193
f 86 182 183
f 69 190 191
f 47 202 203
f 46 218 202
f 62 195 196
f 67 211 212
f 48 217 218
f 88 220 219
f 45 196 197
f 71 188 189
f 43 231 232
f 41 222 223
f 39 249 250
f 38 37 242
f 36 248 249
f 35 34 245
f 33 32 228
f 30 261 262
f 28 225 226
f 27 29 226
f 26 25 254
f 24 23 258
f 24 259 260
f 28 21 224
f 20 31 262
f 19 257 258
f 17 233 234
f 16 244 245
f 43 15 230
f 14 18 234
f 25 13 253
f 12 11 238
f 9 255 256
f 14 235 236
f 36 7 247
f 17 44 232
f 6 8 236
f 19 10 256
f 37 5 241
f 41 35 221
f 22 260 261
f 3 251 252
f 9 2 263
f 20 246 247
f 3 40 250
f 27 227 228
f 1 240 241
f 1 12 239
f 21 42 223
f 26 237 238
f 6 264 263
f 16 38 243
f 4 252 253
f 15 33 229
f 239 238 282
f 255 299 300
f 235 279 280
f 248 247 291
f 233 232 276
f 264 236 280
f 257 256 300
f 241 285 286
f 222 221 265
f 260 304 305
f 251 295 296
f 255 263 307
f 246 290 291
f 251 250 294
f 227 271 272
f 240 284 285
f 240 239 283
f 224 223 267
f 237 281 282
f 264 308 307
f 243 287 288
f 252 296 297
f 230 229 273
f 231 275 276
f 222 266 267
f 249 293 294
f 243 242 286
f 248 292 293
f 221 245 289
f 229 228 272
f 261 305 306
f 225 269 270
f 226 270 271
f 237 254 298
f 259 258 302
f 259 303 304
f 225 224 268
f 246 262 306
f 257 301 302
f 233 277 278
f 244 288 289
f 231 230 274
f 235 234 278
f 254 253 297
f 268 267 311
f 281 325 326
f 308 352 351
f 287 331 332
f 296 340 341
f 274 273 317
f 275 319 320
f 266 310 311
f 293 337 338
f 287 286 330
f 292 336 337
f 265 289 333
f 273 272 316
f 305 349 350
f 269 313 314
f 271 270 314
f 281 298 342
f 303 302 346
f 303 347 348
f 269 268 312
f 290 306 350
f 301 345 346
f 277 321 322
f 288 332 333
f 275 274 318
f 279 278 322
f 298 297 341
f 283 282 326
f 299 343 344
f 279 323 324
f 292 291 335
f 277 276 320
f 308 280 324
f 301 300 344
f 285 329 330
f 266 265 309
f 305 304 348
f 295 339 340
f 299 307 351
f 290 334 335
f 295 294 338
f 271 315 316
f 284 328 329
f 284 283 327
f 345 389 390
f 321 365 366
f 332 376 377
f 318 362 363
f 322 366 367
f 341 385 386
f 326 370 371
f 343 387 388
f 323 367 368
f 335 379 380
f 320 364 365
f 324 368 396
f 344 388 389
f 329 373 374
f 309 353 354
f 348 392 393
f 339 383 384
f 351 395 387
f 334 378 379
f 338 382 383
f 315 359 360
f 328 372 373
f 327 371 372
f 311 355 356
f 325 369 370
f 352 396 395
f 331 375 376
f 340 384 385
f 317 361 362
f 319 363 364
f 310 354 355
f 337 381 382
f 330 374 375
f 336 380 381
f 333 377 353
f 316 360 361
f 349 393 394
f 313 357 358
f 314 358 359
f 342 386 369
f 346 390 391
f 347 391 392
f 312 356 357
f 350 394 378
f 202 433 399
f 211 219 401
f 186 185 426
f 197 397 410
f 189 188 421
f 216 432 406
f 183 429 407
f 220 439 401
f 200 417 408
f 213 212 437
f 178 177 425
f 211 398 437
f 220 192 438
f 202 218 427
f 215 431 432
f 178 412 422
f 185 184 407
f 182 428 429
f 204 409 411
f 191 190 434
f 180 179 422
f 207 414 440
f 208 440 415
f 199 198 410
f 181 405 428
f 215 214 403
f 213 420 403
f 204 203 399
f 193 430 419
f 207 206 423
f 181 180 416
f 195 194 419
f 177 201 408
f 187 413 421
f 191 435 438
f 205 411 423
f 217 406 427
f 193 210 404
f 210 209 415
f 187 186 418
f 196 400 397
f 196 195 436
f 199 424 417
f 189 402 434
