v -0.003795 0.029007 0.085499
v -0.005156 0.030026 0.085499
v -0.006649 0.030841 0.085499
v -0.008242 0.031436 0.085499
v -0.009904 0.031797 0.085499
v -0.0116 0.031918 0.085499
v -0.013296 0.031797 0.085499
v -0.014958 0.031436 0.085499
v -0.016551 0.030841 0.085499
v -0.018044 0.030026 0.085499
v -0.019405 0.029007 0.085499
v -0.020607 0.027805 0.085499
v -0.021626 0.026444 0.085499
v -0.022441 0.024951 0.085499
v -0.023036 0.023358 0.085499
v -0.023397 0.021696 0.085499
v -0.000758 0.015049 0.085499
v -0.000164 0.016642 0.085499
v 0.000197 0.018304 0.085499
v 0.000319 0.02 0.085499
v 0.000197 0.021696 0.085499
v -0.000164 0.023358 0.085499
v -0.000758 0.024951 0.085499
v -0.001573 0.026444 0.085499
v -0.002592 0.027805 0.085499
v -0.013296 0.008203 0.085499
v -0.0116 0.008081 0.085499
v -0.009904 0.008203 0.085499
v -0.008242 0.008564 0.085499
v -0.006649 0.009158 0.085499
v -0.005156 0.009973 0.085499
v -0.003795 0.010992 0.085499
v -0.002592 0.012195 0.085499
v -0.001573 0.013556 0.085499
v -0.023036 0.016642 0.085499
v -0.022441 0.015049 0.085499
v -0.021626 0.013556 0.085499
v -0.020607 0.012195 0.085499
v -0.019405 0.010992 0.085499
v -0.018044 0.009973 0.085499
v -0.016551 0.009158 0.085499
v -0.014958 0.008564 0.085499
v -0.023397 0.018304 0.085499
v -0.023518 0.02 0.085499
v -0.024355 0.02 0.085499
v -0.024225 0.018185 0.085499
v -0.015193 0.007762 0.085499
v -0.016898 0.008398 0.085499
v -0.018496 0.00927 0.085499
v -0.019952 0.010361 0.085499
v -0.021239 0.011647 0.085499
v -0.02233 0.013104 0.085499
v -0.023202 0.014701 0.085499
v -0.023838 0.016406 0.085499
v -0.00087 0.013104 0.085499
v -0.001961 0.011647 0.085499
v -0.003247 0.010361 0.085499
v -0.004704 0.00927 0.085499
v -0.006301 0.008398 0.085499
v -0.008006 0.007762 0.085499
v -0.009785 0.007375 0.085499
v -0.0116 0.007245 0.085499
v -0.013415 0.007375 0.085499
v -0.001961 0.028352 0.085499
v -0.00087 0.026896 0.085499
v 2e-06 0.025298 0.085499
v 0.000638 0.023593 0.085499
v 0.001025 0.021815 0.085499
v 0.001155 0.02 0.085499
v 0.001025 0.018185 0.085499
v 0.000638 0.016406 0.085499
v 2e-06 0.014701 0.085499
v -0.024225 0.021815 0.085499
v -0.023838 0.023593 0.085499
v -0.023202 0.025298 0.085499
v -0.02233 0.026896 0.085499
v -0.021239 0.028352 0.085499
v -0.019952 0.029639 0.085499
v -0.018496 0.03073 0.085499
v -0.016898 0.031602 0.085499
v -0.015193 0.032238 0.085499
v -0.013415 0.032625 0.085499
v -0.0116 0.032755 0.085499
v -0.009785 0.032625 0.085499
v -0.008006 0.032238 0.085499
v -0.006301 0.031602 0.085499
v -0.004704 0.03073 0.085499
v -0.003247 0.029639 0.085499
v -0.025124 0.02 0.099093
v -0.024986 0.018075 0.099093
v -0.01541 0.007023 0.099093
v -0.017218 0.007698 0.099093
v -0.018912 0.008623 0.099093
v -0.020456 0.009779 0.099093
v -0.021821 0.011143 0.099093
v -0.022977 0.012688 0.099093
v -0.023902 0.014382 0.099093
v -0.024576 0.01619 0.099093
v -0.000223 0.012688 0.099093
v -0.001379 0.011143 0.099093
v -0.002743 0.009779 0.099093
v -0.004288 0.008623 0.099093
v -0.005982 0.007698 0.099093
v -0.00779 0.007023 0.099093
v -0.009675 0.006613 0.099093
v -0.0116 0.006476 0.099093
v -0.013525 0.006613 0.099093
v -0.001379 0.028856 0.099093
v -0.000223 0.027312 0.099093
v 0.000702 0.025618 0.099093
v 0.001377 0.02381 0.099093
v 0.001787 0.021925 0.099093
v 0.001924 0.02 0.099093
v 0.001787 0.018075 0.099093
v 0.001377 0.01619 0.099093
v 0.000702 0.014382 0.099093
v -0.024986 0.021925 0.099093
v -0.024576 0.02381 0.099093
v -0.023902 0.025618 0.099093
v -0.022977 0.027312 0.099093
v -0.021821 0.028856 0.099093
v -0.020456 0.030221 0.099093
v -0.018912 0.031377 0.099093
v -0.017218 0.032302 0.099093
v -0.01541 0.032976 0.099093
v -0.013525 0.033386 0.099093
v -0.0116 0.033524 0.099093
v -0.009675 0.033386 0.099093
v -0.00779 0.032976 0.099093
v -0.005982 0.032302 0.099093
v -0.004288 0.031377 0.099093
v -0.002743 0.030221 0.099093
v -0.022897 0.02 0.099433
v -0.022782 0.018392 0.099433
v -0.014783 0.00916 0.099433
v -0.016293 0.009724 0.099433
v -0.017708 0.010496 0.099433
v -0.018998 0.011462 0.099433
v -0.020138 0.012602 0.099433
v -0.021104 0.013892 0.099433
v -0.021876 0.015307 0.099433
v -0.02244 0.016817 0.099433
v -0.002096 0.013892 0.099433
v -0.003062 0.012602 0.099433
v -0.004202 0.011462 0.099433
v -0.005492 0.010496 0.099433
v -0.006907 0.009724 0.099433
v -0.008417 0.00916 0.099433
v -0.009992 0.008818 0.099433
v -0.0116 0.008703 0.099433
v -0.013208 0.008818 0.099433
v -0.003062 0.027398 0.099433
v -0.002096 0.026108 0.099433
v -0.001324 0.024693 0.099433
v -0.00076 0.023183 0.099433
v -0.000418 0.021608 0.099433
v -0.000303 0.02 0.099433
v -0.000418 0.018392 0.099433
v -0.00076 0.016817 0.099433
v -0.001324 0.015307 0.099433
v -0.022782 0.021608 0.099433
v -0.02244 0.023183 0.099433
v -0.021876 0.024693 0.099433
v -0.021104 0.026108 0.099433
v -0.020138 0.027398 0.099433
v -0.018998 0.028538 0.099433
v -0.017708 0.029504 0.099433
v -0.016293 0.030276 0.099433
v -0.014783 0.030839 0.099433
v -0.013208 0.031182 0.099433
v -0.0116 0.031297 0.099433
v -0.009992 0.031182 0.099433
v -0.008417 0.030839 0.099433
v -0.006907 0.030276 0.099433
v -0.005492 0.029504 0.099433
v -0.004202 0.028538 0.099433
v -0.020662 0.02 0.099831
v -0.02057 0.01871 0.099831
v -0.014153 0.011305 0.099831
v -0.015364 0.011757 0.099831
v -0.016499 0.012376 0.099831
v -0.017534 0.013151 0.099831
v -0.018449 0.014066 0.099831
v -0.019223 0.015101 0.099831
v -0.019843 0.016235 0.099831
v -0.020295 0.017447 0.099831
v -0.003976 0.015101 0.099831
v -0.004751 0.014066 0.099831
v -0.005666 0.013151 0.099831
v -0.006701 0.012376 0.099831
v -0.007835 0.011757 0.099831
v -0.009047 0.011305 0.099831
v -0.01031 0.01103 0.099831
v -0.0116 0.010938 0.099831
v -0.01289 0.01103 0.099831
v -0.004751 0.025934 0.099831
v -0.003976 0.024899 0.099831
v -0.003357 0.023764 0.099831
v -0.002905 0.022553 0.099831
v -0.00263 0.02129 0.099831
v -0.002538 0.02 0.099831
v -0.00263 0.01871 0.099831
v -0.002905 0.017447 0.099831
v -0.003357 0.016235 0.099831
v -0.02057 0.02129 0.099831
v -0.020295 0.022553 0.099831
v -0.019843 0.023764 0.099831
v -0.019223 0.024899 0.099831
v -0.018449 0.025934 0.099831
v -0.017534 0.026848 0.099831
v -0.016499 0.027623 0.099831
v -0.015364 0.028243 0.099831
v -0.014153 0.028695 0.099831
v -0.01289 0.02897 0.099831
v -0.0116 0.029062 0.099831
v -0.01031 0.02897 0.099831
v -0.009047 0.028695 0.099831
v -0.007835 0.028243 0.099831
v -0.006701 0.027623 0.099831
v -0.005666 0.026848 0.099831
v -0.018387 0.02 0.100123
v -0.018318 0.019034 0.100123
v -0.013512 0.013487 0.100123
v -0.014419 0.013826 0.100123
v -0.015269 0.01429 0.100123
v -0.016045 0.01487 0.100123
v -0.016729 0.015555 0.100123
v -0.01731 0.01633 0.100123
v -0.017774 0.01718 0.100123
v -0.018112 0.018088 0.100123
v -0.00589 0.01633 0.100123
v -0.00647 0.015555 0.100123
v -0.007155 0.01487 0.100123
v -0.00793 0.01429 0.100123
v -0.00878 0.013826 0.100123
v -0.009688 0.013487 0.100123
v -0.010634 0.013282 0.100123
v -0.0116 0.013213 0.100123
v -0.012566 0.013282 0.100123
v -0.00647 0.024445 0.100123
v -0.00589 0.023669 0.100123
v -0.005426 0.022819 0.100123
v -0.005087 0.021912 0.100123
v -0.004882 0.020966 0.100123
v -0.004813 0.02 0.100123
v -0.004882 0.019034 0.100123
v -0.005087 0.018088 0.100123
v -0.005426 0.01718 0.100123
v -0.018318 0.020966 0.100123
v -0.018112 0.021912 0.100123
v -0.017774 0.022819 0.100123
v -0.01731 0.023669 0.100123
v -0.016729 0.024445 0.100123
v -0.016045 0.025129 0.100123
v -0.015269 0.02571 0.100123
v -0.014419 0.026174 0.100123
v -0.013512 0.026512 0.100123
v -0.012566 0.026718 0.100123
v -0.0116 0.026787 0.100123
v -0.010634 0.026718 0.100123
v -0.009688 0.026512 0.100123
v -0.00878 0.026174 0.100123
v -0.00793 0.02571 0.100123
v -0.007155 0.025129 0.100123
v -0.016125 0.02 0.100332
v -0.016079 0.019356 0.100332
v -0.012875 0.015658 0.100332
v -0.01348 0.015884 0.100332
v -0.014046 0.016193 0.100332
v -0.014563 0.01658 0.100332
v -0.01502 0.017036 0.100332
v -0.015407 0.017553 0.100332
v -0.015716 0.01812 0.100332
v -0.015942 0.018725 0.100332
v -0.007793 0.017553 0.100332
v -0.00818 0.017036 0.100332
v -0.008636 0.01658 0.100332
v -0.009153 0.016193 0.100332
v -0.00972 0.015884 0.100332
v -0.010325 0.015658 0.100332
v -0.010956 0.015521 0.100332
v -0.0116 0.015475 0.100332
v -0.012244 0.015521 0.100332
v -0.00818 0.022963 0.100332
v -0.007793 0.022446 0.100332
v -0.007484 0.02188 0.100332
v -0.007258 0.021275 0.100332
v -0.007121 0.020644 0.100332
v -0.007075 0.02 0.100332
v -0.007121 0.019356 0.100332
v -0.007258 0.018725 0.100332
v -0.007484 0.01812 0.100332
v -0.016079 0.020644 0.100332
v -0.015942 0.021275 0.100332
v -0.015716 0.02188 0.100332
v -0.015407 0.022446 0.100332
v -0.01502 0.022963 0.100332
v -0.014563 0.02342 0.100332
v -0.014046 0.023807 0.100332
v -0.01348 0.024116 0.100332
v -0.012875 0.024342 0.100332
v -0.012244 0.024479 0.100332
v -0.0116 0.024525 0.100332
v -0.010956 0.024479 0.100332
v -0.010325 0.024342 0.100332
v -0.00972 0.024116 0.100332
v -0.009153 0.023807 0.100332
v -0.008636 0.02342 0.100332
v -0.013825 0.02 0.100456
v -0.013802 0.019683 0.100456
v -0.012227 0.017865 0.100456
v -0.012524 0.017976 0.100456
v -0.012803 0.018128 0.100456
v -0.013057 0.018318 0.100456
v -0.013282 0.018543 0.100456
v -0.013472 0.018797 0.100456
v -0.013624 0.019075 0.100456
v -0.013735 0.019373 0.100456
v -0.009728 0.018797 0.100456
v -0.009918 0.018543 0.100456
v -0.010143 0.018318 0.100456
v -0.010397 0.018128 0.100456
v -0.010676 0.017976 0.100456
v -0.010973 0.017865 0.100456
v -0.011283 0.017797 0.100456
v -0.0116 0.017775 0.100456
v -0.011917 0.017797 0.100456
v -0.009918 0.021457 0.100456
v -0.009728 0.021203 0.100456
v -0.009576 0.020924 0.100456
v -0.009465 0.020627 0.100456
v -0.009397 0.020317 0.100456
v -0.009375 0.02 0.100456
v -0.009397 0.019683 0.100456
v -0.009465 0.019373 0.100456
v -0.009576 0.019075 0.100456
v -0.013802 0.020317 0.100456
v -0.013735 0.020627 0.100456
v -0.013624 0.020924 0.100456
v -0.013472 0.021203 0.100456
v -0.013282 0.021457 0.100456
v -0.013057 0.021682 0.100456
v -0.012803 0.021872 0.100456
v -0.012524 0.022024 0.100456
v -0.012227 0.022135 0.100456
v -0.011917 0.022202 0.100456
v -0.0116 0.022225 0.100456
v -0.011283 0.022202 0.100456
v -0.010973 0.022135 0.100456
v -0.010676 0.022024 0.100456
v -0.010397 0.021872 0.100456
v -0.010143 0.021682 0.100456
f 68 20 21
f 77 11 12
f 81 7 8
f 86 4 85
f 75 15 74
f 81 9 80
f 55 17 72
f 88 2 87
f 46 35 54
f 59 31 58
f 51 37 38
f 80 10 79
f 83 5 6
f 64 24 25
f 73 15 16
f 67 23 66
f 51 39 50
f 71 19 70
f 86 2 3
f 53 37 52
f 49 39 40
f 56 32 33
f 73 44 45
f 62 26 27
f 59 29 30
f 85 5 84
f 77 13 76
f 67 21 22
f 71 17 18
f 47 26 63
f 53 35 36
f 57 31 32
f 75 13 14
f 79 11 78
f 65 23 24
f 83 7 82
f 64 1 88
f 47 41 42
f 70 20 69
f 49 41 48
f 60 28 29
f 62 28 61
f 56 34 55
f 46 44 43
f 68 69 20
f 77 78 11
f 81 82 7
f 86 3 4
f 75 14 15
f 81 8 9
f 55 34 17
f 88 1 2
f 46 43 35
f 59 30 31
f 51 52 37
f 80 9 10
f 83 84 5
f 64 65 24
f 73 74 15
f 67 22 23
f 51 38 39
f 71 18 19
f 86 87 2
f 53 36 37
f 49 50 39
f 56 57 32
f 73 16 44
f 62 63 26
f 59 60 29
f 85 4 5
f 77 12 13
f 67 68 21
f 71 72 17
f 47 42 26
f 53 54 35
f 57 58 31
f 75 76 13
f 79 10 11
f 65 66 23
f 83 6 7
f 64 25 1
f 47 48 41
f 70 19 20
f 49 40 41
f 60 61 28
f 62 27 28
f 56 33 34
f 46 45 44
f 88 108 64
f 63 106 107
f 74 119 75
f 48 93 49
f 87 132 88
f 61 106 62
f 74 117 118
f 48 91 92
f 87 130 131
f 61 104 105
f 45 117 73
f 45 90 89
f 85 130 86
f 60 103 104
f 72 99 55
f 84 129 85
f 58 103 59
f 72 115 116
f 84 127 128
f 58 101 102
f 70 115 71
f 82 127 83
f 57 100 101
f 69 114 70
f 82 125 126
f 55 100 56
f 69 112 113
f 80 125 81
f 54 90 46
f 68 111 112
f 79 124 80
f 54 97 98
f 66 111 67
f 78 123 79
f 52 97 53
f 65 110 66
f 78 121 122
f 52 95 96
f 65 108 109
f 76 121 77
f 50 95 51
f 63 91 47
f 76 119 120
f 50 93 94
f 127 170 171
f 100 145 101
f 114 157 158
f 125 170 126
f 100 143 144
f 112 157 113
f 125 168 169
f 90 142 134
f 111 156 112
f 124 167 168
f 97 142 98
f 111 154 155
f 123 166 167
f 97 140 141
f 109 154 110
f 121 166 122
f 95 140 96
f 108 153 109
f 121 164 165
f 95 138 139
f 91 151 135
f 119 164 120
f 93 138 94
f 108 176 152
f 106 151 107
f 119 162 163
f 93 136 137
f 132 175 176
f 106 149 150
f 117 162 118
f 91 136 92
f 130 175 131
f 104 149 105
f 117 133 161
f 90 133 89
f 130 173 174
f 103 148 104
f 99 160 143
f 129 172 173
f 103 146 147
f 115 160 116
f 127 172 128
f 101 146 102
f 115 158 159
f 152 197 153
f 165 208 209
f 139 182 183
f 135 195 179
f 163 208 164
f 137 182 138
f 152 220 196
f 150 195 151
f 163 206 207
f 136 181 137
f 176 219 220
f 150 193 194
f 161 206 162
f 135 180 136
f 174 219 175
f 148 193 149
f 161 177 205
f 134 177 133
f 174 217 218
f 147 192 148
f 143 204 187
f 173 216 217
f 147 190 191
f 159 204 160
f 171 216 172
f 145 190 146
f 159 202 203
f 170 215 171
f 144 189 145
f 158 201 202
f 169 214 170
f 144 187 188
f 156 201 157
f 169 212 213
f 134 186 178
f 155 200 156
f 167 212 168
f 141 186 142
f 155 198 199
f 167 210 211
f 141 184 185
f 153 198 154
f 165 210 166
f 139 184 140
f 217 260 261
f 191 234 235
f 203 248 204
f 215 260 216
f 189 234 190
f 203 246 247
f 214 259 215
f 188 233 189
f 202 245 246
f 213 258 214
f 188 231 232
f 200 245 201
f 213 256 257
f 178 230 222
f 199 244 200
f 211 256 212
f 185 230 186
f 199 242 243
f 211 254 255
f 185 228 229
f 197 242 198
f 209 254 210
f 183 228 184
f 196 241 197
f 209 252 253
f 183 226 227
f 179 239 223
f 207 252 208
f 181 226 182
f 196 264 240
f 194 239 195
f 207 250 251
f 180 225 181
f 220 263 264
f 194 237 238
f 205 250 206
f 179 224 180
f 218 263 219
f 192 237 193
f 205 221 249
f 178 221 177
f 218 261 262
f 191 236 192
f 187 248 231
f 255 298 299
f 229 272 273
f 241 286 242
f 253 298 254
f 227 272 228
f 240 285 241
f 253 296 297
f 227 270 271
f 223 283 267
f 251 296 252
f 225 270 226
f 240 308 284
f 239 282 283
f 251 294 295
f 224 269 225
f 264 307 308
f 238 281 282
f 249 294 250
f 223 268 224
f 262 307 263
f 236 281 237
f 249 265 293
f 222 265 221
f 262 305 306
f 235 280 236
f 231 292 275
f 261 304 305
f 235 278 279
f 247 292 248
f 260 303 304
f 233 278 234
f 247 290 291
f 258 303 259
f 232 277 233
f 246 289 290
f 257 302 258
f 232 275 276
f 244 289 245
f 257 300 301
f 222 274 266
f 243 288 244
f 255 300 256
f 229 274 230
f 243 286 287
f 281 324 325
f 293 309 337
f 266 309 265
f 306 349 350
f 279 324 280
f 275 336 319
f 305 348 349
f 279 322 323
f 291 336 292
f 304 347 348
f 277 322 278
f 291 334 335
f 302 347 303
f 277 320 321
f 290 333 334
f 301 346 302
f 276 319 320
f 288 333 289
f 301 344 345
f 266 318 310
f 287 332 288
f 299 344 300
f 273 318 274
f 287 330 331
f 299 342 343
f 273 316 317
f 285 330 286
f 297 342 298
f 271 316 272
f 284 329 285
f 297 340 341
f 271 314 315
f 283 311 267
f 295 340 296
f 269 314 270
f 284 352 328
f 283 326 327
f 295 338 339
f 268 313 269
f 308 351 352
f 281 326 282
f 293 338 294
f 268 311 312
f 306 351 307
f 345 337 313
f 88 132 108
f 63 62 106
f 74 118 119
f 48 92 93
f 87 131 132
f 61 105 106
f 74 73 117
f 48 47 91
f 87 86 130
f 61 60 104
f 45 89 117
f 45 46 90
f 85 129 130
f 60 59 103
f 72 116 99
f 84 128 129
f 58 102 103
f 72 71 115
f 84 83 127
f 58 57 101
f 70 114 115
f 82 126 127
f 57 56 100
f 69 113 114
f 82 81 125
f 55 99 100
f 69 68 112
f 80 124 125
f 54 98 90
f 68 67 111
f 79 123 124
f 54 53 97
f 66 110 111
f 78 122 123
f 52 96 97
f 65 109 110
f 78 77 121
f 52 51 95
f 65 64 108
f 76 120 121
f 50 94 95
f 63 107 91
f 76 75 119
f 50 49 93
f 127 126 170
f 100 144 145
f 114 113 157
f 125 169 170
f 100 99 143
f 112 156 157
f 125 124 168
f 90 98 142
f 111 155 156
f 124 123 167
f 97 141 142
f 111 110 154
f 123 122 166
f 97 96 140
f 109 153 154
f 121 165 166
f 95 139 140
f 108 152 153
f 121 120 164
f 95 94 138
f 91 107 151
f 119 163 164
f 93 137 138
f 108 132 176
f 106 150 151
f 119 118 162
f 93 92 136
f 132 131 175
f 106 105 149
f 117 161 162
f 91 135 136
f 130 174 175
f 104 148 149
f 117 89 133
f 90 134 133
f 130 129 173
f 103 147 148
f 99 116 160
f 129 128 172
f 103 102 146
f 115 159 160
f 127 171 172
f 101 145 146
f 115 114 158
f 152 196 197
f 165 164 208
f 139 138 182
f 135 151 195
f 163 207 208
f 137 181 182
f 152 176 220
f 150 194 195
f 163 162 206
f 136 180 181
f 176 175 219
f 150 149 193
f 161 205 206
f 135 179 180
f 174 218 219
f 148 192 193
f 161 133 177
f 134 178 177
f 174 173 217
f 147 191 192
f 143 160 204
f 173 172 216
f 147 146 190
f 159 203 204
f 171 215 216
f 145 189 190
f 159 158 202
f 170 214 215
f 144 188 189
f 158 157 201
f 169 213 214
f 144 143 187
f 156 200 201
f 169 168 212
f 134 142 186
f 155 199 200
f 167 211 212
f 141 185 186
f 155 154 198
f 167 166 210
f 141 140 184
f 153 197 198
f 165 209 210
f 139 183 184
f 217 216 260
f 191 190 234
f 203 247 248
f 215 259 260
f 189 233 234
f 203 202 246
f 214 258 259
f 188 232 233
f 202 201 245
f 213 257 258
f 188 187 231
f 200 244 245
f 213 212 256
f 178 186 230
f 199 243 244
f 211 255 256
f 185 229 230
f 199 198 242
f 211 210 254
f 185 184 228
f 197 241 242
f 209 253 254
f 183 227 228
f 196 240 241
f 209 208 252
f 183 182 226
f 179 195 239
f 207 251 252
f 181 225 226
f 196 220 264
f 194 238 239
f 207 206 250
f 180 224 225
f 220 219 263
f 194 193 237
f 205 249 250
f 179 223 224
f 218 262 263
f 192 236 237
f 205 177 221
f 178 222 221
f 218 217 261
f 191 235 236
f 187 204 248
f 255 254 298
f 229 228 272
f 241 285 286
f 253 297 298
f 227 271 272
f 240 284 285
f 253 252 296
f 227 226 270
f 223 239 283
f 251 295 296
f 225 269 270
f 240 264 308
f 239 238 282
f 251 250 294
f 224 268 269
f 264 263 307
f 238 237 281
f 249 293 294
f 223 267 268
f 262 306 307
f 236 280 281
f 249 221 265
f 222 266 265
f 262 261 305
f 235 279 280
f 231 248 292
f 261 260 304
f 235 234 278
f 247 291 292
f 260 259 303
f 233 277 278
f 247 246 290
f 258 302 303
f 232 276 277
f 246 245 289
f 257 301 302
f 232 231 275
f 244 288 289
f 257 256 300
f 222 230 274
f 243 287 288
f 255 299 300
f 229 273 274
f 243 242 286
f 281 280 324
f 293 265 309
f 266 310 309
f 306 305 349
f 279 323 324
f 275 292 336
f 305 304 348
f 279 278 322
f 291 335 336
f 304 303 347
f 277 321 322
f 291 290 334
f 302 346 347
f 277 276 320
f 290 289 333
f 301 345 346
f 276 275 319
f 288 332 333
f 301 300 344
f 266 274 318
f 287 331 332
f 299 343 344
f 273 317 318
f 287 286 330
f 299 298 342
f 273 272 316
f 285 329 330
f 297 341 342
f 271 315 316
f 284 328 329
f 297 296 340
f 271 270 314
f 283 327 311
f 295 339 340
f 269 313 314
f 284 308 352
f 283 282 326
f 295 294 338
f 268 312 313
f 308 307 351
f 281 325 326
f 293 337 338
f 268 267 311
f 306 350 351
f 328 352 351
f 351 350 328
f 350 349 328
f 349 348 347
f 347 346 345
f 345 344 343
f 343 342 341
f 341 340 339
f 339 338 337
f 337 309 310
f 310 318 317
f 317 316 315
f 315 314 313
f 313 312 311
f 311 327 313
f 327 326 313
f 326 325 324
f 324 323 326
f 323 322 326
f 322 321 320
f 320 319 336
f 336 335 332
f 335 334 332
f 334 333 332
f 332 331 328
f 331 330 328
f 330 329 328
f 349 347 345
f 345 343 337
f 343 341 337
f 341 339 337
f 337 310 313
f 310 317 313
f 317 315 313
f 322 320 332
f 320 336 332
f 328 349 345
f 313 326 332
f 326 322 332
f 332 328 313
f 328 345 313
