v -0.0116 -0.0252 0.073949
v -0.010483 -0.025263 0.073949
v -0.00938 -0.025454 0.073949
v -0.008307 -0.025769 0.073949
v -0.007276 -0.026205 0.073949
v -0.006302 -0.026755 0.073949
v -0.005396 -0.027413 0.073949
v -0.004572 -0.02817 0.073949
v -0.003839 -0.029015 0.073949
v -0.003208 -0.029939 0.073949
v -0.002686 -0.030928 0.073949
v -0.00228 -0.031971 0.073949
v -0.001995 -0.033053 0.073949
v -0.001836 -0.034161 0.073949
v -0.001804 -0.035279 0.073949
v -0.0019 -0.036394 0.073949
v -0.002122 -0.037491 0.073949
v -0.002468 -0.038555 0.073949
v -0.002933 -0.039573 0.073949
v -0.00351 -0.040531 0.073949
v -0.004194 -0.041417 0.073949
v -0.004973 -0.042219 0.073949
v -0.00584 -0.042928 0.073949
v -0.006781 -0.043533 0.073949
v -0.007785 -0.044026 0.073949
v -0.008839 -0.044402 0.073949
v -0.009929 -0.044656 0.073949
v -0.01104 -0.044783 0.073949
v -0.012159 -0.044783 0.073949
v -0.013271 -0.044656 0.073949
v -0.014361 -0.044402 0.073949
v -0.015415 -0.044026 0.073949
v -0.016419 -0.043533 0.073949
v -0.01736 -0.042928 0.073949
v -0.018226 -0.042219 0.073949
v -0.019006 -0.041417 0.073949
v -0.019689 -0.040531 0.073949
v -0.020267 -0.039573 0.073949
v -0.020732 -0.038555 0.073949
v -0.021078 -0.037491 0.073949
v -0.0213 -0.036394 0.073949
v -0.021396 -0.035279 0.073949
v -0.021364 -0.034161 0.073949
v -0.021205 -0.033053 0.073949
v -0.02092 -0.031971 0.073949
v -0.020514 -0.030928 0.073949
v -0.019992 -0.029939 0.073949
v -0.01936 -0.029015 0.073949
v -0.018628 -0.02817 0.073949
v -0.017803 -0.027413 0.073949
v -0.016898 -0.026755 0.073949
v -0.015924 -0.026205 0.073949
v -0.014893 -0.025769 0.073949
v -0.01382 -0.025454 0.073949
v -0.012717 -0.025263 0.073949
v -0.01692 -0.043467 0.073949
v -0.015939 -0.044009 0.073949
v -0.014903 -0.044438 0.073949
v -0.013825 -0.044749 0.073949
v -0.01272 -0.044936 0.073949
v -0.0116 -0.044999 0.073949
v -0.01048 -0.044936 0.073949
v -0.009375 -0.044749 0.073949
v -0.008297 -0.044438 0.073949
v -0.007261 -0.044009 0.073949
v -0.00628 -0.043467 0.073949
v -0.005365 -0.042818 0.073949
v -0.004529 -0.04207 0.073949
v -0.003782 -0.041234 0.073949
v -0.003133 -0.04032 0.073949
v -0.00259 -0.039338 0.073949
v -0.002161 -0.038302 0.073949
v -0.001851 -0.037225 0.073949
v -0.001663 -0.036119 0.073949
v -0.0016 -0.034999 0.073949
v -0.001663 -0.03388 0.073949
v -0.001851 -0.032774 0.073949
v -0.002161 -0.031697 0.073949
v -0.00259 -0.030661 0.073949
v -0.003133 -0.029679 0.073949
v -0.003782 -0.028765 0.073949
v -0.004529 -0.027928 0.073949
v -0.005365 -0.027181 0.073949
v -0.00628 -0.026532 0.073949
v -0.007261 -0.02599 0.073949
v -0.008297 -0.025561 0.073949
v -0.009375 -0.02525 0.073949
v -0.01048 -0.025062 0.073949
v -0.0116 -0.025 0.073949
v -0.01272 -0.025062 0.073949
v -0.013825 -0.02525 0.073949
v -0.014903 -0.025561 0.073949
v -0.015939 -0.02599 0.073949
v -0.01692 -0.026532 0.073949
v -0.017835 -0.027181 0.073949
v -0.018671 -0.027928 0.073949
v -0.019418 -0.028765 0.073949
v -0.020067 -0.029679 0.073949
v -0.020609 -0.030661 0.073949
v -0.021039 -0.031697 0.073949
v -0.021349 -0.032774 0.073949
v -0.021537 -0.03388 0.073949
v -0.0216 -0.034999 0.073949
v -0.021537 -0.036119 0.073949
v -0.021349 -0.037225 0.073949
v -0.021039 -0.038302 0.073949
v -0.020609 -0.039338 0.073949
v -0.020067 -0.04032 0.073949
v -0.019418 -0.041234 0.073949
v -0.018671 -0.04207 0.073949
v -0.017835 -0.042818 0.073949
v -0.0116 -0.025 0.072999
v -0.01048 -0.025062 0.072999
v -0.009375 -0.02525 0.072999
v -0.008297 -0.025561 0.072999
v -0.007261 -0.02599 0.072999
v -0.00628 -0.026532 0.072999
v -0.005365 -0.027181 0.072999
v -0.004529 -0.027928 0.072999
v -0.003782 -0.028765 0.072999
v -0.003133 -0.029679 0.072999
v -0.00259 -0.030661 0.072999
v -0.002161 -0.031697 0.072999
v -0.001851 -0.032774 0.072999
v -0.001663 -0.03388 0.072999
v -0.0016 -0.034999 0.072999
v -0.001663 -0.036119 0.072999
v -0.001851 -0.037225 0.072999
v -0.002161 -0.038302 0.072999
v -0.00259 -0.039338 0.072999
v -0.003133 -0.04032 0.072999
v -0.003782 -0.041234 0.072999
v -0.004529 -0.04207 0.072999
v -0.005365 -0.042818 0.072999
v -0.00628 -0.043467 0.072999
v -0.007261 -0.044009 0.072999
v -0.008297 -0.044438 0.072999
v -0.009375 -0.044749 0.072999
v -0.01048 -0.044936 0.072999
v -0.0116 -0.044999 0.072999
v -0.01272 -0.044936 0.072999
v -0.013825 -0.044749 0.072999
v -0.014903 -0.044438 0.072999
v -0.015939 -0.044009 0.072999
v -0.01692 -0.043467 0.072999
v -0.017835 -0.042818 0.072999
v -0.018671 -0.04207 0.072999
v -0.019418 -0.041234 0.072999
v -0.020067 -0.04032 0.072999
v -0.020609 -0.039338 0.072999
v -0.021039 -0.038302 0.072999
v -0.021349 -0.037225 0.072999
v -0.021537 -0.036119 0.072999
v -0.0216 -0.034999 0.072999
v -0.021537 -0.03388 0.072999
v -0.021349 -0.032774 0.072999
v -0.021039 -0.031697 0.072999
v -0.020609 -0.030661 0.072999
v -0.020067 -0.029679 0.072999
v -0.019418 -0.028765 0.072999
v -0.018671 -0.027928 0.072999
v -0.017835 -0.027181 0.072999
v -0.01692 -0.026532 0.072999
v -0.015939 -0.02599 0.072999
v -0.014903 -0.025561 0.072999
v -0.013825 -0.02525 0.072999
v -0.01272 -0.025062 0.072999
v -0.019534 -0.035499 0.072999
v -0.019534 -0.0345 0.072999
v -0.019409 -0.03351 0.072999
v -0.019161 -0.032543 0.072999
v -0.018793 -0.031615 0.072999
v -0.018312 -0.03074 0.072999
v -0.017725 -0.029932 0.072999
v -0.017042 -0.029204 0.072999
v -0.016273 -0.028568 0.072999
v -0.01543 -0.041966 0.072999
v -0.016273 -0.041431 0.072999
v -0.017042 -0.040795 0.072999
v -0.017725 -0.040067 0.072999
v -0.018312 -0.039259 0.072999
v -0.018793 -0.038384 0.072999
v -0.019161 -0.037456 0.072999
v -0.019409 -0.036489 0.072999
v -0.01543 -0.028033 0.072999
v -0.014526 -0.027608 0.072999
v -0.013577 -0.027299 0.072999
v -0.012596 -0.027112 0.072999
v -0.0116 -0.02705 0.072999
v -0.010604 -0.027112 0.072999
v -0.009623 -0.027299 0.072999
v -0.008673 -0.027608 0.072999
v -0.00777 -0.028033 0.072999
v -0.006927 -0.041431 0.072999
v -0.00777 -0.041966 0.072999
v -0.008673 -0.042391 0.072999
v -0.009623 -0.0427 0.072999
v -0.010604 -0.042887 0.072999
v -0.0116 -0.042949 0.072999
v -0.012596 -0.042887 0.072999
v -0.013577 -0.0427 0.072999
v -0.014526 -0.042391 0.072999
v -0.003666 -0.0345 0.072999
v -0.003666 -0.035499 0.072999
v -0.003791 -0.036489 0.072999
v -0.004039 -0.037456 0.072999
v -0.004407 -0.038384 0.072999
v -0.004888 -0.039259 0.072999
v -0.005474 -0.040067 0.072999
v -0.006158 -0.040795 0.072999
v -0.006927 -0.028568 0.072999
v -0.006158 -0.029204 0.072999
v -0.005474 -0.029932 0.072999
v -0.004888 -0.03074 0.072999
v -0.004407 -0.031615 0.072999
v -0.004039 -0.032543 0.072999
v -0.003791 -0.03351 0.072999
f 155 170 169
f 162 175 161
f 118 212 211
f 158 173 172
f 93 53 92
f 161 174 160
f 138 198 197
f 113 189 112
f 168 154 169
f 157 172 171
f 160 173 159
f 167 189 188
f 132 208 131
f 141 199 140
f 136 196 195
f 97 49 96
f 96 50 95
f 95 51 94
f 94 52 93
f 92 54 91
f 91 55 90
f 90 1 89
f 88 1 2
f 87 2 3
f 86 3 4
f 85 4 5
f 84 5 6
f 83 6 7
f 82 7 8
f 81 8 9
f 162 96 95
f 89 113 112
f 56 57 32
f 32 57 58
f 32 58 31
f 31 58 59
f 31 59 30
f 30 59 60
f 30 60 29
f 29 60 61
f 29 61 28
f 28 61 62
f 28 62 27
f 27 62 63
f 27 63 26
f 26 63 64
f 26 64 25
f 25 64 65
f 25 65 24
f 24 65 66
f 24 66 23
f 23 66 67
f 23 67 22
f 22 67 68
f 22 68 21
f 21 68 69
f 21 69 20
f 20 69 70
f 20 70 19
f 19 70 71
f 19 71 18
f 18 71 72
f 18 72 17
f 17 72 73
f 17 73 16
f 16 73 74
f 16 74 15
f 15 74 75
f 15 75 14
f 14 75 76
f 14 76 13
f 13 76 77
f 13 77 12
f 12 77 78
f 12 78 11
f 11 78 79
f 11 79 10
f 10 79 80
f 10 80 9
f 9 80 81
f 48 97 47
f 47 97 98
f 47 98 46
f 46 98 99
f 46 99 45
f 45 99 100
f 45 100 44
f 44 100 101
f 44 101 43
f 43 101 102
f 43 102 42
f 42 102 103
f 42 103 41
f 41 103 104
f 41 104 40
f 40 104 105
f 40 105 39
f 39 105 106
f 39 106 38
f 38 106 107
f 38 107 37
f 37 107 108
f 37 108 36
f 36 108 109
f 36 109 35
f 35 109 110
f 35 110 34
f 34 110 111
f 34 111 33
f 33 111 56
f 33 56 32
f 114 88 87
f 115 87 86
f 116 86 85
f 117 85 84
f 118 84 83
f 119 83 82
f 120 82 81
f 121 81 80
f 122 80 79
f 123 79 78
f 124 78 77
f 125 77 76
f 126 76 75
f 127 75 74
f 128 74 73
f 129 73 72
f 130 72 71
f 131 71 70
f 132 70 69
f 133 69 68
f 134 68 67
f 135 67 66
f 136 66 65
f 137 65 64
f 138 64 63
f 139 63 62
f 140 62 61
f 141 61 60
f 142 60 59
f 143 59 58
f 144 58 57
f 145 57 56
f 146 56 111
f 147 111 110
f 148 110 109
f 149 109 108
f 150 108 107
f 151 107 106
f 152 106 105
f 153 105 104
f 154 104 103
f 155 103 102
f 156 102 101
f 157 101 100
f 158 100 99
f 159 99 98
f 160 98 97
f 161 97 96
f 163 95 94
f 164 94 93
f 165 93 92
f 166 92 91
f 167 91 90
f 112 90 89
f 169 154 155
f 153 184 152
f 152 183 151
f 129 207 206
f 150 181 149
f 148 181 180
f 147 180 179
f 146 179 178
f 133 209 132
f 130 208 207
f 123 215 122
f 128 206 205
f 127 205 204
f 194 135 195
f 185 163 164
f 137 197 196
f 144 202 143
f 117 211 193
f 195 135 136
f 116 192 115
f 115 191 114
f 114 190 113
f 166 188 187
f 165 187 186
f 164 186 185
f 177 144 145
f 204 126 127
f 125 217 124
f 124 216 123
f 151 182 150
f 122 214 121
f 120 214 213
f 119 213 212
f 193 116 117
f 134 210 133
f 163 176 162
f 143 201 142
f 142 200 141
f 145 178 177
f 139 199 198
f 203 126 204
f 156 171 170
f 155 156 170
f 162 176 175
f 118 119 212
f 158 159 173
f 93 52 53
f 161 175 174
f 138 139 198
f 113 190 189
f 168 153 154
f 157 158 172
f 160 174 173
f 167 112 189
f 132 209 208
f 141 200 199
f 136 137 196
f 97 48 49
f 96 49 50
f 95 50 51
f 94 51 52
f 92 53 54
f 91 54 55
f 90 55 1
f 88 89 1
f 87 88 2
f 86 87 3
f 85 86 4
f 84 85 5
f 83 84 6
f 82 83 7
f 81 82 8
f 162 161 96
f 89 88 113
f 114 113 88
f 115 114 87
f 116 115 86
f 117 116 85
f 118 117 84
f 119 118 83
f 120 119 82
f 121 120 81
f 122 121 80
f 123 122 79
f 124 123 78
f 125 124 77
f 126 125 76
f 127 126 75
f 128 127 74
f 129 128 73
f 130 129 72
f 131 130 71
f 132 131 70
f 133 132 69
f 134 133 68
f 135 134 67
f 136 135 66
f 137 136 65
f 138 137 64
f 139 138 63
f 140 139 62
f 141 140 61
f 142 141 60
f 143 142 59
f 144 143 58
f 145 144 57
f 146 145 56
f 147 146 111
f 148 147 110
f 149 148 109
f 150 149 108
f 151 150 107
f 152 151 106
f 153 152 105
f 154 153 104
f 155 154 103
f 156 155 102
f 157 156 101
f 158 157 100
f 159 158 99
f 160 159 98
f 161 160 97
f 163 162 95
f 164 163 94
f 165 164 93
f 166 165 92
f 167 166 91
f 112 167 90
f 153 168 184
f 152 184 183
f 129 130 207
f 150 182 181
f 148 149 181
f 147 148 180
f 146 147 179
f 133 210 209
f 130 131 208
f 123 216 215
f 128 129 206
f 127 128 205
f 194 134 135
f 137 138 197
f 144 177 202
f 117 118 211
f 116 193 192
f 115 192 191
f 114 191 190
f 166 167 188
f 165 166 187
f 164 165 186
f 125 203 217
f 124 217 216
f 151 183 182
f 122 215 214
f 120 121 214
f 119 120 213
f 134 194 210
f 163 185 176
f 143 202 201
f 142 201 200
f 145 146 178
f 139 140 199
f 203 125 126
f 156 157 171
