v -0.0393711 0.0285772 0.393108
v -0.0399459 0.03583 0.434117
v -0.0398391 0.0336543 0.427827
v -0.0229977 -0.0216202 0.459478
v -0.0361124 -0.0423102 0.423418
v -0.0295094 -0.0143432 0.458087
v -0.037547 -0.0386982 0.406592
v -0.0230899 0.0244902 0.457663
v -0.0395298 -0.0112664 0.459995
v -0.0319566 0.00331276 0.465969
v -0.0338252 0.0169436 0.380325
v -0.0389124 0.0223213 0.432523
v -0.0336548 0.027112 0.429687
v -0.0397049 -0.0395867 0.422037
v -0.0414114 -0.0327425 0.427496
v -0.0230363 -0.0122568 0.378298
v -0.0404764 -0.0227164 0.444318
v -0.0398513 -0.0346748 0.436134
v -0.0396255 0.0173488 0.424588
v -0.0402011 0.025782 0.44324
v -0.032353 -0.0316616 0.453343
v -0.0400422 0.00810517 0.392062
v -0.0398185 0.0189818 0.430661
v -0.0317034 0.0169595 0.459207
v -0.0311527 0.0174665 0.462266
v -0.0363807 0.00746743 0.441325
v -0.0457148 -0.0252269 0.440437
v -0.0406775 -0.0214478 0.441628
v -0.0476572 -0.0268269 0.433666
v -0.0395811 0.015636 0.411429
v -0.0358382 -0.0183837 0.418348
v -0.0380127 -0.00950376 0.409463
v -0.0231481 -0.0308656 0.389562
v -0.040862 0.00829452 0.396733
v -0.0421562 0.0121579 0.394468
v -0.041915 0.0191224 0.445893
v -0.0414811 -0.032352 0.440249
v -0.0395684 -0.00864119 0.382947
v -0.0398278 -0.0112478 0.403009
v -0.0351834 0.0224708 0.429887
v -0.0455729 0.0248096 0.44039
v -0.0314421 -0.01296 0.377896
v -0.0314319 0.0199921 0.460122
v -0.0365119 0.0158144 0.414131
v -0.0356646 0.018973 0.41859
v -0.0302864 0.0370135 0.434709
v -0.0283033 0.0148101 0.383217
v -0.0461285 -0.0312601 0.439693
v -0.0290531 0.038519 0.406203
v -0.0348565 -0.0377739 0.400543
v -0.0360057 -0.00325198 0.43448
v -0.0360996 -0.00807122 0.432287
v -0.0231337 0.0433999 0.429611
v -0.023133 -0.0300186 0.45212
v -0.0356579 0.00305473 0.384095
v -0.0406927 0.00680924 0.400097
v -0.0407848 -2.50092e-05 0.404611
v -0.0420849 -0.0118962 0.398167
v -0.0403347 -0.0300776 0.398954
v -0.0393769 -0.036603 0.407619
v -0.0399139 0.00630229 0.455611
v -0.0337335 -0.0187196 0.46089
v -0.033155 -0.0425425 0.434107
v -0.0400524 -0.0243184 0.450952
v -0.0371051 0.0376044 0.402571
v -0.0398855 -0.0156473 0.410727
v -0.0373309 0.00570161 0.405136
v -0.0462084 0.00145039 0.377849
v -0.0341322 0.00106113 0.377559
v -0.0395353 0.0113612 0.384123
v -0.0463815 0.022488 0.428523
v -0.0393471 0.0173479 0.456004
v -0.0385223 -0.0284475 0.393543
v -0.0231971 0.0203389 0.382246
v -0.0231219 0.037814 0.396838
v -0.0233538 0.0191613 0.459495
v -0.0319216 0.00154239 0.465024
v -0.0266912 -0.0442887 0.420472
v -0.0364518 0.00566575 0.436912
v -0.0318752 0.0328033 0.388288
v -0.0322009 0.0327425 0.452166
v -0.0320144 -0.0443932 0.413075
v -0.0312107 0.0139158 0.457744
v -0.017456 -0.0367748 0.405359
v -0.032575 0.0411405 0.406361
v -0.0311679 0.0374491 0.40361
v -0.0352891 -0.0287854 0.427732
v -0.0335334 -0.0181326 0.380474
v -0.0294577 -0.0148929 0.383964
v -0.0415166 -0.00798535 0.398375
v -0.0415527 0.0122867 0.399614
v -0.0433623 0.00845429 0.398301
v -0.0376188 0.0141547 0.424087
v -0.0360541 0.00240062 0.406629
v -0.0356892 -0.013036 0.424936
v -0.0360642 0.0119586 0.412772
v -0.0360368 0.00511859 0.433863
v -0.0233456 0.0421703 0.407974
v -0.0219146 -0.0421193 0.434232
v -0.0286883 -0.0420941 0.434573
v -0.0209746 0.0391053 0.439673
v -0.0230802 0.00418503 0.46406
v -0.0385544 -0.00427181 0.385177
v -0.0396055 0.00628456 0.379514
v -0.040629 0.0221828 0.442751
v -0.0398317 -0.0121896 0.457418
v -0.0330341 0.0144936 0.461853
v -0.0374342 0.0378961 0.436756
v -0.0390094 0.0163822 0.457267
v -0.039522 0.0398668 0.421432
v -0.0317562 0.0460132 0.41815
v -0.0401868 -0.0114532 0.383665
v -0.0399362 -0.00622071 0.386808
v -0.039911 -0.00553647 0.401
v -0.0359339 -0.00847911 0.406125
v -0.0433848 -0.00518535 0.377689
v -0.0415967 0.0318545 0.431499
v -0.0365701 0.0293292 0.43111
v -0.0458653 0.0279876 0.431754
v -0.0348073 0.0155079 0.386707
v -0.0417945 0.0333016 0.405241
v -0.0350726 -0.0224194 0.382852
v -0.0333824 -0.0266942 0.429037
v -0.0455735 0.0253299 0.439767
v -0.0404116 -0.0280637 0.394033
v -0.0340466 -0.0389209 0.439236
v -0.0390466 -0.0146329 0.457845
v -0.0409377 -0.00254165 0.456639
v -0.0446685 0.0308074 0.426865
v -0.04148 -0.0197719 0.42885
v -0.0312676 -0.0145689 0.383125
v -0.0316734 0.0420752 0.407322
v -0.023075 0.01401 0.461174
v -0.0287113 0.0144421 0.46203
v -0.0307201 0.0133062 0.463327
v -0.03123 -0.0129174 0.463258
v -0.0317896 -0.0339966 0.448994
v -0.0315698 -0.0420478 0.407077
v -0.0232017 0.0135642 0.379438
v -0.0358782 -0.00259139 0.437062
v -0.037254 0.00973314 0.434693
v -0.0189581 -0.0428044 0.404044
v -0.0321621 -0.0416022 0.437401
v -0.0166981 -0.0333627 0.45035
v -0.0255163 -0.0387098 0.43864
v -0.0230121 0.0384492 0.402114
v -0.0315813 0.0395934 0.436386
v -0.0314333 0.0386411 0.438843
v -0.0314266 0.0182023 0.381894
v -0.0312309 -0.0377788 0.40527
v -0.0312611 -0.0378486 0.434827
v -0.0314502 -0.0373931 0.438297
v -0.0368769 0.0085494 0.45478
v -0.0362078 -0.00553159 0.455184
v -0.0370709 -0.0216725 0.429015
v -0.0352291 0.0238991 0.428598
v -0.0406946 0.0198709 0.429467
v -0.0459079 0.0313403 0.439958
v -0.04201 -0.0223718 0.432555
v -0.0394179 -0.020543 0.431941
v -0.0339169 0.0212868 0.383249
v -0.0310761 0.0202013 0.382256
v -0.0400479 0.00125614 0.403363
v -0.0385694 0.00788719 0.408233
v -0.0384506 -0.0126875 0.429196
v -0.0360729 -0.0137517 0.417493
v -0.0360444 0.0120838 0.428076
v -0.0362217 0.0105659 0.429885
v -0.023196 -0.0429491 0.407953
v -0.0243167 0.0186724 0.38197
v -0.0412145 0.0055539 0.384174
v -0.0378859 -0.00643346 0.378584
v -0.0407164 0.00269815 0.447576
v -0.0394114 0.00634411 0.441015
v -0.0399299 -0.00485421 0.454751
v -0.0394897 -0.0331218 0.428452
v -0.0395043 0.034979 0.44168
v -0.0396358 -0.00569616 0.404387
v -0.0379314 -0.0180931 0.421593
v -0.0396998 0.0332549 0.43917
v -0.0449361 0.0310752 0.439989
v -0.0403774 0.0340222 0.438413
v -0.0346584 -0.0145116 0.385124
v -0.0316308 0.042685 0.433706
v -0.0244394 -0.0184512 0.459619
v -0.0300146 -0.0395808 0.440769
v -0.0308719 -0.0204649 0.381183
v -0.0342912 0.0285402 0.387715
v -0.0375595 0.00927629 0.459018
v -0.0314354 -0.0203768 0.459379
v -0.039692 -0.0112726 0.434301
v -0.0364444 -0.0113054 0.433182
v -0.0313514 0.00645991 0.375486
v -0.0305761 0.0420433 0.436958
v -0.0167639 0.0445633 0.416684
v -0.0168444 -0.00196557 0.466015
v -0.0325269 0.0384716 0.442503
v -0.0218423 -0.0156233 0.382939
v -0.01747 0.0156197 0.458302
v -0.0238824 0.0404222 0.435358
v -0.0175852 0.0366539 0.435662
v -0.0296298 0.0369307 0.437279
v -0.0361721 -0.0142405 0.382602
v -0.0407031 -0.0256133 0.444218
v -0.0435845 -0.0285265 0.441994
v -0.0406271 -0.0318959 0.430843
v -0.037281 -0.0238998 0.432273
v -0.0290039 0.0154427 0.457671
v -0.0372835 -0.00463719 0.460833
v -0.0300235 0.0366742 0.404054
v -0.0310637 -0.0359384 0.405832
v -0.0308163 0.0135499 0.383719
v -0.0302227 -0.0377535 0.434435
v -0.0434156 0.000714352 0.386359
v -0.038451 0.00380642 0.434612
v -0.0229764 -0.0194197 0.38174
v -0.0337815 0.0140034 0.380897
v -0.0329353 0.00105027 0.376675
v -0.0338413 -0.0208248 0.382866
v -0.0401845 0.0272074 0.394683
v -0.0406474 -0.0357394 0.411697
v -0.0401469 -0.0323128 0.442008
v -0.0408276 0.01278 0.454216
v -0.0409039 0.0336273 0.426975
v -0.0473229 -0.0273396 0.428219
v -0.0371791 0.0408107 0.410589
v -0.0295578 0.0395174 0.39967
v -0.0269144 0.0333693 0.449457
v -0.0263738 0.0390188 0.439825
v -0.0269134 -0.0140928 0.462058
v -0.0325482 -0.0437501 0.41889
v -0.0342776 -0.0286731 0.388026
v -0.0303722 0.0131559 0.378123
v -0.0319649 -0.0408417 0.400936
v -0.0310526 -0.0359313 0.435597
v -0.0310206 0.0175787 0.456859
v -0.017451 -0.0162964 0.457505
v -0.0313127 -0.0157477 0.4579
v -0.0312574 0.0148194 0.383455
v -0.0363558 0.0144376 0.382983
v -0.0428115 -0.00259627 0.452611
v -0.0445947 -0.0253848 0.431963
v -0.0396936 0.00686692 0.385683
v -0.0294354 -0.0365509 0.405584
v -0.0328454 -0.0002931 0.386751
v -0.0435018 -0.00391661 0.387116
v -0.0448993 0.00207316 0.386902
v -0.0438541 0.0230333 0.432593
v -0.0325865 0.0125743 0.378786
v -0.039373 0.0087347 0.386999
v -0.0307851 -0.0169591 0.384786
v -0.0297455 -0.0184155 0.381778
v -0.0210575 -0.0371419 0.435473
v -0.0421966 -0.0180154 0.445377
v -0.0362612 -0.0272873 0.43155
v -0.0367793 0.0303275 0.429709
v -0.0361362 -0.0295719 0.429855
v -0.0369775 -0.0110517 0.402978
v -0.037095 0.00773129 0.388788
v -0.0454227 -0.000965591 0.400945
v -0.0436481 -0.00131234 0.401697
v -0.0459 -0.000404285 0.401172
v -0.0408772 -0.0064128 0.399679
v -0.0461558 0.00130874 0.398663
v -0.00528407 0.032415 0.437331
v -0.01645 0.0299299 0.420091
v -0.00939811 0.0302322 0.44008
v 0.00248074 0.0313646 0.43842
v -0.0206618 0.00618073 0.408155
v -0.0164503 -0.0351323 0.416918
v -0.0164484 0.0167462 0.452264
v -0.016448 0.00187278 0.464337
v -0.00453101 0.018924 0.451177
v -0.00541542 0.0224983 0.449726
v -0.00329549 0.0196983 0.451289
v 0.00297003 0.0180082 0.452222
v -0.00746938 0.0149071 0.454447
v -0.0174518 -0.00704795 0.454857
v -0.0174513 0.0318014 0.407788
v 0.000816457 -0.000232157 0.456642
v -0.00808971 0.00107626 0.456558
v -0.0164495 -0.0417653 0.408007
v -0.0164573 -0.0361984 0.420444
v -0.0195489 -0.0121689 0.41222
v -0.0163423 0.000547167 0.456396
v -0.0165819 0.0170029 0.420368
v -0.0164513 -0.0302933 0.439311
v -0.00937737 -0.0167168 0.45244
v -0.0164478 -0.022951 0.420648
v -0.00941625 0.0175735 0.451581
v -0.0094718 0.0138581 0.449814
v -0.0175429 -0.00537332 0.457925
v -0.0165615 -0.0165722 0.422359
v -0.00940867 -0.0112776 0.45491
v -0.00944992 -0.00272147 0.448885
v -0.00946676 -0.0057849 0.44876
v -0.00943091 -0.0225888 0.448617
v -0.00944997 -0.0153309 0.448955
v -0.00944987 0.0103733 0.449441
v -0.00913904 -0.0247818 0.44717
v -0.00945 0.0195685 0.443588
v -0.0164504 0.0224265 0.41873
v -0.0092674 0.0253728 0.446572
v -0.00947505 0.022315 0.448969
v -0.00944939 -0.00599701 0.444428
v -0.00945 -0.00924953 0.445297
v -0.00945 -0.0239103 0.443584
v -0.0164505 0.00992343 0.455114
v -0.00944411 -0.0121027 0.449507
v -0.00945 -0.0156988 0.443448
v -0.00944806 0.00113911 0.43924
v -0.00945274 0.00921756 0.442938
v -0.00944956 0.0139213 0.442461
v -0.00945767 -0.019191 0.44221
v -0.00945 0.0166767 0.441009
v -0.00944941 0.0198947 0.435578
v -0.00944992 0.0178289 0.439252
v -0.00944996 0.0237269 0.439912
v -0.00945066 -0.0266246 0.439089
v -0.0164501 0.0342956 0.410724
v -0.0094606 0.00891683 0.436853
v -0.00941884 -0.00478135 0.43354
v -0.00945 -0.0106241 0.440111
v -0.00944888 -0.0187662 0.437133
v -0.00946471 -0.0136046 0.437493
v -0.0094492 -0.0186852 0.439815
v -0.0197871 0.0142764 0.423604
v -0.01645 0.0358282 0.416816
v -0.00944971 0.0159692 0.440834
v -0.00945206 0.012793 0.431568
v -0.00945114 0.0171581 0.429622
v -0.00945765 -0.0135609 0.433321
v -0.00944963 0.0219566 0.431496
v -0.00944707 0.0274606 0.430432
v -0.00945 0.0257156 0.432315
v -0.00945 0.0261896 0.428056
v -0.00944991 -0.0254325 0.429091
v -0.00944853 -0.0194804 0.428159
v -0.00945 -0.0255115 0.430143
v -0.00958336 0.00212073 0.421656
v -0.00946389 0.0349959 0.428354
v -0.0177705 -0.0349325 0.431678
v 0.0260148 -0.0157627 0.393682
v -0.00945 -0.027986 0.427075
v 0.0260006 -0.00923007 0.390578
v 0.0207053 -0.00509614 0.389876
v -0.00945 0.0212921 0.427087
v 0.0260212 -0.000591177 0.388882
v 0.0188104 0.00761281 0.38957
v -0.00944832 0.0195476 0.426097
v 0.0259769 0.00791333 0.391236
v -0.0164497 -0.0240913 0.423197
v -0.0094494 -0.0296503 0.422848
v -0.00944888 -0.0243683 0.42553
v 0.0188631 0.0157546 0.39315
v -0.00943793 -0.036066 0.423241
v -0.01645 -0.0290684 0.419598
v -0.00945303 0.0357996 0.424317
v 0.0189422 0.0213395 0.397528
v -0.00945004 0.0297582 0.422439
v 0.0259825 0.0276576 0.40782
v -0.01645 -0.028932 0.422713
v 0.0206913 0.0308174 0.413924
v 0.0188958 0.0315533 0.42063
v 0.0259818 0.0303966 0.41805
v -0.0166173 0.00280196 0.403883
v 0.0236838 0.0296689 0.429878
v -0.00945046 -0.0228349 0.423772
v -0.0164501 0.03546 0.424509
v -0.00946396 -0.0316516 0.417744
v 0.0188733 0.02543 0.439819
v 0.018794 0.0210692 0.444683
v -0.0164482 0.0357528 0.421653
v 0.0230663 0.017103 0.446759
v 0.0259807 0.0128825 0.448361
v 0.0192216 0.00793491 0.450594
v -0.0094125 -0.0141211 0.418231
v 0.0260474 0.00497207 0.451767
v 0.0188003 -0.00480171 0.452245
v -0.0166558 0.0103445 0.407452
v -0.0176138 0.0309171 0.452148
v -0.00944984 -0.0236523 0.419108
v 0.0260024 -0.0213821 0.443909
v -0.00944919 0.0249919 0.4165
v 0.0259825 -0.0276576 0.43358
v -0.0186734 -0.0317868 0.434403
v -0.00945 -0.0275608 0.41467
v -0.00945088 -0.0129528 0.406178
v 0.018773 -0.0312918 0.426968
v -0.00945324 0.0150157 0.413471
v 0.0259818 -0.0303966 0.42335
v 0.0218169 -0.0317496 0.421228
v -0.01645 -0.0332519 0.423651
v -0.00945789 0.0351966 0.414087
v 0.0259827 -0.0249845 0.403188
v -0.0175904 0.00174558 0.464694
v -0.0175465 -0.0215452 0.459731
v 0.018794 -0.0210705 0.396719
v -0.00947508 -0.0338128 0.409162
v 0.0190699 -0.0175819 0.395067
v 0.0188364 -0.0130576 0.391776
v -0.0164499 0.0267442 0.419546
v 0.0188243 -0.000727653 0.388837
v 0.0260262 0.00802013 0.389443
v 0.026009 0.014361 0.392661
v -0.0199013 -0.000186268 0.406395
v -0.0168791 -0.0440458 0.431671
v 0.0176116 0.0249168 0.400405
v 0.0259989 0.0261796 0.403697
v 0.0188308 0.0293403 0.408205
v 0.0260198 0.0310632 0.412009
v 0.0186178 0.0316283 0.426107
v 0.0259757 0.0312436 0.425184
v 0.0190024 0.0286686 0.433719
v 0.0260006 0.0278161 0.434875
v -0.0180004 -0.0441846 0.425972
v 0.0260352 0.0252079 0.439627
v 0.0260337 0.0214439 0.443823
v 0.0188434 0.0130608 0.449623
v -0.0164452 -0.0235609 0.42569
v 0.0259871 0.0108404 0.450916
v 0.0190127 0.00302831 0.452025
v 0.024407 -0.00321316 0.451916
v 0.0259984 -1.666e-05 0.452854
v 0.0226326 -0.00786441 0.450049
v 0.0260263 -0.0109104 0.450896
v 0.0188272 -0.0121652 0.450009
v 0.019034 -0.0177816 0.446565
v 0.0260019 -0.0155832 0.447816
v 0.0260198 -0.0259245 0.438935
v 0.018865 -0.0243344 0.441098
v 0.0188003 -0.0291156 0.43429
v 0.0260205 -0.0307164 0.429194
v -0.00946707 0.00765434 0.455823
v 0.02428 -0.0310304 0.416578
v 0.0206317 -0.0282431 0.407758
v 0.0188498 -0.0254579 0.401541
v 0.0260425 -0.02958 0.408637
v -0.0177796 0.0111393 0.410839
v 0.0260194 -0.0227164 0.398333
v -0.0164501 -0.0308035 0.426792
v -0.0164508 -0.0306096 0.428304
v 0.0124462 0.000141031 0.458281
v -0.017695 0.0441132 0.431766
v -0.0169914 -0.0100967 0.408033
v -0.0164156 0.0190997 0.426108
v -0.016237 0.0162752 0.409836
v -0.0164506 0.0347978 0.427696
v -0.0229326 -0.013761 0.462313
v -0.0166836 -0.0145194 0.412006
v -0.017299 0.0143523 0.460133
v 0.012943 -0.00215589 0.388225
v -0.016436 -0.0165144 0.426949
v 0.0130331 -0.0191183 0.393805
v 0.0137464 0.0293331 0.406758
v 0.0127088 0.0318294 0.430354
v 0.0175323 -0.0316911 0.415324
v -0.017482 -0.0415477 0.407024
v 0.0135373 0.0195144 0.446378
v 0.0163382 -0.0200261 0.446255
v 0.0130679 0.00178667 0.453422
v -0.017007 0.0142966 0.415535
v -0.01645 -0.0269029 0.426647
v -0.0174766 -0.0138937 0.461327
v 0.0127479 0.014824 0.391131
v -0.0172724 -0.0152314 0.417365
v -0.0193032 0.038252 0.405766
v 0.012693 0.0309288 0.408283
v 0.0125038 -0.0338594 0.424932
v 0.012377 -0.0212709 0.447706
v 0.0124815 0.0211828 0.447576
v 0.0124056 -0.000198833 0.381995
v -0.0164705 -0.0173786 0.418297
v 0.0124189 7.93046e-05 0.460286
v 0.0123957 -0.0335543 0.440278
v 0.0124722 -0.0144163 0.387862
v 0.0124891 -0.0198038 0.387085
v 0.0124138 0.033378 0.401188
v -0.0164499 0.0283326 0.430959
v 0.0120577 -0.0328233 0.40173
v 0.0125514 -0.0318966 0.41082
v 0.0124808 -0.0388599 0.420846
v 0.0124861 0.0357485 0.416825
v 0.0124688 0.0388515 0.420563
v 0.0124719 0.0325945 0.439391
v 0.0123548 0.034297 0.440439
v 0.0126578 -0.0257007 0.441432
v 0.012486 0.0204725 0.454018
v 0.0124823 0.0167042 0.45412
v 0.0124591 -0.0192111 0.454657
v -0.017657 -0.0147688 0.380623
v -0.0191979 -0.0130723 0.427394
v -0.0164517 -0.0236144 0.430492
v -0.0164504 -0.032068 0.43589
v -0.0166837 0.0143848 0.428507
v -0.016453 0.0311561 0.438342
v -0.0180011 0.0116763 0.376727
v -0.0173317 -0.0131451 0.429725
v -0.0164474 0.0209469 0.430084
v -0.0178006 -0.0313555 0.38954
v -0.0163094 0.0143975 0.437236
v -0.0202846 -0.0387892 0.40123
v -0.0206178 0.00321394 0.435447
v -0.01645 0.0252605 0.431702
v -0.0174324 -0.0174568 0.383407
v -0.0167617 0.00838817 0.435172
v -0.0164498 0.0179755 0.436933
v -0.0167087 0.0425018 0.434629
v -0.00251853 -0.00295802 0.457281
v -0.0173972 0.0170487 0.382732
v -0.0164087 0.0014337 0.43876
v -0.017556 0.0315632 0.390247
v -0.0174137 0.0388582 0.402693
v -0.0179793 -0.0038031 0.374895
v -0.00276181 -0.0301541 0.399766
v -0.0164493 -0.0217866 0.437643
v -0.0167517 -0.0359581 0.394492
v -0.01645 0.0255943 0.4382
v -0.0164502 0.0105365 0.445794
v -0.00578103 0.0222505 0.391486
v -0.00946456 0.00779465 0.451594
v -0.0164474 0.0185373 0.434232
v -0.00561844 -0.0324532 0.404106
v -0.0194751 0.0320044 0.406354
v -0.00499568 0.0351022 0.41081
v -0.00811337 -0.00838113 0.456126
v -0.00855033 -0.0287728 0.39827
v -0.00548706 -0.0362769 0.415545
v -0.00758673 0.0347595 0.431476
v -0.0170426 0.0226418 0.459792
v -0.0164423 0.0127653 0.440729
v -0.016278 -0.0156834 0.436553
v -0.01645 -0.0279939 0.411171
v -0.01627 -0.0109452 0.437078
v -0.00938143 -0.0308699 0.402142
v -0.00945423 -0.00655519 0.404652
v -0.00942175 0.000692703 0.38505
v -0.00944606 -0.00540937 0.391258
v -0.0164503 0.0287795 0.441625
v -0.00942166 0.0312185 0.403474
v -0.00945874 0.00760914 0.410752
v -0.0164503 0.0304009 0.402569
v -0.0175219 0.0342303 0.409959
v -0.01645 -0.0197311 0.439893
v -0.0164429 0.0216979 0.434792
v -0.0189031 -0.0104891 0.386817
v -0.0209576 -0.0143716 0.388606
v -0.0181044 -0.0360868 0.43652
v -0.01645 0.0295208 0.440969
v -0.0166226 0.0214285 0.381579
v -0.0164491 0.000399258 0.385403
v -0.0164578 -0.0172592 0.389213
v -0.0166137 -0.00506006 0.436919
v -0.00924453 0.0153228 0.387934
v 0.00175862 0.0165429 0.388171
v -0.0164504 -0.0271725 0.443786
v -0.00944959 0.0359724 0.418943
v -0.0164495 -0.0115437 0.440566
v -0.0164494 0.0153271 0.437819
v -0.0093557 0.034123 0.408826
v -0.0164513 -0.0127613 0.387837
v -0.01645 -0.00561622 0.442098
v -0.0209087 0.0345278 0.410047
v -0.0164354 -0.00215005 0.376351
v -0.01645 -0.00461617 0.390772
v -0.01645 -0.0218535 0.442065
v -0.0164503 0.0104089 0.386645
v -0.0164485 -0.00387251 0.444126
v -0.01645 -0.004601 0.384947
v -0.01645 0.00746853 0.388164
v -0.016771 -0.0263265 0.384541
v -0.0204314 0.0282836 0.44264
v -0.0174748 0.0287354 0.4413
v -0.0179921 0.0305411 0.44551
v -0.00933482 0.0027805 0.456864
v -0.0174582 0.0273569 0.446187
v -0.00907628 -0.00895548 0.385699
v -0.01645 0.00235866 0.389784
v -0.01645 -0.000852724 0.38966
v -0.01645 0.00391526 0.390843
v -0.020947 -0.00642477 0.459346
v -0.0211503 -0.005555 0.456191
v -0.0164488 -0.00962864 0.441092
v -0.0164497 -0.00999584 0.396449
v -0.0164461 0.0156242 0.389546
v -0.01645 -0.0104198 0.391498
v -0.016951 0.0329498 0.390118
v -0.00945164 0.00627641 0.385415
v -0.01645 -0.0134041 0.39269
v -0.01645 6.084e-05 0.394448
v -0.01645 -0.02008 0.444325
v -0.01645 -0.00262343 0.394557
v -0.01645 0.00693452 0.391897
v -0.01645 -0.0120567 0.446749
v -0.00944931 0.0225608 0.40896
v -0.00944988 0.0295541 0.407776
v -0.0164505 0.0192157 0.44572
v -0.0164502 0.00734648 0.395572
v -0.0164482 -0.00742422 0.398016
v -0.0164464 0.0114301 0.440597
v -0.00944998 -0.0281343 0.405225
v -0.016449 -0.0083107 0.398639
v -0.0164503 -0.0284678 0.398447
v -0.00945 0.0185158 0.408518
v -0.0164503 0.0238001 0.447151
v -0.0162335 -0.00976693 0.40047
v -0.00944933 -0.0170942 0.398109
v -0.0164516 0.0248505 0.395859
v -0.00945605 -0.0012712 0.403301
v -0.0164497 3.52947e-05 0.39648
v -0.0164493 0.00143785 0.397005
v -0.01645 0.00181032 0.398646
v -0.0164388 -0.00250093 0.396753
v -0.01645 0.00333614 0.398788
v -0.00945 0.0239337 0.405011
v -0.016451 0.00408376 0.400787
v -0.01645 -0.0167153 0.395227
v -0.00944971 -0.0271411 0.4039
v -0.00944985 0.0167791 0.403276
v -0.0164498 -0.00500118 0.397002
v -0.00945012 -0.0087715 0.400319
v -0.01645 0.0162635 0.447097
v -0.00945012 -0.00659026 0.399872
v -0.0094548 -0.00486064 0.403947
v -0.01645 0.0150889 0.398065
v -0.0164522 -0.0195929 0.447703
v -0.0165898 -0.0033829 0.404323
v -0.01645 0.0262721 0.445066
v -0.00944402 0.024762 0.401715
v -0.0164481 0.0173347 0.400373
v -0.0164481 0.0129697 0.399974
v -0.00945001 0.00454318 0.401725
v -0.00945639 0.00244365 0.404089
v -0.0164504 0.0289469 0.39965
v -0.0094487 0.0147364 0.398526
v -0.0164392 0.000787339 0.446369
v -0.00936933 0.0295277 0.399581
v -0.00941014 0.030318 0.40152
v -0.00945 0.0190023 0.399847
v -0.0164395 -0.0120248 0.399843
v -0.00931938 0.0259065 0.39587
v -0.00944876 0.0274679 0.398315
v -0.01645 0.012654 0.402424
v -0.00945 -0.0141207 0.39542
v -0.01645 0.0188392 0.402104
v -0.01645 -0.0159512 0.402858
v -0.00945 0.0066429 0.395187
v -0.00944977 -0.0115067 0.395214
v -0.00945 -0.00852921 0.392889
v -0.00945 -0.0157343 0.396865
v -0.00945 -0.0053987 0.395009
v -0.00944958 0.000638857 0.397567
v -0.0164412 -0.0134668 0.40097
v -0.01645 -0.00462863 0.447174
v -0.00945129 -0.0121491 0.390176
v -0.00949436 0.0122367 0.391596
v -0.0163317 -0.0010852 0.439894
v -0.01645 0.0213963 0.443138
v -0.00946321 -0.0139183 0.387721
v -0.0178158 -0.0391835 0.440416
v -0.01645 -0.00208827 0.448644
v -0.0164479 0.0169023 0.404024
v -0.0168502 0.04052 0.401777
v -0.016667 0.0328993 0.451298
v -0.01695 -0.020203 0.46063
v -0.0182267 0.0132031 0.46254
v -0.01645 -0.0286361 0.403543
v -0.0164441 -0.0138083 0.404585
v -0.00945501 -0.00237398 0.437983
v -0.0164476 -0.0164133 0.452159
v -0.01645 -0.00830132 0.446972
v -0.00949956 -0.0149257 0.445434
v -0.00947169 -0.0182839 0.447258
v -0.01645 0.0173263 0.449044
v -0.00940387 -0.00350956 0.384655
v -0.0164528 -0.0309208 0.40521
v -0.00941269 -0.00145174 0.384854
v -0.00944995 0.00426718 0.390725
v -0.00945002 0.00936995 0.390521
v -0.00944998 -9.57015e-05 0.388514
v -0.0094499 0.00289311 0.38923
v -0.00944997 -0.00900936 0.389247
v -0.00944933 -0.00162686 0.396283
v -0.00944923 0.00348529 0.396478
v -0.0094494 -0.00417243 0.396584
v -0.0164502 0.032681 0.406148
v -0.00945034 -0.0127844 0.4027
v -0.01645 0.021118 0.4041
v -0.00945538 -0.00307551 0.40365
v -0.00945084 0.0106656 0.404583
v -0.0164489 0.0185707 0.405914
v -0.00944952 0.0233543 0.402923
v -0.0164503 0.00403546 0.45639
v -0.00944952 0.0198449 0.406109
v -0.00945 0.0276388 0.410079
v -0.00945289 0.014432 0.4109
v -0.00944923 -0.0252672 0.414064
v -0.00945 0.0291492 0.413881
v -0.00944929 0.0276409 0.411585
v -0.00945543 -0.030905 0.43813
v -0.00925986 -0.0348328 0.411156
v -0.00945679 -0.0196736 0.415027
v -0.00945 -0.0291696 0.416177
v -0.00944975 0.0289903 0.415274
v 0.0124779 0.0192557 0.387274
v -0.00942726 -0.0354705 0.415096
v -0.00945208 0.033501 0.421925
v -0.0164503 -0.032926 0.406381
v -0.00945112 0.0199661 0.416608
v -0.00945 0.0237447 0.419823
v -0.00945071 0.0178779 0.419767
v -0.00940867 -0.0356706 0.420092
v -0.00945113 -0.0218658 0.421782
v -0.00918017 0.0359891 0.421899
v -0.00945498 -0.0248832 0.427084
v -0.0095775 -0.00938917 0.421023
v -0.00944485 -0.009116 0.429715
v -0.00944927 -0.0176296 0.437711
v -0.00946648 -0.0326416 0.435613
v -0.0094552 -0.0041253 0.437527
v -0.00944995 -0.0274436 0.437538
v -0.0094506 0.0283175 0.441708
v -0.00945472 -0.00053667 0.438017
v -0.0164501 -0.0205494 0.450051
v -0.00945025 0.00311362 0.439065
v -0.00944999 0.02607 0.439462
v -0.00944904 -0.00945189 0.444597
v -0.00945029 0.0289269 0.442318
v -0.00944891 0.0117185 0.443158
v -0.00945001 0.0215368 0.443877
v -0.00927442 0.0191115 0.451126
v -0.00944762 -0.0275509 0.444064
v -0.00944981 0.0167148 0.44712
v -0.00947013 0.000300802 0.449111
v -0.00940414 -0.018462 0.451352
v -0.00924694 0.0111674 0.455083
v -0.01645 -0.0158833 0.449877
v -0.01645 0.0130823 0.451412
v -0.01645 -0.00575629 0.450156
v -0.0164492 -0.0080662 0.455969
v -0.00595769 0.0320242 0.403863
v -0.00364484 0.00891299 0.385407
v -0.01645 -0.0315775 0.409871
v -0.01645 -0.0281916 0.413609
v -0.0164319 -0.0240631 0.414853
v -0.01645 -0.0260679 0.41676
v -0.00607519 0.0196495 0.390135
v -0.00583035 -0.00171816 0.384357
v -0.0164475 -0.0226476 0.417908
v -0.00924338 -0.0325803 0.404645
v -0.00605116 0.00157238 0.384502
v -0.00430003 -0.0306263 0.40137
v -0.0059704 -0.036016 0.419587
v -0.00546944 -0.0226435 0.449516
v -0.00587461 -0.0167067 0.452955
v -0.00411323 -0.00218975 0.384164
v 0.00111029 -0.0329794 0.404516
v -0.0164469 0.0237466 0.405473
v -0.00291203 -0.0364083 0.418818
v -0.00393337 0.00235657 0.384091
v -0.00398435 -0.00234282 0.457301
v -0.01645 0.0212779 0.449786
v 0.0260168 0.032082 0.420718
v -0.0052331 -0.0305902 0.440571
v -0.0039343 -0.0203445 0.451227
v -0.01645 -0.0304996 0.415123
v 0.0260199 0.0213115 0.397456
v -0.00197275 0.00175781 0.384388
v -0.00227048 -0.0192231 0.451323
v -0.00233276 0.0256112 0.446494
v -0.00306529 0.032321 0.404028
v -0.00227349 0.0197121 0.390116
v -0.000952283 -0.0365576 0.416523
v -0.0164501 -0.0253149 0.409633
v 0.00212105 -0.0206312 0.390309
v -0.0164483 -0.0210393 0.413917
v -0.00354921 0.030334 0.399445
v 0.00187845 -0.0295694 0.44233
v -0.00194979 -0.0203272 0.451258
v -0.00158232 -0.0153335 0.454307
v -0.0164509 -0.0345274 0.413152
v -0.01645 0.0122736 0.449706
v 0.00623827 -0.0337348 0.435213
v 0.00277658 -0.0324055 0.437226
v -0.01645 -0.0108235 0.452241
v -0.000333599 0.0345065 0.409163
v 0.00129665 0.00960755 0.385644
v -0.01645 0.0104198 0.449902
v 0.000572122 0.0323239 0.403846
v 0.00113251 0.00207035 0.384215
v -0.01645 0.0288659 0.408338
v 0.00244467 0.0206897 0.390526
v 0.00240017 0.0298854 0.399677
v 0.00419507 -0.014295 0.387017
v 0.00236868 -0.0364177 0.418589
v 0.0022889 -0.0180206 0.451729
v -0.00794514 0.00233769 0.384105
v -0.00795433 -0.0203141 0.451224
v -0.0164513 -0.0068723 0.454267
v -0.0080353 0.0204638 0.390211
v -0.00795134 -0.0365915 0.418369
v -0.0164488 0.0210322 0.409367
v -0.00911208 -0.0303848 0.439783
v -0.0126903 0.0043254 0.437548
v -0.0127979 0.00796925 0.439499
v 0.00645598 0.0332476 0.405965
v 0.00555359 0.03617 0.417573
v 0.00558739 0.0290035 0.442468
v 0.00646891 0.0211452 0.449878
v 0.00647715 0.00361713 0.456565
v 0.0064392 0.0142535 0.454134
v 0.00640449 -0.0291692 0.441871
v 0.00543199 -0.0362185 0.423524
v 0.0064503 -0.0359472 0.417001
v 0.00648618 -0.0329915 0.40589
v 0.00647649 -0.029146 0.399552
v 0.00640382 -0.0212032 0.391537
v 0.00647258 -0.00360097 0.384832
v 0.00649159 -0.0147277 0.387814
v 0.00652723 0.00415179 0.385267
v 0.00647848 0.014972 0.387636
v 0.00654079 0.0213509 0.39153
v 0.00641753 0.0291672 0.399493
v -0.0149632 0.00666331 0.450095
v -0.0140841 0.00326306 0.443171
v -0.0160199 0.0013827 0.447472
v -0.0135594 0.000789098 0.418971
v -0.013433 0.00065746 0.422705
v -0.013404 -0.00165884 0.42187
v -0.01645 0.0292572 0.410297
v -0.01645 0.0257252 0.415358
v -0.01645 0.0297929 0.417072
v -0.0164476 0.023123 0.411263
v -0.01645 0.0305419 0.412796
v -0.0164437 0.0256696 0.415969
v -0.01645 -0.032657 0.41461
v -0.0164511 -0.0128476 0.45374
v -0.00597263 -0.0189665 0.451336
v -0.01645 0.0249864 0.412645
v 0.00378583 -0.0295141 0.399154
v 0.00644993 0.035976 0.424352
v 0.00648852 0.0329449 0.435367
v 0.00576516 -0.022448 0.449093
v 0.00641307 -0.0151405 0.45359
v 0.00641703 -0.00377618 0.456618
v 0.00653258 0.0199483 0.386653
v 0.00653551 -1.37246e-05 0.381286
v 0.00657034 -0.0195198 0.386403
v 0.00655759 -0.0341498 0.401023
v 0.0065444 -0.0394621 0.420469
v 0.0065328 -0.0199373 0.454755
v 0.00651967 3.71682e-05 0.460035
v 0.00655508 0.0195175 0.454998
v 0.0065488 0.0341566 0.440357
v 0.00654263 0.0394616 0.420934
v 0.00653617 0.0341067 0.401001
v -0.0113631 -0.00873426 0.430197
v -0.00957249 -0.00782833 0.435044
v -0.0164505 0.0279742 0.413614
v -0.0164445 0.0234746 0.417144
v -0.0155454 0.00632448 0.447201
v -0.0149125 0.00793886 0.443464
v -0.012998 0.00679536 0.444155
v -0.01645 0.0308032 0.414608
v 0.00653739 -0.0341041 0.440403
v -0.00973282 0.00151697 0.41757
v -0.00966126 -0.00806456 0.408782
v -0.0111634 -0.00261611 0.421114
v -0.0110333 -0.011241 0.416948
v 0.00249842 -0.0306465 0.438451
v 0.00250079 -0.0354209 0.420653
v 0.00249548 -0.0306963 0.403037
v 0.00248679 -0.0177048 0.390039
v 0.00243475 -0.000222326 0.385051
v 0.00249622 0.0176612 0.390008
v 0.00249185 0.0306328 0.402849
v 0.00254413 0.0358957 0.42144
v -0.00794523 0.0328611 0.404427
v -0.036721 0.0244365 0.426972
v -0.0402374 0.0216049 0.426915
v -0.0409316 0.0305141 0.425098
v -0.0380882 0.0294481 0.426811
v -0.0430984 0.0293542 0.426817
v -0.0438195 0.0231774 0.421103
v -0.0379061 0.027062 0.427211
v -0.0402275 0.0282115 0.420212
v -0.0438432 0.0281271 0.427059
v -0.038207 0.023305 0.421073
v -0.0461434 0.0248741 0.426618
v -0.035351 0.0269203 0.426472
v -0.0373027 0.0215562 0.427379
v -0.0427438 0.0223297 0.428053
v -0.0405856 0.0224474 0.428062
v -0.0439113 0.0249769 0.436046
v -0.037456 0.0253684 0.436053
v -0.0412246 0.0235153 0.436297
v -0.0389711 0.0313095 0.434919
v -0.038889 -0.0313564 0.434936
v -0.0450593 -0.0269955 0.435596
v -0.0379867 -0.0249859 0.436065
v -0.0407151 -0.023508 0.436322
v -0.0374788 -0.0259923 0.4274
v -0.0416025 -0.0293634 0.42691
v -0.0367846 -0.027182 0.42722
v -0.0455795 -0.0266594 0.42657
v -0.0419396 -0.0218484 0.427671
v -0.0408161 -0.0230277 0.427933
v -0.0368577 -0.0241794 0.420161
v -0.0390328 -0.0206389 0.427513
v -0.0389953 -0.0311938 0.425502
v -0.0401069 -0.030317 0.425603
v -0.0365211 -0.0240686 0.426907
v -0.0438195 -0.0266136 0.420497
v -0.0382071 -0.0264835 0.420512
v -0.0402371 -0.0215492 0.42139
v 0.0293598 -0.0178213 0.408636
v 0.0294239 -0.0027442 0.399759
v 0.0293656 0.0106745 0.402122
v 0.0292698 0.0205622 0.414859
v 0.0291786 0.0200372 0.427769
v 0.0292446 0.0121624 0.438312
v 0.0294984 -0.00776423 0.44012
v 0.0291728 5.30078e-05 0.44192
v 0.029002 -0.00840309 0.401217
v 0.029 0.0143755 0.405392
v 0.029 -0.0199722 0.414211
v 0.0290859 -0.0207932 0.426141
v 0.029023 -0.0124679 0.438352
v 0.0289591 0.0201433 0.394825
v 0.0290179 -0.00546675 0.388265
v 0.0289855 -0.0234245 0.398735
v 0.0289855 0.0307337 0.411394
v 0.0289541 -0.0324838 0.41619
v 0.0290186 0.0308244 0.432174
v 0.0290162 -0.0253678 0.441634
v 0.0289922 0.0184475 0.446993
v 0.0290296 -0.0010456 0.453575
v -0.0436546 0.00461102 0.375186
v -0.0420837 -0.00546578 0.37527
v -0.0340988 0.000844925 0.375183
v -0.0420785 0.00384876 0.385219
v -0.0370155 0.00316878 0.385191
v -0.0357012 -0.00069712 0.385205
v 0.0297635 0.00840051 0.372212
v -0.0164084 -0.025115 0.372201
v 0.0263842 -0.0142784 0.3722
v 0.0160712 0.0261247 0.372176
v -0.00341907 0.0301625 0.3722
v 0.0304934 -0.00047651 0.0150185
v -0.0297771 0.00589859 0.0149989
v 0.0172856 -0.0250995 0.372203
v 0.0216109 0.0220816 0.0149892
v 0.0263842 -0.0142784 0.015
v -0.0164085 -0.025115 0.015
v -0.0264306 -0.0151722 0.372203
v -0.00204357 -0.0304285 0.372182
v -0.00341907 -0.0301625 0.015
v 0.0160712 -0.0261247 0.0150241
v -0.00204357 0.0304285 0.0150185
v -0.0199303 0.0232283 0.0149971
v -0.0301558 0.0045497 0.372182
v -0.0273557 -0.013876 0.0150242
v -0.021251 0.0222618 0.372167
f 80 11 1
f 20 72 61
f 193 104 240
f 27 48 17
f 45 40 23
f 198 42 89
f 34 104 56
f 58 112 130
f 56 57 130
f 60 18 5
f 19 23 174
f 222 126 21
f 125 234 7
f 183 31 123
f 64 62 127
f 182 129 158
f 3 2 117
f 11 239 149
f 48 15 222
f 17 28 27
f 156 240 157
f 162 161 120
f 163 30 67
f 167 97 168
f 35 104 34
f 172 112 90
f 90 112 58
f 90 58 263
f 263 58 130
f 91 130 28
f 157 91 28
f 105 28 173
f 141 19 174
f 23 20 174
f 174 20 175
f 204 175 106
f 20 61 175
f 79 141 174
f 79 174 26
f 147 108 177
f 177 109 81
f 81 109 24
f 111 110 108
f 111 108 147
f 193 172 69
f 172 203 112
f 193 69 104
f 7 82 14
f 14 82 63
f 64 222 21
f 62 64 21
f 80 1 65
f 38 113 39
f 39 113 114
f 114 178 39
f 39 178 66
f 38 39 66
f 163 22 30
f 178 67 115
f 178 115 31
f 172 116 69
f 22 120 30
f 30 120 45
f 161 121 3
f 161 3 13
f 120 161 13
f 120 13 40
f 45 120 40
f 19 45 23
f 31 179 123
f 108 182 177
f 177 105 36
f 89 42 183
f 131 88 203
f 229 101 8
f 229 8 228
f 133 102 135
f 106 209 136
f 18 37 137
f 31 45 141
f 192 31 79
f 172 88 203
f 194 111 147
f 25 107 10
f 172 514 88
f 63 407 143
f 21 407 144
f 62 196 10
f 84 244 169
f 46 200 201
f 65 86 85
f 86 65 85
f 151 152 126
f 153 189 61
f 203 155 130
f 206 29 37
f 178 163 67
f 67 30 44
f 35 34 92
f 92 34 56
f 56 91 92
f 91 35 92
f 164 93 32
f 32 93 215
f 165 32 215
f 54 185 4
f 199 133 134
f 217 233 139
f 217 139 47
f 38 245 113
f 57 263 130
f 35 91 157
f 91 56 130
f 157 28 105
f 175 61 209
f 73 59 50
f 179 191 160
f 160 191 204
f 204 191 174
f 204 174 175
f 232 219 73
f 73 219 59
f 107 9 10
f 9 62 10
f 111 85 110
f 59 219 176
f 59 176 18
f 11 193 240
f 123 179 160
f 124 181 20
f 1 220 65
f 125 7 221
f 221 7 14
f 14 63 126
f 15 14 222
f 109 177 223
f 128 17 64
f 107 109 9
f 158 71 41
f 71 156 157
f 121 2 3
f 130 27 28
f 203 88 131
f 184 53 200
f 227 75 146
f 162 170 74
f 449 230 136
f 135 102 77
f 54 145 186
f 54 186 137
f 169 78 99
f 99 78 100
f 233 16 139
f 162 188 161
f 226 184 2
f 2 197 180
f 72 197 43
f 209 189 77
f 191 31 192
f 192 140 79
f 193 11 80
f 234 142 82
f 7 234 82
f 194 147 177
f 194 177 81
f 193 514 172
f 88 514 122
f 82 142 407
f 82 407 63
f 143 407 21
f 212 162 120
f 60 138 244
f 100 18 213
f 235 18 145
f 83 72 236
f 210 49 226
f 199 208 76
f 208 43 76
f 127 62 238
f 9 238 62
f 147 108 148
f 11 239 240
f 151 63 143
f 152 151 126
f 61 189 153
f 106 175 154
f 175 209 154
f 122 15 87
f 88 122 87
f 203 88 87
f 11 240 156
f 182 158 177
f 29 206 242
f 170 162 47
f 212 47 162
f 30 45 44
f 66 178 31
f 192 79 174
f 112 203 130
f 122 125 15
f 240 35 157
f 1 11 220
f 263 172 90
f 13 118 12
f 23 12 20
f 249 217 70
f 243 70 250
f 243 250 22
f 122 234 125
f 183 38 66
f 183 66 31
f 176 219 123
f 219 183 123
f 181 180 20
f 65 220 224
f 85 65 110
f 110 65 224
f 110 224 182
f 108 110 182
f 14 126 222
f 17 222 64
f 177 36 223
f 128 64 9
f 223 128 109
f 9 64 127
f 109 128 9
f 224 129 182
f 129 71 158
f 41 71 105
f 71 157 105
f 240 104 35
f 225 15 48
f 130 225 27
f 225 48 27
f 121 226 2
f 117 2 180
f 20 180 72
f 61 72 189
f 187 219 232
f 232 73 50
f 42 218 38
f 218 233 243
f 249 70 243
f 233 249 243
f 60 59 18
f 221 14 15
f 125 221 15
f 219 187 251
f 219 251 183
f 98 53 184
f 74 75 227
f 132 98 226
f 226 98 184
f 162 74 188
f 188 74 227
f 228 8 76
f 197 229 228
f 197 228 43
f 43 228 76
f 134 133 135
f 102 449 136
f 102 136 77
f 137 190 54
f 54 190 185
f 169 138 78
f 138 231 78
f 231 5 78
f 78 5 100
f 187 33 216
f 187 232 33
f 33 232 50
f 33 50 502
f 233 218 16
f 218 42 16
f 16 42 198
f 249 233 217
f 121 188 227
f 72 180 197
f 209 61 189
f 189 135 77
f 136 209 77
f 186 18 137
f 37 204 137
f 204 106 190
f 137 204 190
f 138 60 5
f 138 5 231
f 100 5 18
f 45 19 141
f 115 67 44
f 115 44 45
f 31 115 45
f 31 141 79
f 192 79 140
f 80 65 85
f 111 80 85
f 21 126 143
f 25 81 24
f 25 24 107
f 122 571 234
f 587 80 663
f 663 80 111
f 195 111 508
f 508 111 194
f 81 25 530
f 25 10 196
f 217 212 120
f 244 50 211
f 211 50 60
f 211 60 244
f 213 18 235
f 145 18 186
f 6 190 106
f 236 72 43
f 46 2 184
f 46 197 2
f 121 210 226
f 132 226 49
f 510 170 47
f 252 198 89
f 138 169 244
f 213 253 100
f 253 213 145
f 6 237 190
f 237 6 464
f 464 6 449
f 208 199 134
f 202 46 201
f 202 201 229
f 210 146 467
f 49 210 467
f 127 238 9
f 24 109 107
f 6 136 230
f 108 147 148
f 239 11 240
f 11 149 239
f 7 234 150
f 234 7 150
f 126 63 151
f 151 143 126
f 502 50 244
f 203 87 155
f 252 216 198
f 48 222 17
f 29 204 205
f 37 29 205
f 205 204 37
f 220 11 224
f 224 11 156
f 158 41 105
f 177 158 105
f 29 242 159
f 159 207 160
f 18 206 37
f 18 176 206
f 113 246 114
f 114 163 178
f 50 59 60
f 227 210 121
f 72 83 189
f 189 83 135
f 6 106 136
f 46 184 200
f 161 188 121
f 187 252 89
f 106 154 209
f 187 216 252
f 187 89 251
f 89 183 251
f 217 47 212
f 449 6 230
f 46 202 197
f 202 229 197
f 83 236 208
f 236 43 208
f 83 208 135
f 208 134 135
f 174 79 26
f 213 235 145
f 179 31 191
f 191 192 174
f 214 55 171
f 42 38 183
f 229 201 101
f 210 227 146
f 132 49 98
f 49 467 98
f 70 217 250
f 223 241 128
f 241 17 128
f 36 241 223
f 254 17 241
f 36 173 241
f 173 28 241
f 28 254 241
f 105 173 36
f 28 17 254
f 171 55 214
f 55 103 214
f 23 13 12
f 23 40 13
f 256 117 118
f 256 3 117
f 13 256 118
f 13 3 256
f 255 160 207
f 255 123 160
f 206 257 255
f 257 123 255
f 176 123 257
f 206 176 257
f 258 114 39
f 39 114 258
f 22 259 120
f 259 217 120
f 250 259 22
f 259 250 217
f 246 260 114
f 247 243 22
f 260 247 22
f 246 247 260
f 114 261 163
f 261 260 163
f 260 22 163
f 260 261 114
f 262 263 57
f 56 262 57
f 56 264 262
f 38 218 245
f 218 243 245
f 243 214 245
f 214 113 245
f 246 113 214
f 243 247 214
f 247 246 214
f 116 172 263
f 262 116 263
f 104 264 56
f 264 68 262
f 68 116 262
f 104 68 264
f 12 124 20
f 12 248 124
f 248 119 124
f 119 181 124
f 119 117 181
f 117 180 181
f 159 160 204
f 29 159 204
f 275 273 276
f 273 277 276
f 308 271 272
f 278 279 464
f 279 237 464
f 199 381 292
f 196 308 272
f 321 322 311
f 328 320 195
f 325 332 326
f 716 332 325
f 716 368 338
f 357 293 352
f 627 366 406
f 237 386 397
f 366 380 406
f 401 343 400
f 401 345 343
f 346 348 345
f 403 349 348
f 349 404 348
f 404 349 405
f 349 355 405
f 405 355 767
f 407 282 283
f 408 410 409
f 409 410 361
f 361 410 411
f 411 410 363
f 411 363 365
f 627 406 445
f 367 414 415
f 414 371 415
f 415 371 417
f 417 371 418
f 371 372 418
f 374 418 372
f 419 376 421
f 376 422 378
f 378 422 424
f 422 423 424
f 379 425 423
f 428 429 427
f 445 406 284
f 406 380 269
f 389 433 432
f 432 433 385
f 389 391 433
f 293 453 420
f 436 438 457
f 362 293 420
f 437 395 438
f 437 438 436
f 440 398 343
f 398 400 343
f 269 380 439
f 437 440 395
f 283 441 442
f 393 283 463
f 401 400 398
f 199 292 451
f 367 412 414
f 376 419 422
f 403 452 349
f 452 403 346
f 349 452 465
f 454 346 401
f 349 408 355
f 355 408 359
f 454 437 481
f 481 437 436
f 410 455 363
f 469 436 457
f 363 455 456
f 363 456 364
f 364 456 412
f 457 389 432
f 457 432 487
f 414 456 371
f 487 432 431
f 371 456 459
f 371 459 372
f 487 431 460
f 372 459 419
f 459 461 419
f 460 427 461
f 461 427 379
f 422 461 423
f 439 447 462
f 450 445 466
f 445 284 466
f 449 102 396
f 408 465 455
f 455 468 456
f 457 487 469
f 459 456 471
f 487 460 470
f 470 460 461
f 473 466 293
f 476 472 452
f 472 705 465
f 476 452 454
f 477 476 454
f 465 705 478
f 465 478 468
f 169 99 416
f 446 286 479
f 462 286 327
f 478 483 468
f 468 483 456
f 373 328 508
f 456 484 485
f 328 195 508
f 456 485 471
f 475 469 487
f 471 488 489
f 471 489 443
f 490 470 443
f 284 492 466
f 292 464 396
f 451 292 396
f 94 32 406
f 293 466 492
f 293 492 453
f 442 453 493
f 453 498 493
f 286 446 495
f 327 286 495
f 453 492 498
f 407 283 494
f 164 94 96
f 497 491 546
f 164 96 93
f 93 167 168
f 93 168 215
f 215 168 97
f 52 165 51
f 165 215 51
f 215 97 51
f 492 95 498
f 95 52 498
f 510 497 546
f 495 501 506
f 327 495 506
f 503 327 506
f 532 498 534
f 94 406 269
f 553 498 503
f 534 498 553
f 503 506 553
f 495 507 501
f 369 373 508
f 448 369 508
f 406 32 284
f 505 500 502
f 553 506 511
f 734 636 799
f 553 511 657
f 514 193 550
f 122 514 571
f 550 193 80
f 94 269 96
f 734 799 294
f 550 80 587
f 234 571 517
f 505 502 84
f 234 517 142
f 506 321 519
f 663 111 195
f 268 267 274
f 546 505 84
f 96 269 439
f 519 321 312
f 660 145 54
f 275 274 273
f 519 312 521
f 508 194 81
f 508 81 664
f 513 512 524
f 664 81 530
f 97 167 503
f 510 546 84
f 62 21 665
f 21 144 665
f 519 521 693
f 512 510 84
f 62 665 196
f 530 25 196
f 407 494 287
f 693 521 575
f 101 381 8
f 506 501 531
f 697 745 716
f 623 599 536
f 537 551 538
f 542 629 540
f 619 380 541
f 16 497 139
f 534 553 558
f 287 494 544
f 494 532 544
f 501 507 597
f 543 467 563
f 146 513 467
f 467 513 524
f 267 303 274
f 467 543 444
f 491 198 546
f 297 300 735
f 198 505 547
f 660 54 397
f 548 386 253
f 283 783 719
f 548 253 145
f 569 564 551
f 552 659 794
f 546 198 547
f 564 550 551
f 407 287 556
f 397 54 4
f 551 550 567
f 554 608 641
f 529 496 265
f 458 416 342
f 564 569 561
f 547 505 546
f 553 657 562
f 96 439 462
f 467 524 563
f 551 567 579
f 564 561 552
f 84 458 342
f 524 279 543
f 524 543 563
f 512 84 342
f 497 16 491
f 556 287 566
f 571 564 552
f 593 567 585
f 567 550 585
f 496 448 508
f 573 572 574
f 561 569 589
f 498 52 51
f 32 166 284
f 303 304 731
f 572 576 574
f 570 567 580
f 552 561 617
f 582 292 278
f 582 278 292
f 585 550 587
f 582 292 581
f 608 585 587
f 292 582 581
f 144 407 556
f 580 567 610
f 386 342 253
f 578 590 613
f 512 342 386
f 610 567 611
f 579 592 620
f 569 602 584
f 571 552 603
f 586 606 640
f 53 444 200
f 200 444 201
f 633 609 541
f 536 867 541
f 416 99 342
f 505 216 33
f 590 627 613
f 75 513 146
f 612 593 614
f 562 657 671
f 74 170 510
f 505 33 500
f 592 627 620
f 139 497 47
f 47 497 510
f 565 627 599
f 625 608 631
f 16 198 491
f 444 543 201
f 618 527 601
f 216 505 198
f 96 462 327
f 543 279 201
f 74 510 75
f 502 244 84
f 506 519 636
f 610 611 627
f 627 611 366
f 511 506 636
f 612 614 366
f 84 169 458
f 568 657 654
f 75 510 512
f 99 100 253
f 99 253 342
f 8 381 199
f 564 514 550
f 657 511 661
f 514 564 571
f 190 237 185
f 185 237 397
f 636 519 861
f 185 397 4
f 95 165 52
f 142 517 282
f 166 165 95
f 32 165 166
f 517 571 676
f 571 603 676
f 164 32 94
f 142 282 407
f 144 556 626
f 201 573 574
f 272 530 196
f 199 451 133
f 511 636 311
f 133 451 666
f 311 636 734
f 646 617 668
f 531 501 782
f 76 8 199
f 511 311 295
f 511 295 661
f 661 295 799
f 799 295 294
f 669 657 568
f 645 662 380
f 669 568 296
f 599 627 606
f 296 568 654
f 296 654 670
f 296 670 288
f 553 322 583
f 583 322 626
f 626 322 672
f 626 672 673
f 584 602 606
f 101 201 574
f 300 626 673
f 858 534 558
f 167 327 503
f 858 558 591
f 858 591 310
f 498 51 503
f 310 591 307
f 591 556 307
f 556 732 307
f 659 607 650
f 657 669 305
f 656 647 633
f 651 538 623
f 641 642 637
f 657 305 671
f 637 639 638
f 656 633 632
f 652 609 633
f 609 683 689
f 671 305 309
f 689 685 624
f 671 309 670
f 624 623 536
f 536 621 867
f 670 309 735
f 635 633 690
f 692 615 560
f 615 692 694
f 690 633 541
f 689 624 541
f 609 689 541
f 624 536 541
f 867 687 388
f 322 553 727
f 688 691 380
f 461 471 443
f 470 461 443
f 670 735 288
f 727 553 594
f 692 541 694
f 366 631 380
f 496 508 664
f 626 300 297
f 604 694 696
f 595 696 390
f 541 867 866
f 456 483 484
f 727 594 297
f 481 469 482
f 494 719 700
f 867 388 377
f 594 626 297
f 704 390 709
f 699 698 557
f 388 702 377
f 477 454 480
f 495 330 507
f 283 712 356
f 452 472 465
f 377 697 716
f 781 701 706
f 390 696 866
f 696 694 866
f 270 781 706
f 694 541 866
f 507 330 317
f 517 676 708
f 709 390 866
f 507 317 597
f 709 711 710
f 597 317 301
f 711 709 866
f 709 710 360
f 716 382 713
f 713 370 368
f 597 301 290
f 643 630 380
f 716 713 368
f 711 866 350
f 597 290 271
f 626 594 724
f 866 340 350
f 569 675 577
f 338 368 354
f 368 353 354
f 715 712 344
f 551 588 537
f 330 501 329
f 350 334 336
f 350 340 331
f 329 501 559
f 459 471 461
f 640 606 445
f 101 574 381
f 358 707 341
f 350 331 333
f 340 716 717
f 347 350 335
f 340 717 322
f 329 559 622
f 337 356 339
f 337 339 338
f 716 338 332
f 588 567 554
f 340 322 330
f 340 330 316
f 329 622 733
f 858 717 325
f 733 622 308
f 717 716 325
f 642 634 637
f 733 308 736
f 330 322 321
f 495 331 545
f 540 686 560
f 480 454 481
f 332 718 326
f 332 719 324
f 465 468 455
f 560 320 394
f 545 331 318
f 324 719 721
f 723 322 669
f 322 720 669
f 557 373 714
f 316 330 730
f 330 321 313
f 322 723 311
f 545 318 605
f 321 311 725
f 858 325 314
f 322 858 323
f 718 319 326
f 707 448 341
f 96 327 93
f 97 503 51
f 720 322 727
f 267 549 539
f 605 318 304
f 669 720 305
f 803 732 314
f 267 539 728
f 723 669 296
f 323 858 310
f 311 723 295
f 725 311 734
f 303 628 605
f 301 317 290
f 728 722 303
f 310 307 732
f 303 605 304
f 315 329 733
f 330 495 522
f 542 634 663
f 144 626 724
f 672 732 300
f 672 300 673
f 731 271 290
f 330 522 730
f 306 727 298
f 461 379 423
f 730 522 658
f 419 461 422
f 727 297 298
f 460 428 427
f 730 731 304
f 634 608 663
f 412 456 414
f 291 313 736
f 457 392 389
f 730 658 731
f 481 436 469
f 296 288 294
f 521 312 575
f 408 455 410
f 731 658 271
f 608 587 663
f 454 398 437
f 454 401 398
f 734 294 526
f 349 465 408
f 299 575 434
f 452 346 454
f 501 330 313
f 501 313 291
f 501 291 738
f 267 728 303
f 738 291 308
f 736 434 575
f 714 358 341
f 308 291 736
f 714 341 529
f 560 394 807
f 394 557 807
f 321 506 729
f 537 588 554
f 729 506 600
f 657 661 739
f 659 577 794
f 552 775 527
f 729 600 299
f 603 552 527
f 374 372 419
f 399 750 701
f 299 600 788
f 706 701 712
f 283 356 783
f 494 283 719
f 740 526 285
f 274 303 273
f 299 788 693
f 741 560 525
f 525 560 807
f 751 554 742
f 299 693 575
f 742 554 555
f 574 576 381
f 708 743 750
f 645 629 542
f 629 645 619
f 645 380 619
f 750 743 387
f 479 334 496
f 496 334 267
f 551 565 538
f 565 599 538
f 538 599 623
f 599 606 536
f 534 325 532
f 532 325 326
f 532 326 544
f 743 744 387
f 700 287 319
f 287 544 326
f 319 287 326
f 676 533 697
f 535 676 697
f 533 745 697
f 745 473 716
f 398 440 437
f 744 746 387
f 387 746 382
f 746 749 382
f 750 523 528
f 457 438 435
f 457 435 392
f 749 293 382
f 392 391 389
f 676 603 535
f 603 527 535
f 432 385 430
f 636 826 799
f 431 430 383
f 429 428 383
f 460 383 428
f 431 383 460
f 676 535 697
f 425 427 426
f 427 429 426
f 745 676 377
f 75 512 513
f 427 425 379
f 676 697 377
f 466 745 377
f 771 741 525
f 748 756 577
f 376 378 421
f 527 515 752
f 375 419 421
f 523 757 528
f 701 781 370
f 419 375 374
f 528 759 753
f 760 751 742
f 755 780 526
f 285 526 761
f 781 357 370
f 370 357 368
f 658 762 271
f 356 813 783
f 357 352 368
f 413 412 367
f 763 364 413
f 365 364 763
f 363 364 365
f 527 775 515
f 667 603 774
f 724 737 670
f 526 780 509
f 526 509 761
f 352 293 368
f 766 708 399
f 767 408 409
f 359 408 767
f 768 760 742
f 708 750 399
f 737 671 670
f 500 33 502
f 766 399 703
f 349 404 351
f 765 754 769
f 509 280 761
f 404 349 351
f 289 766 703
f 403 348 346
f 293 289 382
f 289 703 382
f 528 773 759
f 345 401 346
f 268 274 770
f 770 274 275
f 771 525 786
f 527 603 601
f 447 758 791
f 603 667 601
f 667 774 601
f 601 774 702
f 606 627 445
f 774 776 702
f 702 776 377
f 144 724 670
f 432 430 431
f 776 466 377
f 532 332 516
f 754 778 779
f 516 332 324
f 719 494 721
f 517 708 781
f 789 771 786
f 494 516 721
f 780 280 509
f 386 660 397
f 516 324 721
f 668 445 450
f 501 738 782
f 534 858 314
f 266 835 369
f 364 412 413
f 534 314 566
f 276 277 811
f 811 277 280
f 380 691 439
f 732 556 314
f 556 566 314
f 670 654 785
f 359 767 355
f 332 532 718
f 494 700 319
f 718 532 319
f 532 494 319
f 877 714 529
f 758 447 439
f 201 279 278
f 712 283 393
f 719 783 784
f 808 770 275
f 808 275 276
f 277 281 280
f 712 393 344
f 529 265 268
f 792 772 777
f 787 742 555
f 756 874 794
f 393 463 344
f 515 775 840
f 752 515 840
f 759 773 795
f 769 778 796
f 797 537 554
f 344 463 715
f 708 676 743
f 674 597 271
f 463 453 715
f 300 798 735
f 453 338 715
f 747 800 520
f 362 270 353
f 535 527 752
f 270 706 353
f 801 528 753
f 751 797 554
f 277 736 575
f 277 575 281
f 520 641 637
f 520 637 777
f 675 748 577
f 701 528 801
f 732 803 754
f 368 293 353
f 300 754 798
f 294 755 526
f 293 362 353
f 441 283 356
f 804 321 725
f 321 804 805
f 478 806 807
f 441 356 337
f 670 785 837
f 484 842 485
f 485 808 809
f 485 809 471
f 489 810 443
f 442 441 337
f 844 490 443
f 845 844 443
f 812 487 470
f 813 469 475
f 783 813 475
f 815 481 482
f 814 815 482
f 816 817 480
f 818 472 476
f 819 818 476
f 794 818 819
f 705 822 823
f 575 285 281
f 705 823 478
f 516 494 719
f 332 532 516
f 338 453 337
f 332 516 719
f 498 338 493
f 339 493 338
f 280 285 761
f 312 862 824
f 312 824 285
f 453 442 337
f 312 285 575
f 804 725 825
f 825 725 734
f 825 734 826
f 711 286 302
f 711 302 710
f 710 302 360
f 360 302 402
f 360 448 341
f 479 350 336
f 598 585 656
f 616 598 656
f 625 631 635
f 588 551 680
f 635 631 633
f 388 450 702
f 827 829 828
f 551 579 680
f 861 519 285
f 273 290 277
f 866 827 340
f 340 827 828
f 829 340 828
f 691 688 615
f 615 686 560
f 691 615 694
f 439 691 694
f 695 802 830
f 680 579 685
f 447 802 390
f 695 830 394
f 758 694 596
f 758 596 320
f 320 596 560
f 579 620 685
f 639 634 638
f 630 639 690
f 380 630 541
f 350 495 446
f 350 504 335
f 335 539 722
f 722 539 628
f 462 704 709
f 704 832 373
f 704 373 714
f 833 447 390
f 699 833 390
f 834 699 328
f 328 699 557
f 384 835 709
f 685 620 624
f 835 384 707
f 835 707 369
f 369 707 358
f 569 577 655
f 589 569 655
f 589 655 644
f 653 589 644
f 653 687 867
f 445 653 867
f 620 627 624
f 670 837 144
f 573 201 278
f 659 617 607
f 617 646 607
f 607 646 388
f 567 554 678
f 567 678 652
f 611 567 652
f 578 567 681
f 611 652 633
f 366 611 633
f 588 567 681
f 681 578 683
f 683 613 689
f 567 593 679
f 554 567 679
f 567 588 681
f 679 593 684
f 612 366 633
f 684 612 633
f 569 551 677
f 569 677 675
f 602 569 649
f 602 649 621
f 606 602 536
f 569 586 682
f 577 569 682
f 682 586 648
f 586 640 648
f 648 640 867
f 640 445 867
f 579 567 588
f 579 588 680
f 592 579 685
f 627 592 685
f 463 283 715
f 453 463 715
f 338 453 715
f 590 578 683
f 325 534 566
f 325 566 314
f 566 287 803
f 566 803 314
f 553 322 558
f 558 322 323
f 578 681 683
f 791 758 320
f 558 323 310
f 558 310 591
f 591 310 732
f 556 591 732
f 774 603 618
f 774 601 702
f 776 774 702
f 627 590 683
f 836 781 701
f 836 701 370
f 357 836 370
f 357 370 713
f 293 357 713
f 706 270 353
f 362 420 354
f 353 362 354
f 420 338 354
f 676 750 387
f 744 676 387
f 744 387 382
f 749 744 382
f 473 749 716
f 781 766 399
f 399 766 703
f 766 289 382
f 703 766 382
f 289 293 713
f 382 289 713
f 321 531 313
f 313 782 736
f 627 683 609
f 501 330 559
f 559 330 329
f 559 329 315
f 559 315 622
f 622 315 733
f 622 733 271
f 271 733 736
f 600 321 729
f 788 729 299
f 788 299 434
f 340 495 545
f 340 545 331
f 331 545 318
f 318 605 762
f 318 762 304
f 499 350 333
f 518 333 726
f 628 726 303
f 330 501 317
f 317 597 290
f 675 569 649
f 290 674 271
f 290 271 736
f 522 340 316
f 658 316 730
f 762 730 304
f 720 553 562
f 720 562 305
f 569 584 649
f 305 671 309
f 309 737 724
f 309 724 735
f 657 723 296
f 657 296 654
f 654 296 785
f 837 296 294
f 322 553 583
f 322 583 672
f 672 583 626
f 556 732 672
f 626 556 672
f 553 720 727
f 553 727 594
f 594 727 306
f 622 271 308
f 594 306 298
f 594 298 724
f 724 298 297
f 723 657 295
f 295 657 739
f 295 837 294
f 649 584 621
f 799 734 740
f 740 734 526
f 341 448 529
f 803 764 754
f 621 584 867
f 584 606 867
f 754 765 838
f 820 818 790
f 820 790 821
f 565 551 538
f 821 792 822
f 794 819 817
f 551 537 538
f 822 792 823
f 840 816 815
f 576 572 292
f 842 268 808
f 565 538 651
f 784 783 812
f 627 565 623
f 565 651 623
f 282 517 781
f 628 539 664
f 627 623 624
f 554 585 656
f 754 779 769
f 818 874 790
f 789 786 806
f 806 786 807
f 656 585 647
f 549 496 664
f 808 276 809
f 585 598 647
f 811 280 810
f 280 845 810
f 647 598 633
f 781 708 766
f 598 616 633
f 539 549 664
f 166 95 492
f 616 366 633
f 554 567 678
f 282 781 270
f 790 787 821
f 787 555 792
f 567 570 678
f 792 793 823
f 823 793 789
f 743 676 744
f 773 840 815
f 795 773 814
f 795 814 813
f 807 877 841
f 570 580 678
f 841 877 529
f 841 529 842
f 796 778 843
f 796 843 844
f 580 610 678
f 280 780 845
f 678 610 652
f 447 833 462
f 846 822 705
f 652 610 609
f 839 833 864
f 610 627 609
f 846 821 822
f 833 834 864
f 585 554 679
f 847 818 820
f 848 819 476
f 477 848 476
f 593 585 679
f 848 477 817
f 819 848 817
f 849 480 815
f 815 480 481
f 593 679 684
f 816 849 815
f 614 593 684
f 320 686 195
f 813 482 469
f 366 614 633
f 686 542 195
f 865 475 812
f 614 684 633
f 843 470 851
f 851 470 490
f 577 561 655
f 542 663 195
f 844 851 490
f 561 589 655
f 845 443 474
f 655 589 644
f 739 661 799
f 572 573 292
f 443 810 474
f 810 845 852
f 488 853 489
f 809 853 488
f 853 809 811
f 589 653 644
f 486 808 485
f 644 653 687
f 485 842 486
f 842 854 486
f 854 842 808
f 855 841 484
f 687 653 388
f 483 807 484
f 807 855 484
f 653 445 388
f 855 807 841
f 586 569 682
f 837 739 799
f 573 278 292
f 569 577 682
f 856 823 806
f 717 857 322
f 322 857 858
f 702 450 776
f 606 586 648
f 388 668 450
f 338 498 332
f 586 682 648
f 332 498 532
f 533 676 745
f 286 711 350
f 366 616 633
f 616 632 633
f 606 648 867
f 286 709 302
f 302 709 402
f 402 709 360
f 402 360 448
f 782 738 308
f 448 360 341
f 462 859 831
f 859 390 704
f 859 462 390
f 724 297 735
f 736 308 434
f 722 628 303
f 714 373 369
f 714 369 358
f 394 328 557
f 781 399 701
f 270 706 712
f 283 270 712
f 859 704 714
f 442 493 339
f 356 442 339
f 479 336 334
f 608 625 635
f 641 608 635
f 656 585 554
f 859 714 373
f 286 860 709
f 860 384 709
f 830 320 328
f 284 166 492
f 861 825 826
f 862 861 824
f 384 860 707
f 804 825 863
f 805 804 863
f 707 860 266
f 825 862 863
f 800 554 641
f 707 266 369
f 798 754 838
f 478 856 806
f 707 369 448
f 486 854 808
f 693 788 308
f 810 852 474
f 446 350 347
f 776 450 466
f 852 845 474
f 446 347 504
f 816 480 849
f 504 347 335
f 847 472 818
f 472 847 820
f 636 861 826
f 504 335 539
f 862 805 863
f 783 475 865
f 539 335 722
f 862 825 861
f 539 722 728
f 585 608 554
f 448 496 529
f 331 495 333
f 333 495 499
f 333 499 518
f 333 518 726
f 381 576 292
f 726 518 303
f 303 518 628
f 285 519 693
f 350 446 334
f 334 446 479
f 512 386 237
f 53 98 444
f 334 479 496
f 866 867 868
f 857 717 858
f 867 869 868
f 334 496 267
f 823 856 478
f 867 377 869
f 267 496 549
f 637 634 639
f 826 734 799
f 471 809 488
f 634 630 639
f 837 799 665
f 811 489 853
f 844 843 851
f 783 865 812
f 812 475 487
f 814 850 813
f 850 482 813
f 639 630 690
f 814 482 850
f 630 643 690
f 643 380 690
f 831 859 832
f 524 512 237
f 98 467 444
f 662 645 619
f 340 868 716
f 705 820 821
f 846 705 821
f 868 869 716
f 645 629 619
f 462 835 860
f 629 645 542
f 780 844 845
f 796 844 780
f 282 270 283
f 144 837 665
f 778 812 843
f 778 784 812
f 842 529 268
f 773 815 814
f 757 840 773
f 775 817 840
f 462 860 286
f 775 794 817
f 821 787 792
f 629 542 686
f 629 686 540
f 799 740 665
f 279 524 237
f 380 662 541
f 662 619 541
f 874 818 794
f 608 642 641
f 762 605 664
f 772 520 777
f 642 608 634
f 809 276 811
f 605 628 664
f 666 396 102
f 93 327 167
f 631 608 635
f 823 789 806
f 608 641 635
f 380 631 690
f 631 635 690
f 295 739 837
f 745 466 473
f 785 296 837
f 802 595 830
f 309 671 737
f 305 562 671
f 658 730 762
f 522 316 658
f 495 340 522
f 830 595 695
f 290 597 674
f 317 501 597
f 518 726 628
f 499 333 518
f 495 350 499
f 318 545 605
f 595 802 696
f 788 434 308
f 600 729 788
f 506 321 600
f 736 782 308
f 313 531 782
f 802 447 696
f 321 506 531
f 749 382 716
f 869 377 716
f 453 338 420
f 270 362 353
f 774 618 601
f 603 527 618
f 830 695 394
f 281 285 280
f 283 442 356
f 830 394 320
f 283 712 715
f 627 685 689
f 579 680 685
f 735 796 288
f 602 621 536
f 569 675 649
f 870 784 778
f 593 612 684
f 287 700 870
f 287 870 803
f 613 627 689
f 871 795 813
f 578 613 683
f 699 833 839
f 567 578 681
f 712 871 356
f 356 871 813
f 646 668 388
f 872 840 757
f 552 617 659
f 653 644 687
f 458 169 416
f 676 535 872
f 676 872 750
f 835 462 709
f 794 775 873
f 833 699 834
f 462 833 390
f 704 831 832
f 704 462 831
f 335 504 539
f 350 446 504
f 677 551 874
f 874 551 537
f 630 690 541
f 833 699 390
f 746 744 749
f 638 634 542
f 639 630 634
f 792 555 875
f 758 439 694
f 394 830 328
f 802 595 390
f 802 695 595
f 699 839 864
f 793 876 789
f 560 686 320
f 638 542 876
f 615 688 686
f 876 542 540
f 829 868 340
f 699 864 698
f 829 827 868
f 665 740 196
f 807 557 877
f 827 866 868
f 557 714 877
f 265 496 268
f 268 496 267
f 631 366 633
f 616 656 632
f 286 350 479
f 731 290 273
f 360 402 448
f 698 864 557
f 824 861 285
f 805 862 312
f 557 864 373
f 735 798 838
f 796 735 838
f 472 820 705
f 838 765 769
f 796 838 769
f 840 817 816
f 817 477 480
f 271 762 530
f 843 812 470
f 294 288 755
f 288 796 755
f 755 796 780
f 489 811 810
f 484 841 842
f 478 807 483
f 321 805 312
f 548 145 660
f 386 548 660
f 688 692 686
f 719 784 870
f 700 719 870
f 300 732 754
f 803 870 764
f 701 750 528
f 764 870 778
f 688 380 692
f 800 641 520
f 686 692 560
f 762 664 530
f 712 801 753
f 741 878 560
f 692 380 541
f 759 795 871
f 753 759 871
f 712 753 871
f 701 801 712
f 694 447 791
f 752 840 872
f 878 540 560
f 535 752 872
f 864 834 373
f 285 693 196
f 273 303 731
f 277 290 736
f 577 756 794
f 790 742 787
f 792 777 793
f 447 694 604
f 834 328 373
f 268 770 808
f 750 872 523
f 523 872 757
f 666 451 396
f 694 791 596
f 775 552 873
f 447 604 696
f 464 449 396
f 596 791 320
f 596 320 560
f 693 308 196
f 552 794 873
f 561 577 659
f 832 859 373
f 537 797 751
f 751 760 768
f 617 561 650
f 768 790 874
f 751 768 874
f 537 751 874
f 561 659 650
f 748 675 677
f 748 677 874
f 756 748 874
f 749 473 293
f 747 554 800
f 772 747 520
f 772 792 875
f 747 772 875
f 668 617 607
f 554 747 875
f 790 768 742
f 617 650 607
f 740 285 196
f 445 668 388
f 668 607 388
f 555 554 875
f 779 778 769
f 876 540 741
f 876 741 771
f 876 771 789
f 741 540 878
f 754 764 778
f 528 757 773
f 781 836 357
f 777 637 638
f 777 638 876
f 793 777 876
f 271 530 272
f 786 525 807
f 860 835 266
f 292 278 464
f 133 666 102
f 883 881 882
f 881 879 882
f 886 884 887
f 886 887 885
f 888 886 885
f 887 884 893
f 888 885 893
f 884 888 893
f 885 882 879
f 884 886 888
f 129 881 889
f 881 890 879
f 879 890 891
f 880 879 891
f 880 891 71
f 889 880 71
f 891 156 71
f 891 890 156
f 890 881 224
f 890 224 156
f 881 129 224
f 129 889 71
f 889 881 887
f 889 887 892
f 880 889 892
f 881 883 887
f 880 893 879
f 880 892 893
f 882 887 883
f 887 882 885
f 892 887 893
f 885 879 893
f 248 12 894
f 894 12 896
f 12 895 896
f 118 117 897
f 12 118 897
f 12 897 895
f 119 248 894
f 117 119 894
f 897 117 894
f 895 897 896
f 897 894 896
f 899 898 901
f 898 900 901
f 255 207 900
f 898 255 900
f 242 206 899
f 207 159 900
f 159 242 899
f 900 159 901
f 159 899 901
f 206 255 898
f 206 898 899
f 903 902 904
f 912 902 907
f 908 904 912
f 905 225 130
f 909 130 155
f 87 912 155
f 912 909 155
f 910 912 87
f 15 910 87
f 905 910 15
f 905 15 225
f 911 910 905
f 910 911 912
f 906 905 130
f 912 906 909
f 909 906 130
f 914 913 915
f 904 902 912
f 912 907 906
f 913 914 903
f 903 914 902
f 913 903 905
f 914 915 902
f 913 905 906
f 915 913 906
f 902 915 907
f 915 906 907
f 911 903 904
f 903 911 905
f 912 911 904
f 908 912 904
f 917 918 916
f 918 919 916
f 916 919 920
f 916 920 921
f 927 916 928
f 928 916 922
f 916 921 923
f 922 916 923
f 924 917 916
f 918 925 919
f 926 916 927
f 928 922 923
f 930 929 918
f 917 930 918
f 930 917 924
f 931 930 924
f 918 929 925
f 931 924 916
f 929 932 919
f 925 929 919
f 933 931 916
f 933 916 926
f 926 927 933
f 919 932 934
f 919 934 920
f 933 927 935
f 920 934 921
f 927 928 935
f 921 934 936
f 923 921 937
f 921 936 937
f 935 928 937
f 928 923 937
f 348 404 930
f 930 404 929
f 345 348 930
f 929 404 405
f 343 345 930
f 929 405 767
f 440 343 931
f 343 930 931
f 929 767 411
f 929 411 932
f 438 440 933
f 440 931 933
f 435 438 933
f 392 435 933
f 932 411 763
f 932 763 934
f 934 763 413
f 433 392 933
f 934 413 367
f 433 933 935
f 934 367 417
f 430 433 935
f 934 417 418
f 934 418 936
f 383 430 935
f 936 418 374
f 429 383 935
f 936 374 421
f 936 421 937
f 426 429 937
f 429 935 937
f 937 421 378
f 378 423 937
f 423 426 937
f 767 409 411
f 367 415 417
f 378 424 423
f 411 409 361
f 411 365 763
f 374 375 421
f 425 426 423
f 385 433 430
f 391 392 433
f 395 440 438
f 939 938 940
f 55 214 941
f 55 941 942
f 103 55 943
f 55 942 943
f 941 214 942
f 214 103 943
f 942 214 943
f 940 938 104
f 940 104 69
f 938 68 104
f 938 939 116
f 68 938 116
f 939 940 69
f 116 939 69
f 944 945 946
f 947 948 944
f 952 949 950
f 946 945 951
f 953 946 951
f 954 945 955
f 951 945 956
f 956 957 958
f 948 959 960
f 949 952 944
f 959 952 950
f 961 950 962
f 950 949 953
f 950 953 958
f 950 958 957
f 945 961 955
f 947 952 959
f 949 944 946
f 948 963 945
f 953 949 946
f 945 954 957
f 954 950 957
f 960 959 950
f 963 960 950
f 962 950 954
f 963 961 945
f 948 945 944
f 953 951 958
f 954 955 962
f 947 944 952
f 956 958 951
f 948 960 963
f 961 962 955
f 947 959 948
f 945 957 956
f 963 950 961
