v 0.00690695 -0.0263274 0.3477
v -0.0173959 -0.0222568 0.347804
v -0.0261592 -0.0110044 0.347747
v -0.0263618 0.00935347 0.347695
v -0.00439537 -0.0280485 0.348073
v -0.0111506 0.0258928 0.347711
v 0.00900704 0.0265824 0.347698
v 0.0261166 -0.0107929 0.347778
v 0.0194907 -0.0201502 0.347824
v 0.0268642 0.00867585 0.347722
v -0.0163918 -0.022934 0.372118
v -0.0256204 -0.0121022 0.372213
v -0.028149 0.00204664 0.372187
v -0.003295 -0.0281212 0.372214
v -0.0280968 0.00326548 0.34873
v -0.0244647 0.0137097 0.372195
v 0.00973957 -0.0265006 0.348628
v 0.0104095 -0.0264123 0.372111
v -0.0241865 0.0142267 0.348399
v -0.0195087 0.0199814 0.37218
v -0.0195882 0.0198674 0.3484
v -0.0119628 0.025597 0.372101
v 0.0198933 -0.0197257 0.372191
v -0.00018816 0.028027 0.348369
v 0.0265566 -0.00982029 0.372146
v -0.00073581 0.0280051 0.372194
v 0.00823415 0.0268093 0.372192
v 0.0278888 -0.00078953 0.3484
v 0.0279104 -0.00091263 0.372191
v 0.0186846 0.0212149 0.372203
v 0.0264106 0.00984345 0.372213
v 0.0196571 0.0203866 0.348612
v -0.0174463 -0.0248207 0.37223
v -0.0278958 -0.0116233 0.37234
v -0.0301455 0.00269096 0.372209
v -0.0029156 -0.0301444 0.372869
v -0.0218115 0.0219113 0.372259
v 0.0220296 -0.0208868 0.37222
v -0.00399301 0.0297461 0.372218
v 0.0122364 0.0280855 0.372422
v 0.0301596 0.00381574 0.372349
v 0.0245896 0.0178665 0.372297
v -0.0241182 -0.0183143 0.374716
v -0.0298568 -0.00369393 0.374705
v -0.0116536 -0.0279092 0.374708
v -0.0283036 0.0105845 0.374716
v 0.014203 -0.0275404 0.37472
v -0.0191908 0.0232715 0.374707
v -0.00452113 0.0303001 0.374676
v 0.0285129 -0.0104929 0.374713
v 0.0115866 0.0277834 0.374699
v 0.0297394 0.00506475 0.374709
v 0.0239125 0.0184398 0.374711
v -0.0386286 -0.0232442 0.428089
v -0.0420326 -0.0225995 0.427872
v -0.0424433 -0.0229671 0.428247
v -0.0441457 -0.0248292 0.427601
v -0.0445125 -0.0266223 0.4275
v -0.0374494 -0.0266326 0.427211
v -0.0374407 -0.0264151 0.427638
v -0.0395299 -0.0293359 0.427038
v -0.0366885 -0.0243917 0.420048
v -0.037718 -0.0218921 0.4205
v -0.0383964 -0.0216077 0.420558
v -0.0382434 -0.0157711 0.387782
v -0.04095 -0.018974 0.387217
v -0.0412781 -0.0147538 0.387957
v -0.0444789 -0.0165269 0.38766
v -0.0366588 -0.0187301 0.38725
v -0.0420333 -0.0230696 0.386507
v -0.0450312 -0.0204747 0.38694
v -0.0383797 -0.0225332 0.3866
v -0.0445125 -0.0164214 0.390032
v -0.0423711 -0.0148451 0.390331
v -0.0456158 -0.018665 0.38967
v -0.0449529 -0.0220138 0.389007
v -0.0392711 -0.015044 0.390298
v -0.0369065 -0.0169252 0.389954
v -0.0363425 -0.0207631 0.389449
v -0.0384609 -0.0233208 0.38884
v -0.0419459 -0.0240531 0.388634
v -0.0422509 -0.0152034 0.390016
v -0.0393764 -0.015026 0.390567
v -0.0440221 -0.0159194 0.390238
v -0.0365728 -0.0178476 0.389905
v -0.0454577 -0.0179457 0.389878
v -0.0454187 -0.0209925 0.389284
v -0.043646 -0.0231105 0.388907
v -0.0372126 -0.0220638 0.389127
v -0.0389953 -0.0236497 0.388874
v -0.041491 -0.0236701 0.388682
v -0.0399437 -0.0153521 0.390291
v -0.0376363 -0.0167024 0.390014
v -0.0447349 -0.0173582 0.389949
v -0.0366319 -0.019914 0.389456
v -0.0451386 -0.0199875 0.389473
v -0.044246 -0.022085 0.389163
v -0.0383422 -0.0227132 0.388983
v -0.0439267 -0.0185267 0.405621
v -0.0437493 -0.0171414 0.395604
v -0.0452689 -0.0203998 0.405049
v -0.0449906 -0.019144 0.395414
v -0.0454796 -0.0226583 0.403665
v -0.040698 -0.0245386 0.394491
v -0.0391767 -0.0262584 0.404197
v -0.0411105 -0.0267261 0.404244
v -0.0425435 -0.0260993 0.403142
v -0.039015 -0.0166229 0.395665
v -0.0412511 -0.0161426 0.395767
v -0.0389473 -0.0179 0.404575
v -0.0411386 -0.017519 0.405722
v -0.0373114 -0.0180675 0.395471
v -0.0366792 -0.0202647 0.394995
v -0.0364015 -0.021871 0.403871
v -0.0451763 -0.0207247 0.394847
v -0.0371162 -0.0247362 0.404425
v -0.0372004 -0.0223925 0.394636
v -0.044331 -0.0229864 0.394447
v -0.0442207 -0.0250019 0.403294
v -0.0388913 -0.0239955 0.3943
v -0.0424596 -0.0242563 0.394282
v -0.0430297 -0.0181323 0.406803
v -0.0447339 -0.0194897 0.406142
v -0.0400433 -0.0176528 0.406116
v -0.0455854 -0.022448 0.404266
v -0.0377974 -0.018637 0.404698
v -0.0389301 -0.0266318 0.405243
v -0.0365629 -0.0237422 0.404968
v -0.0370498 -0.0195366 0.4043
v -0.0430214 -0.026143 0.403948
v -0.0364905 -0.020917 0.40423
v -0.0444593 -0.0247093 0.403511
v -0.0415255 -0.0205333 0.413332
v -0.0385057 -0.019424 0.413547
v -0.0438087 -0.0194932 0.413533
v -0.0382383 -0.0220022 0.413069
v -0.0435982 -0.0222351 0.41304
v -0.0362026 -0.023252 0.412864
v -0.045588 -0.0245587 0.412632
v -0.0435446 -0.0251692 0.412524
v -0.0385225 -0.0250597 0.412542
v -0.0375494 -0.0266145 0.412065
v -0.0402485 -0.0263538 0.412317
v -0.0402511 -0.0281029 0.412011
v -0.0437412 -0.0271583 0.412175
v -0.039581 -0.0188921 0.412996
v -0.0423034 -0.0190158 0.412979
v -0.0440384 -0.0198902 0.412811
v -0.0370029 -0.0208415 0.412674
v -0.0453366 -0.0218436 0.412507
v -0.0362092 -0.0239369 0.41209
v -0.0405535 -0.0177444 0.407577
v -0.0424886 -0.0182611 0.409211
v -0.0429733 -0.0188123 0.411398
v -0.0380776 -0.0187516 0.407549
v -0.0456106 -0.024084 0.412081
v -0.0433974 -0.0189415 0.411248
v -0.0365623 -0.0206393 0.407119
v -0.0447551 -0.0197145 0.407351
v -0.0456999 -0.0220821 0.406797
v -0.0443272 -0.026612 0.411655
v -0.0363499 -0.0238876 0.40652
v -0.0395525 -0.0278376 0.411387
v -0.042051 -0.0278484 0.411399
v -0.0449999 -0.0248418 0.406457
v -0.0383222 -0.0263104 0.4062
v -0.0432898 -0.0265261 0.406172
v -0.0407848 -0.0270971 0.406077
v -0.0440575 -0.0190977 0.409373
v -0.04095 -0.026111 0.427693
v -0.0425431 -0.0291332 0.427059
v -0.0386839 -0.0224141 0.425503
v -0.0441161 -0.0232349 0.42516
v -0.0374025 -0.02579 0.425199
v -0.0436679 -0.028321 0.424559
v -0.0394445 -0.0292583 0.424417
v -0.0368917 -0.025163 0.424766
v -0.0375413 -0.027711 0.424235
v -0.0419442 -0.0294325 0.423963
v -0.0376539 -0.027084 0.419604
v -0.0396738 -0.0285774 0.419348
v -0.0438631 -0.027383 0.419532
v -0.0421686 -0.0285623 0.419343
v -0.0403758 -0.0199853 0.420863
v -0.0442367 -0.0212886 0.420624
v -0.0410987 -0.0207625 0.420723
v -0.0458376 -0.025336 0.419921
v -0.0439614 -0.0219268 0.420511
v -0.0450771 -0.0250938 0.419946
v -0.0371951 -0.0278726 0.419463
v -0.0439254 -0.0287072 0.419165
v -0.0414608 -0.0296766 0.419006
v -0.0434304 -0.0203439 0.420492
v -0.0398559 -0.0197417 0.420579
v -0.04574 -0.0229605 0.420002
v -0.0365984 -0.0219682 0.420196
v -0.0457287 -0.0264104 0.419416
v -0.036043 -0.026143 0.419486
v -0.0384488 -0.0290784 0.418954
v -0.0453518 -0.0211855 0.414792
v -0.0454796 -0.0257128 0.416409
v -0.0456426 -0.023268 0.416861
v -0.0454233 -0.0262124 0.413881
v -0.0455781 -0.0262432 0.416389
v -0.0409091 -0.0187161 0.415229
v -0.0422051 -0.0196445 0.417596
v -0.0365559 -0.0212111 0.414798
v -0.0372235 -0.0211958 0.417215
v -0.0367347 -0.0213981 0.417353
v -0.0365531 -0.0267378 0.416153
v -0.0365449 -0.0262909 0.413903
v -0.0363805 -0.0227827 0.416971
v -0.0404812 -0.0193091 0.417543
v -0.0409756 -0.0287883 0.413446
v -0.0393903 -0.0286919 0.416027
v -0.0415926 -0.0289508 0.415797
v -0.0451415 -0.0213885 0.417106
v -0.0442821 -0.0275419 0.416026
v -0.0367138 -0.0261562 0.41367
v -0.0410502 -0.0285455 0.413252
v -0.0452165 -0.0260417 0.413697
v -0.0451361 -0.0212107 0.414542
v -0.0367114 -0.0213207 0.41453
v -0.0408214 -0.0188896 0.41495
v -0.0420374 -0.0209943 0.414591
v -0.0389058 -0.0214991 0.41451
v -0.0439684 -0.0236556 0.414113
v -0.0381175 -0.0245599 0.413964
v -0.0400453 -0.0265687 0.413594
v -0.0423715 -0.0262708 0.413651
v -0.042514 -0.0194139 0.417756
v -0.0390932 -0.0195625 0.417607
v -0.0459813 -0.0238049 0.416827
v -0.0358625 -0.0241201 0.416773
v -0.0366092 -0.0267439 0.416336
v -0.0433171 -0.0286119 0.415959
v -0.039123 -0.0289625 0.41579
v -0.0374153 0.0250375 0.427439
v -0.0374405 0.0259066 0.42772
v -0.0390751 0.023125 0.428123
v -0.0444695 0.0262916 0.42766
v -0.0435528 0.023816 0.427775
v -0.042224 0.0227887 0.428225
v -0.0445239 0.0266087 0.42724
v -0.0377162 0.0272643 0.427186
v -0.0394101 0.0292928 0.427059
v -0.0425194 0.0293496 0.427125
v -0.0427124 0.029027 0.426885
v -0.0436691 0.0276456 0.419502
v -0.0446402 0.0278324 0.419463
v -0.0450327 0.0251746 0.419947
v -0.0419581 0.0147925 0.387943
v -0.0447005 0.0170377 0.387557
v -0.04095 0.018974 0.387217
v -0.0365394 0.0193853 0.387132
v -0.0381708 0.01579 0.387777
v -0.0449342 0.0207523 0.386914
v -0.0426392 0.0228272 0.386551
v -0.0393345 0.022973 0.386527
v -0.0446224 0.0222031 0.389013
v -0.0458029 0.0194974 0.389537
v -0.0425037 0.0149899 0.390275
v -0.03937 0.0149003 0.390354
v -0.04247 0.0238862 0.388902
v -0.0446123 0.0164433 0.390058
v -0.0371434 0.0166869 0.389968
v -0.0394037 0.0237469 0.388785
v -0.0372874 0.0223298 0.388982
v -0.0361667 0.0193924 0.389525
v -0.0384215 0.0154527 0.390205
v -0.04226 0.0148559 0.390494
v -0.0448456 0.0168027 0.390029
v -0.0366956 0.0176145 0.38991
v -0.0453401 0.019482 0.389267
v -0.0366065 0.0197329 0.389254
v -0.0445934 0.0217108 0.389318
v -0.0369143 0.0218553 0.389158
v -0.039606 0.0238945 0.388903
v -0.041605 0.015153 0.390326
v -0.0378087 0.0163205 0.390145
v -0.0443526 0.0168076 0.390048
v -0.0379481 0.0223697 0.389048
v -0.0425188 0.0233696 0.388879
v -0.0398017 0.0233917 0.388874
v -0.0404155 0.0161871 0.396049
v -0.0400863 0.0175821 0.405542
v -0.0424326 0.0177691 0.405798
v -0.0378906 0.0185198 0.404396
v -0.0364956 0.022794 0.403725
v -0.0377084 0.0231156 0.394744
v -0.036903 0.0244353 0.40465
v -0.0384125 0.0259391 0.404297
v -0.0403008 0.0267484 0.4042
v -0.0399033 0.0244752 0.394422
v -0.0433093 0.0168478 0.395671
v -0.0447998 0.0195462 0.405364
v -0.0378381 0.0174405 0.395527
v -0.0448887 0.0187512 0.395268
v -0.0367973 0.0194451 0.39531
v -0.0454441 0.021471 0.403937
v -0.0451636 0.0208645 0.394852
v -0.0368072 0.0212311 0.394859
v -0.0450747 0.0238819 0.403535
v -0.0443659 0.0228603 0.394456
v -0.0433781 0.0256947 0.403198
v -0.042466 0.0242462 0.39427
v -0.04131 0.0176143 0.406477
v -0.0434262 0.0183499 0.406764
v -0.0453103 0.0205174 0.405614
v -0.0381006 0.0183646 0.404987
v -0.0382848 0.0262782 0.405299
v -0.0454788 0.0228234 0.403962
v -0.041933 0.0266485 0.404445
v -0.0363287 0.0224929 0.404592
v -0.0365481 0.0208189 0.404032
v -0.0366989 0.0204766 0.404258
v -0.044199 0.0251259 0.403492
v -0.0406237 0.0206127 0.413326
v -0.0431843 0.0214359 0.413172
v -0.0428734 0.0189831 0.413623
v -0.0375683 0.0201846 0.413403
v -0.0381278 0.0222148 0.413045
v -0.0457468 0.0233733 0.412851
v -0.0363136 0.02253 0.412788
v -0.0436668 0.0249597 0.412548
v -0.0373496 0.0265204 0.41229
v -0.0388546 0.0255938 0.412451
v -0.0436727 0.0273262 0.412146
v -0.040885 0.0263491 0.412315
v -0.0400334 0.0279694 0.411826
v -0.042314 0.0189496 0.412977
v -0.0399498 0.0189055 0.413025
v -0.0439892 0.0199352 0.412817
v -0.0378715 0.019863 0.412826
v -0.0455391 0.0221418 0.412423
v -0.0432159 0.0188425 0.411265
v -0.0412768 0.0178173 0.407686
v -0.0387176 0.0182735 0.407468
v -0.0435709 0.0191381 0.41134
v -0.0452322 0.0253299 0.411882
v -0.0451833 0.0202688 0.407132
v -0.0439661 0.0190673 0.409069
v -0.0367352 0.020334 0.407252
v -0.0365171 0.0248301 0.411931
v -0.0456523 0.022883 0.40682
v -0.0429833 0.0276316 0.411438
v -0.0361943 0.0226561 0.406854
v -0.0378498 0.0269089 0.41155
v -0.0448172 0.0251417 0.406325
v -0.0370328 0.0250507 0.406438
v -0.0421305 0.0270399 0.405964
v -0.0390141 0.0266877 0.406134
v -0.0424593 0.018226 0.409526
v -0.04095 0.026111 0.427693
v -0.0411226 0.021801 0.425579
v -0.0437541 0.0236716 0.425583
v -0.0449213 0.0257683 0.424891
v -0.0372929 0.0267736 0.424597
v -0.0423928 0.029199 0.424295
v -0.0397364 0.0292579 0.424493
v -0.0438081 0.0226075 0.425135
v -0.0437642 0.0283343 0.424241
v -0.0384423 0.0287174 0.424109
v -0.037142 0.0237155 0.420179
v -0.0370282 0.0257591 0.419837
v -0.0382854 0.0277805 0.419489
v -0.0410522 0.0288138 0.419291
v -0.0378599 0.0209847 0.420688
v -0.0411978 0.0207697 0.420718
v -0.0421914 0.0201731 0.42082
v -0.0384697 0.0214895 0.420582
v -0.0440964 0.0220763 0.420528
v -0.0453959 0.0227163 0.420375
v -0.0359489 0.0243568 0.419932
v -0.0364239 0.0269205 0.419499
v -0.040237 0.0295382 0.419173
v -0.0399066 0.0197789 0.420563
v -0.0433884 0.020321 0.420496
v -0.0369464 0.0216204 0.420261
v -0.0454279 0.0223429 0.420135
v -0.0459656 0.0251351 0.419626
v -0.0450913 0.0275547 0.419216
v -0.0385197 0.0291154 0.418949
v -0.0421399 0.0295962 0.418876
v -0.0408227 0.018717 0.415224
v -0.0372213 0.0212054 0.417204
v -0.0392369 0.0197776 0.417476
v -0.0364572 0.021323 0.414738
v -0.0367205 0.0214118 0.417241
v -0.0453109 0.0211132 0.414801
v -0.0440187 0.0206395 0.417426
v -0.0454726 0.0260791 0.413955
v -0.0454861 0.0257147 0.416414
v -0.0455612 0.0262559 0.41644
v -0.0408859 0.0292003 0.415758
v -0.0410969 0.0287847 0.413419
v -0.0445757 0.0272511 0.416182
v -0.0453764 0.0216986 0.417041
v -0.0411082 0.0191693 0.417438
v -0.0362706 0.0231741 0.416798
v -0.036609 0.026395 0.413896
v -0.0367299 0.0262112 0.413658
v -0.04111 0.0285026 0.413259
v -0.0366118 0.0267402 0.416154
v -0.0366887 0.021386 0.414519
v -0.040899 0.0188885 0.414951
v -0.045257 0.0260367 0.413697
v -0.0451759 0.0212791 0.414526
v -0.0427054 0.0213561 0.414528
v -0.0394034 0.0211632 0.414552
v -0.0439464 0.0242318 0.414029
v -0.0379924 0.0238608 0.414076
v -0.0389725 0.025987 0.413696
v -0.0417351 0.0265253 0.413618
v -0.0386065 0.0197824 0.417536
v -0.0433842 0.0198288 0.417539
v -0.045909 0.0237434 0.416871
v -0.0358804 0.0245633 0.416678
v -0.0372433 0.0275751 0.416154
v -0.0437223 0.0283888 0.416016
v -0.040184 0.0291215 0.415863
v 0.0163539 -0.00531501 0.389124
v 0.0227717 -0.00139302 0.388717
v 0.016077 0.00102236 0.388703
v 0.023001 0.00196228 0.38876
v 0.026705 0.00594765 0.389364
v 0.0191657 0.0062087 0.389382
v 0.0163153 0.00622128 0.389225
v 0.0266673 -0.00615764 0.389423
v 0.0160864 -0.0146019 0.392063
v 0.0190299 -0.0110881 0.390636
v 0.0189811 0.0109411 0.390623
v 0.0162945 0.0150135 0.392441
v 0.018923 0.0140578 0.392781
v 0.0190103 0.0162884 0.393293
v 0.0163484 0.0214714 0.396894
v 0.0190637 -0.0157318 0.392775
v 0.0162563 -0.0212575 0.396693
v 0.0191865 0.0186317 0.395711
v 0.0189719 -0.019906 0.395686
v 0.0259021 -0.0111748 0.390692
v 0.0280148 -0.0102985 0.390127
v 0.0271208 -0.0160009 0.39294
v 0.0279052 0.0154654 0.392668
v 0.0279652 0.0214238 0.396839
v 0.0260505 0.0194912 0.395715
v 0.0279243 -0.0216689 0.397024
v 0.0262187 -0.0195673 0.395678
v 0.0278671 0.0216148 0.392682
v 0.0280036 0.013597 0.386011
v 0.0280822 0.0105633 0.387853
v 0.0274752 0.0105174 0.390439
v 0.0280598 -0.0104505 0.387847
v 0.0278228 -0.0141963 0.385348
v 0.0227869 0.00143847 0.38634
v 0.0230816 -0.00205851 0.386451
v 0.0160144 0.00249549 0.386393
v 0.0160003 0.00992066 0.387795
v 0.026587 0.00569235 0.386839
v 0.0266377 -0.00557085 0.386833
v 0.016 -0.0050736 0.386777
v 0.0159997 -0.00963485 0.38776
v 0.0160228 0.0132384 0.38425
v 0.0159938 0.0124257 0.386786
v 0.016005 0.0204804 0.382293
v 0.0160434 -0.021377 0.3825
v 0.0159968 -0.0131973 0.383789
v 0.01575 -0.0125556 0.381855
v 0.0159977 -0.0123837 0.386862
v 0.0160143 -0.0218815 0.396914
v 0.0160003 0.0113692 0.390304
v 0.0160336 0.0215303 0.396521
v 0.0159984 -0.00725638 0.3891
v 0.0187027 0.0235613 0.387589
v 0.0163118 0.022742 0.38228
v 0.0163585 0.0227023 0.391878
v 0.0184885 0.0236907 0.380985
v 0.0190149 -0.023403 0.387341
v 0.0166329 -0.0231414 0.391474
v 0.0168844 -0.0232103 0.382534
v 0.018183 -0.0239744 0.380607
v 0.0168187 0.0261861 0.393703
v 0.0189341 0.0243614 0.389901
v 0.0228918 0.0281833 0.39183
v 0.022008 0.0236399 0.388233
v 0.0164877 -0.0255372 0.394422
v 0.0208127 -0.0280508 0.391706
v 0.0198048 -0.0245315 0.389497
v 0.0246691 -0.0196492 0.385824
v 0.0279067 -0.0229381 0.397103
v 0.0162464 -0.0227257 0.39725
v 0.0277598 0.0228928 0.397124
v 0.0161022 0.0229797 0.397032
v -0.0159301 0.0254511 0.378
v -0.00932633 0.0285349 0.378653
v -0.0157408 0.0256904 0.37472
v -0.0156058 -0.0258833 0.37473
v -0.00943915 -0.0284508 0.378512
v -0.0159063 -0.0251219 0.378708
v -0.00657836 0.0292699 0.3751
v -0.00657836 -0.0292699 0.3751
v -0.00749125 -0.0288147 0.38031
v -0.00751054 0.0286993 0.380455
v -0.00650443 0.0293272 0.388907
v -0.00679506 -0.0292861 0.389391
v -0.00198371 0.0300005 0.387219
v 0.00112138 0.0300998 0.375118
v -0.00151198 -0.0299619 0.3751
v -0.00291026 -0.0299299 0.387164
v 0.003057 0.0301475 0.380602
v 0.00262362 -0.0299007 0.380623
v 0.00677923 -0.0293348 0.375129
v 0.00225044 -0.0299521 0.389137
v 0.00227137 0.0299399 0.38971
v 0.0110262 0.0279949 0.37512
v 0.00977717 -0.0285231 0.380334
v 0.0125664 0.0273044 0.380388
v 0.0157646 -0.0256224 0.375108
v 0.0199609 0.0226333 0.375116
v 0.0215802 -0.0208398 0.3751
v 0.0226929 -0.0197293 0.384295
v 0.0235063 0.0187752 0.383491
v 0.0264303 0.0144538 0.375108
v 0.0268081 -0.0140048 0.381681
v 0.0271938 0.0127586 0.379918
v 0.0284634 0.00951086 0.377764
v 0.0297341 0.00480274 0.375052
v 0.0286554 -0.0090134 0.377724
v 0.026243 -0.0146886 0.375134
v 0.0297547 -0.00451958 0.375106
v 0.0300056 0.00019463 0.377646
v -0.0163007 0.0183324 0.378486
v -0.0156108 0.0191907 0.378294
v -0.0172044 0.0222922 0.378689
v -0.0158279 0.0235124 0.378404
v -0.0145566 0.0252264 0.378834
v -0.00861098 0.0234309 0.378787
v -0.0072463 0.0321139 0.401581
v -0.00421413 0.0345027 0.400118
v -0.00726701 0.0356797 0.399509
v 0.00220488 0.0322866 0.401482
v -0.00274138 0.0333168 0.400783
v -0.00404074 0.0384249 0.397918
v -0.00173483 0.0361584 0.39908
v -2.13e-05 0.0378727 0.398216
v -0.00089848 0.0343527 0.400239
v 0.00223368 0.0359066 0.399064
v 0.00239024 0.00247119 0.384183
v 0.00236797 0.0102615 0.385529
v -0.00640507 0.00951908 0.385308
v 0.00219899 0.0160226 0.387788
v 0.00219279 0.0204292 0.390278
v 0.00228162 0.0270496 0.395946
v -0.00637558 0.0261875 0.395032
v 0.00245879 0.0312293 0.40155
v -0.00700157 0.031004 0.401157
v -0.0068776 0.0160928 0.387844
v -0.00724715 0.00228675 0.384113
v -0.00676824 0.0204878 0.390426
v -0.00701395 -0.0204244 0.390253
v -0.00635741 -0.0265033 0.395363
v 0.00228638 -0.025667 0.394517
v -0.00680752 -0.0311089 0.40146
v 0.00220488 -0.0309412 0.40115
v -0.00695843 -0.00202432 0.384172
v -0.00636791 -0.00964731 0.385345
v 0.00236699 -0.00875586 0.385111
v -0.00675252 -0.0160682 0.387822
v 0.002191 -0.0160307 0.387796
v -0.00741843 -0.00973804 0.385894
v -0.00747899 -0.0171959 0.388206
v 0.00877385 0.0206133 0.380674
v 0.0123238 0.0268771 0.380711
v 0.00393016 0.0296197 0.380691
v 0.01 0.0173205 0.3807
v 0.0114887 0.0180713 0.380658
v 0.00443367 0.0195612 0.380688
v 0.0142429 0.0141599 0.380674
v 0.0145762 0.0184812 0.38066
v 0.00451 -0.0295131 0.380682
v 0.00865431 -0.0223048 0.380657
v 0.00478631 -0.0195247 0.380689
v 0.0101052 -0.0187494 0.380647
v 0.0129357 -0.0154946 0.38066
v 0.01285 -0.0265373 0.380735
v 0.0147291 -0.0183972 0.38079
v -0.00521655 0.0195088 0.375142
v -0.00682041 0.018827 0.379216
v -0.0114035 0.0167446 0.375106
v -0.00707167 -0.0186773 0.37879
v -0.00543009 -0.0193556 0.375072
v -0.0107933 -0.0170404 0.374746
v -0.00591008 0.0192946 0.384933
v -0.00625279 -0.0189089 0.385469
v -0.00218785 -0.0199602 0.384859
v 0.00209057 0.0198904 0.3751
v 0.00209057 -0.0198904 0.3751
v 0.0017004 -0.0198932 0.386221
v 0.00256057 -0.0198758 0.381761
v 0.00251258 0.019956 0.382043
v 0.00207023 0.0199161 0.386203
v 0.00618034 0.0190211 0.3751
v 0.00782856 -0.0184842 0.374734
v 0.0025176 -0.0183162 0.387138
v 0.0120795 0.0160243 0.374746
v 0.0130956 -0.0150732 0.374728
v 0.0170156 0.0108965 0.375158
v 0.0161803 -0.0117557 0.3751
v 0.0156673 0.0123894 0.381585
v 0.0163368 0.0115208 0.379481
v 0.0181356 0.00854785 0.377687
v 0.0167913 -0.0108784 0.378771
v 0.0181223 -0.00856354 0.377675
v 0.0191042 -0.00626615 0.3751
v 0.0199344 0.00278763 0.377696
v 0.0200112 0.0017801 0.37513
v 0.0195629 -0.00415823 0.3777
v 0.0212053 0.0239069 0.39598
v 0.0205215 0.0257463 0.394171
v 0.0236778 0.0253853 0.394555
v 0.027602 0.0255166 0.394389
v 0.0208287 -0.0240963 0.395857
v 0.0204261 -0.025432 0.394457
v 0.0222508 -0.0262295 0.393682
v 0.026144 -0.0265879 0.393416
v 0.023723 -0.0248295 0.395033
v -0.0109678 -0.0252276 0.378553
v -0.0156158 -0.0240988 0.378292
v -0.00226867 -0.033314 0.400788
v 0.0025066 -0.0317925 0.401611
v -0.00731101 -0.0322786 0.401489
v -0.0041075 -0.0343021 0.400253
v -0.00577848 -0.037519 0.398362
v -0.00239012 -0.0373846 0.398596
v -0.00082352 -0.0344613 0.400147
v 0.00192478 -0.0364663 0.39892
v 0.00236021 0.00081489 0.384978
v 0.0024975 0.00079878 0.382509
v 0.00252996 0.0108073 0.38405
v 0.00239968 -0.0016254 0.384354
v 0.0025 -0.00772737 0.383392
v 0.00251138 0.0198736 0.389819
v 0.00250195 0.0296397 0.382482
v 0.00237907 0.0305441 0.391549
v 0.0025044 -0.0296142 0.382089
v 0.00251258 -0.0170533 0.388293
v 0.00252938 -0.0302793 0.392858
v 0.0025 -0.0126952 0.384777
v 0.0025225 0.0168978 0.387107
v 0.00249835 -0.0262335 0.39464
v -0.00753208 0.019273 0.386313
v -0.00750242 0.0200988 0.389585
v -0.00751183 0.0202175 0.380518
v -0.0074879 0.0287915 0.390938
v -0.00749992 -0.0285328 0.38979
v -0.00745039 -0.0194763 0.385481
v -0.00708726 0.00972869 0.383796
v -0.00758621 -0.00127116 0.383403
v -0.00732713 0.00030125 0.385214
v -0.00682069 -0.0165694 0.38642
v -0.0071792 -0.00946054 0.383765
v -0.00756143 0.016514 0.387302
v -0.00740368 0.017215 0.389378
v -0.00750294 -0.0315393 0.401121
v -0.0075647 -0.0340862 0.399811
v -0.00736745 0.0337233 0.396197
v -0.00750223 0.0313344 0.401233
v -0.0151468 0.0172191 0.374719
v -0.0177752 0.021582 0.374823
v -0.0144011 -0.016932 0.37475
v -0.0147443 -0.0208284 0.37469
v -0.0175953 -0.0208387 0.374741
v -0.0118876 0.0236653 0.374685
v -0.0147224 0.0213747 0.374776
v -0.0123088 0.0194171 0.374697
v -0.006175 0.0254003 0.3747
v -0.00667342 0.0288662 0.374693
v -0.0132928 -0.0237421 0.37469
v -0.006175 -0.0254003 0.3747
v -0.0113301 -0.0200179 0.374693
v -0.00669193 0.0193463 0.374643
v -0.0108954 -0.0232734 0.374692
v -0.0103377 0.0209945 0.374699
v -0.00338009 -0.0297434 0.37469
v -0.00083277 -0.0204762 0.374708
v 0.00256519 0.0295969 0.374711
v 5.561e-05 0.0271773 0.374711
v -0.00204192 0.025445 0.374703
v -0.00186298 -0.026205 0.374376
v -0.00104187 0.0231542 0.374717
v 0.0053442 0.0205226 0.374687
v -0.00121473 -0.0233041 0.374696
v 0.00177196 -0.0237271 0.374258
v 0.00173073 -0.0263726 0.374698
v 0.002143 0.0248538 0.37457
v 0.0116564 -0.0274734 0.374679
v 0.0120444 0.0271945 0.374699
v 0.006175 0.0254003 0.3747
v 0.006175 -0.0254003 0.3747
v 0.0102988 -0.0209701 0.374704
v 0.0124077 0.0237933 0.374688
v 0.00979442 0.0212081 0.374708
v 0.0120039 -0.0238822 0.374668
v 0.0128089 -0.0193296 0.374697
v 0.0130166 0.0194475 0.374703
v 0.0165039 0.0119908 0.3747
v 0.0190829 0.0224987 0.374695
v 0.0148307 0.0218596 0.374677
v 0.0174912 -0.0238792 0.3747
v 0.0198222 0.01357 0.374702
v 0.0171503 -0.0170003 0.3747
v 0.0147847 -0.0220014 0.374695
v 0.0177493 -0.010216 0.374711
v 0.0196749 -0.0119423 0.374735
v 0.0201772 0.0110221 0.374701
v 0.019867 0.00500442 0.374698
v 0.0233045 -0.018464 0.374705
v 0.0210851 -0.0144956 0.374701
v 0.0202723 -0.00344299 0.374693
v 0.0257003 -0.006625 0.3747
v 0.0222584 -0.0105275 0.374701
v 0.0227397 0.0105441 0.374698
v 0.0257003 0.006625 0.3747
v 0.0238287 0.00203968 0.374699
v 0.0226701 -0.00028128 0.374706
v 0.0242854 -0.00231831 0.37471
v 0.0230069 0.0140154 0.374735
v 0.0263356 0.0139127 0.374708
v 0.0236958 -0.0130168 0.374716
v 0.0272547 -0.011712 0.374695
v 0.0269336 0.00141983 0.374737
v 0.0269822 -0.00157962 0.374696
v 0.0297754 0.0015561 0.374672
v 0.0259958 0.00873339 0.391067
v 0.0189837 0.00789974 0.390923
v 0.0261817 -0.017278 0.3949
v 0.0190464 -0.0176963 0.395703
v 0.0259503 0.0124446 0.392387
v 0.0259052 0.0169695 0.394618
v 0.0259482 -0.0137964 0.392975
v 0.019022 -0.0127566 0.392775
v 0.025949 -0.00864919 0.391018
v 0.019061 -0.00827725 0.391083
v 0.019 -0.00640696 0.389552
v -0.00091296 0.0351985 0.393569
v -0.00396409 0.0351279 0.393327
v 0.0002303 -0.03087 0.389413
v -0.0031987 -0.0349019 0.392601
v 0.00052784 -0.0351654 0.394752
v -0.00197053 -0.0382932 0.397687
v -0.00651974 -0.0344081 0.395361
v 0.0278944 -0.0132635 0.385478
v 0.027898 0.0133005 0.385374
v 0.0267876 -0.0123067 0.38124
v 0.027327 -0.0108057 0.378689
v 0.0267079 0.0120297 0.380584
v 0.0231736 0.00161545 0.377699
v 0.0243916 -0.00230243 0.3777
v 0.0228135 -0.00077248 0.377699
v 0.0265337 0.00193441 0.37768
v 0.0267954 -0.00148588 0.377698
v 0.0205882 -0.0106948 0.372931
v 0.0209008 -0.0144669 0.372803
v 0.0236098 -0.011699 0.372854
v 0.0213655 0.0147042 0.372956
v 0.020509 0.0109282 0.372721
v 0.0236562 0.0126222 0.372783
v -0.00074153 0.0269018 0.372792
v -0.00063643 0.0234166 0.372708
v -0.00082499 -0.0232068 0.372833
v 0.00087733 -0.0268564 0.372905
v 0.0264321 0.0157257 0.383932
v 0.0261473 0.024328 0.390992
v 0.0254807 -0.0268443 0.392303
v 0.0278047 -0.0245439 0.3945
v -0.00680984 -0.00029333 0.382515
v -0.00639327 0.0169699 0.386494
v 0.00076965 0.0176825 0.386913
v 0.00081939 -0.0177677 0.386924
v 0.00224679 -0.0196476 0.389996
v 0.00214379 -0.0171316 0.389291
v -0.00721067 -0.0178322 0.389828
v 0.00220689 0.0178404 0.389842
v -0.00720585 0.0189762 0.390113
v -0.00379858 0.0290204 0.392177
v -0.00126655 0.0313809 0.391405
v -0.00365952 0.0313808 0.391472
v -0.00117024 0.0292453 0.392667
v -0.00376766 0.0356526 0.399005
v 0.0207659 0.0176756 0.389336
v 0.0232844 0.0190234 0.387262
v 0.0206706 0.0194472 0.3876
v 0.023159 0.0177389 0.389354
v 0.0225162 0.0260025 0.393443
v 0.0232694 0.0239461 0.395451
v -0.0116386 0.0249611 0.375739
v -0.015817 0.0204249 0.375755
v -0.012512 0.0183312 0.375757
v -0.00908977 0.0220045 0.375747
v -0.0155403 0.0238463 0.375806
v -0.00978735 0.0190274 0.375803
v -0.0127671 0.025542 0.378291
v -0.0117772 0.0179859 0.378426
v -0.00902928 0.0195373 0.378899
v -0.0115844 -0.018244 0.375686
v -0.0157136 -0.0224853 0.375763
v -0.0136697 -0.0249573 0.375737
v -0.00904129 -0.0214736 0.375765
v -0.0155249 -0.0194469 0.3758
v -0.00990743 -0.0244587 0.375779
v -0.0159933 -0.0197023 0.378855
v -0.0126113 -0.017704 0.378332
v -0.00792183 -0.0202407 0.379514
v 0.00951972 -0.0228757 0.377222
v 0.0125668 -0.0183382 0.377199
v 0.0121699 -0.0248259 0.377243
v 0.0154708 -0.0203701 0.377258
v 0.00947017 -0.0194427 0.3773
v 0.0158416 -0.0236165 0.37731
v 0.0106257 -0.0249802 0.380406
v 0.0152668 -0.0245592 0.38038
v 0.0133123 0.0248257 0.377169
v 0.00934957 0.0214997 0.377203
v 0.0119699 0.0194994 0.377051
v 0.014583 0.0206582 0.376992
v 0.0102196 0.0246953 0.377266
v 0.0150504 0.0189679 0.3773
v 0.0161942 0.0215792 0.377309
v 0.0111206 0.0180716 0.377257
v 0.00922173 0.0238603 0.380492
v 0.0143587 0.0252171 0.380298
v -0.017636 -0.022153 0.377966
v -0.0162101 -0.0180251 0.378033
v -0.0122983 -0.0167679 0.378531
v -0.0117239 0.016712 0.378091
v -0.00373342 -0.0313809 0.391405
v -0.0011936 -0.0290107 0.392195
v -0.00382976 -0.0292453 0.392667
v -0.00134048 -0.0313808 0.391472
v -0.00351611 -0.0359034 0.398761
v -0.00123234 -0.0356526 0.399005
v 0.0206647 -0.019125 0.387234
v 0.0231003 -0.0176182 0.389282
v 0.0208409 -0.0177391 0.389354
v 0.0233264 -0.0194521 0.387598
v 0.0224324 -0.0236858 0.395829
v 0.00249527 0.0263677 0.394703
v 0.0160346 -0.0228836 0.398188
v 0.0160166 -0.0284591 0.405779
v 0.0276948 -0.0280394 0.404937
v 0.0278819 0.03056 0.410819
v 0.0161048 0.0314296 0.413992
v 0.0161138 0.0276933 0.404468
v 0.027907 0.023314 0.398205
v 0.0160767 -0.0315553 0.414862
v 0.0276842 -0.0314868 0.414305
v 0.0276323 0.0321558 0.420135
v 0.0161745 0.0316986 0.426478
v 0.0161824 -0.0316422 0.42735
v 0.0278339 -0.0319252 0.426078
v 0.0276997 0.0297901 0.433219
v 0.0163 0.0276396 0.436826
v 0.0163 -0.0276396 0.436826
v 0.0277 -0.0276396 0.436826
v 0.0276608 0.0230436 0.443089
v 0.0163392 -0.0230436 0.443089
v 0.027804 -0.0233463 0.442708
v 0.0275953 0.0147354 0.449307
v 0.0163077 0.015382 0.448938
v 0.0163979 -0.0150602 0.4491
v 0.0276822 -0.0156962 0.448724
v 0.0275704 0.0050879 0.452259
v 0.0164364 0.00563723 0.452328
v 0.016768 -0.00577179 0.452118
v 0.0275296 -0.0049074 0.452516
v 0.018399 -0.0283931 0.398604
v 0.0163516 -0.0299504 0.40517
v 0.0164968 -0.0289756 0.397395
v 0.0221664 -0.0296537 0.404849
v 0.0279382 -0.0297653 0.404974
v 0.0213701 -0.0298299 0.395107
v 0.0214366 -0.0289642 0.392505
v 0.0265003 -0.0291924 0.39652
v 0.0254151 -0.0277653 0.398379
v 0.0215432 -0.0239242 0.396751
v 0.0198408 -0.0257613 0.394924
v 0.0161329 -0.0255114 0.395246
v 0.0280121 -0.0229276 0.398089
v 0.023489 -0.0260575 0.394402
v 0.0275205 -0.0261904 0.39458
v 0.0212142 0.0267249 0.39383
v 0.0212274 0.0239675 0.396728
v 0.0164644 0.0263469 0.394512
v 0.0160037 0.0229181 0.398114
v 0.0209113 0.0293406 0.393164
v 0.0270368 0.0266479 0.394139
v 0.0240345 0.0248933 0.395717
v 0.0244428 0.0290149 0.395851
v 0.0189706 0.0289944 0.39637
v 0.0257408 0.0298721 0.39527
v 0.0163615 0.0335323 0.415329
v 0.0225191 0.0297888 0.405009
v 0.0158822 0.0285337 0.399814
v 0.0187007 0.0280209 0.400039
v 0.0278109 0.0337676 0.416449
v 0.0281792 0.0291223 0.403005
v 0.0258645 0.0280517 0.399048
v 0.0277702 -0.0335225 0.415298
v 0.0160813 0.0330872 0.427499
v 0.0278987 0.0329449 0.428348
v 0.0161861 -0.0337912 0.416428
v 0.027728 -0.032977 0.428217
v 0.0161708 0.0297385 0.436484
v 0.027923 0.0296436 0.436682
v 0.0163511 -0.0328545 0.428852
v 0.027898 -0.02985 0.436283
v 0.0161311 0.0241497 0.444593
v 0.0276678 0.0226937 0.445941
v 0.0160772 -0.0296444 0.436681
v 0.0278639 -0.0241748 0.44457
v 0.0160426 0.0132117 0.451762
v 0.0278372 0.0124118 0.452114
v 0.0163361 -0.022681 0.445954
v 0.0279912 -0.0132284 0.451755
v 0.0161368 0.00536673 0.453993
v 0.0277 0.0052271 0.453992
v 0.016133 -0.0123433 0.452135
v 0.0278258 -0.00290155 0.454446
v 0.0160948 -0.00229867 0.454392
v 0.0161961 0.0233463 0.442708
v 0.0221711 0.0250244 0.399626
v 0.0198171 -0.0257425 0.39919
v 0.0229691 -0.0249467 0.400009
v 0.00224323 0.0363029 0.414163
v -0.00647128 0.0363651 0.415853
v -0.00645554 0.0322504 0.402607
v 0.0024465 0.0319241 0.402583
v 0.0022 0.0363484 0.424985
v 0.00241782 0.0343596 0.433828
v -0.00650771 0.0359951 0.42879
v -0.00646607 0.0286063 0.444104
v -0.00744104 0.0300304 0.441147
v 0.00232139 0.0289986 0.443235
v 0.0021887 0.0207134 0.451073
v -0.00649271 0.0161748 0.453618
v 0.00215967 0.0107702 0.455728
v -0.00678118 0.0030073 0.457477
v 0.00238377 -0.00119322 0.457136
v -0.00747551 0.0367695 0.422659
v -0.00752356 0.0324211 0.403795
v -0.00746423 0.0184689 0.452317
v -0.00747122 0.0372307 0.412311
v -0.00393432 0.0371199 0.411152
v -0.00580495 0.0383375 0.402526
v 0.0024834 0.0371714 0.412089
v -0.00058096 0.0395351 0.399899
v -0.00687148 0.0375956 0.399947
v 2.755e-05 0.0372327 0.409747
v 0.00084157 0.0381165 0.402503
v 0.00244976 0.0380693 0.404466
v -0.00294069 0.0333222 0.40127
v -0.00412968 0.0367393 0.399525
v -0.0004195 0.0360548 0.399904
v 0.00235939 0.0355036 0.400203
v -0.0066722 -0.0318752 0.402628
v -0.00648927 -0.0347001 0.409244
v 0.00247922 -0.0319754 0.402549
v -0.00745778 -0.0361926 0.41838
v 0.00220227 -0.0360108 0.412805
v 0.00244978 -0.0357637 0.430126
v -0.00646479 -0.0367835 0.421079
v -0.00652416 -0.0344079 0.433459
v 0.00236801 -0.0281077 0.444665
v -0.00640462 -0.0272229 0.445713
v -0.00647361 -0.0159742 0.45371
v -0.00650664 -0.00359104 0.457285
v 0.00238889 -0.014595 0.454833
v -0.00732235 -0.0009741 0.456673
v -0.00739489 0.037913 0.425414
v 0.00237146 0.0378691 0.421499
v -0.00750578 -0.0372289 0.411925
v 0.00242612 -0.0371131 0.412415
v 0.00225966 -0.037918 0.425435
v 0.00230667 0.035783 0.434023
v -0.00742099 0.0338967 0.437713
v -0.0073137 -0.0377649 0.426841
v 0.0022 -0.0337863 0.437872
v -0.00742664 0.0293335 0.444907
v 0.00240271 0.027389 0.447367
v -0.00741907 -0.0337349 0.438032
v 0.0021523 -0.0291009 0.445183
v -0.00743974 0.018574 0.454205
v -0.00741572 -0.028594 0.445778
v 0.0022 -0.0222946 0.451349
v -0.00736276 -0.0212135 0.452134
v 0.00210578 -0.0118964 0.457013
v 0.00233612 0.0145615 0.45581
v -0.00743722 0.00327926 0.45863
v 0.00236893 0.00242108 0.458735
v -0.00742446 -0.00966739 0.45758
v -0.00595408 -0.0380658 0.402645
v -0.00561119 -0.0373702 0.408647
v -0.00743899 -0.0381165 0.404311
v -0.00212708 -0.0370265 0.411576
v -0.00233809 -0.0400849 0.39932
v -0.00096987 -0.038866 0.401373
v 0.00223314 -0.0379562 0.405517
v -0.0074923 -0.0323925 0.403193
v -0.0074488 -0.0353963 0.40031
v -0.00232915 -0.0332112 0.401421
v -0.00457316 -0.0361112 0.399861
v -0.00109065 -0.0365922 0.399454
v 0.00213536 -0.0362449 0.399801
v -0.00744046 -0.0345667 0.432085
v -0.00746416 -0.0272634 0.444522
v -0.00750822 -0.0169654 0.453086
v -0.00438231 -0.0338548 0.404011
v -9.599e-05 -0.034106 0.403518
v -0.00515573 0.034364 0.403613
v -0.00099601 0.0333571 0.404206
f 1 2 3
f 4 1 3
f 1 5 2
f 6 7 4
f 8 9 1
f 10 8 1
f 7 10 1
f 2 11 12
f 3 12 13
f 5 14 11
f 15 13 16
f 17 18 14
f 19 16 20
f 21 20 22
f 9 23 17
f 6 22 24
f 8 25 23
f 24 26 27
f 28 29 25
f 7 27 30
f 10 31 28
f 32 30 31
f 12 33 34
f 13 12 34
f 35 13 34
f 12 11 33
f 11 36 33
f 14 36 11
f 16 13 35
f 37 16 35
f 20 16 37
f 14 18 36
f 22 20 37
f 23 38 18
f 39 22 37
f 39 26 22
f 25 38 23
f 40 26 39
f 40 27 26
f 40 30 27
f 31 41 29
f 41 25 29
f 42 30 40
f 42 31 30
f 42 41 31
f 33 43 34
f 44 35 34
f 33 45 43
f 44 46 35
f 46 37 35
f 36 45 33
f 18 47 36
f 38 47 18
f 48 49 37
f 38 50 47
f 49 40 39
f 25 50 38
f 49 51 40
f 41 50 25
f 41 52 50
f 53 42 40
f 51 53 40
f 42 52 41
f 42 53 52
f 51 44 43
f 45 47 43
f 51 46 44
f 51 48 46
f 51 49 48
f 52 53 51
f 50 52 51
f 47 50 51
f 44 34 43
f 36 47 45
f 48 37 46
f 49 39 37
f 15 4 3
f 19 4 15
f 1 17 5
f 21 4 19
f 21 6 4
f 1 9 17
f 24 7 6
f 10 28 8
f 32 10 7
f 7 1 4
f 2 12 3
f 3 13 15
f 5 11 2
f 15 16 19
f 17 14 5
f 19 20 21
f 21 22 6
f 23 18 17
f 22 26 24
f 8 23 9
f 24 27 7
f 28 25 8
f 7 30 32
f 31 29 28
f 32 31 10
f 47 51 43
f 54 55 56
f 55 57 56
f 57 58 56
f 59 54 60
f 61 59 60
f 62 63 64
f 65 66 67
f 66 68 67
f 69 66 65
f 66 70 71
f 66 69 72
f 68 73 74
f 68 75 73
f 68 71 75
f 71 76 75
f 77 67 74
f 67 68 74
f 65 67 77
f 78 65 77
f 72 79 80
f 70 81 76
f 81 72 80
f 69 65 78
f 70 72 81
f 79 69 78
f 72 69 79
f 71 70 76
f 74 82 83
f 83 77 74
f 74 84 82
f 83 78 77
f 74 73 84
f 85 78 83
f 73 86 84
f 73 75 86
f 85 79 78
f 75 87 86
f 75 76 87
f 76 88 87
f 89 80 79
f 90 80 89
f 76 81 88
f 81 91 88
f 90 81 80
f 81 90 91
f 82 92 83
f 93 83 92
f 94 82 84
f 93 85 83
f 86 94 84
f 95 85 93
f 86 96 94
f 87 96 86
f 79 85 95
f 87 97 96
f 89 79 95
f 98 89 95
f 88 97 87
f 90 89 98
f 88 91 97
f 91 90 98
f 99 100 101
f 102 103 101
f 104 105 106
f 107 104 106
f 108 109 110
f 109 100 111
f 112 108 110
f 113 112 114
f 102 115 103
f 116 117 114
f 117 113 114
f 115 118 103
f 118 119 103
f 120 117 116
f 118 121 119
f 105 120 116
f 104 120 105
f 121 104 107
f 92 82 109
f 108 92 109
f 82 100 109
f 93 92 108
f 112 93 108
f 82 94 100
f 94 102 100
f 95 93 113
f 94 96 115
f 117 95 113
f 96 97 118
f 98 95 117
f 120 98 117
f 97 91 121
f 91 98 120
f 91 104 121
f 111 99 122
f 99 123 122
f 124 111 122
f 99 101 123
f 110 111 124
f 101 125 123
f 126 110 124
f 105 116 127
f 116 128 127
f 106 105 127
f 129 110 126
f 116 114 128
f 101 103 125
f 130 106 127
f 114 131 128
f 131 129 126
f 114 129 131
f 107 106 130
f 119 107 130
f 103 132 125
f 132 119 130
f 103 119 132
f 133 134 135
f 133 136 134
f 137 133 135
f 136 138 134
f 139 137 135
f 139 140 137
f 141 138 136
f 141 142 138
f 143 144 141
f 144 142 141
f 139 145 140
f 140 145 143
f 134 146 135
f 146 147 135
f 147 148 135
f 149 146 134
f 138 149 134
f 148 150 135
f 151 149 138
f 152 153 146
f 150 139 135
f 154 148 147
f 153 154 147
f 155 152 146
f 149 155 146
f 150 156 139
f 154 157 148
f 158 155 149
f 157 159 148
f 159 150 148
f 142 151 138
f 159 160 150
f 151 158 149
f 160 156 150
f 161 145 139
f 156 161 139
f 162 158 151
f 144 163 142
f 164 144 145
f 161 164 145
f 164 163 144
f 160 165 156
f 165 161 156
f 142 162 151
f 166 162 142
f 165 167 161
f 163 166 142
f 167 164 161
f 167 168 164
f 168 163 164
f 152 122 153
f 122 169 153
f 169 159 157
f 122 159 169
f 163 168 166
f 124 122 152
f 155 126 152
f 126 124 152
f 123 159 122
f 158 126 155
f 123 160 159
f 131 126 158
f 123 125 160
f 162 131 158
f 128 131 162
f 125 165 160
f 132 130 167
f 125 132 165
f 127 128 162
f 166 127 162
f 168 127 166
f 130 168 167
f 130 127 168
f 153 157 154
f 153 169 157
f 170 54 56
f 58 170 56
f 170 60 54
f 58 171 170
f 61 60 170
f 171 61 170
f 172 55 54
f 173 57 55
f 174 172 54
f 173 58 57
f 175 171 58
f 61 176 59
f 176 174 59
f 176 61 171
f 175 176 171
f 174 177 172
f 178 177 174
f 176 178 174
f 179 176 175
f 178 62 177
f 180 62 178
f 176 181 178
f 175 182 179
f 179 181 176
f 183 181 179
f 184 185 186
f 64 63 184
f 186 64 184
f 187 188 185
f 187 189 188
f 180 190 62
f 187 182 189
f 191 182 187
f 181 190 180
f 191 183 182
f 192 190 181
f 183 192 181
f 191 192 183
f 193 185 184
f 194 193 184
f 63 194 184
f 193 195 185
f 196 194 63
f 195 187 185
f 62 196 63
f 195 197 187
f 198 196 62
f 190 198 62
f 197 191 187
f 199 198 190
f 192 199 190
f 200 201 202
f 200 203 201
f 203 204 201
f 205 200 206
f 207 205 208
f 207 208 209
f 210 211 212
f 211 207 212
f 212 207 209
f 205 206 213
f 214 215 216
f 200 202 217
f 203 218 204
f 214 211 210
f 215 214 210
f 214 219 211
f 214 220 219
f 203 216 218
f 203 214 216
f 221 220 203
f 220 214 203
f 222 203 200
f 221 203 222
f 211 219 207
f 219 223 207
f 207 223 205
f 223 224 205
f 225 222 224
f 223 226 224
f 226 225 224
f 225 227 222
f 227 221 222
f 219 228 223
f 228 226 223
f 219 229 228
f 230 221 227
f 220 221 230
f 219 220 229
f 229 220 230
f 224 200 205
f 222 200 224
f 172 186 55
f 188 173 55
f 186 188 55
f 64 186 172
f 189 58 173
f 188 189 173
f 177 62 64
f 58 189 175
f 189 182 175
f 231 193 194
f 232 231 194
f 196 209 232
f 217 195 193
f 231 217 193
f 217 233 195
f 198 234 196
f 234 209 196
f 233 197 195
f 233 204 197
f 235 234 198
f 204 191 197
f 199 235 198
f 204 236 191
f 237 235 199
f 236 192 191
f 192 237 199
f 236 237 192
f 232 208 213
f 232 206 231
f 213 206 232
f 206 217 231
f 209 208 232
f 202 233 217
f 234 212 209
f 210 212 234
f 202 204 233
f 235 210 234
f 201 204 202
f 218 236 204
f 237 215 235
f 215 210 235
f 218 216 236
f 216 237 236
f 216 215 237
f 226 133 225
f 136 133 226
f 133 137 225
f 137 227 225
f 228 136 226
f 137 140 227
f 229 141 228
f 141 136 228
f 140 230 227
f 143 141 229
f 140 143 230
f 143 229 230
f 66 71 68
f 66 72 70
f 100 102 101
f 109 111 110
f 100 99 111
f 112 110 129
f 112 129 114
f 121 107 119
f 93 112 113
f 94 115 102
f 96 118 115
f 97 121 118
f 91 120 104
f 145 144 143
f 153 147 146
f 132 167 165
f 174 54 59
f 181 180 178
f 182 183 179
f 185 188 186
f 200 217 206
f 205 213 208
f 177 64 172
f 196 232 194
f 238 239 240
f 241 242 243
f 244 242 241
f 238 245 239
f 245 246 239
f 247 244 241
f 248 244 247
f 246 248 247
f 249 250 251
f 252 253 254
f 254 255 256
f 257 258 254
f 259 255 254
f 258 259 254
f 260 257 261
f 262 252 263
f 252 256 263
f 264 257 260
f 265 252 262
f 256 266 263
f 253 252 265
f 258 257 264
f 259 267 268
f 261 253 265
f 255 269 266
f 256 255 266
f 259 264 267
f 259 258 264
f 257 253 261
f 255 268 269
f 255 259 268
f 263 270 271
f 271 262 263
f 271 265 262
f 272 265 271
f 263 266 270
f 266 273 270
f 272 261 265
f 266 269 273
f 274 261 272
f 269 275 273
f 276 261 274
f 269 277 275
f 276 260 261
f 269 268 277
f 276 264 260
f 268 278 277
f 268 267 278
f 267 264 278
f 270 279 271
f 280 279 270
f 279 272 271
f 281 272 279
f 273 280 270
f 274 272 281
f 273 275 280
f 277 282 275
f 278 282 277
f 264 276 283
f 278 284 282
f 283 284 264
f 285 286 287
f 285 288 286
f 289 290 291
f 290 292 291
f 290 293 292
f 290 294 293
f 287 295 285
f 296 295 287
f 285 297 288
f 298 295 296
f 297 299 288
f 300 298 296
f 301 298 300
f 299 302 289
f 303 301 300
f 304 301 303
f 302 290 289
f 305 304 303
f 306 304 305
f 293 306 305
f 294 306 293
f 295 279 285
f 279 280 285
f 280 297 285
f 281 279 295
f 298 281 295
f 280 299 297
f 274 281 298
f 301 274 298
f 280 275 299
f 275 302 299
f 304 276 301
f 276 274 301
f 275 282 302
f 304 306 283
f 282 284 294
f 294 284 306
f 287 307 308
f 296 287 308
f 287 286 307
f 309 296 308
f 286 310 307
f 300 296 309
f 292 293 311
f 291 292 311
f 286 288 310
f 312 300 309
f 293 313 311
f 314 291 311
f 289 291 314
f 315 289 314
f 288 316 310
f 316 315 314
f 288 315 316
f 303 300 312
f 293 305 313
f 305 317 313
f 317 303 312
f 305 303 317
f 318 319 320
f 321 318 320
f 322 318 321
f 319 323 320
f 324 322 321
f 325 323 319
f 326 327 322
f 324 326 322
f 328 323 325
f 326 329 327
f 329 328 325
f 326 330 329
f 330 328 329
f 331 332 320
f 332 321 320
f 333 331 320
f 332 334 321
f 335 333 320
f 323 335 320
f 334 324 321
f 336 337 331
f 337 332 331
f 337 338 332
f 339 336 331
f 338 334 332
f 333 339 331
f 340 335 323
f 341 342 335
f 342 339 333
f 338 343 334
f 343 324 334
f 344 326 324
f 328 340 323
f 345 341 335
f 346 340 328
f 343 347 324
f 344 348 326
f 340 345 335
f 347 344 324
f 348 330 326
f 330 346 328
f 349 345 340
f 347 350 344
f 350 348 344
f 346 349 340
f 351 349 346
f 352 330 348
f 330 351 346
f 352 351 330
f 353 337 336
f 308 337 353
f 342 308 353
f 341 308 342
f 350 352 348
f 307 338 337
f 308 307 337
f 307 310 338
f 310 343 338
f 309 308 341
f 316 314 347
f 310 316 343
f 345 312 341
f 312 309 341
f 349 312 345
f 314 350 347
f 317 312 349
f 314 311 350
f 351 317 349
f 311 352 350
f 313 317 351
f 311 351 352
f 311 313 351
f 342 336 339
f 342 353 336
f 240 354 243
f 239 354 240
f 354 241 243
f 247 241 354
f 246 247 354
f 239 246 354
f 355 240 243
f 242 356 243
f 244 356 242
f 357 356 244
f 358 245 238
f 359 357 248
f 360 246 245
f 358 360 245
f 360 359 248
f 356 361 355
f 357 361 356
f 359 362 357
f 358 363 360
f 238 364 358
f 358 365 366
f 359 249 362
f 363 366 360
f 367 249 359
f 367 359 360
f 368 369 370
f 371 369 368
f 369 372 370
f 372 373 370
f 364 371 368
f 374 364 368
f 251 373 372
f 365 364 374
f 250 373 251
f 375 365 374
f 366 365 375
f 376 366 375
f 367 250 249
f 376 367 366
f 376 250 367
f 377 368 370
f 378 377 370
f 377 379 368
f 373 378 370
f 380 378 373
f 379 374 368
f 381 380 373
f 250 381 373
f 382 381 250
f 383 376 375
f 384 382 250
f 376 384 250
f 383 384 376
f 385 386 387
f 386 388 389
f 385 388 386
f 390 385 391
f 392 390 393
f 394 392 393
f 395 396 397
f 396 392 397
f 397 392 394
f 398 390 391
f 385 387 399
f 388 400 389
f 401 396 395
f 402 396 401
f 403 396 402
f 388 404 400
f 388 401 404
f 405 402 388
f 402 401 388
f 406 388 385
f 405 388 406
f 396 407 392
f 396 403 407
f 407 408 390
f 392 407 390
f 408 409 406
f 409 410 406
f 410 405 406
f 407 411 408
f 411 409 408
f 410 412 405
f 412 402 405
f 413 402 412
f 407 414 411
f 403 402 413
f 407 403 414
f 414 403 413
f 390 408 385
f 408 406 385
f 371 240 355
f 369 371 355
f 361 369 355
f 372 369 361
f 357 251 372
f 362 251 357
f 249 251 362
f 240 371 238
f 371 364 238
f 378 399 377
f 399 415 377
f 416 399 378
f 415 379 377
f 378 380 416
f 415 389 379
f 389 374 379
f 380 381 417
f 389 418 374
f 418 375 374
f 394 417 381
f 382 394 381
f 418 419 375
f 419 383 375
f 384 420 382
f 420 394 382
f 419 421 383
f 421 384 383
f 421 420 384
f 417 393 398
f 387 415 399
f 391 399 416
f 398 391 416
f 387 389 415
f 386 389 387
f 400 418 389
f 394 393 417
f 404 418 400
f 404 419 418
f 420 397 394
f 395 421 419
f 404 395 419
f 395 397 420
f 421 395 420
f 409 318 410
f 318 322 410
f 319 318 409
f 322 412 410
f 411 319 409
f 325 319 411
f 322 327 412
f 327 413 412
f 414 325 411
f 327 329 413
f 329 414 413
f 329 325 414
f 252 254 256
f 257 254 253
f 284 278 264
f 299 315 288
f 299 289 315
f 282 290 302
f 304 283 276
f 282 294 290
f 284 283 306
f 342 333 335
f 316 347 343
f 356 355 243
f 357 244 248
f 360 248 246
f 364 365 358
f 358 366 363
f 366 367 360
f 385 399 391
f 390 398 393
f 401 395 404
f 357 372 361
f 380 398 416
f 380 417 398
f 422 423 424
f 423 425 424
f 426 427 428
f 425 426 428
f 429 423 422
f 430 431 422
f 427 432 428
f 432 433 428
f 432 434 433
f 434 435 433
f 435 436 433
f 437 431 430
f 438 437 430
f 435 439 436
f 440 437 438
f 441 442 429
f 443 442 441
f 444 445 446
f 447 443 448
f 449 444 450
f 444 451 450
f 444 452 451
f 445 444 449
f 453 442 454
f 442 447 454
f 455 456 457
f 458 459 457
f 459 455 457
f 456 460 461
f 460 462 461
f 451 459 458
f 460 453 462
f 463 464 465
f 466 467 468
f 469 467 466
f 470 469 466
f 471 472 464
f 457 461 424
f 424 458 457
f 462 473 461
f 458 471 464
f 430 462 469
f 470 430 469
f 424 471 458
f 430 473 462
f 474 475 476
f 474 477 475
f 478 479 480
f 481 478 480
f 482 483 476
f 484 483 482
f 484 485 483
f 479 486 470
f 487 486 479
f 488 487 479
f 489 487 488
f 483 474 476
f 485 474 483
f 478 488 479
f 489 488 478
f 490 447 491
f 447 438 491
f 436 492 493
f 445 492 436
f 494 495 496
f 497 498 499
f 495 500 496
f 501 498 497
f 501 502 498
f 503 500 495
f 504 500 503
f 501 505 502
f 504 506 500
f 506 507 500
f 508 509 501
f 509 505 501
f 506 510 507
f 511 509 508
f 512 511 508
f 511 513 509
f 514 510 506
f 510 515 507
f 516 511 512
f 510 517 515
f 518 516 512
f 517 519 515
f 481 516 518
f 477 519 517
f 520 481 518
f 474 519 477
f 520 521 481
f 521 478 481
f 522 519 474
f 522 523 519
f 524 521 520
f 522 525 523
f 526 523 525
f 526 527 523
f 528 524 529
f 530 528 529
f 526 531 527
f 530 531 528
f 531 530 527
f 532 533 534
f 535 536 534
f 537 495 536
f 538 539 540
f 541 542 538
f 542 539 538
f 539 543 540
f 539 544 543
f 545 543 544
f 546 545 544
f 541 546 542
f 547 545 546
f 541 547 546
f 548 549 550
f 549 551 550
f 552 553 554
f 553 555 556
f 550 557 558
f 559 554 556
f 560 561 562
f 561 563 564
f 565 566 567
f 566 568 569
f 563 561 560
f 570 566 565
f 568 566 570
f 571 568 570
f 572 573 574
f 575 576 577
f 576 572 577
f 578 576 575
f 578 579 576
f 580 581 582
f 583 584 582
f 581 583 582
f 585 581 580
f 586 584 583
f 587 588 589
f 590 591 592
f 587 593 588
f 594 591 590
f 594 595 591
f 587 596 593
f 595 597 591
f 598 599 595
f 577 600 596
f 600 601 596
f 602 577 596
f 599 582 597
f 582 603 597
f 604 599 598
f 605 575 602
f 575 577 602
f 584 603 582
f 578 575 605
f 584 606 603
f 607 578 605
f 584 468 608
f 607 609 578
f 607 610 609
f 611 610 607
f 468 612 608
f 612 613 608
f 613 614 608
f 615 611 607
f 616 615 607
f 617 614 613
f 617 616 614
f 615 616 617
f 492 618 493
f 619 482 618
f 619 484 482
f 620 484 619
f 492 620 618
f 621 484 620
f 492 621 620
f 622 491 486
f 622 490 491
f 623 622 486
f 487 623 486
f 624 623 487
f 487 625 624
f 626 490 622
f 625 626 624
f 625 490 626
f 627 628 499
f 498 627 499
f 629 630 631
f 632 629 631
f 633 632 631
f 634 632 633
f 635 630 629
f 634 636 635
f 636 630 635
f 548 637 638
f 549 548 638
f 639 549 638
f 640 641 638
f 642 600 643
f 643 644 642
f 604 645 599
f 646 647 604
f 640 567 641
f 567 648 641
f 649 549 639
f 567 646 648
f 642 601 600
f 642 649 601
f 646 650 647
f 547 555 644
f 630 647 650
f 630 636 647
f 651 652 653
f 652 654 503
f 502 655 656
f 558 657 658
f 658 659 558
f 660 571 661
f 570 658 661
f 571 570 661
f 558 662 657
f 651 662 663
f 571 660 656
f 664 571 655
f 665 664 655
f 652 666 654
f 667 666 652
f 667 540 666
f 496 668 669
f 670 671 672
f 671 497 672
f 673 674 496
f 674 668 496
f 674 675 668
f 676 673 496
f 677 676 496
f 678 679 497
f 671 678 497
f 670 592 680
f 681 668 675
f 682 679 678
f 683 681 675
f 679 684 497
f 676 683 673
f 680 685 682
f 685 679 682
f 676 681 683
f 592 685 680
f 686 687 677
f 687 688 677
f 688 676 677
f 679 689 684
f 688 690 676
f 690 691 681
f 685 692 679
f 692 689 679
f 693 692 685
f 689 694 684
f 695 691 690
f 686 695 687
f 696 684 694
f 686 697 695
f 698 691 695
f 699 694 693
f 685 699 693
f 699 696 694
f 697 698 695
f 700 699 603
f 701 702 697
f 702 691 698
f 703 696 699
f 700 703 699
f 702 605 691
f 704 700 603
f 606 704 603
f 705 605 702
f 706 605 705
f 707 708 697
f 708 701 697
f 703 709 696
f 707 710 705
f 708 707 705
f 711 712 704
f 606 711 704
f 712 709 703
f 713 714 711
f 711 709 712
f 710 715 706
f 715 716 706
f 717 709 711
f 714 718 711
f 718 717 711
f 719 720 721
f 721 714 713
f 722 723 716
f 723 724 716
f 724 725 716
f 725 719 716
f 726 720 719
f 725 726 719
f 707 727 710
f 728 727 707
f 729 717 718
f 720 730 721
f 728 723 722
f 727 728 722
f 730 717 729
f 723 731 724
f 732 720 726
f 728 733 723
f 733 731 723
f 732 730 720
f 733 730 732
f 733 732 731
f 426 734 735
f 735 432 427
f 452 734 426
f 448 736 737
f 440 737 437
f 736 448 443
f 738 434 432
f 738 444 434
f 444 738 452
f 739 439 435
f 739 446 439
f 446 739 444
f 740 441 741
f 740 741 437
f 437 741 431
f 740 443 441
f 742 429 743
f 431 744 422
f 431 743 744
f 742 441 429
f 426 735 427
f 452 738 432
f 444 739 435
f 448 737 440
f 447 448 440
f 438 447 440
f 736 443 437
f 737 736 437
f 443 740 437
f 741 441 431
f 441 742 431
f 744 429 422
f 743 429 744
f 735 734 432
f 734 452 432
f 444 435 434
f 446 436 439
f 446 445 436
f 745 506 746
f 543 745 746
f 545 745 543
f 745 644 506
f 545 547 745
f 547 644 745
f 666 504 654
f 543 666 540
f 666 746 504
f 543 746 666
f 746 506 504
f 747 748 509
f 747 749 748
f 749 750 748
f 749 636 750
f 647 749 747
f 647 636 749
f 505 751 665
f 751 633 665
f 748 751 505
f 748 633 751
f 509 748 505
f 748 750 633
f 469 752 467
f 462 453 469
f 453 752 469
f 753 464 463
f 753 451 464
f 451 458 464
f 467 754 468
f 752 754 467
f 754 612 468
f 754 755 612
f 755 613 612
f 755 528 613
f 526 756 610
f 611 526 610
f 610 756 609
f 756 463 609
f 756 753 463
f 615 757 611
f 757 526 611
f 528 758 613
f 758 617 613
f 759 757 615
f 758 759 617
f 759 615 617
f 760 526 757
f 528 761 758
f 531 526 760
f 531 760 761
f 528 531 761
f 714 762 763
f 763 718 714
f 714 721 762
f 721 764 762
f 763 729 718
f 721 729 764
f 764 729 763
f 764 763 762
f 710 765 766
f 766 715 710
f 710 727 765
f 766 722 715
f 727 767 765
f 767 722 766
f 767 727 722
f 767 766 765
f 688 768 769
f 769 690 688
f 688 687 768
f 769 695 690
f 687 695 768
f 692 770 689
f 771 694 689
f 692 693 770
f 693 694 771
f 771 689 770
f 693 771 770
f 695 769 768
f 485 522 474
f 485 772 522
f 772 525 522
f 521 489 478
f 524 489 521
f 773 772 485
f 484 773 485
f 621 773 484
f 449 772 773
f 621 449 773
f 445 449 621
f 450 753 772
f 753 525 772
f 449 450 772
f 489 774 487
f 454 774 489
f 454 775 774
f 454 489 524
f 514 506 644
f 513 747 509
f 513 647 747
f 657 639 638
f 641 661 776
f 641 648 661
f 777 778 639
f 648 660 661
f 648 779 660
f 649 639 778
f 648 604 779
f 601 777 593
f 601 778 777
f 601 649 778
f 598 595 594
f 660 779 594
f 604 598 779
f 555 538 556
f 555 541 538
f 630 563 631
f 630 564 563
f 640 659 565
f 640 637 659
f 780 781 782
f 783 784 663
f 781 569 568
f 782 781 568
f 780 782 560
f 558 659 637
f 551 663 557
f 551 783 663
f 784 783 559
f 785 786 787
f 788 786 785
f 787 789 785
f 789 539 785
f 542 785 539
f 786 544 787
f 544 789 787
f 542 788 785
f 546 788 542
f 788 546 786
f 546 544 786
f 789 544 539
f 790 791 792
f 790 793 791
f 619 790 792
f 618 790 619
f 791 794 792
f 794 619 792
f 618 793 790
f 795 793 618
f 620 794 791
f 795 791 793
f 620 791 795
f 794 620 619
f 620 795 618
f 673 796 674
f 796 797 674
f 798 675 674
f 799 675 798
f 799 796 673
f 799 683 675
f 683 799 673
f 797 796 800
f 801 799 798
f 800 535 797
f 535 533 797
f 796 802 800
f 802 535 800
f 533 798 797
f 803 798 533
f 803 801 798
f 796 537 802
f 803 804 801
f 799 537 796
f 804 537 801
f 537 799 801
f 805 806 671
f 806 678 671
f 807 678 806
f 680 805 671
f 807 682 678
f 808 682 807
f 808 805 680
f 808 680 682
f 806 805 809
f 810 808 807
f 809 811 806
f 811 628 806
f 628 807 806
f 805 812 809
f 812 811 809
f 627 807 628
f 627 810 807
f 805 813 812
f 808 813 805
f 627 813 810
f 813 808 810
f 814 703 700
f 704 815 700
f 815 814 700
f 816 703 814
f 817 815 704
f 712 817 704
f 816 712 703
f 817 712 816
f 814 815 818
f 819 817 816
f 818 581 814
f 583 581 818
f 820 814 581
f 820 816 814
f 815 583 818
f 586 583 815
f 821 819 816
f 820 821 816
f 817 586 815
f 817 466 586
f 819 466 817
f 479 470 466
f 466 819 821
f 724 757 725
f 757 759 725
f 759 726 725
f 758 726 759
f 731 760 724
f 760 757 724
f 758 761 726
f 761 760 731
f 701 822 702
f 822 823 702
f 824 702 823
f 824 705 702
f 825 705 824
f 708 822 701
f 825 708 705
f 825 822 708
f 823 822 826
f 827 828 829
f 572 829 823
f 830 572 823
f 826 830 823
f 576 829 572
f 826 831 830
f 822 831 826
f 579 827 829
f 576 579 829
f 465 827 579
f 828 831 822
f 828 475 831
f 465 828 827
f 472 828 465
f 476 472 482
f 476 475 828
f 472 476 828
f 832 833 672
f 497 832 672
f 497 499 832
f 833 670 672
f 834 592 670
f 833 834 670
f 834 590 592
f 532 534 669
f 494 496 669
f 534 494 669
f 668 532 669
f 668 835 532
f 589 835 668
f 500 677 496
f 684 501 497
f 507 677 500
f 684 508 501
f 507 686 677
f 684 512 508
f 507 515 686
f 515 697 686
f 696 512 684
f 696 518 512
f 515 519 697
f 519 707 697
f 709 518 696
f 717 518 709
f 717 520 518
f 519 523 707
f 523 728 707
f 717 529 520
f 730 529 717
f 523 527 728
f 527 733 728
f 730 530 529
f 733 530 730
f 527 530 733
f 681 589 668
f 587 589 681
f 691 587 681
f 591 685 592
f 596 587 691
f 597 685 591
f 691 602 596
f 603 685 597
f 691 605 602
f 608 713 606
f 706 607 605
f 614 713 608
f 716 607 706
f 716 616 607
f 719 713 614
f 616 719 614
f 719 616 716
f 425 423 455
f 423 456 455
f 429 456 423
f 480 479 466
f 586 468 584
f 466 468 586
f 609 579 578
f 609 465 579
f 463 465 609
f 481 480 821
f 821 480 466
f 477 831 475
f 645 580 599
f 580 582 599
f 574 643 600
f 577 574 600
f 830 573 572
f 831 573 830
f 585 820 581
f 585 821 820
f 499 628 811
f 812 834 811
f 590 834 812
f 813 590 812
f 798 674 797
f 533 535 534
f 802 536 535
f 835 803 532
f 803 533 532
f 537 536 802
f 835 804 803
f 829 824 823
f 829 825 824
f 828 825 829
f 825 828 822
f 498 813 627
f 502 813 498
f 502 656 813
f 804 653 537
f 653 503 537
f 537 503 495
f 505 665 655
f 502 505 655
f 811 833 832
f 499 811 832
f 811 834 833
f 656 594 813
f 594 590 813
f 660 594 656
f 657 776 658
f 776 661 658
f 777 657 662
f 593 777 651
f 651 777 662
f 588 651 653
f 588 593 651
f 835 588 804
f 588 653 804
f 536 494 534
f 536 495 494
f 654 504 503
f 836 837 838
f 836 839 837
f 632 836 838
f 840 836 632
f 837 629 838
f 629 632 838
f 840 839 836
f 841 839 840
f 635 629 837
f 841 837 839
f 635 837 841
f 634 840 632
f 634 841 840
f 635 841 634
f 842 843 844
f 845 843 842
f 844 622 842
f 622 623 842
f 624 842 623
f 843 846 844
f 846 622 844
f 624 845 842
f 626 846 843
f 626 845 624
f 845 626 843
f 626 622 846
f 429 460 456
f 442 453 429
f 455 459 425
f 451 426 459
f 451 452 426
f 573 510 574
f 573 517 510
f 831 477 573
f 477 517 573
f 643 574 510
f 514 643 510
f 514 644 643
f 645 513 511
f 645 647 513
f 511 580 645
f 511 516 580
f 516 585 580
f 481 821 585
f 516 481 585
f 541 555 547
f 667 538 540
f 642 553 552
f 642 847 553
f 847 555 553
f 556 538 667
f 783 642 552
f 649 783 551
f 649 642 783
f 556 667 652
f 559 556 652
f 549 649 551
f 663 784 652
f 784 559 652
f 557 663 662
f 569 646 567
f 781 646 569
f 558 557 662
f 780 646 781
f 562 650 780
f 650 646 780
f 564 630 562
f 630 650 562
f 565 659 658
f 636 634 750
f 570 565 658
f 633 631 665
f 750 634 633
f 631 664 665
f 782 568 571
f 631 563 664
f 560 782 571
f 664 560 571
f 563 560 664
f 493 482 472
f 492 445 621
f 436 493 472
f 473 422 424
f 428 471 424
f 430 422 473
f 433 472 471
f 428 433 471
f 470 438 430
f 433 436 472
f 491 438 470
f 447 442 443
f 486 491 470
f 774 625 487
f 775 625 774
f 775 490 625
f 775 447 490
f 450 451 753
f 453 454 752
f 526 525 756
f 524 755 754
f 524 528 755
f 754 752 524
f 525 753 756
f 425 428 424
f 447 775 454
f 456 461 457
f 464 472 465
f 461 473 424
f 524 520 529
f 548 550 558
f 551 557 550
f 552 554 559
f 553 556 554
f 560 562 780
f 561 564 562
f 565 567 640
f 566 569 567
f 572 574 577
f 588 835 589
f 596 601 593
f 599 597 595
f 584 608 606
f 482 493 618
f 637 640 638
f 644 847 642
f 647 645 604
f 646 604 648
f 555 847 644
f 652 503 653
f 655 571 656
f 651 663 652
f 670 680 671
f 690 681 676
f 699 685 603
f 702 698 697
f 710 706 705
f 713 711 606
f 719 721 713
f 722 716 715
f 730 729 721
f 742 743 431
f 657 638 776
f 641 776 638
f 777 639 657
f 779 598 594
f 558 637 548
f 783 552 559
f 761 732 726
f 761 731 732
f 453 460 429
f 459 426 425
f 752 454 524
f 848 849 850
f 851 852 853
f 854 851 853
f 849 855 856
f 857 858 852
f 851 857 852
f 855 859 860
f 857 861 858
f 861 862 858
f 859 863 864
f 861 865 862
f 863 866 867
f 865 868 869
f 866 870 871
f 868 872 873
f 870 874 871
f 872 875 873
f 876 877 878
f 876 879 877
f 879 880 877
f 881 876 878
f 882 883 881
f 884 880 879
f 883 880 884
f 882 881 878
f 885 886 848
f 886 887 848
f 888 885 848
f 886 882 887
f 889 882 886
f 890 882 889
f 888 889 885
f 888 890 889
f 891 892 893
f 892 854 894
f 895 891 893
f 896 891 895
f 897 854 892
f 896 897 891
f 896 854 897
f 898 895 899
f 898 900 895
f 901 902 903
f 902 904 903
f 901 905 902
f 904 899 903
f 899 895 903
f 906 907 902
f 907 900 898
f 906 900 907
f 877 880 908
f 909 910 905
f 911 908 912
f 913 914 910
f 915 912 916
f 917 918 914
f 919 916 920
f 921 922 918
f 923 920 924
f 925 926 922
f 927 924 928
f 929 928 926
f 906 854 896
f 905 851 906
f 910 851 905
f 867 920 916
f 894 903 893
f 849 848 887
f 878 849 887
f 853 903 894
f 853 852 903
f 911 855 849
f 859 855 911
f 930 917 913
f 929 925 921
f 902 931 904
f 902 907 931
f 904 931 899
f 907 898 931
f 899 892 891
f 931 892 899
f 931 897 892
f 898 899 891
f 897 898 891
f 898 897 931
f 932 879 876
f 933 879 932
f 884 879 933
f 881 932 876
f 884 933 932
f 883 884 881
f 885 932 886
f 881 886 932
f 881 889 886
f 884 932 885
f 884 889 881
f 889 884 885
f 882 878 887
f 890 883 882
f 880 883 890
f 888 880 890
f 900 896 895
f 906 896 900
f 895 893 903
f 860 912 908
f 860 916 912
f 928 922 926
f 878 877 849
f 852 901 903
f 877 911 849
f 909 901 852
f 915 859 911
f 915 919 859
f 850 880 888
f 906 851 854
f 856 908 850
f 908 880 850
f 860 908 856
f 851 910 857
f 910 861 857
f 910 914 861
f 864 916 860
f 914 865 861
f 867 916 864
f 914 918 865
f 918 868 865
f 871 920 867
f 924 920 871
f 918 922 868
f 922 872 868
f 875 924 871
f 928 924 875
f 922 928 872
f 928 875 872
f 852 858 909
f 858 913 909
f 863 859 919
f 862 930 913
f 858 862 913
f 866 863 919
f 923 866 919
f 870 866 923
f 869 921 917
f 930 869 917
f 927 870 923
f 874 870 927
f 873 929 921
f 869 873 921
f 929 874 927
f 873 874 929
f 854 853 894
f 848 850 888
f 849 856 850
f 855 860 856
f 859 864 860
f 865 930 862
f 863 867 864
f 865 869 930
f 866 871 867
f 868 873 869
f 874 875 871
f 875 874 873
f 892 894 893
f 905 906 902
f 877 908 911
f 909 905 901
f 911 912 915
f 913 910 909
f 915 916 919
f 917 914 913
f 919 920 923
f 921 918 917
f 923 924 927
f 925 922 921
f 927 928 929
f 929 926 925
f 934 935 936
f 937 934 936
f 934 938 935
f 938 939 940
f 941 942 939
f 939 943 941
f 944 945 941
f 943 944 941
f 946 947 945
f 944 946 945
f 946 948 947
f 936 949 950
f 936 935 949
f 935 940 949
f 940 942 949
f 941 951 942
f 941 945 951
f 945 947 951
f 952 953 954
f 955 953 952
f 954 956 957
f 955 958 953
f 959 956 954
f 960 956 959
f 955 960 958
f 961 936 957
f 962 961 957
f 961 937 936
f 956 962 957
f 956 963 962
f 963 964 961
f 964 937 961
f 956 964 963
f 965 966 967
f 966 968 969
f 970 969 971
f 972 970 971
f 973 970 972
f 974 973 972
f 974 975 973
f 976 977 975
f 948 977 976
f 978 948 976
f 979 980 952
f 981 982 983
f 984 980 979
f 985 984 979
f 986 983 987
f 988 989 985
f 990 987 991
f 992 989 988
f 993 991 994
f 995 994 996
f 997 989 992
f 998 997 992
f 999 997 998
f 1000 996 999
f 1001 1002 1003
f 1002 981 1003
f 1002 1004 981
f 1004 982 981
f 1005 1001 1003
f 1006 1001 1005
f 1005 1007 1006
f 1007 982 1004
f 1008 965 1009
f 965 1010 1009
f 1010 1011 1009
f 1011 1005 1009
f 967 1010 965
f 1012 1005 1011
f 1013 1005 1012
f 1010 967 1013
f 960 937 964
f 967 1007 1013
f 960 955 937
f 982 1007 967
f 980 934 955
f 999 977 948
f 1003 1008 1009
f 981 1008 1003
f 950 952 957
f 949 952 950
f 981 968 1008
f 979 952 949
f 986 968 981
f 986 1014 968
f 985 979 949
f 942 985 949
f 990 1014 986
f 988 985 942
f 990 1015 1014
f 993 1015 990
f 942 951 988
f 993 995 1015
f 1000 1016 995
f 998 992 951
f 1000 978 1016
f 1000 998 978
f 960 964 956
f 1013 1007 1005
f 1005 1003 1009
f 1008 966 965
f 968 966 1008
f 1014 971 968
f 972 971 1014
f 1014 1015 972
f 975 974 1015
f 1016 975 1015
f 976 975 1016
f 978 976 1016
f 1017 1001 1011
f 1010 1017 1011
f 1001 1012 1011
f 1006 1012 1001
f 1018 1017 1010
f 1018 1012 1006
f 1012 1018 1010
f 1017 1002 1001
f 1017 1004 1002
f 1018 1004 1017
f 1007 1004 1018
f 1007 1018 1006
f 954 961 962
f 1019 961 954
f 959 954 962
f 963 959 962
f 1020 961 1019
f 1020 963 961
f 959 963 1020
f 953 1019 954
f 953 1020 1019
f 953 958 1020
f 959 1020 958
f 947 948 978
f 939 980 984
f 970 987 983
f 989 939 984
f 973 991 987
f 970 973 987
f 943 939 989
f 973 994 991
f 977 996 994
f 973 977 994
f 977 999 996
f 952 954 957
f 969 982 967
f 983 982 969
f 970 983 969
f 998 947 978
f 937 955 934
f 980 938 934
f 980 939 938
f 943 989 944
f 989 997 944
f 997 946 944
f 997 999 946
f 999 948 946
f 951 947 998
f 957 936 950
f 938 940 935
f 942 940 939
f 960 959 958
f 966 969 967
f 968 971 969
f 975 977 973
f 980 955 952
f 981 983 986
f 986 987 990
f 989 984 985
f 990 991 993
f 993 994 995
f 995 996 1000
f 1000 999 998
f 1010 1013 1012
f 951 992 988
f 995 1016 1015
f 1015 974 972
