v 0.419478 -0.0344683 0.0245
v 0.419478 -0.0344683 -0.0245
v 0.4134 -0.035 0.0245
v 0.425371 -0.0328892 -0.0245
v 0.425371 -0.0328892 0.0245
v 0.4309 -0.0303109 -0.0245
v 0.4309 -0.0303109 0.0245
v 0.435898 -0.0268116 -0.0245
v 0.435898 -0.0268116 0.0245
v 0.440212 -0.0224976 -0.0245
v 0.440212 -0.0224976 0.0245
v 0.443711 -0.0175 -0.0245
v 0.443711 -0.0175 0.0245
v 0.446289 -0.0119707 -0.0245
v 0.446289 -0.0119707 0.0245
v 0.447868 -0.00607769 -0.0245
v 0.447868 -0.00607769 0.0245
v 0.4484 0 -0.0245
v 0.4484 0 0.0245
v 0.447868 0.00607769 -0.0245
v 0.447868 0.00607769 0.0245
v 0.446289 0.0119707 -0.0245
v 0.446289 0.0119707 0.0245
v 0.443711 0.0175 -0.0245
v 0.443711 0.0175 0.0245
v 0.440212 0.0224976 -0.0245
v 0.440212 0.0224976 0.0245
v 0.435898 0.0268116 -0.0245
v 0.435898 0.0268116 0.0245
v 0.4309 0.0303109 -0.0245
v 0.4309 0.0303109 0.0245
v 0.425371 0.0328892 -0.0245
v 0.425371 0.0328892 0.0245
v 0.419478 0.0344683 -0.0245
v 0.419478 0.0344683 0.0245
v 0.4134 0.035 -0.0245
v 0.4134 0.035 0.0245
v 0.3764 0.035 -0.0245
v 0.3764 0.035 0.0245
v 0.3694 0.035 -0.0175
v 0.373721 0.035 -0.0239672
v 0.3694 0.035 0.0175
v 0.373721 0.035 0.0239672
v 0.37145 0.035 -0.0224498
v 0.37145 0.035 0.0224498
v 0.369933 0.035 0.0201788
v 0.369933 0.035 -0.0201788
v 0.3694 0.0365 -0.0175
v 0.3694 0.0365 0.0175
v 0.3764 0.0365 -0.0245
v 0.3764 0.0365 0.0245
v 0.4134 0.0365 -0.0245
v 0.4134 0.0365 0.0245
v 0.373721 0.0365 -0.0239672
v 0.369933 0.0365 0.0201788
v 0.373721 0.0365 0.0239672
v 0.37145 0.0365 -0.0224498
v 0.369933 0.0365 -0.0201788
v 0.37145 0.0365 0.0224498
v 0.419738 -0.0359455 -0.0245
v 0.4134 -0.0365 0.0245
v 0.4134 -0.0365 -0.0245
v 0.419738 -0.0359455 0.0245
v 0.425884 -0.0342988 -0.0245
v 0.425884 -0.0342988 0.0245
v 0.43165 -0.0316099 -0.0245
v 0.43165 -0.0316099 0.0245
v 0.436862 -0.0279606 -0.0245
v 0.436862 -0.0279606 0.0245
v 0.441361 -0.0234617 -0.0245
v 0.441361 -0.0234617 0.0245
v 0.44501 -0.01825 -0.0245
v 0.44501 -0.01825 0.0245
v 0.447699 -0.0124837 -0.0245
v 0.447699 -0.0124837 0.0245
v 0.449346 -0.00633816 -0.0245
v 0.449346 -0.00633816 0.0245
v 0.4499 0 -0.0245
v 0.4499 0 0.0245
v 0.449346 0.00633816 -0.0245
v 0.449346 0.00633816 0.0245
v 0.447699 0.0124837 -0.0245
v 0.447699 0.0124837 0.0245
v 0.44501 0.01825 -0.0245
v 0.44501 0.01825 0.0245
v 0.441361 0.0234617 -0.0245
v 0.441361 0.0234617 0.0245
v 0.436862 0.0279606 -0.0245
v 0.436862 0.0279606 0.0245
v 0.43165 0.0316099 -0.0245
v 0.43165 0.0316099 0.0245
v 0.425884 0.0342988 -0.0245
v 0.425884 0.0342988 0.0245
v 0.419738 0.0359455 -0.0245
v 0.419738 0.0359455 0.0245
v 0.3764 -0.0365 -0.0245
v 0.3694 -0.0365 0.0175
v 0.3764 -0.0365 0.0245
v 0.3694 -0.0365 -0.0175
v 0.373721 -0.0365 -0.0239672
v 0.373721 -0.0365 0.0239672
v 0.37145 -0.0365 -0.0224498
v 0.37145 -0.0365 0.0224498
v 0.369933 -0.0365 0.0201788
v 0.369933 -0.0365 -0.0201788
v 0.3694 -0.035 -0.0175
v 0.3694 -0.035 0.0175
v 0.3764 -0.035 -0.0245
v 0.3764 -0.035 0.0245
v 0.4134 -0.035 -0.0245
v 0.373721 -0.035 -0.0239672
v 0.369933 -0.035 0.0201788
v 0.373721 -0.035 0.0239672
v 0.37145 -0.035 -0.0224498
v 0.369933 -0.035 -0.0201788
v 0.37145 -0.035 0.0224498
v -0.00643124 0.0344041 0.0245
v -0.00643124 0.0344041 -0.0245
v 0 0.035 0.0245
v -0.0126435 0.0326365 -0.0245
v -0.0126435 0.0326365 0.0245
v -0.0184251 0.0297576 -0.0245
v -0.0184251 0.0297576 0.0245
v -0.0235793 0.0258653 -0.0245
v -0.0235793 0.0258653 0.0245
v -0.0279306 0.0210922 -0.0245
v -0.0279306 0.0210922 0.0245
v -0.0313307 0.0156008 -0.0245
v -0.0313307 0.0156008 0.0245
v -0.0336639 0.00957821 -0.0245
v -0.0336639 0.00957821 0.0245
v -0.0348507 0.00322939 -0.0245
v -0.0348507 0.00322939 0.0245
v -0.0348507 -0.00322939 -0.0245
v -0.0348507 -0.00322939 0.0245
v -0.0336639 -0.00957821 -0.0245
v -0.0336639 -0.00957821 0.0245
v -0.0313307 -0.0156008 -0.0245
v -0.0313307 -0.0156008 0.0245
v -0.0279306 -0.0210922 -0.0245
v -0.0279306 -0.0210922 0.0245
v -0.0235793 -0.0258653 -0.0245
v -0.0235793 -0.0258653 0.0245
v -0.0184251 -0.0297576 -0.0245
v -0.0184251 -0.0297576 0.0245
v -0.0126435 -0.0326365 -0.0245
v -0.0126435 -0.0326365 0.0245
v -0.00643124 -0.0344041 -0.0245
v -0.00643124 -0.0344041 0.0245
v 0 -0.035 -0.0245
v 0 -0.035 0.0245
v 0.056 -0.035 0.0195
v 0.056 -0.035 -0.0195
v 0.051 -0.035 -0.0245
v 0.051 -0.035 0.0245
v 0.0529134 -0.035 -0.0241194
v 0.0529134 -0.035 0.0241194
v 0.0545355 -0.035 -0.0230355
v 0.0545355 -0.035 0.0230355
v 0.0556194 -0.035 -0.0214134
v 0.0556194 -0.035 0.0214134
v 0.056 -0.0365 -0.0195
v 0.056 -0.0365 0.0195
v 0.051 -0.0365 -0.0245
v 0 -0.0365 -0.0245
v 0 -0.0365 0.0245
v 0.051 -0.0365 0.0245
v 0.0529134 -0.0365 -0.0241194
v 0.0545355 -0.0365 0.0230355
v 0.0529134 -0.0365 0.0241194
v 0.0545355 -0.0365 -0.0230355
v 0.0556194 -0.0365 -0.0214134
v 0.0556194 -0.0365 0.0214134
v -0.00633816 0.0359455 -0.0245
v 0 0.0365 0.0245
v 0 0.0365 -0.0245
v -0.00633816 0.0359455 0.0245
v -0.0124837 0.0342988 -0.0245
v -0.0124837 0.0342988 0.0245
v -0.01825 0.0316099 -0.0245
v -0.01825 0.0316099 0.0245
v -0.0234617 0.0279606 -0.0245
v -0.0234617 0.0279606 0.0245
v -0.0279606 0.0234617 -0.0245
v -0.0279606 0.0234617 0.0245
v -0.0316099 0.01825 -0.0245
v -0.0316099 0.01825 0.0245
v -0.0342988 0.0124837 -0.0245
v -0.0342988 0.0124837 0.0245
v -0.0359455 0.00633816 -0.0245
v -0.0359455 0.00633816 0.0245
v -0.0365 0 -0.0245
v -0.0365 0 0.0245
v -0.0359455 -0.00633816 -0.0245
v -0.0359455 -0.00633816 0.0245
v -0.0342988 -0.0124837 -0.0245
v -0.0342988 -0.0124837 0.0245
v -0.0316099 -0.01825 -0.0245
v -0.0316099 -0.01825 0.0245
v -0.0279606 -0.0234617 -0.0245
v -0.0279606 -0.0234617 0.0245
v -0.0234617 -0.0279606 -0.0245
v -0.0234617 -0.0279606 0.0245
v -0.01825 -0.0316099 -0.0245
v -0.01825 -0.0316099 0.0245
v -0.0124837 -0.0342988 -0.0245
v -0.0124837 -0.0342988 0.0245
v -0.00633816 -0.0359455 -0.0245
v -0.00633816 -0.0359455 0.0245
v 0.056 0.0365 0.0195
v 0.056 0.0365 -0.0195
v 0.051 0.0365 -0.0245
v 0.051 0.0365 0.0245
v 0.0529134 0.0365 -0.0241194
v 0.0529134 0.0365 0.0241194
v 0.0545355 0.0365 -0.0230355
v 0.0545355 0.0365 0.0230355
v 0.0556194 0.0365 -0.0214134
v 0.0556194 0.0365 0.0214134
v 0.056 0.035 -0.0195
v 0.056 0.035 0.0195
v 0.051 0.035 -0.0245
v 0 0.035 -0.0245
v 0.051 0.035 0.0245
v 0.0529134 0.035 -0.0241194
v 0.0545355 0.035 0.0230355
v 0.0529134 0.035 0.0241194
v 0.0545355 0.035 -0.0230355
v 0.0556194 0.035 -0.0214134
v 0.0556194 0.035 0.0214134
v 0.35239 0.0358314 0.0187042
v 0.352345 0.0178615 0.0370333
v 0.352399 -0.00304434 0.039884
v 0.3524 0.039884 0.00304431
v 0.0719899 0.0204791 0.035358
v 0.072 0.0363733 0.0173591
v 0.0720069 -0.00304438 0.039884
v 0.352345 0.0370333 -0.0178615
v 0.072 -0.0260496 -0.0303549
v 0.3524 -0.0260496 -0.0303549
v 0.3524 -0.0330184 -0.0225784
v 0.352391 -0.0397526 -0.00792551
v 0.0719987 -0.0398934 -0.00639426
v 0.072 -0.0330184 -0.0225784
v 0.35239 0.0187042 -0.0358314
v 0.3524 0.00304431 -0.039884
v 0.35239 -0.0121107 -0.0385625
v 0.072 0.039884 0.00304431
v 0.0719899 0.035358 -0.0204791
v 0.072 0.0173591 -0.0363733
v 0.35239 -0.0385625 0.0121107
v 0.072 -0.0379945 0.0134451
v 0.352403 -0.0252451 0.0321967
v 0.072 0.00304431 -0.039884
v 0.0720573 -0.0232221 0.0338113
v 0.072 -0.0134451 -0.0379945
v 0.370199 -0.0170243 0.0530142
v 0.363712 0.0185274 0.0529889
v 0.363689 -0.0178508 0.0529965
v 0.370198 0.0181553 0.0529719
v 0.3567 0.0135 0.0245
v 0.356811 0.0133538 0.0341579
v 0.3567 0.0215 0.0245
v 0.35674 -0.0214881 0.0244942
v 0.356679 -0.0134963 0.0338381
v 0.356771 -0.0134821 0.0245028
v 0.356819 -0.0204644 0.0395274
v 0.356788 -0.00599787 0.0365405
v 0.356606 0.00493201 0.0368496
v 0.356772 0.0204922 0.0392193
v 0.370178 0.0215094 0.024515
v 0.370103 0.013498 0.0245179
v 0.370203 0.0134873 0.0438016
v 0.363842 0.0214892 0.0489759
v 0.363864 0.00608706 0.0473134
v 0.363828 0.0134229 0.0429987
v 0.363748 0.00280456 0.0444717
v 0.363832 -0.00574777 0.0460848
v 0.370199 0.021521 0.0489652
v 0.370176 -0.00547903 0.0455043
v 0.370214 0.00603573 0.0458782
v 0.370177 -0.0134834 0.0245269
v 0.370195 -0.0133769 0.0429249
v 0.3702 -0.0215 0.0245
v 0.370199 -0.0214938 0.0499277
v 0.363692 -0.0134365 0.0438361
v 0.363694 -0.0214582 0.049634
v 0.370199 0.0170242 -0.0530142
v 0.363712 -0.0185274 -0.0529889
v 0.363689 0.0178508 -0.0529965
v 0.370198 -0.0181553 -0.0529719
v 0.3567 -0.0135 -0.0245
v 0.356811 -0.0133538 -0.0341579
v 0.3567 -0.0215 -0.0245
v 0.35674 0.0214881 -0.0244942
v 0.356679 0.0134963 -0.0338381
v 0.356771 0.0134821 -0.0245028
v 0.356819 0.0204643 -0.0395274
v 0.356788 0.00599784 -0.0365405
v 0.356606 -0.00493204 -0.0368496
v 0.356772 -0.0204922 -0.0392193
v 0.370178 -0.0215094 -0.024515
v 0.370103 -0.0134981 -0.0245179
v 0.370203 -0.0134874 -0.0438016
v 0.363842 -0.0214892 -0.0489759
v 0.363864 -0.00608709 -0.0473134
v 0.363828 -0.0134229 -0.0429987
v 0.363748 -0.00280458 -0.0444717
v 0.363832 0.00574775 -0.0460848
v 0.370199 -0.021521 -0.0489652
v 0.370176 0.00547901 -0.0455043
v 0.370214 -0.00603576 -0.0458782
v 0.370177 0.0134834 -0.0245269
v 0.370195 0.0133768 -0.0429249
v 0.3702 0.0215 -0.0245
v 0.370199 0.0214937 -0.0499277
v 0.363692 0.0134365 -0.0438361
v 0.363694 0.0214581 -0.049634
f 1 2 3
f 1 4 2
f 5 4 1
f 5 6 4
f 7 6 5
f 7 8 6
f 9 8 7
f 9 10 8
f 11 10 9
f 11 12 10
f 13 12 11
f 13 14 12
f 15 14 13
f 15 16 14
f 17 16 15
f 17 18 16
f 19 18 17
f 19 20 18
f 21 20 19
f 21 22 20
f 23 22 21
f 23 24 22
f 25 24 23
f 25 26 24
f 27 26 25
f 27 28 26
f 29 28 27
f 29 30 28
f 31 30 29
f 31 32 30
f 33 32 31
f 33 34 32
f 35 34 33
f 35 36 34
f 37 36 35
f 37 38 36
f 39 38 37
f 40 41 38
f 42 40 38
f 39 42 38
f 43 42 39
f 40 44 41
f 45 46 43
f 46 42 43
f 40 47 44
f 42 48 40
f 49 48 42
f 50 51 52
f 51 53 52
f 54 48 50
f 48 51 50
f 55 56 51
f 49 55 51
f 48 49 51
f 57 58 54
f 58 48 54
f 55 59 56
f 60 61 62
f 60 63 61
f 64 63 60
f 64 65 63
f 66 65 64
f 66 67 65
f 68 67 66
f 68 69 67
f 70 69 68
f 70 71 69
f 72 71 70
f 72 73 71
f 74 73 72
f 74 75 73
f 76 75 74
f 76 77 75
f 78 77 76
f 78 79 77
f 80 79 78
f 80 81 79
f 82 81 80
f 82 83 81
f 84 83 82
f 84 85 83
f 86 85 84
f 86 87 85
f 88 87 86
f 88 89 87
f 90 89 88
f 90 91 89
f 92 91 90
f 92 93 91
f 94 93 92
f 94 95 93
f 52 95 94
f 52 53 95
f 61 96 62
f 97 96 61
f 98 97 61
f 99 100 96
f 97 99 96
f 101 97 98
f 99 102 100
f 103 104 101
f 104 97 101
f 99 105 102
f 97 106 99
f 107 106 97
f 108 109 110
f 109 3 110
f 111 106 108
f 106 109 108
f 112 113 109
f 107 112 109
f 106 107 109
f 114 115 111
f 115 106 111
f 112 116 113
f 110 60 62
f 108 110 62
f 96 108 62
f 2 64 60
f 110 2 60
f 4 64 2
f 4 66 64
f 6 66 4
f 6 68 66
f 8 68 6
f 8 70 68
f 10 70 8
f 10 72 70
f 12 72 10
f 12 74 72
f 14 74 12
f 14 76 74
f 16 76 14
f 16 78 76
f 18 78 16
f 20 80 18
f 80 78 18
f 22 82 20
f 82 80 20
f 24 84 22
f 84 82 22
f 26 86 24
f 86 84 24
f 28 88 26
f 88 86 26
f 30 90 28
f 90 88 28
f 32 92 30
f 92 90 30
f 34 94 32
f 94 92 32
f 36 52 34
f 52 94 34
f 38 50 36
f 50 52 36
f 3 98 61
f 1 3 61
f 63 1 61
f 3 109 98
f 5 1 63
f 65 5 63
f 7 5 65
f 67 7 65
f 9 7 67
f 69 9 67
f 11 9 69
f 71 11 69
f 13 11 71
f 73 13 71
f 15 13 73
f 75 15 73
f 17 15 75
f 77 17 75
f 19 17 77
f 79 19 77
f 79 21 19
f 81 21 79
f 81 23 21
f 83 23 81
f 83 25 23
f 85 25 83
f 85 27 25
f 87 27 85
f 87 29 27
f 89 29 87
f 89 31 29
f 91 31 89
f 91 33 31
f 93 33 91
f 93 35 33
f 95 35 93
f 95 37 35
f 95 53 37
f 53 39 37
f 53 51 39
f 41 50 38
f 44 54 41
f 54 50 41
f 47 57 44
f 57 54 44
f 40 58 47
f 58 57 47
f 48 58 40
f 56 43 39
f 51 56 39
f 59 45 43
f 56 59 43
f 55 46 45
f 59 55 45
f 49 42 46
f 55 49 46
f 113 101 98
f 109 113 98
f 116 103 101
f 113 116 101
f 112 104 103
f 116 112 103
f 107 97 104
f 112 107 104
f 100 108 96
f 102 111 100
f 111 108 100
f 105 114 102
f 114 111 102
f 99 115 105
f 115 114 105
f 106 115 99
f 3 2 110
f 117 118 119
f 117 120 118
f 121 120 117
f 121 122 120
f 123 122 121
f 123 124 122
f 125 124 123
f 125 126 124
f 127 126 125
f 127 128 126
f 129 128 127
f 129 130 128
f 131 130 129
f 131 132 130
f 133 132 131
f 133 134 132
f 135 134 133
f 135 136 134
f 137 136 135
f 137 138 136
f 139 138 137
f 139 140 138
f 141 140 139
f 141 142 140
f 143 142 141
f 143 144 142
f 145 144 143
f 145 146 144
f 147 146 145
f 147 148 146
f 149 148 147
f 149 150 148
f 151 150 149
f 151 152 150
f 152 153 150
f 153 154 150
f 155 152 151
f 153 156 154
f 157 152 155
f 153 158 156
f 159 152 157
f 153 160 158
f 161 152 159
f 152 162 153
f 163 162 152
f 164 163 165
f 163 166 165
f 163 167 166
f 168 162 164
f 162 163 164
f 169 170 167
f 163 169 167
f 171 172 168
f 172 162 168
f 163 173 169
f 174 175 176
f 174 177 175
f 178 177 174
f 178 179 177
f 180 179 178
f 180 181 179
f 182 181 180
f 182 183 181
f 184 183 182
f 184 185 183
f 186 185 184
f 186 187 185
f 188 187 186
f 188 189 187
f 190 189 188
f 190 191 189
f 192 191 190
f 192 193 191
f 194 193 192
f 194 195 193
f 196 195 194
f 196 197 195
f 198 197 196
f 198 199 197
f 200 199 198
f 200 201 199
f 202 201 200
f 202 203 201
f 204 203 202
f 204 205 203
f 206 205 204
f 206 207 205
f 208 207 206
f 208 209 207
f 165 209 208
f 165 166 209
f 175 210 176
f 210 211 176
f 211 212 176
f 213 210 175
f 211 214 212
f 215 210 213
f 211 216 214
f 217 210 215
f 211 218 216
f 219 210 217
f 210 220 211
f 221 220 210
f 222 221 223
f 221 119 223
f 221 224 119
f 225 220 222
f 220 221 222
f 226 227 224
f 221 226 224
f 228 229 225
f 229 220 225
f 221 230 226
f 212 222 176
f 222 223 176
f 223 174 176
f 223 118 174
f 118 178 174
f 120 178 118
f 120 180 178
f 122 180 120
f 122 182 180
f 124 182 122
f 124 184 182
f 126 184 124
f 126 186 184
f 128 186 126
f 128 188 186
f 130 188 128
f 130 190 188
f 132 190 130
f 132 192 190
f 134 192 132
f 134 194 192
f 136 196 134
f 196 194 134
f 138 198 136
f 198 196 136
f 140 200 138
f 200 198 138
f 142 202 140
f 202 200 140
f 144 204 142
f 204 202 142
f 146 206 144
f 206 204 144
f 148 208 146
f 208 206 146
f 150 165 148
f 165 208 148
f 154 164 150
f 164 165 150
f 119 213 175
f 117 119 175
f 177 117 175
f 119 224 213
f 121 117 177
f 179 121 177
f 123 121 179
f 181 123 179
f 125 123 181
f 183 125 181
f 127 125 183
f 185 127 183
f 129 127 185
f 187 129 185
f 131 129 187
f 189 131 187
f 133 131 189
f 191 133 189
f 135 133 191
f 193 135 191
f 195 135 193
f 195 137 135
f 197 137 195
f 197 139 137
f 199 139 197
f 199 141 139
f 201 141 199
f 201 143 141
f 203 143 201
f 203 145 143
f 205 145 203
f 205 147 145
f 207 147 205
f 207 149 147
f 209 149 207
f 209 151 149
f 166 155 151
f 209 166 151
f 166 167 155
f 156 164 154
f 158 168 156
f 168 164 156
f 160 171 158
f 171 168 158
f 153 172 160
f 172 171 160
f 162 172 153
f 170 157 155
f 167 170 155
f 169 159 157
f 170 169 157
f 173 161 159
f 169 173 159
f 163 152 161
f 173 163 161
f 227 215 213
f 224 227 213
f 226 217 215
f 227 226 215
f 230 219 217
f 226 230 217
f 221 210 219
f 230 221 219
f 214 222 212
f 216 225 214
f 225 222 214
f 218 228 216
f 228 225 216
f 211 229 218
f 229 228 218
f 220 229 211
f 119 118 223
f 231 232 233
f 231 233 234
f 235 236 237
f 234 233 238
f 239 240 241
f 242 243 244
f 238 233 245
f 233 246 245
f 233 247 246
f 233 240 247
f 233 241 240
f 237 236 248
f 237 248 249
f 237 249 250
f 251 252 243
f 253 251 233
f 254 237 250
f 252 255 237
f 253 255 252
f 251 242 233
f 256 237 254
f 243 252 237
f 242 241 233
f 239 237 256
f 243 237 244
f 244 237 239
f 233 237 255
f 232 235 237
f 231 236 235
f 234 248 236
f 238 249 248
f 245 250 249
f 246 254 250
f 247 256 254
f 240 239 256
f 239 241 244
f 242 244 241
f 251 243 242
f 253 252 251
f 233 255 253
f 232 237 233
f 231 235 232
f 234 236 231
f 238 248 234
f 245 249 238
f 246 250 245
f 247 254 246
f 240 256 247
f 257 258 259
f 257 260 258
f 261 262 263
f 264 265 266
f 267 265 264
f 267 268 265
f 269 270 262
f 268 267 269
f 267 270 269
f 263 271 272
f 272 262 261
f 272 273 262
f 274 271 263
f 270 274 263
f 258 274 270
f 267 259 270
f 275 269 262
f 276 275 262
f 275 277 269
f 277 268 269
f 277 278 268
f 274 279 271
f 258 260 279
f 277 280 278
f 281 280 277
f 275 281 277
f 281 275 276
f 273 281 276
f 271 273 272
f 279 273 271
f 282 283 284
f 279 260 273
f 257 285 283
f 260 281 273
f 280 257 283
f 260 280 281
f 260 257 280
f 266 282 284
f 265 282 266
f 286 283 265
f 268 278 286
f 264 287 267
f 287 259 267
f 264 284 287
f 284 285 287
f 285 259 287
f 285 257 259
f 283 286 280
f 262 270 263
f 263 272 261
f 273 276 262
f 259 258 270
f 258 279 274
f 283 285 284
f 266 284 264
f 283 282 265
f 268 286 265
f 286 278 280
f 288 289 290
f 288 291 289
f 292 293 294
f 295 296 297
f 298 296 295
f 298 299 296
f 300 301 293
f 299 298 300
f 298 301 300
f 294 302 303
f 303 293 292
f 303 304 293
f 305 302 294
f 301 305 294
f 289 305 301
f 298 290 301
f 306 300 293
f 307 306 293
f 306 308 300
f 308 299 300
f 308 309 299
f 305 310 302
f 289 291 310
f 308 311 309
f 312 311 308
f 306 312 308
f 312 306 307
f 304 312 307
f 302 304 303
f 310 304 302
f 313 314 315
f 310 291 304
f 288 316 314
f 291 312 304
f 311 288 314
f 291 311 312
f 291 288 311
f 297 313 315
f 296 313 297
f 317 314 296
f 299 309 317
f 295 318 298
f 318 290 298
f 295 315 318
f 315 316 318
f 316 290 318
f 316 288 290
f 314 317 311
f 293 301 294
f 294 303 292
f 304 307 293
f 290 289 301
f 289 310 305
f 314 316 315
f 297 315 295
f 314 313 296
f 299 317 296
f 317 309 311
