v -0.041793 -0.10353 -0.0354849
v -0.0414461 -0.0720619 -0.0358219
v -0.041339 -0.0783505 -0.0336504
v -0.0245868 -0.0541941 0.0302906
v -0.0376124 -0.082807 0.0423118
v -0.0257272 -0.0452212 0.0150075
v -0.0411308 -0.0995855 0.0370366
v -0.0245916 -0.0485287 -0.0244719
v -0.0346856 -0.126069 -0.0172043
v -0.0355842 -0.0756397 -0.0272542
v -0.0412039 -0.0841915 0.0395884
v -0.0432607 -0.0793547 0.0326883
v -0.0428824 -0.106649 0.00841927
v -0.0440046 -0.108535 0.0105858
v -0.0244491 -0.126944 0.0136045
v -0.0420522 -0.0768328 0.0200278
v -0.0421949 -0.0638458 0.0197932
v -0.0413513 -0.0700863 0.0346839
v -0.0411238 -0.0816355 -0.0173375
v -0.0417006 -0.0629418 -0.0257607
v -0.0352377 -0.053325 0.0314974
v -0.0415591 -0.114181 -0.00820071
v -0.041215 -0.0736969 -0.0213925
v -0.0329512 -0.0484483 -0.014593
v -0.0375705 -0.0884488 0.0185543
v -0.032653 -0.0439237 -0.017442
v -0.0491572 -0.0725501 0.0268346
v -0.0410817 -0.0947638 -0.0156412
v -0.0245564 -0.128647 -0.00962266
v -0.0245038 -0.119283 0.028256
v -0.0426209 -0.0565114 -0.0196608
v -0.042981 -0.0659704 0.0323642
v -0.0365876 -0.0442992 0.0151572
v -0.0408928 -0.0493478 0.0163194
v -0.0420068 -0.119982 0.00747321
v -0.03667 -0.125459 -0.0132195
v -0.0366904 -0.076276 -0.0224573
v -0.0490939 -0.0661497 -0.0283791
v -0.0329443 -0.12831 0.0129366
v -0.0325848 -0.0781448 -0.0438749
v -0.0329359 -0.046068 -0.0199711
v -0.0380119 -0.0920599 -0.0158183
v -0.0371643 -0.0875988 -0.0189751
v -0.0302485 -0.070909 -0.0383352
v -0.0307714 -0.122418 -0.0153469
v -0.0469353 -0.0645865 0.0280553
v -0.0305533 -0.0999747 -0.0385276
v -0.0363565 -0.105679 0.0377619
v -0.0428735 -0.107086 0.0125721
v -0.0399494 -0.0769351 -0.0116836
v -0.0246346 -0.0763765 -0.0433765
v -0.0244938 -0.0713494 -0.0400077
v -0.0244484 -0.0440705 0.0136513
v -0.0382627 -0.122697 -0.00372285
v -0.0405759 -0.121896 -0.00531558
v -0.0422735 -0.102004 -0.00223231
v -0.0418347 -0.107264 0.0300647
v -0.0408769 -0.0986026 0.0365953
v -0.0395749 -0.0694578 0.00465439
v -0.0414139 -0.0505849 -0.00628165
v -0.0405783 -0.0646842 -0.00474654
v -0.0346549 -0.0721183 0.0425505
v -0.0333224 -0.12134 -0.027764
v -0.0420253 -0.101935 0.0126334
v -0.03883 -0.10106 -0.00571076
v -0.0477064 -0.128351 -0.00148058
v -0.0356324 -0.12864 -0.00108659
v -0.0408471 -0.0501858 -0.017327
v -0.0400223 -0.112674 0.0284314
v -0.0373418 -0.126611 0.00454091
v -0.0334798 -0.0444622 -0.0191375
v -0.0246972 -0.123942 -0.0203617
v -0.0248572 -0.0466891 -0.0191336
v -0.0334215 -0.0411749 -0.00151585
v -0.0281912 -0.0857544 0.0442885
v -0.0380533 -0.069888 -0.00664398
v -0.0332568 -0.0590802 -0.0365194
v -0.0334219 -0.0958983 0.0440566
v -0.0327107 -0.0484478 -0.0138939
v -0.0189556 -0.100863 0.0367657
v -0.0328237 -0.0686066 -0.0368563
v -0.0333862 -0.101402 -0.042027
v -0.0389254 -0.0691501 -0.00422668
v -0.0367887 -0.0784846 0.0287886
v -0.0351896 -0.126159 0.0167038
v -0.0488665 -0.0672647 0.0299856
v -0.0309577 -0.122245 0.0148711
v -0.0423523 -0.108296 0.00732619
v -0.0433961 -0.112756 -0.0119898
v -0.0428524 -0.106537 -0.0119572
v -0.0375656 -0.0934445 -0.0119515
v -0.0374989 -0.0847491 -0.0140457
v -0.0244985 -0.124465 0.0193444
v -0.024745 -0.114061 0.0328084
v -0.0247705 -0.104607 0.0387727
v -0.0248455 -0.0982014 -0.0421778
v -0.0234146 -0.071993 0.0421273
v -0.0301882 -0.0716521 0.0421022
v -0.0216355 -0.0660651 -0.0392756
v -0.0245802 -0.0421372 -0.0041595
v -0.0413348 -0.0487982 0.0122103
v -0.0401418 -0.0654838 -0.00867662
v -0.0407939 -0.0461067 -0.0044237
v -0.0345099 -0.0443436 -0.0144744
v -0.0336169 -0.0398736 7.89623e-05
v -0.0389726 -0.0665566 -0.037519
v -0.0362037 -0.0890094 -0.0439399
v -0.0392773 -0.0715266 -0.0383502
v -0.039572 -0.123221 0.0131878
v -0.0374341 -0.10008 0.00847045
v -0.0448826 -0.128516 0.0051583
v -0.0406819 -0.0751808 -0.0314623
v -0.0458059 -0.0735264 -0.0296268
v -0.0469856 -0.073799 -0.0243797
v -0.0363074 -0.119483 -0.015528
v -0.0432945 -0.10094 -0.0333107
v -0.0365777 -0.123353 0.0224072
v -0.0348824 -0.0771786 0.0266991
v -0.0470921 -0.0663877 -0.0253622
v -0.0419116 -0.112184 0.028048
v -0.0355034 -0.0669925 0.0389298
v -0.0419371 -0.0644182 0.032485
v -0.0412497 -0.12662 -0.00628394
v -0.0423405 -0.0653915 0.0216722
v -0.0329142 -0.124419 0.0138718
v -0.0331734 -0.0988533 -0.0420831
v -0.024575 -0.0450175 -0.0139862
v -0.0302113 -0.0441619 -0.0144177
v -0.03222 -0.0428656 -0.0132811
v -0.0326379 -0.0430353 0.0133703
v -0.0328767 -0.053113 0.030794
v -0.0330698 -0.0991481 0.0420397
v -0.0378682 -0.0765316 -0.0138229
v -0.0314025 -0.0446663 0.0195052
v -0.0336621 -0.0688241 0.0416121
v -0.0181781 -0.0576634 0.0347806
v -0.0270163 -0.0675828 0.0387204
v -0.0316921 -0.0685509 -0.0363975
v -0.0191035 -0.069871 -0.0368086
v -0.0335572 -0.07036 -0.042132
v -0.0348786 -0.0997038 -0.0391097
v -0.0362683 -0.124288 -0.0148183
v -0.0327799 -0.101445 0.0369563
v -0.0329356 -0.100759 0.0407835
v -0.0327611 -0.0713949 0.0378569
v -0.0329502 -0.0679255 0.0374035
v -0.0427855 -0.0583788 -0.00486046
v -0.0434873 -0.0594396 0.0184157
v -0.0383769 -0.0514151 -0.00852925
v -0.0377078 -0.0510193 0.00555197
v -0.0418851 -0.0768425 -0.0196512
v -0.0435099 -0.0736578 0.0223788
v -0.0354169 -0.122938 -0.0213089
v -0.0325758 -0.123932 -0.020224
v -0.0275193 -0.0472008 0.0182215
v -0.0415552 -0.102865 -0.00137143
v -0.0399648 -0.0968435 -0.0107235
v -0.0393936 -0.0944583 0.0119346
v -0.0398571 -0.0750351 0.0107174
v -0.0375941 -0.0797289 0.013588
v -0.0387803 -0.0714276 -0.00230754
v -0.0375315 -0.0735672 -0.00802803
v -0.024696 -0.0982724 0.0429416
v -0.0244433 -0.0465194 0.0201169
v -0.0258168 -0.12422 -0.0186935
v -0.0450871 -0.121818 -0.00335303
v -0.0393557 -0.12763 0.00646411
v -0.0424801 -0.0571237 0.0204649
v -0.0415246 -0.0771183 0.017297
v -0.0414291 -0.0514513 0.0048743
v -0.0409897 -0.0777675 0.0331263
v -0.0386049 -0.0805525 -0.0425332
v -0.0331321 -0.108802 -0.0386182
v -0.0334008 -0.103946 -0.0396752
v -0.04114 -0.101824 0.00567407
v -0.0388053 -0.0742219 -0.0253781
v -0.0412014 -0.0670081 -0.0332428
v -0.0464404 -0.0661881 -0.0310256
v -0.0418427 -0.067689 -0.034044
v -0.042399 -0.0495117 -0.0012226
v -0.0487441 -0.0776559 -0.025296
v -0.0364678 -0.0779055 -0.0261004
v -0.0361577 -0.121084 0.0144913
v -0.0328807 -0.122557 0.0171319
v -0.0336963 -0.0723661 -0.0417629
v -0.0315146 -0.0654541 0.0395926
v -0.0323719 -0.12503 0.0204416
v -0.0357913 -0.118468 -0.0285597
v -0.034144 -0.105902 -0.0386668
v -0.0390595 -0.0471766 -0.00925362
v -0.0341896 -0.0467531 0.0207941
v -0.0386353 -0.0834182 0.0175153
v -0.0328689 -0.130709 -0.00646531
v -0.0318618 -0.048777 0.0141944
v -0.0376334 -0.0773486 0.0225315
v -0.0421645 -0.0619643 0.0256335
v -0.0450845 -0.0642228 0.0285392
v -0.0425479 -0.0618362 -0.0279939
v -0.0421271 -0.0753755 0.0319019
v -0.0401161 -0.0738637 0.0215996
v -0.030503 -0.0485197 -0.0154214
v -0.038782 -0.045364 0.0046626
v -0.0315235 -0.102125 -0.0366839
v -0.0325636 -0.100389 0.0359296
v -0.0323162 -0.122473 -0.0135718
v -0.0317227 -0.0717871 0.0377616
v -0.044877 -0.108745 -0.00870429
v -0.0375578 -0.0995287 0.00236717
v -0.03745 -0.0975046 0.00720344
v -0.024441 -0.124491 0.0200526
v -0.0302444 -0.04607 0.019015
v -0.0264816 -0.126479 -0.0143222
v -0.0419549 -0.122064 -0.00950842
v -0.0353413 -0.123346 0.0208024
v -0.0416845 -0.111501 -0.0272228
v -0.0408792 -0.0491133 -0.0161284
v -0.0424041 -0.0792048 -0.0336247
v -0.0386792 -0.0955869 -0.0408166
v -0.0249401 -0.107538 -0.0386086
v -0.027883 -0.0662998 -0.0390129
v -0.0330007 -0.0630924 -0.0392147
v -0.0340482 -0.0873359 0.043749
v -0.0357776 -0.11819 0.028654
v -0.0345167 -0.129508 -0.000989848
v -0.0374527 -0.0717302 0.00907722
v -0.0336566 -0.105136 0.0409592
v -0.0325526 -0.0706244 0.0359401
v -0.0325206 -0.0493302 -0.0175573
v -0.0189047 -0.0459027 0.014234
v -0.0327722 -0.0485352 0.0170565
v -0.0329408 -0.122099 -0.0157983
v -0.042145 -0.0636552 -0.0202228
v -0.0432092 -0.050047 0.00226104
v -0.0460947 -0.0742519 0.0253914
v -0.0414275 -0.119445 -0.00607494
v -0.0309354 -0.100638 0.0365419
v -0.0369407 -0.119599 -0.0041613
v -0.0462986 -0.119137 0.00260459
v -0.0456071 -0.119208 -0.00365399
v -0.0463783 -0.0747457 -0.0301688
v -0.0408685 -0.119195 -0.00875644
v -0.032285 -0.121424 0.0169379
v -0.018791 -0.112292 -0.036828
v -0.0196109 -0.0850063 -0.0455961
v -0.0236212 -0.122799 0.0163647
v -0.0328791 -0.0461695 0.0140248
v -0.0388783 -0.119585 -0.000212494
v -0.0449409 -0.120358 0.00179923
v -0.0377611 -0.0746664 0.0272937
v -0.0371662 -0.0760477 -0.0288262
v -0.0376361 -0.0763627 0.0295773
v -0.0385949 -0.10327 0.0101192
v -0.0390026 -0.102847 0.0117066
v -0.0385952 -0.117408 -0.00774979
v -0.0414187 -0.105439 0.00579543
v -0.0469856 -0.106028 -0.000462222
v -0.0451879 -0.104476 0.00116371
v -0.0471436 -0.105346 -0.000562404
v -0.0425842 -0.108237 -0.00724992
v -0.0458302 -0.107089 0.00421471
v -0.035532 -0.119513 0.00245066
v -0.00678401 -0.0688504 -0.0324055
v -0.01795 -0.0860915 -0.0299303
v -0.0108981 -0.066102 -0.0302208
v 0.00098051 -0.0677614 -0.031354
v -0.0221392 -0.0980672 -0.00616007
v -0.0179503 -0.0893026 0.03513
v -0.0179484 -0.0539259 -0.0167275
v -0.0179441 -0.0417084 0.00268651
v -0.00603041 -0.0550121 -0.0189059
v -0.00691539 -0.0564607 -0.0224812
v -0.00479549 -0.0548997 -0.0196802
v 0.00146858 -0.0539678 -0.0179893
v -0.00896714 -0.0517425 -0.0148854
v -0.0209498 -0.0503591 0.00806389
v -0.0189387 -0.0978681 -0.0318379
v -0.00672952 -0.0493482 -0.000818471
v 0.000608518 -0.0492323 2.88162e-05
v -0.018309 -0.0983761 0.0428293
v -0.0179573 -0.0857776 0.0361982
v -0.0211878 -0.0953796 0.0106276
v -0.0179503 -0.0502444 -0.0026552
v -0.0180819 -0.0858217 -0.0170031
v -0.0179513 -0.0669072 0.0303047
v -0.0108749 -0.0537699 0.0167353
v -0.0179478 -0.0855654 0.022951
v -0.0109162 -0.0546089 -0.0175553
v -0.0109718 -0.0563778 -0.0138409
v -0.0189484 -0.0494482 0.00312141
v -0.0180615 -0.0838508 0.0165731
v -0.0109066 -0.0512965 0.0112951
v -0.0109499 -0.0573163 0.00273819
v -0.0109673 -0.0574432 0.00580179
v -0.0109312 -0.0575963 0.0226053
v -0.01095 -0.0572539 0.0153476
v -0.0109499 -0.0567525 -0.0103563
v -0.01095 -0.0626004 -0.019555
v -0.0179504 -0.0874568 -0.0224276
v -0.0107674 -0.0596127 -0.0253576
v -0.010975 -0.057218 -0.0222982
v -0.0109493 -0.0617756 0.00601114
v -0.01095 -0.0609087 0.00926407
v -0.01095 -0.0626305 0.0239238
v -0.0179505 -0.0510799 -0.00990314
v -0.0109441 -0.0567003 0.0121201
v -0.0109496 -0.0657518 0.012171
v -0.01095 -0.0627609 0.0157124
v -0.010948 -0.0669594 -0.00112816
v -0.0109528 -0.063257 -0.00920442
v -0.0109495 -0.0637308 -0.0139084
v -0.01095 -0.0651814 -0.0166647
v -0.0109495 -0.0706106 -0.0198858
v -0.0109558 -0.0707567 0.00484019
v -0.0190986 -0.0896715 -0.0437604
v -0.0179495 -0.0878416 -0.0435861
v -0.01095 -0.0662743 -0.0237156
v -0.0109507 -0.0671268 0.0266353
v -0.0179501 -0.0954558 -0.0343015
v -0.0109606 -0.0693416 -0.00890726
v -0.0109215 -0.0728738 0.00306129
v -0.0109489 -0.0690781 0.0187764
v -0.0109492 -0.0663957 0.0186968
v -0.0192912 -0.0739967 -0.00970628
v -0.01795 -0.089363 -0.0358305
v -0.010951 -0.0735063 -0.012503
v -0.0109532 -0.0721644 -0.0112474
v -0.0109486 -0.0720982 0.0153679
v -0.0109501 -0.071104 -0.016784
v -0.0109515 -0.0765681 -0.0171529
v -0.0109496 -0.0746908 -0.0219503
v -0.0112787 -0.076532 0.0085949
v -0.010947 -0.0757516 -0.0274548
v -0.0109823 -0.086155 -0.0029304
v -0.0110819 -0.0833445 0.000835986
v -0.01095 -0.0738702 -0.0257087
v -0.01095 -0.0781286 -0.0261853
v -0.0109499 -0.0771239 0.0254375
v -0.0109485 -0.0780523 0.019485
v -0.01095 -0.0760722 0.0255171
v -0.0109639 -0.0778251 -0.0349914
v 0.0245148 -0.112527 0.0157465
v -0.01095 -0.0791413 0.02799
v 0.0245004 -0.115628 0.00921127
v 0.0191988 -0.116332 0.00506581
v -0.01095 -0.0791005 -0.0212883
v 0.0245211 -0.117317 0.000572446
v -0.0109493 -0.080092 -0.0195443
v 0.0192305 -0.116461 -0.00585196
v 0.0172784 -0.115752 -0.0102628
v -0.0179497 -0.0830177 0.0240927
v -0.0109494 -0.0833694 0.0296515
v -0.0109489 -0.0806849 0.0243709
v 0.017541 -0.113554 -0.013489
v -0.0109379 -0.0829803 0.0360675
v -0.01795 -0.0866188 0.0290677
v -0.0225518 -0.0711489 0.0347204
v -0.010953 -0.0818618 -0.0357975
v 0.0175827 -0.107274 -0.022116
v -0.01095 -0.0837438 -0.0297572
v 0.0244813 -0.102984 -0.025003
v 0.0192077 -0.0975446 -0.0291905
v -0.01795 -0.0835045 0.0289331
v 0.0160242 -0.0916113 -0.0310994
v 0.017397 -0.0855511 -0.0315525
v -0.0181173 -0.102316 -0.00281185
v -0.0237195 -0.0784983 0.011909
v -0.0193947 -0.0461492 -0.0211125
v 0.0221848 -0.0763042 -0.0296631
v -0.0109505 -0.0824418 0.0228366
v -0.0179501 -0.0816699 -0.0354578
v -0.010964 -0.0884747 0.0316499
v 0.0173733 -0.0663655 -0.0254186
v 0.017294 -0.0615051 -0.0210551
v -0.0190298 -0.0576777 -0.0337686
v -0.0179482 -0.0845257 -0.0357522
v 0.0215666 -0.059431 -0.0170876
v 0.0244807 -0.0578313 -0.0128661
v 0.0177208 -0.0555989 -0.00791642
v -0.0109125 -0.0879773 0.0141198
v 0.0245474 -0.0544297 -0.00495347
v 0.0172997 -0.0539564 0.00482091
v -0.0181558 -0.0987425 -0.0103524
v 0.0244816 -0.0578582 0.012919
v -0.0109498 -0.0871057 0.0236516
v 0.0245024 -0.0623034 0.0213958
v -0.0109492 -0.0896857 -0.0249943
v 0.0244825 -0.0726365 0.0276652
v -0.0189722 -0.0713135 0.0327234
v -0.01095 -0.0915462 0.0275571
v -0.0109509 -0.10003 0.0129442
v 0.0172724 -0.0792512 0.0312961
v -0.0109542 -0.0923893 -0.0112927
v 0.0244818 -0.0828676 0.0303982
v -0.01795 -0.0825684 0.0332536
v 0.0244891 -0.0935147 0.0294983
v -0.0109579 -0.0920924 -0.0352005
v 0.0245374 -0.0977758 0.0290542
v 0.0192138 -0.104727 0.0250232
v -0.0190527 -0.0413473 6.82024e-05
v 0.0172942 -0.109494 0.0210563
v -0.0109751 -0.0970578 0.033806
v 0.01757 -0.111143 0.0175668
v 0.0173428 -0.114434 0.0130416
v -0.0179499 -0.0866386 -0.0267448
v 0.0173225 -0.117369 0.000706542
v 0.0245102 -0.115571 -0.0112662
v -0.0213874 -0.0998111 0.000187543
v 0.0171984 -0.11004 -0.0207375
v -0.0183791 -0.0745553 0.0440522
v 0.0173584 -0.102875 -0.0266664
v 0.024522 -0.0991001 -0.029174
v 0.024539 -0.0910662 -0.0307964
v 0.0171161 -0.0800749 -0.0316259
v 0.0244758 -0.0809969 -0.031241
v 0.0175024 -0.0724639 -0.028661
v 0.0245006 -0.0713084 -0.0278077
v -0.0195004 -0.0802543 0.0441877
v 0.0245352 -0.0665584 -0.0251967
v 0.0263902 -0.0617181 -0.0212357
v 0.0173366 -0.0565679 -0.0130405
v -0.0179452 -0.0805241 0.0235636
v 0.0244871 -0.0552774 -0.0108221
v 0.0175074 -0.0541681 -0.00304233
v 0.0229052 -0.0542799 0.00321744
v 0.0244984 -0.0533456 3.566e-05
v 0.021133 -0.0561559 0.00788201
v 0.0245222 -0.0562989 0.0134848
v 0.0173847 -0.0572274 0.0144535
v 0.0244806 -0.0605232 0.0175286
v 0.0172352 -0.0613946 0.0210788
v 0.0245198 -0.0672806 0.0259352
v 0.0173642 -0.0651165 0.0243474
v 0.0172997 -0.0719262 0.0291242
v 0.0245205 -0.0770246 0.0307214
v -0.0109671 -0.0503727 -0.00763357
v 0.02278 -0.0896391 0.0310281
v 0.0245168 -0.0855366 0.032082
v 0.0174367 -0.0887731 0.0313574
v 0.0173632 -0.0998938 0.0284032
v 0.0245236 -0.103954 0.0263571
v 0.0245336 -0.108635 0.0214308
v -0.0192794 -0.0953584 -0.0111434
v -0.0179501 -0.0794267 0.030807
v -0.0179508 -0.0779139 0.0306139
v -0.0191299 -0.0722412 -0.0420478
v -0.0184912 -0.0981738 0.0100894
v -0.0179156 -0.0800811 -0.0190964
v -0.017737 -0.0963542 -0.0162817
v -0.0179506 -0.0784837 -0.0347936
v 0.0109504 -0.0668777 -0.0326337
v -0.0181836 -0.0942021 0.0145143
v -0.0188595 -0.0479432 -0.0150426
v -0.0179361 -0.0792609 0.0165179
v 0.0148614 -0.11146 -0.0186425
v 0.0113238 -0.0956492 -0.0310832
v 0.0120563 -0.0955354 0.0305979
v 0.0112585 -0.0754545 -0.031682
v -0.018982 -0.0992003 0.0415396
v 0.0111784 -0.0650187 0.0259258
v 0.011959 -0.0598613 -0.0196388
v 0.0111315 -0.0524817 -0.00423911
v -0.0185077 -0.0906551 -0.0142969
v -0.01795 -0.0795689 0.0269065
v 0.0113756 -0.118227 0.00114525
v 0.0113309 -0.112302 0.0192759
v -0.0187736 -0.0888439 0.0152278
v 0.0111354 -0.117411 -0.0107279
v -0.0189615 -0.0994903 -0.0395879
v 0.0106826 -0.118944 -0.0189162
v 0.0110591 -0.102158 0.0285214
v 0.0113996 -0.0849728 0.0327556
v 0.0106026 -0.0562116 -0.021062
v 0.0114375 -0.0564979 0.0147046
v 0.0108687 -0.124724 -1.79582e-05
v -0.0179705 -0.0879135 0.0173771
v 0.0108949 -0.0659409 0.0335595
v 0.0109763 -0.0999982 0.0328735
v 0.0109322 -0.104789 0.0336975
v -0.0208169 -0.0810423 0.0141942
v 0.0109693 -0.119086 0.0194986
v 0.0109799 -0.114568 0.0211879
v 0.0109062 -0.104853 -0.0334869
v -0.0179499 -0.0752238 -0.0283266
v -0.0190127 -0.0471583 0.00767623
v 0.011016 -0.0853799 0.0388711
v 0.0109836 -0.0893547 -0.0357503
v 0.0109843 -0.081571 0.0357034
v 0.0109699 -0.0856146 -0.0388528
v 0.0109602 -0.0530486 0.0193347
v 0.0109692 -0.0520743 -0.0166774
v 0.0109645 -0.05122 0.0194871
v 0.0109318 -0.0466564 1.87736e-05
v -0.0212477 -0.0850164 -0.0143168
v -0.0189675 -0.126053 0.0145538
v -0.0179517 -0.0757221 0.0236199
v -0.0184341 -0.074425 0.0111795
v -0.0179504 -0.070329 0.032077
v -0.0181837 -0.077685 -0.0143801
v -0.017953 -0.0678398 -0.0311457
v -0.0193719 -0.128853 -0.0124732
v -0.0180309 -0.0762452 0.0147502
v -0.0179474 -0.0761038 -0.0209415
v -0.0193287 -0.10868 0.038841
v -0.0178094 -0.0689556 -0.0143877
v -0.020048 -0.117223 0.0129364
v -0.0209782 -0.0709642 0.000856314
v -0.01795 -0.0744832 -0.0252539
v -0.022704 -0.104796 -0.0391174
v -0.0209118 -0.100695 -0.0365801
v -0.0191375 -0.122269 -0.015604
v -0.0179498 -0.0692567 -0.0179659
v -0.0179525 -0.069458 -0.0409573
v -0.0191443 -0.124041 0.017894
v -0.0192531 -0.12453 -0.0198379
v -0.0179087 -0.0674397 -0.00142303
v -0.0196919 -0.11605 -0.0317893
v -0.0189409 -0.116104 -0.0310456
v -0.0194774 -0.131306 0.00378186
v -0.0042618 -0.106452 0.0301416
v -0.0193149 -0.126067 -0.0196476
v -0.0179493 -0.0685702 0.0217966
v -0.0183389 -0.111753 0.0360998
v -0.0197445 -0.0638757 0.0383282
v -0.01795 -0.0679845 -0.025584
v -0.0179502 -0.0603998 -0.0105216
v -0.00728095 -0.114701 -0.0222676
v -0.0109646 -0.0546016 -0.0077763
v -0.0179474 -0.0719569 -0.0185293
v -0.00711844 -0.102114 0.0324433
v -0.00649567 -0.0953698 -0.035108
v -0.0193129 -0.0623664 -0.0389647
v -0.0100503 -0.107947 0.0287595
v -0.00698706 -0.0906764 0.0362738
v -0.00874986 -0.118958 0.0149249
v -0.0196141 -0.0397341 0.00838336
v -0.00908609 -0.0747058 -0.0347542
v -0.0185441 -0.0463999 -0.0226272
v -0.0179423 -0.065464 -0.0127535
v -0.0179481 -0.0679254 0.0168772
v -0.0179323 -0.0920778 0.0254647
v -0.01777 -0.0691283 0.0109549
v -0.0108814 -0.104076 0.030859
v -0.010953 -0.103447 0.00673389
v -0.0109215 -0.12115 -0.00071617
v -0.010946 -0.114945 0.00539181
v -0.0179503 -0.0645584 -0.0287671
v -0.0109217 -0.102708 -0.0312286
v -0.0109352 -0.0913041 -0.00270478
v -0.0179503 -0.103613 -0.0304116
v -0.01795 -0.066319 0.0197429
v -0.0179336 -0.0600363 -0.012201
v -0.0178725 -0.0667992 -0.00971671
v -0.0179429 -0.0713951 -0.0216896
v -0.0232979 -0.124927 0.0143354
v -0.01795 -0.0652134 -0.0295088
v -0.0192705 -0.0745423 0.0349391
v -0.0179441 -0.122066 -0.0242345
v -0.0179491 -0.120797 -0.000420752
v -0.0181137 -0.0692843 0.00506962
v -0.0107455 -0.118252 -0.0153472
v 0.000280061 -0.117985 -0.0165766
v -0.0224521 -0.118628 0.011225
v -0.0109496 -0.0872361 -0.0359734
v -0.0179486 -0.0629586 0.0152859
v -0.0179494 -0.0683723 -0.015317
v -0.0108557 -0.0973539 -0.03413
v -0.01795 -0.0641059 0.00562887
v -0.0224891 -0.0976664 -0.0328451
v -0.0179354 -0.12985 0.00212118
v -0.01795 -0.115431 0.00459851
v -0.01795 -0.064525 0.0208242
v -0.0179503 -0.119548 -0.0104289
v -0.0179485 -0.0620767 0.00388628
v -0.01795 -0.121256 0.0045799
v -0.0179501 -0.062915 0.0278423
v -0.01795 -0.118032 -0.00748776
v -0.0182711 -0.121675 0.026304
v -0.0179585 -0.117463 0.0154544
v -0.0225732 -0.0637333 -0.0275014
v -0.0209606 -0.0602662 -0.0301097
v -0.0189852 -0.0647559 -0.0298016
v -0.0190058 -0.0608369 -0.0263747
v -0.0108348 -0.0493342 -0.00275917
v -0.0109123 -0.120318 0.00904204
v -0.01795 -0.116414 -0.00237681
v -0.01795 -0.116541 0.000834373
v -0.01795 -0.115355 -0.00393291
v -0.0225131 -0.0481783 0.00342857
v -0.0179497 -0.109757 0.0099815
v -0.0179461 -0.116645 -0.0156426
v -0.01795 -0.114708 0.0104025
v -0.0109517 -0.120781 -0.00629709
v -0.01795 -0.113518 0.0133875
v -0.01795 -0.111753 -7.636e-05
v -0.01795 -0.111644 0.00260798
v -0.01795 -0.114299 -0.00695153
v -0.01795 -0.111688 0.0165779
v -0.01795 -0.0594577 0.0120721
v -0.0109493 -0.0972271 -0.022568
v -0.0109499 -0.0984064 -0.0295616
v -0.0179505 -0.0604683 -0.0192009
v -0.0179502 -0.110624 -0.00736146
v -0.0179482 -0.108188 0.00741081
v -0.01095 -0.100991 0.0281251
v -0.017949 -0.107566 0.00829766
v -0.0179503 -0.10777 0.0284546
v -0.0109506 -0.0990758 -0.017795
v -0.0179503 -0.0590353 -0.0237845
v -0.0177335 -0.105736 0.00975494
v -0.0109493 -0.108101 0.0170809
v -0.0179516 -0.110327 -0.0248653
v -0.01795 -0.0611019 0.022731
v -0.0179497 -0.10972 -4.96863e-05
v -0.0179493 -0.109194 -0.00145184
v -0.01795 -0.107553 -0.00182336
v -0.0179388 -0.109448 0.00248679
v -0.01795 -0.10741 -0.00334909
v -0.01095 -0.101174 -0.0239431
v -0.017951 -0.10541 -0.00409554
v -0.0109497 -0.102316 0.0271312
v -0.0109499 -0.102915 -0.0167892
v -0.0179498 -0.109201 0.00498716
v -0.0109501 -0.105887 0.00875946
v -0.01795 -0.0590929 -0.0162479
v -0.0109548 -0.102256 0.00485074
v -0.01795 -0.108126 -0.0151023
v -0.017949 -0.0615349 0.0128089
v -0.0191126 -0.0463698 0.0207205
v -0.0180898 -0.101879 0.00337322
v -0.01795 -0.0611189 -0.0262577
v -0.010944 -0.104471 -0.0247729
v -0.0179481 -0.105817 -0.0173468
v -0.0179481 -0.106219 -0.0129819
v -0.01095 -0.104472 -0.00455439
v -0.0109564 -0.10211 -0.00245346
v -0.0179504 -0.106533 -0.0289592
v -0.0109487 -0.107665 -0.0147494
v -0.0179392 -0.059831 -0.000772177
v -0.0108693 -0.106602 -0.0295402
v -0.0109101 -0.104663 -0.0303293
v -0.01095 -0.106342 -0.0190145
v -0.0179395 -0.106364 0.0120124
v -0.0108194 -0.110315 -0.0259213
v -0.0109488 -0.107869 -0.0274812
v -0.01795 -0.103769 -0.0126648
v -0.01095 -0.110788 0.0141058
v -0.01795 -0.104085 -0.0188501
v -0.0179498 -0.105263 0.0160407
v -0.01095 -0.111009 -0.00665798
v -0.0109498 -0.110993 0.0114916
v -0.01095 -0.113316 0.00851277
v -0.01095 -0.109345 0.0157202
v -0.01095 -0.111195 0.00538351
v -0.0109496 -0.10994 -0.00177795
v -0.0179412 -0.105238 0.0134552
v -0.01795 -0.0590291 0.00464437
v -0.0109513 -0.116031 0.0121311
v -0.0109944 -0.114597 -0.0122536
v -0.0178317 -0.0663067 0.00109654
v -0.01795 -0.0630493 -0.0213831
v -0.0109639 -0.118485 0.0139024
v -0.0190202 -0.06662 0.0388794
v -0.01795 -0.057557 0.00210487
v -0.0179479 -0.102166 -0.0169119
v -0.01795 -0.107926 0.0372735
v -0.01795 -0.0996379 -0.0411384
v -0.0179506 -0.0572152 0.0212805
v -0.0183059 -0.052245 0.0292958
v -0.0179521 -0.051137 -0.0274489
v -0.0179495 -0.0465911 0.0197801
v -0.019727 -0.0436527 -0.0131784
v -0.01795 -0.102674 0.0286259
v -0.0179441 -0.101623 0.0137987
v -0.0179476 -0.0540502 0.0164319
v -0.01795 -0.0592328 0.00831673
v -0.01095 -0.0619324 0.0118162
v -0.010825 -0.0580858 0.0232064
v -0.01795 -0.057146 -0.0173095
v -0.0109039 -0.121547 0.00348824
v -0.0179528 -0.101008 0.0309117
v -0.0109127 -0.121347 0.0014306
v -0.01095 -0.115472 -0.00428496
v -0.01095 -0.115674 -0.00938808
v -0.01095 -0.117686 7.67562e-05
v -0.0109499 -0.116968 -0.00291164
v -0.01095 -0.116959 0.00899081
v -0.0109493 -0.109918 0.00161245
v -0.0109537 -0.105957 0.00103949
v -0.0109492 -0.10972 -0.00349959
v -0.0109494 -0.109618 0.00415817
v -0.0179502 -0.100033 -0.0326895
v -0.0109503 -0.103508 0.0127738
v -0.01795 -0.102087 -0.0211277
v -0.0109554 -0.102552 0.00306544
v -0.0109496 -0.103279 -0.0132754
v -0.0179489 -0.100275 -0.0185793
v -0.0109495 -0.103263 -0.0233647
v -0.0109561 -0.100319 -0.00920794
v -0.01095 -0.098971 -0.026265
v -0.01095 -0.0961049 -0.0276447
v -0.01095 -0.0942451 0.0268724
v -0.01095 -0.0923015 -0.0291532
v -0.0109493 -0.0945991 -0.0276462
v -0.0109554 -0.0680876 0.030914
v -0.0107599 -0.0950649 0.0348272
v -0.0109568 -0.0911843 0.0196703
v -0.01095 -0.09004 0.0291669
v -0.0109498 -0.090909 -0.0289935
v -0.0109273 -0.0911246 0.0354672
v -0.0109521 -0.0842556 -0.0335003
v -0.0179503 -0.0998389 0.0329176
v -0.0109519 -0.0895802 -0.0199687
v -0.01095 -0.0863627 -0.0237453
v -0.01095 -0.0864227 -0.0178785
v -0.0109087 -0.0861295 0.0356702
v -0.0109511 -0.0844309 0.0218664
v -0.0106802 -0.0842798 -0.0359884
v 0.0108466 -0.0656529 -0.034221
v -0.010955 -0.0791308 0.0248869
v -0.0109813 -0.0848337 0.0103972
v -0.0109347 -0.0734137 0.0113831
v -0.0109497 -0.0653567 -0.0159573
v -0.0109493 -0.0684998 0.0176399
v -0.0109665 -0.0706059 0.0326505
v -0.01095 -0.0686787 0.0274538
v -0.0109506 -0.0644756 -0.0283051
v -0.0109551 -0.0681831 0.00054691
v -0.0109502 -0.0671334 -0.00310277
v -0.0109528 -0.0693869 0.0106776
v -0.01095 -0.0667221 -0.0260589
v -0.010949 -0.0616089 0.00946594
v -0.0109503 -0.0638651 -0.0289141
v -0.0109562 -0.0638721 0.0216173
v -0.0109489 -0.0630353 -0.0117053
v -0.0109935 -0.0603916 0.0177496
v -0.01095 -0.0623106 -0.0215231
v -0.0107744 -0.0550628 -0.0190935
v -0.0109476 -0.0621523 0.0275647
v -0.0109498 -0.0590701 -0.0166992
v -0.0109711 -0.0570852 -0.000281983
v -0.0109042 -0.0548591 0.0184801
v -0.0107468 -0.051111 -0.011147
v -0.01795 -0.0563326 0.0159005
v -0.01795 -0.0547799 -0.0130641
v -0.01795 -0.0560477 0.0057737
v -0.0179529 -0.0520344 -0.00742295
v -0.0179495 -0.049748 0.000820414
v -0.0179492 -0.0502361 0.00808707
v -0.0074577 -0.102318 -0.0320341
v -0.00504767 -0.120759 -0.00915654
v -0.01795 -0.0963473 0.0315711
v -0.0105184 -0.050163 0.00867158
v -0.01795 -0.092607 0.0281871
v -0.01795 -0.0894551 0.0260655
v -0.0075751 -0.116054 -0.0196676
v -0.00733035 -0.121844 0.00169657
v -0.0179475 -0.0883055 0.0226463
v -0.0107434 -0.101574 0.0325708
v -0.00755728 -0.121696 -0.00157833
v -0.0058 -0.104849 0.0306148
v -0.00747039 -0.0866345 0.0360153
v -0.0069694 -0.0566981 0.0226609
v -0.00718033 -0.0522637 0.0157837
v -0.00561328 -0.122037 0.00216781
v -0.000389734 -0.101703 0.0329699
v -0.0179469 -0.100713 -0.0237557
v -0.00441203 -0.0874037 0.0364072
v -0.00544069 -0.122112 -0.00223896
v -0.000349178 -0.0524117 0.0160921
v -0.01795 -0.0564014 -0.0212607
v 0.0245168 -0.0854634 -0.032082
v -0.00673308 -0.0656474 0.030602
v -0.00543429 -0.0549853 0.0203625
v -0.01795 -0.0910953 0.0304963
v 0.0245247 -0.108851 -0.0212854
v -0.00346907 -0.121805 -0.00172251
v -0.0037705 -0.054888 0.0192412
v -0.00383275 -0.0596906 -0.0255959
v -0.0045653 -0.102153 -0.0323308
v -0.00377348 -0.116073 -0.0197302
v -0.00245245 -0.0896986 0.0365553
v -0.0179501 -0.0965817 0.0253083
v 0.00062223 -0.1159 0.0206157
v -0.0179483 -0.0922959 0.0210354
v -0.00504925 -0.106737 -0.0303466
v 0.000378512 -0.0638874 0.0295822
v -0.00344979 -0.0549546 0.0203453
v -0.0179509 -0.093068 0.0345229
v -0.01795 -0.0564865 -0.0122565
v 0.0047383 -0.0710075 0.0337435
v 0.00127658 -0.0689936 0.0324153
v -0.01795 -0.0539657 0.0108422
v -0.00183359 -0.0970168 -0.0345133
v -0.00018341 -0.120525 -0.00970044
v 0.000295376 -0.0515937 0.013915
v -0.000927783 -0.102335 -0.0323339
v -0.000366116 -0.121982 -0.00202616
v -0.01795 -0.0978453 -0.0288729
v 0.000945571 -0.115665 -0.0207035
v 0.00090005 -0.106505 -0.0298979
v 0.00488529 -0.121603 0.00406504
v 0.00086866 -0.0876331 0.0364164
v 0.00089789 -0.0550849 0.0203729
v -0.00944243 -0.122094 -0.00236041
v -0.00949263 -0.118371 0.0162604
v -0.00945433 -0.054988 0.0203321
v -0.0179513 -0.0519374 0.00689196
v -0.0095353 -0.115977 -0.0204818
v -0.00945134 -0.0878527 0.0365901
v -0.0179488 -0.0968208 -0.0210391
v -0.0106121 -0.066435 0.0303961
v -0.0141903 -0.068649 -0.00431542
v -0.0142979 -0.0666962 -0.00795816
v 0.00495675 -0.10022 -0.0332558
v 0.00405344 -0.0886058 -0.0361717
v 0.00408601 -0.0637027 -0.0289788
v 0.00496868 -0.0563098 -0.021128
v 0.0049754 -0.0496313 -0.00359404
v 0.00493632 -0.0520494 -0.0142263
v 0.00489071 -0.0524225 0.0154306
v 0.00494384 -0.0495359 0.00367564
v 0.00490446 -0.0643459 0.0291818
v 0.00393216 -0.0826976 0.0362202
v 0.00495557 -0.0892167 0.0359433
v 0.00498611 -0.100326 0.032982
v 0.00497649 -0.106666 0.0291333
v 0.00490383 -0.11468 0.0211833
v 0.00502749 -0.120931 -0.00417309
v 0.00497822 -0.118555 -0.0149916
v 0.00504077 -0.114657 -0.0213681
v 0.00491747 -0.106695 -0.0291757
v -0.0164632 -0.0561016 -0.00664594
v -0.0155841 -0.0630269 -0.00324977
v -0.0175199 -0.0587277 -0.0013669
v -0.0150062 -0.0842921 0.0016398
v -0.0138753 -0.0850736 -0.00173832
v -0.0132492 -0.0878885 0.000648382
v -0.01795 -0.0958856 -0.0292634
v -0.01795 -0.0908265 -0.0257284
v -0.01795 -0.0891102 -0.029795
v -0.0179476 -0.0949231 -0.0231284
v -0.01795 -0.093386 -0.0305463
v -0.0179437 -0.090216 -0.0256725
v -0.01795 -0.091609 0.0326534
v -0.0179511 -0.0524672 0.0128681
v -0.00747262 -0.054875 0.0189847
v -0.01795 -0.0935398 -0.0249912
v 0.00398586 -0.118471 0.0152644
v 0.00228584 -0.107063 0.0295014
v 0.00495327 -0.0818382 -0.0359717
v 0.00498871 -0.0708059 -0.0329341
v 0.00437505 -0.0570574 0.022359
v 0.00503259 -0.119535 -0.0199684
v 0.00503551 -0.124914 -9.4758e-06
v 0.00507045 -0.119808 0.0194996
v 0.00505196 -0.10521 0.0341037
v 0.00504414 -0.0857545 0.0394618
v 0.00503473 -0.0521025 0.0204569
v 0.00502663 -0.0461626 -2.27921e-05
v 0.00505556 -0.0511911 -0.0194979
v 0.00504415 -0.065808 -0.0341134
v 0.00504222 -0.0852425 -0.0394614
v 0.00503962 -0.105215 -0.0341195
v -0.0129288 -0.0753375 0.00808103
v -0.0179505 -0.0925695 -0.0279782
v -0.0179445 -0.0890423 -0.0234767
v -0.0170454 -0.0589953 -0.00630884
v -0.0164125 -0.0627318 -0.00792538
v -0.014498 -0.0620415 -0.0067815
v -0.01795 -0.0915733 -0.030807
v 0.00503741 -0.0658156 0.0341159
v -0.0125194 -0.0910741 -0.00047081
v -0.0111616 -0.097422 0.0080571
v -0.0126399 -0.0850748 0.00256253
v -0.0125333 -0.089258 0.0112389
v 0.00098683 -0.0548151 0.0176605
v 0.00099842 -0.0677672 0.030657
v 0.00100079 -0.0855683 0.0354209
v 0.00099548 -0.103182 0.0306859
v 0.00098679 -0.116172 0.0176867
v 0.000935655 -0.121149 0.000201887
v 0.00099622 -0.116182 -0.0176793
v 0.00099185 -0.103332 -0.0306434
v 0.0010445 -0.084739 -0.0358952
v -0.00944524 -0.101754 -0.0328707
v -0.0394654 -0.0804465 -0.0291646
v -0.0431379 -0.0791958 -0.021463
v -0.0392382 -0.079284 -0.0291681
v -0.0441465 -0.0858879 -0.0277408
v -0.044518 -0.0800162 -0.0294544
v -0.0384519 -0.079097 -0.0251814
v -0.0455044 -0.0789691 -0.0270775
v -0.0440367 -0.0848989 -0.0221467
v -0.0411712 -0.0780945 -0.0226637
v -0.0390784 -0.0852649 -0.0241988
v -0.0439471 -0.0782394 -0.022873
v -0.0466392 -0.0788369 -0.0267148
v -0.0405415 -0.0805257 -0.0311965
v -0.0475911 -0.079631 -0.0249383
v -0.0461453 -0.0793801 -0.0307636
v -0.036851 -0.0797126 -0.0269169
v -0.0388027 -0.0788082 -0.0215522
v -0.0444199 -0.0785942 -0.0206818
v -0.0454113 -0.0701389 -0.0249679
v -0.0427241 -0.0698894 -0.023506
v -0.0421786 -0.0712907 -0.0314853
v -0.0382095 -0.0705908 -0.027703
v -0.040389 -0.0712828 0.0313648
v -0.0465593 -0.0706197 0.0270044
v -0.0394867 -0.0701496 0.024995
v -0.0422151 -0.0698923 0.0235172
v -0.0425673 -0.0792685 0.0292659
v -0.0386916 -0.078926 0.026391
v -0.0459953 -0.0785484 0.0244949
v -0.0431503 -0.0782043 0.0227048
v -0.0470166 -0.0803195 0.0264693
v -0.0455685 -0.0791328 0.0280319
v -0.0457375 -0.0803711 0.0285577
v -0.0383577 -0.0860529 0.0241791
v -0.039097 -0.0787012 0.0233759
v -0.0433991 -0.0791415 0.021409
v -0.0480738 -0.0777306 0.0230355
v -0.0405417 -0.0786956 0.020635
v -0.0395968 -0.0804945 0.0304114
v -0.037315 -0.0796558 0.0250711
v -0.0456245 -0.0854882 0.0253395
v -0.0407731 -0.0859217 0.0277566
v -0.0443631 -0.085013 0.0226199
v -0.0408215 -0.0849449 0.0222012
v 0.0277158 -0.105102 0.00872204
v 0.0276636 -0.106528 -0.00257181
v 0.0275835 -0.101612 -0.014267
v 0.0275908 -0.087478 -0.0214284
v 0.0275835 -0.0722748 -0.0169772
v 0.0279979 -0.066084 0.00777588
v 0.0276008 -0.0642226 -0.00319676
v 0.0275099 -0.0959824 0.0186394
v 0.0279466 -0.087185 0.0219064
v 0.0275 -0.0765699 0.0190067
v 0.027557 -0.0679029 0.0124423
v 0.0275033 -0.117395 -0.00768406
v 0.0274712 -0.112528 0.0184556
v 0.0275292 -0.101048 -0.0289938
v 0.0274579 -0.0900298 0.0324809
v 0.0274939 -0.0816554 -0.0319031
v 0.0275207 -0.0685294 -0.0273201
v 0.0275194 -0.0645813 0.02538
v 0.0275299 -0.0526261 0.00106505
v -0.0451546 -0.131011 -0.00463794
v -0.0435837 -0.130934 0.00543908
v -0.0355988 -0.131016 -0.00087183
v -0.0434264 -0.120976 -0.00395441
v -0.0385156 -0.121007 -0.00318975
f 63 9 1
f 20 68 60
f 193 123 142
f 198 232 31
f 196 169 59
f 43 37 23
f 83 102 61
f 554 39 87
f 30 93 94
f 49 109 16
f 90 56 16
f 124 17 147
f 58 18 5
f 19 23 102
f 133 19 76
f 122 121 21
f 34 21 33
f 120 226 7
f 183 25 118
f 106 198 216
f 179 900 38
f 3 2 112
f 922 12 86
f 9 142 231
f 147 148 233
f 86 12 122
f 17 124 46
f 154 153 115
f 88 14 13
f 49 13 14
f 156 28 65
f 158 50 159
f 15 29 554
f 53 6 100
f 54 55 166
f 167 109 14
f 14 109 49
f 89 90 151
f 13 49 16
f 88 13 16
f 56 88 16
f 90 16 124
f 151 90 124
f 232 124 147
f 76 19 102
f 23 20 102
f 102 20 170
f 61 102 170
f 196 170 101
f 20 60 170
f 103 33 105
f 106 216 71
f 140 172 108
f 193 167 67
f 167 85 109
f 193 67 123
f 7 226 78
f 7 78 11
f 11 78 62
f 63 1 173
f 174 173 1
f 64 35 255
f 255 175 64
f 156 22 28
f 175 65 110
f 175 110 25
f 167 111 67
f 112 240 113
f 10 112 176
f 10 176 23
f 22 115 28
f 28 115 43
f 153 116 3
f 153 3 10
f 115 153 10
f 115 10 37
f 43 115 37
f 19 43 23
f 16 922 124
f 87 39 183
f 184 85 109
f 220 99 8
f 220 8 221
f 127 100 129
f 4 131 155
f 101 202 130
f 18 32 131
f 25 43 133
f 33 21 134
f 26 104 105
f 167 518 85
f 62 409 135
f 21 409 136
f 2 138 221
f 80 236 163
f 140 108 81
f 144 7 143
f 145 146 121
f 149 190 60
f 83 76 102
f 109 195 16
f 38 232 198
f 199 27 32
f 192 59 169
f 175 156 65
f 65 28 42
f 207 89 259
f 89 207 90
f 207 259 90
f 158 157 50
f 159 50 161
f 209 208 158
f 210 93 30
f 4 155 164
f 452 127 128
f 167 14 88
f 89 123 259
f 90 259 56
f 151 124 232
f 170 60 202
f 69 57 48
f 200 169 196
f 196 59 61
f 196 61 170
f 223 214 69
f 69 214 57
f 104 103 105
f 77 106 71
f 82 141 107
f 57 214 171
f 57 171 18
f 9 193 142
f 118 25 200
f 200 25 169
f 119 178 20
f 11 62 121
f 106 108 179
f 12 11 122
f 104 216 103
f 116 2 3
f 922 86 124
f 40 51 52
f 154 165 72
f 188 219 189
f 129 100 74
f 4 137 186
f 4 186 131
f 163 75 97
f 97 75 98
f 154 188 153
f 218 40 2
f 2 40 185
f 2 221 177
f 68 221 41
f 202 190 74
f 76 83 59
f 192 25 76
f 193 9 63
f 140 106 77
f 193 518 167
f 85 518 117
f 78 279 409
f 78 409 62
f 135 409 21
f 105 134 535
f 205 154 115
f 58 132 236
f 98 18 206
f 227 18 137
f 79 68 228
f 203 47 218
f 229 194 6
f 452 201 73
f 201 41 73
f 81 108 106
f 9 231 142
f 143 226 144
f 145 62 135
f 146 145 121
f 232 147 233
f 60 190 149
f 101 170 150
f 170 202 150
f 84 16 195
f 117 12 84
f 85 117 84
f 109 85 84
f 86 122 46
f 124 86 46
f 9 142 182
f 27 199 234
f 165 154 45
f 205 45 154
f 6 194 130
f 28 43 42
f 64 175 25
f 117 120 12
f 142 89 151
f 1 9 215
f 235 213 241
f 235 241 22
f 117 226 120
f 183 35 64
f 183 64 25
f 171 214 118
f 214 183 118
f 178 177 20
f 1 215 217
f 141 1 107
f 107 1 217
f 107 217 172
f 172 217 179
f 108 172 179
f 11 121 122
f 179 198 106
f 17 122 168
f 168 122 21
f 168 21 34
f 198 31 216
f 216 31 180
f 216 180 103
f 180 34 33
f 180 33 103
f 217 900 179
f 900 181 38
f 181 151 38
f 38 151 232
f 142 123 89
f 116 218 2
f 112 2 177
f 20 177 68
f 60 68 190
f 187 214 223
f 223 69 48
f 39 224 70
f 224 36 213
f 39 70 35
f 58 57 18
f 7 11 12
f 120 7 12
f 214 187 242
f 214 242 183
f 109 85 125
f 109 125 184
f 24 104 71
f 96 51 40
f 40 52 44
f 126 96 218
f 218 96 40
f 185 40 44
f 154 72 188
f 188 72 219
f 221 8 73
f 41 221 73
f 128 127 129
f 100 6 130
f 100 130 74
f 155 131 211
f 131 191 211
f 163 132 75
f 132 222 75
f 222 5 75
f 75 5 98
f 187 94 93
f 187 223 94
f 94 223 48
f 94 48 95
f 212 224 29
f 224 39 29
f 29 39 554
f 224 212 36
f 116 188 189
f 68 177 221
f 202 60 190
f 190 129 74
f 130 202 74
f 186 18 131
f 32 196 131
f 196 101 191
f 131 196 191
f 132 58 5
f 132 5 222
f 98 5 18
f 43 19 133
f 59 192 225
f 110 65 42
f 110 42 43
f 25 110 43
f 25 133 76
f 225 192 76
f 225 76 59
f 173 174 82
f 21 121 135
f 26 71 104
f 105 33 134
f 117 577 226
f 243 63 173
f 243 173 82
f 244 82 107
f 244 107 172
f 244 172 140
f 77 71 537
f 71 26 537
f 26 105 535
f 36 205 115
f 236 48 204
f 204 48 58
f 204 58 236
f 206 18 227
f 137 18 186
f 194 155 101
f 101 155 191
f 194 101 130
f 228 68 41
f 44 2 185
f 44 138 2
f 116 203 218
f 126 218 47
f 510 165 45
f 45 212 510
f 554 87 245
f 132 163 236
f 206 356 98
f 356 206 137
f 194 229 155
f 201 452 128
f 44 52 139
f 138 44 139
f 138 139 220
f 203 508 509
f 47 203 509
f 230 246 34
f 34 246 33
f 230 34 33
f 246 230 33
f 24 71 216
f 24 216 104
f 106 140 81
f 174 1 141
f 82 174 141
f 85 184 125
f 7 226 143
f 226 7 144
f 121 62 145
f 145 135 121
f 31 232 233
f 95 48 236
f 109 84 195
f 46 122 17
f 27 196 197
f 32 27 197
f 197 196 32
f 215 9 217
f 217 9 182
f 182 142 151
f 179 38 198
f 27 234 152
f 18 199 32
f 18 171 199
f 255 156 175
f 48 57 58
f 189 219 203
f 189 203 116
f 68 79 190
f 190 79 129
f 153 188 116
f 187 245 87
f 101 150 202
f 187 93 245
f 187 87 242
f 87 183 242
f 212 45 205
f 36 212 205
f 138 220 221
f 79 228 201
f 228 41 201
f 79 201 129
f 201 128 129
f 206 227 137
f 191 155 211
f 25 192 169
f 83 61 59
f 39 35 183
f 220 139 99
f 203 219 508
f 126 47 96
f 47 509 96
f 213 36 241
f 233 34 180
f 31 233 180
f 233 168 34
f 148 168 233
f 147 17 148
f 17 168 148
f 55 54 247
f 248 166 247
f 166 55 247
f 250 112 10
f 23 37 10
f 250 3 112
f 10 3 250
f 249 118 200
f 199 251 249
f 251 118 249
f 171 118 251
f 199 171 251
f 64 252 253
f 252 64 255
f 64 253 252
f 252 255 64
f 22 254 115
f 254 36 115
f 241 254 22
f 254 241 36
f 239 235 22
f 35 238 255
f 238 256 255
f 256 239 22
f 238 239 256
f 255 257 156
f 257 256 156
f 256 22 156
f 255 256 257
f 258 88 56
f 258 260 88
f 259 258 56
f 70 224 261
f 224 237 261
f 224 213 237
f 35 70 261
f 213 235 237
f 237 247 261
f 247 35 261
f 235 247 237
f 235 239 247
f 248 35 247
f 239 248 247
f 238 35 248
f 239 238 248
f 260 167 88
f 111 167 260
f 258 66 260
f 66 111 260
f 123 66 259
f 66 258 259
f 23 119 20
f 23 114 119
f 114 240 119
f 240 178 119
f 240 112 178
f 112 177 178
f 152 200 196
f 27 152 196
f 272 270 273
f 270 274 273
f 304 268 269
f 275 276 229
f 747 277 282
f 452 374 289
f 319 320 308
f 324 318 315
f 325 326 722
f 320 729 313
f 331 320 325
f 333 334 328
f 720 369 338
f 374 452 367
f 355 290 350
f 629 365 407
f 479 160 366
f 365 382 407
f 403 341 402
f 403 343 341
f 344 346 343
f 405 348 346
f 348 406 346
f 349 353 406
f 353 454 406
f 406 454 775
f 409 279 280
f 360 410 411
f 411 410 361
f 411 361 412
f 361 363 412
f 629 407 446
f 368 415 416
f 415 372 416
f 416 372 418
f 418 372 419
f 372 373 419
f 376 419 373
f 420 378 422
f 378 423 380
f 380 423 425
f 423 424 425
f 381 426 424
f 428 429 427
f 446 407 281
f 383 428 427
f 407 382 266
f 391 434 433
f 433 434 387
f 391 393 434
f 438 436 437
f 290 453 421
f 439 397 438
f 438 397 395
f 362 290 421
f 439 398 440
f 439 440 397
f 441 400 341
f 400 402 341
f 398 441 440
f 266 382 442
f 280 443 444
f 394 280 463
f 403 402 400
f 51 314 445
f 358 408 410
f 368 413 415
f 378 420 423
f 405 464 348
f 464 405 344
f 464 344 465
f 464 467 349
f 348 464 349
f 465 344 403
f 408 454 410
f 454 455 410
f 465 398 439
f 465 439 456
f 410 455 361
f 361 455 363
f 456 439 438
f 363 457 364
f 364 457 413
f 471 391 433
f 471 433 459
f 415 457 372
f 459 433 432
f 372 457 460
f 372 460 373
f 459 432 430
f 373 460 420
f 473 430 428
f 460 461 420
f 473 428 461
f 461 428 381
f 423 461 424
f 442 448 462
f 451 446 466
f 446 281 466
f 53 100 399
f 50 323 162
f 467 469 454
f 454 469 455
f 363 455 457
f 460 457 472
f 475 466 290
f 466 281 479
f 474 467 464
f 480 474 464
f 481 480 465
f 480 464 465
f 163 97 417
f 478 465 477
f 447 283 483
f 477 465 470
f 477 470 471
f 462 283 493
f 477 471 485
f 482 486 455
f 455 486 457
f 375 324 512
f 485 471 487
f 487 471 476
f 476 471 459
f 457 488 450
f 324 315 512
f 457 450 472
f 461 472 490
f 489 473 492
f 473 461 492
f 484 229 399
f 452 289 399
f 290 466 479
f 290 479 453
f 444 453 495
f 453 501 495
f 283 447 498
f 493 283 498
f 289 484 399
f 453 479 496
f 409 280 497
f 157 91 92
f 158 159 160
f 157 92 50
f 50 162 161
f 323 493 498
f 453 496 501
f 479 366 496
f 208 407 157
f 510 500 494
f 510 494 505
f 498 504 323
f 157 407 266
f 559 496 506
f 541 496 559
f 514 510 517
f 208 209 281
f 366 160 496
f 498 511 504
f 370 375 512
f 449 370 512
f 323 552 515
f 514 517 516
f 506 323 515
f 505 513 503
f 407 208 281
f 559 506 515
f 516 517 508
f 740 638 807
f 559 515 659
f 518 193 520
f 117 518 577
f 520 193 63
f 157 266 91
f 740 807 291
f 520 63 243
f 496 541 539
f 226 577 522
f 508 517 509
f 505 503 80
f 78 226 279
f 226 522 279
f 552 319 525
f 243 82 244
f 265 264 271
f 91 266 442
f 525 319 309
f 523 137 4
f 272 271 270
f 244 140 531
f 525 309 527
f 531 140 77
f 509 517 276
f 21 136 668
f 531 77 537
f 209 158 281
f 510 505 80
f 134 21 535
f 21 668 535
f 525 527 746
f 517 510 80
f 537 26 535
f 409 497 284
f 746 527 583
f 99 374 8
f 323 504 538
f 544 558 545
f 549 631 547
f 621 382 548
f 541 559 564
f 284 497 550
f 497 539 550
f 504 511 601
f 468 509 568
f 323 551 552
f 264 299 271
f 294 677 741
f 160 159 506
f 245 513 505
f 500 29 15
f 523 4 628
f 280 790 724
f 388 356 137
f 494 500 15
f 574 569 558
f 578 661 534
f 554 245 505
f 569 557 558
f 562 554 505
f 409 284 575
f 314 468 445
f 494 554 505
f 505 554 562
f 558 557 572
f 560 611 643
f 536 499 262
f 458 417 556
f 569 574 578
f 559 659 567
f 91 442 462
f 558 572 586
f 80 458 556
f 568 509 276
f 517 80 556
f 284 571 575
f 8 374 367
f 468 568 276
f 577 569 578
f 596 572 590
f 572 557 590
f 499 449 512
f 578 574 593
f 496 160 506
f 579 581 582
f 299 300 737
f 581 579 580
f 579 582 580
f 576 572 587
f 289 275 588
f 590 557 243
f 611 590 243
f 289 588 484
f 588 275 484
f 136 409 575
f 587 572 613
f 585 594 616
f 517 556 388
f 613 572 614
f 586 595 622
f 574 605 589
f 577 578 606
f 591 609 642
f 51 445 52
f 52 445 139
f 635 688 548
f 575 564 612
f 96 509 468
f 543 873 548
f 417 97 556
f 513 210 30
f 594 629 616
f 615 596 617
f 567 659 675
f 72 165 514
f 513 30 503
f 514 165 510
f 595 629 622
f 29 500 212
f 212 500 510
f 570 629 603
f 626 611 633
f 15 554 494
f 445 468 139
f 620 532 604
f 210 513 93
f 468 276 139
f 93 513 245
f 91 462 493
f 72 514 219
f 503 95 80
f 95 236 80
f 552 525 638
f 613 614 629
f 629 614 365
f 515 552 638
f 615 617 365
f 80 163 458
f 573 659 656
f 219 514 516
f 97 98 356
f 97 356 556
f 158 160 479
f 162 323 506
f 662 137 523
f 569 518 520
f 569 520 557
f 659 515 663
f 518 569 577
f 557 520 243
f 638 525 867
f 155 628 164
f 522 665 279
f 628 155 229
f 522 577 680
f 666 243 244
f 666 244 315
f 577 606 680
f 157 158 208
f 512 315 244
f 136 575 667
f 512 244 531
f 669 512 531
f 669 531 537
f 6 53 229
f 668 670 535
f 535 670 269
f 269 537 535
f 575 627 667
f 515 638 308
f 127 452 671
f 308 638 740
f 452 73 367
f 538 504 789
f 628 4 164
f 73 8 367
f 515 308 292
f 515 292 663
f 663 292 807
f 807 292 291
f 320 659 573
f 647 664 382
f 320 573 293
f 603 629 609
f 293 573 656
f 293 656 674
f 293 674 285
f 559 313 627
f 627 313 676
f 627 676 677
f 627 677 667
f 589 605 609
f 99 139 581
f 281 158 479
f 729 541 306
f 306 541 564
f 306 564 307
f 307 564 303
f 564 575 303
f 575 738 303
f 661 610 652
f 682 688 654
f 659 320 301
f 658 649 635
f 653 545 543
f 643 644 639
f 659 301 675
f 639 641 640
f 658 635 634
f 654 688 635
f 556 356 388
f 688 687 694
f 675 301 305
f 694 690 625
f 675 305 674
f 543 623 873
f 674 305 741
f 637 635 698
f 697 618 566
f 695 698 548
f 618 697 607
f 698 635 548
f 694 625 548
f 688 694 548
f 625 543 548
f 873 692 390
f 313 559 731
f 693 696 382
f 674 741 285
f 731 559 598
f 697 548 607
f 365 633 382
f 459 473 489
f 499 512 669
f 667 677 294
f 457 486 488
f 731 598 294
f 30 94 503
f 497 724 704
f 873 390 379
f 469 482 455
f 598 667 294
f 708 392 712
f 703 702 563
f 390 706 379
f 379 701 720
f 481 465 478
f 498 328 511
f 280 715 354
f 548 837 333
f 788 705 709
f 392 607 333
f 267 788 709
f 607 548 333
f 522 680 711
f 712 392 333
f 511 328 601
f 712 714 713
f 601 328 297
f 714 712 333
f 712 713 359
f 720 384 716
f 716 371 369
f 601 297 287
f 645 632 382
f 720 716 369
f 714 333 347
f 601 287 268
f 574 679 584
f 338 369 352
f 369 351 352
f 719 715 342
f 558 592 544
f 326 504 722
f 347 332 336
f 347 333 329
f 722 504 565
f 460 472 461
f 642 609 446
f 99 581 374
f 357 710 340
f 347 329 330
f 334 720 331
f 331 720 721
f 345 347 335
f 722 565 624
f 337 354 339
f 337 339 338
f 720 338 721
f 592 572 560
f 334 331 325
f 328 334 325
f 333 328 312
f 722 624 739
f 325 320 326
f 739 624 304
f 644 636 639
f 739 304 742
f 326 320 319
f 320 721 729
f 498 329 553
f 721 327 321
f 470 456 471
f 547 691 566
f 470 465 456
f 721 723 322
f 327 724 321
f 566 318 396
f 553 329 316
f 321 724 725
f 563 375 717
f 312 328 736
f 326 319 310
f 320 727 308
f 553 316 608
f 319 308 728
f 313 729 306
f 723 317 322
f 710 449 340
f 91 493 92
f 162 506 161
f 264 555 546
f 608 316 300
f 320 313 301
f 811 738 733
f 264 546 732
f 727 320 293
f 308 727 292
f 728 308 740
f 313 735 676
f 299 630 608
f 297 328 287
f 732 726 299
f 307 303 738
f 299 608 300
f 311 722 739
f 328 498 528
f 549 636 666
f 676 735 677
f 735 738 677
f 737 268 287
f 328 528 736
f 302 731 295
f 461 381 424
f 736 528 660
f 420 461 423
f 731 294 295
f 736 737 300
f 459 430 473
f 636 611 666
f 413 457 415
f 288 310 742
f 471 438 391
f 456 438 471
f 736 660 737
f 293 285 291
f 527 309 583
f 737 660 268
f 611 243 666
f 465 400 398
f 465 403 400
f 740 291 752
f 349 467 454
f 296 583 435
f 504 326 310
f 581 580 374
f 504 310 288
f 504 288 744
f 264 732 299
f 744 288 304
f 742 435 583
f 717 357 340
f 304 288 742
f 717 340 536
f 566 396 815
f 396 563 815
f 319 552 734
f 544 592 560
f 734 552 551
f 659 663 745
f 661 584 534
f 578 783 532
f 734 551 296
f 606 578 532
f 376 373 420
f 401 758 705
f 296 551 746
f 709 705 715
f 280 354 790
f 497 280 724
f 747 748 277
f 748 752 277
f 353 349 454
f 271 299 270
f 749 566 530
f 530 566 815
f 759 560 750
f 296 746 583
f 750 560 561
f 219 516 508
f 711 751 758
f 752 763 277
f 647 631 549
f 631 647 621
f 647 382 621
f 758 751 389
f 483 332 499
f 499 332 264
f 558 570 545
f 570 603 545
f 545 603 543
f 603 609 543
f 541 721 539
f 539 721 322
f 539 322 550
f 751 753 389
f 704 284 317
f 284 550 322
f 317 284 322
f 680 540 701
f 542 680 701
f 701 540 720
f 540 475 720
f 400 441 398
f 753 754 389
f 389 754 384
f 754 757 384
f 758 529 533
f 438 395 436
f 438 437 393
f 757 290 384
f 438 393 391
f 680 606 542
f 606 532 542
f 433 387 431
f 638 834 807
f 432 431 385
f 429 428 385
f 430 385 428
f 432 385 430
f 680 542 701
f 426 428 427
f 428 383 427
f 540 680 379
f 428 426 381
f 680 701 379
f 466 540 379
f 779 749 530
f 756 764 534
f 378 380 422
f 532 519 760
f 377 420 422
f 529 765 533
f 705 788 371
f 420 377 376
f 533 767 761
f 768 759 750
f 788 355 371
f 371 355 369
f 660 770 268
f 354 823 790
f 355 350 369
f 414 413 368
f 771 364 414
f 412 364 771
f 363 364 412
f 532 783 519
f 672 606 782
f 667 743 674
f 350 290 369
f 774 711 401
f 775 410 360
f 358 410 775
f 776 768 750
f 711 758 401
f 408 358 775
f 743 675 674
f 503 94 95
f 774 401 707
f 349 406 348
f 773 762 777
f 286 774 707
f 405 346 344
f 290 286 384
f 286 707 384
f 533 781 767
f 343 403 344
f 265 271 778
f 778 271 272
f 779 530 793
f 532 606 604
f 448 766 798
f 606 672 604
f 672 782 604
f 604 782 706
f 609 629 446
f 782 784 706
f 706 784 379
f 136 667 674
f 433 431 432
f 784 466 379
f 496 721 521
f 762 786 787
f 521 721 321
f 724 497 725
f 522 711 788
f 796 779 793
f 497 521 725
f 665 522 788
f 388 662 628
f 521 321 725
f 673 446 451
f 504 744 789
f 263 843 370
f 364 413 414
f 541 729 733
f 541 733 571
f 273 274 819
f 819 274 278
f 571 733 575
f 382 696 442
f 738 575 733
f 674 656 792
f 408 775 454
f 721 496 723
f 497 704 317
f 723 496 539
f 723 539 317
f 539 497 317
f 884 717 536
f 766 448 442
f 139 276 275
f 715 280 394
f 724 790 791
f 277 795 278
f 816 778 272
f 816 272 273
f 274 277 278
f 715 394 342
f 536 262 265
f 799 780 785
f 794 750 561
f 764 881 801
f 394 463 342
f 519 783 849
f 760 519 849
f 767 781 802
f 777 786 803
f 763 795 277
f 804 544 560
f 342 463 719
f 711 680 751
f 678 601 268
f 584 805 534
f 463 453 719
f 677 806 741
f 453 338 719
f 755 808 526
f 362 267 351
f 542 532 760
f 267 709 351
f 809 533 761
f 759 804 560
f 274 742 583
f 274 583 277
f 289 139 275
f 526 643 639
f 526 639 785
f 679 756 534
f 584 534 805
f 705 533 809
f 738 811 762
f 369 290 351
f 677 762 806
f 291 763 752
f 290 362 351
f 443 280 354
f 812 319 728
f 319 812 813
f 482 814 815
f 443 354 337
f 674 792 845
f 488 851 450
f 450 816 817
f 450 817 472
f 490 818 461
f 444 443 337
f 820 489 492
f 821 820 492
f 822 459 489
f 823 487 476
f 790 823 476
f 825 477 485
f 824 825 485
f 826 827 478
f 801 474 480
f 848 801 480
f 469 830 831
f 583 282 277
f 469 831 482
f 521 497 724
f 327 496 521
f 338 453 337
f 327 521 724
f 501 338 495
f 339 495 338
f 309 868 832
f 309 832 282
f 453 444 337
f 309 282 583
f 812 728 833
f 833 728 740
f 833 740 834
f 714 283 298
f 714 298 713
f 713 298 359
f 359 298 404
f 359 449 340
f 483 347 336
f 602 590 658
f 619 602 658
f 626 633 637
f 592 558 684
f 637 633 635
f 390 451 706
f 558 586 684
f 867 525 282
f 333 837 836
f 270 287 274
f 835 334 836
f 696 693 618
f 618 691 566
f 696 618 607
f 442 696 607
f 700 810 838
f 684 586 690
f 448 810 392
f 700 838 396
f 766 607 699
f 766 699 600
f 766 600 318
f 318 600 566
f 586 622 690
f 641 636 640
f 632 641 695
f 382 632 548
f 347 498 447
f 347 507 335
f 335 546 726
f 726 546 630
f 462 708 712
f 708 840 375
f 708 375 717
f 841 448 392
f 703 841 392
f 842 703 324
f 324 703 563
f 386 843 712
f 690 622 625
f 843 386 710
f 843 710 370
f 370 710 357
f 574 584 657
f 593 574 657
f 593 657 646
f 655 593 646
f 655 692 873
f 446 655 873
f 622 629 625
f 674 845 668
f 581 139 289
f 661 597 610
f 610 648 390
f 572 560 682
f 572 682 654
f 614 572 654
f 585 572 685
f 614 654 635
f 365 614 635
f 592 572 685
f 685 585 687
f 687 616 694
f 572 596 683
f 560 572 683
f 572 592 685
f 683 596 689
f 615 365 635
f 689 615 635
f 574 558 681
f 574 681 679
f 605 574 651
f 605 651 623
f 609 605 543
f 574 591 686
f 584 574 686
f 686 591 650
f 591 642 650
f 650 642 873
f 642 446 873
f 586 572 592
f 586 592 684
f 595 586 690
f 629 595 690
f 463 280 719
f 453 463 719
f 338 453 719
f 594 585 687
f 721 541 729
f 729 541 571
f 729 571 733
f 571 284 811
f 571 811 733
f 559 313 564
f 564 313 306
f 585 685 687
f 798 766 318
f 564 306 307
f 612 307 738
f 575 612 738
f 782 606 620
f 782 604 706
f 784 782 706
f 629 594 687
f 844 788 705
f 844 705 371
f 355 844 371
f 355 371 716
f 290 355 716
f 709 267 351
f 362 421 352
f 351 362 352
f 136 674 668
f 421 338 352
f 680 758 389
f 753 680 389
f 753 389 384
f 757 753 384
f 475 757 720
f 788 774 401
f 401 774 707
f 774 286 384
f 707 774 384
f 286 290 716
f 384 286 716
f 319 538 310
f 310 789 742
f 629 687 688
f 504 325 565
f 565 325 722
f 565 722 311
f 565 311 624
f 624 311 739
f 624 739 268
f 268 739 742
f 551 319 734
f 551 734 296
f 551 296 435
f 333 498 553
f 333 553 329
f 329 553 316
f 316 608 770
f 316 770 300
f 502 347 330
f 524 330 730
f 630 730 299
f 325 504 328
f 328 601 287
f 679 574 651
f 287 678 268
f 287 268 742
f 528 333 312
f 660 312 736
f 770 736 300
f 313 559 567
f 313 567 301
f 574 589 651
f 301 675 305
f 305 743 667
f 305 667 741
f 659 727 293
f 659 293 656
f 656 293 792
f 845 293 291
f 313 559 627
f 313 627 735
f 575 738 735
f 627 575 735
f 559 313 731
f 559 731 598
f 598 731 302
f 624 268 304
f 598 302 295
f 598 295 667
f 667 295 294
f 727 659 292
f 292 659 745
f 292 845 291
f 651 589 623
f 807 740 748
f 748 740 752
f 340 449 536
f 811 772 762
f 623 589 873
f 589 609 873
f 762 773 846
f 828 801 797
f 828 797 829
f 570 558 545
f 829 799 830
f 558 544 545
f 830 799 831
f 849 826 825
f 851 265 816
f 570 545 653
f 791 790 822
f 629 570 543
f 795 852 820
f 570 653 543
f 279 665 788
f 630 546 669
f 629 543 625
f 582 581 289
f 560 590 658
f 762 787 777
f 801 881 797
f 796 793 814
f 814 793 815
f 658 590 649
f 555 499 669
f 816 273 817
f 590 602 649
f 819 278 818
f 278 821 818
f 649 602 635
f 788 711 774
f 602 619 635
f 546 555 669
f 619 365 635
f 560 572 682
f 279 788 267
f 797 794 829
f 794 561 799
f 572 576 682
f 799 800 831
f 831 800 796
f 751 680 753
f 781 849 825
f 802 781 824
f 802 824 823
f 815 884 850
f 576 587 682
f 850 884 536
f 850 536 851
f 803 786 852
f 803 852 769
f 769 852 795
f 587 613 682
f 278 795 821
f 682 613 688
f 448 841 462
f 853 830 469
f 847 841 870
f 829 469 467
f 613 629 688
f 853 829 830
f 474 828 467
f 841 842 870
f 590 560 683
f 854 801 828
f 855 848 480
f 596 590 683
f 855 480 827
f 827 480 481
f 848 855 827
f 856 478 825
f 825 478 477
f 596 683 689
f 826 856 825
f 617 596 689
f 318 691 315
f 823 485 487
f 365 617 635
f 691 549 315
f 871 476 822
f 617 689 635
f 852 489 858
f 858 489 491
f 584 578 657
f 549 666 315
f 489 820 491
f 578 593 657
f 657 593 646
f 745 663 807
f 461 818 492
f 818 821 859
f 472 860 490
f 817 860 472
f 860 817 819
f 593 655 646
f 718 816 450
f 646 655 692
f 450 851 718
f 851 861 718
f 861 851 816
f 862 850 488
f 692 655 390
f 486 815 488
f 815 862 488
f 655 446 390
f 862 815 850
f 591 574 686
f 845 745 807
f 574 584 686
f 863 831 814
f 331 864 320
f 864 331 721
f 320 864 721
f 706 451 784
f 609 591 650
f 390 673 451
f 338 501 721
f 591 686 650
f 721 501 496
f 721 496 327
f 283 714 347
f 365 619 635
f 619 634 635
f 609 650 873
f 283 712 298
f 298 712 404
f 404 712 359
f 404 359 449
f 789 744 304
f 449 359 340
f 462 865 839
f 865 392 708
f 865 462 392
f 667 294 741
f 742 304 435
f 726 630 299
f 717 375 370
f 717 370 357
f 396 324 563
f 788 401 705
f 267 709 715
f 280 267 715
f 865 708 717
f 444 495 339
f 354 444 339
f 483 336 332
f 611 626 637
f 643 611 637
f 658 590 560
f 865 717 375
f 283 866 712
f 866 386 712
f 838 318 324
f 159 161 506
f 867 833 834
f 868 867 832
f 386 866 710
f 812 833 869
f 813 812 869
f 710 866 263
f 833 868 869
f 808 560 643
f 710 263 370
f 806 762 846
f 482 863 814
f 710 370 449
f 718 861 816
f 746 551 304
f 818 859 492
f 447 347 345
f 784 451 466
f 859 821 492
f 447 345 507
f 826 478 856
f 507 345 335
f 854 474 801
f 474 854 828
f 638 867 834
f 507 335 546
f 868 813 869
f 790 476 871
f 546 335 726
f 580 582 289
f 868 833 867
f 546 726 732
f 590 611 560
f 449 499 536
f 329 498 330
f 330 498 502
f 330 502 524
f 330 524 730
f 374 580 289
f 730 524 299
f 299 524 630
f 282 525 746
f 347 447 332
f 332 447 483
f 517 388 628
f 51 96 314
f 229 53 399
f 332 483 499
f 837 872 874
f 872 873 874
f 873 875 874
f 332 499 264
f 831 863 482
f 873 379 875
f 264 499 555
f 639 636 641
f 834 740 807
f 636 632 641
f 845 807 670
f 819 490 860
f 820 852 858
f 820 858 491
f 790 871 822
f 822 476 459
f 824 857 823
f 857 485 823
f 641 632 695
f 824 485 857
f 632 645 695
f 695 645 698
f 645 382 698
f 839 865 840
f 276 517 229
f 96 468 314
f 664 647 621
f 334 874 720
f 467 828 829
f 853 469 829
f 874 875 720
f 647 631 621
f 462 843 866
f 631 647 549
f 795 820 821
f 279 267 280
f 668 845 670
f 786 822 852
f 786 791 822
f 851 536 265
f 781 825 824
f 765 849 781
f 783 827 849
f 462 866 283
f 783 848 827
f 829 794 799
f 548 873 872
f 631 549 691
f 631 691 547
f 807 748 670
f 382 664 548
f 664 621 548
f 628 662 523
f 611 644 643
f 770 608 669
f 780 526 785
f 548 872 837
f 644 611 636
f 817 273 819
f 608 630 669
f 671 399 100
f 92 493 50
f 333 836 334
f 633 611 637
f 831 796 814
f 611 643 637
f 382 633 698
f 633 637 698
f 292 745 845
f 540 466 475
f 792 293 845
f 810 599 838
f 305 675 743
f 301 567 675
f 660 736 770
f 528 312 660
f 498 333 528
f 838 599 700
f 287 601 678
f 328 504 601
f 524 730 630
f 502 330 524
f 498 347 502
f 316 553 608
f 599 810 392
f 551 435 304
f 323 319 551
f 742 789 304
f 310 538 789
f 810 448 392
f 319 323 538
f 757 384 720
f 875 379 720
f 453 338 421
f 267 362 351
f 782 620 604
f 606 532 620
f 838 700 396
f 564 307 612
f 280 444 354
f 838 396 318
f 280 715 719
f 629 690 694
f 586 684 690
f 741 876 285
f 605 623 543
f 574 679 651
f 877 791 786
f 596 615 689
f 284 704 877
f 284 877 811
f 616 629 694
f 878 802 823
f 585 616 687
f 703 841 847
f 572 585 685
f 715 878 354
f 354 878 823
f 648 673 390
f 879 849 765
f 597 648 610
f 578 597 661
f 655 646 692
f 517 628 229
f 458 163 417
f 680 542 879
f 680 879 758
f 843 462 712
f 848 783 880
f 841 703 842
f 462 841 392
f 708 839 840
f 708 462 839
f 335 507 546
f 347 447 507
f 681 558 881
f 881 558 544
f 632 695 548
f 841 703 392
f 754 753 757
f 640 636 549
f 641 632 636
f 799 561 882
f 766 442 607
f 396 838 324
f 810 599 392
f 810 700 599
f 703 847 870
f 800 883 796
f 566 691 318
f 640 549 883
f 618 693 691
f 883 549 547
f 835 874 334
f 703 870 702
f 815 563 884
f 835 837 874
f 563 717 884
f 262 499 265
f 836 837 835
f 265 499 264
f 633 365 635
f 619 658 634
f 283 347 483
f 737 287 270
f 359 404 449
f 702 870 563
f 832 867 282
f 813 868 309
f 563 870 375
f 741 806 846
f 876 741 846
f 846 773 777
f 876 846 777
f 849 827 826
f 827 481 478
f 268 770 537
f 876 777 803
f 876 803 769
f 852 822 489
f 291 285 763
f 285 876 763
f 763 876 769
f 490 819 818
f 488 850 851
f 482 815 486
f 319 813 309
f 388 137 662
f 693 697 691
f 724 791 877
f 704 724 877
f 677 738 762
f 811 877 772
f 705 758 533
f 584 679 534
f 772 877 786
f 693 382 697
f 808 643 526
f 691 697 566
f 770 669 537
f 715 809 761
f 749 885 566
f 697 382 548
f 767 802 878
f 761 767 878
f 715 761 878
f 705 809 715
f 699 448 798
f 760 849 879
f 885 547 566
f 542 760 879
f 870 842 375
f 282 746 269
f 270 299 737
f 274 287 742
f 763 769 795
f 534 764 801
f 797 750 794
f 799 785 800
f 448 699 607
f 842 324 375
f 265 778 816
f 758 879 529
f 529 879 765
f 671 452 399
f 534 801 848
f 699 798 600
f 783 578 880
f 448 607 392
f 600 798 318
f 600 318 566
f 746 304 269
f 534 848 880
f 597 578 661
f 578 534 880
f 578 584 661
f 840 865 375
f 544 804 759
f 759 768 776
f 648 597 652
f 776 797 881
f 759 776 881
f 544 759 881
f 597 661 652
f 670 748 269
f 756 679 681
f 756 681 881
f 764 756 881
f 757 475 290
f 755 560 808
f 780 755 526
f 780 799 882
f 755 780 882
f 673 648 610
f 560 755 882
f 797 776 750
f 648 652 610
f 748 747 269
f 446 673 390
f 673 610 390
f 561 560 882
f 787 786 777
f 883 547 749
f 883 749 779
f 883 779 796
f 749 547 885
f 747 282 269
f 762 772 786
f 533 765 781
f 788 844 355
f 785 639 640
f 785 640 883
f 800 785 883
f 268 537 269
f 793 530 815
f 866 843 263
f 484 275 229
f 127 671 100
f 50 493 323
f 890 886 888
f 886 891 888
f 890 889 892
f 889 890 891
f 895 889 891
f 889 893 892
f 892 893 896
f 895 891 894
f 893 895 896
f 895 894 896
f 890 892 897
f 890 898 886
f 889 895 893
f 900 898 890
f 898 901 886
f 900 890 899
f 886 901 891
f 891 901 902
f 887 891 902
f 887 902 903
f 899 887 903
f 899 903 151
f 181 899 151
f 903 902 151
f 902 901 182
f 902 182 151
f 901 898 217
f 901 217 182
f 898 900 217
f 900 899 181
f 899 890 897
f 899 897 896
f 887 899 896
f 891 887 894
f 887 896 894
f 890 888 891
f 897 892 896
f 114 23 904
f 23 176 907
f 904 23 905
f 23 907 905
f 112 113 906
f 112 906 907
f 176 112 907
f 240 114 904
f 113 240 904
f 906 113 904
f 907 906 904
f 907 904 905
f 909 908 911
f 908 910 911
f 249 200 910
f 908 249 910
f 234 199 909
f 200 152 910
f 152 234 909
f 910 152 911
f 152 909 911
f 199 249 908
f 199 908 909
f 913 915 920
f 918 916 917
f 917 916 914
f 916 921 914
f 921 920 915
f 914 921 915
f 923 922 16
f 84 925 16
f 925 923 16
f 924 925 84
f 12 924 84
f 916 12 922
f 924 12 918
f 918 12 916
f 921 916 922
f 925 920 923
f 920 921 923
f 923 921 922
f 927 926 928
f 927 928 929
f 912 927 913
f 927 912 917
f 926 927 917
f 926 917 914
f 927 929 913
f 926 914 915
f 928 926 915
f 913 929 915
f 929 928 915
f 924 912 913
f 924 918 917
f 912 924 917
f 925 924 913
f 919 925 913
f 919 913 920
f 919 920 925
f 930 931 938
f 931 932 938
f 932 933 938
f 938 933 934
f 938 934 936
f 940 938 935
f 935 938 936
f 937 930 938
f 939 938 940
f 940 935 936
f 941 931 930
f 942 941 930
f 931 941 932
f 941 943 932
f 942 930 937
f 944 942 937
f 932 943 933
f 937 938 944
f 933 943 945
f 933 945 934
f 934 945 946
f 944 938 947
f 938 939 947
f 939 940 947
f 934 946 419
f 936 934 419
f 936 419 948
f 947 940 948
f 940 936 948
f 346 406 941
f 343 346 942
f 346 941 942
f 341 343 942
f 941 406 775
f 941 775 943
f 441 341 942
f 440 441 942
f 943 775 411
f 397 440 944
f 440 942 944
f 943 411 412
f 436 397 944
f 437 436 944
f 943 412 771
f 943 771 945
f 945 771 414
f 434 437 944
f 945 414 368
f 945 368 946
f 434 944 947
f 946 368 418
f 431 434 947
f 946 418 419
f 385 431 947
f 427 385 947
f 419 376 422
f 419 422 948
f 427 947 948
f 948 422 380
f 380 424 948
f 424 427 948
f 368 416 418
f 380 425 424
f 775 360 411
f 376 377 422
f 426 427 424
f 429 385 427
f 387 434 431
f 393 437 434
f 395 397 436
f 950 949 951
f 166 248 952
f 54 166 952
f 54 952 953
f 54 953 247
f 952 248 953
f 953 248 247
f 951 949 123
f 951 123 67
f 949 66 123
f 949 950 111
f 66 949 111
f 950 951 67
f 111 950 67
