v 0.049212 0.0806385 -0.0834616
v 0.0346024 -9.7501e-07 -0.102082
v 0.0295293 0.0333631 -0.103873
v 0.0267318 0.0128172 -0.105157
v 0.022293 0.0189493 -0.105821
v 0.0220219 0.0822087 -0.099355
v 0.04006 0.08586 -0.091991
v 0.0424107 0.0876477 -0.0896138
v 0.0367048 0.0856961 -0.094404
v 0.0304263 0.0819299 -0.0979051
v 0.0290587 0.0601953 -0.101951
v 0.0222725 -0.00426984 -0.10605
v 0.016785 0.011664 -0.106395
v 0.0262635 0.0837758 -0.0985107
v 0.0298221 0.0640227 -0.100833
v 0.0291506 0.0624599 -0.101408
v 0.0350645 0.0585624 -0.0996264
v 0.0347962 0.0301886 -0.101463
v 0.0365003 0.0627044 -0.0982239
v 0.0402579 0.0806526 -0.0929392
v 0.040493 0.034394 -0.097211
v 0.0387529 0.0346385 -0.0987073
v 0.0371693 0.00700819 -0.100403
v 0.0461336 0.0721881 -0.0884324
v 0.0424817 0.052825 -0.0946677
v 0.0422573 0.0446953 -0.0953462
v 0.0452013 0.0114875 -0.0930571
v 0.0407082 0.00430338 -0.0975583
v 0.0996452 0.0181376 -0.0086419
v 0.0992671 0.0138047 -0.0102776
v 0.098742 0.00269486 -0.0119374
v 0.0987442 -0.0188976 -0.0116138
v 0.109986 0.053312 0.036586
v 0.111124 0.0583309 0.0370349
v 0.111238 0.0627327 0.0367396
v 0.110777 0.069265 0.039266
v 0.106022 0.0570501 0.0141024
v 0.108606 0.0508846 0.0221735
v 0.104819 0.0394942 0.00715847
v 0.108281 0.049134 0.0216563
v 0.110292 0.0541734 0.0345702
v 0.108317 0.0518817 0.0199069
v 0.017111 -0.0239 -0.105951
v 0.016785 -0.011663 -0.106395
v 0.0375083 -0.0381851 -0.0996954
v 0.036328 -0.01122 -0.100884
v 0.0306449 -0.00671402 -0.103981
v 0.0215033 -0.0845159 -0.0988385
v 0.019015 -0.082193 -0.09959
v 0.0233931 -0.0802791 -0.0996048
v 0.0322057 -0.0833189 -0.0970643
v 0.0403622 -0.0711669 -0.0943061
v 0.044826 -0.081096 -0.088268
v 0.0368789 -0.0858985 -0.0942547
v 0.0516139 -0.0581233 -0.0841969
v 0.0382862 -0.0767711 -0.0951989
v 0.0278032 -0.0584356 -0.102169
v 0.031609 -0.0640948 -0.100355
v 0.0255728 -0.0441128 -0.103794
v 0.034315 -0.046903 -0.100756
v 0.0429287 -0.0542752 -0.0941244
v 0.0143836 -0.0457149 -0.104699
v 0.0393838 -0.0453168 -0.0977831
v 0.0422572 -0.0446948 -0.0953464
v 0.0243184 -0.0256167 -0.105209
v 0.029312 -0.023406 -0.104005
v 0.031996 -0.0333885 -0.102697
v 0.038753 -0.0346388 -0.0987073
v 0.043063 -0.022521 -0.09505
v 0.103997 -0.0385781 0.00311947
v 0.104763 -0.0390774 0.00755378
v 0.102624 -0.033153 0.001292
v 0.103669 -0.036664 0.00281223
v 0.102492 -0.0458947 -0.000491346
v 0.106165 -0.0723061 0.022538
v 0.107265 -0.045715 0.024101
v 0.111307 -0.060662 0.0378604
v 0.111345 -0.0589862 0.0367201
v 0.111186 -0.0650513 0.037912
v 0.108964 -0.0506012 0.0270398
v 0.105035 -0.0421816 0.00618023
v 0.108014 -0.0520391 0.018671
v 0.109435 -0.057511 0.026469
v 0.109654 -0.056003 0.027226
v 0.101658 -0.0312313 -0.00307875
v 0.101031 -0.02845 -0.00289703
v 0.101912 -0.0350907 -0.00339482
v 0.10193 -0.0333841 -0.00308418
v 0.100127 -0.0279739 -0.00791436
v 0.0997655 -0.0202492 -0.00541992
v 0.0997123 -0.0227706 -0.00828519
v 0.099706 -0.0194705 -0.0080638
v 0.0999613 -0.0233728 -0.00599573
v 0.0999541 -0.0245468 -0.00758366
v 0.10035 -0.025603 -0.003194
v 0.100076 -0.023989 -0.00415
v 0.0992624 -0.0274469 -0.0101799
v 0.0998995 -0.0322305 -0.00849188
v 0.100637 -0.0274184 -0.00515825
v 0.0949361 -0.063982 -0.0122889
v 0.0591954 -0.064094 -0.0737834
v 0.076339 -0.0533716 -0.0507498
v 0.0890149 -0.0431912 -0.0301985
v 0.0921823 0.00223779 -0.0260162
v 0.106376 -0.0639257 0.0176109
v 0.107636 -0.0915865 0.0412916
v 0.104162 -0.10934 0.043969
v 0.104479 -0.0802219 0.0218337
v 0.097726 -0.0324824 -0.0134607
v 0.0907272 -0.0291479 -0.0280605
v 0.0869956 -0.0473376 -0.0333256
v 0.0725 -0.0501584 -0.0570721
v 0.0708983 -0.0478465 -0.0597465
v 0.0696465 -0.0439005 -0.06197
v 0.0580742 -0.0165323 -0.0780413
v 0.06397 -0.0179027 -0.0704745
v 0.0654019 -0.0216215 -0.0684908
v 0.0487106 -0.0410144 -0.088671
v 0.0695398 -0.0639347 -0.0593727
v 0.0702209 -0.0874377 -0.0523798
v 0.0689482 -0.093467 -0.0527682
v 0.0561681 -0.107792 -0.0679478
v 0.0623366 -0.11385 -0.0576056
v 0.0694184 -0.113961 -0.0460044
v 0.0820103 -0.0663612 -0.0382153
v 0.0857633 -0.064275 -0.0315833
v 0.092167 -0.05814 -0.0210363
v 0.0990304 -0.118578 0.0288806
v 0.0993464 0.0213882 -0.0098272
v 0.10033 0.0298871 -0.0075227
v 0.101138 0.0293644 -0.00403573
v 0.099285 0.029713 -0.010034
v 0.101249 0.0314623 -0.00502017
v 0.0997084 0.024512 -0.00881624
v 0.0999271 0.02352 -0.00692432
v 0.100327 0.0262746 -0.00641753
v 0.099887 0.022296 -0.004814
v 0.100235 0.0250136 -0.0035463
v 0.100771 0.027415 -0.00175
v 0.101427 0.02965 0.000144192
v 0.100945 0.0386598 -0.00546291
v 0.102776 0.034668 -0.000217
v 0.101177 0.0291467 -0.00333269
v 0.0880911 0.045181 -0.0316056
v 0.0891605 0.0595767 -0.0268252
v 0.0764495 0.0725068 -0.0464257
v 0.0703783 0.0458788 -0.0606076
v 0.0675847 0.0357481 -0.0653049
v 0.0921792 0.0624278 -0.0191206
v 0.109566 0.0799462 0.0420131
v 0.102336 0.103431 0.0302723
v 0.104101 0.0917167 0.0282531
v 0.103166 0.0731413 0.0136153
v 0.103891 0.0769317 0.0180904
v 0.103121 0.072765 0.0132075
v 0.0982937 0.0664015 -0.00323832
v 0.0945577 0.0617124 -0.0143255
v 0.10346 0.0465677 0.00261937
v 0.101343 -0.108194 0.0300653
v 0.0826095 0.0664089 -0.0369931
v 0.0697614 0.116799 -0.0445979
v 0.0681367 0.102535 -0.0515147
v 0.0711271 0.0840374 -0.0518956
v 0.074472 0.077338 -0.048144
v 0.071939 0.127358 -0.036825
v 0.0621932 0.114591 -0.0575409
v 0.0579042 0.0697667 -0.0750281
v 0.0528341 0.102614 -0.0737596
v 0.057839 0.104884 -0.066545
v 0.0480189 0.0289151 -0.089666
v 0.0472197 0.0520785 -0.0898513
v 0.0646292 0.0165036 -0.0696118
v 0.0637631 0.00393881 -0.0708354
v 0.076537 0.0529551 -0.0502886
v 0.079637 0.054277 -0.045132
v 0.0905455 0.0400323 -0.0278602
v 0.0979604 0.0145141 -0.013622
v 0.098772 0.033971 -0.010922
v 0.104105 0.0413683 0.00325002
v 0.105215 0.105363 0.0440437
v 0.0473495 0.0628362 -0.0885252
v 0.0693646 0.0452192 -0.0622456
v 0.057744 0.020986 -0.078339
v 0.0601875 0.0565232 -0.073669
v 0.0963308 0.124833 0.0243274
v 0.0945611 0.129342 0.0220593
v 0.102452 0.115244 0.0416075
v 0.0996673 0.122169 0.0404257
v 0.101414 0.116105 0.037643
v 0.0977237 0.12459 0.0419378
v 0.0974658 0.125374 0.0414604
v 0.090629 0.130707 0.038486
v 0.093116 0.128088 0.0420676
v 0.0871337 0.129911 0.0422813
v 0.085603 0.139624 0.022621
v 0.0882125 0.129515 0.0424082
v 0.0896706 0.137734 0.0191021
v 0.0865289 0.140919 0.0178146
v 0.110547 0.0690306 0.0415903
v 0.108642 0.07944 0.045304
v 0.106752 0.086942 0.047156
v 0.108398 0.0884563 0.0451706
v 0.107545 0.092675 0.045748
v 0.106564 0.097838 0.0459
v 0.105752 0.0945903 0.047793
v 0.104299 0.105696 0.0466581
v 0.102414 0.108004 0.046857
v 0.108065 0.0491879 0.0383681
v 0.110219 0.0546564 0.0377484
v 0.111495 0.0637573 0.037831
v 0.110895 0.058787 0.038385
v 0.110767 0.064845 0.040302
v 0.0734626 0.0514463 -0.0554589
v 0.064344 0 -0.069929
v 0.0645857 0.0079804 -0.0695732
v 0.069455 0.043792 -0.062101
v 0.077164 0.052637 -0.048955
v 0.0740737 0.0510859 -0.0540943
v 0.0780698 0.0516115 -0.0463119
v 0.0712839 0.0426646 -0.0534241
v 0.069491 0.041003 -0.0591771
v 0.0721403 0.0485928 -0.0574001
v 0.0655642 0.0176928 -0.0680394
v 0.067565 0.0316907 -0.0650326
v 0.0681092 0.0362392 -0.0636877
v 0.0645993 0.00109187 -0.0693024
v 0.0896846 0.0362512 -0.029256
v 0.0842778 0.0517931 -0.0375919
v 0.0873575 0.0435616 -0.0322914
v 0.0877622 0.0447735 -0.0321007
v 0.0899871 0.00160584 -0.0293582
v 0.0902831 0.0237585 -0.0288566
v 0.0896315 0.0242452 -0.0295055
v 0.0890108 0.0352572 -0.0298358
v 0.0845262 0.0502105 -0.0371011
v 0.079766 0.0535707 -0.0449197
v 0.051203 0.116829 -0.062663
v 0.0507446 0.107577 -0.0721734
v 0.0560919 0.114965 -0.0634689
v 0.0581608 0.11228 -0.0635024
v 0.044095 0.095934 -0.084458
v 0.0435593 0.0933349 -0.086533
v 0.0493867 0.101029 -0.0776338
v 0.0552268 0.105498 -0.0698173
v 0.0693674 0.132159 -0.0393063
v 0.0693299 0.121424 -0.0439845
v 0.0626394 0.1262 -0.0502456
v 0.06123 0.130418 -0.046992
v 0.0640667 0.136079 -0.0406076
v 0.0577135 0.13126 -0.0466937
v 0.0663262 0.127349 -0.0461217
v 0.0553105 0.116761 -0.062099
v 0.0455957 0.0934199 -0.0848004
v 0.00698623 -0.0708858 -0.102251
v 0.00588464 -0.0739478 -0.10186
v 0.0144089 0.0459715 -0.104671
v 0.00523236 0.0769832 -0.101404
v 0.00723743 0.0700131 -0.102412
v 0.009564 0.063768 -0.101526
v 0.00450374 0.0916243 -0.0910442
v 0.0044646 0.0854042 -0.0995396
v 0.00464498 0.0824046 -0.0990717
v 0.00456522 0.0835716 -0.100372
v 0.0178109 0.0842455 -0.0991494
v 0.0238325 0.0852008 -0.0981011
v 0.00450464 0.0859675 -0.099116
v 0.0368929 0.087784 -0.0936159
v 0.0281975 0.0870468 -0.0959705
v 0.0257562 0.0859564 -0.0972917
v 0.0340372 0.0863615 -0.0954192
v 0.032366 0.0873293 -0.0952219
v 0.031241 0.085668 -0.096592
v 0.0353918 0.0851726 -0.0954862
v 0.0423745 0.0890192 -0.0894324
v 0.041915 0.0955821 -0.0856446
v 0.0341845 0.0901653 -0.0922068
v 0.037304 0.089441 -0.092269
v 0.0390584 0.0928539 -0.0888756
v 0.041281 0.090139 -0.089793
v 0.0409906 0.0917417 -0.089102
v 0.014528 -0.01276 -0.105029
v 0.0145533 -0.0358859 -0.105466
v 0.0144246 0.0447848 -0.0988523
v 0.0145332 0.0282152 -0.105925
v 0.0145318 0.00137907 -0.10678
v 0.013818 0.049876 -0.102811
v 0.011857 0.057452 -0.102138
v 0.0132338 0.0524205 -0.104054
v 0.0801838 0.148065 0.00367751
v 0.0658257 0.144888 -0.02955
v 0.070162 0.149891 -0.0165312
v 0.0725389 0.137954 -0.0310142
v 0.0766538 0.139242 -0.0223726
v 0.0783256 0.140229 -0.0181933
v 0.0851169 0.143523 0.00476996
v 0.066775 0.149032 -0.020472
v 0.0692113 0.150582 -0.0140239
v 0.0648368 0.151468 -0.0101635
v 0.069192 0.150997 -0.01082
v 0.0723594 0.150933 -0.00403757
v 0.0680913 0.151336 -0.00556263
v 0.063425 0.147687 -0.02449
v 0.0683752 0.147152 -0.0245096
v 0.0722329 0.147783 -0.0201663
v 0.0714643 0.1496 -0.0165784
v 0.0620747 0.144144 -0.031237
v 0.06434 0.138537 -0.037866
v 0.0680958 0.140566 -0.0340544
v 0.068602 0.143354 -0.030236
v 0.0718549 0.143728 -0.027123
v 0.071544 0.145626 -0.0247649
v 0.0788124 0.146137 -0.0118167
v 0.0754189 0.144918 -0.0202206
v 0.0778207 0.142492 -0.0181513
v 0.0754387 0.137075 -0.0260569
v 0.0764529 0.14624 -0.0165482
v 0.0747573 0.141533 -0.0247417
v 0.069127 0.13959 -0.034029
v 0.0674273 0.13579 -0.0388832
v 0.0718139 0.138529 -0.0319328
v 0.0769239 0.14944 -0.00686313
v 0.0718881 0.142608 -0.0281223
v 0.0716468 0.141088 -0.030018
v 0.0852541 0.143504 0.0107255
v 0.0882374 0.139723 0.0110116
v 0.0819521 0.146703 0.00102677
v 0.0762 0.148138 -0.0136396
v 0.0829433 0.142097 -0.0055496
v 0.079054 0.145115 -0.0124003
v 0.0799743 0.146657 -0.00830015
v 0.0812294 0.143242 0.017873
v 0.0801317 0.145966 0.0122555
v 0.0823795 0.144693 0.0134044
v 0.0827815 0.146116 0.00486342
v 0.080018 0.148234 -0.00129001
v 0.082311 0.145535 -0.002042
v 0.084097 0.141828 -0.00239641
v 0.075617 0.148629 0.006955
v 0.072869 0.149884 0.003359
v 0.0666181 0.150209 0.00427059
v 0.0739954 0.148052 0.00981887
v 0.0812687 0.146204 0.0101299
v 0.0731507 0.150823 -0.00443908
v 0.077371 0.149594 0.00180169
v 0.0779053 0.149263 -0.00335352
v 0.0750982 0.150377 -0.00514658
v 0.077403 0.149155 -0.006511
v 0.0979903 0.120004 0.026559
v 0.0686492 0.0954846 -0.052686
v 0.072148 0.0823249 -0.0506321
v 0.0719487 0.131307 -0.0354552
v 0.100208 0.112746 0.0292239
v 0.100403 0.0685371 0.00331303
v 0.102975 0.073214 0.013142
v 0.10382 0.076817 0.017815
v 0.104351 0.0865773 0.0256799
v 0.085533 0.064615 -0.03189
v 0.0998142 0.0234157 0.041458
v 0.0995115 -0.000890521 0.0409632
v 0.101843 0.0309728 0.0400628
v 0.109014 0.0505115 0.0366913
v 0.00440744 0.106476 -0.0775018
v 0.010023 0.114489 -0.068541
v 0.0505926 0.111473 -0.068404
v 0.0210742 0.135436 -0.0451698
v 0.0613337 0.140304 -0.0364554
v 0.025618 0.149372 -0.025597
v 0.0564273 0.150517 -0.018278
v 0.0644929 0.151642 -0.00602117
v 0.00450316 0.153807 0.00162688
v 0.0718132 0.14748 0.0115136
v 0.0699771 0.146032 0.0149082
v 0.041893 0.141125 0.0270218
v 0.0740529 0.130301 0.0431532
v 0.004502 0.142467 0.027982
v 0.00450198 0.15428 -0.00226828
v 0.004502 0.150442 0.0126529
v 0.00450205 0.154297 -0.0117717
v 0.00450196 0.152403 -0.0203928
v 0.004502 0.148232 -0.030011
v 0.004502 0.150105 -0.026355
v 0.004502 0.122281 -0.0605921
v 0.00450264 0.140734 -0.0405403
v 0.103872 0.0410826 0.0404337
v 0.102149 0.0327528 0.0407357
v 0.104668 0.0394165 0.0391105
v 0.0992803 0.0138575 0.0417841
v 0.0987608 0.0236029 0.043022
v 0.099714 -0.009662 0.040395
v 0.0994861 -0.017198 0.0416793
v 0.099856 -0.021902 0.040486
v 0.099995 -0.023364 0.040553
v 0.106287 -0.042974 0.0373389
v 0.0848045 0.128532 0.0438588
v 0.083037 0.117778 0.04894
v 0.0806565 0.105538 0.0543552
v 0.0965376 0.124008 0.043476
v 0.0995412 0.119662 0.0439773
v 0.0859837 0.09705 0.0549422
v 0.0871327 0.0906345 0.0552127
v 0.110218 0.0570146 0.038837
v 0.106379 0.0787095 0.0463255
v 0.100619 0.0295799 0.0421391
v 0.097014 0.0500575 0.047161
v 0.08888 0.083317 0.054762
v 0.09904 0.081879 0.05024
v 0.0935878 0.0697403 0.0518552
v 0.0875773 0.0896979 0.0551086
v 0.0836368 0.102011 0.0545963
v 0.0697677 0.109213 0.0545778
v 0.0763179 0.107893 0.0543141
v 0.0309736 0.108069 0.0583521
v 0.0374919 0.108419 0.057663
v 0.00700934 -0.0703492 -0.102097
v 0.0145397 -0.0407059 -0.0969578
v 0.0145008 -0.0438033 -0.0962727
v 0.0134611 -0.051891 -0.10415
v 0.0221367 -0.085844 -0.0977477
v 0.00456125 -0.0824184 -0.100642
v 0.004541 -0.084219 -0.100156
v 0.004502 -0.086162 -0.098944
v 0.00439474 -0.0877231 -0.0972977
v 0.0339423 -0.0884834 -0.0939065
v 0.0375008 -0.0907202 -0.0911738
v 0.0445947 -0.100782 -0.0801096
v 0.0327084 -0.0857425 -0.0962092
v 0.044609 -0.0880872 -0.0874705
v 0.0224731 -0.0844097 -0.0987045
v 0.0279742 -0.0839653 -0.0981134
v 0.0459182 -0.0929624 -0.0847617
v 0.041612 -0.089739 -0.089712
v 0.0421639 -0.0862362 -0.0902721
v 0.0451483 -0.0966963 -0.0833534
v 0.0394748 -0.0915687 -0.0899046
v 0.0415958 -0.0943374 -0.0868456
v 0.0439229 -0.0937927 -0.0860296
v 0.0384796 -0.0888522 -0.0922224
v 0.0298453 -0.0861734 -0.0966239
v 0.031241 -0.085668 -0.096592
v 0.0370237 -0.092943 -0.0890464
v 0.00514 -0.078348 -0.099705
v 0.004667 -0.082174 -0.099102
v 0.0917213 -0.134625 0.0171104
v 0.0887751 -0.135501 0.02937
v 0.0908213 -0.129034 0.0419973
v 0.096744 -0.125797 0.041399
v 0.0922071 -0.134348 0.0241523
v 0.100201 -0.121372 0.0412874
v 0.0971353 -0.122958 0.0255759
v 0.098601 -0.120853 0.029775
v 0.0778629 -0.130128 0.0430148
v 0.0773792 -0.142761 0.0202021
v 0.0875048 -0.129721 0.0422712
v 0.082734 -0.139901 0.024027
v 0.091809 -0.133633 0.016445
v 0.0847052 -0.143637 0.0135902
v 0.0719339 -0.127152 -0.036904
v 0.0681476 -0.0987965 -0.0525841
v 0.0683127 -0.10572 -0.0503181
v 0.104328 -0.0846756 0.0244743
v 0.103954 -0.0920905 0.0280459
v 0.102012 -0.105227 0.0304666
v 0.0982988 -0.066519 -0.00311508
v 0.100978 -0.069334 0.005317
v 0.101586 -0.0697034 0.00726108
v 0.10341 -0.074281 0.0151075
v 0.0657921 -0.13232 -0.0430306
v 0.0792347 -0.148653 0.000163822
v 0.0785682 -0.148698 0.00341361
v 0.0791563 -0.146768 0.0115239
v 0.0868098 -0.141757 0.0107141
v 0.075342 -0.143239 -0.022118
v 0.0766843 -0.140174 -0.0219179
v 0.077367 -0.143132 -0.018225
v 0.0764968 -0.1476 -0.0141454
v 0.0613023 -0.143997 -0.0316175
v 0.0671608 -0.144654 -0.0294447
v 0.087337 -0.139572 0.00623091
v 0.0890063 -0.137781 0.0103323
v 0.0804446 -0.142431 -0.0119098
v 0.0742183 -0.139568 -0.0271189
v 0.077825 -0.140278 -0.0192886
v 0.0655173 -0.140524 -0.0353064
v 0.0639556 -0.140535 -0.0357935
v 0.069342 -0.147567 -0.0229904
v 0.0705514 -0.148828 -0.0192725
v 0.0761002 -0.149985 -0.006946
v 0.0778201 -0.148449 -0.00850757
v 0.0769343 -0.149203 -0.00789327
v 0.0727237 -0.146434 -0.022037
v 0.0690693 -0.141669 -0.0320548
v 0.0597576 -0.136142 -0.0412657
v 0.0643617 -0.138233 -0.0382425
v 0.0767297 -0.145747 -0.0168119
v 0.0728381 -0.14468 -0.0245355
v 0.0757581 -0.144634 -0.0199733
v 0.0691527 -0.136863 -0.0364677
v 0.0730043 -0.140216 -0.0287706
v 0.0688711 -0.139148 -0.0347362
v 0.0731902 -0.148781 -0.0169177
v 0.0709104 -0.135946 -0.0348657
v 0.0666876 -0.139103 -0.0364062
v 0.069841 -0.144179 -0.0283424
v 0.0826869 -0.142192 -0.00618609
v 0.08279 -0.144427 -0.00321011
v 0.0849509 -0.143676 0.00453589
v 0.0836536 -0.144349 0.0124208
v 0.0815798 -0.144959 0.0137016
v 0.0790906 -0.147677 0.00816547
v 0.0679033 -0.146443 -0.0259722
v 0.0677834 -0.148507 -0.0220197
v 0.0677106 -0.149917 -0.0175058
v 0.0708979 -0.150838 -0.0115649
v 0.073556 -0.150816 -0.0077689
v 0.0713453 -0.151012 -0.00317846
v 0.0722802 -0.149414 0.0060946
v 0.082558 -0.145816 0.00907286
v 0.0780207 -0.148858 0.00454641
v 0.0804106 -0.147833 -0.00198151
v 0.0819266 -0.146848 0.00482456
v 0.081572 -0.146655 -0.001399
v 0.077579 -0.149401 0.000984935
v 0.0745488 -0.150121 -0.0095597
v 0.072262 -0.142468 -0.027807
v 0.073923 -0.141724 -0.025951
v 0.0800925 -0.145682 -0.00897609
v 0.068018 -0.132593 -0.040686
v 0.0655635 -0.12288 -0.0493611
v 0.0516237 -0.0999018 -0.0760549
v 0.0538765 -0.109207 -0.0691279
v 0.05117 -0.104683 -0.073959
v 0.0505683 -0.115509 -0.0641303
v 0.059273 -0.111934 -0.06235
v 0.0499287 -0.0994788 -0.0780336
v 0.0703385 -0.131314 -0.038588
v 0.0625284 -0.12429 -0.0519229
v 0.058367 -0.12256 -0.0555726
v 0.0692116 -0.0368008 -0.0566198
v 0.070755 -0.04707 -0.059953
v 0.0676962 -0.0371707 -0.0650795
v 0.07826 -0.053313 -0.047352
v 0.073325 -0.050489 -0.055574
v 0.0750146 -0.0518357 -0.0526026
v 0.0724919 -0.0494791 -0.0566997
v 0.068107 -0.035994 -0.064226
v 0.0688455 -0.0400735 -0.0629081
v 0.066353 -0.023824 -0.066978
v 0.0645674 -0.00816212 -0.0696229
v 0.0652252 -0.0139933 -0.0685308
v 0.0885033 -0.0419192 -0.0309536
v 0.0860736 -0.0471794 -0.034377
v 0.088322 -0.03986 -0.030817
v 0.0848368 -0.0492839 -0.0365289
v 0.0870826 -0.0402784 -0.0315501
v 0.0895984 -0.035661 -0.0293472
v 0.0896298 -0.0229952 -0.0295258
v 0.0825157 -0.0523943 -0.0403713
v 0.0902328 -0.0193777 -0.0290071
v 0.0865066 -0.0506068 -0.0338808
v 0.0791432 -0.0542958 -0.0459716
v 0.109818 -0.0700527 0.0425603
v 0.110949 -0.0676938 0.0406814
v 0.108695 -0.0862346 0.0451363
v 0.108346 -0.0795442 0.045433
v 0.105985 -0.0997651 0.046797
v 0.106427 -0.093319 0.047599
v 0.106927 -0.0494942 0.0397298
v 0.109502 -0.0529003 0.0382054
v 0.109971 -0.053312 0.036931
v 0.110166 -0.064595 0.040972
v 0.109567 -0.054195 0.038529
v 0.110667 -0.0573628 0.0383664
v 0.0674886 -0.143349 0.020444
v 0.036305 -0.150969 0.006932
v 0.0469253 -0.15226 -0.00175105
v 0.027285 -0.151307 -0.020336
v 0.021215 -0.140236 -0.039817
v 0.0229266 -0.134783 -0.0457483
v 0.004502 -0.105594 -0.0784661
v 0.004502 -0.0978406 -0.0866989
v 0.00450202 -0.112823 -0.0707529
v 0.0342818 -0.147993 -0.0276126
v 0.029028 -0.152581 -0.014907
v 0.00450287 -0.154547 -0.00802532
v 0.0415292 -0.148004 0.0141798
v 0.102017 -0.032073 0.040625
v 0.104546 -0.0395997 0.0394451
v 0.100832 -0.0311523 0.0420413
v 0.0762277 -0.107987 0.0542863
v 0.004502 -0.109133 0.0595196
v 0.0218518 -0.109173 0.0584398
v 0.0821898 -0.128861 0.0439507
v 0.0707497 -0.109298 0.0544205
v 0.0750671 -0.108332 0.05431
v 0.103788 -0.105406 0.0469513
v 0.0850286 -0.0997327 0.0547596
v 0.0824896 -0.103303 0.0545183
v 0.0862513 -0.0959873 0.0549927
v 0.0872886 -0.0908101 0.0551436
v 0.0884208 -0.0838449 0.0549701
v 0.0891387 -0.079154 0.0545866
v 0.0920647 -0.0700086 0.0526164
v 0.101548 -0.039342 0.042191
v 0.0992611 -0.118883 0.0443728
v 0.102411 -0.110829 0.0459919
v 0.0811459 -0.104871 0.0544074
v 0.0795091 -0.106083 0.0543721
v 0.095475 -0.063521 0.04995
v 0.00439746 0.101859 -0.0824158
v 0.004502 0.103728 -0.078251
v 0.004502 0.105351 -0.076521
v 0.004502 0.115736 -0.065406
v 0.004502 0.112341 0.00376
v 0.004502 0.121008 -0.059734
v 0.00450209 0.144789 -0.0354419
v 0.004502 0.141444 -0.037259
v 0.004502 0.137877 -0.041436
v 0.004502 0.152874 -0.006352
v 0.004502 0.152518 0.006733
v 0.00450201 0.147659 0.018625
v 0.00450426 0.0859234 0.0659595
v 0.004502 0.0946338 0.0638705
v 0.00450202 0.10499 0.0610505
v 0.00450135 0.123685 0.0520361
v 0.004502 0.143863 0.0255
v 0.004502 0.131459 0.047336
v 0.0928218 0.127262 0.0431615
v 0.102505 0.112658 0.0451334
v 0.0984302 0.122534 0.0432022
v 0.0961839 0.125051 0.0431108
v 0.0892094 0.128713 0.0431255
v 0.101249 0.118735 0.0420615
v 0.0818439 0.00892612 -0.0348344
v 0.0792617 0.0421205 -0.0388302
v 0.0773013 0.043011 -0.0422364
v 0.076654 0.045277 -0.04371
v 0.0706525 0.0402178 -0.0531243
v 0.0688116 0.0321689 -0.0572196
v 0.0685724 0.0233824 -0.0575109
v 0.0686597 0.00799488 -0.0573793
v 0.0868721 0.139955 0.00487939
v 0.0912331 0.134564 0.0153218
v 0.081297 0.141647 -0.010188
v 0.10041 0.0271358 0.0417984
v 0.0766365 0.129281 0.0440801
v 0.019342 0.014079 0.071726
v 0.059826 0.094421 0.058685
v 0.0360823 0.0618846 0.06587
v 0.088271 0.013885 0.047887
v 0.0227384 0.0451153 0.0695262
v 0.0145384 0.0236551 0.0723255
v 0.014488 0.0452515 0.0709313
v 0.017593 0.062133 0.068635
v 0.00490382 0.0797715 0.0672139
v 0.0508572 0.107182 0.0569805
v 0.0609908 0.0874572 0.0593839
v 0.0888611 0.0764179 0.0545142
v 0.0810215 0.0447699 0.0532954
v 0.0859762 0.0530424 0.0524251
v 0.0975944 0.0351614 0.0450453
v 0.0951472 0.0451972 0.0477568
v 0.0450598 0.00802516 0.0655577
v 0.064997 0.054872 0.059276
v 0.0682162 0.0518915 0.058201
v 0.0855832 0.0737289 0.0551101
v 0.0690075 0.0646419 0.0586997
v 0.0490206 0.0876098 0.0610328
v 0.032772 0.0904919 0.0625379
v 0.028356 0.0940729 0.0621778
v 0.028883 0.068587 0.066269
v 0.021888 0.066784 0.0675183
v 0.052251 0.068186 0.062243
v 0.0605428 0.0798459 0.0600332
v 0.0311938 0.000688527 0.0694612
v 0.0321561 0.0379688 0.0681559
v 0.036838 0.041857 0.066878
v 0.0479859 0.0536365 0.0637737
v 0.0774021 0.00816016 0.052968
v 0.0742635 0.0277161 0.0548363
v 0.0512598 0.00288789 0.0635314
v 0.0600361 0.0473699 0.0607043
v 0.037594 -0.0186331 0.0674944
v 0.0354983 -0.107846 0.0580813
v 0.0606793 -0.0774685 0.0601894
v 0.0559892 -0.107982 0.0562924
v 0.047306 -0.101392 0.058702
v 0.00450174 -0.0969265 0.0632968
v 0.0217465 -0.0742704 0.06649
v 0.00594362 -0.0742822 0.0681194
v 0.0265089 -0.0892524 0.0633508
v 0.00479654 -0.080201 0.0671106
v 0.0129011 -0.0541989 0.0702581
v 0.0241416 -0.0508411 0.0688441
v 0.0141096 -0.0486765 0.0706229
v 0.019241 -0.028132 0.071218
v 0.019342 -0.014079 0.071726
v 0.0948658 -0.0344186 0.0463363
v 0.0974328 -0.0162057 0.0433006
v 0.088234 -0.041264 0.050101
v 0.096716 -0.034605 0.045428
v 0.0913861 -0.0547273 0.0508067
v 0.0946373 -0.0524078 0.0490836
v 0.0815917 -0.0601375 0.0546584
v 0.0905919 -0.0692034 0.0532115
v 0.0714142 -0.0185426 0.0558426
v 0.0604604 -0.0306068 0.0602819
v 0.0524961 -0.043726 0.0628402
v 0.0437116 -0.0637138 0.0641934
v 0.064997 -0.054871 0.059276
v 0.0715931 -0.0740344 0.0580739
v 0.061217 -0.0530766 0.0603812
v 0.0720712 -0.0490875 0.0568765
v 0.0873467 -0.0729605 0.0544484
v 0.0810212 -0.04477 0.0532955
v 0.0600262 -0.0960138 0.0584208
v 0.0609908 -0.0874572 0.0593839
v 0.0368396 -0.0490829 0.0665461
v 0.0489589 -0.0551433 0.0634734
v 0.00446494 -0.0917201 0.0646208
v 0.0996124 -0.0238305 0.0422623
v 0.100744 -0.028651 0.041736
v 0.0999462 -0.02667 0.0424587
v 0.100891 -0.0281131 0.0409197
v 0.0632759 0.107686 0.0557447
v 0.0991841 0.02744 0.043186
v 0.0899744 0.0729298 0.0538732
v 0.0922129 0.064204 0.0519099
v 0.0933809 0.0586387 0.0505934
v 0.096582 0.041632 0.046467
v 0.004502 -0.151527 0.00437975
v 0.00450201 -0.153388 0.0036957
v 0.004502 -0.142027 -0.038971
v 0.004502 -0.086162 0.064334
v 0.00450206 -0.107136 0.0603884
v 0.004502 -0.130662 0.047956
v 0.004502 -0.131591 0.04718
v 0.00450196 -0.152797 -0.0193184
v 0.00450192 -0.148208 -0.0302227
v 0.004502 -0.143713 0.0257704
v 0.00450203 -0.14983 0.0142067
v 0.004502 -0.14745 0.015636
v 0.004502 -0.146535 0.017477
v 0.004502 -0.14583 0.021986
v 0.004502 -0.140248 -0.038712
v 0.004502 -0.136383 -0.045334
v 0.004502 -0.119481 -0.061378
v 0.004502 -0.113586 -0.067713
v 0.004502 -0.092032 -0.09064
v 0.004502 -0.09908 -0.08319
v 0.004502 -0.103749 -0.078227
v 0.095613 -0.126126 0.022945
v 0.101489 -0.118029 0.0416884
v 0.0944659 -0.127093 0.0424284
v 0.0960862 -0.126124 0.0420732
v 0.0968835 -0.124537 0.0431193
v 0.098763 -0.122651 0.042636
v 0.100415 -0.119137 0.0434686
v 0.0885071 -0.128718 0.0432398
v 0.094735 -0.125844 0.0433355
v 0.0926515 -0.127372 0.0431326
v 0.0850511 -0.141212 3.00891e-05
v 0.0812668 -0.0242271 -0.0352493
v 0.081723 -0.034815 -0.034982
v 0.0792832 -0.0457018 -0.040708
v 0.075808 -0.045519 -0.045176
v 0.0765925 -0.0511013 -0.0484984
v 0.0705671 -0.0413882 -0.0542385
v 0.0672229 -0.023253 -0.0632085
v 0.068542 -0.0119887 -0.0578166
v 0.004652 0.082363 0.06514
v 0.00588367 0.0744302 0.0680987
v 0.00741896 0.069529 0.0687689
v 0.0115641 0.05817 0.0699146
v 0.0131736 0.0530298 0.0702938
v 0.081315 0 -0.035246
v 0.0688982 0.0253676 -0.0566116
v 0.069451 0 -0.055377
v 0.069221 0.024202 -0.055813
v 0.0693418 0.0330846 -0.0554952
v 0.0698606 0.0370363 -0.0545621
v 0.0710231 0.0407814 -0.0526502
v 0.0730696 0.0430533 -0.0490178
v 0.0743395 0.0435794 -0.0467976
v 0.0762452 0.043386 -0.0436098
v 0.0787986 0.0409406 -0.0392563
v 0.0803271 0.0352495 -0.0363368
v 0.0804441 0.0311305 -0.036066
v 0.080743 0.024853 -0.035876
v 0.08048 0 -0.036275
v 0.0736653 0.0445919 -0.0484021
v 0.0725531 0.0444196 -0.0509693
v 0.0693346 0.0350734 -0.0554939
v 0.068996 0 -0.056269
v 0.075728 0.044519 -0.04471
v 0.0798489 0.0381967 -0.0373647
v 0.0815045 0.0218726 -0.0350691
v 0.0807126 0.0379955 -0.0362509
v 0.014539 0.0039583 0.0728211
v 0.014528 0 0.071312
v 0.0145529 -0.0389442 0.0714546
v 0.0145368 -0.0127886 0.0726621
v 0.0145372 3.24429e-05 0.0728379
v 0.068149 0 -0.054625
v 0.068368 0.035668 -0.054245
v 0.078513 0.037834 -0.036674
v 0.078866 0.036235 -0.036062
v 0.077969 0.039474 -0.037616
v 0.076977 0.041345 -0.039334
v 0.07534 0.043045 -0.0421695
v 0.073025 0.043539 -0.04618
v 0.071248 0.042499 -0.049258
v 0.072164 0.043198 -0.047671
v 0.0701175 0.040974 -0.0512155
v 0.0689285 0.038154 -0.0532745
v 0.068179 0.033744 -0.054573
v 0.079108 0.034335 -0.035644
v 0.079177 0.032585 -0.035523
v 0.068224 -0.0344 -0.054495
v 0.0694547 -0.0325645 -0.0553793
v 0.0074298 -0.069516 0.0687715
v 0.013816 -0.049889 0.068999
v 0.074535 -0.0439234 -0.046412
v 0.080479 -0.032817 -0.036277
v 0.079761 -0.037806 -0.037284
v 0.0802805 -0.0354896 -0.0365466
v 0.079085 -0.040155 -0.038213
v 0.0782397 -0.0420796 -0.0401226
v 0.0766686 -0.0433004 -0.0427434
v 0.073669 -0.0436085 -0.0479777
v 0.0718827 -0.0417859 -0.051064
v 0.0703798 -0.0389698 -0.0537098
v 0.0695289 -0.0353104 -0.0551998
v 0.069221 -0.024201 -0.055813
v 0.0689601 -0.0340301 -0.0566718
v 0.080997 -0.034358 -0.035596
v 0.0803989 -0.0383875 -0.0366511
v 0.0795875 -0.0400118 -0.0378977
v 0.0760448 -0.0437074 -0.0437719
v 0.0715316 -0.0425555 -0.0520599
v 0.069844 -0.038542 -0.054909
v 0.0696467 -0.0382193 -0.0553304
v 0.0693135 -0.0333755 -0.0554537
v 0.0814786 -0.0313295 -0.0350728
v 0.0731257 -0.0442339 -0.0492869
v 0.0100716 -0.0623075 0.0695464
v 0.05145 -0.129903 0.045519
v 0.0984907 -0.0333196 0.0442314
v 0.064622 -0.108239 0.055422
v 0.0918845 -0.0640878 0.0520543
v 0.0956968 -0.0460727 0.0475799
v 0.077474 -0.0400395 -0.0384735
v 0.073902 -0.043603 -0.044661
v 0.068341 -0.035469 -0.054293
v 0.0707755 -0.041941 -0.0500755
v 0.0694467 -0.0395155 -0.0523768
v 0.0726365 -0.043358 -0.046853
v 0.075236 -0.0431085 -0.0423505
v 0.078827 -0.036454 -0.03613
v 0.07909 -0.034538 -0.035674
v 0.079176 -0.032817 -0.035525
v 0.103824 0.0363461 0.005452
v 0.10369 0.0376702 0.00212289
v 0.10365 0.0389727 0.00166628
v 0.0880185 0.0615077 -0.0281452
v 0.0849468 0.0753338 -0.0268522
v 0.083505 0.076503 -0.0292
v 0.082515 0.077462 -0.030728
v 0.0809231 0.0792673 -0.033051
v 0.079622 0.081082 -0.034798
v 0.078715 0.082515 -0.035947
v 0.0773811 0.0849459 -0.0375196
v 0.076287 0.087409 -0.038652
v 0.075599 0.089234 -0.03928
v 0.0746528 0.0919939 -0.0401154
v 0.07619 0.0982252 -0.0340547
v 0.0736956 0.105198 -0.0378619
v 0.0771576 0.104648 -0.0301812
v 0.0774023 0.111494 -0.0279884
v 0.0925871 0.108826 0.00902923
v 0.096467 0.0785452 0.000695034
v 0.0975117 0.0803413 0.00462624
v 0.098084 0.082182 0.007382
v 0.098345 0.083514 0.008976
v 0.098536 0.08498 0.010469
v 0.104546 0.0825861 0.023717
v 0.0986541 0.0910209 0.0147316
v 0.0983348 0.0948882 0.0162739
v 0.0970842 0.102851 0.017451
v 0.0917521 0.0869001 -0.00565925
v 0.091738 0.074302 -0.013063
v 0.0905362 0.0737328 -0.0159763
v 0.0888171 0.0736315 -0.0196936
v 0.091298 0.120714 0.01037
v 0.093806 0.115021 0.014421
v 0.0884965 0.124576 0.0045397
v 0.08665 0.12733 0.000207
v 0.085846 0.127969 -0.001898
v 0.085033 0.128431 -0.004064
v 0.0834475 0.128616 -0.00840683
v 0.0839725 0.120801 -0.00960311
v 0.0805871 0.120372 -0.0181428
v 0.0778739 0.124024 -0.0235525
v 0.0792943 -0.103406 -0.0259197
v 0.0814392 -0.0786435 -0.0323122
v 0.0885249 -0.0627001 -0.0265638
v 0.083758 -0.0655228 -0.0349486
v 0.0846982 -0.0855193 -0.0218057
v 0.0763972 -0.0737268 -0.0458356
v 0.0737537 -0.0783353 -0.0490209
v 0.076287 -0.087409 -0.038652
v 0.0738952 -0.0960503 -0.0401601
v 0.073509 -0.101965 -0.0390951
v 0.0765096 -0.106019 -0.0312831
v 0.0761967 -0.119323 -0.0287149
v 0.0745535 -0.135713 -0.0283545
v 0.095987 -0.107894 0.017048
v 0.0984603 -0.084273 0.00979497
v 0.098655 -0.08655 0.011832
v 0.098705 -0.088223 0.013065
v 0.098604 -0.091863 0.015125
v 0.098459 -0.093778 0.015924
v 0.0981326 -0.0967105 0.0168142
v 0.097683 -0.099792 0.01737
v 0.096474 -0.105887 0.017366
v 0.092458 -0.074849 -0.011186
v 0.0919976 -0.0819201 -0.00807741
v 0.0941307 -0.0836078 -0.00161948
v 0.097754 -0.080992 0.005705
v 0.0905362 -0.0737329 -0.0159763
v 0.0893219 -0.0625374 -0.0249619
v 0.0949032 -0.111817 0.0159439
v 0.09087 -0.113599 0.00651295
v 0.0882573 -0.117312 0.00131554
v 0.080212 -0.127332 -0.01706
v 0.0820405 -0.142039 -0.00794371
v 0.0848635 -0.120933 -0.00709511
v 0.0852518 -0.121315 -0.00584969
v 0.0863204 -0.127216 -0.000792579
v 0.0877826 -0.118021 0.000262918
v 0.0806145 -0.10699 -0.0223694
v 0.082521 -0.0851471 -0.0265267
v 0.0867261 -0.081639 -0.019711
v 0.084257 -0.083294 -0.023934
v 0.0796883 -0.0897812 -0.0300653
v 0.0773936 -0.0943283 -0.0328756
v 0.0787248 -0.0906276 -0.031641
v 0.0772684 -0.0991587 -0.0314246
v 0.077269 -0.101802 -0.03066
v 0.077371 -0.1031 -0.030108
v 0.079085 -0.112843 -0.023843
v 0.08002 -0.115875 -0.020853
v 0.0930145 -0.105265 0.00850071
v 0.0948833 -0.0904358 0.00491984
v 0.094885 -0.092741 0.006422
v 0.0947413 -0.0953111 0.00765724
v 0.094195 -0.099551 0.0086853
v 0.093647 -0.102449 0.008774
v 0.0943492 -0.0866781 0.000971193
v 0.088302 -0.08129 -0.016584
v 0.0899412 -0.0806877 -0.0133278
v 0.0815017 -0.119913 -0.0161162
v 0.0839327 -0.115174 -0.0120008
v 0.0844075 -0.115281 -0.0107381
v 0.083621 -0.119836 -0.010927
v 0.0839075 -0.0892669 -0.021979
v 0.0839428 -0.0879108 -0.022374
v 0.0859955 -0.0858326 -0.0191902
v 0.0818184 -0.0899491 -0.0256048
v 0.0817008 -0.0928603 -0.0247426
v 0.0804325 -0.0969829 -0.0256747
v 0.0812067 -0.110973 -0.0198029
v 0.080759 -0.110234 -0.0209657
v 0.0905491 -0.105755 0.00180537
v 0.0924931 -0.0928909 -0.000174436
v 0.0924757 -0.0954868 0.00145891
v 0.0921094 -0.0989169 0.00254384
v 0.0915463 -0.101884 0.00263213
v 0.0905587 -0.0881408 -0.00834319
v 0.0918353 -0.088299 -0.00472932
v 0.0921313 -0.0904234 -0.00279911
v 0.0882428 -0.0855828 -0.0146728
v 0.0893166 -0.0865964 -0.011961
v 0.0869545 -0.0859366 -0.017249
v 0.0901951 -0.108125 0.00214604
v 0.087933 -0.111321 -0.00267133
v 0.0820698 -0.112912 -0.0172725
v 0.0833373 -0.114046 -0.0140095
v 0.085423 -0.114609 -0.0083538
v 0.0860744 -0.114887 -0.00622816
v 0.0864795 -0.114642 -0.00509779
v 0.088369 -0.099141 -0.011649
v 0.0917174 0.109577 0.00696912
v 0.0788654 0.111761 -0.024654
v 0.087007 0.081548 -0.019174
v 0.086336 0.081834 -0.020417
v 0.0851238 0.0820969 -0.0227562
v 0.0831588 0.0843539 -0.0256297
v 0.0808498 0.0875551 -0.0287393
v 0.079734 0.089714 -0.030009
v 0.0787115 0.0921417 -0.0310343
v 0.0769714 0.0971802 -0.0326921
v 0.0766599 0.100787 -0.0322245
v 0.0766775 0.102936 -0.0315955
v 0.079352 0.113928 -0.022929
v 0.079664 0.11494 -0.021931
v 0.0919817 0.0874872 -0.0047689
v 0.0943336 0.0867353 0.000969891
v 0.0949195 0.0922674 0.00621956
v 0.0946657 0.096038 0.00789174
v 0.0948651 0.0982997 0.00975845
v 0.093929 0.101027 0.008775
v 0.0936014 0.105002 0.0099565
v 0.090261 0.0818699 -0.0120577
v 0.0879151 0.085562 -0.0153839
v 0.087922 0.0813108 -0.0173798
v 0.0907108 0.087001 -0.00839967
v 0.0890738 0.111185 0.000627313
v 0.0884338 0.11642 0.00133195
v 0.087589 0.117613 -0.000548
v 0.0857248 0.119507 -0.0052503
v 0.08441 0.115281 -0.0107316
v 0.0839227 0.115174 -0.0120257
v 0.0828466 0.114517 -0.0149001
v 0.0817185 0.113166 -0.0179409
v 0.091087 0.103859 0.00238339
v 0.0813212 0.108145 -0.0206294
v 0.0865717 0.0869765 -0.0177027
v 0.0849088 0.0881486 -0.0205109
v 0.083398 0.0899373 -0.0226798
v 0.0813264 0.093643 -0.0251498
v 0.0802311 0.0983609 -0.025616
v 0.0804695 0.103642 -0.0236705
v 0.0819955 0.110695 -0.0183687
v 0.0921701 0.0890981 -0.00335741
v 0.0927527 0.0898138 -0.00122278
v 0.0925308 0.0940483 0.000688984
v 0.0922534 0.097895 0.00233616
v 0.09177 0.1008 0.00266506
v 0.0897634 0.0874242 -0.0106262
v 0.0885287 0.0867076 -0.0137142
v 0.0879013 0.11143 -0.00269359
v 0.0864323 0.113131 -0.00626993
v 0.0851944 0.114728 -0.00891934
v 0.088369 0.099141 -0.011649
v 0.01433 0.09226 0.063696
v 0.0216954 -0.0968343 0.0620555
v 0.0143358 -0.00762802 0.0593648
v 0.0143371 0.0441899 0.0593661
v 0.0143362 -0.0249197 0.0593652
v 0.0143361 0.0184891 0.0593651
v 0.0143383 -0.0370732 -0.0786773
v 0.0140773 -0.0600107 -0.0785326
v 0.0143269 0.0453351 -0.0786711
v 0.0143364 -0.021368 -0.0786762
v 0.0143363 0.0341287 -0.0786762
v 0.014336 0.059964 -0.078676
v 0.0143307 -0.0445244 -0.0786748
v 0.014528 -0.017822 -0.106373
v 0.014526 -0.041461 -0.091355
v 0.0145306 -0.0247006 -0.106126
v 0.014335 -0.045948 -0.088407
v 0.0137081 -0.0504377 -0.0853405
v 0.014337 -0.0441787 0.059366
v 0 0.04419 0.04519
v 0 -0.060232 -0.070648
v 0 0.059964 -0.070648
v 0 -0.044179 0.04519
f 571 569 568
f 615 616 377
f 613 622 623
f 616 615 617
f 617 615 383
f 617 383 382
f 379 381 378
f 626 375 624
f 735 739 736
f 732 744 745
f 745 744 743
f 789 860 817
f 740 742 741
f 740 743 742
f 731 740 730
f 1060 281 1058
f 618 376 378
f 619 370 376
f 624 625 623
f 365 364 382
f 733 734 687
f 381 380 615
f 734 745 739
f 745 743 739
f 743 744 742
f 742 744 741
f 744 732 741
f 732 740 741
f 732 738 730
f 737 584 731
f 730 740 732
f 739 735 590
f 590 734 739
f 734 733 745
f 731 730 738
f 738 737 731
f 617 382 625
f 616 617 620
f 377 616 620
f 381 615 619
f 615 377 619
f 618 378 381
f 619 376 618
f 625 620 617
f 613 625 382
f 624 375 625
f 613 623 625
f 619 618 381
f 1058 281 285
f 282 1054 1060
f 1064 1065 1067
f 284 285 1055
f 285 1054 1055
f 1054 281 1060
f 1054 285 281
f 1064 1067 1047
f 1063 1049 1067
f 1049 1047 1067
f 1047 1050 1064
f 1050 1048 1064
f 1064 1066 1065
f 1055 1054 1066
f 1053 1055 1066
f 1066 1056 1053
f 1065 1066 1054
f 1054 1051 1065
f 1051 1057 1065
f 1057 1052 1065
f 532 578 581
f 376 298 378
f 344 301 340
f 358 139 360
f 793 776 778
f 662 658 681
f 391 96 93
f 273 9 20
f 45 57 67
f 82 78 84
f 52 54 56
f 56 54 51
f 80 78 71
f 71 78 81
f 136 133 131
f 106 563 107
f 106 461 75
f 75 460 108
f 109 97 98
f 109 110 32
f 559 125 560
f 102 119 112
f 112 119 113
f 909 120 119
f 120 121 119
f 119 121 123
f 459 123 458
f 458 123 121
f 457 535 124
f 124 123 459
f 560 125 102
f 905 126 559
f 559 930 905
f 105 465 74
f 74 465 464
f 74 464 463
f 106 159 462
f 908 909 119
f 559 111 103
f 74 109 87
f 87 109 98
f 37 155 210
f 152 151 150
f 150 151 180
f 180 352 348
f 150 356 152
f 356 210 885
f 210 154 885
f 37 353 155
f 37 156 353
f 161 162 166
f 166 162 349
f 163 350 164
f 246 351 165
f 163 166 349
f 167 169 166
f 172 215 173
f 146 213 167
f 213 146 174
f 174 146 175
f 160 228 146
f 146 228 236
f 146 236 175
f 178 177 176
f 178 130 132
f 178 132 177
f 202 150 180
f 27 115 118
f 55 101 427
f 182 167 147
f 147 167 213
f 181 24 1
f 146 163 164
f 144 145 176
f 109 74 127
f 178 141 130
f 864 145 144
f 864 144 228
f 62 65 59
f 187 348 185
f 187 185 186
f 189 187 180
f 186 325 188
f 27 183 115
f 41 34 33
f 172 148 224
f 213 174 218
f 182 147 216
f 219 174 217
f 225 147 221
f 147 222 791
f 147 791 220
f 768 545 540
f 147 225 216
f 219 236 635
f 635 236 235
f 232 104 231
f 176 232 227
f 176 227 144
f 228 235 236
f 230 228 144
f 175 236 174
f 425 530 537
f 238 252 239
f 240 166 244
f 166 169 244
f 251 351 246
f 238 243 241
f 394 194 374
f 161 166 246
f 282 1060 43
f 43 1060 44
f 44 1058 285
f 256 5 284
f 11 256 288
f 284 5 13
f 284 13 285
f 285 13 12
f 57 414 417
f 257 263 6
f 11 258 257
f 259 258 287
f 271 269 268
f 274 8 7
f 253 274 242
f 242 274 279
f 9 267 274
f 498 497 501
f 642 325 186
f 642 641 325
f 325 641 295
f 324 325 295
f 343 344 289
f 372 194 341
f 346 343 289
f 334 335 289
f 153 155 354
f 154 153 355
f 180 151 352
f 140 360 139
f 360 861 41
f 360 41 361
f 276 271 268
f 268 269 276
f 276 269 609
f 609 269 266
f 362 364 238
f 252 365 250
f 373 625 375
f 340 619 377
f 367 381 379
f 86 723 393
f 568 80 393
f 393 80 76
f 76 71 393
f 399 205 206
f 199 402 401
f 401 384 208
f 403 385 384
f 645 410 411
f 416 62 417
f 50 428 48
f 331 341 194
f 14 272 273
f 7 9 274
f 147 637 221
f 311 290 303
f 391 390 720
f 448 751 449
f 448 449 450
f 453 451 452
f 450 449 128
f 205 180 206
f 460 75 461
f 463 100 74
f 846 736 451
f 478 505 761
f 506 505 478
f 506 478 479
f 481 915 473
f 504 761 505
f 447 471 443
f 313 329 314
f 346 289 335
f 347 335 330
f 322 308 310
f 346 345 321
f 329 328 314
f 295 335 326
f 346 297 343
f 305 303 291
f 327 347 330
f 509 508 470
f 537 532 425
f 535 528 123
f 275 267 278
f 529 534 430
f 530 433 531
f 166 251 246
f 532 537 492
f 559 560 557
f 173 548 116
f 116 548 117
f 539 113 114
f 542 544 543
f 513 487 514
f 539 114 544
f 544 114 767
f 540 546 114
f 547 549 768
f 545 768 546
f 554 550 111
f 229 235 228
f 558 556 231
f 541 557 560
f 231 104 558
f 558 110 555
f 103 555 110
f 111 550 103
f 103 550 555
f 559 557 111
f 541 766 557
f 557 766 764
f 173 214 548
f 174 236 217
f 28 18 22
f 210 34 35
f 25 273 20
f 112 113 544
f 736 573 451
f 374 194 373
f 580 422 418
f 580 418 438
f 438 423 580
f 423 440 580
f 625 372 620
f 582 737 738
f 584 737 583
f 585 743 740
f 385 386 384
f 513 515 575
f 592 594 593
f 408 205 400
f 608 850 702
f 587 603 567
f 567 562 572
f 567 572 571
f 567 561 570
f 567 570 562
f 566 564 601
f 590 735 591
f 591 735 846
f 591 846 683
f 847 608 603
f 603 608 567
f 608 602 564
f 613 382 614
f 614 382 612
f 612 382 611
f 611 382 362
f 611 362 610
f 142 131 133
f 564 566 563
f 632 188 629
f 231 633 233
f 233 633 796
f 227 797 229
f 634 235 229
f 634 635 235
f 790 218 174
f 224 639 223
f 223 226 215
f 723 586 393
f 798 802 674
f 622 621 1045
f 715 688 690
f 716 692 688
f 682 680 662
f 706 682 707
f 712 706 711
f 774 652 648
f 648 652 650
f 677 674 681
f 677 681 666
f 669 668 412
f 688 845 820
f 693 800 694
f 693 695 800
f 698 390 387
f 713 704 703
f 705 706 697
f 707 718 684
f 684 718 708
f 707 684 711
f 666 663 664
f 710 713 712
f 712 713 703
f 683 686 690
f 690 686 715
f 1046 683 690
f 684 710 711
f 709 712 711
f 648 677 666
f 103 127 559
f 654 669 621
f 675 646 674
f 687 1046 719
f 718 707 682
f 392 391 720
f 725 388 644
f 588 721 722
f 171 184 148
f 130 133 136
f 413 655 410
f 592 685 683
f 704 601 602
f 727 407 726
f 700 850 847
f 849 608 702
f 332 338 341
f 746 747 581
f 748 422 580
f 748 580 749
f 750 579 747
f 747 579 581
f 746 581 745
f 105 74 81
f 40 861 39
f 292 351 245
f 358 388 387
f 294 317 314
f 143 138 136
f 659 681 658
f 592 451 453
f 498 525 524
f 213 218 222
f 423 424 440
f 554 552 550
f 766 102 543
f 114 546 841
f 538 546 768
f 768 842 834
f 778 776 779
f 787 788 789
f 219 783 790
f 218 790 782
f 780 225 221
f 640 639 776
f 776 639 638
f 231 775 633
f 634 797 795
f 219 636 794
f 219 794 783
f 840 767 841
f 775 796 633
f 207 396 206
f 258 288 287
f 565 595 605
f 555 763 843
f 446 447 448
f 646 798 674
f 793 833 769
f 523 500 489
f 107 565 605
f 401 208 209
f 43 12 65
f 435 434 436
f 401 212 199
f 231 762 775
f 77 562 78
f 662 681 674
f 725 384 660
f 720 86 95
f 60 58 57
f 340 339 344
f 556 843 762
f 445 444 753
f 14 273 10
f 783 782 790
f 5 4 12
f 28 68 45
f 668 772 671
f 607 589 759
f 757 605 604
f 123 124 535
f 14 16 6
f 342 344 332
f 289 324 334
f 327 312 316
f 127 74 100
f 371 620 372
f 276 277 271
f 122 119 123
f 402 726 407
f 838 766 765
f 454 444 453
f 661 404 728
f 717 693 708
f 615 366 383
f 585 739 743
f 81 70 71
f 660 729 661
f 336 330 335
f 115 540 118
f 448 450 128
f 263 262 261
f 303 290 302
f 674 676 675
f 177 104 232
f 264 14 6
f 802 798 799
f 154 155 153
f 198 342 333
f 49 419 255
f 598 566 599
f 239 247 251
f 788 775 789
f 552 555 550
f 64 56 63
f 102 112 542
f 491 493 502
f 708 718 717
f 847 587 588
f 182 216 225
f 289 342 324
f 388 649 387
f 699 702 697
f 105 84 83
f 50 58 429
f 256 284 283
f 1 168 167
f 578 532 492
f 199 210 36
f 430 534 436
f 339 338 344
f 273 267 9
f 515 522 518
f 190 191 630
f 368 297 296
f 181 8 24
f 378 368 379
f 782 791 218
f 101 529 430
f 62 416 415
f 551 553 837
f 374 645 394
f 723 721 588
f 35 37 210
f 504 526 480
f 42 38 39
f 309 311 310
f 330 336 295
f 419 442 441
f 176 157 141
f 433 436 534
f 198 191 197
f 443 448 447
f 760 445 753
f 850 608 847
f 89 91 94
f 522 514 487
f 88 85 73
f 846 451 592
f 188 190 629
f 251 245 351
f 418 421 48
f 61 118 55
f 590 591 734
f 331 192 195
f 547 540 117
f 271 14 269
f 491 524 495
f 823 860 789
f 789 817 787
f 860 825 859
f 795 805 807
f 816 787 817
f 781 814 637
f 782 813 781
f 855 830 831
f 818 819 803
f 819 777 803
f 803 777 778
f 803 778 815
f 815 778 779
f 789 762 823
f 823 762 843
f 823 843 825
f 837 827 826
f 844 830 829
f 831 840 841
f 841 832 831
f 833 777 819
f 833 819 842
f 640 769 226
f 225 780 792
f 551 837 836
f 551 836 554
f 554 836 825
f 554 825 763
f 763 825 835
f 763 835 843
f 844 829 766
f 830 544 839
f 782 781 791
f 634 785 635
f 476 484 477
f 42 862 863
f 394 631 196
f 499 467 497
f 18 16 17
f 658 728 659
f 195 333 332
f 641 330 295
f 66 59 65
f 171 20 181
f 495 496 494
f 714 701 702
f 834 538 768
f 233 796 787
f 50 48 49
f 125 119 102
f 786 227 234
f 634 795 785
f 111 551 554
f 425 434 435
f 321 305 346
f 689 690 688
f 34 210 211
f 675 648 650
f 36 356 150
f 114 119 101
f 229 797 634
f 690 691 719
f 672 648 666
f 756 755 448
f 501 481 498
f 430 431 427
f 467 536 535
f 147 213 222
f 505 475 526
f 304 327 311
f 380 366 615
f 245 320 292
f 647 667 656
f 409 206 396
f 693 684 708
f 688 715 716
f 126 125 559
f 731 575 574
f 316 311 327
f 34 41 40
f 92 97 32
f 368 290 367
f 298 299 297
f 83 78 79
f 490 494 475
f 674 801 696
f 506 521 505
f 631 627 193
f 173 183 172
f 78 572 77
f 492 476 577
f 251 320 245
f 722 720 697
f 704 602 849
f 602 608 849
f 660 404 729
f 659 726 665
f 728 727 659
f 543 844 766
f 473 525 498
f 219 635 636
f 224 223 172
f 705 697 698
f 26 19 25
f 331 194 196
f 536 533 528
f 265 264 266
f 694 821 692
f 98 89 87
f 144 229 230
f 406 201 205
f 308 307 290
f 429 439 438
f 396 631 395
f 318 322 323
f 453 758 592
f 498 499 497
f 436 437 430
f 404 402 728
f 419 422 442
f 301 299 369
f 20 7 8
f 10 15 14
f 732 476 738
f 725 679 388
f 517 469 520
f 135 29 134
f 588 587 586
f 136 137 135
f 122 123 533
f 665 726 657
f 572 568 571
f 290 366 306
f 276 362 238
f 46 23 45
f 176 177 232
f 392 95 96
f 490 503 495
f 348 189 180
f 564 563 562
f 623 412 624
f 764 827 553
f 195 193 198
f 140 143 39
f 309 308 290
f 668 654 771
f 833 793 777
f 471 520 506
f 346 335 345
f 490 477 503
f 503 483 491
f 48 420 419
f 786 234 787
f 452 451 573
f 502 537 536
f 437 436 434
f 629 190 630
f 518 507 509
f 671 670 673
f 477 484 483
f 534 531 433
f 27 21 26
f 822 765 766
f 371 341 340
f 467 527 497
f 780 804 792
f 851 825 824
f 782 810 812
f 809 635 808
f 854 829 830
f 816 795 786
f 784 809 810
f 179 141 158
f 87 70 81
f 683 734 591
f 293 320 317
f 445 760 758
f 851 824 837
f 853 831 832
f 783 810 782
f 857 838 852
f 334 324 295
f 438 426 423
f 638 792 776
f 54 432 437
f 90 94 91
f 863 141 179
f 640 223 639
f 288 258 11
f 732 578 577
f 99 96 95
f 431 430 437
f 429 58 51
f 511 583 576
f 758 759 589
f 631 192 196
f 368 303 302
f 157 145 149
f 412 655 413
f 500 510 477
f 298 297 368
f 1 274 253
f 363 364 362
f 773 671 772
f 555 554 763
f 856 822 829
f 856 838 822
f 757 448 752
f 755 446 448
f 365 237 364
f 737 582 576
f 548 769 549
f 1 8 274
f 792 804 815
f 425 581 579
f 584 512 513
f 580 750 749
f 670 653 648
f 523 511 486
f 701 849 702
f 639 224 638
f 452 454 453
f 847 588 722
f 701 712 703
f 299 343 297
f 191 193 630
f 23 2 3
f 97 109 32
f 569 572 78
f 397 627 396
f 756 757 755
f 729 404 661
f 3 47 4
f 279 267 280
f 365 382 383
f 656 671 673
f 249 247 248
f 695 717 682
f 202 203 205
f 373 194 372
f 574 740 731
f 492 577 578
f 337 312 330
f 474 472 473
f 243 253 242
f 370 301 369
f 31 30 29
f 417 59 57
f 561 564 562
f 793 778 777
f 69 27 118
f 265 266 269
f 200 202 201
f 34 40 38
f 319 249 308
f 39 142 862
f 508 444 470
f 169 167 168
f 135 134 130
f 753 456 754
f 773 648 653
f 187 206 180
f 307 249 366
f 426 429 51
f 108 105 75
f 482 474 473
f 645 412 413
f 332 333 342
f 629 630 397
f 638 225 792
f 335 334 326
f 509 516 518
f 383 250 365
f 709 710 712
f 239 252 250
f 692 845 688
f 683 1046 734
f 522 468 469
f 650 652 651
f 72 86 393
f 754 447 446
f 328 643 314
f 542 112 544
f 733 687 719
f 313 322 310
f 576 476 511
f 432 53 427
f 257 262 263
f 304 303 305
f 127 110 109
f 724 668 647
f 629 397 398
f 167 182 148
f 490 475 500
f 381 306 380
f 86 73 85
f 406 405 726
f 280 241 242
f 519 523 489
f 249 250 366
f 649 678 387
f 720 698 697
f 390 93 90
f 55 53 432
f 65 4 47
f 186 632 187
f 510 486 511
f 432 431 437
f 493 483 484
f 243 242 241
f 574 515 516
f 444 507 456
f 480 496 474
f 546 540 545
f 530 435 433
f 520 468 519
f 315 292 320
f 255 50 49
f 589 592 758
f 25 170 26
f 46 67 47
f 159 107 128
f 632 628 187
f 386 361 208
f 50 254 57
f 134 132 130
f 32 29 92
f 696 800 695
f 529 530 534
f 199 202 200
f 387 390 359
f 42 34 38
f 69 63 68
f 26 170 27
f 63 58 60
f 19 10 273
f 68 60 45
f 805 795 806
f 256 3 5
f 21 17 26
f 566 565 563
f 177 30 31
f 696 682 674
f 199 150 202
f 73 72 71
f 562 106 79
f 537 530 536
f 388 679 678
f 168 238 240
f 323 314 317
f 472 524 525
f 42 158 37
f 389 92 359
f 105 81 82
f 314 899 900
f 294 900 293
f 145 864 892
f 864 865 996
f 160 866 865
f 315 901 902
f 160 867 866
f 160 868 867
f 156 880 353
f 353 880 155
f 151 1012 352
f 146 869 868
f 146 870 869
f 155 881 354
f 157 891 890
f 146 871 870
f 149 892 891
f 354 882 153
f 153 883 355
f 350 872 871
f 355 884 154
f 350 873 872
f 350 874 873
f 349 874 163
f 348 879 894
f 356 887 152
f 875 349 162
f 152 1010 151
f 641 895 896
f 641 896 897
f 337 897 898
f 161 876 162
f 328 898 899
f 246 877 161
f 186 893 642
f 157 890 889
f 108 918 917
f 443 932 751
f 120 945 121
f 915 961 473
f 443 933 455
f 108 919 918
f 761 938 478
f 159 924 462
f 906 904 125
f 457 913 903
f 159 916 924
f 463 925 100
f 473 934 482
f 459 912 913
f 935 937 504
f 455 932 443
f 461 921 920
f 751 931 449
f 105 928 465
f 461 922 921
f 478 939 479
f 909 910 120
f 504 937 761
f 121 945 911
f 457 914 535
f 100 929 127
f 462 923 922
f 479 939 443
f 908 968 909
f 482 964 935
f 463 979 926
f 935 988 936
f 911 945 947
f 912 947 948
f 938 990 478
f 917 953 958
f 478 990 939
f 913 948 949
f 929 959 930
f 914 951 915
f 931 952 128
f 903 950 914
f 919 954 953
f 460 955 954
f 905 967 907
f 930 942 905
f 906 943 904
f 922 956 955
f 904 968 908
f 462 957 956
f 909 944 910
f 462 952 957
f 934 962 482
f 926 979 978
f 927 980 979
f 936 988 989
f 958 974 980
f 990 985 939
f 926 982 960
f 966 965 941
f 953 975 974
f 947 970 903
f 907 966 943
f 955 976 975
f 939 984 933
f 984 973 932
f 968 969 944
f 956 977 976
f 944 969 946
f 952 973 977
f 946 970 945
f 961 987 962
f 979 980 991
f 989 988 991
f 971 972 991
f 990 989 991
f 980 974 991
f 972 940 991
f 981 982 991
f 985 990 991
f 983 981 991
f 965 966 991
f 974 975 991
f 907 967 991
f 903 970 991
f 967 983 991
f 966 907 991
f 975 976 991
f 968 965 991
f 984 985 991
f 973 984 991
f 986 971 991
f 976 977 991
f 987 986 991
f 977 973 991
f 982 978 991
f 970 969 991
f 969 968 991
f 962 987 991
f 963 962 991
f 978 979 991
f 940 903 991
f 988 963 991
f 886 1009 887
f 874 1001 1000
f 899 1020 1043
f 899 1043 900
f 1010 1011 888
f 293 1021 1022
f 293 1022 901
f 891 1014 1013
f 902 1023 1024
f 891 1015 1014
f 889 1013 1016
f 878 1005 1004
f 351 1024 1005
f 864 995 994
f 156 1006 880
f 878 1004 993
f 865 997 996
f 892 994 1015
f 880 1034 881
f 881 1007 882
f 642 1017 1018
f 882 1035 883
f 868 998 997
f 185 992 1017
f 883 1035 884
f 884 1008 885
f 895 1018 1019
f 871 999 998
f 895 1019 1020
f 885 1008 886
f 871 1000 999
f 1003 1031 1002
f 877 1032 1003
f 878 1032 877
f 993 1032 878
f 879 1025 992
f 1012 1025 879
f 1013 1040 1039
f 996 1028 1027
f 993 1033 1026
f 1015 1027 1014
f 992 1025 1017
f 997 1029 1028
f 998 1030 1029
f 1035 1036 1008
f 1020 1041 1042
f 1008 1037 1009
f 1020 1042 1043
f 1009 1037 1010
f 875 1031 1001
f 900 1043 1021
f 1010 1038 1011
f 1002 1031 875
f 1011 1038 1012
f 1024 1023 1044
f 1033 1024 1044
f 1040 1014 1044
f 1032 1026 1044
f 1016 1039 1044
f 1039 1040 1044
f 889 1016 1044
f 1027 1028 1044
f 1026 1033 1044
f 1006 889 1044
f 1014 1027 1044
f 1034 1006 1044
f 1041 1017 1044
f 1017 1025 1044
f 1028 1029 1044
f 1035 1034 1044
f 1029 1030 1044
f 1036 1035 1044
f 1042 1041 1044
f 1037 1036 1044
f 1043 1042 1044
f 1030 1031 1044
f 1021 1043 1044
f 1038 1037 1044
f 1022 1021 1044
f 1023 1022 1044
f 1025 1038 1044
f 1031 1032 1044
f 593 594 715
f 594 589 715
f 589 607 715
f 607 606 715
f 606 597 715
f 597 596 715
f 596 598 715
f 598 599 716
f 598 716 715
f 848 592 593
f 686 683 685
f 715 686 685
f 848 593 715
f 715 685 848
f 599 600 710
f 716 599 710
f 600 601 710
f 684 716 710
f 601 713 710
f 657 726 405
f 666 665 673
f 673 665 656
f 656 665 408
f 657 405 665
f 405 408 665
f 656 408 400
f 647 656 399
f 400 399 656
f 668 724 655
f 724 410 655
f 724 647 410
f 399 409 647
f 409 396 647
f 396 411 647
f 411 410 647
f 240 239 251
f 143 140 139
f 645 374 626
f 106 75 79
f 453 445 758
f 156 158 157
f 148 225 224
f 377 371 340
f 628 398 396
f 33 209 361
f 194 394 196
f 820 689 688
f 271 272 14
f 266 261 260
f 276 609 362
f 568 569 80
f 846 735 736
f 626 624 645
f 555 556 558
f 231 233 232
f 566 595 565
f 364 237 252
f 57 58 50
f 543 102 542
f 89 98 97
f 586 723 588
f 248 239 250
f 576 583 737
f 238 275 276
f 71 72 393
f 376 369 298
f 420 421 422
f 48 421 420
f 4 5 3
f 344 300 301
f 240 238 239
f 757 604 755
f 22 18 17
f 23 3 18
f 201 202 205
f 264 263 261
f 680 679 662
f 319 308 318
f 115 173 116
f 172 223 215
f 757 107 605
f 252 238 364
f 389 359 390
f 67 57 59
f 12 13 5
f 32 104 31
f 488 500 475
f 220 781 637
f 471 456 520
f 605 597 604
f 619 340 370
f 516 470 585
f 589 594 592
f 360 140 861
f 544 113 539
f 358 138 139
f 793 640 776
f 596 595 598
f 790 174 219
f 382 363 362
f 697 847 722
f 544 767 839
f 456 507 517
f 326 334 295
f 787 234 233
f 662 679 658
f 506 520 519
f 61 64 118
f 191 325 197
f 754 755 759
f 527 501 497
f 102 766 541
f 217 236 219
f 391 392 96
f 16 11 6
f 47 66 65
f 51 58 56
f 110 558 104
f 45 60 57
f 46 47 2
f 61 52 56
f 61 432 52
f 64 69 118
f 29 30 129
f 38 40 39
f 71 70 73
f 83 75 105
f 82 81 78
f 17 16 15
f 179 42 863
f 41 33 361
f 129 134 29
f 177 134 129
f 862 142 133
f 863 862 133
f 163 167 166
f 89 88 87
f 94 99 89
f 104 32 110
f 55 114 101
f 101 430 427
f 378 298 368
f 283 286 256
f 33 34 209
f 62 282 65
f 445 453 444
f 561 567 564
f 562 563 106
f 27 170 183
f 562 77 572
f 75 83 79
f 273 272 270
f 426 54 437
f 266 264 261
f 214 226 548
f 548 549 117
f 57 254 414
f 437 423 426
f 481 501 915
f 504 480 935
f 114 841 767
f 505 521 519
f 526 504 505
f 535 915 501
f 523 487 513
f 432 61 55
f 573 736 739
f 575 584 513
f 71 76 80
f 579 580 425
f 609 266 260
f 600 599 566
f 564 602 601
f 596 597 595
f 585 574 516
f 605 595 597
f 567 608 564
f 270 271 277
f 331 332 341
f 278 267 277
f 7 20 9
f 662 674 682
f 831 839 767
f 311 309 290
f 567 571 568
f 205 204 180
f 202 204 203
f 346 305 291
f 319 323 320
f 308 309 310
f 313 316 329
f 321 345 335
f 347 321 335
f 317 320 323
f 304 311 303
f 329 312 328
f 295 336 335
f 344 343 300
f 346 291 297
f 327 321 347
f 275 280 267
f 239 248 247
f 166 240 251
f 230 229 228
f 541 560 102
f 437 434 424
f 496 495 524
f 28 23 18
f 200 402 199
f 247 249 319
f 25 19 273
f 195 332 331
f 199 212 210
f 34 401 209
f 625 373 372
f 513 514 515
f 413 410 645
f 408 405 205
f 679 660 661
f 398 397 396
f 395 631 394
f 142 143 131
f 310 316 313
f 721 723 722
f 628 632 398
f 208 361 209
f 704 701 703
f 714 697 706
f 714 699 697
f 694 692 693
f 716 684 692
f 698 387 678
f 680 682 706
f 711 706 707
f 712 714 706
f 717 718 682
f 500 486 485
f 673 672 666
f 666 681 663
f 676 677 648
f 673 670 648
f 654 668 669
f 675 651 646
f 675 650 651
f 360 644 358
f 403 360 385
f 172 183 148
f 183 170 171
f 171 181 184
f 183 171 148
f 167 148 184
f 592 848 685
f 704 713 601
f 697 702 850
f 700 697 850
f 332 344 338
f 40 41 861
f 292 315 351
f 294 293 317
f 143 139 138
f 659 664 681
f 198 193 191
f 140 39 861
f 547 768 540
f 762 789 775
f 797 786 795
f 840 831 767
f 45 23 28
f 207 628 396
f 759 755 607
f 646 651 798
f 199 36 150
f 563 565 107
f 43 44 12
f 234 227 233
f 401 210 212
f 231 556 762
f 725 403 384
f 243 168 253
f 341 371 372
f 720 723 86
f 753 754 759
f 247 319 251
f 637 147 220
f 340 341 339
f 556 555 843
f 509 507 508
f 492 537 493
f 167 184 1
f 282 62 415
f 303 296 291
f 524 491 499
f 403 725 644
f 28 69 68
f 839 831 830
f 791 222 218
f 86 99 95
f 668 771 772
f 1 184 181
f 728 402 407
f 428 50 429
f 14 15 16
f 327 330 312
f 91 92 90
f 382 364 363
f 371 377 620
f 276 278 277
f 601 600 566
f 122 101 119
f 402 406 726
f 679 661 658
f 838 764 766
f 454 470 444
f 644 388 358
f 585 573 739
f 540 114 55
f 115 116 117
f 117 540 115
f 540 55 118
f 607 755 606
f 280 275 241
f 443 471 479
f 674 677 676
f 358 137 138
f 755 604 606
f 154 210 155
f 198 324 342
f 198 197 324
f 49 48 419
f 788 796 775
f 197 325 324
f 64 61 56
f 491 483 493
f 428 429 438
f 836 837 824
f 784 636 635
f 847 603 587
f 289 344 342
f 388 678 649
f 699 714 702
f 141 863 133
f 105 82 84
f 536 530 122
f 1 253 168
f 241 275 238
f 479 471 506
f 339 341 338
f 401 34 211
f 273 270 267
f 515 514 522
f 384 401 404
f 791 781 220
f 181 20 8
f 11 257 6
f 101 122 529
f 135 130 136
f 745 581 578
f 173 215 214
f 35 42 37
f 88 73 70
f 12 44 285
f 553 827 837
f 528 535 536
f 701 704 849
f 480 526 494
f 176 145 157
f 89 97 91
f 592 683 846
f 722 723 720
f 836 824 825
f 418 422 421
f 168 243 238
f 331 196 192
f 265 14 264
f 502 499 491
f 367 290 306
f 860 823 825
f 816 786 787
f 781 813 814
f 782 811 813
f 818 842 819
f 855 854 830
f 818 853 832
f 851 837 826
f 838 828 764
f 221 637 780
f 830 844 544
f 678 679 705
f 42 39 862
f 720 390 698
f 18 11 16
f 658 661 728
f 195 198 333
f 553 111 557
f 641 337 330
f 66 67 59
f 171 25 20
f 573 585 470
f 47 67 66
f 125 908 119
f 786 797 227
f 425 440 434
f 689 691 690
f 447 456 471
f 675 676 648
f 492 493 484
f 36 210 356
f 114 113 119
f 829 822 766
f 672 673 648
f 296 297 291
f 469 518 522
f 505 519 475
f 680 706 679
f 411 396 395
f 380 306 366
f 379 368 367
f 647 668 667
f 204 202 180
f 409 399 206
f 163 146 167
f 693 692 684
f 375 626 373
f 126 906 125
f 316 310 311
f 92 91 97
f 368 302 290
f 298 369 299
f 467 499 502
f 307 308 249
f 83 84 78
f 490 495 494
f 674 802 801
f 506 519 521
f 173 115 183
f 272 271 270
f 492 484 476
f 131 143 136
f 251 319 320
f 660 384 404
f 659 727 726
f 794 784 783
f 834 842 832
f 473 472 525
f 107 757 752
f 26 17 19
f 536 122 533
f 500 488 489
f 144 227 229
f 406 402 201
f 396 627 631
f 318 308 322
f 204 205 203
f 659 666 664
f 244 168 240
f 498 524 499
f 404 401 402
f 419 420 422
f 301 300 299
f 10 17 15
f 732 577 476
f 288 256 286
f 697 700 847
f 725 660 679
f 517 518 469
f 141 178 176
f 476 582 738
f 190 188 191
f 135 137 29
f 136 138 137
f 290 307 366
f 467 502 536
f 501 527 535
f 269 14 265
f 316 312 329
f 46 2 23
f 520 469 468
f 392 720 95
f 834 832 841
f 348 187 189
f 760 753 759
f 439 426 438
f 195 192 193
f 78 80 569
f 706 705 679
f 510 511 477
f 277 267 270
f 562 79 78
f 490 500 477
f 632 629 398
f 503 477 483
f 211 210 401
f 502 493 537
f 518 517 507
f 475 494 526
f 27 22 21
f 402 200 201
f 822 838 765
f 467 535 527
f 783 784 810
f 780 814 804
f 851 826 827
f 851 858 825
f 782 812 811
f 809 784 635
f 807 808 785
f 854 856 829
f 816 806 795
f 156 37 158
f 74 87 81
f 87 88 70
f 207 206 628
f 595 566 598
f 498 481 473
f 293 315 320
f 440 425 580
f 808 635 785
f 853 855 831
f 779 792 815
f 764 828 827
f 818 832 842
f 857 828 838
f 90 93 94
f 428 418 48
f 488 475 519
f 443 751 448
f 732 745 578
f 169 168 244
f 99 93 96
f 511 512 583
f 758 760 759
f 631 193 192
f 368 296 303
f 412 668 655
f 304 305 327
f 667 668 671
f 500 485 510
f 411 395 394
f 543 544 844
f 489 488 519
f 773 653 671
f 555 552 554
f 606 604 597
f 856 852 838
f 807 785 795
f 780 637 814
f 731 584 575
f 755 754 446
f 141 157 158
f 365 252 237
f 193 627 630
f 85 99 86
f 279 280 242
f 548 226 769
f 321 327 305
f 54 426 51
f 770 654 621
f 1 24 8
f 130 141 133
f 423 437 424
f 858 859 825
f 518 516 515
f 512 511 513
f 425 532 581
f 584 583 512
f 580 579 750
f 468 487 519
f 769 768 549
f 528 533 123
f 495 503 491
f 376 370 369
f 670 671 653
f 523 513 511
f 843 835 825
f 573 470 452
f 452 470 454
f 930 559 127
f 701 714 712
f 299 300 343
f 205 399 400
f 424 434 440
f 522 487 468
f 148 182 225
f 569 568 572
f 397 630 627
f 3 2 47
f 666 659 665
f 99 94 93
f 27 28 22
f 656 667 671
f 325 191 188
f 319 318 323
f 695 693 717
f 574 585 740
f 764 553 557
f 419 441 255
f 586 587 393
f 337 328 312
f 474 496 472
f 438 418 428
f 107 752 128
f 500 523 486
f 553 551 111
f 370 340 301
f 417 62 59
f 264 6 263
f 385 360 386
f 393 567 568
f 69 28 27
f 282 43 65
f 215 226 214
f 448 128 752
f 432 54 52
f 39 143 142
f 384 386 208
f 530 531 534
f 753 444 456
f 773 774 648
f 232 233 227
f 187 628 206
f 254 255 414
f 411 394 645
f 426 439 429
f 108 466 105
f 482 480 474
f 645 624 412
f 267 279 274
f 561 562 570
f 640 226 223
f 88 89 99
f 638 224 225
f 509 470 516
f 757 756 448
f 383 366 250
f 709 711 710
f 719 691 733
f 728 407 727
f 85 88 99
f 754 456 447
f 626 374 373
f 549 547 117
f 456 517 520
f 313 323 322
f 360 403 644
f 576 582 476
f 127 103 110
f 381 367 306
f 86 72 73
f 406 205 405
f 228 357 864
f 519 487 523
f 249 248 250
f 390 391 93
f 476 477 511
f 55 427 53
f 65 12 4
f 186 188 632
f 510 485 486
f 432 427 431
f 664 663 681
f 177 31 104
f 546 538 841
f 574 575 515
f 444 508 507
f 480 494 496
f 841 538 834
f 530 425 435
f 255 254 50
f 275 278 276
f 587 567 393
f 25 171 170
f 46 45 67
f 787 796 788
f 159 106 107
f 386 360 361
f 358 29 137
f 134 177 132
f 32 31 29
f 696 801 800
f 529 122 530
f 42 35 34
f 678 705 698
f 69 64 63
f 63 56 58
f 19 17 10
f 68 63 60
f 18 3 11
f 256 11 3
f 21 22 17
f 177 129 30
f 696 695 682
f 776 792 779
f 433 435 436
f 323 313 314
f 472 496 524
f 42 179 158
f 90 92 389
f 92 29 387
f 90 389 390
f 29 358 387
f 387 359 92
f 643 328 899
f 314 643 899
f 348 352 879
f 246 165 878
f 294 314 900
f 357 160 865
f 352 1012 879
f 357 228 160
f 865 864 357
f 315 293 901
f 185 348 894
f 160 146 868
f 155 880 881
f 157 149 891
f 146 164 871
f 149 145 892
f 354 881 882
f 164 350 871
f 153 882 883
f 351 315 902
f 355 883 884
f 154 884 885
f 350 163 874
f 356 885 886
f 156 157 889
f 349 1001 874
f 349 875 1001
f 356 886 887
f 165 351 878
f 641 642 895
f 162 1002 875
f 152 887 1010
f 162 1003 1002
f 162 876 1003
f 151 1010 888
f 337 641 897
f 328 337 898
f 161 877 876
f 151 888 1012
f 246 878 877
f 186 185 893
f 120 910 946
f 761 937 938
f 480 482 935
f 100 960 929
f 125 904 908
f 126 905 907
f 443 939 933
f 108 460 919
f 100 925 960
f 457 124 913
f 127 929 930
f 159 128 916
f 463 926 925
f 449 931 128
f 473 961 934
f 460 461 920
f 457 903 914
f 935 936 937
f 463 464 927
f 455 933 932
f 124 459 913
f 464 465 927
f 751 932 931
f 105 466 928
f 461 106 922
f 458 121 911
f 466 108 917
f 535 914 915
f 106 462 922
f 126 907 906
f 459 458 912
f 482 962 963
f 482 963 964
f 463 927 979
f 935 964 988
f 927 465 958
f 912 458 947
f 937 936 989
f 465 928 958
f 928 466 958
f 938 937 989
f 466 917 958
f 914 972 971
f 938 989 990
f 914 950 972
f 929 960 981
f 930 959 983
f 913 912 948
f 929 981 959
f 914 971 951
f 916 128 952
f 925 926 960
f 917 918 953
f 904 966 941
f 931 932 952
f 918 919 953
f 903 940 950
f 919 460 954
f 458 911 947
f 460 920 955
f 905 942 967
f 930 983 942
f 920 921 955
f 906 907 943
f 932 933 984
f 921 922 955
f 904 943 966
f 904 941 968
f 922 923 956
f 923 462 956
f 909 968 944
f 915 951 986
f 915 986 987
f 462 924 952
f 910 944 946
f 915 987 961
f 924 916 952
f 120 946 945
f 934 961 962
f 964 963 988
f 947 945 970
f 927 958 980
f 948 947 903
f 913 949 903
f 958 953 974
f 950 940 972
f 960 982 981
f 959 981 983
f 949 948 903
f 952 932 973
f 953 954 975
f 954 955 975
f 942 983 967
f 955 956 976
f 941 965 968
f 939 985 984
f 951 971 986
f 956 957 977
f 957 952 977
f 946 969 970
f 982 926 978
f 896 895 1020
f 872 873 1000
f 897 896 1020
f 886 1008 1009
f 873 874 1000
f 898 897 1020
f 899 898 1020
f 887 1009 1010
f 888 1011 1012
f 293 900 1021
f 889 890 1013
f 876 877 1003
f 902 901 1023
f 891 892 1015
f 878 351 1005
f 351 902 1024
f 864 996 995
f 890 891 1013
f 156 889 1006
f 865 866 997
f 892 864 994
f 880 1006 1034
f 866 867 997
f 893 185 1017
f 881 1034 1007
f 867 868 997
f 894 879 992
f 642 893 1017
f 882 1007 1035
f 868 869 998
f 185 894 992
f 869 870 998
f 895 642 1018
f 884 1035 1008
f 870 871 998
f 871 872 1000
f 1012 1038 1025
f 1003 1032 1031
f 901 1022 1023
f 1013 1014 1040
f 993 1026 1032
f 1016 1013 1039
f 1004 1005 1033
f 1005 1024 1033
f 994 995 1027
f 995 996 1027
f 993 1004 1033
f 996 997 1028
f 1015 994 1027
f 1018 1017 1041
f 1007 1034 1035
f 997 998 1029
f 1019 1018 1041
f 998 999 1030
f 1020 1019 1041
f 999 1000 1030
f 1008 1036 1037
f 1000 1001 1030
f 1001 1031 1030
f 1010 1037 1038
f 827 828 851
f 828 857 851
f 833 842 768
f 768 769 833
f 769 640 793
f 794 636 784
f 1045 621 669
f 622 1045 669
f 669 623 622
f 669 412 623
f 719 1046 690
f 734 1046 687
f 258 259 609
f 260 258 609
f 259 287 362
f 287 288 610
f 288 286 610
f 652 1050 651
f 284 1055 283
f 651 1050 798
f 417 1061 416
f 750 417 749
f 417 414 749
f 749 414 748
f 414 255 748
f 255 441 748
f 441 442 422
f 748 441 422
f 750 747 692
f 747 746 820
f 750 821 1052
f 746 745 733
f 733 691 746
f 691 689 746
f 689 820 746
f 820 845 747
f 845 692 747
f 692 821 750
f 287 610 362
f 257 258 260
f 262 257 260
f 260 261 262
f 362 609 259
f 612 611 774
f 611 610 286
f 613 614 621
f 614 612 772
f 621 622 613
f 654 770 614
f 770 621 614
f 771 654 614
f 773 772 612
f 772 771 614
f 774 773 612
f 821 694 1063
f 1049 802 1047
f 1047 798 1050
f 1049 800 801
f 1051 416 1057
f 652 1056 1048
f 1055 1053 283
f 1052 821 1063
f 415 1051 282
f 1059 1051 415
f 1061 1057 416
f 416 1059 415
f 1062 1052 1061
f 1062 417 1052
f 1052 1067 1065
f 1056 1064 1048
f 1056 774 611
f 774 1056 652
f 611 286 1056
f 286 1053 1056
f 1052 417 750
f 44 1060 1058
f 286 283 1053
f 652 1048 1050
f 417 1062 1061
f 1063 694 800
f 1049 1063 800
f 1049 801 802
f 1047 799 798
f 1047 802 799
f 1052 1057 1061
f 1051 1059 416
f 282 1051 1054
f 1052 1063 1067
f 1056 1066 1064
