v 0.348635 -0.044081 0.16892
v 0.348635 -0.04677 0.172918
v 0.348635 0.044081 0.16892
v 0.348635 0.04677 0.172918
v 0.396654 -0.044081 0.16892
v 0.396654 -0.04677 0.172918
v 0.396654 0.044081 0.16892
v 0.396654 0.04677 0.172918
v 0.3251 -0.061051 0.122122
v 0.3251 -0.064838 0.121583
v 0.3251 0.064838 0.121583
v 0.3251 0.061051 0.122122
v 0.4038 0.061051 0.122122
v 0.4038 0.064838 0.121583
v 0.4038 -0.064838 0.121583
v 0.4038 -0.061051 0.122122
v 0.309053 -0.061051 0.076751
v 0.309053 -0.064687 0.073003
v 0.309053 0.064687 0.073003
v 0.309053 0.061051 0.076751
v 0.408862 0.061051 0.076751
v 0.408862 0.064687 0.073003
v 0.408862 -0.064687 0.073003
v 0.408862 -0.061051 0.076751
v 0.309053 -0.042727 0.076751
v 0.309053 -0.042727 0.073003
v 0.309053 0.042727 0.073003
v 0.309053 0.042727 0.076751
v 0.408862 0.042727 0.076751
v 0.408862 0.042727 0.073003
v 0.408862 -0.042727 0.073003
v 0.408862 -0.042727 0.076751
v 0.361269 0.053368 0.15417
v 0.335257 -0.061051 0.097005
v 0.361269 -0.053368 0.15417
v 0.346686 0.061051 0.122122
v 0.34644 -0.064838 0.121583
v 0.361269 0.049429 0.15417
v 0.361269 -0.049429 0.15417
v 0.335257 0.061051 0.097005
v 0.34644 0.064838 0.121583
v 0.335257 0.064762 0.097005
v 0.335257 -0.064762 0.097005
v 0.379468 0.053368 0.15417
v 0.383846 0.064838 0.121583
v 0.387148 0.064762 0.097005
v 0.387148 0.061051 0.097005
v 0.387148 -0.061051 0.097005
v 0.387148 -0.064762 0.097005
v 0.346686 -0.061051 0.122122
v 0.379468 0.049429 0.15417
v 0.379468 -0.049429 0.15417
v 0.379468 -0.053368 0.15417
v 0.383774 0.061051 0.122122
v 0.383774 -0.061051 0.122122
v 0.383846 -0.064838 0.121583
v 0.356544 0.046815 0.16138
v 0.356659 -0.046855 0.16127
v 0.388744 -0.046815 0.16138
v 0.388628 -0.046855 0.161269
v 0.356661 0.046855 0.161269
v 0.388628 0.046855 0.161269
v 0.356661 -0.046855 0.161269
v 0.38863 0.046855 0.16127
f 2 3 1
f 7 14 8
f 8 5 7
f 60 16 52
f 59 62 64
f 4 6 8
f 15 24 16
f 43 18 23
f 51 62 61
f 6 2 53
f 5 15 16
f 44 33 4
f 3 11 12
f 1 10 2
f 20 29 21
f 21 30 22
f 42 46 22
f 11 20 12
f 34 48 24
f 14 21 22
f 40 20 21
f 10 17 18
f 27 29 28
f 31 25 32
f 17 26 18
f 18 31 23
f 24 31 32
f 22 27 19
f 20 27 28
f 24 25 17
f 44 38 51
f 39 53 52
f 54 47 45
f 55 53 56
f 50 34 37
f 36 33 41
f 46 40 42
f 48 43 34
f 5 59 7
f 61 63 58
f 62 63 61
f 64 7 57
f 58 1 59
f 3 57 1
f 2 4 3
f 7 13 14
f 8 6 5
f 9 1 58
f 9 58 63
f 39 50 63
f 50 9 63
f 16 55 52
f 52 39 63
f 60 59 16
f 59 5 16
f 52 63 60
f 64 7 59
f 59 60 62
f 4 2 6
f 15 23 24
f 23 15 49
f 15 56 49
f 37 10 43
f 10 18 43
f 23 49 43
f 13 7 64
f 13 64 62
f 51 54 13
f 12 36 57
f 36 38 57
f 57 38 61
f 51 13 62
f 3 12 57
f 38 51 61
f 2 10 35
f 10 37 35
f 56 15 53
f 15 6 53
f 2 35 53
f 5 6 15
f 8 14 44
f 14 45 44
f 41 11 33
f 11 4 33
f 8 44 4
f 3 4 11
f 1 9 10
f 20 28 29
f 21 29 30
f 19 11 42
f 11 41 42
f 45 14 46
f 14 22 46
f 19 42 22
f 11 19 20
f 17 9 34
f 9 50 34
f 55 16 48
f 16 24 48
f 17 34 24
f 14 13 21
f 21 13 47
f 13 54 47
f 36 12 40
f 12 20 40
f 21 47 40
f 10 9 17
f 27 30 29
f 31 26 25
f 17 25 26
f 18 26 31
f 24 23 31
f 22 30 27
f 20 19 27
f 24 32 25
f 44 33 38
f 39 35 53
f 47 46 45
f 45 44 54
f 44 51 54
f 49 48 56
f 48 55 56
f 55 52 53
f 34 43 37
f 37 35 50
f 35 39 50
f 42 40 41
f 40 36 41
f 36 38 33
f 46 47 40
f 48 49 43
f 58 1 57
f 57 61 58
f 62 60 63
f 7 3 57
f 57 61 64
f 61 62 64
f 1 5 59
f 59 60 58
f 60 63 58
