v -0.077415 -0.064712 0
v -0.077415 -0.064712 0.0055
v -0.077415 0.064712 0
v -0.077415 0.064712 0.0055
v 0.077415 -0.064712 0
v 0.077415 -0.064712 0.0055
v 0.077415 0.064712 0
v 0.077415 0.064712 0.0055
v -0.081 0.011541 0
v -0.091616 0.003847 0
v -0.091616 -0.003847 0
v -0.081 -0.011541 0
v -0.081 -0.011541 0.0055
v -0.091616 -0.003847 0.0055
v -0.091616 0.003847 0.0055
v -0.081 0.011541 0.0055
v 0.081 -0.011541 0
v 0.091616 -0.003847 0
v 0.091616 0.003847 0
v 0.081 0.011541 0
v 0.081 0.011541 0.0055
v 0.091616 0.003847 0.0055
v 0.091616 -0.003847 0.0055
v 0.081 -0.011541 0.0055
v -0.081 0.038127 0.0055
v 0.081 0.038127 0
v -0.081 0.038127 0
v 0.081 0.038127 0.0055
v -0.081 -0.038127 0
v 0.081 -0.038127 0.0055
v -0.081 -0.038127 0.0055
v 0.081 -0.038127 0
f 25 3 27
f 4 7 3
f 30 5 32
f 6 1 5
f 31 6 30
f 25 21 28
f 16 22 21
f 15 23 22
f 14 24 23
f 28 20 26
f 21 19 20
f 22 18 19
f 23 17 18
f 31 12 29
f 13 11 12
f 14 10 11
f 15 9 10
f 8 26 7
f 4 28 8
f 16 27 9
f 2 29 1
f 13 30 24
f 24 32 17
f 25 4 3
f 4 8 7
f 30 6 5
f 6 2 1
f 31 2 6
f 25 16 21
f 16 15 22
f 15 14 23
f 14 13 24
f 28 21 20
f 21 22 19
f 22 23 18
f 23 24 17
f 31 13 12
f 13 14 11
f 14 15 10
f 15 16 9
f 8 28 26
f 4 25 28
f 16 25 27
f 2 31 29
f 13 31 30
f 24 30 32
