v 0.06 -0.04455 0.058592
v 0.06 0.045433 0.058592
v 0.082422 -0.04455 0.054132
v 0.082422 0.045433 0.054132
v 0.10143 -0.04455 0.04143
v 0.10143 0.045433 0.04143
v 0.114132 -0.04455 0.022422
v 0.114132 0.045433 0.022422
v 0.118592 -0.04455 0
v 0.118592 0.045433 0
v 0.114132 -0.04455 -0.022422
v 0.114132 0.045433 -0.022422
v 0.10143 -0.04455 -0.04143
v 0.10143 0.045433 -0.04143
v 0.082422 -0.04455 -0.054132
v 0.082422 0.045433 -0.054132
v 0.06 -0.04455 -0.058592
v 0.06 0.045433 -0.058592
v 0.037578 -0.04455 -0.054132
v 0.037578 0.045433 -0.054132
v 0.018569 -0.04455 -0.04143
v 0.018569 0.045433 -0.04143
v 0.005868 -0.04455 -0.022422
v 0.005868 0.045433 -0.022422
v 0.001408 -0.04455 0
v 0.001408 0.045433 0
v 0.005868 -0.04455 0.022422
v 0.005868 0.045433 0.022422
v 0.018569 -0.04455 0.04143
v 0.018569 0.045433 0.04143
v 0.037578 -0.04455 0.054132
v 0.037578 0.045433 0.054132
v 0.06334 -0.022923 0.066569
v 0.06334 0.023806 0.066569
v 0.085317 -0.022923 0.063309
v 0.085317 0.023806 0.063309
v 0.103554 -0.022923 0.055617
v 0.103554 0.023806 0.055617
v 0.021611 -0.022923 0.058558
v 0.021611 0.023806 0.058558
v 0.04097 -0.022923 0.064901
v 0.04097 0.023806 0.064901
v 0.172 -0.042 0
v 0.172 -0.038803 -0.016073
v 0.172 -0.029698 -0.029698
v 0.172 -0.016073 -0.038803
v 0.172 0 -0.042
v 0.172 0.016073 -0.038803
v 0.172 0.029698 -0.029698
v 0.172 0.038803 -0.016073
v 0.172 0.042 0
v 0.172 0.038803 0.016073
v 0.172 0.029698 0.029698
v 0.172 0.016073 0.038803
v 0.172 0 0.042
v 0.172 -0.016073 0.038803
v 0.172 -0.038803 0.016073
v 0 -0.025382 0
v 0 -0.02345 -0.009713
v 0 -0.009713 -0.02345
v 0 0.009713 -0.02345
v 0 0.017948 -0.017948
v 0 0.009713 0.02345
v 0 0 0.025382
v 0 -0.009713 0.02345
v 0 -0.017948 0.017948
v 0 -0.017948 -0.017948
v 0 0 -0.025382
v 0 0.02345 -0.009713
v 0 0.025382 0
v 0 0.02345 0.009713
v 0 0.017948 0.017948
v 0 -0.02345 0.009713
v 0.005255 -0.01934 0.01934
v 0.003438 -0.02464 -0.010206
v 0.001408 -0.02591 0
v 0.005255 -0.01934 -0.01934
v 0.005868 -0.015132 0.022422
v 0.005868 -0.015132 -0.022422
v 0.008527 -0.010936 0.026401
v 0.010466 0 -0.029302
v 0.008527 -0.010936 -0.026401
v 0.008527 0.010936 0.026401
v 0.005255 0.01934 -0.01934
v 0.003438 0.02464 -0.010206
v 0.005868 0.015132 0.022422
v 0.005868 0.015132 -0.022422
v 0.008527 0.010936 -0.026401
v 0.003438 0.02464 0.010206
v 0.005255 0.01934 0.01934
v 0.001408 0.02591 0
v 0.003438 -0.02464 0.010206
v 0.010466 0 0.029302
v 0.021611 0.023806 0.043463
v 0.103554 0.023806 0.038253
v 0.021611 -0.022923 0.043463
v 0.06 0.031303 0.058592
v 0.037578 0.031914 0.054132
v 0.06 -0.03042 0.058592
v 0.082422 -0.031146 0.054132
v 0.10143 0.025355 0.04143
v 0.103554 -0.022923 0.038253
v 0.082422 0.032029 0.054132
v 0.10143 -0.024471 0.04143
v 0.037578 -0.03103 0.054132
v 0.103554 0 0.042
v 0.109269 -0.029698 0.029698
v 0.114132 -0.03456 0.022422
v 0.115394 -0.038803 -0.016073
v 0.118592 -0.042 0
v 0.114132 -0.03456 -0.022422
v 0.10143 -0.002863 -0.04143
v 0.109269 -0.029698 -0.029698
v 0.103554 -0.016896 0.038253
v 0.115394 -0.038803 0.016073
v 0.103186 -0.016073 -0.038803
v 0.115394 0.038803 -0.016073
v 0.100578 0 -0.042
v 0.103554 0.016896 0.038253
v 0.118592 0.042 0
v 0.103186 0.016073 -0.038803
v 0.10143 0.002863 -0.04143
v 0.109269 0.029698 -0.029698
v 0.109269 0.029698 0.029698
v 0.103554 0.016073 0.038803
v 0.114132 0.03456 -0.022422
v 0.114132 0.03456 0.022422
v 0.115394 0.038803 0.016073
v 0.103554 -0.016073 0.038803
v 0.172 -0.029698 0.029698
f 2 10 18
f 15 11 3
f 106 125 38
f 43 47 51
f 59 76 58
f 67 75 59
f 60 82 79
f 68 82 60
f 68 88 81
f 62 84 87
f 62 85 84
f 69 91 85
f 71 91 70
f 72 89 71
f 63 83 86
f 64 83 63
f 64 80 93
f 66 74 78
f 66 92 74
f 73 76 92
f 59 65 71
f 56 106 129
f 55 125 106
f 107 56 129
f 40 98 94
f 96 40 94
f 105 39 96
f 53 128 127
f 46 113 116
f 123 48 121
f 130 107 108
f 52 120 128
f 45 109 111
f 47 118 122
f 110 57 115
f 47 116 112
f 120 50 117
f 49 123 126
f 44 110 109
f 124 119 125
f 107 114 102
f 2 4 6
f 6 8 2
f 8 10 2
f 10 12 14
f 14 16 10
f 16 18 10
f 18 20 26
f 20 22 26
f 22 24 26
f 26 28 30
f 30 32 2
f 26 30 18
f 30 2 18
f 3 1 31
f 31 29 27
f 27 25 23
f 23 21 19
f 19 17 15
f 15 13 11
f 11 9 7
f 7 5 11
f 5 3 11
f 3 31 19
f 31 27 19
f 27 23 19
f 19 15 3
f 38 37 106
f 37 102 129
f 106 37 129
f 102 114 129
f 119 95 125
f 95 38 125
f 43 44 45
f 45 46 43
f 46 47 43
f 47 48 49
f 49 50 47
f 50 51 47
f 51 52 53
f 53 54 55
f 55 56 130
f 130 57 43
f 51 53 43
f 53 55 43
f 55 130 43
f 59 75 76
f 67 77 75
f 77 67 79
f 67 60 79
f 68 81 82
f 68 61 88
f 88 61 87
f 61 62 87
f 62 69 85
f 69 70 91
f 71 89 91
f 72 90 89
f 90 72 86
f 72 63 86
f 64 93 83
f 64 65 80
f 80 65 78
f 65 66 78
f 66 73 92
f 73 58 76
f 59 58 73
f 73 66 59
f 66 65 59
f 65 64 63
f 63 72 71
f 71 70 69
f 69 62 71
f 62 61 71
f 61 68 60
f 60 67 59
f 65 63 71
f 61 60 71
f 60 59 71
f 56 55 106
f 55 54 125
f 129 114 107
f 107 130 56
f 96 39 40
f 127 124 53
f 53 52 128
f 95 119 124
f 46 45 113
f 123 49 48
f 108 115 130
f 115 57 130
f 52 51 120
f 111 113 45
f 45 44 109
f 122 121 47
f 121 48 47
f 110 43 57
f 112 118 47
f 47 46 116
f 120 51 50
f 126 117 49
f 117 50 49
f 44 43 110
f 125 54 124
f 54 53 124
f 104 37 100
f 102 104 107
f 115 108 7
f 11 111 109
f 13 116 113
f 118 112 15
f 17 16 15
f 19 18 17
f 19 22 20
f 81 88 22
f 23 75 77
f 27 74 92
f 29 93 80
f 6 103 101
f 99 41 105
f 35 34 33
f 37 36 35
f 39 42 40
f 33 42 41
f 1 105 31
f 2 103 4
f 100 33 99
f 100 1 3
f 2 98 97
f 100 5 104
f 85 26 24
f 89 90 28
f 38 95 101
f 10 120 117
f 10 8 128
f 101 95 124
f 123 121 14
f 30 29 94
f 42 97 98
f 34 103 97
f 102 37 104
f 37 35 100
f 104 5 107
f 5 7 107
f 7 108 107
f 7 9 115
f 9 110 115
f 110 9 109
f 9 11 109
f 111 11 113
f 11 13 113
f 13 112 116
f 112 13 15
f 15 16 118
f 16 14 122
f 118 16 122
f 17 18 16
f 19 20 18
f 19 21 22
f 22 21 81
f 21 23 79
f 81 21 82
f 79 82 21
f 87 24 22
f 88 87 22
f 23 25 75
f 25 76 75
f 77 79 23
f 76 25 92
f 25 27 92
f 27 78 74
f 78 27 29
f 29 30 93
f 30 28 86
f 93 30 83
f 86 83 30
f 80 78 29
f 6 4 103
f 99 33 41
f 35 36 34
f 37 38 36
f 39 41 42
f 33 34 42
f 1 99 105
f 2 97 103
f 100 35 33
f 100 99 1
f 2 32 98
f 100 3 5
f 85 91 26
f 24 87 84
f 84 85 24
f 90 86 28
f 28 26 89
f 26 91 89
f 40 42 98
f 101 103 38
f 103 36 38
f 105 41 39
f 117 126 12
f 12 10 117
f 128 120 10
f 8 127 128
f 124 127 8
f 8 6 124
f 6 101 124
f 121 122 14
f 14 12 123
f 12 126 123
f 94 98 30
f 98 32 30
f 29 31 105
f 29 105 96
f 29 96 94
f 42 34 97
f 34 36 103
