v 0.031846 0.028728 -0.032823
v 0.036513 0.028728 -0.030326
v 0.05942 0.028728 0.035208
v 0.026304 0.028728 0.041047
v 0.008264 0.028728 0.044234
v 0.056702 0.028728 -0.024481
v 0.061883 0.028728 -0.024102
v 0.062922 0.028728 -0.024078
v 0.066957 0.028728 -0.024146
v 0.071919 0.028728 -0.024585
v 0.076405 0.028728 -0.025305
v 0.076595 0.028728 -0.025339
v 0.041371 0.028728 -0.02823
v 0.046375 0.028728 -0.026552
v 0.027351 0.028728 -0.035745
v 0.023032 0.028728 -0.038649
v 0.019092 0.028728 -0.04074
v 0.014507 0.028728 -0.042587
v 0.009706 0.028728 -0.043931
v 0.051502 0.028728 -0.0253
v 0.002465 0.028728 0.044924
v -0.001181 0.028728 0.044975
v 0.00329 0.028728 0.044871
v -0.041974 0.028728 -0.016198
v -0.041226 0.028728 -0.018019
v -0.042804 0.028728 -0.013857
v -0.043958 0.028728 -0.009583
v -0.044685 0.028728 -0.005233
v 0.076595 0.028728 0.032189
v -0.00227 0.028728 0.044933
v -0.005649 0.028728 0.044635
v 0.004844 0.028728 -0.04473
v -1.7e-05 0.028728 -0.044992
v -0.028198 0.028728 -0.035059
v -0.02722 0.028728 -0.035823
v -0.024387 0.028728 -0.037809
v -0.039211 0.028728 -0.022062
v -0.036801 0.028728 -0.025883
v -0.034897 0.028728 -0.028397
v -0.034017 0.028728 -0.029445
v -0.031723 0.028728 -0.031902
v -0.030876 0.028728 -0.032723
v -0.044982 0.028728 -0.0009
v -0.044868 0.028728 0.003332
v -0.04437 0.028728 0.007452
v -0.043361 0.028728 0.011994
v -0.030391 0.028728 0.033175
v -0.031809 0.028728 0.031819
v -0.023229 0.028728 -0.038532
v -0.020295 0.028728 -0.040154
v -0.018935 0.028728 -0.040813
v -0.033741 0.028728 0.029759
v -0.034951 0.028728 0.028325
v -0.036544 0.028728 0.026235
v -0.037724 0.028728 0.024507
v -0.04196 0.028728 0.016233
v -0.04102 0.028728 0.018478
v -0.039016 0.028728 0.022394
v -0.04097 0.028728 0.018588
v -0.014407 0.028728 -0.042622
v -0.009727 0.028728 -0.043927
v -0.004913 0.028728 -0.044722
v -0.018789 0.028728 0.04088
v -0.022972 0.028728 0.038685
v -0.026914 0.028728 0.036052
v -0.006966 0.028728 0.044449
v -0.010036 0.028728 0.043857
v -0.014327 0.028728 0.042649
v 0.083698 0.029257 0.030891
v 0.08114 0.028944 -0.026164
v 0.08719 0.029912 0.030237
v 0.083688 0.029255 -0.026597
v 0.090637 0.030828 0.029538
v 0.085933 0.029645 -0.026983
v 0.090637 0.030828 -0.02777
v 0.127464 0.003088 0.035957
v 0.127236 0.003955 0.035968
v 0.127265 0.003736 0.035974
v 0.127236 0.003957 0.035968
v 0.094196 0.031698 -0.028308
v 0.0978 0.032152 -0.028894
v 0.098462 0.032191 0.028115
v 0.10249 0.03213 0.027431
v 0.106451 0.031571 0.026791
v 0.10356 0.032029 0.027255
v 0.103561 0.032029 -0.029885
v 0.131954 0.001903 -0.036665
v 0.131954 0.001903 0.02406
v 0.131707 0.004533 0.02397
v 0.131551 0.005565 -0.036374
v 0.131548 0.005575 0.023947
v 0.130737 0.009124 -0.03602
v 0.13099 0.008199 0.023909
v 0.129517 0.012579 -0.035594
v 0.129855 0.011743 0.02392
v 0.127918 0.015864 -0.035112
v 0.128661 0.014458 0.02398
v 0.128327 0.01511 0.024002
v 0.12597 0.018922 -0.03458
v 0.126456 0.01823 0.024152
v 0.124257 0.021097 -0.034144
v 0.124212 0.02115 0.024374
v 0.123684 0.021746 -0.034003
v 0.121464 0.023959 0.024684
v 0.12146 0.023962 0.024685
v 0.118271 0.026498 -0.032763
v 0.121104 0.024283 -0.033395
v 0.121787 0.023663 0.024646
v 0.121506 0.023921 0.024679
v 0.120659 0.024663 0.024782
v 0.11835 0.026443 0.025072
v 0.115191 0.02839 -0.032112
v 0.117468 0.027039 0.025187
v 0.111924 0.029923 -0.031452
v 0.111306 0.030164 -0.03133
v 0.110303 0.030524 0.026198
v 0.114013 0.028996 0.025659
v 0.111305 0.030164 0.02605
v 0.108522 0.031072 -0.030795
v 0.10499 0.031836 -0.030141
v 0.101398 0.032198 -0.029504
v 0.09451 0.031754 0.028813
v 0.073999 -0.014771 -0.040122
v 0.125998 -0.014771 -0.049291
v 0.131757 0.002026 -0.03816
v 0.132135 -0.005201 -0.038621
v 0.132579 -0.01363 -0.039137
v 0.132639 -0.014771 -0.039209
v 0.132782 -0.014771 -0.038459
v 0.132331 -0.005284 -0.037119
v 0.132773 -0.013713 -0.037645
v 0.132828 -0.014771 -0.037711
v 0.131371 0.005482 -0.037887
v 0.130634 0.008785 -0.037567
v 0.12955 0.011993 -0.037185
v 0.127883 0.015529 -0.036679
v 0.125867 0.018734 -0.036128
v 0.123714 0.021422 -0.035584
v 0.121022 0.024096 -0.034945
v 0.118223 0.026296 -0.034315
v 0.114896 0.028332 -0.033604
v 0.112448 0.0295 -0.033101
v 0.108764 0.030808 -0.032373
v 0.105419 0.031576 -0.031739
v 0.104812 0.031676 -0.031626
v 0.104314 0.031748 -0.031534
v 0.100795 0.032035 -0.030899
v 0.096959 0.031902 -0.030236
v 0.093147 0.031308 -0.029591
v 0.090505 0.030615 -0.029155
v 0.076342 0.028554 -0.026752
v 0.07709 0.028557 -0.026886
v 0.078162 0.028581 -0.027076
v 0.081412 0.028798 -0.027643
v 0.083503 0.029055 -0.028
v 0.085929 0.029472 -0.028408
v 0.006978 0.028554 -0.045899
v 0.011468 0.028554 -0.044987
v -0.028238 0.028554 0.036851
v 0.062954 0.028555 0.036038
v 0.070473 0.028558 0.034701
v 0.076812 0.028559 0.033586
v 0.058323 0.028554 0.036859
v 0.047913 0.028554 0.038695
v 0.032272 0.028554 0.041453
v 0.021285 0.028554 0.04339
v 0.012025 0.028554 0.045023
v 0.010308 0.028554 0.045326
v 0.007373 0.028554 0.045838
v 0.00727 0.028554 0.045854
v 0.002313 0.028554 0.046369
v -1.1e-05 0.028554 0.046427
v -0.004487 0.028554 0.046209
v -0.00508 0.028554 0.046148
v -0.008615 0.028554 0.04562
v -0.012682 0.028554 0.044661
v -0.013186 0.028554 0.044515
v -0.01461 0.028554 0.044068
v -0.014615 0.028554 0.044066
v -0.016183 0.028554 0.043515
v -0.019932 0.028554 0.041931
v -0.020247 0.028554 0.04178
v -0.024427 0.028554 0.039481
v -0.026625 0.028554 0.038033
v -0.031378 0.028554 0.034218
v -0.032579 0.028554 0.033077
v -0.032824 0.028554 0.032834
v -0.034515 0.028554 0.03105
v -0.037465 0.028555 0.027412
v -0.03762 0.028555 0.027197
v -0.040068 0.028555 0.023443
v -0.041621 0.028554 0.020565
v -0.042214 0.028554 0.019321
v -0.044463 0.028554 0.013359
v -0.043845 0.028554 0.015265
v -0.045138 0.028554 0.010863
v -0.045919 0.028554 0.006849
v -0.046066 0.028554 0.00578
v -0.046354 0.028554 0.002599
v -0.046377 0.028554 -0.00216
v -0.045889 0.028554 -0.007036
v -0.045414 0.028554 -0.009645
v -0.044917 0.028554 -0.011746
v -0.043464 0.028554 -0.016321
v -0.043179 0.028554 -0.017061
v -0.041545 0.028554 -0.020724
v -0.039741 0.028554 -0.024003
v -0.039521 0.028554 -0.024364
v -0.036836 0.028554 -0.028259
v -0.019053 0.028554 -0.042336
v -0.023289 0.028554 -0.040163
v -0.025165 0.028554 -0.039016
v -0.027207 0.028554 -0.037621
v -0.029673 0.028554 -0.035707
v -0.030509 0.028554 -0.034996
v -0.033966 0.028554 -0.031649
v -0.035196 0.028554 -0.030276
v -0.016324 0.028554 -0.043462
v -0.014518 0.028554 -0.044098
v -0.010537 0.028554 -0.045214
v -0.00887 0.028554 -0.045569
v -0.005769 0.028555 -0.046062
v -0.001428 0.028555 -0.0464
v -0.001169 0.028555 -0.046407
v 0.002971 0.028554 -0.04633
v 0.006564 0.028554 -0.04596
v 0.014115 0.028554 -0.044229
v 0.015575 0.028554 -0.043736
v 0.019584 0.028554 -0.042095
v 0.021205 0.028554 -0.041302
v 0.021273 0.028554 -0.041267
v 0.023617 0.028554 -0.039971
v 0.025336 0.028556 -0.038894
v 0.030302 0.028552 -0.035479
v 0.034573 0.028554 -0.03293
v 0.039339 0.028554 -0.03061
v 0.04103 0.028554 -0.029904
v 0.04427 0.028554 -0.028712
v 0.049377 0.028554 -0.027237
v 0.054707 0.028554 -0.026193
v 0.055597 0.028554 -0.026065
v 0.060387 0.028554 -0.025606
v 0.065529 0.028554 -0.025528
v 0.070767 0.028551 -0.025904
v 0.071861 0.02855 -0.026041
v 0.091017 0.030745 0.030999
v 0.087452 0.029795 0.031646
v 0.083951 0.029121 0.032296
v 0.078002 0.028579 0.033378
v 0.115296 0.028141 0.0269
v 0.111831 0.029773 0.02741
v 0.13179 0.001979 0.025436
v 0.131493 0.004926 0.025326
v 0.129671 0.011776 0.025296
v 0.130806 0.008273 0.025282
v 0.13137 0.005686 0.02531
v 0.123629 0.021563 0.025818
v 0.126025 0.018567 0.025563
v 0.128106 0.015186 0.025385
v 0.121044 0.024113 0.026127
v 0.118184 0.026354 0.026498
v 0.108595 0.030869 0.027911
v 0.104818 0.031682 0.028523
v 0.101559 0.032008 0.029074
v 0.097985 0.03198 0.029702
v 0.094361 0.03154 0.030356
v 0.132788 -0.014771 0.025491
v 0.132668 -0.014771 0.026171
v 0.132656 -0.01455 0.026162
v 0.132828 -0.014771 0.024794
v 0.132215 -0.006136 0.025792
v 0.132379 -0.006188 0.024417
v 0.128336 -0.014771 -0.049682
v 0.128999 -0.014771 -0.04959
v 0.128206 -0.004381 -0.049002
v 0.105499 0.029072 -0.041828
v 0.106903 0.028514 -0.042685
v 0.10969 0.027689 -0.043198
v 0.104079 0.029056 -0.042181
v 0.087925 0.027127 -0.03952
v 0.084211 0.026659 -0.038324
v 0.082921 0.026244 -0.038666
v 0.079542 0.026173 -0.037499
v 0.077893 0.025865 -0.03778
v 0.076509 0.026089 -0.036954
v 0.072738 0.025848 -0.036861
v 0.072838 0.026087 -0.036299
v 0.093035 0.0285 -0.040342
v 0.092016 0.028466 -0.039627
v 0.089221 0.027679 -0.039181
v 0.098512 0.02931 -0.041227
v 0.095143 0.029171 -0.040109
v 0.093067 0.028743 -0.039788
v 0.101983 0.029518 -0.041223
v 0.098599 0.029546 -0.040662
v 0.097949 0.029507 -0.040556
v 0.114928 0.025242 -0.044208
v 0.112253 0.026935 -0.043051
v 0.112367 0.026597 -0.043706
v 0.112065 0.027019 -0.043016
v 0.108955 0.028202 -0.042443
v 0.118095 0.023409 -0.044194
v 0.115583 0.025154 -0.043691
v 0.115175 0.025403 -0.043611
v 0.11736 0.023628 -0.0447
v 0.119615 0.021782 -0.045175
v 0.118834 0.022818 -0.044346
v 0.12167 0.019727 -0.045626
v 0.121414 0.020409 -0.044894
v 0.123525 0.017457 -0.046054
v 0.123745 0.017633 -0.045418
v 0.125146 0.015007 -0.046452
v 0.125746 0.014538 -0.045902
v 0.126506 0.01242 -0.046813
v 0.127225 0.011509 -0.046297
v 0.127607 0.009688 -0.047137
v 0.128313 0.008445 -0.046628
v 0.130055 -0.014771 -0.048796
v 0.130329 -0.014771 -0.048185
v 0.129483 -0.004365 -0.048186
v 0.129509 0.000892 -0.047204
v 0.129197 0.001102 -0.047844
v 0.129129 0.004848 -0.046942
v 0.128957 0.003967 -0.047656
v 0.12843 0.00685 -0.047421
v 0.12769 0.003866 -0.048473
v 0.126868 0.004654 -0.048411
v 0.12792 0.001086 -0.048661
v 0.127355 -0.001556 -0.048827
v 0.127693 -0.008011 -0.04923
v 0.128048 -0.014771 -0.049652
v 0.124041 0.014487 -0.04727
v 0.125241 0.010498 -0.047813
v 0.125344 0.011996 -0.047631
v 0.125743 0.009145 -0.047973
v 0.126399 0.009368 -0.047955
v 0.127187 0.006637 -0.048238
v 0.117976 0.020806 -0.045983
v 0.118278 0.020534 -0.046051
v 0.118732 0.021017 -0.045993
v 0.120202 0.018594 -0.046493
v 0.120705 0.019035 -0.046444
v 0.121937 0.016453 -0.046913
v 0.122486 0.016847 -0.046872
v 0.122206 0.016078 -0.046981
v 0.12345 0.014146 -0.047303
v 0.116564 0.022798 -0.045518
v 0.114227 0.024357 -0.045025
v 0.113882 0.023811 -0.045101
v 0.112709 0.024477 -0.044859
v 0.111763 0.025668 -0.044524
v 0.108959 0.026139 -0.044109
v 0.109187 0.026726 -0.044015
v 0.106757 0.026821 -0.043685
v 0.106503 0.027527 -0.043502
v 0.103675 0.027454 -0.043108
v 0.103783 0.028055 -0.042997
v 0.100537 0.027733 -0.04254
v 0.098417 0.028311 -0.042041
v 0.098422 0.027717 -0.042167
v 0.093134 0.02754 -0.041155
v 0.094341 0.027216 -0.041475
v 0.088014 0.026167 -0.040326
v 0.088122 0.025601 -0.040464
v 0.085359 0.025041 -0.040006
v 0.08291 0.025259 -0.039472
v 0.082962 0.024678 -0.039603
v 0.07778 0.024867 -0.038586
v 0.076628 0.024252 -0.038509
v 0.072596 0.024856 -0.037668
v 0.072573 0.02425 -0.037794
v 0.129594 -0.014771 -0.049283
v 0.128924 -0.004361 -0.048719
v 0.128638 0.001106 -0.048378
v 0.128402 0.003936 -0.048189
v 0.127883 0.006772 -0.047952
v 0.127074 0.009566 -0.047666
v 0.125991 0.012254 -0.04734
v 0.124653 0.0148 -0.046976
v 0.123058 0.017211 -0.046575
v 0.121233 0.019445 -0.046144
v 0.119212 0.021467 -0.04569
v 0.116993 0.023284 -0.045212
v 0.114601 0.024873 -0.044716
v 0.11208 0.026207 -0.044211
v 0.109447 0.027282 -0.0437
v 0.106704 0.028094 -0.043184
v 0.103926 0.028628 -0.042675
v 0.098447 0.028878 -0.041715
v 0.093057 0.028082 -0.040825
v 0.087943 0.026708 -0.039999
v 0.082894 0.025816 -0.039147
v 0.077821 0.025433 -0.038264
v 0.072653 0.02542 -0.037345
v 0.072218 -0.014771 -0.039808
v 0.010064 0.02425 0.057074
v 0.010042 0.024842 0.056953
v 0.023714 0.024251 0.054667
v 0.047645 0.024842 0.050323
v 0.053094 0.02425 0.049486
v 0.066446 0.024842 0.047008
v 0.075432 0.02425 0.045548
v 0.098757 0.028299 0.041125
v 0.095078 0.027243 0.041924
v 0.09408 0.027662 0.041979
v 0.090135 0.025958 0.042864
v 0.089554 0.026439 0.042843
v 0.085231 0.024923 0.043784
v 0.085052 0.025507 0.043688
v 0.08046 0.024393 0.044653
v 0.080486 0.024976 0.044524
v 0.075847 0.024842 0.04535
v 0.103447 0.028148 0.040309
v 0.102266 0.027671 0.040634
v 0.098576 0.027688 0.041284
v 0.108079 0.027211 0.039546
v 0.105938 0.027153 0.040014
v 0.103403 0.027566 0.040439
v 0.11655 0.023096 0.038277
v 0.112901 0.024665 0.038919
v 0.112468 0.025522 0.038865
v 0.109491 0.026145 0.039441
v 0.107939 0.026648 0.039688
v 0.120149 0.020033 0.037807
v 0.118994 0.020405 0.038071
v 0.116096 0.022739 0.038458
v 0.12321 0.016372 0.037464
v 0.1215 0.017745 0.037771
v 0.11978 0.019646 0.037973
v 0.127258 0.007783 0.037208
v 0.125366 0.011506 0.037421
v 0.125592 0.012268 0.037263
v 0.123646 0.01475 0.037552
v 0.122781 0.016059 0.037634
v 0.128133 0.003112 0.037302
v 0.127426 0.004514 0.03743
v 0.126631 0.008066 0.037381
v 0.129208 -0.014771 0.038028
v 0.128576 -0.014771 0.038253
v 0.128658 -0.006294 0.03771
v 0.127761 0.000956 0.03756
v 0.12761 0.003066 0.037474
v 0.129149 -0.006283 0.037372
v 0.129729 -0.014771 0.037605
v 0.129519 -0.006284 0.036904
v 0.130081 -0.014771 0.037035
v 0.130173 -0.014771 0.036746
v 0.129663 -0.005035 0.036317
v 0.1293 0.001867 0.036016
v 0.12899 0.003168 0.036496
v 0.129199 0.00317 0.035967
v 0.126357 0.012654 0.036457
v 0.127146 0.011377 0.035902
v 0.128082 0.008007 0.036402
v 0.128241 0.008208 0.035875
v 0.12903 0.004534 0.035925
v 0.123532 0.01776 0.036178
v 0.124044 0.017051 0.03613
v 0.123891 0.016906 0.036657
v 0.125509 0.014735 0.036005
v 0.126538 0.012755 0.035934
v 0.121121 0.0206 0.036432
v 0.120723 0.020703 0.036999
v 0.118503 0.023003 0.036746
v 0.116997 0.023881 0.037467
v 0.117073 0.024092 0.03693
v 0.103421 0.02914 0.039496
v 0.10757 0.028579 0.038277
v 0.108223 0.028159 0.038734
v 0.108881 0.028195 0.03808
v 0.112769 0.026401 0.038054
v 0.11258 0.026737 0.037543
v 0.115513 0.025134 0.037137
v 0.098557 0.029306 0.04031
v 0.099795 0.029581 0.039512
v 0.103719 0.02934 0.038875
v 0.093703 0.028656 0.041163
v 0.096207 0.029342 0.040117
v 0.098442 0.029543 0.039737
v 0.075705 0.025845 0.044541
v 0.079832 0.026198 0.043207
v 0.08027 0.025981 0.043717
v 0.081807 0.026365 0.042838
v 0.084743 0.026507 0.042882
v 0.086088 0.027 0.042022
v 0.089151 0.027426 0.042036
v 0.092424 0.028604 0.040793
v 0.095085 0.029177 0.040311
v 0.047502 0.025846 0.049514
v 0.047575 0.026087 0.048917
v 0.048355 0.026087 0.04878
v 0.066304 0.025846 0.046199
v 0.070354 0.026087 0.044901
v 0.077026 0.026091 0.043721
v 0.01957 0.026087 0.053855
v 0.009899 0.025846 0.056144
v 0.0098 0.026087 0.055578
v 0.128622 0.003148 0.036964
v 0.127728 0.007911 0.036869
v 0.12603 0.012485 0.036924
v 0.123602 0.016671 0.037126
v 0.120484 0.020408 0.03747
v 0.116817 0.023536 0.037941
v 0.112655 0.026015 0.038532
v 0.108181 0.027745 0.039216
v 0.103455 0.02871 0.039982
v 0.098668 0.028873 0.040802
v 0.093892 0.028232 0.041661
v 0.089351 0.027005 0.042529
v 0.084902 0.026078 0.043372
v 0.080388 0.025548 0.044205
v 0.075791 0.025412 0.045028
v 0.06639 0.025412 0.046686
v 0.047588 0.025412 0.050001
v 0.009985 0.025412 0.056631
v 0.0676 0.025848 -0.036223
v 0.069558 0.026088 -0.035829
v 0.067565 0.02542 -0.036714
v 0.067541 0.024856 -0.037041
v 0.067642 0.026088 -0.035653
v 0.062418 0.026087 -0.035536
v 0.062434 0.025848 -0.036107
v 0.057253 0.026087 -0.035943
v 0.057326 0.025848 -0.036509
v 0.052161 0.026087 -0.036865
v 0.052291 0.025848 -0.037421
v 0.047154 0.026087 -0.038306
v 0.04734 0.025848 -0.038846
v 0.044746 0.026087 -0.039199
v 0.04256 0.025848 -0.040758
v 0.042321 0.026087 -0.04024
v 0.037733 0.026088 -0.042638
v 0.038022 0.025848 -0.04313
v 0.033382 0.026087 -0.045504
v 0.03372 0.025848 -0.045964
v 0.062448 0.02542 -0.036598
v 0.05739 0.02542 -0.036997
v 0.052403 0.02542 -0.0379
v 0.047499 0.02542 -0.039311
v 0.042766 0.02542 -0.041205
v 0.038272 0.02542 -0.043554
v 0.034011 0.02542 -0.046361
v 0.062458 0.024856 -0.036926
v 0.057432 0.024856 -0.037322
v 0.052478 0.024856 -0.03822
v 0.047606 0.024856 -0.039621
v 0.042903 0.024856 -0.041503
v 0.038438 0.024857 -0.043836
v 0.034205 0.024856 -0.046625
v 0.067531 0.02425 -0.037168
v 0.062461 0.02425 -0.037054
v 0.057448 0.02425 -0.037449
v 0.052507 0.02425 -0.038344
v 0.047647 0.02425 -0.039742
v 0.042957 0.02425 -0.041619
v 0.038503 0.024251 -0.043947
v 0.034281 0.02425 -0.046728
v 0.028952 0.026086 -0.048445
v 0.027509 0.026086 -0.049279
v 0.024284 0.026087 -0.050944
v 0.021225 0.026087 -0.052292
v -0.011975 0.026087 -0.05515
v -0.010782 0.026087 -0.055396
v -0.00677 0.026087 -0.056028
v -0.001464 0.026087 -0.056414
v 0.000861 0.026087 -0.056426
v 0.003858 0.026087 -0.056302
v 0.00798 0.026087 -0.055869
v 0.009149 0.026087 -0.055689
v 0.014312 0.026087 -0.054591
v 0.017158 0.026087 -0.053764
v 0.019381 0.026087 -0.053003
v -0.025973 0.026087 -0.050106
v -0.022128 0.026087 -0.051917
v -0.019843 0.026087 -0.052832
v -0.017141 0.026087 -0.053769
v -0.01293 0.026087 -0.054934
v -0.031423 0.026087 -0.046878
v -0.028352 0.026087 -0.048798
v -0.026885 0.026087 -0.049622
v -0.035724 0.026087 -0.043689
v -0.049285 0.026087 -0.027494
v -0.048306 0.026087 -0.029177
v -0.04647 0.026087 -0.032019
v -0.043243 0.026087 -0.036262
v -0.042784 0.026087 -0.036803
v -0.039662 0.026087 -0.040149
v -0.037434 0.026087 -0.042234
v -0.036069 0.026087 -0.043404
v -0.051648 0.026087 -0.02275
v -0.050174 0.026087 -0.025837
v -0.053555 0.026087 -0.017803
v -0.052965 0.026087 -0.019488
v -0.052487 0.026087 -0.020739
v -0.056123 0.026087 -0.005947
v -0.055944 0.026087 -0.007445
v -0.055204 0.026087 -0.011725
v -0.054996 0.026087 -0.012667
v -0.056427 0.026087 0.000979
v -0.056394 0.026087 -0.002178
v -0.054421 0.026087 0.014945
v -0.054474 0.026087 0.01475
v -0.054484 0.026087 0.014712
v -0.054862 0.026087 0.013232
v -0.055893 0.026088 0.007794
v -0.055994 0.026088 0.007025
v -0.056354 0.026087 0.003021
v -0.05225 0.026088 0.021322
v -0.053169 0.026088 0.018918
v -0.054048 0.026087 0.016239
v -0.045799 0.026087 0.032979
v -0.048661 0.026087 0.028584
v -0.049215 0.026087 0.027619
v -0.050596 0.026088 0.024998
v -0.051137 0.026088 0.02387
v -0.042468 0.026087 0.037168
v -0.040996 0.026087 0.038785
v -0.039602 0.026087 0.040208
v -0.038768 0.026087 0.041012
v -0.035902 0.026087 0.043544
v -0.034752 0.026087 0.044467
v -0.032365 0.026087 0.046233
v -0.030433 0.026087 0.047527
v -0.025806 0.026087 0.050187
v -0.024227 0.026087 0.050968
v -0.021345 0.026087 0.052241
v -0.017721 0.026087 0.053581
v -0.016534 0.026087 0.053959
v -0.015416 0.026087 0.054289
v -0.012256 0.026087 0.055088
v -0.006175 0.026087 0.056096
v -0.00677 0.026087 0.056027
v -0.011017 0.026087 0.055349
v -0.002611 0.026087 0.056375
v -0.004088 0.026087 0.056287
v 0.006917 0.026087 0.056011
v 0.00324 0.026087 0.056344
v 0.002173 0.026087 0.056395
v 0.010419 -0.014772 0.059088
v 0.065671 -0.014771 -0.039112
v 0.057167 -0.014771 -0.039551
v 0.048874 -0.014771 -0.041486
v 0.041054 -0.014771 -0.044856
v 0.035491 -0.014771 -0.048377
v 0.026241 -0.014771 -0.053957
v 0.015644 -0.014771 -0.057924
v 0.004491 -0.014771 -0.059831
v -0.006822 -0.014771 -0.05961
v -0.017892 -0.014771 -0.057269
v -0.028326 -0.014771 -0.052892
v -0.037753 -0.014771 -0.046633
v -0.045837 -0.014771 -0.038716
v -0.05229 -0.014771 -0.029422
v -0.056884 -0.014771 -0.019081
v -0.059455 -0.014771 -0.008062
v -0.059911 -0.014771 0.003244
v -0.058237 -0.014771 0.014435
v -0.054491 -0.014771 0.025112
v -0.048808 -0.014771 0.034896
v -0.041388 -0.014771 0.043439
v -0.032496 -0.014771 0.050437
v -0.022449 -0.014771 0.055641
v -0.011603 -0.014771 0.058866
v -0.000345 -0.014771 0.059998
v 0.002896 0.025849 0.056933
v -0.011128 0.025849 0.055908
v -0.004129 0.025849 0.056855
v -0.0179 0.025849 0.054122
v -0.02443 0.025849 0.051502
v -0.030594 0.025849 0.048099
v -0.036264 0.025849 0.043984
v -0.041409 0.025849 0.039177
v -0.045918 0.025849 0.033783
v -0.049712 0.025849 0.027898
v -0.052779 0.025849 0.021538
v -0.055024 0.025849 0.014896
v -0.056437 0.025849 0.008027
v -0.056996 0.025849 0.000988
v -0.056689 0.025849 -0.006007
v -0.055517 0.025849 -0.012939
v -0.053499 0.025849 -0.019685
v -0.05068 0.025849 -0.026098
v -0.047074 0.025849 -0.032146
v -0.042757 0.025849 -0.037701
v -0.037811 0.025849 -0.04266
v -0.032246 0.025849 -0.047008
v -0.026235 0.025849 -0.050611
v -0.019818 0.025849 -0.053449
v -0.01306 0.025849 -0.055489
v -0.006161 0.025849 -0.056671
v 0.00087 0.025849 -0.056996
v 0.007889 0.025849 -0.056457
v 0.014749 0.025849 -0.055064
v 0.021439 0.025849 -0.05282
v 0.027787 0.025848 -0.049776
v 0.028027 0.02542 -0.050206
v 0.02825 0.024249 -0.050605
v 0.028187 0.024856 -0.050493
v 0.025347 0.02425 -0.052118
v 0.021748 0.024857 -0.053581
v 0.021796 0.02425 -0.053699
v 0.014961 0.024857 -0.055857
v 0.014994 0.02425 -0.055981
v 0.008003 0.024857 -0.05727
v 0.00802 0.02425 -0.057397
v 0.004338 0.02425 -0.05779
v 0.000883 0.024857 -0.057817
v 0.000885 0.02425 -0.057945
v -0.006249 0.024857 -0.057488
v -0.006263 0.02425 -0.057615
v -0.006589 0.02425 -0.057578
v -0.013249 0.024857 -0.056288
v -0.013278 0.02425 -0.056413
v -0.017282 0.02425 -0.055317
v -0.020104 0.024857 -0.054219
v -0.020148 0.02425 -0.054339
v -0.026613 0.024857 -0.05134
v -0.026672 0.02425 -0.051454
v -0.044274 0.02425 -0.037396
v -0.043469 0.02425 -0.038329
v -0.043373 0.024857 -0.038244
v -0.038441 0.02425 -0.04337
v -0.038356 0.024857 -0.043275
v -0.036466 0.02425 -0.045043
v -0.032711 0.024857 -0.047685
v -0.032783 0.02425 -0.047791
v -0.027362 0.02425 -0.05109
v -0.047857 0.02425 -0.032681
v -0.047752 0.024857 -0.032609
v -0.050507 0.02425 -0.028418
v -0.05141 0.024857 -0.026474
v -0.051524 0.02425 -0.026532
v -0.05427 0.024857 -0.019968
v -0.05439 0.02425 -0.020013
v -0.057818 0.024857 0.001003
v -0.057633 0.02425 -0.006107
v -0.057506 0.024857 -0.006093
v -0.05743 0.02425 -0.007787
v -0.056317 0.024857 -0.013126
v -0.056442 0.02425 -0.013155
v -0.054946 0.02425 -0.018431
v -0.05725 0.024857 0.008142
v -0.057869 0.02425 0.003134
v -0.057945 0.02425 0.001005
v -0.05354 0.024857 0.021849
v -0.055941 0.02425 0.015144
v -0.055817 0.024857 0.01511
v -0.056252 0.02425 0.013943
v -0.057377 0.02425 0.00816
v -0.050428 0.024857 0.0283
v -0.052634 0.02425 0.024256
v -0.053658 0.02425 0.021897
v -0.042006 0.024857 0.039741
v -0.046682 0.02425 0.034346
v -0.046579 0.024857 0.03427
v -0.047145 0.02425 0.033707
v -0.05054 0.02425 0.028363
v -0.036787 0.024857 0.044617
v -0.039978 0.02425 0.041959
v -0.042099 0.02425 0.039829
v -0.024781 0.024857 0.052244
v -0.031104 0.02425 0.0489
v -0.031035 0.024857 0.048792
v -0.031389 0.02425 0.048718
v -0.036868 0.02425 0.044716
v 0.021624 0.025421 -0.053276
v 0.014876 0.025421 -0.05554
v 0.007957 0.025421 -0.056944
v 0.000878 0.025421 -0.057488
v -0.006214 0.025421 -0.057161
v -0.013173 0.025421 -0.055968
v -0.019989 0.025421 -0.053911
v -0.026462 0.025421 -0.051049
v -0.032525 0.025421 -0.047414
v -0.038138 0.025421 -0.043029
v -0.043127 0.025421 -0.038027
v -0.04748 0.025421 -0.032423
v -0.051118 0.025421 -0.026323
v -0.053962 0.025421 -0.019855
v -0.055997 0.025421 -0.013051
v -0.057179 0.025421 -0.006058
v -0.057489 0.025421 0.000997
v -0.056925 0.025421 0.008096
v -0.0555 0.025421 0.015024
v -0.053236 0.025421 0.021724
v -0.050141 0.025421 0.028139
v -0.046315 0.025421 0.034075
v -0.041767 0.025421 0.039515
v -0.036578 0.025421 0.044364
v -0.030859 0.025421 0.048515
v -0.024641 0.025421 0.051947
v -0.018055 0.025421 0.054589
v -0.011224 0.025421 0.056391
v -0.004164 0.025421 0.057347
v -0.018158 0.024857 0.054901
v -0.011289 0.024857 0.056714
v -0.004188 0.024857 0.057674
v -0.000333 0.02425 0.057954
v -0.004197 0.02425 0.057802
v -0.011314 0.02425 0.056839
v -0.018198 0.02425 0.055023
v -0.021683 0.02425 0.053743
v -0.024836 0.02425 0.052359
v 0.002944 0.02425 0.057881
v 0.002938 0.024856 0.057753
v 0.002921 0.02542 0.057425
f 513 489 514
f 100 259 98
f 84 121 85
f 101 137 138
f 36 213 35
f 107 140 106
f 3 20 14
f 29 69 12
f 73 74 72
f 183 624 182
f 573 210 574
f 408 411 410
f 294 144 276
f 93 94 95
f 585 217 586
f 245 11 151
f 322 375 324
f 275 374 373
f 376 316 325
f 153 283 285
f 510 482 511
f 379 310 312
f 380 308 310
f 382 305 306
f 191 611 190
f 184 623 183
f 388 291 279
f 202 598 597
f 389 288 291
f 763 803 761
f 512 482 480
f 359 390 389
f 587 215 588
f 563 222 564
f 334 379 378
f 274 373 372
f 320 374 322
f 644 697 557
f 182 64 183
f 86 147 121
f 247 73 71
f 119 144 120
f 12 151 11
f 258 102 257
f 94 136 96
f 35 214 34
f 81 147 148
f 69 249 248
f 167 495 166
f 299 304 297
f 263 83 264
f 112 142 114
f 260 462 257
f 231 560 230
f 293 148 292
f 641 551 640
f 77 76 78
f 76 77 79
f 390 280 288
f 419 502 503
f 421 503 504
f 187 618 186
f 147 294 295
f 424 501 502
f 435 499 430
f 432 499 500
f 405 507 508
f 405 509 407
f 127 130 131
f 397 514 515
f 498 454 499
f 503 463 465
f 506 469 467
f 661 803 762
f 627 178 179
f 508 486 509
f 204 594 593
f 515 489 496
f 574 218 575
f 289 150 149
f 755 760 753
f 284 394 286
f 733 732 734
f 737 744 735
f 702 705 704
f 642 555 554
f 686 775 685
f 353 387 386
f 679 780 781
f 685 776 684
f 794 665 667
f 675 784 785
f 531 533 532
f 527 526 528
f 671 790 670
f 681 780 680
f 676 783 784
f 688 771 772
f 392 368 393
f 670 791 669
f 690 769 770
f 534 533 535
f 797 806 794
f 395 550 371
f 789 753 758
f 787 750 755
f 781 739 737
f 793 795 796
f 767 700 702
f 787 753 788
f 792 761 795
f 771 715 772
f 768 702 704
f 790 761 791
f 779 739 780
f 720 723 722
f 696 700 766
f 697 549 557
f 542 698 696
f 391 366 392
f 386 277 278
f 518 370 519
f 695 766 694
f 516 536 522
f 522 537 524
f 528 540 530
f 535 541 542
f 186 619 185
f 538 544 545
f 518 543 536
f 539 545 546
f 543 550 551
f 545 552 553
f 546 555 547
f 548 557 549
f 301 143 142
f 90 91 89
f 760 659 660
f 264 475 476
f 96 98 97
f 608 195 609
f 180 627 179
f 101 103 102
f 104 106 105
f 103 107 102
f 106 109 108
f 106 104 109
f 105 106 110
f 84 116 86
f 261 464 260
f 118 119 120
f 531 235 236
f 584 208 209
f 266 488 478
f 576 220 577
f 186 47 48
f 159 620 621
f 494 161 493
f 412 511 512
f 540 548 541
f 804 397 805
f 127 129 128
f 265 122 266
f 103 139 107
f 101 138 103
f 142 115 114
f 142 143 115
f 143 119 115
f 144 145 120
f 353 354 355
f 129 131 132
f 221 62 222
f 355 356 357
f 12 153 152
f 12 70 153
f 70 154 153
f 413 505 506
f 32 158 157
f 228 17 229
f 160 161 3
f 161 29 3
f 161 162 29
f 160 3 163
f 3 164 163
f 3 4 164
f 4 5 166
f 5 167 166
f 5 168 167
f 168 5 169
f 5 170 169
f 5 23 170
f 23 171 170
f 23 21 171
f 92 135 94
f 22 30 172
f 30 173 172
f 30 31 173
f 31 174 173
f 31 66 174
f 66 175 174
f 66 67 175
f 175 67 176
f 67 177 176
f 67 68 177
f 68 178 177
f 178 68 179
f 68 180 179
f 68 63 180
f 63 181 180
f 181 63 182
f 64 65 183
f 65 184 183
f 65 159 184
f 100 101 102
f 48 187 186
f 52 53 188
f 53 189 188
f 53 54 189
f 54 190 189
f 54 55 190
f 55 191 190
f 55 58 191
f 58 59 191
f 59 192 191
f 59 193 192
f 194 195 46
f 195 56 46
f 195 193 56
f 193 57 56
f 193 59 57
f 194 46 196
f 46 197 196
f 46 45 197
f 45 198 197
f 45 44 198
f 198 44 199
f 44 200 199
f 44 43 200
f 43 201 200
f 43 28 201
f 28 27 201
f 201 27 202
f 27 203 202
f 27 26 203
f 26 204 203
f 26 24 204
f 24 25 204
f 25 205 204
f 25 37 205
f 205 37 206
f 37 207 206
f 37 38 207
f 38 208 207
f 38 209 208
f 210 211 50
f 211 49 50
f 96 137 99
f 214 215 34
f 215 42 34
f 215 216 42
f 216 41 42
f 216 217 41
f 217 40 41
f 217 209 40
f 209 39 40
f 209 38 39
f 218 210 60
f 210 51 60
f 210 50 51
f 218 60 219
f 61 221 220
f 62 223 222
f 62 33 223
f 223 33 224
f 33 225 224
f 33 32 225
f 32 226 225
f 32 157 226
f 227 158 18
f 158 19 18
f 158 32 19
f 227 18 228
f 229 560 561
f 229 17 230
f 17 231 230
f 17 16 231
f 16 232 231
f 232 16 233
f 16 234 233
f 16 15 234
f 15 235 234
f 15 1 235
f 1 2 235
f 2 236 235
f 2 13 236
f 13 237 236
f 13 14 237
f 237 14 238
f 14 239 238
f 14 20 239
f 20 240 239
f 20 6 240
f 6 241 240
f 6 7 241
f 241 7 242
f 7 243 242
f 7 8 243
f 8 244 243
f 8 9 244
f 9 10 244
f 10 245 244
f 171 638 637
f 541 549 542
f 29 162 249
f 117 251 250
f 592 204 593
f 93 256 91
f 259 97 98
f 105 260 104
f 104 260 109
f 260 108 109
f 264 82 265
f 105 110 260
f 243 520 521
f 250 261 117
f 261 113 117
f 261 111 113
f 84 251 116
f 251 118 116
f 251 117 118
f 251 84 262
f 84 263 262
f 84 85 263
f 267 269 268
f 267 270 269
f 547 556 548
f 764 758 765
f 88 130 87
f 88 90 89
f 773 715 717
f 266 73 246
f 91 92 93
f 82 75 122
f 485 247 248
f 282 393 284
f 285 152 153
f 332 380 379
f 377 314 316
f 90 134 92
f 479 265 266
f 403 506 507
f 409 511 411
f 569 158 570
f 634 173 635
f 70 73 72
f 375 325 324
f 271 88 252
f 159 47 185
f 188 617 187
f 343 342 344
f 313 135 315
f 519 371 550
f 502 459 463
f 527 237 238
f 657 752 746
f 323 125 321
f 566 225 567
f 253 91 256
f 220 60 61
f 606 199 607
f 517 245 287
f 317 133 323
f 111 114 113
f 749 657 748
f 12 71 70
f 283 155 281
f 110 112 111
f 81 85 121
f 468 262 263
f 385 278 299
f 176 630 175
f 108 257 102
f 705 646 647
f 504 465 471
f 508 474 477
f 357 389 388
f 140 302 303
f 232 559 231
f 201 597 596
f 95 96 97
f 87 133 90
f 372 320 318
f 631 174 632
f 189 616 188
f 270 132 131
f 273 275 274
f 276 278 277
f 277 279 276
f 280 282 281
f 282 283 281
f 282 284 283
f 284 285 283
f 284 286 285
f 286 287 285
f 288 280 289
f 280 290 289
f 280 281 290
f 291 288 292
f 288 293 292
f 288 289 293
f 276 279 294
f 279 295 294
f 279 291 295
f 291 296 295
f 291 292 296
f 299 300 298
f 299 278 300
f 278 301 300
f 278 276 301
f 302 297 303
f 297 304 303
f 297 302 305
f 302 306 305
f 302 307 306
f 307 308 306
f 307 309 308
f 309 310 308
f 309 311 310
f 311 312 310
f 311 313 312
f 313 314 312
f 313 315 314
f 315 316 314
f 315 317 316
f 318 320 319
f 320 321 319
f 320 322 321
f 322 323 321
f 322 324 323
f 324 317 323
f 324 325 317
f 325 316 317
f 326 328 327
f 328 329 327
f 328 275 329
f 275 330 329
f 275 273 330
f 273 331 330
f 332 334 333
f 334 335 333
f 334 336 335
f 336 327 335
f 336 337 327
f 337 326 327
f 338 340 339
f 251 470 472
f 344 345 343
f 120 146 86
f 332 333 346
f 340 338 347
f 338 348 347
f 338 349 348
f 349 350 348
f 350 351 348
f 350 352 351
f 352 353 351
f 356 358 357
f 358 359 357
f 358 360 359
f 360 361 359
f 360 362 361
f 362 363 361
f 362 364 363
f 364 365 363
f 365 366 363
f 365 367 366
f 367 368 366
f 367 369 368
f 369 370 368
f 369 371 370
f 605 198 606
f 374 326 375
f 805 515 806
f 509 484 510
f 381 306 308
f 384 299 297
f 568 157 569
f 387 279 277
f 516 394 518
f 250 472 473
f 195 610 609
f 416 504 505
f 512 492 513
f 342 382 381
f 337 377 376
f 344 381 380
f 340 383 382
f 336 378 377
f 348 385 384
f 613 192 614
f 351 386 385
f 355 388 387
f 521 524 523
f 347 384 383
f 535 696 695
f 673 788 672
f 570 227 571
f 165 4 166
f 97 254 95
f 124 330 331
f 410 412 402
f 532 234 235
f 123 367 365
f 80 148 149
f 408 407 409
f 75 149 150
f 261 110 111
f 431 423 442
f 398 400 399
f 400 401 399
f 400 402 401
f 403 405 404
f 405 406 404
f 405 407 406
f 21 172 171
f 412 401 402
f 413 403 414
f 403 415 414
f 403 404 415
f 416 413 417
f 413 418 417
f 413 414 418
f 419 421 420
f 421 422 420
f 421 416 422
f 416 423 422
f 416 417 423
f 424 419 425
f 419 426 425
f 419 420 426
f 427 424 428
f 424 429 428
f 424 425 429
f 430 432 431
f 432 433 431
f 432 427 433
f 427 434 433
f 427 428 434
f 435 430 436
f 430 437 436
f 430 431 437
f 438 440 439
f 440 441 439
f 440 435 441
f 435 442 441
f 435 436 442
f 447 448 446
f 448 445 446
f 448 449 445
f 449 450 445
f 449 451 450
f 452 454 453
f 454 455 453
f 454 450 455
f 450 456 455
f 450 451 456
f 457 459 458
f 459 460 458
f 459 452 460
f 452 461 460
f 452 453 461
f 457 462 459
f 462 463 459
f 462 464 463
f 464 465 463
f 464 466 465
f 467 469 468
f 469 470 468
f 469 471 470
f 471 472 470
f 471 465 472
f 465 473 472
f 465 466 473
f 474 467 475
f 467 476 475
f 467 468 476
f 477 474 478
f 474 479 478
f 474 475 479
f 480 482 481
f 482 483 481
f 482 484 483
f 484 485 483
f 484 486 485
f 486 487 485
f 486 477 487
f 477 488 487
f 477 478 488
f 489 491 490
f 489 492 491
f 480 494 493
f 480 481 494
f 495 496 489
f 495 497 496
f 427 500 501
f 444 445 443
f 181 626 180
f 155 74 156
f 407 510 409
f 141 304 298
f 505 471 469
f 500 454 452
f 507 467 474
f 435 443 498
f 361 391 390
f 412 513 401
f 399 513 514
f 516 287 286
f 516 517 287
f 247 69 248
f 517 516 520
f 674 785 786
f 692 767 768
f 671 788 789
f 528 529 527
f 528 530 529
f 529 530 531
f 693 766 767
f 562 221 563
f 528 538 539
f 526 537 538
f 536 544 537
f 539 547 540
f 567 226 568
f 543 552 544
f 546 553 554
f 128 319 321
f 269 447 268
f 489 166 495
f 558 232 233
f 654 740 741
f 565 224 566
f 159 622 184
f 213 581 214
f 228 561 572
f 530 541 533
f 806 496 665
f 498 445 450
f 280 392 282
f 256 455 456
f 192 615 614
f 220 562 577
f 799 663 664
f 211 580 579
f 211 573 580
f 578 213 212
f 252 89 253
f 209 585 584
f 300 142 141
f 378 312 314
f 214 581 589
f 206 591 590
f 48 188 187
f 113 115 117
f 201 596 595
f 650 726 727
f 203 592 598
f 601 194 602
f 194 603 602
f 579 212 211
f 199 599 607
f 194 601 610
f 383 297 305
f 191 613 612
f 525 524 526
f 193 608 615
f 611 189 190
f 240 525 239
f 619 620 185
f 296 148 147
f 571 228 572
f 603 196 604
f 156 75 150
f 628 177 178
f 644 556 643
f 272 131 130
f 175 630 633
f 173 631 635
f 200 595 600
f 254 455 255
f 483 248 249
f 172 634 638
f 169 497 168
f 497 167 168
f 345 332 346
f 490 165 166
f 490 491 165
f 491 164 165
f 491 493 164
f 493 163 164
f 534 233 234
f 154 72 155
f 102 106 108
f 249 481 483
f 493 492 480
f 257 457 258
f 266 478 479
f 80 83 81
f 648 713 711
f 311 136 313
f 259 460 461
f 307 138 309
f 258 457 458
f 632 175 633
f 456 253 256
f 659 757 658
f 639 804 664
f 252 451 449
f 599 200 600
f 326 376 375
f 712 711 713
f 521 242 243
f 523 240 241
f 244 517 520
f 205 590 594
f 245 151 287
f 151 152 287
f 497 170 636
f 586 216 587
f 155 156 281
f 149 293 289
f 106 141 112
f 147 295 296
f 146 145 294
f 144 143 276
f 461 254 259
f 141 298 300
f 140 303 304
f 139 307 302
f 255 95 254
f 242 523 241
f 583 207 208
f 98 99 100
f 646 701 645
f 460 258 458
f 117 119 118
f 128 321 127
f 321 126 127
f 321 125 126
f 410 439 408
f 439 406 408
f 439 441 406
f 396 639 398
f 639 400 398
f 639 439 400
f 439 402 400
f 439 410 402
f 414 442 418
f 414 415 442
f 418 442 417
f 442 423 417
f 252 449 448
f 420 425 426
f 397 398 399
f 423 433 434
f 441 442 406
f 442 404 406
f 442 415 404
f 429 425 423
f 425 422 423
f 425 420 422
f 433 423 431
f 429 434 428
f 641 553 552
f 640 395 439
f 636 171 637
f 652 728 719
f 309 137 311
f 86 118 120
f 744 655 656
f 708 648 710
f 239 527 238
f 263 476 468
f 556 555 643
f 554 553 642
f 250 466 261
f 551 550 640
f 638 665 637
f 636 496 497
f 638 634 665
f 666 632 633
f 666 667 632
f 667 631 632
f 667 635 631
f 627 668 628
f 668 629 628
f 668 666 629
f 666 630 629
f 666 633 630
f 627 626 668
f 626 669 668
f 626 625 669
f 625 624 669
f 624 670 669
f 624 623 670
f 623 622 670
f 622 671 670
f 622 621 671
f 617 672 618
f 672 619 618
f 672 671 619
f 671 620 619
f 671 621 620
f 617 616 672
f 616 673 672
f 616 611 673
f 611 612 673
f 612 674 673
f 612 613 674
f 613 614 674
f 614 675 674
f 614 615 675
f 601 676 610
f 676 609 610
f 676 675 609
f 675 608 609
f 675 615 608
f 677 676 605
f 676 604 605
f 604 676 603
f 676 602 603
f 676 601 602
f 678 677 607
f 677 606 607
f 677 605 606
f 596 679 595
f 679 600 595
f 679 678 600
f 678 599 600
f 678 607 599
f 596 597 679
f 597 680 679
f 597 598 680
f 598 592 680
f 592 681 680
f 592 593 681
f 582 682 591
f 682 590 591
f 682 681 590
f 681 594 590
f 681 593 594
f 582 583 682
f 583 683 682
f 583 584 683
f 584 585 683
f 585 684 683
f 585 586 684
f 586 587 684
f 587 685 684
f 587 588 685
f 686 581 578
f 686 685 581
f 685 589 581
f 685 588 589
f 578 579 686
f 579 687 686
f 579 580 687
f 688 687 574
f 687 573 574
f 687 580 573
f 689 688 576
f 688 575 576
f 688 574 575
f 563 690 689
f 563 689 562
f 689 577 562
f 689 576 577
f 691 690 565
f 690 564 565
f 690 563 564
f 569 692 568
f 692 567 568
f 692 691 567
f 691 566 567
f 691 565 566
f 569 570 692
f 570 693 692
f 570 571 693
f 571 694 693
f 571 572 694
f 558 695 559
f 695 560 559
f 695 694 560
f 694 561 560
f 694 572 561
f 534 535 558
f 535 695 558
f 564 223 565
f 177 629 176
f 126 87 130
f 697 699 698
f 699 700 698
f 699 701 700
f 799 796 800
f 801 796 795
f 705 706 704
f 706 707 704
f 706 708 707
f 702 701 703
f 710 711 709
f 246 487 488
f 713 714 712
f 714 715 712
f 714 716 715
f 719 721 720
f 723 724 722
f 723 725 724
f 725 726 724
f 725 717 726
f 717 727 726
f 717 718 727
f 719 728 721
f 728 729 721
f 728 730 729
f 730 731 729
f 730 732 731
f 747 752 745
f 737 738 736
f 737 739 738
f 739 740 738
f 739 733 740
f 733 741 740
f 733 734 741
f 742 735 743
f 735 744 743
f 717 716 718
f 747 748 746
f 747 742 748
f 742 749 748
f 742 743 749
f 750 745 751
f 745 752 751
f 755 756 754
f 755 750 756
f 750 757 756
f 750 751 757
f 758 753 759
f 753 760 759
f 709 708 710
f 763 764 762
f 49 212 36
f 758 759 765
f 679 782 678
f 682 777 778
f 684 777 683
f 681 778 779
f 520 522 521
f 575 219 576
f 677 782 783
f 673 786 787
f 666 792 793
f 666 794 667
f 687 774 686
f 687 772 773
f 689 770 771
f 668 791 792
f 692 769 691
f 775 725 723
f 785 750 786
f 784 742 747
f 782 742 783
f 789 763 790
f 773 725 774
f 771 709 712
f 794 796 797
f 779 731 733
f 781 735 782
f 776 729 777
f 768 707 769
f 785 747 745
f 778 729 731
f 770 707 709
f 776 723 721
f 798 797 799
f 795 802 801
f 795 761 802
f 761 803 802
f 804 805 798
f 805 797 798
f 665 634 667
f 634 635 667
f 393 370 394
f 215 589 588
f 341 340 342
f 496 636 665
f 636 637 665
f 269 272 271
f 804 798 664
f 798 799 664
f 315 134 317
f 182 625 181
f 801 802 662
f 501 452 459
f 662 802 803
f 760 660 759
f 660 765 759
f 661 762 764
f 716 650 718
f 754 756 659
f 757 751 658
f 722 652 720
f 658 751 752
f 744 656 743
f 656 749 743
f 481 162 494
f 657 746 748
f 732 654 734
f 736 738 655
f 653 732 730
f 493 160 163
f 654 741 734
f 74 122 75
f 655 738 740
f 651 722 724
f 529 236 237
f 652 719 720
f 206 582 591
f 653 730 728
f 649 716 714
f 438 443 440
f 650 727 718
f 253 451 252
f 651 724 726
f 765 661 764
f 649 714 713
f 705 647 706
f 647 708 706
f 290 156 150
f 648 711 710
f 663 801 662
f 604 197 605
f 701 699 645
f 645 699 697
f 513 492 489
f 100 258 259
f 84 86 121
f 101 99 137
f 36 212 213
f 107 139 140
f 37 25 24
f 24 26 27
f 27 28 43
f 43 44 45
f 45 46 43
f 46 56 43
f 56 57 59
f 59 58 56
f 58 55 56
f 55 54 48
f 54 53 48
f 53 52 48
f 48 47 65
f 65 64 63
f 63 68 31
f 68 67 31
f 67 66 31
f 31 30 23
f 30 22 23
f 22 21 23
f 23 5 15
f 5 4 1
f 2 4 13
f 3 29 8
f 29 12 11
f 4 2 1
f 4 3 14
f 13 4 14
f 48 65 55
f 65 63 31
f 24 27 56
f 27 43 56
f 38 37 40
f 37 24 40
f 40 39 38
f 42 41 40
f 35 34 42
f 49 36 35
f 51 50 35
f 50 49 35
f 61 60 51
f 33 62 51
f 62 61 51
f 19 32 33
f 17 18 33
f 18 19 33
f 15 16 31
f 16 17 31
f 1 15 5
f 35 42 24
f 42 40 24
f 56 55 24
f 24 55 33
f 65 31 55
f 31 23 15
f 29 11 10
f 29 10 9
f 33 31 17
f 33 55 31
f 33 51 24
f 51 35 24
f 29 9 8
f 3 8 7
f 3 7 6
f 3 6 20
f 183 623 624
f 573 211 210
f 408 409 411
f 294 145 144
f 93 92 94
f 585 209 217
f 245 10 11
f 322 374 375
f 275 328 374
f 376 377 316
f 153 154 283
f 510 484 482
f 379 380 310
f 380 381 308
f 382 383 305
f 191 612 611
f 184 622 623
f 388 389 291
f 202 203 598
f 389 390 288
f 763 762 803
f 512 511 482
f 359 361 390
f 587 216 215
f 563 221 222
f 334 332 379
f 274 275 373
f 320 373 374
f 644 645 697
f 182 63 64
f 86 146 147
f 247 246 73
f 119 143 144
f 12 152 151
f 258 100 102
f 94 135 136
f 35 213 214
f 81 121 147
f 69 29 249
f 167 497 495
f 299 298 304
f 263 85 83
f 112 141 142
f 260 464 462
f 231 559 560
f 293 149 148
f 641 552 551
f 390 391 280
f 419 424 502
f 421 419 503
f 187 617 618
f 147 146 294
f 424 427 501
f 435 498 499
f 432 430 499
f 405 403 507
f 405 508 509
f 127 126 130
f 397 399 514
f 498 450 454
f 503 502 463
f 506 505 469
f 661 662 803
f 627 628 178
f 508 477 486
f 204 205 594
f 515 514 489
f 574 210 218
f 289 290 150
f 755 754 760
f 284 393 394
f 733 731 732
f 737 736 744
f 702 703 705
f 642 643 555
f 686 774 775
f 353 355 387
f 679 680 780
f 685 775 776
f 794 806 665
f 675 676 784
f 531 530 533
f 527 525 526
f 671 789 790
f 681 779 780
f 676 677 783
f 688 689 771
f 392 366 368
f 670 790 791
f 690 691 769
f 534 532 533
f 797 805 806
f 395 640 550
f 789 788 753
f 787 786 750
f 781 780 739
f 793 792 795
f 767 766 700
f 787 755 753
f 792 791 761
f 771 712 715
f 768 767 702
f 790 763 761
f 779 733 739
f 720 721 723
f 696 698 700
f 697 698 549
f 542 549 698
f 391 363 366
f 386 387 277
f 518 394 370
f 695 696 766
f 516 518 536
f 522 536 537
f 528 539 540
f 535 533 541
f 186 618 619
f 538 537 544
f 518 519 543
f 539 538 545
f 543 519 550
f 545 544 552
f 546 554 555
f 548 556 557
f 301 276 143
f 760 754 659
f 264 265 475
f 608 193 195
f 180 626 627
f 261 466 464
f 531 532 235
f 584 583 208
f 266 246 488
f 576 219 220
f 186 185 47
f 159 185 620
f 494 162 161
f 412 411 511
f 540 547 548
f 804 396 397
f 265 82 122
f 103 138 139
f 353 352 354
f 129 127 131
f 221 61 62
f 355 354 356
f 413 416 505
f 228 18 17
f 92 134 135
f 100 99 101
f 96 136 137
f 229 230 560
f 171 172 638
f 541 548 549
f 592 203 204
f 93 255 256
f 264 83 82
f 243 244 520
f 547 555 556
f 764 763 758
f 88 272 130
f 88 87 90
f 773 772 715
f 266 122 73
f 91 90 92
f 82 80 75
f 485 487 247
f 282 392 393
f 285 287 152
f 332 344 380
f 377 378 314
f 90 133 134
f 479 475 265
f 403 413 506
f 409 510 511
f 569 157 158
f 634 172 173
f 70 71 73
f 375 376 325
f 271 272 88
f 159 65 47
f 188 616 617
f 343 341 342
f 313 136 135
f 519 370 371
f 502 501 459
f 527 529 237
f 657 658 752
f 323 133 125
f 566 224 225
f 253 89 91
f 220 219 60
f 606 198 199
f 517 244 245
f 317 134 133
f 111 112 114
f 749 656 657
f 12 69 71
f 283 154 155
f 110 106 112
f 81 83 85
f 468 470 262
f 385 386 278
f 176 629 630
f 108 260 257
f 705 703 646
f 504 503 465
f 508 507 474
f 357 359 389
f 140 139 302
f 232 558 559
f 201 202 597
f 95 94 96
f 87 125 133
f 372 373 320
f 631 173 174
f 189 611 616
f 251 262 470
f 120 145 146
f 605 197 198
f 374 328 326
f 805 397 515
f 509 486 484
f 381 382 306
f 384 385 299
f 568 226 157
f 387 388 279
f 516 286 394
f 250 251 472
f 195 194 610
f 416 421 504
f 512 480 492
f 342 340 382
f 337 336 377
f 344 342 381
f 340 347 383
f 336 334 378
f 348 351 385
f 613 191 192
f 351 353 386
f 355 357 388
f 521 522 524
f 347 348 384
f 535 542 696
f 673 787 788
f 570 158 227
f 165 164 4
f 97 259 254
f 410 411 412
f 532 534 234
f 330 124 329
f 124 123 329
f 123 395 371
f 123 371 369
f 335 327 343
f 327 329 362
f 356 327 362
f 346 333 335
f 343 345 335
f 345 346 335
f 339 341 343
f 349 338 339
f 352 350 349
f 356 354 327
f 354 352 327
f 360 358 356
f 364 362 123
f 362 360 356
f 123 362 329
f 352 349 327
f 349 339 327
f 339 343 327
f 123 369 367
f 365 364 123
f 80 81 148
f 408 406 407
f 75 80 149
f 261 260 110
f 436 437 442
f 437 431 442
f 21 22 172
f 427 432 500
f 444 446 445
f 181 625 626
f 155 72 74
f 407 509 510
f 141 140 304
f 505 504 471
f 500 499 454
f 507 506 467
f 435 440 443
f 361 363 391
f 412 512 513
f 399 401 513
f 247 71 69
f 674 675 785
f 692 693 767
f 671 672 788
f 693 694 766
f 562 220 221
f 528 526 538
f 526 524 537
f 536 543 544
f 539 546 547
f 567 225 226
f 543 551 552
f 546 545 553
f 489 490 166
f 654 655 740
f 565 223 224
f 159 621 622
f 213 578 581
f 228 229 561
f 530 540 541
f 806 515 496
f 498 443 445
f 280 391 392
f 256 255 455
f 192 193 615
f 799 800 663
f 252 88 89
f 300 301 142
f 378 379 312
f 48 52 188
f 113 114 115
f 650 651 726
f 579 578 212
f 383 384 297
f 525 523 524
f 240 523 525
f 296 292 148
f 571 227 228
f 603 194 196
f 156 74 75
f 644 557 556
f 272 270 131
f 200 201 595
f 254 453 455
f 483 485 248
f 345 344 332
f 534 558 233
f 154 70 72
f 102 107 106
f 493 491 492
f 257 462 457
f 80 82 83
f 648 649 713
f 311 137 136
f 307 139 138
f 632 174 175
f 659 756 757
f 639 396 804
f 599 199 200
f 326 337 376
f 712 709 711
f 205 206 590
f 497 169 170
f 586 217 216
f 106 140 141
f 461 453 254
f 255 93 95
f 242 521 523
f 583 582 207
f 98 96 99
f 646 703 701
f 460 259 258
f 117 115 119
f 448 447 271
f 447 269 271
f 271 252 448
f 397 396 398
f 429 423 434
f 641 642 553
f 124 331 319
f 331 273 319
f 273 274 372
f 372 318 319
f 319 128 124
f 128 129 132
f 124 128 132
f 132 270 123
f 270 267 268
f 268 447 439
f 447 446 439
f 446 444 438
f 438 439 446
f 439 639 640
f 640 639 641
f 639 664 663
f 663 662 661
f 661 660 663
f 660 659 663
f 659 658 657
f 657 656 659
f 656 655 659
f 655 654 651
f 654 653 651
f 653 652 651
f 651 650 647
f 650 649 647
f 649 648 647
f 647 646 645
f 645 644 655
f 644 643 639
f 655 644 663
f 647 645 655
f 639 663 644
f 642 639 643
f 132 123 124
f 270 268 439
f 123 270 395
f 372 319 273
f 639 642 641
f 663 659 655
f 655 651 647
f 395 270 439
f 636 170 171
f 652 653 728
f 309 138 137
f 86 116 118
f 744 736 655
f 708 647 648
f 239 525 527
f 263 264 476
f 250 473 466
f 564 222 223
f 177 628 629
f 126 125 87
f 799 797 796
f 801 800 796
f 702 700 701
f 246 247 487
f 747 746 752
f 717 715 716
f 709 707 708
f 49 211 212
f 679 781 782
f 682 683 777
f 684 776 777
f 681 682 778
f 520 516 522
f 575 218 219
f 677 678 782
f 673 674 786
f 666 668 792
f 666 793 794
f 687 773 774
f 687 688 772
f 689 690 770
f 668 669 791
f 692 768 769
f 775 774 725
f 785 745 750
f 784 783 742
f 782 735 742
f 789 758 763
f 773 717 725
f 771 770 709
f 794 793 796
f 779 778 731
f 781 737 735
f 776 721 729
f 768 704 707
f 785 784 747
f 778 777 729
f 770 769 707
f 776 775 723
f 393 368 370
f 215 214 589
f 341 339 340
f 269 270 272
f 315 135 134
f 182 624 625
f 501 500 452
f 716 649 650
f 722 651 652
f 481 249 162
f 732 653 654
f 493 161 160
f 74 73 122
f 529 531 236
f 206 207 582
f 438 444 443
f 253 456 451
f 765 660 661
f 290 281 156
f 663 800 801
f 604 196 197
