v 0.0400004 0.0775183 0.00664228
v 0.0400004 0.075444 0.00433856
v 0.0400004 0.0846218 -0.00392514
v -0.0399995 0.0778162 0.0428408
v 0.0400004 0.0576084 0.0203978
v 0.0400004 0.0778162 0.0428408
v -0.0399995 0.0846218 -0.00392514
v -0.0399995 0.075444 0.00433856
v -0.0399995 0.0956518 0.0267815
v 0.0400004 0.10483 0.0185178
v -0.0399995 0.10483 0.0185178
v -0.0619995 0.0956518 0.0267815
v -0.0399995 0.0775183 0.00664228
v 0.0620004 0.0778162 0.0428408
v 0.0620004 0.075444 0.0043385
v 0.0400004 0.075444 0.0043385
v -0.0619995 0.075444 0.00433856
v -0.0619995 0.0778162 0.0428408
v -0.0619995 0.0576084 0.0203978
v 0.0400004 0.0956518 0.0267815
v 0.0620004 0.0956518 0.0267815
v 0.0620004 0.0576084 0.0203978
v -0.0399995 0.0576084 0.0203978
v -0.316996 -0.0599992 -0.077799
v -0.316996 -0.0799989 0.0559993
v -0.316996 -0.0799989 -0.077799
v -0.357919 -0.0799989 -0.076799
v -0.357995 -0.0799989 0.0559993
v -0.411994 -0.0799989 -0.0063163
v -0.411994 0.0599992 -0.00631636
v -0.411994 0.079999 0.0149998
v -0.411994 0.079999 -0.00631642
v -0.357995 0.079999 0.0559993
v -0.316996 0.079999 0.0559993
v -0.357919 0.079999 -0.076799
v -0.323891 0.0399995 -0.077799
v -0.357995 0.0399995 -0.107388
v -0.324578 0.0399995 -0.108388
v -0.316996 0.0599992 0.0559993
v -0.357995 0.0599992 0.0559993
v -0.399534 0.0599992 -0.0528209
v -0.400856 0.079999 -0.0478845
v -0.399534 0.079999 -0.0528209
v -0.357919 -0.0599992 -0.076799
v -0.361591 -0.0799989 -0.0746834
v -0.361591 -0.0599992 -0.0746834
v -0.381995 0.0599992 0.0559993
v -0.411994 0.079999 0.0559993
v -0.411994 0.0599992 0.0559993
v -0.381995 0.079999 0.0559993
v -0.363254 0.0814202 0.0559993
v -0.357995 0.0399982 0.0660154
v -0.381995 0.0527111 0.086127
v -0.381995 0.0399982 0.0660154
v -0.363254 0.0814202 0.086127
v -0.357995 0.0704991 0.086127
v -0.381995 -0.0399982 0.0660154
v -0.381995 0.0366595 0.0559993
v -0.381995 0.0704991 0.086127
v -0.376736 0.0814202 0.086127
v -0.357995 -0.0599992 0.0559992
v -0.357995 -0.0366595 0.0559993
v -0.357995 -0.0399982 0.0660154
v -0.357995 0.0527111 0.086127
v -0.357995 -0.0704991 0.086127
v -0.381995 -0.0527111 0.086127
v -0.381995 -0.0704991 0.086127
v -0.363254 -0.0814202 0.086127
v -0.376736 -0.0814202 0.0559993
v -0.363254 -0.0814202 0.0559993
v -0.376736 0.0814202 0.0559993
v -0.357995 -0.0527111 0.086127
v -0.381995 -0.0799989 0.0559993
v -0.376736 -0.0814202 0.086127
v -0.411994 -0.0599992 0.0559993
v -0.411994 -0.0799989 0.0559993
v -0.381995 -0.0599992 0.0559992
v -0.4067 -0.0366595 0.0559992
v -0.381995 -0.0366595 0.0559992
v -0.4067 0.0366595 0.0559993
v -0.399534 -0.0599992 -0.0528209
v -0.395901 -0.0599992 -0.0549142
v -0.397239 -0.0366595 -0.0528209
v -0.357919 -0.0399994 -0.076799
v -0.357919 0.0399995 -0.076799
v -0.397239 0.0366595 -0.0528209
v -0.357919 0.0599992 -0.076799
v -0.399534 -0.0799989 -0.0528209
v -0.400856 -0.0599992 -0.0478845
v -0.4067 -0.0366595 -0.00631636
v -0.4067 0.0366595 -0.00631636
v -0.316996 -0.0599992 0.0559992
v -0.316996 -0.0366595 0.0559992
v -0.357995 0.0366595 0.0559993
v -0.316996 0.0366595 0.0559993
v -0.323891 -0.0799989 -0.077799
v -0.316996 0.0366595 -0.077799
v -0.316996 -0.0366595 -0.077799
v -0.324578 0.079999 -0.108388
v -0.323891 0.0599992 -0.077799
v -0.411994 0.0599992 0.0149998
v -0.411994 -0.0599992 -0.0063163
v -0.316996 0.0599992 -0.077799
v -0.316996 0.079999 -0.077799
v -0.411994 -0.0799989 0.0548903
v -0.433994 -0.0599992 0.0548903
v -0.441974 -0.0799989 0.0548903
v -0.411994 -0.0599992 0.0149999
v -0.411994 -0.0599992 0.0548903
v -0.411994 -0.0799989 0.0149999
v -0.411994 0.079999 0.0548903
v -0.411994 0.0599992 0.0548903
v -0.433994 0.0599992 0.0149998
v -0.441974 0.079999 0.0548903
v -0.441974 0.079999 0.0149997
v -0.441974 -0.0799989 0.0149999
v -0.433994 -0.0599992 0.0149999
v -0.433994 0.0599992 0.0548903
v -0.400856 0.0599992 -0.0478845
v -0.433093 0.0599992 -0.0158297
v -0.422745 0.0599992 -0.0544473
v -0.411041 0.079999 -0.00987422
v -0.411041 0.0599992 -0.00987422
v -0.411041 -0.0599992 -0.00987417
v -0.411041 -0.0799989 -0.00987417
v -0.400856 -0.0799989 -0.0478845
v -0.439984 0.0799989 -0.0176908
v -0.42964 0.079999 -0.0562961
v -0.439984 -0.0799989 -0.0176907
v -0.422745 -0.0599992 -0.0544473
v -0.429639 -0.0799989 -0.0562961
v -0.433093 -0.0599992 -0.0158296
v -0.372485 -0.0599992 -0.0942477
v -0.361591 0.079999 -0.0746834
v -0.410357 0.079999 -0.0807538
v -0.395901 0.079999 -0.0549142
v -0.361591 0.0599992 -0.0746834
v -0.395901 -0.0799989 -0.0549142
v -0.395901 0.0599992 -0.0549142
v -0.372485 0.0599992 -0.0942477
v -0.375995 0.079999 -0.100553
v -0.410357 -0.0799989 -0.0807537
v -0.375995 -0.0799989 -0.100553
v -0.406833 0.0599992 -0.074456
v -0.406833 -0.0599992 -0.074456
v -0.323891 -0.0399995 -0.077799
v -0.323891 0.079999 -0.077799
v -0.323891 -0.0599992 -0.077799
v -0.357995 -0.0399994 -0.107388
v -0.324578 -0.0799989 -0.108388
v -0.357995 -0.0799989 -0.107388
v -0.357995 0.079999 -0.107388
v -0.324578 -0.0399994 -0.108388
v 0.186988 0.0549992 0.0174998
v 0.061999 0.0549992 0.0529993
v 0.278496 0.0549992 0.0529994
v 0.278496 -2.01166e-07 0.0839989
v 0.278496 -0.0549992 0.0604993
v 0.278496 -1.93715e-07 0.0604993
v 0.186988 -1.93715e-07 0.00149995
v 0.186988 -1.93715e-07 0.0174998
v -0.184068 -1.93715e-07 0.0174998
v -0.147498 -0.0549992 0.0174998
v -0.184068 -0.0549992 0.0177717
v -0.184068 0.0549992 0.0174998
v -0.278497 0.0583687 0.00149995
v -0.278497 0.0549992 0.0174998
v 0.278496 -0.058369 0.00149995
v 0.186988 -0.0583691 0.00149995
v 0.278496 0.0549992 0.0174998
v 0.186988 0.0583687 0.00149995
v 0.278496 -0.0549992 0.0177717
v 0.278496 -2.01166e-07 0.00149995
v 0.278496 -1.93715e-07 0.0174998
v 0.186988 -0.0549993 0.0174998
v -0.184068 -2.08616e-07 0.00149995
v -0.278497 -0.0583691 0.00149995
v -0.278497 -2.01166e-07 0.00149995
v -0.278497 -1.93715e-07 0.0174998
v -0.278497 -0.0549992 0.0174998
v -0.184068 -0.058369 0.00149995
v -0.184068 0.0583687 0.00149995
v 0.278496 0.0583687 0.00149995
v -0.147498 0.0549992 0.0174998
v 0.086958 0.00389993 0.101298
v -0.0812575 0.0146116 0.105999
v -0.0859404 0.00389993 0.101298
v 0.278496 0.0549993 0.0604994
v -0.145498 0.0473993 0.0919988
v -0.145498 0.0569992 0.104999
v -0.145498 -1.93715e-07 0.104999
v -0.0859404 0.0500994 0.101298
v 0.0968875 0.0500993 0.0841779
v -0.102997 0.0500994 0.0841779
v -0.0959828 0.0148998 0.117818
v -0.0988112 0.00389993 0.11499
v -0.0812575 0.0390344 0.105999
v 0.0892602 0.0146116 0.105999
v 0.0945093 0.0390344 0.105999
v 0.086958 0.00389993 0.0841779
v -0.102997 0.00389993 0.0841779
v 0.0968875 0.0500993 0.101298
v -0.125681 0.0500993 0.0881202
v -0.0988112 0.0500993 0.11499
v -0.0959828 0.0390995 0.117818
v -0.125681 0.00389993 0.0881202
v -0.125654 0.00699729 0.0931342
v -0.0985181 0.00700641 0.11542
v -0.100908 0.00700676 0.117816
v -0.100869 0.0469966 0.117844
v -0.123263 0.0469958 0.090737
v -0.125653 0.0469961 0.0931337
v -0.148057 0.00949985 0.112059
v -0.121541 0.00701004 0.138507
v -0.146286 0.0469994 0.113824
v -0.177498 -1.93715e-07 0.104999
v -0.145498 -0.0569993 0.104999
v -0.177498 0.0569992 0.104999
v -0.177498 -0.0569993 0.0939988
v -0.177498 -0.0569993 0.104999
v 0.232428 -2.08616e-07 0.106568
v 0.237319 0.0176774 0.0839989
v 0.229997 -2.08616e-07 0.0839989
v 0.270955 0.0159578 0.106568
v 0.272674 0.0176774 0.0839989
v 0.272674 -0.0176778 0.0839989
v 0.254997 -0.0225683 0.106568
v 0.254997 -0.0250001 0.0839989
v 0.239038 -0.0159582 0.106568
v 0.237319 -0.0176778 0.0839989
v 0.254997 0.0225679 0.106568
v 0.254997 0.0249998 0.0839989
v 0.270955 -0.0159582 0.106568
v 0.262681 -0.00768411 0.111443
v 0.24413 -2.01166e-07 0.111443
v 0.247313 0.00768369 0.111443
v 0.239038 0.0159578 0.106568
v 0.262681 0.00768369 0.111443
v 0.265863 -2.01166e-07 0.111443
v 0.277565 -2.01166e-07 0.106568
v 0.247313 -0.00768411 0.111443
v 0.254997 -2.01166e-07 0.112384
v 0.254997 -0.0108669 0.111443
v 0.254997 0.0108665 0.111443
v -0.141361 0.0569993 0.0604994
v -0.177498 0.0569993 0.0604994
v -0.145498 0.0569993 0.0604994
v -0.190886 0.0569992 0.0939988
v -0.190886 0.0569993 0.0604993
v -0.23661 0.0561992 0.0939988
v -0.240936 0.0549992 0.0939988
v -0.177498 -1.93715e-07 0.0939988
v -0.278497 0.0549993 0.0604992
v -0.292996 -2.01166e-07 0.0604992
v -0.278497 -2.01166e-07 0.0604992
v 0.289611 -0.0694995 0.0529994
v 0.292996 -0.0683692 0.0604994
v 0.289611 -0.0694995 0.0604994
v -0.278497 0.0694991 0.0529993
v -0.292996 0.0683688 0.0604992
v -0.278497 0.0694991 0.0604992
v 0.292996 -1.93715e-07 0.0604993
v 0.292996 0.0583688 0.0604994
v -0.0619993 0.0694991 0.0529993
v -0.278497 0.0549992 0.0529993
v 0.278496 -1.93715e-07 0.0529993
v -0.278497 -2.01166e-07 0.0529993
v -0.147498 -1.93715e-07 0.0174998
v 0.061999 -0.0549996 0.0174998
v -0.0619993 -0.0549996 0.0175001
v -0.278497 -0.0549993 0.0604993
v -0.240936 -0.0549993 0.0939988
v -0.278497 -0.0549993 0.0939988
v -0.278497 -0.0694995 0.0604993
v -0.292996 -0.0583691 0.0604992
v -0.292996 -0.0683692 0.0604992
v -0.240936 0.0549992 0.0604993
v -0.278497 0.0549992 0.0939988
v 0.289611 0.0694991 0.0604994
v 0.292996 0.0683688 0.0604994
v -0.292996 -0.0583691 0.0529993
v -0.292996 -2.01166e-07 0.0529993
v -0.292996 -0.0683692 0.0529993
v -0.292996 0.0583687 0.0529993
v -0.292996 0.0583688 0.0604992
v -0.292996 0.0683688 0.0529993
v -0.278497 -0.0694995 0.0529993
v -0.278497 -0.0549993 0.0529993
v 0.292996 0.0583687 0.0529994
v 0.292996 -1.93715e-07 0.0529993
v 0.292996 -0.0583691 0.0529994
v 0.292996 -0.0683692 0.0529994
v 0.292996 0.0683688 0.0529994
v 0.292996 -0.0583691 0.0604994
v 0.289611 0.0694991 0.0529994
v 0.278496 -0.0549992 0.0529994
v 0.191197 0.0564992 0.0839989
v 0.191197 0.050489 0.0919988
v 0.191197 0.0612992 0.0919988
v 0.149798 0.0564992 0.0839989
v 0.190923 0.0564992 0.0604994
v 0.149798 0.0564992 0.0604994
v 0.159219 0.0415746 0.0839989
v 0.173818 0.0318198 0.0839989
v 0.191197 0.0504889 0.0839989
v 0.173818 0.0318198 0.0919988
v 0.278496 -0.0549992 0.0839989
v 0.061999 0.077749 0.0427664
v -0.0619993 0.077749 0.0427664
v 0.061999 0.0549992 0.0174998
v -0.0619993 0.0549989 0.0174998
v -0.0619993 0.0549992 0.0529993
v 0.0619991 0.0694991 0.0529994
v 0.0619991 -0.0777494 0.0427664
v -0.0619993 -0.0694995 0.0529993
v -0.0619993 -0.0777494 0.0427664
v -0.0619993 -0.0549996 0.0529993
v 0.0619991 -0.0549996 0.0529993
v 0.0619991 -0.0694995 0.0529994
v 0.292996 -0.0679878 -0.0410122
v 0.307996 0.0679878 -0.0410122
v 0.307996 -0.0679878 -0.0410122
v 0.292996 0.128503 0.0983276
v 0.307996 0.119422 0.0871071
v 0.292996 0.119422 0.0871071
v 0.307996 0.0936157 0.11847
v 0.292996 0.0716552 0.0871071
v 0.307996 0.0716552 0.0871071
v 0.292996 0.124718 0.121173
v 0.307996 0.114843 0.126874
v 0.307996 0.124718 0.121173
v 0.292996 0.0694948 0.0559993
v 0.307996 -0.0694953 0.0559993
v 0.307996 0.0694948 0.0559993
v 0.307996 0.102187 0.126401
v 0.292996 0.114843 0.126874
v 0.292996 0.102187 0.126401
v 0.292996 0.131115 0.109699
v 0.307996 0.131115 0.109699
v 0.292996 0.0802737 0.0688142
v 0.307996 0.0802737 0.0688142
v 0.292996 0.0699349 0.0766488
v 0.307996 0.0699349 0.0766488
v 0.307996 0.128503 0.0983276
v 0.292996 0.0936157 0.11847
v 0.307996 -0.150012 0.0410122
v -0.307998 0.119422 0.0871071
v -0.292998 0.128503 0.0983276
v -0.292998 0.119422 0.0871071
v -0.292998 0.0716551 0.0871071
v -0.307998 0.0936157 0.11847
v -0.307998 0.0716551 0.0871071
v -0.307998 0.114843 0.126874
v -0.292998 0.124718 0.121173
v -0.307998 0.124718 0.121173
v -0.292998 0.114843 0.126874
v -0.307998 0.102187 0.126401
v -0.292998 0.102187 0.126401
v -0.292998 0.131115 0.109699
v -0.307998 0.131115 0.109699
v -0.307998 0.0694948 0.0559993
v -0.292998 0.0802737 0.0688142
v -0.307998 0.0802737 0.0688142
v -0.307998 0.0699349 0.0766488
v -0.292998 0.0699349 0.0766488
v -0.307998 0.128503 0.0983276
v -0.292998 0.0936157 0.11847
v -0.292998 -0.0802742 0.0688142
v -0.292998 -0.0716556 0.0871071
v -0.292998 -0.119422 0.0871071
v 0.307996 -0.119422 0.0871071
v 0.292996 -0.128504 0.0983276
v 0.292996 -0.119422 0.0871071
v 0.292996 -0.0716556 0.0871071
v 0.307996 -0.0936161 0.11847
v 0.307996 -0.0716556 0.0871071
v 0.307996 -0.114844 0.126874
v 0.292996 -0.124719 0.121173
v 0.307996 -0.124719 0.121173
v 0.292996 -0.114844 0.126874
v 0.307996 -0.102187 0.126401
v 0.292996 -0.102187 0.126401
v 0.292996 -0.131115 0.109699
v 0.307996 -0.131115 0.109699
v 0.292996 -0.0802741 0.0688142
v 0.307996 -0.0802741 0.0688142
v 0.307996 -0.0699353 0.0766488
v 0.292996 -0.0699353 0.0766488
v 0.292996 -0.150012 0.0410122
v 0.307996 -0.128504 0.0983276
v 0.292996 -0.0936161 0.11847
v -0.292998 -0.128504 0.0983276
v -0.307998 -0.119422 0.0871071
v -0.307998 -0.0936161 0.11847
v -0.307998 -0.0716556 0.0871071
v -0.292998 -0.124719 0.121173
v -0.307998 -0.114844 0.126874
v -0.307998 -0.124719 0.121173
v -0.307998 -0.102187 0.126401
v -0.292998 -0.114844 0.126874
v -0.292998 -0.102187 0.126401
v -0.292998 -0.131115 0.109699
v -0.307998 -0.131115 0.109699
v -0.307998 -0.0694953 0.0559993
v -0.307998 -0.0802742 0.0688142
v -0.307998 -0.0699353 0.0766488
v -0.292998 -0.0699353 0.0766488
v -0.307996 0.150012 0.0410122
v -0.307998 -0.128504 0.0983276
v -0.292998 -0.0936161 0.11847
v -0.307996 0.0679878 -0.0410122
v -0.0965075 0.00948769 0.117384
v -0.098894 0.0445124 0.11978
v -0.0989223 0.00949007 0.11976
v -0.125033 0.0444957 0.0889719
v -0.127423 0.044496 0.0913685
v -0.142964 0.00700003 0.110493
v -0.144734 0.00949937 0.108727
v -0.118218 0.00700956 0.135175
v -0.119769 0.00951075 0.140274
v -0.118179 0.0469993 0.135203
v -0.119734 0.0444999 0.140298
v -0.116378 0.044502 0.136994
v -0.127423 0.00949663 0.0913687
v -0.144734 0.0444988 0.108727
v -0.148057 0.0444993 0.112059
v 0.0449992 0.0549993 0.0850155
v 0.00299978 0.0498993 0.0849989
v 0.0449992 0.0498993 0.0849989
v -0.0509995 0.0498993 0.0849989
v -0.086983 0.0549993 0.0850155
v -0.086983 0.0498993 0.0849989
v -0.142963 0.0469989 0.110492
v -0.116411 0.00950742 0.136971
v -0.121502 0.0469999 0.138535
v -0.146287 0.00700057 0.113825
v -0.125033 0.00949621 0.088972
v -0.0984785 0.0469962 0.115448
v -0.0964801 0.0445138 0.117403
v 0.0991986 0.0549993 0.0850155
v 0.0509992 0.0498993 0.0849989
v 0.0991986 0.0498993 0.0849989
v -0.0449995 0.0609992 0.0919987
v -0.0509995 0.0609992 0.0604994
v -0.0509995 0.0609992 0.0919987
v 0.107799 0.0612992 0.0919988
v 0.0991986 0.0612992 0.0604994
v 0.0991986 0.0612992 0.0919988
v 0.107799 0.0549992 0.0919988
v 0.0964733 0.0473823 0.0839989
v 0.107799 0.0579992 0.0839989
v -0.0449995 0.0498993 0.0919987
v -0.00300008 0.0498993 0.0849989
v -0.0449995 0.0498993 0.0849989
v 0.107799 0.0612992 0.0604994
v 0.0964733 0.0473823 0.0919988
v -0.145498 0.0473993 0.0839989
v -0.127602 0.0549993 0.0850155
v -0.0929989 0.0549993 0.0604994
v -0.127602 0.0549993 0.0604994
v -0.145498 -0.0569993 0.0919987
v -0.145498 -0.0473993 0.0919988
v -0.141361 -0.0569993 0.0919987
v -0.145498 -0.0569993 0.0604993
v -0.141361 -0.0569993 0.0604993
v -0.190886 -0.0569993 0.0939988
v -0.177498 -0.0569993 0.0604994
v -0.23661 -0.0561992 0.0604993
v -0.194463 -0.0561992 0.0939988
v -0.23661 -0.0561992 0.0939988
v -0.194463 -0.0561992 0.0604993
v -0.0929989 -0.0549992 0.0604993
v -0.0929989 -0.0549992 0.0849989
v -0.127602 -0.0549992 0.0849989
v -0.0929989 0.0498993 0.0849989
v -0.127602 0.0498993 0.0849989
v -0.278497 -2.01166e-07 0.0939988
v 0.190923 0.0612992 0.0604993
v 0.199522 0.0612992 0.0604993
v -0.194463 0.0561992 0.0939988
v -0.23661 0.0561992 0.0604993
v -0.194463 0.0561992 0.0604993
v -0.145498 0.0569993 0.0919987
v -0.141361 0.0569992 0.0919987
v -0.127602 0.0498993 0.0919987
v -0.127602 0.0498993 0.0604994
v -0.0929989 -0.0609992 0.0919987
v -0.0929989 -0.0609992 0.0604993
v 0.0509992 -0.0498993 0.084999
v 0.0991986 -0.0498993 0.0919988
v 0.0509992 -0.0498993 0.0919988
v -0.00300008 -0.0609992 0.0919987
v 0.00299978 -0.0609992 0.0604993
v 0.00299978 -0.0609992 0.0919988
v 0.0449993 -0.0609992 0.0919988
v 0.0449993 -0.0549992 0.0849989
v 0.0449993 -0.0609992 0.0604993
v -0.127602 -0.0498993 0.0849989
v -0.0929989 -0.0498993 0.0919987
v -0.127602 -0.0498993 0.0919987
v 0.0509992 -0.0549992 0.0849989
v 0.0509992 -0.0609992 0.0919988
v -0.127602 -0.0549993 0.0919987
v -0.0929989 -0.0498993 0.0849989
v 0.0509992 -0.0609992 0.0604993
v -0.086983 -0.0549992 0.0849989
v -0.0509995 -0.0498993 0.0849989
v -0.086983 -0.0498993 0.0849989
v -0.00300008 -0.0549992 0.0849989
v -0.00300008 -0.0609992 0.0604993
v 0.00299978 -0.0549992 0.084999
v 0.00299978 -0.0498993 0.0919988
v 0.0964733 -0.0473823 0.0919988
v -0.145498 -0.0473994 0.0839989
v 0.00299978 -0.0498993 0.084999
v 0.0449993 -0.0498993 0.0919988
v 0.141198 -0.0579992 0.0604993
v 0.107799 -0.0579992 0.0839989
v 0.107799 -0.0579992 0.0604993
v -0.0509995 -0.0609992 0.0919987
v -0.0509995 -0.0549992 0.0849989
v -0.0509995 -0.0609992 0.0604993
v 0.107799 -0.0549992 0.0919988
v 0.0964733 -0.0473823 0.0839989
v -0.086983 -0.0498993 0.0919987
v -0.086983 -0.0609992 0.0919987
v -0.0449995 -0.0498993 0.0849989
v -0.00300008 -0.0498993 0.0919987
v -0.0449995 -0.0498993 0.0919987
v 0.0991986 -0.0498993 0.084999
v 0.0991986 -0.0549992 0.084999
v -0.0449995 -0.0609992 0.0919987
v -0.0449995 -0.0609992 0.0604993
v 0.107799 -0.0612992 0.0919988
v 0.107799 -0.0612991 0.0604993
v -0.0509995 -0.0498993 0.0919987
v -0.086983 -0.0609992 0.0604993
v -0.0449995 -0.0549992 0.0849989
v -0.00300008 -0.0498993 0.0849989
v 0.0449993 -0.0498993 0.084999
v 0.00299978 0.0498993 0.0919988
v -0.141361 -0.0549992 0.0604993
v -0.141361 -0.0549993 0.0919987
v -0.086983 -0.0549992 0.0604993
v -0.0509995 -0.0549992 0.0604993
v -0.0449995 -0.0549992 0.0604993
v -0.00300008 -0.0549992 0.0604993
v 0.00299978 -0.0549992 0.0604993
v 0.0449993 -0.0549993 0.0604993
v 0.0991986 -0.0549992 0.0604993
v 0.0509992 -0.0549993 0.0604993
v 0.0991986 -0.0612991 0.0604993
v -0.086983 0.0609992 0.0919987
v -0.0929989 0.0609992 0.0604994
v -0.0929989 0.0609992 0.0919987
v 0.239009 0.0549993 0.0839989
v 0.235542 0.0559993 0.0604994
v 0.235542 0.0559993 0.0839989
v 0.0509992 0.0609992 0.0919988
v 0.0449992 0.0609992 0.0604994
v 0.0449992 0.0609992 0.0919988
v -0.086983 0.0498993 0.0919987
v -0.00300008 0.0609992 0.0919987
v 0.00299978 0.0609992 0.0604994
v -0.00300008 0.0609992 0.0604994
v -0.141361 0.0549993 0.0604994
v -0.127602 0.0549992 0.0919987
v -0.00300008 0.0549993 0.0850155
v -0.0449995 0.0549993 0.0604994
v -0.0449995 0.0549993 0.0850155
v -0.240936 -0.0549993 0.0604993
v 0.191197 -0.0504889 0.0919988
v 0.191197 -0.0504889 0.0839989
v 0.191197 -0.0564992 0.0839989
v 0.235542 -0.0559992 0.0839989
v 0.199522 -0.0559992 0.0604993
v 0.235542 -0.0559992 0.0604993
v -0.086983 0.0549993 0.0604994
v -0.0509995 0.0549993 0.0850155
v -0.0509995 0.0549993 0.0604994
v -0.0929989 0.0549993 0.0850155
v -0.0929989 0.0498993 0.0919987
v -0.0509995 0.0498993 0.0919987
v 0.0509992 0.0549993 0.0604994
v 0.0991986 0.0549993 0.0604994
v 0.199522 -0.0612991 0.0604993
v 0.199522 -0.0559992 0.0839989
v -0.086983 0.0609992 0.0604994
v 0.0509992 0.0498993 0.0919988
v 0.0449992 0.0498993 0.0919988
v -0.00300008 0.0498993 0.0919987
v 0.00299978 0.0609992 0.0919988
v 0.0509992 0.0549993 0.0850155
v 0.0509992 0.0609992 0.0604994
v 0.00299978 0.0549993 0.0850155
v 0.00299978 0.0549993 0.0604994
v 0.0449992 0.0549993 0.0604994
v -0.0449995 0.0609992 0.0604994
v 0.199522 0.0419995 0.0839989
v 0.23853 0.0419995 0.0919988
v 0.199522 0.0419995 0.0919988
v 0.183573 0.0172207 0.0839989
v 0.186998 0 0.0919988
v 0.186998 0 0.0839989
v 0.183573 -0.0172207 0.0919988
v 0.183573 -0.0172207 0.0839989
v 0.173818 -0.0318198 0.0839989
v 0.159219 -0.0415745 0.0919988
v 0.159219 -0.0415745 0.0839989
v 0.180308 0.0243563 0.0839989
v 0.191197 0.0396787 0.0919988
v 0.180308 0.0243563 0.0919988
v 0.124777 -0.0415745 0.0919988
v 0.110178 -0.0318198 0.0839989
v 0.124777 -0.0415745 0.0839989
v 0.110178 -0.0318198 0.0919988
v 0.100423 -0.0172207 0.0839989
v 0.100423 -0.0172207 0.0919988
v 0.096998 0 0.0839989
v 0.096998 0 0.0919988
v 0.100423 0.0172207 0.0839989
v 0.110178 0.0318198 0.0919988
v 0.110178 0.0318198 0.0839989
v 0.149798 -0.0612992 0.0919988
v 0.141198 -0.0612991 0.0604993
v 0.149798 -0.0612991 0.0604993
v 0.124777 0.0415746 0.0839989
v 0.23873 -0.0419994 0.0839989
v 0.199522 -0.0419994 0.0919988
v 0.23873 -0.0419994 0.0919988
v 0.149798 0.0449889 0.0839989
v 0.149798 0.0549993 0.0919988
v 0.149798 0.0449889 0.0919988
v 0.191197 -0.0612992 0.0919988
v 0.190923 -0.0612991 0.0604993
v 0.141198 0.0612992 0.0604993
v 0.149798 0.0612992 0.0919988
v 0.149798 0.0612992 0.0604993
v 0.199522 0.0612992 0.0919988
v 0.199522 -0.0450374 0.0839989
v 0.23873 -0.0450374 0.0919988
v 0.199522 -0.0450374 0.0919988
v 0.191197 -0.0396787 0.0839989
v 0.180308 -0.0243563 0.0919988
v 0.191197 -0.0396787 0.0919988
v 0.23853 0.0449994 0.0839989
v 0.199522 0.0449994 0.0919988
v 0.23853 0.0449994 0.0919988
v 0.173818 -0.0318198 0.0919988
v 0.183573 0.0172207 0.0919988
v 0.23873 -0.0450374 0.0839989
v 0.141198 0.0579992 0.0839989
v 0.107799 0.0579992 0.0604994
v 0.141198 0.0579992 0.0604994
v 0.199522 0.0449994 0.0839989
v 0.199522 0.0559993 0.0839989
v 0.124777 0.0520414 0.0839989
v 0.141198 0.0549993 0.0839989
v 0.180308 -0.0243563 0.0839989
v 0.149798 -0.0449889 0.0839989
v 0.149798 -0.0549992 0.0919988
v 0.149798 -0.0564992 0.0839989
v 0.190923 -0.0564992 0.0604993
v 0.149798 -0.0564992 0.0604993
v 0.141245 -0.0549992 0.0919988
v 0.141245 -0.0549992 0.0839989
v 0.141245 -0.0579992 0.0839989
v 0.239009 -0.0549992 0.0839989
v 0.23853 0.0419995 0.0839989
v 0.124801 -0.0520414 0.0839989
v 0.124801 -0.0520414 0.0919988
v 0.159219 0.0415745 0.0919988
v 0.124777 0.0415746 0.0919988
v 0.278496 0.0549993 0.0839989
v 0.239009 0.0549993 0.0604994
v 0.239009 -0.0549992 0.0604993
v 0.199522 0.0559993 0.0604994
v 0.124777 0.0520414 0.0919988
v 0.292996 -0.160808 -0.0221956
v 0.307996 -0.166094 0
v 0.292996 -0.166094 0
v 0.292996 -0.148521 -0.0410122
v 0.307996 -0.160808 -0.0221956
v 0.292996 -0.12838 -0.053585
v 0.307996 -0.148521 -0.0410122
v 0.292996 -0.109 -0.0563771
v 0.307996 -0.12838 -0.053585
v 0.292996 -0.0868043 -0.053585
v 0.307996 -0.109 -0.0563771
v 0.307996 -0.0868043 -0.053585
v 0.292996 -0.161064 0.0221956
v 0.307996 -0.161064 0.0221956
v 0.307996 0.166094 0
v 0.292996 0.160808 -0.0221956
v 0.292996 0.166094 0
v 0.307996 0.160808 -0.0221956
v 0.292996 0.148521 -0.0410122
v 0.307996 0.148521 -0.0410122
v 0.292996 0.12838 -0.053585
v 0.307996 0.109 -0.0563771
v 0.292996 0.109 -0.0563771
v 0.307996 0.0868043 -0.053585
v 0.292996 0.0868043 -0.053585
v 0.292996 0.0679878 -0.0410122
v 0.292996 0.150012 0.0410122
v 0.307996 0.150012 0.0410122
v 0.292996 0.161064 0.0221956
v 0.307996 0.161064 0.0221956
v -0.292996 0.160808 -0.0221956
v -0.307996 0.166094 0
v -0.292996 0.166094 0
v -0.292996 0.148521 -0.0410122
v -0.307996 0.160808 -0.0221956
v -0.292996 0.12838 -0.053585
v -0.307996 0.148521 -0.0410122
v -0.292996 0.109 -0.0563771
v -0.307996 0.12838 -0.053585
v -0.292996 0.0868043 -0.053585
v -0.307996 0.109 -0.0563771
v -0.292996 0.0679878 -0.0410122
v -0.307996 0.0868043 -0.053585
v -0.292996 0.161064 0.0221956
v -0.292996 0.150012 0.0410122
v -0.307996 0.161064 0.0221956
v -0.307996 -0.166094 0
v -0.292996 -0.160808 -0.0221956
v -0.292996 -0.166094 0
v -0.307996 -0.160808 -0.0221956
v -0.292996 -0.148521 -0.0410122
v -0.307996 -0.148521 -0.0410122
v -0.292996 -0.12838 -0.053585
v -0.307996 -0.12838 -0.053585
v -0.292996 -0.109 -0.0563771
v -0.307996 -0.109 -0.0563771
v -0.292996 -0.0868043 -0.053585
v -0.307996 -0.0868043 -0.053585
v -0.292996 -0.0679878 -0.0410122
v -0.307996 -0.0679878 -0.0410122
v -0.307996 -0.150012 0.0410122
v -0.292996 -0.150012 0.0410122
v -0.292996 -0.161064 0.0221956
v -0.307996 -0.161064 0.0221956
v -0.161498 -0.0277102 0.117149
v -0.15133 -0.0312312 0.130859
v -0.151818 -0.0317197 0.117149
v -0.147809 -0.0413995 0.117149
v -0.147118 -0.0413995 0.130859
v -0.151818 -0.0510792 0.117149
v -0.15133 -0.0515677 0.130859
v -0.161498 -0.0550887 0.117149
v -0.161498 -0.0557796 0.130859
v -0.171178 -0.0510792 0.117149
v -0.175878 -0.0413995 0.130859
v -0.175187 -0.0413995 0.117149
v -0.171053 -0.0413994 0.132318
v -0.161498 -0.050954 0.132318
v -0.151944 -0.0413994 0.132318
v -0.171666 -0.0312312 0.130859
v -0.171178 -0.0317197 0.117149
v -0.161498 -0.0270193 0.130859
v -0.169334 -0.033564 0.104999
v -0.153663 -0.033564 0.104999
v -0.153663 -0.0492349 0.104999
v -0.161498 -0.0318449 0.132318
v -0.154742 -0.0346434 0.132318
v -0.154742 -0.0481555 0.132318
v -0.168254 -0.0481555 0.132318
v -0.171666 -0.0515677 0.130859
v -0.168254 -0.0346434 0.132318
v -0.161498 -0.0301694 0.115976
v -0.169439 -0.0334587 0.115976
v -0.172728 -0.0413995 0.115976
v -0.169439 -0.0493402 0.115976
v -0.161498 -0.0526295 0.115976
v -0.153557 -0.0493402 0.115976
v -0.150268 -0.0413995 0.115976
v -0.153557 -0.0334587 0.115976
v -0.161498 -0.0303185 0.104999
v -0.150417 -0.0413995 0.104999
v -0.161498 -0.0524805 0.104999
v -0.169334 -0.0492349 0.104999
v -0.172579 -0.0413995 0.104999
v -0.168829 0.00249839 0.108611
v -0.154167 0.00249839 0.104762
v -0.168829 0.00249839 0.104762
v -0.146835 -0.0101998 0.108611
v -0.146835 -0.0101998 0.104762
v -0.154167 -0.0228981 0.108611
v -0.154167 -0.0228981 0.104762
v -0.168829 -0.0228981 0.104762
v -0.168829 -0.0228981 0.108611
v -0.176161 -0.0101998 0.104762
v -0.176161 -0.0101998 0.108611
v -0.161498 0.000280537 0.108371
v -0.156258 -0.00112355 0.112999
v -0.156258 -0.00112355 0.108371
v -0.152422 -0.00495964 0.108371
v -0.151018 -0.0101998 0.112999
v -0.151018 -0.0101998 0.108371
v -0.152422 -0.01544 0.108371
v -0.156258 -0.0192761 0.112999
v -0.156258 -0.0192761 0.108371
v -0.161498 -0.0206802 0.108371
v -0.166738 -0.0192761 0.112999
v -0.166738 -0.0192761 0.108371
v -0.170574 -0.01544 0.108371
v -0.171978 -0.0101998 0.112999
v -0.171978 -0.0101998 0.108371
v -0.170574 -0.00495964 0.108371
v -0.170574 -0.01544 0.112999
v -0.174541 -0.0101998 0.112999
v -0.166738 -0.00112355 0.112999
v -0.166738 -0.00112355 0.108371
v -0.154976 0.00109589 0.112999
v -0.161498 0.000908501 0.123998
v -0.155944 -0.000579737 0.123998
v -0.172794 -0.0167215 0.112999
v -0.161498 -0.0206802 0.112999
v -0.16802 -0.0214956 0.112999
v -0.154976 -0.0214956 0.112999
v -0.161498 -0.0232431 0.112999
v -0.152422 -0.01544 0.112999
v -0.148455 -0.0101998 0.112999
v -0.150202 -0.0167215 0.112999
v -0.161498 0.00284338 0.112999
v -0.161498 0.000280537 0.112999
v -0.150202 -0.0036782 0.112999
v -0.170574 -0.00495964 0.112999
v -0.16802 0.00109589 0.112999
v -0.152422 -0.00495964 0.112999
v -0.172794 -0.0036782 0.112999
v -0.171118 -0.00464565 0.123998
v -0.161498 -0.0213082 0.123998
v -0.151878 -0.00464565 0.123998
v -0.171118 -0.015754 0.123998
v -0.151878 -0.015754 0.123998
v -0.155944 -0.01982 0.123998
v -0.172606 -0.0101998 0.123998
v -0.15039 -0.0101998 0.123998
v -0.167052 -0.01982 0.123998
v -0.167052 -0.000579737 0.123998
v 0.316996 -0.0599992 -0.077799
v 0.316996 -0.0799989 0.0559993
v 0.316996 -0.0599992 0.0559993
v 0.357919 -0.0799989 -0.076799
v 0.411994 -0.0799989 -0.0063163
v 0.357995 -0.0799989 0.0559992
v 0.411994 0.079999 0.0149998
v 0.411994 0.0599992 -0.00631636
v 0.411994 0.079999 -0.00631642
v 0.357995 0.079999 0.0559993
v 0.381995 0.079999 0.0559993
v 0.323891 0.0399995 -0.077799
v 0.357995 0.0399995 -0.107388
v 0.357919 0.0399995 -0.076799
v 0.316996 0.0599992 0.0559993
v 0.357995 0.0599992 0.0559993
v 0.399534 0.079999 -0.0528209
v 0.400856 0.0599992 -0.0478845
v 0.399534 0.0599992 -0.0528209
v 0.361591 -0.0599992 -0.0746834
v 0.357919 -0.0599992 -0.076799
v 0.411994 0.079999 0.0559993
v 0.381995 0.0599992 0.0559993
v 0.411994 0.0599992 0.0559993
v 0.363254 0.0814202 0.0559993
v 0.381995 0.0527111 0.086127
v 0.357995 0.0399982 0.0660154
v 0.381995 0.0399982 0.0660154
v 0.363254 0.0814202 0.086127
v 0.357995 0.0704991 0.086127
v 0.381995 0.0366595 0.0559993
v 0.381995 -0.0399982 0.0660154
v 0.381995 0.0704991 0.086127
v 0.357995 -0.0599992 0.0559993
v 0.357995 -0.0527111 0.086127
v 0.357995 -0.0399982 0.0660153
v 0.357995 0.0527111 0.086127
v 0.381995 -0.0527111 0.086127
v 0.357995 -0.0704991 0.086127
v 0.381995 -0.0704991 0.086127
v 0.376736 -0.0814202 0.0559992
v 0.363254 -0.0814202 0.086127
v 0.363254 -0.0814202 0.0559992
v 0.376736 0.0814202 0.086127
v 0.376736 -0.0814202 0.086127
v 0.381995 -0.0799989 0.0559992
v 0.376736 0.0814202 0.0559993
v 0.411994 -0.0599992 0.0559993
v 0.411994 -0.0799989 0.0559993
v 0.4067 -0.0366595 0.0559992
v 0.381995 -0.0599992 0.0559993
v 0.4067 0.0366595 0.0559993
v 0.381995 -0.0366595 0.0559992
v 0.399534 -0.0599992 -0.0528209
v 0.397239 -0.0366595 -0.0528209
v 0.357919 -0.0399994 -0.076799
v 0.357919 0.0599992 -0.076799
v 0.397239 0.0366595 -0.0528209
v 0.400856 -0.0799989 -0.0478845
v 0.399534 -0.0799989 -0.0528209
v 0.4067 -0.0366595 -0.00631636
v 0.411994 -0.0599992 -0.0063163
v 0.4067 0.0366595 -0.00631636
v 0.357995 -0.0366595 0.0559992
v 0.357995 0.0366595 0.0559993
v 0.316996 -0.0366595 0.0559993
v 0.316996 0.0366595 0.0559993
v 0.316996 -0.0799989 -0.077799
v 0.323891 -0.0799989 -0.077799
v 0.316996 -0.0366595 -0.077799
v 0.324578 0.0399995 -0.108388
v 0.323891 0.0599992 -0.077799
v 0.411994 0.0599992 0.0149998
v 0.316996 0.079999 -0.077799
v 0.316996 0.079999 0.0559993
v 0.316996 0.0366595 -0.077799
v 0.316996 0.0599992 -0.077799
v 0.411994 -0.0799989 0.0548903
v 0.433994 -0.0599992 0.0548903
v 0.411994 -0.0599992 0.0548903
v 0.411994 -0.0599992 0.0149999
v 0.411994 -0.0799989 0.0149999
v 0.411994 0.079999 0.0548903
v 0.433994 0.0599992 0.0149998
v 0.441974 0.079999 0.0548903
v 0.433994 0.0599992 0.0548903
v 0.441974 -0.0799989 0.0149999
v 0.441974 -0.0799989 0.0548903
v 0.441974 0.079999 0.0149997
v 0.411994 0.0599992 0.0548903
v 0.433994 -0.0599992 0.0149999
v 0.433093 0.0599992 -0.0158297
v 0.411041 0.0599992 -0.00987422
v 0.411041 0.079999 -0.00987422
v 0.400856 -0.0599992 -0.0478845
v 0.411041 -0.0799989 -0.00987417
v 0.400856 0.079999 -0.0478845
v 0.422745 0.0599992 -0.0544473
v 0.439984 0.0799989 -0.0176908
v 0.422745 -0.0599992 -0.0544473
v 0.439984 -0.0799989 -0.0176907
v 0.429639 -0.0799989 -0.0562961
v 0.433093 -0.0599992 -0.0158296
v 0.411041 -0.0599992 -0.00987417
v 0.372485 -0.0599992 -0.0942477
v 0.361591 -0.0799989 -0.0746834
v 0.410357 0.079999 -0.0807537
v 0.361591 0.079999 -0.0746834
v 0.395901 0.079999 -0.0549142
v 0.357919 0.079999 -0.076799
v 0.361591 0.0599992 -0.0746834
v 0.395901 -0.0799989 -0.0549142
v 0.372485 0.0599992 -0.0942477
v 0.406833 0.0599992 -0.074456
v 0.410357 -0.0799989 -0.0807538
v 0.375995 -0.0799989 -0.100553
v 0.395901 0.0599992 -0.0549142
v 0.406833 -0.0599992 -0.074456
v 0.395901 -0.0599992 -0.0549142
v 0.323891 -0.0399994 -0.077799
v 0.323891 0.079999 -0.077799
v 0.323891 -0.0599992 -0.077799
v 0.324578 0.079999 -0.108388
v 0.324578 -0.0799989 -0.108388
v 0.357995 -0.0399995 -0.107388
v 0.357995 -0.0799989 -0.107388
v 0.357995 0.079999 -0.107388
v -0.292998 0.0694948 0.0559993
v -0.303592 -0.0210242 0.103799
v -0.303592 0.0210241 0.0939988
v -0.303592 -0.0210242 0.0939988
v -0.251004 0.0279996 0.103799
v -0.234997 0.0279996 0.0939988
v -0.251004 0.0279996 0.0939988
v -0.234997 0.0279996 0.103799
v -0.234997 -0.0279996 0.0939988
v -0.250997 -0.0279996 0.103799
v -0.250997 -0.0279996 0.0939988
v -0.234997 -0.0279996 0.103799
v -0.303592 0.0210241 0.103799
v -0.309996 0.02 0.120798
v -0.299996 0.0215049 0.103799
v -0.309996 0.02 0.103799
v -0.299996 -0.0215049 0.103799
v -0.279198 -0.0242415 0.120798
v -0.299996 -0.0215049 0.120798
v -0.291997 0.00903225 0.120798
v -0.289996 0 0.103799
v -0.291997 0.00903225 0.103799
v -0.289996 0 0.120798
v -0.291997 -0.00903225 0.103799
v -0.275997 0.018994 0.103799
v -0.275997 0.018994 0.120798
v -0.309996 -0.02 0.120798
v -0.309996 -0.02 0.103799
v -0.319996 -0.0173205 0.103799
v -0.327316 -0.00999999 0.120798
v -0.327316 -0.00999999 0.103799
v -0.329996 0 0.103799
v -0.329996 0 0.120798
v -0.327316 0.00999999 0.103799
v -0.327316 0.00999993 0.120798
v -0.319996 0.0173205 0.120798
v -0.319996 0.0173205 0.103799
v -0.279198 0.0242415 0.120798
v -0.279198 0.0242415 0.103799
v -0.275997 -0.018994 0.103799
v -0.279198 -0.0242415 0.103799
v -0.299996 0.0215049 0.120798
v -0.291997 -0.00903231 0.120798
v -0.275997 -0.018994 0.120798
v -0.0400004 -0.10483 0.0185178
v -0.0400004 -0.0775183 0.00664228
v -0.0400004 -0.0846218 -0.00392514
v 0.0399995 -0.0576084 0.0203978
v -0.0400004 -0.0778162 0.0428408
v 0.0399995 -0.0778162 0.0428408
v 0.0399995 -0.0846218 -0.00392514
v -0.0400004 -0.075444 0.00433856
v 0.0399995 -0.075444 0.00433856
v 0.0399995 -0.0956518 0.0267815
v 0.0399995 -0.10483 0.0185178
v 0.0619995 -0.0956518 0.0267815
v 0.0399995 -0.0775183 0.00664228
v -0.0400004 -0.0576084 0.0203978
v -0.0620004 -0.0778162 0.0428408
v -0.0620004 -0.075444 0.0043385
v 0.0619995 -0.0576084 0.0203978
v 0.0619995 -0.0778162 0.0428408
v -0.0400004 -0.0956517 0.0267815
v -0.0620004 -0.0956517 0.0267815
v -0.0620004 -0.0576084 0.0203978
v 0.0619995 -0.075444 0.00433856
v -0.145498 -2.01166e-07 0.0839989
v -0.123263 0.00699693 0.0907376
v -0.177498 0.0569993 0.0939988
v 0.292996 -0.0694953 0.0559993
v 0.307996 0.12838 -0.053585
v -0.292998 -0.0694953 0.0559993
v -0.190886 -0.0569993 0.0604993
v -0.00300008 0.0549993 0.0604994
v 0.0991986 -0.0612992 0.0919988
v -0.141361 0.0549992 0.0919987
v 0.199522 -0.0612992 0.0919988
v 0.0991986 0.0498993 0.0919988
v 0.191197 0.0396787 0.0839989
v 0.100423 0.0172207 0.0919988
v 0.141198 -0.0612992 0.0919988
v 0.199522 -0.0419994 0.0839989
v 0.141198 0.0612992 0.0919988
v 0.149798 -0.0449889 0.0919988
v 0.141198 0.0549993 0.0919988
v -0.154167 0.00249839 0.108611
v 0.42964 0.079999 -0.0562961
v 0.375995 0.079999 -0.100553
v 0.324578 -0.0399994 -0.108388
v -0.319996 -0.0173205 0.120798
f 1 2 3
f 4 5 6
f 7 2 8
f 9 10 11
f 12 9 13
f 1 8 2
f 5 14 6
f 11 7 13
f 15 16 1
f 17 18 12
f 19 4 18
f 9 6 20
f 9 18 4
f 6 21 20
f 22 21 14
f 8 5 23
f 16 22 5
f 23 17 8
f 1 8 13
f 10 7 11
f 24 25 26
f 27 28 29
f 30 31 32
f 33 34 35
f 36 37 38
f 39 33 40
f 41 42 43
f 44 45 46
f 47 48 49
f 50 51 33
f 52 53 54
f 33 55 56
f 57 54 58
f 59 55 60
f 61 62 63
f 63 54 57
f 64 59 53
f 65 66 67
f 68 69 70
f 28 68 70
f 50 60 71
f 57 72 63
f 73 74 67
f 60 51 71
f 28 69 73
f 67 68 65
f 73 75 76
f 77 78 75
f 79 80 78
f 80 47 49
f 81 46 82
f 44 83 84
f 83 85 84
f 86 87 85
f 88 89 81
f 81 90 83
f 83 91 86
f 91 41 86
f 25 61 28
f 92 62 61
f 93 94 62
f 95 40 94
f 26 27 96
f 84 97 98
f 99 100 38
f 49 101 30
f 102 78 90
f 78 91 90
f 91 49 30
f 34 103 104
f 39 97 103
f 97 93 98
f 93 24 98
f 105 106 107
f 108 106 109
f 29 108 102
f 76 110 29
f 75 105 76
f 75 108 109
f 48 31 111
f 48 112 49
f 113 114 115
f 116 106 117
f 111 115 114
f 111 118 112
f 112 113 101
f 110 117 108
f 31 113 115
f 105 116 110
f 119 120 121
f 122 120 123
f 102 89 124
f 32 123 30
f 102 125 29
f 30 119 41
f 32 42 122
f 29 126 88
f 121 127 128
f 129 130 131
f 126 130 89
f 42 127 122
f 126 129 131
f 89 132 124
f 125 132 129
f 42 121 128
f 45 133 46
f 134 135 136
f 43 134 136
f 87 134 35
f 41 137 87
f 81 138 88
f 41 136 139
f 88 45 27
f 140 135 141
f 142 133 143
f 137 144 140
f 138 145 142
f 45 142 143
f 136 144 139
f 46 145 82
f 134 140 141
f 84 98 146
f 97 85 36
f 35 104 147
f 103 36 100
f 26 148 24
f 24 146 98
f 103 147 104
f 37 99 38
f 149 150 151
f 151 27 44
f 37 85 87
f 96 151 150
f 147 152 35
f 146 149 84
f 148 150 153
f 154 155 156
f 157 158 159
f 154 160 161
f 162 163 164
f 165 166 167
f 160 168 169
f 170 171 154
f 172 173 174
f 175 168 172
f 176 177 178
f 167 178 179
f 164 176 162
f 180 181 164
f 165 176 182
f 180 178 177
f 182 178 166
f 170 173 183
f 183 160 171
f 184 162 165
f 185 186 187
f 175 160 169
f 188 157 159
f 189 190 191
f 192 193 194
f 187 195 196
f 197 198 199
f 200 187 201
f 197 195 186
f 197 202 192
f 200 193 199
f 201 203 194
f 194 204 192
f 197 192 205
f 201 196 206
f 207 208 209
f 210 211 212
f 213 214 215
f 216 217 191
f 218 191 190
f 216 219 220
f 221 222 223
f 224 157 225
f 226 227 228
f 229 223 230
f 222 231 232
f 231 225 232
f 157 233 226
f 227 230 228
f 234 227 233
f 229 235 221
f 236 231 237
f 231 238 224
f 239 233 240
f 227 241 229
f 235 237 221
f 238 240 224
f 238 242 239
f 234 242 243
f 241 242 235
f 236 242 244
f 244 242 238
f 239 242 234
f 243 242 241
f 235 242 236
f 245 246 247
f 248 246 249
f 250 251 252
f 253 254 255
f 256 257 258
f 259 260 261
f 188 262 263
f 259 264 265
f 179 265 167
f 266 172 174
f 170 266 174
f 180 267 179
f 268 269 270
f 271 272 273
f 158 262 159
f 274 275 276
f 277 278 251
f 279 263 280
f 281 254 282
f 275 283 276
f 254 284 282
f 285 286 284
f 287 276 283
f 261 285 253
f 287 281 288
f 271 254 275
f 289 262 290
f 262 291 290
f 291 257 292
f 263 293 280
f 258 294 158
f 295 289 156
f 296 290 291
f 295 280 293
f 297 298 299
f 300 301 302
f 303 304 305
f 305 306 298
f 157 232 225
f 157 228 307
f 264 308 309
f 309 310 311
f 312 309 311
f 155 308 313
f 268 184 310
f 264 259 261
f 314 315 316
f 270 314 316
f 317 316 315
f 314 318 319
f 318 269 175
f 288 180 164
f 319 258 274
f 320 321 322
f 323 324 325
f 326 327 328
f 329 330 331
f 332 333 334
f 335 336 337
f 338 331 339
f 340 334 341
f 328 342 343
f 343 340 341
f 323 339 344
f 326 337 345
f 322 333 346
f 347 348 349
f 350 351 352
f 353 354 355
f 356 357 358
f 355 359 360
f 361 362 363
f 364 350 352
f 363 365 364
f 360 348 366
f 358 351 367
f 368 369 370
f 312 184 265
f 371 372 373
f 374 375 376
f 377 378 379
f 380 381 382
f 379 383 384
f 333 385 386
f 387 374 376
f 386 388 387
f 389 371 373
f 384 372 390
f 382 375 391
f 374 385 373
f 167 184 165
f 392 393 370
f 394 369 395
f 396 397 398
f 399 400 401
f 402 398 403
f 368 404 405
f 369 406 395
f 407 405 406
f 349 408 347
f 392 403 409
f 394 401 410
f 411 361 408
f 412 413 414
f 205 192 204
f 195 187 186
f 205 204 203
f 415 211 208
f 416 211 415
f 417 213 418
f 419 420 214
f 421 422 423
f 415 424 416
f 425 213 426
f 427 428 429
f 430 431 432
f 426 433 425
f 434 422 420
f 435 433 215
f 436 419 214
f 437 207 424
f 208 414 209
f 438 413 439
f 440 441 442
f 443 444 445
f 446 447 448
f 449 450 451
f 452 453 454
f 451 455 446
f 456 457 450
f 458 459 460
f 217 461 462
f 463 464 465
f 217 220 219
f 466 467 219
f 468 469 470
f 471 466 469
f 472 473 474
f 475 458 476
f 271 273 477
f 478 479 279
f 480 481 250
f 248 482 480
f 218 252 216
f 251 481 277
f 218 247 246
f 245 483 484
f 458 485 476
f 476 460 486
f 487 473 488
f 489 490 491
f 492 493 494
f 495 496 497
f 498 499 500
f 501 491 502
f 474 500 503
f 504 474 473
f 495 505 502
f 506 507 508
f 492 509 510
f 511 512 494
f 513 514 462
f 515 516 512
f 517 518 519
f 520 521 522
f 523 524 513
f 506 525 526
f 527 528 529
f 490 530 531
f 532 522 533
f 518 534 535
f 525 507 536
f 487 537 526
f 538 539 527
f 511 540 515
f 501 530 489
f 485 475 476
f 541 429 428
f 538 529 532
f 463 542 543
f 521 544 545
f 509 546 547
f 496 548 549
f 550 501 551
f 534 552 535
f 553 554 555
f 556 557 558
f 559 560 561
f 562 430 432
f 563 564 565
f 566 460 459
f 210 423 413
f 209 434 419
f 424 417 418
f 416 418 425
f 425 212 416
f 414 423 434
f 421 212 433
f 417 209 419
f 477 273 272
f 566 567 460
f 484 566 245
f 568 569 570
f 499 526 525
f 468 272 571
f 572 573 574
f 465 464 467
f 575 576 577
f 453 570 454
f 578 579 580
f 555 581 582
f 579 583 445
f 584 440 585
f 462 543 500
f 586 576 587
f 431 588 553
f 589 442 441
f 427 590 561
f 447 585 440
f 563 568 591
f 456 589 590
f 553 582 562
f 592 591 541
f 593 594 559
f 595 564 592
f 596 427 597
f 570 598 443
f 599 600 601
f 303 306 304
f 602 603 604
f 604 605 606
f 607 608 609
f 610 611 612
f 613 614 615
f 616 617 614
f 618 619 617
f 620 621 619
f 621 622 623
f 624 625 626
f 622 627 623
f 628 629 630
f 631 632 633
f 586 634 635
f 636 637 638
f 479 299 639
f 640 641 642
f 643 644 645
f 646 647 648
f 306 649 650
f 629 643 645
f 600 646 648
f 651 630 641
f 611 599 601
f 652 653 451
f 636 654 652
f 637 632 300
f 647 655 656
f 657 658 652
f 602 612 650
f 605 659 606
f 573 649 607
f 660 661 662
f 663 662 664
f 662 624 626
f 665 666 667
f 651 668 307
f 222 232 669
f 670 665 671
f 614 617 524
f 609 660 662
f 497 258 505
f 631 672 303
f 608 660 609
f 673 657 627
f 615 671 613
f 674 675 556
f 575 676 668
f 668 158 307
f 558 677 656
f 678 658 657
f 679 680 681
f 682 683 679
f 684 685 682
f 686 687 684
f 688 689 686
f 688 322 690
f 691 346 389
f 681 692 691
f 693 694 695
f 696 697 694
f 698 699 697
f 699 700 701
f 701 702 703
f 702 704 703
f 324 705 325
f 706 707 705
f 708 695 707
f 709 710 711
f 712 713 709
f 714 715 712
f 716 717 714
f 718 719 716
f 720 721 718
f 722 408 723
f 711 724 722
f 725 726 727
f 728 729 726
f 730 731 729
f 732 733 731
f 734 735 733
f 736 737 735
f 720 738 411
f 370 739 740
f 739 741 740
f 742 727 741
f 743 744 745
f 744 746 745
f 747 748 746
f 749 750 748
f 751 752 750
f 752 753 754
f 755 756 757
f 754 758 759
f 759 760 743
f 761 762 763
f 764 744 760
f 757 744 765
f 766 747 757
f 756 749 766
f 767 751 756
f 767 753 768
f 755 758 753
f 764 758 769
f 759 770 771
f 772 759 771
f 752 772 773
f 750 773 774
f 775 750 774
f 746 775 776
f 745 776 777
f 770 745 777
f 778 777 762
f 762 776 779
f 776 763 779
f 763 774 780
f 780 773 781
f 781 772 782
f 772 761 782
f 771 778 761
f 783 784 785
f 784 786 787
f 787 788 789
f 788 790 789
f 791 788 786
f 791 792 790
f 793 785 792
f 789 790 792
f 794 795 796
f 795 797 796
f 797 798 799
f 798 800 799
f 800 801 802
f 801 803 802
f 803 804 805
f 804 806 805
f 806 807 808
f 807 809 808
f 810 811 807
f 809 812 813
f 812 794 813
f 799 805 813
f 814 815 816
f 804 817 810
f 818 819 804
f 818 820 821
f 822 820 801
f 822 823 824
f 812 825 826
f 826 814 795
f 798 827 823
f 828 829 812
f 830 814 827
f 828 811 831
f 832 833 834
f 819 835 817
f 820 836 837
f 829 815 825
f 814 834 827
f 817 838 811
f 820 833 821
f 827 839 823
f 811 832 831
f 821 840 819
f 824 839 836
f 829 832 841
f 842 843 844
f 845 846 847
f 848 849 850
f 851 852 850
f 853 854 855
f 851 856 857
f 858 859 860
f 861 845 862
f 863 864 865
f 866 852 851
f 867 868 869
f 870 851 871
f 872 869 873
f 874 870 871
f 875 876 877
f 869 877 873
f 874 878 867
f 879 880 881
f 882 883 884
f 847 883 880
f 852 885 874
f 876 873 877
f 886 887 881
f 866 885 888
f 882 847 887
f 883 881 880
f 889 887 890
f 891 892 889
f 893 894 891
f 893 864 872
f 895 861 862
f 862 896 895
f 855 896 897
f 898 899 855
f 895 900 901
f 895 902 903
f 896 904 902
f 860 904 899
f 875 843 847
f 905 844 875
f 906 907 905
f 857 908 906
f 909 910 845
f 911 855 897
f 912 853 913
f 914 865 849
f 903 891 889
f 902 893 891
f 904 865 893
f 915 856 916
f 917 856 918
f 917 907 908
f 842 907 911
f 919 920 921
f 920 922 921
f 922 846 903
f 923 890 846
f 919 889 890
f 889 922 903
f 863 848 850
f 865 924 863
f 925 926 927
f 928 920 929
f 924 930 848
f 927 924 931
f 914 927 931
f 932 923 922
f 848 925 914
f 928 919 923
f 859 933 934
f 933 935 934
f 903 936 895
f 934 850 849
f 937 903 846
f 859 849 860
f 850 938 858
f 900 846 901
f 939 940 933
f 941 942 943
f 941 900 936
f 940 938 935
f 900 942 937
f 944 936 945
f 937 944 945
f 938 939 859
f 946 947 861
f 948 949 950
f 858 949 951
f 949 898 951
f 952 860 898
f 953 895 901
f 860 950 858
f 947 901 845
f 954 948 955
f 946 956 957
f 952 955 958
f 953 959 960
f 947 956 953
f 955 950 958
f 959 861 960
f 949 954 952
f 897 961 911
f 917 853 855
f 951 962 915
f 918 853 917
f 963 909 842
f 961 842 911
f 962 918 915
f 964 854 912
f 965 966 967
f 966 862 967
f 968 951 898
f 910 967 845
f 968 962 951
f 966 961 897
f 965 910 963
f 404 969 361
f 970 971 972
f 973 974 975
f 976 977 974
f 978 972 979
f 979 972 975
f 978 980 973
f 981 975 971
f 980 979 977
f 982 983 984
f 985 986 987
f 988 989 990
f 991 992 989
f 988 993 994
f 985 995 996
f 995 997 996
f 997 998 999
f 998 1000 999
f 1001 1002 1000
f 982 1003 991
f 1002 1004 1005
f 1005 982 984
f 989 997 1005
f 1006 993 1007
f 1008 986 1009
f 990 1007 993
f 992 1009 985
f 988 1006 1010
f 1011 986 1012
f 1010 1007 983
f 1011 1008 992
f 1013 1014 1015
f 1016 1017 1018
f 1019 1020 1021
f 1022 1013 1023
f 1024 1022 1025
f 1014 1021 1020
f 1026 1027 1017
f 1025 1022 1023
f 1028 1020 1014
f 1024 1029 1030
f 1029 1018 1030
f 1022 1017 1031
f 1022 1030 1018
f 1017 1032 1031
f 1033 1032 1027
f 1021 1026 1016
f 1026 1028 1033
f 1016 1034 1021
f 1014 1021 1025
f 1013 1019 1023
f 3 10 1
f 10 20 1
f 4 23 5
f 7 3 2
f 9 20 10
f 13 8 17
f 17 12 13
f 1 13 8
f 5 22 14
f 7 8 13
f 9 11 13
f 20 21 1
f 21 15 1
f 17 19 18
f 19 23 4
f 9 4 6
f 9 12 18
f 6 14 21
f 22 15 21
f 8 16 5
f 16 15 22
f 23 19 17
f 1 16 8
f 10 3 7
f 24 92 25
f 27 26 25
f 25 28 27
f 28 73 29
f 27 29 88
f 76 29 73
f 30 101 31
f 104 35 34
f 35 43 32
f 33 35 32
f 32 48 50
f 33 32 50
f 36 85 37
f 39 34 33
f 41 119 42
f 44 27 45
f 47 50 48
f 50 71 51
f 52 64 53
f 33 51 55
f 54 53 47
f 53 59 47
f 59 50 47
f 58 79 57
f 79 77 57
f 47 58 54
f 77 73 67
f 57 77 66
f 67 66 77
f 59 56 55
f 40 33 56
f 56 64 40
f 64 52 40
f 63 72 61
f 72 65 61
f 65 28 61
f 40 52 94
f 52 63 62
f 62 94 52
f 63 52 54
f 64 56 59
f 65 72 66
f 68 74 69
f 28 65 68
f 50 59 60
f 57 66 72
f 73 69 74
f 60 55 51
f 28 70 69
f 67 74 68
f 73 77 75
f 77 79 78
f 79 58 80
f 80 58 47
f 81 44 46
f 44 81 83
f 83 86 85
f 86 41 87
f 88 126 89
f 81 102 90
f 83 90 91
f 91 30 41
f 25 92 61
f 92 93 62
f 93 95 94
f 95 39 40
f 84 85 97
f 147 100 99
f 100 36 38
f 49 112 101
f 102 75 78
f 78 80 91
f 91 80 49
f 34 39 103
f 39 95 97
f 97 95 93
f 93 92 24
f 105 109 106
f 108 117 106
f 29 110 108
f 76 105 110
f 75 109 105
f 75 102 108
f 48 32 31
f 48 111 112
f 113 118 114
f 116 107 106
f 111 31 115
f 111 114 118
f 112 118 113
f 110 116 117
f 31 101 113
f 105 107 116
f 119 123 120
f 122 127 120
f 102 81 89
f 32 122 123
f 102 124 125
f 30 123 119
f 32 43 42
f 29 125 126
f 121 120 127
f 129 132 130
f 126 131 130
f 42 128 127
f 126 125 129
f 89 130 132
f 125 124 132
f 42 119 121
f 45 143 133
f 134 141 135
f 43 35 134
f 87 137 134
f 41 139 137
f 81 82 138
f 41 43 136
f 88 138 45
f 140 144 135
f 142 145 133
f 137 139 144
f 138 82 145
f 45 138 142
f 136 135 144
f 46 133 145
f 134 137 140
f 103 97 36
f 26 96 148
f 24 148 146
f 103 100 147
f 37 152 99
f 149 153 150
f 44 84 149
f 149 151 44
f 87 35 152
f 152 37 87
f 96 27 151
f 147 99 152
f 146 153 149
f 153 146 148
f 148 96 150
f 156 170 154
f 154 310 155
f 157 307 158
f 154 171 160
f 162 268 163
f 165 182 166
f 160 173 168
f 170 183 171
f 172 168 173
f 175 169 168
f 176 181 177
f 167 166 178
f 164 181 176
f 180 177 181
f 165 162 176
f 180 179 178
f 182 176 178
f 170 174 173
f 183 173 160
f 184 268 162
f 185 198 186
f 175 161 160
f 188 674 157
f 191 1035 189
f 1035 457 189
f 189 483 190
f 192 202 193
f 197 186 198
f 200 185 187
f 197 205 195
f 197 199 202
f 193 202 199
f 199 198 200
f 198 185 200
f 201 206 203
f 194 203 204
f 201 187 196
f 207 1036 208
f 210 438 211
f 213 436 214
f 214 420 215
f 420 422 215
f 422 435 215
f 215 426 213
f 216 220 217
f 218 216 191
f 216 252 219
f 221 237 222
f 224 240 157
f 226 233 227
f 229 221 223
f 222 237 231
f 231 224 225
f 157 240 233
f 227 229 230
f 234 243 227
f 229 241 235
f 236 244 231
f 231 244 238
f 239 234 233
f 227 243 241
f 235 236 237
f 238 239 240
f 245 249 246
f 248 1037 246
f 251 278 477
f 477 252 251
f 252 1037 248
f 480 252 248
f 480 250 252
f 253 285 254
f 256 292 257
f 259 286 260
f 188 159 262
f 265 267 282
f 284 286 259
f 265 282 284
f 264 312 265
f 284 259 265
f 179 267 265
f 266 296 172
f 170 156 266
f 180 288 267
f 270 163 268
f 268 161 269
f 161 175 269
f 271 571 272
f 158 294 262
f 274 271 275
f 277 253 278
f 279 188 263
f 281 275 254
f 275 281 283
f 254 285 284
f 285 260 286
f 287 274 276
f 261 260 285
f 288 317 315
f 315 287 288
f 287 283 281
f 281 282 288
f 282 267 288
f 271 255 254
f 289 263 262
f 262 294 291
f 291 294 257
f 263 289 293
f 258 257 294
f 155 313 156
f 313 295 156
f 295 293 289
f 289 290 156
f 290 266 156
f 292 256 291
f 256 319 296
f 319 318 296
f 296 266 290
f 256 296 291
f 295 279 280
f 478 301 297
f 297 305 298
f 299 478 297
f 300 297 301
f 305 297 303
f 297 300 303
f 300 631 303
f 305 304 306
f 157 674 232
f 157 226 228
f 264 313 308
f 309 308 310
f 312 264 309
f 155 310 308
f 310 154 161
f 161 268 310
f 295 313 279
f 313 264 261
f 279 313 261
f 314 319 315
f 270 269 314
f 317 270 316
f 314 269 318
f 172 296 175
f 296 318 175
f 164 163 317
f 163 270 317
f 317 288 164
f 274 287 315
f 319 256 258
f 274 315 319
f 320 704 321
f 323 344 324
f 326 345 327
f 329 336 330
f 332 1038 333
f 335 330 336
f 338 329 331
f 340 332 334
f 328 327 342
f 343 342 340
f 323 338 339
f 326 335 337
f 321 702 700
f 700 1039 698
f 698 696 700
f 696 693 708
f 700 696 708
f 708 706 321
f 324 344 326
f 344 339 331
f 708 321 700
f 706 324 341
f 321 706 334
f 344 331 326
f 334 706 341
f 689 690 322
f 322 321 334
f 331 330 326
f 330 335 326
f 326 328 324
f 328 343 341
f 328 341 324
f 689 322 692
f 685 687 689
f 680 683 692
f 683 685 689
f 346 692 322
f 689 692 683
f 384 390 379
f 390 371 375
f 379 390 375
f 371 346 386
f 386 346 333
f 381 377 375
f 377 379 375
f 376 375 371
f 386 387 376
f 386 376 371
f 322 334 333
f 347 366 348
f 350 367 351
f 353 356 354
f 356 353 357
f 355 354 359
f 361 969 362
f 364 365 350
f 363 362 365
f 360 359 348
f 358 357 351
f 367 350 349
f 350 365 362
f 350 362 349
f 356 358 367
f 359 354 348
f 354 356 367
f 348 354 367
f 349 348 367
f 722 723 720
f 723 349 362
f 720 723 969
f 709 711 722
f 714 712 716
f 712 709 716
f 718 716 720
f 720 716 722
f 722 716 709
f 969 723 362
f 737 720 969
f 733 735 737
f 729 731 733
f 727 726 741
f 726 729 733
f 740 741 737
f 733 741 726
f 402 392 396
f 392 370 410
f 396 392 410
f 370 740 368
f 741 733 737
f 737 969 1040
f 368 740 1040
f 401 400 410
f 400 396 410
f 369 410 370
f 368 407 369
f 737 1040 740
f 311 184 312
f 184 167 265
f 371 390 372
f 374 391 375
f 377 380 378
f 380 377 381
f 379 378 383
f 333 1038 385
f 387 388 374
f 386 385 388
f 389 346 371
f 384 383 372
f 382 381 375
f 327 345 325
f 345 337 336
f 325 345 323
f 336 329 345
f 329 338 323
f 325 705 340
f 705 707 704
f 332 705 704
f 329 323 345
f 340 342 327
f 340 327 325
f 705 332 340
f 707 695 694
f 707 694 701
f 694 697 701
f 697 699 701
f 701 703 704
f 701 704 707
f 1038 332 320
f 332 704 320
f 320 688 686
f 374 388 385
f 385 1038 389
f 1038 320 389
f 389 320 691
f 320 686 691
f 686 684 682
f 691 686 679
f 682 679 686
f 679 681 691
f 389 373 385
f 373 372 391
f 372 383 378
f 391 378 380
f 372 378 391
f 380 382 391
f 391 374 373
f 392 409 393
f 394 410 369
f 396 400 397
f 399 397 400
f 402 396 398
f 368 1040 404
f 369 407 406
f 407 368 405
f 349 723 408
f 392 402 403
f 394 399 401
f 738 736 734
f 734 732 730
f 730 728 734
f 728 725 742
f 734 728 742
f 742 739 738
f 393 409 394
f 409 403 398
f 742 738 734
f 739 393 405
f 738 739 404
f 409 398 394
f 404 739 405
f 719 721 411
f 411 738 404
f 398 397 394
f 397 399 394
f 394 395 393
f 395 406 405
f 395 405 393
f 719 411 724
f 715 717 719
f 710 713 724
f 713 715 719
f 408 724 411
f 719 724 713
f 360 366 355
f 366 347 351
f 355 366 351
f 347 408 363
f 363 408 361
f 357 353 351
f 353 355 351
f 352 351 347
f 363 364 352
f 363 352 347
f 411 404 361
f 412 439 413
f 203 206 195
f 206 196 195
f 195 205 203
f 211 438 208
f 438 439 208
f 439 412 208
f 208 1036 437
f 437 415 208
f 416 212 211
f 417 436 213
f 419 434 420
f 421 435 422
f 415 437 424
f 425 418 213
f 427 595 428
f 430 579 431
f 426 215 433
f 434 423 422
f 435 421 433
f 436 417 419
f 437 1036 207
f 208 412 414
f 438 210 413
f 440 593 441
f 443 598 444
f 446 455 447
f 449 456 450
f 452 591 453
f 451 653 455
f 446 449 451
f 456 189 457
f 458 581 459
f 514 1035 462
f 1035 191 462
f 191 217 462
f 463 461 464
f 219 467 461
f 467 464 461
f 461 217 219
f 466 1041 467
f 468 471 469
f 471 1041 466
f 474 503 543
f 543 542 474
f 542 472 474
f 475 581 458
f 477 278 253
f 253 255 477
f 255 271 477
f 245 566 459
f 245 459 554
f 481 482 249
f 249 245 261
f 245 554 261
f 588 578 580
f 481 249 261
f 588 580 444
f 554 588 261
f 588 444 261
f 261 444 598
f 598 569 565
f 569 1042 565
f 261 565 564
f 564 596 597
f 565 261 598
f 261 564 279
f 564 597 560
f 564 560 279
f 594 584 585
f 560 594 279
f 594 585 447
f 455 653 654
f 594 447 279
f 455 654 636
f 447 455 279
f 455 636 279
f 638 302 301
f 638 301 478
f 479 677 557
f 636 638 279
f 638 478 279
f 253 277 261
f 277 481 261
f 675 188 279
f 557 675 279
f 479 557 279
f 480 482 481
f 248 249 482
f 218 1037 252
f 251 250 481
f 218 190 247
f 245 247 483
f 458 567 485
f 476 458 460
f 487 499 473
f 499 504 473
f 473 472 488
f 489 530 490
f 492 510 493
f 495 516 496
f 516 540 496
f 496 549 497
f 498 504 499
f 501 489 491
f 502 505 501
f 505 551 501
f 474 498 500
f 504 498 474
f 495 497 505
f 506 521 507
f 492 528 509
f 528 539 509
f 509 547 510
f 511 515 512
f 494 493 511
f 493 548 511
f 513 524 514
f 515 540 516
f 517 667 518
f 520 536 521
f 536 507 521
f 521 545 522
f 523 518 524
f 506 508 525
f 526 537 506
f 537 544 506
f 527 539 528
f 550 552 531
f 552 1043 531
f 1043 490 531
f 532 520 522
f 535 519 518
f 518 523 534
f 525 508 507
f 487 488 537
f 538 509 539
f 511 496 540
f 501 531 530
f 485 582 475
f 541 590 429
f 538 527 529
f 532 533 538
f 533 546 538
f 463 465 542
f 521 506 544
f 509 538 546
f 496 511 548
f 550 531 501
f 534 1043 552
f 553 588 554
f 556 675 557
f 559 594 560
f 562 583 430
f 563 592 564
f 210 421 423
f 209 414 434
f 424 207 417
f 416 424 418
f 425 433 212
f 414 413 423
f 421 210 212
f 417 207 209
f 272 470 252
f 470 469 252
f 469 466 252
f 466 219 252
f 252 477 272
f 566 1044 567
f 484 1044 566
f 568 1042 569
f 499 487 526
f 468 470 272
f 663 635 574
f 635 634 574
f 634 572 574
f 575 587 576
f 453 568 570
f 578 431 579
f 555 554 581
f 554 459 581
f 581 475 582
f 579 430 583
f 445 444 579
f 444 580 579
f 584 593 440
f 543 503 500
f 536 520 532
f 536 532 529
f 528 492 494
f 500 536 462
f 536 529 462
f 462 529 513
f 528 494 512
f 529 528 513
f 528 512 513
f 512 516 513
f 516 495 502
f 516 502 491
f 516 491 513
f 490 1043 523
f 1043 534 523
f 491 490 513
f 462 461 543
f 461 463 543
f 490 523 513
f 640 642 587
f 642 1045 587
f 1045 586 587
f 431 578 588
f 553 562 431
f 562 432 431
f 589 1046 442
f 427 429 590
f 561 560 427
f 560 597 427
f 442 1046 440
f 1046 448 440
f 448 447 440
f 563 565 568
f 565 1042 568
f 568 453 591
f 449 446 448
f 449 448 1046
f 484 483 1044
f 483 189 1044
f 485 567 1044
f 456 449 1046
f 589 559 561
f 456 1046 589
f 485 1044 189
f 583 582 189
f 582 485 189
f 583 189 452
f 189 456 452
f 589 561 590
f 443 445 583
f 590 541 456
f 541 452 456
f 452 443 583
f 553 555 582
f 592 563 591
f 593 584 594
f 559 589 593
f 589 441 593
f 595 596 564
f 592 541 595
f 541 428 595
f 596 595 427
f 452 454 570
f 570 569 598
f 443 452 570
f 599 669 600
f 303 672 306
f 602 650 603
f 604 603 605
f 607 649 608
f 610 1047 611
f 613 616 614
f 616 618 617
f 618 620 619
f 620 1048 621
f 621 1048 622
f 624 1049 625
f 622 673 627
f 628 1050 629
f 631 300 632
f 586 1045 634
f 636 1051 637
f 479 478 299
f 640 651 641
f 643 659 644
f 646 655 647
f 1049 624 665
f 624 661 665
f 1052 608 613
f 608 649 618
f 661 1052 665
f 613 671 665
f 613 665 1052
f 618 616 613
f 1048 620 673
f 620 618 673
f 673 622 1048
f 1053 678 673
f 637 1051 1053
f 633 632 1053
f 632 637 1053
f 633 673 672
f 1053 673 633
f 618 613 608
f 673 618 649
f 306 672 673
f 673 649 306
f 572 634 1045
f 639 299 298
f 600 648 647
f 647 639 298
f 572 1045 642
f 642 641 630
f 642 630 629
f 649 572 645
f 572 642 645
f 647 298 611
f 298 306 611
f 601 600 647
f 611 601 647
f 642 629 645
f 644 605 649
f 605 603 649
f 603 650 649
f 649 645 644
f 650 612 306
f 612 611 306
f 629 1050 643
f 600 669 646
f 651 628 630
f 611 1047 599
f 652 654 653
f 658 1053 652
f 1053 1051 652
f 1051 636 652
f 302 638 300
f 638 637 300
f 677 479 656
f 479 639 656
f 639 647 656
f 450 457 1035
f 1035 619 450
f 619 621 450
f 623 627 451
f 627 657 451
f 621 623 450
f 652 451 657
f 451 450 623
f 602 610 612
f 605 644 659
f 573 572 649
f 660 1052 661
f 663 574 662
f 626 664 662
f 662 661 624
f 517 625 667
f 625 1049 667
f 1049 665 667
f 230 223 1050
f 223 604 606
f 606 659 643
f 223 606 1050
f 307 228 651
f 228 230 628
f 587 575 640
f 575 668 651
f 640 575 651
f 228 628 651
f 628 230 1050
f 606 643 1050
f 558 656 655
f 558 655 646
f 232 674 646
f 674 556 646
f 232 646 669
f 556 558 646
f 669 599 222
f 599 1047 602
f 604 223 602
f 223 222 599
f 602 223 599
f 1047 610 602
f 670 666 665
f 619 1035 524
f 1035 514 524
f 524 518 614
f 518 667 670
f 617 619 524
f 518 670 615
f 667 666 670
f 615 614 518
f 662 574 609
f 574 573 609
f 573 607 609
f 468 571 274
f 571 271 274
f 258 158 676
f 577 576 586
f 258 676 577
f 1041 471 468
f 465 467 488
f 467 1041 274
f 488 467 274
f 472 542 465
f 488 472 465
f 1041 468 274
f 545 544 537
f 522 545 537
f 537 488 274
f 258 577 586
f 635 663 664
f 258 586 635
f 537 274 522
f 274 258 493
f 522 274 533
f 533 274 510
f 635 664 626
f 625 517 519
f 258 635 626
f 625 519 535
f 258 626 625
f 510 274 493
f 547 546 533
f 510 547 533
f 258 625 535
f 552 550 505
f 550 551 505
f 258 535 552
f 549 548 497
f 548 493 497
f 493 258 497
f 258 552 505
f 631 633 672
f 608 1052 660
f 673 678 657
f 615 670 671
f 674 188 675
f 575 577 676
f 668 676 158
f 558 557 677
f 678 1053 658
f 679 683 680
f 682 685 683
f 684 687 685
f 686 689 687
f 688 690 689
f 688 320 322
f 691 692 346
f 681 680 692
f 693 696 694
f 696 698 697
f 698 1039 699
f 699 1039 700
f 701 700 702
f 702 321 704
f 324 706 705
f 706 708 707
f 708 693 695
f 709 713 710
f 712 715 713
f 714 717 715
f 716 719 717
f 718 721 719
f 720 411 721
f 722 724 408
f 711 710 724
f 725 728 726
f 728 730 729
f 730 732 731
f 732 734 733
f 734 736 735
f 736 738 737
f 720 737 738
f 370 393 739
f 739 742 741
f 742 725 727
f 743 760 744
f 744 747 746
f 747 749 748
f 749 751 750
f 751 768 752
f 752 768 753
f 757 765 764
f 764 769 757
f 769 755 757
f 755 767 756
f 756 766 757
f 754 753 758
f 759 758 760
f 761 778 762
f 762 779 763
f 763 780 761
f 780 781 761
f 781 782 761
f 764 765 744
f 757 747 744
f 766 749 747
f 756 751 749
f 767 768 751
f 767 755 753
f 755 769 758
f 764 760 758
f 759 743 770
f 772 754 759
f 752 754 772
f 750 752 773
f 775 748 750
f 746 748 775
f 745 746 776
f 770 743 745
f 778 770 777
f 762 777 776
f 776 775 763
f 763 775 774
f 780 774 773
f 781 773 772
f 772 771 761
f 771 770 778
f 783 1054 784
f 784 1054 786
f 787 786 788
f 788 791 790
f 786 1054 791
f 1054 783 791
f 783 793 791
f 791 793 792
f 793 783 785
f 792 785 789
f 785 784 789
f 784 787 789
f 794 826 795
f 795 830 797
f 797 830 798
f 798 822 800
f 800 822 801
f 801 818 803
f 803 818 804
f 804 810 806
f 806 810 807
f 807 828 809
f 810 817 811
f 809 828 812
f 812 826 794
f 813 794 799
f 794 796 799
f 796 797 799
f 799 800 802
f 802 803 805
f 805 806 808
f 808 809 813
f 799 802 805
f 805 808 813
f 814 825 815
f 804 819 817
f 818 821 819
f 818 801 820
f 822 824 820
f 822 798 823
f 812 829 825
f 826 825 814
f 798 830 827
f 828 831 829
f 830 795 814
f 828 807 811
f 834 816 815
f 815 841 834
f 841 832 834
f 832 838 833
f 838 835 833
f 835 840 833
f 833 837 834
f 837 836 834
f 836 839 834
f 819 840 835
f 820 824 836
f 829 841 815
f 814 816 834
f 817 835 838
f 820 837 833
f 827 834 839
f 811 838 832
f 821 833 840
f 824 823 839
f 829 831 832
f 842 909 843
f 843 909 845
f 845 901 846
f 846 890 887
f 847 843 845
f 846 887 847
f 848 914 849
f 858 951 850
f 951 915 916
f 850 951 851
f 916 851 951
f 852 863 850
f 853 912 854
f 851 916 856
f 858 938 859
f 861 947 845
f 863 852 864
f 866 888 852
f 867 878 868
f 870 866 851
f 873 879 892
f 879 881 892
f 881 887 892
f 892 894 873
f 894 872 873
f 872 864 869
f 864 852 874
f 869 864 867
f 874 867 864
f 874 885 870
f 871 851 857
f 857 906 868
f 906 905 868
f 875 847 880
f 905 875 877
f 878 871 857
f 868 878 857
f 875 880 876
f 877 868 905
f 869 868 877
f 874 871 878
f 879 876 880
f 882 886 883
f 847 884 883
f 852 888 885
f 876 879 873
f 886 882 887
f 866 870 885
f 882 884 847
f 883 886 881
f 889 892 887
f 891 894 892
f 893 872 894
f 893 865 864
f 895 960 861
f 862 897 896
f 855 899 896
f 898 860 899
f 895 936 900
f 895 896 902
f 896 899 904
f 860 849 904
f 875 844 843
f 905 907 844
f 906 908 907
f 857 856 908
f 911 917 855
f 913 962 964
f 964 912 913
f 914 931 865
f 903 902 891
f 902 904 893
f 904 849 865
f 915 918 856
f 917 908 856
f 917 911 907
f 842 844 907
f 919 929 920
f 920 932 922
f 922 923 846
f 923 919 890
f 919 921 889
f 889 921 922
f 863 924 848
f 865 931 924
f 925 930 926
f 928 932 920
f 924 926 930
f 927 926 924
f 914 925 927
f 932 928 923
f 848 930 925
f 928 929 919
f 859 939 933
f 933 940 935
f 903 945 936
f 934 935 850
f 937 945 903
f 859 934 849
f 850 935 938
f 900 937 846
f 939 1055 940
f 941 944 942
f 941 943 900
f 940 1055 938
f 900 943 942
f 944 941 936
f 937 942 944
f 938 1055 939
f 946 957 947
f 948 1056 949
f 858 950 949
f 949 952 898
f 952 958 860
f 953 960 895
f 860 958 950
f 947 953 901
f 954 1056 948
f 946 959 956
f 952 954 955
f 953 956 959
f 947 957 956
f 955 948 950
f 959 946 861
f 949 1056 954
f 918 913 853
f 963 910 909
f 961 963 842
f 962 913 918
f 964 968 854
f 965 1057 966
f 897 862 966
f 862 845 967
f 898 855 854
f 854 968 898
f 910 965 967
f 968 964 962
f 966 1057 961
f 963 961 1057
f 1057 965 963
f 404 1040 969
f 970 981 971
f 973 976 974
f 976 980 977
f 978 970 972
f 972 971 975
f 975 974 977
f 977 979 975
f 980 976 973
f 973 981 970
f 970 978 973
f 981 973 975
f 980 978 979
f 982 1010 983
f 985 1009 986
f 988 991 989
f 991 1011 992
f 988 990 993
f 985 987 995
f 995 1058 997
f 997 1058 998
f 998 1001 1000
f 1001 1003 1002
f 988 1010 982
f 982 1004 1003
f 1003 1001 998
f 998 1058 1003
f 1058 995 1003
f 995 987 1011
f 1011 991 995
f 991 988 982
f 995 991 1003
f 1002 1003 1004
f 1005 1004 982
f 1005 984 989
f 984 983 990
f 989 984 990
f 989 992 996
f 992 985 996
f 996 997 989
f 997 999 1005
f 999 1000 1005
f 1000 1002 1005
f 1006 994 993
f 1008 1012 986
f 990 983 1007
f 992 1008 1009
f 988 994 1006
f 1011 987 986
f 1010 1006 1007
f 1011 1012 1008
f 1031 1014 1013
f 1014 1020 1015
f 1016 1026 1017
f 1019 1015 1020
f 1022 1031 1013
f 1025 1021 1034
f 1034 1024 1025
f 1014 1025 1021
f 1026 1033 1027
f 1019 1021 1025
f 1019 1025 1023
f 1031 1032 1014
f 1032 1028 1014
f 1024 1034 1029
f 1029 1016 1018
f 1022 1018 1017
f 1022 1024 1030
f 1017 1027 1032
f 1033 1028 1032
f 1021 1020 1026
f 1026 1020 1028
f 1016 1029 1034
f 1014 1020 1021
f 1013 1015 1019
