v 0.14253 0.0377766 0.117
v 0.1499 0.0370507 0.0939999
v 0.14253 0.0377766 0.0939999
v 0.1499 0.0370507 0.117
v 0.156987 0.034901 0.0939999
v 0.156987 0.034901 0.117
v 0.163518 0.0314101 0.0939999
v 0.163518 0.0314101 0.117
v 0.169242 0.0267121 0.0939999
v 0.169242 0.0267121 0.117
v 0.17303 0.0209875 0.0939999
v 0.17303 0.0209875 0.117
v 0.17303 0.0144565 0.0939999
v 0.17303 0.0144565 0.117
v 0.17303 0.00736982 0.0939999
v 0.17303 0.00736982 0.117
v 0.17303 0 0.0939999
v 0.17303 0 0.117
v 0.17303 -0.00736982 0.0939999
v 0.17303 -0.00736982 0.117
v 0.17303 -0.0144565 0.0939999
v 0.17303 -0.0144565 0.117
v 0.17303 -0.0209876 0.0939999
v 0.17303 -0.0209876 0.117
v 0.169242 -0.0267121 0.0939999
v 0.169242 -0.0267121 0.117
v 0.163518 -0.0314101 0.0939999
v 0.163518 -0.0314101 0.117
v 0.156987 -0.034901 0.0939999
v 0.156987 -0.034901 0.117
v 0.1499 -0.0370507 0.0939999
v 0.1499 -0.0370507 0.117
v 0.14253 -0.0377766 0.0939999
v 0.14253 -0.0377766 0.117
v 0.13516 -0.0370507 0.0939999
v 0.13516 -0.0370507 0.117
v 0.128074 -0.034901 0.0939999
v 0.128074 -0.034901 0.117
v 0.121542 -0.0314101 0.0939999
v 0.121542 -0.0314101 0.117
v 0.11581 -0.0267187 0.0939999
v 0.11581 -0.0267187 0.117
v 0.112171 -0.0204163 0.0939999
v 0.112171 -0.0204163 0.117
v 0.108471 -0.0140066 0.0939999
v 0.108471 -0.0140066 0.117
v 0.105652 -0.00912458 0.0939999
v 0.105652 -0.00912458 0.117
v 0.104753 0 0.0939999
v 0.104753 0 0.117
v 0.105479 0.00736987 0.0939999
v 0.105479 0.00736987 0.117
v 0.107629 0.0144565 0.0939999
v 0.107629 0.0144565 0.117
v 0.11112 0.0209876 0.0939999
v 0.11112 0.0209876 0.117
v 0.115818 0.0267121 0.0939999
v 0.115818 0.0267121 0.117
v 0.121543 0.0314101 0.0939999
v 0.121543 0.0314101 0.117
v 0.128074 0.034901 0.0939999
v 0.128074 0.034901 0.117
v 0.13516 0.0370507 0.0939999
v 0.13516 0.0370507 0.117
v 0.179135 0.0272829 0.0939998
v 0.18071 0.0361411 0.0939998
v 0.0755309 0 0.0939998
v 0.0778853 -0.00349992 0.0939998
v 0.0970042 -0.00349992 0.0939999
v 0.18071 -0.0361412 0.0939998
v 0.200029 -0.0613992 0.0939998
v 0.183823 -0.0184246 0.0939998
v 0.0970049 0.00349992 0.0939999
v 0.187665 0 0.0939998
v 0.183823 0.0184246 0.0939998
v 0.101443 0.0186356 0.0939999
v 0.101443 -0.0186356 0.0939999
v 0.109977 -0.0340523 0.0939999
v 0.200029 0.0613992 0.0939998
v 0.143136 0.0613992 0.0939999
v 0.100031 0.0613992 0.0919999
v 0.130954 0.0613992 0.0939999
v 0.200029 0.0553884 0.0939998
v 0.200029 0.0613992 0.0919999
v 0.200029 0.0553884 0.0919999
v 0.179135 0.0272829 0.0919999
v 0.15538 0.0613992 0.0939999
v 0.183823 0.0184246 0.0919999
v 0.187665 0 0.0919999
v 0.179135 -0.0272829 0.0919999
v 0.179135 -0.0272829 0.0939998
v 0.0778853 -0.00349992 0.0919999
v 0.200029 -0.0553885 0.0939998
v 0.18071 -0.0361412 0.0919999
v 0.0778853 0.00349992 0.0939998
v 0.0755309 0 0.0919999
v 0.117833 0.0613992 0.0939998
v 0.184481 0.0613992 0.0939998
v 0.10243 0.0613992 0.0939998
v 0.168698 0.0613992 0.0939998
v 0.100031 0.0613992 0.0939998
v 0.15538 -0.0613992 0.0939999
v 0.168698 -0.0613992 0.0939998
v 0.100031 -0.0613992 0.0939998
v 0.102429 -0.0613992 0.0939998
v 0.143136 -0.0613992 0.0939999
v 0.130954 -0.0613992 0.0939999
v 0.184481 -0.0613992 0.0939998
v 0.117833 -0.0613992 0.0939998
v 0.200029 -0.0553885 0.0919999
v 0.200029 -0.0613992 0.0919999
v 0.100031 -0.0555507 0.0919999
v 0.100031 -0.0613992 0.0919999
v 0.183823 -0.0184246 0.0919999
v 0.18071 0.0361411 0.0919999
v 0.100031 0.0555507 0.0939998
v 0.109977 0.0340524 0.0939999
v 0.0970049 0.00349992 0.0919999
v 0.101443 0.0186356 0.0919999
v 0.101443 -0.0186356 0.0919999
v 0.109977 -0.0340523 0.0919999
v 0.0970042 -0.00349992 0.0919999
v 0.109977 0.0340524 0.0919999
v 0.100031 0.0555507 0.0919999
v 0.100031 -0.0555507 0.0939998
v 0.0778853 0.00349992 0.0919999
f 1 2 3
f 4 5 2
f 6 7 5
f 8 9 7
f 10 11 9
f 12 13 11
f 14 15 13
f 16 17 15
f 18 19 17
f 20 21 19
f 22 23 21
f 24 25 23
f 26 27 25
f 28 29 27
f 30 31 29
f 32 33 31
f 34 35 33
f 36 37 35
f 38 39 37
f 40 41 39
f 42 43 41
f 44 45 43
f 46 47 45
f 48 49 47
f 50 51 49
f 52 53 51
f 54 55 53
f 56 57 55
f 58 59 57
f 60 61 59
f 62 63 61
f 64 3 63
f 11 65 66
f 67 68 69
f 70 25 71
f 21 72 19
f 49 73 67
f 15 74 75
f 51 76 73
f 43 77 78
f 19 74 17
f 55 76 53
f 47 77 45
f 66 79 9
f 36 22 44
f 80 81 82
f 83 84 79
f 66 85 83
f 63 80 82
f 75 86 65
f 80 2 87
f 74 88 75
f 72 89 74
f 70 90 91
f 67 92 68
f 93 94 70
f 95 96 67
f 61 82 97
f 98 9 79
f 59 97 99
f 100 7 98
f 59 101 57
f 87 5 100
f 29 102 103
f 39 104 105
f 31 106 102
f 41 43 78
f 106 35 107
f 25 108 71
f 107 37 109
f 27 103 108
f 109 39 105
f 110 71 111
f 104 112 113
f 13 75 65
f 91 23 70
f 91 114 72
f 65 115 66
f 101 116 117
f 76 118 73
f 117 119 76
f 69 120 77
f 77 121 78
f 122 68 92
f 118 95 73
f 123 116 124
f 78 112 125
f 113 102 106
f 116 81 124
f 1 4 2
f 4 6 5
f 6 8 7
f 8 10 9
f 10 12 11
f 12 14 13
f 14 16 15
f 16 18 17
f 18 20 19
f 20 22 21
f 22 24 23
f 24 26 25
f 26 28 27
f 28 30 29
f 30 32 31
f 32 34 33
f 34 36 35
f 36 38 37
f 38 40 39
f 40 42 41
f 42 44 43
f 44 46 45
f 46 48 47
f 48 50 49
f 50 52 51
f 52 54 53
f 54 56 55
f 56 58 57
f 58 60 59
f 60 62 61
f 62 64 63
f 64 1 3
f 11 13 65
f 69 47 49
f 49 67 69
f 71 93 70
f 70 23 25
f 21 91 72
f 49 51 73
f 73 95 67
f 15 17 74
f 51 53 76
f 43 45 77
f 19 72 74
f 55 117 76
f 47 69 77
f 9 11 66
f 66 83 79
f 14 12 10
f 10 8 14
f 8 6 14
f 6 4 14
f 4 1 14
f 1 64 14
f 64 62 14
f 62 60 14
f 60 58 14
f 58 56 14
f 56 54 14
f 54 52 46
f 52 50 46
f 50 48 46
f 44 42 40
f 46 44 14
f 22 14 44
f 26 24 22
f 30 28 22
f 28 26 22
f 34 32 22
f 32 30 22
f 38 36 44
f 36 34 22
f 44 40 38
f 54 46 14
f 84 81 87
f 81 101 99
f 99 97 81
f 81 97 82
f 98 79 84
f 80 87 81
f 87 100 84
f 100 98 84
f 83 85 84
f 66 115 85
f 63 3 80
f 75 88 86
f 80 3 2
f 74 89 88
f 72 114 89
f 70 94 90
f 67 96 92
f 93 110 94
f 95 126 96
f 61 63 82
f 98 7 9
f 59 61 97
f 100 5 7
f 59 99 101
f 87 2 5
f 29 31 102
f 39 41 104
f 31 33 106
f 125 104 78
f 104 41 78
f 106 33 35
f 25 27 108
f 107 35 37
f 27 29 103
f 109 37 39
f 110 93 71
f 104 125 112
f 13 15 75
f 91 21 23
f 91 90 114
f 65 86 115
f 117 55 57
f 57 101 117
f 76 119 118
f 117 123 119
f 69 122 120
f 77 120 121
f 122 69 68
f 118 126 95
f 123 117 116
f 78 121 112
f 113 111 102
f 111 71 108
f 108 103 111
f 111 103 102
f 105 104 113
f 106 107 113
f 107 109 113
f 109 105 113
f 116 101 81
