v 0.00216253 0.024047 3.40205e-06
v 0.0179396 0.0160994 1.62314e-05
v -6.61744e-24 1.38778e-17 0
v -0.023615 0.0045977 3.0098e-06
v -0.0147663 0.0190885 1.44705e-05
v 0.0231587 0.00626582 1.50617e-05
v 0.0220911 -0.00879821 -3.08644e-07
v -0.0200381 -0.0132201 1.55047e-05
v 0.0126553 -0.020292 -4.35299e-06
v -0.00398608 -0.0237999 9.66704e-06
v -0.0132273 -0.0199253 1.86175e-05
v -0.00673937 0.0231264 0.000528274
v 0.00341891 0.0241369 0.00229823
v -0.00726199 0.0230178 0.00229731
v 0.0110754 0.0213868 0.000513076
v 0.0161384 0.0182298 0.00231079
v -0.0152358 0.0188316 0.00229648
v -0.0208331 0.0120952 0.000532642
v -0.0227807 0.00871025 0.00230495
v 0.0226382 0.00837655 0.00229693
v -0.0239981 -0.00364317 0.000565886
v 0.0241828 -0.000513319 0.00230314
v 0.0241089 -0.00276842 0.000593655
v -0.0239942 -0.00447198 0.00228897
v 0.0218952 -0.00999138 0.00230253
v 0.0187519 -0.0156523 0.000486738
v -0.0192822 -0.0145951 0.00229676
v 0.0170204 -0.0171163 0.00229693
v -0.0126187 -0.0205772 0.00229694
v 0.00959858 -0.0221906 0.00230297
v 0.00781774 -0.0230169 0.000527355
v -0.00194232 -0.0242653 0.00229431
v -0.0137089 0.028743 0.00230021
v -0.00183449 0.0320152 0.0023064
v 0.0119891 0.0296301 0.00229486
v 0.0210922 0.0239018 0.00230045
v -0.0267898 0.0170402 0.0023
v -0.0218853 0.0231795 0.0023004
v 0.0274892 0.0160747 0.00230021
v -0.0315089 0.00572997 0.00230577
v 0.0312039 0.00648303 0.0023016
v -0.03121 -0.00632997 0.00230018
v 0.0314337 -0.00654801 0.00230494
v -0.0275637 -0.0159717 0.00230337
v -0.0205386 -0.0243643 0.00230122
v 0.0257628 -0.0187174 0.00230004
v -0.00885593 -0.0308211 0.00230467
v 0.018578 -0.0258909 0.00230154
v 0.00682477 -0.031383 0.00230398
v -0.00577353 0.032177 -0.001
v 0.00264274 0.0326528 -0.00092278
v -0.0132606 0.0299618 -0.000926315
v 0.012816 0.0302712 -0.00101303
v -0.0223052 0.0241301 -0.000968843
v 0.0197631 0.0260406 -0.001
v 0.0255966 0.0205545 -0.00110532
v -0.0275837 0.0175452 -0.001
v -0.0312253 0.0101322 -0.000966838
v 0.0297751 0.0134958 -0.001
v 0.0323346 0.00594676 -0.000985173
v -0.0328248 0.00169452 -0.00122565
v -0.0322987 -0.00588083 -0.000969985
v 0.0327162 -0.00255996 -0.00115505
v 0.0309679 -0.0109504 -0.000972157
v -0.0297751 -0.0134958 -0.001
v -0.0257694 -0.0203376 -0.0010274
v 0.026034 -0.019981 -0.000946982
v -0.0160083 -0.0288259 -0.00108828
v 0.0185056 -0.0270983 -0.000938158
v 0.00600253 -0.0324937 -0.000841349
v -0.00498714 -0.0323082 -0.001
v -0.00908411 0.032445 -0.000415538
v 0.0022417 0.0336055 -0.000551955
v 0.0127209 0.031226 -0.000437005
v -0.0185552 0.0281187 -0.000621278
v 0.0197553 0.0271332 -0.000466315
v -0.0245539 0.0228404 -0.000388289
v 0.0258849 0.0215869 -0.000497236
v -0.029384 0.0165616 -0.000595085
v 0.0302496 0.0145797 -0.000488013
v -0.0331693 0.00598587 -0.000287697
v 0.0329294 0.00706558 -0.000415038
v 0.0335121 -0.000992949 -0.000302585
v -0.0331891 -0.00534125 -0.000334971
v -0.0308712 -0.0132555 -0.000594879
v 0.0322663 -0.00956718 -0.000393969
v 0.028612 -0.0177143 -0.000590285
v -0.0268947 -0.0201509 -0.00033108
v -0.0200566 -0.0270766 -0.000509261
v 0.024252 -0.0232705 -0.000552991
v 0.0162218 -0.0295516 -0.000464486
v -0.0114213 -0.0316229 -0.000547805
v 0.00626182 -0.0330262 -0.000434521
v -0.00278688 -0.0334951 -0.000593306
v -0.0034805 0.0315698 0.00516066
v 0.00417755 0.0315087 0.00513319
v -0.0140747 0.0287213 0.00500886
v 0.0130898 0.0290097 0.00511741
v 0.0192884 0.0252027 0.00509456
v -0.0223472 0.0227291 0.00489466
v 0.0250461 0.0196874 0.00506834
v -0.027639 0.0157613 0.00509334
v 0.0286827 0.0136879 0.0050753
v -0.0314316 0.00600845 0.0051121
v 0.0313613 0.00561089 0.00513696
v -0.0315368 -0.00450685 0.00511261
v 0.0316977 -0.00198854 0.00508153
v 0.0302522 -0.0100157 0.00508878
v -0.0293992 -0.0119884 0.00505696
v -0.0258171 -0.0186984 0.0051013
v 0.0272273 -0.0164066 0.00503088
v -0.0191117 -0.0254784 0.00509053
v 0.0199643 -0.0249229 0.00552036
v -0.0121729 -0.0294105 0.00497446
v -0.00382579 -0.0316583 0.00514276
v 0.00959931 -0.0304518 0.00495499
v 0.00390453 -0.0320456 0.00425223
v -0.000936268 0.0318749 0.00843097
v -0.0134092 0.0286146 0.00851869
v 0.01214 0.0291998 0.0084265
v 0.02223 0.0227006 0.00843461
v -0.0218835 0.0229566 0.00848979
v -0.0280628 0.0146159 0.00849763
v 0.0286904 0.0130042 0.0085
v 0.0310852 0.00529289 0.00899368
v -0.0313619 0.00440196 0.00845932
v 0.0311851 -0.00611682 0.00845336
v -0.0305151 -0.00899549 0.00849385
v 0.0265789 -0.016906 0.0085
v -0.0245456 -0.0199329 0.008431
v 0.0200631 -0.0246619 0.00838286
v -0.0176989 -0.0258605 0.00899422
v -0.0119533 -0.0292436 0.00846688
v 0.00829121 -0.0305322 0.00848724
v -0.00185901 -0.0316197 0.00851913
v -6.61744e-24 1.38778e-17 0.009
v 0.0160102 0.0266808 0.0090002
v -0.0116848 0.029012 0.00900071
v -0.0219341 0.0220701 0.0090002
v 0.0256201 0.0181288 0.00899964
v -0.0293716 0.0108822 0.00900139
v -0.030996 -0.00415157 0.00900068
v 0.0294429 -0.0108735 0.00899999
v 0.0119937 -0.0288883 0.0090006
v 0.0219341 -0.0220701 0.0090002
v 0.00335503 0.0312252 0.00900029
v -0.0256202 -0.0181287 0.00899965
v -0.00319191 -0.0312094 0.0090019
f 1 2 3
f 3 4 5
f 6 3 2
f 7 3 6
f 8 4 3
f 3 9 10
f 11 8 3
f 7 9 3
f 12 13 1
f 14 13 12
f 13 15 1
f 5 14 12
f 13 16 15
f 17 14 5
f 16 2 15
f 18 17 5
f 19 17 18
f 20 6 2
f 16 20 2
f 4 19 18
f 21 19 4
f 22 23 6
f 20 22 6
f 24 19 21
f 22 25 23
f 8 24 21
f 25 26 23
f 27 24 8
f 25 28 26
f 11 27 8
f 29 27 11
f 30 31 26
f 28 30 26
f 10 29 11
f 32 29 10
f 30 32 31
f 32 10 31
f 14 33 34
f 13 14 34
f 35 13 34
f 16 13 35
f 33 14 17
f 36 16 35
f 17 37 38
f 39 16 36
f 19 37 17
f 19 40 37
f 20 16 39
f 41 20 39
f 22 20 41
f 24 40 19
f 24 42 40
f 43 22 41
f 43 25 22
f 24 27 44
f 45 44 27
f 43 46 25
f 46 28 25
f 29 45 27
f 47 45 29
f 46 48 28
f 48 30 28
f 32 47 29
f 48 49 30
f 49 32 30
f 49 47 32
f 34 50 51
f 34 52 50
f 35 34 51
f 53 35 51
f 34 33 52
f 33 54 52
f 53 55 35
f 33 38 54
f 56 36 55
f 38 37 57
f 39 36 56
f 37 58 57
f 59 39 56
f 37 40 58
f 41 39 59
f 60 41 59
f 40 61 58
f 40 62 61
f 43 41 60
f 63 43 60
f 40 42 62
f 64 43 63
f 42 65 62
f 44 66 65
f 42 44 65
f 46 43 64
f 67 46 64
f 45 68 66
f 44 45 66
f 48 46 67
f 69 48 67
f 45 47 68
f 49 48 69
f 70 49 69
f 47 71 68
f 47 70 71
f 47 49 70
f 50 72 73
f 51 50 73
f 53 51 73
f 74 53 73
f 52 72 50
f 52 75 72
f 55 53 74
f 76 55 74
f 54 75 52
f 54 77 75
f 76 78 55
f 54 79 77
f 57 79 54
f 59 56 78
f 80 59 78
f 58 79 57
f 58 81 79
f 80 82 59
f 58 61 81
f 82 83 60
f 62 84 61
f 62 85 84
f 86 64 63
f 65 85 62
f 87 64 86
f 66 85 65
f 87 67 64
f 66 88 85
f 66 89 88
f 90 67 87
f 68 89 66
f 90 69 67
f 91 69 90
f 68 92 89
f 91 70 69
f 93 70 91
f 71 92 68
f 71 94 92
f 94 70 93
f 70 94 71
f 84 81 61
f 72 95 73
f 95 96 73
f 97 95 72
f 96 74 73
f 75 97 72
f 96 98 74
f 98 99 76
f 77 100 75
f 100 97 75
f 99 101 78
f 102 100 77
f 101 103 80
f 104 102 79
f 103 105 82
f 106 104 81
f 105 107 83
f 107 108 86
f 109 106 84
f 110 109 85
f 108 111 87
f 111 90 87
f 112 110 88
f 111 113 90
f 113 91 90
f 114 112 89
f 94 115 92
f 115 114 92
f 116 93 91
f 113 116 91
f 116 117 93
f 93 117 94
f 117 115 94
f 116 115 117
f 95 118 96
f 97 119 95
f 118 120 96
f 120 98 96
f 100 119 97
f 120 121 98
f 121 99 98
f 122 119 100
f 121 101 99
f 102 122 100
f 123 122 102
f 121 124 101
f 124 103 101
f 104 123 102
f 125 105 124
f 126 123 104
f 106 126 104
f 125 127 105
f 127 107 105
f 128 126 106
f 127 108 107
f 109 128 106
f 110 128 109
f 127 129 108
f 129 111 108
f 130 128 110
f 131 113 129
f 112 130 110
f 114 132 112
f 132 130 112
f 133 132 114
f 134 116 131
f 115 133 114
f 135 133 115
f 134 135 116
f 135 115 116
f 136 137 138
f 139 136 138
f 136 140 137
f 141 142 139
f 136 143 140
f 136 132 144
f 136 142 132
f 145 143 136
f 144 145 136
f 5 12 1
f 15 2 1
f 4 18 5
f 23 7 6
f 8 21 4
f 23 26 7
f 26 9 7
f 26 31 9
f 31 10 9
f 119 138 118
f 138 146 118
f 146 120 118
f 146 137 120
f 122 138 119
f 137 121 120
f 139 138 122
f 137 140 121
f 123 139 122
f 141 139 123
f 140 124 121
f 126 141 123
f 140 125 124
f 128 142 126
f 142 141 126
f 125 143 127
f 130 147 128
f 147 142 128
f 143 129 127
f 143 145 129
f 145 131 129
f 132 147 130
f 145 144 131
f 144 134 131
f 135 148 133
f 148 132 133
f 144 148 134
f 148 135 134
f 83 86 63
f 1 3 5
f 3 10 11
f 33 17 38
f 24 44 42
f 55 36 35
f 38 57 54
f 78 56 55
f 82 60 59
f 83 63 60
f 98 76 74
f 99 78 76
f 102 77 79
f 101 80 78
f 104 79 81
f 103 82 80
f 106 81 84
f 105 83 82
f 107 86 83
f 109 84 85
f 110 85 88
f 108 87 86
f 112 88 89
f 114 89 92
f 119 118 95
f 105 103 124
f 113 111 129
f 116 113 131
f 137 146 138
f 142 136 139
f 143 125 140
f 132 148 144
f 142 147 132
