v -0.310393 -0.0513986 0.120882
v -0.31595 -0.0510973 0.120882
v -0.310393 -1.28015e-10 0.120882
v -0.260868 0.0137506 0.120882
v -0.259671 0.0083154 0.120882
v -0.304836 0.0510973 0.120882
v -0.299344 0.0501969 0.120882
v -0.25907 -0.00278263 0.120882
v -0.260039 0.00273009 0.192811
v -0.260039 -0.00273005 0.192811
v -0.263547 0.0186653 0.192811
v -0.265839 0.0236208 0.192811
v -0.310393 -1.28016e-10 0.193545
v -0.262645 0.0190246 0.120882
v -0.360747 -0.00273009 0.192811
v -0.360156 -0.00815828 0.192811
v -0.358983 -0.0134909 0.192811
v -0.263547 -0.0186652 0.192811
v -0.261803 -0.0134908 0.192811
v -0.265839 -0.0236208 0.192811
v -0.268654 -0.0282994 0.192811
v -0.352131 -0.0282995 0.192811
v -0.348827 -0.0326462 0.192811
v -0.345072 0.0366103 0.192811
v -0.348827 0.0326462 0.192811
v -0.279875 -0.0401452 0.192811
v -0.275714 -0.0366103 0.192811
v -0.289219 -0.045767 0.192811
v -0.284395 -0.0432094 0.192811
v -0.331567 -0.045767 0.192811
v -0.326494 -0.047788 0.192811
v -0.299552 -0.0492488 0.192811
v -0.294291 -0.047788 0.192811
v -0.315845 0.0501321 0.192811
v -0.321233 0.0492488 0.192811
v -0.310393 0.0504278 0.192811
v -0.315845 -0.0501322 0.192811
v -0.310393 -0.0504278 0.192811
v -0.321233 -0.0492488 0.192811
v -0.336391 -0.0432094 0.192811
v -0.279875 0.0401452 0.192811
v -0.284395 0.0432094 0.192811
v -0.345072 -0.0366104 0.192811
v -0.34091 -0.0401452 0.192811
v -0.354946 -0.0236208 0.192811
v -0.357239 -0.0186653 0.192811
v -0.260629 0.00815834 0.192811
v -0.261803 0.0134909 0.192811
v -0.360747 0.00273005 0.192811
v -0.360156 0.00815825 0.192811
v -0.260629 -0.00815825 0.192811
v -0.354946 0.0236208 0.192811
v -0.357239 0.0186652 0.192811
v -0.352131 0.0282994 0.192811
v -0.271959 0.0326462 0.192811
v -0.275714 0.0366104 0.192811
v -0.326495 0.047788 0.192811
v -0.331567 0.045767 0.192811
v -0.304941 -0.0501322 0.192811
v -0.299552 0.0492488 0.192811
v -0.304941 0.0501322 0.192811
v -0.289219 0.045767 0.192811
v -0.294291 0.0477881 0.192811
v -0.336391 0.0432094 0.192811
v -0.340911 0.0401452 0.192811
v -0.268654 0.0282995 0.192811
v -0.359918 -0.0137506 0.120882
v -0.361114 -0.0083154 0.120882
v -0.260868 -0.0137505 0.120882
v -0.262645 -0.0190245 0.120882
v -0.264982 -0.0240755 0.120882
v -0.349567 -0.0332748 0.120882
v -0.352935 -0.0288442 0.120882
v -0.275046 0.0373152 0.120882
v -0.271219 0.0332748 0.120882
v -0.331975 -0.0466481 0.120882
v -0.336892 -0.0440413 0.120882
v -0.321442 -0.0501969 0.120882
v -0.326804 -0.0487081 0.120882
v -0.304836 -0.0510973 0.120882
v -0.299344 -0.0501969 0.120882
v -0.293981 -0.0487081 0.120882
v -0.283894 -0.0440413 0.120882
v -0.288811 -0.0466481 0.120882
v -0.341498 -0.0409181 0.120882
v -0.34574 -0.0373152 0.120882
v -0.271219 -0.0332747 0.120882
v -0.275046 -0.0373151 0.120882
v -0.267851 -0.0288442 0.120882
v -0.355804 0.0240755 0.120882
v -0.352935 0.0288442 0.120882
v -0.359918 0.0137505 0.120882
v -0.358141 0.0190245 0.120882
v -0.259671 -0.00831531 0.120882
v -0.361716 0.00278263 0.120882
v -0.361114 0.00831531 0.120882
v -0.25907 0.00278266 0.120882
v -0.361716 -0.00278266 0.120882
v -0.358141 -0.0190246 0.120882
v -0.264982 0.0240756 0.120882
v -0.355804 -0.0240756 0.120882
v -0.279288 0.0409181 0.120882
v -0.283894 0.0440413 0.120882
v -0.336892 0.0440413 0.120882
v -0.331975 0.0466481 0.120882
v -0.293981 0.0487081 0.120882
v -0.288811 0.0466481 0.120882
v -0.326805 0.0487081 0.120882
v -0.321442 0.0501969 0.120882
v -0.31595 0.0510973 0.120882
v -0.310393 0.0513986 0.120882
v -0.341498 0.040918 0.120882
v -0.34574 0.0373151 0.120882
v -0.349567 0.0332747 0.120882
v -0.267851 0.0288442 0.120882
v -0.271959 -0.0326462 0.192811
v -0.358983 0.0134908 0.192811
v -0.279288 -0.040918 0.120882
f 1 2 3
f 4 5 3
f 6 7 3
f 8 9 10
f 11 12 13
f 14 4 3
f 15 16 13
f 16 17 13
f 18 19 13
f 20 18 13
f 21 20 13
f 22 23 13
f 24 25 13
f 26 27 13
f 28 29 13
f 30 31 13
f 32 33 13
f 34 35 13
f 36 34 13
f 37 38 13
f 39 37 13
f 31 39 13
f 40 30 13
f 41 42 13
f 43 44 13
f 45 22 13
f 17 46 13
f 47 48 13
f 13 49 15
f 50 49 13
f 19 51 13
f 48 11 13
f 52 53 13
f 25 54 13
f 55 56 13
f 56 41 13
f 29 26 13
f 57 58 13
f 38 59 13
f 60 61 13
f 35 57 13
f 62 63 13
f 58 64 13
f 64 65 13
f 23 43 13
f 66 55 13
f 54 52 13
f 46 45 13
f 9 47 13
f 13 10 9
f 67 68 3
f 69 70 3
f 70 71 3
f 72 73 3
f 74 75 3
f 76 77 3
f 78 79 3
f 2 78 3
f 80 1 3
f 81 80 3
f 82 81 3
f 79 76 3
f 83 84 3
f 77 85 3
f 85 86 3
f 87 88 3
f 89 87 3
f 90 91 3
f 92 93 3
f 94 69 3
f 95 96 3
f 3 97 8
f 68 98 3
f 96 92 3
f 99 67 3
f 100 14 3
f 73 101 3
f 102 74 3
f 103 102 3
f 104 105 3
f 106 107 3
f 108 109 3
f 109 110 3
f 111 6 3
f 110 111 3
f 105 108 3
f 112 104 3
f 113 112 3
f 114 113 3
f 75 115 3
f 115 100 3
f 93 90 3
f 5 97 3
f 3 98 95
f 111 34 36
f 110 35 34
f 100 66 12
f 102 42 41
f 74 41 56
f 97 47 9
f 73 23 22
f 114 54 25
f 72 43 23
f 94 10 51
f 71 18 20
f 70 19 18
f 36 6 111
f 83 26 29
f 95 15 49
f 87 21 116
f 75 56 55
f 103 62 42
f 5 48 47
f 65 113 24
f 81 33 32
f 85 40 44
f 14 12 11
f 79 39 31
f 86 44 43
f 105 64 58
f 80 32 59
f 1 59 38
f 2 38 37
f 78 37 39
f 92 50 117
f 68 17 16
f 84 29 28
f 77 30 40
f 98 16 15
f 67 46 17
f 46 101 45
f 107 63 62
f 106 60 63
f 93 117 53
f 113 25 24
f 96 49 50
f 4 11 48
f 104 65 64
f 90 53 52
f 76 31 30
f 91 52 54
f 101 22 45
f 108 58 57
f 109 57 35
f 115 55 66
f 88 116 27
f 89 20 21
f 82 28 33
f 118 27 26
f 69 51 19
f 7 61 60
f 86 72 3
f 33 28 13
f 63 60 13
f 117 50 13
f 51 10 13
f 53 117 13
f 44 40 13
f 65 24 13
f 84 82 3
f 107 103 3
f 59 32 13
f 61 36 13
f 118 83 3
f 27 116 13
f 12 66 13
f 71 89 3
f 91 114 3
f 7 106 3
f 88 118 3
f 101 99 3
f 42 62 13
f 116 21 13
f 8 94 3
f 8 97 9
f 111 110 34
f 110 109 35
f 100 115 66
f 102 103 42
f 74 102 41
f 97 5 47
f 73 72 23
f 114 91 54
f 72 86 43
f 94 8 10
f 71 70 18
f 70 69 19
f 36 61 6
f 83 118 26
f 95 98 15
f 87 89 21
f 75 74 56
f 103 107 62
f 5 4 48
f 65 112 113
f 81 82 33
f 85 77 40
f 14 100 12
f 79 78 39
f 86 85 44
f 105 104 64
f 80 81 32
f 1 80 59
f 2 1 38
f 78 2 37
f 92 96 50
f 68 67 17
f 84 83 29
f 77 76 30
f 98 68 16
f 67 99 46
f 46 99 101
f 107 106 63
f 106 7 60
f 93 92 117
f 113 114 25
f 96 95 49
f 4 14 11
f 104 112 65
f 90 93 53
f 76 79 31
f 91 90 52
f 101 73 22
f 108 105 58
f 109 108 57
f 115 75 55
f 88 87 116
f 89 71 20
f 82 84 28
f 118 88 27
f 69 94 51
f 7 6 61
