v -0.313123 -0.149332 0.0475977
v -0.317493 -0.134059 0.064643
v -0.317497 -0.147831 0.0463344
v 0.385525 -0.0709531 0.082206
v 0.379344 -0.0808684 0.0866924
v 0.380469 -0.0824328 0.0816532
v -0.305648 0.134885 0.0692472
v -0.290996 0.115152 0.0862886
v -0.291999 0.135618 0.0717672
v -0.274974 0.122274 0.0856891
v -0.276816 0.1356 0.071489
v -0.168632 0.108675 0.0875568
v -0.141128 0.111575 0.0862978
v -0.167027 0.11981 0.0775939
v -0.365158 0.0114559 0.135354
v -0.354166 0.0271816 0.13481
v -0.358268 0.0297735 0.13508
v -0.254907 0.145384 0.0502112
v -0.253249 0.130874 0.0664002
v -0.378978 0.074349 0.0885403
v -0.352942 0.06887 0.0906244
v -0.355729 0.0787784 0.0890323
v -0.383325 0.0153376 0.0921337
v -0.385847 0.0388841 0.0890727
v -0.388027 0.0144964 0.0883178
v -0.210641 -0.0828618 0.0939832
v -0.192158 -0.0948521 0.0927841
v -0.190219 -0.084667 0.0942688
v -0.271591 -0.0570489 0.139898
v -0.294385 -0.0575413 0.141219
v -0.294221 -0.0624639 0.13994
v 0.202429 0.156575 0.0350606
v 0.220676 0.139785 0.05444
v 0.222242 0.158339 0.0327801
v -0.317497 0.145326 0.0463344
v -0.319467 0.131282 0.0601958
v -0.317493 0.13464 0.064643
v -0.209301 0.0707295 0.0981826
v -0.192841 0.0669852 0.106291
v -0.184372 0.0718294 0.0969182
v -0.32015 0.153184 0.0205956
v -0.321496 0.137092 0.0386788
v -0.319535 0.141924 0.0420772
v -0.123614 0.119773 0.0647031
v -0.133199 0.132923 0.044852
v -0.139566 0.135019 0.0533437
v 0.290163 -0.00703816 0.0916422
v 0.293734 0.00778939 0.0953708
v 0.290163 0.00725169 0.0916992
v -0.271784 0.0778445 0.0927571
v -0.290957 0.0727531 0.094795
v -0.2716 0.0713478 0.0965486
v -0.322851 0.111361 0.0770816
v -0.320764 0.111599 0.0825201
v -0.182694 0.0579033 0.103954
v -0.176525 0.0667751 0.0956304
v -0.185174 0.0640629 0.10679
v 0.0831742 -0.0888905 0.0919788
v 0.104962 -0.0976703 0.0900227
v 0.10698 -0.0908109 0.0942847
v 0.2784 -0.122298 0.0857593
v 0.258119 -0.129046 0.0702017
v 0.277928 -0.136607 0.0702518
v 0.359598 -0.0822738 0.0887103
v 0.373385 -0.085292 0.0816718
v 0.373374 -0.0807906 0.0884555
v -0.0721941 0.0946026 0.0592621
v -0.0692887 0.0964246 0.0391102
v -0.0768802 0.0973669 0.0436492
v -0.0481789 -0.115305 0.024748
v -0.0633008 -0.103641 0.0257393
v -0.0628464 -0.107945 0.0207011
v 0.0799885 0.096316 0.0589716
v 0.0585134 0.0923498 0.0650751
v 0.0797672 0.0949792 0.06857
v -0.304422 -0.122845 0.0863021
v -0.313853 -0.138796 0.0685145
v -0.305518 -0.137398 0.0699386
v 0.0539833 -0.0963331 0.043367
v 0.0341005 -0.0933385 0.0550304
v 0.033441 -0.0947851 0.046093
v -0.388034 -0.0376961 0.0771694
v -0.382845 -0.080428 0.082525
v -0.387623 -0.0384266 0.083904
v 0.0974966 -0.102309 0.0616122
v 0.0803173 -0.0946957 0.0690654
v 0.0802783 -0.0958463 0.0590388
v 0.312421 0.161188 0.0281795
v 0.298172 0.167477 0.00708532
v 0.296329 0.160384 0.029883
v -0.366251 0.0356638 0.104747
v -0.376541 0.0146624 0.0992315
v -0.374729 0.0140122 0.105558
v -0.144023 -0.135604 0.0581305
v -0.133412 -0.119688 0.0774665
v -0.15255 -0.13296 0.0629577
v -0.190395 0.0625996 0.118601
v 0.125846 -0.109577 0.0843343
v 0.129674 -0.106462 0.0886839
v 0.109645 0.0751318 0.0954129
v 0.0849093 0.0782139 0.0966336
v 0.0852615 0.0738564 0.0954267
v 0.294308 0.0282502 0.0950402
v 0.299374 0.00813635 0.0953361
v 0.0589827 0.0903196 0.0790742
v 0.0801337 0.0940486 0.0755432
v 0.0586745 0.0912802 0.0727064
v -0.252755 -0.0709231 0.0972934
v -0.233424 -0.0677014 0.103868
v -0.253428 -0.0678827 0.103348
v 0.279636 0.0736209 0.0927557
v 0.257473 0.0788466 0.0929847
v 0.275556 0.0658317 0.0935575
v -0.0633876 0.102323 0.025555
v -0.0480602 0.115411 0.0248656
v -0.0628141 0.111729 0.0207765
v 0.319524 0.12108 0.0750251
v 0.32313 0.106612 0.0837002
v 0.32518 0.107919 0.0783054
v -0.131672 -0.135862 0.00708528
v -0.142206 -0.145433 0.0165459
v -0.141268 -0.145459 0.00708528
v 0.161805 0.158616 0.0300161
v 0.161152 0.142286 0.0523103
v 0.171312 0.158368 0.0330178
v -0.254376 -0.0657114 0.111131
v -0.235247 -0.0628091 0.121934
v -0.253981 -0.0629519 0.121409
v -0.362973 0.0329966 0.120593
v -0.371806 0.0130371 0.117183
v -0.370526 0.0126972 0.122245
v 0.278984 -0.0935861 0.0901921
v 0.259346 -0.113907 0.0862006
v 0.344314 -0.0792412 0.0896412
v 0.346948 -0.0852604 0.088238
v -0.309996 0.0791395 0.0911485
v -0.330677 0.0792754 0.0904629
v -0.330045 0.0745409 0.0911179
v -0.0877243 -0.100127 0.0475808
v -0.0728839 -0.0944771 0.05943
v -0.0876072 -0.0979146 0.0636836
v 0.130154 0.134344 0.00708527
v 0.141391 0.144619 0.0164059
v 0.141107 0.145298 0.00708527
v -0.292172 -0.0726112 0.0946734
v -0.269644 -0.0681461 0.102152
v -0.293215 -0.0709226 0.100931
v 0.130561 0.128039 0.0543598
v 0.138917 0.140094 0.0333855
v 0.125562 0.125494 0.0439239
v -0.108773 0.105993 0.0779389
v -0.10527 0.105871 0.0666396
v -0.190956 -0.0623173 0.120034
v -0.192818 -0.0669591 0.106398
v -0.185451 -0.0644111 0.106726
v -0.294006 -0.0649936 0.136671
v -0.270111 -0.0624825 0.137112
v -0.348722 0.0580156 0.0979507
v -0.372397 0.0392468 0.0928004
v -0.36786 0.0367769 0.0985404
v 0.292696 0.0504586 0.0940011
v 0.298098 0.0741624 0.0916771
v -0.330857 -0.0921967 0.0900609
v -0.344964 -0.086893 0.0878898
v -0.33218 -0.0939091 0.0887318
v 0.319107 -0.120823 0.0793338
v 0.313883 -0.136581 0.0688571
v 0.31757 -0.134238 0.0645854
v -0.271258 0.0498122 0.13832
v -0.291818 0.0492418 0.136345
v -0.273607 0.0378425 0.137576
v 0.175543 -0.166868 0.00708538
v 0.162268 -0.158004 0.0299107
v 0.16671 -0.165941 0.0070855
v 0.380526 0.0826776 0.0815534
v 0.373859 0.0878824 0.0727228
v 0.373807 0.084991 0.0819445
v -0.167281 0.0982702 0.0923994
v -0.18621 0.0840613 0.0944743
v -0.164778 0.0881616 0.0944768
v -0.317166 -0.159743 0.0251243
v -0.322073 -0.151671 0.0133542
v -0.317762 -0.162298 0.00708529
v -0.112835 -0.104089 0.0867913
v -0.110543 -0.105198 0.0818371
v -0.176796 -0.0670204 0.0960121
v -0.160898 -0.0756015 0.0958414
v -0.159592 -0.0703424 0.0930317
v 0.104958 0.0982299 0.0900581
v 0.125907 0.113039 0.0844607
v 0.103 0.0999536 0.0844972
v -0.182721 -0.0593618 0.104001
v -0.175756 -0.0651072 0.0860843
v -0.268354 -0.0855063 0.0919743
v -0.291954 -0.0787425 0.0918997
v -0.290996 -0.0886099 0.0908653
v 0.151099 0.145313 0.0471881
v 0.143884 0.128546 0.0681199
v -0.20923 -0.0528176 0.138664
v -0.197694 -0.0549842 0.136891
v -0.198021 -0.0513819 0.139058
v -0.0522767 0.0949433 0.0449926
v -0.0321134 0.0934292 0.0543708
v -0.0317551 0.0948431 0.0457905
v -0.232926 0.112426 0.0829882
v -0.212705 0.126067 0.0695153
v -0.232895 0.127136 0.0679392
v -0.307241 -0.0524253 0.139664
v -0.294931 -0.0502783 0.140084
v -0.319475 -0.131114 0.0602169
v -0.324255 -0.112313 0.0726116
v -0.321178 -0.127133 0.0573149
v -0.290974 0.068482 0.100933
v -0.271618 0.0683574 0.10149
v -0.333099 -0.0962839 0.0806703
v -0.334435 -0.096785 0.0746305
v -0.162251 0.127502 0.0689727
v -0.191614 0.124451 0.0717821
v -0.253243 -0.0605552 0.130321
v -0.270442 -0.063983 0.13102
v 0.260096 -0.0816259 0.0926212
v 0.261565 -0.0944745 0.0905772
v -0.302238 0.160826 0.029072
v -0.293013 0.167692 0.00708529
v -0.301601 0.167692 0.00708523
v 0.294934 -0.123043 0.0847595
v 0.294471 -0.137215 0.0694481
v -0.114845 -0.102565 0.0911391
v -0.0945408 -0.0899957 0.094624
v -0.117261 -0.0983518 0.0934043
v 0.324414 0.0857105 0.0879006
v 0.295887 0.096356 0.0893344
v 0.373487 -0.0718778 0.0895255
v 0.380745 -0.0712471 0.0888545
v 0.0729724 0.0994761 0.0189099
v 0.0796602 0.101224 0.00712503
v 0.0745161 0.101159 0.00935507
v -0.277922 0.14804 0.0510978
v -0.121666 -0.118987 0.0612623
v -0.131359 -0.131455 0.0420595
v -0.116879 -0.116871 0.0480886
v 0.385533 0.0683377 0.0741268
v 0.385151 0.066408 0.0828833
v -0.215964 0.159657 0.0305851
v -0.234286 0.14358 0.0502817
v -0.213972 0.141969 0.0521274
v 0.148205 0.150948 0.0208015
v 0.15183 0.156021 0.00708527
v 0.220082 0.123031 0.0725958
v 0.200889 0.137004 0.0577432
v 0.200312 0.121712 0.074549
v -0.162702 -0.163872 0.00708534
v -0.166601 -0.159568 0.0311361
v -0.172273 -0.167683 0.00708522
v 0.278888 0.0956015 0.0902545
v 0.259389 0.0854124 0.0922642
v -0.291024 -0.102738 0.0892059
v -0.291238 -0.123053 0.0863845
v -0.3082 -0.102261 0.0887457
v -0.315165 -0.119166 0.0857471
v -0.222386 0.0512408 0.138397
v -0.235087 0.0393103 0.138689
v -0.2233 0.0376537 0.139104
v -0.197982 0.167682 0.00708516
v -0.19594 0.159134 0.0316141
v 0.11863 -0.113044 0.0710441
v 0.130598 -0.127498 0.0542935
v 0.136599 -0.127864 0.0620461
v 0.260038 0.145292 0.0515889
v 0.277826 0.137203 0.0701392
v 0.280661 0.148172 0.0510372
v 0.12967 0.108538 0.0886959
v 0.106966 0.0953817 0.094288
v 0.131965 0.102849 0.0915266
v -0.170056 0.146411 0.047581
v -0.15204 0.133347 0.0625717
v -0.307739 -0.0683541 0.101701
v -0.328331 -0.0658113 0.0968281
v -0.308584 -0.0714306 0.0954256
v 0.286467 0.046907 0.0944569
v 0.271492 0.0608277 0.0939476
v 0.279727 0.0450087 0.0947319
v -0.0876205 0.0980302 0.0634693
v -0.0717805 0.093107 0.070009
v 0.298081 -0.166885 0.00709527
v 0.315421 -0.159047 0.0280341
v 0.296923 -0.15945 0.0306496
v -0.255296 -0.0521816 0.139601
v -0.253578 -0.0576241 0.136157
v -0.0663096 -0.0979561 0.0332728
v -0.0498872 -0.102068 0.0357623
v -0.052179 -0.0954296 0.0449249
v 0.345571 0.0106036 0.0934219
v 0.327423 -0.0101974 0.0941866
v 0.345699 -0.0105156 0.0934119
v -0.235053 0.0591233 0.134587
v -0.252807 0.0552189 0.137018
v -0.235672 0.0535157 0.137817
v 0.386027 -0.0701761 0.0739463
v -0.274052 -0.0482798 0.14117
v 0.237466 -0.0717358 0.0907863
v 0.219497 -0.0756125 0.09417
v 0.238184 -0.074982 0.093848
v -0.256235 -0.15981 0.0308012
v -0.23753 -0.167681 0.00708528
v -0.23588 -0.159489 0.0310448
v -0.211272 0.0953799 0.0921271
v -0.191631 0.110467 0.0856633
v -0.212192 0.111461 0.0843316
v -0.23128 -0.0265229 0.129511
v -0.222378 -0.0280551 0.118173
v -0.230757 -0.0257304 0.11801
v 0.0350651 0.0869756 0.0879838
v 0.0593139 0.0887989 0.0844609
v 0.0349447 0.0888407 0.0830293
v -0.186654 -0.0469848 0.118697
v -0.183314 -0.0319324 0.10345
v -0.188683 -0.0313004 0.119856
v 0.323139 0.0340881 0.093512
v 0.315865 0.00988568 0.0946681
v 0.326949 0.010495 0.0942075
v -0.309385 0.0617662 0.125518
v -0.290819 0.0628608 0.121669
v -0.309298 0.0632879 0.119937
v 0.0126865 -0.0769631 0.0971873
v 0.0353131 -0.07396 0.0953001
v 0.0126823 -0.0733182 0.095104
v 0.287926 0.0265094 0.0952662
v -0.232433 -0.00584281 0.104935
v -0.233174 0.00661247 0.11896
v -0.233232 -0.00654275 0.120027
v 0.347733 -0.0893757 0.0812868
v 0.359407 -0.0887399 0.0733698
v 0.3594 -0.0861839 0.0816045
v -0.14647 0.147234 0.0329154
v -0.152628 0.149491 0.0389222
v -0.23527 -0.0290318 0.138281
v -0.223274 -0.0402797 0.138975
v -0.223383 -0.0317433 0.138188
v -0.118043 0.0978474 0.0936087
v -0.143479 0.0963372 0.0934888
v -0.119181 0.091822 0.0947859
v -0.0910578 0.0959604 0.082366
v -0.0724019 0.0903538 0.084258
v -0.0719014 0.0918698 0.0786055
v -0.154851 0.156988 0.0193116
v -0.150009 0.154199 0.00708528
v -0.156899 0.160414 0.00708528
v 0.373581 -0.0549245 0.0905207
v -0.290915 0.0611832 0.127774
v -0.271778 0.0622833 0.123816
v -0.0528121 -0.0895705 0.08188
v -0.0322192 -0.0886598 0.0836091
v -0.0528476 -0.0881853 0.0858979
v 0.108255 0.0880927 0.095444
v 0.0843951 0.0825009 0.0963386
v 0.109159 0.0831201 0.0959777
v -0.233809 -0.018662 0.130349
v -0.237951 -0.00708676 0.139115
v -0.237969 -0.020132 0.138793
v -0.271748 0.0604603 0.130431
v -0.2525 0.0617368 0.125831
v -0.168536 -0.108324 0.0876552
v -0.19279 -0.109084 0.086807
v 0.0348207 0.0901 0.0774884
v 0.0346993 0.0911083 0.0712517
v 0.0352863 -0.0765762 0.0971436
v 0.0603598 -0.0802046 0.0968013
v 0.0605384 -0.0760899 0.0967813
v -0.213431 -0.0648577 0.1143
v -0.204762 -0.061058 0.128376
v -0.218147 -0.0620217 0.124851
v -0.0733694 -0.0855052 0.0949299
v -0.0962195 -0.088343 0.0955635
v -0.251498 -0.129379 0.0674453
v -0.269099 -0.120717 0.0854277
v -0.269878 -0.135116 0.0704556
v 0.184508 0.156154 0.0358081
v -0.180899 0.161404 0.0278807
v -0.330076 -0.0766643 0.0908057
v -0.346475 -0.085622 0.0900774
v -0.271298 -0.0652073 0.122698
v -0.233717 0.018994 0.129024
v -0.233001 0.0279875 0.136677
v -0.236234 0.0196764 0.137862
v 0.114431 0.113013 0.0615076
v 0.0987925 0.101713 0.0712606
v 0.118307 0.113997 0.0710874
v -0.23282 -0.110802 0.0843617
v -0.253344 -0.0994993 0.0902934
v -0.251433 -0.11344 0.0840728
v 0.100747 0.101241 0.0784677
v 0.122554 0.113773 0.0784124
v -0.32716 0.0548233 0.135142
v -0.309505 0.0601553 0.130889
v -0.327922 0.0578645 0.129867
v 0.144742 0.14318 0.0408145
v -0.189525 0.0297655 0.117551
v -0.197904 0.0273768 0.102759
v -0.18326 0.0321189 0.103549
v 0.0352548 -0.0842034 0.0942099
v 0.0126878 -0.0813937 0.0968778
v 0.0126849 -0.0844501 0.0936864
v 0.321176 -0.119414 0.0753396
v 0.325988 -0.108995 0.0729908
v 0.326811 -0.106902 0.0786575
v 0.0787042 0.0998042 0.0231364
v 0.0881838 0.103993 0.00708527
v 0.282189 0.167692 0.00708526
v 0.282322 0.159777 0.0310006
v 0.083685 -0.085399 0.0954135
v 0.06014 -0.0839149 0.0952654
v -0.36814 0.0120727 0.130993
v 0.0126398 0.0870727 0.0877746
v -0.0101228 0.0888584 0.083571
v -0.0101161 0.0869031 0.0882571
v -0.231571 0.0705299 0.0979412
v -0.210101 0.0758364 0.0950269
v -0.231609 0.0760345 0.094443
v -0.234592 0.0602669 0.130884
v -0.252694 0.0597955 0.132606
v 0.179656 0.0983272 0.0920817
v 0.158119 0.107559 0.0884703
v 0.157773 0.0980408 0.0926374
v 0.315553 0.136993 0.0639741
v 0.311271 0.149345 0.0484172
v 0.311563 0.139029 0.0659848
v -0.0318959 0.0723985 0.0906526
v -0.0527832 0.0731146 0.0946261
v -0.0527671 0.0723348 0.0904702
v -0.0321683 0.0899765 0.0794715
v -0.0101417 0.0901894 0.0780782
v -0.113244 0.11637 0.0301465
v -0.101869 0.106178 0.0509136
v -0.100254 0.107795 0.0296939
v -0.220537 0.0592484 0.13311
v -0.209107 0.0548964 0.138328
v -0.207868 0.0576002 0.13595
v -0.212355 0.0272775 0.102272
v -0.221548 0.0260072 0.0860843
v -0.21134 0.0264543 0.0860843
v -0.162766 -0.126933 0.0696088
v -0.166341 -0.14274 0.0517507
v -0.107644 -0.105907 0.0741897
v -0.12707 -0.1199 0.0703958
v -0.0893862 0.0970025 0.0748829
v -0.290688 0.066696 0.10744
v -0.251936 0.0712591 0.0970825
v -0.210081 -0.0674946 0.104655
v -0.233023 -0.0707979 0.0976958
v -0.209296 -0.0710389 0.0979107
v -0.118184 0.117714 0.0504903
v -0.126685 0.128709 0.0276441
v -0.0739058 0.102403 0.00966473
v -0.0792373 0.100707 0.019756
v -0.0736422 0.101288 0.0177291
v -0.37084 -0.0132212 0.11743
v -0.369583 -0.012908 0.122408
v 0.109644 0.072427 0.090709
v 0.0853177 0.0723607 0.0909798
v -0.200638 -0.0273951 0.103418
v -0.200746 -0.0282575 0.119273
v -0.307727 -0.0607607 0.135859
v 0.253833 0.0690233 0.0913136
v 0.268045 0.0551292 0.0913529
v 0.0622163 0.103147 0.0294294
v 0.0525554 0.115258 0.024696
v 0.0522801 0.102862 0.0360038
v 0.0337548 0.0933315 0.0551044
v 0.0539015 0.0955468 0.0433711
v 0.0332895 0.0950673 0.045144
v -0.234065 -0.141978 0.051975
v -0.253171 -0.144126 0.0513288
v 0.297004 -0.0966657 0.089174
v 0.156925 0.0726754 0.0919245
v 0.134381 0.0762938 0.0957383
v 0.134254 0.072711 0.0918868
v 0.0810142 -0.0930138 0.0819298
v 0.101007 -0.101166 0.0782871
v 0.102754 -0.100249 0.0841556
v 0.219402 -0.072399 0.0908397
v 0.20002 -0.0752879 0.0944812
v -0.317166 0.157664 0.0251243
v -0.31341 0.167692 0.00708529
v -0.317762 0.167692 0.00708529
v 0.257819 0.129451 0.0702898
v 0.278583 0.119073 0.087047
v -0.1413 -0.142465 0.033852
v -0.134901 -0.137529 0.0219558
v 0.0352754 -0.0809111 0.0968613
v -0.0527931 0.0764214 0.0968698
v -0.031922 0.0736471 0.0949514
v -0.03195 0.0772602 0.0971083
v -0.368483 -0.0126196 0.126746
v -0.367235 -0.0123283 0.131018
v 0.0960072 -0.104795 0.028183
v 0.10543 -0.113305 0.00710226
v 0.107496 -0.112282 0.0299316
v 0.0352336 -0.0861721 0.0899777
v 0.306141 -0.00871776 0.0950735
v 0.306108 0.0092882 0.0950718
v 0.133525 -0.0952102 0.0937675
v 0.108285 -0.087638 0.0954514
v -0.212343 0.028659 0.128337
v -0.198664 0.0281411 0.11697
v -0.197497 0.0287624 0.128282
v -0.14176 -0.0767734 0.0960533
v -0.271663 0.0569844 0.135916
v -0.0875626 0.100054 0.0475926
v -0.0899634 0.103165 0.0268647
v -0.143065 -0.0884708 0.0948024
v -0.162476 -0.0806894 0.0953335
v -0.164882 -0.0886492 0.0943666
v -0.293638 -0.0704426 0.111445
v -0.307291 -0.0654593 0.120859
v -0.308073 -0.0665549 0.110637
v -0.0321603 -0.0844886 0.0935763
v -0.0529282 -0.0861689 0.0906681
v -0.0321849 -0.0865207 0.0890806
v -0.365243 0.0347961 0.109683
v 0.240011 -0.106725 0.086839
v -0.190202 -0.0459806 0.131816
v -0.190209 -0.0528203 0.131777
v -0.345941 -0.0516405 0.11579
v -0.328508 -0.0613646 0.109923
v -0.32838 -0.0598645 0.117007
v 0.0711364 0.0967406 0.0390132
v 0.0828168 0.0989104 0.0443839
v 0.223463 -0.167681 0.0070852
v 0.242665 -0.158867 0.0316388
v 0.222254 -0.157769 0.03287
v 0.13653 0.129591 0.0619555
v -0.148179 -0.145503 0.0412122
v -0.155643 -0.146758 0.0471728
v -0.354001 -0.0272808 0.134813
v -0.34226 -0.0454832 0.135254
v -0.339666 -0.0419384 0.134835
v -0.0317109 -0.0951178 0.0450541
v 0.110482 0.112054 0.0483654
v 0.097224 0.102343 0.0617641
v 0.0819237 -0.0912194 0.0870525
v -0.14347 -0.0955182 0.0935072
v -0.143041 -0.103852 0.0907337
v 0.295876 0.148857 0.0498351
v 0.293938 0.138124 0.0686726
v -0.0745312 -0.0723421 0.0909418
v -0.0528139 -0.0733823 0.0950692
v -0.0528061 -0.0723686 0.0907515
v -0.327894 -0.0573163 0.127558
v -0.30685 -0.0628881 0.132383
v 0.220022 -0.121759 0.072534
v 0.201051 -0.13694 0.0574983
v 0.220687 -0.139035 0.0548779
v 0.334041 -0.098961 0.0800599
v 0.348507 -0.0917715 0.0735156
v -0.217349 0.0625194 0.122975
v -0.204252 0.0615086 0.126719
v 0.281951 -0.15955 0.0313887
v 0.265084 -0.167688 0.00708526
v 0.281979 -0.167692 0.00708526
v -0.22212 0.0275019 0.11682
v -0.212523 0.0280251 0.116833
v 0.109673 -0.0793849 0.0953677
v 0.0852848 -0.074489 0.0938011
v 0.0848104 -0.0776161 0.0965752
v 0.314159 -0.149598 0.0485204
v 0.0958962 0.105688 0.0281236
v 0.0956376 0.103431 0.0478971
v 0.10961 -0.0827563 0.0962642
v -0.383256 -0.0151107 0.0919118
v -0.386353 -0.0397779 0.0890889
v -0.379752 -0.0408278 0.0911457
v 0.134206 -0.0881389 0.0948849
v 0.157773 -0.0946507 0.092625
v 0.157448 -0.0870038 0.0943528
v -0.382712 0.078255 0.0878425
v -0.387654 0.0381014 0.0837704
v 0.143864 -0.126264 0.0682385
v 0.151435 -0.121514 0.0741805
v -0.237494 -0.0497498 0.138064
v -0.309194 0.0668185 0.106883
v -0.309034 0.0682391 0.101778
v 0.0349593 -0.0887685 0.0830466
v 0.0126799 -0.0864414 0.0893155
v 0.0126684 -0.0888627 0.0829201
v -0.222552 0.0267815 0.102408
v -0.227449 0.0252083 0.0860843
v -0.11257 -0.115762 0.0297253
v -0.122842 -0.127155 0.00708528
v -0.110196 -0.116234 0.00708528
v 0.202795 0.167682 0.00708514
v -0.269079 -0.10162 0.089832
v -0.0660647 0.0976894 0.0333109
v 0.202896 -0.16764 0.0070852
v 0.202174 -0.156376 0.0347498
v -0.25233 -0.0767101 0.0937975
v -0.232594 -0.0838302 0.0932927
v -0.232622 -0.0763884 0.094377
v -0.229983 -0.0249116 0.103302
v -0.221708 -0.0272428 0.103038
v 0.275359 0.0417534 0.0920207
v 0.283192 0.024594 0.0860842
v 0.283671 0.0245957 0.0920753
v 0.060603 -0.0741872 0.0952638
v 0.178648 0.072857 0.0916445
v 0.157088 0.0768273 0.0954996
v -0.212347 -0.0264543 0.0860843
v -0.212617 -0.0273181 0.102921
v -0.0739638 0.0804982 0.0966569
v -0.0743499 0.076349 0.096691
v 0.0596619 -0.0868071 0.0892774
v -0.290722 0.0646601 0.115008
v -0.309265 0.065 0.113606
v 0.265204 0.167688 0.00708538
v 0.262573 0.159553 0.0313347
v -0.096476 0.0822999 0.0961971
v -0.120454 0.0803572 0.0961033
v -0.0971333 0.0780829 0.096454
v 0.107309 0.112024 0.0298725
v 0.118485 0.123032 0.00708527
v 0.105988 0.113187 0.00708527
v -0.379606 0.0158361 0.0941592
v 0.316427 0.124059 0.0801104
v 0.293781 -0.0077139 0.0951537
v 0.18081 0.120599 0.0762588
v 0.151851 0.123307 0.0739509
v 0.156049 0.116588 0.0811856
v -0.220449 -0.0598112 0.132757
v 0.242788 0.15931 0.0314945
v 0.223225 0.167681 0.0070852
v -0.342561 0.0475576 0.134898
v -0.360872 0.0314414 0.130252
v 0.304674 -0.0521778 0.0933657
v 0.301714 -0.02899 0.0947831
v 0.293091 -0.0489833 0.0940441
v -0.357897 -0.0297061 0.135168
v -0.34403 -0.0481652 0.130719
v 0.344555 0.0338045 0.0927123
v -0.100059 0.109568 0.00708528
v -0.0913278 0.105217 0.00708528
v -0.0826313 0.100822 0.0238925
v -0.0853502 0.103022 0.00708528
v -0.309557 0.0568273 0.136052
v -0.325709 0.0500053 0.134996
v -0.309428 0.0524545 0.135491
v -0.274455 0.102159 0.0896753
v -0.252656 0.115405 0.0830493
v -0.233326 -0.0957141 0.0914765
v -0.212051 -0.109626 0.0857922
v -0.210926 -0.0939201 0.0924729
v 0.386664 -0.0548948 0.0839043
v -0.0544024 -0.0923537 0.0658816
v -0.0319171 -0.0933239 0.0551614
v -0.0322928 -0.0920245 0.0649622
v 0.200522 0.109125 0.0864659
v -0.0982017 -0.0746722 0.0955389
v -0.120098 -0.072512 0.091882
v -0.120213 -0.0758144 0.0960912
v -0.212027 -0.0288342 0.130962
v -0.199829 -0.0319721 0.1371
v -0.199204 -0.0291128 0.131276
v -0.32261 -0.113424 0.0766471
v -0.320311 -0.115421 0.0809253
v 0.0125845 0.0888296 0.0828603
v 0.320534 -0.15135 0.0202616
v 0.321268 -0.137981 0.0378316
v 0.319562 -0.142119 0.0423295
v 0.134398 -0.0745726 0.0951021
v 0.109606 -0.075424 0.0934446
v -0.302109 -0.160847 0.0291544
v -0.292759 -0.167692 0.00708528
v -0.291977 -0.160325 0.0300655
v -0.195255 0.0470143 0.139124
v -0.211409 0.0361202 0.139482
v -0.194938 0.034203 0.138924
v -0.141765 0.0760193 0.0960665
v -0.120315 0.0746657 0.0959373
v -0.178247 -0.158107 0.0331572
v -0.184089 -0.167682 0.00708528
v 0.31097 0.0322789 0.0941887
v 0.320252 0.0580521 0.0917198
v 0.304038 0.0540968 0.0931691
v -0.0527312 0.0840833 0.0945277
v -0.0732251 0.0865733 0.0928043
v -0.0735173 0.08456 0.0958186
v 0.0821056 0.0910069 0.0871044
v 0.0810341 0.0929275 0.0818595
v -0.0946305 0.0909224 0.0946809
v -0.0956666 0.0869964 0.0957416
v 0.177518 0.135009 0.0603064
v 0.151192 -0.144703 0.046973
v 0.160758 -0.141501 0.0525042
v -0.184852 0.0779525 0.0951561
v -0.162484 0.0809346 0.0953062
v -0.308689 0.0719634 0.0951709
v -0.290996 0.0792081 0.0918559
v -0.186933 -0.0549949 0.119507
v -0.116299 0.101842 0.0923225
v -0.142995 0.104285 0.0907316
v -0.388443 0.0139814 0.0829789
v -0.143101 0.0888797 0.0947867
v -0.0909241 -0.0960071 0.082159
v -0.183819 0.167682 0.00708528
v -0.168785 0.163952 0.0222539
v -0.169797 0.16749 0.00708552
v 0.0652442 0.0974568 0.0347571
v -0.144785 0.136165 0.0588656
v -0.158834 0.150448 0.0430781
v 0.134481 -0.0811807 0.0956634
v 0.319731 0.142264 0.0414206
v 0.321095 0.127211 0.057227
v 0.32152 0.138518 0.0376214
v 0.0587444 -0.089996 0.0789917
v 0.0806301 -0.0939232 0.0752966
v 0.240227 0.141127 0.0529674
v -0.254974 -0.0310034 0.139813
v -0.260697 -0.0180441 0.138663
v -0.26629 -0.0290642 0.140084
v -0.0717146 -0.0917759 0.0784983
v -0.0532823 -0.090992 0.0749387
v 0.085324 -0.072523 0.0909673
v 0.109644 -0.0722888 0.0907148
v -0.137518 -0.134292 0.0514272
v -0.339689 0.0432724 0.134792
v 0.0958158 -0.10357 0.0478435
v 0.0828436 -0.0984183 0.0439553
v -0.364255 -0.0116468 0.135472
v -0.189235 -0.0780908 0.0950736
v -0.210442 -0.0761657 0.094937
v 0.2749 0.041728 0.0860842
v -0.233829 0.0066564 0.130011
v -0.215514 -0.158238 0.0328575
v -0.195937 -0.167682 0.00708522
v -0.19236 -0.156609 0.035009
v -0.350427 -0.0581446 0.0937174
v -0.328397 -0.0701971 0.0931028
v -0.190509 0.032661 0.129078
v 0.240688 -0.0935953 0.0903331
v 0.239942 -0.0852302 0.0928897
v -0.292035 0.148677 0.0503255
v 0.240515 -0.140904 0.0530872
v 0.260157 -0.144045 0.0518469
v 0.121387 0.123689 0.0276551
v 0.13356 0.136116 0.0225112
v -0.119654 -0.0873182 0.0953525
v -0.118918 -0.0926819 0.0946149
v -0.222872 0.0280519 0.128119
v -0.229876 0.0263747 0.116734
v -0.328595 0.0640867 0.106872
v -0.328566 0.062419 0.112891
v 0.1788 -0.0798316 0.0949893
v 0.179257 -0.0876199 0.0938556
v -0.0744883 -0.0719991 0.0860842
v 0.179271 0.0901254 0.0938731
v 0.20013 0.0833622 0.0941869
v 0.200226 0.0900067 0.0933828
v 0.0351707 0.0849631 0.0926175
v 0.0127408 0.0825664 0.0963677
v 0.0352546 0.0822806 0.096454
v -0.271677 0.0664027 0.108576
v 0.0126927 0.0850783 0.0923725
v 0.0352446 -0.0723878 0.090526
v 0.0126638 -0.0723134 0.0906883
v 0.060664 0.0734971 0.0953055
v 0.0604883 0.0773027 0.0970899
v -0.0100689 -0.0723617 0.0907024
v -0.0320088 -0.0719991 0.0860842
v -0.0320278 -0.0723525 0.0906669
v 0.359682 0.0881771 0.07335
v 0.359668 0.085532 0.0814919
v -0.31341 -0.166209 0.00708529
v -0.313452 -0.160975 0.0272231
v 0.318211 -0.155576 0.024327
v 0.317267 -0.146801 0.046181
v -0.0101223 -0.0886618 0.0835705
v -0.0101114 -0.0865035 0.0891439
v -0.335212 0.0931134 0.0849937
v -0.357859 0.0861781 0.0808408
v -0.356955 0.0842395 0.0869183
v -0.379245 0.0394745 0.0911858
v -0.159576 0.0706512 0.0930016
v -0.160909 0.0754329 0.0958431
v 0.268037 -0.0561471 0.0914368
v 0.275604 -0.040868 0.0860842
v 0.26767 -0.0558235 0.0860842
v -0.36171 -0.0321501 0.125937
v -0.344669 -0.0493896 0.125948
v 0.178657 -0.0725799 0.0908162
v 0.199851 -0.0719991 0.0860842
v 0.178597 -0.0719991 0.0860842
v -0.0101258 -0.0932906 0.055398
v 0.347797 0.0880774 0.0807558
v 0.348351 0.0902109 0.0736974
v -0.362748 -0.0328648 0.121254
v 0.0988836 -0.101409 0.0709569
v 0.114891 -0.113118 0.0615646
v 0.0344114 0.0921276 0.0641159
v 0.0124126 0.0911591 0.071026
v -0.251959 0.0679974 0.102982
v -0.0101464 0.0737738 0.095399
v -0.0101401 0.0778537 0.0972241
v -0.293802 -0.0678637 0.131069
v -0.0934968 0.0925664 0.0914179
v -0.0728415 0.0883716 0.0887661
v -0.0922452 0.0941806 0.0870959
v 0.157443 0.0901476 0.0943451
v 0.133493 0.0956957 0.0937918
v 0.134227 0.0890424 0.0949044
v -0.0320961 0.0884169 0.0846997
v -0.0320418 0.0864803 0.0891955
v -0.348717 -0.0555896 0.0980807
v -0.370792 -0.0379112 0.0938666
v -0.38787 -0.0142146 0.0830048
v -0.291919 -0.148935 0.049956
v -0.272703 -0.159897 0.0305195
v -0.271326 -0.147454 0.0513801
v 0.122584 -0.112818 0.0783938
v -0.310076 -0.0858879 0.0908299
v -0.158048 -0.157063 0.0271086
v -0.191598 -0.0332902 0.128472
v 0.058844 -0.092146 0.0654989
v -0.0527676 0.0806869 0.0968276
v 0.219538 0.0772555 0.0941589
v 0.219808 0.083211 0.0936543
v -0.161176 0.160514 0.0214165
v 0.373788 0.0103865 0.0921793
v 0.359661 -0.00986741 0.0925354
v 0.373786 -0.0102956 0.0921642
v -0.0101537 0.0724229 0.0909113
v 0.0128267 0.0719991 0.0860842
v 0.0128221 0.0723916 0.0909678
v -0.0101 -0.0813537 0.0968631
v -0.010132 -0.0900995 0.0778699
v -0.0323153 -0.090979 0.0722958
v -0.0101356 -0.0910047 0.072239
v 0.387068 0.0516376 0.0752821
v 0.0353502 0.0724376 0.090903
v 0.0606077 0.0719991 0.0860842
v 0.0606489 0.0724043 0.0909142
v -0.0321104 -0.0769753 0.0971585
v -0.010089 -0.076951 0.0972446
v 0.199891 0.072727 0.0914724
v 0.219328 0.0719991 0.0860842
v 0.219369 0.0727041 0.0915418
v 0.0606183 -0.0723144 0.0903686
v 0.200361 0.098352 0.0915927
v 0.220123 0.0896095 0.0929023
v 0.220345 0.0982678 0.0911458
v -0.209694 0.0674238 0.104969
v 0.0125134 0.0901393 0.0773568
v -0.0101746 0.0911679 0.0713431
v -0.0746018 0.0723296 0.0904984
v 0.237321 -0.0714157 0.0860842
v 0.219335 -0.0719991 0.0860842
v -0.351829 0.0641032 0.0912643
v -0.328366 0.0679019 0.0968272
v 0.319882 -0.101847 0.0884782
v 0.333037 -0.0936206 0.085526
v 0.32656 -0.0892353 0.089475
v 0.35964 0.0324156 0.0919282
v 0.373748 0.0520112 0.0905218
v 0.359653 0.0526774 0.0908155
v -0.328402 0.0608346 0.118748
v 0.200021 0.0771183 0.0944929
v 0.179017 0.0833418 0.0946899
v 0.178836 0.077061 0.0949755
v 0.0353316 0.0736981 0.0952974
v 0.0125631 -0.0920568 0.0648006
v 0.0345677 -0.0920066 0.0649978
v 0.289622 0.00715263 0.0860842
v 0.178543 0.0719991 0.0860842
v 0.373743 0.0319988 0.0915729
v 0.381644 0.0519104 0.0900172
v -0.198748 -0.0453324 0.139364
v -0.14125 -0.0718434 0.0860843
v -0.12016 -0.0719991 0.0860843
v 0.0126587 -0.0719991 0.0860842
v 0.38828 -0.0338307 0.0763128
v 0.387769 -0.034218 0.0851759
v -0.0101761 -0.115411 0.0248656
v -0.0318854 -0.102167 0.0367973
v -0.0322356 -0.115411 0.0248656
v -0.0101082 -0.0844521 0.0936613
v -0.0321383 -0.0813655 0.0968028
v -0.0320712 -0.0733462 0.0950192
v -0.0101156 0.084907 0.0926932
v -0.0101252 0.0824115 0.0964713
v 0.0126173 -0.0911515 0.0714402
v 0.0346014 -0.0911804 0.0711377
v -0.0720965 -0.0928332 0.069845
v -0.263074 0.0425349 0.138947
v -0.210592 0.0819916 0.0940982
v -0.232009 0.0836389 0.09333
v -0.334435 0.0958137 0.0746305
v -0.324267 0.111167 0.0724819
v -0.32126 0.127153 0.0573337
v -0.120007 0.0858695 0.0955474
v 0.186765 -0.167275 0.00708526
v 0.184401 -0.155052 0.035887
v 0.239187 0.0822064 0.0932397
v 0.240015 0.0884495 0.0925438
v 0.255691 -0.0711968 0.0935698
v 0.239085 -0.0798444 0.0934765
v 0.25793 -0.076118 0.0932228
v 0.347319 0.0856666 0.0877423
v -0.163394 0.164281 0.00708534
v 0.0332748 -0.100889 0.0378853
v 0.117907 -0.123174 0.00709033
v 0.121199 -0.123895 0.0278068
v 0.144519 -0.142845 0.041041
v 0.148182 -0.148437 0.0207833
v 0.155097 -0.154859 0.025674
v -0.328456 -0.063307 0.103239
v -0.189393 0.0468712 0.128877
v -0.0319788 0.0816836 0.096728
v -0.0320058 0.0845452 0.0934435
v -0.12023 -0.0817186 0.0959565
v -0.142393 -0.0819535 0.0955436
v -0.211892 0.0301105 0.136586
v -0.223375 0.0292567 0.136482
v -0.378709 -0.0146186 0.0942621
v -0.368117 -0.036186 0.0986389
v -0.375703 -0.0143496 0.0991908
v -0.221635 0.0574323 0.136856
v -0.313633 0.136608 0.0675053
v -0.302464 0.149363 0.0491479
v -0.313224 0.148159 0.047707
v -0.233821 -0.0655935 0.111572
v -0.230836 0.0267009 0.127836
v 0.166656 0.166206 0.00708526
v -0.307273 -0.0642189 0.127407
v -0.293765 -0.0690785 0.123378
v -0.134791 0.138982 0.00708528
v -0.138948 0.141629 0.0217803
v 0.344495 0.0745092 0.0895837
v 0.343549 0.0560948 0.0913578
v 0.319411 -0.131093 0.0608405
v -0.0934702 -0.0928381 0.0909547
v -0.0731832 -0.0866559 0.0927242
v -0.291016 0.0592586 0.133455
v -0.292074 -0.136433 0.0715995
v 0.0121329 0.0933625 0.054849
v -0.010191 0.0921983 0.0637373
v 0.0122813 0.0921389 0.0640056
v -0.159369 0.070035 0.0860843
v -0.141363 0.0723502 0.0922287
v -0.0100629 -0.0719991 0.0860842
v 0.0353584 0.0719991 0.0860842
v 0.0849181 -0.0717799 0.0860842
v 0.0605809 -0.0719242 0.0860842
v -0.010157 0.0719991 0.0860842
v 0.382235 -0.0344018 0.0909101
v 0.381618 -0.0550849 0.0899468
v 0.388341 -0.0102106 0.0862824
v 0.388865 0.0100877 0.0769266
v 0.388369 0.0102513 0.0863762
v 0.199823 0.0719991 0.0860842
v -0.233106 -0.0174053 0.11879
v -0.23232 -0.0164443 0.104137
v 0.388862 -0.0101062 0.0769234
v -0.166928 -0.119883 0.0773897
v -0.190883 -0.124423 0.0718846
v -0.0973056 0.0719991 0.0860843
v -0.0745705 0.0719991 0.0860842
v 0.284337 -0.0231745 0.0920501
v 0.289688 -0.00696032 0.0860842
v 0.283865 -0.0230942 0.0860842
v 0.157092 -0.0797263 0.0954394
v -0.233048 0.0178263 0.117724
v -0.232421 0.00647585 0.104717
v -0.232276 0.0172999 0.103617
v -0.111991 0.104874 0.0841947
v -0.0528767 0.0896295 0.0818675
v -0.0527522 0.0877692 0.0864246
v 0.0525217 -0.115159 0.0248656
v 0.0622589 -0.100248 0.029461
v 0.052296 -0.101511 0.0360661
v -0.345282 -0.0504411 0.121175
v 0.386613 0.0513102 0.0839879
v -0.0322531 -0.0899278 0.0787464
v -0.0742045 -0.0772687 0.0968246
v -0.0970898 -0.0837028 0.0960471
v -0.0737969 -0.0816871 0.0965265
v -0.21685 -0.167681 0.00708516
v -0.347592 -0.0541659 0.104082
v -0.3467 -0.05294 0.109893
v -0.247389 0.019745 0.140161
v -0.250344 0.0312143 0.13973
v -0.0800088 0.101947 0.00763841
v 0.0880739 -0.103751 0.00719345
v 0.0789126 -0.0994371 0.0233127
v 0.079582 -0.101153 0.00744021
v -0.21376 -0.14193 0.0520262
v -0.232356 -0.127115 0.0678651
v -0.137855 -0.116848 0.0813881
v -0.328497 0.0651798 0.10302
v -0.359858 -0.0107166 0.134881
v -0.254099 0.100833 0.0898294
v -0.272906 0.0862803 0.0917455
v -0.253255 0.0853911 0.0924811
v -0.140724 -0.111836 0.0857116
v -0.0921571 -0.0943763 0.0870432
v -0.0727901 -0.0886867 0.0883085
v 0.0683877 -0.105493 0.0147098
v 0.0731056 -0.10084 0.0189468
v 0.0681069 -0.104187 0.0168735
v -0.0745782 0.0732098 0.0946881
v -0.0973514 0.0723445 0.0907329
v 0.379335 0.0815363 0.0866985
v 0.271481 -0.0590431 0.0940656
v -0.309527 -0.0772697 0.0923282
v -0.141351 -0.0723986 0.0924675
v 0.086803 0.102092 0.0252644
v 0.0964706 0.107605 0.00708527
v -0.0744833 -0.0736045 0.0953472
v -0.0981514 -0.0723829 0.0911267
v 0.156927 -0.0724592 0.0909428
v 0.157059 -0.0748252 0.0948642
v -0.236898 -0.0569052 0.137014
v -0.236132 -0.0604809 0.130501
v -0.0101698 0.0934226 0.054426
v 0.134479 0.0824522 0.0956632
v 0.109612 0.080506 0.0963074
v 0.359651 0.0821048 0.0882575
v 0.373737 0.0816391 0.0880165
v -0.104688 -0.105377 0.0634412
v -0.249082 -0.0200845 0.140106
v -0.150079 -0.152643 0.0219854
v -0.207959 -0.0587559 0.135929
v -0.196446 0.0264543 0.0860843
v 0.109526 0.0719991 0.0860842
v 0.0126475 -0.0903271 0.0770397
v 0.0347746 -0.090243 0.0775062
v 0.254032 -0.0680867 0.0908263
v 0.253837 -0.0677181 0.0860842
v -0.0101329 -0.0920354 0.0648267
v -0.257876 -0.0062489 0.138924
v 0.312276 0.124664 0.0842237
v 0.294076 0.123169 0.0852132
v -0.195313 -0.0599381 0.131245
v -0.347617 0.0561906 0.103951
v 0.134178 0.0719991 0.0860842
v 0.0333058 0.101982 0.0369648
v 0.0120097 0.0953654 0.0447699
v 0.0127793 0.0779762 0.0971867
v -0.0100778 -0.0732995 0.0951204
v -0.344905 0.0513859 0.124478
v -0.328168 0.0592689 0.124602
v -0.271356 -0.0663989 0.111551
v 0.373387 -0.0880508 0.0729273
v 0.382819 -0.0832178 0.0729387
v -0.231633 0.0676588 0.10411
v -0.252063 0.0660396 0.110041
v -0.231439 0.0656062 0.111567
v -0.228668 0.0259737 0.102643
v -0.0974218 0.0737716 0.0952075
v -0.210041 0.0488149 0.138891
v -0.258082 0.160245 0.0300695
v 0.320878 0.150703 0.0197883
v 0.287105 -0.0446897 0.0945318
v 0.27552 -0.064852 0.0935749
v -0.346373 0.0540411 0.113206
v -0.347112 0.0553922 0.107482
v -0.303714 -0.149551 0.0488884
v -0.327891 -0.0585559 0.122928
v -0.325819 -0.0487362 0.135429
v -0.308324 -0.0578528 0.139228
v 0.219641 -0.0803991 0.0939756
v -0.23836 0.16768 0.00708528
v -0.260401 0.167686 0.00708528
v -0.268045 -0.0771911 0.0931987
v 0.083686 0.0861955 0.0954521
v -0.327923 -0.0555867 0.132143
v -0.291854 0.160373 0.0299278
v -0.137781 0.116981 0.0813786
v -0.142352 0.0819368 0.0955745
v -0.271754 0.0642899 0.116406
v 0.130217 -0.134696 0.00708664
v 0.133281 -0.136088 0.0230238
v -0.17924 -0.0579167 0.0874991
v -0.182725 -0.049791 0.104084
v -0.2911 0.0542303 0.137309
v 0.319306 0.13169 0.0600355
v 0.0708774 -0.0966139 0.0389307
v 0.0601951 0.0817043 0.0966157
v -0.346696 -0.0906506 0.0745863
v -0.345742 -0.0892781 0.0808235
v -0.113985 0.104072 0.0881862
v -0.133445 0.120358 0.0775346
v 0.301122 0.0299893 0.0947164
v 0.0843815 -0.0817295 0.096339
v -0.348857 -0.0646488 0.0909852
v 0.288563 -0.0248805 0.0953662
v 0.299296 -0.00876008 0.0953
v -0.120239 0.0723858 0.0914627
v -0.141243 0.0719447 0.0860843
v -0.120255 0.0719991 0.0860843
v 0.180947 -0.118009 0.0764924
v 0.200538 -0.103781 0.0860955
v 0.180041 -0.102402 0.0873176
v 0.382379 0.0318042 0.0910868
v -0.0101654 -0.102047 0.0369049
v 0.156821 0.0719991 0.0860842
v -0.25227 0.0638239 0.11816
v -0.373194 0.0134514 0.111701
v -0.37378 -0.0139151 0.105915
v -0.372217 -0.0135517 0.11199
v -0.363888 -0.033626 0.116132
v -0.210153 -0.046181 0.139023
v -0.222877 -0.0480028 0.138552
v 0.373721 -0.0343177 0.0915551
v 0.35958 -0.0532273 0.0909583
v -0.0981058 -0.0719991 0.0860843
v -0.247359 -0.00690831 0.140347
v -0.257825 0.00577222 0.138929
v 0.0353006 0.0777321 0.097149
v -0.0527858 -0.0719991 0.0860842
v 0.199918 -0.0730442 0.0914082
v -0.268774 -0.0709409 0.0967034
v 0.171635 -0.156718 0.0332473
v -0.252029 0.0770688 0.0937256
v -0.259788 -0.0418027 0.140996
v -0.233037 0.0970731 0.091122
v -0.147817 0.15123 0.0153099
v 0.321775 -0.118321 0.0711304
v 0.25892 0.114402 0.0858725
v 0.240598 0.098364 0.0904679
v 0.261202 0.0981632 0.0904964
v 0.321585 0.118856 0.0701854
v -0.344244 0.050183 0.129524
v -0.0692504 -0.0969524 0.0390125
v -0.378978 -0.074349 0.0885403
v -0.382712 -0.0782549 0.0878425
v 0.134192 -0.0719409 0.0860842
v 0.109546 -0.0717946 0.0860842
v -0.213312 0.0650373 0.113641
v -0.0500321 0.10304 0.0359554
v 0.220275 -0.104443 0.0887499
v 0.333028 0.09433 0.0857403
v 0.334294 0.0958837 0.0797193
v -0.212631 -0.126073 0.0694204
v -0.366464 -0.0352579 0.104798
v 0.157232 0.0831614 0.0951713
v -0.231452 -0.00524695 0.0860843
v -0.231452 0.00605838 0.0860843
v 0.387768 0.0314678 0.0852598
v 0.38323 0.0102633 0.0917301
v -0.238373 -0.0411492 0.138514
v -0.246786 0.00643634 0.14038
v 0.237304 0.0719991 0.0860842
v 0.237499 0.072547 0.0913533
v -0.0890765 -0.0970346 0.0748073
v -0.154031 -0.158189 0.00708528
v -0.128626 0.120144 0.0722885
v 0.177808 -0.133937 0.0603829
v 0.200417 -0.119778 0.0745816
v -0.315747 0.110641 0.0873228
v -0.309996 0.0935821 0.089631
v -0.309784 0.109079 0.0872755
v 0.256207 0.0671613 0.0860842
v 0.267824 0.0549672 0.0860842
v 0.086779 -0.101035 0.0252794
v 0.0965403 -0.107517 0.00712014
v -0.223075 -0.0287871 0.13019
v 0.299485 -0.0745632 0.0917619
v 0.321115 -0.0550696 0.0923372
v -0.221923 -0.0549778 0.137965
v 0.255364 0.073289 0.0935013
v 0.138953 -0.139498 0.033406
v -0.188063 0.139475 0.0551757
v 0.37376 0.0672817 0.0894143
v 0.359675 0.0684714 0.0896054
v -0.278327 0.167692 0.00708528
v -0.387414 -0.0147581 0.0884296
v 0.154816 0.155243 0.025765
v -0.327134 -0.0523863 0.13598
v -0.278577 0.160074 0.0304191
v -0.361893 0.0321862 0.12568
v -0.369364 0.0123938 0.126809
v -0.388071 0.0374338 0.077208
v -0.125887 -0.128138 0.0263764
v -0.231452 0.0163913 0.0860843
v 0.0128077 0.0737211 0.0955203
v -0.181681 0.0276831 0.0860843
v 0.0834083 0.0890915 0.0919433
v -0.159386 -0.0696023 0.0860843
v -0.032308 0.0921713 0.063918
v 0.085278 0.0719991 0.0860842
v 0.0123662 -0.101535 0.0373684
v 0.0330851 -0.115382 0.0248656
v 0.382955 -0.0103796 0.091697
v -0.211546 -0.0319008 0.13873
v -0.210891 -0.0393037 0.139359
v -0.383216 0.0828442 0.0740709
v -0.358659 0.0884478 0.0744999
v -0.319535 -0.143224 0.0420772
v -0.321496 -0.138723 0.0386788
v 0.179641 -0.095522 0.0920895
v 0.200241 -0.087723 0.0933881
v 0.380757 0.0674924 0.0888258
v 0.262723 -0.159898 0.0307115
v 0.24451 -0.167682 0.00708526
v 0.388258 0.031219 0.0763343
v -0.272053 -0.0362207 0.140084
v -0.278664 -0.0417872 0.140084
v 0.280657 -0.043221 0.094892
v 0.276062 -0.0412002 0.0920475
v -0.200175 -0.0639455 0.11757
v 0.244666 0.167681 0.00708526
v -0.252662 -0.0839535 0.0926658
v 0.279639 -0.0732541 0.0927306
v 0.180338 0.108524 0.0873469
v -0.0978427 -0.0790364 0.0963625
v 0.239462 -0.125077 0.0704106
v 0.157854 -0.102293 0.0886558
v 0.13231 -0.100069 0.0920596
v -0.212794 -0.028173 0.119065
v -0.010128 -0.0952749 0.0449923
v -0.0102037 0.101679 0.0372374
v -0.0314547 0.115411 0.0248656
v -0.0316359 0.101144 0.0377099
v 0.178765 -0.0750006 0.0945787
v 0.0123843 -0.0951203 0.0453427
v 0.387205 -0.0543667 0.0751838
v 0.0119539 0.101946 0.036998
v -0.187995 -0.139592 0.0549169
v 0.316062 -0.00956039 0.0946637
v 0.151941 -0.155788 0.00708527
v 0.159158 -0.161586 0.00708533
v -0.199888 0.0642087 0.116581
v -0.167599 -0.0980747 0.0922805
v -0.388219 -0.0138498 0.0768069
v -0.388813 0.0136433 0.0768725
v -0.22118 -0.0264543 0.0860843
v 0.0124654 -0.093309 0.0553004
v -0.0102168 0.115411 0.0248656
v 0.220304 -0.0953069 0.0921749
v 0.220146 -0.0869235 0.0929232
v -0.0318901 0.0719991 0.0860842
v -0.189109 -0.0718998 0.0969486
v -0.0541758 0.0921014 0.0656724
v -0.0526903 -0.081344 0.0967014
v -0.052773 -0.0769553 0.0970268
v -0.0527659 0.0719991 0.0860842
v -0.313452 0.160002 0.0272231
v 0.335811 -0.0997373 0.0731998
v 0.32109 -0.127119 0.0573597
v -0.196266 -0.0372531 0.138281
v -0.237807 0.0066015 0.13905
v -0.233879 -0.00750578 0.130698
v -0.123167 0.127422 0.00708528
v 0.343703 -0.0551986 0.0915106
v 0.324029 -0.0341666 0.093695
v 0.0587298 -0.0912356 0.0724809
v -0.189619 0.0964128 0.0924237
v -0.100148 -0.106971 0.0293663
v -0.0997974 -0.109425 0.00708528
v 0.359639 -0.0343547 0.091911
v -0.273897 -0.16769 0.00708528
v 0.0123685 -0.115411 0.0248656
v 0.0352301 -0.0719991 0.0860842
v -0.198326 0.0299349 0.13566
v 0.220325 0.109457 0.0856999
v -0.182725 0.048659 0.104084
v -0.186476 0.0554876 0.117768
v -0.186105 0.0472142 0.116663
v 0.344616 -0.0348132 0.0928035
v 0.0598858 0.084818 0.0936066
v 0.0596658 0.0867237 0.0892716
v -0.232929 0.0632817 0.120166
v 0.239887 0.109879 0.0847762
v -0.360617 -0.0314228 0.130524
v -0.189661 0.0539715 0.129634
v -0.197659 0.0580924 0.136819
v -0.195786 0.0529848 0.13886
v -0.382845 0.080428 0.082525
v 0.141416 -0.14465 0.0163891
v -0.260424 0.0171962 0.138688
v 0.239215 0.124412 0.0708339
v -0.333099 0.0944257 0.0806703
v -0.0909463 -0.10269 0.0269402
v 0.335622 0.0973218 0.0734715
v 0.325725 0.108482 0.0727097
v 0.311834 -0.0316359 0.0942861
v -0.0832411 -0.100235 0.0248647
v -0.0917874 -0.105417 0.00708528
v -0.0848905 -0.102768 0.00708528
v 0.0333477 0.115411 0.0248656
v 0.359657 0.010851 0.0925488
v 0.156019 -0.115177 0.0811658
v -0.194556 0.0603378 0.129409
v 0.186743 0.167682 0.00708526
v -0.229199 -0.0237444 0.0860843
v -0.345637 0.0527279 0.118806
v 0.20014 -0.0822781 0.094183
v -0.0793912 -0.10095 0.0198107
v 0.280494 -0.148011 0.0510557
v 0.0592476 -0.088543 0.0845661
v -0.0322848 0.091015 0.0724187
v 0.315606 0.147283 0.0465283
v -0.360702 0.0105113 0.134881
v 0.238317 0.0766965 0.0937576
v -0.0532032 0.0907774 0.0750043
v 0.325348 -0.104888 0.0830029
v -0.231452 -0.0154822 0.0860843
v -0.216904 0.167681 0.00708516
v -0.236852 0.160377 0.0296729
v 0.134266 -0.0724185 0.0909747
v 0.156851 -0.0719991 0.0860842
v -0.301601 -0.167692 0.00708523
v -0.364076 0.0338493 0.115324
v 0.313542 0.102076 0.0867067
v -0.110967 0.116731 0.00708528
v -0.0527214 0.0858908 0.0906222
v -0.36513 -0.0344389 0.110614
v -0.290996 0.0867724 0.0910669
v -0.290996 0.102287 0.0892642
v 0.294912 -0.0271107 0.0951127
v -0.258626 -0.167686 0.00708528
v 0.175887 0.167683 0.00708521
v 0.359641 -0.0721131 0.0897097
v -0.32015 -0.154464 0.0205956
v -0.0527502 -0.0845999 0.093995
v -0.0101691 0.0952122 0.0451393
v 0.200372 -0.0957549 0.0915901
v 0.0651626 -0.0971478 0.0346381
v -0.0723818 -0.0904564 0.0840645
v 0.110683 -0.112027 0.0479372
v 0.125738 -0.125408 0.0439718
v -0.0669554 0.107225 0.0157746
v 0.158978 0.161674 0.00708533
v -0.181435 0.0544522 0.0860843
v -0.176394 0.0611583 0.0860843
v 0.0683223 0.105953 0.0147502
v 0.06824 0.104874 0.0168027
v 0.0119276 0.115411 0.0248656
v -0.333021 0.0887949 0.0891214
v -0.309996 0.0838693 0.0906508
v 0.140817 -0.145176 0.00708592
v 0.317537 -0.163967 0.00713169
v 0.319708 -0.160893 0.00717002
v 0.3213 -0.152109 0.00847601
v 0.316364 0.159307 0.0255452
v 0.317438 0.1667 0.0070855
v 0.319718 0.160873 0.00714433
v 0.0639216 0.110613 0.0195376
v -0.067503 0.103961 0.0183992
v 0.296489 -0.148835 0.0498931
v 0.0745747 -0.102112 0.00942755
v -0.0737902 -0.101061 0.0179333
v 0.063858 -0.107895 0.0195622
v -0.0766043 -0.0973012 0.0435801
v -0.0674749 -0.104305 0.0183626
v -0.0669046 -0.10576 0.0158923
v -0.079542 -0.102682 0.00835301
v -0.101769 -0.106844 0.0509628
v 0.316212 -0.12265 0.0824891
v -0.265507 0.0278628 0.138238
v -0.270235 0.0336878 0.137852
v -0.199598 -0.0264543 0.0860843
v -0.181681 -0.0276831 0.0860843
v -0.322073 0.151671 0.0133542
v -0.0560313 0.0937522 0.0531172
v 0.0594183 0.0939145 0.0530277
v 0.0594298 -0.0942524 0.0529824
v -0.383216 -0.0828442 0.0740709
v 0.382572 0.0836045 0.0729163
v -0.055881 -0.0943509 0.0533322
v 0.321452 0.150649 0.00845402
v -0.0738987 -0.103375 0.00983126
f 1 2 3
f 4 5 6
f 7 8 9
f 9 10 11
f 12 13 14
f 15 16 17
f 18 11 19
f 20 21 22
f 23 24 25
f 26 27 28
f 29 30 31
f 32 33 34
f 35 36 37
f 38 39 40
f 41 42 43
f 44 45 46
f 47 48 49
f 50 51 52
f 37 53 54
f 55 56 57
f 58 59 60
f 61 62 63
f 64 65 66
f 67 68 69
f 70 71 72
f 73 74 75
f 76 77 78
f 79 80 81
f 82 83 84
f 85 86 87
f 88 89 90
f 91 92 93
f 94 95 96
f 39 97 57
f 59 98 99
f 100 101 102
f 103 48 104
f 105 106 107
f 108 109 110
f 111 112 113
f 114 115 116
f 117 118 119
f 120 121 122
f 123 124 125
f 126 127 128
f 129 130 131
f 132 133 61
f 64 134 135
f 136 137 138
f 139 140 141
f 142 143 144
f 145 146 147
f 148 149 150
f 44 151 152
f 153 154 155
f 29 156 157
f 158 159 160
f 161 162 111
f 163 164 165
f 166 167 168
f 169 170 171
f 172 173 174
f 175 176 177
f 178 179 180
f 181 182 183
f 184 95 185
f 186 187 188
f 189 190 191
f 192 186 193
f 194 195 196
f 197 198 124
f 199 200 201
f 202 203 204
f 205 206 207
f 208 30 209
f 210 211 212
f 52 213 214
f 211 215 216
f 217 218 14
f 219 157 220
f 132 221 222
f 223 224 225
f 226 63 227
f 228 229 230
f 231 232 162
f 233 5 234
f 235 236 237
f 238 9 11
f 239 240 241
f 242 175 243
f 244 245 246
f 144 247 248
f 249 250 251
f 252 253 254
f 10 19 11
f 255 256 111
f 257 76 258
f 259 260 76
f 261 262 263
f 264 244 265
f 266 267 268
f 269 270 271
f 272 273 274
f 275 217 276
f 277 278 279
f 280 281 282
f 283 284 67
f 285 286 287
f 288 157 289
f 290 291 292
f 293 294 295
f 296 297 298
f 6 299 4
f 288 300 29
f 301 302 303
f 304 305 306
f 307 308 309
f 310 311 312
f 313 314 315
f 316 317 318
f 319 320 321
f 322 323 324
f 325 326 327
f 328 280 282
f 329 330 331
f 332 333 334
f 46 335 336
f 337 338 339
f 340 341 342
f 343 344 345
f 346 347 348
f 234 349 233
f 350 351 323
f 352 353 354
f 355 356 357
f 358 359 360
f 361 362 351
f 363 27 364
f 365 107 366
f 137 22 21
f 367 368 369
f 370 371 372
f 229 373 374
f 375 376 377
f 378 250 32
f 265 275 379
f 380 381 163
f 128 220 382
f 383 384 385
f 386 387 388
f 389 390 391
f 388 392 393
f 394 395 396
f 397 247 149
f 398 399 400
f 401 402 403
f 404 405 406
f 407 408 236
f 90 409 410
f 411 368 412
f 17 413 15
f 414 415 416
f 417 418 419
f 420 421 296
f 422 423 424
f 425 426 427
f 428 429 430
f 431 415 432
f 433 434 435
f 436 437 438
f 439 440 441
f 442 443 96
f 239 444 445
f 152 446 283
f 447 214 213
f 214 448 52
f 379 264 265
f 449 450 451
f 452 453 45
f 454 455 456
f 131 457 458
f 459 102 460
f 318 461 462
f 30 463 31
f 281 464 465
f 466 467 468
f 469 470 471
f 472 375 473
f 61 474 132
f 475 476 477
f 478 479 480
f 481 482 302
f 483 484 485
f 486 487 270
f 488 121 489
f 412 490 401
f 491 492 493
f 413 494 495
f 496 497 498
f 403 499 401
f 500 320 501
f 60 502 503
f 504 505 506
f 507 188 187
f 508 421 361
f 435 509 510
f 511 512 513
f 514 515 516
f 517 518 519
f 93 520 91
f 222 521 133
f 522 201 523
f 524 525 526
f 527 73 528
f 529 530 531
f 148 388 532
f 533 94 534
f 535 536 537
f 291 538 292
f 539 540 386
f 541 480 59
f 230 542 543
f 427 544 545
f 546 547 548
f 463 549 550
f 551 552 553
f 554 555 332
f 556 438 557
f 558 559 560
f 504 561 562
f 563 564 565
f 566 287 286
f 567 528 568
f 565 569 563
f 570 571 572
f 573 574 575
f 576 577 24
f 98 578 579
f 289 580 288
f 581 213 582
f 583 584 585
f 586 587 440
f 566 168 167
f 588 589 590
f 34 591 32
f 592 196 257
f 68 202 593
f 594 531 595
f 596 597 598
f 599 311 600
f 601 602 603
f 565 604 369
f 605 606 475
f 461 607 608
f 491 609 610
f 401 611 412
f 324 612 613
f 410 614 615
f 616 617 618
f 619 620 621
f 622 160 159
f 427 623 425
f 624 104 48
f 625 626 627
f 628 127 372
f 629 630 34
f 631 632 17
f 633 634 635
f 636 637 536
f 321 638 319
f 510 639 435
f 640 641 642
f 346 336 335
f 643 644 645
f 646 647 10
f 648 649 650
f 651 234 4
f 652 653 654
f 625 655 251
f 656 657 658
f 659 660 661
f 662 2 663
f 365 664 315
f 40 57 56
f 665 666 667
f 563 668 669
f 670 671 672
f 650 597 648
f 673 674 675
f 617 676 677
f 254 678 679
f 680 681 682
f 683 684 685
f 686 191 687
f 685 688 689
f 378 124 690
f 578 691 692
f 111 232 255
f 180 693 694
f 695 696 136
f 155 697 153
f 698 699 340
f 25 577 700
f 694 701 180
f 444 702 185
f 703 704 705
f 706 468 470
f 707 336 708
f 569 709 563
f 710 711 712
f 713 714 478
f 34 715 629
f 716 717 718
f 352 719 720
f 721 669 722
f 723 488 240
f 17 724 631
f 49 328 603
f 725 87 726
f 495 636 727
f 728 451 729
f 465 730 601
f 385 731 383
f 732 733 734
f 278 735 736
f 506 398 737
f 738 221 739
f 699 178 341
f 740 7 9
f 62 741 742
f 142 743 744
f 104 500 501
f 374 745 746
f 747 748 561
f 613 749 750
f 751 575 752
f 548 753 546
f 754 755 756
f 757 758 759
f 664 432 415
f 612 760 447
f 416 761 414
f 327 762 763
f 764 101 765
f 766 767 768
f 177 769 770
f 181 771 772
f 773 667 774
f 775 584 776
f 777 778 779
f 622 780 23
f 523 153 697
f 311 608 600
f 781 676 782
f 783 784 785
f 637 786 787
f 788 789 790
f 538 791 653
f 792 769 793
f 794 787 786
f 795 796 266
f 797 798 366
f 760 799 214
f 493 800 801
f 445 723 239
f 220 156 802
f 803 684 804
f 804 805 803
f 806 807 808
f 416 809 810
f 811 812 735
f 813 82 84
f 814 815 816
f 480 817 98
f 163 818 380
f 819 534 253
f 820 316 318
f 821 87 86
f 685 822 683
f 755 823 824
f 708 825 704
f 826 827 828
f 829 830 831
f 325 832 402
f 833 834 835
f 243 836 242
f 837 838 839
f 840 832 841
f 842 843 844
f 101 357 356
f 845 564 721
f 846 847 848
f 417 849 38
f 850 851 432
f 429 852 430
f 481 853 854
f 855 856 138
f 857 858 859
f 860 861 862
f 863 613 750
f 833 585 775
f 325 490 367
f 864 865 866
f 837 764 867
f 868 80 869
f 603 870 49
f 475 871 605
f 872 873 861
f 874 199 201
f 287 560 285
f 875 657 876
f 762 877 763
f 867 831 837
f 651 878 879
f 880 881 882
f 883 884 517
f 403 832 883
f 841 885 840
f 829 492 428
f 758 886 887
f 888 869 889
f 140 652 890
f 508 891 297
f 419 892 893
f 894 53 895
f 43 896 36
f 897 689 342
f 898 595 899
f 847 900 901
f 902 903 904
f 246 207 206
f 905 770 792
f 276 708 275
f 906 704 825
f 907 79 81
f 65 5 66
f 498 908 909
f 910 911 912
f 913 516 525
f 675 914 673
f 683 915 916
f 812 570 572
f 477 100 459
f 213 695 582
f 631 644 394
f 820 462 661
f 917 507 918
f 795 714 86
f 369 326 367
f 919 263 920
f 921 922 923
f 298 924 296
f 925 926 927
f 109 370 928
f 920 929 747
f 125 930 123
f 931 932 802
f 453 933 934
f 935 681 936
f 372 928 370
f 404 168 937
f 938 939 229
f 643 940 395
f 941 816 377
f 532 397 148
f 942 943 944
f 945 946 781
f 763 947 766
f 837 830 948
f 845 949 950
f 428 951 829
f 952 349 953
f 954 955 956
f 605 957 842
f 329 958 959
f 879 960 954
f 961 364 962
f 852 963 964
f 786 458 794
f 965 966 967
f 968 668 709
f 969 970 971
f 343 151 972
f 809 973 974
f 975 976 977
f 526 978 524
f 243 873 979
f 980 720 834
f 366 850 365
f 981 982 983
f 306 984 732
f 985 525 986
f 106 387 75
f 987 384 988
f 642 455 989
f 147 279 145
f 392 687 191
f 361 940 508
f 990 991 992
f 993 994 472
f 228 995 184
f 307 893 892
f 158 996 856
f 727 535 997
f 998 999 1000
f 1001 363 961
f 1002 1003 938
f 210 3 2
f 1004 1005 1006
f 1007 1008 852
f 742 63 62
f 177 1009 175
f 783 902 1010
f 1011 380 818
f 626 272 627
f 658 1012 507
f 509 67 69
f 1013 1014 408
f 1015 1016 656
f 1017 668 1018
f 1019 219 1020
f 1021 204 203
f 1022 357 1023
f 177 1024 1025
f 489 240 488
f 241 1026 239
f 337 1027 716
f 1028 533 819
f 372 1029 628
f 493 822 491
f 693 38 40
f 399 441 1030
f 460 1031 459
f 1032 889 1033
f 517 776 883
f 1034 785 1035
f 888 1036 868
f 1027 1037 717
f 476 1023 100
f 1038 545 1039
f 523 200 1040
f 377 473 375
f 198 190 626
f 1041 160 91
f 459 1042 477
f 653 292 538
f 626 124 198
f 653 1036 654
f 835 654 1036
f 1043 1044 471
f 505 439 399
f 1045 887 801
f 325 1046 841
f 1047 396 1048
f 147 1049 514
f 6 1050 1051
f 952 651 879
f 1052 1053 1054
f 748 971 1055
f 1007 618 1056
f 1057 263 674
f 983 374 373
f 1058 238 18
f 712 1059 710
f 807 273 355
f 1060 1010 1061
f 226 857 474
f 251 690 625
f 520 1062 1063
f 77 1064 78
f 787 1065 549
f 1066 1067 208
f 303 1068 903
f 1058 1069 1070
f 374 230 229
f 1071 145 195
f 912 691 910
f 273 1072 355
f 1073 536 637
f 1074 926 740
f 1075 276 217
f 316 523 697
f 782 1076 694
f 356 765 101
f 19 245 18
f 323 1077 612
f 909 1078 1079
f 192 1080 1081
f 1082 645 170
f 701 342 341
f 425 117 1083
f 87 1084 726
f 215 663 165
f 1072 1085 356
f 83 1086 1087
f 1088 1089 1075
f 470 527 706
f 682 1090 680
f 282 465 601
f 369 1091 565
f 735 572 1092
f 1093 1094 624
f 410 544 90
f 511 746 745
f 996 581 582
f 1095 1096 1097
f 1098 1099 1100
f 826 1101 872
f 1102 538 881
f 477 1103 475
f 1046 763 766
f 1053 1077 1104
f 609 689 616
f 1105 1106 1107
f 802 550 931
f 978 1108 524
f 384 263 262
f 1109 338 1110
f 1111 1112 349
f 450 729 451
f 341 180 701
f 546 1113 1016
f 1114 1115 1037
f 1033 585 1032
f 1085 1116 765
f 768 1117 548
f 768 1046 766
f 460 764 839
f 1110 199 1109
f 481 789 1118
f 110 1119 108
f 1120 691 173
f 893 1121 419
f 718 1122 716
f 110 928 126
f 1123 1000 893
f 262 297 891
f 335 1124 346
f 937 1125 404
f 1126 1127 1128
f 119 1129 117
f 394 1130 631
f 292 1131 290
f 191 393 392
f 479 266 817
f 268 910 691
f 1132 571 1133
f 722 1134 1135
f 739 904 903
f 811 913 985
f 165 1087 215
f 503 1091 411
f 1136 1052 1054
f 301 1035 853
f 204 1137 202
f 738 1138 521
f 1139 792 1140
f 510 69 641
f 419 448 417
f 962 649 1141
f 811 1142 922
f 414 315 664
f 1016 876 657
f 1143 808 1022
f 970 1144 1145
f 1146 1147 956
f 1148 1110 338
f 326 845 762
f 359 1149 1114
f 1049 932 514
f 844 1150 1151
f 719 1152 890
f 439 561 586
f 567 621 1014
f 991 726 1084
f 20 24 780
f 819 1153 1028
f 1154 972 151
f 205 998 1123
f 713 583 1033
f 1155 1156 1098
f 261 437 924
f 959 312 599
f 1157 1158 1159
f 736 1092 380
f 332 858 554
f 465 1160 1161
f 1038 118 623
f 817 268 578
f 407 706 527
f 972 805 343
f 464 1150 1160
f 1162 1163 496
f 127 219 128
f 309 218 206
f 395 350 322
f 310 339 1164
f 1165 1166 633
f 749 1041 1063
f 628 199 1167
f 113 1168 281
f 1169 909 1079
f 452 152 434
f 637 549 1073
f 487 1128 255
f 206 1170 246
f 1000 50 1121
f 862 1171 1172
f 1022 606 1143
f 974 810 809
f 801 915 493
f 1074 1173 224
f 25 813 1174
f 1175 248 247
f 537 1176 1066
f 1177 740 238
f 1178 131 1179
f 1180 700 577
f 120 1181 489
f 1063 750 749
f 339 659 1164
f 46 1154 44
f 971 1145 1182
f 936 1172 935
f 1045 800 1183
f 400 1030 1184
f 734 679 678
f 1143 866 865
f 1177 1070 1173
f 1185 189 686
f 741 531 530
f 1147 954 956
f 598 26 729
f 457 794 458
f 1012 1186 188
f 1187 851 943
f 839 1188 460
f 824 756 755
f 754 424 806
f 1189 1190 907
f 901 848 847
f 834 652 654
f 1191 879 954
f 1192 338 1193
f 422 756 846
f 1194 778 1195
f 37 927 35
f 355 808 807
f 1196 212 1197
f 164 83 1087
f 1198 1199 752
f 861 1200 1171
f 1201 1202 559
f 828 1147 826
f 1146 955 1203
f 772 3 181
f 1065 515 931
f 1133 84 83
f 14 1075 217
f 687 314 686
f 300 1204 1205
f 973 345 344
f 462 659 661
f 230 1001 228
f 360 310 358
f 1206 965 1207
f 1040 1208 153
f 601 328 282
f 112 901 900
f 1034 303 902
f 118 1140 119
f 615 1209 629
f 334 135 332
f 194 390 1210
f 995 961 442
f 132 1165 1211
f 1107 1108 457
f 1178 1130 1047
f 627 1212 625
f 677 618 617
f 45 934 335
f 1213 658 917
f 962 442 961
f 133 1214 62
f 495 15 413
f 429 610 1007
f 99 1215 1216
f 1217 461 608
f 319 936 681
f 468 471 470
f 1189 1218 1102
f 616 610 609
f 1219 1220 1221
f 788 1018 1222
f 1223 791 1218
f 1062 863 750
f 4 1224 651
f 1219 1044 1225
f 765 867 764
f 680 501 320
f 417 799 1052
f 1141 1226 962
f 321 1227 294
f 912 1228 1229
f 446 345 284
f 411 60 503
f 849 1230 39
f 514 277 147
f 933 1124 934
f 78 814 941
f 635 1061 1211
f 542 513 1231
f 835 1032 833
f 1223 907 81
f 986 1142 985
f 709 575 968
f 1232 700 1233
f 608 1234 600
f 831 800 829
f 1235 1036 791
f 1225 1236 1219
f 1199 1237 1238
f 430 1239 428
f 1235 81 80
f 731 331 330
f 761 313 414
f 241 1181 588
f 715 486 269
f 512 1240 728
f 1241 67 284
f 184 938 228
f 420 924 436
f 185 1002 184
f 677 946 1095
f 310 958 358
f 979 1203 836
f 775 980 833
f 775 519 353
f 1242 840 1243
f 430 964 1244
f 1245 225 484
f 1137 1220 115
f 736 279 278
f 406 1246 554
f 351 1104 1077
f 412 58 411
f 1247 667 666
f 1136 557 1230
f 613 447 581
f 383 330 969
f 1193 874 1248
f 1249 1250 731
f 539 743 619
f 886 810 916
f 827 293 295
f 728 513 512
f 981 547 1015
f 179 418 693
f 433 1251 453
f 1 670 1064
f 1252 1253 1166
f 1033 1254 713
f 203 1241 1187
f 1179 458 494
f 1255 12 308
f 1045 759 758
f 1256 590 1257
f 1258 828 827
f 1259 672 671
f 1102 1260 1189
f 1243 885 547
f 883 584 403
f 721 1135 949
f 762 950 1261
f 548 885 768
f 596 450 108
f 647 207 19
f 1116 1183 867
f 373 1242 983
f 504 1262 919
f 1263 251 655
f 1264 1265 1266
f 1112 1267 1252
f 1026 1152 444
f 1008 1097 963
f 1268 1185 1269
f 423 272 274
f 126 146 110
f 68 641 69
f 107 75 74
f 802 382 220
f 396 322 1048
f 1270 436 556
f 944 851 798
f 1263 1127 1271
f 1013 527 528
f 1272 494 786
f 209 300 1205
f 1174 84 571
f 1179 632 1178
f 1273 1274 1275
f 779 1276 576
f 1207 967 784
f 1169 1277 911
f 25 570 23
f 306 473 304
f 197 1175 397
f 988 1278 987
f 1279 33 249
f 856 582 695
f 1208 449 154
f 1057 1275 437
f 1078 1277 1079
f 1121 52 448
f 894 778 1280
f 139 1256 1281
f 697 1081 316
f 256 1127 901
f 119 1282 1283
f 391 994 389
f 561 1055 586
f 1166 1284 633
f 619 568 539
f 1285 1286 1287
f 759 1268 757
f 75 540 73
f 1253 1227 1284
f 1278 1149 987
f 918 187 512
f 469 944 797
f 1288 468 467
f 720 890 652
f 203 943 1021
f 629 269 615
f 93 923 1106
f 56 945 781
f 149 143 744
f 860 293 1289
f 246 265 244
f 694 40 782
f 376 257 258
f 825 348 906
f 615 271 410
f 99 579 1290
f 557 1274 1291
f 937 774 667
f 1123 309 205
f 13 1088 1075
f 1141 389 994
f 916 887 886
f 929 969 748
f 1138 1156 551
f 32 1292 378
f 600 1293 599
f 129 1047 1294
f 1242 517 884
f 1295 1238 1068
f 828 952 1191
f 366 74 797
f 1054 556 1136
f 443 253 534
f 1088 803 805
f 674 1262 675
f 1131 1285 1296
f 1297 227 63
f 974 344 804
f 821 889 869
f 1094 634 500
f 360 1114 1027
f 1222 968 751
f 499 1298 611
f 364 650 649
f 104 1090 103
f 1265 914 1266
f 979 1101 1146
f 1241 1299 1187
f 1140 793 1282
f 1053 1270 1054
f 386 150 539
f 1093 47 965
f 987 1249 385
f 1071 1210 596
f 1265 57 97
f 97 1273 1265
f 1083 1300 425
f 315 105 365
f 892 1255 307
f 727 1301 15
f 1302 824 823
f 1303 431 1299
f 554 1304 406
f 80 821 869
f 1231 28 27
f 1089 707 276
f 249 1271 1279
f 304 816 815
f 1048 324 863
f 902 1061 1010
f 1060 1093 1206
f 599 1305 959
f 500 1284 1227
f 122 1028 1153
f 783 1206 1207
f 1306 1307 244
f 379 708 704
f 1308 1309 1134
f 1250 958 331
f 686 1269 1185
f 288 1148 1122
f 842 866 605
f 47 870 966
f 1048 1294 1047
f 983 1243 981
f 295 1258 827
f 329 1305 1144
f 8 646 10
f 1310 772 771
f 128 1049 126
f 354 519 518
f 1311 1105 130
f 471 942 469
f 1068 482 1295
f 1229 173 912
f 267 1169 910
f 161 103 1090
f 678 1226 734
f 1015 1213 981
f 673 1273 1275
f 1210 648 597
f 23 921 622
f 308 14 218
f 1312 1039 232
f 435 1313 433
f 74 469 797
f 916 1314 683
f 999 696 50
f 342 688 340
f 1294 1311 129
f 108 1071 596
f 334 1050 65
f 655 848 1263
f 524 1315 986
f 920 504 919
f 91 1063 1041
f 1316 646 1317
f 1315 1106 1142
f 745 918 511
f 1060 634 1318
f 1215 502 1216
f 903 1238 739
f 1319 815 1259
f 1267 294 1253
f 1055 1182 587
f 844 864 842
f 737 1266 914
f 806 865 754
f 125 1292 1320
f 660 1193 1248
f 54 1280 777
f 1291 1230 557
f 406 166 404
f 734 993 732
f 66 1321 64
f 434 283 509
f 534 96 443
f 200 371 1040
f 424 274 807
f 284 1303 1241
f 1231 543 542
f 181 1196 1322
f 73 568 528
f 1095 1056 677
f 464 1302 1151
f 432 1299 431
f 939 1323 373
f 982 917 745
f 1281 1257 1286
f 872 1289 826
f 777 1157 54
f 1064 672 814
f 921 92 622
f 1151 823 844
f 638 862 936
f 185 445 444
f 890 141 140
f 729 28 728
f 70 881 291
f 1269 757 1268
f 1142 923 922
f 1324 1221 204
f 1076 897 701
f 1164 1217 311
f 35 1245 483
f 1270 362 420
f 1138 1325 1099
f 846 1212 422
f 1021 1044 1324
f 977 1190 975
f 1084 79 1326
f 516 526 525
f 1107 130 1105
f 96 995 442
f 743 149 744
f 1067 1073 463
f 541 611 1298
f 354 1327 352
f 1168 900 1302
f 593 1137 114
f 36 895 53
f 737 1262 506
f 702 1327 1002
f 138 695 136
f 1003 518 939
f 1279 1126 486
f 1328 909 1329
f 456 1330 454
f 681 162 682
f 18 1307 1058
f 574 752 575
f 804 1314 974
f 123 1331 1175
f 426 90 544
f 580 1167 1110
f 1167 1020 628
f 782 56 781
f 472 732 993
f 55 1332 1333
f 232 487 255
f 393 532 388
f 188 193 186
f 391 592 376
f 1328 85 725
f 1083 1129 711
f 171 891 169
f 463 156 31
f 931 549 1065
f 1211 904 221
f 235 1334 1335
f 437 1274 438
f 1336 1043 1288
f 779 20 22
f 1337 779 22
f 159 21 780
f 262 988 384
f 1338 1337 137
f 21 138 137
f 1276 1180 577
f 1132 164 381
f 688 698 340
f 114 456 593
f 76 941 258
f 1322 1197 182
f 258 377 376
f 154 451 1240
f 195 818 196
f 1338 696 1316
f 349 1321 233
f 145 1011 195
f 1092 1132 381
f 1158 1316 1317
f 1159 1317 8
f 259 196 818
f 223 927 926
f 43 483 41
f 1157 7 925
f 925 54 1157
f 155 1240 186
f 1326 977 976
f 1339 911 1277
f 1340 773 286
f 665 1341 1342
f 635 1165 633
f 1321 1252 134
f 1166 134 1252
f 161 113 280
f 88 1300 1343
f 1344 1343 1345
f 1343 710 1059
f 1297 1201 558
f 1059 1345 1343
f 1346 1335 1334
f 235 466 706
f 116 1347 114
f 593 455 68
f 243 1009 1200
f 1009 1171 1200
f 1025 1172 1171
f 1024 935 1172
f 905 231 935
f 1139 1312 231
f 545 271 270
f 270 1039 545
f 669 1308 722
f 1214 553 741
f 692 899 1155
f 553 595 531
f 742 530 1201
f 286 774 566
f 167 1348 566
f 1348 558 287
f 992 1005 1349
f 1326 991 1084
f 1350 71 290
f 1296 290 1131
f 1351 1006 976
f 976 1005 1326
f 1131 140 1352
f 1254 86 714
f 498 725 496
f 496 726 1162
f 796 1329 267
f 1298 478 541
f 72 1353 1354
f 1287 1296 1285
f 1355 1350 1296
f 1356 141 1026
f 1356 588 1256
f 1352 1281 1285
f 1238 738 739
f 482 751 1295
f 1118 1222 482
f 1290 1100 1215
f 1215 1198 574
f 1017 790 1309
f 1295 752 1199
f 1120 898 899
f 552 899 595
f 579 692 1155
f 521 551 1214
f 579 1098 1290
f 1325 1100 1099
f 167 226 227
f 1216 59 99
f 573 503 502
f 474 859 1165
f 1304 1357 166
f 858 134 859
f 216 1087 1086
f 1350 1354 1353
f 716 1148 337
f 1358 891 1359
f 2 260 663
f 1082 508 940
f 663 163 165
f 1266 400 1264
f 1360 317 1361
f 1248 661 660
f 522 1248 874
f 483 1362 41
f 1 77 2
f 4 234 5
f 7 1159 8
f 9 8 10
f 12 699 13
f 15 1301 16
f 18 238 11
f 20 780 21
f 23 780 24
f 26 650 27
f 29 300 30
f 32 250 33
f 35 43 36
f 38 849 39
f 41 1362 42
f 44 452 45
f 47 624 48
f 50 696 51
f 37 36 53
f 55 1333 56
f 58 541 59
f 61 133 62
f 64 334 65
f 67 1363 68
f 70 291 71
f 73 1364 74
f 76 260 77
f 79 1365 80
f 82 1366 83
f 85 795 86
f 88 1344 89
f 91 160 92
f 94 445 95
f 39 1230 97
f 59 480 98
f 100 1023 101
f 103 328 48
f 105 687 106
f 108 450 109
f 111 256 112
f 114 1137 115
f 117 623 118
f 120 489 121
f 123 197 124
f 126 928 127
f 129 1311 130
f 132 222 133
f 64 1321 134
f 136 1338 137
f 139 1352 140
f 142 744 143
f 145 1119 146
f 148 397 149
f 44 1154 151
f 153 1208 154
f 29 31 156
f 158 855 159
f 161 682 162
f 163 381 164
f 166 1357 167
f 169 1082 170
f 172 1120 173
f 175 1367 176
f 178 1255 179
f 181 1322 182
f 184 995 95
f 186 1240 187
f 189 272 190
f 192 155 186
f 194 1071 195
f 197 532 198
f 199 1029 200
f 202 1363 203
f 205 309 206
f 208 1067 30
f 210 662 211
f 52 51 213
f 211 662 215
f 217 1170 218
f 219 289 157
f 132 1211 221
f 223 1074 224
f 226 61 63
f 228 938 229
f 231 1312 232
f 233 66 5
f 235 407 236
f 238 740 9
f 239 723 240
f 242 1367 175
f 244 1307 245
f 144 143 247
f 249 33 250
f 252 819 253
f 10 647 19
f 255 1128 256
f 257 259 76
f 259 163 260
f 261 298 262
f 264 1306 244
f 266 796 267
f 269 486 270
f 272 189 273
f 275 1170 217
f 277 913 278
f 280 113 281
f 283 446 284
f 285 1340 286
f 288 29 157
f 290 71 291
f 293 321 294
f 296 421 297
f 6 1051 299
f 288 1122 300
f 301 481 302
f 304 1319 305
f 307 1255 308
f 310 1164 311
f 313 1269 314
f 316 1081 317
f 319 680 320
f 322 350 323
f 325 367 326
f 328 103 280
f 329 970 330
f 332 555 333
f 46 45 335
f 337 1148 338
f 340 699 341
f 343 805 344
f 346 1124 347
f 234 953 349
f 350 361 351
f 352 980 353
f 355 1072 356
f 358 1250 359
f 361 421 362
f 363 1231 27
f 365 105 107
f 137 1337 22
f 367 490 368
f 370 1208 371
f 229 939 373
f 375 391 376
f 378 690 250
f 265 1170 275
f 380 1092 381
f 128 219 220
f 383 929 384
f 386 540 387
f 389 648 390
f 388 387 392
f 394 643 395
f 397 1175 247
f 398 505 399
f 401 490 402
f 404 1125 405
f 407 1013 408
f 90 89 409
f 411 1091 368
f 17 632 413
f 414 664 415
f 417 38 418
f 420 362 421
f 422 1212 423
f 425 1300 426
f 428 492 429
f 431 809 415
f 433 452 434
f 436 924 437
f 439 586 440
f 442 1226 443
f 239 1026 444
f 152 151 446
f 447 760 214
f 214 799 448
f 379 703 264
f 449 109 450
f 452 433 453
f 454 989 455
f 131 130 457
f 459 100 102
f 318 317 461
f 30 1067 463
f 281 1168 464
f 466 1346 467
f 469 1364 470
f 472 994 375
f 61 226 474
f 475 606 476
f 478 714 479
f 481 1118 482
f 483 1245 484
f 486 1126 487
f 488 1028 121
f 412 368 490
f 491 429 492
f 413 1179 494
f 496 1163 497
f 403 584 499
f 500 1227 320
f 60 1216 502
f 504 562 505
f 507 1012 188
f 508 297 421
f 435 434 509
f 511 918 512
f 514 932 515
f 517 1323 518
f 93 1105 520
f 222 738 521
f 522 874 201
f 524 986 525
f 527 1364 73
f 529 1202 530
f 148 386 388
f 533 723 94
f 535 636 536
f 291 881 538
f 539 568 540
f 541 478 480
f 230 746 542
f 427 426 544
f 546 1015 547
f 463 1073 549
f 551 1156 552
f 554 1246 555
f 556 436 438
f 558 1201 559
f 504 747 561
f 563 669 564
f 566 1348 287
f 567 1013 528
f 565 1091 569
f 570 1174 571
f 573 502 574
f 576 1276 577
f 98 817 578
f 289 1019 580
f 581 447 213
f 583 499 584
f 586 1055 587
f 566 774 168
f 588 1181 589
f 34 630 591
f 592 194 196
f 68 1363 202
f 594 529 531
f 596 1210 597
f 599 312 311
f 601 730 602
f 565 564 604
f 605 866 606
f 461 1360 607
f 491 822 609
f 401 499 611
f 324 323 612
f 410 409 614
f 616 897 617
f 619 743 620
f 622 92 160
f 427 1038 623
f 624 1094 104
f 625 690 626
f 628 1020 127
f 629 1209 630
f 631 1130 632
f 633 1284 634
f 636 1272 637
f 321 293 638
f 510 640 639
f 640 510 641
f 346 825 336
f 643 394 644
f 646 998 647
f 648 389 649
f 651 953 234
f 652 1368 653
f 625 1212 655
f 656 1016 657
f 659 1192 660
f 662 210 2
f 365 850 664
f 40 39 57
f 665 1342 666
f 563 709 668
f 670 1310 671
f 650 26 597
f 673 1057 674
f 617 1076 676
f 254 253 678
f 680 319 681
f 683 1314 684
f 686 189 191
f 685 684 688
f 378 125 124
f 578 268 691
f 111 162 232
f 180 179 693
f 695 51 696
f 155 192 697
f 698 13 699
f 25 24 577
f 694 1076 701
f 444 1152 702
f 703 379 704
f 706 466 468
f 707 46 336
f 569 573 709
f 710 1083 711
f 713 1254 714
f 34 33 715
f 716 1027 717
f 352 1327 719
f 721 564 669
f 723 533 488
f 17 16 724
f 49 48 328
f 725 85 87
f 495 1272 636
f 728 1240 451
f 465 1161 730
f 385 1249 731
f 732 984 733
f 278 811 735
f 506 505 398
f 738 222 221
f 699 12 178
f 740 926 7
f 62 1214 741
f 142 620 743
f 104 1094 500
f 374 982 745
f 747 929 748
f 613 581 749
f 751 968 575
f 548 1117 753
f 754 865 755
f 757 761 758
f 664 850 432
f 612 1077 760
f 416 886 761
f 327 326 762
f 764 102 101
f 766 947 767
f 177 176 769
f 181 183 771
f 773 665 667
f 775 585 584
f 777 1280 778
f 622 159 780
f 523 1040 153
f 311 1217 608
f 781 946 676
f 783 1207 784
f 637 1272 786
f 788 1118 789
f 538 1218 791
f 792 770 769
f 794 978 787
f 795 85 796
f 797 944 798
f 760 1053 799
f 493 492 800
f 445 94 723
f 220 157 156
f 803 688 684
f 804 344 805
f 806 424 807
f 416 415 809
f 811 922 812
f 813 1232 82
f 814 672 815
f 480 479 817
f 163 259 818
f 819 533 534
f 820 522 316
f 821 1365 87
f 685 609 822
f 755 864 823
f 708 336 825
f 826 1289 827
f 829 951 830
f 325 841 832
f 833 980 834
f 243 979 836
f 837 948 838
f 840 884 832
f 842 957 843
f 101 1023 357
f 845 604 564
f 846 756 847
f 417 1052 849
f 850 798 851
f 429 1007 852
f 481 301 853
f 855 158 856
f 857 1304 858
f 860 872 861
f 863 324 613
f 833 1032 585
f 325 402 490
f 864 755 865
f 837 839 764
f 868 1235 80
f 603 602 870
f 475 1103 871
f 872 1101 873
f 874 1109 199
f 287 558 560
f 875 1012 657
f 762 1261 877
f 867 1183 831
f 651 1224 878
f 880 1102 881
f 883 832 884
f 403 402 832
f 841 1046 885
f 829 800 492
f 758 761 886
f 888 868 869
f 140 1368 652
f 508 169 891
f 419 418 892
f 894 1280 53
f 43 42 896
f 897 616 689
f 898 594 595
f 847 824 900
f 902 303 903
f 246 245 207
f 905 1024 770
f 276 707 708
f 906 705 704
f 907 977 79
f 65 6 5
f 498 497 908
f 910 1169 911
f 913 277 516
f 675 737 914
f 683 822 915
f 812 921 570
f 477 476 100
f 213 51 695
f 631 724 644
f 820 318 462
f 917 658 507
f 795 479 714
f 369 604 326
f 919 674 263
f 921 812 922
f 298 261 924
f 925 7 926
f 109 449 370
f 920 384 929
f 125 1320 930
f 931 515 932
f 453 1251 933
f 935 231 681
f 372 127 928
f 404 166 168
f 938 1003 939
f 643 1082 940
f 941 814 816
f 532 197 397
f 942 1021 943
f 945 1096 946
f 763 877 947
f 837 831 830
f 845 721 949
f 428 1239 951
f 952 1111 349
f 954 960 955
f 605 871 957
f 329 331 958
f 879 878 960
f 961 363 364
f 852 1008 963
f 786 494 458
f 965 47 966
f 968 1018 668
f 969 330 970
f 343 446 151
f 809 431 973
f 975 1351 976
f 526 1065 978
f 243 1200 873
f 980 352 720
f 366 798 850
f 981 1213 982
f 306 305 984
f 985 913 525
f 106 392 387
f 987 385 384
f 642 641 455
f 147 277 279
f 392 106 687
f 361 350 940
f 990 1162 991
f 993 1141 994
f 228 1001 995
f 307 1123 893
f 158 1041 996
f 727 636 535
f 998 646 999
f 1001 543 363
f 1002 1327 1003
f 210 1196 3
f 1004 1349 1005
f 1007 1056 1008
f 742 1297 63
f 177 1025 1009
f 783 1034 902
f 1011 736 380
f 626 190 272
f 658 657 1012
f 509 283 67
f 1013 567 1014
f 1015 546 1016
f 1017 1308 668
f 1019 289 219
f 1021 1324 204
f 1022 808 357
f 177 770 1024
f 489 1181 240
f 241 1356 1026
f 337 360 1027
f 1028 488 533
f 372 371 1029
f 493 915 822
f 693 418 38
f 399 439 441
f 460 1188 1031
f 1032 888 889
f 517 519 776
f 1034 783 785
f 888 835 1036
f 1027 1114 1037
f 476 1022 1023
f 1038 427 545
f 523 201 200
f 377 816 473
f 198 393 190
f 1041 158 160
f 459 1031 1042
f 653 1368 292
f 626 690 124
f 653 791 1036
f 835 834 654
f 1043 1225 1044
f 505 562 439
f 1045 758 887
f 325 327 1046
f 1047 1130 396
f 147 146 1049
f 6 65 1050
f 952 953 651
f 1052 799 1053
f 748 969 971
f 1007 610 618
f 1057 261 263
f 983 982 374
f 1058 1177 238
f 712 1369 1059
f 807 274 273
f 1060 1206 1010
f 226 1357 857
f 251 250 690
f 520 1311 1062
f 77 1 1064
f 787 978 1065
f 1066 1176 1067
f 303 302 1068
f 1058 1307 1069
f 374 746 230
f 1071 1119 145
f 912 173 691
f 273 1185 1072
f 1073 1176 536
f 1074 223 926
f 1075 1089 276
f 316 522 523
f 782 676 1076
f 356 1085 765
f 19 207 245
f 323 351 1077
f 909 908 1078
f 192 193 1080
f 1082 643 645
f 701 897 342
f 425 623 117
f 87 1365 1084
f 215 662 663
f 1072 1268 1085
f 83 1366 1086
f 1088 972 1089
f 470 1364 527
f 682 161 1090
f 282 281 465
f 369 368 1091
f 735 812 572
f 1093 1318 1094
f 410 271 544
f 511 542 746
f 996 749 581
f 1095 946 1096
f 1098 1156 1099
f 826 1147 1101
f 1102 1218 538
f 477 1042 1103
f 1046 327 763
f 1053 760 1077
f 609 685 689
f 1105 93 1106
f 802 156 550
f 978 794 1108
f 384 920 263
f 1109 1193 338
f 1111 1258 1112
f 450 598 729
f 341 178 180
f 546 753 1113
f 1114 1149 1115
f 1033 583 585
f 1085 759 1116
f 768 767 1117
f 768 885 1046
f 460 102 764
f 1110 1167 199
f 481 854 789
f 110 146 1119
f 1120 692 691
f 893 1000 1121
f 718 1204 1122
f 110 109 928
f 1123 998 1000
f 262 298 297
f 335 934 1124
f 937 1247 1125
f 1126 1271 1127
f 119 1283 1129
f 394 396 1130
f 292 1368 1131
f 191 190 393
f 479 795 266
f 268 267 910
f 1132 572 571
f 722 1308 1134
f 739 221 904
f 811 278 913
f 165 164 1087
f 503 569 1091
f 1136 849 1052
f 301 1034 1035
f 204 1221 1137
f 738 1237 1138
f 1139 905 792
f 510 509 69
f 419 1121 448
f 962 364 649
f 811 985 1142
f 414 313 315
f 1016 1113 876
f 1143 806 808
f 970 329 1144
f 1146 1101 1147
f 1148 580 1110
f 326 604 845
f 359 1249 1149
f 1049 382 932
f 844 843 1150
f 719 702 1152
f 439 562 561
f 567 619 621
f 991 1162 726
f 20 576 24
f 819 252 1153
f 1154 1089 972
f 205 647 998
f 713 1298 583
f 1155 552 1156
f 261 1057 437
f 959 958 312
f 1157 1337 1158
f 736 735 1092
f 332 135 858
f 465 464 1160
f 1038 1312 118
f 817 266 268
f 407 235 706
f 972 1088 805
f 464 1151 1150
f 1162 990 1163
f 127 1020 219
f 309 308 218
f 395 940 350
f 310 337 339
f 1165 859 1166
f 749 996 1041
f 628 1029 199
f 113 112 1168
f 1169 1329 909
f 452 44 152
f 637 787 549
f 487 1126 1128
f 206 218 1170
f 1000 999 50
f 862 861 1171
f 1022 476 606
f 974 1314 810
f 801 887 915
f 1074 1177 1173
f 25 700 813
f 1175 1331 248
f 537 536 1176
f 1177 1074 740
f 1178 129 131
f 1180 1233 700
f 120 589 1181
f 1063 1062 750
f 339 1192 659
f 46 707 1154
f 971 970 1145
f 936 862 1172
f 1045 801 800
f 400 399 1030
f 734 733 679
f 1143 606 866
f 1177 1058 1070
f 1185 273 189
f 741 553 531
f 1147 1191 954
f 598 597 26
f 457 1108 794
f 1012 875 1186
f 1187 1299 851
f 839 838 1188
f 824 847 756
f 754 422 424
f 1189 1260 1190
f 901 1127 848
f 834 720 652
f 1191 952 879
f 1192 339 338
f 422 754 756
f 1194 1276 778
f 37 925 927
f 355 357 808
f 1196 210 212
f 164 1133 83
f 1198 1325 1199
f 861 873 1200
f 1201 530 1202
f 828 1191 1147
f 1146 956 955
f 772 1 3
f 1065 526 515
f 1133 571 84
f 14 13 1075
f 687 105 314
f 300 1122 1204
f 973 1303 345
f 462 1217 659
f 230 543 1001
f 360 337 310
f 1206 1093 965
f 1040 371 1208
f 601 603 328
f 112 256 901
f 1034 301 303
f 118 1139 1140
f 615 614 1209
f 334 64 135
f 194 592 390
f 995 1001 961
f 132 474 1165
f 1107 1315 1108
f 1178 632 1130
f 627 423 1212
f 677 1056 618
f 45 453 934
f 1213 656 658
f 962 1226 442
f 133 521 1214
f 495 727 15
f 429 491 610
f 99 1290 1215
f 1217 462 461
f 319 638 936
f 468 1043 471
f 1189 1223 1218
f 616 618 610
f 1219 1236 1220
f 788 1017 1018
f 1223 1235 791
f 1062 1294 863
f 4 299 1224
f 1219 1324 1044
f 765 1116 867
f 680 1090 501
f 417 448 799
f 1141 993 1226
f 321 320 1227
f 912 911 1228
f 446 343 345
f 411 58 60
f 849 1136 1230
f 514 516 277
f 933 347 1124
f 78 1064 814
f 635 1060 1061
f 542 511 513
f 835 888 1032
f 1223 1189 907
f 986 1315 1142
f 709 573 575
f 1232 813 700
f 608 607 1234
f 831 1183 800
f 1235 868 1036
f 1225 1336 1236
f 1199 1325 1237
f 430 1244 1239
f 1235 1223 81
f 731 1250 331
f 761 757 313
f 241 240 1181
f 715 1279 486
f 512 187 1240
f 1241 1363 67
f 184 1002 938
f 420 296 924
f 185 702 1002
f 677 676 946
f 310 312 958
f 979 1146 1203
f 775 353 980
f 775 776 519
f 1242 884 840
f 430 852 964
f 1245 223 225
f 1137 1221 1220
f 736 1011 279
f 406 405 1246
f 351 362 1104
f 412 611 58
f 1247 937 667
f 1136 556 557
f 613 612 447
f 383 731 330
f 1193 1109 874
f 1249 359 1250
f 539 150 743
f 886 416 810
f 827 1289 293
f 728 28 513
f 981 1243 547
f 179 892 418
f 433 1313 1251
f 1 772 670
f 1252 1267 1253
f 1033 889 1254
f 203 1363 1241
f 1179 131 458
f 1255 178 12
f 1045 1116 759
f 1256 588 590
f 1258 1111 828
f 1259 815 672
f 1102 880 1260
f 1243 840 885
f 883 776 584
f 721 722 1135
f 762 845 950
f 548 547 885
f 596 598 450
f 647 205 207
f 1116 1045 1183
f 373 1323 1242
f 504 506 1262
f 1263 249 251
f 1264 55 1265
f 1112 1258 1267
f 1026 141 1152
f 1008 1095 1097
f 1268 1072 1185
f 423 627 272
f 126 1049 146
f 68 455 641
f 107 106 75
f 802 932 382
f 396 395 322
f 1270 420 436
f 944 943 851
f 1263 848 1127
f 1013 407 527
f 1272 495 494
f 209 30 300
f 1174 813 84
f 1179 413 632
f 1273 1291 1274
f 779 778 1276
f 1207 965 967
f 1169 1079 1277
f 25 1174 570
f 306 472 473
f 197 123 1175
f 988 1358 1278
f 1279 715 33
f 856 996 582
f 1208 370 449
f 1057 673 1275
f 1078 1339 1277
f 1121 50 52
f 894 1195 778
f 139 1356 1256
f 697 192 1081
f 256 1128 1127
f 119 1140 1282
f 391 375 994
f 561 748 1055
f 1166 1253 1284
f 619 567 568
f 1285 1281 1286
f 759 1085 1268
f 75 387 540
f 1253 294 1227
f 1278 1115 1149
f 918 507 187
f 469 942 944
f 1288 1043 468
f 720 719 890
f 203 1187 943
f 629 715 269
f 93 92 923
f 56 1333 945
f 149 247 143
f 860 638 293
f 246 1170 265
f 694 693 40
f 376 592 257
f 825 346 348
f 615 269 271
f 99 98 579
f 557 438 1274
f 937 168 774
f 1123 307 309
f 13 698 1088
f 1141 649 389
f 916 915 887
f 929 383 969
f 1138 1099 1156
f 32 591 1292
f 600 1234 1293
f 129 1178 1047
f 1242 1323 517
f 1295 1199 1238
f 828 1111 952
f 366 107 74
f 1054 1270 556
f 443 678 253
f 1088 698 803
f 674 919 1262
f 1131 1352 1285
f 1297 1348 227
f 974 973 344
f 821 1254 889
f 1094 1318 634
f 360 359 1114
f 1222 1018 968
f 499 583 1298
f 364 27 650
f 104 501 1090
f 1265 1273 914
f 979 873 1101
f 1241 1303 1299
f 1140 792 793
f 1053 1104 1270
f 386 148 150
f 1093 624 47
f 987 1149 1249
f 1071 194 1210
f 1265 55 57
f 97 1291 1273
f 1083 710 1300
f 315 314 105
f 892 179 1255
f 727 997 1301
f 1302 900 824
f 1303 973 431
f 554 858 1304
f 80 1365 821
f 1231 513 28
f 1089 1154 707
f 249 1263 1271
f 304 473 816
f 1048 322 324
f 902 904 1061
f 1060 1318 1093
f 599 1293 1305
f 500 634 1284
f 122 121 1028
f 783 1010 1206
f 1306 1069 1307
f 379 275 708
f 1308 1017 1309
f 1250 358 958
f 686 314 1269
f 288 580 1148
f 842 864 866
f 47 49 870
f 1048 863 1294
f 983 1242 1243
f 295 1267 1258
f 329 959 1305
f 8 1317 646
f 1310 670 772
f 128 382 1049
f 354 353 519
f 1311 520 1105
f 471 1044 942
f 1068 302 482
f 1229 174 173
f 267 1329 1169
f 161 280 103
f 678 443 1226
f 1015 656 1213
f 673 914 1273
f 1210 390 648
f 23 570 921
f 308 12 14
f 1312 1038 1039
f 435 639 1313
f 74 1364 469
f 916 810 1314
f 999 1316 696
f 342 689 688
f 1294 1062 1311
f 108 1119 1071
f 334 333 1050
f 655 846 848
f 524 1108 1315
f 920 747 504
f 91 520 1063
f 1316 999 646
f 1315 1107 1106
f 745 917 918
f 1060 635 634
f 1215 574 502
f 903 1068 1238
f 1319 304 815
f 1267 295 294
f 1055 971 1182
f 844 823 864
f 737 398 1266
f 806 1143 865
f 125 378 1292
f 660 1192 1193
f 54 53 1280
f 1291 97 1230
f 406 1304 166
f 734 1226 993
f 66 233 1321
f 434 152 283
f 534 94 96
f 200 1029 371
f 424 423 274
f 284 345 1303
f 1231 363 543
f 181 3 1196
f 73 540 568
f 1095 1008 1056
f 464 1168 1302
f 432 851 1299
f 939 518 1323
f 982 1213 917
f 1281 1256 1257
f 872 860 1289
f 777 1337 1157
f 1064 670 672
f 921 923 92
f 1151 1302 823
f 638 860 862
f 185 95 445
f 890 1152 141
f 729 26 28
f 70 882 881
f 1269 313 757
f 1142 1106 923
f 1324 1219 1221
f 1076 617 897
f 1164 659 1217
f 35 927 1245
f 1270 1104 362
f 1138 1237 1325
f 846 655 1212
f 1021 942 1044
f 977 907 1190
f 1084 1365 79
f 516 515 526
f 1107 457 130
f 96 95 995
f 743 150 149
f 1067 1176 1073
f 541 58 611
f 354 1003 1327
f 1168 112 900
f 593 202 1137
f 36 896 895
f 737 675 1262
f 702 719 1327
f 138 856 695
f 1003 354 518
f 1279 1271 1126
f 1328 498 909
f 456 1347 1330
f 681 231 162
f 18 245 1307
f 574 1198 752
f 804 684 1314
f 123 930 1331
f 426 88 90
f 580 1019 1167
f 1167 1019 1020
f 782 40 56
f 472 306 732
f 55 1264 1332
f 232 1039 487
f 393 198 532
f 188 1186 193
f 391 390 592
f 1328 796 85
f 1083 117 1129
f 171 1359 891
f 463 550 156
f 931 550 549
f 1211 1061 904
f 235 237 1334
f 437 1275 1274
f 1336 1225 1043
f 779 576 20
f 1337 777 779
f 159 855 21
f 262 891 988
f 1338 1158 1337
f 21 855 138
f 1276 1194 1180
f 1132 1133 164
f 688 803 698
f 114 1347 456
f 76 78 941
f 1322 1196 1197
f 258 941 377
f 154 449 451
f 195 1011 818
f 1338 136 696
f 349 1112 1321
f 145 279 1011
f 1092 572 1132
f 1158 1338 1316
f 1159 1158 1317
f 259 257 196
f 223 1245 927
f 43 35 483
f 1157 1159 7
f 925 37 54
f 155 154 1240
f 1326 79 977
f 1339 1228 911
f 1340 1341 773
f 665 773 1341
f 635 1211 1165
f 1321 1112 1252
f 1166 859 134
f 161 111 113
f 88 426 1300
f 1344 88 1343
f 1343 1300 710
f 1297 742 1201
f 1059 1369 1345
f 1346 466 1335
f 235 1335 466
f 116 1330 1347
f 593 456 455
f 243 175 1009
f 1009 1025 1171
f 1025 1024 1172
f 1024 905 935
f 905 1139 231
f 1139 118 1312
f 545 544 271
f 270 487 1039
f 669 668 1308
f 1214 551 553
f 692 1120 899
f 553 552 595
f 742 741 530
f 286 773 774
f 167 227 1348
f 1348 1297 558
f 992 991 1005
f 1326 1005 991
f 1350 1353 71
f 1296 1350 290
f 1351 1004 1006
f 976 1006 1005
f 1131 1368 140
f 1254 821 86
f 498 1328 725
f 496 725 726
f 796 1328 1329
f 1298 713 478
f 72 71 1353
f 1287 1355 1296
f 1355 1370 1350
f 1356 139 141
f 1356 241 588
f 1352 139 1281
f 1238 1237 738
f 482 1222 751
f 1118 788 1222
f 1290 1098 1100
f 1215 1100 1198
f 1017 788 790
f 1295 751 752
f 1120 172 898
f 552 1155 899
f 579 578 692
f 521 1138 551
f 579 1155 1098
f 1325 1198 1100
f 167 1357 226
f 1216 60 59
f 573 569 503
f 474 857 859
f 1304 857 1357
f 858 135 134
f 216 215 1087
f 1350 1370 1354
f 716 1122 1148
f 1358 988 891
f 2 77 260
f 1082 169 508
f 663 260 163
f 1266 398 400
f 1360 461 317
f 1248 820 661
f 522 820 1248
f 483 485 1362
