v 0.321036 0.138281 -0.0333264
v 0.316355 0.141747 -0.0476748
v 0.315811 0.150261 -0.0391881
v 0.318163 0.121385 -0.0634947
v 0.302854 0.130697 -0.057251
v 0.316339 0.133514 -0.0554313
v 0.288127 0.129675 -0.0583876
v 0.30098 0.141501 -0.0481684
v 0.299083 0.151671 -0.0392675
v 0.286136 0.140643 -0.0490404
v 0.284137 0.151178 -0.0397724
v 0.315269 0.158576 -0.0278996
v 0.297083 0.159678 -0.0287383
v 0.322324 0.120325 -0.047843
v 0.323327 0.114523 -0.0528496
v 0.320293 0.11175 -0.0712522
v 0.305237 0.12007 -0.0662702
v 0.290439 0.118697 -0.0677535
v 0.273258 0.128737 -0.0596297
v 0.271244 0.139746 -0.0499545
v 0.269196 0.150547 -0.0404118
v 0.321707 0.145562 -0.0224913
v 0.313434 0.163469 -0.0165419
v 0.325667 0.100638 -0.0808875
v 0.308033 0.10919 -0.0752489
v 0.292887 0.107615 -0.0770748
v 0.275418 0.117633 -0.0690592
v 0.258286 0.127769 -0.0606776
v 0.281955 0.159598 -0.0288799
v 0.295203 0.165415 -0.0160471
v 0.279917 0.165521 -0.0156369
v 0.256309 0.13886 -0.0508557
v 0.254274 0.149855 -0.0410923
v 0.3116 0.168363 -0.00518434
v 0.293849 0.167832 -0.00407856
v 0.33452 0.0978472 -0.0690437
v 0.310918 0.0979398 -0.0846527
v 0.326606 0.0929853 -0.0891742
v 0.313325 0.0875249 -0.0920041
v 0.295572 0.0962978 -0.0867455
v 0.277505 0.10649 -0.0786614
v 0.260307 0.11667 -0.0703233
v 0.24328 0.126872 -0.0616234
v 0.266917 0.159465 -0.029107
v 0.251957 0.159254 -0.029445
v 0.264829 0.165673 -0.0151262
v 0.278473 0.167844 -0.00397354
v 0.241334 0.138092 -0.0516149
v 0.239332 0.149144 -0.0417716
v 0.296788 0.0876496 -0.0938892
v 0.279679 0.0951053 -0.088409
v 0.262217 0.105538 -0.0800236
v 0.245197 0.115816 -0.0715004
v 0.228141 0.126355 -0.0623723
v 0.236957 0.159144 -0.0295594
v 0.263349 0.167844 -0.00390338
v 0.226262 0.137534 -0.0522392
v 0.22443 0.148616 -0.042282
v 0.3281 0.0737746 -0.110079
v 0.314971 0.0594565 -0.106468
v 0.314148 0.0734907 -0.099236
v 0.280327 0.0860231 -0.0955407
v 0.263743 0.0941116 -0.0897096
v 0.247017 0.104849 -0.0810972
v 0.230025 0.115237 -0.0723998
v 0.212837 0.125966 -0.0629843
v 0.211097 0.137003 -0.0528561
v 0.249872 0.165816 -0.01464
v 0.222365 0.15792 -0.0315292
v 0.248638 0.167861 -0.00367873
v 0.209413 0.148016 -0.0428688
v 0.333082 0.0891318 -0.0920745
v 0.343419 0.0852717 -0.105934
v 0.328436 0.0857903 -0.1008
v 0.343153 0.0749585 -0.109924
v 0.248337 0.0922249 -0.0894669
v 0.232052 0.104063 -0.0811754
v 0.214993 0.114882 -0.0726243
v 0.19759 0.125687 -0.0635192
v 0.19594 0.136502 -0.0534651
v 0.219702 0.167883 -0.00330054
v 0.235049 0.165986 -0.014052
v 0.220729 0.164199 -0.0170755
v 0.207466 0.157439 -0.0322525
v 0.357864 0.080004 -0.108006
v 0.346318 0.0861912 -0.0914547
v 0.360049 0.0800463 -0.0935234
v 0.303769 0.0428427 -0.102967
v 0.296215 0.0561325 -0.104549
v 0.263957 0.0824516 -0.0954631
v 0.361829 0.0789178 -0.0797841
v 0.233528 0.0899624 -0.086958
v 0.217473 0.102917 -0.0794586
v 0.199869 0.114306 -0.0720786
v 0.182376 0.12527 -0.0641836
v 0.180799 0.136027 -0.0540637
v 0.20513 0.167901 -0.00310808
v 0.191033 0.164405 -0.0165686
v 0.190516 0.167925 -0.00292867
v 0.205878 0.16437 -0.016675
v 0.194357 0.147406 -0.0434617
v 0.19255 0.156978 -0.0329255
v 0.17928 0.146847 -0.0440248
v 0.358363 0.0724157 -0.108636
v 0.36209 0.0647271 -0.0950273
v 0.358862 0.0648275 -0.109266
v 0.328342 0.0470133 -0.111042
v 0.327764 0.061759 -0.110805
v 0.289204 0.0485904 -0.0925117
v 0.280273 0.0592189 -0.10267
v 0.296501 0.071891 -0.0992189
v 0.316385 0.0344008 -0.105294
v 0.311857 0.0300342 -0.100563
v 0.249094 0.0798993 -0.0926567
v 0.264831 0.0718448 -0.0974639
v 0.25006 0.0702049 -0.094183
v 0.234395 0.0784496 -0.0888708
v 0.3624 0.0708856 -0.0806547
v 0.361069 0.0723867 -0.0942753
v 0.218897 0.0883195 -0.0829521
v 0.202124 0.101251 -0.0765282
v 0.184366 0.113377 -0.0722502
v 0.165906 0.134223 -0.0558647
v 0.167284 0.124612 -0.0650229
v -0.0854444 0.098234 -0.0522481
v -0.07263 0.0929463 -0.0630357
v -0.0873403 0.0969158 -0.0652705
v -0.0748819 0.0893798 -0.0768344
v -0.0897083 0.0921929 -0.0772428
v 0.164177 0.148317 -0.0445117
v 0.361949 0.0489084 -0.0975508
v 0.360169 0.0495431 -0.109173
v 0.343488 0.0479895 -0.11079
v 0.327345 0.0331359 -0.106549
v 0.27044 0.0543367 -0.0895502
v 0.279646 0.0528275 -0.0917627
v 0.235264 0.0685624 -0.0905602
v 0.254277 0.0527526 -0.0850354
v 0.265706 0.061238 -0.0994646
v 0.219763 0.0771186 -0.0847649
v 0.363729 0.0482737 -0.0831883
v 0.362972 0.0628534 -0.0815253
v 0.203359 0.0867082 -0.0790207
v 0.186052 0.0993377 -0.0756888
v 0.1692 0.112399 -0.0728556
v 0.151439 0.131811 -0.0591802
v 0.152232 0.123876 -0.065942
v -0.0399513 0.0948115 -0.0380177
v -0.0526493 0.0960544 -0.0265534
v -0.0392638 0.0959365 -0.0273661
v 0.17774 0.156635 -0.0334744
v 0.176246 0.164474 -0.0164637
v 0.163187 0.156645 -0.0352744
v -0.0109876 0.0947762 -0.039202
v -0.0262202 0.0934409 -0.050865
v -0.0256394 0.0947381 -0.0385972
v 0.342888 0.0646452 -0.110778
v 0.342747 0.0334482 -0.106102
v 0.222362 0.0627835 -0.0868255
v 0.236133 0.0586752 -0.0922497
v 0.224962 0.0484484 -0.0888861
v 0.204238 0.0757635 -0.0807397
v 0.170731 0.0979643 -0.076135
v 0.154093 0.1113 -0.073482
v -0.0834193 0.0994508 -0.0367141
v -0.0700537 0.0947983 -0.0486437
v 0.162257 0.161729 -0.0207757
v -0.0251155 0.0959083 -0.0275304
v 0.358933 0.0338413 -0.104093
v 0.341963 0.0160676 -0.10568
v 0.319385 0.0155007 -0.103152
v 0.31495 0.0145594 -0.0929064
v 0.308809 0.0276927 -0.0913899
v 0.213368 0.0289407 -0.0855092
v 0.2146 0.0174714 -0.0747586
v 0.208814 0.016668 -0.0843076
v 0.187113 0.084546 -0.0779667
v 0.187826 0.0733093 -0.079524
v 0.171883 0.0828288 -0.0784073
v 0.155676 0.0966571 -0.076538
v 0.138124 0.12006 -0.0682342
v 0.139093 0.110082 -0.0741119
v 0.126935 0.125346 -0.0508553
v 0.137782 0.128024 -0.0600957
v 0.126254 0.120801 -0.0616443
v 0.127156 0.128046 -0.0357352
v 0.137955 0.134505 -0.0498624
v 0.149856 0.147992 -0.0362863
v 0.360162 0.0166556 -0.103024
v 0.323465 4.56486e-09 -0.104432
v 0.341827 4.62907e-09 -0.105901
v 0.316343 4.01322e-09 -0.0918118
v 0.238793 0.046811 -0.0808887
v 0.228451 0.0381005 -0.0779215
v 0.188896 0.0487721 -0.0820808
v 0.173028 0.0584945 -0.0813155
v 0.188361 0.0610407 -0.0808024
v 0.140866 0.0951419 -0.0768785
v 0.115676 0.115341 -0.0498615
v 0.112375 0.110793 -0.0616432
v 0.115375 0.117229 -0.0350336
v 0.12704 0.129681 -0.0202786
v 0.138081 0.138752 -0.0367172
v 0.149757 0.152617 -0.020857
v 0.138361 0.142673 -0.00500303
v 0.149907 0.15433 -0.00484734
v 0.360279 4.5139e-09 -0.103266
v 0.202603 0.0498439 -0.0839697
v 0.172615 0.0704988 -0.0800774
v 0.157 0.081314 -0.0788572
v 0.126273 0.0935613 -0.0773204
v 0.125238 0.114358 -0.0697582
v 0.11107 0.106037 -0.0697887
v 0.104129 0.107284 -0.0494184
v 0.102829 0.108444 -0.0346492
v 0.115071 0.118564 -0.0199717
v 0.138232 0.140927 -0.0206734
v 0.126493 0.130816 -0.00495135
v 0.364881 4.19021e-09 -0.0958607
v 0.219976 0.0264809 -0.0758955
v 0.157719 0.0688106 -0.0804803
v 0.15809 0.0578658 -0.0815896
v 0.14235 0.0795604 -0.0792937
v 0.142967 0.0675039 -0.0808251
v 0.127746 0.0781197 -0.0796286
v 0.110741 0.101381 -0.0745171
v 0.111885 0.0920228 -0.0778258
v 0.0921815 0.10113 -0.0498432
v 0.103256 0.105566 -0.062476
v 0.0941375 0.100338 -0.0633086
v 0.0901475 0.102149 -0.0349687
v 0.114518 0.119634 -0.00483178
v 0.211568 3.25401e-09 -0.074443
v 0.206498 3.66782e-09 -0.08391
v 0.201119 0.0292141 -0.0845429
v 0.143707 0.0468104 -0.0828747
v 0.143337 0.0571572 -0.0818499
v 0.158973 0.0307521 -0.0838213
v 0.173441 0.0469963 -0.0825537
v 0.173878 0.0304435 -0.0836746
v 0.0993234 0.0954006 -0.0736685
v 0.0973824 0.0903836 -0.0791924
v 0.0793931 0.0966468 -0.0517666
v 0.101451 0.109008 -0.0197714
v 0.100614 0.109865 -0.00474113
v 0.0774159 0.097919 -0.0369472
v 0.200596 0.0144403 -0.0852664
v 0.188591 0.0147837 -0.0841316
v 0.18887 0.0294876 -0.0835764
v 0.144147 0.0307584 -0.0839773
v 0.158461 0.046921 -0.0826988
v 0.129133 0.0464935 -0.0830552
v 0.128762 0.0567238 -0.0820621
v 0.159832 0.0153114 -0.0844582
v 0.12841 0.0664067 -0.0811221
v 0.113294 0.0768859 -0.0799228
v 0.0990611 0.0757618 -0.0802137
v 0.0646897 0.09375 -0.0544221
v 0.080387 0.0938746 -0.0679788
v 0.0640628 0.0914556 -0.0673473
v 0.0763056 0.0989039 -0.0211856
v 0.0881598 0.102676 -0.0199553
v 0.0872669 0.103584 -0.00482463
v 0.0631132 0.0951754 -0.0406076
v 0.199365 3.73659e-09 -0.0854831
v 0.174737 0.0152272 -0.0842856
v 0.144769 0.0153099 -0.0846329
v 0.129509 0.0307072 -0.0841331
v 0.113933 0.0654312 -0.081394
v 0.114314 0.0560656 -0.0822864
v 0.160878 3.6982e-09 -0.0846049
v 0.0852286 0.0886773 -0.0791041
v 0.0483813 0.092995 -0.0548153
v 0.0725067 0.0995059 -0.00621324
v 0.175628 3.69178e-09 -0.084458
v 0.188582 3.68699e-09 -0.0843484
v 0.1455 3.70492e-09 -0.0847588
v 0.129868 0.015304 -0.084805
v 0.114722 0.0460274 -0.0832429
v 0.11494 0.0305421 -0.0842889
v 0.0998027 0.0645363 -0.0816417
v 0.0850141 0.0747784 -0.080478
v 0.0856029 0.063791 -0.0817836
v 0.071246 0.087253 -0.0789478
v 0.0480019 0.090924 -0.0674313
v 0.0606139 0.086299 -0.078816
v 0.0456295 0.0858574 -0.0789086
v 0.0328424 0.093041 -0.0543671
v 0.0479567 0.0945808 -0.0410169
v 0.0612501 0.0963579 -0.0273464
v 0.0477151 0.0959589 -0.0273186
v 0.129984 3.7118e-09 -0.0849162
v 0.115115 0.0152484 -0.084973
v 0.100447 0.0455253 -0.0834293
v 0.0858853 0.0541592 -0.0826838
v 0.0861509 0.0451024 -0.0835303
v 0.0710248 0.0741312 -0.0806429
v 0.0567273 0.0737495 -0.0807376
v 0.0324403 0.0909088 -0.0673789
v 0.0423162 0.0735379 -0.0808247
v 0.0178325 0.0930731 -0.0540832
v 0.0172119 0.0909878 -0.0671953
v 0.0329317 0.09458 -0.0408918
v 0.058622 0.0973658 -0.0129785
v 0.0477046 0.0971447 -0.0130373
v 0.114981 3.71849e-09 -0.085069
v 0.100602 0.0303513 -0.0844421
v 0.100637 0.0151469 -0.0851354
v 0.0861954 0.0301284 -0.0845056
v 0.0715757 0.044776 -0.0836213
v 0.0714382 0.0541924 -0.0827462
v 0.0713058 0.0632594 -0.0819035
v 0.0567775 0.0629166 -0.0819952
v 0.0303114 0.0859153 -0.0789145
v 0.00301558 0.0931345 -0.0535406
v 0.0181119 0.0946065 -0.0406608
v 0.0330038 0.0959136 -0.027613
v 0.0182456 0.0959387 -0.0273241
v 0.0330132 0.0971209 -0.0130837
v 0.100533 3.72491e-09 -0.0852161
v 0.0567673 0.0537875 -0.0828451
v 0.056757 0.0445282 -0.083707
v 0.0276276 0.0735281 -0.0808892
v 0.0421388 0.0627349 -0.082075
v 0.0273071 0.0627203 -0.0821386
v 0.0151927 0.0859892 -0.0788271
v 0.0021444 0.0911237 -0.0667829
v 0.000126104 0.0861337 -0.0786903
v 0.0419479 0.0535373 -0.0829313
v -0.0116804 0.0932519 -0.052516
v -0.0127941 0.0913216 -0.0661302
v 0.00345558 0.0946574 -0.0402136
v 0.0036841 0.0959538 -0.0271413
v 0.0862714 0.0150646 -0.0852067
v 0.071554 0.0299353 -0.0845754
v 0.0565888 0.0297831 -0.0846455
v 0.0127856 0.0735762 -0.0809421
v 0.027026 0.0537214 -0.082977
v -0.00212759 0.0736412 -0.0809457
v 0.041759 0.0444347 -0.0837789
v -0.0276863 0.0915987 -0.0651306
v -0.0673702 0.0959573 -0.0370115
v -0.0800772 0.0998577 -0.020431
v -0.0636724 0.0967711 -0.0243983
v -0.0107433 0.0959155 -0.0275494
v 0.0182962 0.0971243 -0.0130423
v 0.0861604 3.72749e-09 -0.0852749
v 0.0715412 0.0149806 -0.0852731
v 0.0564198 0.0149127 -0.0853397
v 0.012419 0.0627396 -0.0821983
v -0.00249016 0.0627803 -0.0822372
v 0.0267344 0.0443854 -0.0838469
v 0.0413921 0.0297228 -0.0847124
v 0.0262241 0.0296786 -0.0847785
v -0.0149209 0.0863642 -0.0784215
v -0.0299212 0.0866418 -0.0780843
v -0.0408692 0.0934623 -0.0506436
v -0.0107078 0.0971053 -0.0132702
v 0.0714474 3.7302e-09 -0.0853371
v 0.056266 3.73301e-09 -0.0854012
v 0.0117735 0.0443605 -0.0839128
v 0.0121031 0.0537426 -0.0830377
v -0.0170395 0.0737965 -0.0809034
v -0.0174589 0.0629197 -0.0821649
v 0.0410591 0.0148654 -0.0854042
v 0.0257686 0.0148551 -0.0854707
v -0.0319189 0.0739665 -0.0808297
v -0.0424737 0.0919573 -0.0637998
v 0.0407737 3.73587e-09 -0.0854667
v -0.057063 0.0924831 -0.0616944
v -0.038978 0.0969832 -0.0147108
v -0.0548973 0.0938333 -0.0482981
v -0.0537192 0.0949383 -0.0374662
v -0.0249855 0.0970433 -0.0140141
v 0.0112242 0.0296541 -0.084843
v -0.00314206 0.0443718 -0.0839554
v -0.00280762 0.0538157 -0.0830739
v -0.0177996 0.0534044 -0.0830481
v -0.0324089 0.0630831 -0.0820889
v 0.025547 3.73868e-09 -0.085531
v -0.0449567 0.0870942 -0.0775565
v -0.0599414 0.0877375 -0.0769418
v 0.150485 0.141507 -0.0468872
v 0.0108105 0.0148458 -0.0855358
v -0.00362444 0.0296566 -0.0848814
v -0.0181192 0.0444769 -0.0838767
v -0.0185291 0.029743 -0.0848096
v -0.0468416 0.0742558 -0.0807295
v -0.0617623 0.0746894 -0.0806159
v -0.0603784 0.0974079 -0.0134628
v 0.092443 0.0967584 -0.0689964
v 0.0885209 0.0929865 -0.0732667
v -0.00356388 3.74297e-09 -0.0856292
v 0.0108045 3.7414e-09 -0.0855932
v -0.00379348 0.0148478 -0.0855665
v -0.01863 0.0148824 -0.0855013
v -0.0331285 0.0446287 -0.0837988
v -0.0477638 0.0547222 -0.0828008
v -0.0327659 0.0539285 -0.0829372
v -0.047405 0.063348 -0.0820014
v -0.062429 0.0637193 -0.0819005
v -0.0767583 0.0755073 -0.0804439
v -0.0988853 0.104016 -0.0506589
v -0.0966123 0.106198 -0.0201496
v -0.0975673 0.105283 -0.0354516
v -0.0184511 3.74005e-09 -0.0855623
v -0.0335039 0.0298436 -0.084742
v -0.0481761 0.0448132 -0.0837191
v -0.048531 0.029951 -0.0846736
v -0.0628161 0.0550053 -0.0827094
v -0.063258 0.0450615 -0.0836325
v -0.0916893 0.0771485 -0.0800869
v -0.100941 0.102455 -0.0651852
v -0.104317 0.0959384 -0.0776977
v -0.110569 0.113247 -0.0352048
v -0.111596 0.111883 -0.0503222
v -0.0958913 0.107156 -0.00492453
v -0.0782285 0.101301 -0.00613027
v -0.10982 0.114216 -0.0200074
v -0.0335759 3.73726e-09 -0.0854985
v -0.0336465 0.0149367 -0.0854367
v -0.0486686 0.014989 -0.0853664
v -0.0635304 0.0300705 -0.0846049
v -0.0775164 0.0643272 -0.081773
v -0.0778965 0.0555587 -0.0825885
v -0.0925943 0.0653334 -0.0815858
v -0.106634 0.0794969 -0.079653
v -0.113627 0.109825 -0.065083
v -0.122341 0.123184 -0.0353529
v -0.109136 0.115172 -0.00486218
v -0.121698 0.124226 -0.0201089
v -0.0486087 3.73448e-09 -0.085435
v -0.0635671 0.015048 -0.0853053
v -0.0783397 0.0453314 -0.0835397
v -0.078507 0.0301858 -0.0845413
v -0.0930097 0.056114 -0.0824574
v -0.107674 0.0668422 -0.081291
v -0.121589 0.08247 -0.079114
v -0.119136 0.0991627 -0.0773184
v -0.132395 0.115124 -0.0725459
v -0.138269 0.123115 -0.0651258
v -0.130323 0.118883 -0.0658151
v -0.136749 0.132554 -0.0505817
v -0.123215 0.121888 -0.0505037
v -0.135068 0.135628 -0.0357239
v -0.1345 0.136791 -0.0203388
v -0.0634438 3.73174e-09 -0.0853723
v -0.0783886 0.0150947 -0.0852396
v -0.0935333 0.0302399 -0.0844766
v -0.0934833 0.0456026 -0.083451
v -0.108162 0.0571699 -0.0822268
v -0.122735 0.0688749 -0.080857
v -0.134809 0.100196 -0.0762384
v -0.136742 0.128252 -0.0597752
v -0.124975 0.119833 -0.0605742
v -0.148103 0.140067 -0.0504842
v -0.147988 0.146067 -0.0360443
v -0.1211 0.125271 -0.00490277
v -0.134139 0.138124 -0.00489818
v -0.078137 3.72903e-09 -0.0853102
v -0.0932892 0.0150985 -0.08518
v -0.108708 0.0301931 -0.0843706
v -0.123375 0.0571656 -0.0820284
v -0.108739 0.0457184 -0.0833347
v -0.124026 0.0452433 -0.0832211
v -0.137951 0.0703294 -0.0805496
v -0.151599 0.0870969 -0.0780088
v -0.149971 0.10229 -0.0757211
v -0.162107 0.142056 -0.0485124
v -0.160534 0.153406 -0.0370068
v -0.14716 0.148915 -0.02053
v -0.146923 0.150517 -0.00489836
v -0.0929443 3.7263e-09 -0.0852477
v -0.108556 0.0150379 -0.0850567
v -0.138684 0.0581545 -0.081943
v -0.152981 0.0723266 -0.0801324
v -0.136573 0.0850255 -0.0785645
v -0.166722 0.0887399 -0.0775757
v -0.165212 0.103948 -0.0752054
v -0.148405 0.117291 -0.0708402
v -0.162805 0.130667 -0.0593305
v -0.147647 0.129441 -0.0608749
v -0.177842 0.143179 -0.0473273
v -0.178112 0.154505 -0.0361394
v -0.161 0.159981 -0.0210649
v -0.108266 3.7217e-09 -0.0851426
v -0.123913 0.015012 -0.084888
v -0.139245 0.0447361 -0.0831054
v -0.123997 0.0301185 -0.0842152
v -0.139278 0.0300572 -0.0840548
v -0.153873 0.0586246 -0.0817308
v -0.154451 0.0446454 -0.0829361
v -0.168055 0.0738453 -0.0797992
v -0.180464 0.105322 -0.0747052
v -0.181923 0.0899941 -0.0771691
v -0.163666 0.118692 -0.0697305
v -0.178186 0.13173 -0.0581109
v -0.193401 0.144047 -0.0465348
v -0.18068 0.163525 -0.0212859
v -0.12375 3.71473e-09 -0.0849831
v -0.139234 0.0150471 -0.0847108
v -0.154601 0.030054 -0.0839
v -0.169001 0.0594706 -0.0814682
v -0.183149 0.0750034 -0.0794604
v -0.178909 0.119857 -0.0686915
v -0.196182 0.106156 -0.0747509
v -0.197595 0.0903898 -0.0775157
v -0.193656 0.132584 -0.0571208
v -0.194178 0.155374 -0.0350643
v -0.208777 0.144677 -0.0459441
v -0.209685 0.1558 -0.0344942
v -0.196591 0.163924 -0.0203789
v -0.160748 0.162674 -0.00511437
v -0.139131 3.70788e-09 -0.0848263
v -0.154533 0.0150801 -0.0845311
v -0.169861 0.0301964 -0.0837314
v -0.169605 0.0449816 -0.0827256
v -0.184077 0.0601864 -0.081177
v -0.184749 0.045289 -0.082467
v -0.194306 0.120933 -0.0676727
v -0.211529 0.107283 -0.0764972
v -0.213041 0.0899405 -0.0808515
v -0.208998 0.133202 -0.0564002
v -0.212281 0.164179 -0.0197096
v -0.224098 0.145209 -0.0454097
v -0.225192 0.156156 -0.0340028
v -0.182644 0.167791 -0.00455695
v -0.15443 3.70118e-09 -0.084673
v -0.169828 0.0151747 -0.0843487
v -0.185191 0.0302601 -0.0835534
v -0.199361 0.060133 -0.0817692
v -0.198523 0.075196 -0.0799547
v -0.213677 0.0747543 -0.083244
v -0.209609 0.1217 -0.0669414
v -0.226054 0.10715 -0.0779825
v -0.224126 0.133629 -0.0558562
v -0.198354 0.167797 -0.00427984
v -0.227825 0.164353 -0.0192116
v -0.239458 0.145786 -0.0447993
v -0.169673 3.69454e-09 -0.0845211
v -0.185321 0.0151632 -0.0841424
v -0.200047 0.0451146 -0.0832065
v -0.214426 0.0598695 -0.0851117
v -0.227275 0.0915648 -0.0849145
v -0.224698 0.12214 -0.0662414
v -0.240912 0.107688 -0.0779082
v -0.242069 0.0902342 -0.0886787
v -0.239135 0.134137 -0.055159
v -0.213991 0.167793 -0.00420963
v -0.240729 0.156511 -0.0335002
v -0.243229 0.164457 -0.0188332
v -0.254731 0.146214 -0.0444096
v -0.185225 3.68775e-09 -0.0843658
v -0.200659 0.0301157 -0.084379
v -0.215107 0.0449885 -0.086678
v -0.215815 0.0301355 -0.0878962
v -0.228972 0.0599928 -0.0894227
v -0.229663 0.0451726 -0.0909822
v -0.228211 0.0748236 -0.0874945
v -0.24273 0.074984 -0.0917571
v -0.239531 0.122585 -0.0655098
v -0.25584 0.107933 -0.0775719
v -0.25682 0.089038 -0.0918822
v -0.254134 0.134729 -0.0544537
v -0.229392 0.167794 -0.00415616
v -0.256039 0.156659 -0.0332954
v -0.258638 0.164577 -0.0185197
v -0.269963 0.146521 -0.0441381
v -0.201132 0.0150889 -0.0850212
v -0.243493 0.0602214 -0.0936692
v -0.244088 0.0453716 -0.0951882
v -0.254465 0.12337 -0.0646781
v -0.270908 0.108489 -0.0769945
v -0.269081 0.135211 -0.0538633
v -0.244832 0.167815 -0.00403314
v -0.271342 0.156739 -0.0331834
v -0.27392 0.164601 -0.0184303
v -0.285153 0.146936 -0.0437418
v -0.201302 3.72664e-09 -0.0852555
v -0.216561 0.0151403 -0.088686
v -0.230372 0.030252 -0.0921401
v -0.244774 0.0303873 -0.0963039
v -0.257931 0.0604354 -0.0978606
v -0.258375 0.0455034 -0.0993513
v -0.257187 0.0751099 -0.0960519
v -0.272406 0.0879544 -0.0943655
v -0.271732 0.0748165 -0.099981
v -0.269409 0.124218 -0.0636302
v -0.283934 0.135788 -0.0532222
v -0.260339 0.167824 -0.00402086
v -0.275856 0.167837 -0.00396096
v -0.28665 0.156798 -0.0331026
v -0.28927 0.164647 -0.0183312
v -0.300368 0.147794 -0.0429923
v -0.216947 3.89102e-09 -0.0890162
v -0.231218 0.0152358 -0.0929801
v -0.245472 0.0153047 -0.0971573
v -0.272131 0.0603759 -0.101818
v -0.272217 0.045426 -0.103192
v -0.286357 0.0866636 -0.0950034
v -0.28578 0.110096 -0.0752391
v -0.30049 0.115906 -0.0698926
v -0.319478 0.107795 -0.0759401
v -0.317409 0.11881 -0.0654129
v -0.284271 0.125207 -0.0623237
v -0.299073 0.137401 -0.0517
v -0.301829 0.15679 -0.0331274
v -0.304188 0.164467 -0.0188135
v -0.315509 0.151265 -0.0414252
v -0.231585 4.07845e-09 -0.0933041
v -0.245723 4.25928e-09 -0.097441
v -0.258883 0.0304701 -0.100395
v -0.272311 0.0303906 -0.104123
v -0.286309 0.0599751 -0.103994
v -0.286662 0.0741598 -0.101968
v -0.303621 0.100088 -0.0831274
v -0.299347 0.126611 -0.0607946
v -0.302008 0.0852154 -0.0957189
v -0.291105 0.16784 -0.00401037
v -0.31576 0.157249 -0.0332249
v -0.316615 0.164615 -0.0196715
v -0.259403 0.0153238 -0.101231
v -0.259586 4.43662e-09 -0.101498
v -0.272449 0.0152603 -0.10483
v -0.285993 0.0451251 -0.10528
v -0.285866 0.0302436 -0.106126
v -0.300677 0.0591556 -0.104088
v -0.301425 0.073428 -0.101932
v -0.314164 0.0736697 -0.103458
v -0.316295 0.0844694 -0.0941649
v -0.317267 0.129794 -0.0557843
v -0.330234 0.10284 -0.0638319
v -0.328481 0.0954012 -0.0818906
v -0.338644 0.0945951 -0.0729206
v -0.27245 4.59267e-09 -0.105068
v -0.285872 0.01529 -0.10679
v -0.299944 0.0443262 -0.105387
v -0.298894 0.0298744 -0.106193
v -0.314732 0.0587416 -0.105881
v -0.314509 0.0439483 -0.106956
v -0.321586 0.0933527 -0.0853835
v -0.316029 0.0916148 -0.0882709
v -0.330231 0.0855151 -0.0974626
v -0.326213 0.0773783 -0.111353
v -0.286114 4.67802e-09 -0.107021
v -0.31279 0.0298972 -0.105618
v -0.327497 0.0595964 -0.110861
v -0.342878 0.0835965 -0.105823
v -0.321271 0.134539 -0.0369527
v -0.321532 0.122799 -0.0470409
v -0.305904 0.167836 -0.00403636
v -0.299972 4.67554e-09 -0.106964
v -0.300225 0.0156046 -0.106824
v -0.313137 0.0150515 -0.106475
v -0.327128 0.0306548 -0.105179
v -0.328209 0.0433947 -0.111468
v -0.342691 0.0594158 -0.110778
v -0.341605 0.0760084 -0.111244
v -0.35499 0.0836808 -0.104305
v -0.358271 0.074767 -0.109333
v -0.35307 0.086331 -0.0910772
v -0.32587 0.0147498 -0.106136
v -0.341846 0.0297642 -0.104509
v -0.359451 0.0597305 -0.10911
v -0.343339 0.0433248 -0.111253
v -0.360065 0.0436678 -0.109438
v -0.361799 0.0756205 -0.0932459
v -0.353788 0.088599 -0.0785234
v -0.341366 0.01451 -0.105728
v -0.355652 0.0293041 -0.103958
v -0.362679 0.0608976 -0.0946771
v -0.362698 0.0752317 -0.0806768
v -0.326815 4.64659e-09 -0.106302
v -0.341358 4.62933e-09 -0.105907
v -0.3551 0.0144985 -0.10549
v -0.363477 0.0602295 -0.0820309
v -0.355086 4.61981e-09 -0.105689
v -0.362992 0.0149078 -0.100708
v -0.365169 0.0275856 -0.0847111
v -0.362335 0.0442788 -0.0973368
v -0.362742 0.0298581 -0.099902
v -0.363107 4.4108e-09 -0.100907
v -0.365377 0.0135767 -0.0851139
v -0.365618 3.73921e-09 -0.085543
v 0.321232 0.1299 -0.0398844
v 0.348104 0.0902499 -0.0769641
v 0.2803 0.072621 -0.0991055
v 0.361768 0.0331232 -0.0959765
v 0.251027 0.0605104 -0.0957094
v 0.161942 0.163689 -0.00498854
v 0.17577 0.168107 -0.00268244
v 0.20342 0.0625698 -0.0823547
v 0.101174 0.100184 -0.0684018
v 0.0687778 0.0976309 -0.0242659
v -0.321347 0.145064 -0.0264423
v -0.314666 4.66103e-09 -0.106632
v -0.309517 0.104012 -0.0791165
v 0.124401 0.109115 -0.0749887
v 0.300928 0.0395999 -0.0930902
v 0.3648 0.0323555 -0.0845584
v 0.36484 0.0165788 -0.0952369
v 0.321799 0.15245 -0.00876414
v 0.319249 0.164131 -0.00421076
v 0.364881 3.73864e-09 -0.08553
v -0.321739 0.153632 -0.00875985
v -0.320441 0.166477 -0.00473433
v -0.316364 0.142361 -0.047
v 0.100121 0.0551316 -0.082526
v -0.364323 0.0439075 -0.083371
v 0.316355 -0.141747 -0.0476748
v 0.321036 -0.138281 -0.0333264
v 0.315811 -0.150261 -0.0391881
v 0.318163 -0.121385 -0.0634947
v 0.302854 -0.130697 -0.057251
v 0.305237 -0.12007 -0.0662702
v 0.30098 -0.141501 -0.0481684
v 0.288127 -0.129675 -0.0583876
v 0.286136 -0.140643 -0.0490404
v 0.299083 -0.151671 -0.0392675
v 0.284137 -0.151178 -0.0397725
v 0.315269 -0.158576 -0.0278996
v 0.322324 -0.120325 -0.047843
v 0.316339 -0.133514 -0.0554313
v 0.320293 -0.11175 -0.0712522
v 0.290439 -0.118697 -0.0677536
v 0.273258 -0.128737 -0.0596297
v 0.271244 -0.139746 -0.0499545
v 0.297083 -0.159678 -0.0287383
v 0.281955 -0.159598 -0.0288799
v 0.321707 -0.145562 -0.0224913
v 0.313434 -0.163469 -0.016542
v 0.323327 -0.114523 -0.0528496
v 0.308033 -0.10919 -0.0752489
v 0.325667 -0.100638 -0.0808875
v 0.292887 -0.107615 -0.0770748
v 0.275418 -0.117633 -0.0690593
v 0.258286 -0.127769 -0.0606776
v 0.256309 -0.13886 -0.0508558
v 0.269196 -0.150547 -0.0404118
v 0.295203 -0.165415 -0.0160471
v 0.279917 -0.165521 -0.0156369
v 0.3116 -0.168363 -0.00518436
v 0.33452 -0.0978472 -0.0690438
v 0.327995 -0.10535 -0.0614989
v 0.326606 -0.0929853 -0.0891742
v 0.310918 -0.0979399 -0.0846527
v 0.313325 -0.0875249 -0.0920041
v 0.295572 -0.0962978 -0.0867455
v 0.277505 -0.10649 -0.0786614
v 0.260307 -0.11667 -0.0703233
v 0.24328 -0.126872 -0.0616235
v 0.266917 -0.159465 -0.029107
v 0.254274 -0.149855 -0.0410923
v 0.293849 -0.167832 -0.00407857
v 0.278473 -0.167844 -0.00397355
v 0.241334 -0.138092 -0.0516149
v 0.296788 -0.0876496 -0.0938892
v 0.279679 -0.0951053 -0.088409
v 0.262217 -0.105538 -0.0800236
v 0.245197 -0.115816 -0.0715004
v 0.228141 -0.126355 -0.0623723
v 0.239332 -0.149144 -0.0417716
v 0.251957 -0.159254 -0.0294451
v 0.236957 -0.159144 -0.0295594
v 0.264829 -0.165673 -0.0151262
v 0.263349 -0.167844 -0.0039034
v 0.226262 -0.137534 -0.0522392
v 0.22443 -0.148616 -0.042282
v 0.3281 -0.0737746 -0.110079
v 0.314971 -0.0594565 -0.106468
v 0.327764 -0.061759 -0.110805
v 0.280327 -0.0860231 -0.0955407
v 0.263743 -0.0941116 -0.0897096
v 0.247017 -0.104849 -0.0810972
v 0.230025 -0.115237 -0.0723998
v 0.212837 -0.125966 -0.0629843
v 0.211097 -0.137003 -0.0528561
v 0.249872 -0.165816 -0.01464
v 0.235049 -0.165986 -0.014052
v 0.333082 -0.0891318 -0.0920745
v 0.343419 -0.0852717 -0.105934
v 0.346318 -0.0861912 -0.0914547
v 0.343153 -0.0749584 -0.109924
v 0.263957 -0.0824516 -0.0954631
v 0.328436 -0.0857903 -0.1008
v 0.248337 -0.0922249 -0.0894669
v 0.232052 -0.104063 -0.0811754
v 0.214993 -0.114882 -0.0726243
v 0.19759 -0.125687 -0.0635192
v 0.19594 -0.136502 -0.0534651
v 0.219702 -0.167883 -0.00330055
v 0.220729 -0.164199 -0.0170755
v 0.248638 -0.167861 -0.00367875
v 0.234287 -0.167885 -0.00331748
v 0.209413 -0.148016 -0.0428689
v 0.222365 -0.15792 -0.0315292
v 0.207466 -0.157439 -0.0322526
v 0.194357 -0.147406 -0.0434617
v 0.357864 -0.080004 -0.108006
v 0.303769 -0.0428427 -0.102967
v 0.296215 -0.0561325 -0.104549
v 0.361829 -0.0789178 -0.0797841
v 0.360049 -0.0800463 -0.0935234
v 0.233528 -0.0899624 -0.086958
v 0.217473 -0.102917 -0.0794587
v 0.199869 -0.114306 -0.0720786
v 0.182376 -0.12527 -0.0641837
v 0.20513 -0.167901 -0.00310809
v 0.191033 -0.164405 -0.0165686
v 0.205878 -0.16437 -0.016675
v 0.180799 -0.136027 -0.0540637
v 0.17928 -0.146847 -0.0440248
v 0.358363 -0.0724158 -0.108636
v 0.36209 -0.0647271 -0.0950273
v 0.361069 -0.0723867 -0.0942753
v 0.328342 -0.0470134 -0.111042
v 0.313244 -0.044839 -0.107692
v 0.280273 -0.0592189 -0.10267
v 0.289204 -0.0485904 -0.0925117
v 0.296501 -0.0718911 -0.0992189
v 0.2803 -0.072621 -0.0991055
v 0.316385 -0.0344008 -0.105294
v 0.264831 -0.0718448 -0.0974639
v 0.249094 -0.0798993 -0.0926567
v 0.25006 -0.0702048 -0.094183
v 0.234395 -0.0784496 -0.0888708
v 0.3624 -0.0708857 -0.0806547
v 0.218897 -0.0883195 -0.0829521
v 0.202124 -0.101251 -0.0765282
v 0.184366 -0.113377 -0.0722502
v 0.165906 -0.134223 -0.0558648
v -0.07263 -0.0929464 -0.0630357
v -0.0854444 -0.098234 -0.0522481
v -0.0873403 -0.0969158 -0.0652706
v -0.0748819 -0.0893799 -0.0768344
v -0.0897083 -0.0921929 -0.0772428
v 0.19255 -0.156978 -0.0329255
v 0.17774 -0.156635 -0.0334744
v 0.164177 -0.148317 -0.0445117
v 0.358862 -0.0648275 -0.109266
v 0.361949 -0.0489083 -0.0975508
v 0.343488 -0.0479896 -0.11079
v 0.27044 -0.0543367 -0.0895502
v 0.265706 -0.061238 -0.0994646
v 0.235264 -0.0685624 -0.0905602
v 0.254277 -0.0527526 -0.0850354
v 0.219763 -0.0771186 -0.0847649
v 0.363729 -0.0482737 -0.0831883
v 0.362972 -0.0628535 -0.0815253
v 0.203359 -0.0867083 -0.0790207
v 0.186052 -0.0993377 -0.0756888
v 0.1692 -0.112399 -0.0728557
v 0.151439 -0.131811 -0.0591803
v 0.167284 -0.124612 -0.0650229
v -0.0526493 -0.0960544 -0.0265535
v -0.0399513 -0.0948116 -0.0380177
v -0.0392638 -0.0959365 -0.0273661
v 0.163187 -0.156645 -0.0352744
v -0.0262202 -0.093441 -0.0508651
v -0.0109876 -0.0947762 -0.039202
v -0.0256394 -0.0947382 -0.0385972
v 0.342888 -0.0646452 -0.110778
v 0.342747 -0.0334481 -0.106102
v 0.222362 -0.0627835 -0.0868255
v 0.236133 -0.0586752 -0.0922497
v 0.204238 -0.0757635 -0.0807397
v 0.170731 -0.0979644 -0.076135
v 0.154093 -0.1113 -0.073482
v -0.0700537 -0.0947983 -0.0486437
v -0.0834193 -0.0994508 -0.0367141
v 0.162257 -0.161729 -0.0207757
v 0.176246 -0.164474 -0.0164638
v -0.0251155 -0.0959083 -0.0275304
v -0.0107433 -0.0959156 -0.0275494
v 0.358933 -0.0338412 -0.104093
v 0.327345 -0.0331359 -0.106549
v 0.341963 -0.0160676 -0.10568
v 0.311857 -0.0300342 -0.100563
v 0.31495 -0.0145594 -0.0929064
v 0.319385 -0.0155007 -0.103152
v 0.2146 -0.0174714 -0.0747586
v 0.213368 -0.0289407 -0.0855092
v 0.208814 -0.016668 -0.0843076
v 0.187113 -0.084546 -0.0779667
v 0.187826 -0.0733094 -0.079524
v 0.171883 -0.0828288 -0.0784073
v 0.155676 -0.0966571 -0.076538
v 0.138124 -0.12006 -0.0682343
v 0.152232 -0.123876 -0.065942
v 0.137782 -0.128024 -0.0600957
v 0.126935 -0.125346 -0.0508553
v 0.126254 -0.120801 -0.0616443
v 0.137955 -0.134505 -0.0498624
v 0.127156 -0.128046 -0.0357352
v 0.149856 -0.147992 -0.0362864
v 0.150485 -0.141507 -0.0468872
v 0.360162 -0.0166556 -0.103024
v 0.224962 -0.0484484 -0.0888861
v 0.238793 -0.0468111 -0.0808887
v 0.173028 -0.0584945 -0.0813155
v 0.188896 -0.0487721 -0.0820808
v 0.188361 -0.0610407 -0.0808024
v 0.172615 -0.0704988 -0.0800774
v 0.157 -0.081314 -0.0788572
v 0.140866 -0.095142 -0.0768785
v 0.139093 -0.110082 -0.0741119
v 0.115676 -0.115341 -0.0498616
v 0.112375 -0.110793 -0.0616432
v 0.115375 -0.117229 -0.0350336
v 0.138081 -0.138752 -0.0367172
v 0.12704 -0.129681 -0.0202786
v 0.149757 -0.152617 -0.020857
v 0.138361 -0.142673 -0.00500304
v 0.138232 -0.140927 -0.0206735
v 0.202603 -0.0498439 -0.0839697
v 0.201119 -0.0292141 -0.0845429
v 0.14235 -0.0795604 -0.0792937
v 0.126273 -0.0935613 -0.0773205
v 0.124401 -0.109115 -0.0749887
v 0.125238 -0.114358 -0.0697582
v 0.11107 -0.106037 -0.0697888
v 0.104129 -0.107284 -0.0494184
v 0.103256 -0.105566 -0.062476
v 0.149907 -0.15433 -0.00484735
v 0.102829 -0.108444 -0.0346493
v 0.115071 -0.118564 -0.0199717
v 0.126493 -0.130816 -0.00495136
v 0.228451 -0.0381005 -0.0779215
v 0.219976 -0.0264808 -0.0758955
v 0.157719 -0.0688107 -0.0804803
v 0.15809 -0.0578658 -0.0815896
v 0.142967 -0.0675039 -0.0808251
v 0.127746 -0.0781198 -0.0796286
v 0.110741 -0.101381 -0.0745171
v 0.0921815 -0.10113 -0.0498433
v 0.0941375 -0.100338 -0.0633086
v 0.101451 -0.109008 -0.0197715
v 0.114518 -0.119634 -0.0048318
v 0.143707 -0.0468105 -0.0828747
v 0.143337 -0.0571571 -0.0818499
v 0.158973 -0.0307521 -0.0838213
v 0.173441 -0.0469963 -0.0825537
v 0.158461 -0.0469209 -0.0826988
v 0.12841 -0.0664067 -0.0811221
v 0.111885 -0.0920228 -0.0778258
v 0.113294 -0.0768859 -0.0799228
v 0.0993234 -0.0954007 -0.0736685
v 0.0793931 -0.0966469 -0.0517666
v 0.080387 -0.0938746 -0.0679789
v 0.0901475 -0.102149 -0.0349687
v 0.100614 -0.109865 -0.00474114
v 0.0774159 -0.097919 -0.0369472
v 0.200596 -0.0144403 -0.0852664
v 0.188591 -0.0147837 -0.0841316
v 0.18887 -0.0294876 -0.0835764
v 0.144147 -0.0307584 -0.0839773
v 0.129133 -0.0464935 -0.0830552
v 0.159832 -0.0153114 -0.0844582
v 0.173878 -0.0304436 -0.0836746
v 0.0990611 -0.0757618 -0.0802137
v 0.0973824 -0.0903837 -0.0791925
v 0.0646897 -0.09375 -0.0544221
v 0.0640628 -0.0914556 -0.0673473
v 0.0763056 -0.0989039 -0.0211856
v 0.0881598 -0.102676 -0.0199553
v 0.0631132 -0.0951755 -0.0406076
v 0.174737 -0.0152272 -0.0842856
v 0.144769 -0.0153099 -0.0846329
v 0.129509 -0.0307072 -0.0841331
v 0.128762 -0.0567238 -0.0820621
v 0.113933 -0.0654312 -0.081394
v 0.114314 -0.0560655 -0.0822864
v 0.0852286 -0.0886773 -0.0791041
v 0.0483813 -0.0929951 -0.0548153
v 0.0480019 -0.090924 -0.0674313
v 0.0872669 -0.103584 -0.00482464
v 0.0725067 -0.0995059 -0.00621325
v 0.0479567 -0.0945808 -0.0410169
v 0.129868 -0.015304 -0.084805
v 0.114722 -0.0460274 -0.0832429
v 0.11494 -0.0305421 -0.0842889
v 0.0998027 -0.0645363 -0.0816417
v 0.100121 -0.0551316 -0.082526
v 0.0850141 -0.0747784 -0.080478
v 0.071246 -0.087253 -0.0789478
v 0.0606139 -0.086299 -0.078816
v 0.0456295 -0.0858574 -0.0789086
v 0.0328424 -0.093041 -0.0543671
v 0.0324403 -0.0909088 -0.0673789
v 0.0612501 -0.0963579 -0.0273464
v 0.115115 -0.0152483 -0.084973
v 0.100447 -0.0455252 -0.0834293
v 0.100602 -0.0303513 -0.0844421
v 0.0858853 -0.0541592 -0.0826838
v 0.0710248 -0.0741312 -0.0806429
v 0.0856029 -0.0637911 -0.0817836
v 0.0303114 -0.0859153 -0.0789145
v 0.0567273 -0.0737495 -0.0807376
v 0.0178325 -0.0930731 -0.0540832
v 0.0172119 -0.0909878 -0.0671953
v 0.0329317 -0.0945801 -0.0408918
v 0.0181119 -0.0946065 -0.0406609
v 0.0477151 -0.0959589 -0.0273187
v 0.0330038 -0.0959136 -0.027613
v 0.058622 -0.0973659 -0.0129786
v 0.100637 -0.0151468 -0.0851354
v 0.0861509 -0.0451023 -0.0835303
v 0.0715757 -0.044776 -0.0836213
v 0.0713058 -0.0632594 -0.0819035
v 0.0423162 -0.073538 -0.0808247
v 0.0151927 -0.0859892 -0.0788272
v 0.0567775 -0.0629167 -0.0819952
v 0.00301558 -0.0931345 -0.0535406
v 0.0021444 -0.0911237 -0.066783
v 0.0182456 -0.0959387 -0.0273241
v 0.0330132 -0.0971209 -0.0130838
v 0.0477046 -0.0971447 -0.0130373
v 0.0861954 -0.0301283 -0.0845056
v 0.0862714 -0.0150646 -0.0852067
v 0.0567673 -0.0537875 -0.0828451
v 0.0714382 -0.0541925 -0.0827462
v 0.0421388 -0.062735 -0.082075
v 0.0276276 -0.0735281 -0.0808892
v 0.0273071 -0.0627203 -0.0821386
v 0.000126104 -0.0861337 -0.0786903
v 0.0419479 -0.0535373 -0.0829313
v -0.0116804 -0.0932519 -0.052516
v -0.0127941 -0.0913217 -0.0661302
v 0.00345558 -0.0946574 -0.0402136
v 0.0182962 -0.0971243 -0.0130423
v 0.071554 -0.0299353 -0.0845754
v 0.056757 -0.0445282 -0.083707
v 0.0565888 -0.0297831 -0.0846455
v 0.0127856 -0.0735762 -0.0809421
v 0.012419 -0.0627397 -0.0821983
v 0.027026 -0.0537214 -0.082977
v -0.0149209 -0.0863642 -0.0784215
v 0.041759 -0.0444347 -0.0837789
v 0.0413921 -0.0297228 -0.0847124
v -0.0276863 -0.0915988 -0.0651306
v -0.0800772 -0.0998577 -0.020431
v -0.0673702 -0.0959573 -0.0370115
v -0.0636724 -0.0967712 -0.0243983
v 0.0036841 -0.0959538 -0.0271413
v 0.0715412 -0.0149805 -0.0852731
v 0.0121031 -0.0537426 -0.0830377
v -0.00212759 -0.0736412 -0.0809457
v 0.0267344 -0.0443854 -0.0838469
v 0.0262241 -0.0296786 -0.0847785
v -0.0299212 -0.0866418 -0.0780843
v 0.0564198 -0.0149127 -0.0853397
v -0.0408692 -0.0934623 -0.0506436
v -0.0424737 -0.0919573 -0.0637999
v -0.0107078 -0.0971053 -0.0132703
v 0.0117735 -0.0443604 -0.0839128
v 0.0112242 -0.0296542 -0.084843
v -0.00249016 -0.0627803 -0.0822372
v -0.00280762 -0.0538157 -0.0830739
v -0.0170395 -0.0737965 -0.0809034
v 0.0410591 -0.0148654 -0.0854042
v -0.0449567 -0.0870942 -0.0775566
v -0.057063 -0.0924831 -0.0616944
v -0.0548973 -0.0938333 -0.0482981
v -0.038978 -0.0969832 -0.0147108
v -0.0249855 -0.0970433 -0.0140141
v 0.0257686 -0.0148552 -0.0854707
v -0.00314206 -0.0443718 -0.0839554
v -0.00362444 -0.0296567 -0.0848814
v -0.0174589 -0.0629198 -0.0821649
v -0.0177996 -0.0534044 -0.0830481
v -0.0319189 -0.0739665 -0.0808297
v -0.0324089 -0.0630831 -0.0820889
v -0.0537192 -0.0949383 -0.0374662
v 0.0108105 -0.0148459 -0.0855358
v -0.0181192 -0.0444769 -0.0838767
v -0.0327659 -0.0539285 -0.0829372
v -0.0468416 -0.0742558 -0.0807295
v -0.047405 -0.063348 -0.0820014
v -0.0599414 -0.0877375 -0.0769418
v -0.0603784 -0.0974079 -0.0134628
v 0.092443 -0.0967584 -0.0689964
v -0.00379348 -0.0148477 -0.0855665
v -0.0185291 -0.0297429 -0.0848096
v -0.0331285 -0.0446287 -0.0837988
v -0.0477638 -0.0547222 -0.0828008
v -0.0617623 -0.0746894 -0.0806159
v -0.062429 -0.0637193 -0.0819005
v -0.0988853 -0.104016 -0.0506589
v -0.0966123 -0.106198 -0.0201496
v -0.0335039 -0.0298436 -0.084742
v -0.01863 -0.0148825 -0.0855013
v -0.0481761 -0.0448131 -0.0837191
v -0.0628161 -0.0550052 -0.0827094
v -0.0767583 -0.0755073 -0.0804439
v -0.0775164 -0.0643273 -0.081773
v -0.0916893 -0.0771485 -0.0800869
v -0.100941 -0.102455 -0.0651852
v -0.110569 -0.113247 -0.0352048
v -0.0975673 -0.105283 -0.0354516
v -0.0958913 -0.107156 -0.00492454
v -0.0782285 -0.101301 -0.00613028
v -0.10982 -0.114216 -0.0200074
v -0.0336465 -0.0149367 -0.0854367
v -0.048531 -0.029951 -0.0846736
v -0.0486686 -0.0149889 -0.0853664
v -0.063258 -0.0450615 -0.0836325
v -0.0635304 -0.0300705 -0.0846049
v -0.0778965 -0.0555587 -0.0825885
v -0.0925943 -0.0653334 -0.0815858
v -0.106634 -0.0794969 -0.079653
v -0.113627 -0.109825 -0.065083
v -0.104317 -0.0959385 -0.0776977
v -0.111596 -0.111883 -0.0503222
v -0.122341 -0.123184 -0.0353529
v -0.109136 -0.115172 -0.00486219
v -0.121698 -0.124226 -0.0201089
v -0.0635671 -0.015048 -0.0853053
v -0.0783397 -0.0453313 -0.0835397
v -0.0930097 -0.056114 -0.0824574
v -0.107674 -0.0668422 -0.081291
v -0.121589 -0.08247 -0.079114
v -0.132395 -0.115124 -0.0725459
v -0.138269 -0.123115 -0.0651258
v -0.148405 -0.117291 -0.0708402
v -0.136749 -0.132554 -0.0505817
v -0.123215 -0.121888 -0.0505037
v -0.1211 -0.125271 -0.00490279
v -0.135068 -0.135628 -0.0357239
v -0.1345 -0.136791 -0.0203388
v -0.0783886 -0.0150947 -0.0852396
v -0.0935333 -0.0302399 -0.0844766
v -0.078507 -0.0301857 -0.0845413
v -0.108162 -0.0571698 -0.0822268
v -0.0934833 -0.0456026 -0.083451
v -0.122735 -0.0688749 -0.080857
v -0.134809 -0.100196 -0.0762384
v -0.136573 -0.0850255 -0.0785645
v -0.136742 -0.128252 -0.0597752
v -0.124975 -0.119833 -0.0605742
v -0.148103 -0.140067 -0.0504842
v -0.147988 -0.146067 -0.0360443
v -0.134139 -0.138124 -0.0048982
v -0.14716 -0.148915 -0.02053
v -0.0932892 -0.0150984 -0.08518
v -0.108708 -0.0301931 -0.0843706
v -0.123375 -0.0571656 -0.0820284
v -0.108739 -0.0457184 -0.0833347
v -0.137951 -0.0703294 -0.0805496
v -0.151599 -0.0870969 -0.0780088
v -0.119136 -0.0991627 -0.0773184
v -0.162107 -0.142056 -0.0485125
v -0.160534 -0.153406 -0.0370069
v -0.146923 -0.150517 -0.00489838
v -0.161 -0.159981 -0.0210649
v -0.108556 -0.0150379 -0.0850567
v -0.124026 -0.0452433 -0.0832211
v -0.138684 -0.0581545 -0.081943
v -0.152981 -0.0723266 -0.0801324
v -0.166722 -0.0887399 -0.0775757
v -0.149971 -0.10229 -0.0757211
v -0.165212 -0.103948 -0.0752054
v -0.162805 -0.130667 -0.0593305
v -0.147647 -0.129441 -0.0608749
v -0.177842 -0.143179 -0.0473273
v -0.160748 -0.162674 -0.00511438
v -0.123913 -0.015012 -0.084888
v -0.123997 -0.0301185 -0.0842152
v -0.139245 -0.0447361 -0.0831054
v -0.153873 -0.0586246 -0.0817308
v -0.154451 -0.0446454 -0.0829361
v -0.168055 -0.0738453 -0.0797992
v -0.163666 -0.118692 -0.0697305
v -0.180464 -0.105322 -0.0747053
v -0.178186 -0.13173 -0.0581109
v -0.178112 -0.154505 -0.0361394
v -0.193401 -0.144047 -0.0465348
v -0.139234 -0.0150471 -0.0847108
v -0.139278 -0.0300572 -0.0840548
v -0.169001 -0.0594706 -0.0814682
v -0.169605 -0.0449816 -0.0827256
v -0.181923 -0.0899941 -0.0771691
v -0.183149 -0.0750034 -0.0794604
v -0.178909 -0.119857 -0.0686915
v -0.196182 -0.106156 -0.074751
v -0.193656 -0.132584 -0.0571209
v -0.208777 -0.144677 -0.0459442
v -0.194178 -0.155374 -0.0350643
v -0.209685 -0.1558 -0.0344942
v -0.18068 -0.163525 -0.021286
v -0.154533 -0.0150801 -0.0845311
v -0.154601 -0.030054 -0.0839
v -0.169861 -0.0301964 -0.0837314
v -0.184077 -0.0601864 -0.081177
v -0.197595 -0.0903898 -0.0775157
v -0.198523 -0.075196 -0.0799547
v -0.194306 -0.120933 -0.0676727
v -0.211529 -0.107283 -0.0764972
v -0.213041 -0.0899406 -0.0808515
v -0.208998 -0.133202 -0.0564002
v -0.196591 -0.163924 -0.0203789
v -0.212281 -0.164179 -0.0197096
v -0.224098 -0.145209 -0.0454097
v -0.182644 -0.167791 -0.00455696
v -0.169828 -0.0151747 -0.0843487
v -0.184749 -0.045289 -0.082467
v -0.185191 -0.0302602 -0.0835534
v -0.199361 -0.060133 -0.0817692
v -0.209609 -0.1217 -0.0669414
v -0.226054 -0.10715 -0.0779825
v -0.227275 -0.0915648 -0.0849145
v -0.224126 -0.133629 -0.0558562
v -0.198354 -0.167797 -0.00427986
v -0.213991 -0.167793 -0.00420964
v -0.225192 -0.156156 -0.0340028
v -0.239458 -0.145786 -0.0447993
v -0.200047 -0.0451146 -0.0832065
v -0.200659 -0.0301157 -0.084379
v -0.214426 -0.0598695 -0.0851117
v -0.215107 -0.0449884 -0.086678
v -0.213677 -0.0747543 -0.083244
v -0.224698 -0.12214 -0.0662414
v -0.240912 -0.107688 -0.0779082
v -0.239135 -0.134137 -0.055159
v -0.227825 -0.164353 -0.0192116
v -0.240729 -0.156511 -0.0335003
v -0.243229 -0.164457 -0.0188332
v -0.254731 -0.146214 -0.0444096
v -0.256039 -0.156659 -0.0332955
v -0.185321 -0.0151633 -0.0841424
v -0.215815 -0.0301354 -0.0878962
v -0.228972 -0.0599928 -0.0894227
v -0.229663 -0.0451726 -0.0909822
v -0.228211 -0.0748236 -0.0874945
v -0.242069 -0.0902342 -0.0886787
v -0.239531 -0.122585 -0.0655099
v -0.25584 -0.107933 -0.0775719
v -0.254134 -0.134729 -0.0544537
v -0.229392 -0.167794 -0.00415618
v -0.244832 -0.167815 -0.00403316
v -0.269963 -0.146521 -0.0441381
v -0.271342 -0.156739 -0.0331835
v -0.201132 -0.0150888 -0.0850212
v -0.216561 -0.0151403 -0.088686
v -0.230372 -0.030252 -0.0921401
v -0.243493 -0.0602214 -0.0936692
v -0.244088 -0.0453716 -0.0951882
v -0.24273 -0.074984 -0.0917571
v -0.25682 -0.0890381 -0.0918822
v -0.254465 -0.12337 -0.0646781
v -0.270908 -0.108489 -0.0769945
v -0.269081 -0.135211 -0.0538633
v -0.258638 -0.164577 -0.0185198
v -0.27392 -0.164601 -0.0184304
v -0.285153 -0.146936 -0.0437418
v -0.28665 -0.156798 -0.0331026
v -0.231218 -0.0152358 -0.0929801
v -0.244774 -0.0303873 -0.0963039
v -0.257931 -0.0604353 -0.0978606
v -0.257187 -0.0751099 -0.0960519
v -0.272406 -0.0879544 -0.0943655
v -0.271732 -0.0748165 -0.099981
v -0.269409 -0.124218 -0.0636302
v -0.283934 -0.135788 -0.0532222
v -0.260339 -0.167824 -0.00402088
v -0.275856 -0.167837 -0.00396097
v -0.28927 -0.164647 -0.0183312
v -0.300368 -0.147794 -0.0429924
v -0.245472 -0.0153047 -0.0971573
v -0.258375 -0.0455034 -0.0993513
v -0.258883 -0.0304701 -0.100395
v -0.272131 -0.0603759 -0.101818
v -0.286357 -0.0866636 -0.0950034
v -0.286662 -0.0741598 -0.101968
v -0.28578 -0.110096 -0.0752391
v -0.319478 -0.107795 -0.0759401
v -0.30049 -0.115906 -0.0698926
v -0.317409 -0.11881 -0.0654129
v -0.284271 -0.125207 -0.0623237
v -0.299073 -0.137401 -0.0517001
v -0.291105 -0.16784 -0.00401039
v -0.301829 -0.15679 -0.0331274
v -0.315509 -0.151265 -0.0414252
v -0.31576 -0.157249 -0.0332249
v -0.259403 -0.0153237 -0.101231
v -0.272217 -0.0454259 -0.103192
v -0.272311 -0.0303906 -0.104123
v -0.286309 -0.0599752 -0.103994
v -0.303621 -0.100088 -0.0831274
v -0.302008 -0.0852155 -0.0957189
v -0.299347 -0.126611 -0.0607946
v -0.301425 -0.073428 -0.101932
v -0.304188 -0.164467 -0.0188135
v -0.316615 -0.164615 -0.0196716
v -0.285993 -0.0451251 -0.10528
v -0.285866 -0.0302436 -0.106126
v -0.300677 -0.0591557 -0.104088
v -0.314164 -0.0736697 -0.103458
v -0.316295 -0.0844694 -0.0941649
v -0.317267 -0.129794 -0.0557843
v -0.330234 -0.10284 -0.0638319
v -0.32581 -0.110526 -0.05436
v -0.328481 -0.0954012 -0.0818907
v -0.272449 -0.0152603 -0.10483
v -0.285872 -0.01529 -0.10679
v -0.299944 -0.0443262 -0.105387
v -0.298894 -0.0298744 -0.106193
v -0.314732 -0.0587416 -0.105881
v -0.314509 -0.0439483 -0.106956
v -0.321586 -0.0933527 -0.0853835
v -0.330231 -0.0855151 -0.0974626
v -0.326213 -0.0773783 -0.111353
v -0.300225 -0.0156045 -0.106824
v -0.31279 -0.0298971 -0.105618
v -0.327497 -0.0595963 -0.110861
v -0.328209 -0.0433948 -0.111468
v -0.342878 -0.0835965 -0.105823
v -0.341605 -0.0760084 -0.111244
v -0.321271 -0.134539 -0.0369527
v -0.321532 -0.122799 -0.0470409
v -0.305904 -0.167836 -0.00403637
v -0.320441 -0.166477 -0.00473434
v -0.313137 -0.0150515 -0.106475
v -0.327128 -0.0306549 -0.105179
v -0.342691 -0.0594157 -0.110778
v -0.343339 -0.0433248 -0.111253
v -0.35499 -0.0836808 -0.104305
v -0.35307 -0.086331 -0.0910772
v -0.32587 -0.0147498 -0.106136
v -0.341846 -0.0297642 -0.104509
v -0.359451 -0.0597305 -0.10911
v -0.360065 -0.0436678 -0.109438
v -0.358271 -0.074767 -0.109333
v -0.361799 -0.0756205 -0.0932459
v -0.338644 -0.0945951 -0.0729206
v -0.353788 -0.088599 -0.0785234
v -0.341366 -0.01451 -0.105728
v -0.355652 -0.0293042 -0.103958
v -0.362679 -0.0608976 -0.0946771
v -0.362698 -0.0752317 -0.0806768
v -0.3551 -0.0144985 -0.10549
v -0.363477 -0.0602295 -0.0820309
v -0.362992 -0.0149078 -0.100708
v -0.362742 -0.029858 -0.099902
v -0.365169 -0.0275856 -0.0847111
v -0.362335 -0.0442788 -0.0973368
v -0.364323 -0.0439075 -0.083371
v -0.365377 -0.0135768 -0.0851139
v 0.321232 -0.1299 -0.0398844
v 0.348104 -0.0902499 -0.0769641
v 0.360169 -0.0495431 -0.109173
v 0.361768 -0.0331232 -0.0959765
v 0.251027 -0.0605104 -0.0957094
v 0.161942 -0.163689 -0.00498856
v 0.20342 -0.0625699 -0.0823547
v 0.101174 -0.100184 -0.0684018
v 0.0687778 -0.0976309 -0.0242659
v -0.130323 -0.118883 -0.0658151
v -0.321347 -0.145064 -0.0264423
v -0.316364 -0.142361 -0.047
v -0.316029 -0.0916148 -0.0882709
v -0.309517 -0.104012 -0.0791165
v 0.190516 -0.167925 -0.00292868
v 0.17577 -0.168107 -0.00268245
v 0.0885209 -0.0929866 -0.0732667
v 0.300928 -0.0395999 -0.0930902
v 0.308809 -0.0276927 -0.0913899
v 0.314148 -0.0734907 -0.099236
v 0.3648 -0.0323555 -0.0845584
v 0.36484 -0.0165788 -0.0952369
v 0.365149 -0.0164271 -0.0852655
v 0.319249 -0.164131 -0.00421078
v -0.321739 -0.153632 -0.00875986
v 0.327995 0.10535 -0.0614989
v 0.234287 0.167885 -0.00331747
v 0.313244 0.044839 -0.107692
v 0.00367439 0.0971244 -0.0130407
v -0.0520253 0.0970322 -0.0144719
v -0.32581 0.110526 -0.05436
v 0.365149 0.0164271 -0.0852655
v 0.279646 -0.0528275 -0.0917627
v 0.00367439 -0.0971245 -0.0130407
v -0.0520253 -0.0970323 -0.0144719
v 0.321799 -0.15245 -0.00876415
f 1 2 3
f 4 5 6
f 7 8 5
f 9 10 11
f 12 9 13
f 4 14 15
f 16 17 4
f 18 5 17
f 19 10 7
f 11 13 9
f 11 20 21
f 22 3 12
f 13 23 12
f 15 16 4
f 24 25 16
f 17 26 18
f 27 7 18
f 28 20 19
f 21 29 11
f 30 29 31
f 21 32 33
f 34 30 35
f 16 36 24
f 37 38 39
f 40 25 37
f 18 41 27
f 19 42 28
f 43 32 28
f 44 33 45
f 31 44 46
f 35 31 47
f 33 48 49
f 50 37 39
f 51 26 40
f 27 52 42
f 28 53 43
f 54 48 43
f 45 49 55
f 45 46 44
f 47 46 56
f 49 57 58
f 59 60 61
f 51 50 62
f 63 41 51
f 42 64 53
f 43 65 54
f 57 66 67
f 55 68 45
f 55 58 69
f 56 68 70
f 58 67 71
f 72 73 74
f 59 73 75
f 62 63 51
f 74 38 72
f 76 52 63
f 53 77 65
f 78 54 65
f 67 79 80
f 81 82 83
f 82 70 68
f 69 71 84
f 80 71 67
f 85 86 87
f 60 88 89
f 90 76 63
f 86 91 87
f 92 64 76
f 65 93 78
f 94 66 78
f 80 95 96
f 97 98 99
f 83 84 100
f 84 101 102
f 101 96 103
f 104 105 106
f 107 60 108
f 109 110 89
f 111 62 50
f 88 112 113
f 88 109 89
f 114 115 116
f 92 114 117
f 118 105 119
f 120 77 92
f 121 78 93
f 122 79 94
f 123 95 124
f 125 126 127
f 127 128 129
f 100 102 98
f 103 102 101
f 103 123 130
f 106 131 132
f 108 133 107
f 112 107 134
f 135 110 136
f 137 114 116
f 138 139 135
f 140 92 117
f 141 105 142
f 93 143 121
f 144 94 121
f 145 95 122
f 146 124 147
f 148 149 150
f 81 100 97
f 98 151 152
f 151 130 153
f 154 155 156
f 106 133 157
f 107 158 134
f 159 160 161
f 162 120 140
f 143 144 121
f 122 163 145
f 164 124 145
f 165 166 125
f 167 151 153
f 168 154 156
f 169 133 132
f 134 170 171
f 113 172 173
f 174 175 176
f 177 162 178
f 163 177 179
f 180 145 163
f 181 164 182
f 183 184 185
f 186 187 183
f 130 188 153
f 189 158 169
f 190 170 191
f 171 192 172
f 161 193 194
f 195 196 197
f 178 179 177
f 179 180 163
f 164 198 182
f 199 185 200
f 183 201 186
f 202 203 186
f 204 205 206
f 207 170 189
f 174 208 161
f 209 210 179
f 210 198 180
f 211 182 198
f 200 212 213
f 200 214 199
f 206 167 204
f 201 214 215
f 186 216 202
f 217 218 205
f 189 219 207
f 174 194 220
f 221 196 222
f 223 221 224
f 211 223 225
f 226 211 227
f 228 229 230
f 215 216 201
f 215 228 231
f 232 202 216
f 176 233 234
f 176 235 174
f 222 236 237
f 238 239 240
f 224 225 223
f 225 227 211
f 241 227 242
f 230 243 228
f 231 244 215
f 232 244 245
f 246 228 243
f 234 247 176
f 248 235 247
f 239 249 240
f 250 251 238
f 237 252 253
f 240 254 238
f 255 256 225
f 227 257 242
f 258 259 260
f 231 261 262
f 245 262 263
f 243 264 246
f 265 248 247
f 266 249 248
f 238 267 250
f 268 236 250
f 269 253 270
f 266 271 254
f 269 257 256
f 257 272 242
f 260 273 258
f 263 261 274
f 273 264 258
f 275 248 276
f 277 254 271
f 278 250 267
f 279 268 280
f 270 281 269
f 282 281 283
f 282 284 272
f 285 286 287
f 285 288 273
f 288 289 273
f 290 289 291
f 292 267 277
f 293 268 278
f 280 294 279
f 295 294 296
f 283 297 282
f 286 297 298
f 287 299 285
f 287 298 300
f 301 299 302
f 301 303 288
f 303 291 289
f 304 291 305
f 293 292 306
f 307 293 308
f 296 307 309
f 295 310 311
f 298 312 313
f 300 314 287
f 314 302 299
f 313 300 298
f 302 315 301
f 315 316 301
f 317 316 318
f 291 319 305
f 308 306 320
f 308 309 307
f 309 310 296
f 321 310 322
f 323 324 325
f 323 326 314
f 327 326 328
f 324 321 329
f 330 327 331
f 330 332 315
f 318 332 333
f 318 319 317
f 320 334 308
f 334 335 309
f 322 335 336
f 325 337 323
f 325 329 338
f 328 337 339
f 328 331 327
f 336 340 322
f 155 331 341
f 342 343 344
f 333 154 345
f 333 346 318
f 347 348 334
f 336 348 349
f 338 350 325
f 339 350 351
f 352 353 354
f 339 355 328
f 341 355 356
f 349 353 336
f 341 357 155
f 148 155 357
f 358 333 345
f 349 359 360
f 354 361 352
f 362 351 350
f 363 351 364
f 354 365 366
f 356 363 367
f 356 368 341
f 365 360 369
f 370 357 368
f 371 168 150
f 148 372 373
f 374 345 168
f 366 375 354
f 375 376 361
f 364 377 378
f 367 364 379
f 366 369 380
f 367 381 356
f 370 381 382
f 203 383 187
f 149 371 150
f 342 372 166
f 380 384 366
f 384 385 375
f 386 385 387
f 378 379 364
f 379 388 367
f 382 388 389
f 382 126 370
f 150 156 148
f 390 149 344
f 259 391 392
f 393 384 394
f 387 395 396
f 387 397 386
f 397 398 399
f 389 400 401
f 128 389 402
f 166 370 126
f 403 165 125
f 343 390 344
f 404 165 405
f 406 395 393
f 396 407 387
f 408 407 409
f 410 408 411
f 401 402 389
f 128 412 129
f 413 129 414
f 403 127 413
f 415 403 416
f 343 417 418
f 419 405 415
f 396 420 421
f 409 421 422
f 411 409 423
f 424 410 425
f 426 402 424
f 129 427 414
f 414 428 413
f 413 416 403
f 416 429 415
f 404 430 417
f 415 431 419
f 432 421 420
f 433 409 422
f 434 423 435
f 436 424 425
f 437 412 426
f 414 438 439
f 440 441 442
f 443 429 444
f 431 430 419
f 431 445 446
f 447 422 432
f 423 448 435
f 434 449 450
f 450 451 436
f 427 452 438
f 438 453 439
f 454 444 455
f 445 456 457
f 458 446 459
f 457 446 445
f 433 460 448
f 435 461 449
f 462 450 449
f 463 464 465
f 466 438 452
f 453 467 468
f 439 440 428
f 440 455 428
f 457 469 470
f 459 471 472
f 470 471 457
f 448 473 461
f 449 474 462
f 462 465 464
f 465 475 463
f 476 477 466
f 468 478 479
f 440 468 480
f 481 456 482
f 470 483 484
f 485 472 471
f 461 486 474
f 487 462 474
f 488 489 490
f 491 488 492
f 466 491 476
f 493 467 476
f 479 480 468
f 494 478 495
f 482 496 481
f 497 469 481
f 498 484 483
f 485 484 499
f 416 455 444
f 474 500 487
f 501 489 487
f 492 490 502
f 492 503 491
f 503 476 491
f 495 493 504
f 505 479 494
f 506 495 507
f 505 481 496
f 508 483 497
f 509 510 511
f 499 509 512
f 499 513 485
f 487 514 501
f 490 515 502
f 492 516 517
f 518 517 519
f 493 518 504
f 504 507 495
f 520 494 506
f 521 507 522
f 520 497 505
f 498 523 510
f 512 511 524
f 511 525 526
f 512 527 499
f 528 501 514
f 502 529 516
f 519 516 530
f 519 531 518
f 518 532 504
f 522 532 533
f 534 506 521
f 522 535 521
f 534 508 520
f 510 536 525
f 524 537 512
f 524 526 538
f 539 526 525
f 515 540 529
f 530 529 541
f 530 542 519
f 542 543 531
f 531 533 532
f 533 544 522
f 521 545 534
f 546 544 547
f 545 523 534
f 525 548 539
f 538 549 524
f 538 550 551
f 552 550 539
f 529 553 541
f 541 554 530
f 555 554 556
f 557 555 558
f 559 543 557
f 547 559 560
f 535 561 545
f 562 547 563
f 561 536 545
f 564 539 548
f 551 565 538
f 551 566 567
f 568 566 552
f 553 569 541
f 569 556 554
f 556 558 555
f 570 558 571
f 557 560 559
f 560 563 547
f 572 546 562
f 563 573 562
f 572 548 561
f 552 574 568
f 567 575 551
f 567 576 577
f 578 576 568
f 579 580 569
f 580 581 556
f 571 581 582
f 583 571 584
f 585 570 583
f 586 585 587
f 573 572 562
f 564 588 574
f 568 589 578
f 590 577 591
f 577 592 593
f 594 592 578
f 595 596 580
f 582 596 597
f 582 584 571
f 598 584 599
f 587 583 598
f 587 600 586
f 601 588 573
f 602 603 604
f 574 605 589
f 578 606 594
f 593 591 577
f 593 607 608
f 609 607 594
f 597 610 611
f 597 612 582
f 599 612 613
f 599 614 598
f 598 615 587
f 600 616 601
f 605 602 617
f 615 618 600
f 586 601 573
f 617 589 605
f 608 619 593
f 608 620 621
f 622 611 623
f 613 622 624
f 625 613 626
f 625 627 614
f 614 628 615
f 618 629 630
f 617 604 631
f 632 604 603
f 632 633 634
f 624 623 635
f 626 624 636
f 637 626 638
f 639 637 640
f 629 627 639
f 630 641 642
f 643 629 644
f 636 635 645
f 636 638 626
f 637 646 640
f 640 647 639
f 629 647 644
f 644 648 643
f 649 631 650
f 621 651 608
f 652 636 645
f 646 653 654
f 655 640 646
f 656 657 647
f 647 658 644
f 659 658 660
f 661 648 659
f 646 662 655
f 663 656 655
f 664 665 666
f 660 657 664
f 659 667 661
f 634 661 668
f 655 669 663
f 665 670 666
f 652 654 653
f 660 671 667
f 661 672 668
f 669 673 674
f 663 675 670
f 603 641 633
f 667 676 672
f 677 669 674
f 678 670 675
f 679 680 681
f 675 682 678
f 683 682 684
f 6 685 14
f 8 6 5
f 24 686 86
f 131 169 132
f 83 55 69
f 687 90 62
f 104 157 75
f 141 688 131
f 138 160 689
f 152 690 691
f 153 204 167
f 692 178 162
f 235 195 208
f 693 226 241
f 260 284 286
f 264 290 694
f 694 304 274
f 344 373 342
f 188 217 204
f 442 454 455
f 426 451 437
f 695 620 609
f 604 650 631
f 437 463 452
f 609 649 695
f 696 662 654
f 642 697 616
f 482 443 454
f 482 441 480
f 99 152 691
f 123 383 130
f 187 146 184
f 230 693 391
f 184 147 181
f 182 212 181
f 213 698 226
f 229 213 693
f 181 185 184
f 259 272 284
f 392 242 272
f 391 241 392
f 113 699 88
f 692 140 159
f 50 61 111
f 134 113 112
f 72 24 86
f 688 189 169
f 700 701 688
f 3 8 9
f 22 23 702
f 703 23 34
f 701 704 219
f 621 705 706
f 594 707 609
f 631 606 617
f 434 436 425
f 425 411 434
f 401 398 410
f 399 400 379
f 386 399 378
f 378 376 386
f 361 377 362
f 352 362 338
f 338 340 352
f 329 322 340
f 313 311 321
f 283 311 312
f 283 708 295
f 279 708 270
f 270 252 279
f 237 255 224
f 111 60 89
f 85 75 73
f 91 119 87
f 85 119 104
f 157 59 75
f 74 61 39
f 110 111 89
f 139 687 110
f 689 115 139
f 160 116 689
f 140 137 159
f 208 159 161
f 208 197 692
f 197 209 178
f 251 196 239
f 224 222 237
f 452 475 466
f 680 664 666
f 602 616 697
f 642 618 630
f 666 681 680
f 643 633 641
f 679 678 683
f 709 671 680
f 710 711 712
f 713 714 715
f 716 717 714
f 718 719 720
f 721 719 712
f 713 722 723
f 715 724 713
f 714 725 715
f 726 718 727
f 720 728 729
f 720 727 718
f 712 730 721
f 731 728 721
f 724 732 713
f 733 734 724
f 715 735 733
f 736 717 726
f 737 727 738
f 729 739 720
f 729 740 741
f 739 738 727
f 742 740 731
f 724 743 744
f 745 746 747
f 733 748 746
f 749 725 736
f 750 726 737
f 738 751 737
f 752 753 739
f 741 752 729
f 741 754 755
f 753 756 738
f 746 757 747
f 758 735 749
f 736 759 749
f 737 760 750
f 756 761 751
f 762 763 764
f 765 763 752
f 765 755 766
f 767 762 768
f 769 770 771
f 757 758 772
f 749 773 758
f 750 774 759
f 751 775 760
f 776 767 777
f 764 778 779
f 764 768 762
f 766 778 765
f 768 777 767
f 780 781 782
f 781 769 783
f 772 773 784
f 745 785 780
f 759 786 773
f 760 787 774
f 761 788 775
f 789 777 790
f 779 791 792
f 779 793 794
f 795 796 797
f 790 795 798
f 799 782 781
f 800 770 801
f 786 784 773
f 802 782 803
f 804 774 787
f 775 805 787
f 806 776 789
f 790 807 789
f 808 809 810
f 797 792 810
f 797 798 795
f 811 798 812
f 813 814 815
f 816 770 817
f 818 819 801
f 820 772 821
f 800 822 817
f 819 800 801
f 823 824 825
f 824 804 826
f 814 827 815
f 787 828 804
f 829 788 806
f 789 830 806
f 831 807 811
f 832 833 834
f 835 834 836
f 837 810 809
f 812 837 838
f 831 812 839
f 840 841 814
f 842 771 816
f 822 816 817
f 843 818 844
f 824 845 825
f 844 846 843
f 847 804 828
f 814 848 849
f 850 805 829
f 806 851 829
f 807 852 830
f 853 854 831
f 855 856 857
f 810 791 808
f 809 838 837
f 839 838 858
f 859 860 861
f 842 840 862
f 816 863 842
f 864 865 845
f 866 828 850
f 851 850 829
f 830 867 851
f 854 868 852
f 869 870 833
f 871 838 872
f 873 860 874
f 875 842 863
f 876 877 863
f 878 879 880
f 881 882 883
f 866 884 885
f 884 867 886
f 852 887 867
f 888 868 889
f 890 891 892
f 893 894 891
f 839 895 896
f 863 897 875
f 190 877 880
f 880 192 190
f 898 899 865
f 900 901 902
f 885 886 903
f 886 887 904
f 905 868 906
f 892 907 908
f 891 909 907
f 910 911 894
f 912 913 914
f 207 877 191
f 882 915 916
f 904 903 886
f 904 905 917
f 918 906 919
f 920 908 921
f 908 922 923
f 871 924 912
f 922 909 925
f 894 926 909
f 914 927 911
f 219 897 207
f 928 882 929
f 900 930 931
f 930 917 932
f 917 918 933
f 934 918 919
f 923 935 936
f 925 926 937
f 925 935 922
f 938 911 927
f 233 883 234
f 916 883 882
f 939 931 940
f 941 942 943
f 932 933 944
f 933 945 946
f 947 945 934
f 936 948 949
f 937 950 925
f 937 938 951
f 935 952 948
f 234 953 265
f 916 954 953
f 942 955 901
f 943 956 941
f 940 957 939
f 958 959 941
f 946 944 933
f 960 945 961
f 949 962 963
f 964 950 965
f 951 965 937
f 948 966 962
f 265 954 276
f 955 967 954
f 941 968 958
f 969 939 957
f 970 971 972
f 271 967 958
f 960 971 946
f 973 960 961
f 963 974 975
f 964 976 977
f 974 966 978
f 954 275 276
f 277 958 968
f 956 979 968
f 969 980 981
f 972 982 983
f 984 982 960
f 985 984 973
f 986 975 987
f 975 988 989
f 978 988 974
f 990 978 966
f 968 292 277
f 991 969 981
f 981 992 993
f 994 992 983
f 995 996 984
f 986 995 985
f 987 989 997
f 987 998 986
f 989 999 1000
f 999 1001 1002
f 1001 1003 1004
f 1005 1003 990
f 991 292 979
f 991 993 1006
f 1007 993 992
f 994 1008 1007
f 998 1009 995
f 997 1010 987
f 997 1000 1011
f 1010 1012 998
f 1000 1013 1014
f 1002 1013 999
f 1002 1004 1015
f 1016 1003 1017
f 1006 306 991
f 1006 1018 1019
f 1008 1018 1007
f 1020 1008 1021
f 1022 1023 1024
f 1011 1023 997
f 1011 1014 1025
f 1020 1022 1026
f 1014 1027 1028
f 1029 1027 1013
f 1015 1029 1002
f 1015 1016 1030
f 1019 320 1006
f 1031 1019 1018
f 1031 1032 1033
f 1024 1034 1035
f 1026 1024 1036
f 1025 1034 1011
f 1025 1028 1037
f 1033 1038 1039
f 1028 859 1040
f 1041 1042 1043
f 860 1044 874
f 1030 1044 1015
f 347 1045 359
f 1033 1045 1031
f 1036 1035 1046
f 1047 1035 1034
f 1039 1048 1049
f 1037 1047 1025
f 1037 1040 1050
f 1039 1051 1033
f 1040 1052 1053
f 856 859 861
f 1044 1054 874
f 1051 359 1045
f 1049 1055 1056
f 1046 1057 1058
f 1059 1057 1047
f 1049 1060 1039
f 1050 1059 1037
f 1050 1053 1061
f 1060 360 1051
f 1062 1052 1063
f 873 1064 857
f 856 1063 1052
f 874 1065 873
f 1056 1066 1049
f 1056 1067 1068
f 1058 1069 1070
f 1069 1071 1072
f 1066 369 1060
f 1061 1071 1050
f 1062 1061 1053
f 896 910 893
f 1064 855 857
f 1042 1063 1073
f 1074 380 1066
f 1068 1074 1056
f 1075 1068 1067
f 1070 1072 1076
f 1072 1077 1078
f 1079 1077 1061
f 832 1079 1062
f 857 861 873
f 855 1080 1043
f 949 1081 936
f 393 1074 1082
f 1083 1082 1068
f 1084 1083 1075
f 1085 1084 1076
f 1078 1086 1087
f 835 1086 1079
f 1062 869 832
f 870 1088 833
f 1080 1041 1043
f 1089 870 1041
f 1082 406 393
f 1090 1091 1083
f 1092 1090 1084
f 1093 1092 1085
f 1087 1094 1095
f 1096 835 836
f 1097 836 834
f 834 1088 1097
f 1098 1088 1099
f 1100 1041 1101
f 1099 1102 1098
f 1091 420 406
f 1103 1104 1105
f 1104 1106 1107
f 1093 1095 1108
f 1109 1094 1096
f 836 1110 1096
f 1111 1112 1097
f 1097 1113 1111
f 1114 1113 1098
f 1089 1115 1102
f 1098 1116 1114
f 432 1103 1105
f 1104 1117 1105
f 1118 1107 1106
f 1095 1119 1108
f 1096 1120 1109
f 1112 1121 1110
f 1122 1123 1124
f 1114 1125 1126
f 1116 1115 1127
f 1128 1116 1129
f 1105 447 432
f 1107 1130 1117
f 1118 1131 1132
f 1133 1134 1119
f 1135 1110 1121
f 1121 1136 1137
f 1126 1138 1139
f 1140 1128 1141
f 1129 1127 1142
f 1141 1129 1143
f 1117 460 447
f 1144 1132 1131
f 1134 1145 1131
f 1146 1147 1133
f 1148 1121 1137
f 1136 1149 1137
f 1122 1150 1111
f 1139 1122 1111
f 1151 1141 1152
f 1143 1142 1153
f 1152 1143 1154
f 473 1130 1144
f 1131 1155 1144
f 1156 1145 1147
f 1157 1156 1146
f 1137 1158 1148
f 1159 1160 1161
f 1122 1160 1136
f 1140 1162 1163
f 1152 1164 1151
f 1154 1153 1165
f 1144 486 473
f 1166 1145 1167
f 1168 1167 1156
f 1168 1169 1170
f 1148 1169 1157
f 1149 1171 1158
f 1161 1124 1172
f 1173 1159 1161
f 1163 1172 1124
f 1174 1151 1164
f 1175 1176 1164
f 1154 1175 1152
f 1113 1139 1111
f 500 1155 1166
f 1167 1177 1166
f 1170 1178 1168
f 1170 1179 1180
f 1179 1158 1171
f 1171 1181 1182
f 1183 1161 1172
f 1184 1181 1173
f 1183 1162 1174
f 1164 1185 1174
f 1186 1187 1188
f 1189 1187 1175
f 1165 1189 1154
f 1166 514 500
f 1190 1178 1191
f 1170 1192 1191
f 1193 1180 1179
f 1193 1171 1182
f 1182 1194 1195
f 1196 1173 1183
f 1194 1197 1198
f 1196 1174 1185
f 1199 1176 1186
f 1188 1200 1201
f 1188 1202 1186
f 1203 1200 1189
f 1177 528 514
f 1191 1204 1190
f 1192 1205 1206
f 1207 1205 1193
f 1195 1193 1182
f 1198 1195 1194
f 1208 1184 1196
f 1198 1209 1210
f 1208 1185 1199
f 1186 1211 1199
f 1201 1212 1213
f 1201 1214 1188
f 1214 1215 1202
f 540 1190 1204
f 1206 1204 1192
f 1206 1216 1217
f 1216 1218 1219
f 1220 1207 1195
f 1210 1220 1198
f 1221 1197 1208
f 1222 1210 1209
f 1199 1221 1208
f 1202 1223 1211
f 1213 1224 1201
f 1225 1224 1226
f 1227 1225 1228
f 553 1204 1229
f 1217 1229 1206
f 1217 1219 1230
f 1219 1231 1232
f 1233 1218 1220
f 1234 1233 1210
f 1235 1209 1221
f 1236 1234 1222
f 1211 1235 1221
f 1237 1215 1227
f 1226 1238 1239
f 1226 1228 1225
f 1240 1228 1241
f 1242 553 1229
f 1242 1230 1243
f 1230 1232 1244
f 1232 1245 1246
f 1247 1231 1233
f 1248 1247 1234
f 1222 1249 1236
f 1250 1248 1236
f 1223 1249 1235
f 1251 1227 1240
f 1239 1252 1226
f 1241 1252 1253
f 1254 1241 1255
f 1243 579 1242
f 1243 1244 1256
f 1244 1246 1257
f 1258 1246 1245
f 1245 1259 1258
f 1259 1260 1261
f 1249 1250 1236
f 1237 1262 1249
f 1263 1240 1254
f 1253 1264 1265
f 1255 1253 1266
f 1255 1267 1254
f 1256 595 1243
f 1256 1257 1268
f 1257 1269 1270
f 1271 1269 1258
f 1261 1258 1259
f 1261 1272 1273
f 1262 1274 1250
f 1275 1276 1277
f 1251 1278 1262
f 1254 1279 1263
f 1266 1265 1280
f 1266 1281 1255
f 1282 1281 1283
f 1268 610 1256
f 1268 1270 1284
f 1270 1285 1286
f 1287 1285 1271
f 1273 1271 1261
f 1272 1288 1289
f 1276 1278 1290
f 1273 1289 1291
f 1260 1274 1272
f 1290 1263 1279
f 1280 1292 1266
f 1283 1292 1293
f 611 1284 623
f 1286 1284 1270
f 1286 1294 1295
f 1296 1294 1287
f 1291 1287 1273
f 1297 1289 1298
f 1277 1290 1299
f 1300 1277 1301
f 1300 1302 1275
f 623 1303 635
f 1303 1295 1304
f 1295 1305 1306
f 1305 1307 1308
f 1297 1296 1291
f 1298 1309 1310
f 1297 1310 1311
f 635 1304 645
f 1304 1306 1312
f 1313 1305 1308
f 1308 1314 1315
f 1314 1297 1311
f 1311 1316 1317
f 1299 1318 1319
f 1293 1320 1321
f 1304 652 645
f 1312 1313 1322
f 1323 1308 1315
f 1315 1324 1325
f 1317 1314 1311
f 1326 1317 1316
f 1327 1316 1310
f 1328 1313 1323
f 1315 1329 1323
f 1325 1330 1331
f 1332 1324 1317
f 1326 1333 1332
f 1327 1334 1335
f 1323 1336 1328
f 1337 1325 1331
f 652 1322 696
f 1332 1338 1330
f 1339 1327 1335
f 673 1336 674
f 1329 1340 1336
f 1309 1275 1302
f 1341 1333 1339
f 677 1336 1340
f 1342 1337 1343
f 1344 1345 1346
f 682 1340 1342
f 1347 682 1342
f 723 1348 710
f 716 723 710
f 734 1349 743
f 875 841 1350
f 764 792 796
f 821 784 823
f 862 813 783
f 1351 848 841
f 865 846 1352
f 872 1353 871
f 858 912 895
f 1354 885 902
f 916 901 955
f 1355 934 921
f 963 985 949
f 1356 990 966
f 1005 990 1356
f 1043 1073 855
f 914 895 912
f 1357 1138 1123
f 1109 1133 1119
f 1283 1358 1282
f 1277 1319 1301
f 1146 1120 1135
f 1282 1318 1359
f 696 1328 673
f 1360 1361 1309
f 1163 1125 1140
f 1123 1163 1124
f 872 1362 1363
f 831 896 853
f 893 853 896
f 936 1355 923
f 890 889 853
f 920 906 888
f 919 921 934
f 923 921 908
f 892 888 890
f 973 949 985
f 961 1364 973
f 1081 947 1355
f 878 1365 1366
f 847 1354 864
f 1367 757 820
f 876 878 880
f 780 734 745
f 897 1351 875
f 1368 1369 1370
f 716 712 719
f 730 731 721
f 731 1371 742
f 704 1369 219
f 1372 1293 1321
f 1267 1359 1279
f 1299 1279 1359
f 1118 1119 1134
f 1106 1108 1118
f 1087 1085 1078
f 1078 1076 1072
f 1075 1076 1084
f 1067 1070 1075
f 1055 1058 1067
f 1048 1046 1055
f 1038 1036 1048
f 1032 1026 1038
f 1012 1021 1009
f 996 1021 994
f 996 983 982
f 980 983 992
f 957 972 980
f 944 940 932
f 770 820 801
f 783 799 781
f 815 802 803
f 799 815 803
f 862 769 771
f 785 1367 769
f 820 818 801
f 821 844 818
f 1352 823 825
f 825 865 1352
f 847 845 826
f 864 915 898
f 915 902 901
f 903 902 885
f 943 900 931
f 932 931 930
f 1135 1157 1146
f 1330 1345 1331
f 1276 1288 1274
f 1360 1289 1288
f 1331 1343 1337
f 1310 1302 1327
f 1342 1344 1347
f 1346 1338 1341
f 1 685 2
f 4 17 5
f 7 10 8
f 9 8 10
f 12 3 9
f 4 6 14
f 16 25 17
f 18 7 5
f 19 20 10
f 11 29 13
f 11 10 20
f 22 1 3
f 13 30 23
f 15 1373 16
f 24 37 25
f 17 25 26
f 27 19 7
f 28 32 20
f 21 44 29
f 30 13 29
f 21 20 32
f 34 23 30
f 16 1373 36
f 37 24 38
f 40 26 25
f 18 26 41
f 19 27 42
f 43 48 32
f 44 21 33
f 31 29 44
f 35 30 31
f 33 32 48
f 50 40 37
f 51 41 26
f 27 41 52
f 28 42 53
f 54 57 48
f 45 33 49
f 45 68 46
f 47 31 46
f 49 48 57
f 59 108 60
f 51 40 50
f 63 52 41
f 42 52 64
f 43 53 65
f 57 54 66
f 55 82 68
f 55 49 58
f 56 46 68
f 58 57 67
f 72 86 73
f 59 74 73
f 62 90 63
f 74 39 38
f 76 64 52
f 53 64 77
f 78 66 54
f 67 66 79
f 81 1374 82
f 82 1374 70
f 69 58 71
f 80 101 71
f 85 73 86
f 60 1375 88
f 90 114 76
f 86 686 91
f 92 77 64
f 65 77 93
f 94 79 66
f 80 79 95
f 97 100 98
f 83 69 84
f 84 71 101
f 101 80 96
f 104 119 105
f 107 1375 60
f 109 136 110
f 111 687 62
f 88 1375 112
f 88 699 109
f 114 90 115
f 92 76 114
f 118 142 105
f 120 93 77
f 121 94 78
f 122 95 79
f 123 96 95
f 125 166 126
f 127 126 128
f 100 84 102
f 103 151 102
f 103 96 123
f 106 105 131
f 108 157 133
f 112 1375 107
f 135 139 110
f 137 117 114
f 138 689 139
f 140 120 92
f 141 131 105
f 93 120 143
f 144 122 94
f 145 124 95
f 146 123 124
f 148 373 149
f 81 83 100
f 98 102 151
f 151 103 130
f 154 330 155
f 106 132 133
f 107 133 158
f 159 137 160
f 162 143 120
f 143 177 144
f 122 144 163
f 164 147 124
f 165 342 166
f 167 152 151
f 168 345 154
f 169 158 133
f 134 158 170
f 113 171 172
f 174 220 175
f 177 143 162
f 163 144 177
f 180 164 145
f 181 147 164
f 183 187 184
f 186 203 187
f 130 383 188
f 189 170 158
f 190 171 170
f 171 190 192
f 161 160 193
f 195 239 196
f 178 209 179
f 179 210 180
f 164 180 198
f 199 183 185
f 183 199 201
f 202 217 203
f 204 217 205
f 207 191 170
f 174 235 208
f 209 221 210
f 210 223 198
f 211 698 182
f 200 185 212
f 200 229 214
f 206 690 167
f 201 199 214
f 186 201 216
f 217 202 218
f 189 701 219
f 174 161 194
f 221 209 196
f 223 210 221
f 211 198 223
f 226 698 211
f 228 214 229
f 215 244 216
f 215 214 228
f 232 218 202
f 176 175 233
f 176 247 235
f 222 251 236
f 238 251 239
f 224 255 225
f 225 256 227
f 241 226 227
f 230 259 243
f 231 262 244
f 232 216 244
f 246 231 228
f 234 265 247
f 248 249 235
f 239 195 249
f 250 236 251
f 237 236 252
f 240 266 254
f 255 269 256
f 227 256 257
f 258 243 259
f 231 246 261
f 245 244 262
f 243 258 264
f 265 276 248
f 266 240 249
f 238 254 267
f 268 252 236
f 269 255 253
f 266 275 271
f 269 281 257
f 257 282 272
f 260 285 273
f 263 262 261
f 273 289 264
f 275 266 248
f 277 267 254
f 278 268 250
f 279 252 268
f 270 708 281
f 282 257 281
f 282 297 284
f 285 260 286
f 285 299 288
f 288 303 289
f 290 264 289
f 292 278 267
f 293 280 268
f 280 307 294
f 295 708 294
f 283 312 297
f 286 284 297
f 287 314 299
f 287 286 298
f 301 288 299
f 301 316 303
f 303 317 291
f 304 290 291
f 293 278 292
f 307 280 293
f 296 294 307
f 295 296 310
f 298 297 312
f 300 323 314
f 314 326 302
f 313 324 300
f 302 327 315
f 315 332 316
f 317 303 316
f 291 317 319
f 308 293 306
f 308 334 309
f 309 335 310
f 321 311 310
f 323 300 324
f 323 337 326
f 327 302 326
f 324 313 321
f 330 315 327
f 330 154 332
f 318 316 332
f 318 346 319
f 320 347 334
f 334 348 335
f 322 310 335
f 325 350 337
f 325 324 329
f 328 326 337
f 328 355 331
f 336 353 340
f 155 330 331
f 342 165 343
f 333 332 154
f 333 1376 346
f 347 359 348
f 336 335 348
f 338 362 350
f 339 337 350
f 352 340 353
f 339 363 355
f 341 331 355
f 349 365 353
f 341 368 357
f 148 156 155
f 358 1376 333
f 349 348 359
f 354 375 361
f 362 377 351
f 363 339 351
f 354 353 365
f 356 355 363
f 356 381 368
f 365 349 360
f 370 372 357
f 371 374 168
f 148 357 372
f 374 358 345
f 366 384 375
f 375 385 376
f 364 351 377
f 367 363 364
f 366 365 369
f 367 388 381
f 370 368 381
f 203 188 383
f 149 1377 371
f 342 373 372
f 380 394 384
f 384 395 385
f 386 376 385
f 378 399 379
f 379 400 388
f 382 381 388
f 382 128 126
f 150 168 156
f 390 1377 149
f 259 230 391
f 393 395 384
f 387 385 395
f 387 407 397
f 397 408 398
f 389 388 400
f 128 382 389
f 166 372 370
f 403 405 165
f 343 418 390
f 404 343 165
f 406 396 395
f 396 421 407
f 408 397 407
f 410 398 408
f 401 424 402
f 128 402 412
f 413 127 129
f 403 125 127
f 415 405 403
f 343 404 417
f 419 404 405
f 396 406 420
f 409 407 421
f 411 408 409
f 424 401 410
f 426 412 402
f 129 412 427
f 414 439 428
f 413 428 416
f 416 444 429
f 404 419 430
f 415 429 431
f 432 422 421
f 433 423 409
f 434 411 423
f 436 426 424
f 437 427 412
f 414 427 438
f 440 480 441
f 443 445 429
f 431 458 430
f 431 429 445
f 447 433 422
f 423 433 448
f 434 435 449
f 450 464 451
f 427 437 452
f 438 477 453
f 454 443 444
f 445 443 456
f 458 431 446
f 457 471 446
f 433 447 460
f 435 448 461
f 462 464 450
f 463 451 464
f 466 477 438
f 453 477 467
f 439 453 440
f 440 442 455
f 457 456 469
f 459 446 471
f 470 485 471
f 448 460 473
f 449 461 474
f 462 489 465
f 465 488 475
f 476 467 477
f 468 467 478
f 440 453 468
f 481 469 456
f 470 469 483
f 485 513 472
f 461 473 486
f 487 489 462
f 488 465 489
f 491 475 488
f 466 475 491
f 493 478 467
f 479 496 480
f 494 479 478
f 482 480 496
f 497 483 469
f 498 509 484
f 485 470 484
f 416 428 455
f 474 486 500
f 501 490 489
f 492 488 490
f 492 517 503
f 503 493 476
f 495 478 493
f 505 496 479
f 506 494 495
f 505 497 481
f 508 498 483
f 509 498 510
f 499 484 509
f 499 527 513
f 487 500 514
f 490 501 515
f 492 502 516
f 518 503 517
f 493 503 518
f 504 532 507
f 520 505 494
f 521 506 507
f 520 508 497
f 498 508 523
f 512 509 511
f 511 510 525
f 512 537 527
f 528 515 501
f 502 515 529
f 519 517 516
f 519 542 531
f 518 531 532
f 522 507 532
f 534 520 506
f 522 544 535
f 534 523 508
f 510 523 536
f 524 549 537
f 524 511 526
f 539 550 526
f 515 528 540
f 530 516 529
f 530 554 542
f 542 555 543
f 531 543 533
f 533 559 544
f 521 535 545
f 546 535 544
f 545 536 523
f 525 536 548
f 538 565 549
f 538 526 550
f 552 566 550
f 529 540 553
f 541 569 554
f 555 542 554
f 557 543 555
f 559 533 543
f 547 544 559
f 535 546 561
f 562 546 547
f 561 548 536
f 564 552 539
f 551 575 565
f 551 550 566
f 568 576 566
f 553 579 569
f 569 580 556
f 556 581 558
f 570 557 558
f 557 570 560
f 560 585 563
f 572 561 546
f 563 586 573
f 572 564 548
f 552 564 574
f 567 590 575
f 567 566 576
f 578 592 576
f 579 595 580
f 580 596 581
f 571 558 581
f 583 570 571
f 585 560 570
f 586 563 585
f 573 588 572
f 564 572 588
f 568 574 589
f 590 567 577
f 577 576 592
f 594 607 592
f 595 610 596
f 582 581 596
f 582 612 584
f 598 583 584
f 587 585 583
f 587 615 600
f 601 605 588
f 602 697 603
f 574 588 605
f 578 589 606
f 593 619 591
f 593 592 607
f 609 620 607
f 597 596 610
f 597 622 612
f 599 584 612
f 599 625 614
f 598 614 615
f 600 618 616
f 605 601 602
f 615 628 618
f 586 600 601
f 617 606 589
f 608 651 619
f 608 607 620
f 622 597 611
f 613 612 622
f 625 599 613
f 625 637 627
f 614 627 628
f 618 628 629
f 617 602 604
f 632 1378 604
f 632 603 633
f 624 622 623
f 626 613 624
f 637 625 626
f 639 627 637
f 629 628 627
f 630 643 641
f 643 630 629
f 636 624 635
f 636 653 638
f 637 638 646
f 640 656 647
f 629 639 647
f 644 658 648
f 649 707 631
f 621 706 651
f 652 653 636
f 646 638 653
f 655 656 640
f 656 665 657
f 647 657 658
f 659 648 658
f 661 643 648
f 646 654 662
f 663 665 656
f 664 657 665
f 660 658 657
f 659 660 667
f 634 633 661
f 655 662 669
f 665 663 670
f 652 696 654
f 660 664 671
f 661 667 672
f 669 662 673
f 663 669 675
f 603 697 641
f 667 671 676
f 677 675 669
f 678 681 670
f 679 709 680
f 675 677 682
f 683 678 682
f 6 2 685
f 8 2 6
f 24 36 686
f 131 688 169
f 83 82 55
f 687 115 90
f 104 106 157
f 141 700 688
f 138 193 160
f 152 167 690
f 153 188 204
f 692 197 178
f 235 249 195
f 693 213 226
f 260 259 284
f 261 246 694
f 246 264 694
f 274 261 694
f 694 290 304
f 344 149 373
f 188 203 217
f 442 441 454
f 426 436 451
f 695 705 620
f 604 1378 650
f 437 451 463
f 609 707 649
f 696 673 662
f 642 641 697
f 482 456 443
f 482 454 441
f 99 98 152
f 123 146 383
f 187 383 146
f 230 229 693
f 184 146 147
f 182 698 212
f 213 212 698
f 229 200 213
f 181 212 185
f 259 392 272
f 392 241 242
f 391 693 241
f 113 173 699
f 692 162 140
f 50 39 61
f 134 171 113
f 72 38 24
f 688 701 189
f 700 1379 701
f 3 2 8
f 22 12 23
f 703 702 23
f 701 1379 704
f 621 620 705
f 594 606 707
f 631 707 606
f 434 450 436
f 425 410 411
f 401 400 398
f 399 398 400
f 386 397 399
f 378 377 376
f 361 376 377
f 352 361 362
f 338 329 340
f 329 321 322
f 313 312 311
f 283 295 311
f 283 281 708
f 279 294 708
f 270 253 252
f 237 253 255
f 111 61 60
f 85 104 75
f 91 118 119
f 85 87 119
f 157 108 59
f 74 59 61
f 110 687 111
f 139 115 687
f 689 116 115
f 160 137 116
f 140 117 137
f 208 692 159
f 208 195 197
f 197 196 209
f 251 222 196
f 224 221 222
f 452 463 475
f 680 671 664
f 602 601 616
f 642 616 618
f 666 670 681
f 643 661 633
f 679 681 678
f 709 676 671
f 710 1348 711
f 713 723 714
f 716 718 717
f 718 716 719
f 721 728 719
f 713 732 722
f 715 733 724
f 714 717 725
f 726 717 718
f 720 719 728
f 720 739 727
f 712 711 730
f 731 740 728
f 724 744 732
f 733 746 734
f 715 725 735
f 736 725 717
f 737 726 727
f 729 752 739
f 729 728 740
f 739 753 738
f 742 754 740
f 724 734 743
f 745 734 746
f 733 735 748
f 749 735 725
f 750 736 726
f 738 756 751
f 752 763 753
f 741 765 752
f 741 740 754
f 753 762 756
f 746 748 757
f 758 748 735
f 736 750 759
f 737 751 760
f 756 767 761
f 762 753 763
f 765 778 763
f 765 741 755
f 767 756 762
f 769 1367 770
f 757 748 758
f 749 759 773
f 750 760 774
f 751 761 775
f 776 761 767
f 764 763 778
f 764 796 768
f 766 793 778
f 768 795 777
f 780 785 781
f 781 785 769
f 772 758 773
f 745 747 785
f 759 774 786
f 760 775 787
f 761 776 788
f 789 776 777
f 779 794 791
f 779 778 793
f 795 768 796
f 790 777 795
f 799 803 782
f 800 817 770
f 786 824 784
f 802 1349 782
f 804 786 774
f 775 788 805
f 806 788 776
f 790 811 807
f 808 1362 809
f 797 796 792
f 797 837 798
f 811 790 798
f 813 840 814
f 816 771 770
f 818 1380 819
f 820 757 772
f 800 878 822
f 819 1365 800
f 823 784 824
f 824 786 804
f 814 849 827
f 787 805 828
f 829 805 788
f 789 807 830
f 831 854 807
f 832 869 833
f 835 832 834
f 837 797 810
f 812 798 837
f 831 811 812
f 840 1350 841
f 842 862 771
f 822 876 816
f 843 1380 818
f 824 826 845
f 844 1352 846
f 847 826 804
f 814 841 848
f 850 828 805
f 806 830 851
f 807 854 852
f 853 889 854
f 855 1073 856
f 810 792 791
f 809 872 838
f 839 812 838
f 859 1027 860
f 842 1350 840
f 816 876 863
f 864 898 865
f 866 847 828
f 851 884 850
f 830 852 867
f 854 889 868
f 869 1042 870
f 871 858 838
f 873 861 860
f 875 1350 842
f 876 880 877
f 878 1366 879
f 881 929 882
f 866 850 884
f 884 851 867
f 852 868 887
f 888 906 868
f 890 893 891
f 893 910 894
f 839 858 895
f 863 877 897
f 190 191 877
f 880 879 192
f 898 928 899
f 900 942 901
f 885 884 886
f 886 867 887
f 905 887 868
f 892 891 907
f 891 894 909
f 910 914 911
f 912 924 913
f 207 897 877
f 882 898 915
f 904 930 903
f 904 887 905
f 918 905 906
f 920 892 908
f 908 907 922
f 871 1353 924
f 922 907 909
f 894 911 926
f 914 913 927
f 219 1369 897
f 928 898 882
f 900 903 930
f 930 904 917
f 917 905 918
f 934 945 918
f 923 922 935
f 925 909 926
f 925 950 935
f 938 926 911
f 233 881 883
f 916 953 883
f 939 943 931
f 941 959 942
f 932 917 933
f 933 918 945
f 947 961 945
f 936 935 948
f 937 965 950
f 937 926 938
f 935 950 952
f 234 883 953
f 916 955 954
f 942 959 955
f 943 939 956
f 940 970 957
f 958 967 959
f 946 971 944
f 960 946 945
f 949 948 962
f 964 952 950
f 951 976 965
f 948 952 966
f 265 953 954
f 955 959 967
f 941 956 968
f 969 956 939
f 970 944 971
f 271 275 967
f 960 982 971
f 973 984 960
f 963 962 974
f 964 965 976
f 974 962 966
f 954 967 275
f 277 271 958
f 956 969 979
f 969 957 980
f 972 971 982
f 984 996 982
f 985 995 984
f 986 963 975
f 975 974 988
f 978 1001 988
f 990 1003 978
f 968 979 292
f 991 979 969
f 981 980 992
f 994 1007 992
f 995 1009 996
f 986 998 995
f 987 975 989
f 987 1010 998
f 989 988 999
f 999 988 1001
f 1001 978 1003
f 1005 1017 1003
f 991 306 292
f 991 981 993
f 1007 1018 993
f 994 1021 1008
f 998 1012 1009
f 997 1023 1010
f 997 989 1000
f 1010 1022 1012
f 1000 999 1013
f 1002 1029 1013
f 1002 1001 1004
f 1016 1004 1003
f 1006 320 306
f 1006 993 1018
f 1008 1031 1018
f 1020 1032 1008
f 1022 1010 1023
f 1011 1034 1023
f 1011 1000 1014
f 1020 1012 1022
f 1014 1013 1027
f 1029 860 1027
f 1015 1044 1029
f 1015 1004 1016
f 1019 347 320
f 1031 1045 1019
f 1031 1008 1032
f 1024 1023 1034
f 1026 1022 1024
f 1025 1047 1034
f 1025 1014 1028
f 1033 1032 1038
f 1028 1027 859
f 1041 870 1042
f 860 1029 1044
f 1030 1381 1044
f 347 1019 1045
f 1033 1051 1045
f 1036 1024 1035
f 1047 1057 1035
f 1039 1038 1048
f 1037 1059 1047
f 1037 1028 1040
f 1039 1060 1051
f 1040 859 1052
f 856 1052 859
f 1044 1381 1054
f 1051 360 359
f 1049 1048 1055
f 1046 1035 1057
f 1059 1069 1057
f 1049 1066 1060
f 1050 1071 1059
f 1050 1040 1053
f 1060 369 360
f 1062 1053 1052
f 873 1065 1064
f 856 1073 1063
f 874 1054 1065
f 1056 1074 1066
f 1056 1055 1067
f 1058 1057 1069
f 1069 1059 1071
f 1066 380 369
f 1061 1077 1071
f 1062 1079 1061
f 896 895 910
f 1064 1382 855
f 1042 869 1063
f 1074 394 380
f 1068 1082 1074
f 1075 1083 1068
f 1070 1069 1072
f 1072 1071 1077
f 1079 1086 1077
f 832 835 1079
f 857 856 861
f 855 1382 1080
f 949 1364 1081
f 393 394 1074
f 1083 1091 1082
f 1084 1090 1083
f 1085 1092 1084
f 1078 1077 1086
f 835 1094 1086
f 1062 1063 869
f 870 1099 1088
f 1080 1101 1041
f 1089 1099 870
f 1082 1091 406
f 1090 1103 1091
f 1092 1104 1090
f 1093 1106 1092
f 1087 1086 1094
f 1096 1094 835
f 1097 1112 836
f 834 833 1088
f 1098 1113 1088
f 1100 1089 1041
f 1099 1089 1102
f 1091 1103 420
f 1103 1090 1104
f 1104 1092 1106
f 1093 1087 1095
f 1109 1095 1094
f 836 1112 1110
f 1111 1150 1112
f 1097 1088 1113
f 1114 1126 1113
f 1089 1100 1115
f 1098 1102 1116
f 432 420 1103
f 1104 1107 1117
f 1118 1132 1107
f 1095 1109 1119
f 1096 1110 1120
f 1112 1150 1121
f 1122 1357 1123
f 1114 1128 1125
f 1116 1102 1115
f 1128 1114 1116
f 1105 1117 447
f 1107 1132 1130
f 1118 1134 1131
f 1133 1147 1134
f 1135 1120 1110
f 1121 1150 1136
f 1126 1125 1138
f 1140 1125 1128
f 1129 1116 1127
f 1141 1128 1129
f 1117 1130 460
f 1144 1130 1132
f 1134 1147 1145
f 1146 1156 1147
f 1148 1135 1121
f 1136 1160 1149
f 1122 1136 1150
f 1139 1357 1122
f 1151 1140 1141
f 1143 1129 1142
f 1152 1141 1143
f 473 460 1130
f 1131 1145 1155
f 1156 1167 1145
f 1157 1168 1156
f 1137 1149 1158
f 1159 1149 1160
f 1122 1124 1160
f 1140 1151 1162
f 1152 1175 1164
f 1154 1143 1153
f 1144 1155 486
f 1166 1155 1145
f 1168 1178 1167
f 1168 1157 1169
f 1148 1158 1169
f 1149 1159 1171
f 1161 1160 1124
f 1173 1181 1159
f 1163 1162 1172
f 1174 1162 1151
f 1175 1187 1176
f 1154 1189 1175
f 1113 1126 1139
f 500 486 1155
f 1167 1178 1177
f 1170 1191 1178
f 1170 1169 1179
f 1179 1169 1158
f 1171 1159 1181
f 1183 1173 1161
f 1184 1194 1181
f 1183 1172 1162
f 1164 1176 1185
f 1186 1176 1187
f 1189 1200 1187
f 1165 1203 1189
f 1166 1177 514
f 1190 1177 1178
f 1170 1180 1192
f 1193 1205 1180
f 1193 1179 1171
f 1182 1181 1194
f 1196 1184 1173
f 1194 1184 1197
f 1196 1183 1174
f 1199 1185 1176
f 1188 1187 1200
f 1188 1214 1202
f 1203 1212 1200
f 1177 1190 528
f 1191 1192 1204
f 1192 1180 1205
f 1207 1216 1205
f 1195 1207 1193
f 1198 1220 1195
f 1208 1197 1184
f 1198 1197 1209
f 1208 1196 1185
f 1186 1202 1211
f 1201 1200 1212
f 1201 1224 1214
f 1214 1225 1215
f 540 528 1190
f 1206 1229 1204
f 1206 1205 1216
f 1216 1207 1218
f 1220 1218 1207
f 1210 1233 1220
f 1221 1209 1197
f 1222 1234 1210
f 1199 1211 1221
f 1202 1215 1223
f 1213 1238 1224
f 1225 1214 1224
f 1227 1215 1225
f 553 540 1204
f 1217 1242 1229
f 1217 1216 1219
f 1219 1218 1231
f 1233 1231 1218
f 1234 1247 1233
f 1235 1222 1209
f 1236 1248 1234
f 1211 1223 1235
f 1237 1223 1215
f 1226 1224 1238
f 1226 1252 1228
f 1240 1227 1228
f 1242 579 553
f 1242 1217 1230
f 1230 1219 1232
f 1232 1231 1245
f 1247 1245 1231
f 1248 1259 1247
f 1222 1235 1249
f 1250 1260 1248
f 1223 1237 1249
f 1251 1237 1227
f 1239 1264 1252
f 1241 1228 1252
f 1254 1240 1241
f 1243 595 579
f 1243 1230 1244
f 1244 1232 1246
f 1258 1269 1246
f 1245 1247 1259
f 1259 1248 1260
f 1249 1262 1250
f 1237 1251 1262
f 1263 1251 1240
f 1253 1252 1264
f 1255 1241 1253
f 1255 1281 1267
f 1256 610 595
f 1256 1244 1257
f 1257 1246 1269
f 1271 1285 1269
f 1261 1271 1258
f 1261 1260 1272
f 1262 1278 1274
f 1275 1361 1276
f 1251 1263 1278
f 1254 1267 1279
f 1266 1253 1265
f 1266 1292 1281
f 1282 1267 1281
f 1268 611 610
f 1268 1257 1270
f 1270 1269 1285
f 1287 1294 1285
f 1273 1287 1271
f 1272 1274 1288
f 1276 1274 1278
f 1273 1272 1289
f 1260 1250 1274
f 1290 1278 1263
f 1280 1320 1292
f 1283 1281 1292
f 611 1268 1284
f 1286 1303 1284
f 1286 1285 1294
f 1296 1305 1294
f 1291 1296 1287
f 1297 1291 1289
f 1277 1276 1290
f 1300 1275 1277
f 1300 1334 1302
f 623 1284 1303
f 1303 1286 1295
f 1295 1294 1305
f 1305 1296 1307
f 1297 1307 1296
f 1298 1360 1309
f 1297 1298 1310
f 635 1303 1304
f 1304 1295 1306
f 1313 1306 1305
f 1308 1307 1314
f 1314 1307 1297
f 1311 1310 1316
f 1299 1359 1318
f 1293 1292 1320
f 1304 1312 652
f 1312 1306 1313
f 1323 1313 1308
f 1315 1314 1324
f 1317 1324 1314
f 1326 1332 1317
f 1327 1326 1316
f 1328 1322 1313
f 1315 1325 1329
f 1325 1324 1330
f 1332 1330 1324
f 1326 1327 1333
f 1327 1302 1334
f 1323 1329 1336
f 1337 1329 1325
f 652 1312 1322
f 1332 1333 1338
f 1339 1333 1327
f 673 1328 1336
f 1329 1337 1340
f 1309 1361 1275
f 1341 1338 1333
f 677 674 1336
f 1342 1340 1337
f 1344 1343 1345
f 682 677 1340
f 1347 684 682
f 723 722 1348
f 716 714 723
f 734 782 1349
f 875 1351 841
f 764 779 792
f 821 772 784
f 862 840 813
f 1351 1368 848
f 865 899 846
f 872 1363 1353
f 858 871 912
f 1354 866 885
f 916 915 901
f 1355 947 934
f 963 986 985
f 966 952 1356
f 952 964 1356
f 1356 964 977
f 977 1005 1356
f 1043 1042 1073
f 914 910 895
f 1357 1139 1138
f 1109 1120 1133
f 1283 1372 1358
f 1277 1299 1319
f 1146 1133 1120
f 1282 1358 1318
f 696 1322 1328
f 1360 1288 1361
f 1163 1138 1125
f 1123 1138 1163
f 872 809 1362
f 831 839 896
f 893 890 853
f 936 1081 1355
f 890 888 889
f 920 919 906
f 919 920 921
f 923 1355 921
f 892 920 888
f 973 1364 949
f 961 947 1364
f 1081 1364 947
f 878 800 1365
f 847 866 1354
f 1367 747 757
f 876 822 878
f 780 782 734
f 897 1369 1351
f 1368 1351 1369
f 716 710 712
f 730 1383 731
f 731 1383 1371
f 704 1370 1369
f 1372 1283 1293
f 1267 1282 1359
f 1299 1290 1279
f 1118 1108 1119
f 1106 1093 1108
f 1087 1093 1085
f 1078 1085 1076
f 1075 1070 1076
f 1067 1058 1070
f 1055 1046 1058
f 1048 1036 1046
f 1038 1026 1036
f 1032 1020 1026
f 1012 1020 1021
f 996 1009 1021
f 996 994 983
f 980 972 983
f 957 970 972
f 944 970 940
f 770 1367 820
f 783 813 799
f 815 827 802
f 799 813 815
f 862 783 769
f 785 747 1367
f 820 821 818
f 821 823 844
f 1352 844 823
f 825 845 865
f 847 864 845
f 864 1354 915
f 915 1354 902
f 903 900 902
f 943 942 900
f 932 940 931
f 1135 1148 1157
f 1330 1338 1345
f 1276 1361 1288
f 1360 1298 1289
f 1331 1345 1343
f 1310 1309 1302
f 1342 1343 1344
f 1346 1345 1338
