v -0.0814143 0.134115 0.0133
v -0.0809183 0.133691 0.0133
v -0.0803295 0.13341 0.0133
v -0.0796879 0.13329 0.0133
v -0.0790372 0.133341 0.0133
v -0.0784218 0.133558 0.0133
v -0.0778837 0.133927 0.0133
v -0.0774595 0.134423 0.0133
v -0.077178 0.135012 0.0133
v -0.0770586 0.135654 0.0133
v -0.0771093 0.136305 0.0133
v -0.0773267 0.13692 0.0133
v -0.0776959 0.137458 0.0133
v -0.0781919 0.137882 0.0133
v -0.0787807 0.138164 0.0133
v -0.0794223 0.138283 0.0133
v -0.080073 0.138232 0.0133
v -0.0806883 0.138015 0.0133
v -0.0812265 0.137646 0.0133
v -0.0816507 0.13715 0.0133
v -0.0819321 0.136561 0.0133
v -0.0820516 0.135919 0.0133
v -0.0820009 0.135269 0.0133
v -0.0817835 0.134653 0.0133
v -0.0795551 0.135787 0.0133
v -0.0774728 0.137659 0.0136
v -0.0780283 0.138134 0.0136
v -0.0786878 0.138449 0.0136
v -0.0794064 0.138583 0.0136
v -0.0801351 0.138526 0.0136
v -0.0808243 0.138282 0.0136
v -0.081427 0.137869 0.0136
v -0.0819022 0.137313 0.0136
v -0.0822174 0.136654 0.0136
v -0.0823511 0.135935 0.0136
v -0.0822944 0.135207 0.0136
v -0.0820509 0.134517 0.0136
v -0.0816374 0.133915 0.0136
v -0.0810819 0.13344 0.0136
v -0.0804224 0.133124 0.0136
v -0.0797038 0.132991 0.0136
v -0.0789751 0.133047 0.0136
v -0.0782859 0.133291 0.0136
v -0.0776831 0.133704 0.0136
v -0.077208 0.13426 0.0136
v -0.0768928 0.134919 0.0136
v -0.076759 0.135638 0.0136
v -0.0768158 0.136367 0.0136
v -0.0770593 0.137056 0.0136
v -0.0791018 0.139761 0.0136
v -0.0800661 0.139754 0.0136
v -0.0810007 0.139516 0.0136
v -0.0825684 0.138417 0.0136
v -0.0425504 0.0886412 0.0136
v -0.0818512 0.139062 0.0136
v -0.0831103 0.13762 0.0136
v -0.0834457 0.136716 0.0136
v -0.0834318 0.134801 0.0136
v -0.0830833 0.133902 0.0136
v -0.0825297 0.133112 0.0136
v -0.0366011 0.0939896 0.0136
v -0.0765804 0.138461 0.0136
v -0.083555 0.135758 0.0136
v -0.0773068 0.139095 0.0136
v -0.0781639 0.139537 0.0136
v -0.0828607 0.132815 0.0135499
v -0.082913 0.132768 0.0135253
v -0.0831751 0.132532 0.0134019
v -0.0762495 0.138758 0.0135499
v -0.083269 0.132448 0.0133226
v -0.0834571 0.132279 0.0131637
v -0.0759351 0.139041 0.0134019
v -0.0835748 0.132173 0.0130053
v -0.0836926 0.132067 0.012847
v -0.0756531 0.139295 0.0131637
v -0.0838108 0.131961 0.0125941
v -0.0838698 0.131908 0.0124678
v -0.0754176 0.139506 0.012847
v -0.0839615 0.131825 0.0121153
v -0.0839798 0.131809 0.012045
v -0.0752404 0.139666 0.0124678
v -0.0840171 0.131775 0.0116
v -0.0848474 0.13296 0.0116
v -0.0853701 0.134308 0.0116
v -0.0855549 0.135743 0.0116
v -0.085391 0.13718 0.0116
v -0.084888 0.138536 0.0116
v -0.084075 0.139733 0.0116
v -0.0829993 0.1407 0.0116
v -0.0817235 0.141381 0.0116
v -0.0803216 0.141737 0.0116
v -0.0788752 0.141748 0.0116
v -0.0774683 0.141412 0.0116
v -0.0761827 0.140749 0.0116
v -0.0751304 0.139764 0.012045
v -0.0750931 0.139798 0.0116
v -0.0770567 0.139463 0.0135499
v -0.0768191 0.139813 0.0134019
v -0.076606 0.140126 0.0131637
v -0.076294 0.140585 0.0124678
v -0.0762109 0.140708 0.012045
v -0.0774858 0.141365 0.012045
v -0.0788809 0.141698 0.012045
v -0.0803152 0.141688 0.012045
v -0.0817054 0.141334 0.012045
v -0.0829705 0.140659 0.012045
v -0.0840372 0.1397 0.012045
v -0.0848434 0.138513 0.012045
v -0.0853423 0.137168 0.012045
v -0.0855048 0.135743 0.012045
v -0.0853215 0.134321 0.012045
v -0.0848032 0.132983 0.012045
v -0.0846727 0.133053 0.0124678
v -0.0851782 0.134357 0.0124678
v -0.0853569 0.135744 0.0124678
v -0.0851984 0.137134 0.0124678
v -0.0847119 0.138445 0.0124678
v -0.0839258 0.139602 0.0124678
v -0.0828856 0.140537 0.0124678
v -0.0816519 0.141196 0.0124678
v -0.0802963 0.141541 0.0124678
v -0.0788977 0.141551 0.0124678
v -0.0775372 0.141226 0.0124678
v -0.076428 0.140388 0.012847
v -0.0776201 0.141003 0.012847
v -0.0789247 0.141314 0.012847
v -0.0802659 0.141305 0.012847
v -0.0815658 0.140974 0.012847
v -0.0827488 0.140342 0.012847
v -0.0837463 0.139446 0.012847
v -0.0845001 0.138336 0.012847
v -0.0849666 0.137079 0.012847
v -0.0851186 0.135746 0.012847
v -0.0849472 0.134416 0.012847
v -0.0844625 0.133165 0.012847
v -0.0841832 0.133315 0.0131637
v -0.0846403 0.134494 0.0131637
v -0.0848019 0.135748 0.0131637
v -0.0846586 0.137005 0.0131637
v -0.0842187 0.138191 0.0131637
v -0.0835077 0.139237 0.0131637
v -0.082567 0.140083 0.0131637
v -0.0814513 0.140679 0.0131637
v -0.0802254 0.140991 0.0131637
v -0.0789605 0.141 0.0131637
v -0.0777302 0.140706 0.0131637
v -0.0778621 0.140351 0.0134019
v -0.0790035 0.140623 0.0134019
v -0.080177 0.140615 0.0134019
v -0.0813143 0.140325 0.0134019
v -0.0823494 0.139773 0.0134019
v -0.0832221 0.138988 0.0134019
v -0.0838816 0.138017 0.0134019
v -0.0842898 0.136917 0.0134019
v -0.0844227 0.135751 0.0134019
v -0.0842728 0.134587 0.0134019
v -0.0838487 0.133493 0.0134019
v -0.0780091 0.139954 0.0135499
v -0.0790514 0.140203 0.0135499
v -0.080123 0.140195 0.0135499
v -0.0811615 0.139931 0.0135499
v -0.0821067 0.139426 0.0135499
v -0.0829036 0.13871 0.0135499
v -0.0835059 0.137824 0.0135499
v -0.0838786 0.136819 0.0135499
v -0.084 0.135754 0.0135499
v -0.0838631 0.134692 0.0135499
v -0.0834758 0.133692 0.0135499
v -0.0440377 0.0873041 0.0116
v -0.0439871 0.0873496 0.0121176
v -0.0438385 0.0874832 0.0126
v -0.0436021 0.0876957 0.0130142
v -0.0432941 0.0879726 0.0133321
v -0.0429354 0.0882951 0.0135319
v -0.0410749 0.0862257 0.0150862
v -0.0407288 0.0866149 0.015122
v -0.0410702 0.0869947 0.0144896
v -0.0415071 0.0874807 0.0140063
v -0.0420114 0.0880416 0.0137032
v -0.0413199 0.0857767 0.0149814
v -0.041447 0.0852985 0.0148148
v -0.0414476 0.0848237 0.0145976
v -0.0413216 0.0843847 0.0143446
v -0.0410776 0.0840114 0.0140732
v -0.0416324 0.0846285 0.0130456
v -0.0423424 0.0854183 0.0122602
v -0.0431618 0.0863298 0.0117678
v -0.0431983 0.0864723 0.0122687
v -0.043131 0.0866963 0.0127355
v -0.0429644 0.0869864 0.0131363
v -0.0427099 0.0873228 0.0134439
v -0.0423849 0.0876828 0.0136373
v -0.0424605 0.0856516 0.0127121
v -0.0424692 0.0859601 0.0131332
v -0.0423679 0.0863228 0.0134949
v -0.0421635 0.086715 0.0137723
v -0.0418699 0.0871099 0.0139468
v -0.0418212 0.0849404 0.0134193
v -0.0418957 0.0853222 0.0137676
v -0.041851 0.0857478 0.0140666
v -0.0416899 0.0861883 0.0142961
v -0.0414236 0.0866136 0.0144404
v -0.0750931 0.139798 0.0091
v -0.0761827 0.140749 0.0091
v -0.0774683 0.141412 0.0091
v -0.0788752 0.141748 0.0091
v -0.0803216 0.141737 0.0091
v -0.0817235 0.141381 0.0091
v -0.0829993 0.1407 0.0091
v -0.084075 0.139733 0.0091
v -0.084888 0.138536 0.0091
v -0.085391 0.13718 0.0091
v -0.0855549 0.135743 0.0091
v -0.0853701 0.134308 0.0091
v -0.0848474 0.13296 0.0091
v -0.0840171 0.131775 0.0091
v -0.0351137 0.0953267 0.0116
v -0.0351644 0.0952811 0.0121176
v -0.0352706 0.0951857 0.0124624
v -0.035313 0.0951476 0.0126
v -0.0354481 0.0950261 0.0128368
v -0.0356813 0.0948164 0.0131504
v -0.0355494 0.0949351 0.0130142
v -0.0359597 0.0945662 0.013389
v -0.0358574 0.0946581 0.0133321
v -0.0362709 0.0942864 0.0135416
v -0.0362161 0.0943357 0.0135319
v -0.0351572 0.0952876 0.0120439
v -0.0360621 0.09339 0.0137032
v -0.0355578 0.0928291 0.0140063
v -0.0351209 0.0923431 0.0144896
v -0.0347795 0.0919633 0.015122
v -0.0407575 0.0836553 0.014666
v -0.0403479 0.0831997 0.0151191
v -0.0398752 0.0826738 0.0154032
v -0.0393264 0.0821508 0.0159439
v -0.0393698 0.0821117 0.0155
v -0.039213 0.0822528 0.0163624
v -0.0393192 0.0821573 0.0160176
v -0.0390355 0.0824123 0.0167368
v -0.0391706 0.0822909 0.0165
v -0.0388023 0.082622 0.0170504
v -0.0389342 0.0825033 0.0169142
v -0.0385239 0.0828722 0.017289
v -0.0386262 0.0827803 0.0172321
v -0.0401953 0.0860215 0.01611
v -0.0395126 0.0852621 0.0168652
v -0.0387247 0.0843857 0.0173387
v -0.0382127 0.083152 0.0174416
v -0.0382675 0.0831028 0.0174319
v -0.0378825 0.0834488 0.0175
v -0.0390982 0.0840268 0.0172727
v -0.0394233 0.0836669 0.0170794
v -0.0396778 0.0833304 0.0167718
v -0.0398444 0.0830403 0.016371
v -0.0399117 0.0828164 0.0159042
v -0.0398753 0.0848913 0.0168057
v -0.0401689 0.0844963 0.0166313
v -0.0403733 0.0841042 0.0163538
v -0.0404747 0.0837415 0.0159922
v -0.040466 0.083433 0.015571
v -0.0405487 0.0856403 0.0160608
v -0.040815 0.0852151 0.0159166
v -0.0409761 0.0847746 0.0156871
v -0.0410208 0.084349 0.015388
v -0.0409463 0.0839672 0.0150398
v -0.0343557 0.0922662 0.0150862
v -0.0338833 0.0924622 0.0149814
v -0.0333943 0.0925379 0.0148148
v -0.0329221 0.0924881 0.0145976
v -0.0342378 0.0943524 0.0117678
v -0.0334184 0.0934409 0.0122602
v -0.0327084 0.0926511 0.0130456
v -0.032499 0.0923162 0.0143446
v -0.0321536 0.092034 0.0140732
v -0.0343757 0.0944038 0.0122687
v -0.0346055 0.0943606 0.0127355
v -0.0349117 0.0942257 0.0131363
v -0.0352733 0.0940084 0.0134439
v -0.0329985 0.0928719 0.0134193
v -0.0333703 0.0929865 0.0137676
v -0.0337982 0.0929872 0.0140666
v -0.0342533 0.0928738 0.0142961
v -0.0347044 0.0926541 0.0144404
v -0.0336379 0.0935831 0.0127121
v -0.0339437 0.0936244 0.0131332
v -0.0343151 0.0935621 0.0134949
v -0.0347268 0.0934005 0.0137723
v -0.0351506 0.0931505 0.0139468
v -0.0356656 0.0937233 0.0136373
v -0.034246 0.0913699 0.01611
v -0.0335633 0.0906105 0.0168652
v -0.0327754 0.0897341 0.0173387
v -0.0319332 0.0887972 0.0175
v -0.017162 0.0574087 0.0155
v -0.0171247 0.0574422 0.015945
v -0.0170147 0.0575411 0.0163678
v -0.0168375 0.0577004 0.016747
v -0.016602 0.0579121 0.0170637
v -0.01632 0.0581657 0.0173019
v -0.0160056 0.0584483 0.0174499
v -0.0156747 0.0587458 0.0175
v -0.0304965 0.0900888 0.0160176
v -0.0304458 0.0901343 0.0155
v -0.0309512 0.0906964 0.0154032
v -0.0314239 0.0912223 0.0151191
v -0.0318335 0.0916779 0.014666
v -0.0306451 0.0899552 0.0165
v -0.0308815 0.0897427 0.0169142
v -0.0311895 0.0894658 0.0172321
v -0.0315482 0.0891433 0.0174319
v -0.0338295 0.0916809 0.0160608
v -0.0333784 0.0919006 0.0159166
v -0.0329233 0.092014 0.0156871
v -0.0324954 0.0920133 0.015388
v -0.0321236 0.0918987 0.0150398
v -0.0331561 0.0909318 0.0168057
v -0.0327323 0.0911819 0.0166313
v -0.0323206 0.0913435 0.0163538
v -0.0319492 0.0914058 0.0159922
v -0.0316433 0.0913644 0.015571
v -0.032379 0.0900674 0.0172727
v -0.0319866 0.0903524 0.0170794
v -0.031625 0.0905698 0.0167718
v -0.0313189 0.0907047 0.016371
v -0.031089 0.0907479 0.0159042
v -0.00829358 0.0653813 0.0160153
v -0.00827529 0.0653978 0.015945
v -0.008238 0.0654313 0.0155
v -0.0084443 0.0652458 0.0164941
v -0.00838529 0.0652989 0.0163678
v -0.00856249 0.0651396 0.016747
v -0.00868024 0.0650337 0.0169053
v -0.008798 0.0649279 0.0170637
v -0.00898609 0.0647588 0.0172226
v -0.00908 0.0646744 0.0173019
v -0.0093421 0.0644387 0.0174253
v -0.00939437 0.0643917 0.0174499
v -0.00972533 0.0640942 0.0175
v -0.00917179 0.0633046 0.0175
v -0.0088233 0.0624055 0.0175
v -0.00870011 0.0614491 0.0175
v -0.00880937 0.060491 0.0175
v -0.00914475 0.0595869 0.0175
v -0.00968674 0.0587894 0.0175
v -0.0104039 0.0581447 0.0175
v -0.0112544 0.0576904 0.0175
v -0.012189 0.0574528 0.0175
v -0.0131532 0.0574458 0.0175
v -0.0140912 0.0576697 0.0175
v -0.0149482 0.0581116 0.0175
v -0.00740769 0.0642469 0.0155
v -0.00688495 0.0628982 0.0155
v -0.00670016 0.0614637 0.0155
v -0.00686406 0.0600265 0.0155
v -0.00736712 0.0586704 0.0155
v -0.00818011 0.057474 0.0155
v -0.00925578 0.056507 0.0155
v -0.0105316 0.0558255 0.0155
v -0.0119335 0.0554692 0.0155
v -0.0133799 0.0554586 0.0155
v -0.0147868 0.0557946 0.0155
v -0.0160724 0.0564574 0.0155
v -0.0151984 0.0577435 0.0174499
v -0.015436 0.0573939 0.0173019
v -0.0156491 0.0570803 0.0170637
v -0.0159611 0.0566212 0.0163678
v -0.0160442 0.0564989 0.015945
v -0.0147693 0.0558416 0.015945
v -0.0133742 0.0555085 0.015945
v -0.0119399 0.0555189 0.015945
v -0.0105497 0.0558723 0.015945
v -0.00928456 0.0565481 0.015945
v -0.00821788 0.057507 0.015945
v -0.00741169 0.0586934 0.015945
v -0.00691283 0.0600382 0.015945
v -0.0067503 0.0614633 0.015945
v -0.00693355 0.0628859 0.015945
v -0.00745192 0.0642233 0.015945
v -0.00758239 0.0641536 0.0163678
v -0.00707691 0.0628494 0.0163678
v -0.00689822 0.0614622 0.0163678
v -0.0070567 0.0600725 0.0163678
v -0.00754316 0.0587612 0.0163678
v -0.00832931 0.0576043 0.0163678
v -0.00936947 0.0566692 0.0163678
v -0.0106032 0.0560102 0.0163678
v -0.0119588 0.0556656 0.0163678
v -0.0133574 0.0556554 0.0163678
v -0.0147179 0.0559803 0.0163678
v -0.0158271 0.0568183 0.016747
v -0.014635 0.0562037 0.016747
v -0.0133304 0.0558922 0.016747
v -0.0119892 0.0559019 0.016747
v -0.0106893 0.0562324 0.016747
v -0.00950625 0.0568643 0.016747
v -0.00850881 0.057761 0.016747
v -0.00775494 0.0588703 0.016747
v -0.00728846 0.0601279 0.016747
v -0.00713648 0.0614605 0.016747
v -0.00730784 0.0627907 0.016747
v -0.00779256 0.0640413 0.016747
v -0.00807189 0.0638921 0.0170637
v -0.00761476 0.0627127 0.0170637
v -0.00745316 0.0614582 0.0170637
v -0.00759649 0.0602014 0.0170637
v -0.00803641 0.0590155 0.0170637
v -0.00874737 0.0579693 0.0170637
v -0.00968804 0.0571236 0.0170637
v -0.0108038 0.0565277 0.0170637
v -0.0120297 0.056216 0.0170637
v -0.0132945 0.0562068 0.0170637
v -0.0145249 0.0565006 0.0170637
v -0.014393 0.0568561 0.0173019
v -0.0132516 0.0565836 0.0173019
v -0.0120781 0.0565921 0.0173019
v -0.0109408 0.0568812 0.0173019
v -0.00990572 0.0574341 0.0173019
v -0.00903304 0.0582187 0.0173019
v -0.00837346 0.0591893 0.0173019
v -0.00796533 0.0602895 0.0173019
v -0.00783236 0.0614554 0.0173019
v -0.00798228 0.0626193 0.0173019
v -0.00840638 0.0637135 0.0173019
v -0.014246 0.0572525 0.0174499
v -0.0132037 0.0570036 0.0174499
v -0.0121321 0.0570114 0.0174499
v -0.0110936 0.0572754 0.0174499
v -0.0101484 0.0577803 0.0174499
v -0.00935148 0.0584967 0.0174499
v -0.00874919 0.059383 0.0174499
v -0.0083765 0.0603877 0.0174499
v -0.00825508 0.0614523 0.0174499
v -0.00839198 0.0625151 0.0174499
v -0.00877924 0.0635143 0.0174499
v -0.017162 0.0574087 0.01205
v -0.0160724 0.0564574 0.01205
v -0.0147868 0.0557946 0.01205
v -0.0133799 0.0554586 0.01205
v -0.0119335 0.0554692 0.01205
v -0.0105316 0.0558255 0.01205
v -0.00925578 0.056507 0.01205
v -0.00818011 0.057474 0.01205
v -0.00736712 0.0586704 0.01205
v -0.00686406 0.0600265 0.01205
v -0.00670016 0.0614637 0.01205
v -0.00688495 0.0628982 0.01205
v -0.00740769 0.0642469 0.01205
v -0.008238 0.0654313 0.01205
v -0.0122493 0.0698933 0.01205
v -0.0211733 0.0618707 0.01205
v -0.021704 0.062461 0.01215
v -0.01278 0.0704836 0.01215
v -0.0147057 0.063651 0.0175
v -0.0140599 0.0640941 0.0175
v -0.0237864 0.0742359 0.0175
v -0.0236457 0.0745303 0.0175
v -0.0152147 0.0630559 0.0175
v -0.0239985 0.073988 0.0175
v -0.0256699 0.0758471 0.0175
v -0.0254008 0.0760317 0.0175
v -0.0298034 0.0809289 0.0175
v -0.023586 0.0748512 0.0175
v -0.0117707 0.0642724 0.0175
v -0.0242676 0.0738033 0.0175
v -0.0156958 0.0615793 0.0175
v -0.0155524 0.0623493 0.0175
v -0.0153741 0.0600601 0.0175
v -0.0156349 0.0607986 0.0175
v -0.0136293 0.0585676 0.0175
v -0.0128593 0.0584242 0.0175
v -0.0296626 0.0812234 0.0175
v -0.0125407 0.0644158 0.0175
v -0.0133214 0.0643549 0.0175
v -0.014931 0.0594143 0.0175
v -0.0143359 0.0589053 0.0175
v -0.0101853 0.0597841 0.0175
v -0.0106943 0.059189 0.0175
v -0.025882 0.0755992 0.0175
v -0.0302845 0.0804963 0.0175
v -0.0305922 0.0803877 0.0175
v -0.0300155 0.080681 0.0175
v -0.0296029 0.0815442 0.0175
v -0.0250931 0.0761404 0.0175
v -0.00984755 0.0604907 0.0175
v -0.00970424 0.0612607 0.0175
v -0.0309176 0.0803623 0.0175
v -0.0260824 0.0749839 0.0175
v -0.0260227 0.0753048 0.0175
v -0.0259484 0.0743509 0.0175
v -0.0260571 0.0746586 0.0175
v -0.0249006 0.0736693 0.0175
v -0.0252214 0.073729 0.0175
v -0.0120786 0.0584851 0.0175
v -0.0113401 0.0587459 0.0175
v -0.0299216 0.0824462 0.0175
v -0.029737 0.0821772 0.0175
v -0.0315328 0.0805627 0.0175
v -0.02372 0.0754842 0.0175
v -0.0236113 0.0751765 0.0175
v -0.0241526 0.0759654 0.0175
v -0.0239046 0.0757532 0.0175
v -0.0247678 0.0761658 0.0175
v -0.024447 0.0761061 0.0175
v -0.0257638 0.0740819 0.0175
v -0.0255158 0.0738697 0.0175
v -0.00976507 0.0620414 0.0175
v -0.0100259 0.0627799 0.0175
v -0.010469 0.0634257 0.0175
v -0.0245753 0.0736947 0.0175
v -0.0301695 0.0826584 0.0175
v -0.0316868 0.0825401 0.0175
v -0.0314178 0.0827247 0.0175
v -0.0320397 0.0819977 0.0175
v -0.031899 0.0822922 0.0175
v -0.032074 0.0813516 0.0175
v -0.0320994 0.0816769 0.0175
v -0.0317807 0.0807749 0.0175
v -0.0110641 0.0639347 0.0175
v -0.0307848 0.0828588 0.0175
v -0.030464 0.0827991 0.0175
v -0.0319654 0.0810439 0.0175
v -0.0311101 0.0828334 0.0175
v -0.0296283 0.0818695 0.0175
v -0.0312384 0.080422 0.0175
v -0.0255158 0.0738697 0.01215
v -0.0257638 0.0740819 0.01215
v -0.0252214 0.073729 0.01215
v -0.0249006 0.0736693 0.01215
v -0.0245753 0.0736947 0.01215
v -0.0242676 0.0738033 0.01215
v -0.0239985 0.073988 0.01215
v -0.0237864 0.0742359 0.01215
v -0.0236457 0.0745303 0.01215
v -0.023586 0.0748512 0.01215
v -0.0236113 0.0751765 0.01215
v -0.02372 0.0754842 0.01215
v -0.0239046 0.0757532 0.01215
v -0.0241526 0.0759654 0.01215
v -0.024447 0.0761061 0.01215
v -0.0247678 0.0761658 0.01215
v -0.0250931 0.0761404 0.01215
v -0.0254008 0.0760317 0.01215
v -0.0256699 0.0758471 0.01215
v -0.025882 0.0755992 0.01215
v -0.0260227 0.0753048 0.01215
v -0.0260824 0.0749839 0.01215
v -0.0260571 0.0746586 0.01215
v -0.0259484 0.0743509 0.01215
v -0.0300155 0.080681 0.01215
v -0.0298034 0.0809289 0.01215
v -0.0302845 0.0804963 0.01215
v -0.0309176 0.0803623 0.01215
v -0.0296626 0.0812234 0.01215
v -0.0305922 0.0803877 0.01215
v -0.0261552 0.0853616 0.01215
v -0.0296029 0.0815442 0.01215
v -0.0296283 0.0818695 0.01215
v -0.0297248 0.0821525 0.01215
v -0.0350792 0.077339 0.01215
v -0.0312384 0.080422 0.01215
v -0.0315096 0.080548 0.01215
v -0.0315311 0.0805649 0.0121489
v -0.0317246 0.0807164 0.0121387
v -0.0317766 0.0807783 0.0121287
v -0.0318826 0.0809044 0.0121084
v -0.0319654 0.0810439 0.0120783
v -0.0319829 0.0810799 0.0120698
v -0.032074 0.0813516 0.0119978
v -0.0320994 0.0816769 0.0119025
v -0.0320629 0.0819176 0.0118331
v -0.0319793 0.0821489 0.0117742
v -0.0320346 0.0819959 0.0118132
v -0.0318015 0.0824226 0.0117275
v -0.031899 0.0822922 0.0117454
v -0.0315587 0.082641 0.0117274
v -0.0316868 0.0825401 0.0117213
v -0.0312666 0.0827895 0.0117743
v -0.0314178 0.0827247 0.0117454
v -0.031037 0.0828391 0.0118319
v -0.0311101 0.0828334 0.0118114
v -0.0307848 0.0828588 0.0119025
v -0.030464 0.0827991 0.0119978
v -0.0302035 0.0826797 0.0120698
v -0.0300394 0.0825611 0.0121084
v -0.0301711 0.0826562 0.0120774
v -0.0298205 0.0823178 0.0121445
v -0.0299216 0.0824462 0.0121308
v -0.029737 0.0821772 0.0121499
v -0.0278278 0.0872221 0.0109452
v -0.027489 0.0868453 0.0114519
v -0.036413 0.0788227 0.0114519
v -0.0280827 0.0875056 0.0103384
v -0.0367518 0.0791995 0.0109452
v -0.0282409 0.0876816 0.00966207
v -0.0370067 0.079483 0.0103384
v -0.0282945 0.0877413 0.00895
v -0.0371649 0.079659 0.00966207
v -0.0266312 0.0858911 0.0120698
v -0.0270834 0.0863941 0.0118331
v -0.0360074 0.0783715 0.0118331
v -0.0355552 0.0778685 0.0120698
v -0.0372185 0.0797187 0.00895
v -0.0282945 0.0877413 -0.00895
v -0.0372185 0.0797187 -0.00895
v -0.010469 0.0634257 0.0153
v -0.0100259 0.0627799 0.0153
v -0.00976507 0.0620414 0.0153
v -0.00970424 0.0612607 0.0153
v -0.00984755 0.0604907 0.0153
v -0.0101853 0.0597841 0.0153
v -0.0106943 0.059189 0.0153
v -0.0113401 0.0587459 0.0153
v -0.0120786 0.0584851 0.0153
v -0.0128593 0.0584242 0.0153
v -0.0136293 0.0585676 0.0153
v -0.0143359 0.0589053 0.0153
v -0.014931 0.0594143 0.0153
v -0.0153741 0.0600601 0.0153
v -0.0156349 0.0607986 0.0153
v -0.0156958 0.0615793 0.0153
v -0.0155524 0.0623493 0.0153
v -0.0152147 0.0630559 0.0153
v -0.0147057 0.063651 0.0153
v -0.0140599 0.0640941 0.0153
v -0.0133214 0.0643549 0.0153
v -0.0125407 0.0644158 0.0153
v -0.0117707 0.0642724 0.0153
v -0.0110641 0.0639347 0.0153
v -0.0127 0.06142 0.0153
v -0.0282409 0.0876816 -0.00966207
v -0.0280827 0.0875056 -0.0103384
v -0.0371649 0.079659 -0.00966207
v -0.0278278 0.0872221 -0.0109452
v -0.0370067 0.079483 -0.0103384
v -0.027489 0.0868453 -0.0114519
v -0.0367518 0.0791995 -0.0109452
v -0.0355552 0.0778685 -0.0120698
v -0.0318824 0.0809042 -0.0121084
v -0.0319631 0.0810452 -0.0120774
v -0.0350792 0.077339 -0.01215
v -0.0317807 0.0807749 -0.0121308
v -0.0316638 0.0806607 -0.0121445
v -0.0315096 0.080548 -0.01215
v -0.0315328 0.0805627 -0.0121499
v -0.0319829 0.0810799 -0.0120698
v -0.032074 0.0813516 -0.0119978
v -0.0360074 0.0783715 -0.0118331
v -0.0320994 0.0816769 -0.0119025
v -0.0270834 0.0863941 -0.0118331
v -0.0311088 0.0828282 -0.0118132
v -0.0312668 0.0827894 -0.0117742
v -0.0316868 0.0825401 -0.0117213
v -0.0315578 0.0826416 -0.0117275
v -0.0314178 0.0827247 -0.0117454
v -0.036413 0.0788227 -0.0114519
v -0.0318008 0.0824234 -0.0117274
v -0.0320397 0.0819977 -0.0118114
v -0.0319794 0.0821487 -0.0117743
v -0.031899 0.0822922 -0.0117454
v -0.0320531 0.0819256 -0.0118319
v -0.0266312 0.0858911 -0.0120698
v -0.030464 0.0827991 -0.0119978
v -0.0310279 0.082848 -0.0118331
v -0.0307848 0.0828588 -0.0119025
v -0.0261552 0.0853616 -0.01215
v -0.0298205 0.0823178 -0.0121445
v -0.0297385 0.0821763 -0.0121492
v -0.0300391 0.0825609 -0.0121085
v -0.0302035 0.0826797 -0.0120698
v -0.0301695 0.0826584 -0.0120783
v -0.0299216 0.0824462 -0.0121308
v -0.0297248 0.0821525 -0.01215
v -0.0299216 0.0824462 -0.0175
v -0.029737 0.0821772 -0.0175
v -0.0301695 0.0826584 -0.0175
v -0.030464 0.0827991 -0.0175
v -0.0311101 0.0828334 -0.0175
v -0.0307848 0.0828588 -0.0175
v -0.0314178 0.0827247 -0.0175
v -0.0316868 0.0825401 -0.0175
v -0.031899 0.0822922 -0.0175
v -0.0320397 0.0819977 -0.0175
v -0.0320994 0.0816769 -0.0175
v -0.0319654 0.0810439 -0.0175
v -0.032074 0.0813516 -0.0175
v -0.0317807 0.0807749 -0.0175
v -0.0315328 0.0805627 -0.0175
v -0.0312384 0.080422 -0.0175
v -0.0309176 0.0803623 -0.0175
v -0.0312384 0.080422 -0.01215
v -0.0305922 0.0803877 -0.0175
v -0.0309176 0.0803623 -0.01215
v -0.0302845 0.0804963 -0.0175
v -0.0305922 0.0803877 -0.01215
v -0.0300155 0.080681 -0.0175
v -0.0302845 0.0804963 -0.01215
v -0.0298034 0.0809289 -0.0175
v -0.0300155 0.080681 -0.01215
v -0.0296626 0.0812234 -0.0175
v -0.0298034 0.0809289 -0.01215
v -0.0296029 0.0815442 -0.0175
v -0.0296626 0.0812234 -0.01215
v -0.0296283 0.0818695 -0.0175
v -0.0296029 0.0815442 -0.01215
v -0.0296283 0.0818695 -0.01215
v -0.025882 0.0755992 -0.01215
v -0.0256699 0.0758471 -0.01215
v -0.0254008 0.0760317 -0.01215
v -0.0259484 0.0743509 -0.01215
v -0.0260571 0.0746586 -0.01215
v -0.021704 0.062461 -0.01215
v -0.0257638 0.0740819 -0.01215
v -0.0250931 0.0761404 -0.01215
v -0.0260824 0.0749839 -0.01215
v -0.0260227 0.0753048 -0.01215
v -0.0247678 0.0761658 -0.01215
v -0.01278 0.0704836 -0.01215
v -0.02372 0.0754842 -0.01215
v -0.0236113 0.0751765 -0.01215
v -0.0239046 0.0757532 -0.01215
v -0.024447 0.0761061 -0.01215
v -0.0249006 0.0736693 -0.01215
v -0.0252214 0.073729 -0.01215
v -0.0237864 0.0742359 -0.01215
v -0.0239985 0.073988 -0.01215
v -0.0241526 0.0759654 -0.01215
v -0.0255158 0.0738697 -0.01215
v -0.0242676 0.0738033 -0.01215
v -0.0245753 0.0736947 -0.01215
v -0.023586 0.0748512 -0.01215
v -0.0236457 0.0745303 -0.01215
v -0.0255158 0.0738697 -0.0175
v -0.0257638 0.0740819 -0.0175
v -0.0252214 0.073729 -0.0175
v -0.0249006 0.0736693 -0.0175
v -0.0245753 0.0736947 -0.0175
v -0.0242676 0.0738033 -0.0175
v -0.0239985 0.073988 -0.0175
v -0.0237864 0.0742359 -0.0175
v -0.0236457 0.0745303 -0.0175
v -0.023586 0.0748512 -0.0175
v -0.0236113 0.0751765 -0.0175
v -0.02372 0.0754842 -0.0175
v -0.0239046 0.0757532 -0.0175
v -0.0241526 0.0759654 -0.0175
v -0.024447 0.0761061 -0.0175
v -0.0247678 0.0761658 -0.0175
v -0.0250931 0.0761404 -0.0175
v -0.0254008 0.0760317 -0.0175
v -0.0256699 0.0758471 -0.0175
v -0.025882 0.0755992 -0.0175
v -0.0260227 0.0753048 -0.0175
v -0.0260824 0.0749839 -0.0175
v -0.0260571 0.0746586 -0.0175
v -0.0259484 0.0743509 -0.0175
v -0.0122493 0.0698933 -0.01205
v -0.0211733 0.0618707 -0.01205
v -0.00736712 0.0586704 -0.01205
v -0.00686406 0.0600265 -0.01205
v -0.00670016 0.0614637 -0.01205
v -0.00688495 0.0628982 -0.01205
v -0.00818011 0.057474 -0.01205
v -0.00740769 0.0642469 -0.01205
v -0.0119335 0.0554692 -0.01205
v -0.0105316 0.0558255 -0.01205
v -0.017162 0.0574087 -0.01205
v -0.0160724 0.0564574 -0.01205
v -0.00925578 0.056507 -0.01205
v -0.0147868 0.0557946 -0.01205
v -0.0133799 0.0554586 -0.01205
v -0.008238 0.0654313 -0.01205
v -0.017162 0.0574087 -0.0155
v -0.0160724 0.0564574 -0.0155
v -0.0147868 0.0557946 -0.0155
v -0.0133799 0.0554586 -0.0155
v -0.0119335 0.0554692 -0.0155
v -0.0105316 0.0558255 -0.0155
v -0.00925578 0.056507 -0.0155
v -0.00818011 0.057474 -0.0155
v -0.00736712 0.0586704 -0.0155
v -0.00686406 0.0600265 -0.0155
v -0.00670016 0.0614637 -0.0155
v -0.00688495 0.0628982 -0.0155
v -0.00740769 0.0642469 -0.0155
v -0.008238 0.0654313 -0.0155
v -0.00828147 0.0653922 -0.0159439
v -0.00828868 0.0653857 -0.0160176
v -0.0171185 0.0574478 -0.0159439
v -0.00839489 0.0652903 -0.0163624
v -0.00843727 0.0652522 -0.0165
v -0.0170051 0.0575497 -0.0163624
v -0.0171113 0.0574543 -0.0160176
v -0.00857238 0.0651307 -0.0167368
v -0.00867363 0.0650397 -0.0169142
v -0.0168276 0.0577093 -0.0167368
v -0.0169627 0.0575878 -0.0165
v -0.00880559 0.0649211 -0.0170504
v -0.00898167 0.0647628 -0.0172321
v -0.0165944 0.0579189 -0.0170504
v -0.0167264 0.0578003 -0.0169142
v -0.00908398 0.0646708 -0.017289
v -0.00934038 0.0644403 -0.0174319
v -0.016316 0.0581692 -0.017289
v -0.0164183 0.0580772 -0.0172321
v -0.00939518 0.064391 -0.0174416
v -0.00917179 0.0633046 -0.0175
v -0.00972533 0.0640942 -0.0175
v -0.0088233 0.0624055 -0.0175
v -0.00870011 0.0614491 -0.0175
v -0.00880937 0.060491 -0.0175
v -0.00914475 0.0595869 -0.0175
v -0.00968674 0.0587894 -0.0175
v -0.0104039 0.0581447 -0.0175
v -0.0112544 0.0576904 -0.0175
v -0.012189 0.0574528 -0.0175
v -0.0131532 0.0574458 -0.0175
v -0.0140912 0.0576697 -0.0175
v -0.0149482 0.0581116 -0.0175
v -0.0160048 0.058449 -0.0174416
v -0.0160596 0.0583997 -0.0174319
v -0.0156747 0.0587458 -0.0175
v -0.0152392 0.0576835 -0.0174319
v -0.0142712 0.0571844 -0.0174319
v -0.0132119 0.0569315 -0.0174319
v -0.0121228 0.0569394 -0.0174319
v -0.0110673 0.0572077 -0.0174319
v -0.0101067 0.0577208 -0.0174319
v -0.00929679 0.0584489 -0.0174319
v -0.00868466 0.0593497 -0.0174319
v -0.00830589 0.0603708 -0.0174319
v -0.00818248 0.0614529 -0.0174319
v -0.00832162 0.062533 -0.0174319
v -0.00871521 0.0635485 -0.0174319
v -0.0155103 0.0572845 -0.0172321
v -0.00828974 0.0637758 -0.0172321
v -0.00785413 0.0626519 -0.0172321
v -0.00770013 0.0614564 -0.0172321
v -0.00783671 0.0602588 -0.0172321
v -0.00825593 0.0591287 -0.0172321
v -0.00893342 0.0581317 -0.0172321
v -0.00982981 0.0573259 -0.0172321
v -0.010893 0.0567579 -0.0172321
v -0.0120612 0.056461 -0.0172321
v -0.0132666 0.0564522 -0.0172321
v -0.014439 0.0567321 -0.0172321
v -0.0157431 0.0569419 -0.0169142
v -0.014583 0.0563438 -0.0169142
v -0.0133135 0.0560407 -0.0169142
v -0.0120083 0.0560502 -0.0169142
v -0.0107433 0.0563717 -0.0169142
v -0.00959204 0.0569867 -0.0169142
v -0.00862139 0.0578593 -0.0169142
v -0.00788777 0.0589388 -0.0169142
v -0.00743383 0.0601626 -0.0169142
v -0.00728593 0.0614594 -0.0169142
v -0.00745268 0.0627539 -0.0169142
v -0.00792438 0.0639709 -0.0169142
v -0.0159218 0.056679 -0.0165
v -0.00764404 0.0641207 -0.0165
v -0.00714464 0.0628322 -0.0165
v -0.0069681 0.0614617 -0.0165
v -0.00712468 0.0600888 -0.0165
v -0.00760528 0.0587932 -0.0165
v -0.00838196 0.0576503 -0.0165
v -0.00940959 0.0567264 -0.0165
v -0.0106284 0.0560754 -0.0165
v -0.0119677 0.0557349 -0.0165
v -0.0133495 0.0557249 -0.0165
v -0.0146936 0.0560458 -0.0165
v -0.0160341 0.0565138 -0.0160176
v -0.0147631 0.0558585 -0.0160176
v -0.0133721 0.0555264 -0.0160176
v -0.0119422 0.0555368 -0.0160176
v -0.0105562 0.0558891 -0.0160176
v -0.0092949 0.0565628 -0.0160176
v -0.00823144 0.0575189 -0.0160176
v -0.00742769 0.0587016 -0.0160176
v -0.00693034 0.0600424 -0.0160176
v -0.00676831 0.0614632 -0.0160176
v -0.006951 0.0628815 -0.0160176
v -0.0074678 0.0642148 -0.0160176
v -0.0393698 0.0821117 -0.0155
v -0.0393326 0.0821452 -0.015945
v -0.0392225 0.0822441 -0.0163678
v -0.0390454 0.0824034 -0.016747
v -0.0388098 0.0826152 -0.0170637
v -0.0385278 0.0828687 -0.0173019
v -0.0382135 0.0831513 -0.0174499
v -0.0378825 0.0834488 -0.0175
v -0.0304458 0.0901343 -0.0155
v -0.0306027 0.0899933 -0.0163624
v -0.0304965 0.0900888 -0.0160176
v -0.0304893 0.0900953 -0.0159439
v -0.0307802 0.0898337 -0.0167368
v -0.0306451 0.0899552 -0.0165
v -0.0310134 0.0896241 -0.0170504
v -0.0308815 0.0897427 -0.0169142
v -0.0312918 0.0893738 -0.017289
v -0.0311895 0.0894658 -0.0172321
v -0.0315482 0.0891433 -0.0174319
v -0.031603 0.089094 -0.0174416
v -0.0319332 0.0887972 -0.0175
v -0.0110641 0.0639347 -0.0175
v -0.010469 0.0634257 -0.0175
v -0.0100259 0.0627799 -0.0175
v -0.00976507 0.0620414 -0.0175
v -0.00970424 0.0612607 -0.0175
v -0.00984755 0.0604907 -0.0175
v -0.0101853 0.0597841 -0.0175
v -0.0106943 0.059189 -0.0175
v -0.0113401 0.0587459 -0.0175
v -0.0120786 0.0584851 -0.0175
v -0.0128593 0.0584242 -0.0175
v -0.0143359 0.0589053 -0.0175
v -0.014931 0.0594143 -0.0175
v -0.0136293 0.0585676 -0.0175
v -0.0147057 0.063651 -0.0175
v -0.0152147 0.0630559 -0.0175
v -0.0156349 0.0607986 -0.0175
v -0.0155524 0.0623493 -0.0175
v -0.0156958 0.0615793 -0.0175
v -0.0153741 0.0600601 -0.0175
v -0.0157 0.06142 -0.0175
v -0.0125407 0.0644158 -0.0175
v -0.0133214 0.0643549 -0.0175
v -0.0117707 0.0642724 -0.0175
v -0.0140599 0.0640941 -0.0175
v -0.0387247 0.0843857 -0.0173387
v -0.0327754 0.0897341 -0.0173387
v -0.0395126 0.0852621 -0.0168652
v -0.0335633 0.0906105 -0.0168652
v -0.0401953 0.0860215 -0.01611
v -0.034246 0.0913699 -0.01611
v -0.0407288 0.0866149 -0.015122
v -0.0347795 0.0919633 -0.015122
v -0.0398752 0.0826738 -0.0154032
v -0.0403479 0.0831997 -0.0151191
v -0.0407575 0.0836553 -0.014666
v -0.0410776 0.0840114 -0.0140732
v -0.0413154 0.0843876 -0.0143434
v -0.0412937 0.0843267 -0.0143065
v -0.0414243 0.0846933 -0.0145282
v -0.0414354 0.0852988 -0.0148101
v -0.041463 0.0850927 -0.0147271
v -0.0414077 0.0855049 -0.0148931
v -0.0410695 0.086223 -0.0150828
v -0.0412614 0.0859093 -0.0150181
v -0.0410312 0.0862856 -0.0150957
v -0.0405031 0.0856982 -0.0160738
v -0.040749 0.0853394 -0.015967
v -0.0409208 0.0849633 -0.015795
v -0.0410098 0.0845886 -0.0155663
v -0.0410116 0.0842342 -0.0152926
v -0.0409261 0.0839178 -0.0149873
v -0.0398272 0.0849464 -0.0168214
v -0.0400934 0.0846101 -0.0166923
v -0.0402977 0.0842702 -0.0164843
v -0.04043 0.0839436 -0.0162078
v -0.0404835 0.0836468 -0.0158767
v -0.0404557 0.0833946 -0.0155077
v -0.0390472 0.0840787 -0.0172902
v -0.0393367 0.0837684 -0.017147
v -0.0395786 0.0834703 -0.0169164
v -0.0397607 0.0831992 -0.01661
v -0.0398741 0.0829688 -0.016243
v -0.0399128 0.0827907 -0.0158339
v -0.0420114 0.0880416 -0.0137032
v -0.0428806 0.0883444 -0.0135416
v -0.0429354 0.0882951 -0.0135319
v -0.0415071 0.0874807 -0.0140063
v -0.0410702 0.0869947 -0.0144896
v -0.0431918 0.0880646 -0.013389
v -0.0432941 0.0879726 -0.0133321
v -0.0434702 0.0878143 -0.0131504
v -0.0436021 0.0876957 -0.0130142
v -0.0437034 0.0876047 -0.0128368
v -0.0438385 0.0874832 -0.0126
v -0.0438809 0.0874451 -0.0124624
v -0.0439871 0.0873496 -0.0121176
v -0.0439943 0.0873432 -0.0120439
v -0.0431618 0.0863298 -0.0117678
v -0.0440377 0.0873041 -0.0116
v -0.0423424 0.0854183 -0.0122602
v -0.0416324 0.0846285 -0.0130456
v -0.0425504 0.0886412 -0.0136
v -0.0416899 0.0861883 -0.0142961
v -0.0414236 0.0866136 -0.0144404
v -0.0431983 0.0864723 -0.0122687
v -0.0418212 0.0849404 -0.0134193
v -0.0418957 0.0853222 -0.0137676
v -0.043131 0.0866963 -0.0127355
v -0.0429644 0.0869864 -0.0131363
v -0.041851 0.0857478 -0.0140666
v -0.0427099 0.0873228 -0.0134439
v -0.0424605 0.0856516 -0.0127121
v -0.0424692 0.0859601 -0.0131332
v -0.0423679 0.0863228 -0.0134949
v -0.0421635 0.086715 -0.0137723
v -0.0418699 0.0871099 -0.0139468
v -0.0423849 0.0876828 -0.0136373
v -0.032499 0.0923162 -0.0143446
v -0.0321536 0.092034 -0.0140732
v -0.0318335 0.0916779 -0.014666
v -0.0314239 0.0912223 -0.0151191
v -0.0309512 0.0906964 -0.0154032
v -0.0329221 0.0924881 -0.0145976
v -0.0333943 0.0925379 -0.0148148
v -0.0338833 0.0924622 -0.0149814
v -0.0343557 0.0922662 -0.0150862
v -0.032379 0.0900674 -0.0172727
v -0.0319866 0.0903524 -0.0170794
v -0.031625 0.0905698 -0.0167718
v -0.0313189 0.0907047 -0.016371
v -0.031089 0.0907479 -0.0159042
v -0.0331561 0.0909318 -0.0168057
v -0.0327323 0.0911819 -0.0166313
v -0.0323206 0.0913435 -0.0163538
v -0.0319492 0.0914058 -0.0159922
v -0.0316433 0.0913644 -0.015571
v -0.0338295 0.0916809 -0.0160608
v -0.0333784 0.0919006 -0.0159166
v -0.0329233 0.092014 -0.0156871
v -0.0324954 0.0920133 -0.015388
v -0.0321236 0.0918987 -0.0150398
v -0.0351209 0.0923431 -0.0144896
v -0.0355578 0.0928291 -0.0140063
v -0.0360621 0.09339 -0.0137032
v -0.0366011 0.0939896 -0.0136
v -0.0840171 0.131775 -0.0116
v -0.0839736 0.131814 -0.0120439
v -0.0839664 0.131821 -0.0121176
v -0.0838602 0.131916 -0.0124624
v -0.0838178 0.131954 -0.0126
v -0.0836827 0.132076 -0.0128368
v -0.0835815 0.132167 -0.0130142
v -0.0834495 0.132286 -0.0131504
v -0.0832734 0.132444 -0.0133321
v -0.0831711 0.132536 -0.013389
v -0.0829147 0.132766 -0.0135319
v -0.0828599 0.132816 -0.0135416
v -0.0825297 0.133112 -0.0136
v -0.0362709 0.0942864 -0.0135416
v -0.0359597 0.0945662 -0.013389
v -0.0362161 0.0943357 -0.0135319
v -0.0356813 0.0948164 -0.0131504
v -0.0358574 0.0946581 -0.0133321
v -0.0354481 0.0950261 -0.0128368
v -0.0355494 0.0949351 -0.0130142
v -0.0352706 0.0951857 -0.0124624
v -0.035313 0.0951476 -0.0126
v -0.0327084 0.0926511 -0.0130456
v -0.0334184 0.0934409 -0.0122602
v -0.0342378 0.0943524 -0.0117678
v -0.0351572 0.0952876 -0.0120439
v -0.0351644 0.0952811 -0.0121176
v -0.0351137 0.0953267 -0.0116
v -0.0343757 0.0944038 -0.0122687
v -0.0346055 0.0943606 -0.0127355
v -0.0349117 0.0942257 -0.0131363
v -0.0352733 0.0940084 -0.0134439
v -0.0356656 0.0937233 -0.0136373
v -0.0336379 0.0935831 -0.0127121
v -0.0339437 0.0936244 -0.0131332
v -0.0343151 0.0935621 -0.0134949
v -0.0347268 0.0934005 -0.0137723
v -0.0351506 0.0931505 -0.0139468
v -0.0329985 0.0928719 -0.0134193
v -0.0333703 0.0929865 -0.0137676
v -0.0337982 0.0929872 -0.0140666
v -0.0342533 0.0928738 -0.0142961
v -0.0347044 0.0926541 -0.0144404
v -0.0750931 0.139798 -0.0116
v -0.07525 0.139657 -0.0124624
v -0.0751438 0.139752 -0.0121176
v -0.0751365 0.139759 -0.0120439
v -0.0754275 0.139497 -0.0128368
v -0.0752923 0.139619 -0.0126
v -0.0756607 0.139288 -0.0131504
v -0.0755287 0.139406 -0.0130142
v -0.0758368 0.139129 -0.0133321
v -0.0759391 0.139037 -0.013389
v -0.0761955 0.138807 -0.0135319
v -0.0762503 0.138758 -0.0135416
v -0.0765804 0.138461 -0.0136
v -0.0768158 0.136367 -0.0136
v -0.0776831 0.133704 -0.0136
v -0.077208 0.13426 -0.0136
v -0.0782859 0.133291 -0.0136
v -0.0810819 0.13344 -0.0136
v -0.083555 0.135758 -0.0136
v -0.0834457 0.136716 -0.0136
v -0.0822174 0.136654 -0.0136
v -0.0819022 0.137313 -0.0136
v -0.0818512 0.139062 -0.0136
v -0.0810007 0.139516 -0.0136
v -0.0808243 0.138282 -0.0136
v -0.0801351 0.138526 -0.0136
v -0.0791018 0.139761 -0.0136
v -0.0781639 0.139537 -0.0136
v -0.0786878 0.138449 -0.0136
v -0.0780283 0.138134 -0.0136
v -0.0773068 0.139095 -0.0136
v -0.0774728 0.137659 -0.0136
v -0.076759 0.135638 -0.0136
v -0.0768928 0.134919 -0.0136
v -0.0789751 0.133047 -0.0136
v -0.0804224 0.133124 -0.0136
v -0.0797038 0.132991 -0.0136
v -0.0816374 0.133915 -0.0136
v -0.0820509 0.134517 -0.0136
v -0.0830833 0.133902 -0.0136
v -0.0834318 0.134801 -0.0136
v -0.0822944 0.135207 -0.0136
v -0.0823511 0.135935 -0.0136
v -0.0831103 0.13762 -0.0136
v -0.0825684 0.138417 -0.0136
v -0.081427 0.137869 -0.0136
v -0.0800661 0.139754 -0.0136
v -0.0794064 0.138583 -0.0136
v -0.0770593 0.137056 -0.0136
v -0.0761827 0.140749 -0.0116
v -0.0774683 0.141412 -0.0116
v -0.0788752 0.141748 -0.0116
v -0.0803216 0.141737 -0.0116
v -0.0817235 0.141381 -0.0116
v -0.0829993 0.1407 -0.0116
v -0.084075 0.139733 -0.0116
v -0.084888 0.138536 -0.0116
v -0.085391 0.13718 -0.0116
v -0.0855549 0.135743 -0.0116
v -0.0853701 0.134308 -0.0116
v -0.0848474 0.13296 -0.0116
v -0.0847873 0.132992 -0.0121176
v -0.0853041 0.134325 -0.0121176
v -0.0854868 0.135743 -0.0121176
v -0.0853247 0.137164 -0.0121176
v -0.0848274 0.138505 -0.0121176
v -0.0840236 0.139688 -0.0121176
v -0.0829602 0.140644 -0.0121176
v -0.0816988 0.141318 -0.0121176
v -0.0803129 0.14167 -0.0121176
v -0.0788829 0.14168 -0.0121176
v -0.077492 0.141348 -0.0121176
v -0.076221 0.140693 -0.0121176
v -0.0846111 0.133086 -0.0126
v -0.0763333 0.140528 -0.0126
v -0.0775615 0.141161 -0.0126
v -0.0789056 0.141482 -0.0126
v -0.0802874 0.141472 -0.0126
v -0.0816266 0.141131 -0.0126
v -0.0828455 0.14048 -0.0126
v -0.0838731 0.139556 -0.0126
v -0.0846498 0.138413 -0.0126
v -0.0851304 0.137118 -0.0126
v -0.085287 0.135745 -0.0126
v -0.0851104 0.134374 -0.0126
v -0.0843307 0.133236 -0.0130142
v -0.0848024 0.134453 -0.0130142
v -0.0849692 0.135747 -0.0130142
v -0.0848213 0.137044 -0.0130142
v -0.0843673 0.138268 -0.0130142
v -0.0836337 0.139347 -0.0130142
v -0.082663 0.14022 -0.0130142
v -0.0815118 0.140835 -0.0130142
v -0.0802468 0.141157 -0.0130142
v -0.0789416 0.141166 -0.0130142
v -0.0776721 0.140863 -0.0130142
v -0.076512 0.140265 -0.0130142
v -0.0839653 0.133431 -0.0133321
v -0.0767448 0.139922 -0.0133321
v -0.0778161 0.140474 -0.0133321
v -0.0789885 0.140754 -0.0133321
v -0.0801939 0.140746 -0.0133321
v -0.0813621 0.140449 -0.0133321
v -0.0824253 0.139881 -0.0133321
v -0.0833217 0.139075 -0.0133321
v -0.0839991 0.138078 -0.0133321
v -0.0844184 0.136948 -0.0133321
v -0.084555 0.13575 -0.0133321
v -0.084401 0.134555 -0.0133321
v -0.0835399 0.133658 -0.0135319
v -0.0839335 0.134674 -0.0135319
v -0.0840726 0.135754 -0.0135319
v -0.0839492 0.136836 -0.0135319
v -0.0835704 0.137857 -0.0135319
v -0.0829583 0.138758 -0.0135319
v -0.0821484 0.139486 -0.0135319
v -0.0811878 0.139999 -0.0135319
v -0.0801322 0.140267 -0.0135319
v -0.0790432 0.140275 -0.0135319
v -0.0779839 0.140022 -0.0135319
v -0.0770159 0.139523 -0.0135319
v -0.0750931 0.139798 -0.0091
v -0.0761827 0.140749 -0.0091
v -0.0774683 0.141412 -0.0091
v -0.0788752 0.141748 -0.0091
v -0.0803216 0.141737 -0.0091
v -0.0817235 0.141381 -0.0091
v -0.0829993 0.1407 -0.0091
v -0.084075 0.139733 -0.0091
v -0.084888 0.138536 -0.0091
v -0.085391 0.13718 -0.0091
v -0.0855549 0.135743 -0.0091
v -0.0853701 0.134308 -0.0091
v -0.0848474 0.13296 -0.0091
v -0.0840171 0.131775 -0.0091
v -0.0100259 0.0627799 -0.0153
v -0.010469 0.0634257 -0.0153
v -0.00976507 0.0620414 -0.0153
v -0.00970424 0.0612607 -0.0153
v -0.00984755 0.0604907 -0.0153
v -0.0101853 0.0597841 -0.0153
v -0.0106943 0.059189 -0.0153
v -0.0113401 0.0587459 -0.0153
v -0.0120786 0.0584851 -0.0153
v -0.0127 0.05842 -0.0153
v -0.0128593 0.0584242 -0.0153
v -0.0136293 0.0585676 -0.0153
v -0.0143359 0.0589053 -0.0153
v -0.014931 0.0594143 -0.0153
v -0.0153741 0.0600601 -0.0153
v -0.0156349 0.0607986 -0.0153
v -0.0156958 0.0615793 -0.0153
v -0.0155524 0.0623493 -0.0153
v -0.0152147 0.0630559 -0.0153
v -0.0147057 0.063651 -0.0153
v -0.0140599 0.0640941 -0.0153
v -0.0133214 0.0643549 -0.0153
v -0.0125407 0.0644158 -0.0153
v -0.0117707 0.0642724 -0.0153
v -0.0110641 0.0639347 -0.0153
v -0.0127 0.06142 -0.0153
v -0.0817835 0.134653 -0.0133
v -0.0820009 0.135269 -0.0133
v -0.0820516 0.135919 -0.0133
v -0.0819321 0.136561 -0.0133
v -0.0816507 0.13715 -0.0133
v -0.0812265 0.137646 -0.0133
v -0.0806883 0.138015 -0.0133
v -0.080073 0.138232 -0.0133
v -0.0794223 0.138283 -0.0133
v -0.0787807 0.138164 -0.0133
v -0.0781919 0.137882 -0.0133
v -0.0776959 0.137458 -0.0133
v -0.0773267 0.13692 -0.0133
v -0.0771093 0.136305 -0.0133
v -0.0770586 0.135654 -0.0133
v -0.077178 0.135012 -0.0133
v -0.0774595 0.134423 -0.0133
v -0.0778837 0.133927 -0.0133
v -0.0784218 0.133558 -0.0133
v -0.0790372 0.133341 -0.0133
v -0.0796879 0.13329 -0.0133
v -0.0803295 0.13341 -0.0133
v -0.0809183 0.133691 -0.0133
v -0.0814143 0.134115 -0.0133
v -0.0795551 0.135787 -0.0133
v -0.0687419 0.132733 0.0059
v -0.0687419 0.132733 -0.0059
v -0.0688148 0.132814 -0.00672822
v -0.0688148 0.132814 0.00672822
v -0.0690285 0.133052 0.0075
v -0.0693685 0.13343 0.00816274
v -0.0708812 0.135113 -0.0091
v -0.0703275 0.134497 -0.00899096
v -0.0703275 0.134497 0.00899096
v -0.0698115 0.133923 0.00867128
v -0.0698115 0.133923 -0.00867128
v -0.0693685 0.13343 -0.00816274
v -0.0708812 0.135113 0.0091
v -0.0690285 0.133052 -0.0075
v -0.0702292 0.131396 -0.0059
v -0.0702292 0.131396 0.0059
v -0.0703021 0.131477 0.00672822
v -0.0705158 0.131715 0.0075
v -0.0708558 0.132093 0.00816274
v -0.0712989 0.132586 0.00867128
v -0.0718148 0.13316 0.00899096
v -0.0723686 0.133776 0.0091
v -0.0723686 0.133776 -0.0091
v -0.0718148 0.13316 -0.00899096
v -0.0712989 0.132586 -0.00867128
v -0.0708558 0.132093 -0.00816274
v -0.0705158 0.131715 -0.0075
v -0.0703021 0.131477 -0.00672822
v -0.0725691 0.133999 -0.0091
v -0.0800058 0.127313 -0.0091
v -0.0800058 0.127313 0.0091
v -0.0725691 0.133999 0.0091
v -0.0720385 0.133409 0.0092
v -0.0794751 0.126723 0.0092
v -0.0700286 0.131173 0.0092
v -0.0774653 0.124487 0.0092
v -0.0794751 0.126723 -0.0092
v -0.0720385 0.133409 -0.0092
v -0.0774653 0.124487 -0.0092
v -0.0700286 0.131173 -0.0092
v -0.0753259 0.122108 -0.006
v -0.0753259 0.122108 0.006
v -0.0753988 0.122189 0.00682822
v -0.0753988 0.122189 -0.00682822
v -0.0769116 0.123871 -0.00909096
v -0.0763956 0.123298 0.00877128
v -0.0759525 0.122805 0.00826274
v -0.0763956 0.123298 -0.00877128
v -0.0756125 0.122427 -0.0076
v -0.0759525 0.122805 -0.00826274
v -0.0756125 0.122427 0.0076
v -0.0769116 0.123871 0.00909096
v -0.0694749 0.130557 0.00909096
v -0.0689589 0.129983 0.00877128
v -0.0679622 0.128874 -0.00682822
v -0.0681759 0.129112 -0.0076
v -0.0678893 0.128793 -0.006
v -0.0679622 0.128874 0.00682822
v -0.0685159 0.12949 0.00826274
v -0.0694749 0.130557 -0.00909096
v -0.0678893 0.128793 0.006
v -0.0681759 0.129112 0.0076
v -0.0685159 0.12949 -0.00826274
v -0.0689589 0.129983 -0.00877128
f 606 509 629
f 509 519 629
f 629 519 628
f 519 464 628
f 628 464 627
f 464 473 627
f 627 473 626
f 473 474 626
f 626 474 625
f 474 455 625
f 625 455 624
f 455 454 624
f 624 454 623
f 454 458 623
f 623 458 622
f 458 467 622
f 622 467 621
f 467 466 621
f 621 466 620
f 466 469 620
f 620 469 619
f 469 468 619
f 619 468 618
f 468 475 618
f 618 475 617
f 475 476 617
f 617 476 616
f 476 470 616
f 616 470 615
f 470 471 615
f 615 471 614
f 471 494 614
f 614 494 613
f 494 495 613
f 613 495 612
f 495 478 612
f 612 478 611
f 478 477 611
f 611 477 610
f 477 485 610
f 610 485 609
f 485 486 609
f 609 486 608
f 486 507 608
f 608 507 607
f 507 508 607
f 607 508 606
f 508 509 606
f 1223 1222 923
f 923 1222 916
f 1222 1221 916
f 916 1221 915
f 1221 1220 915
f 915 1220 917
f 1220 1219 917
f 917 1219 914
f 1219 1218 914
f 1218 1217 914
f 914 1217 913
f 1217 1216 913
f 913 1216 912
f 1216 1215 912
f 912 1215 911
f 1215 1214 911
f 911 1214 910
f 1214 1213 910
f 910 1213 909
f 1213 1212 909
f 909 1212 908
f 1212 1211 908
f 908 1211 907
f 1211 1210 907
f 907 1210 906
f 1210 1208 906
f 906 1208 905
f 1208 1209 905
f 905 1209 904
f 1209 1232 904
f 904 1232 927
f 1232 1231 927
f 927 1231 925
f 1231 1230 925
f 925 1230 926
f 1230 1229 926
f 926 1229 928
f 1229 1228 928
f 928 1228 918
f 1228 1227 918
f 918 1227 919
f 1227 1226 919
f 919 1226 921
f 1226 1225 921
f 921 1225 922
f 1225 1224 922
f 922 1224 924
f 1224 1223 924
f 924 1223 920
f 1223 923 920
f 1234 1111 1235
f 1111 1114 1235
f 1235 1114 1236
f 1114 1115 1236
f 1236 1115 1237
f 1115 1093 1237
f 1237 1093 1238
f 1093 1094 1238
f 1238 1094 1239
f 1094 1118 1239
f 1239 1118 1240
f 1118 1097 1240
f 1240 1097 1241
f 1097 1098 1241
f 1241 1098 1242
f 1098 1120 1242
f 1242 1120 1243
f 1120 1101 1243
f 1243 1101 1244
f 1101 1102 1244
f 1244 1102 1245
f 1102 1104 1245
f 1245 1104 1246
f 1104 1121 1246
f 1246 1121 1247
f 1121 1086 1247
f 1247 1086 1248
f 1086 1105 1248
f 1248 1105 1249
f 1105 1106 1249
f 1249 1106 1250
f 1106 1088 1250
f 1250 1088 1251
f 1088 1087 1251
f 1251 1087 1252
f 1087 1089 1252
f 1252 1089 1253
f 1089 1107 1253
f 1253 1107 1254
f 1107 1109 1254
f 1254 1109 1255
f 1109 1108 1255
f 1255 1108 1256
f 1108 1090 1256
f 1256 1090 1257
f 1090 1110 1257
f 1257 1110 1234
f 1110 1111 1234
f 14 27 15
f 27 28 15
f 15 28 16
f 28 29 16
f 16 29 17
f 29 30 17
f 17 30 18
f 30 31 18
f 18 31 19
f 31 32 19
f 19 32 20
f 32 33 20
f 20 33 21
f 33 34 21
f 21 34 22
f 34 35 22
f 22 35 23
f 35 36 23
f 23 36 24
f 36 37 24
f 24 37 1
f 37 38 1
f 1 38 2
f 38 39 2
f 2 39 3
f 39 40 3
f 3 40 4
f 40 41 4
f 4 41 5
f 41 42 5
f 5 42 6
f 42 43 6
f 6 43 7
f 43 44 7
f 7 44 8
f 44 45 8
f 8 45 9
f 45 46 9
f 9 46 10
f 46 47 10
f 10 47 11
f 47 48 11
f 11 48 12
f 48 49 12
f 12 49 13
f 49 26 13
f 13 26 14
f 26 27 14
f 505 527 490
f 527 549 490
f 490 549 491
f 549 548 491
f 491 548 488
f 548 547 488
f 488 547 489
f 547 546 489
f 489 546 479
f 546 545 479
f 479 545 460
f 545 544 460
f 460 544 461
f 544 543 461
f 461 543 484
f 543 542 484
f 484 542 503
f 542 541 503
f 503 541 504
f 541 540 504
f 504 540 501
f 540 539 501
f 501 539 502
f 539 538 502
f 502 538 499
f 538 537 499
f 499 537 500
f 537 536 500
f 500 536 463
f 536 535 463
f 463 535 457
f 535 534 457
f 457 534 456
f 534 533 456
f 456 533 459
f 533 532 459
f 459 532 465
f 532 531 465
f 465 531 510
f 531 530 510
f 510 530 492
f 530 529 492
f 492 529 493
f 529 528 493
f 493 528 506
f 528 526 506
f 506 526 505
f 526 527 505
f 713 734 710
f 734 756 710
f 710 756 711
f 756 755 711
f 711 755 715
f 755 754 715
f 715 754 716
f 754 753 716
f 716 753 707
f 753 752 707
f 707 752 708
f 752 751 708
f 708 751 709
f 751 750 709
f 709 750 714
f 750 749 714
f 714 749 717
f 749 748 717
f 717 748 722
f 748 747 722
f 722 747 727
f 747 746 727
f 727 746 721
f 746 745 721
f 721 745 719
f 745 744 719
f 719 744 720
f 744 743 720
f 720 743 731
f 743 742 731
f 731 742 732
f 742 741 732
f 732 741 725
f 741 740 725
f 725 740 726
f 740 739 726
f 726 739 729
f 739 738 729
f 729 738 730
f 738 737 730
f 730 737 723
f 737 736 723
f 723 736 724
f 736 735 724
f 724 735 728
f 735 733 728
f 728 733 713
f 733 734 713
f 675 704 706
f 706 704 705
f 704 702 705
f 705 702 703
f 702 700 703
f 703 700 701
f 700 698 701
f 701 698 699
f 698 696 699
f 699 696 697
f 696 694 697
f 697 694 695
f 694 692 695
f 695 692 693
f 692 690 693
f 693 690 691
f 690 689 691
f 691 689 644
f 689 688 644
f 644 688 645
f 645 688 643
f 688 687 643
f 643 687 642
f 642 687 639
f 687 685 639
f 639 685 640
f 640 685 646
f 685 686 646
f 646 686 647
f 686 684 647
f 647 684 649
f 649 684 661
f 684 683 661
f 661 683 658
f 658 683 659
f 683 682 659
f 659 682 660
f 660 682 657
f 682 681 657
f 657 681 653
f 653 681 654
f 681 680 654
f 654 680 655
f 655 680 652
f 680 678 652
f 652 678 651
f 651 678 664
f 678 679 664
f 664 679 665
f 679 677 665
f 665 677 663
f 676 674 672
f 672 669 676
f 669 671 676
f 676 671 677
f 671 670 677
f 677 670 663
f 706 673 675
f 673 668 675
f 675 668 674
f 668 667 674
f 674 667 672
f 496 588 587
f 496 587 497
f 588 496 585
f 496 511 585
f 585 511 586
f 586 511 584
f 511 521 584
f 584 521 583
f 521 520 583
f 583 520 582
f 582 520 580
f 520 523 580
f 580 523 581
f 581 523 578
f 523 513 578
f 578 513 579
f 579 513 576
f 513 512 576
f 576 512 577
f 577 512 574
f 512 515 574
f 574 515 575
f 575 515 572
f 515 514 572
f 572 514 573
f 573 514 571
f 514 517 571
f 571 517 570
f 517 516 570
f 570 516 569
f 522 567 516
f 567 568 516
f 516 568 569
f 518 498 563
f 563 564 518
f 564 565 518
f 518 565 522
f 565 566 522
f 522 566 567
f 587 589 497
f 589 559 497
f 497 559 524
f 559 558 524
f 524 558 483
f 558 557 483
f 483 557 472
f 557 554 472
f 472 554 462
f 554 551 462
f 462 551 482
f 551 550 482
f 482 550 480
f 550 552 480
f 480 552 481
f 552 555 481
f 481 555 487
f 555 553 487
f 487 553 525
f 553 561 525
f 525 561 498
f 561 562 498
f 498 562 563
f 1031 1030 1133
f 1134 1032 1031
f 1031 1133 1134
f 1133 1132 1134
f 1134 1132 1135
f 1132 1131 1135
f 1135 1131 1136
f 1131 1130 1136
f 1136 1130 1137
f 1130 1129 1137
f 1137 1129 1138
f 1129 1128 1138
f 1138 1128 1139
f 1128 1127 1139
f 1139 1127 1140
f 1127 1126 1140
f 1140 1126 1141
f 1126 1125 1141
f 1141 1125 1142
f 1125 1124 1142
f 1142 1124 1143
f 1124 1123 1143
f 1143 1123 1144
f 1123 1122 1144
f 1144 1122 1145
f 1122 1073 1076
f 1035 1034 1146
f 1034 1033 1146
f 1122 1076 1145
f 1076 1075 1145
f 1145 1075 1074
f 1074 1147 1145
f 1147 1148 1145
f 1145 1148 1144
f 1148 1149 1144
f 1144 1149 1143
f 1149 1150 1143
f 1143 1150 1142
f 1150 1151 1142
f 1142 1151 1141
f 1151 1152 1141
f 1141 1152 1140
f 1152 1153 1140
f 1140 1153 1139
f 1153 1154 1139
f 1139 1154 1138
f 1154 1155 1138
f 1138 1155 1137
f 1155 1156 1137
f 1137 1156 1136
f 1156 1157 1136
f 1136 1157 1135
f 1157 1146 1135
f 1135 1146 1134
f 1146 1033 1134
f 1134 1033 1032
f 1158 1036 1035
f 1035 1146 1158
f 1146 1157 1158
f 1158 1157 1159
f 1157 1156 1159
f 1159 1156 1160
f 1156 1155 1160
f 1160 1155 1161
f 1155 1154 1161
f 1161 1154 1162
f 1154 1153 1162
f 1162 1153 1163
f 1153 1152 1163
f 1163 1152 1164
f 1152 1151 1164
f 1164 1151 1165
f 1151 1150 1165
f 1165 1150 1166
f 1150 1149 1166
f 1166 1149 1167
f 1149 1148 1167
f 1167 1148 1168
f 1148 1147 1168
f 1168 1147 1169
f 1039 1038 1170
f 1038 1037 1170
f 1074 1078 1147
f 1078 1077 1147
f 1147 1077 1169
f 1077 1080 1169
f 1169 1080 1079
f 1079 1171 1169
f 1171 1172 1169
f 1169 1172 1168
f 1172 1173 1168
f 1168 1173 1167
f 1173 1174 1167
f 1167 1174 1166
f 1174 1175 1166
f 1166 1175 1165
f 1175 1176 1165
f 1165 1176 1164
f 1176 1177 1164
f 1164 1177 1163
f 1177 1178 1163
f 1163 1178 1162
f 1178 1179 1162
f 1162 1179 1161
f 1179 1180 1161
f 1161 1180 1160
f 1180 1181 1160
f 1160 1181 1159
f 1181 1170 1159
f 1159 1170 1158
f 1170 1037 1158
f 1158 1037 1036
f 1041 1040 1182
f 1040 1039 1182
f 1039 1170 1182
f 1170 1181 1182
f 1182 1181 1183
f 1181 1180 1183
f 1183 1180 1184
f 1180 1179 1184
f 1184 1179 1185
f 1179 1178 1185
f 1185 1178 1186
f 1178 1177 1186
f 1186 1177 1187
f 1177 1176 1187
f 1187 1176 1188
f 1176 1175 1188
f 1188 1175 1189
f 1175 1174 1189
f 1189 1174 1190
f 1174 1173 1190
f 1190 1173 1191
f 1173 1172 1191
f 1191 1172 1192
f 1172 1171 1192
f 1192 1171 1193
f 1112 1042 1041
f 1079 1081 1171
f 1081 1082 1171
f 1171 1082 1193
f 1082 1083 1193
f 1193 1083 1084
f 1041 1182 1112
f 1182 1183 1112
f 1112 1183 1113
f 1183 1184 1113
f 1113 1184 1091
f 1184 1185 1091
f 1091 1185 1092
f 1185 1186 1092
f 1092 1186 1116
f 1186 1187 1116
f 1116 1187 1117
f 1187 1188 1117
f 1117 1188 1095
f 1188 1189 1095
f 1095 1189 1096
f 1189 1190 1096
f 1096 1190 1119
f 1190 1191 1119
f 1119 1191 1099
f 1191 1192 1099
f 1099 1192 1100
f 1192 1193 1100
f 1100 1193 1103
f 1193 1084 1103
f 1103 1084 1085
f 500 463 339
f 523 520 294
f 520 521 294
f 294 521 511
f 522 516 251
f 516 517 251
f 251 517 514
f 514 515 251
f 515 512 251
f 251 512 294
f 512 513 294
f 294 513 523
f 491 488 487
f 504 501 483
f 501 502 483
f 483 502 339
f 502 499 339
f 339 499 500
f 487 525 302
f 525 498 302
f 302 498 251
f 498 518 251
f 251 518 522
f 511 496 294
f 496 497 294
f 294 497 339
f 497 524 339
f 339 524 483
f 465 510 302
f 510 492 302
f 302 492 493
f 493 506 302
f 506 505 302
f 302 505 487
f 505 490 487
f 487 490 491
f 488 489 487
f 489 479 487
f 487 479 481
f 461 484 483
f 484 503 483
f 483 503 504
f 339 509 340
f 509 508 340
f 340 508 341
f 508 507 341
f 341 507 342
f 507 486 342
f 342 486 343
f 486 485 343
f 343 485 344
f 485 477 344
f 344 477 345
f 477 478 345
f 463 455 474
f 475 302 476
f 302 351 476
f 476 351 470
f 351 350 470
f 470 350 471
f 350 349 471
f 471 349 494
f 349 348 494
f 494 348 495
f 348 347 495
f 495 347 478
f 347 346 478
f 478 346 345
f 475 468 302
f 468 469 302
f 302 469 465
f 469 466 465
f 474 473 463
f 473 464 463
f 463 464 339
f 464 519 339
f 339 519 509
f 483 472 461
f 472 462 461
f 461 462 460
f 462 482 460
f 460 482 479
f 482 480 479
f 479 480 481
f 466 467 465
f 467 458 465
f 465 458 459
f 458 454 459
f 459 454 456
f 454 455 456
f 456 455 457
f 455 463 457
f 1300 1319 1299
f 1319 1315 1299
f 1292 1291 1294
f 1291 1293 1294
f 1296 1295 1298
f 1295 1297 1298
f 786 772 764
f 786 764 785
f 764 762 785
f 785 762 784
f 762 761 784
f 784 761 783
f 761 760 783
f 783 760 782
f 760 759 782
f 782 759 781
f 759 763 781
f 781 763 780
f 763 769 780
f 780 769 779
f 769 766 779
f 779 766 778
f 766 765 778
f 778 765 777
f 765 771 777
f 777 771 776
f 771 770 776
f 776 770 775
f 770 768 775
f 775 768 774
f 768 767 774
f 774 767 773
f 1030 1207 1206
f 1030 1206 1133
f 1206 1205 1133
f 1133 1205 1132
f 1205 1204 1132
f 1132 1204 1131
f 1204 1203 1131
f 1131 1203 1130
f 1203 1202 1130
f 1130 1202 1129
f 1202 1201 1129
f 1129 1201 1128
f 1201 1200 1128
f 1128 1200 1127
f 1200 1199 1127
f 1127 1199 1126
f 1199 1198 1126
f 1126 1198 1125
f 1198 1197 1125
f 1125 1197 1124
f 1197 1196 1124
f 1124 1196 1123
f 1196 1195 1123
f 1123 1195 1122
f 1195 1194 1122
f 1122 1194 1073
f 449 329 352
f 449 352 448
f 352 353 448
f 448 353 447
f 353 354 447
f 447 354 446
f 354 355 446
f 446 355 445
f 355 356 445
f 445 356 444
f 356 357 444
f 444 357 443
f 357 358 443
f 443 358 442
f 358 359 442
f 442 359 441
f 359 360 441
f 441 360 440
f 360 361 440
f 440 361 439
f 361 362 439
f 439 362 438
f 362 363 438
f 438 363 437
f 363 295 437
f 437 295 436
f 1288 1207 1030
f 82 216 1289
f 1289 1292 82
f 1292 1294 82
f 82 1294 169
f 1294 1310 169
f 169 1310 1304
f 1306 983 1308
f 983 1307 1308
f 1304 1305 169
f 1305 1309 169
f 169 1309 1301
f 451 436 295
f 184 185 596
f 1306 1303 983
f 1303 1297 983
f 983 1297 1030
f 1297 1295 1030
f 1030 1295 1288
f 185 633 605
f 592 601 237
f 605 603 185
f 603 598 185
f 185 598 596
f 186 982 185
f 982 984 185
f 185 984 633
f 984 985 633
f 633 985 635
f 184 596 233
f 596 594 233
f 233 594 234
f 601 602 237
f 602 560 237
f 237 560 295
f 560 452 295
f 295 452 451
f 767 758 773
f 758 712 773
f 773 712 883
f 712 641 883
f 883 641 638
f 592 237 594
f 237 235 594
f 594 235 234
f 638 648 883
f 648 656 883
f 883 656 937
f 656 637 937
f 186 187 982
f 187 169 982
f 982 169 983
f 985 940 635
f 940 939 635
f 635 939 637
f 939 938 637
f 637 938 937
f 1301 1300 169
f 1300 1299 169
f 169 1299 983
f 1299 1302 983
f 983 1302 1307
f 216 82 83
f 216 83 215
f 83 84 215
f 215 84 214
f 84 85 214
f 214 85 213
f 85 86 213
f 213 86 212
f 86 87 212
f 212 87 211
f 87 88 211
f 211 88 210
f 88 89 210
f 210 89 209
f 89 90 209
f 209 90 208
f 90 91 208
f 208 91 207
f 91 92 207
f 207 92 206
f 92 93 206
f 206 93 205
f 93 94 205
f 205 94 204
f 94 96 204
f 204 96 203
f 1272 1261 1057
f 1272 1057 1270
f 217 1267 96
f 1267 1271 96
f 96 1271 203
f 1194 1265 1073
f 1265 1266 1073
f 1073 1266 1057
f 1266 1269 1057
f 1057 1269 1270
f 1263 1264 217
f 1264 1268 217
f 217 1268 1267
f 757 772 786
f 273 593 595
f 595 597 273
f 597 604 273
f 273 604 272
f 217 271 1057
f 449 450 329
f 450 453 329
f 329 453 304
f 453 556 304
f 304 556 599
f 599 600 304
f 600 591 304
f 304 591 305
f 591 590 305
f 604 631 1052
f 631 632 1052
f 1052 632 1003
f 891 636 650
f 273 275 593
f 275 307 593
f 593 307 590
f 307 306 590
f 590 306 305
f 604 1052 272
f 1052 1053 272
f 272 1053 271
f 1053 1054 271
f 271 1054 1057
f 1003 632 1004
f 632 634 1004
f 1004 634 1005
f 636 891 634
f 891 1006 634
f 634 1006 1005
f 1261 1260 1057
f 1260 1259 1057
f 1057 1259 217
f 1259 1262 217
f 217 1262 1263
f 650 662 891
f 662 666 891
f 891 666 786
f 666 718 786
f 786 718 757
f 747 688 746
f 688 689 746
f 890 684 686
f 747 748 688
f 748 749 688
f 688 749 750
f 681 682 890
f 682 683 890
f 890 683 684
f 754 755 890
f 755 756 890
f 890 756 734
f 689 690 746
f 690 692 746
f 746 692 694
f 681 890 680
f 890 903 680
f 680 903 678
f 927 925 736
f 925 926 736
f 686 685 890
f 685 687 890
f 890 687 688
f 676 677 903
f 677 679 903
f 903 679 678
f 750 751 688
f 751 752 688
f 688 752 890
f 752 753 890
f 890 753 754
f 734 919 890
f 919 921 890
f 890 921 922
f 922 924 890
f 924 920 890
f 890 920 822
f 694 696 746
f 696 698 746
f 746 698 745
f 698 700 745
f 745 700 702
f 926 928 736
f 928 918 736
f 736 918 735
f 918 919 735
f 735 919 733
f 919 734 733
f 927 736 904
f 736 737 904
f 904 737 738
f 808 742 743
f 743 744 808
f 744 745 808
f 808 745 903
f 702 704 745
f 704 675 745
f 745 675 903
f 675 674 903
f 903 674 676
f 920 923 822
f 923 916 822
f 822 916 819
f 916 915 819
f 819 915 818
f 915 917 818
f 818 917 817
f 917 914 817
f 817 914 816
f 914 913 816
f 816 913 815
f 913 912 815
f 815 912 814
f 912 911 814
f 814 911 813
f 911 910 813
f 813 910 812
f 812 910 811
f 910 909 811
f 811 909 810
f 909 908 810
f 810 908 809
f 908 907 809
f 809 907 807
f 907 906 807
f 807 906 808
f 906 905 808
f 808 905 904
f 738 739 904
f 739 740 904
f 904 740 808
f 740 741 808
f 808 741 742
f 1287 1281 1265
f 1265 1194 1287
f 1194 1207 1287
f 1287 1207 1288
f 1202 1203 1194
f 1203 1204 1194
f 1195 1196 1200
f 1196 1197 1200
f 1200 1197 1199
f 1197 1198 1199
f 1195 1200 1194
f 1200 1201 1194
f 1194 1201 1202
f 1204 1205 1194
f 1205 1206 1194
f 1194 1206 1207
f 1271 1280 203
f 1280 1290 203
f 1290 1289 203
f 1289 216 203
f 203 216 215
f 203 212 211
f 215 214 203
f 214 213 203
f 203 213 212
f 205 204 209
f 204 203 209
f 209 203 210
f 203 211 210
f 205 209 206
f 209 208 206
f 206 208 207
f 757 758 772
f 758 767 772
f 772 767 764
f 767 768 764
f 764 768 770
f 770 771 764
f 771 765 764
f 764 765 766
f 766 769 764
f 769 763 764
f 764 763 762
f 763 759 762
f 762 759 761
f 759 760 761
f 605 604 603
f 604 597 603
f 436 451 450
f 441 440 448
f 440 439 448
f 448 439 438
f 447 446 445
f 450 449 436
f 449 448 436
f 436 448 437
f 448 438 437
f 445 444 447
f 444 443 447
f 447 443 448
f 443 442 448
f 448 442 441
f 1042 1112 1111
f 1088 1106 1029
f 1094 1117 1118
f 1117 1095 1118
f 1118 1095 1097
f 1095 1096 1097
f 1097 1096 1098
f 1096 1119 1098
f 1098 1119 1120
f 1119 1099 1120
f 1120 1099 1101
f 1099 1100 1101
f 1101 1100 1102
f 1100 1103 1102
f 1102 1103 1104
f 1103 1085 1104
f 1111 1112 1114
f 1112 1113 1114
f 1114 1113 1115
f 1113 1091 1115
f 1115 1091 1093
f 1091 1092 1093
f 1093 1092 1094
f 1092 1116 1094
f 1094 1116 1117
f 1111 1110 1042
f 1110 1090 1042
f 1042 1090 986
f 1090 1108 986
f 986 1108 1109
f 1109 1107 986
f 1107 1089 986
f 986 1089 1029
f 1089 1087 1029
f 1029 1087 1088
f 1106 1105 1029
f 1105 1086 1029
f 1029 1086 1085
f 1086 1121 1085
f 1085 1121 1104
f 26 49 62
f 62 49 61
f 49 48 61
f 48 47 61
f 61 47 46
f 42 41 54
f 41 40 54
f 54 40 60
f 46 45 61
f 45 44 61
f 61 44 54
f 44 43 54
f 54 43 42
f 40 39 60
f 39 38 60
f 60 38 59
f 38 37 59
f 59 37 58
f 37 36 58
f 58 36 63
f 36 35 63
f 63 35 57
f 35 34 57
f 57 34 56
f 34 33 56
f 56 33 53
f 33 32 53
f 26 62 27
f 62 64 27
f 27 64 28
f 64 65 28
f 28 65 29
f 65 50 29
f 29 50 30
f 50 51 30
f 30 51 31
f 51 52 31
f 31 52 32
f 52 55 32
f 32 55 53
f 553 452 561
f 452 560 561
f 561 560 562
f 534 535 453
f 541 556 540
f 556 539 540
f 541 542 557
f 542 543 557
f 557 543 554
f 541 557 556
f 557 558 556
f 556 558 559
f 547 553 546
f 553 545 546
f 529 452 528
f 452 526 528
f 534 453 533
f 535 536 453
f 536 537 453
f 453 537 556
f 537 538 556
f 556 538 539
f 547 548 553
f 548 549 553
f 553 549 452
f 549 527 452
f 452 527 526
f 529 530 452
f 530 531 452
f 452 531 453
f 531 532 453
f 453 532 533
f 553 555 545
f 555 552 545
f 545 552 544
f 552 550 544
f 544 550 543
f 550 551 543
f 543 551 554
f 720 731 718
f 712 693 641
f 693 691 641
f 641 691 644
f 712 729 730
f 731 732 718
f 732 725 718
f 718 725 712
f 725 726 712
f 712 726 729
f 730 723 712
f 723 724 712
f 712 724 728
f 666 717 722
f 722 727 666
f 727 721 666
f 666 721 718
f 721 719 718
f 718 719 720
f 715 716 693
f 716 707 693
f 693 707 695
f 709 714 705
f 714 717 705
f 705 717 706
f 717 666 706
f 706 666 673
f 728 713 712
f 713 710 712
f 712 710 693
f 710 711 693
f 693 711 715
f 705 703 709
f 703 701 709
f 709 701 708
f 701 699 708
f 708 699 707
f 699 697 707
f 707 697 695
f 1259 1260 1274
f 1260 1273 1274
f 1290 1280 1291
f 1280 1279 1291
f 1291 1279 1293
f 1322 1321 1285
f 1321 1286 1285
f 1284 1298 1285
f 1298 1318 1285
f 1285 1318 1322
f 1276 1275 1317
f 1274 1316 1275
f 1316 1320 1275
f 1275 1320 1317
f 1321 1314 1286
f 1314 1313 1286
f 1286 1313 1273
f 1313 1315 1273
f 1273 1315 1274
f 1315 1319 1274
f 1274 1319 1316
f 1284 1283 1298
f 1283 1282 1298
f 1298 1282 1296
f 1282 1281 1296
f 1296 1281 1287
f 1279 1278 1293
f 1278 1277 1293
f 1293 1277 1311
f 1277 1276 1311
f 1311 1276 1312
f 1276 1317 1312
f 1289 1290 1292
f 1290 1291 1292
f 1085 1084 1029
f 1084 1043 1029
f 1043 1084 1045
f 1084 1083 1045
f 1045 1083 1044
f 1083 1082 1044
f 1044 1082 1047
f 1082 1081 1047
f 1047 1081 1046
f 1081 1079 1046
f 1046 1079 1049
f 1079 1080 1049
f 1049 1080 1048
f 1080 1077 1048
f 1048 1077 1051
f 1077 1078 1051
f 1051 1078 1050
f 1078 1074 1050
f 1050 1074 1056
f 1074 1075 1056
f 1056 1075 1055
f 1075 1076 1055
f 1076 1073 1055
f 1055 1073 1057
f 1057 1054 1055
f 1054 1058 1055
f 1055 1058 1056
f 1056 1058 1050
f 1058 1059 1050
f 1050 1059 1051
f 1051 1059 1048
f 1059 1060 1048
f 1048 1060 1049
f 1049 1060 1046
f 1060 1061 1046
f 1046 1061 1047
f 1047 1061 1044
f 1061 1062 1044
f 1044 1062 1045
f 1045 1062 1043
f 1062 1028 1043
f 1043 1028 1029
f 1054 1053 1058
f 1053 1063 1058
f 1058 1063 1059
f 1063 1064 1059
f 1059 1064 1060
f 1064 1065 1060
f 1060 1065 1061
f 1065 1066 1061
f 1061 1066 1062
f 1066 1067 1062
f 1062 1067 1028
f 1067 1027 1028
f 1053 1052 1063
f 1052 1068 1063
f 1063 1068 1064
f 1068 1069 1064
f 1064 1069 1065
f 1069 1070 1065
f 1065 1070 1066
f 1070 1071 1066
f 1066 1071 1067
f 1071 1072 1067
f 1067 1072 1027
f 1072 1026 1027
f 1052 1003 1068
f 1003 1002 1068
f 1068 1002 1069
f 1002 1007 1069
f 1069 1007 1070
f 1007 1008 1070
f 1070 1008 1071
f 1008 1009 1071
f 1071 1009 1072
f 1009 1010 1072
f 1072 1010 1026
f 1010 936 1026
f 302 301 364
f 301 300 365
f 300 299 366
f 298 297 367
f 296 295 363
f 296 363 368
f 363 362 368
f 368 362 369
f 362 361 369
f 369 361 370
f 361 360 370
f 370 360 371
f 360 359 371
f 371 359 372
f 359 358 372
f 372 358 373
f 358 357 373
f 373 357 374
f 357 356 374
f 374 356 375
f 356 355 375
f 375 355 376
f 355 354 376
f 376 354 377
f 354 353 377
f 377 353 378
f 353 352 378
f 378 352 379
f 352 329 379
f 329 328 379
f 379 328 327
f 327 380 379
f 380 381 379
f 379 381 378
f 381 382 378
f 378 382 377
f 382 383 377
f 377 383 376
f 383 384 376
f 376 384 375
f 384 385 375
f 375 385 374
f 385 386 374
f 374 386 373
f 386 387 373
f 373 387 372
f 387 388 372
f 372 388 371
f 388 389 371
f 371 389 370
f 389 390 370
f 370 390 369
f 390 367 369
f 369 367 368
f 367 297 368
f 368 297 296
f 298 367 391
f 367 390 391
f 391 390 392
f 390 389 392
f 392 389 393
f 389 388 393
f 393 388 394
f 388 387 394
f 394 387 395
f 387 386 395
f 395 386 396
f 386 385 396
f 396 385 397
f 385 384 397
f 397 384 398
f 384 383 398
f 398 383 399
f 383 382 399
f 399 382 400
f 382 381 400
f 400 381 401
f 381 380 401
f 401 380 402
f 327 331 380
f 331 330 380
f 380 330 402
f 330 332 402
f 402 332 333
f 333 403 402
f 403 404 402
f 402 404 401
f 404 405 401
f 401 405 400
f 405 406 400
f 400 406 399
f 406 407 399
f 399 407 398
f 407 408 398
f 398 408 397
f 408 409 397
f 397 409 396
f 409 410 396
f 396 410 395
f 410 411 395
f 395 411 394
f 411 412 394
f 394 412 393
f 412 413 393
f 393 413 392
f 413 366 392
f 392 366 391
f 366 299 391
f 391 299 298
f 300 366 365
f 366 413 365
f 365 413 414
f 413 412 414
f 414 412 415
f 412 411 415
f 415 411 416
f 411 410 416
f 416 410 417
f 410 409 417
f 417 409 418
f 409 408 418
f 418 408 419
f 408 407 419
f 419 407 420
f 407 406 420
f 420 406 421
f 406 405 421
f 421 405 422
f 405 404 422
f 422 404 423
f 404 403 423
f 423 403 424
f 333 334 403
f 334 335 403
f 403 335 424
f 335 336 424
f 424 336 337
f 301 365 364
f 365 414 364
f 364 414 425
f 414 415 425
f 425 415 426
f 415 416 426
f 426 416 427
f 416 417 427
f 427 417 428
f 417 418 428
f 428 418 429
f 418 419 429
f 429 419 430
f 419 420 430
f 430 420 431
f 420 421 431
f 431 421 432
f 421 422 432
f 432 422 433
f 422 423 433
f 433 423 434
f 423 424 434
f 434 424 435
f 424 337 435
f 435 337 338
f 302 364 351
f 364 425 351
f 351 425 350
f 425 426 350
f 350 426 349
f 426 427 349
f 349 427 348
f 427 428 348
f 348 428 347
f 428 429 347
f 347 429 346
f 429 430 346
f 346 430 345
f 430 431 345
f 345 431 344
f 431 432 344
f 344 432 343
f 432 433 343
f 343 433 342
f 433 434 342
f 342 434 341
f 434 435 341
f 341 435 340
f 435 338 340
f 340 338 339
f 300 301 249
f 301 302 249
f 249 302 251
f 249 250 300
f 250 244 300
f 300 244 299
f 244 245 299
f 245 242 299
f 242 243 299
f 299 243 298
f 243 240 298
f 240 241 298
f 298 241 297
f 241 238 297
f 238 239 297
f 297 239 296
f 239 236 296
f 236 237 296
f 296 237 295
f 339 338 294
f 338 311 294
f 338 337 311
f 337 336 311
f 311 336 310
f 336 335 310
f 335 334 310
f 310 334 309
f 334 333 309
f 333 332 309
f 309 332 308
f 332 330 308
f 308 330 303
f 330 331 303
f 331 327 303
f 303 327 304
f 327 328 304
f 304 328 329
f 251 248 249
f 248 252 249
f 249 252 250
f 250 252 244
f 252 253 244
f 244 253 245
f 245 253 242
f 253 254 242
f 242 254 243
f 243 254 240
f 254 255 240
f 240 255 241
f 241 255 238
f 255 256 238
f 238 256 239
f 239 256 236
f 256 235 236
f 236 235 237
f 248 247 252
f 247 257 252
f 252 257 253
f 257 258 253
f 253 258 254
f 258 259 254
f 254 259 255
f 259 260 255
f 255 260 256
f 260 261 256
f 256 261 235
f 261 234 235
f 247 246 257
f 246 262 257
f 257 262 258
f 262 263 258
f 258 263 259
f 263 264 259
f 259 264 260
f 264 265 260
f 260 265 261
f 265 266 261
f 261 266 234
f 266 233 234
f 246 176 262
f 176 175 262
f 262 175 263
f 175 180 263
f 263 180 264
f 180 181 264
f 264 181 265
f 181 182 265
f 265 182 266
f 182 183 266
f 266 183 233
f 183 184 233
f 232 291 267
f 291 312 267
f 267 312 268
f 312 313 268
f 268 313 269
f 313 314 269
f 269 314 270
f 314 315 270
f 270 315 274
f 315 316 274
f 274 316 275
f 316 307 275
f 291 292 312
f 292 317 312
f 312 317 313
f 317 318 313
f 313 318 314
f 318 319 314
f 314 319 315
f 319 320 315
f 315 320 316
f 320 321 316
f 316 321 307
f 321 306 307
f 292 293 317
f 293 322 317
f 317 322 318
f 322 323 318
f 318 323 319
f 323 324 319
f 319 324 320
f 324 325 320
f 320 325 321
f 325 326 321
f 321 326 306
f 326 305 306
f 293 294 322
f 294 311 322
f 322 311 323
f 311 310 323
f 323 310 324
f 310 309 324
f 324 309 325
f 309 308 325
f 325 308 326
f 308 303 326
f 326 303 305
f 303 304 305
f 169 187 170
f 187 188 170
f 170 188 171
f 188 189 171
f 171 189 172
f 189 190 172
f 172 190 173
f 190 191 173
f 173 191 174
f 191 192 174
f 174 192 54
f 192 179 54
f 187 186 188
f 186 193 188
f 188 193 189
f 193 194 189
f 189 194 190
f 194 195 190
f 190 195 191
f 195 196 191
f 191 196 192
f 196 197 192
f 192 197 179
f 197 178 179
f 186 185 193
f 185 198 193
f 193 198 194
f 198 199 194
f 194 199 195
f 199 200 195
f 195 200 196
f 200 201 196
f 196 201 197
f 201 202 197
f 197 202 178
f 202 177 178
f 185 184 198
f 184 183 198
f 198 183 199
f 183 182 199
f 199 182 200
f 182 181 200
f 200 181 201
f 181 180 201
f 201 180 202
f 180 175 202
f 202 175 177
f 175 176 177
f 217 228 271
f 228 276 271
f 228 218 276
f 218 219 276
f 276 219 277
f 219 220 277
f 220 221 277
f 277 221 278
f 221 223 278
f 223 222 278
f 278 222 279
f 275 273 274
f 273 280 274
f 274 280 270
f 280 281 270
f 270 281 269
f 281 282 269
f 269 282 268
f 282 283 268
f 268 283 267
f 283 284 267
f 267 284 232
f 273 272 280
f 272 285 280
f 280 285 281
f 285 286 281
f 281 286 282
f 286 287 282
f 282 287 283
f 287 288 283
f 283 288 284
f 288 289 284
f 272 271 285
f 271 276 285
f 285 276 286
f 276 277 286
f 286 277 287
f 277 278 287
f 287 278 288
f 278 279 288
f 288 279 289
f 279 290 289
f 222 225 279
f 225 224 279
f 279 224 290
f 224 227 290
f 290 227 226
f 232 284 231
f 284 289 231
f 231 289 230
f 289 290 230
f 230 290 229
f 290 226 229
f 229 226 61
f 60 66 54
f 66 174 54
f 66 67 174
f 67 68 174
f 174 68 173
f 68 70 173
f 70 71 173
f 173 71 172
f 71 73 172
f 172 73 171
f 73 74 171
f 74 76 171
f 171 76 170
f 76 77 170
f 77 79 170
f 170 79 169
f 79 80 169
f 169 80 82
f 1216 1217 1233
f 1213 1214 1233
f 1214 1215 1233
f 1233 1215 1216
f 1210 1211 1233
f 1211 1212 1233
f 1233 1212 1213
f 1232 1209 1233
f 1209 1208 1233
f 1233 1208 1210
f 1229 1230 1233
f 1230 1231 1233
f 1233 1231 1232
f 1226 1227 1233
f 1227 1228 1233
f 1233 1228 1229
f 1223 1224 1233
f 1224 1225 1233
f 1233 1225 1226
f 1220 1221 1233
f 1221 1222 1233
f 1233 1222 1223
f 1217 1218 1233
f 1218 1219 1233
f 1233 1219 1220
f 609 608 630
f 608 607 630
f 630 607 606
f 612 611 630
f 611 610 630
f 630 610 609
f 615 614 630
f 614 613 630
f 630 613 612
f 618 617 630
f 617 616 630
f 630 616 615
f 621 620 630
f 620 619 630
f 630 619 618
f 624 623 630
f 623 622 630
f 630 622 621
f 627 626 630
f 626 625 630
f 630 625 624
f 606 629 630
f 629 628 630
f 630 628 627
f 1254 1255 1258
f 1255 1256 1258
f 1258 1256 1257
f 1251 1252 1258
f 1252 1253 1258
f 1258 1253 1254
f 1248 1249 1258
f 1249 1250 1258
f 1258 1250 1251
f 1245 1246 1258
f 1246 1247 1258
f 1258 1247 1248
f 1242 1243 1258
f 1243 1244 1258
f 1258 1244 1245
f 1239 1240 1258
f 1240 1241 1258
f 1258 1241 1242
f 1236 1237 1258
f 1237 1238 1258
f 1258 1238 1239
f 1257 1234 1258
f 1234 1235 1258
f 1258 1235 1236
f 22 23 25
f 23 24 25
f 25 24 1
f 19 20 25
f 20 21 25
f 25 21 22
f 16 17 25
f 17 18 25
f 25 18 19
f 13 14 25
f 14 15 25
f 25 15 16
f 10 11 25
f 11 12 25
f 25 12 13
f 7 8 25
f 8 9 25
f 25 9 10
f 4 5 25
f 5 6 25
f 25 6 7
f 1 2 25
f 2 3 25
f 25 3 4
f 62 69 97
f 69 72 98
f 72 75 99
f 78 81 100
f 95 96 94
f 95 94 101
f 94 93 101
f 101 93 102
f 93 92 102
f 102 92 103
f 92 91 103
f 103 91 104
f 91 90 104
f 104 90 105
f 90 89 105
f 105 89 106
f 89 88 106
f 106 88 107
f 88 87 107
f 107 87 108
f 87 86 108
f 108 86 109
f 86 85 109
f 109 85 110
f 85 84 110
f 110 84 111
f 84 83 111
f 111 83 112
f 83 82 112
f 82 80 112
f 112 80 79
f 79 113 112
f 113 114 112
f 112 114 111
f 114 115 111
f 111 115 110
f 115 116 110
f 110 116 109
f 116 117 109
f 109 117 108
f 117 118 108
f 108 118 107
f 118 119 107
f 107 119 106
f 119 120 106
f 106 120 105
f 120 121 105
f 105 121 104
f 121 122 104
f 104 122 103
f 122 123 103
f 103 123 102
f 123 100 102
f 102 100 101
f 100 81 101
f 101 81 95
f 78 100 124
f 100 123 124
f 124 123 125
f 123 122 125
f 125 122 126
f 122 121 126
f 126 121 127
f 121 120 127
f 127 120 128
f 120 119 128
f 128 119 129
f 119 118 129
f 129 118 130
f 118 117 130
f 130 117 131
f 117 116 131
f 131 116 132
f 116 115 132
f 132 115 133
f 115 114 133
f 133 114 134
f 114 113 134
f 134 113 135
f 79 77 113
f 77 76 113
f 113 76 135
f 76 74 135
f 135 74 73
f 73 136 135
f 136 137 135
f 135 137 134
f 137 138 134
f 134 138 133
f 138 139 133
f 133 139 132
f 139 140 132
f 132 140 131
f 140 141 131
f 131 141 130
f 141 142 130
f 130 142 129
f 142 143 129
f 129 143 128
f 143 144 128
f 128 144 127
f 144 145 127
f 127 145 126
f 145 146 126
f 126 146 125
f 146 99 125
f 125 99 124
f 99 75 124
f 124 75 78
f 72 99 98
f 99 146 98
f 98 146 147
f 146 145 147
f 147 145 148
f 145 144 148
f 148 144 149
f 144 143 149
f 149 143 150
f 143 142 150
f 150 142 151
f 142 141 151
f 151 141 152
f 141 140 152
f 152 140 153
f 140 139 153
f 153 139 154
f 139 138 154
f 154 138 155
f 138 137 155
f 155 137 156
f 137 136 156
f 156 136 157
f 73 71 136
f 71 70 136
f 136 70 157
f 70 68 157
f 157 68 67
f 69 98 97
f 98 147 97
f 97 147 158
f 147 148 158
f 158 148 159
f 148 149 159
f 159 149 160
f 149 150 160
f 160 150 161
f 150 151 161
f 161 151 162
f 151 152 162
f 162 152 163
f 152 153 163
f 163 153 164
f 153 154 164
f 164 154 165
f 154 155 165
f 165 155 166
f 155 156 166
f 166 156 167
f 156 157 167
f 167 157 168
f 157 67 168
f 168 67 66
f 62 97 64
f 97 158 64
f 64 158 65
f 158 159 65
f 65 159 50
f 159 160 50
f 50 160 51
f 160 161 51
f 51 161 52
f 161 162 52
f 52 162 55
f 162 163 55
f 55 163 53
f 163 164 53
f 53 164 56
f 164 165 56
f 56 165 57
f 165 166 57
f 57 166 63
f 166 167 63
f 63 167 58
f 167 168 58
f 58 168 59
f 168 66 59
f 59 66 60
f 72 69 226
f 69 62 226
f 226 62 61
f 226 227 72
f 227 224 72
f 72 224 75
f 224 225 75
f 225 222 75
f 75 222 78
f 222 223 78
f 223 221 78
f 221 220 78
f 78 220 81
f 220 219 81
f 219 218 81
f 81 218 95
f 218 228 95
f 228 217 95
f 95 217 96
f 903 930 902
f 930 1011 902
f 902 1011 901
f 901 1011 899
f 1011 1012 899
f 899 1012 900
f 900 1012 897
f 1012 1013 897
f 897 1013 898
f 898 1013 895
f 1013 1014 895
f 895 1014 896
f 896 1014 892
f 1014 1015 892
f 892 1015 893
f 893 1015 894
f 1015 1006 894
f 894 1006 891
f 930 932 1011
f 932 1016 1011
f 1011 1016 1012
f 1016 1017 1012
f 1012 1017 1013
f 1017 1018 1013
f 1013 1018 1014
f 1018 1019 1014
f 1014 1019 1015
f 1019 1020 1015
f 1015 1020 1006
f 1020 1005 1006
f 932 934 1016
f 934 1021 1016
f 1016 1021 1017
f 1021 1022 1017
f 1017 1022 1018
f 1022 1023 1018
f 1018 1023 1019
f 1023 1024 1019
f 1019 1024 1020
f 1024 1025 1020
f 1020 1025 1005
f 1025 1004 1005
f 934 936 1021
f 936 1010 1021
f 1021 1010 1022
f 1010 1009 1022
f 1022 1009 1023
f 1009 1008 1023
f 1023 1008 1024
f 1008 1007 1024
f 1024 1007 1025
f 1007 1002 1025
f 1025 1002 1004
f 1002 1003 1004
f 903 902 808
f 902 806 808
f 806 902 803
f 902 901 803
f 803 901 802
f 901 899 802
f 802 899 799
f 899 900 799
f 799 900 798
f 900 897 798
f 798 897 795
f 897 898 795
f 795 898 794
f 898 895 794
f 794 895 791
f 895 896 791
f 791 896 790
f 896 892 790
f 790 892 788
f 892 893 788
f 788 893 787
f 893 894 787
f 894 891 787
f 787 891 786
f 986 969 1042
f 969 1041 1042
f 1041 969 1040
f 969 970 1040
f 1040 970 1039
f 970 973 1039
f 1039 973 1038
f 973 974 1038
f 1038 974 1037
f 974 975 1037
f 1037 975 1036
f 975 976 1036
f 1036 976 1035
f 976 977 1035
f 1035 977 1034
f 977 978 1034
f 1034 978 1033
f 978 979 1033
f 1033 979 1032
f 979 980 1032
f 1032 980 1031
f 980 981 1031
f 981 983 1031
f 1031 983 1030
f 820 822 819
f 823 821 820
f 820 819 823
f 819 818 823
f 823 818 824
f 818 817 824
f 824 817 825
f 817 816 825
f 825 816 826
f 816 815 826
f 826 815 827
f 815 814 827
f 827 814 828
f 814 813 828
f 828 813 829
f 813 812 829
f 829 812 830
f 812 811 830
f 830 811 831
f 811 810 831
f 831 810 832
f 810 809 832
f 832 809 833
f 809 807 833
f 833 807 834
f 807 808 806
f 800 805 835
f 805 804 835
f 807 806 834
f 806 803 834
f 834 803 802
f 802 836 834
f 836 837 834
f 834 837 833
f 837 838 833
f 833 838 832
f 838 839 832
f 832 839 831
f 839 840 831
f 831 840 830
f 840 841 830
f 830 841 829
f 841 842 829
f 829 842 828
f 842 843 828
f 828 843 827
f 843 844 827
f 827 844 826
f 844 845 826
f 826 845 825
f 845 846 825
f 825 846 824
f 846 835 824
f 824 835 823
f 835 804 823
f 823 804 821
f 847 801 800
f 800 835 847
f 835 846 847
f 847 846 848
f 846 845 848
f 848 845 849
f 845 844 849
f 849 844 850
f 844 843 850
f 850 843 851
f 843 842 851
f 851 842 852
f 842 841 852
f 852 841 853
f 841 840 853
f 853 840 854
f 840 839 854
f 854 839 855
f 839 838 855
f 855 838 856
f 838 837 856
f 856 837 857
f 837 836 857
f 857 836 858
f 792 797 859
f 797 796 859
f 802 799 836
f 799 798 836
f 836 798 858
f 798 795 858
f 858 795 794
f 794 860 858
f 860 861 858
f 858 861 857
f 861 862 857
f 857 862 856
f 862 863 856
f 856 863 855
f 863 864 855
f 855 864 854
f 864 865 854
f 854 865 853
f 865 866 853
f 853 866 852
f 866 867 852
f 852 867 851
f 867 868 851
f 851 868 850
f 868 869 850
f 850 869 849
f 869 870 849
f 849 870 848
f 870 859 848
f 848 859 847
f 859 796 847
f 847 796 801
f 789 793 871
f 793 792 871
f 792 859 871
f 859 870 871
f 871 870 872
f 870 869 872
f 872 869 873
f 869 868 873
f 873 868 874
f 868 867 874
f 874 867 875
f 867 866 875
f 875 866 876
f 866 865 876
f 876 865 877
f 865 864 877
f 877 864 878
f 864 863 878
f 878 863 879
f 863 862 879
f 879 862 880
f 862 861 880
f 880 861 881
f 861 860 881
f 881 860 882
f 774 773 789
f 794 791 860
f 791 790 860
f 860 790 882
f 790 788 882
f 882 788 787
f 789 871 774
f 871 872 774
f 774 872 775
f 872 873 775
f 775 873 776
f 873 874 776
f 776 874 777
f 874 875 777
f 777 875 778
f 875 876 778
f 778 876 779
f 876 877 779
f 779 877 780
f 877 878 780
f 780 878 781
f 878 879 781
f 781 879 782
f 879 880 782
f 782 880 783
f 880 881 783
f 783 881 784
f 881 882 784
f 784 882 785
f 882 787 785
f 785 787 786
f 948 987 988
f 983 981 982
f 981 989 982
f 940 985 942
f 985 990 942
f 942 990 941
f 990 991 941
f 941 991 943
f 981 980 989
f 980 979 989
f 989 979 992
f 979 978 992
f 978 977 992
f 992 977 993
f 987 948 994
f 948 946 994
f 946 944 994
f 994 944 991
f 944 945 991
f 991 945 943
f 977 976 993
f 976 975 993
f 993 975 995
f 985 984 990
f 984 996 990
f 990 996 991
f 996 997 991
f 991 997 994
f 997 998 994
f 994 998 987
f 998 999 987
f 987 999 988
f 999 1000 988
f 984 982 996
f 982 989 996
f 996 989 997
f 989 992 997
f 997 992 998
f 992 993 998
f 998 993 999
f 993 995 999
f 999 995 1000
f 995 1001 1000
f 935 949 988
f 949 947 988
f 988 947 948
f 975 974 995
f 974 973 995
f 995 973 1001
f 973 970 1001
f 1001 970 969
f 935 988 972
f 988 1000 972
f 972 1000 971
f 1000 1001 971
f 971 1001 968
f 1001 969 968
f 968 969 986
f 888 889 820
f 889 890 820
f 820 890 822
f 820 821 888
f 821 804 888
f 888 804 887
f 804 805 887
f 805 800 887
f 800 801 887
f 887 801 886
f 801 796 886
f 796 797 886
f 886 797 885
f 797 792 885
f 792 793 885
f 885 793 884
f 793 789 884
f 789 773 884
f 884 773 883
f 935 933 949
f 933 950 949
f 949 950 947
f 950 951 947
f 953 944 952
f 944 946 952
f 952 946 951
f 946 948 951
f 951 948 947
f 955 941 954
f 941 943 954
f 954 943 953
f 943 945 953
f 953 945 944
f 939 940 955
f 940 942 955
f 955 942 941
f 933 931 950
f 931 956 950
f 950 956 951
f 956 957 951
f 951 957 952
f 957 958 952
f 952 958 953
f 958 959 953
f 953 959 954
f 959 960 954
f 954 960 955
f 960 961 955
f 955 961 939
f 961 938 939
f 931 929 956
f 929 962 956
f 956 962 957
f 962 963 957
f 957 963 958
f 963 964 958
f 958 964 959
f 964 965 959
f 959 965 960
f 965 966 960
f 960 966 961
f 966 967 961
f 961 967 938
f 967 937 938
f 929 890 962
f 890 889 962
f 962 889 963
f 889 888 963
f 963 888 964
f 888 887 964
f 964 887 965
f 887 886 965
f 965 886 966
f 886 885 966
f 966 885 967
f 885 884 967
f 967 884 937
f 884 883 937
f 251 294 293
f 251 293 248
f 293 292 248
f 248 292 247
f 292 291 247
f 247 291 246
f 291 232 246
f 246 232 176
f 935 936 934
f 935 934 933
f 934 932 933
f 933 932 931
f 932 930 931
f 931 930 929
f 930 903 929
f 929 903 890
f 986 1029 968
f 1029 1028 968
f 968 1028 971
f 1028 1027 971
f 971 1027 972
f 1027 1026 972
f 972 1026 935
f 1026 936 935
f 176 232 177
f 232 231 177
f 177 231 178
f 231 230 178
f 178 230 179
f 230 229 179
f 179 229 54
f 229 61 54
f 1299 1315 1302
f 1315 1313 1302
f 1302 1313 1307
f 1313 1314 1307
f 1307 1314 1308
f 1314 1321 1308
f 1308 1321 1306
f 1321 1322 1306
f 1306 1322 1303
f 1322 1318 1303
f 1303 1318 1297
f 1318 1298 1297
f 1273 1260 1286
f 1260 1261 1286
f 1286 1261 1285
f 1261 1272 1285
f 1285 1272 1284
f 1272 1270 1284
f 1284 1270 1283
f 1270 1269 1283
f 1283 1269 1282
f 1269 1266 1282
f 1282 1266 1281
f 1266 1265 1281
f 1294 1293 1310
f 1293 1311 1310
f 1310 1311 1304
f 1311 1312 1304
f 1304 1312 1305
f 1312 1317 1305
f 1305 1317 1309
f 1317 1320 1309
f 1309 1320 1301
f 1320 1316 1301
f 1301 1316 1300
f 1316 1319 1300
f 1280 1271 1279
f 1271 1267 1279
f 1279 1267 1278
f 1267 1268 1278
f 1278 1268 1277
f 1268 1264 1277
f 1277 1264 1276
f 1264 1263 1276
f 1276 1263 1275
f 1263 1262 1275
f 1275 1262 1274
f 1262 1259 1274
f 582 580 600
f 563 562 560
f 602 568 567
f 567 566 602
f 566 565 602
f 602 565 560
f 565 564 560
f 560 564 563
f 568 602 569
f 602 601 569
f 569 601 570
f 579 576 591
f 579 591 578
f 600 580 591
f 580 581 591
f 591 581 578
f 575 592 574
f 592 577 574
f 575 572 592
f 572 573 592
f 592 573 601
f 573 571 601
f 601 571 570
f 556 559 589
f 585 599 588
f 599 556 588
f 588 556 587
f 556 589 587
f 585 586 599
f 586 584 599
f 599 584 600
f 584 583 600
f 600 583 582
f 603 597 598
f 597 595 598
f 598 595 596
f 595 593 596
f 596 593 594
f 593 590 594
f 594 590 592
f 590 591 592
f 592 591 577
f 591 576 577
f 649 661 648
f 672 666 669
f 666 662 669
f 669 662 671
f 662 670 671
f 672 667 666
f 667 668 666
f 666 668 673
f 670 662 663
f 662 650 663
f 663 650 665
f 660 657 656
f 660 656 659
f 648 661 656
f 661 658 656
f 656 658 659
f 655 636 654
f 636 653 654
f 655 652 636
f 652 651 636
f 636 651 650
f 651 664 650
f 650 664 665
f 641 644 645
f 639 638 642
f 638 641 642
f 642 641 643
f 641 645 643
f 639 640 638
f 640 646 638
f 638 646 648
f 646 647 648
f 648 647 649
f 657 653 656
f 653 636 656
f 656 636 637
f 636 634 637
f 637 634 635
f 634 632 635
f 635 632 633
f 632 631 633
f 633 631 605
f 631 604 605
f 758 757 712
f 757 718 712
f 450 451 453
f 451 452 453
f 1287 1288 1296
f 1288 1295 1296
