v 0.412815 0.0867777 0.076875
v 0.398354 0.0826832 0.0840739
v 0.422603 0.0822697 0.082864
v 0.426143 0.043095 0.0874843
v 0.430662 0.0302012 0.0874346
v 0.430135 0.0432816 0.0869221
v 0.398642 0.0865897 0.0781957
v 0.40103 0.0891427 0.0741943
v 0.441285 0.0867828 0.069429
v 0.432639 0.0883799 0.0708548
v 0.438713 0.0849968 0.0743275
v 0.446122 0.060445 0.0711081
v 0.446216 0.0677125 0.0684379
v 0.445592 0.0686453 0.0700475
v 0.446977 0.0300803 0.0688779
v 0.448355 1.73339e-09 0.0733502
v 0.447535 1.69752e-09 0.0694353
v 0.428381 0.0684404 0.0852188
v 0.436434 0.0606444 0.0827686
v 0.435776 0.0688229 0.0821382
v 0.424408 0.0681475 0.0857934
v 0.429026 0.0603065 0.0858459
v 0.444225 0.0841001 0.0684563
v 0.440604 0.0816266 0.0757061
v 0.442425 0.0607139 0.0774251
v 0.447235 0.0441072 0.0719169
v 0.426665 0.0300708 0.0879931
v 0.401374 0.0396733 0.0889385
v 0.401829 0.0269199 0.0893999
v 0.427467 0.0789257 0.0843312
v 0.433276 0.0831496 0.0795502
v 0.423481 0.0788317 0.0848895
v 0.425838 0.0822741 0.0825215
v 0.40038 0.0566975 0.0879296
v 0.43872 1.3122e-09 0.0849591
v 0.444109 0.0304065 0.0790116
v 0.4381 0.0303715 0.0843656
v 0.399636 0.0667201 0.0871754
v 0.398599 0.0792503 0.0861224
v 0.421892 0.0867439 0.0761322
v 0.423709 0.091105 0.0695135
v 0.419084 0.0911179 0.0699035
v 0.437563 0.0435251 0.0838504
v 0.427266 8.11567e-10 0.0885791
v 0.43127 9.86583e-10 0.088025
v 0.427033 0.0871023 0.0747206
v 0.443566 0.0435752 0.0784997
v 0.425959 0.0916483 0.0678818
v 0.434218 0.0894919 0.0677928
v 0.427222 0.0925832 0.0653132
v 0.441884 0.0874826 0.0675428
v 0.444735 0.0847963 0.066461
v 0.445307 0.0600957 0.0672077
v 0.446281 0.0451016 0.0681815
v 0.433465 0.0490525 0.0553654
v 0.441761 0.0689015 0.0767989
v 0.404912 0.0907299 0.0715309
v 0.447878 0.0302879 0.0725524
v 0.434696 0.0900983 0.066158
v 0.427494 0.0931228 0.0638727
v 0.445254 0.0870034 0.0602562
v 0.442529 0.0909252 0.0585511
v 0.435138 0.0932928 0.0577363
v 0.427342 0.095692 0.0571457
v 0.434829 0.0958819 0.0509714
v 0.426123 0.105886 0.0292239
v 0.433801 0.104354 0.0270176
v 0.426123 0.105887 0.0292203
v 0.417757 0.0911364 0.0699764
v 0.420096 0.0867073 0.0763928
v 0.434054 0.10228 0.0339742
v 0.443555 0.101329 0.0177063
v 0.443696 0.100223 0.0230283
v 0.445315 0.0864424 0.00200951
v 0.425948 0.107355 0.0227787
v 0.441331 0.100989 0.0317295
v 0.441074 0.103044 0.0243208
v 0.443857 0.0989407 0.0280857
v 0.443395 0.102579 0.00737983
v 0.440707 0.105891 0.00207275
v 0.440749 0.105574 0.00777257
v 0.440654 0.105908 -0.00102055
v 0.443354 0.102893 0.00200951
v 0.443301 0.10291 -0.0010817
v 0.42579 0.108668 0.016347
v 0.433626 0.105767 0.0202158
v 0.433496 0.106816 0.0142484
v 0.443454 0.102123 0.0124837
v 0.440814 0.105071 0.0130697
v 0.440932 0.104156 0.0187646
v 0.434577 0.0238044 -0.0584856
v 0.422608 0.0464755 -0.0501051
v 0.423499 0.0238044 -0.050729
v 0.433417 0.107448 0.00907731
v 0.425714 0.109296 0.0115342
v 0.425678 0.10959 0.00789231
v 0.433378 0.107723 0.00473571
v 0.425649 0.109838 0.00415528
v 0.433345 0.107826 0.00176191
v 0.425597 0.109907 0.00035548
v 0.433244 0.10783 -0.00190353
v 0.44051 0.10584 -0.00410676
v 0.443157 0.102841 -0.00416249
v 0.440277 0.105687 -0.00717896
v 0.43303 0.107713 -0.00556284
v 0.425439 0.109865 -0.00382376
v 0.432403 0.107272 -0.011003
v 0.442923 0.102687 -0.00722772
v 0.439547 0.105124 -0.0132585
v 0.442192 0.102124 -0.013293
v 0.444818 0.0864424 -0.00770539
v 0.444164 0.0864424 -0.0126737
v 0.438471 0.104231 -0.0192451
v 0.43158 0.106654 -0.0164036
v 0.424994 0.109605 -0.00825626
v 0.430852 0.106072 -0.0199436
v 0.437805 0.103669 -0.0222001
v 0.441116 0.10123 -0.0192701
v 0.4348 0.079834 0.0812013
v 0.445568 0.0646083 0.0663815
v 0.445541 0.0659754 0.0617566
v 0.445391 0.0659609 -0.0030185
v 0.433104 0.0543875 0.000797989
v 0.432917 0.0543875 -0.00368601
v 0.446861 0.0696951 -0.00230426
v 0.445524 0.0659609 0.00200945
v 0.445822 0.0696951 -0.0124419
v 0.444489 0.0659609 -0.0116781
v 0.442149 0.0659609 -0.0231602
v 0.444677 0.0696951 -0.0188932
v 0.443392 0.0659609 -0.0178804
v 0.432233 0.0543875 -0.0095107
v 0.430965 0.0543875 -0.0162483
v 0.436057 0.0696951 -0.0514356
v 0.443653 0.0696951 -0.0230848
v 0.433178 0.0238044 -0.0686157
v 0.430862 9.68725e-10 -0.0732353
v 0.430691 0.0238044 -0.0732251
v 0.415951 0.0829116 -0.0811897
v 0.42068 0.0697015 -0.0795413
v 0.416584 0.0696951 -0.0822865
v 0.419751 0.0659609 -0.0784482
v 0.415867 0.0659609 -0.081045
v 0.427517 0.0681344 -0.0728567
v 0.427999 0.060632 -0.0731503
v 0.426149 0.0680229 -0.0746052
v 0.430918 0.0685001 -0.0674345
v 0.431553 0.0594817 -0.0677663
v 0.42727 8.11723e-10 -0.0749833
v 0.407142 -6.8121e-11 -0.0739284
v 0.42683 0.0238044 -0.0749602
v 0.428337 0.0912841 -0.0627094
v 0.419065 0.0924447 -0.0656464
v 0.421466 0.0941413 -0.0602439
v 0.434181 0.0669597 -0.0596641
v 0.433945 0.0690641 -0.059711
v 0.433113 0.0543875 0.0491555
v 0.423807 6.60331e-10 -0.0509445
v 0.434913 1.14579e-09 -0.058721
v 0.435798 0.0238044 -0.0622318
v 0.434454 0.0542957 -0.0618804
v 0.433248 0.0541035 -0.0575551
v 0.433347 0.0689288 -0.0615271
v 0.433657 0.0646064 -0.05689
v 0.422794 0.05343 -0.0486333
v 0.434165 0.0886676 -0.0512009
v 0.428151 0.0864003 -0.0688472
v 0.410437 0.0820144 -0.0844793
v 0.410781 0.0695136 -0.0856506
v 0.385182 0.0695136 -0.100431
v 0.430166 0.0238044 -0.0732099
v 0.42567 0.0895041 -0.0683868
v 0.424293 0.0848219 -0.0742337
v 0.421885 0.0879491 -0.0734928
v 0.380465 0.0771551 -0.102346
v 0.409257 0.0853569 -0.0826799
v 0.379374 0.0805432 -0.100455
v 0.41249 0.0859142 -0.0806978
v 0.407059 0.0894171 -0.0761051
v 0.376608 0.0838877 -0.095339
v 0.400836 0.0884206 -0.079788
v 0.376125 0.0854064 -0.0927782
v 0.376615 0.0872397 -0.0893564
v 0.378338 0.0887495 -0.0861316
v 0.381933 0.0899066 -0.0829597
v 0.395627 0.0921212 -0.0747891
v 0.438256 0.0982216 -0.0315944
v 0.433789 0.0919409 -0.0511413
v 0.424635 0.098271 -0.0473772
v 0.435571 0.101172 -0.0318893
v 0.431398 0.0952821 -0.0502955
v 0.440449 0.100667 -0.0222263
v 0.421064 0.105956 -0.0296298
v 0.428475 0.103635 -0.0303591
v 0.417644 0.10138 -0.0443056
v 0.412284 0.0955077 -0.0627484
v 0.413368 0.0961125 -0.0607985
v 0.414567 0.0971527 -0.0575153
v 0.422276 0.0949996 -0.0575542
v 0.429239 0.0922543 -0.0597098
v 0.410367 0.0947595 -0.065222
v 0.415815 0.0911734 -0.0698481
v 0.419604 0.0873007 -0.0756875
v 0.421643 0.0840487 -0.0769507
v 0.418928 0.0834278 -0.0792007
v 0.414448 0.086225 -0.0795271
v 0.417146 0.086703 -0.0777531
v 0.413122 0.0904911 -0.0722035
v 0.410152 0.089925 -0.0742364
v 0.405297 0.0936648 -0.0690808
v 0.402671 0.0932528 -0.0706091
v 0.380092 0.0659609 -0.1017
v 0.380809 0.0696951 -0.102941
v 0.378275 0.0625713 -0.0985518
v 0.384459 0.0659609 -0.0991785
v 0.377932 0.0618581 -0.0978665
v 0.410524 0.0659609 -0.0841298
v 0.377671 0.0611502 -0.0971409
v 0.422949 0.0639874 -0.0758815
v 0.422151 0.0697216 -0.0783423
v 0.424547 0.0587856 -0.0748405
v 0.404224 0.0499794 -0.0737755
v 0.406664 0.0238044 -0.0739033
v 0.431912 0.089302 -0.0593386
v 0.443074 0.0864424 -0.0185392
v 0.442067 0.0864424 -0.0226598
v 0.430977 0.0882798 -0.0626264
v 0.446957 0.0696951 0.00200951
v 0.444576 0.0929896 0.0446651
v 0.4442 0.0961456 0.0364267
v 0.44522 0.0864424 -0.00223118
v 0.424108 0.109054 -0.0143486
v 0.403015 0.053489 -0.0740439
v 0.398241 0.0543875 -0.0768908
v 0.42969 0.0543875 -0.0217041
v 0.446955 0.0697175 0.0618218
v 0.44178 0.0973291 0.0417342
v 0.442136 0.0943396 0.0496043
v 0.434518 0.0984753 0.0441954
v 0.426844 0.0998442 0.0462971
v 0.427129 0.0974716 0.0524961
v 0.426367 0.103807 0.0358179
v 0.444735 1.57512e-09 0.0796012
v 0.4023 -2.79737e-10 0.0898777
v 0.425047 0.0600477 0.086416
v 0.398291 0.0848923 0.0807661
v 0.409892 0.0912619 0.0703676
v 0.433113 0.053071 0.0539315
v 0.434672 0.0659609 -0.0510645
v 0.423853 0.0543875 -0.0434891
v 0.423506 0.108576 -0.0176723
v 0.415349 0.0982224 -0.0541863
v 0.408162 0.0941846 -0.0672001
v 0.434931 1.14658e-09 0.0568312
v 0.436188 1.20155e-09 -0.0625121
v 0.434355 0.0317974 0.0562552
v 0.429064 0.0381869 0.060971
v 0.415164 0.034456 0.0575071
v 0.415164 0.0414785 0.0569732
v 0.415164 0.0203326 0.0582809
v 0.429582 0.0254932 0.0619129
v 0.429765 0.0191193 0.0622438
v 0.415164 0.0062508 0.0586548
v 0.429895 0.0127448 0.06248
v 0.429973 0.0063712 0.0626217
v 0.429999 9.31012e-10 0.0626689
v 0.415164 2.82551e-10 0.0586939
v 0.405908 0.0306553 -0.0511084
v 0.416673 0.0378802 -0.0546995
v 0.406009 0.0395509 -0.0507312
v 0.405757 0.00251716 -0.0516719
v 0.405756 -1.28699e-10 -0.0516757
v 0.417305 3.76131e-10 -0.0558793
v 0.417235 0.0127014 -0.0557473
v 0.405777 0.0114211 -0.0515971
v 0.417023 0.025421 -0.0553491
v 0.405832 0.0217558 -0.05139
v 0.417147 0.0190688 -0.0555814
v 0.409199 0.0112724 0.00922757
v 0.409199 0.0129343 0.0151424
v 0.409199 0.00989944 0.0106006
v 0.409199 0.0147281 0.0143994
v 0.409199 0.014 0.0205
v 0.409199 0.0147281 0.0266006
v 0.409199 0.0129343 0.0258576
v 0.409199 0.0112724 0.0317724
v 0.409199 0.00989944 0.0303994
v 0.409199 0.0053575 0.0334343
v 0.409199 2.18288e-11 0.0364416
v 0.409199 2.18288e-11 0.0345
v 0.409199 2.18287e-11 0.00455839
v 0.409199 0.00535756 0.00756574
v 0.409199 2.18287e-11 0.00650001
v 0.409199 0.00610053 0.00577188
v 0.412199 0.0165169 0.00398302
v 0.412199 0.0233585 0.0205
v 0.409199 0.0159416 0.0205
v 0.412199 0.0215805 0.0294389
v 0.412199 0.0165169 0.037017
v 0.409199 0.00610053 0.0352281
v 0.412199 1.52961e-10 0.0438585
v 0.412199 1.52961e-10 -0.00285852
v 0.427859 0.0577427 -0.00824094
v 0.415505 0.0555643 0.0485635
v 0.415507 0.0558391 -0.0126258
v 0.417743 0.0577427 -0.0459914
v 0.416185 0.0503336 -0.0537941
v 0.405823 0.0203243 -0.0514264
v 0.415164 0.0132924 0.0585174
v 0.429348 0.0318597 0.0614877
v 0.415164 0.0274271 0.0579422
v 0.428728 0.044517 0.06036
v 0.415164 0.0484943 0.0563403
v 0.42834 0.0508484 0.0596544
v 0.40326 -2.37782e-10 -0.0468817
v 0.403261 0.00250465 -0.046878
v 0.403281 0.0113643 -0.0468034
v 0.403327 0.0202231 -0.0466337
v 0.403336 0.0216474 -0.0465975
v 0.403411 0.0305026 -0.0463173
v 0.403512 0.039354 -0.0459419
v 0.403638 0.0482011 -0.0454714
v 0.412199 0.0481202 0.0524948
v 0.412199 0.0411584 0.0531228
v 0.412199 0.0341901 0.0536526
v 0.412199 0.0272155 0.0540843
v 0.412199 0.0201757 0.0544205
v 0.412199 0.0131899 0.0546551
v 0.412199 0.00620258 0.0547915
v 0.412199 1.52961e-10 0.0548302
v 0.412199 0.0516251 0.0485635
v 0.412199 0.0516251 -0.0135104
v 0.407853 0.0558993 -0.0425107
v 0.407341 0.0558727 -0.044535
v 0.404661 0.0519602 -0.0416552
v 0.404031 0.0525318 -0.0459634
v 0.406102 0.0503337 -0.0501424
v 0.415416 0.055556 0.050412
v 0.412612 0.0521691 0.0526697
v 0.415164 0.0502985 0.0561776
v 0.407687 0.0106012 -0.0148756
v 0.408752 0.0167544 -0.0146986
v 0.40866 0.0106012 -0.0151063
v 0.407845 0.020694 -0.0141464
v 0.408826 0.0206944 -0.0143387
v 0.40791 0.0240463 -0.0137964
v 0.408895 0.0240463 -0.0139703
v 0.407865 0.0272268 -0.0140395
v 0.408518 0.030049 -0.0156684
v 0.408848 0.0272268 -0.0142261
v 0.407073 0.0317095 -0.0171955
v 0.408039 0.0317095 -0.0174543
v 0.406424 0.0327839 -0.0196209
v 0.40739 0.0327839 -0.0198797
v 0.405718 0.0329509 -0.022254
v 0.406684 0.0329509 -0.0225129
v 0.405039 0.0321913 -0.0247881
v 0.406005 0.0321913 -0.0250469
v 0.404466 0.0305934 -0.0269276
v 0.405432 0.0305934 -0.0271864
v 0.404065 0.0283436 -0.0284232
v 0.405031 0.0283436 -0.028682
v 0.404856 0.025952 -0.0293345
v 0.40389 0.025952 -0.0290757
v 0.404633 0.0173242 -0.030166
v 0.403667 0.0173242 -0.0299072
v 0.4045 0.00866896 -0.0306654
v 0.403489 -2.2778e-10 -0.0305731
v 0.404455 -1.85559e-10 -0.030832
v 0.407631 0.00345522 -0.0151054
v 0.408601 0.00345522 -0.0153481
v 0.408594 -4.6462e-12 -0.0153768
v 0.407624 -4.70302e-11 -0.0151326
v 0.406886 0.0377315 -0.0333488
v 0.406879 0.0366521 -0.0275805
v 0.40598 0.0340922 -0.0309346
v 0.406607 0.0338936 -0.0227992
v 0.405879 0.0330344 -0.0255157
v 0.407361 0.0337989 -0.0199855
v 0.410591 0.0104526 -0.0104256
v 0.412199 0.0033291 -0.00694013
v 0.410572 0.00339508 -0.0106792
v 0.410568 8.16402e-11 -0.0107294
v 0.409541 0.0034222 -0.0124331
v 0.404375 0.0170178 -0.0311317
v 0.40512 0.0279498 -0.0341456
v 0.404699 0.0193876 -0.0415106
v 0.405709 0.0312009 -0.0377423
v 0.404215 0.0170892 -0.0331253
v 0.404501 0.0169201 -0.0364553
v 0.404862 0.0299336 -0.0311741
v 0.404631 0.0273684 -0.0320681
v 0.405536 0.0318701 -0.0325915
v 0.406153 0.0348731 -0.0262799
v 0.405252 0.0312646 -0.0278556
v 0.405243 0.0321714 -0.0297218
v 0.406082 0.0341096 -0.0363485
v 0.404823 0.028884 -0.0294583
v 0.404633 0.0266906 -0.0301667
v 0.404226 0.00923342 -0.0432762
v 0.404234 0.00849074 -0.0374515
v 0.404025 0.00765353 -0.0336451
v 0.404199 -1.96742e-10 -0.0317867
v 0.403979 -2.06358e-10 -0.0337745
v 0.404145 -1.99108e-10 -0.0377842
v 0.404247 0.00844586 -0.0316085
v 0.408831 0.00344431 -0.0143134
v 0.409535 3.65141e-11 -0.0124789
v 0.408824 5.42644e-12 -0.0143481
v 0.408871 0.0105708 -0.0141048
v 0.408746 0.0378913 -0.0205925
v 0.406809 0.0357123 -0.0238202
v 0.4076 0.037662 -0.0248903
v 0.409993 0.0359463 -0.0153536
v 0.407744 0.0358137 -0.0203428
v 0.41047 0.0331231 -0.0122797
v 0.408975 0.0338406 -0.015606
v 0.410378 0.0418931 -0.0203116
v 0.408227 0.0323703 -0.0167528
v 0.408649 0.0309383 -0.0151524
v 0.408997 0.0204033 -0.0133321
v 0.409043 0.0243545 -0.0129892
v 0.409721 0.0244642 -0.0110953
v 0.408998 0.0276502 -0.0133252
v 0.409706 0.028791 -0.0116687
v 0.409633 0.0196101 -0.011503
v 0.410655 0.0240009 -0.00944555
v 0.410636 0.0197472 -0.00970441
v 0.409369 0.0322279 -0.0138189
v 0.412199 0.0311251 -0.00666243
v 0.412199 0.0364205 -0.00998884
v 0.408947 0.016677 -0.0136628
v 0.409562 0.0105209 -0.0122504
v 0.410618 0.0164311 -0.0100113
v 0.412199 0.0103964 -0.00677341
v 0.40961 0.01652 -0.0117821
v 0.412199 0.0163208 -0.00631779
v 0.412199 0.0196305 -0.00596642
v 0.410636 0.0294824 -0.0102626
v 0.412199 1.52961e-10 -0.0069983
v 0.4122 0.0394735 -0.0135105
v 0.404823 -0.028884 -0.0294583
v 0.405432 -0.0305934 -0.0271864
v 0.405252 -0.0312646 -0.0278556
v 0.407986 0.0405 -0.0292417
v 0.409025 0.041756 -0.0253617
v 0.404091 -2.01486e-10 -0.0437818
v 0.412199 0.0246466 -0.00549054
v 0.412199 0.00893891 -0.00108045
v 0.415257 0.0536174 0.0539334
v 0.427991 0.0558428 0.0571288
v 0.428219 0.0525736 0.0594619
v 0.427859 0.0577427 0.0535296
v 0.427859 0.0577427 0.0516741
v 0.406532 0.0538186 -0.0479927
v 0.41721 0.0577472 -0.0479802
v 0.416422 0.0557585 -0.0514517
v 0.416082 0.0523279 -0.0536423
v 0.406135 0.0484424 -0.0502583
v 0.408199 0.0053575 0.0334343
v 0.408199 0.0129343 0.0258576
v 0.408199 0.0129343 0.0151424
v 0.408199 0.00535756 0.00756574
v 0.408199 0.00989944 0.0303994
v 0.408199 0.014 0.0205
v 0.408199 0.00989944 0.0106006
v 0.408199 -2.18834e-11 0.00650001
v 0.403534 0.00866896 -0.0304066
v 0.412815 -0.0867777 0.076875
v 0.398354 -0.0826832 0.0840739
v 0.398291 -0.0848923 0.0807661
v 0.430662 -0.0302012 0.0874346
v 0.426143 -0.043095 0.0874843
v 0.430135 -0.0432816 0.0869221
v 0.398642 -0.0865897 0.0781957
v 0.40103 -0.0891427 0.0741943
v 0.441285 -0.0867828 0.069429
v 0.432639 -0.0883799 0.0708548
v 0.434218 -0.0894919 0.0677928
v 0.446122 -0.060445 0.0711081
v 0.445592 -0.0686453 0.0700475
v 0.446216 -0.0677125 0.0684379
v 0.446977 -0.0300803 0.0688779
v 0.436434 -0.0606444 0.0827686
v 0.428381 -0.0684404 0.0852188
v 0.435776 -0.0688229 0.0821382
v 0.429026 -0.0603065 0.0858459
v 0.424408 -0.0681475 0.0857934
v 0.438713 -0.0849968 0.0743275
v 0.444225 -0.0841001 0.0684563
v 0.440604 -0.0816266 0.0757061
v 0.442425 -0.0607139 0.0774251
v 0.447235 -0.0441072 0.0719169
v 0.443566 -0.0435752 0.0784997
v 0.426665 -0.0300708 0.0879931
v 0.401374 -0.0396733 0.0889385
v 0.427467 -0.0789257 0.0843312
v 0.433276 -0.0831496 0.0795502
v 0.427033 -0.0871023 0.0747206
v 0.423481 -0.0788317 0.0848895
v 0.425838 -0.0822741 0.0825215
v 0.40038 -0.0566975 0.0879296
v 0.425047 -0.0600477 0.086416
v 0.444109 -0.0304065 0.0790116
v 0.399636 -0.0667201 0.0871754
v 0.421892 -0.0867439 0.0761322
v 0.423709 -0.091105 0.0695135
v 0.4381 -0.0303715 0.0843656
v 0.437563 -0.0435251 0.0838504
v 0.4348 -0.079834 0.0812013
v 0.425959 -0.0916483 0.0678818
v 0.427222 -0.0925832 0.0653132
v 0.441884 -0.0874826 0.0675428
v 0.441761 -0.0689015 0.0767989
v 0.444735 -0.0847963 0.066461
v 0.445307 -0.0600957 0.0672077
v 0.433465 -0.0490525 0.0553654
v 0.446281 -0.0451016 0.0681815
v 0.404912 -0.0907299 0.0715309
v 0.447878 -0.0302879 0.0725524
v 0.434696 -0.0900983 0.066158
v 0.445254 -0.0870034 0.0602562
v 0.435138 -0.0932928 0.0577363
v 0.427494 -0.0931228 0.0638727
v 0.427342 -0.095692 0.0571457
v 0.442529 -0.0909252 0.0585511
v 0.434829 -0.0958819 0.0509714
v 0.426123 -0.105886 0.0292239
v 0.426123 -0.105887 0.0292203
v 0.433801 -0.104354 0.0270176
v 0.417757 -0.0911364 0.0699764
v 0.409892 -0.0912619 0.0703676
v 0.434054 -0.10228 0.0339742
v 0.443555 -0.101329 0.0177063
v 0.445315 -0.0864424 0.00200951
v 0.443696 -0.100223 0.0230283
v 0.425948 -0.107355 0.0227787
v 0.433626 -0.105767 0.0202158
v 0.441331 -0.100989 0.0317295
v 0.441074 -0.103044 0.0243208
v 0.443857 -0.0989407 0.0280857
v 0.443395 -0.102579 0.00737983
v 0.440707 -0.105891 0.00207275
v 0.443354 -0.102893 0.00200951
v 0.440654 -0.105908 -0.00102055
v 0.42579 -0.108668 0.016347
v 0.433496 -0.106816 0.0142484
v 0.440749 -0.105574 0.00777257
v 0.443454 -0.102123 0.0124837
v 0.440814 -0.105071 0.0130697
v 0.440932 -0.104156 0.0187646
v 0.434577 -0.0238044 -0.0584856
v 0.422608 -0.0464755 -0.0501051
v 0.433248 -0.0541035 -0.0575551
v 0.433417 -0.107448 0.00907731
v 0.425714 -0.109296 0.0115342
v 0.425678 -0.10959 0.00789231
v 0.433378 -0.107723 0.00473571
v 0.425649 -0.109838 0.00415528
v 0.433345 -0.107826 0.00176191
v 0.425597 -0.109907 0.00035548
v 0.433244 -0.10783 -0.00190353
v 0.44051 -0.10584 -0.00410676
v 0.443301 -0.10291 -0.0010817
v 0.443157 -0.102841 -0.00416249
v 0.440277 -0.105687 -0.00717896
v 0.442923 -0.102687 -0.00722772
v 0.43303 -0.107713 -0.00556284
v 0.425439 -0.109865 -0.00382376
v 0.432403 -0.107272 -0.011003
v 0.439547 -0.105124 -0.0132585
v 0.442192 -0.102124 -0.013293
v 0.444818 -0.0864424 -0.00770539
v 0.444164 -0.0864424 -0.0126737
v 0.438471 -0.104231 -0.0192451
v 0.441116 -0.10123 -0.0192701
v 0.43158 -0.106654 -0.0164036
v 0.424994 -0.109605 -0.00825626
v 0.430852 -0.106072 -0.0199436
v 0.437805 -0.103669 -0.0222001
v 0.440449 -0.100667 -0.0222263
v 0.422603 -0.0822697 0.082864
v 0.445568 -0.0646083 0.0663815
v 0.445541 -0.0659754 0.0617566
v 0.446955 -0.0697175 0.0618218
v 0.445391 -0.0659609 -0.0030185
v 0.433104 -0.0543875 0.000797989
v 0.445524 -0.0659609 0.00200945
v 0.446861 -0.0696951 -0.00230426
v 0.445822 -0.0696951 -0.0124419
v 0.432917 -0.0543875 -0.00368601
v 0.444489 -0.0659609 -0.0116781
v 0.432233 -0.0543875 -0.0095107
v 0.442149 -0.0659609 -0.0231602
v 0.444677 -0.0696951 -0.0188932
v 0.443653 -0.0696951 -0.0230848
v 0.443392 -0.0659609 -0.0178804
v 0.430965 -0.0543875 -0.0162483
v 0.436057 -0.0696951 -0.0514356
v 0.433178 -0.0238044 -0.0686157
v 0.430691 -0.0238044 -0.0732251
v 0.415951 -0.0829116 -0.0811897
v 0.42068 -0.0697015 -0.0795413
v 0.418928 -0.0834278 -0.0792007
v 0.416584 -0.0696951 -0.0822865
v 0.419751 -0.0659609 -0.0784482
v 0.427517 -0.0681344 -0.0728567
v 0.426149 -0.0680229 -0.0746052
v 0.427999 -0.060632 -0.0731503
v 0.430918 -0.0685001 -0.0674345
v 0.42683 -0.0238044 -0.0749602
v 0.406664 -0.0238044 -0.0739033
v 0.419065 -0.0924447 -0.0656464
v 0.428337 -0.0912841 -0.0627094
v 0.421466 -0.0941413 -0.0602439
v 0.433945 -0.0690641 -0.059711
v 0.434181 -0.0669597 -0.0596641
v 0.433113 -0.0543875 0.0491555
v 0.434454 -0.0542957 -0.0618804
v 0.435798 -0.0238044 -0.0622318
v 0.433347 -0.0689288 -0.0615271
v 0.433657 -0.0646064 -0.05689
v 0.422794 -0.05343 -0.0486333
v 0.434165 -0.0886676 -0.0512009
v 0.431912 -0.089302 -0.0593386
v 0.428151 -0.0864003 -0.0688472
v 0.385182 -0.0695136 -0.100431
v 0.410782 -0.0695136 -0.0856506
v 0.410437 -0.0820144 -0.0844793
v 0.431553 -0.0594817 -0.0677663
v 0.430166 -0.0238044 -0.0732099
v 0.42567 -0.0895041 -0.0683868
v 0.424293 -0.0848219 -0.0742337
v 0.409257 -0.0853569 -0.0826799
v 0.380465 -0.0771551 -0.102346
v 0.379374 -0.0805432 -0.100455
v 0.41249 -0.0859142 -0.0806978
v 0.407059 -0.0894171 -0.0761051
v 0.376608 -0.0838877 -0.095339
v 0.400836 -0.0884206 -0.079788
v 0.376125 -0.0854064 -0.0927782
v 0.376615 -0.0872397 -0.0893564
v 0.378338 -0.0887495 -0.0861316
v 0.381933 -0.0899066 -0.0829597
v 0.395627 -0.0921212 -0.0747891
v 0.438256 -0.0982216 -0.0315944
v 0.433789 -0.0919409 -0.0511413
v 0.435571 -0.101172 -0.0318893
v 0.424635 -0.098271 -0.0473772
v 0.431398 -0.0952821 -0.0502955
v 0.421064 -0.105956 -0.0296298
v 0.423506 -0.108576 -0.0176723
v 0.428475 -0.103635 -0.0303591
v 0.417644 -0.10138 -0.0443056
v 0.414567 -0.0971527 -0.0575153
v 0.413368 -0.0961125 -0.0607985
v 0.422276 -0.0949996 -0.0575542
v 0.429239 -0.0922543 -0.0597098
v 0.410367 -0.0947595 -0.065222
v 0.412284 -0.0955077 -0.0627484
v 0.421885 -0.0879491 -0.0734928
v 0.419604 -0.0873007 -0.0756875
v 0.421643 -0.0840487 -0.0769507
v 0.414448 -0.086225 -0.0795271
v 0.417146 -0.086703 -0.0777531
v 0.413122 -0.0904911 -0.0722035
v 0.415815 -0.0911734 -0.0698481
v 0.410152 -0.089925 -0.0742364
v 0.405297 -0.0936648 -0.0690808
v 0.380092 -0.0659609 -0.1017
v 0.380809 -0.0696951 -0.102941
v 0.378275 -0.0625713 -0.0985518
v 0.384459 -0.0659609 -0.0991785
v 0.377932 -0.0618581 -0.0978665
v 0.415867 -0.0659609 -0.081045
v 0.410524 -0.0659609 -0.0841298
v 0.384279 -0.0543875 -0.0849515
v 0.398241 -0.0543875 -0.0768908
v 0.422949 -0.0639874 -0.0758815
v 0.422151 -0.0697216 -0.0783423
v 0.424547 -0.0587856 -0.0748405
v 0.404224 -0.0499794 -0.0737755
v 0.443074 -0.0864424 -0.0185392
v 0.442067 -0.0864424 -0.0226598
v 0.430977 -0.0882798 -0.0626264
v 0.446957 -0.0696951 0.00200951
v 0.444576 -0.0929896 0.0446651
v 0.4442 -0.0961456 0.0364267
v 0.44522 -0.0864424 -0.00223118
v 0.424108 -0.109054 -0.0143486
v 0.402671 -0.0932528 -0.0706091
v 0.403015 -0.053489 -0.0740439
v 0.44178 -0.0973291 0.0417342
v 0.442136 -0.0943396 0.0496043
v 0.434518 -0.0984753 0.0441954
v 0.426844 -0.0998442 0.0462971
v 0.426367 -0.103807 0.0358179
v 0.419084 -0.0911179 0.0699035
v 0.420096 -0.0867073 0.0763928
v 0.401829 -0.0269199 0.0893999
v 0.398599 -0.0792503 0.0861224
v 0.433113 -0.053071 0.0539315
v 0.434672 -0.0659609 -0.0510645
v 0.423853 -0.0543875 -0.0434891
v 0.415349 -0.0982224 -0.0541863
v 0.408162 -0.0941846 -0.0672001
v 0.434355 -0.0317974 0.0562552
v 0.433553 1.08634e-09 -0.0688117
v 0.429064 -0.0381869 0.060971
v 0.415164 -0.034456 0.0575071
v 0.429348 -0.0318597 0.0614877
v 0.415164 -0.0203326 0.0582809
v 0.429582 -0.0254932 0.0619129
v 0.415164 -0.0274271 0.0579422
v 0.415164 -0.0062508 0.0586548
v 0.429895 -0.0127448 0.06248
v 0.415164 -0.0132924 0.0585174
v 0.405908 -0.0306553 -0.0511084
v 0.416673 -0.0378802 -0.0546995
v 0.417023 -0.025421 -0.0553491
v 0.405757 -0.00251716 -0.0516719
v 0.417235 -0.0127014 -0.0557473
v 0.405777 -0.0114211 -0.0515971
v 0.405832 -0.0217558 -0.05139
v 0.417147 -0.0190688 -0.0555814
v 0.405823 -0.0203243 -0.0514264
v 0.409199 -0.0129343 0.0151424
v 0.409199 -0.0112724 0.00922757
v 0.409199 -0.00989944 0.0106006
v 0.409199 -0.014 0.0205
v 0.409199 -0.0147281 0.0143994
v 0.409199 -0.0147281 0.0266006
v 0.409199 -0.0159416 0.0205
v 0.409199 -0.0129343 0.0258576
v 0.409199 -0.0112724 0.0317724
v 0.409199 -0.0053575 0.0334343
v 0.409199 -0.00989944 0.0303994
v 0.409199 -0.00610053 0.0352281
v 0.409199 -0.00535756 0.00756574
v 0.409199 -0.00610053 0.00577188
v 0.412199 -0.0165169 0.00398302
v 0.412199 -0.00893891 -0.00108045
v 0.412199 -0.0233585 0.0205
v 0.412199 -0.0215805 0.0115611
v 0.412199 -0.0215805 0.0294389
v 0.412199 -0.0165169 0.037017
v 0.412199 -0.00893891 0.0420805
v 0.415505 -0.0555643 0.0485635
v 0.427859 -0.0577427 -0.00824094
v 0.415507 -0.0558391 -0.0126258
v 0.417744 -0.0577427 -0.0459914
v 0.416185 -0.0503336 -0.0537941
v 0.406009 -0.0395509 -0.0507312
v 0.406135 -0.0484424 -0.0502583
v 0.429765 -0.0191193 0.0622438
v 0.415164 -0.0414785 0.0569732
v 0.428728 -0.044517 0.06036
v 0.415164 -0.0484943 0.0563403
v 0.42834 -0.0508484 0.0596544
v 0.403281 -0.0113643 -0.0468034
v 0.403261 -0.00250465 -0.046878
v 0.403327 -0.0202231 -0.0466337
v 0.403411 -0.0305026 -0.0463173
v 0.403336 -0.0216474 -0.0465975
v 0.403512 -0.039354 -0.0459419
v 0.403638 -0.0482011 -0.0454714
v 0.412199 -0.0481202 0.0524948
v 0.412199 -0.0411584 0.0531228
v 0.412199 -0.0341901 0.0536526
v 0.412199 -0.0201757 0.0544205
v 0.412199 -0.0272155 0.0540843
v 0.412199 -0.00620258 0.0547915
v 0.412199 -0.0131899 0.0546551
v 0.412199 -0.0516251 0.0485635
v 0.412199 -0.0516251 -0.0135104
v 0.407853 -0.0558993 -0.0425107
v 0.404661 -0.0519602 -0.0416552
v 0.404031 -0.0525318 -0.0459634
v 0.407341 -0.0558727 -0.044535
v 0.406102 -0.0503337 -0.0501424
v 0.415416 -0.055556 0.050412
v 0.415164 -0.0502985 0.0561776
v 0.412612 -0.0521691 0.0526697
v 0.408752 -0.0167544 -0.0146986
v 0.407687 -0.0106012 -0.0148756
v 0.40866 -0.0106012 -0.0151063
v 0.407845 -0.020694 -0.0141464
v 0.407774 -0.0167544 -0.0144883
v 0.408826 -0.0206944 -0.0143387
v 0.40791 -0.0240463 -0.0137964
v 0.408518 -0.030049 -0.0156684
v 0.407865 -0.0272268 -0.0140395
v 0.408848 -0.0272268 -0.0142261
v 0.407073 -0.0317095 -0.0171955
v 0.407552 -0.030049 -0.0154096
v 0.408039 -0.0317095 -0.0174543
v 0.406424 -0.0327839 -0.0196209
v 0.40739 -0.0327839 -0.0198797
v 0.405718 -0.0329509 -0.022254
v 0.406684 -0.0329509 -0.0225129
v 0.405039 -0.0321913 -0.0247881
v 0.406005 -0.0321913 -0.0250469
v 0.404466 -0.0305934 -0.0269276
v 0.404065 -0.0283436 -0.0284232
v 0.404856 -0.025952 -0.0293345
v 0.405031 -0.0283436 -0.028682
v 0.404633 -0.0173242 -0.030166
v 0.40389 -0.025952 -0.0290757
v 0.4045 -0.00866896 -0.0306654
v 0.403667 -0.0173242 -0.0299072
v 0.403534 -0.00866896 -0.0304066
v 0.407631 -0.00345522 -0.0151054
v 0.408601 -0.00345522 -0.0153481
v 0.408895 -0.0240463 -0.0139703
v 0.406886 -0.0377315 -0.0333488
v 0.406879 -0.0366521 -0.0275805
v 0.407986 -0.0405 -0.0292417
v 0.406607 -0.0338936 -0.0227992
v 0.407361 -0.0337989 -0.0199855
v 0.412199 -0.0033291 -0.00694013
v 0.410591 -0.0104526 -0.0104256
v 0.410572 -0.00339508 -0.0106792
v 0.409541 -0.0034222 -0.0124331
v 0.404375 -0.0170178 -0.0311317
v 0.404699 -0.0193876 -0.0415106
v 0.40512 -0.0279498 -0.0341456
v 0.405709 -0.0312009 -0.0377423
v 0.404215 -0.0170892 -0.0331253
v 0.404631 -0.0273684 -0.0320681
v 0.404862 -0.0299336 -0.0311741
v 0.405536 -0.0318701 -0.0325915
v 0.406082 -0.0341096 -0.0363485
v 0.406153 -0.0348731 -0.0262799
v 0.405879 -0.0330344 -0.0255157
v 0.40598 -0.0340922 -0.0309346
v 0.404501 -0.0169201 -0.0364553
v 0.404226 -0.00923342 -0.0432762
v 0.404234 -0.00849074 -0.0374515
v 0.404025 -0.00765353 -0.0336451
v 0.404633 -0.0266906 -0.0301667
v 0.404247 -0.00844586 -0.0316085
v 0.408831 -0.00344431 -0.0143134
v 0.408871 -0.0105708 -0.0141048
v 0.409562 -0.0105209 -0.0122504
v 0.405243 -0.0321714 -0.0297218
v 0.408746 -0.0378913 -0.0205925
v 0.406809 -0.0357123 -0.0238202
v 0.407744 -0.0358137 -0.0203428
v 0.409993 -0.0359463 -0.0153536
v 0.408975 -0.0338406 -0.015606
v 0.41047 -0.0331231 -0.0122797
v 0.410378 -0.0418931 -0.0203116
v 0.4076 -0.037662 -0.0248903
v 0.408227 -0.0323703 -0.0167528
v 0.408649 -0.0309383 -0.0151524
v 0.408997 -0.0204033 -0.0133321
v 0.409043 -0.0243545 -0.0129892
v 0.409721 -0.0244642 -0.0110953
v 0.408998 -0.0276502 -0.0133252
v 0.410655 -0.0240009 -0.00944555
v 0.409633 -0.0196101 -0.011503
v 0.410636 -0.0197472 -0.00970441
v 0.409706 -0.028791 -0.0116687
v 0.410636 -0.0294824 -0.0102626
v 0.412199 -0.0311251 -0.00666243
v 0.412199 -0.0364205 -0.00998884
v 0.408947 -0.016677 -0.0136628
v 0.40961 -0.01652 -0.0117821
v 0.410618 -0.0164311 -0.0100113
v 0.412199 -0.0103964 -0.00677341
v 0.412199 -0.0163208 -0.00631779
v 0.412199 -0.0196305 -0.00596642
v 0.409369 -0.0322279 -0.0138189
v 0.4122 -0.0394735 -0.0135105
v 0.409025 -0.041756 -0.0253617
v 0.412199 -0.0246466 -0.00549054
v 0.415257 -0.0536174 0.0539334
v 0.427991 -0.0558428 0.0571288
v 0.428219 -0.0525736 0.0594619
v 0.427859 -0.0577427 0.0535296
v 0.427859 -0.0577427 0.0516741
v 0.406532 -0.0538186 -0.0479927
v 0.41721 -0.0577472 -0.0479802
v 0.416082 -0.0523279 -0.0536423
v 0.416422 -0.0557585 -0.0514517
v 0.408199 -0.0053575 0.0334343
v 0.408199 -0.0129343 0.0258576
v 0.408199 -0.0129343 0.0151424
v 0.408199 -0.00535756 0.00756574
v 0.408199 -0.00989944 0.0303994
v 0.408199 -0.014 0.0205
v 0.408199 -0.00989944 0.0106006
v 0.384279 0.0543875 -0.0849515
v 0.38339 0.0544186 -0.0855034
v 0.382541 0.0545118 -0.0861089
v 0.381739 0.0546663 -0.0867634
v 0.380989 0.054881 -0.087462
v 0.380298 0.0551543 -0.0881993
v 0.379671 0.0554839 -0.0889697
v 0.379112 0.0558675 -0.0897674
v 0.378626 0.0563022 -0.0905863
v 0.378216 0.0567845 -0.0914202
v 0.377886 0.0573109 -0.0922626
v 0.377637 0.0578773 -0.0931073
v 0.377473 0.0584794 -0.0939478
v 0.377394 0.0591127 -0.0947776
v 0.377401 0.0597723 -0.0955905
v 0.377493 0.0604532 -0.0963802
v 0.412199 0.0215805 0.0115611
v 0.412199 0.00893891 0.0420805
v 0.403686 0.0519602 -0.0452918
v 0.412199 0.0516251 0.0521787
v 0.407774 0.0167544 -0.0144883
v 0.407552 0.030049 -0.0154096
v 0.408199 -2.18834e-11 0.0345
v 0.427129 -0.0974716 0.0524961
v 0.423499 -0.0238044 -0.050729
v 0.377671 -0.0611502 -0.0971409
v 0.377493 -0.0604532 -0.0963802
v 0.377401 -0.0597723 -0.0955905
v 0.377394 -0.0591127 -0.0947776
v 0.377473 -0.0584794 -0.0939478
v 0.377637 -0.0578773 -0.0931073
v 0.377886 -0.0573109 -0.0922626
v 0.378216 -0.0567845 -0.0914202
v 0.378626 -0.0563022 -0.0905863
v 0.379112 -0.0558675 -0.0897674
v 0.379671 -0.0554839 -0.0889697
v 0.380298 -0.0551543 -0.0881993
v 0.380989 -0.054881 -0.087462
v 0.381739 -0.0546663 -0.0867634
v 0.382541 -0.0545118 -0.0861089
v 0.38339 -0.0544186 -0.0855034
v 0.42969 -0.0543875 -0.0217041
v 0.429973 -0.0063712 0.0626217
v 0.403686 -0.0519602 -0.0452918
v 0.412199 -0.0516251 0.0521787
f 1 2 3
f 4 5 6
f 7 1 8
f 9 10 11
f 12 13 14
f 15 16 17
f 18 19 20
f 21 22 18
f 23 11 24
f 25 26 12
f 27 28 29
f 30 21 18
f 10 31 11
f 32 33 3
f 4 34 28
f 35 36 37
f 38 32 39
f 22 4 6
f 40 41 42
f 6 37 43
f 30 31 33
f 5 44 45
f 46 33 31
f 31 24 11
f 37 45 35
f 25 43 47
f 48 49 50
f 23 51 9
f 24 14 23
f 23 13 52
f 53 54 55
f 12 54 53
f 20 25 56
f 57 8 1
f 20 30 18
f 47 58 26
f 50 59 60
f 51 49 9
f 51 61 62
f 60 63 64
f 59 62 63
f 65 64 63
f 66 67 68
f 69 1 70
f 66 71 67
f 72 73 74
f 67 75 68
f 67 76 77
f 77 78 73
f 79 80 81
f 82 83 84
f 85 86 87
f 88 81 89
f 72 89 90
f 91 92 93
f 87 90 89
f 94 89 81
f 95 87 94
f 96 94 97
f 98 97 99
f 80 99 97
f 79 74 83
f 100 99 101
f 101 82 102
f 84 102 82
f 103 104 102
f 105 102 104
f 106 101 105
f 104 107 105
f 108 109 104
f 110 111 112
f 110 113 109
f 114 109 113
f 115 105 107
f 116 113 117
f 118 117 113
f 3 40 70
f 119 56 24
f 43 36 47
f 46 48 41
f 56 12 14
f 120 12 53
f 121 13 120
f 122 123 124
f 125 126 122
f 122 127 125
f 124 128 122
f 129 130 131
f 131 132 133
f 129 134 135
f 136 137 138
f 139 140 141
f 141 142 143
f 144 145 146
f 145 147 148
f 149 138 137
f 150 151 149
f 152 153 154
f 134 155 156
f 157 126 121
f 91 158 159
f 91 160 161
f 91 161 162
f 155 163 156
f 159 160 91
f 164 165 92
f 156 166 134
f 167 163 147
f 168 169 170
f 171 148 136
f 138 171 136
f 172 173 174
f 168 175 176
f 177 176 175
f 139 168 176
f 178 139 176
f 176 179 178
f 176 177 180
f 176 181 179
f 180 181 176
f 180 182 181
f 181 182 183
f 181 183 184
f 181 184 185
f 185 186 181
f 187 166 188
f 189 190 191
f 192 190 117
f 193 116 194
f 194 195 193
f 153 196 197
f 148 163 161
f 198 199 154
f 191 187 188
f 199 191 200
f 154 200 152
f 152 167 172
f 136 161 160
f 201 153 202
f 153 174 202
f 173 203 174
f 173 204 203
f 205 203 204
f 139 206 205
f 206 207 205
f 205 207 203
f 207 208 203
f 208 201 202
f 202 203 208
f 168 141 169
f 209 207 206
f 209 178 179
f 210 179 211
f 178 206 139
f 170 212 213
f 214 212 215
f 214 215 216
f 143 217 169
f 218 216 215
f 219 220 146
f 171 221 145
f 222 151 223
f 151 171 138
f 141 143 169
f 169 215 170
f 202 174 203
f 166 224 188
f 135 225 130
f 226 187 192
f 192 225 226
f 227 200 224
f 130 112 127
f 131 127 128
f 228 121 126
f 61 74 229
f 78 230 74
f 74 230 229
f 74 73 78
f 90 73 72
f 125 74 228
f 74 84 83
f 74 79 88
f 74 88 72
f 111 103 231
f 84 231 103
f 232 107 114
f 211 181 186
f 142 233 234
f 220 142 140
f 219 145 221
f 129 133 235
f 228 61 236
f 237 229 230
f 230 76 237
f 63 238 65
f 86 77 90
f 238 239 65
f 71 237 76
f 65 240 241
f 242 239 71
f 81 97 94
f 42 70 40
f 6 19 22
f 16 36 243
f 44 29 244
f 245 38 34
f 39 3 2
f 1 7 246
f 247 57 1
f 70 1 3
f 26 15 54
f 53 248 120
f 121 248 157
f 127 112 111
f 165 249 250
f 164 134 249
f 164 161 155
f 129 250 249
f 162 164 92
f 134 226 135
f 114 251 232
f 117 194 116
f 252 189 199
f 221 233 219
f 209 253 208
f 227 156 163
f 200 188 224
f 144 167 147
f 173 146 204
f 205 220 140
f 220 204 146
f 254 15 17
f 255 136 160
f 112 118 110
f 61 238 62
f 54 256 55
f 236 52 13
f 257 258 259
f 260 261 262
f 263 264 265
f 263 266 267
f 268 269 270
f 271 272 273
f 271 274 275
f 276 268 277
f 277 278 276
f 279 280 281
f 282 283 280
f 283 284 285
f 285 286 287
f 286 288 287
f 288 289 290
f 291 292 293
f 294 281 292
f 294 295 279
f 295 282 279
f 282 296 297
f 297 298 284
f 284 299 286
f 299 300 286
f 300 301 289
f 302 294 291
f 303 304 305
f 305 306 303
f 307 270 269
f 275 278 308
f 262 309 260
f 310 311 258
f 312 259 313
f 312 313 314
f 315 271 316
f 271 317 316
f 275 318 317
f 318 277 319
f 277 320 319
f 268 321 320
f 270 322 321
f 323 259 324
f 324 258 325
f 325 311 326
f 311 327 326
f 327 309 328
f 309 329 328
f 329 267 330
f 331 305 304
f 332 333 305
f 334 335 336
f 334 306 333
f 322 337 336
f 331 338 339
f 340 313 323
f 340 314 313
f 341 342 343
f 342 344 345
f 345 346 347
f 348 349 350
f 349 351 352
f 352 353 354
f 354 355 356
f 356 357 358
f 358 359 360
f 360 361 362
f 361 363 362
f 364 365 363
f 366 367 365
f 367 368 369
f 370 343 371
f 370 372 373
f 346 350 347
f 374 375 376
f 377 358 378
f 379 356 377
f 380 381 382
f 383 384 382
f 385 363 365
f 386 387 388
f 386 389 390
f 386 391 392
f 388 393 386
f 394 395 396
f 397 376 393
f 392 398 399
f 400 390 401
f 402 403 404
f 402 405 401
f 399 389 392
f 406 389 385
f 407 408 409
f 410 384 407
f 409 371 407
f 393 396 391
f 411 412 413
f 414 415 411
f 416 417 414
f 417 379 415
f 418 414 411
f 415 377 412
f 412 378 394
f 413 394 375
f 394 376 375
f 354 419 352
f 352 420 349
f 343 407 371
f 347 421 345
f 350 422 347
f 385 367 406
f 423 424 425
f 426 427 428
f 398 396 395
f 416 425 429
f 430 416 431
f 342 410 343
f 432 433 410
f 434 435 380
f 436 380 433
f 426 434 436
f 426 432 421
f 437 428 438
f 425 420 429
f 423 439 427
f 417 420 419
f 421 423 426
f 382 440 383
f 433 382 384
f 431 414 441
f 442 443 444
f 424 349 420
f 378 360 395
f 413 445 446
f 411 446 418
f 401 447 400
f 362 399 398
f 421 342 345
f 401 389 402
f 406 369 403
f 448 439 430
f 438 427 448
f 449 302 381
f 335 445 374
f 338 450 339
f 450 340 339
f 340 451 452
f 450 453 451
f 454 338 304
f 337 455 336
f 455 334 336
f 456 455 457
f 455 458 457
f 307 337 459
f 290 460 288
f 287 461 285
f 283 462 280
f 281 463 292
f 288 464 287
f 285 465 283
f 280 466 281
f 292 467 293
f 341 370 468
f 469 470 471
f 472 473 474
f 475 476 469
f 477 478 479
f 480 481 482
f 16 483 17
f 484 485 486
f 487 488 485
f 489 490 491
f 492 493 494
f 495 496 473
f 488 497 485
f 478 498 499
f 500 501 497
f 473 502 503
f 35 504 243
f 505 500 488
f 487 473 503
f 506 507 499
f 508 474 509
f 497 498 510
f 44 472 45
f 501 499 498
f 491 498 489
f 45 508 35
f 509 492 494
f 479 511 512
f 513 490 477
f 491 481 514
f 482 490 515
f 516 517 518
f 480 518 493
f 492 486 514
f 519 469 476
f 486 497 510
f 494 520 504
f 512 521 479
f 513 479 521
f 513 522 515
f 523 524 525
f 526 521 523
f 525 527 523
f 528 529 530
f 531 469 532
f 533 528 530
f 534 535 536
f 530 537 538
f 539 530 540
f 540 541 539
f 542 543 544
f 545 544 543
f 538 546 547
f 548 549 550
f 550 534 551
f 552 553 554
f 551 547 550
f 550 555 548
f 547 556 555
f 555 557 558
f 558 559 560
f 560 543 558
f 542 544 535
f 560 561 562
f 545 562 563
f 564 563 565
f 565 566 567
f 563 568 566
f 562 569 568
f 566 570 571
f 567 571 572
f 573 572 574
f 572 575 576
f 571 577 575
f 568 578 570
f 575 579 580
f 576 580 581
f 582 506 501
f 510 514 486
f 504 509 494
f 511 499 507
f 480 514 481
f 583 480 482
f 584 482 585
f 586 587 588
f 588 589 586
f 590 586 589
f 591 592 593
f 594 595 596
f 593 597 598
f 599 594 596
f 137 600 601
f 602 603 604
f 605 606 603
f 607 608 609
f 609 610 607
f 149 601 611
f 150 611 612
f 613 614 615
f 599 616 617
f 588 618 584
f 158 552 159
f 552 619 620
f 552 554 619
f 617 621 619
f 620 159 552
f 622 553 623
f 616 624 625
f 621 626 610
f 627 628 629
f 630 631 600
f 601 600 631
f 632 633 626
f 629 634 635
f 636 635 634
f 602 634 629
f 637 634 602
f 634 637 638
f 634 639 636
f 634 638 640
f 639 634 640
f 639 640 641
f 640 642 641
f 640 643 642
f 640 644 643
f 644 640 645
f 624 646 647
f 648 649 650
f 581 648 646
f 651 579 652
f 653 654 649
f 615 655 656
f 621 630 619
f 657 655 615
f 650 646 648
f 650 657 658
f 658 615 614
f 626 614 632
f 619 600 620
f 659 613 660
f 613 661 632
f 633 661 662
f 633 662 663
f 604 663 662
f 602 604 664
f 664 604 665
f 604 662 665
f 665 662 666
f 659 666 667
f 667 666 662
f 629 605 602
f 668 665 666
f 637 668 638
f 669 638 668
f 637 602 664
f 670 627 671
f 672 673 670
f 672 674 673
f 675 628 676
f 677 678 673
f 679 680 606
f 631 681 611
f 682 611 681
f 611 601 631
f 605 628 675
f 628 673 676
f 667 662 661
f 624 647 625
f 596 683 684
f 684 581 646
f 683 581 684
f 685 658 614
f 595 574 683
f 597 590 595
f 686 584 585
f 522 687 535
f 541 535 688
f 535 687 688
f 535 541 536
f 536 551 534
f 589 535 689
f 535 564 689
f 535 549 542
f 535 534 549
f 573 565 567
f 564 565 689
f 570 690 577
f 691 640 638
f 692 606 678
f 680 603 606
f 609 679 681
f 594 598 597
f 522 686 585
f 693 687 694
f 539 688 693
f 523 694 526
f 540 538 551
f 695 694 527
f 533 693 695
f 527 696 695
f 695 697 533
f 558 548 555
f 698 699 531
f 484 474 487
f 504 16 243
f 44 700 495
f 503 505 488
f 582 701 470
f 469 471 475
f 532 469 519
f 699 582 469
f 483 493 518
f 702 516 583
f 584 702 583
f 573 590 589
f 623 703 622
f 622 599 617
f 619 622 617
f 704 594 703
f 554 553 622
f 599 684 624
f 577 652 579
f 580 653 648
f 649 705 657
f 692 681 679
f 668 706 669
f 616 685 621
f 647 658 625
f 607 626 633
f 608 633 663
f 604 680 663
f 680 608 663
f 254 483 707
f 255 600 708
f 576 574 572
f 522 694 687
f 518 707 483
f 515 585 482
f 709 710 711
f 712 713 714
f 715 716 717
f 266 715 267
f 718 719 720
f 721 273 272
f 722 721 723
f 720 724 718
f 724 725 726
f 727 728 729
f 730 731 727
f 730 732 733
f 734 735 732
f 736 735 737
f 736 289 738
f 739 291 293
f 729 740 739
f 740 741 742
f 731 741 728
f 731 743 744
f 733 745 743
f 732 746 745
f 738 746 735
f 738 301 747
f 740 302 291
f 748 749 750
f 751 750 749
f 752 753 754
f 723 725 722
f 717 755 712
f 714 711 710
f 756 757 758
f 757 759 758
f 315 721 272
f 760 721 761
f 762 723 760
f 762 724 726
f 763 724 764
f 765 718 763
f 766 753 765
f 767 756 758
f 768 710 756
f 769 714 710
f 770 714 771
f 770 717 712
f 772 717 773
f 772 267 715
f 774 750 775
f 775 776 777
f 778 777 779
f 751 779 776
f 780 754 766
f 781 748 774
f 767 782 783
f 759 782 758
f 784 785 786
f 784 787 788
f 789 790 787
f 791 792 793
f 791 794 795
f 796 797 794
f 798 799 797
f 800 801 799
f 802 803 801
f 443 804 803
f 805 804 806
f 807 808 805
f 809 810 807
f 809 368 811
f 812 786 785
f 812 372 813
f 793 790 814
f 815 816 817
f 818 802 800
f 800 819 818
f 820 821 822
f 383 823 408
f 805 824 807
f 825 826 827
f 826 828 829
f 826 830 831
f 827 831 832
f 833 444 834
f 832 835 815
f 829 442 830
f 836 837 838
f 403 839 404
f 405 839 838
f 828 840 829
f 841 828 839
f 842 408 823
f 843 823 844
f 813 409 842
f 831 845 835
f 846 847 848
f 848 849 846
f 850 851 849
f 819 850 848
f 849 852 846
f 848 818 819
f 847 834 818
f 853 833 847
f 835 833 816
f 798 854 819
f 796 855 854
f 786 842 843
f 814 856 857
f 857 793 814
f 824 809 807
f 858 859 857
f 860 861 862
f 442 845 830
f 851 863 864
f 851 865 866
f 784 843 867
f 867 844 868
f 869 870 871
f 868 821 869
f 861 869 862
f 867 861 856
f 862 871 872
f 855 863 873
f 864 858 860
f 850 855 873
f 858 856 861
f 822 440 820
f 844 822 821
f 849 866 874
f 791 859 855
f 834 443 802
f 853 817 816
f 846 875 853
f 447 838 837
f 840 806 442
f 856 784 867
f 828 838 839
f 369 841 403
f 864 876 865
f 860 872 876
f 741 744 876
f 815 817 777
f 781 783 877
f 877 783 782
f 878 782 879
f 880 877 878
f 781 881 748
f 780 778 882
f 882 778 779
f 883 882 779
f 884 882 885
f 780 752 754
f 886 290 736
f 887 737 734
f 888 730 727
f 889 729 739
f 890 736 737
f 891 734 730
f 892 727 729
f 467 739 293
f 787 790 808
f 398 360 362
f 462 460 887
f 1 246 2
f 4 27 5
f 9 49 10
f 15 58 16
f 18 22 19
f 21 245 22
f 23 9 11
f 25 47 26
f 27 4 28
f 30 32 21
f 10 46 31
f 32 30 33
f 4 245 34
f 35 243 36
f 38 21 32
f 22 245 4
f 40 46 41
f 6 5 37
f 30 119 31
f 5 27 44
f 46 40 33
f 31 119 24
f 37 5 45
f 25 19 43
f 48 10 49
f 23 52 51
f 24 56 14
f 23 14 13
f 12 26 54
f 20 19 25
f 20 119 30
f 47 36 58
f 50 49 59
f 51 59 49
f 51 52 61
f 60 59 63
f 59 51 62
f 65 241 64
f 69 247 1
f 66 242 71
f 67 86 75
f 67 71 76
f 77 76 78
f 79 83 80
f 82 80 83
f 85 75 86
f 88 79 81
f 72 88 89
f 91 162 92
f 87 86 90
f 94 87 89
f 95 85 87
f 96 95 94
f 98 96 97
f 80 82 99
f 100 98 99
f 101 99 82
f 84 103 102
f 103 108 104
f 105 101 102
f 106 100 101
f 104 109 107
f 108 110 109
f 110 108 111
f 110 118 113
f 114 107 109
f 115 106 105
f 116 114 113
f 118 192 117
f 3 33 40
f 119 20 56
f 43 37 36
f 46 10 48
f 56 25 12
f 120 13 12
f 121 236 13
f 122 126 123
f 125 228 126
f 122 128 127
f 124 132 128
f 129 135 130
f 131 128 132
f 129 249 134
f 136 708 137
f 139 205 140
f 141 140 142
f 145 144 147
f 149 151 138
f 150 223 151
f 152 172 153
f 157 123 126
f 91 93 158
f 155 161 163
f 159 255 160
f 156 224 166
f 167 227 163
f 213 175 170
f 175 168 170
f 171 145 148
f 172 167 173
f 187 226 166
f 189 194 190
f 192 187 190
f 193 251 116
f 194 189 195
f 197 198 154
f 154 153 197
f 148 147 163
f 198 252 199
f 191 190 187
f 199 189 191
f 154 199 200
f 152 227 167
f 136 148 161
f 201 196 153
f 153 172 174
f 208 253 201
f 168 139 141
f 209 208 207
f 209 206 178
f 210 209 179
f 170 215 212
f 217 143 234
f 143 142 234
f 234 893 215
f 217 234 215
f 893 894 215
f 894 895 215
f 895 896 215
f 896 897 215
f 897 898 215
f 898 899 215
f 899 900 215
f 900 901 215
f 901 902 215
f 902 903 215
f 903 904 215
f 904 905 215
f 905 906 215
f 906 907 215
f 907 908 215
f 908 218 215
f 219 142 220
f 171 151 221
f 222 221 151
f 169 217 215
f 135 226 225
f 192 118 225
f 227 152 200
f 130 225 112
f 131 130 127
f 228 236 121
f 90 77 73
f 125 231 74
f 74 231 84
f 111 108 103
f 232 115 107
f 211 179 181
f 142 219 233
f 219 146 145
f 129 131 133
f 228 74 61
f 237 238 229
f 230 78 76
f 63 62 238
f 86 67 77
f 238 237 239
f 71 239 237
f 65 239 240
f 242 240 239
f 81 80 97
f 42 69 70
f 6 43 19
f 16 58 36
f 44 27 29
f 245 21 38
f 39 32 3
f 26 58 15
f 53 55 248
f 121 120 248
f 111 231 125
f 125 127 111
f 165 164 249
f 164 155 134
f 164 162 161
f 129 235 250
f 134 166 226
f 114 116 251
f 117 190 194
f 252 195 189
f 221 222 233
f 209 210 253
f 227 224 156
f 200 191 188
f 144 173 167
f 173 144 146
f 205 204 220
f 254 256 15
f 255 708 136
f 112 225 118
f 61 229 238
f 54 15 256
f 236 61 52
f 257 310 258
f 260 311 261
f 263 309 264
f 263 265 266
f 268 276 269
f 271 273 274
f 277 308 278
f 279 282 280
f 282 297 283
f 283 297 284
f 285 284 286
f 286 300 288
f 288 300 289
f 291 294 292
f 294 279 281
f 294 449 295
f 295 909 282
f 282 909 296
f 297 296 298
f 284 298 299
f 299 910 300
f 300 910 301
f 302 449 294
f 303 454 304
f 305 333 306
f 307 459 270
f 275 274 278
f 262 264 309
f 310 261 311
f 312 257 259
f 315 272 271
f 271 275 317
f 275 308 318
f 318 308 277
f 277 268 320
f 268 270 321
f 270 459 322
f 323 313 259
f 324 259 258
f 325 258 311
f 311 260 327
f 327 260 309
f 309 263 329
f 329 263 267
f 331 332 305
f 332 335 333
f 333 335 334
f 335 911 336
f 334 456 306
f 336 911 322
f 322 459 337
f 339 912 331
f 331 304 338
f 323 912 339
f 339 340 323
f 340 452 314
f 341 913 342
f 342 913 344
f 345 344 346
f 348 914 349
f 349 914 351
f 352 351 353
f 354 353 355
f 356 355 357
f 358 357 359
f 360 359 361
f 361 364 363
f 364 366 365
f 366 468 367
f 367 468 368
f 370 341 343
f 370 371 372
f 346 348 350
f 374 445 375
f 377 356 358
f 379 354 356
f 380 435 381
f 383 408 384
f 385 399 363
f 386 390 387
f 386 392 389
f 386 393 391
f 388 397 393
f 394 378 395
f 397 374 376
f 392 391 398
f 400 387 390
f 402 406 403
f 402 404 405
f 399 385 389
f 406 402 389
f 407 384 408
f 410 433 384
f 409 372 371
f 393 376 396
f 411 415 412
f 414 417 415
f 416 429 417
f 417 419 379
f 418 441 414
f 415 379 377
f 412 377 378
f 413 412 394
f 394 396 376
f 354 379 419
f 352 419 420
f 343 410 407
f 347 422 421
f 350 424 422
f 385 365 367
f 423 422 424
f 426 423 427
f 398 391 396
f 416 439 425
f 430 439 416
f 342 432 410
f 432 436 433
f 434 437 435
f 436 434 380
f 426 428 434
f 426 436 432
f 437 434 428
f 425 424 420
f 423 425 439
f 417 429 420
f 421 422 423
f 382 381 440
f 433 380 382
f 431 416 414
f 442 806 443
f 424 350 349
f 378 358 360
f 413 375 445
f 411 413 446
f 401 405 447
f 362 363 399
f 421 432 342
f 401 390 389
f 406 367 369
f 448 427 439
f 438 428 427
f 912 323 331
f 323 324 331
f 324 325 298
f 325 326 299
f 298 325 299
f 326 327 299
f 327 328 910
f 299 327 910
f 328 329 910
f 329 330 301
f 910 329 301
f 331 298 296
f 332 331 296
f 431 441 332
f 430 431 296
f 431 332 296
f 298 331 324
f 448 430 909
f 430 296 909
f 435 437 449
f 437 438 295
f 449 437 295
f 438 448 295
f 448 909 295
f 381 435 449
f 302 440 381
f 316 317 400
f 317 318 387
f 400 317 387
f 318 319 387
f 319 320 387
f 320 321 388
f 321 322 374
f 388 321 397
f 322 911 335
f 335 332 446
f 332 441 418
f 332 418 446
f 322 335 374
f 447 315 316
f 400 447 316
f 397 321 374
f 335 446 445
f 387 320 388
f 340 450 451
f 450 338 453
f 454 453 338
f 456 334 455
f 455 337 458
f 307 458 337
f 290 915 460
f 287 464 461
f 283 465 462
f 281 466 463
f 288 460 464
f 285 461 465
f 280 462 466
f 292 463 467
f 914 348 351
f 348 346 357
f 353 348 355
f 348 353 351
f 346 344 364
f 348 357 355
f 361 359 346
f 359 357 346
f 366 364 344
f 364 361 346
f 366 344 913
f 368 468 370
f 468 366 341
f 341 366 913
f 370 373 368
f 469 582 470
f 472 495 473
f 477 489 478
f 16 520 483
f 484 487 485
f 487 503 488
f 489 477 490
f 492 480 493
f 495 700 496
f 488 500 497
f 478 489 498
f 500 582 501
f 473 496 502
f 35 508 504
f 505 701 500
f 487 474 473
f 506 698 507
f 508 472 474
f 497 501 498
f 44 495 472
f 501 506 499
f 491 510 498
f 45 472 508
f 509 484 492
f 479 478 511
f 513 515 490
f 491 490 481
f 482 481 490
f 480 516 518
f 492 484 486
f 486 485 497
f 494 493 520
f 512 524 521
f 513 477 479
f 513 526 522
f 523 521 524
f 526 513 521
f 525 916 527
f 531 699 469
f 533 697 528
f 530 529 537
f 539 533 530
f 540 536 541
f 542 548 543
f 545 564 544
f 538 537 546
f 548 542 549
f 550 549 534
f 552 917 553
f 551 538 547
f 550 547 555
f 547 546 556
f 555 556 557
f 558 557 559
f 560 545 543
f 560 559 561
f 545 560 562
f 564 545 563
f 565 563 566
f 563 562 568
f 562 561 569
f 566 568 570
f 567 566 571
f 573 567 572
f 572 571 575
f 571 570 577
f 568 569 578
f 575 577 579
f 576 575 580
f 582 699 506
f 510 491 514
f 504 508 509
f 511 478 499
f 480 492 514
f 583 516 480
f 584 583 482
f 586 591 587
f 588 686 589
f 590 592 586
f 591 586 592
f 594 597 595
f 593 592 597
f 599 703 594
f 137 708 600
f 602 605 603
f 605 675 606
f 609 630 610
f 149 137 601
f 150 149 611
f 613 632 614
f 588 587 618
f 158 917 552
f 617 616 621
f 620 255 159
f 616 599 624
f 621 685 626
f 629 635 627
f 635 671 627
f 630 609 631
f 632 661 633
f 624 684 646
f 648 653 649
f 581 580 648
f 651 653 579
f 653 651 654
f 656 660 613
f 613 615 656
f 621 610 630
f 657 705 655
f 650 647 646
f 650 649 657
f 658 657 615
f 626 685 614
f 619 630 600
f 659 667 613
f 613 667 661
f 659 706 666
f 629 628 605
f 668 664 665
f 637 664 668
f 669 691 638
f 670 673 627
f 606 675 678
f 675 676 678
f 676 673 678
f 673 674 918
f 919 673 918
f 919 920 673
f 920 921 673
f 921 922 673
f 922 923 673
f 923 924 673
f 924 925 673
f 925 926 673
f 926 927 673
f 927 928 673
f 928 929 673
f 929 930 673
f 930 931 673
f 931 932 673
f 932 933 673
f 933 677 673
f 679 608 680
f 631 609 681
f 682 612 611
f 628 627 673
f 596 595 683
f 683 576 581
f 685 625 658
f 595 590 574
f 597 592 590
f 686 588 584
f 536 540 551
f 589 686 535
f 535 544 564
f 573 689 565
f 570 578 690
f 691 645 640
f 692 679 606
f 609 608 679
f 594 934 598
f 522 535 686
f 693 688 687
f 539 541 688
f 523 527 694
f 540 530 538
f 695 693 694
f 533 539 693
f 527 916 696
f 695 696 697
f 558 543 548
f 698 506 699
f 484 509 474
f 504 520 16
f 44 244 700
f 503 502 505
f 582 500 701
f 483 520 493
f 702 517 516
f 584 618 702
f 589 689 573
f 573 574 590
f 623 704 703
f 622 703 599
f 619 554 622
f 704 934 594
f 599 596 684
f 577 690 652
f 580 579 653
f 649 654 705
f 692 682 681
f 668 666 706
f 616 625 685
f 647 650 658
f 607 610 626
f 608 607 633
f 604 603 680
f 254 17 483
f 255 620 600
f 576 683 574
f 522 526 694
f 518 517 707
f 515 522 585
f 709 756 710
f 712 755 713
f 715 935 716
f 266 935 715
f 718 753 719
f 722 273 721
f 724 720 725
f 727 731 728
f 730 733 731
f 730 734 732
f 734 737 735
f 736 738 735
f 736 290 289
f 739 740 291
f 729 728 740
f 740 728 741
f 731 744 741
f 731 733 743
f 733 732 745
f 732 735 746
f 738 747 746
f 738 289 301
f 740 742 302
f 748 881 749
f 751 776 750
f 752 719 753
f 723 726 725
f 717 716 755
f 714 713 711
f 756 709 757
f 315 761 721
f 760 723 721
f 762 726 723
f 762 764 724
f 763 718 724
f 765 753 718
f 766 754 753
f 767 768 756
f 768 769 710
f 769 771 714
f 770 712 714
f 770 773 717
f 772 715 717
f 772 330 267
f 774 748 750
f 775 750 776
f 936 777 778
f 777 776 779
f 751 883 779
f 766 936 778
f 778 780 766
f 774 937 783
f 783 781 774
f 783 937 767
f 767 758 782
f 759 879 782
f 784 788 785
f 784 789 787
f 789 814 790
f 791 795 792
f 791 796 794
f 796 798 797
f 798 800 799
f 800 802 801
f 802 443 803
f 443 806 804
f 805 808 804
f 807 810 808
f 809 811 810
f 809 369 368
f 812 813 786
f 812 373 372
f 793 792 790
f 815 835 816
f 818 834 802
f 800 798 819
f 820 870 821
f 383 822 823
f 805 840 824
f 825 836 826
f 826 836 828
f 826 829 830
f 827 826 831
f 833 845 444
f 832 831 835
f 829 840 442
f 836 825 837
f 403 841 839
f 405 404 839
f 828 824 840
f 841 824 828
f 842 409 408
f 843 842 823
f 813 372 409
f 831 830 845
f 846 853 847
f 848 850 849
f 850 873 851
f 819 854 850
f 849 874 852
f 848 847 818
f 847 833 834
f 853 816 833
f 835 845 833
f 798 796 854
f 796 791 855
f 786 813 842
f 814 789 856
f 857 859 793
f 824 841 809
f 858 863 859
f 860 858 861
f 442 444 845
f 851 873 863
f 851 864 865
f 784 786 843
f 867 843 844
f 869 821 870
f 868 844 821
f 861 868 869
f 867 868 861
f 862 869 871
f 855 859 863
f 864 863 858
f 850 854 855
f 858 857 856
f 822 383 440
f 844 823 822
f 849 851 866
f 791 793 859
f 834 444 443
f 853 875 817
f 846 852 875
f 447 405 838
f 840 805 806
f 856 789 784
f 828 836 838
f 369 809 841
f 864 860 876
f 860 862 872
f 768 767 774
f 767 937 774
f 774 775 743
f 768 774 745
f 775 874 866
f 775 866 743
f 866 865 743
f 771 769 746
f 769 768 745
f 773 770 747
f 770 771 746
f 330 772 301
f 772 773 747
f 747 301 772
f 746 747 770
f 769 745 746
f 774 743 745
f 865 876 744
f 743 865 744
f 872 871 741
f 871 870 742
f 741 871 742
f 876 872 741
f 870 820 742
f 820 440 302
f 742 820 302
f 762 760 825
f 760 761 837
f 761 315 447
f 761 447 837
f 764 762 825
f 760 837 825
f 765 763 827
f 763 764 825
f 827 763 825
f 777 936 766
f 766 765 815
f 777 766 815
f 765 827 832
f 874 775 852
f 775 777 875
f 852 775 875
f 765 832 815
f 817 875 777
f 878 877 782
f 880 781 877
f 781 880 881
f 883 885 882
f 884 780 882
f 780 884 752
f 886 915 290
f 887 890 737
f 888 891 730
f 889 892 729
f 890 886 736
f 891 887 734
f 892 888 727
f 467 889 739
f 790 792 801
f 792 795 794
f 797 792 794
f 797 799 792
f 799 801 792
f 801 803 790
f 803 804 790
f 804 808 790
f 808 810 787
f 787 810 788
f 810 811 785
f 811 368 812
f 810 785 788
f 368 373 812
f 812 785 811
f 398 395 360
f 889 467 463
f 463 466 889
f 466 462 889
f 462 465 461
f 461 464 462
f 464 460 462
f 460 915 886
f 886 890 460
f 890 887 460
f 887 891 888
f 888 892 887
f 892 889 887
f 889 462 887
