v 0.0555 -0.036968 0.003105
v 0.120175 0.041972 -0.027971
v 0.1461 -0.040627 -0.049222
v 0.140049 -0.007031 0.037616
v 0.086962 0.004868 -0.059304
v 0.055875 0.027639 0.025443
v 0.1461 0.040597 -0.048971
v 0.136824 -0.040803 0.031821
v 0.095999 -0.038519 -0.051427
v 0.138013 0.040526 0.031966
v 0.0555 0.012046 -0.03509
v 0.142913 -0.031703 0.027674
v 0.1461 0.001072 -0.059955
v 0.055875 -0.012198 0.035531
v 0.085721 -0.041638 -0.029868
v 0.055772 0.037366 0.003096
v 0.140405 0.041611 -0.046482
v 0.055651 -0.022993 -0.029541
v 0.1461 -0.038188 -0.039881
v 0.142358 0.034852 0.031724
v 0.141655 -0.03832 0.029356
v 0.129504 0.022707 -0.058177
v 0.101797 -0.018292 -0.059047
v 0.0555 0.009108 0.035965
v 0.095785 -0.039322 0.030068
v 0.061244 -0.006762 0.037489
v 0.094739 -0.041372 -0.045866
v 0.135919 -0.041809 -0.044689
v 0.086574 0.041681 -0.028899
v 0.097043 0.039745 0.030053
v 0.144471 0.041202 -0.041097
v 0.136851 0.040839 0.03098
v 0.0555 -0.022787 -0.029277
v 0.055762 -0.00617 -0.036975
v 0.1461 0.038222 -0.039889
v 0.139406 0.005413 0.038034
v 0.142093 -0.034865 0.032816
v 0.141682 0.038239 0.02949
v 0.139066 -0.040385 0.02914
v 0.1461 -0.040291 -0.040207
v 0.101797 0.008471 -0.060311
v 0.1461 0.024022 -0.057193
v 0.096209 0.037954 -0.052116
v 0.08885 -0.017284 -0.058169
v 0.1461 -0.02475 -0.057007
v 0.0555 -0.020292 0.031059
v 0.0555 0.032501 0.017871
v 0.097911 -0.039826 0.030095
v 0.140508 -0.037543 0.033123
v 0.055875 0 0.037567
v 0.095953 -0.040768 -0.048346
v 0.055762 -0.03634 -0.009202
v 0.143682 -0.041345 -0.040673
v 0.12056 -0.041972 -0.02816
v 0.093841 -0.041446 -0.04445
v 0.135917 0.041809 -0.044688
v 0.055762 0.017842 0.032969
v 0.102487 0.039388 0.031729
v 0.089695 0.039611 0.024184
v 0.144288 0.041051 -0.048236
v 0.090946 0.041693 -0.026834
v 0.139066 0.040385 0.02914
v 0.102492 0.039946 0.03086
v 0.055762 0.003096 -0.037359
v 0.0555 -0.006106 -0.036594
v 0.1461 0.035314 -0.039872
v 0.142932 0.031767 0.027277
v 0.141509 0.035727 0.033347
v 0.139453 -0.000829 0.038376
v 0.141296 0.013853 0.035268
v 0.142583 -0.032833 0.030593
v 0.1461 0.040729 -0.041675
v 0.1461 -0.040725 -0.041904
v 0.142852 -0.035926 0.024789
v 0.131103 0.011143 -0.060041
v 0.088584 -0.007755 -0.059715
v 0.1461 0.03554 -0.05361
v 0.091113 0.021977 -0.057671
v 0.055762 0.031383 -0.020503
v 0.095243 -0.033287 -0.054573
v 0.055762 -0.015058 -0.034329
v 0.131103 -0.011145 -0.060045
v 0.055762 -0.017842 0.032969
v 0.055875 -0.033039 0.01788
v 0.055762 0.031383 0.020503
v 0.055762 0.035456 0.012172
v 0.087992 -0.041712 -0.027786
v 0.061226 -0.038053 0.00175
v 0.101649 -0.039281 0.031731
v 0.139333 -0.004228 0.038182
v 0.141334 -0.035001 0.0335
v 0.141373 -0.037882 0.032345
v 0.055762 -0.00617 0.036975
v 0.096577 -0.039793 -0.050204
v 0.055762 -0.029582 -0.023025
v 0.141985 -0.041408 -0.047338
v 0.055772 -0.037366 -0.003096
v 0.0555 -0.033975 -0.014903
v 0.137907 -0.041768 -0.045528
v 0.139131 -0.040434 0.026978
v 0.131812 -0.041874 -0.039
v 0.12602 -0.041727 -0.044707
v 0.086661 -0.041517 -0.037332
v 0.136025 0.041755 -0.036241
v 0.089964 0.041604 -0.034908
v 0.094743 0.041387 -0.045797
v 0.0555 0.025127 0.027295
v 0.055875 0.012198 0.035531
v 0.098346 0.039361 0.031023
v 0.095323 0.039759 0.029016
v 0.06122 0.038052 0.00175
v 0.096513 0.040021 -0.049829
v 0.140237 0.039283 0.03207
v 0.119325 0.040387 0.031231
v 0.088047 0.014469 -0.05842
v 0.086825 7.2e-05 -0.059417
v 0.055762 -0.003096 -0.037359
v 0.0555 0.003064 -0.036973
v 0.14155 0.037536 0.032406
v 0.136049 0.040077 0.032555
v 0.061218 0.006761 0.037486
v 0.061244 -0.001099 0.038078
v 0.141891 0.030119 0.033524
v 0.140761 -0.009697 0.036556
v 0.14005 0.002411 0.037942
v 0.142344 -0.034852 0.031787
v 0.142602 0.032713 0.030481
v 0.142759 0.036271 0.024974
v 0.1461 0.040328 -0.040225
v 0.1461 0.040768 -0.041912
v 0.140992 -0.039084 0.029397
v 0.144302 -0.041193 -0.041006
v 0.142611 -0.036748 0.025238
v 0.101797 0.014196 -0.059692
v 0.131103 -0.000122 -0.060652
v 0.1461 0.012583 -0.059231
v 0.089954 -0.017123 -0.058594
v 0.087179 -0.007839 -0.059125
v 0.1461 0.033959 -0.054116
v 0.095979 0.034804 -0.054052
v 0.1461 0.038928 -0.05156
v 0.055651 0.022993 -0.029541
v 0.0555 0.035965 -0.009108
v 0.104219 -0.02558 -0.057485
v 0.094772 -0.035182 -0.053372
v 0.1461 -0.035359 -0.053672
v 0.055762 -0.012172 -0.035456
v 0.0555 -0.017658 -0.032628
v 0.131103 -0.020183 -0.058702
v 0.1461 -0.013717 -0.059089
v 0.101797 -0.008064 -0.060343
v 0.055762 -0.023025 0.029582
v 0.055567 -0.012128 0.035326
v 0.0555 -0.031059 0.020292
v 0.055762 -0.03634 0.009202
v 0.095039 0.039493 0.029573
v 0.0555 0.036577 0.006188
v 0.055875 0.033039 0.01788
v 0.091308 -0.039653 0.025814
v 0.119325 -0.040387 0.031231
v 0.089963 -0.041604 -0.034895
v 0.061218 -0.010173 0.036707
v 0.137586 -0.039814 0.032668
v 0.099388 -0.039685 0.030942
v 0.056 -0.015104 0.034433
v 0.139521 -0.006859 0.037793
v 0.141888 -0.034933 0.033202
v 0.139473 -0.0398 0.0322
v 0.0555 0 0.0371
v 0.094858 -0.040536 -0.048201
v 0.1461 -0.038697 -0.051786
v 0.126039 -0.040854 -0.048623
v 0.055651 -0.025354 -0.027541
v 0.1461 -0.040788 -0.048497
v 0.0555 -0.036577 -0.006188
v 0.055762 -0.037359 0.003096
v 0.137854 -0.041759 -0.04566
v 0.136034 -0.041733 -0.036224
v 0.055762 -0.034329 -0.015058
v 0.085647 -0.041552 -0.035824
v 0.131812 0.041874 -0.039
v 0.140291 0.041581 -0.046766
v 0.093829 0.041441 -0.04446
v 0.055567 0.027479 0.025296
v 0.0555 0.017174 0.032865
v 0.055762 0.00617 0.036975
v 0.100495 0.039841 0.030919
v 0.055762 0.023025 0.029582
v 0.100414 0.039277 0.031581
v 0.092409 0.039682 0.02707
v 0.098636 0.039845 0.030029
v 0.055772 0.037494 0
v 0.144221 0.040914 -0.048763
v 0.09438 0.04042 -0.047883
v 0.138924 0.040296 0.031175
v 0.136771 0.040779 0.031875
v 0.055762 0.009202 -0.03634
v 0.090129 0.022171 -0.057301
v 0.088767 0.009582 -0.059563
v 0.055762 0 -0.037487
v 0.141855 0.036425 0.032749
v 0.140846 0.0381 0.032813
v 0.141173 0.038214 0.032285
v 0.140499 0.037537 0.033124
v 0.119325 0.039561 0.032215
v 0.061244 0.010174 0.03671
v 0.061244 0.004589 0.037816
v 0.056 -0.003105 0.037472
v 0.061218 -0.004589 0.037814
v 0.141786 -0.02754 0.033864
v 0.142093 0.034865 0.032816
v 0.140006 -0.001134 0.038021
v 0.139408 0.002456 0.03831
v 0.140925 0.010961 0.036181
v 0.140467 0.00817 0.037104
v 0.142343 0.012682 0.0318
v 0.14283 -0.031764 0.028766
v 0.142104 -0.037034 0.030637
v 0.142858 0.031703 0.028463
v 0.142471 0.037176 0.025364
v 0.142876 0.035224 0.024868
v 0.140992 0.039084 0.029397
v 0.141668 -0.038528 0.027301
v 0.140953 -0.03853 0.032225
v 0.131103 0.01851 -0.058987
v 0.101797 0.022706 -0.058178
v 0.131328 0.00498 -0.060496
v 0.1461 -0.007587 -0.059693
v 0.101797 -0.013063 -0.05984
v 0.088162 -0.012599 -0.058938
v 0.09165 -0.02624 -0.056517
v 0.086959 -0.00481 -0.059306
v 0.104747 0.025575 -0.05748
v 0.096638 0.036833 -0.053069
v 0.096834 0.038697 -0.051548
v 0.093118 0.030942 -0.05498
v 0.0555 0.029063 -0.02304
v 0.101797 -0.022705 -0.058178
v 0.096638 -0.036833 -0.053069
v 0.128962 -0.023186 -0.057992
v 0.126102 -0.035078 -0.053955
v 0.090017 -0.021838 -0.057359
v 0.055762 -0.009202 -0.03634
v 0.0555 -0.020292 -0.031059
v 0.0555 -0.014903 -0.033975
v 0.131285 -0.015382 -0.059492
v 0.1461 -0.018764 -0.058249
v 0.131284 -0.005225 -0.060491
v 0.08824 3.6e-05 -0.060002
v 0.101797 0.002722 -0.060617
v 0.055567 -0.020429 0.031268
v 0.055651 -0.00919 0.036289
v 0.055762 -0.029582 0.023025
v 0.0555 -0.033975 0.014903
v 0.055762 -0.035456 0.012172
v 0.055762 0.029582 0.023025
v 0.096829 0.03918 0.03066
v 0.093385 0.039599 0.028377
v 0.055875 0.037054 0.006183
v 0.0555 0.03503 0.012201
v 0.055567 0.032848 0.017777
v 0.096084 -0.039778 0.029388
v 0.088574 -0.039582 0.022125
v 0.10295 -0.039958 0.030425
v 0.061244 -0.012273 0.036062
v 0.139487 -0.038813 0.032881
v 0.119325 -0.039561 0.032215
v 0.09775 -0.039345 0.030848
v 0.102485 -0.039839 0.031309
v 0.099292 -0.039036 0.031473
v 0.055651 -0.015037 0.034281
v 0.141893 -0.036249 0.03276
v 0.141574 -0.027592 0.034231
v 0.138119 -0.040481 0.031972
v 0.14015 -0.0394 0.032047
v 0.055651 -0.003091 0.037307
v 0.0555 -0.009108 0.035965
v 0.095999 -0.03963 -0.050235
v 0.094799 -0.041078 -0.047029
v 0.145949 -0.040667 -0.049167
v 0.0555 -0.024495 -0.027831
v 0.095621 -0.037632 -0.052012
v 0.095279 -0.036323 -0.052871
v 0.055762 -0.02758 -0.025389
v 0.1461 -0.040795 -0.048115
v 0.0555 -0.0371 0
v 0.055567 -0.036841 -0.006148
v 0.055772 -0.037494 0
v 0.055567 -0.036841 0.006148
v 0.055762 -0.035456 -0.012172
v 0.055567 -0.032848 -0.017777
v 0.095901 0.040783 -0.048279
v 0.12602 0.041727 -0.044707
v 0.086678 0.041522 -0.037315
v 0.0555 0.029063 0.02304
v 0.055651 0.015037 0.034281
v 0.055651 0.00919 0.036289
v 0.055651 0.003091 0.037307
v 0.055875 0.020547 0.031449
v 0.055567 0.020429 0.031268
v 0.055762 0.025389 0.02758
v 0.102485 0.039839 0.031309
v 0.093639 0.039714 0.028003
v 0.0555 0.0371 0
v 0.096685 0.039589 -0.05048
v 0.1461 0.040479 -0.049395
v 0.055762 0.02758 -0.025389
v 0.13877 0.040234 0.032014
v 0.137865 0.040197 0.032494
v 0.087368 0.009686 -0.058971
v 0.0555 0.009108 -0.035965
v 0.090021 0.017445 -0.05854
v 0.055762 0.012172 -0.035456
v 0.0555 0.001573 -0.037035
v 0.14213 0.037004 0.030745
v 0.141222 0.037471 0.032908
v 0.140278 0.03906 0.0325
v 0.141257 0.035219 0.03348
v 0.139353 0.038063 0.033005
v 0.100877 0.039077 0.031711
v 0.061218 0.001098 0.038075
v 0.056 0.003105 0.037472
v 0.141605 0.022733 0.034415
v 0.141875 0.011637 0.033577
v 0.1413 -0.013912 0.035256
v 0.14193 0.03543 0.033014
v 0.140121 -0.004143 0.037747
v 0.140271 -0.003 0.037585
v 0.140032 0.008291 0.037447
v 0.142615 -0.013143 0.030366
v 0.141881 -0.037072 0.031913
v 0.142467 -0.037174 0.025376
v 0.140704 0.038976 0.031611
v 0.140704 -0.038976 0.031611
v 0.141019 -0.037783 0.032883
v 0.13131 0.015133 -0.059524
v 0.131103 0.020171 -0.058704
v 0.094083 0.030665 -0.055414
v 0.131103 0.00372 -0.060564
v 0.131284 0.010072 -0.060138
v 0.1461 0.007703 -0.059686
v 0.1461 -0.008869 -0.059603
v 0.089119 -0.0123 -0.059274
v 0.087824 -0.007813 -0.059559
v 0.092351 -0.02605 -0.056712
v 0.094328 -0.033582 -0.054147
v 0.055762 -0.017842 -0.032969
v 0.126102 0.035078 -0.053955
v 0.116305 0.024335 -0.057788
v 0.095333 0.035054 -0.053822
v 0.096824 0.038116 -0.052096
v 0.055567 0.032848 -0.017777
v 0.0555 0.020292 -0.031059
v 0.096834 -0.038697 -0.051548
v 0.117184 -0.024249 -0.057808
v 0.1461 -0.028585 -0.055973
v 0.129917 -0.02155 -0.058426
v 0.095979 -0.034804 -0.054052
v 0.1461 -0.037807 -0.052323
v 0.091049 -0.026333 -0.056077
v 0.0555 -0.009108 -0.035965
v 0.088079 -0.014458 -0.058396
v 0.0555 -0.022046 -0.029807
v 0.131103 -0.018512 -0.058988
v 0.1461 -0.019181 -0.058166
v 0.101797 -0.003036 -0.060609
v 0.13131 -0.010316 -0.06011
v 0.131103 -0.003722 -0.060561
v 0.087474 7.2e-05 -0.05985
v 0.087991 0.004849 -0.059814
v 0.055567 -0.027479 0.025296
v 0.056 -0.00923 0.036449
v 0.055762 -0.031383 0.020503
v 0.055567 -0.032848 0.017777
v 0.055762 0.034329 0.015058
v 0.055567 0.036841 0.006148
v 0.055762 0.03634 0.009202
v 0.0555 0.033975 0.014903
v 0.092813 -0.039638 0.027683
v 0.138269 -0.040047 0.032533
v 0.055875 -0.020547 0.031449
v 0.101522 -0.03988 0.031023
v 0.136962 -0.040325 0.032461
v 0.0555 -0.014903 0.033975
v 0.138924 -0.040296 0.031175
v 0.0555 -0.006106 0.036594
v 0.095222 -0.04026 -0.048857
v 0.1461 -0.040729 -0.048787
v 0.0555 -0.029063 -0.02304
v 0.096209 -0.037954 -0.052116
v 0.09546 -0.039306 -0.050197
v 0.1461 -0.040795 -0.048159
v 0.0555 -0.035894 -0.009346
v 0.0555 -0.036969 -0.003101
v 0.055875 -0.037054 -0.006183
v 0.084768 -0.041536 -0.032845
v 0.0555 -0.035965 0.009108
v 0.055762 -0.031383 -0.020503
v 0.055875 -0.033039 -0.01788
v 0.094811 0.0411 -0.046958
v 0.096092 0.040595 -0.048714
v 0.126039 0.040854 -0.048623
v 0.084811 0.041407 -0.031505
v 0.055875 0.037054 -0.006183
v 0.0555 0.027295 0.025127
v 0.0555 0.031059 0.020292
v 0.055567 0.012128 0.035326
v 0.056 0.015104 0.034433
v 0.056 0.00923 0.036449
v 0.0555 0.006106 0.036594
v 0.055567 0 0.03735
v 0.0555 0.022787 0.029277
v 0.136751 0.040323 0.032465
v 0.095993 0.039645 -0.050212
v 0.055659 0.025358 -0.027547
v 0.055762 0.029582 -0.023025
v 0.139679 0.039585 0.032388
v 0.139345 0.039217 0.032755
v 0.08801 0.009653 -0.059405
v 0.055762 0.00617 -0.036975
v 0.08897 0.017604 -0.058151
v 0.089125 0.012139 -0.05927
v 0.101797 0.019877 -0.058761
v 0.0555 -0.001573 -0.037035
v 0.141881 0.037072 0.031913
v 0.141187 0.036358 0.033287
v 0.138196 0.039776 0.032644
v 0.061218 0.012272 0.03606
v 0.139225 0 0.038397
v 0.14164 -0.023526 0.034301
v 0.141521 0.010673 0.034657
v 0.141326 0.030215 0.03408
v 0.140548 -0.007123 0.037015
v 0.140271 0.003 0.037585
v 0.140113 0.005158 0.037693
v 0.14173 -0.037046 0.032487
v 0.141978 -0.038121 0.026325
v 0.14078 -0.038476 0.032615
v 0.140343 -0.038212 0.032955
v 0.141311 -0.036482 0.033183
v 0.1461 0.017426 -0.058496
v 0.129917 0.021544 -0.058427
v 0.092142 0.026474 -0.056535
v 0.102136 0.024381 -0.057767
v 0.103943 0.025504 -0.057505
v 0.1461 0.00895 -0.05957
v 0.1461 0.006787 -0.05974
v 0.1461 -0.010966 -0.059381
v 0.093103 -0.02926 -0.055755
v 0.102022 -0.02441 -0.057733
v 0.091023 -0.021644 -0.057742
v 0.093555 -0.032584 -0.054237
v 0.0555 -0.019438 -0.031568
v 0.0555 -0.01669 -0.033102
v 0.055762 -0.020503 -0.031383
v 0.103264 0.024077 -0.057866
v 0.096086 0.036486 -0.053181
v 0.094772 0.035182 -0.053372
v 0.126068 0.038512 -0.05188
v 0.0555 0.033793 -0.015275
v 0.0555 0.031059 -0.020292
v 0.055875 0.033039 -0.01788
v 0.055762 0.017842 -0.032969
v 0.096824 -0.038128 -0.052084
v 0.103091 -0.02428 -0.057817
v 0.130326 -0.022421 -0.058177
v 0.1461 -0.028218 -0.056083
v 0.095333 -0.035054 -0.053822
v 0.090262 -0.023764 -0.05668
v 0.0555 -0.00781 -0.036237
v 0.0555 -0.012046 -0.03509
v 0.087895 -0.004711 -0.059803
v 0.1461 -0.003331 -0.059833
v 0.0555 -0.024495 0.027831
v 0.0555 -0.029063 0.02304
v 0.055772 -0.025394 0.027585
v 0.055875 -0.027639 0.025443
v 0.094114 -0.039544 0.028838
v 0.0555 -0.032513 0.017852
v 0.055762 -0.034329 0.015058
v 0.0555 0.035965 0.009108
v 0.0555 0.036969 0.003101
v 0.0555 0.033793 0.015275
v 0.055875 -0.037054 0.006183
v 0.139118 -0.03938 0.032721
v 0.136054 -0.040098 0.032547
v 0.119318 -0.040151 0.031834
v 0.0555 -0.012046 0.03509
v 0.0555 -0.017077 0.032912
v 0.138848 -0.040235 0.03184
v 0.0555 -0.00781 0.036237
v 0.0555 -0.027295 -0.025127
v 0.0555 -0.031059 -0.020292
v 0.096015 -0.036905 -0.052896
v 0.0555 -0.035965 -0.009108
v 0.0555 -0.03503 -0.012201
v 0.0555 -0.036579 0.006179
v 0.0555 -0.035042 0.01217
v 0.086439 -0.041251 -0.037554
v 0.094901 0.04051 -0.048267
v 0.084866 0.041319 -0.034755
v 0.055762 0.035456 -0.012172
v 0.055567 0.036841 -0.006148
v 0.0555 0.014903 0.033975
v 0.0555 0.00781 0.036237
v 0.0555 -0.003064 0.036973
v 0.0555 0.003064 0.036973
v 0.0555 0.024495 0.027831
v 0.0555 0.020292 0.031059
v 0.119318 0.040114 0.031878
v 0.09546 0.039306 -0.050197
v 0.0555 0.027295 -0.025127
v 0.139888 0.038741 0.032853
v 0.0555 0.006106 -0.036594
v 0.089027 0.014374 -0.058931
v 0.0555 0 -0.0371
v 0.0555 -0.003064 -0.036973
v 0.141722 0.037044 0.032487
v 0.139878 -0.039203 0.032608
v 0.1461 0.016572 -0.058626
v 0.1461 0.021207 -0.057802
v 0.091165 0.026672 -0.055988
v 0.101791 0.023532 -0.057972
v 0.1461 0.012113 -0.059275
v 0.1461 -0.012173 -0.059253
v 0.101756 -0.023495 -0.057977
v 0.092199 -0.029462 -0.055217
v 0.093562 0.032579 -0.054234
v 0.095279 0.036323 -0.052871
v 0.0555 0.032513 -0.017852
v 0.086439 0.041251 -0.037554
v 0.055762 0.015058 -0.034329
v 0.0555 0.01669 -0.033102
v 0.055762 0.020503 -0.031383
v 0.126068 -0.038512 -0.05188
v 0.1461 -0.024862 -0.056978
v 0.096125 -0.036258 -0.053336
v 0.0555 -0.013822 -0.034397
v 0.0555 -0.022787 0.029277
v 0.0555 -0.027295 0.025127
v 0.0555 -0.025127 0.027295
v 0.0555 -0.033793 0.015275
v 0.0555 0.035894 0.009346
v 0.0555 -0.013822 0.034397
v 0.0555 -0.019438 0.031568
v 0.0555 -0.025127 -0.027295
v 0.0555 -0.032501 -0.017871
v 0.0555 -0.035894 0.009346
v 0.094699 0.040892 -0.047312
v 0.095202 0.040244 -0.048861
v 0.055762 0.037359 -0.003096
v 0.055762 0.03634 -0.009202
v 0.0555 0.035042 -0.01217
v 0.055762 0.034329 -0.015058
v 0.0555 0.036968 -0.003105
v 0.0555 0.012046 0.03509
v 0.0555 -0.001573 0.037035
v 0.0555 0.001573 0.037035
v 0.0555 0.019438 0.031568
v 0.0555 0.022046 0.029807
v 0.095978 0.038511 -0.05142
v 0.0555 0.025127 -0.027295
v 0.0555 0.00781 -0.036237
v 0.1461 0.020268 -0.057979
v 0.091768 0.024115 -0.057164
v 0.095656 0.037804 -0.051873
v 0.095458 0.036856 -0.052563
v 0.0555 0.014903 -0.033975
v 0.09026 0.023765 -0.056682
v 0.0555 0.017658 -0.032628
v 0.0555 -0.022046 0.029807
v 0.0555 -0.033793 -0.015275
v 0.0555 0.035894 -0.009346
v 0.0555 0.033975 -0.014903
v 0.0555 0.036579 -0.006179
v 0.0555 0.013822 0.034397
v 0.0555 0.022787 -0.029277
v 0.0555 0.013822 -0.034397
v 0.0555 0.019438 -0.031568
v 0.0555 0.024495 -0.027831
v 0.0555 0.022046 -0.029807
f 32 31 17
f 40 19 12
f 60 31 7
f 60 17 31
f 61 32 2
f 61 2 29
f 61 29 32
f 62 32 10
f 62 31 32
f 66 12 19
f 67 66 35
f 67 12 66
f 74 40 12
f 87 54 8
f 90 4 69
f 96 27 51
f 99 53 8
f 99 96 53
f 100 53 39
f 100 39 8
f 100 8 53
f 101 54 28
f 101 8 54
f 101 28 99
f 102 55 27
f 103 27 55
f 104 2 32
f 104 32 17
f 104 17 56
f 105 29 2
f 105 2 56
f 111 59 29
f 111 16 59
f 114 32 29
f 114 29 63
f 116 64 5
f 117 34 65
f 122 90 69
f 127 20 71
f 129 67 35
f 129 72 128
f 130 7 31
f 130 31 62
f 130 38 72
f 131 39 73
f 132 73 39
f 132 39 53
f 133 73 40
f 133 40 74
f 134 75 41
f 138 34 117
f 139 42 22
f 139 22 77
f 158 85 156
f 159 15 87
f 160 87 8
f 161 28 54
f 161 54 87
f 162 89 26
f 165 89 14
f 166 26 49
f 166 49 91
f 166 91 4
f 166 4 90
f 167 4 91
f 171 3 94
f 172 51 94
f 172 96 51
f 174 53 96
f 176 88 159
f 177 27 96
f 177 96 99
f 177 102 27
f 177 99 28
f 177 28 102
f 178 101 99
f 178 99 8
f 178 8 101
f 180 87 15
f 180 161 87
f 180 103 55
f 180 55 102
f 180 102 28
f 180 28 161
f 181 104 56
f 181 56 2
f 181 2 104
f 182 106 56
f 182 56 17
f 182 17 60
f 187 30 109
f 189 187 109
f 190 29 59
f 190 59 16
f 191 63 29
f 191 29 110
f 191 187 63
f 191 110 30
f 191 30 187
f 192 111 29
f 192 16 111
f 193 60 7
f 193 182 60
f 195 62 10
f 196 10 32
f 196 32 114
f 199 134 41
f 200 64 116
f 200 116 117
f 203 119 38
f 204 121 36
f 205 121 120
f 205 120 58
f 205 58 121
f 206 121 58
f 207 36 121
f 208 93 26
f 208 122 50
f 209 90 122
f 209 208 26
f 209 122 208
f 209 166 90
f 209 26 166
f 210 167 37
f 211 123 37
f 211 20 201
f 212 125 69
f 212 69 4
f 213 69 125
f 213 36 207
f 216 126 71
f 216 71 20
f 216 20 211
f 216 211 37
f 216 37 126
f 217 126 74
f 217 74 12
f 217 71 126
f 218 133 74
f 218 74 126
f 219 20 127
f 219 127 217
f 219 217 12
f 219 12 67
f 220 128 72
f 221 129 128
f 221 67 129
f 221 219 67
f 221 128 20
f 221 20 219
f 222 130 62
f 222 195 113
f 222 62 195
f 222 38 130
f 223 131 73
f 223 73 21
f 223 21 131
f 224 21 92
f 229 23 137
f 229 76 151
f 229 151 82
f 230 137 44
f 230 34 138
f 232 138 117
f 232 117 116
f 234 141 77
f 238 137 23
f 238 23 149
f 241 144 146
f 242 147 44
f 242 81 147
f 242 44 137
f 243 65 34
f 243 34 230
f 243 44 147
f 245 147 81
f 246 82 150
f 246 229 82
f 246 23 229
f 252 153 14
f 256 156 85
f 256 6 156
f 256 184 6
f 257 109 30
f 257 30 156
f 257 156 6
f 257 188 109
f 258 156 30
f 258 30 110
f 258 158 156
f 259 190 16
f 259 258 190
f 261 85 158
f 262 159 87
f 262 87 48
f 262 48 25
f 263 159 88
f 263 88 15
f 263 15 159
f 264 48 87
f 264 87 160
f 265 162 14
f 265 14 89
f 265 89 162
f 266 49 26
f 266 26 163
f 267 163 26
f 267 26 89
f 268 25 48
f 268 48 164
f 269 89 164
f 270 165 83
f 270 89 165
f 270 268 164
f 270 164 89
f 271 83 165
f 271 165 14
f 271 14 153
f 271 251 83
f 272 37 167
f 272 126 37
f 273 4 167
f 273 210 124
f 273 167 210
f 274 8 39
f 276 208 50
f 276 93 208
f 277 153 252
f 278 94 51
f 279 170 51
f 279 51 27
f 279 27 103
f 279 103 170
f 280 172 94
f 280 94 3
f 280 96 172
f 280 174 96
f 281 33 18
f 281 18 173
f 283 173 18
f 283 18 145
f 283 282 173
f 284 170 95
f 285 132 53
f 285 73 132
f 286 176 1
f 288 286 97
f 288 176 286
f 288 15 88
f 288 88 176
f 289 1 176
f 290 98 179
f 290 180 52
f 290 179 103
f 290 103 180
f 291 179 98
f 293 183 105
f 293 105 56
f 293 56 106
f 293 106 183
f 294 29 105
f 294 105 183
f 294 183 106
f 295 184 256
f 299 109 188
f 299 189 109
f 299 57 189
f 300 299 188
f 300 57 299
f 300 296 57
f 300 185 296
f 301 184 107
f 301 6 184
f 301 257 6
f 301 188 257
f 302 189 58
f 302 187 189
f 302 63 187
f 302 196 114
f 302 114 63
f 303 110 29
f 303 29 190
f 303 258 110
f 303 190 258
f 304 16 192
f 305 112 193
f 305 141 235
f 306 193 7
f 306 305 193
f 306 141 305
f 308 195 10
f 309 10 196
f 309 308 10
f 310 197 115
f 312 198 78
f 312 78 226
f 313 115 197
f 313 311 11
f 313 197 311
f 314 118 64
f 314 64 200
f 315 201 20
f 315 20 128
f 315 128 220
f 315 220 72
f 315 72 38
f 315 38 119
f 316 201 119
f 316 68 201
f 316 203 202
f 316 119 203
f 316 202 204
f 317 203 113
f 317 202 203
f 318 204 36
f 318 36 68
f 319 120 121
f 319 121 204
f 320 189 108
f 320 206 58
f 320 58 189
f 321 50 122
f 321 213 207
f 322 207 121
f 322 121 186
f 322 186 298
f 322 298 50
f 322 321 207
f 322 50 321
f 323 210 123
f 323 214 70
f 323 215 214
f 323 123 215
f 324 210 37
f 324 37 123
f 324 123 210
f 325 70 214
f 325 214 124
f 326 211 201
f 326 201 68
f 326 123 211
f 326 215 123
f 327 212 4
f 328 212 327
f 329 36 213
f 329 68 36
f 330 217 127
f 330 127 71
f 330 71 217
f 331 92 21
f 331 21 218
f 331 218 126
f 331 126 272
f 332 218 21
f 332 73 133
f 332 133 218
f 333 203 38
f 333 38 222
f 333 222 113
f 333 113 203
f 334 131 21
f 334 21 224
f 334 275 131
f 334 224 275
f 336 75 134
f 336 134 225
f 336 136 75
f 337 22 42
f 339 13 135
f 339 135 250
f 339 250 41
f 339 41 227
f 340 227 41
f 340 41 75
f 340 75 136
f 341 227 340
f 342 248 228
f 343 229 137
f 343 76 229
f 343 137 230
f 344 230 138
f 344 138 232
f 344 343 230
f 344 76 343
f 347 245 81
f 348 233 140
f 348 77 233
f 348 234 77
f 348 140 234
f 349 233 77
f 349 77 22
f 350 338 236
f 350 140 338
f 351 234 43
f 351 43 235
f 354 171 94
f 354 94 278
f 355 146 144
f 356 355 240
f 356 146 355
f 357 149 45
f 357 240 355
f 357 238 149
f 358 80 144
f 358 144 241
f 358 241 239
f 359 241 146
f 359 171 239
f 359 239 241
f 360 347 81
f 361 243 147
f 362 243 230
f 362 230 44
f 362 44 243
f 363 244 18
f 363 18 33
f 364 246 150
f 364 247 149
f 364 150 247
f 364 149 23
f 364 23 246
f 365 45 149
f 365 149 247
f 366 248 151
f 366 250 135
f 366 249 250
f 366 151 76
f 367 82 151
f 367 151 248
f 367 342 82
f 367 248 342
f 368 135 13
f 368 366 135
f 368 248 366
f 368 228 248
f 369 232 116
f 369 116 5
f 370 250 249
f 370 249 369
f 370 199 41
f 370 41 250
f 370 369 5
f 372 252 14
f 372 14 162
f 372 162 26
f 372 26 93
f 372 93 252
f 373 253 154
f 373 25 253
f 374 373 154
f 374 84 373
f 375 258 86
f 375 158 258
f 375 261 158
f 376 259 16
f 377 86 258
f 377 258 259
f 377 259 376
f 378 261 375
f 378 375 86
f 378 86 260
f 379 255 155
f 379 159 262
f 380 274 168
f 381 251 152
f 381 152 268
f 381 268 270
f 381 270 83
f 381 83 251
f 382 160 8
f 382 8 269
f 382 264 160
f 382 48 264
f 382 269 164
f 382 164 48
f 383 380 163
f 383 8 274
f 383 274 380
f 384 271 153
f 385 274 39
f 385 275 168
f 385 39 131
f 385 131 275
f 386 252 93
f 386 93 276
f 387 278 51
f 387 51 170
f 388 280 3
f 388 174 280
f 389 284 95
f 390 9 282
f 390 354 278
f 390 278 9
f 391 282 9
f 391 284 173
f 391 173 282
f 391 387 170
f 391 170 284
f 391 9 278
f 391 278 387
f 392 285 53
f 392 53 174
f 394 175 287
f 394 287 97
f 394 97 286
f 395 180 97
f 395 97 287
f 395 287 52
f 395 52 180
f 396 180 15
f 396 15 288
f 396 288 97
f 396 97 180
f 397 289 155
f 397 155 255
f 398 95 170
f 399 398 170
f 399 291 398
f 399 103 179
f 399 179 291
f 400 106 182
f 400 182 292
f 400 294 106
f 401 193 112
f 402 292 182
f 402 182 193
f 402 401 292
f 402 193 401
f 403 192 29
f 403 29 294
f 405 107 184
f 405 184 295
f 406 261 47
f 406 85 261
f 406 295 256
f 406 256 85
f 407 24 297
f 407 297 108
f 407 108 296
f 408 189 57
f 408 57 296
f 408 296 108
f 408 108 189
f 409 206 108
f 409 108 297
f 409 121 206
f 409 297 186
f 409 186 121
f 410 298 186
f 410 186 297
f 411 276 50
f 411 50 298
f 412 300 188
f 413 58 120
f 413 309 196
f 414 305 235
f 414 235 43
f 414 112 305
f 414 401 112
f 416 307 237
f 416 79 194
f 416 194 307
f 417 113 195
f 417 195 308
f 417 317 113
f 417 308 309
f 418 417 309
f 418 317 417
f 419 310 115
f 419 199 370
f 419 370 5
f 419 5 310
f 420 310 5
f 420 5 64
f 420 197 310
f 421 198 312
f 421 313 198
f 421 115 313
f 422 312 134
f 422 134 199
f 422 199 419
f 423 312 226
f 423 134 312
f 423 337 225
f 423 225 134
f 424 200 117
f 425 315 119
f 425 201 315
f 426 316 204
f 426 68 316
f 426 318 68
f 426 204 318
f 427 319 204
f 427 120 319
f 427 204 418
f 427 418 309
f 427 413 120
f 427 309 413
f 428 320 108
f 428 108 206
f 428 206 320
f 429 321 122
f 429 122 69
f 429 69 213
f 429 213 321
f 430 325 124
f 430 124 210
f 430 210 323
f 431 323 70
f 431 70 325
f 431 430 323
f 431 325 430
f 432 326 68
f 432 215 326
f 432 329 215
f 432 68 329
f 433 273 124
f 433 327 4
f 433 4 273
f 433 328 327
f 433 124 214
f 434 125 212
f 434 212 328
f 434 215 125
f 434 214 215
f 434 433 214
f 434 328 433
f 435 329 213
f 435 213 125
f 435 125 215
f 435 215 329
f 436 331 272
f 436 92 331
f 436 335 92
f 436 272 335
f 437 332 21
f 437 21 73
f 437 73 332
f 438 224 92
f 438 92 335
f 438 275 224
f 439 335 49
f 439 49 266
f 439 438 335
f 440 91 49
f 440 49 335
f 440 167 91
f 440 335 272
f 440 272 167
f 441 336 225
f 441 225 337
f 442 226 22
f 442 22 337
f 442 423 226
f 442 337 423
f 443 78 198
f 443 236 338
f 444 443 338
f 445 338 140
f 445 140 233
f 445 444 338
f 445 233 349
f 446 341 340
f 447 339 227
f 447 227 341
f 447 13 339
f 448 82 342
f 449 144 80
f 449 231 345
f 450 449 345
f 450 144 449
f 451 137 238
f 451 242 137
f 451 345 231
f 451 231 242
f 452 346 145
f 452 145 18
f 453 347 244
f 453 148 347
f 454 347 148
f 454 245 347
f 455 18 244
f 455 244 347
f 455 452 18
f 456 349 22
f 456 22 226
f 456 445 349
f 456 444 445
f 457 234 140
f 457 140 350
f 457 43 234
f 459 351 235
f 459 235 141
f 459 141 234
f 459 234 351
f 461 352 79
f 461 416 237
f 461 79 416
f 462 194 79
f 462 79 352
f 464 390 239
f 464 354 390
f 465 355 144
f 465 144 450
f 465 357 355
f 465 238 357
f 466 240 357
f 467 240 466
f 467 466 357
f 467 356 240
f 468 80 358
f 468 145 346
f 468 449 80
f 468 346 449
f 468 283 145
f 469 242 231
f 469 231 360
f 469 360 81
f 469 81 242
f 470 65 243
f 470 243 361
f 471 361 147
f 472 366 76
f 472 249 366
f 472 369 249
f 472 76 344
f 472 344 232
f 472 232 369
f 473 368 13
f 473 228 368
f 475 154 253
f 475 253 371
f 476 268 152
f 477 371 253
f 477 253 25
f 477 476 371
f 477 25 268
f 477 268 476
f 478 373 84
f 478 25 373
f 478 379 262
f 478 262 25
f 479 374 154
f 480 84 374
f 480 374 254
f 480 254 255
f 480 478 84
f 480 255 379
f 480 379 478
f 481 376 157
f 481 377 376
f 481 86 377
f 482 157 376
f 482 376 16
f 482 16 304
f 483 47 261
f 483 261 378
f 484 379 155
f 484 155 289
f 484 289 176
f 484 176 159
f 484 159 379
f 485 266 163
f 485 163 380
f 485 439 266
f 486 267 89
f 486 89 383
f 486 383 163
f 486 163 267
f 487 383 89
f 487 89 269
f 487 269 8
f 487 8 383
f 488 153 277
f 489 251 271
f 489 271 384
f 490 385 168
f 490 168 274
f 490 274 385
f 491 277 252
f 491 252 386
f 492 173 284
f 492 284 389
f 493 398 291
f 493 389 95
f 493 95 398
f 494 390 282
f 494 282 283
f 494 283 468
f 494 239 390
f 495 287 175
f 495 52 287
f 495 393 290
f 495 290 52
f 496 98 290
f 496 290 393
f 497 1 289
f 497 289 397
f 498 255 254
f 499 399 170
f 499 170 103
f 499 103 399
f 500 400 292
f 500 292 401
f 501 403 294
f 501 192 403
f 504 407 296
f 504 296 185
f 505 410 297
f 505 297 24
f 506 386 276
f 506 276 411
f 507 411 298
f 507 298 410
f 508 301 107
f 508 412 188
f 508 188 301
f 510 302 58
f 510 58 413
f 510 413 196
f 510 196 302
f 511 307 194
f 511 415 307
f 512 237 307
f 512 307 415
f 513 418 204
f 513 204 202
f 513 202 317
f 513 317 418
f 514 197 420
f 514 420 64
f 514 64 118
f 515 419 115
f 515 115 421
f 515 421 312
f 515 422 419
f 515 312 422
f 516 314 200
f 516 200 424
f 517 424 117
f 517 117 65
f 518 425 119
f 518 119 201
f 518 201 425
f 519 168 275
f 519 275 438
f 519 485 380
f 519 380 168
f 519 438 439
f 519 439 485
f 520 136 336
f 520 336 441
f 521 337 42
f 522 443 198
f 522 236 443
f 523 226 78
f 523 456 226
f 523 444 456
f 524 446 340
f 524 340 136
f 525 150 82
f 525 82 448
f 526 450 345
f 526 451 238
f 526 345 451
f 526 465 450
f 526 238 465
f 527 360 231
f 527 452 455
f 527 231 449
f 527 455 347
f 527 347 360
f 527 449 346
f 527 346 452
f 528 458 350
f 528 350 236
f 528 142 458
f 529 458 142
f 529 142 415
f 529 457 350
f 529 350 458
f 530 460 352
f 530 352 461
f 531 462 294
f 531 294 194
f 531 194 462
f 532 198 313
f 532 463 522
f 534 463 353
f 534 353 142
f 534 528 236
f 534 142 528
f 534 522 463
f 534 236 522
f 535 464 239
f 535 239 171
f 535 171 354
f 535 354 464
f 536 467 357
f 536 357 45
f 537 468 358
f 537 358 239
f 537 494 468
f 537 239 494
f 538 471 147
f 538 147 245
f 539 474 152
f 539 152 251
f 540 475 371
f 541 371 476
f 541 476 152
f 541 152 474
f 541 540 371
f 542 254 374
f 542 374 479
f 543 260 86
f 543 86 481
f 544 384 153
f 544 153 488
f 545 46 251
f 545 251 489
f 546 281 173
f 546 173 492
f 547 493 291
f 548 397 255
f 548 255 498
f 549 500 194
f 549 194 294
f 549 294 400
f 549 400 500
f 550 500 401
f 550 401 414
f 550 414 511
f 550 511 194
f 550 194 500
f 551 192 501
f 551 501 294
f 551 294 404
f 551 404 503
f 551 304 192
f 552 404 294
f 552 294 502
f 552 503 404
f 552 502 143
f 552 143 503
f 554 502 294
f 554 294 462
f 554 462 352
f 555 551 503
f 555 304 551
f 556 24 407
f 557 506 411
f 557 411 169
f 558 169 411
f 558 411 507
f 559 185 300
f 559 300 509
f 560 509 300
f 560 300 412
f 561 511 414
f 561 414 43
f 562 512 415
f 562 415 142
f 563 311 197
f 563 197 514
f 564 441 337
f 564 337 521
f 564 521 42
f 564 520 441
f 564 136 520
f 564 42 139
f 564 524 136
f 564 139 77
f 564 446 524
f 564 77 141
f 564 341 446
f 564 141 306
f 564 447 341
f 564 306 7
f 564 13 447
f 564 7 130
f 564 473 13
f 564 130 72
f 564 228 473
f 564 72 129
f 564 342 228
f 564 129 35
f 564 448 342
f 564 35 66
f 564 525 448
f 564 66 19
f 564 150 525
f 564 19 40
f 564 247 150
f 564 40 73
f 564 365 247
f 564 73 285
f 564 536 45
f 564 45 365
f 564 285 392
f 564 392 174
f 564 174 388
f 564 388 3
f 564 3 171
f 564 171 359
f 564 359 146
f 564 146 356
f 564 356 467
f 564 467 536
f 565 523 78
f 565 78 443
f 565 443 444
f 565 444 523
f 566 415 511
f 566 511 561
f 566 561 43
f 567 43 457
f 567 457 529
f 567 566 43
f 567 529 415
f 567 415 566
f 568 532 313
f 568 533 463
f 568 463 532
f 569 532 522
f 569 522 198
f 569 198 532
f 570 463 533
f 571 539 251
f 571 251 46
f 572 547 291
f 572 291 98
f 573 143 502
f 573 502 553
f 574 554 352
f 574 352 460
f 574 553 502
f 574 502 554
f 575 555 503
f 575 503 143
f 576 556 407
f 576 407 504
f 578 568 313
f 578 313 11
f 579 353 463
f 579 463 570
f 580 562 142
f 580 142 577
f 581 577 142
f 581 580 577
f 581 142 353
f 581 353 579
f 581 579 570
f 581 570 533
f 581 533 568
f 581 568 578
f 581 578 11
f 581 11 311
f 581 311 563
f 581 563 514
f 581 514 118
f 581 118 314
f 581 314 516
f 581 516 424
f 581 424 517
f 581 517 65
f 581 65 470
f 581 470 361
f 581 361 471
f 581 471 538
f 581 538 245
f 581 245 454
f 581 454 148
f 581 148 453
f 581 453 244
f 581 244 363
f 581 363 33
f 581 33 281
f 581 281 546
f 581 546 492
f 581 492 389
f 581 389 493
f 581 493 547
f 581 547 572
f 581 572 98
f 581 98 496
f 581 496 393
f 581 393 495
f 581 495 175
f 581 175 394
f 581 394 286
f 581 286 1
f 581 1 497
f 581 497 397
f 581 397 548
f 581 548 498
f 581 498 254
f 581 254 542
f 581 542 479
f 581 479 154
f 581 154 475
f 581 475 540
f 581 540 541
f 581 541 474
f 581 474 539
f 581 539 571
f 581 571 46
f 581 46 545
f 581 545 489
f 581 489 384
f 581 384 544
f 581 544 488
f 581 488 277
f 581 277 491
f 581 491 386
f 581 386 506
f 581 506 557
f 581 557 169
f 581 169 558
f 581 558 507
f 581 507 410
f 581 410 505
f 581 505 24
f 581 24 556
f 581 556 576
f 581 576 504
f 581 504 185
f 581 185 559
f 581 559 509
f 581 509 560
f 581 560 412
f 581 412 508
f 581 508 107
f 581 107 405
f 581 405 295
f 581 295 406
f 581 406 47
f 581 47 483
f 581 483 378
f 581 378 260
f 581 260 543
f 581 543 481
f 581 481 157
f 581 157 482
f 581 482 304
f 581 304 555
f 581 555 575
f 581 575 143
f 581 143 573
f 581 573 553
f 581 553 574
f 581 574 460
f 581 460 530
f 581 530 461
f 581 461 237
f 581 237 512
f 581 512 562
f 581 562 580
