v -0.030085 0 0.001601
v 0.368332 0.0085 0
v 0.328308 -0.042929 0.009881
v 0.252038 -0.013837 -0.032288
v 0.141004 0.013833 0.032342
v -0.007181 -0.029277 -0.026798
v 0.347942 -0.033173 -0.025828
v -0.002082 0.030752 -0.019809
v 0 -0.02881 0.028014
v 0.338552 0.01305 0.029604
v 0.34275 0.016393 -0.027611
v 0.363311 -0.035761 0.0085
v 0.338549 -0.033173 -0.0275
v -0.020846 0.007777 -0.022759
v -0.00611 0.030895 0.018804
v 0.084003 -0.0394 -1e-06
v -0.02706 -0.02881 0.007251
v 0.338549 -0.033173 0.0275
v 0.358365 0.007521 -0.022296
v 0.119036 0.015735 -0.031894
v 0.304061 0.038649 0.006781
v 0.358594 -0.035761 -0.016852
v 0.358366 0.007521 0.022295
v 0 -0.02881 -0.028014
v 0.343993 -0.007521 -0.029359
v -0.023483 0.025889 -0.003414
v -0.003157 0.010256 0.029576
v 0.096554 -0.038319 0.008534
v 0.334036 -0.035761 -0.025842
v -0.024141 -0.029162 -0.013938
v -0.013938 -0.029162 0.024141
v 0.325431 -0.041342 0.01595
v 0.290087 -0.006858 0.032832
v 0.365069 0.016393 -0.008633
v 0.267125 0.0105 -0.032653
v 0.256175 0.028615 -0.025162
v -0.00316 0.010246 -0.029578
v 0.280754 0.03009 0.023612
v 0.084291 0.039498 3.4e-05
v 0.364328 -0.035761 -0.004552
v 0.356999 -0.019653 -0.022466
v 0.366261 -0.007521 0.01102
v 0.358692 0.016393 0.019305
v 0.356198 -0.033173 0.021049
v 0.350063 0 0.027824
v 0.106133 0 -0.033039
v 0.343852 -0.019653 -0.028606
v 0.349918 0.01305 -0.027266
v -0.028818 0.010274 -0.007203
v -0.014698 0.025885 -0.018629
v -0.015296 0.032 -0.004328
v -0.02404 0.010262 0.017517
v 0.106073 -0.006882 0.032789
v 0.106126 0.020813 0.029943
v 0.093984 -0.038955 0.005665
v 0.324808 -0.042886 0.003427
v 0.083522 -0.038628 -0.00625
v 0.342982 -0.035761 -0.02584
v -0.015887 -0.007535 -0.027616
v -0.028014 -0.02881 0
v -0.013821 -0.029309 -0.023938
v -0.024141 -0.029162 0.013938
v -0.009231 -0.007329 0.02841
v 0.33407 -0.035761 0.025848
v 0.327027 -0.042105 0.013482
v -0.007114 -0.029389 0.026546
v 0.340235 0 0.030081
v 0.289874 0.013926 0.03218
v 0.297332 0.039074 -0.004966
v 0.271993 -0.006812 -0.03275
v 0.33855 0.01305 -0.029604
v 0.119156 0.026649 -0.02669
v 0.258701 0.020977 -0.030101
v 0.112953 0.036202 0.014768
v 0.311597 0.030848 0.020107
v 0.364726 -0.035761 0
v 0.363311 -0.035761 -0.0085
v 0.356198 -0.033173 -0.021049
v 0.351139 -0.007521 -0.027063
v 0.349967 0.0138 0.026942
v 0.365735 0.016393 0.006216
v 0.362638 -0.007521 0.017593
v 0.357002 -0.019653 0.022463
v 0.347942 -0.033173 0.025828
v 0.112128 -0.006973 -0.032619
v 0.111418 0.0105 -0.032657
v -0.010014 -0.007535 -0.029587
v 0.343319 -0.033173 -0.027075
v 0.358133 0.0138 -0.021751
v -0.026177 -0.007329 -0.014391
v -0.013089 0.007777 -0.029012
v -0.019615 0.025277 -0.014089
v -0.018195 0.030752 0.008102
v -0.009865 0.032 -0.012822
v -0.009865 0.032 0.012822
v -0.028826 0.010264 0.007202
v -0.012075 0.025277 0.020915
v -0.001876 -0.007329 0.029813
v 0.106079 0.006734 0.032793
v 0.113018 -0.014022 0.032194
v 0.106098 0.013851 0.032149
v -0.002231 0.025277 0.02402
v 0.112982 0.029851 0.023805
v 0.094342 -0.039286 0.003529
v 0.325467 -0.042929 0.005537
v 0.360013 -0.035761 -0.015
v 0.083245 -0.037702 -0.009115
v 0.095664 -0.039473 -0.001148
v 0.351626 -0.035761 -0.022704
v -0.028301 -0.018093 0.007266
v -0.026798 -0.029277 -0.007181
v -0.013112 -0.007535 -0.029081
v -0.019809 -0.02881 -0.019809
v 0.0836 -0.039199 0.002295
v -0.0213 -0.018093 0.020002
v -0.016505 0.010215 0.024727
v 0.347483 -0.035761 0.024638
v 0.083366 -0.038353 0.007197
v -0.009029 -0.018093 0.027789
v 0.343855 -0.019653 0.028605
v 0.290085 0.006713 0.032837
v 0.288626 0.024271 0.028129
v 0.255395 0.01754 0.031459
v 0.301976 0.03908 0.0023
v 0.291178 0.034715 -0.016144
v 0.3365 -0.007521 -0.029802
v 0.26639 0 -0.033093
v 0.336551 -0.019653 -0.029037
v 0.271604 -0.013879 -0.032101
v 0.345689 0.007521 -0.028991
v 0.345625 0.01305 -0.028734
v 0.119298 0.034741 -0.017612
v -0.002269 0.025277 -0.024023
v 0.245476 0.015848 -0.031931
v 0.256079 0.026276 -0.027044
v 0.133509 0.021464 -0.029925
v 0.276097 0.021602 -0.029302
v 0.277988 0.036323 0.014562
v 0.083378 0.038214 0.008075
v 0.30809 0.035707 0.014052
v 0.364328 -0.035761 0.004551
v 0.367371 -0.019653 -0.003658
v 0.352279 -0.033173 -0.023799
v 0.350814 -0.019653 -0.026368
v 0.352411 0.007521 -0.026431
v 0.357486 -0.007521 -0.023058
v 0.356424 0.01305 0.023547
v 0.34275 0.016393 0.027611
v 0.345691 0.007521 0.02899
v 0.366422 0.016393 0.000626
v 0.3614 0.016393 0.016
v 0.366432 0.007521 0.01058
v 0.362324 -0.033173 0.013736
v 0.358597 0 0.02245
v 0.350817 -0.019653 0.026367
v 0.172571 -0.013866 -0.031906
v 0.252105 -0.006635 -0.032873
v -0.002666 0.007329 -0.029753
v 0.104517 0.015744 -0.031637
v -0.001835 -0.018093 -0.029161
v 0.343618 -0.0305 -0.027356
v 0.347481 -0.035761 -0.024639
v 0.366184 0.01305 -0.010488
v 0.352828 0.016393 -0.023982
v -0.026733 0.010248 -0.013004
v -0.020902 -0.007535 -0.022806
v -0.015843 0.007777 -0.027558
v -0.017882 0.030948 -0.007961
v -0.012485 0.032 -0.009865
v 0.083363 0.038192 -0.008153
v -0.009824 0.030876 -0.017014
v -0.014744 0.032 0.006565
v -0.013328 0.030752 0.014802
v -0.029751 0.010215 0
v -0.02369 0.025581 0.003444
v -0.001835 -0.018093 0.029161
v -0.007461 0 0.02916
v 0.106072 -7.8e-05 0.032943
v 0.113012 -0.017579 0.031285
v 0.283274 -0.014106 0.032179
v 0.141132 -0.006834 0.032866
v 0.106111 0.017394 0.031261
v 0.11302 0.013842 0.032252
v -0.010227 0.010215 0.027938
v -0.008849 0.025804 0.022206
v 0.106192 0.032285 0.020903
v 0.106159 0.027073 0.02611
v 0.362016 -0.019653 -0.017145
v 0.35958 -0.033173 -0.01766
v 0.355378 -0.035761 -0.020074
v -0.025605 -0.018093 0.014076
v -0.029219 -0.018093 0
v -0.028934 -0.007329 0.007429
v -0.028301 -0.018093 -0.007266
v -0.013195 0 -0.029331
v -0.019809 -0.02881 0.019809
v -0.014699 0.025889 0.01863
v -0.02324 0 0.019172
v -0.015966 -0.007329 0.025241
v 0.342976 -0.035761 0.025841
v 0.352279 -0.033173 0.023799
v 0.358595 -0.035761 0.016851
v 0.35163 -0.035761 0.022702
v 0.289877 -0.014113 0.032149
v 0.343319 -0.033173 0.027075
v 0.343996 -0.007521 0.029359
v 0.338552 0.007521 0.029869
v 0.290134 -7.8e-05 0.032985
v 0.255565 0.013898 0.032331
v 0.141114 0.006688 0.032895
v 0.289589 0.017533 0.031263
v 0.293994 0.027236 0.025597
v 0.255098 0.021039 0.030134
v 0.366183 0.016393 -0.00375
v 0.360916 0.016393 -0.016648
v 0.299585 0.0395 4.7e-05
v 0.27829 0.031255 -0.021914
v 0.340233 0 -0.030081
v 0.141728 0.0105 -0.032722
v 0.350062 0 -0.027825
v 0.340829 0.014631 -0.02886
v 0.348316 0.016393 -0.026155
v 0.119227 0.031132 -0.022551
v 0.265953 0.037462 -0.011854
v 0.104518 0.02661 -0.02638
v -0.010014 0.007927 -0.029434
v -0.008899 0.025671 -0.022331
v 0.267519 0.015853 -0.031798
v 0.133658 0.026669 -0.026776
v 0.133388 0.015737 -0.031947
v 0.257102 0.023073 -0.029067
v 0.083165 0.037336 0.010726
v 0.101499 0.039039 0.005492
v -0.003452 0.032 0.015682
v 0.306247 0.037329 0.010839
v 0.291644 0.03451 0.017426
v 0.365583 -0.033173 -0.00477
v 0.367976 -0.007521 0.004358
v 0.356191 -0.0305 -0.021484
v 0.356408 0.01305 -0.023556
v 0.358596 0 -0.022451
v 0.35492 0.016393 0.022601
v 0.35237 0.0098 0.026349
v 0.345565 0.01455 0.028126
v 0.295126 0.020965 0.029465
v 0.367882 0.015213 -0.000424
v 0.362367 0.01305 0.017375
v 0.364879 0 0.014562
v 0.362018 -0.019653 0.017142
v 0.365583 -0.033173 0.00477
v 0.357908 -0.007521 0.022611
v 0.356456 0.0098 0.023723
v 0.112377 -0.014013 -0.031493
v 0.172208 -0.006558 -0.032767
v 0.11682 0 -0.033091
v 0.104742 0.0105 -0.032488
v -0.010014 0 -0.02985
v 0.104518 0.02143 -0.029559
v -0.001876 -0.007329 -0.029813
v 0.362368 0.01305 -0.017375
v 0.368206 0 -0.005043
v -0.029075 0 -0.007895
v -0.024449 0 -0.017798
v -0.024033 0.010279 -0.017513
v -0.022009 0.025277 -0.009943
v -0.025605 -0.018093 -0.014076
v -0.021106 0 -0.022973
v -0.019758 0.030825 0
v 0.084173 0.039283 -0.003521
v -0.014657 0.031809 -0.007693
v -0.01585 0.030943 -0.011516
v -0.003452 0.032 -0.015682
v 0.08962 0.037325 -0.01116
v -0.012485 0.032 0.009865
v -0.015728 0.032 0.002575
v -0.009824 0.030876 0.017014
v -0.022009 0.025277 0.009943
v -0.023931 0.025587 0
v 0.106077 -0.01403 0.032126
v -0.002666 0.007329 0.029753
v 0.141014 -0.017592 0.03132
v 0.113027 -0.006862 0.032851
v 0.255442 -0.014091 0.032206
v 0.140921 0.017403 0.031497
v 0.113028 0.006715 0.032864
v 0.113014 0.017394 0.03138
v -0.009857 0.007329 0.028199
v -0.002082 0.030752 0.019809
v 0.140313 0.032345 0.021224
v 0.106142 0.024054 0.028216
v 0.254146 0.027376 0.026249
v 0.362324 -0.033173 -0.013736
v -0.028966 0.007329 0.007301
v -0.028073 0 0.010936
v -0.029872 -0.007329 0
v -0.016046 0 -0.027826
v -0.015656 -0.018093 0.024671
v -0.022132 0.010215 0.019883
v -0.026177 -0.007329 0.014391
v -0.021776 -0.007329 0.020449
v 0.356194 -0.0305 0.021482
v 0.360013 -0.035761 0.015
v 0.35958 -0.033173 0.01766
v 0.355369 -0.035761 0.02008
v 0.336555 -0.019653 0.029037
v 0.343621 -0.0305 0.027355
v 0.351142 -0.007521 0.027061
v 0.283459 -0.006825 0.03285
v 0.11303 -7.8e-05 0.033
v 0.283319 0.013916 0.032254
v 0.255592 0.006648 0.032888
v 0.293285 0.029978 0.023147
v 0.281505 0.027343 0.0261
v 0.313002 0.02796 0.022501
v 0.294612 0.024219 0.027716
v 0.282671 0.021025 0.030011
v 0.35688 0.016393 -0.021038
v 0.363953 0.014632 -0.013798
v 0.289645 0.032537 -0.019164
v 0.277061 0.026801 -0.026073
v 0.26426 0.034904 -0.017356
v 0.270956 0.006437 -0.032817
v 0.271909 0 -0.032992
v 0.25114 0.006256 -0.032887
v 0.215416 0.0105 -0.032683
v 0.352368 0.0098 -0.02635
v 0.275731 0.018781 -0.030513
v 0.354327 0.01455 -0.024301
v 0.294554 0.03761 -0.010285
v 0.104515 0.034706 -0.017335
v 0.248 0.031388 -0.022409
v 0.103187 0.029335 -0.023971
v -0.012075 0.025277 -0.020915
v -0.00611 0.030895 -0.018804
v 0.25997 0.015852 -0.031872
v 0.275259 0.012849 -0.03204
v 0.246838 0.026927 -0.026608
v 0.119091 0.02145 -0.029852
v 0.133823 0.031154 -0.022641
v 0.12962 0.0105 -0.032717
v 0.118999 0.0105 -0.032689
v 0.245984 0.02168 -0.029842
v 0.26815 0.021641 -0.029661
v 0.099041 0.038362 0.008541
v 0.084076 0.039104 0.004737
v 0.28339 0.039189 0.004577
v 0.285629 0.038435 0.008397
v 0.29074 0.036257 0.014244
v 0.309821 0.033651 0.017052
v 0.368207 0 0.005042
v 0.356456 0.0098 -0.023723
v 0.362635 -0.007521 -0.017596
v 0.358135 0.0138 0.021751
v 0.354327 0.01455 0.024301
v 0.347314 0.01305 0.028177
v 0.352413 0.007521 0.026431
v 0.340828 0.014642 0.028853
v 0.350621 0.016393 0.025169
v 0.367671 0.01305 0.00505
v 0.366459 0.01455 -0.007321
v 0.363093 0.007521 0.01695
v 0.363957 0.014625 0.0138
v 0.365549 -0.019653 0.010737
v 0.364345 -0.033173 0.009395
v 0.367372 -0.019653 0.003655
v 0.366 -0.033173 0
v 0.166923 0 -0.033095
v 0.103162 0.022951 -0.028662
v 0.363092 0.007521 -0.016952
v 0.362583 0.0147 -0.016
v 0.367797 0.013391 -0.00402
v 0.368132 -0.007521 -0.003755
v 0.365547 -0.019653 -0.010741
v -0.026303 0.007329 -0.014159
v -0.028876 0.007329 -0.007534
v -0.028865 -0.007329 -0.007602
v -0.029872 0.007329 0
v -0.024741 -0.007517 -0.016823
v -0.022131 0.010215 -0.019883
v -0.024634 0.007329 -0.017041
v -0.018952 0.031 -0.004028
v -0.018952 0.031 0.004028
v 0.284201 0.039465 -0.001512
v 0.134308 0.038975 -0.00616
v -0.013328 0.030752 -0.014802
v 0.083134 0.037273 -0.010821
v 0.13416 0.037387 -0.012139
v -0.015836 0.030948 0.011505
v -0.027183 0.010282 0.012057
v -0.019525 0.025669 0.014024
v 0.002224 0 0.030046
v 0.141068 -0.014016 0.032227
v 0.140821 0.020844 0.030214
v 0.113007 0.020821 0.030074
v -0.016256 0 0.025322
v 0.106176 0.029829 0.023659
v 0.099503 0.034389 0.017543
v 0.09953 0.036171 0.014375
v 0.112972 0.032306 0.021046
v 0.14045 0.029892 0.023982
v 0.252772 0.03255 0.020983
v 0.140582 0.027133 0.026425
v 0.254679 0.024334 0.028385
v 0.364345 -0.033173 -0.009395
v 0.360989 -0.0305 -0.016396
v -0.026303 0.007329 0.014159
v 0.283496 -7.8e-05 0.032996
v 0.283471 0.006682 0.032868
v 0.283064 0.017542 0.031356
v 0.292497 0.032411 0.020408
v 0.253507 0.030126 0.023766
v 0.28917 0.021 0.029903
v 0.269125 0.026862 -0.026401
v 0.279724 0.034822 -0.017023
v 0.27322 0.0105 -0.032482
v 0.33855 0.007521 -0.029869
v 0.26081 0.010219 -0.032682
v 0.2932 0.036749 -0.01244
v 0.281301 0.037416 -0.0116
v 0.104517 0.031088 -0.022246
v 0.262622 0.030945 -0.022767
v 0.249417 0.034925 -0.017451
v 0.133995 0.034758 -0.017698
v 0.093071 0.037187 0.011711
v 0.090984 0.03836 0.008226
v 0.251056 0.036346 0.014697
v 0.101028 0.038777 0.006863
v 0.300765 0.038943 0.005677
v 0.101347 0.039285 0.003762
v 0.294033 0.038116 0.009092
v 0.301914 0.037305 0.011123
v 0.296512 0.036203 0.01394
v 0.302992 0.034633 0.016192
v 0.300037 0.03185 0.020287
v 0.345932 0.016393 0.026929
v 0.366459 0.01455 0.007321
v 0.368152 0.007521 0.003595
v 0.365863 0.014629 0.009467
v 0.363243 -0.033173 0.011763
v 0.366899 -0.02588 0.001526
v 0.366682 -0.026932 -0.002694
v 0.25115 0 -0.033095
v 0.364879 0 -0.014563
v 0.368151 0.007521 -0.003597
v 0.36626 -0.007521 -0.011024
v -0.024747 -0.003642 -0.017103
v -0.024747 0.003642 -0.017103
v -0.016547 0.031815 0
v 0.28926 0.03948 -0.001139
v 0.252829 0.038999 -0.006043
v 0.104503 0.039465 -0.001512
v 0.104507 0.038966 -0.005982
v 0.251042 0.037474 -0.011932
v 0.104512 0.037358 -0.011846
v 0.140707 0.024103 0.028514
v 0.113 0.024069 0.028355
v -0.01294 0 0.02682
v -0.01645 0.007329 0.024935
v -0.022045 0.007329 0.020158
v 0.106223 0.036188 0.014647
v 0.279909 0.032516 0.02083
v 0.112991 0.027093 0.026254
v 0.282148 0.024309 0.028246
v 0.363243 -0.033173 -0.011763
v 0.141154 -7.8e-05 0.033005
v 0.263563 0.025515 -0.02739
v 0.282962 0.038982 -0.005846
v 0.263478 0.028847 -0.024782
v 0.119363 0.037378 -0.012067
v 0.089521 0.037288 0.011231
v 0.14004 0.036228 0.014929
v 0.13979 0.038634 0.007882
v 0.09413 0.039009 0.00549
v 0.095484 0.038487 0.007943
v 0.289846 0.039409 0.002389
v 0.290261 0.038725 0.007043
v 0.094082 0.039164 0.004572
v 0.091778 0.039378 0.002723
v 0.364367 -0.0305 0.010268
v 0.366342 -0.029238 0.003023
v 0.366943 -0.02569 -0.000763
v 0.36625 -0.030772 -0.00152
v 0.366432 0.007521 -0.010582
v 0.094311 0.039497 -0.000462
v 0.364366 -0.0305 -0.010271
v 0.249074 0.038671 0.007736
v 0.112935 0.038626 0.007773
v 0.112922 0.03948 0.001153
v 0.283938 0.038773 0.00699
v 0.094512 0.039339 0.00316
v 0.28761 0.039476 0.00125
v 0.093013 0.039493 0.000664
v 0.09528 0.039425 0.002175
v 0.290813 0.039032 0.00544
v 0.275845 0.038663 0.007645
v 0.273818 0.03948 0.001153
v 0.098638 0.039472 0.001343
v 0.285384 0.039456 0.001694
f 24 4 13
f 29 24 13
f 29 6 24
f 57 29 56
f 58 29 13
f 58 56 29
f 61 16 30
f 61 57 16
f 61 6 57
f 64 18 9
f 64 9 32
f 65 32 28
f 65 55 3
f 65 28 55
f 66 32 9
f 66 28 32
f 76 3 40
f 77 40 3
f 79 47 25
f 87 24 6
f 88 13 47
f 88 58 13
f 92 50 14
f 101 27 99
f 104 3 55
f 105 56 3
f 105 3 16
f 105 16 56
f 106 56 22
f 106 3 56
f 106 77 3
f 107 57 6
f 107 6 29
f 107 29 57
f 108 57 56
f 108 56 16
f 108 16 57
f 110 60 17
f 111 30 16
f 111 16 62
f 111 62 17
f 111 17 60
f 112 61 59
f 112 6 61
f 112 87 6
f 113 61 30
f 113 59 61
f 114 62 16
f 114 31 62
f 114 66 31
f 114 3 104
f 114 104 55
f 114 16 3
f 117 32 65
f 118 55 28
f 118 28 66
f 118 114 55
f 118 66 114
f 119 31 66
f 119 66 9
f 119 98 63
f 120 67 33
f 121 10 68
f 128 47 13
f 128 70 126
f 129 13 4
f 129 4 70
f 129 128 13
f 129 70 128
f 131 48 130
f 136 73 134
f 141 12 3
f 141 3 76
f 143 109 7
f 144 7 47
f 144 47 79
f 144 143 7
f 144 79 41
f 144 41 143
f 146 41 79
f 149 10 67
f 150 21 81
f 155 120 84
f 156 85 4
f 156 4 24
f 157 70 4
f 157 127 70
f 159 20 86
f 160 85 24
f 160 24 87
f 160 46 85
f 161 88 47
f 161 47 7
f 161 7 88
f 162 88 7
f 162 58 88
f 162 7 109
f 162 109 56
f 162 56 58
f 166 59 113
f 166 113 30
f 167 14 50
f 169 51 39
f 174 1 96
f 174 26 49
f 175 174 96
f 176 53 98
f 176 119 9
f 176 98 119
f 177 63 98
f 178 98 53
f 179 100 9
f 179 9 18
f 182 27 101
f 182 102 27
f 182 54 102
f 183 101 99
f 184 27 102
f 184 97 116
f 185 184 102
f 185 97 184
f 188 41 146
f 189 106 22
f 189 22 78
f 189 78 41
f 189 41 188
f 190 78 22
f 190 143 78
f 190 109 143
f 190 22 56
f 190 56 109
f 191 110 17
f 191 17 62
f 191 62 115
f 192 60 110
f 193 192 110
f 194 30 111
f 194 111 60
f 194 60 192
f 195 87 112
f 195 167 91
f 196 115 62
f 196 62 31
f 197 116 97
f 200 64 32
f 200 32 117
f 200 18 64
f 201 155 84
f 201 83 155
f 203 117 65
f 203 65 3
f 203 201 84
f 203 84 117
f 204 180 18
f 204 33 180
f 205 120 18
f 205 18 200
f 205 200 117
f 205 117 84
f 206 67 120
f 206 120 155
f 206 149 67
f 206 45 149
f 207 121 67
f 207 67 10
f 207 10 121
f 208 33 67
f 208 67 121
f 210 209 5
f 211 68 10
f 214 124 21
f 214 34 124
f 214 21 150
f 216 215 69
f 216 21 124
f 216 124 34
f 216 34 215
f 218 25 47
f 218 126 70
f 218 128 126
f 218 47 128
f 218 130 25
f 218 131 130
f 218 71 131
f 220 79 25
f 220 25 130
f 220 145 79
f 220 130 48
f 221 131 71
f 221 11 131
f 222 131 11
f 222 48 131
f 222 11 125
f 225 133 8
f 226 133 37
f 226 91 133
f 226 37 158
f 227 133 91
f 227 8 133
f 230 136 134
f 230 20 136
f 230 134 219
f 231 229 135
f 231 136 229
f 234 95 15
f 234 15 139
f 235 151 81
f 235 81 21
f 235 140 43
f 235 43 151
f 237 76 40
f 237 40 77
f 239 143 41
f 239 41 78
f 239 78 143
f 240 89 19
f 241 146 79
f 241 79 145
f 242 43 140
f 243 147 80
f 246 150 81
f 246 214 150
f 246 34 214
f 247 151 43
f 248 42 152
f 249 248 82
f 250 12 141
f 250 141 76
f 251 82 154
f 251 249 82
f 251 83 249
f 252 154 23
f 252 23 147
f 252 147 243
f 253 156 24
f 253 24 85
f 253 85 156
f 254 157 4
f 254 4 85
f 255 157 254
f 255 254 85
f 255 85 46
f 255 46 86
f 256 86 46
f 256 46 158
f 256 158 37
f 256 159 86
f 256 37 159
f 257 158 46
f 257 46 87
f 257 226 158
f 257 87 195
f 257 195 91
f 257 91 226
f 258 159 37
f 258 37 133
f 259 160 87
f 259 87 46
f 259 46 160
f 260 19 89
f 264 165 92
f 265 165 49
f 265 49 26
f 265 92 165
f 265 26 168
f 266 166 30
f 266 30 194
f 267 14 167
f 267 59 166
f 267 166 263
f 269 169 39
f 269 94 169
f 270 168 51
f 270 51 169
f 271 169 94
f 271 270 169
f 271 168 270
f 271 265 168
f 271 92 265
f 272 269 170
f 272 94 269
f 274 95 39
f 274 39 172
f 275 172 39
f 275 39 51
f 276 15 95
f 276 95 173
f 276 197 97
f 276 173 197
f 276 185 15
f 276 97 185
f 277 175 96
f 277 93 175
f 278 26 174
f 278 174 175
f 278 268 26
f 278 175 268
f 279 100 53
f 279 53 176
f 279 176 9
f 279 9 100
f 280 177 98
f 280 27 177
f 280 178 99
f 280 99 27
f 281 179 18
f 281 100 179
f 282 53 100
f 282 178 53
f 283 18 180
f 284 183 5
f 284 209 123
f 284 5 209
f 285 183 99
f 285 5 183
f 285 210 5
f 285 99 178
f 286 182 101
f 286 101 183
f 286 183 284
f 287 177 27
f 287 27 184
f 287 63 177
f 288 185 102
f 288 15 185
f 288 102 187
f 288 232 139
f 288 139 15
f 290 187 102
f 290 102 54
f 292 77 106
f 292 106 189
f 293 96 1
f 293 1 193
f 294 193 110
f 294 110 191
f 294 293 193
f 295 193 1
f 295 192 193
f 295 1 262
f 295 194 192
f 296 195 112
f 296 112 59
f 296 167 195
f 296 267 167
f 296 59 267
f 297 196 31
f 297 115 196
f 297 31 119
f 297 119 63
f 297 63 199
f 298 116 197
f 298 52 198
f 299 191 115
f 299 294 191
f 300 299 115
f 300 198 299
f 300 297 199
f 300 115 297
f 301 201 44
f 301 44 83
f 301 83 201
f 302 202 3
f 302 3 12
f 302 12 153
f 303 44 202
f 303 302 153
f 303 202 302
f 303 153 249
f 303 249 83
f 303 83 44
f 304 203 3
f 304 3 202
f 304 202 44
f 304 44 201
f 304 201 203
f 305 120 33
f 305 33 204
f 305 204 18
f 305 18 120
f 306 205 84
f 306 84 120
f 306 120 205
f 307 206 155
f 307 45 206
f 307 251 154
f 307 155 83
f 307 83 251
f 308 33 208
f 308 283 180
f 308 180 33
f 309 282 181
f 309 178 282
f 309 285 178
f 309 210 285
f 310 121 68
f 310 123 209
f 311 209 210
f 312 212 75
f 313 122 212
f 313 312 38
f 313 212 312
f 314 212 148
f 314 148 75
f 314 75 212
f 315 212 122
f 315 148 212
f 317 164 69
f 317 69 215
f 317 215 89
f 318 215 34
f 318 34 163
f 318 163 260
f 319 217 125
f 319 125 11
f 319 11 217
f 320 217 11
f 320 221 137
f 320 11 221
f 323 218 70
f 323 70 127
f 323 322 218
f 323 127 322
f 324 322 127
f 324 35 322
f 324 255 219
f 325 219 134
f 325 134 35
f 326 220 48
f 326 145 220
f 326 48 240
f 327 221 71
f 327 137 221
f 327 71 228
f 328 222 164
f 328 48 222
f 328 240 48
f 328 164 317
f 328 317 89
f 328 89 240
f 329 69 164
f 329 164 222
f 330 132 223
f 330 8 273
f 332 223 72
f 332 72 225
f 332 225 8
f 333 167 50
f 333 227 91
f 333 91 167
f 333 50 171
f 333 171 227
f 334 227 171
f 334 8 227
f 334 272 170
f 334 170 8
f 334 171 94
f 334 94 272
f 335 134 73
f 335 73 228
f 335 228 35
f 335 35 134
f 336 228 71
f 337 229 36
f 337 36 135
f 337 135 229
f 338 229 136
f 338 72 229
f 338 136 20
f 338 20 159
f 338 159 258
f 339 36 229
f 339 229 72
f 339 72 223
f 339 331 36
f 339 223 132
f 340 230 219
f 340 219 255
f 341 86 20
f 341 20 230
f 341 230 340
f 341 340 255
f 341 255 86
f 342 231 73
f 342 73 136
f 342 136 231
f 343 73 231
f 343 320 137
f 343 137 327
f 343 327 228
f 343 228 73
f 345 234 139
f 345 39 95
f 345 95 234
f 348 236 140
f 348 138 236
f 349 242 140
f 350 152 42
f 350 42 238
f 351 240 19
f 351 19 241
f 351 241 145
f 351 326 240
f 351 145 326
f 352 188 146
f 352 146 241
f 353 43 242
f 353 247 43
f 353 147 23
f 353 23 247
f 354 80 147
f 354 353 242
f 354 147 353
f 355 149 45
f 355 45 243
f 355 243 80
f 355 80 244
f 355 244 10
f 355 10 149
f 356 243 45
f 356 307 154
f 356 45 307
f 356 252 243
f 356 154 252
f 357 244 148
f 357 10 244
f 357 211 10
f 357 315 245
f 357 148 315
f 358 242 349
f 358 354 242
f 358 80 354
f 359 152 350
f 359 2 246
f 360 163 34
f 360 34 246
f 361 247 23
f 361 23 154
f 361 154 82
f 361 82 248
f 361 248 152
f 361 152 247
f 362 81 151
f 362 151 247
f 362 247 152
f 363 249 153
f 363 42 248
f 363 248 249
f 363 238 42
f 364 12 250
f 364 250 363
f 365 363 250
f 365 238 363
f 366 250 76
f 366 76 237
f 367 157 255
f 367 255 324
f 368 258 133
f 368 133 225
f 368 225 72
f 368 338 258
f 368 72 338
f 369 241 19
f 369 19 260
f 369 352 241
f 369 260 163
f 370 260 89
f 370 89 215
f 370 318 260
f 370 215 318
f 371 246 2
f 371 261 163
f 371 360 246
f 371 163 360
f 372 350 238
f 372 365 142
f 372 238 365
f 372 261 2
f 372 2 350
f 373 372 142
f 373 292 188
f 373 142 237
f 374 262 165
f 374 90 262
f 374 263 90
f 375 49 165
f 375 165 262
f 376 262 90
f 376 266 194
f 376 90 266
f 376 295 262
f 376 194 295
f 377 262 1
f 377 1 174
f 377 375 262
f 377 174 49
f 377 49 375
f 378 266 90
f 378 166 266
f 379 264 92
f 379 92 14
f 379 14 264
f 380 264 14
f 380 14 267
f 380 374 165
f 380 165 264
f 381 51 168
f 381 168 26
f 381 26 268
f 382 268 175
f 382 175 93
f 382 93 172
f 382 172 275
f 385 271 94
f 385 94 171
f 385 171 50
f 385 50 92
f 385 92 271
f 386 273 8
f 386 8 170
f 386 170 273
f 388 173 95
f 388 95 274
f 388 274 172
f 388 172 93
f 389 277 96
f 389 96 293
f 389 293 294
f 390 389 52
f 390 277 389
f 390 298 197
f 390 52 298
f 390 388 93
f 390 93 277
f 390 197 173
f 390 173 388
f 391 280 98
f 391 98 178
f 391 178 280
f 392 282 100
f 392 181 282
f 392 308 181
f 392 283 308
f 392 100 281
f 392 281 18
f 392 18 283
f 393 284 123
f 393 123 213
f 393 286 284
f 394 54 182
f 394 182 286
f 394 286 393
f 395 199 63
f 395 287 184
f 395 300 199
f 395 198 300
f 396 288 187
f 396 187 103
f 396 103 186
f 396 186 288
f 397 288 186
f 399 186 103
f 399 397 186
f 399 289 74
f 399 74 397
f 400 399 103
f 400 289 399
f 402 291 400
f 403 291 402
f 403 213 316
f 404 237 77
f 404 373 237
f 405 292 189
f 405 189 188
f 405 188 292
f 406 299 198
f 406 198 52
f 406 294 299
f 406 389 294
f 406 52 389
f 407 308 208
f 407 181 308
f 407 311 210
f 408 310 209
f 408 121 310
f 408 209 311
f 408 311 407
f 408 407 208
f 408 208 121
f 409 123 310
f 409 310 68
f 409 68 211
f 409 211 316
f 409 316 213
f 409 213 123
f 410 38 312
f 410 349 236
f 411 313 38
f 411 291 313
f 411 400 291
f 411 401 289
f 411 289 400
f 412 315 122
f 412 245 315
f 412 357 245
f 412 316 211
f 412 211 357
f 413 135 36
f 413 320 343
f 413 217 320
f 414 125 217
f 414 217 321
f 415 322 35
f 415 71 322
f 415 228 336
f 415 336 71
f 415 35 228
f 416 322 71
f 416 71 218
f 416 218 322
f 417 324 219
f 417 219 325
f 417 325 35
f 417 35 324
f 418 329 222
f 418 222 125
f 418 125 414
f 419 69 329
f 419 329 418
f 419 418 414
f 419 414 321
f 419 321 224
f 420 330 223
f 420 8 330
f 420 332 8
f 420 223 332
f 421 36 331
f 421 331 321
f 421 321 217
f 422 321 331
f 422 224 321
f 423 339 132
f 423 331 339
f 423 422 331
f 423 387 422
f 424 74 344
f 424 232 288
f 424 288 398
f 425 139 232
f 425 345 139
f 425 424 344
f 426 401 138
f 426 138 347
f 428 21 216
f 429 233 346
f 430 235 21
f 430 21 347
f 430 347 138
f 431 348 235
f 431 138 348
f 431 430 138
f 431 235 430
f 432 348 140
f 432 140 235
f 432 235 348
f 433 349 140
f 433 140 236
f 433 236 349
f 434 312 75
f 434 75 349
f 434 410 312
f 434 349 410
f 435 148 244
f 435 75 148
f 435 244 80
f 435 80 358
f 435 358 349
f 435 349 75
f 436 359 246
f 436 246 81
f 437 359 350
f 437 350 2
f 437 2 359
f 438 362 152
f 438 152 359
f 438 359 436
f 438 436 81
f 438 81 362
f 439 153 12
f 439 12 364
f 441 237 142
f 442 127 157
f 442 157 367
f 442 367 324
f 442 324 127
f 443 369 163
f 443 352 369
f 443 373 188
f 443 188 352
f 444 371 2
f 444 2 261
f 444 261 371
f 445 261 372
f 445 372 373
f 445 373 443
f 446 263 166
f 446 166 378
f 446 378 90
f 446 90 263
f 447 380 267
f 447 267 263
f 447 263 374
f 447 374 380
f 448 275 51
f 448 51 381
f 448 381 268
f 448 382 275
f 448 268 382
f 449 216 69
f 449 69 383
f 450 383 69
f 450 269 383
f 450 384 269
f 451 383 269
f 451 269 39
f 451 449 383
f 452 170 269
f 452 269 384
f 452 384 387
f 453 387 384
f 453 450 224
f 453 384 450
f 453 422 387
f 453 224 422
f 454 330 273
f 454 132 330
f 454 273 170
f 454 170 452
f 455 394 393
f 455 403 402
f 455 393 213
f 455 213 403
f 456 290 54
f 456 54 394
f 456 394 455
f 456 455 402
f 457 395 63
f 457 63 287
f 457 287 395
f 458 395 184
f 458 184 116
f 459 298 198
f 459 198 395
f 459 395 458
f 459 458 116
f 459 116 298
f 460 397 74
f 460 398 288
f 460 424 398
f 460 288 397
f 460 74 424
f 461 236 138
f 461 138 401
f 461 410 236
f 461 38 410
f 461 411 38
f 461 401 411
f 462 402 400
f 462 400 103
f 462 103 187
f 462 456 402
f 462 187 290
f 462 290 456
f 463 403 316
f 463 412 122
f 463 316 412
f 463 122 313
f 463 313 291
f 463 291 403
f 464 404 77
f 464 77 292
f 465 309 181
f 465 181 407
f 465 407 210
f 465 210 309
f 466 413 343
f 466 343 231
f 466 231 135
f 466 135 413
f 467 419 224
f 467 69 419
f 467 450 69
f 467 224 450
f 468 413 36
f 468 36 421
f 468 421 217
f 468 217 413
f 469 423 132
f 469 387 423
f 469 132 454
f 469 454 452
f 469 452 387
f 470 425 232
f 470 232 424
f 470 424 425
f 471 344 74
f 471 74 289
f 471 289 401
f 471 401 426
f 472 471 426
f 472 344 471
f 473 427 233
f 473 233 345
f 473 345 427
f 474 425 344
f 474 427 345
f 474 345 425
f 475 428 216
f 475 346 428
f 475 429 346
f 476 347 21
f 476 21 428
f 477 345 233
f 477 233 429
f 478 39 345
f 479 439 364
f 479 364 363
f 479 363 153
f 479 153 439
f 480 440 365
f 480 365 250
f 480 250 366
f 480 366 440
f 481 142 365
f 481 365 440
f 481 441 142
f 481 440 366
f 482 366 237
f 482 237 441
f 482 481 366
f 482 441 481
f 483 445 443
f 483 443 163
f 483 163 261
f 483 261 445
f 484 39 216
f 484 216 449
f 484 451 39
f 484 449 451
f 485 464 292
f 485 292 373
f 485 373 404
f 485 404 464
f 486 472 426
f 486 426 347
f 486 346 233
f 486 233 472
f 487 344 472
f 487 472 233
f 487 233 427
f 487 474 344
f 487 427 474
f 489 476 428
f 489 346 486
f 489 347 476
f 490 429 475
f 490 475 478
f 490 477 429
f 490 478 345
f 490 345 477
f 491 475 216
f 492 216 39
f 493 478 475
f 493 492 39
f 493 39 478
f 494 489 428
f 494 428 346
f 494 346 489
f 495 489 486
f 495 486 347
f 495 347 489
f 496 491 216
f 496 216 492
f 496 492 488
f 496 488 491
f 497 488 492
f 497 492 493
f 497 491 488
f 498 493 475
f 498 475 491
f 498 497 493
f 498 491 497
