v 0.0555777 -0.0334319 0.0169034
v 0.0558852 0.0300631 0.0229293
v 0.0557375 0.0235691 0.0295406
v 0.080314 0.027915 -0.02254
v 0.080308 0.0330606 -0.014644
v 0.0741225 -0.0355286 -0.0138094
v 0.0775559 0.0348994 0.0158146
v 0.0801625 -0.00361406 0.0361564
v 0.055567 -0.0135316 -0.0350314
v 0.080314 -0.035749 -0.003043
v 0.0793866 0.0234037 0.0301017
v 0.079916 0.02036 0.031164
v 0.0790777 0.00300845 0.037654
v 0.080303 0.029732 0.020095
v 0.0559176 -0.00189596 0.0376723
v 0.080303 -0.01338 0.033298
v 0.0741343 -0.016645 -0.0342912
v 0.0778412 0.0382905 -0.00111691
v 0.0797069 -0.0370992 0.00623563
v 0.0693631 -0.0164298 0.0346697
v 0.0564429 0.0205685 0.0317486
v 0.079351 0.0376465 0.00622578
v 0.0792493 -0.03727 -0.00748012
v 0.079844 -0.003082 -0.0372
v 0.0801084 0.000283296 -0.0362695
v 0.0670705 0.0207517 -0.0323017
v 0.0560545 -0.0174722 -0.0335779
v 0.0797235 -0.00158999 0.0375933
v 0.079664 0.00534413 -0.0373644
v 0.0803066 -0.0195403 -0.0304748
v 0.0777441 -0.0347148 -0.0163717
v 0.079762 -0.0257813 -0.0272132
v 0.0797819 0.0264691 0.0266038
v 0.07945 0.027663 0.025466
v 0.0556597 -0.0374963 0.00377956
v 0.0796518 -0.023517 -0.0294015
v 0.0557329 -0.0355869 -0.0126817
v 0.0790692 -0.00572443 0.0374177
v 0.061218 -0.004589 0.037814
v 0.0562434 0.015699 -0.0346393
v 0.0803175 -0.00823496 0.0349145
v 0.0791406 -0.00680704 -0.0372312
v 0.07954 -0.0221334 -0.0310767
v 0.0556912 0.0371255 0.00682677
v 0.0556908 0.0257168 -0.0275306
v 0.0795818 0.0298008 -0.0232903
v 0.0556424 0.0293685 -0.023545
v 0.0556699 0.0376172 -0.00225433
v 0.079844 0.014994 -0.034184
v 0.0555237 -0.021272 0.0307544
v 0.0556688 -0.0287893 0.0242228
v 0.080314 0.007559 0.035073
v 0.0554828 -0.0294963 -0.0225622
v 0.0556713 0.034528 0.0149241
v 0.056075 -0.0381664 -9.17395e-05
v 0.080338 -0.0330277 0.015878
v 0.0555558 0.0195691 -0.0318215
v 0.0789378 -0.0305688 0.0222285
v 0.0803367 0.0130237 0.0337591
v 0.080314 0.013378 0.033291
v 0.0799505 0.0262256 -0.0266202
v 0.0795244 -0.0375962 0.00409958
v 0.0557135 -0.0265597 -0.0269374
v 0.0798396 0.0295149 0.0230695
v 0.0557281 -0.00320519 -0.0375189
v 0.079844 0.014994 0.034184
v 0.0796789 0.0135252 0.0353186
v 0.0798312 -0.0253078 0.0275516
v 0.0558459 -0.026323 0.0270307
v 0.0668756 -0.030713 -0.0231637
v 0.0741383 -0.0190741 0.0335965
v 0.0796865 -0.00967275 -0.0363892
v 0.0798071 -0.0202545 0.0315982
v 0.080303 -0.00756 -0.03508
v 0.0779017 -0.00713886 -0.0382289
v 0.0802404 0.035958 0.00315127
v 0.079378 0.0264022 -0.0276523
v 0.0795265 0.015135 -0.0345824
v 0.0557449 0.000391872 -0.0377077
v 0.0797344 -0.0268027 0.0266022
v 0.0557174 0.00606553 -0.0371872
v 0.0796198 -0.00167401 -0.0377856
v 0.0797854 0.00551513 0.0370593
v 0.0798064 0.0191146 -0.0322676
v 0.079445 -0.00983746 0.0367701
v 0.0555196 -0.0295458 -0.0233505
v 0.0796122 -0.0271794 -0.026202
v 0.079844 0.003082 -0.0372
v 0.0568486 0.00747431 0.0376903
v 0.0797552 -0.0345443 -0.0146184
v 0.0797941 -0.0373558 -0.00286407
v 0.0803142 -0.0340067 -0.0117284
v 0.0803218 0.0199845 -0.0300888
v 0.0790687 0.00959234 -0.0366235
v 0.05574 0.0114872 -0.0358787
v 0.0556775 -0.0137333 0.035073
v 0.079844 -0.034184 -0.014994
v 0.055894 -0.0369497 0.00784265
v 0.0798007 0.0374458 0.000980233
v 0.0802109 -0.0260452 0.0251765
v 0.057069 0.0156736 0.0345046
v 0.061244 -0.035847 0.012889
v 0.0556146 -0.00566887 0.0372166
v 0.0560023 0.0377533 -0.000396075
v 0.07995 0.017658 0.032628
v 0.0793184 0.0280425 0.0257064
v 0.0554811 0.029607 0.0223854
v 0.0555 -0.036968 0.003105
v 0.0760407 -0.0329213 0.0200687
v 0.0557234 0.0318358 -0.0209464
v 0.0793769 -0.0349665 0.0152547
v 0.0802368 0.0349772 0.0089529
v 0.0802504 -0.034999 0.00884906
v 0.0554981 -0.0156338 0.0336563
v 0.0558974 0.0368228 -0.00939127
v 0.0796925 0.0371493 -0.00622891
v 0.0802291 0.0329682 0.0147945
v 0.080303 0.010508 0.034313
v 0.0797489 0.0332083 0.0175023
v 0.0555229 0.0136601 0.0348446
v 0.0555409 0.00855548 0.0364214
v 0.131328 0.00498 -0.060496
v 0.119325 -0.039561 0.032215
v 0.119318 -0.040151 0.031834
v 0.228608 0.0101783 -0.0528275
v 0.11962 0.0395 -0.015613
v 0.131284 -0.005225 -0.060491
v 0.132518 0.040733 0.018863
v 0.0814 0.012667 0.035183
v 0.115005 -0.013766 0.033795
v 0.110877 -0.014442 0.0351605
v 0.13644 0.0366873 0.0154932
v 0.0992728 -0.0393958 0.0313005
v 0.133058 -0.00863878 0.0294149
v 0.13595 -0.027812 0.034408
v 0.13623 -0.029499 0.032865
v 0.131776 -0.03895 -0.00348675
v 0.132888 -0.0384 0.014825
v 0.131463 -0.0384 -0.005894
v 0.136179 0.037502 -0.019127
v 0.15958 0.034595 -0.041667
v 0.137796 -0.038429 -0.019169
v 0.227223 0.0123325 -0.0531127
v 0.131655 -0.04071 -0.005973
v 0.13645 -0.039072 -0.000638
v 0.13645 -0.039072 -0.002448
v 0.142518 -0.034662 0.025205
v 0.14249 -0.03552 0.025224
v 0.156036 0.036273 -0.035902
v 0.129839 -0.00906464 0.0354651
v 0.13595 -0.008314 0.035907
v 0.12525 -0.040542 0.028335
v 0.14997 -0.0382445 -0.0360418
v 0.125478 -0.0395 -0.013186
v 0.128064 -0.0384 -0.011289
v 0.13644 -0.036681 0.00589771
v 0.152942 -0.038923 -0.0450645
v 0.139824 0.0388008 0.00139539
v 0.14283 -0.031764 0.028766
v 0.159306 0.034447 -0.047136
v 0.158467 0.03587 -0.0471315
v 0.160015 0.035637 -0.047369
v 0.0820218 0.0377281 0.00566851
v 0.201824 -0.014049 -0.0530855
v 0.136041 -0.040711 0.031901
v 0.136239 -0.03601 0.022787
v 0.125709 -0.009002 0.034974
v 0.132526 0.0295 0.032328
v 0.140627 0.021029 0.033306
v 0.13645 -0.039072 0.008541
v 0.13645 -0.039072 0.009791
v 0.141431 0.0379676 0.032229
v 0.081183 0.028304 0.024174
v 0.081217 0.026166 0.02658
v 0.146564 0.0379145 -0.042586
v 0.141303 0.0364664 0.00957547
v 0.140532 0.037966 0.008469
v 0.13645 -0.036682 -0.006757
v 0.13267 0.0029411 0.0318955
v 0.14037 -0.00563237 0.0369737
v 0.141641 0.023675 0.034301
v 0.13595 0.036676 -0.035064
v 0.130961 -0.0085 0.033186
v 0.13595 0.008314 0.035907
v 0.13645 0.036682 -0.012251
v 0.206907 -0.012948 -0.05309
v 0.132388 -0.0384 -0.002845
v 0.142839 0.00761185 0.00158421
v 0.143077 0.0116425 0.007944
v 0.135885 0.0402438 -0.0183208
v 0.102485 0.039404 -0.017414
v 0.138858 0.0100143 0.0350958
v 0.13595 0.038487 -0.019169
v 0.140132 0.01141 0.0345843
v 0.13595 0.040822 -0.017498
v 0.13595 0.037446 -0.003305
v 0.13595 0 0.038357
v 0.118627 0.00611134 0.0375542
v 0.141155 -0.036651 -0.043892
v 0.142013 -0.0377221 -0.0180286
v 0.220394 0.0113216 -0.0433323
v 0.204019 0.010289 -0.043619
v 0.1413 0.0365388 -0.012997
v 0.081396 -0.012666 0.035182
v 0.0809702 -0.0155231 0.0337105
v 0.136634 0.0398386 -0.0150051
v 0.143044 -0.032347 -0.044174
v 0.203117 0.0121605 -0.0360974
v 0.13595 0.03848 -0.001997
v 0.132113 -0.01297 0.036026
v 0.119825 -0.0108585 0.0365039
v 0.132407 -0.0384 0.0178
v 0.136158 -0.0137925 0.0342575
v 0.140296 -0.014111 0.033969
v 0.137032 -0.0373436 0.0210456
v 0.130727 0.0112761 0.0349523
v 0.132453 -0.021058 -0.057729
v 0.0957961 -0.0395226 0.0299789
v 0.23031 -0.004224 -0.053082
v 0.132875 0.0384 0.000325
v 0.132027 0.0384445 0.01145
v 0.218528 0.011804 -0.036155
v 0.23041 0.0105024 -0.0528944
v 0.141107 0.0303387 0.0313691
v 0.138431 0.0300407 0.031962
v 0.141043 -0.0372468 0.0178061
v 0.13645 -0.039072 0.018969
v 0.222124 0.011965 -0.0402733
v 0.091308 -0.039653 0.025814
v 0.151475 -0.0381093 -0.0416378
v 0.136063 -0.038359 -0.043786
v 0.13595 -0.038489 -0.01916
v 0.13645 -0.039072 0.005481
v 0.13645 -0.039072 0.003672
v 0.136409 -0.039558 -0.016008
v 0.141786 0.017619 -0.0253355
v 0.136062 -0.0388075 -0.0188449
v 0.141405 -0.031413 0.025771
v 0.15552 0.036462 -0.046093
v 0.136144 0.0137925 0.0342575
v 0.081159 0.009537 0.03597
v 0.0812492 0.00642355 0.0367588
v 0.086412 0.03907 0.019509
v 0.1417 -0.034737 0.023061
v 0.141866 -0.0351579 -0.0163706
v 0.13595 0.038386 0.01969
v 0.133343 0.00791284 0.0276851
v 0.227965 -0.0112423 -0.0373937
v 0.137925 0.00192037 0.00126462
v 0.136172 0.0288012 0.0336347
v 0.136133 0.02813 0.0336115
v 0.140731 -0.00752539 0.0365948
v 0.131655 -0.0384 -0.005973
v 0.14295 -0.034847 -0.017518
v 0.14289 -0.033546 -0.018289
v 0.1429 -0.009905 0.00429
v 0.195964 0.015221 -0.041665
v 0.13595 0.038281 -0.002695
v 0.13845 0.0359393 0.0256858
v 0.13845 0.036375 0.030382
v 0.140571 -0.028378 0.032724
v 0.140802 -0.028352 0.032577
v 0.140756 -0.0292748 0.0324255
v 0.126174 0.0377 -0.005141
v 0.101649 -0.039281 0.031731
v 0.140672 0.0284375 0.0326505
v 0.13595 -0.03426 0.028931
v 0.132766 -0.014047 -0.059056
v 0.110915 0.015167 0.034982
v 0.15859 -0.0358534 -0.0472211
v 0.0821342 -0.0378614 0.00542539
v 0.13595 -0.040822 -0.017498
v 0.144796 0.015572 -0.024162
v 0.084472 -0.041201 -0.032831
v 0.2292 0.008141 -0.052944
v 0.2303 -0.008317 -0.040451
v 0.129983 -0.011582 0.034175
v 0.13145 -0.013289 0.033742
v 0.121144 -0.0395 -0.0151505
v 0.13645 0.039072 0.002422
v 0.12475 -0.040529 -0.014051
v 0.080988 0.01255 0.034859
v 0.13645 -0.036682 -0.012251
v 0.141292 -0.0364612 -0.0103665
v 0.0988972 0.0392583 0.0313582
v 0.102487 0.039388 0.031729
v 0.141353 0.0139673 0.0302384
v 0.141539 0.0138352 0.0270254
v 0.139603 -0.0388924 0.00179969
v 0.13645 -0.036682 0.002422
v 0.144896 0.014 -0.024341
v 0.146204 -0.040772 -0.048526
v 0.136381 0.039815 0.022029
v 0.13645 0.039072 -0.000638
v 0.13645 0.039072 0.000612
v 0.100619 0.0398645 0.030908
v 0.081354 0.018521 0.03247
v 0.225263 -0.012481 -0.053086
v 0.139837 0.000876107 -0.00168374
v 0.142927 0.032588 0.025877
v 0.129228 0.0385725 -0.000939315
v 0.0920927 -0.0395069 0.0276154
v 0.139603 -0.0388925 -0.00737817
v 0.195964 -0.015222 -0.041663
v 0.231942 0.0104643 -0.0408657
v 0.081142 0.037188 -0.032105
v 0.197701 0.014082 -0.043481
v 0.141155 0.036653 -0.043795
v 0.139165 0.038073 -0.019137
v 0.136852 0.038517 -0.019174
v 0.1417 0.034835 -0.017419
v 0.13845 0.037382 0.029375
v 0.102492 0.027699 0.033489
v 0.10295 -0.039958 0.030425
v 0.11745 -0.040338 0.030425
v 0.119325 -0.040387 0.031231
v 0.141484 0.0103239 0.0345231
v 0.136934 0.00674781 0.00504782
v 0.090788 -0.038771 0.02692
v 0.133248 -0.029519 0.032344
v 0.133247 -0.030432 0.031475
v 0.11615 0.006091 0.03752
v 0.100065 0.005899 0.037266
v 0.13495 0.038464 -0.001997
v 0.084811 0.041407 -0.031505
v 0.15121 0.036191 -0.04361
v 0.137829 -0.0378974 -0.00962703
v 0.141469 -0.030486 0.027949
v 0.141875 -0.014061 0.0198164
v 0.141989 -0.0365295 0.0305455
v 0.140037 0.0401749 -0.0173004
v 0.139568 0.0401426 0.0300246
v 0.141876 0.0382011 0.0292927
v 0.140149 -0.037523 -0.017445
v 0.129725 -0.005079 0.030759
v 0.129868 -0.004994 0.02986
v 0.215719 0.010917 -0.043731
v 0.148544 -0.035406 -0.041601
v 0.148993 -0.036384 -0.041663
v 0.151441 0.0380175 -0.0416639
v 0.159574 -0.034584 -0.041666
v 0.13612 -0.0281183 0.0341235
v 0.227876 0.0110962 -0.0373069
v 0.141582 -0.00989536 0.00229949
v 0.081025 -0.036321 -0.033234
v 0.131099 0.0382686 -0.00666139
v 0.119338 0.010888 0.034
v 0.227883 -0.0111119 -0.0398914
v 0.22676 -0.011053 -0.052946
v 0.142975 0.015825 -0.0223716
v 0.102487 -0.037807 -0.018461
v 0.1413 -0.0364606 -0.0038558
v 0.084768 -0.041536 -0.032845
v 0.100914 -0.027601 0.031996
v 0.118482 -0.027984 0.032414
v 0.139401 -0.0328009 0.0286869
v 0.207579 0.0125909 -0.0530859
v 0.154374 0.038261 -0.045916
v 0.120088 -0.008089 0.034
v 0.148916 -0.0385614 -0.0429099
v 0.143849 -0.04085 -0.040225
v 0.196559 0.0146225 -0.0525385
v 0.121908 0.000597095 0.0366473
v 0.136526 0.0025895 0.0366925
v 0.140191 -0.0085 -0.025088
v 0.14166 -0.0307908 0.0261158
v 0.13595 -0.040527 -0.018177
v 0.154751 0.0373751 -0.045953
v 0.119462 0.0134107 0.035629
v 0.125866 -0.0287345 0.0323905
v 0.177641 0.024457 -0.050329
v 0.13046 0.012689 0.034412
v 0.102492 -0.033594 0.032738
v 0.142542 -0.03248 0.026706
v 0.119439 0.007165 0.034
v 0.132407 -0.0395 0.0178
v 0.177981 0.025584 -0.05054
v 0.17752 0.0246963 -0.0503192
v 0.10093 -0.028718 0.031627
v 0.196552 -0.013811 -0.043674
v 0.162123 -0.033755 -0.047865
v 0.081153 -0.009537 0.035967
v 0.12794 -0.0395 -0.011165
v 0.129205 0.038239 -0.031367
v 0.136122 -0.038446 -0.018068
v 0.132566 0.012972 0.036033
v 0.136054 -0.040098 0.032547
v 0.13644 -0.0366809 0.00895772
v 0.136276 0.00164726 0.0389734
v 0.217123 0.0119399 -0.0416513
v 0.0802353 0.0231701 0.0278432
v 0.12966 0.0377 0.00108
v 0.08095 -0.019584 -0.044874
v 0.141574 0.033455 -0.01865
v 0.203013 -0.0123641 -0.0528906
v 0.13645 0.039072 -0.006757
v 0.081022 0.036293 -0.033322
v 0.141334 -0.035001 0.0335
v 0.198472 -0.015635 -0.040176
v 0.202886 -0.012536 -0.040181
v 0.086574 0.041681 -0.028899
v 0.141609 0.03829 0.028108
v 0.15925 0.033974 -0.043675
v 0.141443 0.035276 0.023181
v 0.121516 0 0.035868
v 0.121581 0.005436 0.035704
v 0.14295 -0.032383 -0.018413
v 0.13972 -0.039008 0.0328409
v 0.139824 0.0388005 0.0044555
v 0.136875 0.00319091 0.0361122
v 0.13906 0.0403107 -0.018131
v 0.136768 -0.00877483 0.00610989
v 0.129927 0.0097235 0.0346725
v 0.227936 0.011259 -0.03936
v 0.0880298 -0.0386938 0.0241108
v 0.139824 -0.0388008 0.0108163
v 0.1487 0.036677 -0.040183
v 0.142459 -0.0127906 0.030677
v 0.1362 -0.039818 0.022029
v 0.137481 -0.00333674 0.00160074
v 0.118627 -0.014339 0.033745
v 0.141215 0.038438 -0.018172
v 0.102492 0.033594 0.032738
v 0.136794 0.040844 0.026751
v 0.14295 0.010735 0.00559
v 0.116259 -0.006072 0.037524
v 0.139757 -0.0388694 -0.0111452
v 0.132388 0.0384 -0.002845
v 0.11745 0.040338 0.030425
v 0.128188 0.040619 -0.011413
v 0.142139 0.0353297 0.0328184
v 0.140612 0.0378039 0.0331083
v 0.141409 0.0369832 0.0330766
v 0.136579 -0.00641519 0.0363307
v 0.086908 -0.039538 0.018137
v 0.141835 0.037941 0.0268555
v 0.0865813 0.0393803 0.0190167
v 0.0877448 0.0394189 0.0222458
v 0.141306 0.036515 -0.00660459
v 0.142855 0.034253 -0.018086
v 0.129852 -0.012195 0.032923
v 0.118789 -0.006241 0.034
v 0.117289 -0.005839 0.034
v 0.141303 0.0364663 -0.0011329
v 0.139824 0.0388005 -0.0016635
v 0.197719 0.0145695 -0.052715
v 0.203481 0.012278 -0.052943
v 0.137338 0.00703553 0.0357258
v 0.142211 0.036495 0.025613
v 0.122073 0.008195 0.035587
v 0.132907 0.00748095 0.0305034
v 0.195799 -0.014804 -0.052468
v 0.196436 -0.0148028 -0.0525664
v 0.20265 -0.0107435 -0.043513
v 0.148508 -0.0377745 -0.0431975
v 0.15802 0.0377104 -0.0439566
v 0.175681 0.027463 -0.049953
v 0.132766 -0.000146 -0.059994
v 0.132766 0.005587 -0.059853
v 0.226281 0.0114834 -0.0529507
v 0.185855 0.021067 -0.051616
v 0.196304 0.0156655 -0.052465
v 0.136049 0.040077 0.032555
v 0.1417 -0.032381 -0.018413
v 0.1413 -0.0364611 0.0114419
v 0.080998 0.00078 -0.049248
v 0.142858 0.031703 0.028463
v 0.144958 0.016027 -0.025074
v 0.149902 -0.0394194 -0.0404593
v 0.152293 -0.038294 -0.040175
v 0.141873 0.0363314 -0.0186466
v 0.122135 -0.008871 0.034885
v 0.121751 -0.0084035 0.035149
v 0.140338 0.038181 -0.01853
v 0.14004 0.037657 -0.019075
v 0.137819 0.0378705 -0.0148624
v 0.136771 0.040779 0.031875
v 0.138361 0.0402872 0.0323278
v 0.136058 -0.00485872 0.0382351
v 0.119303 -0.00625047 0.0375642
v 0.141591 0.012204 0.009016
v 0.224686 0.0115024 -0.0334842
v 0.08095 0.023237 -0.043248
v 0.149579 0.037396 -0.041582
v 0.13645 -0.039072 0.002422
v 0.13645 -0.039072 0.000612
v 0.220332 -0.01006 -0.043415
v 0.102485 -0.039839 0.031309
v 0.140343 -0.021317 0.033508
v 0.140588 -0.021297 0.033365
v 0.0873301 -0.0394317 0.0211952
v 0.205956 -0.013438 -0.040177
v 0.142704 -0.032219 0.029666
v 0.141133 -0.0304391 0.0311423
v 0.08115 0.015574 0.033783
v 0.119325 0.039561 0.032215
v 0.128207 0.03825 -0.002032
v 0.12922 -0.0131 0.033846
v 0.129263 -0.012802 0.033231
v 0.080997 -0.002167 -0.049205
v 0.141421 -0.037659 0.029057
v 0.14166 -0.0367343 0.030234
v 0.142796 0.0339118 -0.0184029
v 0.141353 0.028945 0.034019
v 0.11645 0.0395 -0.015925
v 0.119325 0.040387 0.031231
v 0.142211 -0.012325 0.0320405
v 0.140603 -0.0108744 0.0366514
v 0.14005 0.002411 0.037942
v 0.098833 0.005941 0.037238
v 0.134408 -0.00383865 0.0111512
v 0.134592 -0.00470075 0.00964403
v 0.136793 0.040844 0.026325
v 0.135698 0.000180751 0.00299412
v 0.217372 0.011775 -0.03619
v 0.208087 0.011977 -0.041591
v 0.13645 0.039072 0.010383
v 0.136444 0.0390729 0.006106
v 0.140111 -0.00469838 0.0378127
v 0.142359 0.037117 -0.01744
v 0.142759 0.036271 0.024974
v 0.142876 0.035224 0.024868
v 0.139768 -0.0387769 0.0206743
v 0.13645 -0.039072 0.020779
v 0.0812768 -0.00604909 0.0368492
v 0.141703 -0.0121462 0.00681755
v 0.141629 0.00317526 -0.0018733
v 0.141421 -0.0367262 -0.016915
v 0.138781 -0.00982851 0.0351444
v 0.140421 0.00715429 0.0373717
v 0.13845 0.03775 0.028
v 0.144791 0.040774 -0.040754
v 0.136962 -0.040325 0.032461
v 0.13595 -0.038364 0.019788
v 0.142023 -0.0364551 0.0324855
v 0.139607 0.0388912 0.00735228
v 0.121521 -0.002719 0.035788
v 0.13644 -0.036681 -0.000221289
v 0.102386 -0.038181 -0.017851
v 0.139607 0.0388913 -0.0048857
v 0.126068 0.038512 -0.05188
v 0.14041 0.0058796 0.0368764
v 0.140129 -0.0113889 0.0345332
v 0.142584 0.0130091 0.0302875
v 0.13595 0.029576 0.03238
v 0.136153 0.038446 -0.018067
v 0.142472 -0.032532 0.0297
v 0.142615 -0.013143 0.030366
v 0.131872 -0.0407158 0.0197345
v 0.129013 0.03895 -0.009996
v 0.132864 0.00657324 0.0207132
v 0.131705 0.00314585 0.0282157
v 0.080982 -0.009324 -0.048335
v 0.080963 0.013743 -0.047234
v 0.139044 0.036637 -0.039568
v 0.20255 -0.0122943 -0.0360061
v 0.133155 -0.00698616 0.0288439
v 0.1417 -0.004219 -0.001808
v 0.139206 0.036646 -0.01904
v 0.139969 0.03604 -0.019419
v 0.233356 -0.00750211 -0.0411643
v 0.198659 0.012765 -0.04367
v 0.200224 0.013013 -0.052438
v 0.136798 0.040842 0.028931
v 0.136851 0.040839 0.03098
v 0.12838 0.038225 -0.03144
v 0.13645 -0.039072 -0.011626
v 0.136047 0.040701 0.031929
v 0.138779 -0.0401961 0.0322414
v 0.142476 -0.034709 -0.018876
v 0.140354 0.034162 0.0306905
v 0.142523 -0.0330895 0.030631
v 0.1417 0.015674 -0.023848
v 0.1417 0 -0.023583
v 0.141696 -0.0056648 -0.0011443
v 0.14309 -0.0158378 -0.0223717
v 0.151932 0.038349 -0.040171
v 0.157091 0.036104 -0.041491
v 0.0918734 0.0393682 0.0276083
v 0.141814 -0.0353232 0.0333591
v 0.140313 0.021059 0.033538
v 0.1417 -0.015674 -0.023848
v 0.141629 -0.0325269 0.0241141
v 0.12995 -0.014345 0.033494
v 0.118067 0.011736 0.036189
v 0.13645 -0.036682 0.017719
v 0.140602 -0.0378896 -0.0133644
v 0.13845 -0.037382 0.029375
v 0.140919 0.0357756 -0.0182616
v 0.119318 0.040114 0.031878
v 0.136615 -0.00236967 0.0367022
v 0.14148 -0.0376243 0.0326668
v 0.081178 -0.037227 -0.032275
v 0.224998 -0.002121 -0.056705
v 0.132518 -0.0384 0.018863
v 0.116796 -0.041563 -0.026543
v 0.206419 -0.013104 -0.052941
v 0.132935 0.00533347 0.0302879
v 0.150322 0.038112 -0.0436875
v 0.146217 -0.04051 -0.041416
v 0.148157 -0.03663 -0.042614
v 0.13645 0.036682 -0.008567
v 0.139824 0.0388005 -0.0077825
v 0.13645 0.039072 -0.008567
v 0.135947 0.0142886 0.035744
v 0.130135 0.009974 0.034884
v 0.129366 0.035361 0.000817
v 0.0995353 -0.0398511 0.0306962
v 0.145236 0.038646 -0.0488865
v 0.136345 0.000718711 0.0376167
v 0.13845 -0.0353438 0.025526
v 0.160278 -0.035906 -0.040175
v 0.114107 0.0149475 0.0350862
v 0.142949 0.032497 -0.018395
v 0.231736 -0.0109506 -0.0405558
v 0.141433 -0.033326 0.023918
v 0.156496 -0.035824 -0.043452
v 0.142483 0.034673 -0.044026
v 0.14295 -0.018861 -0.024139
v 0.120558 0.00941574 0.0369295
v 0.140532 -0.037966 0.017648
v 0.153215 -0.0372186 -0.0451801
v 0.135628 0 0.00300347
v 0.149604 0.0376155 -0.0361195
v 0.102485 0.039839 0.031309
v 0.145121 0.039512 -0.040547
v 0.086857 0.039537 0.017926
v 0.13193 -0.00366004 0.0265048
v 0.13595 0.035 0.02945
v 0.118789 -0.011437 0.034
v 0.137209 -0.00678358 0.00348887
v 0.13645 0.036682 0.009166
v 0.140041 0.0385731 0.0168143
v 0.131383 0.020871 -0.0584485
v 0.141465 0.0309385 0.026401
v 0.141707 0.03082 0.0256731
v 0.136211 -0.037505 -0.019111
v 0.137037 0.0394497 0.0190723
v 0.141286 0.0365458 0.020813
v 0.136288 0.0376264 0.0206984
v 0.142901 0.00441213 -0.000642923
v 0.142678 -0.033257 0.025762
v 0.136902 -0.040523 -0.018179
v 0.0812344 -0.0211806 0.0308614
v 0.081121 -0.036452 0.006927
v 0.20615 -0.011814 -0.0417118
v 0.13644 0.0366873 0.00631422
v 0.130092 0.00889561 0.0355892
v 0.141796 -0.0176 -0.0253495
v 0.177625 0.0217655 -0.0434835
v 0.142796 -0.0106586 0.00597472
v 0.139607 0.0388911 0.0134712
v 0.142753 -0.0339314 -0.018679
v 0.117289 -0.011839 0.036141
v 0.130608 0.03825 0.004565
v 0.141057 0.00908841 0.0356136
v 0.159305 -0.034443 -0.047133
v 0.140408 0.0141249 0.0358741
v 0.0929162 0.0396499 0.028378
v 0.148999 0.036381 -0.041664
v 0.131879 0.022383 -0.057509
v 0.204276 0.0119975 -0.0529206
v 0.130933 -0.01039 0.03527
v 0.122417 -0.007013 0.0360766
v 0.159744 -0.0358475 -0.047309
v 0.145874 -0.023122 -0.053251
v 0.141471 -0.0340075 -0.0182145
v 0.1417 -0.029868 -0.045022
v 0.136751 0.040323 0.032465
v 0.129656 -0.012595 0.033229
v 0.198475 -0.0145209 -0.0526983
v 0.142917 -0.033402 0.025232
v 0.087992 -0.041712 -0.027786
v 0.22472 0.0127908 -0.0377111
v 0.14112 0.0379272 0.02852
v 0.1362 0.037428 -0.039568
v 0.13712 -0.00658153 0.0359095
v 0.130961 0.0085 0.033186
v 0.144899 -0.014 -0.024354
v 0.14412 -0.014 -0.023274
v 0.117289 0.005839 0.03758
v 0.140191 0.0085 -0.025088
v 0.140532 -0.037966 -0.008495
v 0.166174 0.031107 -0.04854
v 0.168111 0.031316 -0.049086
v 0.189106 -0.019669 -0.052
v 0.177909 -0.0253563 -0.0503983
v 0.1362 -0.014289 0.034903
v 0.206671 0.012564 -0.0529655
v 0.141313 -0.0365641 0.0010247
v 0.140914 -0.028324 0.032386
v 0.224306 -0.0117638 -0.0332879
v 0.130035 -0.005921 0.029956
v 0.202804 0.012639 -0.052785
v 0.131068 0.0385763 0.00418877
v 0.130437 0.038443 0.003337
v 0.141297 0.036648 0.0199014
v 0.13645 -0.039072 0.006731
v 0.119887 -0.010339 0.034
v 0.136444 -0.0390727 -0.009192
v 0.081173 0 0.037153
v 0.177883 -0.0221995 -0.043548
v 0.140019 -0.0387263 -0.0162843
v 0.13332 0.004 0.018138
v 0.129868 0.004994 0.02986
v 0.139973 0.0393513 0.0325112
v 0.141533 0.038719 -0.017452
v 0.142327 -0.03648 0.025525
v 0.234301 -0.0117967 -0.0396289
v 0.144796 -0.015572 -0.024162
v 0.142932 0.031767 0.027277
v 0.144558 0.0155787 -0.0237692
v 0.142849 0.034533 0.024971
v 0.142899 0.035627 -0.01744
v 0.141384 -0.030642 0.029247
v 0.136557 -0.0150034 0.0358898
v 0.140891 -0.014115 0.0357
v 0.13645 -0.039072 0.0116
v 0.13645 -0.039072 0.01285
v 0.141452 0.030498 0.027905
v 0.13645 -0.039072 0.01591
v 0.13664 0.00710582 0.0362581
v 0.136739 0.00534431 0.036072
v 0.140407 -0.038204 -0.018511
v 0.142071 0.036491 0.030679
v 0.13645 0.039072 -0.003698
v 0.13644 0.0366873 -0.00286478
v 0.139824 -0.0388005 0.0138752
v 0.13645 -0.039072 0.01466
v 0.230142 0.008053 -0.04019
v 0.132766 0.006714 -0.059787
v 0.136531 0.0392558 0.0146792
v 0.126283 0.038464 -0.005202
v 0.138245 0.0380115 -0.0171935
v 0.130113 -0.00957632 0.0350188
v 0.135576 -0.00251683 0.00372086
v 0.141728 0.038036 0.029242
v 0.140558 0.029348 0.032446
v 0.14289 -0.00599083 0.000230368
v 0.138875 0.00930821 0.00422341
v 0.139672 -0.0401741 -0.0179825
v 0.222205 -0.0126413 -0.0389258
v 0.136083 0.036789 0.0258995
v 0.142471 0.037176 0.025364
v 0.142259 0.037221 0.025786
v 0.1417 0.009578 0.001969
v 0.14167 0.0113829 0.00528799
v 0.142927 -0.032588 0.025877
v 0.142854 -0.013053 0.026344
v 0.138876 -0.0405457 0.0279693
v 0.136474 -0.0378747 -0.01453
v 0.141477 -0.0261879 0.0345643
v 0.140992 -0.039084 0.029397
v 0.131396 -0.0208385 -0.058455
v 0.141693 0.0330721 -0.0181128
v 0.140283 0.0137982 0.0340131
v 0.209711 -0.012886 -0.053035
v 0.133538 0.009 0.026507
v 0.130035 0.005921 0.029956
v 0.20307 0.0137708 -0.0401798
v 0.141096 0.0375093 -0.0165907
v 0.201675 0.0128418 -0.0416176
v 0.205424 -0.0118782 -0.043717
v 0.131419 0.0418455 -0.0404685
v 0.13131 0.015133 -0.059524
v 0.142852 -0.035926 0.024789
v 0.141813 -0.0385167 0.0273012
v 0.22132 -0.0118426 -0.0408617
v 0.139824 -0.0388007 -0.00142162
v 0.141281 0.0128856 0.0354473
v 0.140909 0.013976 0.035713
v 0.13645 0.039072 -0.009817
v 0.13645 0.039072 -0.012876
v 0.132766 -0.001206 -0.059976
v 0.136189 -0.030902 0.032229
v 0.141302 0.0364678 0.0156947
v 0.140532 0.037966 0.014588
v 0.141322 -0.0366329 0.00546482
v 0.132762 0.0201779 -0.0580583
v 0.197571 -0.014624 -0.041563
v 0.13645 -0.039072 -0.003698
v 0.205001 0.011952 -0.043475
v 0.13835 -0.007482 -0.057473
v 0.138307 0.007482 -0.057493
v 0.142462 -0.03533 -0.018352
v 0.14295 0.03468 -0.017558
v 0.197514 -0.014164 -0.043481
v 0.142829 -0.00227139 -0.00118869
v 0.136191 0.0142018 0.0349076
v 0.141 0.030914 0.029967
v 0.12056 -0.041972 -0.02816
v 0.136815 0.040845 -0.017529
v 0.13144 -0.000122 -0.060594
v 0.142044 0.0120129 0.0325057
v 0.142883 -0.0358705 -0.0174179
v 0.139824 -0.0388005 -0.00448181
v 0.080996 -0.003555 -0.049122
v 0.140976 -0.030896 0.030236
v 0.118032 0.041613 -0.026964
v 0.13644 -0.0366809 -0.00328129
v 0.136824 -0.040803 0.031821
v 0.122073 -0.00856656 0.0354908
v 0.145115 -0.039515 -0.040175
v 0.142914 0.033408 0.025242
v 0.140597 -0.030013 0.031987
v 0.156367 0.036177 -0.046398
v 0.140247 0.00971177 0.0371422
v 0.13845 -0.035 0.03075
v 0.142913 -0.031703 0.027674
v 0.14281 -0.0131187 0.0280682
v 0.13645 0.036682 0.012225
v 0.117289 0.005839 0.034
v 0.13645 -0.039072 -0.006132
v 0.134655 -0.00472121 0.00962347
v 0.146218 0.040515 -0.04142
v 0.136825 0 0.036712
v 0.13645 0.036682 0.017719
v 0.139267 -0.0390061 0.0165293
v 0.13645 -0.039072 0.017719
v 0.13645 0.039072 0.003672
v 0.228332 -0.010862 -0.0528328
v 0.141221 -0.0136631 0.0310824
v 0.234577 0.0117077 -0.0396772
v 0.14495 -0.015368 -0.024791
v 0.228088 0.010043 -0.039474
v 0.142481 -0.03222 0.028683
v 0.141664 0.0352662 0.0228033
v 0.140093 -0.0119796 0.0346168
v 0.135821 -0.00313995 0.0350778
v 0.134735 -0.0049725 0.0340755
v 0.139824 0.0388008 -0.0108426
v 0.132766 0.0023335 -0.0594595
v 0.202435 0.012636 -0.040183
v 0.134905 0.005 0.007993
v 0.13645 0.039072 -0.005507
v 0.196521 -0.0160695 -0.0526545
v 0.13645 0.039072 -0.011626
v 0.205819 -0.0119077 -0.0529499
v 0.138817 0.0360025 0.0226845
v 0.140532 -0.037966 0.003743
v 0.08097 0.012311 -0.04764
v 0.13645 0.036682 -0.005507
v 0.140713 0.012746 0.033048
v 0.218514 -0.011856 -0.041495
v 0.140244 -0.003 0.037157
v 0.13645 -0.036682 0.003672
v 0.141059 -0.035591 -0.017916
v 0.141656 0.038254 0.029067
v 0.141501 0.0339734 -0.0181359
v 0.13645 0.036682 -0.009817
v 0.13644 -0.0366809 0.0150767
v 0.140371 0.00511203 0.0373846
v 0.219112 0.011903 -0.036263
v 0.140924 0.0184156 0.0354067
v 0.139824 0.0388005 0.0105745
v 0.13644 0.0366873 0.00325522
v 0.13645 0.036682 -0.006757
v 0.140523 -0.0390979 0.0320397
v 0.139267 -0.0390061 -0.0140657
v 0.13645 -0.03001 0.033015
v 0.137815 -0.00345691 6.3583e-05
v 0.141303 0.0364659 0.00345647
v 0.126053 -0.039683 -0.0502515
v 0.131601 -0.00104933 0.0285147
v 0.14664 0.040774 -0.040253
v 0.141325 -0.0100591 0.0352213
v 0.1417 0.014114 0.026325
v 0.139267 -0.0390061 0.00429134
v 0.080996 0.003704 -0.04911
v 0.142853 0.0346418 -0.0180179
v 0.141374 0.0306 0.029023
v 0.13743 0.00640946 0.00191651
v 0.139603 -0.0388924 0.00791869
v 0.142563 0.036154 0.025272
v 0.141511 0.0327195 0.0242415
v 0.146084 -0.035992 -0.041439
v 0.139508 0.006613 0.037817
v 0.141584 -0.0139612 0.0275893
v 0.1417 0.032307 0.024021
v 0.153969 0.0367053 -0.0448054
v 0.228217 -0 -0.0403055
v 0.141432 -0.0359459 0.0224128
v 0.228158 -0.0120815 -0.052895
v 0.13145 -0.014346 0.033507
v 0.1417 0.006724 -0.000563
v 0.142801 0.036162 -0.017434
v 0.15677 0.035403 -0.046565
v 0.134621 0.00470122 0.00967621
v 0.129725 0.005079 0.030759
v 0.1417 0.012484 0.00899
v 0.13645 -0.036682 0.018969
v 0.13645 0.036682 -1.3e-05
v 0.13644 -0.0366809 0.0120167
v 0.13645 0.039072 -0.002448
v 0.140688 -0.021276 0.033183
v 0.132766 -0.006468 -0.059803
v 0.159884 -0.035953 -0.047029
v 0.085721 -0.041638 -0.029868
v 0.13229 -0.021969 -0.057673
v 0.080156 0.036235 -0.003056
v 0.0802144 0.0360942 -0.00325329
v 0.0797622 0.0344691 -0.0156046
v 0.0801723 0.029888 -0.0208188
v 0.0801513 0.0184006 -0.031477
v 0.0801292 0.00727539 -0.0358816
v 0.0800707 0.0046969 -0.0362093
v 0.0799174 0.000330374 -0.03734
v 0.080069 -0.00449 -0.036206
v 0.080068 -0.004551 -0.036203
v 0.080068 -0.004579 -0.036201
v 0.080069 -0.004701 -0.036193
v 0.08007 -0.004867 -0.036179
v 0.0801377 -0.00884416 -0.0354631
v 0.0801389 -0.0180976 -0.031719
v 0.080161 -0.02179 -0.0290235
v 0.0802059 -0.0284453 -0.0226193
v 0.0798751 -0.0328344 -0.0179814
v 0.0801103 -0.0349625 -0.0109758
v 0.080156 -0.036238 -0.003056
v 0.08015 0.0363157 -1.90621e-05
v 0.0801117 0.033742 0.0144508
v 0.0802881 -0.0303881 0.0194726
v 0.0802438 -0.0325876 0.0155781
v 0.0801431 -0.0342584 0.0121038
v 0.0802147 -0.0361737 0.00208355
v 0.080142 -0.036327 -0.000689
v 0.0801415 -0.0363068 -0.00254475
v 0.0802932 0.0308404 0.0187598
v 0.0801902 0.0258707 0.0253025
v 0.0801799 0.0281768 0.0226488
v 0.0801681 -0.0199192 0.0303556
v 0.080204 0.016204 0.032152
v 0.080204 0.016187 0.03216
v 0.080294 0.013722 0.033186
v 0.0801366 0.0201937 0.0301235
v 0.0803043 0.0134277 0.0333062
v 0.080264 0.008124 0.03509
v 0.0802353 0.00711506 0.0354055
v 0.0801402 0.00451383 0.0360381
v 0.080263 -0.00801633 0.0351348
f 117 14 391
f 901 117 391
f 92 916 905
f 92 905 93
f 92 93 4
f 92 4 5
f 92 5 901
f 92 901 391
f 92 391 60
f 92 60 52
f 92 52 41
f 92 41 922
f 92 922 923
f 92 923 113
f 92 113 925
f 92 925 10
f 901 112 117
f 76 112 901
f 30 905 916
f 41 100 922
f 74 905 30
f 74 25 905
f 939 41 52
f 292 815 600
f 292 609 815
f 710 273 680
f 815 824 600
f 315 152 316
f 572 535 159
f 572 493 373
f 398 572 373
f 408 398 373
f 123 408 373
f 314 373 596
f 801 316 791
f 570 741 791
f 815 468 824
f 596 316 314
f 809 766 748
f 809 748 407
f 791 596 407
f 653 791 407
f 815 532 712
f 797 911 910
f 553 912 911
f 4 576 350
f 576 4 596
f 350 799 4
f 666 832 783
f 173 929 438
f 281 315 791
f 314 608 673
f 218 229 673
f 863 899 281
f 899 154 281
f 375 654 315
f 654 426 315
f 426 265 315
f 754 268 899
f 375 585 654
f 585 681 654
f 681 426 654
f 525 373 426
f 435 271 353
f 754 832 268
f 832 779 268
f 779 764 268
f 764 217 268
f 496 510 681
f 585 496 681
f 163 437 325
f 506 430 764
f 809 596 373
f 282 59 937
f 779 541 764
f 764 401 506
f 459 122 731
f 804 522 711
f 504 886 711
f 431 467 522
f 432 251 504
f 193 475 886
f 475 422 886
f 564 424 506
f 333 522 521
f 513 128 506
f 128 195 506
f 407 748 254
f 424 565 792
f 430 190 193
f 707 333 744
f 506 430 429
f 61 4 93
f 76 901 920
f 922 491 100
f 391 14 930
f 14 928 930
f 930 929 391
f 112 921 117
f 113 923 924
f 923 56 924
f 119 928 117
f 46 903 61
f 60 391 932
f 932 391 935
f 932 933 934
f 934 60 932
f 927 10 926
f 926 10 925
f 922 56 923
f 393 345 916
f 915 393 916
f 600 576 619
f 913 912 393
f 535 766 159
f 596 791 316
f 797 553 911
f 553 393 912
f 904 483 905
f 913 393 914
f 914 393 915
f 397 483 61
f 483 904 61
f 163 920 76
f 76 112 163
f 901 900 397
f 397 902 901
f 927 593 274
f 274 926 927
f 809 407 596
f 282 933 934
f 282 934 936
f 937 938 282
f 282 936 59
f 940 16 205
f 112 921 163
f 491 56 924
f 644 931 100
f 333 431 522
f 333 521 744
f 397 61 903
f 903 902 397
f 645 924 113
f 113 925 645
f 12 934 933
f 12 933 932
f 935 391 12
f 12 932 935
f 61 903 4
f 91 927 926
f 91 926 925
f 918 92 10
f 80 922 100
f 30 914 913
f 904 61 93
f 112 76 22
f 922 923 56
f 922 56 491
f 701 939 8
f 924 56 111
f 930 928 64
f 64 929 930
f 117 928 14
f 345 919 918
f 66 67 59
f 36 87 63
f 12 11 105
f 46 77 45
f 89 103 15
f 79 82 65
f 28 89 15
f 7 22 44
f 95 57 40
f 3 120 101
f 11 66 105
f 73 931 85
f 73 68 931
f 83 28 8
f 119 921 7
f 64 119 106
f 11 33 106
f 66 11 67
f 88 907 82
f 35 55 62
f 96 85 103
f 1 102 111
f 32 87 36
f 91 55 23
f 15 38 28
f 33 929 64
f 33 391 929
f 42 65 82
f 21 67 11
f 94 95 78
f 72 43 75
f 79 29 82
f 918 23 90
f 62 925 113
f 113 19 62
f 106 33 34
f 110 115 902
f 119 117 921
f 35 98 1
f 97 918 90
f 26 57 45
f 19 924 111
f 94 81 95
f 28 13 89
f 54 2 7
f 17 75 43
f 96 114 50
f 2 106 7
f 38 85 28
f 80 56 922
f 916 87 32
f 36 915 916
f 36 916 32
f 43 915 36
f 43 914 915
f 29 905 88
f 85 16 940
f 16 100 41
f 16 931 100
f 69 50 51
f 63 86 53
f 3 11 106
f 43 913 914
f 30 913 74
f 24 910 911
f 49 905 78
f 77 904 84
f 58 56 80
f 60 118 52
f 118 937 52
f 67 937 59
f 939 8 41
f 85 940 28
f 85 931 16
f 80 68 73
f 108 35 1
f 108 1 51
f 46 61 77
f 108 51 50
f 105 934 12
f 66 936 105
f 108 50 114
f 108 114 96
f 108 96 103
f 82 907 24
f 108 103 121
f 108 121 120
f 108 120 3
f 108 3 107
f 108 107 54
f 108 54 44
f 9 27 63
f 108 44 48
f 108 48 115
f 108 115 110
f 108 110 47
f 108 47 45
f 108 45 57
f 108 57 95
f 108 95 81
f 108 81 79
f 108 79 65
f 108 65 9
f 121 103 89
f 108 9 63
f 108 63 53
f 108 53 86
f 108 86 37
f 108 37 55
f 108 55 35
f 48 18 115
f 13 83 89
f 103 39 15
f 46 45 47
f 75 27 9
f 10 927 919
f 23 918 91
f 70 37 86
f 96 71 20
f 69 109 80
f 77 84 26
f 46 110 902
f 116 901 902
f 54 107 2
f 92 917 916
f 119 64 928
f 31 90 6
f 2 107 3
f 45 77 26
f 21 11 3
f 556 482 208
f 145 769 146
f 160 161 162
f 388 170 171
f 813 178 303
f 240 194 192
f 628 183 814
f 679 291 710
f 195 190 196
f 273 712 680
f 195 209 568
f 741 767 750
f 231 232 351
f 233 234 235
f 254 255 256
f 208 149 257
f 261 262 263
f 283 284 587
f 690 289 290
f 293 294 295
f 600 824 710
f 308 309 310
f 320 321 370
f 197 322 323
f 648 216 184
f 328 878 329
f 331 332 333
f 337 460 662
f 141 338 339
f 304 340 341
f 762 257 646
f 487 348 349
f 577 484 340
f 357 689 662
f 240 216 372
f 373 135 131
f 377 371 378
f 220 221 695
f 137 383 155
f 386 585 620
f 794 544 181
f 603 439 396
f 350 712 532
f 186 395 164
f 338 469 339
f 752 342 398
f 187 137 139
f 160 403 378
f 256 407 739
f 272 419 235
f 383 154 155
f 190 546 196
f 425 300 189
f 137 279 383
f 279 154 383
f 376 137 212
f 662 446 447
f 849 394 755
f 370 136 320
f 139 137 155
f 272 385 367
f 380 452 453
f 210 131 716
f 145 146 235
f 469 470 230
f 301 220 695
f 389 364 197
f 320 136 321
f 485 486 235
f 265 488 124
f 262 489 490
f 366 328 329
f 400 399 492
f 488 316 124
f 423 251 496
f 501 502 330
f 386 129 585
f 129 369 269
f 213 136 716
f 390 208 515
f 664 591 151
f 536 517 518
f 329 344 526
f 695 220 221
f 473 537 363
f 695 392 301
f 225 545 251
f 225 545 168
f 547 548 493
f 838 298 349
f 559 555 560
f 349 821 561
f 562 337 662
f 641 350 614
f 751 567 283
f 573 574 575
f 577 340 578
f 169 756 581
f 582 244 583
f 363 450 364
f 495 282 129
f 298 821 883
f 389 184 240
f 379 355 370
f 481 740 288
f 395 597 164
f 218 608 133
f 602 603 604
f 385 367 237
f 470 612 400
f 220 301 550
f 267 135 387
f 360 455 361
f 250 545 251
f 195 293 206
f 545 250 168
f 184 389 364
f 364 197 591
f 197 591 151
f 197 151 479
f 213 151 479
f 135 136 716
f 213 479 716
f 605 240 251
f 605 389 240
f 267 135 136
f 246 209 568
f 258 195 209
f 195 258 196
f 272 534 165
f 546 193 182
f 360 601 617
f 272 534 385
f 231 232 385
f 619 407 207
f 367 272 281
f 568 293 640
f 314 316 608
f 348 561 276
f 302 319 415
f 638 639 640
f 444 445 727
f 528 334 703
f 369 129 386
f 752 572 547
f 389 605 386
f 380 657 687
f 663 150 151
f 150 664 151
f 184 216 240
f 664 364 591
f 664 363 364
f 667 464 668
f 244 464 245
f 251 423 313
f 421 213 370
f 468 815 273
f 725 260 675
f 529 434 677
f 450 413 648
f 265 135 373
f 322 197 681
f 605 251 613
f 678 551 682
f 135 716 131
f 691 494 262
f 664 150 802
f 153 556 341
f 193 384 566
f 307 694 563
f 836 686 453
f 291 273 710
f 873 778 698
f 600 710 576
f 210 211 654
f 327 700 284
f 134 557 412
f 389 386 620
f 479 480 211
f 210 479 211
f 204 210 654
f 235 703 367
f 210 204 131
f 389 620 198
f 197 389 198
f 197 198 681
f 701 323 510
f 701 525 426
f 701 197 323
f 197 701 480
f 480 701 426
f 479 197 480
f 237 367 539
f 135 265 123
f 387 135 123
f 316 488 608
f 123 265 124
f 286 423 496
f 707 520 471
f 219 709 821
f 613 251 269
f 605 389 658
f 437 243 438
f 438 627 437
f 438 579 659
f 713 714 522
f 191 190 546
f 190 191 430
f 195 190 430
f 286 496 590
f 625 286 590
f 328 715 822
f 718 235 719
f 818 226 721
f 549 137 138
f 272 235 367
f 405 406 363
f 382 205 204
f 125 219 561
f 213 421 498
f 351 232 539
f 354 421 355
f 293 295 280
f 355 421 370
f 240 585 251
f 251 585 168
f 250 251 168
f 301 497 733
f 736 623 512
f 225 224 738
f 354 355 379
f 368 599 358
f 746 747 311
f 224 266 738
f 726 439 727
f 301 695 696
f 748 749 809
f 815 712 273
f 369 386 605
f 369 605 613
f 269 369 613
f 479 210 716
f 762 257 341
f 153 230 341
f 710 680 576
f 385 237 539
f 232 385 539
f 833 577 578
f 301 607 497
f 277 213 498
f 421 354 130
f 935 495 297
f 282 241 129
f 831 439 772
f 588 330 502
f 464 667 245
f 762 208 257
f 810 548 159
f 628 511 551
f 358 599 532
f 193 411 310
f 134 412 329
f 209 246 324
f 258 209 324
f 544 189 711
f 250 854 504
f 671 399 836
f 206 190 734
f 220 695 301
f 698 233 235
f 277 498 499
f 385 237 367
f 247 189 544
f 213 342 688
f 577 417 484
f 780 304 341
f 781 813 235
f 782 307 694
f 563 662 447
f 156 778 233
f 461 377 378
f 604 293 772
f 570 785 245
f 235 419 227
f 786 440 870
f 654 211 630
f 339 230 660
f 240 389 789
f 146 781 235
f 244 582 649
f 247 451 194
f 421 130 498
f 663 277 735
f 215 882 523
f 181 504 854
f 149 153 556
f 646 516 762
f 150 167 802
f 167 472 802
f 802 472 473
f 664 802 473
f 664 473 363
f 405 363 537
f 450 363 406
f 184 450 648
f 190 546 734
f 723 448 179
f 150 277 167
f 277 150 735
f 150 663 735
f 663 151 277
f 441 277 670
f 277 499 670
f 557 418 810
f 880 806 161
f 335 336 693
f 284 245 587
f 381 657 270
f 216 413 372
f 606 648 413
f 216 648 606
f 413 216 606
f 718 416 171
f 380 455 657
f 240 722 389
f 142 199 570
f 400 646 780
f 732 633 638
f 776 652 811
f 752 398 580
f 192 451 448
f 392 264 301
f 375 620 347
f 198 620 375
f 198 375 812
f 681 198 812
f 620 585 347
f 207 653 570
f 829 410 179
f 153 339 230
f 443 359 442
f 480 442 359
f 211 480 359
f 816 829 591
f 699 211 359
f 211 699 630
f 442 480 443
f 480 426 443
f 638 776 817
f 695 392 221
f 530 770 807
f 179 830 829
f 820 518 293
f 267 775 136
f 219 615 561
f 632 855 517
f 153 624 660
f 189 300 711
f 562 362 462
f 247 544 794
f 365 514 736
f 165 215 419
f 248 823 343
f 460 414 201
f 170 698 235
f 481 747 740
f 755 558 299
f 549 595 138
f 144 253 137
f 144 253 155
f 144 549 137
f 819 721 235
f 236 755 394
f 652 776 732
f 557 507 418
f 646 692 556
f 833 228 760
f 888 834 704
f 558 573 575
f 179 598 542
f 264 733 301
f 671 164 836
f 157 270 622
f 290 289 485
f 293 837 772
f 257 230 341
f 439 203 311
f 574 344 575
f 180 557 179
f 607 301 696
f 655 695 221
f 389 722 723
f 428 220 301
f 428 301 346
f 550 301 346
f 439 540 842
f 690 538 486
f 547 356 826
f 505 550 126
f 346 550 428
f 230 780 341
f 756 843 194
f 389 479 519
f 781 796 813
f 695 655 696
f 787 686 687
f 528 667 847
f 691 262 490
f 387 408 123
f 533 387 123
f 124 533 123
f 124 314 316
f 395 164 671
f 249 420 788
f 605 389 789
f 617 657 622
f 750 569 801
f 814 183 365
f 439 850 772
f 455 657 622
f 124 316 801
f 403 326 562
f 165 124 801
f 141 304 646
f 477 669 478
f 787 671 395
f 460 305 125
f 134 529 677
f 389 509 852
f 866 508 717
f 770 530 656
f 830 134 677
f 338 141 340
f 814 736 512
f 188 641 614
f 742 646 400
f 234 290 485
f 136 263 805
f 721 226 851
f 468 291 824
f 618 308 471
f 652 732 811
f 639 827 839
f 215 165 166
f 250 605 658
f 434 479 610
f 252 866 557
f 631 861 344
f 856 409 820
f 716 479 688
f 396 439 857
f 700 327 427
f 494 805 263
f 742 709 248
f 471 474 422
f 348 276 487
f 469 600 157
f 842 540 835
f 658 807 770
f 226 465 851
f 598 247 451
f 678 183 864
f 760 577 833
f 352 796 800
f 339 153 660
f 751 587 859
f 828 213 529
f 230 470 780
f 482 343 228
f 420 631 739
f 757 492 186
f 326 599 175
f 854 250 658
f 530 852 542
f 219 125 223
f 299 420 249
f 853 228 482
f 409 862 518
f 471 503 618
f 190 546 193
f 830 134 179
f 203 831 185
f 761 203 476
f 486 145 235
f 287 635 867
f 780 762 304
f 752 866 717
f 439 842 857
f 213 479 434
f 436 402 675
f 558 755 236
f 294 444 892
f 640 293 638
f 741 570 200
f 136 261 263
f 446 362 462
f 540 439 726
f 543 822 828
f 266 250 738
f 660 230 341
f 616 583 882
f 360 157 361
f 471 870 503
f 599 532 175
f 402 848 675
f 778 868 233
f 810 749 557
f 641 576 350
f 658 389 807
f 226 818 621
f 251 250 266
f 823 223 143
f 714 786 870
f 761 206 734
f 249 641 188
f 767 741 200
f 813 700 235
f 412 344 329
f 293 604 396
f 460 357 662
f 171 170 235
f 504 463 250
f 646 742 844
f 270 381 665
f 272 165 419
f 213 136 342
f 252 180 519
f 723 179 410
f 867 635 636
f 756 240 581
f 408 533 569
f 746 311 755
f 527 299 740
f 715 328 798
f 706 432 433
f 134 822 543
f 567 700 427
f 675 260 312
f 776 652 777
f 778 690 290
f 598 179 451
f 193 190 411
f 176 855 632
f 222 390 228
f 834 514 682
f 723 364 610
f 689 662 446
f 419 215 524
f 757 838 298
f 157 622 455
f 722 192 448
f 293 835 726
f 718 171 235
f 176 632 517
f 449 259 874
f 592 767 535
f 307 461 462
f 518 517 293
f 460 337 201
f 329 526 366
f 572 752 580
f 213 479 688
f 829 816 364
f 694 662 447
f 467 544 711
f 464 244 649
f 807 877 530
f 538 690 352
f 639 697 827
f 179 542 852
f 704 682 551
f 176 536 647
f 778 840 868
f 311 879 827
f 262 494 263
f 692 646 844
f 305 219 561
f 830 434 591
f 368 880 239
f 171 465 388
f 740 318 247
f 368 806 880
f 740 747 746
f 614 503 440
f 180 179 845
f 188 425 189
f 646 390 762
f 318 740 872
f 420 299 861
f 307 880 684
f 798 136 494
f 197 479 610
f 176 536 177
f 821 615 219
f 416 718 893
f 255 407 256
f 304 556 646
f 563 562 662
f 589 849 761
f 514 834 512
f 340 484 660
f 407 619 739
f 758 740 247
f 807 389 877
f 547 548 418
f 493 572 159
f 352 178 813
f 589 559 560
f 687 399 381
f 193 140 676
f 284 700 303
f 743 568 640
f 587 245 859
f 652 776 777
f 342 387 398
f 747 879 311
f 209 246 196
f 820 293 280
f 304 762 341
f 689 760 357
f 389 197 610
f 818 721 819
f 340 624 149
f 605 250 789
f 232 231 237
f 479 508 519
f 465 226 244
f 169 581 266
f 873 698 170
f 451 192 194
f 651 256 739
f 159 809 373
f 245 528 751
f 277 884 278
f 277 584 884
f 770 181 854
f 574 582 344
f 258 209 196
f 871 635 720
f 289 486 485
f 740 758 288
f 755 527 885
f 861 631 420
f 520 886 471
f 410 829 364
f 822 214 828
f 886 714 471
f 493 159 373
f 700 813 303
f 390 768 844
f 788 619 576
f 716 688 342
f 293 773 837
f 425 188 614
f 651 749 748
f 508 252 519
f 725 675 737
f 226 882 244
f 746 755 885
f 194 843 287
f 183 628 864
f 552 678 864
f 551 678 552
f 551 511 704
f 888 704 511
f 511 628 814
f 736 814 365
f 704 834 682
f 514 365 682
f 551 864 628
f 864 551 552
f 514 623 736
f 511 814 512
f 888 511 512
f 834 888 512
f 514 512 623
f 759 705 889
f 698 156 233
f 868 778 234
f 548 493 159
f 558 236 573
f 755 299 527
f 890 867 636
f 636 747 890
f 526 583 366
f 582 583 526
f 344 582 526
f 879 747 636
f 464 649 668
f 690 778 244
f 291 468 273
f 824 679 710
f 638 293 732
f 586 227 891
f 586 819 227
f 773 293 206
f 294 293 894
f 293 726 894
f 726 727 894
f 640 839 743
f 293 396 835
f 856 820 280
f 419 524 227
f 819 235 227
f 732 517 811
f 732 293 517
f 234 778 846
f 721 851 729
f 721 729 235
f 235 729 719
f 718 719 893
f 250 251 789
f 251 240 789
f 234 485 235
f 591 610 364
f 800 781 146
f 538 145 486
f 389 723 610
f 591 434 610
f 700 567 235
f 567 751 235
f 846 778 290
f 226 586 891
f 850 439 602
f 439 444 727
f 444 862 892
f 176 776 811
f 862 176 647
f 776 697 817
f 817 697 638
f 240 756 194
f 722 240 192
f 213 434 529
f 328 822 878
f 715 494 822
f 494 691 822
f 691 895 822
f 895 214 822
f 224 871 287
f 287 871 720
f 635 287 720
f 287 843 756
f 169 287 756
f 224 287 169
f 762 780 646
f 800 796 781
f 231 232 637
f 232 385 637
f 195 568 293
f 136 267 775
f 232 385 237
f 387 136 342
f 195 190 206
f 546 193 140
f 667 528 245
f 250 463 225
f 463 629 225
f 308 309 475
f 197 479 389
f 716 342 752
f 533 165 801
f 195 513 792
f 237 231 142
f 425 804 300
f 503 425 614
f 786 425 503
f 350 532 614
f 619 788 739
f 256 651 748
f 672 256 748
f 254 256 672
f 804 425 713
f 425 786 713
f 641 788 576
f 308 475 471
f 503 614 618
f 407 255 207
f 207 255 653
f 795 766 767
f 750 801 791
f 713 786 714
f 522 714 886
f 544 467 181
f 467 504 181
f 741 750 791
f 508 866 252
f 317 181 770
f 794 181 317
f 852 509 519
f 507 752 418
f 507 866 752
f 601 702 617
f 752 547 418
f 809 749 810
f 809 810 159
f 707 471 422
f 471 714 870
f 786 503 440
f 367 237 643
f 237 724 643
f 598 247 317
f 858 753 767
f 200 570 653
f 565 477 478
f 570 791 653
f 592 535 580
f 508 479 716
f 310 411 422
f 475 474 471
f 751 703 235
f 870 440 503
f 142 724 237
f 570 785 245
f 766 254 672
f 535 767 766
f 669 432 478
f 123 314 124
f 658 770 771
f 658 771 854
f 771 770 854
f 877 852 530
f 877 389 852
f 509 389 519
f 508 716 717
f 716 752 717
f 569 858 408
f 408 858 592
f 535 572 580
f 533 801 569
f 408 592 580
f 136 775 860
f 136 775 860
f 311 849 755
f 761 849 311
f 143 674 823
f 334 528 847
f 245 284 244
f 284 352 244
f 352 690 244
f 778 465 244
f 352 284 683
f 303 352 683
f 327 284 427
f 523 882 226
f 873 465 778
f 851 728 729
f 444 439 311
f 697 776 827
f 776 311 827
f 776 176 311
f 176 862 311
f 862 444 311
f 203 761 311
f 476 203 206
f 203 439 831
f 536 176 177
f 761 734 589
f 849 589 394
f 555 589 560
f 839 640 639
f 250 225 738
f 224 225 790
f 214 213 828
f 136 213 214
f 136 214 489
f 494 136 805
f 215 166 882
f 166 616 882
f 725 571 260
f 611 147 642
f 675 312 531
f 675 531 259
f 745 259 449
f 259 745 675
f 147 611 148
f 611 708 148
f 501 588 502
f 808 356 572
f 611 642 374
f 356 611 374
f 299 249 872
f 612 470 469
f 557 631 412
f 134 557 179
f 481 867 890
f 249 318 872
f 878 134 329
f 529 134 543
f 878 822 134
f 247 287 758
f 247 194 287
f 179 448 451
f 287 288 758
f 412 631 344
f 299 872 740
f 318 189 247
f 318 188 189
f 318 249 188
f 788 420 739
f 631 651 739
f 542 598 656
f 656 598 317
f 317 247 794
f 179 852 845
f 557 866 507
f 252 557 180
f 631 749 651
f 749 631 557
f 827 404 839
f 635 875 636
f 875 879 636
f 879 875 827
f 875 404 827
f 871 224 790
f 224 169 266
f 288 287 867
f 481 288 867
f 299 344 861
f 344 299 575
f 575 299 558
f 527 740 885
f 740 746 885
f 747 481 890
f 895 691 490
f 214 895 490
f 489 214 490
f 494 715 798
f 328 366 238
f 238 366 583
f 616 238 583
f 882 583 244
f 677 434 830
f 828 529 543
f 829 830 591
f 816 591 364
f 364 723 410
f 722 448 723
f 638 697 639
f 549 152 315
f 206 761 476
f 862 409 856
f 518 862 647
f 409 518 820
f 647 536 518
f 536 176 517
f 176 811 517
f 855 176 517
f 732 776 132
f 633 732 132
f 776 633 132
f 633 776 638
f 835 540 726
f 892 158 295
f 862 158 892
f 862 856 280
f 158 862 280
f 295 158 280
f 727 445 894
f 445 444 294
f 445 294 894
f 439 603 602
f 604 603 396
f 185 831 837
f 837 831 772
f 773 203 185
f 206 203 773
f 215 523 524
f 227 226 891
f 524 226 227
f 523 226 524
f 751 528 703
f 703 334 367
f 840 778 868
f 868 234 233
f 388 873 170
f 465 873 388
f 698 778 156
f 465 416 893
f 416 465 171
f 465 728 851
f 465 893 719
f 728 465 719
f 729 728 719
f 621 818 819
f 226 621 586
f 796 352 813
f 289 690 486
f 145 538 769
f 538 352 769
f 352 800 146
f 769 352 146
f 178 352 303
f 284 303 683
f 284 283 567
f 284 567 427
f 751 283 587
f 245 751 859
f 124 165 533
f 809 159 766
f 408 387 533
f 766 672 748
f 675 848 737
f 745 449 874
f 675 745 436
f 519 180 845
f 548 810 418
f 852 519 845
f 770 656 317
f 530 542 656
f 249 788 641
f 222 853 228
f 208 390 762
f 141 149 257
f 141 340 149
f 624 340 660
f 556 304 341
f 768 844 692
f 692 248 768
f 248 482 692
f 482 248 343
f 556 692 482
f 149 556 208
f 153 149 624
f 248 228 768
f 343 228 248
f 390 228 768
f 390 646 844
f 141 340 304
f 257 141 646
f 340 660 341
f 208 482 515
f 222 390 515
f 222 853 515
f 853 222 482
f 482 222 515
f 685 378 377
f 600 601 360
f 782 202 307
f 821 219 349
f 337 825 201
f 461 307 378
f 403 562 371
f 619 576 596
f 782 694 662
f 270 657 622
f 825 730 305
f 360 157 455
f 291 679 824
f 469 141 339
f 160 685 162
f 160 378 685
f 462 362 446
f 160 161 887
f 880 368 358
f 599 880 358
f 599 326 403
f 160 403 887
f 880 403 887
f 599 403 880
f 836 671 453
f 836 453 452
f 657 270 665
f 186 395 838
f 164 395 671
f 487 380 395
f 838 487 395
f 380 453 395
f 125 460 143
f 612 897 665
f 305 414 201
f 305 460 201
f 305 219 275
f 348 615 349
f 487 838 349
f 378 403 371
f 562 563 362
f 825 414 201
f 305 414 825
f 730 881 561
f 305 730 561
f 348 561 615
f 461 457 462
f 694 689 446
f 532 799 350
f 349 561 615
f 219 821 561
f 275 125 305
f 650 307 202
f 823 674 343
f 594 276 561
f 694 662 689
f 561 881 594
f 399 686 836
f 821 298 615
f 143 460 357
f 757 186 838
f 161 456 162
f 671 453 395
f 484 340 660
f 466 907 906
f 880 239 887
f 689 662 447
f 446 563 447
f 362 563 446
f 742 768 844
f 600 360 157
f 599 815 358
f 326 815 599
f 626 815 326
f 202 201 454
f 617 702 787
f 454 201 763
f 787 454 763
f 454 787 702
f 201 202 782
f 650 326 307
f 307 326 880
f 326 599 880
f 577 865 417
f 577 456 865
f 742 400 492
f 612 399 400
f 760 456 577
f 626 417 865
f 469 417 626
f 803 469 626
f 684 161 162
f 806 368 239
f 806 161 368
f 157 622 270
f 360 617 622
f 880 161 160
f 806 880 239
f 836 671 453
f 686 787 453
f 381 787 687
f 617 787 381
f 617 381 657
f 838 597 395
f 597 838 186
f 787 671 453
f 763 838 395
f 787 763 395
f 460 305 414
f 460 201 357
f 125 305 561
f 838 763 298
f 298 348 615
f 763 348 298
f 307 684 378
f 684 880 160
f 782 662 689
f 201 782 689
f 357 201 689
f 307 462 362
f 307 446 362
f 307 446 563
f 763 348 201
f 348 414 201
f 348 561 615
f 348 305 561
f 305 348 414
f 143 357 760
f 228 143 760
f 674 143 228
f 760 689 462
f 457 760 462
f 456 760 457
f 456 457 162
f 709 823 248
f 709 219 823
f 742 298 709
f 757 742 492
f 757 298 742
f 597 492 671
f 492 597 186
f 492 399 671
f 399 687 686
f 399 612 381
f 381 612 665
f 612 665 897
f 612 469 157
f 665 612 157
f 865 456 161
f 709 883 821
f 709 298 883
f 823 219 223
f 600 469 803
f 815 626 865
f 601 876 292
f 470 400 780
f 516 833 762
f 762 833 578
f 417 338 484
f 417 469 338
f 742 248 768
f 390 228 516
f 228 833 516
f 228 248 343
f 516 646 390
f 141 230 257
f 484 338 340
f 141 469 230
f 768 228 844
f 228 390 844
f 141 578 340
f 762 578 257
f 578 141 257
f 343 674 228
f 597 671 164
f 125 143 223
f 143 357 460
f 462 689 446
f 457 461 377
f 684 457 685
f 684 457 377
f 457 685 162
f 684 685 162
f 161 368 358
f 161 815 865
f 806 239 880
f 368 806 239
f 368 599 880
f 684 377 378
f 684 160 161
f 446 362 462
f 694 563 446
f 694 662 447
f 305 125 460
f 143 125 460
f 270 657 622
f 360 157 622
f 797 909 500
f 500 908 466
f 554 905 483
f 841 905 554
f 869 906 841
f 634 541 609
f 712 576 680
f 458 784 783
f 579 391 935
f 297 579 935
f 174 929 391
f 173 930 929
f 930 438 928
f 163 921 437
f 306 900 920
f 608 218 673
f 229 898 673
f 265 488 315
f 488 608 315
f 608 314 315
f 229 491 898
f 491 435 898
f 435 353 898
f 302 229 218
f 302 491 229
f 268 217 899
f 217 154 899
f 863 754 899
f 681 701 426
f 373 265 426
f 373 525 265
f 525 133 265
f 133 488 265
f 133 608 488
f 491 271 435
f 133 204 218
f 314 791 315
f 832 896 774
f 832 774 458
f 832 458 459
f 832 459 731
f 510 323 681
f 323 701 681
f 510 242 701
f 242 939 701
f 920 163 325
f 437 627 325
f 382 133 525
f 382 204 133
f 255 653 407
f 659 285 296
f 645 925 271
f 491 645 271
f 593 919 345
f 579 297 659
f 438 174 579
f 174 391 579
f 924 645 491
f 204 205 218
f 205 644 218
f 644 302 218
f 644 319 302
f 319 644 415
f 765 779 832
f 634 779 765
f 661 541 779
f 458 122 459
f 423 242 496
f 242 510 496
f 939 242 241
f 285 129 241
f 423 286 242
f 495 933 282
f 286 285 242
f 285 241 242
f 495 935 932
f 241 938 939
f 382 940 205
f 438 117 928
f 243 117 438
f 437 921 243
f 401 296 506
f 415 491 302
f 255 407 795
f 653 255 795
f 661 634 541
f 325 627 401
f 627 438 401
f 438 659 401
f 659 296 401
f 16 931 205
f 205 931 644
f 100 415 644
f 458 774 793
f 285 625 296
f 625 506 296
f 285 659 129
f 659 495 129
f 659 297 495
f 506 195 430
f 195 190 430
f 411 195 792
f 569 753 858
f 172 333 332
f 477 590 669
f 300 804 711
f 422 310 411
f 522 467 711
f 467 504 711
f 886 300 711
f 886 804 300
f 886 522 804
f 886 521 522
f 172 706 433
f 331 707 411
f 422 475 309
f 669 463 432
f 331 411 792
f 748 672 254
f 477 565 506
f 565 564 506
f 424 513 506
f 422 520 886
f 580 398 408
f 128 513 195
f 795 407 254
f 513 424 792
f 565 331 792
f 504 467 431
f 310 190 411
f 521 520 744
f 592 858 767
f 433 432 504
f 432 496 251
f 706 172 332
f 496 429 251
f 332 478 706
f 424 564 565
f 478 332 565
f 310 309 193
f 309 475 193
f 332 331 565
f 580 572 398
f 411 707 422
f 707 520 422
f 707 744 520
f 172 431 333
f 172 433 431
f 706 478 432
f 432 463 496
f 463 669 496
f 669 590 496
f 590 429 496
f 590 506 429
f 100 68 80
f 920 901 900
f 937 938 52
f 926 353 271
f 916 915 30
f 903 5 4
f 939 52 938
f 902 901 5
f 919 918 10
f 925 62 91
f 934 936 60
f 74 912 908
f 907 906 25
f 940 16 41
f 8 525 701
f 905 904 93
f 915 914 30
f 936 118 60
f 88 906 907
f 56 109 111
f 1 98 102
f 90 23 6
f 1 111 109
f 917 97 90
f 70 87 31
f 91 62 55
f 43 36 63
f 15 39 38
f 38 39 103
f 85 38 103
f 20 85 96
f 71 80 73
f 87 916 917
f 33 11 391
f 11 12 391
f 63 70 86
f 42 75 65
f 42 72 75
f 21 101 67
f 89 67 101
f 28 83 13
f 43 63 27
f 120 121 89
f 79 81 29
f 109 58 80
f 115 116 902
f 17 43 27
f 116 900 901
f 900 116 920
f 116 99 920
f 26 40 57
f 19 113 924
f 20 71 85
f 98 62 111
f 94 29 81
f 46 902 903
f 7 106 119
f 44 54 7
f 26 84 78
f 26 78 40
f 905 25 906
f 29 78 905
f 68 100 931
f 43 72 913
f 72 82 913
f 82 24 913
f 24 907 908
f 24 908 909
f 912 913 24
f 911 912 24
f 24 909 910
f 22 7 921
f 49 904 905
f 49 84 904
f 77 61 904
f 58 109 56
f 118 59 937
f 67 938 937
f 67 83 938
f 83 8 939
f 939 938 83
f 28 940 8
f 29 94 78
f 2 3 106
f 85 71 73
f 48 44 104
f 22 18 44
f 29 88 82
f 917 31 87
f 105 936 934
f 66 59 936
f 19 111 62
f 84 49 78
f 23 55 37
f 71 69 80
f 48 104 18
f 31 6 37
f 64 34 33
f 6 23 37
f 18 99 116
f 18 116 115
f 75 17 27
f 110 46 47
f 102 98 111
f 89 83 67
f 87 70 63
f 18 104 44
f 918 919 91
f 98 35 62
f 22 99 18
f 70 31 37
f 109 51 1
f 50 69 71
f 3 101 21
f 82 72 42
f 96 50 71
f 101 120 89
f 106 34 64
f 69 51 109
f 22 921 112
f 92 918 917
f 31 917 90
f 99 76 920
f 99 22 76
f 40 78 95
f 9 65 75
f 200 653 795
f 766 795 254
f 123 373 314
f 869 466 906
f 466 908 907
f 797 910 909
f 500 909 908
f 841 906 905
f 712 350 576
f 306 397 900
f 767 753 750
f 314 673 791
f 593 927 919
f 438 930 173
f 325 306 920
f 495 932 933
f 241 282 938
f 382 8 940
f 243 921 117
f 661 779 634
f 774 896 127
f 438 929 174
f 285 286 625
f 625 590 506
f 411 190 195
f 569 750 753
f 200 795 767
f 431 433 504
f 477 506 590
f 422 309 310
f 331 333 707
f 310 193 190
f 521 886 520
f 345 918 917
f 917 916 345
f 271 925 926
f 926 274 353
f 91 919 927
f 88 905 906
f 100 491 415
f 8 382 525
f 903 902 5
f 74 913 912
f 912 911 908
f 911 910 908
f 910 909 908
f 908 907 25
f 25 74 908
f 41 8 940
f 918 97 917
f 936 59 118
