v 0.131284 0.010072 -0.060138
v 0.131328 0.00498 -0.060496
v 0.160068 -0.035556 -0.053474
v 0.094799 -0.041078 -0.047029
v 0.094355 -0.040389 -0.047884
v 0.094858 -0.040536 -0.048201
v 0.229425 0.009739 -0.052886
v 0.227742 0.012125 -0.053039
v 0.227409 0.011057 -0.052977
v 0.101797 -0.008064 -0.060343
v 0.131284 -0.005225 -0.060491
v 0.13131 -0.010316 -0.06011
v 0.101797 0.002722 -0.060617
v 0.081002 -0.017284 -0.046377
v 0.081145 -0.018285 -0.046512
v 0.153557 -0.038744 -0.045114
v 0.154948 -0.038135 -0.04611
v 0.227989 0.012151 -0.05317
v 0.131025 -0.041817 -0.041937
v 0.081655 0.026305 -0.043202
v 0.155239 -0.03752 -0.046147
v 0.157314 -0.03711 -0.047011
v 0.159442 0.0354 -0.047361
v 0.160015 0.035637 -0.047369
v 0.129917 -0.02155 -0.058426
v 0.128962 -0.023186 -0.057992
v 0.117184 -0.024249 -0.057808
v 0.200357 -0.014346 -0.053027
v 0.081007 0.017358 -0.046382
v 0.081053 0.020384 -0.04522
v 0.081129 0.018156 -0.0465
v 0.081252 0.018886 -0.0465
v 0.081724 -0.036421 -0.03497
v 0.081135 -0.03613 -0.034137
v 0.101797 -0.011144 -0.060033
v 0.206907 -0.012948 -0.05309
v 0.096209 -0.037954 -0.052116
v 0.096824 -0.038128 -0.052084
v 0.095999 -0.038519 -0.051427
v 0.08147 0.030926 -0.039762
v 0.081152 0.030572 -0.039203
v 0.081285 -0.037231 -0.033077
v 0.093829 0.041441 -0.04446
v 0.086439 0.041251 -0.037554
v 0.132453 -0.021058 -0.057729
v 0.131812 -0.041874 -0.039
v 0.229592 -0.008961 -0.052982
v 0.087824 -0.007813 -0.059559
v 0.087179 -0.007839 -0.059125
v 0.086959 -0.00481 -0.059306
v 0.081539 -0.03717 -0.033901
v 0.092248 -0.041685 -0.031309
v 0.15552 0.036462 -0.046093
v 0.080958 0.016102 -0.0465
v 0.08113 0.026379 -0.042114
v 0.101797 0.008471 -0.060311
v 0.136025 0.041755 -0.036241
v 0.181924 0.024012 -0.05131
v 0.196429 0.016123 -0.052486
v 0.09026 0.023765 -0.056682
v 0.090129 0.022171 -0.057301
v 0.086695 0.021007 -0.054451
v 0.206202 0.012977 -0.058188
v 0.207476 0.01308 -0.053589
v 0.132746 -0.020289 -0.058018
v 0.132766 -0.014047 -0.059056
v 0.081012 -0.030244 -0.038394
v 0.227252 -0.012522 -0.052931
v 0.084472 -0.041201 -0.032831
v 0.085314 -0.041302 -0.035998
v 0.2292 0.008141 -0.052944
v 0.103264 0.024077 -0.057866
v 0.103943 0.025504 -0.057505
v 0.104747 0.025575 -0.05748
v 0.144302 -0.041193 -0.041006
v 0.143812 -0.041182 -0.040387
v 0.143682 -0.041345 -0.040673
v 0.225159 -0.012887 -0.053139
v 0.225366 -0.012075 -0.053033
v 0.228141 -0.012115 -0.053424
v 0.08095 0.0195 -0.045062
v 0.132766 0.012141 -0.059281
v 0.132766 0.008248 -0.059644
v 0.228173 0.010178 -0.052561
v 0.081142 0.037188 -0.032105
v 0.08095 0.023237 -0.043248
v 0.081128 0.023632 -0.043972
v 0.08095 -0.0195 -0.045062
v 0.081157 0.000793 -0.049994
v 0.206911 0.012027 -0.052981
v 0.126039 0.040854 -0.048623
v 0.140291 0.041581 -0.046766
v 0.144288 0.041051 -0.048236
v 0.084811 0.041407 -0.031505
v 0.198672 0.015161 -0.052541
v 0.199328 0.013752 -0.052726
v 0.197204 0.015454 -0.052712
v 0.095621 -0.037632 -0.052012
v 0.087322 -0.023406 -0.053907
v 0.081025 -0.036321 -0.033234
v 0.22676 -0.011053 -0.052946
v 0.102136 0.024381 -0.057767
v 0.084768 -0.041536 -0.032845
v 0.081141 -0.026393 -0.042174
v 0.081128 -0.023632 -0.043972
v 0.22517 0.012903 -0.053072
v 0.209709 0.012887 -0.053031
v 0.152324 0.039108 -0.045027
v 0.152244 0.039056 -0.051462
v 0.143849 -0.04085 -0.040225
v 0.152305 -0.038593 -0.044801
v 0.152327 -0.039102 -0.045015
v 0.203892 0.01199 -0.059248
v 0.155693 0.037389 -0.046307
v 0.154374 0.038261 -0.045916
v 0.177641 0.024457 -0.050329
v 0.081655 -0.026305 -0.043202
v 0.132765 0.01868 -0.058323
v 0.132765 0.02 -0.058075
v 0.081117 0.016797 -0.047031
v 0.177981 0.025584 -0.05054
v 0.094772 -0.035182 -0.053372
v 0.096125 -0.036258 -0.053336
v 0.095279 -0.036323 -0.052871
v 0.088959 0.028644 -0.052436
v 0.084458 0.006878 -0.056448
v 0.084579 0.006885 -0.056673
v 0.084481 0.004853 -0.056765
v 0.145829 0.023216 -0.053176
v 0.092142 0.026474 -0.056535
v 0.091768 0.024115 -0.057164
v 0.08095 -0.015931 -0.0465
v 0.203291 -0.013752 -0.053144
v 0.159381 0.035847 -0.053381
v 0.101797 -0.022705 -0.058178
v 0.101756 -0.023495 -0.057977
v 0.081156 -0.002201 -0.049951
v 0.177556 -0.024447 -0.050297
v 0.081534 -0.03613 -0.034933
v 0.081022 0.036293 -0.033322
v 0.086574 0.041681 -0.028899
v 0.088767 0.009582 -0.059563
v 0.14618 -0.02868 -0.052187
v 0.230906 -0.009175 -0.053509
v 0.081301 -0.019092 -0.0465
v 0.102022 -0.02441 -0.057733
v 0.136034 -0.041733 -0.036224
v 0.104219 -0.02558 -0.057485
v 0.226186 -0.012349 -0.0584
v 0.203494 0.013222 -0.053056
v 0.20023 0.013231 -0.052786
v 0.203481 0.012278 -0.052943
v 0.093841 -0.041446 -0.04445
v 0.081517 0.03717 -0.0339
v 0.081224 0.036201 -0.034291
v 0.081516 -0.030899 -0.039847
v 0.101797 -0.003036 -0.060609
v 0.081136 -0.030555 -0.039161
v 0.132766 -0.000146 -0.059994
v 0.132766 0.005587 -0.059853
v 0.196178 0.015208 -0.052444
v 0.095999 -0.03963 -0.050235
v 0.095222 -0.04026 -0.048857
v 0.09546 -0.039306 -0.050197
v 0.080996 0.003704 -0.04911
v 0.080998 0.00078 -0.049248
v 0.228064 -0.010649 -0.058884
v 0.103091 -0.02428 -0.057817
v 0.12602 0.041727 -0.044707
v 0.202507 -0.01232 -0.059227
v 0.132766 -0.012138 -0.059259
v 0.132766 -0.010646 -0.059417
v 0.13035 0.022433 -0.058172
v 0.129504 0.022707 -0.058177
v 0.081004 0.03027 -0.038388
v 0.084866 0.041319 -0.034755
v 0.08095 -0.023237 -0.043248
v 0.230938 0.009146 -0.053471
v 0.231212 0.007082 -0.053236
v 0.130326 -0.022421 -0.058177
v 0.131253 -0.021253 -0.058387
v 0.081035 -0.02035 -0.045146
v 0.081155 -0.003611 -0.049867
v 0.080997 -0.002167 -0.049205
v 0.084899 -0.011088 -0.056112
v 0.154271 0.038529 -0.045446
v 0.121191 -0.031502 -0.055153
v 0.121765 -0.0305 -0.055464
v 0.160763 -0.035428 -0.047941
v 0.206431 0.013101 -0.05295
v 0.203259 0.013761 -0.053138
v 0.178934 0.024178 -0.057131
v 0.152299 0.038602 -0.044802
v 0.144791 0.040774 -0.040754
v 0.225398 0.011643 -0.059291
v 0.227314 0.008489 -0.059716
v 0.096824 0.038116 -0.052096
v 0.126068 0.038512 -0.05188
v 0.126102 0.035078 -0.053955
v 0.132766 0.01272 -0.059227
v 0.131229 -0.023142 -0.057385
v 0.130189 -0.023941 -0.05723
v 0.094811 0.0411 -0.046958
v 0.094743 0.041387 -0.045797
v 0.129956 0.023946 -0.057224
v 0.080982 -0.009324 -0.048335
v 0.080963 0.013743 -0.047234
v 0.081078 -0.006509 -0.049222
v 0.135919 -0.041809 -0.044689
v 0.137907 -0.041768 -0.045528
v 0.084973 0.011668 -0.056036
v 0.088047 0.014469 -0.05842
v 0.087368 0.009686 -0.058971
v 0.091023 -0.021644 -0.057742
v 0.08885 -0.017284 -0.058169
v 0.089954 -0.017123 -0.058594
v 0.081178 -0.037227 -0.032275
v 0.206907 0.012949 -0.053097
v 0.086962 0.004868 -0.059304
v 0.087474 7.2e-05 -0.05985
v 0.086825 7.2e-05 -0.059417
v 0.131538 -0.020424 -0.058523
v 0.086439 -0.041251 -0.037554
v 0.146217 -0.04051 -0.041416
v 0.081277 0.03724 -0.033113
v 0.160012 -0.035623 -0.047373
v 0.095333 0.035054 -0.053822
v 0.093562 0.032579 -0.054234
v 0.094772 0.035182 -0.053372
v 0.225586 -0.011535 -0.059286
v 0.101797 0.014196 -0.059692
v 0.081084 0.006663 -0.049229
v 0.129272 -0.024071 -0.057198
v 0.085647 -0.041552 -0.035824
v 0.086661 -0.041517 -0.037332
v 0.1962 -0.016309 -0.057617
v 0.089964 0.041604 -0.034908
v 0.196614 -0.016016 -0.052823
v 0.08801 0.009653 -0.059405
v 0.087521 -0.023774 -0.053976
v 0.090017 -0.021838 -0.057359
v 0.132501 0.021143 -0.057759
v 0.131103 0.01851 -0.058987
v 0.131103 0.020171 -0.058704
v 0.131529 0.020417 -0.058524
v 0.095978 0.038511 -0.05142
v 0.092619 0.037043 -0.049551
v 0.09546 0.039306 -0.050197
v 0.228308 -0.008568 -0.059628
v 0.081144 0.009622 -0.049046
v 0.081135 0.012508 -0.048377
v 0.131237 0.021325 -0.058373
v 0.101797 0.022706 -0.058178
v 0.101791 0.023532 -0.057972
v 0.159305 -0.034443 -0.047133
v 0.131124 0.023164 -0.057367
v 0.131879 0.022383 -0.057509
v 0.131025 0.041817 -0.041937
v 0.135917 0.041809 -0.044688
v 0.0888 0.041627 -0.033
v 0.094901 0.04051 -0.048267
v 0.095901 0.040783 -0.048279
v 0.095202 0.040244 -0.048861
v 0.159476 -0.036072 -0.047245
v 0.145874 -0.023122 -0.053251
v 0.092351 -0.02605 -0.056712
v 0.087992 -0.041712 -0.027786
v 0.121765 0.0305 -0.055464
v 0.096015 -0.036905 -0.052896
v 0.196616 0.016005 -0.052812
v 0.199529 0.014712 -0.057952
v 0.081144 -0.009472 -0.049076
v 0.089119 -0.0123 -0.059274
v 0.168111 0.031316 -0.049086
v 0.177685 -0.024937 -0.050328
v 0.200355 0.014338 -0.05302
v 0.081155 0.003762 -0.049856
v 0.092231 -0.036333 -0.049797
v 0.087991 0.004849 -0.059814
v 0.08824 3.6e-05 -0.060002
v 0.197172 0.014536 -0.052711
v 0.14618 0.02868 -0.052187
v 0.091165 0.026672 -0.055988
v 0.093118 0.030942 -0.05498
v 0.096209 0.037954 -0.052116
v 0.095656 0.037804 -0.051873
v 0.227824 0.010925 -0.058882
v 0.086615 -0.020287 -0.054794
v 0.227283 0.012688 -0.053652
v 0.224934 0.012776 -0.05817
v 0.231239 -0.007054 -0.053175
v 0.081129 0.013965 -0.047968
v 0.130978 0.022065 -0.058177
v 0.157493 0.03634 -0.046902
v 0.15925 0.0362 -0.047122
v 0.120175 0.041972 -0.027971
v 0.132766 0.006714 -0.059787
v 0.207571 -0.013078 -0.053684
v 0.09165 -0.02624 -0.056517
v 0.081061 -0.01227 -0.048081
v 0.094699 0.040892 -0.047312
v 0.153091 -0.038761 -0.051753
v 0.126068 -0.038512 -0.05188
v 0.126102 -0.035078 -0.053955
v 0.131812 0.041874 -0.039
v 0.0888 -0.041627 -0.033
v 0.116305 0.024335 -0.057788
v 0.229441 -0.007959 -0.058919
v 0.137854 -0.041759 -0.04566
v 0.126039 -0.040854 -0.048623
v 0.141985 -0.041408 -0.047338
v 0.209711 -0.012886 -0.053035
v 0.095993 0.039645 -0.050212
v 0.094739 -0.041372 -0.045866
v 0.101797 -0.018292 -0.059047
v 0.096685 0.039589 -0.05048
v 0.096834 0.038697 -0.051548
v 0.13131 0.015133 -0.059524
v 0.178257 -0.025955 -0.050393
v 0.178008 -0.025596 -0.050544
v 0.196378 0.014505 -0.0524
v 0.096638 0.036833 -0.053069
v 0.096086 0.036486 -0.053181
v 0.158033 0.036875 -0.047296
v 0.12602 -0.041727 -0.044707
v 0.093103 -0.02926 -0.055755
v 0.094328 -0.033582 -0.054147
v 0.093555 -0.032584 -0.054237
v 0.087526 0.024026 -0.05383
v 0.132766 -0.001206 -0.059976
v 0.131967 -0.022236 -0.057541
v 0.088162 -0.012599 -0.058938
v 0.08125 0.03114 -0.039013
v 0.088727 -0.027871 -0.052775
v 0.132765 0.017629 -0.058483
v 0.084521 -0.006048 -0.056728
v 0.084474 -0.004854 -0.056773
v 0.090428 -0.032407 -0.05126
v 0.22916 0.008214 -0.059237
v 0.13835 -0.007482 -0.057473
v 0.138307 0.007482 -0.057493
v 0.132688 -0.020812 -0.057914
v 0.090663 0.032938 -0.051092
v 0.09058 0.032593 -0.051286
v 0.144742 0.041083 -0.040944
v 0.144471 0.041202 -0.041097
v 0.092268 0.041685 -0.031324
v 0.146204 -0.040772 -0.048526
v 0.12056 -0.041972 -0.02816
v 0.086678 0.041522 -0.037315
v 0.095333 -0.035054 -0.053822
v 0.090262 -0.023764 -0.05668
v 0.087635 0.024214 -0.053873
v 0.131103 -0.003722 -0.060561
v 0.13144 -0.000122 -0.060594
v 0.080996 -0.003555 -0.049122
v 0.095243 -0.033287 -0.054573
v 0.131103 0.011143 -0.060041
v 0.091113 0.021977 -0.057671
v 0.091049 -0.026333 -0.056077
v 0.092199 -0.029462 -0.055217
v 0.146218 0.040515 -0.04142
v 0.225074 -0.013014 -0.053672
v 0.088584 -0.007755 -0.059715
v 0.088079 -0.014458 -0.058396
v 0.085646 -0.015447 -0.05571
v 0.08897 0.017604 -0.058151
v 0.090021 0.017445 -0.05854
v 0.084269 -0.001228 -0.056814
v 0.089027 0.014374 -0.058931
v 0.101797 -0.013063 -0.05984
v 0.229196 -0.007963 -0.052935
v 0.189069 -0.020118 -0.052125
v 0.101797 0.019877 -0.058761
v 0.132766 -0.008053 -0.059692
v 0.197148 -0.015916 -0.052961
v 0.08097 0.012311 -0.04764
v 0.204586 -0.013159 -0.05807
v 0.140405 0.041611 -0.046482
v 0.121588 -0.029843 -0.055661
v 0.131103 -0.011145 -0.060045
v 0.094083 0.030665 -0.055414
v 0.130368 0.02369 -0.057272
v 0.095979 -0.034804 -0.054052
v 0.085721 0.016383 -0.055384
v 0.095279 0.036323 -0.052871
v 0.129917 0.021544 -0.058427
v 0.131103 0.00372 -0.060564
v 0.08106 -0.015119 -0.047298
v 0.096638 -0.036833 -0.053069
v 0.087895 -0.004711 -0.059803
v 0.090946 0.041693 -0.026834
v 0.096577 -0.039793 -0.050204
v 0.095953 -0.040768 -0.048346
v 0.080982 0.009472 -0.048305
v 0.131285 -0.015382 -0.059492
v 0.084393 -0.006041 -0.056472
v 0.197148 0.015914 -0.052958
v 0.131103 -0.000122 -0.060652
v 0.089963 -0.041604 -0.034895
v 0.226978 -0.012764 -0.052851
v 0.131103 -0.020183 -0.058702
v 0.131103 -0.018512 -0.058988
v 0.095979 0.034804 -0.054052
v 0.096513 0.040021 -0.049829
v 0.15677 0.035403 -0.046565
v 0.144221 0.040914 -0.048763
v 0.085501 0.014458 -0.055817
v 0.132766 -0.006468 -0.059803
v 0.089125 0.012139 -0.05927
v 0.145949 -0.040667 -0.049167
v 0.09438 0.04042 -0.047883
v 0.175712 -0.026255 -0.056592
v 0.084282 0.002017 -0.056801
v 0.096092 0.040595 -0.048714
v 0.095458 0.036856 -0.052563
v 0.085721 -0.041638 -0.029868
v 0.13229 -0.021969 -0.057673
v 0.096834 -0.038697 -0.051548
f 56 410 231
f 70 33 156
f 325 400 234
f 19 349 306
f 153 325 234
f 260 350 141
f 185 389 272
f 258 260 296
f 169 237 260
f 240 156 117
f 209 46 349
f 400 325 306
f 400 306 234
f 353 20 40
f 349 52 306
f 305 259 296
f 33 70 51
f 260 347 296
f 40 20 87
f 40 154 44
f 40 333 155
f 145 366 105
f 234 306 267
f 306 52 267
f 52 349 267
f 296 141 392
f 73 382 404
f 296 347 141
f 105 99 117
f 347 260 141
f 43 237 169
f 92 262 204
f 146 148 266
f 341 297 1
f 129 341 1
f 297 341 2
f 40 247 343
f 419 162 37
f 304 180 411
f 222 143 411
f 91 262 407
f 262 92 407
f 364 157 10
f 282 252 407
f 174 307 199
f 173 199 407
f 32 62 385
f 159 340 355
f 341 159 355
f 340 375 11
f 265 12 375
f 306 325 349
f 56 142 410
f 73 102 382
f 105 288 99
f 40 44 247
f 364 391 157
f 32 87 62
f 408 32 385
f 7 8 9
f 6 4 235
f 10 11 12
f 394 311 314
f 224 76 77
f 327 328 361
f 9 178 18
f 164 5 278
f 29 292 207
f 234 417 103
f 25 26 27
f 164 6 5
f 365 185 332
f 336 397 369
f 29 30 31
f 351 124 122
f 232 250 277
f 234 267 417
f 343 344 40
f 139 158 156
f 164 163 6
f 125 353 40
f 15 366 145
f 48 49 50
f 325 209 306
f 127 128 414
f 216 241 215
f 93 346 362
f 60 61 62
f 65 66 170
f 235 153 234
f 78 79 80
f 69 51 70
f 86 87 30
f 44 154 176
f 258 259 260
f 212 385 367
f 348 75 77
f 366 288 105
f 95 96 97
f 34 33 51
f 240 241 352
f 93 108 109
f 111 21 112
f 29 31 120
f 126 277 250
f 414 89 277
f 81 30 29
f 333 41 155
f 311 348 77
f 344 125 40
f 15 145 105
f 263 262 415
f 159 160 113
f 162 163 164
f 15 182 14
f 171 172 170
f 259 169 260
f 210 46 209
f 353 60 62
f 178 179 144
f 183 184 137
f 118 119 192
f 358 231 318
f 40 87 55
f 311 309 314
f 98 164 278
f 326 327 361
f 230 170 249
f 327 122 328
f 314 325 153
f 108 193 194
f 412 247 44
f 209 19 306
f 82 200 113
f 369 183 137
f 105 177 182
f 280 157 391
f 12 265 396
f 211 212 213
f 225 94 176
f 6 235 223
f 219 220 221
f 170 378 236
f 228 343 229
f 201 170 202
f 350 94 141
f 232 165 395
f 87 86 55
f 100 51 42
f 74 73 404
f 178 9 71
f 3 170 236
f 308 249 339
f 167 149 230
f 212 239 213
f 278 223 338
f 99 240 117
f 4 314 235
f 105 104 177
f 353 329 20
f 290 63 64
f 217 100 42
f 264 16 22
f 350 176 94
f 72 307 174
f 259 305 57
f 269 98 124
f 58 270 271
f 140 85 225
f 272 206 208
f 117 104 105
f 244 387 174
f 41 86 175
f 199 109 134
f 140 154 155
f 32 120 31
f 220 279 280
f 408 120 32
f 283 284 130
f 5 6 223
f 154 40 155
f 120 211 292
f 75 224 77
f 285 286 246
f 89 165 277
f 381 10 12
f 204 203 350
f 218 107 64
f 156 104 117
f 22 17 302
f 76 147 77
f 245 129 318
f 313 248 263
f 203 301 350
f 328 122 338
f 272 208 183
f 237 350 260
f 244 252 245
f 314 153 235
f 278 5 223
f 338 223 70
f 32 31 87
f 333 40 41
f 19 209 349
f 316 317 313
f 89 137 166
f 58 161 321
f 58 161 59
f 322 323 285
f 29 207 54
f 114 324 115
f 259 258 296
f 109 108 115
f 195 287 196
f 242 257 192
f 48 332 49
f 289 290 64
f 58 116 321
f 336 337 50
f 178 339 287
f 127 219 128
f 170 45 342
f 345 108 346
f 264 22 189
f 309 209 325
f 144 167 308
f 343 247 229
f 180 25 402
f 183 356 184
f 33 139 156
f 126 250 251
f 371 216 273
f 37 39 98
f 348 302 112
f 56 358 1
f 167 144 149
f 362 186 108
f 80 78 363
f 66 171 170
f 287 339 196
f 178 287 289
f 367 61 368
f 47 144 372
f 3 373 189
f 191 64 63
f 284 125 344
f 189 275 320
f 346 345 362
f 269 37 98
f 379 92 259
f 252 173 293
f 200 335 113
f 121 116 58
f 179 291 144
f 222 265 143
f 256 383 192
f 26 25 180
f 197 199 322
f 323 227 386
f 197 322 285
f 240 334 156
f 70 234 103
f 189 138 275
f 123 390 269
f 378 363 298
f 170 149 378
f 87 31 30
f 41 55 86
f 337 336 369
f 48 391 364
f 86 30 81
f 78 312 298
f 332 185 49
f 393 394 162
f 119 242 192
f 46 147 349
f 230 149 170
f 283 60 353
f 220 219 279
f 57 379 259
f 237 43 350
f 29 54 81
f 15 105 182
f 206 272 300
f 284 227 382
f 234 70 235
f 185 15 389
f 270 398 271
f 167 230 249
f 15 14 389
f 395 250 232
f 277 165 232
f 137 184 166
f 356 183 208
f 14 132 389
f 61 359 368
f 399 13 388
f 278 122 124
f 172 375 170
f 276 191 271
f 209 309 210
f 43 204 350
f 402 315 403
f 93 379 346
f 271 191 63
f 239 142 279
f 227 323 404
f 302 3 189
f 271 134 274
f 338 361 328
f 407 109 198
f 315 396 403
f 41 175 140
f 249 170 196
f 181 180 402
f 324 109 115
f 338 156 334
f 240 99 288
f 49 336 50
f 218 150 152
f 214 315 135
f 126 251 292
f 314 309 325
f 345 194 362
f 390 37 269
f 57 305 296
f 126 127 414
f 354 157 399
f 375 409 170
f 244 318 243
f 155 41 140
f 304 27 26
f 251 207 292
f 348 411 302
f 154 225 176
f 413 233 202
f 220 280 391
f 146 136 168
f 136 135 168
f 27 148 168
f 120 292 29
f 157 13 399
f 371 35 381
f 396 371 381
f 315 371 396
f 318 231 243
f 415 313 263
f 415 405 313
f 1 358 318
f 12 396 381
f 181 402 222
f 244 245 318
f 374 359 253
f 394 4 6
f 338 122 278
f 98 278 124
f 334 360 361
f 338 334 361
f 288 215 241
f 366 215 288
f 215 366 365
f 185 336 49
f 414 221 369
f 414 219 221
f 219 414 128
f 219 127 213
f 127 211 213
f 211 408 212
f 283 353 125
f 284 283 125
f 228 284 344
f 247 386 229
f 386 247 416
f 247 286 416
f 176 350 44
f 290 289 287
f 324 23 406
f 324 406 53
f 324 114 53
f 255 189 226
f 47 80 144
f 80 47 101
f 79 80 101
f 218 90 152
f 276 281 151
f 281 97 276
f 398 276 271
f 308 339 178
f 308 178 144
f 378 149 363
f 298 133 378
f 28 378 133
f 28 236 378
f 236 28 376
f 376 238 236
f 238 373 236
f 236 373 3
f 22 302 189
f 348 112 75
f 17 112 302
f 147 210 77
f 210 311 77
f 201 331 170
f 170 331 418
f 45 170 418
f 65 170 342
f 409 330 170
f 330 159 170
f 170 159 196
f 159 113 196
f 113 195 196
f 160 297 113
f 297 83 113
f 83 82 113
f 335 118 113
f 113 118 192
f 257 256 192
f 383 205 192
f 205 134 192
f 205 268 134
f 268 199 134
f 304 187 3
f 187 188 3
f 170 413 202
f 413 380 233
f 380 413 188
f 413 3 188
f 134 324 274
f 58 271 274
f 346 379 57
f 108 93 346
f 134 109 324
f 40 55 41
f 149 144 80
f 149 80 363
f 411 303 302
f 302 304 3
f 302 303 304
f 310 394 393
f 389 300 272
f 303 393 419
f 38 303 419
f 314 4 394
f 198 109 199
f 197 317 198
f 109 407 93
f 92 379 93
f 134 271 192
f 271 113 192
f 113 271 63
f 195 113 63
f 290 195 63
f 290 287 195
f 339 249 196
f 308 167 249
f 3 413 170
f 210 309 311
f 405 316 313
f 313 246 248
f 323 386 416
f 386 227 229
f 351 122 327
f 299 266 326
f 215 365 332
f 214 299 241
f 215 332 216
f 48 50 391
f 48 364 273
f 332 48 273
f 332 273 216
f 239 212 370
f 212 367 370
f 370 367 368
f 410 239 370
f 142 239 410
f 284 382 130
f 382 227 404
f 163 394 6
f 162 394 163
f 39 162 164
f 123 351 384
f 84 71 9
f 210 147 46
f 178 289 18
f 179 178 71
f 289 106 18
f 107 289 64
f 107 106 289
f 191 218 64
f 218 150 191
f 97 276 398
f 291 144 372
f 270 97 398
f 363 78 298
f 274 324 24
f 58 274 121
f 270 58 59
f 298 36 133
f 312 36 298
f 324 295 24
f 295 324 23
f 373 319 189
f 108 345 194
f 345 57 194
f 345 346 57
f 226 264 189
f 21 17 112
f 112 76 75
f 110 76 112
f 70 223 235
f 69 70 103
f 412 301 261
f 185 397 336
f 255 189 138
f 16 17 22
f 401 78 68
f 106 8 18
f 95 190 191
f 276 95 191
f 95 270 59
f 186 294 115
f 108 186 115
f 92 204 259
f 204 169 259
f 204 43 169
f 262 203 204
f 262 261 203
f 261 301 203
f 248 247 412
f 248 286 247
f 283 61 60
f 369 89 414
f 368 410 370
f 10 35 364
f 402 135 315
f 25 168 135
f 402 25 135
f 35 273 364
f 254 130 102
f 391 221 220
f 27 168 25
f 1 2 56
f 397 272 183
f 148 146 168
f 174 374 253
f 148 326 266
f 361 299 326
f 357 351 326
f 351 327 326
f 297 2 1
f 318 129 1
f 148 357 326
f 357 384 351
f 123 269 351
f 341 355 2
f 27 304 148
f 269 124 351
f 304 384 148
f 384 357 148
f 304 390 384
f 390 123 384
f 39 164 98
f 329 87 20
f 38 419 37
f 310 311 394
f 162 39 37
f 310 411 311
f 419 393 162
f 393 411 310
f 411 348 311
f 303 411 393
f 303 304 411
f 180 181 411
f 208 206 356
f 181 222 411
f 300 132 206
f 14 88 132
f 300 389 132
f 198 316 407
f 316 405 407
f 14 182 88
f 182 177 88
f 405 415 407
f 415 91 407
f 250 377 251
f 245 252 282
f 404 322 199
f 92 93 407
f 104 158 177
f 173 174 199
f 158 67 177
f 252 293 407
f 293 173 407
f 307 74 199
f 158 100 67
f 74 404 199
f 158 34 100
f 317 316 198
f 91 415 262
f 360 240 352
f 246 286 248
f 244 173 252
f 285 416 286
f 244 174 173
f 10 354 11
f 317 285 313
f 285 323 416
f 285 246 313
f 317 197 285
f 322 404 323
f 367 62 61
f 44 301 412
f 253 131 254
f 130 61 283
f 387 244 374
f 131 359 130
f 382 102 130
f 50 369 221
f 72 174 253
f 38 304 303
f 355 11 399
f 11 354 399
f 73 72 102
f 355 340 11
f 375 12 11
f 239 219 213
f 374 243 231
f 222 402 396
f 304 26 180
f 402 403 396
f 211 127 292
f 127 126 292
f 135 266 214
f 393 303 310
f 368 231 410
f 304 180 181
f 258 296 305
f 217 42 69
f 280 279 13
f 307 72 74
f 72 73 74
f 412 261 263
f 248 412 263
f 254 72 253
f 254 102 72
f 284 228 227
f 228 229 227
f 11 409 375
f 1 318 200
f 394 325 314
f 299 214 266
f 136 146 266
f 169 260 258
f 56 388 13
f 405 415 91
f 330 11 355
f 241 360 352
f 241 299 360
f 388 2 399
f 2 355 399
f 279 56 13
f 297 1 82
f 365 366 185
f 139 34 158
f 15 185 366
f 216 214 241
f 69 42 51
f 212 408 385
f 34 139 33
f 240 288 241
f 126 414 277
f 263 261 262
f 358 56 231
f 369 397 183
f 280 13 157
f 225 85 94
f 228 344 343
f 100 34 51
f 140 225 154
f 408 211 120
f 89 166 165
f 381 35 10
f 156 158 104
f 245 282 129
f 371 315 216
f 222 396 265
f 197 198 199
f 338 70 156
f 214 216 315
f 390 38 37
f 251 377 207
f 374 368 359
f 369 137 89
f 35 371 273
f 254 131 130
f 391 50 221
f 397 185 272
f 174 387 374
f 361 360 299
f 329 62 87
f 250 395 377
f 360 334 240
f 10 157 354
f 367 385 62
f 44 350 301
f 253 359 131
f 130 359 61
f 50 337 369
f 38 390 304
f 239 279 219
f 374 244 243
f 316 405 91
f 135 136 266
f 368 374 231
f 159 355 2
f 56 2 388
f 279 142 56
