v 0.272741 -0 -0.032975
v 0.106133 -0 -0.033039
v 0.11682 -0 -0.033091
v 0.215416 0.0105 -0.032683
v 0.278906 -0 -0.032162
v 0.083596 -0.03921 -0.001987
v 0.299585 0.0395 4.7e-05
v 0.112757 -0.031816 -0.01991
v 0.112739 -0.026581 -0.025064
v 0.26639 -0 -0.033093
v 0.284128 0.016902 -0.029596
v 0.284233 0.018752 -0.029064
v 0.284931 0.020769 -0.028161
v 0.256065 0.027052 -0.026452
v 0.256079 0.026276 -0.027044
v 0.246838 0.026927 -0.026608
v 0.25114 0.006256 -0.032887
v 0.270956 0.006437 -0.032817
v 0.275731 0.018781 -0.030513
v 0.275451 0.015852 -0.03143
v 0.267519 0.015853 -0.031798
v 0.11286 -0.039479 0.001154
v 0.166923 -0 -0.033095
v 0.255012 -0.03643 -0.014356
v 0.171976 -0.036082 -0.014264
v 0.253803 -0.032629 -0.020716
v 0.268437 0.01022 -0.032648
v 0.256175 0.028615 -0.025162
v 0.083363 0.038192 -0.008153
v 0.099781 -0 -0.032351
v 0.291666 -0.0305 -0.020931
v 0.26426 0.034904 -0.017356
v 0.251042 0.037474 -0.011932
v 0.265953 0.037462 -0.011854
v 0.083522 -0.038628 -0.00625
v 0.25115 -0 -0.033095
v 0.13416 0.037387 -0.012139
v 0.271077 -0 -0.03301
v 0.104517 0.015744 -0.031637
v 0.104518 0.02143 -0.029559
v 0.119091 0.02145 -0.029852
v 0.27322 0.0105 -0.032482
v 0.104507 0.038966 -0.005982
v 0.104503 0.039465 -0.001512
v 0.29383 0.036151 -0.012524
v 0.291916 0.034338 -0.015906
v 0.293529 0.036573 -0.012546
v 0.084291 0.039498 3.4e-05
v 0.26081 0.010219 -0.032682
v 0.279724 0.034822 -0.017023
v 0.289126 0.031674 -0.020174
v 0.27829 0.031255 -0.021914
v 0.112602 -0.020548 -0.028985
v 0.112128 -0.006973 -0.032619
v 0.112377 -0.014013 -0.031493
v 0.294554 0.03761 -0.010285
v 0.281301 0.037416 -0.0116
v 0.282962 0.038982 -0.005846
v 0.296997 0.038954 -0.00557
v 0.288808 0.039474 -0.001282
v 0.28926 0.03948 -0.001139
v 0.083975 0.038914 -0.005548
v 0.104517 0.031088 -0.022246
v 0.101343 0.030541 -0.022606
v 0.249417 0.034925 -0.017451
v 0.290083 -0.031372 -0.02016
v 0.304309 0.038184 0.005719
v 0.072553 0.006789 -0.027101
v 0.073105 -0.020543 -0.024819
v 0.072919 -0.014085 -0.026497
v 0.278481 0.0105 -0.031823
v 0.08407 0.039094 -0.004799
v 0.095998 0.025587 -0.026134
v 0.096087 0.026502 -0.025515
v 0.081761 0.034578 -0.015572
v 0.080501 0.03184 -0.018652
v 0.252105 -0.006635 -0.032873
v 0.271993 -0.006812 -0.03275
v 0.102297 0.030184 -0.023067
v 0.103187 0.029335 -0.023971
v 0.12962 0.0105 -0.032717
v 0.119036 0.015735 -0.031894
v 0.252038 -0.013837 -0.032288
v 0.259768 0.0105 -0.032657
v 0.280908 -0 -0.031696
v 0.072551 0.01022 -0.026907
v 0.112333 -0.038579 -0.006962
v 0.130538 -0.039456 -0.001521
v 0.26062 0.020651 -0.030212
v 0.263478 0.028847 -0.024782
v 0.098044 0.019024 -0.029803
v 0.097185 0.015752 -0.03063
v 0.097228 0.020329 -0.029134
v 0.282109 -0 -0.031405
v 0.298022 0.0383 -0.005229
v 0.103024 -0.031793 -0.01969
v 0.102886 -0.026562 -0.024769
v 0.080311 -0.030738 -0.018816
v 0.081475 -0.033942 -0.015422
v 0.133388 0.015737 -0.031947
v 0.133509 0.021464 -0.029925
v 0.291529 0.034766 -0.015953
v 0.096041 0.024288 -0.026955
v 0.074276 -0.024215 -0.023181
v 0.093762 -0.0395 -5.9e-05
v 0.095664 -0.039473 -0.001148
v 0.287866 0.028756 -0.022856
v 0.096791 0.021575 -0.028469
v 0.099321 0.030545 -0.022416
v 0.257102 0.023073 -0.029067
v 0.245984 0.02168 -0.029842
v 0.256714 0.024357 -0.028268
v 0.281514 -0.027242 -0.024896
v 0.28134 -0.020947 -0.028572
v 0.262759 0.031361 -0.02231
v 0.103891 0.026599 -0.026328
v 0.104518 0.02661 -0.02638
v 0.2932 0.036749 -0.01244
v 0.293984 0.037338 -0.011015
v 0.269125 0.026862 -0.026401
v 0.26815 0.021641 -0.029661
v 0.100583 0.019024 -0.030162
v 0.102402 -0.014035 -0.0311
v 0.299859 0.039157 -0.001396
v 0.256464 -0.038732 -0.007341
v 0.17111 -0.038627 -0.00728
v 0.099621 0.018532 -0.030208
v 0.290013 0.032261 -0.019148
v 0.288681 0.03112 -0.020771
v 0.283965 0.01584 -0.029853
v 0.082442 0.036379 -0.01251
v 0.094311 0.039497 -0.000462
v 0.099207 0.0105 -0.031803
v 0.104742 0.0105 -0.032488
v 0.294995 0.03716 -0.01037
v 0.263563 0.025515 -0.02739
v 0.25997 0.015852 -0.031872
v 0.298953 -0.039208 -0.003321
v 0.300466 -0.039414 6e-06
v 0.27525 0.00725 -0.032433
v 0.119227 0.031132 -0.022551
v 0.301976 0.03908 0.0023
v 0.276097 0.021602 -0.029302
v 0.277061 0.026801 -0.026073
v 0.271476 -0.02103 -0.029803
v 0.271604 -0.013879 -0.032101
v 0.111418 0.0105 -0.032657
v 0.082302 -0.035747 -0.012887
v 0.286573 0.026682 -0.024742
v 0.285436 0.026721 -0.024973
v 0.118999 0.0105 -0.032689
v 0.076769 0.017255 -0.026375
v 0.076762 0.015782 -0.026701
v 0.093431 -0.035898 -0.013203
v 0.112631 -0.035927 -0.013759
v 0.093424 -0.03857 -0.006757
v 0.133995 0.034758 -0.017698
v 0.281849 -0.006905 -0.031217
v 0.102666 -0.020545 -0.028629
v 0.097116 0.031057 -0.021647
v 0.084173 0.039283 -0.003521
v 0.287381 -0.039438 -0.001336
v 0.29336 -0.038669 -0.006948
v 0.289645 0.032537 -0.019164
v 0.28939 0.0315 -0.02017
v 0.172802 -0.020636 -0.029583
v 0.172571 -0.013866 -0.031906
v 0.291351 -0.0395 0.000104
v 0.103162 0.022951 -0.028662
v 0.10257 0.021774 -0.029205
v 0.29713 0.03814 -0.006728
v 0.296714 0.038655 -0.006606
v 0.289534 0.031339 -0.02011
v 0.284122 0.017626 -0.029422
v 0.172531 -0.032054 -0.020529
v 0.078952 0.02647 -0.022843
v 0.078444 0.025581 -0.023315
v 0.252829 0.038999 -0.006043
v 0.275259 0.012849 -0.03204
v 0.262485 0.03053 -0.023223
v 0.097469 0.029471 -0.023273
v 0.09709 0.03468 -0.0169
v 0.284201 0.039465 -0.001512
v 0.291178 0.034715 -0.016144
v 0.080838 -0.031697 -0.017866
v 0.083538 -0.03176 -0.018048
v 0.141728 0.0105 -0.032722
v 0.172799 -0.026805 -0.025724
v 0.119156 0.026649 -0.02669
v 0.102152 -0.007041 -0.032216
v 0.077423 0.021068 -0.025305
v 0.119363 0.037378 -0.012067
v 0.119298 0.034741 -0.017612
v 0.104515 0.034706 -0.017335
v 0.096977 -0.03947 0.001343
v 0.093322 -0.031774 -0.018905
v 0.133658 0.026669 -0.026776
v 0.300137 0.039446 4.9e-05
v 0.134308 0.038975 -0.00616
v 0.078249 0.024533 -0.023883
v 0.079476 0.028751 -0.021355
v 0.080425 0.030938 -0.0196
v 0.273489 -0.036395 -0.014189
v 0.292791 -0.036169 -0.013372
v 0.08962 0.037325 -0.01116
v 0.083134 0.037273 -0.010821
v 0.281489 -0.013903 -0.03066
v 0.294763 -0.03717 -0.010939
v 0.284718 0.021543 -0.027915
v 0.285952 0.023935 -0.026397
v 0.28371 0.012873 -0.030427
v 0.248 0.031388 -0.022409
v 0.292311 -0.035446 -0.014706
v 0.292084 -0.035238 -0.01512
v 0.271735 -0.027379 -0.025832
v 0.272403 -0.032575 -0.020506
v 0.294512 -0.0395 0
v 0.267125 0.0105 -0.032653
v 0.084003 -0.0394 -1e-06
v 0.297332 0.039074 -0.004966
v 0.172208 -0.006558 -0.032767
v 0.104512 0.037358 -0.011846
v 0.286515 0.025786 -0.025277
v 0.245476 0.015848 -0.031931
v 0.133823 0.031154 -0.022641
v 0.131833 -0.035967 -0.013933
v 0.296067 -0.0384 -0.007879
v 0.072791 -0.00719 -0.027082
v 0.258701 0.020977 -0.030101
v 0.297757 0.038821 -0.005166
v 0.289989 -0.03224 -0.019214
v 0.296615 -0.038593 -0.006894
v 0.252878 -0.027429 -0.026065
v 0.252279 -0.021048 -0.03003
v 0.083245 -0.037702 -0.009115
v 0.07953 -0.027893 -0.021107
v 0.257766 -0.039465 -0.001512
v 0.282451 0.010228 -0.030877
v 0.282447 0.010226 -0.030878
v 0.281442 0.008009 -0.031244
v 0.281519 0.003084 -0.031428
v 0.281261 0.004965 -0.031412
v 0.28109 0.007636 -0.03131
v 0.281011 0.005696 -0.031416
v 0.280761 0.006984 -0.031388
v 0.280768 0.006779 -0.031399
v 0.280776 0.006626 -0.031406
v 0.280761 0.006983 -0.031388
v 0.280806 0.006446 -0.031411
v 0.288458 -0.027118 -0.024003
v 0.074103 -0 -0.02737
v 0.074098 -2.5e-05 -0.027369
f 14 15 16
f 10 17 18
f 19 20 21
f 24 25 26
f 39 40 41
f 45 46 47
f 77 78 83
f 100 82 101
f 46 102 47
f 38 10 18
f 18 17 49
f 24 125 126
f 51 107 129
f 130 20 11
f 63 80 79
f 21 137 89
f 1 38 18
f 114 145 146
f 39 147 134
f 57 56 119
f 107 149 150
f 51 129 52
f 118 57 119
f 51 164 165
f 171 135 172
f 128 173 165
f 19 12 174
f 8 155 96
f 56 135 47
f 164 128 165
f 99 185 186
f 41 189 197
f 39 92 127
f 192 199 37
f 2 54 190
f 92 39 133
f 192 43 199
f 63 79 64
f 29 205 206
f 78 207 146
f 209 210 13
f 209 19 143
f 194 63 182
f 82 41 101
f 217 138 139
f 21 179 42
f 12 209 13
f 63 160 182
f 189 225 197
f 12 19 209
f 107 51 165
f 164 102 128
f 210 209 150
f 150 149 223
f 210 150 223
f 39 134 133
f 137 21 218
f 179 20 130
f 20 179 21
f 169 40 170
f 39 127 122
f 28 14 16
f 19 121 143
f 121 19 21
f 205 29 222
f 82 39 41
f 222 43 192
f 189 141 225
f 41 197 101
f 142 124 198
f 124 95 230
f 220 124 230
f 135 56 172
f 95 171 230
f 171 172 230
f 135 45 47
f 102 118 47
f 102 164 184
f 102 46 128
f 149 107 223
f 31 113 250
f 207 114 146
f 145 233 234
f 190 55 123
f 185 98 186
f 78 146 83
f 113 215 145
f 175 233 26
f 146 145 234
f 232 163 227
f 204 203 214
f 148 154 235
f 114 113 145
f 215 233 145
f 207 78 158
f 83 146 234
f 233 175 188
f 54 55 190
f 234 188 166
f 30 2 190
f 104 159 97
f 125 227 163
f 168 105 217
f 105 237 217
f 237 162 217
f 105 106 237
f 106 88 237
f 88 125 237
f 24 227 125
f 88 106 125
f 106 126 125
f 24 203 227
f 110 112 136
f 112 15 136
f 112 197 15
f 197 16 15
f 116 103 73
f 117 181 80
f 181 79 80
f 181 109 79
f 109 64 79
f 109 160 64
f 109 181 160
f 103 176 73
f 160 75 182
f 101 112 110
f 9 175 8
f 63 193 141
f 25 226 26
f 226 155 26
f 155 175 26
f 166 55 234
f 55 167 234
f 167 83 234
f 167 54 83
f 54 221 83
f 221 77 83
f 150 52 129
f 221 3 77
f 3 23 77
f 23 36 77
f 36 17 10
f 49 218 18
f 218 27 18
f 49 84 218
f 84 224 218
f 224 137 218
f 224 89 137
f 202 160 181
f 224 229 89
f 224 101 229
f 101 111 229
f 111 110 229
f 111 101 110
f 117 41 169
f 191 92 152
f 42 71 140
f 102 184 118
f 225 193 157
f 8 97 9
f 194 205 222
f 215 26 233
f 200 103 108
f 82 81 151
f 147 2 134
f 22 105 168
f 22 195 105
f 195 219 105
f 219 106 105
f 157 212 225
f 219 6 106
f 6 35 106
f 35 87 106
f 87 126 106
f 191 108 93
f 126 87 24
f 87 235 24
f 235 25 24
f 224 100 101
f 40 169 41
f 164 50 184
f 116 117 169
f 116 181 117
f 116 74 181
f 33 32 65
f 116 73 74
f 32 52 115
f 68 133 30
f 150 129 107
f 140 246 247
f 144 120 52
f 120 90 52
f 90 180 52
f 180 115 52
f 164 51 52
f 180 212 115
f 180 28 212
f 28 225 212
f 182 206 194
f 206 205 194
f 182 131 206
f 182 75 131
f 120 143 121
f 231 66 31
f 66 216 31
f 216 215 31
f 215 113 31
f 5 85 158
f 85 94 158
f 85 241 94
f 5 241 85
f 57 184 50
f 141 117 80
f 163 232 138
f 217 162 138
f 162 237 138
f 237 125 138
f 125 163 138
f 204 213 208
f 227 203 208
f 203 204 208
f 121 136 120
f 136 15 120
f 15 14 120
f 14 28 120
f 28 90 120
f 28 180 90
f 16 197 28
f 197 225 28
f 80 63 141
f 64 160 63
f 198 220 7
f 220 60 7
f 61 132 7
f 132 48 7
f 133 153 92
f 97 53 9
f 124 220 198
f 216 66 231
f 230 172 220
f 172 59 220
f 59 58 220
f 58 178 220
f 178 183 220
f 183 60 220
f 183 44 61
f 44 132 61
f 44 48 132
f 10 38 78
f 38 1 78
f 1 140 5
f 1 42 140
f 1 18 42
f 18 27 42
f 44 161 48
f 27 218 42
f 218 21 42
f 89 121 21
f 89 229 121
f 229 110 121
f 10 77 36
f 110 136 121
f 30 134 2
f 176 74 73
f 67 124 142
f 67 95 124
f 56 59 172
f 56 57 59
f 57 34 59
f 34 58 59
f 34 33 58
f 33 178 58
f 216 24 26
f 199 161 178
f 161 183 178
f 231 203 216
f 161 44 183
f 199 43 161
f 43 72 161
f 47 118 56
f 118 119 56
f 108 169 170
f 62 222 29
f 5 78 1
f 62 72 43
f 127 91 122
f 91 93 122
f 199 33 37
f 91 127 92
f 153 152 92
f 91 191 93
f 19 11 20
f 65 115 212
f 194 192 193
f 37 65 157
f 166 9 53
f 196 98 97
f 98 236 97
f 236 104 97
f 186 196 99
f 186 98 196
f 236 98 104
f 235 226 25
f 235 155 226
f 8 175 155
f 235 154 155
f 154 96 155
f 159 55 53
f 70 190 123
f 53 55 166
f 54 167 55
f 159 70 123
f 3 221 54
f 157 192 37
f 2 3 54
f 23 17 36
f 151 81 3
f 81 187 3
f 187 23 3
f 147 151 3
f 187 17 23
f 187 49 17
f 187 4 49
f 4 84 49
f 4 224 84
f 4 187 224
f 187 100 224
f 144 209 143
f 235 156 35
f 156 87 35
f 156 235 87
f 187 81 100
f 151 147 82
f 147 39 82
f 122 40 39
f 122 170 40
f 122 93 170
f 93 108 170
f 34 50 32
f 191 152 86
f 152 153 86
f 130 71 179
f 74 202 181
f 154 148 96
f 148 99 96
f 99 196 96
f 196 97 96
f 114 250 113
f 30 228 252
f 234 233 188
f 104 69 159
f 116 169 103
f 103 177 176
f 160 76 75
f 101 197 112
f 9 188 175
f 63 194 193
f 150 144 52
f 202 76 160
f 117 189 41
f 191 91 92
f 42 179 71
f 225 141 193
f 8 96 97
f 215 216 26
f 200 177 103
f 82 100 81
f 147 3 2
f 157 65 212
f 191 200 108
f 164 52 50
f 33 34 32
f 32 50 52
f 71 211 238
f 239 240 71
f 68 86 133
f 242 5 140
f 140 71 245
f 71 240 243
f 71 243 245
f 244 242 140
f 249 244 140
f 140 245 248
f 247 249 140
f 140 248 246
f 120 144 143
f 5 242 241
f 57 118 184
f 141 189 117
f 133 86 153
f 97 159 53
f 10 78 77
f 30 133 134
f 176 201 74
f 216 203 24
f 231 214 203
f 108 103 169
f 62 43 222
f 5 158 78
f 199 178 33
f 19 174 11
f 65 32 115
f 194 222 192
f 37 33 65
f 166 188 9
f 159 123 55
f 70 228 190
f 159 69 70
f 157 193 192
f 144 150 209
f 34 57 50
f 130 211 71
f 74 201 202
f 251 68 30
f 30 190 228
f 252 251 30
