v -0.027889 0.018886 0.001711
v 0.13775 -0.024484 0.102868
v 0.00132 -0.041374 -0.023927
v 0.137509 0.024628 0.046768
v 0.028829 -0.036591 0.096558
v 0.006257 0.040392 -0.023367
v 0.137569 -0.028047 0.050434
v -0.022858 -0.041931 0.004465
v 0.04195 0.037442 0.102441
v 0.13775 -0.0002 0.037901
v -0.014337 0.024456 -0.023585
v 0.084585 -0.045542 0.074769
v -0.014799 -0.007748 0.032088
v 0.05142 -0.003633 0.112309
v 0.137526 0.025888 0.10207
v -0.020844 0.0432 0.002744
v 0.137578 0.014566 0.040669
v 0.008479 0.018728 -0.026653
v 0.137479 -0.015461 0.040999
v 0.13775 -0.037033 0.077174
v -0.02335 -0.040659 -0.007303
v 0.079434 -0.037478 0.102192
v 0.00309 -0.046183 0.010057
v -0.022128 -0.038296 0.012776
v 0.023764 0.031503 0.094437
v 0.132454 0 0.114051
v 0.084585 0.045542 0.074769
v 0.137745 0.031695 0.055748
v -0.019804 0.039623 -0.015193
v 0.137509 0.019919 0.04327
v 0.012549 -0.041374 -0.020415
v -0.001713 0.024456 -0.027535
v 0.010998 0.024456 -0.025315
v 0.13772 -0.022226 0.045082
v -0.025542 -0.038296 0.000704
v -0.010566 -0.039835 -0.022389
v 0.039999 -0.04417 0.086042
v 0.137504 -0.030569 0.096738
v 0.079053 -0.044489 0.086167
v 0.043334 -0.024697 0.108147
v -0.01137 -0.044521 -0.011025
v 0.02014 -0.041825 0.080804
v 0.027102 -0.02337 0.102348
v -0.02434 0.018867 0.014053
v 0.017597 0.042593 0.075262
v 0.03444 0.018043 0.107103
v 0.13775 -0.0002 0.112099
v 0.077997 0.027527 0.107299
v 0.137257 -0.017097 0.1085
v 0.082668 0.040834 0.094763
v 0.00389 0.045882 -0.005713
v 0.012791 0.0432 -0.016676
v 0.137715 0.028585 0.051083
v 0.137503 0.037435 0.07636
v -0.022192 0.042251 -0.005945
v -0.003203 0.040712 -0.02429
v -0.023378 0.018783 -0.015491
v 0.137666 -0.007996 0.038511
v 0.137714 -0.035635 0.064046
v 0.005288 -0.045467 -0.009159
v 0.003102 0.020864 -0.027691
v 0.137509 0.009163 0.038674
v -0.026608 0.022907 0.0078
v -0.006855 0.018859 -0.027256
v 0.051193 -0.037571 0.102311
v 0.045176 -0.046146 0.074923
v 0.13775 -0.035144 0.086917
v 0.085065 -0.044565 0.08299
v 0.048358 -0.018562 0.110212
v -0.015651 -0.044521 0.002429
v -0.000975 -0.044521 -0.015808
v -0.019309 -0.041374 -0.014192
v 0.008727 -0.040775 0.06395
v 0.030021 -0.040873 0.09188
v -0.011824 -0.023365 0.034859
v 0.019692 -0.035764 0.086107
v 0.026472 -4e-05 0.103042
v 0.035844 -0.033464 0.103666
v 0.040044 -0.017643 0.109189
v 0.028165 0.040093 0.091971
v 0.031898 0.033413 0.102487
v 0.137432 0.015557 0.109172
v 0.137543 0.036227 0.084434
v 0.084876 0.037573 0.100952
v 0.047545 0.018628 0.110181
v 0.078087 -0.027337 0.107368
v 0.137531 -0.010232 0.111037
v 0.038464 0.045978 0.074894
v 0.08481 0.045375 0.068787
v 0.137569 0.035225 0.062505
v -0.004829 0.045882 -0.005199
v -0.01515 0.042251 -0.01727
v -0.020811 0.023 -0.018376
v -0.027396 0.018783 -0.006
v 0.137514 -0.032722 0.056755
v 0.137337 -0.037204 0.069725
v 0.078349 -0.04577 0.068967
v -0.005288 -0.045467 -0.009159
v -0.022862 0.036059 0.012272
v -0.026544 0.029453 0.004479
v -0.013947 0.018755 -0.024149
v -0.008217 0.024456 -0.026259
v 0.075682 -0.042719 0.091426
v 0.031745 -0.045427 0.074892
v 0.047882 -0.044869 0.084843
v 0.078336 -0.045965 0.075155
v 0.082783 -0.040695 0.095027
v 0.112006 0.001469 0.11407
v -0.004056 -0.043201 0.035019
v -0.014585 -0.044521 -0.006173
v 0.004801 -0.044521 -0.015093
v -0.018894 -0.042843 0.010909
v 0.028784 -0.044072 0.081027
v 0.023413 -0.037128 0.090585
v 0.04318 -0.042087 0.092265
v 0.013877 -0.038348 0.075111
v -0.010667 -0.031125 0.034993
v -0.013636 0.0002 0.034303
v 0.026802 0.008477 0.103105
v 0.04148 -0.035393 0.103674
v 0.034623 -0.019109 0.107103
v 0.0451 -0.01111 0.111125
v 0.019794 0.041433 0.080795
v 0.031786 0.0374 0.098326
v 0.137501 0.007656 0.111685
v 0.084589 0.045103 0.080698
v 0.077158 0.035638 0.103465
v 0.07315 0.040232 0.096887
v 0.137372 0.033493 0.092089
v 0.046328 0.026292 0.107824
v 0.036846 0.0234 0.10711
v 0.0451 0.011115 0.111126
v 0.076 -0.032802 0.105024
v 0.076 -0.018579 0.11023
v 0.078336 0.045965 0.075155
v 0.021634 0.044546 0.068888
v 0.028784 0.044072 0.081027
v 0.010345 0.044873 -0.009604
v 0.137247 0.037178 0.069422
v -0.013967 0.044873 -0.002104
v -5e-06 0.04622 0
v -0.00106 0.044873 -0.01408
v -0.025611 0.021161 -0.010856
v 0.09135 -0.044381 0.068462
v -0.009687 -0.045467 0.004012
v -0.015934 0.041523 0.020053
v -0.012751 0.019566 0.034112
v -0.027397 0.024531 -0.001835
v 0.073163 -0.040192 0.096969
v 0.035648 -0.04613 0.068925
v 0.05342 -0.043228 0.090186
v 0.038464 -0.045978 0.074894
v 0.08481 -0.045375 0.068787
v 0.072261 -0.045137 0.083917
v 0.042767 -0.046217 0.068929
v 0.076 0.018544 0.110237
v 0.009929 -0.044521 -0.012339
v -0.00859 -0.039803 0.035117
v 0.017597 -0.042593 0.075262
v -0.013716 -0.044521 0.007919
v 0.034519 -0.044092 0.084187
v 0.023764 -0.031503 0.094437
v 0.036616 -0.042039 0.091156
v -0.009276 -0.038118 0.035113
v -0.012559 -0.036299 0.03006
v 0.028863 0.023005 0.103691
v 0.033339 0.008447 0.107094
v 0.027267 -0.015755 0.103102
v 0.019694 0.035779 0.086107
v 0.082185 0.043078 0.089639
v 0.059939 0.037572 0.102316
v 0.044394 0.031537 0.105637
v 0.039911 0.01627 0.109342
v 0.043084 -0.003783 0.110882
v 0.050898 0.003699 0.112318
v 0.066734 -0.037447 0.10245
v 0.078356 0.045537 0.0813
v 0.078349 0.04577 0.068967
v -0.012604 0.043485 0.018091
v 0.025062 0.044437 0.074927
v 0.023854 0.041058 0.086107
v 0.041518 0.043559 0.088112
v 0.091283 0.044105 0.066206
v -0.017769 0.0432 -0.011046
v -0.006782 0.045882 0.00209
v 0.042767 0.046217 0.068929
v 0.005153 0.044873 -0.013143
v -0.020255 0.041696 0.011691
v 0.009751 0.041581 0.06395
v -0.01498 0.014714 0.031043
v 0.014364 -0.046048 0.035015
v 0.057153 -0.04461 0.086035
v 0.028585 -0.045581 0.068915
v 0.071796 -0.046018 0.075136
v 0.024724 -0.04622 0.042832
v 0.067472 0.018586 0.110225
v 0.007421 -0.038322 0.06395
v 0.033342 -0.008448 0.107093
v -0.013024 0.038265 0.028566
v 0.052766 0.037506 0.102384
v 0.039387 0.008766 0.109635
v 0.04293 0.00334 0.110851
v 0.059943 -0.037572 0.102316
v 0.045176 0.046146 0.074923
v 0.015824 0.043198 0.069444
v 0.031745 0.045427 0.074892
v 0.034611 0.044259 0.083505
v 0.075995 0.044219 0.087348
v 0.054436 0.042347 0.09225
v -0.007065 0.044873 -0.012228
v -0.013031 0.044432 0.009923
v 0.032377 0.046116 0.06395
v 0.071796 0.046018 0.075136
v -0.016981 0.018527 0.026985
v 0.019202 -0.046085 0.042151
v 0.031582 -0.046077 0.06395
v 0.025778 -0.045594 0.06395
v 0.021634 -0.044546 0.068888
v 0.031677 -0.04622 0.054874
v 0.034752 0 0.107938
v 0.048425 0.045124 0.083494
v 0.028585 0.045581 0.068915
v 0.041428 0.04546 0.080931
v 0.04471 0.041253 0.094315
v 0.067687 0.044588 0.086112
v -0.014468 0.044141 0.009941
v -0.013497 0.044873 0.004162
v 0.031677 0.04622 0.054875
v 0.035648 0.04613 0.068925
v 0.072163 0.04559 0.081274
v 0.014144 -0.043568 0.06395
v 0.019752 -0.044716 0.06395
v 0.025062 -0.044437 0.074927
v -0.010274 0.044242 0.016353
v 0.005839 -0.045291 0.033317
v 0.002177 -0.044567 0.035025
f 30 17 6
f 30 6 4
f 31 18 10
f 31 3 18
f 33 10 18
f 34 31 19
f 34 7 31
f 34 10 20
f 35 21 8
f 35 8 24
f 38 2 22
f 44 24 13
f 47 10 28
f 49 22 2
f 52 4 6
f 53 28 10
f 53 10 17
f 53 17 30
f 53 30 4
f 53 52 28
f 53 4 52
f 56 6 32
f 56 52 6
f 58 31 10
f 58 19 31
f 58 34 19
f 58 10 34
f 59 7 34
f 59 34 20
f 61 18 3
f 61 33 18
f 61 32 6
f 61 6 33
f 62 17 10
f 62 10 33
f 62 33 6
f 62 6 17
f 63 35 24
f 63 1 35
f 63 24 44
f 64 3 36
f 64 61 3
f 64 32 61
f 67 2 38
f 67 47 2
f 67 20 10
f 67 10 47
f 68 12 20
f 68 67 39
f 68 20 67
f 71 41 36
f 71 36 3
f 72 36 41
f 72 21 57
f 75 43 13
f 75 13 24
f 77 13 43
f 78 43 5
f 78 5 74
f 79 78 40
f 79 40 69
f 82 47 15
f 83 47 28
f 83 15 47
f 83 28 54
f 86 69 40
f 87 47 26
f 87 49 2
f 87 2 47
f 87 86 49
f 89 27 54
f 90 54 28
f 90 28 52
f 92 56 11
f 92 11 29
f 92 29 55
f 93 57 29
f 93 29 11
f 93 72 57
f 93 36 72
f 94 35 1
f 94 21 35
f 95 59 31
f 95 31 7
f 95 7 59
f 96 59 20
f 96 20 12
f 97 23 60
f 98 60 23
f 98 71 60
f 98 41 71
f 99 63 44
f 100 1 63
f 100 63 99
f 100 99 16
f 100 16 55
f 101 64 36
f 101 11 64
f 101 93 11
f 101 36 93
f 102 56 32
f 102 32 64
f 102 64 11
f 102 11 56
f 106 68 39
f 106 12 68
f 106 23 97
f 107 67 38
f 107 38 22
f 107 39 67
f 107 103 39
f 107 22 103
f 108 69 26
f 108 14 69
f 110 70 8
f 110 8 21
f 110 21 72
f 110 72 41
f 110 41 98
f 111 71 3
f 111 3 31
f 111 60 71
f 112 24 8
f 112 8 70
f 113 74 42
f 114 74 5
f 114 42 74
f 116 73 42
f 116 114 76
f 116 42 114
f 117 75 24
f 117 43 75
f 118 44 13
f 118 13 77
f 119 118 77
f 120 40 78
f 120 78 74
f 120 74 65
f 120 86 40
f 121 43 78
f 121 78 79
f 122 79 69
f 122 69 14
f 124 81 9
f 124 9 80
f 124 80 81
f 125 26 47
f 125 47 82
f 126 83 54
f 126 54 27
f 127 48 82
f 127 82 15
f 127 15 84
f 128 84 50
f 129 50 84
f 129 84 15
f 129 15 83
f 131 85 130
f 133 22 49
f 133 49 86
f 133 86 120
f 134 26 69
f 134 69 86
f 134 87 26
f 134 86 87
f 135 27 89
f 138 51 89
f 139 89 54
f 139 54 90
f 139 90 52
f 139 52 138
f 141 51 91
f 142 91 51
f 142 52 56
f 142 56 92
f 143 57 21
f 143 21 94
f 143 29 57
f 143 55 29
f 144 96 12
f 145 98 23
f 145 110 98
f 145 70 110
f 147 99 44
f 147 25 99
f 147 119 25
f 148 94 1
f 148 1 100
f 148 100 55
f 148 143 94
f 148 55 143
f 149 103 22
f 151 39 103
f 151 115 37
f 151 37 105
f 151 103 149
f 151 149 65
f 151 65 115
f 152 66 105
f 152 105 37
f 152 150 66
f 153 106 97
f 153 12 106
f 153 144 12
f 153 97 60
f 154 105 66
f 154 106 39
f 155 66 150
f 156 108 26
f 156 26 125
f 156 125 82
f 156 82 48
f 156 48 130
f 157 60 111
f 157 59 96
f 157 96 144
f 157 111 31
f 157 31 59
f 157 153 60
f 157 144 153
f 158 112 73
f 158 24 112
f 158 73 116
f 159 112 109
f 159 113 42
f 159 42 73
f 159 73 112
f 160 112 70
f 160 109 112
f 160 70 145
f 161 74 113
f 161 113 104
f 161 152 37
f 161 104 152
f 162 114 5
f 162 5 43
f 162 76 114
f 162 117 76
f 162 43 117
f 163 37 115
f 163 115 65
f 163 65 74
f 163 161 37
f 163 74 161
f 165 117 24
f 165 76 117
f 165 164 76
f 165 24 164
f 166 81 25
f 166 25 119
f 166 131 81
f 166 46 131
f 167 119 77
f 167 166 119
f 167 46 166
f 168 77 43
f 168 43 121
f 169 99 25
f 169 25 81
f 170 83 126
f 170 128 50
f 170 129 83
f 170 50 129
f 171 127 84
f 171 128 9
f 171 84 128
f 172 127 9
f 172 130 48
f 172 48 127
f 172 9 81
f 172 131 130
f 172 81 131
f 173 131 46
f 173 132 85
f 173 85 131
f 174 122 14
f 174 79 122
f 175 108 85
f 175 85 132
f 175 14 108
f 175 174 14
f 176 133 120
f 176 120 65
f 176 22 133
f 177 126 27
f 177 27 135
f 177 170 126
f 178 135 89
f 178 89 51
f 178 141 135
f 178 51 141
f 179 146 45
f 180 45 137
f 181 80 137
f 181 137 45
f 181 45 123
f 181 123 169
f 181 169 81
f 181 81 80
f 182 80 9
f 183 139 138
f 183 138 89
f 183 89 139
f 184 55 16
f 184 16 140
f 184 92 55
f 185 141 91
f 185 91 140
f 187 138 52
f 187 52 142
f 187 142 51
f 187 51 138
f 188 16 99
f 188 99 146
f 188 179 16
f 188 146 179
f 189 123 45
f 189 45 146
f 189 169 123
f 190 44 118
f 190 118 119
f 190 119 147
f 191 145 23
f 192 151 105
f 192 39 151
f 192 154 39
f 192 105 154
f 193 152 104
f 193 150 152
f 194 154 66
f 194 106 154
f 194 66 155
f 195 23 106
f 195 194 155
f 195 106 194
f 196 85 108
f 196 108 156
f 196 156 130
f 196 130 85
f 197 158 116
f 197 24 158
f 197 164 24
f 197 116 76
f 197 76 164
f 198 77 168
f 198 168 121
f 198 121 79
f 198 79 174
f 199 146 99
f 199 99 169
f 199 189 146
f 199 169 189
f 200 171 9
f 200 9 127
f 200 127 171
f 201 173 46
f 201 46 167
f 201 132 173
f 202 175 132
f 202 174 175
f 202 201 174
f 202 132 201
f 203 149 22
f 203 22 176
f 203 176 65
f 203 65 149
f 205 179 45
f 205 180 136
f 205 45 180
f 206 180 137
f 207 137 80
f 207 80 182
f 208 170 177
f 208 128 170
f 209 9 128
f 209 128 208
f 210 184 140
f 210 140 91
f 210 91 142
f 210 142 92
f 210 92 184
f 212 141 185
f 213 135 141
f 213 141 186
f 213 186 204
f 214 190 147
f 214 147 44
f 214 44 190
f 215 191 23
f 215 23 150
f 216 150 193
f 216 215 150
f 216 191 215
f 217 145 191
f 217 216 193
f 217 191 216
f 219 195 155
f 219 155 150
f 219 150 23
f 219 23 195
f 220 167 77
f 220 77 198
f 220 201 167
f 220 198 174
f 220 174 201
f 222 136 180
f 222 180 206
f 222 212 185
f 222 206 88
f 223 206 137
f 223 137 207
f 223 88 206
f 223 204 88
f 223 207 182
f 223 182 221
f 224 209 182
f 224 182 9
f 224 9 209
f 225 209 208
f 225 182 209
f 225 221 182
f 225 208 177
f 226 16 179
f 226 179 205
f 226 205 136
f 227 185 140
f 227 222 185
f 227 211 136
f 227 226 211
f 227 136 222
f 227 140 16
f 227 16 226
f 228 186 141
f 229 204 186
f 229 88 204
f 229 186 228
f 229 228 141
f 229 222 88
f 229 212 222
f 229 141 212
f 230 213 204
f 230 204 223
f 230 177 135
f 230 135 213
f 230 223 221
f 230 225 177
f 230 221 225
f 231 109 160
f 231 160 218
f 231 159 109
f 232 217 193
f 232 193 218
f 233 113 159
f 233 104 113
f 233 231 218
f 233 159 231
f 233 218 193
f 233 193 104
f 234 226 136
f 234 136 211
f 234 211 226
f 235 145 217
f 235 217 232
f 235 232 160
f 235 160 145
f 236 232 218
f 236 218 160
f 236 160 232
