v -0.03676 0.023856 -0.023365
v -0.037956 0.023734 -0.022435
v -0.037947 0.024112 -0.022785
v 0.049267 0.039595 -0.000656
v 0.001412 0.039532 -0.001143
v 0.04935 0.0396 -0
v -0.040139 0.030375 0.003997
v -0.041593 0.024769 0.004158
v -0.040139 0.030206 0.00529
v -0.015542 0.023919 -0.028742
v -0.018779 0.026955 -0.025389
v -0.015527 0.027266 -0.025682
v -0.018779 0.036406 0.006375
v -0.030677 0.033028 0.011371
v -0.03 0.03313 0.011442
v -0.040139 0.030665 -0
v -0.040735 0.024187 0.013759
v -0.0362 0.023523 0.02325
v -0.036287 0.033433 -0.005856
v -0.036287 0.033814 -0.002939
v -0.018779 0.036736 -0.00465
v 0.0535 0.036949 -0.006578
v -0.037937 0.032837 0.005751
v -0.037937 0.032216 0.008573
v -0.036287 0.033433 0.005856
v -0.039277 0.02922 0.013524
v -0.040139 0.027829 0.01288
v 0.053682 0.034986 -0.013606
v 0.053768 0.032979 -0.017783
v -0.03073 0.033351 -0.010355
v -0.02956 0.027752 0.021535
v -0.015527 0.03716 -0.004704
v -0.015527 0.037457 -0
v -0.036287 0.026101 -0.021698
v -0.023101 0.023864 -0.027093
v 0.053768 0.036328 -0.009171
v -0.018779 0.035861 -0.009227
v -0.018779 0.034773 -0.012568
v -0.028601 0.033126 -0.012175
v 0.001412 0.039532 0.001142
v -0.039277 0.027939 -0.016003
v -0.039277 0.026449 -0.018362
v -0.040139 0.025144 -0.017457
v -0.027362 0.032023 -0.015358
v -0.018779 0.032252 -0.018152
v -0.026937 0.030883 -0.017689
v 0.002193 0.039339 -0.002299
v 0.04868 0.039294 -0.002334
v -0.015686 0.02163 0.02985
v -0.0362 0.023523 -0.02325
v -0.015527 0.03716 0.004704
v -0.018779 0.036736 0.00465
v 0.04985 0.027925 -0.025178
v 0.016466 0.023555 -0.029275
v -0.041331 0.024836 -0.010316
v -0.040139 0.028333 -0.011731
v -0.016998 0.022388 -0.028364
v -0.040139 0.02884 0.010422
v -0.041332 0.024836 0.010316
v -0.015527 0.030276 0.022055
v -0.015527 0.027266 0.025682
v 0.053768 0.037176 0.00462
v -0.016456 0.022548 -0.028849
v -0.012274 0.020667 0.03081
v 0.04985 0.027925 0.025178
v -0.01225 0.02737 0.02578
v -0.041767 0.025202 -0.003321
v 0.04985 0.032049 0.019662
v -0.036287 0.027881 0.019356
v -0.037937 0.025635 0.021311
v -0.036287 0.026101 0.021698
v 0.001353 0.0396 -0
v -0.032603 0.031184 0.014971
v -0.032311 0.031834 0.013664
v -0.036287 0.031921 0.011536
v -0.01225 0.022822 -0.02919
v -0.015719 0.022741 -0.028995
v -0.041766 0.025202 0.003321
v -0.030776 0.027811 0.021106
v -0.018779 0.035861 0.009227
v -0.015527 0.036275 0.009333
v 0.04985 0.022865 -0.029849
v -0.040139 0.026585 0.015279
v -0.040139 0.02519 0.017488
v -0.039277 0.026449 0.018362
v 0.053692 0.027673 0.025361
v 0.051375 0.026363 0.026762
v -0.028086 0.032376 0.014286
v -0.028671 0.032801 0.013003
v -0.041111 0.0243 -0.00893
v -0.039277 0.030281 -0.010943
v -0.037937 0.030254 -0.014002
v -0.039277 0.02922 -0.013524
v -0.039277 0.032077 -0.002788
v -0.039277 0.032198 -0
v -0.038977 0.023869 -0.021253
v -0.028598 0.028072 0.021398
v 0.017195 0.022874 -0.029788
v -0.036287 0.029453 -0.01687
v -0.036287 0.030803 -0.014256
v -0.036287 0.033942 -0
v 0.002186 0.039345 0.002289
v 0.05375 0.032984 0.017786
v -0.032604 0.032003 -0.013127
v -0.032104 0.032615 -0.011786
v -0.036287 0.031921 -0.011536
v -0.029245 0.033375 -0.011136
v 0.0535 0.028594 0.024323
v 0.053612 0.030623 0.021778
v 0.04985 0.033715 -0.016644
v -0.031395 0.028085 0.020557
v -0.027589 0.029108 0.020279
v -0.027981 0.028567 0.020917
v -0.041592 0.024766 -0.004124
v -0.037937 0.028928 -0.016569
v 0.051364 0.026361 -0.02676
v -0.01225 0.032931 0.018147
v -0.01225 0.034949 0.013868
v -0.015527 0.032806 0.018078
v 0.04985 0.030114 -0.022515
v -0.01225 0.027893 -0.025151
v -0.01225 0.030391 -0.022139
v -0.037937 0.032837 -0.005751
v -0.037937 0.032216 -0.008573
v -0.039277 0.031715 -0.005555
v -0.018779 0.032267 0.018129
v -0.031483 0.033069 -0.010803
v 0.017031 0.023102 -0.029637
v 0.049267 0.039595 0.000656
v 0.049554 0.039502 0.000855
v 0.04985 0.035098 -0.013486
v -0.037946 0.024119 0.022781
v -0.037937 0.027384 -0.019011
v -0.037937 0.025635 -0.021311
v 0.04985 0.033715 0.016644
v -0.041109 0.024298 0.008952
v -0.041485 0.024772 -0.008986
v -0.041397 0.02447 -0.008963
v -0.030872 0.027469 -0.021522
v -0.031571 0.027778 -0.020918
v -0.036287 0.027881 -0.019356
v -0.032692 0.028946 -0.01891
v 0.04985 0.022865 0.029849
v -0.027848 0.032617 -0.013834
v 0.0535 0.023909 -0.028979
v 0.04985 0.035098 0.013486
v -0.01225 0.036414 0.009369
v -0.01225 0.035076 0.013479
v -0.027315 0.02983 0.019289
v -0.036287 0.0328 -0.008728
v -0.039277 0.027939 0.016003
v -0.018779 0.02993 -0.021802
v -0.02695 0.0305 -0.018309
v 0.04985 0.039466 -0
v -0.041483 0.024771 0.009008
v -0.041395 0.024468 0.008985
v 0.05376 0.037189 -0.004621
v -0.037937 0.030254 0.014002
v -0.037937 0.028928 0.016569
v -0.036287 0.030803 0.014256
v 0.04985 0.025502 0.02763
v -0.040139 0.029621 -0.007934
v -0.039277 0.024759 -0.020583
v -0.039266 0.024393 -0.020999
v -0.039627 0.024039 -0.019954
v -0.018779 0.028418 -0.023624
v 0.048919 0.039574 -0.001439
v -0.040139 0.026584 -0.015278
v 0.0535 0.036949 0.006578
v 0.05376 0.036335 0.009172
v -0.039998 0.02402 0.018519
v 0.017919 0.021231 0.031032
v 0.053768 0.020587 0.031305
v -0.027293 0.0305 0.018198
v -0.027282 0.03083 0.017659
v -0.040139 0.030403 -0.004001
v -0.039277 0.031115 -0.00828
v -0.017203 0.022354 -0.028113
v -0.036287 0.033814 0.002939
v -0.015527 0.030276 -0.022055
v 0.049554 0.039502 -0.000854
v -0.037937 0.033212 0.002886
v -0.039277 0.032077 0.002788
v -0.039277 0.031715 0.005555
v -0.015527 0.034816 0.013815
v -0.018779 0.037029 -0
v -0.037937 0.027384 0.019011
v -0.037937 0.033337 -0
v -0.037937 0.033212 -0.002886
v -0.03796 0.023719 0.022431
v -0.038483 0.024111 0.022279
v 0.01703 0.023103 0.029636
v 0.048666 0.039296 0.002333
v -0.027726 0.02832 -0.021325
v -0.028628 0.027665 -0.021913
v 0.0535 0.028594 -0.024323
v 0.053672 0.027677 -0.025364
v 0.051385 0.028618 -0.02434
v -0.039277 0.031115 0.00828
v 0.053612 0.030623 -0.021778
v 0.04985 0.032049 -0.019662
v -0.037937 0.031352 -0.01133
v 0.04985 0.030114 0.022515
v -0.027283 0.028931 -0.020624
v 0.04985 0.025502 -0.02763
v -0.039266 0.024393 0.021
v -0.039641 0.024033 0.019939
v -0.038966 0.02391 0.021315
v 0.051272 0.021223 0.03091
v 0.0535 0.032419 -0.018932
v -0.040139 0.027779 -0.012855
v -0.018779 0.026955 0.025389
v -0.036749 0.023859 0.023365
v -0.01225 0.02737 -0.02578
v -0.015544 0.023903 0.028748
v -0.01225 0.023842 0.02896
v -0.032248 0.028328 -0.019961
v -0.02766 0.031851 0.015592
v -0.038666 0.024128 -0.022021
v 0.016466 0.023555 0.029275
v -0.018779 0.034773 0.012568
v -0.040901 0.024642 -0.014037
v -0.040759 0.024209 -0.013752
v -0.029688 0.027366 -0.021988
v -0.040898 0.024641 0.014058
v -0.018779 0.02993 0.021802
v -0.01225 0.030391 0.022139
v -0.039277 0.030281 0.010943
v -0.01225 0.032931 -0.018147
v -0.015527 0.032806 -0.018078
v -0.015527 0.034816 -0.013815
v -0.036287 0.029453 0.01687
v -0.01225 0.031991 -0.019625
v -0.03 0.03346 -0.010438
v -0.018799 0.023883 -0.028174
v -0.018779 0.034418 0.013657
v -0.018799 0.023883 0.028174
v -0.01225 0.023843 -0.028961
v 0.053622 0.035021 0.01362
v -0.031994 0.028572 0.019688
v -0.01225 0.035076 -0.013479
v -0.01225 0.036414 -0.009369
v -0.01225 0.031991 0.019625
v 0.053832 0.037441 -0
v -0.036287 0.0328 0.008728
v -0.041611 0.025024 -0.006727
v -0.026973 0.029748 -0.019527
v -0.018779 0.034418 -0.013657
v -0.039997 0.024017 -0.018519
v -0.01225 0.034949 -0.013868
v -0.015527 0.036275 -0.009333
v -0.029384 0.033066 0.011949
v -0.036427 0.023986 -0.023694
v -0.040139 0.029627 0.00791
v -0.039277 0.024759 0.020583
v -0.031952 0.032295 0.012709
v -0.032388 0.029121 0.018738
v -0.036427 0.023986 0.023694
v 0.0535 0.032419 0.018932
v 0.0535 0.023909 0.028979
v 0.051375 0.028616 0.024339
v -0.037937 0.031352 0.01133
v -0.040139 0.03055 0.002655
v -0.041611 0.025024 0.006727
v 0.04985 0.020035 0.031818
v -0.016585 0.021259 0.02954
v -0.01757 0.020996 0.029028
v -0.017644 0.020988 0.028975
v -0.017626 0.020987 0.028991
v -0.021048 0.022347 -0.020929
v -0.0245 0.022279 -0.010889
v -0.017784 0.02231 -0.027217
v -0.019009 0.022329 -0.025026
v -0.020818 0.022349 -0.021515
v -0.016654 0.022447 -0.028793
v 0.017137 0.022866 0.029789
v 0.017136 0.022869 0.029787
v -0.018417 0.021081 0.028209
v -0.019153 0.02118 0.027533
v -0.019286 0.021198 0.027384
v -0.019338 0.021206 0.027323
v -0.019397 0.021213 0.027241
v -0.019575 0.021238 0.026973
v -0.019587 0.021239 0.026951
v -0.023444 0.021762 0.016737
v -0.02338 0.021754 0.016991
v -0.022238 0.021598 0.021168
v -0.021885 0.021551 0.021997
v -0.024598 0.02192 0.011795
v -0.024802 0.021948 0.010218
v -0.024979 0.021973 0.004985
v -0.025082 0.022004 0.000831
v -0.025 0.022221 -0.007332
v -0.024846 0.022257 -0.009079
v -0.024536 0.022279 -0.010783
v -0.025028 0.021981 0.00331
v -0.002587 0.020765 0.030882
v -0.016652 0.022447 -0.028794
v -0.016633 0.022448 -0.028796
f 277 216 276
f 193 146 239
f 218 73 232
f 54 145 82
f 54 205 145
f 205 116 145
f 72 167 5
f 193 170 130
f 238 205 54
f 252 256 236
f 256 89 236
f 89 74 236
f 88 74 160
f 122 198 53
f 172 64 297
f 190 288 284
f 2 292 296
f 50 294 293
f 220 161 216
f 237 258 49
f 66 161 87
f 258 267 266
f 247 217 141
f 87 161 260
f 161 220 260
f 220 143 260
f 258 269 267
f 194 217 152
f 171 249 190
f 249 96 190
f 143 192 277
f 68 227 109
f 226 31 212
f 131 48 28
f 153 142 99
f 9 264 254
f 144 104 248
f 105 39 248
f 212 258 237
f 112 111 226
f 111 113 226
f 113 79 226
f 79 97 226
f 111 112 69
f 30 150 37
f 143 265 173
f 172 276 64
f 278 268 190
f 274 270 50
f 277 192 216
f 216 64 276
f 72 4 167
f 275 50 253
f 190 96 291
f 190 291 290
f 279 278 190
f 280 279 190
f 190 290 289
f 190 289 285
f 281 280 190
f 282 281 190
f 190 285 286
f 190 286 287
f 283 282 190
f 284 283 190
f 190 287 288
f 2 50 292
f 50 271 295
f 50 295 294
f 293 292 50
f 258 18 269
f 18 190 268
f 172 209 143
f 277 172 143
f 9 78 264
f 212 71 258
f 50 272 273
f 50 273 274
f 270 271 50
f 1 2 3
f 10 11 12
f 19 20 21
f 23 24 25
f 44 45 46
f 13 51 52
f 31 79 71
f 94 16 95
f 41 93 115
f 117 118 119
f 123 124 125
f 133 134 42
f 68 135 117
f 36 22 157
f 158 159 160
f 62 169 170
f 150 106 124
f 91 162 177
f 166 152 180
f 182 183 184
f 185 148 81
f 104 100 106
f 52 51 33
f 118 185 119
f 85 187 159
f 188 189 95
f 190 132 191
f 197 196 200
f 206 207 208
f 106 100 202
f 210 29 200
f 20 101 186
f 189 94 95
f 126 218 175
f 83 225 84
f 125 124 177
f 228 24 199
f 201 122 233
f 185 221 236
f 225 83 27
f 159 187 232
f 77 238 76
f 185 118 148
f 232 187 69
f 243 117 119
f 214 238 10
f 134 163 42
f 223 90 138
f 235 11 10
f 180 121 12
f 34 140 139
f 106 150 127
f 152 204 247
f 45 153 46
f 248 45 44
f 21 20 186
f 137 246 162
f 165 249 43
f 93 211 56
f 91 93 56
f 125 176 94
f 93 92 115
f 141 133 115
f 99 141 115
f 202 100 92
f 124 106 202
f 19 123 189
f 20 19 189
f 43 249 222
f 211 168 222
f 168 43 222
f 222 249 223
f 110 229 250
f 131 110 250
f 11 166 12
f 166 180 12
f 45 248 230
f 230 248 231
f 214 10 12
f 121 214 12
f 241 250 231
f 229 233 230
f 233 180 230
f 233 122 180
f 122 121 180
f 241 251 242
f 251 241 231
f 248 38 231
f 10 238 77
f 3 2 219
f 96 165 164
f 2 96 219
f 206 70 255
f 129 154 6
f 221 80 15
f 74 256 75
f 69 240 257
f 232 69 257
f 88 218 236
f 218 126 236
f 174 126 175
f 103 259 109
f 108 86 109
f 129 130 154
f 7 9 184
f 9 254 184
f 254 199 184
f 254 228 199
f 254 58 228
f 151 85 159
f 158 262 26
f 262 228 26
f 228 262 24
f 23 182 184
f 159 232 160
f 25 24 245
f 182 179 101
f 188 182 101
f 84 225 171
f 59 225 27
f 59 58 155
f 58 254 155
f 254 264 155
f 78 7 263
f 156 136 17
f 171 225 17
f 135 146 118
f 135 118 117
f 243 68 117
f 215 61 212
f 215 212 237
f 52 33 186
f 148 147 81
f 60 243 119
f 243 60 227
f 208 190 191
f 61 227 60
f 158 75 262
f 47 167 48
f 32 47 251
f 193 130 129
f 170 193 239
f 34 3 134
f 126 60 119
f 174 232 149
f 232 257 149
f 137 223 138
f 73 160 232
f 174 175 232
f 175 218 232
f 85 70 187
f 45 247 153
f 67 8 78
f 98 128 82
f 128 54 82
f 9 7 78
f 116 197 145
f 263 16 78
f 102 51 81
f 67 114 8
f 33 5 32
f 26 159 158
f 127 30 234
f 127 150 30
f 34 133 141
f 130 169 62
f 170 169 130
f 146 193 102
f 81 147 102
f 147 148 102
f 148 118 102
f 102 129 40
f 118 146 102
f 251 38 37
f 238 54 128
f 205 53 116
f 180 45 230
f 34 217 140
f 19 37 150
f 27 151 26
f 245 15 80
f 236 119 185
f 183 7 184
f 221 15 236
f 15 252 236
f 74 88 236
f 88 73 218
f 88 160 73
f 50 178 272
f 50 57 178
f 74 75 160
f 124 19 150
f 50 275 57
f 25 80 13
f 63 298 253
f 130 244 154
f 229 201 233
f 198 196 53
f 214 121 53
f 94 176 16
f 133 41 115
f 121 122 53
f 16 67 78
f 120 122 200
f 122 201 200
f 202 177 124
f 201 210 200
f 25 52 179
f 75 24 262
f 101 189 188
f 75 14 245
f 14 15 245
f 14 75 15
f 75 252 15
f 75 256 252
f 74 89 256
f 260 143 173
f 92 91 202
f 167 36 28
f 143 209 173
f 21 251 37
f 195 152 166
f 221 81 80
f 96 296 291
f 2 1 50
f 110 210 201
f 1 253 50
f 1 3 253
f 228 27 26
f 192 220 216
f 132 71 70
f 161 66 216
f 235 35 253
f 35 63 253
f 237 49 215
f 35 235 63
f 235 77 63
f 11 253 34
f 235 10 77
f 122 120 198
f 213 18 258
f 128 76 238
f 70 191 132
f 206 208 191
f 261 109 203
f 70 206 191
f 207 171 208
f 207 84 171
f 49 216 215
f 83 85 151
f 17 249 171
f 17 223 249
f 43 164 165
f 43 163 164
f 43 42 163
f 135 239 146
f 41 211 93
f 49 258 266
f 99 142 141
f 137 56 55
f 142 247 141
f 86 87 260
f 125 162 176
f 194 195 140
f 195 139 140
f 220 192 143
f 217 194 140
f 194 152 195
f 168 42 43
f 18 213 190
f 213 258 190
f 217 204 152
f 258 132 190
f 149 126 174
f 208 171 190
f 250 47 131
f 47 48 131
f 241 47 250
f 249 165 96
f 164 219 96
f 167 181 36
f 181 22 36
f 219 134 3
f 219 164 134
f 4 181 167
f 164 163 134
f 81 13 80
f 187 71 69
f 139 195 34
f 195 224 34
f 224 11 34
f 259 68 109
f 224 195 11
f 195 166 11
f 227 203 109
f 200 198 120
f 261 65 108
f 261 227 65
f 250 230 231
f 21 33 32
f 48 167 28
f 31 71 212
f 100 115 92
f 79 69 71
f 24 184 199
f 255 84 206
f 84 207 206
f 255 85 84
f 214 205 238
f 59 155 225
f 154 4 6
f 136 90 17
f 90 223 17
f 135 259 103
f 56 211 222
f 137 55 222
f 55 56 222
f 66 215 216
f 23 179 182
f 129 72 40
f 46 153 99
f 153 247 142
f 204 217 247
f 44 144 248
f 104 106 248
f 106 105 248
f 66 65 227
f 241 242 47
f 242 251 47
f 53 197 116
f 181 157 22
f 38 39 107
f 65 86 108
f 72 6 4
f 40 33 51
f 44 99 100
f 17 155 156
f 243 227 68
f 261 203 227
f 179 186 101
f 149 112 226
f 97 31 226
f 97 79 31
f 79 111 69
f 112 240 69
f 113 111 79
f 182 95 183
f 27 58 59
f 264 78 155
f 78 156 155
f 78 8 156
f 8 114 156
f 114 138 156
f 246 176 162
f 95 263 183
f 114 67 138
f 67 137 138
f 240 149 257
f 162 91 56
f 67 246 137
f 123 94 189
f 104 144 100
f 144 44 100
f 60 212 61
f 107 37 38
f 107 234 37
f 234 30 37
f 90 156 138
f 127 107 106
f 107 105 106
f 107 39 105
f 127 234 107
f 28 110 131
f 244 181 154
f 172 265 143
f 61 66 227
f 158 160 75
f 47 5 167
f 32 5 47
f 34 253 3
f 126 226 60
f 137 222 223
f 85 255 70
f 45 152 247
f 102 40 51
f 33 72 5
f 26 151 159
f 34 134 133
f 102 193 129
f 251 231 38
f 180 152 45
f 34 141 217
f 19 21 37
f 27 83 151
f 236 126 119
f 183 263 7
f 124 123 19
f 25 245 80
f 130 62 244
f 77 76 299
f 229 110 201
f 133 42 41
f 16 176 67
f 202 91 177
f 25 13 52
f 75 245 24
f 101 20 189
f 92 93 91
f 21 32 251
f 221 185 81
f 96 2 296
f 110 29 210
f 228 58 27
f 132 258 71
f 11 235 253
f 128 98 76
f 261 108 109
f 49 64 216
f 83 84 85
f 135 103 239
f 41 168 211
f 137 162 56
f 125 177 162
f 168 41 42
f 149 226 126
f 81 51 13
f 187 70 71
f 200 196 198
f 250 229 230
f 21 186 33
f 100 99 115
f 24 23 184
f 214 53 205
f 154 181 4
f 135 68 259
f 66 61 215
f 23 25 179
f 129 6 72
f 66 87 65
f 53 196 197
f 38 248 39
f 65 87 86
f 40 72 33
f 44 46 99
f 17 225 155
f 179 52 186
f 182 188 95
f 246 67 176
f 95 16 263
f 240 112 149
f 123 125 94
f 60 226 212
f 90 136 156
f 28 29 110
f 244 157 181
