v -0.079 0.012 -0.039
v 0.045 -0.006 -0.107
v 0.041 0.031 -0.053
v 0.014 -0.031 -0.038
v -0.014 0.044 -0.107
v 0.014 0.031 -0.038
v 0.046 -0.022 -0.056
v -0.014 -0.044 -0.107
v 0.032 0.033 -0.107
v 0.022 0.031 -0.042
v -0.06 -0.011 -0.035
v -0.063 0.035 -0.038
v 0.051 0.003 -0.062
v -0.046 -0.002 -0.107
v 0.019 -0.042 -0.078
v 0.01 0.045 -0.078
v 0.011 0.018 -0.036
v 0.036 -0.031 -0.05
v -0.062 -0.032 -0.041
v -0.079 0.012 -0.062
v -0.069 0.013 -0.036
v 0.049 -0.015 -0.062
v 0.047 0.02 -0.057
v 0.029 -0.035 -0.107
v 0.016 0.043 -0.107
v 0.029 0.031 -0.046
v -0.01 0.045 -0.078
v 0.003 0 -0.035
v -0.055 0.026 -0.035
v 0.003 -0.045 -0.078
v -0.062 -0.031 -0.038
v -0.079 -0.027 -0.062
v -0.06 0.036 -0.062
v -0.066 0.031 -0.039
v -0.031 0.034 -0.107
v -0.064 0.031 -0.037
v -0.079 -0.027 -0.039
v 0.041 0.031 -0.062
v 0.043 0.016 -0.107
v 0.016 -0.043 -0.107
v 0.039 -0.025 -0.107
v 0.041 -0.031 -0.062
v 0.001 0.046 -0.107
v 0.01 -0.014 -0.036
v -0.006 0.027 -0.036
v 0.041 -0.031 -0.053
v -0.011 -0.044 -0.078
v -0.053 -0.026 -0.037
v -0.041 -0.021 -0.107
v -0.042 0.018 -0.107
v -0.069 -0.011 -0.036
v -0.066 -0.022 -0.037
v 0.047 0.02 -0.062
v 0.046 0.001 -0.098
v 0.001 -0.046 -0.107
v 0.003 0.011 -0.035
v -0.051 0.029 -0.036
v -0.03 -0.035 -0.107
f 16 6 10
f 16 12 6
f 17 10 6
f 18 7 3
f 18 17 4
f 18 10 17
f 22 13 7
f 22 2 13
f 23 3 7
f 23 7 13
f 25 16 3
f 26 16 10
f 26 3 16
f 26 18 3
f 26 10 18
f 27 12 16
f 29 21 11
f 30 18 4
f 31 30 4
f 31 19 30
f 32 8 19
f 32 20 14
f 33 20 12
f 33 27 5
f 33 12 27
f 34 20 1
f 34 1 12
f 34 12 20
f 35 33 5
f 35 20 33
f 36 12 1
f 36 1 21
f 36 29 12
f 36 21 29
f 37 32 19
f 37 19 31
f 37 1 20
f 37 20 32
f 38 25 3
f 38 9 25
f 39 9 38
f 41 2 22
f 42 24 41
f 42 40 24
f 42 15 40
f 42 41 22
f 42 22 7
f 43 16 25
f 43 27 16
f 43 5 27
f 44 28 11
f 44 11 4
f 44 4 17
f 44 17 28
f 45 17 6
f 45 6 12
f 46 30 15
f 46 18 30
f 46 15 42
f 46 42 7
f 46 7 18
f 47 30 19
f 47 19 8
f 48 31 4
f 48 4 11
f 48 11 31
f 49 32 14
f 50 14 20
f 50 20 35
f 51 37 11
f 51 11 21
f 51 21 1
f 51 1 37
f 52 37 31
f 52 31 11
f 52 11 37
f 53 23 13
f 53 13 39
f 53 39 38
f 53 38 3
f 53 3 23
f 54 39 13
f 54 13 2
f 54 2 39
f 55 40 15
f 55 15 30
f 55 47 8
f 55 30 47
f 56 45 29
f 56 29 11
f 56 11 28
f 56 28 17
f 56 17 45
f 57 45 12
f 57 12 29
f 57 29 45
f 58 8 32
f 58 32 49
f 58 49 14
f 58 55 8
f 58 14 50
f 58 50 35
f 58 35 5
f 58 5 43
f 58 43 25
f 58 25 9
f 58 9 39
f 58 39 2
f 58 2 41
f 58 41 24
f 58 24 40
f 58 40 55
