v -0.033332 -0.055212 0.005514
v 0.033259 -0.050855 0
v -0.001245 -0.066931 -0.031189
v 0.00744 -0.067899 0.029205
v -0.009793 -0.049739 -0.031907
v -0.003902 -0.049747 0.032627
v 0.029814 -0.067899 -0.004409
v -0.029806 -0.067899 0.004462
v 0.018464 -0.050613 -0.027633
v 0.0235 -0.050613 0.0235
v -0.031549 -0.049919 0.000486
v 0.03088 -0.04975 -0.004085
v -0.021508 -0.054863 0.027778
v -0.022988 -0.066928 -0.021119
v -0.028729 -0.06825 0
v 0.006484 -0.050629 -0.032597
v 0.019493 -0.067044 -0.024244
v 0.012752 -0.050709 0.030697
v 0.028686 -0.065564 0.013521
v -0.00656 -0.049245 -0.030815
v 0.029996 -0.049793 0.012425
v 0.030704 -0.050613 -0.012718
v -0.033027 -0.053191 0.014648
v -0.015795 -0.066928 0.026925
v -0.012053 -0.065564 -0.029333
v -0.031353 -0.053679 -0.017469
v 0.023916 -0.06825 0.015919
v -0.014205 -0.06825 0.024972
v 0.003186 -0.06825 -0.028552
v -0.001933 -0.050604 -0.033185
v 0.01224 -0.065564 -0.029255
v 0.017925 -0.04975 0.026827
v 0.003249 -0.065564 0.031546
v 0.016388 -0.065564 0.02715
v 0.031372 -0.065564 0.004639
v -0.005893 -0.049371 0.030895
v -0.028082 -0.049722 -0.016634
v 0.022814 -0.04975 -0.022814
v 0.032648 -0.049889 0
v 0.027649 -0.050709 0.018454
v 0.031372 -0.065564 -0.004639
v -0.032418 -0.061916 0.009371
v -0.033019 -0.053193 -0.014664
v -0.022988 -0.066928 0.021119
v -0.004331 -0.065564 -0.031416
v -0.011454 -0.067899 -0.027876
v -0.021507 -0.054864 -0.027778
v -0.023801 -0.06825 0.01609
v 0.007092 -0.06825 0.02784
v -0.004198 -0.067479 0.030449
v 0.02133 -0.06825 -0.019246
v 0.003249 -0.065564 -0.031546
v 0 -0.049897 -0.03267
v 0.012756 -0.050694 -0.030693
v 0.016388 -0.065564 -0.02715
v 0.007706 -0.066928 -0.03025
v 0.018464 -0.050613 0.027633
v 0.006334 -0.049793 0.031844
v 0.023102 -0.049836 0.023102
v 0.012049 -0.066928 0.028798
v 0.023545 -0.065564 0.021245
v 0.028848 -0.067899 0.008723
v 0.031682 -0.050855 0.00958
v -0.027057 -0.050316 0.017205
v -0.009794 -0.049739 0.031907
v 0.026827 -0.04975 0.017925
v 0.03088 -0.04975 0.004085
v -0.009818 -0.049739 -0.031887
v 0.026827 -0.04975 -0.017925
v 0.023501 -0.050629 -0.023501
v 0.032373 -0.050081 -0.006439
v 0.031216 -0.066928 0
v 0.028237 -0.066928 -0.013309
v -0.03307 -0.057839 0.009249
v -0.033027 -0.053191 0.014447
v -0.03135 -0.053675 -0.017468
v -0.03141 -0.050026 -0.002925
v -0.032031 -0.062476 -0.008749
v -0.01992 -0.065564 0.024676
v -0.02855 -0.054497 0.020984
v -0.025862 -0.066928 0.017482
v -0.022194 -0.067899 0.020389
v -0.007806 -0.065565 -0.030737
v -0.006163 -0.050405 -0.032716
v -0.015795 -0.066928 -0.026925
v -0.002864 -0.068096 -0.029538
v -0.023801 -0.06825 -0.01609
v -0.02855 -0.054497 -0.020984
v -0.028139 -0.06825 0.005793
v 0.015574 -0.067899 0.025802
v -0.011454 -0.067899 0.027876
v -0.002891 -0.068114 0.02948
v 0.003198 -0.066928 0.031052
v -0.007804 -0.065565 0.030738
v 0.011632 -0.067899 -0.027802
v 0.02842 -0.06825 -0.004203
v 0 -0.050613 -0.033234
v -0.000545 -0.065564 -0.031708
v -0.005833 -0.050037 -0.03274
v -0.001867 -0.049846 -0.032597
v 0.012347 -0.04975 -0.029808
v 0.007829 -0.065564 -0.030731
v 0.003198 -0.066928 -0.031052
v 0.012567 -0.049959 0.03034
v 0.020184 -0.065564 0.024461
v 0.012347 -0.04975 0.029808
v 0.006484 -0.050613 0.032595
v 0.02334 -0.050081 0.02334
v 0.01224 -0.065564 0.029255
v 0.025986 -0.066928 0.017297
v 0.02988 -0.066928 0.009035
v 0.032595 -0.050613 0.006484
v 0.030704 -0.050613 0.012718
v -0.019171 -0.049906 0.024417
v -0.030296 -0.050417 0.009093
v 0.022814 -0.04975 0.022814
v 0.027445 -0.050081 0.018338
v 0.028756 -0.04975 0.011974
v 0.031844 -0.049793 -0.006334
v 0.031862 -0.049797 0.006338
v -0.027999 -0.049722 -0.016703
v -0.020841 -0.053722 -0.028442
v 0.028756 -0.04975 -0.011974
v 0.02334 -0.050081 -0.02334
v 0.020184 -0.065564 -0.024461
v 0.027445 -0.050081 -0.018338
v 0.033215 -0.050441 0
v 0.032599 -0.050648 -0.006484
v 0.030881 -0.066928 -0.004567
v 0.031713 -0.065564 0
v 0.029814 -0.067899 0.004409
v 0.022376 -0.067899 -0.02019
v 0.030356 -0.065564 -0.009179
v -0.032904 -0.058826 0.009341
v -0.033332 -0.055049 0.008784
v -0.033006 -0.053164 -0.01453
v -0.032975 -0.053143 -0.014657
v -0.031406 -0.050019 -0.002897
v -0.030138 -0.067899 0
v -0.033046 -0.057961 -0.009273
v -0.028165 -0.066928 -0.013461
v -0.019291 -0.066962 0.02447
v -0.016047 -0.065564 0.027353
v -0.024793 -0.055829 0.02444
v -0.031354 -0.053678 0.017471
v -0.023354 -0.065564 0.021455
v -0.029949 -0.06663 0.009332
v -0.027192 -0.067899 0.012995
v -0.01936 -0.06825 0.021227
v -0.011864 -0.066928 -0.028874
v -0.004263 -0.066928 -0.030924
v -0.006011 -0.065565 -0.031088
v -0.01893 -0.067899 -0.02345
v -0.016047 -0.065564 -0.027353
v -0.014537 -0.06825 -0.02478
v -0.024783 -0.055811 -0.024424
v -0.026273 -0.065564 -0.01776
v -0.028413 -0.06825 0.004254
v 0.014847 -0.06825 0.024596
v 0.011632 -0.067899 0.027802
v 0.016132 -0.066928 0.026725
v -0.01517 -0.068008 0.025491
v 0.003186 -0.06825 0.028552
v -0.007296 -0.068088 0.028791
v -0.000346 -0.066652 0.031329
v 0.00229 -0.067676 0.030409
v 0.007829 -0.065564 0.030731
v 0.007706 -0.066928 0.03025
v -0.020818 -0.053713 0.02842
v -0.007693 -0.066801 0.030305
v -0.004009 -0.050426 0.03301
v 0.011089 -0.06825 -0.026503
v 0.012049 -0.066928 -0.028798
v 0.027261 -0.067899 -0.012849
v 0.003392 -0.050855 -0.032925
v 0.006439 -0.050081 -0.032373
v -0.005841 -0.050038 -0.03274
v -0.009633 -0.049741 -0.031921
v 0.006334 -0.049793 -0.031844
v 0.017925 -0.04975 -0.026827
v 0.012567 -0.049959 -0.03034
v 0.002362 -0.067802 -0.030188
v 0.000797 -0.066757 -0.031289
v 0.018338 -0.050081 0.027445
v 0.021066 -0.050855 0.025529
v 0.018151 -0.049836 0.027165
v 0.006439 -0.050081 0.032373
v 0.022376 -0.067899 0.02019
v 0.0264 -0.065564 0.017572
v 0.030881 -0.066928 0.004567
v 0.030356 -0.065564 0.009179
v 0.028237 -0.066928 0.013309
v -0.017845 -0.049882 0.025476
v -0.031289 -0.050101 0.003878
v -0.03299 -0.053148 0.014642
v 0.027165 -0.049836 0.018151
v 0.030495 -0.050081 0.012631
v -0.019171 -0.049906 -0.024417
v -0.028518 -0.054499 -0.021015
v -0.008573 -0.064066 -0.03069
v -0.031336 -0.053679 -0.017487
v 0.029996 -0.049793 -0.012425
v 0.023102 -0.049836 -0.023102
v 0.021066 -0.050855 -0.025529
v 0.018472 -0.066636 -0.025278
v 0.0264 -0.065564 -0.017572
v 0.032373 -0.050081 0.006439
v 0.030138 -0.067899 0
v 0.02944 -0.067802 -0.007082
v 0.0275 -0.06825 0.008315
v 0.019501 -0.067926 -0.022618
v 0.028686 -0.065564 -0.013521
v 0.031682 -0.050855 -0.00958
v 0.029486 -0.066786 -0.010451
v -0.032623 -0.060655 0.009313
v -0.033263 -0.055698 0.009205
v -0.033296 -0.056566 0.002655
v -0.033003 -0.053161 -0.014546
v -0.028311 -0.049742 -0.015686
v -0.032256 -0.062417 0.008805
v -0.028816 -0.067899 -0.008826
v -0.032047 -0.062355 -0.008842
v -0.028613 -0.065564 -0.013675
v -0.024968 -0.067899 -0.016878
v -0.018201 -0.066692 0.025377
v -0.022121 -0.054831 0.027187
v -0.026273 -0.065564 0.01776
v -0.028613 -0.065564 0.013675
v -0.02994 -0.067083 0.008314
v -0.028165 -0.066928 0.013461
v -0.02617 -0.06825 0.011853
v -0.029033 -0.068033 0.006568
v -0.024968 -0.067899 0.016878
v -0.021157 -0.06825 0.019436
v -0.007774 -0.065768 -0.030687
v -0.01525 -0.067899 -0.025995
v -0.002154 -0.06771 -0.030288
v -0.007461 -0.067745 -0.029397
v -0.019608 -0.066928 -0.02429
v -0.007295 -0.068088 -0.028791
v -0.018046 -0.06825 -0.022355
v -0.023354 -0.065564 -0.021455
v -0.025862 -0.066928 -0.017482
v 0.011089 -0.06825 0.026503
v -0.019125 -0.067234 0.024143
v -0.00707 -0.06825 0.027846
v -0.004082 -0.067978 0.029609
v -0.00745 -0.067776 0.029346
v -0.010919 -0.06825 0.026574
v 0.001245 -0.066931 0.031189
v -0.002368 -0.0678 0.030192
v -0.008573 -0.064062 0.030689
v -0.012053 -0.065564 0.029333
v -0.020839 -0.053713 0.028399
v -0.021546 -0.050429 0.022837
v -0.011864 -0.066928 0.028874
v -0.004295 -0.066513 0.031156
v -0.007995 -0.050114 0.032364
v -0.000545 -0.065564 0.031708
v 0.00744 -0.067899 -0.029205
v 0.016132 -0.066928 -0.026725
v 0.025987 -0.06825 -0.012249
v 0.025986 -0.066928 -0.017297
v -0.005845 -0.050036 -0.032738
v 0.018338 -0.050081 -0.027445
v 0.018151 -0.049836 -0.027165
v 0 -0.049889 0.032648
v 0.019868 -0.066928 0.024078
v 0.02133 -0.06825 0.019246
v 0.019181 -0.067899 0.023246
v 0.027261 -0.067899 0.012849
v 0.023177 -0.066928 0.020912
v -0.009799 -0.049739 0.031902
v -0.019175 -0.049914 0.024425
v -0.030294 -0.050417 0.009099
v -0.030297 -0.050418 0.009095
v -0.019061 -0.049866 -0.024432
v -0.018732 -0.049898 -0.024768
v 0.027165 -0.049836 -0.018151
v 0.030495 -0.050081 -0.012631
v 0.027649 -0.050694 -0.018451
v 0.023545 -0.065564 -0.021245
v 0.028729 -0.06825 0
v 0.029341 -0.06788 -0.006836
v 0.019582 -0.067384 -0.023739
v 0.015136 -0.068031 -0.025333
v 0.01936 -0.06825 -0.021227
v 0.029664 -0.067234 -0.008291
v -0.032777 -0.059639 0.009344
v -0.033325 -0.055392 0.008146
v -0.033086 -0.057675 0.009234
v -0.033302 -0.055671 -0.004358
v -0.032545 -0.061175 0.009288
v -0.02747 -0.06825 -0.008414
v -0.029848 -0.066928 -0.009142
v -0.022194 -0.067899 -0.020389
v -0.027192 -0.067899 -0.012995
v -0.028522 -0.054494 0.021011
v -0.028554 -0.054496 0.020979
v -0.029293 -0.066914 0.010494
v -0.025921 -0.06825 0.012388
v -0.007695 -0.06678 -0.03032
v -0.010919 -0.06825 -0.026574
v -0.00419 -0.067413 -0.03039
v -0.004089 -0.067948 -0.029662
v -0.01992 -0.065564 -0.024676
v -0.003186 -0.06825 0.028552
v -0.003924 -0.06825 0.02846
v -0.001189 -0.066921 0.031181
v -0.027034 -0.050328 0.017246
v -0.004331 -0.065564 0.031416
v 0 -0.050648 0.033237
v 0.007092 -0.06825 -0.02784
v 0.025088 -0.067899 -0.016699
v 0.023177 -0.066928 -0.020912
v 0.018285 -0.06825 0.022159
v 0.025088 -0.067899 0.016699
v 0.025987 -0.06825 0.012249
v -0.020827 -0.053708 0.028404
v -0.028448 -0.050484 0.014329
v 0.02842 -0.06825 0.004203
v 0.015924 -0.067652 -0.025581
v -0.033292 -0.056326 -0.003152
v -0.033243 -0.055254 -0.007781
v -0.029806 -0.067899 -0.004462
v -0.021157 -0.06825 -0.019436
v -0.025921 -0.06825 -0.012388
v -0.028547 -0.05448 0.020975
v -0.003924 -0.06825 -0.02846
v -0.006314 -0.050349 0.032648
v 0.003392 -0.050855 0.032925
v 0.023916 -0.06825 -0.015919
v -0.019592 -0.050023 0.024173
v -0.029657 -0.050442 0.010913
v -0.033293 -0.056329 -0.002605
v -0.033203 -0.055799 -0.009245
v -0.033067 -0.053634 -0.01319
v -0.028413 -0.06825 -0.004254
v -0.007068 -0.06825 -0.027846
v -0.003186 -0.06825 -0.028552
v -0.033078 -0.057531 -0.009246
v -0.033223 -0.055177 -0.00843
f 37 36 20
f 37 11 36
f 55 54 9
f 55 31 54
f 57 18 34
f 58 36 6
f 61 40 10
f 65 6 36
f 67 12 20
f 67 20 36
f 68 20 5
f 69 38 20
f 75 23 11
f 76 26 43
f 82 44 81
f 84 30 45
f 84 83 5
f 98 3 45
f 98 97 52
f 98 45 30
f 98 30 97
f 99 97 30
f 99 53 97
f 100 20 53
f 100 53 99
f 102 54 31
f 102 16 54
f 102 56 52
f 102 52 16
f 103 52 56
f 105 57 34
f 105 61 10
f 106 32 36
f 106 36 58
f 106 58 104
f 108 57 10
f 109 60 34
f 109 34 18
f 112 35 2
f 113 40 19
f 113 63 112
f 114 36 11
f 114 11 64
f 116 66 36
f 116 36 32
f 116 32 59
f 116 59 66
f 117 40 113
f 117 108 10
f 117 10 40
f 117 59 108
f 118 67 36
f 118 36 66
f 118 66 21
f 119 12 67
f 119 39 71
f 120 118 21
f 120 67 118
f 120 119 67
f 120 39 119
f 121 68 37
f 121 37 20
f 121 20 68
f 122 68 5
f 122 83 25
f 122 25 47
f 123 69 20
f 123 20 12
f 123 12 119
f 124 70 9
f 125 55 9
f 126 70 124
f 127 71 39
f 127 112 2
f 128 22 71
f 128 2 41
f 128 127 2
f 128 71 127
f 130 41 2
f 130 129 41
f 130 72 129
f 130 2 35
f 133 128 41
f 133 41 129
f 134 23 74
f 135 23 75
f 135 75 43
f 135 43 1
f 136 75 11
f 136 43 75
f 137 76 43
f 137 37 76
f 138 77 11
f 140 78 42
f 142 79 44
f 142 44 82
f 143 13 79
f 144 79 13
f 145 23 42
f 146 81 44
f 146 144 80
f 146 44 79
f 146 79 144
f 151 45 3
f 152 84 45
f 152 83 84
f 154 47 25
f 154 150 85
f 154 25 150
f 157 26 88
f 158 139 15
f 158 8 139
f 160 90 60
f 160 60 4
f 161 34 60
f 161 60 90
f 161 105 34
f 162 28 91
f 162 149 28
f 162 82 149
f 162 91 24
f 163 49 4
f 166 163 4
f 166 92 163
f 167 60 109
f 167 107 33
f 167 109 18
f 167 18 107
f 168 4 60
f 168 166 4
f 168 93 166
f 168 60 167
f 168 167 33
f 168 33 93
f 173 102 31
f 173 56 102
f 173 31 55
f 175 97 16
f 175 16 52
f 175 52 97
f 176 97 53
f 176 16 97
f 176 54 16
f 177 84 5
f 177 99 30
f 177 30 84
f 178 5 20
f 178 20 100
f 179 53 20
f 179 20 101
f 179 176 53
f 180 101 20
f 180 20 38
f 181 54 176
f 181 179 101
f 181 176 179
f 182 3 103
f 182 29 86
f 183 98 52
f 183 52 103
f 183 103 3
f 183 3 98
f 184 104 18
f 184 18 57
f 184 57 108
f 184 108 59
f 185 105 10
f 185 10 57
f 185 57 105
f 186 106 104
f 186 32 106
f 186 104 184
f 186 184 59
f 186 59 32
f 187 104 58
f 187 107 18
f 187 18 104
f 189 19 40
f 189 40 61
f 190 130 35
f 190 72 130
f 190 111 62
f 190 62 131
f 191 113 19
f 191 63 113
f 191 112 63
f 191 190 35
f 191 111 190
f 191 35 112
f 192 62 111
f 192 191 19
f 192 111 191
f 192 189 110
f 192 19 189
f 193 36 114
f 193 169 65
f 194 64 11
f 195 145 64
f 195 23 145
f 195 194 11
f 195 11 23
f 196 21 66
f 196 66 59
f 196 59 117
f 197 117 113
f 197 120 21
f 197 196 117
f 197 21 196
f 197 113 112
f 198 122 37
f 199 122 47
f 199 88 122
f 199 156 88
f 199 47 156
f 200 122 5
f 200 5 83
f 200 83 122
f 201 76 37
f 201 37 122
f 201 26 76
f 201 122 88
f 201 88 26
f 202 123 119
f 202 69 123
f 203 38 69
f 203 180 38
f 203 126 124
f 204 125 9
f 204 9 70
f 204 70 125
f 205 125 17
f 205 55 125
f 207 112 127
f 207 127 39
f 207 39 120
f 207 197 112
f 207 120 197
f 208 129 72
f 208 7 129
f 208 190 131
f 208 72 190
f 209 129 7
f 210 131 62
f 212 22 133
f 212 73 206
f 213 133 22
f 213 22 128
f 213 128 133
f 214 133 129
f 214 212 133
f 214 73 212
f 214 209 174
f 214 174 73
f 215 134 74
f 215 42 23
f 216 23 135
f 218 43 136
f 218 136 11
f 218 11 77
f 218 137 43
f 218 77 137
f 219 137 77
f 219 37 137
f 219 77 138
f 219 138 11
f 219 11 37
f 220 42 78
f 220 78 139
f 222 140 43
f 222 78 140
f 222 141 78
f 223 43 26
f 223 222 43
f 223 141 222
f 223 26 157
f 225 142 24
f 225 79 142
f 225 143 79
f 225 24 143
f 226 144 13
f 226 80 144
f 226 13 169
f 227 146 80
f 227 81 146
f 228 145 42
f 228 227 145
f 228 81 227
f 229 220 139
f 229 139 8
f 229 147 42
f 229 42 220
f 230 148 81
f 230 81 228
f 230 229 148
f 230 42 147
f 230 228 42
f 232 229 8
f 232 148 229
f 232 89 231
f 232 158 89
f 232 8 158
f 232 231 148
f 233 82 81
f 233 81 148
f 233 148 48
f 233 48 82
f 234 149 82
f 234 82 48
f 235 150 25
f 235 25 83
f 235 83 152
f 235 152 45
f 235 45 151
f 236 150 46
f 236 85 150
f 237 151 3
f 237 182 86
f 237 3 182
f 238 46 150
f 239 154 85
f 239 236 153
f 239 85 236
f 240 46 238
f 241 236 155
f 241 153 236
f 242 88 156
f 242 239 14
f 242 157 88
f 243 242 14
f 243 157 242
f 243 223 157
f 243 141 223
f 244 159 90
f 244 90 160
f 244 160 4
f 244 4 49
f 245 142 82
f 245 82 162
f 245 162 24
f 245 24 142
f 247 164 92
f 248 91 164
f 248 247 50
f 248 164 247
f 248 50 170
f 249 164 91
f 249 91 28
f 249 246 164
f 250 93 33
f 250 166 93
f 251 92 166
f 251 247 92
f 251 50 247
f 252 169 94
f 252 65 169
f 253 94 169
f 253 169 13
f 253 13 143
f 253 170 94
f 256 24 91
f 256 170 253
f 256 248 170
f 256 91 248
f 256 253 143
f 256 143 24
f 257 94 170
f 257 170 50
f 258 171 6
f 258 6 65
f 258 252 94
f 258 65 252
f 259 257 165
f 259 250 33
f 259 165 250
f 260 95 172
f 260 29 182
f 260 182 103
f 260 103 56
f 260 173 95
f 260 56 173
f 261 95 173
f 261 205 17
f 261 173 55
f 261 55 205
f 263 206 73
f 264 177 5
f 264 99 177
f 264 5 178
f 264 178 100
f 264 100 99
f 265 124 9
f 265 203 124
f 265 9 54
f 265 54 181
f 266 181 101
f 266 101 180
f 266 265 181
f 266 180 203
f 266 203 265
f 267 187 58
f 267 58 6
f 268 161 90
f 268 105 161
f 269 27 188
f 270 90 159
f 270 268 90
f 270 188 268
f 271 62 192
f 272 189 61
f 272 110 189
f 272 268 188
f 272 188 110
f 272 61 105
f 272 105 268
f 273 193 65
f 273 65 36
f 273 36 193
f 274 193 114
f 274 169 193
f 275 115 195
f 275 194 115
f 275 64 194
f 276 195 115
f 276 115 194
f 276 194 195
f 277 37 68
f 278 68 122
f 278 122 198
f 278 198 37
f 278 37 277
f 278 277 68
f 279 69 202
f 279 203 69
f 279 126 203
f 280 202 119
f 280 119 71
f 280 71 22
f 280 22 126
f 280 279 202
f 280 126 279
f 281 126 22
f 281 70 126
f 281 212 206
f 281 22 212
f 282 125 70
f 282 281 206
f 282 70 281
f 283 208 131
f 283 96 7
f 283 7 208
f 284 209 7
f 284 7 96
f 284 96 262
f 284 262 174
f 284 174 209
f 285 132 211
f 285 261 17
f 286 172 95
f 286 285 211
f 287 211 132
f 287 132 51
f 287 286 211
f 287 172 286
f 288 214 129
f 288 129 209
f 288 209 214
f 289 215 23
f 289 23 134
f 289 134 215
f 290 216 135
f 290 217 74
f 290 135 1
f 290 1 217
f 291 74 23
f 291 23 216
f 291 290 74
f 291 216 290
f 293 215 74
f 293 74 217
f 293 42 215
f 293 217 140
f 293 140 42
f 295 78 141
f 296 243 14
f 296 224 243
f 296 239 153
f 296 14 239
f 296 153 241
f 296 87 224
f 297 294 221
f 297 295 141
f 297 221 295
f 297 243 224
f 297 141 243
f 297 224 87
f 298 226 169
f 298 80 226
f 298 169 254
f 299 227 80
f 299 80 145
f 299 145 227
f 300 230 147
f 300 147 229
f 300 229 230
f 301 48 148
f 301 148 231
f 302 235 151
f 302 150 235
f 302 238 150
f 302 151 238
f 303 236 46
f 303 155 236
f 303 46 240
f 304 238 151
f 304 151 237
f 305 237 86
f 305 304 237
f 305 238 304
f 305 240 238
f 305 86 240
f 306 47 154
f 306 154 239
f 306 156 47
f 306 242 156
f 306 239 242
f 307 163 92
f 308 92 164
f 308 164 246
f 308 307 92
f 309 250 165
f 309 257 50
f 309 165 257
f 309 50 251
f 309 251 166
f 309 166 250
f 310 255 274
f 310 64 145
f 310 145 254
f 310 274 114
f 310 114 64
f 311 94 257
f 311 259 171
f 311 257 259
f 311 258 94
f 312 259 33
f 312 171 259
f 312 267 6
f 312 6 171
f 312 107 187
f 312 187 267
f 313 260 172
f 313 29 260
f 314 132 263
f 314 263 73
f 314 73 174
f 315 263 132
f 315 285 17
f 315 132 285
f 315 282 206
f 315 206 263
f 315 17 125
f 315 125 282
f 316 269 188
f 316 188 270
f 316 270 159
f 317 188 27
f 317 27 271
f 317 110 188
f 317 271 192
f 317 192 110
f 318 210 62
f 318 62 271
f 318 271 27
f 319 255 310
f 319 169 274
f 319 310 254
f 319 254 169
f 320 195 64
f 321 283 131
f 321 131 210
f 322 95 261
f 322 261 285
f 322 286 95
f 322 285 286
f 323 1 292
f 323 140 217
f 324 292 1
f 325 221 294
f 325 295 221
f 325 139 78
f 325 78 295
f 326 296 241
f 326 87 296
f 327 297 87
f 327 294 297
f 328 298 254
f 328 254 145
f 328 145 80
f 328 80 298
f 329 240 86
f 330 311 171
f 330 171 258
f 330 258 311
f 331 312 33
f 331 33 107
f 331 107 312
f 332 314 174
f 332 174 262
f 332 51 132
f 332 132 314
f 333 319 274
f 333 274 255
f 333 255 319
f 334 275 195
f 334 195 320
f 334 320 64
f 334 64 275
f 335 323 217
f 335 217 1
f 335 1 323
f 336 323 292
f 336 292 324
f 336 43 140
f 337 324 1
f 337 1 43
f 338 325 294
f 338 15 139
f 338 139 325
f 339 303 240
f 339 240 329
f 340 329 86
f 340 86 29
f 340 339 329
f 340 29 313
f 340 313 172
f 340 172 287
f 340 287 51
f 340 51 332
f 340 332 262
f 340 262 96
f 340 96 283
f 340 283 321
f 340 321 210
f 340 210 318
f 340 318 27
f 340 27 269
f 340 269 316
f 340 316 159
f 340 159 244
f 340 244 49
f 340 49 163
f 340 163 307
f 340 307 308
f 340 308 246
f 340 246 249
f 340 249 28
f 340 28 149
f 340 149 234
f 340 234 48
f 340 48 301
f 340 301 231
f 340 231 89
f 340 89 158
f 340 158 15
f 340 15 338
f 340 338 294
f 340 294 327
f 340 327 87
f 340 87 326
f 340 326 241
f 340 241 155
f 340 155 303
f 340 303 339
f 341 336 140
f 341 140 323
f 341 323 336
f 342 336 324
f 342 324 337
f 342 337 43
f 342 43 336
