v -0.20762 0.0905295 0.071546
v -0.203799 -0.0890088 0.0719523
v -0.210293 -0.088805 0.0705
v -0.203195 0.0861932 0.0725772
v -0.126993 -0.0860645 0.071546
v -0.126715 0.0863014 0.0710732
v -0.120411 -0.0850361 0.0722111
v -0.123497 -0.0909308 0.0718595
v -0.124173 0.0902907 0.072069
v -0.0441301 0.0889798 0.0721324
v -0.0402313 0.0899125 0.072069
v -0.0427835 -0.0890787 0.0715707
v -0.039689 -0.0860365 0.071546
v -0.0394483 0.0847317 0.0720049
v 0.0424708 -0.0878317 0.0717642
v 0.0407784 0.0897715 0.072069
v 0.0443358 0.088007 0.0722167
v 0.127428 -0.0900242 0.0720061
v 0.124851 -0.0874789 0.072069
v 0.127991 0.0850849 0.0719874
v 0.203328 -0.0853596 0.0723686
v 0.206336 -0.090695 0.0719069
v 0.207314 0.0913125 0.0722448
v 0.214225 0.0897237 0.0722939
v 0.246066 -0.034877 0.0704938
v 0.254792 0.0318243 0.0704975
v 0.249791 0.0439587 0.0704842
v 0.25834 -0.0411957 0.0704954
v 0.340853 -0.0296141 0.0704979
v 0.330849 -0.036941 0.0704952
v 0.341383 0.0289686 0.0704949
v 0.329229 0.034484 0.0705037
v -0.21854 -0.086851 0.072687
v -0.216267 0.09309 0.072604
v -0.21588 0.0901067 0.0741982
v -0.21011 0.0904099 0.0760149
v -0.211174 0.0853866 0.0719457
v -0.212246 -0.0849507 0.0733111
v -0.213888 0.0832214 0.0736373
v -0.206373 -0.0831938 0.0733335
v -0.202586 -0.085424 0.0730809
v -0.173798 0.086985 0.072623
v -0.173798 -0.087006 0.072627
v -0.202032 -0.087259 0.080455
v -0.158203 -0.093156 0.07263
v -0.129919 -0.087115 0.072597
v -0.129842 0.086754 0.072965
v -0.130043 -0.087676 0.080423
v -0.130183 0.089163 0.0803131
v -0.128804 -0.0839532 0.0732171
v -0.126727 -0.083184 0.074075
v -0.129113 0.0846749 0.073059
v -0.125799 0.082864 0.074092
v -0.122606 -0.083117 0.074092
v -0.119106 0.086982 0.072615
v -0.119102 -0.087 0.072607
v -0.121363 -0.0897417 0.0745382
v -0.118911 -0.087826 0.080424
v -0.075204 -0.093222 0.072643
v -0.046368 -0.08684 0.072644
v -0.075202 0.093157 0.072625
v -0.007796 -0.093246 0.072645
v -0.0449689 0.085432 0.0727113
v -0.0449615 -0.0842202 0.0733393
v -0.041203 -0.082874 0.074092
v -0.040507 0.082899 0.074092
v -0.036642 0.086821 0.072703
v -0.007785 0.086844 0.072732
v -0.0393045 -0.08378 0.072592
v -0.036567 -0.08673 0.074023
v 0.075207 -0.093248 0.072664
v 0.007782 -0.093352 0.072756
v 0.0378125 -0.0867435 0.072624
v 0.0077925 0.089998 0.0726725
v 0.075205 0.093227 0.072649
v 0.0377054 -0.084333 0.0733577
v 0.0372691 0.0853163 0.0729606
v 0.036584 0.086752 0.074036
v 0.041635 -0.082805 0.072592
v 0.0409979 0.0848155 0.0719502
v 0.041203 0.082874 0.074092
v 0.043499 -0.083125 0.074092
v 0.046428 0.08678 0.072659
v 0.044335 0.083826 0.074095
v 0.045336 -0.084664 0.072592
v 0.075215 0.086848 0.072732
v 0.0454128 -0.0893565 0.0761922
v 0.119099 -0.087012 0.072607
v 0.090794 -0.093194 0.072661
v 0.090786 0.093316 0.072723
v 0.090795 0.086951 0.072649
v 0.120724 0.0882051 0.0720761
v 0.119537 0.08556 0.07259
v 0.119157 0.086755 0.072954
v 0.120644 0.0897845 0.0751035
v 0.122285 -0.083178 0.074063
v 0.123955 0.08721 0.071546
v 0.125632 0.082827 0.074092
v 0.126472 -0.083149 0.074092
v 0.15821 -0.093298 0.07269
v 0.158208 0.093275 0.072673
v 0.158211 -0.086881 0.072694
v 0.129429 -0.088794 0.0754955
v 0.130074 -0.087777 0.080434
v 0.128073 -0.0846308 0.0727884
v 0.173794 -0.086936 0.072654
v 0.173787 0.086878 0.072711
v 0.202206 -0.08668 0.080504
v 0.202155 -0.086764 0.072911
v 0.202194 0.086597 0.073603
v 0.202465 0.0858027 0.0728802
v 0.205286 -0.083178 0.074061
v 0.205414 0.083152 0.074088
v 0.204839 0.0856491 0.0716143
v 0.209491 -0.0831415 0.073342
v 0.216203 -0.093218 0.072627
v 0.21234 -0.085303 0.07259
v 0.210407 -0.091265 0.076706
v 0.216037 -0.093366 0.075714
v 0.217495 -0.089916 0.077373
v 0.216039 0.093364 0.075707
v 0.216017 0.093391 0.072949
v -0.090781 0.093308 0.072761
v -0.158215 0.093261 0.072728
v -0.202159 -0.086748 0.073017
v 0.007749 0.093402 0.073018
v -0.212627 -0.0919235 0.072593
v -0.0908 -0.093151 0.072611
v -0.075248 -0.093401 0.073002
v -0.216013 0.093397 0.072975
v -0.216057 -0.093367 0.075708
v -0.220957 -0.08 0.074005
v 0.220957 -0.08 0.074015
v -0.222373 -0.075983 0.07422
v 0.222389 -0.075941 0.074218
v 0.22238 0.075965 0.07423
v -0.220957 0.08 0.074019
v -0.223147 -0.073958 0.07805
v -0.223268 -0.073464 0.080424
v 0.220957 0.08 0.074005
v -0.222391 0.075934 0.074224
v -0.219555 -0.083974 0.074315
v -0.222889 0.074566 0.080494
v -0.2025 -0.084038 0.074192
v -0.202502 0.084034 0.074161
v -0.202377 -0.086375 0.077899
v -0.202331 0.084788 0.07796
v -0.0465 -0.084027 0.07416
v -0.1195 -0.084032 0.074149
v -0.120799 0.0845251 0.0728917
v -0.046501 0.084053 0.074207
v -0.119367 -0.086426 0.077973
v -0.0365 -0.084043 0.074148
v 0.0365 -0.084047 0.074155
v 0.0365 0.08405 0.074131
v -0.0365 0.084044 0.074158
v 0.0465 -0.08401 0.074193
v 0.0465 0.084051 0.074196
v 0.1195 0.084059 0.074165
v 0.119331 -0.0848355 0.077997
v 0.11965 0.084945 0.074091
v 0.120539 -0.0849332 0.0727665
v 0.1295 -0.084013 0.074178
v 0.1295 0.084001 0.074145
v 0.129634 -0.086442 0.078009
v 0.129624 0.0845635 0.0775345
v 0.202632 -0.0848924 0.074563
v 0.202534 0.084067 0.074248
v 0.2125 -0.084023 0.07413
v 0.212556 0.085894 0.076976
v 0.219577 -0.083914 0.074329
v 0.214015 0.0859007 0.0739076
v 0.222995 -0.074509 0.080465
v 0.222771 -0.07468 0.078092
v 0.222832 0.074619 0.080487
v -0.0365 -0.086215 0.077972
v 0.0365 0.086146 0.077688
v -0.202176 0.086622 0.073835
v 0.223073 -0.074 0.077092
v -0.0465473 -0.085723 0.0760178
v 0.0365075 -0.086454 0.076036
v 0.130142 0.0873819 0.0794766
v 0.215744 0.086803 0.0741325
v -0.0460391 -0.0907137 0.0799735
v -0.046473 0.088942 0.080323
v -0.036611 -0.089474 0.080174
v -0.036516 0.088699 0.080299
v 0.0358038 -0.08487 0.0807133
v 0.036584 0.089186 0.080222
v 0.202237 -0.089745 0.080071
v -0.205048 -0.092771 0.079023
v -0.209929 -0.0906245 0.0759645
v -0.213139 0.090955 0.0798677
v -0.205525 0.092864 0.078971
v 0.126483 -0.092907 0.078943
v 0.125403 0.093083 0.078854
v 0.205095 -0.09283 0.078996
v 0.204888 0.092684 0.079054
v 0.202279 0.089829 0.080059
v -0.125416 -0.093152 0.078825
v -0.04199 -0.093025 0.078881
v -0.04046 -0.0926385 0.076167
v 0.041017 -0.093025 0.078881
v 0.20696 0.092335 0.0763255
v -0.040187 0.092894 0.078954
v 0.0473663 0.0867593 0.0809298
v 0.0409 0.093027 0.07888
v -0.038981 -0.092396 0.079179
v 0.0469068 -0.0877149 0.080661
v 0.122141 0.092649 0.079055
v -0.044025 0.09254 0.079125
v -0.040125 0.092623 0.0761625
v 0.0434305 0.0891165 0.0761425
v -0.202369 -0.090057 0.080001
v -0.118727 0.0891137 0.0803027
v -0.126388 0.092875 0.078956
v -0.128289 0.091864 0.076577
v 0.129485 0.0887868 0.0747987
v -0.120272 -0.091605 0.079533
v 0.038081 -0.091778 0.079436
v 0.11909 -0.0867 0.073969
v 0.202721 -0.089216 0.075466
v 0.038191 0.091825 0.079421
v 0.127973 0.092048 0.079324
v -0.122527 0.092865 0.078974
v -0.119151 0.086728 0.073953
v -0.129289 -0.090814 0.079788
v 0.118634 0.0872968 0.080643
v -0.129849 -0.086779 0.072866
v 0.129174 -0.090855 0.079751
v 0.21309 -0.0905195 0.0799907
v 0.118813 -0.0903393 0.0800588
v -0.037565 0.091207 0.079658
v -0.212479 0.095938 0.077009
v 0.215076 0.094503 0.078007
v 0.21244 0.095929 0.076988
v 0.22278 0.074663 0.078092
v -0.215712 -0.0855655 0.079296
v -0.129606 -0.08601 0.0805
v 0.202371 -0.084612 0.078092
v 0.212688 -0.0856141 0.0791396
v -0.215223 0.094361 0.078114
v 0.215121 -0.094439 0.07806
v -0.215077 -0.09451 0.078045
v -0.202754 -0.075071 0.078092
v -0.222588 -0.074789 0.0805
v -0.202686 0.075102 0.080501
v -0.213289 -0.0884621 0.0806119
v -0.212631 0.085684 0.0787895
v -0.202542 -0.0759307 0.080529
v -0.202448 -0.083327 0.0805
v -0.202274 -0.083226 0.078092
v -0.202225 -0.076883 0.078092
v -0.201795 0.0867524 0.0806684
v -0.202183 0.076854 0.0805
v -0.202416 0.075998 0.078092
v -0.129557 -0.08331 0.078092
v -0.129689 0.084868 0.0792405
v 0.202221 0.076885 0.078092
v -0.129573 -0.083327 0.0805
v -0.119464 -0.083367 0.0805
v -0.119259 -0.083203 0.078092
v -0.119394 0.084819 0.079164
v -0.046709 -0.083213 0.0805
v -0.046563 0.0855772 0.07909
v -0.036296 -0.083219 0.078092
v -0.036261 -0.083194 0.0805
v -0.0364395 0.0857035 0.0766528
v 0.036261 -0.083206 0.078092
v 0.036316 0.083225 0.080506
v 0.202254 -0.076823 0.0805
v 0.20247 0.0759656 0.0805197
v 0.04671 -0.083226 0.078092
v 0.119421 -0.083314 0.0805
v 0.119244 0.083198 0.078092
v 0.202554 -0.075923 0.078092
v 0.129534 -0.083369 0.0805
v 0.129741 -0.083203 0.078092
v 0.129738 0.083196 0.0805
v 0.202267 -0.083204 0.0805
v 0.202309 0.0847545 0.07801
v 0.202303 0.0845093 0.0805462
v 0.202758 -0.075061 0.080501
v 0.202763 0.075059 0.078092
v 0.213245 0.088988 0.0805012
v 0.218267 -0.085218 0.0805
v 0.218796 0.085581 0.08045
v 0.216457 -0.092799 0.078953
v -0.218751 0.086266 0.080449
v 0.217303 0.0904465 0.079704
v 0.222889 -0.071143 0.080434
v 0.220245 -0.07 0.080408
v -0.222566 -0.071044 0.080457
v -0.220245 0.07 0.080408
v 0.220244 0.07 0.080408
v 0.265206 -0.054071 -0.087318
v 0.266385 0.056369 -0.087554
v 0.266435 0.0555895 -0.0882985
v 0.265986 0.057199 -0.087864
v 0.266116 -0.055229 -0.086889
v 0.266376 -0.0563195 -0.0878135
v 0.266034 -0.0543285 -0.0830965
v 0.329365 -0.062458 -0.086065
v 0.255901 0.052636 -0.068868
v 0.238 0.052044 -0.085627
v 0.260216 -0.0511945 -0.0688675
v 0.329218 -0.051882 -0.086167
v 0.253182 -0.052629 -0.06888
v 0.255868 -0.052634 -0.068875
v 0.333176 0.071736 -0.0818514
v 0.331574 -0.066826 -0.085631
v 0.32638 -0.069421 -0.084923
v 0.238 -0.052629 -0.068873
v 0.329336 0.0572675 -0.0860885
v 0.254906 0.06484 -0.077872
v 0.349861 -0.0721885 -0.082642
v 0.330525 0.073011 -0.083451
v 0.351094 -0.077174 -0.079387
v 0.350049 0.072771 -0.082213
v 0.337953 -0.077659 -0.078916
v 0.247697 0.072054 -0.07203
v 0.353098 -0.079861 -0.074103
v 0.340164 0.078975 -0.076897
v 0.353629 0.080136 -0.072736
v -0.263432 0.054502 -0.065012
v -0.275958 0.054121 -0.0684515
v -0.281359 -0.033621 -0.056983
v -0.268002 -0.0601327 -0.0679627
v -0.28125 0.033679 -0.056999
v -0.272455 0.050917 -0.065822
v -0.306275 -0.033468 -0.057038
v -0.361127 -0.046551 -0.067014
v -0.360744 -0.0474603 -0.06406
v -0.339073 -0.042068 -0.061014
v -0.347987 -0.0376804 -0.058883
v -0.244968 -0.0521628 -0.0569698
v -0.336361 0.050833 -0.064993
v -0.346877 0.037579 -0.05884
v -0.350368 -0.0490325 -0.063769
v -0.353315 -0.045819 -0.063282
v -0.264312 -0.0360561 -0.0564633
v -0.255604 0.0557888 -0.062215
v -0.340919 0.033062 -0.056939
v -0.23773 -0.088487 -0.056977
v -0.341064 -0.0364934 -0.058514
v -0.341207 -0.037011 -0.058727
v -0.341326 0.037028 -0.058744
v -0.349988 -0.0302135 -0.0589185
v -0.350067 0.0329685 -0.0589135
v -0.34931 -0.036828 -0.058879
v -0.341198 -0.0332735 -0.058667
v -0.341017 0.036616 -0.058556
v -0.316111 -0.0197855 -0.0672345
v -0.257244 0.018053 -0.057006
v -0.237519 -0.100133 -0.048153
v -0.237996 0.092591 -0.056
v -0.238211 0.108212 -0.0302532
v -0.238 0.0946405 -0.0205703
v -0.237941 -0.10829 -0.0290745
v -0.410081 0.058969 -0.039549
v -0.418468 -0.058963 0.001125
v -0.420894 0.056954 0.01319
v -0.418468 -0.061958 0.001125
v -0.237998 0.101647 0.010152
v -0.420893 -0.056948 0.013184
v -0.425732 0.056831 0.027405
v -0.237988 -0.097914 0.020349
v -0.023259 -0.108357 0.0238105
v 0.228343 0.107402 0.023811
v 0.233391 0.108163 0.023811
v 0.2361 -0.105794 0.0238102
v 0.238017 0.105821 0.023811
v -0.0428325 -0.11446 0.0394305
v -0.056378 -0.105818 0.043923
v -0.073249 -0.104222 0.051032
v 0.37227 -0.080109 0.061573
v 0.372786 -0.080109 0.066512
v 0.370229 -0.078025 0.068721
v 0.371044 -0.0786745 0.0639285
v 0.367436 -0.075361 0.067757
v 0.369136 -0.0769987 0.0658693
v 0.371722 0.074093 0.067443
v 0.365166 -0.072694 0.071931
v 0.362137 -0.069912 0.070327
v 0.371475 -0.0646791 0.072151
v 0.35896 -0.06 0.070829
v 0.371589 0.06 0.068946
v 0.247691 -0.0430101 0.0804186
v 0.251249 0.0314137 0.0803982
v 0.25402 -0.0318186 0.0803994
v 0.252706 0.0447373 0.0803957
v 0.334897 0.0271836 0.0789041
v 0.33462 -0.0272071 0.0789627
v 0.330567 0.0370578 0.0796833
v 0.342487 -0.032434 0.078347
v 0.342738 0.0339067 0.0773204
v 0.358955 -0.050199 0.071381
v 0.349213 -0.053576 0.072051
v 0.35896 0.06 0.070829
v 0.349689 -0.0566479 0.0744151
v 0.349481 0.055028 0.072067
v 0.349217 -0.051945 0.072101
v 0.349209 0.0532535 0.0720838
v 0.349304 -0.052295 0.074658
v 0.368227 0.0499936 0.0756015
v 0.376679 0.057465 0.0732515
v 0.349344 0.05354 0.0743925
v 0.375786 -0.0549835 0.073353
v 0.301426 0.0639923 0.0774869
v 0.33021 0.063952 0.077694
v 0.341899 -0.063246 0.077349
v 0.345531 0.063458 0.077075
v 0.362273 -0.0554564 0.0763963
v 0.329049 0.0628038 0.0787284
v 0.265417 0.0661632 0.0784359
v 0.243539 -0.076854 0.07741
v 0.239476 -0.070369 0.080207
v 0.296224 -0.063122 0.079364
v 0.277967 0.063799 0.079455
v 0.252573 0.0730549 0.0784514
v 0.27693 -0.063879 0.079421
v 0.316734 -0.063432 0.078888
v 0.256367 -0.0695207 0.0793133
v 0.269131 -0.0666719 0.0786749
v 0.252722 0.072056 0.079381
v 0.291893 -0.063338 0.079383
v -0.231338 -0.091542 0.079428
v 0.330709 -0.0372069 0.0797013
v 0.239511 0.070419 0.080189
v 0.257741 -0.0402714 0.0807084
v 0.245936 -0.0762065 0.078294
v 0.231902 -0.063464 0.080397
v 0.221936 -0.0138399 0.0803535
v -0.256287 0.037616 0.080428
v -0.255786 -0.037518 0.080428
v -0.281354 -0.037607 0.080346
v -0.037544 -0.031653 0.080412
v -0.033348 0.037422 0.080402
v -0.006943 0.037452 0.080407
v -0.284612 -0.0375155 0.080354
v -0.286301 0.0358075 0.0803353
v -0.286931 -0.0368824 0.0902858
v -0.287259 0.0380928 0.088242
v -0.251855 -0.0355175 0.0804085
v -0.251596 -0.0388087 0.0882525
v -0.254468 0.0387075 0.0804045
v -0.0366255 -0.0367835 0.080418
v -0.036725 0.0377719 0.0908727
v -0.036692 0.0367475 0.0804175
v -0.0377372 -0.0367659 0.0905806
v -0.0027875 -0.0354965 0.080408
v -0.00162874 0.0377867 0.0882814
v -0.005393 0.0386845 0.080408
v -0.269948 -0.02209 0.091875
v -0.269119 -0.0246575 0.08275
v -0.270057 0.0244375 0.0918855
v -0.0199747 -0.0237088 0.08275
v -0.019087 0.025002 0.08275
v -0.0183059 -0.0226811 0.0922496
v -0.0198708 0.0229005 0.08275
v -0.0215748 0.0230277 0.0920883
v -0.018462 -0.023834 0.08275
v -0.279327 0.030514 0.093683
v -0.258652 -0.030597 0.093657
v -0.251352 0.0368628 0.0908156
v -0.00317057 -0.03798 0.0905609
v -0.009669 0.030577 0.093668
v -0.267263 -0.0221615 0.091827
v -0.271873 0.024655 0.09196
v -0.269157 -0.0262227 0.0922579
v -0.271488 -0.0213673 0.0928256
v -0.268858 0.0202096 0.0932613
v -0.27153 0.025042 0.0935755
v -0.267867 -0.020647 0.09196
v -0.268639 0.0207447 0.0918991
v -0.266747 0.025652 0.0926575
v -0.268405 -0.022836 0.0936425
v -0.023243 -0.0219694 0.0926884
v -0.0223435 -0.0252632 0.0936052
v -0.0187109 0.0268402 0.092477
v -0.0180859 0.0207172 0.0932097
v -0.0188349 -0.0266033 0.0927168
v -0.0175638 0.0246392 0.093582
v 0.253297 -0.0340539 -0.097402
v 0.253013 -0.042956 -0.09733
v 0.259343 -0.029994 -0.097603
v 0.25279 -0.032891 -0.069865
v 0.246488 -0.032035 -0.097184
v 0.251063 -0.033714 -0.097334
v 0.247841 -0.030946 -0.051952
v 0.233136 -0.0411005 -0.096692
v 0.243232 -0.026108 -0.09708
v 0.238014 -0.05973 -0.054988
v 0.328886 -0.0522186 -0.066885
v 0.216054 -0.056564 -0.085557
v 0.215813 -0.070347 -0.073989
v 0.189693 -0.056873 -0.085529
v 0.215998 -0.064104 -0.083324
v 0.238 -0.049628 -0.068873
v 0.352673 0.0759452 -0.0754163
v 0.251014 0.035934 -0.055141
v -0.31809 -0.021315 -0.062001
v 0.242424 -0.056507 -0.081897
v 0.26209 -0.057145 -0.081665
v -0.318287 0.017523 -0.05703
v -0.325271 0.02827 -0.067558
v -0.326228 0.035929 -0.067405
v -0.325289 0.031267 -0.067908
v -0.325047 0.035663 -0.082653
v -0.331515 0.02689 -0.082442
v -0.334797 0.021066 -0.082336
v 0.26607 0.0549255 -0.0828725
v 0.262153 0.053053 -0.076879
v 0.266728 0.053255 -0.080819
v 0.237842 -0.052473 -0.083644
v 0.247566 -0.034974 -0.055071
v 0.251594 -0.03253 -0.05196
v 0.251254 -0.033396 -0.0747
v 0.248791 -0.032488 -0.07435
v 0.370391 -0.08 -0.02853
v 0.370391 0.08 -0.02853
v -0.337259 0.020728 -0.067651
v 0.332608 -0.0683822 -0.0682556
v 0.251767 0.0513753 -0.069127
v 0.252418 0.0568392 -0.0701161
v 0.252614 -0.048079 -0.0692832
v -0.314515 0.018219 -0.060067
v 0.255797 0.0619755 -0.077182
v 0.272944 -0.049427 -0.06888
v 0.262232 -0.048657 -0.06888
v 0.259275 0.049699 -0.068868
v 0.329655 -0.0326459 -0.0506535
v 0.331429 0.033237 -0.052043
v 0.238006 -0.0596115 -0.0559287
v 0.251121 -0.044497 -0.056004
v 0.251166 0.0418086 -0.0557974
v 0.253365 -0.041989 -0.056
v -0.336291 0.025151 -0.068
v -0.314843 -0.02184 -0.068
v -0.314867 0.021857 -0.068
v -0.317575 0.0225787 -0.067693
v -0.263591 -0.025321 -0.068
v -0.263604 0.025337 -0.068
v -0.317746 0.019952 -0.067943
v -0.317309 -0.0250195 -0.066036
v -0.333272 0.024456 -0.067471
v -0.334348 0.020702 -0.067601
v -0.329583 0.027602 -0.06751
v -0.332052 0.02536 -0.057327
v -0.321104 0.026859 -0.067475
v -0.324448 0.027984 -0.057274
v 0.333853 -0.0657796 -0.0638444
v 0.238841 0.069844 -0.059378
v -0.262043 -0.018697 -0.060103
v -0.33338 -0.017172 -0.056004
v -0.337526 0.018011 -0.060052
v -0.349494 0.074114 -0.064246
v -0.360648 -0.0379785 -0.0573025
v -0.360654 -0.0731443 -0.063729
v -0.3445 0.016938 -0.055501
v -0.31453 -0.018224 -0.060085
v 0.332049 0.0633434 -0.0632198
v 0.375066 0.019343 -0.055388
v 0.277528 0.034363 -0.0524836
v 0.267718 0.035837 -0.0520625
v -0.314359 0.019393 -0.060176
v -0.357083 0.0508245 -0.064501
v -0.360645 0.045761 -0.05742
v 0.356247 -0.0701668 -0.0653363
v 0.238952 -0.072467 -0.06076
v -0.318669 -0.017284 -0.056002
v 0.238424 0.076666 -0.062193
v 0.235227 -0.087058 -0.05596
v 0.235103 -0.067458 -0.056
v 0.235226 -0.080123 -0.062924
v -0.360649 0.0752289 -0.0633692
v 0.265493 -0.036353 -0.055895
v 0.265605 0.036282 -0.055915
v 0.330831 0.0502669 -0.0651715
v 0.370391 -0.06 -0.02853
v -0.353487 -0.07589 -0.061895
v 0.354975 -0.0584793 -0.0599526
v 0.336798 -0.039334 -0.06174
v 0.346121 0.0342363 -0.057492
v 0.358595 0.0599495 -0.0605925
v 0.35896 -0.06 -0.045565
v 0.35777 -0.0352047 -0.0419156
v 0.35896 0.06 -0.045565
v -0.339407 0.018638 -0.060075
v -0.33885 0.019114 -0.060031
v 0.35896 0.044598 -0.045565
v 0.35896 0.03706 -0.034848
v -0.339558 0.018633 -0.060095
v 0.335166 0.0332 -0.053947
v 0.336865 -0.033042 -0.055985
v 0.337578 0.036277 -0.061598
v -0.360647 0.083097 -0.053659
v 0.237318 -0.069143 -0.055853
v -0.314387 -0.019374 -0.060165
v -0.339552 0.018412 -0.060005
v 0.237996 -0.092924 -0.056
v 0.238 -0.095 -0.053678
v -0.344665 -0.0297975 -0.056664
v 0.342546 -0.0322715 -0.048621
v 0.346154 -0.0345605 -0.058194
v 0.343101 -0.0336 -0.0508282
v -0.344472 -0.033887 -0.056513
v -0.344496 -0.037279 -0.057206
v -0.3445 0.037281 -0.057501
v -0.344522 0.033305 -0.0563665
v -0.3445 0.037281 -0.056615
v -0.3511 0.026002 -0.044112
v -0.347846 0.030963 -0.0561965
v -0.262313 0.0157147 -0.0464122
v 0.3496 -0.023009 -0.043554
v -0.264903 0.017073 -0.052903
v -0.238018 -0.088191 -0.055999
v -0.336945 -0.032903 -0.054967
v -0.3409 -0.032855 -0.056931
v -0.320603 -0.015779 -0.049305
v -0.340822 0.032929 -0.055
v -0.276527 0.033782 -0.054958
v -0.279296 0.033822 -0.057192
v -0.285288 0.016892 -0.052905
v -0.23807 0.075209 -0.054806
v 0.3496 0.032385 -0.050516
v -0.334829 -0.029746 -0.056004
v -0.348 -0.026052 -0.057313
v -0.33469 -0.026804 -0.057021
v -0.360649 0.034238 -0.056264
v 0.343075 0.0334408 -0.0509209
v -0.360649 -0.077 -0.046147
v -0.360649 0.0351375 -0.0523015
v -0.344549 -0.032643 -0.050808
v 0.272938 -0.034334 -0.0521344
v 0.279633 0.033764 -0.052086
v 0.261954 -0.039136 -0.053461
v -0.360664 -0.0348222 -0.0533809
v -0.279298 0.033688 -0.0548
v 0.188 -0.067458 -0.056
v 0.24263 0.0518899 -0.0554216
v 0.24857 -0.0454085 -0.0559525
v 0.250251 -0.044881 -0.055671
v 0.260122 0.0369687 -0.0555055
v -0.3511 -0.0325 -0.050631
v -0.3511 -0.0325 -0.056
v -0.348 0.0324815 -0.0528675
v -0.344576 -0.016647 -0.054188
v -0.331344 0.015811 -0.049877
v -0.331713 0.017142 -0.055906
v -0.258715 0.038431 -0.056
v -0.253746 0.039363 -0.055883
v -0.254158 0.041344 -0.056
v -0.252214 0.017826 -0.052894
v -0.248686 0.017957 -0.056014
v 0.238 -0.095 -0.056
v 0.235461 -0.095013 -0.055965
v 0.238027 -0.087508 -0.054043
v 0.238428 -0.063704 -0.056014
v 0.239806 0.055895 -0.055898
v 0.238 0.095 -0.053678
v 0.242422 -0.0509815 -0.0554931
v 0.268612 0.032324 -0.055828
v 0.336835 0.033041 -0.047587
v -0.316601 0.0169687 -0.0544277
v 0.251066 0.041216 -0.055048
v -0.360649 0.019507 -0.056035
v -0.3445 0.019603 -0.055553
v -0.328898 -0.025518 -0.0559215
v -0.327127 -0.026399 -0.052667
v -0.325245 -0.02647 -0.052954
v -0.326701 -0.026467 -0.05297
v -0.320662 0.015836 -0.049567
v 0.238283 0.0616895 -0.0554975
v 0.251098 -0.041237 -0.055066
v 0.253452 0.039342 -0.055018
v -0.336956 0.032899 -0.055
v -0.336733 0.032984 -0.047266
v -0.276267 -0.033766 -0.047432
v -0.269966 0.0345362 -0.0474397
v -0.265995 -0.0357498 -0.0476171
v -0.256864 0.0404691 -0.049536
v -0.26068 0.0393887 -0.055
v -0.250172 0.046113 -0.055
v -0.244732 0.0521769 -0.0513124
v -0.24666 -0.0495051 -0.0501913
v -0.239096 0.0641467 -0.0494316
v -0.240694 0.061294 -0.054998
v -0.238379 -0.0710445 -0.0557414
v -0.237982 0.077309 -0.048043
v -0.237986 0.0841807 -0.0541145
v 0.244281 0.032591 -0.055133
v 0.242276 0.029625 -0.055151
v 0.246778 0.034633 -0.055094
v 0.238 -0.11015 0.004063
v 0.238009 -0.105676 -0.0392113
v 0.237924 -0.0788855 -0.0152153
v 0.237973 -0.105759 0.004081
v 0.238006 0.10562 -0.0392949
v 0.238008 0.110051 0.00408898
v 0.238 0.095028 -0.025601
v 0.420318 -0.023496 0.041645
v -0.3511 -0.014042 -0.042713
v -0.348 0.016574 -0.054
v -0.346163 0.016562 -0.053871
v 0.262448 -0.038274 -0.052753
v -0.3511 0.014481 -0.044692
v -0.3511 -0.022253 -0.045804
v -0.3511 0.017985 -0.048533
v 0.34959 -0.013846 -0.041409
v 0.336732 -0.033158 -0.048409
v 0.350597 0.013668 -0.041695
v -0.337214 -0.032508 -0.049121
v 0.232378 0.103009 -0.043132
v 0.237993 -0.0882585 -0.0422105
v 0.237985 -0.0883023 -0.0527902
v -0.237989 -0.0853633 -0.0404999
v -0.237992 0.088229 -0.041997
v 0.35896 0.013748 -0.045565
v 0.351704 0.013751 -0.053789
v -0.237996 0.085326 -0.040289
v -0.305577 0.030517 -0.052867
v -0.307642 0.03037 -0.052948
v -0.269704 0.03178 -0.050331
v 0.237967 -0.076838 -0.047609
v -0.327108 -0.026617 -0.047192
v -0.314697 -0.015432 -0.04751
v -0.307859 0.030328 -0.052601
v -0.31227 0.01559 -0.048123
v -0.247694 0.015482 -0.044064
v -0.237867 0.025815 -0.046147
v -0.245215 0.015237 -0.043834
v -0.244169 0.017267 -0.052939
v -0.344497 -0.0352598 -0.0515271
v 0.420196 0.015561 0.04139
v 0.275976 0.033978 -0.052109
v 0.244699 -0.0540205 -0.0520692
v 0.238051 0.071693 -0.0495891
v 0.270956 0.0337967 -0.0455946
v 0.23932 0.0674935 -0.0522175
v 0.238821 -0.0662347 -0.0503452
v -0.344535 0.0340397 -0.0508338
v 0.253285 0.0428869 -0.050256
v -0.34451 0.037068 -0.041992
v 0.252468 -0.0435004 -0.05014
v 0.263004 -0.037646 -0.052548
v 0.247892 0.0490035 -0.052075
v 0.24358 0.0526627 -0.0495537
v 0.238791 -0.0602124 -0.0488058
v -0.358317 -0.0369091 -0.0449121
v -0.344423 -0.036642 -0.04108
v -0.331874 -0.0158175 -0.044799
v -0.33138 -0.015814 -0.049895
v -0.351099 0.0331983 -0.0506507
v -0.357007 0.0338685 -0.0421616
v 0.349349 0.0359595 -0.0562243
v -0.3511 -0.0342175 -0.048727
v -0.3511 0.0328855 -0.0472515
v 0.3496 0.033703 -0.046872
v 0.239267 0.0632322 -0.049631
v 0.337191 0.032482 -0.04947
v -0.33674 -0.0331087 -0.0480101
v -0.237995 -0.0824169 -0.0347864
v -0.336959 -0.032415 -0.046541
v -0.245585 0.0482054 -0.0495762
v -0.2567 -0.0396643 -0.0467937
v -0.238029 0.070968 -0.048304
v 0.23826 0.0546777 -0.0480344
v -0.24067 0.0510728 -0.0480951
v -0.23848 -0.0605964 -0.0484762
v 0.349272 -0.0360784 -0.0560262
v -0.348 0.030605 -0.045705
v -0.360648 0.083291 0.05804
v -0.360649 0.077 0.0667569
v -0.251278 0.0160441 -0.0485092
v 0.349599 -0.0330415 -0.0487265
v -0.238083 0.062979 -0.048266
v -0.238068 0.064134 -0.048271
v -0.238081 0.061825 -0.048232
v -0.238052 0.048818 -0.047766
v 0.238595 -0.0558865 -0.0484606
v 0.238055 0.048524 -0.04773
v 0.237974 0.07712 -0.038751
v -0.237944 -0.0683477 -0.0410699
v -0.238295 -0.0558234 -0.0485193
v 0.237992 0.074633 -0.038715
v -0.31995 -0.015532 -0.044646
v -0.320537 -0.016171 -0.044797
v 0.23803 0.0703435 -0.048283
v 0.33692 -0.032669 -0.046857
v 0.237954 -0.0770581 -0.0411419
v 0.260415 -0.0370398 -0.0469366
v 0.355062 0.033669 -0.046456
v -0.344548 0.0333785 -0.0463092
v -0.332602 -0.021314 -0.045999
v -0.311925 -0.015569 -0.044554
v -0.300519 -0.030448 -0.047741
v -0.293794 -0.015881 -0.044435
v -0.276941 -0.032823 -0.045551
v -0.314687 0.015444 -0.047567
v 0.238139 -0.014683 -0.040382
v -0.344609 -0.029835 -0.0454155
v -0.238113 -0.014683 -0.040376
v 0.238111 0.014693 -0.040385
v 0.343147 0.0297894 -0.0437279
v 0.343134 -0.0304805 -0.0444844
v -0.237978 0.083654 -0.038433
v -0.237982 0.077042 -0.039133
v -0.237978 -0.083967 -0.038944
v -0.237269 0.100324 -0.0469362
v -0.235154 -0.106413 -0.032721
v 0.3431 0.032711 -0.0472175
v -0.337268 0.032029 -0.0471482
v -0.26983 -0.032916 -0.044941
v -0.267521 0.03166 -0.044525
v -0.237938 0.014727 -0.02967
v 0.356571 -0.033931 -0.044068
v -0.276596 0.032612 -0.045386
v 0.276581 -0.032614 -0.045387
v -0.268836 0.033685 -0.045415
v -0.336783 0.031121 -0.045149
v 0.259565 0.0372169 -0.0464334
v 0.336748 -0.03121 -0.045196
v -0.360649 -0.077 0.00164
v -0.357649 -0.077 -0.04573
v -0.357649 0.077 -0.04573
v -0.357685 0.033562 -0.0457245
v -0.357671 -0.034045 -0.045729
v -0.357645 0.020182 -0.044757
v -0.336766 -0.031093 -0.04516
v -0.357649 -0.077 0.067221
v -0.357641 -0.0441535 -0.0407724
v -0.357649 -0.0383175 0.0564887
v -0.357664 0.0759797 0.0681537
v -0.357649 0.044139 -0.040311
v -0.357649 0.036794 -0.04573
v -0.35633 -0.0347795 -0.040369
v 0.270957 -0.031399 -0.044498
v 0.372799 0.06 0.055152
v 0.35896 0.044992 0.07
v -0.33481 -0.019352 -0.045504
v 0.336962 0.030362 -0.0452257
v -0.25341 0.015596 -0.04408
v -0.357642 -0.029071 -0.042307
v -0.336965 -0.0292775 -0.0446787
v 0.336962 -0.028098 -0.044334
v 0.356505 0.032999 -0.045123
v 0.356492 -0.032859 -0.045052
v -0.337078 0.0261955 -0.044217
v -0.348 0.02205 -0.045316
v 0.337162 -0.022104 -0.045055
v 0.340172 0.024144 -0.044505
v 0.336693 -0.029824 -0.044745
v 0.337111 -0.021166 -0.042828
v 0.336985 0.021362 -0.042921
v 0.340091 -0.0262875 -0.0439655
v -0.342496 -0.021228 -0.0429285
v 0.35649 0.028842 -0.042227
v -0.336987 0.021378 -0.042931
v -0.349255 0.0151468 -0.0415887
v 0.340121 -0.0315015 -0.0463375
v -0.344588 0.027974 -0.0444765
v -0.336933 -0.026466 -0.044029
v 0.33689 0.026009 -0.043953
v -0.337172 -0.028156 -0.045232
v 0.346354 -0.0262055 -0.042151
v 0.3496 0.026086 -0.042139
v -0.336944 0.025888 -0.043978
v -0.346773 -0.0263718 -0.0418798
v -0.350299 0.0251913 -0.0421326
v 0.356824 -0.03347 -0.043327
v 0.343102 0.026293 -0.042265
v 0.336686 -0.025434 -0.043764
v 0.356491 -0.028979 -0.042269
v -0.336902 0.025972 -0.043952
v -0.336935 0.026067 -0.043979
v 0.357031 -0.033817 -0.043195
v 0.356882 -0.033737 -0.043457
v -0.237921 -0.0694989 -0.0252825
v 0.357856 0.0320497 -0.0412387
v -0.237775 -0.0344447 -0.0208673
v -0.334114 0.013853 -0.041086
v -0.237923 0.0512392 -0.0277368
v -0.357645 -0.0136991 -0.0411564
v -0.357649 0.013959 -0.042603
v -0.357649 0.013473 -0.040414
v 0.356183 0.026294 -0.041912
v -0.357594 -4.32224e-06 0.0389271
v -0.357649 -0.020532 0.043028
v -0.357668 0.012872 0.040708
v -0.357649 0.020532 0.045142
v 0.356194 -0.026283 -0.041911
v -0.344453 0.0364492 -0.0407663
v 0.349793 -0.0165414 -0.0399181
v -0.237945 0.0761035 -0.0198591
v -0.237979 0.082482 -0.035431
v -0.237932 -0.032444 -0.036988
v 0.237886 0.0372612 -0.0219435
v -0.333608 -0.0135502 -0.0399073
v 0.332908 -0.013912 -0.0408213
v -0.238447 0.014511 -0.040245
v 0.3503 0.001127 -0.04103
v 0.349596 0.013816 -0.041375
v 0.3496 0.00123 -0.039939
v -0.227917 -0.052072 -0.041035
v -0.227915 0.050861 -0.0403015
v -0.202917 -0.0497093 -0.0415155
v -0.203 0.094967 -0.010029
v -0.202938 0.0604259 -0.0415154
v 0.202939 -0.0604259 -0.0415154
v 0.227915 -0.050861 -0.0403015
v 0.202967 0.078138 -0.034063
v 0.202929 0.058016 -0.041035
v 0.238016 -0.076997 -0.037972
v 0.356701 -0.0227175 -0.0409075
v 0.358992 -0.0193859 -0.0399314
v 0.357515 -0.0274161 -0.0398074
v -0.343096 0.011121 -0.039323
v -0.238253 0.014741 -0.0403735
v -0.202875 0.0352706 -0.0362568
v 0.202872 -0.0313628 -0.0344
v -0.238 0.084684 -0.039529
v 0.347995 0.013673 -0.04115
v -0.347998 -0.012428 -0.040236
v -0.238003 -0.077561 -0.036938
v -0.238119 -0.007086 -0.005456
v -0.293432 -0.0101706 -0.0250325
v -0.238121 0.007098 -0.005606
v 0.238098 -0.008562 -0.013479
v 0.238063 0.007119 -0.005374
v 0.311164 0.0140005 -0.0385635
v -0.237942 -0.017273 -0.028418
v -0.237924 -0.01995 -0.027536
v 0.237924 -0.02396 -0.030262
v 0.237879 0.0137492 -0.0218626
v 0.237988 0.015472 -0.029648
v 0.349598 0.012228 -0.038034
v -0.344003 -0.010714 -0.039387
v 0.33111 0.0114711 -0.0380315
v -0.34715 -0.012643 -0.039658
v -0.328268 0.0130505 -0.0385243
v -0.332762 -0.010152 -0.037918
v -0.238 -0.083667 -0.037938
v -0.327918 0.0106775 -0.037002
v -0.237988 -0.082585 -0.035434
v -0.238021 0.078031 -0.03689
v 0.237966 -0.0773382 -0.0385759
v -0.237973 -0.077135 -0.038974
v -0.237999 0.076969 -0.038988
v 0.358284 0.0200586 -0.0405388
v -0.227887 -0.036473 -0.036295
v -0.227866 0.0259285 -0.0281995
v -0.202977 0.0856631 -0.028306
v -0.202845 -0.0144777 -0.00917967
v -0.202863 -0.0270298 -0.0304854
v 0.202889 0.0367829 -0.0374797
v 0.227887 0.036473 -0.036295
v 0.22786 -0.0223617 -0.0233233
v 0.237952 0.0785439 -0.0376079
v 0.237881 -0.0522165 -0.0293025
v -0.324536 -0.009301 -0.036285
v 0.23798 0.0818791 -0.0354387
v 0.237979 -0.0820073 -0.0353926
v 0.231651 -0.104922 -0.039333
v 0.227903 0.109818 0.004145
v 0.237959 0.027011 -0.032966
v 0.293789 -0.0110488 -0.0271606
v -0.315832 0.00969 -0.033996
v 0.318587 -0.00990356 -0.0354144
v -0.316477 -0.009946 -0.03423
v -0.320395 0.003985 -0.035099
v -0.313523 0.012643 -0.033281
v 0.203 0.0956452 -0.0132479
v -0.238 -0.02011 -0.0273055
v -0.237939 0.0324225 -0.0376086
v 0.359038 0.0115516 0.0390159
v 0.35911 -0.0115809 0.0388978
v 0.356042 0.017663 0.041576
v 0.357202 0.0258025 0.0466401
v 0.303797 0.00959511 -0.0300191
v 0.23795 0.021517 -0.027419
v 0.237941 0.0199435 -0.02757
v -0.202959 -0.0736145 -0.036295
v -0.227973 0.0809575 -0.0302065
v -0.20285 0.0180642 -0.0192295
v 0.202978 -0.0856631 -0.028306
v 0.227973 -0.0809575 -0.0302065
v 0.227989 0.089083 -0.02307
v -0.23793 0.019965 -0.027539
v -0.237878 0.0326388 -0.017253
v 0.237914 -0.015653 -0.018692
v 0.290735 -0.00780648 -0.022153
v -0.237951 -0.0149808 -0.0296357
v 0.237911 0.014737 -0.0295875
v -0.237566 0.0146423 -0.0220441
v 0.237945 -0.014378 -0.0248225
v 0.237946 -0.0160455 -0.0202075
v -0.297331 0.007465 -0.0258145
v -0.301774 -0.008134 -0.028456
v -0.237929 -0.0147382 -0.0200415
v 0.237898 0.015285 -0.019975
v 0.237854 -0.019399 -0.027792
v -0.227926 -0.0567675 -0.0267615
v -0.227922 0.0543675 -0.026996
v 0.22791 -0.048293 -0.026762
v 0.227933 -0.060442 -0.02723
v 0.227919 0.0533505 -0.0269915
v 0.237992 0.020047 -0.027088
v 0.237983 0.019927 -0.026911
v 0.237982 0.017363 -0.021318
v -0.227874 0.0294285 -0.0086205
v 0.202847 -0.0153253 -0.0123454
v 0.202855 0.0188525 -0.0201543
v 0.237933 0.0660749 -0.0270886
v -0.234661 0.107917 -0.026086
v -0.233888 -0.109876 -0.004763
v -0.227893 0.039545 -0.022847
v -0.227949 0.068769 -0.023816
v -0.227885 -0.0355075 -0.0189145
v 0.227889 -0.037646 -0.021657
v 0.227875 0.030215 -0.0111005
v 0.227957 -0.072723 -0.020595
v 0.227956 0.072393 -0.021657
v -0.29301 -0.0070818 -0.0233626
v -0.286705 -0.00833582 -0.0194413
v -0.237979 -0.014707 -0.015963
v -0.237997 -0.015875 -0.020256
v -0.22796 -0.074226 -0.019813
v -0.22797 0.079229 -0.0120505
v -0.237996 0.015624 -0.0199475
v 0.286268 0.0071562 -0.0180771
v 0.238002 -0.088779 0.023235
v -0.238009 -0.0835105 0.00665649
v 0.23798 0.0279421 -0.00657638
v -0.28404 0.005039 -0.01519
v -0.237991 0.014319 -0.020136
v -0.238 0.014087 -0.02037
v -0.227846 0.015207 -0.00045325
v 0.203003 -0.0961691 -0.00563723
v 0.228001 0.095431 -0.0029035
v -0.238 0.014153 -0.020218
v -0.237991 -0.015657 -0.020035
v -0.237991 -0.015408 -0.019866
v 0.237978 0.015794 -0.020298
v 0.237991 -0.014319 -0.020136
v 0.237991 0.01454 -0.019932
v -0.237944 0.015047 -0.019881
v -0.238 -0.015102 -0.019693
v -0.238002 0.0144794 -0.0198488
v -0.237979 0.0145746 -0.0159976
v -0.279798 -0.00424357 -0.00927112
v 0.280204 -0.00656523 -0.0113366
v -0.284707 -0.006455 -0.0155595
v -0.284258 0.00890988 -0.0182665
v -0.278585 0.00272813 -0.00295875
v 0.237977 0.082304 -0.00607089
v 0.237751 -0.0280129 -0.00870984
v -0.227857 -0.02081 -0.022159
v 0.227857 0.02081 -0.022159
v 0.227845 -0.0147175 0.0041585
v -0.277045 0.00579915 -0.0039413
v -0.227871 -0.0280285 0.001669
v 0.227975 -0.0821245 -0.0019475
v 0.280018 0.007601 -0.011654
v 0.280142 0.00524907 -0.00990732
v 0.418417 -0.042299 0.002545
v 0.410296 -0.040687 -0.01276
v 0.412074 -0.028076 0.007598
v 0.411706 0.0384112 -0.00675575
v -0.237733 0.0271939 0.00334634
v 0.410169 0.02635 0.005772
v 0.403871 0.026621 -0.008086
v 0.238132 -0.00669573 -0.000416679
v 0.2787 -0.0041464 -0.00511792
v 0.227872 -0.028883 -0.0074405
v 0.227973 0.081156 -0.0074405
v -0.202983 -0.086475 0.026354
v -0.280109 -0.006139 -0.008513
v -0.227974 -0.081678 -0.002926
v -0.227966 0.077035 0.015931
v 0.227875 0.0302265 0.0108
v -0.238089 -0.007113 0.005519
v -0.277016 -0.00620006 -0.00648346
v -0.238016 0.00712504 0.00552924
v 0.238076 0.007122 0.005527
v 0.277021 0.00532847 -0.00162149
v -0.277488 -0.0038185 0.000431
v 0.202842 0.0137195 0.00541678
v -0.227871 0.028257 0.006727
v 0.278251 0.00623964 0.00760347
v -0.237965 0.0748137 0.0192052
v 0.202855 -0.016548 0.0166723
v 0.228 -0.094745 -0.0091225
v 0.237951 0.0202408 0.0276344
v -0.237924 -0.026862 0.032788
v -0.23794 -0.020618 0.026426
v -0.237988 -0.015144 0.016922
v -0.278244 0.003521 0.003679
v -0.275806 0.006586 0.00567
v -0.280247 -0.007374 0.012655
v -0.27838 0.0048115 0.0046895
v 0.237939 -0.013246 0.011765
v -0.360649 -0.083614 0.001597
v -0.360649 -0.077165 0.066797
v -0.360649 0.079872 0.064318
v 0.277269 -0.00512336 0.0021338
v 0.276131 -0.00605244 0.00382039
v 0.23808 -0.007837 0.009468
v -0.233885 -0.109313 0.0297765
v 0.228507 0.107327 0.004089
v 0.228499 -0.105822 0.004089
v 0.236403 0.1055 0.00413949
v -0.275724 -0.00695274 0.00748035
v -0.23798 0.0823594 0.0058937
v 0.227966 -0.077035 0.015931
v 0.280157 -0.0069117 0.011984
v 0.00631 0.1074 0.008815
v 0.022545 -0.107404 0.005176
v 0.235927 0.110316 0.005111
v 0.250915 0.107197 0.005111
v -0.227848 -0.016055 0.0119625
v -0.202846 0.0143933 0.0093496
v -0.20285 -0.0162473 0.0144031
v -0.202987 0.088397 0.024118
v -0.202871 0.033218 0.0360724
v -0.202938 0.0684794 0.0397621
v 0.202993 -0.0918704 0.0195324
v 0.202967 -0.078138 0.034063
v 0.227988 0.089229 0.022159
v 0.237974 0.0787913 0.0152595
v -0.227967 -0.077867 0.015474
v -0.237971 0.01518 0.016857
v -0.22788 -0.032664 0.016177
v 0.227875 -0.0302145 0.0111005
v 0.237906 0.0303573 0.0136279
v 0.237966 -0.0816665 0.0104119
v 0.227969 0.079229 0.0120505
v 0.237891 -0.0334913 0.0195129
v -0.281399 -0.00584353 0.0138659
v -0.282354 0.006862 0.014111
v -0.280212 0.007407 0.012602
v -0.237996 -0.014223 0.029075
v -0.23806 -0.014651 0.040421
v -0.238 0.014088 0.020367
v 0.238067 -0.014634 0.040397
v 0.238 -0.014798 0.019719
v 0.237995 0.014235 0.029102
v 0.23808 0.014608 0.04037
v 0.238 0.014034 0.0207
v -0.284306 0.008653 0.014624
v -0.281242 -0.010066 0.009361
v 0.415206 -0.028908 0.013218
v 0.414733 -0.02658 0.015275
v -0.238151 0.0370936 0.0221432
v -0.227859 0.02169 0.024118
v 0.227851 0.018038 0.0165495
v 0.227873 -0.0290815 0.0302065
v -0.286714 0.00632 0.018171
v 0.237991 0.0155024 0.0199586
v 0.284373 0.0065504 0.0162127
v -0.286581 0.009177 0.020013
v -0.237988 -0.088288 0.041793
v -0.237983 -0.0154575 0.0198797
v -0.238 -0.015922 0.020231
v -0.237902 0.014895 0.0201255
v -0.238 0.015129 0.019696
v -0.238 0.0143615 0.0199685
v 0.423023 -0.028042 0.031127
v -0.227887 0.036391 0.0196035
v -0.227908 -0.0473565 0.025934
v 0.227897 0.041671 0.024345
v 0.237948 -0.0220896 0.0280327
v -0.42668 0.056809 0.020349
v -0.295131 0.00909675 0.0247145
v 0.307875 -0.0112878 0.0324825
v -0.238 -0.014096 0.020345
v -0.238 -0.014508 0.019841
v 0.237953 0.0149935 0.0199795
v 0.237962 0.0142985 0.0202122
v 0.237862 -0.014847 0.020201
v -0.23788 -0.0145949 0.020287
v -0.237902 -0.017654 0.028212
v -0.296885 -0.0104655 0.0272925
v -0.296622 0.010921 0.027634
v 0.202994 0.091284 0.0201526
v -0.23787 -0.014792 0.029551
v -0.237899 0.014695 0.027557
v 0.23782 0.0148419 0.0295045
v -0.182879 -0.105822 0.028751
v 0.285966 -0.0056502 0.0177914
v -0.237973 0.0729443 0.0444668
v -0.237818 -0.0297774 0.0147979
v -0.237963 -0.027657 0.041446
v -0.227928 0.0580625 0.026871
v 0.237939 0.0415307 0.0241119
v 0.227936 -0.061644 0.026355
v 0.238033 0.0482671 0.0602396
v 0.238025 -0.085941 0.063418
v -0.237994 -0.083672 0.032343
v -0.237997 0.085398 0.0402364
v -0.309593 0.0093771 0.0323702
v 0.237905 -0.014471 0.0252315
v 0.233246 -0.108339 0.023811
v 0.238092 0.0811564 0.0622249
v 0.238004 0.0763514 0.0449979
v 0.230038 0.109276 0.027725
v -0.227945 -0.0668855 0.0244475
v -0.237923 -0.0591207 0.0285713
v 0.2279 -0.043153 0.0244475
v 0.305369 0.00933357 0.030377
v -0.29876 -0.0089125 0.0266455
v 0.292567 0.0100976 0.0250984
v -0.238 0.0902895 0.0422742
v 0.237999 -0.078089 0.050687
v 0.237994 -0.078842 0.04399
v -0.237936 0.0609827 0.0276472
v 0.227935 0.0613505 0.0262915
v 0.237918 0.0582391 0.0281941
v 0.237931 -0.0556063 0.0277596
v -0.227959 -0.073566 0.036295
v -0.227969 0.079138 0.033329
v -0.227869 -0.0272565 0.0298415
v -0.227887 0.036473 0.036295
v 0.202894 -0.0365947 0.037412
v 0.227876 0.030901 0.033329
v 0.227943 0.0657665 0.038665
v -0.237978 0.0150688 0.0404407
v -0.238001 -0.082405 0.041596
v -0.237979 -0.01996 0.0276765
v -0.319639 -0.0126 0.036662
v -0.233929 0.110026 0.028741
v -0.181154 -0.109159 0.029066
v -0.183054 -0.109148 0.029084
v -0.06805 -0.109132 0.029185
v -0.237976 -0.098363 0.069885
v -0.237949 0.109235 0.028853
v -0.233909 0.108765 0.029491
v -0.238 -0.0147 0.029778
v 0.23797 0.0149135 0.0295835
v -0.325989 0.0105275 0.0363295
v -0.315921 -0.009775 0.0338475
v 0.202962 0.0733522 0.0374796
v 0.20287 0.0346071 0.0378093
v -0.320345 -0.011477 0.035871
v -0.321078 -0.00967 0.035506
v 0.322132 0.0121601 0.0369241
v -0.319044 0.012116 0.0364576
v 0.351265 -0.0131211 0.0417596
v -0.202803 -0.106661 0.040158
v -0.183744 0.107511 0.036346
v -0.0655668 0.106692 0.0397908
v 0.331733 -0.013828 0.040968
v -0.022905 -0.10924 0.028656
v -0.230471 0.106955 0.038842
v -0.200586 0.106465 0.041038
v -0.214805 -0.106996 0.038843
v -0.202956 -0.0671416 0.0409709
v -0.202871 -0.0313618 0.0343994
v 0.227901 0.043755 0.039568
v -0.335117 -0.0113935 0.0386185
v -0.227914 -0.050861 0.0403015
v -0.227931 0.0591775 0.0403015
v 0.202929 -0.058016 0.041035
v -0.335185 -2.8e-05 0.038374
v 0.353116 -0.007922 0.039137
v 0.35315 0.007928 0.039085
v -0.343697 -0.0079855 0.0394245
v -0.346671 0.004344 0.039607
v -0.343157 0.011189 0.039303
v 0.353128 -6.49993e-06 0.0400345
v 0.358188 -0.007994 0.040412
v 0.358253 0.008023 0.040334
v 0.343988 0.013485 0.040804
v 0.356906 0.012813 0.0407871
v -0.344909 -0.013622 0.040948
v -0.353138 0.013512 0.040973
v 0.358 -0.013633 0.041118
v 0.35896 0.028309 0.050216
v 0.357859 0.013647 0.041167
v 0.3588 0.018119 0.061399
v 0.238064 -0.047273 0.059827
v -0.237984 -0.0845125 0.0404675
v -0.237992 0.0846538 0.0404292
v -0.238051 0.083883 0.041862
v -0.268609 -0.0465862 0.0606351
v -0.333768 -0.013827 0.040971
v -0.346944 0.0338305 0.0532865
v 0.272815 0.0456105 0.0598429
v 0.346979 0.039306 0.056581
v 0.346538 0.029028 0.050292
v 0.347033 0.028426 0.049941
v 0.358 -0.028516 0.050252
v 0.358003 0.028516 0.050225
v -0.357649 0.028554 0.05431
v -0.35765 -0.024512 0.047692
v 0.358 -0.025258 0.048134
v 0.35816 0.0252305 0.048101
v -0.237972 -0.0803921 0.0603866
v -0.237992 0.088947 0.061005
v 0.356032 -0.017664 0.0416
v 0.358595 -0.0261353 0.0465762
v -0.237989 0.077269 0.044778
v -0.237994 -0.088528 0.061173
v 0.237957 -0.0473678 0.0477977
v -0.237986 0.075155 0.045193
v 0.237954 -0.0476715 0.047497
v 0.353103 -0.0251 0.047766
v -0.237991 0.090153 0.042217
v 0.237924 -0.0602809 0.0479195
v 0.237977 -0.065944 0.046595
v 0.237737 -0.0664647 0.0252959
v 0.237988 0.075249 0.0453595
v -0.068696 0.106091 0.042705
v -0.073174 0.104229 0.051005
v 0.353119 0.025172 0.047757
v -0.354607 -0.020647 0.044986
v -0.354638 -0.020653 0.043241
v -0.357222 0.0259587 0.0462944
v -0.356128 0.022757 0.04533
v -0.237995 0.083297 0.06129
v -0.238 -0.076847 0.04506
v -0.237976 0.082557 0.060939
v -0.237848 -0.01545 0.044494
v -0.34676 -0.014612 0.04512
v -0.280149 -0.016929 0.0527905
v 0.237981 -0.076943 0.0450745
v -0.237994 0.0768405 0.045311
v -0.237982 -0.0659 0.046598
v 0.23796 0.06395 0.0477172
v -0.333672 -0.0266203 0.0522395
v -0.296877 -0.0247055 0.050747
v -0.347045 -0.015667 0.049874
v -0.348949 -0.015654 0.049892
v -0.349198 -0.014629 0.045282
v -0.346567 -0.022042 0.04958
v -0.357649 0.025015 0.047847
v -0.337229 -0.021282 0.074781
v -0.238 -0.075601 0.045672
v -0.238261 -0.0737685 0.0613315
v -0.237998 0.08084 0.060393
v -0.237972 0.080675 0.060196
v 0.238032 -0.076882 0.061459
v -0.356786 0.0302528 0.0505071
v -0.237535 -0.0398557 0.0562498
v 0.35896 -0.025219 0.048232
v 0.35896 -0.03035 0.050327
v -0.237983 0.0485059 0.0603693
v 0.237948 0.0609216 0.0604127
v -0.237943 0.0500108 0.0475137
v -0.238046 -0.053383 0.061307
v 0.238016 -0.050116 0.060727
v 0.237972 -0.059083 0.060982
v 0.238168 -0.080867 0.0626008
v -0.336975 -0.020222 0.07
v -0.348694 -0.022678 0.050002
v 0.347406 -0.0284923 0.0501039
v 0.347207 -0.028389 0.049921
v 0.353116 -0.0304271 0.0537868
v 0.354375 -0.028565 0.0542972
v 0.357991 0.0303689 0.0502872
v 0.353081 0.028683 0.058155
v 0.346965 -0.028742 0.050246
v 0.347237 0.028527 0.050138
v 0.347128 -0.039409 0.056631
v -0.354671 -0.030166 0.050569
v -0.354656 0.028695 0.050577
v 0.346969 -0.038912 0.056515
v 0.35899 -0.0356667 0.0557205
v 0.353857 0.030703 0.0551166
v 0.357002 0.0369819 0.0567592
v -0.354623 -0.030358 0.05556
v -0.354587 0.028783 0.058157
v 0.347192 -0.033921 0.0570715
v 0.23435 0.0988365 0.069206
v -0.237936 -0.0615367 0.0606356
v 0.237964 -0.061329 0.060986
v 0.353122 -0.0369486 0.0560329
v -0.354594 -0.034199 0.055424
v -0.354945 0.0304576 0.0553216
v 0.353145 0.032811 0.056945
v -0.354588 0.032414 0.0568845
v -0.355388 0.0366213 0.057483
v -0.347147 0.039502 0.056649
v -0.347176 0.03673 0.058031
v -0.357484 0.0391268 0.0570691
v 0.347143 -0.036673 0.057981
v 0.3531 -0.036499 0.057764
v 0.352588 0.038106 0.057402
v 0.358 0.044641 0.060204
v -0.357649 0.044642 0.06021
v 0.358 -0.044609 0.060179
v 0.35896 -0.036503 0.058214
v 0.35896 0.036493 0.058223
v -0.352388 0.0325635 0.057032
v -0.347125 0.034584 0.057045
v 0.35325 -0.032512 0.057186
v 0.35896 0.040589 0.071101
v 0.347133 -0.028995 0.058186
v 0.358 -0.029208 0.058328
v 0.353343 -0.029063 0.058349
v -0.237999 -0.0903332 0.0423465
v -0.237972 0.097776 0.070038
v -0.237997 0.090164 0.059642
v -0.268839 0.046373 0.0603334
v -0.238 -0.087534 0.063438
v -0.237999 0.086974 0.063337
v 0.237935 -0.061063 0.0600455
v 0.237974 -0.0609055 0.0603719
v 0.269378 -0.0462237 0.0603024
v 0.238322 0.060803 0.0622117
v -0.237981 0.0803938 0.0609755
v -0.238019 -0.0797646 0.0620318
v 0.253846 0.052243 0.0616296
v -0.238 0.082243 0.06087
v -0.239604 0.0602731 0.0621426
v 0.240829 0.0703553 0.0623411
v -0.350165 0.0747845 0.0691495
v -0.260693 0.0500069 0.0629287
v -0.238187 0.0792093 0.0621075
v 0.259411 0.0498641 0.0621759
v -0.239937 0.0700019 0.0619566
v 0.239902 -0.0689859 0.0620486
v -0.251361 -0.0548956 0.0621258
v -0.357824 -0.045001 0.068243
v -0.27764 0.045808 0.077018
v 0.363394 -0.04503 0.0716115
v 0.279806 -0.045821 0.07718
v 0.27435 -0.046251 0.077354
v -0.246531 0.0604963 0.0629028
v 0.272382 0.046668 0.077125
v -0.243407 -0.0652843 0.0631989
v 0.255182 -0.052386 0.0618745
v 0.249591 0.057579 0.0627427
v 0.241404 -0.0704333 0.0629584
v 0.238001 -0.085731 0.06304
v -0.238008 0.0852305 0.0629875
v -0.238196 0.091349 0.0687201
v -0.238069 -0.0921494 0.0681871
v 0.23802 -0.085184 0.069999
v 0.238021 0.085713 0.070001
v 0.250397 -0.057112 0.0633104
v 0.240083 -0.074834 0.074666
v 0.254366 -0.0534007 0.0773038
v 0.256671 0.0530335 0.0771355
v 0.245866 0.06353 0.077244
v 0.238016 0.102347 0.0656386
v 0.237956 0.090956 0.076893
v -0.362322 -0.02024 0.071102
v -0.357824 0.045002 0.068243
v -0.373872 -0.019678 0.069034
v -0.373531 -0.01992 0.07011
v -0.357649 -0.019623 0.068131
v -0.24077 0.097175 0.071406
v -0.327718 0.045385 0.075466
v -0.357984 0.044945 0.072059
v -0.276681 -0.04588 0.076953
v -0.262472 -0.049577 0.076938
v -0.255278 0.0538078 0.0773556
v -0.256712 -0.052845 0.076988
v -0.244441 -0.065755 0.077142
v -0.244532 0.0643107 0.0772407
v -0.237987 0.0882564 0.0772246
v -0.239245 -0.098168 0.069951
v -0.239287 -0.080005 0.076919
v 0.237999 -0.087989 0.077271
v 0.238692 0.079294 0.069999
v 0.250454 0.058089 0.077311
v 0.263076 0.04937 0.077065
v 0.320785 -0.045441 0.076437
v 0.35896 0.045021 0.071652
v 0.358 0.045 0.07
v -0.365094 -0.032905 0.070531
v 0.344755 -0.045452 0.075072
v 0.34707 0.045439 0.074819
v -0.35821 0.045293 0.072285
v -0.326756 0.045839 0.075771
v 0.367757 0.04501 0.072376
v 0.337869 -0.0640155 0.075518
v -0.327855 0.0518682 0.0741565
v 0.343969 0.064008 0.075159
v 0.246843 0.073129 0.077367
v 0.246663 0.072925 0.076755
v 0.246644 0.073116 0.074909
v 0.238999 -0.079598 0.074827
v 0.246536 -0.0730172 0.0749369
v 0.246563 -0.072825 0.076619
v 0.246805 -0.073058 0.077205
v 0.244662 0.07526 0.074932
v 0.315224 -0.045887 0.077045
v 0.320615 0.045897 0.076684
v -0.295929 0.045986 0.077136
v -0.281413 0.066038 0.0773165
v 0.2466 -0.072701 0.076893
v -0.266866 0.0477487 0.0772398
v 0.242891 -0.069176 0.077138
v 0.243089 -0.068975 0.077329
v 0.246927 -0.072769 0.0772635
v 0.247034 -0.072824 0.077391
v 0.246897 -0.072403 0.077293
v 0.246997 -0.072383 0.077337
v 0.247175 -0.0722903 0.0774018
v -0.245012 0.091639 0.076163
v 0.24313 -0.0681368 0.0759914
v 0.258793 -0.069312 0.0774015
v 0.252345 -0.0731 0.077422
v 0.24312 0.068848 0.07739
v 0.247532 -0.077002 0.077205
v 0.247504 -0.077261 0.077406
v 0.251259 -0.073949 0.078525
f 127 2 3
f 37 4 1
f 2 40 3
f 7 5 8
f 6 150 9
f 63 11 10
f 14 11 63
f 69 13 12
f 80 17 16
f 117 21 22
f 114 24 23
f 31 396 32
f 127 38 33
f 37 1 35
f 1 34 35
f 248 192 38
f 35 36 37
f 36 193 37
f 40 38 127
f 39 4 37
f 2 41 40
f 42 1 4
f 127 43 2
f 2 125 41
f 125 44 41
f 254 178 4
f 45 46 229
f 52 9 47
f 8 46 45
f 8 5 46
f 5 50 46
f 6 9 52
f 48 229 50
f 229 46 50
f 47 49 52
f 150 6 52
f 7 50 5
f 54 51 50
f 7 54 50
f 53 150 52
f 8 56 7
f 55 9 150
f 128 56 8
f 56 57 7
f 57 58 7
f 215 226 150
f 226 55 150
f 59 60 57
f 10 61 63
f 62 12 59
f 12 60 59
f 10 11 61
f 12 64 60
f 64 180 60
f 12 69 64
f 69 65 64
f 12 13 69
f 63 66 14
f 62 69 12
f 14 67 11
f 67 68 11
f 66 268 14
f 268 67 14
f 71 15 72
f 15 73 72
f 16 75 74
f 77 16 74
f 80 16 77
f 181 73 76
f 73 79 76
f 81 80 77
f 73 15 79
f 82 76 79
f 85 79 15
f 80 83 17
f 85 82 79
f 81 84 80
f 17 75 16
f 71 85 15
f 86 75 17
f 83 86 17
f 84 83 80
f 84 213 83
f 88 221 89
f 18 88 89
f 92 90 91
f 18 19 88
f 19 162 88
f 93 97 92
f 232 221 162
f 221 88 162
f 92 94 93
f 94 95 93
f 95 228 93
f 161 97 93
f 105 96 162
f 98 20 97
f 99 96 105
f 19 105 162
f 97 101 92
f 18 105 19
f 218 97 20
f 102 105 18
f 100 102 18
f 98 182 20
f 103 104 105
f 182 218 20
f 22 106 116
f 23 122 107
f 111 23 107
f 114 23 111
f 108 222 21
f 222 109 21
f 109 22 21
f 110 282 111
f 113 114 111
f 117 115 21
f 115 112 21
f 113 172 114
f 114 172 24
f 116 117 22
f 118 231 117
f 285 183 172
f 119 120 116
f 183 121 24
f 121 122 24
f 100 18 89
f 45 128 8
f 101 90 92
f 24 122 23
f 123 124 9
f 109 106 22
f 178 42 4
f 125 2 43
f 94 92 91
f 110 111 107
f 75 126 74
f 130 34 1
f 130 35 34
f 74 78 77
f 129 62 59
f 90 126 75
f 129 72 62
f 67 78 68
f 83 94 86
f 71 100 89
f 100 71 72
f 38 192 33
f 131 129 127
f 126 35 130
f 131 72 129
f 180 57 60
f 73 181 70
f 268 78 67
f 90 121 126
f 119 100 72
f 131 119 72
f 213 95 83
f 95 94 83
f 109 103 105
f 119 116 100
f 122 121 101
f 222 103 109
f 183 24 172
f 132 133 134
f 133 135 134
f 136 137 141
f 134 138 132
f 138 139 132
f 136 140 137
f 65 133 132
f 142 40 132
f 40 51 132
f 51 54 132
f 54 65 132
f 139 142 132
f 81 66 137
f 140 81 137
f 66 53 137
f 53 39 137
f 39 143 137
f 143 141 137
f 193 249 37
f 249 39 37
f 144 51 40
f 53 145 39
f 145 4 39
f 41 144 40
f 146 144 41
f 145 147 4
f 44 146 41
f 147 254 4
f 53 52 145
f 239 48 50
f 49 258 52
f 148 65 54
f 149 148 54
f 66 151 53
f 151 150 53
f 7 149 54
f 152 149 7
f 58 152 7
f 263 215 150
f 66 63 151
f 64 65 148
f 180 64 148
f 82 133 65
f 153 154 65
f 154 82 65
f 81 155 66
f 155 156 66
f 70 153 65
f 156 268 66
f 76 82 154
f 181 76 154
f 77 78 155
f 81 77 155
f 96 133 82
f 140 98 81
f 98 84 81
f 87 157 82
f 84 158 213
f 98 159 84
f 160 232 162
f 228 161 93
f 98 161 159
f 99 133 96
f 112 133 99
f 140 113 98
f 163 112 99
f 113 164 98
f 105 163 99
f 164 182 98
f 165 163 105
f 164 166 182
f 104 165 105
f 167 108 21
f 282 281 111
f 167 21 112
f 111 168 113
f 281 168 111
f 115 133 112
f 140 172 113
f 169 133 115
f 117 169 115
f 241 169 117
f 171 133 169
f 231 241 117
f 170 285 172
f 173 174 133
f 171 173 133
f 175 172 140
f 174 135 133
f 136 237 140
f 237 175 140
f 157 96 82
f 144 50 51
f 157 162 96
f 159 158 84
f 163 167 112
f 38 40 142
f 168 164 113
f 265 151 63
f 176 153 70
f 177 155 78
f 135 179 134
f 179 138 134
f 238 38 142
f 139 238 142
f 249 289 39
f 289 143 39
f 239 50 144
f 146 239 144
f 52 258 145
f 258 147 145
f 152 148 149
f 151 263 150
f 152 180 148
f 265 263 151
f 176 154 153
f 177 268 156
f 155 177 156
f 176 181 154
f 160 162 157
f 87 160 157
f 159 161 158
f 161 213 158
f 165 167 163
f 168 281 164
f 281 166 164
f 241 171 169
f 241 286 171
f 286 173 171
f 287 170 172
f 175 287 172
f 174 179 135
f 108 190 222
f 248 191 192
f 194 193 36
f 285 198 204
f 199 282 110
f 197 231 118
f 232 195 103
f 206 207 213
f 201 208 202
f 203 209 87
f 196 210 95
f 214 44 125
f 218 196 95
f 200 219 57
f 184 201 202
f 220 203 87
f 221 232 103
f 222 197 118
f 207 223 213
f 224 196 218
f 254 194 36
f 215 225 226
f 227 200 57
f 210 228 95
f 216 49 217
f 195 230 103
f 208 186 202
f 48 227 229
f 182 224 218
f 191 214 192
f 214 125 192
f 198 199 204
f 190 197 222
f 211 265 212
f 223 177 213
f 199 110 204
f 229 227 57
f 268 233 212
f 183 285 204
f 234 235 236
f 49 47 217
f 186 176 202
f 238 248 38
f 240 167 165
f 240 108 167
f 180 184 202
f 188 220 87
f 181 188 87
f 178 254 36
f 211 185 265
f 223 189 177
f 230 104 103
f 219 58 57
f 187 233 268
f 242 235 234
f 196 198 235
f 198 285 235
f 242 196 235
f 193 194 242
f 194 216 242
f 216 225 242
f 225 211 242
f 211 205 242
f 205 207 242
f 207 210 242
f 210 196 242
f 231 197 243
f 197 195 243
f 195 203 243
f 203 208 243
f 208 201 243
f 201 219 243
f 219 200 243
f 200 244 243
f 200 191 244
f 191 248 244
f 143 247 141
f 247 256 141
f 250 246 245
f 251 252 146
f 250 245 253
f 247 255 256
f 44 251 146
f 252 257 146
f 251 257 252
f 258 254 147
f 255 259 256
f 251 260 257
f 260 239 257
f 261 262 152
f 58 261 152
f 264 180 262
f 261 264 262
f 264 184 180
f 186 266 176
f 186 267 266
f 267 269 266
f 271 250 253
f 255 272 259
f 267 188 269
f 269 188 181
f 189 270 177
f 209 273 87
f 274 160 273
f 209 274 273
f 275 206 213
f 276 271 253
f 228 206 275
f 274 232 160
f 161 228 275
f 277 278 165
f 279 182 166
f 104 277 165
f 280 240 278
f 277 280 278
f 281 279 166
f 282 279 281
f 280 108 240
f 283 271 276
f 259 272 284
f 174 283 276
f 175 237 284
f 272 175 284
f 287 285 170
f 173 283 174
f 285 290 235
f 288 231 243
f 289 193 242
f 195 232 203
f 232 209 203
f 223 207 205
f 206 210 207
f 220 208 203
f 184 219 201
f 224 198 196
f 206 228 210
f 189 223 205
f 233 189 205
f 230 195 197
f 227 191 200
f 194 49 216
f 185 211 225
f 215 185 225
f 254 49 194
f 286 231 288
f 227 214 191
f 182 199 224
f 199 198 224
f 190 230 197
f 220 186 208
f 220 188 186
f 104 230 190
f 187 189 233
f 184 58 219
f 48 214 227
f 44 214 48
f 182 282 199
f 108 104 190
f 285 287 290
f 187 270 189
f 48 239 44
f 289 249 193
f 286 241 231
f 173 291 139
f 291 292 139
f 292 293 139
f 175 247 143
f 271 283 139
f 246 250 139
f 250 271 139
f 283 173 139
f 294 295 143
f 295 175 143
f 239 260 251
f 175 255 247
f 44 239 251
f 175 272 255
f 258 49 254
f 184 264 261
f 58 184 261
f 185 215 263
f 265 185 263
f 188 267 186
f 270 187 268
f 232 274 209
f 280 277 104
f 108 280 104
f 279 282 182
f 299 297 298
f 300 301 296
f 297 512 298
f 302 300 296
f 302 301 300
f 299 512 297
f 304 579 314
f 494 306 307
f 308 515 307
f 309 308 307
f 306 309 307
f 305 524 304
f 303 312 311
f 308 313 515
f 312 316 311
f 315 512 299
f 317 314 310
f 317 310 319
f 320 318 316
f 323 319 500
f 321 315 299
f 322 318 320
f 324 323 500
f 325 342 326
f 341 327 328
f 329 330 326
f 330 325 326
f 327 331 328
f 331 339 328
f 333 581 332
f 334 335 339
f 335 340 339
f 329 623 330
f 623 325 330
f 623 342 325
f 336 341 328
f 343 329 326
f 328 689 336
f 331 334 339
f 337 343 326
f 344 689 328
f 619 345 334
f 345 346 334
f 346 335 334
f 331 619 334
f 338 347 337
f 347 352 337
f 352 343 337
f 335 350 340
f 347 338 349
f 350 351 348
f 335 351 350
f 346 351 335
f 352 347 349
f 345 351 346
f 345 619 351
f 1236 357 810
f 356 358 810
f 358 1236 810
f 361 362 360
f 364 1236 358
f 365 361 363
f 1235 367 359
f 1402 1236 364
f 373 374 1253
f 373 375 374
f 378 381 377
f 378 380 381
f 381 385 379
f 380 384 381
f 378 384 380
f 383 378 377
f 381 384 385
f 384 386 385
f 378 383 384
f 391 389 27
f 389 26 27
f 390 388 25
f 388 28 25
f 28 390 25
f 388 430 28
f 430 390 28
f 26 391 27
f 389 391 26
f 29 428 30
f 393 428 29
f 394 392 32
f 392 31 32
f 396 394 32
f 428 29 30
f 395 393 29
f 392 396 31
f 428 395 29
f 398 397 386
f 384 398 386
f 403 399 1470
f 400 398 384
f 383 400 384
f 401 403 399
f 403 401 399
f 398 402 397
f 398 404 402
f 405 413 408
f 406 405 408
f 400 404 398
f 409 410 1480
f 396 413 405
f 413 411 408
f 412 405 406
f 412 414 405
f 414 412 410
f 392 393 396
f 393 395 396
f 395 413 396
f 414 394 405
f 394 396 405
f 395 428 413
f 244 248 427
f 413 418 411
f 409 419 410
f 419 414 410
f 421 424 422
f 413 428 418
f 415 419 409
f 426 421 422
f 392 428 393
f 420 425 415
f 419 394 414
f 421 423 424
f 418 421 426
f 415 394 419
f 428 421 418
f 238 427 248
f 428 423 421
f 423 417 431
f 429 425 420
f 429 415 425
f 428 417 423
f 430 428 392
f 394 430 392
f 417 432 431
f 394 390 430
f 429 394 415
f 430 432 428
f 428 432 417
f 394 389 390
f 388 390 433
f 390 389 433
f 389 391 433
f 432 388 433
f 391 429 433
f 394 429 391
f 432 430 388
f 389 394 391
f 435 434 436
f 439 438 437
f 442 441 440
f 442 443 441
f 444 445 440
f 445 442 440
f 443 446 441
f 443 465 446
f 446 465 444
f 465 445 444
f 450 449 447
f 450 448 449
f 451 466 447
f 466 450 447
f 448 453 449
f 448 452 453
f 453 452 451
f 452 466 451
f 454 470 455
f 470 468 455
f 475 476 456
f 458 461 460
f 459 462 457
f 462 459 457
f 460 461 458
f 442 463 443
f 445 464 442
f 463 465 443
f 465 464 445
f 448 467 452
f 452 467 466
f 475 456 469
f 473 475 469
f 470 454 471
f 456 476 469
f 476 473 469
f 454 474 471
f 474 477 471
f 468 474 454
f 468 477 474
f 472 476 475
f 470 477 468
f 482 459 478
f 479 482 478
f 481 480 461
f 481 483 480
f 472 475 473
f 470 471 442
f 471 463 442
f 464 470 442
f 471 477 463
f 477 472 463
f 472 473 463
f 473 465 463
f 476 465 473
f 476 472 477
f 464 477 470
f 465 476 477
f 464 465 477
f 466 482 450
f 482 479 450
f 479 478 450
f 478 448 450
f 478 461 448
f 461 480 448
f 480 467 448
f 481 461 478
f 459 481 478
f 483 467 480
f 467 481 459
f 466 459 482
f 466 467 459
f 467 483 481
f 486 484 485
f 486 487 484
f 487 485 484
f 488 491 489
f 490 488 489
f 490 492 488
f 492 491 488
f 494 307 303
f 523 494 303
f 562 310 314
f 579 562 314
f 311 523 303
f 316 523 311
f 495 496 497
f 498 496 495
f 569 523 316
f 500 319 310
f 515 503 302
f 503 504 302
f 507 508 509
f 315 321 512
f 514 513 528
f 318 569 316
f 514 304 513
f 313 659 515
f 322 569 318
f 547 510 511
f 517 518 519
f 520 569 322
f 500 521 324
f 513 525 528
f 641 528 525
f 304 525 513
f 522 547 511
f 676 524 525
f 641 674 528
f 544 527 566
f 529 306 530
f 524 536 525
f 564 579 304
f 499 534 313
f 534 659 313
f 308 499 313
f 493 534 499
f 535 526 308
f 501 536 524
f 526 537 308
f 309 526 308
f 309 306 526
f 494 635 306
f 532 635 494
f 590 522 511
f 552 494 523
f 538 547 522
f 522 590 538
f 353 539 545
f 540 544 541
f 353 542 539
f 541 543 540
f 543 544 540
f 545 539 542
f 644 304 531
f 548 549 546
f 550 551 506
f 544 505 541
f 644 525 304
f 674 553 528
f 553 572 528
f 569 552 523
f 562 500 310
f 306 577 530
f 536 641 525
f 576 567 557
f 600 556 590
f 332 558 333
f 554 561 353
f 746 637 306
f 565 564 304
f 635 746 306
f 561 599 353
f 566 527 544
f 333 559 581
f 558 559 333
f 576 568 567
f 597 568 576
f 571 502 353
f 573 574 575
f 585 500 562
f 578 644 531
f 552 582 494
f 585 521 500
f 582 583 494
f 569 582 552
f 596 562 579
f 520 580 569
f 558 581 559
f 771 583 582
f 756 585 562
f 596 756 562
f 771 605 583
f 584 756 596
f 586 587 582
f 580 582 569
f 580 586 582
f 589 593 590
f 582 587 771
f 591 585 756
f 592 591 756
f 591 588 585
f 564 533 579
f 533 594 579
f 595 532 494
f 583 595 494
f 594 596 579
f 597 576 557
f 590 593 589
f 600 589 590
f 600 593 589
f 590 556 600
f 554 599 561
f 553 674 572
f 676 525 644
f 659 598 570
f 603 607 608
f 568 611 609
f 611 610 609
f 606 604 605
f 614 654 354
f 616 614 354
f 617 689 344
f 331 618 619
f 665 354 505
f 327 618 331
f 621 622 343
f 622 329 343
f 622 623 329
f 665 624 354
f 627 628 629
f 611 630 610
f 607 558 608
f 638 558 607
f 568 630 611
f 632 581 558
f 638 632 558
f 568 633 630
f 597 633 568
f 603 634 607
f 634 734 607
f 636 533 564
f 734 638 607
f 622 639 623
f 754 613 610
f 742 754 610
f 537 643 535
f 643 642 535
f 645 634 646
f 708 645 646
f 754 612 613
f 753 648 555
f 649 650 560
f 653 652 651
f 775 730 655
f 654 775 655
f 574 573 640
f 601 656 657
f 602 656 601
f 602 657 656
f 641 660 674
f 662 659 534
f 642 659 662
f 578 663 644
f 664 761 596
f 631 584 596
f 761 631 596
f 633 610 630
f 501 666 536
f 594 664 596
f 668 560 667
f 671 672 669
f 672 670 669
f 660 641 674
f 493 662 534
f 536 666 641
f 662 675 642
f 663 676 644
f 677 622 621
f 618 713 619
f 647 677 621
f 647 813 677
f 813 678 677
f 678 622 677
f 679 762 327
f 762 618 327
f 341 679 327
f 678 680 622
f 680 683 622
f 681 679 341
f 680 682 683
f 766 681 341
f 686 766 341
f 336 686 341
f 682 685 683
f 685 684 683
f 688 683 684
f 685 688 684
f 685 687 688
f 687 625 688
f 355 689 617
f 687 690 625
f 690 691 625
f 691 356 625
f 516 662 493
f 692 693 674
f 641 694 674
f 694 692 674
f 516 675 662
f 666 694 641
f 695 696 602
f 697 698 602
f 698 695 602
f 699 700 661
f 700 701 661
f 704 705 560
f 705 649 560
f 706 637 746
f 860 850 704
f 707 860 704
f 612 870 709
f 711 532 595
f 762 713 618
f 696 964 602
f 714 699 661
f 735 702 563
f 715 716 658
f 712 719 720
f 716 602 658
f 533 664 594
f 717 784 689
f 721 718 691
f 723 722 665
f 614 616 724
f 738 740 661
f 963 715 658
f 725 963 658
f 726 669 670
f 800 728 665
f 673 800 665
f 722 729 665
f 614 843 654
f 731 732 733
f 355 717 689
f 718 356 691
f 715 602 716
f 715 697 602
f 701 738 661
f 565 736 564
f 736 636 564
f 741 725 658
f 737 741 658
f 739 533 636
f 532 792 635
f 565 739 636
f 738 760 740
f 739 664 533
f 792 746 635
f 742 610 744
f 792 745 746
f 746 745 737
f 743 565 747
f 743 822 565
f 822 739 565
f 734 750 638
f 750 632 638
f 740 748 747
f 745 749 737
f 748 743 747
f 751 750 734
f 893 742 744
f 633 836 744
f 749 741 737
f 740 760 748
f 776 604 606
f 761 626 631
f 689 686 336
f 634 645 734
f 645 757 734
f 757 751 734
f 755 754 742
f 893 755 742
f 756 584 631
f 771 606 605
f 837 751 757
f 708 757 645
f 758 612 754
f 755 758 754
f 626 756 631
f 771 776 606
f 759 756 626
f 690 721 691
f 765 687 685
f 689 785 686
f 745 781 749
f 682 765 685
f 748 822 743
f 770 785 689
f 763 717 355
f 764 713 762
f 738 789 760
f 749 725 741
f 784 770 689
f 789 768 760
f 772 813 647
f 761 812 626
f 767 690 687
f 773 774 597
f 730 775 654
f 760 768 748
f 769 687 765
f 785 766 686
f 792 781 745
f 777 778 687
f 687 779 777
f 767 780 690
f 975 949 690
f 780 975 690
f 749 791 725
f 783 789 738
f 778 767 687
f 687 780 779
f 777 780 778
f 780 767 778
f 769 780 687
f 784 785 770
f 783 786 789
f 842 761 664
f 787 788 620
f 822 748 768
f 789 782 768
f 790 532 711
f 880 592 756
f 781 791 749
f 782 822 768
f 680 765 682
f 759 793 756
f 843 614 724
f 842 812 761
f 796 798 797
f 799 679 681
f 727 787 620
f 862 758 794
f 919 780 769
f 803 766 785
f 804 822 782
f 842 805 812
f 679 764 762
f 807 721 690
f 949 808 690
f 809 948 784
f 717 809 784
f 808 807 690
f 811 359 355
f 766 814 681
f 765 815 769
f 764 845 865
f 919 816 780
f 816 975 780
f 960 791 781
f 801 960 781
f 966 804 782
f 789 966 782
f 848 861 776
f 771 848 776
f 812 793 759
f 587 817 771
f 815 919 769
f 792 801 781
f 818 680 678
f 819 532 790
f 679 799 764
f 739 842 664
f 680 820 765
f 532 819 792
f 802 828 757
f 821 678 813
f 847 880 756
f 818 820 680
f 814 799 681
f 821 818 678
f 823 819 790
f 824 1103 632
f 825 824 632
f 750 825 632
f 774 826 597
f 827 794 758
f 870 829 709
f 828 837 757
f 755 827 758
f 799 830 764
f 830 845 764
f 847 756 793
f 805 847 812
f 847 793 812
f 831 824 825
f 750 832 825
f 832 833 825
f 833 831 825
f 774 834 826
f 835 836 826
f 834 835 826
f 848 806 861
f 580 386 586
f 386 1301 586
f 1301 587 586
f 1397 588 591
f 592 1397 591
f 839 585 588
f 399 839 588
f 1470 399 588
f 840 1470 588
f 1397 840 588
f 820 815 765
f 815 818 821
f 838 819 823
f 841 752 795
f 838 801 792
f 803 814 766
f 802 844 828
f 844 837 828
f 755 794 827
f 799 814 830
f 772 849 813
f 806 846 861
f 818 815 820
f 819 838 792
f 817 848 771
f 853 838 823
f 814 845 830
f 856 846 806
f 869 844 802
f 817 871 848
f 858 880 847
f 860 859 850
f 829 870 707
f 870 860 707
f 849 821 813
f 861 846 853
f 849 815 821
f 846 838 853
f 804 739 822
f 703 869 708
f 842 852 805
f 868 919 815
f 873 801 838
f 849 868 815
f 803 857 814
f 857 863 814
f 863 845 814
f 846 873 838
f 804 855 739
f 855 864 739
f 864 842 739
f 842 864 852
f 869 802 708
f 862 870 612
f 866 856 806
f 852 872 805
f 863 865 845
f 856 873 846
f 871 874 848
f 875 876 868
f 864 855 852
f 859 868 849
f 794 870 862
f 854 873 851
f 587 877 817
f 859 919 868
f 854 801 873
f 877 871 878
f 874 806 848
f 805 858 847
f 866 894 615
f 917 874 871
f 889 837 844
f 894 710 615
f 903 937 867
f 879 881 785
f 874 866 806
f 882 919 859
f 900 801 854
f 803 899 857
f 804 931 855
f 587 917 871
f 877 587 871
f 899 703 857
f 860 882 859
f 710 900 854
f 931 923 855
f 844 869 703
f 884 844 703
f 885 886 860
f 870 885 860
f 870 755 885
f 755 886 885
f 755 870 794
f 872 887 805
f 887 858 805
f 786 1014 789
f 888 889 844
f 890 888 844
f 891 890 844
f 1319 891 844
f 874 892 866
f 867 887 872
f 750 751 832
f 835 744 836
f 358 356 718
f 884 1319 844
f 1319 886 755
f 892 894 866
f 950 887 867
f 937 950 867
f 963 697 715
f 835 893 744
f 883 895 975
f 915 894 892
f 874 915 892
f 784 879 785
f 950 858 887
f 896 358 718
f 1301 592 880
f 897 803 785
f 721 896 718
f 898 966 789
f 1014 898 789
f 917 915 874
f 950 880 858
f 899 884 703
f 860 941 882
f 901 919 882
f 710 902 923
f 902 903 923
f 894 904 710
f 912 956 913
f 916 894 915
f 941 901 882
f 917 916 915
f 922 896 721
f 917 1301 916
f 1301 880 950
f 837 832 751
f 835 755 893
f 924 884 899
f 886 918 860
f 918 941 860
f 918 886 924
f 886 884 924
f 969 900 710
f 587 1301 917
f 960 914 791
f 886 1319 884
f 881 897 785
f 983 907 905
f 909 984 906
f 907 951 905
f 920 909 906
f 983 954 907
f 920 908 909
f 911 921 910
f 957 913 956
f 987 911 910
f 837 889 832
f 889 833 832
f 1318 1319 755
f 835 1318 755
f 834 1318 835
f 807 922 721
f 943 809 717
f 763 943 717
f 948 925 784
f 946 949 975
f 926 1083 803
f 1083 927 803
f 927 899 803
f 1054 928 901
f 941 1054 901
f 967 929 801
f 900 967 801
f 930 1064 804
f 1064 931 804
f 928 919 901
f 895 946 975
f 932 993 803
f 993 926 803
f 897 933 803
f 933 932 803
f 928 816 919
f 934 960 801
f 996 934 801
f 929 996 801
f 994 935 804
f 936 994 804
f 966 982 804
f 935 930 804
f 982 936 804
f 925 879 784
f 937 903 904
f 894 937 904
f 899 938 924
f 939 923 931
f 939 710 923
f 918 938 940
f 942 938 899
f 938 918 924
f 944 941 918
f 939 969 710
f 1015 810 357
f 938 942 940
f 809 945 948
f 945 763 948
f 946 896 808
f 896 807 808
f 947 963 725
f 949 946 808
f 791 947 725
f 959 786 783
f 914 947 791
f 990 883 975
f 952 920 906
f 908 953 909
f 953 984 909
f 954 955 907
f 955 951 907
f 921 986 910
f 986 987 910
f 958 921 911
f 763 925 948
f 963 947 914
f 980 939 931
f 899 961 942
f 943 945 809
f 959 701 786
f 807 896 922
f 998 1054 941
f 916 937 894
f 916 950 937
f 1301 950 916
f 962 783 738
f 701 962 738
f 960 963 914
f 962 959 783
f 965 699 714
f 763 879 925
f 895 358 946
f 968 941 944
f 927 970 899
f 970 961 899
f 763 945 943
f 980 969 939
f 970 971 961
f 972 968 944
f 968 998 941
f 912 973 956
f 701 959 962
f 358 896 946
f 969 967 900
f 970 968 971
f 968 972 971
f 933 974 897
f 974 933 897
f 881 933 897
f 1301 1300 592
f 977 976 592
f 1300 977 592
f 1370 1397 592
f 978 979 592
f 976 978 592
f 1360 1370 592
f 979 1360 592
f 999 998 968
f 927 999 970
f 999 968 970
f 701 700 786
f 700 1014 786
f 981 982 966
f 898 981 966
f 1057 960 934
f 955 1058 951
f 985 920 952
f 985 908 920
f 1039 986 921
f 973 1013 956
f 1059 957 956
f 1013 1059 956
f 988 973 912
f 816 989 975
f 991 1057 934
f 969 992 967
f 997 934 996
f 936 982 994
f 995 989 816
f 960 697 963
f 1000 926 993
f 928 1037 816
f 1037 995 816
f 932 1000 993
f 982 935 994
f 377 376 520
f 376 580 520
f 376 385 580
f 385 386 580
f 839 521 585
f 1024 998 999
f 927 1024 999
f 998 1024 999
f 933 1000 932
f 1001 935 982
f 1047 989 995
f 997 1002 996
f 1003 881 879
f 960 1005 1006
f 981 1008 982
f 997 991 934
f 1009 1008 981
f 1010 1001 981
f 1001 1009 981
f 1008 1009 982
f 1004 895 883
f 898 1014 1007
f 992 969 980
f 1009 1001 982
f 954 1058 955
f 1012 1039 921
f 958 1012 921
f 1056 1014 700
f 1016 359 811
f 696 695 964
f 898 1010 981
f 1017 1004 883
f 990 1017 883
f 1018 895 1004
f 1019 881 1003
f 960 1020 1005
f 1021 898 1007
f 1022 960 1006
f 1014 1023 1007
f 359 763 355
f 931 1031 980
f 1025 1024 927
f 1083 1025 927
f 1026 1027 881
f 1027 933 881
f 989 1050 975
f 1050 990 975
f 1031 992 980
f 1028 1003 879
f 1029 895 1018
f 697 960 1022
f 1027 1000 933
f 1047 1030 989
f 1030 1050 989
f 1024 1053 999
f 1064 1031 931
f 1032 698 697
f 359 1033 763
f 1033 879 763
f 1052 929 967
f 992 1052 967
f 898 1034 1010
f 1011 1017 990
f 1057 1020 960
f 998 1035 1054
f 1025 1053 1024
f 953 908 984
f 1038 985 952
f 1093 987 986
f 1039 1093 986
f 1040 973 988
f 1037 1036 995
f 1041 1036 1037
f 928 1041 1037
f 1026 1042 1027
f 1043 1042 1027
f 1010 1034 1044
f 1046 1034 1044
f 928 1036 1041
f 1045 997 996
f 1049 995 1036
f 1049 1047 1036
f 928 1049 1036
f 1049 1047 995
f 1001 1046 935
f 1026 926 1000
f 1046 930 935
f 1026 1043 1042
f 1048 1000 1043
f 1034 930 1046
f 1026 1048 1043
f 1048 1000 1043
f 1047 1050 1030
f 928 1047 1049
f 1048 1026 1000
f 928 1050 1047
f 929 991 997
f 1083 1051 1025
f 1025 1051 1053
f 1079 1028 879
f 1057 1075 1020
f 1014 1076 1023
f 1056 1076 1014
f 1031 1052 992
f 895 1114 358
f 1114 364 358
f 1070 990 1050
f 1064 1065 1031
f 1065 1052 1031
f 1055 1054 1035
f 929 1057 991
f 973 1088 1013
f 1088 1059 1013
f 1060 1012 958
f 1061 928 1054
f 1033 1079 879
f 1062 881 1019
f 1034 898 1021
f 1063 697 1022
f 1051 1078 1053
f 1068 1066 1067
f 881 926 1026
f 928 1070 1050
f 1065 1074 1052
f 1071 1072 1069
f 1052 1107 929
f 1107 1073 929
f 1073 1057 929
f 1055 1061 1054
f 1070 1011 990
f 965 700 699
f 1086 1065 1064
f 1112 1056 700
f 1086 1074 1065
f 1122 985 1038
f 1077 954 983
f 1122 908 985
f 1074 1107 1052
f 1087 1078 1051
f 1083 1087 1051
f 1029 1114 895
f 1062 1192 881
f 1080 1114 1029
f 1081 1034 1021
f 1136 697 1063
f 1136 1032 697
f 1082 926 881
f 1192 1082 881
f 1082 1083 926
f 1061 1084 928
f 1085 1086 930
f 1086 1064 930
f 1084 1070 928
f 1034 1085 930
f 1074 1106 1107
f 1086 1106 1074
f 372 1130 1112
f 1130 1056 1112
f 1122 1124 908
f 1156 1059 1088
f 1089 1011 1070
f 1056 1137 1076
f 1130 1137 1056
f 1091 364 1114
f 954 1121 1058
f 1077 1123 954
f 1123 1121 954
f 1012 1092 1039
f 1092 1127 1039
f 1127 1093 1039
f 1243 1088 973
f 1057 1134 1075
f 1135 1034 1081
f 1138 1134 1057
f 1135 1094 1034
f 1094 1159 1034
f 1095 1096 1192
f 1096 1097 1192
f 1060 1092 1012
f 1098 1101 1061
f 1055 1098 1061
f 1099 1061 1101
f 1083 1113 1087
f 1113 1100 1087
f 1161 1099 1101
f 1101 1098 1055
f 1073 1102 1057
f 1159 1085 1034
f 1139 1151 1087
f 831 1104 824
f 1104 1103 824
f 773 1105 774
f 1102 1138 1057
f 1086 1090 1106
f 1108 1102 1073
f 1113 1083 1082
f 1061 1099 1084
f 1107 1108 1073
f 1090 1086 1085
f 1109 1235 359
f 1016 1109 359
f 1236 1231 357
f 1231 1015 357
f 1110 700 965
f 371 1203 1111
f 698 371 1111
f 1110 370 1112
f 370 372 1112
f 1112 700 1110
f 1115 1136 1063
f 1117 369 1110
f 1203 368 1118
f 1119 1120 1110
f 1116 1107 1106
f 367 1033 359
f 1077 1257 1123
f 1125 1126 1122
f 1126 1124 1122
f 1128 1127 1092
f 1185 1243 973
f 1040 1185 973
f 1129 1185 1040
f 1090 1190 1106
f 1116 1106 1190
f 1212 1160 1090
f 1100 1139 1087
f 1218 1130 372
f 1131 1079 1033
f 1169 1089 1070
f 1154 1169 1070
f 1084 1132 1070
f 1132 1154 1070
f 1133 1192 1062
f 1140 1141 1101
f 1097 1082 1192
f 1144 1132 1084
f 1142 1143 1082
f 1097 1176 1082
f 1176 1142 1082
f 1187 1144 1084
f 1227 1187 1084
f 1145 1202 1108
f 1202 1180 1108
f 1146 1102 1108
f 1159 1178 1085
f 1178 1179 1085
f 1147 1148 1085
f 1179 1149 1085
f 1149 1147 1085
f 1100 1113 1082
f 1143 1100 1082
f 1099 1227 1084
f 1107 1145 1108
f 1148 1212 1085
f 1212 1090 1085
f 1161 1227 1099
f 1116 1145 1107
f 1150 1158 1101
f 1153 1168 1152
f 1080 1091 1114
f 1102 1146 1138
f 1155 1122 1038
f 1243 1156 1088
f 1128 1093 1127
f 1157 1092 1060
f 1173 366 362
f 1090 1160 1190
f 1208 1033 367
f 1401 1162 367
f 1162 1282 367
f 1096 1164 1097
f 1164 1163 1097
f 1165 1154 1132
f 1167 1166 1132
f 1207 1131 1033
f 1208 1207 1033
f 1170 1192 1133
f 1138 1209 1134
f 1171 1135 1081
f 1146 1172 1138
f 1139 1211 1151
f 1175 1145 1116
f 1176 1177 1163
f 1177 1097 1163
f 1176 1097 1177
f 1163 1182 1181
f 1178 1239 1179
f 1143 1183 1100
f 1174 1184 1161
f 1184 1227 1161
f 1149 1179 1178
f 1144 1165 1167
f 1096 1163 1164
f 1094 1178 1159
f 1108 1180 1146
f 1123 1222 1121
f 1125 1122 1155
f 1257 1258 1123
f 1258 1222 1123
f 1212 1190 1160
f 1182 1186 1181
f 1239 1188 1179
f 1186 1142 1181
f 1144 1187 1165
f 1188 1147 1179
f 1147 1149 1179
f 1142 1176 1181
f 1080 1216 1091
f 1216 1191 1091
f 1193 1095 1192
f 1194 1216 1080
f 1195 1135 1171
f 1196 1311 1115
f 1311 1136 1115
f 1130 1217 1137
f 1195 1197 1135
f 1311 1032 1136
f 1218 1217 1130
f 1100 1183 1139
f 1190 1175 1116
f 1032 1198 698
f 1198 371 698
f 1180 1172 1146
f 1282 1199 367
f 1091 1200 364
f 1229 1163 1096
f 1202 1172 1180
f 1229 1182 1163
f 1094 1239 1178
f 1187 1154 1165
f 1198 1203 371
f 1204 1205 372
f 370 1204 372
f 1206 1446 370
f 1446 1204 370
f 1170 1208 1192
f 1208 1193 1192
f 372 1205 1218
f 1199 1208 367
f 1212 1210 1190
f 1210 1175 1190
f 1148 1246 1212
f 1183 1211 1139
f 1201 1247 1174
f 1235 1401 367
f 1200 1213 364
f 1213 1402 364
f 1214 1353 1032
f 1215 1214 1032
f 1353 1435 1032
f 1435 1198 1032
f 1227 1191 1216
f 1194 1169 1154
f 1216 1194 1154
f 1227 1216 1154
f 1217 1218 1171
f 1218 1195 1171
f 1219 1311 1196
f 1219 1209 1138
f 1304 1219 1138
f 1172 1304 1138
f 1247 1184 1174
f 1220 1257 1077
f 1223 1125 1155
f 1126 1221 1124
f 1224 1128 1092
f 1157 1224 1092
f 1225 1156 1243
f 1242 1243 1185
f 1129 1242 1185
f 1226 1242 1129
f 1170 1207 1208
f 1199 1228 1208
f 1219 1196 1209
f 1205 1195 1218
f 1143 1230 1183
f 1247 1227 1184
f 1096 1095 1229
f 1304 1172 1202
f 1095 1193 1229
f 1135 1197 1094
f 1193 1182 1229
f 1187 1227 1154
f 1197 1239 1094
f 1232 1233 1189
f 1237 1231 1236
f 1186 1238 1142
f 1188 1239 1147
f 1193 1186 1182
f 1238 1143 1142
f 1311 1215 1032
f 1239 1148 1147
f 1145 1304 1202
f 1193 1143 1186
f 1197 1148 1239
f 1186 1143 1238
f 1240 1201 1174
f 1224 1263 1128
f 1244 1245 1241
f 1212 1246 1210
f 1230 1244 1241
f 1282 1228 1199
f 1191 1283 1091
f 1283 1200 1091
f 1252 1145 1175
f 1248 1252 1175
f 1210 1246 1175
f 1254 1255 1250
f 1232 1256 1109
f 1249 1256 1232
f 374 375 1234
f 1253 374 1234
f 1126 1262 1221
f 1258 1261 1222
f 1259 1225 1243
f 1245 1260 1241
f 1143 1286 1230
f 1240 1247 1201
f 1244 1260 1245
f 1246 1248 1175
f 1230 1260 1244
f 1261 1257 1220
f 1262 1125 1223
f 1257 1261 1258
f 1263 1224 1157
f 1265 1266 977
f 1266 976 977
f 1264 1267 888
f 1268 1264 888
f 1269 1247 1240
f 1270 1266 1265
f 1271 1265 977
f 1266 1272 976
f 1273 1274 1246
f 889 888 1267
f 1274 1248 1246
f 1148 1273 1246
f 1260 889 1267
f 1271 1270 1265
f 1270 1272 1266
f 1276 1247 1269
f 888 1269 1268
f 1248 1271 977
f 1300 1277 977
f 1277 1248 977
f 1272 1274 976
f 1278 978 976
f 1280 1278 976
f 1274 1279 976
f 1279 1280 976
f 888 890 1269
f 1193 1344 1143
f 1281 1304 1145
f 1283 1284 1200
f 890 1276 1269
f 1126 1125 1262
f 1226 1259 1243
f 1226 1243 1242
f 1344 1285 1143
f 1285 1286 1143
f 1404 1347 1227
f 1287 1404 1227
f 1252 1362 1145
f 1409 1281 1145
f 1362 1409 1145
f 1197 1288 1148
f 1288 1289 1148
f 1289 1273 1148
f 1274 1272 1271
f 1248 1274 1271
f 1276 1227 1247
f 1248 1357 1252
f 1357 1362 1252
f 1290 1291 1273
f 1289 1290 1273
f 1276 1287 1227
f 1162 1298 1282
f 1292 1357 1248
f 1291 1293 1273
f 1294 1287 1276
f 890 1294 1276
f 1293 1274 1273
f 1295 889 1275
f 1296 1292 1248
f 1277 1296 1248
f 1293 1279 1274
f 1293 1297 1279
f 891 1294 890
f 1298 1228 1282
f 1284 1283 1191
f 1284 1299 1200
f 1302 1284 1191
f 1303 1298 1162
f 1347 1349 1227
f 1401 1303 1162
f 1305 1302 1191
f 1338 1208 1228
f 1208 1344 1193
f 1306 1219 1304
f 1301 1307 1300
f 1299 1213 1200
f 1299 1308 1213
f 1219 1309 1311
f 1309 1310 1311
f 1312 1195 1205
f 1314 1251 1313
f 1315 979 978
f 1345 1277 1300
f 1295 1316 889
f 1316 1317 889
f 1317 1316 889
f 1320 1299 1284
f 1321 1228 1298
f 1302 1322 1284
f 1322 1320 1284
f 1327 1322 1302
f 1325 1324 1323
f 1311 1326 1215
f 1305 1327 1302
f 1326 1214 1215
f 1321 1338 1228
f 1338 1328 1208
f 1312 1329 1195
f 1214 1326 1311
f 1330 1331 1324
f 1335 1330 1324
f 1325 1332 1324
f 1333 1452 1334
f 1336 1294 891
f 1354 1337 1452
f 1333 1354 1452
f 1328 1375 1208
f 1375 1344 1208
f 1349 1191 1227
f 1306 1309 1219
f 1329 1197 1195
f 1321 1298 1338
f 1414 1327 1305
f 1340 1414 1305
f 1205 1204 1312
f 1341 1340 1305
f 1339 1328 1338
f 1191 1419 1305
f 1310 1342 1311
f 1204 1329 1312
f 1278 1360 979
f 1295 833 889
f 834 1343 1318
f 1343 1294 1318
f 1294 1336 1318
f 1336 1319 1318
f 1345 1296 1301
f 1346 1345 1301
f 386 1346 1301
f 1315 1297 979
f 1297 1278 979
f 1296 1307 1301
f 1309 1408 1310
f 1408 1407 1310
f 1407 1342 1310
f 1204 1348 1329
f 1281 1351 1309
f 1306 1281 1309
f 1375 1350 1344
f 1348 1197 1329
f 1347 1191 1349
f 1351 1352 1309
f 1304 1281 1306
f 1352 1408 1309
f 397 1277 1345
f 1342 1214 1311
f 1355 1333 1334
f 1363 1293 1291
f 1355 1332 1333
f 1332 1354 1333
f 1292 1356 1357
f 1356 1362 1357
f 1290 1363 1291
f 1358 1359 1346
f 1359 1292 1346
f 1292 1345 1346
f 1293 1360 1278
f 1361 1360 1293
f 1292 1359 1356
f 1359 1362 1356
f 1361 1293 1363
f 1364 1409 1362
f 1289 1363 1290
f 834 1385 1343
f 1365 833 1295
f 1343 1366 1294
f 1385 1379 1343
f 1358 1396 1359
f 1369 1360 1361
f 1368 1358 1346
f 386 1368 1346
f 1369 1370 1360
f 1343 1372 1366
f 1379 1372 1343
f 1373 1367 1362
f 1342 1353 1214
f 1298 1339 1338
f 1419 1341 1305
f 1374 1446 1206
f 1339 1375 1328
f 1347 1419 1191
f 1376 1342 1407
f 1377 1358 1368
f 376 379 385
f 387 382 839
f 399 387 839
f 1371 1378 833
f 1382 1379 1385
f 1396 1358 1377
f 1387 1396 1377
f 1381 1372 1379
f 1361 1380 1369
f 1382 1381 1379
f 1380 1370 1369
f 1383 1404 1287
f 1384 1385 1383
f 1285 833 1286
f 1288 1389 1289
f 1390 1404 1383
f 1391 1409 1364
f 1385 1390 1383
f 1389 1388 1289
f 1392 1387 1368
f 386 1392 1368
f 1393 1397 1370
f 1387 1377 1368
f 1384 1382 1385
f 834 1390 1385
f 1370 1380 1388
f 1382 1384 1395
f 1394 1382 1395
f 1387 1386 1373
f 1396 1387 1373
f 1393 1370 1388
f 1398 1399 1396
f 1359 1398 1362
f 1359 1400 1398
f 386 397 1392
f 1420 1288 1197
f 1235 1303 1401
f 1299 1403 1308
f 1403 1406 1402
f 1405 1303 1235
f 1299 1406 1403
f 1409 1351 1281
f 1413 1420 1197
f 1410 1413 1197
f 1408 1376 1407
f 1419 1340 1341
f 1415 1347 1404
f 1432 1351 1409
f 1419 1411 1340
f 1320 1414 1340
f 1406 1320 1340
f 1436 1406 1340
f 1411 1436 1340
f 1423 1285 1344
f 1350 1423 1344
f 1432 1422 1351
f 1405 1438 1298
f 1438 1412 1298
f 1352 1376 1408
f 1414 1320 1322
f 1410 1197 1348
f 1204 1410 1348
f 1412 1339 1298
f 1339 1350 1375
f 1415 1419 1347
f 1352 1342 1376
f 1422 1342 1351
f 1416 1410 1204
f 1405 1298 1303
f 1406 1299 1320
f 1422 1353 1342
f 1421 1419 1415
f 1417 1105 773
f 1339 1423 1350
f 1416 1413 1410
f 1433 1413 1416
f 1436 1411 1419
f 1434 1353 1422
f 1424 833 1285
f 1456 1424 1285
f 1390 1425 1404
f 1391 1426 1409
f 1426 1427 1409
f 1430 1389 1288
f 1427 1428 1409
f 1420 1430 1288
f 1418 1429 1415
f 1429 1421 1415
f 1441 1422 1432
f 1433 1420 1413
f 1425 1494 1404
f 1494 1418 1404
f 1428 1443 1409
f 1424 831 833
f 1449 1425 1390
f 834 1449 1390
f 1430 1471 1389
f 1431 1423 1339
f 1429 1419 1421
f 1441 1434 1422
f 1418 1415 1404
f 1438 1339 1412
f 1443 1432 1409
f 1437 1436 1419
f 1353 1198 1435
f 1437 1406 1436
f 1438 1431 1339
f 1235 1438 1405
f 1437 1402 1406
f 1439 1465 1198
f 1446 1440 1204
f 1353 1484 1198
f 1484 1439 1198
f 1440 1466 1204
f 1434 1442 1353
f 1442 1484 1353
f 1464 1431 1438
f 1466 1416 1204
f 1494 1429 1418
f 1443 1434 1441
f 1503 1442 1434
f 1459 1285 1423
f 1466 1445 1416
f 1443 1503 1434
f 1445 1433 1416
f 1431 1459 1423
f 1447 1440 1446
f 834 774 1105
f 1417 834 1105
f 1337 1448 1452
f 1448 1451 1450
f 1417 1449 834
f 1417 1479 1449
f 1454 1425 1449
f 1455 1454 1449
f 1457 1456 1285
f 1459 1457 1285
f 1458 1429 1494
f 1458 1461 1429
f 1460 1459 1431
f 1464 1460 1431
f 1461 1419 1429
f 1461 1462 1419
f 1462 1437 1419
f 1438 1235 1463
f 1402 1437 1453
f 1463 1464 1438
f 1462 1453 1437
f 1484 1465 1439
f 1447 1466 1440
f 1445 1420 1433
f 1445 1467 1420
f 1467 1444 1420
f 1432 1443 1441
f 1444 1468 1420
f 1468 1430 1420
f 1426 1469 1427
f 1470 1471 1430
f 840 1397 1471
f 1470 840 1471
f 1448 1337 1451
f 1472 1448 1450
f 1452 1448 1472
f 1473 1469 1426
f 1470 1474 1477
f 1475 1454 1455
f 1476 1454 1475
f 1374 1447 1446
f 1478 400 383
f 1476 1475 1479
f 1478 404 400
f 404 1473 1426
f 1474 407 1477
f 1474 1480 407
f 1478 1473 404
f 1481 1482 1483
f 1442 1485 1484
f 1503 1485 1442
f 1485 416 1484
f 1486 1485 1503
f 1487 431 1485
f 1481 1483 1488
f 1486 1487 1485
f 1489 1469 1473
f 1490 1480 1474
f 1470 1490 1474
f 1478 1489 1473
f 1490 409 1480
f 431 416 1485
f 1453 1462 1502
f 1491 1425 1454
f 1479 1491 1476
f 1476 1491 1454
f 1492 1491 1479
f 1503 1493 1486
f 1503 1497 1493
f 1489 1427 1469
f 1495 1497 1503
f 1494 1425 1491
f 415 409 1490
f 1496 1497 1495
f 1428 1427 1489
f 1496 1499 1497
f 1500 1499 1497
f 1500 1497 1499
f 1478 1428 1489
f 1492 1494 1491
f 1501 1500 1499
f 1496 1501 1499
f 1501 1497 1500
f 1501 1498 1497
f 1503 1501 1496
f 1458 1494 1492
f 1502 1458 1492
f 1490 1430 415
f 1504 1443 1478
f 1443 1428 1478
f 1443 1504 1505
f 1506 420 1445
f 1505 1501 1503
f 420 1467 1445
f 1443 1505 1503
f 1430 1444 415
f 1502 1461 1458
f 420 415 1467
f 415 1444 1467
f 1487 1497 1507
f 1497 1505 1507
f 1508 431 1487
f 1498 1501 1505
f 1502 1462 1461
f 418 422 411
f 423 1509 424
f 423 431 1509
f 418 426 422
