v -0.439462 1.3e-05 0.022201
v 0.452199 0.038968 0.04113
v 0.365418 -0.079768 -0.09448
v 0.159942 -0.10657 0.080558
v -0.238149 0.108099 -0.056805
v -0.16612 0.10185 0.085116
v 0.419288 -0.085193 0.064754
v -0.358704 -0.095883 -0.05188
v 0.36614 0.083651 -0.094269
v -0.416359 -0.066191 0.072284
v -0.432597 0.090177 0.042908
v 0.203115 -0.122224 0.001505
v 0.450825 -0.062455 0.030206
v 0.374164 0.0588 0.083974
v 0.203115 0.122176 0.000807
v -0.316907 0.048683 -0.09512
v -0.253643 0 0.102311
v -0.191421 -0.126016 0.050584
v -0.41617 -0.089138 -0.046244
v -0.191758 0.125876 0.050807
v -0.431346 -0.030267 0.066562
v 0.24206 -0.118187 0.030462
v -0.126851 -0.116015 -0.04448
v 0.428697 -0.089221 0.024233
v 0.447145 -0.060487 0.063041
v 0.385068 0.036848 -0.100947
v 0.374939 -0.05918 0.083786
v 0.428568 0.089313 0.024202
v 0.185122 0.112688 -0.051502
v -0.212028 0.090064 -0.073774
v -0.316772 -0.048346 -0.09532
v -0.416318 0.089022 -0.046266
v -0.1661 -0.100783 0.085845
v 0.127876 0.095486 0.088713
v -0.416518 0.066385 0.072292
v -0.432783 -0.090022 0.042106
v -0.217068 -0.11954 -0.029589
v -0.379792 0.092615 0.064527
v -0.217038 0.119397 -0.030251
v -0.43879 0.038843 0.045489
v 0.244942 -0.107525 0.068347
v -0.119044 -0.128193 0.062608
v 0.185081 -0.113321 -0.050266
v 0.396061 -0.078783 -0.063531
v 0.399275 -0.093714 0.050939
v 0.241814 -0.115772 -0.033248
v 0.452176 -0.038945 0.041582
v 0.447124 0.061394 0.062892
v 0.447332 -0.072551 0.048602
v 0.439111 0.055018 0.00295
v 0.323028 0.066533 -0.102001
v 0.243643 -0.094169 0.085763
v -0.005982 -1.1e-05 0.102966
v 0.428505 -3.4e-05 0.07027
v 0.393488 0.09227 -0.036041
v 0.241811 0.115507 -0.034094
v 0.029047 0.113551 -0.05002
v -0.359406 0.089216 -0.06839
v 0.32315 -0.064852 -0.102001
v -0.358371 -0.088345 -0.069412
v -0.41751 -8e-06 -0.062629
v -0.438474 0.069216 0.016896
v -0.297548 -0.069549 0.086929
v -0.046104 0.090346 0.090216
v -0.118975 0.128105 0.062716
v 0.244942 0.107525 0.068347
v -0.297281 0.069874 0.086686
v -0.33223 -0.038283 0.088286
v -0.380395 -0.091521 0.066314
v -0.438791 -0.068671 0.018113
v -0.410659 -0.094754 1.7e-05
v -0.410589 0.094758 -2.1e-05
v -0.057343 -0.127655 0.0498
v 0.192787 -0.115271 0.060996
v -0.238074 -0.108259 -0.056543
v 0.109084 -0.119137 -0.031734
v 0.393442 -0.092318 -0.036077
v 0.433304 -0.068196 -0.00429
v 0.385384 -0.036975 -0.10087
v 0.339297 -0.090911 -0.080171
v 0.451723 -1e-05 0.034743
v 0.448942 -5.4e-05 0.059584
v 0.451144 0.059836 0.03085
v 0.408633 0.060504 -0.059643
v -0.071787 0.011422 -0.102001
v 0.128303 -0.094909 0.088898
v 0.333727 -0.000153 0.088963
v 0.230694 0.06541 0.090381
v 0.232223 -0.063074 0.090397
v 0.109093 0.118831 -0.033515
v 0.24206 0.118187 0.030462
v -0.126806 0.114491 -0.048098
v -0.411638 0.063003 -0.068194
v -0.358761 0.09592 -0.051521
v -0.043456 -0.04875 -0.102001
v 0.373752 0.033896 -0.102001
v -0.211951 -0.089417 -0.074225
v -0.412106 -0.063066 -0.068123
v -0.21308 -0.075242 0.090494
v -0.21301 0.075164 0.090491
v 0.159915 0.107564 0.079303
v -0.240238 0.111283 0.070991
v -0.057278 0.127626 0.04965
v 0.41989 0.085046 0.064591
v -0.331847 0.038707 0.088335
v -0.240338 -0.110887 0.07189
v -0.43883 -0.038831 0.045433
v -0.243891 -0.117918 -0.00166
v -0.243885 0.117936 -0.001829
v 0.02914 -0.113645 -0.049792
v -0.046957 -0.119809 -0.02815
v 0.372014 -0.038513 -0.102001
v 0.408605 -0.061054 -0.059632
v 0.448965 0.069425 0.048501
v 0.439162 -0.055229 0.00289
v 0.396298 0.078804 -0.063573
v 0.40053 -1.3e-05 -0.076011
v 0.433449 0.067788 -0.004333
v -0.28331 0.012816 -0.096662
v -0.040929 0.048781 -0.102001
v -0.046109 -0.090317 0.090206
v 0.24321 0.093767 0.08645
v 0.192823 0.115137 0.061571
v -0.348017 -0.01214 -0.092739
v -0.060559 -0.023626 -0.102001
v 0.372629 0.038255 -0.102001
v -0.09476 -0.098539 -0.06851
v 0.003893 0.105799 0.081579
v -0.046945 0.120036 -0.026595
v 0.399369 0.093727 0.051451
v 0.373299 -0.031752 -0.102001
v -0.05632 0.031372 -0.102001
f 27 7 25
f 30 5 9
f 30 9 16
f 35 21 10
f 36 10 21
f 37 19 8
f 38 20 11
f 38 11 35
f 40 35 11
f 40 21 35
f 42 18 37
f 42 4 33
f 45 24 7
f 45 22 24
f 45 41 22
f 45 7 41
f 46 24 22
f 46 22 12
f 47 25 13
f 49 24 13
f 49 13 25
f 49 25 7
f 49 7 24
f 51 16 9
f 51 9 26
f 52 7 27
f 52 41 7
f 52 4 41
f 54 27 25
f 54 14 27
f 54 48 14
f 54 25 48
f 56 9 29
f 56 55 9
f 57 29 9
f 58 30 16
f 58 5 30
f 60 8 19
f 62 11 32
f 62 40 11
f 62 1 40
f 64 34 6
f 64 53 34
f 64 17 53
f 65 39 20
f 67 38 35
f 67 6 38
f 68 35 10
f 68 63 17
f 68 10 63
f 69 10 36
f 69 36 18
f 69 63 10
f 69 33 63
f 70 19 36
f 70 1 62
f 70 62 61
f 71 36 19
f 71 19 37
f 71 18 36
f 72 39 32
f 72 32 11
f 72 11 20
f 73 12 22
f 73 22 42
f 73 42 37
f 74 42 22
f 74 22 41
f 74 41 4
f 74 4 42
f 75 23 37
f 75 37 8
f 75 8 60
f 76 37 23
f 76 23 43
f 76 46 12
f 76 43 46
f 76 12 73
f 77 44 24
f 77 3 44
f 77 24 46
f 78 13 24
f 78 24 44
f 79 44 3
f 80 46 43
f 80 75 3
f 80 77 46
f 80 3 77
f 81 47 13
f 81 2 47
f 82 47 2
f 82 2 48
f 82 48 25
f 82 25 47
f 83 2 81
f 83 81 13
f 86 33 4
f 86 4 52
f 87 27 14
f 88 34 53
f 88 87 14
f 88 53 87
f 89 52 27
f 89 86 52
f 89 53 86
f 89 87 53
f 89 27 87
f 90 15 56
f 90 56 29
f 90 29 57
f 91 56 15
f 91 28 55
f 91 55 56
f 92 57 9
f 92 9 5
f 92 5 39
f 92 90 57
f 92 39 90
f 93 58 16
f 93 32 58
f 93 62 32
f 93 61 62
f 94 39 5
f 94 5 58
f 94 58 32
f 94 32 39
f 95 59 3
f 95 3 31
f 96 26 79
f 97 60 31
f 97 31 3
f 97 75 60
f 98 60 19
f 98 31 60
f 98 61 93
f 98 70 61
f 98 19 70
f 99 63 33
f 99 17 63
f 100 64 6
f 100 17 64
f 100 67 17
f 100 6 67
f 102 38 6
f 102 6 65
f 102 65 20
f 102 20 38
f 103 39 65
f 103 91 15
f 103 65 91
f 104 14 48
f 105 67 35
f 105 17 67
f 105 68 17
f 105 35 68
f 106 42 33
f 106 33 69
f 106 69 18
f 106 18 42
f 107 40 1
f 107 1 70
f 107 21 40
f 107 70 36
f 107 36 21
f 108 71 37
f 108 37 18
f 108 18 71
f 109 72 20
f 109 20 39
f 109 39 72
f 110 43 23
f 110 23 75
f 110 80 43
f 110 75 80
f 111 76 73
f 111 73 37
f 111 37 76
f 112 79 3
f 112 3 59
f 113 78 44
f 113 44 79
f 113 13 78
f 114 48 2
f 114 2 83
f 114 83 28
f 114 104 48
f 114 28 104
f 115 83 13
f 115 50 83
f 115 84 50
f 115 13 113
f 115 113 84
f 116 84 26
f 116 26 9
f 116 9 55
f 116 55 28
f 117 79 26
f 117 26 84
f 117 113 79
f 117 84 113
f 118 83 50
f 118 50 84
f 118 84 116
f 118 116 28
f 118 28 83
f 119 85 31
f 119 31 16
f 119 16 85
f 120 16 51
f 121 86 53
f 121 53 17
f 121 17 99
f 121 99 33
f 121 33 86
f 122 88 14
f 122 34 88
f 122 101 34
f 122 14 104
f 122 104 66
f 122 66 101
f 123 91 65
f 123 66 91
f 123 101 66
f 123 65 101
f 124 93 16
f 124 16 31
f 124 98 93
f 124 31 98
f 125 95 31
f 125 31 85
f 126 51 26
f 126 26 96
f 127 97 3
f 127 3 75
f 127 75 97
f 128 101 65
f 128 65 6
f 128 6 34
f 128 34 101
f 129 90 39
f 129 39 103
f 129 103 15
f 129 15 90
f 130 91 66
f 130 66 104
f 130 104 28
f 130 28 91
f 131 96 79
f 131 79 112
f 132 85 16
f 132 16 120
f 132 120 51
f 132 125 85
f 132 95 125
f 132 51 126
f 132 59 95
f 132 126 96
f 132 96 131
f 132 131 112
f 132 112 59
