v -0.0338856 0.00360325 -0.332886
v -0.033755 -0.00717443 -0.333343
v -0.0335293 0.00493978 -0.342344
v -0.0329749 0.00279222 -0.343273
v -0.0332557 -0.00805935 -0.342596
v -0.031595 -0.0111176 -0.332768
v -0.0292682 0.00496416 -0.353178
v -0.0310288 0.00474151 -0.35184
v -0.0311008 -0.0162708 -0.334806
v -0.031051 -0.006909 -0.329887
v -0.03126 -0.000246 -0.329882
v -0.0315096 -0.012197 -0.330564
v -0.0315367 0.00749289 -0.332725
v -0.030086 -0.002122 -0.349555
v -0.0317159 0.00967386 -0.331069
v -0.030961 -0.011814 -0.330743
v -0.029989 -0.0115 -0.329385
v -0.030914 -0.0053245 -0.329714
v -0.0303045 -0.01185 -0.329525
v -0.030614 -0.011763 -0.331754
v -0.030637 -0.010257 -0.331759
v -0.0301316 0.00814071 -0.329698
v -0.030353 -0.011742 -0.329849
v -0.028142 -0.019805 -0.341191
v -0.030357 -0.011297 -0.331598
v -0.030069 -0.01125 -0.329565
v -0.030088 -0.011301 -0.329657
v -0.030324 -0.011747 -0.329745
v -0.03028 -0.011758 -0.329649
v -0.0268806 0.0161719 -0.328709
v -0.0287064 0.0172765 -0.336462
v -0.028508 0.002225 -0.352107
v -0.028622 0.000204 -0.352182
v -0.028626 -0.000977 -0.352236
v -0.02865 -0.001426 -0.352227
v -0.028647 -0.00177 -0.352236
v -0.028649 -0.002119 -0.352228
v -0.028625 -0.003396 -0.352197
v -0.028618 -0.003743 -0.352189
v -0.0286004 0.00218161 -0.352078
v -0.0294374 0.0159794 -0.340645
v -0.0291868 -0.00624673 -0.352766
v -0.027182 0.002261 -0.354276
v -0.029167 -0.0204809 -0.335683
v -0.0281875 -0.0201952 -0.333303
v -0.0254992 -0.0174329 -0.351537
v -0.0266508 -0.0196552 -0.328148
v -0.0281989 -0.0198865 -0.34258
v -0.0268228 0.0163917 -0.341389
v -0.025367 0.0149729 -0.351929
v -0.0230557 -0.0197639 -0.351412
v -0.0246 -0.020039 -0.323479
v -0.0276161 -0.00881148 -0.355992
v -0.0230667 0.0170379 -0.324314
v -0.0220285 -0.0215879 -0.322156
v -0.0227685 0.0200561 -0.338192
v -0.0229329 -0.0228071 -0.343722
v -0.024289 0.016381 -0.323113
v -0.0244499 0.0170521 -0.327469
v -0.025218 -0.0199912 -0.352217
v -0.0211702 0.0169143 -0.354663
v -0.023635 0.016489 -0.322571
v -0.02193 0.000226 -0.360431
v -0.021939 -0.000955 -0.360469
v -0.021943 -0.001404 -0.360483
v -0.021937 -0.001748 -0.360491
v -0.0254356 -0.00306374 -0.357123
v -0.0221496 -0.00764885 -0.360554
v -0.021793 0.002247 -0.360369
v -0.0219469 0.00219832 -0.360314
v -0.021923 0.016872 -0.321631
v -0.021959 0.018209 -0.335456
v -0.021855 0.018151 -0.330433
v -0.022367 0.018146 -0.337562
v -0.0194883 0.0136658 -0.358673
v -0.019643 0.0181915 -0.326162
v -0.021494 -0.021782 -0.330422
v -0.023407 -0.0203005 -0.324627
v -0.019956 -0.021433 -0.324554
v -0.02015 0.018229 -0.343272
v -0.0219614 -0.00777464 -0.363101
v -0.021413 0.002271 -0.360751
v -0.0227375 0.0042272 -0.361297
v -0.01991 -0.02179 -0.343452
v -0.020024 0.018234 -0.343369
v -0.01739 0.0050317 -0.366598
v -0.0199248 -0.0188182 -0.357748
v -0.0226735 0.0181994 -0.345276
v -0.0153772 -0.0217154 -0.35364
v -0.019842 0.018174 -0.325232
v -0.025829 0.0171259 -0.324374
v -0.020832 -0.021804 -0.328888
v -0.020873 0.018195 -0.328815
v -0.020224 -0.021807 -0.327093
v -0.020265 0.018193 -0.32702
v -0.020369 -0.021806 -0.327622
v -0.0205597 -0.0214095 -0.325958
v -0.020461 0.018193 -0.327533
v -0.021452 0.0164649 -0.323685
v -0.019995 0.017081 -0.32122
v -0.019164 -0.021758 -0.346263
v -0.01969 -0.021697 -0.326549
v -0.0200822 -0.020236 -0.343672
v -0.0209451 0.017889 -0.344795
v -0.01951 -0.02079 -0.321283
v -0.0209891 0.0181982 -0.321793
v -0.017431 0.018239 -0.348579
v -0.020647 -0.0216977 -0.345167
v -0.0188419 0.0169455 -0.345059
v -0.019579 0.018167 -0.346126
v -0.019403 0.017182 -0.321252
v -0.0155714 0.0177207 -0.326528
v -0.018662 0.018194 -0.346134
v -0.019149 0.017149 -0.321269
v -0.018946 0.0168839 -0.321232
v -0.018339 -0.021493 -0.346338
v -0.015118 0.018246 -0.351447
v -0.0129308 0.018221 -0.322296
v -0.0148619 -0.021855 -0.326291
v -0.017243 -0.021666 -0.350091
v -0.017249 -0.021747 -0.34887
v -0.0121597 0.0177529 -0.325221
v -0.013722 -0.021704 -0.353333
v -0.0166887 -0.020838 -0.343158
v -0.0157097 0.0173258 -0.341643
v -0.017724 0.0174901 -0.343167
v -0.0154906 -0.0246033 -0.326209
v -0.0155121 0.0166999 -0.342717
v -0.0149644 -0.0203072 -0.361366
v -0.0153784 0.0178897 -0.350152
v -0.010635 0.021204 -0.350848
v -0.0157887 -0.0217446 -0.341913
v -0.0160243 -0.021866 -0.336824
v -0.017292 -0.02179 -0.334989
v -0.0164483 -0.0217001 -0.333335
v -0.016268 0.0181373 -0.335261
v -0.017087 0.018204 -0.333812
v -0.015892 -0.021646 -0.342726
v -0.016515 0.01822 -0.339729
v -0.016317 0.018189 -0.339804
v -0.0165439 -0.0218565 -0.332311
v -0.0157991 -0.0217523 -0.327465
v -0.014644 0.018231 -0.351673
v -0.01665 -0.021781 -0.339367
v -0.0145596 0.0164269 -0.362125
v -0.0127323 0.00463044 -0.367533
v -0.015147 -0.021415 -0.327798
v -0.015274 0.017884 -0.327638
v -0.0127998 -0.0217368 -0.353042
v -0.0157496 -0.0212909 -0.335212
v -0.014739 -0.021756 -0.351542
v -0.014794 0.018243 -0.351456
v -0.0151887 0.0176424 -0.339712
v -0.015893 0.0178 -0.332839
v -0.0109559 0.0164743 -0.362869
v -0.015794 -0.021462 -0.332919
v -0.015753 0.017691 -0.332858
v -0.015825 -0.021485 -0.342808
v -0.015877 0.017891 -0.342766
v -0.0158826 0.0181395 -0.34263
v -0.015713 -0.021275 -0.33293
v -0.015752 -0.021595 -0.342629
v -0.015617 -0.021181 -0.332943
v -0.015752 0.017788 -0.342692
v -0.015087 -0.02144 -0.327986
v -0.015052 0.017745 -0.32788
v -0.0157063 -0.0214235 -0.342742
v -0.0157325 0.0180185 -0.342392
v -0.0156705 -0.0214305 -0.342662
v -0.015773 0.0176 -0.333982
v -0.014975 -0.021271 -0.328001
v -0.015015 0.017671 -0.32793
v -0.0148724 -0.0212469 -0.327526
v -0.0155216 0.0173675 -0.335493
v -0.0106335 0.0163699 -0.336924
v -0.015437 0.0170565 -0.335457
v -0.0145167 0.0170488 -0.327022
v -0.00891 0.01824 -0.355976
v -0.0171698 0.0209038 -0.325024
v -0.014811 0.018189 -0.326012
v -0.014609 0.018182 -0.326021
v -0.0149239 0.0181527 -0.339619
v -0.0153327 0.0181157 -0.327369
v -0.015018 0.017745 -0.339819
v -0.015054 0.017834 -0.339783
v -0.014766 0.018195 -0.325898
v -0.014537 0.018176 -0.325803
v -0.013722 0.018106 -0.326007
v -0.0134975 0.0166623 -0.343347
v -0.014649 0.018139 -0.3262
v -0.014924 0.017878 -0.339858
v -0.013016 0.000246 -0.366208
v -0.013014 -0.000935 -0.366248
v -0.013013 -0.001384 -0.366263
v -0.013005 -0.001728 -0.366268
v -0.0139955 -0.00200666 -0.366223
v -0.0135835 -0.00752761 -0.366951
v -0.0133281 -0.0214436 -0.325036
v -0.0148848 -0.0206088 -0.336578
v -0.012916 0.00224 -0.36605
v -0.0130021 0.00126386 -0.366155
v -0.014518 0.018037 -0.326353
v -0.014526 0.018105 -0.326216
v -0.0143432 0.0177658 -0.340464
v -0.013029 0.018203 -0.352718
v -0.013403 0.017972 -0.342909
v -0.013138 0.018198 -0.343055
v -0.0146344 -0.0210755 -0.340704
v -0.0146092 -0.0208457 -0.326996
v -0.007451 -0.019964 -0.342264
v -0.00836883 0.0172624 -0.345097
v -0.009671 0.018246 -0.355216
v -0.0134446 0.0179467 -0.343379
v -0.01373 -0.021652 -0.326149
v -0.0142502 -0.0216066 -0.326389
v -0.00859817 -0.0214121 -0.345351
v -0.013758 0.017885 -0.326245
v -0.013464 -0.021631 -0.3255
v -0.013627 -0.021513 -0.326272
v -0.013668 0.017833 -0.326253
v -0.013576 0.017777 -0.326258
v -0.0134687 -0.0208439 -0.343395
v -0.0130097 0.0177697 -0.326051
v -0.013435 0.017795 -0.343023
v -0.011314 0.018207 -0.353937
v -0.0123424 -0.0214747 -0.325739
v -0.0121848 -0.00900031 -0.368277
v -0.008526 -0.019984 -0.344769
v -0.00906575 0.0179782 -0.354872
v -0.0139141 0.016322 -0.325462
v -0.00187507 0.0166502 -0.363192
v -0.00791694 -0.0217211 -0.356427
v -0.0129531 0.0191697 -0.356037
v -0.00763643 -0.0211536 -0.33705
v -0.012649 -0.0169609 -0.363398
v -0.00861689 -0.0205101 -0.365047
v -0.00851909 -0.0211555 -0.335383
v -0.0101712 0.0178954 -0.326624
v -0.0102645 -0.0217495 -0.349314
v -0.010233 0.018244 -0.349676
v -0.010304 0.018244 -0.349413
v -0.01032 0.018241 -0.349244
v -0.0100883 0.0181744 -0.348213
v -0.010106 -0.0217585 -0.347653
v -0.0100426 -0.0216868 -0.348351
v -0.0102095 0.0182005 -0.348407
v -0.010148 -0.021755 -0.349976
v -0.010122 0.018246 -0.350123
v -0.010102 0.018233 -0.349881
v -0.010005 -0.021755 -0.349789
v -0.01003 -0.021747 -0.350097
v -0.010125 -0.0216703 -0.348758
v -0.0099895 -0.021628 -0.349277
v -0.010134 0.018245 -0.350006
v -0.009912 0.018237 -0.347044
v -0.00185401 -0.0217284 -0.353053
v -0.0064936 -0.0217065 -0.350444
v -0.00857 -0.021715 -0.350003
v -0.002809 -0.021743 -0.352555
v -0.005099 -0.021737 -0.351601
v -0.001619 0.018241 -0.353291
v -0.001772 0.01826 -0.353479
v -0.002757 0.018235 -0.352334
v -0.009993 0.01821 -0.349802
v -0.00653 0.018219 -0.350755
v -0.00840637 0.0181854 -0.349764
v -0.010068 -0.0217346 -0.349559
v -0.009951 -0.021669 -0.348028
v -0.009929 0.018177 -0.349643
v -0.0100014 0.0181218 -0.349362
v -0.0101244 0.0182166 -0.349526
v -0.009911 -0.021747 -0.349738
v -0.0100165 0.018107 -0.34923
v -0.001643 0.018224 -0.353158
v -0.001522 -0.021722 -0.353066
v -0.001579 0.018191 -0.352999
v -0.0078 0.016458 -0.347047
v -0.009661 0.018157 -0.347029
v -0.009868 0.018119 -0.34949
v -0.009859 -0.021411 -0.348863
v -0.009829 0.018035 -0.347805
v -0.0098978 -0.0214709 -0.348501
v -0.00986231 0.0181151 -0.34773
v -0.0095185 -0.021609 -0.34706
v -0.00893319 -0.01996 -0.346451
v -0.008883 -0.01996 -0.346635
v -0.0098145 -0.02155 -0.348001
v -0.00982212 -0.0214264 -0.348253
v -0.00989184 0.0179218 -0.348298
v -0.001371 -0.021624 -0.352946
v -0.001517 0.018134 -0.352847
v -0.00984024 0.0179467 -0.348049
v -0.00985449 -0.0216849 -0.347703
v -0.00976233 0.0179773 -0.347761
v -0.001476 0.018095 -0.352744
v -0.009781 0.01781 -0.347967
v -0.009508 0.018053 -0.34696
v -0.008908 -0.019961 -0.346
v -0.009736 -0.021326 -0.348041
v -0.00978789 -0.0214931 -0.348007
v -0.009983 0.017995 -0.348696
v -0.00460435 -0.0198348 -0.347032
v -0.009697 0.017759 -0.347771
v -0.009725 -0.021424 -0.3479
v -0.009744 0.017782 -0.347862
v -0.00922562 0.0178598 -0.346536
v -0.009666 -0.02139 -0.347774
v -0.008791 -0.019961 -0.345827
v -0.008829 0.016439 -0.34576
v -0.008812 -0.019961 -0.345689
v -0.00968943 -0.0212874 -0.347913
v -0.008567 0.016423 -0.344853
v -0.00906888 -0.0213032 -0.346351
v -0.00647506 0.0182345 -0.356338
v -0.009061 0.017687 -0.34619
v -0.0073734 -0.0222962 -0.322899
v -0.0119122 -0.0206106 -0.353459
v -0.009144 0.017734 -0.346351
v -0.009086 0.017806 -0.346179
v -0.00608785 -0.019674 -0.344585
v -0.0111824 -0.0202698 -0.326626
v -0.00176373 0.0165475 -0.327638
v -0.00850628 0.0180507 -0.335885
v -0.00767437 0.0176931 -0.341531
v -0.00800202 -0.0217624 -0.327645
v -0.0079267 0.0180947 -0.33619
v -0.00749617 -0.0211743 -0.332158
v -0.00832691 -0.0200476 -0.328319
v -0.00614169 0.0172216 -0.344582
v -0.0004 0.021218 -0.354514
v -0.00787733 0.0167509 -0.333509
v -0.00784034 0.0180197 -0.327016
v -0.00222095 -0.0201161 -0.327023
v -0.00536924 0.0169312 -0.334473
v -0.00610069 -0.021716 -0.356458
v -0.00614316 -0.0212921 -0.334781
v -0.00364961 0.0172909 -0.356548
v -0.000161065 0.0165559 -0.357148
v -0.004336 0.018185 -0.332579
v -0.002945 -0.021632 -0.35834
v -0.002174 0.018146 -0.358573
v -0.00459162 0.0164995 -0.345387
v -0.00212194 0.00482126 -0.370133
v -0.00706618 0.0182282 -0.333425
v -0.004303 -0.007012 -0.370531
v -0.00443763 0.00480838 -0.370682
v -0.006286 0.018042 -0.349892
v -0.004808 0.01812 -0.345794
v -0.005922 0.018234 -0.345201
v -0.006084 0.018148 -0.333721
v -0.005985 0.018134 -0.333692
v -0.00555064 -0.0213539 -0.344788
v -0.006001 0.017766 -0.349256
v -0.00472 0.017929 -0.345965
v -0.004734 -0.021435 -0.346196
v -0.004744 0.017761 -0.346136
v -0.005413 0.018112 -0.333284
v -0.004714 0.017805 -0.346041
v -0.00605049 -0.0215715 -0.345012
v -0.005748 -0.021502 -0.344879
v -0.00574212 -0.0217021 -0.34502
v -0.005561 -0.021502 -0.344878
v -0.000470305 -0.0217435 -0.357638
v -0.003536 0.018186 -0.356985
v 0.000684466 0.0182464 -0.357709
v -0.00510044 -0.0215925 -0.345071
v -0.005102 -0.021411 -0.344998
v -0.000303 -0.021615 -0.358741
v -0.002218 0.018269 -0.357497
v -0.00287601 -0.0200524 -0.34678
v -0.0080476 -0.0238724 -0.358188
v -0.002875 -0.021743 -0.352424
v -0.005034 -0.021456 -0.345068
v -0.00263471 0.0180224 -0.32773
v -0.00214376 -0.0208488 -0.351059
v -0.001571 0.016455 -0.34941
v -0.00480247 -0.0213705 -0.345251
v -0.00185336 -0.0216785 -0.328505
v -0.004885 -0.021411 -0.345191
v -0.004707 -0.021675 -0.351291
v -0.002753 0.000261 -0.368948
v -0.002739 -0.00092 -0.368986
v -0.0035296 -0.0034677 -0.36928
v -0.002725 -0.001712 -0.369003
v -0.002733 -0.002062 -0.369001
v -0.002745 -0.003339 -0.368965
v -0.002687 -0.003692 -0.368965
v -0.002744 0.002301 -0.368807
v -0.00283036 0.00224352 -0.368868
v -0.00473374 -0.0216244 -0.345791
v -0.00482351 0.0180946 -0.345354
v -0.004084 -0.02174 -0.350877
v -0.004562 -0.02168 -0.351183
v 0.00110848 -0.0199258 -0.357295
v -0.004457 -0.021686 -0.351088
v -0.004375 -0.021676 -0.350965
v -0.002933 -0.021743 -0.352226
v -0.00405437 0.018399 -0.351293
v -0.00252932 -0.0191301 -0.364977
v -0.00405161 0.016207 -0.347279
v -0.00235759 0.0180068 -0.331947
v -0.000494544 0.0181902 -0.357235
v -0.00420336 -0.0228562 -0.324827
v -0.002696 0.01821 -0.328754
v -0.00251029 -0.0214418 -0.346496
v -0.002691 0.018169 -0.351341
v -0.002555 0.018057 -0.351269
v -0.002701 0.018151 -0.351623
v -0.002671 0.018137 -0.351492
v -0.000213 0.002315 -0.369011
v -0.00111085 0.0181621 -0.347177
v -0.002509 0.018215 -0.329358
v -0.002692 0.018236 -0.328899
v -0.002323 0.018213 -0.329962
v -0.00264316 -0.0076741 -0.369947
v -0.001401 -0.008977 -0.370632
v -0.00221221 0.0181576 -0.346343
v -0.00153582 0.0180281 -0.330386
v -0.002414 0.018216 -0.329858
v -0.002458 0.018216 -0.329525
v -0.001023 0.017903 -0.34753
v -0.000845331 0.0168953 -0.347365
v -0.000730842 -0.0202114 -0.366048
v -0.001637 -0.021374 -0.346345
v -0.001944 -0.021495 -0.34637
v -0.0011882 -0.020149 -0.346457
v -0.001291 0.016451 -0.346336
v -0.001985 0.017808 -0.346239
v -0.0021816 -0.0216803 -0.34649
v -0.001885 0.017764 -0.346243
v -0.00107262 -0.0215786 -0.346817
v 0.00714743 -0.0169349 -0.36532
v -0.00111541 -0.0207296 -0.329991
v -0.001758 -0.021495 -0.346387
v -0.001709 0.017848 -0.346279
v -0.001718 0.017764 -0.346272
v -0.0013609 0.0180241 -0.346503
v -0.001675 -0.021537 -0.346434
v -0.001539 0.01823 -0.353192
v -0.001694 0.01825 -0.353383
v -0.000784527 -0.0210082 -0.357053
v -0.001579 -0.021495 -0.346439
v -0.001406 0.018255 -0.353194
v -0.001508 0.017809 -0.346354
v 0.016642 0.0178505 -0.335083
v -0.00135643 0.0182078 -0.352933
v -0.001422 0.017765 -0.346404
v -0.001315 0.018041 -0.352653
v -0.001342 0.01781 -0.346463
v -0.00137172 -0.0217294 -0.353185
v -0.000832 -0.019951 -0.347111
v -0.001019 -0.02174 -0.353112
v -0.001071 0.01824 -0.352904
v -0.00131959 0.018259 -0.353138
v -0.00136272 -0.0216886 -0.353022
v -0.001043 -0.021714 -0.352956
v -0.0011875 0.018168 -0.352804
v -0.001095 -0.021667 -0.352874
v -0.00112551 0.0178284 -0.346691
v -0.00114 0.017991 -0.346793
v -0.00103 0.017902 -0.346953
v 0.00569083 -0.0199071 -0.365918
v -0.000987 0.017902 -0.347338
v -0.000989 0.017857 -0.347437
v 0.00246114 0.0175013 -0.366409
v -0.000948 0.017956 -0.352362
v -0.00069997 -0.0214432 -0.352193
v 0.000161 0.016455 -0.34972
v 0.000199 -0.019945 -0.349787
v -0.00077017 0.0179803 -0.352181
v -0.000843 -0.021492 -0.352426
v -0.000853292 0.0177387 -0.325046
v -0.000619872 0.0181675 -0.352235
v -0.000528818 0.0179304 -0.351759
v -0.000607 0.017872 -0.351844
v -0.000443957 -0.0214858 -0.3518
v -0.000594 -0.021369 -0.351966
v 0.000281 -0.019945 -0.349651
v 0.000244 0.016455 -0.349584
v -0.000557 0.017841 -0.35173
v -0.000536 -0.021342 -0.351882
v -0.000505 0.017809 -0.351612
v -0.000459 0.018253 -0.352408
v -4.8e-05 -0.020015 -0.332321
v 0.00218 -0.020008 -0.328415
v -0.000466 -0.021293 -0.351683
v -0.000394774 -0.0215429 -0.351776
v -0.000488747 0.0180512 -0.351813
v 0.000371 -0.019945 -0.349484
v 0.000334 0.016455 -0.349417
v -0.000440737 0.0182249 -0.352163
v -0.000368 -0.021204 -0.351468
v 0.000876 -0.019953 -0.348575
v 0.001243 -0.020036 -0.328432
v -9.07174e-05 0.0177806 -0.350609
v -0.000226712 0.0181573 -0.351386
v -0.000306636 -0.0215835 -0.351644
v 0.000809 0.016443 -0.348519
v 0.000355998 -0.0211323 -0.349616
v -1e-05 0.018046 -0.35073
v 1e-05 -0.021509 -0.350766
v 8.15e-05 -0.021658 -0.350998
v 5.4e-05 -0.021741 -0.351747
v 5.2e-05 0.018259 -0.351624
v 0.000875084 0.0166228 -0.328289
v 0.000182 -0.021723 -0.351121
v -9.98904e-05 0.0165918 -0.332008
v 0.0169903 -0.0247174 -0.342778
v 0.00398696 0.0203056 -0.35915
v 0.00490724 -0.0209117 -0.360787
v 0.000182 0.017631 -0.349903
v 0.000134 0.01775 -0.350081
v 0.000287 -0.021742 -0.351215
v 0.00021 0.018254 -0.351111
v -0.000244391 0.0165727 -0.329222
v -6.20121e-05 -0.0215975 -0.33135
v -0.000199528 -0.0217231 -0.351911
v 0.000126 0.018258 -0.351406
v 0.000199796 0.0182978 -0.331834
v 0.00145161 0.0163349 -0.33274
v 0.00052898 0.0178849 -0.348694
v 0.0040531 0.0181694 -0.334055
v 0.000537 -0.0217 -0.349981
v 0.000396871 -0.0203183 -0.328883
v 0.00207809 -0.0205207 -0.345808
v 0.001835 0.01645 -0.345983
v 0.000547 0.017746 -0.332393
v 0.00587099 -0.0217552 -0.334482
v 0.000635 0.017745 -0.332445
v 0.002659 -0.019965 -0.33331
v 0.000942 -0.02093 -0.34887
v 0.00530519 0.0179805 -0.351167
v 0.004583 -0.021711 -0.357624
v 0.00562579 -0.0217324 -0.357131
v 0.000776 -0.020355 -0.332626
v 0.00076 0.017744 -0.332519
v 0.00747398 0.0182785 -0.356945
v 0.002115 -0.020367 -0.328793
v 0.000909 -0.020392 -0.332676
v 0.000993 -0.021424 -0.349456
v 0.001007 -0.020458 -0.332702
v 0.005121 -0.021685 -0.351335
v 0.00550111 -0.020508 -0.350734
v 0.005318 -0.021482 -0.35114
v 0.00457902 -0.0204243 -0.334909
v 0.0167518 0.0205259 -0.338141
v 0.0106083 0.0165971 -0.345805
v 0.00863111 0.0168687 -0.349455
v 0.00281051 -0.00253612 -0.369284
v 0.00528338 -0.0216499 -0.35079
v 0.001777 -0.020288 -0.328614
v 0.00537166 0.0179349 -0.342806
v 0.001892 -0.020274 -0.32863
v 0.001976 -0.020192 -0.328601
v 0.00734872 -0.0200363 -0.331942
v 0.00759098 -0.0211359 -0.356185
v 0.00692403 0.0172764 -0.356152
v 0.00299291 0.0181627 -0.357229
v 0.00687701 -0.0216953 -0.34249
v 0.00716935 0.0165377 -0.33173
v 0.005954 0.018187 -0.334192
v 0.0200628 -0.0217943 -0.337796
v 0.00738165 -0.0223993 -0.359234
v 0.005122 -0.021747 -0.334658
v 0.00714837 0.0165688 -0.334337
v 0.009217 -0.021711 -0.34916
v 0.0261716 -0.020207 -0.342785
v 0.00904084 0.0183878 -0.348757
v 0.006874 -0.007001 -0.370367
v 0.004754 0.016764 -0.334866
v 0.00685017 0.0182205 -0.356627
v 0.0045995 0.016433 -0.335022
v 0.00448743 0.0166047 -0.334868
v 0.00802705 0.0188088 -0.359545
v 0.00471 0.016611 -0.334937
v 0.00490911 0.0164644 -0.33514
v 0.00723583 -0.0212215 -0.34205
v 0.004992 0.01657 -0.335018
v 0.006187 0.01649 -0.353615
v 0.00450579 0.0167826 -0.349425
v 0.00559961 0.0171601 -0.334826
v 0.0060042 0.0178576 -0.350282
v 0.00826739 0.00606508 -0.368575
v 0.008647 -0.021339 -0.349513
v 0.007844 0.002265 -0.368194
v 0.00723848 0.00393612 -0.369448
v 0.00787 0.000269 -0.368311
v 0.007888 -0.002052 -0.368428
v 0.007865 -0.003329 -0.368398
v 0.007859 -0.003676 -0.36839
v 0.00787988 -0.000990116 -0.36842
v 0.007897 -0.001702 -0.368427
v 0.005952 0.017942 -0.334468
v 0.005975 0.017836 -0.334497
v 0.00601 0.017738 -0.334483
v 0.00564099 -0.0203993 -0.33969
v 0.00562944 0.0168295 -0.339705
v 0.0101807 -0.0201178 -0.340698
v 0.00942167 0.0175943 -0.34093
v 0.00712647 0.0173932 -0.333415
v 0.00725188 -0.0207685 -0.333056
v 0.00540201 0.0180793 -0.338741
v 0.0061637 -0.0220962 -0.336827
v 0.00690834 -0.0201228 -0.334423
v 0.00797573 -0.0216608 -0.357316
v 0.00717 -0.021577 -0.357983
v 0.00777564 0.0171955 -0.334851
v 0.008329 0.018135 -0.35752
v 0.0106978 -0.0202973 -0.364914
v 0.00730605 0.016311 -0.364236
v 0.0068325 -0.0209755 -0.333109
v 0.00991274 0.0176959 -0.354946
v 0.010015 -0.021739 -0.355408
v 0.0136012 0.0145975 -0.363116
v 0.00873268 0.0170105 -0.360891
v 0.00859577 -0.021573 -0.341121
v 0.00950045 -0.0210587 -0.357248
v 0.00916025 0.0164686 -0.357259
v 0.007481 -0.021323 -0.352071
v 0.0080712 -0.0201175 -0.353725
v 0.00795828 -0.020339 -0.351527
v 0.00757815 -0.0215723 -0.351912
v 0.007527 -0.021444 -0.352193
v 0.00822657 -0.00755824 -0.369277
v 0.009656 -0.008968 -0.36957
v 0.00887807 0.00332172 -0.369008
v 0.00784743 0.00201647 -0.368259
v 0.0118831 -0.00575184 -0.367349
v 0.00843781 -0.0201226 -0.34939
v 0.00842965 -0.0216235 -0.353723
v 0.00712771 -0.0201833 -0.334848
v 0.00755498 0.0181717 -0.34254
v 0.00928197 0.0182121 -0.357113
v 0.009888 0.016438 -0.334891
v 0.009887 -0.021236 -0.33505
v 0.00869303 -0.0213618 -0.349493
v 0.008801 0.018009 -0.349354
v 0.008814 -0.021051 -0.349498
v 0.008891 -0.02126 -0.349493
v 0.00884 -0.021348 -0.349478
v 0.009135 -0.021592 -0.349415
v 0.009055 -0.021371 -0.349529
v 0.008945 0.017877 -0.34943
v 0.00906529 -0.0211913 -0.349567
v 0.00962783 0.0181466 -0.349948
v 0.0124038 0.0183685 -0.336595
v 0.00919 -0.021481 -0.349556
v 0.0108859 -0.0214934 -0.347075
v 0.0110906 -0.0216764 -0.339221
v 0.010172 -0.021559 -0.335502
v 0.00947645 -0.0215609 -0.349844
v 0.0105938 0.017741 -0.346639
v 0.0141822 0.0164794 -0.362116
v 0.0144098 -0.0202074 -0.360871
v 0.0111625 -0.0198018 -0.346392
v 0.0132463 -0.0216206 -0.338967
v 0.01376 -0.021254 -0.337587
v 0.0135465 -0.0215845 -0.337892
v 0.013578 0.017974 -0.337681
v 0.014502 0.0166707 -0.337992
v 0.0139845 -0.0217169 -0.347032
v 0.0144938 -0.0208407 -0.338162
v 0.011796 0.018113 -0.338964
v 0.0129029 -0.0216656 -0.347231
v 0.011384 0.018275 -0.354531
v 0.0130544 -0.0213347 -0.346595
v 0.0138032 0.0181745 -0.346424
v 0.017719 -0.00862386 -0.365311
v 0.013163 0.018158 -0.338634
v 0.013104 0.018206 -0.338495
v 0.0131223 0.017962 -0.338896
v 0.0136001 0.0175414 -0.339173
v 0.01486 0.018255 -0.346241
v 0.012633 0.017557 -0.346504
v 0.0175736 0.0182504 -0.350562
v 0.014084 -0.01995 -0.339161
v 0.012932 0.017617 -0.346316
v 0.0127436 0.0177866 -0.346611
v 0.0134969 0.0182273 -0.338264
v 0.0136065 -0.021169 -0.34572
v 0.013274 0.018139 -0.33865
v 0.013225 0.01824 -0.338279
v 0.013187 0.017733 -0.346146
v 0.013245 0.017937 -0.338937
v 0.0137271 0.0179091 -0.338847
v 0.01351 -0.021679 -0.338108
v 0.013514 -0.021693 -0.338226
v 0.0136423 -0.0215747 -0.337909
v 0.013631 -0.021602 -0.337991
v 0.013682 0.018014 -0.337832
v 0.013621 0.018072 -0.337889
v 0.013795 -0.021384 -0.337766
v 0.0165493 0.0182303 -0.342814
v 0.014093 0.017468 -0.338706
v 0.017773 0.000242 -0.364674
v 0.0142109 -0.0213387 -0.345125
v 0.014654 0.01765 -0.344142
v 0.0143708 0.0178249 -0.344752
v 0.014208 0.017426 -0.338532
v 0.0173184 0.00436398 -0.367189
v 0.016459 -0.021651 -0.342067
v 0.016267 -0.021385 -0.342311
v 0.0160674 0.0177531 -0.341949
v 0.0176332 0.0167958 -0.360988
v 0.0135112 -0.0241297 -0.354591
v 0.0212781 0.0168587 -0.354832
v 0.0184025 0.00597494 -0.364837
v 0.0160187 -0.0194652 -0.361074
v 0.0167099 -0.0217487 -0.343099
v 0.0149706 0.0166052 -0.359597
v 0.01585 -0.02109 -0.342371
v 0.0167818 -0.0216082 -0.340749
v 0.0158949 0.0167132 -0.339736
v 0.017705 -0.005701 -0.364469
v 0.017695 0.002295 -0.364447
v 0.017723 0.001537 -0.364495
v 0.0162718 -0.0200368 -0.339572
v 0.017813 -0.002049 -0.3646
v 0.017781 -0.003326 -0.36458
v 0.017772 -0.003673 -0.364574
v 0.017761 0.000272 -0.364494
v 0.0177999 -0.000907102 -0.36459
v 0.017821 -0.001699 -0.364597
v 0.0162622 0.0165613 -0.341205
v 0.0158544 -0.0202501 -0.340662
v 0.016171 0.017691 -0.340166
v 0.0214701 -0.017631 -0.358503
v 0.016222 0.017672 -0.34007
v 0.016279 0.017639 -0.339973
v 0.0164138 0.0181853 -0.340582
v 0.0175036 -0.0210591 -0.341752
v 0.0250052 -0.0218394 -0.345448
v 0.0170206 0.0177622 -0.339735
v 0.0231727 0.015359 -0.3559
v 0.0200757 0.0178788 -0.343183
v 0.0223868 -0.0216237 -0.343925
v 0.0213794 0.0182758 -0.343628
v 0.0234946 -0.0200243 -0.343595
v 0.0238562 0.0164208 -0.344864
v 0.0201506 -0.00704777 -0.365414
v 0.0190658 0.00353918 -0.364849
v 0.020839 -0.00572571 -0.362646
v 0.0219385 -0.0203486 -0.355579
v 0.0211304 -0.00724435 -0.356085
v 0.0209649 0.00566329 -0.355854
v 0.023096 -0.019187 -0.357124
v 0.0211674 0.00302324 -0.355921
v 0.023082 -0.006094 -0.353137
v 0.0216834 0.0165548 -0.3539
v 0.0219616 -0.0200312 -0.354002
v 0.0239217 0.0190528 -0.347101
v 0.0248725 -0.00928931 -0.359811
v 0.0230134 -0.0097084 -0.352591
v 0.0240475 -0.020869 -0.346311
v 0.0240699 -0.0200515 -0.353829
v 0.0253304 -0.00719805 -0.351181
v 0.0245561 0.0170289 -0.34465
v 0.0229613 0.0179465 -0.346267
v 0.024565 -0.006005 -0.350637
v 0.024564 0.006001 -0.350643
v 0.0238717 0.0187152 -0.343328
v 0.025141 -0.019928 -0.345441
v 0.024717 -0.006215 -0.350979
v 0.024806 -0.006312 -0.351037
v 0.0236852 0.0168822 -0.353159
v 0.025098 0.0173987 -0.341958
v 0.0263585 0.0037284 -0.358764
v 0.024908 -0.006464 -0.351103
v 0.0253411 0.00380564 -0.35107
v 0.02526 -0.008388 -0.351142
v 0.0257611 -0.0175496 -0.352822
v 0.025612 -0.019934 -0.347189
v 0.0260042 0.0166931 -0.347583
v 0.024578 0.016907 -0.347583
v 0.0297506 -0.0133198 -0.350468
v 0.0252286 0.0158905 -0.354684
v 0.025234 -0.019924 -0.347575
v 0.0254022 0.016464 -0.347726
v 0.0255353 -0.0199019 -0.348975
v 0.025254 -0.007717 -0.351039
v 0.0285594 -0.00892216 -0.357435
v 0.0258773 0.016082 -0.348138
v 0.0288045 -0.0100804 -0.353003
v 0.028571 0.002308 -0.354473
v 0.0261216 0.016369 -0.347112
v 0.0270341 -0.0129197 -0.346989
v 0.028125 -0.015797 -0.348517
v 0.027492 0.00467751 -0.35765
v 0.0282513 0.0125944 -0.34941
v 0.0282798 0.00802743 -0.351843
v 0.0269345 -0.00642921 -0.358201
v 0.0284566 -0.0115758 -0.350044
v 0.0288602 0.00825285 -0.348709
v 0.029915 -0.000228 -0.352843
v 0.02982 -0.00219901 -0.34921
v 0.029499 0.008717 -0.350553
v -0.0312523 0.00160309 -0.329226
v -0.0305984 -0.00320142 -0.32957
v -0.0257974 -0.0179934 -0.318154
v -0.0290803 0.0111829 -0.32676
v -0.0268142 0.0136197 -0.327313
v -0.0292014 -0.0144227 -0.327665
v -0.0257406 0.0152174 -0.326216
v -0.0248785 0.0154764 -0.316989
v -0.0254491 -0.019003 -0.325844
v -0.0261454 -0.0179278 -0.327214
v -0.022183 -0.0200834 -0.314923
v -0.0248349 -0.0171615 -0.315744
v -0.00842152 -0.00287384 -0.0018096
v -0.0245824 -0.00521395 0.00241516
v -0.0251528 0.00156535 0.00103895
v -0.00704633 -0.00157731 0.00497349
v -0.0238278 -0.0159488 -0.010969
v -0.0224407 0.0162582 -0.325384
v -0.0200908 -0.0201421 -0.320051
v -0.023879 0.0121538 0.0315625
v -0.023329 -0.016842 0.033766
v -0.0240924 0.0081861 0.0378217
v -0.0218174 -0.0117822 0.0433957
v -0.022733 -0.017137 -0.008012
v -0.0233459 0.0116179 0.0353904
v -0.0218942 -0.0167058 -0.024585
v -0.0240002 -0.0156494 0.0358307
v -0.0201836 0.0108972 0.0399138
v -0.0201589 -0.0198146 -0.325106
v -0.021713 -0.01736 -0.016709
v -0.0230211 0.0113141 -0.0220684
v -0.0202723 -0.0204005 -0.31682
v -0.02151 0.012635 -0.016298
v -0.022032 -0.017411 0.034154
v -0.0222326 0.015619 -0.313661
v -0.019306 0.00500284 0.0466579
v -0.0215631 0.0127124 0.0341186
v -0.019576 -0.0185 -0.030273
v -0.019053 -0.01792 -0.034806
v -0.0201555 -0.0173073 0.0311008
v -0.02093 0.012526 0.031704
v -0.0119249 0.012862 0.00718319
v -0.018993 0.013131 -0.035162
v -0.017857 0.014569 -0.032701
v -0.004102 -0.017386 -0.014737
v -0.00811362 0.012822 -0.0113477
v -0.018453 0.01412 -0.034591
v -0.0212479 -0.015171 0.0402203
v -0.0204556 -0.017224 0.0351816
v -0.0206595 0.0168425 -0.317739
v -0.019818 0.012065 0.030974
v -0.0200528 0.0162507 -0.317331
v -0.0204511 0.00734736 0.033927
v -0.00707999 0.012836 0.0118153
v -0.0196709 -0.0198957 -0.319432
v -0.0193289 -0.00555611 -0.318122
v -0.007136 0.012371 0.012522
v -0.007489 0.015885 -0.30375
v -0.0182895 -0.0140994 0.0410535
v -0.0196822 -0.00932478 0.0321988
v -0.0203445 -0.0182389 -0.0240987
v -0.00134483 -0.0238646 -0.0874912
v -0.0143716 0.0064854 0.0471004
v -0.0067809 -0.0172764 0.0121823
v -0.00597016 0.0110135 0.0117494
v -0.01864 -0.004927 -0.31721
v -0.0191105 0.00140622 -0.318501
v -0.0183656 -0.00450575 -0.317917
v -0.018538 0.001023 -0.317501
v -0.006333 -0.010493 0.012404
v -0.00687399 -0.0196868 -0.326916
v -0.0181516 0.00913042 0.040933
v 0.006591 -0.005308 -0.289353
v 0.006292 0.001476 -0.289708
v -0.0188869 0.00347187 0.0323824
v -0.0194345 0.0159023 -0.31962
v 0.0096 -0.004421 -0.287409
v -0.0173493 -0.0095762 0.0409426
v 0.009453 0.000729 -0.287531
v -0.0181102 -0.0081027 0.0325192
v -0.0178446 0.000858873 -0.318711
v -0.005204 0.01835 -0.07613
v -0.017423 0.00307 0.032361
v -0.004884 -0.023185 -0.076231
v -0.004464 0.019105 -0.075503
v -0.0168199 -0.0116089 0.0427935
v -0.004083 -0.023811 -0.07473
v -0.0147803 0.00294921 0.0331245
v 0.00184747 0.0203367 -0.0888917
v -0.0139683 -0.0114856 0.0473361
v -0.0159168 0.00374906 0.042276
v -0.013156 -0.009605 0.045596
v 0.0110692 0.0181869 -0.0625314
v -0.0145018 0.00666513 0.0457086
v -0.0161393 0.00386528 0.0495682
v -0.0134753 -0.00800209 0.0512517
v -0.0146618 -0.0175363 0.00286228
v -0.0146429 -0.00819993 0.0419104
v -0.0100521 0.00333883 0.051817
v -0.011463 -0.009039 0.050868
v -0.0128342 0.0142692 -0.00143234
v -0.0133385 -0.00689799 0.032682
v -0.0139896 0.00218892 0.0385204
v -0.00934125 -0.00892066 0.047466
v -0.00942138 0.00389838 0.0474382
v -0.0127486 -0.0191123 0.00111777
v -0.0126585 0.0144515 0.00326522
v -0.0115138 -0.00680063 0.0410405
v -0.00431332 -0.0191141 -0.296842
v -0.0133507 0.0131898 -0.00462485
v -0.0083031 -0.0180068 0.0111364
v -0.00714923 0.000598257 0.0537948
v -0.0105104 -0.0198506 -0.00300542
v -0.00858041 0.0143868 0.00227257
v -0.00858519 -0.00708763 0.0361232
v -0.00757847 -0.00757438 0.0526645
v -0.0100875 0.00449454 0.0479014
v -0.00615752 0.0137078 -0.0119412
v -0.0123681 -0.00726223 0.0287922
v -0.00951659 0.00294828 0.045556
v -0.00623348 0.00173916 0.0457469
v -0.00892444 0.00184267 0.0358258
v -0.00873532 0.00211715 0.027056
v -0.0172308 -0.0042723 -0.318642
v -0.0108508 -0.0183605 -0.00807533
v -0.00142281 0.000793765 -0.321865
v -0.00388869 0.0155522 -0.29643
v 0.00639994 -0.0152361 -0.28219
v -0.0080541 -0.0191661 0.00401799
v -0.00843429 0.0144264 -0.00265543
v -0.00729804 0.0143569 0.0105879
v -0.00870147 -0.0191986 0.0100337
v -0.008143 -0.018813 -0.002305
v -0.007653 0.013903 -0.003592
v -0.00305669 -0.0191618 -0.0126485
v -0.00153086 0.00282406 0.0525153
v -0.00524239 0.0143538 0.00729233
v -0.0166606 0.0163836 -0.323706
v -0.00601627 -0.0188725 0.00610822
v -0.00276288 0.0152812 -0.0104999
v -0.00314227 -0.00735387 0.0309899
v -0.00618282 -0.0197071 -0.0075877
v -0.00297004 -0.00812451 0.048309
v -0.00259247 -0.0197982 -0.323029
v -0.00673723 -0.00679627 0.0454522
v -0.00029387 -0.00845283 0.0393005
v -0.00166787 -0.00741779 0.0249862
v -0.00160667 0.00139186 0.0289186
v -0.00437043 -0.000681353 0.0550353
v -6.70021e-05 0.00148263 -0.323406
v 0.00188751 -0.0199519 0.0108153
v -0.00632296 0.00335652 0.0484403
v -0.00399219 0.00393966 0.0126604
v -0.0036839 -0.00827333 0.0129622
v -0.0053975 -0.00902064 0.0123003
v -0.00588454 -0.0183784 0.0117154
v -0.00645033 0.00363591 0.036798
v 4.53345e-05 0.0159872 -0.329914
v 0.000683 -0.01971 -0.329723
v -0.00338038 -0.0186521 -0.00796317
v -0.00492179 -0.017765 -0.0131044
v -0.001122 -0.006635 0.04098
v -0.000420883 0.00171656 0.0311874
v 0.00301754 0.0142786 0.0134202
v 0.00213741 -0.00638115 0.0390569
v -0.000359 -0.006903 0.045911
v 0.00100083 0.00339884 0.0357752
v 0.000501761 0.0163546 -0.324402
v -0.00271993 0.0140909 0.00821994
v 0.00447984 -0.0192441 0.0120633
v 0.000313191 0.00171884 0.0403825
v -0.00185375 -0.00456455 -0.322183
v 0.002781 0.001142 -0.324535
v 0.00200539 -0.0245941 -0.0862665
v 0.00274824 0.0187232 -0.100907
v 0.0016079 0.0125555 -0.0146206
v -0.000112793 0.0137282 -0.0133605
v -0.00608931 0.00379964 0.0130732
v 0.00368371 0.0145367 -0.012282
v 0.00354705 0.0143105 0.00838368
v 0.00407642 0.00445519 0.0126411
v 0.00262503 -0.00859456 0.0133629
v 0.00146296 -0.0184297 -0.294451
v 0.00587279 0.0200002 -0.0996751
v 0.00561892 0.00222846 0.0434764
v 0.00228921 -0.0192256 -0.0127007
v 0.000990737 -0.00778026 0.0526916
v 0.000136223 0.0143594 -0.0089305
v 0.005425 -0.024268 -0.09802
v 0.000915697 0.00197615 0.0263215
v 0.00351667 -0.0175927 -0.0136287
v 0.00453949 -0.00718545 0.0279628
v 0.00235289 -0.00660882 0.0350463
v 0.00722317 0.00294139 0.0299673
v 0.00550803 0.0145389 0.0113674
v 0.006609 -0.007952 0.012958
v 0.0029692 -0.0190621 -0.00849074
v 0.006523 0.001779 0.03348
v 0.00660941 -0.0234044 -0.0716928
v 0.002578 -0.024157 -0.087817
v 0.00368551 -0.00655895 0.0527294
v 0.0258734 -0.0191943 -0.345511
v 0.0285703 -0.015143 -0.347677
v 0.003359 0.001566 -0.08619
v 0.003318 0.001385 -0.087926
v 0.005872 -0.023983 -0.098179
v 0.00395372 0.00297049 0.0516186
v 0.023191 -0.019877 -0.343749
v 0.011023 -0.005969 -0.065069
v 0.011029 0.001286 -0.065133
v 0.00816547 0.0121835 -0.281904
v 0.0245202 -0.0198163 -0.339429
v 0.00653121 0.00339812 0.0124089
v 0.0165367 0.00330923 0.00609816
v 0.0118222 0.00325736 0.0085293
v 0.00345 -0.005496 -0.087652
v 0.003595 0.000863 -0.086426
v 0.00359503 0.0129606 -0.0131384
v 0.00325892 -0.00562829 -0.0871061
v 0.003911 0.00056 -0.087823
v 0.014431 -0.005907 -0.122624
v 0.0181757 0.000996892 -0.135565
v 0.00641929 -0.0197843 -0.00772696
v 0.014745 0.000771 -0.122095
v 0.014857 -0.004979 -0.122254
v 0.003931 -0.004993 -0.087947
v 0.004336 -0.004794 -0.086762
v 0.0039085 -0.0232533 -0.103257
v 0.011631 0.000623 -0.065076
v 0.00520158 -0.0179405 -0.0125249
v 0.016366 0.000467 -0.125769
v 0.004389 0.000341 -0.086772
v 0.0146136 0.0163992 -0.138481
v 0.023157 0.001954 -0.338093
v 0.00493285 -0.018914 0.00740746
v 0.00479584 -0.0240419 -0.101377
v 0.0238018 0.00155134 -0.338189
v 0.00600762 0.0143249 -0.00648635
v 0.019283 -0.004685 -0.13635
v 0.0242348 -0.00469719 -0.337856
v 0.024191 0.000867 -0.337458
v 0.024586 -0.004768 -0.102961
v 0.0108262 0.00248125 0.0462092
v 0.00683115 0.0145012 -0.0108966
v 0.00579591 -0.00908719 -0.0128656
v 0.00482263 0.0108422 -0.0128273
v 0.026193 -0.004309 -0.336007
v 0.00559847 0.00447715 -0.0126894
v 0.00546318 -0.0103741 -0.0122912
v 0.00805483 -0.0104854 0.0110174
v 0.00716369 -0.00653951 0.0391252
v 0.0122792 0.001182 0.0460161
v 0.0176112 -0.021259 -0.142987
v 0.015022 -0.02207 -0.127594
v 0.00717256 -0.00833371 -0.011506
v 0.0124889 -0.019947 -0.0430432
v 0.012527 -0.007909 0.039865
v 0.0116678 -0.0144004 -0.0363487
v 0.00760155 -0.000441437 0.00446772
v 0.00821469 0.0143211 0.00340227
v 0.0072208 0.00315389 -0.0129772
v 0.00876306 -0.00788856 0.0392685
v 0.0126808 -0.0115649 -0.0327846
v 0.0125609 -0.0204628 -0.133572
v 0.0125982 0.0152398 -0.134797
v 0.0155961 -0.00805806 0.00420068
v 0.0126604 -0.0145536 -0.275297
v 0.0178779 -0.00536348 0.00364268
v 0.0135581 0.0183044 -0.123347
v 0.0131049 -0.00712067 -0.0109075
v 0.00835636 0.0143541 -0.00295006
v 0.00873803 -0.0190672 -0.00202632
v 0.0107477 0.00493748 -0.0261422
v 0.00738796 -0.0198361 0.0084433
v 0.00882379 0.0143217 0.000354336
v 0.0118532 -0.0197275 -0.002926
v 0.00873528 -0.00447493 -0.00110397
v 0.0182431 -0.0021546 -0.00159208
v 0.0116348 -0.00699219 0.0457319
v 0.0178957 0.00103562 0.00213295
v 0.0163755 -0.0118849 -0.261126
v 0.0109841 0.0144435 0.00672995
v 0.00876459 0.0057483 -0.0253002
v 0.0122805 0.00424224 0.00538718
v 0.0146898 0.00121603 -0.27872
v 0.0138223 0.00455909 -0.0258156
v 0.00952945 0.0130041 -0.283784
v 0.0147964 -0.00488241 -0.278819
v 0.011524 0.014473 -0.005352
v 0.0129112 0.0138808 -0.00325422
v 0.00915561 0.00956544 -0.277644
v 0.011731 -0.019221 0.004959
v 0.012143 -0.018674 0.005001
v 0.0163961 -0.0141865 -0.274433
v 0.00983291 -0.0189425 -0.0363793
v 0.0137765 -0.0208911 -0.0487744
v 0.012521 0.0101935 -0.037544
v 0.0125697 -0.00870001 -0.00514522
v 0.012055 -0.022258 -0.062492
v 0.012673 -0.018656 -0.00355
v 0.0115666 -0.0222756 -0.0615868
v 0.0132387 0.0156801 -0.0445614
v 0.0128852 0.0144977 0.0020787
v 0.012852 0.000560731 -0.0644818
v 0.0116203 0.0177865 -0.0624146
v 0.013644 0.002467 0.03931
v 0.0146704 -0.0102398 -0.2651
v 0.0201465 -0.00822948 -0.265082
v 0.0178696 0.0102315 -0.267795
v 0.0139524 -0.00553465 -0.0647398
v 0.0132377 -0.0129787 -2.99341e-05
v 0.0138988 -0.0224123 -0.0625225
v 0.0125007 0.00387922 -0.00606336
v 0.013846 -0.007172 0.039301
v 0.0139585 -0.0184487 -0.044371
v 0.0140316 -0.00818524 0.00199205
v 0.0141061 0.0179691 -0.0625403
v 0.014465 0.001223 0.039426
v 0.014476 -0.006034 0.039478
v 0.017029 -0.007418 0.000139
v 0.016886 0.002724 0.000128
v 0.0124346 -0.016987 -0.135543
v 0.0168397 0.0124849 -0.164193
v 0.0153103 0.0170385 -0.0551283
v 0.0134884 -0.0149458 -0.0387184
v 0.0153377 0.00307477 -0.0189535
v 0.014383 0.001389 -0.065231
v 0.01468 -0.022632 -0.063085
v 0.0128737 -0.00484788 -0.0646598
v 0.0189319 0.0165386 -0.143641
v 0.017706 0.001909 0.000294
v 0.0140434 0.0118755 -0.0416991
v 0.021194 0.001138 -0.088312
v 0.0151549 0.00424651 -0.0289292
v 0.021233 -0.005672 -0.088306
v 0.0147165 0.00650126 -0.0401194
v 0.017904 -0.006204 0.000172
v 0.017167 -0.023217 -0.072621
v 0.0152601 -0.00882562 -0.0294455
v 0.0183421 -0.00536207 -0.137621
v 0.0162999 0.0152809 -0.0547929
v 0.0160306 -0.00702413 -0.0205698
v 0.016454 -0.001887 -0.253561
v 0.017391 -0.00585926 -0.00806778
v 0.0170611 -0.0183124 -0.159274
v 0.0211493 0.00967927 -0.253777
v 0.016952 0.00746 -0.251342
v 0.0198692 -0.0241649 -0.0764579
v 0.0210801 0.0201153 -0.0832076
v 0.016413 -0.0214723 -0.13192
v 0.017068 -0.01163 -0.248279
v 0.0240161 -0.0234457 -0.0821797
v 0.019497 0.014889 -0.168398
v 0.018543 0.014093 -0.17355
v 0.0168589 0.00827148 -0.257832
v 0.017758 0.012801 -0.178453
v 0.017739 0.009299 -0.237408
v 0.01834 -0.017645 -0.178156
v 0.0183792 0.00973638 -0.269236
v 0.0208447 -0.0134669 -0.251628
v 0.019415 -0.018587 -0.173657
v 0.01894 -0.013738 -0.238251
v 0.019145 0.009899 -0.238395
v 0.0210832 -0.0195704 -0.160301
v 0.0203132 0.00139618 -0.264043
v 0.021542 -0.013712 -0.239048
v 0.021736 0.009839 -0.237913
v 0.021735 0.014535 -0.173272
v 0.0224303 0.00854485 -0.178264
v 0.0207822 -0.00463194 -0.264712
v 0.0210434 0.000887078 -0.264559
v 0.021753 -0.012758 -0.252675
v 0.0226493 0.000679434 -0.164604
v 0.023384 -0.004634 -0.167409
v 0.022909 -0.004506 -0.253378
v 0.022126 0.00161 -0.249142
v 0.022038 -0.018303 -0.174796
v 0.022168 -0.005271 -0.249411
v 0.02735 0.000621503 -0.11165
v 0.0219879 -0.0052917 -0.160833
v 0.0243177 0.000504728 -0.232185
v 0.023041 -0.0049 -0.175235
v 0.0279777 0.0189173 -0.0950704
v 0.0328686 -0.00486464 -0.146799
v 0.032879 0.000574 -0.175723
v 0.0269025 -0.0244794 -0.0988896
v 0.0246422 0.0163178 -0.339328
v 0.0255553 0.020025 -0.097348
v 0.0275842 -0.0198785 -0.337588
v 0.0264946 -0.00465438 -0.337098
v 0.0251512 -0.0242369 -0.0980282
v 0.0243994 0.0162522 -0.344736
v 0.0301271 -0.00572573 -0.122595
v 0.030446 0.0162898 -0.336479
v 0.0275207 0.0163851 -0.337513
v 0.0262304 0.00107402 -0.337375
v 0.027691 0.001618 -0.33312
v 0.035364 -0.0191807 -0.119149
v 0.0268759 -0.00544546 -0.337676
v 0.033495 -0.005261 -0.180427
v 0.033589 0.001594 -0.179816
v 0.0283063 0.0185613 -0.112335
v 0.0316163 -0.0131665 -0.262876
v 0.0304867 0.00975852 -0.273621
v 0.0319717 0.0185358 -0.112954
v 0.031095 0.017982 -0.125331
v 0.0319675 -0.0220708 -0.110157
v 0.0288881 0.0110511 -0.347784
v 0.0343113 -0.0202152 -0.154564
v 0.028852 -0.0195292 -0.321389
v 0.0298995 0.00531945 -0.348531
v 0.031402 0.017231 -0.129783
v 0.0302585 -0.0146619 -0.283391
v 0.0330139 0.00264524 -0.341488
v 0.031378 -0.007471 -0.3453
v 0.0318573 0.0156702 -0.335237
v 0.031869 -0.0190683 -0.334974
v 0.031368 -0.00172 -0.345906
v 0.0316255 0.00147467 -0.134864
v 0.031562 -0.001724 -0.345225
v 0.0338031 -0.015751 -0.20322
v 0.034639 0.0162508 -0.12159
v 0.0299149 0.0164299 -0.319565
v 0.031601 0.009516 -0.242355
v 0.032268 -0.001733 -0.342807
v 0.0353095 -0.0209107 -0.128164
v 0.0316112 -0.019865 -0.331631
v 0.0324333 -0.0172375 -0.337082
v 0.0326434 -0.0175454 -0.307791
v 0.034264 0.014242 -0.176361
v 0.034358 -0.013055 -0.247558
v 0.033153 0.016722 -0.142366
v 0.036961 0.015195 -0.164108
v 0.032914 -0.001714 -0.339041
v 0.03327 -0.017582 -0.317112
v 0.033188 0.014139 -0.318204
v 0.0338052 0.00985953 -0.278078
v 0.0328197 -0.00173682 -0.339896
v 0.033136 -0.001736 -0.336515
v 0.034648 0.009104 -0.285064
v 0.0333434 0.000798502 -0.15694
v 0.0335915 0.0093016 -0.262995
v 0.039369 -0.001995 -0.169467
v 0.035999 -0.011101 -0.251461
v 0.034956 -0.01175 -0.279084
v 0.035811 0.006845 -0.257162
v 0.034361 0.015471 -0.159889
v 0.0339681 0.0154856 -0.154591
v 0.0372704 -0.0199877 -0.151535
v 0.0347251 -0.0124005 -0.264641
v 0.034862 0.009048 -0.247468
v 0.03758 -0.018355 -0.172836
v 0.035642 -0.012251 -0.247439
v 0.037977 0.014046 -0.172058
v 0.035726 0.00832 -0.247303
v 0.038469 -0.017391 -0.173409
v 0.038686 0.012935 -0.172328
v 0.0387388 -0.0176208 -0.161881
v 0.0376265 0.0154836 -0.147548
f 5 6 2
f 13 3 1
f 6 1 2
f 6 13 1
f 5 2 1
f 3 5 1
f 3 4 5
f 4 42 5
f 5 9 6
f 7 3 13
f 15 7 13
f 3 8 4
f 8 40 4
f 42 53 5
f 10 11 6
f 12 6 9
f 22 13 6
f 11 22 6
f 7 8 3
f 14 42 4
f 40 14 4
f 10 18 11
f 12 16 6
f 22 15 13
f 18 17 11
f 19 16 12
f 19 20 6
f 16 19 6
f 21 10 6
f 20 21 6
f 10 17 18
f 17 22 11
f 19 23 20
f 46 9 5
f 23 17 20
f 9 24 44
f 25 21 20
f 12 47 19
f 21 26 10
f 26 17 10
f 45 9 44
f 25 27 21
f 17 25 20
f 28 23 19
f 26 27 25
f 17 27 25
f 29 28 19
f 29 23 28
f 28 17 23
f 29 17 28
f 9 47 12
f 19 17 29
f 22 30 15
f 27 26 21
f 27 17 26
f 47 17 19
f 47 22 17
f 47 30 22
f 15 31 41
f 32 40 8
f 7 32 8
f 53 46 5
f 33 34 14
f 34 35 14
f 35 36 14
f 40 33 14
f 36 37 14
f 37 38 14
f 38 39 14
f 39 42 14
f 24 9 48
f 41 50 15
f 50 7 15
f 43 32 7
f 30 31 15
f 36 39 37
f 39 38 37
f 33 36 35
f 34 33 35
f 67 38 36
f 34 67 36
f 38 39 36
f 33 34 36
f 33 67 34
f 67 39 38
f 40 43 33
f 43 67 33
f 67 42 39
f 32 33 40
f 32 43 40
f 67 68 42
f 47 9 45
f 49 41 31
f 70 43 7
f 9 51 48
f 49 88 41
f 30 91 31
f 24 48 44
f 9 46 51
f 52 47 45
f 48 57 44
f 57 45 44
f 41 88 50
f 70 67 43
f 91 88 31
f 30 58 91
f 31 88 49
f 52 30 47
f 83 70 7
f 68 53 42
f 50 75 7
f 30 91 58
f 45 55 52
f 52 91 30
f 56 88 91
f 52 58 91
f 60 51 46
f 88 61 50
f 57 48 51
f 68 235 53
f 235 46 53
f 62 58 52
f 58 62 91
f 55 62 52
f 179 56 91
f 63 64 67
f 64 65 67
f 65 66 67
f 70 63 67
f 66 68 67
f 87 51 60
f 83 69 70
f 106 179 91
f 71 91 62
f 99 59 54
f 71 62 55
f 72 73 74
f 7 75 83
f 57 55 45
f 46 87 60
f 80 72 74
f 104 80 74
f 155 61 88
f 84 77 108
f 73 85 74
f 63 66 65
f 64 63 65
f 196 67 66
f 64 196 66
f 67 68 66
f 63 64 66
f 63 196 64
f 68 197 81
f 82 69 83
f 196 68 67
f 82 196 63
f 70 82 63
f 69 63 70
f 69 82 70
f 197 68 81
f 196 197 68
f 74 85 104
f 89 57 51
f 59 90 54
f 233 155 88
f 79 97 78
f 92 84 108
f 77 92 108
f 85 93 72
f 93 73 72
f 80 85 72
f 230 59 99
f 230 76 59
f 198 79 78
f 95 90 59
f 96 97 84
f 97 77 84
f 92 96 84
f 73 98 85
f 98 93 85
f 55 100 71
f 130 80 104
f 94 96 92
f 77 96 92
f 98 95 93
f 98 73 93
f 84 101 108
f 127 55 57
f 61 75 50
f 100 91 71
f 97 96 77
f 98 95 59
f 97 94 96
f 96 102 97
f 76 98 59
f 94 102 96
f 76 95 98
f 105 100 55
f 321 333 78
f 333 198 78
f 83 196 82
f 179 88 56
f 97 102 94
f 76 90 95
f 100 106 91
f 103 84 108
f 107 130 104
f 108 116 103
f 109 110 104
f 85 109 104
f 55 316 105
f 97 142 102
f 112 136 76
f 111 106 100
f 101 116 108
f 142 209 102
f 116 101 84
f 130 113 80
f 113 85 80
f 209 97 102
f 113 130 85
f 209 321 97
f 230 112 76
f 321 78 97
f 100 115 111
f 114 115 111
f 115 106 111
f 103 116 84
f 130 109 85
f 105 115 100
f 110 107 104
f 114 106 115
f 117 130 107
f 109 113 110
f 118 106 114
f 115 118 114
f 119 142 97
f 79 119 97
f 198 119 79
f 120 121 101
f 90 122 54
f 122 99 54
f 113 107 110
f 127 316 55
f 121 116 101
f 129 51 87
f 61 145 75
f 371 127 57
f 109 107 113
f 316 115 105
f 316 118 115
f 101 123 120
f 125 128 126
f 160 125 126
f 235 87 46
f 121 149 116
f 109 130 107
f 149 101 116
f 131 233 88
f 76 183 90
f 141 133 134
f 132 138 124
f 133 208 134
f 208 144 134
f 144 135 134
f 139 182 137
f 182 136 137
f 140 139 137
f 118 179 106
f 142 141 134
f 135 142 134
f 136 76 137
f 136 140 137
f 128 160 126
f 371 57 89
f 107 143 117
f 76 136 137
f 179 131 88
f 141 142 135
f 144 208 135
f 136 153 140
f 135 142 141
f 197 235 68
f 140 182 139
f 75 146 83
f 147 142 135
f 141 119 133
f 119 141 142
f 136 183 76
f 149 120 123
f 129 89 51
f 120 151 121
f 152 143 107
f 130 152 107
f 174 153 136
f 151 149 121
f 149 151 101
f 151 123 101
f 152 130 117
f 154 174 136
f 112 148 136
f 153 182 140
f 133 156 150
f 156 147 135
f 148 154 136
f 119 156 133
f 154 183 136
f 157 154 136
f 158 124 138
f 128 159 160
f 150 135 208
f 160 159 128
f 158 167 124
f 161 147 156
f 135 161 156
f 148 157 154
f 157 174 154
f 156 161 150
f 138 167 158
f 170 157 136
f 174 170 136
f 132 162 138
f 163 161 135
f 150 163 135
f 157 170 174
f 149 317 116
f 168 125 160
f 146 86 83
f 164 160 128
f 165 161 156
f 119 165 156
f 157 166 154
f 166 183 154
f 164 159 160
f 162 167 138
f 167 169 158
f 132 167 162
f 169 124 167
f 128 160 164
f 149 151 120
f 161 163 150
f 167 169 162
f 163 171 161
f 171 147 161
f 172 170 157
f 148 172 157
f 132 169 167
f 128 168 160
f 165 173 161
f 173 171 161
f 172 166 157
f 128 125 168
f 199 150 208
f 132 124 169
f 147 209 142
f 150 199 133
f 61 155 145
f 176 153 174
f 178 152 117
f 175 153 176
f 174 175 176
f 173 209 147
f 175 174 136
f 189 153 175
f 177 112 230
f 177 148 112
f 180 90 183
f 181 180 183
f 166 148 183
f 177 172 148
f 171 173 147
f 147 173 165
f 119 147 165
f 184 185 153
f 185 182 153
f 173 147 119
f 166 183 148
f 180 186 90
f 186 187 90
f 187 188 90
f 190 181 183
f 185 191 184
f 191 182 185
f 204 185 184
f 199 234 133
f 323 136 182
f 204 191 185
f 192 193 196
f 193 194 196
f 194 195 196
f 83 192 196
f 195 197 196
f 172 177 166
f 177 183 166
f 153 204 184
f 200 201 83
f 201 192 83
f 86 200 83
f 204 182 191
f 202 203 183
f 203 190 183
f 187 186 180
f 189 204 153
f 149 123 151
f 205 130 152
f 178 205 152
f 177 202 183
f 204 206 182
f 205 143 152
f 181 186 180
f 206 207 182
f 215 173 119
f 181 187 186
f 205 229 130
f 203 202 190
f 203 181 190
f 317 149 116
f 181 188 187
f 203 188 181
f 188 203 202
f 215 209 173
f 208 222 199
f 323 175 136
f 177 188 202
f 234 208 133
f 207 323 182
f 210 234 199
f 222 210 199
f 175 211 189
f 188 122 90
f 212 178 117
f 143 212 117
f 146 200 86
f 214 215 119
f 177 217 188
f 219 215 214
f 217 220 188
f 209 215 321
f 177 220 217
f 219 321 215
f 189 211 213
f 198 218 119
f 226 214 119
f 226 215 214
f 226 219 215
f 177 221 220
f 221 217 220
f 213 211 189
f 223 221 177
f 223 220 221
f 223 188 220
f 321 219 226
f 230 223 177
f 213 204 189
f 213 224 204
f 224 213 204
f 206 204 213
f 224 206 213
f 198 119 218
f 225 205 178
f 213 207 206
f 208 216 222
f 226 119 198
f 205 225 143
f 225 212 143
f 188 223 122
f 235 129 87
f 192 194 193
f 192 195 194
f 211 207 213
f 383 196 195
f 193 383 195
f 196 197 195
f 192 193 195
f 192 383 193
f 130 229 205
f 229 225 205
f 200 192 201
f 383 197 196
f 189 211 213
f 201 146 192
f 146 383 192
f 225 229 205
f 211 323 207
f 200 146 201
f 383 415 197
f 508 127 371
f 234 216 208
f 123 232 149
f 122 230 99
f 230 238 223
f 216 228 222
f 328 333 321
f 335 317 149
f 228 210 222
f 238 122 223
f 415 197 227
f 238 332 122
f 415 235 197
f 149 232 123
f 229 225 178
f 314 229 178
f 145 146 75
f 225 229 212
f 510 89 129
f 236 129 235
f 226 325 321
f 198 325 226
f 237 234 199
f 267 247 239
f 240 241 242
f 241 271 242
f 245 244 252
f 240 271 241
f 510 129 236
f 245 293 244
f 248 271 240
f 249 248 240
f 271 241 242
f 244 293 245
f 271 240 241
f 271 249 240
f 234 237 199
f 267 250 247
f 250 251 247
f 253 267 239
f 254 248 249
f 273 270 271
f 270 273 271
f 258 257 251
f 259 256 251
f 257 260 251
f 260 259 251
f 250 258 251
f 261 262 248
f 249 261 248
f 262 263 248
f 264 271 248
f 263 398 248
f 398 265 248
f 265 266 248
f 266 264 248
f 243 255 246
f 293 268 245
f 269 264 249
f 271 269 249
f 251 267 247
f 267 250 247
f 255 243 246
f 272 250 267
f 510 371 89
f 289 243 246
f 289 301 246
f 264 269 271
f 282 268 245
f 274 261 249
f 264 274 249
f 275 272 251
f 256 275 251
f 272 267 251
f 280 282 252
f 268 282 245
f 289 292 243
f 276 274 264
f 269 276 264
f 277 273 270
f 283 278 243
f 279 269 271
f 270 279 271
f 293 282 268
f 292 283 243
f 282 245 252
f 271 277 270
f 266 269 264
f 282 285 280
f 283 281 243
f 243 294 292
f 272 258 250
f 243 278 283
f 269 279 271
f 279 277 271
f 244 284 293
f 285 282 280
f 282 293 268
f 281 294 243
f 285 286 280
f 275 290 272
f 290 267 272
f 291 276 269
f 279 291 269
f 282 287 268
f 281 283 292
f 294 281 292
f 267 258 272
f 266 279 269
f 277 270 273
f 286 285 280
f 266 277 279
f 295 291 279
f 270 295 279
f 293 287 282
f 300 287 282
f 296 289 292
f 297 278 283
f 298 282 288
f 287 293 282
f 300 288 282
f 296 292 289
f 300 299 288
f 281 297 283
f 282 298 288
f 290 302 267
f 277 400 270
f 400 295 270
f 303 294 281
f 283 294 281
f 300 304 287
f 299 298 288
f 305 296 292
f 293 300 287
f 294 297 281
f 305 303 296
f 300 293 287
f 304 299 300
f 305 292 296
f 297 294 283
f 311 304 300
f 299 311 300
f 303 294 292
f 306 297 294
f 298 311 299
f 300 284 293
f 297 303 294
f 307 300 304
f 303 305 292
f 303 306 294
f 308 298 299
f 307 299 304
f 296 309 305
f 310 308 299
f 311 310 299
f 307 311 299
f 311 307 304
f 303 309 305
f 298 310 311
f 312 309 303
f 284 313 300
f 313 284 300
f 297 306 303
f 307 313 300
f 313 307 300
f 313 311 307
f 313 310 311
f 309 306 303
f 311 313 307
f 310 313 311
f 306 312 303
f 233 231 155
f 229 314 212
f 335 149 232
f 337 314 229
f 335 232 149
f 317 335 149
f 309 315 306
f 318 312 306
f 332 238 230
f 315 318 306
f 315 312 318
f 315 319 318
f 315 211 319
f 216 310 313
f 309 211 315
f 211 315 319
f 310 216 313
f 211 312 315
f 389 383 146
f 228 310 298
f 267 320 258
f 210 228 298
f 308 210 298
f 228 216 310
f 302 320 267
f 310 210 308
f 216 210 310
f 312 211 309
f 198 378 325
f 359 257 258
f 230 322 332
f 329 277 266
f 322 122 332
f 399 510 236
f 320 359 258
f 323 324 326
f 211 324 323
f 321 327 328
f 324 175 326
f 322 230 122
f 508 403 127
f 211 175 324
f 131 330 233
f 210 216 234
f 328 327 336
f 314 178 212
f 433 333 328
f 472 179 118
f 332 334 331
f 329 400 277
f 322 334 332
f 326 175 323
f 336 433 328
f 317 441 335
f 344 332 331
f 338 337 229
f 325 327 321
f 390 257 359
f 231 145 155
f 339 374 332
f 327 325 336
f 340 335 232
f 334 344 331
f 341 314 178
f 342 400 329
f 403 316 127
f 231 343 146
f 346 389 146
f 345 415 197
f 415 227 197
f 415 345 197
f 145 231 146
f 339 332 344
f 378 336 325
f 391 266 265
f 347 348 265
f 348 391 265
f 400 347 265
f 349 329 266
f 472 118 316
f 350 351 344
f 334 350 344
f 302 260 257
f 398 400 265
f 391 349 266
f 352 359 320
f 334 351 350
f 400 353 347
f 354 348 347
f 351 339 344
f 390 355 257
f 355 302 257
f 353 356 347
f 356 354 347
f 357 339 351
f 350 357 351
f 302 355 257
f 358 356 353
f 355 302 257
f 342 356 353
f 400 342 353
f 334 357 351
f 361 390 359
f 349 391 329
f 360 359 352
f 360 361 359
f 339 357 334
f 352 361 360
f 362 361 352
f 362 360 361
f 366 390 361
f 364 178 314
f 337 364 314
f 362 366 361
f 363 232 335
f 352 366 362
f 364 229 314
f 441 363 335
f 364 402 229
f 402 338 229
f 365 341 178
f 320 366 352
f 340 363 335
f 366 367 352
f 367 366 352
f 391 342 329
f 320 367 366
f 232 368 340
f 369 314 341
f 302 370 260
f 372 259 260
f 367 373 366
f 333 378 198
f 290 375 302
f 375 370 302
f 376 295 400
f 320 377 367
f 377 373 367
f 374 322 332
f 373 379 367
f 377 379 373
f 509 231 233
f 379 366 373
f 363 368 232
f 369 364 314
f 370 380 260
f 302 377 320
f 377 366 379
f 381 382 383
f 389 381 383
f 384 385 383
f 385 386 383
f 386 387 383
f 387 415 383
f 346 388 389
f 377 390 366
f 390 302 355
f 356 358 354
f 342 358 356
f 354 391 348
f 392 260 380
f 342 354 358
f 302 390 377
f 342 391 354
f 393 392 380
f 392 372 260
f 343 346 146
f 335 394 317
f 394 441 317
f 380 395 393
f 399 235 415
f 395 396 393
f 395 392 393
f 380 396 395
f 396 392 395
f 370 396 380
f 330 509 233
f 370 392 396
f 375 397 392
f 397 372 392
f 399 236 235
f 334 401 339
f 405 392 370
f 417 400 398
f 405 429 392
f 429 375 392
f 472 546 179
f 402 365 178
f 343 388 346
f 364 402 178
f 337 402 364
f 369 402 364
f 705 508 371
f 179 330 131
f 404 374 339
f 401 404 339
f 259 372 397
f 375 372 397
f 372 256 259
f 375 256 372
f 385 387 386
f 388 381 389
f 406 407 398
f 381 383 382
f 384 387 385
f 381 384 383
f 263 408 398
f 549 386 384
f 382 549 384
f 386 387 384
f 381 382 384
f 381 549 382
f 409 406 398
f 408 409 398
f 410 389 388
f 429 431 375
f 411 417 398
f 549 387 386
f 410 549 381
f 389 410 381
f 549 415 387
f 412 413 404
f 401 414 404
f 414 412 404
f 408 406 409
f 549 624 415
f 343 410 388
f 404 418 374
f 263 407 408
f 407 409 408
f 407 406 409
f 412 418 404
f 407 411 398
f 262 274 263
f 376 407 263
f 274 276 263
f 375 455 256
f 455 275 256
f 276 291 263
f 291 376 263
f 334 418 401
f 414 419 412
f 419 420 412
f 414 412 420
f 419 414 420
f 414 418 412
f 421 411 407
f 422 421 407
f 376 422 407
f 401 418 414
f 423 510 399
f 416 624 415
f 624 399 415
f 370 424 405
f 424 425 405
f 425 429 405
f 418 322 374
f 375 426 370
f 426 424 370
f 427 376 400
f 417 427 400
f 428 427 417
f 424 429 425
f 417 430 428
f 430 427 428
f 333 433 378
f 378 433 336
f 429 434 425
f 424 434 429
f 435 430 417
f 435 436 430
f 436 428 430
f 432 423 399
f 434 438 429
f 438 431 429
f 424 438 434
f 436 427 430
f 261 439 262
f 439 274 262
f 261 440 262
f 335 556 394
f 437 435 417
f 442 438 434
f 424 442 438
f 435 427 436
f 276 261 274
f 276 439 261
f 442 431 438
f 446 276 274
f 439 446 274
f 439 443 261
f 444 435 437
f 291 295 276
f 275 450 256
f 445 546 472
f 276 446 439
f 450 275 256
f 446 291 276
f 446 443 439
f 424 431 442
f 450 290 275
f 295 446 276
f 411 437 417
f 437 447 444
f 562 316 403
f 444 427 435
f 455 450 275
f 402 558 365
f 533 534 363
f 337 558 402
f 447 427 444
f 534 335 363
f 443 454 446
f 534 556 335
f 369 558 402
f 448 376 291
f 446 448 291
f 441 534 363
f 338 558 337
f 449 447 437
f 334 322 418
f 426 431 424
f 449 444 447
f 376 446 295
f 455 290 450
f 451 426 375
f 431 451 375
f 427 422 376
f 454 453 443
f 453 454 443
f 448 446 376
f 437 427 449
f 455 458 290
f 458 375 290
f 453 446 454
f 427 447 449
f 456 452 450
f 558 369 341
f 375 458 455
f 457 448 446
f 453 454 446
f 456 450 455
f 453 457 446
f 452 456 450
f 368 363 340
f 450 458 455
f 460 459 437
f 459 427 437
f 458 456 455
f 456 458 450
f 411 460 437
f 411 459 460
f 461 460 411
f 411 461 459
f 432 462 423
f 411 422 461
f 422 459 461
f 422 427 459
f 463 422 411
f 464 411 421
f 464 463 411
f 451 431 426
f 421 463 464
f 464 421 422
f 422 463 464
f 469 467 471
f 470 468 466
f 469 471 467
f 473 470 466
f 473 474 470
f 474 473 470
f 466 468 470
f 476 471 467
f 476 469 467
f 468 475 470
f 469 477 476
f 475 468 470
f 483 491 473
f 491 483 473
f 469 478 477
f 474 475 470
f 479 468 475
f 475 474 470
f 478 476 477
f 480 479 475
f 476 481 477
f 481 478 477
f 476 487 471
f 474 480 475
f 479 482 475
f 484 485 524
f 476 486 481
f 486 478 481
f 482 480 475
f 488 473 474
f 478 486 476
f 482 479 480
f 488 474 473
f 515 505 507
f 474 482 480
f 478 489 486
f 490 479 482
f 489 476 486
f 474 490 482
f 482 474 480
f 491 488 473
f 497 487 476
f 496 474 488
f 476 492 486
f 492 493 486
f 493 489 486
f 485 494 524
f 496 488 474
f 495 490 474
f 500 495 474
f 490 498 474
f 496 500 474
f 499 492 476
f 517 471 487
f 497 499 476
f 498 495 474
f 517 497 487
f 497 517 487
f 495 500 474
f 496 488 491
f 496 491 488
f 502 501 497
f 483 496 491
f 496 483 491
f 517 503 471
f 516 484 524
f 504 496 483
f 506 517 497
f 502 506 497
f 546 509 179
f 509 330 179
f 512 511 495
f 489 499 476
f 511 490 495
f 506 513 517
f 514 500 496
f 499 497 476
f 498 512 495
f 518 514 496
f 503 513 517
f 514 504 496
f 504 518 496
f 519 515 507
f 517 513 503
f 514 518 504
f 499 493 492
f 498 511 512
f 489 525 499
f 521 490 511
f 512 521 511
f 505 520 507
f 521 512 511
f 498 521 511
f 525 523 499
f 520 522 507
f 493 525 489
f 521 526 490
f 526 498 490
f 527 519 507
f 432 399 624
f 529 519 527
f 530 485 484
f 531 499 523
f 531 493 499
f 532 582 521
f 529 527 507
f 535 484 516
f 498 580 521
f 505 515 519
f 522 536 507
f 536 529 507
f 365 537 341
f 537 558 341
f 529 536 527
f 534 368 363
f 536 519 529
f 524 538 516
f 535 539 484
f 539 530 484
f 462 510 423
f 615 465 231
f 539 535 516
f 522 519 536
f 540 531 523
f 541 539 535
f 368 533 363
f 557 338 402
f 542 543 523
f 543 540 523
f 580 532 521
f 516 541 539
f 541 530 539
f 543 544 540
f 543 531 540
f 516 530 541
f 415 624 416
f 586 410 343
f 543 493 531
f 516 545 530
f 543 629 493
f 629 525 493
f 526 580 498
f 629 655 525
f 547 548 526
f 548 580 526
f 586 549 410
f 494 538 524
f 550 542 523
f 551 538 494
f 494 553 551
f 485 553 494
f 553 538 551
f 553 554 551
f 485 554 553
f 554 538 553
f 485 538 554
f 525 550 523
f 582 552 521
f 555 485 530
f 533 368 534
f 571 558 537
f 552 526 521
f 338 557 558
f 558 557 402
f 557 571 558
f 556 534 441
f 571 365 558
f 371 563 705
f 610 343 231
f 510 563 371
f 574 231 509
f 559 550 525
f 505 560 520
f 611 528 538
f 528 516 538
f 601 611 538
f 561 600 505
f 519 561 505
f 600 560 505
f 555 601 538
f 485 555 538
f 508 562 403
f 516 564 545
f 528 564 516
f 545 555 530
f 573 522 520
f 560 565 520
f 566 550 559
f 552 547 526
f 567 316 562
f 567 472 316
f 567 445 472
f 582 568 552
f 569 415 624
f 570 522 573
f 522 561 519
f 415 569 624
f 565 572 520
f 572 573 520
f 556 441 394
f 573 575 570
f 565 573 572
f 576 575 573
f 655 577 525
f 565 572 573
f 572 576 573
f 574 615 231
f 576 570 575
f 568 632 552
f 570 581 522
f 565 576 572
f 578 576 575
f 534 605 556
f 533 605 534
f 577 559 525
f 571 537 365
f 578 570 576
f 579 532 580
f 565 581 576
f 581 578 576
f 581 570 578
f 465 610 231
f 550 544 542
f 528 545 564
f 528 604 545
f 543 542 544
f 550 543 544
f 580 582 532
f 579 580 532
f 581 561 522
f 610 583 343
f 583 586 343
f 566 584 550
f 629 543 550
f 584 629 550
f 580 548 582
f 432 510 462
f 615 610 465
f 585 627 586
f 587 549 586
f 588 589 549
f 589 590 549
f 590 624 549
f 587 591 549
f 591 592 549
f 592 588 549
f 593 561 581
f 594 593 581
f 595 594 581
f 596 598 631
f 595 594 593
f 660 599 597
f 600 594 595
f 600 561 594
f 561 593 594
f 581 600 595
f 565 600 581
f 601 604 528
f 632 547 552
f 605 533 534
f 633 571 537
f 603 616 596
f 604 555 545
f 602 607 597
f 607 660 597
f 631 603 596
f 605 606 533
f 608 633 537
f 432 609 510
f 611 601 528
f 616 598 596
f 612 557 558
f 599 602 597
f 613 534 556
f 571 612 558
f 557 537 571
f 633 612 571
f 606 605 533
f 599 646 602
f 605 617 556
f 565 560 600
f 618 537 557
f 612 618 557
f 601 555 604
f 583 585 586
f 649 616 603
f 619 620 621
f 622 619 621
f 622 620 619
f 623 622 619
f 622 623 620
f 623 630 620
f 622 630 623
f 614 583 610
f 646 607 602
f 626 585 583
f 587 586 627
f 585 587 627
f 588 590 589
f 592 589 590
f 588 592 590
f 591 592 587
f 592 591 587
f 626 627 585
f 590 628 624
f 628 589 592
f 591 628 592
f 626 587 627
f 587 628 591
f 628 590 589
f 626 628 587
f 621 630 622
f 624 727 432
f 668 727 624
f 625 668 624
f 613 617 534
f 617 605 534
f 618 633 537
f 633 608 537
f 620 630 621
f 634 660 607
f 636 584 566
f 559 648 566
f 636 629 584
f 637 568 582
f 636 638 629
f 639 638 636
f 636 640 584
f 640 639 636
f 641 640 566
f 640 636 566
f 640 638 639
f 548 637 582
f 641 642 640
f 642 639 640
f 643 637 548
f 548 568 637
f 644 629 638
f 642 644 638
f 639 642 638
f 643 568 548
f 644 666 629
f 645 643 548
f 645 568 643
f 641 644 642
f 631 635 603
f 647 642 644
f 641 647 644
f 647 651 644
f 651 666 644
f 641 651 647
f 577 648 559
f 566 651 641
f 574 653 615
f 510 654 563
f 654 705 563
f 635 650 603
f 652 547 632
f 583 700 626
f 568 652 632
f 653 614 610
f 615 653 610
f 654 510 609
f 648 651 566
f 655 648 577
f 574 710 653
f 649 598 616
f 646 634 607
f 617 613 556
f 618 612 633
f 629 666 655
f 667 568 645
f 547 678 548
f 656 649 603
f 650 656 603
f 658 656 650
f 678 645 548
f 657 658 650
f 659 660 646
f 651 661 666
f 635 657 650
f 662 657 635
f 660 634 646
f 598 662 631
f 662 635 631
f 663 646 599
f 664 651 648
f 665 633 612
f 656 598 649
f 633 665 612
f 568 678 652
f 655 666 648
f 652 678 547
f 661 709 666
f 678 667 645
f 751 574 509
f 666 664 648
f 624 668 625
f 568 667 678
f 669 670 663
f 671 669 663
f 599 672 663
f 672 671 663
f 664 661 651
f 675 633 665
f 633 675 665
f 660 672 599
f 676 662 598
f 656 676 598
f 678 677 674
f 696 680 666
f 709 696 666
f 683 698 678
f 698 667 678
f 670 679 663
f 679 646 663
f 671 670 669
f 681 669 671
f 681 670 669
f 681 679 670
f 682 679 670
f 682 646 679
f 672 684 671
f 685 671 672
f 684 685 672
f 696 666 680
f 678 698 683
f 685 681 671
f 667 698 678
f 654 708 705
f 685 684 672
f 682 679 646
f 685 679 681
f 658 686 656
f 686 687 656
f 658 687 686
f 688 689 658
f 689 686 658
f 662 687 686
f 689 662 686
f 687 662 656
f 690 659 646
f 658 689 688
f 691 690 646
f 679 691 646
f 691 659 690
f 679 690 691
f 657 688 658
f 690 660 659
f 692 689 688
f 657 692 688
f 660 690 679
f 688 662 689
f 662 692 657
f 662 688 692
f 693 673 667
f 736 617 613
f 709 661 664
f 673 693 667
f 672 694 685
f 662 676 656
f 695 628 626
f 698 697 683
f 699 694 672
f 699 679 685
f 708 609 432
f 727 708 432
f 694 699 685
f 660 699 672
f 699 660 679
f 609 708 654
f 668 624 628
f 701 696 680
f 702 701 680
f 696 702 680
f 698 703 697
f 703 698 697
f 667 703 698
f 703 667 698
f 701 666 696
f 709 702 696
f 693 703 667
f 701 664 666
f 751 706 574
f 706 710 574
f 701 709 664
f 703 693 667
f 614 707 583
f 707 700 583
f 710 614 653
f 546 751 509
f 704 614 710
f 711 701 702
f 712 701 711
f 702 712 711
f 714 668 628
f 695 714 628
f 715 695 626
f 700 715 626
f 715 716 695
f 718 719 695
f 719 720 695
f 720 714 695
f 721 722 695
f 722 723 695
f 723 718 695
f 713 724 703
f 730 726 713
f 704 734 614
f 726 728 713
f 693 713 703
f 728 729 713
f 726 729 728
f 730 728 726
f 693 730 713
f 729 733 713
f 730 733 729
f 728 730 729
f 712 725 717
f 731 712 702
f 732 508 705
f 709 731 702
f 736 709 701
f 731 725 712
f 710 734 704
f 712 736 701
f 737 733 730
f 703 735 693
f 724 735 703
f 737 757 733
f 757 737 733
f 757 733 737
f 754 731 709
f 738 736 712
f 725 738 717
f 738 712 717
f 733 739 713
f 739 724 713
f 740 752 668
f 707 715 700
f 752 727 668
f 714 740 668
f 741 715 707
f 743 705 708
f 741 716 715
f 716 721 715
f 721 695 716
f 742 740 714
f 723 719 720
f 718 723 720
f 719 718 720
f 722 723 721
f 723 722 721
f 720 742 714
f 741 721 716
f 742 719 723
f 722 742 723
f 721 742 722
f 742 720 719
f 741 742 721
f 724 739 735
f 754 725 731
f 761 751 546
f 754 617 736
f 737 693 675
f 693 737 730
f 754 709 613
f 617 754 613
f 709 736 613
f 758 737 675
f 707 767 741
f 757 739 733
f 693 758 675
f 750 705 743
f 706 734 710
f 735 758 693
f 732 562 508
f 708 746 743
f 751 749 706
f 705 750 732
f 445 766 546
f 766 761 546
f 749 734 706
f 727 746 708
f 758 757 737
f 765 734 749
f 746 750 743
f 748 753 744
f 751 765 749
f 765 776 734
f 755 779 750
f 734 707 614
f 756 748 744
f 753 756 744
f 750 779 732
f 773 765 751
f 746 727 750
f 727 755 750
f 739 758 735
f 759 753 748
f 760 747 745
f 791 740 742
f 754 762 725
f 762 738 725
f 763 759 748
f 764 763 748
f 789 788 734
f 567 766 445
f 788 767 707
f 768 764 748
f 756 768 748
f 769 760 745
f 760 769 747
f 762 754 736
f 762 736 738
f 770 756 753
f 747 769 745
f 774 757 758
f 788 707 734
f 732 567 562
f 741 791 742
f 740 791 752
f 772 777 754
f 778 757 774
f 767 791 741
f 757 778 739
f 763 764 759
f 771 755 727
f 775 771 727
f 776 789 734
f 758 778 774
f 759 756 753
f 777 772 754
f 772 762 754
f 764 768 763
f 768 759 764
f 739 778 758
f 762 772 754
f 756 759 768
f 773 785 765
f 780 770 753
f 785 782 765
f 775 779 755
f 756 780 753
f 752 775 727
f 789 776 765
f 770 780 756
f 766 751 761
f 782 789 765
f 783 775 752
f 791 781 752
f 781 783 752
f 771 775 755
f 785 751 766
f 567 732 779
f 767 783 791
f 788 784 767
f 785 766 567
f 567 779 786
f 751 785 773
f 793 785 786
f 785 567 786
f 779 787 786
f 789 782 785
f 779 775 787
f 789 790 788
f 793 795 790
f 794 767 784
f 794 783 767
f 793 789 785
f 783 794 792
f 794 790 792
f 790 795 792
f 794 784 790
f 784 788 790
f 795 793 786
f 781 791 783
f 787 792 786
f 796 793 790
f 789 796 790
f 775 792 787
f 793 796 789
f 775 783 792
f 792 795 786
f 798 802 797
f 797 825 798
f 804 800 797
f 799 797 802
f 798 806 802
f 825 806 798
f 800 801 797
f 808 804 797
f 799 808 797
f 801 825 797
f 803 801 800
f 806 805 802
f 805 799 802
f 804 803 800
f 814 825 801
f 807 799 805
f 803 814 801
f 807 808 799
f 813 823 810
f 827 813 810
f 811 827 810
f 823 818 810
f 809 811 810
f 811 812 810
f 818 811 810
f 809 812 811
f 812 809 810
f 823 819 818
f 814 803 804
f 825 815 805
f 815 807 805
f 806 825 805
f 818 816 811
f 816 827 811
f 813 817 823
f 822 820 813
f 818 821 816
f 822 813 827
f 924 1087 808
f 831 804 808
f 1087 831 808
f 99 814 804
f 99 804 846
f 822 826 820
f 934 825 814
f 820 817 813
f 815 828 807
f 833 816 821
f 824 821 818
f 833 829 816
f 829 827 816
f 846 934 99
f 807 924 808
f 825 851 815
f 820 830 817
f 934 814 99
f 819 832 818
f 844 819 823
f 830 823 817
f 830 845 823
f 824 833 821
f 831 846 804
f 826 830 820
f 845 844 823
f 834 826 822
f 832 824 818
f 835 822 827
f 836 830 826
f 893 836 826
f 833 837 829
f 838 906 829
f 837 838 829
f 834 857 826
f 921 893 826
f 836 845 830
f 840 827 829
f 841 921 826
f 906 842 829
f 843 839 827
f 835 834 822
f 857 841 826
f 833 847 837
f 815 851 828
f 849 847 833
f 1091 841 857
f 972 840 829
f 842 972 829
f 851 852 828
f 863 872 846
f 893 907 836
f 850 838 837
f 848 863 846
f 824 849 833
f 840 843 827
f 846 872 934
f 853 850 837
f 846 854 848
f 836 856 845
f 847 853 837
f 855 844 845
f 852 979 828
f 854 863 848
f 1118 858 827
f 858 835 827
f 839 1118 827
f 882 845 856
f 859 868 824
f 907 860 836
f 861 853 847
f 860 856 836
f 974 861 847
f 849 974 847
f 864 862 852
f 920 852 851
f 860 866 856
f 824 868 849
f 867 851 825
f 866 951 856
f 920 864 852
f 871 974 849
f 845 882 855
f 869 979 852
f 854 870 863
f 862 869 852
f 870 865 863
f 872 964 934
f 887 871 849
f 891 824 832
f 865 877 863
f 864 873 862
f 873 869 862
f 874 882 856
f 940 920 851
f 863 877 872
f 870 875 865
f 875 877 865
f 886 819 844
f 951 876 856
f 868 890 849
f 892 891 832
f 819 892 832
f 890 887 849
f 873 864 920
f 894 874 856
f 876 894 856
f 971 1118 839
f 878 971 839
f 879 974 871
f 968 873 920
f 875 922 877
f 858 880 835
f 843 878 839
f 951 950 876
f 859 824 891
f 880 834 835
f 881 878 843
f 880 883 834
f 859 890 868
f 1092 1091 857
f 950 915 876
f 915 894 876
f 884 974 879
f 840 881 843
f 871 884 879
f 883 857 834
f 885 881 840
f 855 886 844
f 894 882 874
f 882 886 855
f 886 892 819
f 883 970 857
f 970 995 857
f 995 1092 857
f 889 885 840
f 972 889 840
f 899 871 887
f 899 884 871
f 895 859 891
f 904 941 894
f 896 892 886
f 838 897 906
f 898 894 915
f 894 888 882
f 900 888 894
f 890 901 887
f 895 890 859
f 900 882 888
f 898 904 894
f 893 909 902
f 828 905 807
f 838 903 897
f 907 893 902
f 900 886 882
f 923 846 831
f 919 884 899
f 921 909 893
f 887 916 899
f 928 907 902
f 895 913 890
f 934 867 825
f 908 891 892
f 926 897 903
f 910 926 903
f 908 895 891
f 912 896 886
f 941 900 894
f 921 938 909
f 901 916 887
f 911 904 898
f 909 925 902
f 925 928 902
f 916 917 899
f 896 912 892
f 936 906 897
f 890 913 901
f 926 936 897
f 900 912 886
f 918 919 899
f 917 918 899
f 927 910 903
f 936 914 906
f 919 974 884
f 927 903 838
f 841 957 921
f 912 945 892
f 948 913 895
f 915 911 898
f 911 941 904
f 979 905 828
f 850 927 838
f 914 842 906
f 928 860 907
f 948 901 913
f 909 929 925
f 905 924 807
f 929 809 925
f 910 812 926
f 812 809 926
f 939 900 941
f 938 929 909
f 929 926 809
f 930 926 929
f 895 932 948
f 812 925 809
f 925 947 928
f 900 939 912
f 938 930 929
f 812 935 925
f 933 812 910
f 931 921 957
f 934 954 867
f 892 945 908
f 930 936 926
f 908 945 895
f 931 938 921
f 936 930 938
f 948 916 901
f 861 850 853
f 933 935 812
f 916 948 917
f 850 861 927
f 950 943 915
f 986 974 919
f 933 910 927
f 956 936 938
f 953 944 918
f 943 937 915
f 937 911 915
f 911 942 941
f 918 944 919
f 953 918 917
f 928 952 860
f 937 942 911
f 923 854 846
f 951 866 860
f 952 951 860
f 945 932 895
f 922 946 877
f 877 964 872
f 935 947 925
f 949 861 974
f 946 964 877
f 965 935 933
f 960 927 861
f 947 952 928
f 1087 923 831
f 944 986 919
f 960 933 927
f 885 971 878
f 515 954 934
f 955 524 867
f 940 851 867
f 524 940 867
f 964 515 934
f 881 885 878
f 949 960 861
f 914 972 842
f 984 936 956
f 965 947 935
f 978 943 950
f 973 972 914
f 858 883 880
f 993 938 931
f 954 955 867
f 952 950 951
f 953 959 944
f 947 950 952
f 941 962 939
f 912 983 945
f 983 997 945
f 993 956 938
f 1009 974 986
f 922 969 946
f 958 941 942
f 917 967 953
f 963 959 953
f 858 970 883
f 961 958 942
f 967 963 953
f 940 968 920
f 936 973 914
f 975 973 936
f 982 993 931
f 1070 966 947
f 975 936 984
f 960 976 933
f 917 981 967
f 974 977 949
f 976 965 933
f 993 984 956
f 976 947 965
f 923 1083 854
f 1083 870 854
f 948 981 917
f 947 978 950
f 977 960 949
f 943 988 937
f 980 971 885
f 841 987 957
f 964 954 515
f 982 957 987
f 982 931 957
f 932 981 948
f 1024 1032 858
f 983 912 939
f 961 941 958
f 945 1003 932
f 997 1003 945
f 986 944 959
f 947 1031 1070
f 976 1031 947
f 1047 962 941
f 985 970 858
f 1032 985 858
f 905 1063 924
f 1087 1007 923
f 937 989 942
f 975 972 973
f 1047 939 962
f 1091 987 841
f 986 963 967
f 986 959 963
f 988 989 937
f 989 961 942
f 966 978 947
f 981 986 967
f 978 992 943
f 992 988 943
f 990 1009 986
f 979 1063 905
f 1014 972 975
f 961 1047 941
f 995 970 996
f 988 961 989
f 981 994 986
f 1058 939 1047
f 998 955 954
f 795 999 954
f 999 998 954
f 1188 1204 954
f 1204 795 954
f 985 996 970
f 1000 1001 885
f 1015 995 996
f 985 1002 996
f 1004 524 955
f 998 1004 955
f 1002 1015 996
f 1001 980 885
f 1015 1005 995
f 1005 1097 995
f 1006 1000 885
f 889 1006 885
f 1008 940 524
f 1004 1008 524
f 964 1188 954
f 1034 984 993
f 991 976 960
f 1009 977 974
f 992 1062 988
f 1010 1011 990
f 1011 1009 990
f 1000 1013 1001
f 987 1026 982
f 1058 983 939
f 1013 1016 1001
f 1002 1017 1015
f 1018 980 1001
f 982 1019 993
f 1006 1013 1000
f 1017 1012 1015
f 1020 1018 1001
f 1021 1022 1012
f 1017 1021 1012
f 1022 1015 1012
f 1016 1020 1001
f 1125 1005 1015
f 1023 1015 1022
f 1118 1024 858
f 1006 1025 1013
f 1027 1020 1016
f 1183 1188 964
f 1023 1125 1015
f 1025 1028 1013
f 1028 1016 1013
f 1008 968 940
f 1030 1183 964
f 946 1030 964
f 1042 972 1014
f 1028 1027 1016
f 1025 1100 1028
f 1008 1036 968
f 1021 1023 1022
f 969 1030 946
f 1033 1030 969
f 1021 1035 1023
f 1040 1042 1014
f 1091 1026 987
f 1037 1033 969
f 1026 1019 982
f 1035 1038 1023
f 1175 1027 1028
f 922 1037 969
f 1038 1125 1023
f 1100 1175 1028
f 1034 1040 984
f 1040 975 984
f 1040 1014 975
f 1007 1083 923
f 1083 1007 1087
f 994 990 986
f 1091 1041 1026
f 1048 1039 1003
f 1043 873 968
f 1036 1043 968
f 875 1192 922
f 1192 1037 922
f 1065 971 980
f 966 1046 978
f 1045 1026 1041
f 997 1048 1003
f 1084 979 869
f 1083 1081 870
f 1019 1034 993
f 1056 1031 976
f 1081 875 870
f 873 1084 869
f 1101 1006 889
f 1050 985 1032
f 1049 1050 1032
f 1051 1045 1041
f 1047 961 988
f 1062 1058 988
f 1053 983 1058
f 932 1003 981
f 1052 1041 1091
f 1058 1047 988
f 1051 1026 1045
f 1052 1054 1041
f 1044 1079 1042
f 1067 1034 1019
f 1055 1070 1031
f 1056 1055 1031
f 1109 1042 1040
f 1060 1024 1118
f 971 1061 1118
f 1062 978 1046
f 1075 997 983
f 1070 1046 966
f 1109 1044 1042
f 1009 960 977
f 1076 1064 1055
f 1067 1040 1034
f 991 1078 976
f 1109 1057 1044
f 1041 1066 1051
f 1062 992 978
f 1057 1079 1044
f 981 990 994
f 924 1103 1087
f 1003 990 981
f 1050 1002 985
f 1050 1146 1002
f 1090 1063 979
f 1146 1017 1002
f 1018 1065 980
f 1075 1048 997
f 1059 1066 1041
f 1069 1079 1057
f 1064 1073 1055
f 1073 1070 1055
f 1068 1067 1019
f 1109 1122 1057
f 1072 1068 1019
f 1078 1056 976
f 1068 1070 1073
f 1073 1067 1068
f 1073 1071 1067
f 1071 1055 1056
f 1053 1075 983
f 1074 1076 1073
f 1064 1074 1073
f 1076 1055 1073
f 1055 1071 1073
f 960 1078 991
f 1077 1103 924
f 1062 1053 1058
f 1068 1072 1070
f 1010 990 1003
f 1084 1090 979
f 995 1097 1092
f 1094 1026 1051
f 1054 1059 1041
f 1029 1061 971
f 1080 960 1009
f 1080 1078 960
f 1071 1099 1067
f 1099 1040 1067
f 1078 1099 1056
f 1011 1080 1009
f 1122 1082 1057
f 1066 1094 1051
f 1060 1032 1024
f 1063 1077 924
f 1099 1071 1056
f 1082 1069 1057
f 1026 1072 1019
f 1085 1086 1040
f 1065 1029 971
f 1093 1042 1079
f 1086 1109 1040
f 1088 1089 1070
f 1060 1049 1032
f 1089 1046 1070
f 1039 1010 1003
f 1043 1084 873
f 1081 1192 875
f 1069 1093 1079
f 1098 889 972
f 1072 1088 1070
f 1101 1100 1006
f 1026 1096 1072
f 1125 1097 1005
f 1100 1025 1006
f 1094 1096 1026
f 1099 1085 1040
f 1089 1107 1046
f 1099 1078 1080
f 1082 1093 1069
f 1062 1094 1066
f 1107 1112 1046
f 1097 1108 1092
f 1120 889 1098
f 1052 1091 1092
f 1093 972 1042
f 1125 1095 1097
f 1113 1101 889
f 1099 1086 1085
f 1093 1098 972
f 1102 1010 1039
f 1151 1087 1103
f 1104 1090 1084
f 1072 1089 1088
f 1112 1062 1046
f 1072 1107 1089
f 1095 1108 1097
f 1141 1049 1060
f 1108 1095 1125
f 1053 1110 1075
f 1052 1111 1054
f 1096 1107 1072
f 1113 1100 1101
f 1111 1121 1054
f 1114 1102 1039
f 1048 1114 1039
f 1120 1113 889
f 1094 1107 1096
f 1086 1099 1080
f 1109 1086 1080
f 1110 1115 1075
f 1151 1083 1087
f 1062 1116 1053
f 1102 1117 1010
f 1106 1108 1125
f 1061 1119 1118
f 1010 1080 1011
f 1115 1048 1075
f 1098 1093 1128
f 1092 1111 1052
f 1094 1112 1107
f 1118 1141 1060
f 1116 1110 1053
f 1010 1109 1080
f 1124 1092 1108
f 1029 1119 1061
f 1180 1038 1035
f 1151 1105 1083
f 1135 1054 1121
f 1135 1059 1054
f 1127 1117 1102
f 1128 1120 1098
f 1124 1144 1092
f 1062 1112 1094
f 1113 1123 1100
f 1129 1175 1100
f 1018 1126 1065
f 1082 1130 1093
f 1130 1128 1093
f 1111 1135 1121
f 1114 1127 1102
f 1125 1131 1106
f 1123 1129 1100
f 1122 1130 1082
f 1010 1122 1109
f 1133 1115 1110
f 1116 1133 1110
f 1113 1129 1123
f 1130 1132 1128
f 1134 1108 1106
f 1131 1134 1106
f 1134 1124 1108
f 1138 1066 1059
f 1146 1136 1017
f 1135 1111 1132
f 1133 1064 1115
f 1076 1127 1114
f 1111 1137 1132
f 1137 1128 1132
f 1064 1048 1115
f 1064 1076 1114
f 1048 1064 1114
f 1136 1021 1017
f 1138 1135 1132
f 1074 1138 1132
f 1130 1074 1132
f 1135 1138 1059
f 1128 1137 1120
f 1139 1151 1103
f 1027 1018 1020
f 1116 1062 1066
f 1105 1155 1083
f 1155 1081 1083
f 1138 1140 1066
f 1141 1118 1119
f 1090 1077 1063
f 1142 1105 1151
f 1144 1148 1092
f 1136 1035 1021
f 1010 1117 1122
f 1148 1111 1092
f 1143 1151 1139
f 1140 1116 1066
f 1144 1124 1134
f 1049 1146 1050
f 1117 1127 1122
f 1103 1147 1139
f 1147 1119 1139
f 1119 1143 1139
f 1120 1145 1113
f 1043 1166 1084
f 1167 1192 1081
f 1194 1137 1111
f 1148 1194 1111
f 1133 1116 1140
f 1065 1149 1029
f 1029 1150 1119
f 1127 1074 1122
f 1074 1130 1122
f 1141 1119 1147
f 1119 1152 1143
f 1077 1147 1103
f 1143 1153 1151
f 1152 1153 1143
f 1154 1141 1147
f 1074 1140 1138
f 1077 1154 1147
f 1150 1152 1119
f 1084 1166 1104
f 1126 1149 1065
f 1152 1150 1153
f 1161 1167 1081
f 1090 1156 1077
f 1141 1157 1049
f 1155 1161 1081
f 1149 1150 1029
f 1158 1154 1077
f 1156 1158 1077
f 1127 1076 1074
f 1074 1064 1140
f 1154 1157 1141
f 1157 1154 1158
f 1176 1136 1146
f 1049 1176 1146
f 1064 1133 1140
f 1159 1151 1153
f 1150 1159 1153
f 1159 1142 1151
f 1175 1018 1027
f 1150 1149 1159
f 1142 1155 1105
f 1157 1160 1049
f 1187 1144 1134
f 1156 1162 1158
f 1163 1142 1159
f 1162 1157 1158
f 1164 1163 1159
f 1149 1164 1159
f 1018 1165 1126
f 1176 1035 1136
f 1126 1164 1149
f 1160 1176 1049
f 1104 1156 1090
f 1142 1161 1155
f 1162 1160 1157
f 1175 1237 1018
f 1169 1165 1018
f 1142 1167 1161
f 1104 1168 1156
f 1131 1187 1134
f 1145 1129 1113
f 1176 1170 1035
f 1171 1104 1166
f 1177 1192 1167
f 1172 1167 1142
f 1173 1160 1162
f 1165 1164 1126
f 1182 1144 1187
f 1104 1174 1168
f 1168 1162 1156
f 1173 1176 1160
f 1038 1131 1125
f 1170 1180 1035
f 1237 1169 1018
f 1164 1165 1163
f 1182 1148 1144
f 1168 1173 1162
f 1038 1189 1131
f 1163 1172 1142
f 1174 1173 1168
f 1165 1172 1163
f 1176 1173 1174
f 1172 1177 1167
f 1165 1177 1172
f 1169 1177 1165
f 1189 1187 1131
f 1145 1175 1129
f 1171 1174 1104
f 1179 1145 1120
f 1178 1176 1174
f 1171 1178 1174
f 1178 1170 1176
f 1137 1179 1120
f 1170 1178 1171
f 1043 1171 1166
f 1181 1192 1177
f 1194 1179 1137
f 1008 1195 1036
f 1033 1183 1030
f 1237 1181 1169
f 1043 1180 1171
f 1180 1170 1171
f 1169 1181 1177
f 1192 1183 1033
f 1192 1033 1037
f 1195 1186 1036
f 998 1185 1004
f 1185 1008 1004
f 1186 1043 1036
f 1198 1175 1145
f 1179 1184 1145
f 1184 1198 1145
f 1180 1189 1038
f 1191 1183 1192
f 1183 1191 1188
f 1008 1185 1195
f 1182 1194 1148
f 998 1223 1185
f 1191 1190 1188
f 1196 1180 1043
f 1186 1196 1043
f 1181 1193 1192
f 1193 1191 1192
f 1179 1201 1184
f 1195 1196 1186
f 1181 1197 1193
f 1209 1199 1195
f 1185 1206 1195
f 1206 1209 1195
f 1199 1196 1195
f 1200 1219 1193
f 1219 1191 1193
f 1197 1200 1193
f 1184 1202 1198
f 1190 1204 1188
f 1201 1202 1184
f 999 1224 998
f 1203 1194 1182
f 1182 1187 1189
f 1208 1215 1175
f 1198 1208 1175
f 1190 1212 1204
f 1223 1206 1185
f 1219 1190 1191
f 1218 1201 1179
f 1194 1218 1179
f 1207 795 1204
f 1223 1209 1206
f 1223 1225 1209
f 1204 1210 1207
f 1211 1224 999
f 1200 1233 1219
f 795 1211 999
f 1202 1208 1198
f 1224 1213 998
f 1213 1223 998
f 1215 1237 1175
f 1214 795 1207
f 1210 1214 1207
f 1219 1212 1190
f 1225 1246 1209
f 1238 1233 1200
f 795 1214 1211
f 1214 1216 1211
f 1246 1199 1209
f 1217 1196 1199
f 1197 1220 1200
f 1216 1210 1211
f 1210 1216 1214
f 1210 1221 1211
f 1205 1222 1182
f 1212 1210 1204
f 1220 1238 1200
f 1221 1210 1216
f 1205 1196 1217
f 1197 1226 1220
f 1234 1224 1211
f 1221 1234 1211
f 1227 1217 1199
f 1244 1215 1208
f 1234 1221 1210
f 1228 1244 1208
f 1202 1228 1208
f 1224 1223 1213
f 1189 1205 1182
f 1229 1238 1220
f 1226 1229 1220
f 1234 1230 1221
f 1231 1225 1223
f 1219 1232 1212
f 1222 1203 1182
f 1201 1228 1202
f 1230 1234 1210
f 1235 1230 1210
f 1224 1231 1223
f 1234 1230 1224
f 1230 1235 1224
f 1233 1232 1219
f 1232 1210 1212
f 1236 1235 1210
f 1232 1236 1210
f 1180 1205 1189
f 1244 1237 1215
f 1235 1231 1224
f 1239 1240 1235
f 1240 1241 1235
f 1241 1231 1235
f 1236 1242 1235
f 1242 1239 1235
f 1222 1194 1203
f 1201 1229 1228
f 1243 1244 1228
f 1238 1236 1233
f 1241 1225 1231
f 1236 1232 1233
f 1237 1197 1181
f 1229 1243 1228
f 1205 1180 1196
f 1237 1226 1197
f 1245 1217 1227
f 1244 1226 1237
f 1255 1229 1201
f 1244 1243 1226
f 1248 1245 1227
f 1229 1247 1238
f 1217 1245 1205
f 1249 1227 1199
f 1246 1249 1199
f 1218 1255 1201
f 1238 1242 1236
f 1229 1226 1243
f 1241 1246 1225
f 1229 1250 1247
f 1247 1251 1238
f 1249 1248 1227
f 1205 1245 1222
f 1241 1240 1246
f 1250 1251 1247
f 1251 1242 1238
f 1240 1249 1246
f 1252 1248 1249
f 1250 1253 1251
f 1240 1252 1249
f 1253 1242 1251
f 1245 1194 1222
f 1254 1252 1240
f 1239 1254 1240
f 1253 1239 1242
f 1254 1194 1245
f 1194 1255 1218
f 1255 1250 1229
f 1252 1245 1248
f 1239 1255 1194
f 1254 1239 1194
f 1253 1250 1255
f 1252 1254 1245
f 1239 1253 1255
