v -0.0332135 0.0062523 -0.33291
v -0.0323673 -0.00769233 -0.333076
v -0.0341049 -0.00556208 -0.34014
v -0.0335089 0.00776054 -0.342424
v -0.0330505 0.00562325 -0.343381
v -0.0341283 -0.00505017 -0.344487
v -0.0317553 0.010414 -0.332804
v -0.0329107 0.0104897 -0.335586
v -0.0296575 -0.017051 -0.338645
v -0.0305607 0.0107587 -0.329774
v -0.0301285 0.006708 -0.351884
v -0.030912 -0.004815 -0.329772
v -0.0317307 0.0114728 -0.330653
v -0.030149 0.000624 -0.349589
v -0.0304289 0.0109029 -0.331461
v -0.0305503 0.0112604 -0.329666
v -0.029951 -0.008597 -0.329317
v -0.0309904 -0.00942307 -0.329892
v -0.0306845 0.01108 -0.330063
v -0.03073 0.011153 -0.329955
v -0.030779 0.01108 -0.330202
v -0.030457 -0.007143 -0.32968
v -0.030492 0.011034 -0.329882
v -0.030159 -0.008298 -0.329584
v -0.029946 0.010859 -0.329373
v -0.0308962 0.0199927 -0.337743
v -0.030128 -0.008382 -0.329539
v -0.030349 0.010997 -0.32971
v -0.0292005 0.00686897 -0.353478
v -0.028559 0.004979 -0.352176
v -0.028648 0.002958 -0.352297
v -0.0287054 0.00134116 -0.352276
v -0.028703 0.000984 -0.352286
v -0.028706 0.000635 -0.352277
v -0.028683 -0.000642 -0.352239
v -0.028676 -0.000989 -0.352229
v -0.0288633 0.0201812 -0.335722
v -0.028574 0.004221 -0.35226
v -0.0295366 0.0171931 -0.341153
v -0.0292548 -0.0152421 -0.341772
v -0.0227801 -0.00522284 -0.36136
v -0.0295472 -0.00496947 -0.352836
v -0.0282622 -0.017173 -0.333065
v -0.027269 0.0193491 -0.329106
v -0.0257167 0.00012396 -0.35687
v -0.026079 -0.0141356 -0.350607
v -0.0259881 -0.0176086 -0.347186
v -0.0267634 -0.0167729 -0.328142
v -0.0263436 0.0189851 -0.348923
v -0.0275925 -0.0178288 -0.34019
v -0.024429 -0.017107 -0.323145
v -0.0270689 0.0193438 -0.342244
v -0.02433 0.019271 -0.32325
v -0.0235885 -0.0177312 -0.32652
v -0.0240739 0.0201246 -0.327636
v -0.0225208 0.00816526 -0.360574
v -0.0259159 0.0195549 -0.32531
v -0.0251934 -0.0179056 -0.343469
v -0.0211904 -0.0194854 -0.346047
v -0.021938 0.002932 -0.360533
v -0.0219972 0.00131862 -0.360532
v -0.021992 0.000959 -0.360539
v -0.021997 0.000609 -0.360531
v -0.021948 -0.000668 -0.360525
v -0.021939 -0.001021 -0.360521
v -0.021843 0.004954 -0.360437
v -0.02193 0.004196 -0.36043
v -0.022607 -0.0183935 -0.322253
v -0.0211021 0.0203331 -0.325245
v -0.0190473 -0.018799 -0.32446
v -0.0194315 0.0205736 -0.320629
v -0.021891 0.021002 -0.330576
v -0.0221667 0.0210098 -0.33681
v -0.0256283 -0.0155427 -0.35192
v -0.0216241 0.0190718 -0.355589
v -0.0220535 0.020751 -0.344573
v -0.021629 -0.018925 -0.330349
v -0.020098 -0.019002 -0.343394
v -0.0205909 0.0207398 -0.344093
v -0.0217711 0.00690018 -0.362642
v -0.021293 0.021033 -0.336376
v -0.0189105 -0.0160897 -0.358512
v -0.0223878 0.0194714 -0.324079
v -0.0193111 0.0208401 -0.349347
v -0.0268955 0.0227565 -0.337015
v -0.020916 -0.018947 -0.328841
v -0.020911 0.021053 -0.32896
v -0.020307 -0.018941 -0.327045
v -0.020302 0.021058 -0.327165
v -0.020508 -0.018943 -0.327576
v -0.020498 0.021057 -0.327678
v -0.0161223 0.0209733 -0.32688
v -0.0194922 -0.0175324 -0.343106
v -0.0188732 0.0193875 -0.346115
v -0.00793424 0.0208149 -0.359989
v -0.0134282 0.0191858 -0.326017
v -0.019252 -0.018985 -0.346214
v -0.0205893 -0.0189045 -0.345493
v -0.0196807 0.0209606 -0.346348
v -0.0149366 0.0190911 -0.360675
v -0.0177042 0.0208763 -0.347604
v -0.018778 0.019158 -0.359418
v -0.0169676 -0.0193377 -0.321528
v -0.00445554 -0.0176833 -0.323594
v -0.017729 -0.00039002 -0.363978
v -0.0191045 -0.0184224 -0.345627
v -0.0121108 0.0125498 -0.364357
v -0.0184669 -0.0170801 -0.357509
v -0.0162932 -0.01893 -0.350958
v -0.0156295 -0.0172048 -0.34212
v -0.0176637 -0.0182794 -0.343202
v -0.0133488 0.0235718 -0.32469
v -0.00972636 -0.021865 -0.328326
v -0.016397 -0.0190104 -0.349506
v -0.0159221 -0.0189993 -0.341933
v -0.0172301 -0.0186938 -0.325855
v -0.0157658 0.0209889 -0.327838
v -0.016232 0.021024 -0.336479
v -0.017178 0.021031 -0.334741
v -0.015975 -0.018887 -0.339812
v -0.016901 0.021023 -0.339004
v -0.015035 -0.004364 -0.367254
v -0.0112217 -0.0183902 -0.325176
v -0.0151997 0.00746368 -0.367415
v -0.016731 -0.0189785 -0.339319
v -0.0131129 0.0209936 -0.352776
v -0.0149272 -0.0190906 -0.339507
v -0.013264 -0.019008 -0.352842
v -0.0164985 -0.0188929 -0.335143
v -0.01593 0.020632 -0.332981
v -0.0160711 0.0206903 -0.335147
v -0.015016 0.020806 -0.327258
v -0.0149272 0.0194488 -0.338742
v -0.013284 -0.0172321 -0.343159
v -0.0144499 -0.0179011 -0.336589
v -0.0153381 -0.017975 -0.350125
v -0.015698 -0.0186 -0.342246
v -0.01579 0.020524 -0.333
v -0.015833 -0.01881 -0.342581
v -0.015776 -0.018497 -0.332886
v -0.01524 0.020652 -0.328029
v -0.015699 -0.018349 -0.332897
v -0.015139 -0.018555 -0.327891
v -0.0158453 -0.0187342 -0.342717
v -0.01581 0.020427 -0.334124
v -0.015698 -0.018604 -0.342552
v -0.01573 -0.018666 -0.342563
v -0.015058 -0.018416 -0.327955
v -0.0145157 0.0197721 -0.327163
v -0.0137174 -0.0187479 -0.343633
v -0.015055 0.020613 -0.327797
v -0.015682 -0.018616 -0.342344
v -0.015665 -0.018519 -0.342401
v -0.015333 -0.018547 -0.339765
v -0.015237 -0.018504 -0.339777
v -0.015431 -0.01859 -0.339769
v -0.0155353 -0.0180597 -0.335543
v -0.0143241 -0.0174469 -0.326705
v -0.015386 -0.018681 -0.339731
v -0.015186 0.020619 -0.327865
v -0.015209 -0.018379 -0.339788
v -0.0150924 -0.0182389 -0.339719
v -0.00770131 0.0200092 -0.336349
v -0.0217157 -0.0223781 -0.339197
v -0.0152308 0.0208675 -0.339794
v -0.01487 0.020703 -0.340106
v -0.014924 0.020675 -0.340036
v -0.013067 0.002914 -0.366264
v -0.013066 0.001733 -0.366299
v -0.013066 0.001284 -0.366312
v -0.013059 0.00094 -0.366315
v -0.013066 0.000591 -0.366309
v -0.013067 -0.000686 -0.366265
v -0.013067 -0.001033 -0.366253
v -0.013014 0.004954 -0.366143
v -0.0131147 0.00489594 -0.366174
v -0.0153785 -0.0187601 -0.32708
v -0.013354 0.0208767 -0.343459
v -0.0121971 -0.018075 -0.352675
v -0.01441 0.02076 -0.326603
v -0.014325 0.020675 -0.326633
v -0.0133489 -0.0188768 -0.343111
v -0.0145627 0.0207005 -0.336768
v -0.014531 -0.018881 -0.326132
v -0.014369 0.020621 -0.326712
v -0.013855 -0.018838 -0.326068
v -0.014025 0.020855 -0.326358
v -0.014439 -0.018858 -0.326169
v -0.00971928 -0.0187354 -0.344596
v -0.009233 0.020924 -0.346008
v -0.014105 0.020972 -0.344201
v -0.00908571 0.0197345 -0.355357
v -0.014248 -0.018782 -0.326233
v -0.007522 -0.017188 -0.342253
v -0.00743286 0.0194612 -0.3425
v -0.00957 -0.019008 -0.355733
v -0.013986 -0.01875 -0.326208
v -0.013892 -0.018674 -0.326257
v -0.013776 0.020782 -0.343806
v -0.013801 -0.018627 -0.326269
v -0.00391317 0.0228177 -0.359226
v -0.01371 0.020738 -0.343734
v -0.013706 0.020796 -0.326321
v -0.013711 -0.018676 -0.326203
v -0.013613 0.020667 -0.326384
v -0.01363 0.020708 -0.343665
v -0.013617 -0.018602 -0.343492
v -0.013617 -0.018684 -0.326162
v -0.0130114 0.0205217 -0.326293
v -0.013616 -0.018604 -0.326231
v -0.013537 0.020446 -0.326433
v -0.0086034 0.0193101 -0.344673
v -0.01356 -0.018558 -0.343413
v -0.012936 -0.018391 -0.326171
v -0.013504 -0.018604 -0.343333
v -0.013455 0.020369 -0.32642
v -0.0135056 0.0195876 -0.343144
v -0.013264 0.020304 -0.326388
v -0.0083893 0.0209498 -0.336016
v -0.01067 0.004963 -0.367119
v -0.0122466 -0.00634478 -0.368289
v -0.008683 -0.017193 -0.344644
v -0.0122327 0.0071839 -0.368904
v -0.013359 -0.00496412 -0.367237
v -0.010472 0.0209592 -0.354654
v -0.0113577 -0.0186741 -0.32628
v -0.0141195 0.0210234 -0.325686
v 0.00671048 0.00989571 -0.368432
v -0.00557438 -0.0169468 -0.36449
v -0.0117971 -0.0196587 -0.356489
v -0.0102463 -0.01799 -0.327048
v -0.00879992 0.021128 -0.326201
v -0.00909461 -0.0189685 -0.32627
v -0.0101826 0.0209851 -0.349845
v -0.0100989 0.0209192 -0.348282
v -0.0102385 0.02099 -0.347977
v -0.0104065 -0.0190065 -0.34834
v -0.010239 -0.0189765 -0.349238
v -0.0101297 0.0209532 -0.349705
v -0.010228 -0.019011 -0.349926
v -0.010156 0.020988 -0.350266
v -0.010147 0.020989 -0.349812
v -0.010137 0.020978 -0.350042
v -0.010166 0.0209 -0.348829
v -0.01023 -0.018937 -0.348707
v -0.00918785 -0.0175188 -0.335162
v -0.009688 -0.019005 -0.350682
v -0.010145 0.020982 -0.350142
v -0.006211 -0.017309 -0.355888
v -0.002809 -0.018984 -0.352358
v -0.006528 -0.018968 -0.350381
v -0.00166 0.020958 -0.353429
v -0.002772 0.020968 -0.352573
v -0.010027 0.020954 -0.349945
v -0.005163 0.020969 -0.351654
v -0.006681 0.020958 -0.350668
v -0.00882 0.02097 -0.350151
v -0.009992 -0.019002 -0.347068
v -0.009963 0.020921 -0.349786
v -0.009798 0.020961 -0.347186
v -0.010176 -0.0189992 -0.34951
v -0.00988196 0.0208101 -0.349493
v -0.00922572 -0.0189463 -0.349962
v -0.009992 0.020719 -0.348728
v -0.010017 0.020744 -0.348838
v -0.001675 0.020942 -0.353299
v -0.00984595 0.0208157 -0.347885
v -0.009949 -0.018804 -0.34923
v -0.010042 -0.018789 -0.348716
v -0.010036 -0.018793 -0.348609
v -0.009985 0.020721 -0.348607
v -0.0100558 -0.0189265 -0.348076
v -0.001612 0.02091 -0.35314
v -0.009902 0.020864 -0.349632
v -0.00994446 -0.018866 -0.347899
v -0.009 -0.0172 -0.346058
v -0.009018 -0.0172 -0.346213
v -0.008995 0.0192 -0.346167
v -0.009014 0.0192 -0.346301
v -0.009936 -0.018661 -0.348817
v -0.009933 0.020647 -0.348932
v -0.009959 -0.018687 -0.348424
v -0.00999043 0.0207493 -0.34856
v -0.00986122 0.0206563 -0.348197
v -0.009752 -0.018946 -0.347063
v -0.009011 0.019199 -0.346465
v -0.009922 -0.018685 -0.34827
v -0.00155 0.020853 -0.352987
v -0.009877 0.020608 -0.348284
v -0.009817 0.020704 -0.347963
v -0.009883 -0.018658 -0.348156
v -0.008974 0.0191985 -0.346648
v -0.001509 0.020815 -0.352885
v -0.009833 -0.018727 -0.347904
v -0.00987185 -0.0186558 -0.348121
v -0.008968 -0.017199 -0.345899
v -0.008981 0.0192 -0.346068
v -0.009785 0.020551 -0.348061
v -0.0096375 0.0208785 -0.347152
v -0.00975389 0.0206604 -0.347901
v -0.005342 -0.017207 -0.347987
v -0.00478301 0.0191108 -0.348201
v -0.00973559 -0.018729 -0.347622
v -0.009792 -0.018626 -0.347856
v -0.009434 -0.01872 -0.346862
v -0.009793 -0.018562 -0.347944
v -0.009727 0.02054 -0.347849
v -0.009739 -0.018596 -0.347729
v -0.00887 -0.017199 -0.345785
v -0.008865 0.019201 -0.345894
v -0.0093219 0.0199593 -0.346964
v -0.009442 -0.018607 -0.347024
v -0.009041 -0.018587 -0.345988
v -0.00889 -0.017199 -0.345647
v -0.00634709 0.0208126 -0.356209
v -0.009511 -0.018916 -0.326567
v -0.009259 -0.018912 -0.32669
v -0.009215 0.020583 -0.346562
v -0.00877 -0.018043 -0.345348
v -0.00802974 -0.0188778 -0.341631
v -0.009179 0.020493 -0.346492
v -0.009119 0.020561 -0.346321
v -0.00826757 -0.0188379 -0.335783
v -0.007592 -0.018319 -0.342241
v -0.00879484 0.0201679 -0.345538
v -0.008668 -0.017274 -0.345089
v -0.008052 0.020951 -0.349468
v -0.008536 0.02093 -0.349933
v -0.008469 0.020905 -0.349831
v -0.008409 0.020874 -0.349722
v -0.008142 0.020659 -0.34916
v -0.00811245 -0.018652 -0.338204
v -0.00753452 -0.0173448 -0.336103
v -0.00561938 -0.0191504 -0.346526
v -0.00889814 0.0197914 -0.327882
v -0.007988 -0.018545 -0.337978
v -0.007908 -0.018162 -0.338445
v -0.00781773 0.0194532 -0.339832
v -0.007647 -0.018484 -0.336876
v -0.00215466 -0.0172259 -0.32727
v -0.00609163 -0.018866 -0.344902
v -0.007501 -0.018247 -0.336709
v -0.007573 -0.018228 -0.337006
v -0.00578012 0.020965 -0.345025
v -0.007533 -0.01815 -0.336936
v -0.007546 -0.018072 -0.337016
v -0.00685182 -0.017331 -0.334774
v -0.00756707 -0.0184229 -0.329796
v -0.00159284 -0.0181652 -0.33153
v -0.00697677 -0.0188138 -0.333932
v -0.00138982 0.0200854 -0.331377
v -0.00707777 0.0204475 -0.334596
v -0.00819541 -0.0189043 -0.355507
v -0.011535 -0.0164631 -0.362862
v -0.004617 0.019207 -0.345549
v -0.00426675 -0.0189478 -0.333006
v -0.00324373 -0.00606147 -0.36948
v -0.00448061 0.00744825 -0.370758
v -0.006427 -0.018981 -0.350946
v -0.006368 -0.018994 -0.351047
v -0.006427 -0.018956 -0.350842
v -0.006446 -0.018944 -0.350743
v -0.005044 -0.018972 -0.351462
v -0.004779 0.020723 -0.346169
v -0.00496774 0.0209572 -0.3456
v -0.00501363 -0.0173927 -0.344638
v -0.005825 0.020701 -0.344926
v -0.00573 0.020656 -0.344903
v -0.00650064 0.0191841 -0.344874
v -0.005631 0.020611 -0.344895
v -0.005385 -0.018802 -0.344932
v -0.00307613 -0.019606 -0.35941
v -0.00241951 0.0179889 -0.365821
v -0.00490465 -0.0188156 -0.345253
v -0.00203921 -0.0189598 -0.358273
v -0.00635868 0.0209672 -0.356872
v -0.003748 -0.017207 -0.348494
v -0.004916 -0.019017 -0.351617
v -0.005018 -0.019017 -0.35165
v -0.001606 0.019191 -0.349556
v -0.005194 0.0206091 -0.345017
v -0.004973 0.0207 -0.34527
v -0.00273413 -0.0187072 -0.327696
v -0.004901 0.020655 -0.345337
v -0.004366 0.020952 -0.351031
v -0.00484 0.020913 -0.351409
v -0.004484 0.020708 -0.350787
v -0.004778 -0.019017 -0.35155
v -0.004884 0.020744 -0.345439
v -0.004823 0.020699 -0.345514
v -0.004839 0.020609 -0.345414
v -0.002804 0.002905 -0.369003
v -0.002791 0.001723 -0.369035
v -0.002787 0.001274 -0.369047
v -0.002779 0.000931 -0.369048
v -0.00760383 -0.000329081 -0.368368
v -0.0022777 -0.00414437 -0.369694
v -0.002793 0.004945 -0.368872
v -0.00286512 0.00488373 -0.368928
v -0.004774 0.020654 -0.345599
v -0.004755 0.0209 -0.351319
v -0.00475864 0.0207341 -0.345801
v -0.004687 0.020867 -0.351199
v -0.004623 -0.018963 -0.351152
v -0.004202 -0.019012 -0.350937
v -0.004422 -0.018791 -0.350617
v -0.004726 0.020562 -0.346084
v -0.004656 -0.018771 -0.35088
v -0.004707 0.020518 -0.34596
v -0.00214105 0.00724641 -0.370634
v -0.004536 -0.018954 -0.351037
v -0.004608 -0.018747 -0.350794
v -0.004454 -0.018944 -0.350915
v -0.00454 -0.018713 -0.350673
v -0.004169 -0.018937 -0.350457
v -0.002913 0.020973 -0.351557
v -0.00494646 0.0211322 -0.333173
v -0.00267684 -0.0173232 -0.346266
v -0.002815 -0.018746 -0.346697
v -0.002352 -0.018968 -0.34654
v -0.00346642 -0.0190273 -0.357065
v 0.00518819 -0.0174749 -0.357039
v -0.002733 0.021047 -0.328896
v 0.000918669 -0.0185608 -0.326167
v -0.002731 0.020871 -0.351887
v -0.002761 0.020897 -0.351762
v -0.002724 0.020867 -0.352006
v -0.002724 0.020897 -0.351482
v -0.002545 0.020786 -0.351279
v -0.001448 0.004953 -0.369002
v -0.00218198 0.0210711 -0.346537
v -0.0026831 0.0208237 -0.351827
v -0.002546 0.021049 -0.3295
v -0.002729 0.021073 -0.32904
v -0.00236 0.021043 -0.330104
v -0.002586 -0.018563 -0.346436
v -0.00201689 -0.0177229 -0.350469
v -0.001001 0.020727 -0.347333
v -0.002451 0.021048 -0.33
v -0.002495 0.021049 -0.329667
v -0.002408 -0.018608 -0.346348
v -0.00264478 0.0200587 -0.327001
v -0.00156635 0.0196524 -0.346217
v -0.001805 0.020977 -0.353621
v 0.00628856 -0.0206314 -0.35893
v -0.001559 0.020696 -0.346527
v -0.00137647 0.0209001 -0.353028
v -0.001489 0.02074 -0.346594
v 0.00738768 0.00528187 -0.369054
v 0.00142106 0.0209154 -0.357588
v -0.001348 0.020761 -0.352794
v -0.00145976 -0.0189966 -0.35307
v 0.00544914 0.0196645 -0.356678
v -0.00133039 -0.0190174 -0.353098
v -0.00147063 0.0209578 -0.35327
v -0.001328 0.020695 -0.346695
v -0.0012645 0.0209645 -0.353212
v -0.001259 -0.018903 -0.352792
v -0.00128 0.020739 -0.346779
v -0.0012205 0.020887 -0.352946
v -0.001192 0.02065 -0.346831
v -0.001163 -0.018961 -0.35284
v 0.00242085 -0.0174493 -0.366626
v -0.000874 -0.0183145 -0.351815
v -0.000977433 -0.0185042 -0.346666
v -0.000981 0.020677 -0.352502
v -0.000730211 -0.0189042 -0.352293
v -0.000752829 0.020696 -0.352242
v -0.00078 -0.018955 -0.352496
v 0.0140649 0.0210764 -0.33247
v -0.000671882 -0.0187466 -0.352004
v -0.000633 -0.01867 -0.351873
v -0.000673 0.020967 -0.352705
v -0.000671444 0.0208879 -0.352376
v -0.000574 -0.019047 -0.352666
v 0.000204 -0.017211 -0.349608
v 0.000209 0.019188 -0.349717
v -0.0006 0.02095 -0.352764
v -0.00052642 0.0207577 -0.351916
v -0.000561566 0.0205728 -0.351854
v -0.000538 0.020533 -0.351751
v 0.000487806 -0.0172006 -0.328011
v -0.000571669 -0.0186873 -0.351768
v -0.000151 0.019248 -0.329002
v 0.00201 0.019275 -0.328452
v -0.000356126 0.0193864 -0.330789
v -0.000465 -0.0188456 -0.351776
v -0.000481763 0.0206815 -0.351741
v 0.000335 0.019189 -0.349616
v -0.000445 0.020483 -0.351577
v -0.000116711 0.019251 -0.332385
v -0.000457821 0.0208395 -0.351951
v 0.000297021 -0.0172104 -0.34946
v -0.000451651 -0.0186929 -0.351512
v 0.000324 0.019189 -0.349488
v 0.000131419 0.0204985 -0.35012
v -0.000223644 0.0209481 -0.351821
v -5.4e-05 0.020698 -0.350731
v 5e-05 0.020486 -0.350343
v -0.000395765 -0.0187712 -0.351474
v -6.4e-05 0.02075 -0.350833
v -2.5e-05 -0.019018 -0.351695
v 2.8e-05 -0.0189455 -0.350975
v -2.7e-05 0.0208615 -0.351006
v -0.000109 0.019328 -0.332258
v 0.000207 -0.019016 -0.351163
v 0.000175 0.02098 -0.35125
v 0.000958251 0.0194366 -0.328586
v -0.000197277 -0.0189862 -0.351622
v 9.3e-05 0.020983 -0.351547
v -7.9762e-05 0.0194558 -0.332205
v -0.000276384 -0.0172587 -0.33198
v 0.000107 0.01935 -0.332452
v 0.000139 0.020553 -0.350142
v -1.296e-05 -0.0171649 -0.332357
v -0.00019043 0.021136 -0.331329
v 0.000142731 -0.0189296 -0.350189
v 0.000565676 0.0207732 -0.349491
v 0.000418154 -0.0172895 -0.328705
v -0.000128219 -0.0189598 -0.330776
v 0.000543766 -0.0179246 -0.332492
v 0.00474671 -0.0189735 -0.34401
v 0.00467604 -0.0178338 -0.334885
v 0.00549871 0.0210963 -0.33437
v 0.002617 -0.017155 -0.333293
v 0.0011114 0.019335 -0.332848
v 0.0115795 -0.0215017 -0.335899
v 0.002045 0.019595 -0.328816
v 0.00275414 -0.0190378 -0.357337
v 0.00795148 0.0208995 -0.357392
v 0.00453778 -0.0171723 -0.328873
v 0.00073 -0.017512 -0.332605
v 0.000805 -0.017642 -0.332611
v 0.00516082 -0.018894 -0.351223
v 0.000926 -0.017643 -0.332657
v 0.005278 -0.018672 -0.351087
v 0.00527447 0.0205417 -0.350971
v 0.00754651 -0.00878194 -0.367302
v 0.00213567 -0.0171781 -0.348158
v 0.0107269 0.019092 -0.346522
v 0.0083154 0.0193367 -0.349483
v 0.00677743 1.56404e-05 -0.36904
v 0.0233059 0.0209642 -0.340978
v 0.00356946 -0.0173968 -0.343824
v 0.00692702 0.0208261 -0.356382
v 0.00655453 0.0202353 -0.359838
v 0.004316 0.019268 -0.33494
v 0.007246 0.019286 -0.331971
v 0.0060752 -0.0188602 -0.33457
v 0.006549 0.01952 -0.33162
v 0.006593 0.019408 -0.33155
v 0.0241135 -0.0183399 -0.340912
v 0.0082966 -0.0178143 -0.361037
v 0.004364 -0.017166 -0.334892
v 0.004186 -0.017521 -0.334655
v 0.007521 0.019249 -0.333872
v 0.005308 0.019233 -0.335449
v 0.018778 -0.0160059 -0.335987
v 0.00343239 -0.0184598 -0.356823
v 0.006766 0.008204 -0.370135
v 0.004363 -0.017263 -0.33487
v 0.006815 -0.004375 -0.370385
v 0.004516 -0.017182 -0.335016
v 0.0070576 -0.0190567 -0.356716
v 0.009356 0.020968 -0.356252
v 0.004553 0.019379 -0.33506
v 0.004611 0.019324 -0.335124
v 0.004688 0.01929 -0.335185
v 0.00561908 -0.0185629 -0.342458
v 0.00889681 -0.0177519 -0.343153
v 0.00545921 0.0197516 -0.342526
v 0.00485 0.01931 -0.335213
v 0.00495 0.019306 -0.335229
v 0.0015162 0.0202954 -0.346674
v 0.00541392 -0.0173036 -0.350886
v 0.00527976 0.0206374 -0.351009
v 0.00520272 0.0192383 -0.350653
v 0.0048439 0.0202892 -0.334944
v 0.00661055 0.018288 -0.365004
v 0.005861 0.02088 -0.334599
v 0.005295 -0.018628 -0.35099
v 0.005327 -0.018584 -0.350898
v 0.00847521 -0.0193968 -0.347092
v 0.00788611 0.0208385 -0.342931
v 0.00893768 0.0209077 -0.349416
v 0.008851 -0.018804 -0.34935
v 0.007713 -0.018173 -0.349845
v 0.00612108 -0.0182225 -0.334457
v 0.007795 0.0049 -0.368257
v 0.00778539 0.00393174 -0.368387
v 0.007804 0.002905 -0.368435
v 0.00801682 -0.00329895 -0.368762
v 0.007826 0.001724 -0.368462
v 0.007835 0.001275 -0.368472
v 0.007843 0.000931 -0.36847
v 0.005913 0.020938 -0.334353
v 0.005917 0.020949 -0.334248
v 0.005917 0.020938 -0.33414
v 0.0103907 -0.0171951 -0.340471
v 0.00553986 0.0197904 -0.337092
v 0.00792909 0.0204973 -0.341544
v 0.00716215 0.0200248 -0.333355
v 0.00838275 -0.0188072 -0.340984
v 0.00561609 0.0194402 -0.340206
v 0.00646709 -0.0190314 -0.336021
v 0.00820137 -0.0189028 -0.3575
v 0.008438 0.02082 -0.357606
v 0.006703 0.019554 -0.331766
v 0.00883035 0.0195798 -0.365002
v 0.006655 -0.018289 -0.333242
v 0.009808 0.020669 -0.355151
v 0.00932209 0.020236 -0.360703
v 0.00729433 -0.0176048 -0.333356
v 0.010022 0.020976 -0.355703
v 0.0114187 0.0209047 -0.339185
v 0.00941295 0.0191553 -0.357135
v 0.007397 -0.018581 -0.352032
v 0.007282 -0.01723 -0.351905
v 0.00849988 0.019189 -0.353829
v 0.007421 -0.018685 -0.352072
v 0.00820549 0.0209953 -0.335119
v 0.007448 -0.018694 -0.351906
v 0.0074495 -0.018728 -0.352138
v 0.00970129 -0.0174038 -0.356166
v 0.009595 -0.006341 -0.369578
v 0.0118225 0.00737932 -0.369219
v 0.00783355 -0.0187977 -0.351564
v 0.00763393 0.0204092 -0.352148
v 0.0137097 0.0202355 -0.335983
v 0.00851873 -0.0181661 -0.353622
v 0.0101431 -0.0190382 -0.356011
v 0.00894752 0.0207979 -0.353664
v 0.008858 0.020838 -0.357364
v 0.0094647 -0.0189042 -0.357076
v 0.01623 0.020862 -0.353457
v 0.00837127 -0.0174295 -0.349511
v 0.008762 -0.018713 -0.349396
v 0.008809 -0.018579 -0.349438
v 0.008862 0.020555 -0.349563
v 0.008952 0.020512 -0.349597
v 0.009039 0.020555 -0.349639
v 0.00935456 0.0208159 -0.34977
v 0.00607002 -0.0178325 -0.335554
v 0.00929886 -0.0187611 -0.349733
v 0.009605 0.020862 -0.35693
v 0.00970611 0.0209487 -0.347024
v 0.0103891 -0.018801 -0.346747
v 0.0153264 0.0189867 -0.361261
v 0.014459 -0.017987 -0.361811
v 0.0104201 -0.0173832 -0.360776
v 0.009829 -0.018209 -0.34085
v 0.00986 -0.018341 -0.340753
v 0.014594 0.020526 -0.359683
v 0.010516 -0.018272 -0.340128
v 0.009897 -0.018175 -0.340783
v 0.014273 0.0209676 -0.346742
v 0.0105148 -0.0173789 -0.346693
v 0.01231 -0.018063 -0.346625
v 0.013175 0.02099 -0.347389
v 0.00875989 -0.0176085 -0.364318
v 0.012327 0.020108 -0.346746
v 0.0124807 -0.0190583 -0.337283
v 0.013509 -0.01874 -0.337733
v 0.0195999 -0.0214989 -0.346776
v 0.0141582 -0.0176459 -0.337424
v 0.0143488 0.0192533 -0.338782
v 0.0143707 -0.0189782 -0.34627
v 0.011351 0.020971 -0.35467
v 0.011452 0.020973 -0.354487
v 0.012659 0.020975 -0.35376
v 0.0106526 0.020401 -0.347176
v 0.0126516 -0.0187456 -0.346826
v 0.017318 -0.000922244 -0.365332
v 0.0175278 -0.00687109 -0.364603
v 0.0129683 -0.0188156 -0.33886
v 0.0135944 0.020579 -0.339092
v 0.00772634 -0.0145464 -0.365381
v 0.016635 0.020976 -0.35134
v 0.017366 0.020946 -0.351082
v 0.0154967 -0.0162279 -0.361275
v 0.012732 0.02029 -0.346552
v 0.0132094 0.0206881 -0.346418
v 0.016087 0.0206498 -0.342471
v 0.013147 -0.018474 -0.346166
v 0.013121 0.020751 -0.339039
v 0.013187 0.0209725 -0.338623
v 0.013303 -0.018932 -0.338458
v 0.013307 -0.01895 -0.338343
v 0.013308 -0.018955 -0.33823
v 0.0135673 -0.0188103 -0.337881
v 0.01355 -0.018827 -0.337938
v 0.013559 -0.018863 -0.338396
v 0.0140208 -0.0185567 -0.338713
v 0.0135539 -0.0188855 -0.338224
v 0.013714 -0.018794 -0.33823
v 0.013733 -0.018636 -0.33777
v 0.013695 -0.018753 -0.337948
v 0.0139403 0.0203842 -0.338885
v 0.01432 -0.01718 -0.338529
v 0.0141153 -0.018547 -0.34505
v 0.0138695 0.02039 -0.345266
v 0.014056 0.020238 -0.338841
v 0.014764 -0.018668 -0.344258
v 0.0158702 0.0161714 -0.362005
v 0.017385 -0.004366 -0.366776
v 0.0157205 -0.0186059 -0.358886
v 0.015707 -0.018464 -0.34255
v 0.0162604 -0.0188523 -0.342013
v 0.0162508 -0.0185539 -0.341968
v 0.0173303 0.00621742 -0.367
v 0.016634 -0.0189754 -0.342708
v 0.0169849 0.0210663 -0.343048
v 0.0176435 0.019478 -0.361137
v 0.015799 -0.018466 -0.342388
v 0.015751 -0.018357 -0.342371
v 0.0161517 0.0192816 -0.339666
v 0.017645 0.004955 -0.364506
v 0.017615 0.00489651 -0.364601
v 0.017716 0.002915 -0.364618
v 0.0156862 0.0196909 -0.341169
v 0.0159486 -0.0171755 -0.340135
v 0.0180789 -0.00339786 -0.364964
v 0.017747 0.001734 -0.364636
v 0.017759 0.001285 -0.364642
v 0.017767 0.000941 -0.364638
v 0.0171809 0.0197066 -0.341374
v 0.0167495 0.0207508 -0.339966
v 0.016186 0.020433 -0.340206
v 0.016135 0.020451 -0.340302
v 0.016243 0.0204 -0.340109
v 0.0163204 -0.0186796 -0.339973
v 0.0178185 0.0241069 -0.345874
v 0.0178953 0.00900878 -0.364286
v 0.0219531 -0.0188407 -0.343337
v 0.0191644 -0.00669368 -0.364244
v 0.0203064 0.00718596 -0.365469
v 0.019809 0.00497 -0.363185
v 0.0215956 0.0209164 -0.345122
v 0.0230817 -0.0161532 -0.356156
v 0.0229424 -0.0184198 -0.345442
v 0.0181296 -0.0174982 -0.359927
v 0.0198236 0.0217872 -0.352493
v 0.0227592 0.0187514 -0.3559
v 0.0207883 -0.00342542 -0.355649
v 0.020878 0.00548393 -0.355795
v 0.023351 -0.0193993 -0.341931
v 0.0209273 0.00833977 -0.35593
v 0.023027 -0.004001 -0.353948
v 0.0239465 0.0196261 -0.353999
v 0.0218555 0.00498443 -0.36202
v 0.021627 -0.0170681 -0.353918
v 0.0215419 0.0190815 -0.353981
v 0.024372 -0.003258 -0.350857
v 0.0251865 0.0192388 -0.345944
v 0.0238393 -0.0176768 -0.353738
v 0.0253222 -0.00506992 -0.351279
v 0.023795 -0.0182216 -0.346991
v 0.024057 0.019979 -0.347341
v 0.024905 0.0198058 -0.345139
v 0.024497 0.008717 -0.350735
v 0.0256554 0.0168581 -0.352918
v 0.0231032 -0.0069857 -0.352486
v 0.024656 -0.003516 -0.350998
v 0.024745 -0.003614 -0.351056
v 0.0261422 -0.00687962 -0.357099
v 0.0254945 -0.0172124 -0.345593
v 0.023725 0.01914 -0.350713
v 0.024846 -0.003766 -0.351121
v 0.025038 -0.003962 -0.351014
v 0.0253318 0.00632302 -0.351259
v 0.024543 0.0196215 -0.347713
v 0.02449 -0.003358 -0.350627
v 0.0286095 -0.012454 -0.350333
v 0.0267986 0.0062598 -0.358594
v 0.0251608 -0.0172076 -0.347134
v 0.0263228 -0.00509822 -0.36034
v 0.0256841 0.0185844 -0.348329
v 0.0259974 -0.00295709 -0.358007
v 0.0255051 -0.0153561 -0.353095
v 0.0256873 0.0195484 -0.349045
v 0.0258646 -0.0169409 -0.347938
v 0.026243 0.019264 -0.346053
v 0.0241491 -0.0175861 -0.351364
v 0.0251105 -0.0052845 -0.350987
v 0.0278442 0.014081 -0.352185
v 0.0255943 0.019944 -0.343171
v 0.026361 -0.0174636 -0.345391
v 0.0283273 -0.00509472 -0.357361
v 0.0295741 0.00472851 -0.352924
v 0.0277805 -0.0101954 -0.347473
v 0.0265442 0.0086747 -0.357355
v 0.0287611 0.0075681 -0.357556
v 0.0292245 -0.000222901 -0.350934
v 0.0288885 -0.00911065 -0.352075
v 0.0286784 0.0107703 -0.349029
v 0.0283766 0.0148442 -0.348962
v 0.029428 -0.009506 -0.350641
v 0.0288744 0.0110771 -0.348792
v 0.028606 -0.00883452 -0.35043
v 0.0287596 0.0111845 -0.351737
v -0.0309685 0.00604877 -0.328112
v -0.0313069 -0.003578 -0.32879
v -0.0194647 0.0180372 -0.325165
v -0.0296841 0.012709 -0.328347
v -0.0266139 0.0168282 -0.319664
v -0.0282544 -0.0133475 -0.3273
v -0.0243979 0.0180179 -0.315506
v -0.0193367 -0.0171939 -0.310653
v -0.0243136 0.0183738 -0.31666
v -0.0259766 -0.0150695 -0.318711
v -0.0244916 0.0186967 -0.326276
v -0.0261046 -0.0153545 -0.327126
v -0.024681 -0.000430512 0.00423336
v -0.024057 -0.01162 -0.007533
v -0.024211 -0.01121 -0.000335
v -0.00809734 0.00452931 0.00345792
v -0.0246653 0.00450418 -0.000961836
v -0.00863304 -0.000461893 -0.000719543
v -0.0247942 0.0142724 -0.00527847
v -0.0226989 -0.0119346 -0.0215038
v -0.0241911 0.0149032 0.0366008
v -0.0219823 0.0195144 -0.316354
v -0.0230017 0.0170671 0.0339798
v -0.023579 0.016239 -0.006384
v -0.023766 -0.011854 0.033704
v -0.022864 -0.012731 -0.007983
v -0.0186934 -0.017548 -0.323131
v -0.0214555 0.0158137 -0.0293934
v -0.023108 -0.012425 0.034273
v -0.022441 0.013738 0.040186
v -0.020133 -0.016803 -0.324699
v -0.021844 -0.012996 -0.016691
v -0.0217535 0.0170507 -0.0220257
v -0.00924 -0.017029 -0.321625
v -0.022171 -0.012801 0.03418
v -0.0236526 -0.0114006 0.0366539
v -0.022218 -0.0109647 0.0397115
v -0.0209318 0.0100515 0.0448223
v -0.0252631 -0.0172736 -0.321024
v -0.019707 -0.014203 -0.030244
v -0.0123661 0.0189755 -0.325334
v -0.019182 -0.013646 -0.03478
v -0.02119 -0.012876 0.031745
v -0.0204606 0.0169706 0.0314596
v -0.0139152 0.0173158 0.00125728
v -0.0114215 -0.0134278 -0.00824835
v -0.019087 0.017403 -0.035286
v -0.017918 0.018863 -0.032922
v -0.00323088 -0.0132278 -0.0138495
v -0.0200229 0.0153866 0.0393169
v -0.018546 0.018394 -0.03472
v -0.0203258 -0.0168004 -0.318638
v -0.0194145 0.0191804 -0.320153
v -0.00725563 -0.0131514 0.0118621
v -0.020039 0.016666 0.031058
v -0.020133 -0.012378 0.031326
v -0.0192559 0.00446295 -0.318541
v -0.018876 -0.002386 -0.317045
v -0.0185602 -0.00535667 0.0471698
v -0.0206039 -0.0123936 0.0358034
v -0.018732 -0.016851 -0.320191
v -0.007377 0.016864 0.012544
v -0.0198456 -0.00555703 0.0315262
v -0.007267 -0.012834 0.012303
v -0.0177682 -0.00877272 0.0420109
v -0.0204763 -0.0139112 -0.0240773
v -0.0187177 -0.00190633 -0.318899
v -0.00215983 -0.0197374 -0.0854815
v -0.018652 0.004118 -0.317264
v -0.0196499 0.00871046 0.0321325
v -0.018566 -0.005609 0.039163
v 0.006251 0.004489 -0.289745
v -0.00594628 0.00925928 0.0121289
v -0.0182456 0.00370796 -0.31875
v -0.00197305 0.0191529 -0.323363
v -0.0168543 0.00810759 0.0401453
v 0.009241 -0.001564 -0.287243
v -0.017922 -0.001458 -0.318256
v -0.0175498 -0.00497347 0.0408375
v -0.00500124 0.00410803 -0.32161
v 0.009388 0.003751 -0.287587
v -0.0133499 -0.00373861 0.0512082
v -0.0179782 0.0102019 0.040837
v -0.0148545 0.0072943 0.0335254
v 0.012256 -0.001379 -0.28413
v -0.0049797 -0.00358834 0.0133684
v -0.01757 0.007678 0.032029
v -0.00433661 0.00789836 0.0127644
v -0.0136421 -0.0043563 0.0450581
v 0.00233097 0.0226246 -0.100039
v -0.005284 0.022409 -0.076277
v -0.0172436 0.0123647 0.0458834
v -0.00137813 -0.00200314 -0.322742
v -0.001863 -0.001473 -0.321024
v -0.005013 -0.019127 -0.076176
v -0.0175042 0.0128507 0.0417648
v -0.004544 0.023166 -0.075652
v -0.019419 -0.00405755 0.0334149
v -0.004213 -0.019747 -0.074673
v 0.00319948 -0.0127482 -0.0155975
v -0.000816852 0.0240751 -0.0854052
v -0.0111425 -0.00525585 0.0498865
v -0.0113697 0.00972879 0.0479359
v -0.014197 0.010806 0.045252
v 0.0109458 -0.018523 -0.0628313
v 0.0150275 0.0224302 -0.0623325
v -0.012823 0.00776811 0.0437634
v -0.0144998 -0.00308013 0.0403924
v -0.0141894 0.00863112 0.0506598
v -0.0142313 -0.0132965 0.00212605
v -0.0116604 0.0100118 0.0471501
v -0.0144623 -0.00217646 0.0351122
v -0.0108502 -0.00491943 0.047213
v -0.0203332 0.0200939 -0.316558
v -0.00912094 -0.00430209 0.0479329
v -0.0145714 -0.0148729 -0.00103091
v -0.0129098 0.0188887 -0.0021629
v -0.0111525 0.0174484 -0.00862533
v -0.00675963 -0.000114404 0.0540297
v -0.00821165 -0.0147523 -0.00318865
v -0.0115346 0.00552341 0.0363612
v -0.00931241 -0.00218594 0.0361161
v -0.00893118 0.0188368 0.000226263
v -0.00777306 0.00646463 0.0449082
v -0.014599 -0.00303789 0.030733
v -0.00513415 0.00698251 0.0532015
v -0.010684 0.0195114 0.0054334
v -0.008831 -0.003686 0.05107
v -0.019154 -0.0177577 -0.315964
v -0.00653457 0.00650067 0.0267822
v -0.007451 -0.014912 -0.010352
v -6.8e-05 0.003636 -0.322299
v -0.0048667 -0.0146086 0.012028
v -0.00807784 0.0183736 0.00287078
v -0.00864447 -0.0146908 0.00168374
v -0.00749448 0.0186897 -0.00487897
v -0.00729157 0.00746116 0.038736
v -0.00362353 -0.0147535 -0.0124071
v -0.00805239 -0.00331874 0.051782
v -0.0071114 -0.00367327 0.0376861
v -0.00403145 0.0173555 -0.0135039
v -0.007357 -0.014305 0.004318
v -0.00379406 -0.0170714 -0.322852
v -0.00630144 -0.0146499 -0.00603248
v -0.00386923 0.0194705 0.00863564
v -0.00722149 -0.00717596 0.0129943
v -0.00376985 0.00729929 0.0478915
v -0.00791406 0.0175435 0.0113067
v -0.00534842 0.00716653 0.0317015
v -0.00662314 0.0167614 0.0120762
v -0.005375 0.01789 0.011763
v -0.00490411 -0.00466696 0.0122391
v 0.00104779 0.00791239 0.0479781
v -0.00631728 -0.0156413 0.00842599
v -0.00286774 0.0198357 -0.00983318
v -0.0032909 0.0188694 0.0123214
v -0.000555599 0.0168548 -0.290404
v -0.00521269 -0.00285938 0.0247452
v -0.00120723 -0.00406969 0.0513512
v 0.00149424 0.00819451 0.0132872
v 0.00467022 -0.0117135 -0.28338
v -0.00143939 0.0191155 -0.328625
v -0.00142646 -0.0147991 -0.00889402
v -0.000380184 0.0187372 0.0086845
v -0.00634002 -0.00147792 0.0439667
v 0.00234826 0.0187885 0.0126978
v 0.000660791 -0.00296399 0.0337624
v -0.000335 -0.001606 0.053522
v 0.00298668 0.0033921 0.0536447
v 0.00767218 0.00716363 0.0499288
v 0.00180696 0.00716252 0.0368129
v -5.68079e-05 -0.0146866 0.00918274
v -0.000812853 0.0185026 -0.0131734
v 0.002413 0.004536 -0.324863
v 0.002628 0.003848 -0.324327
v 0.0221176 -0.0029987 -0.3372
v -0.00439089 -0.0169321 -0.32718
v -0.000469761 -0.00160466 0.0292347
v 0.00354717 0.018695 -0.00839408
v 0.0118169 -0.0128006 -0.280546
v 0.00145344 -0.00241862 0.0455319
v 0.00218327 -0.0146218 0.0126924
v 0.0225813 -0.0170989 -0.343337
v 0.00259791 -0.0146934 -0.0126372
v 0.00513244 0.00633347 0.0420132
v 0.000185793 0.00602912 0.0273806
v 0.000568527 -0.00473083 0.0131548
v 0.00969937 -0.00390041 0.00983233
v 0.00459375 0.0169993 -0.291108
v 0.00740925 -0.0145117 -0.00532861
v 0.00730018 -0.014694 0.0107031
v 0.00264529 0.00754031 0.0251398
v 0.00556 0.023722 -0.097988
v 0.0023 -0.0202734 -0.0869947
v 0.0295409 -0.00883988 -0.348309
v 0.0261865 -0.0156344 -0.346119
v 0.022805 0.018897 -0.344031
v 0.00228752 0.0238308 -0.0872126
v 0.00341047 0.0047585 -0.0866473
v 0.00629171 -0.00193349 0.050983
v 0.003343 0.005143 -0.088275
v 0.0250786 0.0188875 -0.345
v 0.0114182 -0.000876192 -0.0650598
v 0.0114842 0.00463675 -0.0648845
v 0.024303 -0.017153 -0.339538
v 0.00626772 -0.00339034 0.0285111
v 0.00177055 -0.00389773 0.013829
v 0.003343 -0.001502 -0.087681
v 0.00315448 -0.0016139 -0.0871095
v 0.014336 -0.0021 -0.122675
v 0.00302067 0.0188412 -0.0125127
v 0.014757 -0.001166 -0.122283
v 0.003826 -0.001002 -0.087978
v 0.015793 0.00429 -0.124586
v 0.00253659 -0.00161832 0.0399097
v 0.00423 -0.000798 -0.086795
v 0.00648 -0.014488 -0.01121
v 0.00485816 -0.0118169 -0.0127301
v 0.00685331 0.00745691 0.0414267
v 0.0135928 0.021591 -0.130146
v 0.0070443 -0.0146343 0.00524461
v 0.02306 0.004154 -0.33785
v 0.00459251 0.0169111 -0.0164509
v 0.019186 -0.000945 -0.13638
v 0.00759393 0.0147161 -0.281251
v 0.0248241 -0.00179937 -0.338027
v 0.00523786 0.0187967 0.00708221
v 0.024136 0.003632 -0.337511
v 0.023816 -0.000888 -0.100213
v 0.00502343 0.0187036 -0.0120929
v 0.0045455 0.0166435 -0.0137799
v 0.00791777 -0.00453478 0.0105136
v 0.026939 -0.001584 -0.332556
v 0.026465 0.0036 -0.334407
v 0.0110539 0.0185994 0.00733604
v 0.00547162 -0.00481161 -0.0132023
v 0.0105144 0.00826296 -0.00791466
v 0.0056241 0.00856331 -0.0131146
v 0.0120395 0.0198818 -0.0436514
v 0.0139626 -0.00239506 -0.27922
v 0.007066 -0.002317 0.037567
v 0.00811912 0.0184469 0.00292709
v 0.011419 0.018636 -0.039963
v 0.0141814 -0.0191726 -0.125022
v 0.0114898 -0.014896 0.00555687
v 0.012396 -0.003311 0.039847
v 0.006932 0.007945 -0.01199
v 0.00830794 0.00733037 0.0345104
v 0.00774486 6.59053e-05 0.00405487
v 0.00820409 -0.0156053 -0.00807049
v 0.00977097 -0.01533 -0.000611609
v 0.00893791 -0.00318621 -0.0132993
v 0.00962589 -0.00641542 -0.0279968
v 0.00713235 -0.0190024 -0.113302
v 0.0155515 0.0174539 -0.150479
v 0.00620366 -0.00440013 -0.0118508
v 0.00919114 -0.0112225 -0.277799
v 0.0105544 -0.00197539 0.0471807
v 0.00729544 -0.00251458 0.0328419
v 0.00728912 0.0191789 0.00980626
v 0.0181941 0.00258465 0.00502002
v 0.0085051 0.0084333 -0.0209307
v 0.00849591 0.0188239 -0.00299518
v 0.012204 0.007563 0.041687
v 0.012202 0.014178 -0.275941
v 0.0158841 -0.00298131 -0.00372281
v 0.0085451 0.00384513 -0.00125665
v 0.0179666 0.00162682 -0.00198058
v 0.0105224 -0.00399141 0.0433998
v 0.016626 0.0133759 -0.272732
v 0.0131862 -0.00894079 -0.268717
v 0.00997815 0.0119835 -0.030625
v 0.011128 0.009648 -0.027593
v 0.0127163 0.0189195 -0.00155355
v 0.0156334 0.00404717 -0.277368
v 0.00929637 0.00706979 -0.0117288
v 0.0117933 0.0186182 -0.00541781
v 0.0113623 0.000923555 -0.131868
v 0.0126026 -0.0122996 -0.280521
v 0.00973998 0.00808437 0.00995668
v 0.0112072 0.0221623 -0.0626041
v 0.0119835 -0.0144936 -0.0407751
v 0.0120586 -0.0147464 -0.00471925
v 0.012155 -0.001736 -0.064321
v 0.0136151 -0.0094751 -0.0370844
v 0.0104682 0.00589046 0.0482679
v 0.0128551 -0.0145937 0.001308
v 0.0119117 0.00503298 -0.064573
v 0.0129817 -0.00450025 0.00282832
v 0.0133482 0.0152338 -0.0399032
v 0.012656 -0.018371 -0.062076
v 0.012085 -0.018023 -0.062453
v 0.0148612 0.0212373 -0.126533
v 0.011994 -0.017981 -0.062488
v 0.012777 -0.00449449 -0.00419083
v 0.012392 -0.018084 -0.062372
v 0.0140239 -0.0183847 -0.0625913
v 0.0158127 -0.00930547 -0.261636
v 0.0127616 0.0130586 -0.271515
v 0.0132573 0.0048634 -0.0646775
v 0.0130779 0.00874427 0.00102622
v 0.013716 -0.002578 0.039281
v 0.0137504 -0.00171446 -0.280667
v 0.0140308 -0.0148215 -0.0445418
v 0.0131765 -0.0162771 -0.0456958
v 0.013984 0.007746 -0.001082
v 0.012981 0.018312 -0.0003
v 0.0142811 0.00633086 0.0387607
v 0.0143951 -0.00127895 0.039514
v 0.0140756 0.0124251 -0.0366341
v 0.016906 -0.003017 0.00012
v 0.0161145 0.00741974 -0.00197726
v 0.013809 -0.001034 -0.065443
v 0.0141894 0.0185897 -0.0448034
v 0.0139361 -0.0160092 -0.140348
v 0.014321 -0.003574 -0.001059
v 0.014206 0.005493 -0.065135
v 0.023808 0.004359 -0.100139
v 0.01677 0.020994 -0.135467
v 0.0170681 -0.0171528 -0.147054
v 0.0135464 -0.00128292 -0.0646634
v 0.014146 0.00507 -0.065419
v 0.0266713 -0.00127305 -0.10897
v 0.0150369 0.00756058 -0.0212315
v 0.0140756 0.0220488 -0.0628871
v 0.0142991 -0.00879233 -0.0383624
v 0.020991 0.005287 -0.08785
v 0.0163221 -0.00211589 -0.0187645
v 0.021132 -0.001706 -0.088343
v 0.0142177 0.0188231 -0.0462192
v 0.0150264 0.00884089 -0.031044
v 0.017782 -0.001803 0.000149
v 0.0142273 -0.00654164 -0.0316522
v 0.0206494 -0.0203426 -0.0838839
v 0.0197621 -0.00164579 -0.144965
v 0.01687 0.0192112 -0.0565861
v 0.0145786 -0.00415232 -0.0391897
v 0.016177 0.005669 -0.019866
v 0.0205856 -0.00241218 -0.263101
v 0.0177022 -0.0108533 -0.27018
v 0.017768 0.00456466 -0.13403
v 0.016486 -0.014507 -0.158731
v 0.0186707 0.0185049 -0.166474
v 0.0175255 -0.0139037 -0.171237
v 0.0179038 0.0125274 -0.258418
v 0.016889 0.010648 -0.25143
v 0.0164698 -0.00834258 -0.254868
v 0.018826 0.019921 -0.144445
v 0.0179471 -0.0105711 -0.228055
v 0.0174476 0.0164544 -0.171666
v 0.0196822 -0.020136 -0.0762947
v 0.018474 0.017654 -0.173669
v 0.0168342 0.0113811 -0.257174
v 0.017688 0.016339 -0.178568
v 0.0181426 -0.00978864 -0.249554
v 0.017676 0.012553 -0.237504
v 0.019469 0.019898 -0.149865
v 0.0210248 0.00527074 -0.154209
v 0.0208033 -0.00166461 -0.264113
v 0.03248 0.00414615 -0.151391
v 0.019082 0.013146 -0.238494
v 0.0268451 -0.0190275 -0.0891623
v 0.0212561 -0.00982977 -0.257059
v 0.021652 0.012757 -0.243249
v 0.0215646 -0.0152889 -0.170116
v 0.02154 0.018327 -0.170469
v 0.021003 0.018768 -0.159954
v 0.020872 0.0124576 -0.260052
v 0.0227138 0.00420757 -0.162809
v 0.023292 -0.001048 -0.167438
v 0.0202803 0.0241295 -0.078702
v 0.022833 -0.001335 -0.253406
v 0.0222957 -0.0018216 -0.169074
v 0.022821 0.003888 -0.252727
v 0.0216241 0.0043775 -0.258696
v 0.021987 0.0176 -0.175257
v 0.02209 -0.00208 -0.249436
v 0.022428 0.005134 -0.175756
v 0.0272955 0.0049695 -0.111064
v 0.022951 -0.001352 -0.175263
v 0.0279162 0.0228432 -0.0952646
v 0.0253439 -0.0205151 -0.0898539
v 0.024918 0.0190336 -0.339333
v 0.0252573 -0.0168276 -0.338589
v 0.0254793 0.023946 -0.0974936
v 0.029739 -0.01699 -0.337362
v 0.0250584 0.00456528 -0.338566
v 0.0282286 0.0224219 -0.112414
v 0.027215 -0.019433 -0.10777
v 0.0280927 0.0196123 -0.337424
v 0.0263783 0.00392617 -0.337112
v 0.0267014 -0.00220666 -0.33695
v 0.027635 0.0044 -0.333176
v 0.033358 0.004626 -0.180817
v 0.027672 -0.002568 -0.333301
v 0.033404 -0.001748 -0.180437
v 0.0276267 0.0185933 -0.336683
v 0.0273933 -0.01702 -0.337907
v 0.031017 -0.00997157 -0.265311
v 0.0293455 0.0183915 -0.317028
v 0.0308706 0.0124638 -0.265689
v 0.031054 -0.017896 -0.12789
v 0.030168 -0.018729 -0.121187
v 0.0319001 0.0223734 -0.113104
v 0.031022 0.021761 -0.125468
v 0.0277394 0.0161418 -0.347182
v 0.0328227 0.00532678 -0.140887
v 0.031329 0.020988 -0.129916
v 0.0283816 -0.0133455 -0.347156
v 0.03015 0.0103124 -0.34783
v 0.0294031 -0.0157849 -0.31144
v 0.0298708 0.00378506 -0.34936
v 0.031309 -0.004704 -0.34534
v 0.0318855 -0.0168723 -0.333246
v 0.03131 0.000996 -0.345945
v 0.031549 0.000995 -0.345113
v 0.03368 -0.010249 -0.273361
v 0.031505 0.000995 -0.345264
v 0.0345629 0.020046 -0.121718
v 0.031403 -0.009911 -0.246195
v 0.0311385 0.0196331 -0.330434
v 0.031539 0.01273 -0.242449
v 0.0323954 -0.0102771 -0.33961
v 0.0319075 0.0183188 -0.334859
v 0.03221 0.000996 -0.342846
v 0.032627 0.0168757 -0.335231
v 0.0373273 -0.0153533 -0.136677
v 0.03427 -0.009869 -0.247544
v 0.034419 -0.01522 -0.170629
v 0.033415 0.019572 -0.148646
v 0.033082 0.020417 -0.142496
v 0.033109 -0.014868 -0.31278
v 0.034167 -0.0155798 -0.159016
v 0.03369 -0.016873 -0.147673
v 0.036892 0.018781 -0.164229
v 0.032856 0.001033 -0.339081
v 0.0339944 0.0145926 -0.294878
v 0.0327583 0.00100559 -0.339956
v 0.033077 0.001022 -0.336554
v 0.034593 0.012109 -0.285154
v 0.033616 -0.0184212 -0.121188
v 0.0344727 0.0117339 -0.266881
v 0.039281 0.001562 -0.169506
v 0.035914 -0.007936 -0.251456
v 0.0345053 -0.00938559 -0.275485
v 0.035748 0.009983 -0.257243
v 0.0328121 -0.00130679 -0.147001
v 0.036568 -0.01595 -0.160983
v 0.034292 0.01908 -0.160013
v 0.0343075 0.0183016 -0.168974
v 0.034898 0.012183 -0.247704
v 0.037473 -0.014812 -0.172796
v 0.035128 0.011245 -0.262767
v 0.035555 -0.009066 -0.247428
v 0.03791 0.017587 -0.172205
v 0.035676 0.011463 -0.247579
v 0.038364 -0.013852 -0.173374
v 0.038615 0.016479 -0.172438
v 0.0378289 -0.0154796 -0.149818
v 0.0387629 -0.0131676 -0.167857
v 0.0375562 0.0191469 -0.147691
f 7 4 1
f 3 2 1
f 3 42 6
f 4 3 1
f 42 3 6
f 4 5 3
f 5 42 3
f 3 9 2
f 8 4 7
f 4 11 5
f 7 13 8
f 8 11 4
f 12 10 1
f 2 12 1
f 14 42 5
f 3 40 9
f 18 2 9
f 11 14 5
f 15 13 7
f 10 15 1
f 15 7 1
f 13 20 16
f 19 20 13
f 21 13 15
f 21 19 13
f 21 20 19
f 16 44 13
f 19 21 15
f 19 16 20
f 22 12 2
f 10 19 15
f 8 29 11
f 23 16 19
f 24 2 18
f 17 10 12
f 24 22 2
f 24 27 22
f 16 28 25
f 23 28 16
f 10 16 23
f 24 12 22
f 19 10 23
f 10 28 16
f 24 17 12
f 10 25 28
f 43 18 9
f 25 10 17
f 18 27 24
f 25 44 16
f 27 17 24
f 18 17 27
f 48 17 18
f 13 39 8
f 48 25 17
f 48 44 25
f 39 37 26
f 29 30 11
f 42 46 3
f 46 40 3
f 31 32 14
f 32 33 14
f 11 31 14
f 33 34 14
f 34 35 14
f 35 36 14
f 36 42 14
f 43 48 18
f 30 38 11
f 37 39 13
f 37 39 26
f 9 50 43
f 39 49 8
f 49 29 8
f 44 37 13
f 44 52 37
f 33 36 34
f 36 35 34
f 31 33 32
f 45 35 33
f 32 45 33
f 35 36 33
f 31 32 33
f 31 45 32
f 38 31 11
f 45 36 35
f 38 29 31
f 29 45 31
f 45 42 36
f 30 31 38
f 30 29 38
f 45 41 42
f 39 52 49
f 40 50 9
f 52 39 37
f 46 47 40
f 40 47 50
f 46 74 47
f 51 48 43
f 50 164 43
f 44 53 57
f 74 46 42
f 51 44 48
f 58 50 47
f 75 56 29
f 85 52 44
f 68 43 164
f 44 57 53
f 57 85 44
f 76 49 52
f 51 57 44
f 49 75 29
f 53 71 57
f 68 51 43
f 82 47 74
f 51 53 57
f 59 58 47
f 41 74 42
f 71 53 51
f 76 84 49
f 60 61 45
f 61 62 45
f 29 60 45
f 62 63 45
f 63 64 45
f 64 65 45
f 65 41 45
f 82 108 47
f 66 67 29
f 56 66 29
f 68 71 51
f 52 85 76
f 85 57 71
f 108 59 47
f 58 59 50
f 84 75 49
f 81 79 73
f 78 77 98
f 72 81 73
f 62 65 63
f 65 64 63
f 60 62 61
f 105 64 62
f 61 105 62
f 64 65 62
f 60 61 62
f 67 60 29
f 60 105 61
f 66 56 80
f 105 65 64
f 80 105 60
f 67 80 60
f 105 41 65
f 66 60 67
f 66 80 67
f 105 224 41
f 79 81 73
f 86 78 98
f 77 86 98
f 81 87 73
f 87 72 73
f 70 88 54
f 89 69 55
f 90 77 78
f 86 90 78
f 72 91 81
f 91 87 81
f 68 103 71
f 88 90 86
f 77 90 86
f 91 89 87
f 91 72 87
f 69 92 55
f 85 84 76
f 106 78 98
f 91 89 55
f 88 90 54
f 90 116 54
f 92 91 55
f 59 164 50
f 88 116 90
f 92 89 91
f 158 340 70
f 54 158 70
f 96 69 83
f 93 78 106
f 112 85 71
f 94 99 79
f 70 116 88
f 92 69 89
f 78 97 98
f 106 78 93
f 227 69 92
f 97 106 98
f 106 97 78
f 95 84 85
f 96 92 69
f 158 54 116
f 107 75 102
f 75 107 56
f 101 94 79
f 109 114 97
f 164 103 68
f 114 106 97
f 100 102 75
f 101 126 99
f 176 105 80
f 94 101 99
f 114 97 106
f 99 101 79
f 104 71 103
f 114 136 106
f 85 201 95
f 224 82 74
f 192 94 101
f 354 108 82
f 110 115 111
f 113 103 164
f 126 101 99
f 177 116 70
f 92 117 227
f 118 92 119
f 115 144 111
f 127 120 129
f 120 125 129
f 121 165 119
f 165 118 119
f 131 121 119
f 124 176 80
f 122 224 41
f 224 122 41
f 116 177 129
f 118 117 92
f 144 110 111
f 56 124 80
f 442 96 83
f 112 201 85
f 126 101 94
f 129 177 116
f 92 117 119
f 117 131 119
f 125 120 129
f 165 121 131
f 224 74 41
f 108 230 59
f 131 117 118
f 100 107 102
f 230 164 59
f 114 109 97
f 177 158 116
f 132 117 131
f 120 162 129
f 162 157 129
f 133 165 131
f 157 135 129
f 179 114 106
f 117 130 131
f 130 132 131
f 138 130 131
f 110 137 115
f 115 139 144
f 126 192 101
f 140 177 129
f 141 138 130
f 117 141 130
f 138 131 130
f 129 140 157
f 145 138 131
f 142 140 129
f 157 142 129
f 138 145 131
f 107 124 56
f 135 127 129
f 143 140 129
f 177 143 129
f 141 132 130
f 115 144 139
f 95 75 84
f 146 110 144
f 128 114 109
f 140 142 157
f 144 147 139
f 148 177 140
f 149 145 138
f 141 149 138
f 115 147 144
f 147 146 144
f 148 142 140
f 143 148 140
f 145 151 138
f 151 141 138
f 152 146 115
f 146 147 115
f 137 152 115
f 110 152 137
f 153 152 110
f 149 151 145
f 153 110 146
f 152 153 146
f 152 153 137
f 118 183 131
f 183 133 131
f 154 155 162
f 120 156 162
f 156 154 162
f 136 179 106
f 132 227 117
f 159 120 127
f 159 156 120
f 156 154 159
f 160 141 117
f 155 161 162
f 127 156 159
f 127 154 156
f 154 161 155
f 154 127 155
f 92 149 117
f 149 160 117
f 160 149 141
f 162 135 157
f 155 162 161
f 160 132 141
f 148 158 177
f 151 160 141
f 127 162 155
f 160 151 132
f 96 149 92
f 177 148 143
f 167 165 133
f 177 158 148
f 133 166 167
f 135 320 127
f 219 118 165
f 168 169 105
f 169 170 105
f 170 171 105
f 176 168 105
f 171 172 105
f 172 173 105
f 173 174 105
f 174 224 105
f 166 165 167
f 166 167 165
f 95 100 75
f 163 338 133
f 227 442 69
f 442 83 69
f 132 151 149
f 340 123 70
f 167 166 165
f 124 175 176
f 178 166 133
f 182 162 127
f 180 227 132
f 183 163 133
f 178 165 166
f 181 180 132
f 128 353 114
f 179 353 114
f 219 183 118
f 353 136 114
f 184 177 70
f 185 181 132
f 186 184 70
f 149 185 132
f 162 134 135
f 182 134 162
f 217 178 133
f 180 187 227
f 184 188 177
f 186 188 184
f 320 182 127
f 178 219 165
f 188 193 184
f 181 187 180
f 181 185 180
f 188 193 177
f 182 189 150
f 190 178 191
f 193 188 186
f 185 187 181
f 149 187 185
f 194 333 135
f 134 194 135
f 338 195 133
f 212 217 133
f 195 212 133
f 186 177 193
f 196 128 109
f 107 175 124
f 197 177 186
f 197 158 177
f 114 196 109
f 198 158 197
f 178 199 191
f 199 190 191
f 186 198 197
f 198 200 197
f 200 158 198
f 202 190 199
f 203 227 187
f 204 198 186
f 209 203 187
f 204 200 198
f 149 205 187
f 204 158 200
f 206 217 202
f 217 190 202
f 199 206 202
f 178 202 199
f 134 207 150
f 208 204 186
f 209 227 203
f 209 205 149
f 209 205 203
f 204 210 158
f 208 210 204
f 187 205 209
f 211 209 149
f 212 190 217
f 178 206 202
f 207 134 150
f 189 207 150
f 189 134 207
f 213 207 134
f 186 214 208
f 214 204 208
f 214 210 204
f 178 217 206
f 213 150 207
f 215 207 213
f 216 211 149
f 96 216 149
f 182 213 134
f 215 150 213
f 182 215 213
f 214 158 210
f 215 182 150
f 211 216 209
f 96 218 216
f 353 196 114
f 218 211 216
f 218 209 216
f 96 209 218
f 123 186 70
f 123 214 186
f 224 354 82
f 172 174 173
f 168 170 169
f 171 174 172
f 168 171 170
f 320 189 182
f 396 173 171
f 169 396 171
f 173 174 171
f 168 169 171
f 168 396 169
f 175 168 176
f 354 229 108
f 396 174 173
f 176 220 168
f 220 396 168
f 396 224 174
f 190 219 178
f 175 220 176
f 396 397 224
f 223 220 175
f 107 223 175
f 219 163 183
f 196 353 128
f 227 232 442
f 226 158 214
f 96 335 209
f 189 222 134
f 192 126 94
f 226 231 158
f 231 340 158
f 353 179 136
f 123 226 214
f 335 227 209
f 222 194 134
f 357 224 221
f 95 107 100
f 357 354 224
f 323 320 135
f 123 233 226
f 192 225 126
f 315 126 225
f 315 192 126
f 229 230 108
f 245 272 237
f 272 245 237
f 238 261 240
f 261 238 240
f 241 242 234
f 243 241 234
f 235 244 236
f 246 323 135
f 333 246 135
f 261 247 240
f 234 242 239
f 248 241 243
f 242 243 234
f 239 242 234
f 353 249 179
f 249 353 179
f 250 452 247
f 263 251 247
f 261 263 247
f 252 444 241
f 243 252 241
f 444 253 241
f 254 242 241
f 253 255 241
f 255 256 241
f 256 257 241
f 257 254 241
f 258 272 237
f 235 260 236
f 259 239 242
f 234 239 243
f 259 254 243
f 239 259 243
f 247 263 240
f 263 261 240
f 242 239 234
f 283 235 244
f 335 232 227
f 254 259 242
f 264 244 265
f 266 252 243
f 254 266 243
f 452 263 247
f 238 268 261
f 269 270 245
f 264 271 244
f 283 271 244
f 273 266 254
f 259 273 254
f 268 263 261
f 299 260 235
f 274 259 239
f 262 274 239
f 257 259 254
f 271 264 265
f 276 277 269
f 270 276 269
f 278 271 265
f 279 278 265
f 235 284 283
f 277 280 269
f 281 292 265
f 292 279 265
f 277 270 269
f 280 277 269
f 279 281 265
f 264 279 265
f 282 245 270
f 277 282 270
f 263 268 261
f 271 279 264
f 282 276 270
f 260 299 235
f 259 274 239
f 272 282 245
f 274 262 239
f 258 285 272
f 279 286 281
f 286 292 281
f 287 272 282
f 452 437 263
f 288 273 259
f 274 288 259
f 278 283 271
f 277 276 282
f 278 279 271
f 289 284 283
f 257 274 259
f 267 290 235
f 290 284 235
f 267 299 235
f 276 287 282
f 289 278 283
f 287 291 272
f 284 267 235
f 257 262 274
f 272 291 287
f 285 275 272
f 293 288 274
f 262 293 274
f 278 289 283
f 294 272 275
f 295 275 272
f 275 285 272
f 276 291 287
f 295 291 272
f 291 295 272
f 294 295 272
f 291 296 287
f 296 276 287
f 297 278 289
f 284 290 267
f 284 298 289
f 300 299 267
f 290 300 284
f 276 296 291
f 297 284 289
f 437 301 263
f 302 293 262
f 267 300 290
f 298 297 289
f 399 220 223
f 295 296 291
f 294 275 295
f 294 304 295
f 298 290 284
f 300 298 284
f 304 306 295
f 275 303 294
f 306 296 295
f 297 298 284
f 294 303 275
f 307 300 290
f 290 300 267
f 296 304 295
f 298 300 290
f 305 275 303
f 299 300 267
f 304 303 294
f 305 303 275
f 304 308 294
f 307 300 298
f 309 296 306
f 304 309 306
f 308 303 304
f 297 310 298
f 308 309 304
f 310 307 298
f 296 309 304
f 311 310 298
f 307 311 298
f 305 312 303
f 313 305 303
f 312 304 303
f 307 311 300
f 312 308 304
f 308 313 303
f 300 311 307
f 312 309 308
f 310 311 307
f 309 314 308
f 314 313 308
f 315 376 225
f 226 316 231
f 348 340 231
f 233 316 226
f 192 315 225
f 376 315 225
f 233 231 316
f 305 313 312
f 233 317 231
f 325 318 311
f 319 309 312
f 310 325 311
f 316 317 233
f 317 348 231
f 195 219 190
f 318 321 311
f 325 321 318
f 314 319 313
f 325 311 321
f 320 313 189
f 325 322 321
f 196 421 353
f 233 348 317
f 324 312 313
f 325 195 322
f 324 319 312
f 324 309 319
f 310 195 325
f 195 190 322
f 190 325 322
f 399 396 220
f 279 292 286
f 326 309 296
f 276 326 296
f 369 262 257
f 319 189 313
f 212 325 190
f 326 314 309
f 326 319 314
f 325 212 311
f 212 310 311
f 301 366 263
f 369 302 262
f 324 194 309
f 194 326 309
f 212 195 310
f 335 417 232
f 327 328 257
f 319 222 189
f 326 222 319
f 194 222 326
f 324 313 320
f 96 442 335
f 328 329 257
f 330 329 328
f 331 369 257
f 327 329 328
f 329 331 257
f 330 331 329
f 323 332 320
f 372 164 230
f 327 330 329
f 330 327 331
f 256 327 257
f 246 333 323
f 347 340 348
f 366 334 263
f 334 251 263
f 336 337 332
f 332 339 336
f 337 320 332
f 366 341 334
f 333 320 337
f 342 337 336
f 332 342 336
f 219 338 163
f 327 369 331
f 352 417 335
f 219 195 338
f 342 343 337
f 194 320 333
f 344 369 327
f 343 345 337
f 345 346 337
f 194 324 320
f 346 333 337
f 339 332 323
f 342 339 323
f 333 342 323
f 349 340 347
f 342 332 339
f 348 350 347
f 421 196 353
f 351 352 335
f 442 351 335
f 345 343 342
f 343 346 345
f 345 342 346
f 421 249 353
f 342 333 346
f 341 374 334
f 256 344 327
f 95 373 107
f 373 228 107
f 375 421 196
f 355 302 369
f 527 103 113
f 123 383 233
f 383 356 233
f 356 348 233
f 358 399 223
f 357 221 224
f 397 357 224
f 107 358 223
f 356 350 348
f 359 360 251
f 365 344 256
f 361 359 251
f 251 362 361
f 362 359 361
f 301 362 251
f 301 361 362
f 361 360 359
f 301 360 361
f 360 247 251
f 363 247 360
f 301 363 360
f 255 302 256
f 302 364 256
f 364 365 256
f 356 347 350
f 334 366 251
f 366 301 251
f 355 364 302
f 71 470 112
f 344 367 369
f 367 368 369
f 344 368 367
f 368 370 369
f 367 370 368
f 344 370 368
f 315 450 376
f 381 370 344
f 381 369 370
f 366 371 341
f 372 230 229
f 374 371 366
f 371 374 366
f 366 374 371
f 374 341 371
f 301 377 363
f 378 247 363
f 378 379 247
f 437 377 301
f 380 293 302
f 365 381 344
f 379 250 247
f 381 382 344
f 382 381 344
f 340 383 123
f 382 381 365
f 355 369 381
f 382 355 381
f 421 375 196
f 365 384 382
f 385 386 255
f 387 302 255
f 363 388 378
f 388 379 378
f 384 355 382
f 389 384 365
f 378 250 379
f 386 387 255
f 390 389 365
f 391 382 384
f 389 391 384
f 388 250 378
f 391 355 384
f 392 393 396
f 393 394 396
f 394 395 396
f 399 392 396
f 395 397 396
f 390 391 389
f 358 398 399
f 365 400 390
f 400 389 390
f 390 400 391
f 401 387 386
f 400 355 391
f 402 400 365
f 403 401 386
f 385 401 386
f 364 402 365
f 404 405 363
f 253 385 255
f 374 366 334
f 404 363 406
f 401 403 387
f 407 402 364
f 405 388 363
f 450 192 315
f 377 408 363
f 408 406 363
f 422 353 249
f 355 407 364
f 409 402 407
f 409 400 402
f 409 355 400
f 385 403 401
f 407 400 409
f 355 409 407
f 405 250 388
f 228 410 107
f 410 358 107
f 421 422 249
f 411 404 406
f 385 387 403
f 377 412 408
f 412 406 408
f 411 413 404
f 377 414 412
f 414 408 412
f 411 405 404
f 406 413 411
f 414 406 412
f 413 415 411
f 415 405 411
f 377 406 414
f 406 415 413
f 253 416 385
f 377 418 406
f 418 419 406
f 431 302 387
f 419 415 406
f 385 431 387
f 352 351 417
f 419 420 415
f 470 71 104
f 420 405 415
f 420 250 405
f 416 431 385
f 410 398 358
f 453 450 315
f 376 450 315
f 192 453 315
f 437 418 377
f 443 380 302
f 431 443 302
f 349 347 356
f 423 232 417
f 424 104 103
f 425 426 416
f 398 392 399
f 427 416 253
f 428 429 416
f 427 425 416
f 392 394 393
f 392 395 394
f 427 426 425
f 542 396 395
f 393 542 395
f 396 397 395
f 392 393 395
f 392 542 393
f 432 428 416
f 426 432 416
f 430 399 398
f 420 465 250
f 542 397 396
f 432 427 253
f 430 542 392
f 399 430 392
f 433 434 423
f 417 435 423
f 435 433 423
f 426 428 432
f 542 592 397
f 410 430 398
f 423 442 232
f 425 432 426
f 427 432 425
f 436 419 418
f 432 429 428
f 433 442 423
f 429 431 416
f 253 380 432
f 436 420 419
f 444 266 253
f 465 437 250
f 266 273 253
f 380 429 432
f 418 420 436
f 273 288 253
f 438 431 429
f 437 452 250
f 288 380 253
f 435 439 433
f 439 440 433
f 441 436 418
f 441 420 418
f 435 433 440
f 439 435 440
f 351 435 417
f 351 442 433
f 435 351 433
f 465 441 418
f 465 420 441
f 443 438 429
f 380 443 429
f 397 538 357
f 538 354 357
f 349 356 383
f 437 465 418
f 538 229 354
f 340 349 383
f 538 463 229
f 527 424 103
f 252 455 444
f 455 266 444
f 431 446 443
f 273 252 266
f 273 455 252
f 455 273 266
f 455 457 252
f 288 293 273
f 455 447 273
f 448 446 431
f 447 288 273
f 449 430 410
f 293 447 273
f 447 455 273
f 448 443 446
f 559 353 422
f 529 422 421
f 451 380 288
f 447 451 288
f 559 529 421
f 353 559 421
f 456 446 448
f 456 443 448
f 380 447 293
f 453 192 450
f 456 448 431
f 451 447 380
f 458 437 452
f 457 447 455
f 437 458 452
f 431 459 456
f 459 443 456
f 460 451 447
f 461 456 459
f 462 458 452
f 457 455 447
f 457 460 447
f 454 462 452
f 461 443 459
f 438 459 431
f 462 454 452
f 438 461 459
f 438 443 461
f 95 579 373
f 467 469 464
f 445 164 372
f 474 468 466
f 471 464 467
f 474 479 468
f 449 542 430
f 464 472 471
f 468 479 474
f 471 487 467
f 467 475 469
f 487 471 467
f 464 476 472
f 480 477 468
f 474 478 473
f 483 472 471
f 480 479 468
f 476 483 472
f 468 477 480
f 483 471 472
f 479 480 468
f 477 481 480
f 483 476 472
f 483 487 471
f 476 493 483
f 492 479 474
f 484 485 486
f 479 492 474
f 479 481 480
f 492 479 474
f 493 476 483
f 488 481 479
f 489 477 481
f 494 483 493
f 490 489 481
f 481 488 480
f 485 491 486
f 487 509 467
f 488 479 480
f 488 490 481
f 494 487 483
f 508 485 484
f 487 494 483
f 495 489 490
f 496 495 490
f 488 496 490
f 474 497 492
f 498 496 488
f 500 493 494
f 495 499 490
f 500 487 494
f 500 494 487
f 496 488 490
f 499 496 490
f 500 509 487
f 496 498 488
f 501 498 488
f 509 475 467
f 497 479 492
f 478 497 474
f 509 500 487
f 504 501 488
f 479 504 488
f 503 509 500
f 504 479 488
f 479 497 492
f 509 503 500
f 509 502 475
f 504 497 479
f 491 505 486
f 505 511 486
f 445 664 113
f 164 445 113
f 732 201 112
f 553 372 229
f 493 517 494
f 517 500 494
f 503 506 509
f 507 504 497
f 486 508 484
f 507 478 497
f 478 510 497
f 510 507 497
f 482 519 512
f 515 482 512
f 491 511 505
f 511 513 505
f 502 506 509
f 519 520 512
f 516 486 511
f 509 506 502
f 507 510 478
f 491 513 511
f 517 493 500
f 495 496 499
f 496 514 499
f 521 515 512
f 520 521 512
f 511 513 491
f 513 526 491
f 526 511 491
f 493 544 517
f 574 495 496
f 491 526 513
f 516 508 486
f 539 493 517
f 495 518 496
f 518 574 496
f 539 544 493
f 544 522 517
f 574 518 495
f 201 546 95
f 549 523 520
f 525 482 515
f 485 526 491
f 375 529 421
f 664 527 113
f 529 375 421
f 519 531 520
f 532 533 515
f 533 525 515
f 521 532 515
f 534 539 517
f 553 229 463
f 546 579 95
f 583 534 517
f 576 574 518
f 533 532 521
f 535 533 532
f 528 508 516
f 521 535 533
f 558 470 104
f 535 525 533
f 534 536 539
f 537 576 518
f 521 525 535
f 526 516 511
f 520 523 521
f 574 537 518
f 578 524 516
f 577 537 574
f 521 523 525
f 578 516 526
f 636 544 539
f 636 657 544
f 540 541 574
f 541 577 574
f 558 104 424
f 522 583 517
f 508 528 485
f 482 531 519
f 531 482 525
f 543 732 112
f 470 543 112
f 545 453 450
f 564 529 559
f 612 546 201
f 547 578 526
f 548 547 526
f 485 548 526
f 610 549 531
f 549 520 531
f 524 602 528
f 516 524 528
f 602 550 528
f 550 551 528
f 551 485 528
f 571 540 574
f 551 548 485
f 552 424 527
f 523 531 525
f 554 523 525
f 523 555 525
f 555 554 525
f 556 557 547
f 548 556 547
f 552 558 424
f 576 585 574
f 560 410 228
f 555 561 554
f 562 397 592
f 561 523 554
f 563 523 561
f 565 545 450
f 530 565 450
f 523 561 555
f 560 449 410
f 397 562 538
f 566 578 547
f 567 566 547
f 567 568 566
f 567 578 566
f 657 570 544
f 547 568 567
f 653 612 201
f 557 568 547
f 564 422 529
f 568 578 567
f 545 450 453
f 557 572 568
f 572 573 568
f 572 578 568
f 569 522 544
f 572 573 578
f 557 573 572
f 534 575 539
f 536 534 539
f 575 636 539
f 576 537 577
f 557 578 573
f 549 588 523
f 606 564 529
f 677 463 538
f 579 228 373
f 578 580 524
f 581 536 534
f 536 575 534
f 581 582 536
f 534 582 581
f 581 575 536
f 583 582 534
f 553 445 372
f 582 575 581
f 583 575 582
f 585 584 574
f 574 584 571
f 586 587 583
f 587 575 583
f 541 585 576
f 463 677 553
f 587 636 575
f 577 541 576
f 589 590 449
f 590 591 449
f 591 542 449
f 591 593 542
f 593 594 542
f 594 595 542
f 596 524 580
f 597 598 524
f 596 597 524
f 598 602 524
f 596 598 597
f 545 530 450
f 569 583 522
f 580 597 596
f 597 602 598
f 580 602 597
f 602 580 578
f 613 523 588
f 556 602 578
f 600 601 604
f 570 583 569
f 732 653 201
f 570 569 544
f 584 540 571
f 557 556 578
f 605 603 643
f 604 601 600
f 549 613 588
f 613 531 523
f 601 621 600
f 564 606 529
f 608 550 602
f 608 551 550
f 550 548 551
f 677 660 553
f 609 579 546
f 608 548 550
f 603 599 643
f 611 453 545
f 560 228 449
f 624 631 559
f 592 538 562
f 602 548 608
f 631 564 559
f 610 613 549
f 614 611 545
f 565 614 545
f 615 621 601
f 531 613 610
f 624 559 422
f 611 616 453
f 616 545 453
f 616 530 545
f 228 589 449
f 627 617 618
f 620 618 617
f 627 620 617
f 623 620 617
f 620 623 618
f 622 623 620
f 627 622 620
f 623 630 618
f 609 704 579
f 620 627 623
f 622 627 620
f 627 630 623
f 602 556 548
f 564 624 422
f 592 625 538
f 660 650 553
f 630 627 618
f 626 589 228
f 589 591 590
f 629 600 621
f 626 590 589
f 542 595 592
f 593 595 591
f 595 594 591
f 594 593 591
f 673 722 592
f 673 592 595
f 593 673 595
f 626 591 590
f 591 673 593
f 626 673 591
f 629 601 600
f 674 677 538
f 619 632 628
f 625 674 538
f 585 646 584
f 632 619 628
f 616 633 530
f 633 607 530
f 564 634 624
f 606 634 564
f 631 634 564
f 634 606 564
f 607 635 530
f 635 565 530
f 633 635 607
f 570 657 583
f 637 587 586
f 637 636 587
f 637 638 636
f 586 636 637
f 586 638 636
f 639 642 585
f 646 671 584
f 541 639 585
f 553 680 445
f 680 706 445
f 586 636 638
f 640 642 639
f 541 640 639
f 640 641 639
f 641 642 640
f 671 540 584
f 642 641 640
f 541 642 640
f 644 636 586
f 616 645 633
f 645 635 633
f 583 644 586
f 657 647 583
f 643 662 605
f 662 603 605
f 612 648 609
f 546 612 609
f 647 644 583
f 642 646 585
f 603 651 599
f 652 651 603
f 616 614 645
f 614 635 645
f 655 599 651
f 654 652 603
f 652 655 651
f 654 651 652
f 614 616 611
f 654 655 651
f 631 624 634
f 654 599 655
f 658 657 636
f 656 659 642
f 659 646 642
f 540 661 541
f 644 658 636
f 661 642 541
f 615 629 621
f 704 228 579
f 648 704 609
f 706 664 445
f 665 663 662
f 643 665 662
f 661 656 642
f 599 665 643
f 666 601 629
f 660 680 553
f 675 654 603
f 660 553 650
f 653 648 612
f 675 599 654
f 601 676 615
f 672 644 647
f 672 647 657
f 672 667 644
f 565 668 614
f 669 670 668
f 670 614 668
f 565 670 668
f 646 659 671
f 672 658 644
f 667 672 644
f 682 656 661
f 657 658 672
f 661 540 671
f 710 718 626
f 718 673 626
f 666 676 601
f 592 674 625
f 662 675 603
f 685 686 615
f 676 685 615
f 671 681 661
f 682 681 671
f 681 682 661
f 678 679 670
f 679 614 670
f 565 678 670
f 659 682 671
f 693 599 675
f 660 680 649
f 649 680 660
f 684 658 672
f 700 684 672
f 667 700 672
f 701 683 682
f 683 656 682
f 684 672 658
f 679 635 614
f 680 660 677
f 635 678 565
f 682 683 701
f 700 672 684
f 629 615 686
f 687 675 662
f 688 687 662
f 689 688 662
f 676 629 686
f 676 686 685
f 689 688 687
f 694 675 687
f 688 694 687
f 689 694 688
f 662 694 689
f 663 690 662
f 690 691 662
f 694 692 675
f 691 694 662
f 663 691 690
f 692 693 675
f 665 690 663
f 690 697 691
f 697 694 691
f 694 693 692
f 695 694 692
f 697 695 694
f 665 696 690
f 696 697 690
f 693 695 697
f 695 693 694
f 665 690 696
f 665 697 690
f 665 693 697
f 599 699 665
f 676 702 698
f 699 599 693
f 703 672 700
f 629 702 676
f 667 703 700
f 698 629 676
f 666 629 676
f 702 629 698
f 665 699 693
f 705 592 722
f 707 700 684
f 708 703 700
f 707 708 700
f 703 709 700
f 709 707 700
f 708 672 703
f 667 709 703
f 653 713 648
f 711 709 667
f 733 228 704
f 741 706 680
f 659 683 682
f 592 705 674
f 708 667 672
f 656 712 659
f 712 683 659
f 733 626 228
f 708 711 667
f 743 713 653
f 683 712 656
f 713 704 648
f 709 714 707
f 715 714 707
f 714 708 707
f 708 714 715
f 742 743 653
f 709 708 715
f 714 709 715
f 710 717 718
f 719 673 718
f 719 723 673
f 723 724 673
f 724 725 673
f 716 726 720
f 721 708 709
f 731 708 721
f 720 726 683
f 739 741 680
f 713 743 704
f 728 716 720
f 729 728 720
f 727 729 720
f 728 730 716
f 729 730 728
f 727 728 729
f 683 727 720
f 730 727 716
f 728 727 730
f 712 727 683
f 734 711 708
f 732 742 653
f 726 712 683
f 738 727 712
f 731 734 708
f 735 680 677
f 746 527 664
f 674 735 677
f 740 709 711
f 733 710 626
f 721 734 731
f 727 754 716
f 754 726 716
f 722 674 705
f 722 735 674
f 726 738 712
f 733 717 710
f 736 717 733
f 737 718 717
f 718 719 717
f 736 737 717
f 673 725 722
f 723 725 719
f 725 724 719
f 724 723 719
f 750 778 722
f 737 719 718
f 750 722 725
f 723 750 725
f 719 750 723
f 737 750 719
f 740 721 709
f 754 738 726
f 740 766 721
f 733 704 743
f 735 739 680
f 635 738 678
f 740 711 631
f 711 734 631
f 712 679 678
f 738 712 678
f 738 759 727
f 759 754 727
f 734 740 631
f 766 734 721
f 712 738 679
f 738 635 679
f 780 742 732
f 741 664 706
f 749 743 742
f 762 748 744
f 770 747 745
f 736 750 737
f 787 746 664
f 743 749 752
f 751 783 741
f 739 751 741
f 755 783 751
f 746 552 527
f 785 733 743
f 748 753 744
f 734 757 740
f 753 762 744
f 742 780 749
f 762 756 748
f 741 787 664
f 766 757 734
f 783 787 741
f 739 755 751
f 749 743 752
f 754 758 738
f 758 759 738
f 760 745 747
f 776 722 778
f 761 785 743
f 775 766 740
f 763 753 748
f 764 763 748
f 543 786 732
f 786 780 732
f 785 791 733
f 791 736 733
f 768 764 748
f 769 768 748
f 770 760 747
f 760 770 745
f 756 769 748
f 777 749 780
f 552 470 558
f 771 759 758
f 772 762 753
f 735 773 739
f 775 740 757
f 736 774 750
f 791 774 736
f 722 776 735
f 776 765 735
f 766 775 757
f 754 759 771
f 774 778 750
f 552 786 470
f 470 786 543
f 761 743 749
f 763 764 753
f 764 769 753
f 769 772 753
f 779 755 739
f 773 779 739
f 758 754 771
f 772 769 762
f 764 768 763
f 768 769 764
f 777 761 749
f 780 782 767
f 781 787 783
f 777 780 767
f 782 777 767
f 746 787 552
f 784 756 762
f 769 784 762
f 765 773 735
f 756 784 769
f 787 786 552
f 779 773 755
f 773 783 755
f 778 788 765
f 776 778 765
f 782 780 786
f 782 786 787
f 789 778 774
f 777 785 761
f 790 787 781
f 798 777 790
f 782 787 790
f 777 782 790
f 765 794 773
f 791 792 774
f 800 791 785
f 796 785 777
f 792 789 774
f 773 781 783
f 795 793 800
f 773 790 781
f 789 800 793
f 794 797 773
f 789 788 778
f 798 796 777
f 794 789 799
f 789 793 799
f 788 794 765
f 800 789 791
f 789 792 791
f 789 794 788
f 799 797 794
f 796 800 785
f 798 800 796
f 773 799 790
f 797 799 773
f 799 793 790
f 798 793 795
f 1212 798 790
f 793 1212 790
f 795 800 798
f 1212 793 798
f 801 804 802
f 804 803 802
f 812 806 802
f 805 804 801
f 810 802 806
f 803 812 802
f 807 805 801
f 802 807 801
f 811 803 804
f 805 811 804
f 810 808 802
f 807 809 805
f 839 806 812
f 808 807 802
f 809 822 805
f 822 811 805
f 839 810 806
f 839 808 810
f 814 815 817
f 819 814 817
f 836 821 813
f 818 816 817
f 813 818 817
f 815 813 817
f 817 816 813
f 821 817 813
f 815 836 813
f 816 818 813
f 821 819 817
f 820 814 819
f 821 823 819
f 823 824 819
f 815 825 836
f 836 837 821
f 837 838 821
f 83 811 822
f 814 825 815
f 820 826 814
f 828 820 819
f 808 961 807
f 961 957 807
f 812 827 839
f 814 829 825
f 838 830 821
f 803 811 83
f 831 827 812
f 820 832 826
f 833 819 824
f 803 831 812
f 829 836 825
f 826 829 814
f 827 929 839
f 823 833 824
f 822 853 83
f 833 828 819
f 826 835 829
f 835 836 829
f 807 822 809
f 832 835 826
f 853 841 83
f 840 832 820
f 850 823 821
f 830 850 821
f 842 820 828
f 807 914 822
f 843 835 832
f 910 843 832
f 823 844 833
f 844 845 833
f 840 866 832
f 845 918 833
f 846 910 832
f 843 860 835
f 860 836 835
f 838 850 830
f 841 803 83
f 849 846 832
f 833 847 828
f 851 847 833
f 827 852 929
f 842 840 820
f 918 941 833
f 860 837 836
f 866 849 832
f 853 822 914
f 910 854 843
f 948 845 844
f 837 859 838
f 823 850 844
f 900 849 866
f 1023 848 833
f 941 1023 833
f 843 856 860
f 857 853 914
f 867 858 852
f 848 851 833
f 861 852 827
f 850 883 844
f 862 948 844
f 883 870 844
f 863 898 860
f 870 855 844
f 854 864 843
f 855 862 844
f 856 863 860
f 864 856 843
f 865 837 860
f 858 929 852
f 989 857 914
f 1078 868 828
f 868 842 828
f 847 1078 828
f 864 946 856
f 896 883 850
f 950 862 855
f 946 863 856
f 873 950 855
f 870 873 855
f 869 874 857
f 861 867 852
f 803 977 831
f 977 827 831
f 871 860 898
f 977 834 827
f 1103 929 858
f 989 872 857
f 946 898 863
f 872 869 857
f 875 841 853
f 834 861 827
f 876 870 883
f 892 850 838
f 867 877 858
f 877 1103 858
f 879 871 898
f 834 867 861
f 857 880 853
f 880 875 853
f 872 881 869
f 881 874 869
f 882 859 837
f 946 925 898
f 878 877 867
f 879 860 871
f 838 909 892
f 885 877 878
f 859 882 838
f 882 909 838
f 946 886 925
f 887 888 870
f 888 873 870
f 889 879 898
f 876 884 870
f 874 880 857
f 892 896 850
f 890 1078 847
f 891 890 847
f 884 887 870
f 893 878 867
f 893 894 878
f 894 885 878
f 881 880 874
f 868 895 842
f 851 891 847
f 895 840 842
f 889 860 879
f 897 891 851
f 895 899 840
f 889 865 860
f 884 888 887
f 865 902 837
f 848 897 851
f 899 866 840
f 901 897 848
f 1023 1039 848
f 896 904 883
f 904 911 883
f 899 905 866
f 905 900 866
f 1081 901 848
f 1039 906 848
f 906 1081 848
f 904 896 892
f 907 884 876
f 902 882 837
f 907 876 883
f 911 907 883
f 908 889 898
f 908 898 925
f 865 889 902
f 925 912 908
f 903 911 892
f 907 921 884
f 911 904 892
f 917 918 845
f 909 903 892
f 957 914 807
f 927 917 845
f 913 902 889
f 915 889 908
f 916 910 846
f 902 919 882
f 841 977 803
f 919 909 882
f 948 927 845
f 920 935 916
f 929 808 839
f 927 923 917
f 930 888 884
f 911 903 907
f 919 926 909
f 916 954 910
f 935 954 916
f 915 913 889
f 912 965 908
f 907 924 921
f 913 915 902
f 954 854 910
f 923 936 917
f 928 939 902
f 926 947 909
f 915 928 902
f 947 903 909
f 943 867 834
f 939 919 902
f 921 930 884
f 937 921 924
f 931 916 846
f 958 912 925
f 881 932 880
f 924 907 903
f 955 941 918
f 917 955 918
f 958 922 912
f 922 965 912
f 933 854 954
f 965 915 908
f 931 963 916
f 963 920 916
f 936 955 917
f 886 958 925
f 948 945 927
f 920 818 935
f 816 936 923
f 934 816 923
f 947 924 903
f 818 936 816
f 920 936 818
f 849 938 846
f 927 934 923
f 943 834 977
f 875 962 841
f 915 939 928
f 818 942 935
f 816 942 818
f 938 931 846
f 937 949 921
f 942 954 935
f 927 945 934
f 944 936 920
f 816 954 942
f 945 816 934
f 950 948 862
f 963 944 920
f 957 989 914
f 915 959 939
f 945 954 816
f 959 915 965
f 854 946 864
f 922 978 940
f 978 922 958
f 949 930 921
f 933 946 854
f 939 959 919
f 933 952 946
f 951 948 950
f 873 951 950
f 953 947 926
f 893 867 943
f 938 963 931
f 963 955 944
f 955 936 944
f 945 972 954
f 952 886 946
f 956 948 951
f 940 965 922
f 956 945 948
f 972 933 954
f 960 888 930
f 992 960 930
f 901 890 891
f 873 956 951
f 980 961 808
f 519 943 977
f 875 484 962
f 897 901 891
f 888 956 873
f 964 972 945
f 952 1007 886
f 868 899 895
f 973 941 955
f 987 1007 952
f 933 987 952
f 960 956 888
f 960 966 956
f 978 967 940
f 967 1015 940
f 965 981 959
f 968 919 959
f 968 969 919
f 969 926 919
f 947 937 924
f 986 992 930
f 969 970 926
f 970 953 926
f 937 971 949
f 929 980 808
f 1184 893 943
f 974 875 880
f 975 974 880
f 932 975 880
f 976 894 893
f 962 977 841
f 947 971 937
f 971 930 949
f 868 994 899
f 994 905 899
f 1015 965 940
f 1007 958 886
f 956 964 945
f 979 955 963
f 1103 980 929
f 1081 998 901
f 1006 978 958
f 982 987 933
f 972 982 933
f 983 519 977
f 1069 959 981
f 983 943 519
f 1007 1006 958
f 984 938 849
f 1054 1044 868
f 959 969 968
f 1015 981 965
f 1044 994 868
f 947 985 971
f 1011 973 955
f 984 963 938
f 979 1011 955
f 973 1031 941
f 1031 1023 941
f 953 985 947
f 986 930 971
f 966 964 956
f 1059 967 978
f 1007 988 1006
f 1080 960 992
f 1025 989 957
f 990 979 963
f 1027 972 964
f 1011 1031 973
f 900 984 849
f 984 1050 963
f 991 982 972
f 1063 1011 979
f 966 1027 964
f 1059 1015 967
f 993 901 998
f 971 985 986
f 1212 995 977
f 995 996 977
f 996 983 977
f 962 997 977
f 1206 1212 977
f 997 1206 977
f 1069 1000 959
f 999 1001 998
f 1000 969 959
f 484 997 962
f 1002 997 484
f 1044 1009 994
f 1001 993 998
f 1009 1003 994
f 1003 905 994
f 1004 999 998
f 1081 1004 998
f 1000 1086 969
f 1005 943 983
f 875 1002 484
f 963 1050 990
f 1112 1080 992
f 982 1007 987
f 1080 966 960
f 991 1007 982
f 1044 1010 1009
f 1141 993 1001
f 1045 991 972
f 1010 1008 1009
f 1012 1013 1008
f 1010 1012 1008
f 1014 1141 1001
f 1013 1009 1008
f 1016 1009 1013
f 1078 1054 868
f 1006 1059 978
f 1015 1069 981
f 900 1018 984
f 999 1014 1001
f 1183 1002 875
f 1016 1003 1009
f 1005 1184 943
f 1019 985 953
f 1048 992 986
f 1187 1183 875
f 974 1187 875
f 1030 1031 1011
f 1184 976 893
f 1027 1021 972
f 1022 1187 974
f 1012 1016 1013
f 1012 1024 1016
f 1021 1045 972
f 975 1022 974
f 901 1020 890
f 1025 957 961
f 1028 1022 975
f 1017 1050 984
f 1024 1029 1016
f 1004 1014 999
f 1026 894 976
f 988 1066 1006
f 1029 1003 1016
f 1030 1011 1063
f 966 1060 1027
f 1018 1017 984
f 932 1028 975
f 969 1086 970
f 1033 885 894
f 1026 1033 894
f 881 1034 932
f 1034 1191 932
f 1191 1028 932
f 1032 988 1007
f 966 1035 1060
f 991 1032 1007
f 1037 1038 1031
f 1080 1035 966
f 1036 1056 1018
f 1030 1037 1031
f 1040 980 1103
f 989 1075 872
f 1041 1015 1059
f 985 1048 986
f 1075 881 872
f 1043 1039 1023
f 993 1020 901
f 900 1082 1018
f 1041 1069 1015
f 970 1019 953
f 1056 1017 1018
f 1031 1043 1023
f 1072 1043 1031
f 1047 1038 1037
f 1053 1036 1018
f 1082 1053 1018
f 1038 1072 1031
f 1063 979 990
f 1027 1049 1021
f 1042 1049 1027
f 1050 1017 1056
f 1048 985 1019
f 1076 1038 1047
f 890 1055 1078
f 1076 1047 1037
f 1048 1112 992
f 1069 1058 1000
f 1036 1052 1056
f 1059 1069 1041
f 1057 1071 961
f 1099 1025 961
f 1071 1099 961
f 1076 1062 1038
f 1062 1072 1038
f 980 1057 961
f 1027 1060 1042
f 1093 1020 993
f 1141 1093 993
f 1058 1086 1000
f 1053 1052 1036
f 1049 1051 1021
f 1067 1049 1042
f 1067 1061 1049
f 1066 1059 1006
f 1064 1112 1048
f 1064 1048 1019
f 970 1064 1019
f 1051 1045 1021
f 1050 1051 990
f 1051 1049 990
f 1049 1067 990
f 1067 1063 990
f 1063 1067 1042
f 1061 1068 1049
f 1068 1061 1067
f 1049 1068 1067
f 1070 989 1025
f 1065 1070 1025
f 1046 1069 1059
f 1066 1046 1059
f 1040 1079 980
f 1095 1050 1056
f 991 988 1032
f 1073 1072 1062
f 1063 1042 1060
f 1045 988 991
f 1020 1055 890
f 1074 1030 1063
f 1074 1063 1060
f 1052 1095 1056
f 1115 1044 1054
f 1083 1051 1050
f 885 1103 877
f 1099 1065 1025
f 1115 1054 1078
f 1095 1083 1050
f 1077 1037 1030
f 1112 1124 1076
f 1076 1073 1062
f 1133 1066 1052
f 1053 1133 1052
f 1115 1120 1044
f 1075 1034 881
f 1073 1090 1072
f 1070 1075 989
f 905 1105 900
f 1035 1074 1060
f 1037 1112 1076
f 1043 1090 1039
f 1105 1082 900
f 1082 1104 1053
f 1104 1085 1053
f 1086 1064 970
f 1057 980 1071
f 1074 1077 1030
f 1085 1133 1053
f 1045 1089 988
f 1084 905 1003
f 1081 1088 1004
f 1051 1087 1045
f 1092 1091 905
f 1090 1043 1072
f 1094 1092 905
f 1084 1094 905
f 905 1091 1105
f 1121 1084 1003
f 1069 1086 1058
f 1066 988 1089
f 1096 1091 1092
f 1094 1096 1092
f 1084 1092 1094
f 1097 1092 1084
f 1097 1096 1092
f 1074 1037 1077
f 1100 1004 1088
f 1096 1097 1091
f 1081 1100 1088
f 1101 1035 1080
f 1087 1089 1045
f 1046 1102 1069
f 1087 1051 1083
f 1125 1100 1081
f 1035 1107 1074
f 1076 1090 1073
f 1086 1108 1064
f 1121 1097 1084
f 1105 1104 1082
f 1097 1105 1091
f 1095 1087 1083
f 1107 1037 1074
f 1114 1039 1090
f 1099 1070 1065
f 1087 1095 1089
f 1107 1035 1101
f 1107 1101 1037
f 1102 1109 1069
f 1112 1101 1080
f 906 1125 1081
f 1106 1112 1037
f 1110 1114 1090
f 1066 1111 1046
f 1108 1112 1064
f 980 1098 1071
f 1113 1121 1003
f 1101 1106 1037
f 1055 1115 1078
f 1040 1140 1079
f 1109 1086 1069
f 1109 1108 1086
f 1076 1124 1090
f 1130 906 1039
f 1116 1095 1052
f 1124 1110 1090
f 1111 1102 1046
f 1114 1130 1039
f 1029 1113 1003
f 1100 1118 1004
f 1117 1122 1100
f 1116 1066 1089
f 1112 1106 1101
f 1125 1117 1100
f 1116 1089 1095
f 1123 1029 1024
f 1004 1118 1014
f 1153 1099 1071
f 1097 1151 1105
f 1093 1119 1020
f 1122 1118 1100
f 1104 1126 1085
f 1066 1116 1052
f 1127 1118 1122
f 1110 1130 1114
f 1126 1133 1085
f 1061 1112 1108
f 1153 1145 1099
f 1029 1129 1113
f 1129 1121 1113
f 1137 1126 1104
f 1136 1137 1104
f 1110 1137 1130
f 1105 1136 1104
f 1117 1127 1122
f 1132 1109 1102
f 1111 1132 1102
f 1129 1097 1121
f 1125 1127 1117
f 1129 1134 1097
f 1124 1131 1110
f 1131 1137 1110
f 1128 1066 1133
f 1044 1135 1010
f 1133 1126 1137
f 1132 1061 1109
f 1109 1061 1108
f 1135 1012 1010
f 1079 1140 980
f 1138 1068 1137
f 1131 1138 1137
f 1139 1140 1040
f 1137 1136 1130
f 1098 1147 1071
f 1147 1153 1071
f 1162 1136 1105
f 1142 1120 1115
f 1133 1137 1128
f 1171 906 1130
f 1145 1168 1099
f 1168 1070 1099
f 1103 1139 1040
f 1020 1143 1055
f 1142 1115 1055
f 1144 1142 1055
f 1140 1098 980
f 1151 1162 1105
f 1124 1138 1131
f 1135 1024 1012
f 1136 1171 1130
f 1146 1153 1147
f 1128 1111 1066
f 1151 1097 1134
f 1093 1148 1119
f 1112 1061 1124
f 1141 1148 1093
f 1149 1055 1147
f 1055 1150 1147
f 1150 1146 1147
f 906 1171 1125
f 1033 1103 885
f 1132 1111 1128
f 1143 1152 1055
f 1152 1150 1055
f 1061 1138 1124
f 1144 1055 1149
f 1150 1154 1146
f 1144 1120 1142
f 1155 1147 1098
f 1146 1156 1153
f 1154 1156 1146
f 1068 1128 1137
f 1061 1068 1138
f 1119 1157 1020
f 1147 1155 1149
f 1158 1148 1141
f 1168 1075 1070
f 1152 1154 1150
f 1157 1143 1020
f 1154 1152 1156
f 1140 1155 1098
f 1144 1165 1120
f 1168 1175 1075
f 1118 1160 1014
f 1148 1157 1119
f 1103 1159 1139
f 1132 1068 1061
f 1149 1165 1144
f 1120 1135 1044
f 1068 1132 1128
f 1161 1153 1156
f 1152 1161 1156
f 1161 1145 1153
f 1160 1141 1014
f 1152 1143 1161
f 1033 1159 1103
f 1164 1168 1145
f 1141 1169 1158
f 1163 1155 1140
f 1139 1163 1140
f 1163 1149 1155
f 1161 1164 1145
f 1163 1165 1149
f 1166 1164 1161
f 1143 1166 1161
f 1158 1167 1148
f 1148 1167 1157
f 1157 1166 1143
f 1165 1135 1120
f 1247 1123 1024
f 1167 1166 1157
f 1171 1127 1125
f 1135 1170 1024
f 1165 1173 1135
f 1172 1139 1159
f 1174 1034 1075
f 1175 1174 1075
f 1158 1176 1167
f 1176 1166 1167
f 1134 1182 1151
f 1139 1177 1163
f 1170 1247 1024
f 1160 1169 1141
f 1166 1176 1164
f 1182 1162 1151
f 1164 1175 1168
f 1029 1123 1129
f 1177 1165 1163
f 1176 1178 1164
f 1178 1175 1164
f 1179 1118 1127
f 1173 1165 1177
f 1158 1178 1176
f 1123 1134 1129
f 1171 1179 1127
f 1173 1170 1135
f 1172 1177 1139
f 1169 1178 1158
f 1180 1173 1177
f 1178 1174 1175
f 1178 1169 1174
f 1172 1180 1177
f 1180 1170 1173
f 1136 1181 1171
f 1170 1180 1172
f 1033 1172 1159
f 1160 1034 1174
f 1002 1206 997
f 1028 1187 1022
f 1162 1181 1136
f 1184 1026 976
f 1033 1247 1172
f 1247 1170 1172
f 1169 1160 1174
f 1183 1190 1002
f 1191 1187 1028
f 1186 1198 983
f 996 1186 983
f 1198 1005 983
f 1188 1179 1171
f 1123 1189 1134
f 1005 1198 1184
f 1181 1185 1171
f 1185 1188 1171
f 1189 1182 1134
f 1198 1026 1184
f 1198 1192 1026
f 1190 1183 1187
f 1192 1033 1026
f 1188 1207 1179
f 1034 1193 1191
f 1197 1190 1187
f 1191 1197 1187
f 1160 1194 1034
f 1195 1033 1192
f 1196 1247 1033
f 1194 1193 1034
f 1193 1197 1191
f 1198 1195 1192
f 1179 1160 1118
f 1181 1204 1185
f 1195 1196 1033
f 1198 1211 1195
f 1211 1199 1195
f 1199 1196 1195
f 1201 1200 1193
f 1200 1197 1193
f 1194 1201 1193
f 1202 1203 1189
f 1197 1200 1190
f 1185 1205 1188
f 1209 1186 996
f 1203 1182 1189
f 995 1209 996
f 1203 1241 1182
f 1204 1205 1185
f 1190 1206 1002
f 1241 1162 1182
f 1247 1202 1123
f 1202 1189 1123
f 1188 1208 1207
f 1214 1211 1198
f 1186 1214 1198
f 1219 1204 1181
f 1162 1219 1181
f 1221 1190 1200
f 1206 1210 1212
f 1190 1224 1206
f 1237 1221 1200
f 1212 1213 995
f 1205 1208 1188
f 1201 1237 1200
f 1209 1214 1186
f 1221 1224 1190
f 1207 1160 1179
f 1215 1212 1210
f 1216 1215 1210
f 1217 1199 1211
f 1212 1215 1213
f 1215 1218 1213
f 1224 1210 1206
f 1220 1196 1199
f 1194 1222 1201
f 1213 1223 995
f 1218 1216 1213
f 1216 1218 1215
f 1216 1225 1213
f 1223 1209 995
f 1225 1216 1218
f 1224 1226 1210
f 1223 1214 1209
f 1210 1225 1216
f 1227 1219 1162
f 1233 1196 1220
f 1194 1250 1222
f 1245 1228 1199
f 1229 1233 1220
f 1238 1223 1213
f 1225 1238 1213
f 1222 1242 1201
f 1228 1220 1199
f 1230 1207 1208
f 1238 1225 1210
f 1226 1238 1210
f 1231 1230 1208
f 1232 1211 1214
f 1205 1231 1208
f 1233 1234 1202
f 1221 1226 1224
f 1234 1203 1202
f 1247 1233 1202
f 1228 1229 1220
f 1235 1242 1222
f 1250 1235 1222
f 1238 1236 1225
f 1221 1237 1226
f 1204 1231 1205
f 1236 1238 1226
f 1239 1236 1226
f 1238 1236 1223
f 1236 1239 1223
f 1245 1211 1232
f 1239 1214 1223
f 1240 1239 1226
f 1237 1240 1226
f 1227 1162 1241
f 1239 1232 1214
f 1243 1244 1239
f 1244 1245 1239
f 1245 1232 1239
f 1240 1246 1239
f 1246 1243 1239
f 1234 1248 1203
f 1248 1241 1203
f 1204 1235 1231
f 1201 1242 1237
f 1249 1230 1231
f 1242 1240 1237
f 1160 1207 1194
f 1235 1249 1231
f 1230 1250 1207
f 1245 1217 1211
f 1233 1247 1196
f 1207 1250 1194
f 1248 1229 1228
f 1245 1199 1217
f 1249 1250 1230
f 1261 1235 1204
f 1229 1234 1233
f 1252 1248 1228
f 1235 1251 1242
f 1229 1248 1234
f 1254 1228 1245
f 1219 1261 1204
f 1242 1246 1240
f 1235 1250 1249
f 1251 1253 1242
f 1253 1246 1242
f 1235 1255 1251
f 1251 1256 1253
f 1254 1252 1228
f 1256 1246 1253
f 1244 1254 1245
f 1241 1259 1227
f 1255 1256 1251
f 1257 1252 1254
f 1255 1258 1256
f 1244 1257 1254
f 1248 1259 1241
f 1258 1246 1256
f 1260 1257 1244
f 1243 1260 1244
f 1258 1243 1246
f 1252 1259 1248
f 1227 1261 1219
f 1261 1255 1235
f 1257 1259 1252
f 1243 1261 1227
f 1259 1243 1227
f 1260 1243 1259
f 1258 1255 1261
f 1257 1260 1259
f 1243 1258 1261
