v -0.0020727 0.0463387 -0.0331856
v 0.00153864 0.0473249 -0.0471172
v -0.00297192 0.0453802 -0.0470037
v -0.00727892 0.0410046 -0.0428428
v -0.006516 0.041484 -0.046725
v 0.00684459 0.041435 -0.0450095
v -0.000560431 0.0477434 -0.0383758
v -0.00978 0.041494 -0.045943
v -0.00693717 0.0411274 -0.0464243
v 0.000363053 0.0288674 -0.0462951
v -0.00133276 0.029032 -0.0432201
v -0.037483 0.041566 -0.040018
v -0.0062914 0.0313534 -0.0466512
v 0.006832 0.034507 -0.04279
v 0.027071 0.047712 -0.027149
v 0.039295 0.0468557 -0.0391943
v 0.0373621 0.0241068 -0.0380552
v 0.0214895 0.0222267 -0.0408389
v -0.00396592 -0.00563706 -0.043166
v -0.0114215 -0.0111873 -0.0410406
v -0.000520699 -0.00343958 -0.0418007
v 0.00352316 0.000749637 -0.0438134
v -0.0367361 -0.000135699 -0.0372965
v -0.0124793 0.0415243 -0.0418018
v 0.0142299 0.0080675 -0.0425207
v -0.00761069 0.0393903 -0.0404261
v 0.031883 0.0209617 -0.0360741
v -0.013685 -0.0140359 -0.0389974
v -0.0270668 0.0416443 -0.0353808
v 0.0080142 0.0368939 -0.0319712
v -0.00786683 0.0347575 -0.0321337
v 0.0122188 0.00594768 -0.0402551
v -0.00219238 0.0293762 -0.0406122
v 0.006081 0.033353 -0.039982
v 0.00554497 0.0326568 0.0401873
v -0.0225633 0.0478037 -0.0302557
v -0.00145849 0.0302166 0.0406082
v 0.00242854 0.00918126 -0.0391339
v 0.0210351 0.0417245 -0.0387638
v 0.00764456 0.0399447 -0.0408052
v -0.006176 0.033567 0.040084
v -0.006963 0.034669 -0.032217
v -0.0210279 0.0236392 -0.0381505
v -0.0114067 0.0112073 -0.0388896
v 0.0106259 0.00946352 -0.0374783
v 0.00232196 -0.00117019 -0.039335
v -0.00013609 -0.00704865 -0.0392857
v 0.001191 -0.006715 -0.039303
v 0.00206446 -0.0158293 -0.0396211
v -0.001452 -0.006662 -0.03933
v -0.001483 -0.000253 -0.039342
v 0.00320476 -0.00651225 -0.0392749
v 0.001553 -0.006504 -0.039318
v -0.001891 -0.006422 -0.039309
v -0.001627 -0.006564 -0.039316
v -0.001717 -0.006516 -0.039314
v 0.001384 -0.006677 -0.039285
v -0.00207 -0.006502 -0.039308
v -0.00303176 -0.00308672 -0.0377934
v -0.003295 -0.002847 -0.039195
v -0.03994 0.041571 -0.03769
v -0.001321 0.005034 -0.039038
v -0.00487705 -0.0149132 -0.0389885
v -0.001622 -0.006767 -0.039237
v -0.001716 -0.006733 -0.039244
v 0.001283 -0.006761 -0.03926
v 0.00340736 0.00290505 -0.0391235
v -0.00157921 -0.0118514 -0.0392351
v 0.00798592 -0.00192329 -0.0384301
v -0.001663 -0.007021 -0.039004
v 0.001358 -0.007018 -0.039034
v -0.001518 -0.006839 -0.039202
v 0.001273 -0.006845 -0.039202
v -0.0032195 -0.002766 -0.039242
v -0.00302806 -0.00195805 -0.0392112
v 0.00129584 -0.0171115 -0.0383269
v 0.0289015 0.0167107 -0.0349454
v 0.00437927 0.00452571 -0.0394028
v 0.00281848 -0.00323455 -0.0390293
v -0.040067 0.041571 -0.037731
v -0.003326 -0.002553 -0.039084
v 0.003579 -0.001953 -0.039013
v -0.003356 -0.002457 -0.039058
v 0.000246608 -0.0111187 -0.0399437
v -0.003381 -0.00235 -0.039048
v 0.0029767 -0.00975828 -0.0388933
v -0.0109298 -0.00665305 -0.0380526
v 0.00379678 -2.21898e-05 -0.0391682
v 0.00423245 -0.00552416 -0.0394531
v -0.0375594 0.0478245 -0.0416272
v -0.003784 -0.002173 -0.038854
v 0.00435726 0.0070194 -0.0376028
v -0.0105814 -0.0115397 -0.0380867
v -0.00404085 -0.00463956 -0.0384973
v 0.0120346 0.00321161 -0.0376161
v 0.003578 -0.002094 -0.038908
v -0.011407 0.009798 -0.037493
v -0.003469 -0.002392 -0.038971
v -0.003945 -0.002086 -0.038826
v -0.00357712 -0.0048048 -0.0390755
v 0.0115992 -0.000309693 -0.0376966
v 0.003627 -0.002141 -0.038834
v 0.003727 -0.00212 -0.038795
v -0.004075 -0.002066 -0.038787
v -0.00543888 0.00349562 -0.0393451
v 0.003836 -0.00212 -0.038701
v -0.004168 -0.002077 -0.038719
v 0.0379953 0.0254487 -0.0379497
v -0.00479792 -0.00182421 -0.0391282
v -0.00212882 -0.0120535 -0.0376705
v 0.0110243 -0.0148306 -0.0377867
v 0.0107607 0.000206321 -0.0374143
v 0.0227178 0.0230783 -0.0370286
v 0.0137957 -0.0167706 -0.0366839
v -0.030717 0.0416766 -0.0308051
v 0.012229 -0.014823 -0.037035
v -0.00982399 0.00512243 -0.0375567
v 0.0033546 -0.00461375 -0.0372278
v -0.0373493 -0.0180391 -0.0328541
v -0.0760851 0.002542 -0.0383204
v -0.008506 -0.016916 -0.036402
v 0.00350227 -0.00221924 -0.0373679
v 0.000929792 -0.0083002 -0.0378926
v 0.0145265 -0.0101231 -0.0366731
v -0.0167869 -0.00208672 -0.0348992
v 0.0151684 -0.0141484 -0.0346676
v -0.027374 -0.0252121 -0.0298033
v 0.00165814 0.00275047 -0.0380378
v -0.00976514 -0.000174248 -0.0383072
v -0.0171434 0.00324535 -0.0355199
v 0.0129166 -0.00690347 -0.0370681
v -0.0170754 0.00154293 -0.0336967
v -0.013326 -0.005299 -0.03706
v -0.0181202 0.00935499 -0.0339382
v -0.094433 0.00760075 -0.0367537
v -0.0120651 -0.0162483 -0.037891
v -0.0923546 0.0128552 -0.0361933
v -0.094543 -0.00845275 -0.0357632
v 0.038552 0.0245114 -0.0365211
v -0.00352519 0.0615391 -0.0382304
v 0.0262023 0.0249981 -0.0370109
v 0.0303509 0.0415861 -0.031943
v -0.0232554 0.0365634 -0.0336711
v 0.0139669 -0.0117583 -0.0366582
v 0.0237539 0.0115261 -0.0379833
v 0.00754162 0.0108067 -0.0402383
v 0.0170377 0.00476027 -0.0353366
v -0.00268304 -0.0267833 -0.0374162
v 0.0243202 0.0386981 -0.0339416
v -0.0538583 0.00768788 -0.0363423
v -0.016414 -0.00528 -0.03582
v -0.0178486 -0.0110218 -0.0353757
v -0.093285 -0.00500592 -0.0384843
v -0.0763692 -0.0212322 -0.0321666
v -0.0747545 0.00541334 -0.0367076
v -0.0398941 0.0186913 -0.0341839
v -0.0173356 -0.028101 -0.03215
v 0.0212067 0.00466497 -0.0330069
v -0.0539313 -0.012445 -0.0335308
v -0.0287509 0.061354 -0.036737
v -0.0296589 0.0539349 -0.0368059
v -0.0382067 0.00848722 -0.0367081
v -0.0541718 0.00356273 -0.035364
v -0.0256875 -0.0227695 -0.0323295
v -0.0130329 -0.0135087 -0.0354909
v 0.0212304 -0.0114547 -0.0332362
v -0.0214437 -0.000525205 -0.0335156
v -0.0271127 0.0230093 -0.0333488
v 0.0245387 -0.00701342 -0.0301481
v 0.0184502 -0.00213527 -0.0340371
v 0.0200122 -0.0169468 -0.0328927
v -0.0295037 0.00996447 -0.0261627
v 0.020335 -0.0150395 -0.0335802
v 0.0224221 0.00305793 -0.032179
v -0.0203959 -0.0262858 -0.0317257
v 0.019254 -0.005509 -0.034306
v -0.043136 0.041608 -0.024041
v -0.040779 0.04158 -0.034364
v 0.0477213 0.0476411 0.00155392
v 0.021604 0.012139 -0.034105
v -0.0473466 0.0479088 -0.00107404
v 0.042251 0.023761 -0.0183565
v -0.00234393 -0.0290389 -0.0310998
v -0.0410465 0.0219207 -0.0306878
v 0.0279227 -0.0102956 -0.0278571
v -0.02316 0.061598 -0.029533
v 0.0114559 -0.0266747 -0.0354419
v -0.0255938 -0.0161708 -0.0300372
v -0.0944376 0.00433257 0.0377512
v -0.0943878 0.0226053 0.0293971
v -0.0945749 0.0358699 0.010903
v -0.0944432 0.0353593 -0.00989074
v -0.020185 -0.016368 -0.033859
v -0.09247 0.019341 -0.033139
v -0.0937224 -0.0204751 -0.0319867
v -0.0746212 -0.00603061 -0.0248101
v 0.0357267 0.0213799 -0.0337492
v -0.0174714 -0.0152237 -0.0354774
v -0.0217636 -0.00174936 -0.0328039
v 0.0284653 0.0242445 -0.0330551
v -0.0275483 0.0245698 -0.0354017
v 0.0120227 -0.00484857 -0.0368738
v 0.0218973 -0.00185629 -0.0325491
v -0.0579743 -0.000167118 -0.0347822
v 0.0253714 -0.00154734 -0.0303889
v -0.024369 0.0111162 -0.0321607
v -0.0197806 -0.00972047 -0.0335001
v -0.0591978 -0.00772366 -0.0333283
v -0.0229198 0.0614785 -0.029866
v 0.023883 0.0114054 -0.0324231
v -0.0194265 0.00482083 -0.0344148
v -0.0413162 0.0411075 -0.0231724
v -0.0220221 -0.0113986 -0.0327688
v 0.0328166 0.0146542 -0.0301629
v -0.0238856 0.00301576 -0.0291488
v 0.0233408 0.00945826 -0.0302178
v -0.0935154 0.0274945 -0.0265842
v -0.0277139 0.0249147 -0.0354653
v -0.0541255 0.0245215 -0.026204
v -0.054149 -0.0219018 -0.0282851
v 0.0260454 -0.000242822 -0.0293304
v -0.0587628 0.0157147 -0.0307766
v -0.0581905 -0.0171091 -0.0302571
v -0.023161 0.003347 -0.03194
v -0.0214269 -0.00552475 -0.0334063
v -0.0589952 0.00833138 -0.0331561
v -0.0750751 -0.0170064 -0.0341549
v -0.0236109 -0.00637274 -0.0319184
v -0.00492137 0.051543 -0.0339759
v -0.0416704 0.0177505 -0.0326546
v -0.094495 0.031241 -0.018466
v -0.0745836 0.0145493 -0.0210384
v -0.0752999 0.0187306 -0.0331129
v 0.036903 0.020348 -0.028463
v -0.009 0.03471 0.031811
v 0.0192534 -0.0279359 -0.0312915
v -0.0102037 0.0615258 -0.0200612
v -0.0153118 -0.0308811 -0.0270279
v -0.0287524 0.0237972 -0.0318776
v 0.0271494 -0.0163737 -0.0285971
v 0.0308779 0.0237568 -0.0295584
v 0.0260818 -0.00607571 -0.0295654
v 0.0267817 -0.00516293 -0.0290179
v 0.0359343 0.0146012 -0.0269226
v 0.0314273 0.0117242 -0.0255881
v -0.0295571 -0.0092622 -0.023799
v -0.029455 -0.0142893 -0.0239496
v 0.0261176 0.0515237 -0.0222947
v 0.00635814 0.0516 -0.0221135
v 0.0200287 0.0346275 0.0274483
v 0.0377204 0.0165501 -0.024702
v -0.029597 -5.4e-05 -0.025722
v -0.0272556 -0.0157376 -0.0287603
v -0.0270708 0.00359175 -0.0289098
v -0.020444 -0.00487429 -0.031746
v -0.0596085 -0.000472029 -0.0262259
v -0.029639 -0.015493 -0.027961
v -0.0295816 0.011123 -0.0272592
v 0.0289914 0.012713 -0.0311499
v 0.0269744 -0.0109809 -0.0286598
v 0.0340766 -0.00533093 -0.0169213
v 0.0381932 0.0414607 -0.0250835
v 0.02705 0.00421 -0.028553
v 0.0330456 -0.00992857 -0.0200964
v 0.000952365 -0.0338631 -0.0299246
v -0.0307031 0.0208792 -0.0288474
v -0.026477 -0.011758 -0.026649
v -0.0475458 0.0615405 -0.00189722
v -0.023172 0.061733 0.02951
v -0.0346948 0.0415831 -0.0290352
v -0.029591 -0.00160585 -0.0263333
v -0.0296283 0.00388124 -0.0264006
v -0.0296399 -0.0151308 -0.0260458
v -0.0943581 -0.0269322 -0.0252917
v -0.00656775 -0.0359505 -0.0280888
v 0.0293974 -8.8189e-05 -0.0254309
v -0.0295668 -0.00680341 -0.02475
v -0.0339058 0.0242579 -0.0280593
v 0.0273115 -0.0281436 -0.0235843
v 0.030122 -0.0337802 -0.0224309
v 0.0229283 0.0615013 -0.0304479
v -0.0380595 0.038939 -0.0175851
v 0.00152272 -0.0328674 -0.0286081
v 0.004686 -0.028454 -0.028339
v 0.0265708 -0.0119425 -0.02802
v 0.0289074 -0.00680258 -0.0264483
v -0.094477 0.028275 -0.022916
v 0.005393 -0.028666 -0.027783
v -0.0349171 -0.0306426 -0.0217827
v -0.00818064 -0.0338078 -0.0268283
v -0.0296064 -0.0113436 -0.0265106
v -0.00208525 -0.0323248 -0.0276471
v 0.0268495 0.00291603 -0.027884
v -0.0062698 -0.0285774 -0.028139
v -4.36456e-05 -0.0289393 -0.0274851
v 0.0025383 -0.0311343 -0.0274662
v -0.0295762 0.00154687 -0.0231715
v -0.0295648 -0.0163344 -0.0269147
v -0.0296236 -0.00572979 -0.0263684
v -0.0430304 0.0540109 -0.0190449
v 0.0347414 0.0246393 -0.0278688
v 0.0355796 0.0245953 -0.0272387
v 0.00046001 -0.0365584 -0.0205442
v -0.029618 -0.004982 -0.025332
v 0.003608 -0.036314 -0.020377
v -0.029607 -0.004942 -0.023168
v -0.0129291 -0.0311807 -0.0247647
v -0.0316191 0.0516573 -0.0130919
v 0.0309331 -0.0280742 -0.020663
v 0.029911 -0.028485 -0.020667
v -0.076232 -0.0316191 -0.0216535
v -0.0305739 -0.0244577 -0.0241995
v -0.0367191 0.0249203 -0.0264805
v 0.0259788 0.00486083 -0.0270069
v -0.0220105 -0.0288109 -0.0191692
v 0.0340065 -0.00147757 -0.02004
v -0.0293029 -0.0166573 -0.0239536
v -0.0293313 0.00655906 -0.0237203
v -0.0591013 -0.0245904 -0.0238241
v -0.0304775 -0.0284278 -0.0196722
v -0.0596573 -0.0214514 -0.0139826
v -0.058695 0.025864 -0.022264
v 0.0343329 -0.00181921 -0.0152277
v -0.0193993 -0.0283556 -0.0157548
v -0.0408785 0.0324195 -0.0197655
v -0.037295 0.0245223 -0.025032
v 0.0322506 -0.0187733 -0.0194223
v -0.029611 -0.001828 -0.02304
v 0.0382766 0.0240667 -0.0217091
v -0.0924523 0.0346018 -0.0172533
v -0.0934721 -0.029057 -0.0248257
v -0.024232 0.0536467 -0.0302502
v -0.053491 0.0302252 -0.0195213
v 0.0200272 0.0344496 -0.0274519
v -0.0238328 -0.0284076 -0.0167672
v -0.0169261 -0.0310826 -0.021837
v -0.0166451 -0.0318949 -0.0234885
v -0.0238325 -0.0341466 -0.0186508
v -0.0753805 0.0303202 -0.0231034
v 0.0362761 -0.000343438 -0.014925
v 0.0329232 -0.0158484 -0.0216753
v 0.0337223 -0.00529148 -0.0200562
v -0.0418336 0.0318753 -0.0191341
v -0.0049962 -0.0284358 -0.0263924
v 0.0333705 0.00438112 -0.0210057
v -0.0385301 0.0419649 -0.0223046
v 0.0320704 -0.014956 -0.0208776
v -0.0368001 -0.0330285 -0.0170737
v -0.0194837 -0.0316638 -0.0221095
v 0.034653 -0.000124311 -0.0144248
v 0.0280271 0.0048013 -0.0270823
v -0.0360245 0.0537785 -0.0144522
v 0.0288768 -0.0275693 -0.0232703
v 0.0401887 0.0146958 -0.0184049
v 0.0353317 -0.0116695 -0.0172547
v 0.0360179 -0.0163397 -0.0152591
v -0.031685 -0.029138 -0.019301
v -0.0168989 -0.0358384 -0.0146271
v -0.00220334 0.0518361 -0.0218025
v -0.0263259 0.0346186 -0.0212675
v 0.0309473 0.0099805 -0.0237693
v 0.0371611 0.0615325 -0.00895558
v 0.021037 0.0609354 -0.000446886
v 0.0387616 0.034994 -0.0120346
v 0.0418035 0.0152108 -0.0167742
v -0.0574267 0.030665 -0.0167932
v 0.0332032 -0.0274303 -0.0186302
v 0.0355467 -0.0272801 -0.0187408
v 0.0256401 -0.0364795 -0.0146247
v -0.0539482 -0.0311375 -0.0194016
v 0.0299309 -0.0312047 -0.0206781
v 0.0124653 0.0602247 -0.0164068
v 0.00214756 0.0556923 -0.0196846
v -0.0230874 -0.0288165 -0.0149589
v -0.00255967 0.0536879 -0.020015
v 0.0379316 0.0165148 -0.0185185
v -0.000429429 -0.0370577 -0.0137508
v -0.0346206 0.0286092 -0.0215471
v -0.0591267 0.0324803 -0.0117526
v 7.5e-05 -0.036254 -0.014701
v -0.0135044 0.0521597 -0.0165553
v 0.0070454 0.0594297 -0.018884
v 0.0377953 -0.0316046 -0.0196938
v 0.0318445 -0.0288573 -0.0190552
v -0.0407798 0.0415556 -0.0122606
v 0.00875797 -0.0366029 -0.0152861
v 0.04157 0.041455 -0.01984
v 0.036058 -0.015056 -0.014611
v -0.00095685 0.0611812 -0.0221798
v 0.0325452 -0.0329659 -0.0189854
v 0.0373393 0.0219018 -0.0209022
v -0.0266821 -0.0319199 -0.0108016
v -0.0461687 0.0382757 -0.0208587
v 0.0314251 -0.0322467 -0.0192167
v 0.0386124 -0.0271549 -0.0193334
v 0.042265 0.0414521 -0.019136
v 0.035103 0.010057 -0.015972
v -0.0928986 0.0378468 -0.00786114
v -0.0583282 -0.0298287 -0.0178416
v 0.0365135 0.0413442 -0.0226742
v -0.0750853 -0.0351459 -0.0133957
v -0.0259469 -0.036484 -0.00822615
v 0.0391149 -0.0261421 -0.0188688
v -0.0294815 -0.0322455 -0.00972677
v 0.038213 0.036464 -0.013314
v 0.0150838 0.053769 -0.0136496
v 0.0162452 0.0519013 -0.0146753
v 0.0407509 -0.0282729 -0.0173504
v 0.0393708 -0.0204969 -0.0165362
v -0.074576 0.036106 -0.004265
v 0.036934 -0.00643884 -0.0146153
v 0.0366137 -0.010807 -0.0148912
v 0.036642 -0.001403 -0.014473
v 0.0398882 -0.026949 -0.0162172
v 0.0347406 -0.00824121 -0.0135948
v 0.0419426 0.0414583 -0.00996273
v 0.0346933 -0.0282346 -0.0143671
v 0.0307132 -0.0298721 -0.0186903
v 0.036392 -0.015393 -0.014648
v 0.0363 -0.015276 -0.014648
v 0.034252 -0.006821 -0.014841
v 0.0369784 -0.0158956 -0.0141256
v -0.0207095 -0.0326651 -0.0163908
v 0.0385345 0.0477616 0.00161658
v 0.0349094 -0.02734 -0.0157455
v 0.0370345 0.00356534 -0.0138948
v 0.0174136 0.0578453 -0.00975921
v -0.00974743 0.0573281 -0.0167131
v 0.0369373 0.0113594 -0.0158737
v -0.0523679 -0.0338981 -0.0134888
v -0.0540154 -0.0337638 -0.0133314
v 0.0376196 0.0112848 -0.014716
v 0.0359806 0.00311897 -0.0145537
v 0.0357196 0.0030609 -0.0151345
v -0.0182405 -0.0373454 0.00284761
v 0.034505 -0.019956 -0.014161
v 0.0298802 -0.0284577 -0.0165109
v 0.037371 -0.033785 -0.012011
v -0.026846 -0.028351 -0.010035
v 0.0384143 -0.0202069 -0.0141678
v 0.0345567 0.00722691 -0.0136121
v 0.0393221 -0.0223367 -0.0154151
v -0.028579 -0.0284181 -0.0126884
v 0.038815 -0.025082 -0.015004
v 0.0366482 0.0100222 -0.0150905
v 0.037807 -0.026476 -0.014439
v 0.0381332 -0.0272792 -0.0115465
v 0.040021 -0.0236916 -0.015035
v 0.038292 -0.025595 -0.014716
v 0.0435989 0.0147266 -0.00398452
v -0.057581 -0.033412 -0.010316
v 0.037896 -0.027326 -0.014454
v 0.035819 -0.011708 -0.014812
v 0.0409807 -0.0235446 -0.0148665
v -0.040388 -0.035725 -0.0094
v 0.0357493 -0.0117765 -0.0146558
v -0.0185402 -0.0282894 0.0172061
v 0.0287883 -0.028352 0.0178377
v 0.0360996 -0.0317982 0.00519729
v 0.0348822 -0.00274424 -0.0139292
v 0.03591 -0.011806 -0.014537
v 0.036564 -0.011367 -0.014481
v 0.036485 -0.011404 -0.014544
v 0.040861 0.00980447 -0.0150269
v 0.036545 -0.00514614 -0.0142461
v 0.0351298 -0.0122576 -0.013878
v 0.036173 -0.000126 -0.014421
v 0.036353 -0.015275 -0.014552
v -0.050534 -0.034047 -0.013405
v -0.04989 -0.0336974 -0.0142692
v 0.0370876 -0.0108814 -0.014191
v 0.0358745 0.0030875 -0.0145305
v 0.03665 -0.011327 -0.014414
v 0.036238 -0.014748 -0.014183
v 0.0369088 -0.00608008 -0.0143078
v 0.036969 -0.000839 -0.014283
v 0.035983 0.003077 -0.014434
v 0.036494 -0.000509 -0.01455
v 0.036585 -0.000551 -0.014486
v 0.036192 -0.011979 -0.014274
v 0.041431 0.0116751 -0.0138448
v 0.036709 -0.000577 -0.014379
v 0.0378698 -0.0256698 -0.0144922
v 0.0353656 0.00246479 -0.0138544
v -0.0513561 -0.0336662 -0.0141796
v 0.036246 0.00499464 -0.0137026
v 0.036616 -0.0104 -0.014387
v 0.036646 -0.011432 -0.014341
v 0.036736 -0.011391 -0.014294
v 0.036706 -0.010439 -0.014334
v 0.036804 -0.010481 -0.01428
v 0.0366511 7.97359e-05 -0.014124
v -0.049477 -0.033646 -0.014219
v 0.0345131 -0.0259851 -0.0142538
v 0.036789 -0.001536 -0.014281
v 0.036698 -0.00158 -0.014322
v 0.036901 -0.011394 -0.01419
v -0.049758 -0.033808 -0.014065
v -0.0493376 -0.0340521 -0.0134123
v -0.050008 -0.034144 -0.013213
v 0.0388763 0.0128325 -0.012775
v -0.0513847 -0.0342749 -0.0126061
v -0.05192 -0.033996 -0.013397
v 0.036724 -0.006548 -0.014272
v 0.036715 -0.011488 -0.01426
v 0.036402 -0.002389 -0.014111
v 0.036886 -0.00149 -0.01424
v 0.036815 -0.006503 -0.014237
v 0.036805 -0.011442 -0.014225
v -0.0520303 -0.0338139 -0.0136689
v 0.036972 -0.011206 -0.014215
v 0.0370352 -0.0113042 -0.0141569
v 0.0362196 -0.00961022 -0.0141501
v 0.03691 -0.006454 -0.014201
v 0.037135 -0.006449 -0.014109
v 0.0411223 -0.0250621 -0.0136909
v 0.037274 -0.001467 -0.014084
v 0.0362559 -0.00719336 -0.0141423
v 0.037331 -0.001009 -0.014117
v 0.03711 -0.001289 -0.014189
v 0.037203 -0.006198 -0.014138
v 0.037215 -0.001339 -0.014127
v 0.036424 -0.016548 -0.014045
v 0.037299 -0.001263 -0.014112
v 0.037305 -0.006167 -0.014105
v 0.03728 -0.011143 -0.01409
v 0.0388302 -0.0122377 -0.0138965
v -0.0206009 0.0519285 -0.00722689
v 0.03743 -0.006153 -0.01407
v 0.037716 -0.006071 -0.014044
v 0.0348136 -0.0177611 -0.0132172
v 0.037572 -0.000893 -0.014063
v 0.037675 -0.000904 -0.014053
v 0.040667 -0.000769 -0.013959
v 0.037776 -0.000875 -0.01405
v 0.036688 -0.016467 -0.013908
v 0.037085 -0.01554 -0.013912
v 0.0371027 -0.0164633 -0.0136627
v 0.037182 -0.01559 -0.013863
v 0.037285 -0.015641 -0.013818
v 0.0409777 0.00439614 -0.013202
v 0.037435 -0.015714 -0.013761
v 0.037857 -0.015904 -0.013663
v 0.0372468 0.00457834 -0.0135755
v 0.037592 -0.015829 -0.013709
v 0.041398 -0.00298621 -0.0136474
v -0.0156721 0.0606294 -0.0136606
v 0.0410583 -0.0188102 -0.0129863
v -0.051926 -0.033898 -0.013371
v -0.0443617 0.0613269 -0.0187492
v -0.050818 -0.03399 -0.013249
v -0.052156 -0.033998 -0.013094
v -0.0309989 -0.0332459 -0.0100758
v -0.0504206 -0.0340912 -0.0131921
v -0.050171 -0.034167 -0.012855
v -0.049975 -0.034166 -0.012881
v 0.0388952 0.0131767 -0.0115675
v -0.0499669 -0.0345177 -0.0120886
v 0.041404 0.010743 -0.007918
v -0.0489992 0.0353017 -0.0117128
v -0.042139 0.0356164 -0.00663363
v -0.0278174 -0.0293109 -0.0101055
v 0.0163424 0.0613125 -0.0153324
v -0.0813548 0.0382262 -0.0119195
v -0.0929862 -0.0356763 -0.0143241
v -0.0270532 -0.0310589 -0.00719753
v 0.0381759 -0.0263432 -0.00893339
v -0.0751639 0.0362346 -0.00998839
v -0.0510619 -0.0345298 -0.0119352
v -0.050822 -0.034538 -0.012067
v -0.0944867 -0.0354924 -0.0113248
v -0.051131 -0.034572 -0.011936
v -0.0512195 -0.0346765 -0.0116123
v -0.0522523 -0.0351704 -0.00989201
v -0.0209536 -0.0376998 0.00867427
v -0.0285389 -0.0287872 -5.62158e-05
v -0.0502553 -0.0349391 -0.0108134
v -0.050446 -0.034784 -0.011069
v -0.0495743 -0.0351897 -0.00996487
v -0.04962 -0.035242 -0.010016
v -0.050442 -0.034888 -0.010744
v -0.050524 -0.03497 -0.010807
v 0.0411621 -0.0248503 -0.00808219
v 0.0408747 0.0121733 -0.0109332
v -0.051882 -0.0351206 -0.010055
v -0.0515571 -0.0351609 -0.00999287
v 0.0361096 0.0177408 -0.0104449
v -0.051556 -0.034983 -0.010292
v -0.051603 -0.035165 -0.010019
v 0.0363566 0.0116756 -0.00973222
v 0.037591 0.017735 -0.009587
v -0.04991 -0.035189 -0.009799
v -0.0387368 0.053543 0.00276248
v -0.052018 -0.035127 -0.009732
v -0.052291 -0.035063 -0.009922
v 0.040028 0.0122449 -0.00723655
v -0.0520764 -0.0352782 -0.00947107
v -0.051987 -0.035209 -0.009815
v -0.0303785 -0.0341418 -0.00372717
v 0.0331271 -0.0329051 -0.0151933
v -0.0497216 -0.0353026 -0.00966082
v -0.038876 0.0478858 -0.00600746
v -0.0434607 0.0417136 -0.00309462
v -0.0178879 0.0567464 -0.00742295
v -0.0500724 -0.0351698 -0.0100611
v -0.040168 0.034545 -0.005668
v 0.0334171 0.0515494 0.00145417
v 0.0343741 0.0345583 0.00113772
v 0.0405427 0.0118941 -0.00693711
v -0.0494608 -0.0358192 -0.00767325
v -0.0521417 -0.0355052 -0.00844335
v 0.0376778 0.0162846 0.00438
v -0.0938328 -0.0380734 0.00119842
v -0.049818 -0.035723 -0.007922
v -0.0592679 -0.0337752 -0.00547124
v -0.0471143 0.0541849 -0.00146411
v 0.0415182 0.0126763 -0.00257129
v -0.0514865 -0.0357098 -0.00777234
v 0.040006 0.0367279 -0.0066054
v 0.0181838 0.0609379 0.0114837
v -0.0498506 -0.0358404 -0.00750434
v 0.0376185 -0.0279913 0.00147237
v -0.0496634 -0.0359745 -0.00682125
v 0.0352822 -0.0311733 -0.0108848
v -0.0505078 -0.0359698 -0.00665055
v -0.0504368 -0.0360776 -0.00606276
v -0.0390366 -0.0344711 -0.00969339
v -0.0539206 0.0350131 -0.00288656
v -0.0538528 -0.0363676 -0.00366425
v -0.0268488 -0.0307643 0.00153021
v -0.0745569 0.0248619 -0.00511759
v -0.0596646 -0.0249569 0.0062315
v -0.0521183 -0.0362506 -0.00461114
v -0.051239 -0.036127 -0.005512
v -0.0519707 -0.0361473 -0.00520725
v -0.0423974 0.0415469 0.00505616
v -0.052253 -0.036069 -0.005309
v -0.05194 -0.036201 -0.005181
v -0.0206675 0.0608308 -0.00186879
v 0.020076 0.053694 -0.001269
v -0.0421325 -0.0368382 -0.00416421
v -0.0399678 -0.0358798 0.00674925
v 0.0314387 -0.0362602 -0.0208647
v 0.0381163 -0.0273239 0.0079574
v 0.0405219 0.0142901 -0.00168786
v -0.0496683 -0.0364621 -0.00351932
v 0.0385163 -0.033543 -0.00634001
v -0.0475998 0.0406942 0.000210733
v 0.0386929 -0.0341483 -0.00142
v -0.0305302 -0.0342869 -0.000452933
v -0.0501127 -0.0365921 -0.00168407
v -0.0522094 -0.0364478 -0.00247924
v 0.0211432 0.0522063 -0.00082206
v -0.0749522 0.0377611 0.00367628
v -0.092518 -0.038218 0.003901
v -0.0509097 -0.0365657 -0.000543175
v -0.0524794 -0.0365399 -0.000597905
v 0.0411281 0.0142485 0.000884518
v -0.0539441 -0.0364982 0.001345
v -0.0482813 0.0378759 0.00130815
v -0.020663 0.0615705 0.00881396
v -0.0288821 -0.032934 -0.00369154
v -0.0189714 0.0557615 0.00407169
v -0.0213775 0.0517707 0.00619217
v 0.039946 0.012118 0.00757761
v 0.04078 -0.0270743 0.000145692
v 0.0365641 -0.0289227 -0.00111064
v -0.0287398 -0.0282613 0.00565461
v 0.0424407 0.041077 0.00223712
v -0.0334244 0.0346889 0.0016361
v 0.0406014 0.036778 -0.000151096
v 0.0422112 0.0411708 0.0019575
v -0.0508008 -0.0365937 0.00148088
v -0.0521221 -0.0363246 0.00428187
v -0.0301924 -0.0339498 0.0043638
v -0.0582144 0.0347335 0.00239371
v -0.0929115 0.0381943 0.00527356
v -0.0759396 -0.0385792 -0.000561999
v 0.0412752 0.0113098 0.00800463
v -0.0440157 0.0416821 0.00300813
v -0.0745613 0.0213621 0.0151295
v -0.0595571 0.0255221 -0.00863198
v -0.0746557 -0.0255375 -0.00716719
v 0.0361713 0.0177861 0.0107013
v -0.0540379 0.0338951 0.0134451
v -0.0542455 -0.0332855 0.0135475
v -0.0467835 0.0404389 0.0226956
v -0.043739 0.0377091 -0.000388047
v -0.0309602 -0.0331191 0.0111567
v -0.05633 -0.0352959 0.00189795
v -0.0505069 -0.0362961 0.0048111
v 0.038283 -0.033827 0.007439
v 0.0413211 -0.0256992 0.00347868
v 0.0378669 -0.0328418 0.000548214
v -0.0499053 -0.0360828 0.00639027
v -0.02809 -0.032727 0.006618
v -0.0271731 -0.0327186 0.00985353
v 0.0371708 -0.0267395 0.0147928
v -0.0245199 0.0347175 0.0233836
v 0.0187923 0.0529757 0.00810605
v -0.050576 -0.035967 0.007173
v -0.0585478 -0.0336945 0.00847023
v -0.0536959 0.0364177 -0.000800323
v 0.0415989 0.0415587 0.0196716
v 0.0408306 0.0148665 0.0177104
v -0.0595794 0.0156734 0.0212528
v 0.0392897 0.0367315 0.0100079
v -0.0524375 -0.0360753 0.00599204
v -0.038659 -0.033557 0.010536
v -0.030191 -0.0281778 0.0193306
v 0.0358007 -0.0360538 0.0110431
v 0.0363979 0.0116823 0.0100779
v 0.0444691 0.0153168 0.00749421
v -0.0491042 0.0356733 0.0108189
v 0.0371226 0.0117576 0.00779953
v -0.052862 -0.0356912 0.00829874
v -0.0267093 -0.0287119 0.00894346
v 0.0175984 0.0518879 0.0133423
v -0.0278759 -0.0284937 0.0147823
v 0.0378955 -0.0252416 0.00701437
v 0.0339729 -0.0276571 0.0152166
v 0.035118 -0.028808 0.012898
v -0.0492848 -0.0347313 0.0117966
v 0.039367 0.041543 0.017576
v 0.0349772 0.0615863 0.0144557
v -0.0336156 0.0512476 0.000562249
v -0.0431579 0.0616678 0.0193142
v 0.0411407 0.0054329 0.0134783
v -0.094181 -0.034471 0.014208
v -0.0277169 -0.031081 0.0063516
v -0.0575874 0.0332762 0.0109089
v -0.0760633 -0.0363514 0.0121204
v -0.075961 0.0365836 0.0117759
v -0.0924731 -0.035561 0.0155635
v -0.0929391 0.0341649 0.0177362
v -0.0504984 -0.0353209 0.00969854
v 0.016699 0.058388 0.00999034
v 0.038583 0.024514 0.036531
v 0.0398675 0.0125933 0.0116754
v -0.0393737 0.047986 0.0389011
v -0.0296757 0.0479404 0.0235392
v 0.040261 0.041591 0.036831
v -0.0420239 0.0417889 0.0241554
v 0.0411785 0.0123368 0.0122978
v -0.0595317 0.0316602 0.0102998
v -0.0747932 -0.0369472 0.00879257
v 0.0409158 -0.0257724 0.0115842
v 0.0413176 -0.0250187 0.0136437
v 0.0364414 -0.0311619 0.00615777
v 0.0390106 0.0131928 0.0112333
v -0.0166045 0.054382 0.0106141
v 0.0363903 -0.0325233 0.0201967
v -0.0177812 0.0605063 0.0111775
v -0.0595484 -0.0277104 0.0191117
v 0.041387 0.00986477 0.014725
v 0.00698216 0.0613594 0.021014
v 0.0394315 -0.0267464 0.0161857
v -0.0273871 -0.0320351 0.00944386
v 0.0405901 -0.0288034 0.0176404
v -0.0226609 -0.0286236 0.0168668
v 0.0283832 0.0478324 0.0250832
v 0.00015805 -0.0364392 0.0148378
v 0.00870126 -0.0365039 0.0161716
v 0.0242217 0.0516282 0.0237937
v 0.0297379 -0.0328449 0.019656
v 0.0412265 -0.0183174 0.0132801
v -0.0167509 -0.0354669 0.016352
v 0.040634 -0.013927 0.014226
v 0.0351011 -0.0273417 0.0159882
v 0.0346776 -0.0198226 0.0141461
v -0.0484354 0.0322764 0.0189211
v 0.0379594 0.00402379 0.0136415
v 0.036451 -0.017022 0.013813
v 0.034802 -0.017547 0.013774
v 0.037739 -0.015985 0.013977
v 0.0409387 0.0108775 0.0147898
v 0.037631 0.003832 0.013709
v 0.037551 0.003709 0.01373
v 0.03737 0.003702 0.013799
v 0.0390809 0.0122306 0.0138689
v 0.0373082 0.00342329 0.013794
v -0.0746436 -0.0179302 0.0185722
v 0.038666 -0.019866 0.014036
v 0.037081 0.003711 0.013989
v 0.038682 -0.0252288 0.014426
v 0.0370718 0.0045892 0.0138388
v -0.0298941 0.0535111 0.023095
v 0.036812 0.003763 0.014268
v -0.020333 -0.0327074 0.0190482
v 0.0368873 -0.0161191 0.0143712
v 0.039452 -0.020511 0.014255
v 0.037463 -0.015593 0.014088
v 0.037163 -0.014863 0.01421
v 0.036658 -0.016514 0.014129
v 0.036543 -0.016511 0.014216
v 0.037247 -0.015489 0.014164
v 0.037231 -0.015391 0.014171
v 0.0348338 -0.0169275 0.0141248
v 0.039048 -0.020231 0.014197
v 0.038739 -0.020082 0.014227
v 0.0362201 7.31425e-05 0.0147217
v 0.039142 -0.02028 0.014198
v 0.03924 -0.020373 0.014229
v 0.0394361 7.29513e-05 0.0141496
v 0.038002 -0.000824 0.014311
v 0.037072 -0.015271 0.014233
v 0.036614 -0.014407 0.014313
v 0.036438 -0.016507 0.014314
v 0.0359263 0.00276057 0.0142221
v 0.034357 0.003142 0.014914
v 0.037723 -0.0059 0.014326
v 0.037713 -0.01084 0.014337
v 0.037638 -0.010956 0.014341
v 0.037077 -0.006335 0.014409
v 0.036605 -0.009366 0.014367
v 0.041009 -0.0252831 0.0141794
v 0.03881 -0.020264 0.014404
v 0.037616 -0.00574 0.01433
v 0.037524 -0.005803 0.014346
v 0.036737 -0.004414 0.01435
v 0.0374673 -0.0106862 0.0143596
v 0.037552 -0.010971 0.014356
v 0.0362103 -0.0168573 0.0168518
v 0.037526 -0.001057 0.014339
v 0.037318 -0.005733 0.014386
v 0.037165 -0.010284 0.014383
v 0.037281 -0.0106 0.014398
v 0.037286 -0.011152 0.014384
v 0.0373 -0.001197 0.014377
v 0.037413 -0.001134 0.014355
v 0.037394 -0.011014 0.014377
v 0.037248 -0.011056 0.014421
v 0.036659 -0.011153 0.014706
v 0.03646 -0.009728 0.01448
v 0.038767 -0.020329 0.014521
v 0.0363644 -0.00219963 0.0144072
v 0.037081 -0.010471 0.014448
v 0.0349159 -0.00347372 0.0140652
v 0.038706 -0.020331 0.014616
v 0.037194 -0.010655 0.014439
v 0.0355304 -0.0143633 0.0141939
v 0.0363095 -0.0120149 0.0144733
v 0.036981 -0.00548 0.014475
v 0.036688 0.003522 0.014333
v 0.037096 -0.010722 0.014493
v 0.036971 -0.01042 0.014486
v 0.0349088 -0.00842391 0.013951
v 0.03616 -0.009893 0.014704
v 0.036902 -0.010348 0.014499
v 0.0370261 -0.0106405 0.0145151
v 0.037008 -0.00558 0.014491
v 0.036853 -0.001402 0.014535
v 0.036781 -0.005384 0.014556
v 0.036592 -0.000249 0.0145565
v 0.035121 -0.01656 0.017099
v 0.03677 -0.01135 0.01457
v 0.036705 -0.011302 0.014642
v 0.036721 -0.001365 0.014676
v 0.036706 -0.010373 0.01464
v 0.0333032 0.00453206 0.0214594
v 0.036089 -0.016541 0.014634
v 0.036633 -0.001461 0.014673
v 0.036658 -0.011265 0.014732
v 0.035994 -0.016554 0.014685
v 0.0383978 -0.0201463 0.0149569
v 0.0371055 -0.000852719 0.0145003
v 0.036365 -0.011439 0.01489
v 0.0363949 0.00335204 0.0150622
v 0.035893 -0.016564 0.014737
v 0.035874 0.003139 0.014726
v 0.0349272 -0.00192528 0.0160171
v 0.0363264 -0.00153574 0.0150111
v 0.036616 -0.010333 0.014694
v 0.036533 -0.010296 0.014745
v 0.0380355 0.0121888 0.0145346
v 0.0394856 -0.0216552 0.0150397
v 0.03428 -0.004987 0.015139
v 0.035924 -0.004992 0.014834
v 0.035766 0.003143 0.014772
v 0.035769 0.003169 0.014875
v 0.040647 -0.023392 0.015151
v 0.035843 -0.005027 0.014936
v 0.0348822 0.00525501 0.0138746
v 0.0410584 0.0226516 0.0210634
v 0.0340315 -0.027023 0.0180335
v 0.03577 -0.005057 0.015047
v 0.034194 0.009145 0.015311
v 0.0345236 -0.0118534 0.0153281
v 0.0378434 0.0108255 0.0152237
v 0.0399756 -0.0232307 0.015374
v 0.0359135 -0.011609 0.0151295
v 0.0384695 -0.0256368 0.0152822
v 0.031053 0.0030006 0.0219063
v 0.0257289 -0.0364411 0.0153963
v 0.03675 -0.00548393 0.0148465
v -0.0324186 -0.0291395 0.0244465
v 0.0366211 -0.0111885 0.0154056
v 0.0345579 -0.00684763 0.0177795
v -0.00668933 0.0518371 0.0210193
v -0.0100038 0.0602098 0.0177383
v -0.0228014 -0.0338017 0.0217903
v -0.094518 -0.0270402 0.0257938
v 0.02972 -0.033967 0.022677
v 0.0394624 -0.0204556 0.017627
v 0.0392508 -0.0225676 0.0160612
v -0.075133 0.0313818 0.0215571
v 0.0345164 0.00970804 0.0160068
v -0.0207535 -0.0310058 0.0189527
v -0.00624514 -0.0283003 0.0263269
v 0.020024 -0.036215 0.016422
v -0.0212757 -0.0328904 0.0206464
v 0.00279896 -0.0348373 0.0257737
v 0.000263161 -0.0364971 0.0209394
v -0.0218503 -0.0282886 0.0198891
v -0.0139086 -0.0290319 0.0261447
v -0.0079365 0.0532586 0.0189258
v -0.0539795 -0.0322669 0.016974
v 0.0361122 -0.0272662 0.0197469
v -0.0109408 0.061619 0.0197222
v -0.0192207 0.0517347 0.0285179
v 0.0390508 -0.0267816 0.0189505
v -0.0582217 0.0295045 0.018726
v 0.030079 -0.0302479 0.0196006
v -0.00389261 0.0604135 0.0201491
v 0.005556 0.051686 0.022255
v 0.040818 0.0149396 0.018371
v -0.0579606 -0.0249523 0.0246516
v -0.0382071 -0.0341286 0.0132357
v 0.02354 0.00963116 0.0298112
v 0.039092 -0.029791 0.01958
v 0.0386843 -0.0200851 0.0185594
v 0.0399303 -0.0272548 0.0189351
v 0.0313335 -0.0280377 0.0204966
v 0.029911 -0.028779 0.021057
v 0.0323356 -0.0329079 0.0196801
v -0.0763858 -0.0317923 0.0218445
v 0.00538554 0.0602576 0.0197795
v 0.0062563 0.0538001 0.0195006
v 0.036305 -0.026395 0.019315
v -0.0412307 0.0322657 0.0192363
v 0.00405776 0.0523102 0.0211244
v 0.00395 -0.036931 0.020608
v -0.0312001 -0.0255436 0.0239236
v 0.029461 -0.001836 0.023282
v -0.0164099 -0.0296544 0.0225831
v 0.037956 0.0248485 0.023471
v 0.0315412 -0.0311105 0.0200702
v -0.0594278 0.0183393 0.0281224
v -0.0748306 -0.0243822 0.0279353
v 0.0318839 -0.0155301 0.0233867
v -0.0376647 0.036758 0.0166822
v 0.0293564 -0.00185714 0.0257232
v 0.0312818 -0.0100414 0.0238699
v -0.00860423 -0.0320145 0.0268333
v 0.0136153 -0.0287879 0.0285306
v -0.00485804 -0.0327447 0.0285286
v -0.0376574 0.026517 0.0244822
v -0.0069336 -0.0336683 0.0296219
v 0.032516 0.0373262 0.0258743
v 0.004252 -0.032615 0.02787
v 0.0374249 0.0415676 0.0273942
v 0.0295511 0.00492521 0.0233609
v -0.00592925 0.0617181 0.0373815
v 0.0191388 0.0616484 0.0333533
v -0.000560723 -0.0359936 0.0283818
v 0.005604 -0.028326 0.028127
v 0.00472507 -0.0287957 0.0276711
v -0.0313986 0.0241446 0.0259518
v 0.0284759 -0.00972257 0.0256233
v 0.0306598 0.00478535 0.0247985
v 0.038909 0.022983 0.028217
v 0.0289197 -0.0274082 0.0235028
v -0.0763701 0.0272402 0.0272929
v -0.0925835 -0.0268822 0.0276801
v -0.0596309 -0.0105812 0.023864
v -0.0746111 0.00132829 0.0256486
v 0.0296218 0.00328971 0.0259597
v 0.0312966 0.041409 0.0297743
v 0.0334458 0.0237622 0.0279063
v 0.0339224 0.0116877 0.021987
v 0.0279119 -0.0149538 0.0277907
v 0.0138375 -0.033299 0.0282439
v 0.0299056 -0.00616819 0.0260717
v 0.00281343 0.0516876 0.0331336
v 0.0308377 -0.0114939 0.0246082
v -0.0407761 0.0246037 0.0303834
v 0.0361448 0.0179775 0.0278531
v 0.0297301 0.0131467 0.0333944
v 0.026355 -0.0129349 0.0273193
v -0.0289787 -0.0169865 0.0244861
v -0.00949285 -0.0282794 0.0297397
v -0.0291978 0.00834144 0.0245613
v -0.0294903 0.00368369 0.0258126
v -0.0296094 -0.00105301 0.0257262
v -0.0295891 -0.00968471 0.0240526
v -0.0296111 -0.0117599 0.0238327
v -0.0293535 -0.0163873 0.0276436
v -0.0222488 -0.0277027 0.030422
v -0.0578046 0.0238152 0.025666
v 0.0263506 0.0103364 0.0294185
v -0.0418857 0.0301609 0.0219817
v 0.0297949 -0.00495134 0.0230977
v 0.0385163 0.0226672 0.0196177
v -0.0230776 0.0538235 0.0298475
v -0.0415045 0.0541564 0.0231721
v -0.0380464 0.0419296 0.0259457
v 0.0211162 -0.0280112 0.0295676
v 0.0215718 -0.00700369 0.0314863
v -0.00896676 -0.0287965 0.02609
v -0.0295935 0.00500449 0.0261978
v 0.023254 -0.0262056 0.0295881
v -0.0296161 -0.0147647 0.0264386
v -0.0296071 -0.00674633 0.0236858
v 5.01403e-05 -0.0326023 0.0266486
v 0.0271595 0.00392772 0.0288706
v 0.0293722 -0.00515497 0.0266866
v 0.0356725 0.0247625 0.027241
v 0.029059 0.0115293 0.0280227
v -0.025613 -0.016586 0.027725
v -0.0750173 -0.00864707 0.0368549
v 0.0163457 -0.028591 0.0286388
v 0.027637 -0.0105 0.028279
v -0.0242537 0.0104969 0.0318399
v -0.0362049 0.0241706 0.0257686
v -0.033639 0.0237539 0.0275866
v -0.0294081 8.73767e-05 0.0240875
v -0.0285359 -0.0146859 0.025836
v -0.0295688 0.0117284 0.0278105
v -0.02963 -0.011237 0.02634
v 0.0389992 0.0478331 0.0392059
v -0.00420017 -0.0303953 0.0273047
v -0.0215464 -0.0263075 0.0309556
v -0.029576 0.017219 0.030644
v -0.029619 -0.010234 0.026481
v 0.0318883 -0.0172916 0.0207809
v -0.0228045 -0.00178998 0.0301735
v 0.0276981 -4.16819e-05 0.0279522
v -0.0358508 0.0254386 0.0276706
v -0.0591777 -0.0163035 0.0303528
v -0.024869 -0.0113841 0.0309824
v -0.0194933 0.0418351 0.0399905
v -0.005736 -0.031009 0.02818
v -0.0287554 0.0542848 0.0367375
v 0.0249861 -0.0159704 0.0308082
v -0.00396417 -0.0282935 0.0288228
v 0.0284795 -0.000594622 0.0274962
v -0.029542 -0.00658192 0.0267608
v -0.042315 0.023071 0.028973
v -0.0318166 0.0416257 0.0299806
v -0.00566205 -0.0287639 0.028105
v 0.00573433 -0.0310611 0.0273522
v -0.0295185 -0.00496662 0.0262197
v -0.0541226 0.0206237 0.0289272
v 0.028405 0.0129813 0.0322756
v -0.000456 -0.031029 0.028758
v -0.0538225 0.0238135 0.0285427
v -0.032484 0.0242336 0.0287562
v -0.0332413 0.0224015 0.0271321
v 0.0310877 0.0161174 0.0334329
v -0.0260914 -0.00997719 0.0298254
v -0.0926553 0.0278598 0.0269095
v -0.0166355 -0.00696579 0.0344884
v 0.030198 0.024478 0.030418
v 0.0314237 0.0245315 0.0294811
v -0.0285435 0.0616063 0.036551
v -0.0746733 0.0190758 0.0319316
v 0.0164863 0.00302305 0.0341162
v 0.0199408 -0.0148664 0.0341399
v 0.0237866 0.00470438 0.0315234
v -0.0220494 -0.0148732 0.0330716
v 0.0217491 -0.00640258 0.0331106
v -0.041516 0.0202587 0.0312526
v -0.0539274 -0.0223867 0.0286308
v 0.0259145 -0.00163313 0.0298179
v -0.0330498 -0.0245993 0.0293715
v 0.0260715 -0.0105211 0.0299368
v 0.0244808 0.011732 0.032251
v -0.0298476 0.0245049 0.0308901
v -0.0245151 0.0392026 0.0329919
v -0.0251741 -0.000152041 0.030738
v -0.023307 0.00322591 0.0319778
v -0.0260136 0.000261952 0.0285821
v 0.0115246 0.0478908 0.0361149
v -0.0587335 -0.00461886 0.0345012
v -0.0120402 0.0479302 0.0363117
v -0.0539491 -0.0135274 0.0326744
v 0.030244 0.024591 0.030379
v -0.0930472 0.0193379 0.0331959
v -0.0764106 -0.0212873 0.0321694
v 0.0166076 0.00517517 0.0352801
v -0.0407467 0.0198307 0.0327943
v -0.0229063 0.0616186 0.0299549
v -0.00745591 -0.0280106 0.0355994
v -0.024785 0.00381632 0.0311121
v 0.0159481 -0.00961804 0.0354119
v 0.0271924 0.0228979 0.0331988
v -0.0200069 0.00506162 0.0340807
v -0.093027 -0.0162689 0.0349644
v 0.001018 -0.03333 0.030409
v 0.029977 0.041596 0.031992
v -0.0269298 0.0229508 0.0335895
v -0.0244029 -0.00120257 0.0313904
v 0.0332151 0.0144454 0.0305746
v -0.0291583 0.0417155 0.0347155
v 0.0263584 3.51208e-05 0.0275939
v 0.00697264 -0.00185503 0.0391628
v -0.0238407 -0.00169613 0.031546
v 0.030132 0.024574 0.030492
v 0.029924 0.024595 0.030722
v -0.0119891 0.0052463 0.0368828
v 0.021796 0.00319214 0.0328581
v 0.029609 0.02466 0.031118
v 0.021354 -0.010353 0.033332
v 0.0233796 6.40323e-05 0.0316053
v 0.0168309 -0.0112532 0.0361316
v -0.0103216 0.00932779 0.0364506
v 0.0164172 -0.0264252 0.0337703
v 0.0254216 0.0415151 0.0341413
v 0.0348182 0.0208648 0.0335954
v -0.0264275 -0.0241467 0.0309418
v -0.0213351 -0.00489336 0.0332691
v -0.0195181 -0.00985787 0.0345371
v -0.0247814 -0.0161901 0.0311801
v -0.0417601 0.0156922 0.0337247
v -0.023671 -0.021139 0.034057
v -0.094201 -0.01603 0.033662
v -0.0595579 0.00215036 0.0331523
v 0.0288169 0.0242212 0.0321224
v 0.0104975 -0.0167682 0.0365665
v -0.0584428 0.0125935 0.0324565
v -0.00737324 0.0353001 0.0322249
v 0.00783697 0.0358466 0.032091
v 0.00467508 0.0439209 0.0327118
v -0.0766711 0.0165965 0.0350855
v -0.0575346 0.00906347 0.0339396
v -0.018309 -0.011321 0.035237
v 0.0194729 -0.0165915 0.0342855
v 0.007391 0.036841 0.039879
v 0.00714584 0.0408558 0.041623
v -0.00768837 0.0390372 0.040391
v -0.0300574 0.0614647 0.0362565
v 0.0112943 -0.0117328 0.0380586
v -0.0146611 -0.0268557 0.0345168
v -0.019991 0.000281513 0.0336272
v 0.0184047 -0.00119678 0.0351756
v -0.006544 0.041658 0.042221
v 0.00693498 -0.0280229 0.035719
v 0.00409317 0.0445363 0.0469704
v -0.0282804 0.0245364 0.0340227
v 0.0199864 0.0102553 0.0345975
v -0.02031 0.012243 0.035216
v -0.00476659 0.0439639 0.0469146
v -0.053845 0.007204 0.035986
v 0.0281322 0.0246841 0.0344115
v -0.00434257 0.0449852 0.0329295
v -0.0198492 -0.00191133 0.0337808
v -0.0135472 0.00303788 0.0359579
v -0.0178934 -0.0117236 0.03351
v -0.0126541 -0.0144148 0.035923
v -0.075197 0.00855617 0.0367425
v -0.0142095 -0.00452411 0.0356056
v -0.000725 0.045436 0.047088
v 0.012333 -0.001938 0.035621
v -0.0189223 0.00424023 0.0350375
v -0.0161435 -0.0167416 0.0359526
v 0.0279046 0.0416047 0.0372755
v -0.0202216 -0.0059708 0.0343522
v -0.0182352 -0.0172797 0.0371302
v 0.0199831 -0.00502566 0.0341215
v -0.0539673 0.009216 0.034142
v 0.0328808 0.0193665 0.033692
v -0.057461 -0.003696 0.034918
v -0.0155106 0.0371016 0.0376903
v 0.0164585 0.00325524 0.0359884
v -0.00940661 -0.00974672 0.0386303
v -0.076803 -0.01418 0.035846
v -0.0133227 -0.011604 0.0373208
v 0.0108244 -0.00700408 0.0367149
v 0.00810406 -0.0260652 0.0368072
v 0.0134805 -0.0135665 0.0352123
v -0.0574864 0.00137916 0.0351304
v 0.027954 0.0208601 0.0375506
v 0.0262142 0.0231589 0.0343339
v -0.01663 -0.015208 0.036073
v -0.0129115 0.00315408 0.0373062
v 0.0268099 0.0249612 0.0364726
v 0.012381 -0.016692 0.037287
v -0.006691 0.047949 0.046558
v 0.014174 0.009831 0.036436
v -0.0545625 -0.00973048 0.034726
v -0.015172 -0.000392 0.036682
v -0.00873172 -0.00670603 0.038559
v -0.012751 -0.00963052 0.0359975
v 0.013914 0.00484 0.036961
v -0.026216 0.041718 0.038299
v 0.0149826 -0.00462699 0.0356653
v 0.00741863 -0.00791394 0.0370288
v 0.00628159 -0.0118492 0.0372665
v 0.013831 -0.000246 0.03709
v 0.0134252 -0.0147569 0.0371286
v 0.034353 0.021927 0.0362172
v 0.0113255 -0.00658867 0.0379934
v -0.092464 -0.010682 0.037037
v -0.020394 0.022576 0.037751
v -0.014765 -0.005167 0.03681
v -0.0391331 0.0123773 0.036053
v 0.0264142 0.0125534 0.0363689
v -0.0538144 -0.00799061 0.0361159
v -0.00340263 -0.026684 0.03749
v -0.0127473 -0.00508073 0.0377433
v -0.0158393 0.0112159 0.037255
v -0.00955905 -0.0168685 0.0371093
v -0.0926152 0.0125143 0.0366062
v -0.0206903 0.0236235 0.0382702
v -0.0940764 -0.0031477 0.0374268
v -0.016458 0.0100909 0.036135
v -0.00160189 0.000270112 0.0394381
v 0.0187623 0.0231866 0.0388755
v -0.016546 0.041471 0.03901
v 0.0139381 0.0112558 0.0379745
v -0.0929726 0.0053368 0.0380959
v -0.0374671 -0.00856764 0.0365601
v -0.0271965 0.0250156 0.0361703
v 0.0251417 0.0251866 0.0376831
v -0.0402708 0.041766 0.0371456
v -0.0382569 0.0133119 0.0369785
v -0.0395508 0.00626014 0.0368309
v -0.076701 0.005739 0.038156
v -0.0925601 -0.00371058 0.0384522
v -0.00531211 -0.0071239 0.0378664
v -0.00565801 -0.0121023 0.0378137
v -0.011542 -0.0102006 0.038043
v -0.0127694 -0.0162772 0.0375871
v 0.01118 -0.010173 0.038013
v 0.003912 -0.009564 0.037521
v 0.011187 0.004616 0.037996
v 0.036353 0.023854 0.037989
v 0.00961164 0.00540039 0.0368339
v -0.004341 -0.001958 0.037431
v 0.0027335 -0.00335898 0.0375651
v 0.0385903 0.0258853 0.0373811
v 0.0017721 -0.0143332 0.0382189
v 0.00351463 -0.00458276 0.0390897
v -0.025107 0.024783 0.037398
v 0.00687637 0.00123457 0.0372083
v 0.019458 0.009564 0.039421
v -0.025143 0.02555 0.037772
v 0.000841454 0.00305874 0.0394172
v 0.000649281 -0.00686044 0.0394256
v -0.0126807 -0.000819599 0.0377894
v 0.00812096 0.0091817 0.0373174
v -0.004605 -0.014567 0.039085
v -0.00579348 0.00317468 0.0391067
v -0.00314909 -0.00382699 0.0374952
v 0.004648 -0.01676 0.038924
v -0.000516 0.009138 0.037629
v -0.00699811 0.0050623 0.0389503
v 0.00290533 0.0479307 0.0470531
v 0.0103647 -0.000573135 0.0384429
v -0.000104 0.00523 0.039227
v 0.00384522 -0.00531286 0.0397598
v -0.00219404 0.000337518 0.0377079
v -0.00697772 -0.00681761 0.0431555
v -0.00373464 -0.00200141 0.039315
v 0.01159 -0.0161524 0.038039
v 0.00343776 -0.00223253 0.0384249
v 0.00903722 0.00341075 0.0386711
v -0.003401 -0.004036 0.039072
v 0.003149 -0.003949 0.039043
v -0.003297 -0.002624 0.039436
v 0.00892038 -0.00963166 0.0383612
v -0.0360205 0.0417568 0.0406281
v 0.0371775 0.0256376 0.0387489
v -7e-05 -0.006827 0.039616
v -0.007903 -0.016219 0.038924
v -0.011402 -0.012063 0.039628
v -0.0761862 -0.00265936 0.0384194
v -0.0106158 -0.0149779 0.0382994
v -0.005553 0.009827 0.039015
v 0.0172488 0.040996 0.0380036
v 0.0193461 0.0234014 0.0419568
v 0.020933 0.010925 0.039699
v -0.006468 -0.001335 0.039164
v 0.005955 -0.014936 0.039163
v 0.005978 0.004638 0.039184
v -0.00462443 -0.0114328 0.0394351
v 0.00634329 -0.0152803 0.0392527
v -0.00325291 -0.00077978 0.0396183
v -0.00965498 0.00453646 0.0387268
v 0.023579 0.02394 0.040846
v -0.00702798 0.0117597 0.0400488
v 0.002986 -0.000126 0.039517
v -0.0043037 0.00970796 0.0396572
v 0.00306723 -0.0017955 0.0394585
v 0.002527 -0.006376 0.039591
v -0.00656594 0.0416324 0.0423908
v 0.037521 0.041604 0.04004
v -0.00302713 -0.00552181 0.0396299
v 0.000980167 0.00487156 0.0395917
v -0.00340364 -0.0159113 0.0396937
v -0.003761 -0.004541 0.039131
v -0.0038196 -0.0046206 0.0391186
v -0.00152 -0.006678 0.039487
v 0.00282419 -0.00987585 0.0395399
v -0.003404 -0.004359 0.039408
v -0.003364 -0.003923 0.039424
v 0.003117 -0.004001 0.039466
v -0.003343 -0.00387 0.039507
v -0.003359 -0.003728 0.03942
v 0.0012751 -0.0154747 0.0400215
v -0.00017549 -0.0113154 0.0398094
v 0.001207 -0.006515 0.039606
v -0.001084 0.003405 0.039594
v 0.003078 -0.00411 0.0395
v 0.003054 -0.004499 0.03947
v -0.00563525 -0.00583813 0.0394075
v -0.00145 -0.00046 0.039601
v 0.003035 -0.004314 0.039513
v 0.001274 -0.006665 0.039492
v 0.002992 -0.004432 0.039517
v 0.001284 -0.006581 0.039549
v -0.001531 -0.006532 0.039572
v 0.001381 -0.006545 0.039553
v -0.001533 -0.006434 0.039607
v -0.000481 -0.000292 0.039624
v -0.00011 -0.000269 0.03963
v 0.00026 -0.000302 0.039621
v -0.00897793 -0.00964333 0.0419179
v 0.00365863 0.0115152 0.0406694
v 0.0160227 0.00831284 0.0415744
v 0.0116537 0.0416728 0.0420295
v -0.00581213 0.0326 0.0429768
v 0.00622321 0.00236374 0.0417188
v 0.00648 0.041675 0.046712
v -0.006523 0.041701 0.04674
v 0.00915 0.041668 0.04613
v 0.014095 0.008104 0.042475
v 0.00478276 0.0310968 0.0430836
v 0.0090728 0.00460615 0.04343
v -0.00778426 0.0375905 0.04517
v -0.0042466 -0.00509488 0.0436004
v 0.00741136 0.0349951 0.0459749
v 0.0067687 0.0415424 0.0428391
v -0.00365971 0.0310033 0.0462446
v 0.0021 0.030716 0.046247
v 0.00263652 0.000293166 0.0441045
f 90 2 3
f 2 1 3
f 90 7 2
f 6 30 2
f 30 1 2
f 1 4 3
f 4 9 3
f 9 5 3
f 5 90 3
f 8 5 9
f 22 19 10
f 12 90 5
f 8 12 5
f 2 16 6
f 4 13 9
f 13 8 9
f 25 22 10
f 25 10 6
f 10 14 6
f 11 14 10
f 13 11 10
f 19 13 10
f 4 11 13
f 18 25 6
f 36 7 90
f 7 15 2
f 15 16 2
f 13 12 8
f 16 17 6
f 17 18 6
f 21 19 22
f 28 21 11
f 21 32 11
f 20 13 19
f 32 14 11
f 14 32 6
f 4 28 11
f 24 28 4
f 20 23 13
f 25 145 22
f 22 32 21
f 39 40 6
f 28 19 21
f 1 26 4
f 23 12 13
f 19 28 20
f 113 39 6
f 32 113 6
f 145 32 22
f 119 23 20
f 40 30 6
f 43 28 24
f 26 29 4
f 1 31 26
f 33 34 146
f 4 29 24
f 37 35 33
f 23 162 12
f 17 27 18
f 113 141 39
f 35 34 33
f 44 146 38
f 41 37 33
f 146 44 33
f 149 146 34
f 42 41 33
f 40 149 34
f 1132 30 34
f 30 40 34
f 35 1132 34
f 44 26 33
f 26 42 33
f 31 42 26
f 29 43 24
f 39 149 40
f 146 45 38
f 48 47 46
f 47 50 46
f 26 143 29
f 50 51 46
f 79 52 46
f 52 53 46
f 53 48 46
f 54 51 50
f 55 56 50
f 56 54 50
f 53 57 48
f 54 58 51
f 58 100 51
f 100 59 51
f 59 60 51
f 55 54 56
f 51 88 46
f 162 61 12
f 58 54 56
f 55 58 56
f 50 58 55
f 93 84 68
f 50 64 58
f 64 65 58
f 66 48 57
f 47 64 50
f 75 129 51
f 88 69 46
f 60 75 51
f 65 70 58
f 71 57 53
f 71 66 57
f 64 72 65
f 73 66 57
f 60 74 75
f 47 72 64
f 47 48 66
f 73 47 66
f 52 71 53
f 71 73 66
f 70 87 58
f 64 70 65
f 72 70 64
f 74 60 75
f 76 136 49
f 80 90 12
f 61 80 12
f 47 70 72
f 71 47 73
f 60 81 75
f 82 79 46
f 79 89 52
f 81 83 75
f 58 94 100
f 69 82 46
f 136 63 49
f 83 85 75
f 49 63 111
f 81 85 83
f 87 94 58
f 75 109 129
f 105 62 78
f 67 105 78
f 60 83 81
f 92 62 105
f 117 92 105
f 129 88 51
f 98 85 83
f 98 75 85
f 91 109 75
f 60 98 83
f 131 71 52
f 98 91 75
f 86 124 84
f 59 98 60
f 96 79 82
f 123 70 47
f 71 123 47
f 38 97 44
f 91 99 109
f 102 96 82
f 59 91 98
f 96 102 79
f 102 103 96
f 99 104 109
f 82 103 102
f 91 104 99
f 82 106 103
f 107 109 104
f 99 107 104
f 107 59 109
f 69 106 82
f 103 79 102
f 91 107 104
f 162 156 61
f 108 17 16
f 94 59 100
f 106 79 103
f 84 123 86
f 128 105 67
f 59 107 91
f 112 101 88
f 78 95 67
f 92 78 62
f 165 111 63
f 84 110 68
f 101 69 88
f 111 114 49
f 89 131 52
f 114 76 49
f 118 89 79
f 106 122 79
f 44 143 26
f 129 112 88
f 93 123 84
f 136 165 63
f 123 87 70
f 110 93 68
f 95 128 67
f 131 123 71
f 32 259 113
f 145 25 18
f 77 145 18
f 76 121 136
f 122 106 69
f 92 158 78
f 125 109 59
f 118 202 89
f 144 84 124
f 126 110 84
f 125 129 109
f 171 76 114
f 218 43 29
f 227 153 120
f 132 112 129
f 170 69 101
f 122 118 79
f 202 131 89
f 259 32 145
f 97 134 44
f 133 94 87
f 123 124 86
f 144 126 84
f 134 97 38
f 214 259 145
f 92 38 45
f 137 120 153
f 123 228 87
f 127 28 43
f 108 139 17
f 201 168 43
f 211 117 105
f 130 211 105
f 153 138 135
f 207 123 93
f 28 119 20
f 237 389 140
f 139 108 16
f 165 110 111
f 141 142 39
f 135 137 153
f 123 185 124
f 110 126 111
f 94 125 59
f 155 227 120
f 126 116 111
f 76 187 148
f 148 121 76
f 78 147 95
f 142 149 39
f 128 132 105
f 132 130 105
f 110 165 93
f 121 188 136
f 218 201 43
f 207 93 152
f 602 36 90
f 151 133 87
f 167 129 125
f 233 120 137
f 154 153 227
f 168 127 43
f 122 202 118
f 171 187 76
f 117 38 92
f 132 128 112
f 207 228 123
f 165 152 93
f 151 94 133
f 216 45 146
f 158 147 78
f 119 159 23
f 159 150 23
f 170 122 69
f 115 218 29
f 117 134 38
f 233 155 120
f 214 18 27
f 164 119 28
f 167 132 129
f 124 166 144
f 161 550 160
f 202 169 131
f 112 170 101
f 111 171 114
f 173 171 111
f 147 158 95
f 162 23 150
f 159 163 150
f 225 255 94
f 143 115 29
f 158 174 95
f 175 188 148
f 188 121 148
f 176 169 202
f 177 90 80
f 178 177 80
f 61 178 80
f 180 146 149
f 116 173 111
f 127 164 28
f 181 602 90
f 177 181 90
f 15 179 16
f 156 184 61
f 184 178 61
f 179 182 16
f 182 139 16
f 228 225 87
f 206 143 44
f 281 7 140
f 389 281 140
f 281 15 7
f 332 161 160
f 209 332 160
f 134 206 44
f 169 123 131
f 197 27 17
f 243 176 202
f 180 210 146
f 187 236 148
f 236 183 148
f 141 200 142
f 157 175 148
f 225 94 151
f 166 285 144
f 285 126 144
f 186 209 160
f 550 186 160
f 183 157 148
f 293 128 95
f 255 125 94
f 189 190 138
f 190 191 138
f 191 192 138
f 192 135 138
f 902 189 138
f 210 216 146
f 225 151 87
f 135 194 137
f 196 227 155
f 182 197 139
f 230 162 150
f 197 17 139
f 136 193 198
f 194 233 137
f 154 195 153
f 165 213 152
f 188 193 136
f 125 199 167
f 214 77 18
f 162 230 156
f 197 214 27
f 259 241 113
f 112 203 170
f 113 200 141
f 153 195 138
f 174 293 95
f 205 203 112
f 169 185 123
f 293 112 128
f 170 202 122
f 198 165 136
f 232 196 155
f 195 902 138
f 293 276 112
f 77 214 145
f 208 204 163
f 159 208 163
f 209 237 140
f 7 36 140
f 36 209 140
f 204 226 163
f 212 177 178
f 184 212 178
f 210 180 149
f 222 163 226
f 171 236 187
f 233 232 155
f 216 92 45
f 135 217 194
f 219 150 163
f 185 166 124
f 208 226 204
f 241 200 113
f 119 220 159
f 112 221 205
f 172 206 134
f 243 169 176
f 239 168 201
f 218 239 201
f 159 223 208
f 213 207 152
f 193 188 198
f 224 211 130
f 132 224 130
f 165 291 213
f 126 173 116
f 276 221 112
f 249 359 229
f 216 158 92
f 192 231 135
f 400 149 142
f 228 255 225
f 30 229 1
f 245 216 210
f 217 233 194
f 197 234 214
f 1131 41 42
f 235 1131 42
f 31 235 42
f 1132 334 30
f 186 237 209
f 36 332 209
f 183 238 157
f 229 31 1
f 334 229 30
f 242 286 169
f 242 169 243
f 389 563 281
f 240 171 173
f 256 226 208
f 245 210 149
f 219 163 222
f 220 223 159
f 318 117 211
f 247 165 198
f 115 239 218
f 248 249 229
f 334 248 229
f 1132 250 334
f 200 241 142
f 266 127 168
f 239 266 168
f 277 228 207
f 219 230 150
f 234 251 214
f 143 282 115
f 188 247 198
f 252 132 167
f 205 170 203
f 254 211 224
f 291 207 213
f 216 314 158
f 271 167 199
f 175 317 188
f 266 239 115
f 270 266 115
f 318 134 117
f 246 277 207
f 132 254 224
f 244 259 214
f 256 222 226
f 260 285 166
f 257 127 266
f 258 257 266
f 260 166 185
f 202 261 243
f 361 216 245
f 262 400 142
f 241 262 142
f 219 184 230
f 351 263 158
f 643 265 183
f 173 347 240
f 158 293 174
f 263 293 158
f 265 275 183
f 378 258 266
f 360 31 229
f 360 235 31
f 165 267 291
f 317 298 188
f 550 268 186
f 230 184 156
f 261 202 170
f 267 165 247
f 127 119 164
f 274 902 195
f 196 683 227
f 346 270 115
f 339 233 217
f 154 331 195
f 268 269 186
f 251 244 214
f 298 253 188
f 282 346 115
f 257 298 127
f 298 312 127
f 391 241 259
f 547 237 186
f 269 639 186
f 639 547 186
f 643 275 265
f 275 238 183
f 258 143 206
f 215 254 132
f 125 271 199
f 278 266 270
f 236 279 183
f 280 643 183
f 279 280 183
f 274 195 331
f 182 234 197
f 241 301 262
f 319 208 223
f 283 284 294
f 278 326 266
f 135 287 217
f 185 285 260
f 276 205 221
f 243 286 242
f 288 294 284
f 172 258 206
f 313 278 270
f 119 289 220
f 289 370 220
f 370 431 220
f 290 283 294
f 288 295 294
f 297 132 252
f 271 252 167
f 351 293 263
f 272 211 254
f 246 207 291
f 273 188 253
f 161 300 550
f 355 466 285
f 353 279 236
f 171 353 236
f 378 143 258
f 378 282 143
f 126 347 173
f 220 319 223
f 299 304 228
f 258 272 257
f 273 298 257
f 271 299 257
f 291 273 257
f 299 291 257
f 272 271 257
f 302 301 241
f 314 351 158
f 332 300 161
f 303 305 283
f 306 255 228
f 304 306 228
f 307 296 292
f 308 360 229
f 359 308 229
f 231 287 135
f 127 289 119
f 337 307 292
f 311 331 154
f 391 302 241
f 290 303 283
f 283 309 284
f 309 310 284
f 310 288 284
f 346 313 270
f 312 348 127
f 297 215 132
f 390 309 283
f 301 302 262
f 264 185 169
f 349 290 294
f 310 384 288
f 384 295 288
f 371 292 296
f 365 259 244
f 347 126 285
f 312 317 175
f 466 347 285
f 219 343 184
f 227 311 154
f 305 390 283
f 157 320 175
f 320 312 175
f 298 273 253
f 343 325 184
f 394 600 292
f 371 394 292
f 306 125 255
f 277 299 228
f 307 295 296
f 313 326 278
f 295 315 294
f 215 272 254
f 272 318 211
f 273 247 188
f 182 251 234
f 134 318 172
f 431 319 220
f 418 371 296
f 315 295 307
f 256 682 222
f 321 256 208
f 319 321 208
f 222 322 219
f 299 277 291
f 418 296 295
f 384 418 295
f 277 246 291
f 272 252 271
f 258 172 272
f 326 378 266
f 316 323 205
f 323 170 205
f 602 332 36
f 184 325 212
f 379 322 222
f 171 327 353
f 339 232 233
f 683 401 227
f 271 304 299
f 327 171 240
f 326 313 346
f 328 271 125
f 306 328 125
f 215 297 272
f 297 252 272
f 306 304 271
f 267 247 291
f 247 273 291
f 172 318 272
f 262 416 400
f 330 339 217
f 333 343 219
f 329 262 302
f 359 528 308
f 407 249 248
f 600 344 292
f 323 261 170
f 391 329 302
f 437 324 344
f 600 437 344
f 335 349 294
f 315 335 294
f 337 336 307
f 251 365 244
f 275 338 238
f 185 355 285
f 232 256 196
f 243 411 286
f 342 411 243
f 316 205 276
f 561 326 346
f 356 240 341
f 682 379 222
f 347 341 240
f 345 434 293
f 331 571 274
f 328 306 271
f 317 312 298
f 356 327 240
f 429 361 245
f 351 345 293
f 648 177 393
f 648 181 177
f 212 393 177
f 336 315 307
f 561 378 326
f 261 342 243
f 348 289 127
f 353 280 279
f 350 276 293
f 571 902 274
f 351 314 216
f 157 443 320
f 338 443 238
f 443 157 238
f 431 399 319
f 344 423 292
f 423 337 292
f 324 423 344
f 340 316 276
f 327 309 353
f 264 355 185
f 311 565 331
f 320 357 312
f 411 169 286
f 350 340 276
f 358 290 349
f 232 682 256
f 256 321 196
f 321 683 196
f 441 351 216
f 383 643 280
f 259 376 391
f 627 348 312
f 357 627 312
f 287 231 217
f 362 15 281
f 563 363 281
f 363 362 281
f 364 245 149
f 354 376 259
f 401 311 227
f 309 367 353
f 368 395 353
f 367 368 353
f 395 280 353
f 305 369 390
f 354 259 365
f 379 366 219
f 322 379 219
f 364 149 400
f 395 383 280
f 372 563 389
f 249 373 359
f 441 216 361
f 374 315 336
f 352 300 332
f 182 365 251
f 329 376 262
f 373 382 389
f 373 375 359
f 327 425 309
f 290 380 303
f 386 369 305
f 382 372 389
f 375 428 359
f 425 384 309
f 282 385 346
f 384 310 309
f 303 386 305
f 387 416 262
f 376 387 262
f 377 386 303
f 388 356 341
f 380 377 303
f 376 329 391
f 249 407 373
f 347 388 341
f 711 965 275
f 643 711 275
f 364 429 245
f 418 394 371
f 376 354 387
f 390 367 309
f 423 392 337
f 395 425 327
f 396 416 387
f 428 375 373
f 389 428 373
f 343 212 325
f 428 381 359
f 403 395 327
f 354 396 387
f 408 383 395
f 212 343 393
f 429 397 361
f 217 398 330
f 333 393 343
f 333 560 393
f 547 389 237
f 366 333 219
f 441 345 351
f 381 528 359
f 564 568 339
f 624 394 418
f 337 374 336
f 231 192 217
f 192 398 217
f 565 571 331
f 397 441 361
f 400 405 364
f 354 365 396
f 320 627 357
f 402 404 338
f 327 409 403
f 547 428 389
f 407 406 373
f 250 608 334
f 608 248 334
f 368 425 395
f 631 232 339
f 410 631 339
f 564 339 330
f 401 565 311
f 390 425 367
f 413 460 316
f 395 414 408
f 365 416 396
f 409 414 403
f 417 384 425
f 417 418 384
f 403 414 395
f 419 422 356
f 264 412 355
f 465 475 411
f 342 465 411
f 340 413 316
f 420 419 356
f 388 420 356
f 421 169 411
f 415 421 411
f 460 323 316
f 373 372 382
f 406 372 373
f 424 179 15
f 362 424 15
f 422 531 356
f 399 615 319
f 470 370 289
f 624 600 394
f 425 368 367
f 358 380 290
f 486 426 345
f 385 603 346
f 562 349 335
f 261 465 342
f 703 560 333
f 470 485 370
f 485 430 370
f 430 431 370
f 421 415 169
f 415 264 169
f 615 321 319
f 426 433 434
f 348 470 289
f 345 426 434
f 441 486 345
f 392 566 337
f 434 350 293
f 415 412 264
f 593 352 332
f 602 593 332
f 435 358 349
f 406 427 372
f 436 327 356
f 438 383 408
f 315 439 335
f 603 561 346
f 327 440 409
f 436 440 327
f 275 402 338
f 429 441 397
f 443 404 320
f 414 438 408
f 444 414 409
f 445 441 429
f 566 374 337
f 442 448 409
f 432 445 429
f 448 444 409
f 438 643 383
f 450 416 365
f 662 349 562
f 440 442 409
f 446 452 414
f 452 447 414
f 451 615 399
f 464 441 445
f 449 483 414
f 456 466 355
f 444 449 414
f 432 464 445
f 965 402 275
f 412 453 355
f 453 456 355
f 494 446 414
f 483 494 414
f 662 435 349
f 568 410 339
f 412 456 453
f 440 448 442
f 457 630 324
f 358 435 324
f 435 457 324
f 437 386 324
f 386 380 324
f 380 358 324
f 459 458 437
f 369 386 437
f 458 369 437
f 386 377 380
f 323 460 261
f 494 417 425
f 461 456 453
f 462 463 412
f 412 461 456
f 472 434 433
f 501 429 364
f 448 449 444
f 420 422 419
f 350 467 340
f 425 446 494
f 419 468 420
f 468 422 420
f 466 388 347
f 554 469 470
f 469 485 470
f 388 468 420
f 471 473 412
f 473 462 412
f 466 474 388
f 473 463 462
f 425 452 446
f 518 415 411
f 476 413 340
f 433 477 472
f 467 478 340
f 479 340 478
f 447 452 425
f 627 455 348
f 454 516 448
f 461 480 456
f 462 480 463
f 480 412 463
f 388 422 468
f 482 479 478
f 467 479 478
f 464 486 441
f 426 477 433
f 412 480 461
f 456 480 466
f 433 484 472
f 484 434 472
f 462 473 480
f 477 484 433
f 467 482 479
f 474 422 388
f 482 340 479
f 511 473 471
f 379 333 366
f 431 451 399
f 513 487 412
f 473 488 480
f 458 894 369
f 482 476 340
f 426 484 477
f 471 489 473
f 490 491 487
f 490 412 487
f 489 488 473
f 492 467 350
f 490 471 412
f 511 489 471
f 548 454 448
f 440 548 448
f 513 490 487
f 448 483 449
f 495 496 413
f 497 489 488
f 498 499 470
f 499 500 470
f 500 554 470
f 501 432 429
f 554 502 485
f 502 503 485
f 503 510 485
f 467 476 482
f 491 471 490
f 499 493 470
f 491 490 513
f 411 504 518
f 505 480 488
f 489 505 488
f 496 506 413
f 507 495 496
f 508 504 411
f 509 505 489
f 497 509 489
f 413 506 460
f 511 512 489
f 512 497 489
f 460 465 261
f 513 412 415
f 470 498 493
f 499 470 493
f 495 506 496
f 514 508 504
f 497 509 505
f 413 507 495
f 514 475 411
f 475 508 411
f 512 509 497
f 507 506 495
f 475 514 411
f 511 497 512
f 515 518 504
f 508 515 504
f 509 480 505
f 513 471 491
f 475 514 508
f 507 517 506
f 475 515 508
f 512 480 509
f 413 517 507
f 480 527 466
f 519 520 413
f 476 519 413
f 541 486 464
f 522 517 413
f 520 522 413
f 523 531 422
f 492 476 467
f 519 522 520
f 471 512 511
f 484 350 434
f 524 522 519
f 475 525 521
f 526 512 471
f 524 522 520
f 521 515 475
f 526 512 511
f 512 527 480
f 510 430 485
f 527 474 466
f 527 471 513
f 506 465 460
f 521 525 515
f 492 519 476
f 529 525 475
f 501 464 432
f 518 513 415
f 529 521 525
f 515 530 518
f 529 515 525
f 524 517 522
f 422 531 523
f 470 499 498
f 526 527 512
f 518 530 513
f 519 517 524
f 471 527 526
f 506 517 465
f 530 527 513
f 475 530 529
f 530 475 465
f 529 530 515
f 532 533 519
f 533 517 519
f 492 532 519
f 517 530 465
f 534 530 517
f 535 533 532
f 492 533 532
f 492 535 533
f 533 534 517
f 534 527 530
f 535 534 533
f 492 534 535
f 541 534 492
f 536 531 523
f 536 531 422
f 350 541 492
f 474 537 422
f 481 541 464
f 356 531 436
f 484 541 350
f 536 538 531
f 348 499 470
f 539 422 537
f 540 539 537
f 516 483 448
f 474 539 537
f 422 538 536
f 560 648 393
f 542 422 539
f 540 542 539
f 474 540 539
f 531 440 436
f 548 543 527
f 546 527 534
f 541 546 534
f 516 494 483
f 474 542 540
f 501 481 464
f 542 545 422
f 426 541 484
f 545 542 474
f 545 538 422
f 527 545 474
f 546 548 527
f 527 543 545
f 544 426 486
f 543 538 545
f 548 538 543
f 417 667 418
f 531 548 440
f 557 501 364
f 426 544 541
f 427 563 372
f 428 604 381
f 604 528 381
f 469 554 485
f 631 682 232
f 548 516 454
f 549 510 503
f 300 616 550
f 549 430 510
f 469 551 554
f 551 485 554
f 405 619 364
f 538 548 531
f 503 552 549
f 552 430 549
f 553 627 320
f 502 549 503
f 541 544 486
f 502 552 549
f 551 554 485
f 554 500 499
f 556 500 554
f 499 556 554
f 556 555 554
f 552 502 430
f 348 558 499
f 567 494 516
f 481 559 541
f 558 554 499
f 554 555 499
f 555 556 499
f 439 562 335
f 559 548 546
f 541 559 546
f 404 553 320
f 667 624 418
f 604 428 547
f 557 584 501
f 548 559 516
f 678 565 401
f 584 481 501
f 455 577 348
f 577 558 348
f 502 573 430
f 558 502 554
f 398 564 330
f 569 570 558
f 570 502 558
f 583 567 516
f 430 574 431
f 574 611 431
f 611 629 431
f 570 569 502
f 502 572 573
f 573 574 430
f 569 572 570
f 569 572 502
f 569 573 572
f 559 583 516
f 414 647 438
f 577 569 558
f 596 557 364
f 338 404 443
f 647 643 438
f 965 575 402
f 576 374 566
f 447 647 414
f 455 641 577
f 578 569 577
f 578 573 569
f 579 580 577
f 641 579 577
f 581 573 578
f 582 581 578
f 577 581 578
f 582 605 573
f 573 581 582
f 580 605 577
f 577 605 582
f 581 577 582
f 584 559 481
f 573 585 574
f 586 585 573
f 605 586 573
f 619 405 400
f 416 619 400
f 694 425 390
f 567 417 494
f 649 643 647
f 576 315 374
f 586 588 585
f 596 584 557
f 586 589 588
f 586 585 588
f 590 591 587
f 579 605 580
f 579 592 605
f 586 585 589
f 585 586 589
f 594 595 585
f 595 574 585
f 324 630 423
f 630 392 423
f 580 592 579
f 586 597 585
f 594 598 595
f 594 574 595
f 597 598 585
f 601 592 579
f 594 585 598
f 605 592 601
f 597 594 598
f 594 597 574
f 459 437 600
f 379 628 333
f 615 451 431
f 404 599 553
f 641 601 579
f 179 365 182
f 599 627 553
f 378 606 282
f 670 360 308
f 607 653 248
f 653 407 248
f 608 607 248
f 670 235 360
f 559 693 583
f 611 574 597
f 601 610 605
f 694 644 425
f 641 610 601
f 596 609 584
f 590 612 591
f 612 587 591
f 613 571 565
f 561 606 378
f 586 611 597
f 369 694 390
f 614 605 610
f 614 586 605
f 364 645 596
f 401 746 678
f 586 621 611
f 668 562 439
f 315 576 439
f 576 668 439
f 683 746 401
f 618 611 621
f 614 621 586
f 609 617 584
f 352 616 300
f 617 559 584
f 610 621 614
f 678 613 565
f 567 622 417
f 622 667 417
f 623 621 610
f 639 604 547
f 623 610 641
f 625 618 621
f 625 621 623
f 629 611 618
f 407 653 406
f 427 363 563
f 653 427 406
f 612 590 587
f 560 660 648
f 628 703 333
f 402 599 404
f 635 629 618
f 625 635 618
f 703 660 560
f 623 626 625
f 625 626 635
f 671 645 364
f 321 632 683
f 615 632 321
f 633 634 626
f 634 635 626
f 450 365 179
f 282 603 385
f 583 622 567
f 666 622 583
f 636 603 282
f 561 636 282
f 596 617 609
f 637 629 635
f 635 638 637
f 693 666 583
f 450 669 416
f 620 362 363
f 633 638 634
f 638 635 634
f 654 564 398
f 635 629 637
f 623 646 626
f 646 633 626
f 654 568 564
f 191 677 398
f 192 191 398
f 633 635 638
f 654 410 568
f 617 693 559
f 613 902 571
f 745 676 379
f 676 628 379
f 431 690 615
f 635 633 629
f 682 745 379
f 641 646 623
f 619 671 364
f 640 427 653
f 642 641 455
f 644 447 425
f 627 642 455
f 668 662 562
f 749 600 624
f 416 671 619
f 749 459 600
f 561 282 606
f 672 416 669
f 672 671 416
f 392 730 566
f 758 730 392
f 630 758 392
f 575 599 402
f 646 652 633
f 652 629 633
f 894 694 369
f 593 616 352
f 650 627 599
f 651 652 646
f 575 650 599
f 730 576 566
f 664 308 528
f 616 268 550
f 727 269 268
f 603 688 561
f 657 659 629
f 652 657 629
f 659 431 629
f 663 604 639
f 640 363 427
f 648 688 603
f 641 651 646
f 677 654 398
f 678 655 613
f 651 657 652
f 690 702 615
f 641 656 651
f 656 657 651
f 645 658 596
f 658 617 596
f 656 659 657
f 641 673 656
f 659 656 673
f 642 673 641
f 179 713 450
f 714 660 703
f 686 690 431
f 269 661 639
f 676 703 628
f 604 664 528
f 671 665 645
f 730 717 576
f 749 624 667
f 653 363 640
f 675 627 650
f 644 647 447
f 726 308 664
f 726 670 308
f 659 686 431
f 665 658 645
f 675 642 627
f 673 674 659
f 658 693 617
f 675 650 575
f 654 631 410
f 658 679 693
f 648 680 688
f 636 680 603
f 680 648 603
f 681 682 631
f 654 681 631
f 691 674 673
f 951 636 561
f 639 753 663
f 685 714 703
f 674 708 659
f 708 716 659
f 716 686 659
f 661 753 639
f 663 664 604
f 718 700 653
f 691 673 642
f 725 424 362
f 620 725 362
f 737 620 363
f 593 1005 616
f 607 718 653
f 687 648 660
f 647 692 649
f 644 692 647
f 642 695 691
f 692 643 649
f 712 715 612
f 684 712 612
f 720 622 666
f 665 679 658
f 707 665 671
f 696 435 662
f 669 707 671
f 668 696 662
f 697 696 668
f 769 644 694
f 769 698 644
f 699 235 670
f 653 737 363
f 700 737 653
f 689 642 675
f 695 701 691
f 754 632 615
f 702 754 615
f 901 675 575
f 676 731 703
f 672 669 671
f 708 674 691
f 701 708 691
f 655 734 613
f 733 654 677
f 678 734 655
f 732 734 678
f 692 711 643
f 450 704 669
f 705 704 450
f 713 705 450
f 706 745 682
f 681 706 682
f 632 782 683
f 782 746 683
f 707 750 665
f 789 758 630
f 697 435 696
f 709 928 642
f 689 709 642
f 901 719 675
f 642 701 695
f 721 749 667
f 622 721 667
f 714 687 660
f 710 675 719
f 693 720 666
f 644 711 692
f 935 769 694
f 935 694 894
f 701 716 708
f 751 664 663
f 642 736 701
f 736 716 701
f 720 721 622
f 721 722 622
f 722 721 622
f 928 723 642
f 704 724 669
f 607 764 718
f 665 744 679
f 693 747 720
f 679 728 693
f 1005 727 268
f 616 1005 268
f 730 760 717
f 712 612 715
f 729 902 613
f 723 736 642
f 576 717 668
f 745 731 676
f 732 678 746
f 734 729 613
f 914 911 668
f 911 697 668
f 750 739 665
f 191 735 677
f 735 733 677
f 723 716 736
f 728 766 693
f 699 670 726
f 608 764 607
f 739 744 665
f 753 751 663
f 884 713 179
f 1006 680 636
f 712 684 612
f 740 741 181
f 741 602 181
f 648 740 181
f 424 1030 179
f 1030 742 179
f 742 738 179
f 743 740 648
f 687 743 648
f 755 728 679
f 744 755 679
f 457 789 630
f 686 702 690
f 957 951 561
f 688 957 561
f 748 747 693
f 738 884 179
f 766 748 693
f 751 726 664
f 680 957 688
f 747 721 720
f 697 911 435
f 644 759 711
f 917 716 723
f 959 750 707
f 700 718 737
f 669 959 707
f 875 780 750
f 780 739 750
f 922 731 745
f 747 816 721
f 686 754 702
f 780 744 739
f 884 926 713
f 908 760 730
f 922 703 731
f 959 875 750
f 698 757 644
f 757 759 644
f 917 686 716
f 748 816 747
f 710 689 675
f 689 928 709
f 760 914 668
f 717 760 668
f 758 908 730
f 761 1030 424
f 725 761 424
f 741 593 602
f 759 752 711
f 936 734 732
f 680 1006 957
f 1049 636 951
f 269 919 661
f 964 725 620
f 749 947 459
f 947 765 459
f 928 917 723
f 911 767 435
f 767 457 435
f 785 721 816
f 1049 1006 636
f 774 770 766
f 710 943 689
f 786 772 728
f 773 774 766
f 775 773 766
f 883 786 728
f 776 755 744
f 786 777 772
f 778 781 772
f 777 778 772
f 779 778 777
f 798 774 773
f 798 770 774
f 786 778 777
f 779 781 778
f 786 779 778
f 781 804 728
f 772 781 728
f 768 775 766
f 780 776 744
f 948 745 706
f 632 975 782
f 754 975 632
f 923 749 721
f 770 783 766
f 784 781 779
f 790 773 775
f 786 781 779
f 788 809 781
f 923 947 749
f 765 458 459
f 784 788 781
f 809 804 781
f 786 784 781
f 788 784 786
f 771 687 714
f 920 699 726
f 250 764 608
f 913 763 762
f 783 791 766
f 792 790 775
f 768 793 775
f 793 792 775
f 794 795 773
f 790 794 773
f 793 796 792
f 804 768 728
f 768 766 728
f 796 797 792
f 796 790 792
f 795 798 773
f 799 783 800
f 801 804 809
f 797 796 793
f 799 802 783
f 802 791 783
f 661 919 753
f 790 795 794
f 806 796 797
f 788 844 809
f 802 803 791
f 806 790 796
f 807 797 793
f 808 795 794
f 802 799 803
f 807 806 797
f 799 800 802
f 803 876 791
f 808 798 795
f 943 928 689
f 802 876 803
f 800 876 802
f 790 808 795
f 768 807 793
f 807 790 806
f 809 810 801
f 810 893 801
f 811 768 804
f 836 811 804
f 805 836 804
f 812 813 768
f 811 814 768
f 813 842 768
f 842 841 768
f 814 815 768
f 815 812 768
f 841 807 768
f 785 892 721
f 808 790 798
f 816 748 766
f 791 890 766
f 817 876 800
f 865 800 783
f 818 814 811
f 821 813 812
f 819 818 811
f 820 818 811
f 836 820 811
f 815 821 812
f 822 821 812
f 866 824 805
f 821 822 813
f 820 825 818
f 825 819 818
f 866 836 805
f 815 826 821
f 805 804 866
f 820 838 825
f 819 814 818
f 826 827 821
f 828 842 813
f 829 866 805
f 824 830 805
f 831 813 822
f 866 830 824
f 831 828 813
f 829 830 824
f 832 831 822
f 825 814 819
f 821 831 822
f 876 890 791
f 865 817 800
f 847 815 814
f 770 865 783
f 830 829 805
f 866 829 830
f 833 832 831
f 821 833 831
f 834 826 815
f 832 828 831
f 865 835 817
f 834 837 826
f 841 823 807
f 838 820 836
f 823 790 807
f 890 785 816
f 826 850 827
f 832 833 828
f 835 839 817
f 840 821 827
f 847 834 815
f 828 856 842
f 840 833 821
f 837 850 826
f 835 876 817
f 838 843 825
f 895 814 825
f 845 833 840
f 834 846 837
f 850 840 827
f 845 840 827
f 850 845 840
f 833 856 828
f 847 848 834
f 849 846 834
f 851 895 825
f 851 843 825
f 849 846 837
f 846 850 837
f 852 836 866
f 853 851 843
f 838 853 843
f 848 849 846
f 845 850 833
f 865 839 835
f 839 876 835
f 834 848 849
f 843 895 851
f 801 854 804
f 855 798 790
f 833 857 856
f 853 895 843
f 848 850 846
f 858 836 852
f 848 859 850
f 854 866 804
f 838 895 853
f 895 847 814
f 855 861 798
f 862 858 852
f 863 857 856
f 861 864 798
f 859 897 850
f 866 854 801
f 897 833 850
f 856 867 842
f 868 809 844
f 864 869 798
f 855 864 861
f 868 788 786
f 860 868 786
f 866 858 852
f 863 857 833
f 788 868 844
f 862 836 858
f 867 856 857
f 863 867 857
f 872 858 866
f 865 876 839
f 848 873 859
f 776 728 755
f 864 869 861
f 874 873 859
f 872 838 836
f 888 841 842
f 873 897 859
f 872 836 862
f 848 874 873
f 922 685 703
f 872 862 858
f 867 888 842
f 864 855 869
f 855 798 869
f 874 897 873
f 897 874 848
f 877 878 838
f 878 895 838
f 833 867 863
f 868 879 870
f 879 809 870
f 880 879 870
f 879 810 809
f 871 877 838
f 823 855 790
f 880 810 879
f 809 868 870
f 871 838 872
f 877 882 878
f 881 816 766
f 892 698 721
f 868 880 879
f 698 885 721
f 926 705 713
f 847 897 848
f 878 882 895
f 882 886 878
f 883 860 786
f 881 890 816
f 887 883 728
f 891 888 867
f 868 810 880
f 877 886 882
f 890 881 766
f 875 889 780
f 776 889 728
f 890 892 785
f 968 951 957
f 886 895 882
f 905 876 865
f 780 889 776
f 889 887 728
f 893 810 868
f 867 888 891
f 877 895 886
f 867 891 888
f 895 898 847
f 905 890 876
f 833 897 867
f 897 891 867
f 866 801 872
f 801 871 872
f 897 888 891
f 769 885 698
f 890 905 892
f 724 978 669
f 756 964 620
f 899 920 726
f 907 883 887
f 916 726 751
f 718 938 737
f 898 969 847
f 1002 895 877
f 871 1002 877
f 969 953 847
f 916 751 753
f 900 916 753
f 938 620 737
f 907 887 889
f 906 654 733
f 746 936 732
f 770 931 865
f 752 903 711
f 980 875 959
f 875 907 889
f 734 902 729
f 931 904 865
f 919 900 753
f 903 965 711
f 918 885 769
f 892 757 698
f 904 905 865
f 906 733 735
f 905 757 892
f 978 959 669
f 908 758 789
f 893 1105 801
f 458 909 457
f 767 762 457
f 762 458 457
f 910 894 458
f 762 763 458
f 763 910 458
f 910 935 894
f 912 935 910
f 767 913 762
f 763 912 910
f 998 710 719
f 915 914 760
f 904 757 905
f 938 937 620
f 962 883 907
f 757 932 759
f 875 980 907
f 937 756 620
f 718 941 938
f 916 899 726
f 654 906 681
f 989 841 888
f 1056 771 685
f 771 714 685
f 928 896 917
f 921 932 757
f 962 860 883
f 860 893 868
f 909 954 457
f 954 789 457
f 1002 1016 895
f 741 787 593
f 1035 770 798
f 855 1035 798
f 1035 931 770
f 933 721 885
f 904 921 757
f 787 1005 593
f 965 901 575
f 926 704 705
f 686 927 754
f 911 913 767
f 930 752 759
f 932 930 759
f 933 934 721
f 934 923 721
f 931 921 904
f 933 769 935
f 924 916 900
f 764 925 718
f 917 927 686
f 908 945 760
f 1035 921 931
f 1035 939 921
f 919 924 900
f 1035 885 939
f 885 918 939
f 1003 704 926
f 765 1014 458
f 1014 909 458
f 743 771 940
f 1061 906 735
f 918 921 939
f 918 932 921
f 913 942 763
f 942 912 763
f 1054 1003 926
f 925 941 718
f 944 1002 871
f 933 885 1035
f 1001 940 771
f 945 908 789
f 946 704 1003
f 760 945 915
f 949 746 782
f 952 944 871
f 918 930 932
f 938 916 924
f 938 924 937
f 1056 1001 771
f 950 823 841
f 948 922 745
f 985 888 897
f 743 687 771
f 1016 898 895
f 952 871 801
f 916 941 899
f 1016 983 898
f 953 897 847
f 953 985 897
f 1001 986 940
f 933 918 769
f 918 752 930
f 938 941 916
f 929 962 907
f 269 1092 919
f 967 1051 923
f 913 912 942
f 955 933 935
f 934 967 923
f 1051 947 923
f 911 956 913
f 958 901 965
f 998 943 710
f 960 1014 765
f 947 1051 765
f 1051 960 765
f 961 724 704
f 946 961 704
f 896 1073 917
f 956 912 913
f 933 972 918
f 972 752 918
f 919 756 924
f 756 937 924
f 999 685 922
f 949 936 746
f 963 756 919
f 1092 963 919
f 955 966 933
f 966 934 933
f 966 967 934
f 964 761 725
f 985 989 888
f 191 1061 735
f 884 987 926
f 972 933 1035
f 912 955 935
f 734 974 902
f 925 899 941
f 860 977 893
f 976 706 681
f 1066 976 681
f 906 1066 681
f 975 976 782
f 976 1020 782
f 1020 949 782
f 754 1039 975
f 823 1035 855
f 961 978 724
f 981 950 841
f 962 970 860
f 943 896 928
f 982 903 752
f 984 920 899
f 925 984 899
f 764 984 925
f 973 906 1061
f 936 974 734
f 954 945 789
f 1037 1046 801
f 972 982 752
f 1053 1056 685
f 1046 952 801
f 986 1225 940
f 1225 743 940
f 989 981 841
f 1105 1037 801
f 926 988 1054
f 963 964 756
f 1053 685 999
f 998 990 943
f 982 965 903
f 991 719 901
f 914 915 911
f 991 998 719
f 948 999 922
f 907 1000 929
f 1127 948 706
f 1004 1005 787
f 1008 969 898
f 980 1018 907
f 1018 1000 907
f 954 1009 945
f 1011 1007 972
f 1225 740 743
f 1009 1050 945
f 990 997 943
f 957 1024 968
f 993 994 1026
f 996 1012 1027
f 190 1061 191
f 973 1066 906
f 1014 954 909
f 1015 977 860
f 1015 860 970
f 1035 1011 972
f 1017 946 1003
f 981 823 950
f 1018 980 959
f 1019 990 998
f 975 1127 706
f 976 975 706
f 1039 1127 975
f 1103 988 926
f 1021 982 972
f 1022 985 953
f 969 1022 953
f 1073 927 917
f 987 1103 926
f 945 1050 915
f 949 1089 936
f 1079 951 968
f 1066 1020 976
f 1019 997 990
f 979 1017 1003
f 1007 1021 972
f 952 1002 944
f 1046 1074 952
f 927 1039 754
f 992 1028 1010
f 1013 1047 995
f 996 1029 1012
f 994 1033 1052
f 1047 1034 995
f 1034 1060 995
f 993 1033 994
f 1031 1009 954
f 1022 1076 985
f 738 971 884
f 1023 1028 992
f 1047 1033 1034
f 1029 1033 1012
f 1004 787 741
f 1032 1019 998
f 1052 1036 994
f 1008 1095 969
f 1038 1024 957
f 1006 1038 957
f 1028 1033 1010
f 960 954 1014
f 1120 896 943
f 997 1120 943
f 1033 997 1012
f 1089 974 936
f 1033 993 1010
f 1033 1047 1052
f 1033 1029 1034
f 1040 1034 1029
f 948 1053 999
f 1079 1041 951
f 1041 1049 951
f 1017 961 946
f 1043 1005 1004
f 983 1008 898
f 954 1042 1031
f 1024 1058 968
f 1073 1039 927
f 1111 893 977
f 1025 1058 1024
f 1050 1045 915
f 1044 823 981
f 1076 989 985
f 915 956 911
f 994 1082 1026
f 1040 1029 996
f 1080 1082 994
f 1050 1051 967
f 1107 1102 994
f 1081 1094 993
f 1031 1050 1009
f 1196 1002 952
f 1107 994 1036
f 1056 1048 1001
f 1050 1031 1051
f 1196 1016 1002
f 1057 1025 1024
f 1045 956 915
f 1031 1055 1051
f 1042 1055 1031
f 1055 1042 954
f 1118 959 978
f 1006 1049 1038
f 1059 1103 987
f 1060 1034 1040
f 1102 1080 994
f 1026 1157 993
f 1157 1081 993
f 995 1062 1013
f 1062 1047 1013
f 1027 1158 996
f 1158 1040 996
f 1010 1110 992
f 1028 1079 968
f 1033 1028 968
f 1058 1033 968
f 1000 1150 929
f 1038 1057 1024
f 1051 1055 960
f 1055 954 960
f 1075 1073 896
f 1090 962 929
f 1090 970 962
f 958 991 901
f 1063 979 1003
f 1057 1058 1025
f 979 1064 1017
f 1064 961 1017
f 1065 269 727
f 1141 1065 727
f 955 1045 966
f 1045 967 966
f 1045 1050 967
f 1060 1122 995
f 1033 1120 997
f 1165 1123 997
f 1120 1075 896
f 1005 1141 727
f 1067 1105 893
f 1111 1067 893
f 948 1130 1053
f 1069 1015 970
f 1070 1012 997
f 955 912 956
f 1015 1111 977
f 1049 1057 1038
f 1044 1137 1035
f 1071 1008 983
f 955 956 1045
f 1072 1048 1056
f 823 1044 1035
f 1071 983 1016
f 1054 1063 1003
f 1037 1114 1046
f 1077 1000 1018
f 1076 1022 969
f 1063 1064 979
f 1057 1078 1058
f 1070 997 1123
f 978 961 1064
f 1177 1040 1158
f 1032 1165 1019
f 1165 997 1019
f 1082 1157 1026
f 1193 1062 995
f 1122 1193 995
f 1072 1001 1048
f 1083 1030 761
f 964 1083 761
f 1078 1033 1058
f 1085 1004 741
f 740 1085 741
f 1087 1064 1063
f 959 1077 1018
f 1119 1171 987
f 884 1119 987
f 1086 1039 1073
f 1143 1032 998
f 1072 1091 1001
f 1093 998 991
f 1068 981 989
f 1096 1063 1054
f 993 1097 1010
f 1091 986 1001
f 1049 1078 1057
f 1088 1061 190
f 973 1134 1066
f 974 1098 902
f 982 1099 965
f 1171 1059 987
f 1100 978 1064
f 1114 1074 1046
f 1033 1101 1120
f 1047 1167 1052
f 965 991 958
f 1094 1097 993
f 1023 1079 1028
f 1104 1049 1041
f 1004 1085 1092
f 1226 1225 986
f 1021 1099 982
f 1087 1100 1064
f 1090 1069 970
f 1190 1084 1039
f 1106 952 1074
f 1065 1092 269
f 1147 991 1021
f 991 1099 1021
f 235 699 920
f 250 984 764
f 1099 991 965
f 1134 973 1061
f 1088 1134 1061
f 1089 1098 974
f 1147 1093 991
f 1108 1100 1087
f 1108 1109 1087
f 1063 1108 1087
f 1065 1043 1092
f 1043 1004 1092
f 1169 1016 1196
f 1063 1109 1108
f 1112 1100 1108
f 1109 1112 1108
f 1011 1117 1007
f 1068 1044 981
f 1169 1071 1016
f 1078 1101 1033
f 1007 1147 1021
f 1115 989 1076
f 1170 1053 1130
f 1086 1190 1039
f 1128 1112 1109
f 1063 1128 1109
f 992 1116 1023
f 1095 1076 969
f 1121 1161 1052
f 1161 1036 1052
f 971 1119 884
f 1100 1118 978
f 1069 1111 1015
f 1104 1078 1049
f 1103 1207 988
f 1127 1130 948
f 1020 1089 949
f 1035 1117 1011
f 1170 1056 1053
f 1125 1075 1120
f 1124 1091 1072
f 1128 1100 1112
f 1113 1115 1076
f 1124 1072 1056
f 1075 1208 1073
f 1208 1086 1073
f 1010 1097 1110
f 1129 1117 1035
f 1137 1129 1035
f 1040 1122 1060
f 1032 1212 1165
f 1091 1226 986
f 1149 1078 1104
f 1114 1037 1105
f 1180 1068 989
f 984 1155 920
f 1155 1131 920
f 1131 235 920
f 1132 1133 984
f 250 1132 984
f 1098 1126 902
f 1080 1144 1082
f 1222 1208 1075
f 1126 189 902
f 1258 1030 1083
f 1145 1106 1074
f 1177 1136 1040
f 1138 1139 1132
f 1155 1140 1131
f 1095 1113 1076
f 1135 1170 1130
f 35 1138 1132
f 1077 1150 1000
f 1115 1142 989
f 1114 1145 1074
f 1085 963 1092
f 1139 1343 1132
f 1096 1128 1063
f 1140 41 1131
f 1116 1216 1023
f 1094 1164 1097
f 1146 1140 1155
f 1068 1137 1044
f 1343 1133 1132
f 1090 1111 1069
f 1152 1146 1155
f 1343 1148 1133
f 1143 1212 1032
f 1005 1043 1141
f 1102 1144 1080
f 1167 1121 1052
f 1012 1070 1027
f 1153 1056 1170
f 1178 1095 1008
f 1142 1180 989
f 1133 1155 984
f 929 1238 1090
f 1156 1107 1036
f 1161 1156 1036
f 1144 1157 1082
f 1159 1158 1027
f 1070 1159 1027
f 1084 1127 1039
f 1213 1134 1088
f 189 1088 190
f 1148 1155 1133
f 1162 1152 1155
f 1151 1079 1023
f 959 1150 1077
f 1106 1163 952
f 1163 1196 952
f 1067 1114 1105
f 1148 1162 1155
f 738 1119 971
f 1183 1096 1054
f 1125 1168 1075
f 1168 1222 1075
f 1166 1100 1128
f 1062 1167 1047
f 1149 1101 1078
f 1081 1164 1094
f 1117 1147 1007
f 1156 1102 1107
f 1127 1084 1130
f 1096 1183 1128
f 1100 1166 1118
f 1216 1211 1023
f 1154 1166 1128
f 189 1213 1088
f 1134 1160 1066
f 1168 1125 1120
f 1101 1168 1120
f 1084 1135 1130
f 1190 1172 1084
f 1110 1116 992
f 1153 1124 1056
f 1151 1173 1079
f 1136 1122 1040
f 1165 1070 1123
f 1156 1144 1102
f 1211 1151 1023
f 1090 1174 1111
f 1208 1190 1086
f 1122 1175 1193
f 1111 1174 1067
f 1020 1176 1089
f 1179 1147 1117
f 1095 1115 1113
f 1084 1181 1135
f 1200 1068 1180
f 1178 1197 1095
f 1197 1271 1095
f 1124 1206 1091
f 1183 1154 1128
f 1059 1207 1103
f 1172 1181 1084
f 1251 1238 929
f 1176 1098 1089
f 1167 1161 1121
f 1182 1059 1171
f 1181 1170 1135
f 1149 1214 1101
f 1098 189 1126
f 1118 1280 959
f 1153 1227 1124
f 1185 1081 1157
f 1150 1251 929
f 1186 1154 1183
f 1129 1179 1117
f 1137 1187 1129
f 740 1188 1085
f 1186 1166 1154
f 1206 1226 1091
f 1191 1144 1156
f 1097 1257 1110
f 1227 1206 1124
f 1165 1184 1070
f 1119 1201 1171
f 1190 1170 1181
f 1190 1181 1172
f 1280 1150 959
f 1195 1104 1041
f 1093 1143 998
f 1142 1198 1180
f 1245 1199 1114
f 738 1201 1119
f 1071 1202 1008
f 1202 1178 1008
f 1199 1145 1114
f 1265 1187 1137
f 1194 1174 1090
f 1104 1223 1149
f 1204 1168 1101
f 1167 1205 1161
f 1185 1164 1081
f 1169 1202 1071
f 1068 1265 1137
f 1208 1153 1170
f 1190 1208 1170
f 1200 1265 1068
f 1093 1209 1143
f 1196 1202 1169
f 1209 1093 1147
f 1220 1189 1150
f 1189 1251 1150
f 1062 1210 1167
f 1223 1214 1149
f 1160 1020 1066
f 1067 1245 1114
f 1214 1204 1101
f 1185 1289 1164
f 1209 1212 1143
f 1231 1177 1158
f 1098 1215 189
f 1168 1328 1222
f 1210 1205 1167
f 1166 1280 1118
f 1250 1191 1156
f 1219 1079 1173
f 1176 1203 1098
f 1020 1203 1176
f 1163 1240 1196
f 1281 1207 1059
f 1211 1173 1151
f 1289 1097 1164
f 1278 1159 1070
f 1184 1278 1070
f 1145 1259 1106
f 1201 1182 1171
f 1220 1150 1280
f 1208 1227 1153
f 1222 1227 1208
f 1221 1213 189
f 1134 1228 1160
f 1203 1229 1098
f 1229 1215 1098
f 1230 1062 1193
f 1231 1158 1159
f 1177 1122 1136
f 1122 1232 1175
f 1271 1234 1095
f 1242 1180 1198
f 1236 1267 1174
f 1194 1236 1174
f 1230 1192 1062
f 1237 1201 738
f 1218 1186 1183
f 1261 1202 1196
f 1239 1156 1161
f 1239 1264 1156
f 1234 1115 1095
f 1177 1232 1122
f 1165 1278 1184
f 1219 1041 1079
f 1106 1240 1163
f 1242 1200 1180
f 1235 1271 1197
f 1262 1157 1144
f 1217 1262 1144
f 1242 1231 1159
f 1243 1196 1240
f 1259 1145 1199
f 1244 1214 1223
f 1174 1245 1067
f 1043 1065 1141
f 1179 1209 1147
f 742 1241 738
f 1227 1226 1206
f 1233 1278 1165
f 1205 1210 1161
f 1218 1183 1054
f 988 1246 1054
f 1174 1248 1245
f 1104 1195 1223
f 1264 1250 1156
f 1178 1249 1197
f 1212 1233 1165
f 1191 1250 1144
f 1215 1221 189
f 1277 1020 1160
f 1192 1210 1062
f 1289 1257 1097
f 1159 1252 1242
f 1253 1185 1157
f 1254 1239 1161
f 1224 1166 1186
f 1195 1247 1223
f 1241 1273 738
f 1273 1237 738
f 1210 1254 1161
f 740 1225 1226
f 1247 1244 1223
f 1228 1134 1213
f 1020 1229 1203
f 1187 1255 1129
f 1238 1194 1090
f 1216 1293 1211
f 1220 1251 1189
f 1110 1256 1116
f 742 1030 1241
f 963 1083 964
f 1085 1258 1083
f 963 1085 1083
f 1238 1236 1194
f 1245 1259 1199
f 1257 1260 1110
f 1129 1209 1179
f 1250 1217 1144
f 1188 1258 1085
f 1251 1110 1238
f 1328 1263 1222
f 1222 1226 1227
f 1254 1264 1239
f 1106 1266 1240
f 1302 1268 1254
f 1269 1243 1240
f 1270 1264 1254
f 1268 1270 1254
f 1294 1269 1240
f 1266 1294 1240
f 1248 1253 1157
f 1207 1246 988
f 1217 1245 1262
f 1260 1238 1110
f 1256 1110 1251
f 1263 1272 1222
f 1272 1226 1222
f 1212 1209 1129
f 1255 1212 1129
f 1230 1235 1197
f 1249 1230 1197
f 1218 1224 1186
f 1235 1230 1193
f 1175 1235 1193
f 1262 1245 1157
f 1245 1248 1157
f 1242 1198 1231
f 1293 1256 1251
f 1330 1246 1207
f 1249 1274 1230
f 1175 1271 1235
f 1142 1231 1198
f 1252 1310 1242
f 1272 740 1226
f 1212 1275 1233
f 1204 1276 1168
f 1228 1277 1160
f 1116 1279 1216
f 1267 1248 1174
f 1202 1249 1178
f 1182 1281 1059
f 1265 1255 1187
f 1229 1221 1215
f 1221 1228 1213
f 1277 1229 1020
f 1276 1328 1168
f 1247 1214 1244
f 1293 1116 1256
f 1282 1330 1207
f 1329 1251 1220
f 1278 1252 1159
f 1210 1302 1254
f 1259 1294 1106
f 1264 1283 1250
f 1242 1284 1200
f 1195 1041 1247
f 1271 1304 1234
f 1238 1285 1236
f 1231 1286 1177
f 1284 1265 1200
f 1285 1267 1236
f 1030 1273 1241
f 1284 1287 1265
f 1253 1289 1185
f 1304 1142 1234
f 1142 1115 1234
f 1214 1041 1276
f 1204 1214 1276
f 1192 1316 1210
f 1283 1288 1250
f 1175 1232 1177
f 1286 1175 1177
f 1275 1278 1233
f 1290 1201 1237
f 1217 1259 1245
f 1277 1228 1221
f 1229 1277 1221
f 1331 1224 1218
f 1331 1166 1224
f 1279 1293 1216
f 1280 1329 1220
f 1243 1261 1196
f 1281 1282 1207
f 1291 1211 1293
f 1293 1279 1116
f 1217 1292 1259
f 1273 1290 1237
f 1230 1316 1192
f 1295 1249 1202
f 1288 1217 1250
f 1333 1218 1054
f 1246 1330 1054
f 1330 1333 1054
f 1296 1041 1219
f 1030 1297 1273
f 1140 1296 1173
f 1296 1219 1173
f 1310 1255 1265
f 1291 1173 1211
f 1041 1214 1247
f 1331 1280 1166
f 1290 1182 1201
f 1311 1231 1142
f 1287 1310 1265
f 1295 1202 1261
f 1292 1294 1259
f 1298 1302 1210
f 1260 1299 1238
f 1300 1278 1275
f 1316 1298 1210
f 1281 1290 1273
f 1300 1275 1212
f 1300 1252 1278
f 1310 1212 1255
f 1301 1268 1302
f 1304 1271 1175
f 1301 1305 1268
f 1305 1306 1268
f 1306 1308 1268
f 1308 1309 1268
f 1309 1270 1268
f 1291 41 1173
f 41 1140 1173
f 1307 1243 1269
f 1294 1266 1106
f 1299 1285 1238
f 1138 35 1280
f 35 1329 1280
f 1310 1300 1212
f 1294 1307 1269
f 1305 1301 1302
f 1139 1138 1280
f 1298 1305 1302
f 1242 1287 1284
f 1286 1231 1311
f 1311 1304 1175
f 1299 1267 1285
f 1312 1295 1261
f 1311 1142 1304
f 1303 1316 1230
f 1288 1283 1264
f 1299 1248 1267
f 1315 1261 1243
f 1314 1243 1307
f 1248 1313 1253
f 1310 1252 1300
f 1274 1303 1230
f 1317 1217 1288
f 1313 1289 1253
f 1286 1311 1175
f 1318 1243 1314
f 1270 1288 1264
f 1295 1319 1249
f 1257 1299 1260
f 1318 1315 1243
f 1243 1320 1315
f 1320 1261 1315
f 1308 1309 1306
f 1295 1321 1319
f 1322 1270 1309
f 1308 1322 1309
f 1312 1307 1294
f 1306 1322 1308
f 1305 1322 1306
f 1312 1314 1307
f 1312 1318 1314
f 1312 1243 1318
f 1321 1312 1249
f 1319 1321 1249
f 1312 1320 1243
f 1323 1321 1319
f 1312 1261 1320
f 1322 1288 1270
f 1329 1293 1251
f 1295 1323 1321
f 1298 1322 1305
f 1310 1287 1242
f 1297 1281 1273
f 1299 1257 1289
f 1295 1312 1323
f 1323 1312 1321
f 1312 1274 1249
f 1292 1312 1294
f 1325 1217 1317
f 1298 1316 1303
f 1313 1299 1289
f 1324 1303 1322
f 1324 1298 1303
f 1303 1324 1322
f 1324 1322 1298
f 1322 1317 1288
f 1326 1327 1217
f 1327 1292 1217
f 1299 1313 1248
f 1324 1317 1322
f 1292 1327 1312
f 1327 1326 1312
f 1325 1317 1324
f 1303 1326 1324
f 1326 1325 1324
f 1325 1326 1217
f 1326 1274 1312
f 1274 1326 1303
f 1333 1331 1218
f 1290 1281 1182
f 1329 1291 1293
f 1041 1332 1276
f 1332 1333 1276
f 1333 1328 1276
f 1291 1329 41
f 1329 37 41
f 1281 1330 1282
f 37 1329 35
f 1272 1188 740
f 1334 1297 1030
f 1258 1334 1030
f 1336 1281 1297
f 1335 1188 1272
f 1334 1336 1297
f 1140 1146 1296
f 1330 1339 1333
f 1338 1331 1333
f 1332 1338 1333
f 1280 1343 1139
f 1281 1337 1330
f 1339 1328 1333
f 1331 1343 1280
f 1341 1263 1328
f 1152 1296 1146
f 1337 1339 1330
f 1296 1340 1041
f 1340 1332 1041
f 1281 1339 1337
f 1343 1331 1338
f 1342 1343 1338
f 1340 1344 1332
f 1344 1340 1263
f 1340 1272 1263
f 1339 1346 1328
f 1345 1342 1338
f 1344 1338 1332
f 1346 1341 1328
f 1342 1334 1343
f 1344 1345 1338
f 1341 1344 1263
f 1335 1340 1296
f 1152 1335 1296
f 1334 1148 1343
f 1336 1342 1339
f 1281 1336 1339
f 1342 1346 1339
f 1346 1344 1341
f 1342 1345 1346
f 1345 1344 1346
f 1335 1152 1188
f 1148 1334 1258
f 1340 1335 1272
f 1334 1342 1336
f 1152 1258 1188
f 1152 1162 1258
f 1162 1148 1258
