v 0.00209271 -0.0454175 0.0331434
v 0.00187293 -0.0467725 0.0472191
v -0.00150324 -0.0475712 0.0472311
v -0.00856139 -0.0386724 0.0321276
v -0.006615 -0.0416686 0.0448701
v -0.00837756 -0.0412264 0.0463563
v 0.006465 -0.041607 0.046801
v 0.009694 -0.0416 0.046079
v 4.48546e-05 -0.0289923 0.0464431
v 0.000606077 -0.0295971 0.0433584
v -0.0391775 -0.0479395 0.0392315
v 0.036764 -0.041547 0.040386
v 0.00786282 -0.0390594 0.0444725
v 0.00601663 -0.00323512 0.0440597
v -0.00783282 -0.0362272 0.042874
v 0.0154614 -0.0478276 0.0361496
v 0.0396147 -0.0477617 0.038745
v 0.0168254 -0.0248189 0.0430115
v 0.0126903 -0.0416018 0.0418592
v -0.00584979 0.00693057 0.0431698
v -0.0076 0.008471 0.042252
v -0.000522628 0.00261676 0.0438701
v 0.0151144 -0.00763287 0.0414558
v -0.0128784 -0.0416109 0.0413009
v 8.26221e-05 0.0024577 0.0423457
v -0.0133897 0.0127812 0.0403194
v 0.0266583 -0.0211696 0.0381702
v 0.0164154 -0.00877676 0.0417906
v -0.0376805 -0.00322779 0.0377527
v -0.00760052 -0.0396 0.0405874
v -0.019492 0.0184619 0.0362535
v -0.00146107 -0.0300901 -0.0404422
v -0.00218845 -0.0295027 0.0407845
v 0.006081 -0.033477 0.040138
v 0.00554428 -0.0325304 -0.0400293
v -0.0186746 -0.0478935 0.033345
v 0.0278564 -0.0419588 0.0347878
v -0.038329 -0.0130174 0.0368614
v 0.00735388 -0.0408829 0.0415132
v -0.006177 -0.033443 -0.039929
v 0.0055283 -0.0109512 0.0401978
v -0.006963 -0.034769 0.032368
v 0.00808607 -0.0370854 0.0321058
v -0.0105971 -0.0101364 0.039162
v -0.0186741 -0.0231941 0.0390378
v -0.00364019 -0.0109744 0.0406172
v -0.001548 0.000331 0.039602
v 0.000742 0.000209 0.039617
v -0.00116657 -0.00311971 0.0396248
v 2.11849e-05 0.00709184 0.038952
v 0.0047588 0.010432 0.0396398
v -0.00363289 -0.00504345 0.0393956
v 0.0021585 0.0157673 0.0399179
v -0.00153564 0.00649652 0.0395946
v -0.001326 0.006664 0.039562
v -0.001431 0.006628 0.039562
v -0.001532 0.00659 0.039563
v -0.00468072 0.0150789 0.0396399
v 0.00304698 0.00241954 0.0394168
v 0.00305461 0.0030251 0.0395297
v 0.003065 0.004183 0.039502
v 0.0030445 0.0044645 0.039485
v 0.00300893 0.00528861 0.0397278
v -0.00189 0.0063 0.039589
v 0.001284 0.006639 0.03954
v -0.001628 0.006549 0.039565
v -0.00172 0.006507 0.039568
v -0.002231 0.00641 0.039583
v -0.00342964 0.00461099 0.0394184
v -0.00328344 0.00295763 0.0394954
v -0.0391627 -0.0416867 0.0393349
v 0.00343941 0.00138091 0.0395597
v -0.003035 0.001742 0.039485
v -0.00121 0.006803 0.039467
v 0.001472 0.006616 0.039524
v 0.001273 0.006723 0.039483
v -0.003286 0.00289 0.039505
v -0.001802 0.006681 0.039471
v -0.00189 0.006621 0.039505
v -0.003288 0.002654 0.03942
v -0.00342892 0.0021361 0.0392696
v 0.00327588 0.00445055 0.0392895
v -0.001705 0.006752 0.039422
v -0.001674 0.006908 0.039242
v -0.00423861 0.00501126 0.039045
v -0.000952845 -0.000449306 0.0386747
v -0.00327315 0.00302068 0.0377178
v 0.003158 0.004238 0.039382
v 0.000462414 0.011788 0.0396022
v -0.0442646 -0.0422409 0.0270079
v 0.00152796 0.0170361 0.0389505
v -0.00575396 0.00986081 0.0393294
v 0.00770396 -0.00533796 0.0377299
v -0.003359 0.002541 0.039284
v 0.00313 0.002554 0.039284
v -0.003403 0.002451 0.039243
v 0.003229 0.002376 0.039204
v 0.0117345 -0.00417561 0.0380509
v -0.003457 0.002363 0.039204
v -0.0103073 0.0111616 0.0385216
v 0.003359 0.002257 0.038938
v -0.0165935 -0.0115871 0.0371672
v 0.010235 0.00955394 0.0368831
v 0.010412 0.0144831 0.0376568
v 0.003451 0.0021265 0.0391405
v -0.003908 0.001933 0.039148
v -0.004106 0.001961 0.039011
v -0.003644 0.0044995 0.039174
v -0.003767 0.00207 0.039087
v -0.00948333 -0.00394795 0.0387233
v 0.0258137 -0.0116797 0.0348059
v -0.0108274 0.000872394 0.0387017
v -0.00592202 0.0119231 0.0388489
v -0.0143581 -0.00310533 0.0368154
v 0.0125118 0.0158729 0.0377677
v 3.6364e-05 0.0145261 0.0380455
v 0.0141223 0.00474375 0.0360331
v -0.0305376 -0.0417036 0.030783
v 0.00998213 0.00574896 0.038501
v 0.0193655 -0.0229142 0.0385279
v 0.00298423 0.00344176 0.0376003
v -0.007955 -0.005179 0.036811
v -0.093328 -0.000831509 0.0385295
v 0.0212635 -0.0368123 0.0353842
v 0.00277752 0.00708974 0.0385165
v -0.012408 -0.005086 0.037282
v 0.0375357 -0.0248132 0.0383629
v -0.0126495 0.00194978 0.0358335
v 0.0136929 0.0109901 0.0372528
v -0.0925304 -0.0120429 0.0367415
v 0.00614062 0.00196465 0.0387353
v -0.0757756 0.00483884 0.0381416
v -0.00731868 0.00963721 0.0371873
v 0.011997 -0.0028863 0.0373068
v 0.0153978 -0.0102994 0.0370949
v 0.0152432 0.000985872 0.0369082
v -0.013677 0.00682403 0.0370727
v -0.0935019 0.00941226 0.0370164
v -0.0744919 -0.0145659 0.0349581
v -0.0141066 0.0166427 0.0369362
v -0.0273371 -0.0231156 0.0333791
v -0.00352423 -0.0616553 0.0382974
v 0.00350069 0.0268849 0.0371761
v -0.0933207 -0.0191796 0.0333734
v -0.023284 -0.0366489 0.0337855
v 0.03567 -0.022609 0.036846
v 0.0155944 0.0118816 0.0357386
v 0.017402 0.0101243 0.035928
v 0.0166166 0.0284163 0.0322399
v 0.017569 0.00659082 0.0356312
v -0.0157626 0.0267367 0.0344019
v -0.0146577 0.00463059 0.0360855
v 0.0389512 -0.0258069 0.036701
v -0.0170052 0.0116767 0.0356659
v -0.0165069 0.0167225 0.0340684
v -0.0146457 0.015237 0.0371873
v -0.0279837 -0.0416599 0.0373169
v -0.0539306 0.0012198 0.0358292
v -0.0166649 0.00097291 0.0362142
v -0.0801348 0.0231991 0.0326138
v -0.0540412 -0.00878586 0.034785
v -0.00558561 -0.00892468 0.0379818
v 0.0269953 -0.0251689 0.0366994
v -0.0539452 0.0115728 0.0340639
v -0.029715 -0.0541005 0.0370184
v -0.0753002 0.0169713 0.0336144
v -0.021505 0.00792087 0.0320191
v -0.0234826 0.0146938 0.0316809
v -0.0209078 -0.000148862 0.0316153
v -0.0295269 -0.0614564 0.0371065
v -0.0279738 -0.0240093 0.0337356
v 0.028462 -0.041518 0.031868
v -0.0185309 0.0109955 0.0352131
v 0.0204716 0.0165762 0.0334178
v -0.007768 -0.061573 0.020915
v -0.0161696 1.82406e-05 0.0366452
v 0.047589 -0.0476919 5.39763e-05
v -0.0473789 -0.0479134 0.000462328
v 0.037587 -0.0477652 0.00833256
v -0.0405391 -0.0208812 0.0327286
v 0.0432669 -0.0249203 0.0156241
v -0.00514028 0.0279036 0.0367854
v -0.019325 -0.009701 0.033349
v 0.00727211 -0.0615369 0.0220869
v 0.030313 -0.016587 0.03392
v 0.016754 0.006903 0.033635
v -0.0246873 0.00127373 0.0312651
v -0.026976 -0.0252323 0.0367696
v -0.0747385 0.0222302 0.0296115
v 0.0293999 -0.0137 0.0343033
v -0.02316 -0.06169 0.029601
v 0.0281917 0.014731 0.0272302
v 0.0176365 0.0267933 0.0330289
v 0.0309589 -0.0416942 0.0309711
v 0.0370764 -0.0215236 0.0302772
v -0.0944067 -0.0198418 -0.031067
v -0.0945108 0.0150983 -0.0334704
v -0.0938743 -0.0371143 -0.00932064
v -0.0945363 -0.0354685 0.0106871
v -0.0746317 0.0117648 0.0238646
v -0.0186818 -0.00476185 0.0350077
v 0.027961 -0.041198 0.031749
v 0.0226199 0.000114787 0.0324739
v -0.0930314 0.0173403 0.0343715
v -0.0576855 -0.00235296 0.0352058
v 0.0230281 -0.00364791 0.0325312
v -0.0260904 -0.0107016 0.0306862
v -0.0417191 -0.0173821 0.033027
v -0.0229247 -0.0615228 0.02995
v 0.0233247 -0.0116313 0.0331095
v -0.0414055 -0.0416937 0.0246378
v -0.0164364 0.00607332 0.0365755
v 0.0331942 -0.0192478 0.0331649
v -0.0763484 -0.0105795 0.0377812
v -0.0216715 0.0164682 0.0332286
v -0.0590733 -0.0124168 0.0320921
v 0.0156791 -0.00945924 0.0348037
v -0.0280393 0.0256343 0.029352
v -0.0540363 0.0221941 0.0284429
v 0.0287797 -0.0242977 0.0323169
v -0.0229842 -0.00971759 0.0299347
v -0.059043 0.00862347 0.0335678
v -0.0216071 0.00523088 0.0333149
v -0.021088 0.02746 0.030281
v 0.0284617 0.0100868 0.0273037
v 0.0235605 0.00202666 0.0307074
v -0.0182349 -0.0516806 0.0296111
v 0.018395 -0.0516188 0.0298147
v 0.00163576 -0.0519 0.0220509
v -0.053933 -0.017991 0.030271
v -0.0945352 -0.0190494 0.0317059
v -0.0253771 -0.00364469 0.0305412
v -0.00736815 -0.0347166 -0.0322482
v -0.0230088 -0.0537439 0.029906
v -0.0291183 -0.0245527 0.0319756
v 0.0243181 0.0115258 0.0311456
v 0.024861 0.00571074 0.030956
v -0.0934238 -0.0336381 0.0199017
v 0.0248918 -0.061608 0.0294621
v 0.0290031 -0.0113359 0.0280888
v -0.0292266 0.00176002 0.024506
v -0.0577193 -0.0200564 0.0288634
v -0.0294528 0.0142197 0.0242448
v -0.0300285 -0.0199077 0.0293457
v -0.0294665 0.0165763 0.024108
v 0.0354598 -0.0145713 0.0276755
v -0.0228633 0.0101484 0.0328796
v -0.041479 -0.0272531 0.025629
v -0.030368 -0.024664 0.030415
v -0.0340898 0.0296395 0.0213674
v -0.0313073 0.0238819 0.0308964
v 0.0281492 0.0152661 0.0277406
v -0.029655 0.016801 0.028138
v -0.0295735 -0.0110541 0.0273473
v 0.028212 0.001329 0.027684
v 0.0311276 0.00026147 0.0241976
v 0.0234524 -0.0100592 0.031771
v -0.000122316 0.0302939 0.0312048
v 0.006002 0.033782 0.02965
v 0.0292849 0.00515378 0.0263296
v -0.03214 -0.0243392 0.0289751
v -0.026492 0.011678 0.026929
v 0.0289565 -0.0231324 0.0314987
v -0.0745771 -0.0167979 0.0201024
v 0.0380639 -0.0147934 0.0239403
v -0.023172 -0.061641 -0.029443
v -0.029619 0.009915 0.026106
v -0.0295633 0.0115045 0.0269934
v -0.0296238 0.00626067 0.0266312
v -0.094585 0.0176176 0.0344133
v 0.0385966 -0.0206234 0.0250651
v -0.0271708 0.027574 0.0254581
v 0.0208131 -0.00104942 0.0318156
v -0.0292401 -0.0051554 0.0257306
v -0.0182628 -0.0614387 0.0130017
v -0.0595868 -0.015451 0.0206116
v -0.0596209 0.00394145 0.0255616
v 0.0326694 -0.0242289 0.0287713
v -0.00741586 0.0336631 0.0295599
v 0.029648 0.033587 0.022988
v -0.0323383 -0.0410681 0.0268761
v 0.004687 0.028365 0.028686
v -0.00469914 0.0285001 0.0283941
v -0.0579131 0.0195922 0.0290998
v 0.0309702 0.0115268 0.0244217
v 0.0306562 0.00150416 0.025072
v 0.0266555 0.00835721 0.0269033
v 0.00126159 0.02876 0.0284071
v 0.0283761 0.0165017 0.0273756
v -0.0539726 0.0274611 0.0229355
v -0.009096 0.02834 0.027644
v -0.00347998 0.0327433 0.029334
v 0.0270015 -0.00366787 0.0291433
v 0.0257596 -0.00503247 0.0289836
v -0.0295047 -0.00424291 0.0271452
v -0.0296302 0.0161387 0.0266316
v -0.0296735 0.00126818 0.0265728
v -0.020734 0.0358781 0.0206326
v -0.0293078 -0.00258159 0.0252273
v 0.003608 0.036255 0.020744
v -0.0294798 0.00472665 0.0255166
v -0.000931989 0.0319705 0.0280723
v 0.0359467 -0.0249379 0.0271272
v -0.0154046 0.0285462 0.0246125
v -0.0137692 0.0288448 0.0248424
v -0.00979 0.031058 0.027012
v -0.0263458 -0.0346847 0.0214253
v -0.0358312 -0.0239263 0.025994
v -0.0766146 0.0380775 0.0117399
v 0.031225 0.0278272 0.0208239
v 0.029911 0.02842 0.021015
v -0.0375487 -0.0417509 0.0276707
v -0.0324377 -0.0535524 0.0199695
v 0.0333364 0.00503173 0.0203089
v -0.0302022 0.0227298 0.0254188
v 0.0115192 0.0311053 0.0273946
v -0.0156595 0.028701 0.02695
v -0.0592774 -0.0306962 0.0151376
v -0.029637 0.014788 0.025723
v 0.0376706 -0.0245519 0.0240812
v -0.0295817 -0.00982753 0.0233685
v -0.0363314 -0.0252544 0.027503
v -0.037789 -0.024987 0.024708
v -0.0538464 -0.0202704 0.0301889
v -0.057492 0.025336 0.024269
v 0.0336965 -0.0041681 0.0209651
v 0.0394237 -0.0415273 0.0220432
v -0.0305133 0.0281627 0.0199854
v -0.0588755 -0.0229244 0.0258166
v 0.0349473 0.0116458 0.0155975
v -0.0409996 -0.0324213 0.0197485
v 0.0326301 0.0165751 0.0207741
v 0.0348725 0.0148335 0.0146789
v -0.0294402 0.00917879 0.0242525
v -0.0759986 -0.0280915 0.0264149
v -0.0934012 0.0284667 0.0259148
v 0.019525 -0.0345016 0.0278695
v 0.025208 0.028416 0.015066
v 0.0337641 0.0284217 0.0135187
v -0.017562 0.031036 0.022758
v 0.0334155 0.0101343 0.0209323
v -0.0142475 0.0320342 0.0241186
v 0.0302579 0.00661696 0.0253518
v -0.0750293 0.0330529 0.0180601
v -0.0196357 0.0328225 0.0214802
v -0.00607671 0.0283451 0.0266854
v -0.0462612 -0.0380942 0.0204367
v -0.0473185 -0.0415543 0.00269699
v -0.0592979 0.0246458 0.0237317
v -0.0470931 -0.0614016 0.00951318
v -0.0440614 -0.0540852 0.017275
v 0.0390006 -0.0236804 0.0194285
v 0.03561 5.45072e-05 0.0153434
v 0.0290636 0.0270928 0.0235624
v -0.0206001 0.0310512 0.018989
v 0.0367131 0.00157532 0.0147847
v 0.0367598 0.0111572 0.0147031
v 0.03508 -0.0224944 0.0245082
v 0.032484 0.033368 0.021832
v 0.032477 0.033493 0.021755
v 0.032462 0.033607 0.021662
v 0.0402391 -0.01492 0.0184615
v -0.021218 -0.0517497 0.00744695
v -0.0417863 -0.0317613 0.0193514
v 0.0316838 -0.00967105 0.0213072
v 0.034973 0.032598 0.020839
v 0.0345939 -0.0392046 0.0223042
v 0.0362996 0.0191023 0.0155365
v -0.049747 -0.0311786 0.0196069
v -0.0580879 0.0303026 0.0172855
v 0.0385329 0.0272773 0.0197684
v 0.0255624 0.036401 0.0150012
v -0.053922 0.032313 0.017135
v -0.0581543 -0.0290696 0.0192187
v 0.00237474 -0.0605019 0.0217418
v -0.011362 -0.0518704 0.0187294
v 0.00576122 -0.0556812 0.0184596
v 0.0331392 0.0338577 0.021138
v -0.00215568 -0.0568313 0.0194653
v -0.000412242 0.0370087 0.0142883
v 0.0396905 -0.041645 0.0202102
v -0.000110098 0.0366061 0.0191067
v 0.0424297 -0.041576 0.00682882
v -0.010906 -0.0568899 0.0163273
v 0.0317882 0.0288265 0.0190402
v 0.00876207 0.036547 0.015669
v -0.0413186 -0.0394686 0.0083571
v 0.0434706 -0.0156683 0.0126886
v 0.033115 0.028276 0.01833
v 0.0316387 0.0328363 0.0200221
v 0.0358323 0.036194 -0.00936195
v 0.0362224 -0.0119861 0.0181596
v -0.0244524 0.0310767 0.0141446
v -0.0596592 0.0235428 0.0115761
v -0.0226238 0.032749 0.0152591
v 0.038565 -0.022304 0.019201
v -0.0348281 0.029806 0.0200377
v 0.034552 0.016638 0.014452
v 0.0339755 0.027129 0.0188503
v 0.0395316 0.0268819 0.0186861
v 0.0307047 0.0329097 0.0186167
v -0.03807 0.0341095 0.0144895
v -0.0490174 -0.0357834 0.0107299
v -0.0931989 0.0357113 0.0143445
v 0.031045 0.030803 0.0191817
v 0.0390793 0.0203263 0.0184133
v -0.0541039 -0.0308698 0.0184951
v -0.0222748 0.0286637 0.0181785
v 0.0422863 -0.0145451 0.00632739
v -0.0333868 -0.0516947 0.00388921
v 0.036784 0.000373808 0.0146075
v -0.0398435 0.0348957 0.012661
v 0.0384416 0.0272894 0.00607779
v 0.0368196 0.0059033 0.0147724
v 0.0354209 0.00685582 0.0152981
v 0.0349436 0.0269388 0.0150957
v 0.0347066 0.00191372 0.0147111
v 0.0368316 0.0164273 0.0142041
v -0.0501938 0.0334385 0.0149787
v 0.0404625 0.0295143 0.0183661
v 0.0141966 -0.0597215 0.0146609
v -0.0190835 -0.0525541 0.00982078
v 0.037024 -0.00389838 0.0144202
v 0.0350601 -0.0050749 0.0142914
v 0.0345513 0.00491781 0.014683
v -0.0519698 0.0338486 0.0138457
v -0.051892 0.034334 0.012816
v -0.0525675 0.034884 0.0110312
v -0.053926 0.034348 0.012522
v 0.0353317 0.0094563 0.014356
v 0.039179 0.020485 0.016359
v 0.0151437 -0.054203 0.0126908
v -0.0309758 0.0328099 0.0116942
v -0.0168809 0.0360338 0.0149334
v -0.0277835 0.028232 0.00935697
v -0.038261 -0.0311809 0.017211
v 0.0393076 0.0234991 0.0160731
v 0.0385003 0.0268825 0.0149123
v -0.0763007 -0.0349038 0.0162996
v -0.0302365 0.0340382 0.00416046
v 0.039213 0.0263489 0.016059
v 0.0397192 0.0229823 0.0154066
v 0.036972 -0.010742 0.015371
v 0.0373201 0.0338081 0.0118158
v 0.0343612 -0.00950671 0.0156402
v 0.0375477 -0.0109141 0.0150768
v -0.0590809 0.0315798 0.014144
v 0.0399954 0.0272226 0.0151112
v -0.0279972 0.0285465 0.0139345
v 0.0382223 -0.0366846 0.0135727
v 0.036368 0.011361 0.014992
v 0.0389224 0.0250179 0.0150406
v 0.035966 0.006727 0.014969
v -0.0400687 0.0351489 0.0122408
v 0.0409531 -0.00703629 0.0141206
v 0.0389042 0.0251608 0.0145463
v -0.0261727 0.0283383 -0.00399471
v -0.0187848 0.0283387 -0.0171069
v -0.0198902 0.0282947 0.0158534
v 0.0287884 0.0284077 -0.0174899
v 0.0408683 -0.0100885 0.0149993
v 0.038731 0.020179 0.014297
v 0.035929 -0.003151 0.014804
v 0.0406644 0.0234721 0.0152394
v 0.036411 0.011392 0.014898
v 0.038889 -0.0307662 0.0113247
v 0.0383999 -0.0126398 0.0136215
v 0.0359574 0.00689733 0.0146979
v 0.036454 0.011434 0.014781
v -0.0510973 0.0338191 0.0139724
v 0.036084 0.006839 0.01472
v 0.035983 -0.003122 0.014683
v 0.0361277 0.0117254 0.0147151
v 0.036092 -0.003137 0.014634
v -0.0495968 0.0339439 0.0138222
v 0.0371606 0.0102926 0.0144452
v 0.0349491 0.0260324 0.013444
v 0.036233 -0.002967 0.014351
v 0.0369 0.015018 0.014238
v -0.050234 0.033563 0.014601
v 0.0350216 0.0194845 0.0140107
v 0.039362 0.02056 0.014249
v 0.0369 0.00134 0.014537
v 0.036679 0.011415 0.014594
v 0.0410791 0.0199094 0.0137663
v -0.051868 0.033614 0.014583
v 0.0369081 0.0113914 0.0144634
v -0.0500864 0.0341194 0.0135643
v -0.050047 0.034008 0.0135405
v -0.0508697 0.0341726 0.0132102
v -0.051871 0.033886 0.013668
v 0.036886 0.001446 0.014504
v 0.036903 0.011292 0.0145035
v 0.037099 0.001347 0.014425
v 0.0373163 0.00645296 0.0143995
v 0.0364894 0.0150211 0.0145794
v 0.0357605 0.00443234 0.0143378
v 0.0371661 0.00146077 0.0143878
v 0.0346944 -0.00161335 0.0139669
v 0.037318 0.016227 0.01396
v 0.034547 0.012681 0.014406
v 0.037401 0.005685 0.0143545
v 0.037674 0.00084 0.0143185
v 0.0405298 0.000622976 0.0141808
v 0.035266 -0.00314098 0.0151195
v 0.039078 0.020105 0.014053
v 0.0371515 0.0153515 0.01418
v 0.039062 0.020242 0.014155
v 0.0357783 -0.00604135 0.0140204
v 0.0410987 0.0247811 0.0145894
v 0.038965 0.020201 0.014163
v 0.0415733 -0.0113188 0.00952012
v 0.037057 -0.003682 0.014014
v 0.0366384 -0.00275641 0.0140245
v 0.039165 0.020287 0.01415
v 0.036939 -0.004445 0.013989
v 0.037521 -0.00392 0.013715
v 0.037368 0.015567 0.014097
v 0.0403065 0.0165989 0.0136578
v 0.0410491 0.0138317 0.0140033
v 0.0413416 -0.00574915 0.0130593
v 0.036856 -0.004479 0.014045
v 0.037184 -0.003789 0.013929
v 0.0375455 0.0157905 0.014034
v 0.037266 -0.003745 0.013874
v 0.037029 -0.00441 0.013932
v 0.0409088 -0.00419164 0.0134502
v 0.034269 -0.051558 -0.00404585
v 0.0157668 -0.0521415 0.0146539
v 0.0349629 -0.0345516 -0.003318
v 0.0364882 -0.00540068 0.0138135
v 0.035093 0.031011 0.008892
v -0.0385465 -0.0534803 -0.00288694
v 0.0406605 -0.0124037 0.0130034
v 0.037584 -0.004153 0.013709
v 0.0400657 -0.0366884 0.00618537
v 0.037702 -0.004151 0.01368
v 0.0378 -0.004126 0.013663
v -0.0517109 0.0342148 0.0129227
v 0.037962 -0.004138 0.013643
v -0.0435661 -0.0417128 0.0030725
v -0.0496818 0.034294 0.0130165
v 0.0413999 -0.0123959 0.00556509
v -0.0293322 0.0299585 0.00719571
v -0.027188 0.033738 0.0142285
v -0.0517925 0.0344002 0.0124848
v -0.027384 0.03103 0.00869
v -0.0495429 0.0346009 0.0120963
v -0.0510449 0.034445 0.0123766
v -0.05194 0.035648 0.008415
v -0.0540669 0.0347207 0.00802435
v -0.0502654 0.0350346 0.0107309
v -0.0519188 0.0347575 0.0113277
v -0.057935 0.0345447 0.00546983
v -0.0579814 -0.0342338 0.00677269
v 0.0175378 -0.0610511 0.0121674
v -0.0179814 -0.0577339 0.00762928
v 0.0395454 -0.0263129 0.00882368
v -0.0243958 0.036399 0.0107834
v 0.0411616 0.0256709 0.0121587
v -0.0600857 -0.0261208 0.00213134
v -0.0509838 0.0351855 0.0100204
v 0.0373204 0.0318724 0.00747245
v 0.0361767 -0.0177681 0.0107782
v 0.0370801 -0.0138068 0.00977989
v -0.053862 -0.034382 0.007114
v -0.0273878 0.031993 0.00482173
v -0.0505275 0.0355708 0.00870252
v 0.0363089 0.0327359 -0.000736887
v -0.0497035 0.0352709 0.00993328
v -0.0388909 -0.0479025 0.00508092
v 0.0370832 0.0274751 0.00456364
v -0.0334515 -0.0346841 -0.00614727
v 0.04076 0.025073 0.007309
v -0.0522215 0.0354196 0.00902906
v 0.0377173 -0.0165743 -0.00379335
v -0.0930657 -0.0374083 0.0114747
v -0.0931171 0.038023 0.00433686
v -0.0502617 0.035539 0.00890719
v -0.0512168 0.0356199 0.00837563
v -0.0520572 0.0355588 0.00834382
v -0.0516375 0.0356616 0.00815162
v -0.051517 0.035615 0.008138
v -0.051838 0.035615 0.008085
v -0.051291 0.035646 0.008036
v -0.052154 0.035708 0.007622
v -0.0497006 0.0359017 0.00745814
v -0.051891 0.035717 0.008076
v -0.052007 0.0357405 0.0079495
v 0.0215119 -0.0610431 0.000208194
v -0.0494966 0.0359925 0.00695272
v -0.0507973 0.0359381 0.00671639
v -0.051299 0.0357022 0.00805497
v 0.0400727 -0.0118931 0.00834751
v 0.0411607 0.0250836 0.00713218
v 0.0411111 0.0268172 -0.000834325
v -0.049938 0.036007 0.00703
v -0.052115 0.035942 0.006714
v -0.0498 0.035883 0.00717
v -0.049886 0.035915 0.007051
v -0.0474677 -0.0402412 -0.000277551
v 0.036504 0.0311536 0.00800273
v -0.0509934 0.0360596 0.00614067
v -0.0538963 0.0361373 0.00539976
v -0.0172612 0.0363156 -0.0151826
v -0.029033 0.0327854 0.00150337
v 0.040328 -0.029579 0.003297
v 0.0450227 -0.0157431 0.00236101
v -0.05209 0.036291 0.004746
v -0.051936 0.036086 0.005539
v 0.0421097 -0.0411844 -9.32053e-05
v -0.051973 0.036189 0.005514
v -0.059072 0.0345402 -0.000500062
v 0.020239 -0.0545654 -0.00199742
v -0.0205587 -0.060178 -0.000122853
v -0.0420134 0.0369163 0.00177281
v 0.0262186 0.0382215 0.0174325
v -0.0295504 0.0286489 -0.00309403
v -0.0280773 0.0287617 -0.00121625
v -0.028694 0.031031 0.000233
v -0.0277928 0.0317069 -0.00615426
v 0.0405199 -0.014344 0.000839787
v -0.0521148 0.036219 0.00462081
v -0.05179 0.036365 0.003601
v 0.0367818 0.0339612 0.000706478
v -0.0508333 0.0364077 0.00345285
v -0.0316528 0.0347137 -0.005497
v -0.051784 0.036365 0.003207
v -0.0518803 0.0364201 0.00313914
v -0.0499567 0.0364935 0.00310379
v 0.0192062 -0.0610893 -0.00842346
v 0.037378 0.0269782 -0.00116801
v -0.0490732 -0.0370895 -0.00247122
v -0.0519188 0.0364745 0.00232626
v -0.0539722 0.0358838 -0.00456246
v -0.0204527 -0.0522542 -0.00721171
v -0.0748368 0.0372917 -0.00258773
v -0.0751424 -0.0379517 0.00409907
v -0.0944466 0.0380658 0.00270769
v -0.0435076 -0.0351281 0.00263216
v -0.0601966 0.0238407 -0.00895524
v -0.0495996 0.0366129 0.000135734
v -0.052021 0.036484 0.000479
v -0.049803 0.036666 -0.000232
v -0.0521124 0.0366043 0.000260064
v -0.0417931 0.0368041 -0.00325075
v -0.0548106 -0.0364139 0.00343249
v -0.0302729 0.0339197 -0.00433814
v -0.0387575 0.0340218 -0.010435
v 0.0401279 -0.0368138 -0.00578624
v -0.0432805 -0.040868 -0.000927073
v 0.0412133 -0.0114866 -0.00786071
v -0.0746645 0.0255621 0.00161423
v 0.0361458 -0.0177522 -0.0105754
v 0.0200485 -0.0594646 -0.00250824
v -0.0537924 -0.0345806 -0.0122006
v -0.0502854 0.0364412 -0.00315607
v 0.0223658 -0.0519709 0.00047077
v 0.038468 -0.0615437 0.00194885
v 0.0334529 -0.0477484 -0.017919
v 0.0403146 -0.0134018 -0.00378102
v 0.0359908 0.028907 -0.00481784
v -0.047529 -0.041652 -0.02398
v -0.0421583 -0.0417265 -0.0105724
v -0.042823 -0.0615643 -0.0194315
v -0.0141715 -0.0517643 -0.0176646
v -0.0258943 0.0329081 -0.0135458
v -0.037884 -0.053908 -0.00887
v 0.037156 0.0320404 -0.000914344
v 0.0392638 0.0338649 -0.000230914
v -0.0407191 0.0361904 -0.0062732
v 0.0412786 0.0244202 -0.00763959
v 0.037428 -0.011877 -0.00701
v 0.0443178 -0.0153187 -0.0089374
v 0.0408073 0.0250794 -0.00715144
v -0.0226779 0.0303053 -0.0163452
v 0.0402282 -0.0122823 -0.00613162
v 0.0374714 0.0273182 -0.0102601
v -0.0291344 0.0304662 -0.0102202
v 0.0380059 0.0271521 -0.0140553
v -0.0218921 -0.034638 -0.0248707
v -0.0177438 -0.0595784 -0.00953494
v -0.0174587 -0.0605259 -0.0113891
v -0.0218333 -0.061672 -0.00744046
v -0.0573991 0.0322813 -0.0139711
v -0.0747895 -0.0359995 -0.00919004
v -0.0564818 -0.034191 -0.00930793
v -0.0926755 -0.0366894 -0.0116092
v -0.076139 0.0351256 -0.0157088
v 0.0408462 -0.0147724 -0.0170349
v -0.0745593 -0.0256414 -0.00724782
v -0.0595726 -0.0193658 -0.0162784
v 0.0399253 -0.0120924 -0.00859178
v -0.0201157 0.0327918 -0.0187064
v -0.05164 0.035815 -0.007407
v -0.0305831 0.0277597 -0.0205264
v 0.0365495 -0.0117423 -0.00974176
v 0.0408767 -0.0149832 -0.0185605
v -0.0524156 0.0356749 -0.00778974
v -0.052326 0.0353984 -0.00895119
v -0.0498395 0.0357262 -0.00819768
v 0.0147204 -0.0516906 -0.0167712
v 0.0411724 -0.0409543 -0.00830564
v 0.040138 -0.041276 -0.013318
v 0.0379355 -0.0414402 -0.0191166
v 0.017044 -0.061557 -0.015014
v 0.040414 -0.011787 -0.0082885
v 0.0370521 0.0272129 -0.00796614
v 0.0412044 -0.00546545 -0.0130917
v 0.0410474 -0.000582407 -0.0138274
v -0.0489415 0.0350213 -0.0108444
v -0.0238706 0.0283707 -0.0162247
v -0.093812 0.034894 -0.0139
v -0.076712 -0.0357252 -0.0151962
v -0.0925344 0.0362624 -0.0131097
v 0.0354792 0.0272994 -0.0153046
v 0.0414319 0.0250463 -0.0134415
v 0.0151539 -0.0533623 -0.0133406
v 0.0384519 -0.0244777 -0.0366544
v -0.0394582 -0.047876 -0.0387043
v -0.0296628 -0.047867 -0.023448
v 0.0434881 -0.0252768 -0.015151
v -0.0413913 -0.0351475 -0.00676749
v 0.042305 -0.04148 -0.018904
v 0.0386466 -0.0120964 -0.0142495
v -0.0539224 0.0322572 -0.0173318
v 0.041197 -0.0122352 -0.0120957
v -0.0174857 -0.0535497 -0.0109709
v 0.0154209 -0.059485 -0.0129429
v 0.0341138 0.033358 -0.0208161
v -0.0593953 0.0305625 -0.0148297
v -0.0591655 -0.0307125 -0.0148434
v -0.0367403 0.0325766 -0.0180184
v -0.0539685 0.035159 -0.00924255
v 0.0353186 0.0328282 -0.0139622
v -0.026148 0.033472 -0.015264
v -0.0261938 0.0310641 -0.0120537
v 0.0403178 0.0299925 -0.0177972
v 0.040682 -0.012071 -0.013413
v 0.000270134 0.0366083 -0.012868
v 0.00870225 0.0365607 -0.0157992
v 0.0304108 0.0329378 -0.018838
v 0.0408235 -0.0117294 -0.0139036
v -0.0485052 -0.0321541 -0.0187101
v -0.0315593 0.0310605 -0.0162554
v 0.0349152 0.0262284 -0.013842
v -0.034602 0.0289895 -0.020303
v 0.037709 -0.004243 -0.013397
v 0.036541 0.01726 -0.01344
v 0.037254 -0.003303 -0.013549
v 0.041068 0.0174741 -0.0130005
v 0.038007 -0.003981 -0.013395
v 0.0358447 -0.0054032 -0.0136398
v 0.037529 -0.004071 -0.013482
v 0.03752 -0.003882 -0.013498
v 0.03729 -0.004355 -0.013526
v 0.037558 -0.004165 -0.013463
v 0.037189 -0.0044 -0.013567
v 0.037093 -0.004443 -0.013609
v -0.0465424 -0.0541135 -0.0103934
v 0.0348506 0.0182251 -0.0129649
v -0.0596291 0.0125192 -0.0223577
v -0.0746508 0.0194937 -0.0161298
v 0.031647 0.031081 -0.017362
v 0.038504 0.019892 -0.013727
v 0.039388 0.020433 -0.013871
v 0.036971 -0.0044525 -0.013695
v 0.036985 -0.004334 -0.013752
v 0.037074 -0.004305 -0.013695
v 0.037412 0.016222 -0.013672
v 0.037304 0.016226 -0.013709
v 0.037204 0.016256 -0.013745
v 0.0368619 0.0165492 -0.0137242
v 0.037227 0.015956 -0.013827
v -0.000478265 0.0365024 -0.0171022
v 0.03762 0.015779 -0.01373
v 0.0370329 -0.00412171 -0.01379
v 0.040676 0.012897 -0.013951
v 0.034438 0.016635 -0.014438
v 0.036971 0.01502 -0.013932
v 0.037541 0.015708 -0.013755
v 0.037428 0.015788 -0.013778
v 0.037337 0.015649 -0.013822
v 0.036732 0.016496 -0.013835
v 0.039076 0.020256 -0.013849
v 0.0409086 -0.00856412 -0.0147162
v 0.036661 -8.9e-05 -0.014107
v 0.039173 0.020407 -0.01392
v 0.0389077 0.02027 -0.0139513
v 0.0404366 0.0224623 -0.0148304
v 0.038696 0.020183 -0.014018
v -0.0222079 0.0357967 -0.0184829
v 0.038594 0.020133 -0.014024
v 0.038772 0.020246 -0.014042
v 0.0388885 0.020747 -0.0154871
v 0.0348724 -0.00119821 -0.013614
v 0.037015 0.015622 -0.013994
v 0.0341264 -0.00327897 -0.0165257
v 0.037505 0.000843 -0.014069
v 0.037305 0.005679 -0.014095
v 0.037723 0.005944 -0.014048
v 0.036738 0.002087 -0.014116
v 0.037732 0.001091 -0.014052
v 0.037008 0.006362 -0.014169
v 0.037713 0.010884 -0.014044
v 0.036365 0.012238 -0.014115
v 0.037031 0.010236 -0.014114
v 0.035887 0.01665 -0.014161
v 0.0369779 0.0160886 -0.0141418
v 0.037526 0.001101 -0.014076
v 0.037625 0.001164 -0.014057
v 0.037517 0.006041 -0.014072
v 0.037616 0.006104 -0.014053
v 0.037507 0.010981 -0.014068
v 0.037606 0.011044 -0.014049
v 0.037413 0.001179 -0.014092
v 0.037404 0.006119 -0.014088
v 0.037394 0.011059 -0.014084
v 0.036622 0.011671 -0.014226
v 0.037255 0.006162 -0.014133
v 0.037245 0.011102 -0.014129
v 0.037325 0.001111 -0.014125
v 0.037216 0.001024 -0.014185
v 0.036199 0.004903 -0.014333
v 0.037077 0.000702 -0.014192
v 0.037207 0.000765 -0.014154
v 0.034798 0.00780218 -0.0139791
v 0.0352653 0.0146084 -0.0143878
v 0.036271 0.002016 -0.014324
v 0.036215 0.000114 -0.014412
v 0.041046 0.023475 -0.014611
v 0.036999 0.000618 -0.014207
v 0.0366806 0.0105015 -0.0145612
v 0.036928 0.001382 -0.014249
v 0.036878 0.005476 -0.014239
v 0.036524 0.000692 -0.014687
v 0.036853 0.001447 -0.014271
v 0.036781 0.00543 -0.01428
v 0.0410291 -0.0103636 -0.014646
v 0.035889 0.016625 -0.014259
v 0.036859 0.005597 -0.014303
v 0.03669 0.005386 -0.014321
v 0.036814 0.001369 -0.014342
v 0.0349275 0.0121482 -0.0141445
v 0.035893 0.01661 -0.014426
v 0.036694 0.005437 -0.014349
v 0.0366027 0.00611482 -0.0146696
v 0.036663 0.005519 -0.014439
v 0.036639 0.000491 -0.014397
v 0.0339626 -0.00320041 -0.0195759
v 0.0328184 -0.0035909 -0.0220517
v 0.0354444 0.00499708 -0.014899
v 0.0347134 0.00250864 -0.0138433
v 0.036563 0.000583 -0.014556
v -0.0381872 -0.0319145 -0.015842
v 0.0334826 0.0165417 -0.0207395
v 0.0268672 0.0345533 -0.0207713
v 0.036496 0.000488 -0.01455
v -0.0121473 -0.0615351 -0.0187488
v 0.040699 -0.014909 -0.01799
v 0.03769 0.0262783 -0.0147473
v 0.0408208 0.0250914 -0.0142586
v 0.03567 -0.00489405 -0.0145619
v 0.0325083 0.0268526 -0.0189869
v 0.0343494 0.00995596 -0.0148987
v -0.0554238 -0.0286111 -0.0212239
v 0.0407661 -0.0210947 -0.0203563
v 0.0386028 0.0254395 -0.0150571
v 0.0397383 0.024058 -0.0149073
v 0.0341476 -0.00939225 -0.0152795
v 0.0331405 0.000400358 -0.0212606
v 0.035254 0.000558 -0.017403
v 0.0362434 0.00172273 -0.0153709
v 0.0352842 0.00686259 -0.015327
v -0.00205724 0.0376801 -0.0218146
v 0.0130991 -0.0515675 -0.0318149
v 0.010413 -0.0602773 -0.0182469
v 0.00948498 -0.0552136 -0.0168166
v 0.0366941 -0.0106426 -0.0154986
v 0.041534 -0.041484 -0.019792
v 0.040428 -0.041486 -0.019957
v 0.0392562 0.0263451 -0.0179238
v -0.0945683 0.0339437 -0.0154641
v 0.029703 0.034097 -0.022209
v 0.0398837 0.0273134 -0.0183231
v 0.0377992 -0.0118767 -0.0147117
v 0.0394264 0.0204967 -0.0169371
v -0.0931677 -0.0318442 -0.0211891
v 0.0391551 0.0202225 -0.01794
v -0.020814 0.0291299 -0.0265425
v -0.0386695 -0.037015 -0.013218
v 0.031112 0.000107 -0.020867
v -0.00448509 0.0283958 -0.0261251
v 0.020024 0.036266 -0.01605
v -0.0152003 0.0328836 -0.0243599
v 0.00272159 0.0349013 -0.0254358
v -0.018528 0.028363 -0.02229
v -0.00742097 -0.0571236 -0.0179397
v 0.0328923 -0.0106574 -0.0223018
v -0.0546924 0.0280174 -0.0218949
v -0.0523808 -0.0301415 -0.0212114
v 0.00392624 -0.0615 -0.0223407
v -0.058938 -0.0228946 -0.0253421
v 0.0312223 0.0147233 -0.0213959
v 0.030311 0.0119479 -0.0230013
v -0.0381258 -0.0416309 -0.0265202
v 0.0399171 0.0268965 -0.0158921
v 0.0276267 -0.0615558 -0.02675
v -0.0225901 -0.0516373 -0.0266873
v 0.0346388 0.00512511 -0.0180715
v 0.031411 0.0160316 -0.0239745
v 0.0323176 0.0187428 -0.0186812
v 0.0315613 0.0284741 -0.019793
v -0.0366235 -0.0540409 -0.0292786
v 0.0353264 0.011085 -0.0175555
v 0.0296098 0.0308054 -0.0195674
v -0.0062799 -0.0604493 -0.0195064
v 0.006306 -0.052088 -0.02024
v 0.039993 -0.014662 -0.018421
v 0.02614 -0.00957298 -0.0276003
v -0.074765 -0.0305802 -0.0210823
v 0.029911 0.028847 -0.020708
v 0.0384252 -0.0145463 -0.0185925
v -0.0146241 0.0339453 -0.0263505
v 0.028627 0.028907 -0.019962
v 0.00233614 -0.053177 -0.0201079
v 0.039588 -0.041487 -0.020606
v 0.0353738 0.0271208 -0.0186077
v 0.0386318 -0.0231059 -0.0191794
v 0.0391755 0.0299272 -0.0191643
v -0.0146811 0.0295405 -0.0230236
v -0.0414782 -0.0322366 -0.0189843
v -0.076836 0.031303 -0.022137
v 0.0389026 -0.0239119 -0.0198591
v -0.0425602 -0.0417302 -0.0238975
v -0.00368858 -0.0518384 -0.0211768
v 0.00395 0.036994 -0.020234
v -0.017503 0.031071 -0.022506
v -0.0303429 0.0220965 -0.0266847
v -0.0325371 0.0293589 -0.0235263
v 0.03189 -0.00451682 -0.0229354
v -0.0159265 0.028648 -0.0235143
v 0.0315361 0.0304937 -0.0194791
v -0.0367092 0.0242784 -0.028564
v -0.0745983 -0.00742478 -0.0241318
v -0.0746778 -0.00365989 -0.0368082
v -0.0596055 -0.00548885 -0.0246258
v -0.0747306 0.011809 -0.0345339
v -0.0595443 0.0148526 -0.0299541
v -0.000436658 -0.0600804 -0.0202899
v -0.040815 -0.03235 -0.020309
v -0.0306679 -0.0535234 -0.0222542
v 0.00056967 0.0365589 -0.0206821
v -0.037215 -0.0414394 -0.0211423
v 0.005197 0.028868 -0.026664
v 0.00273 -0.051678 -0.021919
v -0.019956 0.033427 -0.022708
v 0.029113 0.028454 -0.021458
v 0.005301 0.031101 -0.027859
v -0.00501363 0.0328252 -0.0281535
v -0.0587388 0.0218053 -0.0263692
v 0.004252 0.032702 -0.027509
v 0.038503 -0.041485 -0.024979
v -0.057396 -0.025319 -0.024007
v -0.0421179 -0.0286295 -0.0233152
v -0.053907 0.024606 -0.026923
v 0.027151 -0.004886 -0.025707
v -0.00592755 -0.0616068 -0.0373136
v 0.008101 -0.061574 -0.036619
v 0.005604 0.028414 -0.027779
v 0.00107205 0.0286848 -0.0285081
v 0.0304435 -0.0389835 -0.0273804
v 0.0319065 -0.0414358 -0.0280067
v 0.0252922 0.0167725 -0.0276807
v 0.0291895 0.0272134 -0.0230412
v -0.0930021 0.0272367 -0.0272676
v -0.00378769 0.0337857 -0.0297828
v -0.059293 -0.00105513 -0.0342627
v -0.0751064 0.0280453 -0.0251154
v 0.0234478 0.0289785 -0.0252946
v 0.031979 -0.012376 -0.024614
v 0.0294019 0.0150944 -0.0258707
v 0.0354993 -0.0212962 -0.0343115
v 0.0310432 0.0066087 -0.0240544
v 0.0305011 0.000798899 -0.0249755
v -0.0104575 0.0288348 -0.0260338
v -0.0104753 0.0326646 -0.0240825
v 0.0287904 0.01081 -0.0269507
v -0.0402723 -0.0416507 -0.0370141
v 0.027105 -0.003066 -0.028118
v 0.0345686 -0.0174434 -0.0298443
v 0.007501 0.033631 -0.029029
v -0.024336 0.0259396 -0.0288115
v -0.0291385 0.0168684 -0.0241359
v -0.00909254 0.0283847 -0.0295135
v -0.0293583 -2.23516e-05 -0.0239696
v -0.0295253 -0.00313663 -0.0236099
v -0.0294286 0.00196507 -0.0242173
v -0.0294637 0.00881138 -0.0236754
v -0.0231074 -0.0537359 -0.0297954
v -0.0295779 -0.00972103 -0.0244893
v -0.0165615 0.0283263 -0.0313347
v -0.0109513 0.02891 -0.0271956
v -0.0289288 -0.0616664 -0.0365158
v -0.074624 0.00715409 -0.0240574
v 0.034118 -0.0220222 -0.0256721
v 0.026571 0.006878 -0.026264
v 0.024196 0.027361 -0.027512
v -0.0320521 0.0282683 -0.0256922
v -0.094127 -0.025208 -0.027262
v -0.0377629 -0.0248745 -0.0245781
v 0.0226057 0.0269717 -0.0295583
v -0.0540995 -0.020095 -0.0290347
v -0.0295188 0.0137518 -0.0235248
v -0.0295837 -0.00411908 -0.026316
v -0.0295969 0.000592067 -0.0263099
v -0.02962 0.006627 -0.025947
v -0.094282 0.024116 -0.027947
v 0.0273768 -0.0120063 -0.0328653
v -0.0416262 -0.026501 -0.025991
v -0.0292353 0.00490984 -0.0242356
v 0.0342063 -0.0230895 -0.026283
v 0.027047 0.0116638 -0.0283756
v 0.0290587 -0.0114438 -0.0278006
v 0.0363965 -0.0149592 -0.0265167
v -0.0128407 0.0311479 -0.0249716
v 0.00519 0.028415 -0.029815
v -0.0767621 -0.027012 -0.027404
v -0.0401126 -0.0201536 -0.0337739
v -0.00663769 0.0283756 -0.027949
v -0.0263951 -0.0368753 -0.0308615
v 0.0354891 -0.0414917 -0.0283286
v -0.0359084 -0.0238847 -0.0256333
v 0.024995 0.001953 -0.027745
v -0.0294745 -0.00495998 -0.0239234
v -0.0060832 0.0327569 -0.0271124
v -0.059237 -0.017343 -0.028561
v 0.039459 -0.0477113 -0.0388435
v 0.023649 -0.047761 -0.028999
v -0.029576 -0.017124 -0.030438
v -0.0296246 0.00508752 -0.0260037
v -0.033503 -0.023292 -0.027199
v 0.0244019 0.0146895 -0.0298132
v 0.0319784 0.00992207 -0.0221897
v -0.0295579 -0.011207 -0.0275112
v -0.0574799 0.0203194 -0.0284993
v -0.029621 0.016387 -0.026053
v -0.027182 0.024866 -0.029706
v -0.026523 0.00681717 -0.0284248
v -0.029596 0.0113386 -0.0264858
v -0.0272893 0.01 -0.0285411
v -0.00435912 0.0310322 -0.0269841
v -0.00283629 0.0311239 -0.0284216
v -0.0287683 -0.0541017 -0.0366227
v 0.0242533 -0.00313587 -0.0309249
v 0.027355 0.000673238 -0.0284695
v -0.024443 8.41259e-05 -0.0308385
v 0.0277501 0.00615432 -0.0282307
v -0.0182526 -0.00524103 -0.0337874
v -0.0250147 0.00505508 -0.0304699
v -0.042085 -0.022888 -0.028904
v -0.035303 -0.041624 -0.028878
v 0.0355702 -0.0246518 -0.0272587
v -0.0262735 -0.00340667 -0.029426
v 0.00357385 0.0302193 -0.0269728
v 0.0348197 -0.0205267 -0.0331365
v 0.0318283 -0.0236983 -0.0287649
v 0.022009 0.004985 -0.032108
v -0.053827 -0.01639 -0.032572
v -0.0926129 -0.023523 -0.0305748
v -0.0751422 -0.0217389 -0.0305211
v 0.0342602 -0.0238453 -0.0272628
v -0.0298185 -0.01985 -0.0288715
v -0.076359 0.0220395 -0.0312847
v -0.0329197 -0.0239327 -0.0281781
v 0.0272826 -0.00498441 -0.0278076
v -0.008525 0.033352 -0.028928
v 0.00247297 0.0292034 -0.0289889
v -0.0354725 -0.0252061 -0.0275809
v 0.0133486 0.00698294 -0.0354495
v 0.0129228 0.0119231 -0.0356507
v 0.0163483 -0.00291782 -0.0339632
v 0.0233369 0.0167364 -0.0311709
v 0.023757 -0.00442 -0.03137
v 0.0275728 0.00203573 -0.0271113
v 0.0236099 0.010259 -0.0313992
v -0.031341 -0.024439 -0.029328
v 0.0154031 0.00202409 -0.034325
v 0.023981 0.01121 -0.031167
v -0.020267 -0.000105 -0.031521
v -0.0182573 0.00977041 -0.0327777
v 0.0112714 -0.0477786 -0.0360628
v 0.00290782 0.0338751 -0.029831
v -0.00436285 0.0282196 -0.0362499
v -0.0120943 -0.0478167 -0.0361893
v 0.031798 -0.014071 -0.031711
v 0.030244 -0.024497 -0.030196
v -0.0286679 -0.0234751 -0.0319847
v -0.0229028 -0.0615249 -0.0298899
v 0.0163561 0.00997923 -0.0358216
v 0.0278178 -0.0232897 -0.0326801
v 0.029776 -0.024327 -0.030671
v -0.030368 -0.024614 -0.030196
v -0.0582223 -0.015662 -0.0309502
v -0.076735 -0.020779 -0.032226
v 0.029993 -0.041496 -0.031846
v -0.0238639 0.0110304 -0.0316585
v -0.022705 -0.010286 -0.032184
v -0.0307137 -0.0416172 -0.0308192
v -0.0924473 0.0233766 -0.0304575
v 0.0225919 1.1704e-06 -0.0299719
v 0.0177962 -0.0367888 -0.0367535
v -0.05748 0.014034 -0.031919
v -0.0202888 0.00170053 -0.0337342
v 0.0153994 0.0278552 -0.0328345
v -0.0295167 0.0163114 -0.0270396
v 0.03013 -0.024519 -0.030331
v 0.029924 -0.0245 -0.030539
v 0.028979 -0.024443 -0.031852
v 0.0236907 -0.0413917 -0.0352406
v 0.0121608 -0.00926919 -0.0357166
v 0.0191369 0.0117006 -0.0342947
v 0.0243784 0.00631518 -0.0309878
v 0.0209167 0.0158118 -0.0334606
v 0.024483 -0.011631 -0.0320267
v -0.0213508 -0.00953366 -0.0309986
v -0.0171072 0.00318197 -0.0334592
v -0.058762 0.00855 -0.033003
v -0.0218292 0.00665894 -0.0327187
v -0.0233155 -0.00405277 -0.0320207
v -0.0539484 0.0171643 -0.0311426
v -0.0157878 0.0272263 -0.0334637
v -0.0262449 0.0239851 -0.030878
v -0.0418373 -0.0172516 -0.0327108
v -0.0239225 0.0149116 -0.0313276
v -0.040979 -0.01796 -0.033044
v 0.0327754 -0.0183876 -0.0329139
v -0.053883 0.012268 -0.034337
v 0.0142685 0.00979971 -0.0346556
v 0.0143161 0.0147415 -0.0346284
v -0.0583463 -0.00832252 -0.0335627
v -0.0163234 -0.000287199 -0.0343307
v -0.057572 0.00904755 -0.03367
v -0.00551172 -0.0433986 -0.0324724
v 0.00843713 -0.0348571 -0.0326522
v 0.00467598 -0.0438178 -0.0325895
v -0.0757197 -0.0118754 -0.0363569
v -0.092538 0.016082 -0.034771
v -0.0370537 0.00758953 -0.0367818
v -0.018948 -0.004717 -0.034547
v 0.0194097 -0.00402181 -0.0343825
v -0.0248409 -0.0415342 -0.0349171
v 0.0225177 0.000548827 -0.0324011
v 0.018621 0.016751 -0.034326
v 0.00761439 -0.0378402 -0.039994
v -0.00770584 -0.0399737 -0.0409552
v -0.030456 -0.0613317 -0.0362707
v -0.017521 0.00994447 -0.0352619
v 0.017691 0.000605 -0.035194
v -0.006601 -0.04144 -0.041791
v 0.00659354 -0.0414033 -0.0420711
v -0.0209197 -0.0109104 -0.0343645
v 0.0101127 0.0260904 -0.0361063
v -0.00609299 -0.0423397 -0.0461686
v 0.00279626 -0.0454219 -0.0469492
v -0.0288153 -0.0244226 -0.032523
v 0.0176285 -0.0108603 -0.0360646
v -0.0191985 0.0116124 -0.0343716
v -0.0186189 0.0168843 -0.0332996
v -0.0538523 -0.00236974 -0.0366503
v 0.000233 -0.045377 -0.03293
v 0.013096 -0.005036 -0.035073
v -0.0139106 0.00199524 -0.0362918
v -0.0171356 -0.00286974 -0.0344328
v -0.0181422 0.0147025 -0.0329199
v -0.016803 0.014771 -0.035307
v -0.07545 -0.012254 -0.035496
v -0.0141217 0.00470097 -0.0355448
v -0.0264974 -0.0229493 -0.0339761
v 0.0180724 -0.000238382 -0.0338971
v 0.0200077 -0.0232385 -0.0382285
v 0.0194502 0.00515762 -0.0341961
v -0.0541749 -0.00796052 -0.0344536
v -0.0196494 0.00577417 -0.034423
v 0.0279296 -0.0414895 -0.0371057
v 0.009686 0.027371 -0.035345
v 0.0274004 -0.0236512 -0.0337475
v -0.017465 0.0164 -0.035327
v -0.0164593 0.0158838 -0.0361246
v 0.016261 -0.003252 -0.035793
v -0.027796 -0.02421 -0.034249
v -0.022386 0.0206237 -0.0342984
v 0.032881 -0.020505 -0.034839
v 0.0143849 0.0149255 -0.0365409
v -0.0204627 -0.0398456 -0.0362635
v 0.0167654 0.00684431 -0.0354415
v -0.092416 -0.014319 -0.035565
v -0.00585665 0.0268526 -0.0370475
v -0.0153121 0.0066979 -0.0362167
v 0.011636 0.011878 -0.037189
v -0.057437 -0.0035 -0.034682
v -0.0542611 0.00138934 -0.0353346
v -0.00984314 -0.00922498 -0.036361
v 0.0259393 -0.0250044 -0.0370853
v -0.0935743 -0.0102709 -0.0364679
v -0.094132 0.008614 -0.036139
v -0.0395255 -0.0144724 -0.0351238
v 0.0277788 -0.0245756 -0.0349001
v -0.0265733 -0.0247271 -0.0362956
v -0.006686 -0.047804 -0.046449
v 0.0171428 -0.00959845 -0.0347373
v -0.00773441 -0.000152537 -0.0384222
v -0.00726122 0.00969739 -0.0368307
v -0.0278216 -0.0415922 -0.03724
v 0.0157784 0.00175261 -0.0361621
v -0.0131608 0.00505317 -0.0371065
v -0.0924635 0.0076244 -0.0376516
v -0.0758965 0.0140846 -0.0354184
v -0.008429 0.002043 -0.036497
v -0.021123 0.000724312 -0.0337923
v 0.0233363 -0.0114442 -0.0381594
v -0.0124339 -0.00320105 -0.0373687
v 0.00475 0.027562 -0.036157
v -0.014136 -0.00994 -0.03656
v -0.014628 -0.004562 -0.036612
v -0.0122607 0.0116462 -0.0374304
v -0.00725747 0.0076957 -0.0426899
v -0.00892933 0.0144048 -0.0372584
v -0.0399071 -0.00913945 -0.0358938
v 0.0185836 0.0047357 -0.0336433
v -0.0929956 -0.00509063 -0.0378743
v -0.075484 0.005429 -0.037139
v 0.00301515 -0.000277291 -0.0383831
v -0.014362 0.00709252 -0.0352699
v 0.0283363 -0.0140367 -0.0349434
v -0.0271099 -0.0252839 -0.0362379
v 0.0140438 0.00565646 -0.0368974
v 0.0288065 -0.0209098 -0.0368536
v 0.0148242 0.0107986 -0.0365516
v -0.00412497 -0.00152753 -0.0372321
v -0.004329 0.007034 -0.037225
v -0.0142909 0.0118624 -0.0355138
v 0.0099545 -0.00310712 -0.0381455
v 0.012593 0.000324 -0.037245
v 0.00111233 0.00941733 -0.0379762
v -0.004263 0.016924 -0.037211
v 0.0361052 -0.0232431 -0.0374792
v -0.0944786 -0.0034759 -0.0369588
v 0.012011 -0.00491988 -0.0373797
v 0.00292938 0.00347586 -0.0373451
v -0.004624 0.011892 -0.038777
v -0.00511 0.014627 -0.03708
v 0.0142672 0.0168619 -0.0363006
v -0.0767066 0.000903735 -0.0384589
v 0.016854 -0.022223 -0.039191
v -0.00384672 -0.0094449 -0.0390682
v 0.000584 -0.009022 -0.037412
v -0.011024 0.010122 -0.037812
v -0.0055408 0.00148114 -0.0394406
v -0.011258 0.006345 -0.037781
v 0.008184 -0.009942 -0.038566
v -0.0367636 -0.00485991 -0.0374773
v -0.0108802 -0.00493488 -0.0377167
v 0.00433586 0.00182471 -0.0390775
v -0.0027371 0.0117644 -0.0392875
v -0.00299764 0.00326962 -0.037225
v 0.00368477 0.00472657 -0.0384873
v -0.0375787 -0.0416237 -0.0400711
v -0.0202454 -0.0238669 -0.0385505
v -0.0129002 -0.0105837 -0.0378234
v 0.00112322 -0.00530505 -0.037796
v 0.008808 0.000332 -0.038361
v 0.038565 -0.0296511 -0.0385377
v 0.00290188 -0.0477845 -0.046943
v -0.00298087 0.0168324 -0.0392512
v 0.009936 0.006572 -0.038046
v -0.009636 0.003235 -0.042718
v 0.0103928 0.0115606 -0.0380461
v -0.001516 0.006936 -0.039076
v -0.00357545 0.00222156 -0.0389544
v 0.00660452 0.015427 -0.0389686
v 0.003421 0.002241 -0.038844
v 0.00305679 0.00357635 -0.0392501
v -0.003306 0.002822 -0.039185
v -0.00419421 -0.00273482 -0.0382753
v 0.00409272 0.0144036 -0.0378503
v 0.000935055 0.00685161 -0.0393107
v -0.000149 0.006959 -0.039344
v 0.015811 -0.00801294 -0.0412558
v -0.009004 0.016259 -0.03837
v -0.092487 0.000128 -0.038289
v 0.0177232 -0.0239451 -0.0424391
v -0.0118562 0.0116607 -0.040775
v 0.00617036 0.00681729 -0.0387788
v 0.0071 0.010111 -0.038649
v 0.00882344 -0.011545 -0.0395821
v -0.006467 -0.003389 -0.038879
v -0.00416388 0.00155105 -0.0391976
v -0.00438165 -0.00478339 -0.0391827
v 0.005815 0.016488 -0.038893
v 0.004568 -0.003002 -0.038943
v -0.00891256 0.0152169 -0.0384418
v 0.0369499 -0.0253381 -0.0386086
v 0.0244855 -0.0233671 -0.0401885
v 0.003886 -0.009948 -0.039303
v 0.00295199 0.0109669 -0.0394453
v 0.0207006 -0.00997428 -0.0367576
v 0.000121 1.7e-05 -0.039249
v 0.00316531 0.00207758 -0.0391162
v -0.001046 -0.0106375 -0.0401896
v -0.00363403 0.00474943 -0.0390701
v -0.00492056 0.00987626 -0.039098
v -0.002805 -0.003135 -0.039207
v 0.00250679 -0.00376426 -0.039463
v -0.00291856 0.015908 -0.0394867
v -0.00282981 0.000442946 -0.0393703
v 0.037219 -0.041479 -0.040029
v 0.0032132 0.00496657 -0.0391913
v -0.0060455 0.00581086 -0.0391343
v 0.000577 0.016549 -0.039319
v 0.003108 0.0047 -0.039158
v 0.003 0.004543 -0.039243
v -0.001326 0.00673 -0.039291
v -0.001404 0.006626 -0.039331
v -0.000639 0.0004395 -0.0393575
v -0.0015 0.006583 -0.039341
v -0.0121433 -0.0108692 -0.038661
v -0.00814264 0.00962185 -0.0406253
v 0.0114883 -0.0415711 -0.041926
v -0.00899581 -0.0414968 -0.0423713
v -0.00770734 -0.0362015 -0.0427012
v 0.00996305 -0.00460003 -0.0406063
v 0.00724492 -0.00295384 -0.0430143
v 0.00648 -0.041532 -0.046582
v -0.0067932 -0.0413585 -0.0465246
v -0.001641 0.004165 -0.042597
v 0.0057976 -0.0324313 -0.0428142
v -0.00237733 -0.0303567 -0.0430525
v 0.0117077 -0.00689152 -0.0430664
v 0.00703247 -0.0409706 -0.0430377
v -0.000172 0.002474 -0.043426
v 0.0079602 -0.0401171 -0.0460898
v 0.006111 -0.033457 -0.045925
v -0.00592169 -0.0319632 -0.0459393
v 0.00319881 -0.0308242 -0.0460435
v 0.000136123 0.00152032 -0.0438794
f 1 4 2
f 3 16 2
f 4 3 2
f 13 39 2
f 39 43 2
f 43 1 2
f 4 5 3
f 5 6 3
f 7 13 2
f 36 16 3
f 8 13 7
f 14 22 9
f 22 20 9
f 71 11 6
f 11 3 6
f 12 8 7
f 2 12 7
f 15 6 5
f 15 10 9
f 8 14 13
f 10 13 9
f 14 9 13
f 6 15 9
f 20 6 9
f 18 14 8
f 11 36 3
f 16 17 2
f 17 12 2
f 20 71 6
f 12 127 8
f 127 18 8
f 28 14 18
f 28 22 14
f 19 39 13
f 24 15 5
f 27 28 18
f 13 25 19
f 15 25 10
f 23 22 28
f 25 13 10
f 24 25 15
f 26 29 20
f 23 25 22
f 25 20 22
f 4 30 5
f 21 26 20
f 29 71 20
f 19 37 39
f 25 120 19
f 25 26 21
f 20 25 21
f 45 31 24
f 31 25 24
f 30 24 5
f 111 25 23
f 251 29 26
f 34 41 46
f 33 34 46
f 32 35 33
f 127 27 18
f 163 37 19
f 29 38 71
f 35 34 33
f 44 46 41
f 40 32 33
f 124 41 34
f 42 40 33
f 39 124 34
f 1145 43 34
f 43 39 34
f 35 1145 34
f 17 127 12
f 46 30 33
f 30 42 33
f 4 42 30
f 188 45 24
f 157 188 24
f 120 163 19
f 37 124 39
f 25 31 26
f 111 120 25
f 47 48 50
f 50 54 47
f 30 145 24
f 55 54 50
f 55 56 54
f 57 47 54
f 72 59 48
f 59 60 48
f 60 61 48
f 61 62 48
f 62 63 48
f 63 50 48
f 64 47 57
f 54 64 57
f 55 57 56
f 57 54 56
f 63 65 50
f 57 66 54
f 66 67 54
f 64 68 47
f 68 69 47
f 69 70 47
f 67 64 54
f 68 64 54
f 67 68 54
f 56 66 57
f 57 66 67
f 89 92 51
f 70 73 47
f 73 112 47
f 66 74 67
f 57 74 66
f 75 65 63
f 56 74 57
f 125 75 63
f 74 68 67
f 76 65 75
f 77 70 73
f 70 77 73
f 76 50 65
f 55 74 56
f 50 74 55
f 78 79 68
f 74 78 68
f 68 85 69
f 125 76 65
f 75 125 65
f 80 81 73
f 62 82 63
f 70 80 73
f 77 80 70
f 78 83 79
f 78 84 79
f 84 68 79
f 74 83 78
f 62 63 82
f 125 50 76
f 84 85 68
f 62 82 63
f 112 86 47
f 86 48 47
f 86 72 48
f 83 84 78
f 69 87 70
f 58 104 53
f 121 88 61
f 60 121 61
f 90 11 71
f 88 82 61
f 82 62 61
f 83 74 84
f 70 81 80
f 88 62 82
f 110 52 49
f 58 53 91
f 52 93 49
f 121 82 88
f 94 81 70
f 95 60 59
f 108 87 69
f 94 96 81
f 98 134 49
f 93 98 49
f 50 84 74
f 99 81 96
f 162 44 41
f 85 108 69
f 97 95 59
f 94 99 96
f 101 60 95
f 87 96 94
f 70 87 94
f 59 101 95
f 87 99 96
f 97 101 59
f 72 105 59
f 106 107 73
f 131 105 72
f 81 106 73
f 107 112 73
f 100 92 89
f 87 81 99
f 59 101 97
f 82 117 63
f 137 85 84
f 124 135 41
f 105 101 59
f 46 102 30
f 103 51 92
f 109 106 81
f 85 87 108
f 81 107 106
f 72 101 105
f 105 101 72
f 87 109 81
f 109 107 81
f 87 107 109
f 131 101 105
f 140 58 91
f 167 133 92
f 58 116 104
f 133 103 92
f 113 100 89
f 50 137 84
f 114 110 49
f 100 167 92
f 135 162 41
f 136 131 72
f 103 148 51
f 104 115 53
f 24 118 157
f 147 89 51
f 119 125 63
f 86 136 72
f 115 91 53
f 101 121 60
f 131 121 101
f 121 117 82
f 137 212 85
f 102 145 30
f 44 102 46
f 122 93 52
f 140 156 58
f 111 23 28
f 119 150 125
f 212 152 85
f 132 123 214
f 190 28 27
f 110 126 52
f 128 112 107
f 153 127 17
f 190 111 28
f 129 51 148
f 130 214 123
f 168 116 58
f 129 147 51
f 113 154 100
f 87 128 107
f 117 119 63
f 147 113 89
f 132 138 123
f 214 139 132
f 201 126 110
f 201 122 52
f 126 201 52
f 156 168 58
f 114 201 110
f 176 86 112
f 31 251 26
f 120 263 163
f 112 159 176
f 86 49 134
f 103 133 50
f 91 143 182
f 135 217 162
f 138 270 123
f 188 141 45
f 123 144 130
f 50 125 103
f 85 128 87
f 131 117 121
f 217 93 162
f 127 146 27
f 122 162 93
f 16 36 142
f 273 136 86
f 91 149 143
f 117 150 119
f 115 174 91
f 91 155 140
f 154 173 100
f 247 100 173
f 571 36 11
f 151 91 182
f 247 167 100
f 132 204 138
f 160 204 132
f 158 161 29
f 213 146 127
f 141 31 45
f 174 149 91
f 168 113 116
f 164 158 29
f 213 27 146
f 113 104 116
f 166 160 132
f 273 86 134
f 50 167 137
f 169 86 176
f 231 123 270
f 171 141 188
f 201 162 122
f 148 147 129
f 104 174 115
f 215 156 140
f 175 184 142
f 98 206 134
f 145 118 24
f 93 206 98
f 155 91 151
f 71 211 90
f 210 135 124
f 178 571 11
f 90 178 11
f 179 177 17
f 16 179 17
f 180 211 71
f 38 180 71
f 177 181 17
f 181 153 17
f 239 16 142
f 184 239 142
f 234 165 170
f 209 234 170
f 185 190 27
f 226 131 136
f 186 125 150
f 187 159 112
f 149 182 143
f 139 189 132
f 191 209 170
f 273 203 136
f 251 164 29
f 181 127 153
f 152 128 85
f 193 149 174
f 162 183 44
f 217 294 93
f 29 180 38
f 194 172 37
f 163 194 37
f 181 195 127
f 197 1248 270
f 1248 196 270
f 883 197 270
f 198 199 270
f 196 198 270
f 195 213 127
f 210 257 135
f 223 152 212
f 169 49 86
f 167 50 133
f 324 208 161
f 208 29 161
f 144 214 130
f 172 202 37
f 213 185 27
f 111 263 120
f 104 192 174
f 231 144 123
f 189 166 132
f 186 103 125
f 147 104 113
f 226 117 131
f 207 102 44
f 264 200 139
f 200 189 139
f 202 124 37
f 147 192 104
f 128 187 112
f 204 270 138
f 117 237 150
f 29 208 180
f 205 161 158
f 222 205 158
f 209 175 142
f 36 209 142
f 299 201 114
f 164 222 158
f 49 299 114
f 167 212 137
f 199 231 270
f 216 161 205
f 207 145 102
f 257 217 135
f 157 235 188
f 222 216 205
f 287 186 150
f 236 147 148
f 226 136 203
f 206 273 134
f 118 235 157
f 251 219 164
f 183 207 44
f 149 258 182
f 188 235 171
f 274 162 201
f 218 251 31
f 274 221 162
f 169 299 49
f 218 31 141
f 299 232 201
f 232 295 201
f 268 247 173
f 215 168 156
f 159 187 176
f 154 268 173
f 294 206 93
f 295 274 201
f 103 225 148
f 263 220 163
f 220 194 163
f 213 190 185
f 111 362 263
f 227 1 228
f 229 227 228
f 227 4 1
f 113 268 154
f 155 215 140
f 186 287 103
f 287 225 103
f 230 324 161
f 43 228 1
f 221 183 162
f 182 224 151
f 240 257 210
f 335 214 144
f 233 40 42
f 4 233 42
f 1145 337 43
f 191 175 209
f 36 234 209
f 258 317 182
f 160 336 204
f 237 343 150
f 337 228 43
f 167 223 212
f 301 152 223
f 225 236 148
f 335 139 214
f 166 189 160
f 235 141 171
f 252 174 192
f 240 210 124
f 230 161 216
f 242 230 216
f 164 284 222
f 128 241 187
f 334 167 247
f 229 376 227
f 343 287 150
f 152 241 128
f 241 297 187
f 244 218 141
f 231 238 144
f 155 245 215
f 277 216 222
f 195 271 213
f 246 111 190
f 248 180 208
f 145 281 118
f 329 242 216
f 296 168 215
f 336 270 204
f 301 223 167
f 220 263 194
f 151 245 155
f 118 249 235
f 235 249 141
f 354 193 174
f 365 217 257
f 249 244 141
f 261 249 118
f 219 284 164
f 213 246 190
f 243 113 168
f 284 349 222
f 182 272 224
f 221 207 183
f 277 276 216
f 349 277 222
f 253 218 244
f 254 253 244
f 263 278 194
f 252 289 174
f 194 202 172
f 324 248 208
f 354 149 193
f 117 260 237
f 261 244 249
f 294 293 206
f 307 4 227
f 307 233 4
f 113 262 268
f 170 350 191
f 314 117 226
f 262 113 243
f 332 174 289
f 271 265 213
f 238 335 144
f 350 266 191
f 265 246 213
f 281 312 118
f 312 322 118
f 322 261 118
f 253 315 218
f 194 124 202
f 272 245 151
f 358 263 362
f 301 241 152
f 617 279 258
f 314 260 117
f 266 684 191
f 684 275 191
f 275 175 191
f 259 617 258
f 224 272 151
f 279 317 258
f 254 145 207
f 245 296 215
f 315 250 218
f 317 272 182
f 280 259 258
f 149 280 258
f 330 147 236
f 242 324 230
f 290 284 219
f 505 273 206
f 292 282 283
f 330 192 147
f 308 244 261
f 280 378 259
f 278 303 194
f 256 286 203
f 225 285 236
f 286 255 203
f 255 226 203
f 260 343 237
f 288 283 282
f 255 286 226
f 251 290 219
f 291 292 283
f 268 267 247
f 378 617 259
f 269 301 167
f 299 169 176
f 332 354 174
f 297 176 187
f 299 295 232
f 351 350 170
f 165 351 170
f 287 341 225
f 285 330 236
f 617 298 279
f 244 145 254
f 273 256 203
f 244 436 145
f 436 281 145
f 254 295 253
f 297 269 253
f 268 296 253
f 269 268 253
f 295 297 253
f 365 294 217
f 298 317 279
f 234 313 165
f 382 300 292
f 263 358 278
f 304 291 283
f 305 304 283
f 306 342 302
f 529 229 228
f 342 306 302
f 309 336 160
f 308 261 322
f 292 310 282
f 310 311 282
f 311 288 282
f 390 310 292
f 36 313 234
f 358 303 278
f 344 309 160
f 189 344 160
f 367 124 194
f 304 292 291
f 311 385 288
f 367 392 124
f 392 240 124
f 246 265 111
f 305 283 302
f 288 316 283
f 316 302 283
f 207 321 254
f 300 390 292
f 265 362 111
f 296 319 168
f 316 401 302
f 342 305 302
f 358 320 303
f 216 318 329
f 192 332 252
f 267 334 247
f 319 243 168
f 297 299 176
f 221 321 207
f 323 308 322
f 329 324 242
f 290 325 284
f 326 206 293
f 365 257 240
f 274 321 221
f 303 327 194
f 276 318 216
f 394 277 349
f 325 349 284
f 295 299 297
f 405 316 288
f 385 405 288
f 254 321 295
f 321 274 295
f 269 267 268
f 297 301 269
f 308 436 244
f 346 342 302
f 417 226 286
f 268 319 296
f 571 313 36
f 180 331 211
f 345 292 304
f 326 293 294
f 639 883 270
f 239 179 16
f 333 192 330
f 250 251 218
f 434 382 292
f 167 334 269
f 334 267 269
f 262 243 268
f 243 319 268
f 245 253 296
f 181 271 195
f 248 331 180
f 327 381 194
f 407 248 324
f 381 367 194
f 320 327 303
f 317 328 272
f 345 434 292
f 401 346 302
f 417 314 226
f 245 315 253
f 338 459 346
f 339 338 346
f 401 339 346
f 323 436 308
f 312 323 322
f 264 277 200
f 264 276 277
f 315 245 272
f 341 285 225
f 314 343 260
f 328 315 272
f 436 323 312
f 447 394 349
f 331 347 211
f 252 332 289
f 241 301 297
f 392 365 240
f 348 90 347
f 348 178 90
f 211 347 90
f 326 505 206
f 231 199 238
f 354 280 149
f 313 351 165
f 320 352 327
f 408 345 304
f 353 273 505
f 424 294 365
f 424 326 294
f 353 256 273
f 298 449 317
f 449 328 317
f 374 324 329
f 290 349 325
f 340 355 342
f 346 395 342
f 342 355 340
f 332 310 354
f 415 287 343
f 192 418 332
f 250 402 251
f 341 357 285
f 314 415 343
f 353 356 256
f 356 286 256
f 374 407 324
f 352 320 358
f 359 360 280
f 360 361 280
f 361 378 280
f 439 335 238
f 309 404 336
f 315 328 250
f 277 394 200
f 333 496 192
f 356 417 286
f 445 424 365
f 397 402 250
f 328 397 250
f 376 363 227
f 355 305 342
f 364 331 248
f 238 199 577
f 366 359 280
f 366 360 359
f 361 360 359
f 366 361 360
f 332 368 310
f 402 290 251
f 407 369 248
f 369 364 248
f 336 639 270
f 366 378 361
f 290 370 349
f 388 362 265
f 175 375 184
f 399 371 354
f 310 399 354
f 371 420 354
f 420 280 354
f 300 372 390
f 402 373 290
f 405 401 316
f 425 314 417
f 545 449 298
f 420 366 280
f 318 374 329
f 271 388 265
f 200 344 189
f 379 377 375
f 377 379 229
f 352 381 327
f 368 399 310
f 387 312 281
f 386 372 300
f 529 377 229
f 379 384 229
f 384 376 229
f 459 395 346
f 399 385 310
f 385 311 310
f 382 386 300
f 380 386 382
f 496 418 192
f 375 384 379
f 181 388 271
f 436 387 281
f 450 392 367
f 391 875 617
f 305 408 304
f 395 393 355
f 342 395 355
f 875 298 617
f 396 352 358
f 390 389 310
f 406 399 368
f 275 375 175
f 352 362 381
f 364 347 331
f 362 396 358
f 399 400 371
f 420 378 366
f 400 399 406
f 392 445 365
f 400 420 371
f 347 364 369
f 403 347 369
f 407 403 369
f 396 362 352
f 447 370 290
f 398 368 332
f 404 639 336
f 439 638 335
f 375 556 184
f 381 450 367
f 448 420 400
f 383 450 381
f 275 384 375
f 377 421 375
f 638 139 335
f 388 409 362
f 406 441 400
f 441 448 400
f 410 307 227
f 363 410 227
f 1145 530 337
f 530 228 337
f 638 264 139
f 200 653 344
f 370 447 349
f 413 310 389
f 390 413 389
f 473 285 357
f 563 413 390
f 362 383 381
f 409 383 362
f 497 414 314
f 416 385 399
f 416 572 385
f 572 405 385
f 602 401 405
f 314 414 415
f 430 357 341
f 353 411 356
f 287 430 341
f 473 330 285
f 529 421 377
f 372 563 390
f 659 179 239
f 184 556 239
f 556 659 239
f 419 373 402
f 413 399 310
f 421 556 375
f 384 422 376
f 423 505 326
f 450 467 392
f 435 544 408
f 544 345 408
f 424 423 326
f 425 497 314
f 647 403 407
f 419 426 373
f 426 539 373
f 539 427 373
f 427 428 373
f 428 429 373
f 429 551 373
f 551 290 373
f 430 287 415
f 418 398 332
f 541 312 387
f 368 431 406
f 431 441 406
f 328 433 397
f 551 447 290
f 432 421 529
f 437 441 431
f 481 368 398
f 569 339 401
f 444 378 420
f 541 436 312
f 441 438 448
f 368 437 431
f 440 433 328
f 355 408 305
f 368 442 437
f 393 408 355
f 392 443 445
f 442 441 437
f 448 444 420
f 444 617 378
f 392 446 443
f 467 446 392
f 374 318 407
f 399 448 416
f 413 448 399
f 443 446 445
f 449 440 328
f 446 461 445
f 451 473 357
f 452 441 442
f 416 438 441
f 544 434 345
f 414 453 415
f 402 454 412
f 461 455 445
f 456 416 441
f 442 456 452
f 458 457 459
f 434 605 459
f 605 458 459
f 338 386 459
f 386 382 459
f 382 434 459
f 339 460 338
f 372 386 338
f 460 372 338
f 386 380 382
f 462 442 368
f 452 456 441
f 423 463 505
f 298 559 545
f 357 465 451
f 330 501 333
f 465 473 451
f 414 468 453
f 464 456 442
f 470 426 419
f 453 468 415
f 465 469 451
f 357 469 465
f 468 471 453
f 469 473 465
f 472 463 423
f 414 471 468
f 474 472 423
f 463 472 505
f 448 438 416
f 402 475 419
f 477 416 456
f 466 467 450
f 467 461 446
f 472 474 463
f 485 510 464
f 509 424 445
f 455 509 445
f 480 470 419
f 499 353 505
f 472 478 505
f 357 473 469
f 475 480 419
f 481 462 368
f 430 476 357
f 462 482 442
f 422 363 376
f 411 483 356
f 474 478 472
f 357 484 473
f 460 857 372
f 414 468 471
f 499 411 353
f 485 464 442
f 482 485 442
f 484 487 473
f 333 479 496
f 487 484 357
f 475 488 480
f 488 489 480
f 488 470 480
f 488 489 480
f 423 478 474
f 477 572 416
f 470 490 486
f 490 426 486
f 426 491 486
f 483 492 356
f 493 487 484
f 357 493 487
f 411 494 483
f 494 492 483
f 483 498 492
f 414 495 468
f 468 430 415
f 497 495 414
f 498 356 492
f 426 470 486
f 494 498 483
f 495 430 468
f 497 417 356
f 357 476 493
f 411 498 494
f 504 411 499
f 498 497 356
f 476 487 493
f 473 501 330
f 497 425 417
f 520 333 501
f 497 502 495
f 487 501 473
f 467 534 461
f 495 476 430
f 487 520 501
f 504 495 502
f 503 498 411
f 504 497 498
f 520 476 495
f 476 520 487
f 497 504 502
f 504 520 495
f 503 504 498
f 411 504 503
f 506 485 482
f 507 496 479
f 508 482 462
f 514 504 499
f 461 521 455
f 398 418 481
f 511 508 462
f 500 418 496
f 276 561 318
f 534 512 461
f 510 456 464
f 412 542 402
f 513 514 423
f 508 515 482
f 520 479 333
f 506 511 462
f 516 517 423
f 542 475 402
f 511 515 508
f 514 478 423
f 518 507 479
f 506 462 481
f 506 482 515
f 506 515 508
f 511 506 508
f 403 348 347
f 518 496 507
f 505 514 499
f 514 527 504
f 519 500 520
f 521 520 504
f 522 516 423
f 512 521 461
f 517 523 423
f 523 513 423
f 518 524 496
f 523 525 513
f 524 500 496
f 479 520 518
f 516 526 522
f 520 524 518
f 478 514 505
f 526 517 516
f 423 531 522
f 531 516 522
f 523 514 513
f 481 485 506
f 424 531 423
f 531 526 516
f 527 521 504
f 520 500 524
f 528 529 228
f 530 528 228
f 509 531 424
f 517 525 523
f 525 514 523
f 531 517 526
f 532 602 405
f 517 514 525
f 519 418 500
f 557 384 275
f 517 527 514
f 531 535 517
f 264 561 276
f 394 653 200
f 485 560 510
f 491 539 426
f 519 485 481
f 418 519 481
f 450 536 466
f 537 517 535
f 538 537 535
f 531 537 535
f 537 538 517
f 540 537 531
f 540 517 538
f 540 538 537
f 509 527 531
f 540 527 517
f 527 540 531
f 510 477 456
f 490 491 426
f 490 539 491
f 489 488 475
f 542 489 475
f 489 470 488
f 542 490 470
f 542 470 489
f 455 527 509
f 560 477 510
f 512 543 521
f 520 485 519
f 640 436 541
f 669 569 401
f 602 669 401
f 543 520 521
f 521 527 455
f 490 549 539
f 532 405 572
f 557 422 384
f 520 560 485
f 533 313 571
f 520 543 560
f 549 546 539
f 539 428 427
f 638 439 238
f 542 548 490
f 546 428 539
f 408 618 435
f 547 567 393
f 567 547 393
f 395 567 393
f 548 542 412
f 433 402 397
f 428 575 429
f 575 550 429
f 550 581 429
f 581 551 429
f 552 549 490
f 549 552 546
f 552 553 546
f 548 552 490
f 558 467 466
f 555 407 318
f 551 554 447
f 553 428 546
f 454 552 548
f 432 556 421
f 467 594 534
f 671 454 402
f 691 264 638
f 653 637 344
f 875 792 298
f 792 559 298
f 412 454 548
f 594 467 558
f 613 394 447
f 570 552 454
f 562 428 553
f 552 562 553
f 536 450 383
f 448 413 444
f 413 670 444
f 594 512 534
f 670 617 444
f 619 618 408
f 570 562 552
f 566 647 407
f 459 567 395
f 562 568 428
f 691 561 264
f 555 566 407
f 579 562 570
f 622 594 558
f 568 575 428
f 177 388 181
f 440 402 433
f 658 614 432
f 560 572 477
f 387 651 541
f 436 723 387
f 573 307 410
f 573 233 307
f 614 556 432
f 579 568 562
f 536 558 466
f 595 574 560
f 574 572 560
f 576 564 565
f 344 637 309
f 640 723 436
f 580 550 575
f 454 579 570
f 372 625 563
f 578 639 404
f 606 434 544
f 568 580 575
f 554 613 447
f 318 561 555
f 580 581 550
f 582 581 580
f 583 582 580
f 567 619 393
f 619 408 393
f 351 760 350
f 593 583 580
f 582 584 581
f 585 593 580
f 543 595 560
f 587 568 579
f 584 586 581
f 313 760 351
f 593 585 580
f 454 587 579
f 587 580 568
f 583 589 582
f 593 589 582
f 583 593 582
f 589 588 582
f 588 584 582
f 611 536 383
f 589 584 588
f 588 586 584
f 585 589 593
f 589 586 588
f 577 638 238
f 309 578 404
f 593 586 589
f 592 593 580
f 529 658 432
f 623 591 454
f 592 580 587
f 581 604 551
f 608 409 388
f 604 581 586
f 614 590 556
f 576 565 564
f 275 615 557
f 533 760 313
f 593 604 586
f 591 587 454
f 440 449 545
f 596 595 543
f 597 592 587
f 598 604 593
f 599 597 587
f 591 599 587
f 600 597 587
f 599 600 587
f 601 348 403
f 591 600 599
f 592 598 593
f 602 532 572
f 633 601 403
f 555 647 566
f 600 592 597
f 591 592 600
f 559 440 545
f 591 603 592
f 623 603 591
f 592 604 598
f 616 623 454
f 603 604 592
f 607 558 536
f 605 434 606
f 457 567 459
f 621 619 567
f 608 388 177
f 594 543 512
f 574 595 572
f 603 610 604
f 409 611 383
f 610 623 604
f 636 410 363
f 609 612 603
f 609 610 612
f 610 603 612
f 612 623 610
f 623 609 603
f 609 623 612
f 684 615 275
f 561 647 555
f 551 613 554
f 607 622 558
f 563 678 413
f 671 616 454
f 611 607 536
f 622 543 594
f 620 621 567
f 621 620 567
f 616 630 623
f 624 629 623
f 629 604 623
f 596 572 595
f 674 409 608
f 857 625 372
f 626 624 623
f 708 662 572
f 669 602 572
f 662 669 572
f 627 402 440
f 604 635 551
f 630 626 623
f 635 613 551
f 559 648 440
f 626 628 624
f 628 629 624
f 628 629 626
f 629 628 626
f 630 629 628
f 626 630 628
f 590 631 556
f 631 659 556
f 541 601 348
f 601 178 348
f 651 601 541
f 541 651 640
f 422 636 363
f 572 632 708
f 630 634 629
f 634 630 616
f 647 633 403
f 634 635 604
f 629 634 604
f 614 655 590
f 557 636 422
f 636 557 615
f 611 622 607
f 601 541 348
f 596 632 572
f 601 651 541
f 198 638 577
f 309 639 578
f 199 198 577
f 641 394 613
f 611 650 622
f 616 645 634
f 645 635 634
f 642 645 616
f 642 644 645
f 644 643 645
f 646 657 616
f 657 642 616
f 177 674 608
f 622 652 543
f 440 648 627
f 658 529 528
f 667 605 606
f 650 661 622
f 618 544 435
f 678 670 413
f 735 563 625
f 649 671 402
f 627 649 402
f 657 644 642
f 657 645 644
f 703 650 611
f 661 652 622
f 732 647 561
f 543 652 596
f 664 651 387
f 394 641 653
f 891 387 723
f 656 633 647
f 645 657 635
f 660 177 179
f 659 660 179
f 651 723 640
f 664 723 651
f 663 935 601
f 935 178 601
f 665 266 350
f 909 410 636
f 666 909 636
f 671 646 616
f 728 636 615
f 652 672 596
f 672 675 596
f 677 652 661
f 671 701 657
f 701 699 657
f 646 671 657
f 697 673 576
f 654 697 576
f 675 708 596
f 708 632 596
f 737 676 621
f 855 891 723
f 544 667 606
f 618 667 544
f 678 563 735
f 679 627 648
f 792 648 559
f 909 573 410
f 681 233 573
f 682 728 615
f 614 631 655
f 683 682 615
f 631 590 655
f 613 731 641
f 569 460 339
f 684 683 615
f 686 691 638
f 732 687 647
f 685 731 613
f 635 685 613
f 638 714 686
f 689 309 637
f 714 638 198
f 688 714 198
f 309 715 639
f 689 715 309
f 670 391 617
f 409 703 611
f 177 722 674
f 676 619 621
f 690 703 409
f 674 690 409
f 692 732 561
f 691 692 561
f 641 763 653
f 763 637 653
f 699 635 657
f 677 661 650
f 693 677 650
f 694 567 457
f 694 621 567
f 687 656 647
f 943 669 662
f 901 601 633
f 695 699 701
f 668 760 533
f 678 680 670
f 680 391 670
f 857 735 625
f 707 652 677
f 901 633 656
f 700 734 635
f 699 700 635
f 701 699 695
f 890 696 679
f 693 707 677
f 671 711 701
f 701 700 699
f 705 704 703
f 908 659 631
f 706 908 631
f 707 693 652
f 672 708 675
f 652 709 672
f 709 710 672
f 760 665 350
f 697 576 673
f 711 700 701
f 713 883 639
f 742 569 669
f 943 742 669
f 715 713 639
f 712 667 618
f 716 680 678
f 751 717 672
f 710 751 672
f 954 387 891
f 954 664 387
f 658 702 614
f 702 718 614
f 177 719 722
f 729 877 631
f 697 654 576
f 650 703 693
f 720 721 178
f 721 571 178
f 935 720 178
f 660 1038 177
f 1038 719 177
f 727 652 693
f 614 729 631
f 718 729 614
f 979 637 763
f 727 709 652
f 679 745 627
f 458 694 457
f 672 717 708
f 745 649 627
f 952 668 533
f 708 943 662
f 744 601 901
f 676 618 619
f 528 702 658
f 744 663 601
f 698 690 674
f 703 725 693
f 724 705 703
f 690 724 703
f 725 727 693
f 711 726 700
f 726 734 700
f 683 728 682
f 886 725 703
f 684 859 683
f 862 708 717
f 649 733 671
f 907 738 680
f 738 391 680
f 862 746 708
f 714 921 686
f 792 736 648
f 694 737 621
f 736 679 648
f 745 747 649
f 618 676 712
f 908 660 659
f 736 890 679
f 721 533 571
f 746 913 708
f 913 943 708
f 877 706 631
f 725 739 727
f 738 730 391
f 733 726 711
f 671 733 711
f 739 743 727
f 748 752 709
f 749 761 751
f 743 739 725
f 752 750 709
f 753 748 709
f 866 656 687
f 750 752 748
f 757 754 748
f 748 755 750
f 756 757 748
f 754 755 748
f 777 754 757
f 790 717 751
f 757 755 754
f 753 756 748
f 777 750 755
f 756 777 757
f 777 755 754
f 756 758 757
f 753 759 756
f 759 758 756
f 750 710 709
f 773 761 749
f 758 777 756
f 686 921 691
f 641 762 763
f 731 762 641
f 761 765 751
f 765 766 751
f 767 759 758
f 759 777 758
f 869 746 862
f 767 768 759
f 759 769 777
f 753 767 759
f 751 770 749
f 768 769 759
f 766 790 751
f 771 773 749
f 770 771 749
f 742 460 569
f 743 839 727
f 767 768 769
f 772 771 770
f 772 773 771
f 774 770 751
f 741 775 740
f 776 774 751
f 753 777 767
f 778 751 710
f 768 777 769
f 770 774 771
f 774 772 771
f 775 741 740
f 809 784 773
f 780 781 776
f 751 780 776
f 781 782 776
f 781 774 776
f 782 783 774
f 767 777 768
f 781 782 774
f 796 710 750
f 783 782 781
f 809 773 772
f 780 783 781
f 774 809 772
f 784 761 773
f 785 766 765
f 859 898 683
f 780 797 783
f 778 780 751
f 789 766 785
f 765 789 785
f 796 787 710
f 870 863 753
f 789 788 766
f 774 783 797
f 789 785 788
f 789 790 788
f 765 791 789
f 784 809 761
f 790 766 788
f 793 791 765
f 791 794 789
f 777 796 750
f 778 844 780
f 795 793 765
f 793 794 791
f 761 795 765
f 787 799 710
f 800 801 710
f 801 778 710
f 802 800 710
f 803 802 710
f 799 803 710
f 804 827 778
f 801 804 778
f 805 806 778
f 806 844 778
f 827 807 778
f 807 805 778
f 809 808 761
f 839 709 727
f 844 828 780
f 808 779 761
f 809 774 797
f 791 795 794
f 786 753 709
f 793 795 791
f 952 760 668
f 810 811 803
f 811 802 803
f 799 811 803
f 812 813 801
f 813 804 801
f 800 813 801
f 814 815 805
f 815 806 805
f 807 815 805
f 799 810 811
f 800 812 813
f 807 814 815
f 810 816 811
f 816 802 811
f 812 817 813
f 817 804 813
f 814 818 815
f 818 806 815
f 853 800 802
f 818 819 806
f 799 816 810
f 800 817 812
f 807 818 814
f 820 804 817
f 821 819 818
f 822 816 810
f 820 817 812
f 821 818 814
f 780 809 797
f 821 833 819
f 799 822 816
f 800 820 817
f 833 821 818
f 807 833 818
f 822 802 816
f 823 822 799
f 795 789 794
f 853 824 800
f 828 809 780
f 825 826 799
f 826 823 799
f 823 802 822
f 800 804 820
f 787 825 799
f 829 853 802
f 795 790 789
f 796 830 787
f 831 862 717
f 832 825 826
f 833 807 827
f 823 829 802
f 787 832 825
f 830 832 787
f 825 823 826
f 834 829 823
f 832 823 825
f 824 835 800
f 839 786 709
f 786 870 753
f 836 834 823
f 837 829 834
f 835 838 800
f 830 823 832
f 838 835 824
f 840 808 809
f 838 841 800
f 837 873 829
f 790 831 717
f 838 842 835
f 842 838 824
f 836 837 834
f 837 843 834
f 819 844 806
f 840 845 808
f 840 779 808
f 843 873 837
f 842 846 838
f 845 779 840
f 836 843 837
f 838 846 841
f 847 800 841
f 846 847 841
f 848 847 841
f 779 912 761
f 912 795 761
f 830 849 823
f 847 804 800
f 847 827 804
f 833 844 819
f 846 842 824
f 753 863 777
f 850 796 777
f 809 845 840
f 848 847 846
f 863 851 777
f 853 852 824
f 836 873 843
f 1085 852 853
f 824 848 846
f 851 850 777
f 725 839 743
f 865 833 827
f 873 853 829
f 849 854 823
f 664 855 723
f 732 866 687
f 734 685 635
f 852 847 848
f 854 836 823
f 809 856 845
f 856 779 845
f 854 849 830
f 858 854 830
f 728 666 636
f 824 852 848
f 858 854 849
f 830 836 858
f 860 690 698
f 836 854 858
f 915 844 833
f 869 868 746
f 864 913 746
f 716 928 746
f 928 864 746
f 861 716 746
f 847 874 827
f 716 861 680
f 790 862 831
f 828 856 809
f 867 674 722
f 868 861 746
f 879 725 886
f 869 862 790
f 839 725 786
f 725 870 786
f 871 872 796
f 872 830 796
f 865 1044 833
f 910 874 847
f 872 836 830
f 872 873 836
f 852 910 847
f 833 1044 915
f 872 871 873
f 795 869 790
f 861 907 680
f 266 859 684
f 528 876 702
f 873 1085 853
f 874 865 827
f 1085 910 852
f 898 728 683
f 718 877 729
f 878 877 718
f 879 870 725
f 724 880 705
f 880 881 705
f 869 882 868
f 730 884 391
f 979 689 637
f 795 882 869
f 715 883 713
f 889 887 795
f 702 878 718
f 884 875 391
f 912 889 795
f 868 882 861
f 882 907 861
f 888 688 198
f 888 714 688
f 705 703 704
f 696 745 679
f 792 890 736
f 676 737 694
f 798 892 796
f 892 871 796
f 460 893 458
f 605 775 458
f 775 460 458
f 894 857 460
f 775 741 460
f 741 894 460
f 667 895 605
f 896 857 894
f 605 953 775
f 741 896 894
f 676 942 712
f 887 882 795
f 900 685 734
f 920 863 870
f 885 738 907
f 901 656 866
f 867 698 674
f 877 902 706
f 903 732 692
f 886 899 879
f 1044 865 874
f 904 828 844
f 905 904 844
f 897 667 712
f 906 664 954
f 898 666 728
f 975 928 716
f 902 908 706
f 664 906 855
f 904 911 828
f 911 856 828
f 721 952 533
f 856 912 779
f 914 760 952
f 915 905 844
f 724 690 860
f 916 764 943
f 889 882 887
f 681 573 909
f 530 876 528
f 1145 876 530
f 916 943 764
f 685 900 731
f 882 885 907
f 879 920 870
f 895 953 605
f 885 930 738
f 698 919 860
f 899 920 879
f 922 943 913
f 919 698 923
f 923 929 919
f 702 918 878
f 913 678 735
f 857 913 735
f 925 916 943
f 926 877 878
f 881 927 705
f 913 716 678
f 922 925 943
f 715 976 883
f 860 880 724
f 889 864 882
f 931 942 676
f 859 917 898
f 918 926 878
f 881 880 919
f 889 912 864
f 929 881 919
f 742 1036 460
f 1036 893 460
f 935 744 932
f 689 976 715
f 933 976 689
f 919 880 860
f 928 882 864
f 882 928 885
f 928 975 885
f 898 936 666
f 927 881 929
f 775 937 741
f 937 896 741
f 950 898 917
f 934 927 929
f 975 913 912
f 913 864 912
f 875 924 792
f 938 676 694
f 939 747 745
f 696 939 745
f 940 733 649
f 941 851 863
f 942 897 712
f 938 931 676
f 726 900 734
f 944 726 733
f 945 692 691
f 946 945 691
f 921 946 691
f 947 978 692
f 978 903 692
f 945 947 692
f 762 1005 763
f 1005 948 763
f 948 979 763
f 731 949 762
f 965 932 744
f 923 1006 929
f 975 930 885
f 850 798 796
f 1006 1022 929
f 965 1020 932
f 926 898 950
f 926 950 877
f 747 940 649
f 903 866 732
f 855 954 891
f 901 965 744
f 975 716 913
f 935 663 744
f 893 987 458
f 987 694 458
f 910 984 874
f 951 935 932
f 1020 951 932
f 987 1036 694
f 730 738 930
f 975 730 930
f 926 936 898
f 1009 944 733
f 953 937 775
f 897 895 667
f 266 1099 859
f 1065 916 925
f 955 1065 925
f 956 926 918
f 924 957 792
f 953 896 937
f 702 956 918
f 957 890 792
f 958 913 857
f 922 955 925
f 1065 959 916
f 959 943 916
f 895 960 953
f 906 1011 855
f 902 950 917
f 950 902 877
f 196 888 198
f 956 936 926
f 972 703 705
f 900 961 731
f 962 1036 742
f 943 959 742
f 959 962 742
f 722 983 867
f 963 705 927
f 934 963 927
f 903 964 866
f 944 966 726
f 966 900 726
f 940 1009 733
f 960 896 953
f 859 902 917
f 920 967 863
f 1099 968 859
f 969 908 902
f 936 909 666
f 876 956 702
f 972 886 703
f 884 1093 875
f 958 970 913
f 970 922 913
f 970 971 922
f 971 955 922
f 867 1025 698
f 1076 941 863
f 973 972 705
f 974 975 912
f 856 974 912
f 1078 958 857
f 896 1078 857
f 714 1028 921
f 977 924 875
f 1078 970 958
f 963 973 705
f 689 979 933
f 980 884 730
f 981 899 886
f 972 981 886
f 967 1076 863
f 939 940 747
f 982 911 904
f 876 909 936
f 1028 714 888
f 1070 1028 888
f 979 976 933
f 1036 1026 694
f 1026 938 694
f 1058 984 910
f 1022 1072 929
f 1072 1063 929
f 975 980 730
f 1093 977 875
f 985 873 871
f 986 942 931
f 988 915 1044
f 988 905 915
f 1026 931 938
f 1029 989 951
f 989 935 951
f 1063 934 929
f 990 798 850
f 968 902 859
f 968 969 902
f 876 936 956
f 992 1093 884
f 980 992 884
f 890 993 696
f 993 994 696
f 995 890 957
f 924 995 957
f 961 949 731
f 1016 996 997
f 1041 1021 998
f 995 1002 890
f 991 1025 867
f 1003 895 897
f 942 1003 897
f 983 991 867
f 1157 1004 665
f 1004 266 665
f 1230 910 1085
f 900 1046 961
f 914 1157 665
f 760 914 665
f 1007 1044 874
f 984 1007 874
f 1008 980 975
f 196 1010 888
f 1015 1035 1001
f 1012 1008 975
f 989 720 935
f 994 939 696
f 1013 866 964
f 903 1013 964
f 1011 1033 855
f 851 990 850
f 1015 1016 997
f 1016 1041 998
f 1017 1050 999
f 1050 1116 1014
f 976 1018 883
f 1076 851 941
f 798 1111 892
f 1111 871 892
f 974 1012 975
f 1056 985 871
f 981 1024 899
f 1024 981 972
f 1025 1019 698
f 1169 994 993
f 762 947 1005
f 947 945 1005
f 945 946 1005
f 946 948 1005
f 949 978 762
f 978 947 762
f 1027 992 980
f 988 1023 905
f 1010 1070 888
f 1028 1071 921
f 1131 1046 900
f 1020 1029 951
f 1030 1003 942
f 986 1030 942
f 1073 1031 855
f 1033 1073 855
f 1013 901 866
f 966 1131 900
f 1020 965 901
f 963 1032 973
f 1063 963 934
f 1034 1230 1085
f 1035 1126 1001
f 1050 1051 999
f 1116 1135 1014
f 1036 987 893
f 1039 1038 660
f 908 1039 660
f 1016 1040 1041
f 1015 1040 1016
f 1026 986 931
f 1052 986 1026
f 719 983 722
f 1017 1040 1050
f 1050 1040 1116
f 1037 1104 903
f 1000 952 721
f 1056 871 1111
f 1079 1033 1011
f 905 1043 904
f 1043 982 904
f 906 1079 1011
f 1008 1012 980
f 1001 1045 1015
f 1045 1040 1015
f 1018 197 883
f 1047 939 994
f 1048 940 939
f 1040 939 1116
f 1049 1017 999
f 979 1110 976
f 1040 1017 1041
f 939 1047 1116
f 1104 1013 903
f 1031 954 855
f 1053 1026 1036
f 1032 963 1063
f 1000 1054 952
f 1054 914 952
f 1055 990 851
f 1026 1053 1052
f 873 1056 1085
f 1048 1009 940
f 1043 911 982
f 984 1058 1007
f 978 1037 903
f 985 1056 873
f 1242 1050 1014
f 1015 1059 1035
f 1016 1057 996
f 1152 1109 954
f 1109 1062 954
f 1062 906 954
f 1003 960 895
f 1017 1049 1041
f 1107 1051 1050
f 1067 1022 1006
f 1033 1042 1073
f 1066 991 983
f 923 1019 1006
f 1053 959 1065
f 971 1065 955
f 901 1061 1020
f 1052 1065 986
f 1068 910 1230
f 1069 901 1013
f 1079 1075 1033
f 1030 960 1003
f 1067 1063 1072
f 1067 1072 1022
f 1076 1055 851
f 1052 1053 1065
f 1065 971 986
f 1043 1083 911
f 906 1062 1079
f 1060 1041 1049
f 1033 1075 1042
f 1174 1015 997
f 698 1019 923
f 1045 1031 1073
f 1040 1045 1073
f 959 1053 962
f 1053 1036 962
f 1076 967 920
f 1074 1110 979
f 233 681 909
f 986 971 1030
f 1075 1073 1042
f 1077 995 924
f 1116 994 1169
f 1078 971 970
f 1174 1064 1015
f 1116 1047 994
f 1040 1048 939
f 1067 1032 1063
f 1068 1058 910
f 1046 949 961
f 1071 946 921
f 1024 920 899
f 998 1220 1016
f 1048 1133 1009
f 1080 1044 1007
f 1058 1080 1007
f 1081 1043 905
f 1023 1081 905
f 1082 1111 798
f 990 1082 798
f 1126 1045 1001
f 856 1083 974
f 1078 896 960
f 1064 1130 1015
f 971 1078 1030
f 1078 960 1030
f 1134 1061 901
f 1069 1134 901
f 944 1131 966
f 911 1083 856
f 1062 1109 1079
f 1133 944 1009
f 1153 1085 1056
f 1019 1067 1006
f 1086 988 1044
f 1125 920 1024
f 977 1077 924
f 1087 1073 1075
f 1085 1088 1034
f 1088 1230 1034
f 1079 1087 1075
f 1057 1016 1220
f 1021 1127 998
f 1195 954 1031
f 1041 1060 1021
f 996 1174 997
f 999 1234 1049
f 1059 1126 1035
f 1090 1174 996
f 1057 1090 996
f 1091 1234 999
f 1051 1091 999
f 1175 1242 1014
f 1135 1175 1014
f 196 1070 1010
f 976 197 1018
f 1218 1074 979
f 1092 1038 1039
f 908 1092 1039
f 1134 1020 1061
f 980 1094 1027
f 1093 992 1027
f 988 1089 1023
f 1195 1152 954
f 1084 1055 1076
f 1012 1115 980
f 1095 1000 721
f 720 1095 721
f 977 995 1077
f 1096 1019 1025
f 1087 1103 1073
f 972 1125 1024
f 1066 1137 991
f 1098 1040 1073
f 1134 1029 1020
f 1094 1002 995
f 1180 1056 1111
f 1101 1102 1019
f 1102 1067 1019
f 1079 1103 1087
f 978 1104 1037
f 1109 1103 1079
f 1028 1105 1071
f 1106 1032 1067
f 1040 1098 1048
f 1086 1089 988
f 1108 1045 1126
f 1162 1031 1045
f 1002 1132 890
f 1096 1025 991
f 1130 1059 1015
f 1000 1095 1099
f 1097 1106 1067
f 1112 1125 972
f 1120 1112 972
f 973 1120 972
f 1046 1113 949
f 1102 1097 1067
f 1114 998 1127
f 1004 1099 266
f 1132 993 890
f 1094 995 1027
f 995 1093 1027
f 1103 1098 1073
f 1093 995 977
f 1129 1060 1049
f 1105 1028 1070
f 948 1218 979
f 1109 1098 1103
f 1117 1106 1097
f 1118 1117 1097
f 1102 1117 1097
f 1068 1182 1058
f 1004 1054 1099
f 1054 1000 1099
f 1100 1086 1044
f 1102 1118 1117
f 1180 1153 1056
f 1106 973 1032
f 1119 1106 1117
f 1118 1119 1117
f 1182 1123 1058
f 1211 1121 920
f 1192 944 1133
f 1055 1082 990
f 1115 1094 980
f 1124 1083 1043
f 1122 1081 1023
f 1089 1122 1023
f 1183 1013 1104
f 1131 1113 1046
f 1102 1119 1118
f 1060 1127 1021
f 1106 1120 973
f 1121 1076 920
f 1108 1162 1045
f 1130 1064 1174
f 1114 1220 998
f 1109 1166 1098
f 1183 1069 1013
f 1307 1101 1019
f 1101 1119 1102
f 944 1138 1131
f 1129 1049 1234
f 1139 1044 1080
f 1140 1043 1081
f 1083 1012 974
f 1189 1135 1116
f 1136 1029 1134
f 1057 1142 1090
f 1113 1143 949
f 1143 1128 949
f 1167 1211 920
f 876 1144 909
f 1144 233 909
f 1145 1146 876
f 1139 1100 1044
f 1105 1147 1071
f 1110 1148 976
f 1148 197 976
f 1149 1138 944
f 991 1235 1096
f 1098 1133 1048
f 1141 1104 978
f 1076 1151 1084
f 1274 1038 1092
f 1123 1196 1058
f 1124 1154 1083
f 1144 1156 233
f 1153 1215 1085
f 1130 1150 1059
f 1141 1183 1104
f 1131 1143 1113
f 35 1155 1145
f 1107 1158 1051
f 1137 1235 991
f 1129 1184 1060
f 1125 1167 920
f 1095 968 1099
f 1160 1156 1144
f 1155 1161 1145
f 1156 40 233
f 1162 1108 1126
f 1084 1151 1055
f 1086 1122 1089
f 1136 1207 1029
f 1161 1146 1145
f 1012 1163 1115
f 1164 1160 1144
f 1161 1165 1146
f 1132 1169 993
f 1152 1214 1109
f 1214 1166 1109
f 914 1054 1157
f 1101 1208 1119
f 1058 1196 1080
f 1168 1158 1107
f 1168 1050 1242
f 1170 1069 1183
f 1138 1202 1131
f 1163 1012 1083
f 1171 1144 876
f 1146 1171 876
f 1100 1122 1086
f 1121 1172 1076
f 1173 1114 1127
f 1142 1174 1090
f 1051 1158 1091
f 1135 1176 1175
f 1166 1179 1098
f 1128 978 949
f 1147 1105 1070
f 1074 1148 1110
f 1218 1148 1074
f 1177 946 1071
f 1165 1171 1146
f 1159 1215 1153
f 1060 1178 1127
f 1171 1165 1144
f 1165 1164 1144
f 1112 1167 1125
f 1082 1180 1111
f 1096 1235 1019
f 1181 1101 1307
f 1182 1068 1230
f 1192 1149 944
f 1098 1179 1133
f 1185 1106 1119
f 1168 1107 1050
f 1248 1205 196
f 1169 1188 1116
f 1106 1185 1120
f 1249 1076 1172
f 1188 1189 1116
f 1208 1185 1119
f 1194 1043 1140
f 1151 1190 1055
f 1166 1191 1179
f 1134 1207 1136
f 1205 1070 196
f 1147 1177 1071
f 1179 1192 1133
f 1202 1143 1131
f 1193 1137 1066
f 1143 978 1128
f 1043 1194 1124
f 1059 1203 1126
f 1170 1229 1069
f 1229 1134 1069
f 1162 1195 1031
f 1174 1150 1130
f 1187 1208 1101
f 1182 1196 1123
f 1002 1094 1132
f 1181 1187 1101
f 1055 1243 1082
f 1205 1197 1070
f 1100 1239 1122
f 1094 1198 1132
f 1199 1129 1234
f 1122 1200 1081
f 1163 1186 1115
f 1141 1201 1183
f 1237 1196 1182
f 1085 1215 1088
f 1199 1184 1129
f 1229 1207 1134
f 1184 1178 1060
f 1137 1238 1235
f 1198 1169 1132
f 1220 1142 1057
f 978 1201 1141
f 1197 1147 1070
f 1235 1221 1019
f 1202 978 1143
f 1191 1209 1179
f 1202 1201 978
f 1189 1176 1135
f 969 1092 908
f 1186 1094 1115
f 1214 1236 1166
f 1206 1248 197
f 1193 1238 1137
f 983 1193 1066
f 1209 1191 1166
f 720 1210 1095
f 1173 1220 1114
f 1190 1243 1055
f 1213 1234 1091
f 1158 1213 1091
f 1228 1242 1175
f 1176 1228 1175
f 1236 1209 1166
f 1202 1183 1201
f 1249 1151 1076
f 1192 1293 1149
f 1216 1178 1184
f 1217 1206 197
f 1148 1217 197
f 1249 1190 1151
f 1178 1219 1127
f 1219 1173 1127
f 1180 1159 1153
f 1124 1253 1154
f 1202 1170 1183
f 1138 1170 1202
f 1149 1170 1138
f 1186 1223 1094
f 1203 1162 1126
f 1270 1327 1162
f 1224 1270 1162
f 1204 1208 1187
f 1225 1059 1150
f 1204 1185 1208
f 1082 1233 1180
f 1174 1225 1150
f 1223 1198 1094
f 1226 1168 1242
f 1177 1147 946
f 719 1247 983
f 1293 1227 1149
f 1203 1224 1162
f 1199 1216 1184
f 1154 1253 1083
f 1158 1312 1213
f 1185 1329 1120
f 1222 1225 1174
f 1226 1158 1168
f 1205 1147 1197
f 1218 1217 1148
f 1259 1173 1219
f 1088 1250 1230
f 946 1232 948
f 1232 1218 948
f 1220 1212 1142
f 1285 1222 1174
f 1179 1269 1192
f 1181 1204 1187
f 1163 1223 1186
f 1169 1189 1188
f 1328 1293 1192
f 1327 1195 1162
f 1189 1228 1176
f 983 1238 1193
f 1296 1167 1112
f 1149 1229 1170
f 1239 1200 1122
f 1240 1174 1142
f 1212 1240 1142
f 1241 1234 1213
f 1244 1159 1180
f 1245 1139 1080
f 1286 1140 1081
f 1240 1285 1174
f 1198 1246 1169
f 1194 1253 1124
f 1100 1278 1239
f 1229 1262 1207
f 1121 1271 1172
f 1271 1249 1172
f 1262 1029 1207
f 1215 1250 1088
f 1286 1194 1140
f 1245 1100 1139
f 1251 1226 1242
f 1275 1169 1246
f 1252 1242 1228
f 1267 1230 1250
f 1244 1215 1159
f 1253 1163 1083
f 1232 1254 1218
f 1285 1233 1082
f 1243 1285 1082
f 1227 1262 1149
f 1196 1294 1080
f 1269 1328 1192
f 1163 1198 1223
f 1157 1054 1004
f 1255 1181 1307
f 1019 1289 1307
f 1200 1278 1081
f 1257 1271 1121
f 1258 1312 1158
f 1225 1263 1059
f 1234 1260 1199
f 1220 1259 1212
f 1248 1231 1205
f 1261 1121 1211
f 1149 1262 1229
f 1256 1257 1121
f 1249 1243 1190
f 1215 1264 1250
f 1271 1203 1059
f 1263 1271 1059
f 1265 1251 1242
f 1266 1219 1178
f 1303 1247 719
f 1247 1238 983
f 1302 1228 1189
f 1311 1266 1178
f 1216 1311 1178
f 1268 989 1029
f 1266 1259 1219
f 1330 1214 1152
f 1236 1269 1209
f 1231 1147 1205
f 1254 1217 1218
f 1167 1261 1211
f 1230 1237 1182
f 1262 1268 1029
f 1254 946 1147
f 1217 1248 1206
f 1263 1225 1222
f 1258 1158 1226
f 1259 1220 1173
f 1180 1272 1244
f 1260 1216 1199
f 1038 1273 719
f 968 1092 969
f 1095 1274 1092
f 968 1095 1092
f 1312 1245 1213
f 1278 1265 1081
f 1253 1198 1163
f 1237 1276 1196
f 1210 1274 1095
f 1227 1277 1262
f 1239 1278 1200
f 1209 1269 1179
f 1279 1234 1241
f 1280 1259 1266
f 1257 1256 1203
f 1264 1282 1250
f 1271 1257 1203
f 1203 1270 1224
f 1330 1152 1195
f 1283 1267 1250
f 1282 1309 1250
f 1284 1280 1266
f 1281 1253 1194
f 1309 1283 1250
f 1275 1189 1169
f 1221 1289 1019
f 1294 1287 1080
f 1277 1268 1262
f 1228 1286 1252
f 1246 1198 1253
f 1275 1246 1253
f 1241 1245 1080
f 1287 1241 1080
f 1212 1233 1240
f 1245 1241 1213
f 1286 1242 1252
f 1214 1269 1236
f 1272 1215 1244
f 1273 1303 719
f 1233 1285 1240
f 1288 1279 1241
f 1286 1081 1242
f 1081 1265 1242
f 1287 1288 1241
f 1275 1290 1189
f 1217 1291 1248
f 946 1254 1232
f 1120 1161 1112
f 1290 1302 1189
f 1292 1235 1238
f 1304 1292 1238
f 1291 1231 1248
f 1254 1147 1231
f 1276 1294 1196
f 1233 1272 1180
f 1256 1270 1203
f 1245 1295 1100
f 1296 1261 1167
f 1318 1237 1230
f 1311 1284 1266
f 1285 1297 1222
f 1234 1319 1260
f 1281 1300 1253
f 1286 1281 1194
f 1295 1278 1100
f 1294 1276 1237
f 1318 1294 1237
f 1264 1215 1272
f 1269 1330 1328
f 1319 1216 1260
f 1298 1316 1259
f 1299 1263 1222
f 1297 1299 1222
f 1312 1258 1226
f 1265 1312 1226
f 1304 1238 1247
f 1291 1254 1231
f 1254 1291 1217
f 1329 1204 1181
f 1214 1330 1269
f 1329 1185 1204
f 1267 1318 1230
f 1300 1275 1253
f 1305 1121 1261
f 1245 1306 1295
f 1316 1212 1259
f 1301 1285 1243
f 1319 1311 1216
f 989 1268 720
f 1251 1265 1226
f 1303 1304 1247
f 1332 1255 1307
f 1305 1256 1121
f 1156 1330 1195
f 1212 1308 1233
f 1329 1161 1120
f 1299 1271 1263
f 1315 1286 1228
f 1285 1313 1297
f 1279 1319 1234
f 1314 1243 1249
f 1314 1301 1243
f 1233 1309 1272
f 1309 1264 1272
f 1306 1278 1295
f 1306 1265 1278
f 1275 1302 1290
f 1305 1310 1256
f 1292 1304 1303
f 1298 1259 1280
f 1302 1315 1228
f 1271 1314 1249
f 1273 1317 1303
f 1301 1314 1285
f 1327 40 1195
f 40 1156 1195
f 1256 1327 1270
f 1314 1313 1285
f 1309 1282 1264
f 1155 35 1112
f 35 1296 1112
f 1300 1320 1275
f 1161 1155 1112
f 1275 1320 1315
f 1235 1292 1221
f 1312 1306 1245
f 1320 1300 1281
f 1316 1308 1212
f 1313 1299 1297
f 1315 1302 1275
f 1321 1318 1267
f 1318 1287 1294
f 1255 1329 1181
f 1299 1314 1271
f 1280 1316 1298
f 1267 1322 1321
f 1283 1322 1267
f 1286 1315 1281
f 1284 1316 1280
f 1038 1317 1273
f 1322 1318 1321
f 1288 1323 1279
f 1326 1284 1311
f 1287 1322 1283
f 1287 1318 1322
f 1296 1305 1261
f 1309 1287 1283
f 1326 1316 1284
f 1317 1292 1303
f 1319 1326 1311
f 1324 1279 1323
f 1324 1326 1279
f 1326 1319 1279
f 1233 1287 1309
f 1288 1324 1323
f 1324 1326 1323
f 1325 1308 1316
f 1315 1320 1281
f 1313 1314 1299
f 1324 1288 1326
f 1326 1233 1308
f 1312 1265 1306
f 1326 1288 1287
f 1233 1326 1287
f 1325 1316 1326
f 1325 1326 1308
f 1332 1329 1255
f 1296 1310 1305
f 1310 1327 1256
f 1339 1289 1221
f 1330 1331 1328
f 1331 1338 1328
f 1327 1310 40
f 1310 32 40
f 1307 1333 1332
f 1292 1339 1221
f 32 1296 35
f 1268 1210 720
f 1334 1317 1038
f 1274 1334 1038
f 1342 1292 1317
f 32 1310 1296
f 1335 1210 1268
f 1334 1342 1317
f 1337 1329 1332
f 1328 1337 1332
f 1333 1328 1332
f 1160 1330 1156
f 1338 1337 1328
f 1333 1336 1328
f 1160 1164 1330
f 1289 1333 1307
f 1227 1293 1328
f 1336 1227 1328
f 1329 1340 1161
f 1340 1165 1161
f 1164 1331 1330
f 1341 1227 1336
f 1340 1329 1337
f 1342 1340 1337
f 1343 1342 1337
f 1344 1338 1331
f 1335 1344 1331
f 1339 1333 1289
f 1345 1343 1337
f 1344 1268 1277
f 1164 1335 1331
f 1342 1334 1340
f 1338 1345 1337
f 1344 1345 1338
f 1333 1341 1336
f 1227 1344 1277
f 1334 1165 1340
f 1341 1346 1227
f 1339 1346 1333
f 1346 1341 1333
f 1342 1343 1339
f 1343 1345 1339
f 1292 1342 1339
f 1346 1344 1227
f 1345 1346 1339
f 1345 1344 1346
f 1335 1164 1210
f 1165 1334 1274
f 1344 1335 1268
f 1164 1274 1210
f 1164 1165 1274
