v 0.048244 0.043394 -0.322012
v 0.048146 0.043844 -0.318049
v 0.048221 0.04327 -0.318625
v 0.047154 0.042126 -0.315309
v 0.047466 0.042068 -0.322846
v 0.047473 0.043214 -0.314043
v 0.047773 0.04367 -0.315453
v 0.04789 0.044115 -0.322686
v 0.047525 0.044469 -0.317045
v 0.04726 0.043733 -0.313485
v 0.047927 0.043375 -0.324908
v 0.04656 0.044536 -0.313135
v 0.047249 0.041373 -0.32701
v 0.047565 0.044665 -0.321158
v 0.046687 0.044631 -0.326461
v 0.047641 0.043244 -0.326403
v 0.047306 0.042236 -0.328172
v 0.047541 0.043163 -0.326739
v 0.047443 0.043202 -0.327022
v 0.046187 0.043085 -0.330506
v 0.046111 0.043276 -0.310181
v 0.046576 0.043756 -0.311548
v 0.045729 0.043667 -0.309547
v 0.045879 0.039323 -0.328778
v 0.045122 0.044608 -0.30994
v 0.044286 0.044871 -0.331308
v 0.045239 0.037885 -0.331685
v 0.045357 0.038915 -0.332405
v 0.042738 0.046952 -0.324709
v 0.043063 0.046931 -0.317276
v 0.045269 0.042116 -0.310043
v 0.045955 0.039137 -0.329873
v 0.044455 0.04316 -0.33341
v 0.045227 0.038021 -0.331378
v 0.042851 0.035715 -0.335997
v 0.043632 0.035913 -0.334168
v 0.039984 0.047683 -0.312921
v 0.044343 0.037149 -0.331621
v 0.042063 0.043191 -0.336329
v 0.038532 0.047043 -0.332113
v 0.039718 0.044757 -0.337096
v 0.03193 0.043493 -0.285375
v 0.041137 0.033437 -0.337173
v 0.041106 0.033812 -0.33582
v 0.03998 0.04828 -0.321119
v 0.039612 0.042793 -0.338666
v 0.039272 0.032822 -0.339375
v 0.036859 0.048665 -0.326656
v 0.039032 0.031935 -0.338622
v 0.034402 0.048379 -0.331401
v 0.038456 0.03193 -0.339778
v 0.038065 0.04866 -0.317251
v 0.037954 0.031658 -0.33845
v 0.030874 0.042989 -0.283526
v 0.039745 0.01059 0.06094
v 0.039732 0.011205 0.061635
v 0.039804 0.00228 0.062312
v 0.039793 0.020235 0.058581
v 0.039682 0.017824 0.058674
v 0.039165 -0.001417 0.063584
v 0.039329 -0.001004 0.062511
v 0.039711 0.023013 0.056131
v 0.039803 0.029787 0.051771
v 0.039655 0.027312 0.052938
v 0.039747 0.039599 0.027979
v 0.039831 0.039289 0.034455
v 0.039715 0.038057 0.036197
v 0.0398 0.043843 -0.022729
v 0.039659 0.031502 0.048515
v 0.039841 0.035533 0.043141
v 0.039641 0.037673 0.04054
v 0.039644 0.033738 0.047441
v 0.03958 0.025287 0.055964
v 0.039658 0.006227 0.062555
v 0.039649 0.042523 -0.011936
v 0.039756 0.044025 -0.049104
v 0.039578 0.041456 0.01945
v 0.039595 0.040358 0.030206
v 0.039714 0.044583 -0.049962
v 0.039318 0.016322 0.060577
v 0.038736 6e-05 0.060861
v 0.03151 0.044285 -0.285712
v 0.038981 0.010363 0.059642
v 0.038976 0.018474 0.057244
v 0.038755 0.024129 0.053961
v 0.038756 0.028964 0.049862
v 0.038634 0.033152 0.044347
v 0.038399 0.035868 0.038535
v 0.038543 0.037611 0.032544
v 0.0363 0.042235 -0.340886
v 0.036103 0.043846 -0.340435
v 0.038335 0.038532 0.024382
v 0.03848 0.040433 0.001734
v 0.038613 0.041894 -0.022792
v 0.035212 0.047085 -0.005157
v 0.038637 0.042688 -0.047749
v 0.033091 0.003659 0.066193
v 0.038381 -0.004357 0.063753
v 0.038047 0.031681 -0.339599
v 0.038069 -0.002669 0.061372
v 0.038399 0.045297 -0.067966
v 0.034696 0.048736 -0.056869
v 0.034216 0.044935 -0.340354
v 0.038461 0.015721 0.057856
v 0.035249 0.032331 -0.341758
v 0.037247 0.04283 -0.068872
v 0.037126 0.044372 -0.092314
v 0.030266 0.041788 -0.283996
v 0.037994 0.022795 0.054522
v 0.038035 0.020018 0.056084
v 0.032012 0.047003 -0.336924
v 0.037902 0.028823 0.049631
v 0.037726 0.024637 0.053453
v 0.035645 0.041636 0.040044
v 0.036928 -0.005661 0.062262
v 0.035406 0.045416 -0.12381
v 0.036815 -0.006858 0.06511
v 0.037136 -0.006563 0.064121
v 0.035532 0.043168 -0.103375
v 0.03063 0.049045 -0.109546
v 0.035142 0.031614 -0.341204
v 0.021926 0.048508 -0.286591
v 0.035808 -0.008552 0.065063
v 0.03519 -0.008557 0.063534
v 0.033797 0.045004 0.032256
v 0.032402 0.050391 -0.038603
v 0.032409 0.041979 0.045207
v 0.032629 0.038574 0.050252
v 0.033191 -0.0105 0.067129
v 0.032701 0.035114 0.054264
v 0.033409 0.028515 0.059039
v 0.017618 0.048736 -0.283147
v 0.032812 0.020603 0.063259
v 0.033033 0.043188 -0.342206
v 0.032676 0.044418 -0.171222
v 0.029977 0.013403 0.066357
v 0.03393 -0.01049 0.066151
v 0.0026 0.048847 -0.277561
v 0.031203 0.032194 -0.34316
v 0.031211 0.032293 -0.343183
v 0.031128 0.031731 -0.342878
v 0.032544 -0.011262 0.065235
v 0.029514 0.046187 0.039456
v 0.031599 0.042979 -0.176219
v 0.034028 -0.00938 0.063624
v 0.030919 0.051211 -0.055322
v 0.025758 0.049326 -0.16021
v 0.032293 0.04542 -0.172714
v 0.027824 0.048709 -0.333214
v 0.025556 0.046747 -0.283933
v 0.029849 0.032608 -0.343523
v 0.033182 0.032393 -0.342583
v 0.031216 0.032399 -0.343199
v 0.030696 -0.012419 0.068012
v 0.030616 -0.01265 0.067427
v 0.030434 -0.011984 0.065206
v 0.029538 0.042735 -0.343222
v 0.029344 0.044177 -0.342642
v 0.026759 0.044866 -0.34239
v 0.029293 0.04765 0.032138
v 0.028694 0.050703 -0.000642
v 0.027342 0.043751 -0.26531
v 0.026506 0.000588 0.068994
v 0.027033 0.044273 -0.267215
v 0.029003 0.033352 0.058606
v 0.028701 0.02837 0.061989
v 0.028592 0.022332 0.064649
v 0.029769 0.044139 -0.281369
v 0.029311 -0.013095 0.066505
v 0.027847 -0.013015 0.06939
v 0.02783 0.032315 -0.343961
v 0.027157 0.032255 -0.343888
v 0.027142 0.031696 -0.343554
v 0.026834 0.052364 -0.078006
v 0.027233 0.045755 0.044081
v 0.025021 0.043149 0.050901
v 0.02681 0.05341 -0.045896
v 0.02522 0.039339 0.055515
v 0.028424 0.043066 -0.276354
v 0.028582 0.044218 -0.277995
v 0.026598 -0.013927 0.067202
v 0.027837 0.041701 -0.27757
v 0.026273 0.041833 -0.265586
v 0.027912 -0.013634 0.06896
v 0.022115 0.04683 -0.269289
v 0.025878 0.043067 -0.343593
v 0.023538 0.047043 -0.338155
v 0.027612 0.043477 -0.271555
v 0.027245 0.044402 -0.272798
v 0.017431 0.048735 -0.266233
v 0.022349 0.050226 -0.166279
v 0.026597 0.041824 -0.270973
v 0.026114 -0.014012 0.06966
v 0.022405 0.009388 0.06947
v 0.019927 0.018159 0.068865
v 0.020007 0.024909 0.066985
v 0.022644 0.032815 0.06236
v 0.020447 0.047423 0.047136
v 0.020651 0.050864 0.033777
v 0.021478 0.053782 -0.004776
v 0.023081 0.031881 -0.343724
v 0.022023 0.032469 -0.343835
v 0.019369 0.031699 -0.342894
v 0.019854 0.048046 -0.335057
v 0.019521 0.055782 -0.03803
v 0.018985 0.056023 -0.055516
v 0.020448 -0.014349 0.071715
v 0.022232 0.042765 -0.343524
v 0.022335 0.044789 -0.34235
v 0.022852 0.031658 -0.342596
v 0.018424 0.048659 -0.331768
v 0.01957 0.049831 0.041512
v 0.013328 -0.015651 0.070938
v 0.015957 -0.00573 0.072194
v 0.01755 0.049203 -0.237753
v 0.018157 0.032418 -0.343027
v 0.01875 0.048542 -0.276027
v 0.015692 0.05089 -0.18714
v 0.016916 0.044948 -0.340852
v 0.018777 0.044136 -0.342235
v 0.014612 0.010936 0.071151
v 0.015022 0.031778 0.065347
v 0.01505 0.037036 0.061981
v 0.015073 0.04172 0.057776
v 0.015092 0.04569 0.052961
v 0.014968 0.054403 0.008128
v 0.018456 0.042483 -0.342746
v 0.015868 -0.015276 0.072351
v 0.015272 0.031747 -0.341533
v 0.014512 0.032445 -0.341592
v 0.015374 0.043202 -0.341505
v 0.013755 -0.014668 0.073142
v 0.009863 0.019544 0.070536
v 0.009886 0.026441 0.068614
v 0.00994 0.049529 0.048453
v 0.009954 0.050998 0.044803
v 0.010085 0.052512 0.038592
v 0.009825 0.057402 -0.028629
v 0.009638 0.057762 -0.053792
v 0.014559 0.048521 -0.329256
v 0.008127 -0.015049 0.073903
v 0.0122 0.04336 -0.339698
v 0.012671 0.044893 -0.338665
v 0.011054 0.046988 -0.331757
v 0.011376 0.032398 -0.339734
v 0.009934 0.031753 -0.338263
v 0.007936 0.055654 -0.107727
v 0.013055 0.031616 -0.339203
v 0.003855 0.050614 -0.222057
v 0.008794 -0.015787 0.073441
v 0.001251 0.048602 -0.304751
v 0.009775 0.044627 -0.336875
v 0.009368 0.042742 -0.337692
v 0.004393 0.011349 0.072262
v 0.00476 0.032856 0.066346
v 0.00477 0.038205 0.062918
v 0.004782 0.042975 0.05864
v 0.004796 0.04701 0.05375
v 0.003243 0.056658 -0.004249
v 0.007084 0.044995 -0.333237
v 0.007362 0.031618 -0.33412
v 0.008474 0.032414 -0.337388
v 0.006872 0.043551 -0.334766
v 0.00576 0.042534 -0.333773
v 0.005718 0.031751 -0.333537
v 0.005213 0.032348 -0.333604
v 0.004946 0.043915 -0.331656
v 0.005543 0.032651 -0.333979
v 0.00692 0.032473 -0.335727
v 0.000715 -0.006666 0.073738
v -0.000312 0.019951 0.071039
v -0.000291 0.026892 0.069101
v -0.000195 0.050887 0.047311
v 3.4e-05 0.053112 0.038957
v 0.005639 0.032477 -0.334113
v -0.000354 0.058441 -0.048882
v -0.008198 0.047396 -0.295911
v -0.000291 -0.01617 0.072038
v -7.9e-05 -0.015535 0.07427
v 0.001386 -0.016046 0.073535
v -0.000613 0.056354 -0.101263
v -0.019087 0.031631 -0.288582
v -0.004511 0.048419 -0.29341
v -0.008893 0.045047 -0.305179
v -0.009727 0.044067 -0.305856
v -0.013687 0.042388 -0.299918
v -0.003955 -0.015879 0.073848
v -0.006625 0.048672 -0.266662
v -0.005606 0.011511 0.07215
v -0.005151 0.032795 0.066315
v -0.005141 0.038141 0.062895
v -0.005125 0.042904 0.058633
v -0.005106 0.046933 0.053761
v -0.006619 0.056376 -0.003834
v -0.006181 -0.014972 0.074054
v -0.00806 0.049996 -0.225509
v -0.018413 0.031766 -0.29098
v -0.021437 0.031687 -0.286122
v -0.019452 0.032523 -0.290409
v -0.008577 -0.015791 0.073084
v -0.008552 0.055841 -0.101057
v -0.008964 0.057742 -0.053915
v -0.014097 0.05692 -0.038073
v -0.009758 0.01948 0.070511
v -0.009738 0.02637 0.068595
v -0.009621 0.050187 0.047064
v -0.009272 0.052533 0.038598
v -0.00967 0.047594 -0.289724
v -0.010183 -0.015196 0.073613
v -0.013099 -0.005431 0.072642
v -0.014132 -0.015451 0.070855
v -0.01563 0.010336 0.070983
v -0.013899 0.031799 0.065459
v -0.013894 0.037068 0.062106
v -0.013879 0.04175 0.057935
v -0.013855 0.045715 0.053165
v -0.014203 0.054319 0.008893
v -0.013339 0.046647 -0.283573
v -0.014088 0.047856 -0.244716
v -0.01355 0.045735 -0.289639
v -0.017653 0.053709 -0.108996
v -0.014483 0.043776 -0.296441
v -0.01859 -0.014893 0.071696
v -0.019529 -0.014452 0.068887
v -0.015491 -0.014821 0.072748
v -0.015926 0.042686 -0.295089
v -0.019261 0.055689 -0.054383
v -0.019948 0.054465 -0.014146
v -0.020747 0.012002 0.069626
v -0.020308 0.019534 0.068375
v -0.020842 0.025106 0.066509
v -0.017725 0.048467 0.046395
v -0.017284 0.05105 0.03772
v -0.016906 0.044982 -0.27783
v -0.016891 0.04403 -0.285496
v -0.020098 -0.007464 0.071306
v -0.020232 -0.013948 0.071686
v -0.017865 0.042196 -0.290384
v -0.026957 0.052613 -0.061546
v -0.020939 0.038569 -0.287186
v -0.022098 0.052235 0.009146
v -0.02206 0.029808 0.063959
v -0.02191 0.0351 0.060696
v -0.021896 0.039636 0.056691
v -0.02176 0.04346 0.052204
v -0.019159 0.042978 -0.279122
v -0.020442 0.0402 -0.286476
v -0.024831 -0.014076 0.068076
v -0.026452 -0.013722 0.069336
v -0.020093 0.042772 -0.273477
v -0.023142 0.037549 -0.281867
v -0.026462 0.053006 -0.038733
v -0.027649 0.043216 0.047891
v -0.027333 0.045482 0.043744
v -0.023141 0.049302 0.036816
v -0.022004 0.031077 -0.283498
v -0.022617 0.030149 -0.278281
v -0.023398 0.029947 -0.278764
v -0.020906 0.030951 -0.282862
v -0.029754 0.047281 -0.123809
v -0.024503 0.030508 -0.280036
v -0.026878 -0.01353 0.066843
v -0.029135 -0.012304 0.065587
v -0.027184 -0.002556 0.068816
v -0.023993 0.038626 -0.269727
v -0.027209 0.030081 -0.275457
v -0.027033 -0.012882 0.069527
v -0.024482 0.028799 -0.27531
v -0.024938 0.028833 -0.275652
v -0.025925 0.029439 -0.276723
v -0.029638 0.050097 -0.004163
v -0.028928 0.011918 0.066754
v -0.030053 0.020913 0.064211
v -0.029529 0.027962 0.061424
v -0.030356 0.033407 0.057291
v -0.031782 0.036437 0.053294
v -0.029213 0.040203 0.050903
v -0.029063 0.04664 0.03669
v -0.029639 0.04755 0.028602
v -0.026753 0.032669 -0.275041
v -0.025191 0.02834 -0.273119
v -0.026709 0.026841 -0.271736
v -0.025622 0.028061 -0.273961
v -0.026353 0.03543 -0.265684
v -0.026522 0.027244 -0.272467
v -0.026135 0.027776 -0.273377
v -0.028163 0.027317 -0.272076
v -0.035101 0.043883 -0.098601
v -0.028091 -0.013303 0.068232
v -0.027225 0.02566 -0.269938
v -0.029742 0.026443 -0.269624
v -0.029865 0.026721 -0.269166
v -0.037475 0.039452 -0.100829
v -0.028672 0.031905 -0.258939
v -0.030591 -0.012126 0.065959
v -0.030109 -0.012233 0.068251
v -0.03221 0.049532 -0.061804
v -0.029127 0.022899 -0.266975
v -0.030278 -0.012403 0.067247
v -0.029904 0.024631 -0.268349
v -0.03194 0.050222 -0.043551
v -0.032818 0.049092 -0.018906
v -0.033137 0.007237 0.065634
v -0.033136 0.014812 0.064349
v -0.034822 -0.008461 0.066094
v -0.033864 0.023916 0.060979
v -0.033959 0.028934 0.058073
v -0.032357 0.023523 -0.25352
v -0.032483 0.020791 -0.263419
v -0.031919 -0.011367 0.067229
v -0.030348 0.018861 -0.263554
v -0.032053 0.020164 -0.264269
v -0.034275 0.038602 0.048141
v -0.033582 0.046258 0.019056
v -0.033241 0.044862 0.033946
v -0.034654 0.042173 0.040677
v -0.033982 0.046277 -0.087213
v -0.031975 0.015317 -0.26109
v -0.03313 -0.010034 0.064262
v -0.031362 0.014778 -0.260372
v -0.03371 -0.010082 0.065978
v -0.034272 0.048337 -0.054378
v -0.033128 0.007994 -0.256394
v -0.033553 0.008358 -0.257103
v -0.035921 0.044161 -0.084557
v -0.033611 0.014156 -0.26027
v -0.039878 0.032747 -0.103978
v -0.036732 -0.005923 0.064981
v -0.034675 0.014113 -0.258974
v -0.035819 0.009483 -0.256953
v -0.035991 0.04705 -0.0371
v -0.034543 -6e-06 -0.25287
v -0.035423 0.007909 -0.256897
v -0.03918 0.016059 0.060468
v -0.035404 -0.007456 0.06312
v -0.03881 0.030005 0.052576
v -0.035293 -0.00017 -0.25342
v -0.036695 0.042638 0.031631
v -0.036674 0.045219 -0.002601
v -0.04189 0.027382 -0.097996
v -0.036301 -0.007034 0.064429
v -0.037145 0.027785 0.051147
v -0.036921 0.029787 0.049456
v -0.037256 0.024979 0.053407
v -0.037053 0.037018 0.036715
v -0.037038 0.038639 0.027871
v -0.032727 0.041888 0.032348
v -0.035337 -0.002879 -0.251566
v -0.03868 -0.001259 0.06365
v -0.036713 -0.000781 -0.253092
v -0.03709 0.003006 -0.254115
v -0.035421 -0.005305 -0.248455
v -0.036139 -0.005034 -0.249498
v -0.037435 0.040905 -0.090611
v -0.037101 0.045146 -0.056053
v -0.036417 -0.006671 -0.247326
v -0.036045 -0.007636 -0.245248
v -0.039269 0.003838 0.062841
v -0.037265 -0.000666 -0.253052
v -0.038913 0.011938 0.061818
v -0.037729 -0.003917 -0.250513
v -0.038965 0.019852 0.059202
v -0.039045 0.02486 0.056423
v -0.037417 -0.005539 -0.248811
v -0.036657 -0.008425 -0.243665
v -0.038171 -0.007902 -0.244751
v -0.038939 0.034412 0.047255
v -0.037354 -0.003755 0.061966
v -0.039206 0.037003 0.042031
v -0.039201 0.03855 0.03816
v -0.039196 0.039662 0.033973
v -0.039048 0.040772 0.028042
v -0.038956 0.043212 -0.010098
v -0.043275 0.020744 -0.101847
v -0.0401 0.034799 -0.089876
v -0.036776 0.039683 -0.061265
v -0.037191 0.03698 -0.079435
v -0.03675 0.036546 -0.082694
v -0.037745 -0.004436 0.063741
v -0.038364 -0.009071 -0.240782
v -0.037095 -0.009216 -0.240399
v -0.039218 0.042898 -0.039761
v -0.038456 0.029274 -0.09505
v -0.037008 0.030963 -0.107965
v -0.037258 0.034071 -0.089037
v -0.037485 0.038497 -0.069611
v -0.038787 -0.009271 -0.236095
v -0.037036 -0.009398 -0.23772
v -0.037723 0.035989 -0.083746
v -0.03796 0.034239 -0.088064
v -0.038218 -0.003926 -0.2496
v -0.039236 0.041662 -0.058258
v -0.037712 0.04122 -0.037228
v -0.037806 0.040374 -0.054874
v -0.036839 0.040738 -0.049054
v -0.038308 -0.006412 -0.247218
v -0.037788 0.037924 0.032938
v -0.037805 0.038943 0.024788
v -0.038043 0.032628 -0.090672
v -0.037625 0.040321 0.001688
v -0.038015 0.036683 0.038125
v -0.037149 0.034967 0.041609
v -0.039359 0.03808 -0.081972
v -0.038694 -0.001483 0.06276
v -0.038789 0.037398 -0.080558
v -0.038026 0.034276 0.04352
v -0.037167 0.032947 0.045045
v -0.038179 0.026636 0.052506
v -0.037742 0.030584 0.048121
v -0.038076 -0.000924 0.061222
v -0.039109 0.040276 -0.062485
v -0.038141 0.021644 0.05567
v -0.038833 0.041799 -0.04326
v -0.039096 0.035947 -0.085501
v -0.038835 0.041787 -0.009783
v -0.037916 0.041228 -0.016731
v -0.03888 0.031293 -0.092585
v -0.037533 0.018118 0.057126
v -0.038445 0.017102 0.058035
v -0.038958 0.039802 0.027161
v -0.037709 0.014615 0.058318
v -0.038962 0.038285 0.036305
v -0.039102 -0.008393 -0.241559
v -0.03889 0.036684 0.04055
v -0.038957 0.03439 0.044988
v -0.039383 0.03396 -0.089382
v -0.039216 0.030731 0.050484
v -0.038979 0.027089 0.053319
v -0.039602 0.024175 -0.098963
v -0.038299 0.00959 0.059666
v -0.038374 0.001259 0.060813
v -0.039248 0.02243 0.057025
v -0.039064 -0.008947 -0.239468
v -0.039105 0.018228 0.058694
v -0.039199 0.001632 0.06231
v -0.039192 0.011181 0.060884
v -0.044718 0.012267 -0.105935
v -0.039655 0.027474 -0.09622
v -0.039977 0.031783 -0.092481
v -0.045532 -0.009199 -0.12451
v -0.044019 -0.009333 -0.124293
v -0.039093 0.041716 -0.048639
v -0.039233 0.037776 -0.080326
v -0.039237 0.042376 -0.005558
v -0.039573 0.034854 -0.088143
v -0.039479 0.034789 -0.088165
v -0.040679 0.028672 -0.09559
v -0.039668 0.033758 -0.089884
v -0.040725 0.023125 -0.099424
v -0.039939 0.032617 -0.091519
v -0.040202 0.032418 -0.091827
v -0.043551 -0.00865 -0.168932
v -0.040619 0.019174 -0.102044
v -0.041281 0.029444 -0.095632
v -0.042131 0.022286 -0.100186
v -0.04123 0.018011 -0.102282
v -0.042519 0.010511 -0.105707
v -0.041963 0.010331 -0.106528
v -0.043546 0.014353 -0.104226
v -0.044944 0.004769 -0.121373
v -0.045925 0.002184 -0.109813
v -0.043897 0.000528 -0.109663
v -0.043144 0.000129 -0.110387
v -0.043668 -0.002433 -0.111595
v -0.045262 0.0018 -0.109291
v -0.043401 -0.005177 -0.114741
v -0.044364 -0.006647 -0.116285
v -0.043599 -0.007514 -0.11828
v -0.044163 -0.004043 -0.112999
v -0.043293 -0.008718 -0.122235
v -0.044222 -0.008389 -0.119964
v -0.045466 -0.001224 -0.11088
v -0.045683 -0.008678 -0.121589
v -0.045594 -0.007688 -0.118548
v -0.045468 -0.00439 -0.113546
v -0.046041 -0.005922 -0.115682
v -0.046156 -0.008446 -0.123273
v -0.04594 -0.000671 -0.110884
v -0.046286 -0.007077 -0.118542
v -0.046237 -0.003266 -0.113144
f 1 2 3
f 4 5 3
f 2 6 3
f 7 6 2
f 1 8 2
f 5 1 3
f 9 10 2
f 11 8 1
f 12 10 9
f 6 4 3
f 1 13 11
f 10 6 7
f 8 14 9
f 15 14 8
f 11 13 16
f 13 17 16
f 11 15 8
f 16 15 11
f 17 18 16
f 17 19 18
f 19 16 18
f 17 20 19
f 20 16 19
f 5 13 1
f 10 21 6
f 21 4 6
f 12 22 10
f 20 15 16
f 23 22 12
f 5 24 13
f 25 23 12
f 20 26 15
f 27 28 17
f 13 27 17
f 29 30 14
f 30 9 14
f 28 20 17
f 31 4 21
f 15 29 14
f 30 12 9
f 24 32 13
f 33 20 28
f 34 27 32
f 24 34 32
f 26 29 15
f 33 26 20
f 35 28 27
f 36 35 27
f 30 37 12
f 34 36 27
f 24 36 34
f 37 25 12
f 38 36 24
f 39 33 28
f 35 39 28
f 40 29 26
f 41 26 33
f 39 41 33
f 23 42 21
f 36 43 35
f 25 42 23
f 44 43 38
f 43 36 38
f 29 45 30
f 45 37 30
f 46 39 35
f 47 46 35
f 41 40 26
f 48 45 29
f 44 49 43
f 46 41 39
f 40 48 29
f 47 35 43
f 50 48 40
f 51 47 43
f 49 51 43
f 52 37 45
f 44 53 49
f 42 54 21
f 55 56 57
f 55 58 56
f 59 58 55
f 60 61 57
f 59 62 58
f 62 63 58
f 62 64 63
f 65 66 67
f 65 68 66
f 64 69 63
f 69 70 63
f 66 71 70
f 70 67 66
f 70 72 63
f 73 58 63
f 56 74 57
f 68 75 76
f 77 66 68
f 74 60 57
f 77 78 66
f 71 72 70
f 65 75 68
f 76 79 68
f 80 56 58
f 81 55 57
f 25 82 42
f 81 83 55
f 83 59 55
f 61 81 57
f 83 84 59
f 84 62 59
f 84 85 62
f 85 64 62
f 85 86 64
f 86 69 64
f 86 70 69
f 86 87 70
f 87 88 70
f 88 67 70
f 88 89 67
f 89 65 67
f 90 91 46
f 89 92 65
f 93 94 75
f 65 92 75
f 92 93 75
f 94 76 75
f 68 95 77
f 94 96 76
f 91 41 46
f 97 60 74
f 98 61 60
f 49 99 51
f 100 81 61
f 101 102 79
f 91 103 41
f 104 84 83
f 98 100 61
f 47 90 46
f 48 52 45
f 51 105 47
f 96 106 76
f 106 107 76
f 54 108 21
f 108 31 21
f 84 109 85
f 104 110 84
f 110 109 84
f 103 111 41
f 111 40 41
f 85 112 86
f 112 87 86
f 53 99 49
f 113 85 109
f 105 90 47
f 113 112 85
f 114 71 66
f 78 114 66
f 115 100 98
f 107 79 76
f 116 101 79
f 117 118 98
f 60 117 98
f 118 115 98
f 106 119 107
f 116 120 101
f 120 102 101
f 121 51 99
f 122 37 52
f 123 118 117
f 124 115 118
f 77 125 78
f 125 114 78
f 95 125 77
f 121 105 51
f 123 124 118
f 68 126 95
f 127 72 71
f 114 127 71
f 79 126 68
f 37 82 25
f 127 128 72
f 102 126 79
f 130 63 72
f 128 130 72
f 130 73 63
f 130 131 73
f 97 129 60
f 111 50 40
f 48 132 52
f 131 58 73
f 133 80 58
f 131 133 58
f 134 91 90
f 133 56 80
f 135 116 79
f 107 135 79
f 136 74 56
f 133 136 56
f 136 97 74
f 119 135 107
f 134 103 91
f 117 137 123
f 129 137 117
f 138 132 48
f 139 140 105
f 141 139 105
f 121 141 105
f 142 124 123
f 125 143 114
f 143 127 114
f 144 135 119
f 105 134 90
f 142 145 124
f 102 146 126
f 137 142 123
f 147 120 116
f 148 147 116
f 149 48 50
f 37 150 82
f 151 105 152
f 140 153 152
f 153 151 152
f 151 134 105
f 154 155 137
f 142 156 145
f 129 154 137
f 149 50 111
f 157 158 134
f 158 103 134
f 158 159 103
f 120 146 102
f 160 143 125
f 95 161 125
f 161 160 125
f 135 162 116
f 155 142 137
f 126 161 95
f 97 163 129
f 162 148 116
f 149 138 48
f 162 164 148
f 165 131 130
f 164 147 148
f 165 166 131
f 166 133 131
f 151 157 134
f 166 167 133
f 168 54 42
f 169 156 142
f 82 168 42
f 167 136 133
f 170 154 129
f 169 142 155
f 163 97 136
f 171 151 153
f 140 171 153
f 139 172 140
f 173 172 139
f 141 173 139
f 121 173 141
f 159 111 103
f 150 168 82
f 163 170 129
f 132 122 52
f 120 174 146
f 175 127 143
f 175 176 127
f 176 128 127
f 177 161 126
f 176 178 128
f 178 130 128
f 146 177 126
f 178 165 130
f 168 179 54
f 180 179 168
f 181 156 169
f 179 182 54
f 182 108 54
f 122 150 37
f 144 183 135
f 183 162 135
f 184 155 154
f 170 184 154
f 185 147 164
f 184 181 155
f 181 169 155
f 174 177 146
f 186 158 157
f 150 180 168
f 186 159 158
f 159 187 111
f 187 149 111
f 171 157 151
f 171 186 157
f 180 188 179
f 189 188 180
f 185 190 147
f 150 189 180
f 191 174 120
f 147 191 120
f 192 182 179
f 188 192 179
f 189 164 188
f 193 181 184
f 150 185 189
f 164 162 188
f 136 194 163
f 195 194 136
f 196 195 136
f 167 196 136
f 197 196 167
f 166 197 167
f 165 197 166
f 178 197 165
f 175 198 176
f 199 143 160
f 161 199 160
f 200 199 161
f 183 192 188
f 162 183 188
f 201 202 172
f 173 201 172
f 177 200 161
f 203 201 173
f 204 149 187
f 185 164 189
f 205 200 177
f 206 205 177
f 174 206 177
f 163 207 170
f 170 193 184
f 207 193 170
f 171 208 186
f 208 159 186
f 208 209 159
f 210 203 173
f 202 208 171
f 209 187 159
f 204 211 149
f 212 198 175
f 143 212 175
f 199 212 143
f 191 206 174
f 213 181 193
f 122 185 150
f 163 214 207
f 215 191 147
f 203 216 201
f 216 202 201
f 122 217 185
f 218 206 191
f 209 219 187
f 220 219 209
f 214 163 194
f 221 214 194
f 195 221 194
f 197 222 196
f 223 222 197
f 224 223 197
f 178 224 197
f 225 224 178
f 176 225 178
f 198 225 176
f 226 199 200
f 208 220 209
f 227 220 208
f 207 228 193
f 217 190 185
f 228 213 193
f 229 203 210
f 190 215 147
f 219 204 187
f 202 227 208
f 132 217 122
f 216 227 202
f 211 138 149
f 215 218 191
f 229 216 203
f 229 230 216
f 231 219 220
f 227 231 220
f 232 228 207
f 132 190 217
f 216 231 227
f 195 233 221
f 234 233 195
f 196 234 195
f 222 234 196
f 198 235 225
f 236 235 198
f 212 236 198
f 237 236 212
f 199 237 212
f 226 237 199
f 200 238 226
f 205 238 200
f 214 232 207
f 230 231 216
f 239 238 205
f 206 239 205
f 204 240 211
f 241 232 214
f 242 243 219
f 231 242 219
f 204 244 240
f 245 230 229
f 246 245 229
f 218 247 206
f 247 239 206
f 243 204 219
f 243 244 204
f 248 246 229
f 249 218 215
f 138 249 215
f 190 138 215
f 230 242 231
f 138 190 132
f 232 250 228
f 241 250 232
f 250 213 228
f 251 138 211
f 240 251 211
f 243 252 244
f 245 242 230
f 242 252 243
f 253 252 242
f 241 214 221
f 254 241 221
f 233 254 221
f 222 255 234
f 256 255 222
f 223 256 222
f 257 256 223
f 224 257 223
f 258 257 224
f 225 258 224
f 235 258 225
f 259 237 226
f 238 259 226
f 245 253 242
f 252 260 244
f 249 247 218
f 261 246 248
f 246 262 245
f 262 253 245
f 263 260 252
f 253 263 252
f 264 263 253
f 262 264 253
f 265 246 261
f 265 266 246
f 266 262 246
f 263 267 260
f 268 264 262
f 269 268 262
f 270 241 254
f 233 271 254
f 272 271 233
f 234 272 233
f 255 272 234
f 235 273 258
f 236 273 235
f 274 273 236
f 237 274 236
f 259 274 237
f 266 275 269
f 275 268 269
f 264 267 263
f 276 259 238
f 239 276 238
f 277 251 240
f 244 277 240
f 250 278 213
f 247 276 239
f 241 279 250
f 279 280 250
f 280 278 250
f 281 276 247
f 275 266 268
f 282 265 261
f 266 264 268
f 249 281 247
f 251 283 138
f 260 284 244
f 284 277 244
f 270 279 241
f 267 285 260
f 285 284 260
f 264 285 267
f 286 285 264
f 266 286 264
f 287 280 279
f 283 288 138
f 289 270 254
f 271 289 254
f 255 290 272
f 256 291 255
f 291 290 255
f 257 292 256
f 292 291 256
f 258 293 257
f 293 292 257
f 273 293 258
f 294 274 259
f 295 279 270
f 288 249 138
f 296 281 249
f 288 296 249
f 277 283 251
f 297 298 265
f 298 266 265
f 298 299 266
f 300 278 280
f 287 300 280
f 295 287 279
f 296 301 281
f 302 276 281
f 301 302 281
f 302 303 276
f 303 294 276
f 294 259 276
f 289 295 270
f 271 304 289
f 305 304 271
f 272 305 271
f 290 305 272
f 273 306 293
f 307 306 273
f 274 307 273
f 294 307 274
f 282 297 265
f 277 308 283
f 309 300 287
f 309 287 295
f 310 309 295
f 300 311 278
f 289 310 295
f 312 310 289
f 304 312 289
f 290 313 305
f 314 313 290
f 291 314 290
f 315 314 291
f 292 315 291
f 316 315 292
f 293 316 292
f 306 316 293
f 317 307 294
f 308 288 283
f 308 318 288
f 318 319 288
f 319 296 288
f 277 320 308
f 296 321 301
f 320 318 308
f 285 322 284
f 323 311 300
f 309 323 300
f 311 324 278
f 325 323 309
f 310 325 309
f 284 322 277
f 322 320 277
f 326 322 285
f 327 302 301
f 321 327 301
f 319 321 296
f 286 326 285
f 299 286 266
f 327 303 302
f 328 294 303
f 328 317 294
f 304 329 312
f 330 329 304
f 305 330 304
f 331 330 305
f 313 331 305
f 306 332 316
f 333 332 306
f 307 333 306
f 317 333 307
f 318 334 319
f 335 318 320
f 336 325 310
f 322 335 320
f 336 337 325
f 335 334 318
f 326 338 322
f 334 339 319
f 339 321 319
f 338 335 322
f 286 340 326
f 299 340 286
f 328 341 317
f 313 342 331
f 343 342 313
f 314 343 313
f 344 343 314
f 315 344 314
f 316 345 315
f 345 344 315
f 332 345 316
f 341 333 317
f 346 334 335
f 347 346 335
f 312 336 310
f 347 338 326
f 340 347 326
f 338 347 335
f 348 324 311
f 323 348 311
f 349 348 323
f 346 350 334
f 323 325 337
f 282 298 297
f 347 351 346
f 352 328 303
f 327 352 303
f 351 350 346
f 329 336 312
f 332 353 345
f 354 353 332
f 355 354 332
f 333 355 332
f 341 355 333
f 356 298 282
f 339 327 321
f 340 351 347
f 357 358 359
f 360 339 334
f 350 360 334
f 358 361 359
f 361 356 359
f 362 363 324
f 348 362 324
f 364 337 336
f 351 365 350
f 299 366 340
f 329 364 336
f 349 323 337
f 367 349 337
f 361 298 356
f 365 360 350
f 339 352 327
f 361 366 298
f 366 299 298
f 368 358 357
f 368 369 358
f 370 361 358
f 364 367 337
f 352 371 328
f 371 341 328
f 372 364 329
f 330 372 329
f 373 372 330
f 331 373 330
f 342 373 331
f 374 373 342
f 375 374 342
f 343 375 342
f 344 375 343
f 376 375 344
f 377 376 344
f 345 377 344
f 353 377 345
f 378 354 355
f 379 378 355
f 341 379 355
f 371 379 341
f 366 351 340
f 366 380 351
f 380 365 351
f 381 382 368
f 382 383 368
f 380 384 365
f 383 369 368
f 369 370 358
f 382 385 369
f 385 386 369
f 386 370 369
f 387 370 386
f 349 362 348
f 365 388 360
f 389 362 349
f 390 382 381
f 387 391 370
f 385 387 386
f 391 361 370
f 391 366 361
f 382 387 385
f 366 392 380
f 393 365 384
f 394 393 384
f 380 394 384
f 395 363 362
f 364 396 367
f 360 397 339
f 389 395 362
f 392 394 380
f 398 382 390
f 396 399 389
f 396 349 367
f 349 396 389
f 398 400 382
f 400 387 382
f 392 366 391
f 397 401 339
f 401 352 339
f 393 388 365
f 400 391 387
f 401 402 352
f 402 371 352
f 372 403 364
f 373 404 372
f 405 396 364
f 374 406 373
f 407 406 374
f 392 408 394
f 391 409 392
f 399 395 389
f 396 410 399
f 411 412 398
f 412 400 398
f 375 407 374
f 377 413 376
f 353 413 377
f 414 415 379
f 415 378 379
f 354 413 353
f 415 416 378
f 416 354 378
f 416 413 354
f 371 414 379
f 402 414 371
f 409 408 392
f 388 417 360
f 418 412 411
f 395 419 363
f 412 391 400
f 403 405 364
f 412 409 391
f 420 418 411
f 404 403 372
f 421 395 399
f 410 421 399
f 397 422 401
f 405 410 396
f 417 397 360
f 423 424 420
f 425 417 388
f 426 412 418
f 424 418 420
f 421 419 395
f 427 393 394
f 408 427 394
f 424 426 418
f 403 428 405
f 429 408 409
f 430 412 426
f 401 431 402
f 405 421 410
f 430 409 412
f 422 431 401
f 430 429 409
f 432 424 423
f 433 426 424
f 373 434 404
f 406 434 373
f 417 422 397
f 421 435 419
f 433 430 426
f 375 436 407
f 376 436 375
f 432 437 424
f 413 436 376
f 415 438 416
f 414 438 415
f 439 438 414
f 440 427 408
f 429 440 408
f 441 421 405
f 402 439 414
f 442 443 444
f 445 446 447
f 431 439 402
f 448 437 432
f 441 435 421
f 449 428 403
f 450 433 424
f 437 450 424
f 433 451 430
f 452 453 448
f 388 454 425
f 425 422 417
f 455 431 422
f 448 450 437
f 456 453 452
f 457 456 452
f 425 455 422
f 393 454 388
f 458 449 403
f 428 441 405
f 459 451 433
f 460 458 403
f 404 460 403
f 461 450 448
f 450 459 433
f 434 460 404
f 453 461 448
f 406 462 434
f 463 462 406
f 464 461 453
f 407 463 406
f 456 464 453
f 436 463 407
f 465 456 457
f 466 464 456
f 413 467 436
f 441 468 435
f 465 466 456
f 469 467 413
f 416 469 413
f 470 469 416
f 438 471 416
f 471 470 416
f 472 471 438
f 439 473 438
f 473 472 438
f 474 440 429
f 430 474 429
f 393 475 454
f 476 477 478
f 479 468 441
f 461 459 450
f 449 479 428
f 431 473 439
f 480 466 465
f 428 479 441
f 481 480 465
f 482 473 431
f 483 484 485
f 476 486 477
f 455 482 431
f 487 480 481
f 488 487 481
f 489 478 477
f 490 485 478
f 491 451 459
f 492 482 455
f 489 490 478
f 493 494 495
f 425 492 455
f 496 461 464
f 466 496 464
f 497 498 446
f 445 497 446
f 461 491 459
f 490 499 485
f 446 498 500
f 501 497 445
f 502 501 445
f 499 483 485
f 454 503 425
f 503 492 425
f 479 504 468
f 486 505 477
f 502 506 501
f 449 504 479
f 507 506 502
f 442 508 509
f 505 489 477
f 509 506 507
f 444 508 442
f 494 505 486
f 504 510 468
f 511 505 494
f 512 508 444
f 513 511 494
f 493 513 494
f 514 490 489
f 505 514 489
f 496 491 461
f 515 513 493
f 516 515 493
f 500 515 516
f 517 483 499
f 518 519 512
f 520 515 500
f 498 520 500
f 521 519 518
f 497 520 498
f 522 520 497
f 466 523 496
f 524 522 497
f 501 524 497
f 506 524 501
f 525 524 506
f 514 526 490
f 480 523 466
f 527 525 506
f 509 527 506
f 528 527 509
f 508 528 509
f 529 484 483
f 530 519 521
f 517 499 490
f 475 503 454
f 504 531 510
f 532 528 508
f 512 532 508
f 487 533 480
f 533 523 480
f 526 517 490
f 534 532 512
f 519 534 512
f 427 475 393
f 504 535 531
f 536 534 519
f 530 536 519
f 537 474 430
f 451 537 430
f 535 536 530
f 517 538 483
f 526 539 517
f 531 535 530
f 540 487 488
f 541 540 488
f 542 511 513
f 543 514 505
f 535 504 449
f 458 535 449
f 473 544 472
f 520 544 515
f 545 546 514
f 511 543 505
f 436 527 463
f 467 527 436
f 515 544 513
f 544 542 513
f 460 434 458
f 520 471 544
f 547 538 517
f 539 547 517
f 462 532 434
f 463 532 462
f 503 514 543
f 522 471 520
f 470 471 522
f 524 469 522
f 469 470 522
f 527 532 463
f 525 469 524
f 527 469 525
f 482 544 473
f 546 526 514
f 544 471 472
f 467 469 527
f 532 527 528
f 535 458 536
f 434 532 534
f 538 529 483
f 511 503 543
f 482 542 544
f 482 492 542
f 492 511 542
f 492 503 511
f 536 434 534
f 458 434 536
f 503 545 514
f 548 526 546
f 475 545 503
f 545 548 546
f 549 529 538
f 548 539 526
f 540 533 487
f 550 539 548
f 551 550 548
f 540 552 533
f 475 551 545
f 547 549 538
f 552 523 533
f 551 547 550
f 427 440 475
f 549 553 529
f 554 547 551
f 475 554 551
f 440 554 475
f 547 555 549
f 549 556 553
f 557 558 556
f 552 491 523
f 555 556 549
f 554 555 547
f 474 555 554
f 440 474 554
f 555 559 556
f 560 537 451
f 491 560 451
f 559 557 556
f 561 560 491
f 562 563 557
f 552 561 491
f 474 559 555
f 537 559 474
f 562 564 563
f 559 565 557
f 565 562 557
f 566 567 568
f 569 566 564
f 570 571 541
f 568 571 570
f 567 571 568
f 569 567 566
f 565 572 562
f 572 564 562
f 571 573 541
f 573 540 541
f 537 565 559
f 572 569 564
f 574 573 571
f 561 565 537
f 572 575 569
f 567 574 571
f 575 567 569
f 576 574 567
f 575 576 567
f 560 561 537
f 540 577 552
f 577 561 552
f 578 572 565
f 561 578 565
f 579 580 561
f 577 579 561
f 572 580 575
f 578 580 572
f 580 576 575
f 573 577 540
f 576 579 574
f 574 579 573
f 561 580 578
f 579 577 573
f 580 579 576
f 8 9 2
f 23 21 10
f 32 34 13
f 153 152 105
f 172 171 139
f 202 171 172
f 275 269 262
f 383 385 369
f 550 548 546
f 547 539 550
