v 0.0193031 -0.0240126 -0.255533
v 0.0258294 -0.0128738 -0.175282
v 0.0228635 -0.003472 -0.245709
v 0.019672 -0.023655 -0.26367
v 0.0198136 -0.0251059 -0.264601
v 0.018426 -0.023659 -0.263602
v 0.018895 -0.023655 -0.264013
v 0.019239 -0.023655 -0.263998
v 0.019068 -0.023655 -0.264031
v 0.016008 0.0242943 0.0343214
v 0.0143867 0.0224471 0.0368901
v 0.00337308 0.0249284 0.0411197
v 0.0042386 0.027031 0.0370261
v -0.007488 0.02643 0.037024
v -0.0128805 0.0234338 0.0356528
v 0.017864 -0.0280522 0.036563
v 0.00532524 -0.0289388 0.041128
v 0.0131381 -0.0281909 0.0360377
v 0.00223941 -0.0312739 0.0371306
v -0.0112689 -0.0268743 0.0361186
v -0.0151991 -0.0276841 0.0365315
v 0.0411596 0.0288703 -0.320359
v 0.0396685 0.0266753 -0.322413
v 0.0372619 0.027144 -0.331992
v 0.0367538 0.0306896 -0.313109
v 0.0269459 0.0298351 -0.305513
v 0.0294909 0.028591 -0.295466
v 0.0362399 0.0307211 -0.327557
v 0.0265083 0.0294964 -0.335153
v 0.0237367 0.0273919 -0.299669
v 0.0250694 0.0278236 -0.286479
v 0.0162495 0.0271089 -0.334034
v 0.0230747 0.031887 -0.306667
v 0.0181965 0.0266655 -0.307525
v 0.0206869 0.0320309 -0.307084
v 0.0175105 0.0320574 -0.303488
v 0.0088435 0.0274548 -0.281091
v 0.02059 0.032016 -0.306916
v 0.0197202 0.0320468 -0.306271
v 0.0172656 0.0267486 -0.295345
v 0.0174547 0.0320806 -0.308724
v 0.0131665 0.0308908 -0.327609
v 0.017931 0.03209 -0.305095
v 0.00582132 0.0265952 -0.299908
v 0.0170516 0.0285302 -0.288896
v 0.0182995 0.0317705 -0.294848
v 0.0171759 0.0320936 -0.304682
v 0.0161875 0.0320277 -0.302383
v 0.0149393 0.0313688 -0.29734
v 0.0156432 0.0317299 -0.298439
v 0.0160348 0.0319813 -0.30881
v 0.014499 0.032081 -0.308813
v 0.0144459 0.031704 -0.311406
v 0.0138853 0.0313139 -0.297465
v 0.013563 0.0319878 -0.305605
v 0.011891 0.031824 -0.313814
v 0.0149783 0.0322799 -0.302783
v 0.008468 0.026595 -0.304759
v 0.0107302 0.0293116 -0.28707
v 0.008651 0.028612 -0.284043
v 0.0120283 0.0308112 -0.295492
v 0.0113805 0.0264677 -0.322986
v 0.0109901 0.0306326 -0.294965
v 0.00156042 0.0263724 -0.311993
v 0.00844081 0.0300957 -0.307859
v 0.00459996 0.0320616 -0.310749
v -0.00431104 0.0265556 -0.302987
v -0.00388164 0.0273576 -0.305396
v 0.007795 0.026879 -0.270938
v -0.000932983 0.0273117 -0.276645
v 0.00481802 0.0273203 -0.275474
v 0.00459098 0.0306904 -0.299158
v 0.002984 0.026585 -0.301168
v 0.000791 0.026584 -0.299379
v 0.0030589 0.0278491 -0.288478
v 0.002482 0.026582 -0.301136
v 0.002237 0.02658 -0.301143
v -0.0126658 0.0266624 -0.28665
v 0.0035302 0.0286671 -0.294378
v -0.0035661 0.0269488 -0.281871
v 0.013924 -0.035121 0.03414
v 0.013931 -0.034823 0.033913
v 0.014024 -0.03461 0.033911
v 0.013922 -0.035234 0.033918
v -0.030256 -0.047292 -0.061004
v -0.030371 -0.047283 -0.060525
v -0.030256 -0.047361 -0.060527
v 0.0496585 -0.0322032 0.0291072
v 0.0343679 -0.0230011 0.0274374
v 0.0501517 0.0247585 0.0287632
v 0.0459879 -0.0119908 -0.0370391
v 0.0501701 0.0268808 -0.0356386
v 0.0469907 -0.00216207 0.0299233
v 0.050126 0.027944 0.02208
v 0.027299 0.027648 0.024332
v 0.032139 0.027911 0.017344
v 0.0397185 0.0282257 0.014697
v 0.04007 0.027916 0.016743
v 0.0472464 -0.0355957 -0.0374058
v 0.0426448 -0.0399482 0.028423
v 0.04789 -0.00207793 -0.0375139
v 0.0453985 -0.0220731 -0.0490226
v 0.0476294 0.0276695 -0.322414
v 0.0505015 0.0191982 -0.316746
v 0.0311747 0.017124 -0.278998
v 0.0485777 -0.0317236 -0.318374
v 0.0451391 -0.0304544 -0.333193
v 0.041563 -0.0322478 0.0165409
v 0.0385391 -0.00122415 0.0306471
v 0.0403381 0.0281568 -0.0449422
v 0.0483387 0.00897924 -0.0489967
v 0.0409024 -0.040878 -0.0335566
v 0.0454128 0.0272813 -0.315595
v 0.0375245 0.00515942 -0.0409892
v 0.025479 -0.03188 -0.275716
v 0.045009 0.0184158 -0.0374302
v 0.0454204 0.0273692 -0.31874
v 0.0307702 0.0266713 -0.28796
v 0.0356971 0.0339581 -0.302821
v 0.039296 -0.0057759 -0.0504265
v 0.0356668 0.028157 -0.033107
v 0.0416211 -0.0257468 -0.0373752
v 0.0373532 0.0269056 -0.337013
v 0.0455435 0.00967391 -0.0458483
v 0.0279994 0.0262453 -0.278357
v 0.0472047 -0.00793621 -0.0406547
v 0.0362506 -0.0303937 -0.0443377
v 0.022375 0.026921 -0.275224
v 0.0203014 0.0267498 -0.272448
v 0.0337592 -0.0341474 -0.0380307
v 0.0437552 0.0297155 -0.327808
v 0.0347018 0.0300889 -0.0378606
v 0.039926 0.027977 0.016717
v 0.039754 0.028032 0.016775
v 0.0381482 -0.0318997 0.00765137
v 0.039634 0.0279625 0.0169407
v 0.0334203 0.029063 0.0143298
v 0.0373237 0.00800825 -0.0515013
v 0.038052 -0.032064 -0.338231
v 0.0388556 0.0277902 -0.01827
v 0.0402209 -0.00252247 0.0412729
v 0.037749 -0.001439 -0.052522
v 0.0353207 0.0113145 -0.0526549
v 0.0376858 0.00800632 -0.0459342
v 0.0279391 0.0350467 -0.0458605
v 0.0352152 0.0342201 0.0151794
v 0.0328475 0.0166905 -0.317277
v 0.031641 0.034619 -0.332331
v 0.037426 -0.005806 -0.053579
v 0.02959 0.028054 -0.021288
v 0.036702 -0.010399 -0.053566
v 0.0192934 0.0346327 -0.333522
v 0.0256447 0.0397832 -0.0488023
v 0.030996 0.016744 -0.343386
v 0.0300088 -0.0483008 -0.0215812
v 0.0348111 -0.0386197 0.0147647
v 0.0379615 -0.00590716 0.0441408
v 0.0352763 0.00877008 0.0445782
v 0.03433 -0.031744 -0.341717
v 0.0349352 0.0465382 0.00909302
v 0.0346634 0.045237 -0.0108184
v 0.0516625 -0.0215153 -0.325681
v 0.0334917 0.0320093 -0.018922
v 0.0391501 0.0166281 -0.339953
v 0.0338643 -0.0201763 -0.051362
v 0.0344193 0.0347872 0.0165604
v 0.0267246 0.0318356 -0.0281435
v 0.0352567 -0.0323108 -0.0286165
v 0.0358957 5.8601e-05 0.0614454
v 0.0345531 0.0182093 0.0605958
v 0.032458 0.040235 0.016987
v 0.032088 0.044527 0.017323
v 0.0293087 -0.0455592 0.0225128
v 0.032177 0.0369775 -0.017656
v 0.0258824 0.0465488 0.0249032
v 0.0415386 -0.0287513 -0.301196
v 0.0317927 0.0217238 0.0579833
v 0.032409 0.040614 -0.016834
v 0.031342 0.044588 -0.018449
v 0.0268906 0.0281013 -0.0500391
v 0.032168 0.040418 0.017234
v 0.0333289 0.0275013 -0.338724
v 0.033421 -0.0442779 -0.0460446
v 0.0190751 0.0305945 -0.0409192
v 0.031643 0.019679 0.061195
v 0.031613 0.020855 0.060004
v 0.032296 0.037154 -0.018546
v 0.028101 -0.001314 -0.224769
v 0.031293 -0.046327 -0.08521
v 0.0196257 0.0464564 -0.029965
v 0.027898 -0.008621 -0.225094
v 0.0253848 0.0184962 -0.219581
v 0.0260078 -0.0439026 -0.0326473
v 0.0339653 -0.0451363 -0.0329984
v 0.032377 0.03883 -0.017409
v 0.032363 0.038617 -0.017531
v 0.032351 0.038412 -0.017661
v 0.030827 0.040418 -0.019722
v 0.0294001 0.0207911 -0.0536371
v 0.032194 0.04134 0.017291
v 0.032185 0.041207 0.017282
v 0.033494 -0.0215373 -0.317267
v 0.032206 0.041506 0.017272
v 0.0279414 0.0234927 -0.0525485
v 0.027055 -0.015519 -0.223357
v 0.0311289 -0.0264212 -0.281072
v 0.030507 0.037532 -0.021087
v 0.03087 0.02164 0.05847
v 0.0246111 -0.0381397 -0.0267612
v 0.028466 -0.0481171 -0.0587414
v 0.0305928 -0.0219321 -0.344505
v 0.0168613 0.0468691 0.00753523
v 0.02991 0.040622 -0.020995
v 0.029872 0.040813 -0.021015
v 0.029845 0.041015 -0.021029
v 0.029682 0.041336 -0.021168
v 0.0346919 0.0265635 -0.336177
v 0.029971 -0.025746 -0.242438
v 0.0306233 -0.0255402 -0.230343
v 0.030389 0.02109 -0.230054
v 0.030591 0.020804 -0.231323
v 0.030405 -0.025717 -0.230279
v 0.029785 0.021279 -0.242918
v 0.0295011 0.0187606 -0.269678
v 0.0214417 0.0405952 -0.0297623
v 0.0312892 0.0693747 -0.00312163
v 0.0269214 -0.00215616 0.0623655
v 0.0266118 0.01259 0.0659712
v -0.027369 0.018051 0.063088
v -0.001384 0.014579 0.062788
v -0.027158 0.020229 0.061793
v 0.029644 -0.025917 -0.241864
v -0.027861 0.021228 0.060212
v 0.030182 -0.025763 -0.231677
v 0.0275018 -0.0259673 0.0472805
v 0.028321 -0.0257053 0.0593629
v -0.027498 0.021638 0.058884
v 0.0284132 0.0222169 0.0341427
v 0.00283541 0.0219745 0.0561913
v 0.0272915 0.021891 0.0531929
v 0.029579 -0.025926 -0.241958
v 0.022601 -0.031994 -0.226424
v 0.024408 -0.026068 -0.238491
v 0.029685 -0.026796 -0.228005
v 0.0199425 0.0421948 -0.0371181
v 0.025452 -0.031751 -0.343638
v 0.028201 0.022002 -0.276185
v 0.0324068 0.0668672 0.00595519
v 0.0295299 -0.0270726 -0.245902
v 0.0297642 0.0214467 -0.248537
v 0.029752 0.021542 -0.243691
v 0.029535 0.021738 -0.243841
v 0.029504 -0.026095 -0.243047
v 0.029679 0.021603 -0.243654
v 0.029627 0.021595 -0.243552
v 0.0293669 -0.0228839 -0.268699
v 0.02731 0.026472 -0.339891
v 0.0297128 0.000572057 -0.228458
v 0.0243184 -0.0267174 -0.268276
v 0.024733 -0.026127 -0.248776
v 0.0294513 0.0214087 -0.243026
v 0.0280188 0.0206423 -0.253617
v 0.0273474 -0.0258657 -0.27166
v 0.0298415 0.0213169 -0.27626
v 0.0280938 -0.0248935 -0.253566
v 0.0300991 0.0618848 -0.00545969
v 0.0235423 -0.0319394 -0.221566
v 0.0372247 0.0277522 -0.341179
v 0.0272986 0.0222172 0.0377201
v 0.029475 -0.0412431 0.0473346
v 0.0280818 -0.0192288 -0.26367
v 0.0292073 -0.0401234 0.0464816
v 0.0258602 0.0216749 -0.271467
v 0.0261207 0.0254246 -0.249904
v 0.026703 -0.028987 0.052845
v 0.0208162 0.0168108 -0.274121
v 0.0132595 0.0468337 -0.0127106
v 0.027742 -0.0209931 -0.266397
v 0.0241692 0.0443385 0.0271779
v 0.0221015 -0.0214435 -0.273172
v 0.0283971 0.0159576 -0.263749
v 0.0324261 0.0324799 -0.0407847
v 0.028349 -0.04578 -0.025982
v 0.0257435 0.0161606 -0.269718
v 0.0235049 0.0271534 -0.22106
v 0.0277537 -0.0183158 0.0628454
v 0.0298265 0.0691333 -0.0110205
v 0.0225974 0.0272995 -0.340316
v 0.022691 -0.009201 -0.270268
v 0.022645 0.004482 -0.27031
v 0.0263939 -0.00205971 0.0654438
v 0.0263467 0.023099 -0.248115
v 0.025058 -0.0405288 -0.0266053
v 0.0282904 0.0458708 -0.022826
v 0.0137563 0.0443618 -0.0492743
v 0.019293 0.0289896 -0.271608
v 0.0288167 0.0738441 0.0060869
v 0.0228268 -0.0307638 0.0403212
v 0.0271024 0.0217857 0.0471817
v 0.0240642 -0.0292404 0.0468372
v 0.0253662 0.0312634 0.0309273
v 0.0214716 0.0276346 -0.340005
v -0.027909 0.021887 -0.036864
v -0.00704398 0.0249172 -0.0360031
v 0.027208 0.022731 -0.03675
v 0.026822 0.023804 0.035954
v 0.0270019 -0.0182947 -0.224499
v 0.024733 0.024859 0.033829
v 0.021246 0.026819 -0.337771
v 0.0261758 -0.00523648 0.0654459
v 0.023008 0.034599 0.029857
v 0.0257061 -0.0262253 0.0518271
v 0.0219415 -0.0214173 -0.312676
v 0.0240292 0.0216698 -0.266242
v 0.02577 0.0265 -0.340012
v 0.024859 0.026428 -0.340055
v 0.023769 -0.026504 0.047871
v 0.023771 -0.026388 0.047965
v 0.023846 -0.025956 0.04846
v 0.0202291 0.027943 -0.0332719
v 0.019089 0.009001 -0.255701
v 0.025933 0.00982299 -0.164924
v 0.0246 -0.025984 0.04773
v 0.0221464 0.0215969 0.0495253
v 0.0230855 0.0264325 -0.339943
v 0.02528 0.016384 -0.124383
v 0.021663 0.00292 -0.254277
v 0.0233302 -0.0301211 -0.195586
v 0.0233314 -0.0316439 0.0282671
v 0.0292789 0.0228266 0.0287547
v 0.0243205 0.0212794 -0.248836
v 0.022574 0.026865 0.029547
v 0.0162112 0.0729117 0.0257762
v 0.00840046 0.0618501 0.0165325
v 0.0181619 0.0618671 -0.00231258
v 0.0208403 0.0736853 -0.020237
v 0.0253185 -0.0308567 -0.250175
v 0.02184 0.009484 -0.254177
v 0.023553 0.00147 -0.232032
v 0.022446 -0.032181 -0.203692
v 0.0241358 0.0264805 -0.338352
v 0.0194859 0.0166391 -0.313117
v 0.023207 0.020997 -0.104252
v 0.022729 0.016387 -0.194619
v 0.021477 0.027135 0.030408
v 0.022389 0.027835 -0.151025
v 0.0244905 -0.0273015 -0.249431
v 0.022479 0.027218 -0.249496
v 0.0208248 0.028152 -0.270281
v 0.0226503 0.0388236 -0.0303453
v 0.0235851 0.0252151 0.0469005
v 0.001187 -0.021644 -0.323709
v 0.021548 0.0405678 0.0296565
v 0.0225437 0.0376386 0.029426
v 0.0262115 0.0165433 -0.328216
v 0.022525 -0.031909 -0.249197
v 0.022042 0.041992 -0.029027
v 0.014917 0.013787 -0.258015
v 0.022393 0.026631 0.029922
v 0.023835 -0.026316 0.047989
v 0.0209796 -0.032252 -0.264334
v 0.020154 0.01921 -0.255095
v 0.018059 -0.045715 -0.262795
v 0.022276 -0.001225 -0.253938
v 0.022694 -0.001309 -0.248696
v 0.022891 0.027038 0.029719
v 0.022267 0.00369 -0.270322
v 0.0229089 0.0269444 0.0297446
v 0.022746 0.026913 0.029656
v 0.022586 0.02307 0.047658
v 0.01589 0.0284555 -0.265793
v 0.02228 0.0273831 -0.226786
v 0.0220908 0.00467467 -0.271015
v 0.00691708 0.0350724 -0.308912
v 0.0225683 0.0625408 0.0198988
v 0.021754 0.027129 0.029585
v 0.022174 0.026756 0.029877
v 0.022007 0.026856 0.029845
v 0.020095 0.018852 -0.25514
v 0.021889 0.026914 0.029938
v 0.0123597 0.0627889 -0.0275128
v 0.0209646 -0.0200419 -0.272311
v 0.021654 0.003968 -0.270227
v 0.0198315 0.0395955 -0.0329233
v 0.021658 0.004094 -0.270328
v 0.0168212 -0.0088862 -0.268216
v 0.019429 0.003775 -0.269039
v 0.021691 0.003875 -0.270194
v 0.0194309 0.0245617 -0.181183
v 0.019825 0.025226 -0.089231
v 0.00357355 0.043899 -0.0452576
v 0.021252 0.027382 0.0302
v 0.0207745 0.0282093 -0.0302244
v 0.0220079 -0.0092587 -0.271178
v 0.019713 0.042704 0.0312114
v 0.0141411 0.0449825 0.0338221
v 0.0155857 0.0272052 -0.337917
v 0.0185442 0.0354758 0.0326717
v 0.0182431 0.028498 0.0374514
v 0.0197063 0.0285768 0.0370033
v 0.0187278 0.00536306 -0.272139
v 0.013606 0.014831 -0.258776
v 0.0138393 0.0297972 0.0470178
v 0.019413 -0.0209906 -0.272897
v 0.019895 0.019416 -0.263911
v 0.019079 0.023856 -0.256337
v 0.00487673 0.0618228 -0.0175717
v 0.014372 0.029715 -0.213207
v 0.0166474 0.0262728 -0.33766
v 0.019593 0.019034 -0.26408
v 0.0215104 -0.0213407 -0.327948
v 0.018019 0.01654 -0.323217
v 0.00652 0.016397 -0.333079
v 0.014225 0.014426 -0.258393
v 0.0189055 0.0152929 -0.272589
v 0.007043 0.018184 -0.262363
v 0.019445 0.018933 -0.263491
v 0.018177 -0.0104513 -0.272004
v 0.018956 0.02378 -0.263097
v 0.016951 0.018891 -0.261225
v 0.015672 0.019013 -0.261961
v 0.019217 0.034495 -0.297963
v 0.000147957 -0.0285207 0.0461612
v 0.019413 0.018936 -0.263656
v 0.01935 0.019505 -0.264424
v 0.018667 0.018968 -0.264132
v 0.018553 0.01894 -0.263843
v 0.018372 0.018943 -0.26369
v 0.01825 0.018931 -0.263479
v 0.014802 0.027494 -0.098091
v 0.016699 -0.008626 -0.268169
v 0.016625 0.003863 -0.268132
v 0.0192185 0.018939 -0.26386
v 0.0171399 -0.00991114 -0.270773
v 0.020758 0.0262409 0.0520193
v -0.00250405 0.046844 0.018728
v 0.018789 0.019159 -0.264393
v 0.0189 0.019534 -0.264449
v 0.01886 0.019431 -0.264459
v 0.018595 0.021119 -0.264121
v 0.0162455 -0.0195873 -0.270812
v 0.017956 0.024045 -0.262981
v 0.017967 0.024033 -0.26309
v 0.018109 0.024005 -0.263138
v 0.01869 0.023584 -0.263412
v 0.0162677 -0.0211873 -0.321023
v 0.0163464 0.0243659 -0.261815
v 0.018601 0.02359 -0.263459
v 0.018247 0.023799 -0.263509
v 0.0126629 0.0632953 0.0275815
v 0.0218109 0.0675811 -0.0231461
v 0.018476 0.023596 -0.263507
v 0.0186035 0.029144 0.0368935
v 0.0180019 0.0300335 0.0325128
v 0.013342 0.0287306 -0.264511
v 0.017841 0.039414 0.03193
v 0.018104 0.041454 0.031761
v 0.00891834 0.0311491 -0.278234
v 0.0167067 0.012658 -0.270627
v 0.0133704 0.0280642 -0.265146
v 0.016367 0.004409 -0.267998
v 0.0136326 0.0284667 -0.265789
v 0.01471 0.015191 -0.270851
v 0.0150313 -0.0192596 -0.264027
v 0.00602521 0.0436302 -0.0370206
v 0.011118 0.046402 0.033525
v 0.0156208 -0.00776025 -0.264966
v 0.0100585 0.0285284 -0.3336
v 0.0191113 0.0276259 -0.342365
v 6.18895e-05 0.0289363 0.0477502
v 0.0167587 -0.0219104 -0.343401
v 0.009712 0.029032 -0.104768
v 0.0149834 0.0142109 -0.262511
v 0.0196636 0.0311101 -0.0516612
v 0.009798 0.026866 -0.333305
v -0.011108 -0.0207825 -0.28464
v -0.00225788 0.0460424 -0.0371956
v -0.019297 0.0169277 -0.290578
v 0.000438194 -0.0303571 0.0500385
v 0.00168438 0.0352552 -0.0369367
v 0.009622 0.04608 -0.034177
v 0.0134223 -0.00234787 -0.263917
v 0.0146513 0.00172996 -0.263453
v 0.00494848 -0.0216486 -0.334305
v 0.0137686 0.0332816 -0.0525932
v 0.00865489 0.0299918 0.0518928
v 0.007763 0.030992 0.046778
v 0.008835 0.031741 -0.170821
v 0.009812 0.0315825 -0.169546
v 0.008443 0.030687 -0.21531
v 0.009531 0.073543 0.027442
v 0.0136242 -0.0316079 -0.341423
v 0.0120874 0.025026 -0.260808
v 0.0130255 0.03284 -0.0459297
v 0.00162248 0.044218 -0.0408595
v 0.00893612 0.0315124 0.0366149
v 0.00477911 0.0277531 -0.331202
v 0.010429 0.026852 -0.330835
v 0.009522 0.026749 -0.33806
v 0.0154461 0.0166441 -0.3423
v 0.010095 0.026402 -0.330373
v 0.0101484 0.0190362 -0.261093
v 0.0126767 0.0295373 0.0536836
v 0.0102127 0.0275719 -0.265611
v 0.0100828 0.0316241 -0.168644
v 0.00737983 0.0348818 -0.0534238
v 0.009596 0.031028 0.038168
v 0.009446 0.031087 0.037807
v 0.009526 0.031069 0.037922
v -0.018817 -0.031927 -0.289112
v 0.0103983 0.0310141 0.0375933
v 0.008422 0.026419 -0.331546
v 0.007973 0.02553 -0.261921
v 0.00958962 0.0433635 -0.0354763
v 0.004062 0.029904 -0.110164
v -0.00126856 0.0464218 0.0359454
v 0.0162125 -0.0262655 0.050282
v 0.007418 0.027143 -0.330823
v -0.00173205 0.0295561 -0.271909
v -0.0165724 0.0270938 -0.281099
v 0.003145 0.029672 -0.268782
v 0.007916 0.031855 -0.170927
v -0.000198804 0.0304533 -0.275043
v 0.0114584 0.0284725 -0.265396
v 0.000669056 0.0736738 0.0291588
v 0.00112757 0.073717 -0.0302965
v -0.00134031 0.0462534 -0.0361204
v 0.00577541 0.016766 -0.333928
v 0.009442 0.031058 0.037994
v 0.009278 0.031089 0.037832
v 0.009273 0.031191 0.037461
v 0.009278 0.031122 0.037663
v 0.008961 0.031136 0.037601
v -0.0140167 0.0266148 -0.292335
v -0.011651 0.02664 -0.29234
v -0.013454 0.026862 -0.293076
v -0.0167843 0.0269571 -0.282857
v 0.005751 -0.031601 -0.333833
v 0.008803 0.031174 0.037341
v -0.012068 0.028558 -0.295772
v 0.003804 0.031176 0.046554
v 0.008597 0.031196 0.037219
v 0.00602086 0.0321547 -0.170928
v 0.00844719 0.0316106 0.035974
v 0.001061 0.035052 -0.07492
v 0.004516 0.032171 -0.170927
v 0.00148263 0.0351552 -0.0445067
v -0.012402 0.02691 -0.296016
v 0.00470619 0.0332832 -0.275842
v -0.00330481 0.0334062 -0.279262
v -0.014383 0.0272201 -0.293623
v -0.0147476 0.02867 -0.289494
v 0.00463713 0.0362203 -0.050798
v -0.00209 0.043729 -0.038447
v -0.00180452 0.0224411 -0.267183
v -0.018094 -0.0314801 -0.29179
v 0.00347818 0.0623581 0.0296782
v -0.012851 0.013859 -0.27796
v -0.0158801 0.0107002 -0.280835
v -0.001529 0.031114 0.04671
v 0.00327683 0.0305248 0.0528897
v -0.00305363 0.0314527 0.0368019
v -0.0196953 -0.0219684 -0.290448
v 0.000386007 0.0440917 -0.0368655
v -0.020546 0.0468798 -0.0297257
v -0.017954 0.018034 -0.293977
v -0.00698934 0.0343787 -0.0364403
v -0.00352184 0.0335889 0.0365185
v 0.000157666 0.0329997 -0.276116
v -0.0139996 -0.0262571 0.0514529
v 0.000117 -0.026004 0.053236
v -0.00295686 0.0413916 -0.0361953
v -0.00516795 0.0634207 0.0298615
v -0.000705822 0.0717217 0.0307303
v 0.00380486 0.0621648 -0.0296786
v -0.0104121 0.0627089 -0.028323
v -0.0243586 0.0735933 0.0191202
v -0.00993044 -0.0322788 0.0464312
v -0.009627 -0.02931 0.045203
v -0.00965346 -0.0262305 0.0451982
v 5.0472e-05 0.0219427 0.0518074
v 1.97675e-05 0.022226 0.0452488
v 5.03406e-05 0.0263331 0.0523338
v -0.00978279 0.0259736 0.04541
v -0.00557703 0.0274865 0.0574283
v -0.009765 0.027959 0.051705
v -0.009639 0.027907 0.047464
v -0.007372 0.029188 0.054193
v -0.00930604 0.0292966 0.0523415
v -0.0236952 -0.0269919 0.0450172
v -0.0127308 0.0149448 -0.280673
v -0.00839925 0.0432708 -0.0362344
v -0.00858373 0.0145857 0.0716613
v -0.0297678 0.0093052 0.0637292
v -0.00556935 0.046535 -0.0490184
v -0.00813435 0.0317447 -0.169091
v -0.00479293 0.0356672 -0.0517384
v -0.0237193 0.0399099 -0.0373295
v -0.00976622 0.0429788 -0.0408807
v -0.010061 0.028801 -0.276313
v -0.00382086 0.0300751 -0.282158
v -0.003446 0.031484 0.037568
v -0.003689 0.03174 0.037482
v -0.0151055 0.061777 -0.0107887
v -0.003442 0.032797 0.036717
v -0.00891751 0.0293622 -0.27692
v -0.003701 0.031197 0.038404
v -0.003461 0.031809 0.037239
v -0.003424 0.031864 0.037163
v -0.003462 0.031974 0.037127
v -0.00343834 0.0312726 0.0379261
v -0.0208486 0.0279321 -0.0326583
v -0.003531 0.031413 0.037789
v -0.00450509 0.0311277 0.0386847
v -0.00399 0.031312 0.038252
v -0.003998 0.031236 0.038448
v -0.004047 0.031353 0.038158
v -0.0185156 0.0399375 -0.0452713
v -0.008432 0.0453196 0.0355111
v -0.0135881 0.0621988 0.0268256
v -0.0144327 0.0688501 0.0289193
v 0.000689965 0.0720813 -0.0311034
v -0.00966135 0.0296638 0.047008
v -0.010086 0.031348 -0.169094
v -0.009996 0.03134 -0.169504
v -0.017316 0.0462292 0.0315475
v -0.00731685 0.0345214 -0.0409174
v -0.0142566 0.0351922 -0.0502454
v -0.009674 0.028628 0.054256
v -0.0093 0.028629 0.054613
v -0.0136144 0.0306873 0.0341785
v -0.0133645 0.0327898 -0.0359426
v -0.0106354 0.0433795 -0.0350458
v -0.009202 0.028625 0.05465
v -0.0106685 0.0340288 -0.0547564
v -0.00892778 0.0168478 -0.271224
v -0.0104341 0.0467966 -0.0162438
v -0.0227034 0.073606 -0.0194193
v -0.00979519 0.0278316 0.055178
v -0.009393 0.028629 0.054558
v -0.00941741 -0.0338033 -0.274808
v -0.010023 0.031338 -0.169386
v -0.00995 0.031347 -0.169618
v -0.016165 0.029395 -0.183164
v -0.00992123 0.0221336 0.0554193
v -0.009933 0.027907 0.047161
v -0.010049 0.0280676 0.0527099
v -0.00989931 0.0220931 0.0449107
v -0.009841 0.028048 0.047319
v -0.0283103 0.0218049 0.0441382
v -0.009778 -0.029637 0.045177
v -0.009788 -0.029736 0.045192
v -0.009883 0.028138 0.047271
v -0.009885 0.028611 0.047238
v -0.0106186 0.0283929 0.0442357
v -0.00989 0.028269 0.051861
v -0.0168295 0.0235458 -0.275589
v -0.0117788 -0.0205682 -0.273535
v -0.009769 -0.029819 0.045245
v -0.009897 0.028397 0.051949
v -0.009966 0.028315 0.052016
v -0.009868 -0.029459 0.044972
v -0.009912 0.028164 0.051879
v -0.009955 0.028083 0.051989
v -0.00998 0.02809 0.052091
v -0.009985 0.02819 0.052087
v -0.0255955 0.0246094 0.0445812
v -0.019142 0.025274 -0.094148
v -0.0145365 0.0288314 0.0370552
v -0.0148309 0.0134408 -0.274461
v -0.0141846 0.0285094 0.038744
v -0.0200412 -0.0369999 -0.282197
v -0.0171785 0.0467929 0.00559734
v -0.0145509 -0.0435184 -0.276658
v -0.0161506 0.0413928 -0.0332264
v -0.013934 0.040172 0.03383
v -0.013823 0.039535 0.033872
v -0.013708 0.038899 0.033913
v -0.013858 0.03793 0.033921
v -0.014242 0.042749 0.033689
v -0.014209 0.042113 0.033725
v -0.0151876 0.0454909 -0.0327115
v -0.0141829 0.0331388 -0.0524114
v -0.0297588 0.0208963 -0.0403726
v -0.0170203 -0.0283521 -0.275342
v -0.0203845 0.04128 -0.0493966
v -0.02234 0.021292 -0.109297
v -0.0157283 0.0275503 -0.280554
v -0.014084 0.03976 0.033864
v -0.0207709 0.0251264 0.0427232
v -0.014072 0.041462 0.033762
v -0.014057 0.040152 0.033824
v -0.014228 0.040732 0.033769
v -0.0184276 -0.0216684 -0.275625
v -0.014101 0.038929 0.033943
v -0.014059 0.039826 0.03385
v -0.0162189 -0.0136169 -0.279514
v -0.0198135 0.0630983 -0.0227869
v -0.0199797 0.004505 -0.27733
v -0.0250294 0.0715809 0.0183533
v -0.0157063 0.0287919 0.0389108
v -0.015893 -0.016046 -0.27508
v -0.0169286 0.026372 -0.131829
v -0.0361652 0.0283783 -0.0375764
v -0.0223667 -0.032579 -0.276597
v -0.0143653 0.0617963 0.0120187
v -0.0191062 0.0271559 -0.288699
v -0.0201498 0.0265594 -0.285291
v -0.0230235 -0.0140586 -0.284067
v -0.023466 0.001064 -0.283841
v -0.0229677 0.00985548 -0.284623
v -0.0163384 0.0284726 -0.282948
v -0.016942 0.027658 0.03894
v -0.016937 0.027709 0.038854
v -0.016954 0.027737 0.038745
v -0.0169148 0.0275068 0.0376953
v -0.0149999 0.035699 0.0346225
v -0.0181791 0.0274851 0.032246
v -0.018305 0.027147 0.032633
v -0.0181709 0.0384198 0.0322372
v -0.0230199 0.028564 -0.0516004
v -0.0194264 -0.0105899 -0.27572
v -0.020259 0.0632395 0.0227105
v -0.0236624 0.0131118 -0.174016
v -0.0189206 0.0719941 -0.0241185
v -0.022881 0.025268 0.038545
v -0.022896 0.025288 0.038333
v -0.022848 0.025292 0.038444
v -0.022803 0.025334 0.038222
v -0.022712 0.0253925 0.038034
v -0.018915 0.034723 0.032644
v -0.0227254 0.0257264 0.0373385
v -0.019643 0.034288 0.032961
v -0.022121 0.026267 0.036618
v -0.0269144 0.0457452 0.024497
v -0.02226 0.0263 0.036749
v -0.022183 0.026323 0.036679
v -0.0214841 0.0254399 0.029654
v -0.0209101 0.0333008 0.0316325
v -0.025292 0.024533 0.036896
v -0.0266504 0.0242027 0.0389034
v -0.021273 -0.031412 -0.282927
v -0.0224014 -0.0297892 0.0416065
v -0.0224846 0.0269697 -0.135332
v -0.0246046 0.0371006 -0.0289258
v -0.0238019 0.0440355 -0.0274548
v -0.0275639 0.0625609 0.0126479
v -0.023292 0.0219184 -0.210954
v -0.029755 -0.032311 0.02914
v -0.0220142 -0.0313086 0.0292432
v -0.025682 -0.029177 0.044051
v -0.0329147 0.0238329 0.0440086
v -0.0312106 -0.0284118 0.0183821
v -0.027246 0.008393 -0.20591
v -0.0287165 -0.0397089 0.0475293
v -0.0285208 0.0233761 -0.045941
v -0.026339 0.013001 -0.2059
v -0.031296 0.002694 -0.152348
v -0.0280258 0.00346455 -0.205258
v -0.025806 -0.00228617 -0.239409
v -0.0264192 0.0388776 -0.0491316
v -0.0324327 0.0219376 -0.0500388
v -0.027865 0.044888 0.023566
v -0.029844 0.0210009 -0.0522573
v -0.0259099 0.036018 -0.0270643
v -0.028492 0.0668653 -0.0143036
v -0.0295236 -0.047945 -0.0215484
v -0.0248615 -0.0400099 -0.0272958
v -0.026191 -0.028027 -0.273243
v -0.026551 -0.027499 -0.272309
v -0.025332 -0.028817 -0.27496
v -0.0332073 0.033866 -0.0479512
v -0.0295242 -0.0479621 -0.0338866
v -0.0256911 -0.0408194 -0.0337847
v -0.0283155 -0.0326718 -0.0249616
v -0.0280429 0.0280315 -0.0249705
v -0.0316379 -0.0292368 0.0427053
v -0.0262454 -0.0023608 0.0653118
v -0.030324 0.00853 -0.150896
v -0.028022 -0.025149 -0.269006
v -0.027297 -0.026537 -0.270788
v -0.0302026 0.0726611 -0.00159002
v -0.0300922 0.071653 -0.00556032
v -0.0268945 0.0621086 -0.0139631
v -0.029655 0.041228 0.021402
v -0.029682 0.0410266 0.0213741
v -0.029811 0.027873 0.021306
v -0.042152 -0.002533 -0.124782
v -0.0287707 -0.0436785 0.0354953
v -0.029232 0.062265 0.002382
v -0.0365622 0.0250709 -0.0273958
v -0.0300322 0.0197792 0.0610865
v -0.0282347 -0.0279729 0.0345997
v -0.0290238 -0.0270576 0.030594
v -0.0323321 0.0685763 0.000565734
v -0.0297958 0.04018 0.0212713
v -0.0289017 -0.0463163 0.0240965
v -0.02975 0.041081 0.021334
v -0.0297665 0.0417919 0.0213045
v -0.031251 0.003505 -0.151155
v -0.0305596 0.00789642 -0.150867
v -0.0301303 0.0444088 0.0206185
v -0.032881 -0.0244924 -0.0249764
v -0.0297404 -0.0245397 -0.0288572
v -0.0360123 -0.0222076 -0.038094
v -0.0298374 -0.00226198 -0.0353801
v -0.0320731 0.0196108 -0.0253866
v -0.0361412 -0.00227476 -0.0361513
v -0.0378516 0.00148116 -0.0368877
v -0.032304 0.0227106 -0.0256197
v -0.0311696 0.0216227 -0.0174671
v -0.0300112 0.0229027 0.0318389
v -0.0318775 0.0238258 0.021477
v -0.030036 0.040548 0.021059
v -0.035097 0.01133 -0.05316
v -0.030844 0.006 -0.150891
v -0.037254 0.002246 -0.053167
v -0.036637 0.006477 -0.052425
v -0.03493 0.004093 0.062561
v -0.031256 0.0176601 0.0605561
v -0.0316744 -0.00232207 0.0629015
v -0.0322441 0.0148355 0.0442637
v -0.0321768 0.0243853 0.0375557
v -0.0411779 0.0237225 -0.0490363
v -0.0316576 0.0369162 0.0184003
v -0.0321796 0.0228187 0.0173343
v -0.033248 -0.00290992 -0.121249
v -0.0323689 -0.00220002 0.0533485
v -0.031819 -0.016552 0.044571
v -0.0308598 -0.0186533 0.0609862
v -0.0323989 0.00858565 0.054192
v -0.031729 0.014708 0.056249
v -0.0321436 -0.0226334 0.0443953
v -0.049507 0.012423 0.044236
v -0.031874 0.01215 0.044548
v -0.031993 0.038475 0.018342
v -0.031848 0.038291 0.018108
v -0.0327566 0.0334516 0.0211781
v -0.0317982 0.0382513 0.0180394
v -0.0337645 -0.0399323 -0.100114
v -0.031834 0.038442 0.01801
v -0.0318795 0.0401483 0.0180598
v -0.035593 -0.02583 0.017729
v -0.0358401 0.0187047 0.0440263
v -0.031955 0.016089 0.037098
v -0.0323101 0.0177347 0.0315093
v -0.034394 -0.02677 0.017532
v -0.0350497 0.0162408 0.0103904
v -0.0324518 -0.0210104 0.0358795
v -0.0334287 0.0174644 0.0327121
v -0.0335934 -0.0289804 -0.0166047
v -0.0406087 0.0234957 -0.0167714
v -0.0346933 0.0450863 -0.011041
v -0.034115 -0.042604 0.012834
v -0.0338174 -0.0211929 0.037006
v -0.0355596 -0.0170725 -0.0510287
v -0.0324481 0.043595 -0.017347
v -0.0394539 -0.0237321 -0.0175383
v -0.039859 -0.022984 -0.019041
v -0.0340007 -0.022638 0.0118258
v -0.0421834 -0.00437526 -0.121338
v -0.0309385 -0.0276594 -0.0252515
v -0.035353 -0.042728 -0.009067
v -0.032865 -0.023528 -0.0153635
v -0.03465 0.0464208 0.00919795
v -0.0336985 0.0383529 0.0147021
v -0.034579 0.040845 0.012057
v -0.0328984 0.0190342 -0.0158943
v -0.036177 -0.030568 -0.03394
v -0.0408202 0.0185453 -0.0234029
v -0.034405 0.039833 -0.012524
v -0.0430049 0.0196436 0.0178575
v -0.03584 0.044449 0.006965
v -0.0339689 -0.0273952 0.014203
v -0.036156 -0.042385 -0.033931
v -0.0337104 -0.0261124 0.0342383
v -0.0342724 0.0130599 -0.052676
v -0.0398185 0.0187774 0.0200074
v -0.0350555 0.0207509 0.0351646
v -0.037826 0.021604 -0.027521
v -0.0360907 0.0315143 -0.0133224
v -0.037452 -0.024245 0.025456
v -0.0353366 -0.0245503 0.0438449
v -0.034716 0.0354044 -0.013968
v -0.0339879 0.0166768 0.0369636
v -0.0342522 -0.0327098 -0.0133161
v -0.035207 0.0211313 0.0440401
v -0.0348152 0.0372111 0.0123443
v -0.0347234 0.0223419 0.0117953
v -0.035946 0.030297 -0.006374
v -0.034534 0.037863 0.01197
v -0.034551 0.038055 0.011921
v -0.034617 0.038115 0.011975
v -0.034698 0.038973 0.011892
v -0.0352332 0.0282801 -0.00954832
v -0.03462 0.039037 0.011721
v -0.0404824 0.0274918 -0.0113833
v -0.034635 0.039292 0.011727
v -0.034629 0.039189 0.011694
v -0.036763 -0.040625 0.003165
v -0.0379925 -0.0190433 0.00890999
v -0.0368935 0.00189331 0.0251038
v -0.0348895 -0.0250382 0.0358748
v -0.0359903 -0.0229353 0.0440413
v -0.0363718 -0.0209214 -0.0134566
v -0.0373475 0.0149922 -0.0130124
v -0.03632 0.044532 0.003406
v -0.036859 0.032154 -0.013929
v -0.035378 -0.024281 0.038555
v -0.040245 0.030111 -0.006532
v -0.0359204 -0.0324411 -0.0375963
v -0.035347 -0.023554 0.044108
v -0.035476 -0.023987 0.039772
v -0.035444 -0.024085 0.039366
v -0.035435 -0.024111 0.039256
v -0.036005 -0.025607 0.01762
v -0.039391 -0.021938 0.025464
v -0.0383033 -0.0192092 0.0417181
v -0.041024 -0.020898 -0.013541
v -0.0358813 -0.0292454 -0.0402304
v -0.0359707 -0.0244324 -0.0458157
v -0.0436717 -0.0182417 -0.0457741
v -0.036928 -0.024856 0.018078
v -0.036414 -0.041116 0.001391
v -0.037465 0.020251 0.017433
v -0.036376 -0.025265 0.017933
v -0.0361739 0.0178003 -0.040897
v -0.03982 0.030407 -0.006152
v -0.0439297 0.0213817 -0.015163
v -0.039784 0.030468 -0.006068
v -0.0393073 -0.0230254 0.0117157
v -0.039733 0.030555 -0.00595
v -0.03984 0.030918 -0.005513
v -0.0362611 0.0385815 -0.00537252
v -0.0433554 0.0251801 -0.00517588
v -0.0372907 0.0156475 -0.00568782
v -0.040587 -0.021324 -0.005169
v -0.0425825 0.0180726 -0.0458116
v -0.0362247 -0.0305362 -0.0042909
v -0.036832 0.016984 0.044092
v -0.0407291 0.0194744 -0.0290916
v -0.0360988 0.0452513 -0.00380187
v -0.0368822 0.0369628 -0.00150771
v -0.0397917 -0.0270134 -0.00162316
v -0.038804 -0.023744 -0.001539
v -0.0372455 0.0178487 -0.00143996
v -0.03941 -0.023052 -0.001516
v -0.045911 -0.002668 -0.045806
v -0.039954 -0.02193 -0.001267
v -0.036698 -0.025034 0.017984
v -0.0406 -0.020705 -0.00532
v -0.040626 -0.020515 -0.005392
v -0.04096 -0.019483 -0.005852
v -0.0412523 0.015358 -0.00539273
v -0.037724 0.014582 0.044068
v -0.038026 -0.018866 -0.040868
v -0.0381084 0.00773521 -0.0502686
v -0.037363 0.015785 0.044084
v -0.0366178 -0.019667 -0.000580948
v -0.0407571 0.00226125 0.0248778
v -0.037215 0.013914 0.002422
v -0.0443292 0.0216204 0.0135383
v -0.041003 0.0141084 0.00817881
v -0.0366151 -0.0194828 -0.00568303
v -0.037414 0.013902 -0.007496
v -0.038115 0.013931 -0.040894
v -0.0406344 -0.0197119 -6.4956e-05
v -0.0383741 0.0028207 0.00622425
v -0.0380547 -0.00591211 0.0250375
v -0.0383157 0.03371 -0.00461931
v -0.0384776 -0.00741635 0.00583071
v -0.0411891 -0.00544779 0.00458349
v -0.0396036 -0.0185485 -0.0114849
v -0.0390991 -0.00535966 -0.0503285
v -0.0381882 0.0149556 0.042216
v -0.0407145 0.0141496 0.026384
v -0.0463697 -0.0069616 -0.0407003
v -0.0372451 0.0205411 0.0150244
v -0.038965 -0.0273607 -0.0167456
v -0.0366504 0.0276895 -0.0408245
v -0.0379984 -0.00171904 -0.0515995
v -0.0394005 0.0181404 0.016072
v -0.0414494 -0.00938798 0.0220808
v -0.0399801 0.00180913 0.0321727
v -0.0390061 0.00642718 0.0369676
v -0.039709 0.01055 0.032214
v -0.0355085 -0.0365275 -0.0486563
v -0.0390717 0.0186315 0.0114855
v -0.0411814 0.0146575 0.0121814
v -0.041619 -0.022628 -0.023215
v -0.0398806 -0.0232892 -0.0233636
v -0.039128 -0.023511 -0.001545
v -0.039329 -0.023277 -0.001545
v -0.0401396 0.0187997 -0.0276663
v -0.0475321 0.00583858 -0.0493747
v -0.039197 0.018782 0.01509
v -0.040463 0.019372 -0.028782
v -0.040158 0.019839 -0.028736
v -0.044273 0.018781 0.01487
v -0.039217 0.018926 0.015037
v -0.039313 0.018681 0.015131
v -0.040435 -0.022112 -0.001562
v -0.039241 -0.023413 -0.018252
v -0.0394342 0.00522479 0.0351553
v -0.0409968 0.0260329 -0.0134414
v -0.0401742 0.00776386 0.029473
v -0.0394754 0.00815795 0.0349445
v -0.039582 0.004868 0.034243
v -0.0398411 0.00293859 0.0328902
v -0.0394784 -0.0266227 -0.0283584
v -0.039864 -0.022471 -0.001466
v -0.040095 0.003074 0.031326
v -0.039947 -0.022416 -0.00148
v -0.0397997 0.0100758 0.0333233
v -0.0415676 0.0274756 -0.00716561
v -0.0442094 -0.0206183 -0.0149948
v -0.0401186 0.00219664 0.0312249
v -0.0404706 0.00382989 0.02907
v -0.0403765 0.00159683 0.0294861
v -0.0403152 0.0102581 0.0299257
v -0.040052 -0.022285 -0.001477
v -0.040109 -0.021878 -0.001296
v -0.040204 -0.021725 -0.00127
v -0.0403535 0.00951199 0.0299352
v -0.04048 0.019279 -0.028736
v -0.040271 -0.021563 -0.001227
v -0.040368 -0.031384 -0.092933
v -0.040782 -0.030073 -0.094365
v -0.0402 -0.032748 -0.091409
v -0.0420095 -0.018848 -0.0189001
v -0.0406733 0.00382691 0.0279577
v -0.041063 0.018376 -0.02789
v -0.04026 -0.0219122 -0.00144396
v -0.040755 0.008072 0.027626
v -0.0436249 -0.0226862 -0.00401814
v -0.0405272 0.0083865 0.0289069
v -0.0406999 0.00582522 0.0282249
v -0.0419741 -0.0216734 -0.028458
v -0.0439209 0.0208452 -0.013787
v -0.0419056 0.0158652 -0.00104789
v -0.040658 -0.020943 -0.005243
v -0.0451742 0.0085597 -0.037802
v -0.041444 -0.020064 -0.005179
v -0.041171 0.012928 0.016265
v -0.040591 0.00419167 0.0204271
v -0.041264 0.016065 -0.005183
v -0.0411472 -0.0182274 0.00787586
v -0.041118 -0.019729 -0.005472
v -0.041087 -0.020154 -0.013276
v -0.0413378 -0.0071944 0.0058567
v -0.0412012 -0.0192738 -0.00125327
v -0.0412205 0.0135844 0.0166317
v -0.0411224 0.00176717 0.004949
v -0.0448979 0.0130941 0.0158521
v -0.041481 -0.003736 -0.001441
v -0.0430083 0.0139931 -0.0281278
v -0.041178 -0.020205 -0.013368
v -0.0410454 0.0141412 0.00111818
v -0.0412317 -0.0200852 -0.0133798
v -0.04166 -0.003041 -0.001205
v -0.041712 0.0130316 -0.0127862
v -0.0414447 0.0143702 -0.0129571
v -0.0425489 0.0146306 -0.0262292
v -0.041329 -0.020054 -0.01347
v -0.041613 -0.0188736 -0.0169174
v -0.0413164 -0.0183759 -0.00662089
v -0.04135 -0.021077 -0.027393
v -0.0418174 -0.0201861 -0.0242485
v -0.0412926 -0.0207287 -0.0278991
v -0.0414732 -0.0186673 -0.0133562
v -0.041516 0.012541 -0.005641
v -0.0404256 -0.00888313 -0.00835504
v -0.041517 -0.001275 -0.005478
v -0.0415588 -0.00782348 -0.00589072
v -0.041686 -0.007902 -0.01233
v -0.0414938 0.00297255 -0.00105456
v -0.0453152 0.00321821 0.00216482
v -0.041598 -0.018662 -0.018017
v -0.0446842 -0.00341749 -0.00597328
v -0.0417951 -0.00779484 -0.0133261
v -0.0416318 -0.0185373 -0.0178618
v -0.041696 -0.018466 -0.017868
v -0.041921 -0.018278 -0.0174367
v -0.043746 -0.01901 -0.01668
v -0.041853 0.013917 -0.026539
v -0.041831 -0.008579 -0.005174
v -0.0417994 0.0139743 -0.0173227
v -0.0447544 -0.0123589 -0.0169258
v -0.0419239 -0.00239488 -0.0243523
v -0.041924 0.013055 -0.027421
v -0.041961 -0.008252 -0.005301
v -0.0418315 -0.00790625 -0.006557
v -0.0419552 -0.00800466 -0.00676935
v -0.041969 0.013812 -0.027005
v -0.041967 0.013701 -0.027116
v -0.041966 0.013444 -0.027302
v -0.041921 -0.007806 -0.005951
v -0.041949 0.013885 -0.026871
v -0.04195 -0.00777551 -0.00631137
v -0.04205 0.013357 -0.027472
v -0.045773 -0.014623 -0.001798
v -0.0454192 -0.0168738 -0.00485793
v -0.0419729 0.0137651 -0.0270927
v -0.045771 -0.0077148 -0.00529914
v -0.042114 0.013902 -0.027103
v -0.045658 -0.00767 -0.006519
v -0.042032 -0.008062 -0.012626
v -0.042077 -0.008051 -0.012482
v -0.045614 -0.014267 -0.013676
v -0.042094 0.013729 -0.027263
v -0.043821 -0.018614 -0.016865
v -0.042075 -0.008063 -0.012717
v -0.045622 -0.008294 -0.013085
v -0.0449846 0.0144333 -0.0177714
v -0.044013 -0.016992 -0.021815
v -0.0459764 -0.018075 -0.0489389
v -0.0445594 0.0179253 0.0153113
v -0.043123 0.021669 -0.016477
v -0.0457127 -0.0121789 -0.0378032
v -0.0440548 0.0191306 0.0184703
v -0.04338 0.021201 -0.016482
v -0.043598 0.020726 -0.016555
v -0.0445778 0.0180897 -0.018314
v -0.044499 0.017874 0.016768
v -0.0460064 0.00283715 -0.0290573
v -0.0470657 -0.0184303 -0.037376
v -0.0443289 -0.0179762 -0.01739
v -0.043858 -0.018827 -0.016727
v -0.045322 -0.010178 -0.037572
v -0.0455478 0.00251687 -0.001128
v -0.0449797 0.0168392 -0.0141753
v -0.0442515 0.017924 0.0159845
v -0.045902 -0.014397 -0.014213
v -0.0444524 0.0241725 -0.00363387
v -0.04583 -0.013252 -0.017125
v -0.0479104 0.0100974 -0.0373878
v -0.0451594 0.0145752 0.012376
v -0.0450715 0.0139045 -0.016584
v -0.0449899 0.01308 -0.0166193
v -0.0516752 -0.0186548 0.0419776
v -0.0467174 -0.0160527 0.0397566
v -0.0455397 -0.0185003 0.0394847
v -0.0516492 0.0143105 0.0408304
v -0.0458212 -0.00326429 -0.00165241
v -0.04594 -0.001701 -0.004755
v -0.0461024 0.0113457 0.0408506
v -0.0458407 -0.00784406 -0.0138132
v -0.0457854 0.0139237 0.0392538
v -0.045906 -0.008622 -0.012547
v -0.04592 -0.007257 -0.006554
v -0.0493233 0.00357599 -0.0483492
v -0.0478003 0.0116084 0.0386115
v 0.047438 -0.042539 -0.317693
v 0.047224 -0.042228 -0.323691
v 0.045447 -0.039067 -0.329416
v 0.0459465 -0.0425785 -0.311777
v 0.042523 -0.035585 -0.334003
v 0.037602 0.001995 0.061188
v 0.0383515 0.0012485 0.061382
v 0.0382545 -0.0411205 -0.010812
v 0.0353866 -0.0246712 0.0559784
v 0.038405 -0.0310595 0.0470845
v 0.037474 -0.042736 -0.059202
v 0.035745 0.006379 0.062457
v 0.038084 -0.0184965 0.056791
v 0.038219 -0.038566 0.024652
v 0.034599 -0.043175 -0.109034
v 0.0373919 -0.0366374 0.0397014
v 0.0326107 -0.0438134 -0.119881
v 0.031399 -0.043059 -0.175825
v 0.0312 -0.043109 -0.163656
v 0.020576 -0.044525 -0.267178
v 0.025659 -0.041993 -0.266346
v 0.027918 -0.041833 -0.279886
v 0.02714 0.013383 0.066631
v 0.010713 0.015352 0.070733
v 0.014551 0.015591 0.070769
v -0.003363 0.01567 0.071386
v -0.016404 0.014772 0.069723
v -0.024564 -0.029423 -0.274329
v -0.0261096 -0.0317673 -0.257804
v -0.026605 -0.026702 -0.27008
v -0.028255 -0.023512 -0.266719
v -0.030178 -0.01852 -0.262554
v -0.0301555 -0.0261719 0.0591492
v -0.027528 0.013141 0.066387
v -0.033234 -0.008098 -0.25633
v -0.037358 -0.017984 0.057454
v -0.034643 -6.7e-05 -0.252902
v -0.037851 -0.0084 0.059895
v -0.0340854 -0.00307388 -0.241945
v -0.037671 -0.021296 0.055703
v -0.037014 -0.027896 0.051342
v -0.037003 -0.031223 0.047803
v -0.03692 -0.035088 0.04191
v -0.035621 0.004944 -0.249043
v -0.03707 -0.04121 -0.032922
v -0.0372155 0.002337 0.0613805
v -0.036914 -0.040925 -0.048725
v -0.036925 -0.036197 -0.084431
v -0.036294 0.008652 -0.240374
v -0.038645 -0.0305625 -0.0933465
v -0.037258 -0.0369035 0.036416
v -0.037197 -0.038584 0.027946
v -0.039153 -0.026554 -0.097603
v -0.0404708 -0.020868 -0.100503
v -0.04325 0.000855 -0.111112
v -0.04254 -0.011248 -0.105319
f 3 1 2
f 1 3 2
f 5 4 1
f 6 1 4
f 7 6 4
f 5 8 4
f 5 9 8
f 7 9 8
f 9 4 8
f 5 7 9
f 7 4 9
f 5 6 7
f 6 5 1
f 13 11 10
f 11 13 10
f 13 12 11
f 15 13 11
f 12 15 11
f 15 14 13
f 13 15 12
f 14 15 13
f 18 20 17
f 19 16 18
f 19 18 16
f 19 20 18
f 17 19 18
f 21 20 19
f 20 19 17
f 20 21 19
f 23 24 22
f 27 26 23
f 24 28 22
f 22 27 23
f 25 27 22
f 28 23 22
f 26 27 25
f 25 22 23
f 29 28 24
f 26 25 23
f 29 23 28
f 23 29 24
f 29 32 23
f 32 29 23
f 30 34 26
f 27 30 26
f 30 27 26
f 33 26 34
f 33 30 26
f 33 46 30
f 44 34 30
f 35 33 34
f 42 32 29
f 32 42 29
f 36 46 33
f 35 38 33
f 37 45 31
f 38 39 33
f 38 35 39
f 40 44 30
f 46 40 30
f 39 36 33
f 41 39 35
f 34 41 35
f 37 31 45
f 43 36 39
f 41 47 39
f 37 75 45
f 75 44 45
f 47 43 39
f 47 36 43
f 40 46 45
f 45 44 40
f 46 57 50
f 36 48 46
f 53 41 34
f 47 48 36
f 48 57 46
f 51 41 53
f 47 57 48
f 41 51 47
f 51 57 47
f 53 52 51
f 49 46 50
f 57 49 50
f 42 62 32
f 62 64 32
f 51 55 57
f 61 46 49
f 54 61 49
f 55 51 52
f 53 55 52
f 65 55 53
f 34 56 53
f 57 54 49
f 44 58 34
f 57 63 54
f 61 59 46
f 59 45 46
f 60 37 45
f 75 63 57
f 56 62 42
f 63 61 54
f 62 56 34
f 58 62 34
f 42 66 56
f 64 65 53
f 56 64 53
f 65 57 55
f 58 64 62
f 63 37 61
f 37 59 61
f 37 60 45
f 32 66 42
f 68 66 32
f 64 68 32
f 67 68 64
f 37 45 59
f 65 72 57
f 72 75 57
f 66 64 56
f 75 37 63
f 58 44 65
f 44 72 65
f 65 64 58
f 71 69 37
f 70 37 69
f 71 70 69
f 79 44 75
f 72 44 75
f 44 79 75
f 76 77 73
f 77 74 73
f 74 76 73
f 74 77 76
f 75 78 79
f 70 71 37
f 66 68 64
f 67 74 79
f 78 67 79
f 67 79 74
f 64 68 67
f 79 80 75
f 80 78 75
f 68 79 67
f 68 78 79
f 78 80 79
f 70 78 80
f 78 70 80
f 67 78 68
f 81 82 83
f 81 84 82
f 81 83 82
f 85 86 87
f 86 85 87
f 93 89 88
f 90 93 88
f 99 90 88
f 91 92 99
f 92 90 99
f 330 93 90
f 92 94 90
f 91 121 92
f 95 330 90
f 94 95 90
f 96 95 94
f 92 140 94
f 140 97 94
f 98 136 94
f 97 98 94
f 136 96 94
f 121 140 92
f 100 99 88
f 111 116 101
f 101 102 111
f 107 162 106
f 162 176 106
f 113 104 103
f 100 112 99
f 268 103 104
f 102 120 111
f 89 329 88
f 168 99 88
f 108 168 88
f 329 108 88
f 130 91 99
f 168 130 99
f 109 89 93
f 330 109 93
f 99 100 88
f 122 102 101
f 110 116 111
f 112 100 99
f 105 164 104
f 164 268 104
f 127 101 124
f 126 121 91
f 127 122 101
f 144 127 124
f 115 106 176
f 361 115 176
f 113 125 104
f 132 101 116
f 217 113 103
f 217 131 117
f 217 129 113
f 131 119 117
f 114 282 126
f 282 121 126
f 129 118 113
f 132 124 101
f 129 217 117
f 123 217 103
f 105 147 164
f 147 355 164
f 118 125 113
f 129 128 118
f 120 180 111
f 165 120 102
f 119 129 117
f 296 129 119
f 123 103 268
f 110 132 116
f 135 168 108
f 130 114 126
f 180 110 111
f 127 130 122
f 133 98 97
f 211 162 107
f 134 133 97
f 136 134 97
f 133 134 98
f 133 136 98
f 91 130 126
f 134 136 133
f 183 165 102
f 130 102 122
f 146 136 97
f 156 135 108
f 138 180 120
f 146 96 136
f 107 159 211
f 120 142 138
f 139 159 107
f 141 158 157
f 141 89 109
f 329 156 108
f 145 144 124
f 157 89 141
f 330 141 109
f 132 145 124
f 166 96 146
f 342 147 105
f 148 131 182
f 120 149 142
f 121 150 140
f 151 149 120
f 165 151 120
f 217 182 131
f 130 183 102
f 148 152 131
f 152 119 131
f 137 146 97
f 140 137 97
f 150 163 140
f 154 268 164
f 264 105 104
f 125 264 104
f 155 135 156
f 158 141 330
f 140 161 160
f 180 153 110
f 163 161 140
f 89 157 1161
f 157 170 1161
f 158 330 170
f 157 158 170
f 411 202 162
f 135 209 168
f 167 150 121
f 143 199 138
f 160 137 140
f 169 1161 170
f 341 217 123
f 172 171 160
f 146 160 166
f 174 161 163
f 160 171 166
f 175 172 160
f 137 160 146
f 286 1161 169
f 330 177 170
f 174 178 161
f 178 179 161
f 179 294 161
f 171 181 166
f 294 160 161
f 130 194 183
f 144 114 127
f 114 130 127
f 114 184 282
f 186 185 170
f 177 186 170
f 211 411 162
f 181 96 166
f 149 188 142
f 188 138 142
f 189 165 183
f 294 190 160
f 191 188 149
f 151 191 149
f 188 192 138
f 130 193 194
f 155 209 135
f 277 212 160
f 190 277 160
f 174 163 187
f 195 178 174
f 196 178 195
f 197 196 195
f 174 196 195
f 198 179 178
f 196 187 178
f 174 197 196
f 197 187 196
f 174 187 197
f 187 198 178
f 200 201 171
f 172 203 171
f 201 181 171
f 203 200 171
f 203 201 200
f 199 204 138
f 204 180 138
f 172 200 203
f 144 184 114
f 201 172 181
f 172 96 181
f 200 172 201
f 202 278 162
f 278 176 162
f 329 173 156
f 205 191 151
f 165 205 151
f 192 143 138
f 189 328 165
f 207 198 187
f 163 207 187
f 172 95 96
f 175 95 172
f 208 186 177
f 150 207 163
f 193 210 194
f 278 206 176
f 192 199 143
f 355 147 202
f 212 175 160
f 207 213 198
f 198 214 179
f 214 215 179
f 215 216 179
f 216 294 179
f 246 211 159
f 218 258 219
f 220 258 221
f 222 218 219
f 223 220 221
f 223 261 220
f 285 258 220
f 216 213 207
f 169 227 286
f 291 227 169
f 170 228 169
f 229 230 170
f 230 228 170
f 411 355 202
f 185 229 170
f 231 229 185
f 232 218 222
f 186 231 185
f 233 231 186
f 208 233 186
f 234 232 222
f 236 312 1161
f 312 235 1161
f 235 89 1161
f 237 233 208
f 177 237 208
f 330 238 177
f 269 299 177
f 299 240 177
f 240 239 177
f 238 269 177
f 239 237 177
f 241 232 234
f 242 243 222
f 219 242 222
f 331 372 220
f 258 244 219
f 224 105 264
f 243 234 222
f 243 232 234
f 261 331 220
f 153 245 110
f 245 132 110
f 258 223 221
f 150 216 207
f 500 154 164
f 372 285 220
f 247 264 125
f 213 214 198
f 258 250 223
f 248 287 226
f 249 258 218
f 215 214 213
f 265 258 249
f 265 271 258
f 271 262 258
f 262 250 258
f 216 214 213
f 216 215 214
f 251 223 250
f 250 252 251
f 232 253 218
f 251 254 223
f 254 255 251
f 252 254 251
f 182 152 148
f 494 144 145
f 278 256 206
f 255 223 254
f 253 249 218
f 258 307 244
f 252 255 254
f 287 297 226
f 297 248 226
f 232 241 253
f 167 216 150
f 252 223 255
f 167 294 216
f 155 293 209
f 259 361 176
f 243 260 232
f 260 241 232
f 252 261 223
f 257 341 123
f 260 253 241
f 347 249 253
f 274 252 250
f 260 347 253
f 256 263 206
f 168 193 130
f 292 331 261
f 248 266 287
f 307 267 244
f 267 219 244
f 471 411 211
f 500 268 154
f 301 269 238
f 264 314 262
f 267 242 219
f 256 271 265
f 271 281 262
f 281 224 262
f 191 307 258
f 263 256 265
f 224 264 262
f 210 193 155
f 105 224 281
f 202 280 278
f 337 265 249
f 262 274 250
f 284 105 281
f 276 342 105
f 342 202 147
f 247 273 264
f 206 259 176
f 252 274 261
f 278 271 256
f 274 292 261
f 275 236 270
f 273 314 264
f 188 191 258
f 302 152 182
f 284 276 105
f 175 279 95
f 283 155 193
f 125 273 247
f 328 205 165
f 192 188 258
f 279 330 95
f 293 155 283
f 355 500 164
f 288 123 268
f 205 307 191
f 289 271 278
f 271 290 281
f 351 299 269
f 288 257 123
f 193 293 283
f 347 337 249
f 266 451 287
f 289 290 271
f 173 329 270
f 329 298 270
f 285 192 258
f 263 259 206
f 298 300 270
f 300 275 270
f 217 302 182
f 303 304 305
f 306 269 301
f 329 89 235
f 300 329 235
f 121 384 167
f 307 205 328
f 308 351 269
f 309 302 217
f 341 309 217
f 291 286 227
f 209 193 168
f 375 335 266
f 248 375 266
f 310 286 291
f 312 236 275
f 384 121 282
f 311 306 301
f 313 280 202
f 342 313 202
f 288 315 257
f 306 308 269
f 316 341 257
f 315 316 257
f 209 293 193
f 300 317 275
f 317 318 275
f 318 319 275
f 319 312 275
f 320 303 305
f 336 297 287
f 304 320 305
f 474 180 204
f 319 323 312
f 323 235 312
f 324 435 240
f 299 324 240
f 323 300 235
f 316 315 288
f 325 316 315
f 321 326 322
f 327 321 322
f 125 314 273
f 333 375 248
f 382 278 280
f 368 332 306
f 451 336 287
f 334 335 375
f 336 577 297
f 382 289 278
f 373 284 281
f 290 373 281
f 332 308 306
f 199 474 204
f 338 339 322
f 339 327 322
f 175 395 279
f 340 328 189
f 368 306 311
f 316 325 341
f 288 325 316
f 297 333 248
f 400 351 308
f 331 292 274
f 321 343 326
f 344 322 326
f 343 389 326
f 389 344 326
f 328 267 307
f 330 301 238
f 345 400 308
f 347 260 243
f 344 338 322
f 274 348 331
f 125 349 314
f 180 295 153
f 384 350 167
f 192 346 199
f 354 301 330
f 285 346 192
f 279 354 330
f 356 337 347
f 353 354 279
f 242 347 243
f 259 263 265
f 348 372 331
f 144 494 184
f 350 225 167
f 167 357 294
f 395 353 279
f 351 324 299
f 321 358 343
f 332 359 308
f 360 318 323
f 319 360 323
f 242 356 347
f 317 300 323
f 318 317 323
f 360 317 318
f 361 259 265
f 319 318 360
f 340 267 328
f 403 470 351
f 314 349 262
f 246 492 211
f 492 471 211
f 500 469 268
f 359 345 308
f 389 362 344
f 268 469 288
f 274 349 348
f 337 361 265
f 349 274 262
f 363 340 189
f 338 365 339
f 365 364 339
f 364 327 339
f 366 368 311
f 167 225 357
f 577 333 297
f 351 370 324
f 357 190 294
f 289 367 290
f 354 311 301
f 356 361 337
f 332 366 311
f 409 341 325
f 368 369 366
f 332 368 366
f 369 332 368
f 118 349 125
f 332 369 368
f 354 332 311
f 338 364 365
f 373 290 367
f 340 242 267
f 470 370 351
f 372 348 349
f 374 119 152
f 581 583 324
f 583 435 324
f 470 581 324
f 370 470 324
f 394 367 289
f 340 361 356
f 242 340 356
f 352 404 280
f 338 327 364
f 372 346 285
f 128 349 118
f 346 474 199
f 329 300 298
f 376 359 332
f 376 377 359
f 376 332 354
f 376 378 377
f 362 379 344
f 379 338 344
f 321 327 338
f 378 359 377
f 378 380 377
f 288 409 325
f 378 345 359
f 376 380 378
f 394 289 382
f 380 345 378
f 367 383 373
f 383 385 373
f 386 387 394
f 387 367 394
f 388 383 367
f 380 376 345
f 388 385 383
f 387 388 367
f 180 474 295
f 353 376 354
f 390 389 343
f 387 383 388
f 387 385 383
f 266 381 451
f 387 373 385
f 353 395 376
f 391 132 245
f 392 345 376
f 379 358 338
f 358 321 338
f 395 392 376
f 404 382 280
f 358 390 343
f 392 400 345
f 225 190 357
f 395 400 392
f 435 503 240
f 373 415 284
f 384 225 350
f 397 302 309
f 398 400 395
f 175 396 395
f 184 495 282
f 415 276 284
f 373 401 415
f 404 394 382
f 358 402 390
f 362 405 379
f 389 406 362
f 335 407 266
f 302 397 152
f 349 371 372
f 371 455 372
f 455 408 372
f 408 505 372
f 405 410 379
f 406 405 362
f 528 500 355
f 412 355 411
f 413 528 355
f 412 413 355
f 363 361 340
f 458 296 119
f 469 409 288
f 414 358 379
f 391 145 132
f 346 485 474
f 402 414 379
f 129 349 128
f 416 402 379
f 410 417 379
f 403 351 400
f 406 419 405
f 502 416 379
f 420 421 379
f 421 502 379
f 374 422 119
f 422 458 119
f 418 394 404
f 424 417 410
f 425 410 405
f 426 427 379
f 427 428 379
f 428 429 379
f 429 420 379
f 417 426 379
f 410 433 424
f 433 417 424
f 390 430 389
f 424 426 417
f 419 425 405
f 431 432 386
f 432 387 386
f 391 494 145
f 433 426 424
f 399 403 400
f 432 373 387
f 394 434 386
f 432 401 373
f 212 436 175
f 471 446 411
f 426 433 410
f 437 410 425
f 426 410 437
f 438 439 425
f 439 437 425
f 425 440 438
f 440 439 438
f 447 442 406
f 442 443 406
f 443 444 406
f 444 419 406
f 420 437 439
f 438 420 439
f 419 445 425
f 440 420 438
f 446 280 313
f 342 446 313
f 389 493 406
f 493 447 406
f 409 309 341
f 419 448 445
f 420 426 437
f 445 448 425
f 449 440 425
f 333 450 375
f 448 452 425
f 452 448 445
f 419 452 448
f 453 399 400
f 455 371 349
f 449 420 440
f 420 427 426
f 428 429 427
f 452 449 425
f 420 428 427
f 449 452 419
f 454 453 400
f 444 449 419
f 454 399 453
f 398 454 400
f 420 429 428
f 396 457 395
f 451 526 336
f 459 415 401
f 456 457 396
f 442 443 444
f 457 456 395
f 443 449 444
f 441 418 404
f 443 420 449
f 409 397 309
f 460 455 349
f 395 456 398
f 442 420 443
f 447 420 442
f 397 468 152
f 418 434 394
f 503 561 240
f 561 239 240
f 456 454 398
f 129 460 349
f 511 403 399
f 514 190 225
f 384 514 225
f 402 430 390
f 446 342 411
f 342 412 411
f 342 413 412
f 454 511 399
f 396 454 456
f 374 458 422
f 296 460 129
f 372 485 346
f 505 485 372
f 277 335 212
f 266 575 381
f 441 434 418
f 467 386 434
f 447 421 420
f 393 480 320
f 480 303 320
f 461 459 401
f 557 334 375
f 450 557 375
f 407 575 266
f 526 577 336
f 459 463 415
f 432 461 401
f 467 434 441
f 464 467 441
f 467 431 386
f 495 465 282
f 461 473 459
f 463 276 415
f 431 461 432
f 483 473 461
f 467 461 431
f 335 334 212
f 467 483 461
f 175 466 396
f 465 384 282
f 462 460 296
f 430 472 389
f 472 493 389
f 502 421 447
f 473 463 459
f 423 479 517
f 402 416 430
f 475 397 409
f 402 358 473
f 493 502 447
f 563 476 441
f 404 563 441
f 295 477 245
f 153 295 245
f 479 423 517
f 320 480 393
f 482 483 467
f 277 407 335
f 514 481 190
f 464 482 467
f 463 478 276
f 416 472 430
f 358 414 473
f 481 527 190
f 475 468 397
f 511 487 403
f 408 489 505
f 622 451 381
f 484 446 471
f 414 402 473
f 488 489 408
f 490 488 408
f 455 490 408
f 524 462 296
f 458 524 296
f 465 514 384
f 583 486 435
f 622 526 451
f 527 277 190
f 352 563 404
f 477 391 245
f 476 464 441
f 473 478 463
f 486 503 435
f 184 547 495
f 454 496 511
f 544 496 454
f 469 497 409
f 483 482 473
f 482 697 473
f 396 544 454
f 478 342 276
f 498 475 409
f 468 374 152
f 484 352 280
f 478 413 342
f 524 460 462
f 484 280 446
f 499 469 500
f 501 498 409
f 460 504 455
f 505 506 485
f 507 487 511
f 508 509 511
f 509 507 511
f 510 492 246
f 466 516 396
f 334 436 212
f 409 512 501
f 472 513 493
f 595 477 295
f 515 513 472
f 175 516 466
f 436 516 175
f 487 470 403
f 497 512 409
f 518 512 497
f 524 504 460
f 520 519 504
f 521 455 504
f 519 521 504
f 230 593 228
f 489 488 505
f 522 543 505
f 488 522 505
f 333 557 450
f 575 622 381
f 574 557 333
f 458 523 524
f 513 502 493
f 525 574 333
f 491 525 333
f 527 481 514
f 529 487 507
f 509 529 507
f 529 530 507
f 509 508 507
f 531 511 508
f 496 531 511
f 532 529 509
f 508 532 509
f 511 532 508
f 532 530 529
f 533 487 529
f 530 533 529
f 531 532 511
f 512 534 501
f 534 535 501
f 535 498 501
f 535 536 498
f 536 475 498
f 538 484 492
f 532 533 530
f 492 484 471
f 528 497 500
f 497 499 500
f 496 532 531
f 485 553 474
f 543 506 505
f 333 525 491
f 496 539 532
f 539 533 532
f 468 540 374
f 538 492 510
f 541 487 533
f 506 553 485
f 577 525 333
f 542 539 533
f 416 515 472
f 539 541 533
f 537 520 504
f 496 542 539
f 542 541 539
f 499 497 469
f 496 541 542
f 521 490 455
f 521 543 490
f 543 522 490
f 522 488 490
f 544 541 496
f 543 545 506
f 543 546 522
f 374 550 458
f 513 555 502
f 555 416 502
f 547 494 391
f 540 468 475
f 536 540 475
f 548 534 512
f 637 277 527
f 518 548 512
f 551 548 518
f 564 514 465
f 601 550 374
f 550 549 458
f 497 551 518
f 564 527 514
f 494 547 184
f 540 552 374
f 555 515 416
f 464 658 482
f 658 697 482
f 304 480 320
f 516 544 396
f 549 523 458
f 637 407 277
f 523 504 524
f 515 555 513
f 523 606 504
f 556 538 510
f 712 601 374
f 545 553 506
f 521 546 543
f 546 545 543
f 554 391 477
f 552 712 374
f 559 558 473
f 697 559 473
f 521 519 546
f 519 545 546
f 560 470 487
f 541 560 487
f 583 561 486
f 561 503 486
f 544 562 541
f 562 560 541
f 707 551 497
f 556 484 538
f 556 563 484
f 528 707 497
f 553 295 474
f 703 515 555
f 569 523 549
f 569 549 550
f 561 585 239
f 597 553 545
f 478 566 413
f 566 528 413
f 572 495 547
f 480 572 547
f 567 303 480
f 304 572 480
f 703 555 515
f 484 563 352
f 703 657 555
f 657 636 555
f 566 707 528
f 568 544 516
f 619 568 516
f 572 599 495
f 658 464 476
f 547 567 480
f 560 623 470
f 570 571 479
f 568 562 544
f 574 573 557
f 576 622 575
f 526 638 577
f 578 479 423
f 579 578 423
f 571 423 479
f 645 237 239
f 581 470 582
f 645 583 581
f 584 648 582
f 585 645 239
f 470 584 582
f 645 586 583
f 587 584 470
f 586 561 583
f 561 639 585
f 588 639 561
f 589 588 561
f 611 560 562
f 590 580 571
f 580 423 571
f 473 591 478
f 596 545 519
f 592 564 465
f 565 637 527
f 558 591 473
f 636 703 555
f 550 523 569
f 594 593 230
f 229 594 230
f 553 595 295
f 495 592 465
f 596 597 545
f 598 554 477
f 570 590 571
f 599 592 495
f 598 391 554
f 601 523 550
f 601 606 523
f 602 611 562
f 603 602 562
f 334 706 436
f 557 706 334
f 604 576 407
f 576 575 407
f 637 604 407
f 600 596 519
f 605 562 568
f 597 628 553
f 607 560 611
f 608 603 562
f 609 608 562
f 610 609 562
f 605 610 562
f 610 608 609
f 605 609 610
f 303 612 304
f 613 611 602
f 603 611 602
f 605 603 609
f 603 608 609
f 603 613 611
f 603 611 613
f 603 607 611
f 607 614 560
f 614 623 560
f 568 603 605
f 615 607 603
f 614 607 616
f 615 616 607
f 617 615 603
f 617 616 615
f 614 617 603
f 614 615 617
f 614 616 615
f 592 633 564
f 618 547 391
f 598 618 391
f 620 706 557
f 628 595 553
f 573 620 557
f 582 645 581
f 648 645 582
f 688 504 606
f 623 587 470
f 586 589 561
f 621 574 525
f 631 614 603
f 568 631 603
f 574 620 573
f 621 620 574
f 578 570 479
f 624 635 596
f 635 597 596
f 625 624 596
f 688 537 504
f 626 516 436
f 618 756 547
f 756 627 547
f 627 567 547
f 683 628 597
f 567 572 304
f 564 633 527
f 627 572 567
f 627 599 572
f 595 598 477
f 629 630 588
f 631 669 614
f 589 629 588
f 619 631 568
f 614 655 623
f 304 632 567
f 632 303 567
f 634 639 588
f 630 634 588
f 635 683 597
f 520 600 519
f 577 621 525
f 630 639 634
f 629 640 630
f 640 634 630
f 669 655 614
f 640 639 630
f 629 639 640
f 624 642 600
f 642 625 600
f 625 643 600
f 643 596 600
f 644 624 600
f 622 725 526
f 725 638 526
f 646 584 587
f 237 645 648
f 647 586 645
f 649 646 587
f 647 639 629
f 580 579 423
f 643 625 596
f 650 237 648
f 651 652 579
f 587 653 649
f 639 645 585
f 623 654 587
f 654 653 587
f 654 649 653
f 586 656 589
f 651 659 652
f 659 579 652
f 656 660 589
f 579 659 578
f 653 646 649
f 589 647 629
f 642 624 625
f 660 661 589
f 662 578 659
f 652 662 659
f 662 651 579
f 654 646 653
f 655 646 654
f 623 655 654
f 661 647 589
f 662 652 651
f 625 642 643
f 586 663 656
f 663 660 656
f 580 662 579
f 656 661 660
f 586 661 663
f 664 661 586
f 663 661 656
f 626 619 516
f 646 648 584
f 664 665 661
f 665 664 586
f 647 665 586
f 646 655 648
f 665 666 661
f 666 647 661
f 665 666 664
f 590 578 662
f 580 590 662
f 667 650 648
f 639 647 645
f 655 667 648
f 666 665 647
f 558 636 591
f 644 635 624
f 668 703 636
f 558 668 636
f 725 622 576
f 633 682 527
f 636 670 591
f 742 672 641
f 690 667 655
f 673 626 436
f 706 673 436
f 784 576 604
f 657 670 636
f 672 674 641
f 527 682 565
f 520 644 600
f 712 606 601
f 675 633 592
f 676 677 619
f 677 678 619
f 678 679 619
f 679 631 619
f 626 680 619
f 680 681 619
f 681 676 619
f 599 675 592
f 534 537 535
f 537 536 535
f 684 980 627
f 980 599 627
f 756 684 627
f 671 655 669
f 685 694 658
f 536 552 540
f 551 534 548
f 686 595 628
f 675 682 633
f 687 668 558
f 865 626 673
f 559 670 558
f 670 687 558
f 644 683 635
f 677 676 678
f 677 679 678
f 677 689 679
f 621 723 620
f 676 689 677
f 681 691 676
f 676 692 689
f 691 693 676
f 693 692 676
f 694 685 658
f 686 761 595
f 537 552 536
f 679 669 631
f 695 679 689
f 692 696 689
f 717 669 679
f 697 658 476
f 563 697 476
f 670 559 591
f 559 478 591
f 681 693 691
f 680 681 691
f 693 689 696
f 692 693 696
f 695 717 679
f 693 695 689
f 693 717 695
f 680 693 681
f 626 693 680
f 657 699 670
f 626 720 693
f 720 717 693
f 671 701 655
f 534 707 537
f 707 520 537
f 701 690 655
f 563 709 697
f 711 478 559
f 669 701 671
f 712 688 606
f 658 702 697
f 702 658 697
f 717 716 669
f 761 598 595
f 702 694 658
f 674 705 641
f 716 701 669
f 620 747 706
f 577 723 621
f 698 725 576
f 700 723 577
f 520 708 644
f 710 711 697
f 709 710 697
f 578 590 570
f 697 711 559
f 722 702 658
f 694 722 658
f 537 712 552
f 612 632 304
f 724 687 670
f 551 707 534
f 708 744 644
f 712 537 688
f 746 682 675
f 699 724 670
f 746 565 682
f 744 683 644
f 784 698 576
f 713 690 701
f 714 713 701
f 715 714 701
f 716 715 701
f 715 713 714
f 716 714 715
f 716 713 714
f 716 690 713
f 722 694 702
f 739 720 626
f 565 865 637
f 865 673 637
f 673 604 637
f 706 784 604
f 673 706 604
f 717 718 716
f 716 719 690
f 707 708 520
f 747 784 706
f 720 718 717
f 718 719 716
f 703 724 657
f 721 628 683
f 704 618 598
f 724 699 657
f 726 690 719
f 727 728 719
f 728 726 719
f 729 727 719
f 730 729 719
f 745 746 675
f 732 730 719
f 705 742 641
f 478 707 566
f 731 718 720
f 718 732 719
f 510 563 556
f 739 733 720
f 733 731 720
f 734 732 718
f 731 734 718
f 599 745 675
f 478 708 707
f 668 687 703
f 784 725 698
f 687 724 703
f 735 739 626
f 736 737 731
f 732 736 731
f 744 721 683
f 733 732 731
f 705 709 742
f 735 738 739
f 740 739 738
f 741 740 738
f 711 708 478
f 742 563 510
f 739 732 733
f 793 750 743
f 737 734 731
f 748 744 708
f 723 747 620
f 599 980 745
f 742 709 563
f 612 303 632
f 766 638 725
f 793 794 750
f 737 732 734
f 737 736 734
f 736 732 737
f 760 709 705
f 1181 760 705
f 732 729 730
f 726 728 727
f 794 749 750
f 740 741 726
f 741 690 726
f 728 740 726
f 727 740 728
f 729 740 727
f 789 755 750
f 751 777 743
f 823 752 690
f 741 823 690
f 732 740 729
f 749 753 750
f 739 740 732
f 755 743 750
f 590 751 743
f 755 590 743
f 759 754 711
f 618 938 756
f 711 757 708
f 757 748 708
f 710 759 711
f 700 747 723
f 766 725 784
f 758 759 710
f 760 758 710
f 709 760 710
f 761 686 628
f 755 1185 590
f 762 628 721
f 754 757 711
f 763 738 735
f 764 721 744
f 857 565 746
f 745 765 746
f 812 741 738
f 797 789 750
f 753 797 750
f 769 770 771
f 748 764 744
f 765 857 746
f 875 773 774
f 773 768 774
f 773 767 768
f 772 598 761
f 762 761 628
f 1181 1191 760
f 776 857 765
f 1185 833 590
f 667 690 650
f 590 777 751
f 833 777 590
f 752 650 690
f 980 765 745
f 757 877 748
f 877 764 748
f 767 775 768
f 865 735 626
f 754 779 757
f 779 877 757
f 780 781 770
f 782 577 638
f 764 762 721
f 801 779 754
f 704 938 618
f 795 700 577
f 766 783 638
f 783 782 638
f 759 758 754
f 758 801 754
f 792 229 231
f 233 792 231
f 821 830 778
f 777 793 743
f 792 594 229
f 799 785 763
f 785 786 763
f 786 787 763
f 787 738 763
f 1191 788 760
f 784 795 766
f 787 812 738
f 735 802 763
f 790 784 747
f 802 799 763
f 792 233 237
f 650 792 237
f 795 783 766
f 795 747 700
f 788 827 760
f 827 758 760
f 795 790 747
f 820 594 792
f 765 791 776
f 786 796 787
f 577 782 795
f 785 798 786
f 799 786 785
f 799 798 786
f 796 838 787
f 799 786 798
f 772 704 598
f 795 784 790
f 800 801 758
f 799 798 786
f 798 796 786
f 927 980 684
f 802 798 799
f 798 802 796
f 794 753 749
f 851 862 775
f 767 851 775
f 876 753 794
f 851 803 862
f 805 803 804
f 806 805 804
f 807 806 804
f 803 807 804
f 808 805 806
f 807 684 806
f 684 809 806
f 809 808 806
f 776 810 811
f 776 791 810
f 787 838 813
f 812 787 813
f 811 857 776
f 814 802 798
f 779 815 877
f 814 796 802
f 812 823 741
f 777 794 793
f 842 814 802
f 842 796 814
f 807 927 684
f 842 838 796
f 801 816 779
f 801 815 779
f 827 817 758
f 818 815 801
f 816 818 801
f 782 783 795
f 752 887 650
f 800 816 801
f 865 802 735
f 800 818 816
f 857 853 565
f 817 818 800
f 650 820 792
f 817 800 758
f 865 866 802
f 887 822 650
f 822 820 650
f 777 876 794
f 824 761 762
f 1010 768 775
f 825 866 826
f 866 842 802
f 828 829 830
f 821 828 830
f 831 819 594
f 832 831 594
f 820 832 594
f 822 832 820
f 830 833 1185
f 853 942 565
f 942 865 565
f 918 833 830
f 834 835 831
f 839 836 825
f 836 837 825
f 837 839 825
f 839 866 825
f 835 829 828
f 831 835 828
f 838 839 825
f 861 840 827
f 841 866 839
f 838 836 839
f 842 866 841
f 837 841 839
f 887 844 822
f 837 836 839
f 836 841 839
f 836 842 841
f 836 838 842
f 835 1140 829
f 1140 830 829
f 834 1140 835
f 883 777 833
f 918 904 833
f 980 791 765
f 840 856 827
f 845 846 849
f 877 762 764
f 843 847 753
f 756 809 684
f 846 848 849
f 848 860 849
f 855 845 849
f 855 885 845
f 1010 774 768
f 852 857 811
f 854 797 753
f 885 846 845
f 987 856 840
f 862 1010 775
f 767 886 851
f 885 850 846
f 872 838 825
f 874 854 753
f 812 879 823
f 860 855 849
f 868 852 811
f 810 868 811
f 1123 852 868
f 979 858 851
f 858 864 851
f 864 803 851
f 858 1003 864
f 1003 859 864
f 810 807 868
f 850 848 846
f 868 803 864
f 807 803 868
f 991 862 803
f 810 870 807
f 805 864 803
f 863 886 767
f 847 874 753
f 866 978 826
f 865 867 866
f 852 884 857
f 788 861 827
f 981 817 827
f 869 875 774
f 1010 869 774
f 857 871 853
f 856 981 827
f 864 991 803
f 868 927 807
f 870 868 807
f 884 871 857
f 875 987 840
f 859 991 864
f 870 1123 868
f 867 888 866
f 812 878 879
f 941 880 791
f 863 864 886
f 863 868 864
f 863 895 868
f 1005 868 895
f 873 867 865
f 882 753 876
f 883 876 777
f 881 871 884
f 883 903 876
f 887 823 879
f 881 853 871
f 873 889 888
f 881 890 853
f 890 934 853
f 934 942 853
f 891 873 888
f 888 892 891
f 893 892 891
f 892 873 891
f 893 894 892
f 894 873 892
f 877 957 762
f 893 892 888
f 896 873 894
f 897 1005 895
f 898 899 896
f 899 873 896
f 894 893 888
f 898 867 899
f 867 873 899
f 823 887 752
f 894 899 896
f 898 894 867
f 894 898 899
f 900 854 874
f 894 888 867
f 872 825 826
f 847 843 874
f 874 901 860
f 873 848 889
f 860 900 874
f 903 882 876
f 971 969 855
f 969 885 855
f 969 902 885
f 848 988 889
f 848 900 860
f 873 900 848
f 831 821 819
f 824 772 761
f 831 828 821
f 805 905 864
f 905 886 864
f 906 927 868
f 1005 906 868
f 865 907 873
f 908 884 852
f 833 904 883
f 910 890 881
f 1015 897 895
f 909 882 903
f 886 979 851
f 912 904 833
f 911 987 875
f 987 1116 856
f 833 904 912
f 883 909 903
f 818 877 815
f 883 913 909
f 879 844 887
f 913 914 909
f 914 915 909
f 916 874 843
f 884 908 881
f 915 882 909
f 914 917 915
f 917 882 915
f 913 918 914
f 918 917 914
f 1016 886 905
f 919 1016 905
f 1005 1062 906
f 904 918 883
f 883 918 913
f 878 975 879
f 920 809 921
f 975 844 879
f 882 923 753
f 923 843 753
f 813 878 812
f 907 924 873
f 924 900 873
f 1126 987 911
f 942 907 865
f 824 704 772
f 922 911 920
f 921 922 920
f 923 931 874
f 916 923 874
f 923 926 843
f 901 855 860
f 885 848 850
f 925 872 826
f 910 928 890
f 928 930 890
f 911 1010 920
f 963 988 848
f 935 1015 895
f 930 932 890
f 932 933 890
f 933 970 890
f 970 934 890
f 880 810 791
f 924 939 863
f 939 964 863
f 964 936 863
f 936 895 863
f 875 869 911
f 1119 1126 911
f 959 946 964
f 946 936 964
f 818 957 877
f 805 808 920
f 808 809 920
f 939 937 964
f 935 895 936
f 938 921 756
f 921 809 756
f 869 1010 911
f 843 926 916
f 982 826 978
f 975 940 844
f 941 791 980
f 929 908 852
f 982 925 826
f 942 943 907
f 943 946 907
f 946 959 907
f 959 924 907
f 959 944 939
f 924 959 939
f 945 944 959
f 943 1040 946
f 947 945 959
f 948 922 921
f 949 947 959
f 950 926 923
f 967 949 959
f 937 951 964
f 950 916 926
f 950 923 916
f 838 878 813
f 952 953 964
f 951 952 964
f 1140 918 830
f 832 1143 831
f 1143 834 831
f 955 1143 832
f 822 955 832
f 805 956 905
f 901 971 855
f 968 848 885
f 902 968 885
f 817 957 818
f 970 942 934
f 958 844 940
f 880 994 810
f 938 948 921
f 955 958 940
f 975 958 940
f 969 960 902
f 946 961 936
f 901 959 971
f 959 964 971
f 964 973 971
f 973 956 971
f 906 965 968
f 961 848 968
f 965 961 968
f 966 906 968
f 973 919 905
f 1058 961 946
f 970 943 942
f 971 1050 969
f 960 968 902
f 958 822 844
f 966 927 906
f 866 962 978
f 929 881 908
f 882 931 923
f 961 965 936
f 962 888 889
f 901 967 959
f 961 1058 848
f 1058 963 848
f 920 956 805
f 956 973 905
f 960 1045 968
f 1045 1053 968
f 955 822 958
f 972 1050 971
f 956 968 971
f 968 1053 971
f 1053 972 971
f 956 966 968
f 994 870 810
f 953 1066 964
f 975 955 958
f 981 957 817
f 1066 973 964
f 906 1062 965
f 1062 936 965
f 974 981 856
f 966 980 927
f 995 974 856
f 878 976 975
f 962 866 888
f 991 1010 862
f 920 977 956
f 1116 995 856
f 931 901 874
f 975 1143 955
f 1148 1143 975
f 1140 1142 918
f 1146 1148 975
f 977 966 956
f 977 980 966
f 975 985 918
f 985 984 918
f 984 1019 918
f 1019 983 918
f 1146 975 918
f 1142 1141 918
f 1141 1146 918
f 986 985 975
f 976 986 975
f 917 931 882
f 982 872 925
f 944 1035 939
f 989 889 988
f 995 824 762
f 957 995 762
f 990 1038 1010
f 929 1005 881
f 992 944 945
f 992 993 945
f 947 992 945
f 996 982 978
f 947 993 992
f 997 994 880
f 998 997 880
f 941 998 880
f 999 1000 978
f 1005 897 881
f 1001 982 996
f 1000 996 978
f 1002 944 992
f 993 1002 992
f 1000 1001 996
f 999 996 1000
f 999 1001 996
f 999 1117 1001
f 1117 982 1001
f 858 859 1003
f 922 1119 911
f 986 1014 985
f 1007 1004 985
f 947 1002 993
f 1134 1040 943
f 1004 1006 1008
f 1117 872 982
f 1004 1009 984
f 872 1120 838
f 1120 878 838
f 1134 970 933
f 1014 1006 1007
f 984 985 1004
f 1014 1007 985
f 1006 1004 1007
f 1010 977 920
f 970 1134 943
f 989 1137 889
f 1137 962 889
f 1016 979 886
f 949 1011 947
f 930 928 932
f 910 930 928
f 930 933 932
f 1008 1009 1004
f 1011 1013 947
f 1006 1009 1008
f 897 1015 881
f 1015 910 881
f 910 933 930
f 1013 1002 947
f 949 1033 1011
f 1020 1014 986
f 991 1030 1010
f 997 998 941
f 1033 1013 1011
f 1035 937 939
f 1006 1012 1009
f 1017 1012 1006
f 1018 1017 1006
f 1014 1036 1006
f 976 1020 986
f 981 974 957
f 1013 1021 1011
f 1033 1021 1013
f 918 931 917
f 1017 984 1009
f 1022 1033 949
f 1021 1002 1013
f 1021 1033 1002
f 1012 1017 1009
f 1023 1022 949
f 1024 1036 1014
f 963 989 988
f 1030 990 1010
f 1025 997 998
f 1023 1026 1022
f 1024 1014 1020
f 1027 1028 1029
f 1052 976 878
f 1030 991 859
f 858 1030 859
f 949 1026 1023
f 910 1134 933
f 1023 1033 1022
f 967 1026 949
f 1031 960 1019
f 1026 1033 1023
f 1017 1019 984
f 1033 1026 967
f 1047 901 931
f 997 1025 994
f 1015 1134 910
f 1025 941 994
f 941 1032 994
f 976 1034 1020
f 941 1025 997
f 1036 1037 1006
f 1006 1037 1018
f 918 1047 931
f 1056 941 980
f 1036 1024 1020
f 1050 983 969
f 1018 1019 1017
f 1005 1039 1062
f 1035 944 1002
f 976 1031 1034
f 1051 1002 1033
f 1020 1034 1036
f 976 960 1031
f 983 1047 918
f 1041 951 937
f 1127 1038 990
f 952 951 1041
f 1040 1058 946
f 1037 1031 1018
f 1019 960 969
f 1032 870 994
f 967 1051 1033
f 1042 938 704
f 1043 951 1041
f 1044 976 1052
f 1054 1052 878
f 1035 1043 937
f 953 952 951
f 1043 953 951
f 1031 1019 1018
f 1065 858 979
f 1046 935 936
f 937 1043 1041
f 1034 1037 1036
f 976 1045 960
f 1034 1031 1037
f 983 1019 969
f 1048 953 1043
f 1049 919 973
f 824 1136 704
f 974 995 957
f 1050 1051 983
f 1051 1047 983
f 1044 1045 976
f 1044 1053 1045
f 1047 1051 901
f 954 1046 936
f 1016 1065 979
f 901 1051 967
f 1055 1053 1044
f 1048 1066 953
f 1056 870 1032
f 1057 919 1049
f 1058 1076 963
f 1059 1049 973
f 1049 1059 1057
f 1060 1055 1044
f 936 1061 954
f 1056 1063 870
f 1062 1061 936
f 1076 989 963
f 1064 1059 1057
f 941 1056 1032
f 1059 919 1057
f 1064 919 1059
f 1065 1030 858
f 1049 1064 1059
f 1052 1060 1044
f 1070 973 1066
f 1059 1064 1049
f 1055 1050 972
f 1053 1055 972
f 1051 1035 1002
f 1067 1068 1069
f 1068 1067 1069
f 1067 1068 1069
f 1059 1070 1064
f 1070 1059 973
f 1038 1067 1069
f 1048 1043 1066
f 1038 1068 1067
f 1070 919 1064
f 1061 1071 954
f 1136 1042 704
f 962 999 978
f 1055 1051 1050
f 1072 1070 1066
f 1071 1061 1073
f 1043 1072 1066
f 1061 1075 1073
f 1040 1076 1058
f 1077 1137 989
f 954 1071 1073
f 954 935 1046
f 1065 1078 1030
f 1075 1079 1073
f 1061 1080 1075
f 1065 1081 1078
f 1054 1144 1052
f 1144 1060 1052
f 1038 1127 1068
f 1065 1082 1081
f 1082 1078 1081
f 1083 1082 1065
f 1081 1030 1078
f 1083 1081 1082
f 1063 1085 1087
f 1070 1016 919
f 1039 1061 1062
f 1086 1072 1043
f 1079 954 1073
f 1087 1089 1088
f 1083 1082 1081
f 1090 1089 1087
f 1085 1090 1087
f 1082 1030 1081
f 1089 1068 1088
f 1076 1130 989
f 1130 1077 989
f 1083 1030 1082
f 1089 1069 1068
f 1072 1091 1074
f 1086 1091 1072
f 1093 1074 1092
f 1094 1090 1085
f 1094 1095 1090
f 1095 1103 1090
f 1103 1096 1090
f 1063 1123 870
f 1097 1099 1074
f 1098 1085 1063
f 1098 1094 1085
f 1099 1092 1074
f 1098 1095 1094
f 1095 1096 1103
f 1144 1055 1060
f 1100 1090 1096
f 1055 1144 1051
f 1144 1101 1051
f 1101 1035 1051
f 1040 1130 1076
f 1093 1072 1074
f 1094 1103 1095
f 1098 1063 1094
f 1074 1099 1097
f 1099 1093 1092
f 1099 1092 1093
f 1103 1100 1096
f 1104 1074 1091
f 1105 1103 1094
f 1063 1105 1094
f 1086 1104 1091
f 1104 1099 1074
f 1016 1084 1065
f 1125 1038 1089
f 1035 1086 1043
f 1035 1104 1086
f 1079 935 954
f 1104 1106 1099
f 1106 1092 1099
f 1106 1093 1092
f 1056 1125 1089
f 1106 1072 1093
f 1080 1107 1075
f 1107 1108 1075
f 1109 1016 1070
f 1090 1056 1089
f 1110 1100 1103
f 1105 1110 1103
f 1038 1069 1089
f 1084 1111 1065
f 1111 1083 1065
f 1100 1056 1090
f 1111 1127 1083
f 1112 1107 1080
f 1112 1108 1107
f 1110 1056 1100
f 1103 1056 1110
f 1127 1030 1083
f 1105 1056 1103
f 1113 1112 1080
f 1063 1056 1105
f 1113 1107 1112
f 1113 1108 1107
f 1147 1113 1080
f 1079 1075 1108
f 1113 1079 1108
f 1072 1109 1070
f 1061 1147 1080
f 1039 1147 1061
f 1106 1109 1072
f 1139 1114 1087
f 1088 1139 1087
f 1115 1088 1068
f 1114 1063 1087
f 1030 1127 990
f 1127 1115 1068
f 929 1039 1005
f 1126 1116 987
f 1134 1015 935
f 1151 1136 824
f 1118 929 852
f 852 1121 1118
f 1121 1122 1118
f 1121 929 1118
f 1114 1123 1063
f 872 1124 1120
f 852 1122 1121
f 1117 999 962
f 1122 929 1121
f 1123 1122 852
f 1123 929 1122
f 977 1125 980
f 1125 1056 980
f 1120 1054 878
f 1127 1111 1084
f 1128 1127 1084
f 1128 1111 1127
f 1016 1128 1084
f 1016 1127 1128
f 1129 1010 1038
f 1134 1130 1040
f 1131 929 1123
f 1117 1132 872
f 1109 1133 1016
f 1132 1124 872
f 1129 977 1010
f 1117 1124 1132
f 962 1137 1117
f 1135 1115 1127
f 1131 1039 929
f 1135 1088 1115
f 1124 1054 1120
f 1131 1147 1039
f 1133 1127 1016
f 1133 1135 1127
f 1117 1054 1124
f 1114 1131 1123
f 995 1151 824
f 1137 1054 1117
f 1101 1102 1035
f 1114 1138 1131
f 1138 1139 1131
f 1139 1138 1114
f 1079 1134 935
f 1077 1054 1137
f 1088 1131 1139
f 1079 1145 1134
f 1145 1130 1134
f 1125 1129 1038
f 1102 1104 1035
f 1144 1054 1077
f 1119 938 1042
f 948 1119 922
f 1119 948 938
f 1125 977 1129
f 1152 1148 1146
f 1113 1149 1079
f 1145 1077 1130
f 1145 1144 1077
f 1106 1133 1109
f 1150 1106 1104
f 1113 1147 1149
f 1150 1133 1106
f 1149 1145 1079
f 1133 1088 1135
f 1104 1102 1101
f 1144 1104 1101
f 1145 1149 1133
f 1150 1145 1133
f 1147 1088 1133
f 1149 1147 1133
f 1131 1088 1147
f 1104 1145 1150
f 1144 1145 1104
f 1136 1119 1042
f 1136 1126 1119
f 1151 995 1116
f 1126 1151 1116
f 1141 1152 1146
f 1140 1141 1142
f 1152 1143 1148
f 1143 1152 1141
f 1140 1143 1141
f 1136 1151 1126
f 1143 1140 834
f 1154 106 1153
f 106 1156 1153
f 1155 106 1154
f 1155 107 106
f 115 1174 106
f 1174 1156 106
f 1155 1157 107
f 1157 139 107
f 1164 1159 1158
f 1168 1161 1162
f 1163 183 1160
f 1165 1161 1159
f 1160 156 1166
f 1166 1168 1162
f 183 194 1160
f 194 156 1160
f 156 1168 1166
f 1162 1161 1165
f 169 1158 1159
f 194 155 156
f 1167 1169 1163
f 169 1164 1158
f 1169 183 1163
f 1169 189 183
f 156 173 1168
f 272 1161 1168
f 272 270 1161
f 1161 286 1159
f 286 169 1159
f 1170 1171 1167
f 1171 1169 1167
f 169 1175 1164
f 173 272 1168
f 1172 189 1169
f 1173 1171 1170
f 270 272 173
f 210 155 194
f 236 1161 270
f 1172 1169 1171
f 286 310 169
f 1173 1172 1171
f 310 291 169
f 228 1175 169
f 115 1172 1174
f 1172 1173 1174
f 361 1172 115
f 1172 363 189
f 361 363 1172
f 1176 1177 1175
f 228 1176 1175
f 593 1176 228
f 1178 1177 1176
f 593 1178 1176
f 593 1179 1178
f 705 674 672
f 742 705 672
f 1180 705 742
f 1186 1179 593
f 1180 1182 705
f 1182 1181 705
f 1182 1183 1181
f 594 1186 593
f 1184 1181 1183
f 830 821 778
f 789 797 755
f 1198 1186 594
f 819 1198 594
f 875 767 773
f 1187 1181 1184
f 1192 1188 830
f 1185 1192 830
f 1187 1191 1181
f 875 863 767
f 1187 1189 1191
f 830 1190 821
f 1188 1190 830
f 1193 1192 1185
f 755 1193 1185
f 1194 1193 755
f 1195 1194 755
f 797 1203 755
f 1203 1195 755
f 1204 1203 797
f 854 1204 797
f 1196 1191 1189
f 875 1197 863
f 821 1198 819
f 1190 1198 821
f 900 1204 854
f 840 1200 875
f 1196 1201 1191
f 1201 788 1191
f 1197 924 863
f 1202 1200 840
f 1199 1197 875
f 1205 1202 840
f 1206 1205 840
f 1205 1206 1202
f 840 861 1206
f 1207 1206 861
f 788 1207 861
f 1207 1208 1206
