v 0.114738 0.016372 -0.058887
v 0.032 0.043971 0.015718
v 0.032 0.045124 -0.028152
v 0.073587 0 -0.036882
v 0.073967 0.042899 -0.028222
v 0.036186 0.035605 -0.03185
v 0.121982 0.012746 -0.027803
v 0.113869 0.028309 -0.050778
v 0.056444 0.046901 -0.024648
v 0.113871 0.016268 -0.058683
v 0.032 0.040609 0.014959
v 0.119244 0 -0.050855
v 0.058908 0.040649 0.000634
v 0.11775 0.022625 -0.055971
v 0.032 0.047 0.006019
v 0.054157 0.04642 -0.02737
v 0.093769 0.008114 -0.047807
v 0.037999 0.033238 -0.029125
v 0.052625 0.038203 0.009348
v 0.075281 0 -0.019995
v 0.032 0.042 -0.028198
v 0.121749 0.022022 -0.040252
v 0.117423 0.020788 -0.057001
v 0.032 0.046431 -0.027375
v 0.034678 0.04571 0.013861
v 0.061096 0.046326 -0.026562
v 0.096077 0 -0.043955
v 0.036485 0.034872 -0.031612
v 0.052794 0.020304 -0.010961
v 0.041177 0.041396 0.013781
v 0.122234 0.015044 -0.028393
v 0.119987 0 -0.034226
v 0.118771 0.026246 -0.048521
v 0.071857 0.041036 -0.016716
v 0.124817 0.015356 -0.034176
v 0.115369 0.017159 -0.058599
v 0.113529 0.027551 -0.051604
v 0.032 0.047 -0.026172
v 0.032 0.04635 0.013813
v 0.045753 0.042289 0.011436
v 0.05415 0.046861 -0.026677
v 0.060064 0.045153 -0.014058
v 0.067939 0.044837 -0.026873
v 0.05364 0.020304 -0.002518
v 0.037012 0.042722 0.014843
v 0.043407 0.032596 0.009152
v 0.121093 0.013695 -0.026989
v 0.124181 0.016474 -0.032615
v 0.05566 0.036312 0.007506
v 0.114426 0.028442 -0.049479
v 0.117 0.026964 -0.051295
v 0.069185 0.040165 -0.01072
v 0.073412 0.041931 -0.022285
v 0.120331 0.024074 -0.04406
v 0.11808 0.019943 -0.055905
v 0.120201 0.024809 -0.04828
v 0.122758 0 -0.039084
v 0.115047 0.016641 -0.058818
v 0.115393 0.027638 -0.05143
v 0.054144 0.047 -0.025962
v 0.032 0.045166 0.015535
v 0.032 0.046856 0.009872
v 0.045639 0.040908 0.012398
v 0.051243 0.040317 0.00923
v 0.057339 0.046323 -0.027316
v 0.032 0.046962 -0.026386
v 0.049165 0.045778 -0.002671
v 0.091231 0.036612 -0.038663
v 0.062044 0.04614 -0.024333
v 0.036727 0.039436 0.013915
v 0.045304 0.03993 0.01239
v 0.088718 0.026235 -0.009925
v 0.123123 0.013564 -0.028512
v 0.059994 0.038812 0.002487
v 0.124801 0.015958 -0.033654
v 0.120756 0.012932 -0.02711
v 0.05597 0.037062 0.007589
v 0.04855 0.035342 0.009196
v 0.118799 0 -0.03368
v 0.095441 0.035017 -0.03829
v 0.117018 0.027307 -0.050597
v 0.095512 0.031196 -0.025731
v 0.05798 0.043816 -0.00591
v 0.06532 0.039409 -0.004411
v 0.069209 0.044024 -0.023544
v 0.096711 0.031586 -0.028421
v 0.095622 0.033468 -0.032438
v 0.1184 0.02179 -0.054888
v 0.120562 0 -0.048015
v 0.119507 0.025626 -0.047741
v 0.118355 0.026439 -0.050302
v 0.036651 0.047 -0.015763
v 0.045754 0.047 -0.011656
v 0.057367 0.046815 -0.026229
v 0.032 0.046045 0.014759
v 0.035781 0.043456 0.015119
v 0.041625 0.043319 0.013226
v 0.032 0.046969 0.006915
v 0.056028 0.040481 0.004054
v 0.049882 0.040326 0.010362
v 0.043298 0.045739 0.004464
v 0.04154 0.046445 0.002607
v 0.114997 0.028175 -0.050559
v 0.070946 0.043945 -0.027308
v 0.064623 0.045705 -0.026155
v 0.057963 0.045963 -0.015733
v 0.059716 0.046598 -0.025798
v 0.03283 0.040451 0.014824
v 0.049515 0.038771 0.010729
v 0.040008 0.035969 0.011871
v 0.039786 0.038496 0.013
v 0.122449 0.014343 -0.028011
v 0.056124 0.038299 0.007049
v 0.12222 0.013539 -0.027683
v 0.124641 0.013703 -0.031
v 0.122947 0.012784 -0.028625
v 0.124036 0.015976 -0.031566
v 0.122489 0.021211 -0.040967
v 0.061916 0.017671 -0.005399
v 0.052277 0.037368 0.009214
v 0.071445 0.027234 -0.00279
v 0.09573 0.03499 -0.038828
v 0.116841 0.027158 -0.048523
v 0.11742 0.027103 -0.049598
v 0.06946 0.040255 -0.011337
v 0.059808 0.042445 -0.004275
v 0.056057 0.044958 -0.00763
v 0.065773 0.043129 -0.014092
v 0.095375 0.031151 -0.025423
v 0.122863 0.019181 -0.036009
v 0.096258 0.031438 -0.027403
v 0.072213 0.041241 -0.01799
v 0.096319 0.033869 -0.034933
v 0.117636 0.021981 -0.056332
v 0.119772 0.024656 -0.049715
v 0.120283 0.024082 -0.048594
v 0.124125 0.010771 -0.036682
v 0.119449 0.025652 -0.049314
v 0.051149 0.047 -0.020267
v 0.045324 0.046867 -0.006434
v 0.032217 0.046268 0.014129
v 0.032186 0.04505 0.015555
v 0.041482 0.042405 0.013736
v 0.035992 0.044504 0.014864
v 0.054483 0.042149 0.002539
v 0.049832 0.040818 0.00988
v 0.049814 0.039714 0.010674
v 0.045793 0.041833 0.011964
v 0.045002 0.044751 0.006264
v 0.034915 0.046446 0.010175
v 0.115215 0.028135 -0.049754
v 0.09245 0.036249 -0.038932
v 0.067103 0.044927 -0.0247
v 0.054062 0.045854 -0.009414
v 0.061734 0.046309 -0.025766
v 0.055825 0.046541 -0.017439
v 0.045787 0.036361 0.010588
v 0.041307 0.037988 0.012467
v 0.121278 0.014929 -0.027472
v 0.072643 0.032687 -0.001966
v 0.052753 0.039571 0.008711
v 0.125008 0.014549 -0.033017
v 0.123996 0.013498 -0.029666
v 0.124334 0.014899 -0.030622
v 0.09457 0.028085 -0.018461
v 0.122538 0.020536 -0.041383
v 0.068907 0.028026 -0.001509
v 0.09435 0.035612 -0.038871
v 0.07095 0.04074 -0.014679
v 0.063857 0.041129 -0.006084
v 0.051026 0.044821 -0.000848
v 0.06406 0.042873 -0.010869
v 0.068352 0.043708 -0.020415
v 0.062103 0.044119 -0.012431
v 0.093455 0.030775 -0.02229
v 0.069174 0.042145 -0.015922
v 0.120838 0.012197 -0.047137
v 0.122433 0 -0.042063
v 0.053671 0.046886 -0.019158
v 0.051653 0.046992 -0.020719
v 0.039761 0.046863 0.000728
v 0.037339 0.047 -0.00031
v 0.032257 0.04597 0.014838
v 0.036499 0.04574 0.011959
v 0.037275 0.043772 0.014741
v 0.037756 0.044692 0.013839
v 0.048127 0.042001 0.009567
v 0.05279 0.03907 0.009106
v 0.046619 0.041977 0.011106
v 0.052808 0.043605 0.000897
v 0.041589 0.043734 0.012646
v 0.033309 0.046864 0.008366
v 0.093955 0.03573 -0.039352
v 0.067804 0.0449 -0.026507
v 0.064627 0.045669 -0.025273
v 0.047254 0.046461 -0.004543
v 0.06086 0.046098 -0.021621
v 0.058852 0.046558 -0.023015
v 0.042801 0.037464 0.011898
v 0.088696 0.026742 -0.010307
v 0.12326 0.015412 -0.029944
v 0.124962 0.014172 -0.03238
v 0.121933 0 -0.036345
v 0.123584 0.014434 -0.029232
v 0.124832 0.015262 -0.03223
v 0.092141 0.027817 -0.015329
v 0.094044 0.029286 -0.020132
v 0.061519 0.040866 -0.002745
v 0.062071 0.042644 -0.007598
v 0.065151 0.044495 -0.018679
v 0.060175 0.043957 -0.009206
v 0.067205 0.043408 -0.017272
v 0.06769 0.041772 -0.012666
v 0.121877 0 -0.043833
v 0.047828 0.047 -0.014965
v 0.049966 0.046875 -0.013077
v 0.036413 0.045126 0.013982
v 0.048795 0.041192 0.010276
v 0.057277 0.042279 -0.000896
v 0.042356 0.043468 0.012423
v 0.046621 0.043497 0.007976
v 0.065949 0.045376 -0.025864
v 0.06303 0.045394 -0.020133
v 0.052023 0.046494 -0.011237
v 0.059537 0.046028 -0.018731
v 0.06181 0.046165 -0.024092
v 0.058258 0.046617 -0.022711
v 0.105704 0.020925 -0.019584
v 0.091442 0.027162 -0.013599
v 0.124311 0.009773 -0.034574
v 0.120405 0 -0.034662
v 0.091899 0.027652 -0.014804
v 0.065915 0.041432 -0.009389
v 0.066266 0.044705 -0.021711
v 0.063763 0.044299 -0.015588
v 0.121177 0.009248 -0.046059
v 0.065292 0.045526 -0.025568
v 0.061678 0.045268 -0.017139
v 0.06412 0.045529 -0.023044
v 0.072849 0.032809 -0.002343
v 0.091931 0.027385 -0.014431
v 0.106322 0.021291 -0.020717
f 10 6 3
f 10 3 1
f 12 10 1
f 17 4 6
f 17 6 10
f 21 3 6
f 23 3 14
f 24 14 3
f 24 16 8
f 24 3 21
f 24 21 11
f 24 11 2
f 27 4 17
f 27 17 10
f 27 10 12
f 28 4 18
f 28 18 11
f 28 21 6
f 28 11 21
f 28 6 4
f 29 18 4
f 29 11 18
f 36 3 23
f 36 23 12
f 37 24 8
f 37 14 24
f 38 24 15
f 41 16 24
f 44 11 29
f 44 29 4
f 44 4 20
f 45 2 11
f 46 44 20
f 46 11 44
f 55 12 23
f 58 1 3
f 58 3 36
f 58 36 12
f 58 12 1
f 59 37 8
f 59 14 37
f 59 51 14
f 61 24 2
f 62 24 39
f 65 26 8
f 65 8 16
f 65 16 41
f 66 41 24
f 66 24 38
f 66 60 41
f 66 38 60
f 68 26 43
f 70 30 45
f 71 63 30
f 75 22 48
f 76 32 7
f 76 7 47
f 76 47 49
f 77 49 47
f 77 19 49
f 77 47 72
f 79 32 76
f 80 5 53
f 81 51 59
f 84 13 74
f 85 53 5
f 86 54 34
f 86 22 54
f 87 34 54
f 89 12 55
f 89 55 88
f 90 54 22
f 91 14 51
f 91 51 81
f 92 60 38
f 92 38 15
f 93 92 15
f 93 60 92
f 94 60 9
f 94 41 60
f 94 65 41
f 94 26 65
f 95 39 24
f 95 24 61
f 96 2 45
f 98 15 24
f 98 24 62
f 99 74 13
f 99 64 74
f 102 101 67
f 103 8 26
f 103 26 68
f 103 81 59
f 103 59 8
f 104 85 5
f 105 43 26
f 107 94 9
f 107 26 94
f 108 70 45
f 108 45 11
f 109 63 71
f 110 70 108
f 110 108 11
f 110 11 46
f 111 71 30
f 111 30 70
f 111 70 110
f 112 72 47
f 113 74 64
f 114 47 7
f 114 112 47
f 114 73 112
f 116 7 32
f 116 114 7
f 116 73 114
f 118 22 75
f 118 90 22
f 118 56 90
f 119 78 46
f 119 46 20
f 119 79 78
f 119 20 79
f 120 49 19
f 120 19 109
f 121 79 76
f 121 76 49
f 121 49 120
f 122 5 80
f 123 80 53
f 123 53 33
f 123 122 80
f 124 123 33
f 124 91 81
f 124 33 91
f 124 122 123
f 129 52 84
f 129 22 82
f 129 125 52
f 129 82 125
f 130 48 22
f 130 22 129
f 131 82 22
f 131 22 86
f 131 86 34
f 131 34 82
f 132 87 53
f 132 34 87
f 133 33 53
f 133 53 87
f 133 90 33
f 133 87 54
f 133 54 90
f 134 88 55
f 134 55 23
f 134 23 14
f 134 14 88
f 135 88 14
f 136 135 56
f 136 88 135
f 136 56 118
f 138 90 56
f 138 91 33
f 138 33 90
f 138 56 135
f 138 135 14
f 138 14 91
f 139 60 93
f 141 39 95
f 142 61 2
f 142 2 96
f 143 45 30
f 143 30 63
f 144 61 142
f 145 99 13
f 146 64 99
f 146 100 64
f 147 109 19
f 147 63 109
f 148 40 97
f 148 143 63
f 148 97 143
f 148 147 100
f 148 63 147
f 148 100 146
f 150 62 39
f 150 39 141
f 150 141 101
f 150 101 102
f 151 103 50
f 151 81 103
f 151 124 81
f 151 50 122
f 151 122 124
f 152 68 43
f 152 43 104
f 152 103 68
f 152 50 103
f 153 85 104
f 154 42 106
f 154 127 42
f 154 67 127
f 155 105 26
f 155 26 107
f 157 110 46
f 157 46 78
f 157 120 109
f 157 78 120
f 158 111 110
f 158 71 111
f 159 112 31
f 159 72 112
f 160 74 113
f 161 113 64
f 161 64 100
f 162 137 35
f 162 35 75
f 163 73 116
f 164 163 115
f 165 84 74
f 165 117 48
f 165 48 130
f 166 118 75
f 166 75 35
f 166 136 118
f 166 88 136
f 166 137 88
f 166 35 137
f 167 120 78
f 167 78 79
f 167 121 120
f 167 79 121
f 168 122 50
f 168 50 5
f 168 5 122
f 169 125 82
f 169 82 34
f 170 84 52
f 171 127 67
f 171 67 101
f 171 101 149
f 171 83 127
f 173 53 85
f 174 42 127
f 175 130 129
f 175 129 84
f 176 34 132
f 176 132 53
f 177 89 88
f 177 88 137
f 178 162 57
f 178 137 162
f 180 9 60
f 180 60 139
f 180 179 9
f 180 139 179
f 182 140 93
f 182 93 15
f 182 181 140
f 182 15 98
f 183 141 95
f 183 25 141
f 183 95 61
f 183 61 144
f 184 141 25
f 184 101 141
f 184 149 101
f 185 96 45
f 185 45 143
f 185 144 142
f 185 142 96
f 185 143 97
f 185 97 144
f 186 144 97
f 187 99 145
f 187 146 99
f 188 100 147
f 188 72 113
f 188 161 100
f 188 113 161
f 188 77 72
f 188 147 19
f 188 19 77
f 189 40 148
f 189 187 40
f 190 126 83
f 190 171 149
f 190 83 171
f 191 186 97
f 192 150 102
f 192 62 150
f 192 102 181
f 192 98 62
f 192 182 98
f 192 181 182
f 193 152 104
f 193 104 5
f 193 5 50
f 193 50 152
f 194 153 104
f 194 104 43
f 194 43 105
f 195 155 69
f 195 105 155
f 196 102 67
f 196 67 154
f 196 181 102
f 196 140 181
f 197 195 69
f 198 155 107
f 198 156 197
f 199 157 109
f 199 109 71
f 199 110 157
f 199 158 110
f 199 71 158
f 200 113 72
f 200 72 159
f 200 160 113
f 200 159 31
f 201 164 117
f 203 57 115
f 203 115 163
f 203 163 116
f 204 31 112
f 204 201 31
f 204 164 201
f 204 112 73
f 204 73 163
f 204 163 164
f 205 75 48
f 205 48 117
f 205 117 164
f 205 202 162
f 205 162 75
f 205 164 115
f 205 115 202
f 206 165 74
f 206 117 165
f 207 165 130
f 207 84 165
f 207 175 84
f 207 130 175
f 208 13 84
f 208 84 170
f 208 145 13
f 209 172 83
f 209 83 126
f 211 174 127
f 211 127 83
f 211 83 172
f 211 172 128
f 211 128 174
f 212 174 128
f 212 128 176
f 212 176 53
f 212 53 173
f 213 176 128
f 213 128 172
f 213 172 209
f 213 52 125
f 213 125 169
f 213 169 34
f 213 34 176
f 214 137 178
f 215 179 139
f 215 139 93
f 215 93 179
f 216 179 93
f 216 93 140
f 216 156 179
f 217 183 144
f 217 144 186
f 217 25 183
f 217 184 25
f 217 149 184
f 217 191 149
f 217 186 191
f 218 189 148
f 218 148 146
f 218 146 187
f 218 187 189
f 219 190 145
f 219 126 190
f 219 145 208
f 219 208 170
f 219 170 126
f 220 191 97
f 220 97 40
f 221 190 149
f 221 149 191
f 221 145 190
f 221 191 220
f 221 187 145
f 221 220 40
f 221 40 187
f 222 194 105
f 222 153 194
f 224 140 196
f 224 106 156
f 224 216 140
f 224 156 216
f 224 196 154
f 224 154 106
f 225 197 156
f 225 156 106
f 225 106 223
f 226 69 155
f 226 155 198
f 226 198 197
f 226 197 69
f 227 198 107
f 227 107 9
f 227 9 179
f 227 179 156
f 227 156 198
f 228 200 31
f 228 160 200
f 228 31 201
f 229 201 117
f 230 202 115
f 230 115 57
f 230 57 162
f 230 162 202
f 231 203 116
f 231 116 32
f 231 57 203
f 231 32 79
f 231 214 178
f 231 178 57
f 231 79 20
f 231 20 4
f 231 4 27
f 231 27 12
f 231 12 89
f 231 89 214
f 232 206 74
f 232 117 206
f 233 209 126
f 233 126 170
f 233 213 209
f 233 170 52
f 233 52 213
f 234 210 173
f 234 173 85
f 234 85 153
f 234 153 223
f 235 210 42
f 235 42 174
f 235 174 212
f 235 212 173
f 235 173 210
f 236 177 137
f 236 137 214
f 236 214 89
f 236 89 177
f 237 222 105
f 237 105 195
f 237 153 222
f 238 223 106
f 238 106 42
f 238 42 210
f 238 234 223
f 238 210 234
f 239 195 197
f 239 223 153
f 239 225 223
f 239 197 225
f 239 237 195
f 239 153 237
f 240 228 201
f 240 160 228
f 240 229 74
f 240 74 160
f 241 229 117
f 241 74 229
f 241 232 74
f 241 117 232
f 242 240 201
f 242 201 229
f 242 229 240
