v -0.016499 0.042 -0.000156
v 0.033 0.044522 0.015564
v 0.033 0.042109 -0.028187
v -0.001605 0.048367 -0.003228
v 0.03283 0.040451 0.014824
v -0.012062 0.04601 -0.011939
v 0.033 0.047 -0.026162
v -0.006055 0.046735 0.014234
v -0.000593 0.039 -0.003396
v 0.033 0.040456 0.014798
v 0.033 0.046862 0.008731
v 0.017233 0.047 -0.025419
v -0.015355 0.046735 0.001874
v -0.000156 0.042 0.016499
v -0.012202 0.042 -0.012204
v 0.033 0.045017 -0.028163
v 0.033 0.043738 0.015555
v 0.002726 0.039 -0.002188
v 0.001432 0.048479 -0.000175
v 0.024998 0.046827 0.01518
v -0.011252 0.047 -0.010414
v 0.02197 0.047 -0.026267
v -0.016015 0.04601 -0.006579
v -0.014367 0.042 0.008114
v 0.018293 0.042 -0.027866
v -0.015918 0.042 -0.00801
v 0.033 0.046836 -0.02684
v 0.01998 0.042 0.016327
v 0.001335 0.039 -0.003231
v 0.003309 0.039 0.001129
v 0.033 0.047 0.00502
v 0.000186 0.048475 -0.00158
v 0.032217 0.046268 0.014129
v -0.000133 0.048124 0.006063
v 0.024956 0.047 0.014368
v -0.000153 0.04601 0.016199
v 0.015299 0.046735 -0.025632
v -0.002699 0.048124 -0.00543
v -0.014173 0.047 -0.006769
v 0.018773 0.047 -0.025898
v -0.016352 0.045017 0.001995
v -0.012945 0.04601 0.00974
v -0.008385 0.042 0.014211
v -0.003492 0.039 0.000168
v 0.021989 0.042 -0.028293
v 0.01443 0.042 -0.026339
v -0.002757 0.039 -0.00207
v -0.016451 0.042 -0.005213
v -0.01442 0.045017 -0.010425
v 0.033 0.046919 0.007237
v 0.020162 0.04601 -0.027897
v 0.008155 0.042 0.016578
v 0.027739 0.041418 0.015652
v 0.02506 0.044793 0.016354
v 0.003443 0.039 -0.000604
v 0.001802 0.039 0.002939
v 0.000858 0.048485 -0.000862
v 0.000459 0.048367 -0.003563
v 0.028581 0.046056 0.015698
v 0.033 0.045979 0.014318
v -0.011566 0.047 0.008702
v 0.028536 0.046811 0.014329
v 0.001235 0.048473 0.001079
v -0.000137 0.047 0.014473
v 0.015765 0.047 -0.024753
v -0.011719 0.046735 -0.011293
v -0.006034 0.048124 0.000598
v -0.01542 0.046735 -0.005203
v -0.004914 0.048124 -0.003554
v 0.01688 0.046735 -0.026349
v -0.016199 0.04601 -0.000153
v -0.015978 0.042 0.004119
v -0.015279 0.045017 0.00616
v -0.004414 0.045017 0.015871
v -0.011713 0.042 0.011607
v -0.010152 0.045017 0.012974
v 0.015931 0.042 -0.026968
v 0.014827 0.045017 -0.02652
v -0.014439 0.042 -0.010443
v -0.016284 0.045017 -0.00663
v -0.013383 0.045017 -0.011403
v 0.033 0.04689 0.008019
v 0.032547 0.047 0.005583
v 0.033 0.046122 -0.027799
v 0.020246 0.046735 -0.02717
v 0.021989 0.045017 -0.028267
v 0.01552 0.042 0.016422
v -0.000156 0.045017 0.016473
v 0.028471 0.044551 0.016113
v -0.000698 0.039 0.003376
v 0.001366 0.048477 -0.000641
v 0.00058 0.048479 -0.001296
v 0.02036 0.047 -0.026182
v 0.013712 0.046072 0.016248
v 0.033 0.046171 0.013732
v 0.032232 0.045432 0.015387
v 0.032257 0.04597 0.014838
v -0.007355 0.047 0.012466
v -0.014347 0.046735 0.005784
v 0.033 0.046556 0.011422
v 0.028579 0.046572 0.015089
v 0.0012 0.048482 0.000555
v 0.001605 0.048367 0.003228
v 0.013727 0.047 0.014604
v -0.000147 0.046735 0.015468
v 0.014956 0.04601 -0.026278
v -0.014037 0.046735 -0.009258
v -0.014367 0.047 0.001753
v -0.003557 0.048367 0.000139
v -0.012535 0.047 -0.009465
v -0.005897 0.048124 -0.001592
v -0.015687 0.04601 0.004044
v -0.016151 0.04601 -0.00521
v -0.015468 0.046735 -0.000147
v -0.00282 0.039 0.001983
v -0.014344 0.045017 0.008101
v -0.015952 0.045017 0.004113
v -0.004341 0.04601 0.015608
v -0.004421 0.042 0.015897
v -0.009983 0.04601 0.012758
v -0.008372 0.045017 0.014188
v -0.011758 0.045017 0.011538
v 0.01778 0.042 -0.027671
v 0.016522 0.045017 -0.027288
v -0.015265 0.045017 -0.009279
v -0.016473 0.045017 -0.000156
v -0.014215 0.04601 -0.010244
v -0.01219 0.045017 -0.01218
v 0.002921 0.048367 0.002113
v 0.031702 0.047 0.006561
v 0.033 0.046389 -0.027539
v 0.021979 0.046771 -0.027128
v 0.018364 0.04601 -0.027575
v 0.018537 0.046735 -0.026864
v 0.033 0.045706 -0.027989
v 0.020131 0.045017 -0.028169
v 0.013708 0.045017 0.016604
v 0.032014 0.043974 0.015717
v 0.028543 0.045344 0.016059
v 0.021989 0.04196 0.016206
v -0.000447 0.048485 -0.001131
v 0.025033 0.046339 0.015851
v 0.033 0.045791 0.014747
v -0.00415 0.048124 0.004482
v -0.003878 0.047 0.013944
v -0.012361 0.046735 0.0093
v 0.033 0.04632 0.012981
v 0.001203 0.048485 0.000162
v -0.000459 0.048367 0.003563
v 0.013719 0.046792 0.015452
v 0.016619 0.04601 -0.027033
v -0.015126 0.046735 -0.007041
v -0.014425 0.047 -0.005194
v -0.014979 0.046735 0.003862
v -0.013424 0.047 0.005412
v -0.002921 0.048367 -0.002113
v -0.013556 0.047 -0.00824
v -0.012762 0.046735 -0.010613
v -0.016081 0.04601 0.001962
v -0.014106 0.04601 0.007967
v -0.016425 0.045017 -0.005213
v -0.014473 0.047 -0.000137
v -0.013011 0.042 0.009916
v -0.002305 0.045017 0.016312
v -0.002164 0.046735 0.015317
v -0.008233 0.04601 0.013952
v -0.006448 0.045017 0.015159
v -0.011563 0.04601 0.011346
v -0.013164 0.045017 0.009904
v -0.015894 0.045017 -0.008
v -0.013214 0.04601 -0.011188
v 0.021985 0.046171 -0.02783
v 0.033 0.046777 -0.027065
v 0.018299 0.045017 -0.027841
v 0.032147 0.044732 0.015695
v -0.000132 0.048483 -0.001287
v -0.000858 0.048485 0.000862
v 0.025055 0.04562 0.016267
v 0.033 0.045242 0.01528
v -0.010331 0.047 0.010137
v -0.005368 0.048124 0.002873
v -0.002025 0.047 0.014331
v -0.005665 0.047 0.013319
v -0.013469 0.046735 0.007607
v -0.009533 0.046735 0.012182
v -0.002453 0.048124 0.005573
v -9.1e-05 0.048476 0.001552
v -0.015638 0.04601 -0.007902
v -0.014015 0.047 0.003613
v -0.000869 0.048479 -0.00115
v -0.015025 0.04601 0.006057
v -0.002267 0.04601 0.016041
v -0.004145 0.046735 0.014903
v -0.006341 0.04601 0.014907
v -0.011041 0.046735 0.010834
v 0.000332 0.048484 0.001188
v -0.003011 0.048367 0.001982
v -0.008919 0.047 0.011399
v -0.012603 0.047 0.007118
v -0.007861 0.046735 0.013322
v 0.000869 0.048479 0.00115
v -0.015031 0.04601 -0.009137
v -0.001216 0.048478 -0.000793
v -0.001338 0.048477 0.000656
v -0.001847 0.048367 0.003114
v -0.001203 0.048485 -0.000162
v -0.000489 0.048476 0.001429
v -0.001432 0.048479 0.000175
f 16 10 3
f 17 5 10
f 17 10 16
f 18 3 10
f 27 22 7
f 29 3 18
f 31 7 19
f 38 4 12
f 40 12 4
f 45 9 25
f 45 16 3
f 45 29 9
f 45 3 29
f 46 9 15
f 47 15 9
f 47 44 26
f 48 44 1
f 48 26 44
f 50 27 7
f 50 7 31
f 52 14 5
f 53 28 5
f 53 5 17
f 55 18 10
f 55 10 30
f 56 30 10
f 56 10 5
f 58 4 32
f 58 32 7
f 58 7 22
f 62 11 35
f 62 35 20
f 65 12 37
f 65 38 12
f 65 21 38
f 66 65 37
f 66 21 65
f 69 4 38
f 70 37 12
f 70 12 40
f 72 41 1
f 72 1 44
f 73 72 24
f 76 75 43
f 77 9 46
f 78 46 15
f 79 47 26
f 79 15 47
f 80 26 48
f 81 79 49
f 81 15 79
f 82 35 11
f 82 11 50
f 83 50 31
f 83 82 50
f 86 16 45
f 87 52 5
f 87 5 28
f 87 54 52
f 87 28 54
f 88 14 52
f 90 56 5
f 91 57 19
f 91 19 7
f 91 7 57
f 92 57 7
f 92 7 32
f 93 40 4
f 93 4 58
f 93 58 22
f 93 85 40
f 95 33 60
f 97 60 33
f 97 59 96
f 100 11 62
f 101 62 20
f 101 59 97
f 101 97 33
f 101 33 62
f 102 63 31
f 102 31 19
f 104 35 34
f 104 34 64
f 104 20 35
f 105 36 94
f 106 66 37
f 106 6 66
f 106 78 6
f 110 69 38
f 110 38 21
f 111 67 109
f 113 68 23
f 114 113 71
f 114 68 113
f 115 72 44
f 115 24 72
f 115 90 43
f 115 43 75
f 115 44 47
f 115 47 9
f 115 9 29
f 115 29 18
f 115 18 55
f 115 55 30
f 115 30 56
f 115 56 90
f 116 73 24
f 117 41 72
f 117 72 73
f 117 73 112
f 119 43 90
f 119 90 5
f 119 5 14
f 121 76 43
f 122 75 76
f 123 25 9
f 123 9 77
f 124 77 46
f 124 46 78
f 124 123 77
f 124 25 123
f 125 79 26
f 125 49 79
f 126 1 41
f 126 48 1
f 127 81 49
f 127 49 125
f 128 78 15
f 128 15 81
f 128 81 6
f 128 6 78
f 129 83 31
f 129 31 63
f 129 103 35
f 129 63 103
f 130 35 82
f 130 82 83
f 130 129 35
f 130 83 129
f 132 93 22
f 132 85 93
f 134 70 40
f 134 40 85
f 134 85 51
f 134 51 133
f 135 16 86
f 135 86 51
f 135 84 131
f 136 86 45
f 136 45 25
f 136 51 86
f 137 88 52
f 137 52 54
f 137 94 36
f 137 36 88
f 138 17 2
f 138 89 53
f 138 53 17
f 139 54 89
f 139 96 59
f 140 89 54
f 140 54 28
f 140 28 53
f 140 53 89
f 142 101 20
f 142 59 101
f 143 95 60
f 143 97 96
f 143 60 97
f 147 100 62
f 147 62 33
f 147 33 95
f 148 102 19
f 148 19 57
f 148 57 141
f 149 34 35
f 149 35 103
f 150 104 64
f 150 64 105
f 150 20 104
f 150 142 20
f 150 105 94
f 150 94 142
f 151 106 37
f 151 37 70
f 151 134 133
f 151 70 134
f 151 124 78
f 151 78 106
f 152 23 68
f 153 111 39
f 153 67 111
f 153 152 68
f 153 39 152
f 154 108 13
f 154 112 99
f 155 154 99
f 156 4 69
f 156 111 109
f 156 69 111
f 157 69 110
f 157 110 107
f 157 111 69
f 157 39 111
f 157 152 39
f 157 107 152
f 158 110 21
f 158 21 66
f 158 107 110
f 158 127 107
f 159 126 41
f 159 71 126
f 159 117 112
f 159 41 117
f 159 154 13
f 159 112 154
f 159 114 71
f 159 13 114
f 160 73 116
f 160 42 146
f 161 113 23
f 161 23 80
f 161 126 71
f 161 71 113
f 161 80 48
f 161 48 126
f 162 114 13
f 162 13 108
f 162 153 68
f 162 68 114
f 162 108 67
f 162 67 153
f 163 115 75
f 163 24 115
f 164 118 74
f 164 74 119
f 164 119 14
f 164 14 88
f 165 105 64
f 166 120 76
f 166 76 121
f 167 119 74
f 167 121 43
f 167 43 119
f 167 74 118
f 168 42 122
f 168 122 76
f 168 76 120
f 169 122 42
f 169 160 116
f 169 42 160
f 169 116 24
f 169 24 163
f 169 163 75
f 169 75 122
f 170 125 26
f 170 26 80
f 170 80 23
f 171 6 81
f 171 81 127
f 171 127 158
f 171 158 66
f 171 66 6
f 172 84 135
f 172 131 84
f 172 135 51
f 172 51 85
f 172 132 131
f 172 85 132
f 173 132 22
f 173 22 27
f 173 27 131
f 173 131 132
f 174 133 51
f 174 51 136
f 174 136 25
f 174 25 124
f 174 151 133
f 174 124 151
f 175 138 2
f 175 139 89
f 175 89 138
f 175 96 139
f 176 92 32
f 176 141 57
f 176 57 92
f 177 148 141
f 178 139 59
f 178 59 142
f 178 54 139
f 178 137 54
f 178 142 94
f 178 94 137
f 179 143 96
f 179 175 2
f 179 96 175
f 179 147 95
f 179 95 143
f 179 2 17
f 179 17 16
f 179 16 135
f 179 135 131
f 179 131 27
f 179 27 50
f 179 50 11
f 179 11 100
f 179 100 147
f 180 144 61
f 181 109 67
f 181 61 144
f 182 64 34
f 182 34 145
f 182 165 64
f 182 145 165
f 183 98 8
f 184 160 146
f 184 99 160
f 185 168 120
f 185 120 166
f 186 34 149
f 186 183 145
f 186 145 34
f 186 144 98
f 186 98 183
f 187 149 103
f 188 23 152
f 188 152 107
f 188 170 23
f 189 108 154
f 189 154 155
f 189 67 108
f 189 181 67
f 189 155 181
f 190 4 156
f 190 141 176
f 190 176 32
f 190 32 4
f 191 112 73
f 191 73 160
f 191 160 99
f 191 99 112
f 192 164 88
f 192 88 36
f 192 118 164
f 192 165 118
f 192 36 105
f 192 105 165
f 193 8 118
f 193 118 165
f 193 165 145
f 193 183 8
f 193 145 183
f 194 118 8
f 194 8 166
f 194 167 118
f 194 166 121
f 194 121 167
f 195 146 42
f 195 42 168
f 195 168 185
f 195 185 180
f 195 180 61
f 195 61 146
f 196 102 148
f 196 148 177
f 196 177 187
f 197 181 144
f 197 109 181
f 198 98 144
f 198 144 180
f 198 185 98
f 198 180 185
f 199 181 155
f 199 61 181
f 199 184 146
f 199 146 61
f 199 155 99
f 199 99 184
f 200 185 166
f 200 166 8
f 200 8 98
f 200 98 185
f 201 187 103
f 201 103 63
f 201 196 187
f 201 63 102
f 201 102 196
f 202 188 107
f 202 107 127
f 202 127 125
f 202 125 170
f 202 170 188
f 203 190 156
f 203 156 109
f 204 109 197
f 205 186 149
f 205 197 144
f 205 144 186
f 205 204 197
f 206 177 141
f 206 141 190
f 206 190 203
f 207 205 149
f 207 149 187
f 207 187 177
f 207 177 204
f 207 204 205
f 208 204 177
f 208 177 206
f 208 109 204
f 208 206 203
f 208 203 109
