v 0.114216 0.016201 -0.058831
v 0.093419 0.031312 -0.043062
v 0.113647 0.025738 -0.057692
v 0.096588 0.024531 -0.053215
v 0.11775 0.022625 -0.055971
v 0.1101 0.019682 -0.060336
v 0.099355 0.030948 -0.050349
v 0.091495 0.024266 -0.046805
v 0.115408 0.02262 -0.058564
v 0.095534 0.025205 -0.0519
v 0.110899 0.025074 -0.052334
v 0.108792 0.020793 -0.059709
v 0.10858 0.019481 -0.059226
v 0.117076 0.021233 -0.057579
v 0.115728 0.024467 -0.057546
v 0.113328 0.023891 -0.05871
v 0.113671 0.018093 -0.060035
v 0.096391 0.025099 -0.052831
v 0.098215 0.031112 -0.049168
v 0.090685 0.025447 -0.045826
v 0.092781 0.029593 -0.043922
v 0.116788 0.022968 -0.05546
v 0.108606 0.020355 -0.059765
v 0.111473 0.026701 -0.056977
v 0.111751 0.018234 -0.060248
v 0.112591 0.016651 -0.058049
v 0.097054 0.023571 -0.05304
v 0.117423 0.020788 -0.057001
v 0.113918 0.023995 -0.053937
v 0.116925 0.021382 -0.057722
v 0.109899 0.020348 -0.06018
v 0.114984 0.02291 -0.058669
v 0.115094 0.016762 -0.058842
v 0.095401 0.024781 -0.05199
v 0.098012 0.024645 -0.053988
v 0.105444 0.027023 -0.049439
v 0.095909 0.025158 -0.052308
v 0.090751 0.025229 -0.04598
v 0.112698 0.02443 -0.053289
v 0.109939 0.019237 -0.060128
v 0.112619 0.024244 -0.05857
v 0.11337 0.017676 -0.06009
v 0.11186 0.019331 -0.06047
v 0.113506 0.016449 -0.05883
v 0.113933 0.016231 -0.058724
v 0.092197 0.023938 -0.047225
v 0.09774 0.023652 -0.053831
v 0.117396 0.02308 -0.056562
v 0.111153 0.024853 -0.057995
v 0.112674 0.018814 -0.060369
v 0.114456 0.017416 -0.059511
v 0.114726 0.016377 -0.058881
v 0.095427 0.024316 -0.051953
v 0.097137 0.024924 -0.053443
v 0.097832 0.024221 -0.054043
v 0.100693 0.030553 -0.051256
v 0.106318 0.02671 -0.049903
v 0.091011 0.024652 -0.046417
v 0.09074 0.025003 -0.046116
v 0.103461 0.019914 -0.053202
v 0.108534 0.019971 -0.059642
v 0.110423 0.018618 -0.05972
v 0.112021 0.018618 -0.060463
v 0.110765 0.019935 -0.060394
v 0.113335 0.017081 -0.0597
v 0.113684 0.016268 -0.058624
v 0.095596 0.02396 -0.051809
v 0.096418 0.02372 -0.052519
v 0.0978 0.023333 -0.053505
v 0.117537 0.021427 -0.056643
v 0.114427 0.016255 -0.058863
v 0.114379 0.016771 -0.059335
v 0.096577 0.024031 -0.053084
v 0.092063 0.023997 -0.047147
v 0.110259 0.020177 -0.060269
f 19 11 7
f 19 7 18
f 20 19 10
f 20 2 19
f 21 2 20
f 22 5 11
f 24 15 3
f 24 7 11
f 24 11 15
f 28 5 22
f 29 15 11
f 29 11 5
f 29 5 15
f 30 9 15
f 30 17 9
f 31 23 12
f 31 6 23
f 32 15 9
f 32 16 3
f 32 3 15
f 33 14 28
f 34 18 4
f 34 20 10
f 36 19 2
f 36 11 19
f 37 19 18
f 37 10 19
f 37 34 10
f 37 18 34
f 38 21 20
f 39 21 22
f 41 24 3
f 41 3 16
f 43 16 32
f 45 44 1
f 45 28 22
f 48 14 30
f 48 30 15
f 48 15 5
f 49 31 12
f 49 12 35
f 49 41 31
f 49 24 41
f 50 32 9
f 50 9 17
f 50 43 32
f 50 17 42
f 51 30 14
f 51 14 33
f 51 17 30
f 51 42 17
f 52 33 28
f 53 34 4
f 54 4 18
f 54 18 7
f 55 35 12
f 55 12 23
f 55 54 35
f 55 4 54
f 56 7 24
f 56 54 7
f 56 35 54
f 56 49 35
f 56 24 49
f 57 22 11
f 57 11 36
f 57 21 39
f 57 39 22
f 57 36 2
f 57 2 21
f 58 53 8
f 58 34 53
f 59 38 20
f 59 20 34
f 59 34 58
f 59 58 8
f 60 22 21
f 60 21 38
f 60 45 22
f 60 46 26
f 61 23 6
f 61 6 40
f 61 55 23
f 61 47 55
f 61 40 13
f 61 13 47
f 62 40 25
f 62 13 40
f 62 25 44
f 62 44 26
f 62 26 13
f 63 40 6
f 63 25 40
f 63 6 43
f 63 43 50
f 63 50 42
f 63 42 25
f 64 41 16
f 64 16 43
f 64 43 6
f 65 25 42
f 65 44 25
f 65 1 44
f 66 26 44
f 66 44 45
f 66 60 26
f 66 45 60
f 67 8 53
f 68 13 26
f 68 26 46
f 69 47 13
f 69 27 47
f 69 68 27
f 69 13 68
f 70 28 14
f 70 14 48
f 70 48 5
f 70 5 28
f 71 45 1
f 71 52 28
f 71 28 45
f 72 51 33
f 72 33 52
f 72 42 51
f 72 65 42
f 72 52 71
f 72 71 1
f 72 1 65
f 73 53 4
f 73 55 47
f 73 4 55
f 73 68 67
f 73 67 53
f 73 47 27
f 73 27 68
f 74 59 8
f 74 8 67
f 74 46 60
f 74 68 46
f 74 67 68
f 74 60 38
f 74 38 59
f 75 31 41
f 75 41 64
f 75 64 6
f 75 6 31
