v 0.146743 -0.040797 -0.040228
v 0.14664 0.040774 -0.040253
v 0.2022 0.011938 -0.059249
v 0.2022 0.010352 -0.035812
v 0.1461 0.001072 -0.059955
v 0.148835 0.035747 -0.035903
v 0.2022 0.014541 -0.040176
v 0.2022 -0.014055 -0.057941
v 0.1461 -0.038188 -0.039881
v 0.1461 0.03554 -0.05361
v 0.159381 0.035847 -0.053381
v 0.156036 0.036273 -0.035902
v 0.2022 -0.013031 -0.036383
v 0.2022 -0.012384 -0.05921
v 0.2022 0.012816 -0.059104
v 0.1461 -0.035359 -0.053672
v 0.1461 0.038222 -0.039889
v 0.1461 0.040545 -0.049159
v 0.2022 0.011926 -0.035814
v 0.151516 0.037854 -0.036036
v 0.159673 0.036428 -0.040177
v 0.160278 -0.035906 -0.040175
v 0.151478 -0.037912 -0.036064
v 0.1461 0.017426 -0.058496
v 0.2022 0.014018 -0.058046
v 0.2022 -0.014202 -0.052777
v 0.1461 -0.040708 -0.048865
v 0.1461 -0.018996 -0.058203
v 0.160068 -0.035556 -0.053474
v 0.148787 -0.035754 -0.035932
v 0.1461 0.040328 -0.040225
v 0.1461 0.038928 -0.05156
v 0.2022 0.013034 -0.036397
v 0.149666 0.037357 -0.036255
v 0.152244 0.039056 -0.051462
v 0.156552 -0.03599 -0.035881
v 0.153954 -0.03874 -0.040175
v 0.1461 0.007703 -0.059686
v 0.178934 0.024178 -0.057131
v 0.2022 0.014224 -0.052727
v 0.158033 0.036875 -0.047296
v 0.159884 -0.035953 -0.047029
v 0.2022 -0.014541 -0.040176
v 0.1461 -0.040291 -0.040207
v 0.1461 -0.008869 -0.059603
v 0.175712 -0.026255 -0.056592
v 0.153091 -0.038761 -0.051753
v 0.1461 0.035314 -0.039872
v 0.149677 -0.037364 -0.036268
v 0.1461 0.040748 -0.041793
v 0.154271 0.038529 -0.045446
v 0.2022 -0.011441 -0.035801
v 0.1461 0.012583 -0.059231
v 0.1461 0.006787 -0.05974
v 0.1461 0.024022 -0.057193
v 0.1461 0.020268 -0.057979
v 0.157314 -0.03711 -0.047011
v 0.1461 -0.040725 -0.041904
v 0.1461 -0.007587 -0.059693
v 0.1461 -0.013717 -0.059089
v 0.1461 -0.028218 -0.056083
v 0.1461 -0.038252 -0.052055
v 0.146204 -0.040772 -0.048526
v 0.152324 0.039108 -0.045027
v 0.2022 -0.011943 -0.035835
v 0.1461 0.016572 -0.058626
v 0.1461 0.00895 -0.05957
v 0.1461 0.033959 -0.054116
v 0.1461 0.021207 -0.057802
v 0.1461 -0.003331 -0.059833
v 0.1461 -0.010966 -0.059381
v 0.1461 -0.028585 -0.055973
v 0.1461 -0.024855 -0.05698
v 0.1461 -0.040795 -0.048139
v 0.1461 0.012113 -0.059275
v 0.1461 -0.012173 -0.059253
f 14 5 3
f 15 14 3
f 15 8 14
f 19 12 6
f 19 6 4
f 20 6 12
f 21 20 12
f 21 2 20
f 24 15 3
f 26 8 15
f 31 17 6
f 32 11 10
f 33 19 4
f 33 4 7
f 33 12 19
f 33 21 12
f 33 7 21
f 34 20 2
f 34 6 20
f 34 31 6
f 34 2 31
f 35 18 2
f 35 32 18
f 35 11 32
f 36 22 13
f 36 30 23
f 36 6 30
f 37 23 1
f 37 36 23
f 37 22 36
f 39 10 11
f 39 25 15
f 39 11 25
f 40 15 25
f 40 25 21
f 40 21 7
f 41 25 11
f 41 21 25
f 41 11 35
f 42 8 26
f 42 29 8
f 43 26 13
f 43 13 22
f 43 42 26
f 43 22 42
f 44 30 9
f 46 14 8
f 46 8 29
f 46 28 14
f 46 29 16
f 47 16 29
f 47 37 1
f 48 9 30
f 48 30 6
f 48 6 17
f 49 1 23
f 49 23 30
f 49 44 1
f 49 30 44
f 50 31 2
f 50 2 18
f 51 2 21
f 51 41 35
f 51 21 41
f 52 4 6
f 52 6 36
f 52 40 7
f 52 7 4
f 52 13 26
f 52 26 15
f 52 15 40
f 54 38 3
f 54 3 5
f 56 39 15
f 56 15 24
f 57 42 22
f 57 22 37
f 57 37 47
f 57 47 29
f 57 29 42
f 58 1 44
f 59 14 45
f 60 14 28
f 62 47 27
f 62 16 47
f 63 47 1
f 63 27 47
f 64 51 35
f 64 35 2
f 64 2 51
f 65 52 36
f 65 36 13
f 65 13 52
f 66 24 3
f 66 3 53
f 67 3 38
f 68 10 39
f 68 39 55
f 69 55 39
f 69 39 56
f 70 5 14
f 70 14 59
f 71 45 14
f 72 61 46
f 72 46 16
f 73 61 28
f 73 28 46
f 73 46 61
f 74 62 27
f 74 27 63
f 74 63 1
f 74 1 58
f 75 53 3
f 75 3 67
f 76 45 71
f 76 71 14
f 76 14 60
f 76 60 28
f 76 59 45
f 76 28 61
f 76 70 59
f 76 61 72
f 76 5 70
f 76 72 16
f 76 54 5
f 76 16 62
f 76 38 54
f 76 62 74
f 76 75 67
f 76 67 38
f 76 74 58
f 76 58 44
f 76 44 9
f 76 9 48
f 76 48 17
f 76 17 31
f 76 31 50
f 76 50 18
f 76 18 32
f 76 32 10
f 76 10 68
f 76 68 55
f 76 55 69
f 76 69 56
f 76 56 24
f 76 24 66
f 76 66 53
f 76 53 75
