v 0.0471853 0.0315509 -0.329126
v 0.0466735 0.0417757 -0.315177
v 0.039325 0.039764 0.027715
v 0.039354 0.042704 -0.011432
v 0.039469 0.038626 0.037509
v 0.038645 0.014415 0.0585135
v 0.0293931 0.0338965 0.0519831
v 0.0371708 0.0411957 0.00441012
v 0.038169 0.0377965 0.0318335
v 0.0383493 0.0289542 0.048818
v 0.030165 0.041399 -0.284177
v 0.0375134 0.0348835 0.0416684
v 0.038078 0.041949 -0.025551
v 0.034929 -0.008294 0.063392
v 0.036023 0.043203 -0.090615
v 0.0366573 0.0186502 0.0573737
v 0.0334771 0.044385 -0.067083
v 0.0373057 0.0318223 -0.339368
v 0.032183 0.04278 -0.148799
v 0.0180546 0.0457652 -0.26339
v 0.0327869 -0.00897173 0.0633419
v 0.031314 0.042736 -0.176959
v 0.0344663 0.044493 -0.0333192
v 0.03411 0.04453 -0.142216
v 0.027191 0.043363 -0.265366
v 0.037805 0.045104 -0.077903
v 0.0283428 0.0479855 -0.0590737
v 0.026203 0.041532 -0.265617
v 0.025329 0.041353 -0.268632
v 0.0271604 0.0162652 0.0628309
v 0.027466 0.041108 -0.279471
v 0.0203115 -0.014509 0.0688935
v 0.025399 0.0026294 0.0658204
v 0.0181559 0.0319593 -0.263318
v -0.000224 -0.016039 0.07194
v 0.00252737 -0.0148902 0.0718133
v -0.027595 -0.013353 0.066504
v -0.013947 0.043328 -0.278915
v -0.0204893 0.0372568 -0.277922
v -0.0212715 0.0306435 -0.283205
v -0.0293552 -0.010428 0.0649619
v -0.025462 0.031284 -0.25957
v -0.026636 0.02584 -0.270485
v -0.0356248 0.00324155 -0.240098
v -0.0304705 0.024872 0.0605091
v -0.0291908 0.0383334 0.04942
v -0.0305779 0.0446623 0.0217
v -0.0277854 0.0486693 -0.0313303
v -0.0284905 0.02281 -0.267463
v -0.0350606 0.00231061 0.0620412
v -0.034578 -0.008148 0.063013
v -0.0328233 0.00907443 -0.257371
v -0.0371023 0.0404297 0.00599743
v -0.0338757 0.00521425 -0.256369
v -0.0366682 -0.00260439 0.0614262
v -0.037417 0.0255334 0.0538465
v -0.036897 0.0410734 -0.00641662
v -0.036152 0.041844 -0.005891
v -0.036143 0.0409839 -0.0358651
v -0.036575 0.040905 0.004093
v -0.0367724 0.0375138 -0.0817757
v -0.03623 -0.009478 -0.240737
v -0.042178 0.002056 -0.125139
v -0.03526 -0.005115 -0.249592
v -0.0337733 0.0405752 -0.0990901
v -0.037031 -0.009961 -0.239466
v -0.0379585 0.0407335 -0.043098
v -0.037921 0.038719 0.024621
v -0.038626 0.000316 0.060884
v -0.0379265 0.035176 -0.08499
v -0.043333 -0.008937 -0.122237
v -0.038133 0.0379255 0.03156
v -0.038239 0.040886 -0.009602
v -0.038682 0.016706 0.057847
v -0.0383385 0.0253105 0.052838
v -0.0382015 0.0341205 0.0423825
v -0.038811 0.009325 0.059787
v -0.040797 0.021611 -0.100174
v -0.043516 -0.009456 -0.123366
v -0.0396309 0.0263826 -0.0983788
v -0.043028 0.010671 -0.105655
v -0.0424563 0.00409389 -0.122033
v -0.0433206 -0.000883703 -0.110649
v -0.043539 -0.005339 -0.114442
v -0.043926 -0.000568 -0.110253
v -0.04405 -0.009472 -0.122751
v 0.0206629 0.0126265 -0.254999
v 0.0188069 0.0242138 -0.257081
v 0.0199281 0.0245737 -0.264811
v 0.0195323 0.0275062 -0.243398
v 0.0185066 0.0229343 -0.26419
v 0.019401 0.02295 -0.264038
v 0.0143517 -0.0224089 0.0372811
v -0.00265554 -0.0250227 0.0380985
v 0.010267 -0.024124 0.040941
v 0.0185267 -0.0236864 0.0320166
v 0.00118552 -0.0285652 0.0367863
v -0.0142827 -0.0229651 0.0346823
v 0.0158033 0.027742 0.036201
v -0.0062368 0.0265859 0.0375322
v 0.0045777 0.0300346 0.0387059
v 0.00182843 0.0320925 0.0364194
v 0.000354318 0.0321906 0.0367838
v -0.016926 0.0268589 0.0332318
v 0.0395114 -0.0289479 -0.313988
v 0.0394304 -0.031029 -0.325929
v 0.0266838 -0.027938 -0.298368
v 0.0287286 -0.0318959 -0.296677
v 0.0358863 -0.0319914 -0.328813
v 0.0367602 -0.0284885 -0.332647
v 0.0228917 -0.0276969 -0.336538
v 0.0266678 -0.0319095 -0.306287
v 0.0260147 -0.0314377 -0.333744
v 0.0207309 -0.0325324 -0.333347
v 0.0231067 -0.029072 -0.286687
v 0.0228431 -0.0330335 -0.300385
v 0.0233404 -0.0326974 -0.306783
v 0.0188991 -0.0318746 -0.298088
v 0.00809926 -0.0278888 -0.277153
v 0.00734078 -0.0274547 -0.301061
v 0.0176032 -0.0328956 -0.304526
v 0.0164742 -0.0328964 -0.308622
v 0.014631 -0.027311 -0.333097
v 0.0160368 -0.031217 -0.291527
v 0.0165955 -0.0283078 -0.290691
v 0.015559 -0.032878 -0.301306
v 0.00890677 -0.0330106 -0.304708
v 0.0158549 -0.0329243 -0.303577
v 0.0158409 -0.0328201 -0.308647
v 0.0146039 -0.0328912 -0.308931
v 0.0147323 -0.0328649 -0.310953
v 0.0152267 -0.0323761 -0.298395
v 0.0136512 -0.0328152 -0.306046
v 0.0127729 -0.0313301 -0.327596
v 0.00686296 -0.0324215 -0.310231
v 0.0148531 -0.032128 -0.297177
v 0.0123578 -0.0274318 -0.311466
v 0.00794623 -0.0295714 -0.285732
v 0.0124004 -0.0325695 -0.312564
v 0.0115164 -0.0313012 -0.293975
v 0.0119767 -0.0316305 -0.295753
v 0.00405986 -0.0296692 -0.287877
v -0.0034194 -0.0273952 -0.306343
v 0.00793424 -0.0274498 -0.30874
v 0.00762633 -0.0275879 -0.271351
v 0.008627 -0.027431 -0.304889
v 0.004274 -0.027448 -0.311175
v 0.00330754 -0.0281815 -0.297337
v 0.00844466 -0.0279041 -0.286168
v 0.003097 -0.027429 -0.301296
v 0.000947 -0.027427 -0.299513
v -0.0124248 -0.0274553 -0.28706
v 0.002395 -0.027424 -0.301277
v 0.002638 -0.027425 -0.30127
v 0.00344095 -0.0300249 -0.292586
v -0.002451 -0.028311 -0.284571
v -0.00239944 -0.0279211 -0.277897
v -0.00390543 -0.0301954 -0.303495
v 0.013724 0.034956 0.033611
v 0.013718 0.035138 0.034066
v 0.013854 0.034668 0.033579
v 0.013714 0.035368 0.033615
v 0.0501444 -0.026784 -0.0357764
v 0.0501 -0.027744 0.021981
v 0.0394733 -0.0278482 0.0168264
v 0.040047 -0.027758 0.016634
v 0.034601 -0.0303534 0.0168843
v 0.050093 -0.021588 0.028927
v 0.0337466 -0.0293574 -0.0300252
v 0.0500981 -0.0260422 0.0268102
v 0.0470384 0.00329292 0.029611
v 0.046951 -0.001179 0.028903
v 0.0303596 -0.0217635 0.0293113
v 0.0445996 0.0360071 -0.0375681
v 0.0343861 0.0200447 0.0288145
v 0.0489892 0.0325026 0.0288548
v 0.0309725 -0.0194816 -0.278164
v 0.0506203 0.0206583 -0.323644
v 0.0491075 0.0304834 -0.315813
v 0.0469319 0.00466571 -0.0380066
v 0.0492247 0.00526411 -0.049246
v 0.0502078 -0.0175692 -0.318786
v 0.047644 0.042853 -0.315595
v 0.046923 0.042825 -0.312731
v 0.047977 0.042903 -0.317616
v 0.0428282 0.04118 -0.0358531
v 0.0471309 -0.0274781 -0.310994
v 0.0361634 -0.0135724 -0.0509365
v 0.038301 -0.001761 0.028901
v 0.0383976 0.00112983 0.030357
v 0.03798 0.00490125 0.0300081
v 0.0219155 0.0315434 0.029084
v 0.0413719 0.0323896 0.016475
v 0.034237 0.0332854 -0.0388865
v 0.045376 0.038526 -0.33234
v 0.045016 0.037952 -0.333074
v 0.047278 0.041887 -0.328143
v 0.0347458 0.0376162 -0.0493967
v 0.0416828 0.0407765 0.0271345
v 0.0459315 0.0109967 -0.0389397
v 0.0431032 -0.0131108 -0.0401551
v 0.0300201 0.0274582 -0.280759
v 0.0377626 -0.000574929 -0.0436544
v 0.023965 -0.028172 -0.276528
v 0.0447528 -0.0279168 -0.314203
v 0.0479377 -0.0283817 -0.325004
v 0.0460143 -0.0279838 -0.320137
v 0.043456 -0.02759 -0.31157
v 0.0436169 -0.0276587 -0.312538
v 0.0400522 0.0249574 -0.040679
v 0.041294 -0.027642 -0.312102
v 0.0475262 0.00882888 -0.0460483
v 0.0369423 -0.017624 -0.342629
v 0.0344467 0.020611 -0.342996
v 0.022851 -0.027669 -0.275919
v 0.023763 -0.029454 -0.278033
v 0.0422038 -0.0280008 -0.331077
v 0.020164 -0.027658 -0.272258
v 0.0394969 -0.0355684 -0.317684
v 0.032447 -0.0274725 -0.337377
v 0.0502259 -0.000527748 -0.037571
v 0.0338155 0.0329565 0.0152848
v 0.04311 -0.0220535 -0.0484592
v 0.02059 -0.027644 -0.276246
v 0.0390576 0.0308051 -0.339534
v 0.0369485 -0.0276581 0.00332325
v 0.039902 -0.02782 0.016607
v 0.03976 -0.027887 0.016576
v 0.0382229 0.0078238 -0.0515258
v 0.0341733 -0.0307759 0.0144305
v 0.0404476 0.00274795 0.0415698
v 0.0417811 -0.0276511 -0.332074
v 0.0332981 0.0177982 -0.051868
v 0.0340168 0.0378935 -0.0376719
v 0.0366977 -0.00593075 0.0437525
v 0.038314 -0.001199 0.029329
v 0.0383992 -0.00164105 0.0289497
v 0.0381206 -0.00194346 0.0290157
v 0.0345513 -0.0294155 -0.0188293
v 0.0389431 -0.0283066 0.0145156
v 0.0413859 -0.0229685 -0.0373389
v 0.0337619 -0.0173654 -0.318523
v 0.0357466 0.0124786 0.0443611
v 0.036587 0.010555 -0.0537606
v 0.0208021 -0.0175546 -0.274332
v 0.0322732 0.0313888 -0.0460291
v 0.0311096 0.0215185 -0.278031
v 0.0361418 -0.00883946 -0.0537763
v 0.034139 -0.028687 -0.037745
v 0.0368655 -0.0286827 -0.339413
v 0.0327374 -0.0339139 -0.3363
v 0.029624 -0.028185 -0.021348
v 0.0273529 -0.0225562 -0.274715
v 0.0329353 -0.045997 -0.0159799
v 0.032528 0.0206307 -0.316487
v 0.0328036 0.0329415 -0.0278064
v 0.025203 0.0353594 -0.0256282
v 0.0353247 -0.0461859 0.00795303
v 0.0336156 0.00249498 0.0623838
v 0.0238472 -0.0288308 -0.0279109
v 0.0333234 -0.0453533 0.0147162
v 0.0327011 -0.0318945 -0.0459695
v 0.031825 -0.036376 -0.017887
v 0.031931 -0.020907 0.059201
v 0.0325799 -0.0357227 -0.0182035
v 0.0154815 -0.0467927 0.00954719
v 0.024443 0.041859 -0.0324768
v 0.031642 -0.019806 0.060752
v 0.037077 -0.0304511 -0.0494007
v 0.02814 0.002566 -0.225094
v 0.0290988 0.00210432 -0.227234
v 0.0319828 -0.0374468 -0.019577
v 0.032092 -0.036694 -0.017891
v 0.032035 -0.036284 -0.017932
v 0.03203 -0.036516 -0.017903
v 0.032032 -0.036416 -0.017916
v 0.0271547 0.0146148 -0.223752
v 0.028761 -0.044663 0.022352
v 0.0275594 -0.0281032 -0.340739
v 0.034346 -0.0207155 0.0583226
v 0.030859 -0.017905 0.06194
v 0.0270773 -0.0279931 -0.340341
v 0.0198963 -0.0277715 -0.343933
v 0.0199225 -0.0334188 -0.050094
v 0.029963 0.025126 -0.242706
v 0.030623 0.024859 -0.230883
v 0.0309134 -0.0205684 -0.238451
v 0.0189104 -0.033465 -0.283902
v 0.030386 0.025133 -0.231958
v 0.030372 0.02515 -0.230541
v 0.025634 -0.0263655 -0.223976
v 0.029814 0.026131 -0.228506
v 0.029698 0.025297 -0.242135
v 0.0309556 -0.0721842 -0.00582039
v 0.0301022 -0.0624571 -0.00436694
v 0.0188997 -0.0144772 0.0622897
v -0.0307648 -0.0173126 0.0618422
v -0.027876 -0.019269 0.062231
v 0.029729 0.025285 -0.242236
v -0.0277 -0.020781 0.060789
v -0.027474 -0.021547 0.058824
v 0.0299251 0.00484045 -0.228959
v 0.0285565 0.0261982 0.028817
v 0.0282255 0.0265598 0.056204
v 0.00341729 -0.0218014 0.0543644
v 0.0276682 -0.021419 0.0462831
v 0.0288275 -0.0217029 0.0365008
v 0.029571 0.025363 -0.242733
v 0.0301009 -0.0213008 -0.0526689
v 0.029559 -0.021573 -0.250584
v 0.0293761 0.0265596 -0.246295
v 0.029609 -0.022027 -0.249758
v 0.0281835 -0.0242141 -0.247823
v 0.0295725 -0.0221036 -0.249804
v 0.029546 -0.021923 -0.25015
v 0.0291667 -0.0217461 -0.25161
v 0.0282884 0.0474031 -0.0260889
v 0.0285126 -0.0171847 -0.266598
v 0.029512 -0.0222127 -0.249785
v 0.0247922 0.0256395 -0.249201
v 0.0250284 -0.0216065 -0.257576
v 0.0298723 0.0226651 -0.271828
v 0.028997 -0.022558 -0.250291
v 0.0242757 0.0305465 -0.250281
v 0.0188854 -0.0177056 -0.343877
v 0.0269762 -0.0233026 0.0361372
v 0.0286442 0.0466504 0.0239553
v 0.026652 -0.023357 -0.036745
v -0.027613 -0.022354 -0.036921
v 0.02878 -0.020875 -0.037062
v -0.028735 -0.021032 -0.037071
v -0.00696393 -0.0346452 -0.0375138
v 0.0023265 -0.0351368 -0.0370315
v -0.027252 -0.022828 -0.03697
v -0.0184619 -0.030066 -0.0370773
v 0.0188613 -0.0289801 -0.26634
v 0.0285286 0.0207364 -0.267913
v 0.0279263 -0.015125 -0.264391
v 0.0285777 0.0228739 -0.262425
v 0.025166 -0.044916 0.026265
v 0.0274987 -0.0648073 0.0171253
v 0.024216 -0.041023 0.027317
v 0.024424 -0.042034 0.027091
v 0.02443 -0.042147 0.027085
v 0.0254377 -0.0272926 -0.339113
v 0.025191 0.029154 -0.249319
v 0.025568 -0.063994 -0.016499
v 0.0223324 -0.00477499 -0.270585
v 0.030194 -0.0736868 -0.00360007
v 0.0247221 0.0272243 0.047701
v 0.025122 0.030742 0.047605
v 0.0226428 -0.0735877 0.0181466
v -0.000356 -0.023385 -0.036625
v 0.023497 -0.034076 0.030113
v 0.026654 -0.023851 0.035581
v 0.0268957 0.00238023 0.0640412
v 0.024891 -0.024563 0.033937
v 0.0227734 -0.029433 -0.0522151
v 0.0268265 -0.0229888 0.036616
v 0.026704 -0.023176 0.036332
v 0.026766 -0.023291 0.036165
v 0.026759 -0.023356 0.036089
v 0.026687 -0.023391 0.036023
v 0.0180604 -0.0618226 -0.00136175
v 0.0276112 -0.0218449 0.0529483
v 0.025038 -0.027386 -0.340177
v 0.0236301 -0.0264405 -0.035541
v 0.0235822 0.0263012 0.047667
v 0.0231535 -0.0215854 0.0506089
v 0.019102 -0.009788 -0.255913
v 0.022943 -0.027452 -0.340067
v 0.0242495 -0.018302 -0.127404
v 0.025477 -0.027387 -0.340172
v 0.0135585 -0.0357423 -0.328704
v -0.00166259 -0.0338201 -0.287881
v 0.0222365 -0.0045797 -0.254129
v 0.0189426 0.0205671 -0.314281
v 0.024913 0.028934 -0.249513
v 0.0120095 -0.0718698 -0.0291745
v 0.024418 0.029827 -0.249871
v 0.024021 -0.027381 -0.340104
v 0.0244959 -0.0368852 0.0279665
v 0.0127219 -0.0421672 -0.0405729
v 0.0224698 -0.0266521 0.0297133
v 0.0167363 -0.0737252 -0.0240884
v 0.018701 -0.0633978 0.0242321
v 0.022729 0.0307958 0.0404332
v 0.0297938 -0.0329747 -0.0407478
v 0.023686 -0.002224 -0.230415
v 0.024953 0.029147 -0.249497
v 0.024964 0.029032 -0.24947
v 0.024121 -0.022636 -0.266463
v 0.020973 -0.044439 0.02978
v 0.0195926 -0.0300955 -0.0460521
v 0.0175862 0.0206895 -0.343669
v 0.0222731 0.0305002 -0.249864
v 2.08362e-05 -0.0242059 0.0460988
v 0.022743 -0.036706 0.029453
v 0.024388 -0.042352 0.027125
v 0.0226481 -0.0457953 -0.0284639
v -0.0191366 0.0212828 -0.291552
v 0.02303 -0.021529 -0.10332
v 0.024595 -0.0234664 -0.249538
v 0.0266576 0.0204846 -0.328498
v 0.0240501 0.0259294 -0.267737
v 0.022131 -0.039092 0.029343
v 0.0129036 -0.0300296 0.0471248
v 0.0226569 -0.0249589 0.0520165
v 0.0243978 -0.0282266 -0.275262
v 0.021698 -0.040294 0.029484
v 0.021669 -0.040398 0.029496
v 0.022514 -0.027895 -0.249248
v 0.0226278 0.0318177 -0.220732
v 0.0221524 0.0313536 -0.259339
v 0.0228693 -0.0274277 -0.21864
v 0.015064 -0.014424 -0.258154
v 0.0239299 0.0307315 -0.344448
v 0.0212643 -0.0271555 0.0300591
v 0.021634 -0.027057 0.029497
v 0.0210821 -0.0154097 -0.254803
v 0.022908 0.0005515 -0.245895
v 0.0219128 -0.0394778 -0.0294256
v -0.00306622 -0.0470533 -0.0353683
v 0.01751 -0.027327 -0.338799
v 0.0200272 -0.0426442 -0.0482705
v 0.0210408 0.0090446 -0.271833
v 0.022329 -0.027112 0.029343
v 0.0137117 -0.0468404 -0.0135532
v 0.0196924 -0.0419059 -0.0312164
v 0.0146481 -0.0329134 -0.0537176
v 0.022221 -0.027145 0.02933
v 0.022056 -0.027084 0.029347
v 0.0193681 -0.0252108 -0.176278
v 0.021747 -0.04021 0.029458
v 0.021678 -0.00522 -0.271013
v 0.02158 -0.005164 -0.270956
v 0.021587 -0.005114 -0.270869
v 0.0190859 -0.0285403 -0.0320693
v 0.021556 -0.005027 -0.270707
v 0.0215128 -0.0403798 0.0296126
v 0.0213581 -0.040036 0.0297752
v 0.020068 -0.02511 -0.090936
v 0.020897 -0.027233 0.037135
v 0.021259 -0.027374 0.029938
v 0.021287 -0.027314 0.0299
v 0.021202 -0.038251 0.030158
v 0.018175 -0.039002 0.03189
v 0.021211 -0.027428 0.030095
v 0.0186955 -0.0462369 0.0308081
v 0.0208658 0.0184786 -0.27244
v 0.0206979 -0.00584651 -0.272212
v 0.0211866 -0.0151001 -0.272518
v 0.0195872 -0.0334762 0.0334702
v 0.0210639 -0.0268918 0.0379698
v 0.020961 -0.026989 0.03781
v 0.017913 -0.028487 0.038221
v 0.020857 -0.02715 0.037483
v 0.0208706 -0.0270914 0.0376277
v 0.020228 -0.019529 -0.255271
v 0.00148952 -0.0358188 -0.0391324
v 0.018776 -0.028806 0.037033
v 0.015301 -0.027579 -0.097516
v 0.010226 -0.017637 -0.260824
v 0.0192272 -0.0246233 -0.244188
v 0.0198154 -0.0173846 -0.326558
v 0.0252107 -0.02211 0.0477807
v 0.019638 -0.019633 -0.263941
v 0.0206006 0.0265605 0.0479161
v 1.61628e-05 0.0280506 0.0505564
v 0.018364 -0.019624 -0.263625
v 0.018486 -0.019636 -0.263836
v 0.0206871 0.020775 -0.274337
v 0.019017 -0.019895 -0.264641
v 0.0175778 0.00796023 -0.269154
v 0.019123 -0.0174541 -0.314646
v 0.0200967 -0.0205754 -0.26469
v 0.018938 -0.019636 -0.264145
v 0.017745 -0.00624115 -0.271848
v 0.018768 -0.019642 -0.264128
v 0.018621 -0.019652 -0.26407
v 0.0142533 0.019202 -0.271026
v 0.017041 -0.024968 -0.2614
v 0.01234 -0.02581 -0.260595
v 0.0200881 -0.0631346 -0.0229261
v 0.018624 -0.028867 0.036979
v 0.018609 -0.028934 0.036883
v 0.018413 -0.029202 0.036221
v 0.018305 -0.02869 0.037101
v 0.018501 -0.028812 0.037007
v 0.018229 -0.035542 0.032296
v 0.0181213 -0.0299214 0.0322524
v 0.0175391 0.0156513 -0.272718
v 0.0145895 -0.0294259 -0.337307
v 0.0194175 0.0192487 -0.273141
v 0.017786 -0.028774 0.033768
v 0.018053 -0.037685 0.032005
v 0.018032 -0.028538 0.037642
v 0.0181307 0.0204647 -0.323449
v 0.017752 -0.038017 0.031903
v 0.0136375 -0.0279818 -0.265456
v 0.00502387 -0.062268 0.0297854
v 0.0169156 -0.014102 -0.271314
v 0.016221 -0.0213927 -0.262347
v 0.0153695 0.00388184 -0.264708
v 0.0162867 -0.00396038 -0.267168
v 0.00985016 -0.045747 -0.0490264
v 0.0155855 0.0181026 -0.264706
v 0.0203613 -0.0283294 -0.340875
v 0.00653272 0.0205868 -0.336104
v 0.0138966 -0.0155297 -0.261698
v 0.015764 -0.013331 -0.262335
v 0.013594 -0.027305 -0.336592
v 0.0112037 0.030702 -0.339651
v 0.0123004 -0.0174617 -0.339388
v 0.009493 -0.029371 -0.105624
v 0.0175805 -0.0293638 0.0331046
v 0.012148 -0.030609 0.036137
v 0.00736027 -0.0448687 -0.0358233
v 0.002065 -0.016524 -0.278255
v 0.0065108 -0.0456456 -0.0355928
v 0.006398 0.001642 -0.267549
v 0.00221022 -0.0467915 0.0177386
v 0.015 -0.0027343 -0.263241
v 0.009894 -0.030576 0.046198
v 0.009566 -0.030894 0.038048
v 0.0118317 -0.0633517 -0.0278757
v 0.009154 -0.029472 -0.332181
v 0.00694043 -0.0735659 0.0281982
v 0.0148355 -0.0292062 -0.266093
v 0.001218 -0.041259 -0.041026
v 0.00970639 -0.0156643 -0.267173
v -0.0163764 0.0119397 -0.279738
v 0.0131432 -0.0275978 -0.33404
v -0.0190781 -0.0175958 -0.290613
v 0.0142564 -0.0444237 -0.0373405
v -0.000532661 -0.0312285 -0.273613
v 0.00652328 -0.0281863 -0.334496
v 0.00790596 -0.0177876 -0.337731
v 0.00467582 -0.0358545 -0.0520065
v 0.0099954 -0.0274869 -0.333646
v 0.011737 -0.0277725 -0.335328
v 0.00774512 -0.0300064 0.0523698
v 0.007045 -0.018906 -0.262584
v 0.009499 -0.030934 0.037804
v 0.009364 -0.031069 0.037298
v 0.009329 -0.031114 0.037163
v 0.00951982 -0.0464678 0.0345757
v 0.00892779 -0.0263101 -0.261605
v 0.00369 -0.030154 -0.111681
v 0.0112727 -0.0427199 -0.0355403
v 0.008238 -0.027915 -0.331613
v 0.0113806 -0.0297913 -0.264938
v -0.00301447 -0.0305045 -0.27212
v 0.0130446 -0.0725691 0.0276735
v 0.00869223 -0.0622013 -0.0285223
v 0.00431396 -0.0301401 0.0516312
v 0.009415 -0.030925 0.037875
v 0.009225 -0.030954 0.037745
v 0.00983504 -0.0196679 -0.261399
v 0.00920743 -0.031023 0.0374259
v 0.009297 -0.030964 0.037662
v 0.009147 -0.031213 0.036988
v -0.011548 -0.027478 -0.292371
v 0.008845 -0.031073 0.037133
v 0.011215 -0.0277642 -0.265292
v 0.005805 0.029161 -0.334727
v 0.005818 0.030677 -0.334194
v 0.008884 -0.031014 0.037436
v -0.0143336 -0.0297706 -0.29032
v 0.009049 -0.03115 0.037091
v 0.00871738 -0.0318739 0.0358041
v 0.003498 -0.031075 0.046297
v 0.008777 -0.031044 0.037222
v 0.00938192 -0.0617787 0.0159938
v 0.008603 -0.031067 0.037075
v 0.0087795 -0.0312145 0.036761
v 0.008457 -0.031087 0.036962
v 0.008172 -0.031283 0.035556
v -0.00579299 -0.029892 -0.274954
v 0.001124 -0.01981 -0.265866
v -0.012638 -0.027722 -0.294773
v -0.008391 -0.027499 -0.302456
v -3e-05 -0.027666 0.047629
v -3.61547e-06 0.0328524 0.0476211
v 0.00599969 -0.0340367 -0.27624
v -0.011142 -0.027975 -0.298671
v -0.00766716 0.0205961 -0.274484
v -0.00136726 -0.0367092 -0.0514136
v -0.002602 -0.031305 0.036426
v -0.00672862 -0.0429834 -0.0400634
v -0.003311 -0.030177 -0.113303
v -0.018758 0.030766 -0.289431
v 0.007317 0.031043 -0.334268
v -0.000524036 -0.0732219 0.0297863
v 0.00281442 -0.0736913 -0.0288083
v -7.65849e-05 -0.0269685 0.0513039
v -0.014813 0.030611 -0.298827
v -0.0164158 -0.0190728 -0.296945
v -0.000374873 -0.0339073 -0.276291
v 0.00310072 -0.0298552 0.0538329
v 0.000808769 -0.0443011 -0.0369099
v 0.00129214 -0.0227265 0.0571365
v -0.016485 -0.018826 -0.293253
v 0.001068 -0.041243 -0.036528
v -0.008412 -0.025967 -0.271144
v -0.004274 -0.030797 -0.27501
v 0.000597505 -0.0453116 0.0364536
v -0.00224131 -0.0347967 -0.0460503
v -0.006208 -0.024556 -0.036029
v -0.0150081 -0.0468589 -0.0119367
v -0.00510017 -0.073649 -0.0285237
v -0.0110047 -0.0730458 -0.0281643
v -0.0248489 -0.0737081 0.0147524
v -0.00823913 -0.0635738 0.0293028
v -0.00778414 -0.0624722 -0.0294095
v -0.0143961 -0.0618045 0.0125819
v -0.00358581 -0.0300862 0.0519818
v -0.00949 -0.028139 0.047385
v -0.0100588 -0.0241797 0.0537018
v -3.88573e-05 -0.0249544 0.0538772
v -0.00991552 -0.0276252 0.0469609
v -0.009934 -0.024659 0.044878
v -1.50235e-05 -0.0219386 0.0511456
v -0.00987435 -0.0216861 0.0450793
v -7.48523e-05 0.0265237 0.0450659
v -7.7e-05 0.026153 0.05295
v -0.009918 0.028025 0.044766
v -0.00967 0.026192 0.045264
v -0.0101449 0.0317938 0.0453456
v -0.00954683 0.0323312 0.0472464
v -0.00388334 -0.0310876 0.0384042
v -0.00948 -0.027933 0.047368
v -0.00933668 -0.0373994 -0.0501195
v -0.00638559 -0.0437102 -0.0364494
v -0.00844544 -0.0441822 -0.0359362
v -0.005527 -0.018916 -0.269556
v -0.00299 -0.031623 0.036369
v -0.00587683 -0.0464714 -0.048659
v -0.00341652 -0.0307503 -0.279251
v -0.010061 0.026145 0.051989
v -0.0162746 -0.0281524 -0.28086
v -0.003417 -0.031291 0.037515
v -0.003485 -0.031368 0.037488
v -0.003482 -0.031463 0.037354
v 0.00237934 -0.0618566 -0.0194701
v -0.0164068 -0.0326273 -0.0522419
v -0.0166899 -0.028727 -0.282474
v -0.003414 -0.031741 0.037019
v -0.003445 -0.031266 0.037609
v -0.003451 -0.031688 0.037097
v -0.003424 -0.031586 0.037141
v -0.003502 -0.031261 0.037693
v -0.00368443 -0.0313908 0.0376859
v -0.003637 -0.031459 0.037548
v -0.00867445 -0.0304685 0.0367501
v -0.003793 -0.031381 0.037769
v 0.000363052 -0.0356918 -0.0756475
v -0.00377067 -0.0323381 0.0366915
v -0.0106928 -0.045477 0.0345721
v -0.00933427 -0.0297303 0.0470879
v -0.00961239 -0.0722872 0.0289719
v -0.0124782 -0.0636522 -0.0277224
v -0.0141882 -0.0145494 -0.280837
v -0.009969 -0.031849 -0.169387
v -0.0159059 -0.0281685 -0.28107
v -0.0204909 -0.0293198 -0.0460557
v -0.00812363 -0.0351128 -0.0560155
v -0.0140521 -0.0432875 -0.0375167
v -0.012423 -0.031454 0.034342
v -0.0293737 -0.0219681 -0.0406922
v -0.0101315 -0.0294588 0.0456249
v -0.014798 -0.031674 -0.033519
v -0.012926 -0.027402 -0.294407
v -0.010781 -0.027531 -0.298451
v -0.010774 -0.027594 -0.298532
v -0.010817 -0.027682 -0.298555
v -0.013121 -0.0158443 -0.273756
v -0.015797 -0.027126 -0.100439
v -0.016084 -0.029855 -0.18714
v -0.0101317 -0.0284474 0.0543977
v -0.009601 -0.028101 0.047363
v -0.0098106 -0.0216261 0.0560441
v -0.009595 -0.027916 0.047348
v -0.009692 -0.027918 0.047315
v -0.009695 -0.028083 0.047327
v -0.009782 -0.028065 0.047276
v -0.01036 -0.0286678 -0.112438
v -0.009944 0.02613 0.045203
v -0.018383 0.026128 0.049073
v -0.00941327 0.0329042 -0.275085
v -0.009966 0.026596 0.04495
v -0.009984 0.02668 0.044898
v -0.009975 0.02678 0.044882
v -0.010049 0.026637 0.044781
v -0.0101082 0.0261374 0.0446709
v -0.010056 0.026129 0.044957
v -0.010031 -0.026247 0.045115
v -0.010032 -0.025514 0.044766
v -0.010032 -0.025408 0.044765
v -0.023184 0.026119 0.046122
v -0.0141844 0.0184682 -0.274157
v -0.022949 -0.024936 0.0445
v -0.0233036 0.0291331 0.0441784
v -0.017455 -0.040474 -0.038535
v -0.0245393 -0.0166765 -0.138901
v -0.0139846 -0.0296376 0.0343357
v -0.022947 -0.025115 0.040937
v -0.0147273 -0.0283922 0.0389155
v -0.0251747 -0.0623208 0.0162822
v -0.026449 -0.0624903 -0.0163012
v -0.013824 -0.039478 0.033764
v -0.013933 -0.040115 0.033724
v -0.014117 -0.041397 0.033646
v -0.0102125 -0.0277228 -0.279826
v -0.0200855 -0.0283557 -0.0317256
v -0.00498099 -0.0451636 -0.045944
v -0.0173024 0.0274253 -0.275478
v -0.0136542 -0.0468118 0.0123453
v -0.013762 -0.038835 0.033792
v -0.0168826 -0.0242457 -0.275845
v -0.0186076 -0.00837629 -0.276834
v -0.0115393 -0.0454586 -0.0492536
v -0.0271008 -0.037655 -0.0495877
v -0.016997 -0.027471 0.038981
v -0.014007 -0.040759 0.033689
v -0.014363 -0.039993 0.033715
v -0.0165208 -0.0275932 -0.282018
v -0.0144577 0.0185796 -0.28423
v -0.014169 -0.042046 0.033619
v -0.015425 -0.0623402 0.0253558
v -0.0199668 -0.0413654 0.030536
v -0.0162158 -0.0462812 0.0320834
v -0.0211076 -0.0721379 -0.021818
v -0.0183158 -0.0720746 0.0250718
v -0.0172193 -0.0378618 0.0327757
v -0.0144063 -0.0362195 0.0341414
v -0.0174543 -0.0282084 -0.291316
v -0.0322068 -0.0341759 -0.0373159
v -0.0160747 -0.06185 -0.00772454
v -0.0290536 -0.0464373 -0.0215451
v -0.0227485 -0.0118306 -0.285122
v -0.023425 -0.001898 -0.284082
v -0.0157483 -0.0105887 -0.280485
v -0.021732 -0.028226 -0.122608
v -0.018476 -0.0454757 -0.0313143
v -0.017189 -0.035204 0.033296
v -0.016918 -0.028004 0.038465
v -0.016973 -0.027699 0.038629
v -0.016992 -0.027796 0.038459
v -0.017017 -0.0277 0.038444
v -0.017007 -0.027699 0.038489
v -0.01729 -0.027526 0.03287
v -0.020738 -0.0358631 0.0311984
v -0.017629 -0.027386 0.032452
v -0.020406 -0.041657 0.030252
v -0.02039 -0.041856 0.030261
v -0.02043 -0.042121 0.030232
v -0.0211525 -0.0241709 -0.103665
v -0.018307 -0.027216 0.03238
v -0.018371 -0.027066 0.032671
v -0.018226 -0.027133 0.032554
v -0.018523 -0.027014 0.032774
v -0.018719 -0.035908 0.032349
v -0.018571 -0.027121 0.032488
v -0.0182342 -0.0274181 0.0321781
v -0.018572 -0.027276 0.032351
v -0.022803 -0.025334 0.037906
v -0.0186971 -0.0366385 0.0322253
v -0.0244912 -0.0457191 0.026541
v -0.018685 -0.02751 0.032308
v -0.0203854 -0.0407849 -0.0305636
v -0.018797 -0.027265 0.032455
v -0.020147 -0.016805 -0.232889
v -0.018796 -0.027436 0.032387
v -0.0195272 0.00897386 -0.276396
v -0.0226728 -0.0255883 0.037333
v -0.022564 -0.02564 0.03721
v -0.018881 -0.027521 0.032448
v -0.018955 -0.027453 0.032517
v -0.019152 -0.034445 0.032705
v -0.022535 -0.025694 0.037125
v -0.022506 -0.02575 0.037045
v -0.022461 -0.026068 0.036781
v -0.0253756 -0.0242414 0.0365537
v -0.02042 -0.041556 0.030235
v -0.0227942 0.0144635 -0.284513
v -0.020397 -0.026515 0.03023
v -0.024082 -0.025241 0.02744
v -0.022896 -0.025948 0.036946
v -0.0198624 -0.0274393 -0.286209
v -0.0277543 -0.0351335 -0.0409233
v -0.0223153 0.0297582 0.0412438
v -0.0220242 0.0309938 0.029004
v -0.0244098 -0.0380943 -0.0286534
v -0.021353 0.0304493 -0.276284
v -0.0280369 -0.0720938 0.0123279
v -0.0291202 0.0278674 0.0282366
v -0.022546 -0.025832 0.036994
v -0.02258 -0.025913 0.036947
v -0.022592 -0.025588 0.037298
v -0.0231398 0.0328384 -0.260449
v -0.022682 -0.025789 0.037088
v -0.022737 -0.025726 0.037163
v -0.0228888 -0.0254925 0.0374818
v -0.022852 -0.025657 0.037238
v -0.0283552 0.0327659 0.0257088
v -0.027637 0.040715 0.037329
v -0.0249056 -0.0274234 -0.0515215
v -0.025887 0.029169 0.044139
v -0.024669 -0.0161842 -0.235057
v -0.0270452 -0.0344511 -0.044719
v -0.0307786 -0.00742863 -0.15057
v -0.031313 -0.003176 -0.152109
v -0.0261681 0.00124587 -0.240822
v -0.02647 -0.0187347 -0.169126
v -0.0274 -0.044397 0.024055
v -0.0259736 -0.0720641 -0.0169794
v -0.0289945 -0.0720895 -0.00910602
v -0.0290223 -0.0640315 0.00948514
v -0.0313644 -0.0356986 -0.0485458
v -0.0258447 -0.0361767 -0.0271348
v -0.0260697 0.0427374 -0.0341242
v -0.0282027 -0.0279857 -0.0247511
v -0.025685 0.032202 -0.026179
v -0.029205 0.0295359 -0.0245198
v -0.0304096 -0.0208245 -0.0521671
v -0.0259695 -0.0229977 0.044232
v -0.0263881 0.00246035 0.0652945
v -0.0270216 -0.0112521 0.0632416
v -0.026912 0.012121 0.06304
v -0.0299273 -0.0731129 0.000797378
v -0.0289426 -0.0267817 0.0226972
v -0.0285 -0.063303 -0.0103769
v -0.0303704 -0.0634846 -3.27589e-05
v -0.0361765 0.0308924 -0.0342687
v -0.0306302 -0.0384256 0.0206607
v -0.029723 -0.040605 0.021173
v -0.029715 -0.040717 0.021184
v -0.029698 -0.040838 0.021208
v -0.029778 -0.041013 0.02117
v -0.0344334 -0.0144375 -0.0517911
v -0.0365659 -0.00802233 -0.0460983
v -0.0299881 -0.0202575 0.0597722
v -0.0313697 -0.0230074 0.0333072
v -0.035942 -0.009045 -0.053712
v -0.031628 -0.042789 0.018212
v -0.0411608 -0.0232047 0.019425
v -0.029932 -0.04097 0.021013
v -0.029984 -0.040793 0.020967
v -0.0306848 -0.0237161 0.0212027
v -0.0293554 -0.0218485 -0.0255291
v -0.0270953 -0.0299767 -0.0256221
v -0.0350925 -0.0221041 -0.0258774
v -0.031211 -0.0196888 -0.0265268
v -0.029938 0.00207846 -0.0359156
v -0.0307188 0.0240104 -0.0285084
v -0.0324965 0.0236348 -0.0180973
v -0.0341763 0.0266517 -0.0260983
v -0.0344518 0.0258274 0.0335955
v -0.030027 -0.040572 0.020945
v -0.031758 -0.040452 0.018172
v -0.0306102 -0.0228479 0.0334299
v -0.037284 -0.002397 -0.053403
v -0.0334407 0.0019031 -0.1218
v -0.031234 -0.004214 -0.151338
v -0.0310604 0.027784 0.0338002
v -0.0341028 -0.0233102 0.0439078
v -0.0313881 -0.0243032 0.0407345
v -0.0373718 -0.00468939 -0.0521246
v -0.0435698 -0.0171535 -0.0377277
v -0.0329953 -0.0462986 0.014548
v -0.0318929 0.0166097 0.0560774
v -0.0253403 0.0404606 -0.0278856
v -0.03168 -0.04197 0.018125
v -0.033321 -0.038283 0.014999
v -0.031716 -0.036934 0.018208
v -0.033302 -0.033852 0.01833
v -0.031866 -0.039124 0.017818
v -0.0344817 -0.022455 0.0147773
v -0.031641 -0.037055 0.018186
v -0.031644 -0.037159 0.018182
v -0.031657 -0.037292 0.018167
v -0.031695 -0.041581 0.018113
v -0.031714 -0.037395 0.018174
v -0.031759 -0.037664 0.01814
v -0.031693 -0.037543 0.018125
v -0.035421 -0.019082 0.043917
v -0.0320366 0.0022702 0.05924
v -0.031981 0.016589 0.044295
v -0.0318721 -0.0137858 0.0560851
v -0.0314056 -0.00955336 0.050211
v -0.03184 0.01916 0.055993
v -0.0329935 0.026545 0.0438188
v -0.031728 -0.037769 0.018047
v -0.0320847 -0.0372813 0.0185445
v -0.0337502 -0.0153787 0.0441058
v -0.03175 -0.037987 0.017996
v -0.031767 -0.038108 0.017965
v -0.031785 -0.038228 0.017934
v -0.0319053 -0.0385996 0.0180096
v -0.0303798 -0.0243112 0.0181953
v -0.0359352 0.000984694 0.0531782
v -0.031838 -0.038644 0.017841
v -0.035328 0.0170126 -0.0514577
v -0.03185 -0.038774 0.017819
v -0.031856 -0.038877 0.017808
v -0.0510977 -0.0141635 0.0430008
v -0.037733 0.019029 0.04384
v -0.035663 0.023628 0.043781
v -0.0336617 0.02841 0.0426527
v -0.0354194 0.0259851 0.0173453
v -0.0329745 0.0214541 0.035752
v -0.0350628 0.0207388 0.0104057
v -0.0338198 0.0210478 0.036829
v -0.032136 -0.0173316 0.0358018
v -0.0346453 -0.0145279 0.0368334
v -0.039574 0.027239 -0.017139
v -0.0338 0.033035 -0.0148703
v -0.0312047 0.0270463 -0.109803
v -0.0347526 -0.0458463 -0.0109505
v -0.0314449 -0.0456828 -0.0175493
v -0.0327752 0.0282386 0.0168521
v -0.033878 0.026815 0.03499
v -0.033854 -0.018427 -0.01365
v -0.0328111 -0.0190503 -0.0181922
v -0.037803 0.025184 -0.01723
v -0.0391126 0.0239092 -0.0176335
v -0.040005 0.022813 -0.019364
v -0.0334944 -0.0174698 0.0329841
v -0.0392969 -0.0196216 -0.0243136
v -0.035827 -0.044568 0.006768
v -0.034011 0.022645 -0.013632
v -0.034562 -0.041083 0.01184
v -0.0352451 -0.0342147 -0.0161979
v -0.0379312 0.00657963 -0.051943
v -0.044582 -0.0184294 0.0171331
v -0.0346203 0.0265321 0.0128708
v -0.034957 -0.037645 0.012419
v -0.0358537 -0.0270537 -0.0292399
v -0.0342392 -0.0372638 -0.0135059
v -0.0409404 -0.0257946 -0.0136038
v -0.0392586 0.0235463 0.0120536
v -0.0350386 -0.0314871 -0.0132595
v -0.036314 0.0195088 0.0263132
v -0.0359961 -0.0454106 0.00510135
v -0.036416 -0.0270277 -0.0112467
v -0.041728 -0.0183729 -0.0460038
v -0.038762 -0.030308 -0.012591
v -0.0348592 -0.0221537 0.0116566
v -0.0348417 -0.0365902 0.012066
v -0.0362144 -0.0395085 -0.00568328
v -0.034591 -0.038022 0.011861
v -0.0345519 -0.0381352 0.0117854
v -0.034623 -0.038282 0.01183
v -0.034714 -0.039099 0.011862
v -0.0376584 -0.0029426 0.0242107
v -0.03461 -0.0391 0.0116
v -0.034619 -0.039252 0.011574
v -0.034623 -0.039355 0.011607
v -0.034655 -0.021876 0.011473
v -0.0358287 -0.0270837 -0.00719296
v -0.036115 -0.024845 -0.005518
v -0.0390498 -0.0291978 0.0145703
v -0.0348145 -0.0216379 0.0110623
v -0.0352192 -0.0205811 0.0353897
v -0.0373581 0.0193368 -0.0133207
v -0.0357474 0.0349181 -0.0495455
v -0.0356484 -0.0190994 0.0438557
v -0.03695 -0.016987 0.043887
v -0.0380924 -0.0154388 0.0417695
v -0.0404945 0.0199485 0.0268755
v -0.040933 0.021115 -0.01386
v -0.0363388 0.0292475 -0.0406441
v -0.0352388 0.0310958 -0.0461186
v -0.0435534 0.018787 -0.0460884
v -0.0430297 -0.0148835 -0.0409974
v -0.0407204 -0.0164701 0.0104912
v -0.0385942 0.0261752 -0.0277951
v -0.0381572 0.0197251 0.0418735
v -0.0374432 0.00089664 -0.0368278
v -0.0362514 0.0219755 -0.0383907
v -0.036707 -0.039732 -0.001518
v -0.0416961 0.022526 -0.0381489
v -0.0363237 -0.0320563 -0.00519267
v -0.036151 0.020921 -0.005578
v -0.03612 -0.016629 -0.005521
v -0.036547 -0.015863 -0.000482
v -0.040551 0.021302 -0.005479
v -0.040552 0.021431 -0.005469
v -0.0379594 -0.0152202 -0.00615449
v -0.0369109 0.0306684 -0.00431643
v -0.04044 0.021631 -0.005458
v -0.036938 0.019777 -0.006006
v -0.036933 0.021428 0.04383
v -0.0389452 -0.0189043 0.0167026
v -0.036505 -0.040942 -0.001246
v -0.037164 -0.014565 0.000865
v -0.036498 -0.01804 -0.001628
v -0.036591 -0.0372637 -0.00143263
v -0.0424837 -0.026589 -0.00186588
v -0.036534 0.022175 -0.001656
v -0.039841 0.022749 -0.00183
v -0.040438 -0.016786 -0.001228
v -0.03967 0.022573 -0.001747
v -0.039802 0.022249 -0.001673
v -0.040411 0.021028 -0.001263
v -0.037119 0.0190321 0.000901566
v -0.0366386 -0.0176923 -0.0410821
v -0.0366019 -0.0221895 -0.0498896
v -0.0359001 -0.0158955 0.0097366
v -0.040983 0.02061 -0.013738
v -0.0385434 0.00725622 0.00593428
v -0.037133 -0.037792 -0.001952
v -0.041114 0.019654 -0.013341
v -0.0379194 0.019031 0.0437771
v -0.0459664 -0.000852212 -0.0460369
v -0.037275 -0.013885 0.003112
v -0.038156 -0.013819 -0.041088
v -0.038705 0.0186001 -0.00722655
v -0.038178 0.018206 -0.041153
v -0.0381493 0.00633414 0.024171
v -0.037594 -0.036035 -0.002047
v -0.037295 -0.037107 -0.002097
v -0.037477 -0.036465 -0.00221
v -0.037473 -0.014025 -0.007696
v -0.0399829 0.0231733 -0.0237577
v -0.0376867 -0.034766 -0.00435835
v -0.0408 -0.0145856 0.000507677
v -0.039651 -0.0147073 -0.0128345
v -0.0436656 -0.0226288 0.0122993
v -0.037926 -0.00178902 0.00489432
v -0.0400049 -0.030732 -0.00557255
v -0.039248 -0.01843 0.015256
v -0.0497332 0.0187263 0.0428947
v -0.039144 -0.018681 0.011374
v -0.0459828 0.00896699 -0.0409661
v -0.039339 -0.007026 0.035553
v -0.03955 -0.00234184 0.033791
v -0.038541 0.024729 -0.017234
v -0.038899 0.024594 -0.017174
v -0.039329 -0.018275 0.016023
v -0.0437551 -0.0213674 -0.0164982
v -0.038654 0.024596 -0.017262
v -0.038771 0.024479 -0.017278
v -0.041878 0.0213234 -0.001905
v -0.0442638 0.0232004 -0.0486079
v -0.0405477 -0.0189433 -0.0283173
v -0.040521 -0.0278392 -0.0120553
v -0.03936 -0.018358 0.016238
v -0.039396 -0.018396 0.016338
v -0.0398248 -0.0102363 0.0331775
v -0.0396043 -0.00607298 0.0346069
v -0.039474 -0.018427 0.016402
v -0.044215 -0.018269 0.015066
v -0.044273 -0.018209 0.015126
v -0.044319 -0.018006 0.015881
v -0.044172 -0.01802 0.015711
v -0.044181 -0.018029 0.015611
v -0.039883 -0.00951139 0.0328934
v -0.04003 0.022037 -0.001632
v -0.041403 0.022958 -0.024417
v -0.0434846 0.0180327 -0.0294021
v -0.0417223 0.0247864 -0.0139992
v -0.0483161 0.00948476 -0.049246
v -0.0401381 -0.00989618 0.0312542
v -0.0398649 -0.00229648 0.033212
v -0.040482 -0.00206 0.029831
v -0.044067 0.018471 -0.018958
v -0.0394919 -0.00651573 0.0343728
v -0.040629 -0.007274 0.028507
v -0.040484 -0.003694 0.029446
v -0.040249 -0.017489 -0.001527
v -0.0399914 -0.0184684 0.0194624
v -0.0403528 -0.0104435 0.0300773
v -0.0399334 -0.0182801 -0.00172495
v -0.040321 -0.017333 -0.001487
v -0.0405306 -0.00287798 0.0293295
v -0.040869 0.005107 0.02575
v -0.040306 0.022037 -0.001773
v -0.040379 -0.017171 -0.001436
v -0.0421037 0.018584 -0.0174188
v -0.0403867 -0.017395 -0.0015951
v -0.0451292 -0.0143503 0.012155
v -0.0408375 -0.00806201 0.0270616
v -0.041076 0.018929 0.008604
v -0.0434957 -0.0261758 -0.004972
v -0.0409904 -0.00329484 0.0263959
v -0.041634 0.02012 -0.005454
v -0.0421679 -0.0179255 -0.0251755
v -0.0406116 -0.00562709 0.0283044
v -0.0405621 -0.0167301 0.0120734
v -0.041281 -0.013898 0.011468
v -0.040608 -0.016856 -0.001485
v -0.0408718 -0.00664329 0.0273404
v -0.0408135 -0.0169068 -0.001699
v -0.040668 -0.016647 -0.00141
v -0.041521 0.018848 -0.001792
v -0.0410686 -0.0134856 0.00527255
v -0.0408242 -0.0141073 0.0258277
v -0.041035 0.007332 0.0239
v -0.0406766 -0.00207186 0.0248457
v -0.04098 0.020818 -0.013799
v -0.041071 0.020409 -0.013684
v -0.041157 0.020764 -0.013848
v -0.041543 -0.013633 -0.001714
v -0.041234 0.00714393 0.00615008
v -0.04156 0.020124 -0.013878
v -0.0412039 -0.0147393 0.0174167
v -0.0416602 7.27915e-05 0.000754733
v -0.0413849 0.0173893 0.00466292
v -0.041291 -0.016008 -0.005401
v -0.041319 0.019797 -0.013545
v -0.0408912 0.00144345 0.00327657
v -0.041207 -0.015691 -0.005568
v -0.0414207 0.0179415 -0.00695723
v -0.0411505 -0.0151046 -0.00593996
v -0.041261 -0.015415 -0.005642
v -0.0416227 -0.0133892 -0.00550432
v -0.041385 0.019982 -0.013706
v -0.041413 0.01986 -0.013683
v -0.041358 0.019811 -0.013592
v -0.0414562 -0.0135348 -0.00912034
v -0.0429594 -0.0141498 -0.0284141
v -0.041822 0.018216 -0.018238
v -0.0416413 0.019098 -0.0136495
v -0.041461 0.020651 -0.028182
v -0.041447 0.020739 -0.028044
v -0.041466 0.02082 -0.027981
v -0.0418775 0.0184777 -0.0281025
v -0.041491 0.020536 -0.028305
v -0.041479 0.02075 -0.028148
v -0.041497 0.020646 -0.028276
v -0.041538 0.020505 -0.028396
v -0.0418743 0.0215785 -0.0286392
v -0.0413382 0.0204877 -0.0271916
v -0.0439243 -0.00297217 -0.00116996
v -0.0492066 -0.00331396 -0.0376105
v -0.041651 0.001617 -0.005775
v -0.0418338 0.0141447 -0.0136965
v -0.0416708 0.00853376 -0.00555547
v -0.041645 0.00784 -0.006632
v -0.041693 0.008078 -0.005838
v -0.041695 0.007979 -0.00596
v -0.042844 0.00798798 -0.013619
v -0.04173 0.018501 -0.017675
v -0.041792 0.007743 -0.006323
v -0.041767 0.007773 -0.006407
v -0.041794 0.018478 -0.017516
v -0.041783 0.01839 -0.017725
v -0.041739 0.007816 -0.006563
v -0.041859 0.007738 -0.006618
v -0.0455672 -0.0116044 0.0136293
v -0.041732 -0.014044 -0.01872
v -0.041814 -0.013202 -0.017183
v -0.0419808 -0.0143951 -0.0179298
v -0.041968 0.01827 -0.01754
v -0.0411366 0.00846622 -0.0228106
v -0.041988 -0.013266 -0.027659
v -0.041848 0.007784 -0.006047
v -0.0420658 0.00766534 -0.00665204
v -0.0418552 0.00804106 -0.00566404
v -0.0419691 0.00767114 -0.00627227
v -0.041945 0.007677 -0.006494
v -0.0432243 0.0135928 -0.0174223
v -0.0420265 0.008021 -0.0056365
v -0.0420065 0.0083165 -0.0054705
v -0.042033 0.007654 -0.006403
v -0.042 0.007805 -0.006921
v -0.042047 0.00785 -0.007
v -0.04207 0.00788 -0.00577
v -0.042072 0.008195 -0.005513
v -0.042014 0.007726 -0.006028
v -0.042094 0.007906 -0.007073
v -0.042074 0.007661 -0.006251
v -0.04432 0.0204756 -0.0038036
v -0.0459883 0.00308776 -0.00198596
v -0.042087 0.007768 -0.006878
v -0.0468248 0.00966462 -0.00406045
v -0.045803 0.007565 -0.005742
v -0.045641 0.00754 -0.006725
v -0.0454733 0.00101266 -0.00517896
v -0.0437321 -0.0221053 -0.0144067
v -0.0420568 -0.0143172 -0.0269678
v -0.045254 0.0202611 -0.0153379
v -0.043823 0.018167 -0.018457
v -0.043825 0.018217 -0.018545
v -0.045731 0.007376 -0.014031
v -0.0460855 0.0144152 -0.0142621
v -0.044994 -0.0146213 -0.0179659
v -0.0450813 -0.013109 -0.0167527
v -0.0447352 -0.0181828 -0.0493899
v -0.0439963 0.0176778 -0.021459
v -0.0445857 -0.0194819 -0.0143118
v -0.0445977 -0.0229449 -0.00346133
v -0.044569 -0.0176528 -0.0196572
v -0.043986 0.018134 -0.018449
v -0.044466 -0.0184308 0.0147824
v -0.046539 -0.00257511 -0.0297851
v -0.044256 -0.018009 0.015794
v -0.04438 -0.01809 0.015262
v -0.044238 -0.018085 0.015361
v -0.044318 -0.018063 0.0161815
v -0.0443528 -0.0179979 0.0155867
v -0.044328 -0.018149 0.015191
v -0.044658 -0.017738 0.015845
v -0.046039 0.012688 -0.016966
v -0.0455543 0.019108 -0.0376075
v -0.04582 -0.002672 -0.000358
v -0.0451 -0.014261 -0.01689
v -0.0455703 -0.0130053 0.040384
v -0.0486092 -0.0139392 0.038339
v -0.0488198 0.0183522 0.0379149
v -0.0464517 0.0159483 0.0400012
v -0.0466532 0.00982067 -0.015934
v -0.0461413 0.0071869 -0.00892119
v -0.046615 -0.011857 0.038787
v -0.0459129 0.00815654 -0.013553
v -0.0482005 -0.00734032 -0.0482192
v -0.048235 0.016098 0.038706
v -0.048434 0.016309 0.038433
v -0.048493 -0.011917 0.038503
v -0.04818 -0.011732 0.038675
v -0.048165 -0.011646 0.038924
v -0.048264 -0.0117136 0.0387068
f 202 1 2
f 2 34 202
f 18 2 1
f 3 4 5
f 6 16 10
f 12 9 10
f 7 10 16
f 11 34 2
f 7 12 10
f 9 8 13
f 14 21 6
f 21 16 6
f 23 15 13
f 12 8 9
f 8 23 13
f 17 15 23
f 21 259 16
f 17 19 15
f 12 327 8
f 317 23 8
f 16 304 7
f 20 19 17
f 19 22 15
f 24 25 26
f 19 28 22
f 29 28 19
f 12 7 327
f 317 27 23
f 31 34 11
f 32 21 14
f 20 29 19
f 33 30 259
f 29 31 11
f 28 29 11
f 20 31 29
f 32 36 21
f 20 34 31
f 35 36 32
f 37 36 35
f 37 41 36
f 42 39 801
f 42 43 39
f 44 49 42
f 50 45 828
f 52 49 44
f 37 55 41
f 52 54 49
f 56 46 45
f 64 52 44
f 64 54 52
f 55 37 51
f 55 45 50
f 55 56 45
f 56 76 46
f 57 59 48
f 59 61 65
f 44 63 64
f 63 62 64
f 53 57 58
f 60 53 58
f 62 66 64
f 57 67 59
f 80 65 61
f 59 67 61
f 47 68 53
f 51 69 55
f 76 47 46
f 71 62 63
f 76 72 47
f 80 61 70
f 61 67 70
f 47 72 68
f 53 73 57
f 68 73 53
f 57 73 67
f 74 75 56
f 75 76 56
f 55 77 56
f 77 74 56
f 80 82 65
f 55 69 77
f 70 78 80
f 79 62 71
f 79 66 62
f 83 71 63
f 81 80 78
f 83 82 80
f 82 83 63
f 81 83 80
f 84 71 83
f 85 83 81
f 79 86 66
f 71 86 79
f 84 86 71
f 85 84 83
f 87 88 90
f 88 89 90
f 92 89 88
f 91 92 88
f 92 91 89
f 88 87 90
f 88 90 89
f 91 88 89
f 97 96 93
f 94 95 93
f 95 94 93
f 94 97 93
f 97 93 96
f 98 94 93
f 98 93 97
f 98 97 94
f 101 100 99
f 103 101 99
f 102 99 100
f 102 103 99
f 103 102 100
f 104 103 100
f 103 100 101
f 104 100 103
f 106 110 105
f 107 108 105
f 106 105 110
f 108 112 105
f 109 106 110
f 111 109 110
f 109 110 106
f 112 107 105
f 111 113 109
f 113 110 109
f 108 107 112
f 113 111 110
f 114 111 113
f 117 137 112
f 137 107 112
f 111 114 113
f 118 117 112
f 107 118 112
f 137 118 107
f 118 116 117
f 121 117 116
f 149 119 115
f 146 120 137
f 120 149 137
f 149 125 137
f 125 118 137
f 131 137 117
f 121 122 117
f 117 122 131
f 116 128 121
f 124 118 125
f 118 126 116
f 128 122 121
f 127 128 116
f 134 111 114
f 126 127 116
f 134 123 111
f 129 122 128
f 129 131 122
f 127 126 118
f 131 139 137
f 124 136 118
f 130 131 129
f 136 132 118
f 132 127 118
f 133 130 129
f 133 129 128
f 127 133 128
f 133 131 130
f 133 139 131
f 134 114 111
f 144 146 137
f 136 127 132
f 137 111 123
f 144 137 123
f 138 142 124
f 125 138 124
f 141 136 124
f 145 119 115
f 119 149 115
f 140 141 124
f 141 127 136
f 111 137 134
f 137 139 134
f 127 139 133
f 144 135 139
f 134 143 123
f 143 144 123
f 135 134 139
f 142 140 124
f 141 142 127
f 140 142 141
f 135 143 134
f 119 145 115
f 142 148 127
f 149 138 125
f 146 144 127
f 120 146 127
f 144 139 127
f 148 120 127
f 119 157 145
f 147 135 144
f 149 142 138
f 148 149 120
f 148 142 149
f 155 148 149
f 155 149 148
f 153 154 150
f 151 153 150
f 154 151 150
f 153 151 154
f 143 135 147
f 144 143 147
f 152 158 155
f 157 119 145
f 155 151 148
f 151 152 148
f 143 152 151
f 155 143 151
f 156 155 148
f 156 152 155
f 158 143 155
f 157 156 148
f 152 157 148
f 152 156 157
f 158 152 143
f 159 160 161
f 162 160 159
f 160 159 161
f 226 163 164
f 240 226 164
f 165 166 164
f 166 240 164
f 167 165 164
f 163 168 164
f 226 239 163
f 239 169 163
f 170 167 164
f 168 170 164
f 173 167 170
f 168 173 170
f 169 201 163
f 171 172 168
f 176 171 168
f 172 238 168
f 238 173 168
f 163 176 168
f 201 200 163
f 200 174 163
f 174 176 163
f 175 171 176
f 1 179 178
f 182 187 206
f 183 184 185
f 174 199 176
f 186 199 174
f 223 181 221
f 241 223 221
f 187 205 206
f 223 269 181
f 237 189 172
f 189 238 172
f 171 190 172
f 190 237 172
f 191 190 171
f 175 191 171
f 303 175 176
f 192 303 176
f 222 192 176
f 174 193 176
f 193 222 176
f 200 194 174
f 194 256 174
f 256 193 174
f 213 177 182
f 206 213 182
f 195 196 197
f 181 198 221
f 198 234 221
f 234 180 221
f 202 179 1
f 269 188 181
f 199 174 176
f 177 187 182
f 179 247 178
f 177 253 187
f 201 203 200
f 253 409 187
f 204 205 187
f 409 204 187
f 205 207 206
f 209 207 205
f 234 194 180
f 208 209 205
f 188 229 181
f 212 221 180
f 194 212 180
f 229 198 181
f 203 210 200
f 207 232 206
f 262 221 212
f 251 217 207
f 219 251 207
f 225 1 178
f 242 177 213
f 250 213 206
f 203 262 212
f 211 209 208
f 246 203 212
f 214 225 178
f 204 208 205
f 204 215 208
f 215 211 208
f 209 216 207
f 218 216 209
f 211 218 209
f 216 219 207
f 220 207 217
f 232 250 206
f 186 174 199
f 256 222 193
f 224 218 211
f 215 224 211
f 166 227 240
f 227 228 240
f 228 165 240
f 228 227 166
f 165 227 166
f 165 228 227
f 229 233 198
f 207 220 232
f 165 167 240
f 235 191 231
f 236 237 190
f 238 236 190
f 189 237 236
f 238 237 236
f 237 238 189
f 191 235 190
f 175 231 191
f 235 238 190
f 231 243 235
f 210 194 200
f 235 173 238
f 243 231 175
f 279 217 251
f 188 248 229
f 241 221 262
f 242 245 177
f 194 246 212
f 279 220 217
f 202 247 179
f 203 194 210
f 249 201 169
f 220 250 232
f 374 251 219
f 230 226 240
f 18 1 225
f 249 388 201
f 417 225 214
f 8 222 256
f 254 226 258
f 269 223 241
f 535 269 241
f 265 272 239
f 255 404 178
f 404 214 178
f 247 255 178
f 254 239 226
f 173 235 280
f 235 243 280
f 243 16 280
f 243 175 16
f 272 252 239
f 244 233 229
f 167 261 240
f 261 230 240
f 230 258 226
f 417 18 225
f 259 21 280
f 16 259 280
f 239 260 169
f 327 222 8
f 203 394 262
f 175 304 16
f 254 263 239
f 258 230 261
f 256 317 8
f 309 248 188
f 428 254 258
f 266 428 258
f 246 194 203
f 17 198 233
f 194 23 256
f 234 23 194
f 17 23 234
f 198 17 234
f 267 256 23
f 268 264 280
f 21 268 280
f 239 263 265
f 270 244 229
f 248 270 229
f 261 266 258
f 252 260 239
f 262 535 241
f 271 270 248
f 257 317 256
f 169 388 249
f 263 254 272
f 273 272 265
f 274 275 265
f 275 273 265
f 276 275 274
f 276 273 275
f 270 277 244
f 273 263 272
f 263 274 265
f 275 263 273
f 263 276 274
f 263 275 276
f 202 322 247
f 167 278 261
f 201 394 203
f 21 281 268
f 282 508 250
f 233 20 17
f 465 242 213
f 345 282 250
f 404 255 242
f 283 213 250
f 593 18 417
f 27 317 23
f 317 267 23
f 220 345 250
f 175 303 304
f 278 449 261
f 284 188 269
f 508 283 250
f 302 285 286
f 216 288 219
f 289 290 286
f 285 289 286
f 302 291 287
f 292 302 286
f 290 292 286
f 285 293 289
f 341 294 295
f 21 296 281
f 296 297 281
f 30 356 259
f 297 298 281
f 298 268 281
f 293 299 289
f 298 300 268
f 300 264 268
f 293 290 289
f 301 280 264
f 300 301 264
f 303 350 304
f 307 173 280
f 602 305 280
f 305 365 280
f 365 306 280
f 306 307 280
f 301 602 280
f 293 308 290
f 413 292 290
f 320 413 290
f 403 287 291
f 308 320 290
f 310 302 287
f 302 311 285
f 312 310 287
f 313 312 287
f 319 312 313
f 339 311 302
f 338 339 302
f 310 338 302
f 311 308 285
f 415 248 309
f 299 293 285
f 308 299 285
f 321 253 177
f 299 308 293
f 260 252 272
f 254 260 272
f 312 314 310
f 319 314 312
f 312 315 314
f 315 310 314
f 316 315 314
f 315 316 310
f 319 316 314
f 271 291 302
f 316 338 310
f 260 422 169
f 311 320 308
f 321 316 319
f 323 321 319
f 449 266 261
f 288 374 219
f 415 271 248
f 341 349 294
f 319 313 323
f 422 388 169
f 403 313 287
f 413 302 292
f 202 339 322
f 339 337 322
f 283 325 213
f 404 395 214
f 395 417 214
f 313 321 323
f 326 382 307
f 177 318 316
f 318 338 316
f 7 387 327
f 401 247 322
f 328 329 330
f 329 331 330
f 335 332 330
f 332 333 330
f 331 334 330
f 334 335 330
f 333 328 330
f 321 177 316
f 336 321 313
f 339 414 311
f 472 401 322
f 414 324 311
f 245 318 177
f 327 192 222
f 340 449 278
f 337 472 322
f 342 278 167
f 342 343 278
f 343 344 278
f 344 340 278
f 277 233 244
f 271 277 270
f 267 257 256
f 324 346 311
f 535 425 269
f 382 342 167
f 346 320 311
f 347 295 294
f 338 426 339
f 356 33 259
f 413 271 302
f 284 309 188
f 400 260 254
f 348 426 338
f 192 327 387
f 382 173 307
f 383 201 388
f 364 341 295
f 465 404 242
f 7 351 387
f 347 484 295
f 345 220 279
f 353 329 328
f 413 277 271
f 354 382 326
f 365 466 306
f 306 359 307
f 307 359 326
f 360 361 326
f 362 326 361
f 360 326 359
f 355 354 326
f 357 359 306
f 362 363 326
f 363 362 361
f 357 360 359
f 415 291 271
f 355 361 360
f 355 362 361
f 355 363 362
f 355 326 363
f 30 33 356
f 384 354 355
f 247 377 255
f 377 242 255
f 368 350 7
f 304 368 7
f 333 367 328
f 352 349 341
f 357 355 360
f 438 353 328
f 350 351 7
f 350 368 304
f 365 369 466
f 408 369 365
f 372 370 376
f 345 373 282
f 373 366 282
f 366 371 282
f 366 373 345
f 375 374 288
f 413 233 277
f 401 377 247
f 358 415 309
f 173 382 167
f 346 378 320
f 379 484 294
f 484 347 294
f 450 494 339
f 257 267 317
f 378 380 320
f 381 366 373
f 192 350 303
f 385 379 294
f 349 385 294
f 352 385 349
f 324 380 346
f 192 387 350
f 452 348 338
f 426 450 339
f 357 384 355
f 405 339 202
f 390 391 346
f 391 378 346
f 321 392 253
f 380 390 346
f 392 409 253
f 367 438 328
f 381 366 345
f 381 371 366
f 475 245 242
f 377 475 242
f 390 378 391
f 380 391 390
f 380 378 391
f 393 449 340
f 245 338 318
f 494 472 337
f 380 324 320
f 306 454 357
f 403 336 313
f 420 372 376
f 429 388 422
f 324 396 320
f 343 399 344
f 399 340 344
f 245 452 338
f 339 494 337
f 393 343 342
f 402 370 372
f 393 344 343
f 393 399 344
f 393 340 399
f 350 387 351
f 398 406 382
f 406 342 382
f 466 407 306
f 434 410 342
f 410 411 342
f 411 393 342
f 36 296 21
f 406 434 342
f 291 412 403
f 396 413 320
f 202 414 405
f 508 282 371
f 345 371 381
f 218 529 216
f 413 20 233
f 416 370 402
f 354 398 382
f 321 409 392
f 405 414 339
f 336 409 321
f 418 419 357
f 419 384 357
f 454 418 357
f 414 396 324
f 325 514 213
f 421 376 389
f 376 421 389
f 34 414 202
f 414 34 396
f 422 260 400
f 364 574 341
f 645 364 295
f 555 645 295
f 484 555 295
f 354 384 398
f 284 358 309
f 254 423 400
f 345 424 371
f 288 216 529
f 412 336 403
f 415 412 291
f 623 397 466
f 596 623 408
f 623 369 408
f 369 623 466
f 409 215 204
f 427 398 384
f 34 413 396
f 213 514 465
f 386 554 341
f 428 423 254
f 407 454 306
f 506 269 425
f 431 427 384
f 431 398 427
f 358 430 415
f 431 406 398
f 409 218 215
f 432 431 427
f 384 432 431
f 432 419 431
f 419 406 431
f 419 432 384
f 554 352 341
f 424 508 371
f 452 451 348
f 419 434 406
f 474 426 348
f 505 474 348
f 376 370 420
f 451 435 348
f 218 224 215
f 411 410 434
f 435 436 348
f 429 422 400
f 372 433 402
f 419 410 434
f 436 437 348
f 419 411 410
f 420 464 372
f 464 433 372
f 437 439 348
f 435 437 436
f 439 505 348
f 440 411 419
f 440 441 411
f 441 440 411
f 440 393 411
f 451 436 435
f 436 439 437
f 251 493 279
f 429 383 388
f 419 441 440
f 451 439 436
f 441 393 440
f 433 442 402
f 442 416 402
f 454 443 418
f 419 444 441
f 418 445 419
f 445 444 419
f 444 446 441
f 418 448 445
f 418 444 445
f 448 446 444
f 446 447 441
f 448 444 418
f 498 395 404
f 449 393 441
f 447 449 441
f 443 448 418
f 453 446 448
f 443 453 448
f 451 505 439
f 455 443 454
f 456 455 454
f 458 443 455
f 550 383 429
f 458 457 455
f 456 458 455
f 457 443 458
f 279 533 345
f 453 447 446
f 456 457 458
f 456 443 457
f 370 416 420
f 416 459 420
f 460 201 383
f 443 461 453
f 456 461 443
f 459 464 420
f 478 505 451
f 462 463 442
f 463 510 442
f 510 416 442
f 476 464 459
f 554 385 352
f 336 415 430
f 374 493 251
f 336 412 415
f 498 404 465
f 34 20 413
f 478 451 452
f 467 476 459
f 416 510 459
f 433 462 442
f 407 456 454
f 510 463 459
f 463 559 459
f 559 503 459
f 426 494 450
f 503 470 459
f 470 471 459
f 471 467 459
f 716 535 262
f 394 716 262
f 502 478 452
f 477 473 476
f 467 477 476
f 467 479 477
f 479 473 477
f 479 480 477
f 476 482 464
f 483 433 464
f 482 483 464
f 467 480 479
f 480 473 479
f 485 486 461
f 486 487 461
f 460 394 201
f 482 476 473
f 471 480 467
f 480 482 473
f 487 453 461
f 471 470 480
f 488 489 461
f 489 485 461
f 489 486 485
f 485 487 486
f 471 482 480
f 489 487 485
f 488 487 489
f 487 490 453
f 341 501 386
f 470 482 471
f 456 488 461
f 503 482 470
f 488 491 487
f 491 490 487
f 492 426 474
f 452 531 502
f 490 447 453
f 495 491 488
f 722 358 284
f 492 494 426
f 541 279 493
f 456 497 488
f 490 496 447
f 245 531 452
f 526 555 484
f 497 495 488
f 495 516 491
f 499 496 490
f 600 408 365
f 409 500 218
f 499 447 496
f 491 499 490
f 456 495 497
f 336 500 409
f 499 547 449
f 499 449 447
f 407 516 456
f 514 245 475
f 516 495 456
f 514 475 465
f 377 498 465
f 475 377 465
f 377 401 498
f 541 533 279
f 491 547 499
f 585 375 288
f 428 266 364
f 500 529 218
f 494 481 472
f 492 481 494
f 333 438 367
f 574 501 341
f 504 492 474
f 503 483 482
f 502 505 478
f 507 492 504
f 505 504 474
f 509 395 498
f 266 574 364
f 506 284 269
f 511 523 502
f 523 505 502
f 533 512 345
f 512 424 345
f 395 513 417
f 483 462 433
f 510 523 511
f 483 515 462
f 531 510 502
f 507 481 492
f 502 416 511
f 416 510 511
f 401 472 481
f 510 416 502
f 506 425 535
f 519 531 245
f 513 593 417
f 400 518 429
f 645 428 364
f 520 518 400
f 521 587 504
f 587 507 504
f 522 266 449
f 512 508 424
f 423 520 400
f 305 600 365
f 515 463 462
f 542 556 408
f 552 336 430
f 524 525 407
f 525 517 407
f 517 516 407
f 526 484 379
f 501 554 386
f 556 596 408
f 540 512 533
f 518 550 429
f 527 493 374
f 505 523 504
f 530 460 383
f 507 587 481
f 540 508 512
f 521 523 510
f 532 521 510
f 559 548 503
f 548 483 503
f 528 385 554
f 536 288 529
f 506 722 284
f 514 534 245
f 500 565 529
f 540 537 508
f 531 532 510
f 537 283 508
f 538 514 325
f 283 538 325
f 509 513 395
f 584 469 468
f 552 500 336
f 539 358 722
f 527 541 493
f 600 542 408
f 539 430 358
f 565 500 552
f 565 536 529
f 521 504 523
f 401 509 498
f 543 463 515
f 539 657 430
f 657 552 430
f 525 544 517
f 491 571 547
f 571 607 547
f 544 560 517
f 560 545 517
f 545 546 517
f 546 571 517
f 537 538 283
f 571 516 517
f 548 549 483
f 516 571 491
f 549 515 483
f 469 584 468
f 547 522 449
f 543 559 463
f 552 641 565
f 555 526 379
f 551 537 540
f 385 595 379
f 538 598 514
f 557 544 525
f 524 557 525
f 558 557 525
f 561 560 544
f 524 558 557
f 557 560 544
f 561 560 557
f 558 561 557
f 562 546 545
f 541 563 533
f 563 540 533
f 562 571 546
f 564 560 561
f 560 546 545
f 566 567 513
f 560 562 546
f 558 564 561
f 524 568 558
f 568 564 558
f 566 513 509
f 639 569 375
f 601 383 550
f 570 562 560
f 570 571 562
f 564 570 560
f 576 571 570
f 564 571 570
f 564 576 571
f 513 567 593
f 407 572 524
f 568 573 564
f 575 573 568
f 572 568 524
f 572 573 568
f 641 714 565
f 714 579 565
f 575 564 573
f 572 577 573
f 577 575 573
f 266 522 574
f 578 576 564
f 575 578 564
f 578 571 576
f 577 578 575
f 578 607 571
f 657 553 552
f 572 578 577
f 580 548 559
f 374 569 527
f 543 580 559
f 581 541 527
f 569 581 527
f 581 563 541
f 582 551 540
f 397 583 466
f 582 586 551
f 518 601 550
f 586 537 551
f 638 506 535
f 586 737 537
f 608 394 460
f 608 716 394
f 515 549 543
f 549 580 543
f 536 585 288
f 532 587 521
f 588 539 722
f 353 438 333
f 578 589 607
f 590 530 383
f 565 579 536
f 548 591 549
f 567 592 593
f 598 534 514
f 601 590 383
f 716 668 535
f 501 594 554
f 615 555 379
f 594 528 554
f 375 569 374
f 743 532 531
f 663 743 531
f 638 722 506
f 583 407 466
f 594 385 528
f 407 660 572
f 572 589 578
f 597 592 567
f 566 597 567
f 598 538 537
f 737 598 537
f 509 597 566
f 599 585 536
f 549 591 580
f 520 601 518
f 600 556 542
f 423 601 520
f 305 602 600
f 603 534 598
f 599 375 585
f 639 599 536
f 332 460 333
f 604 460 530
f 460 353 333
f 604 353 460
f 580 605 548
f 606 639 536
f 401 597 509
f 630 584 469
f 579 606 536
f 589 658 607
f 590 604 530
f 605 591 548
f 332 608 460
f 617 596 556
f 590 609 604
f 609 353 604
f 610 423 428
f 645 610 428
f 611 595 385
f 612 611 385
f 817 612 385
f 831 817 385
f 734 613 385
f 613 831 385
f 594 734 385
f 611 379 595
f 611 612 379
f 501 661 594
f 614 661 501
f 522 616 574
f 616 501 574
f 615 645 555
f 612 615 379
f 680 617 600
f 602 680 600
f 583 660 407
f 618 660 583
f 619 620 596
f 397 621 583
f 622 621 397
f 624 622 397
f 682 680 602
f 620 623 596
f 619 623 620
f 301 682 602
f 626 469 625
f 627 628 625
f 584 625 469
f 629 627 625
f 584 629 625
f 630 629 584
f 617 556 600
f 631 589 572
f 660 631 572
f 626 630 469
f 632 618 583
f 621 632 583
f 588 667 539
f 722 633 588
f 663 531 519
f 563 582 540
f 635 634 601
f 636 605 580
f 591 636 580
f 637 658 589
f 36 829 296
f 829 297 296
f 634 590 601
f 539 667 657
f 640 630 626
f 625 640 626
f 553 641 552
f 245 534 519
f 639 375 599
f 642 637 589
f 642 643 637
f 643 644 637
f 730 501 616
f 522 718 616
f 547 718 522
f 633 646 588
f 334 329 353
f 606 579 639
f 579 647 639
f 648 658 637
f 589 649 642
f 650 648 637
f 651 650 637
f 652 649 589
f 644 651 637
f 651 648 650
f 631 652 589
f 650 658 648
f 649 643 642
f 644 650 651
f 652 642 649
f 644 658 650
f 609 334 353
f 642 653 643
f 652 653 642
f 631 653 652
f 653 654 643
f 654 644 643
f 654 658 644
f 423 635 601
f 660 655 631
f 631 656 653
f 653 656 654
f 653 658 654
f 656 658 653
f 631 658 656
f 607 659 547
f 617 619 596
f 730 614 501
f 624 397 623
f 619 624 623
f 628 640 625
f 680 619 617
f 534 663 519
f 587 728 481
f 728 401 481
f 605 687 591
f 662 615 612
f 664 553 657
f 658 659 607
f 714 665 579
f 547 732 718
f 666 716 608
f 332 666 608
f 715 334 609
f 590 332 609
f 687 636 591
f 668 638 535
f 791 332 590
f 631 655 658
f 332 715 609
f 791 670 332
f 670 666 332
f 669 659 658
f 660 671 655
f 672 715 332
f 335 672 332
f 668 722 638
f 673 674 582
f 635 590 634
f 674 675 582
f 675 676 582
f 676 586 582
f 588 646 667
f 646 657 667
f 677 605 636
f 687 678 636
f 678 677 636
f 661 734 594
f 673 582 563
f 655 669 658
f 659 732 547
f 664 641 553
f 664 679 641
f 681 660 618
f 632 683 618
f 683 681 618
f 684 683 632
f 621 683 632
f 684 683 621
f 684 681 683
f 684 685 681
f 621 685 684
f 685 660 681
f 685 686 681
f 720 687 605
f 677 720 605
f 621 686 685
f 686 660 685
f 688 640 628
f 671 660 686
f 621 671 686
f 689 640 688
f 691 688 628
f 692 691 628
f 693 692 628
f 627 693 628
f 701 728 587
f 693 691 692
f 619 827 624
f 692 688 691
f 665 647 579
f 627 692 693
f 694 688 692
f 627 694 692
f 629 695 627
f 695 688 694
f 696 689 688
f 695 696 688
f 694 696 695
f 695 694 627
f 697 621 622
f 698 697 622
f 699 698 622
f 700 689 696
f 695 700 696
f 698 699 697
f 646 664 657
f 621 697 671
f 697 698 671
f 702 671 698
f 699 702 698
f 622 702 699
f 624 702 622
f 682 619 680
f 827 702 624
f 827 619 682
f 301 827 682
f 703 893 695
f 893 700 695
f 629 703 695
f 678 663 677
f 794 791 590
f 730 661 614
f 635 794 590
f 716 704 668
f 646 679 664
f 703 629 630
f 676 675 674
f 673 675 674
f 678 705 663
f 640 703 630
f 586 676 675
f 673 586 675
f 689 703 640
f 706 669 655
f 708 706 655
f 39 40 690
f 707 708 671
f 708 655 671
f 702 707 671
f 709 730 616
f 615 710 645
f 710 739 645
f 739 610 645
f 740 423 610
f 38 39 690
f 745 635 423
f 647 569 639
f 669 711 659
f 711 712 659
f 712 713 659
f 713 732 659
f 758 678 687
f 581 714 563
f 737 673 563
f 714 737 563
f 673 737 586
f 534 741 663
f 786 401 728
f 532 701 587
f 719 711 669
f 736 719 669
f 706 736 669
f 721 743 663
f 705 721 663
f 722 1009 633
f 711 712 719
f 39 38 690
f 707 724 708
f 736 711 719
f 736 712 711
f 725 713 712
f 726 725 712
f 569 647 581
f 647 714 581
f 736 726 712
f 726 713 725
f 641 727 714
f 729 732 713
f 710 615 662
f 726 729 713
f 726 732 729
f 647 665 714
f 726 731 732
f 708 736 706
f 735 731 726
f 723 1009 722
f 727 737 714
f 736 735 726
f 795 39 690
f 679 790 641
f 720 758 687
f 721 677 663
f 708 735 736
f 721 720 677
f 738 722 668
f 732 871 718
f 771 794 635
f 730 734 661
f 733 710 612
f 710 662 612
f 741 742 532
f 742 786 532
f 633 1009 646
f 743 721 663
f 701 532 728
f 741 743 663
f 532 786 728
f 741 532 743
f 745 771 635
f 744 790 679
f 646 744 679
f 746 708 724
f 747 746 724
f 335 715 672
f 748 747 724
f 749 750 747
f 750 746 747
f 751 747 748
f 751 749 747
f 749 751 748
f 749 750 751
f 724 751 748
f 724 750 751
f 724 752 750
f 752 746 750
f 746 735 708
f 401 592 597
f 752 735 746
f 718 610 616
f 710 616 739
f 616 610 739
f 871 610 718
f 871 740 610
f 735 753 731
f 641 737 727
f 707 752 724
f 754 735 752
f 768 753 735
f 710 709 616
f 753 768 735
f 817 733 612
f 758 705 678
f 765 735 754
f 707 754 752
f 755 756 731
f 756 757 731
f 757 732 731
f 735 768 753
f 598 534 603
f 768 735 765
f 790 737 641
f 775 717 701
f 704 738 668
f 811 716 666
f 716 738 704
f 759 765 754
f 754 760 761
f 760 762 761
f 763 768 765
f 760 764 761
f 764 754 761
f 764 759 754
f 754 762 760
f 709 734 730
f 762 764 760
f 765 766 759
f 764 765 759
f 707 767 754
f 767 762 754
f 764 766 765
f 770 763 765
f 772 766 764
f 767 764 762
f 721 773 720
f 772 765 766
f 774 770 765
f 40 795 690
f 717 775 701
f 774 763 770
f 776 777 764
f 767 776 764
f 778 774 770
f 772 774 765
f 777 772 764
f 779 774 772
f 774 778 763
f 780 768 763
f 781 782 772
f 777 781 772
f 778 780 763
f 782 783 772
f 779 778 774
f 783 779 772
f 779 780 778
f 773 758 720
f 783 780 779
f 737 534 598
f 705 773 721
f 784 753 768
f 780 784 768
f 705 758 773
f 689 700 703
f 820 723 722
f 757 769 732
f 737 741 534
f 785 755 731
f 740 745 423
f 786 592 401
f 753 787 731
f 787 788 731
f 753 784 787
f 755 785 756
f 786 795 40
f 783 789 780
f 755 757 756
f 785 757 755
f 788 785 731
f 788 769 785
f 769 757 785
f 789 784 780
f 784 788 787
f 790 741 737
f 786 40 592
f 1009 808 646
f 740 771 745
f 41 829 36
f 334 715 335
f 744 815 790
f 810 741 790
f 796 613 734
f 811 738 716
f 815 810 790
f 797 866 793
f 866 792 793
f 740 794 771
f 646 808 744
f 777 781 782
f 798 783 782
f 776 798 782
f 781 776 782
f 777 776 781
f 799 783 798
f 776 800 777
f 800 776 777
f 801 39 795
f 786 801 795
f 802 799 798
f 776 802 798
f 789 783 799
f 798 789 799
f 802 789 798
f 776 803 802
f 803 789 802
f 738 820 722
f 804 776 767
f 805 803 802
f 804 803 776
f 804 805 803
f 804 776 805
f 805 789 803
f 776 804 805
f 806 797 793
f 804 789 805
f 792 807 793
f 788 832 769
f 707 784 767
f 827 707 702
f 868 784 707
f 827 868 707
f 809 703 792
f 893 809 792
f 910 893 792
f 784 804 767
f 784 789 804
f 46 792 703
f 700 46 703
f 809 893 703
f 46 807 792
f 814 801 786
f 810 742 741
f 742 814 786
f 709 796 734
f 817 710 733
f 44 42 801
f 810 812 742
f 812 813 742
f 813 814 742
f 45 46 700
f 893 45 700
f 832 816 769
f 39 43 40
f 814 44 801
f 817 833 710
f 740 821 794
f 740 852 821
f 873 48 822
f 807 47 793
f 47 806 793
f 873 825 824
f 825 873 824
f 867 868 827
f 825 48 873
f 331 329 334
f 740 823 852
f 769 871 732
f 821 791 794
f 831 818 817
f 826 744 808
f 818 833 817
f 819 796 709
f 784 862 788
f 1009 826 808
f 45 828 830
f 796 831 613
f 828 45 830
f 888 828 45
f 812 810 815
f 710 834 709
f 48 835 822
f 835 873 822
f 832 836 816
f 836 837 816
f 837 838 816
f 838 839 816
f 839 840 816
f 826 815 744
f 46 47 807
f 816 871 769
f 842 947 666
f 947 811 666
f 670 842 666
f 840 871 816
f 862 832 788
f 300 843 301
f 298 843 300
f 844 784 868
f 843 827 301
f 740 921 823
f 866 910 792
f 297 843 298
f 834 819 709
f 834 710 833
f 845 812 815
f 841 845 815
f 939 821 852
f 844 862 784
f 41 297 829
f 896 827 843
f 896 867 827
f 846 871 840
f 847 836 832
f 838 837 839
f 838 840 839
f 836 840 837
f 888 50 828
f 837 840 838
f 791 1008 670
f 826 841 815
f 848 846 840
f 849 848 840
f 851 852 823
f 925 851 823
f 921 925 823
f 850 847 832
f 832 844 850
f 862 844 832
f 853 852 851
f 925 853 851
f 854 855 670
f 856 855 854
f 856 981 855
f 981 980 855
f 980 670 855
f 858 857 825
f 859 866 797
f 922 859 797
f 806 922 797
f 47 922 806
f 857 48 825
f 860 849 848
f 840 860 849
f 849 861 848
f 861 846 848
f 836 860 840
f 819 831 796
f 831 834 818
f 834 833 818
f 834 831 819
f 860 861 849
f 1009 841 826
f 836 861 860
f 1008 854 670
f 895 861 836
f 863 864 813
f 864 814 813
f 865 813 812
f 821 939 791
f 297 896 843
f 845 865 812
f 864 63 814
f 869 863 865
f 845 869 865
f 48 59 835
f 870 738 811
f 863 813 865
f 911 859 922
f 45 872 888
f 723 1191 1009
f 670 980 842
f 874 846 861
f 901 875 876
f 876 877 901
f 874 878 846
f 878 871 846
f 879 875 901
f 877 847 901
f 875 880 876
f 881 876 880
f 875 881 880
f 875 882 881
f 861 883 874
f 875 884 882
f 885 886 884
f 875 886 884
f 875 885 886
f 887 867 896
f 883 878 874
f 889 888 872
f 902 50 888
f 890 896 297
f 41 890 297
f 55 891 41
f 891 890 41
f 45 892 872
f 893 892 45
f 875 894 885
f 861 878 883
f 886 895 884
f 885 895 886
f 895 877 876
f 895 876 880
f 882 895 880
f 881 882 880
f 1034 889 872
f 875 897 894
f 884 895 882
f 898 899 897
f 898 894 897
f 875 898 897
f 899 900 898
f 900 899 898
f 875 899 898
f 902 888 891
f 55 902 891
f 888 889 891
f 875 900 899
f 894 895 885
f 899 894 898
f 875 903 900
f 900 894 899
f 905 906 903
f 875 905 903
f 875 871 878
f 875 906 905
f 900 878 861
f 878 905 906
f 875 878 906
f 905 900 903
f 878 900 905
f 895 900 861
f 900 895 894
f 814 63 44
f 889 907 891
f 907 890 891
f 1034 907 889
f 908 892 893
f 909 908 893
f 910 909 893
f 857 918 48
f 65 82 919
f 947 870 811
f 836 877 895
f 912 913 915
f 916 912 915
f 916 914 912
f 921 934 925
f 917 918 857
f 935 904 919
f 47 53 922
f 53 937 922
f 904 967 919
f 873 858 825
f 57 48 918
f 967 65 919
f 1010 915 913
f 923 910 866
f 857 925 924
f 934 1042 925
f 926 917 857
f 927 926 857
f 1042 1195 925
f 928 927 857
f 1010 929 915
f 740 920 921
f 944 912 914
f 857 854 925
f 856 854 857
f 82 864 919
f 864 935 919
f 858 1026 857
f 930 853 925
f 1008 925 854
f 857 981 856
f 868 965 844
f 931 945 871
f 963 875 879
f 82 63 864
f 920 934 921
f 932 857 924
f 863 935 864
f 1089 930 925
f 847 936 901
f 929 916 915
f 859 923 866
f 871 920 740
f 925 1008 924
f 981 857 932
f 875 963 871
f 1195 1089 925
f 1026 928 857
f 938 933 871
f 965 1073 844
f 924 941 946
f 57 932 924
f 946 57 924
f 57 918 932
f 963 938 871
f 933 931 871
f 820 1191 723
f 965 868 867
f 920 943 940
f 1008 1029 924
f 1029 941 924
f 940 934 920
f 859 910 923
f 949 931 950
f 951 984 920
f 984 943 920
f 950 938 963
f 873 978 858
f 931 952 950
f 953 954 952
f 931 953 952
f 955 954 953
f 58 57 946
f 929 956 916
f 938 950 952
f 953 938 952
f 954 938 953
f 931 957 953
f 960 931 949
f 958 959 957
f 931 958 957
f 933 959 958
f 931 933 958
f 959 933 955
f 957 955 953
f 958 955 957
f 944 913 912
f 959 955 958
f 955 938 954
f 938 955 933
f 961 962 946
f 962 58 946
f 53 60 937
f 964 931 960
f 836 847 877
f 60 913 937
f 1010 931 964
f 956 914 916
f 1021 944 914
f 956 1021 914
f 977 1010 964
f 913 60 1010
f 60 931 1010
f 50 902 55
f 945 920 871
f 966 981 932
f 918 966 932
f 917 1184 918
f 942 937 913
f 967 59 65
f 984 1032 943
f 1032 948 943
f 896 968 887
f 943 934 940
f 968 965 867
f 835 978 873
f 968 969 887
f 887 968 867
f 869 845 841
f 859 909 910
f 971 979 859
f 942 971 859
f 1182 941 1029
f 1063 972 966
f 918 1063 966
f 791 976 1008
f 970 1073 965
f 949 977 964
f 968 970 965
f 960 949 964
f 1073 850 844
f 911 942 859
f 60 945 931
f 946 1086 961
f 738 1191 820
f 975 974 973
f 859 979 909
f 870 1191 738
f 980 973 974
f 937 911 922
f 983 975 973
f 1086 962 961
f 853 1047 852
f 985 991 58
f 962 985 58
f 986 985 962
f 835 59 973
f 59 983 973
f 967 1207 59
f 1207 983 59
f 980 981 973
f 987 1007 986
f 1007 985 986
f 988 989 985
f 990 986 962
f 1086 990 962
f 992 991 985
f 989 992 985
f 982 951 920
f 1016 947 842
f 1134 835 973
f 896 969 968
f 990 987 986
f 1007 993 985
f 1019 988 985
f 993 1019 985
f 979 994 909
f 939 976 791
f 1134 978 835
f 969 970 968
f 1047 939 852
f 1027 984 951
f 982 1027 951
f 995 879 901
f 935 967 904
f 920 996 982
f 1007 987 945
f 60 1007 945
f 987 996 945
f 996 920 945
f 991 60 58
f 990 997 987
f 1007 60 991
f 1000 999 998
f 1075 1000 998
f 991 1002 1001
f 1001 1007 991
f 975 842 974
f 842 980 974
f 987 998 999
f 1003 1075 998
f 1002 1004 1001
f 1004 1005 1001
f 1005 1006 1001
f 996 987 999
f 1006 1007 1001
f 987 1003 998
f 997 1028 987
f 1028 1003 987
f 1073 847 850
f 1009 869 841
f 982 996 999
f 907 896 890
f 892 1034 872
f 908 1015 892
f 1015 1034 892
f 972 1011 966
f 1010 956 929
f 1012 913 944
f 1013 1027 982
f 1021 1012 944
f 1110 942 913
f 1011 1014 966
f 1015 909 994
f 1101 1021 956
f 975 1016 842
f 1015 908 994
f 896 970 969
f 979 1015 994
f 1010 1017 956
f 1017 1018 956
f 966 1019 1012
f 1019 1007 1012
f 1007 913 1012
f 1020 966 1012
f 1018 1031 956
f 1031 1101 956
f 1022 1023 982
f 1023 1013 982
f 1023 1024 1013
f 1020 981 966
f 937 942 911
f 999 1022 982
f 990 1025 997
f 1023 1027 1013
f 1007 1019 993
f 1116 1025 990
f 1026 858 978
f 1024 1022 1027
f 1022 1000 1027
f 977 1098 1010
f 1015 908 909
f 950 1091 949
f 1098 1017 1010
f 1007 1110 913
f 1025 1017 997
f 1017 1028 997
f 1025 1018 1017
f 1098 1028 1017
f 1024 1023 1022
f 1024 1027 1023
f 1021 1106 1012
f 1106 1113 1012
f 1018 1012 1031
f 1012 1113 1031
f 1018 1020 1012
f 1014 1125 966
f 1116 1122 1025
f 1000 1022 999
f 1008 1018 1029
f 1047 976 939
f 1029 1018 1025
f 1122 1029 1025
f 966 1115 1019
f 1125 1115 966
f 1036 973 981
f 1099 1073 970
f 930 1047 853
f 1027 1032 984
f 963 1030 950
f 1020 1036 981
f 869 935 863
f 1000 1032 1027
f 976 1018 1008
f 948 934 943
f 948 1042 934
f 1210 970 896
f 907 1210 896
f 979 1034 1015
f 949 1035 977
f 1213 1034 979
f 976 1020 1018
f 976 1036 1020
f 1037 1051 970
f 979 1038 970
f 1038 1037 970
f 1051 1074 970
f 1074 1099 970
f 1213 979 970
f 1210 1213 970
f 971 1038 979
f 1039 1040 926
f 995 1041 879
f 1041 1033 879
f 1048 1042 948
f 936 995 901
f 1009 935 869
f 927 1043 926
f 1043 1039 926
f 1091 1035 949
f 1043 1044 1039
f 1184 1063 918
f 1043 1040 1039
f 950 1030 1091
f 1044 1043 927
f 1040 917 926
f 1044 1040 1043
f 927 1040 1044
f 1095 1000 1075
f 1081 1040 927
f 1081 917 1040
f 995 1049 1041
f 991 1045 1002
f 1032 1048 948
f 1050 1049 995
f 995 1053 1050
f 1053 1049 1050
f 1033 1197 879
f 1050 1041 1049
f 1053 1041 1050
f 936 1053 995
f 1054 1197 1033
f 1052 1037 1038
f 936 1041 1053
f 1055 1054 1033
f 1201 1055 1033
f 936 1056 1041
f 1041 1201 1033
f 1069 1059 1051
f 1057 1058 1041
f 1056 1057 1041
f 1052 1051 1037
f 1066 1052 1038
f 1060 1005 1004
f 1002 1005 1004
f 1134 1061 978
f 1052 1069 1051
f 1036 1062 973
f 1062 1134 973
f 1069 1052 1066
f 1060 1006 1005
f 1002 1060 1005
f 1091 977 1035
f 1067 1066 1038
f 1068 1026 978
f 1066 1077 1069
f 1089 1047 930
f 1070 1069 1090
f 1069 1071 1090
f 1077 1071 1069
f 1072 1075 1003
f 971 1087 1038
f 1087 1067 1038
f 1099 1108 1073
f 1065 1051 1059
f 1002 1006 1060
f 928 1081 927
f 1069 1065 1059
f 1072 1082 1075
f 1076 1072 1003
f 1000 1086 1032
f 1079 1006 1002
f 971 1078 1087
f 1076 1080 1072
f 1077 1066 1067
f 1045 1006 1079
f 1026 1081 928
f 1075 1082 1095
f 1003 1080 1076
f 1076 1082 1072
f 1030 1083 1091
f 1046 1207 967
f 1084 1099 1074
f 1002 1045 1079
f 935 1009 967
f 1080 1082 1076
f 1065 1074 1051
f 1082 1080 1003
f 1061 1068 978
f 1086 1048 1032
f 941 1048 946
f 1088 991 992
f 989 1088 992
f 989 988 992
f 1087 1071 1077
f 1110 1085 942
f 1003 1093 1082
f 988 1088 989
f 1069 1074 1065
f 1093 1095 1082
f 1003 1095 1093
f 1019 1088 988
f 1096 1095 1003
f 1087 1077 1067
f 1096 1093 1095
f 1070 1074 1069
f 1101 1078 1021
f 1045 1007 1006
f 1085 971 942
f 1003 1028 1096
f 1094 1074 1070
f 1087 1099 1084
f 1094 1090 1071
f 1087 1094 1071
f 1096 1028 1095
f 1134 1192 1061
f 1090 1094 1070
f 1087 1078 1101
f 1094 1084 1074
f 1091 1098 977
f 1078 1100 1021
f 1031 1109 1101
f 1100 1106 1021
f 1102 1011 972
f 1103 1011 1102
f 1104 1102 972
f 1103 1014 1011
f 1105 1000 1095
f 1042 1048 941
f 1087 1101 1099
f 1110 1100 971
f 1100 1078 971
f 1105 1095 1028
f 1087 1084 1094
f 1104 1011 1102
f 1191 1064 967
f 1009 1191 967
f 1104 1103 1011
f 1063 1107 972
f 1092 1098 1091
f 1085 1110 971
f 1101 1109 1099
f 1109 1108 1099
f 1106 1100 1110
f 1089 976 1047
f 1109 1031 1113
f 1104 1014 1103
f 1107 1104 972
f 1086 1111 990
f 1112 1125 1014
f 1107 1014 1104
f 1114 1116 990
f 1117 1116 1114
f 1097 1110 1045
f 1111 1114 990
f 1111 1116 1114
f 1045 1110 1007
f 1107 1112 1014
f 1111 1118 1116
f 1118 1117 1116
f 1118 1116 1117
f 1119 1112 1107
f 1098 1105 1028
f 1119 1120 1112
f 1120 1121 1112
f 1136 1105 1092
f 1105 1098 1092
f 1119 1121 1120
f 1120 1125 1121
f 1125 1112 1121
f 1123 976 1089
f 1115 1088 1019
f 1123 1198 976
f 1107 1120 1119
f 1124 1081 1026
f 1108 1152 1073
f 1110 1113 1106
f 1107 1125 1120
f 1110 1109 1113
f 1126 1135 1127
f 1128 1127 1135
f 1118 1122 1116
f 1086 946 1048
f 1130 1135 1126
f 1128 1131 1127
f 1131 1126 1127
f 1131 1132 1126
f 1132 1130 1126
f 1130 1129 1135
f 1128 1134 1127
f 1134 1131 1127
f 1134 1126 1131
f 1132 1133 1130
f 1134 1132 1126
f 1135 1134 1128
f 1133 1129 1130
f 1134 1130 1132
f 1134 1133 1130
f 1134 1062 1133
f 1062 1129 1133
f 1097 1109 1110
f 1136 1000 1105
f 1083 1092 1091
f 1197 963 879
f 1138 1144 1118
f 1144 1122 1118
f 1115 1139 1140
f 1125 1139 1115
f 1139 1141 1140
f 1122 1144 1029
f 1181 1138 1118
f 1142 1140 1141
f 1143 1142 1141
f 1086 1118 1111
f 1178 991 1088
f 1068 1124 1026
f 1088 1115 1140
f 1124 1145 1081
f 1142 1161 1140
f 1143 1159 1142
f 1143 1161 1142
f 1141 1159 1143
f 1146 1159 1141
f 1147 1146 1141
f 1145 1148 1081
f 1149 1145 1124
f 1149 1148 1145
f 1159 1161 1143
f 1150 1147 1141
f 1151 1147 1150
f 1141 1151 1150
f 1109 1152 1108
f 1135 1192 1134
f 1064 1046 967
f 1154 1183 1153
f 1155 1154 1153
f 1183 1155 1153
f 1150 1146 1147
f 1156 1148 1145
f 1149 1156 1145
f 1151 1146 1150
f 1063 1125 1107
f 1166 1088 1140
f 1157 1158 1154
f 1158 1183 1154
f 1164 1129 1157
f 1162 1159 1146
f 1083 1136 1092
f 1141 1160 1151
f 1124 1156 1149
f 1129 1164 1135
f 1148 1156 1081
f 1161 1166 1140
f 1184 917 1081
f 1151 1163 1146
f 1163 1162 1146
f 1161 1140 1166
f 1161 1166 1140
f 1167 1163 1151
f 1160 1163 1151
f 1168 1160 1141
f 1169 1168 1141
f 1167 1162 1163
f 1159 1170 1161
f 1170 1165 1161
f 1171 1166 1161
f 1162 1172 1159
f 1164 1192 1135
f 1160 1167 1163
f 1154 1164 1157
f 1173 1169 1141
f 1139 1173 1141
f 1086 1181 1118
f 1159 1165 1170
f 1165 1171 1161
f 1165 1166 1171
f 1174 1172 1162
f 1167 1174 1162
f 1176 1152 1109
f 1177 1160 1168
f 1169 1177 1168
f 1178 1176 1109
f 1097 1178 1109
f 1045 1178 1097
f 1160 1162 1167
f 1178 1088 1166
f 1173 1168 1169
f 1179 1165 1170
f 1159 1179 1170
f 1172 1179 1159
f 1062 1198 1157
f 1179 1171 1165
f 1174 1179 1172
f 1179 1166 1171
f 1179 1178 1166
f 1180 1179 1174
f 1162 1180 1174
f 1160 1180 1162
f 1177 1180 1160
f 1182 1042 941
f 1168 1180 1177
f 1181 1144 1138
f 1173 1180 1168
f 1198 1123 1157
f 1188 1180 1173
f 1139 1188 1173
f 1144 1182 1029
f 1123 1158 1157
f 1129 1062 1157
f 1156 1184 1081
f 1123 1183 1158
f 1124 1184 1156
f 1192 1184 1124
f 1185 1192 1124
f 1186 1185 1124
f 1068 1186 1124
f 1215 1217 1144
f 1217 1187 1144
f 1181 1215 1144
f 1187 1182 1144
f 1125 1188 1139
f 1063 1188 1125
f 1188 1063 1184
f 1175 1045 991
f 1189 1190 1155
f 1190 1154 1155
f 1190 1214 1154
f 1214 1164 1154
f 1214 1192 1164
f 1183 1189 1155
f 1061 1192 1068
f 1123 1089 1183
f 1207 975 983
f 1195 1189 1183
f 1178 1175 991
f 1089 1195 1183
f 936 847 1073
f 1000 1194 1086
f 1182 1195 1042
f 1186 1196 1185
f 1196 1192 1185
f 1068 1185 1186
f 1068 1196 1185
f 1192 1196 1068
f 1152 936 1073
f 1136 1194 1000
f 1193 1195 1182
f 1194 1181 1086
f 1201 1054 1055
f 1203 1041 1058
f 1203 1201 1041
f 936 1202 1056
f 1056 1199 1057
f 1199 1058 1057
f 1201 1200 1055
f 1058 1201 1203
f 1055 1197 1054
f 1203 1058 1057
f 1199 1203 1057
f 1200 1204 1055
f 1201 1204 1200
f 1204 1197 1055
f 1205 1202 936
f 1197 1030 963
f 1205 1056 1202
f 1056 1203 1199
f 1136 1181 1194
f 1214 1206 1192
f 1200 1197 1204
f 1205 1201 1203
f 1056 1205 1203
f 1205 1200 1201
f 1205 1197 1200
f 1016 870 947
f 1187 1193 1182
f 1197 1083 1030
f 1206 1184 1192
f 1206 1188 1184
f 1187 1214 1193
f 1175 1178 1045
f 1193 1189 1195
f 1205 1083 1197
f 936 1083 1205
f 1208 1136 1083
f 1214 1190 1193
f 1190 1209 1193
f 1209 1189 1193
f 1137 1191 870
f 1152 1083 936
f 1209 1190 1189
f 1198 1062 1036
f 1215 1181 1136
f 907 1211 1210
f 1152 1208 1083
f 1212 1034 1213
f 1064 1207 1046
f 1137 1218 1191
f 1198 1036 976
f 1016 1207 870
f 1207 1016 975
f 1217 1214 1187
f 1215 1179 1180
f 1176 1208 1152
f 1188 1215 1180
f 1208 1215 1136
f 1176 1215 1208
f 1215 1178 1179
f 1178 1215 1176
f 1217 1206 1214
f 1215 1206 1217
f 1188 1206 1215
f 1211 1216 1210
f 1207 1137 870
f 1216 1223 1210
f 1064 1137 1207
f 1213 1220 1212
f 1213 1219 1220
f 1211 1221 1216
f 1221 1222 1216
f 1222 1224 1216
f 1224 1223 1216
f 1223 1213 1210
f 1223 1219 1213
f 1218 1064 1191
f 1224 1219 1223
f 1221 1224 1222
f 1222 1219 1224
f 1220 1219 1222
f 1224 1220 1222
f 1221 1220 1224
f 1211 1220 1221
f 1211 1212 1220
f 1137 1064 1218
f 907 1212 1211
f 1212 907 1034
