v 0.048029 0.043555 -0.319707
v 0.047882 0.043099 -0.31646
v 0.048075 0.042789 -0.319002
v 0.048055 0.042843 -0.323143
v 0.047977 0.042903 -0.317616
v 0.047956 0.04337 -0.317613
v 0.047806 0.043653 -0.323126
v 0.047537 0.044114 -0.318204
v 0.047644 0.042853 -0.315595
v 0.047653 0.043321 -0.315591
v 0.047826 0.042788 -0.316842
v 0.047491 0.041801 -0.318402
v 0.046845 0.043834 -0.313672
v 0.047513 0.043192 -0.326093
v 0.046923 0.042825 -0.312731
v 0.046831 0.040818 -0.32585
v 0.047278 0.041887 -0.328143
v 0.047159 0.043308 -0.313607
v 0.046778 0.044419 -0.324833
v 0.047445 0.042755 -0.326875
v 0.047371 0.042708 -0.327165
v 0.04739 0.042792 -0.327001
v 0.046187 0.042087 -0.33063
v 0.046638 0.03998 -0.328623
v 0.045424 0.044081 -0.330116
v 0.046549 0.041772 -0.313727
v 0.046493 0.043294 -0.311674
v 0.045711 0.042802 -0.309894
v 0.0455 0.043773 -0.310087
v 0.045461 0.044449 -0.3116
v 0.04532 0.037677 -0.331729
v 0.045376 0.038526 -0.33234
v 0.042626 0.046528 -0.324856
v 0.042945 0.046523 -0.317422
v 0.045016 0.037952 -0.333074
v 0.045163 0.041729 -0.310179
v 0.045545 0.043098 -0.309481
v 0.045668 0.043241 -0.309802
v 0.044365 0.042728 -0.333548
v 0.04412 0.036543 -0.332028
v 0.04231 0.044311 -0.334486
v 0.042837 0.034854 -0.335867
v 0.043569 0.036063 -0.335061
v 0.043553 0.03617 -0.335101
v 0.043281 0.035225 -0.334423
v 0.039859 0.047271 -0.313071
v 0.042044 0.042497 -0.336462
v 0.042534 0.035071 -0.336346
v 0.038425 0.04659 -0.332263
v 0.031896 0.04328 -0.285825
v 0.041299 0.033836 -0.337635
v 0.039242 0.031569 -0.338747
v 0.041053 0.033362 -0.335944
v 0.03986 0.047852 -0.32127
v 0.039329 0.032145 -0.339409
v 0.030864 0.042519 -0.284061
v 0.039602 0.041914 -0.338768
v 0.036742 0.048216 -0.32681
v 0.039052 0.04326 -0.338699
v 0.037274 0.044439 -0.338739
v 0.034289 0.047912 -0.331558
v 0.03794 0.048232 -0.317405
v 0.031315 0.043889 -0.285751
v 0.039392 0.001519 0.06207
v 0.039495 0.015497 0.06024
v 0.039459 0.002847 0.062748
v 0.039444 0.010855 0.060852
v 0.03914 0.010133 0.062092
v 0.039356 0.018116 0.058559
v 0.039522 0.02464 0.055547
v 0.039149 -0.000936 0.062814
v 0.039298 0.027558 0.052824
v 0.039497 0.032162 0.04838
v 0.039357 0.043191 -0.00514
v 0.039354 0.042704 -0.011432
v 0.039418 0.044348 -0.049611
v 0.039389 0.040157 0.031656
v 0.039469 0.038626 0.037509
v 0.039283 0.036937 0.042332
v 0.039461 0.035762 0.043012
v 0.039244 0.038156 0.036049
v 0.039233 0.020658 0.058627
v 0.039175 0.044406 -0.027633
v 0.039173 0.034316 0.046976
v 0.039325 0.039764 0.027715
v 0.039086 0.031323 0.05086
v 0.039058 0.025809 0.055845
v 0.039289 0.043852 -0.048619
v 0.039081 0.044973 -0.050703
v 0.038996 0.016581 0.060482
v 0.038559 0.001458 0.060622
v 0.038714 0.011428 0.05948
v 0.038103 -0.001839 0.061289
v 0.038576 0.017402 0.057547
v 0.038585 -0.002147 0.06378
v 0.038593 0.021818 0.055634
v 0.036219 0.041758 -0.34103
v 0.038375 0.027649 0.051298
v 0.038149 0.031315 0.047006
v 0.03828 0.035035 0.041334
v 0.038076 0.036991 0.035709
v 0.036015 0.043369 -0.340582
v 0.038262 0.038602 0.027958
v 0.038015 0.040524 0.001473
v 0.038078 0.041949 -0.025551
v 0.036368 0.043066 0.030928
v 0.038166 0.042588 -0.046976
v 0.032813 0.003906 0.066116
v 0.037959 0.031241 -0.339908
v 0.038114 -0.004077 0.063555
v 0.037805 0.045104 -0.077903
v 0.036023 0.043203 -0.090615
v 0.03663 0.031832 -0.341132
v 0.030165 0.041399 -0.284177
v 0.03191 0.046516 -0.337079
v 0.035245 0.041843 0.0399
v 0.034752 0.04829 -0.062922
v 0.036758 -0.005383 0.062287
v 0.03411 0.04453 -0.142216
v 0.036578 -0.0066 0.065055
v 0.0369 -0.006306 0.064066
v 0.034342 0.045462 -0.135322
v 0.030328 0.048964 -0.109706
v 0.021776 0.048074 -0.286758
v 0.035578 -0.008299 0.06501
v 0.034929 -0.008294 0.063392
v 0.033242 0.048174 -0.004058
v 0.033303 0.045528 0.029597
v 0.035044 0.031905 -0.341924
v 0.033844 0.032103 -0.342453
v 0.035057 0.031796 -0.341918
v 0.035143 0.031168 -0.341387
v 0.032035 0.050444 -0.038765
v 0.032003 0.042183 0.04506
v 0.032232 0.038788 0.050111
v 0.032966 -0.010253 0.067078
v 0.032313 0.035336 0.054129
v 0.033042 0.028748 0.058917
v 0.017464 0.048292 -0.283318
v 0.032472 0.020842 0.063151
v 0.03295 0.042696 -0.342353
v 0.029662 0.013637 0.06626
v 0.030851 0.044516 -0.341604
v 0.033706 -0.010242 0.0661
v 0.002441 0.048355 -0.277744
v 0.03314 0.031901 -0.342711
v 0.031167 0.031742 -0.343302
v 0.031173 0.031845 -0.343321
v 0.030969 0.031117 -0.342875
v 0.032525 -0.010806 0.064877
v 0.03121 0.045208 0.03877
v 0.031314 0.042736 -0.176959
v 0.030563 0.051228 -0.055486
v 0.026052 0.049301 -0.150447
v 0.027712 0.048213 -0.333376
v 0.02541 0.046332 -0.284093
v 0.029477 0.031836 -0.343713
v 0.030429 -0.012416 0.067664
v 0.030376 -0.01224 0.065953
v 0.029424 0.042886 -0.34327
v 0.028876 0.047819 0.031977
v 0.028293 0.050811 -0.000809
v 0.027191 0.043363 -0.265366
v 0.026238 0.000818 0.068917
v 0.026709 0.044117 -0.264955
v 0.028619 0.033568 0.058472
v 0.028332 0.02859 0.061864
v 0.028245 0.022557 0.064535
v 0.029216 0.043169 -0.279522
v 0.028905 0.043855 -0.280034
v 0.02763 -0.012784 0.069338
v 0.027117 0.031737 -0.344021
v 0.027177 0.03123 -0.343719
v 0.026492 0.052325 -0.078179
v 0.026813 0.045937 0.043923
v 0.026214 0.048038 0.03806
v 0.024605 0.043336 0.050746
v 0.026438 0.053428 -0.046068
v 0.024815 0.039534 0.055366
v 0.028147 0.042588 -0.276343
v 0.02784 0.041486 -0.277677
v 0.026203 0.041532 -0.265617
v 0.027698 -0.013404 0.06891
v 0.021959 0.046426 -0.269456
v 0.026981 -0.013592 0.067099
v 0.025796 0.042545 -0.343746
v 0.02571 0.044265 -0.342657
v 0.026033 0.032044 -0.344123
v 0.023436 0.046523 -0.338318
v 0.027486 0.04313 -0.271749
v 0.022996 0.031107 -0.342823
v 0.022499 0.031149 -0.343621
v 0.027187 0.0439 -0.272468
v 0.017263 0.04832 -0.266404
v 0.022091 0.05001 -0.166448
v 0.026468 0.041343 -0.271911
v 0.025831 -0.013795 0.06963
v 0.022103 0.009599 0.069373
v 0.019592 0.018358 0.06875
v 0.019648 0.025105 0.066859
v 0.022259 0.033013 0.062221
v 0.020018 0.047585 0.046969
v 0.020221 0.051002 0.033605
v 0.021069 0.053854 -0.004953
v 0.022475 0.031879 -0.344057
v 0.019746 0.047516 -0.335225
v 0.019132 0.055787 -0.038213
v 0.01861 0.055995 -0.055699
v 0.020235 -0.014142 0.07166
v 0.022152 0.04223 -0.34368
v 0.020923 0.044309 -0.342298
v 0.018311 0.04813 -0.331938
v 0.019137 0.04998 0.04134
v 0.013642 -0.015426 0.070688
v 0.015709 -0.00554 0.072119
v 0.017356 0.04884 -0.237925
v 0.016801 0.031194 -0.342376
v 0.018265 0.031883 -0.343216
v 0.018591 0.048115 -0.276197
v 0.015449 0.050612 -0.187318
v 0.014302 0.011119 0.071046
v 0.014638 0.031953 0.065204
v 0.014649 0.037204 0.061828
v 0.014657 0.041881 0.057615
v 0.014666 0.045842 0.052793
v 0.014546 0.054474 0.007945
v 0.018683 0.043165 -0.342649
v 0.018155 0.041848 -0.342835
v 0.015657 -0.015085 0.072294
v 0.013495 0.031043 -0.339696
v 0.01435 0.044345 -0.339973
v 0.014681 0.031862 -0.341849
v 0.015273 0.042524 -0.341682
v 0.013542 -0.014484 0.073081
v 0.009521 0.019708 0.070411
v 0.009519 0.026602 0.068477
v 0.009513 0.050394 0.046784
v 0.009645 0.052619 0.038408
v 0.009423 0.057387 -0.028822
v 0.008201 0.05779 -0.057481
v 0.014445 0.047982 -0.329429
v 0.007914 -0.014885 0.073838
v 0.01211 0.042794 -0.339861
v 0.010948 0.046431 -0.33193
v 0.011155 0.031164 -0.339274
v 0.010845 0.031858 -0.339567
v 0.003643 0.050227 -0.222242
v 0.008585 -0.015621 0.073379
v 0.001114 0.048056 -0.304932
v 0.009683 0.044056 -0.337044
v 0.009274 0.042176 -0.337848
v 0.004081 0.011496 0.072147
v 0.004371 0.032993 0.066192
v 0.004363 0.038336 0.062755
v 0.004361 0.043098 0.058469
v 0.004364 0.047124 0.053571
v 0.002823 0.056661 -0.004446
v 0.006979 0.044287 -0.333777
v 0.007317 0.031043 -0.334268
v 0.005777 0.031147 -0.333647
v 0.008373 0.031871 -0.337492
v 0.005917 0.042123 -0.33428
v 0.005069 0.031754 -0.333602
v 0.006873 0.031893 -0.335877
v 0.005646 0.032072 -0.334348
v 0.004857 0.043271 -0.331919
v 0.000471 -0.006531 0.073653
v -0.000656 0.020077 0.070905
v -0.000659 0.027015 0.068954
v -0.000637 0.05097 0.047121
v -0.000409 0.053181 0.038762
v 0.00559 0.031895 -0.334265
v -0.000743 0.05835 -0.049086
v -0.008336 0.04683 -0.296101
v -0.000224 -0.016039 0.07194
v -0.00029 -0.015401 0.0742
v 0.001177 -0.015909 0.073467
v -0.00095 0.056168 -0.101462
v -0.018789 0.031069 -0.289387
v -0.004653 0.047872 -0.2936
v -0.009014 0.044462 -0.305366
v -0.009844 0.043477 -0.306041
v -0.013804 0.041794 -0.3001
v -0.004164 -0.015762 0.073775
v -0.006793 0.048165 -0.266853
v -0.005918 0.011619 0.072026
v -0.005539 0.032894 0.066153
v -0.005547 0.038234 0.062724
v -0.005546 0.042989 0.058453
v -0.005538 0.04701 0.053573
v -0.007039 0.056343 -0.00404
v -0.006394 -0.014863 0.073977
v -0.008267 0.049558 -0.225703
v -0.019799 0.031191 -0.289249
v -0.018267 0.031841 -0.29287
v -0.008786 -0.015693 0.073007
v -0.009099 0.05759 -0.058804
v -0.014489 0.056796 -0.038286
v -0.0101 0.019569 0.07037
v -0.010104 0.026456 0.068441
v -0.01006 0.050234 0.046867
v -0.009712 0.052566 0.038397
v -0.009814 0.047033 -0.289915
v -0.010395 -0.015103 0.073533
v -0.013347 -0.005351 0.072542
v -0.014172 -0.015386 0.070668
v -0.015937 0.010403 0.070853
v -0.014283 0.031863 0.065292
v -0.014296 0.037126 0.061929
v -0.014295 0.041801 0.05775
v -0.014282 0.045757 0.052972
v -0.014625 0.054279 0.008685
v -0.013485 0.046084 -0.283766
v -0.014271 0.04736 -0.244912
v -0.013687 0.04516 -0.289831
v -0.017973 0.053444 -0.109205
v -0.014607 0.043185 -0.29663
v -0.018801 -0.014835 0.071609
v -0.015703 -0.014749 0.072664
v -0.016047 0.042092 -0.295277
v -0.019635 0.055516 -0.054597
v -0.021232 0.053663 -0.005416
v -0.02106 0.012047 0.069489
v -0.020648 0.01958 0.068225
v -0.021202 0.025145 0.066348
v -0.018156 0.048482 0.046194
v -0.017718 0.051051 0.037515
v -0.01705 0.044415 -0.278023
v -0.017025 0.043449 -0.285687
v -0.020568 -0.013744 0.071584
v -0.017988 0.041603 -0.290573
v -0.027313 0.052398 -0.061762
v -0.021051 0.03797 -0.28737
v -0.022435 0.029838 0.063788
v -0.022302 0.035125 0.060516
v -0.022303 0.039654 0.056503
v -0.022178 0.04347 0.052009
v -0.019295 0.042401 -0.279313
v -0.02056 0.039604 -0.286664
v -0.025053 -0.014045 0.067957
v -0.026665 -0.013699 0.06924
v -0.020233 0.042201 -0.273668
v -0.022092 0.030507 -0.283688
v -0.023254 0.036951 -0.282052
v -0.026839 0.052834 -0.038948
v -0.028062 0.043196 0.047692
v -0.02775 0.045456 0.043541
v -0.023568 0.049279 0.036609
v -0.02388 0.030192 -0.281403
v -0.025186 0.030459 -0.279827
v -0.023678 0.028965 -0.277265
v -0.023885 0.029017 -0.277868
v -0.02088 0.030353 -0.282962
v -0.030037 0.046943 -0.124016
v -0.024119 0.038047 -0.269915
v -0.02744 -0.002536 0.0687
v -0.027251 -0.012859 0.069429
v -0.030033 0.049976 -0.004386
v -0.029237 0.011926 0.06661
v -0.030395 0.020913 0.064049
v -0.029895 0.027959 0.06125
v -0.030149 0.033437 0.057448
v -0.032173 0.036411 0.053103
v -0.032069 0.039978 0.048801
v -0.032636 0.045196 0.035232
v -0.030052 0.047487 0.028393
v -0.025944 0.028846 -0.27692
v -0.027748 0.029227 -0.274605
v -0.027321 0.031374 -0.274223
v -0.025668 0.02748 -0.274099
v -0.026471 0.03485 -0.265868
v -0.025022 0.02824 -0.275823
v -0.026772 0.026287 -0.271994
v -0.026603 0.026651 -0.272636
v -0.026217 0.027183 -0.273547
v -0.028453 0.026564 -0.271926
v -0.027595 -0.013353 0.066504
v -0.035393 0.04357 -0.098807
v -0.029523 -0.012913 0.067597
v -0.028978 0.021005 -0.26528
v -0.026636 0.02584 -0.270485
v -0.025462 0.031284 -0.25957
v -0.029646 0.026247 -0.270284
v -0.027762 0.025172 -0.27035
v -0.037748 0.039126 -0.101028
v -0.028782 0.031328 -0.25912
v -0.030328 -0.012225 0.06815
v -0.032555 0.049296 -0.062014
v -0.028725 0.023614 -0.268553
v -0.029499 0.021967 -0.266783
v -0.028003 0.024615 -0.269645
v -0.02815 0.023418 -0.268032
v -0.029366 0.021863 -0.266617
v -0.030388 0.023416 -0.267862
v -0.032302 0.05002 -0.043767
v -0.030113 -0.01244 0.06601
v -0.033197 0.048931 -0.01912
v -0.033427 0.007229 0.065495
v -0.033454 0.014801 0.064196
v -0.031584 0.022448 -0.265816
v -0.035053 -0.008475 0.065981
v -0.03428 0.023857 0.060789
v -0.034351 0.030257 0.056982
v -0.03244 0.022941 -0.253687
v -0.03214 -0.011368 0.067124
v -0.031952 0.018917 -0.264047
v -0.03072 0.016266 -0.261868
v -0.031932 0.014828 -0.261313
v -0.033982 0.046163 0.018847
v -0.034911 0.042719 0.038856
v -0.035177 0.040567 0.043786
v -0.034292 0.045989 -0.087425
v -0.032336 -0.011027 0.065074
v -0.031148 -0.011172 0.064666
v -0.033934 -0.010092 0.06587
v -0.034618 0.048107 -0.054592
v -0.033793 0.016514 -0.261014
v -0.036226 0.04387 -0.084764
v -0.034934 0.0123 -0.259024
v -0.033959 0.0122 -0.259645
v -0.034578 -0.008148 0.063013
v -0.034526 -0.008961 0.063827
v -0.040321 0.031555 -0.105353
v -0.033441 0.007799 -0.257235
v -0.037391 -0.00519 0.064622
v -0.036328 0.046863 -0.037445
v -0.035714 0.005333 -0.256191
v -0.0395 0.016018 0.060308
v -0.039189 0.031577 0.050757
v -0.035065 -0.000885 -0.253464
v -0.035658 0.009884 -0.257146
v -0.037092 0.042553 0.031432
v -0.037057 0.045051 -0.002483
v -0.036535 -0.007057 0.064313
v -0.036629 -0.0006 -0.253621
v -0.03526 -0.005115 -0.249592
v -0.035618 -0.003457 -0.251738
v -0.034751 -0.00201 -0.252152
v -0.036416 -0.006361 0.062818
v -0.037722 0.040598 -0.090815
v -0.036138 -0.005622 -0.249616
v -0.037438 0.044898 -0.056222
v -0.037194 -0.003518 -0.251673
v -0.039312 0.004904 0.062768
v -0.037384 0.000897 -0.253278
v -0.036118 -0.007398 -0.247181
v -0.037583 -0.001003 -0.252912
v -0.039218 0.011901 0.061665
v -0.039257 0.021315 0.058402
v -0.037416 -0.006096 -0.248985
v -0.039544 0.026413 0.05485
v -0.038139 -0.007629 -0.246588
v -0.037606 -0.003847 0.061919
v -0.039511 0.034277 0.046649
v -0.036488 -0.008984 -0.243821
v -0.039579 0.037005 0.041708
v -0.039464 0.03862 0.038087
v -0.039571 0.039735 0.033153
v -0.039325 0.041091 0.024506
v -0.039573 0.04259 -0.008497
v -0.042898 0.019485 -0.114423
v -0.039348 0.035912 -0.097221
v -0.038354 -0.009042 -0.243323
v -0.03799 -0.004465 0.063619
v -0.038464 -0.009847 -0.239389
v -0.037031 -0.009961 -0.239466
v -0.039547 0.042668 -0.04095
v -0.039656 0.041271 -0.057183
v -0.038176 -0.00481 -0.24971
v -0.0396 0.037894 -0.082375
v -0.03902 -0.001134 0.063366
v -0.038949 -0.001519 0.062632
v -0.03755 0.038243 -0.069304
v -0.038979 0.037903 -0.075728
v -0.037838 0.036169 -0.082389
v -0.03908 0.036843 -0.081679
v -0.038087 0.039607 -0.059641
v -0.038626 0.000316 0.060884
v -0.039172 0.040025 -0.060834
v -0.039048 0.041179 -0.048057
v -0.038079 0.040562 -0.048718
v -0.037838 0.040905 -0.037478
v -0.039618 0.035837 -0.085583
v -0.038015 0.034183 -0.087591
v -0.039407 0.041869 -0.039945
v -0.039182 0.041627 -0.010745
v -0.038239 0.040886 -0.009602
v -0.037664 0.034817 0.041409
v -0.038486 0.035807 0.040481
v -0.037913 0.036347 0.037951
v -0.038142 0.037487 0.034134
v -0.038657 -0.007462 -0.245819
v -0.03849 0.031894 0.046814
v -0.038535 0.032816 -0.090294
v -0.03898 -0.009569 -0.239874
v -0.039551 0.041222 0.008777
v -0.037921 0.038719 0.024621
v -0.038124 0.038364 0.028986
v -0.039454 0.039591 0.028885
v -0.039344 0.038198 0.036109
v -0.039283 0.036607 0.040386
v -0.039507 0.033477 0.046548
v -0.039936 0.033521 -0.090065
v -0.039327 0.027599 0.05267
v -0.038118 0.027964 0.05062
v -0.040563 0.033577 -0.090991
v -0.038559 0.022657 0.055056
v -0.039595 0.021645 0.057342
v -0.0389 0.031519 -0.092061
v -0.039411 0.018074 0.058538
v -0.038682 0.016706 0.057847
v -0.039168 -0.009072 -0.240331
v -0.039611 0.00203 0.062465
v -0.039493 0.01118 0.060721
v -0.038811 0.009325 0.059787
v -0.044888 0.011867 -0.106136
v -0.04555 -0.009603 -0.124621
v -0.043978 -0.009741 -0.125271
v -0.039531 0.037545 -0.080377
v -0.040477 0.031076 -0.093179
v -0.042972 0.022947 -0.100548
v -0.039261 0.029911 -0.093857
v -0.039808 0.034584 -0.088123
v -0.039698 0.034452 -0.088352
v -0.04096 0.028039 -0.096013
v -0.039892 0.027193 -0.096366
v -0.041596 0.029224 -0.095871
v -0.039975 0.033469 -0.090084
v -0.040286 0.03235 -0.091726
v -0.043399 -0.00924 -0.17189
v -0.040297 0.023952 -0.098743
v -0.040856 0.029668 -0.094675
v -0.04235 0.021933 -0.10037
v -0.041297 0.01927 -0.101605
v -0.044147 0.011956 -0.10536
v -0.045066 0.004377 -0.121518
v -0.043028 0.010671 -0.105655
v -0.046034 0.001979 -0.109863
v -0.043888 0.001409 -0.109262
v -0.045435 0.000329 -0.109881
v -0.044121 -0.009463 -0.122469
v -0.044026 -0.000495 -0.11019
v -0.044492 -0.006751 -0.115932
v -0.043539 -0.005339 -0.114442
v -0.044146 -0.003141 -0.111967
v -0.045855 -0.008957 -0.121334
v -0.04554 -0.003009 -0.112034
v -0.043874 -0.008201 -0.118689
v -0.045538 -0.008182 -0.118892
v -0.045554 -0.005029 -0.113979
v -0.04599 -0.006957 -0.116727
v -0.046192 -0.008933 -0.12372
v -0.046031 -0.001213 -0.111075
v -0.046402 -0.006524 -0.116927
v -0.046358 -0.004184 -0.113796
v -0.018758 0.030766 -0.289431
f 1 2 3
f 4 1 3
f 2 5 3
f 6 2 1
f 4 7 1
f 8 6 1
f 2 9 5
f 9 3 5
f 10 2 6
f 8 10 6
f 11 12 3
f 12 4 3
f 13 10 8
f 14 7 4
f 15 12 11
f 12 16 4
f 17 14 4
f 15 9 2
f 18 15 2
f 10 18 2
f 19 8 7
f 13 18 10
f 14 19 7
f 17 20 14
f 21 22 20
f 17 21 20
f 21 14 20
f 17 23 21
f 23 14 21
f 4 24 17
f 16 24 4
f 23 25 14
f 26 12 15
f 27 15 18
f 13 27 18
f 28 26 15
f 29 27 13
f 30 13 8
f 25 19 14
f 24 31 17
f 31 32 17
f 33 34 8
f 19 33 8
f 35 23 17
f 36 26 28
f 37 28 15
f 34 30 8
f 27 38 15
f 38 37 15
f 29 38 27
f 30 29 13
f 16 31 24
f 39 25 23
f 39 23 35
f 25 33 19
f 29 37 38
f 40 31 16
f 39 41 25
f 42 43 31
f 43 32 31
f 43 44 32
f 45 42 31
f 34 46 30
f 41 33 25
f 47 39 35
f 48 47 35
f 44 48 35
f 40 45 31
f 49 33 41
f 47 41 39
f 50 37 29
f 42 51 43
f 51 44 43
f 52 42 45
f 53 45 40
f 33 54 34
f 54 46 34
f 51 55 48
f 56 36 28
f 57 47 48
f 55 57 48
f 58 54 33
f 53 52 45
f 57 59 47
f 59 41 47
f 49 58 33
f 59 60 41
f 55 51 42
f 52 55 42
f 60 49 41
f 61 58 49
f 62 46 54
f 50 28 37
f 63 29 30
f 64 65 66
f 67 65 64
f 65 68 66
f 69 65 67
f 69 70 65
f 71 64 66
f 72 73 70
f 74 75 76
f 77 75 74
f 78 75 77
f 78 79 80
f 80 81 78
f 70 82 65
f 76 83 74
f 79 84 80
f 84 73 80
f 81 85 78
f 84 86 73
f 86 70 73
f 86 87 70
f 75 88 76
f 87 82 70
f 76 89 83
f 82 90 65
f 90 68 65
f 91 67 64
f 91 92 67
f 92 69 67
f 93 91 64
f 92 94 69
f 95 71 66
f 94 96 69
f 96 70 69
f 97 59 57
f 96 72 70
f 96 98 72
f 98 73 72
f 98 80 73
f 98 99 80
f 99 100 80
f 100 81 80
f 100 101 81
f 101 85 81
f 97 102 59
f 101 103 85
f 68 95 66
f 104 105 75
f 85 103 75
f 103 104 75
f 105 88 75
f 106 77 74
f 105 107 88
f 71 93 64
f 108 95 68
f 52 109 55
f 110 71 95
f 111 89 76
f 102 60 59
f 110 93 71
f 55 97 57
f 63 50 29
f 58 62 54
f 107 112 88
f 109 113 55
f 114 36 56
f 115 49 60
f 113 97 55
f 116 78 77
f 106 116 77
f 116 79 78
f 111 117 89
f 118 93 110
f 119 111 76
f 88 119 76
f 120 121 110
f 95 120 110
f 121 118 110
f 122 123 111
f 123 117 111
f 112 119 88
f 124 46 62
f 125 121 120
f 126 118 121
f 127 128 106
f 74 127 106
f 129 130 113
f 131 129 113
f 130 97 113
f 125 126 121
f 132 131 113
f 109 132 113
f 133 127 74
f 83 133 74
f 134 84 79
f 116 134 79
f 89 133 83
f 46 63 30
f 135 86 84
f 134 135 84
f 117 133 89
f 95 136 120
f 135 137 86
f 137 87 86
f 137 138 87
f 108 136 95
f 115 61 49
f 58 139 62
f 138 82 87
f 140 90 82
f 138 140 82
f 141 102 97
f 140 68 90
f 140 142 68
f 142 108 68
f 143 60 102
f 141 143 102
f 120 144 125
f 136 144 120
f 50 56 28
f 143 115 60
f 145 139 58
f 146 130 129
f 131 146 129
f 147 148 131
f 149 147 131
f 132 149 131
f 150 126 125
f 151 116 106
f 128 151 106
f 151 134 116
f 152 119 112
f 130 141 97
f 117 153 133
f 144 150 125
f 154 123 122
f 155 58 61
f 46 156 63
f 157 130 146
f 148 157 146
f 157 141 130
f 136 158 144
f 159 150 144
f 155 61 115
f 160 143 141
f 123 153 117
f 128 161 151
f 127 162 128
f 162 161 128
f 158 159 144
f 163 122 111
f 133 162 127
f 108 164 136
f 155 145 58
f 163 165 122
f 166 138 137
f 165 154 122
f 166 167 138
f 167 140 138
f 157 160 141
f 167 168 140
f 169 56 50
f 170 169 50
f 63 170 50
f 168 142 140
f 171 158 136
f 164 108 142
f 147 172 148
f 149 173 147
f 173 172 147
f 156 170 63
f 164 171 136
f 139 124 62
f 123 174 153
f 175 134 151
f 176 175 151
f 161 176 151
f 175 177 134
f 177 135 134
f 178 162 133
f 177 179 135
f 179 137 135
f 153 178 133
f 179 166 137
f 169 180 56
f 180 181 56
f 181 114 56
f 124 156 46
f 152 182 119
f 182 163 119
f 171 183 158
f 184 154 165
f 185 159 158
f 183 185 158
f 174 178 153
f 186 187 160
f 187 143 160
f 172 188 157
f 143 189 115
f 189 155 115
f 188 160 157
f 188 186 160
f 190 180 169
f 191 192 149
f 192 173 149
f 170 193 169
f 193 190 169
f 184 194 154
f 156 193 170
f 195 174 123
f 154 195 123
f 196 181 180
f 190 196 180
f 197 185 183
f 156 184 193
f 187 189 143
f 142 198 164
f 199 198 142
f 200 199 142
f 168 200 142
f 201 200 168
f 167 201 168
f 166 201 167
f 179 201 166
f 175 202 177
f 203 176 161
f 162 203 161
f 204 203 162
f 193 163 190
f 182 196 190
f 163 182 190
f 165 163 193
f 172 205 188
f 173 192 172
f 192 205 172
f 178 204 162
f 206 155 189
f 184 165 193
f 207 204 178
f 208 207 178
f 174 208 178
f 164 209 171
f 171 197 183
f 209 197 171
f 188 210 186
f 210 187 186
f 210 211 187
f 205 210 188
f 211 189 187
f 206 212 155
f 213 202 175
f 176 213 175
f 203 213 176
f 195 208 174
f 214 185 197
f 124 184 156
f 164 215 209
f 216 195 154
f 217 218 192
f 218 205 192
f 124 219 184
f 220 208 195
f 215 164 198
f 221 215 198
f 199 221 198
f 201 222 200
f 223 222 201
f 224 223 201
f 179 224 201
f 225 224 179
f 177 225 179
f 202 225 177
f 226 203 204
f 210 227 211
f 228 227 210
f 209 229 197
f 219 194 184
f 229 214 197
f 230 192 191
f 194 216 154
f 211 231 189
f 231 206 189
f 205 228 210
f 139 219 124
f 218 228 205
f 212 145 155
f 216 220 195
f 217 232 218
f 227 231 211
f 233 231 227
f 228 233 227
f 234 229 209
f 139 194 219
f 217 192 230
f 218 233 228
f 199 235 221
f 236 235 199
f 200 236 199
f 222 236 200
f 202 237 225
f 213 237 202
f 238 237 213
f 203 238 213
f 226 238 203
f 204 239 226
f 207 239 204
f 215 234 209
f 232 233 218
f 240 239 207
f 208 240 207
f 206 241 212
f 242 234 215
f 233 243 231
f 206 244 241
f 245 232 217
f 245 246 232
f 220 240 208
f 231 244 206
f 230 245 217
f 247 220 216
f 145 247 216
f 194 145 216
f 232 243 233
f 145 194 139
f 234 248 229
f 242 248 234
f 248 214 229
f 249 145 212
f 241 249 212
f 231 250 244
f 246 243 232
f 243 250 231
f 251 250 243
f 242 215 221
f 252 242 221
f 235 252 221
f 222 253 236
f 254 253 222
f 223 254 222
f 255 254 223
f 224 255 223
f 256 255 224
f 225 256 224
f 237 256 225
f 257 238 226
f 239 257 226
f 246 251 243
f 250 258 244
f 247 240 220
f 259 260 230
f 260 245 230
f 261 246 245
f 261 251 246
f 262 258 250
f 251 262 250
f 261 262 251
f 260 261 245
f 260 263 261
f 264 265 261
f 265 262 261
f 262 266 258
f 267 242 252
f 235 268 252
f 269 268 235
f 236 269 235
f 253 269 236
f 237 270 256
f 271 270 237
f 238 271 237
f 257 271 238
f 263 272 264
f 272 265 264
f 273 257 239
f 240 273 239
f 274 249 241
f 244 274 241
f 248 275 214
f 242 276 248
f 276 277 248
f 277 275 248
f 278 273 240
f 272 263 265
f 279 260 259
f 263 262 265
f 247 278 240
f 249 280 145
f 258 281 244
f 281 274 244
f 267 276 242
f 266 282 258
f 282 281 258
f 262 282 266
f 283 282 262
f 263 283 262
f 284 277 276
f 280 285 145
f 286 267 252
f 268 286 252
f 253 287 269
f 254 288 253
f 288 287 253
f 255 289 254
f 289 288 254
f 256 290 255
f 290 289 255
f 270 290 256
f 291 271 257
f 292 276 267
f 285 247 145
f 293 278 247
f 285 293 247
f 274 280 249
f 294 263 260
f 294 295 263
f 295 283 263
f 296 275 277
f 284 296 277
f 292 284 276
f 293 297 278
f 297 273 278
f 297 298 273
f 298 291 273
f 291 257 273
f 286 292 267
f 268 299 286
f 300 299 268
f 269 300 268
f 287 300 269
f 270 301 290
f 302 301 270
f 271 302 270
f 291 302 271
f 279 294 260
f 274 303 280
f 304 296 284
f 304 284 292
f 305 304 292
f 296 306 275
f 286 305 292
f 307 305 286
f 299 307 286
f 287 308 300
f 309 308 287
f 288 309 287
f 310 309 288
f 289 310 288
f 311 310 289
f 290 311 289
f 301 311 290
f 312 302 291
f 303 285 280
f 303 313 285
f 313 314 285
f 314 293 285
f 274 315 303
f 293 316 297
f 315 313 303
f 282 317 281
f 318 306 296
f 304 318 296
f 319 318 304
f 305 319 304
f 281 317 274
f 317 315 274
f 320 317 282
f 316 321 297
f 314 316 293
f 283 320 282
f 321 298 297
f 322 291 298
f 322 312 291
f 299 323 307
f 324 323 299
f 300 324 299
f 325 324 300
f 308 325 300
f 301 326 311
f 327 326 301
f 302 327 301
f 312 327 302
f 313 328 314
f 329 313 315
f 330 319 305
f 317 329 315
f 329 328 313
f 320 331 317
f 328 332 314
f 332 316 314
f 331 329 317
f 283 333 320
f 295 333 283
f 308 334 325
f 335 334 308
f 309 335 308
f 336 335 309
f 310 336 309
f 311 337 310
f 337 336 310
f 326 337 311
f 322 327 312
f 338 328 329
f 339 338 329
f 307 330 305
f 339 331 320
f 333 339 320
f 331 339 329
f 318 340 306
f 341 340 318
f 338 342 328
f 318 319 330
f 343 294 279
f 339 344 338
f 345 322 298
f 321 345 298
f 344 342 338
f 323 330 307
f 326 346 337
f 347 346 326
f 348 347 326
f 327 348 326
f 322 348 327
f 343 349 294
f 332 321 316
f 349 350 294
f 333 344 339
f 350 295 294
f 350 333 295
f 351 352 353
f 354 332 328
f 342 354 328
f 352 349 353
f 349 343 353
f 344 355 342
f 323 356 330
f 341 318 330
f 357 341 330
f 355 354 342
f 332 345 321
f 356 357 330
f 345 358 322
f 359 356 323
f 324 359 323
f 360 359 324
f 325 360 324
f 334 360 325
f 361 360 334
f 362 361 334
f 335 362 334
f 336 362 335
f 363 362 336
f 364 363 336
f 337 364 336
f 346 364 337
f 365 347 348
f 366 365 348
f 322 366 348
f 358 366 322
f 367 349 352
f 368 369 344
f 368 344 333
f 369 355 344
f 350 368 333
f 367 350 349
f 370 352 351
f 369 371 355
f 372 367 352
f 373 372 352
f 373 374 372
f 374 375 372
f 375 367 372
f 376 367 375
f 341 377 340
f 355 378 354
f 379 377 341
f 380 381 382
f 376 350 367
f 374 376 375
f 376 383 350
f 384 376 374
f 383 368 350
f 368 383 369
f 385 355 371
f 386 385 371
f 369 386 371
f 356 387 357
f 354 388 332
f 389 376 384
f 390 391 392
f 393 390 392
f 387 341 357
f 341 387 379
f 394 376 389
f 388 395 332
f 395 345 332
f 385 378 355
f 379 396 377
f 395 397 345
f 397 358 345
f 359 398 356
f 390 394 389
f 360 399 359
f 383 400 369
f 369 400 386
f 401 387 356
f 394 400 376
f 361 402 360
f 400 383 376
f 403 402 361
f 400 404 386
f 387 405 379
f 393 406 390
f 406 394 390
f 362 403 361
f 407 408 393
f 363 403 362
f 409 365 366
f 347 364 346
f 410 347 365
f 411 364 347
f 410 411 347
f 358 409 366
f 397 409 358
f 378 412 354
f 408 406 393
f 413 414 396
f 398 401 356
f 379 413 396
f 399 398 359
f 415 413 379
f 405 415 379
f 388 416 395
f 401 405 387
f 412 388 354
f 417 404 400
f 418 412 378
f 406 419 394
f 420 406 408
f 419 400 394
f 419 417 400
f 413 421 414
f 415 422 413
f 423 385 386
f 404 423 386
f 424 420 408
f 398 425 401
f 420 419 406
f 395 426 397
f 401 415 405
f 416 426 395
f 427 420 424
f 360 428 399
f 402 428 360
f 412 416 388
f 363 429 403
f 430 427 424
f 364 429 363
f 411 429 364
f 431 417 419
f 365 432 410
f 409 432 365
f 433 432 409
f 417 423 404
f 434 415 401
f 397 433 409
f 426 433 397
f 434 422 415
f 427 419 420
f 435 427 430
f 436 437 438
f 434 439 422
f 378 440 418
f 418 416 412
f 441 437 436
f 442 426 416
f 443 435 430
f 437 443 430
f 444 425 398
f 419 445 431
f 446 441 436
f 418 442 416
f 385 440 378
f 427 447 419
f 425 434 401
f 448 444 398
f 399 448 398
f 428 448 399
f 441 443 437
f 402 449 428
f 447 445 419
f 450 443 441
f 403 451 402
f 451 449 402
f 446 450 441
f 429 451 403
f 435 447 427
f 452 450 446
f 434 453 439
f 411 454 429
f 455 452 446
f 456 454 411
f 457 456 411
f 410 457 411
f 432 458 410
f 458 457 410
f 459 458 432
f 433 460 432
f 460 459 432
f 461 423 417
f 431 461 417
f 385 462 440
f 463 452 455
f 464 453 434
f 426 460 433
f 425 464 434
f 465 463 455
f 466 465 455
f 443 447 435
f 467 460 426
f 442 467 426
f 468 467 442
f 443 469 447
f 450 469 443
f 418 468 442
f 452 469 450
f 440 470 418
f 470 468 418
f 471 464 425
f 464 472 453
f 473 474 475
f 471 472 464
f 474 476 475
f 477 474 473
f 472 478 453
f 479 474 477
f 480 479 477
f 481 480 477
f 482 480 481
f 483 484 475
f 476 483 475
f 485 480 482
f 486 485 482
f 487 486 482
f 488 489 490
f 489 491 490
f 463 492 452
f 493 489 488
f 483 494 484
f 465 495 463
f 496 486 487
f 497 496 487
f 492 469 452
f 498 496 497
f 499 496 498
f 500 499 498
f 491 500 498
f 501 500 491
f 489 501 491
f 502 501 489
f 492 447 469
f 483 503 494
f 493 502 489
f 504 502 493
f 505 504 493
f 506 470 440
f 507 504 505
f 508 504 507
f 444 471 425
f 503 509 494
f 510 508 507
f 511 510 507
f 423 462 385
f 512 492 463
f 495 512 463
f 472 513 478
f 514 510 511
f 515 514 511
f 516 461 431
f 445 516 431
f 513 514 515
f 492 512 447
f 478 513 515
f 517 465 466
f 518 517 466
f 519 476 474
f 444 513 471
f 462 506 440
f 512 445 447
f 503 520 509
f 513 472 471
f 461 521 423
f 474 468 519
f 479 468 474
f 520 522 509
f 448 513 444
f 519 483 476
f 451 508 449
f 523 524 483
f 480 468 479
f 454 451 429
f 485 468 480
f 486 460 485
f 501 456 500
f 448 428 513
f 496 460 486
f 460 496 459
f 525 526 522
f 520 525 522
f 449 508 428
f 500 458 499
f 456 458 500
f 502 454 501
f 454 456 501
f 504 451 502
f 496 458 459
f 454 502 451
f 508 451 504
f 458 456 457
f 499 458 496
f 510 428 508
f 468 470 519
f 467 485 460
f 514 428 510
f 513 428 514
f 467 468 485
f 470 483 519
f 527 506 462
f 523 528 524
f 506 523 483
f 506 483 470
f 506 529 523
f 517 530 465
f 530 495 465
f 525 531 526
f 530 512 495
f 529 532 503
f 423 527 462
f 527 532 529
f 506 527 529
f 532 525 520
f 533 534 531
f 525 533 531
f 527 525 532
f 530 445 512
f 521 527 423
f 527 533 525
f 521 533 527
f 533 535 534
f 536 516 445
f 535 537 534
f 538 536 445
f 530 538 445
f 521 535 533
f 535 539 537
f 516 535 521
f 516 521 461
f 535 540 539
f 541 517 518
f 540 542 539
f 543 544 545
f 540 545 542
f 546 517 541
f 540 547 545
f 548 549 541
f 549 546 541
f 516 538 535
f 547 550 545
f 550 543 545
f 543 549 548
f 551 549 543
f 550 551 543
f 536 538 516
f 517 552 530
f 538 540 535
f 552 538 530
f 553 547 540
f 552 554 538
f 554 555 538
f 538 553 540
f 546 552 517
f 555 551 550
f 547 555 550
f 553 555 547
f 551 546 549
f 555 554 551
f 538 555 553
f 546 554 552
f 551 554 546
f 15 11 5
f 7 8 1
f 43 35 32
f 51 48 43
f 148 146 129
f 172 157 147
f 272 264 261
f 556 343 279
f 393 389 391
f 529 528 524
f 532 520 529
