v 0.0260176 -0.0147509 -0.160163
v 0.0209096 -0.0138817 -0.254835
v 0.023855 -0.005957 -0.228775
v 0.023001 -0.0030215 -0.245823
v 0.018478 -0.0234568 -0.258075
v 0.019349 -0.028074 -0.245917
v 0.019285 -0.027765 -0.263123
v 0.0200179 -0.023232 -0.263838
v 0.019975 -0.02376 -0.264085
v 0.019319 -0.027924 -0.256137
v 0.019935 -0.023688 -0.264173
v 0.01988 -0.023766 -0.264222
v 0.0187436 -0.0231244 -0.263997
v 0.018987 -0.023152 -0.264176
v 0.019062 -0.028004 -0.263251
v 0.019486 -0.023152 -0.264077
v 0.019065 -0.023142 -0.264096
v 0.018453 -0.028082 -0.263597
v 0.0192408 -0.0232924 -0.264632
v 0.019032 -0.028208 -0.250274
v 0.0151243 0.0224955 0.0364541
v 0.00984098 0.0273546 0.0361092
v -0.00793583 0.0224113 0.0382679
v 0.00986843 0.0244404 0.0410078
v 0.00047482 0.0269602 0.0368902
v -0.013527 0.0224348 0.0347857
v -0.0107211 0.0251793 0.0356659
v 0.0209324 -0.0260377 0.0380829
v 0.0140654 -0.0292263 0.0351113
v -0.00431777 -0.0309847 0.036745
v -0.00137613 -0.0282467 0.0387028
v -0.021284 -0.026066 0.036837
v -0.0205697 -0.0262598 0.0307323
v 0.0410341 0.0278418 -0.317901
v 0.0397268 0.0310763 -0.324148
v 0.037481 0.0294216 -0.3298
v 0.0375517 0.0312894 -0.313794
v 0.0273767 0.029947 -0.305794
v 0.029795 0.0291248 -0.295505
v 0.0367958 0.0313315 -0.312825
v 0.0267044 0.0315595 -0.333911
v 0.0303338 0.0281745 -0.336015
v 0.0242147 0.0279551 -0.299729
v 0.0225409 0.0280353 -0.28742
v 0.0149641 0.0293398 -0.3336
v 0.0166811 0.0272232 -0.308933
v 0.023124 0.0324571 -0.306436
v 0.0207521 0.0327911 -0.298873
v 0.0175662 0.027324 -0.295404
v 0.018637 0.03092 -0.289515
v 0.0185096 0.0327007 -0.302765
v 0.0156971 0.0326744 -0.308568
v 0.0135596 0.0271288 -0.268426
v 0.018184 0.032702 -0.301654
v 0.018184 0.032703 -0.302193
v 0.0174977 0.0326468 -0.302241
v 0.018198 0.032603 -0.302196
v 0.0203382 0.0326338 -0.306598
v 0.0174036 0.0312842 -0.290948
v 0.0175767 0.0326955 -0.303843
v 0.017546 0.032605 -0.303205
v 0.0148441 0.0317778 -0.296354
v 0.014416 0.032517 -0.308617
v 0.0140301 0.0326269 -0.308686
v 0.0152589 0.0320935 -0.298085
v 0.0150472 0.0326033 -0.306302
v 0.0142182 0.0315069 -0.295109
v 0.008778 0.02722 -0.304827
v 0.0127953 0.0317337 -0.327007
v 0.0133588 0.0314497 -0.295177
v 0.0103528 0.0297854 -0.286808
v 0.0141926 0.0323515 -0.312494
v 0.00852169 0.0275539 -0.279396
v 0.0055445 0.0318577 -0.299874
v 0.0152441 0.0270867 -0.332638
v 0.00381117 0.0294305 -0.288961
v 0.0118331 0.0309646 -0.293252
v 0.00799581 0.0272036 -0.309346
v 0.00887698 0.0322064 -0.309215
v -0.00150843 0.0288575 -0.300767
v -0.009411 0.027222 -0.293077
v -0.000762505 0.0274308 -0.310818
v 0.00867467 0.0285934 -0.28578
v -0.00115007 0.027957 -0.27688
v 0.00399935 0.0274557 -0.298522
v 0.003245 0.027221 -0.30124
v 0.002787 0.027219 -0.301211
v 0.002543 0.027218 -0.301219
v 0.001094 0.027223 -0.299456
v -0.000340437 0.0277227 -0.287128
v -0.0118181 0.0274682 -0.288006
v 0.0484134 -0.0334584 0.0293207
v 0.0500462 0.0245436 0.0287374
v 0.0458387 -0.0120673 -0.0371441
v 0.0501492 0.0267874 -0.0356573
v 0.0312329 0.0221298 0.0312834
v 0.050038 0.027729 0.022067
v 0.0379359 0.0251019 -0.036265
v 0.0244418 0.0251021 0.0278662
v 0.032103 0.027818 0.017287
v 0.0368753 0.0276508 0.00331402
v 0.0395949 0.0281928 0.0151387
v 0.039971 0.027746 0.016751
v 0.039559 0.027786 0.016938
v 0.0377416 0.027277 -0.0214461
v 0.0438572 0.0167135 -0.0376012
v 0.0483603 0.0172731 -0.333393
v 0.0483824 0.0283113 -0.322687
v 0.0499563 -0.0210338 -0.316751
v 0.0492369 -0.0311539 -0.321305
v 0.0419997 -0.0389348 -0.0362789
v 0.0458586 -0.0384519 -0.0372318
v 0.0441535 0.0188072 -0.0487816
v 0.0421221 -0.0312832 -0.336104
v 0.033343 -0.0334572 0.0156678
v 0.0336572 -0.0336242 -0.040909
v 0.0376973 -0.00866617 0.029061
v 0.0392899 -0.00225057 0.0308914
v 0.047643 -0.00540463 -0.0374452
v 0.0492829 -0.00820961 -0.048961
v 0.0454766 0.00962624 -0.0459136
v 0.0461855 0.0190438 -0.307615
v 0.0255211 -0.0312483 -0.274083
v 0.0459385 0.0279342 -0.315614
v 0.0224366 0.025925 -0.266258
v 0.0370716 -6.06139e-05 -0.0410613
v 0.0460754 0.027298 -0.321925
v 0.0432735 0.0273546 -0.318247
v 0.0342091 -0.0359064 -0.0376094
v 0.0407525 -0.0411841 0.0254124
v 0.043358 0.027514 -0.310825
v 0.0439387 0.0279538 -0.312217
v 0.045727 0.0281676 -0.323605
v 0.041623 0.027346 -0.312357
v 0.0378687 0.0370611 -0.321434
v 0.024696 0.027955 -0.277037
v 0.0483822 -0.00366538 -0.0406005
v 0.0378555 -0.026327 -0.0459555
v 0.0234919 0.027598 -0.276405
v 0.0391282 0.0273682 -0.334665
v 0.0356223 0.0309661 -0.0492174
v 0.034994 0.0314613 -0.0373947
v 0.0394796 -0.0258622 -0.0385785
v 0.0434424 0.0274739 -0.335784
v 0.039845 0.027808 0.01669
v 0.0365416 -0.0207272 -0.343305
v 0.03966 0.027854 0.016782
v 0.0394958 0.00227999 -0.0505127
v 0.0353472 0.0317702 0.0146655
v 0.0407793 -0.0323978 0.0148911
v 0.0395102 -0.00340941 0.0423054
v 0.038202 -0.031465 -0.338394
v 0.0399111 -0.000717812 0.0424712
v 0.0340186 -0.0310971 -0.342128
v 0.0361387 0.00934311 -0.0532027
v 0.0361573 0.00440512 0.0440329
v 0.0323381 0.0304032 -0.0408469
v 0.0331393 0.0172614 -0.317337
v 0.0367972 -0.0111225 -0.0524126
v 0.029565 0.028044 -0.021313
v 0.0384956 0.0277218 -0.335504
v 0.0458927 -0.0282964 -0.309598
v 0.0310009 0.0277442 -0.33964
v 0.0262458 0.0327997 -0.339707
v 0.0342129 -0.0368751 -0.0498164
v 0.031321 0.017377 -0.343447
v 0.0296811 -0.0484148 -0.021899
v 0.035363 -0.041928 0.0105414
v 0.030718 -0.031364 -0.342795
v 0.035495 -0.0318565 -0.0148981
v 0.0321507 -0.0187673 -0.0764624
v 0.0338975 -0.0211525 -0.0511048
v 0.0368235 0.0451553 -0.00303483
v 0.0347265 0.012229 0.0614183
v 0.0354307 -0.0240291 0.0551387
v 0.0325262 0.0213576 0.057936
v 0.0349051 0.0323359 0.016849
v 0.0328805 -0.0350447 -0.0307168
v 0.027379 0.027645 -0.024105
v 0.0343065 0.0456013 0.0117062
v 0.034235 0.006429 0.063059
v 0.024918 0.028708 -0.026607
v 0.031761 0.04445 0.017849
v 0.032205 0.041236 0.017188
v 0.032188 0.040462 0.01718
v 0.0285042 -0.0457535 0.0231413
v 0.0323266 0.0465107 -0.0163003
v 0.031966 -0.025883 0.057284
v 0.027894 0.0269669 -0.0505617
v 0.0177104 0.0467907 0.00443089
v 0.033193 -0.04598 -0.054854
v 0.031445 0.021339 0.058394
v 0.032618 0.0296504 -0.0175622
v 0.0323799 0.0337165 -0.0207118
v 0.031089 -0.046248 -0.085405
v 0.0290629 -0.00212967 -0.227072
v 0.028465 -0.0475862 -0.0327803
v 0.03089 0.040902 -0.01948
v 0.032095 0.04122 0.017339
v 0.032148 0.041063 0.017273
v 0.0336583 -0.0209689 -0.317407
v 0.032094 0.04134 0.017338
v 0.0288846 0.046352 0.0214231
v 0.029723 0.040306 -0.021151
v 0.028571 0.027121 -0.339823
v 0.0282354 -0.0476056 -0.0589797
v 0.029935 0.040569 -0.020986
v 0.02789 0.044908 -0.023355
v 0.02988 0.040758 -0.021027
v 0.029605 0.042253 -0.021264
v 0.0287068 0.0338371 -0.0300562
v 0.0252986 -0.0310012 -0.34395
v 0.0111559 0.0468313 -0.0145699
v 0.030121 -0.026167 0.058346
v 0.0293437 -0.0256014 -0.250494
v 0.03003 -0.001937 -0.229762
v 0.0319377 0.0197466 -0.232825
v 0.0302241 0.0216599 -0.276512
v 0.0224836 0.0313444 -0.028707
v 0.0297009 0.0624198 0.00425583
v 0.0266471 -0.00234995 0.0622317
v 0.0279656 -0.0187718 0.0628197
v 0.0289701 0.0157923 0.0633773
v 0.028666 -0.025615 -0.267622
v 0.027282 -0.026226 0.04677
v 0.027399 -0.026171 0.046662
v 0.0302676 -0.0258694 0.0289193
v 0.0271295 -0.0260909 0.0471044
v -0.027612 0.021618 0.058523
v 0.00276551 0.0215986 0.0554896
v 0.026969 0.0216201 0.05259
v 0.0239072 -0.0283425 -0.233633
v 0.0234237 0.027825 -0.221426
v 0.0137422 0.045683 -0.0374564
v 0.0309524 -0.0235273 -0.277382
v 0.028211 -0.049058 -0.058899
v 0.0324891 0.0656469 0.000766275
v 0.029359 0.0736839 -0.00582992
v 0.029824 0.040939 -0.021076
v 0.029743 0.021726 -0.249606
v 0.02973 0.02181 -0.24966
v 0.0281331 0.0167739 -0.265259
v 0.0295561 0.0227376 -0.248274
v 0.029708 0.04119 -0.0212
v 0.029644 0.04125 -0.021252
v 0.029632 0.041072 -0.02125
v 0.0320108 -0.0237128 -0.233001
v 0.0285597 0.0229106 -0.245636
v 0.029696 0.021896 -0.249712
v 0.0221628 0.0222594 -0.263454
v 0.0275118 -0.0270508 -0.247583
v 0.02944 0.0215306 -0.251314
v 0.0240306 -0.025729 -0.258144
v 0.028799 0.021829 -0.265424
v 0.0284501 -0.0203042 -0.264992
v 0.0236833 -0.0314137 -0.221426
v 0.0279784 0.0284029 -0.343328
v 0.0275389 0.0239688 -0.0526415
v 0.0219125 -0.0209546 -0.273741
v 0.0229259 0.0279702 -0.252951
v 0.0236482 -0.0275215 0.0474124
v 0.0228745 0.017389 -0.274479
v 0.0287225 -0.0379722 0.0500943
v 0.025385 -0.0304805 -0.250882
v 0.0256407 0.0229883 -0.249174
v 0.0170188 0.0315261 -0.0409977
v 0.026112 -0.020759 -0.26978
v 0.028075 -0.045818 -0.026182
v 0.0214644 0.0157821 -0.272237
v 0.0266025 0.0144469 -0.223637
v 0.0266002 0.0246967 0.0344661
v 0.0243284 0.0621828 0.0177661
v 0.0242792 0.0688735 0.0207102
v 0.0162827 0.0281874 -0.341541
v 0.0222938 -0.00876472 -0.271048
v 0.0233625 0.027634 -0.340234
v 0.0240713 -0.0386676 -0.027156
v 0.0220231 0.0395957 -0.0294853
v 0.023876 0.0632424 -0.0186542
v 0.0256525 -0.0023889 0.065855
v 0.023934 -0.029099 0.046664
v 0.0225658 -0.0304804 0.0410441
v 0.024879 -0.030724 0.047365
v 0.027197 0.022695 -0.036813
v 0.0251136 0.0216492 0.0477008
v 0.0216905 -0.0207086 -0.328103
v 0.0219599 0.0278774 -0.340259
v 0.0225855 0.0361842 0.029407
v 0.026123 0.027143 -0.340058
v 0.025211 0.027074 -0.340102
v 0.023468 -0.026686 0.047707
v 0.02347 -0.02657 0.047801
v 0.023544 -0.026147 0.048288
v 0.0263514 -0.026533 0.0535898
v 0.0202099 0.027949 -0.033319
v 0.01928 0.009486 -0.255793
v 0.023841 -0.026196 0.047871
v 0.025334 0.016567 -0.124453
v 0.0239673 0.0273646 -0.0534606
v 0.0219824 -0.0315461 0.0292353
v 0.0209117 0.0167244 -0.273442
v 0.022031 0.009956 -0.254265
v 0.023689 0.001889 -0.232141
v 0.021283 0.044494 0.029566
v 0.023618 0.0419624 0.0278277
v 0.0219727 -0.0320893 -0.217519
v 0.023251 0.021143 -0.104315
v 0.0253737 0.0153983 -0.143357
v 0.022483 0.02811 -0.152795
v 0.0240836 0.0216374 -0.248078
v 0.0155877 0.0449936 -0.0489813
v -0.000116 0.022795 0.048184
v 0.018108 -0.032302 -0.263024
v 0.0161155 -0.0313085 -0.340511
v 0.0242438 -0.0270405 -0.249219
v 0.0265201 0.0171599 -0.328281
v 0.022597 -0.031442 -0.249386
v 0.0232355 0.0275253 -0.249882
v 0.023826 0.013142 0.067508
v 0.0236445 0.0270685 -0.340006
v 0.0246497 0.0213895 0.050404
v 0.021594 0.040353 0.029574
v 0.015129 0.014288 -0.258102
v 0.023535 -0.026498 0.047825
v 0.0220665 -0.0298902 -0.263789
v 0.0173311 -0.0310525 -0.342633
v 0.020399 0.019394 -0.255165
v 0.018076 -0.045211 -0.263007
v 0.0224193 0.000276728 -0.254056
v 0.022842 -0.000852 -0.248807
v 0.0189052 0.0617992 -0.00188339
v 0.0191662 0.0736931 -0.0216013
v 0.0205862 0.0271358 -0.338783
v 0.0192523 0.0414455 -0.0311251
v 0.015835 0.029029 -0.265588
v 0.019373 0.029058 -0.190366
v 0.0164425 0.0287798 -0.266606
v 0.022547 0.00465082 -0.270487
v 0.0242562 0.046223 -0.026792
v 0.0223778 0.0172509 -0.312378
v 0.0122756 0.0633031 -0.0282117
v 0.021803 0.026983 0.029472
v 0.022054 0.026618 0.029872
v 0.019673 0.024669 -0.196547
v 0.0224629 0.0265355 0.0295618
v 0.021739 0.026817 0.029812
v 0.0237296 0.0735895 0.0173373
v 0.021186 0.027179 0.030047
v 0.011422 0.0427123 -0.0396432
v 0.0196032 0.0278671 -0.271046
v 0.0203065 0.0154676 -0.272589
v 0.019946 0.025226 -0.089888
v 0.021477 0.02735 0.029628
v 0.0168616 -0.00825135 -0.268209
v 0.021376 0.040116 0.02976
v 0.021403 0.040343 0.029718
v 0.021492 0.040329 0.029649
v 0.021161 0.038677 0.030118
v 0.0208298 -0.020013 -0.272971
v 0.0207514 0.0282057 -0.0302753
v 0.020965 0.026985 0.03757
v 0.020903 0.027089 0.037344
v 0.0209239 0.0269889 0.0377151
v 0.018622 0.0306529 0.0331955
v 0.0187339 -0.00952886 -0.272173
v 0.0199838 0.0303086 0.0349551
v 0.018085 0.0416735 0.031709
v 0.018703 0.028695 0.037223
v 0.0178834 0.0285942 0.0379746
v 0.0176535 0.0451765 0.0319416
v 0.01382 0.015341 -0.258862
v 0.0267847 0.0226388 0.0474266
v 0.0141024 0.0164231 -0.272401
v 0.0149717 -0.0197412 -0.271686
v 0.019335 0.024322 -0.256508
v 0.00202159 0.0617937 0.0189036
v 0.0115141 0.0293656 -0.334835
v 0.0127244 0.0294263 -0.264553
v 0.006831 0.017089 -0.333171
v 0.0183676 0.0295153 -0.270157
v 0.014499 0.014893 -0.258446
v 0.016069 0.027172 -0.096528
v 0.007492 0.018653 -0.262338
v 0.019723 0.019437 -0.263563
v 0.019264 0.019465 -0.264252
v 0.00898531 0.0192686 -0.261514
v 0.017181 0.019395 -0.261299
v 0.019647 0.019437 -0.263727
v 0.018606 0.019447 -0.263762
v 0.018484 0.019435 -0.263551
v 0.0207518 0.0407973 -0.0458844
v 0.0172073 0.00564114 -0.270667
v 0.0198982 0.00616751 -0.272738
v 0.019565 0.01944 -0.263867
v 0.014181 0.026372 -0.20202
v 0.016788 0.004375 -0.268223
v 0.0168658 0.00462667 -0.268162
v 0.0187628 0.0242703 -0.263587
v 0.019686 0.0196772 -0.264512
v 0.0188772 -0.0182304 -0.27257
v 0.018206 0.024549 -0.263043
v 0.018217 0.024537 -0.263152
v 0.018359 0.024509 -0.2632
v 0.0197864 -0.0206893 -0.313756
v 0.0173902 0.0171838 -0.321401
v 0.018482 0.029127 0.036663
v 0.018741 0.019462 -0.263996
v 0.0230171 0.0722023 -0.0209415
v 0.0115859 0.0719845 0.0281879
v 0.018539 0.028948 0.03695
v 0.018513 0.028884 0.037023
v 0.018477 0.028824 0.037103
v 0.0176955 0.0294109 0.0329541
v 0.0058124 0.0467773 -0.0347743
v 0.01829 0.028819 0.036793
v 0.0169746 -0.010772 -0.270292
v 0.018309 0.028674 0.037358
v 0.018227 0.028636 0.037443
v 0.01821 0.028597 0.037572
v 0.0259583 0.0621417 -0.0159991
v 0.0166021 0.0280575 0.0536053
v 0.0135702 -0.0207324 -0.327048
v 0.0168782 0.0147865 -0.271231
v 0.00978887 0.0310136 0.0376726
v 0.0171509 0.045011 -0.03193
v -0.00115868 0.0618557 -0.0189491
v 0.0162255 -0.026688 0.0497497
v 0.0151981 0.00260146 -0.263911
v 0.0155765 -0.0186278 -0.264647
v 0.00630055 0.0439251 -0.0364392
v 0.0155325 -0.00464729 -0.265231
v 0.015193 0.02711 -0.337237
v 0.0104569 0.0302518 0.0470735
v 0.012619 -0.0211072 -0.341236
v 0.0066874 0.0299301 -0.108027
v 0.0140932 0.0285262 -0.265507
v 0.0152494 0.0146557 -0.262565
v 0.010143 0.027548 -0.333371
v 0.0151306 0.0199541 -0.261881
v -0.019251 0.0175775 -0.29059
v 0.00182444 0.0352951 -0.0368704
v 0.005465 -0.020875 -0.334255
v 0.0132789 0.0335716 -0.0524899
v 0.0114573 0.0294159 0.0518881
v 0.009965 0.032595 -0.139211
v 0.0125569 -0.00105738 -0.264234
v 0.007205 0.030936 0.046626
v 0.0108008 0.0736312 -0.027473
v 0.00904908 0.0319382 -0.175953
v 0.010022 0.031908 -0.169448
v 0.00963716 0.0433444 -0.0355092
v 0.00556011 0.0620513 -0.0285474
v 0.009612 -0.030916 -0.338055
v 0.0151868 0.0249802 -0.261065
v 0.0243264 0.0286746 -0.0459979
v 0.00773078 0.0731845 0.0290593
v 0.00130552 0.0353351 -0.0445591
v 0.0125271 0.0290205 -0.265447
v 0.00755579 0.028071 -0.335499
v 0.010771 0.027527 -0.330899
v 0.0157674 0.0173264 -0.34238
v 0.0028632 0.0297882 0.053843
v 0.0114271 0.0278574 -0.265356
v 0.00988 0.033943 -0.07637
v 0.009499 0.030914 0.03811
v 0.00900114 0.0322634 0.0358815
v 0.007456 -0.031277 -0.334169
v 0.00265464 0.0453923 0.0363065
v 0.0106938 0.0274168 -0.334193
v 0.00549023 0.0258472 -0.262922
v 0.008307 0.027498 -0.331175
v -0.00818199 0.0295237 -0.275968
v -0.0161582 0.0277908 -0.281061
v 0.003782 0.030224 -0.268651
v -0.000805 0.014446 0.071315
v 0.00136267 0.0308653 -0.27361
v 0.008086 0.032245 -0.170986
v 0.00608816 0.0174624 -0.334019
v 0.009345 0.030945 0.037936
v 0.009216 0.030981 0.037735
v 0.008526 0.019864 -0.26211
v 0.006913 0.03133 0.03583
v 0.009162 0.031007 0.037622
v -0.012249 0.027221 -0.295424
v -0.011356 0.027306 -0.292432
v -0.013158 0.027536 -0.29317
v 0.009119 0.031043 0.037511
v 0.009118 0.031073 0.037415
v 0.00280006 -0.0309843 -0.330116
v 0.009027 0.031008 0.037604
v 0.008879 0.03104 0.037431
v 0.008961 0.031122 0.037243
v 0.008622 0.031125 0.036973
v -0.00197451 0.0321957 -0.286585
v 0.008708 0.031064 0.037282
v -0.00368539 0.0333338 -0.305993
v 0.00225083 0.036072 -0.0521428
v 0.008534 0.031087 0.037135
v 0.005171 0.032496 -0.170988
v 0.008492 0.019652 -0.262024
v 0.0015613 0.0440041 -0.0370988
v 0.008349 0.019652 -0.262024
v 0.00825 0.01969 -0.262032
v 0.00429076 0.032678 -0.170963
v 0.00468 0.032523 -0.170988
v -0.0026865 0.0195981 -0.26798
v -0.00302154 0.0339683 -0.282225
v -0.013754 0.027889 -0.293844
v -0.006994 0.046384 -0.037478
v 0.00667563 0.0338205 -0.276549
v 0.00524597 -0.0196257 -0.267982
v -0.010099 -0.020029 -0.2767
v 0.00346656 0.0384527 -0.0501826
v 0.00325099 0.0446845 -0.037974
v -0.003018 0.031363 0.036441
v -0.00634248 0.0293451 -0.275204
v -0.018815 -0.031262 -0.289143
v -0.0181787 -0.0310399 -0.290648
v -0.000431498 -0.0323366 0.0485198
v 0.00833172 0.0627883 0.0293439
v 0.00326727 0.0161252 -0.269265
v -0.0156003 0.0106918 -0.28056
v -0.001225 0.032776 -0.170989
v -0.000226815 0.0300552 0.0479579
v -0.0163362 0.0272435 -0.295623
v -0.002402 0.030171 -0.271921
v -0.0019004 0.044699 -0.0368082
v 0.00364383 0.0467916 0.0179172
v 0.0015826 0.0261097 0.0564397
v 0.000673578 0.033603 -0.275974
v -0.017686 0.018724 -0.294096
v -0.0225783 0.0397144 -0.0459305
v -0.0189107 -0.021553 -0.291797
v -0.00638645 0.0262332 -0.270029
v -0.00348913 0.0336523 0.0364694
v -0.00341456 0.0431539 -0.0409148
v -0.00663057 0.0345037 -0.0365844
v -0.000300872 -0.0267126 0.0500553
v -0.00335788 0.07256 -0.0305509
v -0.00291531 0.0414166 -0.0360428
v -0.00998996 0.0635832 0.0290077
v -0.00511743 0.0619451 0.0287635
v -0.0131158 0.0738796 -0.02618
v -0.0053756 0.073195 0.0295583
v -0.0303108 0.0735063 -0.000441865
v -0.000182479 -0.0284532 0.044842
v -0.010061 -0.031162 0.045842
v -0.009927 -0.029658 0.045082
v -0.0100413 -0.0282503 0.0448496
v -0.0100115 0.0217144 0.0450894
v -0.00011413 0.0221372 0.0451532
v -8.0105e-05 0.0228339 0.0521886
v -0.00964737 0.0267736 0.0560681
v -0.00999768 0.0265749 0.0532881
v -0.009891 0.02793 0.051592
v -0.009802 0.027814 0.047356
v -0.000466984 0.0300631 0.0513102
v -0.003719 0.031229 0.037974
v -0.0246074 -0.0276298 0.0445056
v -0.0121145 0.0154729 -0.280352
v -0.005454 0.033598 -0.124608
v -0.00505131 0.0437961 -0.0364924
v -0.024242 0.0128382 0.0676795
v -0.00671561 0.0464181 -0.0491036
v -0.020999 0.0397055 -0.0385375
v -0.00226179 0.0309766 -0.277836
v -0.003396 0.0317195 0.036968
v -0.003142 0.032264 0.036474
v -0.014605 0.0468233 0.011024
v -0.00185769 0.0467054 0.0356256
v -0.003304 0.031748 0.036804
v -0.003793 0.031818 0.037264
v -0.009351 0.030678 -0.221682
v -0.008528 0.031992 -0.170952
v -0.00352 0.031715 0.037149
v -0.003554 0.031663 0.03723
v -0.0118857 0.0468678 -0.0327239
v -0.0259452 0.0241482 -0.0367013
v -0.0132332 0.0455099 0.0337536
v -0.01027 0.044532 0.035007
v -0.0151363 0.0277372 -0.281032
v -0.010019 0.028312 0.051767
v -0.009569 0.028735 0.052021
v -0.00968261 0.0297223 0.0468507
v -0.012467 -0.019486 -0.284645
v -0.00830014 0.0629015 -0.0292577
v -0.010051 0.071643 0.02879
v -0.0112366 0.0309637 0.0348649
v -0.0234856 -0.0259674 0.0476729
v -0.009242 0.031836 -0.170494
v -0.009339 0.031819 -0.170412
v -0.009415 0.031806 -0.170322
v -0.00980492 0.0317502 -0.169671
v -0.009911 0.031732 -0.169231
v -0.0285523 0.0235535 -0.0460651
v -0.00736128 0.0345598 -0.0409947
v -0.019403 0.0424572 -0.0372403
v -0.0140527 0.028757 0.035811
v -0.009986 0.028437 0.054061
v -0.00493381 0.0246521 -0.0364072
v -0.0191637 0.0290307 -0.0342139
v -0.0155 0.027193 -0.101091
v -0.0192247 0.0456943 -0.0311412
v -0.00846846 0.0348604 -0.0536846
v -0.010044 0.016658 -0.272075
v -0.015995 0.029841 -0.183261
v -0.00931966 -0.0331368 -0.275014
v -0.009863 0.031734 -0.169467
v -0.009803 0.031792 -0.169701
v -0.0102678 0.0216863 0.0546782
v -0.00985 0.028532 0.051892
v -0.009843 0.028577 0.051995
v -0.014475 0.071714 -0.026719
v -0.009984 0.028467 0.052035
v -0.009934 0.028478 0.051922
v -0.0191096 0.0334878 -0.0501853
v -0.0103361 0.0293897 0.0455027
v -0.010077 -0.029883 0.045033
v -0.010086 -0.029701 0.044966
v -0.010096 -0.0298 0.04498
v -0.009963 0.027719 0.047031
v -0.0143976 0.0291124 -0.280501
v -0.00835679 0.0291597 -0.118214
v -0.010027 0.027786 0.046989
v -0.00999787 0.0267489 0.0458962
v -0.010132 -0.029913 0.044954
v -0.010153 -0.02974 0.044857
v -0.010079 0.027873 0.046935
v -0.0101896 -0.0297819 0.0447489
v -0.0100518 0.0248789 0.044902
v -0.0101668 -0.0261317 0.0449585
v -0.010113 0.028033 0.053733
v -0.010104 0.028011 0.052003
v -0.010112 0.028097 0.052057
v -0.0104312 -0.0327603 0.0461546
v -0.0274463 0.0229125 0.0441773
v -0.0188517 0.040058 -0.0332886
v -0.012368 -0.019877 -0.273392
v -0.019211 -0.0381046 -0.28204
v -0.0256408 0.0245167 0.0429641
v -0.0143117 0.0283655 0.0397736
v -0.019281 0.0618495 0.00127573
v -0.0142494 -0.0426696 -0.277293
v -0.011763 0.0427162 -0.0351893
v -0.013995 0.040146 0.033763
v -0.013886 0.039508 0.033804
v -0.013773 0.038872 0.033844
v -0.013842 0.038523 0.033841
v -0.014295 0.042724 0.033628
v -0.014243 0.042066 0.033659
v -0.0121362 0.0343859 -0.0517994
v -0.0165605 0.0273555 -0.283648
v -0.0297917 0.0210833 -0.0404998
v -0.0250046 0.0623793 0.0165773
v -0.0161068 0.0290546 -0.282536
v -0.025313 0.0397878 -0.0490049
v -0.017209 0.027299 0.039498
v -0.01429 0.030536 0.034149
v -0.014161 0.04143 0.033688
v -0.014068 0.040789 0.033728
v -0.017232 -0.0279414 -0.275515
v -0.014357 0.040113 0.033757
v -0.0159749 0.0290833 -0.285559
v -0.014184 0.040444 0.033749
v -0.0218798 0.0705803 -0.0224964
v -0.014141 0.039798 0.033786
v -0.0161201 -0.0126272 -0.279654
v -0.014231 0.040822 0.033719
v -0.0205833 0.0689816 0.0243939
v -0.0166533 0.0241838 -0.275739
v -0.014592 0.02839 0.039618
v -0.019777 0.00516659 -0.277481
v -0.014504 0.028362 0.03973
v -0.0149238 0.0138551 -0.274766
v -0.0157305 0.0291687 0.0383412
v -0.01476 0.028445 0.039404
v -0.017404 0.038315 0.032666
v -0.0204941 0.0453773 0.0300566
v -0.015773 0.0344804 0.0350173
v -0.0219073 -0.0328365 -0.276509
v -0.0315879 0.0465381 0.0177017
v -0.0137509 0.0468689 -0.0136851
v -0.0239944 0.0619518 -0.0158435
v -0.018601 0.040189 -0.032982
v -0.0228516 -0.0143465 -0.284454
v -0.023267 0.001751 -0.284003
v -0.0228165 0.0107574 -0.284808
v -0.0151473 -0.016882 -0.274736
v -0.0231626 0.0194253 -0.124367
v -0.0170036 0.0277599 -0.283531
v -0.0298876 0.0624155 -0.00227205
v -0.017395 0.027527 0.032811
v -0.0199771 0.0367456 0.0318665
v -0.018484 0.027129 0.032505
v -0.0199297 0.0271923 -0.285019
v -0.017624 0.027787 0.032475
v -0.01768 0.027699 0.032438
v -0.017757 0.027766 0.032377
v -0.0201017 0.0249424 -0.0953513
v -0.0193603 -0.0093739 -0.276371
v -0.022905 0.0100995 -0.205078
v -0.0184276 0.0273893 0.0322146
v -0.022998 0.025261 0.038435
v -0.023012 0.025282 0.038223
v -0.022964 0.025286 0.038334
v -0.022889 0.025343 0.038094
v -0.022897 0.025454 0.037698
v -0.022577 0.02593 0.036942
v -0.0233842 0.0274159 0.0354112
v -0.021979 -0.03067 -0.283587
v -0.0215371 0.0254617 0.0295446
v -0.023472 0.0219487 -0.205725
v -0.025259 0.024638 0.036613
v -0.020362 -0.030884 -0.28265
v -0.0211354 -0.0307193 0.0295707
v -0.0224012 -0.0315005 0.0290069
v -0.0226234 0.0270628 -0.135797
v -0.0215993 0.0426894 -0.0297116
v -0.0229348 -0.0297277 0.0415851
v -0.0228259 0.0732225 0.0190844
v -0.022732 0.025893 0.037064
v -0.022892 0.025699 0.037282
v -0.022871 0.025641 0.037363
v -0.0241495 -0.0331612 0.0282102
v -0.0233054 0.0285159 -0.0517046
v -0.030205 -0.029013 0.040889
v -0.0281922 0.02466 0.0396165
v -0.0317221 -0.0290261 0.0176124
v -0.027113 0.008964 -0.20606
v -0.0292062 -0.0303077 0.0578263
v -0.0236132 -0.0334798 -0.259836
v -0.02617 0.013655 -0.206039
v -0.0296 0.003071 -0.179089
v -0.028063 0.003151 -0.204473
v -0.0260548 -0.00122062 -0.240234
v -0.028695 0.0347078 -0.0408963
v -0.0320784 0.0338176 -0.0494773
v -0.031981 -0.0254841 0.0580435
v -0.0271264 0.0720807 0.0138098
v -0.0249322 0.0631669 -0.0178061
v -0.0279011 0.0716558 -0.0127853
v -0.0298104 -0.0477998 -0.0218165
v -0.0250635 -0.0398065 -0.027525
v -0.0299646 0.0231609 0.0306093
v -0.0300772 -0.047995 -0.0341267
v -0.0258465 -0.0406121 -0.0340417
v -0.0285682 -0.0325216 -0.025185
v -0.0282465 0.0280631 -0.0247438
v -0.0329699 -0.0288003 0.0432565
v -0.030012 0.0208002 -0.0533829
v -0.0349543 -0.00288759 -0.24108
v -0.030263 0.008954 -0.15105
v -0.0264112 -0.00264245 0.064651
v -0.0294873 0.0455214 0.0212588
v -0.030363 0.008721 -0.151048
v -0.029532 0.064022 0.007497
v -0.0300304 0.0121255 0.0632965
v -0.029799 0.041043 0.02122
v -0.0318833 0.0207824 -0.0506539
v -0.0281053 -0.01662 0.0629932
v -0.0317343 0.0450451 -0.0185427
v -0.031739 0.041471 0.018206
v -0.0328013 0.0224931 0.0337044
v -0.0287017 0.02123 0.0595988
v -0.0292263 -0.0272232 0.0309653
v -0.0368378 -0.0304322 -0.0308241
v -0.030319 0.063787 0.002498
v -0.0286429 -0.00231318 0.0642886
v -0.0290232 0.0190406 0.062505
v -0.0303975 0.0721142 -0.000687705
v -0.0255966 0.0367363 -0.0273851
v -0.0316149 0.00705052 0.0623903
v -0.0331828 0.0330044 -0.0372735
v -0.031261 0.003263 -0.152164
v -0.031137 0.004533 -0.151099
v -0.030413 0.038893 0.020935
v -0.029989 0.04059 0.021076
v -0.033991 0.0139798 -0.0528622
v -0.029985 0.041 0.021041
v -0.030038 0.040821 0.020995
v -0.0294676 -0.0260037 -0.0253198
v -0.032328 -0.025978 -0.017314
v -0.033261 -0.025951 -0.02575
v -0.0312844 -0.0239047 -0.0284247
v -0.0360747 -0.021956 -0.037513
v -0.0307538 0.0197533 -0.0264998
v -0.0299551 -0.00208604 -0.0355576
v -0.0362577 -0.00207695 -0.0363363
v -0.0379553 0.001687 -0.0370671
v -0.0317657 0.0208378 -0.0252509
v -0.032256 0.021763 -0.017254
v -0.0296773 0.024839 0.0211309
v -0.036296 0.0212117 0.0202575
v -0.0400974 0.0201734 0.0201202
v -0.035147 0.011561 -0.053314
v -0.031039 0.019306 0.058735
v -0.030791 0.006426 -0.151051
v -0.0344579 0.023386 0.0434247
v -0.037333 0.002483 -0.053348
v -0.036647 0.00645 -0.053372
v -0.031775 0.0347271 0.0210756
v -0.0324565 0.0148576 0.0442114
v -0.0320245 -0.00220568 0.0532252
v -0.0410677 0.018905 -0.0459642
v -0.0319859 0.0369065 0.0185101
v -0.033348 0.038125 0.014998
v -0.0332629 -0.00253726 -0.121432
v -0.032082 -0.016541 0.04436
v -0.0319746 -0.0182587 0.0561274
v -0.0322502 0.0143358 0.0559456
v -0.0346174 -0.0194794 0.0442126
v -0.049673 0.012493 0.044066
v -0.032042 0.012161 0.044399
v -0.0342289 0.00239086 0.0532092
v -0.0338752 -0.0393969 -0.100531
v -0.035844 -0.025672 0.017631
v -0.03189 0.038674 0.017869
v -0.031915 0.039251 0.017861
v -0.031903 0.038809 0.017846
v -0.031909 0.038912 0.017835
v -0.0344822 0.0409245 -0.0126875
v -0.049708 -0.016824 0.044032
v -0.0357644 -0.0238966 0.0438658
v -0.036958 0.017 0.043954
v -0.032197 0.041561 -0.017304
v -0.033121 -0.025976 -0.017263
v -0.0328218 0.0167716 0.0363755
v -0.0326587 0.0179532 0.0313938
v -0.032811 -0.0211373 0.0358872
v -0.0348902 -0.0199523 0.0365622
v -0.0326251 0.0378549 -0.0171214
v -0.0356789 -0.0169912 -0.0510972
v -0.0331899 0.0226046 0.0167795
v -0.035126 -0.026564 0.016802
v -0.0360562 0.0452976 0.00542931
v -0.0331163 -0.0226476 -0.0213
v -0.03678 -0.025797 -0.017162
v -0.037091 -0.025611 -0.017166
v -0.037344 -0.025443 -0.017172
v -0.0333058 -0.0256813 -0.0173781
v -0.038314 -0.024706 -0.017294
v -0.0445791 0.0186943 -0.0180304
v -0.0423488 -0.00280593 -0.122247
v -0.035638 -0.042591 -0.009335
v -0.034066 -0.022628 -0.013567
v -0.0347245 0.0157341 0.036556
v -0.03374 0.038866 0.014889
v -0.034882 0.035191 0.014866
v -0.034598 0.04124 0.011936
v -0.0329536 0.0193263 -0.0164787
v -0.0384262 -0.00771747 -0.0509332
v -0.0399797 0.0189182 -0.0234491
v -0.0397681 0.0250597 0.0186299
v -0.0340332 -0.0271282 0.0144558
v -0.0339423 0.0466397 -0.0115333
v -0.035037 0.020725 0.035393
v -0.0343555 0.0306523 -0.0128207
v -0.03833 0.030601 -0.0131127
v -0.0353544 -0.0252811 0.0344049
v -0.0375323 -0.0209816 0.0414684
v -0.0363549 0.0264983 -0.0120077
v -0.0345897 0.0357487 -0.0139853
v -0.03562 -0.0252432 0.011401
v -0.0416087 0.0257877 -0.0136798
v -0.035573 0.020497 0.040752
v -0.0345114 -0.0257166 0.0342288
v -0.0343625 0.0189186 0.0113182
v -0.035776 0.043865 0.007031
v -0.0359566 0.0430931 -0.00544317
v -0.0348069 0.0383715 0.0120873
v -0.0360113 0.0268671 -0.0064323
v -0.036554 0.021452 0.014913
v -0.034658 0.039127 0.011626
v -0.034671 0.039382 0.011633
v -0.034667 0.039279 0.0116
v -0.035995 -0.041414 0.006861
v -0.0364104 0.0354183 0.0119323
v -0.0370715 0.0019489 0.0249512
v -0.0344215 -0.0333231 -0.0153245
v -0.038712 0.018789 0.025134
v -0.0380176 -0.0219823 0.0381458
v -0.036408 -0.020946 -0.013645
v -0.036213 0.016876 -0.013577
v -0.0431835 0.0226854 0.0144975
v -0.035598 0.019891 0.038383
v -0.0364263 -0.0262072 -0.0263756
v -0.0350338 -0.0215307 0.0109249
v -0.035708 0.019566 0.039722
v -0.0360261 -0.0399721 -0.0473293
v -0.035698 0.019596 0.039599
v -0.035664 0.019694 0.039193
v -0.0358133 0.0189621 0.0438789
v -0.0410361 0.0167252 -0.0137426
v -0.03722 0.01731 0.040891
v -0.0361732 -0.0241686 -0.0460524
v -0.0438207 -0.0180144 -0.0460104
v -0.0361747 -0.0308505 -0.0409977
v -0.0381506 0.0200956 0.0117529
v -0.039701 0.007464 -0.050041
v -0.03718 -0.024775 0.017849
v -0.036706 -0.040988 0.001123
v -0.0382025 0.0315317 -0.00524371
v -0.0375895 0.020506 0.014943
v -0.0361357 -0.0322392 -0.0378458
v -0.036851 0.017715 0.043786
v -0.0362009 0.0180249 -0.0410389
v -0.0368852 0.0366678 -0.00149016
v -0.0363652 0.0223197 -0.0261806
v -0.0366707 -0.0252949 -0.00576805
v -0.0363412 0.016407 -0.00543533
v -0.040893 0.016531 -0.005405
v -0.0411589 -0.0207209 -0.00542931
v -0.0453588 0.00632892 -0.0459806
v -0.037004 -0.019762 -0.005934
v -0.040785 -0.020689 -0.005519
v -0.040967 0.016604 -0.013681
v -0.04093 0.016383 -0.013615
v -0.0369931 -0.0303016 -0.0023456
v -0.039027 -0.023619 -0.001774
v -0.0387592 0.0188011 -0.00192191
v -0.040011 -0.022339 -0.001677
v -0.046019 -0.002427 -0.045995
v -0.036956 -0.02495 0.01775
v -0.0378639 0.0153318 0.000207867
v -0.037626 0.036037 -0.001938
v -0.037298 0.015116 -0.012878
v -0.04089 -0.02037 -0.005612
v -0.038668 -0.024817 -0.017115
v -0.0518301 -0.0186783 0.0404323
v -0.050687 0.014409 0.043179
v -0.037845 0.014614 0.043934
v -0.042826 0.022748 0.014789
v -0.038192 -0.018651 -0.041091
v -0.037244 0.013979 0.006812
v -0.041042 0.016196 -0.013563
v -0.0380404 0.00535585 -0.0512602
v -0.0381939 -0.0199675 -0.000454569
v -0.037322 0.014108 0.001884
v -0.0409061 0.00259157 0.0241396
v -0.03806 0.020031 0.014987
v -0.038948 0.018915 0.015107
v -0.0383879 -0.00584654 0.0247248
v -0.0380278 0.0146315 0.0438757
v -0.0376629 -0.0178158 -0.00863809
v -0.0383317 0.0138228 -0.00868774
v -0.038171 0.014146 -0.041047
v -0.037444 -0.019026 -0.012602
v -0.0385408 0.00290187 0.00586557
v -0.039336 0.019049 0.014868
v -0.0409625 0.0140625 0.00746007
v -0.041094 -0.019441 -0.013081
v -0.0393536 -0.023049 0.011654
v -0.041016 -0.019339 -0.012986
v -0.041651 -0.017995 -0.011624
v -0.0385693 -0.0140345 -0.0501074
v -0.0411577 0.00403974 0.0144684
v -0.0405032 0.0220006 -0.0315514
v -0.0422927 -0.00679779 0.00381267
v -0.0411062 0.00153063 0.00467379
v -0.0386414 -0.00728894 0.00574593
v -0.038221 0.01443 0.04095
v -0.0468703 -0.0044922 -0.0408919
v -0.039468 0.031921 -0.004888
v -0.0444136 -0.0189188 -0.0169868
v -0.0417376 0.0175841 -0.0409767
v -0.039055 -0.024249 -0.0248355
v -0.039117 0.019102 0.014904
v -0.039305 0.018619 0.016608
v -0.038418 -0.024733 -0.017237
v -0.0400679 0.00160315 0.0318276
v -0.0391944 0.00724601 0.0357537
v -0.039867 0.010614 0.032052
v -0.038572 -0.024663 -0.017215
v -0.038577 -0.024569 -0.017291
v -0.0425691 -0.0210177 -0.0296726
v -0.0391631 -0.0237556 -0.017672
v -0.039409 0.018261 0.0159
v -0.0406503 0.0280486 -0.0114615
v -0.039297 -0.023385 -0.001778
v -0.039529 -0.023106 -0.001771
v -0.039584 0.007717 0.035417
v -0.03936 0.018604 0.015139
v -0.039331 0.018544 0.015231
v -0.039432 0.018451 0.015313
v -0.04048 -0.022085 -0.001776
v -0.039536 0.018585 0.015108
v -0.0395827 0.00441904 0.0352226
v -0.044174 0.018737 0.014819
v -0.044122 0.018949 0.014771
v -0.0399043 0.0101291 0.0333543
v -0.044217 0.018578 0.014886
v -0.0418174 0.0253749 -0.0147129
v -0.044189 0.018495 0.01494
v -0.044209 0.018409 0.015004
v -0.0400183 0.017719 0.0117167
v -0.0403801 0.00414452 0.0294163
v -0.044219 0.01806 0.015845
v -0.0442646 0.0180575 0.0156535
v -0.0433109 0.0257977 -0.0019288
v -0.040045 0.003144 0.032594
v -0.0401538 0.00954748 0.0316794
v -0.0401548 0.00230144 0.0319362
v -0.0406371 0.00272672 0.0291981
v -0.0405995 0.00232506 0.029382
v -0.0404709 0.0103657 0.0299355
v -0.040334 -0.021741 -0.001528
v -0.040411 -0.021432 -0.001405
v -0.040351 -0.021587 -0.001456
v -0.0410861 -0.0206468 -0.00170466
v -0.0402657 0.0094344 0.0311347
v -0.0402387 -0.0230459 -0.0235658
v -0.0417215 -0.00879137 0.0249453
v -0.0423109 0.0271871 -0.00601401
v -0.04064 0.008595 0.029017
v -0.040953 0.000944 0.02584
v -0.0488769 -0.00129435 -0.0494387
v -0.0412 -0.018822 0.008761
v -0.0413516 0.012435 0.0219775
v -0.0407005 0.00882556 0.0286166
v -0.0408533 0.00392584 0.0277797
v -0.0408793 0.00660732 0.0279132
v -0.041333 0.013925 0.011497
v -0.0413312 0.0148105 -0.0013689
v -0.0433586 -0.0202682 -0.0218884
v -0.0445007 0.0124425 -0.037939
v -0.041348 0.0135574 0.00712364
v -0.041134 -0.00742 0.023377
v -0.04112 -0.019273 -0.012942
v -0.041328 0.015155 -0.005755
v -0.0412804 -0.0179292 0.00687771
v -0.0479653 0.0103531 -0.0375599
v -0.041485 -0.019523 -0.013436
v -0.041474 -0.017746 0.002405
v -0.0421581 0.00658647 0.0117687
v -0.041389 -0.019399 -0.005729
v -0.041254 0.01608 -0.005396
v -0.041271 0.015957 -0.005424
v -0.041325 0.015856 -0.00542
v -0.0415965 0.0155981 -0.00534273
v -0.0417198 -0.000149808 0.00239484
v -0.0401618 -0.0229009 -0.0168582
v -0.041847 -0.018335 -0.017491
v -0.041647 0.003162 -0.000449
v -0.0415084 0.0134699 -0.0100072
v -0.0414488 0.0153874 -0.0135021
v -0.0421072 0.0175181 -0.0253249
v -0.0430613 -0.0132182 -0.00520242
v -0.0428632 -0.00337599 -0.00121385
v -0.0414071 -0.021021 -0.0279753
v -0.0416993 0.00326833 -0.00147105
v -0.04162 0.012692 -0.005801
v -0.0414162 -0.0183233 -0.00660608
v -0.0405063 0.0255999 -0.0490233
v -0.0423152 -0.00777764 -0.0131891
v -0.041725 -0.001105 -0.005498
v -0.041722 -0.0078 -0.006537
v -0.044891 0.01388 0.011673
v -0.0442832 -0.00205826 -0.00591147
v -0.0436379 -0.0134161 -0.0181106
v -0.045507 0.003512 -0.001842
v -0.042041 -0.007756 -0.012361
v -0.041791 -0.018484 -0.018244
v -0.04186 -0.018345 -0.018195
v -0.04186 -0.018322 -0.018089
v -0.0433073 -0.00812522 -0.0054172
v -0.0417278 -0.00827929 -0.00556637
v -0.041954 -0.007833 -0.005819
v -0.041863 -0.011654 -0.017324
v -0.0419543 0.013762 -0.0274613
v -0.0412883 0.0149662 -0.0221137
v -0.041988 0.002992 -0.00078
v -0.041999 -0.008011 -0.005596
v -0.045599 0.002881 -0.000451
v -0.042033 0.003003 -0.000636
v -0.0419223 -0.00767301 -0.00623201
v -0.042067 0.013478 -0.017093
v -0.044001 -0.018864 -0.01689
v -0.042033 0.002991 -0.000872
v -0.042 -0.007729 -0.005978
v -0.0420715 -0.0083895 -0.0053885
v -0.042097 -0.008533 -0.005358
v -0.0419895 -0.007712 -0.0066575
v -0.042112 -0.007891 -0.007017
v -0.042097 -0.007637 -0.006441
v -0.04214 -0.00763 -0.006349
v -0.043354 0.021712 0.014754
v -0.0420385 -0.00777 -0.006826
v -0.042154 -0.00783 -0.006947
v -0.04564 0.002886 -0.001351
v -0.042094 -0.007638 -0.006252
v -0.042146 -0.018521 -0.017172
v -0.042104 -0.00767 -0.006623
v -0.04584 -0.007537 -0.006799
v -0.045975 -0.014465 -0.002026
v -0.042197 -0.007894 -0.01283
v -0.0430402 -0.0237759 -0.00316913
v -0.042242 -0.007884 -0.012687
v -0.0461859 0.00218755 -0.0292176
v -0.045876 -0.007397 -0.006136
v -0.0449414 -0.0126246 -0.0291091
v -0.042239 -0.007895 -0.012922
v -0.043955 -0.018559 -0.01702
v -0.04401 -0.018637 -0.016973
v -0.045742 -0.008137 -0.013064
v -0.0421801 -0.0147557 -0.0137446
v -0.044914 0.014645 -0.018467
v -0.0441186 -0.0176405 -0.018108
v -0.0436231 -0.0208292 -0.0142606
v -0.0428117 0.0148562 -0.0273092
v -0.0458581 -0.0119472 -0.0380213
v -0.045136 0.015064 -0.019834
v -0.044284 0.019129 0.014696
v -0.044243 0.01902 0.01473
v -0.0446568 0.0186829 0.0145976
v -0.044657 0.019298 -0.014456
v -0.0445874 0.0184961 0.0170871
v -0.044408 0.022932 -0.002224
v -0.0472215 -0.0182303 -0.0376085
v -0.0452795 0.0147792 0.0123719
v -0.044301 0.022914 -0.005003
v -0.044363 0.018357 0.015017
v -0.044378 0.018031 0.015742
v -0.0446227 0.0179829 0.0154809
v -0.044559 0.017945 0.015936
v -0.0449667 0.0157637 0.0174726
v -0.0455726 0.0119483 -0.0154024
v -0.045173 0.013916 -0.016625
v -0.0450728 0.0139777 -0.0170608
v -0.04592 0.002545 -0.000335
v -0.045117 0.014904 -0.017749
v -0.0451785 -0.0187966 0.0405509
v -0.0453882 -0.0201152 -0.0492611
v -0.0460673 -0.0163027 0.0396339
v -0.046063 -0.00315475 -0.000522015
v -0.0461333 0.00268355 -0.00336161
v -0.046464 -0.0065642 -0.0154565
v -0.0463082 -0.00804682 -0.00509629
v -0.0460122 -0.00834876 -0.0127917
v -0.0460743 -0.0121252 -0.0168587
v -0.0468161 -0.00807203 -0.0103898
v -0.0458653 0.0123648 0.0401672
v -0.0477957 0.0130596 0.0383274
v -0.048243 0.011699 0.038973
v -0.0476961 0.0100951 -0.0483756
v -0.048482 -0.016195 0.038523
v -0.050742 0.01422 0.0394851
v 0.047505 -0.04192 -0.322911
v 0.0441145 -0.0367615 -0.331871
v 0.0462935 -0.042018 -0.312966
v 0.038375 -0.031413 -0.339125
v 0.037344 -0.040482 0.002404
v 0.0378375 -0.0124665 0.0587645
v 0.0336957 -0.00233064 0.0623149
v 0.037478 0.001362 0.061026
v 0.03537 0.007886 0.065854
v 0.039167 -0.000807 0.063256
v 0.037675 0.004626 0.064371
v 0.0372445 -0.042327 -0.0395415
v 0.03564 0.00588 0.062305
v 0.0317316 -0.0415268 0.0380192
v 0.037676 -0.037018 0.03559
v 0.0371675 -0.027112 0.051577
v 0.030639 -0.045138 -0.113662
v 0.031356 -0.042768 -0.163722
v 0.020603 -0.04402 -0.267384
v 0.0273892 -0.04132 -0.27895
v 0.025621 -0.041524 -0.266727
v 0.03025 -0.041613 -0.284058
v 0.004136 0.015268 0.071166
v 0.010524 0.015164 0.070643
v -0.003552 0.015529 0.071279
v -0.011555 0.015663 0.071199
v -0.025095 -0.0288125 -0.273359
v -0.028807 0.012627 0.065802
v -0.027089 0.013659 0.067012
v -0.02704 -0.025199 -0.268938
v -0.028664 -0.021717 -0.265673
v -0.0351033 -0.00231297 0.062134
v -0.029282 -0.0426584 0.0403585
v -0.0300065 -0.045532 0.0221531
v -0.032074 -0.011637 -0.258799
v -0.03608 0.005836 0.062131
v -0.0375133 -0.0301049 0.0489756
v -0.035917 0.008732 -0.242608
v -0.0379015 -0.0094385 0.0594435
v -0.0379433 -0.0335905 0.043147
v -0.037279 -0.040901 -0.015303
v -0.037539 -0.03874 0.024695
v -0.0367073 -0.0416315 -0.034194
v -0.037749 -0.040634 -0.045431
v -0.0390326 -0.0277328 -0.0966072
v -0.038177 -0.024571 0.05316
v -0.037633 -0.033757 -0.088876
v -0.038668 -0.009296 0.05964
v -0.038523 -0.014317 0.058383
v -0.0396055 -0.0283155 -0.0952445
v -0.0413875 -0.0163445 -0.103436
v -0.043342 0.002531 -0.112098
f 3 2 1
f 2 3 1
f 4 2 3
f 2 4 3
f 6 5 2
f 7 5 6
f 7 8 5
f 7 9 8
f 6 10 7
f 11 19 8
f 9 11 8
f 12 11 9
f 7 11 9
f 7 12 11
f 12 19 11
f 7 19 12
f 13 5 8
f 19 16 8
f 13 14 8
f 14 13 8
f 8 14 13
f 15 19 7
f 16 14 8
f 19 17 16
f 17 14 16
f 15 18 19
f 14 19 16
f 15 7 10
f 20 15 6
f 15 10 6
f 2 20 6
f 14 17 19
f 2 5 20
f 19 13 14
f 18 15 20
f 5 13 19
f 18 5 19
f 5 18 20
f 22 25 21
f 24 23 21
f 21 25 24
f 23 22 21
f 23 25 22
f 25 23 24
f 27 25 23
f 26 27 23
f 25 26 23
f 27 26 25
f 29 31 28
f 30 29 28
f 31 30 28
f 30 31 29
f 31 32 30
f 33 31 30
f 32 33 30
f 33 32 31
f 36 35 34
f 35 37 34
f 39 38 34
f 34 42 36
f 37 40 34
f 40 39 34
f 36 34 35
f 38 39 40
f 37 35 34
f 40 37 34
f 36 42 34
f 38 40 34
f 41 42 36
f 42 41 36
f 41 75 42
f 39 43 38
f 43 39 38
f 46 47 38
f 43 46 38
f 47 43 38
f 75 45 42
f 45 41 42
f 48 43 47
f 51 48 47
f 85 46 43
f 69 75 41
f 45 69 41
f 47 58 51
f 49 85 43
f 48 49 43
f 50 53 44
f 53 73 44
f 73 83 44
f 52 58 47
f 51 55 48
f 55 54 48
f 61 56 51
f 90 85 44
f 83 90 44
f 57 55 51
f 51 56 57
f 57 54 55
f 56 55 57
f 55 56 54
f 56 48 54
f 83 44 59
f 49 59 44
f 52 51 58
f 60 61 51
f 44 85 49
f 48 59 49
f 60 56 61
f 52 60 51
f 56 74 48
f 46 72 47
f 72 52 47
f 65 59 48
f 66 74 56
f 60 66 56
f 52 66 60
f 72 64 52
f 65 62 59
f 52 63 66
f 75 82 45
f 74 65 48
f 67 59 62
f 79 74 66
f 52 64 63
f 74 62 65
f 85 68 46
f 64 66 63
f 70 59 67
f 70 71 59
f 71 83 59
f 70 67 62
f 73 53 50
f 79 66 64
f 72 79 64
f 46 69 72
f 69 79 72
f 74 70 62
f 75 69 46
f 68 75 46
f 78 82 75
f 76 77 70
f 77 71 70
f 68 78 75
f 74 76 70
f 44 73 50
f 83 73 44
f 45 82 69
f 82 79 69
f 76 71 77
f 78 80 82
f 80 81 82
f 76 83 71
f 78 68 79
f 68 85 79
f 85 74 79
f 84 73 53
f 82 78 79
f 73 84 53
f 76 90 83
f 85 90 76
f 74 85 76
f 87 88 86
f 88 89 86
f 89 87 86
f 89 88 87
f 85 80 90
f 90 91 85
f 89 80 85
f 81 89 85
f 91 81 85
f 82 80 78
f 81 80 89
f 81 80 82
f 91 90 80
f 81 91 80
f 118 117 92
f 93 118 92
f 112 93 92
f 94 95 112
f 95 93 112
f 96 118 93
f 95 97 93
f 94 98 95
f 99 96 93
f 97 99 93
f 100 99 97
f 95 101 97
f 101 102 97
f 103 104 97
f 102 103 97
f 104 100 97
f 105 101 95
f 98 105 95
f 120 106 119
f 122 107 108
f 124 122 108
f 92 130 112
f 120 113 106
f 109 162 110
f 110 146 109
f 144 108 107
f 172 148 120
f 117 227 92
f 227 300 92
f 300 115 92
f 170 112 92
f 150 170 92
f 115 150 92
f 116 94 112
f 170 116 112
f 111 92 112
f 129 120 119
f 148 189 120
f 165 172 120
f 201 235 109
f 235 162 109
f 138 119 121
f 137 98 94
f 114 146 110
f 125 250 122
f 123 110 162
f 124 125 122
f 113 142 106
f 108 127 124
f 120 141 113
f 333 128 127
f 455 138 121
f 131 124 127
f 111 130 92
f 128 333 133
f 132 128 133
f 189 141 120
f 128 134 127
f 135 132 133
f 126 157 137
f 106 121 119
f 134 128 132
f 138 143 119
f 143 129 119
f 165 120 129
f 134 131 127
f 136 125 124
f 122 158 107
f 158 316 107
f 131 136 124
f 139 136 131
f 134 139 131
f 350 134 132
f 380 350 132
f 140 127 108
f 135 380 132
f 161 135 133
f 140 333 127
f 257 108 144
f 333 161 133
f 157 98 137
f 257 140 108
f 113 141 142
f 130 111 112
f 116 126 137
f 115 170 150
f 145 103 102
f 145 147 103
f 145 104 103
f 94 116 137
f 102 147 145
f 147 104 145
f 147 102 104
f 193 101 105
f 177 104 102
f 118 153 151
f 177 100 104
f 114 154 146
f 152 154 114
f 118 151 117
f 156 153 118
f 153 156 151
f 172 159 148
f 391 455 121
f 96 156 118
f 106 391 121
f 340 158 122
f 164 135 161
f 148 159 155
f 159 196 155
f 129 143 138
f 116 129 138
f 163 333 140
f 257 144 107
f 101 149 102
f 163 140 257
f 166 257 107
f 250 218 122
f 138 455 126
f 167 170 168
f 156 175 151
f 155 189 148
f 169 154 152
f 177 102 149
f 175 117 151
f 115 168 170
f 193 173 101
f 180 101 173
f 203 180 173
f 156 174 175
f 156 96 174
f 160 194 105
f 455 157 126
f 157 105 98
f 187 203 173
f 178 116 170
f 178 129 116
f 96 176 174
f 286 201 109
f 179 160 105
f 277 178 170
f 227 117 175
f 180 149 101
f 172 171 159
f 1153 175 174
f 1153 174 181
f 1153 222 175
f 182 179 105
f 183 184 180
f 115 186 168
f 149 180 177
f 187 173 193
f 180 185 177
f 184 185 180
f 188 227 175
f 333 164 161
f 165 129 191
f 129 197 191
f 171 172 191
f 172 165 191
f 129 178 197
f 138 126 116
f 176 223 174
f 192 223 176
f 194 187 105
f 219 182 105
f 187 193 105
f 146 286 109
f 311 142 141
f 185 100 177
f 195 171 191
f 142 391 106
f 167 277 170
f 211 105 157
f 194 198 187
f 199 200 184
f 200 185 184
f 202 199 184
f 202 200 199
f 199 185 200
f 155 258 189
f 242 262 122
f 262 340 122
f 202 185 199
f 183 202 184
f 202 100 185
f 183 100 202
f 171 196 159
f 204 198 194
f 183 99 100
f 203 99 183
f 180 203 183
f 242 122 218
f 316 158 201
f 212 146 154
f 190 203 187
f 204 207 198
f 198 208 187
f 207 209 198
f 209 210 198
f 210 208 198
f 205 333 163
f 196 270 155
f 189 311 141
f 208 339 187
f 169 212 154
f 213 190 187
f 339 213 187
f 160 204 194
f 211 219 105
f 214 227 188
f 215 216 247
f 1153 221 222
f 280 221 1153
f 223 181 174
f 286 316 201
f 764 769 223
f 192 764 223
f 228 225 214
f 228 226 214
f 294 228 214
f 226 227 214
f 229 764 192
f 176 229 192
f 96 372 176
f 372 231 176
f 231 230 176
f 230 229 176
f 310 233 217
f 311 234 142
f 461 166 107
f 216 243 217
f 239 209 207
f 299 258 155
f 239 210 209
f 204 209 207
f 216 240 243
f 240 241 243
f 215 242 216
f 242 252 216
f 252 240 216
f 204 239 209
f 251 215 247
f 244 245 239
f 244 210 239
f 246 244 239
f 204 246 239
f 245 210 244
f 246 245 244
f 248 217 243
f 256 232 247
f 179 204 160
f 179 246 204
f 210 245 246
f 179 210 246
f 179 208 210
f 241 249 240
f 252 241 240
f 306 171 195
f 252 249 241
f 249 243 241
f 217 196 216
f 196 247 216
f 243 249 252
f 237 272 220
f 408 237 420
f 273 272 237
f 232 251 247
f 252 250 243
f 215 224 235
f 235 123 162
f 265 310 217
f 347 273 237
f 238 347 237
f 408 238 237
f 255 215 235
f 248 265 217
f 196 256 247
f 250 254 218
f 461 257 166
f 253 224 215
f 254 250 252
f 260 248 243
f 255 242 215
f 242 218 252
f 218 254 252
f 201 259 235
f 206 197 236
f 264 253 215
f 250 260 243
f 340 201 158
f 251 264 215
f 261 294 263
f 300 186 115
f 217 270 196
f 455 266 157
f 253 235 224
f 259 267 235
f 203 305 99
f 267 255 235
f 269 301 242
f 256 196 171
f 167 197 268
f 271 372 96
f 277 167 268
f 315 264 251
f 316 461 107
f 279 408 420
f 275 242 255
f 267 259 255
f 274 276 163
f 276 205 163
f 260 265 248
f 197 277 268
f 233 270 217
f 179 339 208
f 275 338 242
f 225 226 228
f 99 271 96
f 278 219 211
f 300 263 186
f 281 225 228
f 281 226 225
f 331 237 220
f 300 282 263
f 223 319 181
f 282 283 263
f 283 261 263
f 333 287 164
f 578 600 284
f 261 281 228
f 300 227 226
f 281 300 226
f 211 349 278
f 285 231 372
f 221 280 222
f 349 211 157
f 277 197 178
f 272 331 220
f 331 420 237
f 421 230 231
f 257 274 163
f 404 259 201
f 340 404 201
f 276 289 205
f 290 333 205
f 289 290 205
f 291 292 261
f 292 293 261
f 293 294 261
f 325 123 235
f 295 578 284
f 600 295 284
f 182 339 179
f 297 228 294
f 293 297 294
f 321 231 285
f 290 289 276
f 320 290 289
f 296 298 308
f 281 261 283
f 233 155 270
f 329 296 308
f 306 256 171
f 259 359 255
f 299 189 258
f 359 400 255
f 301 262 242
f 448 347 238
f 281 282 300
f 253 325 235
f 400 275 255
f 393 269 242
f 338 393 242
f 345 372 271
f 302 303 308
f 303 329 308
f 203 304 305
f 345 271 288
f 290 320 333
f 276 320 290
f 408 332 238
f 296 307 298
f 307 308 298
f 99 305 271
f 219 339 182
f 315 251 232
f 318 265 260
f 155 309 299
f 136 337 125
f 337 260 125
f 314 212 169
f 282 281 283
f 233 309 155
f 318 310 265
f 305 288 271
f 317 264 315
f 318 233 310
f 304 322 305
f 322 288 305
f 296 323 307
f 324 292 297
f 293 324 297
f 297 261 228
f 232 317 315
f 291 261 297
f 292 291 297
f 324 291 292
f 444 421 321
f 293 292 324
f 372 312 285
f 125 260 250
f 306 232 256
f 326 146 212
f 461 274 257
f 345 363 372
f 552 444 321
f 264 325 253
f 421 231 321
f 328 306 195
f 190 528 203
f 325 313 123
f 313 325 264
f 302 330 303
f 330 329 303
f 514 142 234
f 219 278 339
f 332 448 238
f 139 337 136
f 317 313 264
f 337 335 260
f 302 329 330
f 349 334 278
f 336 318 260
f 496 135 164
f 312 552 321
f 285 312 321
f 306 313 317
f 232 306 317
f 336 233 318
f 336 309 233
f 341 408 279
f 342 345 288
f 343 363 345
f 344 327 308
f 327 302 308
f 296 329 302
f 345 346 343
f 348 363 343
f 314 326 212
f 276 333 320
f 345 348 343
f 346 345 342
f 346 348 345
f 354 397 275
f 397 338 275
f 342 348 346
f 393 351 269
f 352 308 307
f 288 322 342
f 322 353 342
f 420 341 279
f 348 342 353
f 355 356 322
f 304 355 322
f 357 355 304
f 357 353 322
f 356 357 322
f 356 357 353
f 357 355 353
f 355 348 353
f 304 356 357
f 356 355 357
f 304 358 356
f 358 355 356
f 355 358 348
f 327 323 302
f 323 296 302
f 352 344 308
f 323 352 307
f 361 363 348
f 334 425 339
f 362 363 348
f 363 361 348
f 366 362 348
f 278 334 339
f 304 364 358
f 358 366 348
f 367 364 304
f 370 367 304
f 363 362 361
f 365 354 275
f 362 366 363
f 364 366 358
f 368 369 363
f 203 370 304
f 326 434 146
f 266 349 157
f 366 368 363
f 397 393 338
f 351 301 269
f 323 371 352
f 301 373 262
f 533 374 259
f 374 359 259
f 344 375 327
f 376 331 272
f 287 377 164
f 260 335 336
f 335 378 336
f 378 449 336
f 276 432 333
f 375 399 327
f 478 461 316
f 405 316 286
f 379 478 316
f 405 379 316
f 328 313 306
f 299 443 189
f 134 350 139
f 381 323 327
f 514 391 142
f 309 443 299
f 371 381 327
f 274 432 276
f 350 337 139
f 371 382 352
f 383 371 327
f 399 384 327
f 382 344 352
f 369 372 363
f 570 370 203
f 384 385 327
f 375 398 399
f 386 383 327
f 385 387 327
f 387 439 327
f 439 386 327
f 365 275 400
f 388 384 399
f 389 390 385
f 390 387 385
f 399 394 388
f 394 384 388
f 397 392 393
f 382 395 344
f 388 385 384
f 431 396 354
f 396 397 354
f 394 385 388
f 399 385 394
f 395 375 344
f 528 570 203
f 146 422 286
f 351 423 301
f 423 351 393
f 454 401 375
f 401 402 375
f 402 403 375
f 403 398 375
f 398 387 399
f 414 339 425
f 262 405 340
f 405 404 340
f 395 454 375
f 366 406 368
f 399 407 385
f 409 520 273
f 410 411 368
f 406 410 368
f 407 389 385
f 411 412 368
f 387 407 399
f 390 389 407
f 364 413 366
f 410 412 411
f 406 411 410
f 387 389 407
f 406 412 411
f 412 415 368
f 406 415 412
f 374 400 359
f 366 413 406
f 416 365 400
f 413 415 406
f 520 272 273
f 456 409 273
f 347 456 273
f 387 390 389
f 414 213 339
f 417 368 415
f 417 418 368
f 418 419 417
f 419 369 368
f 418 419 368
f 415 418 417
f 476 380 135
f 415 419 418
f 415 369 419
f 401 402 403
f 402 398 403
f 402 387 398
f 370 364 367
f 413 369 415
f 401 387 402
f 454 387 401
f 510 476 135
f 462 230 421
f 350 436 337
f 370 413 364
f 349 425 334
f 413 424 369
f 262 379 405
f 422 404 286
f 404 405 286
f 494 510 135
f 392 423 393
f 336 443 309
f 416 354 365
f 454 439 387
f 360 441 295
f 441 578 295
f 331 426 420
f 397 428 392
f 431 354 416
f 429 431 416
f 437 423 392
f 428 437 392
f 400 429 416
f 428 397 396
f 213 331 190
f 428 396 431
f 423 373 301
f 274 469 432
f 374 429 400
f 511 431 429
f 380 436 350
f 382 435 395
f 433 312 372
f 337 378 335
f 466 424 413
f 371 383 382
f 438 287 333
f 371 323 437
f 560 440 373
f 295 441 360
f 430 414 425
f 451 430 425
f 189 443 513
f 511 446 431
f 434 442 146
f 383 435 382
f 323 381 437
f 437 373 423
f 336 445 443
f 446 437 428
f 438 377 287
f 424 447 369
f 447 433 369
f 433 372 369
f 450 445 336
f 449 450 336
f 448 408 341
f 442 422 146
f 381 371 437
f 458 436 380
f 430 451 349
f 446 428 431
f 451 425 349
f 436 378 337
f 496 494 135
f 453 326 314
f 420 452 341
f 437 521 373
f 521 560 373
f 448 332 408
f 457 536 349
f 266 457 349
f 331 376 190
f 376 528 190
f 213 426 331
f 374 511 429
f 446 667 437
f 667 521 437
f 520 376 272
f 448 456 347
f 370 466 413
f 440 262 373
f 380 476 458
f 460 438 333
f 432 460 333
f 377 496 164
f 442 533 259
f 440 379 262
f 274 459 469
f 442 259 404
f 453 434 326
f 436 463 378
f 458 463 436
f 459 274 461
f 386 439 454
f 462 421 444
f 442 404 422
f 445 464 443
f 464 497 443
f 465 447 424
f 468 466 370
f 467 453 314
f 570 468 370
f 470 454 395
f 435 470 395
f 476 463 458
f 473 472 463
f 459 471 469
f 474 378 463
f 472 474 463
f 223 475 319
f 450 449 445
f 504 464 445
f 477 504 445
f 449 477 445
f 539 448 341
f 456 520 409
f 479 447 465
f 479 480 465
f 424 479 465
f 513 564 311
f 189 513 311
f 552 557 444
f 424 480 479
f 482 447 479
f 480 482 479
f 481 386 454
f 470 481 454
f 483 480 424
f 469 484 432
f 484 485 432
f 485 460 432
f 485 486 460
f 486 438 460
f 504 497 464
f 483 487 480
f 424 488 483
f 487 490 480
f 488 487 483
f 491 482 480
f 490 491 480
f 453 442 434
f 478 459 461
f 492 487 488
f 424 492 488
f 488 493 487
f 489 442 453
f 493 490 487
f 497 513 443
f 493 491 490
f 492 493 488
f 424 493 492
f 466 493 424
f 493 495 491
f 489 453 467
f 426 452 420
f 498 495 491
f 495 482 491
f 581 473 463
f 516 581 463
f 493 498 495
f 498 482 495
f 493 482 498
f 474 449 378
f 474 499 449
f 499 477 449
f 468 482 466
f 481 500 386
f 502 500 481
f 502 503 500
f 502 386 500
f 503 386 502
f 481 503 502
f 349 501 430
f 503 470 386
f 481 470 503
f 466 482 493
f 470 383 386
f 499 505 477
f 499 504 477
f 494 507 510
f 506 383 470
f 457 455 391
f 496 377 438
f 486 496 438
f 471 484 469
f 508 484 471
f 524 312 433
f 459 508 471
f 501 527 430
f 509 514 234
f 564 509 234
f 311 564 234
f 455 457 266
f 506 435 383
f 511 512 446
f 512 667 446
f 600 441 295
f 515 482 468
f 534 506 470
f 435 534 470
f 516 463 476
f 517 518 467
f 518 489 467
f 538 519 427
f 655 494 496
f 527 414 430
f 536 501 349
f 474 505 499
f 505 504 499
f 586 539 341
f 544 520 456
f 452 586 341
f 663 655 496
f 522 560 521
f 667 522 521
f 530 476 510
f 474 523 505
f 523 504 505
f 447 524 433
f 557 462 444
f 482 524 447
f 515 524 482
f 682 213 414
f 533 442 489
f 478 525 459
f 519 538 427
f 472 526 474
f 682 426 213
f 623 435 506
f 507 530 510
f 529 230 462
f 526 523 474
f 440 531 379
f 531 478 379
f 514 532 391
f 532 457 391
f 530 566 476
f 540 536 457
f 537 578 441
f 441 540 457
f 600 540 441
f 623 534 435
f 531 525 478
f 535 515 468
f 570 535 468
f 512 511 374
f 457 537 441
f 541 542 520
f 544 541 520
f 543 448 539
f 544 456 448
f 720 544 448
f 545 720 448
f 543 545 448
f 542 376 520
f 538 546 519
f 635 519 546
f 547 635 546
f 548 547 546
f 549 548 546
f 631 549 546
f 552 312 551
f 553 610 230
f 529 553 230
f 610 554 552
f 630 550 551
f 524 551 312
f 524 625 551
f 625 630 551
f 554 557 552
f 554 555 557
f 556 625 524
f 462 553 529
f 557 553 462
f 515 558 524
f 558 588 524
f 588 584 524
f 559 631 538
f 631 546 538
f 561 504 523
f 562 527 501
f 563 475 223
f 757 563 223
f 769 757 223
f 504 604 497
f 536 562 501
f 507 566 530
f 561 604 504
f 565 532 514
f 567 558 515
f 535 568 515
f 569 570 528
f 376 569 528
f 414 577 682
f 586 452 426
f 571 515 568
f 567 571 568
f 535 572 568
f 572 571 568
f 571 567 515
f 573 574 526
f 574 523 526
f 472 573 526
f 604 651 497
f 566 507 494
f 622 476 566
f 572 567 571
f 494 622 566
f 575 558 567
f 576 575 567
f 575 576 558
f 572 558 576
f 572 575 567
f 527 577 414
f 572 576 575
f 572 588 558
f 610 229 230
f 622 516 476
f 579 580 570
f 551 610 552
f 550 610 551
f 584 556 524
f 555 582 557
f 582 583 557
f 585 512 374
f 533 585 374
f 574 561 523
f 535 588 572
f 587 541 544
f 635 589 519
f 589 538 519
f 574 590 561
f 590 591 561
f 591 592 561
f 592 593 561
f 593 594 561
f 594 604 561
f 580 535 570
f 532 595 457
f 595 596 457
f 596 537 457
f 537 540 600
f 651 513 497
f 562 644 527
f 589 559 538
f 596 540 537
f 596 536 540
f 564 597 509
f 597 514 509
f 736 536 596
f 599 553 557
f 583 599 557
f 580 588 535
f 588 617 584
f 600 601 537
f 602 623 506
f 601 578 537
f 536 644 562
f 534 605 506
f 605 602 506
f 681 570 569
f 606 573 472
f 527 603 577
f 573 590 574
f 598 617 588
f 573 591 590
f 591 592 590
f 644 603 527
f 573 592 591
f 594 608 573
f 608 593 573
f 593 609 573
f 609 593 573
f 593 592 573
f 606 594 573
f 611 612 583
f 582 611 583
f 614 599 583
f 614 583 612
f 615 611 612
f 229 610 550
f 611 614 612
f 582 615 611
f 615 614 611
f 544 669 587
f 636 229 550
f 651 616 513
f 618 547 548
f 619 620 548
f 620 618 548
f 556 621 625
f 584 617 556
f 619 618 620
f 623 670 534
f 670 605 534
f 582 614 615
f 608 594 593
f 621 624 625
f 626 547 618
f 620 626 618
f 624 621 556
f 549 619 548
f 582 599 614
f 549 627 619
f 627 620 619
f 593 608 609
f 622 581 516
f 628 624 621
f 627 629 620
f 629 626 620
f 626 629 547
f 628 624 556
f 628 625 624
f 627 626 629
f 617 628 556
f 629 627 549
f 582 632 599
f 633 582 555
f 633 555 554
f 634 632 582
f 625 617 630
f 633 634 582
f 628 617 625
f 634 633 554
f 547 629 635
f 559 635 629
f 549 559 629
f 631 559 549
f 630 636 550
f 553 554 610
f 617 636 630
f 553 599 554
f 599 632 554
f 632 634 554
f 632 633 634
f 606 604 594
f 597 565 514
f 560 602 605
f 736 637 536
f 637 644 536
f 613 539 586
f 669 541 587
f 605 674 560
f 714 639 607
f 640 636 617
f 641 640 617
f 598 641 617
f 376 642 569
f 542 654 376
f 654 642 376
f 642 683 426
f 683 586 426
f 682 642 426
f 670 674 605
f 639 643 607
f 473 606 472
f 655 622 494
f 718 603 644
f 525 508 459
f 645 646 580
f 646 647 580
f 647 648 580
f 648 588 580
f 579 649 580
f 649 650 580
f 650 645 580
f 484 652 485
f 652 486 485
f 653 736 596
f 595 653 596
f 486 663 496
f 508 652 484
f 690 652 508
f 533 685 585
f 638 667 512
f 656 564 513
f 616 656 513
f 689 602 560
f 541 654 542
f 688 638 585
f 577 855 682
f 688 661 638
f 522 674 560
f 674 689 560
f 606 651 604
f 646 645 647
f 646 648 647
f 657 640 641
f 588 658 598
f 650 659 645
f 679 588 648
f 645 648 646
f 659 660 645
f 660 648 645
f 648 662 679
f 652 663 486
f 679 658 588
f 660 664 648
f 652 473 581
f 665 543 539
f 664 666 648
f 668 664 660
f 659 668 660
f 667 688 585
f 685 667 585
f 666 662 648
f 649 650 659
f 650 662 659
f 664 662 666
f 668 662 664
f 662 668 659
f 669 654 541
f 613 665 539
f 649 662 650
f 678 662 649
f 579 678 649
f 598 658 679
f 670 672 674
f 675 598 679
f 673 657 641
f 671 673 641
f 740 665 586
f 690 473 652
f 675 641 598
f 676 673 671
f 641 676 671
f 678 677 662
f 671 657 673
f 699 670 623
f 676 657 671
f 675 676 641
f 677 679 662
f 687 440 560
f 675 657 676
f 638 688 667
f 678 579 570
f 656 597 564
f 674 522 560
f 522 687 560
f 602 699 623
f 643 680 607
f 684 718 644
f 665 613 586
f 473 695 606
f 637 684 644
f 686 687 667
f 685 686 667
f 655 581 622
f 559 589 635
f 578 601 600
f 667 687 522
f 661 688 638
f 652 581 655
f 695 717 606
f 701 689 674
f 672 701 674
f 525 690 508
f 663 652 655
f 533 489 518
f 654 691 642
f 717 651 606
f 683 740 586
f 720 669 544
f 700 661 688
f 692 657 675
f 679 692 675
f 682 855 569
f 855 681 569
f 642 682 569
f 691 683 642
f 693 677 678
f 694 640 657
f 692 694 657
f 677 692 679
f 690 695 473
f 696 692 677
f 696 697 692
f 697 698 696
f 677 697 696
f 698 697 677
f 697 702 692
f 698 702 697
f 689 699 602
f 525 695 690
f 699 689 670
f 677 693 698
f 693 702 698
f 661 700 688
f 702 694 692
f 725 616 651
f 701 672 670
f 703 640 694
f 704 705 694
f 705 703 694
f 706 704 694
f 681 678 570
f 684 637 718
f 707 706 694
f 680 714 607
f 440 525 531
f 708 707 694
f 702 708 694
f 689 701 670
f 693 708 702
f 440 695 525
f 710 518 517
f 709 708 693
f 518 685 533
f 717 725 651
f 678 711 693
f 709 693 711
f 680 685 714
f 713 709 711
f 744 713 711
f 687 695 440
f 710 685 518
f 719 765 715
f 712 717 695
f 685 710 714
f 716 719 715
f 637 771 718
f 765 716 715
f 731 685 680
f 709 721 708
f 721 722 708
f 722 723 708
f 723 707 708
f 721 723 722
f 656 773 597
f 709 722 721
f 722 707 723
f 703 705 704
f 765 724 716
f 709 707 722
f 713 727 703
f 727 640 703
f 705 713 703
f 704 713 705
f 706 713 704
f 724 1179 716
f 559 726 719
f 727 798 640
f 707 713 706
f 709 713 707
f 1179 719 716
f 730 559 719
f 730 589 559
f 1179 730 719
f 687 732 695
f 732 712 695
f 720 654 669
f 741 665 740
f 739 654 720
f 733 734 686
f 734 687 686
f 735 733 686
f 731 735 685
f 685 735 686
f 665 545 543
f 603 855 577
f 737 656 616
f 738 559 589
f 759 616 725
f 545 739 720
f 729 732 687
f 754 678 681
f 754 711 678
f 744 727 713
f 761 603 718
f 761 855 603
f 750 725 717
f 741 545 665
f 597 773 565
f 771 761 718
f 728 1180 724
f 712 750 717
f 745 743 746
f 745 742 743
f 759 737 616
f 751 735 731
f 748 761 771
f 730 738 589
f 738 749 559
f 798 636 640
f 749 726 559
f 736 771 637
f 957 771 736
f 732 778 712
f 778 750 712
f 742 747 743
f 750 759 725
f 691 740 683
f 729 752 732
f 752 778 732
f 755 752 729
f 756 691 654
f 687 734 729
f 734 733 729
f 733 755 729
f 726 765 719
f 1189 745 746
f 758 792 754
f 792 711 754
f 751 843 735
f 792 744 711
f 1180 1179 724
f 636 764 229
f 766 743 747
f 766 746 743
f 739 756 654
f 691 741 740
f 545 756 739
f 753 768 760
f 843 807 735
f 807 733 735
f 756 767 691
f 741 770 545
f 744 763 727
f 772 563 757
f 758 801 792
f 762 758 754
f 656 1053 773
f 774 775 733
f 775 755 733
f 768 738 760
f 906 736 653
f 776 801 758
f 777 776 758
f 778 759 750
f 762 779 758
f 779 780 758
f 765 728 724
f 782 781 747
f 742 782 747
f 886 747 781
f 859 728 765
f 783 886 781
f 782 783 781
f 787 785 784
f 786 787 784
f 788 785 787
f 786 653 787
f 653 789 787
f 789 788 787
f 791 748 790
f 792 763 744
f 748 908 790
f 801 794 792
f 791 761 748
f 780 777 758
f 794 793 792
f 777 780 779
f 752 795 778
f 762 780 779
f 545 767 756
f 770 741 691
f 770 767 545
f 762 776 780
f 776 777 780
f 762 805 776
f 636 796 764
f 764 796 769
f 796 757 769
f 786 906 653
f 755 797 752
f 755 795 752
f 799 774 733
f 807 799 733
f 775 797 755
f 800 795 755
f 797 800 755
f 770 691 767
f 737 1053 656
f 775 800 797
f 805 801 776
f 799 800 775
f 636 810 796
f 796 810 757
f 726 749 765
f 773 532 565
f 774 799 775
f 798 892 636
f 681 762 754
f 892 802 636
f 802 810 636
f 810 772 757
f 803 738 768
f 749 866 765
f 771 908 748
f 1053 737 759
f 532 804 595
f 805 806 833
f 798 727 763
f 1178 803 768
f 808 809 803
f 803 809 738
f 810 814 772
f 809 811 738
f 811 749 738
f 812 813 810
f 813 814 810
f 1178 814 803
f 813 808 803
f 814 813 803
f 843 815 807
f 859 816 728
f 817 806 805
f 681 818 762
f 819 806 817
f 819 820 817
f 820 806 819
f 819 818 820
f 818 806 820
f 805 818 817
f 818 819 817
f 681 806 818
f 818 805 762
f 813 822 808
f 822 809 808
f 812 822 813
f 811 823 749
f 892 824 802
f 879 782 742
f 791 825 761
f 825 821 761
f 826 783 782
f 831 825 791
f 815 832 807
f 866 859 765
f 595 789 653
f 827 828 829
f 828 867 829
f 867 887 829
f 830 827 829
f 830 846 827
f 793 763 792
f 879 826 782
f 850 831 791
f 790 850 791
f 831 821 825
f 889 832 815
f 854 1180 728
f 886 766 747
f 728 834 854
f 879 837 826
f 992 831 850
f 837 838 826
f 840 783 826
f 826 839 840
f 841 976 840
f 842 992 850
f 976 836 840
f 836 783 840
f 790 836 850
f 887 830 829
f 846 828 827
f 790 784 836
f 786 784 790
f 1011 886 836
f 908 852 790
f 886 783 836
f 785 836 784
f 790 906 786
f 844 879 742
f 681 847 806
f 855 835 681
f 806 848 833
f 851 799 807
f 845 850 836
f 766 1189 746
f 849 847 681
f 832 851 807
f 976 1041 836
f 1116 853 833
f 848 806 847
f 862 821 831
f 849 870 847
f 850 906 790
f 852 850 790
f 836 785 845
f 795 936 778
f 1041 1011 836
f 852 842 850
f 805 794 801
f 957 908 771
f 844 845 879
f 844 850 845
f 844 861 850
f 864 850 861
f 870 848 847
f 835 849 681
f 862 858 857
f 860 866 749
f 823 860 749
f 821 855 761
f 863 1180 854
f 857 821 862
f 763 856 798
f 936 759 778
f 856 865 798
f 868 867 877
f 857 902 821
f 902 869 821
f 869 855 821
f 870 868 877
f 844 871 861
f 835 868 849
f 873 868 870
f 874 875 873
f 875 868 873
f 874 849 875
f 849 868 875
f 865 892 798
f 870 875 873
f 846 867 828
f 874 870 849
f 870 874 875
f 876 1180 863
f 848 872 833
f 853 805 833
f 898 877 867
f 870 877 848
f 887 876 863
f 960 942 830
f 942 846 830
f 942 878 846
f 867 876 887
f 868 876 867
f 763 880 856
f 814 1178 772
f 881 859 866
f 785 882 845
f 882 879 845
f 883 906 850
f 864 883 850
f 869 835 855
f 877 884 848
f 860 881 866
f 858 902 857
f 880 885 856
f 1189 904 889
f 889 1132 832
f 965 736 906
f 888 865 856
f 1013 861 871
f 885 888 856
f 800 936 795
f 890 888 885
f 891 890 885
f 880 891 885
f 880 890 891
f 892 865 888
f 1108 879 882
f 864 893 883
f 894 888 890
f 880 894 890
f 785 789 895
f 894 892 888
f 897 785 895
f 816 834 728
f 936 899 759
f 854 952 863
f 900 816 859
f 835 901 868
f 901 876 868
f 955 851 832
f 1118 889 904
f 872 903 833
f 896 904 897
f 895 896 897
f 900 952 854
f 834 900 854
f 900 923 816
f 894 905 892
f 794 763 793
f 904 975 897
f 901 909 844
f 909 910 844
f 910 871 844
f 1189 766 904
f 1110 1118 904
f 924 910 909
f 937 924 909
f 788 789 785
f 1013 871 910
f 911 1013 910
f 913 895 595
f 804 913 595
f 895 789 595
f 766 975 904
f 905 824 892
f 816 923 834
f 901 918 909
f 914 937 909
f 915 914 909
f 912 915 909
f 965 957 736
f 992 862 831
f 869 907 835
f 907 924 835
f 924 937 835
f 937 901 835
f 916 917 883
f 893 916 883
f 773 804 532
f 901 937 918
f 919 918 937
f 921 919 937
f 922 896 895
f 1025 804 773
f 995 898 867
f 924 907 920
f 863 1030 887
f 915 912 914
f 869 925 907
f 923 900 834
f 926 906 883
f 917 926 883
f 927 1052 914
f 912 927 914
f 879 928 837
f 928 838 837
f 838 839 837
f 822 929 809
f 929 811 809
f 930 812 810
f 802 931 810
f 931 930 810
f 799 936 800
f 884 932 848
f 945 911 910
f 785 933 882
f 887 960 830
f 948 934 846
f 934 867 846
f 878 948 846
f 950 995 867
f 917 935 926
f 935 1045 926
f 934 950 867
f 943 802 824
f 938 910 924
f 913 922 895
f 1016 1053 759
f 931 943 824
f 942 939 878
f 940 941 833
f 839 826 838
f 905 943 824
f 903 940 833
f 928 839 838
f 887 937 960
f 937 944 960
f 944 933 960
f 938 934 948
f 945 938 948
f 946 945 948
f 933 947 882
f 947 1108 882
f 794 880 763
f 872 949 903
f 949 940 903
f 894 943 905
f 960 958 942
f 939 948 878
f 880 1018 894
f 946 906 926
f 848 932 872
f 992 858 862
f 859 952 900
f 938 945 910
f 944 937 914
f 1052 944 914
f 869 999 925
f 995 877 898
f 951 1108 947
f 1030 937 887
f 938 924 934
f 924 950 934
f 928 840 839
f 897 933 785
f 953 951 947
f 954 953 947
f 939 956 948
f 999 907 925
f 956 959 948
f 931 802 943
f 1040 958 960
f 933 948 960
f 948 959 960
f 959 1040 960
f 933 946 948
f 1052 954 947
f 945 946 926
f 1045 945 926
f 933 944 947
f 944 1052 947
f 851 936 799
f 1045 1044 945
f 811 860 823
f 946 965 906
f 894 961 943
f 1018 961 894
f 897 962 933
f 932 949 872
f 902 963 869
f 1132 955 832
f 943 930 931
f 964 928 879
f 1141 930 943
f 928 841 840
f 1131 860 811
f 929 1131 811
f 961 1141 943
f 1012 881 860
f 903 967 940
f 967 941 940
f 949 967 940
f 962 946 933
f 962 965 946
f 928 969 841
f 961 971 860
f 971 970 860
f 970 1012 860
f 1141 961 860
f 1131 1133 860
f 1133 1141 860
f 972 971 961
f 1018 972 961
f 881 952 859
f 853 794 805
f 1096 909 918
f 973 841 969
f 963 999 869
f 974 973 969
f 968 1116 833
f 928 973 969
f 973 974 841
f 973 976 974
f 941 977 833
f 928 976 973
f 976 841 974
f 977 968 833
f 919 1096 918
f 899 1016 759
f 1011 886 966
f 908 1046 852
f 1024 975 766
f 992 978 858
f 979 1096 919
f 979 980 919
f 921 979 919
f 907 999 920
f 928 1041 976
f 1011 966 886
f 949 941 967
f 921 980 979
f 981 987 971
f 982 983 941
f 983 977 941
f 964 1041 928
f 794 1018 880
f 984 977 983
f 985 1096 979
f 980 985 979
f 987 970 971
f 982 984 983
f 986 982 941
f 949 986 941
f 978 902 858
f 988 986 949
f 989 988 949
f 990 981 971
f 986 984 983
f 982 986 983
f 988 991 986
f 991 993 986
f 896 1110 904
f 921 985 980
f 972 990 971
f 993 994 986
f 986 977 984
f 994 1123 986
f 990 987 981
f 977 1116 968
f 1123 977 986
f 997 1116 977
f 987 1002 970
f 1123 998 977
f 957 1046 908
f 998 997 977
f 853 1116 794
f 1011 766 886
f 1000 1002 987
f 1001 996 990
f 996 987 990
f 975 962 897
f 996 1000 987
f 1002 1004 970
f 978 1013 902
f 1005 990 972
f 1011 1024 766
f 996 1002 1000
f 990 1005 1001
f 996 1003 1002
f 1001 1010 996
f 1018 1005 972
f 936 851 899
f 1006 985 921
f 1007 1008 921
f 1006 1009 985
f 1008 1006 921
f 937 1007 921
f 1008 1007 1006
f 1005 1010 1001
f 1008 1009 1006
f 1013 999 963
f 902 1013 963
f 1005 1014 1010
f 1119 877 995
f 937 1009 1007
f 1118 1132 889
f 1020 1015 970
f 1015 1012 970
f 1004 1020 970
f 952 1017 863
f 1007 1009 1008
f 1017 1030 863
f 978 864 861
f 1002 1003 1004
f 1019 1014 1005
f 996 1021 1003
f 881 1017 952
f 920 1023 924
f 1014 996 1010
f 1020 1004 1003
f 992 864 978
f 1005 1018 1019
f 1018 1015 1020
f 1012 1017 881
f 1019 1021 996
f 1014 1019 996
f 927 912 915
f 1021 1020 1003
f 1018 1021 1019
f 1012 1015 942
f 1015 939 942
f 1013 978 861
f 909 1096 912
f 1052 927 912
f 950 1026 995
f 958 1027 942
f 1046 842 852
f 917 935 916
f 999 1023 920
f 1018 939 1015
f 1018 1020 1021
f 953 1028 951
f 945 1029 911
f 893 917 916
f 954 1028 953
f 1132 851 955
f 1027 1012 942
f 1026 1022 995
f 893 935 917
f 1030 1017 1012
f 1053 1031 773
f 1031 1025 773
f 1028 1032 953
f 1032 951 953
f 851 1016 899
f 1027 958 1012
f 958 1033 1012
f 1033 1030 1012
f 1018 956 939
f 1034 956 1018
f 965 1046 957
f 951 1032 1108
f 893 1045 935
f 1029 1036 911
f 1108 964 879
f 1039 1013 911
f 954 1032 1028
f 912 1035 1052
f 1034 959 956
f 1036 1039 911
f 1023 950 924
f 1037 1036 1029
f 945 1044 1029
f 1038 1037 1029
f 1037 1038 1036
f 958 1009 937
f 1030 1033 937
f 1125 1034 794
f 1039 1038 1029
f 1023 1026 950
f 1037 1039 1036
f 1034 1018 794
f 864 1045 893
f 1038 1039 1037
f 1023 1043 1026
f 1040 959 1034
f 1047 1035 912
f 1132 1016 851
f 1109 1046 965
f 1033 958 937
f 1043 1022 1026
f 1042 1011 1041
f 1048 958 1040
f 1009 1096 985
f 1032 1105 1108
f 1023 1050 1043
f 1051 1039 1029
f 1044 1051 1029
f 932 989 949
f 1066 1105 1052
f 1105 954 1052
f 1051 1054 1055
f 1044 1054 1051
f 1056 1105 1066
f 1057 1119 995
f 1039 1051 1055
f 1096 1047 912
f 1058 1013 1039
f 1105 1032 954
f 1054 1058 1055
f 1022 1057 995
f 1045 1054 1044
f 1107 1024 1011
f 1047 1052 1035
f 999 1060 1023
f 1134 1040 1034
f 1054 1061 1058
f 1042 1062 1011
f 1042 1063 1062
f 1064 1063 1042
f 1062 1107 1011
f 1064 1062 1063
f 1048 1009 958
f 1067 1056 1066
f 1063 1107 1062
f 1100 975 1049
f 1024 1049 975
f 1070 1059 1068
f 1050 1071 1043
f 1072 1066 1065
f 1072 1067 1066
f 1067 1075 1056
f 1043 1073 1022
f 1073 1057 1022
f 1071 1074 1043
f 1066 1080 1065
f 1042 1107 1064
f 1107 1063 1064
f 1075 1082 1056
f 1109 1069 1070
f 1072 1067 1066
f 1072 1065 1067
f 1050 1078 1071
f 1079 1075 1067
f 1079 1067 1075
f 1081 1080 1066
f 1070 1049 1059
f 1076 1070 1068
f 1082 1087 1056
f 1024 1059 1049
f 1083 1105 1056
f 1078 1074 1071
f 1067 1065 1079
f 1052 1047 1066
f 1047 1081 1066
f 1084 1082 1075
f 1085 1084 1075
f 884 1086 932
f 1088 1056 1087
f 1088 1083 1056
f 1059 1076 1068
f 1089 1071 1078
f 1073 1074 1071
f 1089 1073 1071
f 1050 1089 1078
f 1073 1043 1074
f 1090 1085 1075
f 1060 1089 1050
f 1041 1091 1042
f 1092 1082 1084
f 1134 1048 1040
f 1090 1084 1085
f 1082 1093 1087
f 1083 1088 1087
f 1048 1094 1009
f 1094 1096 1009
f 1023 1060 1050
f 1081 1047 1052
f 1047 1081 1052
f 1095 1061 1054
f 1065 1075 1079
f 1092 1093 1082
f 1093 1088 1087
f 1095 1097 1061
f 1099 1075 1065
f 1099 1090 1075
f 964 1077 1041
f 1098 1100 1070
f 1099 1085 1090
f 1081 1065 1080
f 1099 1084 1085
f 1099 1092 1084
f 1047 1065 1081
f 1096 1137 1047
f 1137 1065 1047
f 1058 1039 1055
f 1099 1093 1092
f 1061 1138 1058
f 1093 1083 1088
f 1069 1098 1070
f 1101 1095 1054
f 1093 1105 1083
f 1077 1102 1041
f 1102 1091 1041
f 1100 1049 1070
f 1102 1103 1091
f 1102 1107 1091
f 1107 1042 1091
f 1101 1097 1095
f 1104 1101 1054
f 1104 1095 1101
f 1136 1104 1054
f 1104 1097 1095
f 1104 1061 1097
f 1104 1138 1061
f 1045 1136 1054
f 864 1136 1045
f 1128 1106 1070
f 1076 1128 1070
f 1139 1136 1059
f 1136 1076 1059
f 1136 1128 1076
f 1106 1109 1070
f 1025 913 804
f 1109 1098 1069
f 1144 1031 1053
f 1106 1111 1109
f 1111 1046 1109
f 1086 1112 932
f 1112 989 932
f 1107 1059 1024
f 1113 1112 1086
f 884 1112 1086
f 1114 1112 884
f 842 1115 992
f 1116 1125 794
f 877 1114 884
f 962 1109 965
f 1046 1111 842
f 1013 1117 999
f 1077 1103 1102
f 1103 1107 1102
f 1058 1120 1013
f 1120 1117 1013
f 1077 1107 1103
f 1117 1060 999
f 1112 1113 989
f 988 993 991
f 964 1107 1077
f 1114 988 989
f 992 1115 864
f 998 1116 997
f 993 1121 994
f 1121 1123 994
f 998 1122 997
f 1113 1114 989
f 1114 991 988
f 998 1124 1116
f 1114 993 991
f 1122 1124 998
f 1058 1135 1120
f 962 1098 1109
f 998 1124 1122
f 1114 994 993
f 1123 1124 998
f 1112 1114 1113
f 1114 1121 994
f 1140 964 1108
f 1114 1123 1121
f 877 1119 1114
f 1139 1059 1107
f 1135 1117 1120
f 1123 1125 1116
f 1140 1107 964
f 1124 1123 1116
f 1140 1139 1107
f 1126 1136 864
f 1119 1123 1114
f 1115 1126 864
f 1119 1125 1123
f 1094 1137 1096
f 1125 1134 1034
f 842 1128 1115
f 1128 1127 1115
f 1127 1126 1115
f 1136 1126 1128
f 1073 1129 1057
f 1135 1060 1117
f 1128 1130 1106
f 842 1106 1130
f 1146 930 1141
f 1128 842 1130
f 842 1111 1106
f 1126 1127 1128
f 1130 1127 1128
f 1129 1119 1057
f 1016 1144 1053
f 929 1133 1131
f 1129 1125 1119
f 1098 975 1100
f 1142 1146 1141
f 1134 1125 1129
f 1135 1089 1060
f 1110 913 1025
f 922 1110 896
f 1110 922 913
f 1137 1099 1065
f 1108 1105 1140
f 1089 1129 1073
f 1136 1138 1104
f 1138 1135 1058
f 1129 1089 1135
f 1099 1140 1093
f 1135 1134 1129
f 962 975 1098
f 1134 1094 1048
f 1093 1140 1105
f 1137 1140 1099
f 1134 1137 1094
f 1135 1138 1140
f 1138 1139 1140
f 1138 1136 1139
f 1134 1135 1137
f 1137 1135 1140
f 1031 1110 1025
f 1143 1142 1141
f 1031 1118 1110
f 1118 1016 1132
f 1145 1141 1133
f 1145 1143 1141
f 1142 1143 1145
f 929 1145 1133
f 929 1142 1145
f 1146 1142 929
f 1016 1031 1144
f 1031 1016 1118
f 929 822 812
f 930 929 812
f 1146 929 930
f 110 1149 1147
f 1148 110 1147
f 1148 114 110
f 123 1168 110
f 1168 1149 110
f 1148 152 114
f 1150 152 1148
f 1151 168 1161
f 1152 1153 1154
f 1155 1156 1157
f 191 197 1158
f 1158 167 1151
f 167 168 1151
f 1153 1159 1154
f 169 152 1150
f 195 191 1158
f 175 222 1152
f 1160 1161 168
f 197 167 1158
f 1162 175 1152
f 1153 181 1159
f 1163 195 1158
f 186 1160 168
f 1160 263 1161
f 263 1162 1161
f 222 1153 1152
f 188 175 1162
f 263 188 1162
f 1164 1163 1158
f 206 236 197
f 1165 195 1163
f 186 263 1160
f 263 214 188
f 294 214 263
f 1165 1163 1164
f 222 280 1153
f 123 1166 1168
f 1167 1165 1164
f 123 1165 1166
f 1167 1168 1166
f 1165 1167 1166
f 313 1165 123
f 1165 328 195
f 313 328 1165
f 475 1169 1170
f 1169 1171 1170
f 475 1171 1169
f 563 1171 475
f 563 1172 1171
f 680 643 639
f 1173 680 639
f 714 1173 639
f 1174 1175 563
f 1175 1172 563
f 1173 731 680
f 1176 731 1173
f 714 1176 1173
f 1177 731 1176
f 753 1178 768
f 760 1178 753
f 1181 751 731
f 1177 1181 731
f 760 738 1178
f 1182 1174 563
f 772 1182 563
f 730 1183 738
f 745 844 742
f 1181 1184 751
f 738 1185 1178
f 1183 1192 738
f 1186 1183 730
f 1179 1186 730
f 1180 1186 1179
f 1188 1186 1180
f 745 1187 844
f 1189 1187 745
f 1178 1182 772
f 1185 1182 1178
f 876 1188 1180
f 1190 1189 889
f 843 751 1184
f 1193 1190 889
f 901 1188 876
f 1187 901 844
f 815 1193 889
f 1187 1188 901
f 1191 1193 815
f 1192 1185 738
f 1190 1187 1189
f 1186 1192 1183
f 1194 1185 1195
f 1191 1196 1193
f 843 1197 1191
f 815 843 1191
f 1197 1196 1191
f 1184 1198 843
f 1198 1197 843
