v -0.0346766 0.00712933 -0.332871
v -0.0364339 -0.00484532 -0.338427
v -0.034412 -0.00358865 -0.336111
v -0.0341565 0.00840121 -0.342306
v -0.0336018 0.00625413 -0.343238
v -0.0322072 -0.00245414 -0.332532
v -0.0325375 -0.00936785 -0.332019
v -0.030008 0.00822629 -0.353336
v -0.0316715 0.00819343 -0.351804
v -0.0301346 -0.00428009 -0.352781
v -0.03189 0.002698 -0.329851
v -0.0326004 0.0119878 -0.332906
v -0.0319943 0.0118857 -0.330352
v -0.031748 -0.008373 -0.330626
v -0.030723 0.001317 -0.3495
v -0.031189 -0.005634 -0.329655
v -0.031621 -0.000681 -0.329707
v -0.0313886 0.0125549 -0.329412
v -0.031347 -0.008338 -0.330293
v -0.030548 -0.008018 -0.329315
v -0.031401 -0.003007 -0.329622
v -0.031506 -0.001471 -0.329657
v -0.0312812 -0.00834102 -0.330173
v -0.0316793 -0.00833187 -0.332638
v -0.03087 -0.008277 -0.329606
v -0.031025 -0.00531 -0.329473
v -0.031166 -0.004218 -0.329524
v -0.0313 -0.008362 -0.330083
v -0.0298518 -0.0112072 -0.328592
v -0.0304872 0.0207006 -0.336287
v -0.0298157 -0.017062 -0.338081
v -0.03095 -0.007819 -0.331542
v -0.030659 -0.007768 -0.32951
v -0.030678 -0.007819 -0.329602
v -0.0292819 0.0193596 -0.341412
v -0.0312071 -0.00983784 -0.341439
v -0.029148 0.005679 -0.352071
v -0.02926 0.003658 -0.352144
v -0.029279 0.002477 -0.352175
v -0.029286 0.002028 -0.352187
v -0.029283 0.001685 -0.352195
v -0.029285 0.001335 -0.352187
v -0.029259 5.8e-05 -0.352155
v -0.029252 -0.000289 -0.352146
v -0.0292457 0.00563695 -0.352038
v -0.027828 0.005714 -0.35424
v -0.0233772 -0.00434444 -0.361155
v -0.0272242 -0.0106981 -0.351929
v -0.026759 -0.016524 -0.326337
v -0.026559 0.019876 -0.325384
v -0.0247811 -0.0163832 -0.352027
v -0.025019 -0.01651 -0.323202
v -0.0291841 -0.0163022 -0.341746
v -0.026886 0.020293 -0.343135
v -0.0265193 0.0222356 -0.330171
v -0.026688 0.0203129 -0.325509
v -0.0263079 0.000471864 -0.356782
v -0.0259401 0.0204609 -0.343216
v -0.0249704 0.00822601 -0.360818
v -0.0247674 -0.0170258 -0.326827
v -0.0261425 0.0192382 -0.349783
v -0.0212769 0.0126276 -0.358833
v -0.0286429 -0.0172413 -0.332819
v -0.0249 0.019878 -0.323103
v -0.0251954 0.0198766 -0.323411
v -0.0267964 -0.0172192 -0.342954
v -0.0239044 0.0212648 -0.354637
v -0.0229086 0.020878 -0.325398
v -0.0243139 0.0201027 -0.354976
v -0.02142 -0.0174437 -0.324265
v -0.022581 0.003677 -0.360403
v -0.022589 0.002496 -0.36044
v -0.022592 0.002047 -0.360454
v -0.022586 0.001703 -0.36046
v -0.022591 0.001354 -0.360454
v -0.022576 7.7e-05 -0.360416
v -0.022572 -0.000271 -0.360405
v -0.022495 0.005717 -0.360297
v -0.0226016 0.00565839 -0.360295
v -0.0226804 0.0206208 -0.321657
v -0.022377 -0.018272 -0.330596
v -0.022517 0.021691 -0.334541
v -0.022482 0.021639 -0.330413
v -0.023003 0.021624 -0.337642
v -0.020734 0.021705 -0.343608
v -0.0240183 -0.0204543 -0.343519
v -0.0211868 0.0210734 -0.343824
v -0.0225902 0.00794277 -0.363127
v -0.02057 0.005733 -0.361953
v -0.020437 0.021335 -0.324515
v -0.020509 0.021708 -0.343326
v -0.020337 -0.018315 -0.343302
v -0.0221826 0.0220667 -0.345433
v -0.02141 -0.018312 -0.328834
v -0.021495 0.021688 -0.328812
v -0.0214343 0.0199227 -0.324165
v -0.020799 -0.018312 -0.32704
v -0.020297 0.021668 -0.325236
v -0.020883 0.021688 -0.327018
v -0.020995 -0.01831 -0.327504
v -0.02109 0.021688 -0.327564
v -0.020839 -0.018158 -0.345919
v -0.0213346 -0.0182858 -0.344402
v -0.018921 -0.018296 -0.347403
v -0.020685 -0.018191 -0.34584
v -0.0182839 0.021666 -0.347813
v -0.0195688 -0.0182896 -0.326462
v -0.020114 0.02101 -0.321344
v -0.021267 0.0213635 -0.345323
v -0.0178809 0.0233509 -0.351588
v -0.014941 0.0198492 -0.326461
v -0.020005 0.020479 -0.321194
v -0.0186273 0.0215694 -0.349718
v -0.019325 -0.018272 -0.34708
v -0.0192934 -0.0182806 -0.34618
v -0.0210429 -0.0165258 -0.344835
v -0.0207555 -0.0178362 -0.321156
v -0.020227 0.02144 -0.343216
v -0.0158982 0.0216991 -0.326564
v -0.0195448 -0.0053072 -0.365527
v -0.020011 0.020686 -0.321251
v -0.0173572 0.0211805 -0.325572
v -0.0104268 0.0247916 -0.353073
v -0.0189365 0.0211873 -0.34622
v -0.019864 0.020616 -0.321252
v -0.019757 0.020654 -0.321268
v -0.0158736 0.0213749 -0.356323
v -0.0165622 0.0217044 -0.350278
v -0.017854 -0.018197 -0.350043
v -0.008527 0.020416 -0.3228
v -0.0145073 -0.0182883 -0.325886
v -0.0220141 -0.0160117 -0.356371
v -0.0183338 0.000482199 -0.363908
v -0.0138547 0.0222216 -0.322465
v -0.0186585 -0.0178355 -0.346481
v -0.0170061 -0.0170515 -0.354911
v -0.014215 -0.018219 -0.353531
v -0.0169064 -0.0178618 -0.342111
v -0.0159491 -0.0167569 -0.342378
v -0.0124505 -0.0157288 -0.362474
v -0.0179062 -0.0177591 -0.343557
v -0.0158277 0.00823537 -0.36733
v -0.0106516 0.0245022 -0.326501
v -0.016647 -0.01829 -0.34982
v -0.016483 -0.018239 -0.342586
v -0.0170804 -0.0182661 -0.334841
v -0.015833 -0.018231 -0.32728
v -0.017097 0.021695 -0.339802
v -0.016537 0.021626 -0.339724
v -0.0172869 0.0216479 -0.334678
v -0.0165819 -0.0184484 -0.328276
v -0.016858 0.021407 -0.33512
v -0.016437 -0.017958 -0.342792
v -0.014482 0.021676 -0.325717
v -0.0127191 0.0217196 -0.353751
v -0.0172435 -0.0182975 -0.33932
v -0.0122508 0.0193924 -0.363022
v -0.015144 0.0203568 -0.350846
v -0.0168206 -0.018167 -0.333691
v -0.0169514 0.0216364 -0.326666
v -0.0177552 -0.019566 -0.351083
v -0.015881 0.021376 -0.327605
v -0.0162433 -0.0183076 -0.339289
v -0.013788 -0.018271 -0.352862
v -0.015692 0.02146 -0.327244
v -0.015217 -0.018287 -0.351632
v -0.0120175 0.0212929 -0.353693
v -0.0166499 0.0213787 -0.334956
v -0.0140951 0.0203339 -0.343204
v -0.01652 0.021293 -0.332843
v -0.0145416 -0.0182235 -0.351791
v -0.0172257 -0.0179394 -0.325697
v -0.01638 0.021184 -0.332863
v -0.016374 -0.017883 -0.342773
v -0.016345 -0.01799 -0.342702
v -0.016331 -0.01812 -0.342531
v -0.015641 -0.0179119 -0.328017
v -0.0111357 0.0219258 -0.342596
v -0.015719 0.021301 -0.327938
v -0.0163 -0.018045 -0.342591
v -0.016402 0.021091 -0.333987
v -0.015634 0.021171 -0.327935
v -0.016238 -0.017968 -0.342536
v -0.0127572 -0.0182557 -0.353194
v -0.0162129 0.0208474 -0.335595
v -0.0156407 0.0209783 -0.339856
v -0.015928 0.021519 -0.339637
v -0.015677 0.0199719 -0.336672
v -0.015833 0.021274 -0.339752
v -0.0153523 0.0210529 -0.327027
v -0.015401 -0.018301 -0.325973
v -0.015485 0.021699 -0.325951
v -0.015675 0.0214065 -0.339754
v -0.015304 -0.018293 -0.326016
v -0.0152693 0.0221296 -0.338514
v -0.0153828 0.021698 -0.325905
v -0.015153 0.021679 -0.32581
v -0.015521 0.021394 -0.339899
v -0.015226 -0.018277 -0.326112
v -0.014097 0.021454 -0.325326
v -0.01412 0.021529 -0.325436
v -0.013676 0.003699 -0.366194
v -0.013673 0.002518 -0.366233
v -0.013671 0.002069 -0.366247
v -0.013664 0.001725 -0.366252
v -0.01367 0.001376 -0.366247
v -0.015474 0.02157 -0.339767
v -0.013957 0.02138 -0.325251
v -0.0125697 0.021159 -0.325084
v -0.013668 9.9e-05 -0.366207
v -0.013667 -0.000249 -0.366197
v -0.015479 -0.01795 -0.339885
v -0.0154621 -0.0168714 -0.336342
v -0.013628 0.00572 -0.366067
v -0.0137122 0.00567541 -0.366098
v -0.015335 -0.018119 -0.339904
v -0.0139088 -0.0168056 -0.342487
v -0.013779 -0.01823 -0.343264
v -0.0130832 -0.0162285 -0.325175
v -0.01469 -0.017748 -0.326547
v -0.014993 0.0215525 -0.326251
v -0.0144196 0.0214404 -0.326249
v -0.010288 -0.018279 -0.346298
v -0.014062 -0.018171 -0.343674
v -0.0147005 0.021581 -0.326129
v -0.008024 -0.016492 -0.342494
v -0.010213 -0.018276 -0.346224
v -0.010241 -0.018279 -0.346127
v -0.014383 -0.018032 -0.326263
v -0.014388 -0.018108 -0.326189
v -0.014292 -0.017985 -0.326274
v -0.0133479 0.021411 -0.325947
v -0.013929 0.020977 -0.326271
v -0.0123239 0.0216701 -0.353766
v -0.00937508 -0.0181493 -0.345438
v -0.010207 -0.018279 -0.345992
v -0.00961099 0.0216928 -0.335972
v -0.011284 0.005756 -0.367046
v -0.0098807 -0.00231528 -0.36768
v -0.00698124 -0.0182094 -0.356275
v -0.013342 0.020973 -0.326213
v -0.0138981 -0.00505821 -0.366808
v -0.013259 0.020914 -0.326237
v -0.013296 0.021058 -0.326185
v -0.0121671 0.0213209 -0.326295
v -0.0130627 -0.0180489 -0.325743
v -0.009131 -0.016494 -0.344734
v -0.013336 -0.00282752 -0.36733
v -0.008999 0.021737 -0.355955
v -0.0133609 0.00826904 -0.367476
v -0.011076 -0.018219 -0.325918
v -0.00733791 -0.0182486 -0.356717
v -0.0108972 -0.0164937 -0.36422
v -0.00794076 -0.017776 -0.325945
v -0.010843 0.021717 -0.349678
v -0.010892 -0.018269 -0.348714
v -0.0106342 -0.0182607 -0.349588
v -0.0107885 -0.0182715 -0.349601
v -0.010822 0.021722 -0.34991
v -0.010776 0.021722 -0.350137
v -0.0107131 0.0216291 -0.348214
v -0.0108103 0.0216826 -0.349313
v -0.010901 0.021678 -0.348414
v -0.00954261 -0.0169533 -0.33514
v -0.010641 -0.018274 -0.350058
v -0.0107087 -0.0182074 -0.348408
v -0.010714 -0.0181925 -0.348722
v -0.01072 -0.018227 -0.349239
v -0.010701 0.021613 -0.349284
v -0.003323 -0.018244 -0.352462
v -0.00961299 -0.0182628 -0.350062
v -0.007057 -0.018267 -0.350908
v -0.005769 -0.018262 -0.35162
v -0.002345 0.021729 -0.353292
v -0.002366 0.021735 -0.353426
v -0.01069 0.021709 -0.349922
v -0.003386 0.021727 -0.352477
v -0.010647 0.021687 -0.349816
v -0.007182 0.021694 -0.350725
v -0.009147 0.021681 -0.349865
v -0.010518 -0.018278 -0.347081
v -0.0106 0.02174 -0.347074
v -0.010583 0.021654 -0.349657
v -0.010287 -0.018265 -0.326442
v -0.010382 0.021673 -0.347056
v -0.0107703 0.0216923 -0.349554
v -0.010632 0.021471 -0.348689
v -0.002302 0.021707 -0.353185
v -0.010563 0.021517 -0.34922
v -0.010571 -0.01806 -0.348728
v -0.010567 0.021404 -0.348425
v -0.002246 0.021737 -0.35308
v -0.010521 0.021597 -0.349504
v -0.0108274 -0.0190716 -0.337588
v -0.009529 -0.016477 -0.346067
v -0.009548 -0.016477 -0.3462
v -0.009605 0.019923 -0.346046
v -0.009624 0.019923 -0.34618
v -0.010513 -0.017975 -0.348782
v -0.010545 0.021373 -0.34881
v -0.010494 -0.017978 -0.348513
v -0.0104631 -0.018063 -0.348071
v -0.010502 -0.018017 -0.348391
v -0.010519 0.021355 -0.348231
v -0.010278 -0.018222 -0.347076
v -0.01049 0.021362 -0.348105
v -0.010451 -0.017957 -0.348282
v -0.0103704 -0.0181229 -0.326792
v -0.010259 0.021608 -0.347027
v -0.002176 0.021617 -0.352874
v -0.009527 -0.018208 -0.349927
v -0.010415 -0.018022 -0.348037
v -0.01042 -0.017957 -0.348123
v -0.01048 0.021559 -0.349402
v -0.010175 -0.018164 -0.34705
v -0.002135 0.021578 -0.352772
v -0.010431 0.02129 -0.347981
v -0.01039 -0.0179632 -0.348028
v -0.009573 0.019923 -0.345887
v -0.0105722 0.0215007 -0.34814
v -0.009496 -0.016477 -0.345907
v -0.008094 -0.016476 -0.347078
v -0.010394 0.021262 -0.347876
v -0.010313 -0.017855 -0.347871
v -0.010017 -0.0180435 -0.346936
v -0.010347 0.02124 -0.347785
v -0.00988255 0.021285 -0.346577
v -0.009445 -0.016477 -0.345744
v -0.009474 0.019923 -0.345774
v -0.009495 0.019923 -0.345636
v -0.01008 -0.018275 -0.326481
v -0.009479 -0.018287 -0.326605
v -0.009665 -0.018287 -0.326561
v -0.009872 -0.018282 -0.326521
v -0.009771 0.020271 -0.347147
v -0.0048396 0.0216214 -0.356942
v -0.00811422 -0.0169669 -0.333169
v -0.00827056 0.0212585 -0.342295
v -0.0100733 -0.0179593 -0.347264
v -0.003583 0.001175 -0.369135
v -0.009406 -0.018264 -0.350092
v -0.003578 0.021763 -0.357446
v -0.009333 -0.018248 -0.350016
v -0.00851469 0.0209304 -0.335535
v -0.009168 -0.016477 -0.344986
v -0.009255 -0.018215 -0.349924
v -0.009238 -0.018157 -0.349824
v -0.009156 -0.018225 -0.349901
v -0.008929 -0.018241 -0.349723
v -0.009072 -0.018215 -0.349829
v -0.00816556 0.0196008 -0.340773
v -0.00800501 -0.0170546 -0.33666
v -0.008589 -0.018053 -0.348995
v -0.00877 -0.018169 -0.349451
v -0.008654 -0.018197 -0.349372
v -0.00843837 0.0212794 -0.337423
v -0.008554 -0.018208 -0.349261
v -0.00616452 -0.0185213 -0.331928
v -0.00685744 0.0203342 -0.348329
v -0.008206 -0.01826 -0.348862
v -0.006922 -0.016475 -0.344878
v -0.00716017 -0.0179747 -0.345416
v -0.0041669 -0.0176526 -0.323934
v -0.00621716 0.021199 -0.344461
v -0.0019846 -0.0175913 -0.328971
v -0.00677269 0.0222105 -0.332527
v -0.00746123 0.0201937 -0.332081
v -0.00232674 0.0205553 -0.331893
v -0.0109632 -0.0168855 -0.354519
v -0.00535861 -0.0181845 -0.345792
v -0.00250896 -0.0181958 -0.358113
v -0.00507122 0.0200907 -0.345632
v -0.00279182 0.00829887 -0.370262
v -0.000575901 0.0144515 -0.367096
v -0.007148 -0.017834 -0.345326
v 0.00385802 0.0227749 -0.359332
v -0.00711129 -0.0179999 -0.345341
v -0.007013 -0.0179465 -0.345181
v -0.00510894 0.00826581 -0.370687
v -0.00546211 0.0216196 -0.3457
v -0.00668704 -0.0182248 -0.345091
v -0.00693493 -0.0179232 -0.345075
v -0.006862 -0.018014 -0.345065
v -0.006821 -0.017834 -0.34496
v -0.0075357 -0.0217867 -0.326061
v -0.006732 -0.017879 -0.344915
v -0.005515 -0.018209 -0.351445
v -0.006638 -0.017924 -0.344883
v -0.00575697 -0.0170202 -0.349583
v -0.005411 0.021377 -0.34615
v 0.0054078 0.020931 -0.360563
v -0.00573004 -0.0175024 -0.344764
v -0.00369 -0.018259 -0.357389
v -0.00644984 0.0211551 -0.334129
v -0.00399755 0.0211803 -0.35667
v -0.0010009 0.0196596 -0.365515
v -0.001207 0.021743 -0.357894
v 0.00319473 -0.019321 -0.359508
v -0.005451 -0.018266 -0.351639
v -0.005553 -0.018266 -0.351672
v -0.002191 0.019946 -0.349487
v -0.00351531 -0.0180946 -0.327597
v -0.005148 -0.01647 -0.345664
v -0.00247332 0.0200293 -0.327935
v -0.005513 0.021383 -0.345218
v -0.004872 -0.018262 -0.351152
v -0.005312 -0.018265 -0.351572
v -0.00542 0.021384 -0.345389
v -0.003417 0.003722 -0.36895
v -0.003402 0.002541 -0.368987
v -0.003397 0.002092 -0.369
v 0.00280582 -0.00234314 -0.369277
v -0.00341792 0.0001013 -0.368968
v -0.00329559 -0.00701544 -0.368259
v -0.00341 0.005762 -0.368812
v -0.00347073 0.00569242 -0.368858
v -0.00537 0.021339 -0.346061
v -0.005358 0.021384 -0.345962
v -0.00519 -0.018022 -0.350901
v -0.005252 -0.017875 -0.345691
v -0.00525 -0.017875 -0.345888
v -0.005157 -0.018213 -0.351174
v -0.00534376 0.0216778 -0.351324
v -0.00223044 -0.0172678 -0.357057
v -0.005069 -0.018204 -0.35106
v -0.005105 -0.018055 -0.350843
v -0.005032 -0.018154 -0.350901
v -0.005036 -0.018027 -0.350719
v -0.004901 -0.018116 -0.350624
v -0.003534 0.021726 -0.351469
v -0.00364224 0.0202704 -0.346556
v -0.001513 0.019939 -0.347098
v -0.003072 0.021717 -0.346642
v 0.00651151 0.021624 -0.357188
v -0.00220294 0.0216432 -0.328895
v -0.003383 -0.017871 -0.346745
v -0.003355 0.021627 -0.351772
v -0.003357 0.021634 -0.351648
v -0.003371 0.021642 -0.351891
v -0.003101 -0.0180145 -0.346487
v -0.003348 0.021653 -0.351366
v -0.003327 0.02162 -0.351518
v -0.002071 0.005773 -0.368945
v -0.001802 0.021683 -0.34739
v -0.003247 0.021508 -0.3516
v -0.00190712 -0.0048828 -0.371001
v -0.003261 0.021389 -0.346514
v 0.00520465 -0.0210581 -0.355491
v -0.00319 0.021343 -0.346445
v -0.00572155 -0.017419 -0.33447
v -0.0031 0.021389 -0.346405
v -0.00298353 -0.0164796 -0.346292
v -0.003027 -0.017825 -0.346409
v -0.002934 -0.01787 -0.346373
v -0.002622 0.021432 -0.346265
v -0.002947 0.021279 -0.350773
v -0.002843 -0.017825 -0.346332
v -0.00223559 0.0212257 -0.34901
v -0.001654 0.021302 -0.347563
v -0.00223 0.021646 -0.346516
v -0.00290779 -0.0171011 -0.36203
v -0.00209488 -0.0181728 -0.346479
v -0.00178819 -0.0167963 -0.330601
v -0.002253 0.021391 -0.346358
v -0.00234613 0.020369 -0.346151
v 0.001607 -0.017039 -0.326536
v 0.00691408 0.00814788 -0.36922
v -0.002082 0.021391 -0.346448
v 0.00144142 0.0214536 -0.357162
v -0.00135473 -0.0182488 -0.357433
v -0.00193638 0.0213095 -0.346531
v -0.00203421 0.021701 -0.353033
v -0.001974 0.021525 -0.352681
v -0.001729 0.021489 -0.346862
v -0.00195454 -0.0182535 -0.353138
v -0.00268055 -0.0176916 -0.35197
v -0.002054 0.02174 -0.353241
v -0.001884 -0.018043 -0.352707
v -0.001743 0.021717 -0.352912
v -0.001893 0.021637 -0.352841
v -0.00167475 -0.0182135 -0.352949
v 0.000113119 -0.01825 -0.357726
v -0.001008 -0.016568 -0.350077
v -0.001666 -0.017874 -0.352405
v -0.001799 -0.017838 -0.352376
v -0.001642 0.021347 -0.347072
v -0.001679 0.021392 -0.34698
v -0.001645 0.021257 -0.347011
v -0.001637 0.021393 -0.347366
v -0.001639 0.021347 -0.347465
v -0.000703 -0.016456 -0.350062
v -0.001567 -0.017922 -0.352414
v -0.000603 -0.016456 -0.349986
v -0.001458 -0.018008 -0.352403
v -0.001626 0.021258 -0.347115
v -0.001613 0.021258 -0.347268
v -0.000523 -0.016456 -0.349909
v -0.001606 0.02144 -0.35239
v -0.000383 -0.016456 -0.349728
v -0.00146 0.021623 -0.352451
v -0.000729094 0.0211676 -0.3254
v -0.0013258 -0.0180262 -0.352247
v -0.00142373 0.0216121 -0.352364
v -0.001234 -0.017899 -0.352001
v -0.001259 0.021357 -0.351885
v -0.001356 -0.0181505 -0.35249
v -0.001131 -0.017936 -0.351874
v -0.00105196 0.0217217 -0.352194
v -0.000331 -0.016456 -0.349632
v -0.000408 0.019944 -0.349612
v -0.001214 0.021326 -0.351759
v -0.00113556 0.0216217 -0.351976
v -0.001161 0.021294 -0.35164
v -0.001102 0.021738 -0.352408
v -0.00108 -0.017807 -0.351661
v -0.00113465 -0.0178747 -0.351808
v -0.000253 -0.016456 -0.349487
v -0.000329 0.019944 -0.349467
v -0.000988446 -0.0182063 -0.352123
v 0.00166982 -0.0164991 -0.328435
v 0.000922013 0.0199719 -0.328284
v -0.00103485 0.021562 -0.351655
v 0.000185304 -0.0164556 -0.347984
v -0.00120084 0.0213958 -0.351784
v -0.000675 0.021457 -0.350621
v -0.000882507 -0.0179991 -0.351368
v 0.000174 0.019933 -0.348535
v -0.000586 0.01994 -0.332388
v -0.000589 -0.0180795 -0.350836
v -0.000884718 0.0217011 -0.351747
v -0.000717422 0.0211334 -0.331276
v -0.000682916 -0.0166263 -0.332048
v -0.000501 -0.018202 -0.351024
v -0.0006715 -0.018255 -0.351961
v -0.0006395 0.021612 -0.350881
v 0.0062208 -0.0225671 -0.334196
v 0.015111 0.0250295 -0.349122
v -0.00052 0.021238 -0.35011
v -0.000471 0.021119 -0.349932
v -0.000483 0.021736 -0.351109
v -0.000408871 -0.0182472 -0.351165
v -0.000531 0.021745 -0.351436
v -0.000487 0.0200575 -0.332319
v 0.000584351 -0.0181574 -0.332539
v 0.000335372 -0.0180937 -0.348153
v -4.7e-05 0.020659 -0.328966
v 0.001187 0.019945 -0.346016
v 0.000724627 -0.016436 -0.332697
v 0.00469476 -0.0180308 -0.351035
v 0.00442774 -0.0182232 -0.357652
v 0.004097 0.021632 -0.35842
v 0.004609 0.021765 -0.357196
v 0.000191 -0.016844 -0.332607
v 0.00129168 -0.0169617 -0.328351
v 0.001193 0.020338 -0.328642
v 0.0003 -0.016945 -0.332638
v 0.00581078 -0.0165217 -0.363246
v 0.000422 -0.016946 -0.332684
v 0.00357713 0.0225239 -0.34972
v 0.00485821 -0.0165393 -0.350504
v 0.000727 0.020211 -0.328557
v 0.0181598 0.0233982 -0.340387
v 0.000597 0.020384 -0.328655
v 0.000689 0.020312 -0.328606
v 0.00709 0.001197 -0.36863
v 0.0068916 -0.0166461 -0.332463
v 0.0092166 -0.0180103 -0.355412
v 0.003327 0.020969 -0.344338
v 0.00452782 0.0215438 -0.343261
v 0.000468867 0.0205971 -0.332977
v 0.00622447 0.0212336 -0.333741
v 0.00662133 0.0200313 -0.331809
v 0.00466076 0.0215114 -0.334924
v 0.00458508 -0.0181304 -0.334904
v 0.0226149 -0.0188495 -0.340276
v 0.003997 -0.016471 -0.335041
v 0.003599 -0.016814 -0.334626
v 0.00711 0.019966 -0.333517
v 0.004357 0.019961 -0.335293
v 0.000395877 -0.0168209 -0.366515
v 0.0085301 -0.0181034 -0.349423
v 0.00506993 -0.0172998 -0.342409
v 0.004904 0.019951 -0.342308
v 0.023448 0.0214725 -0.341146
v 0.00875586 -0.0176791 -0.355967
v 0.003796 -0.016744 -0.334787
v 0.003889 -0.016799 -0.33481
v 0.00472698 -0.0165796 -0.335103
v 0.003992 -0.01667 -0.334919
v 0.00704541 -0.00604299 -0.368307
v 0.00884763 0.0206377 -0.360726
v 0.004458 0.020907 -0.342865
v 0.004752 0.020916 -0.34251
v 0.00398 0.020964 -0.343594
v 0.004513 0.020925 -0.342782
v 0.00647113 -0.0182207 -0.356585
v 0.00485121 -0.016497 -0.350949
v 0.005524 0.019979 -0.353527
v 0.00233287 0.0208617 -0.348026
v 0.00680367 -0.0164681 -0.334077
v 0.00514 -0.01646 -0.335228
v 0.00783854 -0.0181332 -0.343931
v 0.007179 0.005738 -0.368216
v 0.0071702 0.00473713 -0.368353
v 0.007191 0.003744 -0.368401
v 0.00719507 0.000124484 -0.368421
v 0.007216 0.002563 -0.368432
v 0.007226 0.002114 -0.368444
v 0.007235 0.001771 -0.368444
v 0.00488741 -0.0164349 -0.339141
v 0.00503448 0.0204311 -0.339849
v 0.00898036 0.0202567 -0.341133
v 0.00923061 -0.0164476 -0.340875
v 0.00605258 -0.0179084 -0.333957
v 0.00526705 -0.0177876 -0.337467
v 0.0105852 0.0201772 -0.346406
v 0.00710655 -0.0181884 -0.340816
v 0.00691696 -0.0151753 -0.365137
v 0.00713285 0.020499 -0.363664
v 0.006151 -0.017577 -0.333282
v 0.00681789 0.0211351 -0.356171
v 0.00605867 0.0222591 -0.336987
v 0.00710397 -0.0180712 -0.335429
v 0.0134061 0.0187005 -0.362974
v 0.00682855 0.0220801 -0.340375
v 0.00681081 0.0204075 -0.334999
v 0.00861558 0.0199547 -0.357002
v 0.006717 0.020159 -0.333061
v 0.00715909 -0.0193559 -0.35954
v 0.006638 -0.017059 -0.333367
v 0.0065111 -0.016754 -0.333784
v 0.006619 0.020445 -0.332678
v 0.006647 0.020433 -0.332897
v 0.006624 0.020477 -0.332801
v 0.0066067 0.0210489 -0.352312
v 0.00759821 -0.018094 -0.353734
v 0.00742558 0.0202679 -0.35122
v 0.007016 0.021471 -0.3517
v 0.010008 -0.0165 -0.360871
v 0.00748164 0.0216886 -0.351583
v 0.00855556 -0.017827 -0.357459
v 0.00926026 -0.00485926 -0.369891
v 0.0080754 0.00620868 -0.368763
v 0.00808941 0.020926 -0.353634
v 0.007128 0.021639 -0.35178
v 0.00756238 -0.0172885 -0.352513
v 0.00635066 0.0232026 -0.359083
v 0.008555 -0.018156 -0.353365
v 0.00940918 0.0217615 -0.356059
v 0.007804 0.021622 -0.35751
v 0.0114974 0.0218059 -0.337041
v 0.009085 0.02125 -0.335029
v 0.0103572 -0.0163852 -0.346448
v 0.0102387 -0.0168506 -0.361711
v 0.00884389 -0.0180996 -0.349731
v 0.00899121 0.0217515 -0.349191
v 0.009064 -0.017666 -0.341047
v 0.0166802 -0.00423545 -0.367162
v 0.015312 0.00804236 -0.368084
v 0.0102097 -0.0180016 -0.347095
v 0.00722441 0.0219491 -0.343903
v 0.00869755 -0.0172904 -0.33466
v 0.0139132 -0.0167863 -0.360904
v 0.009312 -0.017462 -0.340895
v 0.009343 -0.017595 -0.340799
v 0.010228 -0.017546 -0.339975
v 0.015753 -0.018148 -0.352723
v 0.00938 -0.017429 -0.340828
v 0.012825 -0.018211 -0.338479
v 0.012912 -0.018119 -0.337881
v 0.012984 0.021439 -0.337685
v 0.013035 0.021348 -0.337626
v 0.0103436 0.0214643 -0.347128
v 0.0117026 0.0203118 -0.335692
v 0.013202 -0.017682 -0.337573
v 0.012125 -0.016435 -0.339335
v 0.0137631 0.0199961 -0.338757
v 0.0138334 0.0203894 -0.360409
v 0.010916 -0.017578 -0.346856
v 0.010722 0.02177 -0.354579
v 0.0121138 -0.0177707 -0.339205
v 0.011694 0.02167 -0.338823
v 0.0124539 0.02105 -0.339228
v 0.0123068 -0.0179706 -0.346782
v 0.0118229 0.0211422 -0.346759
v 0.0166835 0.00154307 -0.365583
v 0.0128598 0.0139836 -0.364727
v 0.013794 -0.018224 -0.346837
v 0.013892 -0.018206 -0.346417
v 0.012523 0.021567 -0.338868
v 0.012471 0.021634 -0.338767
v 0.012473 0.021472 -0.338974
v 0.012475 0.021315 -0.339104
v 0.012474 0.021398 -0.339044
v 0.012736 -0.017543 -0.339241
v 0.0167373 0.0217514 -0.350858
v 0.012558 -0.017252 -0.339293
v 0.012618 -0.017337 -0.339287
v 0.0190683 -0.0204528 -0.348153
v 0.0130025 0.0211605 -0.345555
v 0.01258 0.021643 -0.33874
v 0.0143017 -0.0176423 -0.343878
v 0.0126102 0.021471 -0.338963
v 0.012587 0.021724 -0.338536
v 0.012589 0.021746 -0.338432
v 0.012702 -0.017749 -0.339142
v 0.016064 -0.01822 -0.342546
v 0.012799 -0.017808 -0.339085
v 0.0134086 0.0214635 -0.3386
v 0.01292 -0.017851 -0.339015
v 0.0140987 -0.0166584 -0.338734
v 0.013047 -0.018118 -0.33845
v 0.013125 -0.018093 -0.338332
v 0.012995 0.021516 -0.337801
v 0.013239 -0.017916 -0.337883
v 0.013203 -0.018049 -0.338283
v 0.013414 -0.017898 -0.338134
v 0.0131133 -0.018012 -0.337937
v 0.0220864 -0.0181184 -0.344583
v 0.013666 -0.0178057 -0.345013
v 0.0135051 -0.0178979 -0.338537
v 0.0137436 0.0212991 -0.344726
v 0.0126184 0.0216341 -0.346875
v 0.016629 0.009067 -0.36652
v 0.0141568 -0.0163661 -0.359324
v 0.0144655 -0.018235 -0.345368
v 0.016031 -0.018102 -0.342557
v 0.0162036 0.0213955 -0.341805
v 0.0153801 0.0217386 -0.343382
v 0.0151944 0.0198346 -0.360417
v 0.0183864 -0.0172501 -0.358116
v 0.0168404 -0.00628198 -0.364453
v 0.0172002 -0.0157273 -0.361565
v 0.0203701 0.020793 -0.355041
v 0.0157369 0.0212778 -0.34047
v 0.015169 0.021097 -0.342331
v 0.0154569 -0.01774 -0.342082
v 0.01704 0.005781 -0.364425
v 0.01711 0.003763 -0.364601
v 0.0171204 0.000137663 -0.36462
v 0.017144 0.002582 -0.364623
v 0.017156 0.002133 -0.364632
v 0.017165 0.001789 -0.364629
v 0.016939 0.019978 -0.341383
v 0.015558 0.021477 -0.340723
v 0.0161059 -0.0178918 -0.339841
v 0.0155973 0.0200751 -0.339533
v 0.015334 -0.016479 -0.34048
v 0.021242 -0.018096 -0.345979
v 0.0182312 -0.00399924 -0.365285
v 0.0175178 -0.0178161 -0.341798
v 0.0217859 0.0216148 -0.344832
v 0.021348 -0.006168 -0.360884
v 0.0234994 0.0211843 -0.350286
v 0.0219415 0.0203624 -0.357075
v 0.0157156 -0.0136852 -0.361831
v 0.0196239 0.00809231 -0.365519
v 0.024001 -0.0169369 -0.350543
v 0.0220117 -0.0177299 -0.343588
v 0.0257411 -0.00350299 -0.360311
v 0.017337 0.00568678 -0.364542
v 0.021868 0.021006 -0.34329
v 0.022275 -0.0166955 -0.353441
v 0.0204927 0.00823023 -0.356203
v 0.022468 -0.015685 -0.357147
v 0.0206256 -0.00458066 -0.356308
v 0.0217342 0.0202914 -0.353904
v 0.021264 -0.015775 -0.354159
v 0.0235631 -0.0154794 -0.354608
v 0.0184489 0.00990842 -0.364231
v 0.0242342 -0.00272766 -0.350925
v 0.0247268 -0.00460596 -0.351428
v 0.0254058 0.0202118 -0.347546
v 0.0244416 0.0199748 -0.345863
v 0.0244734 -0.0163792 -0.345508
v 0.0247232 0.0201156 -0.347217
v 0.023914 0.009531 -0.350638
v 0.0244362 -0.0166854 -0.34752
v 0.0252111 -0.00591349 -0.357923
v 0.0257983 0.00862026 -0.358432
v 0.0243809 0.00647987 -0.351059
v 0.0246757 0.00857556 -0.351341
v 0.0241366 0.0196413 -0.350415
v 0.025249 0.005795 -0.357774
v 0.0239922 -0.00592088 -0.350697
v 0.0253002 -0.0160482 -0.348113
v 0.0256621 -0.0170235 -0.343805
v 0.0253638 0.0196887 -0.347234
v 0.024492 0.008262 -0.350988
v 0.024519 -0.004668 -0.350995
v 0.0247016 0.0179593 -0.354071
v 0.0273573 -0.00565248 -0.356527
v 0.0252271 0.0206522 -0.343502
v 0.028603 -0.0106458 -0.349577
v 0.0278695 -0.00220512 -0.355163
v 0.027218 0.016532 -0.349872
v 0.0267366 -0.00790043 -0.347148
v 0.0281026 0.0116771 -0.348688
v 0.0276638 0.00786799 -0.357302
v 0.0269239 -0.00303858 -0.3578
v 0.026542 0.011726 -0.351129
v 0.028018 0.011684 -0.349013
v 0.028027 0.011731 -0.349125
v 0.028082 0.011778 -0.349209
v 0.0273781 -0.00794224 -0.351649
v 0.0282542 -0.00813396 -0.350938
v 0.028462 0.0116792 -0.352377
v 0.028915 -0.001693 -0.349133
v 0.0289281 0.0122255 -0.349431
v 0.0289811 0.0037135 -0.349187
v -0.0314295 -0.00243627 -0.32926
v -0.0311292 0.00787082 -0.328749
v -0.0295388 -0.00983205 -0.320675
v -0.0307775 -0.00900798 -0.327814
v -0.0301709 0.0125241 -0.325574
v -0.0266672 -0.0144649 -0.326999
v -0.0295807 0.0150254 -0.327748
v -0.026219 0.0186076 -0.326485
v -0.0258223 -0.0157292 -0.326362
v -0.0215003 0.019544 -0.325296
v -0.0241501 0.0196194 -0.316532
v -0.0238134 0.01977 -0.325238
v -0.0250406 -0.00200927 0.00374432
v -0.00854023 0.00148778 -0.00173759
v -0.0252845 0.004005 -0.0013366
v -0.00687525 0.00152679 0.00520383
v -0.0245912 0.00431862 0.00321151
v -0.0243061 0.0135404 0.0354773
v -0.0183816 -0.0170872 -0.322615
v -0.0234824 0.0155342 0.0352295
v -0.0236872 0.016298 0.0295986
v -0.023345 -0.012886 0.033817
v -0.0218796 0.00249494 0.0444562
v -0.021537 0.0153766 -0.0290923
v -0.022814 -0.013235 -0.007962
v -0.023427 -0.011908 0.0372773
v -0.0248079 0.0184778 -0.315606
v -0.021807 -0.013468 -0.01666
v -0.0210898 -0.016656 -0.317867
v -0.021113 0.019853 -0.317852
v -0.022267 0.016458 -0.010343
v -0.023843 0.0156541 -0.0143058
v -0.0234137 -0.0121435 -0.0175809
v -0.022045 -0.013454 0.034207
v -0.02119 -0.008477 0.043036
v -0.0192305 0.00915547 0.046655
v -0.0227247 0.0161048 0.0362975
v -0.0207622 -0.0142364 -0.0237589
v -0.0156552 -0.0162562 -0.0441538
v -0.020965 0.016482 0.031672
v -0.019149 0.017003 -0.035157
v -0.01786 0.018515 -0.033361
v -0.0186841 0.0133537 0.0417066
v -0.018669 0.017946 -0.034504
v -0.00241049 0.0166005 -0.0144975
v -0.0204272 0.0162306 0.0343146
v -0.0209352 0.0197556 -0.318768
v -0.020407 0.016244 0.031532
v -0.00413369 -0.0136483 -0.0135119
v -0.0195703 -0.00153307 -0.317516
v -0.019383 0.005343 -0.316881
v -0.023338 -0.0169441 -0.316754
v -0.0202647 -0.0133488 0.031495
v -0.011165 0.019641 -0.307038
v -0.0184305 -0.00604505 0.0472152
v -0.0202522 -0.0129602 0.0363808
v -0.007139 0.016308 0.012448
v -0.009092 -0.016084 -0.304978
v -0.0201515 -0.00557886 0.033146
v -0.01039 -0.0134496 0.014158
v -0.0205726 0.0108217 0.0336361
v -0.0198246 -0.015789 -0.319463
v -0.0194169 0.0046653 -0.318736
v -0.00633644 0.0160128 0.0120271
v -0.0190184 -0.00138122 -0.317925
v -0.0188081 -0.00114135 -0.319194
v -0.0171527 -0.00848776 0.0421257
v -0.0188228 0.00731875 0.0324035
v -0.00393234 0.00249502 -0.328118
v -0.0190392 -0.0161619 -0.324419
v -0.0164007 0.0202813 -0.323236
v -0.018753 0.004287 -0.317819
v 0.0136365 0.00455431 -0.280173
v -0.00642557 0.00853821 0.0128237
v -0.0144937 -0.00745066 0.0457843
v 0.00852 0.004594 -0.287165
v -0.00511587 -0.00414635 0.013484
v 0.009098 -0.000826 -0.287572
v -0.0140538 -0.00644794 0.0488393
v -0.0115449 -0.00208021 0.0526677
v -0.00566015 0.00802244 0.0124926
v 0.009538 0.00429 -0.286936
v -0.0108914 -0.015073 -0.300819
v -0.0161406 -0.00496668 0.0423326
v -0.00280461 -0.00157044 -0.322409
v -0.0178868 0.0042717 -0.318429
v -0.00543 0.022184 -0.076153
v -0.0139145 0.00983836 0.0481955
v -0.00132607 -0.000867065 -0.322021
v -0.0156782 0.0106313 0.0439303
v -0.00469 0.022941 -0.075527
v 0.00724938 -0.0149124 -0.030933
v -0.0127324 -0.00373529 0.0288902
v -0.0162097 0.0114124 0.0438751
v -0.00282842 0.023526 -0.0800433
v -0.0160181 0.00824077 0.0426969
v 0.010513 -0.018809 -0.063083
v 0.011179 0.0218961 -0.0623677
v -0.0133193 0.00691529 0.0429046
v -0.0133508 0.0082311 0.0509935
v -0.0143063 -0.0139417 0.00115974
v -0.0106333 0.00880754 0.0476488
v -0.013489 0.0170949 -0.00268228
v -0.00593153 0.0194705 -0.298093
v -0.0130117 -0.00296035 0.0318441
v -0.0145267 -0.00382434 0.0396779
v -0.0135981 -0.0154115 -0.00191976
v -0.000562003 0.0199364 -0.328942
v -0.00762289 -0.0152534 -0.00451154
v -0.00823705 0.0196239 -0.303271
v -0.0109212 0.0061058 0.0286737
v -0.0105557 -0.00227824 0.0360296
v -0.00780851 -0.00272339 0.0449267
v -0.0109674 -0.01368 -0.00881548
v -0.0089669 0.0181325 0.00993409
v -0.011596 -0.00432048 0.0452066
v -0.0120704 0.00553058 0.0351328
v -0.00990541 -0.00535852 0.0494409
v -0.00247842 0.00576479 0.0537832
v -0.00374 0.018863 -0.299094
v -0.0011057 0.0197965 -0.323975
v -0.006306 -0.002462 0.053518
v -0.00794243 -0.0149562 0.0106742
v -0.0108099 0.00474105 0.039453
v -0.0027868 -0.0154204 0.0126866
v -0.008061 -0.004522 0.047511
v -0.0115125 0.0172295 0.00943128
v -0.00777965 -0.0153814 0.00555409
v -0.0100597 0.0190638 -0.000418187
v -0.00869175 -0.0150712 0.00125491
v 0.00183335 -0.0138894 -0.288397
v -0.0081733 0.0184008 0.0034072
v -0.00414197 0.0182973 0.0121548
v -0.0065965 -0.0163432 -0.326809
v -0.00799527 0.0179942 -0.00345248
v -0.00724024 0.00725486 0.0474562
v -0.00521784 -0.00404127 0.0326344
v -0.00508509 -0.00744408 0.0118974
v -0.00456364 -0.00465007 0.0391775
v -0.00629041 0.00717362 0.0327359
v -0.00342168 -0.0151543 -0.00809054
v -0.00190888 -0.00298584 0.0309555
v -0.000503182 -0.00282671 0.0408799
v -0.004057 0.005689 0.041337
v -0.00481258 0.00284231 0.0544802
v -0.002015 -0.003482 0.052988
v -0.00890195 0.0169221 -0.0109946
v -0.00221276 0.00435217 -0.321835
v 0.005382 0.023324 -0.077471
v -0.00440574 0.00693421 0.0477069
v -0.00372373 -0.0150753 0.00836159
v -0.00766507 0.0184842 -0.0111913
v -0.00395586 0.0182703 0.0081113
v -0.00450804 0.00877093 0.0122215
v -0.00320638 -0.014984 0.012416
v -0.00105689 0.0174029 -0.0134792
v -0.00532719 -0.00337975 0.0249328
v 6.4e-05 0.019704 -0.32968
v -0.000777849 -0.0170082 -0.329439
v -0.00408942 0.0182578 -0.00789089
v -0.00227258 -0.0164142 -0.323588
v 0.000954305 -0.00403344 0.0142244
v -0.00396697 -0.00682889 0.012159
v 0.000856439 -0.0207523 -0.0903547
v -0.00366883 0.00596618 0.0307199
v 0.00270881 0.00665893 0.0519198
v -0.000538658 0.00786816 0.0377478
v 0.00860996 0.00741248 0.011253
v 0.0212531 -0.00167209 -0.336905
v -0.00325372 0.0063903 0.0246821
v -0.00296233 -0.0201236 -0.0818897
v 0.00248386 0.0225336 -0.100945
v -0.00319841 -0.0153056 -0.0127295
v -0.00064797 0.00739756 0.0135461
v 0.00131563 -0.0152396 -0.0088222
v 1.5e-05 -0.01499 -0.008614
v 0.00436754 0.0060001 0.0283046
v 0.00486977 -0.00287609 0.0286256
v -0.00284443 0.00677229 0.0489701
v 0.00141575 0.0240417 -0.0890662
v 0.000740507 -0.00449066 0.0511993
v 0.00127215 -0.00205467 0.0534753
v 0.002219 0.017935 -0.008284
v 0.00330499 0.0193514 0.0101343
v 0.00154116 0.0184117 -0.00876882
v 0.00502331 -0.0205688 -0.100172
v 0.00247561 0.00574162 0.0367708
v 0.00672078 0.00575937 0.0398539
v 0.00558931 -0.0152659 -0.0115897
v 0.00373546 -0.0134785 -0.0143438
v 0.00256333 -0.00388681 0.0460723
v 0.00145002 -0.00325764 0.0343241
v 0.004482 0.008155 0.012349
v 0.00662663 -0.0151516 -0.00611279
v 0.005515 0.023577 -0.098295
v 0.002426 -0.020333 -0.086369
v 0.00238 -0.02033 -0.087801
v 0.00786301 -0.00261505 0.0502038
v 0.00221119 0.0234836 -0.0869896
v 0.028897 -0.00864264 -0.34828
v 0.0246045 -0.0159658 -0.345298
v 0.00340019 0.00444476 -0.0867442
v 0.003086 0.005244 -0.087939
v 0.00847235 0.00683621 0.0392756
v 0.00796457 0.00636179 0.0496335
v 0.022436 0.01992 -0.343875
v 0.0119532 -0.0185372 -0.0622215
v 0.0076178 0.0157777 -0.28196
v 0.0222475 -0.015557 -0.336599
v 0.0032339 0.0168789 -0.0133236
v 0.0046308 -0.00472328 0.0126577
v 0.00653615 0.0183447 -0.00610435
v 0.00750921 0.01827 0.00482157
v 0.00641932 0.00775308 0.0117092
v 0.0141532 0.00761188 -0.000449435
v 0.00335522 0.00679448 0.0261855
v 0.003232 -0.001667 -0.087657
v 0.003038 -0.00181548 -0.0871092
v 0.00720631 -0.0152842 0.0108868
v 0.003697 0.004416 -0.0881
v 0.01416 -0.002111 -0.122652
v 0.0171752 0.0052693 -0.13344
v 0.00725862 0.0183958 -0.0108022
v 0.014282 0.004704 -0.12203
v 0.014584 -0.001183 -0.122277
v 0.003712 -0.001164 -0.087953
v 0.004119 -0.000963 -0.08677
v 0.0247248 0.0196938 -0.339304
v 0.014291 0.0201753 -0.138523
v 0.016331 0.004283 -0.127167
v 0.00404803 -0.0140916 -0.0127932
v 0.004919 0.0156355 -0.0168593
v 0.018988 -0.000902 -0.136381
v 0.0241292 0.00488384 -0.338161
v 0.0249638 -0.00126835 -0.102741
v 0.0247825 -0.000839961 -0.337486
v 0.01299 0.004176 -0.065541
v 0.00471551 -0.0150819 0.00784445
v 0.00532686 -0.00780844 -0.0124735
v 0.00135699 -0.00271503 0.0465278
v 0.02621 -0.000813 -0.333711
v 0.00516034 0.0109348 -0.0146565
v 0.00590015 -0.00322629 0.0283177
v 0.0128856 -0.00174972 -0.280448
v 0.0173099 -0.0174896 -0.142934
v 0.00566571 0.0109529 -0.0119153
v 0.01476 -0.01828 -0.127597
v 0.007472 -0.00389872 0.0411023
v 0.010397 -0.015387 -0.007006
v 0.00606036 -0.0048304 -0.0121834
v 0.00802297 -0.00603448 -0.0233385
v 0.00749669 0.00374008 0.00431296
v 0.0115328 -0.0151185 -0.00672957
v 0.00726222 0.00705184 -0.0129527
v 0.0114885 -0.00597983 -0.0283139
v 0.00762622 -0.0182095 -0.117095
v 0.0152947 0.0176007 -0.150388
v 0.0100505 -0.00442334 0.00924026
v 0.0110812 -0.0104605 -0.274319
v 0.00883193 0.0183764 0.00941263
v 0.0176986 0.00359251 0.00473169
v 0.016165 -0.003853 0.000924
v 0.0136269 0.0219511 -0.125575
v 0.008282 -0.00381 0.035024
v 0.008362 -0.014737 -0.002165
v 0.008286 0.017878 -0.00218
v 0.0160602 0.0211974 -0.131958
v 0.00892454 0.0090522 -0.0251273
v 0.00884435 -0.0150105 0.00094872
v 0.0131312 0.0151667 -0.279121
v 0.0158762 0.00658285 -0.00539244
v 0.0129071 -0.0146556 0.00025026
v 0.0178548 -0.00165074 0.00191985
v 0.00861263 -0.00201015 0.00154602
v 0.00850762 0.00323367 -0.00115323
v 0.00879967 0.0183814 -0.000713363
v 0.0179663 0.0019826 -0.00171441
v 0.0119488 -0.00343133 0.0449112
v 0.0112396 0.00694995 0.0441184
v 0.010946 -0.005358 -0.007267
v 0.00697782 0.00747951 -0.0120188
v 0.0123078 0.0184799 -0.00414469
v 0.0141461 0.00805203 -0.0235251
v 0.011152 0.0139748 -0.274593
v 0.0163785 -0.00275903 -0.00785666
v 0.0132874 0.00599871 0.0428559
v 0.0119983 0.0131466 -0.0360406
v 0.00865126 0.0131453 -0.277625
v 0.0108898 0.0188098 -0.040238
v 0.0111694 0.000920705 -0.13185
v 0.0139053 -0.0161676 -0.140722
v 0.0128963 -0.00446838 -0.00458002
v 0.011501 -0.015052 0.005914
v 0.0123471 0.018148 0.004435
v 0.0164165 0.0129233 -0.272433
v 0.0129177 0.0122375 -0.0352968
v 0.0113477 -0.0157803 -0.0410191
v 0.0113438 -0.00870239 -0.0334731
v 0.014088 -0.010471 -0.270162
v 0.0133871 -0.00140606 -0.064622
v 0.0146058 -0.0171441 -0.0528402
v 0.0125649 0.0222002 -0.0617283
v 0.01285 0.008163 0.002866
v 0.00989948 -0.0128131 -0.284221
v 0.0114805 0.00461347 -0.0646427
v 0.0161084 -0.00890437 -0.259573
v 0.013829 -0.003169 0.039282
v 0.0135949 -0.0155935 -0.0441946
v 0.0144482 0.00504593 0.0397628
v 0.0138895 0.00515549 -0.0647696
v 0.0159858 -0.0193187 -0.0638724
v 0.0134206 -0.0045378 0.00257081
v 0.0132827 0.0177415 -0.000827976
v 0.013719 0.004503 -0.065366
v 0.014457 -0.002031 0.039455
v 0.013951 0.0217294 -0.0628692
v 0.0140995 0.0127342 -0.0378843
v 0.0142193 0.0179309 -0.0443396
v 0.023886 0.004392 -0.10046
v 0.0118516 -0.00103899 -0.0646174
v 0.0134755 -0.0103022 -0.0378518
v 0.0148065 0.00886186 -0.0304373
v 0.0156095 0.0223007 -0.0636956
v 0.0148126 0.0127449 -0.264204
v 0.01746 -0.002962 0.000156
v 0.020968 0.004985 -0.088354
v 0.0140581 -0.0118728 -0.042162
v 0.0141911 -0.0184555 -0.0630445
v 0.017844 0.005341 -3.7e-05
v 0.016888 0.013434 -0.264107
v 0.0142865 -0.00683957 -0.0315278
v 0.019186 -0.020053 -0.079677
v 0.0153198 -0.00368887 -0.0288994
v 0.0134914 0.0193725 -0.0461031
v 0.0180293 -0.00152015 -0.137423
v 0.0182514 -0.00985863 -0.266668
v 0.015972 0.001743 -0.253591
v 0.0188442 0.00440185 -0.2692
v 0.0170779 -0.0139699 -0.166588
v 0.0201082 0.0239761 -0.0785355
v 0.0172141 -0.0169619 -0.0584701
v 0.016464 0.011094 -0.251385
v 0.0153303 -0.0182184 -0.128421
v 0.016551 -0.007743 -0.248454
v 0.0171483 0.016618 -0.171596
v 0.0290981 0.0212411 -0.0968414
v 0.019131 0.018632 -0.168454
v 0.018169 0.017828 -0.173603
v 0.0152538 0.0110142 -0.261639
v 0.017378 0.016528 -0.178504
v 0.017271 0.012951 -0.237454
v 0.017993 -0.013919 -0.178138
v 0.0169697 -0.00865451 -0.250879
v 0.0194725 0.0136006 -0.262397
v 0.019076 -0.01486 -0.173556
v 0.018497 -0.010079 -0.23839
v 0.018674 0.013551 -0.238444
v 0.0205804 -0.00979068 -0.256243
v 0.0209779 0.00438288 -0.150431
v 0.0206887 0.0048746 -0.261144
v 0.021251 -0.009997 -0.239186
v 0.021429 0.018121 -0.175182
v 0.0184343 -0.00125351 -0.270407
v 0.0225562 0.0101818 -0.18104
v 0.0192985 0.0199989 -0.148989
v 0.021758 -0.001362 -0.162001
v 0.021491 -0.001913 -0.253542
v 0.0211546 0.0132461 -0.245605
v 0.022055 -0.000932 -0.25477
v 0.023118 0.004266 -0.167817
v 0.02304 -0.000886 -0.167446
v 0.022349 0.004357 -0.253503
v 0.021647 0.005253 -0.249184
v 0.021423 -0.015256 -0.167301
v 0.022132 -0.001117 -0.249236
v 0.0268992 0.00528509 -0.109629
v 0.0215452 -0.00187071 -0.159452
v 0.022378 0.004846 -0.175653
v 0.022485 -0.001323 -0.175545
v 0.026017 -0.019675 -0.103221
v 0.032321 0.004272 -0.170278
v 0.0243226 -0.016204 -0.339449
v 0.0240793 0.0193187 -0.34513
v 0.0278958 -0.0168157 -0.337094
v 0.025226 0.005518 -0.337958
v 0.0269458 0.0169652 -0.347061
v 0.0290072 -0.0204072 -0.10788
v 0.025315 -0.00116519 -0.337944
v 0.0264572 -0.0197884 -0.090572
v 0.026818 0.00565761 -0.336162
v 0.0258381 0.00439942 -0.336173
v 0.026597 0.004621 -0.333325
v 0.029534 -0.018413 -0.119635
v 0.03349 0.0221397 -0.129177
v 0.027142 -0.001731 -0.333095
v 0.033133 -0.00152 -0.180435
v 0.027682 -0.0164268 -0.334108
v 0.033492 0.005417 -0.170928
v 0.0280216 0.0223995 -0.112357
v 0.0306095 -0.00907117 -0.259674
v 0.030677 -0.008848 -0.251918
v 0.0303167 0.0127594 -0.264235
v 0.0300965 0.0142859 -0.280544
v 0.0285674 0.0187292 -0.312358
v 0.0274616 0.0201547 -0.337835
v 0.030782 -0.018393 -0.125385
v 0.0278673 -0.0120868 -0.347347
v 0.0275763 0.0204529 -0.336113
v 0.031093 0.021036 -0.129861
v 0.0309014 0.0198149 -0.334945
v 0.0291967 -0.016329 -0.322353
v 0.0293134 -0.0127448 -0.295794
v 0.0291102 0.0116665 -0.348522
v 0.030753 -0.003905 -0.345373
v 0.032252 -0.017138 -0.137525
v 0.0309961 -0.0151939 -0.336604
v 0.0314429 -0.00150498 -0.134504
v 0.030741 0.001808 -0.345959
v 0.030982 0.001805 -0.345127
v 0.0334516 -0.00899597 -0.26184
v 0.0307599 0.00436834 -0.132817
v 0.030937 0.001805 -0.345278
v 0.0368146 -0.015445 -0.134348
v 0.0339441 0.0124254 -0.264392
v 0.0317581 0.0143906 -0.339706
v 0.031124 0.013177 -0.242424
v 0.031646 0.0018 -0.342862
v 0.0320572 -0.014668 -0.33523
v 0.033859 -0.014336 -0.175588
v 0.033384 -0.009459 -0.247545
v 0.03422 -0.015067 -0.170158
v 0.0339501 0.0191798 -0.159037
v 0.0337745 0.0197315 -0.152875
v 0.033484 -0.016789 -0.147461
v 0.0373349 0.0193477 -0.147188
v 0.031989 0.018128 -0.333417
v 0.036601 0.018962 -0.164191
v 0.032299 0.001824 -0.339097
v 0.0323201 -0.0144446 -0.311876
v 0.0315969 0.0194945 -0.324997
v 0.0322023 0.00180001 -0.339952
v 0.0332959 0.00493739 -0.162235
v 0.032524 0.001805 -0.336571
v 0.034088 0.012712 -0.285988
v 0.033765 -0.0156 -0.157572
v 0.03902 0.001767 -0.169533
v 0.03553 -0.007447 -0.251513
v 0.035314 0.010491 -0.257233
v 0.0329049 -0.000986414 -0.152838
v 0.0342843 -0.00881983 -0.277995
v 0.034374 0.012707 -0.247561
v 0.037242 -0.014599 -0.172877
v 0.035181 -0.008592 -0.247486
v 0.0341468 0.0227539 -0.123341
v 0.037607 0.017801 -0.172151
v 0.035243 0.011978 -0.247376
v 0.03813 -0.013635 -0.173453
v 0.038315 0.016693 -0.172412
v 0.0384421 -0.013562 -0.167557
v 0.0370084 -0.01629 -0.147866
f 12 4 1
f 3 36 2
f 36 3 2
f 24 1 3
f 24 6 1
f 6 12 1
f 4 3 1
f 3 10 36
f 4 5 3
f 5 10 3
f 36 7 3
f 8 4 12
f 7 24 3
f 4 9 5
f 9 45 5
f 11 12 6
f 8 9 4
f 14 24 7
f 7 29 14
f 15 10 5
f 45 15 5
f 16 11 6
f 16 17 11
f 14 19 24
f 18 13 12
f 17 20 11
f 21 22 17
f 16 21 17
f 19 23 24
f 25 14 29
f 21 20 17
f 23 25 24
f 23 19 14
f 16 26 21
f 26 27 21
f 18 12 11
f 28 23 14
f 28 19 23
f 13 18 12
f 26 20 21
f 20 18 11
f 14 25 28
f 25 23 28
f 20 26 16
f 36 53 31
f 32 6 24
f 33 20 16
f 34 16 6
f 63 36 31
f 35 12 30
f 25 20 24
f 32 34 6
f 20 32 24
f 33 34 32
f 20 34 32
f 29 20 25
f 63 7 36
f 34 33 16
f 20 33 34
f 29 18 20
f 37 45 9
f 8 37 9
f 10 48 36
f 38 39 15
f 39 40 15
f 40 41 15
f 45 38 15
f 41 42 15
f 42 43 15
f 43 44 15
f 44 10 15
f 35 61 12
f 61 8 12
f 46 37 8
f 18 30 12
f 55 35 30
f 41 44 42
f 44 43 42
f 38 41 40
f 39 38 40
f 57 43 41
f 39 57 41
f 43 44 41
f 38 39 41
f 38 57 39
f 57 44 43
f 45 46 38
f 46 57 38
f 57 10 44
f 63 29 7
f 37 38 45
f 37 46 45
f 57 47 10
f 49 29 63
f 50 55 30
f 79 46 8
f 36 51 53
f 86 63 31
f 18 50 30
f 53 86 31
f 51 66 53
f 48 51 36
f 61 62 8
f 54 58 35
f 52 49 63
f 49 18 29
f 49 50 18
f 64 55 50
f 66 86 53
f 58 61 35
f 79 57 46
f 55 58 35
f 55 64 56
f 52 50 49
f 59 79 8
f 58 54 35
f 62 61 69
f 132 51 48
f 62 59 8
f 50 65 64
f 65 56 64
f 61 67 69
f 52 65 50
f 80 56 65
f 64 80 65
f 52 64 65
f 47 132 10
f 132 48 10
f 80 64 52
f 93 61 58
f 117 52 63
f 161 66 51
f 71 72 57
f 72 73 57
f 73 74 57
f 79 71 57
f 74 75 57
f 75 76 57
f 76 77 57
f 77 47 57
f 59 78 79
f 117 80 52
f 62 78 59
f 80 55 56
f 82 83 84
f 85 82 84
f 87 85 84
f 83 91 84
f 74 77 75
f 77 76 75
f 71 74 73
f 72 71 73
f 133 76 74
f 72 133 74
f 76 77 74
f 71 72 74
f 71 133 72
f 89 78 88
f 78 62 88
f 133 77 76
f 89 133 71
f 79 89 71
f 133 47 77
f 78 71 79
f 78 89 79
f 133 248 47
f 92 81 103
f 385 63 86
f 136 161 51
f 55 93 58
f 85 91 82
f 385 117 63
f 94 92 103
f 81 94 103
f 91 95 82
f 95 83 82
f 91 87 84
f 172 70 60
f 96 122 68
f 70 97 60
f 99 98 68
f 100 81 92
f 94 100 92
f 83 101 91
f 101 95 91
f 104 105 103
f 105 102 103
f 106 85 87
f 109 106 87
f 107 172 60
f 97 100 94
f 81 100 94
f 101 99 95
f 101 83 95
f 122 160 68
f 98 90 68
f 92 104 103
f 67 62 69
f 100 107 60
f 97 100 60
f 99 68 101
f 160 101 68
f 55 110 93
f 97 107 100
f 160 99 101
f 209 111 96
f 117 112 80
f 134 55 80
f 114 115 102
f 115 105 102
f 105 103 102
f 105 114 102
f 536 385 86
f 87 124 109
f 70 107 97
f 160 98 99
f 105 116 103
f 80 112 108
f 116 92 103
f 104 114 105
f 113 106 109
f 124 113 109
f 115 116 105
f 132 136 51
f 127 62 67
f 108 134 80
f 90 96 68
f 215 89 88
f 91 118 87
f 119 98 160
f 127 67 61
f 112 121 108
f 116 135 92
f 135 104 92
f 151 172 107
f 111 122 96
f 85 124 91
f 112 125 121
f 126 125 121
f 125 108 121
f 93 127 61
f 143 123 55
f 124 128 113
f 112 126 125
f 126 108 125
f 118 124 87
f 104 129 114
f 115 135 116
f 124 118 91
f 130 108 126
f 112 130 126
f 161 86 66
f 106 128 124
f 215 133 89
f 114 135 115
f 167 85 106
f 158 106 124
f 363 112 117
f 363 130 112
f 167 124 85
f 130 134 108
f 104 137 129
f 141 139 138
f 123 110 55
f 114 144 135
f 158 128 106
f 144 104 135
f 138 145 141
f 147 107 70
f 163 156 146
f 156 159 146
f 148 149 150
f 134 143 55
f 142 215 88
f 242 120 47
f 248 242 47
f 107 151 146
f 159 107 146
f 145 153 141
f 154 90 98
f 167 158 124
f 246 131 70
f 128 155 113
f 242 47 120
f 62 142 88
f 151 107 159
f 140 136 132
f 128 106 113
f 160 152 150
f 156 163 159
f 152 148 150
f 242 132 47
f 150 119 160
f 177 151 159
f 160 162 152
f 152 149 148
f 151 147 146
f 147 151 107
f 164 129 137
f 157 62 127
f 165 119 150
f 129 166 114
f 149 195 150
f 166 164 114
f 164 144 114
f 144 166 104
f 166 137 104
f 128 167 106
f 171 166 144
f 164 171 144
f 168 165 150
f 213 159 163
f 242 140 132
f 135 171 144
f 185 149 152
f 171 135 144
f 213 163 146
f 195 168 150
f 122 162 160
f 146 159 213
f 162 170 152
f 147 159 146
f 170 165 168
f 173 170 168
f 153 174 141
f 168 185 152
f 174 139 141
f 145 174 153
f 162 173 170
f 173 152 170
f 175 174 145
f 181 173 168
f 138 176 145
f 181 168 152
f 173 181 152
f 171 369 135
f 250 142 62
f 147 177 159
f 173 179 170
f 179 165 170
f 176 180 145
f 174 175 153
f 180 175 145
f 138 180 176
f 110 127 93
f 164 166 129
f 175 139 174
f 182 181 173
f 162 182 173
f 180 183 176
f 180 139 175
f 182 179 173
f 183 139 180
f 138 183 180
f 139 183 138
f 177 172 151
f 155 128 113
f 185 168 195
f 157 250 62
f 163 217 213
f 186 149 185
f 187 195 149
f 219 70 172
f 189 187 149
f 186 189 149
f 190 162 122
f 70 191 147
f 169 186 185
f 186 187 189
f 186 193 187
f 162 165 179
f 190 182 162
f 186 193 189
f 191 194 147
f 162 190 165
f 131 191 70
f 192 98 119
f 179 190 162
f 193 195 187
f 192 196 98
f 196 197 98
f 197 154 98
f 182 190 179
f 188 169 185
f 198 193 186
f 194 199 147
f 198 195 193
f 200 90 154
f 201 200 154
f 202 203 133
f 203 204 133
f 204 205 133
f 215 202 133
f 205 206 133
f 207 195 193
f 200 208 90
f 208 209 90
f 177 219 172
f 206 210 133
f 210 211 133
f 211 248 133
f 199 131 147
f 212 217 163
f 209 96 90
f 163 217 212
f 198 207 195
f 254 246 70
f 219 254 70
f 142 214 215
f 216 217 212
f 163 216 217
f 131 194 191
f 197 196 192
f 119 196 192
f 294 216 163
f 169 198 186
f 234 167 128
f 155 234 128
f 198 195 207
f 111 190 122
f 194 199 191
f 294 217 216
f 190 119 165
f 220 177 147
f 294 218 217
f 169 195 198
f 131 220 147
f 154 197 196
f 119 154 196
f 131 199 194
f 164 184 171
f 184 166 171
f 220 219 177
f 135 184 171
f 158 234 128
f 213 294 163
f 169 178 195
f 221 154 119
f 195 188 185
f 190 221 119
f 178 237 195
f 222 221 119
f 221 222 119
f 218 223 224
f 190 222 221
f 221 225 154
f 222 225 221
f 226 352 213
f 217 226 213
f 351 169 188
f 223 227 224
f 227 228 224
f 369 184 135
f 250 214 142
f 228 235 224
f 225 222 154
f 229 220 131
f 230 229 131
f 235 217 224
f 229 231 230
f 229 231 220
f 222 232 154
f 246 230 131
f 246 229 230
f 246 231 229
f 246 220 231
f 190 233 222
f 169 351 178
f 232 201 154
f 111 233 190
f 201 208 200
f 218 224 217
f 232 209 201
f 209 200 201
f 246 219 220
f 184 137 166
f 232 222 233
f 209 208 200
f 111 232 233
f 228 223 218
f 234 155 128
f 140 161 136
f 137 184 164
f 206 211 210
f 202 204 203
f 205 211 206
f 202 205 204
f 235 236 218
f 236 228 218
f 239 210 205
f 203 239 205
f 210 211 205
f 202 203 205
f 202 239 203
f 214 202 215
f 239 211 210
f 215 238 202
f 238 239 202
f 239 248 211
f 158 167 234
f 214 238 215
f 294 235 218
f 250 238 214
f 184 369 171
f 241 232 111
f 243 241 111
f 243 244 241
f 237 188 195
f 244 232 241
f 243 245 241
f 245 244 241
f 111 245 243
f 245 232 244
f 235 247 217
f 367 245 111
f 209 367 111
f 247 226 217
f 245 209 232
f 123 127 110
f 369 240 184
f 249 234 155
f 414 140 242
f 336 155 234
f 461 161 140
f 252 184 137
f 252 240 184
f 240 369 184
f 251 308 246
f 246 308 219
f 414 253 140
f 155 336 249
f 184 252 137
f 246 254 251
f 259 260 255
f 240 252 184
f 267 266 256
f 266 267 256
f 286 259 255
f 264 294 213
f 352 264 213
f 237 344 188
f 344 351 188
f 257 265 258
f 367 209 245
f 268 257 258
f 269 286 262
f 286 269 262
f 395 336 167
f 270 475 265
f 271 272 265
f 272 273 265
f 273 270 265
f 257 271 265
f 274 275 260
f 276 274 260
f 275 277 260
f 278 286 260
f 286 255 260
f 277 423 260
f 423 279 260
f 279 280 260
f 280 278 260
f 281 266 256
f 261 282 263
f 283 286 255
f 251 284 308
f 259 276 260
f 320 261 263
f 278 276 259
f 283 278 259
f 286 283 259
f 265 257 258
f 285 282 261
f 461 398 161
f 278 283 286
f 320 287 263
f 288 274 276
f 278 288 276
f 289 286 269
f 476 257 265
f 475 476 265
f 290 266 267
f 291 320 287
f 292 288 278
f 283 292 278
f 293 283 286
f 280 283 278
f 295 296 290
f 266 295 290
f 297 291 287
f 298 297 287
f 296 299 290
f 300 335 287
f 335 298 287
f 296 266 290
f 299 296 290
f 298 300 287
f 296 301 266
f 291 298 287
f 301 295 266
f 280 286 283
f 302 303 266
f 291 304 320
f 293 289 286
f 281 305 266
f 301 303 266
f 298 335 300
f 296 303 301
f 307 302 303
f 320 304 291
f 309 285 261
f 310 292 283
f 293 310 283
f 359 289 293
f 296 295 303
f 311 271 257
f 303 295 301
f 297 298 291
f 304 306 320
f 280 293 286
f 295 307 303
f 304 297 291
f 313 307 302
f 313 312 302
f 339 302 266
f 312 313 302
f 280 359 293
f 314 293 286
f 289 314 286
f 285 309 261
f 339 266 302
f 305 315 266
f 316 310 293
f 314 316 293
f 339 312 302
f 306 297 304
f 320 317 306
f 295 313 307
f 318 312 313
f 319 306 304
f 297 319 304
f 313 321 307
f 321 295 307
f 319 297 306
f 295 321 313
f 359 314 289
f 319 317 306
f 389 322 257
f 476 389 257
f 359 316 314
f 339 318 312
f 315 305 266
f 416 238 250
f 318 321 313
f 318 339 312
f 323 317 320
f 324 318 312
f 317 320 306
f 315 325 266
f 325 339 266
f 323 326 317
f 323 320 317
f 327 261 320
f 324 321 318
f 323 319 317
f 326 323 320
f 327 326 320
f 322 311 257
f 328 321 324
f 324 339 318
f 319 329 323
f 330 319 323
f 326 330 323
f 329 326 323
f 328 339 324
f 331 308 284
f 339 324 318
f 339 328 324
f 329 330 326
f 330 327 326
f 332 333 284
f 251 334 284
f 334 332 284
f 334 331 284
f 333 334 284
f 327 330 326
f 227 223 228
f 236 227 228
f 235 228 236
f 308 358 219
f 358 337 219
f 334 308 331
f 167 336 234
f 249 336 234
f 336 167 234
f 333 308 334
f 251 332 334
f 161 448 86
f 424 240 369
f 338 178 327
f 332 308 333
f 332 358 308
f 235 226 339
f 238 340 239
f 226 328 339
f 330 338 327
f 328 235 339
f 178 330 327
f 416 340 238
f 341 272 271
f 336 342 249
f 247 328 321
f 295 247 321
f 330 329 319
f 311 341 271
f 343 271 311
f 321 345 295
f 345 247 295
f 366 209 367
f 328 345 321
f 322 343 311
f 247 235 328
f 178 351 330
f 343 341 271
f 343 272 341
f 338 237 178
f 226 345 328
f 351 338 330
f 322 346 343
f 251 402 332
f 347 348 346
f 322 347 346
f 348 343 346
f 448 536 86
f 348 349 343
f 254 402 251
f 349 272 343
f 350 348 347
f 396 250 157
f 350 346 348
f 345 226 247
f 209 404 367
f 350 349 348
f 349 350 347
f 322 349 347
f 461 140 253
f 264 352 294
f 352 235 294
f 356 344 237
f 338 356 237
f 353 354 349
f 353 355 354
f 357 355 354
f 355 349 354
f 322 353 349
f 402 358 332
f 353 357 355
f 352 226 235
f 355 357 349
f 389 272 349
f 353 360 357
f 360 349 357
f 322 361 353
f 361 362 353
f 344 356 351
f 362 381 353
f 338 351 356
f 396 157 127
f 360 389 349
f 363 117 385
f 381 360 353
f 280 364 359
f 365 219 337
f 463 365 337
f 404 368 367
f 395 167 336
f 450 463 337
f 381 370 360
f 370 389 360
f 279 364 280
f 389 361 322
f 364 372 359
f 358 450 337
f 413 239 340
f 374 373 250
f 375 362 361
f 379 416 250
f 414 242 248
f 239 414 248
f 123 376 127
f 396 374 250
f 377 378 375
f 377 362 375
f 361 377 375
f 378 377 361
f 402 365 358
f 377 381 362
f 378 362 377
f 381 377 362
f 378 381 362
f 380 364 279
f 361 382 378
f 382 381 378
f 382 383 378
f 383 382 378
f 383 381 382
f 384 382 361
f 383 378 381
f 394 366 367
f 384 383 382
f 384 381 383
f 359 380 279
f 386 382 384
f 386 381 382
f 381 384 382
f 386 384 361
f 387 273 272
f 501 130 363
f 389 387 272
f 423 359 279
f 361 392 386
f 388 384 386
f 392 388 386
f 388 381 386
f 392 381 388
f 390 380 359
f 372 390 359
f 130 501 134
f 391 396 127
f 414 461 253
f 389 392 361
f 393 252 240
f 392 370 381
f 397 249 342
f 387 399 273
f 399 400 273
f 366 435 209
f 401 316 359
f 403 392 389
f 400 270 273
f 219 402 254
f 376 391 127
f 435 404 209
f 393 371 252
f 397 336 249
f 406 399 387
f 368 435 366
f 406 407 399
f 407 400 399
f 399 270 400
f 407 270 399
f 364 408 405
f 409 410 340
f 410 411 340
f 411 412 340
f 416 409 340
f 414 239 413
f 379 415 416
f 380 408 364
f 417 380 390
f 372 364 408
f 417 418 380
f 575 363 385
f 417 390 372
f 372 408 380
f 390 418 417
f 372 418 417
f 389 419 387
f 418 372 380
f 392 420 370
f 370 421 389
f 420 421 370
f 421 403 389
f 403 420 392
f 422 406 387
f 370 403 421
f 406 270 407
f 373 379 250
f 420 403 370
f 425 422 387
f 389 426 419
f 419 426 387
f 425 427 422
f 501 143 134
f 426 427 387
f 425 406 422
f 427 425 387
f 389 428 426
f 428 419 426
f 428 427 426
f 428 429 427
f 427 429 425
f 389 429 428
f 429 406 425
f 462 270 406
f 277 430 423
f 389 452 429
f 452 462 429
f 431 359 423
f 432 401 359
f 394 368 366
f 433 431 423
f 462 406 429
f 430 433 423
f 367 368 394
f 371 393 252
f 393 470 252
f 373 415 379
f 470 240 252
f 470 393 240
f 397 395 336
f 470 369 240
f 476 452 389
f 431 432 359
f 434 397 342
f 470 393 371
f 470 371 393
f 436 462 452
f 437 438 430
f 439 437 430
f 277 439 430
f 452 440 436
f 440 462 436
f 415 409 416
f 441 458 430
f 409 411 410
f 412 413 340
f 409 412 411
f 440 436 462
f 439 438 437
f 409 410 412
f 409 412 410
f 442 441 430
f 438 442 430
f 443 416 415
f 444 433 430
f 443 412 409
f 416 443 409
f 412 414 413
f 438 441 442
f 412 446 414
f 373 443 415
f 440 462 436
f 445 439 277
f 437 445 438
f 445 442 438
f 439 445 437
f 433 447 431
f 465 432 431
f 445 458 441
f 398 448 161
f 445 441 442
f 458 444 430
f 401 445 277
f 447 449 431
f 462 476 270
f 275 288 277
f 433 449 447
f 288 292 277
f 219 365 402
f 449 451 447
f 292 472 277
f 453 440 452
f 433 451 449
f 472 310 277
f 310 401 277
f 454 440 453
f 451 431 449
f 401 432 445
f 433 455 451
f 454 453 452
f 445 456 458
f 365 450 358
f 457 454 452
f 454 457 453
f 451 455 431
f 432 456 445
f 455 465 431
f 459 458 456
f 432 458 456
f 462 454 457
f 580 461 414
f 462 440 454
f 462 457 452
f 433 460 455
f 446 590 414
f 590 618 414
f 143 537 123
f 618 580 414
f 365 463 450
f 472 288 275
f 469 336 395
f 460 464 455
f 292 274 288
f 292 472 274
f 472 292 288
f 460 465 464
f 472 477 274
f 477 275 274
f 465 455 464
f 310 316 292
f 477 472 275
f 433 444 460
f 467 443 373
f 476 475 270
f 468 465 460
f 316 472 292
f 468 464 465
f 469 434 342
f 482 550 470
f 470 424 369
f 473 401 310
f 472 473 310
f 460 471 468
f 424 470 240
f 471 465 468
f 444 474 460
f 401 472 316
f 368 404 435
f 462 452 476
f 474 471 460
f 474 468 471
f 473 472 401
f 474 471 468
f 476 481 475
f 477 479 472
f 478 481 476
f 480 473 472
f 482 371 470
f 469 395 397
f 474 465 471
f 481 476 475
f 474 432 465
f 479 477 472
f 482 470 371
f 483 484 485
f 474 486 487
f 487 488 474
f 458 459 444
f 489 474 444
f 488 432 474
f 489 486 474
f 459 490 444
f 490 489 444
f 432 459 458
f 486 488 487
f 483 491 484
f 489 490 459
f 491 492 484
f 493 491 484
f 492 493 484
f 489 487 486
f 432 490 459
f 491 494 492
f 494 493 492
f 495 488 486
f 496 486 489
f 432 489 490
f 496 495 488
f 495 432 488
f 432 496 489
f 496 495 486
f 496 432 495
f 491 493 494
f 493 497 494
f 499 502 494
f 497 499 494
f 502 506 494
f 500 503 498
f 502 499 494
f 519 502 506
f 524 498 503
f 498 524 503
f 504 499 502
f 498 505 524
f 512 524 503
f 467 412 443
f 507 502 504
f 524 512 503
f 505 498 524
f 514 508 503
f 508 514 503
f 507 499 504
f 499 509 504
f 509 507 504
f 510 498 505
f 534 519 506
f 507 526 502
f 509 516 507
f 511 510 505
f 509 499 507
f 502 526 519
f 524 511 505
f 513 505 511
f 510 513 511
f 516 515 507
f 515 509 507
f 509 515 516
f 526 516 507
f 511 524 505
f 516 526 507
f 524 513 511
f 508 512 503
f 512 508 503
f 509 517 515
f 518 510 513
f 517 526 515
f 526 516 515
f 524 518 513
f 513 524 511
f 520 969 532
f 523 517 515
f 526 523 515
f 522 524 512
f 522 512 524
f 918 521 531
f 518 527 524
f 522 535 524
f 535 525 524
f 530 508 512
f 521 528 531
f 526 529 519
f 530 512 508
f 519 529 526
f 535 522 524
f 530 522 512
f 514 530 508
f 530 535 522
f 533 529 519
f 528 543 531
f 533 541 519
f 541 533 519
f 543 570 531
f 538 539 524
f 539 518 524
f 540 535 530
f 540 514 530
f 514 542 530
f 542 540 530
f 534 541 519
f 541 534 519
f 540 542 514
f 527 538 524
f 527 539 538
f 544 532 969
f 517 545 526
f 599 518 539
f 538 599 539
f 599 538 539
f 527 599 539
f 545 523 526
f 531 546 918
f 528 570 543
f 548 520 532
f 523 545 517
f 599 547 518
f 547 527 518
f 614 544 969
f 621 469 395
f 521 570 528
f 550 424 470
f 336 469 342
f 424 550 470
f 550 482 470
f 434 551 397
f 552 469 397
f 551 552 397
f 553 548 532
f 550 371 482
f 546 521 918
f 553 556 548
f 557 461 580
f 556 553 532
f 544 556 532
f 558 556 553
f 371 550 482
f 549 523 545
f 544 558 556
f 466 501 363
f 558 548 556
f 544 548 558
f 549 560 523
f 520 554 969
f 546 561 521
f 555 546 531
f 562 537 143
f 563 564 546
f 564 561 546
f 547 599 527
f 561 564 563
f 555 564 563
f 546 555 563
f 561 555 521
f 564 555 561
f 560 653 523
f 616 599 547
f 565 412 467
f 582 545 523
f 566 520 548
f 501 562 143
f 653 582 523
f 568 547 599
f 537 376 123
f 550 596 424
f 469 621 395
f 567 596 424
f 596 550 424
f 559 568 599
f 569 568 559
f 619 374 396
f 619 373 374
f 521 572 570
f 620 614 554
f 614 969 554
f 531 571 555
f 571 572 555
f 572 521 555
f 566 554 520
f 574 548 544
f 570 573 531
f 606 412 565
f 557 398 461
f 614 574 544
f 584 562 501
f 600 566 548
f 576 600 548
f 577 576 548
f 574 577 548
f 578 579 570
f 572 578 570
f 581 549 545
f 568 583 547
f 583 616 547
f 575 466 363
f 596 585 424
f 575 501 466
f 575 584 501
f 586 576 577
f 559 656 569
f 587 586 577
f 588 587 577
f 574 588 577
f 573 571 531
f 589 587 586
f 587 576 586
f 587 589 576
f 588 589 587
f 412 590 446
f 588 576 589
f 585 567 424
f 376 591 391
f 592 593 568
f 594 592 568
f 595 592 594
f 568 569 594
f 569 592 594
f 593 583 568
f 398 629 448
f 537 647 376
f 579 573 570
f 621 434 469
f 552 621 469
f 588 600 576
f 549 597 560
f 598 559 599
f 641 596 550
f 592 595 593
f 569 595 592
f 569 593 595
f 601 600 588
f 598 599 559
f 656 661 569
f 582 602 545
f 602 581 545
f 661 593 569
f 619 467 373
f 560 597 549
f 581 560 549
f 616 656 559
f 599 616 559
f 580 618 557
f 391 619 396
f 588 600 601
f 593 661 583
f 603 604 467
f 604 605 467
f 605 565 467
f 605 607 565
f 607 608 565
f 608 609 565
f 614 631 588
f 574 614 588
f 631 600 588
f 622 626 611
f 626 612 611
f 653 602 582
f 611 625 622
f 661 616 583
f 579 571 573
f 578 571 579
f 617 610 615
f 434 552 551
f 434 650 551
f 650 434 551
f 617 613 610
f 647 591 376
f 585 596 567
f 620 566 614
f 552 649 621
f 585 550 596
f 612 625 611
f 617 615 623
f 554 566 620
f 591 619 391
f 613 662 610
f 662 615 610
f 627 434 621
f 630 631 614
f 566 630 614
f 566 630 631
f 566 631 630
f 578 628 571
f 632 572 571
f 633 634 571
f 634 632 571
f 633 634 632
f 566 600 631
f 628 633 571
f 633 628 634
f 628 632 634
f 628 572 632
f 662 623 615
f 628 578 572
f 624 687 619
f 638 637 635
f 639 398 557
f 635 640 638
f 596 641 585
f 659 643 467
f 645 640 635
f 637 644 635
f 645 638 640
f 412 642 590
f 643 603 467
f 640 637 638
f 603 605 604
f 643 604 603
f 635 640 645
f 565 609 606
f 607 609 605
f 609 608 605
f 608 607 605
f 606 686 412
f 686 606 609
f 607 686 609
f 643 605 604
f 605 686 607
f 643 686 605
f 648 636 646
f 644 640 635
f 687 467 619
f 590 732 618
f 674 612 626
f 642 732 590
f 585 641 550
f 434 649 552
f 640 644 637
f 650 649 434
f 434 649 650
f 662 617 623
f 648 646 636
f 622 652 626
f 602 660 581
f 581 653 560
f 654 629 398
f 627 649 434
f 652 674 626
f 655 653 581
f 639 654 398
f 684 653 655
f 651 652 622
f 657 613 617
f 412 658 642
f 653 660 602
f 656 673 661
f 678 624 619
f 663 557 618
f 660 655 581
f 657 664 613
f 665 664 657
f 647 678 591
f 617 666 657
f 649 627 621
f 668 613 664
f 666 665 657
f 665 668 664
f 732 756 618
f 666 664 665
f 666 668 664
f 666 613 668
f 654 639 557
f 663 654 557
f 616 685 656
f 669 617 662
f 670 669 662
f 612 622 625
f 671 652 651
f 678 619 591
f 671 672 652
f 685 723 656
f 672 674 652
f 675 670 662
f 711 675 662
f 613 676 662
f 676 711 662
f 677 612 674
f 653 679 660
f 681 666 617
f 612 682 622
f 683 682 612
f 685 661 673
f 685 616 661
f 681 613 666
f 682 651 622
f 653 684 679
f 684 655 660
f 684 660 679
f 681 676 613
f 677 683 612
f 656 723 673
f 448 699 536
f 688 689 684
f 655 688 684
f 669 681 617
f 690 691 682
f 692 690 682
f 683 693 682
f 693 694 682
f 694 692 682
f 654 731 629
f 696 649 680
f 649 696 680
f 723 685 673
f 697 676 681
f 695 697 681
f 697 698 676
f 697 711 676
f 629 699 448
f 537 734 647
f 618 756 663
f 700 722 685
f 722 723 685
f 700 685 723
f 701 682 691
f 692 691 690
f 693 692 694
f 698 697 695
f 720 702 684
f 693 703 692
f 703 690 692
f 701 691 690
f 703 701 690
f 704 682 701
f 704 705 682
f 705 651 682
f 695 711 698
f 702 720 684
f 723 722 700
f 706 695 681
f 683 703 693
f 698 711 697
f 720 707 684
f 704 705 701
f 681 708 706
f 709 701 703
f 709 704 701
f 709 705 704
f 709 651 705
f 689 726 684
f 669 721 681
f 683 709 703
f 708 695 706
f 710 708 706
f 721 708 681
f 721 710 708
f 708 711 695
f 710 711 708
f 669 712 721
f 721 711 710
f 718 669 670
f 669 713 712
f 714 671 651
f 714 672 671
f 671 709 672
f 713 721 712
f 716 713 712
f 717 669 718
f 669 716 713
f 717 716 669
f 709 671 714
f 651 709 714
f 675 718 670
f 709 674 672
f 715 717 718
f 713 717 721
f 716 717 713
f 675 715 718
f 677 709 683
f 675 717 715
f 688 655 684
f 726 688 684
f 663 731 654
f 659 686 643
f 711 717 675
f 740 412 686
f 721 717 711
f 709 677 674
f 724 659 467
f 756 725 663
f 730 624 678
f 725 731 663
f 722 736 700
f 719 667 585
f 702 737 720
f 723 729 722
f 729 736 722
f 727 702 720
f 736 728 722
f 728 723 722
f 737 707 720
f 684 727 720
f 756 731 725
f 658 732 642
f 707 726 684
f 726 727 684
f 728 729 723
f 687 770 467
f 770 724 467
f 733 731 756
f 707 688 726
f 689 727 726
f 678 734 730
f 688 707 689
f 707 727 689
f 729 735 736
f 727 737 702
f 735 728 736
f 750 658 412
f 740 750 412
f 738 761 659
f 739 686 659
f 739 741 686
f 741 742 686
f 742 743 686
f 747 744 735
f 751 748 737
f 731 699 629
f 647 734 678
f 727 751 737
f 746 737 748
f 729 745 735
f 730 791 624
f 770 687 624
f 791 770 624
f 729 735 745
f 746 707 737
f 744 728 735
f 746 719 707
f 752 735 729
f 734 755 730
f 728 752 729
f 707 749 727
f 749 751 727
f 770 659 724
f 775 746 748
f 735 774 747
f 774 744 747
f 775 759 746
f 750 732 658
f 770 738 659
f 753 756 732
f 757 738 770
f 750 753 732
f 761 739 738
f 739 659 761
f 774 752 728
f 757 761 738
f 686 743 740
f 741 743 739
f 743 742 739
f 742 741 739
f 740 800 750
f 800 740 743
f 741 800 743
f 739 800 741
f 761 800 739
f 584 537 562
f 537 754 734
f 744 774 728
f 751 775 748
f 584 754 537
f 749 667 719
f 731 758 699
f 755 791 730
f 749 707 585
f 667 749 585
f 707 719 585
f 752 729 696
f 746 759 719
f 762 735 752
f 762 774 735
f 729 752 696
f 536 787 385
f 733 765 731
f 763 758 731
f 754 767 734
f 699 787 536
f 781 782 764
f 767 755 734
f 584 793 754
f 731 768 763
f 756 765 733
f 769 765 756
f 731 769 768
f 769 763 768
f 787 575 385
f 765 769 731
f 758 787 699
f 793 773 754
f 774 776 752
f 771 785 766
f 772 771 766
f 778 751 749
f 791 755 767
f 774 762 752
f 719 778 749
f 779 769 756
f 776 774 752
f 777 781 764
f 753 779 756
f 778 775 751
f 782 777 764
f 785 772 766
f 750 779 753
f 780 757 770
f 783 767 754
f 775 719 759
f 783 791 767
f 800 760 750
f 780 784 761
f 757 780 761
f 760 779 750
f 784 795 761
f 795 800 761
f 575 793 584
f 719 775 778
f 787 758 763
f 773 788 754
f 786 787 763
f 788 783 754
f 782 789 777
f 790 772 785
f 771 790 785
f 789 781 777
f 772 790 771
f 789 782 781
f 769 794 763
f 794 786 763
f 800 792 779
f 760 800 779
f 799 784 780
f 787 793 575
f 779 794 769
f 788 791 783
f 773 793 788
f 799 795 784
f 797 787 786
f 798 788 797
f 788 787 797
f 798 809 788
f 791 807 770
f 787 788 793
f 786 794 797
f 792 806 779
f 806 794 779
f 807 780 770
f 788 796 791
f 805 807 801
f 798 805 801
f 802 798 801
f 803 802 801
f 804 803 801
f 809 804 801
f 807 809 801
f 809 796 788
f 807 795 799
f 806 807 805
f 810 808 805
f 808 806 805
f 798 810 805
f 809 791 796
f 795 807 806
f 800 795 792
f 807 799 780
f 810 798 797
f 808 810 797
f 795 806 792
f 791 809 807
f 804 802 803
f 809 798 802
f 803 809 802
f 804 809 803
f 797 794 806
f 806 808 797
f 813 812 811
f 812 817 811
f 817 820 811
f 820 814 811
f 811 814 813
f 815 812 813
f 815 817 812
f 820 816 814
f 816 819 814
f 818 820 817
f 837 817 815
f 813 837 815
f 862 813 814
f 819 862 814
f 837 821 817
f 821 818 817
f 820 819 816
f 821 822 818
f 843 823 825
f 842 843 825
f 836 828 823
f 822 820 818
f 827 826 823
f 828 827 823
f 823 824 825
f 828 825 827
f 824 826 827
f 824 827 825
f 826 824 823
f 836 833 828
f 829 862 819
f 96 820 822
f 828 830 825
f 830 831 825
f 831 842 825
f 823 832 836
f 829 839 862
f 843 832 823
f 834 843 842
f 893 1098 813
f 1098 837 813
f 833 847 828
f 96 822 821
f 843 838 835
f 820 880 819
f 835 832 843
f 840 96 821
f 847 830 828
f 862 893 813
f 841 842 831
f 840 857 96
f 835 844 832
f 845 833 836
f 844 836 832
f 847 841 831
f 844 866 836
f 847 831 830
f 838 844 835
f 848 838 843
f 881 820 96
f 880 829 819
f 846 847 833
f 849 843 834
f 863 844 838
f 924 911 838
f 911 863 838
f 847 850 841
f 937 913 841
f 850 937 841
f 863 866 844
f 846 853 847
f 857 881 96
f 914 920 821
f 920 840 821
f 859 924 838
f 913 957 841
f 957 842 841
f 842 851 834
f 854 851 842
f 849 848 843
f 957 855 842
f 848 859 838
f 847 858 850
f 889 836 866
f 833 865 846
f 847 856 858
f 902 859 848
f 1099 852 842
f 855 1099 842
f 829 872 839
f 861 873 857
f 845 865 833
f 852 854 842
f 876 860 839
f 920 864 840
f 864 857 840
f 836 865 845
f 872 876 839
f 867 937 850
f 871 858 856
f 868 862 839
f 853 856 847
f 853 871 856
f 869 866 863
f 911 870 863
f 858 867 850
f 870 869 863
f 860 868 839
f 864 861 857
f 1100 1066 834
f 1066 849 834
f 851 1100 834
f 871 874 858
f 874 867 858
f 873 881 857
f 948 869 870
f 884 874 871
f 820 879 880
f 877 866 869
f 880 944 829
f 853 904 871
f 944 971 829
f 881 879 820
f 878 884 871
f 875 868 860
f 864 883 861
f 866 885 889
f 876 875 860
f 883 886 861
f 886 873 861
f 882 896 873
f 906 878 871
f 971 872 829
f 877 885 866
f 948 887 869
f 873 896 881
f 886 882 873
f 889 865 836
f 876 888 875
f 904 900 871
f 916 894 869
f 906 909 878
f 865 890 846
f 890 910 846
f 891 884 878
f 886 892 882
f 903 916 869
f 894 877 869
f 900 906 871
f 882 892 896
f 898 904 853
f 872 895 876
f 982 1100 851
f 897 982 851
f 895 899 876
f 887 903 869
f 899 888 876
f 892 958 896
f 837 914 821
f 1066 981 849
f 854 897 851
f 898 853 846
f 984 891 878
f 901 897 854
f 852 901 854
f 927 980 878
f 980 984 878
f 905 901 852
f 889 890 865
f 910 898 846
f 885 877 894
f 849 907 848
f 907 1017 848
f 1017 902 848
f 908 905 852
f 1099 908 852
f 916 926 894
f 909 927 878
f 903 915 916
f 909 934 927
f 926 885 894
f 912 909 906
f 898 912 904
f 922 916 915
f 912 900 904
f 912 906 900
f 939 913 937
f 862 941 893
f 925 939 937
f 921 980 927
f 918 879 881
f 955 910 890
f 919 940 917
f 933 911 917
f 898 910 912
f 939 962 913
f 940 938 917
f 925 942 939
f 924 917 911
f 962 957 913
f 923 916 922
f 928 889 885
f 938 933 917
f 923 926 916
f 955 929 910
f 920 930 864
f 896 931 881
f 868 1114 862
f 889 932 890
f 930 883 864
f 946 909 912
f 946 934 909
f 928 932 889
f 929 912 910
f 967 915 903
f 1114 941 862
f 936 928 885
f 936 885 926
f 938 935 933
f 983 917 924
f 929 946 912
f 933 870 911
f 960 934 946
f 960 989 934
f 887 967 903
f 919 824 940
f 824 945 939
f 942 824 939
f 940 961 938
f 934 950 927
f 919 945 824
f 826 940 824
f 942 826 824
f 943 942 925
f 936 1050 928
f 1050 991 928
f 859 983 924
f 944 880 879
f 947 949 922
f 945 970 939
f 890 932 955
f 967 922 915
f 922 1050 923
f 927 980 921
f 977 950 934
f 923 1050 926
f 826 961 940
f 963 826 942
f 970 962 939
f 983 919 917
f 926 1050 936
f 963 961 826
f 925 937 867
f 874 925 867
f 931 918 881
f 933 948 870
f 884 891 874
f 951 970 919
f 970 945 919
f 874 943 925
f 950 975 927
f 952 922 967
f 922 953 1050
f 927 975 980
f 954 934 989
f 933 965 948
f 965 933 935
f 956 955 932
f 928 956 932
f 991 956 928
f 981 907 849
f 908 959 905
f 965 973 948
f 954 977 934
f 960 946 929
f 989 960 929
f 952 947 922
f 971 895 872
f 891 964 874
f 951 919 983
f 963 942 943
f 949 953 922
f 957 966 855
f 1098 914 837
f 905 982 897
f 964 943 874
f 968 879 918
f 969 971 944
f 901 905 897
f 972 967 887
f 1000 983 859
f 962 966 957
f 948 972 887
f 984 964 891
f 973 972 948
f 879 969 944
f 984 943 964
f 974 907 981
f 961 935 938
f 952 1002 949
f 947 952 949
f 991 955 956
f 991 992 955
f 992 929 955
f 976 989 929
f 1019 895 971
f 978 984 980
f 1044 931 896
f 958 1044 896
f 979 899 895
f 989 977 954
f 977 975 950
f 985 951 983
f 988 952 967
f 1021 972 973
f 985 986 951
f 914 930 920
f 986 995 951
f 995 970 951
f 963 1048 961
f 994 1048 963
f 914 1080 930
f 977 980 975
f 875 1114 868
f 1080 883 930
f 1050 1001 991
f 965 1021 973
f 959 990 905
f 984 994 943
f 994 963 943
f 990 982 905
f 972 988 967
f 941 1098 893
f 989 997 977
f 985 993 986
f 993 995 986
f 995 962 970
f 989 998 997
f 1098 1018 914
f 1033 966 962
f 999 985 983
f 995 1033 962
f 966 1020 855
f 1020 1099 855
f 902 1000 859
f 1026 980 987
f 988 1002 952
f 997 980 977
f 1002 953 949
f 935 1029 965
f 1029 1021 965
f 1026 978 980
f 1114 1069 941
f 1018 1080 914
f 1041 999 983
f 1033 1020 966
f 1000 1041 983
f 999 1004 985
f 1022 1033 995
f 988 1050 953
f 998 980 997
f 1002 988 953
f 1006 974 1007
f 1011 969 879
f 810 1010 879
f 1010 1011 879
f 1223 810 879
f 968 1193 879
f 1193 1196 879
f 1196 1223 879
f 996 1007 974
f 1012 1013 1009
f 1028 1006 1007
f 1014 998 989
f 1009 1005 990
f 996 1153 1007
f 1008 992 991
f 929 1015 976
f 1016 1193 968
f 959 1009 990
f 1153 1028 1007
f 1013 1005 1009
f 918 1016 968
f 1028 1130 1006
f 1130 1017 1006
f 1115 1012 1009
f 959 1115 1009
f 992 1008 929
f 1008 1015 929
f 1019 971 969
f 1011 1019 969
f 931 1016 918
f 1004 1022 985
f 1022 993 985
f 1023 1048 994
f 1022 995 993
f 1024 1003 984
f 972 1068 988
f 1068 1053 988
f 1058 991 1001
f 1003 994 984
f 978 1024 984
f 1012 1030 1013
f 1153 1031 1028
f 1032 1005 1013
f 1031 1027 1028
f 1034 1032 1013
f 1030 1034 1013
f 1035 1036 1027
f 1031 1035 1027
f 1036 1028 1027
f 1037 1028 1036
f 1058 1001 1050
f 1038 1016 931
f 1037 1130 1028
f 1040 1034 1030
f 1066 974 981
f 1056 1052 1020
f 1192 895 1019
f 1044 1038 931
f 902 1107 1000
f 976 1015 989
f 1012 1040 1030
f 1192 979 895
f 1035 1037 1036
f 1066 996 974
f 1042 1099 1020
f 1035 1043 1037
f 1052 1042 1020
f 1045 1130 1037
f 1043 1045 1037
f 1231 1040 1012
f 1046 899 979
f 1198 1046 979
f 1115 1047 1012
f 1047 1231 1012
f 1015 1014 989
f 1048 1029 961
f 1029 935 961
f 1094 1018 1098
f 1049 1041 1000
f 998 987 980
f 1107 1049 1000
f 1051 888 899
f 1046 1051 899
f 892 1201 958
f 1201 1044 958
f 1073 982 990
f 1024 994 1003
f 1033 1056 1020
f 1024 1070 994
f 1049 999 1041
f 1054 1114 875
f 1061 1060 1049
f 1068 972 1021
f 1053 1050 988
f 1006 907 974
f 1017 907 1006
f 1049 1060 999
f 1056 1091 1052
f 908 1112 959
f 1112 1115 959
f 1055 1057 996
f 1005 1073 990
f 888 1054 875
f 1014 1026 987
f 999 1059 1004
f 1092 1033 1022
f 1070 1023 994
f 1088 991 1058
f 1069 1098 941
f 1064 1052 1091
f 1107 1061 1049
f 1078 1042 1052
f 1062 1084 1048
f 1084 1079 1048
f 1023 1062 1048
f 1063 999 1060
f 1091 1056 1033
f 1053 1058 1050
f 998 1014 987
f 982 1067 1100
f 1029 1068 1021
f 978 1070 1024
f 1071 1084 1062
f 1014 1025 1026
f 1015 1089 1014
f 1061 1065 1060
f 1075 1076 1004
f 1076 1022 1004
f 1064 1078 1052
f 1074 1058 1053
f 1069 1159 1098
f 1065 1095 1060
f 1071 1083 1084
f 1057 1153 996
f 1077 1073 1005
f 1032 1077 1005
f 1079 1029 1048
f 1089 1025 1014
f 1004 1079 1075
f 1076 1086 1022
f 1086 1092 1022
f 1063 1059 999
f 1079 1084 1075
f 1084 1085 1075
f 1085 1076 1075
f 1085 1086 1076
f 1085 1062 1023
f 1086 1085 1023
f 1084 1087 1085
f 1085 1071 1062
f 1074 1053 1058
f 1088 1008 991
f 1087 1071 1085
f 1083 1087 1084
f 1072 1088 1053
f 1053 1088 1058
f 1090 1063 1060
f 1039 1067 982
f 1079 1082 1029
f 1070 1104 1023
f 1061 1108 1065
f 1102 1090 1060
f 1081 1093 1064
f 1095 1102 1060
f 1101 996 1066
f 1059 1082 1004
f 1082 1079 1004
f 1023 1092 1086
f 883 892 886
f 1104 1092 1023
f 1096 1089 1015
f 888 1173 1054
f 1093 1078 1064
f 1094 1080 1018
f 1097 1099 1078
f 1073 1039 982
f 1008 1088 1015
f 1088 1096 1015
f 1099 1042 1078
f 1101 1066 1100
f 1092 1091 1033
f 1101 1055 996
f 1092 1025 1091
f 1103 1068 1029
f 978 1104 1070
f 1025 1064 1091
f 1051 1173 888
f 883 1201 892
f 1105 883 1080
f 1017 1107 902
f 1112 908 1099
f 1082 1103 1029
f 1025 1081 1064
f 1108 1141 1065
f 1107 1108 1061
f 1026 1025 978
f 1063 1082 1059
f 1102 1063 1090
f 1103 1082 1068
f 1093 1106 1078
f 1106 1097 1078
f 1082 1122 1068
f 1144 1112 1099
f 1017 1111 1107
f 1113 1104 978
f 1122 1053 1068
f 1025 1113 978
f 1069 1116 1159
f 1134 1098 1159
f 1094 1134 1080
f 1102 1082 1063
f 1123 1025 1092
f 1107 1118 1108
f 1128 1099 1097
f 1146 1069 1114
f 1123 1092 1104
f 1118 1131 1108
f 1106 1128 1097
f 1110 1017 1130
f 1112 1120 1115
f 1121 1111 1017
f 1099 1128 1144
f 1123 1104 1113
f 1122 1082 1102
f 1124 1047 1115
f 1117 1125 1088
f 1134 1094 1098
f 1112 1126 1120
f 1146 1109 1069
f 1120 1124 1115
f 1096 1025 1089
f 1109 1116 1069
f 1067 1101 1100
f 1110 1138 1017
f 1141 1108 1131
f 1129 1231 1047
f 1125 1096 1088
f 1128 1106 1127
f 1025 1123 1113
f 1111 1118 1107
f 1125 1119 1096
f 1072 1117 1088
f 1081 1025 1096
f 1124 1129 1047
f 1106 1132 1127
f 1138 1121 1017
f 1133 1126 1112
f 1072 1135 1117
f 1072 1053 1122
f 1118 1137 1131
f 1136 1129 1124
f 1093 1132 1106
f 1137 1141 1131
f 1045 1110 1130
f 1111 1137 1118
f 1139 1081 1096
f 1119 1139 1096
f 1120 1136 1124
f 1072 1102 1095
f 1135 1125 1117
f 1045 1138 1110
f 1126 1136 1120
f 1095 1065 1141
f 1045 1142 1138
f 1128 1143 1137
f 1143 1128 1127
f 1102 1072 1122
f 1153 1145 1031
f 1144 1133 1112
f 1141 1137 1143
f 1132 1143 1127
f 1135 1083 1125
f 1071 1139 1119
f 1137 1151 1128
f 1083 1071 1125
f 1071 1119 1125
f 1145 1035 1031
f 1132 1087 1143
f 1146 1114 1054
f 1143 1095 1141
f 1128 1151 1144
f 1116 1147 1159
f 1173 1146 1054
f 1040 1032 1034
f 1151 1137 1111
f 1150 1133 1144
f 1140 1080 1134
f 1146 1116 1109
f 1093 1081 1132
f 1149 1101 1067
f 1164 1140 1134
f 1121 1151 1111
f 1081 1087 1132
f 1145 1043 1035
f 1135 1072 1095
f 1152 1159 1147
f 1142 1121 1138
f 1149 1055 1101
f 1055 1153 1057
f 1156 1150 1144
f 1159 1164 1134
f 1133 1150 1126
f 1259 1045 1043
f 1032 1175 1077
f 1116 1154 1147
f 1154 1067 1147
f 1067 1155 1147
f 1155 1152 1147
f 1164 1080 1140
f 1148 1201 883
f 1073 1157 1039
f 1039 1158 1067
f 1158 1155 1067
f 1139 1087 1081
f 1149 1067 1154
f 1155 1160 1152
f 1156 1144 1151
f 1168 1163 1116
f 1152 1161 1159
f 1160 1161 1152
f 1162 1149 1154
f 1087 1095 1143
f 1116 1163 1154
f 1163 1162 1154
f 1080 1164 1105
f 1164 883 1105
f 1040 1169 1032
f 1159 1178 1164
f 1158 1160 1155
f 1077 1157 1073
f 1160 1158 1161
f 1170 1148 883
f 1149 1165 1055
f 1146 1168 1116
f 1164 1170 883
f 1157 1158 1039
f 1166 1162 1163
f 1095 1083 1135
f 1168 1166 1163
f 1187 1145 1153
f 1087 1083 1095
f 1162 1165 1149
f 1165 1162 1166
f 1055 1187 1153
f 1087 1139 1071
f 1167 1159 1161
f 1158 1167 1161
f 1167 1178 1159
f 1231 1169 1040
f 1158 1157 1167
f 1165 1184 1055
f 1199 1151 1121
f 1173 1168 1146
f 1168 1171 1166
f 1171 1165 1166
f 1172 1178 1167
f 1157 1172 1167
f 1032 1174 1175
f 1187 1043 1145
f 1077 1175 1157
f 1184 1187 1055
f 1197 1121 1142
f 1175 1172 1157
f 1171 1184 1165
f 1169 1174 1032
f 1177 1168 1173
f 1179 1177 1173
f 1150 1136 1126
f 1176 1043 1187
f 1176 1181 1043
f 1182 1201 1148
f 1170 1182 1148
f 1178 1183 1164
f 1183 1170 1164
f 1174 1172 1175
f 1181 1259 1043
f 1231 1180 1169
f 1197 1199 1121
f 1172 1174 1178
f 1177 1171 1168
f 1177 1184 1171
f 1174 1183 1178
f 1179 1185 1177
f 1186 1129 1136
f 1187 1184 1177
f 1183 1182 1170
f 1174 1188 1183
f 1189 1187 1177
f 1169 1188 1174
f 1190 1142 1045
f 1150 1186 1136
f 1187 1189 1176
f 1185 1189 1177
f 1188 1182 1183
f 1188 1180 1182
f 1190 1197 1142
f 1189 1181 1176
f 1180 1188 1169
f 1156 1264 1150
f 1181 1189 1185
f 1179 1181 1185
f 1051 1179 1173
f 1191 1201 1182
f 1192 1019 1011
f 1192 1198 979
f 1231 1191 1180
f 1051 1259 1179
f 1259 1181 1179
f 1180 1191 1182
f 1194 1192 1011
f 1195 1038 1044
f 1209 1186 1150
f 1264 1209 1150
f 1186 1231 1129
f 1016 1215 1193
f 1215 1016 1038
f 1044 1200 1195
f 1200 1038 1195
f 1227 1203 1045
f 1203 1190 1045
f 1201 1200 1044
f 1215 1196 1193
f 1192 1194 1198
f 1198 1051 1046
f 1191 1202 1201
f 1218 1038 1200
f 1199 1156 1151
f 1218 1215 1038
f 1205 1051 1198
f 1206 1259 1051
f 1191 1252 1202
f 1202 1200 1201
f 1205 1206 1051
f 1194 1207 1198
f 1207 1205 1198
f 1215 1220 1196
f 1010 1217 1011
f 1259 1227 1045
f 1208 1200 1202
f 1252 1208 1202
f 1222 1210 1205
f 1207 1222 1205
f 1210 1211 1205
f 1211 1206 1205
f 1212 1213 1200
f 1213 1214 1200
f 1214 1218 1200
f 1208 1212 1200
f 1203 1216 1190
f 1216 1197 1190
f 1264 1204 1209
f 1226 1194 1011
f 1219 1231 1186
f 1209 1219 1186
f 1217 1226 1011
f 1220 1223 1196
f 1194 1221 1207
f 1218 1220 1215
f 1221 1222 1207
f 1250 1220 1218
f 810 1223 1010
f 1221 1249 1222
f 1214 1250 1218
f 1220 1235 1223
f 1213 1250 1214
f 1223 1224 1010
f 1225 1216 1203
f 1204 1219 1209
f 1225 1203 1227
f 1226 1238 1194
f 1270 1197 1216
f 1229 1228 1223
f 1230 1210 1222
f 1249 1230 1222
f 1235 1229 1223
f 1223 1228 1224
f 1010 1226 1217
f 1228 1232 1224
f 1197 1233 1199
f 1234 1213 1212
f 1233 1156 1199
f 1208 1236 1212
f 1224 1238 1010
f 1232 1229 1224
f 1229 1232 1228
f 1229 1237 1224
f 1238 1226 1010
f 1237 1229 1232
f 1249 1221 1194
f 1238 1249 1194
f 1235 1237 1229
f 1233 1264 1156
f 1239 1206 1211
f 1208 1242 1236
f 1230 1240 1210
f 1251 1238 1224
f 1237 1251 1224
f 1241 1239 1211
f 1210 1241 1211
f 1236 1234 1212
f 1242 1231 1219
f 1251 1237 1235
f 1243 1242 1219
f 1204 1243 1219
f 1225 1244 1216
f 1250 1246 1220
f 1246 1235 1220
f 1240 1241 1210
f 1247 1234 1236
f 1242 1247 1236
f 1251 1248 1237
f 1244 1270 1216
f 1248 1251 1235
f 1253 1248 1235
f 1251 1248 1238
f 1248 1253 1238
f 1254 1253 1235
f 1246 1254 1235
f 1260 1249 1238
f 1250 1254 1246
f 1252 1191 1231
f 1255 1225 1227
f 1242 1252 1231
f 1234 1250 1213
f 1253 1260 1238
f 1256 1257 1253
f 1257 1260 1253
f 1254 1258 1253
f 1258 1256 1253
f 1204 1247 1243
f 1255 1244 1225
f 1259 1255 1227
f 1242 1208 1252
f 1260 1230 1249
f 1239 1259 1206
f 1270 1241 1240
f 1239 1255 1259
f 1245 1247 1204
f 1241 1244 1255
f 1241 1255 1239
f 1262 1270 1240
f 1247 1261 1234
f 1234 1254 1250
f 1241 1270 1244
f 1260 1263 1230
f 1230 1262 1240
f 1234 1258 1254
f 1247 1242 1243
f 1247 1265 1261
f 1261 1266 1234
f 1263 1262 1230
f 1265 1266 1261
f 1266 1258 1234
f 1257 1263 1260
f 1270 1233 1197
f 1267 1262 1263
f 1265 1268 1266
f 1257 1267 1263
f 1268 1258 1266
f 1269 1267 1257
f 1256 1269 1257
f 1268 1256 1258
f 1264 1245 1204
f 1245 1265 1247
f 1262 1269 1270
f 1267 1269 1262
f 1245 1264 1233
f 1256 1245 1233
f 1270 1256 1233
f 1269 1256 1270
f 1268 1265 1245
f 1256 1268 1245
