v 0.047725 -0.044243 -0.317962
v 0.047627 -0.043739 -0.325376
v 0.047987 -0.044039 -0.320517
v 0.045676 -0.043171 -0.30936
v 0.046648 -0.043542 -0.311538
v 0.047155 -0.04305 -0.31316
v -0.01006 -0.020213 -0.272673
v -0.013997 -0.017382 -0.273901
v -0.010099 -0.020029 -0.2767
v -0.012467 -0.019486 -0.284645
v -0.012368 -0.019877 -0.273392
v -0.026511 -0.026853 -0.272639
v -0.025639 -0.027663 -0.274091
v -0.024875 -0.028408 -0.275723
v -0.029728 -0.024408 -0.268757
v -0.030301 -0.023067 -0.267359
v -0.029022 -0.025583 -0.270241
v -0.02963 -0.024362 -0.268754
v -0.037014 0.009784 -0.238852
v -0.037098 0.009822 -0.236752
v -0.03677 0.009572 -0.240742
v -0.039536 -0.035356 -0.086473
v -0.039814 -0.034544 -0.088294
v -0.039392 -0.036086 -0.084605
v -0.039905 -0.033872 -0.089506
v -0.04035 -0.032417 -0.091664
v -0.040555 -0.030774 -0.093523
v -0.040874 -0.029709 -0.094606
v 0.048069 -0.043534 -0.316987
v 0.048291 -0.043198 -0.319138
v 0.048206 -0.043476 -0.322385
v 0.047884 -0.042511 -0.324641
v 0.047879 -0.043499 -0.315496
v 0.047505 -0.04192 -0.322911
v 0.047282 -0.042023 -0.31586
v 0.047777 -0.043138 -0.325799
v 0.04663 -0.044173 -0.312763
v 0.047296 -0.0414 -0.327942
v 0.047295 -0.043587 -0.313528
v 0.047427 -0.04228 -0.327886
v 0.046618 -0.044706 -0.314734
v 0.047059 -0.044823 -0.321717
v 0.046238 -0.042937 -0.330456
v 0.045845 -0.044636 -0.328299
v 0.045636 -0.038246 -0.33109
v 0.045858 -0.043554 -0.309847
v 0.045164 -0.04432 -0.309705
v 0.045568 -0.038512 -0.32958
v 0.045305 -0.042013 -0.310072
v 0.042597 -0.046775 -0.314598
v 0.04296 -0.04675 -0.323687
v 0.045621 -0.038941 -0.332058
v 0.044513 -0.042998 -0.333372
v 0.043828 -0.035875 -0.333883
v 0.043913 -0.036669 -0.334749
v 0.042317 -0.044676 -0.3342
v 0.039325 -0.046922 -0.33104
v 0.042097 -0.042997 -0.336346
v 0.042661 -0.035011 -0.334162
v 0.042014 -0.034551 -0.336997
v 0.030845 -0.042813 -0.283605
v 0.031882 -0.043335 -0.285407
v 0.031928 -0.044035 -0.286421
v 0.040876 -0.033015 -0.337243
v 0.038864 -0.048468 -0.319904
v 0.038451 -0.048369 -0.316184
v 0.039062 -0.032642 -0.339631
v 0.038276 -0.048058 -0.327076
v 0.039621 -0.042588 -0.338708
v 0.038773 -0.044514 -0.337901
v 0.039318 -0.03201 -0.339235
v 0.021428 -0.048261 -0.285601
v 0.03025 -0.041613 -0.284058
v 0.038375 -0.031413 -0.339125
v 0.039167 -0.000807 0.063256
v 0.039456 -0.010435 0.061345
v 0.039329 -0.001329 0.062298
v 0.039341 -0.019452 0.058998
v 0.039287 -0.018442 0.058644
v 0.03934 -0.026593 0.054763
v 0.039198 -0.025116 0.05485
v 0.039381 -0.030646 0.050379
v 0.039182 -0.040783 0.027791
v 0.039401 -0.043 -0.012225
v 0.039355 -0.039607 0.033786
v 0.039326 -0.044654 -0.050079
v 0.039244 -0.043948 -0.049096
v 0.039334 -0.036888 0.042118
v 0.039216 -0.03301 0.047057
v 0.039213 -0.038291 0.03606
v 0.039191 -0.036419 0.041135
v 0.039125 -0.043293 -0.003711
v 0.039134 -0.044515 -0.030104
v 0.039098 -0.039543 0.035738
v 0.039187 -0.039742 0.027658
v 0.03909 -0.005736 0.062806
v 0.039001 -0.034025 0.047616
v 0.038962 -0.030271 0.052041
v 0.039198 -0.042114 -0.003218
v 0.038914 -0.022642 0.057935
v 0.038958 -0.010943 0.06206
v 0.038875 -0.016121 0.060767
v 0.038492 -0.011763 0.059351
v 0.038476 -0.000741 0.060904
v 0.038494 -0.018973 0.057116
v 0.038407 0.003127 0.063298
v 0.038347 -0.024548 0.05387
v 0.03626 -0.043519 -0.340469
v 0.036295 -0.041958 -0.340932
v 0.038427 -0.02911 0.050148
v 0.03807 -0.031377 0.047066
v 0.037992 -0.034879 0.04143
v 0.037938 -0.036544 0.037152
v 0.038117 -0.037874 0.032525
v 0.037909 -0.038759 0.024386
v 0.038045 -0.04197 -0.024155
v 0.03819 -0.042773 -0.048362
v 0.038111 -0.04059 0.002941
v 0.035165 -0.048372 -0.0489
v 0.034512 -0.042269 0.040378
v 0.035795 -0.039169 0.044555
v 0.033084 -0.031131 0.057288
v 0.035313 -0.026678 0.058451
v 0.032982 -0.005162 0.065969
v 0.037822 0.002706 0.061745
v 0.037675 0.004626 0.064371
v 0.036922 -0.044567 -0.091782
v 0.037921 -0.045287 -0.073643
v 0.033765 -0.044557 -0.340789
v 0.03784 -0.009114 0.059593
v 0.037775 -0.027942 0.050592
v 0.03691 -0.031619 -0.340786
v 0.037835 -0.015819 0.057936
v 0.037478 0.001362 0.061026
v 0.037662 -0.021881 0.055271
v 0.036025 -0.043366 -0.091245
v 0.037144 -0.042715 -0.054266
v 0.037345 -0.041939 -0.024817
v 0.037358 -0.033114 0.044485
v 0.037222 -0.025057 0.05334
v 0.036558 0.005549 0.062406
v 0.032805 -0.047833 -0.333838
v 0.037113 -0.029167 0.049814
v 0.036323 0.007187 0.064618
v 0.037344 -0.040482 0.002404
v 0.037235 -0.036162 0.038655
v 0.03564 0.00588 0.062305
v 0.037148 -0.02164 0.055673
v 0.032673 -0.048481 -0.330886
v 0.033102 -0.04881 -0.076853
v 0.03537 0.007886 0.065854
v 0.030306 -0.04912 -0.107878
v 0.035488 -0.045346 -0.118562
v 0.03333 -0.045113 0.032557
v 0.034592 -0.032162 -0.342096
v 0.033163 -0.048195 -0.004074
v 0.034132 -0.043066 -0.115138
v 0.032213 -0.037787 0.05147
v 0.033168 -0.049686 -0.039118
v 0.035019 0.008041 0.063325
v 0.031837 -0.034075 0.055709
v 0.032506 -0.022249 0.062576
v 0.033097 -0.042734 -0.342256
v 0.032097 -0.015274 0.064852
v 0.032141 -0.04348 -0.169847
v 0.034606 -0.043368 -0.093929
v 0.026499 -0.04651 -0.285761
v 0.03437 0.009521 0.065787
v 0.033339 0.010016 0.064464
v 0.032869 -0.045574 -0.15724
v 0.01876 -0.048498 -0.286187
v 0.03069 -0.032152 -0.343413
v 0.030718 -0.031364 -0.342795
v 0.028965 -0.000977 0.067964
v 0.032364 0.010785 0.067372
v 0.03122 -0.042606 0.045191
v 0.032063 0.011414 0.066707
v 0.028922 -0.030327 0.060593
v 0.030251 -0.051458 -0.05421
v 0.030657 0.011395 0.06498
v 0.026161 -0.049121 -0.155492
v 0.030596 0.012069 0.065756
v 0.029384 -0.043139 -0.343183
v 0.031356 -0.042768 -0.163722
v 0.027691 -0.044701 -0.342173
v 0.027591 -0.052774 -0.057425
v 0.028571 -0.046688 0.038885
v 0.028619 -0.047955 0.0316
v 0.028236 -0.050903 -0.001955
v 0.02727 -0.043529 -0.265238
v 0.029168 -0.051985 -0.037759
v 0.026709 -0.044288 -0.2674
v 0.028147 -0.025353 0.063539
v 0.028384 -0.01773 0.065971
v 0.029767 -0.043951 -0.281512
v 0.027453 -0.048035 -0.334799
v 0.029537 0.012772 0.068094
v 0.027785 0.012764 0.069332
v 0.026356 -0.041817 -0.265478
v 0.024804 -0.010459 0.068549
v 0.02709 -0.031839 -0.343944
v 0.025621 -0.041524 -0.266727
v 0.02498 -0.046905 -0.338032
v 0.026425 -0.04599 0.044297
v 0.027145 -0.040798 0.052198
v 0.024312 -0.036241 0.058881
v 0.027633 0.013201 0.066516
v 0.026768 0.013684 0.067426
v 0.028945 -0.043261 -0.277869
v 0.02199 -0.046697 -0.267116
v 0.027842 -0.04412 -0.275771
v 0.024315 0.003916 0.06992
v 0.027321 0.013499 0.06908
v 0.023826 0.013142 0.067508
v 0.020416 -0.047802 -0.275767
v 0.025989 -0.043735 -0.343208
v 0.026117 -0.042206 -0.343683
v 0.034235 0.006429 0.063059
v 0.027807 -0.041589 -0.27741
v 0.027972 -0.043292 -0.273845
v 0.023877 -0.051219 -0.126437
v 0.021312 -0.048284 -0.333556
v 0.027412 -0.043303 -0.269613
v 0.025729 0.013858 0.069337
v 0.026575 -0.041672 -0.270925
v 0.01666 -0.048397 -0.330104
v 0.019417 -0.050745 0.037485
v 0.022073 -0.045377 0.049342
v 0.021494 -0.048231 0.044045
v 0.01969 -0.043739 0.053393
v 0.022223 -0.027604 0.065162
v 0.019517 -0.018315 0.068842
v 0.022072 -0.053319 -0.001917
v 0.023833 -0.032131 -0.344034
v 0.023028 -0.031399 -0.343484
v 0.019926 -0.055589 -0.038156
v 0.020344 -0.055479 -0.056384
v 0.02012 0.014046 0.071755
v 0.017366 0.014991 0.071935
v 0.022289 -0.042285 -0.343576
v 0.022427 -0.044456 -0.342468
v 0.020213 -0.049555 -0.198536
v 0.024941 -0.031367 -0.342572
v 0.01845 -0.048207 -0.264658
v 0.018246 0.014447 0.069197
v 0.015409 -0.050593 -0.192636
v 0.01917 -0.031329 -0.341871
v 0.014956 0.007145 0.072427
v 0.014344 0.015393 0.070688
v 0.019721 -0.03211 -0.343444
v 0.017067 -0.031412 -0.342277
v 0.016887 -0.044679 -0.340797
v 0.018923 -0.043738 -0.342384
v 0.014177 -0.049506 0.046683
v 0.016989 -0.041285 0.057359
v 0.014558 -0.037159 0.061938
v 0.014542 -0.031907 0.065309
v 0.014525 -0.025942 0.067918
v 0.014262 -0.015368 0.070659
v 0.015422 -0.05526 -0.004929
v 0.018511 -0.042151 -0.342777
v 0.015445 -0.056667 -0.056956
v 0.015349 -0.046814 -0.335272
v 0.003247 -0.048549 -0.2768
v 0.01583 -0.032122 -0.342199
v 0.016259 -0.048616 -0.263698
v 0.015382 -0.042951 -0.341509
v 0.012909 -0.047699 -0.330218
v 0.012176 0.014898 0.07335
v 0.012924 0.013653 0.070133
v 0.013061 -0.031288 -0.339151
v 0.011382 -0.052333 0.03824
v 0.009376 -0.046625 0.053422
v 0.009395 -0.042622 0.058277
v 0.009707 -0.055197 0.007993
v 0.009616 -0.057589 -0.038093
v 0.010524 0.015164 0.070643
v 0.011283 -0.044827 -0.337217
v 0.008571 -0.05781 -0.054042
v 0.008052 -0.055662 -0.10495
v 0.008644 0.005777 0.073223
v 0.012506 -0.043926 -0.339322
v 0.012164 -0.042361 -0.339848
v 0.012126 -0.032069 -0.340241
v 0.010049 -0.031398 -0.338252
v 0.004155 -0.050157 -0.2271
v 0.007509 0.015736 0.073442
v 0.000348 0.016095 0.072068
v 0.007197 0.014993 0.073961
v 0.009611 -0.043744 -0.337282
v 0.000163 -0.048321 -0.299177
v 0.00905 -0.041996 -0.337474
v 0.006624 -0.050617 0.047036
v 0.004909 -0.052927 0.039242
v 0.004267 -0.038299 0.062854
v 0.00427 -0.032956 0.066288
v 0.004276 -0.026901 0.068945
v 0.004288 -0.019968 0.070889
v 0.004686 -0.011516 0.072186
v 0.000908 -0.056695 -0.004229
v 0.007456 -0.031277 -0.334169
v 0.008432 -0.032172 -0.337372
v 0.007204 -0.044556 -0.333684
v -0.000805 0.014446 0.071315
v 0.006815 -0.042703 -0.334969
v 0.000908 0.007535 0.073754
v 0.005412 -0.031438 -0.333214
v -0.004949 -0.047907 -0.296522
v 0.005226 -0.032206 -0.333538
v 0.005162 -0.043904 -0.331599
v -0.000835 -0.050942 0.047219
v -0.000793 -0.047199 0.053757
v -0.00078 -0.043166 0.058655
v -0.001032 -0.053486 0.03557
v -0.000678 -0.058385 -0.048986
v 0.004655 -0.042482 -0.331896
v -0.008848 -0.046231 -0.298445
v -0.000692 -0.056221 -0.101784
v -0.000102 0.015902 0.07389
v -0.000718 0.015249 0.074268
v -0.018815 -0.031262 -0.289143
v -0.003552 0.015529 0.071279
v -0.008781 -0.044636 -0.305635
v -0.005742 -0.047971 -0.290236
v -0.010125 -0.043482 -0.305452
v -0.014554 -0.042016 -0.298459
v -0.006708 -0.048287 -0.268607
v -0.008644 -0.052694 0.038699
v -0.005647 -0.038207 0.06281
v -0.005644 -0.03287 0.066237
v -0.005637 -0.026822 0.068889
v -0.005623 -0.019902 0.070831
v -0.005331 -0.011502 0.072162
v -0.008791 -0.056169 -0.003919
v -0.006436 0.006873 0.073502
v -0.007934 -0.049816 -0.223724
v -0.019856 -0.031429 -0.28907
v -0.019714 -0.032187 -0.290027
v -0.008032 0.015758 0.073407
v -0.008628 0.015216 0.073833
v -0.010771 -0.055055 -0.110006
v -0.009725 -0.057741 -0.048988
v -0.010252 -0.050205 0.046922
v -0.010233 -0.04648 0.053407
v -0.010227 -0.042482 0.058253
v -0.0093 -0.047401 -0.288164
v -0.011555 0.015663 0.071199
v -0.012716 0.014603 0.073338
v -0.011644 -0.046872 -0.282449
v -0.017037 -0.054657 -0.003006
v -0.016873 -0.051262 0.037809
v -0.014396 -0.037092 0.062015
v -0.014389 -0.030488 0.06611
v -0.01567 -0.022938 0.068673
v -0.014396 -0.017405 0.070224
v -0.014711 -0.009926 0.071191
v -0.014212 -0.043606 -0.296694
v -0.012844 -0.046227 -0.286672
v -0.01446 -0.048274 -0.227071
v -0.016135 0.015149 0.072269
v -0.014981 -0.045677 -0.279441
v -0.020017 -0.055447 -0.053965
v -0.020099 -0.055361 -0.03772
v -0.018342 -0.048447 0.046226
v -0.018342 -0.044756 0.052572
v -0.018341 -0.040846 0.057285
v -0.0198 -0.053168 -0.104275
v -0.016322 -0.044708 -0.281872
v -0.01626 -0.042671 -0.293389
v -0.016734 -0.04472 -0.275804
v -0.020459 0.014145 0.071648
v -0.020278 0.005205 0.071149
v -0.019306 -0.043101 -0.273955
v -0.018569 -0.0412 -0.289929
v -0.019483 -0.039244 -0.289854
v -0.023214 -0.052805 -0.002564
v -0.022989 -0.049366 0.037371
v -0.022851 -0.035819 0.059866
v -0.022375 -0.030018 0.063811
v -0.022633 -0.024336 0.066179
v -0.022562 -0.017623 0.068094
v -0.022581 -0.009526 0.069351
v -0.019734 0.014824 0.069398
v -0.020127 -0.041788 -0.278565
v -0.025768 0.013969 0.069504
v -0.02801 -0.052124 -0.061369
v -0.020969 -0.039353 -0.285528
v -0.022246 -0.04183 -0.256992
v -0.023737 -0.038853 -0.267404
v -0.024625 -0.046861 0.043852
v -0.027464 -0.043451 0.048019
v -0.027548 -0.039829 0.053121
v -0.023685 -0.030397 -0.28146
v -0.021979 -0.03067 -0.283587
v -0.026362 0.00232 0.06914
v -0.023052 -0.029517 -0.278896
v -0.022439 -0.030006 -0.278576
v -0.020362 -0.030884 -0.28265
v -0.023832 -0.03494 -0.281929
v -0.024002 -0.036218 -0.280099
v -0.029636 -0.047423 -0.122249
v -0.021062 -0.030527 -0.283052
v -0.027947 0.012903 0.069262
v -0.027089 0.013659 0.067012
v -0.031105 -0.043241 -0.151862
v -0.030545 -0.051079 -0.041172
v -0.024554 -0.028297 -0.275006
v -0.026586 -0.029609 -0.276746
v -0.026452 -0.034191 -0.269416
v -0.029958 -0.050056 -0.004557
v -0.030365 -0.047403 0.027914
v -0.030021 -0.046393 0.036317
v -0.029909 -0.034346 0.056921
v -0.030008 -0.028713 0.060916
v -0.031029 -0.020949 0.063824
v -0.030795 -0.013202 0.065881
v -0.032045 -0.004973 0.066429
v -0.025866 -0.029034 -0.276864
v -0.026498 -0.032493 -0.276009
v -0.02693 -0.034784 -0.260449
v -0.027384 -0.025756 -0.270753
v -0.026011 -0.027422 -0.273641
v -0.026291 -0.02645 -0.27165
v -0.029211 0.013084 0.068281
v -0.032141 -0.049805 -0.058028
v -0.02811 -0.027162 -0.272592
v -0.029182 -0.027803 -0.270293
v -0.029131 -0.026856 -0.2712
v -0.027709 -0.024254 -0.268773
v -0.02704 -0.025199 -0.268938
v -0.029386 -0.030113 -0.257922
v -0.031221 -0.043748 0.042882
v -0.039162 -0.034804 -0.106505
v -0.028807 0.012627 0.065802
v -0.030415 0.012417 0.065898
v -0.028664 -0.021717 -0.265673
v -0.028938 -0.025508 -0.270196
v -0.029234 -0.022491 -0.267095
v -0.037756 -0.039027 -0.101684
v -0.035739 -0.043184 -0.097655
v -0.030162 -0.018931 -0.264053
v -0.033414 -0.048807 -0.018099
v -0.032385 -0.020533 -0.263671
v -0.033588 -0.047475 -0.078088
v -0.035014 -0.045643 -0.083076
v -0.033398 0.010484 0.066866
v -0.031921 0.011734 0.067089
v -0.034377 -0.025442 0.060027
v -0.030653 -0.016321 -0.26175
v -0.030748 -0.022498 -0.266769
v -0.033907 -0.030396 0.057321
v -0.031481 -0.01979 -0.264534
v -0.033577 -0.036384 0.051989
v -0.031445 -0.01646 -0.262348
v -0.035066 -0.038808 0.047151
v -0.033711 -0.044733 0.034093
v -0.033948 -0.046168 0.019661
v -0.03541 -0.041976 0.040235
v -0.032426 -0.022686 -0.254278
v -0.032722 0.010552 0.064338
v -0.033667 0.010074 0.064558
v -0.032074 -0.011637 -0.258799
v -0.034612 -0.048449 -0.04478
v -0.032798 -0.011987 -0.259431
v -0.03425 0.00992 0.065649
v -0.033877 -0.014225 -0.260513
v -0.034748 -0.047936 -0.05629
v -0.041761 -0.028724 -0.09681
v -0.036702 0.006681 0.065161
v -0.034981 -0.015186 -0.248773
v -0.033458 -0.005606 -0.255721
v -0.034192 -0.005575 -0.256189
v -0.036667 -0.046212 -0.016716
v -0.035482 -0.010379 -0.257338
v -0.039558 -0.009987 0.061986
v -0.035615 -0.004792 -0.255827
v -0.03608 0.005836 0.062131
v -0.035772 0.007466 0.063061
v -0.039643 -0.015877 0.060377
v -0.039372 -0.021251 0.058472
v -0.035901 0.00807 0.064748
v -0.039339 -0.030083 0.052195
v -0.035403 -0.008766 -0.257447
v -0.034458 0.000633 -0.252995
v -0.037277 -0.042432 0.031595
v -0.035282 0.000334 -0.253632
v -0.043195 -0.021964 -0.101426
v -0.037257 -0.045487 -0.052778
v -0.035184 0.002804 -0.252027
v -0.035436 0.006509 -0.247525
v -0.036798 0.001457 -0.253024
v -0.035922 0.006127 -0.248774
v -0.037279 -0.042233 -0.08522
v -0.039377 -0.001019 0.063218
v -0.035971 0.004608 -0.250526
v -0.037197 0.000745 -0.253243
v -0.037245 -0.005053 -0.2449
v -0.037651 0.005437 0.063885
v -0.036463 0.008196 -0.2454
v -0.035917 0.008732 -0.242608
v -0.037703 0.004026 0.062089
v -0.037178 0.00487 -0.250216
v -0.036425 0.009333 -0.242011
v -0.037596 0.001418 -0.252356
v -0.042424 -0.012435 -0.144769
v -0.037572 0.007251 -0.247128
v -0.036592 0.009663 -0.236038
v -0.039639 -0.02605 0.055143
v -0.03944 -0.032723 0.049073
v -0.03959 -0.036356 0.043428
v -0.0369 0.009639 -0.240415
v -0.039507 -0.03884 0.037831
v -0.039677 -0.040261 0.029227
v -0.039502 -0.042153 0.006707
v -0.038121 0.000629 0.0608
v -0.038322 0.008862 -0.243351
v -0.037726 0.004445 -0.2504
v -0.037608 -0.036565 -0.080278
v -0.036982 -0.039474 -0.062799
v -0.037006 -0.036439 -0.082636
v -0.039665 -0.042663 -0.017307
v -0.037687 -0.037853 -0.072091
v -0.037596 -0.039516 -0.059267
v -0.038411 0.009691 -0.239544
v -0.037749 -0.040634 -0.045431
v -0.037892 -0.035648 -0.083971
v -0.039679 -0.042467 -0.041858
v -0.037234 0.009825 -0.236552
v -0.037633 -0.033757 -0.088876
v -0.039647 -0.037806 -0.0827
v -0.038048 -0.038488 0.026663
v -0.037597 -0.037657 0.033078
v -0.037539 -0.03874 0.024695
v -0.039635 -0.041708 -0.054988
v -0.039093 0.001886 0.063137
v -0.038523 0.00145 0.061546
v -0.038333 -0.040813 -0.008799
v -0.037223 -0.040234 0.004258
v -0.037279 -0.040901 -0.015303
v -0.038066 -0.040993 -0.032301
v -0.038458 -0.034133 -0.08799
v -0.038509 -0.038748 0.027404
v -0.03822 -0.040353 -0.052749
v -0.038546 -0.037085 0.036805
v -0.037749 -0.036249 0.037984
v -0.038441 0.00671 -0.246886
v -0.038623 -0.020105 0.056403
v -0.037629 -0.017997 0.057181
v -0.03809 -0.021454 0.055394
v -0.03837 -0.032518 -0.090569
v -0.039473 -0.037555 -0.079839
v -0.038701 -0.025073 0.053517
v -0.037761 -0.024802 0.053327
v -0.038264 -0.027688 0.050926
v -0.039312 -0.035892 -0.085086
v -0.039441 -0.040631 -0.057579
v -0.038602 -0.034283 0.043321
v -0.037653 -0.034757 0.041663
v -0.038049 -0.032858 0.044838
v -0.038668 -0.009296 0.05964
v -0.038028 -0.00588 0.060047
v -0.037775 -0.012997 0.05884
v -0.039395 -0.041767 -0.041295
v -0.039366 -0.041855 -0.018423
v -0.038837 -0.00129 0.060855
v -0.039364 -0.041276 0.00015
v -0.038322 -0.030498 0.048103
v -0.039535 -0.039503 0.029884
v -0.039661 -0.037179 0.039909
v -0.039523 -0.033277 0.046611
v -0.043866 0.00968 -0.126634
v -0.040604 0.009364 -0.169473
v -0.039584 -0.000936 0.062369
v -0.03964 -0.029241 0.051502
v -0.039049 0.009125 -0.240366
v -0.042263 -0.001181 -0.174811
v -0.039532 -0.024665 0.055159
v -0.038982 -0.012343 0.059456
v -0.038523 -0.014317 0.058383
v -0.04026 -0.032364 -0.091652
v -0.040372 -0.034552 -0.090023
v -0.039597 -0.0177 0.058902
v -0.039629 -0.010063 0.061069
v -0.039112 -0.030195 -0.093506
v -0.042284 0.008899 -0.189446
v -0.039523 -0.036258 -0.084133
v -0.04134 -0.026619 -0.097183
v -0.040099 -0.026436 -0.096983
v -0.04031 -0.03379 -0.090206
v -0.045747 0.009499 -0.125294
v -0.04144 -0.029086 -0.095623
v -0.041156 -0.018985 -0.101799
v -0.041804 -0.018968 -0.101786
v -0.042848 -0.021631 -0.100682
v -0.042639 -0.011063 -0.10545
v -0.041619 -0.013704 -0.105074
v -0.044716 -0.01298 -0.105483
v -0.044017 -0.012616 -0.104995
v -0.04591 -0.003325 -0.109599
v -0.043228 0.009283 -0.124867
v -0.043342 0.002531 -0.112098
v -0.043557 0.000266 -0.110155
v -0.046286 0.008481 -0.1215
v -0.044032 -0.001304 -0.109287
v -0.045267 -0.000827 -0.109606
v -0.044014 0.003429 -0.112193
v -0.043929 0.009438 -0.12294
v -0.043432 0.008361 -0.119949
v -0.043716 0.006049 -0.115228
v -0.044098 0.007432 -0.117169
v -0.044191 0.001253 -0.110615
v -0.044389 0.005714 -0.114573
v -0.044322 0.008728 -0.120078
v -0.046073 -0.001025 -0.110096
v -0.045685 0.003023 -0.112082
v -0.045423 0.009328 -0.122827
v -0.045494 0.008601 -0.120075
v -0.045886 0.00724 -0.117188
v -0.045564 0.005905 -0.115047
v -0.045945 0.00074 -0.110695
v -0.046395 0.006215 -0.116601
v -0.04622 0.004314 -0.113727
f 1 2 3
f 4 5 6
f 7 8 9
f 10 7 9
f 10 11 7
f 12 13 14
f 15 16 17
f 16 18 17
f 19 20 21
f 22 23 24
f 25 26 23
f 27 28 26
f 29 3 30
f 3 31 30
f 31 32 30
f 30 33 29
f 34 35 30
f 29 1 3
f 32 34 30
f 36 32 31
f 35 33 30
f 37 1 29
f 3 2 31
f 38 32 36
f 2 36 31
f 6 39 33
f 35 6 33
f 39 37 29
f 40 38 36
f 41 42 1
f 42 2 1
f 2 40 36
f 2 43 40
f 42 44 2
f 37 41 1
f 38 45 32
f 6 5 39
f 46 37 39
f 46 47 37
f 48 34 32
f 35 49 6
f 45 48 32
f 44 43 2
f 50 51 42
f 52 38 40
f 52 45 38
f 41 50 42
f 43 52 40
f 4 46 5
f 49 4 6
f 47 41 37
f 51 44 42
f 53 52 43
f 54 48 45
f 44 53 43
f 55 45 52
f 55 54 45
f 53 55 52
f 47 50 41
f 56 53 44
f 51 57 44
f 57 56 44
f 58 55 53
f 59 48 54
f 58 60 55
f 56 58 53
f 61 62 4
f 62 46 4
f 46 63 47
f 60 54 55
f 60 64 54
f 65 51 50
f 63 50 47
f 66 65 50
f 58 67 60
f 65 68 51
f 68 57 51
f 64 59 54
f 69 67 58
f 70 69 58
f 56 70 58
f 67 71 60
f 71 64 60
f 72 66 50
f 73 4 49
f 57 70 56
f 71 74 64
f 62 63 46
f 75 76 77
f 78 79 76
f 78 80 79
f 80 81 79
f 82 81 80
f 83 84 85
f 86 87 84
f 88 89 82
f 90 88 85
f 91 89 88
f 90 91 88
f 83 92 84
f 92 93 84
f 93 86 84
f 88 94 85
f 85 95 90
f 96 76 75
f 82 97 88
f 98 97 82
f 80 98 82
f 99 95 85
f 84 99 85
f 78 100 80
f 76 101 78
f 101 102 78
f 96 101 76
f 103 104 77
f 76 103 77
f 79 103 76
f 105 103 79
f 77 106 75
f 107 105 79
f 81 107 79
f 108 109 69
f 110 107 81
f 82 110 81
f 89 110 82
f 102 100 78
f 111 110 89
f 112 111 89
f 91 112 89
f 113 112 91
f 90 113 91
f 114 113 90
f 95 114 90
f 115 114 95
f 116 84 87
f 117 116 87
f 116 99 84
f 116 118 99
f 118 95 99
f 118 115 95
f 119 86 93
f 94 83 85
f 88 120 94
f 121 120 88
f 97 121 88
f 104 106 77
f 80 122 98
f 100 123 80
f 123 122 80
f 70 108 69
f 75 124 96
f 104 125 106
f 126 75 106
f 86 127 87
f 119 128 86
f 69 109 67
f 129 108 70
f 103 130 104
f 111 131 110
f 127 117 87
f 67 132 71
f 131 107 110
f 73 61 4
f 105 133 103
f 132 74 71
f 134 125 104
f 107 135 105
f 135 133 105
f 133 130 103
f 136 117 127
f 130 134 104
f 117 137 116
f 138 118 116
f 112 139 111
f 136 137 117
f 107 140 135
f 131 140 107
f 128 127 86
f 141 125 134
f 68 142 57
f 143 131 111
f 139 143 111
f 144 126 106
f 138 145 118
f 57 142 70
f 113 146 112
f 147 141 134
f 135 148 133
f 137 138 116
f 141 144 106
f 125 141 106
f 146 139 112
f 65 149 68
f 119 150 128
f 140 148 135
f 151 124 75
f 143 140 131
f 150 152 128
f 152 153 128
f 144 151 126
f 94 154 83
f 120 154 94
f 154 92 83
f 155 132 67
f 109 155 67
f 149 142 68
f 154 156 92
f 156 93 92
f 157 137 136
f 97 158 121
f 156 159 93
f 159 119 93
f 142 129 70
f 160 144 141
f 98 161 97
f 161 158 97
f 122 161 98
f 100 162 123
f 102 162 100
f 147 160 141
f 108 163 109
f 164 162 102
f 101 164 102
f 128 153 127
f 153 165 127
f 96 124 101
f 124 164 101
f 157 166 137
f 129 163 108
f 167 50 63
f 165 136 127
f 168 151 144
f 160 169 144
f 169 168 144
f 152 170 153
f 171 149 65
f 172 132 155
f 172 173 132
f 173 74 132
f 174 124 151
f 175 174 151
f 121 176 120
f 177 175 168
f 158 176 121
f 175 151 168
f 163 155 109
f 165 157 136
f 123 178 122
f 159 179 119
f 180 169 160
f 169 177 168
f 162 178 123
f 147 180 160
f 152 181 170
f 179 150 119
f 180 182 169
f 163 172 155
f 169 182 177
f 167 72 50
f 129 183 163
f 165 184 157
f 185 183 129
f 179 186 150
f 186 152 150
f 120 187 154
f 176 187 120
f 187 188 154
f 188 189 154
f 189 156 154
f 190 165 153
f 189 159 156
f 189 191 159
f 170 192 153
f 192 190 153
f 191 179 159
f 142 185 129
f 72 171 66
f 171 65 66
f 162 193 178
f 183 172 163
f 194 193 162
f 61 195 62
f 195 63 62
f 164 194 162
f 149 196 142
f 197 175 177
f 197 198 175
f 199 184 165
f 124 200 164
f 200 194 164
f 182 197 177
f 174 200 124
f 201 173 172
f 198 174 175
f 199 202 184
f 203 185 142
f 196 203 142
f 195 167 63
f 204 187 176
f 205 204 176
f 158 205 176
f 161 206 158
f 206 205 158
f 191 186 179
f 207 208 182
f 178 206 161
f 122 178 161
f 209 195 61
f 210 192 170
f 181 210 170
f 180 207 182
f 209 211 195
f 198 212 174
f 190 199 165
f 73 209 61
f 213 198 197
f 208 213 197
f 182 208 197
f 214 207 180
f 211 215 195
f 215 167 195
f 216 217 183
f 218 214 180
f 185 216 183
f 219 209 73
f 183 201 172
f 217 201 183
f 220 211 209
f 219 220 209
f 221 181 152
f 186 221 152
f 149 222 196
f 223 211 220
f 208 224 213
f 219 225 220
f 223 192 211
f 225 223 220
f 226 222 149
f 192 215 211
f 200 174 212
f 187 227 188
f 228 229 204
f 205 228 204
f 230 228 205
f 206 230 205
f 231 206 178
f 193 231 178
f 194 231 193
f 232 231 194
f 200 232 194
f 227 233 188
f 233 189 188
f 190 192 223
f 225 190 223
f 234 235 201
f 236 191 189
f 233 236 189
f 235 173 201
f 225 199 190
f 210 215 192
f 236 186 191
f 236 237 186
f 202 199 225
f 198 238 212
f 238 198 213
f 239 238 213
f 224 239 213
f 217 234 201
f 240 234 217
f 216 240 217
f 241 240 216
f 221 242 181
f 237 221 186
f 185 241 216
f 235 243 173
f 244 210 181
f 215 72 167
f 241 185 203
f 222 203 196
f 204 227 187
f 229 227 204
f 245 208 207
f 237 246 221
f 235 247 243
f 214 245 207
f 242 244 181
f 248 212 238
f 208 239 224
f 249 239 208
f 250 251 235
f 234 250 235
f 250 234 240
f 246 242 221
f 244 215 210
f 252 253 241
f 228 254 229
f 230 254 228
f 206 255 230
f 256 255 206
f 231 257 206
f 257 256 206
f 258 257 231
f 232 258 231
f 200 259 232
f 212 259 200
f 260 233 227
f 253 240 241
f 253 261 240
f 260 236 233
f 203 252 241
f 236 262 237
f 263 203 222
f 245 249 208
f 248 259 212
f 263 252 203
f 261 250 240
f 264 149 171
f 262 246 237
f 254 227 229
f 251 247 235
f 250 265 251
f 266 171 72
f 252 267 253
f 266 244 242
f 261 265 250
f 266 72 215
f 267 261 253
f 268 222 226
f 246 266 242
f 239 269 238
f 268 263 222
f 244 266 215
f 270 245 214
f 251 271 247
f 267 265 261
f 254 272 227
f 230 273 254
f 255 274 230
f 274 273 230
f 256 274 255
f 232 259 258
f 272 275 227
f 275 260 227
f 276 236 260
f 269 248 238
f 277 249 245
f 278 252 263
f 276 262 236
f 276 279 262
f 279 280 262
f 281 259 248
f 264 226 149
f 278 282 252
f 282 267 252
f 266 264 171
f 282 283 267
f 284 285 251
f 265 284 251
f 246 286 266
f 283 284 267
f 284 265 267
f 285 271 251
f 286 264 266
f 270 277 245
f 287 269 239
f 249 287 239
f 286 246 262
f 280 286 262
f 277 288 249
f 289 248 269
f 289 281 248
f 290 282 278
f 264 291 226
f 290 283 282
f 290 292 283
f 254 293 272
f 293 294 272
f 273 293 254
f 256 295 274
f 257 296 256
f 296 295 256
f 258 297 257
f 297 296 257
f 259 298 258
f 298 297 258
f 299 298 259
f 281 299 259
f 294 275 272
f 292 284 283
f 275 300 260
f 300 276 260
f 301 271 285
f 268 278 263
f 284 302 285
f 292 302 284
f 303 278 268
f 287 289 269
f 303 290 278
f 304 277 270
f 303 305 290
f 288 287 249
f 305 292 290
f 306 281 289
f 302 307 285
f 291 308 226
f 308 268 226
f 309 307 302
f 307 301 285
f 305 302 292
f 310 305 303
f 293 311 294
f 312 311 293
f 273 312 293
f 313 312 273
f 274 313 273
f 295 313 274
f 314 300 294
f 300 275 294
f 305 309 302
f 315 276 300
f 310 316 305
f 315 279 276
f 308 317 268
f 316 309 305
f 315 318 279
f 318 280 279
f 319 320 289
f 287 319 289
f 306 299 281
f 307 321 301
f 319 287 288
f 322 288 277
f 318 286 280
f 320 306 289
f 268 323 303
f 317 323 268
f 323 310 303
f 324 291 264
f 323 325 310
f 325 316 310
f 325 326 316
f 327 324 264
f 294 328 314
f 311 328 294
f 295 329 313
f 296 330 295
f 330 329 295
f 297 331 296
f 331 330 296
f 298 332 297
f 332 331 297
f 299 333 298
f 333 332 298
f 306 333 299
f 334 315 300
f 320 335 306
f 336 327 264
f 286 336 264
f 318 336 286
f 335 333 306
f 337 321 307
f 338 337 307
f 309 338 307
f 316 338 309
f 288 339 319
f 319 340 320
f 339 340 319
f 341 336 318
f 340 335 320
f 315 341 318
f 342 341 315
f 334 342 315
f 311 343 328
f 344 343 311
f 312 344 311
f 345 344 312
f 313 345 312
f 329 345 313
f 328 334 314
f 334 300 314
f 324 308 291
f 324 346 308
f 326 338 316
f 347 339 288
f 340 348 335
f 327 349 324
f 350 342 334
f 348 333 335
f 343 351 328
f 329 352 345
f 353 352 329
f 330 353 329
f 331 353 330
f 354 353 331
f 332 354 331
f 355 354 332
f 333 355 332
f 356 355 333
f 348 356 333
f 349 346 324
f 357 323 317
f 358 317 308
f 346 358 308
f 359 349 327
f 336 359 327
f 349 358 346
f 357 325 323
f 360 340 339
f 360 348 340
f 358 357 317
f 357 326 325
f 341 359 336
f 361 358 349
f 362 341 342
f 363 362 342
f 350 363 342
f 328 350 334
f 351 350 328
f 343 364 351
f 365 364 343
f 344 365 343
f 366 365 344
f 345 366 344
f 352 366 345
f 360 339 347
f 367 359 341
f 368 357 358
f 369 326 357
f 368 358 361
f 370 361 359
f 361 349 359
f 362 367 341
f 371 372 348
f 360 371 348
f 368 369 357
f 370 373 361
f 373 368 361
f 367 370 359
f 374 326 369
f 368 374 369
f 374 375 326
f 376 363 350
f 372 356 348
f 364 377 351
f 352 378 366
f 353 379 352
f 379 378 352
f 380 379 353
f 354 380 353
f 355 381 354
f 356 382 355
f 382 381 355
f 372 382 356
f 383 360 347
f 375 338 326
f 384 374 368
f 373 384 368
f 385 360 383
f 385 371 360
f 386 370 367
f 387 375 374
f 384 387 374
f 388 389 373
f 351 376 350
f 377 376 351
f 364 390 377
f 391 390 364
f 365 391 364
f 392 391 365
f 366 392 365
f 378 392 366
f 381 380 354
f 393 394 321
f 337 393 321
f 389 384 373
f 362 386 367
f 395 382 372
f 396 397 398
f 338 393 337
f 399 375 387
f 400 399 387
f 399 338 375
f 401 388 373
f 400 387 384
f 402 396 398
f 389 400 384
f 386 373 370
f 371 403 372
f 403 395 372
f 404 385 383
f 393 402 394
f 385 403 371
f 405 389 388
f 393 396 402
f 406 386 362
f 363 406 362
f 396 407 397
f 338 408 393
f 409 400 389
f 376 410 363
f 410 406 363
f 14 407 396
f 386 401 373
f 411 410 376
f 377 411 376
f 412 411 377
f 390 412 377
f 378 413 392
f 414 413 378
f 379 414 378
f 380 415 379
f 415 414 379
f 381 415 380
f 416 415 381
f 382 416 381
f 417 416 382
f 395 417 382
f 408 338 399
f 393 418 396
f 419 399 400
f 419 408 399
f 408 418 393
f 409 419 400
f 405 420 389
f 418 14 396
f 13 407 14
f 420 409 389
f 12 421 14
f 422 12 14
f 418 422 14
f 13 423 407
f 421 423 13
f 424 385 404
f 425 401 386
f 401 405 388
f 426 422 418
f 426 12 422
f 424 403 385
f 408 426 418
f 427 419 409
f 428 426 408
f 429 430 423
f 426 421 12
f 431 409 420
f 419 428 408
f 432 412 390
f 391 432 390
f 427 428 419
f 433 431 420
f 421 429 423
f 434 435 404
f 429 436 430
f 435 424 404
f 426 437 421
f 431 427 409
f 421 438 429
f 438 436 429
f 406 425 386
f 428 17 426
f 17 437 426
f 439 420 405
f 440 439 405
f 437 438 421
f 438 441 436
f 410 442 406
f 18 438 437
f 17 15 437
f 428 15 17
f 443 427 431
f 444 445 401
f 445 405 401
f 446 417 395
f 403 446 395
f 447 424 435
f 415 448 414
f 441 449 436
f 450 16 18
f 16 438 18
f 448 451 414
f 427 443 428
f 452 441 438
f 451 413 414
f 428 450 15
f 447 446 403
f 424 447 403
f 425 444 401
f 453 392 413
f 451 453 413
f 443 450 428
f 454 449 441
f 455 391 392
f 453 455 392
f 412 456 411
f 456 457 411
f 16 452 438
f 455 432 391
f 458 456 412
f 432 458 412
f 457 410 411
f 450 452 16
f 439 433 420
f 459 443 431
f 457 442 410
f 460 435 434
f 445 440 405
f 452 454 441
f 460 461 435
f 454 462 449
f 442 463 406
f 464 462 454
f 433 459 431
f 463 425 406
f 465 446 447
f 450 466 452
f 452 464 454
f 463 467 425
f 443 466 450
f 467 444 425
f 455 458 432
f 465 447 435
f 461 465 435
f 468 459 433
f 452 466 464
f 446 469 417
f 470 443 459
f 464 471 462
f 472 471 464
f 473 463 442
f 474 466 443
f 470 474 443
f 417 475 416
f 466 476 464
f 476 472 464
f 477 478 460
f 475 415 416
f 475 479 415
f 478 461 460
f 479 480 415
f 480 448 415
f 445 444 467
f 481 465 461
f 478 481 461
f 482 453 451
f 474 483 466
f 472 484 471
f 482 455 453
f 483 476 466
f 458 485 456
f 485 457 456
f 486 484 472
f 487 470 459
f 468 487 459
f 465 469 446
f 485 473 457
f 473 442 457
f 481 469 465
f 488 445 467
f 476 486 472
f 486 489 484
f 489 490 484
f 476 491 486
f 492 490 489
f 488 467 463
f 493 439 440
f 491 489 486
f 469 494 417
f 495 492 489
f 496 476 483
f 497 474 470
f 493 445 488
f 478 498 481
f 491 495 489
f 498 469 481
f 494 475 417
f 492 499 490
f 499 500 490
f 501 478 477
f 491 502 495
f 488 463 473
f 502 492 495
f 499 503 500
f 474 496 483
f 504 496 474
f 505 497 470
f 493 440 445
f 502 506 492
f 496 491 476
f 480 451 448
f 503 507 500
f 508 482 451
f 480 508 451
f 506 499 492
f 501 498 478
f 504 474 497
f 509 455 482
f 509 510 455
f 511 21 503
f 510 458 455
f 21 20 503
f 20 507 503
f 512 485 458
f 510 512 458
f 512 513 485
f 514 473 485
f 513 514 485
f 487 505 470
f 515 501 477
f 506 516 499
f 516 503 499
f 511 20 21
f 517 502 491
f 518 519 520
f 514 521 473
f 518 522 519
f 522 523 519
f 516 524 503
f 524 511 503
f 523 525 519
f 520 526 518
f 527 488 473
f 521 527 473
f 511 528 19
f 496 517 491
f 529 526 520
f 530 439 493
f 531 532 533
f 524 528 511
f 527 534 488
f 504 517 496
f 534 493 488
f 535 498 501
f 536 535 501
f 537 538 539
f 517 506 502
f 537 533 538
f 515 536 501
f 540 537 539
f 529 541 526
f 537 542 533
f 535 494 469
f 534 530 493
f 522 543 523
f 531 542 532
f 544 545 532
f 542 544 532
f 543 525 523
f 546 506 517
f 498 535 469
f 546 517 504
f 547 548 549
f 550 541 529
f 551 522 518
f 552 553 554
f 555 551 518
f 526 555 518
f 551 556 522
f 556 543 522
f 545 557 558
f 557 559 558
f 560 561 562
f 552 549 553
f 556 563 543
f 563 525 543
f 541 555 526
f 563 540 525
f 563 564 540
f 565 536 515
f 544 557 545
f 564 537 540
f 547 549 552
f 564 566 537
f 557 567 559
f 25 555 541
f 566 542 537
f 546 516 506
f 566 568 542
f 568 544 542
f 568 569 544
f 569 557 544
f 560 565 515
f 569 570 557
f 571 572 507
f 573 535 536
f 570 567 557
f 574 554 567
f 570 574 567
f 574 552 554
f 575 524 516
f 565 573 536
f 576 504 497
f 574 577 552
f 575 516 546
f 577 547 552
f 578 579 547
f 528 571 507
f 580 25 541
f 550 580 541
f 581 439 530
f 578 560 579
f 577 582 547
f 581 433 439
f 582 578 547
f 578 565 560
f 582 583 578
f 576 497 505
f 575 546 504
f 583 565 578
f 583 573 565
f 27 580 550
f 584 27 550
f 585 575 504
f 555 24 551
f 573 494 535
f 22 24 555
f 24 586 551
f 527 564 563
f 22 586 24
f 527 563 556
f 513 569 568
f 479 508 480
f 25 22 555
f 587 27 584
f 521 566 564
f 527 521 564
f 521 568 566
f 588 587 584
f 23 589 586
f 569 512 510
f 510 574 570
f 569 513 512
f 25 23 22
f 508 574 482
f 574 509 482
f 574 510 509
f 521 513 568
f 574 508 577
f 577 479 582
f 508 479 577
f 513 521 514
f 573 475 494
f 569 510 570
f 530 556 551
f 530 534 556
f 556 534 527
f 479 583 582
f 475 583 479
f 573 583 475
f 586 530 551
f 576 585 504
f 589 581 586
f 580 589 23
f 581 530 586
f 580 26 589
f 575 590 524
f 585 590 575
f 468 433 581
f 28 26 580
f 28 589 26
f 28 591 589
f 468 581 589
f 591 468 589
f 592 593 588
f 587 28 27
f 594 587 588
f 593 594 588
f 590 571 528
f 524 590 528
f 587 591 28
f 595 592 596
f 597 505 487
f 594 591 587
f 595 593 592
f 594 468 591
f 598 594 593
f 595 598 593
f 505 599 576
f 571 600 572
f 601 602 596
f 602 595 596
f 603 585 576
f 487 468 594
f 602 604 595
f 597 599 505
f 598 597 594
f 605 598 595
f 604 605 595
f 597 487 594
f 601 606 602
f 607 608 600
f 571 607 600
f 609 606 601
f 610 609 608
f 602 611 604
f 609 612 606
f 606 611 602
f 613 608 607
f 613 610 608
f 611 605 604
f 603 590 585
f 590 607 571
f 605 614 598
f 612 609 610
f 615 605 611
f 614 597 598
f 590 616 607
f 616 613 607
f 606 615 611
f 616 617 613
f 617 618 613
f 619 615 606
f 618 610 613
f 612 619 606
f 618 612 610
f 618 619 612
f 599 603 576
f 614 599 597
f 615 620 605
f 614 621 599
f 620 614 605
f 621 603 599
f 619 622 615
f 603 616 590
f 603 617 616
f 618 622 619
f 603 618 617
f 622 620 615
f 603 621 618
f 622 614 620
f 618 621 622
f 622 621 614
