v 0.03258 -0.013276 -0.33
v -0.003902 0.001298 0.053858
v -0.034867 0.005262 -0.33
v 0.02083 0.019852 -0.315178
v -0.02005 -0.024624 -0.319984
v 0.036456 0.015664 -0.137241
v -0.022536 0.01308 0.033647
v 0.032275 0.014172 -0.33
v 0.02602 -0.024052 -0.094227
v -0.028402 -0.021471 -0.33
v -0.021394 0.019871 -0.315729
v 0.024821 0.020186 -0.089827
v -0.0352 -0.00736 -0.33
v 0.039183 -0.002006 -0.169651
v 0.030676 0.01593 -0.326821
v 0.018028 -0.024987 -0.318214
v -0.021998 -0.016648 0.034096
v 0.014544 -0.005348 0.039336
v -0.030648 0.015293 -0.325996
v 0.02976 0.019409 -0.108348
v 0.01084 0.015047 0.006591
v -0.002011 0.020013 -0.079771
v -0.014053 0.020787 -0.31086
v -0.024483 -0.001606 0.033991
v 0.038252 0.013361 -0.172458
v 0.033238 -0.001467 -0.323185
v 0.038333 -0.017904 -0.161139
v 0.018238 0.020551 -0.313437
v -0.01602 -0.025049 -0.316412
v 0.028079 -0.021321 -0.33
v -0.02371 -0.023473 -0.323461
v -0.03085 -0.019472 -0.33
v 0.010559 -0.018754 0.006699
v -0.000854 -0.006471 0.052742
v -0.024019 0.011185 0.033852
v -0.029291 0.016673 -0.324339
v -0.030717 0.015188 -0.326057
v 0.01455 0.001909 0.039266
v 0.034794 0.017359 -0.133194
v 0.007903 0.003123 0.048575
v 0.012509 0.014923 0.002706
v -0.006217 0.019072 -0.068535
v -0.00096 0.015289 0.011957
v 0.002016 0.020273 -0.08716
v -0.016894 0.020699 -0.312569
v -0.035191 0.003227 -0.33
v -0.023533 -0.01567 0.033584
v 0.035536 0.006577 -0.257368
v 0.037972 0.01434 -0.152065
v 0.037587 0.01512 -0.157409
v 0.033164 -0.004456 -0.323685
v 0.038571 -0.016587 -0.172051
v 0.034467 -0.020664 -0.123423
v 0.02477 0.019634 -0.227183
v 0.017647 0.020652 -0.313071
v 0.017263 -0.025051 -0.317461
v -0.003121 -0.023611 -0.077311
v 0.033423 -0.021878 -0.12626
v -0.02642 -0.018568 -0.150557
v -0.020955 -0.022741 -0.241271
v 0.005612 -0.007168 0.04952
v -0.023102 0.012707 0.034251
v -0.019153 -0.001508 0.046661
v -0.023567 0.019063 -0.317205
v 0.031602 0.015038 -0.328967
v -0.029397 0.008525 -0.150321
v 0.037925 -0.002013 -0.144005
v 0.033303 0.017589 -0.118036
v 0.023991 0.018675 -0.317297
v -0.021171 0.013013 0.034928
v 0.010437 0.003325 0.04613
v 0.004084 0.002075 0.052114
v 0.02735 0.019543 -0.094724
v -0.021868 0.016658 -0.149242
v 0.020325 0.019936 -0.078872
v -0.007173 0.015228 0.009982
v 0.000604 0.020742 -0.307242
v -0.017911 0.019832 -0.26658
v -0.009283 0.02047 -0.208715
v -0.032623 0.001969 -0.242566
v -0.032351 0.006122 -0.242578
v -0.029555 -0.012102 -0.150709
v 0.035239 0.013831 -0.252847
v 0.038387 0.013571 -0.161141
v 0.034036 0.015514 -0.245568
v 0.032249 -0.018538 -0.33
v 0.034613 -0.012051 -0.279111
v 0.012382 -0.018422 0.00382
v 0.018486 0.020488 -0.313569
v 0.027287 0.018609 -0.239607
v 0.02672 0.020085 -0.09731
v 0.021343 -0.024612 -0.219644
v 0.022576 -0.02408 -0.089867
v -0.010456 -0.024356 -0.203119
v -0.001517 -0.018716 0.012218
v 0.029521 -0.023281 -0.105862
v 0.021025 -0.024116 -0.320372
v 0.033131 -0.020504 -0.237853
v 0.036375 -0.02004 -0.141741
v -0.026932 -0.022095 -0.327663
v -0.028775 -0.018937 -0.242707
v -0.022749 -0.0238 -0.322041
v -0.006584 -0.022684 -0.067905
v 0.012059 -0.00614 0.044232
v -0.020784 -0.015966 0.036377
v -0.02601 0.014932 -0.150609
v -0.027103 0.013872 -0.150324
v -0.022471 -0.001698 0.041527
v -0.020431 0.007219 0.04412
v -0.014779 -0.007582 0.050115
v -0.021923 0.01835 -0.240983
v 0.034925 0.01468 -0.245328
v -0.034637 0.005779 -0.328958
v -0.026678 0.00994 -0.058206
v 0.014612 -0.001888 0.039616
v 0.025598 0.008567 -0.048956
v 0.035954 -0.019963 -0.133016
v 0.037865 -0.018597 -0.15193
v 0.030239 0.018636 -0.104382
v 0.030217 0.016133 -0.325832
v 0.00845 0.015194 0.009088
v -0.021901 0.012309 0.036993
v 0.012979 0.003497 0.039995
v 0.001389 -0.00172 0.053372
v 0.000567 0.020539 -0.210314
v 0.020654 0.020457 -0.217221
v -0.014013 0.019579 -0.200565
v -6.4e-05 0.020197 -0.087096
v -0.029912 -0.004521 -0.15036
v -0.03488 -0.009564 -0.33
v -0.025764 -0.015994 -0.058709
v 0.032639 0.016633 -0.233461
v 0.030403 -0.020421 -0.33
v 0.038239 -0.017411 -0.173545
v 0.012549 -0.018763 0.000163
v 0.023123 0.020068 -0.226482
v 0.021603 0.020406 -0.220963
v -0.001217 -0.025059 -0.31088
v 0.019621 -0.024626 -0.217464
v 0.00113 -0.024045 -0.086992
v 0.020103 -0.023738 -0.078458
v -0.011865 -0.024191 -0.205186
v 0.004065 -0.018738 0.01171
v -0.007565 -0.018742 0.009831
v 0.023253 -0.024225 -0.224799
v 0.032486 -0.021502 -0.113204
v 0.028035 -0.023119 -0.096754
v 0.024995 -0.02258 -0.324454
v 0.025915 -0.023346 -0.235085
v 0.037299 -0.019372 -0.156164
v -0.022017 -0.018552 -0.057716
v -0.017102 -0.02425 -0.266771
v 0.009281 -0.006049 0.048266
v 0.013911 -0.006485 0.039164
v -0.0225 -0.014508 0.038415
v -0.024273 0.014006 -0.058481
v -0.023354 0.01783 -0.244791
v -0.023758 -0.001701 0.038051
v -0.012174 0.003496 0.051482
v -0.022173 0.00946 0.040293
v -0.0093 -0.005583 0.05276
v -0.013311 -0.010288 0.047025
v -0.032379 0.011114 -0.32572
v 0.026252 -0.002815 -0.052265
v 0.011193 -0.001743 0.046999
v 0.034124 0.016075 -0.120583
v 0.025629 0.006669 -0.048781
v 0.025249 -0.012656 -0.04684
v 0.022395 0.010273 -0.032558
v 0.002022 0.015173 0.012171
v 0.000337 0.003094 0.052423
v 0.01262 0.00229 0.044106
v -0.00479 -0.005604 0.053518
v 0.01197 0.020495 -0.211647
v -0.002388 0.020752 -0.307321
v 0.009079 0.020699 -0.308542
v -0.032442 -0.009814 -0.242711
v 0.031712 -0.021226 -0.22974
v 0.035197 -0.017998 -0.253185
v -0.013941 -0.025056 -0.315052
v 0.002076 -0.025054 -0.310875
v -0.000529 -0.02461 -0.209752
v 0.005445 -0.023627 -0.076928
v 0.007886 -0.01862 0.009835
v 0.024506 -0.013006 -0.042044
v 0.034273 -0.019587 -0.244936
v -0.021303 -0.02071 -0.149482
v 0.006821 -0.001731 0.051001
v 0.004114 -0.005947 0.051851
v 0.023199 -0.013994 -0.03702
v -0.023479 -0.014758 0.036043
v -0.020732 -0.010711 0.043802
v -0.026208 0.017952 -0.320006
v -0.0189 0.005757 0.046459
v -0.015382 -0.001699 0.049951
v -0.019662 0.008748 0.043541
v -0.023501 0.011434 0.035743
v -0.009123 0.002003 0.052865
v -0.020026 -0.012571 0.042838
v 0.007884 0.002066 0.04993
v 0.023927 0.009749 -0.039385
v 0.006266 0.015059 0.010896
v -0.004423 0.002694 0.053201
v -0.011701 -0.007851 0.050998
v 0.005247 0.020719 -0.307606
v 0.027363 -0.021627 -0.327663
v 0.035072 -0.018661 -0.247375
v -0.007709 -0.02458 -0.207976
v 0.009806 -0.024617 -0.210992
v -0.002543 -0.025059 -0.310951
v 0.007869 -0.005534 0.049942
v -0.022866 -0.012581 0.039629
v -0.017009 -0.009254 0.047791
v -0.015743 0.005353 0.048824
v -0.011397 0.004831 0.050773
v -0.017714 -0.012599 0.042829
v -0.014132 0.007254 0.046301
v -0.01831 0.009776 0.041696
f 13 8 1
f 13 3 8
f 13 1 10
f 26 1 8
f 28 15 11
f 28 4 15
f 29 5 16
f 30 10 1
f 30 16 5
f 30 5 10
f 31 10 5
f 32 13 10
f 36 11 15
f 37 19 8
f 37 8 3
f 41 12 21
f 42 7 22
f 45 42 22
f 46 3 13
f 48 25 14
f 48 26 8
f 48 14 26
f 50 39 6
f 50 6 49
f 51 26 14
f 51 1 26
f 52 14 27
f 55 45 23
f 55 28 11
f 55 11 45
f 56 29 16
f 59 31 17
f 59 17 47
f 59 32 10
f 62 36 19
f 64 11 36
f 65 36 15
f 65 8 19
f 65 19 36
f 66 3 35
f 67 49 6
f 67 14 49
f 68 39 20
f 68 6 39
f 69 15 4
f 70 43 7
f 73 12 41
f 74 7 42
f 75 22 43
f 75 44 22
f 75 12 44
f 76 43 22
f 76 22 7
f 76 7 43
f 77 55 23
f 78 45 11
f 79 44 23
f 79 23 45
f 79 45 22
f 80 46 13
f 80 24 35
f 80 35 46
f 81 46 35
f 81 35 3
f 81 3 46
f 82 47 24
f 83 48 8
f 83 25 48
f 83 50 25
f 84 49 14
f 84 14 25
f 84 50 49
f 84 25 50
f 85 39 50
f 85 65 15
f 85 50 65
f 86 1 52
f 87 51 14
f 87 14 52
f 87 52 1
f 87 1 51
f 89 20 54
f 89 54 4
f 89 4 28
f 90 4 54
f 90 54 20
f 90 20 39
f 90 69 4
f 91 73 20
f 91 12 73
f 92 56 16
f 92 16 9
f 94 5 29
f 97 16 30
f 100 59 10
f 100 10 31
f 100 31 59
f 101 59 47
f 101 47 32
f 101 32 59
f 102 31 5
f 102 5 60
f 102 17 31
f 103 57 17
f 105 61 34
f 106 36 62
f 107 37 35
f 107 35 62
f 107 62 19
f 107 19 37
f 109 108 63
f 111 11 64
f 111 7 74
f 111 78 11
f 111 74 78
f 112 65 50
f 112 8 65
f 112 83 8
f 112 50 83
f 113 37 3
f 113 3 66
f 114 66 35
f 114 35 37
f 114 37 66
f 116 67 6
f 117 53 58
f 117 58 99
f 118 27 14
f 118 14 67
f 118 67 117
f 118 117 99
f 119 73 41
f 119 68 20
f 119 20 73
f 120 15 69
f 120 69 90
f 121 70 40
f 121 71 21
f 121 40 71
f 121 75 43
f 121 21 12
f 121 12 75
f 122 70 7
f 122 7 62
f 123 41 21
f 123 21 71
f 123 38 41
f 124 72 2
f 125 44 12
f 125 23 44
f 126 12 91
f 127 42 45
f 127 45 78
f 127 78 74
f 127 74 42
f 128 79 22
f 128 22 44
f 128 44 79
f 129 80 13
f 129 24 80
f 129 82 24
f 129 13 82
f 130 13 32
f 130 32 82
f 131 82 32
f 131 32 47
f 131 47 82
f 132 85 15
f 132 39 85
f 132 15 120
f 132 120 90
f 132 90 39
f 133 30 1
f 133 1 86
f 134 52 27
f 135 88 33
f 135 33 9
f 135 9 88
f 136 89 28
f 136 20 89
f 137 28 55
f 137 136 28
f 137 126 91
f 137 55 126
f 137 91 20
f 137 20 136
f 139 92 9
f 139 9 93
f 139 56 92
f 140 94 29
f 140 57 94
f 141 93 9
f 141 9 33
f 141 140 93
f 142 94 57
f 142 5 94
f 143 17 95
f 143 141 33
f 143 95 141
f 143 105 17
f 144 95 17
f 144 17 57
f 144 57 95
f 145 96 9
f 145 9 16
f 145 16 97
f 146 96 58
f 146 58 53
f 147 88 9
f 147 9 96
f 147 146 88
f 147 96 146
f 148 97 30
f 149 58 96
f 149 148 58
f 149 97 148
f 149 145 97
f 149 96 145
f 150 99 58
f 150 58 98
f 150 118 99
f 150 27 118
f 151 17 102
f 152 57 103
f 152 103 17
f 152 60 5
f 152 5 142
f 152 142 57
f 153 61 33
f 153 33 104
f 154 18 104
f 154 104 33
f 154 33 88
f 155 17 105
f 156 106 62
f 156 62 7
f 157 36 106
f 157 106 156
f 157 156 7
f 157 111 64
f 157 7 111
f 158 35 24
f 160 108 109
f 160 158 108
f 162 105 34
f 163 113 66
f 163 66 37
f 163 37 113
f 164 115 18
f 164 18 67
f 164 67 115
f 165 104 18
f 165 18 115
f 165 153 104
f 166 38 116
f 166 116 6
f 166 6 68
f 167 115 67
f 167 67 116
f 167 116 38
f 167 38 115
f 168 117 67
f 168 67 18
f 169 119 41
f 169 41 38
f 169 68 119
f 170 121 43
f 170 43 70
f 171 72 40
f 171 40 70
f 171 70 122
f 171 2 72
f 172 123 71
f 172 38 123
f 172 165 115
f 172 115 38
f 173 124 2
f 173 34 124
f 173 2 161
f 174 125 12
f 174 77 125
f 174 12 126
f 175 125 77
f 175 77 23
f 175 23 125
f 176 126 55
f 177 130 82
f 177 82 13
f 177 13 130
f 178 133 98
f 178 98 58
f 178 30 133
f 178 58 148
f 179 86 52
f 179 52 134
f 180 29 56
f 180 56 138
f 181 138 56
f 181 56 139
f 182 93 140
f 183 141 95
f 183 95 57
f 183 57 140
f 183 140 141
f 184 143 33
f 184 33 61
f 184 61 105
f 184 105 143
f 185 146 53
f 185 18 146
f 185 168 18
f 185 53 117
f 185 117 168
f 186 150 98
f 186 98 133
f 186 133 86
f 187 17 151
f 187 151 102
f 187 102 60
f 187 152 17
f 187 60 152
f 188 72 124
f 189 34 61
f 189 188 124
f 189 124 34
f 190 146 18
f 190 18 154
f 190 154 88
f 190 88 146
f 191 47 17
f 191 17 155
f 191 158 24
f 191 24 47
f 192 63 108
f 193 157 64
f 193 64 36
f 193 36 157
f 194 109 63
f 195 63 110
f 195 194 63
f 195 161 159
f 195 110 161
f 196 160 109
f 196 122 160
f 196 109 194
f 197 35 158
f 197 158 160
f 197 62 35
f 197 160 122
f 197 122 62
f 198 161 2
f 198 159 161
f 199 155 105
f 199 192 155
f 200 71 40
f 200 172 71
f 200 165 172
f 200 188 165
f 200 40 72
f 200 72 188
f 201 166 68
f 201 38 166
f 201 169 38
f 201 68 169
f 202 170 70
f 202 70 121
f 202 121 170
f 203 2 171
f 203 198 2
f 203 159 198
f 204 173 161
f 204 161 110
f 204 199 162
f 204 162 34
f 204 34 173
f 205 126 176
f 205 176 55
f 205 55 77
f 205 77 174
f 205 174 126
f 206 178 148
f 206 148 30
f 206 30 178
f 207 179 134
f 207 134 27
f 207 86 179
f 207 186 86
f 207 27 150
f 207 150 186
f 208 140 29
f 208 29 180
f 208 182 140
f 208 180 182
f 209 181 139
f 209 139 93
f 209 138 181
f 209 182 138
f 209 93 182
f 210 182 180
f 210 180 138
f 210 138 182
f 211 153 165
f 211 165 188
f 211 188 189
f 211 189 61
f 211 61 153
f 212 108 158
f 212 158 191
f 212 192 108
f 212 191 155
f 212 155 192
f 213 110 63
f 213 63 192
f 213 192 199
f 213 204 110
f 213 199 204
f 214 195 159
f 214 194 195
f 214 196 194
f 215 203 171
f 215 196 214
f 215 214 159
f 215 159 203
f 216 199 105
f 216 105 162
f 216 162 199
f 217 215 171
f 217 171 122
f 218 122 196
f 218 196 215
f 218 217 122
f 218 215 217
