v -0.016499 -0.042 -0.000156
v 0.032 -0.046969 0.006915
v 0.032 -0.042 -0.028198
v 0.032 -0.040609 0.014959
v -0.011252 -0.047 -0.010414
v -0.000999 -0.039 -0.0033
v -0.004145 -0.046735 0.014903
v -0.012202 -0.042 -0.012204
v 0.032 -0.047 -0.026172
v 0.003231 -0.039 -0.001204
v -0.004421 -0.042 0.015897
v 0.028579 -0.046572 0.015089
v -0.000178 -0.048483 0.001281
v -0.014979 -0.046735 0.003862
v -0.015638 -0.04601 -0.007902
v 0.018293 -0.042 -0.027866
v -0.015918 -0.042 -0.00801
v 0.001531 -0.039 -0.003089
v -0.000286 -0.039 0.003436
v 0.032 -0.046041 0.014768
v 0.013708 -0.045017 0.016604
v 0.001541 -0.048473 0.000598
v 0.017233 -0.047 -0.025419
v 0.024956 -0.047 0.014368
v -0.014367 -0.042 0.008114
v -0.010331 -0.047 0.010137
v -0.006009 -0.048124 -0.000814
v -0.013214 -0.04601 -0.011188
v -0.016199 -0.04601 -0.000153
v -0.01432 -0.047 -0.006256
v 0.014815 -0.042 -0.026543
v 0.021989 -0.042 -0.028293
v -0.003493 -0.039 0.000146
v -0.014439 -0.042 -0.010443
v -0.016425 -0.045017 -0.005213
v -0.000156 -0.042 0.016499
v 0.003179 -0.039 0.001334
v 0.032 -0.046849 0.010001
v 0.028471 -0.044551 0.016113
v 0.013712 -0.046072 0.016248
v 0.032 -0.047 0.006019
v -0.001735 -0.048367 -0.003178
v -8.4e-05 -0.048124 0.006063
v 0.001735 -0.048367 0.003178
v 0.002939 -0.048367 0.002089
v -0.011713 -0.042 0.011607
v -0.012945 -0.04601 0.00974
v -0.013424 -0.047 0.005412
v -0.005038 -0.048124 0.003376
v 0.015299 -0.046735 -0.025632
v -0.015952 -0.045017 0.004113
v -0.014407 -0.046735 -0.008757
v -0.01542 -0.046735 -0.005203
v 0.011406 -0.042 -0.024734
v 0.015931 -0.042 -0.026968
v 0.032 -0.045925 -0.027937
v -0.016451 -0.042 -0.005213
v -0.015978 -0.042 0.004119
v -0.002987 -0.039 -0.001722
v -0.013383 -0.045017 -0.011403
v -0.015265 -0.045017 -0.009279
v -0.016284 -0.045017 -0.00663
v -0.016473 -0.045017 -0.000156
v -0.002305 -0.045017 0.016312
v 0.001619 -0.039 0.003098
v 0.032 -0.0463 0.014141
v 0.032 -0.046858 0.009826
v 0.028536 -0.046811 0.014329
v 0.032 -0.044741 0.015711
v 0.01998 -0.042 0.016327
v 0.013719 -0.046792 0.015452
v 0.025055 -0.04562 0.016267
v -0.00013 -0.048475 -0.001585
v 0.02197 -0.047 -0.026267
v -0.002252 -0.048124 -0.005657
v -0.005262 -0.048124 -0.003064
v -0.005665 -0.047 0.013319
v 0.000533 -0.048479 0.001315
v 0.000331 -0.048367 0.003577
v 0.001183 -0.04848 0.000763
v -0.008385 -0.042 0.014211
v -0.002561 -0.039 0.002309
v -0.013164 -0.045017 0.009904
v -0.009533 -0.046735 0.012182
v -0.013469 -0.046735 0.007607
v -0.014367 -0.047 0.001753
v -0.003549 -0.048367 -0.000266
v -0.012603 -0.047 0.007118
v 0.015765 -0.047 -0.024753
v -0.011719 -0.046735 -0.011293
v -0.015687 -0.04601 0.004044
v -0.01324 -0.047 -0.00867
v -0.014215 -0.04601 -0.010244
v -0.015468 -0.046735 -0.000147
v -0.016151 -0.04601 -0.00521
v -0.015126 -0.046735 -0.007041
v 0.014046 -0.042 -0.026135
v 0.01778 -0.042 -0.027671
v 0.016522 -0.045017 -0.027288
v 0.021989 -0.045017 -0.028267
v -0.015279 -0.045017 0.00616
v -0.01442 -0.045017 -0.010425
v -0.015894 -0.045017 -0.008
v -0.016352 -0.045017 0.001995
v -0.000156 -0.045017 0.016473
v 0.024998 -0.046827 0.01518
v 0.032 -0.046424 0.01332
v 0.032 -0.043971 0.015718
v 0.028581 -0.046056 0.015698
v 0.008155 -0.042 0.016578
v -0.000147 -0.046735 0.015468
v 0.02506 -0.044793 0.016354
v 0.028543 -0.045344 0.016059
v 0.001273 -0.048473 -0.001034
v 0.018773 -0.047 -0.025898
v 0.02198 -0.046735 -0.027262
v -0.000331 -0.048367 -0.003577
v -0.014027 -0.047 -0.007282
v -0.003987 -0.048124 -0.004628
v -0.002892 -0.048124 0.00533
v 0.00013 -0.048475 0.001585
v 0.000827 -0.048485 0.000892
v -0.006448 -0.045017 0.015159
v -0.013011 -0.042 0.009916
v -0.007861 -0.046735 0.013322
v -0.007355 -0.047 0.012466
v -0.010152 -0.045017 0.012974
v -0.014347 -0.046735 0.005784
v -0.012361 -0.046735 0.0093
v -0.014473 -0.047 -0.000137
v -0.014015 -0.047 0.003613
v -0.005951 -0.048124 0.00138
v -0.002995 -0.048367 0.002007
v -0.001541 -0.048473 -0.000598
v -0.002939 -0.048367 -0.002089
v -0.011566 -0.047 0.008702
v 0.014956 -0.04601 -0.026278
v -0.016081 -0.04601 0.001962
v -0.013215 -0.046735 -0.010186
v -0.015031 -0.04601 -0.009137
v -0.015355 -0.046735 0.001874
v -0.016015 -0.04601 -0.006579
v 0.014827 -0.045017 -0.02652
v 0.032 -0.045017 -0.028172
v 0.018299 -0.045017 -0.027841
v -0.014344 -0.045017 0.008101
v -0.014106 -0.04601 0.007967
v -0.000153 -0.04601 0.016199
v 0.013727 -0.047 0.014604
v 0.025033 -0.046339 0.015851
v 0.027739 -0.041418 0.015652
v 0.032 -0.045449 0.015418
v -0.002952 -0.047 0.014138
v 0.021989 -0.04196 0.016206
v 0.000663 -0.048483 -0.001116
v 0.001317 -0.048482 5.4e-05
v 0.01688 -0.046735 -0.026349
v 0.032 -0.046651 -0.027274
v 0.032 -0.04691 -0.026576
v 0.021985 -0.046131 -0.027871
v 0.020246 -0.046735 -0.02717
v 0.02036 -0.047 -0.026182
v -0.012147 -0.047 -0.009831
v -0.001719 -0.048367 0.003169
v -0.004414 -0.045017 0.015871
v -0.006055 -0.046735 0.014234
v -0.008919 -0.047 0.011399
v -0.011758 -0.045017 0.011538
v -0.009983 -0.04601 0.012758
v -0.008372 -0.045017 0.014188
v -0.011563 -0.04601 0.011346
v -0.011041 -0.046735 0.010834
v -0.014425 -0.047 -0.005194
v -0.00068 -0.048482 -0.001104
v -0.001273 -0.048473 0.001034
v -0.012062 -0.04601 -0.011939
v -0.01219 -0.045017 -0.01218
v 0.016619 -0.04601 -0.027033
v 0.032 -0.045437 -0.028075
v 0.020131 -0.045017 -0.028169
v -0.015025 -0.04601 0.006057
v -0.002267 -0.04601 0.016041
v -0.000137 -0.047 0.014473
v -0.002164 -0.046735 0.015317
v 0.000178 -0.048483 -0.001281
v 0.001219 -0.048482 -0.000511
v 0.021977 -0.046821 -0.02694
v 0.032 -0.046388 -0.027547
v 0.018537 -0.046735 -0.026864
v 0.020162 -0.04601 -0.027897
v -0.000638 -0.048483 0.001116
v -0.008233 -0.04601 0.013952
v -0.001214 -0.048483 0.000333
v -0.004341 -0.04601 0.015608
v 0.018364 -0.04601 -0.027575
v -0.006341 -0.04601 0.014907
v -0.001284 -0.04848 -0.00054
f 10 4 3
f 18 10 3
f 18 3 6
f 32 16 6
f 32 6 3
f 34 6 8
f 36 19 11
f 36 4 19
f 37 4 10
f 41 22 9
f 45 2 24
f 45 24 44
f 45 41 2
f 45 22 41
f 54 8 6
f 55 31 6
f 57 33 17
f 57 1 33
f 58 33 1
f 58 25 33
f 59 6 34
f 59 34 17
f 59 17 33
f 60 34 8
f 61 17 34
f 62 57 17
f 62 35 57
f 63 35 29
f 63 57 35
f 63 1 57
f 64 36 11
f 65 19 4
f 65 4 37
f 66 20 12
f 67 38 24
f 67 24 2
f 68 24 38
f 68 66 12
f 72 21 40
f 75 23 42
f 79 44 24
f 79 24 43
f 80 45 44
f 80 22 45
f 80 44 78
f 81 11 19
f 82 33 25
f 82 81 19
f 82 46 81
f 82 19 65
f 82 59 33
f 82 6 59
f 82 18 6
f 82 10 18
f 82 65 37
f 82 37 10
f 87 27 76
f 88 48 49
f 89 50 23
f 89 75 5
f 89 23 75
f 90 89 5
f 90 50 89
f 93 60 28
f 95 29 35
f 95 94 29
f 95 53 94
f 96 30 53
f 96 15 52
f 97 54 6
f 97 6 31
f 98 55 6
f 98 6 16
f 99 31 55
f 99 55 98
f 99 98 16
f 100 32 3
f 101 58 51
f 101 25 58
f 101 51 91
f 102 61 34
f 102 34 60
f 102 93 61
f 102 60 93
f 103 62 17
f 103 17 61
f 104 58 1
f 104 1 63
f 104 51 58
f 105 36 64
f 106 68 12
f 106 24 68
f 107 68 38
f 107 66 68
f 108 39 69
f 109 12 20
f 110 70 4
f 110 4 36
f 110 105 21
f 110 36 105
f 111 71 40
f 112 21 72
f 112 110 21
f 112 70 110
f 113 69 39
f 113 72 109
f 113 112 72
f 113 39 112
f 115 42 23
f 117 73 42
f 117 74 9
f 117 9 73
f 117 42 115
f 118 76 27
f 118 27 30
f 118 92 76
f 118 52 92
f 118 96 52
f 118 30 96
f 119 75 42
f 119 5 75
f 119 76 92
f 120 26 49
f 121 78 44
f 121 44 79
f 121 13 78
f 122 80 78
f 122 78 13
f 123 11 81
f 124 82 25
f 124 46 82
f 124 83 46
f 124 25 83
f 126 120 77
f 126 125 84
f 127 81 46
f 128 14 48
f 128 91 14
f 128 88 85
f 128 48 88
f 129 85 88
f 130 94 53
f 131 48 14
f 131 14 86
f 132 27 87
f 132 131 86
f 132 49 48
f 132 48 131
f 132 130 27
f 132 86 130
f 133 132 87
f 133 49 132
f 135 87 76
f 135 119 42
f 135 76 119
f 135 134 87
f 135 42 134
f 136 88 49
f 136 49 26
f 136 129 88
f 137 50 90
f 138 14 91
f 138 29 94
f 138 104 63
f 138 63 29
f 138 91 51
f 138 51 104
f 139 92 52
f 139 52 93
f 139 93 28
f 139 28 90
f 140 93 52
f 140 52 15
f 140 61 93
f 140 103 61
f 140 15 103
f 141 86 14
f 141 130 86
f 141 94 130
f 141 138 94
f 141 14 138
f 142 95 35
f 142 35 62
f 142 103 15
f 142 62 103
f 142 15 96
f 142 96 53
f 142 53 95
f 143 97 31
f 143 31 99
f 143 54 97
f 143 8 54
f 144 100 3
f 145 99 16
f 146 83 25
f 146 25 101
f 147 146 101
f 147 128 85
f 147 47 83
f 147 83 146
f 147 129 47
f 147 85 129
f 148 40 21
f 148 21 105
f 148 111 40
f 149 106 71
f 149 24 106
f 149 43 24
f 150 40 71
f 150 71 106
f 150 72 40
f 150 109 72
f 150 106 12
f 150 12 109
f 151 39 108
f 151 108 4
f 151 4 70
f 152 109 20
f 152 113 109
f 152 69 113
f 153 7 77
f 153 120 43
f 153 77 120
f 154 112 39
f 154 70 112
f 154 151 70
f 154 39 151
f 155 9 114
f 156 9 22
f 156 22 80
f 156 80 122
f 157 115 23
f 157 23 50
f 159 9 74
f 159 116 158
f 160 100 56
f 162 117 115
f 162 74 117
f 162 115 161
f 163 119 92
f 163 5 119
f 163 92 139
f 163 139 90
f 163 90 5
f 164 79 43
f 164 43 120
f 164 121 79
f 164 120 49
f 164 49 133
f 165 64 11
f 165 11 123
f 166 77 7
f 166 126 77
f 166 125 126
f 167 126 84
f 167 84 26
f 167 26 120
f 167 120 126
f 168 83 47
f 168 127 46
f 168 46 83
f 170 123 81
f 170 81 127
f 171 84 169
f 171 168 47
f 171 169 127
f 171 127 168
f 172 26 84
f 172 136 26
f 172 129 136
f 172 84 171
f 172 171 47
f 172 47 129
f 173 30 27
f 173 27 130
f 173 130 53
f 173 53 30
f 174 134 42
f 174 42 73
f 175 133 87
f 175 164 133
f 176 137 90
f 176 90 28
f 176 143 137
f 176 28 60
f 177 60 8
f 177 8 143
f 177 176 60
f 177 143 176
f 178 143 99
f 178 137 143
f 178 99 145
f 178 157 50
f 178 50 137
f 179 56 100
f 179 100 144
f 180 145 16
f 180 16 32
f 180 32 100
f 181 147 101
f 181 101 91
f 181 91 128
f 181 128 147
f 182 148 105
f 182 105 64
f 182 111 148
f 183 149 71
f 183 71 111
f 183 153 43
f 183 43 149
f 184 7 153
f 184 183 111
f 184 153 183
f 184 111 182
f 185 73 9
f 185 9 155
f 185 174 73
f 185 155 122
f 186 114 9
f 186 155 114
f 186 9 156
f 186 156 122
f 186 122 155
f 187 159 74
f 187 116 159
f 187 74 162
f 187 162 161
f 187 161 116
f 188 158 116
f 188 159 158
f 188 116 160
f 188 160 56
f 188 56 179
f 188 9 159
f 188 41 9
f 188 2 41
f 188 67 2
f 188 38 67
f 188 107 38
f 188 66 107
f 188 20 66
f 188 152 20
f 188 69 152
f 188 108 69
f 188 4 108
f 188 3 4
f 188 179 144
f 188 144 3
f 189 161 115
f 189 115 157
f 189 157 178
f 190 160 116
f 190 116 161
f 190 161 189
f 190 180 100
f 190 100 160
f 190 145 180
f 191 13 121
f 191 121 164
f 191 164 175
f 191 122 13
f 192 169 84
f 192 84 125
f 192 125 166
f 192 170 127
f 192 127 169
f 193 175 87
f 193 87 134
f 193 191 175
f 193 122 191
f 193 185 122
f 193 174 185
f 194 182 64
f 194 64 165
f 194 165 123
f 194 166 7
f 194 184 182
f 194 7 184
f 195 190 189
f 195 189 178
f 195 178 145
f 195 145 190
f 196 123 170
f 196 170 192
f 196 194 123
f 196 192 166
f 196 166 194
f 197 193 134
f 197 134 174
f 197 174 193
