v 0.00030856 0.0289328 -0.0152683
v 0.000311234 0.0249723 -0.01522
v 0.000311484 0.028867 -0.0152
v 0.000311484 0.0249723 -0.0152
v 0.00025518 0.0292412 -0.0155438
v 7.71692e-05 0.0249723 -0.0157657
v 7.60487e-05 0.0296457 -0.0157668
v -7.28249e-05 0.0299861 -0.0159011
v 5.58985e-05 0.0296884 -0.0157862
v -0.000281461 0.0249723 -0.0159727
v -0.000130673 0.0300555 -0.0159155
v -0.000488516 0.0307 -0.016
v -0.000385332 0.0249723 -0.0159933
v -0.000483593 0.0306913 -0.016
v -0.00031841 0.0303984 -0.0159836
v -0.000289374 0.024454 -0.0158292
v -0.00477845 0.0244157 -0.0158402
v -0.00028383 0.0241998 -0.015322
v -0.000488516 0.0241723 -0.0152
v -0.000299815 0.0241949 -0.0152
v -0.000129344 0.0242574 -0.0152
v -8.85163e-05 0.0242795 -0.0152
v 7.71692e-05 0.0244066 -0.0152
v 0.000133448 0.0244691 -0.0152
v 0.000204304 0.0245723 -0.0152
v 0.000284224 0.0247652 -0.0152
v 0.00028891 0.0247836 -0.0152
v 0.000207799 0.024634 -0.0155375
v -1.65915e-06 0.0248845 -0.0158328
v -0.00023717 0.0247779 -0.0159461
v -0.000414083 0.0248642 -0.0159935
v -0.000410992 0.0242103 -0.0154363
v 0.000311484 0.0285349 -0.01475
v 0.000311484 0.0249723 -0.00679996
v 0.000311484 0.0282 -0.0135
v 0.000311484 0.0282852 -0.014147
v -0.00424264 0.028334 0.00424264
v 0.000279922 0.0281961 -0.00654157
v 0.00242511 0.0282006 -0.00606701
v -0.00531759 0.0285597 -0.00322466
v -0.000383739 0.0283232 -0.00600685
v -0.000281461 0.0283153 -0.00602722
v -0.000181684 0.0283001 -0.00606114
v -0.00270753 0.0281968 -0.00599974
v 7.71692e-05 0.0282358 -0.00623428
v 8.31229e-05 0.0282342 -0.00624029
v 0.00161534 0.0282341 -0.00602852
v 0.000145733 0.0282174 -0.00631239
v -8.85163e-05 0.0282801 -0.00610714
v 4.68586e-06 0.028256 -0.00617008
v -0.00206438 0.0282324 -0.00598972
v -0.00564898 0.0283388 0.00224526
v -0.00441318 0.0282341 0.00441318
v 0.00369965 0.0283852 -0.00447335
v 0.000286391 0.0282012 0.00937106
v 0.00557477 0.0282496 0.00275258
v 0.000775904 0.0285962 -0.00567166
v 0.00547917 0.0284628 -0.00210408
v 0.00398382 0.0287 0.00398382
v 0.0054939 0.0288798 0.00156755
v -0.0053428 0.0289673 0.00187231
v -0.0053849 0.028811 -0.00161668
v 0.0014235 0.0292 -0.00531259
v -0.0038884 0.0281453 -0.016
v -0.00409426 0.0281723 -0.016
v -0.00409426 0.0282 -0.016
v -0.012 0.0069 -0.016
v 0.012 0.0069 -0.016
v -0.012 0.0025 -0.016
v 0.012 0.0025 -0.016
v 0.012 0.0024 -0.016
v -0.012 0.0024 -0.016
v -0.01985 0.0145 -0.016
v -0.012 0.0249723 -0.016
v -0.01485 0.0327 -0.016
v -0.00478642 0.0251516 -0.016054
v 0.01985 0.037 -0.016
v 0.01485 0.0327 -0.016
v 0.01985 0.0145 -0.016
v 0.0407654 0.0025 -0.016
v -0.0407654 0.0025 -0.016
v -0.0407654 0.0145 -0.016
v -0.00340393 0.0277766 -0.016
v -0.00353121 0.0279406 -0.016
v -0.00369641 0.0280663 -0.016
v 0.0407654 0.0145 -0.016
v 0.012 0.0307 -0.016
v -0.00828458 0.0277766 -0.016
v -0.00836537 0.0275853 -0.016
v -0.00331931 0.0271736 -0.016
v -0.00329429 0.0273797 -0.016
v -0.00332315 0.0275853 -0.016
v -0.00689426 0.0249723 -0.016
v -0.00709133 0.0254098 -0.016
v -0.0083692 0.0271736 -0.016
v -0.00839422 0.0273797 -0.016
v -0.00780011 0.0281453 -0.016
v -0.00799211 0.0280663 -0.016
v -0.0081573 0.0279406 -0.016
v -0.00759426 0.0282 -0.016
v -0.00759426 0.0281723 -0.016
v -0.010263 0.0241783 -0.015298
v -0.01057 0.0242497 -0.0155575
v -0.00689426 0.0241995 -0.0154071
v -0.0109493 0.0244094 -0.0157685
v -0.00689425 0.0245094 -0.0158735
v -0.0116351 0.024767 -0.0159732
v -0.0119913 0.0249674 -0.016
v -0.0112573 0.024562 -0.0158897
v -0.00689426 0.0242795 -0.0156
v -0.00689426 0.0241723 -0.0152
v -0.010167 0.0241723 -0.0152
v -0.0102323 0.0241752 -0.0152678
v -0.0075459 0.0247905 -0.00596658
v -0.00958518 0.0241723 -0.014147
v -0.0095 0.0094 -0.0135
v -0.00952139 0.00937861 -0.0138263
v -0.00958519 0.00931481 -0.014147
v -0.00983494 0.0241723 -0.01475
v -0.01075 0.00815 -0.0156651
v -0.0096903 0.0092097 -0.0144567
v -0.00983494 0.00906506 -0.01475
v -0.0100166 0.00888338 -0.0150219
v -0.0102322 0.00866777 -0.0152678
v -0.011353 0.00754705 -0.0159148
v -0.0095 0.0242795 -0.00639996
v -0.00938167 0.0241209 -0.00711512
v -0.00839422 0.0273797 -0.00599996
v -0.00836537 0.0275853 -0.00599996
v -0.0095 0.0282 -0.00599996
v -0.00828458 0.0277766 -0.00599996
v -0.0081573 0.0279406 -0.00599996
v -0.0083692 0.0271736 -0.00599996
v -0.00759426 0.0281723 -0.00599996
v -0.00759426 0.0282 -0.00599996
v -0.00780011 0.0281453 -0.00599996
v -0.00799211 0.0280663 -0.00599996
v -0.0095 0.0094 0.00847094
v -0.00988255 0.0276975 0.0103112
v -0.0115125 0.0024 0.00860445
v -0.0115125 0.0282 0.00860445
v -0.0111797 0.00416695 0.00841549
v -0.0124286 0.0024 0.00904534
v -0.0124286 0.0282 0.00904534
v -0.013204 0.0024 0.00970296
v -0.013204 0.0282 0.00970296
v -0.0137885 0.0024 0.0105348
v -0.0137885 0.0282 0.0105348
v -0.0141444 0.0024 0.0114872
v -0.0141444 0.0282 0.0114872
v -0.0146701 0.0024 0.0194748
v -0.0108039 0.0282 0.0144773
v -0.00818138 0.00247715 0.0248653
v -0.0148311 0.0024 0.0324201
v -0.0127765 0.0024 0.0234019
v -0.0123219 0.0024 0.0397778
v 0.0141375 0.00240001 0.0451819
v 0.0108349 0.0024 0.0490916
v 0.014375 0.0024 -0.015998
v 0.014375 0.0024 0.004
v 0.0119 0.0024 -0.015998
v 0.0129782 0.0024 0.004
v -0.0127765 0.0024 0.00434936
v -0.014375 0.0024 0.004
v -0.014375 0.0024 -0.015998
v -0.0129782 0.0024 0.004
v -0.0119 0.0024 -0.015998
v -0.0157901 0.00190482 0.0051433
v 0.010458 0.0024 0.0275229
v 0.0129226 0.00240026 0.0261029
v 0.0099797 0.0024 0.0264518
v 0.00956644 0.0024 0.0260298
v 0.0105 0.0024 0.0478416
v 0.0105343 0.0024 0.0482542
v 0.0106583 0.0024 0.0487171
v -0.0105 0.0024 0.0478416
v -0.0105343 0.0024 0.0482542
v -0.0106583 0.0024 0.0487171
v -0.00963845 0.0024 0.0260895
v 0.0092 0.0024 0.0257848
v 0.0107571 0.0024 0.0188829
v 0.0142488 0.0024 0.0124985
v 0.0141444 0.0024 0.0114872
v 0.0137885 0.0024 0.0105348
v 0.013204 0.0024 0.00970296
v 0.0124286 0.0024 0.00904534
v 0.0116984 0.00241839 0.00812344
v -0.0100021 0.0024 0.0264806
v -0.0102744 0.0024 0.02694
v -0.010443 0.0024 0.0274468
v -0.0105 0.0024 0.0279778
v 0.0105965 0.0282 0.0171454
v 0.010275 0.00243295 0.00853068
v 0.0124286 0.0282 0.00904534
v 0.013204 0.0282 0.00970296
v 0.0137885 0.0282 0.0105348
v 0.0141444 0.0282 0.0114872
v 0.0142488 0.0282 0.0124985
v 0.0113925 0.0282 0.0137651
v -0.013012 0.0177939 0.0231655
v -0.00967031 0.0160122 0.0257188
v -0.0105 0.015 0.0279778
v -0.0104423 0.015 0.0274437
v -0.0105852 0.015647 0.0279778
v -0.0107123 0.0160083 0.0279778
v -0.0110281 0.0165367 0.0279778
v -0.0108349 0.01625 0.0279778
v -0.0114633 0.0169719 0.0279778
v -0.0112322 0.0167678 0.0279778
v -0.0119658 0.0173916 0.0263916
v -0.0119917 0.0172877 0.0279778
v -0.01175 0.0171651 0.0279778
v -0.0102718 0.015 0.0269342
v -0.00999634 0.015 0.0264729
v -0.0119917 0.0172877 0.0468416
v -0.0123437 0.017436 0.0397698
v -0.015921 0.0175686 0.0392732
v -0.0126419 0.0174778 0.0392235
v -0.0105353 0.0154188 0.0468416
v -0.0116032 0.0170734 0.0468416
v -0.0114633 0.0169719 0.0468416
v -0.0112236 0.0167591 0.0468416
v -0.0110281 0.0165367 0.0468416
v -0.0109137 0.0163775 0.0468416
v -0.0107123 0.0160083 0.0468416
v -0.0116713 0.0170058 0.0478206
v -0.0119336 0.0171094 0.0479498
v -0.0121282 0.017244 0.0477476
v -0.012516 0.0174576 0.0470779
v -0.0121719 0.0172698 0.0477022
v -0.0105127 0.0148911 0.0480676
v -0.0111105 0.0159641 0.0488052
v -0.0112928 0.0163445 0.0486157
v -0.0114236 0.016556 0.0484799
v -0.0110192 0.0157105 0.0489001
v -0.0109098 0.0152805 0.0490138
v -0.0108768 0.015085 0.0490481
v -0.0108658 0.0150027 0.0490595
v -0.0108002 0.0149755 0.0489569
v -0.0108349 0.0145 0.0490916
v -0.010772 0.0156324 0.0485981
v -0.0105842 0.0145 0.0484848
v -0.010609 0.0156694 0.0477369
v -0.0112749 0.016817 0.0476083
v -0.01167 0.016867 0.0482238
v -0.0113559 0.0167017 0.0480318
v -0.0107802 0.015697 0.0483614
v -0.0105343 0.0145 0.0482542
v -0.0227621 3.10862e-16 0.06975
v -0.0223125 0.0024 0.0689713
v -0.014375 3.01981e-16 0.0552232
v -0.0228311 0.0149618 0.0698126
v -0.0228001 0.0150211 0.0697229
v -0.0228099 0.0150844 0.0697159
v -0.0229766 0.0157232 0.069597
v -0.0231759 0.0161663 0.0694548
v -0.023278 0.0163396 0.069382
v -0.0235558 0.0167059 0.0691839
v -0.0237095 0.0168632 0.0690743
v -0.0238546 0.0169901 0.0689708
v -0.0240682 0.0171452 0.0688185
v -0.0242788 0.0172668 0.0686683
v -0.0246241 0.017408 0.068422
v -0.0229837 0.0175106 0.0633775
v -0.0312498 0.0177549 0.0549643
v -0.0170301 0.0175336 0.0429801
v -0.0242765 0.0175 0.0433205
v -0.0206098 0.0175 0.0283094
v -0.022131 0.0175 0.0328337
v -0.051299 0.0177057 0.0288267
v -0.0380265 0.0175 0.0546817
v -0.0373359 0.0175 0.0558779
v -0.0216856 0.0175 0.0495401
v -0.0329217 0.0175602 0.0601349
v -0.0447638 0.0175013 0.0430433
v -0.0435516 0.0175318 0.0108588
v -0.0244227 0.0175 0.00652226
v -0.0220867 0.0175 0.00738045
v -0.0208739 0.0175 0.0091125
v -0.0180939 0.0175 0.0134089
v -0.0149291 0.0175 0.018342
v -0.0347887 0.0175322 -0.0113193
v -0.0299036 0.0170013 -0.0111588
v -0.02235 0.0175 -0.0130014
v -0.0363885 0.0172658 -0.00407007
v -0.0300049 0.01758 0.00821808
v -0.0385748 0.0175 0.00296668
v -0.0404493 0.0174893 -0.0133034
v -0.0394051 0.0175 0.021274
v -0.0366098 0.0175 0.0265773
v -0.0314908 0.0175 0.0246391
v -0.0447765 0.0175 0.025134
v -0.0407261 0.0175 0.0359593
v -0.0213357 0.0175 0.0132174
v -0.0387765 0.0175 0.0493827
v -0.0267765 0.0175 0.0389904
v -0.0390714 0.0175 0.0396343
v -0.0399256 0.0175 0.0513923
v -0.0398359 0.0175 0.0515478
v -0.0268432 0.0175 0.0203997
v -0.0260388 0.0178092 -0.000747524
v -0.0399509 0.0175 0.0317601
v -0.0390431 0.0175 0.0132239
v -0.0446773 0.0175586 0.035602
v -0.0324015 0.0175 0.0361758
v -0.0360265 0.0175 0.0446196
v -0.0335265 0.0175 0.0402894
v 0.00964723 0.0153408 0.02607
v 0.00940459 0.015 0.0259098
v 0.00928263 0.0159985 0.0256356
v 0.0100545 0.017331 0.0245692
v 0.0119917 0.0172877 0.0279778
v 0.0105812 0.0162473 0.0272204
v 0.0117436 0.0171613 0.0279778
v 0.0114633 0.0169719 0.0279778
v 0.0110281 0.0165367 0.0279778
v 0.0108909 0.0163422 0.0279778
v 0.0107123 0.0160083 0.0279778
v 0.0105353 0.0154188 0.0279778
v 0.0104999 0.015 0.0279778
v 0.0106751 0.0166081 0.0266697
v 0.0122515 0.0174541 0.0262816
v 0.0123306 0.01742 0.0397659
v 0.0129923 0.0174999 0.0428282
v 0.0127546 0.0174946 0.0416894
v 0.0105 0.015 0.0468416
v 0.0129999 0.0175 0.0386034
v 0.0106834 0.0159399 0.0468416
v 0.0107123 0.0160083 0.0468416
v 0.0110281 0.0165367 0.0468416
v 0.0112242 0.0167597 0.0468416
v 0.0114633 0.0169719 0.0468416
v 0.0116029 0.0170732 0.0468416
v 0.0105206 0.0145 0.0481621
v 0.0105167 0.0153923 0.0474494
v 0.0112765 0.0164876 0.0483358
v 0.0113788 0.016488 0.0485264
v 0.0110114 0.0163019 0.0482128
v 0.0112928 0.0163443 0.0486158
v 0.0108995 0.0152251 0.0490245
v 0.011083 0.0158937 0.0488338
v 0.0109926 0.0163756 0.0478457
v 0.0117523 0.0170844 0.0477927
v 0.0116698 0.0168668 0.048224
v 0.0117733 0.0169713 0.0481165
v 0.012246 0.0173101 0.0476252
v 0.011985 0.0173147 0.0472283
v 0.0110085 0.0165258 0.0473085
v 0.0108658 0.0150027 0.0490595
v 0.0106386 0.0153303 0.0484435
v 0.0105842 0.0145 0.0484849
v 0.0106583 0.0145 0.0487171
v 0.0108349 0.0145 0.0490916
v 0.0177051 0.0175 0.0307013
v 0.0297765 0.0175 -0.013
v 0.0270999 0.017559 -0.00952535
v 0.0411098 0.0175 0.0343716
v 0.0232765 0.0175 0.0398564
v 0.0267765 0.0175 0.0389904
v 0.0327765 0.0175 0.0441865
v 0.0381098 0.0175 0.0395677
v 0.0159432 0.0175 0.0392791
v 0.0300193 0.0175628 0.0680118
v 0.0285571 0.0163412 0.066632
v 0.0398359 0.0175 0.0515478
v 0.0145966 0.0176367 0.0209286
v 0.0402654 0.0175 0.000803847
v 0.0494803 0.0175199 0.0211437
v 0.0442765 0.0175 0.0311962
v 0.0482918 0.0175397 0.0329547
v 0.0425265 0.0175 0.0468875
v 0.0308442 0.017619 0.0563636
v 0.0250528 0.017614 0.0574677
v 0.021141 0.0176512 0.0571524
v 0.0127582 0.0174883 0.0471053
v 0.0336515 0.0175 0.0288146
v 0.0267696 0.0175 0.0266615
v 0.032717 0.0175 0.0472589
v 0.0412765 0.0175 0.0450526
v 0.0415265 0.0175 0.0486195
v 0.0344186 0.0178335 0.0574227
v 0.0260765 0.0175 0.0117972
v 0.0443497 0.0175362 0.0399832
v 0.0442839 0.0175248 0.0121308
v 0.0327527 0.0175 0.0170098
v 0.0378265 0.0175 0.013789
v 0.0301098 0.0175 0.00665877
v 0.0162348 0.0175 0.0462794
v 0.0427637 0.0175 0.0245788
v 0.0336991 0.0175212 0.00232598
v 0.0379709 0.017771 0.00187756
v 0.0198143 0.0175 0.0107431
v 0.0208739 0.0175 0.0091125
v 0.0215265 0.0175 0.00818057
v 0.0220867 0.0175 0.00738045
v 0.0207765 0.0175 0.0182058
v 0.0251336 0.0175 0.0170923
v 0.0246098 0.0175 0.00290599
v 0.0222765 0.0175 0.0311962
v 0.02235 0.0175 -0.013
v 0.02235 0.0175 -0.00031016
v 0.0239908 0.0175 0.0497538
v 0.02235 0.0175 0.00700448
v 0.0420265 0.0175 0.0169067
v 0.014375 3.06517e-16 0.0552232
v 0.0244571 0.00125671 0.0630031
v 0.0227621 3.22849e-16 0.06975
v 0.0223125 0.0024 0.0689713
v 0.0227621 0.0145 0.06975
v 0.0154636 0.000893615 0.00772836
v 0.014375 8.51854e-05 -0.014147
v 0.0429283 0.000337043 -0.0147536
v 0.0430104 0.000255006 -0.0146
v 0.0411875 0.000224954 -0.0145758
v 0.03325 0.000255006 -0.0146
v 0.0381875 0.000255006 -0.0146
v 0.0381875 8.51854e-05 -0.014147
v 0.0253125 0.000255006 -0.0146
v 0.03025 0.000255006 -0.0146
v 0.03025 1.45305e-05 -0.0138988
v 0.017375 0.000226049 -0.0145883
v 0.014375 0.000334936 -0.01475
v 0.0223125 0.000255006 -0.0146
v 0.023255 0.000526108 0.0122258
v 0.0331735 -0.000239984 -0.00973405
v 0.0395505 0.000208803 0.000232741
v 0.014375 0.000732233 -0.0152678
v 0.0425287 0.000736719 -0.0152722
v 0.0427373 0.000528056 -0.0150367
v 0.0238125 8.51854e-05 -0.014147
v 0.014375 0.00125 -0.0156651
v 0.014375 0.00185295 -0.0159148
v 0.04141 0.00185534 -0.0159155
v 0.0417737 0.00149171 -0.0157876
v 0.0420113 0.00125407 -0.0156674
v 0.0423021 0.000963303 -0.0154719
v 0.0411842 0.00208123 -0.0159647
v 0.0095 0.0094 -0.0135
v 0.00952139 0.00937861 -0.0138263
v 0.00958518 0.00931481 -0.014147
v 0.0096903 0.0092097 -0.0144567
v 0.00983494 0.00906506 -0.01475
v 0.0100166 0.00888338 -0.0150219
v 0.0102322 0.00866777 -0.0152678
v 0.01075 0.00815 -0.0156651
v 0.011353 0.00754705 -0.0159148
v 0.00955462 0.00946015 0.00839227
v 0.0095 0.0282 -0.0135
v -0.02933 0.0152 -0.00687264
v -0.0292964 0.0151935 -0.00820324
v -0.0299884 0.0152 -0.00927393
v -0.0311058 0.0152 -0.00991557
v -0.03175 0.0152 -0.01
v -0.0323942 0.0152 -0.00991557
v -0.0332873 0.0151919 -0.00948928
v -0.0340804 0.0151971 -0.00845769
v -0.0323759 0.0145882 -0.00375968
v -0.03175 3.19744e-16 -0.00392685
v -0.03325 3.19744e-16 -0.0054586
v -0.0340507 0.0024 -0.00637115
v -0.0281715 0.0168541 0.0677638
v -0.0252809 0.0151954 0.0628358
v -0.0234669 0.0174564 0.0604148
v -0.0260149 0.0152 0.0605011
v -0.0258843 0.0171554 0.0590476
v -0.0287552 0.0151971 0.0599534
v -0.0297814 0.0151971 0.0607491
v -0.0301875 0.0152 0.0616139
v -0.0302764 0.0152 0.0622575
v -0.0295032 0.0176024 0.068233
v -0.0257483 0.0172032 0.0694267
v -0.0250041 0.0165376 0.0702002
v -0.030162 0.0027063 0.0724035
v -0.0434557 0.0145 0.000286874
v -0.0421273 0.0168529 -0.000110782
v -0.0422172 0.0167983 7.88341e-06
v -0.0426151 0.0163595 -0.000350439
v -0.0429807 0.0157619 -0.000530021
v -0.043005 0.0157085 -0.000541946
v -0.0430985 0.0156389 -0.000190292
v -0.0433506 0.0145 -2.28254e-05
v -0.0431229 0.0160361 0.000612155
v -0.0432299 0.0154517 9.16904e-05
v -0.0433105 0.0157092 0.000599572
v -0.0435335 0.0150844 0.000584608
v -0.0435509 0.0150028 0.000583446
v -0.0432822 0.0148675 -0.000212103
v -0.0420187 0.0170522 0.000686229
v -0.0414699 0.0172634 0.000533986
v -0.0415429 0.0172701 0.000718149
v -0.0406687 0.0174736 0.000565848
v -0.0419336 0.016994 -1.56231e-05
v -0.0415011 0.0172329 0.00019683
v -0.040851 0.0174413 0.000516183
v -0.0435887 0.0147434 0.000580908
v -0.0436003 0.0145 0.000580127
v -0.0431379 0.0153981 -0.0125455
v -0.0430332 0.0161648 0.000618169
v -0.0428912 0.0163436 0.000627697
v -0.0426224 0.0166207 0.000645729
v -0.0425186 0.016672 0.000502233
v -0.0436003 0.0024 0.000580127
v -0.0434237 0.0024 0.000205645
v -0.0435776 0.00244275 -0.00640236
v -0.0432997 0.0024 -0.000257254
v -0.0473572 0.00129231 0.00704784
v -0.0551276 3.10862e-16 0.0205459
v -0.0551998 0.0148722 0.0207165
v -0.0528895 0.0174604 0.0217081
v -0.0535176 0.0172538 0.0213819
v -0.0540695 0.0168937 0.0210953
v -0.054346 0.0166206 0.0209518
v -0.0544302 0.01652 0.0209081
v -0.0545619 0.0163419 0.0208397
v -0.0548168 0.0158934 0.0207073
v -0.0548964 0.0157079 0.0206659
v -0.055047 0.0152175 0.0205877
v -0.0550742 0.0150843 0.0205736
v -0.042107 0.0168635 -0.0133069
v -0.0427595 0.0161664 -0.0134157
v -0.0430037 0.015726 -0.0134643
v -0.0420503 0.0169 -0.0136213
v -0.0416809 0.0171387 -0.0132359
v -0.041473 0.0172402 -0.0132013
v -0.0409957 0.0174063 -0.0131217
v -0.0469093 0.0024 0.0435857
v -0.0430104 0.0024 -0.0146
v -0.0411875 0.0024 -0.0146
v -0.0459322 0.0024 0.0370714
v -0.0411875 0.0024 0.00679329
v -0.0451217 0.0024 0.0132214
v -0.0431888 0.00240003 -0.0141763
v -0.0423021 0.0145 -0.0154719
v -0.0425334 0.0145 -0.0152675
v -0.0404629 0.0172501 -0.0141851
v -0.0405793 0.0173045 -0.0140532
v -0.0412715 0.0171845 -0.0141472
v -0.0403628 0.0174401 -0.0135843
v -0.0411147 0.0173788 -0.013546
v -0.0427373 0.0145 -0.0150367
v -0.0428995 0.0150379 -0.0147739
v -0.0420423 0.0162578 -0.014953
v -0.0431206 0.015254 -0.0141984
v -0.0428435 0.0145 -0.0148898
v -0.0427584 0.0157193 -0.0145548
v -0.0417737 0.0145 -0.0157876
v -0.0416554 0.0149934 -0.0158352
v -0.0412263 0.0159066 -0.0156043
v -0.0407629 0.0147938 -0.0159852
v -0.0407499 0.0152348 -0.0159074
v -0.0410861 0.0154554 -0.0158198
v -0.0407272 0.0156467 -0.0157706
v -0.0407227 0.0157096 -0.0157438
v -0.0406811 0.0161664 -0.0154941
v -0.0406597 0.0163441 -0.015366
v -0.0409459 0.016439 -0.0152696
v -0.0406188 0.01662 -0.0151204
v -0.042056 0.0158756 -0.0152933
v -0.0409381 0.0170668 -0.0145516
v -0.0405689 0.0168792 -0.014821
v -0.0425591 0.0164366 -0.0136218
v -0.0421536 0.0167825 -0.0139386
v -0.042046 0.0164987 -0.0146146
v -0.0553842 0.0145 0.021175
v -0.0552888 0.0154572 0.0212264
v -0.0552608 0.0159248 0.0250436
v -0.057001 0.0016904 0.0296156
v -0.0540156 0.017071 0.0217132
v -0.0535675 0.0173133 0.0217167
v -0.0546083 0.0166217 0.0216071
v -0.0553042 0.0145 0.0209204
v -0.0545378 0.0163766 0.0307555
v -0.0542769 0.0166964 0.0306201
v -0.0551595 0.0157498 0.0305411
v -0.0530152 0.0174454 0.0298313
v -0.054154 0.017 0.030017
v -0.0534833 0.01727 0.0302079
v -0.0553702 0.0145 0.0304849
v -0.055267 0.0145 0.030781
v -0.0546743 0.0161646 0.0308264
v -0.0548791 0.0157509 0.0309328
v -0.055085 0.0150217 0.0310397
v -0.0551276 0.0145 0.0310618
v -0.0541008 0.0168666 0.0305286
v -0.0537349 0.0171356 0.0303386
v -0.053537 0.0172443 0.0302358
v -0.0554282 0.0145 0.0302244
v -0.0552895 0.0155826 0.0300784
v -0.0546775 0.01652 0.0297768
v -0.0531216 0.0174055 0.0300201
v -0.0305645 0.0167297 0.0700265
v -0.0312027 0.0168923 0.069689
v -0.0311101 0.017362 0.068903
v -0.0318602 0.0168473 0.0690862
v -0.0316984 0.01699 0.0689708
v -0.031347 0.017228 0.0687202
v -0.030815 0.01744 0.0683408
v -0.0307495 0.0174553 0.0682941
v -0.0314656 0.0149867 0.0708198
v -0.0303473 0.0157031 0.0709038
v -0.0326032 0.0156466 0.0696161
v -0.0327431 0.0150844 0.0697159
v -0.0327909 0.0145 0.06975
v -0.0326093 0.0145 0.0700219
v -0.0325354 0.0145 0.0701136
v -0.0323936 0.0145 0.0702678
v -0.0324143 0.0151755 0.07016
v -0.032012 0.0144844 0.0705863
v -0.0324948 0.0159264 0.0695388
v -0.0325813 0.0157095 0.0696005
v -0.0323314 0.0160183 0.0697261
v -0.0321368 0.0165375 0.0692835
v -0.0322723 0.0163438 0.0693801
v -0.0318517 0.0158529 0.0703986
v -0.0247717 0.0168776 0.0698154
v -0.0241356 0.0168652 0.0696296
v -0.0247926 0.0174516 0.0685232
v -0.0236602 0.0156606 0.0704716
v -0.0234053 0.0145 0.0704834
v -0.0230176 0.0145 0.0701136
v -0.0229437 0.0145 0.0700219
v -0.0247905 0.015046 0.0709557
v -0.0246008 0.0145 0.0709786
v -0.0243727 0.0155818 0.0708141
v -0.0238135 0.0144844 0.0707436
v -0.0233801 0.0157746 0.0701522
v -0.0198574 0.0145081 -0.016
v -0.020495 0.0152076 -0.0159154
v -0.020662 0.0153916 -0.0158644
v -0.0209441 0.0157038 -0.0157479
v -0.0210936 0.0158704 -0.0156687
v -0.021374 0.0161854 -0.0154818
v -0.0216153 0.0164611 -0.0152702
v -0.021974 0.0168859 -0.0148186
v -0.021513 0.0163436 -0.0153667
v -0.0215517 0.0163879 -0.0153315
v -0.0223038 0.017336 -0.0139782
v -0.0222646 0.0172718 -0.0141477
v -0.0222452 0.0172424 -0.0142162
v -0.0220329 0.0169589 -0.0147191
v -0.02235 0.017458 -0.0135
v -0.0249271 0.0024 0.071
v -0.0233605 0.0024 0.0704483
v -0.0230176 3.05311e-16 0.0701136
v -0.0234366 0.0024 0.070507
v -0.0237293 0.00239999 0.0706842
v -0.0244844 0.0024 0.0709605
v -0.0175757 0.0024 0.0234019
v -0.0204702 0.0024 0.0424063
v -0.0181438 0.0024 0.0559647
v -0.0551276 0.0024 0.0310618
v -0.0553042 3.19116e-16 0.0306873
v -0.0554282 3.19034e-16 0.0302244
v -0.0554625 3.01981e-16 0.0298118
v -0.0491136 3.01817e-16 0.0415846
v -0.03325 3.01981e-16 0.0689549
v -0.0327909 3.01981e-16 0.06975
v -0.03325 0.0024 0.0689549
v -0.0316187 0.0024 0.0707944
v -0.0321164 0.0024 0.070507
v -0.0325354 3.05311e-16 0.0701136
v -0.0322107 0.0024 0.0704334
v -0.0423021 0.000963303 -0.0154719
v -0.0425287 0.000736719 -0.0152722
v -0.0427373 0.000528056 -0.0150367
v -0.0429283 0.000337043 -0.0147536
v -0.0430104 0.000255006 -0.0146
v -0.0411842 0.00208123 -0.0159647
v -0.04141 0.00185534 -0.0159155
v -0.0417737 0.00149171 -0.0157876
v -0.0420113 0.00125407 -0.0156674
v -0.0554282 3.20122e-16 0.0213833
v -0.0553042 3.20204e-16 0.0209204
v -0.03025 3.19744e-16 -0.0054586
v -0.0302416 0.0024 -0.00545609
v -0.017375 3.01981e-16 0.0559409
v -0.0164469 3.14888e-16 0.0573903
v -0.023034 0.000412295 0.0109019
v -0.0245099 0.00184615 0.0348011
v -0.0259916 0.00128573 0.0655125
v -0.0242686 3.05766e-16 0.0708429
v -0.0334723 0.00174542 -0.00939562
v -0.0323942 3.19632e-16 -0.00991557
v -0.0303265 -0.000239984 -0.00973405
v -0.03175 3.19744e-16 -0.01
v -0.029394 0.00240015 0.0651669
v -0.0316364 0.0024 0.0707146
v -0.0307998 0.00239998 0.0707686
v -0.023615 0.0024 0.0706051
v -0.0247587 0.0024 0.0706077
v -0.0292407 0.00240008 0.0592721
v -0.03025 2.93099e-16 0.061912
v -0.0308659 0.0024 0.0467846
v -0.0389361 3.05514e-16 0.0571568
v -0.0410637 0.00138462 0.0557177
v -0.0399875 3.05311e-16 0.0569636
v -0.0411875 3.10862e-16 -0.0135
v -0.0381952 3.07953e-16 0.0561294
v -0.03325 1.45305e-05 -0.0138988
v -0.03325 0.000255006 -0.0146
v -0.03025 0.000255006 -0.0146
v -0.0302687 2.9769e-16 0.0622739
v -0.0316707 3.05311e-16 0.0706849
v -0.0320761 3.03352e-16 0.0705343
v -0.0305292 3.0591e-16 0.0704759
v -0.0464368 3.03334e-16 0.0432918
v -0.0480835 3.05694e-16 0.0431178
v -0.0544076 3.21365e-16 0.0308495
v -0.0379738 0.00156198 0.00141985
v -0.0278714 0.0024 0.00824648
v -0.0286715 0.00230006 -0.00712151
v -0.0502315 0.0024 0.0227891
v -0.0440583 0.0024 0.0174509
v -0.0185559 0.0024 0.0308463
v -0.022219 0.0012 0.0606582
v -0.023475 0.0024 0.0532195
v -0.0361098 0.0024 0.0170511
v -0.0340936 0.0024 0.0250875
v -0.0397765 0.0024 0.0234019
v -0.0417 0.0024 0.030351
v -0.0373805 0.0024 0.0302158
v -0.0339077 0.0024 0.00921708
v -0.0297567 0.0024 0.0144795
v -0.0407765 0.0024 0.00608142
v -0.0382765 0.0024 0.0104115
v -0.0464804 0.0024 0.0352185
v -0.0214747 0.0024 0.0174802
v -0.0182765 0.0024 0.0138756
v -0.0357765 0.0024 0.0545788
v -0.0258103 0.0024 0.0419345
v -0.0217765 0.0024 0.0389904
v -0.0267925 0.00240025 0.0589683
v -0.0342505 0.0024 0.0430448
v -0.0393775 0.0024 0.047737
v -0.0382599 0.0024 0.0415932
v -0.0263467 0.0024 0.020819
v -0.0227765 0.0024 0.0216699
v -0.0303569 0.0024 0.0294641
v -0.0127765 0.016 0.00434936
v -0.0162765 0.016 0.00440513
v -0.0411875 0.000255006 -0.0146
v -0.0396875 8.51854e-05 -0.014147
v -0.0381875 0.000255006 -0.0146
v -0.0357188 0.0024 -0.0146
v -0.0352121 0.0024 0.0566904
v -0.0281339 0.0024 -0.0146
v -0.0253125 0.000255006 -0.0146
v -0.0238125 8.51854e-05 -0.014147
v -0.0223125 0.000255006 -0.0146
v -0.0134476 0.00239998 0.0514111
v -0.0210781 0.0024 -0.0146
v -0.0173751 0.000157025 -0.0145152
v -0.014375 0.00185295 -0.0159148
v -0.014375 8.51854e-05 -0.014147
v -0.014375 0.00125 -0.0156651
v -0.014375 0.000334936 -0.01475
v -0.014375 0.000732233 -0.0152678
v -0.0544074 0.0012 0.0203172
v -0.0519148 0.0024 0.0304464
v 0.0269205 0.0024 0.0221649
v 0.0223125 0.0024 0.0155453
v 0.0222201 0.0024 0.0555103
v 0.0329666 0.0024 0.0440538
v 0.0291329 0.0024 0.0440852
v 0.0321845 0.0024 0.00991541
v 0.0373366 0.0024 0.0447903
v 0.0409592 0.0024 0.00629234
v 0.0395429 0.0024 0.026866
v 0.0470687 0.0024 0.0180696
v 0.051167 0.0024 0.034507
v 0.030505 3.24531e-16 -0.00966797
v 0.0345308 0.0151669 -0.00764209
v 0.0297268 0.0024 -0.00598436
v 0.0297605 0.00219999 -0.00911132
v 0.030147 0.014578 -0.00508956
v 0.0297451 0.0151971 -0.00902586
v 0.030505 0.0152 -0.00966797
v 0.0338035 0.00413624 -0.00764082
v 0.0334295 0.0170493 -0.011575
v 0.03175 3.24315e-16 -0.01
v 0.03175 0.0152 -0.01
v 0.0311058 3.24427e-16 -0.00991557
v 0.0311058 0.0152 -0.00991557
v 0.0347443 0.0024 0.0042936
v 0.0347594 0.0024 -0.00469797
v 0.0302719 3.09555e-16 0.0622671
v 0.0301784 0.0024 0.063192
v 0.0301835 0.0151985 0.0612719
v 0.03025 3.1953e-16 0.061912
v 0.0301914 0.00239996 0.0615078
v 0.0269849 0.016433 0.0590609
v 0.0280708 0.0024 0.0587967
v 0.025212 0.0151591 0.0628076
v 0.0311936 3.1915e-16 0.0706862
v 0.0316707 3.19189e-16 0.0706849
v 0.0319879 0.00152728 0.0706099
v 0.0312798 0.0024 0.0708181
v 0.0233605 0.0024 0.0704483
v 0.023615 0.0024 0.0706051
v 0.0237354 0.0024 0.0706871
v 0.0247253 3.18757e-16 0.0708223
v 0.0269196 0.0024 0.0684945
v 0.0176302 0.0014 0.0313102
v 0.0172791 0.00112 0.0564898
v 0.016235 0.00168 0.0572535
v 0.0151386 0.000514286 0.0566771
v 0.0540966 0.000872727 0.0302212
v 0.0544468 0.0012 0.030799
v 0.0550973 3.19508e-16 0.0310816
v 0.0551276 0.0024 0.0310618
v 0.0462036 0.000282353 0.0427876
v 0.0476129 0.00096 0.0434482
v 0.0490182 0.0012 0.041882
v 0.0381875 3.2565e-16 0.0559244
v 0.0384019 0.00110769 0.0566807
v 0.0394973 0.0007 0.0572006
v 0.040987 0.00133333 0.0559494
v 0.0543181 0.00137143 0.0204111
v 0.046125 0.0024 0.00910991
v -0.00409426 0.0282 -0.00599996
v 0.0102273 0.0282002 0.0102668
v -0.00479426 0.0241723 -0.0152
v -0.00479426 0.0241995 -0.0154071
v -0.00477908 0.0241962 -0.0155057
v -0.000395499 0.0248644 -0.00600832
v -0.000315754 0.0249723 -0.00601884
v -0.000281461 0.0249723 -0.00602722
v -0.000144323 0.0249723 -0.00607779
v -8.85163e-05 0.0249723 -0.00610714
v 9.43302e-06 0.0249723 -0.00617383
v 7.71692e-05 0.0249723 -0.00623428
v 0.00013762 0.0249723 -0.00630201
v 0.000272264 0.0249287 -0.00653513
v -0.00479426 0.0241723 -0.00679996
v -0.00479426 0.0241995 -0.00659291
v -0.00479695 0.0253353 -0.00596159
v -0.00479426 0.0243349 -0.00630564
v -0.00479426 0.0245723 -0.00610714
v -0.000488516 0.0241723 -0.00679996
v -3.3919e-05 0.0245509 -0.00617442
v -0.000498201 0.0243828 -0.00625684
v -0.000436077 0.0243563 -0.00629223
v -8.85163e-05 0.0242795 -0.00679996
v -0.000281461 0.0241995 -0.00679996
v 7.71692e-05 0.0244066 -0.00679996
v -2.55664e-05 0.0243324 -0.00667279
v 0.000307804 0.0248956 -0.00679996
v 0.000204304 0.0245723 -0.00679996
v 0.000219371 0.0246304 -0.00657573
v -0.000462071 0.0241727 -0.00679996
v -8.12823e-05 0.0242837 -0.00679996
v -0.000307904 0.0242248 -0.00652818
v 4.66911e-05 0.0243953 -0.00658364
v -5.42064e-05 0.0245274 -0.00627132
v 0.000284224 0.0247652 -0.00679996
v 0.000270697 0.0247201 -0.00679996
v -0.00409426 0.0281723 -0.00599996
v -0.00339653 0.0269809 -0.00599996
v -0.00331931 0.0271736 -0.00599996
v -0.00329429 0.0273797 -0.00599996
v -0.00332315 0.0275853 -0.00599996
v -0.00340393 0.0277766 -0.00599996
v -0.00353121 0.0279406 -0.00599996
v -0.00369641 0.0280663 -0.00599996
v -0.0038884 0.0281453 -0.00599996
v 0.00952139 0.0282214 -0.0138263
v 0.00958518 0.0282852 -0.014147
v 0.0096903 0.0283903 -0.0144567
v 0.00983494 0.0285349 -0.01475
v 0.0102322 0.0289322 -0.0152678
v 0.0100166 0.0287166 -0.0150219
v 0.01075 0.02945 -0.0156651
v 0.011353 0.030053 -0.0159148
v -0.01235 0.0573 0.01
v 0.01235 0.0573 0.01
v 0.01235 0.062 0.01
v -0.0114618 0.062 0.0148249
v -0.007 0.0625077 0.01
v 0.007 0.0621222 0.01
v 0.01435 0.0588 -0.016
v 0.0146114 0.0586153 -0.0159886
v 0.0143515 0.0584152 -0.0159498
v -0.0143515 0.0584152 -0.0159498
v -0.0146114 0.0586153 -0.0159886
v -0.01435 0.0588 -0.016
v -0.0142942 0.0583713 -0.0159374
v -0.0138679 0.05805 -0.015799
v 0.0142942 0.0583713 -0.0159374
v 0.0138679 0.05805 -0.015799
v -0.0137612 0.0579715 -0.0157505
v -0.0134345 0.0577393 -0.0155607
v 0.0125587 0.0573 -0.0145
v -0.0125587 0.0573 -0.0145
v 0.0125903 0.0573016 -0.0145695
v -0.0125903 0.0573016 -0.0145695
v 0.0127709 0.0573511 -0.0148882
v -0.0127709 0.0573511 -0.0148882
v 0.012889 0.0574047 -0.0150507
v -0.012889 0.0574047 -0.0150507
v 0.0130646 0.057501 -0.01525
v -0.0130646 0.057501 -0.01525
v 0.0132861 0.0576395 -0.0154504
v -0.0132861 0.0576395 -0.0154504
v 0.0134345 0.0577393 -0.0155607
v 0.0137612 0.0579715 -0.0157505
v 0.02235 0.037 0.00700448
v 0.02235 0.037 -0.0135
v 0.0223414 0.0371305 0.0070167
v 0.0223159 0.0372588 -0.0135
v 0.0223159 0.0372588 0.00705315
v 0.0222739 0.0373827 0.0071132
v 0.022216 0.0375 -0.0135
v 0.022216 0.0375 0.00719582
v 0.0220571 0.0377071 -0.0135
v 0.0220571 0.0377071 0.00742278
v 0.02185 0.037866 -0.0135
v 0.02185 0.037866 0.00771856
v 0.0216088 0.0379659 -0.0135
v 0.0216088 0.0379659 0.008063
v 0.02135 0.038 -0.0135
v 0.02135 0.038 0.00843263
v 0.0222648 0.037 -0.014147
v 0.0217888 0.0379284 -0.0144768
v 0.0220151 0.037 -0.01475
v 0.0216178 0.037 -0.0152678
v 0.0211 0.037 -0.0156651
v 0.020497 0.037 -0.0159148
v 0.0213654 0.0374445 -0.015498
v 0.0210843 0.0378958 -0.0151758
v 0.0198288 0.0375245 -0.0158788
v 0.019817 0.0379361 -0.0153762
v 0.01985 0.038 -0.015
v 0.0165861 0.038 -0.015
v 0.0164708 0.0379925 -0.0151218
v 0.0158483 0.0378007 -0.015599
v 0.0161807 0.0379264 -0.0153807
v 0.0151265 0.0374404 -0.0158978
v 0.0154781 0.0376235 -0.0157832
v 0.0146114 0.037 -0.0159886
v 0.014684 0.037175 -0.0159843
v 0.0161363 0.0711259 -0.0154061
v 0.0164713 0.0708295 -0.0151213
v 0.0158457 0.0708556 -0.0156005
v 0.0154963 0.0705424 -0.0157755
v 0.0151247 0.070206 -0.0158982
v 0.01435 0.0695 -0.016
v 0.0143581 0.0695074 -0.016
v 0.0150573 0.0701448 -0.0159154
v 0.016508 0.0707922 -0.015084
v 0.0169481 0.038 -0.0145
v 0.0169481 0.0702082 -0.0145
v 0.0169651 0.0701783 -0.0144701
v 0.0172478 0.038 -0.0137765
v 0.0172478 0.0694847 -0.0137765
v 0.01735 0.0687082 -0.013
v 0.01735 0.038 -0.013
v 0.016142 0.0589638 0.0178033
v 0.0155041 0.0596 0.0167814
v 0.0142904 0.0332596 -0.0159366
v 0.0142042 0.0333458 -0.0159151
v 0.0137592 0.0337908 -0.0157495
v 0.0136031 0.0339469 -0.0156668
v 0.0132834 0.0342666 -0.0154483
v 0.013086 0.034464 -0.0152715
v 0.0128871 0.0346629 -0.0150482
v 0.0126876 0.0348624 -0.0147545
v 0.0125903 0.0349597 -0.0145695
v 0.0124083 0.0573 -0.0140366
v 0.01235 0.0352 -0.0135
v 0.01235 0.0573 -0.0135
v 0.0123646 0.0351854 -0.0137699
v 0.0124352 0.0351148 -0.014147
v 0.01735 0.0481238 -0.00341524
v 0.01235 0.0486359 -0.00397301
v 0.01235 0.0481 -0.00342581
v 0.01735 0.0475641 -0.00397301
v 0.01235 0.0475641 -0.00397301
v 0.01235 0.047447 -0.00412882
v 0.01735 0.047447 -0.00412882
v 0.01235 0.047374 -0.00430955
v 0.01735 0.047374 -0.00430955
v 0.01235 0.04735 -0.00450299
v 0.01735 0.04735 -0.00450299
v 0.01235 0.0473767 -0.00469608
v 0.01735 0.0473767 -0.00469608
v 0.01235 0.0474522 -0.00487578
v 0.01735 0.0474522 -0.00487578
v 0.01235 0.0475715 -0.00502994
v 0.01735 0.0475715 -0.00502994
v 0.01235 0.0477265 -0.00514815
v 0.01735 0.0477265 -0.00514815
v 0.01235 0.0479067 -0.00522243
v 0.01735 0.0479067 -0.00522243
v 0.01235 0.0481 -0.00524776
v 0.01735 0.0481 -0.00524776
v 0.01235 0.0482933 -0.00522243
v 0.01735 0.0482933 -0.00522243
v 0.01235 0.0484735 -0.00514815
v 0.01735 0.0484735 -0.00514815
v 0.01235 0.0486285 -0.00502994
v 0.01735 0.0486285 -0.00502994
v 0.01235 0.0487478 -0.00487578
v 0.01735 0.0487478 -0.00487578
v 0.01235 0.0488233 -0.00469608
v 0.01735 0.0488233 -0.00469608
v 0.01235 0.04885 -0.00450299
v 0.01735 0.04885 -0.00450299
v 0.01235 0.048826 -0.00430955
v 0.01735 0.048826 -0.00430955
v 0.01235 0.048753 -0.00412882
v 0.01735 0.048753 -0.00412882
v 0.01735 0.038 0.0141452
v 0.0156817 0.038 0.0180611
v 0.01735 0.0596 0.0141452
v 0.01735 0.0687082 0.0141452
v 0.0104792 0.029736 0.0234835
v 0.01235 0.0296883 0.020086
v 0.00973584 0.0642 0.0141015
v 0.00947575 0.0720003 0.0186332
v 0.0106856 0.072 0.0135881
v 0.01235 0.072 0.0151401
v 0.0124288 0.0642 0.0153711
v 0.0124288 0.0719997 0.0153711
v 0.0124976 0.0719985 0.0160905
v 0.0108619 0.0642 0.0149597
v 0.0103655 0.0632375 0.0148738
v 0.00974498 0.0642 0.0182158
v 0.0119344 0.0641999 0.0166248
v 0.0114638 0.062 0.0162738
v 0.00937858 0.062275 0.0159204
v 0.0111673 0.063523 0.0144775
v 0.01235 0.0623117 0.020086
v 0.01235 0.062 0.0195425
v 0.0127993 0.0303567 0.0106292
v 0.01235 0.0352 0.01
v 0.02235 0.017458 -0.0135
v 0.00954362 0.029163 0.0132293
v 0.0111971 0.0302 0.0117923
v 0.00955179 0.0302 0.0115591
v 0.00925002 0.0302 0.012393
v 0.009282 0.0302 0.0126509
v -0.01235 0.0352 0.01
v -0.01235 0.0302 0.01
v 0.0171312 0.069833 0.0144577
v 0.0169647 0.0701791 0.0146955
v 0.0130836 0.0714838 0.0208357
v 0.0159077 0.0712721 0.016205
v 0.0152071 0.0715832 0.0172055
v 0.0137836 0.0718967 0.0192385
v 0.0165066 0.0707937 0.0153497
v 0.0173254 0.0690915 0.0141803
v 0.0172521 0.0694684 0.0142851
v 0.0070429 0.0626682 0.0275566
v 0.00470594 0.0719993 0.0297177
v 0.00267214 0.0637342 0.0309095
v 0.0220345 0.016961 -0.0147157
v 0.0220149 0.0169366 -0.0147502
v 0.020662 0.0153916 -0.0158644
v 0.020495 0.0152076 -0.0159154
v 0.0198574 0.0145081 -0.016
v 0.021374 0.0161854 -0.0154818
v 0.0210936 0.0158704 -0.0156687
v 0.0209441 0.0157038 -0.0157479
v 0.021974 0.0168859 -0.0148186
v 0.0216153 0.0164611 -0.0152702
v 0.0215256 0.016358 -0.0153558
v 0.0223038 0.017336 -0.0139782
v 0.0222646 0.0172718 -0.0141477
v 0.0222452 0.0172424 -0.0142162
v -0.0128442 0.063 0.0205802
v -0.0123079 0.0620423 0.0199225
v -0.00715893 0.0625045 0.0271472
v -0.0092 0.029 0.0257846
v 0.0092 0.0302 0.015
v 0.0152071 0.0715832 -0.0148822
v 0.01235 0.072 -0.0135
v 0.0123679 0.072 -0.0135089
v 0.013638 0.0719167 -0.0141399
v 0.0148725 0.0716766 -0.0147298
v 0.0149162 0.0716651 -0.0147499
v -0.01235 0.0716651 -0.01475
v -0.01235 0.0712678 -0.0152678
v -0.01235 0.0719148 -0.014147
v -0.01235 0.072 -0.0135
v -0.01235 0.0695 -0.016
v -0.01235 0.070147 -0.0159148
v -0.01235 0.07075 -0.0156651
v 0.00553926 0.0574914 -0.00233917
v 0.00459619 0.0573 -0.00459619
v -0.0057169 0.0573802 0.00238302
v -0.00325 0.0573 -0.00562917
v -0.01235 0.0573 -0.0135
v -0.00459619 0.0573 0.00459619
v -1.38778e-19 0.0573 0.00919239
v 0.00459619 0.0573 0.00459619
v 0.0067108 0.0573029 0.000625383
v -0.0124083 0.0573 -0.0140366
v 0.00325 0.0573 -0.00562917
v 0.00120441 0.0713495 0.00794906
v -0.00441318 0.0573341 0.00441318
v 3.25261e-19 0.0573341 0.00882636
v -0.000102868 0.0575514 0.00841713
v -0.00015688 0.0579071 0.00794902
v 9.94596e-05 0.0623271 0.00791235
v -0.00543013 0.0582508 0.000929221
v 0.00239141 0.0574901 -0.00539718
v 0.00631309 0.0573916 0.00133812
v -0.00552273 0.0574435 -0.00296164
v -0.00160069 0.057366 -0.00594013
v -0.000381885 0.0578373 -0.00567228
v 0.00256102 0.058035 -0.00492497
v -0.00550819 0.0580714 -0.000678871
v -0.00349363 0.0591445 -0.00380391
v -0.00476826 0.0682191 0.00197886
v -0.00154573 0.0587175 -0.00531649
v 0.00564958 0.0576819 0.00178523
v -3.11708e-18 0.0282341 0.00882636
v 0.000122741 0.0283693 0.0084974
v -0.000153116 0.0287473 0.00798411
v -0.000202851 0.0300345 0.00770582
v -1.38778e-17 0.0288173 0.00788582
v 0.00616848 0.0715135 0.00255542
v 0.0075616 0.0719683 0.00281829
v -0.00632095 0.0714419 0.00180894
v 0.00646569 0.0714346 -0.00114857
v 0.00415943 0.0717229 -0.00602178
v -0.000381222 0.0714244 -0.00673028
v -0.00522767 0.0717915 -0.00514951
v -0.00638136 0.0717573 -0.00339972
v -0.00754765 0.0718374 0.000794767
v 0.00321644 0.0712091 -0.00570549
v 0.00539704 0.0696922 0.00158233
v 0.0053379 0.0618186 -0.00158177
v -0.00208094 0.0695336 -0.00540601
v -0.0048036 0.0696922 -0.00292527
v -0.00547516 0.0707331 0.00255192
v -0.00019887 0.0695507 0.00793073
v -2.11733e-06 0.0703661 0.0082296
v 1.89294e-06 0.0710371 0.00888626
v -1.83532e-05 0.0717966 0.0103921
v 2.22045e-18 0.072 0.0120208
v -0.0128442 0.029 0.0205802
v -0.02235 0.037 0.00700448
v -0.0169488 0.0702069 0.0147181
v -0.0165101 0.038 0.0173113
v -0.02135 0.038 0.00843263
v -0.0125527 0.07202 0.0176089
v -0.0152071 0.0715832 0.0172055
v -0.0156833 0.0713956 0.0165255
v -0.0223414 0.0371305 0.0070167
v -0.0223159 0.0372588 0.00705315
v -0.0162721 0.0710116 0.0156846
v -0.0167554 0.070501 0.0149945
v -0.01735 0.0596 0.0141452
v -0.01735 0.0687082 0.0141452
v -0.0173391 0.0689641 0.0141608
v -0.0171065 0.0698921 0.0144929
v -0.0173063 0.0692181 0.0142076
v -0.0172262 0.069561 0.014322
v -0.0216088 0.0379659 0.008063
v -0.02185 0.037866 0.00771856
v -0.0220571 0.0377071 0.00742278
v -0.0222409 0.0374609 0.00716026
v -0.02235 0.037 -0.0135
v -0.0222648 0.037 -0.014147
v -0.0220151 0.037 -0.01475
v -0.0216178 0.037 -0.0152678
v -0.0211 0.037 -0.0156651
v -0.020497 0.037 -0.0159148
v -0.01235 0.072 0.0151401
v -0.0113924 0.0721655 0.0139947
v -0.00849061 0.072 0.0146083
v -0.0104685 0.072 0.0188738
v -0.00484359 0.0347562 0.00297415
v -0.00441318 0.0351659 0.00441318
v -1.51788e-18 0.0351659 0.00882636
v -0.00459619 0.0352 0.00459619
v 2.22045e-18 0.0352 0.00919239
v 0.00449053 0.0349248 0.00356234
v 0.00510238 0.0347331 0.00248883
v 2.64348e-05 0.0347883 0.00801249
v 0.00441318 0.0351659 0.00441318
v 0.00541633 0.0351999 0.00361548
v 0.00390761 0.0351683 -0.00485832
v 0.00182776 0.0351227 -0.00624773
v -0.00215719 0.0349318 -0.00547832
v 0.00601013 0.035142 0.00109648
v -0.00583025 0.0350141 0.00119641
v 0.00188741 0.0347138 -0.00551967
v -0.00539413 0.0350649 -0.00272795
v -0.00525047 0.034341 -0.00209008
v 0.00568932 0.0349714 -0.00156017
v -0.00540231 0.0342224 0.00125745
v 0.00508173 0.034198 0.00213526
v 0.00546122 0.034198 0.000747253
v 0.00431055 0.0341676 -0.00356894
v 0.00141832 0.0342089 -0.0053739
v -1.60021e-17 0.0342 -0.0055
v -0.00301047 0.0341907 -0.00466587
v -0.00342516 0.0291867 -0.00448424
v -0.01235 0.0352 -0.0135
v -0.00672741 0.0708694 0.0299276
v -0.00944345 0.062 0.015343
v -0.0105717 0.0629429 0.0173959
v -0.0147134 0.0717411 -0.0135347
v -0.0135368 0.0710522 -0.015687
v -0.011245 0.0302 0.0118743
v -0.01025 0.0302 0.0114
v -0.00953533 0.02945 0.0116258
v -0.00925002 0.0302 0.012393
v -0.009282 0.0302 0.0126509
v -0.0100433 0.0302 0.0142626
v -0.0105655 0.0294335 0.0197457
v -0.01235 0.0479691 -0.00340205
v -0.01235 0.0488233 -0.00469608
v -0.01235 0.0487478 -0.00487578
v -0.01235 0.0479067 -0.00522243
v -0.01235 0.0481 -0.00524776
v -0.01235 0.0482933 -0.00522243
v -0.01235 0.0477265 -0.00514815
v -0.01235 0.0475715 -0.00502994
v -0.01235 0.0474522 -0.00487578
v -0.01235 0.0486285 -0.00502994
v -0.01235 0.0484735 -0.00514815
v -0.01235 0.0473767 -0.00469608
v -0.01235 0.04735 -0.00450299
v -0.01235 0.047374 -0.00430955
v -0.01235 0.0486359 -0.00397301
v -0.01235 0.048753 -0.00412882
v -0.01235 0.048826 -0.00430955
v -0.01235 0.04885 -0.00450299
v -0.0093339 0.0642 0.0147092
v -0.0100272 0.0642 0.014601
v -0.0101482 0.0642 0.0143671
v -0.0114756 0.0641999 0.0146634
v -0.00923608 0.0642 0.0167712
v -0.0124288 0.0642 0.0153711
v -0.011892 0.0641999 0.0169618
v -0.0105878 0.0642 0.0188187
v -0.01735 0.0484735 -0.00514815
v -0.01735 0.0486285 -0.00502994
v -0.01735 0.0687082 -0.013
v -0.01735 0.04885 -0.00450299
v -0.01735 0.048826 -0.00430955
v -0.01735 0.038 -0.013
v -0.01735 0.04735 -0.00450299
v -0.01735 0.0473767 -0.00469608
v -0.01735 0.0487478 -0.00487578
v -0.01735 0.0488233 -0.00469608
v -0.01735 0.048753 -0.00412882
v -0.01735 0.0486359 -0.00397301
v -0.01735 0.0478002 -0.00355276
v -0.01735 0.0474522 -0.00487578
v -0.01735 0.0475715 -0.00502994
v -0.01735 0.0477265 -0.00514815
v -0.01735 0.0479067 -0.00522243
v -0.01735 0.0481 -0.00524776
v -0.01735 0.0482933 -0.00522243
v -0.0165861 0.038 -0.015
v -0.0167163 0.038 -0.014844
v -0.0170952 0.038 -0.01421
v -0.0173076 0.038 -0.0135025
v -0.0159045 0.0591963 0.0175382
v -0.0126876 0.0348624 -0.0147545
v -0.0128871 0.0346629 -0.0150482
v -0.013086 0.034464 -0.0152715
v -0.0132834 0.0342666 -0.0154483
v -0.0136031 0.0339469 -0.0156668
v -0.0137592 0.0337908 -0.0157495
v -0.0142904 0.0332596 -0.0159366
v -0.0146114 0.037 -0.0159886
v -0.0142042 0.0333458 -0.0159151
v -0.0125903 0.0349597 -0.0145695
v -0.0124352 0.0351148 -0.014147
v -0.0123646 0.0351854 -0.0137699
v -0.017249 0.0694801 -0.0131286
v -0.0171975 0.0696526 -0.0131574
v -0.0171065 0.0698919 -0.0131973
v -0.0170103 0.0700945 -0.0132311
v -0.0167555 0.0705008 -0.0132988
v -0.0165237 0.0707758 -0.0133446
v -0.0160686 0.0711671 -0.0134098
v -0.0164649 0.0708384 -0.0134837
v -0.0153146 0.0715489 -0.0134735
v -0.0165237 0.0690528 -0.0150676
v -0.017249 0.0688368 -0.0137719
v -0.0162752 0.0708468 -0.0143164
v -0.015968 0.0703313 -0.0152297
v -0.0159415 0.0697134 -0.0155012
v -0.0161943 0.0691026 -0.0153661
v -0.0154343 0.0691744 -0.0157972
v -0.0155601 0.0691657 -0.0157451
v -0.0170952 0.0689098 -0.0142097
v -0.0169431 0.0695611 -0.0144388
v -0.0169069 0.0702344 -0.0136958
v -0.0171975 0.0688656 -0.0139444
v -0.0172722 0.0694114 -0.0134967
v -0.0158198 0.0713132 -0.0138359
v -0.0166495 0.069385 -0.0149067
v -0.0153351 0.0697928 -0.015785
v -0.0148526 0.0692047 -0.0159578
v -0.0154732 0.0710517 -0.0149084
v -0.0150903 0.070495 -0.0155314
v -0.014849 0.0695227 -0.015942
v -0.0150379 0.0715279 -0.0142421
v -0.0146133 0.037026 -0.0159884
v -0.0152292 0.0374961 -0.0158683
v -0.01556 0.0376669 -0.0157452
v -0.0156398 0.0377056 -0.0157086
v -0.0160083 0.037866 -0.0155
v -0.0162916 0.0379593 -0.0152896
v -0.0147138 0.0371914 -0.0159832
v -0.0200767 0.0379528 -0.0153985
v -0.01985 0.0375 -0.015866
v -0.0202738 0.0372795 -0.0159517
v -0.0212336 0.037785 -0.0153202
v -0.0210441 0.0379882 -0.0148439
v -0.0213046 0.0378863 -0.0148862
v -0.0219328 0.0377085 -0.0145069
v -0.021678 0.0379323 -0.0139558
v -0.0223159 0.0372588 -0.0135
v -0.022216 0.0375 -0.0135
v -0.0220571 0.0377071 -0.0135
v -0.02185 0.037866 -0.0135
v -0.0216088 0.0379659 -0.0135
v 0.0134791 0.00240001 0.0384396
v 0.017594 0.0024 0.00453902
v 0.017375 0.0024 0.004
v 0.0411875 0.0024 -0.0146
v 0.0353661 0.0024 -0.0146
v 0.0277812 0.0024 -0.0146
v 0.0223125 0.0024 -0.0146
v 0.017375 0.0024 -0.0146
v 0.0471818 0.00102857 0.00692516
v 0.0500578 0.00203077 0.0228877
v 0.0181094 0.0024 0.0201303
v 0.0212944 0.0024 0.0307322
v 0.0204432 0.0024 0.0470733
v 0.0175748 0.0024 0.004
v 0.0219909 0.0024 0.0389904
v 0.0297567 0.0024 0.0144795
v 0.0256722 0.00213333 0.0398058
v 0.0296902 0.0024 0.0316541
v 0.0255667 0.0024 0.00434937
v 0.03325 3.24214e-16 0.0689549
v 0.03325 0.0018 -0.0054586
v 0.0334991 0.0024 0.0184944
v 0.0357765 0.0024 0.0329282
v 0.0372065 0.0024 0.0535104
v 0.034711 0.0024 0.062659
v 0.0411875 0.0024 0.0552067
v 0.0129782 0.016 0.004
v 0.0175748 0.016 0.004
v 0.0177765 0.016 0.00434936
v 0.0144432 0.016 0.00723612
v 0.0412409 0.0024 0.0450526
v 0.0447728 0.0024 0.0362578
v 0.0410855 0.0024 0.0117657
v 0.016973 0.0024 0.0494136
v 0.0152765 0.0024 0.0190718
v 0.0452765 0.0024 0.0138756
v 0.0427765 0.0024 0.0182058
v 0.0452765 0.0024 0.0225359
v 0.0551276 3.15785e-16 0.0205459
v 0.0553042 3.14133e-16 0.0209204
v 0.0554282 3.1405e-16 0.0213833
v 0.0556112 -1.3374e-08 0.0254382
v 0.0553042 3.19116e-16 0.0306873
v 0.0554282 3.19034e-16 0.0302244
v 0.03025 3.25625e-16 -0.0054586
v 0.03175 3.21734e-16 -0.00392685
v 0.0327909 3.19649e-16 0.06975
v 0.0325354 3.19189e-16 0.0701136
v 0.0234366 0.0024 0.070507
v 0.0293792 0.00137143 0.0680251
v 0.0244844 0.0024 0.0709605
v 0.0280168 0.00239999 0.0711129
v 0.0230176 3.19189e-16 0.0701136
v 0.0551276 0.0145 0.0205459
v 0.0552795 0.0145 0.0208569
v 0.05552 0.0154265 0.0244161
v 0.0553842 0.0145 0.021175
v 0.041253 0.0145 -0.015952
v 0.0417737 0.0145 -0.0157876
v 0.0421548 0.0145 -0.0155784
v 0.0423021 0.0145 -0.0154719
v 0.0425334 0.0145 -0.0152675
v 0.043614 0.00257099 -0.0141132
v 0.0427373 0.0145 -0.0150367
v 0.0432975 0.00239994 -0.00768999
v 0.043239 0.0149221 -0.0136535
v 0.0554289 0.0148589 0.0301162
v 0.0326093 0.0145 0.0700219
v 0.0327909 0.0145 0.06975
v 0.030731 0.0147718 0.0709866
v 0.0551276 0.0145 0.0310618
v 0.0553042 0.0145 0.0306873
v 0.0552648 0.0145 0.0307862
v 0.0249271 0.0145 0.071
v 0.0229437 0.0145 0.0700219
v 0.0230176 0.0145 0.0701136
v 0.0234366 0.0145 0.070507
v 0.0238503 0.0144694 0.0707646
v 0.0404563 0.0172668 -0.0141457
v 0.0404629 0.0172501 -0.0141851
v 0.0404846 0.0174594 -0.0134793
v 0.0403628 0.0174401 -0.0135843
v 0.0405689 0.0168792 -0.014821
v 0.0406597 0.0163441 -0.015366
v 0.0413105 0.0161283 -0.0154669
v 0.0407227 0.0157096 -0.0157438
v 0.0407499 0.0152348 -0.0159074
v 0.0407272 0.0156467 -0.0157706
v 0.0547717 0.016591 0.028314
v 0.0541271 0.0170064 0.0213932
v 0.0530453 0.0174531 0.0217861
v 0.0327431 0.0150844 0.0697159
v 0.055085 0.0150217 0.0310397
v 0.0327138 0.0152407 0.069695
v 0.0549201 0.0156459 0.030954
v 0.0326032 0.0156466 0.0696161
v 0.0548791 0.0157509 0.0309328
v 0.0322723 0.0163438 0.0693801
v 0.0324436 0.0158392 0.0697222
v 0.0542769 0.0166964 0.0306201
v 0.0321368 0.0165375 0.0692835
v 0.0541008 0.0168666 0.0305286
v 0.0318602 0.0168473 0.0690862
v 0.0540536 0.0170624 0.0300898
v 0.0537349 0.0171356 0.0303386
v 0.0316984 0.01699 0.0689708
v 0.053537 0.0172443 0.0302358
v 0.0531216 0.0174055 0.0300201
v 0.0307495 0.0174553 0.0682941
v 0.030815 0.01744 0.0683408
v 0.0246241 0.017408 0.068422
v 0.0242279 0.01724 0.0687046
v 0.0240682 0.0171452 0.0688185
v 0.0238448 0.0168782 0.0692775
v 0.0237095 0.0168632 0.0690743
v 0.0235558 0.0167059 0.0691839
v 0.023278 0.0163396 0.069382
v 0.0229766 0.0157232 0.069597
v 0.0228099 0.0150844 0.0697159
v 0.0228001 0.0150211 0.0697229
v 0.0246231 0.0149926 0.0709509
v 0.0240344 0.0164783 0.0700976
v 0.0247428 0.0170939 0.0695632
v 0.0235975 0.0156086 0.0704682
v 0.0232215 0.0159772 0.0697666
v 0.0246138 0.0159403 0.0706271
v 0.0297153 0.0163304 0.0706006
v 0.0257479 0.0176348 0.0680601
v 0.0303898 0.0171158 0.0694973
v 0.0317929 0.0167269 0.0696065
v 0.0309445 0.0173855 0.0686514
v 0.0310067 0.0168893 0.06977
v 0.0307981 0.0163854 0.0703375
v 0.0324565 0.0149994 0.0701535
v 0.0315891 0.0154282 0.0707533
v 0.0317517 0.0157663 0.0704618
v 0.0319957 0.0157581 0.0703045
v 0.0529216 0.0174695 0.0296984
v 0.0551829 0.0156198 0.0305021
v 0.05488 0.0160419 0.0306213
v 0.0554093 0.0148874 0.0213813
v 0.0552035 0.0155576 0.0210701
v 0.0540092 0.017034 0.0213056
v 0.0549194 0.0161866 0.0215626
v 0.0544302 0.01652 0.0209081
v 0.0540695 0.0168937 0.0210953
v 0.0539443 0.0169939 0.0211603
v 0.0535176 0.0172538 0.0213819
v 0.0528895 0.0174604 0.0217081
v 0.0550742 0.0150843 0.0205736
v 0.055047 0.0152175 0.0205877
v 0.0548964 0.0157079 0.0206659
v 0.0548168 0.0158934 0.0207073
v 0.0545619 0.0163419 0.0208397
v 0.0428951 0.0155796 -0.0143765
v 0.042363 0.0161154 -0.0147435
v 0.0405019 0.017493 -0.0132262
v 0.0411867 0.0171999 -0.0142292
v 0.0409957 0.0174063 -0.0131217
v 0.0410818 0.0173909 -0.0134013
v 0.041473 0.0172402 -0.0132013
v 0.0416809 0.0171387 -0.0132359
v 0.0429425 0.0151926 -0.0146603
v 0.0427762 0.0160852 -0.0139344
v 0.0428864 0.0160548 -0.00442274
v 0.0428349 0.0160646 -0.0136332
v 0.0430092 0.0157096 -0.0134573
v 0.043036 0.0156467 -0.0134618
v 0.0432067 0.0150856 -0.0134902
v 0.0419095 0.0169825 -0.0138872
v 0.0411899 0.0150663 -0.0159285
v 0.0419648 0.0154983 -0.0155122
v 0.0420111 0.0153437 -0.0156354
v 0.0419433 0.0163121 -0.0149811
v 0.0411035 0.0167567 -0.0149573
v 0.042107 0.0168635 -0.0133069
v 0.0423095 0.0166929 -0.0133407
v 0.0424958 0.0165198 -0.0132771
v 0.0436003 0.0024 0.000580127
v 0.0434237 0.0024 0.000205645
v 0.0432997 0.0024 -0.000257254
v 0.0432654 0.0145 -0.000669873
v 0.0407627 0.0174577 0.000559566
v 0.040851 0.0174413 0.000516183
v 0.0415011 0.0172329 0.00019683
v 0.0419336 0.016994 -1.56231e-05
v 0.0421273 0.0168529 -0.000110782
v 0.0423857 0.0166207 -0.000237734
v 0.0426151 0.0163595 -0.000350439
v 0.043005 0.0157085 -0.000541945
v 0.0431919 0.0151461 -0.000633788
v 0.0436003 0.0145 0.000580127
v 0.0435887 0.0147434 0.000580908
v 0.0435509 0.0150028 0.000583446
v 0.0435081 0.0152601 0.000623516
v 0.0433105 0.0157092 0.000599572
v 0.0431229 0.0160361 0.000612155
v 0.0428912 0.0163436 0.000627697
v 0.0426224 0.0166207 0.000645729
v 0.0423131 0.0168685 0.000666481
v 0.0420187 0.0170522 0.000686229
v 0.0416062 0.0172459 0.000713899
v 0.0408324 0.0174685 0.0007133
v 0.0434557 0.0145 0.000286874
v 0.0433506 0.0145 -2.28254e-05
v 0.0432493 0.0149256 -0.000395243
v 0.0432591 0.0154742 0.000112508
v 0.0423771 0.0166968 -8.09636e-05
v 0.0426814 0.0163843 -0.000231209
v 0.0277846 0.0173573 0.0689173
v 0.0270636 0.0174782 0.0683763
f 28 1 2
f 1 3 2
f 2 3 4
f 28 5 1
f 28 6 5
f 5 6 7
f 7 6 9
f 6 29 9
f 9 29 8
f 30 10 11
f 10 15 11
f 8 30 11
f 31 12 13
f 12 14 13
f 13 14 10
f 14 15 10
f 19 18 20
f 21 18 22
f 18 28 22
f 22 28 23
f 23 28 24
f 24 28 25
f 25 28 26
f 26 28 27
f 6 28 29
f 8 29 30
f 13 10 31
f 31 10 30
f 30 16 31
f 29 16 30
f 29 28 16
f 32 824 16
f 4 27 2
f 27 28 2
f 28 18 16
f 16 18 32
f 4 3 33
f 38 34 35
f 34 4 35
f 35 4 36
f 4 33 36
f 51 41 40
f 40 41 57
f 41 42 57
f 57 42 43
f 45 46 47
f 46 48 47
f 47 48 38
f 43 49 57
f 49 50 57
f 50 45 57
f 51 40 44
f 52 53 139
f 38 39 47
f 47 39 54
f 56 55 1118
f 52 37 53
f 45 47 57
f 47 54 57
f 52 40 61
f 40 62 61
f 40 57 1200
f 58 56 60
f 60 56 59
f 62 40 1200
f 57 54 63
f 64 65 66
f 67 68 69
f 70 71 72
f 67 73 74
f 73 1315 74
f 74 1315 75
f 1315 1312 75
f 940 77 78
f 77 79 78
f 72 69 70
f 69 68 70
f 70 68 80
f 67 69 73
f 69 81 73
f 73 81 82
f 12 75 78
f 83 84 12
f 84 85 12
f 12 85 64
f 86 80 79
f 80 68 79
f 79 68 78
f 68 87 78
f 78 87 12
f 88 89 75
f 76 90 31
f 90 91 31
f 31 91 12
f 91 92 12
f 12 92 83
f 93 74 94
f 74 95 94
f 75 89 74
f 89 96 74
f 74 96 95
f 97 98 75
f 98 99 75
f 75 99 88
f 64 66 12
f 66 100 12
f 12 100 75
f 100 101 75
f 75 101 97
f 102 103 104
f 103 105 106
f 106 107 93
f 107 108 93
f 93 108 74
f 105 109 106
f 106 109 107
f 104 103 110
f 110 103 106
f 111 112 104
f 112 113 104
f 104 113 102
f 114 111 94
f 94 111 93
f 93 111 106
f 111 104 106
f 106 104 110
f 115 127 116
f 116 117 115
f 117 118 115
f 115 118 119
f 118 121 119
f 121 122 119
f 119 122 112
f 122 123 112
f 112 123 113
f 123 124 113
f 113 124 102
f 124 120 102
f 102 120 103
f 109 105 125
f 125 105 120
f 105 103 120
f 74 108 67
f 108 107 67
f 67 107 125
f 107 109 125
f 126 127 114
f 112 111 119
f 111 115 119
f 114 127 111
f 111 127 115
f 128 129 130
f 129 131 130
f 130 131 132
f 128 130 133
f 130 114 133
f 134 135 136
f 135 130 136
f 136 130 137
f 130 132 137
f 101 100 134
f 100 135 134
f 114 94 133
f 94 95 133
f 133 95 128
f 95 96 128
f 128 96 129
f 96 89 129
f 129 89 131
f 89 88 131
f 131 88 132
f 88 99 132
f 132 99 137
f 99 98 137
f 137 98 136
f 98 97 136
f 136 97 134
f 97 101 134
f 114 130 139
f 116 127 138
f 127 126 138
f 138 126 139
f 126 114 139
f 139 141 142
f 142 141 140
f 140 141 143
f 141 144 143
f 143 144 145
f 144 146 145
f 145 146 147
f 146 148 147
f 147 148 149
f 148 150 149
f 149 150 151
f 150 152 151
f 151 152 153
f 152 1213 153
f 154 155 156
f 806 158 157
f 159 160 161
f 160 162 161
f 162 187 163
f 164 165 166
f 165 167 166
f 163 166 162
f 166 167 162
f 162 167 161
f 167 72 161
f 161 72 71
f 145 147 168
f 170 171 172
f 173 157 174
f 174 157 175
f 157 158 175
f 155 151 153
f 163 142 140
f 169 170 1326
f 173 1326 157
f 176 177 750
f 177 178 750
f 163 140 168
f 140 143 168
f 168 143 145
f 147 149 168
f 149 151 168
f 172 180 170
f 180 181 170
f 181 182 170
f 170 182 410
f 182 183 410
f 410 183 184
f 184 185 410
f 185 186 410
f 410 186 187
f 153 179 155
f 179 188 155
f 155 188 189
f 189 190 155
f 190 191 155
f 155 191 156
f 191 176 156
f 156 176 750
f 187 193 163
f 193 142 163
f 193 187 447
f 447 187 821
f 821 187 194
f 187 186 194
f 194 186 195
f 186 185 195
f 195 185 196
f 185 184 196
f 196 184 197
f 184 183 197
f 197 183 198
f 183 182 198
f 198 182 199
f 182 181 199
f 199 181 192
f 202 203 204
f 203 201 204
f 204 201 205
f 206 207 201
f 201 207 205
f 208 209 201
f 201 209 206
f 210 211 201
f 211 212 201
f 201 212 208
f 203 213 201
f 213 214 201
f 214 153 201
f 201 200 210
f 266 229 216
f 211 210 218
f 229 215 216
f 200 217 210
f 210 217 218
f 204 219 202
f 219 231 202
f 218 216 211
f 216 215 211
f 211 215 212
f 215 220 212
f 212 220 208
f 220 221 208
f 208 221 209
f 221 222 209
f 209 222 206
f 222 223 206
f 206 223 207
f 223 224 207
f 207 224 205
f 224 225 205
f 205 225 204
f 225 243 204
f 204 243 219
f 226 228 227
f 229 230 226
f 225 224 243
f 232 241 233
f 233 241 234
f 241 246 234
f 239 241 235
f 235 236 239
f 236 237 239
f 239 237 238
f 239 240 241
f 223 222 244
f 231 219 243
f 243 224 244
f 244 224 223
f 221 220 244
f 220 215 244
f 215 229 244
f 241 232 235
f 230 228 226
f 244 246 241
f 244 222 221
f 227 245 226
f 245 246 226
f 241 242 231
f 231 242 248
f 231 243 241
f 241 243 247
f 243 244 247
f 247 244 241
f 246 244 226
f 226 244 229
f 750 178 240
f 178 241 240
f 241 178 242
f 178 177 242
f 242 177 248
f 177 176 248
f 248 176 231
f 191 202 176
f 202 231 176
f 249 715 250
f 750 677 251
f 750 240 250
f 240 252 250
f 250 252 249
f 253 252 240
f 240 239 253
f 239 238 253
f 253 238 254
f 238 237 254
f 254 237 255
f 237 236 255
f 236 235 255
f 255 235 256
f 235 232 256
f 256 232 257
f 232 233 257
f 257 233 258
f 233 234 258
f 258 234 259
f 234 246 259
f 246 245 259
f 259 245 260
f 245 227 260
f 260 227 261
f 227 228 261
f 261 228 262
f 228 230 262
f 262 230 263
f 230 229 263
f 229 264 263
f 263 264 617
f 271 272 265
f 265 272 274
f 266 273 229
f 273 264 229
f 273 463 264
f 264 461 617
f 278 277 279
f 268 269 200
f 200 269 217
f 282 283 284
f 284 283 301
f 491 287 288
f 491 276 287
f 265 295 271
f 297 275 295
f 275 298 295
f 295 298 299
f 304 275 297
f 303 287 276
f 285 282 287
f 287 282 288
f 306 295 265
f 295 299 271
f 300 303 291
f 300 286 303
f 296 269 305
f 269 291 305
f 293 304 297
f 273 265 465
f 281 280 200
f 200 280 294
f 279 277 294
f 285 303 286
f 277 286 294
f 286 300 294
f 294 300 200
f 200 300 268
f 270 304 292
f 292 304 302
f 304 293 302
f 293 297 302
f 297 305 290
f 305 291 290
f 291 269 300
f 300 269 268
f 305 307 273
f 307 306 273
f 306 265 273
f 267 273 266
f 269 266 217
f 267 296 273
f 273 296 305
f 216 750 266
f 156 750 216
f 309 308 310
f 322 313 312
f 312 313 314
f 314 313 315
f 315 313 316
f 316 313 317
f 317 313 318
f 318 313 319
f 313 320 319
f 322 321 313
f 308 321 310
f 310 321 311
f 321 322 311
f 322 366 311
f 323 347 325
f 322 312 323
f 375 324 347
f 324 325 347
f 319 320 326
f 323 327 322
f 326 335 319
f 335 328 319
f 319 328 318
f 328 329 318
f 318 329 317
f 329 330 317
f 317 330 316
f 330 331 316
f 316 331 315
f 331 332 315
f 315 332 314
f 332 333 314
f 314 333 312
f 333 347 312
f 312 347 323
f 336 338 337
f 337 338 339
f 341 338 350
f 333 332 348
f 332 331 348
f 348 331 330
f 344 345 343
f 343 346 375
f 347 343 375
f 348 330 335
f 330 329 335
f 335 329 328
f 349 340 350
f 338 347 342
f 342 347 348
f 348 347 333
f 335 334 350
f 350 351 352
f 347 338 343
f 343 338 336
f 343 336 344
f 335 350 348
f 348 350 342
f 342 350 338
f 352 353 350
f 350 353 349
f 335 173 334
f 173 174 334
f 334 174 350
f 350 174 351
f 174 175 351
f 351 175 352
f 175 158 352
f 352 158 353
f 1326 320 169
f 320 313 169
f 310 180 309
f 180 172 309
f 309 172 308
f 172 171 308
f 170 313 171
f 313 321 171
f 171 321 308
f 169 313 170
f 779 355 356
f 366 322 354
f 384 368 1528
f 1416 368 1463
f 1463 368 370
f 380 379 365
f 379 381 365
f 377 376 397
f 397 376 385
f 322 327 354
f 355 779 1482
f 1482 779 391
f 398 390 356
f 366 396 392
f 392 382 393
f 393 382 394
f 394 382 395
f 396 366 354
f 396 399 397
f 354 362 388
f 354 399 396
f 399 354 358
f 402 358 388
f 358 354 388
f 354 327 362
f 356 400 398
f 398 400 401
f 374 388 375
f 375 388 324
f 372 402 791
f 791 402 373
f 359 358 360
f 358 402 360
f 402 372 378
f 367 1482 391
f 391 390 386
f 387 390 398
f 398 401 382
f 382 401 403
f 386 390 387
f 397 399 377
f 361 357 376
f 403 395 382
f 382 397 385
f 399 358 377
f 377 358 376
f 358 359 376
f 359 360 376
f 385 404 386
f 386 404 384
f 384 367 391
f 385 389 404
f 404 389 384
f 380 371 379
f 371 383 379
f 379 383 361
f 383 357 361
f 357 369 389
f 369 370 389
f 362 327 1326
f 327 323 1326
f 325 1326 323
f 326 320 1326
f 1326 173 326
f 173 335 326
f 153 214 179
f 179 214 188
f 214 213 188
f 188 213 189
f 213 203 189
f 189 203 190
f 203 202 190
f 190 202 191
f 406 407 408
f 407 409 408
f 408 409 806
f 409 353 806
f 353 158 806
f 421 410 411
f 412 413 414
f 415 412 416
f 412 414 416
f 416 414 417
f 418 412 419
f 412 415 419
f 419 415 420
f 411 422 421
f 421 422 423
f 415 425 420
f 414 426 417
f 422 427 428
f 428 429 422
f 429 412 422
f 422 412 423
f 412 418 423
f 423 418 430
f 431 432 433
f 433 434 431
f 434 435 431
f 431 435 427
f 435 436 427
f 427 436 428
f 161 70 159
f 70 80 159
f 159 80 432
f 80 437 432
f 432 437 433
f 116 438 117
f 438 439 117
f 117 439 118
f 439 440 118
f 118 440 121
f 440 441 121
f 121 441 122
f 441 442 122
f 122 442 123
f 442 443 123
f 123 443 124
f 443 444 124
f 444 445 124
f 124 445 120
f 445 446 120
f 120 446 125
f 446 68 125
f 125 68 67
f 138 447 116
f 447 438 116
f 193 447 142
f 447 138 142
f 138 139 142
f 69 72 167
f 161 71 70
f 438 447 448
f 448 447 821
f 457 301 449
f 449 301 450
f 301 283 450
f 450 283 451
f 452 283 453
f 453 283 454
f 454 283 455
f 283 282 455
f 282 285 455
f 455 285 456
f 456 285 457
f 285 286 457
f 457 286 301
f 458 459 460
f 460 457 458
f 461 264 462
f 462 264 463
f 463 465 464
f 465 265 466
f 466 265 467
f 265 274 467
f 467 274 468
f 468 274 469
f 469 274 461
f 274 470 461
f 470 471 461
f 471 617 461
f 600 472 591
f 472 471 591
f 622 600 473
f 478 480 477
f 477 480 476
f 478 479 480
f 482 483 484
f 483 486 485
f 481 483 487
f 501 488 489
f 475 476 492
f 492 476 493
f 494 489 491
f 489 490 491
f 486 483 495
f 483 474 495
f 495 474 496
f 483 480 487
f 487 480 497
f 482 498 483
f 498 499 483
f 483 499 501
f 499 500 501
f 494 493 489
f 493 476 489
f 489 476 501
f 476 480 501
f 501 480 483
f 496 474 502
f 474 503 502
f 497 504 487
f 504 505 487
f 474 483 503
f 483 481 503
f 503 481 505
f 481 487 505
f 507 508 758
f 758 508 506
f 508 496 506
f 496 502 506
f 509 270 276
f 509 276 491
f 491 490 509
f 509 490 510
f 490 489 510
f 489 488 510
f 510 488 511
f 488 501 511
f 501 500 511
f 511 500 512
f 500 499 512
f 512 499 513
f 499 514 513
f 499 498 514
f 498 482 514
f 514 482 515
f 482 484 515
f 515 484 516
f 484 483 516
f 483 485 516
f 516 485 517
f 485 486 517
f 486 495 517
f 517 495 518
f 495 496 518
f 518 496 508
f 497 480 521
f 521 480 479
f 519 561 477
f 477 561 478
f 561 520 478
f 478 520 479
f 520 521 479
f 477 476 519
f 476 475 519
f 519 475 522
f 522 475 523
f 475 492 523
f 523 492 524
f 492 493 524
f 524 493 539
f 493 494 539
f 539 494 525
f 494 491 525
f 525 491 288
f 532 527 528
f 695 526 734
f 526 720 734
f 503 530 502
f 530 531 502
f 506 502 531
f 720 726 713
f 503 505 530
f 505 504 530
f 530 504 528
f 528 504 532
f 547 533 534
f 535 559 536
f 561 519 522
f 522 539 562
f 525 288 539
f 522 523 539
f 523 524 539
f 288 537 539
f 539 537 562
f 537 563 562
f 540 544 541
f 544 543 541
f 543 545 541
f 497 521 543
f 546 533 547
f 547 534 541
f 541 534 540
f 551 547 548
f 82 547 549
f 549 547 550
f 550 547 551
f 551 548 552
f 552 548 553
f 541 558 547
f 558 548 547
f 535 560 559
f 560 557 559
f 557 556 559
f 556 558 559
f 559 558 542
f 542 558 545
f 555 554 556
f 554 548 556
f 556 548 558
f 558 541 545
f 561 522 562
f 521 520 543
f 520 561 543
f 543 561 545
f 561 562 545
f 562 563 545
f 545 563 542
f 563 537 542
f 542 537 559
f 537 288 559
f 559 288 536
f 288 538 536
f 569 270 509
f 514 515 565
f 568 569 570
f 564 565 571
f 565 508 571
f 515 516 565
f 565 516 517
f 566 570 565
f 565 517 508
f 508 517 518
f 509 510 569
f 510 511 569
f 569 511 570
f 511 512 570
f 570 512 513
f 570 513 565
f 565 513 514
f 572 573 574
f 575 576 577
f 580 574 581
f 581 574 582
f 574 579 582
f 582 579 583
f 573 584 576
f 585 586 576
f 576 586 577
f 574 580 572
f 575 270 576
f 578 574 587
f 574 588 587
f 577 590 575
f 590 270 575
f 573 576 574
f 574 576 588
f 576 589 588
f 594 593 595
f 595 593 596
f 596 593 597
f 597 593 598
f 607 602 603
f 603 604 607
f 604 605 607
f 605 606 607
f 606 608 607
f 607 608 614
f 609 610 611
f 612 613 611
f 611 613 609
f 600 614 599
f 614 611 607
f 607 611 601
f 611 610 601
f 591 471 592
f 471 470 592
f 614 592 593
f 592 470 593
f 591 592 600
f 600 592 614
f 614 593 611
f 611 593 612
f 593 594 612
f 257 258 616
f 258 259 616
f 263 617 262
f 617 261 262
f 618 619 626
f 619 620 626
f 626 620 252
f 620 621 252
f 252 253 254
f 623 624 622
f 624 625 618
f 600 624 472
f 255 256 626
f 254 255 252
f 255 626 252
f 622 624 600
f 259 260 616
f 260 261 616
f 261 617 616
f 615 616 471
f 616 617 471
f 256 257 626
f 257 616 626
f 626 616 618
f 618 616 624
f 616 615 624
f 624 615 472
f 615 471 472
f 598 593 470
f 470 274 598
f 271 299 590
f 271 590 272
f 299 298 590
f 298 275 590
f 275 304 590
f 590 304 270
f 274 272 598
f 272 590 598
f 598 590 597
f 590 577 597
f 597 577 596
f 577 586 596
f 596 586 595
f 586 585 595
f 595 585 594
f 585 576 594
f 576 584 594
f 594 584 612
f 584 573 612
f 612 573 613
f 573 572 613
f 613 572 609
f 572 580 609
f 609 580 610
f 580 581 610
f 610 581 601
f 581 582 601
f 601 582 607
f 607 582 602
f 582 583 602
f 602 583 603
f 570 576 568
f 576 270 568
f 270 569 568
f 588 589 566
f 589 576 566
f 566 576 570
f 566 565 588
f 565 567 588
f 73 82 627
f 82 549 627
f 627 549 628
f 549 550 628
f 628 550 629
f 550 551 629
f 551 552 629
f 629 552 630
f 552 553 630
f 630 553 631
f 553 632 631
f 555 556 633
f 556 557 633
f 633 557 634
f 557 560 634
f 634 560 640
f 553 548 632
f 548 554 632
f 632 554 635
f 554 555 635
f 635 555 636
f 555 633 636
f 637 638 535
f 638 639 535
f 535 639 560
f 639 640 560
f 282 284 288
f 284 641 288
f 288 641 538
f 641 637 538
f 538 637 536
f 637 535 536
f 642 622 473
f 643 681 644
f 619 645 643
f 619 643 620
f 643 644 620
f 620 644 621
f 644 249 621
f 621 249 252
f 619 618 645
f 618 625 645
f 645 625 646
f 625 624 646
f 646 624 647
f 622 642 623
f 642 647 623
f 623 647 624
f 151 648 154
f 583 579 651
f 579 652 651
f 651 652 708
f 579 574 652
f 574 578 652
f 652 578 653
f 578 587 653
f 653 587 654
f 587 588 654
f 654 588 567
f 655 526 759
f 651 759 583
f 759 526 583
f 583 526 603
f 526 695 603
f 656 657 658
f 657 603 658
f 658 603 695
f 473 600 688
f 600 599 688
f 688 599 659
f 599 614 659
f 614 608 659
f 659 608 660
f 661 704 662
f 603 657 604
f 657 661 604
f 604 661 605
f 661 662 605
f 605 662 606
f 662 660 606
f 606 660 608
f 504 497 532
f 532 497 543
f 540 527 544
f 527 532 544
f 544 532 543
f 533 663 534
f 663 664 534
f 534 664 540
f 664 665 540
f 540 665 527
f 665 666 527
f 527 666 667
f 546 547 668
f 668 669 546
f 669 670 546
f 546 670 533
f 670 671 533
f 533 671 663
f 547 82 668
f 668 82 81
f 680 686 461
f 567 565 672
f 565 564 672
f 672 564 673
f 564 571 673
f 673 571 507
f 571 508 507
f 674 458 675
f 458 457 675
f 752 168 676
f 168 251 676
f 251 677 676
f 678 715 679
f 679 715 680
f 249 680 715
f 249 644 680
f 644 681 680
f 699 683 682
f 684 685 699
f 699 685 683
f 660 662 687
f 646 647 690
f 643 645 689
f 645 646 689
f 473 690 642
f 642 690 647
f 660 687 659
f 659 687 688
f 680 690 473
f 680 473 686
f 473 688 686
f 674 675 710
f 691 692 693
f 710 723 674
f 723 738 674
f 674 738 692
f 692 738 693
f 697 709 695
f 709 698 695
f 695 698 694
f 695 694 696
f 682 744 699
f 744 700 699
f 711 684 746
f 746 684 701
f 692 702 703
f 656 459 657
f 459 458 657
f 657 458 661
f 458 704 661
f 458 674 692
f 692 703 458
f 703 704 458
f 702 705 703
f 506 706 655
f 706 707 655
f 758 567 672
f 567 758 654
f 758 708 654
f 654 708 653
f 672 673 758
f 673 507 758
f 653 708 652
f 287 303 709
f 709 303 722
f 286 710 301
f 710 711 301
f 710 301 711
f 270 712 276
f 712 270 759
f 270 292 759
f 759 292 712
f 292 276 712
f 713 531 276
f 276 292 713
f 289 713 292
f 303 276 531
f 713 289 303
f 713 303 531
f 151 281 648
f 281 200 648
f 648 200 154
f 154 200 155
f 155 200 151
f 200 281 151
f 269 714 268
f 268 714 269
f 273 465 716
f 715 463 650
f 650 463 716
f 463 273 716
f 273 649 266
f 650 649 273
f 650 273 649
f 273 266 649
f 154 217 750
f 217 266 750
f 217 154 218
f 154 156 218
f 156 216 218
f 289 717 303
f 290 718 289
f 718 717 289
f 290 291 718
f 717 718 303
f 718 291 303
f 719 289 720
f 289 292 720
f 297 720 302
f 720 292 302
f 290 721 297
f 721 720 297
f 290 289 721
f 721 289 719
f 277 710 286
f 277 301 710
f 286 722 710
f 286 300 722
f 722 300 723
f 300 286 723
f 723 286 710
f 724 276 530
f 530 276 531
f 531 276 713
f 276 303 713
f 725 713 303
f 725 303 276
f 725 276 724
f 720 304 726
f 726 304 529
f 529 304 526
f 720 526 304
f 678 294 727
f 280 728 294
f 728 727 294
f 294 678 280
f 678 728 280
f 729 733 265
f 274 745 265
f 745 729 265
f 274 265 745
f 733 745 265
f 269 296 679
f 679 296 730
f 267 730 296
f 269 731 649
f 269 649 266
f 649 730 266
f 266 730 267
f 731 269 679
f 730 273 693
f 273 265 693
f 693 265 691
f 273 732 265
f 732 691 265
f 730 732 273
f 297 721 305
f 721 718 305
f 306 733 297
f 733 721 297
f 307 733 306
f 733 307 305
f 305 718 733
f 735 297 734
f 297 295 734
f 295 306 734
f 734 306 735
f 297 735 306
f 737 736 300
f 736 737 300
f 291 269 738
f 291 738 269
f 740 739 168
f 168 739 163
f 166 740 164
f 164 740 168
f 740 166 739
f 166 163 739
f 531 713 506
f 506 713 706
f 713 726 706
f 706 726 529
f 713 697 720
f 697 695 720
f 695 734 720
f 741 742 528
f 742 697 528
f 528 697 530
f 697 713 530
f 742 743 744
f 721 735 698
f 735 734 698
f 698 709 721
f 742 744 709
f 718 717 722
f 722 717 709
f 718 721 717
f 717 721 709
f 722 709 460
f 682 460 744
f 744 460 709
f 729 734 733
f 695 745 658
f 734 735 733
f 733 735 721
f 729 745 734
f 658 745 656
f 745 733 656
f 733 718 656
f 656 718 459
f 718 722 459
f 459 722 460
f 738 736 679
f 710 675 711
f 679 730 738
f 730 693 738
f 736 738 710
f 738 723 710
f 686 705 702
f 679 732 730
f 679 736 678
f 678 736 710
f 747 748 746
f 748 678 746
f 746 678 711
f 678 710 711
f 678 748 751
f 751 748 749
f 727 679 678
f 678 679 715
f 679 649 715
f 649 716 715
f 650 750 250
f 250 715 650
f 751 168 678
f 678 168 728
f 728 168 648
f 679 714 731
f 714 649 731
f 649 650 716
f 679 727 714
f 727 728 714
f 714 728 648
f 650 649 676
f 649 714 676
f 648 168 752
f 752 168 751
f 714 648 676
f 676 648 752
f 753 165 164
f 251 154 750
f 168 151 251
f 151 154 251
f 164 168 753
f 168 754 753
f 753 754 755
f 754 756 755
f 755 756 757
f 506 712 758
f 759 712 655
f 655 712 506
f 749 752 751
f 701 747 746
f 743 700 744
f 528 527 741
f 527 667 741
f 649 679 730
f 723 710 722
f 724 530 725
f 530 713 725
f 719 720 721
f 457 460 456
f 460 682 456
f 456 682 455
f 455 682 454
f 682 683 454
f 454 683 453
f 683 685 453
f 453 685 452
f 685 684 452
f 452 684 283
f 675 457 711
f 457 449 711
f 449 450 711
f 450 451 711
f 451 283 711
f 711 283 684
f 722 303 709
f 303 285 709
f 287 709 285
f 461 462 680
f 702 692 691
f 679 680 732
f 680 462 732
f 462 463 732
f 463 464 732
f 464 465 732
f 465 466 732
f 732 466 691
f 466 467 691
f 467 468 691
f 468 469 691
f 691 469 702
f 461 686 469
f 469 686 702
f 465 463 716
f 463 715 716
f 785 772 778
f 773 774 775
f 775 774 776
f 776 774 777
f 778 779 425
f 425 779 780
f 779 781 780
f 780 781 782
f 781 783 782
f 782 783 771
f 783 777 771
f 771 777 774
f 784 785 390
f 391 390 785
f 364 788 787
f 787 788 786
f 789 786 790
f 786 788 790
f 790 788 792
f 788 791 792
f 792 791 406
f 791 793 406
f 406 793 802
f 374 373 762
f 1375 794 797
f 794 795 797
f 795 796 797
f 798 801 799
f 799 801 800
f 800 801 802
f 808 809 810
f 1349 814 815
f 100 66 820
f 44 40 820
f 152 150 139
f 150 148 139
f 148 146 139
f 146 144 139
f 144 141 139
f 130 52 139
f 100 820 135
f 820 40 135
f 135 40 130
f 40 52 130
f 192 152 55
f 56 58 821
f 821 58 448
f 58 54 448
f 54 39 448
f 448 39 35
f 35 39 38
f 152 1209 55
f 55 1209 139
f 198 199 197
f 197 199 196
f 196 199 195
f 199 821 195
f 195 821 194
f 56 821 55
f 821 1037 55
f 55 1037 192
f 1037 199 192
f 19 822 18
f 822 823 18
f 18 823 32
f 823 824 32
f 17 16 824
f 16 17 76
f 16 76 31
f 51 825 41
f 825 826 41
f 41 826 42
f 826 827 42
f 42 827 43
f 827 828 43
f 43 828 49
f 828 829 49
f 49 829 50
f 829 830 50
f 50 830 45
f 830 831 45
f 45 831 46
f 46 831 48
f 831 832 48
f 48 832 38
f 832 833 38
f 34 38 833
f 834 836 822
f 836 76 822
f 822 76 823
f 835 836 834
f 835 837 836
f 836 837 838
f 76 17 823
f 823 17 824
f 839 834 19
f 834 822 19
f 843 852 844
f 845 853 846
f 833 847 34
f 853 848 849
f 852 839 850
f 826 825 827
f 825 840 827
f 829 828 840
f 840 828 827
f 850 844 852
f 852 843 846
f 843 851 846
f 846 851 845
f 831 830 840
f 840 830 829
f 833 832 840
f 840 832 831
f 841 852 842
f 852 846 853
f 853 845 848
f 854 849 840
f 840 849 833
f 833 849 847
f 849 855 847
f 849 856 855
f 841 842 840
f 840 842 854
f 842 852 854
f 852 853 854
f 854 853 849
f 825 836 840
f 836 838 840
f 837 840 838
f 852 841 837
f 837 841 840
f 837 835 852
f 835 834 852
f 852 834 839
f 839 19 850
f 19 20 850
f 850 20 844
f 849 25 856
f 25 26 856
f 20 18 844
f 18 21 844
f 844 21 843
f 21 22 843
f 843 22 851
f 22 23 851
f 851 23 845
f 23 24 845
f 845 24 848
f 24 25 848
f 848 25 849
f 4 34 27
f 34 847 27
f 27 847 26
f 847 855 26
f 26 855 856
f 66 65 820
f 65 857 820
f 836 858 76
f 76 858 90
f 858 859 90
f 90 859 91
f 859 860 91
f 91 860 92
f 860 861 92
f 92 861 83
f 861 862 83
f 83 862 84
f 862 863 84
f 84 863 85
f 863 864 85
f 85 864 64
f 864 865 64
f 64 865 65
f 865 857 65
f 448 35 866
f 35 36 866
f 866 36 867
f 867 36 868
f 36 33 868
f 868 33 869
f 1 870 871
f 869 33 871
f 33 3 871
f 871 3 1
f 870 1 872
f 1 5 872
f 9 8 873
f 872 5 873
f 5 7 873
f 873 7 9
f 8 11 873
f 873 11 87
f 11 15 87
f 15 14 87
f 87 14 12
f 874 875 879
f 875 876 879
f 877 874 878
f 874 879 878
f 880 881 882
f 883 884 885
f 885 880 883
f 880 882 883
f 883 882 886
f 882 887 886
f 882 888 887
f 888 889 887
f 887 889 890
f 889 891 890
f 892 893 894
f 893 895 894
f 894 895 896
f 895 897 896
f 896 897 898
f 897 899 898
f 898 899 900
f 899 901 900
f 900 901 902
f 901 903 902
f 902 903 904
f 903 891 904
f 904 891 905
f 891 889 905
f 906 907 908
f 907 909 908
f 908 909 910
f 910 909 911
f 909 912 911
f 911 912 913
f 912 914 913
f 913 914 915
f 914 916 915
f 915 916 917
f 916 918 917
f 917 918 919
f 918 920 919
f 919 920 921
f 907 922 909
f 922 923 909
f 909 923 912
f 912 923 914
f 914 923 916
f 916 923 918
f 918 923 920
f 922 924 923
f 924 928 923
f 928 929 923
f 924 925 928
f 925 926 928
f 926 927 928
f 927 77 928
f 77 930 928
f 928 930 929
f 930 931 929
f 929 931 923
f 931 932 923
f 933 932 934
f 932 931 934
f 934 931 936
f 938 935 930
f 930 935 931
f 935 936 931
f 940 937 930
f 937 938 930
f 930 77 940
f 934 936 943
f 936 935 943
f 943 935 944
f 944 935 945
f 935 938 945
f 937 940 881
f 881 940 939
f 880 946 881
f 946 947 881
f 938 937 945
f 937 881 945
f 945 881 948
f 881 947 948
f 943 941 934
f 941 942 934
f 934 942 933
f 942 949 933
f 933 949 950
f 949 951 950
f 951 952 950
f 950 952 953
f 952 954 953
f 954 955 953
f 953 955 956
f 940 78 939
f 78 959 939
f 905 889 959
f 889 888 959
f 959 888 939
f 888 882 939
f 939 882 881
f 959 960 905
f 960 961 905
f 905 961 904
f 961 962 904
f 904 962 902
f 962 963 902
f 902 963 900
f 963 964 900
f 900 964 898
f 964 965 898
f 898 965 896
f 965 966 896
f 896 966 894
f 966 967 894
f 894 967 892
f 967 968 892
f 969 970 971
f 970 968 971
f 971 968 972
f 968 967 972
f 973 975 974
f 973 976 975
f 976 977 975
f 977 976 978
f 976 979 978
f 978 979 980
f 979 981 980
f 980 981 982
f 981 983 982
f 982 983 984
f 983 985 984
f 984 985 986
f 985 987 986
f 986 987 988
f 987 989 988
f 988 989 990
f 989 991 990
f 990 991 992
f 991 993 992
f 992 993 994
f 993 995 994
f 994 995 996
f 995 997 996
f 996 997 998
f 997 999 998
f 998 999 1000
f 999 1001 1000
f 1000 1001 1002
f 1001 1003 1002
f 1002 1003 1004
f 1003 1005 1004
f 1004 1005 1006
f 1005 1007 1006
f 1006 1007 1008
f 1007 1009 1008
f 1008 1009 1010
f 1009 1011 1010
f 1010 1011 974
f 1011 973 974
f 958 957 1014
f 1013 1012 957
f 957 1012 1014
f 933 950 932
f 950 953 932
f 932 953 923
f 1012 921 956
f 921 920 956
f 956 920 923
f 956 923 953
f 1007 955 1009
f 955 1015 1009
f 1007 1005 955
f 1005 1003 955
f 955 1003 1001
f 1001 999 955
f 999 997 955
f 955 997 956
f 997 995 956
f 956 995 993
f 993 991 956
f 991 989 956
f 956 989 987
f 987 985 956
f 985 983 956
f 956 983 1012
f 983 981 1012
f 1012 981 979
f 979 976 1012
f 976 973 1012
f 1012 973 1014
f 1014 973 1015
f 973 1011 1015
f 1015 1011 1009
f 1016 1017 1034
f 1027 1018 1019
f 1019 1018 1020
f 1018 1031 1020
f 1020 1031 1021
f 1031 1022 1021
f 1021 1022 1023
f 1022 1028 1023
f 1023 1028 1024
f 1028 1019 1024
f 1027 1019 1028
f 1025 1031 1026
f 1031 1018 1026
f 1028 1022 1031
f 1029 1030 1027
f 1027 1030 1018
f 1018 1030 1026
f 1026 1031 1025
f 1031 1029 1028
f 1028 1029 1027
f 1034 1017 1032
f 1033 876 875
f 1006 1008 875
f 975 977 1035
f 988 969 986
f 969 984 986
f 970 996 998
f 998 1000 970
f 1000 1002 970
f 970 1002 875
f 1002 1004 875
f 875 1004 1006
f 1008 1010 875
f 1010 974 875
f 875 974 1033
f 974 975 1033
f 1033 975 1032
f 975 1035 1032
f 1032 1035 1034
f 977 978 1035
f 978 980 1035
f 1035 980 969
f 980 982 969
f 969 982 984
f 988 990 969
f 990 992 969
f 969 992 970
f 992 994 970
f 970 994 996
f 400 1036 907
f 400 907 401
f 907 906 401
f 401 906 403
f 1037 1038 199
f 199 1038 821
f 1038 1039 821
f 821 1039 1037
f 1039 1040 1037
f 1040 1041 1037
f 1035 1042 1034
f 1042 1043 1034
f 1016 1046 1017
f 1046 1032 1017
f 1053 879 1030
f 1053 1030 1033
f 1030 1029 1033
f 1033 1029 876
f 1029 1031 876
f 1031 1026 876
f 876 1026 879
f 879 1026 1030
f 1044 1045 958
f 957 1046 1013
f 1046 1016 1013
f 1013 1016 1012
f 1047 1048 1046
f 1048 1049 1046
f 958 1045 957
f 958 1014 1015
f 392 393 921
f 906 908 910
f 910 911 906
f 911 913 906
f 906 913 915
f 921 393 919
f 393 394 919
f 919 394 917
f 394 395 917
f 917 395 915
f 395 403 915
f 915 403 906
f 1016 310 311
f 957 1045 1046
f 1045 1050 1046
f 1046 1050 1047
f 311 366 1016
f 1015 1051 958
f 1051 1052 958
f 958 1052 1044
f 366 392 1016
f 921 1012 392
f 1012 1016 392
f 1046 1053 1032
f 1032 1053 1033
f 1055 1053 1054
f 1054 1053 1046
f 1056 1057 924
f 1058 1059 927
f 927 1059 77
f 1059 1060 77
f 77 1060 79
f 1066 1061 926
f 1061 1062 926
f 926 1062 927
f 1062 1063 927
f 927 1063 1058
f 924 1057 925
f 1057 1064 925
f 1064 1065 925
f 925 1065 926
f 1065 1066 926
f 922 907 1036
f 1036 1067 922
f 1067 1068 922
f 922 1068 924
f 1068 1069 924
f 924 1069 1056
f 1070 1071 1072
f 1202 1072 1055
f 153 1213 201
f 1073 201 1213
f 1213 152 1212
f 1074 192 1016
f 1016 192 310
f 192 181 310
f 310 181 180
f 864 44 865
f 44 820 865
f 865 820 857
f 860 859 825
f 859 858 825
f 825 858 836
f 864 863 44
f 863 862 44
f 44 862 51
f 862 861 51
f 825 51 860
f 860 51 861
f 942 1047 949
f 1047 1050 949
f 949 1050 951
f 1050 952 951
f 1050 1045 952
f 1045 1044 952
f 952 1044 954
f 1015 955 1051
f 955 954 1051
f 1051 954 1052
f 954 1044 1052
f 942 941 1047
f 941 1075 1047
f 1047 1075 1048
f 1076 1021 1077
f 1021 1023 1077
f 1077 1023 1078
f 1078 1023 1079
f 1023 1049 1079
f 1079 1049 1080
f 1049 1048 1080
f 1080 1048 1075
f 1019 1046 1024
f 1046 1049 1024
f 1049 1023 1024
f 1081 1080 1082
f 1080 1075 1082
f 1082 1075 941
f 1083 1084 1076
f 1076 1077 1083
f 1077 1078 1083
f 1083 1078 1081
f 1078 1079 1081
f 1081 1079 1080
f 946 1085 947
f 1085 1086 947
f 944 945 1087
f 1087 945 1086
f 945 948 1086
f 1086 948 947
f 944 1087 943
f 1087 1082 943
f 943 1082 941
f 879 1053 878
f 1053 1055 878
f 878 1055 1072
f 1088 1089 970
f 893 892 1109
f 1091 1108 1092
f 1090 1093 874
f 1093 1094 874
f 874 1094 875
f 1094 1095 875
f 875 1095 1096
f 1109 1091 893
f 893 1091 1097
f 1091 1092 1097
f 1092 1108 874
f 874 1108 1090
f 970 1089 968
f 1089 1098 968
f 968 1098 892
f 1098 1106 892
f 892 1106 1109
f 875 1096 970
f 970 1096 1088
f 1094 1093 1100
f 1094 1100 1101
f 1100 1102 1101
f 1102 1090 1103
f 1102 1100 1090
f 1100 1093 1090
f 1091 1109 1108
f 1098 1089 1106
f 1089 1088 1106
f 1088 1096 1107
f 1096 1095 1107
f 1107 1095 1102
f 1090 1108 1105
f 1113 1108 1109
f 1109 1106 1110
f 1106 1088 1111
f 1103 1090 1105
f 1105 1108 1112
f 1112 1108 1113
f 1113 1109 1110
f 1088 1107 1116
f 1103 1105 1104
f 1110 1106 1115
f 1104 1105 1114
f 1105 1112 1114
f 1113 1110 1115
f 1111 1088 1133
f 1133 1088 1116
f 1133 1116 1104
f 1104 1116 1103
f 1116 1107 1103
f 1103 1107 1102
f 1102 1095 1101
f 1101 1095 1094
f 55 139 53
f 55 53 1117
f 53 37 1117
f 1117 37 1118
f 37 52 1118
f 1118 52 1119
f 52 61 1120
f 52 1120 1119
f 1120 1121 1119
f 1120 60 1121
f 60 59 1121
f 1121 59 1119
f 59 56 1119
f 1119 56 1118
f 1118 55 1117
f 1171 1124 1130
f 1099 1123 1122
f 1122 1125 1132
f 1125 1126 1131
f 1127 1128 1134
f 1128 1129 1134
f 1129 1130 1134
f 1134 1130 1135
f 1130 1124 1135
f 1099 1122 1132
f 1135 1124 1113
f 1132 1125 1133
f 1125 1131 1133
f 1131 1127 1133
f 1133 1127 1134
f 1137 1114 1138
f 1138 1114 1139
f 1114 1136 1139
f 1139 1136 1140
f 1136 1124 1140
f 1140 1124 1141
f 1145 1142 1070
f 1143 277 278
f 1072 1202 1070
f 1144 1263 1070
f 1070 1263 1145
f 1145 1146 279
f 1202 1147 1070
f 1147 1148 1070
f 1070 1148 1149
f 1145 279 1142
f 279 294 1142
f 1142 294 280
f 1150 1143 1151
f 1143 1163 1151
f 280 281 1142
f 1142 281 1073
f 281 200 1073
f 200 201 1073
f 1149 1152 1070
f 1152 1153 1070
f 1070 1153 1144
f 1154 1263 1155
f 1263 1144 1155
f 1155 1144 1156
f 1144 1157 1156
f 1156 1157 1158
f 1157 1159 1158
f 1146 1160 279
f 1160 1161 279
f 279 1161 278
f 1161 1162 278
f 278 1162 1143
f 1162 1163 1143
f 277 1143 301
f 1143 1164 301
f 301 1164 284
f 1164 641 284
f 439 438 448
f 448 866 439
f 866 867 439
f 439 867 440
f 867 441 440
f 867 868 441
f 868 869 441
f 441 869 442
f 869 443 442
f 869 871 443
f 871 870 443
f 443 870 444
f 870 872 444
f 444 872 445
f 872 873 445
f 445 873 446
f 873 87 446
f 446 87 68
f 641 1164 637
f 1164 1165 637
f 640 639 1166
f 1166 639 1165
f 639 638 1165
f 1165 638 637
f 640 1166 634
f 1166 1167 634
f 634 1167 633
f 1168 632 635
f 1168 635 1167
f 635 636 1167
f 1167 636 633
f 628 629 1169
f 629 630 1169
f 1169 630 1168
f 630 631 1168
f 1168 631 632
f 1315 73 1169
f 73 627 1169
f 1169 627 628
f 1141 1099 1140
f 1140 1099 1139
f 1138 1139 1099
f 1137 1138 1099
f 1137 1104 1114
f 1114 1112 1136
f 1136 1112 1124
f 1112 1113 1124
f 1135 1113 1134
f 1113 1115 1134
f 1115 1106 1134
f 1106 1111 1134
f 1134 1111 1133
f 1133 1104 1132
f 1132 1104 1099
f 1104 1137 1099
f 1147 1202 1173
f 1171 1172 1124
f 1171 1130 1170
f 1130 1129 1170
f 1170 1129 1084
f 1129 1128 1084
f 1128 1127 1084
f 1084 1127 1131
f 1076 1084 1126
f 1084 1131 1126
f 1126 1125 1076
f 1019 1202 1054
f 1141 1172 1202
f 1202 1172 1173
f 1123 1020 1021
f 1124 1172 1141
f 1125 1122 1076
f 1122 1123 1076
f 1076 1123 1021
f 1046 1019 1054
f 1141 1202 1019
f 1141 1019 1099
f 1019 1020 1099
f 1099 1020 1123
f 1120 1174 1181
f 1174 1175 1181
f 1181 1175 1176
f 1175 1177 1176
f 1176 1177 1178
f 1181 1182 1179
f 1182 1183 1179
f 1183 1187 1179
f 1188 1177 1175
f 1189 1185 1186
f 1188 1175 1174
f 1179 1187 1180
f 1192 1184 1185
f 1185 1189 1196
f 1190 1188 1191
f 1187 1192 1180
f 1192 1185 1196
f 1186 1190 1199
f 1188 1174 1193
f 1180 1192 1194
f 1194 1192 1195
f 1189 1186 1197
f 1199 1190 1191
f 1195 1192 60
f 60 1192 1196
f 1197 1186 1198
f 1198 1186 1199
f 1200 1191 1188
f 1178 1183 1182
f 1178 1182 1176
f 1182 1181 1176
f 1179 1180 1120
f 1120 1181 1179
f 1120 61 1174
f 1174 61 1193
f 61 62 1193
f 1193 62 1188
f 1188 62 1200
f 1191 1200 1199
f 1200 57 1199
f 1199 57 1198
f 1198 57 1197
f 57 63 1197
f 63 54 1197
f 1197 54 1189
f 54 58 1189
f 1189 58 1196
f 58 60 1196
f 1195 60 1194
f 1194 60 1180
f 60 1120 1180
f 1188 1190 1042
f 1042 1190 1201
f 1187 1183 1035
f 1183 1178 1035
f 1035 1178 1042
f 1178 1177 1042
f 1042 1177 1188
f 1190 1186 1201
f 1201 1186 1185
f 1201 1185 969
f 969 1185 1184
f 1184 1192 969
f 1192 1187 969
f 969 1187 1035
f 878 1203 877
f 1072 1203 878
f 877 1204 1071
f 1071 1204 1072
f 1072 1204 1203
f 1070 1142 1071
f 1142 1213 1071
f 1148 1147 1205
f 1170 1084 1147
f 1084 1205 1147
f 1085 1206 1086
f 1086 1206 1087
f 1087 1206 1082
f 1082 1206 1081
f 1081 1206 1083
f 1083 1206 1084
f 1206 1205 1084
f 1302 1305 1206
f 1206 1305 1205
f 1212 152 1207
f 152 139 1207
f 1207 139 1208
f 1208 139 1209
f 1209 152 1210
f 1210 152 1211
f 1211 152 1212
f 874 877 1071
f 1213 1043 1042
f 1213 1042 1071
f 1071 1042 1214
f 1215 1216 1092
f 1217 1201 1218
f 1201 1092 1218
f 1218 1092 1219
f 1217 1220 1201
f 1220 1221 1201
f 1201 1221 1222
f 1216 1223 1092
f 1223 1224 1092
f 1092 1224 1219
f 1222 1225 1201
f 1225 1226 1201
f 1201 1226 1042
f 1226 1227 1042
f 1042 1227 1214
f 1228 874 1214
f 874 1071 1214
f 1228 1229 874
f 1229 1230 874
f 874 1230 1092
f 1230 1231 1092
f 1092 1231 1215
f 1204 1236 1203
f 1236 1232 1203
f 1232 1233 1203
f 1233 1234 1203
f 1203 1234 877
f 1234 1235 877
f 1235 1238 877
f 1238 1204 877
f 1235 1237 1238
f 1238 1239 1204
f 1204 1239 1236
f 1170 1237 1235
f 1173 1172 1236
f 1236 1172 1232
f 1232 1172 1233
f 1233 1172 1234
f 1172 1171 1234
f 1234 1171 1235
f 1235 1171 1170
f 1170 1147 1237
f 1237 1147 1238
f 1238 1147 1239
f 1147 1173 1239
f 1236 1239 1173
f 1142 1073 1213
f 1240 1241 1242
f 1242 1243 1155
f 1243 1244 1155
f 1145 1252 1245
f 1252 1246 1245
f 1245 1246 1247
f 1241 1248 1242
f 1248 1249 1242
f 1242 1249 1243
f 1244 1250 1155
f 1250 1251 1155
f 1155 1251 1154
f 1251 1252 1154
f 1154 1252 1145
f 1247 1253 1245
f 1253 1254 1245
f 1245 1254 1255
f 1255 1256 1245
f 1256 1257 1245
f 1245 1257 1242
f 1257 1258 1242
f 1242 1258 1240
f 1259 1313 1260
f 1313 1261 1260
f 1146 1145 1317
f 1145 1245 1317
f 1245 1262 1317
f 1261 1313 1262
f 1262 1313 1317
f 1145 1263 1154
f 1214 1227 1252
f 1252 1227 1246
f 1227 1226 1246
f 1246 1226 1247
f 1226 1225 1247
f 1247 1225 1253
f 1225 1222 1253
f 1253 1222 1254
f 1222 1221 1254
f 1254 1221 1255
f 1221 1220 1255
f 1255 1220 1256
f 1220 1217 1256
f 1256 1217 1257
f 1217 1218 1257
f 1257 1218 1258
f 1218 1219 1258
f 1258 1219 1240
f 1219 1224 1240
f 1240 1224 1241
f 1224 1223 1241
f 1241 1223 1248
f 1223 1216 1248
f 1248 1216 1249
f 1216 1215 1249
f 1249 1215 1243
f 1215 1231 1243
f 1243 1231 1244
f 1231 1230 1244
f 1244 1230 1250
f 1230 1229 1250
f 1250 1229 1251
f 1229 1228 1251
f 1252 1251 1214
f 1251 1228 1214
f 1264 1265 897
f 1266 1267 901
f 1268 1269 891
f 75 1312 1270
f 1312 1271 1270
f 884 883 1271
f 883 886 1271
f 1271 886 1270
f 886 887 1270
f 1270 887 1272
f 1272 887 1269
f 887 890 1269
f 1269 890 891
f 1268 891 1267
f 891 903 1267
f 1267 903 901
f 1266 901 1265
f 901 899 1265
f 1265 899 897
f 1264 897 1273
f 897 895 1273
f 1273 895 1274
f 1097 1092 1201
f 895 893 1274
f 893 1097 1274
f 1274 1097 1275
f 1097 1201 1275
f 1276 1242 1155
f 1155 1156 1276
f 1156 1158 1276
f 1276 1158 1277
f 1158 1159 1277
f 1277 1159 1278
f 1159 1157 1278
f 1278 1157 1279
f 1157 1144 1279
f 1279 1144 1295
f 1295 1144 1280
f 1144 1153 1280
f 1280 1153 1281
f 1153 1152 1281
f 1281 1152 1283
f 1298 1282 1149
f 1149 1282 1152
f 1282 1283 1152
f 1298 1149 1284
f 1149 1148 1284
f 1284 1148 1205
f 1286 1242 1297
f 1289 1288 1300
f 1288 1289 1299
f 1289 1290 1299
f 1299 1290 1285
f 1300 1291 1289
f 1291 1292 1289
f 1295 1297 1279
f 1279 1297 1278
f 1278 1297 1277
f 1242 1276 1297
f 1276 1277 1297
f 1296 1286 1297
f 1294 1293 1297
f 1297 1293 1296
f 1280 1281 1295
f 1295 1281 1283
f 1283 1282 1298
f 1299 1294 1288
f 1294 1287 1288
f 1287 1302 1288
f 1287 1298 1302
f 1295 1283 1287
f 1283 1298 1287
f 1205 1298 1284
f 1297 1295 1294
f 1295 1287 1294
f 1302 1206 1303
f 1303 1206 1300
f 1300 1206 1304
f 1301 1300 1304
f 1300 1288 1303
f 1303 1288 1302
f 1305 1302 1298
f 1205 1305 1298
f 1271 1306 884
f 1306 1301 884
f 884 1301 885
f 1301 1304 885
f 885 1304 1206
f 1306 1312 1301
f 1312 1307 1301
f 1301 1307 1300
f 1300 1307 1291
f 1307 1308 1291
f 1291 1308 1292
f 1308 1309 1292
f 1292 1309 1310
f 1311 1290 1310
f 1290 1289 1310
f 1310 1289 1292
f 1311 1259 1290
f 1290 1259 1285
f 1259 1260 1285
f 1294 1299 1260
f 1260 1299 1285
f 1294 1260 1293
f 1260 1261 1293
f 1293 1261 1296
f 1261 1262 1296
f 1296 1262 1286
f 1262 1245 1286
f 1286 1245 1242
f 1306 1271 1312
f 1315 1314 1307
f 1313 1309 1314
f 1309 1308 1314
f 1314 1308 1307
f 1311 1310 1313
f 1313 1310 1309
f 1311 1313 1259
f 1315 1307 1312
f 1314 1315 1313
f 1315 1316 1313
f 1169 1168 1315
f 1168 1316 1315
f 1316 1317 1313
f 1168 1167 1316
f 1319 1318 1316
f 1316 1318 1317
f 1167 1166 1316
f 1166 1319 1316
f 1318 1319 1317
f 1166 1165 1319
f 1319 1320 1317
f 1165 1164 1319
f 1164 1321 1319
f 1321 1322 1319
f 1322 1323 1319
f 1319 1323 1320
f 1323 1324 1320
f 1324 1325 1320
f 1320 1325 1317
f 1146 1317 1325
f 1146 1325 1160
f 1325 1324 1160
f 1160 1324 1161
f 1324 1323 1161
f 1161 1323 1162
f 1323 1322 1162
f 1162 1322 1163
f 1321 1164 1143
f 1143 1150 1321
f 1150 1151 1321
f 1321 1151 1322
f 1151 1163 1322
f 1054 1202 1055
f 946 880 1085
f 880 885 1085
f 1085 885 1206
f 972 1274 1275
f 1201 969 1275
f 969 971 1275
f 1275 971 972
f 966 1264 1273
f 1274 972 1273
f 972 967 1273
f 1273 967 966
f 964 1266 1265
f 1264 966 1265
f 966 965 1265
f 1265 965 964
f 962 1268 1267
f 1266 964 1267
f 964 963 1267
f 1267 963 962
f 960 1272 1269
f 1268 962 1269
f 962 961 1269
f 1269 961 960
f 78 75 1270
f 1272 960 1270
f 960 959 1270
f 1270 959 78
f 1213 1207 1043
f 1213 1212 1207
f 1043 1207 1208
f 1043 1039 1034
f 1034 1039 1038
f 1043 1208 1039
f 1039 1208 1040
f 1208 1209 1040
f 1211 1041 1210
f 1041 1040 1210
f 1210 1040 1209
f 1074 1211 1212
f 1038 1037 1034
f 1034 1037 1016
f 1016 1037 1074
f 1074 1037 1211
f 1211 1037 1041
f 1074 1212 192
f 1212 152 192
f 410 1327 160
f 160 1327 1328
f 1388 1329 413
f 1329 414 413
f 416 1330 415
f 419 1331 418
f 423 1332 421
f 1332 1333 421
f 770 813 1335
f 770 807 808
f 770 808 810
f 1334 818 1335
f 1335 818 770
f 818 807 770
f 1326 405 157
f 405 806 157
f 1326 170 405
f 405 170 410
f 160 159 432
f 427 422 411
f 160 432 410
f 410 432 411
f 432 431 411
f 411 431 427
f 803 1359 804
f 1328 410 1333
f 410 421 1333
f 1328 1327 410
f 1327 1336 410
f 410 1336 803
f 1337 1338 803
f 803 1338 1359
f 408 806 805
f 1328 1333 1339
f 1333 1332 1339
f 1339 1332 1327
f 1332 424 1327
f 424 1336 1327
f 1359 408 804
f 408 1359 762
f 1359 1338 762
f 803 1336 1337
f 1336 761 1337
f 761 1340 1337
f 1337 1340 1338
f 1338 1340 762
f 805 804 408
f 408 762 406
f 761 424 1340
f 424 406 1340
f 406 762 1340
f 424 1332 430
f 1332 423 430
f 430 418 1331
f 430 1331 424
f 1331 1344 424
f 1344 760 424
f 424 760 1342
f 787 786 1375
f 764 1342 1343
f 792 406 764
f 764 406 1342
f 1342 760 1343
f 760 1344 1341
f 1341 1344 765
f 765 1344 773
f 1331 774 1344
f 774 773 1344
f 1350 1345 763
f 1347 763 1345
f 1346 765 1345
f 765 1347 1345
f 1347 1348 763
f 765 784 1347
f 1347 784 768
f 1330 785 778
f 1350 815 816
f 765 1346 784
f 784 1346 785
f 784 426 768
f 768 766 1348
f 1348 766 763
f 763 766 1349
f 1350 1349 815
f 816 817 1350
f 814 1349 766
f 426 814 768
f 814 766 768
f 416 417 1330
f 417 426 1330
f 1330 426 785
f 1351 817 1356
f 767 426 1329
f 426 414 1329
f 767 1358 426
f 1358 768 426
f 426 768 817
f 817 768 1356
f 1357 769 811
f 811 769 1334
f 1334 769 819
f 1352 1353 1355
f 1353 1354 1355
f 162 1352 187
f 1352 1355 187
f 1328 1339 1353
f 1328 1353 160
f 1353 1352 160
f 160 1352 162
f 1327 1354 1339
f 1354 1353 1339
f 410 1355 1327
f 1355 1354 1327
f 187 1355 410
f 1343 760 377
f 376 1343 377
f 1343 376 760
f 376 377 760
f 397 377 760
f 377 397 760
f 378 766 360
f 766 361 360
f 378 381 766
f 766 381 1356
f 381 379 1356
f 379 361 1356
f 1356 361 766
f 1348 376 763
f 376 360 763
f 763 360 1348
f 360 361 1348
f 361 376 1348
f 402 764 360
f 764 402 792
f 402 378 792
f 792 378 764
f 378 360 764
f 1342 358 1340
f 1342 1340 358
f 1342 358 359
f 359 358 1342
f 378 372 763
f 381 1350 372
f 372 1350 763
f 1350 381 1349
f 1349 381 763
f 381 378 763
f 424 392 1336
f 392 396 1336
f 382 424 397
f 424 761 397
f 397 761 396
f 761 1336 396
f 382 392 424
f 357 1357 369
f 357 383 1357
f 383 370 1357
f 370 369 1357
f 767 391 1358
f 391 386 1358
f 386 384 1358
f 767 1358 391
f 391 1358 384
f 387 382 765
f 765 382 1341
f 382 385 1341
f 386 765 385
f 385 765 1341
f 386 387 765
f 398 382 1344
f 382 387 1344
f 389 376 768
f 376 357 768
f 357 389 768
f 376 1347 385
f 1347 376 1348
f 1348 376 768
f 376 389 768
f 385 1347 389
f 1347 768 389
f 388 157 324
f 1326 157 362
f 362 157 388
f 1338 388 1359
f 388 374 1359
f 1359 374 1338
f 374 402 1338
f 402 388 1338
f 402 374 762
f 373 402 762
f 1337 354 803
f 803 354 1337
f 354 399 1337
f 354 1337 399
f 1360 366 170
f 366 354 170
f 170 354 1336
f 354 366 1336
f 1336 366 1360
f 1361 384 1362
f 384 389 1362
f 1362 389 1363
f 1363 389 769
f 389 368 769
f 384 1361 769
f 384 769 368
f 368 389 1335
f 1335 389 770
f 389 370 770
f 368 1335 370
f 1335 770 370
f 387 398 1344
f 784 390 426
f 390 391 426
f 426 391 785
f 1364 1365 818
f 1365 1366 818
f 1366 1367 818
f 818 1367 807
f 809 808 1368
f 1367 1369 807
f 1369 1368 807
f 807 1368 808
f 1335 813 1334
f 1334 813 811
f 813 812 811
f 789 1370 1371
f 1371 1346 1345
f 1345 1372 1371
f 1372 1373 1371
f 1371 1373 796
f 786 795 1375
f 795 794 1375
f 786 789 795
f 789 1371 795
f 795 1371 796
f 774 1331 420
f 1331 419 420
f 778 425 1330
f 1330 425 415
f 426 817 814
f 814 817 816
f 816 815 814
f 765 773 1370
f 764 789 792
f 789 790 792
f 764 1343 789
f 1343 760 789
f 789 760 1370
f 760 1341 1370
f 1370 1341 765
f 1374 798 799
f 1377 802 1375
f 1375 797 1377
f 1374 799 800
f 800 802 1376
f 1376 802 1377
f 801 406 802
f 780 420 425
f 780 782 420
f 782 771 420
f 420 771 774
f 424 1342 406
f 406 801 407
f 801 1378 407
f 410 803 405
f 405 803 806
f 803 804 806
f 806 804 805
f 324 157 325
f 157 1326 325
f 1371 1370 773
f 773 775 1371
f 1379 1380 1364
f 1380 1365 1364
f 1381 1367 1466
f 1367 1366 1466
f 1380 1467 1365
f 1467 1382 1365
f 1365 1382 1366
f 1382 1466 1366
f 1375 802 364
f 802 793 364
f 437 80 86
f 86 1496 437
f 1496 1383 437
f 437 1383 433
f 1383 1384 433
f 433 1384 434
f 434 1384 435
f 1384 1385 435
f 435 1385 436
f 1385 1386 436
f 436 1386 428
f 1386 1387 428
f 428 1387 429
f 1387 1389 429
f 1389 1388 429
f 429 1388 412
f 1388 413 412
f 1390 1388 1391
f 1367 1381 1392
f 796 1373 1459
f 1459 1373 1393
f 1373 1372 1393
f 1393 1372 1394
f 1459 1460 796
f 1377 797 1395
f 1395 797 1460
f 797 796 1460
f 810 1396 770
f 1396 1394 770
f 817 1394 1350
f 1394 1372 1350
f 1350 1372 1345
f 817 1351 1394
f 1351 813 1394
f 1394 813 770
f 810 809 1368
f 1367 1392 1369
f 1392 1397 1369
f 1369 1397 1368
f 1397 1398 1368
f 1368 1398 810
f 1398 1396 810
f 1360 170 1336
f 1377 1399 1376
f 1399 1446 1376
f 1378 801 798
f 409 407 1400
f 407 1378 1400
f 1400 1378 1401
f 1378 798 1401
f 1401 798 1402
f 798 1374 1402
f 1402 1374 1403
f 1374 800 1403
f 800 1376 1403
f 1403 1376 1446
f 1377 1395 1399
f 1404 1405 1067
f 400 356 1036
f 1036 356 355
f 1067 1405 1068
f 1404 1067 1407
f 1067 1036 1407
f 1407 1036 1406
f 1036 355 1406
f 1406 355 1482
f 1064 1057 1408
f 1057 1056 1408
f 1408 1056 1405
f 1056 1069 1405
f 1405 1069 1068
f 1066 1065 1409
f 1064 1408 1065
f 1408 1500 1065
f 1065 1500 1409
f 1410 1061 1409
f 1061 1066 1409
f 1063 1062 1411
f 1062 1061 1411
f 1411 1061 1410
f 1060 1059 1412
f 1059 1058 1412
f 1063 1411 1058
f 1411 1413 1058
f 1058 1413 1412
f 1060 1412 79
f 1412 1496 79
f 79 1496 86
f 1414 1415 1429
f 1415 1416 1429
f 1429 1416 1463
f 1394 1396 1417
f 1396 1418 1417
f 1417 1418 1419
f 1418 1420 1419
f 1419 1420 1421
f 1420 1422 1421
f 1423 1424 1422
f 1422 1424 1421
f 1422 1465 1423
f 1465 1425 1423
f 1423 1425 1426
f 1425 1427 1426
f 1426 1427 1428
f 1427 1429 1428
f 1429 1430 1428
f 1428 1430 1431
f 1430 1432 1431
f 1431 1432 1456
f 1433 1463 370
f 370 383 1433
f 383 371 1433
f 371 380 1433
f 1433 380 365
f 1456 1432 1435
f 1432 1433 1435
f 1435 1433 1434
f 1433 365 1434
f 1434 365 381
f 381 363 1434
f 1436 1453 374
f 374 375 1436
f 375 346 1436
f 1436 346 1437
f 346 343 1437
f 343 345 1437
f 1437 345 1438
f 345 344 1438
f 1438 344 1439
f 344 1440 1439
f 344 336 1440
f 336 337 1440
f 1440 337 1441
f 337 339 1441
f 1441 339 1442
f 339 338 1442
f 338 341 1442
f 1442 341 1443
f 341 350 1443
f 350 340 1443
f 1443 340 1444
f 340 349 1444
f 1444 349 1445
f 349 353 1445
f 1445 353 409
f 1445 409 1400
f 1437 1438 1439
f 1439 1440 1441
f 1444 1445 1449
f 1445 1400 1449
f 1400 1401 1449
f 1401 1402 1449
f 1402 1403 1449
f 1403 1446 1449
f 1442 1443 1450
f 1443 1444 1450
f 1444 1449 1450
f 1447 1449 1451
f 1449 1446 1451
f 1436 1437 1453
f 1437 1439 1453
f 1453 1439 1447
f 1448 1453 1447
f 1452 1454 1448
f 1441 1442 1439
f 1442 1450 1439
f 1450 1449 1439
f 1439 1449 1447
f 1447 1451 1448
f 1448 1451 1452
f 1423 1426 1455
f 1426 1428 1455
f 1435 1434 1456
f 1456 1434 363
f 1457 1454 1458
f 1461 1460 1462
f 1462 1460 1459
f 1459 1393 1417
f 1393 1394 1417
f 1419 1421 1424
f 1458 1452 1460
f 1462 1459 1455
f 1455 1459 1424
f 1424 1459 1419
f 1459 1417 1419
f 1454 1457 363
f 1455 1456 1457
f 1457 1456 363
f 1428 1431 1455
f 1431 1456 1455
f 1458 1460 1457
f 1460 1461 1457
f 1457 1461 1455
f 1461 1462 1455
f 1455 1424 1423
f 1429 1425 1465
f 1425 1429 1427
f 1418 1396 1464
f 1396 1398 1464
f 1398 1397 1464
f 1420 1418 1465
f 1418 1464 1465
f 1463 1433 1429
f 1433 1432 1429
f 1432 1430 1429
f 1465 1422 1420
f 1392 1381 1464
f 1381 1414 1464
f 1397 1392 1464
f 1465 1464 1429
f 1464 1414 1429
f 1467 1380 1379
f 1381 1467 1414
f 1466 1382 1467
f 1381 1466 1467
f 1415 1468 1416
f 1414 1469 1415
f 1470 1471 1468
f 1471 1472 1468
f 1472 1473 1468
f 1468 1473 1416
f 1473 1474 1416
f 1379 1475 1467
f 1475 1476 1467
f 1476 1477 1467
f 1477 1478 1467
f 1467 1478 1479
f 1414 1467 1469
f 1469 1467 1415
f 1415 1467 1468
f 1467 1479 1468
f 1468 1479 1470
f 1405 1483 1408
f 1408 1483 1500
f 1405 1404 1483
f 1404 1407 1483
f 1483 1407 1406
f 1482 1484 1485
f 1485 1486 1495
f 1486 1487 1495
f 1388 1488 1391
f 1391 1488 1489
f 1495 1503 1491
f 1492 1493 1491
f 1491 1493 1494
f 1495 1491 1489
f 1489 1491 1391
f 1491 1494 1391
f 1488 1480 1489
f 1480 1495 1489
f 1495 1483 1485
f 1485 1483 1482
f 1496 1498 1383
f 1383 1498 1384
f 1388 1389 1488
f 1389 1387 1488
f 1488 1387 1498
f 1387 1386 1498
f 1386 1385 1498
f 1498 1385 1384
f 1410 1413 1411
f 1499 1410 1500
f 1410 1409 1500
f 1483 1406 1482
f 1488 1497 1481
f 1481 1497 1499
f 1499 1497 1410
f 1497 1496 1410
f 1496 1412 1410
f 1410 1412 1413
f 1501 1502 1495
f 1495 1502 1503
f 1491 1503 1490
f 1500 1483 1499
f 1499 1483 1481
f 1483 1495 1481
f 1495 1480 1481
f 1481 1480 1488
f 1488 1498 1497
f 1497 1498 1496
f 1334 819 1504
f 819 1505 1504
f 769 1357 1363
f 819 769 1505
f 769 1361 1505
f 1505 1361 1506
f 1357 768 1363
f 768 1362 1363
f 1351 1356 1357
f 1357 1356 768
f 1357 811 1351
f 811 812 1351
f 812 813 1351
f 1329 1390 767
f 1390 1506 767
f 767 1506 1358
f 1506 1361 1358
f 1361 1362 1358
f 1358 1362 768
f 1388 1390 1329
f 1391 1507 1390
f 1484 1482 367
f 367 1508 1484
f 1508 1509 1484
f 1484 1509 1485
f 1509 1510 1485
f 1485 1510 1486
f 1510 1511 1486
f 1486 1511 1487
f 1511 1512 1487
f 1487 1512 1495
f 1495 1512 1501
f 1512 1513 1501
f 1501 1513 1502
f 1513 1514 1502
f 1502 1514 1503
f 1514 1490 1503
f 1490 1515 1491
f 1491 1515 1492
f 1515 1516 1492
f 1492 1516 1493
f 1516 1531 1493
f 1493 1531 1494
f 1531 1507 1494
f 1494 1507 1391
f 368 1416 1474
f 1379 1517 1475
f 1517 1518 1475
f 1475 1518 1476
f 1518 1519 1476
f 1476 1519 1477
f 1519 1520 1477
f 1520 1521 1477
f 1477 1521 1478
f 1521 1522 1478
f 1478 1522 1479
f 1522 1523 1479
f 1479 1523 1470
f 1523 1524 1470
f 1470 1524 1471
f 1524 1525 1471
f 1471 1525 1472
f 1525 1526 1472
f 1472 1526 1473
f 1526 1527 1473
f 1473 1527 1474
f 1527 1528 1474
f 368 1474 1528
f 1528 367 384
f 1504 1517 1334
f 1517 1379 1334
f 1334 1379 818
f 1379 1364 818
f 1390 1507 1506
f 1507 1531 1506
f 1517 1504 1529
f 1504 1505 1529
f 1531 1530 1506
f 1506 1530 1505
f 1530 1532 1505
f 1505 1532 1529
f 1490 1534 1515
f 1534 1531 1515
f 1515 1531 1516
f 1522 1521 1533
f 1533 1528 1527
f 1490 1514 1534
f 1514 1513 1534
f 1513 1512 1534
f 1512 1511 1534
f 1534 1511 1510
f 1510 1509 1528
f 1509 1508 1528
f 1528 1508 367
f 1521 1520 1533
f 1533 1520 1532
f 1520 1519 1532
f 1532 1519 1529
f 1519 1518 1529
f 1529 1518 1517
f 1527 1526 1533
f 1526 1525 1533
f 1525 1524 1533
f 1524 1523 1533
f 1533 1523 1522
f 1528 1533 1510
f 1510 1533 1534
f 1533 1532 1534
f 1534 1532 1531
f 1532 1530 1531
f 787 1375 364
f 364 1535 363
f 363 1535 1454
f 1453 1448 1535
f 1535 1448 1454
f 1458 1454 1452
f 1395 1460 1446
f 1446 1460 1451
f 1460 1452 1451
f 1446 1399 1395
f 1535 1536 1453
f 363 381 364
f 364 381 788
f 788 381 791
f 381 372 791
f 373 374 791
f 791 374 793
f 374 1453 793
f 364 793 1453
f 1453 1536 364
f 364 1536 1535
f 1371 775 1346
f 1346 775 785
f 775 772 785
f 772 775 390
f 390 391 772
f 391 779 772
f 772 779 778
f 781 779 783
f 783 779 777
f 777 779 776
f 779 356 776
f 776 356 775
f 356 390 775
f 734 745 698
f 698 745 694
f 694 745 696
f 745 695 696
f 706 529 526
f 706 526 707
f 707 526 655
f 708 758 712
f 712 759 708
f 759 651 708
f 650 676 677
f 650 677 750
f 681 643 689
f 689 646 681
f 646 690 681
f 681 690 680
f 705 686 688
f 688 687 705
f 705 687 703
f 703 687 704
f 687 662 704
f 668 81 165
f 81 69 165
f 165 69 167
f 668 165 669
f 165 753 669
f 669 753 670
f 753 755 670
f 670 755 671
f 671 755 663
f 755 757 663
f 663 757 664
f 752 749 756
f 701 756 747
f 756 749 747
f 747 749 748
f 742 741 743
f 741 756 743
f 743 756 700
f 756 701 700
f 700 701 699
f 664 757 665
f 757 756 665
f 665 756 666
f 756 741 666
f 666 741 667
f 742 709 697
f 701 684 699
f 756 754 752
f 754 168 752
