v 0.00415134 -0.0233917 0.0119947
v 0.00454197 -0.0233917 0.0119923
v 0.00454197 -0.0231178 0.0119899
v -0.00678312 -0.0231178 0.0119899
v -0.00678312 -0.0233917 0.0119923
v -0.00717375 -0.0616644 0.00735326
v -0.00053463 -0.0616644 0.00733415
v 0.00490868 -0.0233879 0.0119397
v 0.0049326 -0.0231526 0.0119469
v -0.000145594 -0.0616644 0.00731265
v 0.000245036 -0.0608851 0.00737715
v 0.00122879 -0.0583583 0.00759931
v 0.00610449 -0.0231217 0.0115981
v 0.00688575 -0.0228787 -1.85075e-05
v 0.00610449 -0.0228748 -1.85075e-05
v 0.00297945 -0.0228748 -1.85075e-05
v -0.00815112 -0.0228054 -0.00449508
v -0.00717375 -0.0231256 0.0119827
v -0.00717375 -0.0233917 0.0119851
v -0.00756438 -0.0616644 0.00730788
v -0.00756438 -0.0619151 0.00725055
v -0.00717375 -0.0619383 0.00727205
v -0.00678312 -0.0619383 0.00727205
v -0.00092526 -0.0619306 0.00726249
v -0.00053463 -0.0619306 0.0072601
v -0.000145594 -0.0619113 0.00724577
v 0.00519408 -0.0232567 0.0119015
v 0.00519408 -0.0231911 0.0119015
v 0.00635481 -0.023141 0.0115551
v 0.000120672 -0.0618843 0.00722427
v 0.000248225 -0.0616644 0.00724816
v 0.000245036 -0.0612747 0.00731743
v 0.000635666 -0.0604916 0.00737954
v 0.0010263 -0.060102 0.00737476
v 0.00141693 -0.0593227 0.00742015
v 0.00648874 -0.0231371 0.0112876
v 0.00756178 -0.0231217 0.00935745
v 0.00727638 -0.0228941 0.000373252
v 0.00727638 -0.0228864 -1.85075e-05
v 0.00747249 -0.0228054 -0.00449508
v 0.00727638 -0.0228015 -0.0047029
v -0.0052206 -0.0226665 -0.0121225
v -0.00600186 -0.0226703 -0.0121225
v -0.00795501 -0.0226973 -0.0113413
v -0.0081862 -0.0227938 -0.0058734
v -0.00826911 -0.023141 0.0109197
v -0.00823084 -0.0231333 0.0113091
v -0.00756438 -0.0231526 0.0119445
v -0.00752611 -0.0233763 0.0119349
v -0.00778281 -0.0618804 0.00722188
v -0.0077876 -0.0232336 0.0119063
v -0.00756438 -0.0620231 0.00701406
v -0.00717375 -0.0620463 0.00701406
v -0.00678312 -0.0620463 0.00701406
v -0.00053463 -0.0620386 0.00701406
v -0.000145594 -0.0620193 0.00701406
v 0.000635666 -0.0619653 0.00694956
v 0.00635481 -0.023276 0.0115551
v 0.00180756 -0.0589292 0.00739387
v 0.00709302 -0.0231834 0.0107453
v 0.00714245 -0.0231564 0.010528
v 0.00709302 -0.0232336 0.0107453
v 0.0010263 -0.0619113 0.00687073
v 0.000380561 -0.0617917 0.00718605
v 0.000487386 -0.0615332 0.00722188
v 0.000635666 -0.0608851 0.00731504
v 0.00141693 -0.0597124 0.00735804
v 0.00180756 -0.0593227 0.00733177
v 0.00758729 -0.0231256 0.00896569
v 0.00750757 -0.0227938 -0.0058734
v 0.00752192 -0.0231448 0.00974682
v 0.0076989 -0.0233917 0.00896569
v 0.00727638 -0.0227359 -0.00899793
v 0.00727638 -0.0227591 -0.00743567
v 0.00649512 -0.0227282 -0.00938969
v 0.00376071 -0.0226858 -0.0121225
v 0.00454197 -0.0227359 -0.0124067
v -0.00756438 -0.0227244 -0.0124043
v -0.00756438 -0.0226896 -0.0121225
v -0.00795501 -0.0227128 -0.0117331
v -0.00821011 -0.0227552 -0.0117331
v -0.00824838 -0.0227514 -0.0113413
v -0.0082707 -0.0227552 -0.0109519
v -0.00825476 -0.0227668 -0.00938969
v -0.00822128 -0.0227822 -0.00743567
v -0.0082707 -0.0227591 -0.0105602
v -0.00843493 -0.0230021 -0.00938969
v -0.00843971 -0.0230021 -0.00977906
v -0.00844449 -0.0230021 -0.0101708
v -0.0084142 -0.0233917 0.0101386
v -0.00840782 -0.0233917 0.010528
v -0.0083855 -0.0233917 0.0109197
v -0.00817982 -0.023168 0.0115575
v -0.0077876 -0.0231834 0.0119063
v -0.00819736 -0.0619113 0.00687073
v -0.00793109 -0.061946 0.00700689
v -0.00780992 -0.0616644 0.00723621
v -0.00800444 -0.0616644 0.00710244
v -0.00817982 -0.0232876 0.0115575
v -0.00795501 -0.0620579 0.0066223
v -0.00756438 -0.0620772 0.0066223
v 0.000245036 -0.0620772 0.0066223
v 0.000635666 -0.0620694 0.0066223
v 0.0010263 -0.0620193 0.0066223
v 0.00215035 -0.0589292 0.00727682
v 0.00238314 -0.0586978 0.0071956
v 0.00258882 -0.0589292 0.00701884
v 0.00280406 -0.0591761 0.00683251
v 0.00303047 -0.0589292 0.00667963
v 0.00322499 -0.0589292 0.00648375
v 0.00749322 -0.0231718 0.00999525
v 0.00749322 -0.023276 0.00999525
v 0.00122719 -0.061865 0.00682057
v 0.00138185 -0.0619306 0.00661035
v 0.0010263 -0.0616644 0.00697584
v 0.000624506 -0.0616644 0.00713588
v 0.000850912 -0.0611089 0.00721471
v 0.000933821 -0.0608851 0.00724099
v 0.00105818 -0.0605225 0.00728399
v 0.00142649 -0.060102 0.00726966
v 0.00179321 -0.0596776 0.00725055
v 0.00200686 -0.0595233 0.00720994
v 0.00206426 -0.0593227 0.00723621
v 0.00770847 -0.0230021 -0.00782743
v 0.00770368 -0.0230021 -0.00743567
v 0.0076989 -0.0230021 -0.0070463
v 0.00755221 -0.0227706 -0.00899793
v 0.00753627 -0.0227822 -0.00743567
v 0.00753149 -0.0227861 -0.0070463
v 0.00770687 -0.0233917 0.00857632
v 0.00727638 -0.0227321 -0.00938969
v 0.00764309 -0.0233917 0.00935745
v 0.00766701 -0.0237814 0.00896569
v 0.00766542 -0.0241749 0.00857632
v 0.00769411 -0.0237814 0.00857632
v 0.00454197 -0.0226896 -0.0121225
v -0.00717375 -0.0227321 -0.0124091
v 0.00572343 -0.0227514 -0.0121511
v 0.0049326 -0.0227552 -0.0123804
v 0.0049326 -0.022952 -0.0123804
v 0.00454197 -0.022979 -0.0124067
v -0.00717375 -0.022979 -0.0124091
v -0.00756438 -0.022952 -0.0124043
v -0.00781789 -0.0228864 -0.0123709
v -0.00781789 -0.0227475 -0.0123709
v -0.00795023 -0.0227398 -0.0121057
v -0.00817663 -0.0227784 -0.0119624
v -0.00843014 -0.0230021 -0.0109519
v -0.00844768 -0.0230021 -0.0105602
v -0.00842058 -0.0233917 0.00935745
v -0.00842695 -0.0237814 0.0101386
v -0.00841898 -0.0237814 0.010528
v -0.00825635 -0.0234072 0.0113354
v -0.00846841 -0.0616644 0.00623293
v -0.00837274 -0.0616644 0.0066223
v -0.00825954 -0.0619498 0.0066223
v -0.00822606 -0.0616644 0.00690656
v -0.00795501 -0.0620772 0.00623293
v -0.00831216 -0.0619691 0.00623293
v -0.00795501 -0.0620772 -0.00626516
v -0.00756438 -0.0620772 -0.00665453
v 0.000245036 -0.0620772 -0.00665453
v 0.0010263 -0.0620772 -0.00626516
v 0.00180756 -0.0620772 -0.00548403
v 0.00219819 -0.0620772 -0.0047029
v 0.00219819 -0.0620772 0.00467067
v 0.00180756 -0.0620772 0.0054518
v 0.0010263 -0.0620772 0.00623293
v 0.00141693 -0.062054 0.00623293
v 0.00345618 -0.0585396 0.00627592
v 0.00357416 -0.0587865 0.00605138
v 0.00225877 -0.0593227 0.0071335
v 0.00234647 -0.0589292 0.00717172
v 0.00260636 -0.059315 0.00692328
v 0.00274985 -0.0594385 0.00678951
v 0.00297626 -0.059315 0.00661991
v 0.00319629 -0.0591916 0.00645031
v 0.00343545 -0.0589215 0.00620187
v 0.00166406 -0.0619036 0.0064718
v 0.00174856 -0.0616644 0.00653391
v 0.00148549 -0.0616644 0.00672979
v 0.0015684 -0.061402 0.00678712
v 0.00164971 -0.0611397 0.00684207
v 0.00129097 -0.0616644 0.0068564
v 0.0016529 -0.0599708 0.00722427
v 0.00130213 -0.0604106 0.00723621
v 0.00216152 -0.0596776 0.00707378
v 0.00771165 -0.0230021 -0.0082168
v 0.00778021 -0.0233917 0.000373252
v 0.00771165 -0.0230021 -0.00860856
v 0.00754743 -0.0227706 -0.00938969
v 0.00727638 -0.0227321 -0.00977906
v 0.00768614 -0.0241749 0.00818456
v 0.00769093 -0.0241749 0.00779519
v 0.00571386 -0.0227051 -0.0117331
v 0.0039632 -0.0584046 0.00527741
v 0.0039919 -0.0585357 0.00507437
v 0.00397436 -0.0588637 0.00495254
v 0.0040493 -0.0585396 0.00467067
v 0.00765585 -0.0245645 0.00818456
v 0.00601839 -0.0227591 -0.0120388
v 0.00559906 -0.0227938 -0.0123303
v 0.00559906 -0.0228439 -0.0123303
v -0.000145594 -0.0616644 -0.00731145
v -0.00053463 -0.0616644 -0.00733534
v -0.00092526 -0.0616644 -0.00734011
v -0.00131589 -0.0616644 -0.0073425
v -0.00600186 -0.0616644 -0.00735445
v -0.00717375 -0.0616644 -0.00735445
v -0.00756438 -0.0616644 -0.00730906
v -0.00817663 -0.0228709 -0.0119624
v -0.0083568 -0.0230021 -0.0113413
v -0.00842377 -0.0233917 -0.0109519
v -0.00846362 -0.0616644 -0.00626516
v -0.00846362 -0.0233917 -0.0105602
v -0.00846841 -0.0233917 -0.0101708
v -0.00848595 -0.0233917 -0.000797249
v -0.00847638 -0.0233917 0.000762623
v -0.00849233 -0.0237814 0.000373252
v -0.00848914 -0.0616644 0.00584117
v -0.00832332 -0.0619691 0.00584117
v -0.00832332 -0.0619691 -0.0058734
v 0.00180756 -0.062054 0.00584117
v 0.00179958 -0.0619537 0.00622337
v 0.00364751 -0.0589215 0.00586505
v 0.00354068 -0.0590488 0.00601077
v 0.0024788 -0.0597124 0.00687551
v 0.00241184 -0.05994 0.00683012
v 0.00267332 -0.0597124 0.0067274
v 0.00289176 -0.0597124 0.00653152
v 0.00315005 -0.0594539 0.00640014
v 0.00329673 -0.0593227 0.00625443
v 0.00204831 -0.0619036 0.0060896
v 0.00194468 -0.0616644 0.00636909
v 0.00200207 -0.0614676 0.00642642
v 0.00207701 -0.0612092 0.00649091
v 0.00233212 -0.0601984 0.00677279
v 0.00207223 -0.0604106 0.00686118
v 0.0077834 -0.0233917 -1.85075e-05
v 0.00770209 -0.0230021 -0.00899793
v 0.0077547 -0.0233917 -0.0082168
v 0.00775151 -0.0233917 -0.00860856
v 0.0075267 -0.0227706 -0.00977906
v 0.00688575 -0.0227282 -0.0105602
v 0.00750119 -0.0227822 -0.0100944
v 0.00730827 -0.0227591 -0.0102019
v 0.00720144 -0.0227629 -0.0105602
v 0.00688575 -0.0227475 -0.0109519
v 0.00766701 -0.0245645 0.00779519
v 0.00649512 -0.0227359 -0.0113413
v 0.00373201 -0.0593227 0.0054518
v 0.00395363 -0.0591221 0.00486177
v 0.0039919 -0.0589678 0.0047065
v 0.004019 -0.0589292 0.00427891
v 0.00406683 -0.0585396 0.00427891
v 0.00409394 -0.05815 0.00467067
v 0.00762556 -0.0249541 0.00779519
v 0.00413699 -0.0577603 0.00467067
v 0.00649512 -0.0227706 -0.0116304
v 0.00670718 -0.0227899 -0.0115611
v 0.00670718 -0.0228478 -0.0115611
v 0.000245036 -0.0608851 -0.00737834
v 0.000245036 -0.0612747 -0.00731862
v 7.44346e-05 -0.0618688 -0.00724695
v -0.000145594 -0.061892 -0.00726129
v -0.00053463 -0.0619151 -0.00727801
v -0.00092526 -0.061919 -0.00728278
v -0.00639249 -0.0619267 -0.00728995
v -0.00717375 -0.0619267 -0.00728995
v -0.00776368 -0.061865 -0.00724217
v -0.00797574 -0.0616644 -0.00711796
v -0.0082149 -0.0616644 -0.00692208
v -0.00756438 -0.0618958 -0.00726606
v -0.00835839 -0.0616644 -0.00665453
v -0.00825316 -0.061946 -0.00665453
v -0.00831056 -0.0619691 -0.00626516
v -0.00848914 -0.0616644 -0.0058734
v -0.00849392 -0.0237814 -1.85075e-05
v -0.00850349 -0.060102 -0.00040549
v -0.00850508 -0.060102 0.000373252
v -0.00795501 -0.062054 -0.00665453
v 0.00219819 -0.0620694 0.00506004
v 0.00219819 -0.0620193 0.0054518
v 0.00218703 -0.0619306 0.00580534
v 0.00361881 -0.0593227 0.00575039
v 0.0035072 -0.0593227 0.00594627
v 0.0024788 -0.0604916 0.00650525
v 0.0028232 -0.0599747 0.00646464
v 0.00308787 -0.0597124 0.0063237
v 0.00324253 -0.0597124 0.00612782
v 0.00239749 -0.061865 0.00565245
v 0.00231777 -0.0616644 0.00592955
v 0.00237836 -0.0614483 0.00602033
v 0.00212325 -0.0616644 0.00617321
v 0.0023369 -0.0609854 0.00636909
v 0.00241343 -0.0607231 0.00644553
v 0.00766701 -0.0245645 -0.00782743
v 0.0076686 -0.0230021 -0.00938969
v 0.00773079 -0.0233917 -0.00899793
v 0.00765425 -0.0245645 -0.0082168
v 0.00711534 -0.0227784 -0.0109519
v 0.00760164 -0.0230021 -0.00977906
v 0.00751714 -0.0230021 -0.0101183
v 0.00708505 -0.0228015 -0.0111526
v 0.00685705 -0.0227784 -0.0113079
v 0.00747728 -0.0263738 0.00740343
v 0.00762715 -0.0249541 0.00740343
v 0.00762715 -0.0249541 -0.00743567
v 0.00358213 -0.059558 0.00568112
v 0.00362199 -0.0596969 0.0054303
v 0.00396798 -0.0591723 0.00460139
v 0.00371606 -0.0597124 0.00506004
v 0.00376549 -0.0597124 0.00467067
v 0.00397436 -0.0591954 0.00427891
v 0.0040206 -0.0589292 0.00388715
v 0.00406843 -0.0585396 0.00388715
v 0.00474446 -0.0521589 0.00467067
v 0.00708505 -0.0228208 -0.0111526
v 0.00601999 -0.0230021 -0.0120293
v 0.00279131 -0.0591414 -0.00685519
v 0.00231298 -0.0589292 -0.00718723
v 0.00211687 -0.0589292 -0.00729234
v 0.00205788 -0.0592224 -0.00726606
v 0.00180756 -0.0589292 -0.00740222
v 0.00141693 -0.0593227 -0.00743328
v 0.0010263 -0.0597124 -0.00743805
v 0.000635666 -0.0604916 -0.00738311
v 0.00022112 -0.0616335 -0.00726129
v 0.000946576 -0.061919 -0.00690775
v 0.000635666 -0.0619576 -0.00696508
v 0.000450715 -0.0614831 -0.00724456
v 0.000334323 -0.0617454 -0.00720873
v -0.000145594 -0.062 -0.0070463
v -0.00053463 -0.0620193 -0.0070463
v -0.00092526 -0.062027 -0.0070463
v -0.00678312 -0.0620347 -0.0070463
v -0.00717375 -0.0620347 -0.0070463
v -0.00756438 -0.0620039 -0.0070463
v -0.00791834 -0.0619306 -0.00703196
v -0.00818939 -0.0619036 -0.00689341
v 0.00256012 -0.0619691 0.00467067
v 0.00251707 -0.0619614 0.00506004
v 0.00258722 -0.0619691 -0.00392177
v 0.00258722 -0.0619691 0.00388715
v 0.00258244 -0.0619691 0.00427891
v 0.00244532 -0.0619113 0.0054518
v 0.00274826 -0.060237 0.0063882
v 0.00296988 -0.0600866 0.00622337
v 0.00318991 -0.0599361 0.00605616
v 0.00343864 -0.0596969 0.00582206
v 0.00271159 -0.06173 0.00506004
v 0.00263506 -0.0616297 0.00541596
v 0.00279768 -0.061105 0.00566679
v 0.00278652 -0.0606922 0.00603944
v 0.00245329 -0.0611899 0.00610871
v 0.00754424 -0.0257372 -0.00743567
v 0.00750279 -0.0261269 -0.00743567
v 0.00410829 -0.05815 -0.00431114
v 0.0076686 -0.0233917 -0.00938969
v 0.00409075 -0.05815 -0.0047029
v 0.00404611 -0.0585396 -0.0047029
v 0.00397276 -0.0588521 -0.00497284
v 0.00406524 -0.0585396 -0.00431114
v 0.0074406 -0.0230021 -0.0103118
v 0.00750119 -0.023276 -0.0100442
v 0.00396001 -0.0583776 -0.0053001
v 0.00713129 -0.0296413 0.0066223
v 0.00713129 -0.0296413 -0.00665453
v 0.00747728 -0.0263738 -0.0070463
v 0.00415134 -0.0577603 0.00388715
v 0.0032489 -0.0600788 0.00582445
v 0.00319629 -0.0603373 0.00568351
v 0.00352314 -0.0598204 0.00554496
v 0.00357735 -0.0599284 0.00528458
v 0.0036491 -0.0600788 0.00427891
v 0.00360605 -0.0599901 0.00506004
v 0.00363794 -0.0600557 0.00467067
v 0.00397436 -0.0591993 0.00388715
v 0.0036491 -0.0600827 0.00388715
v 0.00397436 -0.0591993 -0.00392177
v 0.0040206 -0.0589292 -0.00392177
v 0.00406843 -0.0585396 -0.00392177
v 0.00415134 -0.0577603 -0.00392177
v 0.00318672 -0.0591646 -0.00647299
v 0.00301134 -0.0589292 -0.00669753
v 0.0029651 -0.0592841 -0.00664259
v 0.00273391 -0.0594037 -0.00681219
v 0.00259838 -0.0592919 -0.0069388
v 0.00219181 -0.059342 -0.00715857
v 0.00197975 -0.0594848 -0.00722068
v 0.00190003 -0.0597124 -0.00718723
v 0.00162739 -0.0599323 -0.00724695
v 0.00170392 -0.0597124 -0.00727562
v 0.00183307 -0.059342 -0.007321
v 0.00141693 -0.0597124 -0.007364
v 0.0010263 -0.060102 -0.00737834
v 0.00105659 -0.0616914 -0.00695791
v 0.00120806 -0.061838 -0.00683847
v 0.0016529 -0.0618958 -0.0064921
v 0.00141693 -0.0619421 -0.00657332
v 0.00105659 -0.0619807 -0.00668798
v 0.000635666 -0.0620656 -0.00665453
v 0.000913094 -0.0608002 -0.00726606
v 0.00127184 -0.0603682 -0.0072589
v 0.000603778 -0.0616335 -0.00714901
v 0.00277696 -0.0618534 0.00427891
v 0.00275464 -0.0618148 0.00467067
v 0.00219819 -0.0620656 -0.00509227
v 0.00255693 -0.0619691 -0.0047029
v 0.00258085 -0.0619691 -0.00431114
v 0.00278174 -0.0618573 -0.00392177
v 0.00278174 -0.0618573 0.00388715
v 0.00281682 -0.0615332 0.00506004
v 0.00278652 -0.0614753 0.00526069
v 0.00283595 -0.0612516 0.00541596
v 0.00474446 -0.0521589 -0.0047029
v 0.00401741 -0.0589292 -0.00431114
v 0.0039903 -0.058964 -0.00473157
v 0.00394566 -0.0591144 -0.00487967
v 0.00372085 -0.0593227 -0.00548403
v 0.00363794 -0.0588984 -0.00589013
v 0.00361243 -0.0593227 -0.00576591
v 0.00356778 -0.0587479 -0.00607167
v 0.00590997 -0.0411682 0.00506004
v 0.00590997 -0.0411682 -0.00509227
v 0.00312613 -0.0605996 0.00553301
v 0.00344183 -0.0600788 0.0054303
v 0.00318194 -0.0607038 0.00527264
v 0.00321223 -0.0607617 0.00506004
v 0.00287581 -0.0616567 0.00427891
v 0.00326485 -0.0608735 0.00388715
v 0.00285827 -0.0616181 0.00467067
v 0.0032489 -0.0608388 0.00467067
v 0.0036491 -0.0600827 -0.00392177
v 0.00397436 -0.0591954 -0.00431114
v 0.0035359 -0.0590064 -0.00603106
v 0.00328398 -0.0593034 -0.0062795
v 0.00314048 -0.059423 -0.00642044
v 0.00287741 -0.0597124 -0.00654943
v 0.00265259 -0.0597124 -0.00674292
v 0.00245648 -0.0597124 -0.00689341
v 0.00219819 -0.0597124 -0.00703435
v 0.00128937 -0.0615795 -0.00688864
v 0.00155086 -0.061375 -0.00681219
v 0.00141852 -0.0616914 -0.00676203
v 0.00203875 -0.0618958 -0.00610989
v 0.00179321 -0.061946 -0.00625083
v 0.00173103 -0.0616644 -0.00655182
v 0.00199091 -0.0614483 -0.00644671
v 0.00192554 -0.0616644 -0.00638221
v 0.00141693 -0.0620463 -0.00626516
v 0.00180756 -0.0620501 -0.0058734
v 0.00223486 -0.0619807 -0.00551987
v 0.00251069 -0.0619576 -0.00509227
v 0.00277696 -0.0618495 -0.00431114
v 0.00326485 -0.0608735 -0.00392177
v 0.00323615 -0.06048 0.00542313
v 0.00396639 -0.0591684 -0.0046193
v 0.00370969 -0.0597124 -0.00509227
v 0.00361562 -0.0596931 -0.00545537
v 0.00357895 -0.0595465 -0.0057038
v 0.00349763 -0.0593227 -0.00596179
v 0.00364751 -0.0600788 -0.00431114
v 0.0037639 -0.0597124 -0.0047029
v 0.00323296 -0.0597124 -0.00614573
v 0.00307192 -0.0597124 -0.0063416
v 0.00281203 -0.0599554 -0.00648493
v 0.00240227 -0.0607038 -0.00646821
v 0.00239749 -0.059913 -0.0068528
v 0.00206426 -0.0611899 -0.0065136
v 0.00205469 -0.0603836 -0.00688386
v 0.00219022 -0.0600673 -0.00691969
v 0.00170392 -0.0608851 -0.00690297
v 0.00163377 -0.0611127 -0.00686236
v 0.00211049 -0.0616644 -0.00618872
v 0.00237198 -0.0614329 -0.00604062
v 0.00232096 -0.0616991 -0.0058949
v 0.00238952 -0.0618534 -0.00567275
v 0.00212484 -0.0619421 -0.0058734
v 0.00245329 -0.061919 -0.00541237
v 0.00275145 -0.061811 -0.0047029
v 0.00285668 -0.0616142 -0.0047029
v 0.00287581 -0.0616567 -0.00431114
v 0.00363634 -0.0600518 -0.0047029
v 0.00360127 -0.0599824 -0.00509227
v 0.00357257 -0.0599245 -0.00530726
v 0.00351995 -0.0598088 -0.00556764
v 0.00318991 -0.0603296 -0.00570619
v 0.00323934 -0.0600711 -0.00585191
v 0.00342748 -0.0596931 -0.00584952
v 0.00318194 -0.0599207 -0.00607884
v 0.00296031 -0.0600711 -0.00624367
v 0.0027371 -0.0602177 -0.00640849
v 0.00244532 -0.0611744 -0.006129
v 0.00246126 -0.0615949 -0.00578024
v 0.0028503 -0.0604183 -0.00614811
v 0.00279131 -0.0610934 -0.00568947
v 0.00254577 -0.0616991 -0.00551987
v 0.00271956 -0.0616682 -0.00512811
v 0.0028216 -0.0615448 -0.005023
v 0.00324731 -0.060835 -0.0047029
v 0.00320745 -0.0607539 -0.00509227
v 0.00343385 -0.0600711 -0.00545537
v 0.00317875 -0.0606961 -0.00529532
v 0.00311019 -0.060183 -0.00596657
v 0.00312135 -0.0605881 -0.0055557
v 0.00283914 -0.061186 -0.00548403
v 0.00278015 -0.0614676 -0.00528338
f 1 2 3
f 1 3 4
f 1 4 5
f 1 5 6
f 1 6 7
f 1 7 2
f 2 8 9
f 2 9 3
f 2 7 10
f 2 10 11
f 2 11 12
f 2 12 8
f 3 9 13
f 3 13 14
f 3 14 15
f 3 15 16
f 3 16 4
f 4 16 17
f 4 17 18
f 4 18 19
f 4 19 5
f 5 19 6
f 6 20 21
f 6 21 22
f 6 22 23
f 6 23 24
f 6 24 7
f 6 19 20
f 7 24 25
f 7 25 26
f 7 26 10
f 8 27 9
f 8 12 27
f 9 28 29
f 9 29 13
f 9 27 28
f 10 26 30
f 10 30 31
f 10 31 32
f 10 32 11
f 11 32 33
f 11 33 12
f 12 33 34
f 12 34 35
f 12 35 27
f 13 29 36
f 13 36 37
f 13 37 38
f 13 38 14
f 14 38 39
f 14 39 40
f 14 40 15
f 15 40 41
f 15 41 42
f 15 42 16
f 16 42 17
f 17 42 43
f 17 43 44
f 17 44 45
f 17 45 46
f 17 46 47
f 17 47 18
f 18 47 48
f 18 48 19
f 19 48 49
f 19 49 20
f 20 50 21
f 20 49 51
f 20 51 50
f 21 50 52
f 21 52 22
f 22 52 53
f 22 53 54
f 22 54 23
f 23 54 55
f 23 55 24
f 24 55 25
f 25 55 56
f 25 56 26
f 26 56 57
f 26 57 30
f 27 58 29
f 27 29 28
f 27 35 59
f 27 59 58
f 29 60 61
f 29 61 36
f 29 58 62
f 29 62 60
f 30 57 63
f 30 63 64
f 30 64 31
f 31 64 65
f 31 65 66
f 31 66 32
f 32 66 33
f 33 66 34
f 34 67 35
f 34 66 67
f 35 67 68
f 35 68 59
f 36 61 37
f 37 69 70
f 37 70 40
f 37 40 38
f 37 61 71
f 37 71 72
f 37 72 69
f 38 40 39
f 40 70 73
f 40 73 74
f 40 74 41
f 41 74 42
f 42 74 75
f 42 75 76
f 42 76 77
f 42 77 78
f 42 78 43
f 43 78 79
f 43 79 44
f 44 79 80
f 44 80 81
f 44 81 82
f 44 82 83
f 44 83 84
f 44 84 85
f 44 85 45
f 45 85 46
f 46 85 84
f 46 84 86
f 46 86 87
f 46 87 88
f 46 88 89
f 46 89 90
f 46 90 91
f 46 91 92
f 46 92 47
f 47 93 48
f 47 92 93
f 48 93 94
f 48 94 51
f 48 51 49
f 50 95 96
f 50 96 52
f 50 51 97
f 50 97 98
f 50 98 95
f 51 94 93
f 51 93 99
f 51 99 98
f 51 98 97
f 52 100 53
f 52 96 100
f 53 100 101
f 53 101 102
f 53 102 54
f 54 102 55
f 55 102 103
f 55 103 56
f 56 103 57
f 57 103 104
f 57 104 63
f 58 59 68
f 58 68 105
f 58 105 106
f 58 106 107
f 58 107 108
f 58 108 109
f 58 109 110
f 58 110 62
f 60 111 61
f 60 62 112
f 60 112 111
f 61 111 71
f 63 113 64
f 63 104 114
f 63 114 113
f 64 113 115
f 64 115 116
f 64 116 117
f 64 117 65
f 65 117 118
f 65 118 119
f 65 119 67
f 65 67 66
f 67 119 118
f 67 118 68
f 68 120 121
f 68 121 122
f 68 122 123
f 68 123 105
f 68 118 120
f 69 124 125
f 69 125 126
f 69 126 127
f 69 127 128
f 69 128 129
f 69 129 70
f 69 72 130
f 69 130 124
f 70 129 128
f 70 128 131
f 70 131 73
f 71 111 132
f 71 132 72
f 72 132 133
f 72 133 134
f 72 134 135
f 72 135 130
f 73 131 136
f 73 136 76
f 73 76 75
f 73 75 74
f 76 136 77
f 77 137 78
f 77 136 138
f 77 138 139
f 77 139 140
f 77 140 141
f 77 141 142
f 77 142 137
f 78 137 142
f 78 142 143
f 78 143 144
f 78 144 145
f 78 145 79
f 79 145 146
f 79 146 80
f 80 146 81
f 81 147 148
f 81 148 82
f 81 146 147
f 82 148 83
f 83 86 84
f 83 148 149
f 83 149 86
f 86 149 89
f 86 89 88
f 86 88 87
f 89 149 90
f 90 150 151
f 90 151 91
f 90 149 150
f 91 151 152
f 91 152 92
f 92 153 93
f 92 152 154
f 92 154 155
f 92 155 153
f 93 153 99
f 95 156 100
f 95 100 96
f 95 98 157
f 95 157 155
f 95 155 156
f 98 99 157
f 99 153 155
f 99 155 157
f 100 158 101
f 100 156 159
f 100 159 158
f 101 158 160
f 101 160 161
f 101 161 162
f 101 162 163
f 101 163 164
f 101 164 165
f 101 165 166
f 101 166 167
f 101 167 168
f 101 168 102
f 102 168 103
f 103 169 104
f 103 168 169
f 104 169 114
f 62 110 170
f 62 170 171
f 62 171 112
f 105 123 172
f 105 172 173
f 105 173 106
f 106 173 107
f 107 173 108
f 108 173 174
f 108 174 175
f 108 175 176
f 108 176 177
f 108 177 109
f 109 177 110
f 110 177 178
f 110 178 171
f 110 171 170
f 111 112 132
f 113 114 179
f 113 179 180
f 113 180 181
f 113 181 182
f 113 182 183
f 113 183 184
f 113 184 115
f 114 169 179
f 115 117 116
f 115 184 122
f 115 122 185
f 115 185 117
f 117 185 186
f 117 186 120
f 117 120 118
f 120 186 121
f 121 186 185
f 121 185 122
f 122 187 172
f 122 172 123
f 122 184 187
f 124 188 127
f 124 127 125
f 124 130 189
f 124 189 188
f 125 127 126
f 127 188 190
f 127 190 191
f 127 191 192
f 127 192 131
f 127 131 128
f 130 135 193
f 130 193 194
f 130 194 189
f 131 192 195
f 131 195 136
f 132 112 196
f 132 196 197
f 132 197 198
f 132 198 133
f 133 198 199
f 133 199 134
f 134 200 193
f 134 193 135
f 134 199 200
f 136 195 138
f 138 195 201
f 138 201 202
f 138 202 139
f 139 202 203
f 139 203 140
f 141 140 204
f 141 204 205
f 141 205 206
f 141 206 207
f 141 207 208
f 141 208 142
f 143 142 209
f 143 209 210
f 143 210 144
f 145 147 146
f 145 144 211
f 145 211 147
f 147 211 212
f 147 212 148
f 148 212 213
f 148 213 214
f 148 214 215
f 148 215 149
f 149 215 216
f 149 216 217
f 149 217 218
f 149 218 150
f 150 218 219
f 150 219 151
f 151 219 220
f 151 220 152
f 152 220 154
f 154 220 159
f 154 159 156
f 154 156 155
f 158 159 221
f 158 221 222
f 158 222 160
f 159 220 221
f 168 167 169
f 169 167 223
f 169 223 224
f 169 224 179
f 112 171 225
f 112 225 196
f 171 178 177
f 171 177 226
f 171 226 225
f 172 187 227
f 172 227 174
f 172 174 173
f 174 227 175
f 175 227 228
f 175 228 229
f 175 229 230
f 175 230 231
f 175 231 176
f 176 231 177
f 177 231 232
f 177 232 226
f 179 224 233
f 179 233 234
f 179 234 180
f 180 234 235
f 180 235 236
f 180 236 237
f 180 237 181
f 181 237 182
f 182 237 228
f 182 228 183
f 183 228 238
f 183 238 187
f 183 187 184
f 187 238 227
f 188 189 239
f 188 239 190
f 189 194 239
f 190 240 191
f 190 239 241
f 190 241 242
f 190 242 240
f 191 243 192
f 191 240 243
f 192 244 195
f 192 243 245
f 192 245 246
f 192 246 247
f 192 247 248
f 192 248 244
f 193 200 249
f 193 249 194
f 194 249 239
f 195 244 250
f 195 250 201
f 196 225 251
f 196 251 252
f 196 252 198
f 196 198 197
f 198 252 199
f 199 252 253
f 199 253 254
f 199 254 255
f 199 255 256
f 199 256 200
f 200 257 249
f 200 256 258
f 200 258 255
f 200 255 257
f 142 208 209
f 201 250 259
f 201 259 260
f 201 260 202
f 202 260 261
f 202 261 203
f 140 203 204
f 204 262 263
f 204 263 264
f 204 264 265
f 204 265 205
f 204 203 262
f 205 265 266
f 205 266 267
f 205 267 206
f 206 267 207
f 207 267 208
f 208 267 268
f 208 268 269
f 208 269 209
f 144 210 270
f 144 270 271
f 144 271 272
f 144 272 211
f 209 269 273
f 209 273 210
f 210 273 270
f 211 272 274
f 211 274 212
f 212 274 214
f 212 214 213
f 214 274 275
f 214 275 276
f 214 276 277
f 214 277 215
f 215 277 216
f 216 278 217
f 216 277 279
f 216 279 278
f 217 278 219
f 217 219 218
f 219 278 220
f 220 280 277
f 220 277 222
f 220 222 221
f 220 278 280
f 160 222 276
f 160 276 281
f 160 281 161
f 167 282 223
f 167 166 282
f 223 282 283
f 223 283 284
f 223 284 233
f 223 233 224
f 225 226 285
f 225 285 251
f 226 232 286
f 226 286 285
f 227 238 228
f 228 237 229
f 229 237 236
f 229 236 235
f 229 235 287
f 229 287 288
f 229 288 230
f 230 288 231
f 231 286 232
f 231 288 289
f 231 289 290
f 231 290 286
f 233 284 291
f 233 291 292
f 233 292 293
f 233 293 294
f 233 294 234
f 234 294 295
f 234 295 296
f 234 296 235
f 235 296 287
f 239 249 297
f 239 297 241
f 240 298 243
f 240 242 299
f 240 299 298
f 241 297 242
f 242 297 300
f 242 300 299
f 243 298 245
f 244 248 250
f 245 301 247
f 245 247 246
f 245 298 302
f 245 302 303
f 245 303 304
f 245 304 301
f 247 301 248
f 248 301 305
f 248 305 250
f 249 257 306
f 249 306 307
f 249 307 308
f 249 308 297
f 250 305 259
f 251 285 309
f 251 309 310
f 251 310 252
f 252 311 253
f 252 310 312
f 252 312 313
f 252 313 311
f 253 311 254
f 254 311 314
f 254 314 315
f 254 315 316
f 254 316 255
f 255 258 256
f 255 316 317
f 255 317 306
f 255 306 257
f 259 305 260
f 260 304 318
f 260 318 261
f 260 305 304
f 203 261 319
f 203 319 320
f 203 320 321
f 203 321 322
f 203 322 323
f 203 323 324
f 203 324 325
f 203 325 326
f 203 326 327
f 203 327 262
f 262 327 263
f 263 328 264
f 263 327 328
f 264 329 330
f 264 330 265
f 264 328 331
f 264 331 332
f 264 332 329
f 265 330 333
f 265 333 266
f 266 333 334
f 266 334 335
f 266 335 267
f 267 335 268
f 268 335 336
f 268 336 337
f 268 337 269
f 270 273 338
f 270 338 339
f 270 339 340
f 270 340 271
f 271 340 272
f 272 340 274
f 269 337 338
f 269 338 273
f 274 340 275
f 275 340 281
f 275 281 276
f 276 222 277
f 277 280 279
f 278 279 280
f 161 281 337
f 161 337 336
f 161 336 162
f 281 340 339
f 281 339 338
f 281 338 337
f 282 341 342
f 282 342 283
f 282 166 341
f 166 165 343
f 166 343 344
f 166 344 345
f 166 345 341
f 283 342 346
f 283 346 284
f 284 346 291
f 285 286 309
f 286 290 309
f 287 296 288
f 288 296 347
f 288 347 289
f 289 347 348
f 289 348 349
f 289 349 290
f 290 350 309
f 290 349 350
f 291 346 351
f 291 351 352
f 291 352 353
f 291 353 349
f 291 349 354
f 291 354 293
f 291 293 292
f 293 354 355
f 293 355 294
f 294 355 295
f 295 355 347
f 295 347 296
f 297 308 356
f 297 356 357
f 297 357 358
f 297 358 300
f 298 299 359
f 298 359 302
f 299 300 360
f 299 360 361
f 299 361 362
f 299 362 359
f 300 358 363
f 300 363 360
f 301 304 305
f 302 359 303
f 303 364 304
f 303 359 365
f 303 365 366
f 303 366 364
f 304 364 318
f 306 367 368
f 306 368 369
f 306 369 308
f 306 308 307
f 306 317 370
f 306 370 367
f 309 350 371
f 309 371 372
f 309 372 373
f 309 373 310
f 310 373 374
f 310 374 312
f 311 313 375
f 311 375 314
f 312 374 376
f 312 376 377
f 312 377 313
f 313 377 375
f 314 378 315
f 314 375 379
f 314 379 378
f 315 378 380
f 315 380 381
f 315 381 382
f 315 382 316
f 316 382 383
f 316 383 370
f 316 370 317
f 261 318 384
f 261 384 385
f 261 385 320
f 261 320 319
f 320 385 384
f 320 384 386
f 320 386 387
f 320 387 388
f 320 388 321
f 321 388 323
f 321 323 322
f 323 388 389
f 323 389 390
f 323 390 391
f 323 391 392
f 323 392 393
f 323 393 394
f 323 394 324
f 324 394 395
f 324 395 325
f 325 395 396
f 325 396 327
f 325 327 326
f 327 396 328
f 328 396 331
f 329 332 397
f 329 397 398
f 329 398 399
f 329 399 400
f 329 400 401
f 329 401 330
f 330 401 402
f 330 402 333
f 331 403 404
f 331 404 405
f 331 405 332
f 331 396 395
f 331 395 403
f 332 405 397
f 333 402 334
f 334 402 162
f 334 162 335
f 335 162 336
f 162 402 163
f 341 345 406
f 341 406 342
f 342 406 407
f 342 407 346
f 165 164 408
f 165 408 409
f 165 409 410
f 165 410 343
f 344 343 411
f 344 411 412
f 344 412 345
f 345 412 406
f 346 407 351
f 347 355 348
f 348 355 354
f 348 354 349
f 349 372 371
f 349 371 350
f 349 353 372
f 351 407 413
f 351 413 414
f 351 414 352
f 352 414 415
f 352 415 353
f 353 415 372
f 308 369 356
f 356 369 368
f 356 368 383
f 356 383 416
f 356 416 357
f 357 416 358
f 358 416 382
f 358 382 363
f 359 362 366
f 359 366 365
f 360 363 361
f 361 363 417
f 361 417 418
f 361 418 362
f 362 418 419
f 362 419 420
f 362 420 366
f 363 382 381
f 363 381 417
f 364 366 421
f 364 421 318
f 366 420 422
f 366 422 421
f 318 421 423
f 318 423 384
f 367 370 424
f 367 424 425
f 367 425 368
f 370 383 425
f 370 425 424
f 372 426 427
f 372 427 373
f 372 415 426
f 373 427 374
f 374 427 428
f 374 428 413
f 374 413 429
f 374 429 376
f 375 377 430
f 375 430 431
f 375 431 379
f 376 429 432
f 376 432 433
f 376 433 377
f 377 433 430
f 378 379 434
f 378 434 380
f 381 380 435
f 381 435 417
f 382 416 383
f 384 423 436
f 384 436 437
f 384 437 438
f 384 438 386
f 386 438 387
f 387 438 439
f 387 439 440
f 387 440 441
f 387 441 388
f 388 441 389
f 389 441 442
f 389 442 391
f 389 391 390
f 391 442 443
f 391 443 392
f 392 404 393
f 392 443 397
f 392 397 404
f 393 404 394
f 394 404 395
f 395 404 403
f 397 443 398
f 397 405 404
f 398 443 444
f 398 444 445
f 398 445 399
f 399 446 447
f 399 447 400
f 399 445 448
f 399 448 449
f 399 449 450
f 399 450 446
f 400 447 451
f 400 451 401
f 401 451 402
f 402 451 163
f 163 451 452
f 163 452 164
f 406 412 430
f 406 430 432
f 406 432 407
f 407 432 413
f 164 452 408
f 408 452 453
f 408 453 454
f 408 454 409
f 409 454 455
f 409 455 410
f 410 455 411
f 410 411 343
f 412 411 456
f 412 456 431
f 412 431 430
f 413 432 429
f 413 428 414
f 414 428 427
f 414 427 457
f 414 457 426
f 414 426 415
f 368 425 383
f 417 435 458
f 417 458 418
f 418 458 419
f 419 458 459
f 419 459 420
f 420 459 460
f 420 460 461
f 420 461 422
f 421 422 436
f 421 436 423
f 422 461 462
f 422 462 436
f 426 457 427
f 379 431 456
f 379 456 434
f 430 433 432
f 380 434 435
f 435 434 463
f 435 463 464
f 435 464 458
f 436 462 437
f 437 462 465
f 437 465 438
f 438 465 466
f 438 466 439
f 439 466 467
f 439 467 468
f 439 468 440
f 440 469 441
f 440 468 470
f 440 470 469
f 441 469 471
f 441 471 472
f 441 472 442
f 442 472 473
f 442 473 443
f 443 473 474
f 443 474 444
f 444 448 445
f 444 474 471
f 444 471 469
f 444 469 448
f 446 450 475
f 446 475 476
f 446 476 477
f 446 477 478
f 446 478 479
f 446 479 447
f 447 479 452
f 447 452 451
f 448 470 449
f 448 469 470
f 449 470 468
f 449 468 475
f 449 475 450
f 452 479 453
f 453 479 480
f 453 480 454
f 454 480 481
f 454 481 455
f 455 481 482
f 455 482 483
f 455 483 411
f 411 483 456
f 458 464 459
f 459 464 484
f 459 484 485
f 459 485 486
f 459 486 460
f 460 486 487
f 460 487 461
f 461 487 488
f 461 488 489
f 461 489 490
f 461 490 465
f 461 465 462
f 434 456 463
f 456 483 463
f 463 484 464
f 463 483 484
f 465 490 491
f 465 491 466
f 466 491 492
f 466 492 493
f 466 493 467
f 467 493 468
f 468 493 475
f 471 474 472
f 472 474 473
f 475 493 494
f 475 494 476
f 476 495 478
f 476 478 477
f 476 494 496
f 476 496 491
f 476 491 495
f 478 495 491
f 478 491 497
f 478 497 498
f 478 498 480
f 478 480 479
f 480 498 499
f 480 499 481
f 481 499 500
f 481 500 482
f 482 501 483
f 482 500 485
f 482 485 501
f 483 501 484
f 484 501 485
f 485 500 502
f 485 502 486
f 486 503 487
f 486 502 500
f 486 500 504
f 486 504 503
f 487 503 488
f 488 505 489
f 488 503 506
f 488 506 507
f 488 507 497
f 488 497 505
f 489 505 491
f 489 491 490
f 491 496 492
f 491 505 497
f 492 496 493
f 493 496 494
f 497 507 498
f 498 507 508
f 498 508 499
f 499 508 500
f 500 508 504
f 503 504 506
f 504 508 506
f 506 508 507
