v -0.012207 -0.0816408 2.31323e-05
v -0.0120011 -0.081827 -0.0003484
v -0.0118972 -0.080081 0.00283094
v -0.0122622 -0.0814246 0.000136075
v -0.0121562 -0.0815212 -0.000881188
v -0.0121438 -0.081653 -0.00046465
v -0.0116648 -0.0820431 -0.000342685
v -0.0120724 -0.0817903 0.000229882
v -0.0122078 -0.0814537 0.000803349
v -0.012115 -0.081042 0.00181855
v -0.0120026 -0.0804894 0.0023055
v -0.0118988 -0.0801732 -0.00282283
v -0.0120023 -0.0807856 -0.00231182
v -0.0121568 -0.0811854 -0.00149567
v -0.011652 -0.0819961 -0.00052214
v -0.0121229 -0.0815375 0.000983995
v -0.0119394 -0.0803631 0.00273763
v -0.0116039 -0.0792646 0.00366309
v -0.00968747 -0.071929 0.00563496
v -0.00696155 -0.0619966 -0.00693735
v -0.00959233 -0.0716487 -0.00572869
v -0.0115052 -0.0787634 -0.00383663
v -0.0115052 -0.078843 -0.00383663
v -0.0119246 -0.0803923 -0.00269474
v -0.012092 -0.0814117 -0.00131977
v -0.0120795 -0.0815979 -0.000941658
v -0.0120331 -0.0812797 -0.00165796
v -0.0118627 -0.0818073 -0.00086078
v -0.0116939 -0.0820258 0.000120114
v -0.0117701 -0.0819592 0.000448647
v -0.0120754 -0.0811998 0.00169906
v -0.0118866 -0.0810434 0.00215534
v -0.0118952 -0.0805471 0.00261855
v -0.0112986 -0.078213 0.00421167
v -0.0112948 -0.0779641 0.00422015
v -0.00965576 -0.0718574 0.00571121
v -0.00767799 -0.064693 0.00683938
v -0.00714309 -0.0623826 0.00632073
v -0.00692119 -0.0618992 3.50287e-05
v -0.00690245 -0.0618574 -0.00693735
v -0.00767799 -0.064693 -0.00684416
v -0.00827478 -0.06693 -0.00660413
v -0.00868417 -0.0685049 -0.00643892
v -0.00968315 -0.0721398 -0.00583036
v -0.0108998 -0.0767352 -0.00463723
v -0.0110958 -0.0775385 -0.00442826
v -0.0110958 -0.0776002 -0.00442826
v -0.0118162 -0.0804841 -0.00275428
v -0.0117662 -0.0813321 -0.00188659
v -0.0115484 -0.0819987 -0.000613665
v -0.0118119 -0.0818044 0.00095552
v -0.0119434 -0.0816171 0.0011879
v -0.0119188 -0.0814955 0.00147706
v -0.011646 -0.0806616 0.00268116
v -0.0116528 -0.0801183 0.00310658
v -0.0112921 -0.0789772 0.00385473
v -0.0105264 -0.0754645 0.00507582
v -0.0103203 -0.0746612 0.00526502
v -0.00988785 -0.0729392 0.00562931
v -0.00969036 -0.0722969 0.00583405
v -0.00954332 -0.0716487 0.00590324
v -0.00787548 -0.0655122 0.00683091
v -0.0072758 -0.0632792 0.00703847
v -0.00690341 -0.061863 0.00708714
v -0.00690245 -0.0618574 0.00693258
v -0.00686064 -0.0618395 3.50287e-05
v -0.00676838 -0.0618037 -0.00693735
v -0.00690754 -0.0618616 -0.00708669
v -0.00676838 -0.0619966 -0.00720845
v -0.00728013 -0.0632672 -0.00704749
v -0.00828775 -0.0670632 -0.00664507
v -0.00869138 -0.0686302 -0.00644598
v -0.0090878 -0.0700877 -0.00623983
v -0.00968892 -0.0722074 -0.00583459
v -0.0103203 -0.0746612 -0.00527404
v -0.010702 -0.0760429 -0.00486494
v -0.0109113 -0.0768724 -0.00464994
v -0.0115656 -0.0793453 -0.00363327
v -0.0118965 -0.0815883 -0.00132745
v -0.0116969 -0.0809831 -0.00234037
v -0.0118346 -0.0813881 -0.00173364
v -0.0117553 -0.0806447 -0.00263086
v -0.0113442 -0.0821013 -3.50867e-05
v -0.011489 -0.0820671 0.000329297
v -0.0114955 -0.0819875 0.000712824
v -0.0113532 -0.0820451 0.000507018
v -0.011674 -0.0809945 0.00234418
v -0.0116902 -0.0815379 0.00163499
v -0.0114579 -0.0806539 0.00275018
v -0.011491 -0.0799227 0.00328936
v -0.0113259 -0.0797593 0.00341418
v -0.0113225 -0.079272 0.00369598
v -0.011191 -0.0787177 0.00398576
v -0.0106985 -0.0762343 0.00489513
v -0.0103347 -0.074862 0.00526361
v -0.00931844 -0.0710442 0.00605714
v -0.00828055 -0.0670911 0.00663323
v -0.0101228 -0.0740567 0.00545423
v -0.00969036 -0.07245 0.00583264
v -0.00788124 -0.0656156 0.00683656
v -0.00728301 -0.0634044 0.00704271
v -0.00676838 -0.0619966 0.00719944
v -0.00676838 -0.0618037 0.00693258
v -0.00656801 -0.0617898 0.00693258
v -0.00656801 -0.0617898 -0.00693735
v -0.00656801 -0.0619966 -0.00721834
v -0.00676838 -0.0621974 -0.00720139
v -0.00729598 -0.0636053 -0.00705314
v -0.00729022 -0.0634044 -0.00705455
v -0.00787692 -0.0657011 -0.00683569
v -0.0082964 -0.0672243 -0.00664931
v -0.00908924 -0.0702388 -0.00623983
v -0.00969324 -0.07245 -0.00583742
v -0.00969036 -0.0722492 -0.00583601
v -0.0101286 -0.0740567 -0.0054703
v -0.0105264 -0.0754645 -0.00507353
v -0.0107268 -0.0762699 -0.00486597
v -0.0110938 -0.0777619 -0.00440349
v -0.0115041 -0.0796273 -0.00348481
v -0.0114107 -0.0805288 -0.00286177
v -0.0113463 -0.0797712 -0.00340522
v -0.0115108 -0.0808002 -0.00260606
v -0.0117044 -0.081671 -0.00138706
v -0.0114979 -0.0818189 -0.00120479
v -0.0113429 -0.081932 -0.000956455
v -0.0111095 -0.0820371 -0.000607664
v -0.0114153 -0.0818705 0.00112195
v -0.0114827 -0.0816113 0.00161796
v -0.0112982 -0.0804933 0.00290523
v -0.0111831 -0.0792001 0.00374006
v -0.00856923 -0.0790165 0.00383798
v -0.00824991 -0.0786821 0.00400298
v -0.0108881 -0.0771837 0.00462326
v -0.0106948 -0.0765604 0.00482757
v -0.00938043 -0.0716487 0.00599784
v -0.00931556 -0.071247 0.00604585
v -0.00828055 -0.0671706 0.00663323
v -0.00788268 -0.0657807 0.00683656
v -0.00968603 -0.0725594 0.00582699
v -0.00728157 -0.0636053 0.00703989
v -0.00656801 -0.0618435 0.00712037
v -0.00676838 -0.0621974 0.00718956
v -0.000994064 -0.0619089 -0.00701702
v -0.0028569 -0.0618821 -0.00707309
v -0.00415634 -0.0618693 -0.00710114
v -0.00556183 -0.0618534 -0.00712232
v -0.00656437 -0.0618435 -0.00713097
v -0.00556183 -0.0619966 -0.00720704
v -0.00616439 -0.0619966 -0.0072141
v -0.000739924 -0.0621994 -0.00718586
v -0.000940296 -0.0621994 -0.00718727
v -0.00605032 -0.0620713 -0.0072175
v -0.00717346 -0.0635628 -0.00707726
v -0.00787692 -0.065725 -0.00683569
v -0.00828919 -0.0674251 -0.00664084
v -0.00908492 -0.0703561 -0.0062356
v -0.00968892 -0.0725673 -0.00583318
v -0.00991235 -0.0732553 -0.00565386
v -0.0104848 -0.0754548 -0.00511744
v -0.0109676 -0.0783646 -0.00415268
v -0.0111988 -0.0788045 -0.00394498
v -0.0104375 -0.0762988 -0.0049204
v -0.0107703 -0.0771788 -0.00462618
v -0.0112658 -0.0800255 -0.00324572
v -0.011322 -0.0802458 -0.00308595
v -0.0114907 -0.0806095 -0.00277402
v -0.0110862 -0.0792055 -0.00374961
v -0.0115081 -0.0811144 -0.00228973
v -0.0113926 -0.0812455 -0.00216943
v -0.0114865 -0.0815703 -0.00168494
v -0.0115947 -0.0816765 -0.0014353
v -0.0113493 -0.0817748 -0.00133915
v -0.0106646 -0.082071 -0.000465008
v -0.00935669 -0.0821084 1.78365e-06
v -0.0118008 -0.0816527 0.0013044
v -0.0115903 -0.0817501 0.0012917
v -0.0111485 -0.081968 0.000841265
v -0.00937415 -0.0820315 0.000663439
v -0.0115052 -0.0809945 0.00240999
v -0.0115703 -0.0812741 0.00208188
v -0.0112628 -0.0813211 0.0020805
v -0.0110033 -0.0805056 0.00289126
v -0.0107804 -0.0802603 0.00308664
v -0.00870651 -0.0796887 0.00346309
v -0.0112998 -0.0794091 0.00361987
v -0.00816213 -0.0782927 0.00418213
v -0.00817531 -0.0780754 0.00427522
v -0.0107815 -0.078076 0.00427953
v -0.00767049 -0.0767486 0.00477516
v -0.00801008 -0.0772997 0.00458387
v -0.00789844 -0.0760317 0.00500814
v -0.0100128 -0.0750771 0.00527849
v -0.0103713 -0.0754061 0.00518044
v -0.00938013 -0.0718249 0.00597583
v -0.00797494 -0.0666218 0.0067349
v -0.00429753 -0.0621189 0.00724028
v -0.000539553 -0.0620105 0.00710907
v -0.00415778 -0.0618693 0.00708931
v -0.0046419 -0.0655367 0.00688727
v -0.00249801 -0.0618859 0.00705621
v -0.000686341 -0.0619173 0.00698043
v 0.00127366 -0.0619579 0.0062858
v 0.00227575 -0.0619787 -0.00452427
v 0.00124155 -0.0619612 -0.00634568
v -0.000664074 -0.0619164 -0.00693597
v -0.000499318 -0.0620645 -0.00717195
v -0.000739924 -0.0620065 -0.00711809
v -0.00455997 -0.0618654 -0.0071082
v -0.00355378 -0.0619966 -0.00717174
v -0.00415634 -0.0619966 -0.00718445
v -0.00455997 -0.0619966 -0.00719292
v -0.0016118 -0.0640811 -0.00702435
v -0.00508848 -0.0631697 -0.00711408
v -0.00717057 -0.0642078 -0.00701501
v -0.0082791 -0.0675285 -0.00663378
v -0.00895664 -0.0703636 -0.00623751
v -0.00924465 -0.0714477 -0.00605078
v -0.00932988 -0.072269 -0.00590188
v -0.0100145 -0.0740269 -0.00552461
v -0.0101393 -0.0746534 -0.00537848
v -0.0105289 -0.0759941 -0.00500629
v -0.00792248 -0.0780506 -0.00428665
v -0.00760268 -0.077326 -0.00456762
v -0.00883337 -0.0797241 -0.00344022
v -0.00835578 -0.079206 -0.00373594
v -0.010866 -0.0811842 -0.00225621
v -0.0112806 -0.0816084 -0.00165479
v -0.0089757 -0.0818931 -0.00105695
v -0.00905968 -0.0818212 -0.00124599
v -0.00888371 -0.0820555 -0.000405711
v -0.00919161 -0.0820966 0.000178625
v -0.0113914 -0.0815493 0.00173223
v -0.00899052 -0.0818342 0.00121017
v -0.0111854 -0.0818169 0.00125306
v -0.00872597 -0.0820785 -4.09895e-06
v -0.00874398 -0.0820006 0.000616463
v -0.0113891 -0.0811452 0.00227169
v -0.011173 -0.0816743 0.00154869
v -0.0108145 -0.0809332 0.00251566
v -0.00880884 -0.0801815 0.00313223
v -0.0085007 -0.0798325 0.0033603
v -0.00849712 -0.0792165 0.00373349
v -0.00819023 -0.0791793 0.00373517
v -0.00802983 -0.0786814 0.00398945
v -0.00771172 -0.0773527 0.00456057
v -0.00737238 -0.0756674 0.0051097
v -0.00686018 -0.0751613 0.0052478
v -0.0091815 -0.0716487 0.00600773
v -0.0091815 -0.071247 0.00606279
v -0.00777457 -0.066419 0.0067702
v -0.00776317 -0.0660087 0.00682131
v -0.0077708 -0.0658142 0.00684248
v -0.00935841 -0.0721539 0.00592262
v -0.00902952 -0.0720455 0.0059446
v -0.000455885 -0.0621998 0.00716851
v -0.00293619 -0.0660786 0.00681629
v 0.00227575 -0.0619787 -8.74282e-06
v 0.00245161 -0.0620384 -0.00412327
v 0.00241394 -0.062008 -0.00481341
v 0.00245161 -0.0620384 -8.74282e-06
v 0.000466633 -0.0619449 -0.00673685
v -0.000433895 -0.0622025 -0.00716915
v -0.00196917 -0.0642834 -0.0070071
v -0.00780807 -0.0660954 -0.00680593
v -0.00245173 -0.0650127 -0.0069269
v -0.00797446 -0.0673746 -0.0066595
v -0.00898113 -0.0706425 -0.00619041
v -0.00455997 -0.0682265 -0.00654906
v -0.00589441 -0.072756 -0.00580865
v -0.00977113 -0.0740471 -0.00552628
v -0.0101507 -0.0748202 -0.00532961
v -0.00762936 -0.0778849 -0.00433517
v -0.00816126 -0.0786078 -0.00403403
v -0.00832151 -0.078745 -0.00397263
v -0.00998119 -0.0748609 -0.00532236
v -0.00718807 -0.0756028 -0.00512603
v -0.00748107 -0.0763967 -0.00488953
v -0.0103788 -0.0772579 -0.00460207
v -0.00891473 -0.0805891 -0.00281443
v -0.00992428 -0.0809127 -0.00254505
v -0.0110012 -0.0810637 -0.00237629
v -0.00858738 -0.0794014 -0.00362959
v -0.00856178 -0.080035 -0.00323827
v -0.00877936 -0.0798395 -0.00336367
v -0.00897824 -0.0798849 -0.00333538
v -0.0113215 -0.0810133 -0.00241876
v -0.00921964 -0.0816599 -0.00156588
v -0.0089642 -0.0819977 -0.000707082
v -0.00883237 -0.0820188 -0.000576714
v -0.00904257 -0.0816343 0.00160842
v -0.00927014 -0.0819708 0.000832677
v -0.00887598 -0.0819972 0.000704604
v -0.00856312 -0.0820528 4.81033e-06
v -0.0107924 -0.0811836 0.00224984
v -0.00901232 -0.081438 0.00190915
v -0.00900468 -0.0809543 0.00248032
v -0.00901599 -0.0807144 0.00271059
v -0.00872452 -0.0804995 0.00288288
v -0.0082146 -0.0794374 0.00358092
v -0.00805595 -0.0794607 0.00354015
v -0.00752167 -0.077904 0.00430554
v -0.00774385 -0.0780235 0.00427842
v -0.00757276 -0.0768724 0.00472847
v -0.00718225 -0.0761964 0.00495281
v -0.00617605 -0.0738572 0.00556963
v -0.00613897 -0.073087 0.00574085
v -0.00415985 -0.0682262 0.00654714
v -0.00104097 -0.0637695 0.00701414
v 0.000131304 -0.0620571 0.00708763
v -0.00255192 -0.0657906 0.00684221
v 0.000240559 -0.0620317 0.00703246
v 0.000465191 -0.0619449 0.00673066
v 0.00224129 -0.0619796 0.00489837
v 0.00227575 -0.0619807 0.00451808
v 0.00249198 -0.0621974 0.00230832
v 0.00249198 -0.0621974 0.00210782
v 0.002448 -0.0620753 -0.00484978
v 0.00191375 -0.0619996 -0.0057342
v 0.00194729 -0.0620743 -0.00592017
v 0.000408426 -0.0619916 -0.00691263
v 0.000118279 -0.0620404 -0.00706008
v -0.00133644 -0.0642248 -0.00698255
v -0.00167061 -0.0644331 -0.00698239
v -0.0039338 -0.0680258 -0.00657544
v -0.00499414 -0.0704634 -0.00622355
v -0.00392434 -0.0685146 -0.00650931
v -0.00558288 -0.0722296 -0.00591067
v -0.00564919 -0.0715259 -0.00603872
v -0.00639845 -0.0740819 -0.00551675
v -0.00701341 -0.0754743 -0.00516196
v -0.00777169 -0.0770732 -0.00466123
v -0.0073053 -0.0769367 -0.0046929
v -0.00853198 -0.0801591 -0.00313649
v -0.0088285 -0.081537 -0.00174998
v -0.00863731 -0.0818467 -0.00107031
v -0.00897824 -0.081768 0.00134111
v -0.00845732 -0.0819241 0.000720675
v -0.00880297 -0.0812638 0.00212294
v -0.00857617 -0.0802246 0.0030838
v -0.00851553 -0.0804701 0.00288268
v -0.0087784 -0.0808792 0.00254388
v -0.00780536 -0.0791225 0.00369661
v -0.00790719 -0.0789702 0.00380644
v -0.00736706 -0.0783843 0.00401892
v -0.006776 -0.0756932 0.00508454
v -0.00582916 -0.0738637 0.00553494
v -0.00595536 -0.0736451 0.00560531
v -0.00541928 -0.0726597 0.00581056
v -0.00561368 -0.0726226 0.00582901
v -0.00550558 -0.0722727 0.00590002
v -0.0038653 -0.0690911 0.00641359
v -0.00408006 -0.0693539 0.00638539
v -0.0041805 -0.06994 0.00628342
v -0.00373753 -0.0684333 0.00651274
v -0.00375704 -0.0682265 0.00654428
v -0.00395741 -0.0684273 0.00652028
v -0.00292507 -0.0663711 0.00677579
v -0.00589423 -0.0720414 0.00594763
v -0.00185885 -0.0648351 0.00693581
v -0.00221572 -0.0655616 0.0068502
v 0.00120604 -0.0620669 0.00659834
v 0.00149741 -0.0620417 0.0063452
v 0.00188329 -0.0620658 0.0059871
v 0.00221071 -0.0620338 0.00540293
v 0.00241413 -0.0623764 -0.00392135
v 0.00241413 -0.0623764 0.00411567
v 0.00239081 -0.0620947 -0.00509566
v 0.00221988 -0.0620634 -0.00543769
v 0.00158287 -0.0620975 -0.00631508
v 0.00098774 -0.0620936 -0.00675263
v 0.000773406 -0.0621291 -0.00684892
v -0.000163995 -0.0622054 -0.00712898
v -0.000411257 -0.0629352 -0.00704325
v -0.00109682 -0.0642872 -0.0069312
v -0.0037556 -0.0680257 -0.00657306
v -0.00404905 -0.0697021 -0.00632353
v -0.00435815 -0.0698352 -0.00631467
v -0.00543441 -0.072565 -0.00583277
v -0.00590347 -0.0735457 -0.00562703
v -0.00606031 -0.073695 -0.00560289
v -0.00759217 -0.0781483 -0.00419246
v -0.00706254 -0.0761012 -0.00496864
v -0.00717201 -0.0758483 -0.00505094
v -0.00717201 -0.076067 -0.00498175
v -0.00842116 -0.0803248 -0.00298474
v -0.00861565 -0.0806349 -0.00275559
v -0.00898454 -0.0809457 -0.00248928
v -0.00791247 -0.0787362 -0.00394518
v -0.00791728 -0.0793979 -0.00355285
v -0.00958648 -0.0813977 -0.00199451
v -0.00876778 -0.0819768 -0.000697791
v -0.00850207 -0.0818044 0.0011022
v -0.0087187 -0.081605 0.00160094
v -0.00847847 -0.0819966 0.000348601
v -0.00860769 -0.0814561 0.00181289
v -0.00857226 -0.0810151 0.00236873
v -0.0071189 -0.0769159 0.00467412
v -0.00737238 -0.0771528 0.00460845
v -0.00694266 -0.0766113 0.00476615
v -0.0064911 -0.0752104 0.0052108
v -0.00392535 -0.0697486 0.00629767
v -0.00556471 -0.0720483 0.00594419
v -0.00140173 -0.0641832 0.00699585
v -0.00114355 -0.0642078 0.00695234
v 9.89926e-05 -0.0622166 0.00706951
v 0.000754235 -0.0620693 0.00685508
v 0.00238246 -0.0620666 0.00506431
v 0.00245762 -0.0620693 0.00472058
v 0.00248909 -0.0621974 0.00411567
v 0.00210853 -0.0630028 -7.33083e-06
v 0.00176977 -0.0636967 -0.00392135
v 0.00117154 -0.0649117 -0.00402443
v 0.00248804 -0.0622041 -0.00431465
v 0.00242182 -0.0622206 -0.00477965
v 0.0023886 -0.0623647 -0.00458001
v 0.000307342 -0.0620706 -0.00703342
v -1.84187e-05 -0.0624986 -0.00704105
v 8.03035e-05 -0.0622133 -0.00707149
v -0.000956641 -0.0645216 -0.00685022
v -0.00124564 -0.0646054 -0.00689862
v -0.0018816 -0.0656498 -0.0067948
v -0.00338394 -0.0675302 -0.00662998
v -0.00437008 -0.0700174 -0.0062862
v -0.00474655 -0.0715442 -0.00598995
v -0.00609027 -0.0743091 -0.00543234
v -0.00652314 -0.0751382 -0.00523523
v -0.00650216 -0.0747074 -0.00535389
v -0.0069675 -0.0768514 -0.0046718
v -0.00877987 -0.0810212 -0.00239926
v -0.00819117 -0.0798949 -0.00326478
v -0.00885389 -0.081203 -0.00220352
v -0.00859229 -0.0815459 -0.00167028
v -0.00877931 -0.0815393 -0.00172007
v -0.00851866 -0.0819776 -0.000543516
v -0.00815654 -0.0817331 -0.00103951
v -0.00812059 -0.0815255 0.0014632
v -0.00864632 -0.0817269 0.00135832
v -0.00822244 -0.0819475 0.000189374
v -0.0085775 -0.0813524 0.00194686
v -0.00851746 -0.0812065 0.0021259
v -0.00814179 -0.0803416 0.00290039
v -0.00847043 -0.0809541 0.00241685
v -0.00802148 -0.0797962 0.00330353
v -0.00777421 -0.0800133 0.00304256
v -0.00750545 -0.0792014 0.00355277
v -0.00728022 -0.0786506 0.00382416
v -0.00696968 -0.0778457 0.00418881
v -0.00714015 -0.0776921 0.00432106
v -0.00677424 -0.0769796 0.0045695
v -0.00643352 -0.0756744 0.00503299
v -0.00564827 -0.0741905 0.00539703
v -0.00554741 -0.0734562 0.00560672
v -0.00534454 -0.073384 0.00559227
v -0.00503385 -0.0724748 0.00580399
v -0.00516252 -0.0724083 0.0058397
v -0.00465925 -0.0709418 0.00611479
v -0.00141726 -0.064662 0.00691383
v -0.00111857 -0.0643854 0.00691545
v 0.000202833 -0.0621974 0.00704271
v 0.000789534 -0.0621278 0.0068408
v 0.0018362 -0.0621551 0.00602353
v 0.00239284 -0.062361 0.00456651
v 0.00240841 -0.062377 0.00429352
v 0.000527177 -0.066238 0.00371325
v -0.00118426 -0.0697395 -0.00326201
v 0.000698159 -0.0658809 -0.003915
v 0.000570422 -0.0661247 -0.00405126
v 0.00120618 -0.0648106 -0.00428142
v 0.00182537 -0.0622883 -0.00595955
v 0.00133759 -0.0623427 -0.00641169
v 0.000931388 -0.0622322 -0.00673065
v -0.000413701 -0.0646302 -0.00661613
v 0.00054646 -0.0621969 -0.00692472
v -0.000672338 -0.0644361 -0.00678225
v -0.000623161 -0.0641302 -0.00684134
v -0.00354164 -0.0681976 -0.00653163
v -0.00384045 -0.0698607 -0.00626091
v -0.00407706 -0.0701275 -0.00623277
v -0.0055258 -0.0740083 -0.00543019
v -0.00570689 -0.0738399 -0.00552391
v -0.00684448 -0.0770516 -0.0045563
v -0.00696591 -0.0775262 -0.00435691
v -0.0072762 -0.0779387 -0.00422954
v -0.00734064 -0.0784549 -0.00397208
v -0.00647822 -0.0752916 -0.00517776
v -0.00807483 -0.0801026 -0.00308235
v -0.00827093 -0.0805543 -0.00274752
v -0.00838451 -0.0808474 -0.00249596
v -0.0077065 -0.0795637 -0.00337164
v -0.00877516 -0.0817369 -0.00137565
v -0.00829511 -0.0815868 -0.00145734
v -0.00837713 -0.0816805 -0.00130494
v -0.0081996 -0.0817839 -0.000917452
v -0.00823026 -0.0818647 -0.000685444
v -0.0081836 -0.0817194 0.00108525
v -0.00838288 -0.0815574 0.00154774
v -0.00797509 -0.0818232 0.000435518
v -0.00795105 -0.0818272 -0.000351302
v -0.00791589 -0.0818366 -0.00011432
v -0.00799045 -0.0805204 0.0026845
v -0.00837713 -0.0806604 0.00267544
v -0.00776895 -0.0803976 0.00270247
v -0.00397388 -0.0700988 0.00622282
v -0.00362298 -0.0697695 0.00623647
v -0.00140056 -0.064917 0.00686224
v 0.000329427 -0.0622408 0.00699938
v 0.000236708 -0.0635737 0.00663724
v 0.0011725 -0.0621068 0.00663536
v 0.000429399 -0.0624643 0.0068989
v 0.000609344 -0.0623625 0.00685068
v -0.000415581 -0.0645478 0.0066403
v 0.00155542 -0.0621644 0.00631394
v 0.00221838 -0.0621711 0.0054362
v 0.00238612 -0.062143 0.00505373
v 0.00241198 -0.0621996 0.00485901
v 0.00229593 -0.0626011 0.00431899
v 0.000971167 -0.0653173 0.00404083
v -0.00170431 -0.0707896 0.00331507
v -0.00290942 -0.0732553 -0.00291461
v -0.00170286 -0.0707896 -0.00331985
v -0.00101526 -0.0693838 -0.00352176
v -0.00121563 -0.0697874 -0.00352176
v -0.00166827 -0.0706942 -0.00352176
v -0.00102246 -0.0693679 -0.00371944
v 0.000928755 -0.0653839 -0.00418638
v 0.00016868 -0.0668744 -0.00424031
v 0.00216993 -0.06269 -0.00484667
v 0.00222305 -0.0621731 -0.00542323
v 0.00202535 -0.0622536 -0.0056991
v 0.00125494 -0.0620848 -0.00658189
v 0.000585602 -0.0648773 -0.0056986
v 0.00122199 -0.0623983 -0.00647281
v 0.000263267 -0.0647 -0.00614284
v 0.000754938 -0.0632811 -0.0064248
v 0.000184032 -0.0640277 -0.0065027
v -0.000264067 -0.0648683 -0.00644829
v -0.000610187 -0.0653551 -0.00645022
v -0.00083939 -0.065717 -0.00643469
v -0.00125599 -0.0663016 -0.00642763
v -0.000647667 -0.0649018 -0.00663236
v -0.000579297 -0.0647369 -0.00665597
v -7.61286e-05 -0.0634709 -0.00681722
v -0.000741366 -0.0644146 -0.00680886
v -0.00184702 -0.0663156 -0.0066366
v -0.0036273 -0.0697616 -0.00624124
v -0.00516932 -0.0725756 -0.00579819
v -0.00498189 -0.0726309 -0.00574597
v -0.00626365 -0.075291 -0.00514096
v -0.00683902 -0.0763872 -0.00483067
v -0.00655719 -0.076279 -0.00482033
v -0.00760474 -0.0799553 -0.00301833
v -0.00828902 -0.0812841 -0.00194572
v -0.00802213 -0.0817715 -0.000761527
v -0.00796192 -0.0813089 0.00171236
v -0.00827489 -0.0813777 0.00179596
v -0.00799404 -0.081761 0.000736751
v -0.00817531 -0.0808255 0.00244246
v -0.00740692 -0.079555 0.0032481
v -0.00690783 -0.0783985 0.003826
v -0.00761815 -0.079805 0.00314592
v -0.00668857 -0.0772228 0.00441854
v -0.00663764 -0.0767807 0.00462005
v -0.00659781 -0.0763543 0.00479218
v -0.00595608 -0.075546 0.00495756
v -0.00644837 -0.0761844 0.00482448
v -0.00533804 -0.0743232 0.00525386
v -0.0048712 -0.0731016 0.00556107
v -0.00441894 -0.0717328 0.00586923
v -0.00369655 -0.0699312 0.00621394
v -0.00334746 -0.0701284 0.00605317
v -0.00348891 -0.0697019 0.00621952
v -0.00184125 -0.0663235 0.00663182
v -0.00104985 -0.0647029 0.00682809
v -0.000913964 -0.0645141 0.00683918
v -0.000723701 -0.0647364 0.00671288
v -0.000532345 -0.0646134 0.00667277
v -0.000255371 -0.0646001 0.00654341
v 0.000304514 -0.0641771 0.00635795
v 0.00108821 -0.0627811 0.0064042
v 0.000273622 -0.064799 0.00608142
v 0.00166469 -0.0625287 0.00598441
v 0.000616393 -0.0643598 0.00599493
v 0.00198789 -0.0621312 0.00584437
v 0.00160651 -0.06282 0.00585379
v 0.00195887 -0.0631341 0.00478756
v 0.000756379 -0.0656912 0.00431899
v 0.0009654 -0.0653094 0.00417497
v -0.00121707 -0.0697874 0.00351557
v -0.00287973 -0.0731966 0.0028979
v -0.00413538 -0.0757497 0.00247668
v -0.0054579 -0.0784618 0.00156583
v -0.00608624 -0.0797616 0.000634118
v -0.00534384 -0.0782489 -0.00134501
v -0.00453164 -0.0765743 -0.00209953
v -0.00452038 -0.076537 -0.00224093
v -0.00313957 -0.0737098 -0.00295822
v -0.00197086 -0.071252 -0.00367034
v 0.000916288 -0.0653286 -0.004451
v 0.00106432 -0.0648709 -0.00480121
v 0.00156724 -0.0636983 -0.00510465
v 0.0013763 -0.0637336 -0.00544989
v 0.000745469 -0.0652078 -0.00515407
v 0.000357077 -0.0650966 -0.00582047
v 0.000484508 -0.0646092 -0.00598322
v -1.4837e-05 -0.0649435 -0.0062483
v -1.91617e-05 -0.0653412 -0.00604639
v 0.00118645 -0.0621114 -0.00662617
v -0.000429996 -0.0651265 -0.00644033
v -0.00224776 -0.0687296 -0.00603368
v -0.00243083 -0.0689582 -0.00604357
v -0.00266148 -0.0693182 -0.00602803
v -0.00284455 -0.0695429 -0.00603651
v -0.000833624 -0.0651225 -0.00663801
v -0.00302907 -0.0697636 -0.00604357
v -0.00165097 -0.0661127 -0.00663378
v -0.00323521 -0.069354 -0.00623983
v -0.00363664 -0.0699373 -0.00619854
v -0.00531841 -0.0742042 -0.00529328
v -0.00652945 -0.0766262 -0.00465953
v -0.00660832 -0.077323 -0.00433973
v -0.0072395 -0.0787689 -0.00373264
v -0.00737238 -0.0787435 -0.00379569
v -0.00803196 -0.0804151 -0.00280138
v -0.00784819 -0.0806805 -0.00244733
v -0.00804846 -0.0805988 -0.00262374
v -0.00856062 -0.0811624 -0.00219864
v -0.00814861 -0.0814257 -0.00164444
v -0.00787792 -0.0812162 -0.00179044
v -0.00816061 -0.0809193 -0.00234034
v -0.00768243 -0.0816243 -0.000684735
v -0.00778893 -0.081361 -0.00148237
v -0.00806718 -0.081027 0.0021752
v -0.00787596 -0.0817921 0.000335275
v -0.00797494 -0.0816984 0.000897752
v -0.00778765 -0.0817767 4.77246e-05
v -0.00805134 -0.0808016 0.00241705
v -0.00742737 -0.080025 0.00284891
v -0.00719332 -0.0791721 0.00342793
v -0.00666515 -0.0778758 0.00403525
v -0.00660723 -0.0775567 0.0042009
v -0.0061557 -0.0752816 0.00512087
v -0.0033555 -0.0698144 0.00614818
v -0.00323088 -0.0693599 0.00623506
v -0.00179945 -0.0663016 0.00662617
v -0.00468912 -0.0727271 0.00563429
v -0.0016452 -0.0661207 0.006629
v -0.00059433 -0.0647725 0.00665018
v -0.000246923 -0.0648998 0.00642285
v 0.000358518 -0.0651006 0.00581711
v 0.00199753 -0.0623446 0.0056632
v 0.000962517 -0.0642992 0.00561519
v 0.000538301 -0.0650959 0.00559446
v 0.000882589 -0.0649936 0.00510383
v 0.000947266 -0.0650456 0.00487003
v 0.000938012 -0.0652557 0.00451808
v -3.3577e-05 -0.0673297 0.00403518
v 0.000168237 -0.066928 0.00404083
v -0.00124878 -0.0697238 0.00399
v -0.00163344 -0.0705367 0.00383125
v -0.00162935 -0.0705689 0.00371325
v -0.00147799 -0.0702706 0.00371325
v -0.00174467 -0.0708453 0.00351134
v -0.00247018 -0.0723389 0.00321306
v -0.00610506 -0.079764 0.00094583
v -0.00583716 -0.0792367 0.00110108
v -0.00611263 -0.0798173 0.000474696
v -0.00629513 -0.0801868 -0.000244515
v -0.00628115 -0.0801613 9.43321e-05
v -0.00546768 -0.0784818 -0.00149664
v -0.00419013 -0.0758122 -0.00265403
v -0.00144691 -0.0701082 -0.00399715
v 0.000568981 -0.0659199 -0.00462876
v 0.000781171 -0.0653833 -0.00484057
v 0.000830313 -0.0646754 -0.0055149
v 0.000176886 -0.0663374 -0.00504812
v 0.000557449 -0.0654963 -0.00520767
v 0.000593487 -0.0653631 -0.00527545
v 0.000161029 -0.0657091 -0.00562562
v 0.000310718 -0.0651303 -0.00584836
v -0.00181963 -0.0695787 -0.0052585
v -0.00224776 -0.0703382 -0.00522885
v 0.000156704 -0.0650986 -0.0060238
v -0.000236832 -0.0653154 -0.00623277
v -0.000203677 -0.0652139 -0.00625678
v -0.000415581 -0.0659557 -0.00605204
v -0.00244669 -0.0699406 -0.00563268
v -0.00204883 -0.0693301 -0.00562844
v -0.000457385 -0.0660889 -0.00601674
v -6.09659e-05 -0.0654744 -0.00600968
v -0.00245102 -0.0703363 -0.00542935
v -0.000118737 -0.0647862 -0.00638888
v -0.000639018 -0.0659199 -0.00623418
v -0.00183981 -0.068137 -0.00603792
v -0.00286041 -0.0701215 -0.00582612
v -0.00302084 -0.0698239 -0.00601989
v -0.0014978 -0.0661765 -0.00656748
v -0.00318039 -0.0698185 -0.00608617
v -0.00331539 -0.069703 -0.00616891
v -0.00485304 -0.0728486 -0.00564376
v -0.00353402 -0.0700425 -0.00614023
v -0.00435458 -0.0720982 -0.00574262
v -0.00599732 -0.0754372 -0.00501717
v -0.00683614 -0.0780038 -0.00403714
v -0.006126 -0.0755203 -0.00501995
v -0.00735345 -0.0793429 -0.0033863
v -0.00737283 -0.0800341 -0.00280859
v -0.00759726 -0.0800718 -0.0029019
v -0.00808252 -0.0810663 -0.00212746
v -0.00762331 -0.0814539 -0.00107874
v -0.00745669 -0.0815117 -0.000586477
v -0.00767876 -0.0813945 -0.00127997
v -0.00777457 -0.0814399 -0.00129789
v -0.00756904 -0.0812197 0.00149663
v -0.0077127 -0.0809618 0.00202536
v -0.00758974 -0.0816222 0.000448619
v -0.00778121 -0.0816188 0.000899132
v -0.0077718 -0.0806054 0.00248131
v -0.0075757 -0.0804969 0.00247663
v -0.00648109 -0.07704 0.00443497
v -0.00670016 -0.0785471 0.00360096
v -0.0065063 -0.0780548 0.00382666
v -0.00628766 -0.0774543 0.00410129
v -0.00715789 -0.0797183 0.00295425
v -0.00708552 -0.0793739 0.00320211
v -0.00721814 -0.0794236 0.00324165
v -0.00624002 -0.076588 0.00456316
v -0.00576543 -0.0755699 0.00486882
v -0.00516914 -0.0745763 0.00506742
v -0.00448834 -0.0731714 0.00537461
v -0.00438708 -0.0723909 0.00564249
v -0.00456199 -0.0729353 0.00550429
v -0.00334845 -0.070284 0.00599635
v -0.00284599 -0.0689364 0.00622941
v -0.00303772 -0.0691491 0.00623223
v -0.00145348 -0.0659099 0.00662617
v -0.00126176 -0.0656971 0.00662335
v -0.000644784 -0.0649057 0.00662759
v -0.0026586 -0.0687216 0.00622658
v -0.00302763 -0.0697695 0.00603879
v -0.0005415 -0.0648535 0.00659855
v -0.00102102 -0.0659477 0.00643979
v -0.000837948 -0.065723 0.00643132
v -0.00285897 -0.0701275 0.00582276
v -0.000137358 -0.0647953 0.0063961
v -0.00183693 -0.068141 0.00603314
v -0.000637576 -0.0659219 0.00622941
v -4.79923e-05 -0.0650489 0.00622093
v 2.5744e-05 -0.0649033 0.00623444
v 7.16544e-05 -0.065025 0.00613339
v -0.000236832 -0.065719 0.00602749
v 0.000156704 -0.0651026 0.00601902
v -4.79923e-05 -0.0660809 0.00561096
v 0.000161029 -0.0657131 0.00562084
v 0.000410705 -0.0652013 0.00568119
v 0.000223015 -0.0652139 0.00588488
v -3.21353e-05 -0.065725 0.00583123
v -0.00224776 -0.0703402 0.00522549
v -0.00185855 -0.0697159 0.00520854
v 0.00200589 -0.0624406 0.00556186
v 0.000590965 -0.0651615 0.00546474
v 0.000976548 -0.0645021 0.00542456
v 0.000975491 -0.0651265 0.00464375
v -0.00145204 -0.0701215 0.00398012
v -0.00127617 -0.069871 0.00371325
v -0.00165529 -0.0705172 0.00397023
v -0.00295267 -0.0732553 0.00331083
v -0.00249741 -0.0723698 0.00332068
v -0.0032922 -0.0739939 0.00301972
v -0.00444309 -0.0763026 0.00257626
v -0.00640029 -0.0803912 0.000177942
v -0.00636536 -0.0802948 -0.000526642
v -0.0061116 -0.079801 -0.000778068
v -0.00646214 -0.0805112 7.32054e-07
v -0.00546748 -0.0784302 -0.00177143
v -0.00298876 -0.0733302 -0.0032931
v -0.00284023 -0.0729789 -0.00347234
v -0.00164761 -0.0705036 -0.00397173
v -0.00205171 -0.0713424 -0.00380698
v -0.00167692 -0.0704774 -0.00412327
v -0.00164088 -0.0703422 -0.00423199
v 0.000375817 -0.0661366 -0.00484762
v -3.64601e-05 -0.0669201 -0.00482361
v 0.000554565 -0.0652935 -0.00540817
v -0.00124734 -0.0693221 -0.00461181
v -0.00187296 -0.0705149 -0.00455114
v -0.00162502 -0.0699684 -0.004657
v 0.000385907 -0.0657508 -0.00526133
v -0.00183548 -0.0703581 -0.0046457
v 0.000172561 -0.0659298 -0.00543924
v -4.65506e-05 -0.0663016 -0.0054463
v -0.00205604 -0.0703223 -0.00501564
v -0.00226255 -0.0705251 -0.00511775
v -0.00242507 -0.0705789 -0.00525427
v -0.00227515 -0.0700937 -0.00540535
v -0.000648073 -0.0669262 -0.00571888
v -0.00223334 -0.0699604 -0.00544347
v -0.00187296 -0.0686898 -0.005812
v -0.00205171 -0.0689244 -0.00582894
v -0.0014333 -0.0675385 -0.00603933
v -0.00266337 -0.0702974 -0.00561894
v -0.00277865 -0.0701547 -0.00576108
v -0.0030351 -0.070216 -0.00588283
v -0.00455903 -0.0727596 -0.00557255
v -0.0056831 -0.0754973 -0.00487164
v -0.00586992 -0.0756679 -0.00486742
v -0.00512233 -0.0741901 -0.0052226
v -0.00630935 -0.0770432 -0.00435603
v -0.00653275 -0.0778116 -0.00400843
v -0.00682661 -0.0783638 -0.0038051
v -0.00710984 -0.0793583 -0.00322711
v -0.00763927 -0.0803684 -0.00264724
v -0.00672614 -0.0785449 -0.00362091
v -0.00704873 -0.0791136 -0.00338599
v -0.00761761 -0.0806039 -0.00238628
v -0.00774357 -0.0808727 -0.00215773
v -0.00761377 -0.0809807 -0.0019091
v -0.00773421 -0.0811575 -0.00175396
v -0.00751634 -0.0816005 -0.000298892
v -0.00746055 -0.0813954 -0.000957154
v -0.007472 -0.0811651 -0.00147479
v -0.00766481 -0.081397 0.00126101
v -0.00773132 -0.0811595 0.001752
v -0.00777169 -0.0808195 0.00224055
v -0.00736066 -0.0814161 0.000674272
v -0.00738398 -0.0814106 0.000748301
v -0.00745061 -0.0813722 0.00100669
v -0.00748073 -0.081604 -6.04365e-05
v -0.00748166 -0.0816044 5.38936e-05
v -0.00741995 -0.0802249 0.00264438
v -0.00688043 -0.0791783 0.00322336
v -0.00637917 -0.0772681 0.00425828
v -0.00625777 -0.0777218 0.00389769
v -0.00600542 -0.0765176 0.00449487
v -0.00555057 -0.0754266 0.00483994
v -0.00524494 -0.0754677 0.00463999
v -0.00436824 -0.0728417 0.00545564
v -0.00318885 -0.070321 0.00591278
v -0.00284167 -0.0695468 0.00603173
v -0.00289212 -0.0696821 0.00600773
v -0.00295526 -0.0700941 0.00588643
v -0.00279123 -0.0701958 0.00574933
v -0.00307787 -0.0704899 0.00578782
v -0.0030656 -0.0708029 0.00563684
v -0.000236832 -0.0653193 0.00622941
v -0.00222902 -0.0691631 0.0058397
v -0.00205027 -0.0689284 0.00582417
v -0.00204883 -0.0693341 0.00562508
v -0.00244525 -0.0699445 0.0056279
v -0.00248074 -0.0703841 0.00542612
v -0.00223334 -0.0699644 0.00544011
v -0.000246923 -0.0661028 0.0058157
v -0.00227371 -0.0700976 0.00540057
v -0.00205604 -0.0703243 0.00501228
v -0.00162502 -0.0689642 0.00544576
v -0.00233383 -0.0704827 0.00522141
v -0.00239912 -0.0707916 0.00507723
v -0.00212578 -0.070457 0.00500035
v -0.0020924 -0.0700884 0.00522158
v -0.00184125 -0.069344 0.00543022
v 0.000172561 -0.0659318 0.00543587
v 0.000554565 -0.0652955 0.00540622
v 0.000750414 -0.0651348 0.00521585
v 0.000760704 -0.0653014 0.0050038
v 0.000383024 -0.0659497 0.00505746
v 0.000567539 -0.0659199 0.00462398
v 0.000545917 -0.0658781 0.00475812
v 0.000362843 -0.0663156 0.00461268
v -0.00102679 -0.0691591 0.00426251
v -0.00181606 -0.0707646 0.00407104
v -0.00279782 -0.072847 0.00359691
v -0.00360128 -0.0745628 0.00308163
v -0.00421337 -0.0758527 0.00265523
v -0.00566916 -0.0787971 0.00172607
v -0.00618987 -0.0797871 0.00139726
v -0.00624273 -0.079992 0.00098201
v -0.00636085 -0.0802577 0.000671348
v -0.00649316 -0.0805469 0.000284917
v -0.00635034 -0.0802866 -0.000301024
v -0.00609087 -0.0797417 -0.000903941
v -0.00604305 -0.0796208 -0.00110933
v -0.00660923 -0.0807514 1.5627e-05
v -0.00417197 -0.0757319 -0.00279193
v -0.00310967 -0.0734919 -0.0034485
v -0.00264995 -0.0725534 -0.00362342
v -0.00180077 -0.0707408 -0.00406873
v -0.00194531 -0.0709703 -0.0041325
v -0.00175445 -0.0704027 -0.00443377
v -0.00146069 -0.0699028 -0.00437601
v -0.00142465 -0.0697695 -0.00446497
v -0.00187441 -0.0702885 -0.00477984
v -0.00103832 -0.0685307 -0.00503117
v -0.00205368 -0.0707541 -0.00462995
v -0.00124878 -0.0689185 -0.00501564
v -0.00163223 -0.0695548 -0.00504247
v -0.00209972 -0.0706075 -0.00484376
v -0.00243397 -0.0711011 -0.00488745
v -0.0034745 -0.0731241 -0.00460193
v -0.00344855 -0.0727642 -0.0048335
v -0.0036273 -0.0730008 -0.00485468
v -0.00267329 -0.0707695 -0.00536816
v -0.0038738 -0.0727324 -0.00521756
v -0.00293104 -0.0707916 -0.00555361
v -0.00285176 -0.0705371 -0.00562986
v -0.00281434 -0.0707918 -0.0054674
v -0.00375692 -0.0729045 -0.00503312
v -0.0031516 -0.0702388 -0.00592778
v -0.00339949 -0.0713555 -0.00558431
v -0.00365036 -0.0715572 -0.00563268
v -0.00339906 -0.0708408 -0.00580498
v -0.00327791 -0.0701182 -0.00602842
v -0.0036733 -0.0711676 -0.00580116
v -0.00435671 -0.0725634 -0.00556208
v -0.00434972 -0.0729246 -0.00541333
v -0.00456862 -0.0730466 -0.00546183
v -0.00622921 -0.0771729 -0.00423918
v -0.0063728 -0.0779793 -0.00379493
v -0.00658243 -0.0780675 -0.00386346
v -0.00571104 -0.0759955 -0.00462388
v -0.00710948 -0.0800405 -0.00259475
v -0.00740626 -0.0804834 -0.00236073
v -0.00689547 -0.0792539 -0.00316955
v -0.00685358 -0.0793429 -0.00305927
v -0.00700624 -0.0792347 -0.00325913
v -0.00757564 -0.0810899 -0.00170595
v -0.00712231 -0.0812562 -0.000564756
v -0.00726682 -0.0814104 -0.000388921
v -0.00727215 -0.0808147 -0.00179808
v -0.00714167 -0.0808708 -0.00152905
v -0.00728719 -0.081174 -0.00117615
v -0.00743293 -0.0812212 -0.00130494
v -0.00760879 -0.081432 0.00110108
v -0.00732358 -0.0809391 0.0016662
v -0.00736065 -0.0808877 0.00178994
v -0.00733575 -0.080758 0.00195209
v -0.00715191 -0.0804292 0.00219778
v -0.00752374 -0.080557 0.00236763
v -0.00747015 -0.0815725 0.000276178
v -0.00725163 -0.0812077 0.00103543
v -0.00751077 -0.0813683 0.00110108
v -0.0071423 -0.0800513 0.00261305
v -0.00590695 -0.0768605 0.00423169
v -0.00607213 -0.0773695 0.00401118
v -0.00694992 -0.0797248 0.00277892
v -0.00675326 -0.0793237 0.00298967
v -0.00576652 -0.0757211 0.00479624
v -0.00544172 -0.0757634 0.00460057
v -0.0042245 -0.0727552 0.00542215
v -0.00285032 -0.0705391 0.00562649
v -0.00269376 -0.0704459 0.0055661
v -0.00408317 -0.0729664 0.00524309
v -0.00405399 -0.072961 0.0052269
v -0.00311863 -0.0718605 0.0051041
v -0.00204651 -0.070537 0.00482217
v -0.00312266 -0.072329 0.00478493
v -0.00183693 -0.0701553 0.00483578
v -0.000243668 -0.0671105 0.00503274
v -0.00182512 -0.070278 0.00470641
v -3.64601e-05 -0.0669201 0.00482166
v -0.00166827 -0.0702965 0.00436135
v -0.00183061 -0.0704505 0.00453397
v -0.00163223 -0.0701633 0.00444748
v -0.00164232 -0.0703442 0.0042258
v -0.00186431 -0.0707916 0.00417356
v -0.00302763 -0.0732017 0.00371325
v -0.00431201 -0.0758881 0.00301687
v -0.00542463 -0.078277 0.0020178
v -0.00565815 -0.0785846 0.00219376
v -0.00587755 -0.0791692 0.00166239
v -0.00651791 -0.0804705 0.000824494
v -0.00659876 -0.0807334 -0.000159779
v -0.00645043 -0.0803766 -0.000801519
v -0.00607931 -0.0796732 -0.0011518
v -0.00546957 -0.0783677 -0.00197987
v -0.00551282 -0.078442 -0.0019821
v -0.00423995 -0.0758046 -0.00291461
v -0.00425436 -0.0757787 -0.0030318
v -0.0032525 -0.0737624 -0.00342716
v -0.00306366 -0.0733389 -0.00358389
v -0.00285168 -0.0729086 -0.00366647
v -0.00179893 -0.0705691 -0.00432028
v -0.00183693 -0.0701533 -0.00484056
v -0.00252615 -0.071982 -0.00416753
v -0.00312404 -0.0730127 -0.00418101
v -0.00325418 -0.0729762 -0.00443066
v -0.00347406 -0.073183 -0.00455467
v -0.00370177 -0.073405 -0.00464513
v -0.00402567 -0.0729276 -0.00522356
v -0.00387279 -0.0731307 -0.00499518
v -0.00372235 -0.0732181 -0.00480409
v -0.00417364 -0.0728378 -0.00535452
v -0.0041136 -0.0732074 -0.00513208
v -0.00418958 -0.0730991 -0.00523795
v -0.00500839 -0.0741282 -0.00519703
v -0.00547802 -0.0755457 -0.00474106
v -0.00610675 -0.0772122 -0.00414108
v -0.0058905 -0.0765463 -0.00440849
v -0.00709545 -0.0803355 -0.00224735
v -0.00726201 -0.0804477 -0.00227313
v -0.00665349 -0.079249 -0.00296745
v -0.00677187 -0.0797391 -0.00257348
v -0.00680933 -0.079998 -0.00232577
v -0.00641282 -0.0783801 -0.00352137
v -0.00751806 -0.0806756 -0.00222528
v -0.00749059 -0.0809786 -0.00178784
v -0.0073485 -0.0806867 -0.00205955
v -0.0073868 -0.0808334 -0.00189233
v -0.00717643 -0.0811306 -0.00107176
v -0.00708949 -0.081186 -0.000688728
v -0.00702142 -0.0812238 -0.000212784
v -0.00703692 -0.0812534 -6.49948e-05
v -0.00696613 -0.0806977 -0.00153379
v -0.00711147 -0.0809567 -0.00130494
v -0.00733202 -0.0811456 0.00130017
v -0.00712576 -0.0809184 0.00141983
v -0.00730586 -0.0809865 0.00155789
v -0.00717178 -0.0802937 0.00236859
v -0.00726379 -0.0814101 0.000370299
v -0.00735941 -0.0814538 0.000495336
v -0.00701427 -0.0811487 0.000592284
v -0.0070427 -0.0810247 0.00102316
v -0.00722475 -0.0814186 9.81809e-06
v -0.00739325 -0.0815415 8.16017e-05
v -0.00574214 -0.0771562 0.00391299
v -0.00588761 -0.0765483 0.00440512
v -0.0064411 -0.0785241 0.00342899
v -0.00605927 -0.0776384 0.00380663
v -0.00626732 -0.0785781 0.00321992
v -0.00646278 -0.0787853 0.00321482
v -0.00515163 -0.0757438 0.00440597
v -0.00395457 -0.073189 0.00502669
v -0.00366505 -0.0726157 0.00512758
v -0.00391272 -0.0728537 0.00518171
v -0.00370312 -0.0731704 0.00481869
v -0.00221715 -0.0711128 0.00454946
v -0.00360948 -0.0732468 0.00466375
v -0.00354802 -0.0732064 0.00462617
v -0.00325973 -0.0729174 0.00449331
v -0.00180761 -0.0705922 0.00430918
v -0.00183959 -0.0705527 0.00443473
v -0.00190035 -0.0707916 0.00426675
v -0.00304781 -0.0731659 0.00382903
v -0.00284023 -0.0727761 0.00384739
v -0.00427599 -0.075739 0.00316399
v -0.00316046 -0.07353 0.0035602
v -0.00417294 -0.0756874 0.00290664
v -0.00544795 -0.0782047 0.00225326
v -0.00626525 -0.0799276 0.0012966
v -0.00627394 -0.0799804 0.00117732
v -0.0066745 -0.0807303 0.000663964
v -0.00654815 -0.0805807 0.0005538
v -0.0066893 -0.0807931 0.000518543
v -0.00666744 -0.0807896 -0.000393334
v -0.00665906 -0.0807709 -0.000427685
v -0.00614174 -0.0797137 -0.00136899
v -0.00668865 -0.0807358 -0.000697395
v -0.00671868 -0.0807613 -0.000752294
v -0.00661954 -0.0805503 -0.00100703
v -0.00476433 -0.0768715 -0.00259056
v -0.00403469 -0.0753 -0.00320249
v -0.00447249 -0.0761539 -0.0030238
v -0.00304848 -0.0731734 -0.00381986
v -0.00302496 -0.0729423 -0.00406618
v -0.00324941 -0.0733727 -0.00401226
v -0.00319457 -0.0731495 -0.00417435
v -0.00430953 -0.0752786 -0.00381246
v -0.00349072 -0.0734582 -0.00433611
v -0.00467823 -0.075768 -0.00389344
v -0.00477509 -0.0755267 -0.00420473
v -0.00505623 -0.0753686 -0.00457955
v -0.00525729 -0.0755229 -0.00461764
v -0.00546957 -0.0757608 -0.00461887
v -0.00598671 -0.0770776 -0.00414601
v -0.00583913 -0.0771297 -0.0040081
v -0.00649975 -0.0790682 -0.00298341
v -0.00644264 -0.0792327 -0.00275636
v -0.00670778 -0.0799546 -0.00223842
v -0.00569513 -0.0772383 -0.00380361
v -0.00622114 -0.0784863 -0.00325589
v -0.00701286 -0.0810112 -0.000982285
v -0.00695435 -0.081015 -0.000802654
v -0.00686444 -0.0809979 -0.00052841
v -0.00685763 -0.0810354 -0.000303009
v -0.00697609 -0.0804789 -0.00189511
v -0.00685008 -0.0803949 -0.00183198
v -0.00700624 -0.0808553 -0.00130494
v -0.00686232 -0.0808113 -0.00108557
v -0.00700192 -0.0806876 0.00161794
v -0.00701274 -0.0804433 0.00200081
v -0.00688762 -0.0809895 0.000657083
v -0.00683173 -0.0807921 0.00105526
v -0.0070768 -0.080957 0.00124367
v -0.00685706 -0.07997 0.00241252
v -0.00686353 -0.0797915 0.00261614
v -0.00544943 -0.07641 0.00419114
v -0.00647441 -0.0792444 0.00278409
v -0.00585334 -0.0781335 0.00316755
v -0.00565264 -0.0773894 0.00362571
v -0.00626529 -0.0787833 0.00301291
v -0.0050383 -0.0758575 0.00422899
v -0.00385276 -0.0733236 0.00485469
v -0.00494117 -0.075156 0.00459808
v -0.00387957 -0.0731261 0.0050038
v -0.00374983 -0.0730644 0.00492756
v -0.00307231 -0.0727204 0.00438677
v -0.00240787 -0.0716978 0.00427133
v -0.00326161 -0.0732002 0.00423049
v -0.00385074 -0.0733647 0.00482448
v -0.00489296 -0.075723 0.00418344
v -0.00462342 -0.0755364 0.00401966
v -0.0019263 -0.0707916 0.00432746
v -0.00307231 -0.0729233 0.00418062
v -0.00243804 -0.07177 0.00423992
v -0.00286617 -0.0727284 0.00398294
v -0.00378585 -0.0745678 0.0036466
v -0.0030752 -0.0731142 0.00396035
v -0.00445272 -0.0761316 0.00300293
v -0.00555317 -0.0783075 0.00238648
v -0.00568019 -0.0784589 0.00246438
v -0.00585813 -0.0787089 0.00248832
v -0.00584148 -0.0788151 0.00226597
v -0.00625681 -0.0795728 0.00200253
v -0.00654472 -0.0801479 0.00166262
v -0.00657514 -0.0803548 0.0013185
v -0.00664555 -0.0805526 0.00108671
v -0.00650026 -0.0803443 0.00110108
v -0.00666604 -0.0807996 0.000294834
v -0.00684743 -0.0810421 0.000174005
v -0.00682831 -0.0810255 9.6769e-05
v -0.00682722 -0.0810233 -0.00011731
v -0.00568292 -0.0787495 -0.00190786
v -0.00564832 -0.0786063 -0.00210978
v -0.00565358 -0.0785458 -0.00225263
v -0.00544795 -0.0782027 -0.00225945
v -0.00346438 -0.0739415 -0.00376141
v -0.00450219 -0.0760835 -0.00322042
v -0.00446725 -0.0757858 -0.00354329
v -0.00470825 -0.0761737 -0.00352739
v -0.00461475 -0.0758583 -0.00370956
v -0.00509259 -0.0759714 -0.00419795
v -0.00503271 -0.0758133 -0.00425531
v -0.00605077 -0.078599 -0.00294331
v -0.00667058 -0.080216 -0.00180524
v -0.00682464 -0.0806342 -0.00136218
v -0.00668197 -0.0804611 -0.00138339
v -0.00678876 -0.0805818 0.00139448
v -0.00678936 -0.0803272 0.0018371
v -0.00702744 -0.0812171 0.00029459
v -0.00691974 -0.0809408 0.000897752
v -0.00652243 -0.0797541 0.00223965
v -0.00683037 -0.0800281 0.0023055
v -0.00547703 -0.0771886 0.00361277
v -0.00547389 -0.0769579 0.00380079
v -0.00490084 -0.0759634 0.00400296
v -0.00635677 -0.0793413 0.00251483
v -0.00602807 -0.0786658 0.00283091
v -0.00328086 -0.073167 0.00429523
v -0.00405198 -0.0749254 0.00377841
v -0.00464934 -0.0757887 0.00383186
v -0.00390359 -0.0743411 0.00411555
v -0.00431544 -0.0756098 0.00344762
v -0.0044683 -0.0760331 0.00321539
v -0.0045162 -0.0759044 0.00349545
v -0.00529086 -0.077354 0.00317508
v -0.00604916 -0.0789616 0.00249653
v -0.00609087 -0.0791492 0.0023055
v -0.0062898 -0.0797557 0.001752
v -0.0063832 -0.0799095 0.00170255
v -0.00640298 -0.0800384 -0.00150302
v -0.00629236 -0.0798854 -0.00151077
v -0.00663288 -0.0804357 -0.00130494
v -0.00623769 -0.0795315 -0.00202862
v -0.00522392 -0.0773194 -0.00307579
v -0.00511999 -0.0769082 -0.00340261
v -0.00492486 -0.0761998 -0.00382137
v -0.00546842 -0.0771755 -0.00361416
v -0.00493281 -0.075991 -0.00401544
v -0.00622246 -0.0791442 -0.00255285
v -0.00632218 -0.0793835 -0.00240328
v -0.00648008 -0.0795727 -0.002395
v -0.00661392 -0.0800602 -0.00194431
v -0.00546525 -0.0773715 -0.00341727
v -0.00650307 -0.0800439 -0.0017527
v -0.00663318 -0.0802321 0.0017011
v -0.00667077 -0.0800668 0.00203821
v -0.0052754 -0.077134 0.00339831
v -0.00483984 -0.0761154 0.00378896
v -0.00627538 -0.0791711 0.00259778
v -0.00574256 -0.0783039 0.00280892
v -0.00532398 -0.077276 0.00331648
v -0.00650026 -0.0799486 0.0019045
v -0.00587208 -0.078789 -0.00239129
v -0.00625088 -0.0794057 -0.00224392
v -0.00565921 -0.0784104 -0.00248398
v -0.00547118 -0.07773 -0.00303215
v -0.00525358 -0.0770556 -0.0034483
v -0.00645413 -0.0798054 -0.00203777
v -0.00584981 -0.0784182 -0.00284212
v -0.00585337 -0.0783661 -0.00291143
v -0.0048749 -0.076364 0.00359261
v -0.00582419 -0.0786381 -0.00251219
v -0.00587946 -0.0786533 -0.00260523
f 1 9 4
f 1 4 14
f 1 6 2
f 1 5 6
f 1 14 5
f 2 7 1
f 1 8 9
f 9 10 4
f 4 10 17
f 4 17 11
f 4 11 3
f 3 38 4
f 4 12 14
f 4 38 12
f 6 5 2
f 2 15 7
f 7 8 1
f 8 16 9
f 17 3 11
f 3 17 18
f 3 18 19
f 3 19 38
f 38 20 21
f 38 21 12
f 12 22 23
f 12 23 24
f 12 24 13
f 12 13 14
f 12 21 22
f 5 14 25
f 5 25 26
f 5 26 2
f 13 27 14
f 14 27 25
f 2 26 28
f 7 29 8
f 8 29 30
f 9 31 10
f 9 16 31
f 10 32 33
f 10 33 17
f 18 34 35
f 18 35 19
f 19 36 37
f 19 37 64
f 19 64 38
f 19 35 36
f 20 38 39
f 20 39 40
f 20 40 68
f 20 68 21
f 21 68 41
f 21 41 42
f 21 42 43
f 21 43 44
f 21 44 22
f 22 45 46
f 22 46 47
f 22 47 23
f 22 44 45
f 24 23 78
f 24 78 48
f 13 24 48
f 13 49 27
f 25 27 79
f 28 15 2
f 8 30 51
f 8 51 16
f 16 52 53
f 16 53 31
f 30 84 51
f 10 31 32
f 17 33 54
f 17 55 18
f 18 55 90
f 34 94 35
f 35 94 57
f 35 57 58
f 35 58 59
f 35 59 36
f 36 59 60
f 36 60 61
f 36 61 62
f 36 62 37
f 37 62 63
f 37 63 64
f 38 64 65
f 38 65 39
f 39 65 40
f 40 65 66
f 40 66 67
f 40 67 68
f 68 70 41
f 41 70 42
f 42 70 71
f 42 71 43
f 43 71 72
f 43 72 73
f 43 73 44
f 44 73 74
f 44 74 75
f 44 75 76
f 44 76 45
f 45 76 77
f 45 77 46
f 46 77 47
f 23 47 78
f 78 119 48
f 25 79 26
f 26 79 28
f 48 82 13
f 13 80 49
f 49 81 27
f 28 79 123
f 50 7 15
f 7 83 84
f 7 84 29
f 51 52 16
f 51 84 85
f 29 84 30
f 84 86 85
f 31 53 32
f 32 180 87
f 32 88 180
f 33 32 54
f 17 54 89
f 17 89 55
f 18 90 91
f 18 91 185
f 18 185 92
f 18 92 56
f 56 93 18
f 18 93 34
f 34 188 133
f 34 133 94
f 57 94 95
f 57 95 58
f 58 95 60
f 58 60 59
f 60 96 97
f 60 97 61
f 60 95 98
f 60 98 99
f 60 99 96
f 61 97 62
f 62 97 100
f 62 100 63
f 63 101 102
f 63 102 64
f 63 100 101
f 64 103 65
f 65 103 66
f 66 103 67
f 67 103 104
f 67 104 105
f 67 105 68
f 68 105 147
f 68 147 69
f 69 147 106
f 69 106 107
f 69 107 108
f 69 108 109
f 69 109 70
f 69 70 68
f 70 109 110
f 70 110 71
f 71 110 111
f 71 111 72
f 72 111 112
f 72 112 73
f 73 112 113
f 73 113 114
f 73 114 74
f 74 114 115
f 74 115 75
f 75 115 116
f 75 116 76
f 76 116 77
f 77 116 117
f 77 117 47
f 47 118 78
f 47 117 118
f 48 119 120
f 48 120 166
f 13 82 122
f 13 122 80
f 80 168 49
f 27 81 123
f 27 123 79
f 48 122 82
f 28 123 124
f 28 124 15
f 15 124 125
f 15 125 50
f 50 125 126
f 50 126 7
f 85 127 51
f 52 51 53
f 53 88 32
f 32 87 54
f 88 128 180
f 55 129 90
f 55 89 129
f 92 130 56
f 56 130 131
f 56 131 132
f 56 132 93
f 93 132 34
f 133 134 94
f 94 193 95
f 94 134 193
f 95 193 98
f 96 99 135
f 96 135 136
f 96 136 137
f 96 137 97
f 97 137 138
f 97 138 100
f 98 193 139
f 98 139 99
f 99 139 135
f 100 138 101
f 101 140 102
f 101 138 140
f 102 196 141
f 102 141 64
f 102 140 142
f 102 142 196
f 64 141 104
f 64 104 103
f 105 205 143
f 105 143 144
f 105 144 145
f 105 145 146
f 105 146 147
f 105 104 205
f 147 148 149
f 147 149 106
f 106 149 150
f 106 150 151
f 106 151 152
f 106 152 107
f 107 152 153
f 107 153 108
f 108 153 154
f 108 154 110
f 108 110 109
f 110 154 111
f 111 154 155
f 111 155 156
f 111 156 112
f 112 156 157
f 112 157 113
f 113 157 158
f 113 158 114
f 114 158 115
f 115 158 157
f 115 157 219
f 115 219 159
f 115 159 116
f 116 159 117
f 117 221 118
f 117 159 221
f 118 160 161
f 118 161 78
f 118 221 162
f 118 162 163
f 118 163 278
f 78 161 119
f 119 121 164
f 119 164 165
f 119 165 120
f 48 166 122
f 119 161 167
f 119 167 121
f 80 122 168
f 168 169 49
f 49 170 123
f 49 123 81
f 49 169 170
f 123 171 124
f 124 171 170
f 124 170 172
f 7 126 173
f 7 173 174
f 7 174 83
f 51 175 53
f 127 128 176
f 127 176 51
f 85 177 127
f 53 175 88
f 84 83 174
f 84 174 231
f 84 231 178
f 84 178 86
f 85 178 177
f 85 86 178
f 87 179 54
f 180 179 87
f 88 176 128
f 129 89 182
f 54 179 89
f 90 183 91
f 90 129 183
f 91 184 185
f 91 183 184
f 92 185 130
f 131 242 132
f 132 186 34
f 34 186 187
f 34 187 188
f 133 189 134
f 133 188 190
f 133 190 189
f 134 191 193
f 134 189 191
f 135 194 195
f 135 195 137
f 135 137 136
f 135 139 194
f 137 195 138
f 138 195 252
f 138 252 142
f 138 142 140
f 139 253 194
f 139 193 192
f 139 192 253
f 141 196 197
f 141 197 198
f 141 198 104
f 142 199 196
f 142 252 199
f 104 198 200
f 104 200 201
f 104 201 202
f 104 202 205
f 205 202 203
f 205 203 204
f 143 206 207
f 143 207 144
f 144 207 145
f 145 208 146
f 145 207 208
f 146 208 207
f 146 207 209
f 146 209 210
f 146 210 211
f 146 211 147
f 147 211 148
f 148 211 150
f 148 150 149
f 150 211 207
f 150 207 206
f 150 206 212
f 150 212 151
f 151 212 152
f 152 213 153
f 153 214 264
f 153 264 154
f 154 264 215
f 154 215 155
f 155 215 156
f 156 215 216
f 156 216 217
f 156 217 157
f 157 217 218
f 157 218 219
f 219 220 159
f 159 220 221
f 160 118 222
f 118 223 222
f 118 278 223
f 166 120 122
f 167 224 121
f 121 224 164
f 164 283 165
f 168 122 286
f 168 226 169
f 168 286 226
f 123 170 171
f 170 227 172
f 172 125 124
f 125 229 228
f 125 228 126
f 125 172 229
f 173 230 174
f 51 176 88
f 51 88 175
f 127 238 128
f 128 232 180
f 127 234 238
f 127 233 234
f 231 235 178
f 178 236 292
f 178 291 177
f 179 180 237
f 179 237 89
f 180 181 237
f 180 232 238
f 180 238 181
f 89 237 239
f 129 240 183
f 185 184 130
f 131 130 184
f 131 184 242
f 242 243 132
f 132 243 244
f 244 186 132
f 187 245 188
f 187 186 245
f 189 190 245
f 188 245 190
f 193 191 192
f 192 305 253
f 192 246 247
f 194 253 248
f 194 248 249
f 194 249 195
f 195 250 251
f 195 251 252
f 195 249 250
f 196 199 403
f 196 403 255
f 196 255 197
f 197 255 309
f 197 309 201
f 197 201 200
f 197 200 198
f 199 359 403
f 202 257 203
f 203 258 259
f 203 259 204
f 203 257 260
f 203 260 258
f 205 204 261
f 205 261 143
f 143 261 320
f 143 320 206
f 207 211 210
f 207 210 209
f 206 262 212
f 152 212 263
f 152 263 213
f 153 213 263
f 153 263 214
f 214 263 264
f 264 263 265
f 264 266 215
f 215 266 216
f 216 325 267
f 216 267 217
f 216 266 268
f 217 328 218
f 217 267 325
f 219 218 270
f 219 270 220
f 220 271 221
f 222 272 273
f 222 273 274
f 161 160 167
f 221 271 275
f 221 276 162
f 162 276 277
f 162 277 163
f 163 277 278
f 120 279 280
f 120 280 122
f 122 280 281
f 122 281 286
f 167 282 224
f 167 225 282
f 224 282 225
f 224 225 283
f 224 283 284
f 224 284 285
f 164 224 285
f 169 390 170
f 170 390 227
f 172 227 287
f 172 287 229
f 228 288 126
f 126 288 173
f 230 235 174
f 230 173 289
f 174 235 231
f 128 238 232
f 177 291 127
f 233 127 291
f 233 291 292
f 235 293 178
f 178 293 236
f 292 291 178
f 237 294 239
f 237 181 294
f 238 295 181
f 238 290 295
f 89 239 182
f 240 129 298
f 183 240 184
f 182 297 298
f 182 298 129
f 241 243 242
f 241 242 184
f 243 299 300
f 244 301 302
f 244 302 186
f 186 302 245
f 189 245 303
f 189 304 191
f 189 303 304
f 191 304 246
f 191 246 192
f 192 247 305
f 305 306 253
f 248 253 254
f 248 254 352
f 248 352 250
f 248 250 249
f 250 352 307
f 250 307 251
f 251 256 199
f 251 199 252
f 251 307 256
f 253 306 254
f 254 306 358
f 403 308 255
f 256 359 199
f 359 256 310
f 201 311 312
f 201 309 311
f 202 313 257
f 257 313 314
f 257 314 260
f 258 260 315
f 258 315 316
f 258 316 413
f 258 413 259
f 259 413 317
f 259 318 204
f 204 318 319
f 204 320 261
f 206 321 262
f 206 320 321
f 262 321 416
f 262 416 372
f 262 372 322
f 262 322 212
f 212 323 263
f 265 263 323
f 265 323 422
f 265 422 324
f 265 324 266
f 264 265 266
f 216 268 326
f 216 326 325
f 325 328 217
f 268 266 324
f 268 324 326
f 218 328 269
f 269 328 327
f 269 380 270
f 269 270 218
f 270 329 220
f 270 380 329
f 273 225 274
f 274 160 222
f 274 167 160
f 275 271 220
f 275 330 221
f 221 330 276
f 276 330 277
f 277 331 278
f 223 332 222
f 278 331 223
f 167 274 225
f 165 283 120
f 285 284 283
f 285 283 164
f 286 281 226
f 229 287 334
f 228 335 288
f 288 289 173
f 238 234 233
f 238 233 290
f 233 437 336
f 292 337 233
f 295 338 181
f 239 296 297
f 239 297 182
f 240 298 339
f 240 339 241
f 240 241 184
f 298 297 341
f 298 341 340
f 241 443 300
f 241 300 299
f 241 299 243
f 243 300 342
f 243 342 343
f 243 343 244
f 244 344 301
f 245 304 303
f 304 345 247
f 304 247 246
f 305 346 347
f 305 347 348
f 305 348 349
f 305 349 306
f 254 358 352
f 352 354 355
f 352 355 356
f 352 356 307
f 352 351 354
f 307 356 256
f 256 357 310
f 256 356 355
f 256 355 357
f 306 350 358
f 309 255 308
f 310 357 355
f 310 355 354
f 310 354 360
f 310 360 359
f 312 311 202
f 312 202 201
f 202 311 361
f 202 361 362
f 202 362 363
f 313 202 364
f 314 313 408
f 314 408 260
f 260 408 315
f 316 365 413
f 316 315 366
f 316 366 365
f 317 367 368
f 317 368 259
f 259 368 318
f 319 369 204
f 204 530 320
f 320 416 321
f 416 370 371
f 372 417 373
f 372 374 322
f 322 323 212
f 324 422 375
f 324 375 326
f 326 376 377
f 326 377 325
f 328 325 327
f 327 325 423
f 327 378 269
f 269 378 380
f 327 423 378
f 380 378 379
f 329 330 220
f 272 381 388
f 272 388 273
f 273 388 225
f 275 220 330
f 330 382 383
f 277 330 383
f 277 383 384
f 277 384 382
f 277 223 331
f 277 382 223
f 333 385 386
f 333 386 279
f 333 279 283
f 283 279 120
f 280 387 281
f 225 388 283
f 283 389 333
f 169 226 431
f 169 431 390
f 227 390 287
f 229 490 228
f 229 334 490
f 335 434 391
f 335 391 288
f 288 391 289
f 230 434 235
f 233 392 437
f 233 337 392
f 437 393 290
f 437 290 336
f 336 290 233
f 293 394 236
f 294 181 338
f 294 338 239
f 290 395 295
f 295 395 338
f 296 341 297
f 339 340 241
f 339 298 340
f 341 442 340
f 241 340 443
f 343 342 244
f 300 443 342
f 244 342 344
f 301 397 398
f 301 398 302
f 302 398 245
f 245 398 397
f 245 397 304
f 304 399 345
f 304 397 399
f 345 400 247
f 305 247 400
f 346 348 347
f 349 350 306
f 352 401 351
f 352 353 401
f 358 350 402
f 358 402 352
f 359 457 403
f 359 360 457
f 309 405 311
f 309 308 405
f 354 351 360
f 311 406 361
f 202 363 364
f 364 407 313
f 408 409 315
f 315 409 366
f 365 366 410
f 365 410 411
f 365 411 413
f 413 411 412
f 413 412 468
f 413 468 415
f 413 415 317
f 317 414 367
f 317 415 414
f 318 368 319
f 204 369 530
f 530 370 320
f 320 370 416
f 370 607 371
f 416 371 473
f 416 417 418
f 416 418 372
f 372 418 417
f 417 419 374
f 417 374 373
f 373 374 372
f 374 420 322
f 322 420 421
f 323 322 421
f 323 421 422
f 422 326 375
f 325 377 423
f 376 423 377
f 326 422 376
f 378 423 424
f 379 480 380
f 379 378 480
f 380 480 425
f 380 425 426
f 380 426 329
f 329 426 427
f 329 427 330
f 330 427 426
f 330 426 382
f 222 332 272
f 382 384 383
f 223 382 332
f 279 386 280
f 280 386 387
f 387 386 429
f 388 389 283
f 389 430 333
f 387 429 281
f 281 429 226
f 390 431 626
f 390 626 334
f 390 334 287
f 228 490 335
f 334 433 490
f 335 435 434
f 434 289 391
f 289 434 230
f 290 393 395
f 293 438 394
f 394 438 236
f 236 438 337
f 236 337 292
f 338 341 296
f 338 296 239
f 338 395 439
f 338 440 396
f 338 396 341
f 340 441 443
f 341 396 442
f 443 441 444
f 342 445 446
f 342 446 344
f 443 445 342
f 344 447 448
f 344 448 301
f 301 448 449
f 301 449 397
f 399 450 345
f 305 400 346
f 346 400 451
f 346 452 348
f 348 452 453
f 348 453 454
f 348 454 455
f 348 455 456
f 349 348 350
f 352 402 350
f 352 350 456
f 352 456 353
f 353 456 401
f 401 456 454
f 401 454 503
f 457 360 351
f 457 351 505
f 308 403 404
f 403 457 458
f 403 458 404
f 404 458 308
f 308 458 405
f 405 459 311
f 311 459 506
f 311 506 460
f 311 460 406
f 363 362 512
f 363 512 461
f 363 461 583
f 407 408 313
f 408 462 463
f 408 463 366
f 408 366 409
f 366 463 464
f 366 464 410
f 410 464 411
f 411 464 465
f 411 465 466
f 411 466 412
f 412 466 467
f 412 467 525
f 412 525 468
f 367 528 368
f 415 468 414
f 368 528 319
f 530 607 370
f 319 469 369
f 369 470 530
f 371 607 471
f 371 471 472
f 473 474 416
f 416 474 475
f 416 475 417
f 417 475 419
f 419 420 374
f 421 476 422
f 376 422 476
f 376 476 421
f 376 477 423
f 423 477 478
f 423 478 424
f 378 424 546
f 378 546 480
f 425 480 426
f 272 481 482
f 272 482 483
f 272 483 381
f 272 428 481
f 381 483 484
f 381 484 388
f 332 428 272
f 388 484 389
f 382 426 485
f 385 333 486
f 385 486 623
f 385 623 386
f 386 487 488
f 429 431 226
f 333 430 486
f 389 489 486
f 389 486 430
f 334 432 433
f 432 491 490
f 490 433 432
f 335 490 491
f 335 491 492
f 335 492 435
f 434 435 493
f 434 493 494
f 434 494 293
f 434 293 235
f 392 337 495
f 436 496 437
f 437 496 395
f 437 395 393
f 293 498 499
f 293 499 438
f 439 440 338
f 439 395 440
f 340 442 501
f 340 501 441
f 441 500 502
f 441 502 444
f 444 560 443
f 443 560 445
f 399 563 450
f 397 449 399
f 346 453 452
f 454 569 503
f 455 454 456
f 348 456 350
f 401 504 505
f 401 505 351
f 457 505 458
f 458 505 574
f 458 574 405
f 405 574 506
f 405 506 459
f 406 460 508
f 406 508 361
f 460 507 508
f 460 506 509
f 460 509 510
f 460 510 511
f 460 511 577
f 460 577 507
f 361 508 512
f 361 512 362
f 363 583 513
f 363 513 364
f 364 513 514
f 364 514 407
f 407 514 408
f 408 514 515
f 408 515 462
f 462 516 463
f 463 516 517
f 463 517 464
f 464 517 518
f 464 518 589
f 464 589 591
f 464 591 465
f 465 591 593
f 465 593 519
f 465 519 520
f 465 521 466
f 465 520 521
f 466 521 467
f 467 521 522
f 467 522 523
f 467 523 524
f 467 524 525
f 468 525 526
f 468 526 598
f 468 598 414
f 414 527 367
f 367 599 600
f 367 600 528
f 528 529 319
f 414 598 527
f 319 529 469
f 369 469 604
f 470 532 530
f 607 530 534
f 607 535 471
f 471 535 472
f 472 535 536
f 472 536 537
f 472 537 538
f 472 538 539
f 472 539 540
f 472 540 541
f 472 541 542
f 472 542 371
f 371 542 473
f 473 542 474
f 474 543 475
f 475 543 419
f 419 543 474
f 420 419 544
f 420 544 545
f 420 545 421
f 421 477 376
f 478 477 424
f 546 424 547
f 479 480 547
f 480 548 426
f 426 548 485
f 483 482 484
f 332 549 428
f 332 382 549
f 481 550 482
f 382 485 548
f 382 548 550
f 382 550 549
f 486 489 551
f 486 551 623
f 623 487 386
f 488 429 386
f 429 488 626
f 429 626 431
f 334 626 432
f 491 552 627
f 432 552 491
f 432 626 552
f 435 492 491
f 494 553 498
f 494 498 293
f 493 435 553
f 493 553 494
f 392 495 436
f 392 436 437
f 436 554 555
f 436 555 496
f 496 555 395
f 395 555 632
f 395 632 440
f 337 438 497
f 497 556 337
f 337 556 495
f 440 632 442
f 440 442 396
f 441 501 500
f 501 442 500
f 442 557 500
f 344 559 447
f 344 446 559
f 445 560 558
f 448 447 561
f 448 561 449
f 449 562 399
f 399 562 563
f 450 564 641
f 450 563 565
f 450 565 564
f 450 641 345
f 345 641 400
f 400 641 451
f 451 566 453
f 451 453 346
f 453 567 454
f 454 568 569
f 569 570 571
f 569 571 504
f 569 504 401
f 503 569 401
f 454 567 645
f 454 645 568
f 504 571 572
f 504 572 505
f 505 573 574
f 505 572 573
f 506 575 509
f 508 579 512
f 508 507 577
f 508 577 578
f 508 578 579
f 510 509 576
f 510 576 511
f 511 576 577
f 512 579 580
f 512 580 582
f 512 582 581
f 512 581 461
f 461 581 584
f 461 584 583
f 462 515 585
f 462 585 586
f 462 587 516
f 516 587 517
f 517 587 588
f 517 588 518
f 518 588 663
f 518 663 589
f 589 590 591
f 591 592 593
f 593 594 519
f 519 594 595
f 519 595 596
f 519 596 520
f 520 523 522
f 520 522 521
f 520 596 523
f 523 597 524
f 523 596 597
f 524 526 525
f 524 597 526
f 598 526 599
f 598 599 527
f 367 527 599
f 528 601 529
f 528 600 602
f 528 602 601
f 529 674 469
f 530 532 534
f 469 531 604
f 531 603 604
f 604 533 369
f 369 533 470
f 470 534 532
f 470 533 605
f 470 605 534
f 533 606 605
f 534 605 607
f 536 608 537
f 537 608 609
f 537 609 538
f 538 609 610
f 538 610 611
f 538 611 539
f 539 611 612
f 539 612 540
f 540 613 541
f 540 612 614
f 540 614 613
f 541 613 474
f 541 474 542
f 474 613 696
f 474 696 419
f 419 696 615
f 419 615 544
f 544 615 616
f 544 616 617
f 544 617 545
f 545 617 477
f 545 477 421
f 477 617 547
f 477 547 424
f 480 546 547
f 547 699 479
f 479 699 618
f 479 548 480
f 482 620 484
f 484 622 389
f 484 621 622
f 549 550 428
f 428 550 481
f 550 619 482
f 389 622 621
f 389 621 489
f 623 624 625
f 623 625 487
f 487 625 488
f 626 629 552
f 491 627 631
f 491 631 435
f 553 630 498
f 556 634 495
f 499 635 438
f 438 635 497
f 442 632 636
f 442 636 557
f 500 557 636
f 444 637 560
f 444 502 637
f 445 558 638
f 447 639 640
f 447 640 719
f 447 719 561
f 559 639 447
f 560 637 558
f 562 565 563
f 564 565 562
f 566 567 453
f 451 641 564
f 451 564 566
f 569 568 570
f 570 642 571
f 571 642 643
f 571 643 644
f 571 644 572
f 572 644 573
f 573 644 646
f 573 646 574
f 574 575 506
f 575 576 509
f 576 575 647
f 576 647 577
f 577 648 744
f 577 744 578
f 578 748 579
f 577 647 740
f 579 748 580
f 581 582 649
f 582 580 649
f 583 650 513
f 583 584 651
f 583 651 650
f 581 649 754
f 581 754 584
f 584 754 652
f 584 652 651
f 513 650 759
f 514 585 515
f 585 655 586
f 586 656 657
f 586 657 587
f 586 587 462
f 586 655 658
f 586 658 659
f 586 659 660
f 586 660 661
f 586 661 656
f 587 657 662
f 587 662 588
f 588 662 663
f 589 663 590
f 591 664 665
f 591 665 592
f 592 666 593
f 593 667 772
f 593 666 668
f 593 668 667
f 593 772 669
f 593 669 594
f 596 595 670
f 596 670 775
f 596 775 597
f 526 597 671
f 526 671 672
f 526 672 599
f 599 672 673
f 599 673 600
f 600 673 602
f 529 601 674
f 602 675 676
f 602 676 677
f 602 677 674
f 602 674 601
f 469 674 531
f 531 678 603
f 603 679 604
f 603 678 680
f 603 680 681
f 603 681 679
f 533 604 682
f 605 683 684
f 605 684 691
f 605 691 535
f 605 535 607
f 605 606 685
f 605 685 686
f 605 686 683
f 533 682 606
f 606 687 688
f 606 688 685
f 606 682 689
f 606 689 690
f 606 690 687
f 535 691 536
f 536 691 684
f 536 684 692
f 536 692 693
f 536 693 608
f 608 693 694
f 608 694 609
f 609 694 802
f 609 802 610
f 610 802 611
f 611 802 695
f 611 695 612
f 612 695 614
f 613 614 697
f 613 697 696
f 614 695 697
f 696 698 615
f 615 698 616
f 616 698 617
f 617 698 700
f 547 617 699
f 617 700 699
f 699 700 701
f 618 702 479
f 699 701 618
f 479 702 548
f 548 702 704
f 548 704 550
f 619 620 482
f 484 620 703
f 489 705 551
f 551 706 707
f 551 707 811
f 489 621 705
f 551 811 623
f 624 629 625
f 625 629 488
f 488 629 626
f 552 708 628
f 552 628 627
f 627 628 631
f 629 708 552
f 553 709 630
f 630 710 498
f 631 711 712
f 631 712 435
f 435 712 709
f 435 709 553
f 495 634 716
f 495 716 436
f 436 713 554
f 555 554 632
f 633 715 497
f 497 715 556
f 556 716 634
f 497 635 633
f 636 632 500
f 500 632 717
f 500 718 502
f 500 717 718
f 445 638 559
f 445 559 446
f 561 719 449
f 559 720 721
f 559 721 722
f 559 722 639
f 558 724 725
f 558 725 638
f 558 637 723
f 449 719 726
f 449 726 562
f 564 727 566
f 566 728 729
f 566 729 567
f 645 567 731
f 568 645 570
f 570 645 730
f 570 730 732
f 642 570 733
f 642 733 734
f 642 734 643
f 643 734 646
f 643 646 644
f 574 646 735
f 574 735 736
f 574 736 575
f 646 734 735
f 647 737 740
f 647 575 738
f 647 738 739
f 647 739 737
f 740 741 742
f 740 742 577
f 577 742 743
f 577 743 648
f 648 743 745
f 648 745 746
f 648 746 744
f 578 744 748
f 580 749 750
f 580 750 751
f 580 748 749
f 649 752 753
f 649 753 754
f 649 580 751
f 649 751 755
f 649 755 756
f 649 756 757
f 649 757 858
f 649 858 758
f 649 758 752
f 650 651 760
f 650 760 761
f 650 761 759
f 651 652 760
f 759 761 513
f 513 653 654
f 513 654 514
f 513 761 653
f 653 761 862
f 654 762 514
f 514 762 585
f 655 585 762
f 655 762 763
f 655 763 658
f 656 661 764
f 656 764 657
f 657 764 662
f 658 763 659
f 659 763 765
f 659 765 870
f 659 870 766
f 659 766 660
f 660 766 767
f 660 767 662
f 660 662 661
f 661 662 764
f 662 767 663
f 663 768 590
f 663 767 768
f 591 590 769
f 665 664 592
f 592 664 770
f 592 770 666
f 667 668 770
f 667 770 773
f 669 774 595
f 669 595 594
f 597 775 776
f 671 597 777
f 597 778 777
f 597 776 778
f 672 671 779
f 672 779 780
f 672 780 673
f 673 780 781
f 673 781 602
f 602 781 782
f 602 782 675
f 674 677 783
f 675 782 784
f 675 784 785
f 675 785 786
f 675 786 676
f 676 787 677
f 676 786 788
f 676 788 787
f 677 787 783
f 674 783 789
f 531 674 789
f 531 789 790
f 531 790 678
f 678 790 791
f 678 791 792
f 678 792 680
f 679 681 795
f 679 795 682
f 679 682 604
f 680 792 681
f 681 792 793
f 681 793 690
f 681 690 794
f 681 794 795
f 682 795 794
f 682 794 796
f 682 796 690
f 682 690 689
f 683 686 797
f 683 797 798
f 683 798 684
f 684 798 799
f 684 799 692
f 685 688 687
f 685 687 686
f 686 690 800
f 686 800 798
f 686 798 797
f 686 687 690
f 690 900 800
f 690 796 794
f 690 793 900
f 692 799 693
f 693 799 801
f 693 801 694
f 694 801 907
f 694 907 802
f 695 802 910
f 695 910 697
f 696 697 698
f 697 700 698
f 697 910 700
f 701 803 618
f 618 804 805
f 618 805 702
f 618 806 804
f 620 807 808
f 620 808 703
f 484 703 809
f 484 809 621
f 621 809 705
f 703 808 809
f 550 704 702
f 550 702 619
f 620 805 807
f 619 805 620
f 705 810 551
f 706 811 707
f 705 812 813
f 705 813 810
f 623 811 624
f 624 811 814
f 624 708 629
f 708 815 628
f 628 815 816
f 628 816 817
f 628 817 631
f 708 624 815
f 498 710 818
f 498 818 499
f 709 819 630
f 711 631 820
f 712 711 709
f 716 821 436
f 436 821 713
f 713 822 554
f 554 822 714
f 554 714 632
f 714 823 632
f 633 635 715
f 715 716 556
f 716 824 825
f 716 825 826
f 499 818 827
f 499 827 635
f 635 827 828
f 635 828 715
f 717 632 718
f 502 829 637
f 637 829 723
f 559 638 720
f 638 830 720
f 638 725 724
f 638 724 830
f 639 722 640
f 640 722 831
f 640 831 719
f 723 724 558
f 724 723 830
f 719 831 833
f 719 833 726
f 726 564 562
f 566 727 834
f 566 834 728
f 729 731 567
f 645 731 730
f 731 836 730
f 732 837 570
f 570 739 738
f 570 738 733
f 733 738 736
f 733 736 735
f 733 735 734
f 736 738 575
f 737 739 838
f 737 838 740
f 739 570 839
f 739 839 838
f 740 838 741
f 741 838 839
f 741 839 742
f 742 839 840
f 742 840 743
f 743 841 745
f 743 840 842
f 743 842 843
f 743 843 841
f 744 746 844
f 744 844 747
f 744 747 748
f 745 845 746
f 745 841 845
f 746 845 846
f 746 846 844
f 747 847 750
f 747 750 749
f 747 749 748
f 747 844 848
f 747 848 847
f 750 847 849
f 750 849 850
f 750 850 751
f 751 851 756
f 751 756 755
f 751 850 852
f 751 852 851
f 752 758 753
f 753 652 754
f 753 758 853
f 753 853 652
f 756 851 854
f 756 854 757
f 757 855 856
f 757 856 857
f 757 857 853
f 757 853 858
f 757 854 859
f 757 859 852
f 757 852 855
f 758 858 853
f 760 860 861
f 760 861 761
f 761 861 862
f 652 860 760
f 653 862 863
f 653 863 654
f 862 956 864
f 862 864 863
f 762 654 865
f 762 865 765
f 762 765 763
f 654 863 866
f 654 866 867
f 654 867 865
f 765 865 868
f 765 868 869
f 765 869 870
f 870 871 766
f 766 871 768
f 766 768 767
f 768 871 590
f 590 871 872
f 872 769 590
f 591 966 873
f 591 769 966
f 591 874 664
f 591 873 874
f 664 874 875
f 664 876 877
f 664 877 770
f 664 875 876
f 770 668 666
f 667 773 878
f 667 878 772
f 772 878 771
f 771 879 772
f 771 880 879
f 773 881 771
f 773 771 878
f 774 670 595
f 774 669 880
f 772 879 880
f 772 880 669
f 670 882 775
f 775 883 776
f 775 882 883
f 776 883 979
f 776 979 884
f 776 884 778
f 777 885 779
f 777 779 671
f 777 778 885
f 778 884 885
f 779 885 780
f 780 885 886
f 780 886 980
f 780 980 887
f 780 887 888
f 780 888 781
f 781 888 889
f 781 889 782
f 782 889 887
f 782 887 784
f 783 787 890
f 783 890 891
f 783 891 789
f 784 887 785
f 786 785 788
f 787 788 890
f 788 785 892
f 788 892 890
f 789 891 893
f 789 893 894
f 789 894 790
f 790 894 791
f 791 895 896
f 791 896 792
f 791 894 895
f 792 896 897
f 792 898 793
f 793 898 899
f 793 899 900
f 798 801 799
f 798 800 801
f 800 900 904
f 800 904 901
f 800 901 902
f 800 902 903
f 800 903 801
f 900 905 904
f 900 899 905
f 802 909 906
f 802 907 908
f 802 908 909
f 801 903 907
f 802 906 910
f 910 906 911
f 910 911 803
f 910 803 701
f 700 910 701
f 803 911 912
f 803 913 914
f 803 914 618
f 803 912 913
f 702 805 619
f 618 914 806
f 807 915 808
f 808 915 995
f 808 995 916
f 808 916 917
f 808 917 809
f 807 918 915
f 807 805 804
f 807 804 918
f 809 812 705
f 706 919 920
f 706 920 811
f 551 810 706
f 706 921 922
f 706 922 919
f 813 923 810
f 624 814 815
f 814 1003 815
f 816 924 631
f 816 631 817
f 819 710 630
f 710 925 926
f 710 926 818
f 631 924 820
f 711 820 709
f 820 927 928
f 820 928 929
f 820 929 930
f 820 930 709
f 716 826 931
f 716 931 821
f 713 932 933
f 713 933 714
f 713 714 822
f 714 933 934
f 714 934 935
f 714 935 936
f 714 936 718
f 714 718 823
f 823 718 632
f 715 828 1022
f 715 1022 937
f 716 715 824
f 826 821 931
f 826 939 821
f 502 718 829
f 829 718 940
f 829 940 723
f 723 940 943
f 722 941 833
f 722 833 831
f 721 832 722
f 721 720 832
f 832 942 722
f 723 943 944
f 723 944 830
f 830 944 1025
f 830 1025 720
f 726 833 945
f 726 945 564
f 564 945 727
f 727 945 834
f 834 945 833
f 834 946 728
f 728 946 835
f 835 950 728
f 728 950 729
f 729 950 947
f 729 947 836
f 729 836 731
f 730 837 732
f 730 836 947
f 730 947 837
f 837 842 840
f 837 840 570
f 837 947 842
f 570 840 839
f 841 948 949
f 841 843 948
f 841 949 845
f 842 950 843
f 842 947 950
f 843 950 951
f 843 951 948
f 844 846 848
f 845 949 846
f 846 949 848
f 847 848 849
f 848 949 849
f 849 855 852
f 849 852 850
f 849 952 855
f 851 859 854
f 851 852 859
f 652 853 860
f 853 953 860
f 853 857 953
f 855 952 1033
f 855 1033 954
f 855 954 856
f 856 954 857
f 857 954 1037
f 860 953 955
f 860 955 861
f 861 956 862
f 861 955 957
f 861 957 956
f 863 864 958
f 863 958 959
f 863 959 866
f 864 956 960
f 864 960 961
f 864 961 958
f 865 867 868
f 866 959 962
f 866 962 867
f 867 962 868
f 868 962 869
f 869 962 963
f 869 963 964
f 870 869 964
f 870 964 1044
f 870 1044 871
f 871 1045 872
f 872 1045 769
f 769 1045 966
f 966 967 968
f 966 968 873
f 875 969 876
f 877 773 770
f 771 881 970
f 771 971 972
f 771 972 880
f 880 972 774
f 774 973 670
f 774 974 973
f 882 975 976
f 882 976 883
f 882 1058 975
f 670 973 882
f 882 973 1058
f 883 977 978
f 883 978 979
f 979 885 884
f 885 979 886
f 886 1061 982
f 886 982 980
f 887 889 888
f 890 892 895
f 890 895 981
f 890 981 891
f 891 981 893
f 887 982 785
f 785 1062 983
f 785 983 892
f 892 983 1064
f 893 981 895
f 893 895 894
f 895 892 1064
f 895 1064 984
f 895 984 896
f 897 898 792
f 897 896 985
f 897 985 986
f 897 986 989
f 897 989 898
f 898 989 899
f 899 989 905
f 904 905 901
f 901 905 987
f 901 987 903
f 901 903 902
f 903 987 907
f 905 988 987
f 905 989 988
f 906 909 911
f 907 987 990
f 907 990 913
f 907 913 908
f 908 913 909
f 987 991 992
f 987 992 990
f 911 909 912
f 912 909 913
f 913 993 806
f 913 806 914
f 804 806 993
f 804 993 994
f 804 994 918
f 916 812 809
f 916 809 917
f 918 996 915
f 915 996 995
f 810 923 921
f 810 921 706
f 919 997 998
f 919 998 920
f 920 814 811
f 919 999 1000
f 919 1000 1001
f 919 1001 997
f 812 1002 921
f 812 921 813
f 813 921 923
f 815 1003 816
f 814 920 1003
f 816 1004 924
f 816 1003 1005
f 816 1005 1006
f 816 1006 1004
f 924 1004 820
f 818 926 827
f 709 930 929
f 709 929 819
f 819 929 1007
f 819 1007 710
f 710 1007 1008
f 710 1008 925
f 926 1009 1010
f 820 1004 1006
f 820 1006 927
f 928 1011 1012
f 928 1012 929
f 821 939 713
f 713 939 826
f 713 826 1013
f 713 1013 1014
f 713 1014 1015
f 713 1015 932
f 935 1016 718
f 935 718 936
f 937 1017 715
f 715 1017 1018
f 715 1018 824
f 825 1019 938
f 825 938 826
f 825 824 1019
f 938 1020 1091
f 938 1091 1014
f 938 1014 1013
f 938 1013 826
f 827 1021 1022
f 827 1022 828
f 718 1016 940
f 722 942 1023
f 722 1023 941
f 941 946 1024
f 941 1024 833
f 833 1024 946
f 720 1025 832
f 832 1025 1026
f 832 1026 1023
f 832 1023 942
f 1025 944 1028
f 1025 1028 1027
f 833 946 834
f 835 946 1029
f 835 1029 1101
f 835 1101 1030
f 835 951 950
f 948 1031 949
f 948 951 1031
f 951 835 1030
f 951 1030 1032
f 951 1032 1031
f 949 1031 849
f 849 1031 952
f 857 1037 953
f 953 1034 957
f 953 957 955
f 953 1037 1034
f 1033 1035 954
f 954 1035 1036
f 954 1036 1037
f 956 957 960
f 958 961 959
f 959 961 1038
f 959 1038 962
f 960 1105 1039
f 960 1039 961
f 961 1039 1038
f 962 1038 963
f 963 1038 1040
f 963 1040 1041
f 963 1041 1042
f 963 1042 964
f 964 1042 1041
f 964 1041 1043
f 964 1043 1044
f 1044 965 871
f 871 965 1045
f 965 1046 966
f 966 1046 967
f 968 874 873
f 874 1047 875
f 875 1047 1048
f 875 1048 969
f 969 1049 1050
f 969 1050 876
f 876 1050 877
f 877 1050 1051
f 877 881 773
f 970 1052 1053
f 970 1053 971
f 971 1054 972
f 970 971 771
f 971 1053 1055
f 971 1055 1056
f 971 1056 1057
f 971 1057 1054
f 972 1054 774
f 774 1054 974
f 973 974 1058
f 975 1058 976
f 976 1059 978
f 976 978 977
f 976 977 883
f 976 1058 1060
f 976 1060 1059
f 978 1059 1061
f 978 1061 979
f 979 1061 886
f 1061 1134 982
f 1061 1059 1134
f 982 1134 1062
f 982 887 980
f 982 1062 785
f 1064 1066 984
f 1064 983 1063
f 1064 1136 1065
f 1064 1065 1066
f 984 1066 985
f 984 985 896
f 985 1066 1067
f 986 1068 989
f 989 1068 1140
f 988 1069 991
f 988 991 987
f 988 989 1069
f 990 992 913
f 913 992 993
f 991 1069 1070
f 991 1070 992
f 993 992 994
f 994 1071 918
f 918 1071 996
f 995 1072 1073
f 995 1073 916
f 916 1073 1002
f 916 1002 812
f 996 1071 995
f 995 1071 1072
f 920 1005 1003
f 920 998 1005
f 922 999 919
f 999 1074 1075
f 999 1075 1000
f 1001 1000 1076
f 1002 1077 1078
f 1002 1078 999
f 1002 999 922
f 1002 922 921
f 1006 1005 927
f 926 1021 827
f 925 1009 926
f 925 1008 1080
f 925 1080 1081
f 925 1081 1009
f 926 1010 1021
f 1009 1081 1082
f 927 1083 928
f 928 1083 1084
f 928 1084 1011
f 1011 1085 1007
f 1011 1007 1012
f 1012 1007 929
f 1007 1085 1086
f 1007 1086 1079
f 1014 1087 932
f 1014 932 1015
f 933 932 934
f 934 1088 935
f 1022 1017 937
f 1017 1147 1019
f 1017 1019 824
f 1017 824 1018
f 1019 1089 1020
f 1019 1020 938
f 1020 1090 1091
f 1022 1021 1017
f 940 1092 1093
f 940 1093 943
f 940 1016 1092
f 943 1095 944
f 943 1093 1095
f 1023 1094 941
f 944 1095 1027
f 944 1027 1028
f 1027 1096 1097
f 1027 1097 1023
f 1027 1095 1098
f 1027 1098 1096
f 1027 1023 1025
f 946 941 1029
f 1029 941 1094
f 1029 1099 1100
f 1029 1100 1030
f 1029 1030 1101
f 1030 1100 1102
f 1030 1102 1031
f 1030 1031 1032
f 1031 1102 1103
f 1031 1103 952
f 952 1103 1033
f 1037 1156 1104
f 1037 1104 1034
f 1034 960 957
f 1034 1105 960
f 1034 1104 1106
f 1033 1107 1108
f 1033 1108 1035
f 1036 1109 1159
f 1036 1159 1037
f 1037 1159 1156
f 1038 1039 1110
f 1038 1110 1040
f 1105 1034 1111
f 1105 1112 1110
f 1105 1110 1039
f 1040 1110 1113
f 1040 1113 1041
f 1041 1114 1043
f 1041 1113 1115
f 1041 1115 1114
f 1043 965 1044
f 1043 1114 1161
f 1043 1161 1116
f 1043 1116 965
f 965 966 1045
f 965 1117 1046
f 965 1116 1117
f 1046 1117 967
f 1116 1161 1117
f 967 1117 1118
f 967 1118 1119
f 967 1119 1120
f 967 1120 1121
f 967 1121 874
f 967 874 968
f 874 1122 1123
f 874 1123 1124
f 874 1124 1047
f 1048 1047 969
f 969 1047 1125
f 969 1125 1124
f 969 1090 1049
f 969 1124 1090
f 1049 1051 1050
f 1051 1126 877
f 1051 1019 1127
f 1051 1127 1126
f 877 1126 881
f 881 1126 1127
f 881 1127 1128
f 881 1128 970
f 970 1129 1052
f 1054 1130 974
f 1057 1169 1054
f 974 1131 1132
f 974 1132 1133
f 974 1133 1058
f 1058 1133 1060
f 974 1130 1131
f 1059 1060 1135
f 1059 1135 1134
f 1060 1133 1132
f 1060 1132 1135
f 1134 1063 1062
f 1062 1063 983
f 1066 1065 1067
f 1063 1134 1064
f 1064 1134 1136
f 1136 1137 1138
f 1136 1138 1065
f 1067 986 985
f 1067 1176 1068
f 1067 1068 986
f 1068 1139 1140
f 1140 1069 989
f 1069 1140 1073
f 1069 1071 1070
f 1070 1071 994
f 1070 994 992
f 1071 1069 1072
f 1072 1069 1073
f 1073 1077 1002
f 1073 1139 1077
f 998 997 1005
f 999 1078 1074
f 1000 1075 1076
f 997 927 1005
f 1078 1141 1075
f 1078 1075 1074
f 1079 1080 1007
f 1007 1080 1008
f 1080 1079 1086
f 1080 1086 1056
f 1080 1056 1081
f 1081 1056 1052
f 1081 1052 1082
f 927 997 1083
f 1084 1142 1011
f 1084 1083 1001
f 1011 1142 1144
f 1011 1144 1143
f 1011 1143 1086
f 1011 1086 1085
f 1086 1143 1144
f 1014 1145 1087
f 1087 1146 1088
f 932 1087 934
f 934 1087 1088
f 1088 1184 935
f 935 1092 1016
f 1017 1021 1147
f 1147 1021 1010
f 1019 1147 1127
f 1019 1051 1089
f 1089 1148 1020
f 1020 1148 1090
f 1090 1124 1145
f 1090 1148 1089
f 1090 1145 1014
f 1090 1014 1091
f 1092 1149 1095
f 1092 1095 1093
f 1092 935 1150
f 1023 1026 1025
f 1023 1097 1151
f 1023 1151 1152
f 1023 1152 1153
f 1023 1153 1099
f 1023 1099 1094
f 1096 1098 1095
f 1096 1095 1155
f 1096 1151 1097
f 1029 1094 1099
f 1099 1108 1100
f 1100 1108 1107
f 1100 1107 1033
f 1100 1033 1102
f 1102 1033 1103
f 1156 1106 1104
f 1034 1106 1111
f 1106 1157 1111
f 1108 1099 1153
f 1108 1153 1036
f 1108 1036 1035
f 1036 1153 1109
f 1110 1112 1113
f 1111 1157 1105
f 1105 1157 1115
f 1105 1115 1113
f 1105 1113 1112
f 1114 1115 1157
f 1114 1157 1160
f 1114 1160 1161
f 1161 1162 1163
f 1119 1164 1165
f 1119 1165 1121
f 1119 1121 1120
f 1121 1166 874
f 874 1166 1167
f 874 1167 1122
f 1124 1125 1047
f 1090 1051 1049
f 1128 1129 970
f 1129 1082 1052
f 1052 1056 1053
f 1053 1056 1055
f 1054 1169 1131
f 1054 1131 1130
f 1169 1132 1131
f 1056 1086 1057
f 1057 1144 1170
f 1057 1170 1169
f 1057 1086 1144
f 1169 1170 1168
f 1132 1169 1171
f 1132 1171 1191
f 1134 1135 1136
f 1135 1172 1136
f 1132 1193 1135
f 1135 1193 1172
f 1065 1138 1067
f 1067 1138 1137
f 1067 1137 1173
f 1067 1173 1174
f 1067 1174 1176
f 1176 1174 1175
f 1176 1139 1068
f 1139 1176 1077
f 1139 1073 1140
f 1077 1176 1175
f 1077 1175 1078
f 1141 1177 1075
f 1075 1177 1178
f 1075 1178 1179
f 1075 1179 1076
f 1076 1180 1001
f 1076 1179 1178
f 1076 1178 1180
f 1001 1083 997
f 1001 1180 1084
f 1078 1175 1141
f 1141 1175 1181
f 1141 1181 1198
f 1082 1129 1009
f 1009 1129 1128
f 1009 1128 1127
f 1009 1127 1010
f 1010 1127 1147
f 1084 1180 1142
f 1142 1180 1182
f 1145 1122 1183
f 1145 1183 1087
f 1146 1184 1088
f 935 1184 1149
f 935 1149 1150
f 1089 1051 1090
f 1124 1123 1145
f 1145 1123 1122
f 1092 1150 1149
f 1149 1154 1095
f 1151 1185 1186
f 1151 1186 1153
f 1151 1153 1152
f 1151 1096 1185
f 1095 1154 1187
f 1095 1187 1155
f 1155 1187 1164
f 1155 1188 1096
f 1096 1188 1163
f 1096 1163 1189
f 1096 1189 1185
f 1156 1159 1106
f 1106 1159 1157
f 1153 1186 1158
f 1153 1158 1109
f 1109 1158 1159
f 1158 1186 1157
f 1158 1157 1159
f 1160 1162 1161
f 1163 1188 1118
f 1163 1118 1117
f 1163 1117 1161
f 1118 1188 1119
f 1119 1188 1155
f 1119 1155 1164
f 1164 1154 1149
f 1164 1149 1165
f 1165 1149 1121
f 1121 1149 1184
f 1121 1184 1190
f 1121 1190 1122
f 1121 1122 1166
f 1166 1122 1167
f 1122 1190 1183
f 1170 1144 1168
f 1168 1144 1182
f 1168 1182 1169
f 1132 1191 1193
f 1171 1169 1182
f 1136 1172 1137
f 1172 1173 1137
f 1172 1194 1173
f 1172 1193 1194
f 1173 1195 1174
f 1174 1195 1175
f 1175 1195 1181
f 1141 1198 1197
f 1180 1178 1196
f 1178 1192 1196
f 1181 1195 1198
f 1198 1194 1197
f 1180 1196 1182
f 1182 1196 1171
f 1182 1144 1142
f 1183 1190 1146
f 1183 1146 1087
f 1146 1190 1184
f 1186 1185 1199
f 1187 1154 1164
f 1189 1163 1185
f 1185 1163 1199
f 1157 1162 1160
f 1186 1199 1157
f 1157 1199 1162
f 1162 1199 1163
f 1191 1200 1193
f 1191 1171 1201
f 1191 1201 1200
f 1171 1196 1192
f 1171 1192 1201
f 1192 1178 1201
f 1173 1194 1198
f 1173 1198 1195
f 1193 1201 1194
f 1193 1200 1201
f 1194 1201 1197
f 1141 1197 1201
f 1141 1201 1177
f 1177 1201 1178
