v -0.0117999 -0.0270005 0.0286236
v -0.0119589 -0.0437537 0.0285388
v -0.0119274 -0.040701 0.0332023
v -0.011778 -0.0241652 0.0194349
v -0.0118045 -0.0269538 0.0194208
v -0.0117715 -0.0242319 0.0325885
v -0.0117875 -0.0259551 0.033277
v 0.0103983 -0.0244422 0.0325765
v 0.0103823 -0.0261654 0.033265
v 0.00996886 -0.0486942 0.029275
v -0.0212989 -0.0483975 0.0292919
v -0.0212953 -0.0480071 0.0290627
v 0.0194655 -0.0483938 0.0290406
v 0.0194619 -0.0487842 0.0292699
v -0.0212915 -0.0475963 0.0288725
v 0.0194693 -0.047983 0.0288505
v -0.0212876 -0.0471688 0.0287233
v 0.0194733 -0.0475555 0.0287012
v -0.0212834 -0.0467289 0.0286163
v 0.0194774 -0.0471156 0.0285942
v -0.0212792 -0.0462807 0.0285526
v 0.0194816 -0.0466674 0.0285305
v -0.0212749 -0.0458284 0.0285328
v 0.0194859 -0.0462151 0.0285108
v 0.0195064 -0.0440522 0.0285217
v 0.0102109 -0.043964 0.0285268
v 0.0195379 -0.0409995 0.0331852
v 0.0102424 -0.0409113 0.0331903
v -0.0147241 -0.050019 0.0391974
v -0.0152516 -0.0506578 0.0396191
v -0.0145953 -0.0500854 0.03924
v -0.015037 -0.0507684 0.0396901
v -0.0144588 -0.0501397 0.0392747
v -0.0148095 -0.050859 0.0397478
v -0.0143161 -0.0501814 0.039301
v -0.0145716 -0.0509285 0.0397917
v -0.0141689 -0.05021 0.0393187
v -0.0143263 -0.050976 0.0398212
v -0.0140189 -0.0502251 0.0393275
v -0.0140764 -0.0510012 0.039836
v -0.013868 -0.0502265 0.0393275
v -0.0138247 -0.0510036 0.0398358
v -0.0137178 -0.0502143 0.0393184
v -0.0135744 -0.0509832 0.0398208
v -0.0135701 -0.0501885 0.0393006
v -0.0133282 -0.0509402 0.039791
v -0.0134266 -0.0501495 0.0392741
v -0.0130892 -0.0508753 0.0397469
v -0.0132891 -0.0500978 0.0392393
v -0.01286 -0.0507891 0.0396889
v -0.0131592 -0.0500339 0.0391966
v -0.0126434 -0.0506826 0.0396177
v -0.0130383 -0.0499586 0.0391465
v -0.0124419 -0.0505571 0.0395342
v -0.0129279 -0.0498728 0.0390896
v -0.0122579 -0.050414 0.0394393
v -0.0128293 -0.0497774 0.0390265
v -0.0120935 -0.0502551 0.0393342
v -0.0127436 -0.0496737 0.038958
v -0.0119507 -0.0500822 0.03922
v -0.0126718 -0.0495627 0.0388849
v -0.0118312 -0.0498973 0.0390982
v -0.0126149 -0.0494459 0.038808
v -0.0117363 -0.0497026 0.0389701
v -0.0125734 -0.0493246 0.0387283
v -0.0116671 -0.0495004 0.0388373
v -0.0125478 -0.0492002 0.0386467
v -0.0116245 -0.049293 0.0387013
v -0.0125385 -0.0490741 0.0385641
v -0.0116089 -0.0490829 0.0385636
v -0.0125455 -0.0489479 0.0384816
v -0.0116206 -0.0488726 0.038426
v -0.0125688 -0.048823 0.0384
v -0.0116595 -0.0486645 0.03829
v -0.0126081 -0.0487009 0.0383203
v -0.0117249 -0.048461 0.0381573
v -0.0126629 -0.0485831 0.0382435
v -0.0118163 -0.0482645 0.0380293
v -0.0127326 -0.0484708 0.0381705
v -0.0119324 -0.0480774 0.0379076
v -0.0128164 -0.0483654 0.0381021
v -0.0120721 -0.0479018 0.0377936
v -0.0129132 -0.0482682 0.0380391
v -0.0122335 -0.0477398 0.0376886
v -0.013022 -0.0481803 0.0379823
v -0.0124148 -0.0475933 0.037594
v -0.0131415 -0.0481027 0.0379324
v -0.012614 -0.047464 0.0375107
v -0.0132703 -0.0480364 0.0378898
v -0.0128286 -0.0473534 0.0374397
v -0.0134068 -0.047982 0.0378551
v -0.0130562 -0.0472628 0.037382
v -0.0135495 -0.0479404 0.0378288
v -0.013294 -0.0471933 0.0373381
v -0.0136967 -0.0479118 0.0378111
v -0.0135393 -0.0471457 0.0373086
v -0.0138467 -0.0478967 0.0378023
v -0.0137893 -0.0471206 0.0372938
v -0.0139977 -0.0478953 0.0378023
v -0.0140409 -0.0471182 0.037294
v -0.0141479 -0.0479075 0.0378114
v -0.0142913 -0.0471386 0.037309
v -0.0142956 -0.0479333 0.0378292
v -0.0145374 -0.0471815 0.0373388
v -0.014439 -0.0479723 0.0378557
v -0.0147765 -0.0472465 0.0373829
v -0.0145765 -0.048024 0.0378905
v -0.0150057 -0.0473327 0.0374409
v -0.0147065 -0.0480879 0.0379332
v -0.0152223 -0.0474392 0.0375121
v -0.0148274 -0.0481632 0.0379833
v -0.0154237 -0.0475647 0.0375956
v -0.0149378 -0.048249 0.0380402
v -0.0156077 -0.0477078 0.0376905
v -0.0150364 -0.0483444 0.0381033
v -0.0157721 -0.0478667 0.0377956
v -0.0151221 -0.0484481 0.0381718
v -0.0159149 -0.0480396 0.0379098
v -0.0151938 -0.048559 0.0382449
v -0.0160345 -0.0482245 0.0380316
v -0.0152508 -0.0486759 0.0383218
v -0.0161294 -0.0484192 0.0381597
v -0.0152923 -0.0487972 0.0384015
v -0.0161985 -0.0486214 0.0382925
v -0.0153178 -0.0489216 0.0384831
v -0.0162412 -0.0488288 0.0384285
v -0.0153271 -0.0490477 0.0385657
v -0.0162567 -0.0490388 0.0385662
v -0.0153201 -0.0491739 0.0386482
v -0.016245 -0.0492492 0.0387038
v -0.0152968 -0.0492988 0.0387298
v -0.0162062 -0.0494573 0.0388398
v -0.0152576 -0.0494209 0.0388095
v -0.0161407 -0.0496608 0.0389725
v -0.0152027 -0.0495387 0.0388863
v -0.0160494 -0.0498573 0.0391005
v -0.0151331 -0.049651 0.0389593
v -0.0159332 -0.0500444 0.0392222
v -0.0150493 -0.0497564 0.0390277
v -0.0157936 -0.05022 0.0393362
v -0.0149524 -0.0498536 0.0390907
v -0.0156322 -0.050382 0.0394412
v -0.0148436 -0.0499415 0.0391475
v -0.0154508 -0.0505285 0.0395358
v -0.0212544 -0.0436655 0.0285438
v -0.0212229 -0.0406128 0.0332073
v -0.0116247 -0.0506103 0.0362304
v -0.0116402 -0.0508204 0.036368
v -0.0116828 -0.0510277 0.036504
v -0.011752 -0.05123 0.0366368
v -0.0118469 -0.0514247 0.0367649
v -0.0119665 -0.0516095 0.0368868
v -0.0121093 -0.0517824 0.0370009
v -0.0122737 -0.0519414 0.037106
v -0.0124577 -0.0520844 0.0372009
v -0.0126591 -0.0522099 0.0372844
v -0.0128757 -0.0523164 0.0373556
v -0.0131049 -0.0524026 0.0374136
v -0.013344 -0.0524676 0.0374577
v -0.0135901 -0.0525105 0.0374875
v -0.0138405 -0.0525309 0.0375025
v -0.0140921 -0.0525285 0.0375027
v -0.0143421 -0.0525034 0.0374879
v -0.0145874 -0.0524558 0.0374584
v -0.0148252 -0.0523863 0.0374145
v -0.0150528 -0.0522958 0.0373568
v -0.0152674 -0.0521852 0.0372858
v -0.0154666 -0.0520559 0.0372026
v -0.0156479 -0.0519093 0.0371079
v -0.0158093 -0.0517473 0.0370029
v -0.015949 -0.0515718 0.0368889
v -0.0160651 -0.0513846 0.0367672
v -0.0161565 -0.0511882 0.0366392
v -0.0162219 -0.0509847 0.0365065
v -0.0162607 -0.0507765 0.0363705
v -0.0162724 -0.0505662 0.0362329
v -0.0162569 -0.0503561 0.0360952
v -0.0162143 -0.0501487 0.0359592
v -0.0161451 -0.0499465 0.0358264
v -0.0160502 -0.0497518 0.0356983
v -0.0159306 -0.0495669 0.0355765
v -0.0157878 -0.049394 0.0354623
v -0.0156235 -0.0492351 0.0353572
v -0.0154395 -0.0490921 0.0352623
v -0.015238 -0.0489666 0.0351788
v -0.0150214 -0.0488601 0.0351076
v -0.0147922 -0.0487738 0.0350496
v -0.0145532 -0.0487089 0.0350055
v -0.014307 -0.048666 0.0349757
v -0.0140567 -0.0486456 0.0349607
v -0.013805 -0.048648 0.0349606
v -0.0135551 -0.0486731 0.0349753
v -0.0133098 -0.0487207 0.0350048
v -0.0130719 -0.0487902 0.0350487
v -0.0128444 -0.0488807 0.0351064
v -0.0126297 -0.0489913 0.0351774
v -0.0124306 -0.0491206 0.0352607
v -0.0122492 -0.0492671 0.0353554
v -0.0120878 -0.0494291 0.0354603
v -0.0119482 -0.0496047 0.0355743
v -0.011832 -0.0497918 0.035696
v -0.0117407 -0.0499883 0.035824
v -0.0116752 -0.0501918 0.0359568
v -0.0116364 -0.0503999 0.0360927
v -0.00447791 -0.0242665 0.0257521
v -0.00450437 -0.0270551 0.025738
v -0.00463369 -0.0242649 0.0257438
v -0.00466016 -0.0270536 0.0257296
v -0.00478766 -0.0242633 0.0257186
v -0.00481412 -0.027052 0.0257045
v -0.004938 -0.0242617 0.0256769
v -0.00496446 -0.0270503 0.0256628
v -0.00508295 -0.02426 0.0256193
v -0.00510942 -0.0270487 0.0256051
v -0.00522082 -0.0242584 0.0255463
v -0.00524729 -0.027047 0.0255321
v -0.00534999 -0.0242567 0.0254588
v -0.00537646 -0.0270453 0.0254447
v -0.00546895 -0.0242551 0.0253579
v -0.00549541 -0.0270437 0.0253437
v -0.00557629 -0.0242535 0.0252446
v -0.00560275 -0.0270421 0.0252305
v -0.00567076 -0.0242519 0.0251205
v -0.00569722 -0.0270406 0.0251064
v -0.00575126 -0.0242505 0.0249869
v -0.00577772 -0.0270391 0.0249727
v -0.00581683 -0.0242492 0.0248453
v -0.00584329 -0.0270378 0.0248312
v -0.00586672 -0.0242479 0.0246975
v -0.00589318 -0.0270366 0.0246834
v -0.00590033 -0.0242468 0.0245451
v -0.00592679 -0.0270355 0.024531
v -0.00591727 -0.0242459 0.0243901
v -0.00594374 -0.0270345 0.0243759
v -0.00591735 -0.0242451 0.024234
v -0.00594381 -0.0270337 0.0242199
v -0.00590056 -0.0242445 0.0240789
v -0.00592702 -0.0270331 0.0240648
v -0.0058671 -0.024244 0.0239266
v -0.00589356 -0.0270326 0.0239124
v -0.00581736 -0.0242437 0.0237787
v -0.00584382 -0.0270324 0.0237646
v -0.00575192 -0.0242437 0.0236371
v -0.00577838 -0.0270323 0.0236229
v -0.00567156 -0.0242437 0.0235033
v -0.00569802 -0.0270324 0.0234892
v -0.00557721 -0.024244 0.0233791
v -0.00560367 -0.0270326 0.0233649
v -0.00546998 -0.0242444 0.0232658
v -0.00549644 -0.0270331 0.0232516
v -0.00535113 -0.0242451 0.0231647
v -0.00537759 -0.0270337 0.0231506
v -0.00522204 -0.0242458 0.0230771
v -0.00524851 -0.0270345 0.0230629
v -0.00508425 -0.0242468 0.0230039
v -0.00511071 -0.0270354 0.0229898
v -0.00493935 -0.0242479 0.0229461
v -0.00496581 -0.0270365 0.022932
v -0.00478905 -0.0242491 0.0229043
v -0.00481551 -0.0270377 0.0228901
v -0.00463511 -0.0242504 0.022879
v -0.00466157 -0.027039 0.0228648
v -0.00447933 -0.0242518 0.0228704
v -0.0045058 -0.0270405 0.0228563
v -0.00432355 -0.0242534 0.0228788
v -0.00435001 -0.027042 0.0228647
v -0.00416959 -0.024255 0.0229039
v -0.00419605 -0.0270436 0.0228898
v -0.00401925 -0.0242566 0.0229456
v -0.00404571 -0.0270452 0.0229315
v -0.00387429 -0.0242583 0.0230033
v -0.00390075 -0.0270469 0.0229891
v -0.00373642 -0.0242599 0.0230763
v -0.00376288 -0.0270486 0.0230621
v -0.00360725 -0.0242616 0.0231637
v -0.00363371 -0.0270502 0.0231496
v -0.0034883 -0.0242632 0.0232647
v -0.00351476 -0.0270519 0.0232506
v -0.00338096 -0.0242648 0.0233779
v -0.00340742 -0.0270535 0.0233638
v -0.00328648 -0.0242664 0.023502
v -0.00331295 -0.027055 0.0234879
v -0.00320599 -0.0242678 0.0236357
v -0.00323245 -0.0270564 0.0236215
v -0.00314041 -0.0242691 0.0237772
v -0.00316687 -0.0270578 0.0237631
v -0.00309053 -0.0242704 0.023925
v -0.00311699 -0.027059 0.0239109
v -0.00305691 -0.0242715 0.0240774
v -0.00308338 -0.0270601 0.0240633
v -0.00303997 -0.0242724 0.0242325
v -0.00306643 -0.027061 0.0242184
v -0.00303989 -0.0242732 0.0243885
v -0.00306636 -0.0270618 0.0243744
v -0.00305668 -0.0242738 0.0245436
v -0.00308315 -0.0270624 0.0245295
v -0.00309015 -0.0242743 0.024696
v -0.00311661 -0.0270629 0.0246819
v -0.00313989 -0.0242746 0.0248439
v -0.00316635 -0.0270632 0.0248297
v -0.00320532 -0.0242747 0.0249855
v -0.00323178 -0.0270633 0.0249714
v -0.00328569 -0.0242746 0.0251192
v -0.00331215 -0.0270632 0.0251051
v -0.00338004 -0.0242743 0.0252435
v -0.0034065 -0.0270629 0.0252293
v -0.00348727 -0.0242739 0.0253568
v -0.00351373 -0.0270625 0.0253427
v -0.00360612 -0.0242732 0.0254578
v -0.00363258 -0.0270619 0.0254437
v -0.0037352 -0.0242725 0.0255455
v -0.00376166 -0.0270611 0.0255313
v -0.003873 -0.0242715 0.0256186
v -0.00389946 -0.0270601 0.0256045
v -0.0040179 -0.0242704 0.0256764
v -0.00404436 -0.0270591 0.0256623
v -0.0041682 -0.0242692 0.0257183
v -0.00419466 -0.0270578 0.0257041
v -0.00432214 -0.0242679 0.0257436
v -0.0043486 -0.0270565 0.0257295
v 0.0194882 -0.0462387 0.0331587
v 0.00953034 -0.0461442 0.0331641
v -0.0212726 -0.045852 0.0331807
v -0.0125805 -0.053147 0.032342
v -0.0125898 -0.0532731 0.0324246
v -0.0126154 -0.0533975 0.0325062
v -0.0126569 -0.0535189 0.0325859
v -0.0127138 -0.0536357 0.0326628
v -0.0127856 -0.0537466 0.0327359
v -0.0128713 -0.0538503 0.0328044
v -0.0129699 -0.0539457 0.0328675
v -0.0130803 -0.0540315 0.0329244
v -0.0132012 -0.0541068 0.0329745
v -0.0133311 -0.0541707 0.0330172
v -0.0134686 -0.0542225 0.033052
v -0.0136121 -0.0542614 0.0330785
v -0.0137598 -0.0542872 0.0330963
v -0.01391 -0.0542994 0.0331053
v -0.014061 -0.054298 0.0331054
v -0.0142109 -0.0542829 0.0330966
v -0.0143581 -0.0542544 0.0330789
v -0.0145008 -0.0542127 0.0330525
v -0.0146374 -0.0541583 0.0330179
v -0.0147661 -0.054092 0.0329753
v -0.0148856 -0.0540144 0.0329254
v -0.0149944 -0.0539265 0.0328685
v -0.0150913 -0.0538293 0.0328056
v -0.0151751 -0.0537239 0.0327372
v -0.0152448 -0.0536117 0.0326642
v -0.0152996 -0.0534938 0.0325874
v -0.0153388 -0.0533717 0.0325077
v -0.0153621 -0.0532468 0.0324261
v -0.0153692 -0.0531206 0.0323436
v -0.0153598 -0.0529945 0.032261
v -0.0153343 -0.0528701 0.0321794
v -0.0152928 -0.0527488 0.0320997
v -0.0152358 -0.052632 0.0320228
v -0.0151641 -0.052521 0.0319497
v -0.0150784 -0.0524173 0.0318812
v -0.0149798 -0.0523219 0.0318181
v -0.0148694 -0.0522361 0.0317612
v -0.0147485 -0.0521608 0.0317111
v -0.0146185 -0.0520969 0.0316684
v -0.014481 -0.0520452 0.0316336
v -0.0143376 -0.0520062 0.0316071
v -0.0141899 -0.0519805 0.0315893
v -0.0140397 -0.0519682 0.0315802
v -0.0138887 -0.0519697 0.0315802
v -0.0137387 -0.0519847 0.031589
v -0.0135915 -0.0520133 0.0316067
v -0.0134488 -0.052055 0.031633
v -0.0133123 -0.0521093 0.0316677
v -0.0131835 -0.0521757 0.0317103
v -0.013064 -0.0522533 0.0317602
v -0.0129552 -0.0523412 0.031817
v -0.0128584 -0.0524384 0.03188
v -0.0127746 -0.0525437 0.0319484
v -0.0127049 -0.052656 0.0320214
v -0.0126501 -0.0527739 0.0320982
v -0.0126108 -0.052896 0.0321779
v -0.0125875 -0.0530208 0.0322595
v 0.0142039 -0.0726337 0.0504723
v 0.0142041 -0.0713164 0.0529432
v 0.0141883 -0.0728438 0.0506099
v 0.0141615 -0.0715238 0.0530792
v 0.0141457 -0.0730511 0.0507459
v 0.0140923 -0.071726 0.053212
v 0.0140765 -0.0732533 0.0508788
v 0.0139974 -0.0719207 0.0533401
v 0.0139816 -0.073448 0.0510068
v 0.0138778 -0.0721056 0.053462
v 0.0138621 -0.0736329 0.0511287
v 0.013735 -0.0722785 0.0535761
v 0.0137193 -0.0738058 0.0512428
v 0.0135706 -0.0724374 0.0536812
v 0.0135549 -0.0739647 0.051348
v 0.0133866 -0.0725804 0.0537761
v 0.0133709 -0.0741078 0.0514428
v 0.0131852 -0.072706 0.0538596
v 0.0131694 -0.0742333 0.0515263
v 0.0129686 -0.0728124 0.0539308
v 0.0129528 -0.0743398 0.0515975
v 0.0127394 -0.0728987 0.0539888
v 0.0127236 -0.074426 0.0516555
v 0.0125003 -0.0729636 0.0540329
v 0.0124846 -0.074491 0.0516996
v 0.0122542 -0.0730066 0.0540627
v 0.0122384 -0.0745339 0.0517294
v 0.0120038 -0.073027 0.0540777
v 0.0119881 -0.0745543 0.0517444
v 0.0117522 -0.0730246 0.0540779
v 0.0117364 -0.0745519 0.0517446
v 0.0115022 -0.0729994 0.0540631
v 0.0114865 -0.0745268 0.0517298
v 0.0112569 -0.0729518 0.0540336
v 0.0112412 -0.0744792 0.0517003
v 0.0110191 -0.0728824 0.0539897
v 0.0110033 -0.0744097 0.0516564
v 0.0107915 -0.0727918 0.053932
v 0.0107758 -0.0743191 0.0515987
v 0.0105769 -0.0726812 0.0538611
v 0.0105612 -0.0742086 0.0515278
v 0.0103778 -0.0725519 0.0537778
v 0.010362 -0.0740793 0.0514445
v 0.0101964 -0.0724054 0.0536831
v 0.0101806 -0.0739327 0.0513498
v 0.010035 -0.0722434 0.0535781
v 0.0100192 -0.0737707 0.0512448
v 0.00989535 -0.0720678 0.0534641
v 0.00987959 -0.0735951 0.0511308
v 0.00977918 -0.0718807 0.0533424
v 0.00976343 -0.073408 0.0510091
v 0.00968783 -0.0716842 0.0532144
v 0.00967208 -0.0732116 0.0508811
v 0.00962237 -0.0714807 0.0530817
v 0.00960662 -0.0730081 0.0507484
v 0.00958356 -0.0712726 0.0529457
v 0.00956781 -0.0727999 0.0506124
v 0.00957185 -0.0710622 0.0528081
v 0.0095561 -0.0725896 0.0504748
v 0.0095874 -0.0708521 0.0526704
v 0.00957165 -0.0723795 0.0503372
v 0.00963 -0.0706448 0.0525344
v 0.00961425 -0.0721721 0.0502011
v 0.00969917 -0.0704426 0.0524016
v 0.00968342 -0.0719699 0.0500683
v 0.00979409 -0.0702479 0.0522735
v 0.00977834 -0.0717752 0.0499402
v 0.00991366 -0.070063 0.0521517
v 0.0098979 -0.0715903 0.0498184
v 0.0100565 -0.0698901 0.0520375
v 0.0100407 -0.0714174 0.0497042
v 0.0102208 -0.0697312 0.0519324
v 0.0102051 -0.0712585 0.0495991
v 0.0104048 -0.0695881 0.0518375
v 0.0103891 -0.0711155 0.0495042
v 0.0106063 -0.0694626 0.051754
v 0.0105905 -0.07099 0.0494207
v 0.0108229 -0.0693561 0.0516828
v 0.0108071 -0.0708835 0.0493495
v 0.0110521 -0.0692699 0.0516248
v 0.0110363 -0.0707972 0.0492915
v 0.0112911 -0.0692049 0.0515807
v 0.0112754 -0.0707323 0.0492474
v 0.0115373 -0.069162 0.0515509
v 0.0115215 -0.0706894 0.0492176
v 0.0117877 -0.0691416 0.0515359
v 0.0117719 -0.070669 0.0492026
v 0.0120393 -0.069144 0.0515358
v 0.0120235 -0.0706713 0.0492025
v 0.0122892 -0.0691691 0.0515505
v 0.0122735 -0.0706965 0.0492172
v 0.0125345 -0.0692167 0.05158
v 0.0125188 -0.0707441 0.0492467
v 0.0127724 -0.0692862 0.0516239
v 0.0127566 -0.0708136 0.0492906
v 0.0129999 -0.0693768 0.0516816
v 0.0129842 -0.0709041 0.0493484
v 0.0132146 -0.0694874 0.0517526
v 0.0131988 -0.0710147 0.0494193
v 0.0134137 -0.0696167 0.0518359
v 0.013398 -0.071144 0.0495026
v 0.0135951 -0.0697632 0.0519306
v 0.0135793 -0.0712905 0.0495973
v 0.0137565 -0.0699252 0.0520355
v 0.0137407 -0.0714525 0.0497022
v 0.0138961 -0.0701008 0.0521495
v 0.0138804 -0.0716281 0.0498162
v 0.0140123 -0.0702879 0.0522712
v 0.0139965 -0.0718152 0.0499379
v 0.0141036 -0.0704843 0.0523992
v 0.0140879 -0.0720117 0.0500659
v 0.0141691 -0.0706878 0.052532
v 0.0141533 -0.0722152 0.0501987
v 0.0142079 -0.070896 0.0526679
v 0.0141922 -0.0724233 0.0503347
v 0.0142196 -0.0711063 0.0528056
v 0.0103699 -0.0272108 0.0286116
v 0.0144027 -0.0508572 0.0362163
v 0.0144029 -0.0495399 0.0386872
v 0.0143872 -0.0510673 0.0363539
v 0.0143603 -0.0497473 0.0388232
v 0.0143446 -0.0512747 0.0364899
v 0.0142912 -0.0499495 0.038956
v 0.0142754 -0.0514769 0.0366228
v 0.0141962 -0.0501442 0.0390841
v 0.0141805 -0.0516716 0.0367508
v 0.0140767 -0.0503291 0.039206
v 0.0140609 -0.0518565 0.0368727
v 0.0139339 -0.050502 0.0393201
v 0.0139181 -0.0520294 0.0369868
v 0.0137695 -0.0506609 0.0394252
v 0.0137538 -0.0521883 0.037092
v 0.0135855 -0.050804 0.0395201
v 0.0135698 -0.0523313 0.0371868
v 0.013384 -0.0509295 0.0396036
v 0.0133683 -0.0524568 0.0372703
v 0.0131674 -0.051036 0.0396748
v 0.0131517 -0.0525633 0.0373415
v 0.0129383 -0.0511222 0.0397328
v 0.0129225 -0.0526496 0.0373995
v 0.0126992 -0.0511872 0.0397769
v 0.0126834 -0.0527145 0.0374436
v 0.012453 -0.0512301 0.0398067
v 0.0124373 -0.0527574 0.0374734
v 0.0122027 -0.0512505 0.0398217
v 0.0121869 -0.0527778 0.0374884
v 0.0119511 -0.0512481 0.0398219
v 0.0119353 -0.0527754 0.0374886
v 0.0117011 -0.051223 0.0398071
v 0.0116854 -0.0527503 0.0374738
v 0.0114558 -0.0511754 0.0397776
v 0.01144 -0.0527027 0.0374443
v 0.011218 -0.0511059 0.0397337
v 0.0112022 -0.0526332 0.0374004
v 0.0109904 -0.0510153 0.039676
v 0.0109746 -0.0525427 0.0373427
v 0.0107758 -0.0509047 0.039605
v 0.01076 -0.0524321 0.0372718
v 0.0105766 -0.0507754 0.0395218
v 0.0105609 -0.0523028 0.0371885
v 0.0103953 -0.0506289 0.0394271
v 0.0103795 -0.0521563 0.0370938
v 0.0102338 -0.0504669 0.0393221
v 0.0102181 -0.0519943 0.0369888
v 0.0100942 -0.0502913 0.0392081
v 0.0100785 -0.0518187 0.0368748
v 0.00997805 -0.0501042 0.0390864
v 0.0099623 -0.0516316 0.0367531
v 0.0098867 -0.0499077 0.0389584
v 0.00987095 -0.0514351 0.0366251
v 0.00982124 -0.0497042 0.0388257
v 0.00980549 -0.0512316 0.0364924
v 0.00978243 -0.0494961 0.0386897
v 0.00976668 -0.0510235 0.0363564
v 0.00977073 -0.0492858 0.0385521
v 0.00975497 -0.0508131 0.0362188
v 0.00978627 -0.0490757 0.0384144
v 0.00977052 -0.050603 0.0360812
v 0.00982887 -0.0488683 0.0382784
v 0.00981312 -0.0503957 0.0359451
v 0.00989804 -0.0486661 0.0381456
v 0.00988229 -0.0501934 0.0358123
v 0.00999296 -0.0484714 0.0380175
v 0.00997721 -0.0499987 0.0356842
v 0.0101125 -0.0482865 0.0378957
v 0.0100968 -0.0498139 0.0355624
v 0.0102553 -0.0481136 0.0377815
v 0.0102396 -0.0496409 0.0354482
v 0.0104197 -0.0479547 0.0376764
v 0.0104039 -0.049482 0.0353431
v 0.0106037 -0.0478116 0.0375815
v 0.0105879 -0.049339 0.0352482
v 0.0108052 -0.0476861 0.037498
v 0.0107894 -0.0492135 0.0351647
v 0.0110218 -0.0475796 0.0374268
v 0.011006 -0.049107 0.0350935
v 0.0112509 -0.0474934 0.0373688
v 0.0112352 -0.0490208 0.0350355
v 0.01149 -0.0474285 0.0373247
v 0.0114743 -0.0489558 0.0349914
v 0.0117362 -0.0473855 0.0372949
v 0.0117204 -0.0489129 0.0349616
v 0.0119865 -0.0473651 0.0372799
v 0.0119708 -0.0488925 0.0349466
v 0.0122381 -0.0473675 0.0372798
v 0.0122224 -0.0488949 0.0349465
v 0.0124881 -0.0473927 0.0372945
v 0.0124723 -0.04892 0.0349612
v 0.0127334 -0.0474402 0.037324
v 0.0127177 -0.0489676 0.0349907
v 0.0129713 -0.0475097 0.0373679
v 0.0129555 -0.0490371 0.0350346
v 0.0131988 -0.0476003 0.0374256
v 0.0131831 -0.0491276 0.0350923
v 0.0134134 -0.0477109 0.0374966
v 0.0133977 -0.0492382 0.0351633
v 0.0136126 -0.0478402 0.0375799
v 0.0135968 -0.0493675 0.0352466
v 0.0137939 -0.0479867 0.0376746
v 0.0137782 -0.049514 0.0353413
v 0.0139554 -0.0481487 0.0377795
v 0.0139396 -0.049676 0.0354462
v 0.014095 -0.0483243 0.0378935
v 0.0140792 -0.0498516 0.0355602
v 0.0142112 -0.0485114 0.0380152
v 0.0141954 -0.0500388 0.0356819
v 0.0143025 -0.0487079 0.0381432
v 0.0142867 -0.0502352 0.0358099
v 0.014368 -0.0489114 0.038276
v 0.0143522 -0.0504387 0.0359427
v 0.0144068 -0.0491195 0.0384119
v 0.014391 -0.0506469 0.0360787
v 0.0144185 -0.0493299 0.0385496
v 0.0191707 -0.0806712 0.0501447
v 0.019197 -0.0781256 0.0540335
v 0.00967766 -0.0805812 0.0501499
v 0.00923914 -0.0780312 0.0540389
v -0.0215901 -0.0802845 0.0501668
v -0.0215639 -0.0777389 0.0540556
v -0.0118236 -0.0723868 0.0504864
v -0.0118234 -0.0710695 0.0529573
v -0.0118391 -0.0725968 0.050624
v -0.011866 -0.0712769 0.0530933
v -0.0118817 -0.0728042 0.05076
v -0.0119351 -0.0714791 0.0532261
v -0.0119509 -0.0730064 0.0508928
v -0.0120301 -0.0716738 0.0533542
v -0.0120458 -0.0732011 0.0510209
v -0.0121496 -0.0718587 0.0534761
v -0.0121654 -0.073386 0.0511428
v -0.0122924 -0.0720316 0.0535902
v -0.0123082 -0.0735589 0.0512569
v -0.0124568 -0.0721905 0.0536953
v -0.0124725 -0.0737178 0.051362
v -0.0126408 -0.0723335 0.0537902
v -0.0126565 -0.0738609 0.0514569
v -0.0128423 -0.072459 0.0538737
v -0.012858 -0.0739864 0.0515404
v -0.0130589 -0.0725655 0.0539449
v -0.0130746 -0.0740929 0.0516116
v -0.013288 -0.0726518 0.0540029
v -0.0133038 -0.0741791 0.0516696
v -0.0135271 -0.0727167 0.054047
v -0.0135428 -0.0742441 0.0517137
v -0.0137733 -0.0727596 0.0540768
v -0.013789 -0.074287 0.0517435
v -0.0140236 -0.07278 0.0540918
v -0.0140394 -0.0743074 0.0517585
v -0.0142752 -0.0727776 0.054092
v -0.014291 -0.074305 0.0517587
v -0.0145252 -0.0727525 0.0540772
v -0.0145409 -0.0742799 0.0517439
v -0.0147705 -0.0727049 0.0540477
v -0.0147863 -0.0742323 0.0517144
v -0.0150083 -0.0726354 0.0540038
v -0.0150241 -0.0741628 0.0516705
v -0.0152359 -0.0725449 0.0539461
v -0.0152517 -0.0740722 0.0516128
v -0.0154505 -0.0724343 0.0538751
v -0.0154663 -0.0739616 0.0515418
v -0.0156497 -0.072305 0.0537918
v -0.0156654 -0.0738323 0.0514586
v -0.015831 -0.0721585 0.0536972
v -0.0158468 -0.0736858 0.0513639
v -0.0159925 -0.0719965 0.0535922
v -0.0160082 -0.0735238 0.0512589
v -0.0161321 -0.0718209 0.0534782
v -0.0161478 -0.0733482 0.0511449
v -0.0162482 -0.0716338 0.0533565
v -0.016264 -0.0731611 0.0510232
v -0.0163396 -0.0714373 0.0532285
v -0.0163553 -0.0729646 0.0508952
v -0.0164051 -0.0712338 0.0530958
v -0.0164208 -0.0727612 0.0507625
v -0.0164439 -0.0710257 0.0529598
v -0.0164596 -0.072553 0.0506265
v -0.0164556 -0.0708153 0.0528222
v -0.0164713 -0.0723427 0.0504889
v -0.01644 -0.0706052 0.0526845
v -0.0164558 -0.0721326 0.0503512
v -0.0163974 -0.0703979 0.0525485
v -0.0164132 -0.0719252 0.0502152
v -0.0163282 -0.0701956 0.0524157
v -0.016344 -0.071723 0.0500824
v -0.0162333 -0.070001 0.0522876
v -0.0162491 -0.0715283 0.0499543
v -0.0161138 -0.0698161 0.0521658
v -0.0161295 -0.0713434 0.0498325
v -0.015971 -0.0696432 0.0520516
v -0.0159867 -0.0711705 0.0497183
v -0.0158066 -0.0694842 0.0519465
v -0.0158224 -0.0710116 0.0496132
v -0.0156226 -0.0693412 0.0518516
v -0.0156384 -0.0708686 0.0495183
v -0.0154211 -0.0692157 0.0517681
v -0.0154369 -0.070743 0.0494348
v -0.0152045 -0.0691092 0.0516969
v -0.0152203 -0.0706365 0.0493636
v -0.0149754 -0.069023 0.0516389
v -0.0149911 -0.0705503 0.0493056
v -0.0147363 -0.068958 0.0515948
v -0.014752 -0.0704854 0.0492615
v -0.0144901 -0.0689151 0.051565
v -0.0145059 -0.0704424 0.0492317
v -0.0142398 -0.0688947 0.05155
v -0.0142555 -0.070422 0.0492167
v -0.0139881 -0.0688971 0.0515498
v -0.0140039 -0.0704244 0.0492166
v -0.0137382 -0.0689222 0.0515646
v -0.013754 -0.0704496 0.0492313
v -0.0134929 -0.0689698 0.0515941
v -0.0135086 -0.0704972 0.0492608
v -0.013255 -0.0690393 0.051638
v -0.0132708 -0.0705666 0.0493047
v -0.0130275 -0.0691299 0.0516957
v -0.0130432 -0.0706572 0.0493624
v -0.0128129 -0.0692404 0.0517667
v -0.0128286 -0.0707678 0.0494334
v -0.0126137 -0.0693697 0.05185
v -0.0126295 -0.0708971 0.0495167
v -0.0124324 -0.0695163 0.0519446
v -0.0124481 -0.0710436 0.0496114
v -0.0122709 -0.0696783 0.0520496
v -0.0122867 -0.0712056 0.0497163
v -0.0121313 -0.0698538 0.0521636
v -0.0121471 -0.0713812 0.0498303
v -0.0120151 -0.070041 0.0522853
v -0.0120309 -0.0715683 0.049952
v -0.0119238 -0.0702374 0.0524133
v -0.0119395 -0.0717648 0.05008
v -0.0118583 -0.0704409 0.0525461
v -0.0118741 -0.0719683 0.0502128
v -0.0118195 -0.0706491 0.052682
v -0.0118353 -0.0721764 0.0503487
v -0.0118078 -0.0708594 0.0528196
v 0.00309793 -0.0243383 0.025748
v 0.00307147 -0.0271269 0.0257339
v 0.00294215 -0.0243368 0.0257397
v 0.00291568 -0.0271254 0.0257255
v 0.00278818 -0.0243352 0.0257145
v 0.00276172 -0.0271238 0.0257004
v 0.00263784 -0.0243336 0.0256728
v 0.00261138 -0.0271222 0.0256587
v 0.00249288 -0.0243319 0.0256152
v 0.00246642 -0.0271205 0.025601
v 0.00235501 -0.0243302 0.0255422
v 0.00232855 -0.0271189 0.025528
v 0.00222585 -0.0243286 0.0254547
v 0.00219938 -0.0271172 0.0254406
v 0.00210689 -0.0243269 0.0253538
v 0.00208043 -0.0271155 0.0253396
v 0.00199955 -0.0243253 0.0252405
v 0.00197309 -0.027114 0.0252264
v 0.00190508 -0.0243238 0.0251164
v 0.00187862 -0.0271124 0.0251023
v 0.00182458 -0.0243224 0.0249828
v 0.00179812 -0.027111 0.0249686
v 0.00175901 -0.024321 0.0248412
v 0.00173254 -0.0271096 0.0248271
v 0.00170912 -0.0243198 0.0246934
v 0.00168266 -0.0271084 0.0246793
v 0.00167551 -0.0243187 0.024541
v 0.00164905 -0.0271073 0.0245269
v 0.00165856 -0.0243178 0.024386
v 0.0016321 -0.0271064 0.0243718
v 0.00165849 -0.024317 0.0242299
v 0.00163202 -0.0271056 0.0242158
v 0.00167528 -0.0243164 0.0240748
v 0.00164882 -0.027105 0.0240607
v 0.00170874 -0.0243159 0.0239225
v 0.00168228 -0.0271045 0.0239083
v 0.00175848 -0.0243156 0.0237746
v 0.00173202 -0.0271042 0.0237605
v 0.00182392 -0.0243155 0.023633
v 0.00179745 -0.0271041 0.0236188
v 0.00190428 -0.0243156 0.0234992
v 0.00187782 -0.0271042 0.0234851
v 0.00199863 -0.0243159 0.023375
v 0.00197217 -0.0271045 0.0233608
v 0.00210586 -0.0243163 0.0232617
v 0.0020794 -0.0271049 0.0232475
v 0.00222471 -0.0243169 0.0231606
v 0.00219825 -0.0271056 0.0231465
v 0.0023538 -0.0243177 0.023073
v 0.00232733 -0.0271063 0.0230588
v 0.00249159 -0.0243187 0.0229998
v 0.00246513 -0.0271073 0.0229857
v 0.00263649 -0.0243197 0.022942
v 0.00261003 -0.0271083 0.0229279
v 0.00278679 -0.0243209 0.0229002
v 0.00276033 -0.0271096 0.022886
v 0.00294073 -0.0243223 0.0228748
v 0.00291427 -0.0271109 0.0228607
v 0.00309651 -0.0243237 0.0228663
v 0.00307004 -0.0271123 0.0228522
v 0.00325229 -0.0243252 0.0228747
v 0.00322583 -0.0271139 0.0228606
v 0.00340625 -0.0243268 0.0228998
v 0.00337979 -0.0271154 0.0228857
v 0.00355659 -0.0243285 0.0229415
v 0.00353013 -0.0271171 0.0229274
v 0.00370155 -0.0243301 0.0229992
v 0.00367509 -0.0271187 0.022985
v 0.00383942 -0.0243318 0.0230722
v 0.00381296 -0.0271204 0.023058
v 0.00396859 -0.0243335 0.0231596
v 0.00394213 -0.0271221 0.0231455
v 0.00408754 -0.0243351 0.0232606
v 0.00406108 -0.0271237 0.0232465
v 0.00419488 -0.0243367 0.0233738
v 0.00416842 -0.0271253 0.0233597
v 0.00428936 -0.0243382 0.0234979
v 0.00426289 -0.0271268 0.0234838
v 0.00436985 -0.0243397 0.0236316
v 0.00434339 -0.0271283 0.0236174
v 0.00443543 -0.024341 0.0237731
v 0.00440896 -0.0271296 0.023759
v 0.00448531 -0.0243422 0.0239209
v 0.00445885 -0.0271309 0.0239068
v 0.00451892 -0.0243433 0.0240733
v 0.00449246 -0.0271319 0.0240592
v 0.00453587 -0.0243443 0.0242284
v 0.00450941 -0.0271329 0.0242143
v 0.00453595 -0.0243451 0.0243844
v 0.00450948 -0.0271337 0.0243703
v 0.00451915 -0.0243457 0.0245395
v 0.00449269 -0.0271343 0.0245254
v 0.00448569 -0.0243462 0.0246919
v 0.00445923 -0.0271348 0.0246778
v 0.00443595 -0.0243464 0.0248398
v 0.00440949 -0.027135 0.0248256
v 0.00437052 -0.0243465 0.0249814
v 0.00434405 -0.0271351 0.0249673
v 0.00429015 -0.0243464 0.0251151
v 0.00426369 -0.027135 0.025101
v 0.0041958 -0.0243462 0.0252394
v 0.00416934 -0.0271348 0.0252252
v 0.00408857 -0.0243457 0.0253527
v 0.00406211 -0.0271343 0.0253386
v 0.00396972 -0.0243451 0.0254537
v 0.00394326 -0.0271337 0.0254396
v 0.00384064 -0.0243443 0.0255414
v 0.00381417 -0.0271329 0.0255272
v 0.00370284 -0.0243434 0.0256145
v 0.00367638 -0.027132 0.0256004
v 0.00355794 -0.0243423 0.0256723
v 0.00353148 -0.0271309 0.0256582
v 0.00340764 -0.0243411 0.0257142
v 0.00338118 -0.0271297 0.0257
v 0.0032537 -0.0243398 0.0257395
v 0.00322724 -0.0271284 0.0257254
v 0.0132901 -0.0710975 0.0528061
v 0.0132481 -0.0751704 0.046584
v 0.0132807 -0.0712236 0.0528886
v 0.0132387 -0.0752965 0.0466665
v 0.0132552 -0.071348 0.0529703
v 0.0132132 -0.0754209 0.0467481
v 0.0132137 -0.0714693 0.05305
v 0.0131717 -0.0755422 0.0468278
v 0.0131567 -0.0715861 0.0531268
v 0.0131147 -0.0756591 0.0469047
v 0.013085 -0.0716971 0.0531999
v 0.013043 -0.07577 0.0469778
v 0.0129993 -0.0718008 0.0532684
v 0.0129573 -0.0758737 0.0470463
v 0.0129007 -0.0718962 0.0533315
v 0.0128587 -0.0759691 0.0471094
v 0.0127903 -0.071982 0.0533884
v 0.0127483 -0.0760549 0.0471663
v 0.0126694 -0.0720573 0.0534385
v 0.0126274 -0.0761302 0.0472164
v 0.0125394 -0.0721212 0.0534812
v 0.0124974 -0.0761941 0.0472591
v 0.0124019 -0.0721729 0.053516
v 0.0123599 -0.0762458 0.0472939
v 0.0122585 -0.0722119 0.0535425
v 0.0122165 -0.0762848 0.0473204
v 0.0121108 -0.0722376 0.0535603
v 0.0120688 -0.0763106 0.0473382
v 0.0119606 -0.0722499 0.0535694
v 0.0119186 -0.0763228 0.0473473
v 0.0118096 -0.0722485 0.0535695
v 0.0117676 -0.0763214 0.0473473
v 0.0116596 -0.0722334 0.0535606
v 0.0116176 -0.0763063 0.0473385
v 0.0115124 -0.0722048 0.0535429
v 0.0114704 -0.0762777 0.0473208
v 0.0113697 -0.0721631 0.0535166
v 0.0113277 -0.0762361 0.0472945
v 0.0112332 -0.0721088 0.0534819
v 0.0111912 -0.0761817 0.0472598
v 0.0111044 -0.0720424 0.0534394
v 0.0110624 -0.0761154 0.0472172
v 0.0109849 -0.0719649 0.0533894
v 0.0109429 -0.0760378 0.0471673
v 0.0108761 -0.0718769 0.0533326
v 0.0108341 -0.0759499 0.0471105
v 0.0107793 -0.0717797 0.0532696
v 0.0107373 -0.0758527 0.0470475
v 0.0106955 -0.0716744 0.0532012
v 0.0106535 -0.0757473 0.0469791
v 0.0106258 -0.0715621 0.0531282
v 0.0105838 -0.075635 0.0469061
v 0.010571 -0.0714442 0.0530514
v 0.010529 -0.0755172 0.0468293
v 0.0105317 -0.0713221 0.0529717
v 0.0104897 -0.0753951 0.0467496
v 0.0105084 -0.0711973 0.0528901
v 0.0104664 -0.0752702 0.046668
v 0.0105014 -0.0710711 0.0528076
v 0.0104594 -0.075144 0.0465855
v 0.0105107 -0.070945 0.052725
v 0.0104687 -0.0750179 0.0465029
v 0.0105363 -0.0708206 0.0526434
v 0.0104943 -0.0748935 0.0464213
v 0.0105778 -0.0706993 0.0525637
v 0.0105358 -0.0747722 0.0463416
v 0.0106347 -0.0705824 0.0524868
v 0.0105927 -0.0746554 0.0462647
v 0.0107065 -0.0704715 0.0524137
v 0.0106645 -0.0745444 0.0461916
v 0.0107922 -0.0703678 0.0523452
v 0.0107502 -0.0744407 0.0461231
v 0.0108908 -0.0702724 0.0522822
v 0.0108488 -0.0743453 0.04606
v 0.0110012 -0.0701866 0.0522252
v 0.0109592 -0.0742595 0.0460031
v 0.0111221 -0.0701113 0.0521751
v 0.0110801 -0.0741842 0.045953
v 0.011252 -0.0700474 0.0521324
v 0.01121 -0.0741203 0.0459103
v 0.0113895 -0.0699956 0.0520976
v 0.0113475 -0.0740686 0.0458755
v 0.011533 -0.0699567 0.0520711
v 0.011491 -0.0740296 0.045849
v 0.0116807 -0.0699309 0.0520533
v 0.0116387 -0.0740038 0.0458312
v 0.0118309 -0.0699187 0.0520443
v 0.0117889 -0.0739916 0.0458222
v 0.0119819 -0.0699201 0.0520442
v 0.0119399 -0.073993 0.0458221
v 0.0121318 -0.0699352 0.052053
v 0.0120898 -0.0740081 0.0458309
v 0.012279 -0.0699637 0.0520707
v 0.012237 -0.0740367 0.0458486
v 0.0124217 -0.0700054 0.0520971
v 0.0123797 -0.0740784 0.045875
v 0.0125583 -0.0700598 0.0521317
v 0.0125163 -0.0741327 0.0459096
v 0.012687 -0.0701261 0.0521743
v 0.012645 -0.0741991 0.0459522
v 0.0128065 -0.0702037 0.0522243
v 0.0127645 -0.0742766 0.0460021
v 0.0129153 -0.0702916 0.0522811
v 0.0128733 -0.0743645 0.046059
v 0.0130122 -0.0703888 0.052344
v 0.0129702 -0.0744617 0.0461219
v 0.013096 -0.0704942 0.0524124
v 0.013054 -0.0745671 0.0461903
v 0.0131657 -0.0706064 0.0524855
v 0.0131237 -0.0746794 0.0462633
v 0.0132205 -0.0707243 0.0525622
v 0.0131785 -0.0747973 0.0463401
v 0.0132597 -0.0708464 0.0526419
v 0.0132177 -0.0749193 0.0464198
v 0.013283 -0.0709713 0.0527235
v 0.013241 -0.0750442 0.0465014
v 0.0103918 -0.0243755 0.0194229
v 0.0103653 -0.0271641 0.0194088
v 0.00925351 -0.0471916 0.0338516
v -0.0110572 -0.0469989 0.0338625
v 0.00922725 -0.0497372 0.0299627
v -0.0110834 -0.0495445 0.0299737
v 0.0192712 -0.0699983 0.048713
v 0.0192414 -0.0729328 0.0450787
v 0.0113033 -0.050266 0.0391834
v 0.0114321 -0.0503323 0.0392259
v 0.0115686 -0.0503867 0.0392606
v 0.0117113 -0.0504283 0.0392869
v 0.0118585 -0.0504569 0.0393046
v 0.0120085 -0.050472 0.0393134
v 0.0121595 -0.0504734 0.0393134
v 0.0123097 -0.0504612 0.0393043
v 0.0124574 -0.0504354 0.0392865
v 0.0126008 -0.0503964 0.03926
v 0.0127383 -0.0503447 0.0392252
v 0.0128683 -0.0502808 0.0391825
v 0.0129891 -0.0502055 0.0391324
v 0.0130996 -0.0501197 0.0390755
v 0.0131982 -0.0500243 0.0390124
v 0.0132838 -0.0499206 0.0389439
v 0.0133556 -0.0498097 0.0388708
v 0.0134125 -0.0496928 0.038794
v 0.013454 -0.0495715 0.0387143
v 0.0134796 -0.0494471 0.0386326
v 0.0134889 -0.049321 0.0385501
v 0.0134819 -0.0491948 0.0384675
v 0.0134586 -0.0490699 0.0383859
v 0.0134193 -0.0489478 0.0383062
v 0.0133645 -0.04883 0.0382295
v 0.0132948 -0.0487177 0.0381564
v 0.0132111 -0.0486123 0.038088
v 0.0131142 -0.0485151 0.0380251
v 0.0130054 -0.0484272 0.0379682
v 0.0128859 -0.0483497 0.0379183
v 0.0127571 -0.0482833 0.0378757
v 0.0126206 -0.048229 0.0378411
v 0.0124779 -0.0481873 0.0378147
v 0.0123307 -0.0481587 0.037797
v 0.0121807 -0.0481436 0.0377882
v 0.0120298 -0.0481422 0.0377883
v 0.0118795 -0.0481544 0.0377973
v 0.0117318 -0.0481802 0.0378151
v 0.0115884 -0.0482192 0.0378416
v 0.0114509 -0.0482709 0.0378764
v 0.0113209 -0.0483348 0.0379191
v 0.0112001 -0.0484101 0.0379692
v 0.0110897 -0.0484959 0.0380262
v 0.010991 -0.0485913 0.0380892
v 0.0109054 -0.048695 0.0381577
v 0.0108336 -0.048806 0.0382308
v 0.0107767 -0.0489228 0.0383077
v 0.0107352 -0.0490441 0.0383874
v 0.0107096 -0.0491685 0.038469
v 0.0107003 -0.0492946 0.0385516
v 0.0107073 -0.0494208 0.0386341
v 0.0107306 -0.0495457 0.0387157
v 0.0107699 -0.0496678 0.0387954
v 0.0108247 -0.0497856 0.0388722
v 0.0108944 -0.0498979 0.0389452
v 0.0109781 -0.0500033 0.0390136
v 0.011075 -0.0501005 0.0390766
v 0.0111838 -0.0501884 0.0391334
v -0.0215194 -0.0725461 0.0451008
v -0.0214896 -0.0696117 0.0487351
v 0.00931336 -0.0699039 0.0487184
v -0.0112578 -0.0689698 0.0482458
v 0.00905286 -0.0691625 0.0482348
v 0.00902661 -0.0717081 0.044346
v -0.0112841 -0.0715154 0.044357
v 0.00974833 -0.0728427 0.0450839
v 0.0129634 -0.0525002 0.0317461
v 0.0128439 -0.0524226 0.0316962
v 0.0127151 -0.0523562 0.0316536
v 0.0112789 -0.0524077 0.031697
v 0.0114089 -0.0523438 0.0316543
v 0.0115464 -0.0522921 0.0316195
v 0.0134399 -0.0532678 0.0322454
v 0.0134166 -0.0531429 0.0321638
v 0.0130575 -0.0541926 0.0328534
v 0.0131562 -0.0540973 0.0327903
v 0.0133773 -0.0530208 0.0320841
v 0.0133225 -0.0529029 0.0320073
v 0.0132528 -0.0527906 0.0319343
v 0.0131691 -0.0526853 0.0318659
v 0.0130722 -0.0525881 0.031803
v 0.0121387 -0.0522166 0.0315661
v 0.0119877 -0.0522151 0.0315662
v 0.0125786 -0.0523019 0.031619
v 0.0124359 -0.0522602 0.0315926
v 0.0122887 -0.0522316 0.0315749
v 0.0118375 -0.0522274 0.0315752
v 0.0116898 -0.0522531 0.031593
v 0.010949 -0.0526642 0.0318671
v 0.0108633 -0.052768 0.0319356
v 0.013412 -0.0536444 0.0324921
v 0.0134376 -0.05352 0.0324105
v 0.0134469 -0.053394 0.032328
v 0.011158 -0.052483 0.0317471
v 0.0110476 -0.0525689 0.031804
v 0.0107916 -0.0528789 0.0320087
v 0.0107347 -0.0529957 0.0320856
v 0.0106932 -0.053117 0.0321653
v 0.0106886 -0.0536186 0.0324936
v 0.0107279 -0.0537407 0.0325733
v 0.0107827 -0.0538586 0.0326501
v 0.0108524 -0.0539708 0.0327231
v 0.0106676 -0.0532415 0.0322469
v 0.0106583 -0.0533675 0.0323295
v 0.0106653 -0.0534937 0.032412
v 0.0109361 -0.0540762 0.0327915
v 0.011033 -0.0541734 0.0328545
v 0.0111418 -0.0542613 0.0329113
v 0.0132418 -0.0539935 0.0327218
v 0.0133136 -0.0538826 0.0326487
v 0.0133705 -0.0537658 0.0325718
v 0.0112613 -0.0543389 0.0329612
v 0.0113901 -0.0544052 0.0330038
v 0.0115266 -0.0544596 0.0330385
v 0.0116693 -0.0545013 0.0330648
v 0.0118165 -0.0545298 0.0330825
v 0.0119665 -0.0545449 0.0330913
v 0.0121174 -0.0545463 0.0330913
v 0.0122677 -0.0545341 0.0330822
v 0.0124154 -0.0545084 0.0330644
v 0.0125588 -0.0544694 0.0330379
v 0.0126963 -0.0544176 0.0330031
v 0.0128263 -0.0543537 0.0329604
v 0.0129471 -0.0542784 0.0329103
v -0.0131688 -0.0757222 0.0471235
v -0.0130701 -0.0756268 0.0470604
v -0.0127864 -0.0747973 0.0465155
v -0.0128097 -0.0746724 0.0464339
v -0.0153739 -0.0755004 0.0469932
v -0.0154436 -0.0753881 0.0469202
v -0.0154984 -0.0752703 0.0468434
v -0.0129845 -0.0755231 0.0469919
v -0.0129127 -0.0754121 0.0469188
v -0.0128558 -0.0752953 0.0468419
v -0.0153629 -0.0742975 0.0462057
v -0.0154347 -0.0744084 0.0462788
v -0.0154916 -0.0745253 0.0463557
v -0.0155331 -0.0746466 0.0464354
v -0.0155587 -0.074771 0.046517
v -0.015568 -0.0748971 0.0465996
v -0.015561 -0.0750233 0.0466821
v -0.0155377 -0.0751482 0.0467637
v -0.0152902 -0.0756058 0.0470616
v -0.0151933 -0.075703 0.0471245
v -0.0150845 -0.0757909 0.0471814
v -0.0128143 -0.075174 0.0467622
v -0.0127887 -0.0750496 0.0466806
v -0.0127794 -0.0749235 0.046598
v -0.0132629 -0.0740297 0.0460162
v -0.0133824 -0.0739521 0.0459663
v -0.0135112 -0.0738858 0.0459237
v -0.0136477 -0.0738314 0.045889
v -0.0137904 -0.0737898 0.0458627
v -0.0149474 -0.0739373 0.0459671
v -0.0150682 -0.0740126 0.0460172
v -0.012849 -0.0745503 0.0463542
v -0.0129038 -0.0744325 0.0462774
v -0.0129735 -0.0743202 0.0462044
v -0.0139376 -0.0737612 0.045845
v -0.0140876 -0.0737461 0.0458362
v -0.0151786 -0.0740984 0.0460741
v -0.0152773 -0.0741938 0.0461372
v -0.014965 -0.0758685 0.0472313
v -0.0148362 -0.0759348 0.0472739
v -0.0146997 -0.0759891 0.0473085
v -0.014557 -0.0760308 0.0473349
v -0.0144098 -0.0760594 0.0473526
v -0.0142598 -0.0760745 0.0473614
v -0.0136675 -0.0759989 0.047308
v -0.01353 -0.0759472 0.0472732
v -0.0130572 -0.0742148 0.046136
v -0.0131541 -0.0741176 0.046073
v -0.0141088 -0.0760759 0.0473614
v -0.0139586 -0.0760637 0.0473523
v -0.0138109 -0.0760379 0.0473345
v -0.0134 -0.0758833 0.0472305
v -0.0132791 -0.075808 0.0471804
v -0.0142385 -0.0737447 0.0458362
v -0.0143888 -0.0737569 0.0458453
v -0.0145365 -0.0737827 0.0458631
v -0.0146799 -0.0738217 0.0458896
v -0.0148174 -0.0738734 0.0459244
v -0.0127374 -0.0708506 0.0528201
v -0.0127467 -0.0709766 0.0529027
v -0.0127723 -0.0711011 0.0529843
v -0.0128138 -0.0712224 0.053064
v -0.0128707 -0.0713392 0.0531409
v -0.0129424 -0.0714501 0.053214
v -0.0130281 -0.0715539 0.0532825
v -0.0131267 -0.0716492 0.0533456
v -0.0132371 -0.0717351 0.0534025
v -0.013358 -0.0718104 0.0534526
v -0.013488 -0.0718743 0.0534953
v -0.0136255 -0.071926 0.0535301
v -0.0137689 -0.071965 0.0535566
v -0.0139166 -0.0719907 0.0535744
v -0.0140668 -0.072003 0.0535835
v -0.0142178 -0.0720015 0.0535835
v -0.0143678 -0.0719865 0.0535747
v -0.014515 -0.0719579 0.053557
v -0.0146577 -0.0719162 0.0535307
v -0.0147942 -0.0718619 0.053496
v -0.014923 -0.0717955 0.0534534
v -0.0150425 -0.0717179 0.0534035
v -0.0151513 -0.07163 0.0533467
v -0.0152482 -0.0715328 0.0532837
v -0.0153319 -0.0714275 0.0532153
v -0.0154016 -0.0713152 0.0531423
v -0.0154564 -0.0711973 0.0530655
v -0.0154957 -0.0710752 0.0529858
v -0.015519 -0.0709503 0.0529042
v -0.015526 -0.0708241 0.0528217
v -0.0155167 -0.0706981 0.0527391
v -0.0154911 -0.0705737 0.0526575
v -0.0154496 -0.0704523 0.0525778
v -0.0153927 -0.0703355 0.0525009
v -0.0153209 -0.0702246 0.0524278
v -0.0152353 -0.0701208 0.0523593
v -0.0151366 -0.0700255 0.0522962
v -0.0150262 -0.0699397 0.0522393
v -0.0149053 -0.0698644 0.0521892
v -0.0147754 -0.0698005 0.0521465
v -0.0146379 -0.0697487 0.0521117
v -0.0144944 -0.0697097 0.0520852
v -0.0143468 -0.069684 0.0520674
v -0.0141965 -0.0696718 0.0520584
v -0.0140456 -0.0696732 0.0520583
v -0.0138956 -0.0696883 0.0520671
v -0.0137484 -0.0697168 0.0520848
v -0.0136057 -0.0697585 0.0521112
v -0.0134692 -0.0698129 0.0521458
v -0.0133404 -0.0698792 0.0521884
v -0.0132209 -0.0699568 0.0522383
v -0.0131121 -0.0700447 0.0522951
v -0.0130152 -0.0701419 0.0523581
v -0.0129315 -0.0702473 0.0524265
v -0.0128618 -0.0703595 0.0524995
v -0.012807 -0.0704774 0.0525763
v -0.0127677 -0.0705995 0.052656
v -0.0127444 -0.0707244 0.0527376
f 1 2 3
f 4 5 6
f 5 1 6
f 6 1 7
f 1 3 7
f 6 7 8
f 7 9 8
f 10 11 12
f 13 14 10
f 10 12 13
f 12 15 13
f 13 15 16
f 15 17 16
f 16 17 18
f 17 19 18
f 18 19 20
f 19 21 20
f 20 21 22
f 21 23 22
f 22 23 24
f 25 26 27
f 26 28 27
f 29 30 31
f 30 32 31
f 31 32 33
f 32 34 33
f 33 34 35
f 34 36 35
f 35 36 37
f 36 38 37
f 37 38 39
f 38 40 39
f 39 40 41
f 40 42 41
f 41 42 43
f 42 44 43
f 43 44 45
f 44 46 45
f 45 46 47
f 46 48 47
f 47 48 49
f 48 50 49
f 49 50 51
f 50 52 51
f 51 52 53
f 52 54 53
f 53 54 55
f 54 56 55
f 55 56 57
f 56 58 57
f 57 58 59
f 58 60 59
f 59 60 61
f 60 62 61
f 61 62 63
f 62 64 63
f 63 64 65
f 64 66 65
f 65 66 67
f 66 68 67
f 67 68 69
f 68 70 69
f 69 70 71
f 70 72 71
f 71 72 73
f 72 74 73
f 73 74 75
f 74 76 75
f 75 76 77
f 76 78 77
f 77 78 79
f 78 80 79
f 79 80 81
f 80 82 81
f 81 82 83
f 82 84 83
f 83 84 85
f 84 86 85
f 85 86 87
f 86 88 87
f 87 88 89
f 88 90 89
f 89 90 91
f 90 92 91
f 91 92 93
f 92 94 93
f 93 94 95
f 94 96 95
f 95 96 97
f 96 98 97
f 97 98 99
f 98 100 99
f 99 100 101
f 100 102 101
f 101 102 103
f 102 104 103
f 103 104 105
f 104 106 105
f 105 106 107
f 106 108 107
f 107 108 109
f 108 110 109
f 109 110 111
f 110 112 111
f 111 112 113
f 112 114 113
f 113 114 115
f 114 116 115
f 115 116 117
f 116 118 117
f 117 118 119
f 118 120 119
f 119 120 121
f 120 122 121
f 121 122 123
f 122 124 123
f 123 124 125
f 124 126 125
f 125 126 127
f 126 128 127
f 127 128 129
f 128 130 129
f 129 130 131
f 130 132 131
f 131 132 133
f 132 134 133
f 133 134 135
f 134 136 135
f 135 136 137
f 136 138 137
f 137 138 139
f 138 140 139
f 139 140 141
f 140 142 141
f 141 142 143
f 142 144 143
f 143 144 29
f 144 30 29
f 145 146 2
f 146 3 2
f 147 68 148
f 68 66 148
f 148 66 149
f 66 64 149
f 149 64 150
f 64 62 150
f 150 62 151
f 62 60 151
f 151 60 152
f 60 58 152
f 152 58 153
f 58 56 153
f 153 56 154
f 56 54 154
f 154 54 155
f 54 52 155
f 155 52 156
f 52 50 156
f 156 50 157
f 50 48 157
f 157 48 158
f 48 46 158
f 158 46 159
f 46 44 159
f 159 44 160
f 44 42 160
f 160 42 161
f 42 40 161
f 161 40 162
f 40 38 162
f 162 38 163
f 38 36 163
f 163 36 164
f 36 34 164
f 164 34 165
f 34 32 165
f 165 32 166
f 32 30 166
f 166 30 167
f 30 144 167
f 167 144 168
f 144 142 168
f 168 142 169
f 142 140 169
f 169 140 170
f 140 138 170
f 170 138 171
f 138 136 171
f 171 136 172
f 136 134 172
f 172 134 173
f 134 132 173
f 173 132 174
f 132 130 174
f 174 130 175
f 130 128 175
f 175 128 176
f 128 126 176
f 176 126 177
f 126 124 177
f 177 124 178
f 124 122 178
f 178 122 179
f 122 120 179
f 179 120 180
f 120 118 180
f 180 118 181
f 118 116 181
f 181 116 182
f 116 114 182
f 182 114 183
f 114 112 183
f 183 112 184
f 112 110 184
f 184 110 185
f 110 108 185
f 185 108 186
f 108 106 186
f 186 106 187
f 106 104 187
f 187 104 188
f 104 102 188
f 188 102 189
f 102 100 189
f 189 100 190
f 100 98 190
f 190 98 191
f 98 96 191
f 191 96 192
f 96 94 192
f 192 94 193
f 94 92 193
f 193 92 194
f 92 90 194
f 194 90 195
f 90 88 195
f 195 88 196
f 88 86 196
f 196 86 197
f 86 84 197
f 197 84 198
f 84 82 198
f 198 82 199
f 82 80 199
f 199 80 200
f 80 78 200
f 200 78 201
f 78 76 201
f 201 76 202
f 76 74 202
f 202 74 203
f 74 72 203
f 203 72 204
f 72 70 204
f 204 70 147
f 70 68 147
f 205 206 207
f 206 208 207
f 207 208 209
f 208 210 209
f 209 210 211
f 210 212 211
f 211 212 213
f 212 214 213
f 213 214 215
f 214 216 215
f 215 216 217
f 216 218 217
f 217 218 219
f 218 220 219
f 219 220 221
f 220 222 221
f 221 222 223
f 222 224 223
f 223 224 225
f 224 226 225
f 225 226 227
f 226 228 227
f 227 228 229
f 228 230 229
f 229 230 231
f 230 232 231
f 231 232 233
f 232 234 233
f 233 234 235
f 234 236 235
f 235 236 237
f 236 238 237
f 237 238 239
f 238 240 239
f 239 240 241
f 240 242 241
f 241 242 243
f 242 244 243
f 243 244 245
f 244 246 245
f 245 246 247
f 246 248 247
f 247 248 249
f 248 250 249
f 249 250 251
f 250 252 251
f 251 252 253
f 252 254 253
f 253 254 255
f 254 256 255
f 255 256 257
f 256 258 257
f 257 258 259
f 258 260 259
f 259 260 261
f 260 262 261
f 261 262 263
f 262 264 263
f 263 264 265
f 264 266 265
f 265 266 267
f 266 268 267
f 267 268 269
f 268 270 269
f 269 270 271
f 270 272 271
f 271 272 273
f 272 274 273
f 273 274 275
f 274 276 275
f 275 276 277
f 276 278 277
f 277 278 279
f 278 280 279
f 279 280 281
f 280 282 281
f 281 282 283
f 282 284 283
f 283 284 285
f 284 286 285
f 285 286 287
f 286 288 287
f 287 288 289
f 288 290 289
f 289 290 291
f 290 292 291
f 291 292 293
f 292 294 293
f 293 294 295
f 294 296 295
f 295 296 297
f 296 298 297
f 297 298 299
f 298 300 299
f 299 300 301
f 300 302 301
f 301 302 303
f 302 304 303
f 303 304 305
f 304 306 305
f 305 306 307
f 306 308 307
f 307 308 309
f 308 310 309
f 309 310 311
f 310 312 311
f 311 312 313
f 312 314 313
f 313 314 315
f 314 316 315
f 315 316 317
f 316 318 317
f 317 318 319
f 318 320 319
f 319 320 205
f 320 206 205
f 9 7 28
f 7 3 28
f 321 27 322
f 27 28 322
f 322 28 323
f 28 3 323
f 323 3 146
f 69 324 67
f 324 325 67
f 67 325 65
f 325 326 65
f 65 326 63
f 326 327 63
f 63 327 61
f 327 328 61
f 61 328 59
f 328 329 59
f 59 329 57
f 329 330 57
f 57 330 55
f 330 331 55
f 55 331 53
f 331 332 53
f 53 332 51
f 332 333 51
f 51 333 49
f 333 334 49
f 49 334 47
f 334 335 47
f 47 335 45
f 335 336 45
f 45 336 43
f 336 337 43
f 43 337 41
f 337 338 41
f 41 338 39
f 338 339 39
f 39 339 37
f 339 340 37
f 37 340 35
f 340 341 35
f 35 341 33
f 341 342 33
f 33 342 31
f 342 343 31
f 31 343 29
f 343 344 29
f 29 344 143
f 344 345 143
f 143 345 141
f 345 346 141
f 141 346 139
f 346 347 139
f 139 347 137
f 347 348 137
f 137 348 135
f 348 349 135
f 135 349 133
f 349 350 133
f 133 350 131
f 350 351 131
f 131 351 129
f 351 352 129
f 129 352 127
f 352 353 127
f 127 353 125
f 353 354 125
f 125 354 123
f 354 355 123
f 123 355 121
f 355 356 121
f 121 356 119
f 356 357 119
f 119 357 117
f 357 358 117
f 117 358 115
f 358 359 115
f 115 359 113
f 359 360 113
f 113 360 111
f 360 361 111
f 111 361 109
f 361 362 109
f 109 362 107
f 362 363 107
f 107 363 105
f 363 364 105
f 105 364 103
f 364 365 103
f 103 365 101
f 365 366 101
f 101 366 99
f 366 367 99
f 99 367 97
f 367 368 97
f 97 368 95
f 368 369 95
f 95 369 93
f 369 370 93
f 93 370 91
f 370 371 91
f 91 371 89
f 371 372 89
f 89 372 87
f 372 373 87
f 87 373 85
f 373 374 85
f 85 374 83
f 374 375 83
f 83 375 81
f 375 376 81
f 81 376 79
f 376 377 79
f 79 377 77
f 377 378 77
f 77 378 75
f 378 379 75
f 75 379 73
f 379 380 73
f 73 380 71
f 380 381 71
f 71 381 69
f 381 324 69
f 382 383 384
f 383 385 384
f 384 385 386
f 385 387 386
f 386 387 388
f 387 389 388
f 388 389 390
f 389 391 390
f 390 391 392
f 391 393 392
f 392 393 394
f 393 395 394
f 394 395 396
f 395 397 396
f 396 397 398
f 397 399 398
f 398 399 400
f 399 401 400
f 400 401 402
f 401 403 402
f 402 403 404
f 403 405 404
f 404 405 406
f 405 407 406
f 406 407 408
f 407 409 408
f 408 409 410
f 409 411 410
f 410 411 412
f 411 413 412
f 412 413 414
f 413 415 414
f 414 415 416
f 415 417 416
f 416 417 418
f 417 419 418
f 418 419 420
f 419 421 420
f 420 421 422
f 421 423 422
f 422 423 424
f 423 425 424
f 424 425 426
f 425 427 426
f 426 427 428
f 427 429 428
f 428 429 430
f 429 431 430
f 430 431 432
f 431 433 432
f 432 433 434
f 433 435 434
f 434 435 436
f 435 437 436
f 436 437 438
f 437 439 438
f 438 439 440
f 439 441 440
f 440 441 442
f 441 443 442
f 442 443 444
f 443 445 444
f 444 445 446
f 445 447 446
f 446 447 448
f 447 449 448
f 448 449 450
f 449 451 450
f 450 451 452
f 451 453 452
f 452 453 454
f 453 455 454
f 454 455 456
f 455 457 456
f 456 457 458
f 457 459 458
f 458 459 460
f 459 461 460
f 460 461 462
f 461 463 462
f 462 463 464
f 463 465 464
f 464 465 466
f 465 467 466
f 466 467 468
f 467 469 468
f 468 469 470
f 469 471 470
f 470 471 472
f 471 473 472
f 472 473 474
f 473 475 474
f 474 475 476
f 475 477 476
f 476 477 478
f 477 479 478
f 478 479 480
f 479 481 480
f 480 481 482
f 481 483 482
f 482 483 484
f 483 485 484
f 484 485 486
f 485 487 486
f 486 487 488
f 487 489 488
f 488 489 490
f 489 491 490
f 490 491 492
f 491 493 492
f 492 493 494
f 493 495 494
f 494 495 496
f 495 497 496
f 496 497 382
f 497 383 382
f 26 25 24
f 23 145 2
f 1 498 2
f 498 26 2
f 2 26 23
f 26 24 23
f 499 500 501
f 500 502 501
f 501 502 503
f 502 504 503
f 503 504 505
f 504 506 505
f 505 506 507
f 506 508 507
f 507 508 509
f 508 510 509
f 509 510 511
f 510 512 511
f 511 512 513
f 512 514 513
f 513 514 515
f 514 516 515
f 515 516 517
f 516 518 517
f 517 518 519
f 518 520 519
f 519 520 521
f 520 522 521
f 521 522 523
f 522 524 523
f 523 524 525
f 524 526 525
f 525 526 527
f 526 528 527
f 527 528 529
f 528 530 529
f 529 530 531
f 530 532 531
f 531 532 533
f 532 534 533
f 533 534 535
f 534 536 535
f 535 536 537
f 536 538 537
f 537 538 539
f 538 540 539
f 539 540 541
f 540 542 541
f 541 542 543
f 542 544 543
f 543 544 545
f 544 546 545
f 545 546 547
f 546 548 547
f 547 548 549
f 548 550 549
f 549 550 551
f 550 552 551
f 551 552 553
f 552 554 553
f 553 554 555
f 554 556 555
f 555 556 557
f 556 558 557
f 557 558 559
f 558 560 559
f 559 560 561
f 560 562 561
f 561 562 563
f 562 564 563
f 563 564 565
f 564 566 565
f 565 566 567
f 566 568 567
f 567 568 569
f 568 570 569
f 569 570 571
f 570 572 571
f 571 572 573
f 572 574 573
f 573 574 575
f 574 576 575
f 575 576 577
f 576 578 577
f 577 578 579
f 578 580 579
f 579 580 581
f 580 582 581
f 581 582 583
f 582 584 583
f 583 584 585
f 584 586 585
f 585 586 587
f 586 588 587
f 587 588 589
f 588 590 589
f 589 590 591
f 590 592 591
f 591 592 593
f 592 594 593
f 593 594 595
f 594 596 595
f 595 596 597
f 596 598 597
f 597 598 599
f 598 600 599
f 599 600 601
f 600 602 601
f 601 602 603
f 602 604 603
f 603 604 605
f 604 606 605
f 605 606 607
f 606 608 607
f 607 608 609
f 608 610 609
f 609 610 611
f 610 612 611
f 611 612 613
f 612 614 613
f 613 614 499
f 614 500 499
f 615 616 617
f 616 618 617
f 617 618 619
f 618 620 619
f 621 622 623
f 622 624 623
f 623 624 625
f 624 626 625
f 625 626 627
f 626 628 627
f 627 628 629
f 628 630 629
f 629 630 631
f 630 632 631
f 631 632 633
f 632 634 633
f 633 634 635
f 634 636 635
f 635 636 637
f 636 638 637
f 637 638 639
f 638 640 639
f 639 640 641
f 640 642 641
f 641 642 643
f 642 644 643
f 643 644 645
f 644 646 645
f 645 646 647
f 646 648 647
f 647 648 649
f 648 650 649
f 649 650 651
f 650 652 651
f 651 652 653
f 652 654 653
f 653 654 655
f 654 656 655
f 655 656 657
f 656 658 657
f 657 658 659
f 658 660 659
f 659 660 661
f 660 662 661
f 661 662 663
f 662 664 663
f 663 664 665
f 664 666 665
f 665 666 667
f 666 668 667
f 667 668 669
f 668 670 669
f 669 670 671
f 670 672 671
f 671 672 673
f 672 674 673
f 673 674 675
f 674 676 675
f 675 676 677
f 676 678 677
f 677 678 679
f 678 680 679
f 679 680 681
f 680 682 681
f 681 682 683
f 682 684 683
f 683 684 685
f 684 686 685
f 685 686 687
f 686 688 687
f 687 688 689
f 688 690 689
f 689 690 691
f 690 692 691
f 691 692 693
f 692 694 693
f 693 694 695
f 694 696 695
f 695 696 697
f 696 698 697
f 697 698 699
f 698 700 699
f 699 700 701
f 700 702 701
f 701 702 703
f 702 704 703
f 703 704 705
f 704 706 705
f 705 706 707
f 706 708 707
f 707 708 709
f 708 710 709
f 709 710 711
f 710 712 711
f 711 712 713
f 712 714 713
f 713 714 715
f 714 716 715
f 715 716 717
f 716 718 717
f 717 718 719
f 718 720 719
f 719 720 721
f 720 722 721
f 721 722 723
f 722 724 723
f 723 724 725
f 724 726 725
f 725 726 727
f 726 728 727
f 727 728 729
f 728 730 729
f 729 730 731
f 730 732 731
f 731 732 733
f 732 734 733
f 733 734 735
f 734 736 735
f 735 736 621
f 736 622 621
f 737 738 739
f 738 740 739
f 739 740 741
f 740 742 741
f 741 742 743
f 742 744 743
f 743 744 745
f 744 746 745
f 745 746 747
f 746 748 747
f 747 748 749
f 748 750 749
f 749 750 751
f 750 752 751
f 751 752 753
f 752 754 753
f 753 754 755
f 754 756 755
f 755 756 757
f 756 758 757
f 757 758 759
f 758 760 759
f 759 760 761
f 760 762 761
f 761 762 763
f 762 764 763
f 763 764 765
f 764 766 765
f 765 766 767
f 766 768 767
f 767 768 769
f 768 770 769
f 769 770 771
f 770 772 771
f 771 772 773
f 772 774 773
f 773 774 775
f 774 776 775
f 775 776 777
f 776 778 777
f 777 778 779
f 778 780 779
f 779 780 781
f 780 782 781
f 781 782 783
f 782 784 783
f 783 784 785
f 784 786 785
f 785 786 787
f 786 788 787
f 787 788 789
f 788 790 789
f 789 790 791
f 790 792 791
f 791 792 793
f 792 794 793
f 793 794 795
f 794 796 795
f 795 796 797
f 796 798 797
f 797 798 799
f 798 800 799
f 799 800 801
f 800 802 801
f 801 802 803
f 802 804 803
f 803 804 805
f 804 806 805
f 805 806 807
f 806 808 807
f 807 808 809
f 808 810 809
f 809 810 811
f 810 812 811
f 811 812 813
f 812 814 813
f 813 814 815
f 814 816 815
f 815 816 817
f 816 818 817
f 817 818 819
f 818 820 819
f 819 820 821
f 820 822 821
f 821 822 823
f 822 824 823
f 823 824 825
f 824 826 825
f 825 826 827
f 826 828 827
f 827 828 829
f 828 830 829
f 829 830 831
f 830 832 831
f 831 832 833
f 832 834 833
f 833 834 835
f 834 836 835
f 835 836 837
f 836 838 837
f 837 838 839
f 838 840 839
f 839 840 841
f 840 842 841
f 841 842 843
f 842 844 843
f 843 844 845
f 844 846 845
f 845 846 847
f 846 848 847
f 847 848 849
f 848 850 849
f 849 850 851
f 850 852 851
f 851 852 737
f 852 738 737
f 853 854 855
f 854 856 855
f 855 856 857
f 856 858 857
f 857 858 859
f 858 860 859
f 859 860 861
f 860 862 861
f 861 862 863
f 862 864 863
f 863 864 865
f 864 866 865
f 865 866 867
f 866 868 867
f 867 868 869
f 868 870 869
f 869 870 871
f 870 872 871
f 871 872 873
f 872 874 873
f 873 874 875
f 874 876 875
f 875 876 877
f 876 878 877
f 877 878 879
f 878 880 879
f 879 880 881
f 880 882 881
f 881 882 883
f 882 884 883
f 883 884 885
f 884 886 885
f 885 886 887
f 886 888 887
f 887 888 889
f 888 890 889
f 889 890 891
f 890 892 891
f 891 892 893
f 892 894 893
f 893 894 895
f 894 896 895
f 895 896 897
f 896 898 897
f 897 898 899
f 898 900 899
f 899 900 901
f 900 902 901
f 901 902 903
f 902 904 903
f 903 904 905
f 904 906 905
f 905 906 907
f 906 908 907
f 907 908 909
f 908 910 909
f 909 910 911
f 910 912 911
f 911 912 913
f 912 914 913
f 913 914 915
f 914 916 915
f 915 916 917
f 916 918 917
f 917 918 919
f 918 920 919
f 919 920 921
f 920 922 921
f 921 922 923
f 922 924 923
f 923 924 925
f 924 926 925
f 925 926 927
f 926 928 927
f 927 928 929
f 928 930 929
f 929 930 931
f 930 932 931
f 931 932 933
f 932 934 933
f 933 934 935
f 934 936 935
f 935 936 937
f 936 938 937
f 937 938 939
f 938 940 939
f 939 940 941
f 940 942 941
f 941 942 943
f 942 944 943
f 943 944 945
f 944 946 945
f 945 946 947
f 946 948 947
f 947 948 949
f 948 950 949
f 949 950 951
f 950 952 951
f 951 952 953
f 952 954 953
f 953 954 955
f 954 956 955
f 955 956 957
f 956 958 957
f 957 958 959
f 958 960 959
f 959 960 961
f 960 962 961
f 961 962 963
f 962 964 963
f 963 964 965
f 964 966 965
f 965 966 967
f 966 968 967
f 967 968 853
f 968 854 853
f 797 799 969
f 221 223 6
f 223 225 6
f 6 225 227
f 4 793 969
f 793 795 969
f 969 795 797
f 799 801 969
f 801 803 969
f 969 803 805
f 805 807 969
f 807 809 969
f 969 809 811
f 823 825 969
f 843 845 8
f 261 263 4
f 263 265 4
f 255 257 4
f 257 259 4
f 4 259 261
f 843 8 841
f 845 847 8
f 847 849 8
f 8 849 851
f 295 297 765
f 209 6 207
f 6 205 207
f 775 4 773
f 4 771 773
f 775 777 4
f 777 779 4
f 4 779 781
f 243 245 4
f 245 247 4
f 4 247 249
f 249 251 4
f 251 253 4
f 4 253 255
f 811 813 969
f 813 815 969
f 969 815 817
f 969 825 8
f 825 827 8
f 8 827 829
f 829 831 8
f 831 833 8
f 8 833 835
f 215 217 6
f 217 219 6
f 6 219 221
f 781 783 4
f 783 785 4
f 4 785 787
f 787 789 4
f 789 791 4
f 4 791 793
f 4 235 237
f 835 837 8
f 837 839 8
f 8 839 841
f 309 311 761
f 311 313 761
f 209 211 6
f 211 213 6
f 6 213 215
f 227 229 6
f 229 231 6
f 6 231 4
f 231 233 4
f 4 233 235
f 237 239 4
f 239 241 4
f 4 241 243
f 851 737 8
f 737 739 8
f 8 739 6
f 739 741 6
f 6 741 743
f 743 745 6
f 745 747 6
f 6 747 749
f 817 819 969
f 819 821 969
f 969 821 823
f 765 297 763
f 297 299 763
f 763 299 761
f 299 301 761
f 761 301 303
f 749 751 6
f 751 753 6
f 6 753 755
f 303 305 761
f 305 307 761
f 761 307 309
f 771 273 275
f 755 757 6
f 757 759 6
f 6 759 761
f 265 267 4
f 267 269 4
f 4 269 771
f 269 271 771
f 771 271 273
f 275 277 771
f 277 279 771
f 771 279 281
f 281 283 771
f 283 285 771
f 771 285 287
f 313 315 761
f 315 317 761
f 761 317 6
f 317 319 6
f 6 319 205
f 767 291 765
f 291 293 765
f 765 293 295
f 287 289 771
f 289 291 771
f 771 291 769
f 291 767 769
f 937 465 935
f 465 463 935
f 935 463 933
f 463 461 933
f 933 461 931
f 461 459 931
f 931 459 929
f 459 457 929
f 929 457 927
f 457 455 927
f 927 455 925
f 455 453 925
f 925 453 923
f 453 451 923
f 923 451 921
f 451 449 921
f 921 449 919
f 449 447 919
f 919 447 917
f 447 445 917
f 917 445 915
f 445 443 915
f 915 443 913
f 443 441 913
f 913 441 911
f 441 439 911
f 911 439 909
f 439 437 909
f 909 437 907
f 437 435 907
f 907 435 905
f 435 433 905
f 905 433 903
f 433 431 903
f 903 431 901
f 431 429 901
f 901 429 899
f 429 427 899
f 899 427 897
f 427 425 897
f 897 425 895
f 425 423 895
f 895 423 893
f 423 421 893
f 893 421 891
f 421 419 891
f 891 419 889
f 419 417 889
f 889 417 887
f 417 415 887
f 887 415 885
f 415 413 885
f 885 413 883
f 413 411 883
f 883 411 881
f 411 409 881
f 881 409 879
f 409 407 879
f 879 407 877
f 407 405 877
f 877 405 875
f 405 403 875
f 875 403 873
f 403 401 873
f 873 401 871
f 401 399 871
f 871 399 869
f 399 397 869
f 869 397 867
f 397 395 867
f 867 395 865
f 395 393 865
f 865 393 863
f 393 391 863
f 863 391 861
f 391 389 861
f 861 389 859
f 389 387 859
f 859 387 857
f 387 385 857
f 857 385 855
f 385 383 855
f 855 383 853
f 383 497 853
f 853 497 967
f 497 495 967
f 967 495 965
f 495 493 965
f 965 493 963
f 493 491 963
f 963 491 961
f 491 489 961
f 961 489 959
f 489 487 959
f 959 487 957
f 487 485 957
f 957 485 955
f 485 483 955
f 955 483 953
f 483 481 953
f 953 481 951
f 481 479 951
f 951 479 949
f 479 477 949
f 949 477 947
f 477 475 947
f 947 475 945
f 475 473 945
f 945 473 943
f 473 471 943
f 943 471 941
f 471 469 941
f 941 469 939
f 469 467 939
f 939 467 937
f 467 465 937
f 969 970 4
f 970 5 4
f 971 972 973
f 972 974 973
f 25 27 24
f 27 321 24
f 24 321 22
f 321 20 22
f 616 615 975
f 615 976 975
f 975 976 321
f 976 14 321
f 321 14 13
f 13 16 321
f 16 18 321
f 321 18 20
f 977 538 978
f 538 536 978
f 978 536 979
f 536 534 979
f 979 534 980
f 534 532 980
f 980 532 981
f 532 530 981
f 981 530 982
f 530 528 982
f 982 528 983
f 528 526 983
f 983 526 984
f 526 524 984
f 984 524 985
f 524 522 985
f 985 522 986
f 522 520 986
f 986 520 987
f 520 518 987
f 987 518 988
f 518 516 988
f 988 516 989
f 516 514 989
f 989 514 990
f 514 512 990
f 990 512 991
f 512 510 991
f 991 510 992
f 510 508 992
f 992 508 993
f 508 506 993
f 993 506 994
f 506 504 994
f 994 504 995
f 504 502 995
f 995 502 996
f 502 500 996
f 996 500 997
f 500 614 997
f 997 614 998
f 614 612 998
f 998 612 999
f 612 610 999
f 999 610 1000
f 610 608 1000
f 1000 608 1001
f 608 606 1001
f 1001 606 1002
f 606 604 1002
f 1002 604 1003
f 604 602 1003
f 1003 602 1004
f 602 600 1004
f 1004 600 1005
f 600 598 1005
f 1005 598 1006
f 598 596 1006
f 1006 596 1007
f 596 594 1007
f 1007 594 1008
f 594 592 1008
f 1008 592 1009
f 592 590 1009
f 1009 590 1010
f 590 588 1010
f 1010 588 1011
f 588 586 1011
f 1011 586 1012
f 586 584 1012
f 1012 584 1013
f 584 582 1013
f 1013 582 1014
f 582 580 1014
f 1014 580 1015
f 580 578 1015
f 1015 578 1016
f 578 576 1016
f 1016 576 1017
f 576 574 1017
f 1017 574 1018
f 574 572 1018
f 1018 572 1019
f 572 570 1019
f 1019 570 1020
f 570 568 1020
f 1020 568 1021
f 568 566 1021
f 1021 566 1022
f 566 564 1022
f 1022 564 1023
f 564 562 1023
f 1023 562 1024
f 562 560 1024
f 1024 560 1025
f 560 558 1025
f 1025 558 1026
f 558 556 1026
f 1026 556 1027
f 556 554 1027
f 1027 554 1028
f 554 552 1028
f 1028 552 1029
f 552 550 1029
f 1029 550 1030
f 550 548 1030
f 1030 548 1031
f 548 546 1031
f 1031 546 1032
f 546 544 1032
f 1032 544 1033
f 544 542 1033
f 1033 542 1034
f 542 540 1034
f 1034 540 977
f 540 538 977
f 146 145 323
f 145 23 323
f 323 17 15
f 23 21 323
f 21 19 323
f 323 19 17
f 619 620 1035
f 620 1036 1035
f 1035 1036 11
f 1036 323 11
f 11 323 12
f 323 15 12
f 175 176 323
f 641 643 618
f 683 1036 681
f 1036 679 681
f 651 653 620
f 653 655 620
f 620 655 657
f 620 663 665
f 665 667 620
f 667 669 620
f 620 669 671
f 683 685 1036
f 685 687 1036
f 1036 687 689
f 643 645 618
f 645 647 618
f 618 647 620
f 647 649 620
f 620 649 651
f 657 659 620
f 659 661 620
f 620 661 663
f 635 637 618
f 637 639 618
f 618 639 641
f 671 673 620
f 673 675 620
f 620 675 1036
f 675 677 1036
f 1036 677 679
f 715 717 1037
f 717 719 1037
f 1037 719 721
f 721 723 1037
f 723 725 1037
f 1037 725 727
f 727 729 1037
f 729 731 1037
f 1037 731 733
f 629 618 627
f 618 625 627
f 629 631 618
f 631 633 618
f 618 633 635
f 709 711 1037
f 711 713 1037
f 1037 713 715
f 733 735 1037
f 735 621 1037
f 1037 621 618
f 621 623 618
f 618 623 625
f 689 691 1036
f 691 693 1036
f 1036 693 695
f 701 703 1036
f 703 705 1036
f 1036 705 707
f 695 697 1036
f 697 699 1036
f 1036 699 701
f 1037 444 446
f 446 448 1037
f 448 450 1037
f 1037 450 452
f 388 390 616
f 390 392 616
f 616 392 394
f 400 402 616
f 488 490 975
f 462 1037 460
f 1037 458 460
f 480 482 975
f 618 410 412
f 452 454 1037
f 454 456 1037
f 1037 456 458
f 480 975 478
f 482 484 975
f 484 486 975
f 975 486 488
f 394 396 616
f 396 398 616
f 616 398 400
f 402 404 616
f 404 406 616
f 616 406 618
f 406 408 618
f 618 408 410
f 412 414 618
f 414 416 618
f 618 416 418
f 462 464 1037
f 464 466 1037
f 1037 466 468
f 470 472 975
f 490 492 975
f 492 494 975
f 975 494 496
f 418 420 618
f 420 422 618
f 618 422 424
f 436 438 618
f 438 440 618
f 618 440 1037
f 440 442 1037
f 1037 442 444
f 472 474 975
f 474 476 975
f 975 476 478
f 496 382 975
f 382 384 975
f 975 384 616
f 384 386 616
f 616 386 388
f 424 426 618
f 426 428 618
f 618 428 430
f 430 432 618
f 432 434 618
f 618 434 436
f 707 709 1036
f 709 1037 1036
f 1036 1037 1038
f 176 177 323
f 177 178 323
f 323 178 179
f 189 190 972
f 190 191 972
f 164 165 1036
f 171 172 1036
f 172 173 1036
f 1036 173 323
f 173 174 323
f 323 174 175
f 185 186 323
f 186 187 323
f 323 187 188
f 179 180 323
f 180 181 323
f 323 181 182
f 182 183 323
f 183 184 323
f 323 184 185
f 188 189 323
f 189 972 323
f 323 972 322
f 972 971 322
f 322 971 1037
f 971 1039 1037
f 1037 1039 1038
f 155 156 1038
f 156 157 1038
f 165 166 1036
f 166 167 1036
f 1036 167 168
f 157 158 1038
f 158 159 1038
f 1038 159 160
f 168 169 1036
f 169 170 1036
f 1036 170 171
f 191 192 972
f 192 193 972
f 972 193 194
f 160 161 1038
f 161 162 1038
f 1038 162 1036
f 162 163 1036
f 1036 163 164
f 194 195 972
f 195 196 972
f 972 196 197
f 197 198 972
f 198 199 972
f 972 199 200
f 149 150 1038
f 150 151 1038
f 1038 151 152
f 152 153 1038
f 153 154 1038
f 1038 154 155
f 200 201 972
f 201 202 972
f 972 202 203
f 203 204 972
f 204 147 972
f 972 147 1038
f 147 148 1038
f 1038 148 149
f 583 585 322
f 583 322 581
f 511 975 509
f 975 507 509
f 322 561 563
f 563 565 322
f 565 567 322
f 322 567 569
f 575 577 322
f 577 579 322
f 322 579 581
f 597 321 595
f 321 593 595
f 511 513 975
f 513 515 975
f 975 515 517
f 569 571 322
f 571 573 322
f 322 573 575
f 585 587 322
f 587 589 322
f 322 589 321
f 589 591 321
f 321 591 593
f 517 519 975
f 519 521 975
f 975 521 523
f 523 525 975
f 525 1037 975
f 975 1037 470
f 1037 468 470
f 525 527 1037
f 527 529 1037
f 1037 529 531
f 537 539 1037
f 539 541 1037
f 597 599 321
f 599 601 321
f 321 601 603
f 603 605 321
f 605 607 321
f 321 607 609
f 609 611 321
f 611 613 321
f 321 613 499
f 499 501 321
f 501 503 321
f 321 503 975
f 503 505 975
f 975 505 507
f 531 533 1037
f 533 535 1037
f 1037 535 537
f 553 555 1037
f 555 557 1037
f 1037 557 322
f 557 559 322
f 322 559 561
f 541 543 1037
f 543 545 1037
f 1037 545 547
f 547 549 1037
f 549 551 1037
f 1037 551 553
f 1039 971 1040
f 971 973 1040
f 1038 1039 1041
f 1039 1040 1041
f 972 1038 974
f 1038 1041 974
f 760 758 1
f 1 746 744
f 498 852 850
f 774 772 5
f 758 756 1
f 756 754 1
f 1 754 752
f 752 750 1
f 750 748 1
f 1 748 746
f 744 742 1
f 742 740 1
f 1 740 498
f 740 738 498
f 498 738 852
f 1 206 320
f 832 830 498
f 970 806 804
f 850 848 498
f 848 846 498
f 498 846 844
f 844 842 498
f 842 840 498
f 498 840 838
f 804 802 970
f 802 800 970
f 970 800 798
f 838 836 498
f 836 834 498
f 498 834 832
f 816 814 970
f 814 812 970
f 798 796 970
f 796 794 970
f 970 794 5
f 794 792 5
f 792 790 5
f 790 788 5
f 5 788 786
f 786 784 5
f 784 782 5
f 5 782 780
f 772 770 5
f 770 768 5
f 5 768 766
f 1 214 212
f 812 810 970
f 810 808 970
f 970 808 806
f 780 778 5
f 778 776 5
f 5 776 774
f 212 210 1
f 210 208 1
f 1 208 206
f 830 828 498
f 828 826 498
f 498 826 970
f 826 824 970
f 970 824 822
f 822 820 970
f 820 818 970
f 970 818 816
f 290 288 766
f 766 276 274
f 226 224 1
f 224 222 1
f 1 222 220
f 290 766 292
f 5 266 264
f 264 262 5
f 262 260 5
f 5 260 258
f 232 230 1
f 230 228 1
f 1 228 226
f 220 218 1
f 218 216 1
f 1 216 214
f 320 318 1
f 318 762 1
f 1 762 760
f 318 316 762
f 316 314 762
f 762 314 312
f 274 272 766
f 272 270 766
f 766 270 5
f 270 268 5
f 5 268 266
f 258 256 5
f 256 254 5
f 5 254 252
f 252 250 5
f 250 248 5
f 5 248 246
f 312 310 762
f 310 308 762
f 762 308 306
f 306 304 762
f 304 302 762
f 762 302 300
f 300 298 762
f 298 296 762
f 762 296 294
f 288 286 766
f 286 284 766
f 766 284 282
f 282 280 766
f 280 278 766
f 766 278 276
f 246 244 5
f 244 242 5
f 5 242 240
f 240 238 5
f 238 236 5
f 5 236 1
f 236 234 1
f 1 234 232
f 292 766 294
f 766 764 294
f 294 764 762
f 11 10 974
f 10 973 974
f 973 10 1040
f 10 1042 1040
f 1040 1042 1041
f 374 373 974
f 373 372 974
f 365 364 11
f 364 363 11
f 11 363 362
f 325 324 974
f 324 381 974
f 974 381 380
f 380 379 974
f 379 378 974
f 974 378 377
f 377 376 974
f 376 375 974
f 974 375 374
f 372 371 974
f 371 370 974
f 974 370 369
f 331 330 1041
f 330 329 1041
f 369 368 974
f 368 367 974
f 974 367 11
f 367 366 11
f 11 366 365
f 362 361 11
f 361 360 11
f 11 360 359
f 359 358 11
f 358 357 11
f 11 357 356
f 356 355 11
f 355 354 11
f 11 354 353
f 353 352 11
f 352 351 11
f 11 351 1035
f 351 350 1035
f 1035 350 349
f 349 348 1035
f 348 347 1035
f 1035 347 346
f 329 328 1041
f 328 327 1041
f 1041 327 974
f 327 326 974
f 974 326 325
f 346 345 1035
f 345 344 1035
f 1035 344 343
f 343 342 1035
f 342 341 1035
f 1035 341 340
f 339 338 1041
f 338 337 1041
f 337 336 1041
f 336 335 1041
f 1041 335 334
f 334 333 1041
f 333 332 1041
f 1041 332 331
f 1043 1044 14
f 1044 1045 14
f 1046 10 1047
f 10 1048 1047
f 14 1049 1050
f 1051 1052 976
f 1050 1053 14
f 1053 1054 14
f 14 1054 1055
f 1055 1056 14
f 1056 1057 14
f 14 1057 1043
f 10 1058 1059
f 1045 1060 14
f 1060 1061 14
f 14 1061 10
f 1061 1062 10
f 10 1062 1058
f 1059 1063 10
f 1063 1064 10
f 10 1064 1048
f 10 1065 1066
f 1067 1068 14
f 1068 1069 14
f 14 1069 1049
f 1046 1070 10
f 1070 1071 10
f 10 1071 1065
f 1066 1072 10
f 1072 1073 10
f 10 1073 1074
f 1075 1076 1042
f 1076 1077 1042
f 1042 1077 1078
f 1074 1079 10
f 1079 1080 10
f 10 1080 1042
f 1080 1081 1042
f 1042 1081 1075
f 1078 1082 1042
f 1082 1083 1042
f 1042 1083 1084
f 1052 1085 976
f 1085 1086 976
f 976 1086 14
f 1086 1087 14
f 14 1087 1067
f 1084 1088 1042
f 1088 1089 1042
f 1042 1089 1090
f 1090 1091 1042
f 1091 1092 1042
f 1042 1092 1093
f 1094 1095 976
f 1095 1096 976
f 1096 1097 976
f 976 1097 1098
f 1098 1099 976
f 1099 1100 976
f 976 1100 1051
f 1101 1102 617
f 1042 1103 1104
f 1105 619 1106
f 619 1107 1106
f 1102 1108 617
f 1108 1109 617
f 617 1109 1110
f 1035 1111 1112
f 1112 1113 1035
f 1113 1114 1035
f 1035 1114 1115
f 1115 1116 1035
f 1116 1117 1035
f 1035 1117 619
f 1117 1118 619
f 619 1118 1107
f 1105 1119 619
f 1119 1120 619
f 619 1120 1121
f 1110 1122 617
f 1122 1123 617
f 617 1123 1042
f 1123 1124 1042
f 1042 1124 1103
f 1042 1125 1126
f 1126 1127 1042
f 1127 1128 1042
f 1042 1128 1129
f 1130 1131 1035
f 1104 1132 1042
f 1132 1133 1042
f 1042 1133 1134
f 1135 1136 1035
f 1131 1137 1035
f 1137 1138 1035
f 1035 1138 1111
f 1121 1139 619
f 1139 1140 619
f 619 1140 1141
f 1141 1142 619
f 1142 1143 619
f 619 1143 1144
f 1145 1146 617
f 1134 1147 1042
f 1147 1148 1042
f 1042 1148 1125
f 1144 1149 619
f 1149 1150 619
f 619 1150 617
f 1150 1151 617
f 617 1151 1145
f 1146 1152 617
f 1152 1153 617
f 617 1153 1101
f 1129 1135 1042
f 1135 1035 1042
f 1042 1035 1041
f 1035 340 1041
f 1041 340 339
f 1136 1154 1035
f 1154 1155 1035
f 1035 1155 1156
f 1156 1157 1035
f 1157 1158 1035
f 1035 1158 1130
f 854 968 976
f 968 966 976
f 868 866 615
f 866 864 615
f 615 864 862
f 902 617 904
f 617 906 904
f 1042 922 920
f 920 918 1042
f 918 916 1042
f 1042 916 914
f 902 900 617
f 900 898 617
f 617 898 896
f 976 954 952
f 952 950 976
f 950 948 976
f 976 948 946
f 930 928 1042
f 914 912 1042
f 912 910 1042
f 1042 910 617
f 910 908 617
f 617 908 906
f 862 860 615
f 860 858 615
f 615 858 976
f 858 856 976
f 976 856 854
f 966 964 976
f 964 962 976
f 976 962 960
f 944 942 1042
f 928 926 1042
f 926 924 1042
f 1042 924 922
f 896 894 617
f 894 892 617
f 617 892 890
f 890 888 617
f 888 886 617
f 617 886 884
f 876 874 615
f 960 958 976
f 958 956 976
f 976 956 954
f 884 882 617
f 882 880 617
f 617 880 615
f 880 878 615
f 615 878 876
f 874 872 615
f 872 870 615
f 615 870 868
f 1093 1094 1042
f 1094 976 1042
f 1042 976 944
f 976 946 944
f 942 940 1042
f 940 938 1042
f 1042 938 936
f 936 934 1042
f 934 932 1042
f 1042 932 930
f 498 970 969
f 28 26 9
f 26 498 9
f 9 498 8
f 498 969 8
f 1159 1124 1160
f 1124 1123 1160
f 1160 1123 1161
f 1123 1122 1161
f 1161 1122 1162
f 1122 1110 1162
f 1162 1110 1163
f 1110 1109 1163
f 1163 1109 1164
f 1109 1108 1164
f 1164 1108 1165
f 1108 1102 1165
f 1165 1102 1166
f 1102 1101 1166
f 1166 1101 1167
f 1101 1153 1167
f 1167 1153 1168
f 1153 1152 1168
f 1168 1152 1169
f 1152 1146 1169
f 1169 1146 1170
f 1146 1145 1170
f 1170 1145 1171
f 1145 1151 1171
f 1171 1151 1172
f 1151 1150 1172
f 1172 1150 1173
f 1150 1149 1173
f 1173 1149 1174
f 1149 1144 1174
f 1174 1144 1175
f 1144 1143 1175
f 1175 1143 1176
f 1143 1142 1176
f 1176 1142 1177
f 1142 1141 1177
f 1177 1141 1178
f 1141 1140 1178
f 1178 1140 1179
f 1140 1139 1179
f 1179 1139 1180
f 1139 1121 1180
f 1180 1121 1181
f 1121 1120 1181
f 1181 1120 1182
f 1120 1119 1182
f 1182 1119 1183
f 1119 1105 1183
f 1183 1105 1184
f 1105 1106 1184
f 1184 1106 1185
f 1106 1107 1185
f 1185 1107 1186
f 1107 1118 1186
f 1186 1118 1187
f 1118 1117 1187
f 1187 1117 1188
f 1117 1116 1188
f 1188 1116 1189
f 1116 1115 1189
f 1189 1115 1190
f 1115 1114 1190
f 1190 1114 1191
f 1114 1113 1191
f 1191 1113 1192
f 1113 1112 1192
f 1192 1112 1193
f 1112 1111 1193
f 1193 1111 1194
f 1111 1138 1194
f 1194 1138 1195
f 1138 1137 1195
f 1195 1137 1196
f 1137 1131 1196
f 1196 1131 1197
f 1131 1130 1197
f 1197 1130 1198
f 1130 1158 1198
f 1198 1158 1199
f 1158 1157 1199
f 1199 1157 1200
f 1157 1156 1200
f 1200 1156 1201
f 1156 1155 1201
f 1201 1155 1202
f 1155 1154 1202
f 1202 1154 1203
f 1154 1136 1203
f 1203 1136 1204
f 1136 1135 1204
f 1204 1135 1205
f 1135 1129 1205
f 1205 1129 1206
f 1129 1128 1206
f 1206 1128 1207
f 1128 1127 1207
f 1207 1127 1208
f 1127 1126 1208
f 1208 1126 1209
f 1126 1125 1209
f 1209 1125 1210
f 1125 1148 1210
f 1210 1148 1211
f 1148 1147 1211
f 1211 1147 1212
f 1147 1134 1212
f 1212 1134 1213
f 1134 1133 1213
f 1213 1133 1214
f 1133 1132 1214
f 1214 1132 1215
f 1132 1104 1215
f 1215 1104 1216
f 1104 1103 1216
f 1216 1103 1159
f 1103 1124 1159
f 1201 704 1200
f 704 702 1200
f 1200 702 1199
f 702 700 1199
f 1199 700 1198
f 700 698 1198
f 1198 698 1197
f 698 696 1197
f 1197 696 1196
f 696 694 1196
f 1196 694 1195
f 694 692 1195
f 1195 692 1194
f 692 690 1194
f 1194 690 1193
f 690 688 1193
f 1193 688 1192
f 688 686 1192
f 1192 686 1191
f 686 684 1191
f 1191 684 1190
f 684 682 1190
f 1190 682 1189
f 682 680 1189
f 1189 680 1188
f 680 678 1188
f 1188 678 1187
f 678 676 1187
f 1187 676 1186
f 676 674 1186
f 1186 674 1185
f 674 672 1185
f 1185 672 1184
f 672 670 1184
f 1184 670 1183
f 670 668 1183
f 1183 668 1182
f 668 666 1182
f 1182 666 1181
f 666 664 1181
f 1181 664 1180
f 664 662 1180
f 1180 662 1179
f 662 660 1179
f 1179 660 1178
f 660 658 1178
f 1178 658 1177
f 658 656 1177
f 1177 656 1176
f 656 654 1176
f 1176 654 1175
f 654 652 1175
f 1175 652 1174
f 652 650 1174
f 1174 650 1173
f 650 648 1173
f 1173 648 1172
f 648 646 1172
f 1172 646 1171
f 646 644 1171
f 1171 644 1170
f 644 642 1170
f 1170 642 1169
f 642 640 1169
f 1169 640 1168
f 640 638 1168
f 1168 638 1167
f 638 636 1167
f 1167 636 1166
f 636 634 1166
f 1166 634 1165
f 634 632 1165
f 1165 632 1164
f 632 630 1164
f 1164 630 1163
f 630 628 1163
f 1163 628 1162
f 628 626 1162
f 1162 626 1161
f 626 624 1161
f 1161 624 1160
f 624 622 1160
f 1160 622 1159
f 622 736 1159
f 1159 736 1216
f 736 734 1216
f 1216 734 1215
f 734 732 1215
f 1215 732 1214
f 732 730 1214
f 1214 730 1213
f 730 728 1213
f 1213 728 1212
f 728 726 1212
f 1212 726 1211
f 726 724 1211
f 1211 724 1210
f 724 722 1210
f 1210 722 1209
f 722 720 1209
f 1209 720 1208
f 720 718 1208
f 1208 718 1207
f 718 716 1207
f 1207 716 1206
f 716 714 1206
f 1206 714 1205
f 714 712 1205
f 1205 712 1204
f 712 710 1204
f 1204 710 1203
f 710 708 1203
f 1203 708 1202
f 708 706 1202
f 1202 706 1201
f 706 704 1201
f 997 1069 996
f 1069 1068 996
f 996 1068 995
f 1068 1067 995
f 995 1067 994
f 1067 1087 994
f 994 1087 993
f 1087 1086 993
f 993 1086 992
f 1086 1085 992
f 992 1085 991
f 1085 1052 991
f 991 1052 990
f 1052 1051 990
f 990 1051 989
f 1051 1100 989
f 989 1100 988
f 1100 1099 988
f 988 1099 987
f 1099 1098 987
f 987 1098 986
f 1098 1097 986
f 986 1097 985
f 1097 1096 985
f 985 1096 984
f 1096 1095 984
f 984 1095 983
f 1095 1094 983
f 983 1094 982
f 1094 1093 982
f 982 1093 981
f 1093 1092 981
f 981 1092 980
f 1092 1091 980
f 980 1091 979
f 1091 1090 979
f 979 1090 978
f 1090 1089 978
f 978 1089 977
f 1089 1088 977
f 977 1088 1034
f 1088 1084 1034
f 1034 1084 1033
f 1084 1083 1033
f 1033 1083 1032
f 1083 1082 1032
f 1032 1082 1031
f 1082 1078 1031
f 1031 1078 1030
f 1078 1077 1030
f 1030 1077 1029
f 1077 1076 1029
f 1029 1076 1028
f 1076 1075 1028
f 1028 1075 1027
f 1075 1081 1027
f 1027 1081 1026
f 1081 1080 1026
f 1026 1080 1025
f 1080 1079 1025
f 1025 1079 1024
f 1079 1074 1024
f 1024 1074 1023
f 1074 1073 1023
f 1023 1073 1022
f 1073 1072 1022
f 1022 1072 1021
f 1072 1066 1021
f 1021 1066 1020
f 1066 1065 1020
f 1020 1065 1019
f 1065 1071 1019
f 1019 1071 1018
f 1071 1070 1018
f 1018 1070 1017
f 1070 1046 1017
f 1017 1046 1016
f 1046 1047 1016
f 1016 1047 1015
f 1047 1048 1015
f 1015 1048 1014
f 1048 1064 1014
f 1014 1064 1013
f 1064 1063 1013
f 1013 1063 1012
f 1063 1059 1012
f 1012 1059 1011
f 1059 1058 1011
f 1011 1058 1010
f 1058 1062 1010
f 1010 1062 1009
f 1062 1061 1009
f 1009 1061 1008
f 1061 1060 1008
f 1008 1060 1007
f 1060 1045 1007
f 1007 1045 1006
f 1045 1044 1006
f 1006 1044 1005
f 1044 1043 1005
f 1005 1043 1004
f 1043 1057 1004
f 1004 1057 1003
f 1057 1056 1003
f 1003 1056 1002
f 1056 1055 1002
f 1002 1055 1001
f 1055 1054 1001
f 1001 1054 1000
f 1054 1053 1000
f 1000 1053 999
f 1053 1050 999
f 999 1050 998
f 1050 1049 998
f 998 1049 997
f 1049 1069 997
