v -0.0109 0.0109 -0.0036
v -0.0109 -0.0109 -0.0036
v -0.0145 -0.0145 0
v -0.0145 0.0145 0
v 0.0109 -0.0109 -0.0036
v 0.0145 -0.0145 0
v 0.0145 0.0145 0
v 0.0109 0.0109 -0.0036
v -0.0119618 0.00362856 0
v -0.0115485 0.00478354 0
v -0.011024 0.00589246 0
v -0.0103934 0.00694463 0
v -0.00966263 0.00792992 0
v -0.0125 -1.53081e-18 0
v -0.0124398 0.00122521 0
v -0.0122598 0.00243863 0
v -0.00478354 0.0115485 0
v -0.00362856 0.0119618 0
v -0.00243863 0.0122598 0
v -0.00122521 0.0124398 0
v -0.00883883 0.00883883 0
v -0.00792992 0.00966263 0
v -0.00694463 0.0103934 0
v -0.00589246 0.011024 0
v 7.65404e-19 0.0125 0
v -0.0122598 -0.00243863 0
v -0.0124398 -0.00122521 0
v -0.0115485 -0.00478354 0
v -0.0119618 -0.00362856 0
v -0.0103934 -0.00694463 0
v -0.011024 -0.00589246 0
v -0.00966263 -0.00792992 0
v -0.00883883 -0.00883883 0
v -0.00792992 -0.00966263 0
v -0.00589246 -0.011024 0
v -0.00694463 -0.0103934 0
v -0.00362856 -0.0119618 0
v -0.00478354 -0.0115485 0
v -2.29621e-18 -0.0125 0
v -0.00122521 -0.0124398 0
v -0.00243863 -0.0122598 0
v 0.00122521 0.0124398 0
v 0.00243863 0.0122598 0
v 0.00362856 0.0119618 0
v 0.00478354 0.0115485 0
v 0.00589246 0.011024 0
v 0.00694463 0.0103934 0
v 0.00792992 0.00966263 0
v 0.00883883 0.00883883 0
v 0.00966263 0.00792992 0
v 0.011024 0.00589246 0
v 0.0103934 0.00694463 0
v 0.0115485 0.00478354 0
v 0.0119618 0.00362856 0
v 0.0122598 0.00243863 0
v 0.0124398 0.00122521 0
v 0.0125 -3.06162e-18 0
v 0.00694463 -0.0103934 0
v 0.00589246 -0.011024 0
v 0.00883883 -0.00883883 0
v 0.00792992 -0.00966263 0
v 0.00243863 -0.0122598 0
v 0.00122521 -0.0124398 0
v 0.00478354 -0.0115485 0
v 0.00362856 -0.0119618 0
v 0.0122598 -0.00243863 0
v 0.0119618 -0.00362856 0
v 0.0124398 -0.00122521 0
v 0.0103934 -0.00694463 0
v 0.00966263 -0.00792992 0
v 0.0115485 -0.00478354 0
v 0.011024 -0.00589246 0
v 0.0225 -5.51091e-18 0.01
v 0.0223917 0.00220539 0.01
v 0.022296 0.00219597 0.0109755
v 0.0219734 0.00437079 0.0109755
v 0.0216944 0.00431528 0.0119134
v 0.0220677 0.00438953 0.01
v 0.0220129 0.00216808 0.0119134
v 0.022296 -0.00219597 0.0109755
v 0.0215312 0.00653141 0.01
v 0.0214392 0.00650352 0.0109755
v 0.0207873 0.00861038 0.01
v 0.0206985 0.00857361 0.0109755
v 0.0198432 0.0106064 0.01
v 0.0211669 0.00642092 0.0119134
v 0.0207248 0.0062868 0.0127779
v 0.0204357 0.00846473 0.0119134
v 0.0212412 0.00422514 0.0127779
v 0.0197585 0.0105611 0.0109755
v 0.0195076 0.010427 0.0119134
v 0.0186282 0.012447 0.0109755
v 0.0183916 0.0122889 0.0119134
v 0.0191001 0.0102092 0.0127779
v 0.0200088 0.00828791 0.0127779
v 0.0187081 0.0125003 0.01
v 0.0215531 0.00212279 0.0127779
v 0.0220129 -0.00216808 0.0119134
v 0.0173927 0.0142738 0.01
v 0.0173185 0.0142129 0.0109755
v 0.0159099 0.0159099 0.01
v 0.0142738 0.0173927 0.01
v 0.015842 0.015842 0.0109755
v 0.0125003 0.0187081 0.01
v 0.0106064 0.0198432 0.01
v 0.0105611 0.0197585 0.0109755
v 0.00861038 0.0207873 0.01
v 0.00653141 0.0215312 0.01
v 0.00650352 0.0214392 0.0109755
v 0.00438953 0.0220677 0.01
v 0.00857361 0.0206985 0.0109755
v 0.0142129 0.0173185 0.0109755
v 0.0170985 0.0140324 0.0119134
v 0.0140324 0.0170985 0.0119134
v 0.0156408 0.0156408 0.0119134
v 0.0122889 0.0183916 0.0119134
v 0.012447 0.0186282 0.0109755
v 0.00846473 0.0204357 0.0119134
v 0.00437079 0.0219734 0.0109755
v 0.00642092 0.0211669 0.0119134
v 0.010427 0.0195076 0.0119134
v 0.00431528 0.0216944 0.0119134
v 0.00220539 0.0223917 0.01
v 0.0180074 0.0120322 0.0127779
v 0.0206313 0.00410383 0.0135355
v 0.0194343 0.00804995 0.0135355
v 0.0201298 0.00610629 0.0135355
v 0.0153141 0.0153141 0.0127779
v 0.0174904 0.0116867 0.0135355
v 0.0167414 0.0137393 0.0127779
v 0.0162607 0.0133448 0.0135355
v 0.0185517 0.00991608 0.0135355
v 0.0209342 0.00206184 0.0135355
v 0.0198882 0.00395601 0.0141573
v 0.0187343 0.00776 0.0141573
v 0.0194047 0.00588635 0.0141573
v 0.015675 0.0128641 0.0141573
v 0.0148744 0.0148744 0.0135355
v 0.0143386 0.0143386 0.0141573
v 0.0137393 0.0167414 0.0127779
v 0.0133448 0.0162607 0.0135355
v 0.0168604 0.0112658 0.0141573
v 0.0178835 0.00955891 0.0141573
v 0.0215531 -0.00212279 0.0127779
v 0.0120322 0.0180074 0.0127779
v 0.0116867 0.0174904 0.0135355
v 0.0102092 0.0191001 0.0127779
v 0.00828791 0.0200088 0.0127779
v 0.0062868 0.0207248 0.0127779
v 0.00422514 0.0212412 0.0127779
v 0.00991608 0.0185517 0.0135355
v 0.00804995 0.0194343 0.0135355
v 0.00955891 0.0178835 0.0141573
v 0.0112658 0.0168604 0.0141573
v 0.00410383 0.0206313 0.0135355
v 0.00610629 0.0201298 0.0135355
v 0.00588635 0.0194047 0.0141573
v 0.00395601 0.0198882 0.0141573
v 0.00212279 0.0215531 0.0127779
v 0.00206184 0.0209342 0.0135355
v 0.00776 0.0187343 0.0141573
v 0.00216808 0.0220129 0.0119134
v 0.0128641 0.015675 0.0141573
v 0.00219597 0.022296 0.0109755
v 0.0201802 0.00198758 0.0141573
v 0.0209342 -0.00206184 0.0135355
v 4.13318e-18 0.0225 0.01
v -0.00220539 0.0223917 0.01
v -0.00438953 0.0220677 0.01
v -0.00219597 0.022296 0.0109755
v 1.37184e-18 0.0224039 0.0109755
v -0.00653141 0.0215312 0.01
v -0.00861038 0.0207873 0.01
v -0.00650352 0.0214392 0.0109755
v -0.0106064 0.0198432 0.01
v -0.0125003 0.0187081 0.01
v -0.0105611 0.0197585 0.0109755
v -0.00437079 0.0219734 0.0109755
v 1.35442e-18 0.0221194 0.0119134
v -0.00431528 0.0216944 0.0119134
v -0.00216808 0.0220129 0.0119134
v -0.00857361 0.0206985 0.0109755
v -0.00846473 0.0204357 0.0119134
v -0.012447 0.0186282 0.0109755
v -0.0122889 0.0183916 0.0119134
v -0.0142129 0.0173185 0.0109755
v -0.0140324 0.0170985 0.0119134
v -0.010427 0.0195076 0.0119134
v -0.00642092 0.0211669 0.0119134
v -0.0142738 0.0173927 0.01
v -0.0159099 0.0159099 0.01
v -0.015842 0.015842 0.0109755
v -0.0173927 0.0142738 0.01
v -0.0187081 0.0125003 0.01
v -0.0186282 0.012447 0.0109755
v -0.0173185 0.0142129 0.0109755
v -0.0198432 0.0106064 0.01
v -0.0207873 0.00861038 0.01
v -0.0206985 0.00857361 0.0109755
v -0.0215312 0.00653141 0.01
v -0.0220677 0.00438953 0.01
v -0.0214392 0.00650352 0.0109755
v -0.0223917 0.00220539 0.01
v -0.022296 0.00219597 0.0109755
v -0.0197585 0.0105611 0.0109755
v -0.0170985 0.0140324 0.0119134
v -0.0195076 0.010427 0.0119134
v -0.0183916 0.0122889 0.0119134
v -0.0219734 0.00437079 0.0109755
v -0.0216944 0.00431528 0.0119134
v -0.0220129 0.00216808 0.0119134
v -0.0225 -2.75546e-18 0.01
v -0.0224039 -2.74369e-18 0.0109755
v -0.0211669 0.00642092 0.0119134
v -0.0204357 0.00846473 0.0119134
v -0.0156408 0.0156408 0.0119134
v 1.32613e-18 0.0216573 0.0127779
v -0.00422514 0.0212412 0.0127779
v -0.00212279 0.0215531 0.0127779
v -0.00828791 0.0200088 0.0127779
v -0.0120322 0.0180074 0.0127779
v -0.0137393 0.0167414 0.0127779
v -0.0102092 0.0191001 0.0127779
v -0.0062868 0.0207248 0.0127779
v -0.00206184 0.0209342 0.0135355
v 1.28805e-18 0.0210355 0.0135355
v -0.00610629 0.0201298 0.0135355
v -0.00991608 0.0185517 0.0135355
v -0.0116867 0.0174904 0.0135355
v -0.00804995 0.0194343 0.0135355
v -0.00410383 0.0206313 0.0135355
v -0.0153141 0.0153141 0.0127779
v -0.0167414 0.0137393 0.0127779
v -0.0191001 0.0102092 0.0127779
v -0.0180074 0.0120322 0.0127779
v -0.0221194 -2.70885e-18 0.0119134
v -0.0220129 -0.00216808 0.0119134
v -0.0207248 0.0062868 0.0127779
v -0.0212412 0.00422514 0.0127779
v -0.0200088 0.00828791 0.0127779
v -0.0148744 0.0148744 0.0135355
v -0.0174904 0.0116867 0.0135355
v -0.0162607 0.0133448 0.0135355
v -0.0201298 0.00610629 0.0135355
v -0.0215531 0.00212279 0.0127779
v -0.0206313 0.00410383 0.0135355
v -0.0216573 -2.65226e-18 0.0127779
v -0.0194343 0.00804995 0.0135355
v -0.0185517 0.00991608 0.0135355
v -0.0210355 -2.57611e-18 0.0135355
v -0.0209342 0.00206184 0.0135355
v -0.0133448 0.0162607 0.0135355
v -0.0223917 -0.00220539 0.01
v 0.0190404 0.00378737 0.0146194
v 0.0179357 0.00742919 0.0146194
v 0.0185775 0.00563542 0.0146194
v 0.0161417 0.0107855 0.0146194
v 0.0137274 0.0137274 0.0146194
v 0.0150068 0.0123157 0.0146194
v 0.0171211 0.00915142 0.0146194
v 0.0193199 0.00190285 0.0146194
v 0.0181205 0.00360438 0.0149039
v 0.0170691 0.00707025 0.0149039
v 0.0176799 0.00536314 0.0149039
v 0.0142817 0.0117207 0.0149039
v 0.0130641 0.0130641 0.0149039
v 0.0123157 0.0150068 0.0146194
v 0.0153618 0.0102644 0.0149039
v 0.0162939 0.00870927 0.0149039
v 0.0183865 0.00181091 0.0149039
v 0.0193199 -0.00190285 0.0146194
v 0.00915142 0.0171211 0.0146194
v 0.00563542 0.0185775 0.0146194
v 0.00742919 0.0179357 0.0146194
v 1.24166e-18 0.0202779 0.0141573
v 0.00198758 0.0201802 0.0141573
v -0.00198758 0.0201802 0.0141573
v 0.00190285 0.0193199 0.0146194
v 0.00378737 0.0190404 0.0146194
v 0.0107855 0.0161417 0.0146194
v 0.0102644 0.0153618 0.0149039
v 0.00707025 0.0170691 0.0149039
v 0.00870927 0.0162939 0.0149039
v 1.18873e-18 0.0194134 0.0146194
v 0.00360438 0.0181205 0.0149039
v 0.00181091 0.0183865 0.0149039
v -0.00190285 0.0193199 0.0146194
v 0.00536314 0.0176799 0.0149039
v -0.00395601 0.0198882 0.0141573
v 0.0117207 0.0142817 0.0149039
v 0.0174157 0.0017153 0.015
v 0.0167465 0.00507998 0.015
v 0.0154336 0.00824944 0.015
v 0.0135277 0.0111019 0.015
v 0.0123744 0.0123744 0.015
v 0.0145507 0.00972248 0.015
v 0.0161679 0.00669696 0.015
v 0.0175 -4.28626e-18 0.015
v 0.0171637 0.00341408 0.015
v 0.0111019 0.0135277 0.015
v 0.0183865 -0.00181091 0.0149039
v 0.00824944 0.0154336 0.015
v 0.00507998 0.0167465 0.015
v -0.00181091 0.0183865 0.0149039
v 0.0017153 0.0174157 0.015
v 1.1313e-18 0.0184755 0.0149039
v 0.00341408 0.0171637 0.015
v 0.00972248 0.0145507 0.015
v 0.00669696 0.0161679 0.015
v -1.07157e-18 0.0175 0.015
v -0.0017153 0.0174157 0.015
v -0.00378737 0.0190404 0.0146194
v -0.00360438 0.0181205 0.0149039
v 0.0201802 -0.00198758 0.0141573
v -0.00588635 0.0194047 0.0141573
v -0.00563542 0.0185775 0.0146194
v -0.00776 0.0187343 0.0141573
v -0.0112658 0.0168604 0.0141573
v -0.00955891 0.0178835 0.0141573
v -0.0128641 0.015675 0.0141573
v -0.00742919 0.0179357 0.0146194
v -0.00707025 0.0170691 0.0149039
v -0.00915142 0.0171211 0.0146194
v -0.00536314 0.0176799 0.0149039
v -0.0107855 0.0161417 0.0146194
v -0.0123157 0.0150068 0.0146194
v -0.0102644 0.0153618 0.0149039
v -0.00870927 0.0162939 0.0149039
v -0.0143386 0.0143386 0.0141573
v -0.015675 0.0128641 0.0141573
v -0.0168604 0.0112658 0.0141573
v -0.0137274 0.0137274 0.0146194
v -0.0178835 0.00955891 0.0141573
v -0.0194047 0.00588635 0.0141573
v -0.0198882 0.00395601 0.0141573
v -0.0187343 0.00776 0.0141573
v -0.0201802 0.00198758 0.0141573
v -0.0150068 0.0123157 0.0146194
v -0.0130641 0.0130641 0.0149039
v -0.0161417 0.0107855 0.0146194
v -0.0171211 0.00915142 0.0146194
v -0.0185775 0.00563542 0.0146194
v -0.0190404 0.00378737 0.0146194
v -0.0179357 0.00742919 0.0146194
v -0.0193199 0.00190285 0.0146194
v -0.0202779 -2.48332e-18 0.0141573
v -0.0117207 0.0142817 0.0149039
v -0.00507998 0.0167465 0.015
v -0.00669696 0.0161679 0.015
v -0.0123744 0.0123744 0.015
v -0.0142817 0.0117207 0.0149039
v -0.0135277 0.0111019 0.015
v -0.0153618 0.0102644 0.0149039
v -0.00972248 0.0145507 0.015
v -0.00824944 0.0154336 0.015
v -0.00341408 0.0171637 0.015
v -0.0111019 0.0135277 0.015
v -0.0162939 0.00870927 0.0149039
v -0.0145507 0.00972248 0.015
v -0.0170691 0.00707025 0.0149039
v -0.0176799 0.00536314 0.0149039
v -0.0181205 0.00360438 0.0149039
v -0.0183865 0.00181091 0.0149039
v -0.0154336 0.00824944 0.015
v -0.0161679 0.00669696 0.015
v -0.0167465 0.00507998 0.015
v -0.0171637 0.00341408 0.015
v -0.0174157 0.0017153 0.015
v -0.0184755 -2.26259e-18 0.0149039
v -0.0194134 -2.37746e-18 0.0146194
v -0.0220677 -0.00438953 0.01
v -0.022296 -0.00219597 0.0109755
v -0.0219734 -0.00437079 0.0109755
v -0.0216944 -0.00431528 0.0119134
v -0.0215312 -0.00653141 0.01
v -0.0214392 -0.00650352 0.0109755
v -0.0206985 -0.00857361 0.0109755
v -0.0207873 -0.00861038 0.01
v -0.0198432 -0.0106064 0.01
v -0.0197585 -0.0105611 0.0109755
v -0.0187081 -0.0125003 0.01
v -0.0211669 -0.00642092 0.0119134
v -0.0207248 -0.0062868 0.0127779
v -0.0204357 -0.00846473 0.0119134
v -0.0212412 -0.00422514 0.0127779
v -0.0195076 -0.010427 0.0119134
v -0.0186282 -0.012447 0.0109755
v -0.0183916 -0.0122889 0.0119134
v -0.0191001 -0.0102092 0.0127779
v -0.0200088 -0.00828791 0.0127779
v -0.0173927 -0.0142738 0.01
v -0.0159099 -0.0159099 0.01
v -0.015842 -0.015842 0.0109755
v -0.0142738 -0.0173927 0.01
v -0.0142129 -0.0173185 0.0109755
v -0.0173185 -0.0142129 0.0109755
v -0.0170985 -0.0140324 0.0119134
v -0.012447 -0.0186282 0.0109755
v -0.0125003 -0.0187081 0.01
v -0.0105611 -0.0197585 0.0109755
v -0.0106064 -0.0198432 0.01
v -0.00861038 -0.0207873 0.01
v -0.00857361 -0.0206985 0.0109755
v -0.00653141 -0.0215312 0.01
v -0.00437079 -0.0219734 0.0109755
v -0.00438953 -0.0220677 0.01
v -0.0156408 -0.0156408 0.0119134
v -0.0167414 -0.0137393 0.0127779
v -0.0140324 -0.0170985 0.0119134
v -0.0122889 -0.0183916 0.0119134
v -0.00846473 -0.0204357 0.0119134
v -0.00650352 -0.0214392 0.0109755
v -0.00642092 -0.0211669 0.0119134
v -0.010427 -0.0195076 0.0119134
v -0.00431528 -0.0216944 0.0119134
v -0.00220539 -0.0223917 0.01
v -0.00219597 -0.022296 0.0109755
v -0.0180074 -0.0120322 0.0127779
v -0.0215531 -0.00212279 0.0127779
v -0.0201298 -0.00610629 0.0135355
v -0.0206313 -0.00410383 0.0135355
v -0.0174904 -0.0116867 0.0135355
v -0.0162607 -0.0133448 0.0135355
v -0.0153141 -0.0153141 0.0127779
v -0.0185517 -0.00991608 0.0135355
v -0.0194343 -0.00804995 0.0135355
v -0.0209342 -0.00206184 0.0135355
v -0.0194047 -0.00588635 0.0141573
v -0.0198882 -0.00395601 0.0141573
v -0.0168604 -0.0112658 0.0141573
v -0.015675 -0.0128641 0.0141573
v -0.0148744 -0.0148744 0.0135355
v -0.0178835 -0.00955891 0.0141573
v -0.0187343 -0.00776 0.0141573
v -0.0137393 -0.0167414 0.0127779
v -0.0120322 -0.0180074 0.0127779
v -0.0116867 -0.0174904 0.0135355
v -0.0102092 -0.0191001 0.0127779
v -0.0133448 -0.0162607 0.0135355
v -0.00828791 -0.0200088 0.0127779
v -0.0062868 -0.0207248 0.0127779
v -0.00422514 -0.0212412 0.0127779
v -0.00991608 -0.0185517 0.0135355
v -0.0128641 -0.015675 0.0141573
v -0.00955891 -0.0178835 0.0141573
v -0.0112658 -0.0168604 0.0141573
v -0.00610629 -0.0201298 0.0135355
v -0.00804995 -0.0194343 0.0135355
v -0.00410383 -0.0206313 0.0135355
v -0.00588635 -0.0194047 0.0141573
v -0.00776 -0.0187343 0.0141573
v -0.00216808 -0.0220129 0.0119134
v -0.00212279 -0.0215531 0.0127779
v -0.0143386 -0.0143386 0.0141573
v -1.37773e-18 -0.0225 0.01
v -4.11553e-18 -0.0224039 0.0109755
v 0.00220539 -0.0223917 0.01
v 0.00438953 -0.0220677 0.01
v 0.00219597 -0.022296 0.0109755
v 0.00653141 -0.0215312 0.01
v 0.00861038 -0.0207873 0.01
v 0.00857361 -0.0206985 0.0109755
v 0.0106064 -0.0198432 0.01
v 0.0125003 -0.0187081 0.01
v 0.012447 -0.0186282 0.0109755
v 0.0105611 -0.0197585 0.0109755
v 0.00437079 -0.0219734 0.0109755
v -4.06327e-18 -0.0221194 0.0119134
v 0.00216808 -0.0220129 0.0119134
v 0.00431528 -0.0216944 0.0119134
v 0.00650352 -0.0214392 0.0109755
v 0.00846473 -0.0204357 0.0119134
v 0.010427 -0.0195076 0.0119134
v 0.00642092 -0.0211669 0.0119134
v 0.0122889 -0.0183916 0.0119134
v 0.0142738 -0.0173927 0.01
v 0.0159099 -0.0159099 0.01
v 0.0142129 -0.0173185 0.0109755
v 0.0173927 -0.0142738 0.01
v 0.0187081 -0.0125003 0.01
v 0.0186282 -0.012447 0.0109755
v 0.0173185 -0.0142129 0.0109755
v 0.0198432 -0.0106064 0.01
v 0.0207873 -0.00861038 0.01
v 0.0197585 -0.0105611 0.0109755
v 0.0215312 -0.00653141 0.01
v 0.0220677 -0.00438953 0.01
v 0.0219734 -0.00437079 0.0109755
v 0.0223917 -0.00220539 0.01
v 0.0206985 -0.00857361 0.0109755
v 0.0140324 -0.0170985 0.0119134
v 0.015842 -0.015842 0.0109755
v 0.0170985 -0.0140324 0.0119134
v 0.0156408 -0.0156408 0.0119134
v 0.0195076 -0.010427 0.0119134
v 0.0211669 -0.00642092 0.0119134
v 0.0214392 -0.00650352 0.0109755
v 0.0216944 -0.00431528 0.0119134
v 0.0204357 -0.00846473 0.0119134
v 0.0183916 -0.0122889 0.0119134
v 0.00212279 -0.0215531 0.0127779
v -3.97839e-18 -0.0216573 0.0127779
v -3.86416e-18 -0.0210355 0.0135355
v -0.00206184 -0.0209342 0.0135355
v 0.00422514 -0.0212412 0.0127779
v 0.00828791 -0.0200088 0.0127779
v 0.0102092 -0.0191001 0.0127779
v 0.0062868 -0.0207248 0.0127779
v 0.0120322 -0.0180074 0.0127779
v 0.00206184 -0.0209342 0.0135355
v -3.72498e-18 -0.0202779 0.0141573
v -0.00198758 -0.0201802 0.0141573
v 0.00410383 -0.0206313 0.0135355
v 0.00804995 -0.0194343 0.0135355
v 0.00991608 -0.0185517 0.0135355
v 0.00610629 -0.0201298 0.0135355
v 0.0116867 -0.0174904 0.0135355
v 0.0137393 -0.0167414 0.0127779
v 0.0153141 -0.0153141 0.0127779
v 0.0180074 -0.0120322 0.0127779
v 0.0167414 -0.0137393 0.0127779
v 0.0200088 -0.00828791 0.0127779
v 0.0212412 -0.00422514 0.0127779
v 0.0207248 -0.0062868 0.0127779
v 0.0191001 -0.0102092 0.0127779
v 0.0133448 -0.0162607 0.0135355
v 0.0162607 -0.0133448 0.0135355
v 0.0148744 -0.0148744 0.0135355
v 0.0185517 -0.00991608 0.0135355
v 0.0201298 -0.00610629 0.0135355
v 0.0206313 -0.00410383 0.0135355
v 0.0194343 -0.00804995 0.0135355
v 0.0174904 -0.0116867 0.0135355
v -0.00395601 -0.0198882 0.0141573
v -0.0201802 -0.00198758 0.0141573
v -0.0190404 -0.00378737 0.0146194
v -0.0179357 -0.00742919 0.0146194
v -0.0185775 -0.00563542 0.0146194
v -0.0161417 -0.0107855 0.0146194
v -0.0137274 -0.0137274 0.0146194
v -0.0150068 -0.0123157 0.0146194
v -0.0171211 -0.00915142 0.0146194
v -0.0193199 -0.00190285 0.0146194
v -0.0181205 -0.00360438 0.0149039
v -0.0170691 -0.00707025 0.0149039
v -0.0153618 -0.0102644 0.0149039
v -0.0142817 -0.0117207 0.0149039
v -0.0162939 -0.00870927 0.0149039
v -0.0176799 -0.00536314 0.0149039
v -0.0107855 -0.0161417 0.0146194
v -0.00742919 -0.0179357 0.0146194
v -0.00915142 -0.0171211 0.0146194
v -0.00190285 -0.0193199 0.0146194
v -3.56619e-18 -0.0194134 0.0146194
v 0.00198758 -0.0201802 0.0141573
v -0.00378737 -0.0190404 0.0146194
v -0.00563542 -0.0185775 0.0146194
v -0.0123157 -0.0150068 0.0146194
v -0.0117207 -0.0142817 0.0149039
v -0.00870927 -0.0162939 0.0149039
v -0.0102644 -0.0153618 0.0149039
v -0.00360438 -0.0181205 0.0149039
v -0.00181091 -0.0183865 0.0149039
v 0.00190285 -0.0193199 0.0146194
v -0.00536314 -0.0176799 0.0149039
v -0.00707025 -0.0170691 0.0149039
v 0.00395601 -0.0198882 0.0141573
v -0.0130641 -0.0130641 0.0149039
v -0.0183865 -0.00181091 0.0149039
v -0.0174157 -0.0017153 0.015
v -0.0167465 -0.00507998 0.015
v -0.0171637 -0.00341408 0.015
v -0.0154336 -0.00824944 0.015
v -0.0135277 -0.0111019 0.015
v -0.0123744 -0.0123744 0.015
v -0.0145507 -0.00972248 0.015
v -0.0161679 -0.00669696 0.015
v -0.0175 -2.14313e-18 0.015
v -0.0111019 -0.0135277 0.015
v -0.00972248 -0.0145507 0.015
v -0.00669696 -0.0161679 0.015
v -0.00824944 -0.0154336 0.015
v -3.39389e-18 -0.0184755 0.0149039
v -0.00507998 -0.0167465 0.015
v -0.0017153 -0.0174157 0.015
v 0.00181091 -0.0183865 0.0149039
v -0.00341408 -0.0171637 0.015
v 3.2147e-18 -0.0175 0.015
v 0.0017153 -0.0174157 0.015
v 0.00378737 -0.0190404 0.0146194
v 0.00588635 -0.0194047 0.0141573
v 0.00563542 -0.0185775 0.0146194
v 0.00776 -0.0187343 0.0141573
v 0.00955891 -0.0178835 0.0141573
v 0.0112658 -0.0168604 0.0141573
v 0.0128641 -0.015675 0.0141573
v 0.00742919 -0.0179357 0.0146194
v 0.00915142 -0.0171211 0.0146194
v 0.00707025 -0.0170691 0.0149039
v 0.00536314 -0.0176799 0.0149039
v 0.0123157 -0.0150068 0.0146194
v 0.0107855 -0.0161417 0.0146194
v 0.0102644 -0.0153618 0.0149039
v 0.0117207 -0.0142817 0.0149039
v 0.0143386 -0.0143386 0.0141573
v 0.0137274 -0.0137274 0.0146194
v 0.00870927 -0.0162939 0.0149039
v 0.00360438 -0.0181205 0.0149039
v 0.015675 -0.0128641 0.0141573
v 0.0168604 -0.0112658 0.0141573
v 0.0178835 -0.00955891 0.0141573
v 0.0194047 -0.00588635 0.0141573
v 0.0198882 -0.00395601 0.0141573
v 0.0187343 -0.00776 0.0141573
v 0.0161417 -0.0107855 0.0146194
v 0.0150068 -0.0123157 0.0146194
v 0.0142817 -0.0117207 0.0149039
v 0.0171211 -0.00915142 0.0146194
v 0.0185775 -0.00563542 0.0146194
v 0.0190404 -0.00378737 0.0146194
v 0.0179357 -0.00742919 0.0146194
v 0.0130641 -0.0130641 0.0149039
v 0.00669696 -0.0161679 0.015
v 0.00507998 -0.0167465 0.015
v 0.00824944 -0.0154336 0.015
v 0.0123744 -0.0123744 0.015
v 0.0111019 -0.0135277 0.015
v 0.00341408 -0.0171637 0.015
v 0.00972248 -0.0145507 0.015
v 0.0135277 -0.0111019 0.015
v 0.0153618 -0.0102644 0.0149039
v 0.0145507 -0.00972248 0.015
v 0.0162939 -0.00870927 0.0149039
v 0.0154336 -0.00824944 0.015
v 0.0170691 -0.00707025 0.0149039
v 0.0176799 -0.00536314 0.0149039
v 0.0181205 -0.00360438 0.0149039
v 0.0161679 -0.00669696 0.015
v 0.0167465 -0.00507998 0.015
v 0.0174157 -0.0017153 0.015
v 0.0171637 -0.00341408 0.015
v 0.0103934 0.00694463 0.01
v 0.011024 0.00589246 0.01
v 0.0115485 0.00478354 0.01
v 0.00883883 0.00883883 0.01
v 0.00792992 0.00966263 0.01
v 0.0122598 0.00243863 0.01
v 0.0124398 0.00122521 0.01
v 0.0125 -3.06162e-18 0.01
v 0.0119618 0.00362856 0.01
v 0.00589246 0.011024 0.01
v 0.00243863 0.0122598 0.01
v 0.00362856 0.0119618 0.01
v 0.00478354 0.0115485 0.01
v 0.00122521 0.0124398 0.01
v 7.65404e-19 0.0125 0.01
v 0.00966263 0.00792992 0.01
v 0.00694463 0.0103934 0.01
v 0.0124398 -0.00122521 0.01
v 0.0122598 -0.00243863 0.01
v 0.0119618 -0.00362856 0.01
v 0.0115485 -0.00478354 0.01
v 0.011024 -0.00589246 0.01
v 0.00966263 -0.00792992 0.01
v 0.00792992 -0.00966263 0.01
v 0.0103934 -0.00694463 0.01
v 0.00883883 -0.00883883 0.01
v 0.00694463 -0.0103934 0.01
v 0.00478354 -0.0115485 0.01
v 0.00589246 -0.011024 0.01
v 0.00243863 -0.0122598 0.01
v 0.00122521 -0.0124398 0.01
v 0.00362856 -0.0119618 0.01
v -0.00122521 0.0124398 0.01
v -0.00243863 0.0122598 0.01
v -0.00362856 0.0119618 0.01
v -0.00478354 0.0115485 0.01
v -0.00589246 0.011024 0.01
v -0.00694463 0.0103934 0.01
v -0.00792992 0.00966263 0.01
v -0.00883883 0.00883883 0.01
v -0.00966263 0.00792992 0.01
v -0.0103934 0.00694463 0.01
v -0.011024 0.00589246 0.01
v -0.0115485 0.00478354 0.01
v -0.0119618 0.00362856 0.01
v -0.0122598 0.00243863 0.01
v -0.0124398 0.00122521 0.01
v -0.0124398 -0.00122521 0.01
v -0.0125 -1.53081e-18 0.01
v -0.00589246 -0.011024 0.01
v -0.00478354 -0.0115485 0.01
v -0.00362856 -0.0119618 0.01
v -0.00966263 -0.00792992 0.01
v -0.00883883 -0.00883883 0.01
v -0.00792992 -0.00966263 0.01
v -0.00694463 -0.0103934 0.01
v -0.00122521 -0.0124398 0.01
v -2.29621e-18 -0.0125 0.01
v -0.00243863 -0.0122598 0.01
v -0.0103934 -0.00694463 0.01
v -0.0122598 -0.00243863 0.01
v -0.0119618 -0.00362856 0.01
v -0.0115485 -0.00478354 0.01
v -0.011024 -0.00589246 0.01
f 1 2 3
f 3 4 1
f 5 6 2
f 3 2 6
f 7 6 5
f 5 8 7
f 7 8 1
f 1 4 7
f 5 2 1
f 1 8 5
f 9 10 4
f 11 4 10
f 4 11 12
f 12 13 4
f 4 14 15
f 4 16 9
f 16 4 15
f 3 14 4
f 4 17 18
f 4 19 20
f 19 4 18
f 4 13 21
f 4 22 23
f 4 23 24
f 22 4 21
f 4 24 17
f 20 25 4
f 3 26 27
f 3 28 29
f 3 29 26
f 30 31 3
f 28 3 31
f 3 32 30
f 33 32 3
f 14 3 27
f 3 34 33
f 3 35 36
f 3 36 34
f 3 37 38
f 3 39 40
f 3 40 41
f 3 41 37
f 3 38 35
f 6 39 3
f 7 25 42
f 7 43 44
f 43 7 42
f 7 45 46
f 7 47 48
f 47 7 46
f 45 7 44
f 7 49 50
f 51 7 52
f 50 52 7
f 7 48 49
f 7 51 53
f 7 54 55
f 7 55 56
f 54 7 53
f 56 57 7
f 7 4 25
f 6 58 59
f 6 60 61
f 6 61 58
f 6 62 63
f 6 64 65
f 6 65 62
f 64 6 59
f 6 66 67
f 6 57 68
f 6 68 66
f 6 69 70
f 6 71 72
f 67 71 6
f 69 6 72
f 60 6 70
f 6 7 57
f 39 6 63
f 73 74 75
f 75 76 77
f 76 75 74
f 74 78 76
f 75 79 80
f 78 81 76
f 82 81 83
f 76 81 82
f 84 83 85
f 75 77 79
f 76 82 86
f 77 86 87
f 77 76 86
f 84 88 82
f 79 77 89
f 84 90 91
f 90 84 85
f 84 91 88
f 90 92 93
f 90 93 91
f 88 91 94
f 90 85 92
f 88 86 82
f 82 83 84
f 86 88 95
f 85 96 92
f 97 98 79
f 99 100 92
f 101 102 103
f 99 101 100
f 104 105 106
f 107 108 109
f 108 110 109
f 105 107 111
f 102 104 112
f 92 113 93
f 103 100 101
f 112 114 103
f 100 103 115
f 103 102 112
f 92 100 113
f 116 112 117
f 106 117 104
f 118 106 111
f 109 111 107
f 119 109 110
f 120 111 109
f 106 105 111
f 121 117 106
f 112 104 117
f 122 109 119
f 110 123 119
f 92 96 99
f 91 93 124
f 97 89 125
f 97 79 89
f 87 95 126
f 87 86 95
f 77 87 89
f 89 87 127
f 115 128 113
f 115 113 100
f 94 124 129
f 94 91 124
f 124 93 130
f 124 130 131
f 128 130 113
f 94 95 88
f 130 93 113
f 95 94 132
f 133 125 134
f 133 97 125
f 127 126 135
f 127 87 126
f 89 127 125
f 125 127 136
f 94 129 132
f 132 126 95
f 129 131 137
f 129 124 131
f 131 130 138
f 131 138 139
f 140 141 128
f 132 129 142
f 130 128 138
f 126 132 143
f 114 140 115
f 97 133 144
f 114 116 145
f 116 114 112
f 140 145 146
f 145 140 114
f 121 147 116
f 140 128 115
f 118 148 121
f 118 121 106
f 120 149 118
f 148 147 121
f 122 120 109
f 150 120 122
f 118 111 120
f 147 145 116
f 116 117 121
f 145 147 151
f 140 146 141
f 148 152 147
f 146 151 153
f 146 145 151
f 152 151 147
f 141 146 154
f 149 150 155
f 150 149 120
f 152 156 157
f 152 148 156
f 155 156 149
f 156 155 158
f 159 160 150
f 156 148 149
f 148 118 149
f 151 152 161
f 162 159 122
f 141 138 128
f 115 103 114
f 138 141 163
f 164 162 119
f 165 166 133
f 123 167 164
f 168 169 170
f 167 168 171
f 172 173 174
f 175 176 177
f 173 175 177
f 169 172 178
f 164 171 179
f 171 164 167
f 170 178 180
f 178 170 169
f 171 168 170
f 171 170 181
f 174 182 183
f 182 174 173
f 177 184 185
f 184 177 176
f 186 184 176
f 184 186 187
f 182 173 177
f 182 177 188
f 178 172 174
f 178 174 189
f 176 190 186
f 123 164 119
f 190 191 192
f 193 194 195
f 191 193 196
f 197 198 199
f 200 201 202
f 201 203 204
f 198 200 202
f 194 197 205
f 192 196 206
f 192 191 196
f 195 205 207
f 195 194 205
f 193 195 196
f 196 195 208
f 198 202 199
f 199 205 197
f 202 209 210
f 202 201 209
f 209 201 204
f 209 204 211
f 203 212 213
f 199 202 214
f 204 203 213
f 205 199 215
f 190 192 186
f 186 192 216
f 162 179 217
f 162 164 179
f 181 180 218
f 181 170 180
f 171 181 179
f 179 181 219
f 189 183 220
f 189 174 183
f 188 185 221
f 188 177 185
f 185 184 187
f 185 187 222
f 182 188 183
f 183 188 223
f 178 189 180
f 180 189 224
f 150 160 155
f 217 159 162
f 225 217 219
f 218 219 181
f 217 179 219
f 226 159 217
f 227 218 224
f 220 224 189
f 228 220 223
f 221 223 188
f 222 221 185
f 229 223 221
f 220 183 223
f 230 224 220
f 218 180 224
f 231 219 218
f 216 232 187
f 159 150 122
f 216 206 233
f 216 192 206
f 208 207 234
f 208 195 207
f 196 208 206
f 206 208 235
f 209 211 210
f 236 213 237
f 215 214 238
f 215 199 214
f 214 202 210
f 214 210 239
f 213 236 211
f 215 207 205
f 187 186 216
f 207 215 240
f 241 222 232
f 232 216 233
f 242 233 235
f 235 208 234
f 206 235 233
f 243 232 233
f 215 238 240
f 240 234 207
f 244 240 238
f 238 214 239
f 239 210 245
f 246 238 239
f 245 211 247
f 248 234 240
f 210 211 245
f 249 235 234
f 245 250 251
f 232 222 187
f 204 213 211
f 252 221 222
f 212 253 213
f 162 122 119
f 251 239 245
f 165 134 254
f 165 133 134
f 136 135 255
f 136 127 135
f 125 136 134
f 134 136 256
f 143 142 257
f 143 132 142
f 137 139 258
f 137 131 139
f 129 137 142
f 142 137 259
f 126 143 135
f 135 143 260
f 261 254 262
f 261 165 254
f 256 255 263
f 256 136 255
f 134 256 254
f 254 256 264
f 143 257 260
f 260 255 135
f 257 259 265
f 257 142 259
f 259 137 258
f 259 258 266
f 267 258 139
f 260 257 268
f 163 267 139
f 255 260 269
f 138 163 139
f 270 271 261
f 154 153 272
f 154 146 153
f 161 157 273
f 161 152 157
f 151 161 153
f 153 161 274
f 226 275 160
f 226 160 159
f 276 158 155
f 276 160 275
f 277 226 225
f 158 276 278
f 226 217 225
f 158 157 156
f 163 141 154
f 157 158 279
f 267 280 281
f 163 280 267
f 272 274 282
f 272 153 274
f 154 272 280
f 280 272 283
f 276 284 278
f 277 275 226
f 273 279 285
f 273 157 279
f 279 158 278
f 279 278 286
f 275 277 287
f 273 274 161
f 276 275 284
f 274 273 288
f 231 289 225
f 280 163 154
f 160 276 155
f 258 267 290
f 270 262 291
f 270 261 262
f 264 263 292
f 264 256 263
f 254 264 262
f 262 264 292
f 269 268 293
f 269 260 268
f 265 266 294
f 265 259 266
f 266 258 290
f 266 290 295
f 257 265 268
f 268 265 296
f 255 269 263
f 263 269 297
f 298 270 291
f 299 262 292
f 262 299 291
f 269 293 297
f 297 292 263
f 294 296 265
f 266 295 294
f 296 293 268
f 290 300 295
f 301 270 298
f 281 283 302
f 281 280 283
f 282 288 303
f 282 274 288
f 272 282 283
f 283 282 302
f 287 304 284
f 287 284 275
f 285 286 305
f 285 279 286
f 286 278 306
f 286 306 305
f 304 306 284
f 285 288 273
f 290 267 281
f 288 285 307
f 281 302 308
f 308 300 281
f 282 309 302
f 306 310 305
f 305 307 285
f 307 303 288
f 304 311 310
f 303 309 282
f 306 304 310
f 312 313 287
f 281 300 290
f 306 278 284
f 289 312 277
f 165 261 314
f 231 227 315
f 227 231 218
f 289 315 316
f 315 289 231
f 230 317 227
f 287 277 312
f 227 317 315
f 228 230 220
f 318 228 229
f 252 229 221
f 228 223 229
f 319 230 228
f 227 224 230
f 320 229 252
f 289 316 312
f 315 317 321
f 316 321 322
f 316 315 321
f 319 323 317
f 312 316 324
f 319 318 325
f 318 319 228
f 319 325 323
f 318 320 326
f 318 326 325
f 323 325 327
f 318 229 320
f 323 321 317
f 317 230 319
f 321 323 328
f 241 329 252
f 304 287 313
f 243 330 241
f 243 241 232
f 242 331 243
f 330 329 241
f 243 233 242
f 332 320 329
f 333 242 249
f 248 249 234
f 334 248 244
f 246 244 238
f 251 246 239
f 335 244 246
f 248 240 244
f 336 249 248
f 242 235 249
f 337 246 251
f 329 338 332
f 331 330 243
f 326 332 339
f 320 332 326
f 340 330 331
f 329 330 338
f 341 331 333
f 336 333 249
f 342 336 334
f 335 334 244
f 337 335 246
f 343 334 335
f 336 248 334
f 344 333 336
f 331 242 333
f 345 335 337
f 251 346 337
f 320 252 329
f 252 222 241
f 325 326 347
f 313 324 348
f 313 312 324
f 322 328 349
f 322 321 328
f 316 322 324
f 324 322 348
f 325 347 327
f 327 328 323
f 347 339 350
f 347 326 339
f 339 332 351
f 339 351 352
f 340 353 338
f 327 347 354
f 332 338 351
f 328 327 355
f 313 356 311
f 313 348 356
f 322 349 348
f 354 347 357
f 357 347 350
f 339 352 350
f 355 349 328
f 355 327 354
f 351 353 352
f 311 304 313
f 340 341 358
f 341 340 331
f 353 358 359
f 358 353 340
f 344 360 341
f 353 351 338
f 342 361 344
f 342 344 336
f 343 362 342
f 361 360 344
f 345 343 335
f 363 343 345
f 342 334 343
f 360 358 341
f 341 333 344
f 358 360 364
f 360 365 364
f 364 359 358
f 366 365 360
f 361 366 360
f 362 363 367
f 363 362 343
f 366 361 367
f 368 367 363
f 363 345 369
f 367 361 362
f 361 342 362
f 345 337 370
f 353 359 352
f 338 330 340
f 368 363 369
f 277 225 289
f 225 219 231
f 236 247 211
f 75 80 73
f 253 371 372
f 372 373 374
f 373 372 371
f 371 375 373
f 372 237 213
f 373 375 376
f 377 378 379
f 377 375 378
f 380 379 381
f 372 374 237
f 373 376 382
f 374 382 383
f 374 373 382
f 377 384 376
f 237 374 385
f 377 380 386
f 380 377 379
f 377 386 384
f 380 387 388
f 380 388 386
f 384 386 389
f 380 381 387
f 384 382 376
f 376 375 377
f 382 384 390
f 381 391 387
f 236 237 247
f 392 393 391
f 394 395 392
f 393 396 391
f 397 387 396
f 398 394 399
f 400 401 402
f 403 402 404
f 400 399 401
f 405 404 406
f 396 407 397
f 395 393 392
f 388 397 408
f 387 397 388
f 409 393 395
f 396 393 407
f 410 395 398
f 400 398 399
f 411 400 403
f 412 403 404
f 405 412 404
f 413 403 412
f 400 402 403
f 414 398 400
f 395 394 398
f 415 412 405
f 416 417 406
f 396 387 391
f 386 388 418
f 247 419 250
f 419 237 385
f 385 383 420
f 383 385 374
f 419 247 237
f 419 385 421
f 384 389 390
f 390 383 382
f 389 418 422
f 389 386 418
f 418 388 408
f 418 408 423
f 424 408 397
f 390 389 425
f 407 424 397
f 383 390 426
f 250 427 346
f 427 419 421
f 421 420 428
f 420 421 385
f 427 250 419
f 427 421 429
f 390 425 426
f 426 420 383
f 425 422 430
f 425 389 422
f 422 418 423
f 422 423 431
f 432 423 408
f 426 425 433
f 424 432 408
f 420 426 434
f 409 435 407
f 247 250 245
f 409 410 436
f 410 409 395
f 435 436 437
f 436 435 409
f 414 438 410
f 439 424 435
f 411 440 414
f 411 414 400
f 413 441 411
f 440 438 414
f 415 413 412
f 442 413 415
f 411 403 413
f 438 436 410
f 410 398 414
f 436 438 443
f 432 439 444
f 424 439 432
f 437 443 445
f 437 436 443
f 435 437 439
f 439 437 446
f 440 441 447
f 441 440 411
f 440 447 448
f 441 442 449
f 441 449 447
f 448 447 450
f 441 413 442
f 448 443 438
f 438 440 448
f 443 448 451
f 452 453 415
f 424 407 435
f 407 393 409
f 423 432 454
f 417 452 405
f 372 213 253
f 416 455 456
f 457 458 459
f 455 457 459
f 460 461 462
f 463 464 465
f 461 463 466
f 458 460 467
f 456 468 417
f 456 417 416
f 459 469 456
f 468 452 417
f 456 455 459
f 442 415 453
f 470 459 467
f 471 467 460
f 472 471 462
f 466 462 461
f 465 466 463
f 473 462 466
f 471 460 462
f 474 467 471
f 459 458 467
f 465 475 466
f 464 476 465
f 415 405 452
f 476 477 478
f 479 480 481
f 477 479 482
f 483 484 485
f 486 487 488
f 487 489 488
f 484 486 490
f 480 483 485
f 491 465 478
f 492 478 477
f 493 492 482
f 481 482 479
f 492 477 482
f 494 478 492
f 495 481 485
f 490 485 484
f 496 490 497
f 488 497 486
f 80 488 489
f 498 497 488
f 490 486 497
f 499 485 490
f 481 480 485
f 500 482 481
f 476 478 465
f 98 488 80
f 469 501 468
f 469 468 456
f 453 502 503
f 453 452 502
f 468 501 502
f 442 453 504
f 505 469 470
f 474 470 467
f 506 474 472
f 473 472 462
f 475 473 466
f 507 472 473
f 474 471 472
f 508 470 474
f 469 459 470
f 509 473 475
f 504 449 442
f 501 510 502
f 504 503 511
f 504 453 503
f 502 510 503
f 449 504 512
f 513 501 505
f 508 505 470
f 514 508 506
f 507 506 472
f 509 507 473
f 515 506 507
f 508 474 506
f 516 505 508
f 501 469 505
f 509 517 507
f 491 518 475
f 452 468 502
f 491 494 519
f 494 491 478
f 493 500 520
f 500 493 482
f 494 492 493
f 494 493 521
f 495 499 522
f 499 495 485
f 496 498 523
f 498 496 497
f 98 498 488
f 498 98 144
f 499 490 496
f 499 496 524
f 500 481 495
f 500 495 525
f 526 509 518
f 519 518 491
f 527 519 521
f 520 521 493
f 519 494 521
f 528 518 519
f 529 520 525
f 522 525 495
f 530 522 524
f 523 524 496
f 144 523 498
f 531 524 523
f 522 499 524
f 532 525 522
f 520 500 525
f 533 521 520
f 98 97 144
f 518 509 475
f 475 465 491
f 166 523 144
f 79 98 80
f 405 406 417
f 447 449 534
f 535 429 536
f 535 427 429
f 428 434 537
f 428 420 434
f 421 428 429
f 429 428 538
f 433 430 539
f 433 425 430
f 454 540 431
f 431 423 454
f 422 431 430
f 430 431 541
f 426 433 434
f 434 433 542
f 346 370 337
f 346 535 370
f 543 536 544
f 370 535 543
f 536 543 535
f 370 543 369
f 538 537 545
f 536 429 538
f 542 539 546
f 537 434 542
f 542 433 539
f 539 541 547
f 428 537 538
f 537 542 548
f 430 541 539
f 536 538 549
f 540 541 431
f 346 427 535
f 444 446 550
f 444 439 446
f 445 451 551
f 445 443 451
f 437 445 446
f 446 445 552
f 447 534 450
f 450 451 448
f 534 512 553
f 534 449 512
f 512 504 511
f 511 554 512
f 555 511 503
f 450 534 556
f 454 432 444
f 451 450 557
f 540 558 559
f 454 558 540
f 550 552 560
f 550 446 552
f 444 550 558
f 558 550 561
f 451 557 551
f 551 552 445
f 557 556 562
f 557 450 556
f 556 534 553
f 556 553 563
f 511 555 564
f 551 557 565
f 512 554 553
f 552 551 566
f 513 567 510
f 558 454 444
f 510 555 503
f 541 540 568
f 369 569 570
f 369 543 569
f 544 549 571
f 544 536 549
f 543 544 569
f 569 544 572
f 545 548 573
f 545 537 548
f 546 547 574
f 546 539 547
f 547 541 568
f 547 568 575
f 542 546 548
f 548 546 576
f 538 545 549
f 549 545 577
f 578 369 570
f 572 544 571
f 569 572 570
f 545 573 577
f 577 571 549
f 576 573 548
f 574 547 575
f 576 546 574
f 568 579 575
f 369 578 368
f 559 561 580
f 559 558 561
f 560 566 581
f 560 552 566
f 550 560 561
f 561 560 582
f 553 583 563
f 564 554 511
f 565 562 584
f 565 557 562
f 562 556 563
f 562 563 585
f 564 586 554
f 565 566 551
f 568 540 559
f 566 565 584
f 561 582 580
f 582 560 581
f 580 579 559
f 562 587 584
f 584 581 566
f 587 562 585
f 585 563 588
f 583 586 589
f 563 583 588
f 554 586 583
f 559 579 568
f 553 554 583
f 567 590 555
f 370 369 345
f 513 516 591
f 516 513 505
f 567 591 592
f 591 567 513
f 514 593 516
f 564 555 590
f 515 594 514
f 515 514 506
f 517 595 515
f 594 593 514
f 526 517 509
f 596 517 526
f 515 507 517
f 593 591 516
f 516 508 514
f 591 593 597
f 567 592 590
f 594 598 593
f 592 597 599
f 592 591 597
f 598 597 593
f 590 592 600
f 595 596 601
f 596 595 517
f 598 602 603
f 598 594 602
f 601 602 595
f 602 601 604
f 605 606 596
f 602 594 595
f 594 515 595
f 597 598 607
f 528 605 526
f 608 564 590
f 527 609 528
f 527 528 519
f 533 610 527
f 609 605 528
f 527 521 533
f 605 596 526
f 611 533 529
f 532 529 525
f 612 532 530
f 531 530 524
f 166 531 523
f 613 530 531
f 532 522 530
f 614 529 532
f 533 520 529
f 314 531 166
f 610 615 609
f 610 609 527
f 606 616 617
f 606 605 616
f 609 615 616
f 616 605 609
f 618 610 611
f 614 611 529
f 619 614 612
f 613 612 530
f 314 613 531
f 620 612 613
f 614 532 612
f 621 611 614
f 610 533 611
f 271 613 314
f 314 166 165
f 606 601 596
f 526 518 528
f 601 606 622
f 586 608 589
f 564 608 586
f 600 599 623
f 600 592 599
f 590 600 608
f 608 600 624
f 607 603 625
f 607 598 603
f 604 622 626
f 604 601 622
f 622 606 617
f 622 617 626
f 602 604 603
f 603 604 627
f 597 607 599
f 599 607 625
f 608 628 589
f 623 624 600
f 628 608 624
f 626 627 604
f 629 625 603
f 626 617 630
f 625 623 599
f 629 603 627
f 631 632 617
f 589 588 583
f 615 618 633
f 618 615 610
f 631 633 634
f 633 631 615
f 621 635 618
f 631 617 616
f 619 636 621
f 619 621 614
f 620 637 619
f 636 635 621
f 271 620 613
f 301 620 271
f 619 612 620
f 635 633 618
f 618 611 621
f 633 635 638
f 631 634 632
f 636 639 635
f 634 633 638
f 639 638 635
f 637 301 640
f 301 637 620
f 639 636 641
f 640 641 637
f 301 298 640
f 641 636 637
f 636 619 637
f 270 301 271
f 632 630 617
f 631 616 615
f 261 271 314
f 555 510 567
f 510 501 513
f 144 133 166
f 250 346 251
f 73 80 489
f 292 297 293
f 296 294 293
f 292 293 308
f 291 299 309
f 299 292 308
f 641 298 291
f 295 293 294
f 309 303 307
f 291 580 624
f 291 309 366
f 295 300 308
f 302 309 308
f 309 299 308
f 308 293 295
f 309 307 366
f 634 639 641
f 634 638 639
f 630 641 291
f 632 634 630
f 630 634 641
f 630 627 626
f 640 298 641
f 629 630 625
f 624 623 625
f 629 627 630
f 628 624 588
f 588 589 628
f 630 624 625
f 630 291 624
f 587 588 624
f 307 305 310
f 310 311 356
f 356 366 307
f 349 356 348
f 349 355 354
f 354 357 349
f 356 349 366
f 357 350 349
f 350 352 359
f 350 359 365
f 365 359 364
f 366 580 291
f 367 573 366
f 350 365 366
f 349 350 366
f 578 367 368
f 573 575 580
f 575 579 580
f 580 582 581
f 624 580 587
f 581 584 587
f 580 581 587
f 585 588 587
f 572 571 578
f 578 570 572
f 573 367 571
f 575 576 574
f 575 573 576
f 571 577 573
f 573 580 366
f 571 367 578
f 307 310 356
f 642 85 643
f 83 644 85
f 642 96 85
f 102 101 645
f 99 645 101
f 99 96 642
f 104 102 646
f 647 78 648
f 649 648 74
f 78 74 648
f 647 81 78
f 644 83 650
f 81 647 650
f 83 81 650
f 644 643 85
f 651 105 104
f 652 110 108
f 652 108 653
f 107 654 108
f 652 655 110
f 655 167 123
f 167 655 656
f 656 168 167
f 110 655 123
f 646 102 645
f 657 99 642
f 645 99 657
f 108 654 653
f 651 104 658
f 107 651 654
f 646 658 104
f 651 107 105
f 659 73 489
f 74 73 649
f 489 487 659
f 649 73 659
f 487 660 659
f 661 660 486
f 486 660 487
f 662 661 486
f 484 662 486
f 484 483 663
f 663 483 480
f 664 480 479
f 477 476 665
f 664 479 477
f 476 464 665
f 484 663 662
f 666 480 664
f 667 477 665
f 664 477 667
f 464 463 668
f 463 669 670
f 463 670 668
f 665 464 668
f 460 669 461
f 460 458 671
f 669 463 461
f 458 457 671
f 455 672 457
f 671 457 672
f 673 460 671
f 669 460 673
f 663 480 666
f 169 674 675
f 656 674 168
f 675 676 169
f 168 674 169
f 172 676 173
f 676 677 173
f 169 676 172
f 175 173 677
f 175 677 678
f 679 680 176
f 679 175 678
f 681 682 193
f 683 684 197
f 193 682 683
f 191 680 681
f 175 679 176
f 680 191 190
f 193 191 681
f 194 193 683
f 197 684 685
f 685 198 197
f 194 683 197
f 198 685 200
f 686 200 685
f 201 687 688
f 687 201 686
f 203 688 212
f 689 212 690
f 212 688 690
f 201 688 203
f 686 201 200
f 176 680 190
f 401 691 402
f 402 692 693
f 692 402 691
f 694 695 391
f 696 697 394
f 392 695 696
f 697 691 399
f 455 698 699
f 698 455 416
f 416 406 698
f 672 455 699
f 700 404 693
f 402 693 404
f 700 406 404
f 698 406 700
f 381 701 694
f 375 702 703
f 704 705 379
f 704 375 703
f 371 253 689
f 212 689 253
f 371 702 375
f 689 702 371
f 375 704 378
f 399 394 697
f 401 399 691
f 696 394 392
f 694 391 381
f 392 391 695
f 379 701 381
f 379 378 704
f 701 379 705
f 57 56 648
f 55 54 650
f 56 55 647
f 53 51 643
f 52 50 657
f 51 52 642
f 54 53 644
f 49 48 646
f 47 46 651
f 48 47 658
f 45 44 653
f 43 42 655
f 44 43 652
f 46 45 654
f 50 49 645
f 25 20 674
f 19 18 676
f 20 19 675
f 17 24 678
f 23 22 680
f 24 23 679
f 18 17 677
f 21 13 682
f 12 11 684
f 13 12 683
f 10 9 686
f 16 15 688
f 9 16 687
f 11 10 685
f 22 21 681
f 42 25 656
f 648 649 57
f 650 647 55
f 648 56 647
f 643 644 53
f 657 642 52
f 643 51 642
f 650 54 644
f 646 645 49
f 651 658 47
f 646 48 658
f 653 654 45
f 655 652 43
f 653 44 652
f 651 46 654
f 657 50 645
f 674 656 25
f 676 675 19
f 674 20 675
f 678 677 17
f 680 679 23
f 678 24 679
f 676 18 677
f 682 681 21
f 684 683 12
f 682 13 683
f 686 685 10
f 688 687 16
f 686 9 687
f 684 11 685
f 680 22 681
f 655 42 656
f 14 690 15
f 57 649 659
f 14 27 689
f 26 29 703
f 27 26 702
f 28 31 705
f 30 32 694
f 31 30 701
f 29 28 704
f 33 34 696
f 36 35 691
f 34 36 697
f 38 37 693
f 41 40 698
f 37 41 700
f 35 38 692
f 32 33 695
f 39 63 672
f 62 65 673
f 63 62 671
f 64 59 670
f 58 61 665
f 59 58 668
f 65 64 669
f 60 70 664
f 69 72 663
f 70 69 666
f 71 67 661
f 66 68 659
f 67 66 660
f 72 71 662
f 61 60 667
f 40 39 699
f 689 690 14
f 703 702 26
f 689 27 702
f 705 704 28
f 694 701 30
f 705 31 701
f 703 29 704
f 696 695 33
f 691 697 36
f 696 34 697
f 693 692 38
f 698 700 41
f 693 37 700
f 691 35 692
f 694 32 695
f 672 699 39
f 673 671 62
f 672 63 671
f 670 669 64
f 665 668 58
f 670 59 668
f 673 65 669
f 664 667 60
f 663 666 69
f 664 70 666
f 661 662 71
f 659 660 66
f 661 67 660
f 663 72 662
f 665 61 667
f 698 40 699
f 68 57 659
f 690 688 15
