v 0.015 -0.015 0.018
v 0.013 -0.015 0.02
v 0.013 0.015 0.02
v 0.015 0.015 0.018
v -0.013 -0.015 0.02
v -0.015 -0.015 0.018
v -0.015 0.015 0.018
v -0.013 0.015 0.02
v -0.005 0.0251484 0.015
v 0.005 0.0251484 0.015
v 0.005 0.0281484 0.012
v -0.005 0.0281484 0.012
v -0.005 0.0361484 0.015
v -0.005 0.0331484 0.012
v 0.005 0.0331484 0.012
v 0.005 0.0361484 0.015
v -0.04405 4.44089e-18 0.015
v -0.022025 -0.0381484 0.015
v -0.018 -0.018 0.015
v -0.018 0.018 0.015
v 0.018 0.018 0.015
v -0.015 0.0281484 0.015
v 0.022025 -0.0381484 0.015
v -0.022025 0.0381484 0.015
v -0.015 0.0331484 0.015
v -0.005 0.0331484 0.015
v -0.005 0.0281484 0.015
v 0.022025 0.0381484 0.015
v 0.018 -0.018 0.015
v 0.04405 0 0.015
v 0.015 0.0281484 0.015
v 0.005 0.0331484 0.015
v 0.015 0.0331484 0.015
v 0.005 0.0281484 0.015
v -0.015 0.0294936 0.0170216
v -0.015 0.0293984 0.0175
v -0.005 0.0294936 0.0170216
v -0.015 0.0301701 0.0163451
v -0.015 0.0297645 0.0166161
v -0.005 0.0301701 0.0163451
v -0.015 0.0311268 0.0163451
v -0.015 0.0306484 0.01625
v -0.005 0.0311268 0.0163451
v -0.005 0.0315323 0.0166161
v -0.015 0.0315323 0.0166161
v -0.005 0.0306484 0.01625
v -0.015 0.0318033 0.0170216
v -0.005 0.0293984 0.0175
v -0.005 0.0297645 0.0166161
v -0.005 0.0318033 0.0170216
v -0.005 0.0318984 0.0175
v -0.005 0.0294936 0.0179784
v -0.015 0.0315323 0.0183839
v -0.005 0.0311268 0.0186549
v -0.015 0.0311268 0.0186549
v -0.015 0.0318033 0.0179784
v -0.005 0.0315323 0.0183839
v -0.015 0.0318984 0.0175
v -0.015 0.0301701 0.0186549
v -0.015 0.0306484 0.01875
v -0.005 0.0301701 0.0186549
v -0.015 0.0297645 0.0183839
v -0.015 0.0294936 0.0179784
v -0.005 0.0306484 0.01875
v -0.005 0.0297645 0.0183839
v -0.005 0.0318033 0.0179784
v 0.015 0.0294936 0.0170216
v 0.005 0.0294936 0.0170216
v 0.005 0.0293984 0.0175
v 0.015 0.0301701 0.0163451
v 0.005 0.0301701 0.0163451
v 0.005 0.0297645 0.0166161
v 0.015 0.0297645 0.0166161
v 0.015 0.0311268 0.0163451
v 0.005 0.0311268 0.0163451
v 0.005 0.0306484 0.01625
v 0.015 0.0318033 0.0170216
v 0.005 0.0318033 0.0170216
v 0.005 0.0315323 0.0166161
v 0.015 0.0315323 0.0166161
v 0.015 0.0306484 0.01625
v 0.015 0.0293984 0.0175
v 0.015 0.0318984 0.0175
v 0.005 0.0318984 0.0175
v 0.015 0.0294936 0.0179784
v 0.015 0.0318033 0.0179784
v 0.005 0.0318033 0.0179784
v 0.015 0.0311268 0.0186549
v 0.005 0.0311268 0.0186549
v 0.005 0.0315323 0.0183839
v 0.015 0.0315323 0.0183839
v 0.015 0.0301701 0.0186549
v 0.005 0.0301701 0.0186549
v 0.005 0.0306484 0.01875
v 0.005 0.0294936 0.0179784
v 0.005 0.0297645 0.0183839
v 0.015 0.0297645 0.0183839
v 0.015 0.0306484 0.01875
v 0.005 0.0331484 0.0175
v 0.005 0.0331484 0.02
v 0.005 0.0281484 0.0175
v 0.005 0.0281484 0.02
v 0.015 0.0331484 0.02
v 0.015 0.0281484 0.02
v -0.015 0.0331484 0.02
v -0.005 0.0331484 0.02
v -0.005 0.0281484 0.0175
v -0.005 0.0281484 0.02
v -0.005 0.0331484 0.0175
v -0.015 0.0281484 0.02
v 0.013 -0.015 0.021
v 0.013 0.015 0.021
v -0.013 -0.015 0.021
v -0.013 0.015 0.021
v 0.018 -0.018 0.021
v -0.018 -0.018 0.021
v -0.018 0.018 0.021
v 0.018 0.018 0.021
v 0.015 0.015 0.005
v -0.015 0.015 0.005
v -0.015 -0.015 0.005
v 0.015 -0.015 0.005
v -0.022025 -0.0381484 0
v 0.022025 -0.0381484 0
v -0.04405 4.28043e-18 0
v -0.022025 0.0381484 0
v 0.022025 0.0381484 0
v 0.04405 0 0
f 1 2 3
f 3 4 1
f 5 6 7
f 7 8 5
f 9 10 11
f 11 12 9
f 13 14 15
f 15 16 13
f 14 12 11
f 11 15 14
f 17 18 19
f 20 21 9
f 20 9 22
f 19 20 17
f 19 18 23
f 17 20 24
f 24 22 25
f 22 24 20
f 24 25 13
f 26 13 25
f 22 9 27
f 24 13 28
f 9 21 10
f 29 30 21
f 30 29 23
f 21 30 28
f 19 23 29
f 10 21 31
f 16 32 33
f 31 28 33
f 28 31 21
f 33 28 16
f 34 10 31
f 16 28 13
f 35 36 37
f 38 39 40
f 39 35 37
f 41 42 43
f 44 45 41
f 46 42 38
f 47 45 44
f 36 48 37
f 39 49 40
f 49 39 37
f 42 46 43
f 47 44 50
f 44 41 43
f 46 38 40
f 50 51 47
f 52 48 36
f 53 54 55
f 56 57 53
f 51 56 58
f 59 60 61
f 62 52 63
f 60 55 64
f 62 59 65
f 56 51 66
f 53 57 54
f 57 56 66
f 60 64 61
f 62 65 52
f 65 59 61
f 64 55 54
f 52 36 63
f 47 51 58
f 67 68 69
f 70 71 72
f 73 72 68
f 74 75 76
f 77 78 79
f 80 79 75
f 81 76 71
f 69 82 67
f 72 73 70
f 73 68 67
f 76 81 74
f 79 80 77
f 80 75 74
f 81 71 70
f 78 83 84
f 85 82 69
f 86 87 84
f 88 89 90
f 91 90 87
f 92 93 94
f 85 95 96
f 97 96 93
f 98 94 89
f 84 83 86
f 90 91 88
f 91 87 86
f 94 98 92
f 96 97 85
f 97 93 92
f 98 89 88
f 85 69 95
f 78 77 83
f 16 15 32
f 76 32 34
f 32 79 99
f 75 79 32
f 76 75 32
f 15 11 34
f 99 79 78
f 99 78 84
f 87 90 99
f 90 89 100
f 90 100 99
f 100 89 94
f 68 101 69
f 72 71 34
f 72 34 101
f 11 10 34
f 34 71 76
f 15 34 32
f 68 72 101
f 93 96 102
f 94 93 102
f 69 101 95
f 101 102 96
f 101 96 95
f 94 102 100
f 87 99 84
f 33 32 100
f 100 103 33
f 31 67 82
f 67 31 73
f 70 73 31
f 81 70 31
f 31 33 81
f 104 82 85
f 82 104 31
f 97 92 104
f 85 97 104
f 104 92 98
f 80 74 33
f 77 33 83
f 33 77 80
f 83 33 103
f 74 81 33
f 98 88 103
f 91 86 103
f 103 86 83
f 91 103 88
f 98 103 104
f 34 31 104
f 104 102 34
f 102 104 103
f 103 100 102
f 26 25 105
f 105 106 26
f 9 12 27
f 46 27 26
f 27 49 107
f 40 49 27
f 46 40 27
f 12 14 26
f 107 49 37
f 107 37 48
f 52 65 107
f 65 61 108
f 65 108 107
f 108 61 64
f 50 109 51
f 44 43 26
f 44 26 109
f 14 13 26
f 26 43 46
f 12 26 27
f 50 44 109
f 54 57 106
f 64 54 106
f 51 109 66
f 109 106 57
f 109 57 66
f 64 106 108
f 52 107 48
f 22 27 108
f 108 110 22
f 25 47 58
f 47 25 45
f 41 45 25
f 42 41 25
f 25 22 42
f 105 58 56
f 58 105 25
f 53 55 105
f 56 53 105
f 105 55 60
f 39 38 22
f 35 22 36
f 22 35 39
f 36 22 110
f 38 42 22
f 60 59 110
f 62 63 110
f 110 63 36
f 62 110 59
f 60 110 105
f 110 108 106
f 106 105 110
f 2 111 112
f 112 3 2
f 113 5 8
f 8 114 113
f 19 29 115
f 115 116 19
f 20 19 116
f 116 117 20
f 21 20 117
f 117 118 21
f 29 21 118
f 118 115 29
f 116 113 114
f 113 116 115
f 117 114 112
f 114 117 116
f 111 115 118
f 115 111 113
f 112 118 117
f 118 112 111
f 3 112 114
f 4 7 119
f 4 8 7
f 114 8 3
f 119 7 120
f 3 8 4
f 120 7 6
f 6 121 120
f 5 113 111
f 6 1 121
f 6 2 1
f 111 2 5
f 121 1 122
f 5 2 6
f 122 1 4
f 4 119 122
f 120 121 122
f 122 119 120
f 123 124 23
f 23 18 123
f 17 125 18
f 123 18 125
f 126 125 17
f 17 24 126
f 127 126 24
f 24 28 127
f 128 127 28
f 28 30 128
f 124 128 30
f 30 23 124
f 127 125 126
f 123 125 124
f 125 127 128
f 124 125 128
