v 0.0158425 -5.3056e-07 -0.00185491
v 0.0151309 0.00404096 -0.00111718
v 0.0139399 0.00743117 -0.0013328
v 0.013379 0.00844026 -0.0017178
v 0.0155797 2.34251e-05 -0.000719231
v 0.0102441 2.9292e-05 0.000102088
v 0.00759847 0.00660257 0.000132993
v 0.0137104 0.00530561 -0.000272382
v 0.0132587 0.00208464 1.40571e-08
v 0.0117053 0.0106865 -0.00179193
v 0.00741556 0.0141256 -0.00180786
v 0.00911727 0.011798 -0.000437989
v 0.00270568 0.0156922 -0.00166763
v 0.00304054 0.0149117 -0.000727391
v -0.00125923 0.0149689 -0.000516033
v 0.0111871 0.00977416 -0.000400622
v 0.00643996 0.013299 -0.00032972
v 0.0128297 0.00389184 -1.62809e-16
v 0.0104741 0.00859585 4.03972e-07
v 0.00858739 0.0111737 -6.35181e-05
v 0.00463121 0.0125972 2.1086e-08
v 0.00236844 0.0139605 -9.01461e-05
v -0.00322528 0.0154938 -0.00147656
v -0.00257271 0.0140524 -0.000126581
v -0.00868269 0.0132063 -0.00176441
v -0.0106058 0.011804 -0.00187833
v -0.00697653 0.0141536 -0.00114628
v -0.00482601 0.0141855 -0.00028697
v -0.00316782 0.0155321 -0.00262442
v -0.00335302 0.00947019 0.000206302
v -0.00999775 0.0101728 -0.000118057
v -0.0110473 0.0105442 -0.000537047
v -0.01597 0.000851068 -0.000870171
v -0.0137246 0.00810742 -0.00197536
v -0.0159991 0.000217014 -0.00161695
v -0.0107302 0.0107302 -0.000732233
v -0.0128731 0.00581527 -8.13444e-05
v -0.00680837 0.00739643 0.000221053
v -0.0092381 0.00439928 0.000250075
v -0.0105205 0.00210651 0.000509647
v 0.0262538 1.00138e-18 -0.0581845
v 0.0259974 9.8568e-19 -0.0410341
v 0.0256123 9.62101e-19 -0.060013
v 0.0248436 9.15033e-19 -0.0617917
v 0.0244799 8.92763e-19 -0.0374707
v 0.0239516 8.60411e-19 -0.0635119
v 0.0253015 9.43068e-19 -0.0392257
v 0.0235369 8.35016e-19 -0.035778
v 0.0229406 7.98507e-19 -0.065165
v 0.026765 1.03268e-18 -0.0563154
v 0.0271433 1.05585e-18 -0.054415
v 0.0269991 1.04702e-18 -0.0447754
v 0.0265642 1.02039e-18 -0.0428871
v 0.0218158 7.29629e-19 -0.0667428
v 0.0224769 7.70114e-19 -0.0341558
v 0.0211036 2.67929e-07 -0.0322459
v 0.0130721 -1.51068e-08 -0.0743576
v 0.0193122 -2.08102e-07 -0.0696349
v 0.0162089 -9.80152e-11 -0.0121488
v -0.0099 6.16298e-34 0.015
v 0.00379622 2.57879e-06 -0.0773645
v -0.0211149 7.22537e-08 -0.0323092
v -0.00463061 6.97115e-08 -0.0771948
v -0.0218158 -1.94203e-18 -0.0667428
v -0.0164771 -9.26356e-08 -0.0723522
v -0.0224769 -1.98251e-18 -0.0341558
v -0.0229406 -2.01091e-18 -0.065165
v -0.0239516 -2.07281e-18 -0.0635119
v -0.0244799 -2.10516e-18 -0.0374707
v -0.0248436 -2.12743e-18 -0.0617917
v -0.0235369 -2.04742e-18 -0.035778
v -0.0253015 -2.15547e-18 -0.0392257
v -0.0256123 -2.1745e-18 -0.060013
v -0.0262538 -2.21378e-18 -0.0581845
v -0.0265642 -2.23279e-18 -0.0428871
v -0.026765 -2.24508e-18 -0.0563154
v -0.0269991 -2.25942e-18 -0.0447754
v -0.0271433 -2.26825e-18 -0.054415
v -0.027538 -8.67938e-08 -0.0504708
v -0.0259974 -2.19808e-18 -0.0410341
v -0.015907 3.67822e-19 -0.0025
v -0.0100589 -9.41521e-07 0.000261841
v -0.0168291 -4.6392e-11 -0.017313
v 0.00138684 0.0100376 0.000166584
v 0.01781 0.0109069 -0.031865
v 0.020388 0.00618462 -0.0326123
v 0.0212028 0.00208829 -0.0326123
v 0.0230318 0.00364533 -0.0349644
v 0.0210494 0.00312238 -0.0326123
v 0.020896 0.00415647 -0.0326123
v 0.0265955 0.00540832 -0.0447194
v 0.0269634 0.00664361 -0.0503594
v 0.0204907 0.0113723 -0.0352154
v 0.0190032 0.0101596 -0.0326729
v 0.0268195 0.00547732 -0.0539644
v 0.024815 0.0093507 -0.0423797
v 0.0234043 0.00933484 -0.0388296
v 0.0249602 0.0119968 -0.0520395
v 0.0142906 0.0157672 -0.0326123
v 0.0136791 0.0168993 -0.0329099
v 0.013516 0.0164693 -0.0326123
v 0.0157672 0.0142906 -0.0326123
v 0.0182259 0.0157926 -0.0365488
v 0.0177148 0.0118366 -0.0326123
v 0.0232384 0.0130367 -0.0429259
v 0.0199714 0.0168182 -0.0409742
v 0.0181099 0.0204355 -0.046166
v 0.021915 0.0167529 -0.0485024
v 0.0226485 0.0154442 -0.0533254
v 0.0193518 0.0194454 -0.048094
v 0.0276478 7.66827e-06 -0.0505332
v 0.0249552 0.00306998 -0.0620321
v 0.0191165 0.00880837 -0.0681759
v 0.0241748 0.00669868 -0.061423
v 0.0258773 0.00804491 -0.0551315
v 0.0246691 0.0105459 -0.0561661
v 0.0172577 0.00560127 -0.071002
v 0.0161511 0.0121785 -0.0689864
v 0.0162478 0.00262957 -0.0722392
v 0.0222621 0.01151 -0.0615472
v 0.00776623 0.00274809 -0.0763244
v 0.013193 0.00904231 -0.0724404
v 0.00520754 0.0102942 -0.0751153
v -0.00266701 0.00624565 -0.0767386
v 0.0178169 0.0166374 -0.0628321
v 0.0205041 0.0168182 -0.0577397
v 0.0188757 0.0194606 -0.0547068
v 0.0159971 0.0145429 -0.067473
v 0.0156376 0.0194606 -0.061572
v 0.0167429 0.0204085 -0.0578776
v 0.00863412 0.0120373 -0.0732326
v 0.00616112 0.0118414 -0.0741117
v 0.00629729 0.00756261 -0.0759763
v -0.00234527 0.0107535 -0.0752911
v 0.00723149 0.0190392 -0.0688582
v 0.0100188 0.0194606 -0.0666754
v 0.00513641 0.016198 -0.0718159
v 0.0062688 0.0204085 -0.0674093
v 0.0124538 0.0204085 -0.0636851
v -0.00205626 0.017505 -0.0711777
v 0.0164971 0.0222468 -0.0515351
v 0.00415647 0.020896 -0.0326123
v 0.00182726 0.0212156 -0.0326123
v 0.0100433 0.0187897 -0.0326123
v 0.00356475 0.0216533 -0.033248
v 0.00618462 0.020388 -0.0326123
v 0.00815322 0.0196836 -0.0326123
v 0.00879545 0.020702 -0.0341103
v -0.00145859 0.022897 -0.0347915
v -5.85505e-16 0.0213054 -0.0326123
v 0.00122807 0.0243117 -0.0370806
v 0.0043753 0.0236817 -0.0366329
v 0.00706221 0.0236679 -0.0377607
v 0.00431196 0.0259265 -0.041763
v 0.0111205 0.0213436 -0.0365163
v 0.0129282 0.021331 -0.038181
v 0.0147819 0.0213682 -0.0407492
v 0.0109354 0.0238334 -0.0415558
v 0.00618862 0.025836 -0.0427664
v 0.00874714 0.025413 -0.0441154
v 0.0162887 0.0213879 -0.0436035
v 0.0161024 0.0221859 -0.047304
v 0.0114327 0.0242528 -0.0438891
v 0.0129774 0.0237631 -0.0449804
v 0.0146203 0.0228654 -0.045565
v 0.0128267 0.0242574 -0.0480743
v 0.00153816 0.0254487 -0.0396305
v 0.00116974 0.026333 -0.0421142
v -0.000782454 0.0263159 -0.0420556
v 0.00641423 0.026321 -0.0451958
v 0.00274035 0.0269729 -0.0453577
v 0.000788183 0.0269763 -0.0446864
v 0.000397132 0.0273679 -0.0473226
v 0.00136306 0.0273677 -0.0476574
v -0.000396179 0.0273675 -0.0473292
v 0.0021558 0.0273677 -0.0483573
v 0.00430829 0.0269729 -0.0467598
v -0.000789316 0.0269701 -0.044679
v 0.00827056 0.0260749 -0.0468435
v 0.0104338 0.0254205 -0.048413
v 0.00794439 0.0263159 -0.0492175
v 0.00513772 0.0269723 -0.0484085
v 0.0025777 0.0273677 -0.0491857
v 0.00270857 0.0273677 -0.0500978
v 0.0053859 0.0269729 -0.0502284
v -0.00380063 0.0244428 -0.0377129
v 0.0164871 0.0218838 -0.0529745
v 0.0120913 0.0243584 -0.0546231
v 0.0140314 0.021269 -0.0603794
v 0.0131376 0.0229168 -0.0578281
v 0.012792 0.0243351 -0.0523041
v 0.00899741 0.0260075 -0.0509034
v 0.0107787 0.0242528 -0.0572021
v 0.0100706 0.0254067 -0.0530549
v 0.0102612 0.0249496 -0.0555515
v 0.00835577 0.0260208 -0.0533565
v 0.00914192 0.0229168 -0.0622597
v 0.00916652 0.0242528 -0.0591665
v 0.00899132 0.021269 -0.0649589
v 0.00301008 0.0212296 -0.0673315
v 0.0026057 0.0237325 -0.0637137
v -0.00176816 0.0200464 -0.0688276
v 0.00838511 0.0250774 -0.0577024
v 0.00735567 0.0249496 -0.0590557
v 0.00509855 0.0234784 -0.0634583
v 0.00493257 0.0250603 -0.0603259
v -0.00180012 0.0238993 -0.0636041
v 0.00288807 0.0250182 -0.06116
v -0.00219125 0.0224248 -0.065895
v 0.00643254 0.0249496 -0.0597331
v 0.00775495 0.0263169 -0.051919
v 0.0048885 0.0269729 -0.0522722
v 0.00643025 0.0263169 -0.0547406
v 0.00414719 0.0269716 -0.0534035
v 0.00463721 0.0267098 -0.0548258
v 0.00246496 0.0273677 -0.0511269
v 0.00184609 0.0273677 -0.0519844
v 0.00412661 0.0263169 -0.0568405
v 0.00277943 0.026972 -0.0545943
v 0.0019589 0.0263068 -0.0578204
v 0.00131534 0.0269686 -0.0552512
v 0.00117327 0.0273676 -0.0524297
v 0.000527985 0.0273675 -0.0526544
v 9.4165e-05 0.0268449 -0.0560939
v -0.00071824 0.0251505 -0.0611831
v -0.002595 0.00291743 -0.0773176
v -0.0130917 0.00274398 -0.0741236
v -0.0111329 0.00696879 -0.0742263
v -0.00807829 0.000102456 -0.0765433
v -0.00639086 0.00800197 -0.0755546
v -1.11556e-15 0.00798283 -0.0763159
v -0.00972411 0.0105951 -0.0735281
v -0.0173618 0.00269547 -0.0711554
v -0.0148119 0.00674887 -0.0722832
v -0.0212149 0.00813432 -0.0657589
v -0.0151372 0.0105459 -0.0704316
v -0.0185774 0.00429368 -0.0699036
v -0.0224843 0.00541093 -0.0650363
v -0.0236745 0.00286479 -0.064006
v -0.0253076 0.00644321 -0.0588023
v -0.0218038 0.0105459 -0.0630836
v -0.0243127 0.00798283 -0.0600706
v -0.0269203 0.00316461 -0.0551886
v -0.0268417 0.00536498 -0.0526437
v -0.0261891 0.00798283 -0.0525794
v -0.0273676 0.00269547 -0.05
v -0.0269195 0.00541094 -0.0473594
v -0.0234514 0.0117838 -0.0584099
v -0.018448 0.0117838 -0.0667442
v -0.0047157 0.0130367 -0.0738291
v -0.0124684 0.0131412 -0.0708608
v -0.00663748 0.0152782 -0.0718808
v -0.0117394 0.0154442 -0.0696519
v -0.00204226 0.01468 -0.0732608
v -0.0117966 0.017505 -0.0677077
v -0.00753261 0.0205954 -0.0666636
v -0.0107858 0.0194923 -0.0661985
v -0.0183663 0.0154442 -0.0636635
v -0.0170611 0.017588 -0.0626989
v -0.00667217 0.0182776 -0.0694994
v -0.020809 0.0129863 -0.0624903
v -0.0256391 0.00933481 -0.0538955
v -0.0244707 0.0120373 -0.0539358
v -0.0253837 0.0108347 -0.0490305
v -0.0215352 0.0152998 -0.057724
v -0.0148399 0.0204085 -0.0610525
v -0.0175771 0.0194606 -0.0583362
v -0.0220549 0.0162139 -0.0531145
v -0.0179399 0.0204085 -0.0545322
v -0.0203525 0.017505 -0.0562046
v -0.0130449 0.0204036 -0.0630992
v -0.0272659 3.01398e-05 -0.0455199
v -0.0252799 0.0027466 -0.039312
v -0.0236703 0.0069237 -0.0375634
v -0.0255594 0.00669099 -0.042253
v -0.0261891 0.00798283 -0.0474206
v -0.0252843 0.0105238 -0.0475097
v -0.0223229 0.00954986 -0.036969
v -0.0251444 0.00954982 -0.04401
v -0.0235574 0.0105598 -0.0402718
v -0.0214865 0.00610074 -0.0338962
v -0.020896 0.00415647 -0.0326123
v -0.0212028 0.00208829 -0.0326123
v -0.021462 0.00204085 -0.0328151
v -0.0210494 0.00312238 -0.0326123
v -0.020388 0.00618462 -0.0326123
v -0.0235461 0.0129863 -0.0441178
v -0.021568 0.0162139 -0.0444373
v -0.0181362 0.0119024 -0.0328959
v -0.0177148 0.0118366 -0.0326123
v -0.0177255 0.0154332 -0.0356098
v -0.0171493 0.0129634 -0.0328507
v -0.0210702 0.0144324 -0.0396656
v -0.0210405 0.0174646 -0.0468984
v -0.0222941 0.016165 -0.0492012
v -0.0183087 0.0204085 -0.0473219
v -0.0177077 0.017505 -0.0382034
v -0.0196396 0.0174458 -0.041865
v -0.0144281 0.0194606 -0.036951
v -0.0158902 0.0204085 -0.0405193
v -0.0144093 0.0175136 -0.0344264
v -0.0183234 0.0194606 -0.0434657
v -0.0164693 0.013516 -0.0326123
v -0.0142906 0.0157672 -0.0326123
v -0.0111423 0.020543 -0.0354185
v -0.0109283 0.0181066 -0.0323188
v -0.0194292 0.0194606 -0.0509752
v -0.00421972 0.021269 -0.0669354
v -0.0094632 0.0228992 -0.0622002
v -0.0080016 0.0237631 -0.0613835
v -0.00651505 0.022873 -0.0638273
v -0.00400365 0.025413 -0.0597526
v -0.00552499 0.0242574 -0.0617349
v -0.0122597 0.0229168 -0.0591419
v -0.00625466 0.0254091 -0.0584719
v -0.0157682 0.021269 -0.0574818
v -0.014825 0.0229168 -0.0537544
v -0.0165795 0.0219795 -0.0507526
v -0.0107748 0.0242656 -0.0572397
v -0.00902059 0.0254091 -0.0554334
v -0.0122046 0.0242574 -0.0543911
v -0.0129153 0.0242656 -0.0513056
v -0.0105392 0.0254205 -0.0505567
v -0.00869919 0.025926 -0.0532322
v -0.0068001 0.025926 -0.0563152
v -0.0015286 0.0263184 -0.0578528
v -0.00408749 0.026321 -0.0568932
v -0.00227215 0.0269729 -0.0548885
v -0.00340351 0.0269716 -0.0541472
v -0.00037432 0.0273676 -0.0526721
v -9.06251e-16 0.0275042 -0.0506073
v -0.000888453 0.0273676 -0.0525477
v -0.00136843 0.0273676 -0.0523254
v -0.00430828 0.0269729 -0.0532402
v -0.00684052 0.0263169 -0.0541266
v -0.00800234 0.026321 -0.050431
v -0.0052203 0.0269729 -0.0513448
v -0.00215417 0.0273676 -0.0516247
v -0.00242975 0.0273676 -0.0511733
v -0.00179582 0.0273676 -0.0520138
v -0.00261195 0.0273676 -0.0506767
v -0.00269378 0.0273676 -0.0501541
v -0.00533757 0.0269729 -0.0492447
v -0.0164402 0.021269 -0.0441407
v -0.013513 0.0234999 -0.0451472
v -0.0129465 0.021269 -0.0382953
v -0.0123071 0.0229168 -0.0409219
v -0.0125873 0.0242574 -0.0468705
v -0.0142726 0.0234784 -0.0481523
v -0.0102206 0.0254091 -0.0474635
v -0.0100557 0.0242656 -0.0417907
v -0.0114327 0.0242528 -0.0438891
v -0.00723358 0.025836 -0.0438114
v -0.00875022 0.0254067 -0.0441533
v -0.00912338 0.022873 -0.0377361
v -0.00843678 0.025926 -0.0461343
v -0.0100433 0.0187897 -0.0326123
v -0.00815322 0.0196836 -0.0326123
v -0.00517055 0.020642 -0.0326123
v -0.0052078 0.0210419 -0.0330145
v -0.00208829 0.0212028 -0.0326123
v -0.00676669 0.0215149 -0.0340543
v -0.00671054 0.0242818 -0.0388809
v -0.00170999 0.0212578 -0.0326382
v -0.00333021 0.0249496 -0.0388187
v -0.00156622 0.0212284 -0.0326123
v -0.00346215 0.025836 -0.0411322
v -0.00588464 0.025413 -0.0412529
v -0.00775495 0.0263169 -0.048081
v -0.00663748 0.0263159 -0.045565
v -0.00480425 0.026321 -0.0435858
v -0.00464225 0.0269729 -0.0472596
v -0.00268249 0.0273676 -0.0497358
v -0.00262253 0.0273676 -0.0493655
v -0.00244836 0.0273676 -0.0488661
v -0.0021801 0.0273676 -0.0484102
v -0.00182809 0.0273676 -0.0480155
v -0.00324019 0.0269729 -0.0456917
v -0.00196323 0.0263169 -0.0422561
v -0.00182978 0.026972 -0.0449518
v -0.00140579 0.0273676 -0.047697
v -0.000929462 0.0273676 -0.047467
v 0.020642 0.00517055 -0.0326123
v 0.0158852 0.00117225 -0.006364
v 0.0156177 0.00275564 -0.00250839
v 0.0157515 0.00233651 -0.006393
v 0.0162265 0.00100964 -0.0117661
v 0.0160072 0.00284119 -0.0118263
v 0.0156637 0.00361384 -0.0102705
v 0.01484 0.00597356 -0.00851249
v 0.0151074 0.00522028 -0.00834607
v 0.0143508 0.00708796 -0.00865275
v 0.0152754 0.0068203 -0.0156165
v 0.0128732 0.00950359 -0.0084656
v 0.0158164 0.00479786 -0.0140518
v 0.0154634 0.00492833 -0.0123933
v 0.0163767 0.00496781 -0.0178495
v 0.017093 0.000839724 -0.0178495
v 0.0170721 0.00160321 -0.0182957
v 0.0165054 0.00462438 -0.0182412
v 0.017304 0.00577169 -0.023152
v 0.0171174 0.00340846 -0.0197416
v 0.0146675 0.00826198 -0.0163001
v 0.0141766 0.00849716 -0.0140518
v 0.0137584 0.00871753 -0.0121493
v 0.0159406 0.00904215 -0.0234938
v 0.0139601 0.00982659 -0.0178569
v 0.0153415 0.00919532 -0.0216135
v 0.0165247 0.00684474 -0.0216135
v 0.011691 0.0109655 -0.00890739
v 0.0117988 0.0106938 -0.006393
v 0.0105459 0.0120402 -0.00865275
v 0.010142 0.012186 -0.00246615
v 0.00746901 0.0140799 -0.00642868
v 0.00966116 0.0127337 -0.00834607
v 0.0119688 0.0111657 -0.0127794
v 0.00867163 0.013472 -0.00884184
v 0.0108928 0.0126966 -0.0156165
v 0.00725529 0.0144129 -0.010229
v 0.00517405 0.0152062 -0.0100197
v 0.00279869 0.0157287 -0.00803576
v 0.0036587 0.0156401 -0.0100197
v 0.00391957 0.0156478 -0.0102299
v 0.000634479 0.0159542 -0.00734371
v -0.000781345 0.0159047 -0.006393
v 0.00885618 0.0139829 -0.0140404
v 0.00623425 0.0150519 -0.012143
v 0.0125037 0.0113668 -0.0166088
v 0.011398 0.0132263 -0.0197476
v 0.00838557 0.0151836 -0.0191132
v 0.00206109 0.0161929 -0.0124626
v 0.000797155 0.0162629 -0.012146
v 0.00700364 0.0159192 -0.019403
v 0.00525745 0.0159348 -0.015963
v 0.00367023 0.0163734 -0.0159629
v -0.000361154 0.0163217 -0.0124902
v 0.0181599 8.73355e-07 -0.0227562
v 0.0186125 0.00525997 -0.0270646
v 0.0176275 0.00217775 -0.021272
v 0.0188213 0.000924629 -0.0253347
v 0.0191921 0.00238976 -0.0270629
v 0.0188164 0.00673262 -0.029004
v 0.0196006 0.00389881 -0.029004
v 0.0174095 0.00721127 -0.0253347
v 0.0160039 0.00809291 -0.0220082
v 0.013562 0.0116952 -0.0215928
v 0.0120116 0.0132528 -0.0216135
v 0.0139732 0.012661 -0.0253242
v 0.0182913 0.00805367 -0.0289898
v 0.0176249 0.00942068 -0.029004
v 0.0157994 0.0111547 -0.0270629
v 0.0148076 0.0134209 -0.029004
v 0.0154483 0.0126781 -0.029004
v 0.0141313 0.0141313 -0.029004
v 0.0109082 0.0141975 -0.02197
v 0.00941528 0.0147879 -0.0200801
v 0.0100854 0.0159235 -0.0253315
v 0.012407 0.0151232 -0.0277131
v 0.00831993 0.0164266 -0.0238209
v 0.0107343 0.0168585 -0.0289898
v 0.00553995 0.0166325 -0.0200801
v 0.00255742 0.0172651 -0.0197416
v 0.000864226 0.0178037 -0.0216286
v 0.00170721 0.0173698 -0.0197416
v 0.00388301 0.0170954 -0.0200801
v 0.00687196 0.0181304 -0.0272272
v 0.0059585 0.0184101 -0.0270895
v 0.00322851 0.0185867 -0.0253092
v -3.52411e-06 0.0174534 -0.0197416
v 0.00862011 0.0180506 -0.0290154
v 0.00446757 0.0190636 -0.0277814
v 0.0024961 0.0198316 -0.0289971
v 0.000980599 0.0199605 -0.029004
v -0.00017011 0.0193153 -0.0269922
v -0.00158114 0.0160535 -0.0102299
v -0.00361384 0.0156637 -0.0102705
v -0.00591639 0.015028 -0.0108074
v -0.00779345 0.0139983 -0.00884185
v -0.00660027 0.0146577 -0.0102705
v -0.00938213 0.0133141 -0.0121493
v -0.00983036 0.0125337 -0.00640251
v -0.00992706 0.012721 -0.010229
v -0.0110492 0.0115421 -0.00809987
v -0.00201502 0.0163623 -0.0140572
v -0.00251108 0.0169284 -0.0178495
v -0.0047851 0.0157548 -0.0140605
v -0.00576539 0.0161132 -0.0178495
v -0.000859979 0.0174322 -0.0197416
v -0.0046342 0.0169072 -0.0200801
v -0.00326663 0.0163572 -0.0159731
v -0.00790953 0.0147921 -0.0159583
v -0.00932131 0.0139456 -0.0159583
v -0.00843148 0.0157742 -0.0216135
v -0.0108235 0.0131758 -0.0178614
v -0.0103999 0.0140166 -0.0197416
v -0.010565 0.015081 -0.0238209
v -0.00699617 0.0156482 -0.0182412
v -0.0121165 0.0104125 -0.00806506
v -0.0131574 0.00905455 -0.00777569
v -0.0123361 0.0106934 -0.0124902
v -0.0133135 0.00932466 -0.0118019
v -0.0140799 0.00746901 -0.00642868
v -0.0148805 0.00581347 -0.00803575
v -0.0157287 0.00279869 -0.00803576
v -0.0150828 0.00492753 -0.00280155
v -0.0159284 0.00114523 -0.00784808
v -0.0147093 0.00681887 -0.0110941
v -0.0116468 0.0116388 -0.0140605
v -0.0126803 0.0114928 -0.0178495
v -0.0145872 0.00779821 -0.0140471
v -0.01527 0.00632504 -0.0140518
v -0.0142798 0.0100467 -0.0197476
v -0.014177 0.00918481 -0.0165918
v -0.0159699 0.00317484 -0.0121461
v -0.0157949 0.0039546 -0.0121461
v -0.0161929 0.00206109 -0.0124626
v -0.0162541 0.00537067 -0.0178474
v -0.0159003 0.00441083 -0.0142609
v -0.0169895 0.00209641 -0.0178474
v -0.0120116 0.0132528 -0.0216135
v -0.00269242 0.0181203 -0.0234866
v -0.0061758 0.0172468 -0.0234866
v -0.00113337 0.019325 -0.0271416
v -0.00293235 0.0197683 -0.029004
v -0.00212625 0.018598 -0.0250856
v -0.00488172 0.0187326 -0.0271416
v -0.00606128 0.0184825 -0.0274137
v -0.00393507 0.018911 -0.0269922
v -0.00763045 0.0161089 -0.0216287
v -0.00893978 0.0148818 -0.019761
v -0.00925518 0.0169544 -0.0269922
v -0.00784368 0.0177994 -0.0274137
v -0.0117916 0.012381 -0.0180643
v -0.012661 0.0139732 -0.0253242
v -0.0142713 0.0123127 -0.0253315
v -0.0140807 0.0109662 -0.0216325
v -0.0118558 0.0161113 -0.0290154
v -0.0141313 0.0141313 -0.029004
v -0.0134209 0.0148076 -0.029004
v -0.0151026 0.0130933 -0.0289971
v -0.0153415 0.00919532 -0.0216135
v -0.0155564 0.00777631 -0.0194029
v -0.0163744 0.00823061 -0.0234938
v -0.0165656 0.00980145 -0.0267343
v -0.0163133 0.0115499 -0.0289971
v -0.0170309 0.00126479 -0.0180396
v -0.0176273 0.00305996 -0.0216109
v -0.0174313 0.00521975 -0.0229115
v -0.0188058 0.00464884 -0.0271501
v -0.0194368 0.00197724 -0.027636
v -0.0186516 0.00276935 -0.0253242
v -0.0164719 0.00681153 -0.0216287
v -0.0176249 0.00942068 -0.029004
v -0.0195666 0.00801488 -0.0323578
v -0.0189636 0.00631708 -0.0289971
v 0.00914641 0.00378857 0.015
v 0.00700036 0.00700036 0.015
v 0.00550015 0.00823155 0.015
v -0.000800888 0.00991052 0.015
v 0.00998513 5.51166e-05 0.015
v 0.00823155 0.00550015 0.015
v 0.00288187 0.00950026 0.015
v -0.00535798 0.0084674 0.015
v -0.00915923 0.00406365 0.015
f 5 385 2
f 8 5 2
f 2 3 8
f 5 8 9
f 10 11 12
f 11 13 17
f 3 4 16
f 16 8 3
f 12 16 10
f 17 12 11
f 17 13 14
f 16 4 10
f 8 18 9
f 8 19 7
f 18 8 7
f 19 16 12
f 6 5 9
f 19 8 16
f 20 17 21
f 20 12 17
f 17 14 22
f 21 17 22
f 11 10 413
f 19 12 20
f 15 14 13
f 15 13 23
f 25 26 27
f 23 24 15
f 28 24 23
f 24 28 30
f 15 22 14
f 35 33 34
f 27 36 31
f 26 36 27
f 32 34 33
f 36 32 31
f 31 28 27
f 36 26 32
f 31 32 38
f 28 23 27
f 30 84 24
f 39 32 37
f 32 33 37
f 82 40 33
f 37 33 40
f 32 26 34
f 35 34 505
f 39 38 32
f 15 24 22
f 41 42 43
f 44 45 46
f 44 43 47
f 46 48 49
f 50 51 52
f 50 53 41
f 54 49 55
f 56 61 57
f 58 56 57
f 54 56 58
f 111 52 51
f 52 53 50
f 41 53 42
f 42 47 43
f 44 47 45
f 46 45 48
f 48 55 49
f 437 61 56
f 55 56 54
f 6 59 1
f 6 1 5
f 6 560 60
f 83 437 59
f 83 59 6
f 63 61 83
f 62 229 63
f 65 229 62
f 62 64 65
f 66 67 64
f 68 69 70
f 68 67 71
f 70 72 73
f 74 75 76
f 76 77 78
f 272 79 78
f 80 74 73
f 83 82 81
f 82 6 60
f 33 35 81
f 81 82 33
f 82 83 6
f 72 80 73
f 70 69 72
f 75 77 76
f 74 80 75
f 69 68 71
f 64 62 66
f 66 71 67
f 272 78 77
f 83 62 63
f 61 437 83
f 39 37 40
f 31 30 28
f 30 31 38
f 9 18 6
f 6 18 7
f 22 84 21
f 84 22 24
f 84 20 21
f 19 20 84
f 7 19 84
f 87 56 55
f 88 55 48
f 88 48 45
f 88 87 55
f 47 42 88
f 42 53 91
f 88 42 91
f 91 53 52
f 111 91 52
f 47 88 45
f 93 94 88
f 96 97 88
f 93 88 97
f 91 96 88
f 88 94 86
f 91 111 92
f 89 88 90
f 85 94 93
f 93 104 85
f 97 96 105
f 98 96 91
f 93 105 106
f 98 105 96
f 105 93 97
f 100 103 106
f 100 106 157
f 100 99 103
f 108 106 105
f 103 93 106
f 106 108 107
f 105 98 108
f 93 103 102
f 111 112 95
f 111 51 112
f 112 50 41
f 51 50 112
f 41 43 112
f 95 92 111
f 49 54 112
f 112 46 49
f 44 112 43
f 112 44 46
f 115 92 95
f 112 117 113
f 113 114 112
f 95 112 114
f 114 113 120
f 119 117 112
f 114 115 95
f 115 114 120
f 54 58 112
f 58 57 119
f 121 57 61
f 119 57 121
f 113 117 122
f 121 61 133
f 133 122 117
f 133 61 226
f 133 117 119
f 119 121 133
f 122 133 131
f 112 58 119
f 115 116 92
f 92 116 98
f 120 113 118
f 118 128 120
f 120 128 125
f 120 98 116
f 115 120 116
f 98 120 126
f 108 109 126
f 108 126 127
f 125 126 120
f 109 98 126
f 126 125 129
f 109 108 98
f 113 122 118
f 131 118 122
f 131 133 132
f 118 131 137
f 128 135 136
f 137 135 128
f 128 118 137
f 137 132 123
f 137 123 254
f 137 131 132
f 123 133 134
f 133 123 132
f 125 128 139
f 92 98 91
f 148 144 100
f 150 145 149
f 149 145 151
f 151 145 152
f 145 148 153
f 145 147 148
f 151 152 154
f 152 153 154
f 152 145 153
f 155 148 100
f 155 100 156
f 157 156 100
f 153 148 155
f 157 106 161
f 161 106 107
f 157 161 164
f 110 107 108
f 156 157 158
f 155 156 158
f 153 155 158
f 153 158 159
f 161 107 162
f 166 165 161
f 161 165 164
f 166 161 162
f 163 158 157
f 167 168 169
f 154 153 159
f 154 168 167
f 151 154 167
f 168 154 171
f 171 174 172
f 172 173 175
f 172 168 171
f 176 171 177
f 159 170 177
f 174 173 172
f 154 159 171
f 173 174 331
f 168 172 178
f 163 164 179
f 159 158 160
f 170 159 160
f 164 165 166
f 164 166 180
f 160 179 170
f 180 179 164
f 141 180 166
f 179 160 163
f 163 157 164
f 182 183 177
f 176 174 171
f 182 177 170
f 184 182 185
f 179 181 185
f 183 176 177
f 170 179 182
f 176 183 331
f 179 180 181
f 177 171 159
f 163 160 158
f 174 176 331
f 151 167 186
f 108 141 110
f 141 127 187
f 162 107 141
f 126 129 130
f 130 129 189
f 130 189 190
f 130 187 127
f 126 130 127
f 187 130 190
f 188 191 187
f 141 192 180
f 191 141 187
f 194 191 188
f 193 195 190
f 203 193 190
f 188 190 195
f 197 198 190
f 188 187 190
f 139 197 189
f 166 162 141
f 128 136 139
f 139 136 199
f 139 199 197
f 139 189 129
f 200 138 135
f 136 135 138
f 138 200 201
f 135 137 202
f 138 199 136
f 129 125 139
f 199 138 205
f 204 198 197
f 206 210 197
f 204 197 210
f 203 198 204
f 198 203 190
f 201 205 138
f 197 199 205
f 201 208 205
f 207 201 200
f 206 205 208
f 205 206 197
f 200 135 202
f 197 190 189
f 141 108 127
f 180 192 181
f 211 192 191
f 192 141 191
f 211 191 194
f 192 211 185
f 181 192 185
f 195 203 213
f 203 195 193
f 188 195 213
f 196 188 213
f 196 213 212
f 196 211 194
f 194 188 196
f 211 196 212
f 212 216 185
f 184 183 182
f 212 217 216
f 212 214 217
f 212 213 214
f 216 184 185
f 185 211 212
f 184 216 331
f 185 182 179
f 204 210 218
f 203 204 218
f 215 203 218
f 215 218 219
f 206 220 210
f 214 213 215
f 206 208 220
f 220 208 225
f 220 218 210
f 218 220 221
f 215 219 217
f 222 217 219
f 214 215 217
f 222 221 223
f 222 223 331
f 223 221 224
f 222 219 221
f 219 218 221
f 217 222 331
f 221 220 224
f 213 203 215
f 216 217 331
f 208 201 225
f 107 110 141
f 183 184 331
f 226 63 229
f 63 226 61
f 227 229 65
f 229 227 228
f 226 229 124
f 124 229 230
f 124 230 134
f 228 230 229
f 234 228 227
f 227 237 234
f 237 227 233
f 227 65 233
f 228 234 236
f 230 228 232
f 226 124 133
f 65 64 239
f 67 239 64
f 237 65 239
f 237 239 238
f 67 68 239
f 68 70 239
f 76 243 74
f 239 73 243
f 70 73 239
f 74 243 73
f 76 78 243
f 237 238 235
f 240 242 238
f 234 237 235
f 240 238 239
f 262 240 243
f 245 243 244
f 242 240 248
f 246 247 243
f 242 235 238
f 243 240 239
f 235 242 248
f 78 79 243
f 233 65 237
f 234 235 249
f 231 134 133
f 231 124 134
f 232 250 134
f 232 134 230
f 134 250 254
f 232 228 236
f 232 236 251
f 251 250 232
f 250 251 253
f 254 260 140
f 260 254 252
f 252 254 250
f 254 140 137
f 252 250 253
f 260 253 255
f 260 255 257
f 258 259 253
f 260 252 253
f 249 258 251
f 134 254 123
f 235 241 249
f 249 241 261
f 249 261 258
f 249 251 236
f 240 263 248
f 245 262 243
f 241 235 248
f 248 261 241
f 236 234 249
f 261 248 265
f 265 270 258
f 259 255 253
f 248 268 265
f 258 261 265
f 268 270 265
f 264 295 263
f 270 259 258
f 268 248 263
f 259 270 267
f 258 253 251
f 262 263 240
f 255 259 271
f 247 264 244
f 124 231 133
f 79 246 243
f 246 79 272
f 246 272 247
f 77 75 272
f 247 244 243
f 273 72 69
f 80 273 75
f 284 71 66
f 273 80 72
f 273 69 71
f 75 273 272
f 272 273 275
f 247 272 275
f 262 245 264
f 264 276 277
f 279 276 247
f 264 247 276
f 275 279 247
f 245 244 264
f 274 275 273
f 273 281 274
f 281 273 284
f 273 71 284
f 278 280 274
f 281 284 282
f 280 275 274
f 283 284 66
f 264 263 262
f 554 281 286
f 281 554 289
f 274 281 289
f 62 283 66
f 277 279 287
f 279 277 276
f 280 279 275
f 264 277 287
f 264 287 288
f 280 287 279
f 278 274 289
f 293 278 289
f 293 289 291
f 292 291 289
f 293 280 278
f 287 280 293
f 295 264 288
f 295 288 294
f 268 295 307
f 295 294 296
f 293 291 297
f 288 298 302
f 298 293 297
f 298 297 300
f 298 288 293
f 288 287 293
f 294 288 302
f 292 289 290
f 263 295 268
f 291 303 304
f 303 291 292
f 304 301 291
f 306 301 304
f 301 297 291
f 297 301 299
f 270 268 307
f 140 260 202
f 202 260 308
f 202 308 209
f 256 308 260
f 257 255 271
f 256 257 309
f 256 309 310
f 271 309 257
f 260 257 256
f 308 256 311
f 311 313 209
f 209 207 200
f 310 311 256
f 308 311 209
f 310 313 311
f 313 310 315
f 313 207 209
f 271 314 309
f 207 313 312
f 202 209 200
f 259 267 266
f 266 267 316
f 266 316 314
f 314 271 266
f 270 307 269
f 269 307 318
f 269 318 317
f 269 316 267
f 270 269 267
f 316 269 317
f 309 319 325
f 319 309 314
f 317 321 314
f 322 321 317
f 317 318 322
f 321 322 323
f 321 319 314
f 314 316 317
f 319 321 324
f 296 349 318
f 259 266 271
f 310 309 325
f 312 326 225
f 312 225 207
f 225 326 224
f 312 313 315
f 312 315 327
f 327 326 312
f 326 327 328
f 331 224 330
f 331 330 332
f 328 332 224
f 224 331 223
f 224 326 328
f 333 332 328
f 328 340 333
f 328 329 340
f 332 333 331
f 332 330 224
f 327 329 328
f 331 333 340
f 325 334 327
f 225 224 220
f 315 310 325
f 325 319 320
f 325 320 335
f 325 335 334
f 329 327 334
f 320 319 324
f 324 321 323
f 324 323 336
f 324 336 337
f 324 335 320
f 335 324 337
f 340 334 338
f 340 338 331
f 339 338 334
f 329 334 340
f 342 341 337
f 341 342 331
f 339 337 341
f 339 341 331
f 337 343 342
f 339 334 337
f 334 335 337
f 338 339 331
f 327 315 325
f 207 225 201
f 294 302 296
f 296 302 344
f 296 344 345
f 297 299 300
f 300 299 346
f 300 346 347
f 300 344 302
f 298 300 302
f 344 300 347
f 349 296 345
f 349 345 348
f 322 349 323
f 322 318 349
f 349 348 350
f 345 352 356
f 352 347 351
f 352 351 354
f 355 363 347
f 352 345 347
f 345 344 347
f 348 345 356
f 305 355 346
f 318 307 296
f 305 299 301
f 306 357 362
f 305 346 299
f 305 362 355
f 305 306 362
f 362 363 355
f 363 351 347
f 149 361 364
f 362 186 365
f 362 365 363
f 149 186 360
f 149 360 361
f 362 360 186
f 149 364 366
f 362 358 360
f 355 347 346
f 307 295 296
f 351 363 368
f 349 350 323
f 323 350 369
f 336 323 369
f 336 369 343
f 354 351 353
f 352 354 356
f 356 354 370
f 353 370 354
f 356 370 372
f 356 369 350
f 348 356 350
f 369 356 372
f 342 373 331
f 373 342 343
f 373 343 374
f 373 374 331
f 372 375 343
f 343 369 372
f 376 375 372
f 377 372 378
f 375 376 331
f 353 371 378
f 375 374 343
f 370 353 372
f 374 375 331
f 343 337 336
f 368 363 367
f 367 371 368
f 371 353 368
f 151 186 149
f 367 379 380
f 186 169 365
f 365 169 379
f 365 379 367
f 353 351 368
f 371 367 380
f 377 378 381
f 377 381 331
f 380 382 378
f 377 376 372
f 178 380 379
f 378 371 380
f 380 178 175
f 175 382 380
f 175 178 172
f 382 175 331
f 169 168 178
f 382 381 378
f 379 169 178
f 381 382 331
f 186 167 169
f 378 372 353
f 363 365 367
f 376 377 331
f 301 306 305
f 331 175 173
f 140 202 137
f 284 285 282
f 284 283 285
f 281 282 286
f 292 290 303
f 357 358 362
f 358 359 360
f 359 361 360
f 149 366 150
f 361 366 364
f 143 145 150
f 145 143 142
f 145 142 146
f 145 146 147
f 148 147 144
f 99 102 103
f 101 99 100
f 104 93 102
f 90 88 383
f 86 383 88
f 87 88 89
f 384 5 1
f 1 59 384
f 388 386 384
f 386 5 384
f 389 2 385
f 385 5 386
f 384 387 388
f 384 59 387
f 385 388 389
f 388 385 386
f 396 2 389
f 396 391 2
f 3 2 391
f 3 391 390
f 390 392 3
f 393 392 390
f 393 390 391
f 394 4 3
f 10 4 394
f 395 396 389
f 399 387 59
f 439 388 387
f 389 388 400
f 397 395 389
f 402 400 388
f 437 398 59
f 398 399 59
f 387 399 439
f 402 388 439
f 401 396 397
f 397 389 400
f 401 397 400
f 397 396 395
f 396 445 393
f 391 396 393
f 403 392 393
f 392 404 405
f 403 404 392
f 3 405 394
f 405 3 392
f 428 416 394
f 406 403 393
f 394 405 407
f 407 404 403
f 405 404 407
f 407 428 394
f 409 445 396
f 394 410 411
f 10 411 410
f 410 412 10
f 394 416 410
f 415 11 413
f 10 412 413
f 418 412 410
f 412 415 413
f 11 415 417
f 414 11 417
f 11 414 420
f 13 11 422
f 11 420 422
f 13 422 421
f 13 421 424
f 424 421 431
f 424 425 13
f 420 414 427
f 417 415 426
f 426 415 412
f 414 417 419
f 414 419 427
f 419 417 426
f 418 410 416
f 426 412 418
f 418 416 429
f 419 426 427
f 426 418 455
f 423 422 420
f 435 423 420
f 424 432 436
f 432 424 431
f 431 421 422
f 420 427 434
f 434 427 461
f 432 431 463
f 431 422 462
f 422 423 435
f 435 420 465
f 427 426 433
f 10 394 411
f 469 436 432
f 399 398 437
f 441 439 399
f 441 399 437
f 438 400 402
f 438 401 400
f 56 440 437
f 441 437 440
f 442 401 438
f 439 438 402
f 443 439 441
f 401 444 409
f 408 403 406
f 445 406 393
f 445 85 406
f 408 407 403
f 416 428 429
f 409 396 401
f 429 428 447
f 407 408 451
f 449 445 444
f 445 409 444
f 446 407 451
f 428 446 447
f 458 447 446
f 407 446 428
f 449 444 401
f 441 440 56
f 87 441 56
f 443 438 439
f 90 438 443
f 450 85 445
f 90 443 441
f 90 441 87
f 438 90 86
f 94 449 442
f 449 401 442
f 449 94 85
f 86 94 442
f 442 438 86
f 449 450 445
f 408 406 451
f 85 451 406
f 446 451 448
f 448 451 453
f 104 102 451
f 451 85 104
f 102 452 453
f 448 453 452
f 454 452 102
f 454 102 458
f 454 448 452
f 451 102 453
f 449 85 450
f 458 446 448
f 418 429 455
f 429 447 455
f 426 456 430
f 426 430 433
f 456 426 455
f 447 458 455
f 455 457 456
f 430 456 459
f 460 457 455
f 427 433 461
f 420 434 465
f 422 435 462
f 431 464 463
f 464 431 462
f 433 430 466
f 434 461 465
f 461 433 467
f 435 465 462
f 464 462 468
f 462 465 468
f 465 461 468
f 100 460 458
f 460 455 458
f 456 457 459
f 430 459 466
f 459 457 470
f 466 459 470
f 144 460 100
f 457 460 470
f 100 458 101
f 144 470 460
f 470 144 147
f 147 466 470
f 102 101 458
f 461 467 471
f 468 461 471
f 464 468 463
f 463 468 473
f 146 471 467
f 146 142 471
f 466 146 467
f 142 143 472
f 473 472 143
f 150 473 143
f 473 468 472
f 471 142 472
f 472 468 471
f 147 146 466
f 467 433 466
f 474 469 463
f 448 454 458
f 432 463 469
f 13 425 23
f 484 29 23
f 475 23 425
f 476 23 29
f 476 477 23
f 484 475 424
f 475 425 424
f 490 29 484
f 475 484 23
f 23 477 27
f 29 490 476
f 476 486 477
f 479 478 27
f 25 27 478
f 481 26 25
f 491 478 479
f 477 479 27
f 26 481 483
f 481 25 482
f 497 477 486
f 484 424 436
f 487 497 486
f 489 476 490
f 488 436 469
f 521 485 484
f 484 436 488
f 525 484 488
f 522 487 486
f 486 476 489
f 490 484 485
f 530 478 491
f 478 492 480
f 25 480 482
f 478 530 492
f 480 25 478
f 497 529 477
f 529 491 479
f 493 491 529
f 482 480 494
f 480 495 494
f 492 495 480
f 496 492 530
f 533 483 482
f 479 477 529
f 483 481 482
f 498 26 483
f 34 26 498
f 500 498 483
f 498 499 34
f 501 499 498
f 508 500 483
f 34 499 502
f 513 501 498
f 34 502 503
f 505 34 503
f 81 35 506
f 35 505 504
f 505 503 518
f 35 504 506
f 506 504 516
f 504 505 514
f 503 502 507
f 81 506 83
f 508 483 533
f 508 509 500
f 500 513 498
f 502 499 507
f 507 499 510
f 499 501 510
f 513 500 512
f 510 501 513
f 507 510 511
f 510 552 511
f 505 515 514
f 515 505 518
f 546 83 506
f 546 506 516
f 516 504 514
f 518 507 517
f 503 507 518
f 514 515 518
f 519 516 514
f 517 507 511
f 482 494 533
f 520 533 494
f 523 488 469
f 521 484 525
f 526 489 490
f 522 486 489
f 521 490 485
f 528 490 521
f 469 474 523
f 524 521 525
f 525 488 523
f 490 528 526
f 489 527 522
f 527 489 526
f 522 532 497
f 530 491 493
f 531 493 529
f 496 495 492
f 497 487 522
f 529 497 532
f 306 530 531
f 530 493 531
f 520 494 534
f 534 533 520
f 494 495 534
f 537 496 530
f 535 536 533
f 508 533 509
f 150 523 474
f 361 524 525
f 361 525 523
f 359 526 528
f 359 527 526
f 524 528 521
f 359 528 524
f 361 523 150
f 361 359 524
f 531 532 357
f 358 357 532
f 532 531 529
f 527 359 358
f 358 532 527
f 527 532 522
f 473 150 474
f 306 537 530
f 496 537 534
f 533 534 535
f 534 495 496
f 535 534 540
f 304 537 306
f 304 539 537
f 304 538 539
f 534 539 538
f 303 540 304
f 538 304 540
f 540 534 538
f 539 534 537
f 531 357 306
f 463 473 474
f 500 536 512
f 509 533 536
f 510 513 542
f 510 542 552
f 542 513 543
f 536 544 512
f 545 536 535
f 513 541 543
f 544 543 541
f 541 512 544
f 541 513 512
f 545 544 536
f 518 517 548
f 546 516 519
f 547 519 518
f 519 514 518
f 551 546 547
f 546 519 547
f 551 547 548
f 547 518 548
f 517 552 548
f 517 511 552
f 550 83 546
f 540 545 535
f 303 290 545
f 552 543 554
f 552 542 543
f 543 544 554
f 548 552 555
f 289 553 544
f 544 290 289
f 289 554 553
f 545 290 544
f 286 555 554
f 555 552 554
f 554 544 553
f 548 555 549
f 540 303 545
f 551 548 549
f 83 550 62
f 550 546 551
f 549 286 282
f 282 550 549
f 555 286 549
f 62 550 283
f 282 283 550
f 550 551 549
f 536 500 509
f 6 7 556
f 7 84 558
f 556 560 6
f 556 7 561
f 557 7 558
f 562 558 84
f 7 557 561
f 559 562 84
f 30 38 563
f 39 40 564
f 40 82 60
f 38 39 564
f 30 563 559
f 564 563 38
f 40 60 564
f 559 84 30
f 564 557 563
f 562 559 563
f 564 60 560
f 561 564 556
f 560 556 564
f 561 557 564
f 563 558 562
f 557 558 563
