v -0.0158425 5.3056e-07 -0.00185491
v -0.0151309 -0.00404096 -0.00111718
v -0.0139399 -0.00743117 -0.0013328
v -0.013978 -0.00421384 -0.000216165
v -0.013379 -0.00844026 -0.0017178
v -0.0155592 -1.22608e-05 -0.000662031
v -0.0137571 -0.00290869 -6.34342e-05
v -0.0115269 -0.00809558 -7.2595e-05
v -0.0117053 -0.0106865 -0.00179193
v -0.00741556 -0.0141256 -0.00180786
v -0.00911727 -0.011798 -0.000437989
v -0.00270568 -0.0156922 -0.00166763
v -0.00148739 -0.0151017 -0.000732233
v -0.0111871 -0.00977416 -0.000400622
v -0.00648936 -0.0132899 -0.000341659
v -0.00951636 -0.00951636 7.19224e-08
v -0.00718189 -0.0120436 -3.82511e-05
v -0.0042007 -0.0140884 -0.0002328
v 0.00322528 -0.0154938 -0.00147656
v 0.00868269 -0.0132063 -0.00176441
v 0.0106058 -0.011804 -0.00187833
v 0.00697653 -0.0141536 -0.00114628
v 0.00530818 -0.0143111 -0.000655449
v 0.00316782 -0.0155321 -0.00262442
v 0.00268534 -0.0100711 0.000413036
v 0.00116875 -0.0147163 -0.000292701
v 0.00780874 -0.0118531 -9.11988e-05
v 0.0110473 -0.0105442 -0.000537047
v 0.0137246 -0.00810742 -0.00197536
v 0.0159595 -0.000545836 -0.00164962
v 0.0148419 -5.46671e-05 -0.000253062
v 0.0107302 -0.0107302 -0.000732233
v 0.0102919 -0.00972533 -9.0146e-05
v 0.00819172 -0.00608884 0.000192296
v 0.0136542 -0.00613996 -0.000329325
v 0.0134452 -0.00446282 -0.000100531
v 0.015907 8.81195e-17 -0.0025
v -0.0262538 -1.48653e-16 -0.0581845
v -0.0259974 -1.47201e-16 -0.0410341
v -0.0256123 -1.4502e-16 -0.060013
v -0.0248436 -1.40668e-16 -0.0617917
v -0.0244799 -1.38609e-16 -0.0374707
v -0.0239516 -1.35617e-16 -0.0635119
v -0.0253015 -1.4326e-16 -0.0392257
v -0.0235369 -1.33269e-16 -0.035778
v -0.0229406 -1.29893e-16 -0.065165
v -0.026765 -1.51547e-16 -0.0563154
v -0.0271433 -1.53689e-16 -0.054415
v -0.0269991 -1.52873e-16 -0.0447754
v -0.0265642 -1.5041e-16 -0.0428871
v -0.0218158 -1.23524e-16 -0.0667428
v -0.0224769 -1.27267e-16 -0.0341558
v -0.0211036 -2.67929e-07 -0.0322459
v -0.0130721 1.51068e-08 -0.0743576
v -0.0193122 2.08102e-07 -0.0696349
v -0.0162089 9.80151e-11 -0.0121488
v -0.00998513 -5.51166e-05 0.015
v 0.01772 -4.87687e-11 -0.0211581
v -0.00379622 -2.57879e-06 -0.0773645
v 0.021105 -1.31869e-06 -0.0322008
v 0.00425234 -5.41084e-06 -0.0772872
v 0.00949137 5.37414e-17 -0.0758101
v 0.0218158 1.23524e-16 -0.0667428
v 0.0164786 -4.87974e-07 -0.0723176
v 0.0224769 1.27267e-16 -0.0341558
v 0.0229406 1.29893e-16 -0.065165
v 0.0239516 1.35617e-16 -0.0635119
v 0.0244799 1.38609e-16 -0.0374707
v 0.0248436 1.40668e-16 -0.0617917
v 0.0235369 1.33269e-16 -0.035778
v 0.0253015 1.4326e-16 -0.0392257
v 0.0256123 1.4502e-16 -0.060013
v 0.0262538 1.48653e-16 -0.0581845
v 0.0265642 1.5041e-16 -0.0428871
v 0.026765 1.51547e-16 -0.0563154
v 0.0269991 1.52873e-16 -0.0447754
v 0.0271433 1.53689e-16 -0.054415
v 0.0275797 -1.47333e-07 -0.0493515
v 0.0259974 1.47201e-16 -0.0410341
v 0.0162501 -1.8754e-11 -0.0118079
v 0.0104721 1.0581e-05 0.000491809
v -0.0102074 -5.12253e-05 5.45563e-17
v -0.00740375 -0.00686143 0.000135915
v -0.00147668 -0.00994033 0.000106775
v -0.01781 -0.0109069 -0.031865
v -0.020388 -0.00618462 -0.0326123
v -0.0212028 -0.00208829 -0.0326123
v -0.0230318 -0.00364533 -0.0349644
v -0.0210494 -0.00312238 -0.0326123
v -0.020896 -0.00415647 -0.0326123
v -0.0265955 -0.00540832 -0.0447194
v -0.0269634 -0.00664361 -0.0503594
v -0.0204907 -0.0113723 -0.0352154
v -0.0190032 -0.0101596 -0.0326729
v -0.0268195 -0.00547732 -0.0539644
v -0.024815 -0.0093507 -0.0423797
v -0.0234043 -0.00933484 -0.0388296
v -0.0249602 -0.0119968 -0.0520395
v -0.0142906 -0.0157672 -0.0326123
v -0.0136791 -0.0168993 -0.0329099
v -0.013516 -0.0164693 -0.0326123
v -0.0157672 -0.0142906 -0.0326123
v -0.0182259 -0.0157926 -0.0365488
v -0.0177148 -0.0118366 -0.0326123
v -0.0232384 -0.0130367 -0.0429259
v -0.0199714 -0.0168182 -0.0409742
v -0.0181099 -0.0204355 -0.046166
v -0.021915 -0.0167529 -0.0485024
v -0.0226485 -0.0154442 -0.0533254
v -0.0193518 -0.0194454 -0.048094
v -0.0276478 -7.66827e-06 -0.0505332
v -0.0191165 -0.00880837 -0.0681759
v -0.0249552 -0.00306998 -0.0620321
v -0.0241748 -0.00669868 -0.061423
v -0.0258773 -0.00804491 -0.0551315
v -0.0246691 -0.0105459 -0.0561661
v -0.0172577 -0.00560127 -0.071002
v -0.0161511 -0.0121785 -0.0689864
v -0.0162478 -0.00262957 -0.0722392
v -0.0222621 -0.01151 -0.0615472
v -0.00776623 -0.00274809 -0.0763244
v -0.013193 -0.00904231 -0.0724404
v -0.00520754 -0.0102942 -0.0751153
v -1.11061e-15 -0.00269547 -0.0773676
v 0.00398758 -0.00681167 -0.0765308
v -0.0178169 -0.0166374 -0.0628321
v -0.0205041 -0.0168182 -0.0577397
v -0.0188757 -0.0194606 -0.0547068
v -0.0159971 -0.0145429 -0.067473
v -0.0156376 -0.0194606 -0.061572
v -0.0167429 -0.0204085 -0.0578776
v -0.00863412 -0.0120373 -0.0732326
v -0.00616112 -0.0118414 -0.0741117
v -0.00629729 -0.00756261 -0.0759763
v 0.00234527 -0.0107535 -0.0752911
v -0.0070837 -0.0190869 -0.0688854
v -0.0100188 -0.0194606 -0.0666754
v -0.00522198 -0.0159575 -0.0719576
v -0.0062688 -0.0204085 -0.0674093
v -0.0124538 -0.0204085 -0.0636851
v 0.00195204 -0.0175954 -0.0711184
v -0.0186999 -0.0202129 -0.0506399
v -0.00415647 -0.020896 -0.0326123
v -0.00182726 -0.0212156 -0.0326123
v -0.0100433 -0.0187897 -0.0326123
v -0.00356475 -0.0216533 -0.033248
v -0.00618462 -0.020388 -0.0326123
v -0.00815322 -0.0196836 -0.0326123
v -0.00879545 -0.020702 -0.0341103
v 0.00145859 -0.022897 -0.0347915
v -4.54144e-16 -0.0213054 -0.0326123
v -0.00122807 -0.0243117 -0.0370806
v -0.0043753 -0.0236817 -0.0366329
v -0.00706221 -0.0236679 -0.0377607
v -0.00494028 -0.025413 -0.0406868
v -0.0111205 -0.0213436 -0.0365163
v -0.0129282 -0.021331 -0.038181
v -0.0147819 -0.0213682 -0.0407492
v -0.0109354 -0.0238334 -0.0415558
v -0.00618862 -0.025836 -0.0427664
v -0.00874714 -0.025413 -0.0441154
v -0.0162887 -0.0213879 -0.0436035
v -0.0161024 -0.0221859 -0.047304
v -0.0114327 -0.0242528 -0.0438891
v -0.0129774 -0.0237631 -0.0449804
v -0.0146203 -0.0228654 -0.045565
v -0.0128267 -0.0242574 -0.0480743
v -0.0139105 -0.0237631 -0.0503288
v -0.00153816 -0.0254487 -0.0396305
v -0.00116974 -0.026333 -0.0421142
v -0.0037423 -0.0263184 -0.0429291
v 0.000782454 -0.0263159 -0.0420556
v -0.00641423 -0.026321 -0.0451958
v -0.00274035 -0.0269729 -0.0453577
v -0.000788183 -0.0269763 -0.0446864
v -0.000397132 -0.0273679 -0.0473226
v -0.00136306 -0.0273677 -0.0476574
v 0.000396179 -0.0273675 -0.0473292
v -0.0021558 -0.0273677 -0.0483573
v -0.00430829 -0.0269729 -0.0467598
v 0.000789316 -0.0269701 -0.044679
v -0.00827056 -0.0260749 -0.0468435
v -0.0104338 -0.0254205 -0.048413
v -0.00794439 -0.0263159 -0.0492175
v -0.00513772 -0.0269723 -0.0484085
v -0.0025777 -0.0273677 -0.0491857
v -0.00270857 -0.0273677 -0.0500978
v -0.0053859 -0.0269729 -0.0502284
v 0.00380063 -0.0244428 -0.0377129
v -0.0164871 -0.0218838 -0.0529745
v -0.0120913 -0.0243584 -0.0546231
v -0.0140314 -0.021269 -0.0603794
v -0.0131376 -0.0229168 -0.0578281
v -0.012792 -0.0243351 -0.0523041
v -0.00899741 -0.0260075 -0.0509034
v -0.0107787 -0.0242528 -0.0572021
v -0.0100706 -0.0254067 -0.0530549
v -0.0102612 -0.0249496 -0.0555515
v -0.00835577 -0.0260208 -0.0533565
v -0.00914192 -0.0229168 -0.0622597
v -0.00916652 -0.0242528 -0.0591665
v -0.00899132 -0.021269 -0.0649589
v -0.00301008 -0.0212296 -0.0673315
v -0.0026057 -0.0237325 -0.0637137
v -0.00838511 -0.0250774 -0.0577024
v -0.00735567 -0.0249496 -0.0590557
v -0.00509855 -0.0234784 -0.0634583
v -0.00493257 -0.0250603 -0.0603259
v 0.00180012 -0.0238993 -0.0636041
v -0.00288807 -0.0250182 -0.06116
v 0.00219125 -0.0224248 -0.065895
v -0.00643254 -0.0249496 -0.0597331
v 0.00191319 -0.0201028 -0.068746
v -0.00775495 -0.0263169 -0.051919
v -0.0048885 -0.0269729 -0.0522722
v -0.00643025 -0.0263169 -0.0547406
v -0.00414719 -0.0269716 -0.0534035
v -0.00463721 -0.0267098 -0.0548258
v -0.00246496 -0.0273677 -0.0511269
v -0.00184609 -0.0273677 -0.0519844
v -0.00412661 -0.0263169 -0.0568405
v -0.00277943 -0.026972 -0.0545943
v -0.0019589 -0.0263068 -0.0578204
v -0.00131534 -0.0269686 -0.0552512
v -0.00117327 -0.0273676 -0.0524297
v -0.000527985 -0.0273675 -0.0526544
v -9.4165e-05 -0.0268449 -0.0560939
v 0.00071824 -0.0251505 -0.0611831
v 0.00808219 -0.00274535 -0.0762305
v 0.00526653 -0.00541092 -0.0765311
v 0.013802 -0.00431245 -0.0734611
v 0.0123143 -0.0069846 -0.0737092
v -1.06787e-15 -0.00798283 -0.0763159
v 0.00972411 -0.0105951 -0.0735281
v 0.0181067 -0.00438899 -0.0703027
v 0.0166946 -0.00798283 -0.0703424
v 0.0212149 -0.00813432 -0.0657589
v 0.0151372 -0.0105459 -0.0704316
v 0.0224843 -0.00541093 -0.0650363
v 0.0221644 -0.00262319 -0.0663536
v 0.0257589 -0.00502954 -0.0586351
v 0.0218038 -0.0105459 -0.0630836
v 0.0243127 -0.00798283 -0.0600706
v 0.0271345 -0.0026554 -0.0538353
v 0.0265386 -0.00644321 -0.0536959
v 0.0259115 -0.00673532 -0.0565577
v 0.0271189 -0.00510275 -0.0488703
v 0.0234514 -0.0117838 -0.0584099
v 0.018448 -0.0117838 -0.0667442
v 0.0047157 -0.0130367 -0.0738291
v 0.0124684 -0.0131412 -0.0708608
v 0.00663748 -0.0152782 -0.0718808
v 0.0117394 -0.0154442 -0.0696519
v 0.00204226 -0.01468 -0.0732608
v 0.0117966 -0.017505 -0.0677077
v 0.00753261 -0.0205954 -0.0666636
v 0.0107858 -0.0194923 -0.0661985
v 0.0183663 -0.0154442 -0.0636635
v 0.0170611 -0.017588 -0.0626989
v 0.00667217 -0.0182776 -0.0694994
v 0.020809 -0.0129863 -0.0624903
v 0.0247741 -0.0115532 -0.0534716
v 0.0237868 -0.0129634 -0.0547315
v 0.0247683 -0.0120373 -0.0490861
v 0.0215352 -0.0152998 -0.057724
v 0.0148399 -0.0204085 -0.0610525
v 0.0175771 -0.0194606 -0.0583362
v 0.0220549 -0.0162139 -0.0531145
v 0.0179399 -0.0204085 -0.0545322
v 0.0203525 -0.017505 -0.0562046
v 0.0130449 -0.0204036 -0.0630992
v 0.0268708 -0.00428434 -0.0456022
v 0.0236703 -0.0069237 -0.0375634
v 0.0246723 -0.00476745 -0.038306
v 0.0255594 -0.00669099 -0.042253
v 0.0261891 -0.00798283 -0.0474206
v 0.0252843 -0.0105238 -0.0475097
v 0.0251444 -0.00954982 -0.04401
v 0.0235574 -0.0105598 -0.0402718
v 0.0197082 -0.00769043 -0.0323644
v 0.0208493 -0.00536498 -0.0328894
v 0.020642 -0.00517055 -0.0326123
v 0.0212028 -0.00208829 -0.0326123
v 0.021462 -0.00204085 -0.0328151
v 0.0210494 -0.00312238 -0.0326123
v 0.0194664 -0.00911395 -0.0326791
v 0.0235461 -0.0129863 -0.0441178
v 0.021568 -0.0162139 -0.0444373
v 0.0194813 -0.0129882 -0.0355235
v 0.0224905 -0.0105598 -0.0380097
v 0.0159687 -0.0143823 -0.0327695
v 0.0196519 -0.0154442 -0.0382605
v 0.0210405 -0.0174646 -0.0468984
v 0.0222941 -0.016165 -0.0492012
v 0.0183087 -0.0204085 -0.0473219
v 0.0177077 -0.017505 -0.0382034
v 0.0196396 -0.0174458 -0.041865
v 0.0144281 -0.0194606 -0.036951
v 0.0158902 -0.0204085 -0.0405193
v 0.0144093 -0.0175136 -0.0344264
v 0.0183234 -0.0194606 -0.0434657
v 0.017092 -0.0126763 -0.0326123
v 0.0142906 -0.0157672 -0.0326123
v 0.0111423 -0.020543 -0.0354185
v 0.0107201 -0.0182732 -0.03237
v 0.0194292 -0.0194606 -0.0509752
v 0.00421972 -0.021269 -0.0669354
v 0.0094632 -0.0228992 -0.0622002
v 0.0080016 -0.0237631 -0.0613835
v 0.00651505 -0.022873 -0.0638273
v 0.00400365 -0.025413 -0.0597526
v 0.00552499 -0.0242574 -0.0617349
v 0.0122597 -0.0229168 -0.0591419
v 0.00625466 -0.0254091 -0.0584719
v 0.0157682 -0.021269 -0.0574818
v 0.014825 -0.0229168 -0.0537544
v 0.0165795 -0.0219795 -0.0507526
v 0.0107748 -0.0242656 -0.0572397
v 0.00902059 -0.0254091 -0.0554334
v 0.0122046 -0.0242574 -0.0543911
v 0.0129153 -0.0242656 -0.0513056
v 0.0105392 -0.0254205 -0.0505567
v 0.00869919 -0.025926 -0.0532322
v 0.0068001 -0.025926 -0.0563152
v 0.0015286 -0.0263184 -0.0578528
v 0.00408749 -0.026321 -0.0568932
v 0.00227215 -0.0269729 -0.0548885
v 0.00340351 -0.0269716 -0.0541472
v 0.00037432 -0.0273676 -0.0526721
v -4.7464e-16 -0.0275042 -0.0506073
v 0.000888453 -0.0273676 -0.0525477
v 0.00136843 -0.0273676 -0.0523254
v 0.00430828 -0.0269729 -0.0532402
v 0.00684052 -0.0263169 -0.0541266
v 0.00800234 -0.026321 -0.050431
v 0.0052203 -0.0269729 -0.0513448
v 0.00215417 -0.0273676 -0.0516247
v 0.00242975 -0.0273676 -0.0511733
v 0.00179582 -0.0273676 -0.0520138
v 0.00261195 -0.0273676 -0.0506767
v 0.00269378 -0.0273676 -0.0501541
v 0.00533757 -0.0269729 -0.0492447
v 0.0164402 -0.021269 -0.0441407
v 0.013513 -0.0234999 -0.0451472
v 0.0129465 -0.021269 -0.0382953
v 0.0123071 -0.0229168 -0.0409219
v 0.0125873 -0.0242574 -0.0468705
v 0.0142726 -0.0234784 -0.0481523
v 0.0102206 -0.0254091 -0.0474635
v 0.0100557 -0.0242656 -0.0417907
v 0.0114327 -0.0242528 -0.0438891
v 0.00723358 -0.025836 -0.0438114
v 0.00875022 -0.0254067 -0.0441533
v 0.00912338 -0.022873 -0.0377361
v 0.00843678 -0.025926 -0.0461343
v 0.0100433 -0.0187897 -0.0326123
v 0.00815322 -0.0196836 -0.0326123
v 0.00517055 -0.020642 -0.0326123
v 0.0052078 -0.0210419 -0.0330145
v 0.00208829 -0.0212028 -0.0326123
v 0.00676669 -0.0215149 -0.0340543
v 0.00671054 -0.0242818 -0.0388809
v 0.00170999 -0.0212578 -0.0326382
v 0.00333021 -0.0249496 -0.0388187
v 0.00156622 -0.0212284 -0.0326123
v 0.00346215 -0.025836 -0.0411322
v 0.00588464 -0.025413 -0.0412529
v 0.00775495 -0.0263169 -0.048081
v 0.00663748 -0.0263159 -0.045565
v 0.00480425 -0.026321 -0.0435858
v 0.00464225 -0.0269729 -0.0472596
v 0.00268249 -0.0273676 -0.0497358
v 0.00262253 -0.0273676 -0.0493655
v 0.00244836 -0.0273676 -0.0488661
v 0.0021801 -0.0273676 -0.0484102
v 0.00182809 -0.0273676 -0.0480155
v 0.00324019 -0.0269729 -0.0456917
v 0.00196323 -0.0263169 -0.0422561
v 0.00182978 -0.026972 -0.0449518
v 0.00140579 -0.0273676 -0.047697
v 0.000929462 -0.0273676 -0.047467
v -0.020642 -0.00517055 -0.0326123
v -0.0158852 -0.00117225 -0.006364
v -0.0156177 -0.00275564 -0.00250839
v -0.0157515 -0.00233651 -0.006393
v -0.0162265 -0.00100964 -0.0117661
v -0.0160072 -0.00284119 -0.0118263
v -0.0156637 -0.00361384 -0.0102705
v -0.0154857 -0.00440906 -0.0105084
v -0.01484 -0.00597356 -0.00851249
v -0.0151074 -0.00522028 -0.00834607
v -0.0143508 -0.00708796 -0.00865275
v -0.0152754 -0.0068203 -0.0156165
v -0.0128732 -0.00950359 -0.0084656
v -0.0160005 -0.00522033 -0.0162715
v -0.017093 -0.000839724 -0.0178495
v -0.0170721 -0.00160321 -0.0182957
v -0.0165054 -0.00462438 -0.0182412
v -0.0171174 -0.00340846 -0.0197416
v -0.0146675 -0.00826198 -0.0163001
v -0.0141766 -0.00849716 -0.0140518
v -0.0137584 -0.00871753 -0.0121493
v -0.0159406 -0.00904215 -0.0234938
v -0.0139601 -0.00982659 -0.0178569
v -0.0153415 -0.00919532 -0.0216135
v -0.0165247 -0.00684474 -0.0216135
v -0.011691 -0.0109655 -0.00890739
v -0.0117988 -0.0106938 -0.006393
v -0.0105459 -0.0120402 -0.00865275
v -0.010142 -0.012186 -0.00246615
v -0.00746901 -0.0140799 -0.00642868
v -0.00966116 -0.0127337 -0.00834607
v -0.0119688 -0.0111657 -0.0127794
v -0.00867163 -0.013472 -0.00884184
v -0.0108928 -0.0126966 -0.0156165
v -0.00725529 -0.0144129 -0.010229
v -0.00517405 -0.0152062 -0.0100197
v -0.00279869 -0.0157287 -0.00803576
v -0.0036587 -0.0156401 -0.0100197
v -0.00391957 -0.0156478 -0.0102299
v -0.000634479 -0.0159542 -0.00734371
v 0.000781345 -0.0159047 -0.006393
v -0.00885618 -0.0139829 -0.0140404
v -0.00623425 -0.0150519 -0.012143
v -0.0125037 -0.0113668 -0.0166088
v -0.011398 -0.0132263 -0.0197476
v -0.00838557 -0.0151836 -0.0191132
v -0.00206109 -0.0161929 -0.0124626
v -0.000797155 -0.0162629 -0.012146
v -0.00700364 -0.0159192 -0.019403
v -0.00525745 -0.0159348 -0.015963
v -0.00367023 -0.0163734 -0.0159629
v 0.000361154 -0.0163217 -0.0124902
v -0.0181599 -7.64255e-07 -0.0227562
v -0.017304 -0.00577169 -0.023152
v -0.0186125 -0.00525997 -0.0270646
v -0.0176275 -0.00217775 -0.021272
v -0.0188213 -0.000924629 -0.0253347
v -0.0191921 -0.00238976 -0.0270629
v -0.0188164 -0.00673262 -0.029004
v -0.0196006 -0.00389881 -0.029004
v -0.0174095 -0.00721127 -0.0253347
v -0.0160039 -0.00809291 -0.0220082
v -0.013562 -0.0116952 -0.0215928
v -0.0120116 -0.0132528 -0.0216135
v -0.0139732 -0.012661 -0.0253242
v -0.0182913 -0.00805367 -0.0289898
v -0.0176249 -0.00942068 -0.029004
v -0.0157994 -0.0111547 -0.0270629
v -0.0148076 -0.0134209 -0.029004
v -0.0154483 -0.0126781 -0.029004
v -0.0141313 -0.0141313 -0.029004
v -0.0109082 -0.0141975 -0.02197
v -0.00941528 -0.0147879 -0.0200801
v -0.0100854 -0.0159235 -0.0253315
v -0.012407 -0.0151232 -0.0277131
v -0.00831993 -0.0164266 -0.0238209
v -0.0107343 -0.0168585 -0.0289898
v -0.00553995 -0.0166325 -0.0200801
v -0.00255742 -0.0172651 -0.0197416
v -0.000864226 -0.0178037 -0.0216286
v -0.00170721 -0.0173698 -0.0197416
v -0.00388301 -0.0170954 -0.0200801
v -0.00687196 -0.0181304 -0.0272272
v -0.0059585 -0.0184101 -0.0270895
v -0.00322851 -0.0185867 -0.0253092
v 3.52411e-06 -0.0174534 -0.0197416
v -0.00862011 -0.0180506 -0.0290154
v -0.00446757 -0.0190636 -0.0277814
v -0.00293235 -0.0197683 -0.029004
v -0.0015197 -0.019928 -0.0289898
v 0.00017011 -0.0193153 -0.0269922
v 0.00158114 -0.0160535 -0.0102299
v 0.00361384 -0.0156637 -0.0102705
v 0.00591639 -0.015028 -0.0108074
v 0.00779345 -0.0139983 -0.00884185
v 0.00660027 -0.0146577 -0.0102705
v 0.00938213 -0.0133141 -0.0121493
v 0.00983036 -0.0125337 -0.00640251
v 0.00992706 -0.012721 -0.010229
v 0.0110492 -0.0115421 -0.00809987
v 0.00201502 -0.0163623 -0.0140572
v 0.00251108 -0.0169284 -0.0178495
v 0.0047851 -0.0157548 -0.0140605
v 0.00576539 -0.0161132 -0.0178495
v 0.000859979 -0.0174322 -0.0197416
v 0.0046342 -0.0169072 -0.0200801
v 0.00326663 -0.0163572 -0.0159731
v 0.00790953 -0.0147921 -0.0159583
v 0.00932131 -0.0139456 -0.0159583
v 0.00843148 -0.0157742 -0.0216135
v 0.0108235 -0.0131758 -0.0178614
v 0.0103999 -0.0140166 -0.0197416
v 0.010565 -0.015081 -0.0238209
v 0.00699617 -0.0156482 -0.0182412
v 0.0121165 -0.0104125 -0.00806506
v 0.0131574 -0.00905455 -0.00777569
v 0.0123361 -0.0106934 -0.0124902
v 0.0133135 -0.00932466 -0.0118019
v 0.0140799 -0.00746901 -0.00642868
v 0.0148805 -0.00581347 -0.00803575
v 0.0150828 -0.00492753 -0.00280155
v 0.0158379 -0.00186728 -0.00639743
v 0.0147093 -0.00681887 -0.0110941
v 0.0116468 -0.0116388 -0.0140605
v 0.0126803 -0.0114928 -0.0178495
v 0.0145872 -0.00779821 -0.0140471
v 0.01527 -0.00632504 -0.0140518
v 0.0142798 -0.0100467 -0.0197476
v 0.014177 -0.00918481 -0.0165918
v 0.0159699 -0.00317484 -0.0121461
v 0.0157949 -0.0039546 -0.0121461
v 0.0162042 -0.00159422 -0.012146
v 0.0162629 -0.000797155 -0.012146
v 0.0161065 -0.00238738 -0.012146
v 0.0162541 -0.00537067 -0.0178474
v 0.0159003 -0.00441083 -0.0142609
v 0.0169895 -0.00209641 -0.0178474
v 0.0120116 -0.0132528 -0.0216135
v 0.00269242 -0.0181203 -0.0234866
v 0.0061758 -0.0172468 -0.0234866
v 0.00113337 -0.019325 -0.0271416
v 0.00293235 -0.0197683 -0.029004
v 0.00212625 -0.018598 -0.0250856
v 0.00488172 -0.0187326 -0.0271416
v 0.00606128 -0.0184825 -0.0274137
v 0.00393507 -0.018911 -0.0269922
v 0.00763045 -0.0161089 -0.0216287
v 0.00893978 -0.0148818 -0.019761
v 0.00888298 -0.0166189 -0.0253347
v 0.00784368 -0.0177994 -0.0274137
v 0.00980775 -0.0174138 -0.0289898
v 0.0117916 -0.012381 -0.0180643
v 0.012661 -0.0139732 -0.0253242
v 0.0142713 -0.0123127 -0.0253315
v 0.0140807 -0.0109662 -0.0216325
v 0.0122581 -0.015788 -0.0289971
v 0.0141313 -0.0141313 -0.029004
v 0.0134209 -0.0148076 -0.029004
v 0.0151026 -0.0130933 -0.0289971
v 0.0153415 -0.00919532 -0.0216135
v 0.0155564 -0.00777631 -0.0194029
v 0.0163744 -0.00823061 -0.0234938
v 0.0165656 -0.00980145 -0.0267343
v 0.0163133 -0.0115499 -0.0289971
v 0.0172425 -0.004773 -0.0216109
v 0.0174733 -0.00134966 -0.0200503
v 0.0174696 -0.00581957 -0.0238209
v 0.018765 -0.00185081 -0.0253242
v 0.0179889 -0.00306362 -0.0231756
v 0.0164719 -0.00681153 -0.0216287
v 0.0178294 -0.00903016 -0.0289898
v 0.0188164 -0.00673262 -0.029004
v 0.0191241 -0.00580123 -0.029004
v 0.0188219 -0.00452519 -0.0271416
v 0.019683 -0.00346569 -0.0289898
v -0.00914641 -0.00378857 0.015
v -0.00577245 -0.00819046 0.015
v -0.00193139 -0.00970977 0.015
v -0.00823155 -0.00550015 0.015
v 0.00550015 -0.00823155 0.015
v 0.00830905 -0.00555193 0.015
v 0.010043 -4.48514e-05 0.015
v 0.00194958 -0.0098012 0.015
f 6 384 2
f 2 7 6
f 4 7 2
f 2 3 4
f 9 10 11
f 10 12 15
f 3 5 14
f 14 8 3
f 11 14 9
f 8 4 3
f 15 11 10
f 13 18 12
f 15 12 18
f 14 5 9
f 8 83 4
f 8 14 16
f 16 14 11
f 17 11 15
f 18 17 15
f 10 9 410
f 16 11 17
f 26 13 12
f 26 12 19
f 20 21 22
f 19 25 26
f 23 22 27
f 23 25 19
f 26 18 13
f 30 35 29
f 22 32 33
f 21 32 22
f 28 29 35
f 32 28 33
f 30 31 35
f 32 21 28
f 84 26 25
f 33 34 27
f 27 22 33
f 23 27 25
f 23 19 22
f 28 35 34
f 31 36 35
f 31 34 36
f 29 502 30
f 21 29 28
f 34 33 28
f 38 39 40
f 41 42 43
f 41 40 44
f 43 45 46
f 47 48 49
f 47 50 38
f 51 46 52
f 53 59 54
f 55 53 54
f 51 53 55
f 111 49 48
f 49 50 47
f 38 50 39
f 39 44 40
f 41 44 42
f 43 42 45
f 45 52 46
f 434 59 53
f 52 53 51
f 6 56 1
f 82 57 563
f 6 82 56
f 58 434 56
f 81 56 82
f 61 59 58
f 60 62 61
f 64 62 60
f 60 63 64
f 65 66 63
f 67 68 69
f 67 66 70
f 69 71 72
f 73 74 75
f 75 76 77
f 79 73 72
f 81 80 58
f 80 81 37
f 81 82 563
f 81 31 37
f 30 37 31
f 81 58 56
f 71 79 72
f 69 68 71
f 74 76 75
f 73 79 74
f 68 67 70
f 63 60 65
f 65 70 66
f 78 77 76
f 58 60 61
f 59 434 58
f 31 81 34
f 36 34 35
f 34 25 27
f 83 8 16
f 7 4 82
f 82 4 83
f 7 82 6
f 84 17 18
f 84 18 26
f 16 17 84
f 83 16 84
f 53 52 87
f 52 45 88
f 88 45 42
f 88 87 52
f 91 49 111
f 49 91 50
f 44 88 42
f 88 44 39
f 39 91 88
f 91 39 50
f 93 94 88
f 96 97 88
f 93 88 97
f 91 96 88
f 88 94 86
f 91 111 92
f 89 88 90
f 85 94 93
f 93 104 85
f 97 96 105
f 98 96 91
f 93 105 106
f 98 105 96
f 105 93 97
f 100 103 106
f 100 106 158
f 100 99 103
f 108 106 105
f 103 93 106
f 106 108 107
f 105 98 108
f 93 103 102
f 113 48 47
f 113 47 38
f 95 92 111
f 111 48 113
f 111 113 95
f 38 40 113
f 113 41 43
f 113 43 46
f 113 46 51
f 40 41 113
f 115 92 95
f 113 117 112
f 112 114 113
f 95 113 114
f 114 112 120
f 119 117 113
f 114 115 95
f 115 114 120
f 51 55 113
f 119 55 54
f 59 121 54
f 119 54 121
f 112 117 122
f 121 59 134
f 134 122 117
f 134 59 124
f 134 117 119
f 119 121 134
f 122 134 132
f 113 55 119
f 115 116 92
f 92 116 98
f 120 112 118
f 118 129 120
f 120 129 126
f 120 98 116
f 115 120 116
f 98 120 127
f 108 109 127
f 108 127 128
f 126 127 120
f 109 98 127
f 127 126 130
f 109 108 98
f 112 122 118
f 132 118 122
f 132 134 133
f 118 132 138
f 129 136 137
f 138 136 129
f 129 118 138
f 138 133 123
f 138 123 254
f 138 132 133
f 123 134 135
f 134 123 133
f 126 129 140
f 92 98 91
f 149 145 100
f 151 146 150
f 150 146 152
f 152 146 153
f 146 149 154
f 146 148 149
f 152 153 155
f 153 154 155
f 153 146 154
f 156 149 100
f 156 100 157
f 158 157 100
f 154 149 156
f 158 106 162
f 162 106 107
f 158 162 165
f 110 107 108
f 157 158 159
f 156 157 159
f 154 156 159
f 154 159 160
f 162 107 163
f 167 166 162
f 162 166 165
f 167 162 163
f 142 168 107
f 164 159 158
f 155 171 169
f 169 170 172
f 155 154 160
f 160 171 155
f 171 170 169
f 152 155 169
f 170 171 174
f 174 177 175
f 175 176 178
f 175 170 174
f 179 174 180
f 160 173 180
f 177 176 175
f 171 160 174
f 176 177 330
f 170 175 181
f 164 165 182
f 160 159 161
f 173 160 161
f 165 166 167
f 165 167 183
f 161 182 173
f 183 182 165
f 168 183 167
f 182 161 164
f 164 158 165
f 185 186 180
f 179 177 174
f 185 180 173
f 187 185 188
f 182 184 188
f 186 179 180
f 173 182 185
f 179 186 330
f 182 183 184
f 180 174 160
f 164 161 159
f 177 179 330
f 152 169 189
f 108 142 110
f 142 128 190
f 163 107 168
f 127 130 131
f 131 130 192
f 131 192 193
f 131 190 128
f 127 131 128
f 190 131 193
f 190 168 142
f 191 194 190
f 168 195 183
f 194 168 190
f 197 194 191
f 196 198 193
f 205 196 193
f 191 193 198
f 200 201 193
f 191 190 193
f 140 200 192
f 167 163 168
f 129 137 140
f 140 137 202
f 140 202 200
f 140 192 130
f 203 139 136
f 137 136 139
f 139 203 204
f 136 138 141
f 139 202 137
f 130 126 140
f 202 139 207
f 206 201 200
f 208 212 200
f 206 200 212
f 205 201 206
f 201 205 193
f 204 207 139
f 200 202 207
f 204 210 207
f 209 204 203
f 208 207 210
f 207 208 200
f 203 136 213
f 200 193 192
f 142 108 128
f 183 195 184
f 214 195 194
f 195 168 194
f 214 194 197
f 195 214 188
f 184 195 188
f 198 205 216
f 205 198 196
f 191 198 216
f 199 191 216
f 199 216 215
f 199 214 197
f 197 191 199
f 214 199 215
f 215 219 188
f 187 186 185
f 215 220 219
f 215 217 220
f 215 216 217
f 219 187 188
f 188 214 215
f 187 219 330
f 188 185 182
f 206 212 221
f 205 206 221
f 218 205 221
f 218 221 222
f 208 223 212
f 217 216 218
f 208 210 223
f 223 210 228
f 223 221 212
f 221 223 224
f 218 222 220
f 225 220 222
f 217 218 220
f 225 224 226
f 225 226 330
f 226 224 227
f 225 222 224
f 222 221 224
f 220 225 330
f 224 223 227
f 216 205 218
f 219 220 330
f 210 204 228
f 107 110 142
f 186 187 330
f 124 59 61
f 124 61 230
f 61 229 230
f 229 62 64
f 231 229 64
f 62 229 61
f 230 229 232
f 232 125 230
f 125 124 230
f 231 232 229
f 64 235 231
f 231 236 232
f 232 236 238
f 236 231 235
f 125 232 234
f 124 125 134
f 64 63 240
f 240 66 67
f 66 240 63
f 240 67 69
f 69 72 241
f 240 69 241
f 241 73 75
f 241 72 73
f 244 75 77
f 235 239 237
f 235 240 239
f 241 243 239
f 236 235 237
f 241 239 240
f 245 241 244
f 241 75 244
f 246 241 245
f 243 241 248
f 243 237 239
f 237 243 248
f 77 78 244
f 235 64 240
f 236 237 249
f 233 135 134
f 233 125 135
f 234 250 135
f 234 135 125
f 135 250 254
f 234 232 238
f 234 238 251
f 251 250 234
f 250 251 253
f 254 260 141
f 260 254 252
f 252 254 250
f 254 141 138
f 252 250 253
f 260 253 255
f 260 255 257
f 258 259 253
f 260 252 253
f 249 258 251
f 135 254 123
f 237 242 249
f 249 242 261
f 249 261 258
f 249 251 238
f 241 262 248
f 242 237 248
f 262 246 245
f 262 263 248
f 247 264 245
f 248 261 242
f 238 236 249
f 261 248 265
f 265 270 258
f 259 255 253
f 248 268 265
f 258 261 265
f 268 263 262
f 268 270 265
f 264 294 262
f 270 259 258
f 268 248 263
f 259 270 267
f 258 253 251
f 246 262 241
f 255 259 271
f 125 233 134
f 244 78 247
f 272 247 78
f 272 76 74
f 76 272 78
f 247 245 244
f 274 74 79
f 274 79 71
f 274 71 68
f 274 68 70
f 284 70 65
f 74 274 272
f 272 274 275
f 247 272 276
f 262 245 264
f 247 276 277
f 247 277 264
f 278 276 272
f 275 278 272
f 273 275 274
f 274 70 284
f 290 279 273
f 280 274 281
f 274 284 282
f 279 275 273
f 273 286 290
f 283 284 65
f 281 274 282
f 280 273 274
f 282 280 281
f 273 280 286
f 60 283 65
f 277 278 287
f 278 277 276
f 279 278 275
f 264 277 287
f 264 287 288
f 279 287 278
f 289 290 286
f 302 289 286
f 279 290 292
f 290 289 292
f 287 279 292
f 294 264 288
f 294 288 293
f 268 294 306
f 294 293 295
f 288 297 301
f 297 292 296
f 297 296 299
f 292 291 300
f 297 288 292
f 288 287 292
f 293 288 301
f 291 289 302
f 262 294 268
f 291 302 303
f 303 300 291
f 305 300 303
f 300 296 292
f 291 292 289
f 296 300 298
f 270 268 306
f 141 260 213
f 213 260 307
f 213 307 211
f 256 307 260
f 257 255 271
f 256 257 308
f 256 308 309
f 271 308 257
f 260 257 256
f 307 256 310
f 310 312 211
f 211 209 203
f 309 310 256
f 307 310 211
f 309 312 310
f 312 309 314
f 312 209 211
f 271 313 308
f 209 312 311
f 213 211 203
f 259 267 266
f 266 267 315
f 266 315 313
f 313 271 266
f 270 306 269
f 269 306 317
f 269 317 316
f 269 315 267
f 270 269 267
f 315 269 316
f 308 318 324
f 318 308 313
f 316 320 313
f 321 320 316
f 316 317 321
f 320 321 322
f 320 318 313
f 313 315 316
f 318 320 323
f 295 348 317
f 259 266 271
f 309 308 324
f 311 325 228
f 311 228 209
f 228 325 227
f 311 312 314
f 311 314 326
f 326 325 311
f 325 326 327
f 330 227 329
f 330 329 331
f 327 331 227
f 227 330 226
f 227 325 327
f 332 331 327
f 327 339 332
f 327 328 339
f 331 332 330
f 331 329 227
f 326 328 327
f 330 332 339
f 324 333 326
f 228 227 223
f 314 309 324
f 324 318 319
f 324 319 334
f 324 334 333
f 328 326 333
f 319 318 323
f 323 320 322
f 323 322 335
f 323 335 336
f 323 334 319
f 334 323 336
f 339 333 337
f 339 337 330
f 338 337 333
f 328 333 339
f 341 340 336
f 340 341 330
f 338 336 340
f 338 340 330
f 336 342 341
f 338 333 336
f 333 334 336
f 337 338 330
f 326 314 324
f 209 228 204
f 293 301 295
f 295 301 343
f 295 343 344
f 296 298 299
f 299 298 345
f 299 345 346
f 299 343 301
f 297 299 301
f 343 299 346
f 348 295 344
f 348 344 347
f 321 348 322
f 321 317 348
f 348 347 349
f 344 351 355
f 351 346 350
f 351 350 353
f 354 362 346
f 351 344 346
f 344 343 346
f 347 344 355
f 304 354 345
f 317 306 295
f 304 298 300
f 305 356 361
f 304 345 298
f 304 361 354
f 304 305 361
f 361 362 354
f 362 350 346
f 150 360 363
f 361 189 364
f 361 364 362
f 150 189 359
f 150 359 360
f 361 359 189
f 150 363 365
f 361 357 359
f 354 346 345
f 306 294 295
f 350 362 367
f 348 349 322
f 322 349 368
f 335 322 368
f 335 368 342
f 353 350 352
f 351 353 355
f 355 353 369
f 352 369 353
f 355 369 371
f 355 368 349
f 347 355 349
f 368 355 371
f 341 372 330
f 372 341 342
f 372 342 373
f 372 373 330
f 371 374 342
f 342 368 371
f 375 374 371
f 376 371 377
f 374 375 330
f 352 370 377
f 374 373 342
f 369 352 371
f 373 374 330
f 342 336 335
f 367 362 366
f 366 370 367
f 370 352 367
f 152 189 150
f 366 378 379
f 189 172 364
f 364 172 378
f 364 378 366
f 352 350 367
f 370 366 379
f 376 377 380
f 376 380 330
f 379 381 377
f 376 375 371
f 181 379 378
f 377 370 379
f 379 181 178
f 178 381 379
f 178 181 175
f 381 178 330
f 172 170 181
f 381 380 377
f 378 172 181
f 380 381 330
f 189 169 172
f 377 371 352
f 362 364 366
f 375 376 330
f 300 305 304
f 330 178 176
f 141 213 136
f 284 285 282
f 284 283 285
f 356 357 361
f 357 358 359
f 358 360 359
f 150 365 151
f 360 365 363
f 144 146 151
f 146 144 143
f 146 143 147
f 146 147 148
f 149 148 145
f 99 102 103
f 101 99 100
f 104 93 102
f 90 88 382
f 86 382 88
f 87 88 89
f 383 6 1
f 1 56 383
f 387 385 383
f 385 6 383
f 388 2 384
f 384 6 385
f 383 386 387
f 383 56 386
f 384 387 388
f 387 384 385
f 389 2 388
f 389 391 2
f 3 2 391
f 3 391 390
f 390 392 3
f 395 391 389
f 393 392 390
f 393 390 391
f 394 5 3
f 9 5 394
f 437 387 386
f 387 398 388
f 395 389 388
f 56 397 386
f 399 398 387
f 434 396 56
f 396 397 56
f 386 397 437
f 399 387 437
f 395 388 398
f 435 395 398
f 395 443 393
f 391 395 393
f 400 392 393
f 392 401 402
f 400 401 392
f 3 402 394
f 402 3 392
f 425 413 394
f 403 400 393
f 394 402 404
f 404 401 400
f 402 401 404
f 404 425 394
f 406 443 395
f 394 407 408
f 9 408 407
f 407 409 9
f 394 413 407
f 412 10 410
f 9 409 410
f 415 409 407
f 409 412 410
f 10 412 414
f 411 10 414
f 10 411 417
f 12 10 419
f 10 417 419
f 12 419 418
f 12 418 421
f 421 418 428
f 421 422 12
f 417 411 424
f 414 412 423
f 423 412 409
f 411 414 416
f 411 416 424
f 416 414 423
f 415 407 413
f 423 409 415
f 415 413 426
f 416 423 424
f 423 415 453
f 420 419 417
f 432 420 417
f 421 429 433
f 429 421 428
f 428 418 419
f 417 424 431
f 431 424 459
f 429 428 461
f 428 419 460
f 419 420 432
f 432 417 463
f 424 423 430
f 9 394 408
f 467 433 429
f 397 396 434
f 439 437 397
f 439 397 434
f 436 398 399
f 436 435 398
f 53 438 434
f 439 434 438
f 440 435 436
f 437 436 399
f 441 437 439
f 435 442 406
f 405 400 403
f 443 403 393
f 443 85 403
f 405 404 400
f 413 425 426
f 406 395 435
f 426 425 445
f 404 405 449
f 447 443 442
f 443 406 442
f 444 404 449
f 425 444 445
f 456 445 444
f 404 444 425
f 447 442 435
f 439 438 53
f 87 439 53
f 441 436 437
f 90 436 441
f 448 85 443
f 90 441 439
f 90 439 87
f 90 86 436
f 94 447 440
f 447 435 440
f 85 447 94
f 86 94 440
f 440 436 86
f 443 447 448
f 405 403 449
f 85 449 403
f 444 449 446
f 446 449 451
f 104 102 449
f 449 85 104
f 102 450 451
f 446 451 450
f 452 450 102
f 452 102 456
f 452 446 450
f 449 102 451
f 447 85 448
f 456 444 446
f 415 426 453
f 426 445 453
f 423 454 427
f 423 427 430
f 454 423 453
f 445 456 453
f 453 455 454
f 427 454 457
f 458 455 453
f 424 430 459
f 417 431 463
f 419 432 460
f 428 462 461
f 462 428 460
f 430 427 464
f 431 459 463
f 459 430 465
f 432 463 460
f 462 460 466
f 460 463 466
f 463 459 466
f 100 458 456
f 458 453 456
f 454 455 457
f 427 457 464
f 457 455 468
f 464 457 468
f 145 458 100
f 455 458 468
f 100 456 101
f 145 468 458
f 468 145 148
f 148 464 468
f 102 101 456
f 459 465 469
f 466 459 469
f 462 466 461
f 461 466 471
f 147 469 465
f 469 147 143
f 464 147 465
f 143 144 470
f 466 469 470
f 470 144 471
f 151 471 144
f 471 466 470
f 469 143 470
f 148 147 464
f 465 430 464
f 472 467 461
f 446 452 456
f 429 461 467
f 12 422 19
f 482 24 19
f 473 19 422
f 474 19 24
f 474 475 19
f 482 473 421
f 473 422 421
f 488 24 482
f 473 482 19
f 19 475 22
f 24 488 474
f 474 484 475
f 477 476 22
f 20 22 476
f 479 21 20
f 489 476 477
f 475 477 22
f 21 479 481
f 479 20 480
f 495 475 484
f 482 421 433
f 485 495 484
f 487 474 488
f 486 433 467
f 520 483 482
f 482 433 486
f 524 482 486
f 521 485 484
f 484 474 487
f 488 482 483
f 529 476 489
f 476 490 478
f 20 478 480
f 476 529 490
f 478 20 476
f 495 528 475
f 528 489 477
f 491 489 528
f 480 478 492
f 478 493 492
f 490 493 478
f 494 490 529
f 533 481 480
f 477 475 528
f 481 479 480
f 496 21 481
f 29 21 496
f 498 496 481
f 496 497 29
f 499 497 496
f 505 498 481
f 29 497 500
f 510 499 496
f 29 500 501
f 502 29 501
f 37 30 503
f 30 502 503
f 502 501 517
f 503 502 511
f 501 500 504
f 37 503 80
f 505 481 533
f 505 506 498
f 498 510 496
f 500 497 504
f 504 497 507
f 497 499 507
f 510 498 509
f 507 499 510
f 504 507 508
f 507 551 508
f 502 512 511
f 512 502 517
f 503 515 513
f 503 514 80
f 514 503 513
f 515 503 511
f 517 504 516
f 501 504 517
f 511 512 517
f 513 515 518
f 58 80 514
f 547 514 513
f 518 515 511
f 516 504 508
f 514 547 58
f 480 492 533
f 519 533 492
f 522 486 467
f 520 482 524
f 525 487 488
f 521 484 487
f 520 488 483
f 527 488 520
f 467 472 522
f 523 520 524
f 524 486 522
f 488 527 525
f 487 526 521
f 526 487 525
f 521 531 495
f 529 489 491
f 530 491 528
f 494 493 490
f 495 485 521
f 528 495 531
f 532 529 530
f 529 491 530
f 532 530 528
f 519 492 534
f 534 533 519
f 492 493 534
f 305 494 529
f 535 536 533
f 505 533 506
f 151 522 472
f 360 523 524
f 360 524 522
f 358 525 527
f 358 526 525
f 523 527 520
f 358 527 523
f 360 522 151
f 360 358 523
f 531 357 356
f 356 532 531
f 526 358 357
f 357 531 526
f 526 531 521
f 471 151 472
f 528 531 532
f 305 529 532
f 305 537 494
f 356 305 532
f 534 494 537
f 533 534 535
f 534 493 494
f 535 534 540
f 537 305 303
f 303 539 537
f 303 538 539
f 534 539 538
f 302 540 303
f 538 303 540
f 540 534 538
f 539 534 537
f 461 471 472
f 498 536 509
f 506 533 536
f 507 510 542
f 507 542 551
f 542 510 543
f 536 544 509
f 545 536 535
f 510 541 543
f 544 543 541
f 541 509 544
f 541 510 509
f 545 544 536
f 517 516 546
f 547 513 518
f 550 518 517
f 518 511 517
f 546 516 548
f 549 547 550
f 547 518 550
f 550 517 546
f 516 551 548
f 516 508 551
f 549 58 547
f 540 545 535
f 551 543 280
f 551 542 543
f 543 544 552
f 548 551 553
f 286 552 544
f 544 302 286
f 545 302 544
f 543 552 280
f 282 553 280
f 553 551 280
f 286 280 552
f 540 302 545
f 546 548 555
f 282 555 554
f 548 554 555
f 555 556 550
f 553 282 554
f 549 550 556
f 550 546 555
f 282 283 556
f 556 555 282
f 556 283 60
f 60 549 556
f 60 58 549
f 554 548 553
f 536 498 506
f 82 83 557
f 83 84 558
f 82 557 57
f 560 83 558
f 557 83 560
f 84 559 558
f 84 564 559
f 25 34 561
f 34 81 563
f 564 25 561
f 562 34 563
f 562 561 34
f 25 564 84
f 557 562 563
f 558 564 561
f 558 561 562
f 560 562 557
f 57 557 563
f 560 558 562
f 558 559 564
