v -0.00193079 -0.00256684 0.0149404
v -0.000916356 0.00383788 0.0149588
v 0.00145523 0.00330801 0.0146114
v -0.00140653 0.00370205 0.000108937
v -0.00222973 0.00329456 4.30582e-05
v -0.00320691 0.00226748 6.08017e-05
v -0.00370505 0.00127652 9.59805e-05
v -0.00390567 0.000173097 0.000131893
v -0.00384069 -0.000345418 5.68393e-05
v -0.00358339 -0.00148125 0.000178659
v -0.00291926 -0.00233549 0.000106676
v -0.00231988 -0.00312001 0.000319772
v -0.000467386 -0.00359998 0.000330609
v 0.00160998 -0.00327507 0.000442259
v 0.00237355 -0.00270878 0.000468736
v 0.0030173 -0.00194541 0.000517921
v 0.00355907 -0.000470087 0.000605726
v 0.00342401 0.0011686 0.000694926
v 0.00321986 0.00158783 0.000722996
v 0.00223294 0.00281104 0.000810806
v 0.0013177 0.00333966 0.000867691
v 0.000293527 0.00357806 0.000928074
v -0.000756359 0.00350939 0.000986577
v -0.00180925 0.0031321 0.00104608
v -0.00218547 0.00284824 0.00107314
v -0.00296043 0.00207275 0.00113487
v -0.00319259 0.00164173 0.00116236
v -0.00356243 0.000607963 0.00122276
v -0.00358836 0.000115537 0.00124855
v -0.00346777 -0.000929103 0.00130893
v -0.00304775 -0.00194214 0.00136924
v -0.00272999 -0.00236803 0.00139853
v -0.00236583 -0.00270042 0.00142573
v -0.000470087 -0.00355907 0.00154323
v 0.00109992 -0.00341755 0.00163082
v 0.00281104 -0.00223294 0.00174831
v 0.00349689 -0.00081332 0.0018345
v 0.00352389 0.00080173 0.00192589
v 0.00336043 0.00126309 0.00195337
v 0.0024954 0.00258121 0.00203957
v 0.0016116 0.0032356 0.00210205
v 0.00112403 0.00343469 0.00213096
v 0.000644321 0.00353167 0.00215846
v -0.000931129 0.00346737 0.00224464
v -0.00236803 0.00272999 0.00233603
v -0.00269801 0.00236824 0.00236352
v -0.00345273 0.000984031 0.00244972
v -0.00355899 -0.000627879 0.00254112
v -0.00341838 -0.00109662 0.00256861
v -0.00262039 -0.00245404 0.00265517
v -0.000816762 -0.00349583 0.00277369
v 0.000757915 -0.00350918 0.00286025
v 0.00257853 -0.00249781 0.00297876
v 0.00339956 -0.00115403 0.00306534
v 0.00346806 0.000927587 0.00318384
v 0.00273761 0.00232254 0.0032704
v 0.00148313 0.00326928 0.00335962
v 0.000412403 0.00359355 0.00341914
v -5.86985e-05 0.00358961 0.00344619
v -0.00114312 0.00342837 0.00350791
v -0.00158639 0.00322044 0.0035354
v -0.00249905 0.00261057 0.0035958
v -0.00281347 0.00223028 0.00362161
v -0.00333878 0.00131955 0.00368198
v -0.00360489 0.000255748 0.0037423
v -0.00360336 -0.000275557 0.00377157
v -0.00350889 -0.000759736 0.00379879
v -0.00249781 -0.00257853 0.00391626
v -0.00115231 -0.00340025 0.00400387
v 0.000927588 -0.00346806 0.00412134
v 0.00232418 -0.00273639 0.00420753
v 0.00330801 -0.00145524 0.00429893
v 0.0034515 -0.000987421 0.00432642
v 0.00354194 0.000586802 0.00441261
v 0.00322191 0.00163877 0.00447509
v 0.00294872 0.00208949 0.00450402
v 0.00262137 0.00245282 0.0045315
v 0.0013177 0.00333966 0.00461769
v -0.000275558 0.00360336 0.00470907
v -0.000756359 0.00350939 0.00473658
v -0.00218715 0.00284711 0.00482277
v -0.00323256 0.00161589 0.00491417
v -0.00339894 0.00115547 0.00494166
v -0.00356657 -0.000410316 0.00502823
v -0.00273852 -0.00232129 0.00514673
v -0.00148176 -0.00327004 0.0052333
v 0.000583211 -0.00354228 0.00535181
v 0.00204314 -0.00295201 0.00543838
v 0.00333811 -0.00132094 0.00555689
v 0.00358241 0.000234679 0.00564345
v 0.00313875 0.00174245 0.00573267
v 0.00247214 0.00264042 0.00579217
v 0.0020912 0.00291816 0.00581924
v 0.00112403 0.00343469 0.00588096
v 0.000644321 0.00353167 0.00590846
v -0.000452512 0.00358551 0.00596886
v -0.000931129 0.00346737 0.00599464
v -0.0018958 0.00304871 0.00605503
v -0.00274303 0.00235292 0.00611533
v -0.00305868 0.00192485 0.00614462
v -0.0032709 0.00148012 0.00617183
v -0.00359497 0.000407325 0.00623205
v -0.00361326 -0.000104027 0.00626221
v -0.00354228 -0.000583211 0.00628931
v -0.00295104 -0.00204473 0.00637692
v -0.00132094 -0.00333811 0.00649439
v 0.000236704 -0.0035824 0.00658058
v 0.00126458 -0.00335998 0.00664096
v 0.00218415 -0.0028491 0.00669947
v 0.00296043 -0.00207275 0.00675987
v 0.00324443 -0.0015991 0.00678827
v 0.00339956 -0.00115403 0.00681534
v 0.00358799 -0.000119112 0.00687525
v 0.00348031 0.00097368 0.00693566
v 0.00329325 0.00142968 0.00696285
v 0.00271621 0.0023899 0.00702306
v 0.00236716 0.0026991 0.00705111
v 0.000954557 0.00348553 0.00714071
v 0.000466744 0.00355973 0.00716794
v -0.000653691 0.00355842 0.00722814
v -0.00109812 0.00341801 0.0072562
v -0.00245545 0.00261921 0.00734371
v -0.00310907 0.00179513 0.00740127
v -0.00352829 0.000782068 0.00746299
v -0.00360489 0.000255746 0.0074923
v -0.00358239 -0.000233111 0.00751977
v -0.0031381 -0.00174387 0.00760634
v -0.00207275 -0.00296043 0.00769737
v -0.00164173 -0.00319258 0.00772486
v -0.000588454 -0.00356892 0.00778436
v -5.34526e-05 -0.00361752 0.00781407
v 0.000410295 -0.00356656 0.00784214
v 0.00142647 -0.0032944 0.00790064
v 0.00232402 -0.00273649 0.00795894
v 0.00307559 -0.00190533 0.00801914
v 0.00331083 -0.00145081 0.00804932
v 0.0034515 -0.000987422 0.00807642
v 0.0036126 9.88034e-05 0.00813682
v 0.00355853 0.000648432 0.00816523
v 0.00341801 0.00109814 0.00819228
v 0.0029528 0.00204179 0.00825221
v 0.0022155 0.00285518 0.0083126
v 0.00179357 0.00311009 0.0083398
v 0.000758046 0.00353762 0.00840001
v 0.00029353 0.00357806 0.00842807
v -0.00126311 0.00336042 0.00851587
v -0.00218715 0.00284711 0.00857277
v -0.00296406 0.00206897 0.00863525
v -0.00323256 0.00161589 0.00866417
v -0.00339894 0.00115547 0.00869166
v -0.00361304 7.88907e-05 0.00875205
v -0.00356647 -0.00041234 0.00877785
v -0.00329841 -0.00147879 0.00884033
v -0.00304943 -0.00189442 0.00886744
v -0.00235292 -0.00274302 0.00892783
v -0.00194378 -0.00301851 0.00895363
v -0.00098597 -0.00345202 0.00901401
v 0.00058321 -0.00354228 0.00910181
v 0.00165323 -0.00321716 0.00916131
v 0.00204314 -0.00295201 0.00918838
v 0.00285518 -0.0022155 0.0092501
v 0.00310818 -0.00179642 0.0092776
v 0.00352829 -0.000782064 0.00933799
v 0.00357837 -0.000291486 0.00936378
v 0.00350917 0.000757874 0.00942416
v 0.00313946 0.00179007 0.00948448
v 0.00284283 0.00223132 0.00951377
v 0.00249552 0.00258106 0.00954097
v 0.000644323 0.00353167 0.00965846
v -0.000931129 0.00346737 0.00974464
v -0.00269801 0.00236824 0.00986352
v -0.00345273 0.00098403 0.00994972
v -0.00355899 -0.000627889 0.0100411
v -0.00341838 -0.00109662 0.0100686
v -0.00249573 -0.00238675 0.0099789
v -0.000255746 -0.00360489 0.0103048
v 0.00133535 -0.00336251 0.0103922
v 0.00296043 -0.00207276 0.0105099
v 0.00356409 -0.00060299 0.0105981
v 0.00329979 0.00147374 0.0107149
v 0.0023495 0.00274701 0.0108032
v 0.000432221 0.00358802 0.01092
v -0.00114829 0.00342749 0.0110083
v -0.00285518 0.0022155 0.0111251
v -0.00353021 0.000777146 0.0112134
v -0.00148145 -0.00311089 0.011275
v -0.000500554 -0.00356508 0.0115398
v 0.000973675 -0.00348031 0.0116232
v 0.00331295 -0.00122886 0.0115112
v 0.00355907 -0.000470086 0.0118557
v 0.0024037 0.00250254 0.0118666
v -0.000910923 0.00334826 0.0120717
v -0.00334022 0.000939994 0.0122768
v -0.00342636 -0.00043055 0.012352
v -0.00235291 -0.00274304 0.0126778
v -0.000931001 -0.00349604 0.0127652
v 0.00114311 -0.00342837 0.0128829
v 0.00250335 -0.00260756 0.0129712
v 0.00352829 -0.000782065 0.013088
v 0.00352353 0.000806933 0.0131763
v 0.00248472 0.00262423 0.0132931
v -0.00107321 0.00343639 0.0135036
v -0.00237247 0.0027272 0.0135864
v -0.00259875 -0.0025159 0.0139074
v -0.0012915 -0.00337524 0.0139962
v 0.00308796 -0.00154549 0.0141108
v 0.00348031 0.00097367 0.0144357
v 0.00271624 0.00238986 0.0145231
v 0.00133844 0.00359986 0.0147669
v 0.00130776 -0.00293811 0.0149914
v -0.00039837 -0.00319803 0
v 0.000309866 -0.00340822 0.000160045
v 0.00314866 -0.00068708 0.00014648
v 0.00322661 0.000504932 0.000218981
v 0.00249259 0.00225499 0.000479411
v 0.00203111 0.0025134 0.000368787
v 0.000760875 0.00314051 0.000451949
v -0.00135545 0.00294928 0.000587232
v -0.00247692 0.00209763 0.000671245
v -0.00305259 0.00105999 0.000748827
v -0.00287941 -0.00149825 0.00091063
v -0.00232059 -0.00223629 0.0009668
v -0.00157505 -0.00283801 0.00102209
v -0.00068708 -0.00314866 0.00108398
v 0.000364407 -0.00331589 0.00125958
v 0.00072511 -0.00314012 0.00117187
v 0.00162458 -0.00280995 0.00122717
v 0.00234746 -0.00220806 0.00128906
v 0.0030314 -0.00139228 0.00146465
v 0.00306615 -0.00099239 0.00137695
v 0.00324537 -5.12395e-05 0.00143225
v 0.00310075 0.00087832 0.00149414
v 0.00275264 0.00188436 0.00166973
v 0.00242752 0.00211973 0.00158203
v 0.00171243 0.00275729 0.00163732
v 0.00084075 0.00311115 0.00169922
v -0.00020132 0.00332978 0.00187482
v -0.00057016 0.00317191 0.00178711
v -0.00171971 0.0027766 0.00186297
v -0.00291867 0.00160946 0.00208617
v -0.00301376 0.00114165 0.00199219
v -0.00326568 -4.75886e-05 0.00206805
v -0.00287327 -0.00169208 0.00229158
v -0.00252861 -0.00199807 0.00219727
v -0.00163809 -0.00282552 0.00227313
v -2.60943e-05 -0.00333436 0.00249665
v 0.00041384 -0.00319607 0.00240234
v 0.00158139 -0.00285764 0.00247821
v 0.00284664 -0.00173649 0.00270174
v 0.00295411 -0.00128815 0.00260742
v 0.00322652 -0.000353985 0.00266845
v 0.00317191 0.00057016 0.00272461
v 0.00295286 0.00154899 0.00290682
v 0.0026236 0.00187159 0.0028125
v 0.00192671 0.00274178 0.00302007
v 0.0015715 0.00281363 0.00290039
v 0.00066824 0.00317631 0.00296027
v -0.000739823 0.00316035 0.00304428
v -0.00182042 0.00266984 0.00312188
v -0.00320527 0.000511842 0.00328368
v -0.00319607 -0.00041384 0.00333984
v -0.00295567 -0.0013413 0.00339514
v -0.00242752 -0.00211973 0.00345703
v -0.00168262 -0.0028804 0.00363262
v -0.00128815 -0.00295411 0.00354492
v -0.0003691 -0.00322472 0.00360022
v 0.00057016 -0.00317191 0.00366211
v 0.0016057 -0.00292399 0.00383771
v 0.00187159 -0.0026236 0.00375
v 0.00257619 -0.00197442 0.00380529
v 0.00301376 -0.00114165 0.00386719
v 0.00333349 -0.000125974 0.00404279
v 0.00321253 0.00025651 0.00395508
v 0.00301793 0.00119463 0.00401037
v 0.00252861 0.00199807 0.00407227
v 0.00182182 0.00279446 0.00424786
v 0.00143155 0.00288735 0.00416016
v 0.000272737 0.00325462 0.00423602
v -0.00138556 0.00303138 0.00445922
v -0.0017406 0.00271228 0.00436523
v -0.00265136 0.00190715 0.0044411
v -0.00331576 0.00035276 0.00466463
v -0.00322124 -9.857e-05 0.00457031
v -0.00299888 -0.00129368 0.00464618
v -0.00200718 -0.00266269 0.0048697
v -0.0015715 -0.00281363 0.00477539
v -0.000432105 -0.00323731 0.00485125
v 0.001252 -0.0030905 0.00507478
v 0.00160542 -0.00279442 0.00498047
v 0.00238072 -0.00220634 0.00504149
v 0.00288735 -0.00143155 0.00509766
v 0.00329447 -0.000514977 0.00527986
v 0.0032222 -5.96e-05 0.00518555
v 0.00318081 0.00105457 0.00539312
v 0.00293832 0.00132379 0.00527344
v 0.00242885 0.00215318 0.00533332
v 0.00128832 0.00297916 0.00541734
v 0.000128272 0.00322885 0.00549492
v -0.00226958 0.00232051 0.00565673
v -0.00281363 0.0015715 0.00571289
v -0.00317301 0.000683403 0.00576818
v -0.00321253 -0.00025651 0.00583008
v -0.00306732 -0.0013113 0.00600567
v -0.00279442 -0.00160542 0.00591797
v -0.00221741 -0.00237026 0.00597326
v -0.00143155 -0.00288735 0.00603516
v -0.000452249 -0.00330506 0.00621075
v -5.96e-05 -0.0032222 0.00612305
v 0.000893069 -0.00312049 0.00617834
v 0.0017406 -0.00271228 0.00624023
v 0.0024797 -0.00209435 0.00630203
v 0.00319221 0.000587482 0.00647829
v 0.00263721 0.00189213 0.0065592
v 0.00136507 0.00296693 0.00667013
v -0.000267155 0.00323476 0.00676428
v -0.00174741 0.00284184 0.00697283
v -0.00317937 0.000747317 0.00701923
v -0.00319832 -0.000943118 0.00724275
v -0.00293832 -0.00132379 0.00714844
v -0.00227553 -0.00234283 0.0072243
v -0.000823248 -0.0031397 0.00732551
v 0.000341583 -0.00321326 0.00739531
v 0.00148944 -0.00288388 0.00747391
v 0.00257619 -0.00197442 0.00755529
v 0.00301376 -0.00114165 0.00761719
v 0.00323932 -0.000205072 0.00767898
v 0.00301793 0.00119463 0.00776037
v 0.00221405 0.00237346 0.00785524
v 0.000976324 0.00309552 0.00794074
v -0.000183985 0.00322615 0.00801161
v -0.00247623 0.00209842 0.00817053
v -0.00295411 0.00128815 0.00823242
v -0.00322651 0.000353687 0.00829231
v -0.0030726 -0.00104609 0.00837632
v -0.00247854 -0.00207334 0.00845391
v -7.86115e-05 -0.00335016 0.00876227
v 0.00025651 -0.00321253 0.00864258
v 0.00120907 -0.00301224 0.00870246
v 0.002371 -0.00221665 0.00878648
v 0.00299689 -0.00120853 0.00886406
v 0.00294944 0.00135519 0.00902587
v 0.00242752 0.00211973 0.00908203
v 0.00171243 0.00275729 0.00913732
v 0.00084075 0.00311115 0.00919922
v -0.000201318 0.00332978 0.00937482
v -0.00057016 0.00317191 0.00928711
v -0.00148467 0.00288631 0.0093424
v -0.00223629 0.00232059 0.0094043
v -0.00295954 0.00153918 0.00957989
v -0.00301376 0.00114165 0.00949219
v -0.00323895 0.00021041 0.00954748
v -0.00314012 -0.00072511 0.00960937
v -0.00284167 -0.00174726 0.00978497
v -0.00189961 -0.00273764 0.00987811
v -0.00117827 -0.00327228 0.0101088
v 0.00036805 -0.00340136 0.0100697
v 0.00182647 -0.00290996 0.0101807
v 0.0028909 -0.00176793 0.0102301
v 0.00343526 7.22442e-05 0.0103858
v 0.00300262 0.00157071 0.0104352
v 0.00170412 0.00298365 0.0105909
v 0.000196406 0.00338295 0.0106402
v -0.00168305 0.00299558 0.010796
v -0.00280066 0.00190767 0.0108453
v -0.00343487 9.6264e-05 0.0110013
v -0.00329402 -0.000526641 0.0109568
v -0.00290638 -0.00189621 0.0111941
v -0.000823247 -0.0031397 0.0110755
v 0.0015343 -0.00307465 0.0114115
v 0.00201722 -0.00265683 0.011367
v 0.00317629 -0.000668535 0.0113989
v 0.00340091 0.000598219 0.0117377
v 0.00288267 0.00200915 0.0118475
v 0.00182182 0.00279446 0.0117479
v 0.00123559 0.00322468 0.0119418
v -0.000243582 0.00350574 0.0120527
v -0.00146023 0.00299928 0.0119529
v -0.0021307 0.0027176 0.0121469
v -0.0028458 0.00174261 0.0120655
v -0.00332325 0.000289621 0.012158
v -0.00315663 -0.00106711 0.0122511
v -0.00289561 -0.00192658 0.0124818
v -0.00173054 -0.00295127 0.0124427
v -0.000266371 -0.00342534 0.0125538
v 0.00126882 -0.00314213 0.0126031
v 0.00280224 -0.00198838 0.0127589
v 0.0033474 -0.000527084 0.0128082
v 0.00314611 0.00138135 0.012964
v 0.002173 0.00260019 0.0130133
v 0.00150904 0.00295204 0.0130115
v -0.000354456 0.0032466 0.0130276
v -0.00270154 0.00212348 0.0133744
v -0.00295954 0.00153918 0.0133299
v -0.003464 0.000208274 0.0135671
v -0.00304303 -0.00161628 0.013648
v -0.00202616 -0.00275395 0.0136742
v -0.000599235 -0.00338357 0.0137845
v 3.74956e-05 -0.00333563 0.01374
v 0.0025107 -0.00218311 0.0138956
v 0.0032234 -0.000849674 0.0140093
v 0.00347779 -8.42237e-06 0.0142397
v 0.00307852 0.00149247 0.0142005
v 0.00215862 0.00265109 0.0142901
v 0.00133547 0.0029277 0.0142643
v -3.7373e-05 0.00323118 0.0142538
v -0.00144056 0.00294961 0.0146444
v -0.00160542 0.00279442 0.0143555
v -0.00247508 0.00211265 0.0146831
v -0.00278793 0.00159887 0.0146891
v -0.00294872 0.0020895 0.014246
v -0.0031474 0.000675916 0.0147686
v -0.00317858 0.00053175 0.0145313
v -0.00318802 -0.000401051 0.0148244
v -0.00284771 -0.00146099 0.0148634
v -0.00239206 -0.00212491 0.0148925
v -0.00131385 -0.00309017 0.0147922
v -0.00072891 -0.0033383 0.014824
v 0.000678147 -0.00315077 0.0149562
v 0.00385103 -0.000472177 0.0148755
v 0.00205167 -0.00250365 2.7223e-06
v 0.00243518 -0.00213785 2.7111e-05
v 0.00286643 -0.00154928 5.3817e-05
v 0.003491 -0.000484505 1.69585e-07
v 0.00356504 0.00046396 0
v 0.00341584 0.0013756 0
v 0.00304379 0.00222054 0
v 0.00238399 0.00270329 7.97165e-05
v 0.00121286 0.00374132 2.93e-05
v 0.000271401 0.00350149 0.000324743
v 1.73868e-05 0.0036106 0.000289771
v -0.00278601 0.00279069 0.000249221
v -0.00347772 0.00185897 0.000304855
v -0.00386499 0.000781874 0.00036419
v -0.00347807 -0.00075776 0.000721502
v -0.00342186 -0.00164777 0.000632281
v -0.00355877 -0.00183156 0.000317771
v -0.00265764 -0.00291315 0.000569272
v -0.00191945 -0.00343281 0.00061523
v -0.00114836 -0.00377238 0.000660258
v -0.00026744 -0.0039239 0.00070312
v 0.00031121 -0.00392067 0.00073242
v 0.00113241 -0.00377719 0.000774352
v 0.00195763 -0.00341118 0.00082031
v 0.00264531 -0.00292438 0.000865336
v 0.00322815 -0.00224668 0.0009082
v 0.00317244 -0.00210779 0.000746599
v 0.00382196 -0.000970626 0.000979422
v 0.00376905 -0.000571544 0.000832956
v 0.00386829 0.00076549 0.00107041
v 0.00358664 0.00161385 0.00111328
v 0.00331102 0.00212265 0.00114258
v 0.00279739 0.00277922 0.0011845
v 0.00208557 0.0033345 0.00123047
v 0.00133209 0.00371148 0.00127549
v 0.00045966 0.00390605 0.00131836
v -0.00011845 0.00393122 0.00134766
v -0.00123064 0.00376479 0.0014076
v -0.00228256 0.00320288 0.00146484
v -0.00292233 0.00264773 0.00150481
v -0.00343281 0.00191945 0.00155273
v -0.00376972 0.00115701 0.00159466
v -0.0039239 0.00026744 0.00164062
v -0.00392067 -0.00031121 0.00166992
v -0.00369877 -0.00141719 0.00172245
v -0.00293043 -0.00263859 0.00179974
v -0.00246194 -0.00290284 0.00168961
v -0.00183307 -0.0033032 0.0017064
v -0.000957559 -0.00382539 0.00191496
v -7.458e-05 -0.00393229 0.00196289
v 0.000756617 -0.00387002 0.00200481
v 0.00122423 -0.00360399 0.00189469
v 0.00189103 -0.00327034 0.00191149
v 0.0027889 -0.00278792 0.00212003
v 0.0033345 -0.00208557 0.00216797
v 0.00371166 -0.00133167 0.00221211
v 0.0038458 0.000244702 0.00218272
v 0.00382822 0.000945634 0.00232708
v 0.00350313 0.00178789 0.00237305
v 0.00305038 0.002499 0.00241719
v 0.00171704 0.00359667 0.00249796
v 0.00026744 0.0039239 0.00257812
v -0.000575272 0.00390114 0.00262227
v -0.00202884 0.00327628 0.00259287
v -0.00263859 0.00293043 0.00273724
v -0.00324512 0.00146311 0.00309455
v -0.00372997 0.000715039 0.00300533
v -0.00385319 -5.58042e-05 0.00279794
v -0.00387002 -0.000756617 0.00294231
v -0.00358664 -0.00161385 0.00298828
v -0.00316958 -0.00234592 0.00303331
v -0.0026693 -0.00266604 0.00286397
v -0.00240858 -0.00295057 0.00291457
v -0.0013406 -0.00370841 0.00314739
v -0.00045966 -0.00390605 0.00319336
v 0.000382706 -0.00392469 0.00323838
v 0.000914131 -0.00366026 0.00306902
v 0.00129271 -0.0035827 0.00311966
v 0.00249161 -0.00305637 0.00335246
v 0.00311402 -0.00240237 0.00339844
v 0.00356308 -0.0016894 0.00344346
v 0.00360942 -0.00109788 0.00327409
v 0.00373757 -0.000733155 0.00332473
v 0.00390248 0.000565855 0.00355755
v 0.00366151 0.00143592 0.00360352
v 0.00328082 0.00218765 0.00364854
v 0.00269603 0.00286355 0.00369141
v 0.00224668 0.00322815 0.0037207
v 0.00125419 0.00375701 0.00378065
v 7.458e-05 0.00393229 0.00383789
v -0.000769893 0.00386753 0.00387784
v -0.00161385 0.00358664 0.00392578
v -0.00233861 0.00317496 0.0039677
v -0.00299239 0.00255227 0.00401367
v -0.0033345 0.00208557 0.00404297
v -0.00381511 0.00106503 0.00409549
v -0.00392554 -0.000373707 0.00417278
v -0.00370667 -0.000864975 0.00406265
v -0.00343998 -0.00156131 0.00407945
v -0.00304792 -0.00250214 0.004288
v -0.00240237 -0.00311402 0.00433594
v -0.00169757 -0.00355918 0.00437786
v -0.0011639 -0.00362397 0.00426772
v -0.000429408 -0.00375324 0.00428452
v 0.000579244 -0.00390064 0.00449308
v 0.00143592 -0.00366151 0.00454102
v 0.00218805 -0.00328058 0.00458516
v 0.00323492 -0.00209418 0.00455576
v 0.0036382 -0.00152086 0.00470013
v 0.00387879 -0.00065076 0.00474609
v 0.00393873 0.000190199 0.00479024
v 0.00352167 0.00186606 0.00487101
v 0.00255227 0.00299239 0.00495117
v 0.00186182 0.00347612 0.00499532
v 0.000322048 0.00384012 0.00496592
v -0.000373708 0.00392554 0.00511028
v -0.00173485 0.00310831 0.0054676
v -0.00257013 0.0027962 0.00537837
v -0.0031282 0.00225047 0.005171
v -0.00355918 0.00169757 0.00531536
v -0.00384218 0.0008403 0.00536133
v -0.0039433 3.82227e-06 0.00540635
v -0.00373226 -0.000550832 0.00523699
v -0.00369213 -0.000935396 0.00528764
v -0.00328583 -0.0021801 0.00552044
v -0.00269603 -0.00286355 0.00556641
v -0.00203058 -0.00338029 0.00561143
v -0.00144627 -0.00348446 0.00544207
v -0.00109585 -0.00364773 0.00549271
v 0.000180702 -0.00393914 0.00572552
v 0.00107011 -0.00378462 0.00577148
v 0.0018555 -0.00347947 0.00581651
v 0.002245 -0.00303206 0.00564713
v 0.00256554 -0.00281506 0.00569781
v 0.00347159 -0.00187018 0.0059306
v 0.00354831 -0.000284364 0.00628793
v 0.00375306 0.000586619 0.0062031
v 0.00387129 0.000694 0.00606445
v 0.00372755 0.00125453 0.00609375
v 0.00324543 0.00227052 0.00615369
v 0.00240237 0.00311402 0.00621094
v 0.00168542 0.00356509 0.00625089
v 0.0008403 0.00384218 0.00629883
v 1.28742e-05 0.00394327 0.00634075
v -0.00088312 0.00383257 0.00638672
v -0.00143592 0.00366151 0.00641602
v -0.00219143 0.00327844 0.00645597
v -0.00299529 0.00192345 0.00681525
v -0.00360911 0.00121617 0.00673501
v -0.00382419 0.000961863 0.00660752
v -0.00393863 -0.000194205 0.00666106
v -0.00378462 -0.00107011 0.00670898
v -0.00348371 -0.00184751 0.00675091
v -0.00309376 -0.00221734 0.00664075
v -0.00258037 -0.00275911 0.0066576
v -0.00185834 -0.00347808 0.00686613
v -0.00102782 -0.00379632 0.00691406
v 8.47912e-05 -0.00395992 0.00697401
v 0.00125453 -0.00372755 0.00703125
v 0.00178789 -0.00350313 0.00706055
v 0.00271214 -0.00288659 0.00711653
v 0.00356307 -0.0016894 0.00719346
v 0.00384218 -0.0008403 0.00723633
v 0.0039239 -0.00026744 0.00726562
v 0.00390248 0.000565855 0.00730755
v 0.00366151 0.00143592 0.00735352
v 0.00328082 0.00218765 0.00739854
v 0.00269603 0.00286355 0.00744141
v 0.00255023 0.00282899 0.00727982
v 0.00152086 0.0036382 0.00751263
v 0.00065076 0.00387879 0.00755859
v -0.000189738 0.00393873 0.00760362
v -0.00107011 0.00378462 0.00764648
v -0.00197244 0.00294614 0.00799302
v -0.00286895 0.00250475 0.00790688
v -0.00299239 0.00255227 0.00776367
v -0.00374114 0.00137344 0.00783489
v -0.00393122 -0.00011845 0.00791016
v -0.00382596 -0.000954878 0.0079543
v -0.00364671 -0.00144916 0.00784301
v -0.00265764 -0.00291315 0.00806927
v -0.00113804 -0.00337287 0.00842659
v -0.000345985 -0.0037821 0.00833736
v 0.000570573 -0.00394446 0.00824015
v 0.00195763 -0.00341118 0.00832031
v 0.00306085 -0.00255219 0.00839215
v 0.00382196 -0.000970627 0.00847942
v 0.00351106 0.000586251 0.00883675
v 0.00349862 0.00147772 0.0087475
v 0.00347778 0.00185885 0.00862517
v 0.00279738 0.00277924 0.0086845
v 0.00208557 0.0033345 0.00873047
v 0.0013321 0.00371148 0.00877549
v 0.00045966 0.00390605 0.00881836
v 0.000363218 0.00379144 0.00865677
v -0.000945632 0.00382822 0.00888958
v -0.00178789 0.00350313 0.00893555
v -0.0027123 0.0028864 0.00899294
v -0.00343281 0.00191945 0.00905273
v -0.00385877 0.000893311 0.00910872
v -0.00387014 -0.000842547 0.00919802
v -0.00341118 -0.00195763 0.00925781
v -0.00293042 -0.00263859 0.00929974
v -0.00224668 -0.00322815 0.0093457
v -0.00151252 -0.00364169 0.00939073
v -0.00065076 -0.00387879 0.00943359
v -7.458e-05 -0.00393229 0.00946289
v 0.00104442 -0.00382064 0.00952283
v 0.00212265 -0.00331102 0.00958008
v 0.0027889 -0.00278792 0.00962003
v 0.0033345 -0.00208557 0.00966797
v 0.00370841 -0.0013406 0.00970989
v 0.00390605 -0.00045966 0.00975586
v 0.00393122 0.00011845 0.00978516
v 0.00376385 0.00123401 0.00983768
v 0.00305638 0.0024916 0.00991496
v 0.00260142 0.00277854 0.00980484
v 0.00199294 0.00320927 0.00982163
v 0.00114412 0.00377379 0.0100302
v 0.00026744 0.0039239 0.0100781
v -0.000565855 0.00390248 0.01012
v -0.00106766 0.0036506 0.0100116
v -0.00171784 0.00336525 0.010027
v -0.00264869 0.00292146 0.0102353
v -0.00322815 0.00224668 0.0102832
v -0.00364188 0.0015121 0.0103274
v -0.00385319 -5.58093e-05 0.0102979
v -0.00387002 -0.000756616 0.0104423
v -0.00319662 -0.00126484 0.0110393
v -0.00253091 -0.00283169 0.0107104
v -0.00189145 -0.00350809 0.0106132
v -0.00045966 -0.00390605 0.0106934
v 0.000938158 -0.00387328 0.0107652
v 0.00265458 -0.00277961 0.0107776
v 0.00262225 -0.00222306 0.0114494
v 0.0039007 -0.000578665 0.0109982
v 0.00374885 0.000848098 0.0109827
v 0.00366151 0.00143592 0.0111035
v 0.00313833 0.00241635 0.0111609
v 0.00224668 0.00322815 0.0112207
v 0.00119992 0.00365147 0.0111878
v 0.00065076 0.00387879 0.0113086
v -0.000459135 0.00393409 0.011366
v -0.00161385 0.00358664 0.0114258
v -0.0025151 0.00290643 0.0113929
v -0.00299239 0.00255227 0.0115137
v -0.00361041 0.00162874 0.0115711
v -0.00390605 0.00045966 0.0116309
v -0.00392554 -0.000373707 0.0116728
v -0.00372755 -0.00125453 0.0117188
v -0.00338423 -0.00202401 0.0117638
v -0.00283329 -0.00272781 0.0118066
v -0.00240237 -0.00311402 0.0118359
v -0.00143704 -0.00369093 0.0118959
v -0.00026744 -0.0039239 0.0119531
v 0.000579245 -0.00390064 0.0119931
v 0.00143592 -0.00366151 0.012041
v 0.0021801 -0.00328583 0.0120829
v 0.00286355 -0.00269603 0.0121289
v 0.00322815 -0.00224668 0.0121582
v 0.00375826 -0.00125092 0.0122107
v 0.00393914 0.000180702 0.012288
v 0.00374472 0.000681841 0.0121779
v 0.00316703 0.00234955 0.0124032
v 0.00255227 0.00299239 0.0124512
v 0.00187018 0.00347159 0.0124931
v 0.001317 0.00356822 0.0123847
v -0.000387165 0.00392437 0.0126083
v -0.00125453 0.00372755 0.0126563
v -0.00202442 0.00338401 0.0127004
v -0.0031282 0.00225047 0.012671
v -0.00355918 0.00169757 0.0128154
v -0.00332093 0.000888569 0.0134123
v -0.00371968 -0.000766891 0.0130835
v -0.00360899 -0.00169101 0.0129862
v -0.00269603 -0.00286355 0.0130664
v -0.00155376 -0.00366992 0.0131382
v 0.000476714 -0.00381392 0.0131507
v 0.000781968 -0.00334764 0.0138225
v 0.00192896 -0.00296055 0.0138842
v 0.00278836 -0.00278842 0.0133713
v 0.00351627 -0.00155206 0.0133558
v 0.00379632 -0.00102782 0.0134766
v 0.00396016 7.13031e-05 0.013534
v 0.00372755 0.00125453 0.0135938
v 0.00313888 0.00221824 0.0135608
v 0.00283329 0.00272781 0.0136816
v 0.00197478 0.00343338 0.013739
v 0.0008403 0.00384218 0.0137988
v 0.000269376 0.0037039 0.0135531
v -0.000565855 0.00390248 0.01387
v -0.00143592 0.00366151 0.013916
v -0.00266585 0.0029627 0.0139823
v -0.00374132 0.00121286 0.0140918
v -0.00387879 0.00065076 0.0141211
v -0.00393229 7.458e-05 0.0141504
v -0.00386753 -0.000769891 0.0141903
v -0.00358664 -0.00161385 0.0142383
v -0.00316934 -0.00234628 0.0142824
v -0.00234913 -0.00316731 0.0143381
v -0.00102782 -0.00379632 0.0144141
v 0.00011845 -0.00393122 0.0144727
v 0.000694 -0.00387129 0.0145019
v 0.00125453 -0.00372755 0.0145313
v 0.00178789 -0.00350313 0.0145606
v 0.00276296 -0.00267245 0.0146249
v 0.00288696 -0.00253205 0.0148162
v 0.00331635 -0.00197578 0.0148221
v 0.00374686 -0.00103431 0.0148321
v 0.0039239 -0.00026744 0.0147656
v 0.00384139 0.000761854 0.0148885
v 0.00349122 0.00179081 0.0149236
v 0.00288152 0.00267542 0.0149574
v 0.00199391 0.0034086 0.014998
v 0 0.003933 0.015
v 0.00248895 -0.000387633 0.015
v 0.00186487 -0.00174388 0.015
v 0.000939459 -0.00233574 0.015
v -0.000185354 -0.0025057 0.015
v -0.00125 -0.00216506 0.015
v -0.00190286 -0.00164075 0.015
v -0.00233574 -0.000939459 0.015
v -0.0025057 0.000185354 0.015
v -0.00186487 0.00174388 0.015
v -0.00102078 0.00278767 0.0150541
v 0.00064705 0.00241481 0.015
v 0.00148587 0.00203404 0.015
v 0.00226268 0.00109231 0.015
v 0.00190286 -0.00164075 0.038
v 0.000577781 -0.00248697 0.038
v -0.00135001 -0.0021671 0.038
v -0.00248697 -0.000577781 0.038
v -0.00214489 0.00137532 0.038
v -0.00141341 0.0020773 0.038
v 0.000387633 0.00248895 0.038
v 0.00186487 0.00174388 0.038
v 0.00255177 -8.55563e-05 0.038
v 0.0024574 0.000323525 0.0265
v 0.00216506 -0.00125 0.0265
v -0.000948525 -0.00228994 0.0265
v -0.00228994 0.000948525 0.0265
v -0.000354259 0.00249255 0.038
v 0.00150889 0.00196642 0.0265
v 0.00089807 0.00382909 0
v -6.89129e-05 0.00398733 5.15859e-05
f 406 2 209
f 404 209 3
f 412 413 411
f 410 411 409
f 407 408 406
f 405 406 209
f 405 209 404
f 404 3 403
f 403 208 402
f 402 207 401
f 399 725 699
f 397 205 396
f 396 204 395
f 693 394 692
f 392 203 202
f 392 202 391
f 391 202 709
f 391 709 390
f 389 201 705
f 389 705 388
f 388 200 387
f 387 199 701
f 387 701 386
f 386 198 385
f 385 197 697
f 385 697 384
f 384 196 383
f 383 195 382
f 379 690 378
f 376 686 375
f 373 682 372
f 371 372 190
f 371 190 189
f 369 188 187
f 369 187 368
f 368 187 186
f 649 367 648
f 365 185 364
f 364 184 664
f 364 664 363
f 363 183 362
f 362 182 660
f 362 660 361
f 361 181 360
f 360 180 656
f 360 656 359
f 359 179 358
f 358 178 653
f 358 653 357
f 357 177 356
f 356 176 355
f 353 174 352
f 352 174 351
f 351 174 173
f 351 173 646
f 351 646 172
f 351 172 350
f 350 172 349
f 349 171 348
f 348 171 347
f 347 171 642
f 347 642 641
f 347 641 170
f 347 170 346
f 346 170 345
f 345 169 344
f 344 169 343
f 343 169 637
f 343 637 636
f 343 636 168
f 343 168 342
f 342 168 341
f 341 168 167
f 341 167 166
f 341 166 165
f 341 165 608
f 608 165 607
f 607 165 164
f 607 164 340
f 340 164 163
f 340 163 162
f 340 162 339
f 339 162 161
f 339 161 160
f 339 160 338
f 338 160 159
f 338 159 158
f 338 158 337
f 337 158 336
f 336 157 602
f 602 157 601
f 601 157 156
f 601 156 335
f 335 156 155
f 335 155 154
f 335 154 334
f 334 154 153
f 334 153 152
f 334 152 333
f 333 152 151
f 333 151 150
f 333 150 332
f 332 150 331
f 331 150 149
f 331 149 148
f 331 148 147
f 331 147 594
f 594 147 593
f 593 147 146
f 593 146 330
f 330 146 614
f 330 614 145
f 330 145 329
f 329 145 144
f 329 144 143
f 329 143 328
f 328 143 142
f 328 142 141
f 328 141 327
f 327 141 140
f 327 140 326
f 326 140 139
f 326 139 138
f 326 138 137
f 326 137 325
f 325 137 324
f 324 137 136
f 324 136 135
f 324 135 134
f 324 134 323
f 323 134 133
f 323 133 322
f 322 133 132
f 322 132 321
f 321 132 131
f 321 131 130
f 321 130 129
f 321 129 320
f 320 129 128
f 320 128 599
f 320 599 127
f 320 127 319
f 319 127 318
f 318 126 317
f 317 126 125
f 317 125 124
f 317 124 123
f 317 123 568
f 568 123 567
f 567 123 122
f 567 122 316
f 316 121 315
f 315 121 120
f 315 120 119
f 315 119 314
f 314 119 118
f 314 118 588
f 314 588 117
f 314 117 313
f 313 117 116
f 313 116 115
f 313 115 312
f 312 115 114
f 312 114 113
f 312 113 556
f 556 113 555
f 555 113 112
f 555 112 311
f 311 112 111
f 311 111 110
f 311 110 109
f 311 109 310
f 310 109 309
f 309 109 108
f 309 108 107
f 309 107 308
f 308 107 307
f 307 106 306
f 306 106 305
f 305 106 574
f 305 574 573
f 305 573 105
f 305 105 304
f 304 105 303
f 303 104 302
f 302 104 301
f 301 104 103
f 301 103 102
f 301 102 101
f 301 101 300
f 300 101 299
f 299 101 100
f 299 100 99
f 299 99 98
f 299 98 537
f 537 98 536
f 536 98 97
f 536 97 298
f 298 97 96
f 298 96 95
f 298 95 297
f 297 95 94
f 297 94 93
f 297 93 296
f 296 93 92
f 296 92 91
f 296 91 295
f 295 91 294
f 294 90 293
f 293 90 292
f 292 89 291
f 291 89 290
f 290 89 553
f 290 553 552
f 290 552 88
f 290 88 289
f 289 88 288
f 288 87 287
f 287 87 548
f 287 548 547
f 287 547 86
f 287 86 286
f 286 86 285
f 285 85 284
f 284 85 543
f 284 543 542
f 284 542 84
f 284 84 283
f 283 84 282
f 282 83 281
f 281 83 82
f 281 82 538
f 281 538 81
f 281 81 280
f 280 81 279
f 279 80 278
f 278 80 79
f 278 79 534
f 278 534 78
f 278 78 277
f 277 78 276
f 276 77 275
f 275 77 274
f 274 77 76
f 274 76 75
f 274 75 74
f 274 74 273
f 273 74 272
f 272 73 271
f 271 73 270
f 270 73 72
f 270 72 527
f 270 527 71
f 270 71 269
f 269 71 268
f 268 70 267
f 267 70 266
f 266 70 523
f 266 523 522
f 266 522 69
f 266 69 265
f 265 69 264
f 264 68 263
f 263 68 262
f 262 68 518
f 262 518 517
f 262 517 67
f 262 67 261
f 261 67 260
f 260 67 66
f 260 66 65
f 260 65 64
f 260 64 486
f 486 64 485
f 485 64 63
f 485 63 259
f 259 63 62
f 259 62 61
f 259 61 258
f 258 61 60
f 258 60 59
f 258 59 257
f 257 59 58
f 257 58 57
f 257 57 256
f 256 57 255
f 255 56 254
f 254 56 253
f 253 55 252
f 252 55 251
f 251 55 502
f 251 502 501
f 251 501 54
f 251 54 250
f 250 54 249
f 249 53 248
f 248 53 497
f 248 497 496
f 248 496 52
f 248 52 247
f 247 52 246
f 246 51 245
f 245 51 492
f 245 492 491
f 245 491 50
f 245 50 244
f 244 50 243
f 243 49 242
f 242 49 48
f 242 48 487
f 242 487 47
f 242 47 241
f 241 47 240
f 240 46 239
f 239 46 45
f 239 45 483
f 239 483 44
f 239 44 238
f 238 44 237
f 237 43 236
f 236 43 235
f 235 43 42
f 235 42 41
f 235 41 40
f 235 40 234
f 234 40 233
f 233 39 232
f 232 39 231
f 231 39 38
f 231 38 476
f 231 476 37
f 231 37 230
f 230 37 229
f 229 36 228
f 228 36 227
f 227 36 472
f 227 472 471
f 227 471 35
f 227 35 226
f 226 35 225
f 225 34 224
f 224 34 223
f 223 34 467
f 223 467 466
f 223 466 33
f 223 33 222
f 222 33 221
f 221 33 32
f 221 32 31
f 221 31 30
f 221 30 435
f 435 30 434
f 434 30 29
f 434 29 220
f 220 29 28
f 220 28 27
f 220 27 219
f 219 27 26
f 219 26 25
f 219 25 218
f 218 25 24
f 218 24 23
f 218 23 430
f 430 23 429
f 429 23 22
f 429 22 217
f 217 22 21
f 217 21 427
f 427 21 216
f 216 21 20
f 216 20 215
f 215 19 214
f 214 19 18
f 214 18 448
f 214 448 17
f 214 17 213
f 213 17 422
f 422 17 446
f 422 446 16
f 422 16 421
f 421 16 420
f 420 16 15
f 420 15 212
f 212 15 14
f 212 13 211
f 211 13 12
f 211 12 11
f 729 730 419
f 418 723 210
f 210 723 724
f 210 724 725
f 723 418 722
f 722 418 417
f 722 417 721
f 417 416 720
f 719 416 1
f 719 1 718
f 718 1 415
f 718 415 414
f 718 414 717
f 717 414 716
f 716 414 413
f 716 413 715
f 715 413 714
f 714 413 412
f 714 412 411
f 714 411 713
f 713 411 410
f 410 409 712
f 712 409 408
f 712 408 407
f 712 407 711
f 711 407 406
f 711 406 710
f 710 406 405
f 710 405 709
f 709 405 404
f 709 404 708
f 708 404 707
f 707 404 403
f 707 403 706
f 706 403 705
f 705 403 402
f 705 402 704
f 704 402 703
f 703 402 401
f 703 401 400
f 703 400 702
f 702 400 701
f 701 400 206
f 701 206 399
f 701 399 700
f 700 399 699
f 697 698 398
f 697 398 696
f 696 398 397
f 696 397 396
f 696 396 695
f 695 396 694
f 694 396 395
f 694 395 394
f 694 394 693
f 691 692 393
f 691 393 690
f 690 393 392
f 690 392 689
f 689 392 391
f 689 391 688
f 688 391 687
f 687 391 376
f 376 391 686
f 686 391 390
f 686 390 685
f 685 390 389
f 685 389 684
f 684 389 683
f 683 389 373
f 373 389 682
f 682 389 388
f 682 388 681
f 681 388 387
f 681 387 680
f 680 387 679
f 679 387 678
f 678 387 386
f 678 386 677
f 677 386 385
f 677 385 676
f 676 385 675
f 675 385 674
f 674 385 673
f 673 385 384
f 673 384 383
f 673 383 672
f 672 383 671
f 671 383 670
f 670 383 382
f 670 382 381
f 670 381 669
f 669 381 668
f 668 381 194
f 668 194 380
f 668 380 667
f 667 380 666
f 666 380 193
f 666 193 379
f 666 379 665
f 665 379 664
f 664 379 378
f 664 378 377
f 664 377 663
f 663 377 662
f 662 377 192
f 662 192 376
f 662 376 661
f 661 376 660
f 660 376 375
f 660 375 374
f 660 374 659
f 659 374 658
f 658 374 191
f 658 191 373
f 658 373 657
f 657 373 656
f 656 373 372
f 656 372 371
f 656 371 655
f 655 371 189
f 653 654 370
f 653 370 652
f 652 370 369
f 652 369 368
f 652 368 651
f 651 368 650
f 650 368 186
f 650 186 367
f 650 367 649
f 647 648 366
f 647 366 646
f 646 366 365
f 646 365 645
f 645 365 364
f 645 364 644
f 644 364 643
f 643 364 642
f 642 364 641
f 641 364 363
f 641 363 640
f 640 363 362
f 640 362 639
f 639 362 638
f 638 362 637
f 637 362 636
f 636 362 361
f 636 361 635
f 635 361 360
f 635 360 634
f 634 360 633
f 633 360 632
f 632 360 359
f 632 359 631
f 631 359 358
f 631 358 630
f 630 358 629
f 629 358 628
f 628 358 627
f 627 358 357
f 627 357 356
f 627 356 626
f 626 356 625
f 625 356 624
f 624 356 355
f 624 355 354
f 624 354 623
f 623 354 622
f 622 354 175
f 622 175 353
f 622 353 621
f 621 353 620
f 620 353 352
f 620 352 351
f 620 351 619
f 619 351 350
f 619 350 349
f 619 349 618
f 618 349 617
f 617 349 348
f 617 348 347
f 617 347 616
f 616 347 615
f 615 347 346
f 615 346 345
f 615 345 614
f 614 345 613
f 613 345 612
f 612 345 344
f 612 344 343
f 612 343 611
f 611 343 610
f 610 343 342
f 610 342 341
f 610 341 609
f 609 341 608
f 606 607 340
f 606 340 605
f 605 340 339
f 605 339 338
f 605 338 604
f 604 338 603
f 603 338 337
f 603 337 336
f 603 336 602
f 600 601 335
f 600 335 599
f 599 335 334
f 599 334 598
f 598 334 333
f 598 333 597
f 597 333 596
f 596 333 332
f 596 332 331
f 596 331 595
f 595 331 594
f 592 593 591
f 591 593 330
f 591 330 329
f 591 329 590
f 590 329 589
f 589 329 328
f 589 328 588
f 588 328 587
f 587 328 586
f 586 328 327
f 586 327 585
f 585 327 584
f 584 327 326
f 584 326 583
f 583 326 582
f 582 326 581
f 581 326 325
f 581 325 324
f 581 324 580
f 580 324 323
f 580 323 579
f 579 323 578
f 578 323 577
f 577 323 322
f 577 322 321
f 577 321 576
f 576 321 575
f 575 321 320
f 575 320 574
f 574 320 573
f 573 320 572
f 572 320 319
f 572 319 318
f 572 318 571
f 571 318 570
f 570 318 317
f 570 317 569
f 569 317 568
f 566 567 316
f 566 316 565
f 565 316 564
f 564 316 315
f 564 315 563
f 563 315 314
f 563 314 562
f 562 314 561
f 561 314 560
f 560 314 559
f 559 314 313
f 559 313 312
f 559 312 558
f 558 312 557
f 557 312 556
f 554 555 311
f 554 311 553
f 553 311 552
f 552 311 551
f 551 311 310
f 551 310 309
f 551 309 550
f 550 309 549
f 549 309 308
f 549 308 307
f 549 307 548
f 548 307 547
f 547 307 546
f 546 307 306
f 546 306 305
f 546 305 545
f 545 305 544
f 544 305 304
f 544 304 303
f 544 303 543
f 543 303 542
f 542 303 541
f 541 303 302
f 541 302 301
f 541 301 540
f 540 301 539
f 539 301 300
f 539 300 299
f 539 299 538
f 538 299 537
f 535 536 298
f 535 298 534
f 534 298 297
f 534 297 533
f 533 297 296
f 533 296 532
f 532 296 531
f 531 296 295
f 531 295 294
f 531 294 530
f 530 294 293
f 530 293 292
f 530 292 529
f 529 292 528
f 528 292 291
f 528 291 290
f 528 290 527
f 527 290 526
f 526 290 289
f 526 289 288
f 526 288 525
f 525 288 524
f 524 288 287
f 524 287 523
f 523 287 522
f 522 287 521
f 521 287 286
f 521 286 285
f 521 285 520
f 520 285 519
f 519 285 284
f 519 284 518
f 518 284 517
f 517 284 516
f 516 284 283
f 516 283 282
f 516 282 515
f 515 282 281
f 515 281 514
f 514 281 513
f 513 281 512
f 512 281 280
f 512 280 279
f 512 279 511
f 511 279 510
f 510 279 278
f 510 278 509
f 509 278 508
f 508 278 277
f 508 277 276
f 508 276 507
f 507 276 506
f 506 276 505
f 505 276 275
f 505 275 274
f 505 274 504
f 504 274 503
f 503 274 273
f 503 273 272
f 503 272 502
f 502 272 501
f 501 272 500
f 500 272 271
f 500 271 270
f 500 270 499
f 499 270 498
f 498 270 269
f 498 269 268
f 498 268 497
f 497 268 496
f 496 268 495
f 495 268 267
f 495 267 266
f 495 266 494
f 494 266 493
f 493 266 265
f 493 265 264
f 493 264 492
f 492 264 491
f 491 264 490
f 490 264 263
f 490 263 262
f 490 262 489
f 489 262 488
f 488 262 261
f 488 261 260
f 488 260 487
f 487 260 486
f 484 485 259
f 484 259 483
f 483 259 258
f 483 258 482
f 482 258 257
f 482 257 481
f 481 257 480
f 480 257 256
f 480 256 255
f 480 255 479
f 479 255 254
f 479 254 253
f 479 253 478
f 478 253 477
f 477 253 252
f 477 252 251
f 477 251 476
f 476 251 475
f 475 251 250
f 475 250 249
f 475 249 474
f 474 249 473
f 473 249 248
f 473 248 472
f 472 248 471
f 471 248 470
f 470 248 247
f 470 247 246
f 470 246 469
f 469 246 468
f 468 246 245
f 468 245 467
f 467 245 466
f 466 245 465
f 465 245 244
f 465 244 243
f 465 243 464
f 464 243 242
f 464 242 463
f 463 242 462
f 462 242 461
f 461 242 241
f 461 241 240
f 461 240 460
f 460 240 459
f 459 240 239
f 459 239 458
f 458 239 457
f 457 239 238
f 457 238 237
f 457 237 456
f 456 237 455
f 455 237 454
f 454 237 236
f 454 236 235
f 454 235 453
f 453 235 452
f 452 235 234
f 452 234 233
f 452 233 451
f 451 233 450
f 450 233 449
f 449 233 232
f 449 232 231
f 449 231 448
f 448 231 447
f 447 231 230
f 447 230 229
f 447 229 446
f 446 229 445
f 445 229 444
f 444 229 228
f 444 228 227
f 444 227 443
f 443 227 442
f 442 227 226
f 442 226 225
f 442 225 441
f 441 225 440
f 440 225 439
f 439 225 224
f 439 224 223
f 439 223 438
f 438 223 437
f 437 223 222
f 437 222 221
f 437 221 436
f 436 221 435
f 433 434 220
f 433 220 432
f 432 220 219
f 432 219 431
f 431 219 218
f 431 218 5
f 5 218 4
f 4 218 430
f 764 429 217
f 764 217 428
f 428 217 427
f 427 216 426
f 426 216 215
f 426 215 425
f 425 215 214
f 425 214 424
f 424 214 423
f 423 214 213
f 423 213 422
f 408 743 406
f 406 743 744
f 734 744 209
f 209 744 745
f 209 745 733
f 733 745 746
f 733 746 732
f 732 746 747
f 732 747 731
f 731 747 730
f 730 747 735
f 730 735 419
f 419 735 728
f 728 735 727
f 727 735 736
f 727 736 726
f 726 736 725
f 725 736 210
f 210 736 737
f 210 737 418
f 418 737 738
f 418 738 417
f 417 738 416
f 416 738 739
f 416 739 1
f 1 739 740
f 1 740 415
f 415 740 414
f 414 740 741
f 414 741 413
f 413 741 742
f 413 742 411
f 411 742 743
f 411 743 409
f 409 743 408
f 756 735 757
f 756 757 755
f 755 757 747
f 755 747 762
f 755 762 754
f 754 762 745
f 754 745 761
f 752 760 751
f 751 760 742
f 751 742 741
f 751 741 750
f 750 741 740
f 750 740 759
f 750 759 749
f 749 759 738
f 749 738 737
f 749 737 748
f 748 758 756
f 756 758 735
f 747 757 735
f 736 735 758
f 736 758 748
f 736 748 737
f 738 759 739
f 739 759 740
f 742 760 743
f 743 760 752
f 743 752 753
f 743 753 744
f 744 753 761
f 744 761 745
f 746 745 762
f 746 762 747
f 756 752 751
f 756 751 748
f 748 751 750
f 748 750 749
f 752 756 755
f 752 755 753
f 753 755 761
f 761 755 754
f 431 5 6
f 431 6 432
f 432 6 7
f 432 7 433
f 433 7 8
f 433 8 434
f 434 8 435
f 435 8 9
f 435 9 10
f 435 10 436
f 437 436 11
f 437 11 12
f 437 12 438
f 438 12 439
f 439 12 13
f 439 13 440
f 440 13 441
f 441 13 212
f 441 212 442
f 442 212 14
f 442 14 443
f 443 14 15
f 443 15 444
f 444 15 16
f 444 16 445
f 445 16 446
f 447 446 17
f 447 17 448
f 449 448 18
f 449 18 19
f 449 19 450
f 450 19 451
f 451 19 215
f 451 215 452
f 452 215 20
f 452 20 453
f 453 20 21
f 453 21 454
f 454 21 22
f 454 22 455
f 455 22 456
f 456 22 23
f 456 23 457
f 457 23 24
f 457 24 25
f 457 25 458
f 458 25 459
f 459 25 26
f 459 26 27
f 459 27 460
f 460 27 461
f 461 27 28
f 461 28 29
f 461 29 462
f 462 29 463
f 463 29 30
f 463 30 464
f 464 30 31
f 464 31 32
f 464 32 465
f 465 32 33
f 465 33 466
f 468 467 34
f 468 34 469
f 469 34 225
f 469 225 470
f 470 225 35
f 470 35 471
f 473 472 36
f 473 36 474
f 474 36 229
f 474 229 475
f 475 229 37
f 475 37 476
f 476 38 477
f 477 38 39
f 477 39 478
f 478 39 233
f 478 233 479
f 479 233 40
f 479 40 480
f 480 40 41
f 480 41 42
f 480 42 43
f 480 43 481
f 481 43 237
f 481 237 482
f 482 237 44
f 482 44 483
f 483 45 484
f 484 45 46
f 484 46 485
f 485 46 240
f 485 240 486
f 486 240 47
f 486 47 487
f 487 48 488
f 488 48 49
f 488 49 489
f 489 49 243
f 489 243 490
f 490 243 50
f 490 50 491
f 493 492 51
f 493 51 494
f 494 51 246
f 494 246 495
f 495 246 52
f 495 52 496
f 498 497 53
f 498 53 499
f 499 53 249
f 499 249 500
f 500 249 54
f 500 54 501
f 503 502 55
f 503 55 504
f 504 55 253
f 504 253 505
f 505 253 56
f 505 56 506
f 506 56 255
f 506 255 507
f 507 255 57
f 507 57 508
f 508 57 58
f 508 58 59
f 508 59 509
f 509 59 510
f 510 59 60
f 510 60 61
f 510 61 511
f 511 61 512
f 512 61 62
f 512 62 63
f 512 63 513
f 513 63 514
f 514 63 64
f 514 64 515
f 515 64 65
f 515 65 66
f 515 66 516
f 516 66 67
f 516 67 517
f 519 518 68
f 519 68 520
f 520 68 264
f 520 264 521
f 521 264 69
f 521 69 522
f 524 523 70
f 524 70 525
f 525 70 268
f 525 268 526
f 526 268 71
f 526 71 527
f 527 72 528
f 528 72 73
f 528 73 529
f 529 73 272
f 529 272 530
f 530 272 74
f 530 74 531
f 531 74 75
f 531 75 76
f 531 76 77
f 531 77 532
f 532 77 276
f 532 276 533
f 533 276 78
f 533 78 534
f 534 79 535
f 535 79 80
f 535 80 536
f 536 80 279
f 536 279 537
f 537 279 81
f 537 81 538
f 538 82 539
f 539 82 83
f 539 83 540
f 540 83 282
f 540 282 541
f 541 282 84
f 541 84 542
f 544 543 85
f 544 85 545
f 545 85 285
f 545 285 546
f 546 285 86
f 546 86 547
f 549 548 87
f 549 87 550
f 550 87 288
f 550 288 551
f 551 288 88
f 551 88 552
f 554 553 89
f 554 89 555
f 555 89 292
f 555 292 556
f 556 292 90
f 556 90 557
f 557 90 294
f 557 294 558
f 558 294 91
f 558 91 559
f 559 91 92
f 559 92 93
f 559 93 560
f 560 93 561
f 561 93 94
f 561 94 95
f 561 95 562
f 562 95 563
f 563 95 96
f 563 96 97
f 563 97 564
f 564 97 565
f 565 97 98
f 565 98 566
f 566 98 99
f 566 99 567
f 567 99 100
f 567 100 568
f 568 100 101
f 568 101 569
f 569 101 102
f 569 102 103
f 569 103 570
f 570 103 104
f 570 104 571
f 571 104 303
f 571 303 572
f 572 303 105
f 572 105 573
f 575 574 106
f 575 106 576
f 576 106 307
f 576 307 577
f 577 307 107
f 577 107 108
f 577 108 578
f 578 108 579
f 579 108 109
f 579 109 580
f 580 109 110
f 580 110 111
f 580 111 581
f 581 111 112
f 581 112 582
f 582 112 113
f 582 113 583
f 583 113 584
f 584 113 114
f 584 114 115
f 584 115 585
f 585 115 586
f 586 115 116
f 586 116 117
f 586 117 587
f 587 117 588
f 589 588 118
f 589 118 119
f 589 119 590
f 590 119 591
f 591 119 120
f 591 120 121
f 591 121 592
f 592 121 593
f 593 121 316
f 593 316 594
f 594 316 122
f 594 122 595
f 595 122 123
f 595 123 596
f 596 123 124
f 596 124 125
f 596 125 126
f 596 126 597
f 597 126 598
f 598 126 318
f 598 318 127
f 598 127 599
f 600 599 128
f 600 128 129
f 600 129 601
f 601 129 602
f 602 129 130
f 602 130 131
f 602 131 603
f 603 131 132
f 603 132 133
f 603 133 604
f 604 133 134
f 604 134 605
f 605 134 135
f 605 135 136
f 605 136 137
f 605 137 606
f 606 137 138
f 606 138 607
f 607 138 139
f 607 139 608
f 608 139 140
f 608 140 609
f 609 140 141
f 609 141 610
f 610 141 142
f 610 142 143
f 610 143 611
f 611 143 612
f 612 143 144
f 612 144 145
f 612 145 613
f 613 145 614
f 615 614 146
f 615 146 616
f 616 146 147
f 616 147 617
f 617 147 148
f 617 148 149
f 617 149 618
f 618 149 150
f 618 150 619
f 619 150 151
f 619 151 152
f 619 152 620
f 620 152 153
f 620 153 154
f 620 154 621
f 621 154 622
f 622 154 155
f 622 155 156
f 622 156 623
f 623 156 624
f 624 156 157
f 624 157 625
f 625 157 336
f 625 336 626
f 626 336 158
f 626 158 627
f 627 158 159
f 627 159 160
f 627 160 628
f 628 160 629
f 629 160 161
f 629 161 162
f 629 162 630
f 630 162 631
f 631 162 163
f 631 163 164
f 631 164 632
f 632 164 633
f 633 164 165
f 633 165 634
f 634 165 166
f 634 166 167
f 634 167 635
f 635 167 168
f 635 168 636
f 638 637 169
f 638 169 639
f 639 169 345
f 639 345 640
f 640 345 170
f 640 170 641
f 643 642 171
f 643 171 644
f 644 171 349
f 644 349 645
f 645 349 172
f 645 172 646
f 646 173 647
f 647 173 174
f 647 174 648
f 648 174 353
f 648 353 649
f 649 353 175
f 649 175 650
f 650 175 354
f 650 354 355
f 650 355 176
f 650 176 651
f 651 176 356
f 651 356 652
f 652 356 177
f 652 177 357
f 652 357 653
f 653 178 654
f 654 178 358
f 654 358 189
f 189 358 179
f 189 179 655
f 655 179 359
f 655 359 656
f 656 180 657
f 657 180 360
f 657 360 658
f 658 360 181
f 658 181 361
f 658 361 659
f 659 361 660
f 660 182 661
f 661 182 362
f 661 362 662
f 662 362 183
f 662 183 363
f 662 363 663
f 663 363 664
f 664 184 665
f 665 184 364
f 665 364 666
f 666 364 185
f 666 185 365
f 666 365 667
f 667 365 668
f 668 365 366
f 668 366 648
f 668 648 669
f 669 648 670
f 670 648 367
f 670 367 671
f 671 367 672
f 672 367 186
f 672 186 673
f 673 186 187
f 673 187 674
f 674 187 675
f 675 187 188
f 675 188 369
f 675 369 676
f 676 369 677
f 677 369 370
f 677 370 654
f 677 654 678
f 678 654 679
f 679 654 189
f 679 189 680
f 680 189 190
f 680 190 681
f 681 190 372
f 681 372 682
f 683 373 191
f 683 191 684
f 684 191 374
f 684 374 685
f 685 374 375
f 685 375 686
f 687 376 192
f 687 192 688
f 688 192 377
f 688 377 689
f 689 377 378
f 689 378 690
f 690 379 691
f 691 379 193
f 691 193 692
f 692 193 380
f 692 380 693
f 693 380 194
f 693 194 694
f 694 194 381
f 694 381 382
f 694 382 195
f 694 195 695
f 695 195 383
f 695 383 696
f 696 383 196
f 696 196 384
f 696 384 697
f 697 197 698
f 698 197 385
f 698 385 699
f 699 385 198
f 699 198 700
f 700 198 386
f 700 386 701
f 701 199 702
f 702 199 387
f 702 387 703
f 703 387 200
f 703 200 388
f 703 388 704
f 704 388 705
f 705 201 706
f 706 201 389
f 706 389 707
f 707 389 390
f 707 390 709
f 707 709 708
f 710 709 202
f 710 202 711
f 711 202 712
f 712 202 203
f 712 203 392
f 712 392 393
f 712 393 410
f 410 393 692
f 410 692 713
f 713 692 714
f 714 692 394
f 714 394 715
f 715 394 716
f 716 394 395
f 716 395 717
f 717 395 718
f 718 395 204
f 718 204 396
f 718 396 719
f 719 396 205
f 719 205 416
f 416 205 397
f 416 397 720
f 720 397 417
f 417 397 398
f 417 398 721
f 721 398 698
f 721 698 722
f 722 698 723
f 723 698 699
f 723 699 724
f 724 699 725
f 726 725 399
f 726 399 727
f 727 399 206
f 727 206 728
f 728 206 400
f 728 400 419
f 419 400 401
f 419 401 729
f 729 401 730
f 730 401 207
f 730 207 402
f 730 402 731
f 731 402 208
f 731 208 732
f 732 208 403
f 732 403 733
f 733 403 3
f 733 3 209
f 734 209 2
f 734 2 744
f 744 2 406
f 764 4 430
f 764 430 429
f 763 764 428
f 763 428 427
f 11 436 420
f 420 436 10
f 10 9 420
f 420 9 421
f 421 9 422
f 422 9 423
f 423 9 424
f 424 9 8
f 424 8 425
f 425 8 7
f 425 7 426
f 426 7 6
f 426 6 427
f 427 6 5
f 427 5 763
f 763 5 764
f 764 5 4
f 420 212 211
f 420 211 11
