v -0.00175076 -0.00352544 0.025
v -0.000842514 -0.00383864 0.025049
v 0.000436129 -0.00392774 0.0250932
v 0.00194792 -0.00348798 0.0250463
v 0.00303213 -0.00251985 0.0253474
v 0.00393675 -3.904e-06 0.0252208
v 0.0039374 -0.000460438 0.0253771
v -0.00394114 -0.000617449 0.0259161
v -0.00353442 -0.00159705 0.0260279
v -0.00354259 0.00166515 0.0259342
v -0.0018866 -0.00348568 0.026169
v -0.00102697 -0.00383025 0.0262203
v 0.00112418 -0.00382378 0.0263127
v 0.00274662 -0.00289722 0.0263738
v 0.00301463 -0.0020329 0.0261116
v 0.00370439 -0.00147519 0.0265867
v 0.00392728 -1.66332e-06 0.0265625
v 0.00392541 0.000374431 0.0251432
v 0.00330879 0.00226132 0.0254247
v 0.00169254 0.00362814 0.0254993
v 0.00150741 0.00363039 0.0256385
v 0.000273702 0.00395213 0.0256503
v -0.00269782 0.00293952 0.0257493
v -0.00297998 0.00162914 0.0253126
v -0.00395582 9.50025e-09 0.0271874
v -0.00388815 -0.000776162 0.0272264
v -0.00273214 -0.00283184 0.0271812
v -0.00354515 -0.00182249 0.0273017
v -0.00381767 0.0010976 0.0271621
v -0.00214796 -0.00274923 0.0278756
v -0.000985396 -0.00385267 0.0274691
v -4.53379e-05 -0.00396282 0.0275128
v 0.0010109 -0.00383483 0.02753
v 0.0018852 -0.00348622 0.0275809
v 0.00310174 -0.00257265 0.0276697
v 0.00383187 -0.00121682 0.0277752
v 0.00369653 0.00150062 0.0265715
v 0.00311558 0.00246692 0.0267137
v 0.00191479 0.00353626 0.026773
v 0.00150119 0.00362945 0.0268885
v 0.000248185 0.00360357 0.0265555
v -0.000972181 0.00385058 0.0269032
v 0.00393141 3.49148e-06 0.0279042
v -0.00233785 0.00324087 0.0270184
v -0.00342527 0.00202272 0.0270625
v -0.0038792 -0.00106111 0.0284187
v -0.003933 9.63307e-19 0.028529
v -0.00363352 -0.00150127 0.0286073
v -0.00326528 -0.00218104 0.0286464
v -0.003855 0.000763566 0.0284901
v -0.00179572 -0.0035456 0.028701
v -0.000776035 -0.00388687 0.0287111
v 0.000418591 -0.00395067 0.0287701
v 0.00303883 -0.00263548 0.028853
v 0.00326448 -0.00218272 0.029037
v 0.00394073 -0.000661748 0.0290728
v 0.00370182 0.00157726 0.0278551
v 0.00279246 0.00279291 0.0279687
v 0.00185279 0.00352724 0.0280203
v -0.000772272 0.00388227 0.0281641
v -0.00155882 0.00363753 0.0281905
v -0.00220701 0.00329943 0.0282421
v -0.00347339 0.00207635 0.0282926
v -0.00394702 -0.000741252 0.0297161
v -0.00339808 -0.000738895 0.0301078
v -0.00286107 -0.00278725 0.0297737
v -0.00181596 -0.00352609 0.0299493
v 4.7315e-05 -0.00395974 0.0299873
v 0.000775419 -0.00389454 0.030039
v 0.00178471 -0.00355422 0.0301352
v 0.00178064 -0.0032632 0.0304604
v 0.00329766 -0.0022 0.0301951
v 0.00386 -0.00077085 0.0301818
v 0.00392897 -2.83897e-06 0.0302208
v 0.00392197 -0.000878575 0.0302994
v 0.0036288 0.00150148 0.0292323
v 0.00388279 0.00104762 0.0290514
v 0.00326484 0.00218442 0.0292714
v 0.00257218 0.0030285 0.0291908
v 0.00181804 0.00353178 0.0293245
v 0.000773762 0.00388272 0.029336
v -4.80808e-05 0.00395455 0.0293625
v -0.000776786 0.00388971 0.0294139
v -0.00147953 0.00367972 0.0294658
v -0.00225077 0.00276539 0.0290245
v -0.00279212 0.00279462 0.0295313
v -0.00371576 0.00151626 0.0296107
v -0.00395582 -4.88262e-10 0.0309375
v -0.00388537 -0.000775641 0.0309764
v -0.00262974 -0.00304202 0.0310409
v -0.00353974 -0.0018336 0.0310522
v -0.00369604 0.00157622 0.0308651
v -0.00218186 -0.00326467 0.0312245
v -0.000983234 -0.00385049 0.031219
v -4.30568e-05 -0.003965 0.0312628
v 0.00100571 -0.00383823 0.0312798
v 0.00187767 -0.00348831 0.0313304
v 0.00311386 -0.00255829 0.0314211
v 0.00367334 -0.00158558 0.0315003
v 0.00395523 -0.000328436 0.0315468
v 0.00382075 0.00107839 0.0303367
v 0.00346777 0.0019378 0.030396
v 0.0031072 0.0024789 0.0304648
v 0.00249386 0.00226128 0.0310222
v -4.31494e-05 0.00396493 0.0306122
v 0.00152177 0.00371717 0.0305421
v -0.00228999 0.00327958 0.0307205
v -0.00106018 0.00383967 0.0307066
v 0.00392888 2.79836e-06 0.0316542
v -0.00388022 -0.00106679 0.0321688
v -0.003933 9.63307e-19 0.032279
v -0.00363622 -0.00150245 0.0323573
v -0.00299246 -0.00259373 0.0323691
v -0.00385274 0.000764182 0.0322401
v -0.00185745 -0.00352793 0.0323952
v -0.000320118 -0.00361729 0.032161
v 0.000773702 -0.00388268 0.032539
v 0.0030137 -0.00266595 0.0326124
v 0.00326495 -0.00218465 0.032787
v 0.00401765 -0.000332746 0.0327718
v 0.00393912 9.97459e-07 0.0329042
v 0.00385988 0.000770865 0.0316932
v 0.00379634 0.00121603 0.0316045
v 0.00329775 0.00220008 0.0316799
v 0.00218266 0.00336875 0.0317383
v 0.00218039 0.00326786 0.0318495
v 0.000775361 0.00389459 0.031836
v 4.7257e-05 0.00395986 0.0318877
v -0.000771114 0.00388307 0.0319141
v -0.00155793 0.00363535 0.0319406
v -0.00247667 0.0031244 0.032036
v -0.0034872 0.00200497 0.0320201
v -0.0036278 0.00150468 0.032201
v -0.00394193 -0.000729639 0.0334752
v -0.00290353 -0.00276482 0.0335446
v -0.00278293 -0.00278604 0.0336854
v -0.00181967 -0.00352766 0.0336992
v -0.000772332 -0.00388226 0.0337109
v 4.81797e-05 -0.00395691 0.0337374
v 0.000776455 -0.00389262 0.0337889
v 0.00329523 -0.00219874 0.0339452
v 0.00392698 -0.00086537 0.0340505
v 0.00393153 -3.50473e-06 0.0339708
v 0.00365909 0.00163074 0.0329201
v 0.00256476 0.00303186 0.0329413
v 0.00162754 0.00322661 0.0334369
v 0.00041886 0.00395069 0.0331049
v -0.000776014 0.00388675 0.0331639
v -0.00155697 0.00364693 0.0331904
v -0.00220292 0.0033012 0.0332423
v -0.00324916 0.00232903 0.0332751
v -0.00375497 0.00136621 0.0334199
v -0.00393742 -0.000667472 0.0346901
v -0.00342503 -0.00202306 0.0348126
v -0.00385713 0.000770846 0.0347401
v -0.00218361 -0.00326457 0.0349745
v -0.000972286 -0.00385043 0.0349718
v -3.9195e-09 -0.00396219 0.035
v 0.000972281 -0.00385043 0.0350282
v 0.00182157 -0.00352558 0.0350942
v 0.00263857 -0.00296794 0.0351676
v 0.00366369 -0.0016321 0.035261
v 0.00382115 0.00107167 0.0340865
v 0.00346519 0.00193644 0.034146
v 0.00309562 0.0024927 0.0342162
v 0.00194402 0.00352308 0.0342708
v 0.00150375 0.00362756 0.0343885
v 0.000230036 0.00396695 0.0343866
v -0.00150166 0.00363464 0.0343615
v -0.00106249 0.00384206 0.0344566
v 0.00392724 1.59048e-06 0.0353125
v -0.00274835 0.00289759 0.0344944
v -0.00349007 0.00190058 0.0346072
v -0.00378036 0.0012427 0.0346225
v -0.00395579 3.41173e-08 0.0359373
v -0.003482 -0.00193042 0.0360179
v -0.00363157 -0.0013672 0.0360201
v -0.0037296 0.00144527 0.0359078
v -0.00228038 -0.00328036 0.0360989
v -0.00100732 -0.00384803 0.0362179
v -4.8176e-05 -0.00395691 0.0362626
v 0.00117056 -0.00380012 0.0363011
v 0.00349001 -0.00199205 0.036362
v 0.00350066 -0.00181758 0.0365618
v 0.00395161 -0.000366858 0.0365623
v 0.00327398 0.00218373 0.035338
v 0.00370704 0.00154425 0.035382
v 0.00262671 0.00297245 0.0354581
v 0.00147299 0.0037101 0.0355433
v 0.000319158 0.00396096 0.0356532
v -0.00101113 0.00383472 0.035655
v 0.00393732 2.51732e-06 0.0366542
v -0.0022785 0.00327558 0.0357346
v -0.00330361 0.00224454 0.0357926
v -0.00388345 -0.00104518 0.0371696
v -0.003933 9.63307e-19 0.0372792
v -0.00326488 -0.0021845 0.0373964
v -0.00257259 -0.00302823 0.0373158
v -0.00181824 -0.00353157 0.0374495
v -0.000773712 -0.00388267 0.037461
v 4.80999e-05 -0.00395463 0.0374875
v 0.000776794 -0.00388983 0.0375389
v 0.00276964 -0.0028891 0.0376762
v 0.00386374 -0.00076852 0.0376818
v 0.00373064 -0.00148515 0.0377377
v 0.00393447 -3.42568e-06 0.0377208
v 0.00373703 0.00140685 0.0365806
v 0.00386306 0.000766559 0.0366932
v 0.00326523 0.00218109 0.0367714
v 0.00190538 0.00310876 0.0363273
v 0.00179623 0.00354535 0.036826
v 0.000776014 0.00388675 0.0368361
v -0.000775068 0.0038843 0.0369139
v -0.00155828 0.00364414 0.0369404
v -0.00220509 0.00330214 0.0369923
v -0.00324208 0.00233998 0.0370242
v -0.00375096 0.00136866 0.0371697
v -0.00393618 -0.000664694 0.0384403
v -0.00342026 -0.0020279 0.0385628
v -0.00386009 0.000770836 0.0384901
v -0.00238383 -0.0032106 0.0385944
v -0.00140761 -0.00350223 0.0389366
v -0.00100571 -0.00383823 0.0387202
v 4.30542e-05 -0.003965 0.0387372
v 0.00110753 -0.00382451 0.0388152
v 0.00219938 -0.0032911 0.0388672
v 0.00301709 -0.00153406 0.0383861
v 0.00367436 -0.00163614 0.0390219
v 0.00392662 3.2681e-08 0.0390625
v 0.00393527 0.000511705 0.0378598
v 0.00353713 0.00178708 0.0378658
v 0.00297278 0.00264385 0.0379805
v 0.00202473 0.00341682 0.0379999
v -4.72528e-05 0.00395986 0.0381123
v 0.0010681 0.00382189 0.0381012
v -0.00247031 0.00316875 0.0381935
v -0.00107044 0.00384161 0.0382069
v -0.00277761 0.00277594 0.0383729
v -0.00370344 0.00150395 0.0383536
v -0.00395581 1.40015e-08 0.0396873
v -0.00382859 -0.00111994 0.0397446
v -0.00372722 0.00145914 0.0396569
v -0.00187775 -0.00347471 0.0398048
v -0.00288431 -0.00277337 0.0398639
v -0.000994399 -0.00385177 0.0399687
v -4.73088e-05 -0.00395974 0.0400127
v 0.000806009 -0.00373439 0.0401286
v 0.00349777 -0.00199487 0.0401397
v 0.00247642 -0.00312469 0.040161
v 0.0032688 -0.00218838 0.040287
v 0.00394814 -0.000371251 0.0403119
v 0.00359464 0.001821 0.0391079
v 0.00257003 0.00302597 0.039234
v 0.00100308 0.00391886 0.0393613
v -0.00219649 0.00332992 0.0394395
v -0.00161668 0.00358205 0.0393643
v 0.00393459 3.40575e-06 0.0404042
v -0.00331289 0.00223444 0.0395436
v -0.00387585 -0.00106029 0.0409189
v -0.003933 9.63307e-19 0.0410292
v -0.00363072 -0.00150094 0.0411073
v -0.00326449 -0.00218259 0.0411464
v -0.00256496 -0.00303184 0.0410663
v 7.69916e-07 -0.0039496 0.04125
v 0.000776041 -0.00388687 0.0412889
v 0.00255193 -0.003054 0.0413692
v 0.00386312 -0.000766635 0.0414318
v 0.00370069 -0.001546 0.0415053
v 0.00393722 -2.5672e-06 0.0414708
v 0.00374023 0.00140744 0.0403304
v 0.00386375 0.000768447 0.0404432
v 0.00326689 0.00218041 0.0405214
v 0.00279211 0.00279463 0.0404687
v 0.00185776 0.00352785 0.0405202
v 0.000776793 0.00388971 0.0405861
v -0.000380382 0.00395681 0.0406523
v -0.001559 0.00364081 0.0406904
v -0.00335954 0.00218215 0.0407852
v -0.00245783 0.00314035 0.040785
v -0.00326491 0.00218457 0.040912
v -0.00384122 7.92592e-05 0.0408056
v -0.00393684 -0.000655059 0.0421635
v -0.00361975 -0.00170186 0.0423095
v -0.00386256 0.000770004 0.0422401
v -0.0018852 -0.00348622 0.0424191
v -0.00101089 -0.00383483 0.04247
v 4.53343e-05 -0.00396282 0.0424873
v 0.00110947 -0.00382705 0.0425652
v 0.00275627 -0.00289763 0.0426072
v 0.00277967 -0.00277602 0.0427479
v 0.00370902 -0.00148205 0.0428044
v 0.00392715 -1.47855e-06 0.0427208
v 0.00384635 0.00115812 0.0416025
v 0.00320979 0.00238799 0.0417183
v 0.00202791 0.00341852 0.0417497
v -4.81586e-05 0.00395701 0.0418624
v 0.00107493 0.00382079 0.0418509
v -0.00029432 0.00368405 0.0415656
v 0.00392723 -1.58217e-06 0.0429042
v -0.00266537 0.00295655 0.042057
v -0.00277627 0.00277685 0.0421229
v -0.00370934 0.00148592 0.0421049
v -0.00395582 -1.06814e-08 0.0434374
v -0.00388839 -0.000776184 0.0434764
v -0.00273091 -0.00283286 0.0434315
v -0.00354545 -0.00182171 0.0435517
v -0.0038176 0.00109699 0.0434121
v -0.00247582 -0.00306992 0.0437115
v -0.000985834 -0.0038527 0.043719
v -4.55213e-05 -0.00396259 0.0437627
v 0.00101139 -0.00383461 0.0437801
v 0.00188582 -0.00348617 0.0438309
v 0.00310072 -0.00257386 0.0439197
v 0.00367315 -0.0015771 0.0440009
v 0.00397081 -0.000224876 0.0440572
v 0.00369691 0.00150032 0.0428215
v 0.00303102 0.00256763 0.0429964
v 6.0714e-08 0.00396218 0.043125
v 0.00149707 0.00373081 0.0430389
v -0.001063 0.00383488 0.0431998
v 0.00393155 3.74828e-06 0.0441542
v -0.00194509 0.00346589 0.043206
v -0.00283375 0.00276752 0.0432685
v -0.0034248 0.00202341 0.0433124
v -0.000484457 0.00320685 0.0449473
v 0.00113033 0.00302861 0.0448919
v 0.00322156 3.07138e-06 0.0445642
v 0.0023033 0.00227514 0.0449957
v -0.00318709 -0.000576898 0.0441054
v -0.00228853 -0.00224875 0.0442037
v -0.000574265 -0.0032031 0.0442798
v -0.0007631 -0.00371835 0.0446871
v 0.00135416 -0.00288749 0.0444837
v 0.00321802 -1.29645e-06 0.0433142
v 0.0030044 0.00138815 0.0434748
v 0.00129467 0.00324852 0.0434443
v 0.000499569 0.00319748 0.0437463
v -0.00194265 0.00269003 0.0438983
v -0.00297788 0.00123644 0.0438611
v -0.00315526 -0.000576749 0.0428466
v -0.0026476 -0.0017672 0.0429301
v -0.00210039 -0.00297588 0.0421083
v -0.00142066 -0.00289892 0.0430217
v 0.000626159 -0.00316662 0.0431618
v 0.00192603 -0.00254951 0.0432214
v 0.00285586 -0.00144554 0.0433518
v 0.00321796 -1.21154e-06 0.0423108
v 0.00198178 0.00259189 0.0423596
v 0.00123002 0.00297427 0.0425451
v 0.000178306 0.00318786 0.0425069
v -0.00108276 0.00300712 0.0425937
v -0.00278383 0.00169471 0.0427155
v -0.00316571 -0.000630981 0.041582
v -0.00308253 0.00103012 0.041625
v -0.0014354 -0.00348414 0.0413154
v -0.000471689 -0.00352666 0.0415756
v 0.00068474 -0.00315836 0.041959
v 0.00126214 -0.00369141 0.0413888
v 0.00268589 -0.00178996 0.0420893
v 0.00319952 0.000921086 0.0422235
v 0.00283291 0.00158649 0.0410118
v 0.00322405 2.79071e-06 0.0408142
v 0.00322621 -2.1036e-06 0.0410608
v 0.0022806 0.00228296 0.041217
v 0.00139765 0.00287183 0.0411821
v 0.000175999 0.0031907 0.0412101
v -0.00144326 0.00284268 0.0413692
v -0.00266561 0.00180476 0.0414149
v -0.00317941 -0.000585231 0.0403609
v -0.00298235 -0.00123434 0.0402674
v -0.00179028 -0.00268589 0.04051
v -0.0022765 -0.00228063 0.040592
v 0.000724615 -0.00322619 0.0407146
v 0.00269394 -0.00175653 0.0407882
v 0.0030867 -0.00100498 0.0409974
v 0.00321752 -2.08526e-08 0.0395642
v 0.00315781 0.000686789 0.0397707
v 0.00184926 0.00271121 0.0398561
v -5.67578e-06 0.00328243 0.0400072
v -0.00231272 0.00231857 0.0401561
v -0.00327507 -0.000277965 0.0389744
v -0.00320368 -0.000781975 0.039213
v -0.00117551 -0.00308583 0.0393289
v 0.000919504 -0.00304545 0.039442
v 0.00149482 -0.00280771 0.0394643
v 0.00225454 -0.00223954 0.0395293
v 0.00287969 -0.00137981 0.0395881
v 0.00321752 7.4411e-08 0.0385608
v 0.00315857 0.00109135 0.0385162
v 0.00181538 0.00268993 0.0385728
v 0.000171598 0.00338735 0.0387445
v -0.00123092 0.00297281 0.0389514
v -0.00265872 0.00184167 0.0389558
v -0.00304029 0.00100544 0.0377649
v -0.00297395 -0.00145902 0.037961
v -0.000444174 -0.00320568 0.0380949
v -0.00179371 -0.00268369 0.0378845
v 0.00105965 -0.00301887 0.0382301
v 0.00241611 -0.00254165 0.0385009
v 0.00322395 -2.80705e-06 0.0373108
v 0.00282541 0.00157568 0.0372869
v 0.00149517 0.00283371 0.0373693
v -0.0012278 0.00296528 0.0375782
v 0.000387841 0.00316996 0.037485
v -0.00222442 0.00226603 0.0376744
v -0.00339929 -0.000881619 0.037642
v 0.00322629 2.06272e-06 0.0370642
v -0.00316157 -0.000683251 0.0365891
v -0.00227494 -0.00227536 0.0365955
v -0.00283341 0.00164929 0.036498
v -0.00154834 -0.00286039 0.0367667
v -0.000286107 -0.00323294 0.0368944
v 0.00129398 -0.0033291 0.0372103
v 0.00279826 -0.0018057 0.0371589
v 0.00230614 -0.00308583 0.0365491
v 0.00321799 1.26047e-06 0.0358142
v 0.00315927 0.000681798 0.0360215
v 0.0014515 0.00283516 0.0361291
v -8.80809e-05 0.00347388 0.0363782
v -0.00138163 0.00287836 0.0363495
v -0.00289776 0.00146216 0.0363414
v -0.00325076 -6.53759e-05 0.0353105
v -0.00257014 -0.00193369 0.0354705
v -0.000812461 -0.0031302 0.035533
v -0.00252389 -0.00289533 0.0347587
v 0.000204682 -0.00323597 0.0356802
v 0.00123003 -0.0029742 0.0355799
v 0.00262907 -0.00192805 0.0357975
v 0.00313036 0.000836113 0.0347568
v 0.00196918 0.00257176 0.0348521
v 0.00322171 -2.8886e-06 0.0345642
v 0.00123054 0.00297843 0.0350451
v 0.000251311 0.00317719 0.0349579
v -0.000841813 0.00310073 0.0350577
v -0.00224525 0.00224448 0.0351392
v -0.00283431 0.00149492 0.035181
v -0.00314889 -0.000806259 0.0339897
v -0.00316535 0.000628019 0.0339002
v -0.00308603 -0.0013187 0.0342276
v -0.00146264 -0.00289907 0.0341537
v 0.000502872 -0.00322118 0.0343914
v 0.00207606 -0.0030974 0.0341184
v 0.00304558 -0.000952089 0.0346658
v 0.00284071 -0.00144614 0.0345676
v 0.00301713 0.00138591 0.0334925
v 0.00317829 -0.000201674 0.0334764
v 0.00211834 0.0023912 0.0335843
v -0.00122541 0.00296559 0.0338289
v -2.46381e-06 0.00322534 0.0338733
v -0.00238183 0.00213066 0.033946
v -0.00293913 0.0012083 0.0339823
v -0.00316224 -0.000679593 0.0328391
v -0.00227456 -0.00227673 0.0328455
v -0.00308879 0.000999666 0.0328728
v -0.00155203 -0.00285785 0.0330167
v -0.000275236 -0.00323318 0.0331447
v 0.00131729 -0.00331865 0.0334602
v 0.00188027 -0.0031575 0.0329767
v 0.00298139 -0.00123263 0.0334826
v 0.00321938 2.29301e-06 0.0320642
v 0.00317779 0.000207487 0.0322044
v 0.00304002 0.00100441 0.0322338
v 0.00240982 0.00213502 0.0323471
v 0.000582624 0.00318042 0.0324509
v -0.00144655 0.00285454 0.0325852
v -0.00269416 0.00175637 0.0326631
v -0.00319025 -0.000404524 0.0315845
v -0.00259375 -0.00189405 0.0316599
v -0.00289219 0.00136046 0.0315003
v -0.00181653 -0.00265411 0.03179
v 0.00105246 -0.00304296 0.0319564
v 0.00271475 -0.00175543 0.0320604
v 0.0031806 0.000646856 0.0310362
v 0.00112212 0.00327916 0.0309835
v -0.00122993 0.00297621 0.0312049
v -0.00225464 0.00223939 0.0314043
v -0.00298037 0.00123649 0.0313611
v -0.000601094 0.00322847 0.0313096
v -0.00312778 -0.00136208 0.0304395
v -0.00316601 0.000629567 0.0301502
v -0.00206208 -0.00242595 0.0305116
v 0.000688557 -0.00317266 0.0306222
v -0.000621342 -0.00318617 0.0306453
v 0.00301538 -0.00105214 0.0308523
v 0.00238845 0.00212159 0.0298514
v 0.00146081 0.00290134 0.0297808
v -8.61219e-05 0.00328583 0.0300137
v -0.00203137 0.00252259 0.0301179
v -0.00293746 0.00121402 0.0302333
v -0.00316212 -0.000677135 0.0290883
v -0.00283371 0.00162931 0.0290088
v -0.00209328 -0.0024242 0.02925
v -0.000694972 -0.0033833 0.0294816
v 0.00170166 -0.00280075 0.0294922
v 0.00326225 0.000355929 0.0296483
v 0.00317708 -0.000667223 0.0297213
v 0.00322145 2.86096e-06 0.0283142
v 0.00316598 0.000296675 0.028462
v 0.00308751 0.00135442 0.0284742
v 0.00212945 0.00237842 0.0286153
v 0.000632713 0.00316629 0.0286921
v -0.00319595 0.00177108 0.0286177
v -0.0031903 -0.000409002 0.0278358
v -0.00267201 -0.00175287 0.0279593
v -0.00289131 0.00136064 0.0277507
v -0.000576964 -0.00319483 0.0280441
v -0.00294012 -0.00261667 0.028408
v 0.00215582 -0.00301723 0.0286691
v 0.00244748 -0.0021213 0.028319
v 0.00294443 -0.00129948 0.028309
v 0.00321811 -1.39655e-06 0.0270642
v 0.00302336 0.00103501 0.0272696
v 0.00162392 0.00292084 0.027376
v 0.00309335 -0.000803609 0.0271683
v 0.000484425 0.00371913 0.0279856
v -0.00193819 0.00256922 0.0276043
v -0.00297808 0.00123647 0.0276111
v -2.29329e-05 0.00359382 0.0277331
v -0.00315519 -0.000576525 0.0265966
v -0.00264731 -0.00176765 0.02668
v -0.000787222 -0.00327382 0.0267374
v -0.00228386 -0.00310793 0.026142
v -0.000252394 -0.00324176 0.0269844
v 0.00173781 -0.00269475 0.0269925
v 0.0026476 -0.00176719 0.0270699
v 0.00315679 0.000659209 0.0259406
v 0.00321802 -1.32933e-06 0.0260608
v 0.00239111 0.00211891 0.0261025
v 0.0014622 0.00289815 0.026031
v -0.00142806 0.00303747 0.0262667
v -0.00265976 0.00183869 0.0264552
v 0.0024744 -0.0029546 0.045
v 0.000325183 0.00324207 0.0251057
v 0.00174869 -0.00352286 0.045
v 0.00392275 -4.9561e-05 0.0427184
v 0.0038568 -0.000770797 0.0426818
v 0.00390017 -0.000384601 0.0414513
v -0.00210561 0.00243363 0.0252653
v -0.00318629 0.000192759 0.0254239
v -0.000583375 -0.0031654 0.0255929
v -0.00222859 -0.00233419 0.0255967
v 0.00253461 -0.00198976 0.0259282
v 0.00200777 -0.00247173 0.0257735
v -0.000310991 0.00389462 0.0255111
v -0.000788032 -0.00382828 0.0260371
v 0.00385409 -0.000769967 0.0389318
v 0.00389448 -0.000386844 0.0302013
v 0.00392435 -2.39735e-05 0.0389696
v 0.0038991 -0.000385973 0.0377013
v 0.00385211 -0.000768589 0.0351818
v 0.00392258 -4.64968e-05 0.0352184
v 0.00386249 -0.000770042 0.0339318
v 0.00392721 -5.14133e-05 0.0339684
v 0.00372271 -0.00119274 0.0250259
v 0.00226002 0.00256144 0.0249964
v 0.00392504 -2.56612e-05 0.0264696
v 0.0039225 -7.484e-05 0.0302172
v 0.00392284 -4.97e-05 0.0264684
v 0.00385703 -0.000770866 0.0264318
v 0.00378586 -0.00107472 0.0251656
v 0.00390846 -0.000204681 0.0252105
v -0.00290472 -0.00264447 0.0447427
v 0.00367505 0.0015488 0.0441454
v 0.00324614 0.000150589 0.0448173
v 0.00356964 -0.00046162 0.045
v 0.00280475 0.00155187 0.0448383
v 0.00275992 -0.00165725 0.0447231
v 0.00215762 0.00330796 0.0440187
v -0.00375868 -0.001029 0.024972
v -0.00329318 -0.00215022 0.025
v -0.00392866 -0.000184787 0.025
v -0.00247546 -0.00295351 0.025
v -0.00264125 -0.00291035 0.024996
v -0.00344669 0.00175728 0.0249274
v -0.00261429 0.00279363 0.0249064
v -0.000212099 0.00379303 0.0250227
v -0.00207224 0.0033428 0.025
v -2.91794e-17 0.00322275 0.025
v 0.00264692 -0.002909 0.025
v 0.00334261 -0.00207254 0.025
v 0.0014807 0.00368519 0.0250002
v 0.00339057 0.00199312 0.025
v -0.00322923 -0.000147447 0.025197
v -0.0030502 -0.00103308 0.0252544
v -0.00219251 -0.00244617 0.0253544
v -0.00272129 0.00175826 0.0250765
v 0.00301888 -0.00119078 0.0257481
v -0.00211311 -0.00323948 0.025
v -0.00193194 -0.00338246 0.025
v 0.00392263 4.64349e-05 0.0266566
v 0.00385205 0.000768524 0.0266932
v 0.00392498 2.23653e-05 0.0266554
v 0.00386241 0.00077009 0.0279432
v 0.00392818 3.94258e-05 0.027906
v 0.00389438 0.000386832 0.0316737
v 0.00392457 5.08025e-05 0.0316566
v 0.00385692 0.000770816 0.0354432
v 0.00391841 9.7698e-05 0.035409
v 0.00392417 3.45932e-05 0.0354058
v 0.00393384 3.83318e-05 0.036656
v 0.00390019 0.000384538 0.0366737
v 0.00385419 0.000770012 0.0391932
v 0.00391756 9.62293e-05 0.039159
v 0.00392209 4.81019e-05 0.0391566
v 0.00392435 2.40382e-05 0.0391554
v 0.00393016 5.12208e-05 0.0404066
v 0.00393238 2.73133e-05 0.0404054
v 0.00389917 0.000385926 0.0404237
v 0.00385217 0.000768656 0.0429432
v 0.00392254 4.65577e-05 0.0429066
v 0.00386631 0.00051926 0.0441806
v 0.00392747 3.59678e-05 0.0441558
v 0.00393053 1.18031e-05 0.0441546
v 0.00274334 0.00280929 0.0443128
v 0.00380107 0.00103477 0.044207
v 0.00191052 0.00343888 0.0443656
v 0.000475364 0.0039237 0.0444585
v -0.000820615 0.00391374 0.0443737
v -0.00251964 0.00308221 0.0445971
v -0.00168285 0.00284007 0.0450033
v -0.00309788 0.00173233 0.0442352
v -0.00383588 0.000847572 0.0447357
v -0.0039336 -0.000188399 0.0447885
v -0.00355046 -0.00180333 0.0448825
v -0.00217633 -0.00331003 0.0449829
v -0.00367585 -0.00123773 0.0449321
v -0.00338022 0.000860878 0.0450004
v 0.000363524 -0.0039336 0.0449933
v -0.000898074 -0.00382909 0.045
v -0.0125885 5.22625e-05 0.0150814
v -0.0123111 0.00173461 0.0150999
v -0.0113929 0.00456758 0.0151316
v -0.0126146 0.00596627 0.015
v -0.00999604 0.00766849 0.0150728
v -0.0092023 0.00158558 0.0160878
v -0.0111987 -0.000912516 0.0153462
v -0.00915303 0.00440169 0.0157656
v -0.00689965 0.00589328 0.0162166
v -0.00898322 0.00839913 0.0151215
v -0.00607757 -8.22514e-05 0.0187863
v -0.00841616 0.00915094 0.0150999
v -0.0074787 0.00993179 0.0150999
v -0.0042736 0.0116751 0.0150999
v -0.00533193 0.0128724 0.015
v -0.00206846 0.0122481 0.0151005
v -0.00714614 0.00714614 0.0157612
v -0.0056785 0.010946 0.0151157
v -0.000652368 0.0110317 0.0153816
v -0.00793533 0.000693254 0.016983
v -0.00639398 0.00411453 0.0172134
v -0.00656646 0.00199191 0.0179289
v -0.00593372 0.00112867 0.0188114
v -0.00547525 0.00284394 0.0186223
v -0.00534077 0.00770068 0.0160629
v -0.00475596 0.00771006 0.0162264
v -0.0019873 0.00915832 0.0160629
v -0.000711622 0.00904597 0.0162166
v -0.00376175 0.00840618 0.0161345
v -0.00146812 0.00749643 0.0171841
v -0.000237801 0.00918865 0.0159668
v 0.00205432 0.013849 0.0150001
v 0.00205952 0.010706 0.0154326
v 0.00831262 0.0112083 0.015
v 0.00513652 0.0114446 0.0150919
v 0.0082789 0.00909298 0.0151223
v 0.00714614 0.00714614 0.0157612
v 0.00269635 0.0113457 0.0152758
v 0.0112751 0.00821126 0.015
v 0.00870444 0.00678904 0.0153838
v 0.0116518 0.00474275 0.0150828
v 0.01107 0.00458535 0.0151921
v 0.0138988 0.00136892 0.015
v 0.0123543 -0.0011365 0.0151074
v 0.00916121 0.00428843 0.0157625
v 0.0116751 0.0042736 0.0150999
v 0.00953114 -6.06644e-05 0.0160072
v 0.0108027 0.00222201 0.0153837
v 0.00163433 0.00821633 0.0166853
v 0.00428443 0.00692982 0.0166848
v 0.00589328 0.00689965 0.0162166
v 0.00363665 0.00831328 0.0162166
v 0.00192337 0.00513672 0.0194581
v 0.00377166 0.0047068 0.0188283
v 0.00236836 0.00705871 0.0173401
v 0.00723023 0.00275006 0.0171086
v 0.00739381 0.00160313 0.0172289
v 0.0061206 0.00473047 0.0171086
v 0.0083773 -1.02592e-18 0.0166853
v 0.0063396 0.00262595 0.0179289
v 0.00897711 -0.00121481 0.0162264
v 0.0100575 -0.000990578 0.0157612
v -0.00635822 0.0023632 0.017834
v -0.0041623 0.00378186 0.0194462
v -0.00412339 0.00145053 0.0219674
v -0.00437641 0.00066052 0.0218146
v -0.00417229 0.00271258 0.0204919
v -0.00383441 0.00194824 0.0222104
v -0.00414074 -0.000245492 0.0230554
v -0.0038393 0.000853364 0.025
v -0.00242825 0.00567186 0.0186223
v -0.0029725 0.00540654 0.0186223
v -0.00127507 0.0060366 0.0186223
v -0.00186063 0.00588255 0.0186223
v -0.00285754 0.00324985 0.0220764
v -0.00429189 0.00461961 0.018478
v -0.00239712 0.00365081 0.0219916
v -0.00318045 0.00452192 0.019398
v -0.00113827 0.00455934 0.0211745
v 0.00020778 0.00606739 0.0187587
v -0.0003003 0.00499244 0.0204175
v -0.00342993 0.00229181 0.0230491
v -0.00291692 0.00291692 0.0230491
v -0.00157863 0.00381114 0.0230491
v -0.00100911 0.00400705 0.0230429
v -0.000404335 0.00410528 0.0230491
v -2.52592e-19 0.00412515 0.0230491
v 0.00259231 0.00440855 0.0202425
v 0.000638333 0.00496264 0.0204197
v 0.00201251 0.00424653 0.0211745
v 0.00461961 0.00429189 0.018478
v 0.00573785 0.00333253 0.0179742
v 0.00625227 0.000615798 0.0184933
v 0.00539336 0.0016255 0.0194493
v 0.0034844 0.00315312 0.0211745
v 0.00444514 0.00158374 0.0211817
v 0.00605905 1.07474e-10 0.0187656
v 0.00157863 0.00381114 0.0230491
v 0.000778805 0.00406407 0.0230498
v 0.00210592 0.00355237 0.0230504
v 0.00274525 0.00262542 0.0248836
v 0.00372397 0.0021755 0.0221699
v 0.00381573 0.000598601 0.0249206
v 0.0040828 0.000607258 0.023061
v 0.00470767 -5.37254e-06 0.0211769
v -0.0046716 -0.000460113 0.0211732
v 0.0121356 -0.00199282 0.0151215
v 0.0127507 -0.0058145 0.0150001
v 0.0110458 -0.00473547 0.0151924
v 0.00988963 -0.00988963 0.0150001
v 0.00877071 -0.00698674 0.015339
v 0.00755019 -0.00351799 0.0165743
v 0.00871895 -0.00343571 0.0160629
v 0.00659073 -0.00950716 0.0152142
v 0.0074787 -0.00993179 0.0150999
v 0.00204585 -0.013792 0.015
v 0.00290713 -0.0110151 0.0153149
v 0.00728021 -0.00564031 0.0161345
v 0.00846948 -0.00752213 0.0153381
v 0.0044182 -0.0116093 0.0151005
v 0.000847366 -0.0125033 0.0150806
v 0.00606727 -0.00431541 0.0173401
v 0.0061468 -0.000532166 0.0186223
v 0.00532098 -0.00146288 0.0193694
v 0.00606504 -0.0011321 0.0186223
v 0.00635822 -0.0023632 0.017834
v 0.00620192 -0.00542346 0.0166461
v 0.00548878 -0.00720677 0.0162264
v 0.00397734 -0.0081391 0.0162264
v 0.00291969 -0.00873442 0.0161345
v 0.00434301 -0.00356421 0.0194443
v -0.000519553 -0.0124218 0.0150999
v -0.00456758 -0.0113929 0.0151316
v -0.00173461 -0.0123111 0.0150999
v -0.00596627 -0.0126146 0.015
v -0.00759216 -0.00998535 0.0150832
v 1.85647e-18 -0.0101062 0.0157612
v -0.00859665 -0.00840345 0.0151913
v -0.0103395 -0.0093712 0.015
v -0.010617 -0.0064692 0.0150999
v -0.0099253 -0.00765101 0.0150806
v -0.0124292 -0.00169227 0.0150832
v -0.00682273 -0.00746784 0.0157625
v -0.0116093 -0.0044182 0.0151005
v -0.00166871 -0.0092217 0.0160629
v -0.00208886 -0.00881481 0.0162264
v -0.00411163 -0.0082407 0.0161345
v -0.00518861 -0.00744407 0.0162166
v -0.0032841 -0.00860403 0.0161345
v 0.000950998 -0.00892383 0.01629
v -0.00113564 -0.00609078 0.0186091
v -0.00663407 -0.00616874 0.0162264
v -0.00859464 -0.00373582 0.0160629
v -0.00751077 -0.00532944 0.0161345
v -0.00848975 -0.00316042 0.0162264
v -0.0092633 -0.00076775 0.0160976
v -0.00897854 -0.00204951 0.0161345
v -0.00296558 -0.00622158 0.0179399
v 0.00449419 -0.00235466 0.0202608
v 0.00426127 -0.000968416 0.0219626
v 0.00396274 -0.00174943 0.022052
v 0.00394752 -0.00119747 0.0230491
v 0.0033993 -0.0036687 0.0204175
v 0.0037784 -0.0025957 0.0211481
v 0.00385869 -0.00409316 0.0193578
v 0.00242825 -0.00567186 0.0186223
v 0.0029725 -0.00540654 0.0186223
v 0.00127507 -0.0060366 0.0186223
v -0.00020778 -0.00606739 0.0187587
v 0.000677238 -0.00613251 0.0186223
v 0.00186063 -0.00588255 0.0186223
v 0.00114042 -0.00457897 0.0211817
v 0.00189372 -0.00390102 0.022047
v -0.00016148 -0.0043593 0.0219869
v 0.00412702 -0.00021763 0.0230348
v 0.00247755 -0.00330452 0.0230477
v 0.00312223 -0.0029555 0.0222092
v 0.00194458 -0.00363806 0.0230491
v 0.00119747 -0.00394752 0.0230491
v 0.000404335 -0.00410528 0.0230491
v 0.000804776 -0.00404588 0.0230491
v -0.000542702 -0.00429182 0.0220688
v -0.00215003 -0.00519064 0.0194443
v -0.00335566 -0.00451295 0.0194462
v -0.000993085 -0.0042488 0.0219824
v -0.00229055 -0.00441808 0.0204919
v -0.00472274 -0.00397015 0.0186223
v -0.00540654 -0.0029725 0.0186223
v -0.00508914 -0.00348812 0.0186223
v -0.00588255 -0.00186063 0.0186223
v -0.0060366 -0.00127507 0.0186223
v -0.00567186 -0.00242825 0.0186223
v -0.0041767 -0.00472402 0.018478
v -0.00361084 -0.0024406 0.0220085
v -0.00300473 -0.00324847 0.0218197
v -0.00444514 -0.00158374 0.0211817
v -0.00171732 -0.00391618 0.0223498
v -0.00229181 -0.00342993 0.0230491
v -0.00275854 -0.00307328 0.0230502
v -0.00381114 -0.00157863 0.0230491
v -0.00394752 -0.00119747 0.0230491
v -0.00387624 0.000359971 0.0445773
v -0.003933 9.63307e-19 0.044779
v -0.04405 4.44089e-18 0.015
v -0.022025 -0.0381484 0.015
v 0.022025 -0.0381484 0.015
v -0.022025 0.0381484 0.015
v 0.04405 0 0.015
v 0.022025 0.0381484 0.015
v 0.022025 0.0381484 0
v -0.04405 4.28043e-18 0
v -0.022025 0.0381484 0
v -0.022025 -0.0381484 0
v 0.022025 -0.0381484 0
v 0.04405 0 0
f 7 5 560
f 6 7 560
f 15 16 14
f 17 16 559
f 559 16 15
f 18 7 6
f 21 20 22
f 24 10 23
f 544 23 530
f 27 30 28
f 30 27 31
f 17 37 591
f 40 39 41
f 49 48 46
f 46 507 49
f 46 47 50
f 56 55 54
f 43 36 57
f 593 43 57
f 499 593 57
f 63 50 502
f 63 46 50
f 479 64 66
f 75 73 74
f 77 78 76
f 77 79 78
f 93 90 94
f 106 104 103
f 74 101 75
f 113 112 110
f 110 111 114
f 120 119 118
f 109 100 123
f 122 109 123
f 114 133 132
f 132 110 114
f 136 135 137
f 142 552 143
f 121 120 144
f 156 425 157
f 171 162 550
f 167 166 168
f 155 174 153
f 169 172 170
f 143 163 142
f 183 184 415
f 183 185 184
f 171 187 597
f 187 186 188
f 195 197 406
f 195 198 197
f 195 196 217
f 205 206 230
f 205 204 206
f 185 207 192
f 192 207 208
f 207 210 209
f 222 221 223
f 229 228 546
f 546 228 227
f 238 236 239
f 220 239 218
f 244 243 245
f 248 250 249
f 229 252 602
f 259 262 261
f 259 263 262
f 259 260 281
f 268 269 293
f 268 267 269
f 251 270 257
f 257 270 271
f 270 273 272
f 279 278 280
f 290 289 291
f 292 291 536
f 299 291 292
f 301 300 302
f 284 302 282
f 305 308 306
f 308 305 309
f 299 316 609
f 292 316 299
f 328 566 326
f 331 332 330
f 567 327 564
f 336 337 335
f 339 329 621
f 342 343 341
f 349 348 350
f 334 335 346
f 351 300 352
f 355 356 342
f 358 359 357
f 360 347 359
f 362 361 363
f 361 365 364
f 368 353 354
f 372 369 371
f 371 369 370
f 374 362 375
f 374 373 247
f 363 375 362
f 380 369 281
f 382 222 383
f 256 391 392
f 376 377 387
f 381 382 393
f 392 391 393
f 406 395 394
f 397 396 395
f 389 388 227
f 400 407 401
f 409 411 408
f 407 400 414
f 414 415 407
f 421 408 410
f 423 177 422
f 424 423 425
f 427 428 426
f 416 417 428
f 432 430 433
f 437 439 438
f 440 425 439
f 440 441 425
f 443 431 429
f 146 448 449
f 438 439 451
f 453 455 452
f 458 446 459
f 466 452 454
f 461 472 460
f 104 474 478
f 477 467 469
f 475 476 478
f 65 479 480
f 485 486 487
f 480 479 489
f 502 490 491
f 506 507 30
f 512 514 511
f 513 518 515
f 498 510 497
f 517 503 505
f 522 521 520
f 521 524 523
f 27 521 523
f 528 529 41
f 10 519 531
f 20 555 533
f 532 534 333
f 535 536 347
f 514 35 525
f 513 57 512
f 59 513 515
f 363 537 375
f 505 63 516
f 505 503 63
f 503 504 46
f 33 523 524
f 292 535 347
f 23 538 24
f 542 14 543
f 8 539 9
f 545 543 13
f 522 541 540
f 44 530 531
f 27 520 521
f 559 15 527
f 23 544 538
f 15 14 542
f 514 512 57
f 490 64 491
f 491 64 87
f 63 503 46
f 269 537 363
f 493 66 492
f 229 548 388
f 72 494 496
f 548 546 388
f 400 549 414
f 489 92 488
f 479 481 90
f 106 485 487
f 482 71 97
f 104 124 473
f 484 473 99
f 206 549 400
f 551 550 429
f 467 468 110
f 476 469 132
f 472 118 471
f 461 462 120
f 171 551 429
f 465 148 464
f 454 151 466
f 454 452 134
f 458 442 457
f 455 456 135
f 553 552 446
f 141 458 459
f 143 553 446
f 447 164 445
f 554 560 5
f 554 18 560
f 554 5 4
f 555 19 18
f 39 38 528
f 528 37 526
f 37 527 526
f 527 37 17
f 20 19 555
f 22 533 544
f 20 533 22
f 10 539 8
f 24 539 10
f 522 540 11
f 12 540 545
f 11 540 12
f 9 541 522
f 17 556 527
f 528 41 39
f 37 528 38
f 13 543 14
f 506 508 53
f 504 30 507
f 500 501 79
f 82 501 85
f 509 510 54
f 52 507 506
f 488 107 487
f 547 73 496
f 518 516 62
f 525 35 524
f 478 125 104
f 132 469 467
f 478 476 131
f 449 166 146
f 110 132 467
f 120 462 463
f 140 456 457
f 454 134 152
f 150 465 466
f 145 463 464
f 110 468 470
f 484 98 71
f 459 446 142
f 495 485 101
f 519 520 28
f 492 66 490
f 56 510 498
f 500 77 499
f 44 42 530
f 77 498 499
f 519 29 531
f 90 481 483
f 461 120 472
f 135 452 455
f 470 116 115
f 496 495 101
f 483 482 96
f 92 489 479
f 163 446 445
f 163 143 446
f 493 494 68
f 146 166 447
f 496 101 74
f 530 42 41
f 168 449 448
f 451 172 450
f 557 547 496
f 443 429 550
f 433 434 189
f 74 557 496
f 436 422 194
f 558 559 527
f 207 417 210
f 556 558 527
f 195 410 408
f 561 560 18
f 411 412 198
f 6 561 18
f 413 414 203
f 233 402 404
f 395 396 221
f 398 399 226
f 227 388 546
f 239 394 395
f 386 387 248
f 379 380 276
f 380 281 278
f 270 377 378
f 374 375 268
f 302 354 353
f 357 359 289
f 359 347 536
f 305 341 343
f 346 335 314
f 329 330 562
f 618 337 338
f 309 343 344
f 433 189 432
f 419 210 418
f 435 436 193
f 442 444 161
f 411 195 408
f 217 410 195
f 420 410 215
f 441 442 160
f 549 204 414
f 391 254 390
f 393 255 392
f 274 378 379
f 232 401 402
f 227 228 399
f 248 387 377
f 384 247 383
f 249 385 386
f 413 202 412
f 429 430 187
f 193 434 435
f 417 183 428
f 426 179 424
f 188 430 432
f 174 451 439
f 424 179 423
f 428 182 426
f 230 400 401
f 400 230 206
f 236 403 405
f 382 383 244
f 396 398 224
f 403 234 404
f 390 253 389
f 382 242 393
f 388 389 252
f 385 247 384
f 405 394 236
f 252 229 388
f 420 213 419
f 172 448 450
f 300 368 354
f 319 349 350
f 294 364 365
f 356 357 286
f 320 350 351
f 316 360 348
f 352 322 351
f 263 372 371
f 568 563 335
f 333 567 532
f 332 333 534
f 331 333 332
f 369 259 281
f 371 373 356
f 375 537 267
f 367 368 300
f 365 366 297
f 293 361 364
f 319 348 349
f 340 341 306
f 266 373 374
f 282 353 342
f 347 360 316
f 307 352 340
f 293 269 363
f 363 361 293
f 259 369 372
f 335 337 568
f 831 621 329
f 345 312 344
f 345 346 313
f 565 567 564
f 316 292 347
f 366 298 296
f 187 171 429
f 444 443 162
f 531 45 44
f 519 25 29
f 519 28 26
f 519 26 25
f 531 29 45
f 523 31 27
f 523 33 32
f 523 32 31
f 520 27 28
f 524 34 33
f 524 35 34
f 514 36 35
f 514 57 36
f 513 58 57
f 513 59 58
f 518 62 61
f 516 63 62
f 518 61 60
f 504 507 46
f 507 52 51
f 506 53 52
f 509 54 508
f 510 56 54
f 498 77 56
f 500 79 77
f 501 81 80
f 85 83 82
f 501 82 81
f 501 80 79
f 491 86 85
f 491 87 86
f 85 84 83
f 490 66 64
f 493 67 66
f 494 70 69
f 494 71 70
f 494 72 71
f 496 73 75
f 496 75 72
f 494 69 68
f 485 103 102
f 485 106 103
f 485 102 101
f 487 105 106
f 487 108 105
f 488 92 107
f 487 107 108
f 479 88 92
f 479 91 89
f 479 90 91
f 479 89 88
f 483 95 94
f 483 94 90
f 71 98 97
f 482 97 96
f 483 96 95
f 484 99 98
f 473 123 100
f 473 100 99
f 104 125 124
f 478 127 125
f 478 129 128
f 478 128 127
f 473 124 123
f 478 131 130
f 476 132 131
f 470 113 110
f 470 115 113
f 478 130 129
f 471 458 117
f 471 118 458
f 472 120 118
f 463 145 144
f 463 144 120
f 464 147 146
f 465 149 148
f 466 151 150
f 465 150 149
f 464 148 147
f 454 152 151
f 452 135 134
f 464 146 145
f 471 117 116
f 456 137 135
f 456 138 137
f 456 140 139
f 456 139 138
f 458 141 442
f 459 142 141
f 446 552 142
f 447 165 164
f 447 166 165
f 448 170 168
f 449 168 166
f 448 172 169
f 451 173 172
f 439 153 174
f 451 174 173
f 448 169 170
f 445 164 163
f 439 154 153
f 441 157 425
f 439 425 154
f 441 159 158
f 442 161 160
f 444 162 161
f 441 160 159
f 441 158 157
f 430 186 187
f 430 188 186
f 434 191 190
f 434 190 189
f 434 193 191
f 436 194 193
f 432 189 188
f 443 550 162
f 422 178 194
f 422 175 178
f 423 176 177
f 423 179 176
f 422 177 175
f 426 180 179
f 426 182 181
f 428 415 182
f 426 181 180
f 417 185 183
f 417 207 185
f 419 211 210
f 419 212 211
f 428 183 415
f 420 214 213
f 420 215 214
f 410 217 216
f 410 216 215
f 412 200 199
f 412 199 198
f 411 198 195
f 412 202 201
f 414 205 203
f 402 233 232
f 401 232 231
f 401 231 230
f 414 204 205
f 412 201 200
f 404 235 233
f 404 234 235
f 403 236 237
f 403 237 234
f 394 239 236
f 395 219 218
f 395 218 239
f 396 224 223
f 398 225 224
f 396 223 221
f 398 226 225
f 395 221 219
f 390 254 253
f 256 254 391
f 389 253 252
f 392 255 256
f 393 258 255
f 393 242 258
f 382 241 240
f 383 243 244
f 382 244 241
f 383 246 245
f 383 247 246
f 386 248 249
f 385 249 247
f 383 245 243
f 382 240 242
f 377 251 248
f 378 273 270
f 377 270 251
f 379 275 274
f 380 279 277
f 380 277 276
f 379 276 275
f 378 274 273
f 371 355 263
f 373 264 356
f 373 358 265
f 373 265 264
f 371 356 355
f 372 263 259
f 380 278 279
f 374 268 266
f 375 267 268
f 364 294 293
f 366 296 297
f 365 297 295
f 365 295 294
f 367 300 298
f 354 302 300
f 342 283 282
f 356 286 285
f 356 285 342
f 353 282 302
f 373 266 358
f 357 288 287
f 359 291 289
f 357 289 288
f 348 319 317
f 348 317 316
f 359 536 291
f 350 318 319
f 351 322 320
f 352 323 322
f 350 320 318
f 352 307 324
f 340 304 303
f 341 305 306
f 340 306 304
f 340 303 307
f 352 324 323
f 344 310 309
f 344 311 310
f 343 309 305
f 345 313 312
f 346 314 313
f 335 315 314
f 344 312 311
f 337 618 568
f 329 624 831
f 330 332 562
f 329 562 624
f 335 563 315
f 357 287 286
f 571 569 699
f 1 572 573
f 570 573 569
f 574 699 569
f 576 577 575
f 579 580 554
f 579 554 4
f 555 581 578
f 578 581 576
f 555 730 581
f 555 732 582
f 732 555 18
f 555 582 730
f 583 584 539
f 584 585 9
f 9 539 584
f 585 541 9
f 540 541 585
f 5 543 545
f 5 545 540
f 578 533 555
f 533 578 576
f 586 538 576
f 533 576 544
f 587 15 542
f 15 587 526
f 15 526 527
f 587 542 543
f 544 576 538
f 586 24 538
f 24 583 539
f 540 2 3
f 5 3 4
f 588 585 572
f 589 585 588
f 587 5 7
f 526 7 18
f 528 19 20
f 590 591 511
f 19 526 18
f 529 21 22
f 17 592 511
f 497 593 498
f 544 41 22
f 519 8 9
f 8 519 10
f 10 531 23
f 21 529 20
f 592 590 511
f 43 594 497
f 521 11 12
f 521 12 545
f 13 521 545
f 460 595 461
f 595 460 596
f 524 14 16
f 596 460 109
f 14 524 13
f 512 37 38
f 513 38 39
f 513 39 40
f 41 513 40
f 598 597 416
f 518 42 44
f 599 598 416
f 505 45 29
f 503 29 25
f 45 516 44
f 42 513 41
f 37 512 591
f 522 520 9
f 171 599 416
f 503 26 28
f 407 601 401
f 31 506 30
f 30 504 28
f 506 32 33
f 508 33 34
f 600 407 192
f 36 509 35
f 35 508 34
f 32 506 31
f 601 407 600
f 603 602 376
f 500 58 59
f 58 500 57
f 499 498 593
f 604 603 376
f 501 59 515
f 501 515 518
f 85 60 61
f 85 62 63
f 62 85 61
f 229 605 376
f 60 501 518
f 605 604 376
f 362 608 361
f 490 46 48
f 492 49 507
f 49 490 48
f 493 51 52
f 606 362 607
f 607 362 257
f 508 494 53
f 53 493 52
f 51 492 507
f 608 362 606
f 494 54 55
f 496 55 56
f 495 56 77
f 495 76 78
f 485 79 80
f 79 485 78
f 486 80 81
f 487 82 83
f 82 487 81
f 299 610 334
f 76 495 77
f 610 609 334
f 502 491 63
f 26 503 25
f 327 611 564
f 488 84 85
f 488 85 86
f 87 488 86
f 65 64 479
f 482 493 68
f 493 483 67
f 67 479 66
f 612 327 613
f 482 69 70
f 75 484 72
f 473 75 101
f 104 102 103
f 102 104 101
f 69 482 68
f 474 106 105
f 107 475 108
f 108 474 105
f 467 88 89
f 91 467 89
f 88 467 92
f 92 476 107
f 468 90 93
f 470 93 94
f 116 94 95
f 471 96 97
f 96 116 95
f 99 472 98
f 461 122 123
f 100 472 99
f 98 471 97
f 90 468 91
f 463 124 125
f 463 125 126
f 464 125 127
f 464 128 129
f 128 464 127
f 125 464 126
f 465 130 131
f 466 132 133
f 114 466 133
f 132 466 131
f 130 465 129
f 452 112 113
f 116 455 115
f 115 453 113
f 457 117 458
f 458 118 119
f 120 458 119
f 117 456 116
f 112 452 110
f 446 121 144
f 447 145 146
f 145 447 144
f 448 148 149
f 448 150 151
f 150 448 149
f 148 146 147
f 439 135 136
f 135 437 134
f 441 138 139
f 138 440 137
f 441 140 457
f 442 441 457
f 140 441 139
f 137 439 136
f 152 450 151
f 121 446 120
f 124 462 123
f 84 487 83
f 444 141 142
f 429 163 164
f 163 431 142
f 429 165 166
f 430 167 168
f 433 168 170
f 167 430 166
f 165 429 164
f 434 170 172
f 436 173 174
f 422 155 153
f 155 436 174
f 173 435 172
f 422 153 154
f 157 424 156
f 425 423 154
f 424 158 159
f 426 159 160
f 162 428 161
f 161 427 160
f 210 188 189
f 188 210 187
f 187 417 597
f 418 189 190
f 420 191 193
f 410 193 194
f 191 419 190
f 408 178 175
f 409 176 179
f 176 408 177
f 177 408 175
f 178 410 194
f 158 424 157
f 411 179 180
f 412 181 182
f 413 182 415
f 181 411 180
f 401 208 207
f 185 415 184
f 401 209 210
f 401 210 211
f 402 211 212
f 404 419 213
f 419 404 212
f 403 214 215
f 403 215 216
f 217 405 216
f 214 403 213
f 209 401 207
f 395 197 198
f 396 200 201
f 200 396 199
f 199 395 198
f 396 202 413
f 398 413 203
f 205 227 203
f 202 396 201
f 389 231 232
f 390 232 233
f 231 389 230
f 391 234 237
f 234 391 235
f 391 237 236
f 393 238 239
f 238 393 236
f 235 390 233
f 230 389 205
f 393 239 220
f 381 220 218
f 381 218 219
f 382 219 221
f 383 222 223
f 383 224 225
f 385 225 226
f 224 383 223
f 386 399 228
f 377 602 252
f 378 252 253
f 378 253 254
f 379 254 256
f 399 386 226
f 379 256 255
f 380 255 258
f 369 242 240
f 242 380 258
f 370 241 244
f 245 371 244
f 241 369 240
f 373 246 247
f 374 250 248
f 250 374 249
f 361 271 270
f 361 272 273
f 274 361 273
f 272 361 270
f 251 374 248
f 246 373 245
f 366 275 276
f 298 277 279
f 368 279 280
f 277 298 276
f 368 278 281
f 353 261 262
f 342 263 355
f 263 342 262
f 261 353 259
f 278 368 280
f 357 265 358
f 265 356 264
f 360 293 294
f 293 360 268
f 268 359 266
f 360 294 295
f 350 296 298
f 296 350 297
f 297 348 295
f 352 300 301
f 340 284 282
f 284 352 302
f 302 352 301
f 300 351 298
f 286 343 285
f 342 341 283
f 344 287 288
f 345 288 289
f 345 290 291
f 290 345 289
f 287 344 286
f 283 340 282
f 275 365 274
f 573 585 569
f 572 585 573
f 540 1 2
f 585 589 1
f 575 574 586
f 574 569 24
f 9 520 519
f 531 530 23
f 529 22 41
f 522 11 521
f 17 511 16
f 514 16 511
f 517 505 29
f 503 517 29
f 46 490 47
f 85 501 60
f 43 497 36
f 497 510 36
f 593 497 594
f 508 54 494
f 28 504 503
f 586 574 24
f 569 583 24
f 584 583 569
f 576 575 586
f 584 569 585
f 585 1 540
f 7 526 587
f 506 33 508
f 57 500 499
f 508 35 509
f 518 44 516
f 512 511 591
f 525 524 16
f 492 490 49
f 510 509 36
f 47 490 50
f 59 501 500
f 19 528 526
f 490 502 50
f 494 493 53
f 494 55 496
f 108 478 474
f 81 487 486
f 467 477 92
f 100 460 472
f 100 109 460
f 468 93 470
f 462 461 123
f 468 467 91
f 489 488 87
f 116 96 471
f 464 129 465
f 114 452 466
f 463 462 124
f 495 78 485
f 446 458 120
f 172 435 434
f 428 162 416
f 162 171 416
f 156 424 425
f 111 110 452
f 431 443 142
f 436 155 422
f 434 433 170
f 429 166 430
f 445 144 447
f 422 154 423
f 471 98 472
f 493 482 483
f 482 70 71
f 475 107 476
f 106 474 104
f 473 484 75
f 104 473 101
f 483 481 67
f 480 489 87
f 486 485 80
f 92 469 476
f 114 111 452
f 126 464 463
f 72 484 71
f 113 453 452
f 152 451 450
f 146 148 448
f 436 435 173
f 416 597 417
f 428 427 161
f 455 116 456
f 457 456 117
f 438 451 152
f 138 441 440
f 426 424 159
f 430 168 433
f 437 135 439
f 163 429 431
f 455 453 115
f 442 141 444
f 94 116 470
f 189 418 210
f 5 540 3
f 528 20 529
f 543 5 587
f 41 544 530
f 525 16 514
f 512 38 513
f 513 42 518
f 516 45 505
f 521 13 524
f 85 63 491
f 492 51 493
f 487 84 488
f 64 65 480
f 479 67 481
f 87 64 480
f 496 56 495
f 478 108 475
f 469 92 477
f 465 131 466
f 446 144 445
f 461 595 122
f 448 151 450
f 152 134 438
f 134 437 438
f 444 142 443
f 439 137 440
f 426 160 427
f 417 187 210
f 418 190 419
f 405 217 394
f 407 185 192
f 406 196 195
f 362 251 257
f 376 387 228
f 276 298 366
f 403 404 213
f 199 396 397
f 398 396 413
f 376 228 229
f 374 251 362
f 376 602 377
f 185 407 415
f 609 316 335
f 335 316 317
f 298 351 350
f 285 343 342
f 336 319 337
f 334 609 335
f 291 299 334
f 334 346 291
f 317 319 336
f 353 260 259
f 413 415 414
f 378 254 379
f 226 386 385
f 203 399 398
f 394 217 406
f 404 402 212
f 413 412 182
f 409 408 176
f 179 411 409
f 219 382 381
f 393 391 236
f 390 389 232
f 193 410 420
f 178 408 421
f 387 386 228
f 380 242 369
f 283 341 340
f 348 297 350
f 344 343 286
f 371 370 244
f 281 353 368
f 298 279 367
f 365 361 274
f 281 260 353
f 353 262 342
f 266 359 358
f 390 235 391
f 191 420 419
f 345 291 346
f 337 318 320
f 323 324 338
f 621 307 339
f 621 324 307
f 338 320 322
f 329 307 303
f 329 303 304
f 306 308 330
f 329 304 306
f 309 310 331
f 311 312 333
f 313 314 567
f 333 312 313
f 311 331 310
f 567 314 315
f 563 614 566
f 564 615 563
f 331 308 309
f 614 616 566
f 327 321 613
f 618 325 617
f 619 620 325
f 618 619 325
f 320 338 337
f 327 612 611
f 327 315 321
f 331 311 333
f 567 315 327
f 326 616 617
f 308 331 330
f 329 339 307
f 322 323 338
f 620 619 621
f 627 621 622
f 623 627 622
f 627 623 626
f 620 621 627
f 337 319 318
f 411 181 412
f 208 401 601
f 401 211 402
f 205 389 227
f 197 395 406
f 383 225 384
f 222 382 221
f 379 255 380
f 245 373 371
f 399 203 227
f 403 216 405
f 369 241 370
f 406 217 196
f 178 421 410
f 397 395 199
f 385 384 225
f 378 377 252
f 271 361 608
f 275 366 365
f 249 374 247
f 368 367 279
f 329 306 330
f 359 268 360
f 348 360 295
f 265 357 356
f 340 352 284
f 317 336 335
f 338 324 621
f 345 344 288
f 564 563 566
f 566 616 326
f 326 617 325
f 564 611 615
f 333 313 567
f 220 381 393
f 328 564 566
f 567 564 328
f 328 628 567
f 567 565 564
f 532 628 534
f 628 532 567
f 328 326 325
f 328 620 628
f 626 620 627
f 624 629 628
f 624 628 620
f 625 629 624
f 626 624 620
f 328 325 620
f 630 635 631
f 631 637 632
f 630 636 635
f 634 632 637
f 634 633 632
f 634 638 639
f 642 641 654
f 641 639 654
f 644 647 643
f 645 643 656
f 643 647 656
f 647 642 655
f 648 661 645
f 631 635 637
f 635 636 649
f 634 637 638
f 640 652 649
f 651 635 649
f 651 649 652
f 651 692 635
f 637 692 650
f 637 650 638
f 650 692 653
f 692 637 635
f 639 646 654
f 642 654 655
f 647 658 656
f 645 656 657
f 658 647 655
f 654 646 638
f 655 654 707
f 654 638 705
f 656 658 703
f 657 656 659
f 659 656 702
f 658 655 700
f 648 645 657
f 646 639 638
f 664 661 667
f 661 660 662
f 667 661 662
f 665 663 664
f 665 664 680
f 669 668 665
f 671 670 674
f 669 670 668
f 670 669 674
f 670 671 675
f 672 675 677
f 677 673 672
f 677 675 671
f 677 676 673
f 678 662 660
f 667 662 681
f 664 667 679
f 665 680 666
f 680 664 679
f 660 648 657
f 662 678 684
f 682 678 660
f 683 680 679
f 679 667 681
f 681 662 684
f 674 669 721
f 685 677 674
f 677 671 674
f 720 687 680
f 687 666 680
f 669 687 721
f 676 686 722
f 677 686 676
f 686 677 685
f 721 689 685
f 685 674 721
f 688 690 676
f 669 666 687
f 669 665 666
f 676 691 673
f 660 661 648
f 688 676 722
f 652 692 651
f 638 650 705
f 650 653 696
f 693 705 650
f 652 697 692
f 694 652 695
f 652 694 697
f 697 696 692
f 693 650 696
f 653 692 696
f 654 705 707
f 655 701 700
f 701 655 707
f 656 703 702
f 657 659 709
f 710 659 702
f 703 658 700
f 707 705 706
f 705 693 706
f 700 701 707
f 702 703 708
f 659 710 709
f 703 700 708
f 699 695 698
f 699 697 694
f 699 694 695
f 693 696 704
f 704 696 712
f 574 697 699
f 574 711 697
f 696 711 575
f 704 712 575
f 712 696 575
f 574 575 711
f 711 696 697
f 571 699 698
f 700 707 708
f 702 708 710
f 708 707 714
f 710 708 715
f 576 713 577
f 706 577 713
f 713 707 706
f 704 577 706
f 715 714 576
f 715 708 714
f 713 576 714
f 714 707 713
f 576 716 715
f 575 577 704
f 706 693 704
f 695 652 640
f 660 718 682
f 660 709 718
f 684 678 682
f 681 684 679
f 679 684 717
f 709 710 718
f 728 718 710
f 684 682 717
f 679 717 683
f 717 682 719
f 721 687 720
f 723 685 689
f 723 686 685
f 723 689 721
f 720 683 724
f 686 723 722
f 723 721 725
f 721 720 731
f 720 680 683
f 722 723 734
f 576 581 728
f 728 710 716
f 719 682 727
f 718 728 682
f 683 717 724
f 717 719 729
f 730 724 717
f 728 581 727
f 727 682 728
f 729 581 730
f 730 717 729
f 727 581 729
f 729 719 727
f 716 576 728
f 720 724 731
f 725 721 731
f 723 725 734
f 734 725 733
f 582 731 730
f 724 730 731
f 732 731 582
f 18 733 732
f 733 725 732
f 732 725 731
f 726 722 734
f 710 715 716
f 660 657 709
f 722 726 688
f 735 698 695
f 673 691 736
f 739 737 740
f 736 742 738
f 737 736 738
f 690 736 691
f 736 690 742
f 740 737 738
f 676 690 691
f 746 745 749
f 739 740 748
f 739 748 744
f 748 740 756
f 746 749 779
f 749 743 758
f 744 748 757
f 746 750 745
f 753 742 690
f 741 751 740
f 738 741 740
f 741 742 755
f 741 738 742
f 726 752 688
f 753 690 754
f 752 754 690
f 742 753 755
f 793 751 741
f 788 741 755
f 752 690 688
f 740 747 756
f 757 748 756
f 749 759 779
f 759 749 758
f 743 744 757
f 758 743 757
f 747 751 756
f 759 758 800
f 758 757 796
f 759 797 779
f 740 751 747
f 761 774 763
f 774 761 750
f 766 750 746
f 762 763 775
f 764 762 765
f 762 777 765
f 767 765 772
f 768 767 770
f 769 770 782
f 771 773 786
f 773 769 782
f 770 767 783
f 771 636 630
f 765 767 768
f 636 771 785
f 750 766 774
f 763 774 775
f 762 778 776
f 765 777 772
f 777 762 776
f 778 762 775
f 774 779 780
f 774 766 779
f 776 778 787
f 778 775 787
f 775 774 780
f 766 746 779
f 767 772 781
f 770 783 782
f 783 767 781
f 773 782 784
f 771 786 785
f 786 773 784
f 781 772 777
f 781 777 822
f 782 783 817
f 786 784 820
f 784 782 821
f 783 781 818
f 777 776 787
f 785 786 649
f 734 752 726
f 789 754 752
f 793 741 788
f 751 793 760
f 751 792 756
f 790 755 753
f 789 752 734
f 789 753 754
f 791 753 789
f 755 790 788
f 760 793 806
f 793 788 790
f 760 792 751
f 757 756 794
f 758 796 795
f 796 757 794
f 759 800 797
f 779 799 798
f 799 779 797
f 800 758 795
f 806 792 760
f 794 756 792
f 795 796 801
f 797 800 801
f 799 797 801
f 800 795 801
f 796 794 802
f 798 799 803
f 733 804 734
f 554 789 804
f 734 804 789
f 554 790 791
f 791 790 753
f 554 791 789
f 18 554 804
f 580 793 790
f 580 790 554
f 580 579 806
f 806 579 805
f 793 580 806
f 806 805 792
f 733 18 804
f 807 802 794
f 801 796 802
f 794 792 805
f 799 801 803
f 4 807 805
f 794 805 807
f 3 802 4
f 807 4 802
f 805 579 4
f 3 810 808
f 801 808 810
f 810 3 809
f 801 809 803
f 803 809 3
f 809 801 810
f 802 3 808
f 808 801 802
f 787 775 780
f 811 798 803
f 777 787 822
f 813 822 787
f 814 798 811
f 780 814 826
f 780 798 814
f 826 815 780
f 787 812 815
f 813 787 815
f 812 780 815
f 812 787 780
f 781 822 816
f 783 818 817
f 818 781 816
f 784 821 819
f 640 649 820
f 786 820 649
f 820 784 819
f 821 782 817
f 816 822 823
f 822 813 824
f 817 818 825
f 819 821 825
f 820 819 825
f 821 817 825
f 818 816 823
f 640 820 735
f 2 826 814
f 2 814 811
f 824 815 828
f 824 813 815
f 3 2 811
f 826 2 1
f 1 573 827
f 815 826 827
f 824 828 573
f 827 573 828
f 828 815 827
f 826 1 827
f 811 803 3
f 825 818 823
f 820 825 735
f 735 825 698
f 829 823 569
f 570 569 823
f 829 825 823
f 824 570 823
f 569 698 830
f 825 830 698
f 569 571 698
f 829 569 830
f 830 825 829
f 735 695 640
f 573 570 824
f 823 822 824
f 636 785 649
f 780 779 798
f 623 832 831
f 623 831 626
f 831 832 622
f 321 315 615
f 831 624 626
f 625 562 332
f 625 624 562
f 625 332 629
f 534 628 332
f 332 628 629
f 563 568 614
f 563 615 315
f 618 617 568
f 568 617 616
f 568 616 614
f 338 619 618
f 621 831 622
f 621 619 338
f 769 833 770
f 770 833 834
f 768 770 834
f 833 773 771
f 833 769 773
f 763 762 834
f 750 761 834
f 763 834 761
f 765 768 834
f 764 765 834
f 762 764 834
f 834 835 750
f 630 833 771
f 630 631 833
f 833 631 632
f 633 833 632
f 634 836 833
f 634 833 633
f 634 639 836
f 641 642 836
f 639 641 836
f 647 644 836
f 643 645 836
f 644 643 836
f 642 647 836
f 836 645 661
f 745 835 749
f 744 743 835
f 744 835 739
f 749 835 743
f 737 739 835
f 837 737 835
f 736 837 673
f 837 736 737
f 673 837 672
f 745 750 835
f 664 663 838
f 663 665 838
f 661 664 838
f 672 837 675
f 670 675 837
f 837 668 670
f 668 838 665
f 668 837 838
f 661 838 836
f 839 840 841
f 842 840 843
f 840 839 844
f 843 840 844
f 843 844 837
f 837 835 843
f 844 839 838
f 838 837 844
f 839 841 836
f 836 838 839
f 841 840 833
f 833 836 841
f 833 840 834
f 842 834 840
f 842 843 835
f 835 834 842
