v 0.00352169 0.00166503 0.000571774
v 0.0034259 0.0018403 0.000239408
v 0.00362564 0.00141835 0.000215467
v 0.00364728 0.00135156 0.000554448
v 0.00364728 0.00135156 0.00021186
v 0.00288205 0.00260248 0.000287289
v 0.00317643 0.00223675 0.000263348
v 0.00296809 0.00251133 0.000623754
v 0.00273601 0.0027588 0.00064108
v 0.0025476 0.00293227 0.00031123
v 0.00248368 0.00298624 0.000658407
v 0.0021779 0.00322088 0.000335171
v 0.00336305 0.00196281 0.000589101
v 0.00317781 0.00224545 0.000606427
v 0.00221322 0.003192 0.000675733
v 0.00375298 0.00103163 0.000537121
v 0.00135212 0.00365372 0.000383052
v 0.0017778 0.00346311 0.000359111
v 0.00162639 0.00353198 0.000710386
v 0.00192675 0.00337446 0.00069306
v 0.000445414 0.00386534 0.000430934
v 0.000328317 0.00388035 0.000779692
v -2.23049e-05 0.00388679 0.000454874
v -0.000683084 0.00382521 0.000831672
v -0.000951646 0.0037667 0.000502756
v -0.000490313 0.00385353 0.000478815
v -0.00034729 0.00387286 0.000814345
v 0.000905877 0.00378803 0.000406993
v 0.000992417 0.00376565 0.000745039
v -0.00182643 0.00343688 0.000550638
v -0.00139934 0.00362743 0.000526697
v -0.00165194 0.00351666 0.000883651
v -0.00195358 0.00336138 0.000900978
v -0.00222595 0.00319619 0.000574578
v -0.00250966 0.00297716 0.000935631
v -0.00259115 0.00290678 0.000598519
v -0.00320234 0.00220167 0.000646401
v -0.00291762 0.00257316 0.00062246
v -0.002986 0.00250043 0.000970284
v -0.00275901 0.00274988 0.000952957
v -0.00101415 0.00374941 0.000848998
v 0.000663049 0.00383854 0.000762366
v -0.00344233 0.00179868 0.000670341
v -0.00336845 0.00194376 0.00100494
v -9.30939e-06 0.00389151 0.000797019
v 0.00131423 0.00366292 0.000727713
v -0.00133795 0.00364628 0.000866325
v -0.00224033 0.00318127 0.000918304
v -0.00365059 0.00132724 0.00103959
v -0.00377612 0.000923674 0.000718223
v -0.00363459 0.00137056 0.000694282
v -0.00382651 0.000671427 0.00107424
v -0.00386393 0.000464399 0.000742164
v -0.00389503 -8.98064e-07 0.000766104
v -0.00387281 0.000335213 0.00109157
v -0.0031894 0.00223086 0.00098761
v -0.00352243 0.0016417 0.00102226
v -0.00375219 0.00100296 0.00105692
v -0.00389034 -3.11063e-06 0.0011089
v -0.00247048 -0.00300475 3.4653e-05
v -0.00234285 -0.0031049 0
v -0.00266306 -0.00283505 0
v -0.00272431 -0.00278103 1.73265e-05
v -0.00295678 -0.00253609 -4.48555e-19
v -0.00190849 -0.003384 6.9306e-05
v -0.001625 -0.00353394 0
v -0.00199549 -0.00333877 0
v -0.000966058 -0.00376543 0.000121285
v -0.00123568 -0.00368815 0
v -0.00129023 -0.00366479 0.000103959
v -0.00219773 -0.00320611 5.19795e-05
v -0.00160519 -0.00353727 8.66325e-05
v -0.000418742 -0.00386704 0
v -0.000832031 -0.00379962 0
v -0.000635086 -0.00383806 0.000138612
v 3.75516e-05 -0.00389476 0.000173265
v 0.00041755 -0.00386717 0
v -5.99605e-07 -0.00388965 0
v 0.000708371 -0.00382747 0.000207918
v 0.000830859 -0.00379988 0
v 0.00123454 -0.00368853 0
v 0.00135869 -0.00364128 0.000242571
v 0.00162391 -0.00353444 0
v 0.00234189 -0.00310563 0
v 0.00199446 -0.00333939 0
v 0.00225548 -0.00316269 0.00029455
v 0.00167041 -0.00350698 0.000259897
v 0.00103724 -0.00374857 0.000225244
v 0.00295162 -0.00253325 2.77556e-19
v 0.00266218 -0.00283587 0
v 0.00277406 -0.00272653 0.000329203
v 0.00300267 -0.00247738 0.00034653
v 0.00323294 -0.00215979 2.39408e-05
v 0.00346619 -0.00175429 4.78815e-05
v 0.00338704 -0.00192372 0.000381183
v 0.00378238 -0.000873976 9.57631e-05
v 0.00364985 -0.00132345 7.18223e-05
v 0.00376073 -0.000983624 0.000433162
v 0.00353912 -0.00162248 0.000398509
v 0.00252423 -0.00295542 0.000311877
v -0.000299742 -0.00388155 0.000155938
v 0.00386227 -0.000412575 0.000119704
v 0.00382992 -0.000651347 0.000450489
v 0.000374374 -0.00387664 0.000190591
v 0.00197011 -0.00334699 0.000277224
v 0.00320775 -0.00220933 0.000363856
v 0.00366374 -0.00130823 0.000415836
v 0.00377082 0.000976126 0.000191526
v 0.00385802 0.000519183 0.000167585
v 0.00382532 0.000701062 0.000519795
v 0.00386901 0.000364808 0.000502468
v 0.00388799 5.40468e-05 0.000143645
v 0.00387114 -0.000314069 0.000467815
v 0.00388423 2.55403e-05 0.000485142
v 0.00388965 -9.5269e-19 0.0017339
v 0.00386989 0.000378005 0.00141064
v 0.00388965 -9.5269e-19 0.00139125
v 0.00371687 0.00112695 0.0014497
v 0.00381117 0.00075583 0.00143017
v 0.00381634 0.000755964 0.00177296
v 0.00387522 0.000379572 0.00175343
v 0.0034264 0.00183455 0.00148876
v 0.00358821 0.00148774 0.00146923
v 0.00358956 0.00148511 0.00181202
v 0.0034252 0.00183106 0.00183155
v 0.00323263 0.00216375 0.00150829
v 0.00372053 0.00112561 0.00179249
v 0.00322922 0.00216007 0.00185108
v 0.00300812 0.00247171 0.00152782
v 0.00275407 0.00275478 0.00154735
v 0.00300339 0.00246874 0.00187061
v 0.00387561 -0.000379871 0.00171436
v 0.00247188 0.00300954 0.00156689
v 0.00274947 0.00275367 0.00189015
v 0.00183553 0.00342755 0.00160595
v 0.00183736 0.00343279 0.00194874
v 0.00148875 0.00358871 0.00162548
v 0.00216447 0.00323414 0.00158642
v 0.00246922 0.00301146 0.00190968
v 0.00113099 0.00371868 0.0019878
v 0.000756389 0.00381017 0.00166454
v 0.00112781 0.0037166 0.00164501
v 0.000759302 0.0038096 0.00200733
v 0.000378184 0.00386838 0.00168407
v 0.00149161 0.00359292 0.00196827
v -3.12222e-06 0.00389019 0.0017036
v 0.000380347 0.00386526 0.00202686
v -0.000384142 0.003869 0.00206593
v -0.000760296 0.00382046 0.00174267
v -0.000383844 0.00387456 0.00172314
v -0.000762067 0.00381619 0.00208546
v -0.00112886 0.00372717 0.0017622
v -2.06956e-06 0.00388521 0.0020464
v -0.00183004 0.0034302 0.00180126
v -0.00148642 0.00359627 0.00178173
v -0.00149026 0.00359901 0.00212452
v -0.00246374 0.00300246 0.00184032
v -0.00215679 0.00323144 0.00182079
v -0.00215856 0.00323616 0.00216358
v -0.0018333 0.00343474 0.00214405
v -0.00113204 0.00372634 0.00210499
v 0.00216443 0.00323872 0.00192921
v -0.00274796 0.00274572 0.00185985
v -0.00246354 0.00300618 0.00218311
v -0.00274574 0.00274769 0.00220265
v -0.0032365 0.00215883 0.00189892
v -0.00323176 0.00215679 0.00224171
v -0.00343496 0.00183362 0.00191845
v -0.00300264 0.00246359 0.00222218
v -0.00300652 0.00246369 0.00187939
v -0.00359897 0.00149052 0.00193798
v -0.00343059 0.00183018 0.00226124
v -0.00381576 0.00076207 0.00197704
v -0.00372601 0.00113217 0.00195751
v -0.00372737 0.00112915 0.0023003
v -0.00359663 0.00148667 0.00228077
v -0.00386861 0.000384043 0.00199657
v -0.00382033 0.000760529 0.00231983
v -0.0038742 0.000383978 0.00233936
v -0.00388976 3.14776e-06 0.0023589
v -0.00388496 1.8932e-06 0.0020161
v -0.00387639 -0.00038053 0.000785636
v -0.00382051 -0.000760226 0.00114796
v -0.00372247 -0.00112568 0.000824698
v -0.00381824 -0.000756555 0.000805167
v -0.00387469 -0.000383802 0.00112843
v -0.00359616 -0.00148636 0.00118702
v -0.0034259 -0.00183001 0.000863761
v -0.00359104 -0.00148459 0.000844229
v -0.00343009 -0.00183001 0.00120655
v -0.00322902 -0.00215864 0.000883292
v -0.00300236 -0.00246717 0.000902823
v -0.00323135 -0.00215681 0.00122608
v -0.00372712 -0.00112878 0.00116749
v -0.00274787 -0.00275232 0.000922354
v -0.00300242 -0.0024638 0.00124561
v -0.00216324 -0.00323927 0.000961417
v -0.00246751 -0.00301079 0.000941886
v -0.00246374 -0.00300664 0.00128468
v -0.00183709 -0.00343457 0.000980948
v -0.00215893 -0.00323661 0.00130421
v -0.00274573 -0.00274806 0.00126515
v -0.00113185 -0.00372053 0.00102001
v -0.0011322 -0.00372589 0.0013628
v -0.000760384 -0.0038107 0.00103954
v -0.000381454 -0.00386536 0.00105907
v -0.000383996 -0.00386848 0.00140186
v 1.11718e-06 -0.0038843 0.0010786
v -0.000762057 -0.00381561 0.00138233
v -0.00149203 -0.00359508 0.00100048
v -0.00183373 -0.00343502 0.00132374
v 0.000761891 -0.00381411 0.00111767
v 0.000383507 -0.00386729 0.00109814
v 0.000380651 -0.0038652 0.00144093
v 0.000759616 -0.00380982 0.00146046
v 0.00113245 -0.00372454 0.0011372
v 0.00113126 -0.00371912 0.00147999
v 0.00149135 -0.00359836 0.00115673
v 0.00149177 -0.00359348 0.00149952
v 0.00183484 -0.00343547 0.00117626
v 0.00246445 -0.0030078 0.00121532
v 0.00215999 -0.00323762 0.00119579
v 0.00216416 -0.00323895 0.00153858
v 0.00183734 -0.0034333 0.00151905
v -1.82269e-06 -0.00388488 0.0014214
v -0.0014906 -0.00359894 0.00134327
v 0.00274589 -0.00274906 0.00123485
v 0.00246876 -0.00301133 0.00155811
v 0.00323038 -0.00215696 0.00127392
v 0.0032291 -0.00215969 0.00161671
v 0.00342878 -0.00182967 0.00129345
v 0.00300305 -0.00246833 0.00159718
v 0.00300198 -0.00246443 0.00125439
v 0.00372619 -0.00112782 0.00133251
v 0.00359482 -0.00148562 0.00131298
v 0.00358992 -0.00148498 0.00165577
v 0.00372105 -0.00112564 0.0016753
v 0.00382056 -0.000759328 0.00135204
v 0.00342534 -0.00183078 0.00163624
v 0.00387578 -0.000383208 0.00137157
v 0.00381688 -0.000756152 0.00169483
v 0.00274899 -0.00275333 0.00157765
v 0.00386887 0.000384109 0.00266064
v 0.00388965 -9.5269e-19 0.002641
v 0.00388965 -9.5269e-19 0.0029839
v 0.00386536 0.000381688 0.00300343
v 0.00381605 0.000762069 0.00268017
v 0.00381087 0.000760593 0.00302296
v 0.00372623 0.00113208 0.0026997
v 0.003599 0.00149035 0.00271923
v 0.00372081 0.00113199 0.00304249
v 0.00323917 0.00216295 0.00310108
v 0.00300629 0.00246359 0.00277782
v 0.00323628 0.00215865 0.00275829
v 0.00343482 0.00183341 0.00273876
v 0.00359538 0.00149206 0.00306202
v 0.00343474 0.00183697 0.00308155
v 0.00274778 0.00274573 0.00279735
v 0.00301052 0.00246716 0.00312061
v 0.00386696 -0.000383336 0.00296436
v 0.00215679 0.00323166 0.00283642
v 0.00246364 0.00300258 0.00281689
v 0.00246693 0.00300221 0.00315968
v 0.00215851 0.00322905 0.00317921
v 0.00183013 0.00343046 0.00285595
v 0.00183005 0.00342611 0.00319874
v 0.00148658 0.00359651 0.00287548
v 0.00112602 0.00372287 0.0032378
v 0.000760452 0.00382038 0.00291454
v 0.00112905 0.00372731 0.00289501
v 0.00148479 0.00359138 0.00321827
v 0.000383935 0.00387432 0.00293407
v 0.000757005 0.00381859 0.00325733
v 3.14137e-06 0.0038899 0.0029536
v 0.000381003 0.00387652 0.00327686
v -0.000755558 0.00381446 0.00333546
v -0.00112796 0.00371658 0.0030122
v -0.000756501 0.00381002 0.00299267
v -0.00037872 0.00387362 0.00331593
v -0.000378236 0.00386813 0.00297314
v -0.00148575 0.00358861 0.00337452
v -0.00183569 0.00342775 0.00305126
v -0.00148892 0.00358882 0.00303173
v -0.00183213 0.00342509 0.00339405
v -0.00216457 0.00323439 0.00307079
v -0.00112573 0.00371893 0.00335499
v 1.29526e-06 0.00389482 0.0032964
v 0.00275202 0.00274758 0.00314015
v -0.00247187 0.00300974 0.00309032
v -0.00216138 0.00322994 0.00341358
v -0.00275456 0.00275113 0.00345265
v -0.00300786 0.00247163 0.00312939
v -0.0027539 0.00275484 0.00310985
v -0.00323753 0.00216496 0.00349171
v -0.00342623 0.00183438 0.00316845
v -0.00323239 0.0021636 0.00314892
v -0.0030115 0.00247063 0.00347218
v -0.00371696 0.00112684 0.00320751
v -0.00358817 0.00148758 0.00318798
v -0.00359116 0.00149087 0.00353077
v -0.00371747 0.00112998 0.0035503
v -0.00381137 0.000755788 0.00322704
v -0.00380924 0.000758235 0.00356983
v -0.00387016 0.000378038 0.00324657
v -0.00343097 0.00183712 0.00351124
v -0.00247002 0.00300476 0.00343311
v -0.00386583 0.000379405 0.00358936
v -0.0038921 -2.78056e-06 0.0032661
v -0.00386521 -0.000380569 0.00203564
v -0.00386801 -0.000378265 0.00237843
v -0.00380976 -0.000759534 0.00205517
v -0.00380996 -0.000756561 0.00239796
v -0.003719 -0.00113119 0.0020747
v -0.00359334 -0.00149173 0.00209423
v -0.00358889 -0.00148901 0.00243702
v -0.00343317 -0.00183735 0.00211376
v -0.00323889 -0.00216423 0.00213329
v -0.00342787 -0.00183577 0.00245655
v -0.00371658 -0.00112804 0.00241749
v -0.00323453 -0.00216462 0.00247608
v -0.00301136 -0.00246888 0.00215282
v -0.00300985 -0.00247186 0.00249561
v -0.00275487 -0.00275381 0.00251515
v -0.00275342 -0.00274911 0.00217235
v -0.00215978 -0.00322913 0.00221142
v -0.00246843 -0.00300314 0.00219189
v -0.00247159 -0.00300773 0.00253468
v -0.00216352 -0.00323226 0.00255421
v -0.00183085 -0.0034253 0.00223095
v -0.00183429 -0.00342615 0.00257374
v -0.00148501 -0.00358983 0.00225048
v -0.000756102 -0.00381675 0.00228954
v -0.00112563 -0.00372091 0.00227001
v -0.00112678 -0.00371701 0.0026128
v -0.000755755 -0.00381148 0.00263233
v -0.000379794 -0.00387552 0.00230907
v -0.0014875 -0.00358815 0.00259327
v -0.000378042 -0.0038703 0.00265186
v -8.5837e-08 -0.00389542 0.0023286
v 2.74028e-06 -0.00389224 0.0026714
v 0.000379644 -0.00387532 0.00234814
v 0.00112755 -0.00372588 0.00272999
v 0.00148507 -0.00358965 0.00240673
v 0.00112561 -0.00372066 0.0023872
v 0.000756007 -0.00381647 0.00236767
v 0.000382969 -0.00387603 0.00269093
v 0.00182965 -0.00342842 0.00276905
v 0.00215997 -0.00322919 0.00244579
v 0.00183098 -0.00342523 0.00242626
v 0.00215709 -0.00323015 0.00278858
v 0.00246863 -0.0030033 0.00246532
v 0.00148545 -0.00359443 0.00274952
v 0.000759033 -0.00382047 0.00271046
v 0.00275358 -0.00274934 0.00248485
v 0.00246471 -0.00300191 0.00280811
v -0.00388659 -2.73259e-06 0.0036089
v 0.00323878 -0.00216437 0.00252392
v 0.00323795 -0.00216032 0.00286671
v 0.00343292 -0.00183736 0.00254345
v 0.0030082 -0.00246469 0.00284718
v 0.00301143 -0.00246911 0.00250439
v 0.00359306 -0.00149166 0.00256298
v 0.0034356 -0.00183515 0.00288624
v 0.00380965 -0.000759382 0.00260204
v 0.00371879 -0.00113106 0.00258251
v 0.00372416 -0.00113247 0.0029253
v 0.00359816 -0.00149152 0.00290577
v 0.00386524 -0.000380423 0.00262157
v 0.0038137 -0.000761804 0.00294483
v 0.00274943 -0.00274599 0.00282765
v 0.00388965 -9.5269e-19 0.00423379
v 0.00387375 0.000378774 0.00391064
v 0.00388965 -9.5269e-19 0.00389117
v 0.00381962 0.000757823 0.00427296
v 0.00371904 0.00112571 0.0039497
v 0.0038146 0.000755575 0.00393017
v 0.00387665 0.000381894 0.00425343
v 0.00342507 0.00183204 0.00398876
v 0.00358866 0.00148569 0.00396923
v 0.00359266 0.00148492 0.00431202
v 0.00342699 0.00182972 0.00433155
v 0.00322987 0.00216128 0.00400829
v 0.00372424 0.00112656 0.00429249
v 0.00322936 0.00215778 0.00435108
v 0.00300465 0.00246993 0.00402782
v 0.002751 0.0027545 0.00404735
v 0.0030019 0.00246591 0.00437061
v 0.00387221 -0.000378292 0.00421436
v 0.00247053 0.00301152 0.00406689
v 0.00274675 0.00275092 0.00439015
v 0.00183715 0.00343111 0.00410595
v 0.00216494 0.00323763 0.00408642
v 0.00216185 0.00323886 0.00442921
v 0.00246602 0.00300963 0.00440968
v 0.00113234 0.00372224 0.0044878
v 0.000758315 0.00380925 0.00416454
v 0.00113006 0.00371755 0.00414501
v 0.00076121 0.00381196 0.00450733
v 0.000379471 0.00386577 0.00418407
v -2.69127e-06 0.00388648 0.0042036
v 0.000382437 0.00386585 0.00452686
v 0.00149093 0.00359129 0.00412548
v 0.001492 0.00359672 0.00446827
v -0.000382706 0.00386607 0.00456593
v -0.000761863 0.00381792 0.00424267
v -0.000384395 0.00387074 0.00422314
v -0.000761414 0.00381235 0.00458546
v -0.00113132 0.00372739 0.0042622
v -1.4502e-07 0.0038839 0.0045464
v -0.00149195 0.0035971 0.00462452
v -0.00183203 0.00343358 0.00430126
v -0.00148905 0.00359874 0.00428173
v -0.00246317 0.00300479 0.00434032
v -0.00215762 0.00323467 0.00432079
v -0.00216148 0.00323868 0.00466358
v -0.00183612 0.00343554 0.00464405
v -0.00113244 0.0037227 0.00460499
v 0.00183636 0.00343543 0.00444874
v -0.00274604 0.0027467 0.00435985
v -0.00246566 0.0030093 0.00468311
v -0.0030036 0.00246319 0.00437939
v -0.00300182 0.0024656 0.00472218
v -0.00323318 0.00215702 0.00439892
v -0.00322946 0.00215759 0.00474171
v -0.00343217 0.00183097 0.00441845
v -0.00342725 0.00182968 0.00476124
v -0.00359791 0.00148781 0.00443798
v -0.00359302 0.00148503 0.00478077
v -0.00372775 0.00113032 0.00445751
v -0.00387654 0.000382185 0.00483936
v -0.00388801 3.06266e-06 0.0045161
v -0.0038725 0.000384346 0.00449657
v -0.00381935 0.000761346 0.00447704
v -0.00372461 0.00112679 0.0048003
v -0.00381983 0.000758125 0.00481983
v -0.0027465 0.00275056 0.00470265
v -0.00389349 2.2358e-06 0.0048589
v -0.00387595 -0.000383041 0.00328564
v -0.00381805 -0.000761833 0.00364796
v -0.00372599 -0.00112764 0.0033247
v -0.0038205 -0.000759125 0.00330517
v -0.00387088 -0.000384404 0.00362843
v -0.00359869 -0.00148895 0.00368702
v -0.00342854 -0.00182966 0.00336376
v -0.00359456 -0.0014855 0.00334423
v -0.00323455 -0.00215756 0.00372608
v -0.00300193 -0.00246463 0.00340282
v -0.00323023 -0.00215705 0.00338329
v -0.00343347 -0.00183194 0.00370655
v -0.00372745 -0.00113125 0.00366749
v -0.00274595 -0.00274932 0.00342235
v -0.00300468 -0.00246316 0.00374561
v -0.0021602 -0.00323786 0.00346142
v -0.00246461 -0.00300809 0.00344189
v -0.00246318 -0.00300368 0.00378468
v -0.00215706 -0.0032333 0.00380421
v -0.00183505 -0.00343558 0.00348095
v -0.00149146 -0.00359825 0.00350048
v -0.00183106 -0.00343229 0.00382374
v -0.00113247 -0.0037243 0.00352001
v -0.00148792 -0.00359799 0.00384327
v -0.000383395 -0.00386706 0.00355907
v -0.000384363 -0.00387236 0.00390186
v -9.71311e-07 -0.00388416 0.0035786
v -0.000761403 -0.00381925 0.00388233
v -0.000761835 -0.00381384 0.00353954
v -0.00274664 -0.00274609 0.00376515
v 0.000378815 -0.00386661 0.00394093
v 0.000760525 -0.00381077 0.00361767
v 0.00038161 -0.00386533 0.00359814
v 0.00075746 -0.00380934 0.00396046
v 0.00113195 -0.00372068 0.0036372
v 0.00112915 -0.00371688 0.00397999
v 0.00149205 -0.00359524 0.00365673
v 0.00149013 -0.00359002 0.00399952
v 0.00183701 -0.00343465 0.00367626
v 0.002165 -0.00323631 0.00403858
v 0.00246728 -0.0030106 0.00371532
v 0.00216305 -0.00323918 0.00369579
v 0.00183667 -0.00342957 0.00401905
v -3.04118e-06 -0.00388788 0.0039214
v -0.00113042 -0.00372775 0.0038628
v 0.00274767 -0.00275212 0.00373485
v 0.0024714 -0.00301105 0.00405811
v 0.00322904 -0.00215859 0.00377392
v 0.0032308 -0.00216236 0.00411671
v 0.00342603 -0.00183009 0.00379345
v 0.00300599 -0.00247083 0.00409718
v 0.00300225 -0.00246703 0.00375439
v 0.00372274 -0.00112598 0.00383251
v 0.00359126 -0.00148479 0.00381298
v 0.0035882 -0.00148643 0.00415577
v 0.00371793 -0.00112607 0.0041753
v 0.00381847 -0.00075693 0.00385204
v 0.00342535 -0.00183305 0.00413624
v 0.00387648 -0.000380914 0.00387157
v 0.00381308 -0.000755506 0.00419483
v 0.00275238 -0.00275491 0.00407765
v -0.00387981 -0.00028826 0.00578072
v -0.0038879 -2.74849e-06 0.0057661
v -0.00388965 -4.76345e-19 0.006
v -0.00387915 -0.000285556 0.006
v -0.00385074 -0.000571918 0.00579533
v -0.00380035 -0.00085216 0.00580995
v -0.00384772 -0.000569571 0.006
v -0.00363007 -0.00139713 0.006
v -0.00352088 -0.00165759 0.00585379
v -0.0036348 -0.0013963 0.00583918
v -0.0037283 -0.00112743 0.00582456
v -0.00379552 -0.000850512 0.006
v -0.00372284 -0.00112686 0.006
v -0.0035177 -0.00165986 0.006
v -0.00338635 -0.00191363 0.006
v -0.00338763 -0.00191013 0.00586841
v -0.00323673 -0.00215708 0.006
v -0.00323615 -0.00215273 0.00588302
v -0.00306963 -0.00238888 0.006
v -0.00268673 -0.00281262 0.006
v -0.00246981 -0.00300039 0.00594148
v -0.00288287 -0.00260346 0.00591225
v -0.00224591 -0.00317573 0.006
v -0.00200574 -0.00333413 0.00597071
v -0.00175731 -0.00347437 0.00598532
v -0.00200671 -0.00333204 0.006
v -0.00288597 -0.00260779 0.006
v -0.002473 -0.00300228 0.006
v -0.00175668 -0.00347037 0.006
v -0.00149716 -0.00358997 0.006
v 0.00102757 -0.00446107 0.00572201
v 0.00130169 -0.00439645 0.00573418
v 0.00130169 -0.00439645 0.00563021
v 0.00146969 -0.00433821 0.00574186
v 0.00180183 -0.00422022 0.00565332
v 0.00227575 -0.00397908 0.00567643
v 0.00189694 -0.0041736 0.00576172
v 0.00230462 -0.00396803 0.00578158
v 0.00268801 -0.0037223 0.00580143
v 0.00272009 -0.00368451 0.00569954
v 0.00312943 -0.00334161 0.00572266
v 0.00304258 -0.00343746 0.00582129
v 0.00336557 -0.00311668 0.00584115
v 0.00349831 -0.00295548 0.00574577
v 0.00365501 -0.00276416 0.005861
v 0.00430778 -0.00158884 0.0058151
v 0.00409292 -0.00207399 0.00579199
v 0.00412551 -0.00198065 0.00590072
v 0.00390897 -0.00238408 0.00588086
v 0.00382129 -0.00253124 0.00576888
v 0.00446097 -0.00108109 0.00583822
v 0.00430268 -0.00155806 0.00592057
v 0.00453114 -0.000672201 0.00596029
v 0.00455181 -0.000557512 0.00586133
v 0.0045814 -2.54906e-05 0.00588444
v 0.00457855 -0.000217332 0.00598014
v 0.00443853 -0.00112051 0.00594043
v 0.00457882 0.000239901 0.006
v 0.00446139 0.00103427 0.00593066
v 0.00455088 0.000507569 0.00590755
v 0.00450826 0.000835884 0.006
v 0.00436047 0.00141755 0.006
v 0.00431404 0.0015472 0.00595378
v 0.00413797 0.00197492 0.006
v 0.00410997 0.00203898 0.00597689
v 0.00385029 0.00250217 0.006
v -0.00458304 -3.23991e-06 0.00536459
v -0.00455448 -0.000527761 0.00528353
v -0.00458963 2.63555e-06 0.00526041
v -0.00438739 -0.0013534 0.00542416
v -0.0043034 -0.00156306 0.00532975
v -0.00445816 -0.00105198 0.00530664
v -0.00449919 -0.000911679 0.0054043
v -0.00456407 -0.000460086 0.00538444
v -0.00422918 -0.00178105 0.00544401
v -0.00382944 -0.00251791 0.00537597
v -0.00409292 -0.00205403 0.00535286
v -0.00402756 -0.00219109 0.00546387
v -0.00378578 -0.00258004 0.00548373
v -0.00351568 -0.00294775 0.00539909
v -0.00350706 -0.00294445 0.00550358
v -0.00315436 -0.00333657 0.0054222
v -0.00285181 -0.00358572 0.0055433
v -0.00274836 -0.00367759 0.00544531
v -0.00230301 -0.00396687 0.00546842
v -0.00248175 -0.00385566 0.00556315
v -0.00319466 -0.00328083 0.00552344
v -0.00208772 -0.00408716 0.00558301
v -0.00182558 -0.00420269 0.00549153
v -0.00132336 -0.00438342 0.00551465
v -0.00167296 -0.00427677 0.00560287
v -0.00124076 -0.00442112 0.00562272
v -0.000803659 -0.0045074 0.00553776
v -0.000273789 -0.00457298 0.00556087
v -0.000795121 -0.004519 0.00564258
v 0.000117632 -0.00457833 0.00568229
v 0.000258948 -0.00457851 0.00558398
v 0.000575312 -0.00454137 0.00570215
v 0.000787245 -0.00452233 0.00560709
v -0.000340752 -0.00457114 0.00566244
v 0.0045851 1.68511e-17 0.00473959
v 0.00456978 0.000450174 0.00465494
v 0.0045851 1.68511e-17 0.00463531
v 0.00455719 0.000450972 0.00475912
v 0.00450255 0.000893319 0.00467448
v 0.00455711 -0.000450937 0.00472006
v 0.00439012 0.00132798 0.00469401
v 0.00449379 0.000897402 0.00477865
v 0.00403971 0.00215687 0.00473307
v 0.00423501 0.00175042 0.00471354
v 0.00424007 0.00175864 0.00481771
v 0.00438809 0.0013348 0.00479818
v 0.00380675 0.00254358 0.0047526
v 0.00404973 0.00216443 0.00483724
v 0.00381779 0.00254803 0.00485677
v 0.00353863 0.0029068 0.00477213
v 0.00354747 0.00290662 0.00487631
v 0.00323785 0.00324277 0.00479166
v 0.00324248 0.00323767 0.00489584
v 0.00290693 0.00354774 0.00481119
v 0.00290658 0.00353862 0.00491537
v 0.00254838 0.00381796 0.00483073
v 0.00175877 0.0042398 0.00486979
v 0.0021647 0.00404967 0.00485026
v 0.00215689 0.00404006 0.00495443
v 0.00254347 0.00380693 0.0049349
v 0.0013348 0.00438776 0.00488932
v 0.00175058 0.00423545 0.00497396
v 0.00089731 0.00449352 0.00490885
v 0.00132825 0.00439058 0.00499349
v 0.000450475 0.00456982 0.00503256
v -1.70949e-07 0.00457832 0.00494791
v 0.000450815 0.00455705 0.00492838
v 0.000893638 0.00450288 0.00501302
v -0.000451132 0.00455731 0.00496744
v 2.59897e-06 0.00458985 0.00505209
v -0.00133491 0.0043883 0.00500651
v -0.000897551 0.00449398 0.00498698
v -0.000890638 0.00449446 0.00509115
v -0.00132759 0.00438237 0.00511068
v -0.00175871 0.00424025 0.00502604
v -0.000445839 0.00456418 0.00507162
v -0.00216441 0.0040498 0.00504557
v -0.00175251 0.00422957 0.00513021
v -0.0025494 0.0038085 0.00516927
v -0.00290651 0.00354735 0.00508463
v -0.00254794 0.00381774 0.0050651
v -0.00216118 0.00403772 0.00514974
v -0.00291297 0.00354357 0.00518881
v -0.00324769 0.0032446 0.00520834
v -0.00353853 0.00290644 0.00512369
v -0.00323756 0.00324234 0.00510416
v -0.00354936 0.00291325 0.00522787
v -0.00381468 0.00255196 0.0052474
v -0.00404003 0.00215682 0.00516276
v -0.00380687 0.00254335 0.00514323
v -0.00404241 0.00216488 0.00526693
v -0.00423544 0.00175054 0.00518229
v -0.00439055 0.00132826 0.00520182
v -0.00423157 0.00175643 0.00528646
v -0.00449028 0.000892968 0.00532552
v -0.00456965 0.000450518 0.00524088
v -0.0045028 0.000893674 0.00522135
v -0.00438118 0.00133099 0.00530599
v -0.00455789 0.000446758 0.00534506
v -0.00458317 3.61025e-06 0.00411459
v -0.00455804 -0.000446481 0.00413412
v -0.00456297 -0.000453133 0.00402994
v -0.0045007 -0.000898045 0.00404948
v -0.00449046 -0.000892796 0.00415365
v -0.0043939 -0.00133351 0.00406901
v -0.00404736 -0.00215948 0.00410807
v -0.00424212 -0.00175516 0.00408854
v -0.00423178 -0.00175645 0.00419271
v -0.00438139 -0.00133092 0.00417318
v -0.00381287 -0.00254332 0.0041276
v -0.00404259 -0.00216497 0.00421224
v -0.00354932 -0.00291333 0.00425131
v -0.00354191 -0.00290356 0.00414713
v -0.00381479 -0.00255207 0.00423177
v -0.0032475 -0.00324462 0.00427084
v -0.00323772 -0.00323707 0.00416666
v -0.00291269 -0.0035436 0.00429037
v -0.00290358 -0.00354073 0.00418619
v -0.00254274 -0.0038114 0.00420573
v -0.00254909 -0.00380856 0.0043099
v -0.00175395 -0.00424129 0.00424479
v -0.00215844 -0.00404597 0.00422526
v -0.0021609 -0.00403784 0.00432943
v -0.00175229 -0.00422974 0.00434896
v -0.00133253 -0.00439425 0.00426432
v -0.000897538 -0.00450211 0.00428385
v -0.00132746 -0.00438259 0.00436849
v -0.000453085 -0.00456471 0.00430338
v -0.000890603 -0.0044947 0.00438802
v 0.000446546 -0.00455794 0.00434244
v -3.58493e-06 -0.00458301 0.00432291
v 2.45131e-06 -0.00458998 0.00442709
v -0.000445902 -0.00456439 0.00440756
v 0.00089289 -0.00449043 0.00436198
v 0.000450267 -0.00456978 0.00444662
v 0.00132806 -0.00439028 0.00448568
v 0.00175656 -0.0042319 0.00440104
v 0.00133103 -0.00438144 0.00438151
v 0.00175045 -0.00423515 0.00450521
v 0.00216505 -0.00404276 0.00442057
v 0.000893415 -0.00450266 0.00446615
v 0.00255209 -0.00381495 0.0044401
v 0.00215685 -0.00403981 0.00452474
v 0.00254352 -0.00380677 0.00454427
v 0.0029067 -0.00353857 0.00456381
v 0.00291327 -0.00354941 0.00445963
v 0.00324265 -0.00323772 0.00458334
v 0.00354345 -0.00291261 0.00449869
v 0.00324449 -0.00324748 0.00447916
v 0.00354764 -0.00290675 0.00460287
v 0.00380845 -0.00254898 0.00451823
v 0.00422976 -0.0017522 0.00455729
v 0.00403778 -0.00216078 0.00453776
v 0.00404973 -0.00216457 0.00464193
v 0.00381792 -0.0025482 0.0046224
v 0.00438267 -0.0013274 0.00457682
v 0.00423995 -0.00175872 0.00466146
v 0.00449365 -0.000897389 0.00470052
v 0.00456454 -0.000445929 0.00461588
v 0.00449483 -0.000890587 0.00459635
v 0.00438793 -0.00133482 0.00468099
v -0.0045815 -3.22116e-06 0.00401041
v 0.0045851 1.68511e-17 0.00348965
v 0.00455647 0.000449932 0.00340495
v 0.0045851 1.68511e-17 0.00338546
v 0.00456636 0.000446496 0.00350912
v 0.00449223 0.000896583 0.00342448
v 0.00456957 -0.000449019 0.00347005
v 0.00423821 0.00175883 0.00346354
v 0.00438607 0.00133439 0.00344401
v 0.00438398 0.00132698 0.00354818
v 0.0042303 0.00175132 0.00356771
v 0.00404885 0.00216541 0.00348307
v 0.00449663 0.000890668 0.00352865
v 0.00381832 0.00254967 0.0035026
v 0.00403746 0.0021596 0.00358724
v 0.00380735 0.00254771 0.00360677
v 0.00354879 0.00290827 0.00352213
v 0.00354186 0.00291154 0.0036263
v 0.00324406 0.00323883 0.00354166
v 0.00324287 0.00324699 0.00364584
v 0.002908 0.00353899 0.0035612
v 0.00291225 0.00354997 0.00366537
v 0.00254444 0.00380639 0.00358073
v 0.00216562 0.00404457 0.00370443
v 0.00175027 0.0042335 0.00361979
v 0.00215725 0.00403868 0.00360026
v 0.00255202 0.00381651 0.0036849
v 0.00132735 0.0043885 0.00363932
v 0.0017575 0.00423339 0.00372396
v 0.000449124 0.00456962 0.00367838
v 0.000892353 0.00450133 0.00365885
v 0.000893897 0.00449033 0.00376302
v 1.52684e-06 0.0045912 0.00369791
v 0.000447319 0.00455695 0.00378255
v 0.00133211 0.00438222 0.00374349
v -0.000446434 0.0045662 0.00371745
v -3.17245e-06 0.00458136 0.00380209
v -0.000453123 0.0045628 0.00382162
v -0.0017514 0.00423023 0.00377604
v -0.00132701 0.00438385 0.00375651
v -0.00133359 0.00439383 0.00386068
v -0.000890648 0.00449646 0.00373698
v -0.00089808 0.00450054 0.00384115
v -0.00215971 0.00403747 0.00379557
v -0.00175528 0.00424218 0.00388021
v -0.00254339 0.00381301 0.00391927
v -0.00254783 0.00380744 0.0038151
v -0.00215959 0.00404749 0.00389974
v -0.00290357 0.00354203 0.0039388
v -0.00291165 0.003542 0.00383463
v -0.00323702 0.0032378 0.00395834
v -0.00324706 0.00324302 0.00385416
v -0.00354994 0.00291236 0.0038737
v -0.00354062 0.0029036 0.00397787
v -0.00381638 0.00255204 0.00389323
v -0.00423325 0.00175743 0.00393229
v -0.00404441 0.00216559 0.00391276
v -0.00404582 0.00215834 0.00401693
v -0.00381126 0.00254269 0.0039974
v -0.00438214 0.00133201 0.00395182
v -0.00424119 0.00175383 0.00403646
v -0.00450223 0.000897471 0.00407552
v -0.00455702 0.000447241 0.00399088
v -0.00449031 0.000893803 0.00397135
v -0.00439426 0.00133242 0.00405599
v -0.00456488 0.000453065 0.00409506
v -0.00456895 -0.000451527 0.00288412
v -0.00449116 -0.00089183 0.00279948
v -0.0045596 -0.000445896 0.00277995
v -0.00458799 -3.27771e-06 0.00286459
v -0.00450359 -0.000894852 0.00290365
v -0.00458523 3.71057e-06 0.00276041
v -0.00439218 -0.00132925 0.00292318
v -0.00423056 -0.00175524 0.00283854
v -0.00438109 -0.00132973 0.00281901
v -0.00423725 -0.0017511 0.00294271
v -0.00404075 -0.00216399 0.00285807
v -0.00381284 -0.00255164 0.0028776
v -0.00404155 -0.00215679 0.00296224
v -0.00353866 -0.00290529 0.0030013
v -0.00324743 -0.00324618 0.00291666
v -0.003548 -0.00291381 0.00289713
v -0.00380778 -0.00254272 0.00298177
v -0.00323692 -0.00324089 0.00302084
v -0.00290527 -0.00354592 0.00304037
v -0.00255035 -0.00381018 0.00295573
v -0.0029135 -0.0035455 0.0029362
v -0.00254644 -0.00381677 0.0030599
v -0.00216225 -0.00403873 0.00297526
v -0.00175813 -0.00424159 0.00309896
v -0.00132824 -0.00438159 0.00301432
v -0.00175346 -0.0042297 0.00299479
v -0.00216314 -0.00404984 0.00307943
v -0.000890881 -0.00449295 0.00303385
v -0.00133495 -0.00439018 0.00311849
v 3.23023e-06 -0.00458815 0.00307291
v -0.000445633 -0.00456229 0.00305338
v -0.000451944 -0.00455847 0.00315755
v -1.14498e-06 -0.00457863 0.00317709
v 0.000451443 -0.00456904 0.00309245
v -0.000898047 -0.00449573 0.00313802
v 0.000894744 -0.00450355 0.00311198
v 0.00044984 -0.00455643 0.00319662
v 0.000896503 -0.00449212 0.00321615
v 0.00215678 -0.00404141 0.00317057
v 0.00175104 -0.0042371 0.00315104
v 0.00175882 -0.00423805 0.00325521
v 0.00132915 -0.00439205 0.00313151
v 0.00133433 -0.00438591 0.00323568
v 0.00254277 -0.00380769 0.0031901
v 0.00216546 -0.00404875 0.00327474
v 0.00254979 -0.00381833 0.00329427
v 0.00290841 -0.00354888 0.0033138
v 0.00290538 -0.00353863 0.00320963
v 0.00323894 -0.00324419 0.00333334
v 0.00324102 -0.00323696 0.00322916
v 0.00354605 -0.00290537 0.0032487
v 0.00353904 -0.00290812 0.00335287
v 0.00404987 -0.00216326 0.00328776
v 0.00381687 -0.00254657 0.00326823
v 0.00380637 -0.00254454 0.0033724
v 0.00424149 -0.00175819 0.00330729
v 0.00403859 -0.0021573 0.00339193
v 0.00439002 -0.00133495 0.00332682
v 0.00423336 -0.00175027 0.00341146
v 0.00450119 -0.000892265 0.00345052
v 0.00455835 -0.000451875 0.00336588
v 0.00449557 -0.00089801 0.00334635
v 0.00438834 -0.0013273 0.00343099
v 0.0045851 1.68511e-17 0.00223948
v 0.0045681 0.000447437 0.00215495
v 0.0045851 1.68511e-17 0.00213541
v 0.0045606 0.000452785 0.00225912
v 0.00449868 0.000891127 0.00217448
v 0.00455633 -0.00044844 0.00222005
v 0.00438574 0.00132686 0.00219401
v 0.00449834 0.000898323 0.00227865
v 0.00424248 0.00175681 0.00231771
v 0.00403761 0.00215844 0.00223307
v 0.00423136 0.00175063 0.00221354
v 0.00439247 0.00133449 0.00229818
v 0.00380659 0.00254628 0.0022526
v 0.00404894 0.00216121 0.00233724
v 0.00381491 0.00254461 0.00235677
v 0.00354038 0.00291013 0.00227213
v 0.0035438 0.00290407 0.0023763
v 0.00324106 0.00324601 0.00229166
v 0.00323907 0.00323665 0.00239584
v 0.00291071 0.00354989 0.0023112
v 0.00290413 0.00353943 0.00241537
v 0.00255142 0.00381779 0.00233073
v 0.00216587 0.00404656 0.00235026
v 0.00254241 0.00380946 0.0024349
v 0.00133321 0.00438356 0.00238932
v 0.00175831 0.00423532 0.00236979
v 0.00175238 0.00423955 0.00247396
v 0.00215735 0.00404381 0.00245443
v 0.00133092 0.00439373 0.00249349
v 0.000452581 0.00456703 0.00253255
v -2.43959e-06 0.00457987 0.00244791
v 0.000448351 0.00455635 0.00242838
v 3.70303e-06 0.0045854 0.00255209
v -0.000452825 0.00456076 0.00246745
v 0.000896417 0.00450344 0.00251302
v 0.000895061 0.00449074 0.00240885
v -0.00089832 0.00449851 0.00248698
v -0.000445862 0.00455974 0.00257162
v -0.00216109 0.00404885 0.00254557
v -0.00175671 0.0042425 0.00252604
v -0.00175513 0.00423048 0.00263021
v -0.00133444 0.00439259 0.00250651
v -0.00132964 0.00438108 0.00261068
v -0.00089176 0.00449123 0.00259115
v -0.0025445 0.00381477 0.0025651
v -0.0021639 0.00404062 0.00264974
v -0.00255158 0.00381268 0.00266927
v -0.00290401 0.00354367 0.00258463
v -0.00291382 0.00354787 0.0026888
v -0.00323666 0.00323896 0.00260416
v -0.00324628 0.00324739 0.00270834
v -0.0035395 0.00290407 0.0026237
v -0.00354565 0.00291355 0.00272787
v -0.00380959 0.00254241 0.00264323
v -0.00423969 0.00175248 0.00268229
v -0.00404396 0.00215741 0.00266276
v -0.00403883 0.00216235 0.00276693
v -0.00422972 0.00175356 0.00278646
v -0.0043938 0.00133104 0.00270182
v -0.00381032 0.00255044 0.0027474
v -0.00450338 0.000896508 0.00272135
v -0.00438153 0.00132832 0.00280599
v -0.00456213 0.000445629 0.00284505
v -0.00456688 0.000452632 0.00274088
v -0.00449282 0.000890919 0.00282552
v -0.00457958 2.2317e-06 0.00161459
v -0.00456747 -0.000452424 0.00152995
v -0.00458591 -3.66679e-06 0.00151041
v -0.00455629 -0.000448613 0.00163412
v -0.0045036 -0.00089615 0.00154948
v -0.00439351 -0.0013306 0.00156901
v -0.00449093 -0.000895335 0.00165365
v -0.00404337 -0.00215721 0.00160807
v -0.00423914 -0.00175211 0.00158854
v -0.00423581 -0.00175845 0.00169271
v -0.00438394 -0.00133344 0.00167318
v -0.00380911 -0.00254243 0.0016276
v -0.00404701 -0.00216586 0.00171224
v -0.00381799 -0.00255119 0.00173177
v -0.00353923 -0.00290432 0.00164713
v -0.00354978 -0.0029103 0.0017513
v -0.00323665 -0.0032394 0.00166666
v -0.00324571 -0.00324064 0.00177084
v -0.00290425 -0.00354422 0.0016862
v -0.00290977 -0.00354008 0.00179037
v -0.00254493 -0.0038153 0.00170573
v -0.00175711 -0.00424241 0.00174479
v -0.00216159 -0.00404919 0.00172526
v -0.00215819 -0.00403773 0.00182943
v -0.00133463 -0.00439206 0.00176432
v -0.00175052 -0.00423167 0.00184896
v -0.00254594 -0.00380649 0.0018099
v -0.00132689 -0.0043862 0.00186849
v -0.000452652 -0.00456014 0.00180338
v -0.000898309 -0.00449782 0.00178385
v -0.000891289 -0.00449916 0.00188802
v 0.00044871 -0.00455628 0.00184245
v -2.14858e-06 -0.00457948 0.00182291
v -1.01184e-07 -0.0045919 0.00192709
v -0.0004477 -0.00456844 0.00190755
v 0.000895431 -0.00449099 0.00186198
v 0.000447523 -0.00456821 0.00194662
v 0.00175849 -0.00423598 0.00190104
v 0.00133352 -0.00438408 0.00188151
v 0.00132687 -0.00438589 0.00198568
v 0.00175059 -0.00423146 0.00200521
v 0.00216585 -0.00404716 0.00192057
v 0.000891178 -0.00449884 0.00196615
v 0.0025511 -0.00381805 0.0019401
v 0.00215835 -0.00403765 0.00202474
v 0.00254616 -0.00380655 0.00204427
v 0.00291001 -0.00354027 0.0020638
v 0.00291016 -0.00354974 0.00195963
v 0.00324591 -0.00324091 0.00208334
v 0.00353998 -0.00290966 0.0019987
v 0.0032405 -0.00324562 0.00197916
v 0.00354986 -0.00291057 0.00210287
v 0.00381786 -0.00255134 0.0021224
v 0.00403777 -0.00215812 0.00203776
v 0.00380645 -0.00254583 0.00201823
v 0.00404671 -0.00216587 0.00214193
v 0.00423179 -0.00175048 0.00205729
v 0.00438635 -0.0013269 0.00207682
v 0.00423549 -0.00175836 0.00216146
v 0.0044908 -0.000895156 0.00220052
v 0.00456856 -0.000447791 0.00211588
v 0.00449932 -0.000891349 0.00209635
v 0.00438369 -0.00133329 0.00218099
v -0.00279106 0.00363773 0.000182293
v -0.00284679 0.0035827 8.13793e-05
v -0.00279106 0.00363773 7.80123e-05
v -0.00313119 0.00333729 9.76552e-05
v -0.00318958 0.00329925 0.00020508
v -0.00236179 0.00393546 0.000159506
v -0.00354157 0.00291082 0.000227866
v -0.00363744 0.00278415 0.000130207
v -0.00339536 0.00307053 0.000113931
v -0.00384805 0.00248393 0.000250653
v -0.00404784 0.00215947 0.000162759
v -0.00385556 0.00247989 0.000146483
v -0.00421243 0.00182462 0.000179035
v -0.00410599 0.00202503 0.00027344
v -0.00431234 0.00154061 0.000296226
v -0.00446406 0.00103714 0.000319013
v -0.0044515 0.00111877 0.000211586
v -0.00455811 0.000521092 0.0003418
v -0.00452469 0.000752179 0.000227862
v -0.0045674 0.00037991 0.000244138
v -0.00434744 0.00147709 0.00019531
v 0.000676548 0.00453786 2.27866e-05
v 0.000599557 0.00454573 0
v 0.0011899 0.00443506 6.89954e-20
v 0.000153381 0.00458065 4.55733e-05
v 7.05516e-07 0.0045851 0
v -0.000372515 0.00456462 6.83599e-05
v -0.000598158 0.00454592 0
v -0.00154428 0.00431618 1.62759e-05
v -0.00118677 0.00442885 0
v -0.00140417 0.00436072 0.000113933
v -0.000894058 0.00449092 9.11465e-05
v -0.00189091 0.00417349 3.25517e-05
v -0.00459144 -1.05863e-06 0.000364586
v -0.00458001 4.57192e-06 0.000260414
v -0.00254403 0.00380502 6.51035e-05
v -0.00222478 0.00400253 4.88276e-05
v -0.00189577 0.00417518 0.00013672
v 0.0045851 1.68511e-17 0.000989734
v 0.0045588 0.000452083 0.000904945
v 0.0045851 1.68511e-17 0.000885358
v 0.0045618 0.00044559 0.00100912
v 0.00449623 0.000898144 0.000924476
v 0.00456875 -0.000451724 0.000970055
v 0.00424192 0.00175802 0.000963539
v 0.00439069 0.00133496 0.000944008
v 0.00438143 0.00132845 0.00104818
v 0.00404982 0.00216289 0.00098307
v 0.00422977 0.00175374 0.00106771
v 0.00449258 0.000890968 0.00102865
v 0.00381653 0.00254618 0.0010026
v 0.00403902 0.00216256 0.00108724
v 0.00381061 0.00255062 0.00110677
v 0.00354559 0.00290511 0.00102213
v 0.00354595 0.00291364 0.0011263
v 0.00324058 0.00323691 0.00104166
v 0.00324648 0.00324732 0.00114584
v 0.00290508 0.00353883 0.0010612
v 0.00291384 0.00354763 0.00116537
v 0.00254265 0.00380812 0.00108073
v 0.00216372 0.00404037 0.00120443
v 0.00175131 0.00423772 0.00111979
v 0.00215687 0.004042 0.00110026
v 0.00255147 0.00381239 0.0011849
v 0.00132954 0.00439251 0.00113932
v 0.00175493 0.00423035 0.00122396
v 0.000895142 0.00450363 0.00115885
v 0.00132945 0.00438111 0.00124349
v 3.36433e-06 0.00458744 0.00119791
v 0.000451731 0.00456859 0.00117838
v 0.000445802 0.00456002 0.00128255
v 0.000891628 0.00449141 0.00126302
v -0.000445669 0.00456158 0.00121745
v -3.68045e-06 0.00458574 0.00130209
v -0.000896233 0.00450354 0.00134115
v -0.00132858 0.00438134 0.00125651
v -0.00089108 0.00449241 0.00123698
v -0.0013307 0.00439357 0.00136068
v -0.00175387 0.00422977 0.00127604
v -0.000452474 0.00456732 0.00132162
v -0.00216268 0.00403911 0.00129557
v -0.00175219 0.00423926 0.00138021
v -0.00254241 0.00380921 0.00141927
v -0.0025507 0.00381076 0.0013151
v -0.00215724 0.0040435 0.00139974
v -0.00290424 0.00353928 0.0014388
v -0.00291365 0.00354612 0.00133463
v -0.00323928 0.00323664 0.00145834
v -0.00324725 0.0032466 0.00135416
v -0.00354745 0.00291387 0.0013737
v -0.00354408 0.00290418 0.00147787
v -0.00381219 0.00255144 0.00139323
v -0.00423025 0.00175486 0.00143229
v -0.00404021 0.00216365 0.00141276
v -0.00404911 0.00216146 0.00151693
v -0.00381517 0.00254482 0.0014974
v -0.00438109 0.00132938 0.00145182
v -0.00424245 0.00175702 0.00153646
v -0.004498 0.000898325 0.00157552
v -0.00456017 0.000445781 0.00149088
v -0.00449148 0.000891578 0.00147135
v -0.00439221 0.00133459 0.00155599
v -0.0045603 0.000452708 0.00159505
v -0.00456947 -0.000448567 0.000384117
v -0.00448978 -0.000893166 0.000299476
v -0.00455595 -0.000446217 0.000279945
v -0.00450093 -0.000891824 0.000403649
v -0.00423374 -0.00175752 0.000338539
v -0.00438216 -0.00133177 0.000319008
v -0.00438803 -0.00132694 0.00042318
v -0.0042331 -0.00175003 0.000442711
v -0.00404521 -0.00216591 0.00035807
v -0.00381722 -0.00255244 0.000377601
v -0.00403844 -0.00215721 0.000462242
v -0.00353916 -0.00290829 0.000501305
v -0.00324734 -0.00324328 0.000416664
v -0.00355049 -0.00291266 0.000397133
v -0.00380636 -0.00254459 0.000481774
v -0.00323917 -0.00324442 0.000520836
v -0.00290869 -0.0035491 0.000540367
v -0.00254785 -0.0038079 0.000455726
v -0.00291176 -0.00354233 0.000436195
v -0.00255002 -0.00381844 0.000559899
v -0.00216555 -0.00404866 0.00057943
v -0.00175141 -0.00423096 0.000494789
v -0.0021597 -0.00403808 0.000475258
v -0.00175879 -0.00423786 0.000598961
v -0.00132707 -0.00438463 0.00051432
v -0.000890765 -0.00449716 0.000533851
v -0.00133422 -0.00438574 0.000618492
v 1.34511e-06 -0.0045912 0.000572914
v -0.000446596 -0.00456666 0.000553383
v -0.000449657 -0.00455647 0.000657555
v 0.000448972 -0.00456899 0.000592445
v 1.31692e-06 -0.0045788 0.000677086
v -0.000896337 -0.00449203 0.000638024
v 0.000892302 -0.00450032 0.000611976
v 0.000452076 -0.00455875 0.000696617
v 0.000898114 -0.00449606 0.000716149
v 0.00215767 -0.00403803 0.00067057
v 0.00175053 -0.00423256 0.000651039
v 0.001758 -0.00424172 0.000755211
v 0.00132745 -0.00438742 0.000631508
v 0.00133492 -0.00439047 0.00073568
v 0.00254497 -0.00380612 0.000690101
v 0.0021629 -0.00404972 0.000774742
v 0.00254618 -0.00381648 0.000794274
v 0.00290856 -0.00353911 0.000709633
v 0.00290508 -0.00354558 0.000813805
v 0.00323684 -0.00324058 0.000833336
v 0.00324456 -0.00323928 0.000729164
v 0.00354907 -0.00290892 0.000748695
v 0.00353871 -0.00290506 0.000852867
v 0.00381823 -0.00255031 0.000768226
v 0.00423741 -0.00175902 0.000807289
v 0.00404827 -0.00216582 0.000787758
v 0.00404182 -0.00215681 0.00089193
v 0.00380796 -0.00254261 0.000872399
v 0.0043853 -0.00133439 0.00082682
v 0.00423756 -0.00175124 0.000911461
v 0.00450365 -0.000895092 0.000950524
v 0.00455624 -0.00044973 0.000865883
v 0.00449168 -0.000896461 0.000846351
v 0.00439242 -0.00132947 0.000930992
v -0.00458595 -0.000112936 0.000369469
v 0.00330614 -0.00213312 -5.49901e-19
v 0.00360121 -0.00168817 -2.51032e-19
v -0.00458045 -0.000224813 0.000374352
v 0.00400671 -0.000697902 -5.59228e-19
v 0.00414958 0.000360406 -2.62206e-20
v 0.00411743 0.00089265 1.83006e-19
v 0.0041119 -0.00017344 -5.63212e-19
v 0.0038358 -0.00120606 -4.72782e-19
v 0.00401402 0.0014144 -2.98192e-19
v 0.0036058 0.00240168 -1.44043e-19
v 0.00331364 0.00285197 -5.73565e-19
v 0.00384138 0.00192019 2.93322e-19
v 0.00257919 0.00363845 -1.03469e-19
v 0.00168382 0.00422857 -1.5996e-19
v 0.00214877 0.00396114 -2.87846e-21
v 0.00296954 0.00326646 4.25486e-20
v -0.00386669 -0.00037876 0.00453564
v -0.00380937 -0.00075738 0.00455517
v -0.00371684 -0.00112906 0.0045747
v -0.00358992 -0.00149004 0.00459423
v -0.00342943 -0.0018366 0.00461376
v -0.00323618 -0.00216498 0.00463329
v -0.00301098 -0.00247144 0.00465282
v -0.00275493 -0.00275249 0.00467235
v -0.0024709 -0.00300612 0.00469189
v -0.00216246 -0.0032309 0.00471142
v -0.00183314 -0.0034254 0.00473095
v -0.00148651 -0.00358819 0.00475048
v -0.00112612 -0.00371786 0.00477001
v -0.00075552 -0.00381296 0.00478954
v -0.000378269 -0.00387208 0.00480907
v 2.0795e-06 -0.00389379 0.0048286
v 0.000381973 -0.00387665 0.00484814
v 0.000757906 -0.00381972 0.00486767
v 0.00112662 -0.00372438 0.0048872
v 0.00148495 -0.00359278 0.00490673
v 0.00182971 -0.00342707 0.00492626
v 0.00215773 -0.00322938 0.00494579
v 0.00246582 -0.00300185 0.00496532
v 0.00275082 -0.00274664 0.00498485
v 0.00300955 -0.00246587 0.00500439
v 0.00323883 -0.0021617 0.00502392
v 0.00343549 -0.00183625 0.00504345
v 0.00359685 -0.00149196 0.00506298
v 0.00372239 -0.00113236 0.00508251
v 0.00381207 -0.000761277 0.00510204
v 0.00386591 -0.000382541 0.00512157
v 0.00388388 1.77879e-08 0.0051411
v 0.00386597 0.00038257 0.00516064
v 0.00381219 0.000761288 0.00518017
v 0.00372252 0.00113234 0.0051997
v 0.00359695 0.0014919 0.00521923
v 0.00343548 0.00183614 0.00523876
v 0.00323872 0.00216155 0.00525829
v 0.0030094 0.00246576 0.00527782
v 0.00275068 0.00274659 0.00529735
v 0.00246572 0.00300189 0.00531689
v 0.00215769 0.00322951 0.00533642
v 0.00182974 0.00342728 0.00535595
v 0.00148506 0.00359304 0.00537548
v 0.00112679 0.00372463 0.00539501
v 0.000758095 0.0038199 0.00541454
v 0.000382148 0.00387669 0.00543407
v 2.20476e-06 0.00389368 0.0054536
v -0.000378216 0.0038719 0.00547314
v -0.000755549 0.00381276 0.00549267
v -0.00112623 0.00371767 0.0055122
v -0.00148669 0.00358804 0.00553173
v -0.00183338 0.0034253 0.00555126
v -0.00216271 0.00323084 0.00557079
v -0.00247114 0.0030061 0.00559032
v -0.00275509 0.00275247 0.00560985
v -0.00301101 0.00247138 0.00562939
v -0.00323609 0.00216488 0.00564892
v -0.00342928 0.00183652 0.00566845
v -0.00358974 0.00149002 0.00568798
v -0.00371666 0.00112911 0.00570751
v -0.00380921 0.000757526 0.00572704
v -0.00386657 0.000378996 0.00574657
v -0.00100961 -0.00381077 0.006
v -0.000494184 -0.00395335 0.006
v 3.72636e-05 -0.00402487 0.006
v 0.000575241 -0.00402705 0.006
v 0.00110818 -0.00396176 0.006
v 0.00162813 -0.00383067 0.006
v 0.00212703 -0.00363474 0.006
v 0.00259307 -0.00337657 0.006
v 0.00301957 -0.00305853 0.006
v 0.00340317 -0.00268632 0.006
v 0.00373822 -0.00226951 0.006
v 0.004022 -0.00181502 0.006
v 0.00425186 -0.00132855 0.006
v 0.00442327 -0.000819532 0.006
v 0.00453323 -0.000295014 0.006
v -0.00257743 0.00363321 -2.6371e-19
v -0.0041463 0.000364693 1.0677e-19
v -0.00411413 0.000899725 -3.09617e-19
v -0.00214629 0.00395353 -2.87218e-19
v -0.0041103 -0.000170317 -1.94265e-19
v -0.0033136 0.00285393 6.13421e-20
v -0.00401262 0.00142273 -3.19441e-19
v -0.00360648 0.00240648 -2.97513e-19
v -0.00384193 0.00192664 -1.00524e-19
v -0.00296905 0.00326428 -1.11297e-18
v -0.00360715 -0.00169165 4.22804e-19
v -0.00331227 -0.00213778 2.25653e-19
v -0.00168142 0.00422019 -5.69406e-19
v -0.00400771 -0.000697343 1.78559e-19
v -0.00383939 -0.00120831 -5.04824e-19
v -0.0038256 -0.000690171 0.00489456
v -0.000871998 -0.00378468 0.00512634
v 0.00212803 -0.00325231 0.00528681
v 0.00182958 -0.00343256 0.00526898
v -0.00120911 -0.00369174 0.00510851
v 0.00387096 0.000327785 0.00550077
v -0.00374593 -0.00103019 0.00491238
v -0.00387515 -0.000345124 0.00487673
v 0.000857392 -0.00379957 0.00521549
v 0.00350134 -0.00170174 0.00539379
v -0.00350042 -0.00168429 0.00494804
v 0.000515156 -0.0038587 0.00519766
v -0.000423388 0.00419175 0.006
v -0.00014755 0.00389228 0.00580387
v 0.000104782 0.00425463 0.006
v 0.00387172 -0.000369899 0.00546511
v 0.00241014 -0.0030464 0.00530464
v -0.00293264 -0.00255988 0.00500153
v -0.0024335 -0.00304159 0.00503719
v 0.00291685 -0.0025656 0.0053403
v -0.00314709 -0.00228571 0.0049837
v 0.00310326 0.00326766 0.006
v 0.00294949 0.00254413 0.00562558
v 0.00350127 0.00290811 0.006
v 0.00333274 -0.00200606 0.00537596
v 0.00266336 0.0035773 0.006
v 0.00218895 0.00383359 0.006
v 0.00216287 0.00322805 0.00567906
v 0.00168842 0.00403276 0.006
v 0.00186284 0.00340772 0.00569689
v -0.00185181 -0.00342107 0.00507285
v -0.00018047 -0.00388252 0.005162
v 0.000199203 0.00388832 0.00578604
v 0.000639167 0.00424674 0.006
v -0.00190188 0.00359494 0.006
v -0.00149458 0.00358601 0.00587519
v -0.00143559 0.00385705 0.006
v 0.00316499 0.00227195 0.00560775
v -0.000528169 -0.00384848 0.00514417
v 0.00119213 -0.00370816 0.00523332
v -0.00215171 -0.00324461 0.00505502
v 0.00351408 0.00167177 0.00557209
v 0.00244576 0.00302341 0.00566123
v 0.0038255 0.000674527 0.0055186
v 0.00116988 0.00417148 0.006
v 0.00122209 0.0036872 0.00573255
v 0.00375057 0.00101603 0.00553643
v 0.00374932 -0.00105397 0.00542945
v 0.00382613 -0.000715076 0.00544728
v -0.000939518 0.00405785 0.006
v -0.000492776 0.00386295 0.0058217
v 0.00313721 -0.00229468 0.00535813
v 0.000886689 0.00378455 0.00575038
v -0.00116873 0.00370836 0.00585736
v -0.0033367 -0.00199294 0.00496587
v 0.00335339 0.00198025 0.00558992
v -0.00239432 0.0030562 0.00592868
v -0.00233236 0.00327537 0.006
v -0.00271838 0.00290328 0.006
v -0.00290492 0.00258191 0.00596434
v -0.00305038 0.00248516 0.006
v -0.00363718 -0.00136247 0.00493021
v -0.00269442 -0.00281274 0.00501936
v -0.00153666 -0.00357033 0.00509068
v 0.000168254 -0.00388614 0.00517983
v 0.00151691 -0.00358517 0.00525115
v 0.00267378 -0.00281684 0.00532247
v 0.00364087 -0.0013837 0.00541162
v 0.00388651 -2.13177e-05 0.00548294
v 0.00364662 0.0013494 0.00555426
v 0.00270886 0.00279503 0.0056434
v 0.00154836 0.00356118 0.00571472
v 0.000544839 0.003852 0.00576821
v -0.000833984 0.00380116 0.00583953
v -0.00180909 0.00343556 0.00589302
v -0.00210982 0.00325847 0.00591085
v -0.00266017 0.00283019 0.00594651
v -0.00332136 0.00202434 0.006
v -0.00312613 0.00231281 0.00598217
v -0.0065 -0.00375278 0.006
v -4.44089e-18 -0.00750555 0.006
v -0.0065 0.00375278 0.006
v -0.00385329 0.000530609 0.006
v -0.00374488 0.0010513 0.006
v -0.00356646 0.00155233 0.006
v 1.11022e-18 0.00750555 0.006
v 0.0065 -0.00375278 0.006
v 0.0065 0.00375278 0.006
v 0.00388965 -9.5269e-19 0.00548402
v -4.44089e-18 -0.00750555 0
v 0.0065 -0.00375278 0
v -0.0065 -0.00375278 0
v -0.0065 0.00375278 0
v 1.11022e-18 0.00750555 0
v 0.0065 0.00375278 0
f 1 2 3
f 4 3 5
f 6 7 8
f 9 10 6
f 10 11 12
f 13 7 2
f 1 3 4
f 13 2 1
f 14 7 13
f 14 8 7
f 9 6 8
f 10 9 11
f 15 12 11
f 16 4 5
f 17 18 19
f 20 18 12
f 21 22 23
f 24 25 26
f 23 27 26
f 28 17 29
f 30 31 32
f 33 34 30
f 35 36 34
f 37 38 39
f 38 36 40
f 31 25 41
f 42 21 28
f 43 37 44
f 20 12 15
f 19 18 20
f 29 42 28
f 45 23 22
f 21 42 22
f 17 46 29
f 45 27 23
f 27 24 26
f 41 25 24
f 30 32 33
f 41 47 31
f 47 32 31
f 46 17 19
f 35 34 48
f 40 36 35
f 49 50 51
f 52 53 50
f 38 40 39
f 48 34 33
f 54 53 55
f 39 56 37
f 44 37 56
f 44 57 43
f 49 51 57
f 52 50 58
f 49 58 50
f 52 55 53
f 55 59 54
f 43 57 51
f 60 61 62
f 63 62 64
f 65 66 67
f 68 69 70
f 70 69 66
f 71 67 61
f 60 71 61
f 62 63 60
f 65 72 66
f 67 71 65
f 70 66 72
f 73 74 75
f 68 74 69
f 76 77 78
f 79 80 77
f 81 82 83
f 84 85 86
f 85 83 87
f 80 88 81
f 89 90 91
f 89 92 93
f 94 93 95
f 96 97 98
f 94 99 97
f 84 100 90
f 101 78 73
f 102 96 103
f 75 74 68
f 101 76 78
f 79 88 80
f 81 88 82
f 79 77 104
f 104 77 76
f 87 83 82
f 105 85 87
f 90 100 91
f 100 84 86
f 105 86 85
f 73 75 101
f 106 93 92
f 95 93 106
f 99 107 97
f 108 109 110
f 111 109 112
f 94 95 99
f 92 89 91
f 107 98 97
f 98 103 96
f 113 102 103
f 114 112 113
f 108 110 16
f 110 109 111
f 114 111 112
f 16 5 108
f 102 113 112
f 115 116 117
f 118 119 120
f 119 116 121
f 122 123 124
f 125 126 122
f 127 123 118
f 126 128 129
f 119 121 120
f 118 120 127
f 121 116 115
f 124 125 122
f 123 127 124
f 128 126 125
f 130 129 131
f 129 128 131
f 132 115 117
f 133 130 134
f 135 136 137
f 138 133 139
f 140 141 142
f 143 144 141
f 137 145 142
f 146 144 147
f 148 149 150
f 151 152 149
f 146 153 150
f 154 155 156
f 157 158 159
f 158 154 160
f 161 155 152
f 138 162 135
f 163 157 164
f 134 139 133
f 147 144 143
f 162 136 135
f 140 142 145
f 141 140 143
f 136 145 137
f 139 162 138
f 146 147 153
f 151 149 148
f 148 150 153
f 154 156 160
f 158 160 159
f 156 155 161
f 151 161 152
f 134 130 131
f 164 165 163
f 166 167 168
f 169 166 170
f 157 159 164
f 171 168 172
f 173 174 175
f 174 171 176
f 177 173 178
f 170 165 169
f 168 167 172
f 167 166 169
f 174 176 175
f 178 179 177
f 173 175 178
f 179 180 181
f 176 171 172
f 181 177 179
f 163 165 170
f 59 182 54
f 183 184 185
f 186 185 182
f 187 188 189
f 190 191 188
f 192 191 193
f 194 189 184
f 186 182 59
f 194 184 183
f 186 183 185
f 187 190 188
f 189 194 187
f 193 191 190
f 195 192 196
f 192 193 196
f 197 198 199
f 200 197 201
f 202 198 195
f 203 204 205
f 206 207 208
f 209 206 205
f 210 200 211
f 212 213 214
f 215 216 212
f 217 218 216
f 218 219 220
f 221 222 223
f 224 222 220
f 208 225 213
f 210 226 203
f 227 221 228
f 202 195 196
f 201 197 199
f 202 199 198
f 209 205 204
f 206 209 207
f 226 204 203
f 211 226 210
f 225 208 207
f 213 225 214
f 216 215 217
f 224 220 219
f 219 218 217
f 214 215 212
f 200 201 211
f 223 228 221
f 229 230 231
f 232 229 233
f 222 224 223
f 234 235 236
f 237 238 234
f 231 239 235
f 240 238 241
f 228 242 227
f 232 233 242
f 229 232 230
f 239 231 230
f 238 237 241
f 240 241 132
f 239 236 235
f 236 237 234
f 132 117 240
f 227 242 233
f 243 244 245
f 246 247 243
f 248 249 247
f 250 249 251
f 252 253 254
f 255 250 256
f 254 255 257
f 248 247 246
f 251 249 248
f 246 243 245
f 256 257 255
f 250 251 256
f 252 254 257
f 258 253 259
f 253 252 259
f 260 245 244
f 261 262 263
f 264 265 261
f 266 267 265
f 268 269 270
f 271 270 267
f 272 269 273
f 274 272 275
f 276 277 278
f 279 278 280
f 281 282 283
f 284 285 282
f 277 286 283
f 287 280 274
f 288 262 258
f 289 285 290
f 263 262 288
f 261 263 264
f 264 266 265
f 267 266 271
f 273 275 272
f 271 268 270
f 288 258 259
f 279 276 278
f 277 276 286
f 287 279 280
f 281 283 286
f 287 274 275
f 281 284 282
f 284 290 285
f 273 269 268
f 291 292 293
f 294 295 296
f 297 296 292
f 298 299 300
f 301 302 298
f 302 303 304
f 305 299 295
f 291 293 306
f 294 296 297
f 291 297 292
f 305 295 294
f 300 299 305
f 298 300 301
f 303 302 301
f 307 304 303
f 308 304 307
f 289 290 306
f 306 293 289
f 309 180 310
f 311 309 310
f 312 313 311
f 314 315 316
f 317 316 318
f 314 313 319
f 317 320 321
f 319 313 312
f 314 319 315
f 311 310 312
f 318 320 317
f 316 315 318
f 322 321 320
f 323 324 322
f 324 321 322
f 325 326 327
f 328 329 325
f 330 331 329
f 332 333 334
f 332 335 336
f 333 331 337
f 338 339 336
f 340 341 339
f 342 343 344
f 345 341 346
f 347 348 349
f 350 351 348
f 343 352 349
f 353 344 345
f 324 323 326
f 354 351 355
f 325 327 328
f 329 328 330
f 330 337 331
f 333 337 334
f 336 335 338
f 335 332 334
f 326 323 327
f 345 346 353
f 308 307 356
f 343 342 352
f 349 352 347
f 344 353 342
f 346 341 340
f 338 340 339
f 350 355 351
f 357 358 359
f 360 357 361
f 348 347 350
f 362 359 363
f 364 365 366
f 365 362 367
f 368 364 369
f 370 354 355
f 357 360 358
f 360 361 370
f 367 362 363
f 366 369 364
f 365 367 366
f 363 359 358
f 369 260 368
f 260 244 368
f 370 361 354
f 180 309 181
f 371 372 373
f 374 375 376
f 377 376 372
f 378 379 380
f 381 382 378
f 383 379 375
f 384 385 382
f 376 377 374
f 375 374 383
f 377 372 371
f 380 381 378
f 379 383 380
f 384 382 381
f 386 385 387
f 385 384 387
f 388 371 373
f 389 386 390
f 391 392 393
f 392 389 394
f 395 396 397
f 398 399 396
f 400 399 401
f 402 403 397
f 404 405 406
f 405 407 408
f 406 400 409
f 410 411 412
f 413 414 415
f 414 411 416
f 417 412 408
f 391 418 402
f 419 413 420
f 390 386 387
f 393 418 391
f 390 394 389
f 401 399 398
f 396 395 398
f 395 397 403
f 418 403 402
f 400 401 409
f 405 404 407
f 404 406 409
f 410 412 417
f 414 416 415
f 416 411 410
f 407 417 408
f 392 394 393
f 421 422 423
f 424 425 423
f 426 427 425
f 427 428 429
f 430 431 432
f 433 429 434
f 432 433 435
f 420 436 419
f 422 421 436
f 423 422 424
f 427 426 428
f 433 434 435
f 432 435 430
f 434 429 428
f 424 426 425
f 430 437 431
f 413 415 420
f 419 436 421
f 438 308 356
f 439 440 441
f 441 438 442
f 443 444 445
f 446 447 448
f 449 448 444
f 450 445 440
f 442 438 356
f 450 440 439
f 442 439 441
f 443 449 444
f 445 450 443
f 446 448 449
f 451 447 452
f 447 446 452
f 453 454 455
f 456 457 453
f 458 457 459
f 460 458 461
f 462 463 464
f 465 462 466
f 454 451 467
f 468 469 470
f 471 472 469
f 472 473 474
f 475 476 474
f 477 478 479
f 476 480 479
f 481 470 464
f 460 482 466
f 483 478 484
f 455 454 467
f 456 453 455
f 467 451 452
f 461 482 460
f 465 463 462
f 482 465 466
f 456 459 457
f 481 464 463
f 470 481 468
f 471 469 468
f 476 475 480
f 471 473 472
f 473 475 474
f 458 459 461
f 477 484 478
f 485 486 487
f 488 485 489
f 479 480 477
f 490 491 492
f 493 494 490
f 487 495 491
f 496 494 497
f 488 486 485
f 489 498 488
f 484 498 483
f 487 486 495
f 493 490 492
f 496 497 388
f 491 495 492
f 493 497 494
f 388 373 496
f 483 498 489
f 499 500 501
f 499 502 503
f 504 503 505
f 506 507 508
f 509 504 510
f 508 509 511
f 502 499 501
f 510 504 505
f 502 505 503
f 511 506 508
f 509 510 511
f 512 507 506
f 512 513 514
f 514 507 512
f 515 516 513
f 514 513 516
f 516 515 517
f 518 519 520
f 521 522 519
f 517 520 516
f 523 522 524
f 520 517 525
f 519 518 526
f 518 520 525
f 522 521 524
f 523 527 528
f 527 523 524
f 521 519 526
f 529 530 531
f 531 530 532
f 533 531 532
f 534 533 535
f 533 532 535
f 536 537 538
f 536 534 535
f 538 534 536
f 539 538 540
f 541 542 539
f 541 543 542
f 541 539 540
f 544 545 546
f 547 545 548
f 548 542 543
f 549 544 550
f 537 540 538
f 547 548 543
f 547 546 545
f 549 551 552
f 553 552 554
f 550 544 546
f 551 549 555
f 552 551 554
f 550 555 549
f 554 556 553
f 557 558 559
f 560 561 557
f 561 562 563
f 558 556 559
f 561 560 562
f 563 562 564
f 560 557 559
f 553 556 558
f 565 566 567
f 568 569 570
f 571 570 566
f 566 565 572
f 570 571 568
f 571 566 572
f 568 573 569
f 574 575 576
f 577 578 574
f 577 579 578
f 576 575 573
f 580 581 582
f 574 576 577
f 583 582 584
f 579 580 578
f 569 573 575
f 585 580 579
f 585 581 580
f 586 587 583
f 588 587 589
f 584 582 581
f 587 586 589
f 588 589 590
f 584 586 583
f 590 591 588
f 592 591 593
f 594 595 592
f 595 596 597
f 598 592 593
f 592 598 594
f 594 596 595
f 596 529 597
f 529 531 597
f 590 593 591
f 599 600 601
f 600 602 603
f 599 602 600
f 604 599 601
f 605 603 606
f 607 608 609
f 608 605 610
f 611 607 612
f 606 603 602
f 609 608 610
f 606 610 605
f 612 613 611
f 607 609 612
f 614 613 615
f 615 616 614
f 611 613 614
f 617 618 616
f 618 619 620
f 617 619 618
f 615 617 616
f 621 622 623
f 622 620 624
f 625 621 626
f 624 620 619
f 626 621 623
f 624 623 622
f 627 625 628
f 629 630 631
f 632 631 627
f 625 626 628
f 633 630 634
f 632 627 628
f 630 629 634
f 629 631 632
f 635 636 637
f 638 639 635
f 640 633 634
f 640 636 633
f 641 639 642
f 638 635 637
f 639 638 642
f 636 640 637
f 643 644 645
f 645 646 643
f 643 647 644
f 641 642 646
f 646 645 641
f 648 649 650
f 650 647 648
f 651 649 648
f 644 647 650
f 652 653 654
f 655 656 653
f 651 654 649
f 657 656 658
f 653 652 655
f 656 655 658
f 652 654 651
f 659 660 661
f 661 662 659
f 660 659 663
f 567 660 663
f 657 658 662
f 662 661 657
f 664 665 666
f 667 665 668
f 666 665 667
f 669 667 668
f 670 671 672
f 671 669 673
f 674 670 675
f 673 669 668
f 675 670 672
f 673 672 671
f 676 677 678
f 674 675 678
f 676 679 680
f 680 677 676
f 678 677 674
f 679 681 682
f 683 681 684
f 682 681 683
f 680 679 682
f 685 686 687
f 688 689 685
f 683 684 686
f 690 689 691
f 688 685 687
f 689 688 691
f 686 684 687
f 692 690 693
f 694 695 696
f 695 692 697
f 690 691 693
f 698 694 699
f 697 692 693
f 699 694 696
f 697 696 695
f 700 701 702
f 703 704 701
f 698 699 705
f 705 702 698
f 706 704 707
f 700 702 705
f 663 565 567
f 703 707 704
f 701 700 703
f 708 706 707
f 708 709 710
f 708 710 706
f 711 712 713
f 713 709 711
f 714 712 711
f 710 709 713
f 715 712 714
f 716 717 718
f 717 715 719
f 720 716 721
f 719 715 714
f 721 716 718
f 719 718 717
f 722 723 724
f 725 722 724
f 604 723 722
f 604 601 723
f 720 721 725
f 725 724 720
f 666 726 664
f 727 728 729
f 728 730 731
f 727 730 728
f 732 727 729
f 733 734 735
f 736 737 733
f 731 738 734
f 739 737 740
f 735 734 738
f 733 735 736
f 731 730 738
f 740 741 739
f 737 736 740
f 742 741 743
f 743 744 742
f 739 741 742
f 745 746 744
f 746 747 748
f 745 747 746
f 743 745 744
f 749 750 751
f 752 751 748
f 753 750 754
f 751 752 749
f 750 749 754
f 752 748 747
f 755 756 757
f 758 755 759
f 760 756 753
f 753 754 760
f 761 758 762
f 759 755 757
f 762 758 759
f 757 756 760
f 762 763 761
f 764 765 766
f 765 767 768
f 763 767 761
f 769 764 770
f 768 767 763
f 770 764 766
f 768 766 765
f 771 772 773
f 769 770 773
f 771 774 775
f 775 772 771
f 773 772 769
f 774 776 777
f 778 776 779
f 777 776 778
f 775 774 777
f 780 778 779
f 781 782 783
f 782 780 784
f 785 781 786
f 784 780 779
f 786 781 783
f 784 783 782
f 787 788 789
f 790 787 789
f 791 788 787
f 726 788 791
f 785 786 790
f 790 789 785
f 792 793 794
f 794 795 792
f 796 793 792
f 797 795 794
f 798 799 800
f 801 802 799
f 796 800 793
f 803 802 804
f 799 798 801
f 802 801 804
f 798 800 796
f 805 806 807
f 807 808 805
f 805 809 806
f 803 804 808
f 808 807 803
f 810 811 812
f 812 809 810
f 813 811 810
f 806 809 812
f 814 811 813
f 815 816 817
f 818 817 814
f 819 816 820
f 818 814 813
f 816 815 820
f 815 817 818
f 821 822 823
f 824 825 821
f 819 826 822
f 819 820 826
f 827 825 828
f 824 821 823
f 825 824 828
f 822 826 823
f 828 829 827
f 830 831 832
f 831 833 834
f 829 833 827
f 835 830 836
f 833 829 834
f 726 791 664
f 830 832 836
f 835 836 837
f 838 839 837
f 832 831 834
f 839 835 837
f 838 840 841
f 842 840 843
f 841 840 842
f 839 838 841
f 844 845 846
f 847 844 848
f 843 845 842
f 849 847 850
f 848 844 846
f 850 847 848
f 846 845 843
f 851 852 853
f 853 854 851
f 852 851 732
f 732 729 852
f 849 850 854
f 854 853 849
f 855 856 857
f 856 858 859
f 855 858 856
f 860 855 857
f 861 859 862
f 863 864 865
f 866 865 861
f 867 864 868
f 862 859 858
f 863 865 866
f 862 866 861
f 868 869 867
f 864 863 868
f 870 869 871
f 871 872 870
f 867 869 870
f 873 874 872
f 874 875 876
f 873 875 874
f 871 873 872
f 877 876 878
f 879 880 881
f 880 877 882
f 879 881 883
f 878 876 875
f 881 880 882
f 878 882 877
f 884 885 886
f 887 888 885
f 889 886 890
f 879 883 890
f 891 888 892
f 886 889 884
f 885 884 887
f 889 890 883
f 887 892 888
f 893 894 895
f 894 896 897
f 891 898 896
f 899 893 900
f 897 896 898
f 894 897 895
f 898 891 892
f 900 901 899
f 893 895 900
f 902 901 903
f 903 904 902
f 899 901 902
f 905 906 904
f 906 907 908
f 905 907 906
f 903 905 904
f 909 910 911
f 912 913 909
f 908 914 910
f 915 913 916
f 911 910 914
f 909 911 912
f 908 907 914
f 917 797 918
f 919 915 916
f 918 919 917
f 917 795 797
f 913 912 916
f 915 919 918
f 920 921 922
f 921 923 924
f 920 923 921
f 925 924 926
f 927 928 929
f 928 925 930
f 931 927 932
f 926 924 923
f 929 928 930
f 926 930 925
f 932 933 931
f 927 929 932
f 934 933 935
f 935 936 934
f 931 933 934
f 937 938 936
f 938 939 940
f 937 939 938
f 935 937 936
f 941 942 943
f 944 941 945
f 946 942 940
f 944 945 947
f 943 942 946
f 941 943 945
f 940 939 946
f 948 949 950
f 951 952 953
f 952 948 954
f 944 947 949
f 955 951 956
f 950 949 947
f 953 952 954
f 950 954 948
f 957 958 959
f 960 961 957
f 956 951 953
f 955 962 958
f 963 961 964
f 959 958 962
f 956 962 955
f 960 964 961
f 957 959 960
f 965 963 964
f 965 966 967
f 963 965 967
f 968 969 970
f 970 966 968
f 971 969 968
f 967 966 970
f 972 973 974
f 975 976 973
f 971 974 969
f 977 976 978
f 973 972 975
f 976 975 978
f 972 974 971
f 979 980 981
f 982 979 981
f 860 980 979
f 860 857 980
f 977 978 982
f 982 981 977
f 983 984 985
f 986 983 987
f 984 983 986
f 988 983 985
f 989 990 991
f 992 993 994
f 990 989 994
f 986 987 991
f 995 993 996
f 992 994 989
f 992 996 993
f 997 995 996
f 987 989 991
f 997 998 999
f 1000 1001 998
f 999 998 1001
f 1002 1001 1000
f 1003 997 999
f 997 1003 995
f 1004 1005 1006
f 1005 1004 1007
f 1007 1008 1005
f 1009 1010 1008
f 1011 1012 1013
f 1014 1012 1010
f 1007 1009 1008
f 1015 1011 1013
f 1014 1010 1009
f 1000 1016 1017
f 1002 1000 1017
f 988 1018 1019
f 1020 1015 1013
f 1019 1020 988
f 988 985 1018
f 1012 1014 1013
f 1020 1019 1015
f 1021 1022 1023
f 1022 1024 1025
f 1021 1024 1022
f 1026 1021 1023
f 1027 1028 1029
f 1030 1027 1031
f 1032 1028 1025
f 1033 1030 1034
f 1029 1028 1032
f 1027 1029 1031
f 1025 1024 1032
f 1034 1035 1033
f 1030 1031 1034
f 1036 1035 1037
f 1037 1038 1036
f 1033 1035 1036
f 1039 1040 1038
f 1040 1041 1042
f 1039 1041 1040
f 1037 1039 1038
f 1043 1044 1045
f 1046 1045 1042
f 1047 1044 1048
f 1043 1045 1046
f 1044 1043 1048
f 1042 1041 1046
f 1049 1047 1050
f 1051 1052 1053
f 1052 1049 1054
f 1047 1048 1050
f 1055 1051 1056
f 1054 1049 1050
f 1056 1051 1053
f 1054 1053 1052
f 1057 1058 1059
f 1060 1061 1058
f 1055 1056 1062
f 1062 1059 1055
f 1063 1061 1064
f 1058 1057 1060
f 1061 1060 1064
f 1057 1059 1062
f 1065 1066 1067
f 1063 1064 1067
f 1065 1068 1069
f 1069 1066 1065
f 1067 1066 1063
f 1068 1070 1071
f 1072 1070 1073
f 1071 1070 1072
f 1069 1068 1071
f 1074 1072 1073
f 1075 1076 1077
f 1076 1074 1078
f 1079 1075 1080
f 1078 1074 1073
f 1080 1075 1077
f 1078 1077 1076
f 1081 1082 1083
f 1084 1081 1083
f 1085 1082 1081
f 922 1082 1085
f 1079 1080 1084
f 1084 1083 1079
f 1086 1087 1088
f 1088 1016 1086
f 1089 1087 1086
f 1017 1016 1088
f 1090 1091 1092
f 1093 1094 1090
f 1087 1089 1091
f 1095 1094 1096
f 1093 1090 1092
f 1094 1093 1096
f 1091 1089 1092
f 1097 1098 1099
f 1099 1100 1097
f 1097 1101 1098
f 1095 1096 1100
f 1100 1099 1095
f 1102 1103 1104
f 1104 1101 1102
f 1105 1103 1102
f 1098 1101 1104
f 1106 1107 1108
f 1109 1110 1107
f 1105 1108 1103
f 1111 1110 1112
f 1107 1106 1109
f 1110 1109 1112
f 1106 1108 1105
f 1113 1114 1115
f 1116 1113 1117
f 1118 1114 1111
f 1111 1112 1118
f 1119 1116 1120
f 1117 1113 1115
f 1120 1116 1117
f 1115 1114 1118
f 1120 1121 1119
f 1122 1123 1124
f 1123 1125 1126
f 1121 1125 1119
f 1127 1122 1128
f 1125 1121 1126
f 922 1085 920
f 1128 1122 1124
f 1127 1128 1129
f 1124 1123 1126
f 1130 1129 1131
f 1130 1127 1129
f 1131 1132 1133
f 1134 1132 1135
f 1133 1132 1134
f 1130 1131 1133
f 1136 1134 1135
f 1137 1138 1139
f 1138 1136 1140
f 1141 1137 1142
f 1140 1136 1135
f 1142 1137 1139
f 1140 1139 1138
f 1143 1144 1145
f 1145 1146 1143
f 1144 1143 1026
f 1026 1023 1144
f 1141 1142 1146
f 1146 1145 1141
f 1147 1016 54
f 1148 93 94
f 1149 94 97
f 93 1148 89
f 1150 182 1086
f 1151 96 102
f 1152 112 109
f 1153 109 108
f 112 1154 102
f 96 1155 97
f 5 3 1156
f 2 7 1157
f 7 6 1158
f 1159 3 2
f 10 12 1160
f 18 17 1161
f 17 28 1006
f 1162 12 18
f 1163 6 10
f 1156 108 5
f 21 23 1007
f 26 25 1014
f 25 31 1013
f 1009 23 26
f 30 34 988
f 36 38 987
f 38 37 989
f 983 34 36
f 1020 31 30
f 43 51 996
f 50 53 998
f 53 54 1000
f 997 51 50
f 1147 54 1150
f 185 184 1089
f 184 189 1092
f 1086 182 185
f 992 37 43
f 1004 28 21
f 188 191 1096
f 192 195 1097
f 195 198 1101
f 1100 191 192
f 197 200 1105
f 210 203 1109
f 203 205 1112
f 1106 200 210
f 1102 198 197
f 206 208 1115
f 213 212 1120
f 212 216 1121
f 1117 208 213
f 218 220 1124
f 222 221 1129
f 221 227 1131
f 1128 220 222
f 1126 216 218
f 1118 205 206
f 233 229 1135
f 231 235 1139
f 235 234 1142
f 1140 229 231
f 238 240 1143
f 117 116 1021
f 116 119 1024
f 1021 240 117
f 1146 234 238
f 118 123 1029
f 122 126 1034
f 126 129 1035
f 1031 123 122
f 130 133 1039
f 133 138 1041
f 135 137 1043
f 137 142 1048
f 1046 138 135
f 1037 129 130
f 1032 119 118
f 1132 227 233
f 1093 189 188
f 141 144 1054
f 146 150 1056
f 150 149 1062
f 1053 144 146
f 152 155 1060
f 154 158 1067
f 158 157 1065
f 1064 155 154
f 1057 149 152
f 163 170 1070
f 166 168 1078
f 168 171 1077
f 1073 170 166
f 174 173 1084
f 177 181 1085
f 1081 173 177
f 1080 171 174
f 1068 157 163
f 1151 1155 96
f 311 923 309
f 313 926 311
f 102 1154 1151
f 1155 1149 97
f 1153 1152 109
f 309 920 181
f 141 1050 142
f 1154 112 1152
f 930 313 314
f 314 316 929
f 317 321 933
f 321 324 935
f 932 316 317
f 326 325 939
f 329 331 943
f 331 333 945
f 946 325 329
f 937 324 326
f 332 947 333
f 1149 1148 94
f 332 336 950
f 339 341 953
f 341 345 956
f 954 336 339
f 344 343 959
f 349 348 964
f 348 351 965
f 960 343 349
f 962 345 344
f 354 361 968
f 357 359 972
f 359 362 975
f 971 361 357
f 365 364 982
f 368 244 860
f 244 243 855
f 979 364 368
f 978 362 365
f 966 351 354
f 247 249 862
f 250 255 863
f 255 254 868
f 866 249 250
f 253 258 871
f 262 261 875
f 261 265 878
f 873 258 262
f 869 254 253
f 267 270 881
f 269 272 889
f 272 274 884
f 883 270 269
f 280 278 892
f 278 277 898
f 283 282 895
f 282 285 900
f 897 277 283
f 887 274 280
f 882 265 267
f 858 243 247
f 289 901 285
f 903 289 293
f 907 292 296
f 914 296 295
f 292 905 293
f 298 302 916
f 304 308 917
f 919 302 304
f 299 911 295
f 438 441 792
f 440 445 798
f 445 444 801
f 796 441 440
f 448 447 808
f 451 454 809
f 454 453 810
f 805 447 451
f 804 444 448
f 795 308 438
f 457 458 818
f 460 466 820
f 466 462 826
f 815 458 460
f 464 470 824
f 469 472 829
f 472 474 834
f 828 470 469
f 823 462 464
f 476 479 836
f 478 483 838
f 483 489 840
f 837 479 478
f 485 487 846
f 491 490 850
f 490 494 854
f 848 487 491
f 843 489 485
f 832 474 476
f 813 453 457
f 496 373 727
f 372 376 730
f 376 375 738
f 727 373 372
f 379 378 736
f 382 385 741
f 385 386 743
f 740 378 382
f 735 375 379
f 389 392 747
f 391 402 749
f 402 397 754
f 752 392 391
f 396 399 757
f 400 406 762
f 406 405 763
f 759 399 400
f 760 397 396
f 745 386 389
f 408 412 766
f 411 414 773
f 414 413 771
f 770 412 411
f 419 421 776
f 423 425 784
f 425 427 783
f 779 421 423
f 774 413 419
f 429 433 790
f 432 431 791
f 787 433 432
f 1164 1165 665
f 1165 1166 668
f 1167 1168 672
f 1168 1169 675
f 673 1166 1167
f 664 431 1164
f 786 427 429
f 768 405 408
f 851 494 496
f 1170 1171 676
f 1172 1173 681
f 1173 1174 684
f 679 1171 1172
f 1175 1176 688
f 1177 1178 693
f 1178 1179 697
f 691 1176 1177
f 687 1174 1175
f 1180 1181 699
f 1182 1183 700
f 1183 1184 703
f 705 1181 1182
f 1185 1186 708
f 1187 1188 711
f 1188 1189 714
f 709 1186 1187
f 707 1184 1185
f 696 1179 1180
f 1190 1191 718
f 1192 1193 725
f 1193 1194 722
f 721 1191 1192
f 1195 1196 599
f 1197 1198 606
f 1198 1199 610
f 602 1196 1197
f 604 1194 1195
f 1200 1201 612
f 1202 1203 615
f 1203 1204 617
f 613 1201 1202
f 1205 1206 624
f 1207 1208 626
f 1208 1209 628
f 623 1206 1207
f 619 1204 1205
f 609 1199 1200
f 719 1189 1190
f 1210 1211 629
f 1212 1213 640
f 1213 1214 637
f 634 1211 1212
f 1215 1216 642
f 1217 1218 643
f 1218 1219 647
f 646 1216 1217
f 638 1214 1215
f 1220 1221 651
f 1222 1223 655
f 1223 1224 658
f 652 1221 1222
f 1225 1226 659
f 500 499 565
f 663 1226 500
f 662 1224 1225
f 648 1219 1220
f 503 504 571
f 508 568 509
f 508 507 573
f 568 504 509
f 514 516 577
f 519 585 520
f 522 584 519
f 516 520 579
f 507 514 576
f 523 528 586
f 1227 589 528
f 1228 593 1227
f 586 522 523
f 1229 598 1228
f 594 1229 1230
f 532 1231 1232
f 529 1230 1231
f 1233 535 1232
f 499 503 572
f 1209 1210 632
f 1169 1170 678
f 298 912 299
f 1153 108 1156
f 1157 1159 2
f 1020 30 988
f 1157 7 1158
f 10 1160 1163
f 1162 18 1161
f 1004 1006 28
f 17 1006 1161
f 1160 12 1162
f 1004 21 1007
f 36 987 983
f 1163 1158 6
f 227 1132 1131
f 998 53 1000
f 996 992 43
f 1118 1112 205
f 1009 26 1014
f 989 37 992
f 1021 1026 240
f 1146 1142 234
f 1115 1118 206
f 1132 233 1135
f 1016 1000 54
f 23 1009 1007
f 1039 1037 130
f 1089 184 1092
f 1106 1105 200
f 1102 197 1105
f 1109 203 1112
f 182 1150 54
f 51 997 996
f 1092 189 1093
f 1089 1086 185
f 210 1109 1106
f 191 1100 1096
f 987 38 989
f 1032 1024 119
f 118 1029 1032
f 1021 116 1024
f 1128 1124 220
f 1128 222 1129
f 1129 221 1131
f 1041 138 1046
f 1143 240 1026
f 208 1117 1115
f 1124 1126 218
f 1039 133 1041
f 1013 1014 25
f 1093 188 1096
f 1043 1046 135
f 1077 171 1080
f 1084 1080 174
f 321 935 933
f 932 317 933
f 954 339 953
f 1060 1057 152
f 1057 1062 149
f 177 1085 1081
f 937 326 939
f 943 946 329
f 946 939 325
f 344 959 962
f 345 962 956
f 884 274 887
f 982 364 979
f 445 801 798
f 912 911 299
f 892 278 898
f 296 914 907
f 250 863 866
f 873 871 258
f 960 349 964
f 960 959 343
f 869 868 254
f 978 365 982
f 978 975 362
f 972 971 357
f 269 889 883
f 158 1065 1067
f 181 920 1085
f 975 972 359
f 142 1050 1048
f 868 863 255
f 368 860 979
f 262 875 873
f 154 1067 1064
f 157 1068 1065
f 923 920 309
f 155 1064 1060
f 956 953 341
f 935 324 937
f 173 1081 1084
f 293 905 903
f 280 892 887
f 441 796 792
f 295 911 914
f 801 444 804
f 289 903 901
f 907 905 292
f 912 298 916
f 796 440 798
f 897 898 277
f 884 889 272
f 792 795 438
f 253 871 869
f 1048 1043 137
f 448 808 804
f 229 1140 1135
f 805 808 447
f 1020 1013 31
f 50 998 997
f 983 988 34
f 1100 192 1097
f 212 1121 1120
f 141 1054 1050
f 238 1143 1146
f 1077 1078 168
f 150 1062 1056
f 198 1102 1101
f 1097 195 1101
f 1070 1068 163
f 1126 1121 216
f 1120 1117 213
f 1139 1140 231
f 1142 1139 235
f 1035 1034 126
f 1053 1054 144
f 1037 1035 129
f 1073 1070 170
f 1078 1073 166
f 1056 1053 146
f 1034 1031 122
f 923 311 926
f 930 314 929
f 348 965 964
f 945 943 331
f 968 966 354
f 858 247 862
f 332 950 947
f 244 855 860
f 878 875 261
f 897 283 895
f 916 302 919
f 882 267 881
f 900 285 901
f 308 795 917
f 930 926 313
f 947 945 333
f 929 316 932
f 968 361 971
f 966 965 351
f 950 336 954
f 862 249 866
f 882 878 265
f 881 270 883
f 900 895 282
f 919 304 917
f 858 855 243
f 1029 123 1031
f 451 809 805
f 487 848 846
f 846 843 485
f 754 397 760
f 738 375 735
f 747 745 389
f 757 399 759
f 479 837 836
f 823 464 824
f 392 752 747
f 760 396 757
f 771 413 774
f 770 411 773
f 770 766 412
f 774 419 776
f 478 838 837
f 735 379 736
f 470 828 824
f 776 421 779
f 432 791 787
f 703 700 1183
f 681 1173 684
f 684 1174 687
f 687 1175 688
f 664 1164 665
f 665 1165 668
f 673 668 1166
f 705 699 1181
f 703 1184 707
f 679 676 1171
f 433 787 790
f 1185 708 707
f 718 1191 721
f 823 826 462
f 843 840 489
f 738 730 376
f 826 820 466
f 838 483 840
f 829 828 469
f 491 850 848
f 752 391 749
f 736 378 740
f 402 754 749
f 414 771 773
f 679 1172 681
f 1176 691 688
f 709 708 1186
f 700 705 1182
f 664 791 431
f 400 762 759
f 815 460 820
f 727 372 730
f 1192 725 721
f 585 579 520
f 579 577 516
f 594 1230 596
f 590 589 1227
f 1231 532 530
f 1233 1234 537
f 590 1227 593
f 1224 662 658
f 612 1201 613
f 1195 599 604
f 637 1214 638
f 624 619 1205
f 642 638 1215
f 1211 634 629
f 1204 619 617
f 530 529 1231
f 659 662 1225
f 1235 1236 541
f 543 1237 547
f 546 1237 1238
f 543 1236 1237
f 1239 550 1238
f 1239 1240 555
f 1240 1241 551
f 1238 550 546
f 547 1237 546
f 1234 1235 540
f 604 722 1194
f 640 1213 637
f 655 1223 658
f 1222 655 652
f 623 624 1206
f 613 1202 615
f 617 615 1203
f 1212 640 634
f 646 642 1216
f 599 1196 602
f 576 514 577
f 508 573 568
f 543 541 1236
f 596 1230 529
f 540 1235 541
f 571 504 568
f 581 585 519
f 1229 594 598
f 537 1234 540
f 593 1228 598
f 573 507 576
f 663 659 1226
f 652 651 1221
f 1193 722 725
f 423 784 779
f 815 818 458
f 818 813 457
f 474 832 834
f 813 810 453
f 834 829 472
f 836 832 476
f 850 490 854
f 763 405 768
f 1180 699 696
f 1177 693 691
f 1167 672 673
f 385 743 741
f 727 732 496
f 427 786 783
f 496 732 851
f 854 494 851
f 745 743 386
f 741 740 382
f 763 762 406
f 766 768 408
f 790 786 429
f 675 672 1168
f 676 678 1170
f 697 693 1178
f 696 697 1179
f 678 675 1169
f 783 784 425
f 714 1189 719
f 626 623 1207
f 602 1197 606
f 714 711 1188
f 610 606 1198
f 719 1190 718
f 632 628 1209
f 522 586 584
f 1239 555 550
f 551 555 1240
f 646 1217 643
f 571 572 503
f 584 581 519
f 648 647 1219
f 663 500 565
f 609 610 1199
f 1187 711 709
f 609 1200 612
f 628 626 1208
f 632 1210 629
f 647 643 1218
f 572 565 499
f 648 1220 651
f 589 586 528
f 535 532 1232
f 536 535 1233
f 554 1241 556
f 537 536 1233
f 551 1241 554
f 454 810 809
f 1156 3 1159
f 1242 1018 985
f 1001 1002 1243
f 1243 1002 1017
f 1244 999 1001
f 1103 71 1104
f 1125 88 1119
f 1145 1144 103
f 1145 98 1141
f 87 1123 1122
f 1098 1104 63
f 1019 1245 1015
f 1246 1017 1088
f 990 1247 991
f 999 1248 1003
f 1249 994 993
f 1250 993 995
f 65 1103 1108
f 1248 995 1003
f 1251 986 991
f 1123 82 1125
f 1036 14 1033
f 1055 27 1051
f 11 1038 1040
f 1144 1023 113
f 1036 1038 8
f 1059 1058 41
f 24 1055 1059
f 107 1137 1141
f 1249 990 994
f 1018 1245 1019
f 1076 44 1074
f 927 187 928
f 49 1075 1079
f 952 951 225
f 949 948 209
f 193 931 934
f 973 976 239
f 861 120 859
f 865 127 861
f 879 145 880
f 890 886 143
f 879 890 140
f 124 865 864
f 969 974 232
f 931 190 927
f 207 948 952
f 204 944 949
f 1075 57 1076
f 973 230 974
f 928 194 925
f 969 242 970
f 1072 1074 56
f 856 859 121
f 904 164 902
f 797 179 918
f 159 899 902
f 797 794 180
f 310 794 793
f 899 160 893
f 877 880 136
f 1098 64 1099
f 1113 101 1114
f 75 1111 1114
f 1252 1090 1094
f 1095 1253 1094
f 1119 79 1116
f 1113 1116 76
f 984 986 1251
f 1011 1015 1254
f 1134 91 1133
f 1028 16 1025
f 1047 46 1044
f 1033 13 1030
f 1137 99 1138
f 22 1052 1051
f 4 1028 1027
f 1047 1049 29
f 1 1027 1030
f 15 1040 1042
f 1136 1138 95
f 1134 1136 106
f 1049 1052 42
f 1122 1127 105
f 1242 1245 1018
f 1251 1242 984
f 1242 985 984
f 991 1247 1251
f 1245 1254 1015
f 1247 990 1249
f 1244 1001 1243
f 999 1244 1248
f 1248 1250 995
f 1243 1017 1246
f 100 1130 1133
f 70 1107 1110
f 1061 1063 32
f 1044 19 1045
f 47 1058 1061
f 1111 68 1110
f 1107 72 1108
f 1088 1087 1255
f 1091 1255 1087
f 1127 1130 86
f 1095 1099 1253
f 1023 1022 114
f 1022 1025 110
f 1042 1045 20
f 1088 1255 1246
f 1091 1090 1256
f 33 1063 1066
f 993 1250 1249
f 1254 1012 1011
f 980 857 132
f 922 921 59
f 1066 1069 48
f 183 924 925
f 201 940 942
f 961 219 957
f 1069 1071 35
f 874 134 872
f 894 893 156
f 891 148 888
f 888 153 885
f 910 909 172
f 802 803 318
f 918 178 915
f 315 799 802
f 167 908 910
f 1072 39 1071
f 958 957 217
f 224 961 963
f 226 941 944
f 55 1082 922
f 223 963 967
f 202 936 938
f 934 936 196
f 977 236 976
f 942 941 211
f 215 955 958
f 214 951 955
f 921 924 186
f 938 940 199
f 1082 52 1083
f 876 877 162
f 241 981 980
f 175 913 915
f 896 894 161
f 908 169 906
f 799 319 800
f 872 131 870
f 876 139 874
f 870 128 867
f 125 864 867
f 121 857 856
f 909 913 176
f 165 904 906
f 312 793 800
f 891 896 151
f 807 320 803
f 886 885 147
f 977 981 237
f 322 807 806
f 1083 58 1079
f 970 228 967
f 812 323 806
f 811 814 328
f 330 814 817
f 831 830 352
f 852 369 853
f 342 833 831
f 746 288 744
f 748 263 746
f 765 276 767
f 785 300 781
f 281 764 769
f 852 729 260
f 764 286 765
f 751 264 748
f 789 788 303
f 301 785 789
f 245 729 728
f 830 835 347
f 677 446 674
f 694 481 695
f 467 680 682
f 677 680 452
f 674 449 670
f 471 698 702
f 698 468 694
f 692 695 463
f 327 812 811
f 717 486 715
f 608 383 605
f 492 716 720
f 630 633 409
f 627 631 398
f 381 607 611
f 654 653 424
f 566 570 1257
f 588 591 1258
f 538 1259 534
f 533 534 1260
f 649 654 422
f 712 715 488
f 603 377 600
f 380 608 607
f 401 631 630
f 374 603 605
f 495 717 716
f 625 627 395
f 587 588 1261
f 558 1262 553
f 1263 570 569
f 650 649 436
f 1264 567 566
f 1265 597 531
f 650 420 644
f 821 338 822
f 742 252 739
f 353 827 833
f 256 733 737
f 750 266 751
f 360 842 845
f 753 271 750
f 849 853 366
f 849 367 847
f 742 744 259
f 667 669 439
f 713 712 498
f 477 706 710
f 461 685 689
f 690 692 465
f 670 443 671
f 761 287 758
f 777 778 291
f 767 279 761
f 756 755 273
f 284 769 772
f 825 827 346
f 275 755 758
f 839 841 355
f 666 356 726
f 780 297 778
f 358 845 844
f 248 731 734
f 350 835 839
f 733 251 734
f 775 777 306
f 739 257 737
f 753 756 268
f 775 290 772
f 246 728 731
f 370 841 842
f 340 821 825
f 782 294 780
f 686 456 683
f 475 701 704
f 484 710 713
f 482 689 690
f 701 473 702
f 600 377 601
f 686 685 459
f 704 706 480
f 724 723 497
f 493 720 724
f 601 388 723
f 667 442 666
f 683 455 682
f 450 669 671
f 819 822 335
f 307 788 726
f 334 816 819
f 614 384 611
f 639 417 635
f 416 641 645
f 661 434 657
f 622 621 418
f 393 620 622
f 404 633 636
f 618 620 394
f 426 653 656
f 641 410 639
f 656 657 428
f 645 644 415
f 407 636 635
f 403 621 625
f 661 660 435
f 567 430 660
f 1266 545 544
f 575 1267 569
f 597 1268 595
f 1269 1270 1271
f 552 553 1272
f 538 539 1273
f 1274 578 580
f 1275 580 582
f 390 616 618
f 1276 539 542
f 574 578 1277
f 1278 1279 1280
f 1281 548 545
f 1282 1283 1284
f 1283 1285 1286
f 1287 583 587
f 592 595 1288
f 1271 1289 1290
f 1291 1292 1293
f 1294 564 1280
f 592 1295 591
f 1296 531 533
f 1297 582 583
f 561 563 1298
f 1299 1278 1282
f 558 557 1300
f 1301 1302 1285
f 557 561 1303
f 1304 544 549
f 1305 549 552
f 1306 1307 1269
f 1308 542 548
f 1301 1290 1309
f 1306 1293 1310
f 575 574 1311
f 614 616 387
f 563 564 1312
f 337 817 816
f 305 782 781
f 844 847 363
f 1256 1255 1091
f 1253 1252 1094
f 1099 64 1253
f 64 1098 63
f 63 1104 60
f 71 1103 65
f 65 1108 72
f 60 1104 71
f 1107 70 72
f 70 1110 68
f 75 1114 101
f 101 1113 76
f 68 1111 75
f 104 1116 79
f 88 1125 82
f 82 1123 87
f 79 1119 88
f 76 1116 104
f 1122 105 87
f 105 1127 86
f 100 1133 91
f 91 1134 92
f 86 1130 100
f 106 1136 95
f 99 1137 107
f 107 1141 98
f 95 1138 99
f 92 1134 106
f 103 1144 113
f 114 1022 111
f 111 1022 110
f 113 1023 114
f 16 1028 4
f 4 1027 1
f 13 1033 14
f 14 1036 8
f 1 1030 13
f 110 1025 16
f 98 1145 103
f 1038 9 8
f 9 1038 11
f 15 1042 20
f 20 1045 19
f 11 1040 15
f 46 1047 29
f 42 1052 22
f 22 1051 45
f 29 1049 42
f 19 1044 46
f 27 1055 24
f 41 1058 47
f 47 1061 32
f 24 1059 41
f 33 1066 48
f 48 1069 35
f 40 1071 39
f 39 1072 56
f 35 1071 40
f 32 1063 33
f 45 1051 27
f 44 1076 57
f 49 1079 58
f 58 1083 52
f 57 1075 49
f 55 922 59
f 59 921 186
f 186 924 183
f 52 1082 55
f 194 928 187
f 190 931 193
f 193 934 196
f 187 927 190
f 202 938 199
f 199 940 201
f 211 941 226
f 226 944 204
f 201 942 211
f 196 936 202
f 183 925 194
f 56 1074 44
f 949 209 204
f 209 948 207
f 225 951 214
f 214 955 215
f 207 952 225
f 217 957 219
f 224 963 223
f 223 967 228
f 219 961 224
f 215 958 217
f 242 969 232
f 230 973 239
f 239 976 236
f 232 974 230
f 237 981 241
f 132 857 115
f 115 857 121
f 241 980 132
f 236 977 237
f 228 970 242
f 120 861 127
f 124 864 125
f 125 867 128
f 127 865 124
f 131 872 134
f 139 876 162
f 162 877 136
f 134 874 139
f 128 870 131
f 145 879 140
f 143 886 147
f 147 885 153
f 140 890 143
f 148 891 151
f 151 896 161
f 156 893 160
f 160 899 159
f 161 894 156
f 153 888 148
f 136 880 145
f 121 859 120
f 164 904 165
f 169 908 167
f 167 910 172
f 165 906 169
f 176 913 175
f 178 918 179
f 179 797 180
f 175 915 178
f 172 909 176
f 180 794 310
f 312 800 319
f 319 799 315
f 310 793 312
f 318 803 320
f 320 807 322
f 323 812 327
f 327 811 328
f 322 806 323
f 315 802 318
f 330 817 337
f 334 819 335
f 335 822 338
f 337 816 334
f 340 825 346
f 353 833 342
f 342 831 352
f 346 827 353
f 338 821 340
f 347 835 350
f 355 841 370
f 370 842 360
f 350 839 355
f 358 844 363
f 363 847 367
f 366 853 369
f 852 260 369
f 367 849 366
f 360 845 358
f 352 830 347
f 328 814 330
f 159 902 164
f 729 245 260
f 246 731 248
f 251 733 256
f 256 737 257
f 248 734 251
f 252 742 259
f 288 746 263
f 263 748 264
f 259 744 288
f 257 739 252
f 266 750 271
f 268 756 273
f 273 755 275
f 271 753 268
f 287 761 279
f 276 765 286
f 286 764 281
f 279 767 276
f 275 758 287
f 264 751 266
f 284 772 290
f 306 777 291
f 291 778 297
f 290 775 306
f 294 782 305
f 300 785 301
f 301 789 303
f 305 781 300
f 297 780 294
f 307 726 356
f 356 666 442
f 442 667 439
f 450 671 443
f 443 670 449
f 446 677 452
f 452 680 467
f 449 674 446
f 439 669 450
f 303 788 307
f 281 769 284
f 455 683 456
f 459 685 461
f 461 689 482
f 456 686 459
f 465 692 463
f 481 694 468
f 468 698 471
f 463 695 481
f 482 690 465
f 473 701 475
f 1313 1314 1315
f 1316 1315 1317
f 480 475 704
f 473 471 702
f 480 706 477
f 477 710 484
f 498 712 488
f 488 715 486
f 484 713 498
f 486 717 495
f 455 467 682
f 495 716 492
f 493 724 497
f 497 723 388
f 492 720 493
f 371 601 377
f 374 605 383
f 383 608 380
f 377 603 374
f 388 601 371
f 381 611 384
f 387 616 390
f 390 618 394
f 384 614 387
f 393 622 418
f 418 621 403
f 395 627 398
f 398 631 401
f 403 625 395
f 394 620 393
f 380 607 381
f 401 630 409
f 246 245 728
f 409 633 404
f 407 635 417
f 417 639 410
f 404 636 407
f 416 645 415
f 420 650 436
f 436 649 422
f 415 644 420
f 410 641 416
f 424 653 426
f 428 657 434
f 434 661 435
f 426 656 428
f 430 567 437
f 1264 566 1257
f 1257 570 1263
f 437 567 1264
f 435 660 430
f 422 654 424
f 1318 569 1267
f 1311 574 1277
f 1277 578 1274
f 1267 575 1311
f 1319 580 1275
f 1297 583 1287
f 1287 587 1320
f 1275 582 1297
f 1274 580 1319
f 1261 588 1258
f 1295 592 1288
f 1288 595 1321
f 1258 591 1295
f 1268 597 1265
f 1265 531 1296
f 1322 533 1260
f 1260 534 1259
f 1296 533 1322
f 1321 595 1268
f 1320 587 1261
f 1263 569 1318
f 1273 539 1323
f 1276 542 1308
f 1308 548 1281
f 1323 539 1276
f 1266 544 1324
f 1304 549 1305
f 1305 552 1272
f 1324 544 1304
f 1281 545 1266
f 1325 553 1262
f 1300 557 1303
f 1303 561 1326
f 1262 558 1300
f 1298 563 1312
f 1312 564 1294
f 1279 1278 1327
f 1327 1278 1299
f 1294 1280 1279
f 1326 561 1298
f 1272 553 1325
f 1284 1283 1286
f 1328 1285 1302
f 1302 1301 1309
f 1286 1285 1328
f 1329 1290 1289
f 1270 1269 1307
f 1307 1306 1330
f 1289 1271 1270
f 1309 1290 1329
f 1310 1293 1292
f 1331 1291 1332
f 1291 1314 1332
f 1292 1291 1331
f 1315 1333 1313
f 1315 1316 1333
f 1317 1334 1335
f 1317 1335 1316
f 1314 1313 1332
f 1330 1306 1310
f 1299 1282 1284
f 1259 538 1273
f 1256 1090 1252
f 1336 525 517
f 525 1336 518
f 1336 517 515
f 512 506 1336
f 515 513 1336
f 512 1336 513
f 1336 506 511
f 1337 528 527
f 1337 1228 1227
f 1227 528 1337
f 526 518 1336
f 524 521 1336
f 526 1336 521
f 1337 527 524
f 524 1336 1337
f 501 1336 502
f 505 1336 510
f 1336 505 502
f 1338 501 1339
f 1338 1336 501
f 1339 1340 1338
f 1338 1340 1341
f 510 1336 511
f 1341 1334 1338
f 1317 1315 1338
f 1334 1317 1338
f 1314 1291 1338
f 1342 1291 1293
f 1338 1291 1342
f 1315 1314 1338
f 1342 1293 1306
f 1337 1230 1229
f 1230 1337 1231
f 1232 1231 1337
f 1234 1233 1337
f 1232 1337 1233
f 1337 1343 1234
f 1236 1235 1343
f 1237 1343 1238
f 1343 1237 1236
f 1235 1234 1343
f 1239 1238 1343
f 1241 1240 1343
f 1239 1343 1240
f 1343 556 1241
f 1301 1285 1342
f 1283 1282 1342
f 1285 1283 1342
f 1269 1342 1306
f 1342 1269 1271
f 1271 1290 1342
f 1342 1290 1301
f 1282 1344 1342
f 562 560 1344
f 559 556 1344
f 560 559 1344
f 1278 1280 1344
f 564 1344 1280
f 1344 564 562
f 1278 1344 1282
f 556 1343 1344
f 1229 1228 1337
f 1195 1262 1196
f 1197 1196 1300
f 1303 1198 1197
f 1198 1326 1199
f 1201 1200 1312
f 1199 1298 1200
f 1201 1312 1294
f 1300 1196 1262
f 1197 1300 1303
f 1195 1345 1262
f 1326 1298 1199
f 1198 1303 1326
f 1312 1200 1298
f 1203 1202 1279
f 1201 1294 1202
f 1325 1345 1195
f 1204 1299 1205
f 1286 1206 1205
f 1206 1328 1207
f 1164 431 437
f 1302 1208 1207
f 1309 1209 1208
f 1329 1210 1209
f 1212 1211 1270
f 1289 1211 1210
f 1310 1215 1214
f 1217 1216 1332
f 1215 1292 1216
f 1213 1330 1214
f 1307 1213 1212
f 1204 1203 1327
f 1218 1217 1313
f 1327 1299 1204
f 1205 1299 1284
f 1279 1327 1203
f 1286 1205 1284
f 1207 1328 1302
f 1286 1328 1206
f 1302 1309 1208
f 1329 1209 1309
f 1212 1270 1307
f 1329 1289 1210
f 1214 1330 1310
f 1310 1292 1215
f 1331 1216 1292
f 1307 1330 1213
f 1270 1211 1289
f 1279 1202 1294
f 1316 1220 1219
f 1334 1222 1221
f 1335 1221 1220
f 1341 1224 1223
f 1340 1225 1224
f 1226 1225 1339
f 1341 1223 1222
f 1332 1313 1217
f 1316 1219 1333
f 1218 1313 1333
f 1334 1221 1335
f 1220 1316 1335
f 1222 1334 1341
f 1341 1340 1224
f 1225 1340 1339
f 1339 501 1226
f 1216 1331 1332
f 1333 1219 1218
f 1164 1257 1165
f 1166 1165 1263
f 1318 1167 1166
f 1168 1311 1169
f 1170 1169 1277
f 1168 1167 1267
f 1170 1274 1171
f 1257 1164 1264
f 1263 1165 1257
f 1166 1263 1318
f 1267 1167 1318
f 1170 1277 1274
f 1171 1274 1319
f 1277 1169 1311
f 1267 1311 1168
f 1319 1172 1171
f 1275 1172 1319
f 1320 1175 1174
f 1297 1174 1173
f 1258 1177 1176
f 1295 1178 1177
f 1175 1261 1176
f 1179 1178 1288
f 1321 1180 1179
f 1182 1181 1265
f 1268 1181 1180
f 1259 1185 1184
f 1187 1186 1323
f 1185 1273 1186
f 1322 1184 1183
f 1183 1182 1296
f 1275 1173 1172
f 1188 1187 1276
f 1174 1297 1287
f 1174 1287 1320
f 1320 1261 1175
f 1258 1176 1261
f 1178 1295 1288
f 1258 1295 1177
f 1173 1275 1297
f 1268 1180 1321
f 1226 501 500
f 1183 1296 1322
f 1260 1259 1184
f 1322 1260 1184
f 1182 1265 1296
f 1265 1181 1268
f 1288 1321 1179
f 1323 1276 1187
f 1323 1186 1273
f 1190 1189 1281
f 1185 1259 1273
f 1191 1190 1266
f 1193 1192 1304
f 1192 1191 1324
f 1194 1193 1305
f 1308 1188 1276
f 1190 1281 1266
f 1281 1189 1308
f 1304 1192 1324
f 1305 1272 1194
f 1193 1304 1305
f 1324 1191 1266
f 1325 1195 1272
f 1195 1194 1272
f 1189 1188 1308
f 1164 437 1264
f 1346 1347 1343
f 1343 1337 1346
f 1348 1346 1337
f 1337 1336 1348
f 1349 1348 1336
f 1336 1338 1349
f 1350 1349 1338
f 1338 1342 1350
f 1351 1350 1342
f 1342 1344 1351
f 1347 1351 1344
f 1344 1343 1347
f 62 61 1348
f 67 1348 61
f 64 62 1348
f 1348 1256 1252
f 1348 1253 64
f 1253 1348 1252
f 1255 1256 1348
f 78 1346 73
f 74 73 1346
f 77 1346 78
f 1346 67 66
f 1346 69 74
f 69 1346 66
f 1348 67 1346
f 1348 1349 1243
f 1246 1348 1243
f 1248 1244 1349
f 1243 1349 1244
f 1349 1250 1248
f 1249 1250 1349
f 1255 1348 1246
f 1349 1247 1249
f 1349 1242 1251
f 1349 1251 1247
f 1350 1245 1349
f 1012 1254 1350
f 1254 1245 1350
f 1349 1245 1242
f 1010 1012 1350
f 80 1346 77
f 81 1346 80
f 85 1346 83
f 1347 84 90
f 84 1347 85
f 81 83 1346
f 1148 1347 89
f 90 89 1347
f 1149 1347 1148
f 1347 1149 1155
f 1347 1151 1154
f 1151 1347 1155
f 1154 1152 1347
f 85 1347 1346
f 1351 1162 1350
f 1350 1162 1161
f 1005 1008 1350
f 1010 1350 1008
f 1350 1006 1005
f 1161 1006 1350
f 1351 1160 1162
f 1351 1156 1159
f 1351 1152 1153
f 1351 1153 1156
f 1351 1158 1163
f 1158 1351 1157
f 1159 1157 1351
f 1160 1351 1163
f 1351 1347 1152
