v -0.014 0.0114997 0.0469997
v -0.0141193 0.0105938 0.0469997
v -0.0144689 0.00974971 0.0469997
v -0.0150251 0.00902483 0.0469997
v -0.01575 0.00846862 0.0469997
v -0.0165941 0.00811897 0.0469997
v -0.0175 0.00799971 0.0469997
v -0.0184059 0.00811897 0.0469997
v -0.01925 0.00846862 0.0469997
v -0.0199749 0.00902483 0.0469997
v -0.0205311 0.00974971 0.0469997
v -0.0208807 0.0105938 0.0469997
v -0.021 0.0114997 0.0469997
v -0.0208807 0.0124056 0.0469997
v -0.0205311 0.0132497 0.0469997
v -0.0199749 0.0139746 0.0469997
v -0.01925 0.0145308 0.0469997
v -0.0184059 0.0148804 0.0469997
v -0.0175 0.0149997 0.0469997
v -0.0165941 0.0148804 0.0469997
v -0.01575 0.0145308 0.0469997
v -0.0150251 0.0139746 0.0469997
v -0.0144689 0.0132497 0.0469997
v -0.0141193 0.0124056 0.0469997
v -0.014 0.0114997 0.0389997
v -0.0141193 0.0124056 0.0389997
v -0.0144689 0.0132497 0.0389997
v -0.0150251 0.0139746 0.0389997
v -0.01575 0.0145308 0.0389997
v -0.0165941 0.0148804 0.0389997
v -0.0175 0.0149997 0.0389997
v -0.0184059 0.0148804 0.0389997
v -0.01925 0.0145308 0.0389997
v -0.0199749 0.0139746 0.0389997
v -0.0205311 0.0132497 0.0389997
v -0.0208807 0.0124056 0.0389997
v -0.021 0.0114997 0.0389997
v -0.0208807 0.0105938 0.0389997
v -0.0205311 0.00974971 0.0389997
v -0.0199749 0.00902483 0.0389997
v -0.01925 0.00846862 0.0389997
v -0.0184059 0.00811897 0.0389997
v -0.0175 0.00799971 0.0389997
v -0.0165941 0.00811897 0.0389997
v -0.01575 0.00846862 0.0389997
v -0.0150251 0.00902483 0.0389997
v -0.0144689 0.00974971 0.0389997
v -0.0141193 0.0105938 0.0389997
v -0.02325 0.0114997 0.0319997
v -0.0230541 0.0129879 0.0319997
v -0.0224797 0.0143747 0.0319997
v -0.0215659 0.0155656 0.0319997
v -0.020375 0.0164793 0.0319997
v -0.0189882 0.0170538 0.0319997
v -0.0175 0.0172497 0.0319997
v -0.0160118 0.0170538 0.0319997
v -0.014625 0.0164793 0.0319997
v -0.0134341 0.0155656 0.0319997
v -0.0125203 0.0143747 0.0319997
v -0.0119459 0.0129879 0.0319997
v -0.01175 0.0114997 0.0319997
v -0.0119459 0.0100115 0.0319997
v -0.0125203 0.00862471 0.0319997
v -0.0134341 0.00743384 0.0319997
v -0.014625 0.00652006 0.0319997
v -0.0160118 0.00594563 0.0319997
v -0.0175 0.00574971 0.0319997
v -0.0189882 0.00594563 0.0319997
v -0.020375 0.00652006 0.0319997
v -0.0215659 0.00743384 0.0319997
v -0.0224797 0.00862471 0.0319997
v -0.0230541 0.0100115 0.0319997
v -0.00768505 0.0114997 0.0469997
v -0.0125925 0.00299971 0.0469997
v -0.0224075 0.00299971 0.0469997
v -0.0273149 0.0114997 0.0469997
v -0.0224075 0.0199997 0.0469997
v -0.0125925 0.0199997 0.0469997
v -0.0273149 0.0114997 0.0494997
v -0.0224075 0.0199997 0.0494997
v -0.0224075 0.00299971 0.0494997
v -0.0125925 0.00299971 0.0494997
v -0.02325 0.0114997 0.0389997
v -0.0230541 0.0129879 0.0389997
v -0.0224797 0.0143747 0.0389997
v -0.0215659 0.0155656 0.0389997
v -0.020375 0.0164793 0.0389997
v -0.0189882 0.0170538 0.0389997
v -0.0175 0.0172497 0.0389997
v -0.0160118 0.0170538 0.0389997
v -0.014625 0.0164793 0.0389997
v -0.0134341 0.0155656 0.0389997
v -0.0125203 0.0143747 0.0389997
v -0.0119459 0.0129879 0.0389997
v -0.01175 0.0114997 0.0389997
v -0.0119459 0.0100115 0.0389997
v -0.0125203 0.00862471 0.0389997
v -0.0134341 0.00743384 0.0389997
v -0.014625 0.00652006 0.0389997
v -0.0160118 0.00594563 0.0389997
v -0.0175 0.00574971 0.0389997
v -0.0189882 0.00594563 0.0389997
v -0.020375 0.00652006 0.0389997
v -0.0215659 0.00743384 0.0389997
v -0.0224797 0.00862471 0.0389997
v -0.0230541 0.0100115 0.0389997
v -0.0175 0.0164997 0.0494997
v -0.0187941 0.0163293 0.0494997
v -0.02 0.0158298 0.0494997
v -0.0210355 0.0150352 0.0494997
v -0.0218301 0.0139997 0.0494997
v -0.0223296 0.0127938 0.0494997
v -0.0225 0.0114997 0.0494997
v -0.0223296 0.0102056 0.0494997
v -0.0218301 0.00899971 0.0494997
v -0.0210355 0.00796417 0.0494997
v -0.02 0.00716958 0.0494997
v -0.0187941 0.00667008 0.0494997
v -0.0175 0.00649971 0.0494997
v -0.0162059 0.00667008 0.0494997
v -0.015 0.00716958 0.0494997
v -0.0139645 0.00796417 0.0494997
v -0.0131699 0.00899971 0.0494997
v -0.0126704 0.0102056 0.0494997
v -0.0125 0.0114997 0.0494997
v -0.0126704 0.0127938 0.0494997
v -0.0131699 0.0139997 0.0494997
v -0.0139645 0.0150352 0.0494997
v -0.015 0.0158298 0.0494997
v -0.0162059 0.0163293 0.0494997
v -0.0175 0.00649971 0.0514997
v -0.0187941 0.00667008 0.0514997
v -0.02 0.00716958 0.0514997
v -0.0210355 0.00796417 0.0514997
v -0.0218301 0.00899971 0.0514997
v -0.0223296 0.0102056 0.0514997
v -0.0225 0.0114997 0.0514997
v -0.0223296 0.0127938 0.0514997
v -0.0218301 0.0139997 0.0514997
v -0.0210355 0.0150352 0.0514997
v -0.02 0.0158298 0.0514997
v -0.0187941 0.0163293 0.0514997
v -0.0175 0.0164997 0.0514997
v -0.0162059 0.0163293 0.0514997
v -0.015 0.0158298 0.0514997
v -0.0139645 0.0150352 0.0514997
v -0.0131699 0.0139997 0.0514997
v -0.0126704 0.0127938 0.0514997
v -0.0125 0.0114997 0.0514997
v -0.0126704 0.0102056 0.0514997
v -0.0131699 0.00899971 0.0514997
v -0.0139645 0.00796417 0.0514997
v -0.015 0.00716958 0.0514997
v -0.0162059 0.00667008 0.0514997
v -0.00768505 0.0114997 0.0494997
v -0.0125925 0.0199997 0.0494997
v -0.02375 0.0114997 0.0569997
v -0.023537 0.00988209 0.0569997
v -0.0229127 0.00837471 0.0569997
v -0.0219194 0.00708029 0.0569997
v -0.020625 0.00608705 0.0569997
v -0.0191176 0.00546267 0.0569997
v -0.0175 0.00524971 0.0569997
v -0.0158824 0.00546267 0.0569997
v -0.014375 0.00608705 0.0569997
v -0.0130806 0.00708029 0.0569997
v -0.0120873 0.00837471 0.0569997
v -0.011463 0.00988209 0.0569997
v -0.01125 0.0114997 0.0569997
v -0.011463 0.0131173 0.0569997
v -0.0120873 0.0146247 0.0569997
v -0.0130806 0.0159191 0.0569997
v -0.014375 0.0169124 0.0569997
v -0.0158824 0.0175367 0.0569997
v -0.0175 0.0177497 0.0569997
v -0.0191176 0.0175367 0.0569997
v -0.020625 0.0169124 0.0569997
v -0.0219194 0.0159191 0.0569997
v -0.0229127 0.0146247 0.0569997
v -0.023537 0.0131173 0.0569997
v -0.0175 0.00549971 0.0569997
v -0.0190529 0.00570415 0.0569997
v -0.0205 0.00630355 0.0569997
v -0.0217426 0.00725707 0.0569997
v -0.0226961 0.00849971 0.0569997
v -0.0232955 0.00994679 0.0569997
v -0.0235 0.0114997 0.0569997
v -0.0232955 0.0130526 0.0569997
v -0.0226961 0.0144997 0.0569997
v -0.0217426 0.0157423 0.0569997
v -0.0205 0.0166959 0.0569997
v -0.0190529 0.0172953 0.0569997
v -0.0175 0.0174997 0.0569997
v -0.0159471 0.0172953 0.0569997
v -0.0145 0.0166959 0.0569997
v -0.0132574 0.0157423 0.0569997
v -0.0123038 0.0144997 0.0569997
v -0.0117044 0.0130526 0.0569997
v -0.0115 0.0114997 0.0569997
v -0.0117044 0.00994679 0.0569997
v -0.0123038 0.00849971 0.0569997
v -0.0132574 0.00725707 0.0569997
v -0.0145 0.00630355 0.0569997
v -0.0159471 0.00570415 0.0569997
v -0.0175 0.0154997 0.0634997
v -0.0164647 0.0153634 0.0634997
v -0.0155 0.0149638 0.0634997
v -0.0146716 0.0143281 0.0634997
v -0.0140359 0.0134997 0.0634997
v -0.0136363 0.012535 0.0634997
v -0.0135 0.0114997 0.0634997
v -0.0136363 0.0104644 0.0634997
v -0.0140359 0.00949971 0.0634997
v -0.0146716 0.00867128 0.0634997
v -0.0155 0.00803561 0.0634997
v -0.0164647 0.007636 0.0634997
v -0.0175 0.00749971 0.0634997
v -0.0185353 0.007636 0.0634997
v -0.0195 0.00803561 0.0634997
v -0.0203284 0.00867128 0.0634997
v -0.0209641 0.00949971 0.0634997
v -0.0213637 0.0104644 0.0634997
v -0.0215 0.0114997 0.0634997
v -0.0213637 0.012535 0.0634997
v -0.0209641 0.0134997 0.0634997
v -0.0203284 0.0143281 0.0634997
v -0.0195 0.0149638 0.0634997
v -0.0185353 0.0153634 0.0634997
v -0.0215 0.0114997 0.0629997
v -0.0213637 0.0104644 0.0629997
v -0.0209641 0.00949971 0.0629997
v -0.0203284 0.00867128 0.0629997
v -0.0195 0.00803561 0.0629997
v -0.0185353 0.007636 0.0629997
v -0.0175 0.00749971 0.0629997
v -0.0164647 0.007636 0.0629997
v -0.0155 0.00803561 0.0629997
v -0.0146716 0.00867128 0.0629997
v -0.0140359 0.00949971 0.0629997
v -0.0136363 0.0104644 0.0629997
v -0.0135 0.0114997 0.0629997
v -0.0136363 0.012535 0.0629997
v -0.0140359 0.0134997 0.0629997
v -0.0146716 0.0143281 0.0629997
v -0.0155 0.0149638 0.0629997
v -0.0164647 0.0153634 0.0629997
v -0.0175 0.0154997 0.0629997
v -0.0185353 0.0153634 0.0629997
v -0.0195 0.0149638 0.0629997
v -0.0203284 0.0143281 0.0629997
v -0.0209641 0.0134997 0.0629997
v -0.0213637 0.012535 0.0629997
v 0.0220564 0.00199971 0.0670561
v 0.0220564 0.00199971 0.0700561
v 0.014299 0.00199971 0.0700561
v 0.0127461 0.00199971 0.0698516
v 0.011299 0.00199971 0.0692522
v 0.0100564 0.00199971 0.0682987
v -0.00286396 0.00199971 0.0553784
v -0.00348528 0.00199971 0.0549016
v -0.00420882 0.00199971 0.0546019
v -0.00498528 0.00199971 0.0544997
v -0.0220076 0.00199971 0.0544997
v -0.0220076 0.00199971 0.0514997
v -0.00498528 0.00199971 0.0514997
v -0.00343237 0.00199971 0.0517041
v -0.00198528 0.00199971 0.0523035
v -0.00074264 0.00199971 0.0532571
v 0.0121777 0.00199971 0.0661774
v 0.012799 0.00199971 0.0666541
v 0.0135225 0.00199971 0.0669538
v 0.014299 0.00199971 0.0670561
v 0.0220564 0.0209997 0.0700561
v 0.014299 0.0209997 0.0700561
v -0.0275 0.00837008 0.0514997
v -0.0275 0.0146293 0.0514997
v -0.0273886 0.0147026 0.0514997
v -0.0272879 0.01479 0.0514997
v -0.0271998 0.01489 0.0514997
v -0.0228002 0.0206094 0.0514997
v -0.0226413 0.0207733 0.0514997
v -0.0224493 0.0208968 0.0514997
v -0.0222344 0.0209736 0.0514997
v -0.0220076 0.0209997 0.0514997
v -0.00498528 0.0209997 0.0514997
v -0.0222344 0.00202576 0.0514997
v -0.0224493 0.00210257 0.0514997
v -0.0226413 0.00222613 0.0514997
v -0.0228002 0.00239 0.0514997
v -0.0271998 0.00810942 0.0514997
v -0.0272879 0.00820944 0.0514997
v -0.0273886 0.00829684 0.0514997
v -0.00498528 0.0209997 0.0544997
v -0.0220076 0.0209997 0.0544997
v -0.0222344 0.0209736 0.0544997
v -0.0224493 0.0208968 0.0544997
v -0.0226413 0.0207733 0.0544997
v -0.0228002 0.0206094 0.0544997
v -0.0271998 0.01489 0.0544997
v -0.0272879 0.01479 0.0544997
v -0.0273886 0.0147026 0.0544997
v -0.0275 0.0146293 0.0544997
v -0.0275 0.00837008 0.0544997
v -0.0273886 0.00829684 0.0544997
v -0.0272879 0.00820944 0.0544997
v -0.0271998 0.00810942 0.0544997
v -0.0228002 0.00239 0.0544997
v -0.0226413 0.00222613 0.0544997
v -0.0224493 0.00210257 0.0544997
v -0.0222344 0.00202576 0.0544997
v -0.02375 0.0114997 0.0544997
v -0.023537 0.0131173 0.0544997
v -0.0229127 0.0146247 0.0544997
v -0.0219194 0.0159191 0.0544997
v -0.020625 0.0169124 0.0544997
v -0.0191176 0.0175367 0.0544997
v -0.0175 0.0177497 0.0544997
v -0.0158824 0.0175367 0.0544997
v -0.014375 0.0169124 0.0544997
v -0.0130806 0.0159191 0.0544997
v -0.0120873 0.0146247 0.0544997
v -0.011463 0.0131173 0.0544997
v -0.01125 0.0114997 0.0544997
v -0.011463 0.00988209 0.0544997
v -0.0120873 0.00837471 0.0544997
v -0.0130806 0.00708029 0.0544997
v -0.014375 0.00608705 0.0544997
v -0.0158824 0.00546267 0.0544997
v -0.0175 0.00524971 0.0544997
v -0.0191176 0.00546267 0.0544997
v -0.020625 0.00608705 0.0544997
v -0.0219194 0.00708029 0.0544997
v -0.0229127 0.00837471 0.0544997
v -0.023537 0.00988209 0.0544997
v 0.0220564 0.0209997 0.0670561
v 0.014299 0.0209997 0.0670561
v 0.0127461 0.0209997 0.0698516
v 0.011299 0.0209997 0.0692522
v 0.0100564 0.0209997 0.0682987
v -0.00286396 0.0209997 0.0553784
v -0.00348528 0.0209997 0.0549016
v -0.00420882 0.0209997 0.0546019
v -0.00348528 0.0114997 0.0549016
v -0.00420882 0.0114997 0.0546019
v -0.00343237 0.0209997 0.0517041
v -0.00198528 0.0209997 0.0523035
v -0.00074264 0.0209997 0.0532571
v 0.0121777 0.0209997 0.0661774
v 0.012799 0.0209997 0.0666541
v 0.0135225 0.0209997 0.0669538
v 0.012799 0.0114997 0.0666541
v 0.0135225 0.0114997 0.0669538
v -0.0279924 0.00849971 0.0544795
v -0.0279924 0.00849971 0.051459
v -0.027868 0.00849172 0.0514769
v -0.0277418 0.00846756 0.0514898
v -0.0276178 0.0084269 0.0514974
v -0.0276175 0.00842676 0.0544986
v -0.0277413 0.00846743 0.0544948
v -0.0305 0.00949971 0.0374997
v -0.0305 0.00924089 0.0375338
v -0.0305 0.00899971 0.0376337
v -0.0305 0.0087926 0.0377926
v -0.0305 0.00863368 0.0379997
v -0.0305 0.00853378 0.0382409
v -0.0305 0.00849971 0.0384997
v -0.0335 0.00849971 0.0384997
v -0.0335 0.00853378 0.0382409
v -0.0335 0.00863368 0.0379997
v -0.0335 0.0087926 0.0377926
v -0.0335 0.00899971 0.0376337
v -0.0335 0.00924089 0.0375338
v -0.0335 0.00949971 0.0374997
v -0.0305 0.0144997 0.0384997
v -0.0305 0.0144656 0.0382409
v -0.0305 0.0143657 0.0379997
v -0.0305 0.0142068 0.0377926
v -0.0305 0.0139997 0.0376337
v -0.0305 0.0137585 0.0375338
v -0.0305 0.0134997 0.0374997
v -0.0335 0.0134997 0.0374997
v -0.0335 0.0137585 0.0375338
v -0.0335 0.0139997 0.0376337
v -0.0335 0.0142068 0.0377926
v -0.0335 0.0143657 0.0379997
v -0.0335 0.0144656 0.0382409
v -0.0335 0.0144997 0.0384997
v -0.0294458 0.00849971 0.0541754
v -0.03078 0.00849971 0.0535238
v -0.0319133 0.00849971 0.0525645
v -0.0327764 0.00849971 0.0513563
v -0.0333163 0.00849971 0.0499731
v -0.0335 0.00849971 0.0484997
v -0.0305 0.00849971 0.0484997
v -0.030418 0.00849971 0.0491962
v -0.0301765 0.00849971 0.0498547
v -0.0297888 0.00849971 0.0504391
v -0.0292759 0.00849971 0.0509176
v -0.028666 0.00849971 0.0512638
v -0.0279924 0.0144997 0.0544795
v -0.0294458 0.0144997 0.0541754
v -0.03078 0.0144997 0.0535238
v -0.0319133 0.0144997 0.0525645
v -0.0327764 0.0144997 0.0513563
v -0.0333163 0.0144997 0.0499731
v -0.0335 0.0144997 0.0484997
v -0.0276175 0.0145726 0.0544986
v -0.0277413 0.014532 0.0544948
v -0.0305 0.0144997 0.0484997
v -0.030418 0.0144997 0.0491962
v -0.0301765 0.0144997 0.0498547
v -0.0297888 0.0144997 0.0504391
v -0.0292759 0.0144997 0.0509176
v -0.028666 0.0144997 0.0512638
v -0.0279924 0.0144997 0.051459
v -0.027868 0.0145077 0.0514769
v -0.0277418 0.0145318 0.0514898
v -0.0276178 0.0145725 0.0514974
v 0.0956835 -2.9e-07 0.0683061
v 0.0956835 -2.9e-07 0.0688061
v 0.0220564 -2.9e-07 0.0688061
v 0.0220564 -2.9e-07 0.0683061
v 0.0956851 6.203e-05 0.0694395
v 0.0956898 0.00024731 0.0700503
v 0.0956974 0.00054675 0.0706106
v 0.0957076 0.00095141 0.071104
v 0.0957201 0.00144373 0.0715081
v 0.0957341 0.00200406 0.0718079
v 0.0957493 0.00261478 0.0719934
v 0.095765 0.00324971 0.0720561
v 0.0220564 0.00324971 0.0720561
v 0.0220564 0.00240855 0.0719453
v 0.0220564 0.00162471 0.0716206
v 0.0220564 0.00095161 0.0711041
v 0.0220564 0.00043512 0.0704311
v 0.0220564 0.00011045 0.0696472
v 0.0773379 0.00011045 0.0696472
v 0.0589107 0.00011045 0.0696472
v 0.0404835 0.00011045 0.0696472
v 0.0773379 0.00043512 0.0704311
v 0.0589107 0.00043512 0.0704311
v 0.0404835 0.00043512 0.0704311
v 0.0773379 0.00095146 0.071104
v 0.0589107 0.00095151 0.0711041
v 0.0404835 0.00095156 0.0711041
v 0.0773379 0.00162471 0.0716206
v 0.0589107 0.00162471 0.0716206
v 0.0404835 0.00162471 0.0716206
v 0.0773379 0.00240855 0.0719453
v 0.0589107 0.00240855 0.0719453
v 0.0404835 0.00240855 0.0719453
v 0.0220564 0.00324971 0.0650561
v 0.095765 0.00324971 0.0650561
v 0.0957494 0.00261667 0.0651183
v 0.0957342 0.00200638 0.0653033
v 0.0957201 0.00144667 0.0656021
v 0.0957077 0.00095284 0.0660067
v 0.0956975 0.00055007 0.0664966
v 0.0956898 0.00024825 0.0670595
v 0.0956851 6.307e-05 0.0676675
v 0.0220564 0.00011045 0.0674649
v 0.0220564 0.00043512 0.0666811
v 0.0220564 0.00095161 0.066008
v 0.0220564 0.00162471 0.0654915
v 0.0220564 0.00240855 0.0651668
v 0.0773379 0.00240855 0.0651668
v 0.0589107 0.00240855 0.0651668
v 0.0404835 0.00240855 0.0651668
v 0.0773379 0.00162471 0.0654915
v 0.0589107 0.00162471 0.0654915
v 0.0404835 0.00162471 0.0654915
v 0.0773379 0.00095255 0.066007
v 0.0589107 0.00095223 0.0660073
v 0.0404835 0.00095192 0.0660077
v 0.0773379 0.00043512 0.0666811
v 0.0589107 0.00043512 0.0666811
v 0.0404835 0.00043512 0.0666811
v 0.0773379 0.00011045 0.0674649
v 0.0589107 0.00011045 0.0674649
v 0.0404835 0.00011045 0.0674649
v 0.0220564 0.0197497 0.0650561
v 0.095765 0.0197497 0.0650561
v 0.0967316 0.0156749 0.0650561
v 0.0970563 0.0114997 0.0650561
v 0.0967316 0.00732448 0.0650561
v 0.0220564 0.0229997 0.0683061
v 0.0956835 0.0229997 0.0683061
v 0.0956851 0.0229374 0.0676726
v 0.0956898 0.0227521 0.0670618
v 0.0956974 0.0224527 0.0665015
v 0.0957076 0.022048 0.0660082
v 0.0957201 0.0215557 0.065604
v 0.0957341 0.0209953 0.0653042
v 0.0957493 0.0203846 0.0651187
v 0.0220564 0.0205909 0.0651668
v 0.0220564 0.0213747 0.0654915
v 0.0220564 0.0220478 0.066008
v 0.0220564 0.0225643 0.0666811
v 0.0220564 0.022889 0.0674649
v 0.0773379 0.022889 0.0674649
v 0.0589107 0.022889 0.0674649
v 0.0404835 0.022889 0.0674649
v 0.0773379 0.0225643 0.0666811
v 0.0589107 0.0225643 0.0666811
v 0.0404835 0.0225643 0.0666811
v 0.0773379 0.0220479 0.0660081
v 0.0589107 0.0220479 0.0660081
v 0.0404835 0.0220479 0.066008
v 0.0773379 0.0213747 0.0654915
v 0.0589107 0.0213747 0.0654915
v 0.0404835 0.0213747 0.0654915
v 0.0773379 0.0205909 0.0651668
v 0.0589107 0.0205909 0.0651668
v 0.0404835 0.0205909 0.0651668
v 0.0220564 0.0229997 0.0688061
v 0.0956835 0.0229997 0.0688061
v 0.0220564 0.0197497 0.0720561
v 0.095765 0.0197497 0.0720561
v 0.0957494 0.0203827 0.0719938
v 0.0957342 0.020993 0.0718088
v 0.0957201 0.0215527 0.07151
v 0.0957077 0.0220466 0.0711054
v 0.0956975 0.0224493 0.0706155
v 0.0956898 0.0227512 0.0700527
v 0.0956851 0.0229363 0.0694446
v 0.0220564 0.022889 0.0696472
v 0.0220564 0.0225643 0.0704311
v 0.0220564 0.0220478 0.0711041
v 0.0220564 0.0213747 0.0716206
v 0.0220564 0.0205909 0.0719453
v 0.0773379 0.0205909 0.0719453
v 0.0589107 0.0205909 0.0719453
v 0.0404835 0.0205909 0.0719453
v 0.0773379 0.0213747 0.0716206
v 0.0589107 0.0213747 0.0716206
v 0.0404835 0.0213747 0.0716206
v 0.0773379 0.0220469 0.0711051
v 0.0589107 0.0220472 0.0711048
v 0.0404835 0.0220475 0.0711045
v 0.0773379 0.0225643 0.0704311
v 0.0589107 0.0225643 0.0704311
v 0.0404835 0.0225643 0.0704311
v 0.0773379 0.022889 0.0696472
v 0.0589107 0.022889 0.0696472
v 0.0404835 0.022889 0.0696472
v 0.0967316 0.00732448 0.0720561
v 0.0970563 0.0114997 0.0720561
v 0.0967316 0.0156749 0.0720561
v 0.096426 9.305e-05 0.0683061
v 0.0971223 0.00036727 0.0683061
v 0.0977291 0.0008053 0.0683061
v 0.0982086 0.00137988 0.0683061
v 0.0985309 0.00205526 0.0683061
v 0.0985309 0.00205526 0.0688061
v 0.0982086 0.00137988 0.0688061
v 0.0977291 0.0008053 0.0688061
v 0.0971223 0.00036727 0.0688061
v 0.096426 9.305e-05 0.0688061
v 0.0985309 0.0209441 0.0688061
v 0.0985309 0.0209441 0.0683061
v 0.0982086 0.0216195 0.0683061
v 0.0977291 0.0221941 0.0683061
v 0.0971223 0.0226322 0.0683061
v 0.096426 0.0229064 0.0683061
v 0.096426 0.0229064 0.0688061
v 0.0971223 0.0226322 0.0688061
v 0.0977291 0.0221941 0.0688061
v 0.0982086 0.0216195 0.0688061
v 0.0986216 0.00233304 0.0680561
v 0.0996955 0.00686057 0.0680561
v 0.100056 0.0114997 0.0680561
v 0.0996955 0.0161388 0.0680561
v 0.0986216 0.0206664 0.0680561
v 0.0986052 0.0207171 0.0680602
v 0.0985892 0.0207667 0.0680727
v 0.0985741 0.020813 0.0680934
v 0.0985603 0.0208553 0.0681226
v 0.0985458 0.0208992 0.0681697
v 0.0985401 0.0209164 0.0681972
v 0.0985357 0.0209298 0.0682269
v 0.0985321 0.0209405 0.0682657
v 0.098532 0.0209411 0.0688432
v 0.0985349 0.0209321 0.0688789
v 0.0985394 0.0209188 0.0689105
v 0.0985452 0.020901 0.0689398
v 0.0985603 0.0208551 0.0689896
v 0.0985734 0.020815 0.0690176
v 0.0985878 0.0207711 0.0690379
v 0.0986045 0.0207194 0.0690516
v 0.0986216 0.0206664 0.0690561
v 0.0996955 0.0161388 0.0690561
v 0.100056 0.0114997 0.0690561
v 0.0996955 0.00686057 0.0690561
v 0.0986216 0.00233304 0.0690561
v 0.0986052 0.00228228 0.0690519
v 0.0985892 0.00223271 0.0690394
v 0.0985741 0.00218638 0.0690187
v 0.0985603 0.00214412 0.0689895
v 0.0985458 0.00210024 0.0689424
v 0.0985401 0.00208299 0.0689149
v 0.0985357 0.00206958 0.0688852
v 0.0985321 0.0020589 0.0688464
v 0.098532 0.00205836 0.0682689
v 0.0985349 0.00206731 0.0682332
v 0.0985394 0.00208067 0.0682016
v 0.0985452 0.0020984 0.0681723
v 0.0985603 0.00214428 0.0681225
v 0.0985734 0.00218438 0.0680945
v 0.0985878 0.00222833 0.0680742
v 0.0986045 0.00227997 0.0680605
v 0.0965044 0.00301246 0.0651583
v 0.0971933 0.00279137 0.065458
v 0.0977849 0.00260153 0.0659347
v 0.0982389 0.00245585 0.0665561
v 0.0985242 0.00236428 0.0672796
v 0.0981256 0.0012793 0.0679953
v 0.0965909 0.00022582 0.0675776
v 0.0962625 0.00265481 0.0651554
v 0.0983652 0.00166345 0.0681192
v 0.0983852 0.00172774 0.0679441
v 0.0984168 0.00183003 0.0677891
v 0.0984585 0.00196595 0.0676614
v 0.0984847 0.00205196 0.0676058
v 0.098513 0.00214571 0.0675612
v 0.0985428 0.00224449 0.0675292
v 0.0981531 0.00138197 0.0677027
v 0.0981969 0.00154628 0.0674414
v 0.0982553 0.00176649 0.0672229
v 0.0982923 0.00190693 0.0671262
v 0.0983329 0.00206098 0.0670471
v 0.0983758 0.00222438 0.0669887
v 0.0974498 0.0006291 0.0677615
v 0.0974802 0.00081019 0.0672489
v 0.0975291 0.00110005 0.0667912
v 0.0975947 0.00148855 0.0664085
v 0.0976368 0.00173633 0.0662393
v 0.0976831 0.0020081 0.066101
v 0.0977324 0.00229636 0.065999
v 0.0981033 0.00224089 0.0664675
v 0.0980538 0.00201314 0.0665504
v 0.0980071 0.00179879 0.0666619
v 0.0979647 0.00160367 0.0667977
v 0.0978982 0.00129835 0.0671034
v 0.0978487 0.00107101 0.0674675
v 0.0978178 0.00092918 0.0678744
v 0.0970352 0.00039198 0.0676614
v 0.0970619 0.0006115 0.0670563
v 0.0971046 0.00096154 0.0665197
v 0.0971621 0.00142809 0.0660757
v 0.0971989 0.00172409 0.0658819
v 0.0972393 0.00204735 0.0657257
v 0.0972824 0.00238861 0.0656129
v 0.0961355 0.00013287 0.0675124
v 0.0961497 0.00042221 0.066776
v 0.0961723 0.0008774 0.0661382
v 0.096202 0.00147227 0.0656315
v 0.0962208 0.00184273 0.065421
v 0.0962411 0.00224114 0.0652606
v 0.0967817 0.00251121 0.0653293
v 0.0967488 0.00212751 0.065443
v 0.0967178 0.00176141 0.0656066
v 0.0966895 0.00142392 0.0658143
v 0.096645 0.00088765 0.0663
v 0.0966118 0.00048183 0.0668973
v 0.0965044 0.019987 0.0651583
v 0.0971933 0.020208 0.065458
v 0.0977849 0.0203979 0.0659347
v 0.0982389 0.0205436 0.0665561
v 0.0985242 0.0206351 0.0672796
v 0.0974987 0.00720441 0.0651583
v 0.0982135 0.00709253 0.065458
v 0.0988274 0.00699645 0.0659347
v 0.0992984 0.00692272 0.0665561
v 0.0995945 0.00687638 0.0672796
v 0.0978328 0.0114997 0.0651583
v 0.0985563 0.0114997 0.065458
v 0.0991777 0.0114997 0.0659347
v 0.0996544 0.0114997 0.0665561
v 0.0999541 0.0114997 0.0672796
v 0.0974987 0.015795 0.0651583
v 0.0982135 0.0159069 0.065458
v 0.0988274 0.016003 0.0659347
v 0.0992984 0.0160767 0.0665561
v 0.0995945 0.016123 0.0672796
v 0.0983625 0.0213449 0.0681618
v 0.0981218 0.0217344 0.0680662
v 0.096588 0.0228093 0.0677436
v 0.0961335 0.022907 0.067693
v 0.098541 0.0207611 0.0675308
v 0.0985094 0.0208658 0.0675662
v 0.0984797 0.0209636 0.0676151
v 0.0984525 0.0210531 0.0676764
v 0.0984278 0.0211336 0.0677494
v 0.0984064 0.021203 0.067832
v 0.0983885 0.0212612 0.0679238
v 0.0983745 0.0213061 0.0680221
v 0.0983731 0.0207852 0.0669916
v 0.0983277 0.0209584 0.067056
v 0.0982854 0.021119 0.0671424
v 0.0982468 0.0212649 0.0672488
v 0.0982122 0.0213953 0.0673738
v 0.0981825 0.0215073 0.067514
v 0.0981576 0.0216006 0.0676686
v 0.0981384 0.0216724 0.0678332
v 0.0981002 0.0207727 0.0664716
v 0.0980477 0.021014 0.066563
v 0.0979991 0.0212375 0.0666848
v 0.097955 0.0214401 0.0668341
v 0.0979156 0.021621 0.067009
v 0.0978819 0.0217761 0.0672046
v 0.0978538 0.0219051 0.0674201
v 0.0978321 0.0220044 0.0676491
v 0.0978135 0.0220899 0.067973
v 0.0972797 0.020632 0.0656184
v 0.0972341 0.0209938 0.0657431
v 0.0971919 0.0213311 0.0659143
v 0.0971538 0.0216389 0.0661281
v 0.0971197 0.0219152 0.0663818
v 0.0970905 0.0221531 0.0666683
v 0.0970662 0.0223519 0.0669862
v 0.0970476 0.0225054 0.0673259
v 0.0970315 0.022638 0.0678085
v 0.0974456 0.0223955 0.0678859
v 0.0974639 0.0222862 0.0674776
v 0.0974852 0.0221595 0.0671893
v 0.0975129 0.021995 0.0669183
v 0.0975463 0.0217974 0.0666728
v 0.0975852 0.0215673 0.066454
v 0.0976289 0.0213099 0.0662677
v 0.0976771 0.0210265 0.0661166
v 0.0977294 0.020721 0.0660041
v 0.0967797 0.020512 0.0653347
v 0.0967448 0.020919 0.0654611
v 0.0967125 0.0213014 0.065641
v 0.0966831 0.0216528 0.065871
v 0.0966567 0.0219702 0.066148
v 0.0966341 0.022245 0.0664646
v 0.0966152 0.0224757 0.0668188
v 0.0966006 0.0226544 0.0671997
v 0.0962611 0.0203701 0.0651602
v 0.0962385 0.0208094 0.0652779
v 0.0962172 0.0212261 0.0654555
v 0.0961977 0.0216124 0.0656898
v 0.0961801 0.0219642 0.0659782
v 0.0961649 0.022271 0.0663128
v 0.096152 0.0225301 0.0666916
v 0.0961421 0.0227317 0.0671025
v 0.0985242 0.00236428 0.0698325
v 0.0982389 0.00245585 0.0705561
v 0.0977849 0.00260153 0.0711774
v 0.0971933 0.00279137 0.0716541
v 0.0965044 0.00301246 0.0719538
v 0.0983625 0.0016545 0.0689503
v 0.0981218 0.00126504 0.0690459
v 0.096588 0.00019011 0.0693685
v 0.0961335 9.237e-05 0.0694191
v 0.0961421 0.00026774 0.0700096
v 0.096152 0.00046933 0.0704205
v 0.0961649 0.00072837 0.0707993
v 0.0961801 0.00103518 0.071134
v 0.0961977 0.00138698 0.0714223
v 0.0962172 0.00177334 0.0716566
v 0.0962385 0.00219004 0.0718342
v 0.0962611 0.00262928 0.0719519
v 0.0966006 0.00034496 0.0699124
v 0.0966152 0.00052366 0.0702933
v 0.0966341 0.00075436 0.0706476
v 0.0966567 0.00102922 0.0709641
v 0.0966831 0.00134661 0.0712411
v 0.0967125 0.00169798 0.0714711
v 0.0967448 0.00208038 0.071651
v 0.0967797 0.00248742 0.0717774
v 0.0974456 0.00060395 0.0692262
v 0.0974639 0.00071321 0.0696345
v 0.0974852 0.0008399 0.0699228
v 0.0975129 0.00100446 0.0701938
v 0.0975463 0.001202 0.0704393
v 0.0975852 0.00143215 0.0706581
v 0.0976289 0.00168956 0.0708444
v 0.0976771 0.00197294 0.0709955
v 0.0977294 0.00227838 0.071108
v 0.0972797 0.00236738 0.0714937
v 0.0972341 0.00200561 0.071369
v 0.0971919 0.00166831 0.0711978
v 0.0971538 0.00136054 0.070984
v 0.0971197 0.00108426 0.0707303
v 0.0970905 0.00084629 0.0704438
v 0.0970662 0.00064746 0.0701259
v 0.0970476 0.00049402 0.0697862
v 0.0970315 0.00036144 0.0693036
v 0.0978135 0.00090949 0.0691391
v 0.0978321 0.00099503 0.069463
v 0.0978538 0.0010943 0.069692
v 0.0978819 0.00122334 0.0699075
v 0.0979156 0.0013784 0.0701031
v 0.097955 0.0015593 0.070278
v 0.0979991 0.00176194 0.0704274
v 0.0980477 0.00198539 0.0705491
v 0.0981002 0.00222668 0.0706405
v 0.0983745 0.00169335 0.06909
v 0.0983885 0.00173826 0.0691883
v 0.0984064 0.00179638 0.0692801
v 0.0984278 0.00186582 0.0693627
v 0.0984525 0.0019463 0.0694357
v 0.0984797 0.00203576 0.069497
v 0.0985094 0.00213362 0.0695459
v 0.098541 0.00223835 0.0695813
v 0.0983731 0.00221419 0.0701205
v 0.0983277 0.00204105 0.0700561
v 0.0982854 0.00188042 0.0699697
v 0.0982468 0.00173452 0.0698633
v 0.0982122 0.00160407 0.0697383
v 0.0981825 0.0014921 0.0695981
v 0.0981576 0.00139882 0.0694435
v 0.0981384 0.00132699 0.0692789
v 0.0985242 0.0206351 0.0698325
v 0.0982389 0.0205436 0.0705561
v 0.0977849 0.0203979 0.0711774
v 0.0971933 0.020208 0.0716541
v 0.0965044 0.019987 0.0719538
v 0.0995945 0.00687638 0.0698325
v 0.0992984 0.00692272 0.0705561
v 0.0988274 0.00699645 0.0711774
v 0.0982135 0.00709253 0.0716541
v 0.0974987 0.00720441 0.0719538
v 0.0999541 0.0114997 0.0698325
v 0.0996544 0.0114997 0.0705561
v 0.0991777 0.0114997 0.0711774
v 0.0985563 0.0114997 0.0716541
v 0.0978328 0.0114997 0.0719538
v 0.0995945 0.016123 0.0698325
v 0.0992984 0.0160767 0.0705561
v 0.0988274 0.016003 0.0711774
v 0.0982135 0.0159069 0.0716541
v 0.0974987 0.015795 0.0719538
v 0.0981256 0.0217201 0.0691168
v 0.0965909 0.0227736 0.0695345
v 0.0962625 0.0203446 0.0719567
v 0.0962411 0.0207583 0.0718515
v 0.0962208 0.0211567 0.0716911
v 0.096202 0.0215271 0.0714806
v 0.0961723 0.022122 0.0709739
v 0.0961497 0.0225772 0.0703361
v 0.0961355 0.0228665 0.0695997
v 0.0967817 0.0204882 0.0717828
v 0.0967488 0.0208719 0.0716691
v 0.0967178 0.021238 0.0715055
v 0.0966895 0.0215755 0.0712978
v 0.096645 0.0221118 0.0708121
v 0.0966118 0.0225176 0.0702148
v 0.0972824 0.0206108 0.0714992
v 0.0972393 0.0209521 0.0713864
v 0.0971989 0.0212753 0.0712302
v 0.0971621 0.0215713 0.0710364
v 0.0971046 0.0220379 0.0705924
v 0.0970619 0.0223879 0.0700558
v 0.0970352 0.0226074 0.0694507
v 0.0981033 0.0207585 0.0706446
v 0.0980538 0.0209863 0.0705617
v 0.0980071 0.0212006 0.0704502
v 0.0979647 0.0213957 0.0703144
v 0.0978982 0.0217011 0.0700087
v 0.0978487 0.0219284 0.0696446
v 0.0978178 0.0220702 0.0692377
v 0.0974498 0.0223703 0.0693506
v 0.0974802 0.0221892 0.0698632
v 0.0975291 0.0218994 0.0703209
v 0.0975947 0.0215109 0.0707036
v 0.0976368 0.0212631 0.0708728
v 0.0976831 0.0209913 0.0710111
v 0.0977324 0.0207031 0.0711131
v 0.0983758 0.020775 0.0701234
v 0.0983329 0.0209384 0.070065
v 0.0982923 0.0210925 0.069986
v 0.0982553 0.0212329 0.0698892
v 0.0981969 0.0214531 0.0696707
v 0.0981531 0.0216174 0.0694094
v 0.0985428 0.0207549 0.0695829
v 0.098513 0.0208537 0.0695509
v 0.0984847 0.0209475 0.0695063
v 0.0984585 0.0210335 0.0694507
v 0.0984168 0.0211694 0.069323
v 0.0983852 0.0212717 0.069168
v 0.0983652 0.021336 0.0689929
v -0.0175 0.00549971 0.0629997
v -0.0159471 0.00570415 0.0629997
v -0.0145 0.00630355 0.0629997
v -0.0132574 0.00725707 0.0629997
v -0.0123038 0.00849971 0.0629997
v -0.0117044 0.00994679 0.0629997
v -0.0115 0.0114997 0.0629997
v -0.0117044 0.0130526 0.0629997
v -0.0123038 0.0144997 0.0629997
v -0.0132574 0.0157423 0.0629997
v -0.0145 0.0166959 0.0629997
v -0.0159471 0.0172953 0.0629997
v -0.0175 0.0174997 0.0629997
v -0.0190529 0.0172953 0.0629997
v -0.0205 0.0166959 0.0629997
v -0.0217426 0.0157423 0.0629997
v -0.0226961 0.0144997 0.0629997
v -0.0232955 0.0130526 0.0629997
v -0.0235 0.0114997 0.0629997
v -0.0232955 0.00994679 0.0629997
v -0.0226961 0.00849971 0.0629997
v -0.0217426 0.00725707 0.0629997
v -0.0205 0.00630355 0.0629997
v -0.0190529 0.00570415 0.0629997
v -0.0212528 0.0179997 0.0625963
v -0.0212528 0.0179997 0.0578689
v -0.0222424 0.0162856 0.0574256
v -0.0231292 0.0147497 0.0572884
v -0.0240159 0.0132138 0.0574256
v -0.0250055 0.0114997 0.0578689
v -0.0250055 0.0114997 0.0625963
v -0.0231292 0.0147497 0.0628657
v -0.0240159 0.00978561 0.0574256
v -0.0231292 0.00824971 0.0572884
v -0.0222424 0.00671381 0.0574256
v -0.0212528 0.00499971 0.0578689
v -0.0212528 0.00499971 0.0625963
v -0.0231292 0.00824971 0.0628657
v -0.0192735 0.00499971 0.0574256
v -0.0175 0.00499971 0.0572884
v -0.0157265 0.00499971 0.0574256
v -0.0137472 0.00499971 0.0578689
v -0.0137472 0.00499971 0.0625963
v -0.0175 0.00499971 0.0628657
v -0.0127576 0.00671381 0.0574256
v -0.0118708 0.00824971 0.0572884
v -0.0109841 0.00978561 0.0574256
v -0.00999445 0.0114997 0.0578689
v -0.00999445 0.0114997 0.0625963
v -0.0118708 0.00824971 0.0628657
v -0.0109841 0.0132138 0.0574256
v -0.0118708 0.0147497 0.0572884
v -0.0127576 0.0162856 0.0574256
v -0.0137472 0.0179997 0.0578689
v -0.0137472 0.0179997 0.0625963
v -0.0118708 0.0147497 0.0628657
v -0.0157265 0.0179997 0.0574256
v -0.0175 0.0179997 0.0572884
v -0.0192735 0.0179997 0.0574256
v -0.0175 0.0179997 0.0628657
f 2 48 1
f 1 48 25
f 1 25 24
f 24 25 26
f 24 26 23
f 23 26 27
f 23 27 22
f 22 27 28
f 22 28 21
f 21 28 29
f 21 29 20
f 20 29 30
f 20 30 19
f 19 30 31
f 19 31 18
f 18 31 32
f 18 32 17
f 17 32 33
f 17 33 16
f 16 33 34
f 16 34 15
f 15 34 35
f 15 35 14
f 14 35 36
f 14 36 13
f 13 36 37
f 13 37 12
f 12 37 38
f 12 38 11
f 11 38 39
f 11 39 10
f 10 39 40
f 10 40 9
f 9 40 41
f 9 41 8
f 8 41 42
f 8 42 7
f 7 42 43
f 7 43 6
f 6 43 44
f 6 44 5
f 5 44 45
f 5 45 4
f 4 45 46
f 4 46 3
f 3 46 47
f 3 47 2
f 2 47 48
f 50 60 49
f 49 60 61
f 49 61 72
f 72 61 62
f 72 62 71
f 71 62 63
f 71 63 70
f 70 63 64
f 70 64 69
f 69 64 65
f 69 65 68
f 68 65 66
f 68 66 67
f 60 50 59
f 59 50 51
f 59 51 58
f 58 51 52
f 58 52 57
f 57 52 53
f 57 53 56
f 56 53 54
f 56 54 55
f 2 1 73
f 73 1 24
f 73 24 23
f 73 23 78
f 78 23 22
f 78 22 21
f 21 20 78
f 78 20 19
f 78 19 77
f 77 19 18
f 77 18 17
f 17 16 77
f 77 16 15
f 77 15 76
f 76 15 14
f 76 14 13
f 13 12 76
f 76 12 11
f 76 11 75
f 75 11 10
f 75 10 9
f 9 8 75
f 75 8 7
f 75 7 74
f 74 7 6
f 74 6 5
f 5 4 74
f 74 4 3
f 74 3 73
f 73 3 2
f 77 76 80
f 80 76 79
f 76 75 79
f 79 75 81
f 75 74 81
f 81 74 82
f 72 106 49
f 49 106 83
f 49 83 50
f 50 83 84
f 50 84 51
f 51 84 85
f 51 85 52
f 52 85 86
f 52 86 53
f 53 86 87
f 53 87 54
f 54 87 88
f 54 88 55
f 55 88 89
f 55 89 56
f 56 89 90
f 56 90 57
f 57 90 91
f 57 91 58
f 58 91 92
f 58 92 59
f 59 92 93
f 59 93 60
f 60 93 94
f 60 94 61
f 61 94 95
f 61 95 62
f 62 95 96
f 62 96 63
f 63 96 97
f 63 97 64
f 64 97 98
f 64 98 65
f 65 98 99
f 65 99 66
f 66 99 100
f 66 100 67
f 67 100 101
f 67 101 68
f 68 101 102
f 68 102 69
f 69 102 103
f 69 103 70
f 70 103 104
f 70 104 71
f 71 104 105
f 71 105 72
f 72 105 106
f 26 25 95
f 95 25 48
f 95 48 96
f 96 48 47
f 96 47 97
f 97 47 46
f 97 46 98
f 98 46 45
f 98 45 99
f 99 45 44
f 99 44 100
f 100 44 43
f 100 43 101
f 101 43 102
f 102 43 42
f 102 42 103
f 103 42 41
f 103 41 104
f 104 41 40
f 104 40 105
f 105 40 39
f 105 39 106
f 106 39 38
f 106 38 83
f 83 38 37
f 83 37 84
f 84 37 36
f 84 36 35
f 84 35 85
f 85 35 34
f 85 34 86
f 86 34 33
f 86 33 87
f 87 33 32
f 87 32 88
f 88 32 31
f 88 31 89
f 89 31 90
f 90 31 30
f 90 30 91
f 91 30 29
f 91 29 92
f 92 29 28
f 92 28 93
f 93 28 27
f 93 27 94
f 94 27 26
f 94 26 95
f 108 142 107
f 107 142 143
f 107 143 130
f 130 143 144
f 130 144 129
f 129 144 145
f 129 145 128
f 128 145 146
f 128 146 127
f 127 146 147
f 127 147 126
f 126 147 148
f 126 148 125
f 125 148 149
f 125 149 124
f 124 149 150
f 124 150 123
f 123 150 151
f 123 151 122
f 122 151 152
f 122 152 121
f 121 152 153
f 121 153 120
f 120 153 154
f 120 154 119
f 119 154 131
f 119 131 118
f 118 131 132
f 118 132 117
f 117 132 133
f 117 133 116
f 116 133 134
f 116 134 115
f 115 134 135
f 115 135 114
f 114 135 136
f 114 136 113
f 113 136 137
f 113 137 112
f 112 137 138
f 112 138 111
f 111 138 139
f 111 139 110
f 110 139 140
f 110 140 109
f 109 140 141
f 109 141 108
f 108 141 142
f 155 123 82
f 82 123 122
f 82 122 121
f 156 127 155
f 155 127 126
f 155 126 125
f 80 107 156
f 156 107 130
f 156 130 129
f 79 111 80
f 80 111 110
f 80 110 109
f 81 115 79
f 79 115 114
f 79 114 113
f 82 119 81
f 81 119 118
f 81 118 117
f 129 128 156
f 156 128 127
f 125 124 155
f 155 124 123
f 121 120 82
f 82 120 119
f 117 116 81
f 81 116 115
f 113 112 79
f 79 112 111
f 109 108 80
f 80 108 107
f 74 73 82
f 82 73 155
f 73 78 155
f 155 78 156
f 78 77 156
f 156 77 80
f 180 157 187
f 187 157 158
f 187 158 186
f 186 158 159
f 186 159 185
f 185 159 160
f 185 160 184
f 184 160 161
f 184 161 183
f 183 161 162
f 183 162 182
f 182 162 181
f 181 162 163
f 181 163 204
f 204 163 164
f 204 164 203
f 203 164 165
f 203 165 202
f 202 165 166
f 202 166 201
f 201 166 167
f 201 167 200
f 200 167 168
f 200 168 199
f 199 168 169
f 199 169 170
f 199 170 198
f 198 170 171
f 198 171 197
f 197 171 172
f 197 172 196
f 196 172 173
f 196 173 195
f 195 173 174
f 195 174 194
f 194 174 175
f 194 175 193
f 193 175 192
f 192 175 176
f 192 176 191
f 191 176 177
f 191 177 190
f 190 177 178
f 190 178 189
f 189 178 179
f 189 179 188
f 188 179 180
f 188 180 187
f 206 246 205
f 205 246 247
f 205 247 228
f 228 247 248
f 228 248 227
f 227 248 249
f 227 249 226
f 226 249 250
f 226 250 225
f 225 250 251
f 225 251 224
f 224 251 252
f 224 252 223
f 223 252 229
f 223 229 222
f 222 229 230
f 222 230 221
f 221 230 231
f 221 231 220
f 220 231 232
f 220 232 219
f 219 232 233
f 219 233 218
f 218 233 234
f 218 234 217
f 217 234 235
f 217 235 216
f 216 235 236
f 216 236 215
f 215 236 237
f 215 237 214
f 214 237 238
f 214 238 213
f 213 238 239
f 213 239 212
f 212 239 240
f 212 240 211
f 211 240 241
f 211 241 210
f 210 241 242
f 210 242 209
f 209 242 243
f 209 243 208
f 208 243 244
f 208 244 207
f 207 244 245
f 207 245 206
f 206 245 246
f 254 255 253
f 253 255 272
f 272 255 256
f 272 256 257
f 257 258 272
f 272 258 271
f 271 258 270
f 270 258 269
f 269 258 259
f 269 259 268
f 268 259 260
f 268 260 261
f 261 262 268
f 268 262 267
f 267 262 266
f 266 262 265
f 265 262 264
f 264 262 263
f 254 273 255
f 255 273 274
f 132 131 264
f 264 131 154
f 264 154 265
f 265 154 153
f 265 153 152
f 152 151 265
f 265 151 150
f 265 150 149
f 265 149 285
f 285 149 148
f 285 148 147
f 147 146 285
f 285 146 145
f 285 145 144
f 285 144 284
f 284 144 143
f 284 143 142
f 284 142 280
f 280 142 141
f 280 141 140
f 280 140 279
f 279 140 139
f 279 139 138
f 137 276 138
f 138 276 277
f 138 277 278
f 276 137 275
f 275 137 136
f 275 136 292
f 292 136 291
f 291 136 290
f 290 136 135
f 290 135 134
f 290 134 289
f 289 134 133
f 289 133 132
f 289 132 264
f 278 279 138
f 280 281 284
f 284 281 282
f 284 282 283
f 286 287 264
f 264 287 288
f 264 288 289
f 294 318 293
f 293 318 319
f 293 319 320
f 295 296 294
f 294 296 297
f 294 297 298
f 299 314 298
f 298 314 315
f 298 315 294
f 294 315 316
f 294 316 317
f 300 312 299
f 299 312 313
f 299 313 314
f 300 301 312
f 312 301 302
f 312 302 311
f 311 302 303
f 311 303 334
f 334 303 304
f 334 304 305
f 305 306 334
f 334 306 333
f 333 306 332
f 332 306 307
f 332 307 331
f 331 307 263
f 331 263 330
f 330 263 329
f 329 263 328
f 328 263 262
f 328 262 327
f 327 262 326
f 326 262 325
f 325 262 324
f 324 262 323
f 323 262 293
f 323 293 322
f 322 293 321
f 321 293 320
f 307 308 263
f 263 308 309
f 263 309 310
f 317 318 294
f 335 253 336
f 336 253 272
f 255 274 256
f 256 274 337
f 256 337 257
f 257 337 338
f 257 338 258
f 258 338 339
f 340 259 339
f 339 259 258
f 259 340 343
f 343 340 341
f 343 341 344
f 344 341 342
f 344 342 293
f 293 262 344
f 344 262 261
f 344 261 343
f 343 261 260
f 343 260 259
f 265 285 266
f 266 285 345
f 266 345 267
f 267 345 346
f 267 346 268
f 268 346 347
f 348 269 347
f 347 269 268
f 269 348 351
f 351 348 349
f 351 349 352
f 352 349 350
f 352 350 336
f 336 272 352
f 352 272 271
f 352 271 351
f 351 271 270
f 351 270 269
f 273 335 274
f 274 335 336
f 274 336 337
f 337 336 338
f 338 336 339
f 339 336 350
f 339 350 349
f 349 348 339
f 339 348 340
f 340 348 347
f 340 347 341
f 341 347 342
f 342 347 293
f 293 347 346
f 293 346 345
f 345 285 293
f 293 285 284
f 293 284 294
f 280 279 298
f 298 279 299
f 290 289 306
f 306 289 307
f 180 312 157
f 157 312 311
f 157 311 158
f 158 311 334
f 158 334 159
f 159 334 333
f 159 333 160
f 160 333 332
f 160 332 161
f 161 332 331
f 161 331 162
f 162 331 330
f 162 330 163
f 163 330 329
f 163 329 164
f 164 329 328
f 164 328 165
f 165 328 327
f 165 327 166
f 166 327 326
f 166 326 167
f 167 326 325
f 167 325 168
f 168 325 324
f 168 324 169
f 169 324 323
f 169 323 170
f 170 323 322
f 170 322 171
f 171 322 321
f 171 321 172
f 172 321 320
f 172 320 173
f 173 320 319
f 173 319 174
f 174 319 318
f 174 318 175
f 175 318 317
f 175 317 176
f 176 317 316
f 176 316 177
f 177 316 315
f 177 315 178
f 178 315 314
f 178 314 179
f 179 314 313
f 179 313 180
f 180 313 312
f 228 218 205
f 205 218 217
f 205 217 206
f 206 217 216
f 206 216 207
f 207 216 215
f 207 215 208
f 208 215 214
f 208 214 209
f 209 214 213
f 209 213 210
f 210 213 212
f 210 212 211
f 218 228 219
f 219 228 227
f 219 227 220
f 220 227 226
f 220 226 221
f 221 226 225
f 221 225 222
f 222 225 224
f 222 224 223
f 294 284 295
f 295 284 283
f 295 283 296
f 296 283 282
f 296 282 297
f 297 282 281
f 297 281 298
f 298 281 280
f 307 289 308
f 308 289 288
f 308 288 309
f 309 288 287
f 309 287 310
f 310 287 286
f 310 286 263
f 263 286 264
f 354 355 353
f 353 355 359
f 359 355 356
f 359 356 357
f 359 357 358
f 358 357 275
f 358 275 303
f 303 275 304
f 304 275 292
f 304 292 291
f 290 306 291
f 291 306 305
f 291 305 304
f 373 360 372
f 372 360 361
f 372 361 371
f 371 361 362
f 371 362 370
f 370 362 363
f 370 363 369
f 369 363 364
f 369 364 368
f 368 364 365
f 368 365 367
f 367 365 366
f 387 374 386
f 386 374 375
f 386 375 385
f 385 375 376
f 385 376 384
f 384 376 377
f 384 377 383
f 383 377 378
f 383 378 382
f 382 378 379
f 382 379 381
f 381 379 380
f 354 353 399
f 399 353 388
f 399 388 398
f 398 388 397
f 397 388 389
f 397 389 396
f 396 389 395
f 395 389 390
f 395 390 394
f 394 390 391
f 394 391 392
f 392 393 394
f 394 393 366
f 366 393 367
f 408 400 353
f 353 400 401
f 353 401 388
f 388 401 402
f 388 402 389
f 389 402 403
f 389 403 390
f 390 403 404
f 390 404 391
f 391 404 405
f 391 405 392
f 392 405 393
f 393 405 406
f 353 359 408
f 408 359 358
f 408 358 407
f 407 358 302
f 302 358 303
f 394 409 395
f 395 409 410
f 395 410 411
f 395 411 396
f 396 411 412
f 396 412 397
f 397 412 413
f 397 413 398
f 398 413 414
f 398 414 399
f 399 414 415
f 399 415 354
f 354 415 355
f 355 415 416
f 355 416 356
f 356 416 417
f 356 417 357
f 357 417 418
f 357 418 275
f 275 418 276
f 380 394 360
f 360 394 366
f 360 366 361
f 361 366 362
f 362 366 363
f 363 366 364
f 364 366 365
f 379 374 380
f 380 374 409
f 380 409 394
f 379 378 374
f 374 378 377
f 374 377 376
f 376 375 374
f 373 381 360
f 360 381 380
f 387 381 406
f 406 381 373
f 406 373 393
f 393 373 367
f 367 373 372
f 367 372 371
f 386 385 387
f 387 385 384
f 387 384 383
f 383 382 387
f 387 382 381
f 371 370 367
f 367 370 369
f 367 369 368
f 418 407 276
f 276 407 302
f 276 302 277
f 277 302 301
f 277 301 300
f 407 418 408
f 408 418 417
f 408 417 416
f 415 400 416
f 416 400 408
f 299 279 300
f 300 279 278
f 300 278 277
f 415 414 400
f 400 414 401
f 401 414 413
f 401 413 412
f 401 412 402
f 402 412 411
f 402 411 410
f 402 410 403
f 403 410 409
f 403 409 404
f 404 409 405
f 405 409 406
f 406 409 387
f 387 409 374
f 419 420 422
f 422 420 421
f 420 438 421
f 421 438 439
f 421 439 436
f 436 439 435
f 435 439 442
f 435 442 445
f 445 442 444
f 445 444 447
f 447 444 446
f 447 446 450
f 450 446 449
f 450 449 431
f 431 449 429
f 431 429 430
f 438 420 437
f 437 420 423
f 437 423 424
f 437 424 440
f 440 424 425
f 440 425 443
f 443 425 426
f 443 426 427
f 443 427 446
f 446 427 428
f 446 428 449
f 449 428 429
f 450 431 451
f 451 431 432
f 451 432 448
f 448 432 433
f 448 433 434
f 448 434 445
f 445 434 435
f 442 439 438
f 438 437 441
f 441 437 440
f 441 440 443
f 444 442 441
f 441 442 438
f 444 441 443
f 446 444 443
f 448 445 447
f 451 448 447
f 451 447 450
f 453 467 452
f 452 467 468
f 452 468 465
f 465 468 464
f 464 468 471
f 464 471 474
f 474 471 473
f 474 473 476
f 476 473 475
f 476 475 479
f 479 475 478
f 479 478 422
f 422 478 460
f 422 460 419
f 467 453 466
f 466 453 454
f 466 454 455
f 466 455 469
f 469 455 456
f 469 456 472
f 472 456 457
f 472 457 458
f 472 458 475
f 475 458 459
f 475 459 478
f 478 459 460
f 479 422 480
f 480 422 461
f 480 461 477
f 477 461 462
f 477 462 463
f 477 463 474
f 474 463 464
f 471 468 467
f 467 466 470
f 470 466 469
f 470 469 472
f 473 471 470
f 470 471 467
f 473 470 472
f 475 473 472
f 477 474 476
f 480 477 476
f 480 476 479
f 482 483 481
f 481 483 484
f 481 484 452
f 452 484 485
f 452 485 453
f 487 501 486
f 486 501 502
f 486 502 499
f 499 502 498
f 498 502 505
f 498 505 508
f 508 505 507
f 508 507 510
f 510 507 509
f 510 509 513
f 513 509 512
f 513 512 481
f 481 512 494
f 481 494 482
f 501 487 500
f 500 487 488
f 500 488 489
f 500 489 503
f 503 489 490
f 503 490 506
f 506 490 491
f 506 491 492
f 506 492 509
f 509 492 493
f 509 493 512
f 512 493 494
f 513 481 514
f 514 481 495
f 514 495 511
f 511 495 496
f 511 496 497
f 511 497 508
f 508 497 498
f 505 502 501
f 501 500 504
f 504 500 503
f 504 503 506
f 507 505 504
f 504 505 501
f 507 504 506
f 509 507 506
f 511 508 510
f 514 511 510
f 514 510 513
f 515 516 486
f 486 516 487
f 518 532 517
f 517 532 533
f 517 533 530
f 530 533 529
f 529 533 536
f 529 536 539
f 539 536 538
f 539 538 541
f 541 538 540
f 541 540 544
f 544 540 543
f 544 543 515
f 515 543 525
f 515 525 516
f 532 518 531
f 531 518 519
f 531 519 520
f 531 520 534
f 534 520 521
f 534 521 537
f 537 521 522
f 537 522 523
f 537 523 540
f 540 523 524
f 540 524 543
f 543 524 525
f 544 515 545
f 545 515 526
f 545 526 542
f 542 526 527
f 542 527 528
f 542 528 539
f 539 528 529
f 536 533 532
f 532 531 535
f 535 531 534
f 535 534 537
f 538 536 535
f 535 536 532
f 538 535 537
f 540 538 537
f 542 539 541
f 545 542 541
f 545 541 544
f 430 546 431
f 431 546 547
f 431 547 517
f 517 547 548
f 517 548 518
f 254 517 273
f 273 517 529
f 273 529 528
f 253 421 254
f 254 421 436
f 254 436 435
f 335 452 253
f 253 452 464
f 253 464 463
f 273 515 335
f 335 515 486
f 335 486 499
f 435 434 254
f 254 434 433
f 254 433 431
f 431 433 432
f 431 517 254
f 517 530 529
f 528 527 273
f 273 527 526
f 273 526 515
f 499 498 335
f 335 498 497
f 335 497 496
f 495 481 496
f 496 481 335
f 481 452 335
f 452 465 464
f 463 462 253
f 253 462 461
f 253 461 422
f 422 421 253
f 419 549 420
f 420 549 558
f 558 549 557
f 557 549 550
f 557 550 556
f 556 550 551
f 556 551 555
f 555 551 552
f 555 552 554
f 554 552 553
f 559 560 568
f 568 560 561
f 568 561 567
f 567 561 562
f 567 562 566
f 566 562 563
f 566 563 565
f 565 563 564
f 565 564 516
f 516 564 487
f 610 569 594
f 594 569 570
f 594 570 593
f 593 570 592
f 592 570 571
f 592 571 591
f 591 571 572
f 591 572 573
f 574 589 573
f 573 589 590
f 573 590 591
f 574 575 589
f 589 575 588
f 588 575 576
f 588 576 587
f 587 576 586
f 586 576 577
f 586 577 585
f 585 577 578
f 585 578 584
f 584 578 579
f 584 579 583
f 583 579 580
f 583 580 559
f 559 580 560
f 560 580 581
f 559 582 583
f 594 595 610
f 610 595 596
f 610 596 609
f 609 596 597
f 609 597 608
f 608 597 607
f 607 597 598
f 607 598 606
f 606 598 599
f 606 599 605
f 605 599 600
f 605 600 604
f 604 600 601
f 604 601 553
f 553 601 554
f 554 601 602
f 553 603 604
f 603 553 619
f 619 553 552
f 619 552 616
f 616 552 551
f 616 551 645
f 645 551 632
f 645 632 633
f 633 632 647
f 633 647 648
f 648 647 663
f 648 663 662
f 662 663 656
f 662 656 657
f 657 656 455
f 657 455 658
f 658 455 454
f 658 454 618
f 618 454 453
f 618 453 611
f 551 550 632
f 632 550 646
f 632 646 647
f 647 646 664
f 647 664 663
f 663 664 655
f 663 655 656
f 656 655 456
f 656 456 455
f 646 550 617
f 617 550 549
f 617 549 653
f 653 549 460
f 653 460 459
f 549 419 460
f 653 459 654
f 654 459 458
f 654 458 655
f 655 458 457
f 655 457 456
f 618 611 659
f 659 611 612
f 659 612 652
f 652 612 613
f 652 613 638
f 638 613 639
f 638 639 640
f 640 639 630
f 640 630 629
f 629 630 623
f 629 623 622
f 622 623 608
f 622 608 607
f 613 614 639
f 639 614 631
f 639 631 630
f 630 631 624
f 630 624 623
f 623 624 609
f 623 609 608
f 614 615 631
f 631 615 625
f 631 625 624
f 624 625 610
f 624 610 609
f 615 569 625
f 625 569 610
f 622 607 621
f 621 607 606
f 621 606 620
f 620 606 605
f 620 605 619
f 619 605 604
f 619 604 603
f 620 619 626
f 626 619 616
f 626 616 644
f 644 616 645
f 644 645 633
f 621 620 627
f 627 620 626
f 627 626 643
f 643 626 644
f 643 644 634
f 634 644 633
f 634 633 648
f 622 621 628
f 628 621 627
f 628 627 642
f 642 627 643
f 642 643 635
f 635 643 634
f 635 634 649
f 649 634 648
f 649 648 662
f 622 628 629
f 629 628 641
f 629 641 640
f 640 641 637
f 640 637 638
f 638 637 652
f 641 628 642
f 641 642 636
f 636 642 635
f 636 635 650
f 650 635 649
f 650 649 661
f 661 649 662
f 661 662 657
f 641 636 637
f 637 636 651
f 637 651 652
f 652 651 659
f 651 636 650
f 651 650 660
f 660 650 661
f 660 661 658
f 658 661 657
f 653 654 617
f 617 654 664
f 617 664 646
f 654 655 664
f 658 618 660
f 660 618 659
f 660 659 651
f 569 615 570
f 570 615 674
f 570 674 571
f 571 674 679
f 571 679 572
f 572 679 684
f 572 684 573
f 573 684 669
f 669 684 683
f 669 683 668
f 668 683 682
f 668 682 667
f 667 682 681
f 667 681 666
f 666 681 680
f 666 680 665
f 665 680 483
f 665 483 482
f 615 614 674
f 674 614 673
f 674 673 679
f 679 673 678
f 679 678 684
f 684 678 683
f 614 613 673
f 673 613 672
f 673 672 678
f 678 672 677
f 678 677 683
f 683 677 682
f 613 612 672
f 672 612 671
f 672 671 677
f 677 671 676
f 677 676 682
f 682 676 681
f 612 611 671
f 671 611 670
f 671 670 676
f 676 670 675
f 676 675 681
f 681 675 680
f 611 453 670
f 670 453 485
f 670 485 675
f 675 485 484
f 675 484 680
f 680 484 483
f 669 689 573
f 573 689 690
f 573 690 574
f 574 690 691
f 574 691 575
f 575 691 692
f 575 692 576
f 576 692 693
f 576 693 577
f 577 693 694
f 577 694 578
f 578 694 695
f 578 695 696
f 696 695 704
f 696 704 686
f 686 704 713
f 686 713 562
f 562 713 723
f 562 723 563
f 563 723 722
f 563 722 687
f 687 722 721
f 687 721 739
f 739 721 720
f 739 720 738
f 738 720 719
f 738 719 737
f 737 719 718
f 737 718 736
f 736 718 717
f 736 717 735
f 735 717 716
f 735 716 734
f 734 716 715
f 734 715 733
f 733 715 714
f 733 714 732
f 732 714 666
f 732 666 665
f 689 669 697
f 697 669 668
f 697 668 705
f 705 668 667
f 705 667 731
f 731 667 714
f 731 714 715
f 667 666 714
f 732 665 740
f 740 665 482
f 740 482 494
f 740 494 741
f 741 494 493
f 741 493 742
f 742 493 492
f 742 492 743
f 743 492 491
f 743 491 744
f 744 491 745
f 744 745 736
f 736 745 737
f 491 490 745
f 745 490 746
f 745 746 737
f 737 746 738
f 490 489 746
f 746 489 747
f 746 747 738
f 738 747 739
f 489 488 747
f 747 488 688
f 747 688 739
f 739 688 687
f 488 487 688
f 688 487 564
f 688 564 687
f 687 564 563
f 562 561 686
f 686 561 685
f 686 685 696
f 696 685 580
f 696 580 579
f 561 560 685
f 685 560 581
f 685 581 580
f 579 578 696
f 690 689 698
f 698 689 697
f 698 697 706
f 706 697 705
f 706 705 730
f 730 705 731
f 730 731 715
f 691 690 699
f 699 690 698
f 699 698 707
f 707 698 706
f 707 706 729
f 729 706 730
f 729 730 716
f 716 730 715
f 692 691 700
f 700 691 699
f 700 699 708
f 708 699 707
f 708 707 728
f 728 707 729
f 728 729 717
f 717 729 716
f 693 692 701
f 701 692 700
f 701 700 709
f 709 700 708
f 709 708 727
f 727 708 728
f 727 728 718
f 718 728 717
f 694 693 702
f 702 693 701
f 702 701 710
f 710 701 709
f 710 709 726
f 726 709 727
f 726 727 719
f 719 727 718
f 695 694 703
f 703 694 702
f 703 702 711
f 711 702 710
f 711 710 725
f 725 710 726
f 725 726 720
f 720 726 719
f 695 703 704
f 704 703 712
f 704 712 713
f 713 712 723
f 712 703 711
f 712 711 724
f 724 711 725
f 724 725 721
f 721 725 720
f 721 722 724
f 724 722 723
f 724 723 712
f 740 741 732
f 732 741 733
f 741 742 733
f 733 742 734
f 744 736 735
f 742 743 734
f 734 743 735
f 743 744 735
f 423 420 756
f 756 420 558
f 756 558 755
f 755 558 557
f 755 557 790
f 790 557 773
f 790 773 774
f 774 773 792
f 774 792 793
f 793 792 814
f 793 814 813
f 813 814 802
f 813 802 803
f 803 802 598
f 803 598 597
f 557 556 773
f 773 556 791
f 773 791 792
f 792 791 815
f 792 815 814
f 814 815 801
f 814 801 802
f 802 801 599
f 802 599 598
f 791 556 754
f 754 556 555
f 754 555 753
f 753 555 554
f 753 554 602
f 602 601 753
f 753 601 800
f 753 800 754
f 754 800 815
f 754 815 791
f 601 600 800
f 800 600 599
f 800 599 801
f 803 597 804
f 804 597 596
f 804 596 805
f 805 596 595
f 805 595 806
f 806 595 594
f 806 594 807
f 807 594 748
f 807 748 808
f 808 748 749
f 808 749 799
f 799 749 750
f 799 750 781
f 781 750 782
f 781 782 783
f 783 782 771
f 783 771 770
f 770 771 762
f 770 762 761
f 761 762 427
f 761 427 426
f 750 751 782
f 782 751 772
f 782 772 771
f 771 772 763
f 771 763 762
f 762 763 428
f 762 428 427
f 751 752 772
f 772 752 764
f 772 764 763
f 763 764 429
f 763 429 428
f 752 430 764
f 764 430 429
f 425 759 426
f 426 759 760
f 426 760 761
f 761 760 769
f 761 769 770
f 770 769 784
f 770 784 783
f 783 784 780
f 783 780 781
f 781 780 799
f 759 425 758
f 758 425 424
f 758 424 757
f 757 424 423
f 757 423 756
f 757 756 765
f 765 756 755
f 765 755 789
f 789 755 790
f 789 790 774
f 758 757 766
f 766 757 765
f 766 765 788
f 788 765 789
f 788 789 775
f 775 789 774
f 775 774 793
f 759 758 767
f 767 758 766
f 767 766 787
f 787 766 788
f 787 788 776
f 776 788 775
f 776 775 794
f 794 775 793
f 794 793 813
f 760 759 768
f 768 759 767
f 768 767 786
f 786 767 787
f 786 787 777
f 777 787 776
f 777 776 795
f 795 776 794
f 795 794 812
f 812 794 813
f 812 813 803
f 760 768 769
f 769 768 785
f 769 785 784
f 784 785 779
f 784 779 780
f 780 779 798
f 780 798 799
f 799 798 808
f 785 768 786
f 785 786 778
f 778 786 777
f 778 777 796
f 796 777 795
f 796 795 811
f 811 795 812
f 811 812 804
f 804 812 803
f 785 778 779
f 779 778 797
f 779 797 798
f 798 797 809
f 798 809 808
f 808 809 807
f 797 778 796
f 797 796 810
f 810 796 811
f 810 811 805
f 805 811 804
f 800 801 815
f 805 806 810
f 810 806 809
f 810 809 797
f 806 807 809
f 430 752 546
f 546 752 825
f 546 825 547
f 547 825 830
f 547 830 548
f 548 830 835
f 548 835 518
f 518 835 820
f 820 835 834
f 820 834 819
f 819 834 833
f 819 833 818
f 818 833 832
f 818 832 817
f 817 832 831
f 817 831 816
f 816 831 591
f 816 591 590
f 752 751 825
f 825 751 824
f 825 824 830
f 830 824 829
f 830 829 835
f 835 829 834
f 751 750 824
f 824 750 823
f 824 823 829
f 829 823 828
f 829 828 834
f 834 828 833
f 750 749 823
f 823 749 822
f 823 822 828
f 828 822 827
f 828 827 833
f 833 827 832
f 749 748 822
f 822 748 821
f 822 821 827
f 827 821 826
f 827 826 832
f 832 826 831
f 748 594 821
f 821 594 593
f 821 593 826
f 826 593 592
f 826 592 831
f 831 592 591
f 519 518 838
f 838 518 820
f 838 820 845
f 845 820 819
f 845 819 851
f 851 819 818
f 851 818 871
f 871 818 858
f 871 858 859
f 859 858 873
f 859 873 874
f 874 873 880
f 874 880 881
f 881 880 587
f 881 587 586
f 818 817 858
f 858 817 872
f 858 872 873
f 873 872 879
f 873 879 880
f 880 879 588
f 880 588 587
f 817 816 872
f 872 816 878
f 872 878 879
f 879 878 589
f 879 589 588
f 816 590 878
f 878 590 589
f 881 586 882
f 882 586 585
f 882 585 883
f 883 585 584
f 883 584 884
f 884 584 583
f 884 583 582
f 582 559 884
f 884 559 568
f 884 568 836
f 836 568 567
f 836 567 864
f 864 567 865
f 864 865 866
f 866 865 856
f 866 856 855
f 855 856 849
f 855 849 848
f 848 849 841
f 848 841 840
f 840 841 520
f 840 520 839
f 839 520 519
f 839 519 838
f 567 566 865
f 865 566 857
f 865 857 856
f 856 857 850
f 856 850 849
f 849 850 842
f 849 842 841
f 841 842 521
f 841 521 520
f 857 566 837
f 837 566 565
f 837 565 844
f 844 565 525
f 844 525 524
f 565 516 525
f 844 524 843
f 843 524 523
f 843 523 842
f 842 523 522
f 842 522 521
f 839 838 846
f 846 838 845
f 846 845 852
f 852 845 851
f 852 851 870
f 870 851 871
f 870 871 859
f 840 839 847
f 847 839 846
f 847 846 853
f 853 846 852
f 853 852 869
f 869 852 870
f 869 870 860
f 860 870 859
f 860 859 874
f 837 844 843
f 837 843 850
f 850 843 842
f 840 847 848
f 848 847 854
f 848 854 855
f 855 854 867
f 855 867 866
f 866 867 863
f 866 863 864
f 864 863 836
f 854 847 853
f 857 837 850
f 854 853 868
f 868 853 869
f 868 869 861
f 861 869 860
f 861 860 875
f 875 860 874
f 875 874 881
f 861 862 868
f 868 862 867
f 868 867 854
f 867 862 863
f 863 862 877
f 863 877 836
f 836 877 884
f 862 861 876
f 876 861 875
f 876 875 882
f 882 875 881
f 862 876 877
f 877 876 883
f 877 883 884
f 883 876 882
f 886 236 885
f 885 236 235
f 885 235 908
f 908 235 234
f 908 234 233
f 236 886 237
f 237 886 887
f 237 887 238
f 238 887 888
f 238 888 239
f 239 888 889
f 239 889 240
f 240 889 890
f 240 890 241
f 241 890 891
f 241 891 892
f 241 892 242
f 242 892 893
f 242 893 243
f 243 893 894
f 243 894 244
f 244 894 895
f 244 895 245
f 245 895 896
f 245 896 246
f 246 896 897
f 246 897 247
f 247 897 248
f 248 897 898
f 248 898 249
f 249 898 899
f 249 899 250
f 250 899 900
f 250 900 251
f 251 900 901
f 251 901 252
f 252 901 902
f 252 902 229
f 229 902 903
f 229 903 904
f 229 904 230
f 230 904 905
f 230 905 231
f 231 905 906
f 231 906 232
f 232 906 907
f 232 907 233
f 233 907 908
f 910 911 909
f 909 911 916
f 916 911 912
f 916 912 913
f 914 915 913
f 913 915 916
f 914 917 915
f 915 917 922
f 922 917 918
f 922 918 919
f 920 921 919
f 919 921 922
f 920 923 921
f 921 923 928
f 928 923 924
f 928 924 925
f 926 927 925
f 925 927 928
f 926 929 927
f 927 929 934
f 934 929 930
f 934 930 931
f 932 933 931
f 931 933 934
f 932 935 933
f 933 935 940
f 940 935 936
f 940 936 937
f 938 939 937
f 937 939 940
f 938 941 939
f 939 941 944
f 944 941 942
f 944 942 943
f 910 909 943
f 943 909 944
f 886 885 928
f 928 885 908
f 928 908 921
f 921 908 907
f 921 907 906
f 921 906 922
f 922 906 905
f 922 905 904
f 922 904 915
f 915 904 903
f 915 903 902
f 915 902 916
f 916 902 901
f 916 901 900
f 916 900 909
f 909 900 899
f 909 899 898
f 909 898 944
f 944 898 897
f 944 897 896
f 944 896 939
f 939 896 895
f 939 895 894
f 939 894 940
f 940 894 893
f 940 893 892
f 940 892 933
f 933 892 891
f 933 891 890
f 933 890 934
f 934 890 889
f 934 889 888
f 934 888 927
f 927 888 887
f 927 887 886
f 927 886 928
f 182 181 924
f 924 181 204
f 924 204 925
f 925 204 203
f 925 203 926
f 926 203 929
f 929 203 202
f 929 202 930
f 930 202 201
f 930 201 200
f 930 200 931
f 931 200 199
f 931 199 932
f 932 199 935
f 935 199 198
f 935 198 936
f 936 198 197
f 936 197 196
f 936 196 937
f 937 196 195
f 937 195 938
f 938 195 941
f 941 195 194
f 941 194 942
f 942 194 193
f 942 193 192
f 942 192 943
f 943 192 191
f 943 191 910
f 910 191 911
f 911 191 190
f 911 190 912
f 912 190 189
f 912 189 188
f 912 188 913
f 913 188 187
f 913 187 914
f 914 187 917
f 917 187 186
f 917 186 918
f 918 186 185
f 918 185 184
f 918 184 919
f 919 184 183
f 919 183 920
f 920 183 923
f 923 183 182
f 923 182 924
