v -0.0009 0.009423 0.048367
v -0.003461 0.009426 0.045455
v 0.003367 0.00942 0.045796
v 0.002354 0.00942 0.047536
v 0.00121 0.009422 0.048205
v -0.002569 0.009414 0.047296
v -0.010405 0.018387 0.003964
v 0.010303 0.019675 0.004
v -0.010307 0.019704 0.004
v -0.010328 0.017411 0.006312
v 0.010338 0.017411 0.006348
v -0.01035 0.002563 0.0018
v -0.010464 0.008072 0.001741
v -0.010366 0.002524 0.000133
v -0.010338 0.008029 0.003838
v -0.010498 0.010668 0.003808
v -0.010375 0.011577 0.017773
v -0.010379 0.012792 0.018852
v -0.010402 0.017414 0.00477
v -0.010333 0.016215 0.018827
v -0.010501 0.017036 0.017714
v -0.010464 0.020754 0.001741
v -0.010256 0.020798 0.00392
v -0.010391 0.026304 0.000164
v -0.01035 0.026263 0.0018
v -0.005033 0.005965 0.003875
v 0.006784 0.00787 0.003922
v 0.010339 0.008029 0.003838
v -0.006688 0.007826 0.003913
v -0.004875 0.002588 0.003875
v 0.004875 0.002538 0.003825
v 0.004882 0.006314 0.003998
v 0.01035 0.002563 0.0018
v 0.004862 0.002482 0.001761
v 0.010378 0.002535 0.000153
v -0.004861 0.002482 0.001761
v 0.010389 0.02628 0.000133
v 0.004901 0.026345 0.001761
v 0.01035 0.026263 0.0018
v -0.004838 0.026298 0.003838
v 0.004839 0.026252 0.003885
v -0.004913 0.026315 0.001779
v -0.00474 0.023087 0.003992
v 0.004737 0.023113 0.00399
v 0.010398 0.011407 0.004752
v -0.010403 0.011445 0.004799
v 0.010383 0.012612 0.0188
v 0.010269 0.020763 0.003932
v 0.010459 0.020803 0.001745
v 0.010465 0.008072 0.001741
v 0.010498 0.010654 0.003799
v 0.010409 0.011617 0.017719
v 0.010499 0.017232 0.00473
v 0.010328 0.016056 0.018873
v 0.010402 0.018212 0.003998
v 0.010502 0.017036 0.017714
v 0.007073 0.021006 0.0019
v 0.005207 0.022541 0.0019
v 0.005031 0.023349 0.003701
v 0.005556 0.022134 0.0037
v 0.006974 0.021021 0.003699
v 0.005151 0.006139 0.0019
v 0.006993 0.007813 0.0019
v 0.005121 0.005962 0.003694
v -0.005206 0.022541 0.0019
v -0.007105 0.020991 0.0019
v -0.006963 0.02103 0.003689
v -0.005556 0.022134 0.0037
v -0.005031 0.02334 0.003703
v -0.005051 0.005645 0.0019
v -0.005778 0.006963 0.0019
v -0.007155 0.007844 0.0019
v 0.010213 0.010281 0.004018
v -0.01021 0.010258 0.004015
v 0.010206 0.017442 0.00511
v 0.010198 0.017334 0.01777
v -0.010194 0.01735 0.017681
v -0.006566 0.020819 0.003997
v 0.006603 0.020795 0.003997
v -0.010293 0.023166 0.004009
v -0.010389 0.02522 0.019188
v 0.0104 0.025253 0.019037
v -0.008802 0.015652 0.035926
v 0.008804 0.015668 0.035909
v -0.008749 0.014412 0.036005
v 0.008747 0.014412 0.036004
v -0.00533 0.014302 0.05381
v -0.007802 0.014238 0.052291
v 0.006547 0.014291 0.053246
v 0.0048 0.014331 0.053832
v 0.008538 0.014414 0.050534
v -0.008657 0.014413 0.049832
v -0.007084 0.009504 0.052821
v -0.008779 0.009461 0.050118
v -0.005468 0.009491 0.053747
v -0.008745 0.009414 0.036004
v -0.003062 0.009426 0.043491
v 0.005491 0.009412 0.053558
v 0.007738 0.009533 0.052245
v 0.008802 0.009508 0.050203
v 0.008749 0.009414 0.036005
v -0.009015 0.008044 0.035742
v 0.00901 0.008125 0.035845
v -0.010193 0.017399 0.019251
v 0.008962 0.008021 0.035579
v 0.010188 0.017393 0.019253
v -0.010362 0.025305 0.006144
v 0.010382 0.025262 0.006119
v 0.010294 0.023166 0.004009
v -0.010479 0.017678 0.019324
v -0.009055 0.015468 0.035708
v -0.009049 0.009712 0.035735
v -0.009055 0.014105 0.035728
v 0.008973 0.014113 0.049681
v 0.00905 0.009716 0.035736
v 0.009056 0.015468 0.035708
v 0.009056 0.014109 0.035727
v 0.01048 0.017678 0.019324
v -0.008395 0.009713 0.051461
v -0.008945 0.01411 0.04996
v 0.008197 0.014115 0.051853
v 0.005532 0.009717 0.053858
v -0.001954 0.009418 0.042156
v 0.003168 0.009425 0.043772
v -2e-06 0.012805 0.044994
v 0.000144 0.009433 0.041511
v 0.001943 0.009422 0.042194
v -0.009823 0.017502 0.011108
v -0.00897 0.017535 0.009498
v -0.008382 0.020413 0.008978
v -0.006987 0.020413 0.015642
v -0.007581 0.017713 0.015459
v -0.007903 0.017713 0.008742
v -0.008937 0.020413 0.014486
v -0.006166 0.017719 0.008207
v -0.006 0.020413 0.008208
v -0.00901 0.017713 0.014274
v -0.009712 0.017718 0.012743
v -0.009829 0.020413 0.011614
v -0.008164 0.017414 0.015489
v -0.00216 0.017714 0.01179
v -0.001917 0.017415 0.01288
v -0.009805 0.017414 0.013576
v -0.002761 0.017713 0.013936
v -0.003453 0.017413 0.015198
v -0.003756 0.017713 0.015033
v -0.005419 0.017719 0.015752
v -0.005659 0.017414 0.016112
v -0.002534 0.017414 0.009761
v -0.007442 0.017414 0.008156
v -0.0048 0.017414 0.008044
v -0.004241 0.017708 0.008647
v -0.002989 0.017713 0.009726
v -0.003062 0.020413 0.014486
v -0.003617 0.020413 0.008978
v -0.005245 0.020413 0.015716
v -0.002171 0.020413 0.011614
v 0.002472 0.017538 0.010274
v 0.003618 0.020413 0.008978
v 0.005013 0.020413 0.015642
v 0.004419 0.017713 0.015459
v 0.004097 0.017713 0.008742
v 0.003063 0.020413 0.014486
v 0.005834 0.017719 0.008207
v 0.006 0.020413 0.008208
v 0.00299 0.017713 0.014274
v 0.002158 0.017603 0.012482
v 0.002171 0.020413 0.011614
v 0.002779 0.017415 0.014644
v 0.00984 0.017714 0.01179
v 0.009967 0.017414 0.010864
v 0.009844 0.017414 0.013442
v 0.009239 0.017713 0.013936
v 0.008363 0.017594 0.01505
v 0.006581 0.017719 0.015752
v 0.005934 0.017415 0.016176
v 0.006599 0.017413 0.007966
v 0.008496 0.017414 0.00874
v 0.004167 0.017415 0.008277
v 0.007759 0.017708 0.008647
v 0.009011 0.017713 0.009726
v 0.008938 0.020413 0.014486
v 0.008383 0.020413 0.008978
v 0.006755 0.020413 0.015716
v 0.009829 0.020413 0.011614
f 4 125 3
f 5 125 4
f 5 1 125
f 1 6 125
f 2 125 6
f 7 8 9
f 7 55 8
f 10 75 19
f 10 11 75
f 12 13 14
f 15 16 13
f 18 21 17
f 17 21 46
f 46 21 19
f 18 20 21
f 19 7 16
f 46 19 16
f 16 22 13
f 7 22 16
f 7 23 22
f 22 24 13
f 13 24 14
f 22 25 24
f 73 27 28
f 73 74 27
f 27 74 29
f 74 15 29
f 26 30 32
f 32 30 31
f 27 29 32
f 29 26 32
f 33 34 35
f 31 36 34
f 30 36 31
f 12 14 36
f 14 35 34
f 14 34 36
f 37 38 39
f 38 40 41
f 42 40 38
f 24 25 42
f 37 24 38
f 38 24 42
f 43 41 40
f 43 44 41
f 14 37 35
f 14 24 37
f 52 17 45
f 17 46 45
f 20 18 54
f 54 18 47
f 48 55 49
f 37 49 50
f 37 50 35
f 50 33 35
f 39 49 37
f 51 28 50
f 56 45 53
f 56 52 45
f 56 47 52
f 54 47 56
f 53 45 51
f 55 53 51
f 49 51 50
f 49 55 51
f 39 57 49
f 58 57 39
f 38 58 39
f 59 60 58
f 58 61 57
f 60 61 58
f 41 59 38
f 38 59 58
f 61 49 57
f 61 48 49
f 62 34 33
f 63 33 50
f 63 62 33
f 63 27 62
f 27 64 62
f 28 63 50
f 28 27 63
f 64 31 62
f 62 31 34
f 25 22 66
f 25 65 42
f 25 66 65
f 66 67 65
f 67 68 65
f 68 69 65
f 23 67 66
f 23 66 22
f 69 40 42
f 69 42 65
f 12 36 70
f 72 70 71
f 72 12 70
f 13 12 72
f 70 26 71
f 26 29 71
f 71 29 72
f 30 26 70
f 30 70 36
f 72 15 13
f 29 15 72
f 45 46 73
f 46 74 73
f 7 19 55
f 55 19 75
f 76 77 20
f 54 76 20
f 47 18 17
f 52 47 17
f 67 23 78
f 67 78 68
f 78 43 68
f 68 43 69
f 40 69 43
f 9 23 7
f 77 10 21
f 10 19 21
f 20 77 21
f 41 44 59
f 59 44 60
f 44 79 60
f 60 79 61
f 79 48 61
f 46 16 74
f 55 48 8
f 15 74 16
f 75 53 55
f 11 53 75
f 56 11 76
f 56 53 11
f 76 54 56
f 73 51 45
f 28 51 73
f 32 31 64
f 27 32 64
f 78 80 43
f 78 23 80
f 83 84 81
f 84 82 81
f 83 86 84
f 85 86 83
f 87 92 88
f 90 92 87
f 91 92 90
f 86 85 91
f 91 85 92
f 91 90 89
f 87 122 90
f 95 122 87
f 94 6 93
f 93 6 95
f 6 1 95
f 94 2 6
f 95 1 98
f 94 96 2
f 96 97 2
f 1 5 98
f 5 4 98
f 96 123 97
f 98 4 99
f 4 100 99
f 96 126 123
f 3 100 4
f 124 101 3
f 127 101 124
f 3 101 100
f 126 101 127
f 96 101 126
f 96 103 101
f 102 103 96
f 104 105 102
f 106 105 104
f 77 76 104
f 76 106 104
f 11 106 76
f 104 10 77
f 81 82 107
f 82 108 107
f 48 79 109
f 109 79 44
f 11 108 82
f 11 82 118
f 8 109 108
f 8 108 11
f 107 10 81
f 81 10 110
f 80 9 107
f 107 9 10
f 110 111 81
f 110 102 111
f 113 102 112
f 113 111 102
f 112 94 120
f 112 120 113
f 114 115 117
f 100 115 114
f 105 115 103
f 116 117 105
f 105 117 115
f 116 118 82
f 105 118 116
f 8 10 9
f 11 10 8
f 109 44 108
f 43 107 44
f 44 107 108
f 43 80 107
f 95 87 88
f 93 95 88
f 119 93 88
f 119 88 120
f 94 119 120
f 100 114 121
f 99 100 121
f 99 121 89
f 122 99 89
f 122 89 90
f 101 103 115
f 105 106 118
f 100 101 115
f 99 122 98
f 122 95 98
f 119 94 93
f 106 11 118
f 96 94 112
f 8 48 109
f 102 96 112
f 104 102 110
f 82 84 116
f 110 10 104
f 116 86 117
f 84 86 116
f 9 80 23
f 86 91 114
f 86 114 117
f 121 114 91
f 121 91 89
f 120 88 92
f 92 85 113
f 92 113 120
f 83 81 111
f 85 111 113
f 85 83 111
f 3 125 124
f 127 124 125
f 97 125 2
f 97 123 125
f 123 126 125
f 126 127 125
f 103 102 105
f 128 129 139
f 139 129 130
f 156 147 131
f 147 132 131
f 129 133 130
f 131 132 134
f 130 135 136
f 133 135 130
f 132 137 134
f 137 138 134
f 134 138 139
f 138 128 139
f 132 140 137
f 140 143 137
f 141 142 144
f 137 143 138
f 144 145 146
f 142 145 144
f 143 128 138
f 146 145 147
f 145 148 147
f 147 148 132
f 148 140 132
f 150 145 151
f 151 145 149
f 148 145 150
f 149 145 142
f 143 140 128
f 140 148 128
f 128 148 129
f 129 148 150
f 152 149 153
f 151 149 152
f 153 149 141
f 149 142 141
f 129 150 133
f 133 150 135
f 150 151 135
f 135 151 152
f 141 144 154
f 144 146 154
f 136 152 155
f 135 152 136
f 154 146 156
f 146 147 156
f 152 153 155
f 155 153 157
f 153 141 157
f 157 141 154
f 154 156 131
f 154 131 134
f 154 134 139
f 155 154 139
f 155 139 130
f 155 157 154
f 155 130 136
f 168 158 159
f 184 175 160
f 175 161 160
f 158 162 159
f 160 161 163
f 159 164 165
f 162 164 159
f 161 166 163
f 166 167 163
f 163 167 168
f 167 158 168
f 161 169 166
f 171 172 170
f 170 172 173
f 166 169 167
f 172 174 173
f 174 176 175
f 175 176 161
f 176 169 161
f 178 172 171
f 176 172 178
f 176 174 172
f 158 169 179
f 179 169 177
f 177 176 178
f 169 176 177
f 167 169 158
f 177 178 180
f 180 178 181
f 178 171 181
f 181 171 170
f 158 179 162
f 162 179 164
f 179 177 164
f 164 177 180
f 170 173 182
f 173 174 182
f 165 180 183
f 164 180 165
f 182 174 184
f 174 175 184
f 180 181 183
f 183 181 185
f 181 170 185
f 185 170 182
f 159 163 168
f 183 184 160
f 183 182 184
f 183 185 182
f 183 160 165
f 165 160 163
f 165 163 159
