v 0.015255 -0.068463 0.026438
v 0.015255 -0.069627 0.026136
v 0.015256 0.068456 0.026441
v 0.015254 0.069385 0.01339
v 0.015254 0.070934 0.018208
v 0.015255 0.071962 0.022136
v 0.015255 0.071892 0.023234
v 0.015255 0.071552 0.024291
v 0.015255 0.070877 0.025224
v 0.015255 0.07016 0.025827
v 0.015255 -0.070789 0.025323
v 0.015255 -0.07159 0.024234
v 0.015255 0.069319 0.026235
v 0.015255 -0.066386 0.01107
v 0.015255 0.066307 0.011061
v 0.015255 -0.071973 0.022689
v 0.015255 -0.071856 0.021586
v 0.015254 0.067548 0.011463
v 0.015255 0.068623 0.012245
v 0.015255 -0.069307 0.013206
v 0.015255 -0.068472 0.012109
v 0.015255 -0.067587 0.011488
v 0.015255 -0.070753 0.017618
v -0.015255 -0.068463 0.026438
v -0.015255 -0.069627 0.026136
v -0.015256 0.068456 0.026441
v -0.015254 0.069385 0.01339
v -0.015254 0.070934 0.018208
v -0.015255 0.071962 0.022136
v -0.015255 0.071892 0.023234
v -0.015255 0.071552 0.024291
v -0.015255 0.070877 0.025224
v -0.015255 0.07016 0.025827
v -0.015255 -0.070789 0.025323
v -0.015255 -0.07159 0.024234
v -0.015255 0.069319 0.026235
v -0.015255 -0.066386 0.01107
v -0.015255 0.066307 0.011061
v -0.015255 -0.071973 0.022689
v -0.015255 -0.071856 0.021586
v -0.015254 0.067548 0.011463
v -0.015255 0.068623 0.012245
v -0.015255 -0.069307 0.013206
v -0.015255 -0.068472 0.012109
v -0.015255 -0.067587 0.011488
v -0.015255 -0.070753 0.017618
f 15 3 1
f 26 38 24
f 13 3 6
f 1 2 11
f 11 12 16
f 16 17 11
f 23 20 14
f 21 22 20
f 14 15 1
f 18 19 4
f 4 15 18
f 6 7 13
f 8 9 7
f 10 13 9
f 1 11 17
f 17 23 1
f 22 14 20
f 4 5 15
f 7 9 13
f 3 15 5
f 23 14 1
f 5 6 3
f 45 44 43
f 43 46 37
f 40 39 34
f 35 34 39
f 25 24 34
f 26 36 30
f 33 32 36
f 31 30 32
f 29 26 30
f 27 42 41
f 41 38 27
f 37 45 43
f 46 40 24
f 34 24 40
f 36 32 30
f 29 28 26
f 27 38 28
f 37 46 24
f 24 38 37
f 28 38 26
