v 0.0124631 -0.0352696 -0.00578817
v 0.015256 0.068456 0.026441
v 0.0152543 0.0687352 0.012622
v 0.015255 -0.069917 0.025805
v 0.015255 -0.07159 0.024234
v 0.015255 0.0715708 0.0237213
v 0.00396956 -0.0316684 -0.00669971
v 0.003953 -0.045069 -0.013897
v 0.003291 -0.045057 -0.01449
v 0.00188817 -0.101498 -0.00778017
v 0.00205577 -0.0991189 -0.0142227
v 0.00107259 -0.0998414 -0.00889906
v 0.0015964 -0.0979048 -0.0141008
v 0.0020601 -0.103296 -0.00125464
v 0.00211733 -0.0990101 0.0148887
v 0.002162 -0.096635 0.017181
v 0.015255 -0.066386 0.01107
v 0.01527 -0.028122 0.010087
v 0.015365 -0.031525 0.007769
v 0.015298 0.000291 0.009864
v 0.0155465 0.0279685 0.0092835
v 0.0139774 -0.0292908 -0.00579159
v 0.015255 0.066307 0.011061
v 0.015258 0.030821 0.010738
v 0.015255 -0.0686682 0.0125023
v 0.0148485 -0.0349628 -0.00527424
v 0.0172929 0.0269915 -0.0063418
v 0.0126041 0.0920274 0.0658891
v 0.014138 -0.087286 0.065737
v 0.011452 -0.065813 0.0658
v 0.014056 0.08162 0.065739
v 0.0104024 -0.0668598 0.0659092
v 0.011585 -0.0326278 -0.00869152
v 0.00097704 0.0324787 -0.00794907
v 0.0151958 0.0288597 -0.00783272
v 0.0125937 -0.100317 0.0561567
v 0.00431355 -0.0971589 0.0156124
v 0.0169618 -0.0975755 0.0555976
v 0.0171233 -0.090527 0.0629427
v 0.0119026 -0.0996711 0.0580727
v 0.0176803 -0.0912297 0.0610532
v 0.0178034 -0.0970003 0.0474987
v 0.0178827 -0.0949416 0.035591
v 0.0142212 -0.100056 0.0558729
v 0.0176662 -0.084625 -0.000606789
v 0.01825 -0.084024 0.058013
v 0.017336 -0.08141 0.062831
v 0.0169034 -0.0891637 0.00119982
v 0.0157802 -0.0923175 0.0643548
v 0.0141948 -0.0938051 0.0643864
v 0.017151 -0.073644 -0.005523
v 0.018241 -0.091887 0.054477
v 0.014954 -0.099321 0.056275
v 0.0181884 0.0807479 0.0299288
v 0.0190792 0.0922724 0.0551848
v 0.0183619 0.0892948 0.0596984
v 0.017784 0.070986 0.031289
v 0.01773 -0.068435 0.026809
v 0.0177695 -0.0767807 0.0273143
v 0.0177319 0.0693092 0.0125105
v 0.017924 0.070428 0.012375
v 0.0177067 0.0723109 0.0221524
v 0.017715 0.068578 0.026777
v 0.0240595 0.0878185 0.0155322
v 0.0175824 0.0718123 0.0242097
v 0.0176787 -0.0711651 0.0254308
v 0.0181553 -0.026362 -0.00164569
v 0.0253054 0.0807942 0.00515497
v 0.0247986 0.0834994 0.00806588
v 0.0188504 0.0283695 0.00530325
v 0.0199247 0.0698979 0.00720109
v 0.0176756 0.067368 0.0108227
v 0.0259874 0.0757153 0.00179615
v 0.0189175 0.0739364 0.0120226
v 0.0199138 0.0299184 0.00314545
v 0.0267983 0.072791 0.000655514
v 0.017915 0.066472 0.01015
v 0.017715 -0.065856 0.01073
v 0.017856 -0.026555 0.007797
v 0.017717 0.021817 0.010735
v 0.0180172 0.0255992 0.00782084
v 0.018025 0.031604 0.009856
v 0.0180277 0.0269047 0.00834054
v 0.017721 0.029188 0.010789
v 0.018127 0.035878 0.009753
v 0.0198563 0.0302836 0.00574154
v 0.019478 0.0611836 0.00783811
v 0.0200173 0.0341207 0.00734518
v 0.020129 0.0313057 0.00632627
v 0.018236 0.026297 0.000946
v 0.0184479 0.0672558 0.00909782
v 0.0232548 0.0326284 0.00342081
v 0.0245573 0.0326962 0.00155573
v 0.0286307 0.037126 0.000593883
v 0.0176213 -0.07005 0.0139746
v 0.018267 -0.0681622 0.00975835
v 0.0287867 0.0416755 0.000550406
v 0.018196 0.026323 0.005758
v 0.01774 0.066021 0.010754
v 0.0144864 0.0963129 0.0618031
v 0.0247525 0.0861877 -0.000102693
v 0.0172198 0.0899784 0.0635154
v 0.014037 0.0937253 0.0644845
v 0.0190953 0.0962322 0.0523756
v 0.0162627 0.0960881 0.0604037
v 0.0180911 0.097102 0.0549737
v 0.017357 0.08129 0.062741
v 0.020585 0.0950417 0.0458128
v 0.019721 0.09507 0.010717
v 0.0209016 0.0755892 -0.00822316
v 0.0206166 0.0907884 0.000603419
v 0.0184534 0.0949923 0.00908035
v 0.0143899 0.10043 0.0549971
v 0.017304 0.043313 0.062943
v 0.0138861 -0.0810889 -0.00736199
v 0.00427919 -0.0911521 -0.00192034
v 0.00439967 -0.0858984 -0.0069863
v 0.00436513 -0.0963314 0.00830156
v 0.00397364 -0.099703 -0.0134469
v 0.00397466 -0.101596 -0.0103354
v 0.00373196 -0.0995125 0.0143909
v 0.0169326 0.0271608 0.00790144
v 0.010976 0.030077 -0.006806
v 0.007792 0.031042 -0.006869
v 0.017375 0.01386 0.007827
v 0.016205 -0.027594 0.008316
v 0.016896 -0.027176 -0.006172
v 0.0171027 -0.0270474 0.00787493
v 0.00811 -0.03097 -0.006862
v 0.010683 -0.030169 -0.006816
v 0.0164552 -0.0275728 -0.00669642
v 0.015509 -0.02799 0.009179
v 0.0206749 0.0310515 -0.00481117
v 0.0190174 0.0295063 -0.00504715
v 0.019729 0.030734 -0.006038
v 0.0164933 0.0306167 -0.00805242
v 0.018388 0.0301818 -0.00682074
v 0.0166459 0.0281525 -0.00737268
v 0.027505 0.0351221 -0.00552675
v 0.0268135 0.033362 3.42231e-05
v 0.0283324 0.0380571 -0.0056382
v 0.0248525 0.0327519 -0.00485213
v 0.025632 0.038394 -0.007939
v 0.0254093 0.0338783 -0.0064991
v 0.02669 0.0357994 -0.00710763
v 0.0242725 0.0355269 -0.0079693
v 0.0212778 0.0317597 -0.00614654
v 0.021191 0.03272 -0.007178
v 0.0273764 0.0496113 -0.00730309
v 0.0268213 0.0536402 -0.00757874
v 0.02338 0.072932 -0.00795
v 0.026549 0.0709911 -0.00548524
v 0.0230859 0.0905465 0.00231019
v 0.0221872 0.0921642 0.00447192
v 0.0212813 0.0928542 0.004986
v 0.0221428 0.0939833 0.0105828
v 0.0237681 0.08417 -0.00437538
v 0.0245974 0.0778893 -0.0065191
v 0.0209262 0.0947456 0.01044
v 0.0237618 0.0908344 0.00535331
v 0.0246181 0.0754614 -0.00714912
v 0.021602 0.084521 -0.00511005
v 0.022424 0.083265 -0.005457
v 0.0212307 0.0804543 -0.00708822
v 0.0223 0.088908 -0.000877
v 0.022204 0.0871586 -0.00281337
v 0.0248417 0.084318 -0.0027654
v 0.0179625 0.0984617 0.0278545
v 0.0205948 0.0969385 0.0266847
v 0.0168871 0.0998348 0.0519166
v 0.0166778 0.100008 0.044017
v 0.020792 0.095736 0.016297
v 0.021663 0.095344 0.020693
v 0.0188204 0.0988078 0.0453571
v 0.015167 0.099981 0.054954
v 0.00835758 0.100012 0.0584231
v 0.0184134 0.0984619 0.0514542
v 0.0175835 0.0986622 0.0538325
v 0.0123138 0.0939441 0.064864
v 0.0140285 0.0924576 0.0653701
v 0.01699 0.08179 0.06372
v 0.016388 0.081938 0.064516
v 0.015911 0.081469 0.064952
v 0.01505 0.082673 0.065458
v 0.0166317 0.0906522 0.0642394
v 0.0160775 0.0870164 0.0651045
v 0.0154825 0.0912256 0.0651136
v 0.01631 -0.03331 0.064602
v 0.014583 -0.034303 0.065614
v 0.015383 -0.024853 0.06529
v 0.016963 -0.018127 0.063757
v 0.017315 -0.02 0.062882
v 0.014581 0.067124 0.065625
v 0.015331 0.061962 0.065316
v 0.015853 -0.034746 0.064992
v 0.017148 0.053555 0.063367
v 0.015128 -0.067015 0.065415
v 0.016802 0.047281 0.063997
v 0.016185 0.044497 0.064716
v 0.01651 -0.066272 0.064373
v 0.015503 0.042701 0.06522
v 0.014675 0.043646 0.06559
v 0.014655 0.011121 0.065606
v 0.016661 0.029903 0.064199
v 0.017103 0.034845 0.06347
v 0.0157857 -0.0834265 0.0650973
v 0.0171124 -0.0852032 0.0636426
v 0.015549 0.012329 0.065192
v 0.016297 -0.007437 0.064604
v 0.014955 -0.003743 0.065488
v 0.015789 -0.00754 0.065041
v 0.0164871 -0.0882776 0.0645379
v 0.01558 -0.090158 0.065067
v 0.0140223 -0.0922426 0.0654339
v 0.01665 -0.073747 -0.006529
v 0.016 -0.028388 -0.007301
v 0.015784 -0.073138 -0.007448
v 0.0149 -0.029725 -0.007981
v 0.0145975 -0.0777088 -0.00783409
v 0.016333 -0.0796526 -0.00630253
v 0.0161429 -0.0942816 0.0114316
v 0.0170814 -0.0924432 0.0095604
v 0.0146451 -0.0933595 0.00431692
v 0.0150799 -0.0874698 -0.0036686
v 0.0152686 -0.0848866 -0.0053716
v 0.0156475 -0.0928311 0.00504189
v 0.0168529 -0.0877624 -0.00112164
v 0.014892 -0.081632 -0.00681
v 0.014996 -0.096385 0.01807
v 0.0163204 -0.0842921 -0.0045234
v 0.0154271 -0.0893987 -0.00158604
v 0.0159646 -0.0976225 0.028176
v 0.00774992 -0.0981344 0.0196545
v 0.0162268 -0.0995064 0.0506965
v 0.0167932 -0.0979014 0.0365753
v 0.014264 -0.100417 0.052019
v 0.016261 -0.099032 0.053928
v 0.0171764 -0.0983424 0.0511837
v 0.005779 -0.100242 0.058161
v 0.0012713 -0.0986483 0.0112914
v 0.00226433 -0.101753 0.00985783
v 0.000917464 -0.100004 0.00732379
v 0.00141135 -0.100449 0.00676839
v 0.00142314 -0.0965573 0.0140825
v 0.016093 0.018739 0.00842
v 0.015311 0.021536 0.009674
v 0.016629 0.012795 0.00806
v 0.015631 0.008166 0.008983
v 0.016845 -0.003384 0.007971
v 0.0161043 -0.000159919 0.00841193
v 0.0163162 -0.0169666 0.00825471
v 0.0155798 -0.0149961 0.00900153
v 0.016982 -0.013187 0.007912
v 0.005159 0.031592 -0.006915
v 0.0175855 -0.0675353 0.0112739
v 0.017444 -0.065945 0.010977
v 0.0173334 -0.0721697 0.0227485
v 0.01741 -0.068402 0.026509
v 0.0176156 0.0700142 0.0261496
v 0.0174866 0.0720221 0.0216027
v 0.0174575 0.0681334 0.0114811
v 0.017538 0.041109 0.010963
v 0.017443 0.023103 0.010977
v 0.017603 -0.056093 0.026619
v 0.017514 0.068079 0.026553
v 0.0174953 -0.0702569 0.0259449
v 0.0176368 -0.0722093 0.0225551
v 0.017611 -0.015172 0.010865
v 0.00115534 -0.0969755 -0.0145791
v 0.003617 -0.098799 -0.014237
v 0.00333842 -0.10066 -0.0136005
v 0.00217893 -0.100962 -0.0131597
v 0.00294325 -0.103593 0.000669045
v 0.003127 -0.101995 -0.011076
v 0.00372222 -0.102388 -0.00927916
v 0.00369541 -0.101971 0.0101292
v 0.002213 -0.097242 0.016747
v 0.00260325 -0.10018 0.013845
v 0.00284483 -0.102816 0.00777831
v 0.00225 -0.100399 -0.013606
v 0.00224274 -0.102519 -0.00951439
v 0.001996 -0.096317 0.015827
v 0 -0.095837 0.014079
v 0.000981 -0.09591 0.014282
v 0.001774 -0.096148 0.01514
v 0.001439 -0.096022 0.014664
v -0.01275 -0.036 0.00575
v -0.0128499 -0.0352077 -0.00601841
v -0.015255 -0.069917 0.025805
v -0.015256 0.068456 0.026441
v -0.015254 0.069385 0.01339
v -0.015255 0.0715708 0.0237213
v -0.015255 -0.07159 0.024234
v 0.000996 -0.0319775 -0.006489
v -0.00396683 -0.0316688 -0.00669985
v -0.00972503 -0.0306057 -0.00635062
v 0 -0.097191 0.012589
v 0 -0.099008 -0.010535
v 0 -0.097591 -0.013081
v 0 -0.099604 0.007763
v 0 -0.096429 -0.014425
v 0 -0.099983 0.005358
v 0 -0.045 -0.014448
v 0 -0.095911 0.0139595
v 0 -0.099962 -0.006706
v 0.000769882 -0.100077 -0.00682048
v -0.003953 -0.045069 -0.013897
v -0.003291 -0.045057 -0.01449
v -7.77776e-20 -0.045 -0.00850919
v -0.00114756 -0.0998674 -0.00900521
v -0.000938118 -0.0970774 -0.0142213
v 0 -0.098746 -0.011221
v -0.00087738 -0.0996693 -0.00913206
v 0 -0.097532 -0.013217
v 0 -0.100035 -0.005976
v -0.00199197 -0.101122 0.00889234
v -0.002021 -0.102634 0.006548
v -0.00211189 -0.100277 -0.0135903
v -0.001896 -0.097087 0.019068
v 0.00621096 -0.0986746 0.0609245
v 0.0134742 -0.0916264 0.0658849
v 0.0140772 -0.099854 0.0404248
v -0.015255 -0.066386 0.01107
v -0.015365 -0.031525 0.007769
v -0.01527 -0.028122 0.010087
v -0.015298 0.000291 0.009864
v -0.0153417 -0.0349549 -0.00337459
v -0.015255 0.066307 0.011061
v -0.015255 -0.0686682 0.0125023
v -0.0152545 0.0680855 0.011854
v -0.015258 0.030821 0.010738
v -0.015407 0.028048 0.002368
v -0.0153721 -0.0280753 -0.00414198
v -0.014138 -0.087286 0.065737
v -0.011452 -0.065813 0.0658
v -0.014056 0.08162 0.065739
v -0.0142068 0.0912771 0.0656965
v -0.0106096 -0.0667427 0.0658147
v 0.0111256 0.0666769 0.0658838
v -0.0112216 0.0664607 0.0658043
v -0.0180685 0.0879482 -0.00303791
v 0.00279943 0.0964216 0.0639138
v 0 0.031999 -0.007008
v 0.0078506 0.100498 0.0574389
v 0.0193001 0.0931469 0.00453808
v -0.0259786 0.0361414 -0.00768325
v -0.024783 0.036929 -0.008059
v -0.0115362 0.0309014 -0.00816268
v -0.014102 -0.09921 0.03568
v -0.0153335 -0.099977 0.0473197
v -0.00431355 -0.0971589 0.0156124
v -0.0102267 -0.10042 0.0572426
v -0.013486 -0.100314 0.054619
v -0.0164488 -0.0954428 0.0595907
v -0.0112939 -0.093684 0.0652258
v -0.0104325 -0.0994243 0.0589256
v -0.0173563 -0.0948209 0.0595935
v -0.017501 -0.097528 0.049648
v -0.018061 -0.095806 0.049931
v -0.0172524 -0.0935127 0.0147869
v -0.0178376 -0.0881848 0.00766778
v -0.01825 -0.084024 0.058013
v -0.017336 -0.08141 0.062831
v -0.017634 -0.0767941 -0.00385635
v -0.0155598 -0.0927925 0.0640893
v -0.0181629 -0.0902544 0.0583748
v -0.00134529 -0.0995282 0.0597462
v -0.000246609 -0.0941495 0.0654574
v -0.0176954 -0.0877752 0.0624861
v -0.0179828 0.0777156 0.0267616
v -0.023153 0.0888703 0.0221006
v -0.0194528 0.0928575 0.0524117
v -0.0188918 0.090986 0.0561442
v -0.017784 0.070986 0.031289
v -0.01773 -0.068435 0.026809
v -0.0177204 -0.0716335 0.0252618
v -0.0176187 0.0694945 0.0132167
v -0.0175927 0.0721332 0.0223514
v -0.017715 0.068578 0.026777
v -0.0176156 0.0700142 0.0261496
v -0.0181553 -0.026362 -0.00164569
v -0.0184514 0.0298182 0.00847298
v -0.0180466 0.0674952 0.00979482
v -0.0177208 0.0679542 0.0112419
v -0.020501 0.0774047 0.0115859
v -0.0247013 0.0839333 0.00892377
v -0.0253379 0.0797041 0.00381497
v -0.0200289 0.0694381 0.00697134
v -0.017996 0.073237 0.0140336
v -0.019701 0.0297628 0.00550576
v -0.0177695 -0.0767807 0.0273143
v -0.017785 -0.069357 0.009534
v -0.0263904 0.0802461 0.00100423
v -0.017915 0.066472 0.01015
v -0.017715 -0.065856 0.01073
v -0.017856 -0.026555 0.007797
v -0.017717 0.021817 0.010735
v -0.0179596 0.0266091 0.00762901
v -0.018025 0.031604 0.009856
v -0.017721 0.029188 0.010789
v -0.018127 0.035878 0.009753
v -0.0183183 0.0273987 -0.003079
v -0.0189106 0.0379745 0.00863667
v -0.0206109 0.0357536 0.00683671
v -0.020914 0.032681 0.00605
v -0.021083 0.03382 0.006217
v -0.0227572 0.0326035 0.00401301
v -0.0207647 0.0307271 0.00322299
v -0.021549 0.031365 0.000957
v -0.0259923 0.033372 0.000953842
v -0.0283904 0.0354819 0.000299071
v -0.0282502 0.036696 0.00098656
v -0.0177001 -0.0681606 0.0113993
v -0.0297006 0.0450007 -0.000761006
v -0.0177645 0.0268241 -0.00519904
v -0.01774 0.066021 0.010754
v -0.018732 0.029005 -0.004573
v -0.0286233 0.0386779 -0.00444276
v -0.0266831 0.0338942 -0.00465242
v -0.020628 0.030869 -0.004705
v -0.0223583 0.0316742 -0.0044889
v -0.01745 0.0897198 0.0630599
v -0.0178218 0.0922691 0.0603768
v -0.0160992 0.092229 0.0641368
v -0.018361 0.09154 0.058784
v -0.00591842 0.0999298 0.0589461
v -0.0160112 0.0934804 0.0633839
v -0.0126054 0.0997624 0.0577295
v -0.0167917 0.0993182 0.0544137
v -0.016963 0.098517 0.055283
v -0.017357 0.08129 0.062741
v -0.0180091 0.098208 0.0534145
v -0.0190783 0.0976487 0.05025
v -0.0197198 0.0957234 0.0485912
v -0.0221198 0.0946894 0.0213291
v -0.0224979 0.0765152 -0.00779422
v -0.0218129 0.0880436 -0.00220428
v -0.0207414 0.0926463 0.0038903
v -0.0119969 0.100356 0.0563869
v -0.0193503 0.0979231 0.02755
v -0.0200578 0.095817 0.0137937
v -0.017304 0.043313 0.062943
v -0.00416788 -0.0780978 -0.00881439
v -0.00399974 -0.0901885 -0.00233994
v -0.013889 -0.0885226 -0.00378323
v -0.00399288 -0.100353 -0.0131751
v -0.016932 0.027177 -0.006694
v -0.0169326 0.0271608 0.00790144
v -0.014063 0.028749 -0.006753
v -0.002096 0.031942 -0.006974
v -0.017375 0.01386 0.007827
v -0.0165842 -0.0274765 -0.00665729
v -0.0158394 -0.0278074 0.00858923
v -0.010683 -0.030169 -0.006816
v -0.0196269 0.0301033 -0.005021
v -0.0191371 0.0301604 -0.00594282
v -0.0188067 0.0326096 -0.00786728
v -0.0186927 0.0308875 -0.00712832
v -0.0161092 0.0290709 -0.00790498
v -0.0273764 0.0496113 -0.00730309
v -0.0269745 0.0346943 -0.00586161
v -0.028153 0.037209 -0.005432
v -0.0268213 0.0536402 -0.00757874
v -0.025632 0.038394 -0.007939
v -0.0277839 0.0387867 -0.00679978
v -0.0258784 0.0350133 -0.00714767
v -0.0237709 0.0332642 -0.00675903
v -0.021579 0.0315992 -0.00570328
v -0.025915 0.0744747 -0.00581418
v -0.02338 0.072932 -0.00795
v -0.0246148 0.0777324 -0.00658152
v -0.022777 0.093296 0.011965
v -0.021333 0.092354 0.003964
v -0.0228713 0.0907359 0.00226807
v -0.021898 0.090005 0.000317
v -0.0238727 0.0905413 0.00530508
v -0.0237351 0.0853318 -0.00340889
v -0.0241581 0.0812764 -0.00551056
v -0.0220794 0.093977 0.0100761
v -0.0222373 0.092876 0.00647289
v -0.0245472 0.0756677 -0.00704025
v -0.023966 0.088344 0.000768
v -0.0224201 0.0822437 -0.00600823
v -0.0246303 0.0859252 -0.000879044
v -0.0224999 0.0858769 -0.00377195
v -0.025545 0.078202 -0.004845
v -0.0190295 0.0987237 0.0352246
v -0.020245 0.097198 0.036875
v -0.0187484 0.0987322 0.0466805
v -0.020792 0.095736 0.016297
v -0.0166565 0.100046 0.0514164
v -0.015167 0.099981 0.054954
v -0.0139274 0.0932277 0.0650031
v -0.0131329 0.0936653 0.0650917
v -0.01699 0.08179 0.06372
v -0.016388 0.081938 0.064516
v -0.015911 0.081469 0.064952
v -0.01505 0.082673 0.065458
v -0.0167699 0.0901573 0.0640835
v -0.0160285 0.0901307 0.0650649
v -0.01631 -0.03331 0.064602
v -0.014583 -0.034303 0.065614
v -0.015383 -0.024853 0.06529
v -0.016963 -0.018127 0.063757
v -0.017315 -0.02 0.062882
v -0.014581 0.067124 0.065625
v -0.015331 0.061962 0.065316
v -0.015853 -0.034746 0.064992
v -0.017148 0.053555 0.063367
v -0.015128 -0.067015 0.065415
v -0.016802 0.047281 0.063997
v -0.016185 0.044497 0.064716
v -0.01651 -0.066272 0.064373
v -0.015503 0.042701 0.06522
v -0.014675 0.043646 0.06559
v -0.0169494 -0.0787622 0.0637663
v -0.014655 0.011121 0.065606
v -0.016661 0.029903 0.064199
v -0.017103 0.034845 0.06347
v -0.0160758 -0.080431 0.0648914
v -0.015549 0.012329 0.065192
v -0.016297 -0.007437 0.064604
v -0.014955 -0.003743 0.065488
v -0.015789 -0.00754 0.065041
v -0.015753 -0.086839 0.065123
v -0.0165782 -0.0881775 0.0643825
v -0.0144466 -0.0918253 0.065556
v -0.0135538 -0.0942288 0.0643831
v -0.0158159 -0.0914995 0.0646953
v -0.01665 -0.073747 -0.006529
v -0.016 -0.028388 -0.007301
v -0.015784 -0.073138 -0.007448
v -0.0149 -0.029725 -0.007981
v -0.00921478 -0.0326569 -0.00843972
v -0.0157813 -0.0791613 -0.00702207
v -0.016654 -0.081967 -0.004944
v -0.0157871 -0.0943113 0.0100867
v -0.0147906 -0.0867334 -0.00461166
v -0.0144053 -0.0935019 0.00491024
v -0.0145242 -0.0793587 -0.00774729
v -0.015767 -0.083193 -0.00566
v -0.0173571 -0.086001 -0.000380387
v -0.014892 -0.081632 -0.00681
v -0.0165113 -0.0918424 0.00493273
v -0.0150074 -0.0913798 0.000935626
v -0.016269 -0.082344 -0.005387
v -0.0164566 -0.0897891 0.000933784
v -0.0157482 -0.0884907 -0.00208625
v -0.0162713 -0.0862499 -0.00340568
v -0.0155256 -0.0977122 0.0270475
v -0.0144086 -0.0971826 0.0211086
v -0.0165436 -0.0986555 0.0396387
v -0.0168246 -0.0987987 0.0487838
v -0.0164107 -0.0991318 0.0527747
v -0.0147534 -0.0999375 0.0554033
v -0.0158024 -0.099226 0.0550533
v -0.0174306 -0.0720329 0.0221165
v -0.000837584 -0.0974322 0.0127248
v 6.91523e-05 -0.0982652 0.0109637
v -0.00205549 -0.0988474 0.0146595
v -0.00165509 -0.0975062 0.0136674
v 0 -0.10003 0.005375
v -0.00152691 -0.101152 0.00324656
v 0 -0.096256 0.013725
v 0 -0.09983 0.006889
v -0.000917464 -0.100004 0.00732379
v -0.015311 0.021536 0.009674
v -0.0163436 0.00691915 0.00820047
v -0.0164746 -0.00833095 0.00814462
v -0.0157497 0.00235774 0.0087365
v -0.016982 -0.013187 0.007912
v -0.0171027 -0.0270474 0.00787493
v -0.00652572 0.0313626 -0.00688536
v -0.017444 -0.065945 0.010977
v -0.017464 -0.070752 0.017356
v -0.0174289 -0.0717927 0.0239388
v -0.01741 -0.068402 0.026509
v -0.0173947 -0.070567 0.0257158
v -0.0175953 0.0715868 0.0245581
v -0.0174977 0.0675176 0.0112501
v -0.017538 0.041109 0.010963
v -0.017443 0.023103 0.010977
v -0.017603 -0.056093 0.026619
v -0.017514 0.068079 0.026553
v -0.0177215 -0.072002 0.0188564
v -0.0174284 -0.0684414 0.0118172
v -0.017611 -0.015172 0.010865
v -0.003617 -0.098799 -0.014237
v -0.00361877 -0.100797 -0.0131156
v -0.00348145 -0.102025 -0.0110579
v -0.003797 -0.102235 -0.009019
v -0.00372817 -0.103032 -0.00275962
v -0.00377813 -0.100554 0.012584
v -0.00273914 -0.101808 0.0110337
v -0.00317659 -0.0987901 0.0155632
v -0.00356373 -0.102646 0.00824159
v -0.00396 -0.098091 0.015073
v -0.00324748 -0.0993336 -0.0143596
v -0.00198974 -0.0986511 -0.0143241
v -0.00255808 -0.0976888 0.0165629
v -0.00251551 -0.103512 0.000924369
v -0.00221556 -0.103178 -0.00513258
v -0.00238854 -0.101752 -0.0119773
v -0.002197 -0.099622 -0.01407
v -0.0021619 -0.102123 -0.0097089
v -0.002025 -0.101992 -0.010446
v 0 -0.095812 0.014056
v -0.002652 -0.0966805 0.0171975
v -0.001996 -0.096317 0.015827
v -0.002002 -0.096551 0.016849
v 0 -0.097208 0.019633
v -0.000981 -0.09591 0.014282
v -0.001439 -0.096022 0.014664
v -0.001774 -0.096148 0.01514
v 0.0102574 0.0669577 0.0585271
v 0.00968132 -0.0669763 0.058531
v -0.0112197 -0.0664366 0.0584177
v 0.0113995 0.0659442 0.0584111
v 0.0113512 -0.0661363 0.0584098
v -0.0112034 0.0663842 0.0584168
v 0.008989 -0.0342895 0.001004
v 0.01275 -0.036 0.00575
v 0.010838 -0.033951 0.001002
v -0.002815 -0.034363 0.001007
v -0.00899 -0.03429 0.0010055
v -0.010838 -0.033951 0.001004
v -0.012598 -0.036 0.00575
v -0.0126 -0.035944 0.005587
v -0.012603 -0.035842 0.005385
v 0.01259 -0.03594 0.005575
v 0.012589 -0.035828 0.005351
v 0.015241 0.028 0.007225
v 0.015302 0.027933 0.00859
v 0.01518 0.027845 0.009001
v 0.015161 0.027716 0.009309
v -0.004458 0.031707 0.001
v -0.010312 0.0302465 0.001
v -0.012392 0.029509 0.001
v 0.008439 0.030893 0.001
v 0.00439 0.031715 0.001
v 0.0134405 0.0290137 0.001001
v -0.015208 0.028157 0.002054
v -0.014696 0.0284275 0.001
v -0.015432 0.027803 0.007562
v -0.015444 0.027784 0.007961
v 0.015201 0.028068 0.00565
v 0.015143 0.028193 0.001951
v -0.01571 0.027878 0.008903
v -0.015161 0.027722 0.009274
v -0.015156 0.02772 0.00932
v 0.002006 0.031922 0.001001
v 0.001417 0.031973 0.001001
v -0.0029035 0.031844 0.001
f 1 26 22
f 8 9 303
f 8 303 309
f 312 314 269
f 298 12 306
f 10 13 11
f 10 12 13
f 12 312 269
f 299 269 314
f 301 269 299
f 298 312 12
f 10 11 272
f 306 12 10
f 305 306 315
f 269 13 12
f 20 18 17
f 22 26 19
f 21 246 24
f 246 20 24
f 24 20 17
f 24 17 23
f 32 29 30
f 321 29 32
f 339 31 28
f 29 31 30
f 30 31 339
f 33 117 309
f 146 136 34
f 146 34 110
f 236 36 352
f 611 16 233
f 16 37 233
f 43 222 45
f 227 45 48
f 238 42 38
f 38 52 41
f 50 38 49
f 42 52 38
f 38 41 49
f 207 46 47
f 41 46 207
f 41 39 49
f 40 44 50
f 320 40 50
f 44 53 50
f 53 38 50
f 57 59 58
f 55 56 57
f 59 41 52
f 60 54 62
f 63 57 58
f 54 60 61
f 58 59 66
f 54 65 62
f 54 55 57
f 259 57 63
f 55 54 108
f 108 74 64
f 59 57 46
f 41 59 46
f 259 65 54
f 46 57 56
f 54 57 259
f 74 108 54
f 61 74 54
f 45 51 67
f 68 69 71
f 79 78 96
f 82 83 85
f 86 83 70
f 83 87 85
f 89 88 83
f 87 83 88
f 86 89 83
f 66 59 267
f 82 85 77
f 42 59 52
f 96 95 59
f 74 69 64
f 43 59 42
f 81 80 79
f 85 87 91
f 67 79 96
f 67 96 45
f 78 79 80
f 80 81 84
f 82 84 83
f 98 70 83
f 90 70 98
f 99 77 72
f 87 71 91
f 83 84 81
f 89 92 88
f 70 75 86
f 267 59 95
f 92 94 88
f 86 75 89
f 75 92 89
f 84 77 99
f 82 77 84
f 97 88 94
f 140 94 92
f 71 87 76
f 76 87 88
f 77 85 91
f 75 93 92
f 133 93 75
f 43 45 59
f 59 45 96
f 60 72 61
f 91 71 72
f 74 72 71
f 72 74 61
f 140 92 93
f 255 96 78
f 88 97 76
f 73 71 76
f 69 74 71
f 73 68 71
f 77 91 72
f 133 75 134
f 140 139 94
f 93 142 140
f 75 70 27
f 93 133 142
f 27 70 90
f 97 94 141
f 69 101 64
f 68 101 69
f 160 64 101
f 179 103 100
f 76 152 73
f 73 152 68
f 152 101 68
f 106 104 177
f 108 104 55
f 177 104 108
f 179 176 342
f 179 100 176
f 102 56 104
f 102 104 106
f 56 55 104
f 106 185 102
f 105 185 106
f 341 111 162
f 168 109 112
f 114 56 107
f 47 46 114
f 46 56 114
f 219 117 33
f 223 118 116
f 115 117 219
f 223 37 118
f 117 8 309
f 119 8 117
f 118 37 121
f 120 116 118
f 119 117 116
f 119 116 120
f 98 83 90
f 90 83 27
f 83 122 27
f 122 21 27
f 81 122 83
f 79 125 81
f 22 126 131
f 131 126 127
f 127 128 67
f 126 128 127
f 128 79 67
f 22 129 7
f 22 130 129
f 22 131 130
f 18 132 19
f 19 126 22
f 132 126 19
f 138 137 27
f 149 152 141
f 139 141 94
f 144 145 139
f 145 149 141
f 145 150 149
f 139 145 141
f 143 150 145
f 147 142 133
f 146 143 145
f 137 133 134
f 135 133 137
f 75 27 134
f 137 134 27
f 136 138 35
f 139 140 144
f 144 146 145
f 144 140 142
f 147 133 135
f 147 144 142
f 136 146 137
f 137 138 136
f 147 148 144
f 146 144 148
f 137 148 147
f 135 137 147
f 137 146 148
f 76 97 141
f 152 76 141
f 161 152 149
f 151 150 143
f 151 143 146
f 110 151 146
f 161 158 152
f 153 156 160
f 111 155 154
f 112 109 159
f 345 155 111
f 154 156 153
f 154 159 156
f 112 159 155
f 155 159 154
f 167 153 160
f 153 111 154
f 162 166 157
f 150 161 149
f 150 151 161
f 165 111 153
f 167 160 101
f 163 162 157
f 164 163 157
f 157 165 153
f 157 153 167
f 166 111 165
f 155 345 112
f 166 165 157
f 161 110 158
f 151 110 161
f 159 172 156
f 162 111 166
f 167 101 152
f 158 157 167
f 164 162 163
f 158 164 157
f 110 164 158
f 158 167 152
f 174 169 168
f 168 159 109
f 170 174 171
f 100 113 344
f 108 174 177
f 178 106 177
f 64 160 173
f 172 159 168
f 169 156 172
f 174 168 171
f 108 169 174
f 170 171 113
f 177 174 170
f 178 177 170
f 175 170 113
f 105 178 170
f 175 105 170
f 178 105 106
f 100 175 113
f 100 105 175
f 176 100 344
f 342 176 344
f 156 173 160
f 169 172 168
f 108 64 173
f 173 156 169
f 108 173 169
f 342 180 179
f 342 28 180
f 183 186 184
f 28 186 187
f 102 107 56
f 105 100 187
f 100 103 180
f 180 187 100
f 180 103 179
f 186 28 31
f 28 187 180
f 187 185 105
f 181 107 102
f 102 186 181
f 181 186 182
f 183 182 186
f 102 185 186
f 31 184 186
f 187 186 185
f 192 47 114
f 191 47 192
f 196 181 198
f 194 184 193
f 200 191 188
f 114 107 196
f 194 193 202
f 201 194 202
f 195 197 206
f 201 199 183
f 201 202 203
f 205 114 198
f 198 199 204
f 198 181 182
f 206 29 321
f 204 199 209
f 203 193 31
f 203 202 193
f 211 210 190
f 205 192 114
f 189 190 210
f 203 31 29
f 209 208 211
f 195 200 188
f 191 204 209
f 191 192 205
f 200 195 206
f 210 203 189
f 189 203 29
f 197 29 206
f 191 209 188
f 190 188 211
f 190 195 188
f 184 31 193
f 184 194 183
f 196 107 181
f 199 198 182
f 199 182 183
f 183 194 201
f 207 191 200
f 200 206 207
f 207 47 191
f 204 191 205
f 198 114 196
f 198 204 205
f 209 211 188
f 201 203 208
f 208 199 201
f 199 208 209
f 208 203 210
f 211 208 210
f 197 190 189
f 197 195 190
f 197 189 29
f 212 207 206
f 207 212 41
f 39 41 212
f 212 206 321
f 49 213 214
f 213 212 321
f 321 214 213
f 49 39 212
f 49 212 213
f 50 49 214
f 214 321 368
f 320 50 214
f 320 214 368
f 127 51 215
f 127 67 51
f 131 127 215
f 216 215 217
f 216 131 215
f 218 216 217
f 218 217 219
f 218 219 33
f 45 227 220
f 217 220 219
f 215 220 217
f 51 220 215
f 51 45 220
f 222 221 226
f 231 116 117
f 225 117 115
f 225 115 228
f 48 222 226
f 45 222 48
f 223 116 231
f 231 226 223
f 227 226 231
f 48 226 227
f 37 223 229
f 224 231 117
f 225 224 117
f 225 231 224
f 230 231 225
f 226 221 223
f 230 227 231
f 220 227 230
f 219 228 115
f 220 225 228
f 220 228 219
f 220 230 225
f 232 233 229
f 232 322 233
f 235 234 232
f 232 234 236
f 234 238 38
f 238 235 42
f 36 236 44
f 36 40 239
f 235 222 43
f 233 37 229
f 234 235 238
f 232 221 222
f 42 235 43
f 322 232 236
f 237 234 38
f 53 44 38
f 44 237 38
f 44 234 237
f 236 234 44
f 40 36 44
f 320 239 40
f 36 239 352
f 352 239 320
f 232 222 235
f 221 232 223
f 232 229 223
f 559 564 297
f 562 242 565
f 240 244 559
f 559 244 564
f 241 244 240
f 565 242 300
f 241 15 244
f 300 242 559
f 10 241 243
f 10 14 241
f 243 240 242
f 242 240 559
f 241 240 243
f 10 243 306
f 243 242 306
f 242 562 306
f 306 562 315
f 245 21 122
f 249 247 125
f 20 246 248
f 20 248 252
f 252 248 250
f 253 125 79
f 249 250 247
f 247 122 125
f 125 122 81
f 252 126 132
f 252 251 126
f 249 125 253
f 245 248 21
f 251 249 253
f 252 18 20
f 251 252 250
f 251 250 249
f 128 253 79
f 253 128 251
f 132 18 252
f 126 251 128
f 248 246 21
f 250 245 247
f 248 245 250
f 245 122 247
f 136 124 254
f 136 254 34
f 35 124 136
f 35 123 124
f 138 27 35
f 218 131 216
f 33 131 218
f 33 130 131
f 33 129 130
f 33 7 129
f 33 294 7
f 95 255 25
f 255 17 25
f 256 17 255
f 257 95 25
f 5 257 25
f 258 266 4
f 4 266 5
f 266 257 5
f 265 258 2
f 258 4 2
f 6 259 2
f 259 265 2
f 260 65 6
f 65 259 6
f 261 260 3
f 3 260 6
f 23 261 3
f 23 262 261
f 17 256 263
f 23 17 263
f 23 263 262
f 264 63 58
f 264 258 265
f 63 264 265
f 264 58 258
f 266 258 58
f 265 259 63
f 266 58 66
f 266 66 257
f 260 62 65
f 257 66 267
f 62 260 60
f 60 260 261
f 257 267 95
f 96 255 95
f 72 60 261
f 256 255 78
f 72 261 99
f 268 263 256
f 261 262 99
f 268 256 78
f 263 268 80
f 262 84 99
f 80 268 78
f 84 263 80
f 84 262 263
f 26 622 19
f 1 622 26
f 270 269 9
f 270 9 8
f 119 270 8
f 119 271 270
f 269 270 271
f 275 274 271
f 275 273 14
f 120 271 119
f 120 275 271
f 276 273 275
f 118 275 120
f 118 276 275
f 121 37 16
f 118 121 276
f 276 279 273
f 121 278 276
f 9 301 303
f 269 301 9
f 121 16 277
f 15 121 277
f 278 121 15
f 241 276 278
f 279 276 241
f 275 14 281
f 274 275 281
f 271 281 272
f 271 274 281
f 271 272 280
f 271 280 11
f 269 271 11
f 269 11 13
f 272 11 280
f 14 10 281
f 10 272 281
f 279 241 14
f 273 279 14
f 15 241 278
f 244 282 285
f 244 283 564
f 15 16 282
f 15 282 244
f 307 303 308
f 307 309 303
f 305 310 306
f 299 298 312
f 312 311 314
f 310 313 306
f 299 312 314
f 298 306 313
f 563 605 310
f 313 310 311
f 318 599 310
f 605 318 310
f 313 311 312
f 299 314 311
f 301 299 311
f 315 563 310
f 298 313 312
f 310 599 311
f 305 315 310
f 605 316 317
f 318 605 606
f 326 323 325
f 333 324 327
f 648 331 567
f 567 331 326
f 331 323 326
f 331 328 323
f 327 288 333
f 333 288 296
f 32 338 334
f 338 335 334
f 321 32 334
f 321 334 527
f 339 28 336
f 28 337 336
f 339 336 340
f 334 335 336
f 335 340 336
f 309 534 33
f 443 534 309
f 348 110 34
f 347 436 110
f 347 110 348
f 346 347 348
f 236 353 350
f 322 236 350
f 611 233 551
f 611 551 319
f 322 350 349
f 233 322 349
f 319 551 608
f 236 352 353
f 608 551 351
f 556 354 357
f 360 359 361
f 366 357 369
f 356 355 528
f 359 357 366
f 358 357 359
f 367 320 368
f 528 365 354
f 367 368 356
f 354 365 357
f 365 529 357
f 368 355 356
f 369 363 362
f 555 528 354
f 555 354 556
f 374 375 391
f 370 374 373
f 391 366 369
f 377 378 370
f 379 375 374
f 375 376 391
f 370 378 579
f 370 373 389
f 380 379 374
f 372 371 389
f 391 362 374
f 372 389 373
f 369 362 391
f 370 389 377
f 380 370 579
f 362 373 374
f 370 380 374
f 385 389 371
f 394 384 383
f 387 385 386
f 392 364 542
f 396 392 395
f 399 401 382
f 382 401 403
f 403 404 382
f 405 390 382
f 390 398 382
f 404 406 382
f 399 394 401
f 411 407 412
f 404 412 407
f 359 366 391
f 401 383 403
f 392 391 585
f 388 387 393
f 585 413 392
f 398 396 397
f 407 390 405
f 361 392 542
f 386 385 371
f 381 392 396
f 381 364 392
f 395 397 396
f 397 400 382
f 399 382 400
f 415 398 402
f 416 384 394
f 398 397 382
f 390 402 398
f 390 407 408
f 382 406 405
f 405 406 407
f 376 585 391
f 407 406 404
f 410 408 407
f 400 416 394
f 399 400 394
f 388 404 403
f 394 383 401
f 414 412 388
f 409 408 410
f 359 391 361
f 391 392 361
f 384 377 383
f 388 383 389
f 389 387 388
f 383 377 389
f 410 407 411
f 413 395 392
f 414 388 393
f 404 388 412
f 385 387 389
f 383 388 403
f 412 414 418
f 420 455 408
f 408 455 390
f 412 418 411
f 409 421 408
f 421 420 408
f 455 417 390
f 410 411 419
f 417 402 390
f 410 419 421
f 410 421 409
f 371 435 476
f 386 371 476
f 387 386 476
f 393 387 476
f 426 494 342
f 494 427 493
f 422 425 373
f 427 494 428
f 414 393 469
f 428 429 427
f 371 372 434
f 494 426 428
f 422 423 425
f 433 372 425
f 433 425 423
f 425 372 373
f 427 430 432
f 372 433 434
f 427 429 430
f 431 422 373
f 427 423 422
f 424 427 422
f 427 432 423
f 432 433 423
f 434 433 435
f 371 434 435
f 162 483 341
f 345 111 438
f 341 437 438
f 164 436 483
f 112 345 438
f 438 111 341
f 164 483 162
f 438 441 112
f 436 164 110
f 440 487 168
f 441 440 168
f 487 491 171
f 441 168 112
f 168 487 171
f 491 439 113
f 439 344 113
f 491 113 171
f 442 431 373
f 363 442 362
f 362 442 373
f 445 540 443
f 445 443 444
f 539 445 444
f 539 444 351
f 443 309 307
f 596 351 444
f 446 596 444
f 446 443 307
f 596 593 351
f 446 444 443
f 398 415 448
f 415 447 448
f 648 447 332
f 448 447 648
f 447 642 332
f 396 398 451
f 333 452 453
f 452 381 572
f 453 452 572
f 572 381 396
f 296 454 452
f 325 324 453
f 333 296 452
f 324 333 453
f 415 459 447
f 411 461 419
f 460 465 414
f 411 418 462
f 461 465 346
f 465 460 463
f 464 465 463
f 346 465 464
f 347 346 464
f 465 462 418
f 346 457 467
f 461 411 462
f 461 462 465
f 456 415 455
f 417 415 402
f 348 459 457
f 466 461 346
f 467 461 466
f 421 419 468
f 346 467 466
f 461 468 419
f 468 456 455
f 467 468 461
f 415 417 455
f 346 348 457
f 456 458 415
f 458 459 415
f 457 459 458
f 468 420 421
f 455 420 468
f 458 468 467
f 458 467 457
f 458 456 468
f 414 465 418
f 469 460 414
f 470 464 463
f 470 347 464
f 436 347 470
f 472 476 435
f 476 472 479
f 480 476 479
f 474 476 480
f 438 474 473
f 438 479 441
f 438 475 474
f 438 480 479
f 473 480 438
f 469 471 481
f 460 469 481
f 473 474 480
f 482 484 476
f 478 477 483
f 484 393 476
f 482 476 474
f 481 471 436
f 463 460 481
f 463 481 470
f 477 484 482
f 437 474 475
f 474 477 482
f 483 477 485
f 477 474 437
f 470 481 436
f 485 477 437
f 475 438 437
f 477 393 484
f 441 479 490
f 478 393 477
f 341 485 437
f 341 483 485
f 471 486 393
f 471 393 478
f 486 469 393
f 471 478 483
f 436 471 483
f 471 469 486
f 433 488 435
f 491 487 489
f 433 432 429
f 440 490 479
f 487 435 488
f 488 489 487
f 489 488 433
f 429 491 489
f 429 489 433
f 492 439 491
f 439 492 428
f 492 491 429
f 429 432 430
f 428 492 429
f 426 439 428
f 426 344 439
f 342 344 426
f 479 472 435
f 440 441 490
f 435 440 479
f 440 435 487
f 499 424 422
f 497 498 500
f 424 493 427
f 493 424 500
f 500 336 337
f 337 493 500
f 493 337 494
f 337 28 494
f 499 500 424
f 494 28 342
f 495 422 431
f 422 495 500
f 495 496 500
f 497 500 496
f 422 500 499
f 336 500 498
f 505 442 363
f 504 505 363
f 509 511 495
f 507 506 498
f 513 501 504
f 442 509 431
f 507 515 506
f 514 515 507
f 508 520 510
f 514 497 512
f 514 517 515
f 513 516 520
f 519 511 442
f 511 518 512
f 511 496 495
f 520 527 334
f 518 522 512
f 517 336 506
f 517 506 515
f 524 503 523
f 519 442 505
f 502 523 503
f 517 334 336
f 522 524 521
f 508 501 513
f 504 522 518
f 504 519 505
f 513 520 508
f 523 502 517
f 502 334 517
f 510 520 334
f 504 501 522
f 503 524 501
f 503 501 508
f 498 506 336
f 498 497 507
f 509 495 431
f 512 496 511
f 512 497 496
f 497 514 507
f 516 513 504
f 516 504 363
f 518 519 504
f 511 509 442
f 511 519 518
f 522 501 524
f 514 521 517
f 521 514 512
f 512 522 521
f 521 523 517
f 524 523 521
f 510 502 503
f 510 503 508
f 510 334 502
f 516 369 520
f 526 520 369
f 363 369 516
f 520 526 525
f 321 527 355
f 368 321 355
f 525 527 520
f 528 527 529
f 365 528 529
f 526 527 525
f 529 526 369
f 529 369 357
f 529 527 526
f 355 527 528
f 452 530 364
f 452 364 381
f 531 532 530
f 531 530 452
f 533 532 531
f 533 540 532
f 533 443 540
f 534 443 533
f 364 535 536
f 532 540 535
f 530 532 535
f 364 530 535
f 537 539 351
f 544 537 360
f 549 541 538
f 538 540 445
f 544 539 537
f 538 543 540
f 544 545 539
f 545 445 539
f 361 544 360
f 538 445 545
f 547 545 544
f 538 541 543
f 351 551 537
f 542 547 544
f 542 544 361
f 548 545 547
f 548 538 545
f 549 548 547
f 542 549 547
f 549 538 548
f 546 541 549
f 536 549 542
f 535 540 543
f 364 536 542
f 536 546 549
f 535 543 541
f 535 541 546
f 536 535 546
f 357 358 553
f 554 357 553
f 350 552 550
f 556 357 554
f 553 359 552
f 350 555 552
f 555 554 552
f 360 552 359
f 550 551 233
f 552 554 553
f 552 360 537
f 349 550 233
f 349 350 550
f 359 553 358
f 555 556 554
f 352 528 555
f 555 350 353
f 356 528 352
f 352 555 353
f 367 356 352
f 320 367 352
f 550 552 537
f 550 537 551
f 559 297 558
f 316 561 560
f 316 558 561
f 558 297 564
f 302 300 565
f 562 302 565
f 562 565 566
f 297 304 564
f 565 300 566
f 300 559 566
f 563 566 316
f 566 558 316
f 566 559 558
f 316 605 563
f 566 563 562
f 563 315 562
f 315 305 302
f 562 315 302
f 570 448 648
f 569 451 568
f 326 570 567
f 571 396 451
f 569 568 570
f 568 451 448
f 451 398 448
f 570 453 569
f 569 571 451
f 570 326 325
f 572 396 571
f 571 569 572
f 453 570 325
f 453 572 569
f 570 648 567
f 570 568 448
f 34 343 450
f 447 459 449
f 348 34 450
f 348 450 573
f 459 348 449
f 533 531 452
f 534 533 452
f 534 452 454
f 534 454 296
f 534 296 295
f 534 295 294
f 534 294 33
f 586 329 323
f 574 586 323
f 557 329 575
f 575 329 586
f 293 329 576
f 576 329 557
f 577 289 578
f 289 293 578
f 578 293 576
f 584 290 577
f 577 290 289
f 292 290 380
f 380 290 584
f 378 292 579
f 579 292 380
f 377 291 378
f 291 292 378
f 328 330 580
f 330 291 377
f 580 330 377
f 328 580 581
f 323 582 574
f 328 582 323
f 328 581 582
f 583 375 379
f 583 584 577
f 379 584 583
f 583 577 375
f 578 375 577
f 584 379 380
f 578 376 375
f 576 376 578
f 557 585 576
f 576 585 376
f 575 586 585
f 575 585 557
f 586 413 585
f 384 580 377
f 395 413 586
f 574 395 586
f 384 416 580
f 587 574 582
f 580 416 581
f 587 395 574
f 582 397 587
f 581 416 400
f 397 395 587
f 400 397 582
f 400 582 581
f 327 324 287
f 288 327 287
f 588 308 598
f 588 307 308
f 446 307 588
f 446 598 589
f 446 588 598
f 446 591 592
f 590 601 592
f 591 590 592
f 590 591 446
f 590 446 589
f 596 446 592
f 600 608 351
f 595 600 351
f 596 594 593
f 597 595 351
f 592 601 596
f 597 351 593
f 593 595 597
f 598 308 311
f 308 303 301
f 311 308 301
f 593 594 595
f 590 602 601
f 590 603 602
f 589 603 590
f 589 318 603
f 598 318 589
f 598 604 318
f 598 599 604
f 598 311 599
f 318 604 599
f 605 603 606
f 605 602 603
f 606 603 318
f 605 317 602
f 596 317 316
f 600 595 560
f 317 601 602
f 610 600 560
f 596 316 594
f 601 317 596
f 560 594 316
f 560 595 594
f 613 561 558
f 561 613 614
f 558 612 613
f 558 283 612
f 560 614 609
f 304 283 564
f 16 15 277
f 244 285 286
f 244 286 284
f 244 284 283
f 610 608 600
f 558 564 283
f 560 609 610
f 560 561 614
f 304 607 283
f 620 619 618
f 340 615 339
f 338 616 617
f 340 617 620
f 339 615 618
f 30 619 32
f 339 619 30
f 335 338 617
f 620 617 619
f 616 619 617
f 618 615 620
f 340 620 615
f 32 619 616
f 338 32 616
f 340 335 617
f 339 618 619
f 288 626 296
f 287 627 628
f 296 625 295
f 295 625 294
f 621 22 7
f 641 123 35
f 647 35 27
f 646 27 21
f 653 573 450
f 640 124 639
f 651 652 34
f 628 629 287
f 639 124 123
f 631 630 622
f 447 643 642
f 7 294 621
f 287 626 288
f 296 626 625
f 1 22 623
f 1 623 622
f 643 447 449
f 621 623 22
f 652 343 34
f 637 348 573
f 636 637 573
f 647 641 35
f 123 641 639
f 449 637 638
f 638 643 449
f 640 34 254
f 332 642 644
f 644 645 648
f 648 649 650
f 648 332 644
f 21 635 634
f 633 632 21
f 21 634 633
f 647 27 646
f 632 646 21
f 343 653 450
f 653 636 573
f 640 254 124
f 640 651 34
f 637 449 348
f 624 621 294
