v 0.0636072 0.0194764 0.096035
v 0.0610158 0.0150977 0.09602
v 0.061956 0.017534 0.096035
v 0.057614 0.012053 0.096026
v 0.063767 0.018637 0.096029
v 0.065096 0.020169 0.096029
v 0.065714 0.021876 0.096035
v 0.068555 0.024967 0.096035
v 0.069816 0.026338 0.096035
v 0.0709696 0.0264396 0.0960057
v 0.069019 0.024502 0.096029
v 0.056859 0.0110175 0.095778
v 0.0580824 0.0116009 0.0960256
v 0.0570034 0.0100571 0.0955401
v 0.0557523 0.009444 0.0943402
v 0.055053 0.008426 0.092301
v 0.0554938 0.00782815 0.0919712
v 0.054707 0.007915 0.090243
v 0.054541 0.007668 0.088615
v 0.054456 0.007541 0.087203
v 0.054417 0.007483 0.086558
v 0.054819 0.00720166 0.087786
v 0.054359 0.007396 0.08413
v 0.073177 0.029846 0.093751
v 0.073184 0.029851 0.093756
v 0.073426 0.030098 0.093026
v 0.069814 0.02634 0.096035
v 0.070171 0.026717 0.096022
v 0.070794 0.027371 0.095942
v 0.070792 0.027371 0.095926
v 0.07084 0.027419 0.095928
v 0.070995 0.027584 0.095894
v 0.071451 0.028059 0.095737
v 0.071447 0.028056 0.095722
v 0.071584 0.028198 0.095666
v 0.071622 0.028238 0.095656
v 0.071859 0.028484 0.095519
v 0.071853 0.028478 0.0955
v 0.072089 0.028722 0.095332
v 0.072168 0.028806 0.095288
v 0.072346 0.028989 0.095122
v 0.072341 0.028984 0.095112
v 0.072503 0.029151 0.094938
v 0.072512 0.029161 0.094938
v 0.07263 0.029281 0.094789
v 0.07262 0.029272 0.094776
v 0.072824 0.029482 0.09447
v 0.072842 0.0295 0.094464
v 0.072929 0.029591 0.094311
v 0.073144 0.02981 0.093839
v 0.07314 0.029808 0.093862
v 0.073863 0.030544 0.090343
v 0.07376 0.030442 0.09129
v 0.07373 0.030409 0.091415
v 0.073702 0.030383 0.091699
v 0.07367 0.030347 0.091905
v 0.073661 0.030341 0.091902
v 0.073451 0.030124 0.092908
v 0.073453 0.030128 0.092922
v 0.073978 0.030666 0.087138
v 0.073976 0.030664 0.087399
v 0.073981 0.030664 0.087138
v 0.073949 0.030637 0.08834
v 0.073934 0.030616 0.089266
v 0.073923 0.03061 0.089265
v 0.073929 0.030611 0.089343
v 0.073913 0.030599 0.089621
v 0.073847 0.030532 0.09034
v 0.073977 0.03066 0.086871
v 0.073975 0.030663 0.086871
v 0.073961 0.030643 0.086385
v 0.073917 0.030599 0.085114
v 0.073971 0.030659 0.086615
v 0.073837 0.030522 0.084219
v 0.073906 0.030593 0.085115
v 0.073781 0.03046 0.08373
v 0.073766 0.03045 0.083734
v 0.073773 0.030453 0.083685
v 0.073625 0.030305 0.082756
v 0.07357 0.030246 0.082471
v 0.073566 0.030246 0.082472
v 0.073387 0.030059 0.081757
v 0.073274 0.029943 0.081316
v 0.073521 0.0302 0.082255
v 0.073147 0.029817 0.080937
v 0.073041 0.029704 0.080646
v 0.073028 0.029695 0.080656
v 0.072943 0.029603 0.080433
v 0.07272 0.029378 0.079931
v 0.072636 0.029289 0.079769
v 0.072627 0.029283 0.079778
v 0.072477 0.029125 0.079521
v 0.072246 0.028889 0.079144
v 0.0721197 0.0287549 0.0789659
v 0.072147 0.028787 0.079026
v 0.072058 0.028694 0.078919
v 0.0719 0.028527 0.078728
v 0.071707 0.028331 0.078502
v 0.07149 0.028101 0.078296
v 0.071481 0.028095 0.078315
v 0.071268 0.027869 0.078136
v 0.071062 0.027659 0.077967
v 0.0708361 0.0274171 0.0778241
v 0.070848 0.027434 0.07785
v 0.070763 0.027345 0.077803
v 0.070403 0.026962 0.077604
v 0.063619 0.019458 0.096035
v 0.062407 0.018054 0.096035
v 0.069481 0.025986 0.096035
v 0.0656915 0.0218545 0.096035
v 0.067846 0.024229 0.096035
v 0.067934 0.024324 0.096035
v 0.0704 0.026964 0.077604
v 0.070058 0.026604 0.077454
v 0.069182 0.025668 0.077068
v 0.069181 0.025669 0.077068
v 0.065882 0.022056 0.075594
v 0.065286 0.021403 0.075328
v 0.06849 0.024933 0.076763
v 0.065291 0.021399 0.075328
v 0.061523 0.017025 0.073593
v 0.061521 0.017027 0.073593
v 0.062092 0.017712 0.073861
v 0.064685 0.020729 0.075056
v 0.064604 0.020639 0.07502
v 0.062383 0.01806 0.073996
v 0.061511 0.017015 0.073588
v 0.061513 0.017013 0.073588
v 0.054443 0.007523 0.087127
v 0.054425 0.007496 0.086557
v 0.054357 0.007398 0.08413
v 0.054366 0.007411 0.08473
v 0.060484 0.015755 0.073198
v 0.06121 0.01665 0.073456
v 0.060487 0.015757 0.073179
v 0.060911 0.016275 0.073348
v 0.060169 0.015366 0.073087
v 0.059496 0.014514 0.072946
v 0.059729 0.014813 0.072986
v 0.05855 0.013294 0.072902
v 0.058548 0.013296 0.072903
v 0.058815 0.013643 0.072894
v 0.059317 0.014285 0.072926
v 0.059426 0.014425 0.072955
v 0.059358 0.014338 0.072928
v 0.059551 0.014586 0.072968
v 0.058104 0.012705 0.072977
v 0.057789 0.012289 0.07303
v 0.058525 0.013266 0.072903
v 0.057788 0.01229 0.073036
v 0.0569314 0.0110257 0.0734046
v 0.056892 0.011072 0.073439
v 0.056983 0.011195 0.073395
v 0.057295 0.011619 0.073235
v 0.057531 0.011943 0.073126
v 0.05753 0.01194 0.073116
v 0.057618 0.012062 0.073084
v 0.05774 0.012226 0.073044
v 0.056444 0.010446 0.073805
v 0.056324 0.010273 0.073917
v 0.056289 0.01023 0.073932
v 0.055931 0.009716 0.07435
v 0.056881 0.011057 0.073445
v 0.056618 0.010686 0.073651
v 0.0564357 0.010427 0.0737956
v 0.055796 0.009527 0.074535
v 0.05578 0.009497 0.074592
v 0.055474 0.00906 0.075096
v 0.0554249 0.00898295 0.0751561
v 0.055375 0.008917 0.075269
v 0.05534 0.008858 0.075381
v 0.055103 0.008516 0.075936
v 0.055099 0.008504 0.075928
v 0.055031 0.00841 0.076112
v 0.05497 0.008312 0.076347
v 0.054818 0.008094 0.076881
v 0.054711 0.007933 0.07727
v 0.054651 0.007836 0.07764
v 0.054579 0.007735 0.078039
v 0.054571 0.007715 0.078032
v 0.0545 0.007616 0.078503
v 0.054432 0.007506 0.079195
v 0.054425 0.007503 0.079329
v 0.054416 0.007483 0.079325
v 0.054385 0.007435 0.079774
v 0.054385 0.007442 0.079775
v 0.054377 0.007431 0.079857
v 0.054346 0.007377 0.081138
v 0.054344 0.00738 0.081138
v 0.054347 0.007378 0.081574
v 0.054344 0.00738 0.081574
v 0.054344 0.007381 0.081716
v 0.054351 0.007383 0.082853
v 0.05435 0.007389 0.082853
v 0.054353 0.007392 0.083248
v 0.0664756 0.021053 0.0863131
v 0.071085 0.025281 0.088131
v 0.0716095 0.0254796 0.0931142
v 0.06887 0.023081 0.090942
v 0.0709493 0.0248626 0.0927523
v 0.0668472 0.0211883 0.088924
v 0.0673106 0.0217269 0.0898475
v 0.06708 0.0215242 0.0897169
v 0.0669058 0.0213829 0.089485
v 0.0668163 0.0213186 0.0892677
v 0.0667823 0.0213901 0.0879645
v 0.0664128 0.0210852 0.0873307
v 0.0677008 0.0218428 0.0898936
v 0.0678821 0.0222639 0.0898375
v 0.06649 0.0209904 0.0894912
v 0.0669043 0.0211459 0.0900396
v 0.067071 0.021457 0.090251
v 0.067239 0.021609 0.090316
v 0.06726 0.021628 0.090323
v 0.067341 0.021701 0.090354
v 0.0679609 0.022289 0.090356
v 0.0695099 0.0237384 0.0902914
v 0.069005 0.022932 0.0898986
v 0.0703336 0.0243891 0.0903589
v 0.0707645 0.0249 0.0901218
v 0.0710029 0.0251374 0.089765
v 0.0711392 0.0252856 0.0893378
v 0.0711646 0.0253402 0.0886598
v 0.0730229 0.027029 0.087254
v 0.0731772 0.0271543 0.0889797
v 0.0711868 0.0253744 0.0857351
v 0.0714526 0.0253005 0.0860083
v 0.0709888 0.0251546 0.0844991
v 0.0709232 0.0249966 0.0843187
v 0.0729431 0.026923 0.0851528
v 0.070543 0.0247599 0.0840168
v 0.0707553 0.0249306 0.0841756
v 0.067044 0.021537 0.082825
v 0.0699266 0.0241844 0.0838821
v 0.0679419 0.0219692 0.0795078
v 0.060108 0.0149677 0.0812982
v 0.0607523 0.0152032 0.0788911
v 0.0633101 0.0172779 0.0773649
v 0.0600948 0.0148506 0.0808224
v 0.0601138 0.0151621 0.0846821
v 0.0605291 0.0151103 0.0898468
v 0.0604019 0.0151013 0.0888151
v 0.0673048 0.0213418 0.0925827
v 0.0658033 0.02015 0.0913874
v 0.0622748 0.0164454 0.091863
v 0.0697085 0.0239502 0.0890485
v 0.0691385 0.0234474 0.0896661
v 0.070849 0.0251084 0.0878513
v 0.070109 0.024389 0.088411
v 0.0707739 0.0249646 0.0893216
v 0.0705183 0.0247103 0.0897215
v 0.0701782 0.0243895 0.0898864
v 0.066329 0.0210192 0.0856426
v 0.0707914 0.0250182 0.0856747
v 0.0704382 0.024701 0.0855412
v 0.0702517 0.0244992 0.08438
v 0.0706411 0.0248582 0.0847176
v 0.0670648 0.0217399 0.0864017
v 0.0666959 0.0213512 0.0851805
v 0.0670168 0.0216132 0.0845161
v 0.0689852 0.0233631 0.0842149
v 0.068161 0.0226136 0.0839965
v 0.067712 0.0222321 0.084402
v 0.0669082 0.0215601 0.0861864
v 0.07059 0.0246934 0.0856928
v 0.0687556 0.0231827 0.0848671
v 0.0702106 0.0245084 0.0874939
v 0.0670109 0.0215852 0.0839814
v 0.0695907 0.0239246 0.0884988
v 0.0682373 0.0223961 0.0887056
v 0.068783 0.023141 0.08934
v 0.0672725 0.0218649 0.0876543
v 0.067983 0.022475 0.088147
v 0.0595928 0.0114404 0.077078
v 0.0629198 0.0169226 0.0773709
v 0.0625167 0.0163502 0.0769727
v 0.0619002 0.0158282 0.0771403
v 0.060653 0.014911 0.078348
v 0.0598856 0.0143043 0.0795738
v 0.0599899 0.0145476 0.0798052
v 0.0595627 0.0140087 0.0808955
v 0.0590396 0.010898 0.0792313
v 0.059605 0.012986 0.079183
v 0.059385 0.011763 0.078819
v 0.0627672 0.0154261 0.0752951
v 0.0619509 0.0145874 0.0755572
v 0.0604863 0.0125325 0.0755602
v 0.0614415 0.0142956 0.076136
v 0.0604014 0.0128536 0.0766138
v 0.0610283 0.0151141 0.0777376
v 0.0699321 0.0237354 0.0795443
v 0.0655809 0.019459 0.0779431
v 0.06528 0.0184 0.07647
v 0.0633986 0.016526 0.076183
v 0.0713747 0.0252331 0.080468
v 0.0681678 0.0218933 0.0785854
v 0.0728378 0.0266219 0.080457
v 0.0727107 0.0266168 0.0825959
v 0.0746453 0.0284248 0.0839659
v 0.07361 0.027514 0.089629
v 0.0737876 0.0276756 0.0892339
v 0.0740929 0.027872 0.0935075
v 0.0729821 0.0268904 0.0915435
v 0.0735877 0.027353 0.0943935
v 0.071225 0.0249767 0.0939786
v 0.0733686 0.0271633 0.0810425
v 0.0742606 0.0280433 0.0817688
v 0.0700687 0.0238851 0.0934027
v 0.0745791 0.0283807 0.0869519
v 0.0640189 0.0168075 0.0949294
v 0.0660822 0.0200639 0.092802
v 0.0669674 0.0204439 0.0938032
v 0.0628525 0.0168344 0.0924545
v 0.0629819 0.0163849 0.093178
v 0.0632831 0.0161572 0.0939979
v 0.0669578 0.0202772 0.0945416
v 0.067005 0.020314 0.094538
v 0.0596915 0.0115648 0.0923743
v 0.0602827 0.0146294 0.0901496
v 0.0603 0.014914 0.089122
v 0.0618421 0.0155162 0.0924698
v 0.0629102 0.0155435 0.0945304
v 0.0608888 0.0130479 0.0941222
v 0.0610688 0.0134024 0.093713
v 0.0614461 0.0140773 0.0934327
v 0.058923 0.010474 0.09008
v 0.0600035 0.0118934 0.0934264
v 0.0593226 0.0111101 0.091334
v 0.0613328 0.0153051 0.0919215
v 0.059874 0.012297 0.091533
v 0.060225 0.012652 0.092246
v 0.058583 0.010014 0.082598
v 0.0596699 0.0143858 0.0865833
v 0.059844 0.0148 0.085251
v 0.0586692 0.0101303 0.0871064
v 0.0584756 0.00977204 0.0843949
v 0.0591012 0.0114826 0.0854301
v 0.0590919 0.0111346 0.0875532
v 0.0627929 0.0153772 0.0742285
v 0.0601492 0.012018 0.0736407
v 0.0616458 0.0139599 0.0737458
v 0.0577677 0.00869456 0.0750396
v 0.0571716 0.00801355 0.0754048
v 0.0564081 0.00688751 0.0778489
v 0.0569526 0.00733095 0.0794817
v 0.0593128 0.0108054 0.0758198
v 0.058701 0.0100333 0.0797365
v 0.0575998 0.00826744 0.0839541
v 0.065263 0.018292 0.075352
v 0.0711441 0.0248488 0.0791059
v 0.07116 0.024815 0.078003
v 0.0673932 0.0206883 0.0770627
v 0.0728373 0.0265939 0.0789192
v 0.0743621 0.028169 0.0817511
v 0.0731404 0.026883 0.0794402
v 0.0739492 0.027737 0.0939869
v 0.074261 0.0280624 0.0934626
v 0.0629397 0.015547 0.0953215
v 0.067056 0.020266 0.095367
v 0.070449 0.024061 0.095367
v 0.0595148 0.0112184 0.0953611
v 0.0612287 0.0134312 0.0953439
v 0.060013 0.0118544 0.0947634
v 0.0568503 0.00722406 0.0869888
v 0.057303 0.00775929 0.0906707
v 0.0563323 0.00678055 0.0886781
v 0.0575417 0.00815359 0.0923876
v 0.0578951 0.00888315 0.0941953
v 0.0583983 0.00967146 0.095035
v 0.0578665 0.00901094 0.0947594
v 0.0589389 0.0104463 0.095327
v 0.057118 0.007516 0.084097
v 0.056179 0.006536 0.081714
v 0.0609094 0.0146266 0.0731064
v 0.0559455 0.00655465 0.0795523
v 0.0556926 0.00691067 0.0780455
v 0.0562432 0.00733039 0.0765791
v 0.0571566 0.00842222 0.0748825
v 0.0579234 0.00933528 0.0741435
v 0.0583407 0.0102416 0.0736248
v 0.061734 0.014333 0.073581
v 0.062767 0.015622 0.073987
v 0.062775 0.015611 0.073993
v 0.0614639 0.0155038 0.0733166
v 0.058759 0.011245 0.0732207
v 0.0574813 0.00998694 0.0736732
v 0.0565951 0.00864945 0.0747136
v 0.0562182 0.00846408 0.0750394
v 0.0556833 0.00754172 0.076521
v 0.0551233 0.00689736 0.0790998
v 0.055709 0.00651068 0.0812156
v 0.055178 0.006712 0.081138
v 0.067122 0.020663 0.075999
v 0.067118 0.020659 0.075998
v 0.067114 0.020674 0.075993
v 0.065188 0.018451 0.075114
v 0.064924 0.018163 0.074989
v 0.062866 0.015721 0.074035
v 0.07109 0.024977 0.077767
v 0.066806 0.021063 0.075772
v 0.06355 0.018037 0.074272
v 0.0721727 0.0266535 0.078228
v 0.0715524 0.0269464 0.0779124
v 0.074042 0.0280641 0.0807041
v 0.0743893 0.0290677 0.0821693
v 0.074057 0.0293373 0.0817404
v 0.0748556 0.0288131 0.0839909
v 0.0747217 0.0297685 0.0857277
v 0.0740716 0.0294649 0.081745
v 0.0734709 0.0287281 0.0800981
v 0.0737181 0.0293075 0.0809563
v 0.0727356 0.0280707 0.0789747
v 0.072051 0.0272535 0.0782347
v 0.0709256 0.0259611 0.0775791
v 0.066054 0.021249 0.075465
v 0.0613035 0.0156528 0.0732821
v 0.0748109 0.0290759 0.09071
v 0.074998 0.029044 0.087558
v 0.0739927 0.0282249 0.0940711
v 0.0729976 0.0282718 0.0951176
v 0.0732513 0.0275323 0.0950274
v 0.0727251 0.0267452 0.0953407
v 0.070792 0.025365 0.09584
v 0.0735299 0.0287578 0.0944277
v 0.0741708 0.0297468 0.0922496
v 0.073712 0.029124 0.093927
v 0.0743193 0.0292806 0.0926927
v 0.0745703 0.0299901 0.0888656
v 0.0722064 0.0275684 0.0956441
v 0.0744631 0.0301504 0.086293
v 0.074331 0.03006 0.084417
v 0.0725641 0.0281493 0.0788201
v 0.0713144 0.0270129 0.0778399
v 0.0715662 0.0256937 0.095672
v 0.064627 0.017794 0.095612
v 0.064271 0.017397 0.095612
v 0.064274 0.018137 0.095839
v 0.0587176 0.011072 0.0958139
v 0.0626817 0.0154981 0.0956119
v 0.058386 0.0116205 0.0960035
v 0.059081 0.012517 0.096004
v 0.063922 0.018486 0.096004
v 0.065258 0.020027 0.096004
v 0.069397 0.024599 0.096004
v 0.063931 0.018497 0.096004
v 0.0719898 0.0274767 0.0957411
v 0.0727876 0.0284008 0.0951997
v 0.0728136 0.029448 0.0945797
v 0.0744628 0.0299964 0.0898644
v 0.0737101 0.0296313 0.0933681
v 0.0581107 0.0105464 0.0957812
v 0.0583399 0.0101809 0.0956091
v 0.0575945 0.00888907 0.0947584
v 0.0565439 0.00830868 0.093875
v 0.0564055 0.00764653 0.0925517
v 0.0566953 0.00759815 0.0924449
v 0.0559488 0.00686892 0.089104
v 0.0560601 0.00661162 0.087194
v 0.0550008 0.00682037 0.084777
v 0.0554299 0.00671093 0.0871617
v 0.0555333 0.00737724 0.0908699
v 0.057215 0.00961 0.095324
v 0.0566174 0.00894823 0.0946643
v 0.057704 0.010693 0.095872
v 0.0607844 0.0148677 0.0730941
v 0.0587552 0.012484 0.072898
v 0.0599342 0.0140601 0.0729483
v 0.0564307 0.00926826 0.0743142
v 0.0548107 0.00807155 0.0768585
v 0.0548088 0.00709142 0.0792509
v 0.0547814 0.00694722 0.0812034
v 0.0548617 0.00692187 0.0847986
v 0.06287 0.015714 0.074038
v 0.062815 0.015563 0.074035
v 0.062904 0.015671 0.074076
v 0.062905 0.015671 0.074077
v 0.062816 0.015562 0.074036
v 0.062908 0.015667 0.07408
v 0.062844 0.015519 0.074091
v 0.062933 0.015627 0.074132
v 0.062844 0.015519 0.074092
v 0.062934 0.015625 0.074135
v 0.062858 0.015484 0.074158
v 0.062946 0.01559 0.074198
v 0.062858 0.015483 0.074158
v 0.062947 0.015589 0.074201
v 0.062947 0.01559 0.074199
v 0.065227 0.018402 0.075155
v 0.0720635 0.0259456 0.078235
v 0.071127 0.024927 0.077807
v 0.067156 0.02061 0.076038
v 0.065254 0.018356 0.075212
v 0.065266 0.018319 0.075279
v 0.0716988 0.0254617 0.0781056
v 0.071164 0.024841 0.07793
v 0.0716659 0.0253815 0.0781173
v 0.071152 0.024879 0.077863
v 0.067194 0.020526 0.076161
v 0.067182 0.020564 0.076094
v 0.0561781 0.00655559 0.0798767
v 0.056016 0.00646874 0.081137
v 0.0560725 0.0065336 0.0796986
v 0.057036 0.007992 0.075437
v 0.0576644 0.00882029 0.0745612
v 0.0584247 0.00979019 0.0739766
v 0.0588598 0.0104408 0.0736649
v 0.0599154 0.0117918 0.0734588
v 0.0602755 0.0122363 0.0735011
v 0.061777 0.014288 0.073624
v 0.059442 0.011297 0.073437
v 0.0598892 0.0123067 0.0731743
v 0.0563264 0.0068831 0.0777376
v 0.0567006 0.00746121 0.0763024
v 0.0577616 0.00885913 0.0745932
v 0.0610714 0.013391 0.073444
v 0.061809 0.014248 0.07368
v 0.061827 0.014217 0.073747
v 0.0746836 0.0284954 0.0831644
v 0.0749915 0.0289063 0.085675
v 0.0739518 0.0277684 0.0804735
v 0.0726552 0.0265299 0.0786469
v 0.074957 0.0287722 0.0875842
v 0.0749451 0.0287878 0.0852472
v 0.0750061 0.0288726 0.0868066
v 0.0750189 0.0289456 0.0871271
v 0.072391 0.026188 0.078497
v 0.0735565 0.0274011 0.0797523
v 0.0736296 0.0276987 0.0798109
v 0.074398 0.028339 0.0817
v 0.0743331 0.0281327 0.0814855
v 0.074567 0.028513 0.08236
v 0.056094 0.006487 0.08114
v 0.0561315 0.00650229 0.0811374
v 0.0749903 0.028967 0.0888014
v 0.0711195 0.0247531 0.0953353
v 0.0717083 0.0255196 0.0955382
v 0.0715931 0.0252856 0.0954361
v 0.0750015 0.0288581 0.0875575
v 0.0726495 0.0263871 0.095201
v 0.0717052 0.0259574 0.095755
v 0.0734581 0.0274026 0.0948287
v 0.0738887 0.0277034 0.0942417
v 0.0741026 0.0280518 0.0939274
v 0.0744685 0.0282529 0.0927891
v 0.074473 0.028417 0.092898
v 0.0747493 0.0285739 0.0915937
v 0.0734219 0.0272286 0.0947789
v 0.0730282 0.0268125 0.0950631
v 0.0749236 0.0287864 0.0900363
v 0.056122 0.0065 0.081714
v 0.055992 0.00647 0.081715
v 0.056004 0.006488 0.084124
v 0.056059 0.006478 0.081715
v 0.056071 0.006496 0.084123
v 0.056134 0.006518 0.084121
v 0.070438 0.024071 0.095442
v 0.064319 0.017355 0.095569
v 0.064384 0.017301 0.095442
v 0.062925 0.015561 0.095442
v 0.064358 0.017323 0.095511
v 0.062899 0.015583 0.095511
v 0.06286 0.015615 0.095569
v 0.070413 0.024094 0.095511
v 0.070377 0.024129 0.095569
v 0.0564419 0.00713394 0.0908716
v 0.0566645 0.00718421 0.0909548
v 0.0562297 0.00677174 0.0887247
v 0.056198 0.006612 0.086665
v 0.0562905 0.0067159 0.0879247
v 0.056134 0.00659 0.086669
v 0.0628246 0.0154886 0.0955171
v 0.0581693 0.00957187 0.0952503
v 0.057117 0.00795 0.093227
v 0.0586044 0.0100674 0.0954046
v 0.0592087 0.0108476 0.0954467
v 0.0569248 0.00775063 0.0928988
v 0.0574287 0.0084209 0.0940923
v 0.0581349 0.00940459 0.0950779
v 0.0623374 0.014864 0.0954749
v 0.060206 0.0121518 0.0954258
v 0.0591487 0.0109198 0.0955734
v 0.0591828 0.0108849 0.0955204
v 0.0620718 0.0147083 0.0955924
v 0.0609202 0.0130953 0.0954797
v 0.058081 0.01139 0.073129
v 0.0549369 0.00683961 0.0805447
v 0.0552751 0.00721273 0.0776197
v 0.0557482 0.00799138 0.0758035
v 0.056842 0.009696 0.07394
v 0.0549764 0.00679727 0.0807313
v 0.0577681 0.0107981 0.0959246
v 0.0571849 0.010069 0.0955901
v 0.0570143 0.00995462 0.0955066
v 0.0563936 0.00921333 0.0947772
v 0.0559377 0.00862217 0.0938786
v 0.0557049 0.00800554 0.0926708
v 0.0552747 0.00754445 0.0907927
v 0.055138 0.007242 0.089292
v 0.0693191 0.0231677 0.0898674
v 0.070344 0.0241332 0.0899089
v 0.0701562 0.0239272 0.0903586
v 0.0706815 0.0244176 0.0902799
v 0.070652 0.0244727 0.0897972
v 0.0708931 0.024622 0.090154
v 0.0708865 0.024615 0.0898361
v 0.0711654 0.0248913 0.089806
v 0.0709642 0.0247273 0.0893848
v 0.0712966 0.0250266 0.0894632
v 0.0710284 0.0248016 0.0890392
v 0.071026 0.024804 0.088904
v 0.0710091 0.0248011 0.0885182
v 0.0713752 0.0251232 0.0888448
v 0.0712651 0.0250429 0.088018
v 0.0686707 0.0226337 0.0896564
v 0.069178 0.023049 0.089988
v 0.0668468 0.0209982 0.0883077
v 0.0666126 0.0207763 0.0885669
v 0.067011 0.02109 0.0892956
v 0.0666335 0.0207581 0.0890209
v 0.0666794 0.0207762 0.0893044
v 0.066801 0.020855 0.089656
v 0.0672982 0.0213114 0.0897754
v 0.0669462 0.0209636 0.0899158
v 0.067598 0.0215316 0.0903627
v 0.0676485 0.0216282 0.0898999
v 0.06817 0.022077 0.090305
v 0.0668493 0.0210529 0.0862909
v 0.0670536 0.0212711 0.086467
v 0.067611 0.0217175 0.0881841
v 0.067256 0.0214449 0.0870565
v 0.0670234 0.0212249 0.0874059
v 0.0677778 0.0219218 0.0880362
v 0.0684274 0.0228237 0.088289
v 0.0679351 0.0222332 0.0890472
v 0.0676902 0.0221176 0.0892396
v 0.0706066 0.024433 0.0876464
v 0.0696824 0.0235733 0.0890477
v 0.0691367 0.0230334 0.0895214
v 0.070881 0.0246982 0.0869692
v 0.0710111 0.0248147 0.0857368
v 0.0714489 0.0255148 0.0860377
v 0.0713571 0.025112 0.0853281
v 0.0708843 0.0248543 0.0849935
v 0.0713428 0.0251086 0.0857205
v 0.0708796 0.0246666 0.084706
v 0.07129 0.0250375 0.0848014
v 0.0706818 0.024463 0.0840079
v 0.070839 0.024608 0.084105
v 0.0709551 0.0247176 0.0841876
v 0.0705673 0.0243785 0.0844132
v 0.0702053 0.0240334 0.0839173
v 0.0706008 0.024388 0.0839771
v 0.0696391 0.0235292 0.0843425
v 0.0690167 0.0229875 0.0846782
v 0.0695163 0.0234269 0.0840808
v 0.06894 0.022949 0.084939
v 0.0675936 0.0217645 0.086292
v 0.0684199 0.0224724 0.0848346
v 0.0687637 0.0227954 0.0850646
v 0.0682761 0.0223087 0.0841105
v 0.0681184 0.0221714 0.0842285
v 0.0673671 0.0215225 0.0844329
v 0.067274 0.021441 0.084491
v 0.0672788 0.0214209 0.0839894
v 0.067214 0.021389 0.084528
v 0.0671492 0.021333 0.0845896
v 0.0669144 0.0211084 0.0842823
v 0.0670129 0.0212167 0.0847884
v 0.066844 0.021049 0.084372
v 0.0666563 0.0211089 0.0844524
v 0.0669147 0.0211368 0.0851036
v 0.0665224 0.0209759 0.0847971
v 0.066887 0.021119 0.08547
v 0.066896 0.021128 0.085581
v 0.0665522 0.0208163 0.0855316
v 0.066924 0.021157 0.0859279
v 0.066645 0.020901 0.086204
v 0.07094 0.0251841 0.0875207
v 0.067533 0.021909 0.086463
v 0.016021 0.060696 0.073253
v 0.0166893 0.0622174 0.0736885
v 0.0264048 0.0709647 0.0776199
v 0.026964 0.070399 0.077606
v 0.00773742 0.0556728 0.0761237
v 0.013109 0.058406 0.072916
v 0.0140896 0.0602497 0.072944
v 0.014701 0.05964 0.072972
v 0.0113781 0.0582266 0.0731186
v 0.012023 0.057589 0.073096
v 0.011321 0.057073 0.073335
v 0.0108235 0.0567145 0.073591
v 0.0103162 0.0573874 0.073542
v 0.009296 0.055637 0.074822
v 0.009832 0.056983 0.073858
v 0.00914067 0.0564451 0.0744003
v 0.0080575 0.054794 0.0769755
v 0.00810233 0.0557514 0.0756965
v 0.00741 0.054364 0.080466
v 0.0071667 0.055089 0.0781646
v 0.00741 0.054366 0.084583
v 0.00684549 0.0549009 0.0811614
v 0.00688905 0.0549619 0.0860542
v 0.0075745 0.054478 0.087676
v 0.00740231 0.0551581 0.0901281
v 0.00832275 0.0549835 0.09186
v 0.007906 0.054701 0.090184
v 0.007946 0.054728 0.090387
v 0.008846 0.055339 0.093382
v 0.009225 0.055599 0.09411
v 0.00816622 0.0558196 0.0931331
v 0.009772 0.055978 0.094869
v 0.009993 0.056132 0.09508
v 0.00904367 0.0564326 0.0946801
v 0.0106035 0.056563 0.095552
v 0.0106159 0.0576287 0.0958751
v 0.011103 0.05692 0.095813
v 0.011518 0.05722 0.095954
v 0.01087 0.057741 0.095923
v 0.011152 0.057951 0.095959
v 0.012249 0.05776 0.096032
v 0.0300764 0.0745376 0.086109
v 0.0297097 0.0744012 0.0834213
v 0.03029 0.0736095 0.0827005
v 0.029456 0.072796 0.080089
v 0.029993 0.073318 0.081476
v 0.0281852 0.0715682 0.078447
v 0.0283564 0.0728583 0.0792149
v 0.0270641 0.0716241 0.0779748
v 0.0273415 0.0720741 0.0782701
v 0.027514 0.070925 0.077899
v 0.0116201 0.0582982 0.0960176
v 0.0184658 0.062759 0.0960323
v 0.0178842 0.0634969 0.0960031
v 0.0257934 0.0704135 0.0960172
v 0.026505 0.06997 0.096028
v 0.0288553 0.073397 0.0945141
v 0.027705 0.071111 0.0958475
v 0.028036 0.071427 0.095735
v 0.0272214 0.071749 0.0958478
v 0.0286345 0.072003 0.095416
v 0.0278761 0.0724729 0.0954914
v 0.0282852 0.0728945 0.0951592
v 0.0292445 0.0725935 0.0948015
v 0.030049 0.073376 0.093188
v 0.0296135 0.0729515 0.0942495
v 0.0303915 0.0737105 0.0915505
v 0.0297954 0.0742902 0.0915774
v 0.0306145 0.0739275 0.085696
v 0.0300045 0.07446 0.0898728
v 0.0306245 0.0739375 0.089082
v 0.0169826 0.0629617 0.0774333
v 0.0180258 0.0630838 0.0830727
v 0.014825 0.0600432 0.0809847
v 0.024835 0.070624 0.0891386
v 0.0248441 0.0706139 0.0886381
v 0.0216309 0.0674553 0.0921375
v 0.0227408 0.068485 0.0886329
v 0.0213829 0.0670136 0.0881312
v 0.020925 0.066226 0.08625
v 0.0265206 0.0724744 0.088638
v 0.0230555 0.0688559 0.0878949
v 0.027153 0.073207 0.0900622
v 0.0264717 0.0725191 0.0891343
v 0.0240016 0.0699231 0.0860507
v 0.0235491 0.0693728 0.0853397
v 0.0269047 0.0729492 0.0841689
v 0.0153885 0.0610614 0.0783506
v 0.0233514 0.0692163 0.0807035
v 0.0159988 0.0616589 0.0912233
v 0.0151324 0.0604276 0.0889564
v 0.0156146 0.0612968 0.0910803
v 0.0148771 0.0598889 0.0852153
v 0.00648111 0.0561032 0.0817813
v 0.00651192 0.0561374 0.0839443
v 0.006518 0.056134 0.084121
v 0.006496 0.056071 0.084123
v 0.006488 0.056004 0.084124
v 0.00648639 0.0559833 0.0840968
v 0.00645942 0.0559905 0.0812207
v 0.00937 0.0579955 0.0951234
v 0.0108183 0.0591968 0.0954243
v 0.006574 0.056062 0.086539
v 0.006544 0.055969 0.085485
v 0.0105289 0.0589755 0.0954298
v 0.0103551 0.0587011 0.0955381
v 0.00971189 0.0583794 0.0952496
v 0.00870961 0.0576605 0.0944457
v 0.00862864 0.0574237 0.094463
v 0.00844416 0.057087 0.094175
v 0.00789863 0.0570809 0.0932161
v 0.0075409 0.0567834 0.0923404
v 0.00701365 0.0564855 0.0901571
v 0.006581 0.055995 0.086542
v 0.006765 0.056119 0.088589
v 0.006757 0.056186 0.088584
v 0.00715119 0.0564326 0.090946
v 0.00958795 0.0582022 0.0952492
v 0.00823668 0.057342 0.0937894
v 0.00670916 0.0562562 0.0880239
v 0.006581 0.056129 0.086536
v 0.0108687 0.0592223 0.0954631
v 0.0108546 0.0591035 0.0955703
v 0.010954 0.059106 0.09561
v 0.015552 0.062937 0.095367
v 0.0146792 0.0622141 0.0954193
v 0.011748 0.05971 0.095611
v 0.0113608 0.0595522 0.0955246
v 0.0135724 0.0613171 0.0954521
v 0.0149869 0.062358 0.0955656
v 0.0131374 0.0608419 0.095582
v 0.015583 0.062899 0.095511
v 0.015561 0.062925 0.095442
v 0.017756 0.064586 0.095612
v 0.020819 0.067261 0.095612
v 0.020777 0.067309 0.095569
v 0.020297 0.067022 0.095367
v 0.0190066 0.0659077 0.0944659
v 0.017301 0.064384 0.095442
v 0.024172 0.07033 0.095612
v 0.024129 0.070377 0.095569
v 0.024094 0.070413 0.095511
v 0.024071 0.070438 0.095442
v 0.0249689 0.071203 0.0955444
v 0.020743 0.067346 0.095511
v 0.020721 0.067371 0.095442
v 0.02071 0.067383 0.095367
v 0.0168719 0.0638881 0.0955798
v 0.017323 0.064358 0.095511
v 0.0263876 0.0724135 0.0954369
v 0.026345 0.072471 0.095386
v 0.0270167 0.073089 0.0951166
v 0.028828 0.074989 0.087137
v 0.028824 0.074986 0.087137
v 0.028784 0.074949 0.089067
v 0.028898 0.075012 0.087136
v 0.028896 0.075011 0.087136
v 0.028857 0.074973 0.089071
v 0.028933 0.074978 0.089075
v 0.0284752 0.0746606 0.0919516
v 0.028622 0.07479 0.091067
v 0.029326 0.0749136 0.0888801
v 0.028795 0.0748175 0.0910848
v 0.028381 0.074576 0.0921323
v 0.0274357 0.0736619 0.094435
v 0.0276443 0.0738008 0.094436
v 0.028694 0.074813 0.091079
v 0.0282598 0.0744125 0.0931385
v 0.0278684 0.0740526 0.093947
v 0.0271477 0.0733623 0.0948444
v 0.026162 0.0724097 0.0953184
v 0.0258386 0.0721243 0.0952867
v 0.028841 0.074958 0.085295
v 0.0287473 0.0749471 0.0862118
v 0.025424 0.07171 0.078172
v 0.0262101 0.0723682 0.0784351
v 0.026191 0.072393 0.078499
v 0.025426 0.07171 0.078167
v 0.025509 0.071676 0.07805
v 0.025562 0.071639 0.078009
v 0.0289822 0.0749929 0.0856661
v 0.0274859 0.0737039 0.080057
v 0.0265987 0.0728388 0.0789145
v 0.0269168 0.0729889 0.078981
v 0.0277347 0.0737407 0.0799955
v 0.0282707 0.0743099 0.0814097
v 0.0283559 0.0745323 0.0822062
v 0.0287333 0.0747557 0.0833561
v 0.0286603 0.0748484 0.0847223
v 0.0278117 0.0740184 0.0806946
v 0.0287843 0.0749032 0.0844825
v 0.020529 0.067271 0.076258
v 0.018924 0.065789 0.07552
v 0.018898 0.065786 0.075593
v 0.015589 0.062946 0.074202
v 0.01559 0.062946 0.074199
v 0.018961 0.065777 0.075454
v 0.019006 0.065751 0.075398
v 0.015626 0.062933 0.074132
v 0.020607 0.067124 0.075988
v 0.019057 0.065711 0.075355
v 0.015723 0.06287 0.074037
v 0.01567 0.062905 0.074077
v 0.015669 0.062906 0.074077
v 0.015669 0.062906 0.074078
v 0.015485 0.062857 0.074154
v 0.015484 0.062857 0.074159
v 0.015465 0.0628052 0.07408
v 0.015562 0.062816 0.074036
v 0.015611 0.062775 0.073993
v 0.00672204 0.0563877 0.0788172
v 0.014198 0.061811 0.073742
v 0.0155404 0.0629311 0.0742965
v 0.00657861 0.056161 0.0793788
v 0.00653309 0.0559933 0.0795488
v 0.00694083 0.0564474 0.0775806
v 0.00696094 0.0564143 0.0775951
v 0.00723374 0.056489 0.0767792
v 0.0077186 0.0569341 0.0758929
v 0.00851612 0.0575384 0.0749361
v 0.0085038 0.0574802 0.0748626
v 0.00778662 0.0567392 0.0756937
v 0.00911674 0.0579414 0.0743441
v 0.0106572 0.0589255 0.0735589
v 0.0104907 0.0588387 0.0736342
v 0.00973382 0.058254 0.0739307
v 0.0115922 0.0597833 0.073536
v 0.0135451 0.0613038 0.0736376
v 0.0127068 0.060501 0.0733548
v 0.014228 0.061793 0.073675
v 0.0132758 0.0610617 0.0734882
v 0.0116703 0.0597383 0.073392
v 0.0105809 0.0590142 0.0736959
v 0.00692255 0.0562983 0.0775551
v 0.0142988 0.0617484 0.0735973
v 0.0218134 0.0681154 0.0785278
v 0.0216535 0.068126 0.0779855
v 0.021 0.067014 0.078855
v 0.0174631 0.0643755 0.0762609
v 0.0170014 0.0637432 0.0764212
v 0.01665 0.062665 0.077283
v 0.0167168 0.0628432 0.0770808
v 0.017615 0.063681 0.0774161
v 0.0205338 0.0672047 0.0771181
v 0.0253991 0.0715259 0.0806653
v 0.0260694 0.0722744 0.0802989
v 0.01412 0.0596089 0.0807941
v 0.014911 0.060653 0.078348
v 0.0158629 0.0619121 0.0771813
v 0.0145393 0.05992 0.0801869
v 0.0142472 0.0598436 0.0796677
v 0.0148397 0.0607213 0.0779801
v 0.0153825 0.0620534 0.076399
v 0.0110875 0.0593398 0.0774635
v 0.0108667 0.0590174 0.0793958
v 0.0132859 0.0601103 0.0778373
v 0.0154198 0.062746 0.0754276
v 0.011804 0.05993 0.0762
v 0.0127713 0.060572 0.0760543
v 0.0142338 0.0617693 0.0754437
v 0.014669 0.060288 0.078972
v 0.0107436 0.0589499 0.0871087
v 0.0141185 0.0595323 0.0861529
v 0.0106954 0.0588738 0.0828912
v 0.014769 0.0598276 0.0864793
v 0.0148141 0.0602241 0.089151
v 0.010355 0.058835 0.089039
v 0.0113559 0.0593082 0.0905366
v 0.0155381 0.062814 0.0940589
v 0.0150269 0.0608025 0.0910576
v 0.0144437 0.0603772 0.0906616
v 0.013655 0.0598556 0.0897105
v 0.0161788 0.0621712 0.0922359
v 0.0156631 0.0615925 0.0919093
v 0.0158964 0.062388 0.0929186
v 0.0131674 0.0608994 0.0935456
v 0.0135921 0.0612905 0.0940572
v 0.0141146 0.0614737 0.0934354
v 0.0119282 0.0599147 0.0923377
v 0.0110133 0.0593156 0.0918505
v 0.0159076 0.0629332 0.0937319
v 0.0226722 0.0687777 0.0929287
v 0.024854 0.0709544 0.0928667
v 0.0182048 0.0642315 0.0927059
v 0.0249304 0.0711897 0.0940561
v 0.0203539 0.0669896 0.0941212
v 0.020603 0.0666626 0.0929213
v 0.02705 0.0732591 0.0808429
v 0.0273747 0.0735756 0.0815081
v 0.0271712 0.0731955 0.0864769
v 0.0271664 0.0733097 0.092404
v 0.0260706 0.0721691 0.0922808
v 0.025563 0.071725 0.093319
v 0.027608 0.073749 0.091094
v 0.0279574 0.0741404 0.090905
v 0.0283192 0.0745191 0.0873548
v 0.0275362 0.0737286 0.0930037
v 0.026219 0.0724505 0.0941601
v 0.0268596 0.0730779 0.0940062
v 0.025769 0.072036 0.094444
v 0.0260121 0.0723084 0.0787182
v 0.0277816 0.0739691 0.0828883
v 0.0280746 0.0742514 0.0895762
v 0.00885992 0.0579576 0.075692
v 0.0137652 0.0615015 0.0742254
v 0.009321 0.058225 0.081137
v 0.00954362 0.0584496 0.0787797
v 0.01121 0.0595944 0.0752987
v 0.00729882 0.0569173 0.0839658
v 0.00759067 0.0572734 0.0843265
v 0.00809116 0.0574939 0.0811419
v 0.0108781 0.0592925 0.0950024
v 0.008923 0.058011 0.093419
v 0.0091008 0.0581526 0.0861645
v 0.00767869 0.0572506 0.089765
v 0.008999 0.05813 0.091541
v 0.0113054 0.0596203 0.0947198
v 0.0103253 0.0589641 0.0944309
v 0.0155378 0.062913 0.0948628
v 0.02491 0.071254 0.094954
v 0.029189 0.0736963 0.080756
v 0.027977 0.0730271 0.0791784
v 0.029144 0.074008 0.081419
v 0.0295193 0.0748273 0.0858092
v 0.0284162 0.0743935 0.0816725
v 0.028407 0.07366 0.080214
v 0.0259754 0.071322 0.0777784
v 0.026888 0.072194 0.078297
v 0.015669 0.062729 0.07396
v 0.020691 0.06705 0.075952
v 0.0173211 0.063089 0.0740731
v 0.0147992 0.0614649 0.0733581
v 0.00693332 0.0549487 0.0793896
v 0.00726422 0.0554033 0.0773738
v 0.00846753 0.0561487 0.0750833
v 0.010321 0.057999 0.073546
v 0.00984566 0.0571639 0.0737336
v 0.0123308 0.0595583 0.073084
v 0.00905671 0.0571335 0.0743102
v 0.007207 0.0561678 0.0769296
v 0.00668167 0.0553153 0.0800467
v 0.006493 0.055852 0.081138
v 0.006624 0.055387 0.081138
v 0.0113022 0.0586995 0.0958568
v 0.0100843 0.0580838 0.0956433
v 0.0107136 0.05828 0.0958073
v 0.00954745 0.0568143 0.0952451
v 0.00792036 0.0560842 0.0930171
v 0.00691684 0.0551464 0.0876948
v 0.006675 0.055423 0.085494
v 0.00687199 0.0561369 0.0894068
v 0.008023 0.056353 0.09322
v 0.008988 0.057035 0.094785
v 0.0251064 0.0710551 0.0956738
v 0.0296081 0.0741241 0.092621
v 0.0288057 0.0747182 0.0917278
v 0.029212 0.074077 0.093205
v 0.0290661 0.0736757 0.0940232
v 0.0254585 0.0707847 0.0959002
v 0.026991 0.072295 0.095594
v 0.027511 0.072794 0.095333
v 0.0280961 0.0736142 0.0946165
v 0.028394 0.073649 0.094434
v 0.0281896 0.0741473 0.0937978
v 0.028971 0.074213 0.093132
v 0.0230787 0.0688612 0.0860364
v 0.0249972 0.0709269 0.0846281
v 0.0239915 0.0699281 0.0874424
v 0.0254967 0.0714225 0.0853314
v 0.0240457 0.0701768 0.088622
v 0.0246355 0.0708489 0.0891219
v 0.024641 0.07084 0.088749
v 0.0255061 0.0718111 0.089122
v 0.0262933 0.0726807 0.0887875
v 0.0229514 0.0689507 0.088153
v 0.0213758 0.0670244 0.0876458
v 0.0226647 0.0685709 0.0881248
v 0.0229617 0.0689405 0.087653
v 0.0250184 0.0710868 0.0883912
v 0.046513 0.031827 0.070032
v 0.0462997 0.0317745 0.0683939
v 0.0461645 0.031541 0.0698935
v 0.046361 0.031686 0.069969
v 0.0459105 0.0315569 0.0685056
v 0.045635 0.031272 0.069717
v 0.045752 0.031313 0.069753
v 0.045806 0.031342 0.069771
v 0.045232 0.031202 0.06961
v 0.045496 0.03149 0.068369
v 0.045244 0.031202 0.069612
v 0.044512 0.03134 0.069471
v 0.0449334 0.0316073 0.0681448
v 0.044659 0.031283 0.069493
v 0.044932 0.031577 0.068256
v 0.0452283 0.0315132 0.0682655
v 0.0448025 0.0312525 0.0695205
v 0.045029 0.031205 0.069563
v 0.044137 0.031559 0.069428
v 0.0448385 0.0316041 0.0682367
v 0.043995 0.031672 0.069418
v 0.0444263 0.0318264 0.0682105
v 0.043718 0.031974 0.0694155
v 0.04412 0.032108 0.068176
v 0.043386 0.0330254 0.0683391
v 0.0386028 0.0386068 0.068069
v 0.041033 0.035295 0.069481
v 0.037965 0.038568 0.069496
v 0.035279 0.041047 0.069481
v 0.034662 0.041572 0.069473
v 0.0321488 0.0441369 0.068073
v 0.0317625 0.043905 0.069416
v 0.031945 0.043725 0.069411
v 0.0316973 0.0446431 0.068216
v 0.0314255 0.0443445 0.0694495
v 0.031497 0.044239 0.069439
v 0.0320166 0.0442678 0.0680565
v 0.031241 0.045519 0.069684
v 0.0315442 0.0457304 0.0683152
v 0.0314772 0.0453228 0.0683824
v 0.0312115 0.045223 0.0696095
v 0.031209 0.044993 0.069556
v 0.031245 0.044792 0.069516
v 0.031535 0.045062 0.068277
v 0.031247 0.044781 0.069514
v 0.0315196 0.0457603 0.0684598
v 0.031384 0.045913 0.069804
v 0.0319823 0.046626 0.068708
v 0.031713 0.046371 0.0699765
v 0.0318755 0.0464819 0.0686772
v 0.0318022 0.0463352 0.0683806
v 0.03442 0.049075 0.069784
v 0.0354321 0.0500131 0.0701639
v 0.035228 0.049809 0.071475
v 0.034625 0.049312 0.07124
v 0.035343 0.049904 0.07152
v 0.035573 0.0500315 0.071595
v 0.0359174 0.0503168 0.0700653
v 0.0364606 0.0505034 0.0705212
v 0.036182 0.0502535 0.0717677
v 0.0360222 0.0503689 0.0703789
v 0.0370584 0.050494 0.0706853
v 0.037184 0.050152 0.0719427
v 0.036752 0.050272 0.071885
v 0.036655 0.050273 0.071866
v 0.0368933 0.0505559 0.0704247
v 0.036705 0.050517 0.070573
v 0.0365681 0.050537 0.0703381
v 0.0374641 0.0504449 0.070474
v 0.037329 0.050449 0.070681
v 0.037724 0.049919 0.071996
v 0.038457 0.049417 0.072026
v 0.041443 0.046923 0.072057
v 0.041749 0.046649 0.072058
v 0.0402493 0.048506 0.070739
v 0.0444155 0.0441155 0.072057
v 0.044516 0.044516 0.070806
v 0.046579 0.04181 0.072057
v 0.0496874 0.0386991 0.070728
v 0.0481745 0.0399445 0.0720415
v 0.0502145 0.0378925 0.0707317
v 0.049911 0.037739 0.071997
v 0.050287 0.037724 0.070722
v 0.0502285 0.036971 0.071918
v 0.050432 0.0373874 0.070683
v 0.050268 0.036243 0.071783
v 0.050286 0.036422 0.071823
v 0.0505352 0.0371472 0.07041
v 0.050121 0.0357455 0.0716502
v 0.0505036 0.0364584 0.0705169
v 0.0499742 0.0353796 0.0701774
v 0.049693 0.035053 0.071414
v 0.049839 0.035279 0.071492
v 0.050355 0.0359942 0.0703671
v 0.049295 0.034624 0.071236
v 0.037541 0.049449 0.069237
v 0.037373 0.049515 0.069219
v 0.037536 0.046075 0.068463
v 0.036856 0.049537 0.069121
v 0.0371067 0.0495907 0.0691826
v 0.035538 0.048464 0.06861
v 0.036297 0.049196 0.068931
v 0.0374052 0.0460378 0.0684277
v 0.0365 0.049333 0.069003
v 0.036743 0.049497 0.069089
v 0.0372814 0.0459434 0.0683807
v 0.033226 0.046152 0.067613
v 0.037195 0.0458204 0.0683298
v 0.033032 0.045906 0.067518
v 0.037156 0.045607 0.068279
v 0.037153 0.045656 0.06829
v 0.033016 0.045885 0.06751
v 0.0327958 0.0456285 0.0674102
v 0.033221 0.045147 0.067381
v 0.037158 0.045541 0.068265
v 0.033312 0.045072 0.067382
v 0.0372009 0.0453908 0.0682392
v 0.0373698 0.0451971 0.0682293
v 0.036827 0.042234 0.067451
v 0.0375742 0.0451172 0.0682514
v 0.039622 0.039622 0.067463
v 0.0377063 0.0451122 0.0682794
v 0.039461 0.043368 0.068245
v 0.037823 0.045136 0.068307
v 0.0379162 0.0451908 0.0682231
v 0.037964 0.045215 0.068354
v 0.039495 0.043504 0.068282
v 0.037925 0.045187 0.06834
v 0.039467 0.0434155 0.0682567
v 0.0394684 0.0432373 0.068217
v 0.0395263 0.0430795 0.0681937
v 0.0396374 0.0429444 0.0681874
v 0.0397879 0.0428529 0.0681984
v 0.0399488 0.0428194 0.0682244
v 0.0401177 0.0428413 0.0682643
v 0.038127 0.045652 0.068486
v 0.038119 0.045683 0.068491
v 0.039767 0.04377 0.068397
v 0.038096 0.045764 0.068505
v 0.0380554 0.0458447 0.0685151
v 0.038217 0.049005 0.06927
v 0.0395202 0.0435658 0.0683009
v 0.039627 0.04369 0.068351
v 0.0380554 0.0453145 0.068395
v 0.0381228 0.0454672 0.0684427
v 0.039752 0.043763 0.068393
v 0.039723 0.043751 0.068384
v 0.038132 0.045603 0.068476
v 0.039671 0.043718 0.068366
v 0.038131 0.045588 0.068472
v 0.037995 0.045248 0.068368
v 0.039596 0.043661 0.068338
v 0.039592 0.043658 0.068336
v 0.0402452 0.042901 0.0683033
v 0.043935 0.043935 0.069304
v 0.0403575 0.0430182 0.0683528
v 0.0404293 0.0431744 0.0684016
v 0.0404388 0.0433281 0.0684382
v 0.0404089 0.0434653 0.0684621
v 0.0378667 0.0460295 0.0685184
v 0.0376279 0.046087 0.068484
v 0.041486 0.046256 0.069304
v 0.0402627 0.0436801 0.0684792
v 0.0400315 0.0437887 0.0684553
v 0.0398843 0.043795 0.0684268
v 0.0451383 0.0374755 0.0682371
v 0.042232 0.036829 0.067451
v 0.0453264 0.0372406 0.0682313
v 0.045072 0.033312 0.067382
v 0.0455056 0.0371646 0.0682581
v 0.045307 0.033066 0.067386
v 0.045607 0.037152 0.068279
v 0.0454102 0.0328499 0.0673717
v 0.045614 0.037152 0.06828
v 0.0457388 0.0371652 0.0683114
v 0.046152 0.033226 0.067613
v 0.046093 0.03317 0.067588
v 0.045913 0.03304 0.067521
v 0.045858 0.033001 0.0675
v 0.0459587 0.0372465 0.0683594
v 0.0459067 0.0372367 0.0683618
v 0.049343 0.036512 0.069007
v 0.046066 0.037484 0.06845
v 0.049407 0.036583 0.069036
v 0.046077 0.037531 0.068462
v 0.046077 0.037535 0.068463
v 0.049497 0.037428 0.069226
v 0.049517 0.037387 0.069222
v 0.049766 0.0369267 0.069202
v 0.0495947 0.0370964 0.0691822
v 0.046084 0.037631 0.068484
v 0.046076 0.0377351 0.068503
v 0.049005 0.038217 0.06927
v 0.0459496 0.0379781 0.0685228
v 0.046256 0.041486 0.069304
v 0.0456606 0.0381328 0.068489
v 0.0418615 0.0397131 0.0679663
v 0.0420724 0.039517 0.0679706
v 0.0424886 0.0392968 0.0680161
v 0.0432268 0.039323 0.0681851
v 0.0451114 0.037706 0.0682784
v 0.0429376 0.0392613 0.0681076
v 0.0434846 0.0394509 0.0682686
v 0.043573 0.039517 0.068302
v 0.043952 0.040086 0.068503
v 0.043981 0.040205 0.068534
v 0.045418 0.038106 0.068428
v 0.045494 0.038123 0.068449
v 0.0439965 0.0406827 0.0686364
v 0.043578 0.03952 0.068303
v 0.045171 0.0379014 0.0683313
v 0.045403 0.0381 0.068424
v 0.045373 0.038088 0.068415
v 0.043943 0.040065 0.068497
v 0.045321 0.038054 0.068396
v 0.043854 0.039859 0.068435
v 0.045278 0.038027 0.068381
v 0.0438074 0.0397692 0.0684054
v 0.043727 0.039677 0.068369
v 0.0452427 0.0379948 0.0683665
v 0.045145 0.037841 0.068313
v 0.045117 0.037752 0.068289
v 0.045117 0.03775 0.068288
v 0.0436732 0.04128 0.0686888
v 0.0432914 0.0415743 0.0686656
v 0.0427502 0.0417169 0.0685799
v 0.0421065 0.0415577 0.0684077
v 0.0415779 0.0408574 0.0681449
v 0.0416124 0.0401485 0.0680016
v 0.046442 0.032895 0.067708
v 0.048613 0.035376 0.068641
v 0.046302 0.033064 0.067641
v 0.048607 0.035382 0.068639
v 0.046297 0.03307 0.06764
v 0.048539 0.03546 0.068617
v 0.048728 0.035244 0.06868
v 0.048755 0.035207 0.068702
v 0.046446 0.032891 0.06771
v 0.048758 0.035203 0.068704
v 0.048889 0.035027 0.068809
v 0.046573 0.032716 0.06782
v 0.048893 0.035021 0.068812
v 0.048991 0.034857 0.068966
v 0.046679 0.032546 0.067968
v 0.049017 0.034812 0.069008
v 0.04906 0.034708 0.069153
v 0.0467406 0.0324129 0.0681125
v 0.046752 0.032393 0.068155
v 0.0491272 0.0346704 0.06928
v 0.04679 0.032267 0.068358
v 0.049097 0.034582 0.069358
v 0.046791 0.032264 0.068363
v 0.049097 0.03458 0.069363
v 0.046792 0.032262 0.068366
v 0.049106 0.034501 0.069525
v 0.046788 0.032175 0.068576
v 0.049101 0.034486 0.069572
v 0.046787 0.032172 0.068583
v 0.0491 0.034483 0.06958
v 0.0469531 0.032276 0.0687943
v 0.0455985 0.0315592 0.0681484
v 0.043945 0.032452 0.067977
v 0.0462087 0.0324857 0.0676385
v 0.0450952 0.0316924 0.0678816
v 0.0445941 0.0317796 0.068073
v 0.0451948 0.0318767 0.0676764
v 0.04539 0.031558 0.068127
v 0.045535 0.031558 0.068161
v 0.0449523 0.0323909 0.0673941
v 0.0455057 0.0324503 0.0674084
v 0.0456467 0.0327086 0.067413
v 0.0455069 0.0321303 0.0675162
v 0.0445672 0.0329437 0.0673599
v 0.0451524 0.0325735 0.0673556
v 0.0448238 0.033127 0.0673301
v 0.045226 0.031576 0.068093
v 0.0447238 0.0319807 0.0676834
v 0.0446873 0.0319906 0.0676857
v 0.0443776 0.0319907 0.0679402
v 0.0464024 0.0323528 0.0678187
v 0.0461972 0.0319844 0.0678893
v 0.046585 0.032081 0.068273
v 0.046581 0.031981 0.068487
v 0.04636 0.031922 0.068189
v 0.0459967 0.0317882 0.0679907
v 0.0457444 0.0317567 0.0678909
v 0.0455758 0.0318263 0.0677602
v 0.045646 0.032021 0.06762
v 0.046138 0.032639 0.06758
v 0.0459462 0.0325579 0.0674907
v 0.044783 0.032105 0.0675758
v 0.0439829 0.0324721 0.0678871
v 0.0441299 0.0326063 0.0676513
v 0.0445596 0.0324643 0.0674776
v 0.045199 0.032084 0.06753
v 0.044916 0.032218 0.067492
v 0.042069 0.036686 0.067407
v 0.041893 0.036532 0.067403
v 0.0388308 0.0387448 0.0677348
v 0.0413175 0.0360106 0.0677561
v 0.041159 0.035885 0.068043
v 0.0400494 0.0379174 0.0675454
v 0.041713 0.036375 0.067446
v 0.0396558 0.0390091 0.0674052
v 0.0358568 0.041117 0.0681426
v 0.0332538 0.0447847 0.0673376
v 0.0333292 0.0443677 0.0673702
v 0.0360284 0.0412998 0.0677581
v 0.032846 0.0436187 0.0679578
v 0.0327029 0.0442261 0.0675381
v 0.0363623 0.0415396 0.0674907
v 0.0328597 0.0446142 0.0673654
v 0.031699 0.045808 0.068017
v 0.0318696 0.0445173 0.0679794
v 0.0316244 0.0458892 0.0682077
v 0.032136 0.046781 0.068682
v 0.0315308 0.0451253 0.0682106
v 0.0316207 0.0448706 0.0681586
v 0.032836 0.04602 0.067526
v 0.033064 0.046302 0.067643
v 0.033071 0.046295 0.067641
v 0.032423 0.046215 0.06767
v 0.032715 0.046573 0.06782
v 0.032721 0.04657 0.067816
v 0.032799 0.046518 0.067753
v 0.032631 0.046125 0.067575
v 0.0322751 0.0460423 0.0676174
v 0.032891 0.046445 0.06771
v 0.032897 0.04644 0.067707
v 0.033014 0.046347 0.067651
v 0.0319967 0.0460589 0.0677696
v 0.032207 0.046549 0.068065
v 0.032394 0.046753 0.068147
v 0.032177 0.046786 0.068576
v 0.032073 0.046575 0.068269
v 0.032177 0.046786 0.068575
v 0.0322455 0.0467897 0.0683881
v 0.03227 0.046786 0.068358
v 0.032392 0.046755 0.06815
v 0.032233 0.044293 0.067777
v 0.0318976 0.0454242 0.0676618
v 0.0318467 0.0456812 0.0677628
v 0.0317368 0.0452655 0.0677919
v 0.0318302 0.0451354 0.0677243
v 0.031939 0.045009 0.067657
v 0.0315637 0.0451681 0.0681019
v 0.0317064 0.0448622 0.0679841
v 0.0315957 0.0456199 0.0680907
v 0.032839 0.045249 0.067348
v 0.0326927 0.0452599 0.0673392
v 0.0325262 0.0448417 0.067384
v 0.0323363 0.0446306 0.0675033
v 0.0320924 0.0453241 0.0675136
v 0.032241 0.045623 0.067497
v 0.032323 0.045211 0.067419
v 0.0324739 0.045552 0.0674119
v 0.032036 0.044651 0.067705
v 0.032107 0.044708 0.067622
v 0.0321344 0.0464221 0.067967
v 0.032549 0.046678 0.067963
v 0.032576 0.046665 0.067931
v 0.034706 0.049066 0.069144
v 0.034706 0.049066 0.069143
v 0.035383 0.048608 0.068637
v 0.035376 0.048614 0.068638
v 0.035339 0.048648 0.068644
v 0.035209 0.048753 0.068704
v 0.035202 0.048758 0.068707
v 0.035124 0.048821 0.068742
v 0.035032 0.048882 0.068813
v 0.035027 0.048885 0.068818
v 0.034899 0.04897 0.068917
v 0.034861 0.048989 0.068961
v 0.034858 0.048991 0.068966
v 0.034703 0.049066 0.069148
v 0.0355793 0.0500221 0.0697293
v 0.034552 0.049106 0.069406
v 0.034447 0.049093 0.06968
v 0.034488 0.049098 0.069573
v 0.034489 0.049098 0.069572
v 0.0373673 0.0498337 0.0693223
v 0.03677 0.049745 0.069173
v 0.03715 0.050524 0.070432
v 0.035585 0.050112 0.070025
v 0.035914 0.049966 0.069398
v 0.036059 0.049842 0.069236
v 0.03621 0.04969 0.069115
v 0.036356 0.049521 0.069038
v 0.0367862 0.0501686 0.0694352
v 0.0369029 0.0499159 0.0692646
v 0.037312 0.049761 0.069284
v 0.0374352 0.050048 0.0694918
v 0.0386111 0.0495165 0.0697536
v 0.0379329 0.0497349 0.0694727
v 0.0369566 0.0504396 0.0698275
v 0.037054 0.050348 0.069713
v 0.0374979 0.0503811 0.0700029
v 0.0383019 0.0499903 0.0701503
v 0.0379758 0.0502244 0.0704236
v 0.0372836 0.0504873 0.0702153
v 0.036984 0.05053 0.070165
v 0.0366471 0.0504655 0.0698509
v 0.036384 0.050373 0.069785
v 0.036115 0.0501843 0.0695733
v 0.035782 0.050055 0.069591
v 0.0362571 0.0504637 0.070174
v 0.0380859 0.0501456 0.0706206
v 0.0396692 0.048848 0.0699232
v 0.037722 0.050159 0.0697802
v 0.041623 0.046408 0.069387
v 0.0402534 0.0485422 0.0705148
v 0.0429312 0.0460576 0.0701053
v 0.0445516 0.0445465 0.0704978
v 0.0418373 0.0466336 0.0696039
v 0.0443114 0.0443114 0.0696308
v 0.0450538 0.043186 0.0694164
v 0.0457362 0.0433052 0.0701519
v 0.0456733 0.0432243 0.0699027
v 0.0469037 0.0420386 0.0706831
v 0.048871 0.0398376 0.0703359
v 0.0500648 0.038206 0.0701845
v 0.0487055 0.0394121 0.0695524
v 0.0492278 0.0383947 0.0693981
v 0.0496984 0.038738 0.0703801
v 0.0495698 0.0386618 0.069856
v 0.0487046 0.0395532 0.069637
v 0.050114 0.035686 0.069811
v 0.049976 0.035928 0.069403
v 0.0500187 0.0363563 0.0693064
v 0.049529 0.036368 0.069043
v 0.049851 0.036073 0.069241
v 0.050123 0.035601 0.070031
v 0.0504627 0.036267 0.0702756
v 0.050555 0.0368082 0.0704542
v 0.050451 0.037396 0.070581
v 0.0501463 0.0358899 0.0696432
v 0.0503415 0.0364735 0.0696834
v 0.050453 0.036715 0.069869
v 0.0502265 0.0376309 0.0698132
v 0.0503254 0.0375983 0.0699828
v 0.0504962 0.0371531 0.0700828
v 0.0503281 0.0377907 0.0702891
v 0.0503558 0.0377262 0.0705135
v 0.0505209 0.0366536 0.0700837
v 0.0503884 0.0360716 0.0700676
v 0.049716 0.0375677 0.0693253
v 0.0501205 0.0376287 0.0696664
v 0.050127 0.037422 0.069573
v 0.0505618 0.0368336 0.0703175
v 0.050542 0.037007 0.07029
v 0.0503881 0.0369957 0.0697505
v 0.050196 0.0369762 0.0694972
v 0.0499639 0.03712 0.069333
v 0.0381101 0.0453826 0.0681095
v 0.0379402 0.0460683 0.068229
v 0.0377281 0.0461303 0.0682005
v 0.0375261 0.0461155 0.0681569
v 0.0372916 0.0459247 0.0680647
v 0.0372288 0.0456816 0.0679977
v 0.0372535 0.0455008 0.0679607
v 0.0374839 0.0452401 0.0679481
v 0.0378229 0.0451872 0.0680053
v 0.0381815 0.0456516 0.0681835
v 0.0381196 0.0458717 0.0682198
v 0.0402482 0.0437797 0.0681845
v 0.0400302 0.0438429 0.068154
v 0.03967 0.043709 0.06805
v 0.0398188 0.0438202 0.068105
v 0.0395932 0.04363 0.0680179
v 0.0395358 0.0433873 0.0679514
v 0.0395453 0.0432974 0.0679331
v 0.0395847 0.0431803 0.0679156
v 0.0396589 0.0430666 0.0679053
v 0.0398385 0.0429347 0.067913
v 0.0400703 0.0428922 0.0679514
v 0.0403416 0.0429994 0.0680322
v 0.0404848 0.0432715 0.0681215
v 0.040457 0.04353 0.0681728
v 0.0432436 0.0416645 0.0683617
v 0.0429149 0.0417466 0.0683073
v 0.0424814 0.0417179 0.0682056
v 0.0421541 0.0415714 0.0681063
v 0.0419595 0.0414059 0.0680295
v 0.041728 0.0410647 0.0679085
v 0.0416224 0.0404687 0.0677594
v 0.0419972 0.0396781 0.0676735
v 0.0428059 0.0393159 0.0677777
v 0.0433294 0.0394145 0.0679088
v 0.04362 0.039596 0.068015
v 0.0437982 0.0397577 0.0680881
v 0.0440646 0.0403549 0.0682699
v 0.0439809 0.0408897 0.0683619
v 0.0438271 0.0412028 0.0683929
v 0.0435192 0.0415177 0.068391
v 0.0460686 0.0374409 0.0681279
v 0.0458142 0.0381546 0.0682144
v 0.0454825 0.0381635 0.0681414
v 0.0452576 0.0379805 0.0680536
v 0.045199 0.037833 0.06801
v 0.045196 0.037808 0.068004
v 0.0451959 0.0375909 0.0679613
v 0.0454021 0.0373051 0.0679494
v 0.0456036 0.0372351 0.0679811
v 0.045668 0.037232 0.067995
v 0.0458386 0.0372509 0.068035
v 0.046121 0.0376 0.068172
v 0.0461326 0.037673 0.0681891
v 0.0460881 0.0379057 0.068227
v 0.045661 0.037716 0.068091
v 0.0397439 0.0430114 0.0679124
v 0.037705 0.045672 0.068091
f 1 3 2
f 2 3 13
f 3 4 13
f 2 5 1
f 5 6 1
f 1 6 7
f 6 8 7
f 9 8 10
f 10 8 11
f 8 6 11
f 7 107 1
f 107 3 1
f 211 212 244
f 212 214 213
f 214 215 213
f 678 224 197
f 224 225 197
f 249 248 246
f 262 234 261
f 393 394 395
f 397 396 398
f 397 398 382
f 382 398 383
f 115 106 433
f 115 433 117
f 433 414 117
f 117 414 415
f 415 416 117
f 416 128 117
f 117 128 118
f 128 121 118
f 62 430 69
f 449 64 66
f 190 188 471
f 475 476 474
f 479 480 481
f 483 484 485
f 485 484 487
f 603 605 604
f 605 607 606
f 608 607 612
f 609 610 612
f 646 642 643
f 643 642 640
f 642 644 640
f 643 645 646
f 650 649 645
f 645 229 646
f 644 227 640
f 670 668 672
f 668 671 672
f 671 673 675
f 227 641 639
f 255 254 640
f 640 265 255
f 272 273 632
f 632 273 633
f 605 603 250
f 681 682 680
f 680 682 683
f 733 731 720
f 720 732 733
f 732 734 733
f 735 734 732
f 1050 1052 1051
f 760 1053 763
f 1058 1053 760
f 761 1054 1058
f 761 1055 1057
f 1058 1049 755
f 755 1049 757
f 755 754 1050
f 1058 755 1051
f 1051 755 1050
f 1053 1052 763
f 763 1052 754
f 1050 754 1052
f 1072 1073 1075
f 1067 1074 1068
f 1110 1106 1107
f 1154 1219 1155
f 1155 1219 1158
f 1159 1160 1161
f 1165 1159 1166
f 1166 1159 1164
f 1165 1166 1167
f 1166 1169 1167
f 1167 1169 1170
f 1169 1168 1170
f 1170 1168 1171
f 1171 1168 1172
f 1168 1173 1172
f 1172 1173 1174
f 1173 1175 1174
f 1177 1175 1176
f 1176 1178 1177
f 1197 1198 1199
f 1199 1198 1154
f 1218 1219 1154
f 1221 1222 1220
f 1224 1226 1225
f 1227 1226 1228
f 1227 1228 1229
f 1228 1230 1229
f 1229 1230 1231
f 1232 1233 1234
f 1234 1235 1232
f 1235 1236 1232
f 1232 1236 1230
f 1236 1237 1230
f 1230 1237 1231
f 1234 1233 1238
f 1244 1245 1246
f 1244 1246 1243
f 1246 1248 1243
f 1244 1249 1245
f 1249 1250 1245
f 1245 1250 1504
f 1504 1250 1251
f 1251 1250 1252
f 1252 1254 1253
f 1257 1260 1225
f 1225 1259 1224
f 1253 1254 1266
f 1264 1267 1253
f 1213 1284 1285
f 1213 1285 1179
f 1179 1285 1286
f 1286 1287 1179
f 1295 1297 1296
f 1321 1298 1299
f 1305 1304 1306
f 1304 1307 1306
f 1310 1311 1312
f 1431 1418 1432
f 1420 1391 1433
f 1391 1397 1433
f 1392 1437 1394
f 1437 1438 1394
f 1262 1547 1268
f 1567 1557 1556
f 1567 1556 1555
f 1555 1554 1567
f 1554 1566 1567
f 1567 1566 1565
f 1567 1565 1564
f 1567 1560 1559
f 1559 1558 1567
f 1567 1558 1557
f 1564 1553 1567
f 1553 1563 1567
f 1567 1563 1562
f 1562 1561 1567
f 1567 1561 1560
f 1546 1545 1544
f 1544 1543 1546
f 1543 1542 1546
f 1546 1549 1548
f 1548 1547 1546
f 1539 1538 1546
f 1538 1537 1546
f 1537 1552 1546
f 1546 1552 1551
f 1551 1550 1546
f 1546 1550 1549
f 1523 1536 1568
f 1536 1535 1568
f 1527 1525 1568
f 1525 1526 1568
f 1568 1526 1524
f 1568 1524 1523
f 1535 1534 1568
f 1568 1534 1533
f 1533 1532 1568
f 1568 1531 1530
f 1568 1530 1529
f 1529 1528 1568
f 1568 1528 1527
f 1513 1522 1569
f 1522 1521 1569
f 1569 1516 1515
f 1515 1514 1569
f 1569 1514 1513
f 1521 1512 1569
f 1569 1512 1183
f 1183 1520 1569
f 1569 1520 1519
f 1519 1518 1569
f 1518 1517 1569
f 1569 1517 1516
f 4 12 13
f 13 12 591
f 591 12 14
f 14 12 593
f 12 15 593
f 593 15 594
f 594 15 595
f 15 16 595
f 595 16 17
f 17 16 597
f 16 18 597
f 597 18 22
f 18 19 22
f 19 20 22
f 20 21 22
f 21 23 22
f 22 23 472
f 24 25 26
f 27 9 28
f 9 29 28
f 28 29 30
f 29 31 30
f 30 31 32
f 31 33 32
f 32 33 34
f 33 35 34
f 34 35 36
f 35 37 36
f 36 37 38
f 37 39 38
f 38 39 40
f 39 41 40
f 40 41 42
f 41 43 42
f 42 43 44
f 43 45 44
f 44 45 46
f 45 448 46
f 46 448 47
f 448 48 47
f 47 48 49
f 48 50 49
f 50 25 49
f 49 25 51
f 25 24 51
f 52 53 54
f 53 55 54
f 54 55 56
f 55 57 56
f 56 57 58
f 57 59 58
f 58 59 26
f 26 59 24
f 60 61 62
f 61 63 62
f 62 63 64
f 63 65 64
f 64 65 66
f 65 67 66
f 66 67 52
f 67 68 52
f 52 68 53
f 62 69 60
f 69 70 60
f 69 71 70
f 71 72 70
f 70 72 73
f 72 75 73
f 75 72 74
f 72 76 74
f 74 76 77
f 76 78 77
f 77 78 79
f 78 80 79
f 79 80 81
f 80 82 81
f 82 83 81
f 81 83 84
f 83 85 84
f 83 86 85
f 85 86 87
f 86 88 87
f 87 88 89
f 88 90 89
f 89 90 91
f 90 92 91
f 91 92 93
f 92 94 93
f 93 94 95
f 95 94 96
f 94 97 96
f 96 97 98
f 97 99 98
f 98 99 100
f 99 101 100
f 100 101 102
f 101 103 102
f 102 103 104
f 104 103 105
f 103 106 105
f 105 106 113
f 107 108 3
f 8 9 109
f 109 9 27
f 110 7 111
f 7 8 111
f 111 8 112
f 8 109 112
f 110 107 7
f 113 106 114
f 106 115 114
f 114 115 116
f 115 117 118
f 116 115 119
f 115 118 119
f 119 118 120
f 121 122 123
f 120 118 124
f 118 121 124
f 124 121 125
f 121 123 125
f 125 123 126
f 122 121 127
f 121 128 127
f 19 129 130
f 131 23 132
f 23 21 132
f 132 21 130
f 21 20 130
f 130 20 19
f 133 134 135
f 134 127 135
f 135 127 136
f 127 128 136
f 133 135 137
f 135 138 137
f 137 138 139
f 140 141 142
f 140 142 143
f 142 144 143
f 143 144 145
f 145 144 138
f 144 146 138
f 138 146 139
f 140 147 141
f 147 148 141
f 141 148 149
f 148 150 149
f 151 152 153
f 151 153 154
f 153 155 154
f 154 155 156
f 155 157 156
f 156 157 148
f 157 158 148
f 148 158 150
f 159 160 161
f 160 162 161
f 161 162 166
f 152 151 163
f 151 164 163
f 163 164 159
f 164 165 159
f 159 165 160
f 162 167 166
f 166 167 168
f 167 169 168
f 168 169 170
f 169 171 170
f 170 171 172
f 171 173 172
f 172 173 174
f 173 175 174
f 174 175 176
f 175 469 176
f 176 469 177
f 469 178 177
f 177 178 179
f 178 180 179
f 179 180 181
f 180 182 181
f 181 182 183
f 182 184 183
f 184 185 183
f 183 185 186
f 186 185 187
f 185 188 187
f 187 188 189
f 189 188 191
f 188 190 191
f 191 190 192
f 190 193 192
f 192 193 194
f 194 193 195
f 193 23 195
f 195 23 131
f 223 197 225
f 198 200 199
f 205 201 635
f 635 202 203
f 635 203 204
f 204 205 635
f 201 206 635
f 634 208 635
f 635 208 202
f 614 209 634
f 634 209 208
f 196 207 244
f 207 210 244
f 210 211 244
f 244 212 213
f 213 215 199
f 215 216 199
f 199 216 217
f 217 216 218
f 199 217 198
f 217 219 198
f 198 219 220
f 198 220 303
f 220 221 303
f 222 223 225
f 230 224 641
f 641 224 678
f 226 230 227
f 227 230 641
f 226 228 230
f 229 230 228
f 229 232 298
f 233 235 234
f 235 231 234
f 238 235 236
f 237 275 236
f 275 238 236
f 236 239 237
f 241 242 240
f 200 243 199
f 199 243 213
f 213 243 244
f 244 245 241
f 252 247 246
f 248 250 246
f 250 251 246
f 251 603 246
f 603 252 246
f 235 233 236
f 233 670 236
f 236 670 672
f 236 672 240
f 240 672 253
f 643 254 255
f 255 256 257
f 257 643 255
f 259 260 264
f 260 263 264
f 263 262 264
f 264 262 261
f 265 266 255
f 255 266 256
f 266 265 272
f 272 265 267
f 234 262 233
f 262 268 233
f 233 268 670
f 633 269 270
f 269 271 270
f 273 272 633
f 272 267 633
f 633 267 269
f 253 196 240
f 240 196 241
f 196 244 241
f 277 276 275
f 278 237 279
f 279 237 280
f 279 281 283
f 281 282 283
f 283 282 284
f 284 282 274
f 274 282 346
f 274 289 284
f 284 289 283
f 289 279 283
f 287 285 286
f 289 274 287
f 285 294 286
f 286 294 276
f 286 276 288
f 276 277 288
f 237 239 280
f 239 236 280
f 275 237 277
f 277 237 290
f 288 277 289
f 289 277 290
f 290 237 278
f 281 347 282
f 236 281 280
f 281 279 280
f 279 289 278
f 278 289 290
f 288 289 286
f 289 287 286
f 292 291 235
f 352 293 285
f 276 238 275
f 294 292 276
f 276 292 238
f 292 294 285
f 235 238 292
f 350 291 296
f 231 235 295
f 235 291 295
f 352 350 296
f 291 292 296
f 296 292 352
f 352 292 293
f 292 285 293
f 297 232 295
f 295 232 231
f 298 232 306
f 306 232 297
f 230 229 299
f 299 229 298
f 300 224 301
f 303 221 222
f 300 225 224
f 301 544 303
f 544 302 303
f 302 304 303
f 301 303 300
f 300 303 225
f 303 222 225
f 295 291 297
f 297 291 355
f 291 350 355
f 298 306 299
f 306 307 299
f 200 198 308
f 301 224 299
f 299 224 230
f 305 198 535
f 535 198 304
f 304 198 303
f 299 309 301
f 301 309 544
f 316 310 315
f 200 308 243
f 315 314 312
f 312 314 313
f 315 312 316
f 316 312 317
f 312 305 317
f 244 243 311
f 308 198 305
f 244 311 313
f 313 311 312
f 311 243 312
f 243 308 312
f 308 305 312
f 245 244 313
f 245 313 329
f 329 313 321
f 241 245 329
f 324 322 323
f 322 324 315
f 324 325 315
f 323 327 324
f 324 327 318
f 330 331 318
f 318 331 324
f 331 329 324
f 324 329 325
f 329 319 241
f 241 319 242
f 319 320 242
f 313 314 321
f 328 333 318
f 318 333 330
f 333 319 330
f 330 319 331
f 319 329 331
f 329 321 325
f 321 314 325
f 325 314 315
f 333 337 281
f 320 319 333
f 240 333 334
f 335 336 338
f 240 242 333
f 333 242 320
f 281 236 333
f 333 236 334
f 236 240 334
f 337 338 347
f 347 338 332
f 333 328 338
f 328 326 338
f 338 326 335
f 347 281 337
f 337 333 338
f 514 342 343
f 345 344 342
f 344 343 342
f 344 345 500
f 346 282 347
f 287 346 340
f 346 342 340
f 285 341 339
f 285 287 341
f 341 287 340
f 346 287 274
f 346 347 342
f 342 347 345
f 345 347 348
f 496 350 351
f 351 350 352
f 352 285 339
f 352 339 349
f 350 496 353
f 522 309 299
f 299 307 518
f 518 307 354
f 307 306 530
f 306 297 530
f 530 297 355
f 353 355 350
f 535 304 537
f 537 304 539
f 304 302 356
f 357 302 544
f 544 309 546
f 546 309 522
f 310 316 359
f 310 358 315
f 317 305 535
f 316 317 359
f 359 317 360
f 317 535 360
f 363 358 362
f 363 327 323
f 323 322 363
f 363 322 358
f 322 315 358
f 361 363 580
f 580 363 362
f 336 335 348
f 365 366 364
f 364 366 569
f 369 370 368
f 367 328 318
f 326 328 365
f 365 328 367
f 318 327 363
f 348 335 365
f 365 335 326
f 367 318 363
f 369 363 371
f 371 363 361
f 372 348 364
f 364 348 365
f 566 365 367
f 368 367 369
f 367 363 369
f 332 338 336
f 347 332 348
f 332 336 348
f 372 345 348
f 372 364 345
f 364 373 345
f 373 533 345
f 345 533 500
f 387 378 377
f 381 515 374
f 374 515 511
f 374 382 381
f 381 382 383
f 511 385 466
f 380 386 385
f 377 376 389
f 390 376 375
f 375 391 390
f 391 392 390
f 390 392 590
f 380 379 386
f 379 378 386
f 386 378 387
f 387 377 388
f 388 377 588
f 588 377 389
f 394 396 395
f 393 395 399
f 395 402 399
f 414 402 395
f 396 397 395
f 397 400 395
f 395 400 414
f 374 397 382
f 374 384 397
f 397 384 400
f 384 401 400
f 400 401 414
f 406 405 528
f 405 404 528
f 408 407 405
f 407 408 519
f 408 405 409
f 414 403 413
f 414 413 402
f 413 412 402
f 402 412 528
f 412 410 528
f 410 406 528
f 420 421 419
f 422 541 421
f 540 423 434
f 422 446 540
f 540 446 10
f 424 447 420
f 419 427 426
f 427 417 449
f 417 534 408
f 408 534 418
f 408 428 417
f 417 428 449
f 426 424 419
f 424 420 419
f 420 429 421
f 421 429 422
f 422 429 446
f 69 430 71
f 71 430 72
f 430 431 72
f 72 431 76
f 76 431 78
f 431 409 78
f 78 409 80
f 80 409 82
f 82 409 83
f 83 409 86
f 86 409 88
f 409 411 88
f 88 411 90
f 411 432 90
f 90 432 92
f 92 432 94
f 94 432 97
f 97 432 99
f 99 432 101
f 433 106 103
f 432 433 101
f 101 433 103
f 439 436 437
f 581 583 438
f 438 583 437
f 583 439 437
f 440 438 441
f 441 438 2
f 438 437 2
f 2 437 442
f 443 423 444
f 423 540 444
f 436 435 437
f 435 434 437
f 437 434 442
f 434 423 442
f 442 423 445
f 423 443 445
f 29 9 10
f 29 10 31
f 31 10 33
f 10 446 33
f 33 446 35
f 35 446 37
f 446 447 37
f 37 447 39
f 39 447 41
f 41 447 43
f 43 447 45
f 447 448 45
f 448 50 48
f 66 52 449
f 449 52 425
f 52 54 425
f 54 56 425
f 425 56 450
f 56 58 450
f 58 26 450
f 26 25 450
f 25 50 450
f 450 50 448
f 430 62 428
f 428 62 449
f 62 64 449
f 457 565 455
f 455 565 456
f 460 458 457
f 590 392 459
f 454 596 461
f 462 593 463
f 451 464 452
f 452 464 592
f 452 438 451
f 451 438 591
f 591 438 440
f 592 593 452
f 593 462 452
f 452 462 453
f 462 463 453
f 453 463 454
f 454 461 455
f 455 461 457
f 461 460 457
f 460 459 391
f 459 392 391
f 128 416 465
f 147 140 466
f 140 143 466
f 466 143 467
f 143 145 467
f 145 138 467
f 467 138 465
f 138 135 465
f 135 136 465
f 465 136 128
f 165 164 151
f 151 154 466
f 154 156 466
f 156 148 466
f 466 148 147
f 165 468 160
f 160 468 162
f 162 468 167
f 167 468 169
f 169 588 171
f 171 588 173
f 173 588 175
f 588 469 175
f 469 587 178
f 178 587 180
f 587 470 180
f 180 470 182
f 182 470 184
f 185 470 188
f 188 470 471
f 184 470 185
f 23 193 472
f 472 193 471
f 193 190 471
f 383 398 473
f 383 473 474
f 473 475 474
f 474 476 477
f 476 478 477
f 477 478 479
f 478 480 479
f 480 482 481
f 481 482 483
f 482 484 483
f 339 485 486
f 486 485 487
f 478 476 488
f 473 398 396
f 402 489 399
f 489 490 399
f 399 490 393
f 490 491 393
f 393 491 394
f 491 488 394
f 394 488 396
f 488 476 396
f 476 475 396
f 396 475 473
f 484 482 492
f 482 480 492
f 493 486 487
f 349 339 486
f 494 496 495
f 497 489 494
f 486 493 349
f 493 498 349
f 349 498 352
f 489 497 490
f 497 499 490
f 490 499 491
f 499 492 491
f 491 492 488
f 492 480 488
f 488 480 478
f 494 495 497
f 495 498 497
f 497 498 499
f 498 493 499
f 499 493 492
f 493 487 492
f 492 487 484
f 496 351 495
f 495 351 498
f 351 352 498
f 501 502 533
f 376 512 375
f 512 502 375
f 375 501 391
f 376 377 512
f 512 377 513
f 513 377 503
f 500 512 344
f 377 378 503
f 503 378 343
f 343 378 504
f 514 505 342
f 505 506 342
f 378 379 504
f 379 380 506
f 342 506 340
f 506 507 340
f 340 507 508
f 508 341 340
f 381 509 515
f 380 385 506
f 506 385 510
f 385 511 510
f 533 502 500
f 502 512 500
f 512 513 344
f 344 513 343
f 343 504 514
f 507 515 508
f 508 515 341
f 515 516 341
f 341 516 517
f 341 517 339
f 381 383 474
f 381 474 509
f 474 477 509
f 509 477 479
f 479 516 509
f 516 515 509
f 515 507 511
f 511 507 510
f 507 506 510
f 506 505 379
f 505 514 379
f 379 514 504
f 343 513 503
f 502 501 375
f 339 517 485
f 485 517 483
f 517 516 483
f 483 516 481
f 516 479 481
f 523 524 522
f 408 525 519
f 519 525 524
f 353 496 526
f 496 494 526
f 526 494 521
f 521 494 489
f 489 402 521
f 521 353 526
f 530 355 520
f 355 353 520
f 520 353 527
f 527 353 528
f 353 521 528
f 521 402 528
f 527 528 520
f 520 528 404
f 307 530 354
f 530 520 529
f 529 520 405
f 520 404 405
f 518 354 530
f 530 529 531
f 531 529 405
f 518 530 407
f 530 531 407
f 531 405 407
f 299 518 523
f 518 407 523
f 523 407 519
f 522 299 523
f 524 523 519
f 533 532 501
f 408 418 525
f 524 525 538
f 522 524 538
f 434 536 540
f 548 539 304
f 356 542 304
f 542 547 304
f 304 547 548
f 543 419 541
f 419 421 541
f 427 419 543
f 356 302 542
f 302 357 542
f 543 545 427
f 545 546 427
f 427 546 417
f 546 522 549
f 549 522 538
f 539 536 537
f 525 534 538
f 538 534 549
f 546 545 544
f 545 543 544
f 544 543 357
f 357 543 542
f 543 541 542
f 542 541 547
f 541 422 547
f 547 422 548
f 422 540 548
f 548 540 539
f 540 536 539
f 546 549 417
f 549 534 417
f 534 525 418
f 460 391 551
f 460 551 552
f 551 553 552
f 552 553 554
f 553 550 554
f 554 550 555
f 533 373 550
f 550 373 555
f 373 364 555
f 533 550 532
f 550 553 532
f 532 553 501
f 551 501 553
f 391 501 551
f 359 360 556
f 435 436 557
f 358 310 558
f 358 558 559
f 558 560 559
f 559 560 561
f 560 557 561
f 561 557 562
f 557 436 562
f 562 436 439
f 563 537 564
f 564 537 536
f 564 536 434
f 360 535 556
f 556 535 563
f 563 535 537
f 310 359 558
f 359 556 558
f 558 556 560
f 556 563 560
f 560 563 557
f 563 564 557
f 557 564 435
f 564 434 435
f 565 457 566
f 566 457 567
f 457 458 567
f 566 366 365
f 555 364 568
f 364 569 568
f 552 458 460
f 567 458 569
f 569 458 570
f 458 552 570
f 570 552 554
f 566 567 366
f 366 567 569
f 569 570 568
f 570 554 568
f 568 554 555
f 439 571 562
f 562 571 561
f 561 571 559
f 571 358 559
f 358 571 579
f 452 453 572
f 454 455 576
f 367 368 577
f 574 581 452
f 581 438 452
f 574 582 581
f 361 575 574
f 574 575 582
f 566 576 565
f 565 576 456
f 455 456 576
f 573 576 367
f 576 566 367
f 454 576 453
f 453 576 577
f 576 573 577
f 577 573 367
f 453 577 370
f 577 368 370
f 572 453 578
f 453 370 578
f 572 578 574
f 578 370 369
f 369 371 574
f 574 371 361
f 452 572 574
f 574 578 369
f 362 358 579
f 580 575 361
f 580 582 575
f 579 571 583
f 583 571 439
f 583 584 579
f 579 584 362
f 584 580 362
f 583 581 584
f 581 582 584
f 582 580 584
f 430 428 408
f 410 432 411
f 411 409 410
f 410 409 406
f 406 409 405
f 409 431 408
f 408 431 430
f 410 412 432
f 433 432 403
f 403 432 413
f 413 432 412
f 433 403 414
f 384 416 401
f 416 415 401
f 401 415 414
f 425 427 449
f 425 450 427
f 427 450 426
f 426 450 424
f 450 448 424
f 424 448 447
f 447 429 420
f 447 446 429
f 586 390 590
f 471 470 586
f 586 470 390
f 390 470 587
f 390 587 376
f 376 587 389
f 587 469 588
f 588 389 587
f 169 468 588
f 588 468 388
f 388 468 387
f 468 589 387
f 387 589 386
f 165 151 589
f 468 165 589
f 585 385 151
f 385 386 151
f 151 386 589
f 151 466 585
f 585 466 385
f 511 466 374
f 466 465 374
f 466 467 465
f 374 465 384
f 465 416 384
f 13 440 441
f 540 10 444
f 10 11 444
f 444 11 443
f 11 6 443
f 443 6 5
f 441 2 13
f 2 442 5
f 442 445 5
f 5 445 443
f 471 586 590
f 590 459 471
f 471 459 472
f 440 13 591
f 592 464 591
f 591 464 451
f 591 14 592
f 592 14 593
f 593 594 463
f 594 595 463
f 463 595 454
f 596 595 17
f 596 454 595
f 461 596 17
f 17 597 461
f 597 598 461
f 461 598 460
f 597 22 598
f 598 22 460
f 460 22 472
f 460 472 459
f 599 600 601
f 601 600 219
f 219 600 602
f 600 603 602
f 602 603 604
f 606 607 608
f 607 609 612
f 610 611 612
f 612 611 613
f 614 599 218
f 218 599 615
f 201 619 616
f 619 617 616
f 201 618 619
f 619 618 620
f 620 618 621
f 621 618 623
f 618 622 623
f 623 622 211
f 211 622 624
f 622 625 624
f 614 218 208
f 625 208 624
f 624 208 626
f 208 218 626
f 627 628 196
f 628 630 196
f 196 630 631
f 630 629 631
f 629 632 270
f 270 632 633
f 638 614 270
f 614 634 270
f 270 634 629
f 629 634 635
f 637 246 638
f 638 599 614
f 227 639 640
f 639 265 640
f 647 648 650
f 648 649 650
f 649 229 645
f 651 652 650
f 650 652 647
f 650 653 651
f 653 654 655
f 654 656 658
f 657 658 659
f 658 656 659
f 661 662 664
f 662 663 664
f 663 665 664
f 665 666 664
f 664 666 667
f 666 668 667
f 667 668 669
f 669 668 670
f 672 671 675
f 673 674 675
f 674 676 675
f 675 676 677
f 677 676 627
f 616 617 207
f 617 619 207
f 207 619 210
f 619 620 210
f 620 621 210
f 621 623 210
f 210 623 211
f 211 624 212
f 212 624 214
f 214 624 215
f 215 624 216
f 624 626 216
f 626 218 216
f 678 197 613
f 606 608 221
f 221 608 222
f 608 612 222
f 222 612 223
f 223 612 197
f 612 613 197
f 219 602 220
f 602 604 220
f 604 605 220
f 220 605 221
f 605 606 221
f 217 601 219
f 218 615 217
f 615 599 217
f 599 601 217
f 641 678 639
f 678 636 639
f 246 637 249
f 249 637 248
f 637 636 248
f 636 678 248
f 247 638 246
f 644 226 227
f 654 658 261
f 261 658 264
f 658 657 264
f 651 653 234
f 653 655 234
f 234 655 261
f 261 655 654
f 651 234 652
f 234 231 652
f 652 231 647
f 646 229 228
f 647 231 648
f 648 231 649
f 231 232 649
f 232 229 649
f 644 642 226
f 642 646 226
f 226 646 228
f 264 657 258
f 657 679 258
f 258 679 272
f 635 206 629
f 629 206 631
f 206 207 631
f 631 207 196
f 627 196 677
f 677 196 675
f 196 253 675
f 253 672 675
f 669 670 667
f 670 268 667
f 667 268 664
f 660 661 262
f 262 661 268
f 661 664 268
f 208 209 614
f 208 625 202
f 625 622 202
f 202 622 203
f 203 622 204
f 622 618 204
f 204 618 205
f 205 618 201
f 201 616 206
f 207 206 616
f 678 613 248
f 613 611 248
f 248 611 250
f 611 610 250
f 638 247 599
f 247 252 599
f 599 252 600
f 250 603 251
f 603 600 252
f 607 605 250
f 610 609 250
f 609 607 250
f 640 254 643
f 643 257 645
f 257 256 645
f 645 256 650
f 650 256 653
f 654 653 266
f 266 653 256
f 656 654 266
f 272 679 266
f 679 657 266
f 657 659 266
f 266 659 656
f 265 639 267
f 639 636 267
f 636 637 267
f 267 637 269
f 637 638 269
f 269 638 271
f 271 638 270
f 662 661 260
f 260 661 263
f 263 661 660
f 259 668 260
f 668 666 260
f 666 665 260
f 665 663 260
f 260 663 662
f 668 259 671
f 264 676 259
f 676 674 259
f 674 673 259
f 673 671 259
f 632 629 272
f 629 630 272
f 630 628 272
f 272 628 258
f 628 627 258
f 258 627 264
f 627 676 264
f 263 660 262
f 681 680 686
f 680 687 686
f 686 687 685
f 689 688 685
f 685 688 686
f 689 690 688
f 690 691 688
f 688 691 692
f 693 695 691
f 695 694 691
f 691 694 692
f 697 1014 693
f 693 1014 695
f 684 697 696
f 696 697 693
f 699 684 696
f 696 698 699
f 699 698 1012
f 1012 698 701
f 700 702 698
f 702 701 698
f 700 703 702
f 702 703 704
f 703 706 704
f 706 707 704
f 704 707 705
f 704 705 710
f 705 708 710
f 708 709 710
f 710 709 713
f 709 711 713
f 711 712 713
f 712 714 713
f 713 714 1026
f 1026 714 715
f 714 716 715
f 716 717 715
f 715 717 718
f 718 717 719
f 719 717 731
f 717 720 731
f 723 722 748
f 722 721 748
f 724 1000 725
f 725 1000 723
f 723 1000 722
f 726 727 724
f 724 727 1000
f 1001 727 726
f 728 729 726
f 726 729 1001
f 726 730 728
f 730 683 728
f 728 683 682
f 734 735 739
f 735 737 739
f 737 738 739
f 738 740 739
f 739 740 741
f 736 742 743
f 743 742 740
f 740 742 741
f 743 745 736
f 736 745 1037
f 745 744 1037
f 1037 744 1034
f 744 746 1034
f 1034 746 747
f 749 747 746
f 721 749 748
f 748 749 750
f 749 746 750
f 971 762 754
f 762 763 754
f 755 757 754
f 971 754 756
f 754 757 756
f 756 757 758
f 758 757 1056
f 758 1055 759
f 1055 761 759
f 1048 1047 760
f 1047 759 760
f 760 759 1058
f 759 761 1058
f 760 969 1048
f 1047 1045 759
f 759 1045 768
f 768 1045 765
f 1046 765 764
f 969 766 1048
f 766 1046 1048
f 751 767 752
f 752 767 753
f 765 1046 768
f 1046 766 768
f 766 924 768
f 961 962 756
f 962 971 756
f 770 771 769
f 752 753 772
f 772 770 752
f 770 769 752
f 752 769 756
f 758 759 756
f 756 759 752
f 759 768 752
f 752 768 751
f 775 774 776
f 776 774 777
f 774 778 777
f 774 773 778
f 778 773 779
f 782 777 783
f 777 778 783
f 774 775 989
f 775 799 989
f 783 793 782
f 793 794 782
f 782 794 795
f 794 1030 795
f 786 787 797
f 790 792 791
f 799 775 800
f 800 775 776
f 784 786 802
f 802 786 785
f 786 797 785
f 797 787 780
f 780 787 788
f 787 798 788
f 798 790 788
f 791 792 796
f 796 792 1030
f 792 799 1030
f 1030 799 795
f 799 800 795
f 795 800 782
f 800 776 782
f 782 776 777
f 802 801 784
f 784 801 781
f 807 802 806
f 806 802 803
f 801 802 807
f 805 808 809
f 808 810 809
f 808 807 810
f 806 810 807
f 827 811 809
f 809 811 805
f 811 812 805
f 805 812 804
f 813 814 815
f 816 817 818
f 819 1033 820
f 1033 823 820
f 820 823 821
f 851 822 850
f 850 822 823
f 822 821 823
f 814 819 815
f 819 820 815
f 815 820 824
f 820 821 824
f 824 821 825
f 821 822 825
f 825 822 826
f 822 851 826
f 813 815 827
f 827 815 828
f 815 824 828
f 828 824 818
f 824 825 818
f 818 825 816
f 825 826 816
f 827 828 811
f 811 828 812
f 828 818 812
f 812 818 804
f 818 817 804
f 832 833 834
f 835 836 837
f 836 832 837
f 838 860 835
f 833 853 834
f 853 839 834
f 834 839 840
f 860 838 841
f 838 842 841
f 839 843 847
f 832 834 837
f 834 840 837
f 837 840 846
f 840 839 846
f 848 844 849
f 835 837 838
f 837 846 838
f 838 846 842
f 846 839 842
f 842 839 1035
f 839 847 1035
f 847 848 1043
f 1043 848 845
f 848 849 845
f 831 1041 845
f 831 845 849
f 829 831 830
f 830 831 850
f 831 849 850
f 850 849 851
f 850 823 830
f 830 823 829
f 829 823 1033
f 836 835 852
f 855 857 856
f 856 857 854
f 858 855 859
f 866 868 870
f 870 868 853
f 854 862 856
f 870 853 852
f 836 852 832
f 853 833 852
f 852 833 832
f 856 862 855
f 855 862 863
f 862 861 863
f 863 861 864
f 861 869 864
f 869 866 864
f 864 866 865
f 865 866 1004
f 1004 866 867
f 866 870 867
f 870 852 860
f 852 835 860
f 862 854 871
f 854 872 871
f 871 872 873
f 892 873 874
f 873 872 874
f 874 872 875
f 872 876 875
f 875 876 887
f 877 878 876
f 878 887 876
f 879 880 877
f 880 881 877
f 877 881 882
f 882 883 877
f 883 884 877
f 877 884 878
f 859 879 858
f 879 877 858
f 877 876 858
f 858 876 855
f 854 857 872
f 872 857 876
f 857 855 876
f 875 887 885
f 885 886 875
f 875 886 874
f 886 892 874
f 878 884 887
f 887 884 888
f 882 881 889
f 884 883 888
f 883 882 888
f 882 889 888
f 891 886 885
f 892 886 891
f 895 899 898
f 900 899 902
f 891 907 892
f 885 909 891
f 909 910 891
f 891 910 907
f 910 911 906
f 911 912 906
f 900 898 899
f 898 913 895
f 913 896 895
f 896 893 895
f 893 779 890
f 890 779 773
f 914 888 889
f 885 887 909
f 909 887 888
f 779 893 894
f 893 896 894
f 894 896 913
f 913 898 897
f 897 898 901
f 898 900 901
f 902 912 905
f 905 912 904
f 904 912 903
f 912 911 903
f 911 910 908
f 910 909 914
f 909 888 914
f 917 768 915
f 923 936 918
f 751 921 920
f 922 921 751
f 768 924 915
f 924 925 915
f 916 923 918
f 919 921 922
f 751 768 922
f 768 917 922
f 917 915 922
f 922 915 919
f 919 915 918
f 915 916 918
f 751 920 928
f 928 920 921
f 767 928 931
f 928 767 751
f 929 753 767
f 931 928 932
f 932 928 921
f 934 935 986
f 986 935 933
f 919 918 936
f 935 938 933
f 938 937 933
f 927 940 767
f 940 930 767
f 767 930 929
f 926 929 930
f 930 940 935
f 935 940 931
f 940 927 931
f 927 767 931
f 943 926 934
f 926 930 934
f 934 930 935
f 935 931 938
f 938 931 939
f 931 932 939
f 939 932 936
f 936 932 919
f 932 921 919
f 944 926 942
f 942 951 944
f 944 770 772
f 944 951 945
f 944 772 753
f 926 944 929
f 929 944 753
f 946 947 941
f 926 943 942
f 951 942 947
f 947 942 941
f 942 943 941
f 949 951 950
f 949 770 944
f 944 945 949
f 949 945 951
f 952 769 771
f 952 771 953
f 953 954 952
f 947 959 958
f 948 957 956
f 957 954 949
f 954 953 949
f 953 771 949
f 949 771 770
f 948 960 957
f 957 960 954
f 956 957 955
f 957 949 955
f 955 949 958
f 949 950 958
f 950 951 958
f 958 951 947
f 756 769 963
f 769 952 963
f 952 954 963
f 960 948 817
f 965 961 966
f 961 756 966
f 966 756 963
f 960 817 954
f 954 817 965
f 965 964 961
f 963 954 966
f 966 954 965
f 968 967 766
f 925 924 967
f 967 924 766
f 969 981 766
f 968 766 981
f 762 971 970
f 971 962 972
f 760 763 762
f 975 969 762
f 762 969 760
f 978 844 976
f 961 964 977
f 977 964 979
f 970 973 762
f 973 974 762
f 762 974 982
f 916 915 980
f 915 925 980
f 961 972 962
f 961 977 972
f 972 977 971
f 977 978 971
f 971 978 970
f 978 976 970
f 970 976 973
f 973 976 974
f 982 975 762
f 975 853 969
f 969 853 981
f 980 925 862
f 925 967 862
f 862 967 861
f 967 968 861
f 861 968 869
f 968 981 869
f 869 981 866
f 853 868 981
f 981 868 866
f 892 936 873
f 936 923 873
f 873 923 871
f 923 916 871
f 916 980 871
f 871 980 862
f 912 902 983
f 893 890 895
f 899 895 983
f 983 895 890
f 902 899 983
f 906 987 910
f 987 984 910
f 984 907 910
f 990 985 934
f 986 990 934
f 906 912 987
f 938 939 984
f 984 892 907
f 937 938 987
f 984 987 938
f 939 936 984
f 984 936 892
f 986 933 987
f 987 933 937
f 912 983 987
f 987 983 986
f 983 890 986
f 986 890 990
f 890 988 990
f 988 989 990
f 890 773 988
f 773 774 988
f 941 943 990
f 934 985 943
f 985 990 943
f 991 784 781
f 992 787 786
f 994 798 992
f 798 787 992
f 792 790 994
f 790 798 994
f 799 792 989
f 989 792 994
f 989 988 774
f 993 941 990
f 958 959 997
f 947 994 959
f 994 995 959
f 995 997 959
f 997 996 958
f 996 955 958
f 947 946 994
f 946 941 994
f 994 941 993
f 997 786 991
f 991 786 784
f 990 989 993
f 993 989 994
f 995 994 997
f 994 992 997
f 992 786 997
f 996 807 808
f 807 996 801
f 956 998 948
f 998 956 996
f 996 808 998
f 808 805 998
f 998 805 804
f 996 956 955
f 781 801 991
f 801 996 991
f 991 996 997
f 999 964 965
f 998 804 817
f 817 948 998
f 817 816 965
f 816 826 965
f 965 826 999
f 826 851 999
f 853 975 839
f 975 982 839
f 982 974 839
f 839 974 843
f 974 976 843
f 843 976 847
f 847 976 848
f 976 844 848
f 978 849 844
f 978 977 849
f 849 977 851
f 977 979 851
f 851 979 964
f 964 999 851
f 1000 727 1001
f 1003 721 722
f 1003 870 860
f 860 841 1003
f 870 1003 867
f 1003 722 867
f 867 722 1004
f 863 864 1001
f 1001 864 1005
f 1005 864 1004
f 864 865 1004
f 1006 859 855
f 863 1001 855
f 1001 1007 855
f 1007 1006 855
f 1000 1002 722
f 722 1002 1004
f 1002 1000 1004
f 1004 1000 1005
f 1000 1001 1005
f 1001 729 1007
f 729 728 1007
f 1007 728 1006
f 728 682 1006
f 1011 1008 1009
f 682 681 1010
f 1010 1009 1006
f 1006 1009 859
f 682 1010 1006
f 889 881 1008
f 881 880 1008
f 1008 880 1009
f 880 879 1009
f 1009 879 859
f 1009 1010 1011
f 1012 701 1020
f 1012 1013 699
f 1013 684 699
f 1014 697 684
f 1016 695 1014
f 695 1016 694
f 688 692 1016
f 1016 692 694
f 688 1017 686
f 1011 1010 686
f 686 1010 681
f 910 914 1011
f 1011 914 1008
f 1008 914 889
f 686 1017 1011
f 1017 908 1011
f 1011 908 910
f 688 903 1017
f 903 911 1017
f 1017 911 908
f 1015 904 688
f 688 904 903
f 900 902 1018
f 1018 902 1015
f 902 905 1015
f 1015 905 904
f 684 901 1018
f 1018 901 900
f 1019 897 901
f 1020 894 913
f 913 897 1019
f 1020 1022 894
f 894 1022 1021
f 688 1016 1015
f 1015 1016 1018
f 1016 1014 1018
f 1018 1014 684
f 684 1013 901
f 901 1013 1019
f 1019 1013 913
f 1013 1012 913
f 913 1012 1020
f 1024 718 719
f 1024 719 1025
f 719 731 1025
f 1024 715 718
f 1026 1027 713
f 710 713 1027
f 1028 704 1027
f 1027 704 710
f 702 704 1028
f 1020 1029 1022
f 701 702 1020
f 1020 702 1028
f 783 778 1029
f 778 779 1029
f 1029 779 1022
f 1022 779 1021
f 779 894 1021
f 1030 794 1029
f 794 793 1029
f 1029 793 783
f 1027 791 796
f 1027 796 1030
f 1027 1031 791
f 789 788 1031
f 788 790 1031
f 1031 790 791
f 797 780 1024
f 780 788 1024
f 1024 788 1032
f 1032 788 789
f 1024 1025 797
f 797 1025 785
f 803 802 1023
f 802 785 1023
f 1023 785 1025
f 1020 1028 1029
f 1029 1028 1030
f 1028 1027 1030
f 1031 1027 789
f 1027 1026 789
f 789 1026 1032
f 1032 1026 1024
f 1026 715 1024
f 810 806 1023
f 733 734 1038
f 731 733 1023
f 1023 1025 731
f 806 803 1023
f 814 813 733
f 813 827 733
f 827 809 733
f 733 809 1023
f 809 810 1023
f 819 814 1033
f 814 733 1033
f 1033 733 1038
f 749 721 1003
f 1035 747 841
f 747 749 841
f 1037 1034 1036
f 1041 736 1037
f 742 736 1041
f 1038 739 1039
f 734 739 1038
f 1033 1038 829
f 1038 1039 829
f 829 1039 831
f 1039 1040 831
f 1041 1042 845
f 1041 831 1040
f 1043 845 1042
f 1044 847 1043
f 1035 847 1044
f 749 1003 841
f 842 1035 841
f 739 741 1039
f 1039 741 1040
f 741 742 1040
f 1040 742 1041
f 1041 1037 1042
f 1042 1037 1043
f 1037 1036 1043
f 1043 1036 1044
f 1036 1034 1044
f 1044 1034 1035
f 1034 747 1035
f 1048 1046 1047
f 1046 764 1047
f 764 1045 1047
f 1045 764 765
f 1054 1049 1058
f 1049 1054 757
f 758 1057 1055
f 757 1054 1056
f 1054 761 1056
f 758 1056 1057
f 1056 761 1057
f 1052 1053 1051
f 1053 1058 1051
f 1060 1318 1061
f 1061 1318 1062
f 1318 1059 1062
f 1064 1063 1065
f 1065 1063 1066
f 1066 1063 1061
f 1063 1060 1061
f 1067 1068 1069
f 1068 1319 1069
f 1069 1319 1064
f 1064 1319 1063
f 1070 1071 1072
f 1071 1073 1072
f 1073 1074 1075
f 1075 1074 1076
f 1076 1074 1067
f 1077 1080 1070
f 1080 1078 1070
f 1070 1078 1071
f 1077 1079 1080
f 1079 1081 1080
f 1080 1081 1082
f 1081 1083 1082
f 1084 1083 1086
f 1083 1081 1085
f 1085 1086 1083
f 1084 1086 1363
f 1086 1087 1363
f 1087 1088 1363
f 1363 1088 1367
f 1367 1088 1089
f 1090 1089 1091
f 1091 1089 1088
f 1093 1092 1094
f 1094 1092 1090
f 1092 1095 1090
f 1090 1095 1089
f 1096 1097 1099
f 1097 1098 1099
f 1099 1098 1100
f 1100 1098 1101
f 1098 1102 1101
f 1101 1102 1103
f 1102 1376 1103
f 1103 1376 1093
f 1093 1376 1092
f 1105 1104 1096
f 1096 1104 1097
f 1106 1108 1107
f 1107 1108 1105
f 1108 1109 1105
f 1105 1109 1104
f 1112 1111 1113
f 1111 1110 1113
f 1113 1110 1107
f 1112 1114 1111
f 1114 1115 1111
f 1111 1115 1116
f 1117 1464 1118
f 1464 1119 1118
f 1118 1119 1115
f 1115 1119 1116
f 1121 1120 1122
f 1122 1120 1123
f 1120 1124 1123
f 1123 1124 1118
f 1124 1125 1118
f 1125 1126 1118
f 1118 1126 1117
f 1127 1128 1121
f 1121 1128 1120
f 1129 1465 1121
f 1121 1465 1127
f 1129 1130 1465
f 1465 1130 1133
f 1130 1131 1133
f 1131 1132 1133
f 1132 1134 1133
f 1133 1134 1135
f 1135 1134 1477
f 1134 1136 1477
f 1137 1477 1138
f 1477 1136 1138
f 1139 1137 1140
f 1140 1137 1138
f 1139 1140 1141
f 1141 1140 1143
f 1140 1142 1143
f 1146 1143 1142
f 1144 1492 1145
f 1145 1492 1142
f 1492 1146 1142
f 1152 1491 1147
f 1491 1148 1147
f 1147 1148 1144
f 1144 1148 1492
f 1150 1149 1151
f 1151 1149 1147
f 1149 1152 1147
f 1150 1153 1149
f 1153 1059 1149
f 1149 1059 1318
f 1156 1157 1219
f 1157 1158 1219
f 1160 1162 1161
f 1161 1162 1156
f 1162 1163 1156
f 1156 1163 1157
f 1161 1164 1159
f 1174 1175 1177
f 1177 1178 1179
f 1178 1180 1179
f 1181 1182 1183
f 1184 1185 1186
f 1185 1187 1186
f 1183 1186 1181
f 1181 1186 1187
f 1181 1188 1182
f 1188 1179 1182
f 1182 1179 1180
f 1188 1189 1179
f 1189 1190 1179
f 1179 1190 1191
f 1191 1192 1179
f 1192 1193 1179
f 1194 1195 1196
f 1195 1197 1196
f 1196 1197 1223
f 1184 1200 1185
f 1202 1203 1201
f 1196 1204 1194
f 1204 1205 1194
f 1194 1205 1206
f 1205 1207 1206
f 1206 1207 1208
f 1207 1201 1208
f 1208 1201 1203
f 1202 1201 1209
f 1201 1210 1209
f 1209 1210 1184
f 1210 1211 1184
f 1184 1211 1200
f 1193 1212 1179
f 1179 1212 1213
f 1212 1214 1213
f 1214 1215 1213
f 1215 1216 1213
f 1216 1217 1213
f 1154 1198 1218
f 1217 1221 1213
f 1213 1221 1220
f 1220 1222 1199
f 1222 1223 1199
f 1199 1223 1197
f 1225 1226 1227
f 1233 1239 1238
f 1238 1241 1240
f 1240 1241 1242
f 1241 1243 1242
f 1248 1247 1243
f 1243 1247 1242
f 1251 1252 1253
f 1287 1255 1179
f 1179 1255 1225
f 1255 1256 1225
f 1256 1257 1225
f 1258 1259 1260
f 1258 1261 1259
f 1259 1261 1262
f 1260 1259 1225
f 1263 1264 1265
f 1265 1264 1266
f 1266 1264 1253
f 1265 1270 1263
f 1270 1271 1263
f 1263 1271 1272
f 1271 1273 1272
f 1272 1273 1274
f 1273 1275 1274
f 1274 1275 1276
f 1276 1275 1277
f 1275 1278 1277
f 1277 1278 1268
f 1268 1278 1269
f 1269 1279 1268
f 1279 1280 1268
f 1268 1280 1262
f 1280 1281 1262
f 1262 1281 1259
f 1267 1282 1253
f 1253 1282 1213
f 1282 1283 1213
f 1283 1284 1213
f 1288 1348 1289
f 1348 1290 1289
f 1289 1290 1291
f 1290 1292 1291
f 1291 1292 1293
f 1292 1234 1293
f 1293 1234 1238
f 1289 1294 1288
f 1294 1295 1288
f 1288 1295 1296
f 1296 1297 1321
f 1297 1298 1321
f 1298 1300 1299
f 1299 1300 1338
f 1300 1301 1338
f 1338 1301 1302
f 1301 1303 1302
f 1302 1303 1305
f 1303 1304 1305
f 1306 1307 1308
f 1307 1309 1308
f 1308 1309 1310
f 1309 1311 1310
f 1311 1313 1312
f 1312 1313 1314
f 1313 1315 1314
f 1314 1315 1316
f 1315 1317 1316
f 1316 1317 1318
f 1325 1326 1074
f 1227 1229 1231
f 1327 1331 1332
f 1331 1333 1332
f 1330 1327 1328
f 1327 1332 1328
f 1328 1332 1231
f 1332 1333 1231
f 1319 1068 1326
f 1326 1068 1074
f 1334 1322 1325
f 1325 1322 1326
f 1337 1323 1080
f 1078 1080 1323
f 1322 1071 1323
f 1323 1071 1078
f 1325 1074 1334
f 1334 1074 1322
f 1074 1073 1322
f 1322 1073 1071
f 1339 1305 1306
f 1302 1339 1338
f 1306 1340 1339
f 1339 1302 1305
f 1306 1308 1340
f 1308 1310 1340
f 1340 1310 1312
f 1318 1341 1316
f 1341 1314 1316
f 1343 1339 1342
f 1339 1340 1342
f 1342 1340 1341
f 1340 1312 1341
f 1341 1312 1314
f 1318 1060 1341
f 1341 1060 1342
f 1060 1343 1342
f 1343 1344 1339
f 1344 1345 1339
f 1339 1345 1346
f 1346 1345 1330
f 1288 1296 1347
f 1296 1321 1347
f 1231 1348 1329
f 1234 1292 1235
f 1292 1290 1235
f 1235 1290 1236
f 1290 1348 1236
f 1236 1348 1237
f 1348 1231 1237
f 1330 1328 1348
f 1348 1347 1321
f 1231 1329 1328
f 1328 1329 1348
f 1347 1348 1288
f 1080 1082 1337
f 1323 1337 1322
f 1337 1336 1322
f 1336 1335 1322
f 1322 1335 1324
f 1335 1349 1324
f 1082 1083 1337
f 1083 1320 1337
f 1320 1350 1337
f 1337 1350 1336
f 1336 1350 1335
f 1350 1351 1335
f 1335 1351 1349
f 1349 1351 1352
f 1063 1319 1060
f 1060 1319 1343
f 1319 1326 1343
f 1343 1326 1344
f 1326 1322 1344
f 1344 1322 1345
f 1322 1324 1345
f 1345 1324 1330
f 1330 1324 1353
f 1324 1349 1353
f 1353 1349 1354
f 1349 1352 1354
f 1354 1352 1327
f 1352 1331 1327
f 1354 1327 1353
f 1353 1327 1330
f 1346 1330 1339
f 1330 1348 1339
f 1348 1321 1339
f 1339 1321 1338
f 1321 1299 1338
f 1355 1225 1227
f 1355 1356 1362
f 1179 1225 1362
f 1225 1355 1362
f 1356 1355 1333
f 1333 1355 1231
f 1355 1227 1231
f 1083 1084 1359
f 1359 1084 1358
f 1358 1084 1357
f 1357 1360 1358
f 1361 1360 1356
f 1360 1362 1356
f 1083 1359 1320
f 1320 1359 1350
f 1359 1358 1350
f 1358 1351 1350
f 1333 1331 1356
f 1356 1331 1361
f 1361 1331 1360
f 1331 1352 1360
f 1360 1352 1358
f 1352 1351 1358
f 1364 1177 1179
f 1174 1177 1364
f 1179 1362 1364
f 1364 1362 1365
f 1363 1367 1366
f 1367 1368 1366
f 1366 1368 1369
f 1368 1370 1369
f 1369 1370 1365
f 1357 1084 1366
f 1366 1084 1363
f 1365 1362 1369
f 1362 1360 1369
f 1369 1360 1366
f 1366 1360 1357
f 1409 1370 1368
f 1172 1174 1364
f 1374 1108 1106
f 1373 1097 1104
f 1375 1098 1097
f 1092 1372 1095
f 1377 1378 1379
f 1171 1377 1170
f 1170 1377 1167
f 1377 1379 1167
f 1167 1379 1165
f 1380 1381 1382
f 1382 1383 1380
f 1383 1384 1380
f 1380 1384 1385
f 1383 1386 1384
f 1386 1387 1384
f 1384 1387 1388
f 1104 1109 1373
f 1373 1109 1389
f 1109 1417 1389
f 1417 1390 1391
f 1108 1374 1109
f 1374 1392 1109
f 1109 1392 1393
f 1392 1394 1393
f 1393 1394 1395
f 1395 1396 1393
f 1393 1396 1390
f 1396 1397 1390
f 1390 1397 1391
f 1367 1398 1368
f 1398 1410 1368
f 1389 1417 1385
f 1403 1402 1399
f 1372 1398 1095
f 1095 1398 1367
f 1367 1089 1095
f 1376 1102 1405
f 1102 1404 1405
f 1401 1405 1404
f 1404 1406 1401
f 1406 1373 1401
f 1401 1373 1371
f 1402 1401 1399
f 1399 1401 1400
f 1401 1371 1400
f 1400 1371 1389
f 1371 1373 1389
f 1373 1406 1097
f 1406 1404 1097
f 1097 1404 1375
f 1404 1102 1375
f 1375 1102 1098
f 1365 1408 1364
f 1408 1407 1364
f 1407 1171 1364
f 1364 1171 1172
f 1365 1370 1409
f 1409 1368 1410
f 1365 1409 1408
f 1407 1408 1171
f 1410 1413 1409
f 1409 1413 1408
f 1413 1414 1408
f 1408 1414 1171
f 1372 1415 1398
f 1398 1415 1410
f 1415 1416 1410
f 1416 1411 1410
f 1410 1411 1413
f 1413 1411 1414
f 1411 1412 1414
f 1417 1418 1419
f 1381 1380 1419
f 1380 1385 1419
f 1419 1385 1417
f 1390 1417 1393
f 1417 1109 1393
f 1092 1376 1372
f 1376 1405 1372
f 1405 1401 1372
f 1372 1401 1415
f 1401 1402 1415
f 1415 1402 1416
f 1402 1403 1416
f 1416 1403 1411
f 1403 1399 1411
f 1399 1400 1411
f 1400 1389 1411
f 1411 1389 1412
f 1412 1389 1414
f 1389 1385 1414
f 1414 1385 1171
f 1385 1384 1171
f 1171 1384 1377
f 1384 1388 1377
f 1377 1388 1378
f 1420 1421 1418
f 1159 1165 1422
f 1165 1379 1422
f 1422 1379 1423
f 1379 1378 1423
f 1423 1378 1424
f 1378 1388 1424
f 1424 1388 1425
f 1388 1387 1425
f 1425 1387 1426
f 1387 1386 1426
f 1426 1386 1427
f 1386 1383 1427
f 1427 1383 1428
f 1383 1382 1428
f 1428 1382 1429
f 1382 1381 1429
f 1429 1381 1430
f 1381 1419 1430
f 1430 1419 1431
f 1419 1418 1431
f 1418 1421 1432
f 1418 1417 1420
f 1417 1391 1420
f 1433 1397 1434
f 1397 1396 1434
f 1434 1396 1435
f 1106 1110 1374
f 1110 1436 1374
f 1374 1436 1392
f 1436 1437 1392
f 1394 1438 1395
f 1438 1435 1395
f 1435 1396 1395
f 1154 1155 1439
f 1158 1157 1440
f 1128 1127 1120
f 1127 1441 1120
f 1441 1124 1120
f 1125 1124 1126
f 1116 1119 1464
f 1111 1116 1442
f 1436 1110 1111
f 1436 1111 1442
f 1435 1438 1442
f 1438 1437 1442
f 1442 1437 1436
f 1431 1432 1443
f 1432 1421 1443
f 1444 1429 1430
f 1425 1426 1445
f 1426 1427 1445
f 1445 1427 1444
f 1427 1428 1444
f 1444 1428 1429
f 1425 1445 1424
f 1445 1446 1424
f 1424 1446 1423
f 1163 1162 1446
f 1162 1160 1446
f 1160 1159 1446
f 1159 1422 1446
f 1446 1422 1423
f 1154 1439 1199
f 1440 1448 1158
f 1158 1448 1449
f 1449 1448 1439
f 1448 1447 1439
f 1439 1447 1450
f 1450 1452 1439
f 1454 1453 1455
f 1455 1453 1458
f 1458 1453 1459
f 1459 1453 1460
f 1461 1460 1462
f 1435 1442 1434
f 1434 1442 1116
f 1464 1117 1126
f 1455 1458 1127
f 1127 1458 1441
f 1441 1458 1124
f 1458 1459 1124
f 1459 1460 1124
f 1124 1460 1126
f 1126 1460 1464
f 1460 1461 1464
f 1464 1461 1116
f 1461 1462 1116
f 1116 1462 1434
f 1462 1463 1434
f 1434 1463 1433
f 1463 1420 1433
f 1456 1457 1469
f 1469 1457 1465
f 1456 1466 1467
f 1466 1451 1467
f 1451 1452 1467
f 1467 1452 1450
f 1439 1155 1449
f 1449 1155 1158
f 1157 1163 1440
f 1163 1446 1440
f 1440 1446 1448
f 1446 1445 1448
f 1448 1445 1447
f 1445 1444 1447
f 1447 1444 1443
f 1444 1430 1443
f 1443 1430 1431
f 1465 1457 1127
f 1127 1457 1455
f 1457 1456 1455
f 1456 1467 1455
f 1467 1450 1455
f 1455 1450 1454
f 1450 1447 1454
f 1454 1447 1453
f 1453 1447 1460
f 1460 1447 1462
f 1447 1443 1462
f 1462 1443 1463
f 1443 1421 1463
f 1463 1421 1420
f 1468 1220 1199
f 1469 1470 1456
f 1472 1468 1452
f 1452 1468 1439
f 1468 1199 1439
f 1213 1220 1474
f 1220 1468 1474
f 1468 1472 1474
f 1474 1472 1473
f 1452 1451 1472
f 1472 1451 1466
f 1470 1466 1456
f 1135 1471 1133
f 1471 1469 1133
f 1469 1465 1133
f 1471 1475 1469
f 1469 1475 1470
f 1470 1476 1466
f 1466 1476 1472
f 1472 1476 1473
f 1474 1253 1213
f 1475 1479 1476
f 1475 1478 1479
f 1135 1477 1471
f 1477 1478 1471
f 1471 1478 1475
f 1251 1253 1481
f 1253 1474 1481
f 1474 1480 1481
f 1474 1473 1480
f 1480 1473 1484
f 1473 1476 1484
f 1476 1470 1475
f 1137 1482 1477
f 1477 1482 1478
f 1479 1483 1476
f 1476 1483 1484
f 1504 1251 1481
f 1141 1143 1501
f 1311 1309 1485
f 1307 1304 1494
f 1303 1301 1486
f 1298 1297 1487
f 1293 1238 1240
f 1488 1291 1293
f 1295 1294 1488
f 1294 1289 1488
f 1488 1289 1291
f 1489 1300 1298
f 1311 1485 1313
f 1490 1315 1313
f 1149 1318 1317
f 1149 1317 1490
f 1490 1317 1315
f 1152 1149 1503
f 1503 1149 1490
f 1491 1152 1503
f 1491 1507 1492
f 1492 1148 1491
f 1293 1240 1488
f 1240 1242 1488
f 1488 1242 1247
f 1298 1487 1489
f 1301 1300 1486
f 1300 1489 1486
f 1486 1489 1487
f 1304 1303 1494
f 1303 1486 1494
f 1486 1487 1494
f 1494 1487 1495
f 1483 1479 1497
f 1501 1139 1141
f 1498 1479 1499
f 1499 1479 1500
f 1146 1501 1493
f 1501 1143 1493
f 1478 1482 1479
f 1479 1482 1500
f 1482 1137 1500
f 1500 1137 1501
f 1501 1137 1139
f 1313 1485 1490
f 1485 1503 1490
f 1503 1502 1491
f 1491 1502 1507
f 1496 1502 1495
f 1502 1503 1495
f 1495 1503 1494
f 1503 1485 1494
f 1494 1485 1307
f 1485 1309 1307
f 1246 1245 1504
f 1483 1505 1484
f 1484 1505 1480
f 1505 1504 1480
f 1504 1481 1480
f 1483 1497 1505
f 1497 1506 1505
f 1506 1511 1505
f 1505 1511 1504
f 1511 1248 1504
f 1504 1248 1246
f 1143 1146 1493
f 1146 1507 1501
f 1507 1508 1501
f 1501 1508 1500
f 1508 1499 1500
f 1499 1509 1498
f 1248 1511 1247
f 1511 1506 1510
f 1510 1506 1509
f 1506 1497 1509
f 1509 1497 1498
f 1497 1479 1498
f 1146 1492 1507
f 1507 1502 1508
f 1508 1502 1499
f 1499 1502 1509
f 1502 1496 1509
f 1496 1495 1509
f 1509 1495 1510
f 1495 1487 1510
f 1510 1487 1511
f 1511 1487 1247
f 1247 1487 1488
f 1487 1297 1488
f 1488 1297 1295
f 1218 1513 1219
f 1513 1514 1219
f 1514 1515 1219
f 1166 1164 1516
f 1516 1164 1515
f 1164 1161 1515
f 1161 1156 1515
f 1156 1219 1515
f 1516 1517 1166
f 1166 1517 1169
f 1169 1517 1168
f 1517 1518 1168
f 1168 1518 1173
f 1173 1518 1175
f 1175 1518 1176
f 1518 1519 1176
f 1176 1519 1178
f 1519 1520 1178
f 1178 1520 1180
f 1180 1520 1182
f 1182 1520 1183
f 1183 1512 1186
f 1186 1512 1184
f 1184 1512 1209
f 1209 1512 1202
f 1202 1512 1203
f 1512 1521 1203
f 1203 1521 1208
f 1208 1521 1206
f 1206 1521 1194
f 1194 1521 1195
f 1195 1521 1197
f 1521 1522 1197
f 1197 1522 1198
f 1522 1513 1198
f 1198 1513 1218
f 1193 1192 1533
f 1221 1523 1222
f 1523 1524 1222
f 1222 1524 1223
f 1524 1526 1223
f 1185 1200 1527
f 1200 1211 1527
f 1527 1211 1525
f 1211 1210 1525
f 1525 1210 1526
f 1210 1201 1526
f 1201 1207 1526
f 1207 1205 1526
f 1205 1204 1526
f 1204 1196 1526
f 1196 1223 1526
f 1185 1527 1187
f 1527 1528 1187
f 1187 1528 1181
f 1181 1528 1188
f 1528 1529 1188
f 1188 1529 1189
f 1529 1530 1189
f 1530 1531 1189
f 1189 1531 1190
f 1531 1568 1190
f 1568 1532 1190
f 1190 1532 1191
f 1532 1533 1191
f 1191 1533 1192
f 1533 1534 1193
f 1193 1534 1212
f 1212 1534 1214
f 1214 1534 1215
f 1534 1535 1215
f 1215 1535 1216
f 1535 1536 1216
f 1216 1536 1217
f 1217 1536 1221
f 1536 1523 1221
f 1276 1277 1548
f 1283 1537 1284
f 1537 1538 1284
f 1538 1539 1284
f 1285 1284 1539
f 1539 1540 1285
f 1540 1541 1285
f 1285 1541 1286
f 1541 1542 1286
f 1542 1543 1286
f 1286 1543 1287
f 1543 1544 1287
f 1544 1255 1287
f 1255 1544 1256
f 1256 1544 1257
f 1544 1545 1257
f 1257 1545 1260
f 1260 1545 1258
f 1545 1546 1258
f 1258 1546 1261
f 1546 1547 1261
f 1261 1547 1262
f 1547 1548 1268
f 1268 1548 1277
f 1276 1548 1274
f 1548 1549 1274
f 1274 1549 1272
f 1272 1549 1263
f 1263 1549 1264
f 1264 1549 1267
f 1549 1550 1267
f 1550 1551 1267
f 1267 1551 1282
f 1551 1552 1282
f 1282 1552 1283
f 1552 1537 1283
f 1241 1238 1553
f 1554 1555 1254
f 1279 1269 1556
f 1269 1278 1556
f 1556 1278 1555
f 1278 1275 1555
f 1275 1273 1555
f 1273 1271 1555
f 1271 1270 1555
f 1270 1265 1555
f 1265 1266 1555
f 1266 1254 1555
f 1279 1556 1280
f 1556 1557 1280
f 1280 1557 1281
f 1557 1558 1281
f 1281 1558 1259
f 1558 1559 1259
f 1259 1559 1224
f 1559 1560 1224
f 1224 1560 1226
f 1226 1560 1228
f 1560 1561 1228
f 1561 1562 1228
f 1228 1562 1230
f 1230 1562 1232
f 1562 1563 1232
f 1232 1563 1233
f 1233 1563 1239
f 1563 1553 1239
f 1239 1553 1238
f 1241 1553 1243
f 1553 1564 1243
f 1243 1564 1244
f 1564 1565 1244
f 1244 1565 1249
f 1249 1565 1250
f 1565 1566 1250
f 1250 1566 1252
f 1566 1554 1252
f 1252 1554 1254
f 1542 1541 1546
f 1541 1540 1546
f 1540 1539 1546
