v 0.046301 -0.030187 -0.120999
v 0.0549176 -0.00783486 -0.120998
v 0.129196 0.00077646 -0.0296128
v 0.124788 0.0913032 -0.0198981
v 0.11444 0.101004 -0.0191103
v 0.128178 0.0930173 -0.00466271
v -0.0166753 0.0527578 -0.121001
v 0.0780204 0.101031 -0.0368324
v 0.00950641 0.0549678 -0.120998
v 0.0986483 0.10107 -0.0330431
v 0.133141 0.0661252 -0.0142478
v 0.130133 0.0867177 -0.00825564
v 0.135174 0.065815 -0.00126348
v 0.112032 0.000600964 0.046705
v 0.102467 0.000564429 0.0514689
v 0.00508165 -0.0449144 -0.0383387
v -0.00606089 -0.0433475 -0.0347164
v 0.0821892 0.000567656 0.0551564
v 0.091923 0.000611165 0.0545111
v 0.113908 0.0915453 -0.0344387
v 0.0511922 0.000884556 0.0454642
v -0.0348435 -0.0139181 -0.0261534
v -0.0301869 -0.0231463 -0.026645
v -0.0284693 -0.0295749 -0.0301705
v -0.022609 -0.0338033 -0.0297221
v -0.0496153 0.0246669 -0.120993
v -0.0511328 0.0166096 -0.0899536
v -0.0480287 0.0259029 -0.101594
v -0.0397191 0.0379172 -0.106977
v -0.0370867 0.0410233 -0.121018
v 0.137561 0.000591337 -0.00519874
v 0.13498 0.000581954 -0.0173093
v 0.0971327 0.0663088 0.0504643
v 0.106453 0.0656105 0.0468808
v 0.104194 0.0864487 0.043301
v 0.115961 0.0665443 0.0405958
v 0.0351182 0.04301 -0.120998
v 0.0747424 0.109198 -0.013768
v 0.0822207 0.107566 -0.020426
v 0.0498812 0.0237866 -0.121
v 0.00193477 -0.0545336 -0.101876
v -0.00713005 -0.0546677 -0.120995
v 0.00573527 -0.0549172 -0.120998
v 0.130017 0.0653507 -0.0227708
v 0.120542 0.000546333 0.040058
v 0.127308 0.000507279 0.0322474
v 0.132378 0.00060846 0.0238331
v 0.125852 0.0659154 0.0300172
v 0.133242 0.0661993 0.014384
v 0.136889 0.000544185 0.0102117
v 0.114547 0.0938091 0.0321403
v 0.122662 0.0937473 0.0214215
v 0.106871 0.101004 0.0279086
v 0.124558 0.0658138 -0.0315813
v 0.0544008 0.00896836 -0.121
v 0.121106 0.0849743 -0.0298338
v 0.0111526 -0.0509587 -0.0756272
v 0.0412783 0.089486 0.0228934
v -0.0397562 0.0209145 -0.0371295
v -0.0386009 0.012569 -0.0295647
v 0.0471173 0.10087 0.0104199
v -0.0368179 0.0272153 -0.0403916
v 0.0902313 0.0922979 0.0457067
v 0.104702 0.0934888 0.0399991
v 0.116054 0.0861657 0.0347882
v 0.130388 0.0868524 0.00529165
v 0.0925838 0.108213 -0.015935
v 0.032959 -0.0443749 -0.120999
v 0.0188416 -0.0517891 -0.121005
v -0.00830475 -0.053734 -0.0988514
v -0.0188009 -0.0515509 -0.107901
v -0.0256919 -0.0489995 -0.120998
v -0.00388374 -0.0496752 -0.0600692
v 0.00727984 -0.0477786 -0.0522291
v -0.00414224 -0.0527519 -0.0821236
v 0.00460455 -0.0522447 -0.0788562
v 0.052254 0.0900893 0.036272
v 0.0531341 0.100909 0.0224573
v 0.0637555 0.106924 -0.0125485
v 0.0454456 0.100871 -0.00246525
v -0.0484019 0.0114506 -0.0598289
v -0.0515318 0.000953113 -0.0708783
v -0.0461536 0.00280875 -0.0416407
v 0.119397 0.100939 0.000437513
v 0.0990713 0.108666 -0.00573552
v 0.101588 0.107713 0.00665414
v 0.116384 0.100933 0.0142785
v 0.124245 0.0866282 0.024384
v 0.126814 0.0927576 0.0127863
v 0.0829492 0.111203 -0.00159605
v 0.0866565 0.109898 -0.0119636
v 0.0911955 0.109398 0.0126026
v 0.0927552 0.110336 0.000886934
v 0.0761002 0.110146 0.00945723
v 0.0758486 0.0923713 0.0455534
v 0.0700872 0.101035 0.0350396
v 0.0854362 0.0659795 0.0526127
v 0.0777768 0.0858052 0.0483968
v 0.0714852 0.00056804 0.0541915
v -0.0158556 -0.0383801 -0.0309711
v 0.0592789 0.000605683 0.0501099
v -0.0520083 -0.0167704 -0.102348
v -0.0516073 -0.0193948 -0.121
v -0.0467535 -0.0295402 -0.120958
v -0.0131622 -0.0506731 -0.0776653
v -0.0444125 -0.00870769 -0.0385018
v -0.0477326 -0.00744948 -0.0519108
v -0.0454068 -0.0182906 -0.0554967
v -0.0405674 -0.0190017 -0.0368285
v -0.00406568 -0.0457879 -0.0410492
v -0.0289264 -0.045977 -0.0980788
v -0.0211533 -0.0487489 -0.0844592
v -0.0275328 -0.0440257 -0.0742818
v -0.0155338 -0.0470138 -0.0585453
v 0.0636723 0.0905693 0.0431581
v 0.0638159 0.108261 0.000703591
v -0.0449756 0.0250288 -0.0705705
v -0.0403664 0.0350953 -0.0866694
v 0.0694307 0.065546 0.0510132
v 0.0511026 0.067234 0.0420125
v -0.0378626 0.0027259 -0.0265011
v -0.0527756 0.0082402 -0.0874129
v -0.0546154 0.00891474 -0.120971
v -0.0544221 0.00201045 -0.099662
v 0.090021 0.100948 0.0361328
v 0.0138294 -0.0527659 -0.101191
v -0.0451381 -0.0295895 -0.0923903
v -0.0480663 -0.0215763 -0.0803416
v -0.0378698 -0.0403423 -0.120938
v -0.0367766 -0.038714 -0.0867505
v -0.0546458 -0.00760578 -0.120996
v -0.0540518 -0.00520843 -0.0978562
v -0.0413705 -0.0267523 -0.0569502
v -0.0432959 0.0127464 -0.0380932
v -0.0432738 0.00142168 -0.0336173
v -0.0195257 -0.0423117 -0.0436162
v -0.0131537 -0.043029 -0.0376573
v -0.0459187 0.0182666 -0.058169
v -0.0377853 0.0332669 -0.0634652
v -0.0393173 -0.00421665 -0.0281163
v -0.0252429 -0.0370233 -0.0369862
v 0.0725801 0.110435 5.75046e-05
v 0.0853425 0.108684 0.017137
v 0.0763018 0.108275 0.0175586
v 0.0593476 0.0661948 0.0471891
v -0.05097 -0.0116425 -0.0766108
v -0.038922 -0.0333926 -0.0698881
v -0.0294214 -0.0396236 -0.0574832
v -0.0337176 -0.0309051 -0.0397628
v 0.0666353 0.10791 0.0113815
v -0.0360201 -0.0229382 -0.0326487
v -0.0396291 -0.0112274 -0.0303964
f 1 2 3
f 4 5 6
f 7 8 9
f 9 8 10
f 11 12 13
f 14 15 16
f 17 16 18
f 16 19 18
f 20 5 4
f 21 22 23
f 23 24 21
f 25 21 24
f 26 27 28
f 26 29 30
f 11 31 32
f 33 34 35
f 36 34 14
f 12 4 6
f 37 9 20
f 38 39 8
f 37 20 40
f 41 42 43
f 11 44 4
f 19 16 15
f 14 16 45
f 46 47 48
f 13 49 50
f 51 52 53
f 54 3 55
f 55 3 2
f 44 56 4
f 56 20 4
f 47 46 57
f 58 59 60
f 58 61 62
f 35 63 33
f 51 53 64
f 64 35 65
f 64 65 51
f 66 13 12
f 66 49 13
f 10 67 5
f 1 3 68
f 31 69 68
f 31 68 32
f 11 32 44
f 12 11 4
f 14 34 15
f 45 48 36
f 16 46 45
f 40 20 56
f 56 55 40
f 54 55 56
f 10 5 20
f 41 70 42
f 71 72 42
f 73 57 74
f 50 47 57
f 75 76 73
f 77 58 60
f 61 58 78
f 79 7 80
f 7 30 80
f 81 82 83
f 33 15 34
f 84 6 5
f 85 86 84
f 53 52 87
f 48 65 36
f 65 88 51
f 12 6 66
f 89 66 6
f 6 84 89
f 89 49 66
f 38 90 91
f 8 39 10
f 39 67 10
f 20 9 10
f 54 56 44
f 3 54 44
f 74 46 16
f 13 31 11
f 90 92 93
f 93 92 86
f 86 85 93
f 90 94 92
f 95 63 96
f 63 97 33
f 63 95 98
f 99 17 18
f 100 17 101
f 101 17 99
f 102 103 104
f 70 105 71
f 106 107 108
f 108 109 106
f 70 71 42
f 110 16 17
f 74 110 73
f 16 110 74
f 76 57 73
f 111 112 113
f 105 73 114
f 77 78 58
f 96 77 115
f 96 78 77
f 95 96 115
f 116 80 61
f 7 79 38
f 8 7 38
f 28 29 26
f 28 117 118
f 97 98 119
f 97 119 99
f 97 99 18
f 120 121 21
f 122 123 124
f 123 122 27
f 63 35 64
f 64 125 63
f 36 35 34
f 36 65 35
f 52 89 87
f 89 84 87
f 84 86 87
f 88 89 52
f 51 88 52
f 91 39 38
f 43 126 41
f 3 32 68
f 44 32 3
f 50 126 69
f 33 97 19
f 19 15 33
f 45 36 14
f 45 46 48
f 49 48 47
f 50 31 13
f 86 92 53
f 53 87 86
f 60 120 77
f 127 128 102
f 129 72 111
f 105 70 75
f 111 72 71
f 130 111 113
f 129 127 104
f 131 124 123
f 131 103 102
f 132 82 124
f 133 109 108
f 134 135 60
f 134 60 59
f 113 114 136
f 113 112 114
f 136 114 137
f 114 73 110
f 137 114 110
f 105 75 73
f 80 116 79
f 81 122 82
f 81 27 122
f 134 138 81
f 59 117 138
f 59 138 134
f 58 62 59
f 117 27 138
f 27 81 138
f 26 123 27
f 61 118 139
f 29 28 118
f 27 117 28
f 117 139 118
f 139 117 62
f 140 121 135
f 60 135 121
f 121 120 60
f 110 17 137
f 136 137 141
f 63 98 97
f 89 88 49
f 93 85 91
f 93 91 90
f 79 142 38
f 91 85 67
f 5 67 85
f 85 84 5
f 126 43 69
f 69 31 50
f 49 47 50
f 53 143 125
f 53 92 143
f 53 125 64
f 125 143 96
f 96 63 125
f 96 143 144
f 115 145 119
f 115 119 98
f 145 101 119
f 95 115 98
f 101 21 25
f 104 127 102
f 112 111 71
f 112 105 114
f 130 129 111
f 132 146 82
f 102 132 131
f 122 124 82
f 127 147 133
f 127 133 128
f 108 107 146
f 133 108 128
f 75 70 41
f 41 76 75
f 113 136 148
f 30 29 80
f 118 61 80
f 117 59 62
f 97 18 19
f 137 17 100
f 141 100 25
f 137 100 141
f 149 148 141
f 88 48 49
f 142 90 38
f 91 67 39
f 150 116 61
f 150 61 78
f 94 90 142
f 143 94 144
f 116 150 142
f 142 150 94
f 145 21 101
f 21 145 120
f 115 77 120
f 120 145 115
f 99 119 101
f 71 105 112
f 148 147 130
f 148 130 113
f 83 82 107
f 108 146 128
f 149 151 109
f 22 21 140
f 135 152 140
f 135 106 152
f 135 83 106
f 83 135 134
f 62 61 139
f 80 29 118
f 121 140 21
f 151 149 24
f 151 24 23
f 147 148 149
f 46 74 57
f 79 116 142
f 92 94 143
f 130 127 129
f 130 147 127
f 132 102 146
f 124 131 132
f 146 102 128
f 106 83 107
f 146 107 82
f 149 109 133
f 140 152 22
f 152 109 151
f 22 151 23
f 134 81 83
f 57 126 50
f 126 76 41
f 141 148 136
f 96 150 78
f 150 96 144
f 141 25 24
f 133 147 149
f 126 57 76
f 149 141 24
f 152 106 109
f 151 22 152
f 144 94 150
f 65 48 88
f 25 100 101
f 7 2 1
f 7 40 55
f 7 55 2
f 7 37 40
f 7 1 68
f 7 69 43
f 7 9 37
f 7 123 26
f 129 104 7
f 42 72 7
f 104 103 7
f 7 26 30
f 7 43 42
f 7 68 69
f 103 131 7
f 131 123 7
f 72 129 7
