v 0.00735296 0.12946 0.0133184
v 0.00163739 0.126158 -0.0196228
v -0.023924 0.124415 0.016367
v -0.0262798 0.125244 0.00722682
v 0.015124 0.110126 -0.066194
v 0.015 0.110153 -0.066199
v 0.0117282 0.111079 -0.0642428
v 0.015306 0.110421 -0.0644
v 0.016521 0.112641 -0.0532875
v 0.0191655 0.114741 -0.0432625
v 0.027143 0.119058 -0.021455
v 0.0269064 0.122918 -0.0103244
v 0.0297385 0.120766 -0.011516
v 0.030757 0.122188 -0.002095
v 0.030306 0.122764 0.002395
v 0.029358 0.123247 0.006254
v 0.027917 0.123695 0.009962
v 0.02601 0.124098 0.013459
v 0.0242227 0.125027 0.0145142
v 0.023665 0.124447 0.016684
v 0.020921 0.124738 0.019585
v 0.018356 0.124929 0.021676
v 0.0177185 0.124975 0.0221755
v 0.0154456 0.125885 0.0219181
v 0.014424 0.125146 0.024216
v 0.011736 0.125239 0.025432
v 0.010779 0.125273 0.025865
v 0.00396525 0.125406 0.0274292
v -0.002416 0.125435 0.027715
v -0.004598 0.125403 0.0274205
v -0.007359 0.125355 0.026927
v -0.00907004 0.125785 0.0257554
v -0.011171 0.125261 0.025715
v -0.014792 0.125129 0.024018
v -0.0193152 0.125858 0.0184523
v -0.019691 0.124829 0.0205845
v -0.028085 0.123651 0.009594
v -0.026225 0.124059 0.013112
v -0.030374 0.122714 0.002001
v -0.029476 0.123199 0.00587
v -0.030534 0.122465 5.8e-05
v -0.030771 0.122003 -0.00353
v -0.0270995 0.123629 -0.00680658
v -0.030537 0.121474 -0.00729
v -0.029481 0.120446 -0.013434
v -0.023353 0.119194 -0.02642
v -0.027271 0.119124 -0.021082
v -0.0221505 0.116368 -0.0350555
v -0.0141659 0.113132 -0.0536271
v -0.016869 0.113112 -0.051068
v -0.015715 0.111638 -0.058074
v -0.016208 0.112258 -0.05511
v -0.0101029 0.112431 -0.0595383
v -0.0143715 0.111648 -0.05942
v -0.00044131 0.111908 -0.0652209
v 0.000534 0.111701 -0.066472
v 0.00713733 0.112177 -0.0623292
v 0.0239466 0.120561 -0.0221629
v 0.0172962 0.123076 -0.0219604
v 0.00756741 0.123825 -0.0258081
v 0.0120768 0.129031 0.000756334
v 0.0173079 0.128142 0.00476788
v 0.0140701 0.128037 -0.00750027
v 0.0216752 0.125617 -0.00844635
v 0.016975 0.125561 -0.014044
v 0.00182213 0.128991 0.0171989
v 0.00256001 0.129752 -0.00135655
v 2e-06 0.12964 -0.001242
v 0.00138743 0.126428 0.0260555
v 0.00891171 0.127101 0.0224005
v 0.00178186 0.129935 0.00794794
v 0.0149142 0.127676 0.0164574
v 0.015573 0.126892 0.018383
v 0.0212862 0.126998 0.00329134
v 0.0271385 0.124658 0.000523006
v 0.0217715 0.12668 0.00925498
v 0.0192723 0.126786 0.0144168
v -0.0158588 0.127667 -0.00560411
v -0.0159048 0.128463 0.00252035
v -0.0119053 0.129038 0.0114747
v -0.0069242 0.128817 0.0174925
v -0.00276975 0.12939 0.0151418
v -0.0054363 0.12957 -0.00184343
v -0.0175179 0.11683 -0.039374
v -0.00460645 0.115382 -0.0508166
v 0.00283478 0.115397 -0.0509913
v 0.012594 0.116463 -0.0442803
v 0.0114616 0.114115 -0.0521828
v -0.0113202 0.126656 -0.0152486
v -0.0154612 0.125925 -0.0141759
v -0.0223231 0.126276 -0.00359224
v -0.021445 0.126877 0.001778
v -0.0229156 0.12647 0.00483891
v -0.0222272 0.126612 0.00778485
v -0.0212865 0.12668 0.0106709
v -0.0200924 0.126673 0.0134811
v -0.0161749 0.12624 0.0202349
v -0.004279 0.125448 -0.02124
v -0.003901 0.123357 -0.027653
v -0.00903413 0.117628 -0.0424285
v -0.0142383 0.121702 -0.0284222
v -0.0236601 0.122724 -0.0166067
v 0.015 0.106187 -0.088694
v 0.015 0.099734 -0.125287
v 0.014643 0.099809 -0.1253
v -0.004463 0.111189 -0.068731
v -0.00496925 0.111328 -0.067746
v -0.006085 0.111472 -0.066431
v 0.00701663 0.111223 -0.0674516
v 0.00894336 0.0985538 -0.137742
v 0.000435989 0.101272 -0.125816
v -0.010358 0.091065 -0.17117
v -0.009581 0.090777 -0.172711
v -0.011992 0.092173 -0.165633
v -0.00320713 0.0910628 -0.173938
v -0.004175 0.098461 -0.140112
v -0.00521325 0.096276 -0.15096
v -0.004174 0.097314 -0.146237
v -0.0127215 0.093079 -0.161156
v -0.013061 0.093638 -0.158426
v -0.012902 0.093751 -0.158054
v -0.011283 0.094348 -0.156639
v -0.0066404 0.0942184 -0.160414
v -0.006611 0.095783 -0.152661
v 0.00193056 0.0962215 -0.152367
v -0.008214 0.090491 -0.174465
v -0.008952 0.090617 -0.173642
v -0.007426 0.090406 -0.175112
v -0.005604 0.090327 -0.176027
v 0.00246704 0.0910607 -0.174132
v -0.003913 0.090325 -0.176438
v 0.003892 0.090322 -0.176464
v 0.001961 0.09034 -0.176694
v 0.00524997 0.0921218 -0.169449
v 0.006765 0.090362 -0.175521
v 0.005843 0.090331 -0.17594
v 0.007638 0.090425 -0.174954
v 0.008373 0.090513 -0.174308
v 0.010674 0.091215 -0.170394
v 0.011084 0.095165 -0.152984
v 0.0121555 0.0923745 -0.164639
v 0.013663 0.094915 -0.151855
v 0.014535 0.098443 -0.133015
v 0.014379 0.097635 -0.137393
v 0.00811004 0.0939676 -0.160585
v 0.015139 0.108686 -0.074341
v 0.015224 0.109923 -0.067217
v 0.01517 0.109234 -0.071198
v 0.0450433 0.0864075 -0.0152803
v 0.041483 0.0158 -0.02295
v 0.042468 0.0694764 -0.0212376
v 0.046131 0.0852725 -0.0118685
v 0.0445767 0.0842771 -0.016524
v 0.039807 0.0640921 -0.0256685
v 0.0350352 0.0600445 -0.0316826
v 0.035478 0.0158782 -0.0308031
v 0.0313182 0.0598748 -0.0352865
v 0.0284448 0.0158006 -0.03768
v 0.0168205 0.015863 -0.0434888
v 0.0258555 0.059793 -0.0393461
v -0.0100553 0.0611443 -0.0458558
v 0.00437629 0.060339 -0.0469534
v 0.00225288 0.0158 -0.0469255
v -0.0167218 0.0158003 -0.0446105
v -0.024661 0.05937 -0.040064
v -0.031764 0.0158 -0.034854
v -0.038649 0.0158046 -0.0274849
v -0.0302503 0.059582 -0.0361945
v -0.0390074 0.0633852 -0.0268636
v -0.044787 0.0158 -0.015986
v -0.0433034 0.0680498 -0.0195313
v -0.040554 0.0681405 -0.0246221
v -0.0449769 0.0861645 -0.0154994
v -0.0462195 0.085031 -0.0111245
v -0.046932 0.0158 -0.008581
v -0.047847 0.081811 -0.001261
v -0.047861 0.0158 -0.000929
v -0.047859 0.081703 -0.000929
v -0.04789 0.019777 0
v -0.047551 0.0158 0.006774
v -0.04789 0.019777 0.002
v -0.0474 0.078866 0.007901
v -0.047494 0.079267 0.006653
v -0.047899 0.081005 0.001243
v -0.0445935 0.0158012 0.0187256
v -0.0451235 0.0760158 0.0167695
v -0.039421 0.0158 0.02821
v -0.040444 0.0729025 0.026459
v -0.0312103 0.0158014 0.0374524
v -0.032531 0.0698337 0.0360088
v -0.0148345 0.0158057 0.0469218
v -0.023637 0.0677352 0.0425382
v -0.009455 0.065999 0.047945
v -0.0153005 0.066501 0.0463815
v 0.00406808 0.0158005 0.048827
v -0.003713 0.065738 0.048756
v 0.0020525 0.065737 0.0487585
v 0.01099 0.066102 0.047622
v 0.0183181 0.0157994 0.0454947
v 0.015146 0.066507 0.046362
v 0.027335 0.068443 0.040335
v 0.028776 0.0158 0.039293
v 0.0194935 0.067056 0.044651
v 0.0363925 0.0157997 0.0323475
v 0.031988 0.069626 0.036653
v 0.0458855 0.0157999 0.0160592
v 0.0411805 0.073277 0.025292
v 0.036127 0.070976 0.032452
v 0.044983 0.075794 0.017461
v 0.043217 0.074493 0.021509
v 0.046638 0.077574 0.011921
v 0.04772 0.080136 0.0039485
v 0.047861 0.0158 -0.000929
v 0.0459392 0.0157991 -0.0133723
v 0.047468 0.083155 -0.005418
v -0.0388612 0.0389208 -0.257
v -0.0438867 0.0331349 -0.256726
v -0.0371335 0.0409405 -0.25898
v -0.0544183 -0.00882967 -0.258987
v -0.0518375 -0.0186118 -0.256556
v -0.0509647 -0.0206938 -0.258999
v -0.00414089 -0.0548442 -0.257
v 0.0543667 -0.00827559 -0.258996
v 0.0549194 1.55161e-06 -0.258008
v 0.0543914 0.00821484 -0.256752
v 0.0495535 -0.0238914 -0.256877
v 0.0361711 -0.0416633 -0.258968
v 0.0451847 -0.0313315 -0.258965
v 0.0369324 -0.0405398 -0.257006
v 0.0272206 -0.0477933 -0.258991
v 0.0260308 -0.0484585 -0.255129
v 0.0149017 -0.0530696 -0.259025
v 0.0195746 -0.0514399 -0.255776
v 0.00106677 -0.0550165 -0.25701
v -0.00667202 -0.055031 -0.258973
v -0.00832413 -0.0543662 -0.256995
v -0.0204592 -0.0510813 -0.256724
v -0.0268115 -0.0481513 -0.258831
v -0.0336039 -0.0435427 -0.258984
v -0.0443018 -0.0327289 -0.259018
v -0.0402917 -0.0374687 -0.257122
v -0.0450853 -0.0315126 -0.256435
v -0.0483021 -0.0262992 -0.257087
v -0.0534168 -0.0129959 -0.256998
v -0.0540003 0.0116986 -0.259019
v -0.0549657 0.00254674 -0.257975
v -0.0526024 0.0160411 -0.256984
v -0.0475364 0.0276355 -0.258996
v -0.0505375 0.021713 -0.258386
v -0.0462392 0.0297888 -0.256934
v -0.0429154 0.0345637 -0.255485
v -0.039582 0.038148 -0.257
v -0.0299898 0.0460987 -0.257004
v -0.0175732 0.0522475 -0.259
v -0.0247743 0.0491709 -0.255786
v 0.00107224 0.0552817 -0.258877
v 0.000572897 0.0551011 -0.256213
v 0.0147855 0.052893 -0.258109
v 0.0234216 0.0498017 -0.258964
v 0.0295629 0.0465281 -0.259
v 0.0333685 0.0437155 -0.256938
v 0.0432664 0.034404 -0.258967
v 0.0454766 0.0309204 -0.256437
v 0.0493719 0.0242127 -0.256408
v 0.053167 0.0140989 -0.258992
v 0.0398954 -0.038097 -0.246502
v 0.0263841 -0.0482384 -0.234623
v 0.00987208 -0.0534366 -0.230632
v 0.0342699 0.066374 -0.153519
v 0.0307605 0.0800925 -0.143099
v 0.0312678 0.078589 -0.135311
v 0.0306843 0.0810834 -0.132944
v 0.0310174 0.0797533 -0.127226
v 0.0258917 0.0494899 -0.247169
v 0.024476 0.0493076 -0.253682
v 0.0289413 0.0470753 -0.251107
v 0.0276653 0.0515825 -0.233108
v 0.0217057 0.0547403 -0.232967
v 0.0356411 0.0477805 -0.225488
v 0.0315239 0.0511559 -0.226618
v 0.0465238 0.0297776 -0.247739
v 0.0505261 0.0219199 -0.253046
v 0.0059365 0.0708035 -0.210382
v 0.0292845 0.0748515 -0.187454
v 0.030994 0.078657 -0.121604
v 0.030991 0.078689 -0.121576
v 0.030994 0.078664 -0.121572
v 0.0376316 0.0544817 -0.166067
v 0.0394369 0.0456399 -0.170549
v 0.0387651 -0.0315803 -0.204842
v 0.0363048 -0.0349376 -0.206426
v 0.00876966 -0.0504897 -0.21196
v 0.00239503 -0.0528857 -0.223591
v 0.0035839 -0.0533811 -0.227759
v -0.00097688 -0.0545821 -0.242501
v 0.00836227 -0.0544522 -0.254813
v 0.048456 -0.026065 -0.253016
v 0.000467373 0.055107 -0.253023
v 0.0409192 0.036836 -0.254192
v 0.0537858 0.0116334 -0.252621
v 0.0539208 0.0106887 -0.246744
v 0.0548945 0.00100936 -0.255021
v 0.0350137 -0.0424907 -0.25625
v 0.004221 -0.054787 -0.251069
v -0.000195119 -0.0549033 -0.252768
v -2.62287e-06 -0.0549067 -0.250087
v 0.00393393 -0.0547475 -0.24573
v 0.0069622 -0.0544001 -0.242399
v 0.00508533 -0.0520679 -0.218136
v 0.00217849 -0.0515726 -0.214501
v 0.00690609 -0.0511792 -0.214048
v 0.0127193 -0.04974 -0.211977
v 0.0138127 -0.0492724 -0.211331
v 0.026707 -0.0434705 -0.209579
v 0.0226615 -0.0461429 -0.211344
v 0.0183483 -0.0476417 -0.210518
v 0.0265446 -0.0428753 -0.207694
v 0.0315843 -0.0393125 -0.207181
v 0.030848 -0.040849 -0.209888
v 0.0340209 -0.0367084 -0.205603
v 0.041005 -0.027888 -0.203215
v 0.0410539 -0.0273245 -0.202122
v 0.0430721 -0.0228893 -0.200131
v 0.0448836 -0.0191931 -0.199853
v 0.0463757 -0.0140237 -0.198343
v 0.047242 -0.00883564 -0.196558
v 0.0473443 -0.0035987 -0.194337
v 0.0470596 -0.00562926 -0.193943
v 0.0471679 8.78202e-05 -0.192805
v 0.046689 0.00596792 -0.190546
v 0.0478025 0.00202305 -0.195029
v 0.0458347 0.0144955 -0.187865
v 0.0442805 0.0214379 -0.183234
v 0.0454907 0.0153812 -0.186812
v 0.045476 0.015249 -0.186767
v 0.0434371 0.0271675 -0.181303
v 0.0436411 0.0286575 -0.182927
v 0.0415933 0.0360914 -0.176464
v 0.0408474 0.039962 -0.174566
v 0.03718 0.054342 -0.163487
v 0.0352984 0.0606389 -0.156404
v 0.0368557 0.0557912 -0.16252
v 0.0337736 0.0666782 -0.14998
v 0.0328384 0.0699527 -0.144903
v 0.0324229 0.0718096 -0.14231
v 0.031389 0.075713 -0.132601
v 0.0306908 0.082065 -0.122317
v 0.030605 0.082482 -0.122245
v 0.0305585 0.0826692 -0.122267
v 0.029678 0.085988 -0.123874
v 0.029855 0.0825 -0.143814
v 0.029989 0.080859 -0.153181
v 0.029963 0.081127 -0.151653
v 0.0312446 0.0779561 -0.15236
v 0.029914 0.081702 -0.148371
v 0.030125 0.0794385 -0.161288
v 0.030243 0.077635 -0.171578
v 0.030193 0.078681 -0.165607
v 0.0328309 0.0725745 -0.175764
v 0.0300355 0.0761995 -0.179766
v 0.0314193 0.0726214 -0.185559
v 0.027828 0.073834 -0.193241
v 0.0277244 0.072425 -0.195791
v 0.026618 0.073351 -0.195979
v 0.026917 0.07347 -0.195303
v 0.025237 0.0729585 -0.198199
v 0.021892 0.072215 -0.202405
v 0.017148 0.071561 -0.206101
v 0.00875923 0.0660936 -0.216697
v 0.011788 0.071072 -0.208863
v 0.009074 0.070925 -0.209693
v -0 0.070707 -0.210926
v 6.48063e-05 0.0643476 -0.220674
v -0.000432933 0.0700021 -0.212391
v 0.00395816 0.0591519 -0.231834
v -0.00217266 0.0583951 -0.234836
v -0.00445821 0.0594001 -0.231711
v 0.000240438 0.0573418 -0.238418
v 6.45574e-06 0.0555949 -0.247499
v 0.005166 0.056143 -0.242762
v 0.0516463 0.0191127 -0.24397
v 0.0517534 0.0185501 -0.236706
v 0.0485719 0.0265804 -0.237485
v 0.044043 0.033939 -0.241997
v 0.0412328 0.0423738 -0.221947
v 0.0446451 0.0353056 -0.230493
v 0.0364304 0.0427552 -0.241078
v 0.039632 0.038528 -0.249253
v 0.0349998 0.0427833 -0.24996
v 0.0422557 0.0365256 -0.240287
v 0.0109034 0.0545171 -0.248252
v 0.00867358 0.0543829 -0.256348
v 0.0186994 0.0526134 -0.246181
v 0.0367378 0.0504209 -0.215137
v 0.0413869 0.0436424 -0.215765
v 0.0455103 0.0343437 -0.223615
v 0.0321076 0.0535638 -0.219602
v 0.0319318 0.0681316 -0.193966
v 0.0356442 0.0552901 -0.207157
v 0.0318769 0.0586468 -0.209526
v 0.028644 0.05542 -0.221576
v 0.0259454 0.0587396 -0.218464
v 0.025226 0.056654 -0.223726
v 0.0232992 0.0560786 -0.227563
v 0.021547 0.057569 -0.225894
v 0.0172952 0.0572846 -0.230609
v 0.0137233 0.0623544 -0.221566
v 0.0106326 0.0613976 -0.224821
v 0.0176497 0.0633795 -0.217583
v 0.022727 0.0696313 -0.204867
v 0.0275572 0.0648836 -0.206378
v 0.0160578 0.0571025 -0.232194
v 0.0130418 0.0572 -0.234101
v 0.010032 0.057278 -0.235769
v 0.0462794 0.0242718 -0.193585
v 0.046872 0.022716 -0.19637
v 0.0433887 0.0395895 -0.194714
v 0.0416067 0.0456618 -0.200028
v 0.0376546 0.0544507 -0.20086
v 0.0416848 0.0418612 -0.181719
v 0.0350641 0.0674137 -0.17622
v 0.0368269 0.061805 -0.172707
v 0.0310325 0.0778761 -0.125402
v 0.0297795 0.0837245 -0.136824
v 0.0296968 0.0852407 -0.12816
v 0.033274 0.07221 -0.165576
v 0.030048 0.08025 -0.156655
v 0.0348697 0.0678195 -0.168434
v 0.0320454 0.0756606 -0.14653
v 0.0116145 -0.0523282 -0.226406
v 0.0157191 -0.0498766 -0.21624
v 0.0168926 -0.0491596 -0.214219
v 0.0258902 -0.0459327 -0.215937
v 0.0219254 -0.0489188 -0.220057
v 0.0258203 -0.0464313 -0.218601
v 0.0142648 -0.0512577 -0.221684
v 0.0230799 -0.0487268 -0.224403
v 0.0322972 -0.0440104 -0.225781
v 0.0359806 -0.0407981 -0.224336
v 0.036587 -0.039648 -0.222164
v 0.0248154 -0.0487678 -0.231695
v 0.0302361 -0.0455971 -0.229442
v 0.036958 -0.040663 -0.229189
v 0.0224401 -0.0495221 -0.225929
v 0.0491784 -0.0114269 -0.208293
v 0.048513 -0.011838 -0.20557
v 0.0465814 -0.0123158 -0.19739
v 0.0466339 -0.0180635 -0.204916
v 0.0493076 -0.0198758 -0.221587
v 0.0484618 -0.0196619 -0.216511
v 0.0411149 -0.0307174 -0.210029
v 0.0512561 0.00108292 -0.212223
v 0.0501731 -0.00743091 -0.20832
v 0.0499248 -0.00761947 -0.208141
v 0.0226387 -0.0503858 -0.243076
v 0.0237765 -0.0496875 -0.24451
v 0.0142322 -0.053119 -0.246312
v 0.014063 -0.0532234 -0.252677
v 0.0285065 -0.0470322 -0.255625
v 0.0334343 -0.0438484 -0.247393
v 0.029514 -0.0466479 -0.247089
v 0.0342476 -0.0432602 -0.242429
v 0.0379722 -0.0400622 -0.237807
v 0.00275826 -0.0543447 -0.238335
v 0.0087446 -0.0539128 -0.236377
v 0.0174148 -0.0518422 -0.235714
v 0.0164896 -0.0521829 -0.233313
v 0.0189524 -0.0511764 -0.228991
v 0.0438055 -0.0326703 -0.228
v 0.0406679 -0.0372095 -0.231773
v 0.0324953 -0.0448311 -0.239263
v 0.030907 -0.045646 -0.241202
v 0.03178 -0.044935 -0.234908
v 0.0368331 -0.0410578 -0.233321
v 0.0417846 -0.0360486 -0.237772
v 0.0458357 -0.0306669 -0.243003
v 0.0472387 -0.0281933 -0.237258
v 0.0338704 -0.0413887 -0.218906
v 0.039204 -0.0364755 -0.219936
v 0.0415978 -0.0340143 -0.221374
v 0.0439593 -0.0312826 -0.22338
v 0.048105 -0.0251439 -0.227106
v 0.0437876 -0.0334827 -0.251722
v 0.0504598 -0.022264 -0.248694
v 0.0520261 -0.0181754 -0.258974
v 0.0541203 -0.0103526 -0.245218
v 0.052544 -0.0155345 -0.239528
v 0.0511086 -0.019615 -0.236331
v 0.0507125 -0.0211016 -0.237365
v 0.0474876 -0.0271741 -0.231663
v 0.0550246 -0.000827496 -0.24967
v 0.054596 0.006567 -0.253336
v 0.0538089 -0.00575265 -0.233377
v 0.0533719 -0.0106423 -0.235804
v 0.050484 -0.0187651 -0.227013
v 0.0469328 -0.0246113 -0.219314
v 0.0433613 -0.0263474 -0.207114
v 0.0414682 -0.0314272 -0.212592
v 0.0500392 -0.0114915 -0.212578
v 0.0522541 -0.00011807 -0.217921
v 0.051948 -0.009223 -0.222033
v 0.050573 -0.015531 -0.221506
v 0.0519543 -0.0152348 -0.230501
v 0.052526 -0.0103875 -0.227366
v 0.0532917 -0.000916724 -0.226355
v 0.0511321 0.0162982 -0.218061
v 0.0502383 0.00800326 -0.206808
v 0.0545774 0.00164078 -0.240532
v 0.0529822 0.00803281 -0.227008
v 0.0539352 0.00811321 -0.238166
v 0.0518833 0.0167065 -0.231731
v 0.048499 0.0273796 -0.229013
v 0.042277 0.039014 -0.227412
v 0.0377207 0.0447781 -0.228011
v 0.033914 0.047035 -0.232813
v 0.0310905 0.0481746 -0.236726
v 0.0295515 0.0482027 -0.241641
v 0.014525 0.054078 -0.245429
v 0.009166 0.056232 -0.240162
v 0.0520512 -0.0113652 -0.224629
v 0.0518431 0.0153861 -0.223899
v 0.0488013 0.0264868 -0.224415
v 0.0492638 0.0149664 -0.204457
v 0.0497311 0.0203472 -0.212445
v 0.045156 0.0333246 -0.197195
v 0.0477885 0.0292126 -0.217279
v 0.0530947 0.00066715 -0.224037
v 0.0549995 8.36574e-06 -0.259
v -0.0512027 0.0151048 -0.217501
v -0.0539499 -0.00551193 -0.233035
v -0.0516409 0.00973385 -0.216396
v -0.051861 0.003781 -0.216003
v -0.0539494 -0.010739 -0.247935
v -0.0426291 -0.0348808 -0.233527
v -0.046583 -0.029159 -0.235279
v -0.0483843 -0.0269144 -0.237472
v -0.0387758 -0.0392962 -0.236018
v -0.0445637 -0.0296479 -0.220968
v -0.038638 -0.0314982 -0.20436
v -0.00263163 -0.0540131 -0.234394
v -0.005338 -0.053619 -0.231815
v -0.00600851 -0.0527401 -0.224249
v -0.0313342 0.0777518 -0.151851
v -0.00854913 0.0565557 -0.239362
v -0.0289406 0.0720807 -0.193968
v -0.005166 0.056143 -0.242762
v -0.02178 0.050742 -0.251386
v -0.0257223 0.0489957 -0.249774
v -0.0428677 0.0357459 -0.241027
v -0.038666 0.040525 -0.241364
v -0.0544784 -0.00752635 -0.257107
v -0.029794 0.083339 -0.139031
v -0.0308491 0.0804758 -0.133103
v -0.029926 0.081552 -0.149224
v -0.030097 0.076407 -0.178582
v -0.0260485 0.0731955 -0.19686
v -0.0261933 0.0731216 -0.196904
v 0.000157426 0.0562299 -0.243446
v -0.01423 0.053136 -0.255919
v -0.0478595 -0.0271716 -0.25367
v -0.00367824 -0.0546008 -0.244174
v -0.00227 -0.053676 -0.230732
v -7.98082e-05 -0.0525978 -0.221209
v -0.00882074 -0.0504441 -0.211885
v -0.0120055 -0.0496786 -0.211092
v -0.0421156 0.0363641 -0.179304
v -0.0311761 0.0768458 -0.129306
v -0.0310889 0.0766117 -0.12714
v -0.0310507 0.0781888 -0.126304
v -0.0303633 0.0834508 -0.124408
v -0.031017 0.078217 -0.12371
v -0.03077 0.081419 -0.122058
v -0.030994 0.078657 -0.121604
v -0.030992 0.078688 -0.121576
v -0.030994 0.078664 -0.121572
v -0.0313902 0.0757105 -0.132604
v -0.032017 0.0729971 -0.13909
v -0.0315477 0.0776919 -0.141831
v -0.0366419 0.056464 -0.161741
v -0.0352567 0.0622838 -0.15712
v -0.0341649 0.0675566 -0.153511
v -0.0383261 0.0500614 -0.167197
v -0.0382716 0.0492263 -0.166606
v -0.0394399 0.045624 -0.17055
v -0.0405795 0.0412513 -0.173986
v -0.0456616 0.0153823 -0.187346
v -0.0451708 0.0154036 -0.185666
v -0.0437206 0.0260276 -0.182034
v -0.0471779 0.00038203 -0.192786
v -0.0465633 0.00795761 -0.19005
v -0.0473153 -0.00651978 -0.195447
v -0.047421 -0.0100429 -0.198551
v -0.0463362 -0.013877 -0.198046
v -0.0439038 -0.0217908 -0.200792
v -0.04577 -0.0165386 -0.199247
v -0.0426458 -0.0239224 -0.20057
v -0.0460344 -0.0185183 -0.202938
v -0.0421359 -0.0264631 -0.203704
v -0.0397098 -0.0294758 -0.202777
v -0.0359312 -0.0344693 -0.20454
v -0.0335211 -0.0371478 -0.205651
v -0.0380398 -0.0340378 -0.208329
v -0.030926 -0.039892 -0.207402
v -0.0284896 -0.0426012 -0.21002
v -0.0280282 -0.0422114 -0.20836
v -0.0225507 -0.0453593 -0.208766
v -0.0193577 -0.0472658 -0.21056
v -0.0168147 -0.0482324 -0.210875
v -0.0156816 -0.049036 -0.212233
v -0.00417105 -0.0512027 -0.212802
v -0.00623976 -0.0511888 -0.213685
v -0.00233681 -0.0511716 -0.212223
v -0.00545671 -0.05187 -0.217377
v -0.00325804 -0.0532273 -0.226684
v -0.00683368 -0.0540008 -0.237216
v -0.004221 -0.054787 -0.251069
v -0.00184995 -0.0550463 -0.25594
v -0.0233572 -0.0498985 -0.256486
v -0.0365864 -0.0410655 -0.256996
v -0.041945 -0.035605 -0.253021
v -0.05218 -0.0174 -0.253476
v -0.0548644 0.00556177 -0.256804
v -0.053322 0.013442 -0.251056
v -0.0368337 0.0409185 -0.253565
v -0.0255889 0.048761 -0.253717
v -0.0161486 0.0525818 -0.256949
v -0.00562619 0.0547124 -0.256976
v -0.00764322 0.0545811 -0.253672
v -0.00692916 0.0554334 -0.246195
v -0.001554 0.056743 -0.24081
v -0.00326874 0.0604884 -0.228779
v -0.00539362 0.0611521 -0.226901
v -0.002889 0.070727 -0.210817
v -0.00899974 0.0700846 -0.210958
v -0.00188 0.070716 -0.21088
v -0.00983 0.070954 -0.209531
v -0.0183946 0.0696814 -0.207956
v -0.013602 0.071206 -0.208105
v -0.0183735 0.0717005 -0.205313
v -0.020757 0.072043 -0.203377
v -0.022554 0.072336 -0.201722
v -0.023195 0.071678 -0.201979
v -0.028282 0.074085 -0.191813
v -0.0291008 0.0748462 -0.187479
v -0.0332529 0.0717242 -0.177248
v -0.03018 0.0783445 -0.167527
v -0.030239 0.077499 -0.172352
v -0.030049 0.080242 -0.156702
v -0.029981 0.080939 -0.152722
v -0.029961 0.081154 -0.151499
v -0.02985 0.082518 -0.143716
v -0.030131 0.083446 -0.130534
v -0.029724 0.0846002 -0.131824
v -0.029685 0.085508 -0.126627
v -0.029678 0.085984 -0.123899
v -0.030527 0.0827802 -0.122332
v -0.030572 0.082475 -0.122244
v -0.0550963 0.00155562 -0.250807
v -0.0547673 0.00212761 -0.243414
v -0.0494824 0.0243747 -0.246198
v -0.0531204 0.0115381 -0.232658
v -0.0527863 0.0154355 -0.240826
v -0.0527071 0.0158204 -0.243253
v -0.044469 0.03281 -0.247186
v -0.045813 0.031076 -0.244223
v -0.05024 0.0221997 -0.22726
v -0.0480764 0.0281594 -0.232108
v -0.0397999 0.0426924 -0.228193
v -0.0441813 0.0372151 -0.221156
v -0.046691 0.031861 -0.221088
v -0.0419474 0.0386633 -0.231409
v -0.0398474 0.0408084 -0.233693
v -0.0375734 0.0455053 -0.226308
v -0.0343072 0.0486913 -0.226855
v -0.0304261 0.0504789 -0.230793
v -0.0258234 0.0533665 -0.231032
v -0.0310209 0.0455017 -0.25394
v -0.0349481 0.0459055 -0.233605
v -0.0300453 0.0496013 -0.234395
v -0.0225875 0.0534597 -0.23595
v -0.0335762 0.0466164 -0.236593
v -0.0208294 0.0534118 -0.239349
v -0.036617 0.041523 -0.248294
v -0.0351253 0.043927 -0.241013
v -0.0310528 0.0471959 -0.240748
v -0.028382 0.048682 -0.242226
v -0.0178979 0.0537904 -0.24227
v -0.019398 0.052423 -0.245732
v -0.0249163 0.050128 -0.245464
v -0.017087 0.052391 -0.253155
v -0.0126471 0.0539086 -0.250562
v -0.012543 0.054352 -0.246555
v -0.0387952 0.0483852 -0.213478
v -0.040553 0.044359 -0.216975
v -0.038495 0.046645 -0.219177
v -0.0333266 0.0523371 -0.219687
v -0.033528 0.05056 -0.22355
v -0.0279995 0.0615985 -0.211529
v -0.0246673 0.0626045 -0.213876
v -0.0239591 0.0611578 -0.216633
v -0.0297822 0.0537358 -0.223606
v -0.0280053 0.0536907 -0.226687
v -0.0301491 0.0614234 -0.208407
v -0.0175759 0.0618682 -0.220381
v -0.023092 0.0595504 -0.220204
v -0.0143211 0.0616117 -0.222787
v -0.003169 0.0661 -0.21769
v -0.0174679 0.0586012 -0.22748
v -0.0132494 0.0570097 -0.235605
v -0.0159302 0.0563042 -0.234787
v -0.013517 0.058432 -0.230366
v -0.019617 0.057904 -0.226991
v -0.0225322 0.0573053 -0.225479
v -0.00780654 0.0625738 -0.22335
v -0.0372421 0.0576412 -0.167175
v -0.0421649 0.043009 -0.187242
v -0.037752 0.0590364 -0.17823
v -0.0322968 0.0704728 -0.187936
v -0.0337406 0.0607071 -0.201899
v -0.0370391 0.0610912 -0.172725
v -0.0354953 0.0657996 -0.167375
v -0.0315589 0.0768449 -0.136122
v -0.031715 0.076606 -0.144065
v -0.0362795 0.0637971 -0.180014
v -0.032854 0.0724703 -0.14926
v -0.03242 0.071491 -0.14212
v -0.0330928 0.0729858 -0.161767
v -0.0349339 0.067082 -0.181795
v -0.0112537 -0.0506834 -0.214966
v -0.019267 -0.048273 -0.2141
v -0.025227 -0.045636 -0.214047
v -0.0189756 -0.0488789 -0.216034
v -0.0090087 -0.05181 -0.219379
v -0.0312889 -0.0425425 -0.215985
v -0.026928 -0.045055 -0.215339
v -0.00968808 -0.0524569 -0.225004
v -0.0152506 -0.0513858 -0.225228
v -0.012074 -0.05222 -0.226671
v -0.00928557 -0.0531383 -0.231033
v -0.005744 -0.0542 -0.239627
v -0.013338 -0.052969 -0.238122
v -0.0153957 -0.052174 -0.232814
v -0.0178756 -0.0516624 -0.234292
v -0.0187871 -0.0514127 -0.236339
v -0.0193174 -0.0504829 -0.227258
v -0.0266758 -0.0480675 -0.234703
v -0.0355367 -0.0405397 -0.221639
v -0.036377 -0.039003 -0.218704
v -0.03189 -0.042764 -0.218939
v -0.0286306 -0.0456618 -0.222052
v -0.0379449 -0.0394913 -0.227507
v -0.0421682 -0.0340146 -0.223795
v -0.0351149 -0.0381356 -0.211887
v -0.0421744 -0.0302157 -0.211734
v -0.0456278 -0.0246965 -0.212626
v -0.0482325 -0.0188666 -0.213392
v -0.0500514 -0.0129564 -0.214132
v -0.0511913 -0.00751405 -0.215208
v -0.0520579 0.00233343 -0.215627
v -0.046577 0.020138 -0.193281
v -0.0435155 0.0269283 -0.181501
v -0.0111179 -0.0538986 -0.254427
v -0.00897924 -0.054266 -0.247497
v -0.0199224 -0.0513901 -0.244306
v -0.0302218 -0.0459691 -0.254758
v -0.0105515 -0.0537921 -0.242858
v -0.0177089 -0.0519928 -0.241292
v -0.0241356 -0.0494638 -0.239995
v -0.0309007 -0.0457681 -0.240802
v -0.035867 -0.041737 -0.251789
v -0.008227 -0.054364 -0.252042
v -0.0215804 -0.0508863 -0.247118
v -0.0329556 -0.0444204 -0.244482
v -0.0363692 -0.041567 -0.245203
v -0.031249 -0.045385 -0.237936
v -0.034544 -0.0430237 -0.240338
v -0.0272078 -0.0476068 -0.232037
v -0.0339731 -0.0434055 -0.234937
v -0.034537 -0.042821 -0.23311
v -0.032486 -0.044293 -0.232088
v -0.0248916 -0.0486772 -0.230588
v -0.0231851 -0.0493089 -0.229611
v -0.0258596 -0.0479124 -0.227965
v -0.0228354 -0.0482621 -0.220054
v -0.0198811 -0.0491212 -0.218091
v -0.0187178 -0.0496819 -0.219902
v -0.020864 -0.0494 -0.223268
v -0.0249863 -0.0477469 -0.22342
v -0.0296802 -0.0454006 -0.223966
v -0.0321599 -0.0439608 -0.225622
v -0.031377 -0.044739 -0.228462
v -0.035661 -0.0416291 -0.228893
v -0.0380991 -0.039565 -0.230603
v -0.0403169 -0.0373509 -0.231032
v -0.0423479 -0.0354313 -0.239307
v -0.038403 -0.039524 -0.235273
v -0.0197405 -0.0517572 -0.238431
v -0.0502936 -0.0220285 -0.234805
v -0.050716 -0.020278 -0.234226
v -0.0467007 -0.0286624 -0.230452
v -0.044788 -0.031078 -0.227951
v -0.0477824 -0.0263932 -0.227214
v -0.0416803 -0.0360884 -0.248538
v -0.040793 -0.0370831 -0.245541
v -0.035663 -0.041983 -0.247647
v -0.0326878 -0.0444884 -0.249509
v -0.0210736 -0.0509658 -0.252061
v -0.020629 -0.0510404 -0.249844
v -0.0475909 -0.0277122 -0.240532
v -0.0456739 -0.030835 -0.243895
v -0.039138 -0.036766 -0.220838
v -0.0515972 -0.0169627 -0.230431
v -0.0529885 -0.0126566 -0.233818
v -0.0544403 -0.0039466 -0.236661
v -0.0520386 -0.0177525 -0.240733
v -0.054012 -0.00919 -0.242998
v -0.051901 -0.0181099 -0.244551
v -0.0497509 -0.0235427 -0.243701
v -0.0511312 -0.0203455 -0.249305
v -0.0521427 -0.0046274 -0.219633
v -0.0513483 -0.0106663 -0.219581
v -0.0497981 -0.0168776 -0.218985
v -0.0453027 -0.0281661 -0.218748
v -0.045094 -0.02714 -0.216785
v -0.0401101 -0.0345141 -0.21674
v -0.036367 -0.037939 -0.215028
v -0.0472309 -0.0253378 -0.222369
v -0.0498315 -0.0191011 -0.222977
v -0.0514508 -0.0133379 -0.223423
v -0.048786 -0.0230144 -0.225532
v -0.050427 -0.0193661 -0.227436
v -0.0519552 -0.0116717 -0.22484
v -0.0528671 -0.0046996 -0.224353
v -0.047217 -0.000967251 -0.193245
v -0.0489822 0.0177705 -0.204731
v -0.0460633 0.0270851 -0.195224
v -0.0495946 -0.00239756 -0.203922
v -0.049922 0.00305269 -0.204629
v -0.0498858 0.00878977 -0.205167
v -0.0499543 0.0116158 -0.206751
v -0.0466543 0.02913 -0.202203
v -0.043586 0.039507 -0.196947
v -0.0538763 0.00050014 -0.2292
v -0.0533952 0.00225095 -0.227114
v -0.0532995 0.000340584 -0.226316
v -0.0530548 0.014903 -0.244317
v -0.045833 -0.020969 -0.206879
v -0.0483168 -0.0137073 -0.206685
v -0.049497 -0.009651 -0.208284
v -0.050372 -0.003941 -0.208888
v -0.050764 0.001714 -0.209424
v -0.050762 0.0073 -0.209877
v -0.0492788 0.0218112 -0.211076
v -0.0431116 0.0415773 -0.203801
v -0.041653 0.045294 -0.202835
v -0.0298169 0.062835 -0.206833
v -0.036622 0.054638 -0.204896
v -0.0401755 0.0493965 -0.200715
v -0.0468125 0.0318976 -0.216024
v -0.048804 0.0252291 -0.214627
v -0.0514259 0.0161536 -0.22247
v -0.0522116 0.0139151 -0.22743
v -0.04762 0.0299449 -0.220479
v 0.037894 -0.0306987 -0.201784
v 0.0384285 -0.0308807 -0.202711
v 0.046254 0.00572141 -0.189155
v 0.045128 0.015078 -0.18556
v 0.032327 0.070401 -0.141545
v 0.0313919 0.0743404 -0.132661
v 0.030991 0.076276 -0.126629
v 0.030902 0.07743 -0.121354
v 0.03056 0.076236 -0.121163
v 0.0306473 0.0750317 -0.12639
v 0.030903 0.077432 -0.121355
v 0.0320883 0.0714128 -0.13936
v 0.033947 0.064629 -0.150633
v 0.0376791 0.0501057 -0.164769
v 0.0379313 0.0489731 -0.165558
v 0.039216 0.044803 -0.16944
v 0.0406753 0.0383214 -0.173493
v 0.0424197 0.0289198 -0.178184
v 0.043366 0.025497 -0.180767
v 0.046623 -0.0092579 -0.194923
v 0.045911 -0.01386 -0.196716
v 0.0443207 -0.0189846 -0.19814
v 0.041611 -0.025754 -0.200998
v 0.036346 -0.033713 -0.203935
v 0.03191 -0.03843 -0.205747
v 0.02947 -0.040541 -0.206583
v 0.0172697 -0.0474412 -0.208975
v 0.0137524 -0.0489142 -0.210057
v 0.0463249 -0.00419113 -0.191988
v 0.0462195 -0.00767338 -0.193346
v 0.0453047 -0.0160048 -0.19721
v 0.0428576 -0.0216507 -0.198456
v 0.0431163 -0.016301 -0.194304
v 0.0456896 -0.0115916 -0.194704
v 0.0459193 0.00366 -0.188946
v 0.046187 0.00037 -0.19026
v 0.038704 -0.029455 -0.201319
v 0.039308 -0.028525 -0.200972
v 0.0313382 -0.0381916 -0.204667
v 0.02885 -0.040328 -0.205513
v 0.0358845 -0.0333514 -0.202786
v 0.0331319 -0.0339941 -0.200601
v 0.0222475 -0.045203 -0.208189
v 0.0199263 -0.0459572 -0.207858
v 0.018481 -0.046593 -0.208137
v 0.000607302 -0.0509344 -0.210981
v 0.002006 -0.050447 -0.209811
v 0.00292021 -0.0509185 -0.211003
v 0.00628383 -0.0501212 -0.209733
v 0.00866482 -0.0500717 -0.210433
v 0.0122673 -0.0488076 -0.208993
v 0.0259377 -0.042447 -0.206333
v 0.0413053 -0.0250102 -0.19966
v 0.0378287 -0.0271173 -0.197617
v 0.0311218 0.0727158 -0.133625
v 0.0329914 0.0672259 -0.145833
v 0.0349552 0.0606605 -0.155095
v 0.034464 0.060577 -0.153747
v 0.0330545 0.0654611 -0.147296
v 0.0359316 0.0552179 -0.159342
v 0.0409689 0.0347107 -0.174506
v 0.041513 0.031973 -0.175969
v 0.043275 0.02277 -0.180729
v 0.0446839 0.0142863 -0.18464
v 0.00194231 -0.0317238 -0.185286
v 0.0434541 0.00115299 -0.185691
v 0.042799 -0.008526 -0.189054
v 0.000184421 -0.0471037 -0.202911
v 0.00621771 -0.0478782 -0.204907
v -1.19388e-17 -0.0401017 -0.193051
v 0.00412047 -0.0425419 -0.196134
v 0.00547069 -0.0343162 -0.187614
v 0.00601304 -0.0257388 -0.181173
v 0.004873 -0.020838 -0.178088
v 0.04468 -0.008558 -0.191514
v 0.0389092 -0.0165725 -0.189662
v 0.0404214 -0.0227536 -0.196328
v 0.0275049 -0.0370762 -0.199594
v 0.0250473 -0.0406921 -0.202703
v 0.0184248 -0.0044968 -0.171494
v 0.0221878 -0.00351656 -0.172213
v 0.0260564 -0.00282807 -0.173517
v 0.0240248 -0.00602096 -0.173958
v 0.0350467 -0.0012054 -0.178332
v 0.0318139 -0.00177672 -0.17628
v 0.031 -0.002455 -0.176032
v 0.0396717 -0.0010614 -0.182299
v 0.0432858 0.00177276 -0.185554
v 0.011357 -0.0146329 -0.175212
v 0.013781 -0.014526 -0.175492
v 0.00165998 -0.0165009 -0.175664
v 0.007954 -0.014571 -0.174919
v 0.00574302 -0.017407 -0.176207
v 0.00155735 -0.0197679 -0.177357
v 0.00405114 -0.0289521 -0.183222
v 0.009627 -0.023768 -0.180271
v 0.0219969 -0.0212365 -0.181745
v 0.0283666 -0.0158983 -0.181134
v 0.0311329 -0.0137901 -0.181642
v 0.00813726 -0.0326798 -0.186528
v 0.0126717 -0.0302995 -0.185443
v 0.0178649 -0.0265559 -0.184013
v 0.022915 -0.023381 -0.18372
v -0.00101384 -0.0203285 -0.177654
v 0.0329271 -0.0201966 -0.187169
v 0.0310634 -0.0231837 -0.188099
v 0.027886 -0.0278759 -0.189896
v 0.0220916 -0.0339156 -0.192273
v 0.0174044 -0.0418119 -0.199164
v 0.0159893 -0.0383026 -0.194167
v 0.005457 -0.040051 -0.193434
v 0.0110345 -0.0431263 -0.198114
v 0.012219 -0.037774 -0.192361
v 0.0336215 -0.012402 -0.18232
v 0.0336657 -0.00411362 -0.178385
v 0.038759 -0.008439 -0.184691
v 0.0405695 -0.00189343 -0.183399
v 0.040582 -0.0121676 -0.188407
v 0.0179905 -0.00522009 -0.17171
v 0.0163883 -0.00348809 -0.170731
v 0.0134051 -0.00989183 -0.173146
v 0.012622 -0.010703 -0.173447
v 0.025811 -0.007994 -0.175747
v 0.0199855 -0.0104254 -0.174572
v 0.00981204 -0.0213215 -0.178713
v 0.0148593 -0.022689 -0.180448
v 0.0168544 -0.0170107 -0.177469
v 0.028609 -0.002392 -0.174622
v 0.00252 -0.036265 -0.189248
v 0.0335296 0.0143326 -0.172216
v 0.0411922 0.0203007 -0.177987
v 0.03781 0.0106362 -0.176982
v 0.0406118 0.0152021 -0.178552
v 0.0370778 0.000446034 -0.179387
v 0.04016 0.003131 -0.181483
v 0.0262875 0.0148697 -0.167331
v 0.0194523 0.0142256 -0.164564
v 0.020841 0.006293 -0.168076
v 0.0307834 -0.000258898 -0.175035
v 0.0268984 0.0031291 -0.171772
v 0.0225874 -0.000755877 -0.171205
v 0.0165694 0.00285789 -0.168276
v 0.0260399 0.0261428 -0.162622
v 0.0263878 0.0358235 -0.158182
v 0.0213107 0.0311578 -0.158451
v 0.0340079 0.0369871 -0.163498
v 0.034206 0.028482 -0.167477
v 0.0375822 0.0353428 -0.168665
v 0.0309479 0.0321745 -0.163092
v 0.0186849 -0.00201003 -0.170509
v 0.016573 0.0238066 -0.160408
v 0.0144974 0.0324849 -0.156414
v 0.000930434 0.0140475 -0.162953
v 0.00559455 -0.00650053 -0.171066
v 0 -0.010876 -0.173066
v 0.00493845 0.0218521 -0.160236
v 0.000608678 0.0234079 -0.15959
v -2.50372e-16 0.00458683 -0.166658
v 0.00251205 0.0634754 -0.124797
v 0.0040813 0.0584759 -0.135654
v -0.00244328 0.058406 -0.135653
v 0.00295149 0.0611183 -0.130883
v 0.008522 0.063144 -0.126775
v 0 0.063207 -0.12573
v 0.00342277 0.0500906 -0.144936
v 0.00294279 0.0431767 -0.150004
v 0.00410772 0.0548928 -0.140312
v 0.006097 0.064991 -0.119161
v 0.008308 0.065153 -0.11919
v 0.0176329 0.0655042 -0.121165
v 0.0166929 0.0638742 -0.126478
v 0.0169429 0.0641817 -0.125742
v 0.0168773 0.0590361 -0.136426
v 0.0165998 0.0583373 -0.137286
v 0.0168888 0.0619669 -0.131318
v 0.0166007 0.0544768 -0.141967
v 0.00657237 0.0522073 -0.14302
v 0.0166 0.050088 -0.146071
v 0.0146834 0.042327 -0.15128
v 0.0169277 0.0457131 -0.149451
v 0.0166031 0.0554247 -0.141031
v 0.0166 0.05649 -0.139661
v -0.00374223 0.0420442 -0.150703
v 8.40751e-06 0.0331942 -0.15541
v 0.0167265 0.0358317 -0.155089
v -0.008312 0.049692 -0.145597
v -0.008312 0.051946 -0.143619
v -0.006097 0.064991 -0.119161
v -0.008308 0.065153 -0.11919
v -0.00387298 0.0645178 -0.121026
v -0.0119128 -0.0115209 -0.17374
v -0.008312 -0.010828 -0.173174
v -0.00556098 -0.01572 -0.175367
v -0.00159596 -0.0164932 -0.17566
v -0.00848541 -0.0142618 -0.174799
v -0.0119663 -0.00677429 -0.171613
v -0.0171179 -0.0058864 -0.171847
v -0.0145863 -0.00792672 -0.172399
v -0.01339 -0.009811 -0.17311
v -0.0166702 0.00177587 -0.168701
v -0.0164693 -0.00221744 -0.170233
v -0.0175076 -0.00303925 -0.17071
v -0.0164538 0.0239614 -0.160325
v -0.015141 0.00754674 -0.166264
v -0.0138575 0.0331675 -0.15605
v -0.00806431 0.063074 -0.126901
v -0.00971257 0.054348 -0.14109
v -0.0165852 0.0641796 -0.125711
v -0.0166 0.065758 -0.119296
v -0.0166012 0.0649153 -0.122733
v -0.0153569 0.0567186 -0.139093
v -0.01483 0.0581882 -0.137069
v -0.0183607 0.0590722 -0.136785
v -0.0163627 0.0619852 -0.131099
v -0.0150315 0.0617962 -0.131099
v -0.0166777 0.0510295 -0.145356
v -0.008312 0.039495 -0.152449
v -0.0165543 0.0396983 -0.153101
v -0.0165982 0.0459095 -0.14929
v -0.0166662 0.055349 -0.141127
v -0.00252 -0.036265 -0.189248
v -0.00201944 -0.0271864 -0.181769
v -0.0206689 -0.00347614 -0.17178
v -0.0200217 -0.00406256 -0.171732
v -0.0428564 -0.00526353 -0.187268
v -0.0462824 -0.00245007 -0.191337
v -0.0461598 -0.0014027 -0.190644
v -0.0354186 -0.03393 -0.203013
v -0.032444 -0.031828 -0.197492
v -0.0273681 -0.0414771 -0.206
v -0.0281087 -0.0379621 -0.201258
v -0.0212392 -0.0453287 -0.207636
v -0.00366577 -0.0492535 -0.207195
v -0.00258307 -0.0505498 -0.210078
v -0.00678571 -0.0487608 -0.206777
v -0.0132121 -0.0485891 -0.209031
v -0.0137973 -0.045279 -0.202949
v -0.00964906 -0.0494991 -0.209416
v -0.022603 -0.040737 -0.201047
v -0.0212773 -0.0408752 -0.199981
v -0.0315333 -0.0379943 -0.204571
v -0.033517 -0.036 -0.203804
v -0.0368186 -0.0305911 -0.200283
v -0.0388431 -0.0272555 -0.198834
v -0.0422148 -0.0231474 -0.198993
v -0.0413537 -0.020404 -0.195306
v -0.040914 -0.025729 -0.199936
v -0.0436026 -0.0197227 -0.197735
v -0.0450652 -0.0165244 -0.197228
v -0.0435473 -0.016934 -0.195282
v -0.0455698 -0.0125095 -0.195107
v -0.0452482 -0.00872255 -0.192243
v -0.0437031 -0.00889219 -0.190306
v -0.046075 -0.009033 -0.193819
v -0.046564 0.00131661 -0.190662
v -0.0432219 -0.00156675 -0.186476
v -0.043358 0.001812 -0.185651
v -0.0394716 0.000280898 -0.181661
v -0.039426 -0.002428 -0.182597
v -0.0302632 -0.00243866 -0.175587
v -0.0357182 -0.00168149 -0.179014
v -0.0247381 -0.0043476 -0.173564
v -0.0145364 -0.0138282 -0.175173
v -0.0076729 -0.019494 -0.177489
v -0.00436526 -0.0210467 -0.178184
v -0.019127 -0.0183327 -0.178859
v -0.0156418 -0.021777 -0.180047
v -0.0136764 -0.0236791 -0.18084
v -0.0102977 -0.0272689 -0.182671
v -0.00577381 -0.0281694 -0.182764
v -0.0040448 -0.0328579 -0.186157
v -0.00435525 -0.042615 -0.19623
v -0.0113784 -0.0408872 -0.195548
v -0.0101885 -0.0361486 -0.19005
v -0.0131831 -0.0350688 -0.189796
v -0.0325531 -0.0109022 -0.180972
v -0.0217037 -0.0283703 -0.186957
v -0.0251245 -0.0242295 -0.185326
v -0.0279103 -0.020041 -0.183749
v -0.0306347 -0.0147531 -0.181956
v -0.0366949 -0.00710935 -0.182105
v -0.039197 -0.005451 -0.183651
v -0.039365 -0.014651 -0.188944
v -0.0188743 -0.0339536 -0.190623
v -0.0271752 -0.0317617 -0.193241
v -0.0321681 -0.0252815 -0.190736
v -0.034775 -0.020575 -0.189
v -0.0368798 -0.0158282 -0.187343
v -0.038112 -0.011431 -0.185736
v -0.01768 -0.015911 -0.177081
v -0.022129 -0.0113662 -0.175893
v -0.025811 -0.007994 -0.175747
v -0.0291693 -0.00229437 -0.174909
v 0.0291246 0.0726561 -0.123719
v 0.02822 0.072363 -0.120461
v 0.026771 0.0706 -0.12015
v 0.019669 0.066373 -0.119405
v 0.018857 0.06621 -0.119376
v 0.0247636 0.0636545 -0.133915
v 0.0238261 0.0669075 -0.125153
v 0.0356259 0.049564 -0.160636
v 0.032278 0.062393 -0.147236
v 0.02952 0.074216 -0.120793
v 0.029146 0.073489 -0.12066
v 0.0308904 0.0616759 -0.145315
v 0.021362 0.0534075 -0.144476
v 0.025578 0.0548024 -0.145353
v 0.0281245 0.0528681 -0.149319
v 0.0311618 0.0511475 -0.153266
v 0.0342256 0.0485564 -0.158627
v 0.0205495 0.043606 -0.151608
v 0.0250883 0.0466481 -0.151187
v 0.0258881 0.0412645 -0.154862
v 0.02425 0.06047 -0.138088
v 0.021172 0.065154 -0.126342
v 0.021089 0.066107 -0.123014
v 0.021017 0.066954 -0.119507
v 0.018933 0.06445 -0.126248
v 0.019008 0.063299 -0.129382
v 0.023127 0.067863 -0.119668
v 0.023379 0.067972 -0.119687
v 0.0219742 0.0613157 -0.135147
v 0.019352 0.058755 -0.13768
v 0.031164 0.066534 -0.141039
v 0.029135 0.059215 -0.144469
v 0.0296575 0.0696065 -0.133115
v 0.0280572 0.0686247 -0.130464
v 0.0263122 0.0686942 -0.125584
v 0.026599 0.07039 -0.120113
v 0.024989 0.069181 -0.1199
v -0.03313 0.001071 -0.176159
v -0.0210769 -0.000948133 -0.170805
v -0.0266168 0.000567406 -0.172477
v -0.0330296 0.0083035 -0.173662
v -0.0419493 0.0130515 -0.180772
v -0.0455108 0.0108269 -0.186744
v -0.0453389 0.00937787 -0.186705
v -0.0442956 0.016913 -0.183513
v -0.040976 0.021433 -0.177405
v -0.039888 0.00564 -0.180498
v -0.04016 0.003131 -0.181483
v -0.0309037 0.00147218 -0.174528
v -0.039333 0.010596 -0.178517
v -0.024877 0.006952 -0.169499
v -0.0186055 0.0159068 -0.163809
v -0.024515 0.016676 -0.165807
v -0.028181 0.017429 -0.167466
v -0.0312467 0.0240294 -0.16695
v -0.035061 0.019195 -0.171762
v -0.0304756 0.033169 -0.162204
v -0.0167632 0.0343517 -0.155869
v -0.0385111 0.0350176 -0.170204
v -0.0398142 0.0398758 -0.171342
v -0.0366618 0.0316971 -0.168614
v -0.0410942 0.0341036 -0.17485
v -0.0423655 0.0278862 -0.178259
v -0.033315 0.037333 -0.162818
v -0.043366 0.025497 -0.180767
v -0.0306327 0.0752856 -0.12561
v -0.026884 -0.042486 -0.207369
v -0.0400201 -0.0282417 -0.201568
v -0.0317342 0.0720907 -0.137233
v -0.0324312 0.0694635 -0.142501
v -0.040304 0.040194 -0.17254
v -0.046865 -0.001509 -0.192176
v -0.046576 -0.0108781 -0.195953
v -0.03056 0.076236 -0.121163
v -0.030901 0.07743 -0.121354
v -0.030902 0.077432 -0.121355
v -0.00370421 -0.050862 -0.211045
v -0.00818309 -0.0503639 -0.211061
v -0.015168 -0.04845 -0.209921
v -0.0177014 -0.0472687 -0.20893
v -0.021253 -0.045871 -0.208787
v -0.029461 -0.0403791 -0.206235
v -0.03191 -0.03843 -0.205747
v -0.041611 -0.025754 -0.200998
v -0.044173 -0.019932 -0.198897
v -0.045911 -0.01386 -0.196716
v -0.046802 -0.007648 -0.194465
v -0.0470464 -0.00412491 -0.193434
v -0.044284 0.020345 -0.183219
v -0.042389 0.030528 -0.178186
v -0.0407524 0.0390756 -0.173901
v -0.0390269 0.0447735 -0.168829
v -0.0371323 0.0534286 -0.162965
v -0.035931 0.057525 -0.158817
v -0.0346314 0.0625677 -0.153583
v -0.0341563 0.063696 -0.151668
v -0.0329582 0.0690165 -0.145288
v -0.0312055 0.0723502 -0.134541
v -0.0312158 0.0742725 -0.131779
v -0.0322253 0.0684786 -0.142545
v -0.0332792 0.0646177 -0.148495
v -0.0372785 0.0501774 -0.163831
v -0.0353716 0.0573272 -0.157307
v -0.0218308 0.0330699 -0.157816
v -0.026599 0.07039 -0.120113
v -0.026771 0.0706 -0.12015
v -0.0251887 0.0679905 -0.124253
v -0.02822 0.072363 -0.120461
v -0.029756 0.072478 -0.127752
v -0.0187509 0.0639923 -0.127449
v -0.0266182 0.0600396 -0.140838
v -0.0241224 0.0561667 -0.142958
v -0.019669 0.066373 -0.119405
v -0.019976 0.065979 -0.121769
v -0.023127 0.067863 -0.119668
v -0.02952 0.074216 -0.120793
v -0.032278 0.062393 -0.147236
v -0.0326754 0.0563249 -0.151773
v -0.0355708 0.0535077 -0.158956
v -0.0373451 0.047231 -0.164611
v -0.0341992 0.0454859 -0.160146
v -0.0335126 0.0401564 -0.161635
v -0.0257644 0.0330613 -0.159368
v -0.0199148 0.0511648 -0.146297
v -0.0232013 0.0625757 -0.134336
v -0.018857 0.06621 -0.119376
v -0.023379 0.067972 -0.119687
v -0.0255651 0.0650472 -0.132853
v -0.019106 0.061961 -0.132325
v -0.0212183 0.0646233 -0.127961
v -0.024989 0.069181 -0.1199
v -0.0289687 0.0716624 -0.126281
v -0.030907 0.0692109 -0.137556
v -0.0230743 0.0492194 -0.148638
v -0.0262648 0.0485084 -0.15085
v -0.0285895 0.0497953 -0.15164
v -0.029775 0.0573896 -0.147013
v -0.0288789 0.0644777 -0.138734
v -0.027821 0.0685987 -0.129869
v -0.029146 0.073489 -0.12066
v -0.030994 0.089085 -0.062484
v -0.030054 0.095168 -0.063556
v -0.02971 0.094355 -0.075834
v -0.029706 0.093488 -0.080816
v -0.030586 0.092896 -0.063156
v -0.0307628 0.0925004 -0.0604819
v -0.030657 0.092593 -0.063102
v -0.036034 0.092823 -0.035512
v -0.037477 0.090994 -0.032131
v -0.035508 0.093181 -0.036704
v -0.0318268 0.089338 -0.0519142
v -0.03292 0.0883544 -0.0463485
v -0.0433145 0.087761 -0.019357
v -0.044876 0.086562 -0.015745
v -0.0425603 0.076776 -0.0211979
v -0.040571 0.0793069 -0.0256093
v -0.03872 0.0819339 -0.0297638
v -0.0371897 0.0836113 -0.0333607
v -0.0367999 0.0881271 -0.0340798
v -0.0345307 0.0868585 -0.0406217
v -0.0356885 0.0857977 -0.0372339
v -0.0336632 0.0879704 -0.0435201
v -0.033467 0.087812 -0.044172
v -0.032142 0.091556 -0.049299
v -0.0327928 0.0893301 -0.0468096
v -0.0321633 0.0890769 -0.0499266
v -0.0318648 0.0892298 -0.0515224
v -0.0314823 0.0895628 -0.0543727
v -0.031078 0.092561 -0.056084
v -0.0312554 0.0896064 -0.0563936
v -0.0311052 0.0895067 -0.0588006
v -0.0310441 0.0893767 -0.0600796
v -0.029853 0.096026 -0.063708
v -0.0310381 0.0932975 -0.0552578
v -0.030273 0.096239 -0.057478
v -0.0307 0.096121 -0.054299
v -0.030323 0.096265 -0.056725
v -0.031243 0.095914 -0.050804
v -0.0327028 0.0928982 -0.0458349
v -0.031949 0.095492 -0.047993
v -0.03276 0.095007 -0.044761
v -0.03293 0.094906 -0.044083
v -0.034397 0.091507 -0.040386
v -0.033092 0.094797 -0.043618
v -0.039729 0.090299 -0.027124
v -0.0412675 0.0892175 -0.023761
v -0.030955 0.08862 -0.062402
v -0.0305597 0.0866597 -0.062055
v -0.030844 0.087616 -0.062225
v -0.030881 0.087742 -0.062247
v -0.019669 0.076792 -0.060316
v -0.019522 0.076762 -0.060311
v -0.017353 0.076328 -0.060235
v -0.029642 0.084874 -0.061741
v -0.029146 0.083908 -0.061571
v -0.028427 0.083033 -0.061417
v -0.027015 0.081315 -0.061114
v -0.026599 0.080808 -0.061025
v -0.025348 0.079869 -0.060859
v -0.0237211 0.0789174 -0.0588411
v -0.023379 0.078391 -0.060598
v -0.021563 0.077608 -0.06046
v -0.0311079 0.0883276 -0.0566145
v -0.0309515 0.0883518 -0.0608466
v -0.0319382 0.0873478 -0.0500062
v -0.0320995 0.0881702 -0.0499433
v -0.0349975 0.0606644 -0.0317519
v -0.0351768 0.0840378 -0.0384042
v -0.0305599 0.0868227 -0.0605104
v -0.0307311 0.0871215 -0.0569019
v -0.0311402 0.079936 -0.0434523
v -0.0305691 0.0658399 -0.0366674
v -0.0317143 0.0660133 -0.0357197
v -0.030744 0.062727 -0.0359635
v -0.0305836 0.0608543 -0.0358897
v -0.0329889 0.0696575 -0.0356089
v -0.0308469 0.068744 -0.0372381
v -0.0305615 0.0764066 -0.0412807
v -0.031185 0.077072 -0.04108
v -0.0305499 0.0785591 -0.0429819
v -0.0307393 0.082579 -0.0469827
v -0.0312429 0.0819117 -0.0453021
v -0.0305574 0.0849788 -0.0513888
v -0.030995 0.0849552 -0.0500402
v -0.031483 0.084267 -0.047568
v -0.0305713 0.0865046 -0.055774
v -0.0305817 0.0859087 -0.0535822
v -0.0306732 0.0855575 -0.0522754
v -0.030788 0.087446 -0.058286
v -0.0305601 0.0868424 -0.0587579
v -0.0306447 0.086904 -0.0616238
v -0.0311577 0.0888609 -0.0573334
v -0.0313805 0.0887584 -0.0546715
v -0.031275 0.088732 -0.055714
v -0.0317211 0.0887101 -0.0523293
v -0.037438 0.081287 -0.032603
v -0.039438 0.077907 -0.027954
v -0.032527 0.072416 -0.03709
v -0.0367011 0.0662284 -0.0301705
v -0.0339033 0.0800717 -0.0393045
v -0.0342559 0.0746484 -0.0361023
v -0.037918 0.0685561 -0.0289048
v -0.0305601 0.0739874 -0.0397575
v -0.0323444 0.0886355 -0.0489635
v -0.0316307 0.0875419 -0.0515945
v -0.0311831 0.0872146 -0.0534376
v -0.0326535 0.0867812 -0.046932
v -0.0373516 0.0762224 -0.0316325
v -0.0340826 0.0848191 -0.041419
v -0.0324651 0.0820721 -0.0433064
v 0.008265 0.07551 -0.06009
v -0.0168011 0.0768434 -0.0563874
v 0.0166422 0.076266 -0.0597509
v 0.00113612 0.0754938 -0.0583779
v -0.004316 0.075375 -0.060066
v -0.006097 0.07541 -0.060073
v -0.000740557 0.0713682 -0.0499743
v -3.72665e-05 0.0629875 -0.0470782
v -0.00426923 0.0658324 -0.0475286
v -0.028771 0.063403 -0.03759
v -0.0305163 0.0866974 -0.0588719
v -0.0290233 0.0837861 -0.0558743
v -0.0284881 0.0825045 -0.0525278
v -0.0291254 0.0816263 -0.0486006
v -0.030358 0.082075 -0.047033
v -0.0299592 0.0746845 -0.0406717
v -0.029465 0.0673043 -0.0379558
v -0.026316 0.070886 -0.041388
v -0.00128711 0.0703345 -0.049246
v -0.00117311 0.0687121 -0.0485356
v -0.0122519 0.0763466 -0.0568294
v 0 0.075431 -0.057052
v -0.0201602 0.073747 -0.0462073
v -0.0141441 0.0749618 -0.0501574
v -0.00943912 0.0747092 -0.0515138
v -0.00491807 0.0737532 -0.0514009
v -0.0105955 0.0725121 -0.048886
v -0.0129446 0.0708156 -0.0471854
v -1.69505e-05 0.0736178 -0.0519813
v -0.0118574 0.064293 -0.0458709
v -0.0202613 0.0641697 -0.0426438
v -0.023704 0.063101 -0.0408
v -0.019967 0.077589 -0.056018
v -0.0219602 0.0783138 -0.0562076
v -0.0193148 0.077399 -0.0539536
v -0.0179184 0.0770004 -0.0531295
v -0.00553657 0.0756951 -0.056216
v -0.00550856 0.07544 -0.0547243
v -0.0270942 0.0815515 -0.0582214
v -0.0243015 0.079481 -0.054347
v -0.0210928 0.0773643 -0.0513199
v -0.021145 0.076852 -0.049956
v -0.0253491 0.0778631 -0.0478597
v -0.0265472 0.0759623 -0.0446444
v -0.026173 0.080623 -0.05311
v -0.024778 0.079108 -0.051058
v -0.023283 0.077548 -0.049412
v 0.0221356 0.0771284 -0.0497319
v 0.023353 0.078442 -0.060607
v 0.0238141 0.0790263 -0.0584093
v 0.023882 0.078694 -0.060652
v 0.027044 0.081291 -0.06111
v 0.028423 0.083034 -0.061417
v 0.004813 0.074478 -0.052632
v 0.0194554 0.0751107 -0.0480709
v 0.0132385 0.074117 -0.0495836
v 0.00802918 0.0683558 -0.0474464
v 0.0305542 0.0861179 -0.0544018
v 0.029957 0.0744213 -0.0405051
v 0.03056 0.061935 -0.036024
v 0.0298133 0.0623531 -0.0366674
v 0.0290857 0.0669824 -0.0381159
v 0.0282223 0.0710372 -0.0401876
v 0.0304941 0.0703459 -0.0381136
v 0.030349 0.0744573 -0.0401628
v 0.0304574 0.0792621 -0.0437445
v 0.0292721 0.0775098 -0.0434772
v 0.0258861 0.0769633 -0.0462738
v 0.0299425 0.0803548 -0.0456989
v 0.0281904 0.0809911 -0.0491739
v 0.0304932 0.082106 -0.0468385
v 0.0308757 0.0846236 -0.0497436
v 0.0292368 0.0836971 -0.0530994
v 0.0296233 0.0849503 -0.0569822
v 0.0305778 0.0868353 -0.0577137
v 0.0305505 0.0866049 -0.0566871
v 0.03056 0.08666 -0.062056
v 0.0306358 0.0868775 -0.0619315
v 0.029654 0.084867 -0.06174
v 0.0305627 0.0868905 -0.0594151
v 0.00747005 0.0712166 -0.0488597
v 0.0194641 0.0703989 -0.0446815
v 0.0215983 0.0641082 -0.0421052
v 0.0135894 0.0629588 -0.0452605
v 0.006222 0.062543 -0.046592
v 0.013359 0.076485 -0.056523
v 0.00806076 0.075971 -0.0564067
v 0.000239649 0.0753175 -0.0562067
v 0.00784394 0.0740758 -0.0511473
v 0.0057975 0.0742974 -0.0520533
v 0.029267 0.084101 -0.061605
v 0.029126 0.083923 -0.061574
v 0.026573 0.08084 -0.06103
v 0.026884 0.081088 -0.061074
v 0.0266336 0.0811263 -0.0589725
v 0.028886 0.083709 -0.055507
v 0.0305052 0.0854027 -0.052644
v 0.0305404 0.0851726 -0.0519571
v 0.019967 0.077589 -0.056018
v 0.019507 0.076825 -0.060322
v 0.019654 0.076858 -0.060328
v 0.020379 0.07702 -0.060356
v 0.021568 0.077588 -0.060457
v 0.0226266 0.0786957 -0.0548255
v 0.0249775 0.0799595 -0.0556988
v 0.0283029 0.0820566 -0.0515661
v 0.0189577 0.0773595 -0.0542551
v 0.0248554 0.079048 -0.0510251
v 0.0253 0.078431 -0.048846
v 0.0189063 0.0771651 -0.0528918
v 0.000929695 0.0749617 -0.0547509
v 0.025056 0.074076 -0.044105
v 0.0318868 0.0764083 -0.0398265
v 0.0313448 0.0874016 -0.0530448
v 0.0317487 0.0893918 -0.0524194
v 0.0331671 0.0881154 -0.0453841
v 0.0328926 0.0872774 -0.0462072
v 0.040651 0.07186 -0.024845
v 0.0392207 0.0793346 -0.0285611
v 0.0418626 0.0780887 -0.0227547
v 0.042666 0.0763 -0.020961
v 0.0374536 0.0817402 -0.0326543
v 0.0356071 0.0851507 -0.0374482
v 0.0370963 0.0836967 -0.0335826
v 0.035219 0.083295 -0.038096
v 0.0342024 0.0864997 -0.0416066
v 0.0321613 0.0890765 -0.0499257
v 0.032621 0.0885668 -0.0476321
v 0.0320038 0.0880713 -0.0503018
v 0.0319023 0.0892397 -0.0513461
v 0.0313286 0.0895899 -0.0558182
v 0.031444 0.0894821 -0.0546733
v 0.0312184 0.0895559 -0.0569616
v 0.031275 0.088732 -0.055714
v 0.0311576 0.0891404 -0.0578889
v 0.0310665 0.0891166 -0.0594583
v 0.030959 0.088618 -0.062402
v 0.0310104 0.0891477 -0.0617028
v 0.0308479 0.0875712 -0.0617179
v 0.030568 0.086688 -0.062061
v 0.030836 0.087621 -0.062226
v 0.030902 0.087851 -0.062266
v 0.0309157 0.0879845 -0.0597345
v 0.0309289 0.0878209 -0.0576176
v 0.031483 0.084267 -0.047568
v 0.0305685 0.0677232 -0.0371577
v 0.0332418 0.0659317 -0.0342492
v 0.030921 0.0626308 -0.0358106
v 0.0372584 0.064123 -0.0292896
v 0.039659 0.069236 -0.026301
v 0.0346252 0.0792387 -0.0376911
v 0.0326323 0.0814145 -0.0422705
v 0.0350679 0.0729995 -0.0343753
v 0.038493 0.075274 -0.029428
v 0.0338977 0.0705037 -0.0348781
v 0.0320632 0.0704881 -0.0367614
v 0.0310415 0.0894077 -0.0600945
v 0.0313728 0.0882391 -0.0543473
v 0.0319019 0.0859866 -0.0484595
v 0.0327281 0.0859776 -0.0458064
v 0.0315875 0.0893463 -0.0535001
v 0.032689 0.083951 -0.044394
v 0.032845 0.090631 -0.046279
v 0.03006 0.095169 -0.063557
v 0.0306232 0.0932584 -0.0616256
v 0.029921 0.096151 -0.061907
v 0.030685 0.092116 -0.063018
v 0.031049 0.092572 -0.056375
v 0.031483 0.092272 -0.052915
v 0.0312602 0.0937001 -0.0529423
v 0.0353056 0.0865695 -0.0382616
v 0.0377628 0.0867274 -0.0318699
v 0.043522 0.087592 -0.018835
v 0.042134 0.088647 -0.022003
v 0.042444 0.088411 -0.021295
v 0.037432 0.091051 -0.032229
v 0.039946 0.090146 -0.026775
v 0.0333985 0.0893821 -0.0443873
v 0.03361 0.094462 -0.041926
v 0.0348047 0.0910269 -0.0392065
v 0.036408 0.092569 -0.034493
v 0.031934 0.095528 -0.047718
v 0.032396 0.094019 -0.046735
v 0.033 0.09485 -0.044034
v 0.031123 0.095946 -0.0517345
v 0.030728 0.096149 -0.053688
v 0.03076 0.096133 -0.053532
v 0.030116 0.0962345 -0.0591585
v 0.030357 0.096201 -0.057008
v 0.02968 0.086796 -0.119237
v 0.029713 0.094629 -0.074234
v 0.029771 0.095209 -0.069866
v 0.029812 0.095616 -0.066793
v 0.0548624 -0.00101244 -0.255021
v -0.0474501 0.0190653 0.000921401
f 109 7 110
f 285 286 287
f 262 265 528
f 260 262 528
f 256 259 528
f 528 259 260
f 254 256 528
f 528 218 254
f 245 248 528
f 528 248 218
f 219 245 528
f 240 221 528
f 528 221 219
f 238 239 528
f 528 239 240
f 528 235 238
f 230 232 528
f 528 232 235
f 228 227 528
f 528 227 230
f 223 485 528
f 528 485 228
f 167 166 164
f 175 170 164
f 170 167 164
f 185 180 164
f 180 177 164
f 164 177 175
f 189 187 164
f 187 185 164
f 191 189 164
f 195 191 164
f 202 199 164
f 164 199 195
f 206 204 164
f 164 204 202
f 213 206 164
f 150 214 164
f 164 214 213
f 158 156 164
f 164 156 150
f 163 159 164
f 164 159 158
f 573 575 574
f 574 575 1297
f 1409 1407 1032
f 1483 1546 1484
f 224 302 1600
f 1601 181 179
f 5 6 8
f 8 6 7
f 9 8 7
f 87 10 9
f 16 15 75
f 75 15 14
f 75 19 16
f 19 17 16
f 19 18 17
f 19 20 18
f 19 21 20
f 19 22 21
f 24 25 23
f 24 26 25
f 29 28 69
f 31 32 33
f 34 97 36
f 36 35 3
f 4 3 35
f 3 4 38
f 37 38 4
f 37 4 40
f 39 40 4
f 39 4 41
f 46 47 102
f 102 47 45
f 84 50 48
f 51 52 49
f 49 52 50
f 54 53 108
f 53 55 108
f 55 57 56
f 109 57 7
f 13 11 58
f 62 63 61
f 64 65 63
f 69 28 70
f 70 28 27
f 72 1 70
f 1 67 71
f 67 68 71
f 72 62 1
f 62 61 1
f 1 61 67
f 61 63 67
f 63 2 67
f 71 66 1
f 73 77 72
f 77 76 72
f 72 76 62
f 76 74 62
f 62 74 63
f 64 63 75
f 63 74 75
f 75 74 76
f 19 77 24
f 77 73 24
f 73 72 24
f 72 70 24
f 24 70 26
f 23 22 24
f 22 19 24
f 77 19 76
f 76 19 75
f 64 75 12
f 75 14 12
f 12 14 13
f 36 97 35
f 35 96 4
f 96 95 4
f 95 94 4
f 94 93 4
f 93 91 4
f 31 30 32
f 30 69 32
f 69 81 32
f 80 83 79
f 83 89 79
f 79 89 78
f 30 29 69
f 69 82 81
f 82 83 81
f 81 83 80
f 84 48 46
f 46 48 47
f 46 102 84
f 102 45 43
f 43 45 44
f 50 84 49
f 49 84 85
f 87 9 88
f 9 7 88
f 7 57 88
f 88 57 87
f 57 55 87
f 87 55 86
f 86 55 85
f 55 53 85
f 85 53 49
f 53 54 49
f 49 54 51
f 92 91 93
f 97 34 32
f 98 89 2
f 89 83 2
f 2 83 67
f 67 83 68
f 68 83 71
f 83 82 71
f 71 82 66
f 82 69 66
f 66 69 1
f 69 70 1
f 70 27 26
f 2 60 99
f 99 60 100
f 34 33 32
f 32 81 97
f 81 80 97
f 97 80 35
f 35 80 96
f 96 80 95
f 95 80 94
f 80 79 94
f 94 79 93
f 93 79 92
f 92 79 91
f 79 78 91
f 91 78 90
f 78 89 90
f 11 10 58
f 10 87 58
f 58 87 59
f 59 87 60
f 87 86 60
f 86 85 60
f 60 85 100
f 85 84 100
f 100 84 101
f 101 84 102
f 43 44 42
f 13 58 12
f 12 58 64
f 58 59 64
f 64 59 65
f 65 59 63
f 59 60 63
f 60 2 63
f 2 99 98
f 98 99 89
f 99 100 89
f 89 100 101
f 101 102 89
f 89 102 90
f 90 102 91
f 102 43 91
f 91 43 4
f 43 42 4
f 4 42 41
f 103 104 105
f 106 56 111
f 56 106 55
f 106 107 55
f 107 108 55
f 110 7 105
f 7 6 105
f 105 6 103
f 56 57 111
f 111 57 109
f 112 123 113
f 123 112 114
f 106 111 116
f 111 125 116
f 117 118 125
f 125 118 116
f 114 119 123
f 119 120 123
f 123 120 121
f 121 122 123
f 122 124 123
f 115 123 125
f 123 124 125
f 125 124 117
f 127 113 123
f 126 127 123
f 115 128 123
f 123 128 126
f 115 129 128
f 115 131 129
f 115 130 131
f 132 133 130
f 133 131 130
f 134 137 130
f 130 137 135
f 135 136 130
f 130 136 132
f 138 137 134
f 139 138 134
f 130 115 125
f 139 134 145
f 140 110 142
f 142 110 144
f 105 143 110
f 143 144 110
f 141 139 145
f 110 140 145
f 140 142 145
f 145 142 141
f 130 125 134
f 134 125 145
f 145 125 110
f 125 111 110
f 110 111 109
f 146 103 6
f 5 8 147
f 5 147 6
f 147 148 6
f 6 148 146
f 150 151 214
f 149 152 153
f 152 214 153
f 214 151 153
f 150 154 151
f 150 156 154
f 158 157 156
f 156 157 155
f 157 158 160
f 158 159 160
f 163 162 159
f 161 162 164
f 164 162 163
f 161 164 1437
f 165 1437 164
f 166 168 164
f 164 168 165
f 1363 168 167
f 167 168 166
f 167 169 1363
f 171 167 170
f 167 172 169
f 171 170 173
f 170 174 173
f 175 174 170
f 174 175 176
f 175 177 176
f 176 177 178
f 184 178 179
f 178 177 179
f 179 177 1601
f 177 180 1601
f 1601 180 181
f 180 182 181
f 182 183 181
f 181 183 179
f 183 184 179
f 185 186 180
f 180 186 182
f 185 187 188
f 185 188 186
f 189 190 187
f 187 190 188
f 189 191 192
f 189 192 190
f 193 194 191
f 191 194 192
f 195 197 191
f 197 196 191
f 191 196 193
f 199 198 195
f 195 198 197
f 203 200 199
f 199 200 198
f 202 201 199
f 201 203 199
f 204 205 202
f 202 205 201
f 205 204 208
f 206 207 204
f 207 208 204
f 209 210 206
f 206 210 207
f 209 206 211
f 213 212 206
f 206 212 211
f 214 152 215
f 214 215 213
f 213 215 212
f 265 225 528
f 224 528 225
f 485 223 486
f 485 226 228
f 230 231 232
f 231 233 232
f 232 234 235
f 222 236 235
f 236 762 235
f 235 237 238
f 239 619 240
f 619 241 240
f 240 242 560
f 560 243 240
f 240 243 221
f 221 220 219
f 219 220 244
f 219 246 245
f 247 249 245
f 245 249 248
f 248 250 218
f 250 217 218
f 217 251 218
f 251 252 218
f 218 252 216
f 253 255 218
f 218 255 254
f 254 627 256
f 627 257 256
f 256 258 259
f 259 261 260
f 260 261 262
f 263 264 262
f 262 264 265
f 1600 528 224
f 256 392 258
f 391 274 258
f 258 274 259
f 299 262 261
f 263 262 299
f 301 225 300
f 300 225 265
f 224 225 302
f 1600 302 486
f 297 228 226
f 228 483 227
f 227 483 229
f 459 231 230
f 617 235 234
f 268 540 465
f 311 911 310
f 316 313 312
f 316 312 432
f 319 318 317
f 324 323 497
f 333 334 415
f 429 345 344
f 349 348 347
f 423 347 285
f 347 348 285
f 285 348 286
f 349 347 350
f 350 347 425
f 347 273 425
f 352 353 354
f 353 355 354
f 359 357 358
f 361 284 360
f 366 364 363
f 363 364 365
f 410 367 363
f 367 366 363
f 369 368 410
f 410 368 367
f 369 370 368
f 283 371 369
f 369 371 370
f 283 369 372
f 369 374 372
f 375 373 369
f 528 1600 223
f 1600 486 223
f 381 382 301
f 301 382 510
f 381 282 281
f 299 281 263
f 281 282 263
f 263 282 264
f 382 381 383
f 381 281 383
f 404 280 277
f 276 259 275
f 384 281 390
f 390 281 388
f 281 299 388
f 299 261 388
f 388 261 389
f 389 261 276
f 261 259 276
f 274 517 387
f 383 386 382
f 386 511 382
f 511 510 382
f 259 274 275
f 275 274 276
f 274 387 276
f 276 387 389
f 389 387 388
f 387 386 388
f 388 386 390
f 390 386 384
f 384 386 281
f 281 386 383
f 381 265 282
f 282 265 264
f 391 258 392
f 391 393 274
f 274 393 517
f 392 298 391
f 256 257 392
f 257 298 392
f 391 518 393
f 277 278 404
f 397 385 280
f 280 385 279
f 362 398 363
f 363 365 362
f 411 410 363
f 397 280 401
f 401 280 402
f 402 280 403
f 403 280 404
f 373 374 369
f 369 410 409
f 406 278 412
f 412 278 413
f 369 408 375
f 375 378 376
f 380 558 375
f 558 378 375
f 415 337 333
f 337 336 333
f 420 339 415
f 339 338 415
f 415 338 337
f 338 336 337
f 420 415 417
f 417 415 525
f 288 342 340
f 289 339 288
f 339 420 288
f 288 420 417
f 411 363 398
f 419 398 418
f 398 359 418
f 359 421 418
f 418 421 417
f 421 422 417
f 417 422 288
f 418 395 419
f 395 399 419
f 419 399 398
f 398 399 400
f 400 402 398
f 398 402 411
f 411 402 410
f 402 409 410
f 409 407 369
f 407 408 369
f 273 272 425
f 423 273 347
f 273 346 272
f 272 346 271
f 346 869 271
f 351 424 270
f 270 424 271
f 271 424 272
f 424 425 272
f 344 343 429
f 429 343 269
f 358 356 359
f 426 359 354
f 359 356 354
f 356 427 354
f 354 427 352
f 360 359 361
f 422 428 269
f 428 429 269
f 351 270 429
f 270 271 429
f 429 271 345
f 271 875 345
f 360 357 359
f 421 359 428
f 359 426 428
f 426 354 428
f 428 354 429
f 354 355 429
f 429 355 351
f 362 284 398
f 284 361 398
f 398 361 359
f 421 428 422
f 422 269 288
f 288 269 342
f 269 341 342
f 315 316 432
f 310 309 311
f 311 309 431
f 432 433 315
f 315 433 314
f 292 311 312
f 312 311 432
f 311 431 432
f 431 433 432
f 268 465 467
f 309 434 431
f 431 434 433
f 434 435 433
f 435 478 433
f 563 293 309
f 293 436 309
f 309 436 434
f 435 434 478
f 444 430 468
f 430 294 468
f 468 294 268
f 437 444 438
f 324 497 448
f 894 324 325
f 324 448 325
f 450 448 496
f 496 448 497
f 497 322 498
f 498 322 451
f 322 321 451
f 451 321 290
f 321 322 290
f 290 322 865
f 328 326 454
f 304 305 296
f 296 305 234
f 457 296 458
f 458 296 232
f 232 296 234
f 232 233 458
f 233 231 461
f 461 231 459
f 230 227 303
f 266 462 460
f 460 462 461
f 462 455 461
f 455 456 461
f 266 460 303
f 303 460 230
f 230 460 459
f 460 461 459
f 461 456 233
f 295 307 308
f 464 308 465
f 441 442 468
f 442 443 438
f 472 471 455
f 471 267 455
f 267 471 473
f 473 471 474
f 471 463 474
f 463 475 474
f 317 314 319
f 314 433 319
f 319 433 478
f 227 229 303
f 303 229 266
f 229 483 266
f 471 266 463
f 463 266 475
f 477 476 484
f 458 233 457
f 457 233 455
f 455 233 456
f 455 462 472
f 472 462 471
f 462 266 471
f 475 266 476
f 266 483 476
f 483 484 476
f 297 226 484
f 484 226 485
f 477 470 476
f 476 470 475
f 470 474 475
f 473 474 267
f 485 489 484
f 484 483 297
f 297 483 228
f 469 439 443
f 443 439 438
f 438 444 442
f 442 444 468
f 468 268 441
f 441 268 467
f 467 465 466
f 464 295 308
f 305 304 306
f 306 304 307
f 304 296 307
f 296 457 307
f 307 457 308
f 457 455 308
f 308 455 465
f 465 455 466
f 455 267 466
f 466 267 467
f 467 267 441
f 441 267 442
f 267 474 442
f 442 474 443
f 474 470 443
f 443 470 469
f 470 477 469
f 469 477 490
f 477 484 490
f 490 484 489
f 489 485 488
f 488 485 487
f 487 485 486
f 486 302 491
f 491 302 492
f 302 225 492
f 449 450 496
f 451 290 498
f 498 290 291
f 500 453 501
f 454 499 453
f 499 502 453
f 318 319 320
f 319 478 320
f 320 478 291
f 291 478 498
f 478 479 498
f 479 480 498
f 480 481 498
f 498 481 497
f 481 482 497
f 497 482 496
f 496 482 449
f 449 482 495
f 482 503 495
f 446 445 326
f 445 499 326
f 326 499 454
f 453 500 452
f 331 329 453
f 453 329 327
f 524 523 506
f 506 523 507
f 502 520 453
f 453 520 501
f 501 520 500
f 520 527 500
f 527 521 500
f 511 386 512
f 512 386 513
f 513 386 514
f 386 387 514
f 514 387 515
f 387 517 515
f 515 517 516
f 493 508 505
f 505 508 509
f 509 508 510
f 301 300 381
f 300 265 381
f 526 524 506
f 521 506 500
f 506 507 500
f 500 507 452
f 507 331 452
f 452 331 453
f 453 327 454
f 454 327 328
f 395 385 394
f 385 397 394
f 330 331 332
f 331 507 332
f 332 507 523
f 525 524 526
f 385 526 396
f 396 526 522
f 526 506 522
f 522 506 521
f 505 527 504
f 527 520 504
f 504 520 503
f 503 520 495
f 495 520 449
f 520 502 449
f 502 499 449
f 449 499 450
f 499 445 450
f 450 445 448
f 445 446 448
f 446 326 448
f 448 326 325
f 325 326 447
f 486 494 503
f 494 493 503
f 503 493 504
f 504 493 505
f 505 509 527
f 527 509 521
f 509 510 521
f 510 511 521
f 511 512 521
f 521 512 522
f 522 512 396
f 512 513 396
f 396 513 385
f 513 514 385
f 385 514 279
f 279 514 280
f 514 515 280
f 515 516 280
f 280 516 277
f 516 517 277
f 277 517 278
f 517 393 278
f 278 393 518
f 518 391 278
f 278 391 413
f 391 519 413
f 413 519 414
f 294 430 293
f 293 430 436
f 430 444 436
f 444 437 436
f 436 437 434
f 437 438 434
f 438 439 434
f 434 439 478
f 439 440 478
f 478 440 479
f 440 439 479
f 479 439 480
f 439 469 480
f 480 469 481
f 481 469 482
f 469 490 482
f 490 489 482
f 489 488 482
f 482 488 503
f 488 487 503
f 503 487 486
f 494 486 493
f 486 491 493
f 493 491 508
f 508 491 510
f 491 492 510
f 510 492 301
f 492 225 301
f 298 379 391
f 379 558 391
f 558 380 391
f 391 380 519
f 380 375 519
f 519 375 414
f 414 375 413
f 375 408 413
f 413 408 412
f 412 408 406
f 406 408 278
f 278 408 404
f 408 407 404
f 404 407 405
f 407 409 405
f 405 409 404
f 404 409 403
f 403 409 402
f 401 402 397
f 402 400 397
f 400 399 397
f 397 399 394
f 394 399 395
f 385 395 526
f 395 418 526
f 418 417 526
f 526 417 525
f 525 415 524
f 415 416 524
f 524 416 523
f 416 415 523
f 523 415 332
f 415 334 332
f 334 335 332
f 617 234 305
f 294 293 614
f 568 569 570
f 569 571 572
f 571 573 572
f 572 573 574
f 581 1253 725
f 580 579 1251
f 582 583 579
f 583 1249 579
f 566 1247 585
f 566 761 1247
f 761 566 588
f 587 588 586
f 595 593 592
f 593 1229 592
f 539 599 598
f 310 911 612
f 611 310 610
f 310 612 610
f 309 310 613
f 563 309 733
f 293 563 542
f 268 294 562
f 562 294 614
f 615 464 540
f 464 465 540
f 307 295 561
f 306 307 763
f 617 222 235
f 237 235 807
f 238 237 618
f 240 241 620
f 221 243 220
f 220 243 560
f 621 220 819
f 220 533 244
f 533 219 244
f 533 551 219
f 622 246 658
f 246 219 658
f 623 247 245
f 660 249 846
f 249 660 248
f 217 250 251
f 252 251 216
f 251 624 216
f 253 218 677
f 677 218 624
f 624 218 216
f 625 255 677
f 677 255 253
f 548 547 254
f 254 547 626
f 254 626 559
f 298 257 627
f 627 628 298
f 298 629 379
f 378 558 630
f 630 558 546
f 375 376 377
f 375 631 373
f 714 373 632
f 634 633 374
f 374 633 635
f 374 635 372
f 634 636 633
f 636 634 638
f 634 637 638
f 637 639 638
f 639 637 640
f 637 856 640
f 545 643 556
f 718 645 644
f 646 647 645
f 727 648 645
f 543 554 650
f 554 543 651
f 552 553 653
f 652 570 653
f 653 570 654
f 622 245 246
f 660 663 662
f 663 660 846
f 846 249 247
f 251 665 664
f 665 251 660
f 251 250 660
f 660 250 248
f 668 667 669
f 669 667 670
f 667 666 670
f 667 668 671
f 254 255 548
f 255 625 548
f 625 677 548
f 548 677 689
f 549 672 550
f 672 681 550
f 550 681 684
f 684 681 685
f 685 681 682
f 682 544 687
f 549 550 683
f 683 550 684
f 685 682 686
f 686 682 687
f 688 687 691
f 680 710 709
f 548 689 547
f 547 689 626
f 689 690 626
f 626 690 559
f 546 558 629
f 558 379 629
f 298 628 629
f 628 691 629
f 691 692 629
f 671 668 672
f 672 668 678
f 668 675 678
f 678 675 679
f 675 676 679
f 679 676 680
f 676 708 680
f 694 693 695
f 693 696 695
f 703 698 693
f 698 699 693
f 693 699 696
f 699 700 696
f 673 701 674
f 674 701 702
f 693 856 703
f 704 705 700
f 699 374 700
f 700 374 704
f 704 374 706
f 856 637 703
f 703 637 698
f 698 637 699
f 637 634 699
f 699 634 374
f 374 373 707
f 373 714 707
f 707 714 374
f 714 708 374
f 374 708 706
f 376 709 377
f 377 709 710
f 711 710 680
f 708 676 712
f 712 676 713
f 676 675 713
f 373 631 632
f 691 687 692
f 692 687 629
f 629 687 546
f 687 544 546
f 546 544 630
f 630 544 378
f 667 671 549
f 549 671 672
f 672 678 681
f 678 679 681
f 679 680 681
f 681 680 682
f 680 709 682
f 682 709 544
f 544 709 378
f 709 376 378
f 720 716 715
f 719 718 545
f 718 644 545
f 545 644 643
f 556 557 545
f 557 719 545
f 719 858 718
f 718 858 728
f 728 858 724
f 724 858 717
f 720 715 721
f 572 657 569
f 657 656 569
f 569 656 570
f 570 655 654
f 653 553 652
f 652 553 570
f 553 567 570
f 570 567 568
f 552 722 553
f 722 576 553
f 576 567 553
f 578 722 552
f 577 722 578
f 721 724 720
f 580 715 579
f 579 715 582
f 582 715 584
f 584 715 585
f 715 716 585
f 585 716 566
f 725 1253 723
f 723 1253 578
f 1253 726 578
f 578 726 577
f 727 543 648
f 543 649 648
f 650 649 543
f 543 727 581
f 647 555 645
f 645 555 644
f 648 646 645
f 552 651 578
f 651 543 578
f 578 543 723
f 723 543 725
f 725 543 581
f 580 581 715
f 581 727 715
f 715 727 721
f 727 645 721
f 645 728 721
f 721 728 724
f 645 718 728
f 724 717 720
f 720 717 716
f 717 858 716
f 310 611 613
f 613 611 729
f 1234 564 611
f 564 565 611
f 611 565 729
f 565 609 729
f 609 608 607
f 609 607 730
f 730 607 606
f 614 293 542
f 604 731 606
f 731 732 606
f 606 732 730
f 730 732 609
f 732 733 609
f 609 733 729
f 729 733 613
f 733 309 613
f 733 736 542
f 542 736 614
f 614 736 562
f 736 541 562
f 562 541 268
f 541 540 268
f 737 738 736
f 738 739 736
f 736 739 541
f 541 739 540
f 739 615 540
f 615 741 740
f 738 737 739
f 737 742 739
f 739 742 615
f 742 743 615
f 743 744 615
f 615 744 741
f 737 745 742
f 743 746 744
f 748 747 734
f 747 749 734
f 789 750 747
f 747 750 749
f 749 750 734
f 750 784 734
f 784 785 734
f 734 785 735
f 752 751 747
f 751 790 747
f 747 790 789
f 594 595 597
f 595 592 597
f 586 588 760
f 601 600 602
f 762 236 617
f 617 236 222
f 305 306 616
f 306 763 616
f 763 764 772
f 239 238 765
f 765 238 618
f 307 561 763
f 561 766 763
f 766 767 763
f 763 767 764
f 767 768 764
f 768 769 764
f 764 769 772
f 772 769 773
f 237 807 618
f 807 806 618
f 618 806 765
f 765 806 770
f 770 806 803
f 765 770 239
f 239 770 619
f 770 803 619
f 619 803 241
f 305 616 771
f 616 763 771
f 771 763 772
f 808 772 773
f 768 775 769
f 775 776 769
f 769 776 773
f 745 782 742
f 782 781 742
f 781 777 742
f 742 777 743
f 743 777 746
f 778 746 779
f 779 746 780
f 746 777 780
f 782 745 783
f 786 785 784
f 788 750 789
f 792 751 793
f 751 794 793
f 784 750 787
f 787 750 788
f 783 789 790
f 790 751 791
f 791 751 792
f 536 795 537
f 796 537 778
f 778 797 746
f 746 797 744
f 744 797 741
f 741 797 740
f 797 295 740
f 740 295 615
f 615 295 464
f 804 774 795
f 774 773 795
f 795 773 537
f 773 776 537
f 537 776 778
f 776 775 778
f 778 775 797
f 775 768 797
f 768 767 797
f 767 766 797
f 766 561 797
f 797 561 295
f 751 800 794
f 794 800 534
f 800 798 534
f 534 798 535
f 799 798 800
f 800 751 801
f 801 751 802
f 751 752 802
f 803 806 804
f 804 806 805
f 808 807 762
f 807 235 762
f 810 620 803
f 620 241 803
f 748 811 747
f 811 752 747
f 801 802 800
f 802 812 800
f 812 813 800
f 800 813 799
f 799 813 798
f 813 814 798
f 305 771 617
f 617 771 762
f 771 772 762
f 762 772 808
f 808 773 807
f 807 773 806
f 773 774 806
f 806 774 805
f 805 774 804
f 804 795 803
f 803 795 810
f 795 536 810
f 810 536 809
f 809 536 815
f 818 819 560
f 560 819 220
f 818 817 819
f 817 533 819
f 819 533 621
f 533 220 621
f 240 620 242
f 620 810 242
f 242 810 560
f 810 809 560
f 560 809 818
f 809 815 818
f 818 815 817
f 817 815 533
f 815 816 533
f 733 785 736
f 785 786 736
f 736 786 737
f 786 784 737
f 784 787 737
f 737 787 745
f 787 788 745
f 788 789 745
f 745 789 783
f 783 790 782
f 782 790 781
f 790 791 781
f 781 791 777
f 791 792 777
f 777 792 780
f 780 792 779
f 792 793 779
f 779 793 778
f 793 794 778
f 778 794 796
f 794 534 796
f 796 534 537
f 537 534 536
f 534 535 536
f 535 798 536
f 536 798 815
f 798 814 815
f 815 814 816
f 824 823 825
f 538 823 827
f 823 822 827
f 827 822 828
f 822 821 828
f 828 821 829
f 821 820 829
f 829 820 832
f 820 833 832
f 832 831 829
f 831 830 829
f 829 830 828
f 828 830 827
f 812 833 843
f 1244 834 591
f 591 834 837
f 603 601 604
f 601 602 604
f 604 602 753
f 753 602 754
f 532 759 531
f 596 594 597
f 597 592 848
f 848 592 837
f 592 591 837
f 839 835 840
f 835 836 841
f 836 716 841
f 844 843 845
f 843 833 845
f 813 530 814
f 659 846 658
f 658 846 622
f 846 623 622
f 623 245 622
f 530 661 814
f 661 662 814
f 814 662 659
f 662 663 659
f 659 663 846
f 846 247 623
f 600 539 602
f 539 598 602
f 602 598 754
f 598 847 754
f 754 847 755
f 847 848 755
f 755 848 756
f 848 849 756
f 756 849 757
f 849 850 757
f 757 850 758
f 850 851 758
f 758 851 759
f 851 852 759
f 759 853 531
f 531 853 529
f 529 853 860
f 641 640 642
f 640 856 642
f 642 856 557
f 856 693 857
f 857 693 858
f 858 693 859
f 802 831 812
f 831 832 812
f 812 832 833
f 862 863 666
f 666 863 670
f 670 863 669
f 673 674 668
f 668 674 675
f 674 702 675
f 675 702 713
f 861 529 860
f 860 854 859
f 854 855 859
f 859 855 858
f 627 254 628
f 254 559 628
f 628 559 691
f 559 690 691
f 690 689 691
f 691 689 688
f 688 689 687
f 687 689 686
f 686 689 685
f 689 677 685
f 685 677 684
f 677 624 684
f 684 624 683
f 683 624 549
f 624 251 549
f 251 664 549
f 664 665 549
f 665 660 549
f 549 660 667
f 660 662 667
f 662 661 667
f 667 661 666
f 666 661 862
f 862 661 843
f 661 530 843
f 843 530 812
f 596 597 598
f 598 597 847
f 847 597 848
f 848 837 849
f 849 837 850
f 837 838 850
f 850 838 851
f 838 839 851
f 851 839 852
f 839 840 852
f 852 840 759
f 840 835 759
f 759 835 853
f 835 841 853
f 853 841 860
f 841 842 860
f 860 842 854
f 826 825 734
f 734 825 748
f 825 823 748
f 748 823 811
f 823 538 811
f 811 538 752
f 538 827 752
f 827 830 752
f 752 830 802
f 830 831 802
f 812 530 813
f 814 659 816
f 816 659 533
f 659 658 533
f 533 658 551
f 658 219 551
f 834 589 837
f 589 590 837
f 837 590 838
f 590 586 838
f 838 586 839
f 586 760 839
f 839 760 835
f 760 588 835
f 835 588 836
f 588 566 836
f 836 566 716
f 841 716 842
f 842 716 854
f 716 858 854
f 854 858 855
f 858 719 857
f 857 719 856
f 856 719 557
f 557 556 642
f 642 556 641
f 375 377 631
f 631 377 632
f 377 710 632
f 632 710 714
f 710 711 714
f 711 680 714
f 714 680 708
f 708 712 706
f 706 712 704
f 712 713 704
f 704 713 705
f 713 702 705
f 702 701 705
f 705 701 700
f 700 701 696
f 696 701 697
f 701 673 697
f 697 673 696
f 696 673 695
f 673 668 695
f 695 668 694
f 668 669 694
f 694 669 693
f 669 863 693
f 693 863 859
f 859 863 860
f 863 862 860
f 860 862 861
f 862 843 861
f 861 843 529
f 843 844 529
f 844 845 529
f 529 845 531
f 845 833 531
f 531 833 532
f 833 820 532
f 532 820 759
f 820 821 759
f 759 821 758
f 821 822 758
f 758 822 757
f 822 823 757
f 757 823 756
f 823 824 756
f 756 824 755
f 824 825 755
f 755 825 754
f 825 826 754
f 754 826 753
f 826 734 753
f 753 734 604
f 734 735 604
f 604 735 731
f 735 785 731
f 731 785 732
f 732 785 733
f 733 542 563
f 315 314 317
f 344 345 868
f 346 273 869
f 869 870 873
f 871 872 870
f 872 873 870
f 423 285 874
f 874 285 287
f 423 874 870
f 870 874 871
f 869 273 870
f 273 423 870
f 868 345 875
f 876 343 919
f 919 343 344
f 920 341 269
f 269 343 876
f 340 342 877
f 340 877 288
f 877 878 288
f 879 289 878
f 289 288 878
f 880 339 879
f 339 289 879
f 339 880 338
f 881 336 880
f 336 338 880
f 333 336 882
f 867 334 333
f 330 332 866
f 866 332 867
f 332 335 867
f 867 335 334
f 330 866 331
f 327 329 328
f 328 329 866
f 329 331 866
f 326 328 883
f 325 447 884
f 884 447 883
f 883 447 326
f 885 324 894
f 497 323 886
f 886 322 497
f 320 291 887
f 888 318 320
f 889 318 888
f 317 318 889
f 890 316 906
f 316 315 906
f 313 316 891
f 313 891 312
f 312 891 292
f 891 913 292
f 311 292 911
f 911 292 913
f 866 867 927
f 892 893 328
f 328 893 883
f 884 894 325
f 324 885 323
f 885 895 323
f 896 885 894
f 883 897 884
f 884 897 894
f 866 898 328
f 898 899 328
f 328 899 892
f 865 887 290
f 887 291 290
f 864 865 900
f 865 322 900
f 900 322 901
f 320 902 888
f 888 902 889
f 902 903 889
f 889 903 317
f 865 904 887
f 887 904 320
f 904 905 320
f 320 905 902
f 315 317 906
f 316 890 891
f 906 907 890
f 907 908 890
f 910 909 911
f 912 911 913
f 890 914 891
f 891 914 913
f 913 914 932
f 942 915 317
f 317 915 906
f 895 940 323
f 940 916 323
f 323 916 886
f 886 916 322
f 916 917 322
f 322 917 901
f 918 875 869
f 875 271 869
f 868 919 344
f 269 876 920
f 919 922 876
f 876 922 920
f 868 875 919
f 923 877 341
f 877 342 341
f 336 881 882
f 880 924 881
f 924 925 881
f 879 878 880
f 921 923 920
f 920 923 341
f 881 926 882
f 882 926 333
f 926 927 333
f 333 927 867
f 904 865 905
f 898 929 899
f 899 929 892
f 897 883 981
f 981 883 938
f 938 883 893
f 894 897 896
f 895 885 939
f 917 916 940
f 865 864 905
f 905 864 917
f 864 900 917
f 917 900 901
f 941 902 905
f 902 941 903
f 942 317 941
f 941 317 903
f 907 906 972
f 972 906 915
f 907 972 908
f 914 890 975
f 975 890 972
f 972 890 908
f 932 914 975
f 912 913 932
f 912 932 911
f 932 931 911
f 911 931 910
f 910 931 909
f 955 956 952
f 952 956 988
f 937 936 956
f 936 959 956
f 956 959 988
f 956 954 937
f 954 957 937
f 937 957 936
f 957 958 936
f 989 965 960
f 965 966 960
f 957 967 958
f 971 973 972
f 940 968 917
f 968 969 917
f 969 970 917
f 917 970 905
f 905 970 941
f 970 971 941
f 941 971 942
f 971 972 942
f 933 931 934
f 931 932 934
f 934 932 975
f 974 934 975
f 975 972 976
f 976 972 973
f 972 915 942
f 949 978 948
f 978 947 948
f 977 979 978
f 979 980 978
f 980 950 978
f 978 950 947
f 950 997 947
f 951 980 929
f 980 981 929
f 929 981 930
f 885 896 939
f 897 981 896
f 896 981 939
f 939 981 961
f 961 981 962
f 962 981 977
f 981 938 930
f 930 938 929
f 938 893 929
f 929 893 892
f 895 939 940
f 940 939 968
f 939 961 968
f 968 961 969
f 961 960 969
f 969 960 970
f 960 966 970
f 966 965 970
f 970 965 971
f 965 964 971
f 971 964 973
f 973 964 976
f 964 963 976
f 976 963 975
f 963 935 975
f 975 935 974
f 974 935 934
f 982 943 983
f 982 946 943
f 946 944 943
f 987 984 985
f 945 944 946
f 986 946 987
f 946 982 987
f 984 987 982
f 987 985 953
f 953 985 952
f 988 989 952
f 989 990 952
f 952 990 953
f 953 990 987
f 987 977 986
f 986 977 946
f 977 978 946
f 946 978 945
f 978 949 945
f 945 949 991
f 949 948 991
f 1134 928 958
f 958 928 992
f 992 928 933
f 933 934 992
f 934 935 992
f 992 935 958
f 958 935 936
f 935 963 936
f 963 964 936
f 936 964 959
f 959 964 988
f 964 965 988
f 988 965 989
f 989 960 990
f 960 961 990
f 990 961 987
f 961 962 987
f 987 962 977
f 977 981 979
f 979 981 980
f 898 866 996
f 929 898 951
f 898 996 951
f 996 866 994
f 994 866 927
f 996 993 995
f 998 997 950
f 998 950 980
f 993 997 995
f 997 998 995
f 995 998 996
f 998 980 996
f 996 980 951
f 993 999 1003
f 943 944 1013
f 1013 944 1004
f 945 991 1002
f 991 948 1002
f 944 945 1004
f 1000 1001 999
f 1001 1004 999
f 999 1004 1003
f 1003 1004 1002
f 1004 945 1002
f 1000 1005 1001
f 1007 1008 1006
f 1011 924 880
f 1009 1010 1011
f 881 925 1011
f 1011 925 924
f 927 926 994
f 994 926 881
f 1010 1009 1012
f 1006 1012 1007
f 1001 1005 1004
f 1005 1013 1004
f 983 943 1013
f 1002 948 947
f 1003 1002 993
f 993 1002 997
f 1002 947 997
f 1015 1014 1008
f 1014 1000 1008
f 1008 1000 1006
f 1000 999 1006
f 1006 999 1012
f 999 993 1012
f 1012 993 1010
f 1010 993 1011
f 993 996 1011
f 996 994 1011
f 1011 994 881
f 983 1013 1017
f 1017 1013 1005
f 984 982 1017
f 982 983 1017
f 952 985 1017
f 985 984 1017
f 957 1018 967
f 957 954 1018
f 1018 954 956
f 956 955 1017
f 955 952 1017
f 1019 1000 1014
f 1016 1005 1019
f 1005 1000 1019
f 1047 1020 1015
f 1020 1019 1015
f 1015 1019 1014
f 956 1017 1018
f 1005 1016 1017
f 1016 1021 1017
f 1025 1026 1027
f 1028 1029 1042
f 1053 1022 1031
f 1031 1022 1032
f 1022 1033 1032
f 1026 1022 1027
f 1034 1035 1026
f 1026 1035 1022
f 1022 1035 1033
f 1025 1023 1036
f 1024 1030 1023
f 1023 1030 1037
f 1037 1036 1023
f 1036 1038 1025
f 1025 1038 1026
f 1026 1038 1034
f 1039 1030 1040
f 1030 1070 1040
f 1040 1028 1041
f 1042 1043 1028
f 1028 1043 1041
f 1039 1044 1030
f 1044 1045 1030
f 1030 1045 1037
f 1029 1046 1015
f 1046 1047 1015
f 1015 1048 1029
f 1048 1042 1029
f 1028 1040 1050
f 1051 1052 1053
f 1056 1057 1018
f 1018 1057 967
f 1055 1054 1058
f 1055 1058 1018
f 1018 1058 1056
f 1059 1061 1062
f 1059 1067 1063
f 1063 1064 1059
f 1064 1065 1059
f 1059 1065 1060
f 1066 1067 1016
f 1067 1208 1063
f 1066 1016 1068
f 1016 1020 1068
f 1018 1017 1055
f 1017 1059 1055
f 1055 1059 1054
f 1059 1062 1054
f 1017 1021 1059
f 1059 1021 1067
f 1021 1016 1067
f 1016 1019 1020
f 1025 1027 1069
f 1027 1022 1069
f 1069 1022 1053
f 1024 1023 1078
f 1023 1025 1078
f 1078 1025 1069
f 1028 1049 1029
f 1049 1046 1029
f 1074 1070 1075
f 1070 1030 1075
f 1075 1030 1024
f 1052 1072 1053
f 1072 1073 1053
f 1053 1073 1069
f 1069 1073 1071
f 1075 1024 1076
f 1071 1077 1069
f 1069 1077 1078
f 1024 1078 1076
f 1040 1070 1050
f 1050 1070 1079
f 1079 1049 1050
f 1050 1049 1028
f 1046 1081 1080
f 1079 1082 1049
f 1049 1082 1046
f 1046 1082 1081
f 1074 1083 1070
f 1020 1047 1068
f 1068 1047 1080
f 1047 1046 1080
f 1080 1081 1068
f 1081 1214 1068
f 933 928 1084
f 1134 958 1085
f 909 931 1097
f 1099 1101 1100
f 1100 1101 1098
f 1099 1100 1236
f 1103 1095 1100
f 1095 1236 1100
f 1093 1103 1102
f 1103 606 1095
f 1094 1238 1093
f 1092 1091 1094
f 1091 1105 1094
f 1094 1105 1104
f 1092 1106 1091
f 1224 1106 1107
f 1109 1108 1107
f 1108 1110 1107
f 1109 1111 1108
f 1115 1114 1113
f 1115 1117 1114
f 1090 1089 1116
f 1116 1089 1115
f 1089 1090 1118
f 1127 1056 1126
f 1056 1058 1126
f 1128 1056 1127
f 967 1057 1085
f 1085 1057 1128
f 1128 1057 1056
f 1096 1135 1098
f 1098 1135 1100
f 1135 1136 1100
f 1100 1136 1103
f 1097 931 1096
f 1096 931 1135
f 1135 931 933
f 1136 1137 1103
f 1137 1138 1103
f 1138 1147 1103
f 933 1084 1135
f 1084 1134 1135
f 1135 1134 1136
f 1134 1137 1136
f 1121 1088 1122
f 1122 1088 1145
f 1088 1144 1145
f 1146 1088 1116
f 1116 1088 1119
f 1112 1109 1113
f 1109 1146 1113
f 1113 1146 1115
f 1146 1116 1115
f 1116 1119 1090
f 1119 1120 1090
f 1147 1148 1094
f 1094 1148 1092
f 1092 1148 1106
f 1148 1149 1106
f 1106 1149 1107
f 1107 1149 1109
f 1149 1150 1109
f 1150 1151 1109
f 1109 1151 1146
f 1146 1151 1088
f 1151 1152 1088
f 1088 1152 1144
f 1093 1102 1094
f 1102 1103 1094
f 1094 1103 1147
f 1147 1140 1148
f 1148 1140 1149
f 1140 1141 1149
f 1141 1142 1149
f 1149 1142 1150
f 1150 1142 1151
f 1142 1143 1151
f 1143 1139 1151
f 1151 1139 1152
f 1152 1139 1144
f 1145 1144 1122
f 1087 1060 1065
f 1086 1125 1087
f 1087 1125 1154
f 1126 1061 1060
f 1061 1059 1060
f 1062 1061 1126
f 1058 1054 1126
f 1126 1054 1062
f 1153 1126 1154
f 1126 1060 1154
f 1154 1060 1087
f 958 967 1085
f 1085 1128 1133
f 1133 1128 1132
f 1128 1127 1132
f 1132 1127 1131
f 1131 1127 1130
f 1127 1126 1130
f 1130 1126 1129
f 1126 1153 1129
f 1153 1154 1129
f 1154 1125 1155
f 1155 1125 1123
f 1125 1156 1123
f 928 1134 1084
f 1134 1085 1137
f 1085 1133 1137
f 1133 1132 1137
f 1137 1132 1138
f 1138 1132 1147
f 1147 1132 1140
f 1132 1131 1140
f 1131 1130 1140
f 1140 1130 1141
f 1130 1129 1141
f 1141 1129 1142
f 1129 1154 1142
f 1142 1154 1143
f 1154 1155 1143
f 1143 1155 1139
f 1155 1123 1139
f 1139 1123 1144
f 1123 1124 1144
f 1144 1124 1122
f 1122 1124 1121
f 1157 1158 1159
f 1160 1161 1033
f 920 922 1165
f 873 872 1157
f 872 1166 1157
f 1157 1166 1167
f 920 1165 921
f 923 921 1168
f 877 923 1164
f 1164 878 877
f 1164 1011 878
f 878 1011 880
f 1173 1009 1164
f 1164 1009 1011
f 1174 1175 1169
f 1169 1175 1170
f 1170 1175 1171
f 1172 1009 1173
f 1040 1041 1169
f 1041 1043 1169
f 1169 1043 1174
f 1171 1162 1177
f 1162 1163 1178
f 1178 1163 1179
f 1160 1033 1180
f 1033 1035 1181
f 1181 1035 1034
f 1185 1162 1182
f 1182 1162 1181
f 1162 1178 1181
f 1181 1178 1033
f 1178 1179 1033
f 1033 1179 1180
f 1179 1163 1180
f 1180 1163 1183
f 1163 1184 1183
f 1162 1185 1177
f 1185 1036 1186
f 1036 1037 1186
f 1181 1034 1182
f 1034 1038 1182
f 1182 1038 1185
f 1185 1038 1036
f 869 1189 918
f 1189 875 918
f 869 873 1189
f 873 1157 1189
f 1157 1167 1158
f 1189 1187 875
f 875 1187 919
f 1165 922 1187
f 922 919 1187
f 923 1168 1164
f 1188 1168 1189
f 1191 1192 1193
f 921 1165 1168
f 1165 1187 1168
f 1187 1189 1168
f 1189 1157 1190
f 1190 1157 1191
f 1157 1159 1191
f 1191 1159 1192
f 1042 1048 1174
f 1007 1176 1008
f 1176 1174 1008
f 1174 1048 1008
f 1008 1048 1015
f 1007 1012 1176
f 1176 1012 1171
f 1171 1012 1009
f 1043 1042 1174
f 1174 1176 1175
f 1175 1176 1171
f 1171 1009 1172
f 1045 1044 1169
f 1171 1177 1170
f 1177 1185 1170
f 1170 1185 1169
f 1185 1186 1169
f 1186 1037 1169
f 1169 1037 1045
f 1044 1039 1169
f 1169 1039 1040
f 1164 1168 1173
f 1173 1168 1172
f 1168 1188 1172
f 1172 1188 1171
f 1188 1189 1171
f 1171 1189 1162
f 1189 1190 1162
f 1190 1191 1162
f 1162 1191 1163
f 1191 1193 1163
f 1163 1193 1184
f 1124 1123 1194
f 1090 1120 1198
f 1199 1090 1200
f 1090 1198 1200
f 1219 1201 1202
f 1201 1198 1202
f 1201 1200 1198
f 1198 1204 1203
f 1203 1204 1124
f 1204 1198 1088
f 1088 1198 1119
f 1198 1120 1119
f 1123 1205 1194
f 1194 1205 1197
f 1197 1196 1207
f 1207 1196 1208
f 1086 1195 1125
f 1123 1156 1205
f 1197 1205 1196
f 1205 1156 1196
f 1196 1156 1125
f 1125 1195 1196
f 1196 1195 1208
f 1195 1063 1208
f 1208 1209 1207
f 1207 1209 1197
f 1209 1210 1197
f 1210 1211 1197
f 1211 1212 1197
f 1197 1212 1206
f 1212 1198 1206
f 1260 1066 1214
f 1214 1066 1068
f 1217 1278 1277
f 1216 1218 1215
f 1211 1213 1217
f 1213 1220 1217
f 1217 1220 1278
f 1065 1064 1087
f 1063 1195 1064
f 1195 1086 1064
f 1064 1086 1087
f 1088 1121 1204
f 1204 1121 1124
f 1198 1203 1206
f 1206 1203 1197
f 1203 1124 1197
f 1197 1124 1194
f 1067 1066 1260
f 1067 1260 1208
f 1208 1260 1209
f 1260 1279 1209
f 1209 1279 1210
f 1279 1213 1210
f 1210 1213 1211
f 1211 1217 1212
f 1212 1217 1198
f 1198 1217 1202
f 1217 1215 1202
f 1202 1215 1219
f 1215 1218 1219
f 577 726 1226
f 591 592 1229
f 1222 1230 1231
f 1222 1231 568
f 568 1231 571
f 1231 1232 571
f 571 1232 573
f 1232 575 573
f 911 909 612
f 909 1233 612
f 612 1233 610
f 610 1233 611
f 1234 611 1233
f 565 564 1234
f 565 1235 609
f 607 608 1235
f 1235 608 609
f 1236 1237 607
f 607 1237 606
f 1223 604 606
f 1238 604 605
f 1223 605 604
f 1239 601 1238
f 601 603 1238
f 1238 603 604
f 599 539 600
f 596 598 1240
f 598 599 1240
f 593 595 1112
f 1112 595 1241
f 1241 595 594
f 1229 593 1242
f 1244 591 1243
f 590 589 1118
f 1118 589 1228
f 1228 589 834
f 587 586 1199
f 586 590 1199
f 587 1245 588
f 1221 761 1245
f 761 588 1245
f 1247 761 1246
f 1248 584 1227
f 584 585 1227
f 1227 585 1247
f 582 584 1248
f 579 1250 1251
f 581 580 1251
f 1253 581 1252
f 722 577 1225
f 1225 577 1226
f 571 569 568
f 568 567 1255
f 1255 567 576
f 1199 590 1118
f 1199 1200 587
f 1200 1201 587
f 1089 1228 1244
f 1228 834 1244
f 591 1229 1243
f 1229 1114 1243
f 1243 1114 1117
f 1117 1115 1243
f 1243 1115 1244
f 1244 1115 1089
f 593 1112 1242
f 1242 1112 1113
f 1108 1241 596
f 596 1241 594
f 1108 1111 1241
f 1241 1111 1112
f 1111 1109 1112
f 1113 1114 1242
f 1242 1114 1229
f 1089 1118 1228
f 1118 1090 1199
f 599 1224 1240
f 1240 1224 1107
f 600 1091 599
f 1091 1106 599
f 599 1106 1224
f 1104 601 1239
f 605 1223 1238
f 1223 1093 1238
f 1238 1094 1239
f 1239 1094 1104
f 1104 1105 601
f 1105 1091 601
f 601 1091 600
f 1095 606 1237
f 607 1235 1236
f 1235 1099 1236
f 1236 1095 1237
f 1101 565 1234
f 909 1097 1233
f 1097 1096 1233
f 1096 1098 1233
f 1233 1098 1234
f 1234 1098 1101
f 1101 1099 565
f 565 1099 1235
f 606 1103 1223
f 1223 1103 1093
f 1107 1110 1240
f 1240 1110 596
f 1110 1108 596
f 1254 1255 1225
f 1225 1255 722
f 1255 576 722
f 568 1255 1222
f 726 1253 1226
f 581 1251 1252
f 1252 1257 1253
f 1253 1257 1226
f 1226 1289 1225
f 1275 1250 1249
f 1249 1250 579
f 582 1248 583
f 1248 1276 583
f 1276 1258 583
f 583 1258 1249
f 1249 1258 1275
f 1247 1216 1227
f 761 1221 1246
f 1221 1219 1246
f 1219 1218 1246
f 1246 1218 1247
f 1247 1218 1216
f 1227 1216 1248
f 1275 1259 1250
f 1250 1259 1251
f 587 1201 1245
f 1245 1201 1221
f 1201 1219 1221
f 1261 1262 1263
f 1262 1264 1263
f 1222 1255 1265
f 1292 1213 1291
f 1079 1070 1280
f 1248 1216 1215
f 1272 1230 1222
f 1257 1252 1274
f 1252 1251 1274
f 1274 1251 1259
f 1277 1275 1276
f 1275 1258 1276
f 1259 1275 1274
f 1274 1275 1277
f 1277 1276 1217
f 1217 1276 1215
f 1215 1276 1248
f 1082 1079 1280
f 1213 1279 1291
f 1081 1082 1280
f 1282 1269 1270
f 1266 1270 1286
f 1286 1270 1263
f 1270 1271 1263
f 1263 1271 1283
f 1077 1071 1266
f 1266 1071 1270
f 1071 1073 1270
f 1270 1073 1282
f 1282 1073 1072
f 1076 1074 1075
f 1076 1078 1285
f 1078 1077 1285
f 1077 1266 1285
f 1285 1266 1286
f 1263 1283 1287
f 1272 1222 1288
f 1255 1254 1265
f 1265 1254 1289
f 1285 1286 1076
f 1076 1286 1281
f 1286 1263 1281
f 1281 1263 1284
f 1263 1287 1261
f 1289 1254 1225
f 1226 1256 1289
f 1289 1256 1273
f 1256 1226 1273
f 1273 1226 1257
f 1288 1296 1272
f 1222 1265 1288
f 1265 1289 1288
f 1288 1289 1295
f 1295 1289 1294
f 1289 1273 1294
f 1273 1274 1294
f 1294 1274 1293
f 1293 1274 1292
f 1291 1279 1290
f 1290 1279 1280
f 1279 1260 1280
f 1280 1260 1081
f 1081 1260 1214
f 1257 1274 1273
f 1277 1278 1274
f 1274 1278 1292
f 1278 1220 1292
f 1292 1220 1213
f 1070 1083 1280
f 1267 1268 1284
f 1284 1268 1281
f 1268 1280 1281
f 1281 1280 1076
f 1280 1083 1076
f 1076 1083 1074
f 1280 1268 1290
f 1290 1268 1291
f 1291 1268 1292
f 1268 1267 1292
f 1292 1267 1293
f 1293 1267 1294
f 1267 1284 1294
f 1294 1284 1295
f 1284 1263 1295
f 1295 1263 1288
f 1263 1264 1288
f 1288 1264 1296
f 574 1297 572
f 1329 1299 1298
f 1300 655 570
f 1299 1300 1298
f 1298 1300 1301
f 1300 570 1301
f 1301 570 656
f 1297 1302 572
f 1302 1303 572
f 572 1303 657
f 1303 1301 657
f 657 1301 656
f 171 173 1309
f 173 1310 1309
f 1311 1315 1312
f 1315 1313 1312
f 1314 1313 1315
f 1321 1308 1318
f 1308 1319 1318
f 1321 1400 1308
f 1320 1322 1321
f 1330 1307 1320
f 1307 1323 1320
f 1320 1323 1322
f 1325 1324 1330
f 1330 1324 1307
f 1325 1326 1324
f 1302 1327 1325
f 1325 1327 1326
f 1302 1328 1327
f 1298 1330 1329
f 1330 1331 1329
f 1332 1333 1330
f 1330 1333 1331
f 1335 1334 1330
f 1330 1334 1332
f 1334 1335 1336
f 1336 1335 1337
f 1337 1335 1338
f 1315 1306 1339
f 1339 1306 1335
f 1306 1340 1335
f 1335 1340 1338
f 1306 1315 1304
f 1304 1315 1305
f 1315 1341 1305
f 1305 1341 1304
f 171 1309 1311
f 1309 1342 1311
f 1311 1342 1315
f 1315 1342 1341
f 1297 1328 1302
f 1302 1301 1303
f 1298 1301 1330
f 1301 1302 1330
f 1302 1325 1330
f 1330 1320 1335
f 1320 1321 1335
f 1321 1318 1335
f 1335 1318 1339
f 1318 1316 1339
f 1339 1316 1315
f 1316 1317 1315
f 1317 1314 1315
f 1297 575 1343
f 575 1232 1343
f 1344 1345 1230
f 1230 1345 1231
f 1345 1346 1231
f 1231 1346 1232
f 1346 1360 1232
f 1232 1360 1343
f 1347 1269 1348
f 1269 1282 1348
f 1348 1282 1349
f 1282 1072 1349
f 1349 1072 1408
f 1344 1230 1350
f 1230 1272 1350
f 1350 1272 1351
f 1272 1296 1351
f 1351 1296 1352
f 1296 1264 1352
f 1352 1264 1353
f 1264 1262 1353
f 1353 1262 1354
f 1262 1261 1354
f 1354 1261 1355
f 1261 1287 1355
f 1355 1287 1356
f 1356 1287 1357
f 1287 1283 1357
f 1357 1283 1358
f 1283 1271 1358
f 1358 1271 1347
f 1271 1270 1347
f 1347 1270 1269
f 1328 1297 1343
f 168 1363 1371
f 1373 1423 1369
f 1367 1376 1375
f 1375 1376 1374
f 1406 1378 1367
f 1385 1386 1366
f 1345 1344 1387
f 1345 1387 1346
f 1387 1360 1346
f 1328 1343 1360
f 1326 1327 1388
f 1389 1324 1390
f 1390 1324 1326
f 1307 1324 1391
f 1323 1307 1391
f 1322 1323 1362
f 1400 1403 1308
f 1318 1319 1405
f 1405 1319 1308
f 1318 1405 1316
f 1405 1364 1316
f 1314 1317 1364
f 1364 1317 1316
f 1392 1313 1314
f 1392 1393 1313
f 1311 1312 1393
f 1393 1312 1313
f 1311 1393 171
f 172 167 171
f 1398 169 172
f 1395 1363 169
f 1371 1363 1370
f 1370 1363 1369
f 1394 1372 1397
f 1395 169 1398
f 1423 1368 1369
f 1369 1363 1373
f 1373 1363 1372
f 1363 1395 1372
f 1372 1395 1397
f 1314 1364 1392
f 1398 1397 1395
f 1397 1399 1394
f 1394 1399 1372
f 1372 1399 1422
f 1391 1324 1389
f 1321 1322 1400
f 1400 1322 1362
f 1388 1390 1326
f 1327 1328 1359
f 1359 1328 1360
f 1417 1360 1365
f 1360 1387 1365
f 1327 1359 1388
f 1388 1359 1390
f 1390 1359 1389
f 1359 1401 1389
f 1389 1401 1391
f 1382 1383 1366
f 1366 1383 1384
f 1379 1380 1384
f 1380 1402 1384
f 1384 1402 1366
f 1361 1403 1362
f 1362 1403 1400
f 1323 1391 1362
f 1362 1391 1361
f 1391 1401 1361
f 1361 1401 1403
f 171 1404 172
f 172 1404 1398
f 1398 1404 1397
f 1404 1405 1397
f 1397 1405 1396
f 1396 1405 1406
f 1417 1386 1360
f 1386 1385 1360
f 1360 1385 1359
f 1385 1366 1359
f 1366 1402 1359
f 1359 1402 1401
f 1402 1380 1401
f 1380 1381 1401
f 1401 1381 1403
f 1381 1406 1403
f 1406 1405 1403
f 1380 1377 1381
f 1377 1378 1381
f 1381 1378 1406
f 1406 1367 1396
f 1367 1375 1396
f 1396 1375 1397
f 1375 1374 1397
f 1397 1374 1399
f 171 1393 1404
f 1393 1392 1404
f 1392 1364 1404
f 1404 1364 1405
f 1405 1308 1403
f 1072 1052 1408
f 1032 1407 1031
f 1032 1033 1409
f 1407 1410 1031
f 1031 1410 1053
f 1410 1411 1053
f 1053 1411 1051
f 1411 1412 1051
f 1051 1412 1052
f 1412 1427 1052
f 1052 1427 1408
f 1384 1419 1379
f 1387 1344 1350
f 1416 1371 1370
f 1387 1350 1365
f 1417 1365 1350
f 1382 1366 1417
f 1366 1386 1417
f 1384 1383 1418
f 1383 1382 1418
f 1419 1380 1379
f 1377 1380 1420
f 1378 1377 1421
f 1377 1420 1421
f 1421 1420 1378
f 1376 1367 1450
f 1450 1367 1420
f 1367 1378 1420
f 1376 1450 1374
f 1450 1422 1374
f 1399 1374 1422
f 1423 1373 1424
f 1424 1373 1372
f 1370 1369 1416
f 1369 1368 1416
f 1416 1368 1423
f 1436 1415 1414
f 1436 161 1437
f 1348 1349 1408
f 1427 1412 1443
f 1443 1412 1411
f 1411 1410 1443
f 1443 1410 1428
f 1434 1415 1429
f 1429 1415 1436
f 1432 1433 1431
f 1431 1433 1430
f 1433 1434 1430
f 1430 1434 1429
f 1438 1437 165
f 1352 1353 1445
f 1419 1384 1418
f 1357 1358 1440
f 1358 1347 1440
f 1440 1347 1439
f 1357 1440 1356
f 1440 1439 1441
f 1347 1348 1439
f 1348 1408 1439
f 1439 1408 1441
f 1408 1427 1441
f 1441 1427 1442
f 1442 1427 1443
f 1443 1428 1444
f 1444 1428 1494
f 1353 1354 1445
f 1382 1417 1418
f 1420 1419 1449
f 1372 1422 1424
f 1424 1422 1450
f 1450 1420 1449
f 1420 1380 1419
f 1351 1352 1445
f 1445 1446 1418
f 1418 1446 1451
f 1451 1446 1452
f 1446 1447 1452
f 1452 1447 1453
f 1447 1448 1453
f 1453 1448 1429
f 1448 1447 1429
f 1429 1447 1430
f 1354 1355 1445
f 1355 1356 1445
f 1445 1356 1446
f 1356 1440 1446
f 1440 1441 1446
f 1446 1441 1447
f 1441 1442 1447
f 1442 1443 1447
f 1447 1443 1430
f 1443 1444 1430
f 1430 1444 1431
f 1444 1494 1431
f 1431 1494 1432
f 1494 1517 1432
f 1432 1517 1435
f 1414 162 1436
f 1436 162 161
f 1371 1416 168
f 1435 1413 1432
f 1432 1413 1433
f 1413 1425 1433
f 1433 1425 1434
f 1425 1426 1434
f 1434 1426 1415
f 165 168 1438
f 168 1416 1438
f 1438 1416 1437
f 1416 1423 1437
f 1437 1423 1436
f 1423 1424 1436
f 1436 1424 1429
f 1424 1450 1429
f 1450 1449 1429
f 1429 1449 1453
f 1453 1449 1452
f 1449 1419 1452
f 1452 1419 1451
f 1451 1419 1418
f 1418 1417 1445
f 1445 1417 1351
f 1417 1350 1351
f 1458 1459 1480
f 1415 1426 1463
f 1425 1413 1487
f 1466 157 160
f 1469 1470 1468
f 1468 1470 1552
f 1465 1473 1471
f 1474 1472 1473
f 1480 1464 1503
f 1480 1481 1482
f 1483 1484 1485
f 1485 1484 1545
f 1480 1486 1481
f 1463 1426 1487
f 1426 1425 1487
f 1489 160 1490
f 1490 160 159
f 1490 1463 1489
f 1489 1463 1488
f 1463 1487 1488
f 1513 1492 1409
f 1492 1493 1409
f 1493 1407 1409
f 1494 1428 1410
f 1407 1493 1410
f 1493 1494 1410
f 1495 1413 1435
f 1495 1435 1496
f 1461 1462 1495
f 1496 1435 1460
f 1545 1486 1485
f 1486 1480 1485
f 1485 1480 1497
f 1480 1498 1497
f 1499 1500 1501
f 1459 1498 1480
f 1480 1482 1464
f 1500 1458 1501
f 1458 1480 1501
f 1501 1480 1502
f 1502 1480 1503
f 1504 1479 1503
f 1503 1479 1502
f 1502 1479 1501
f 1457 1501 1456
f 1456 1501 1511
f 1501 1479 1511
f 1511 1479 1512
f 1512 1479 1478
f 1476 1475 1514
f 1409 1506 1505
f 1506 1507 1505
f 1505 1507 1508
f 1509 1455 1510
f 1455 1456 1510
f 1510 1456 1511
f 1476 1512 1477
f 1475 1476 1477
f 1476 1514 1512
f 1514 1510 1512
f 1512 1510 1511
f 1510 1505 1509
f 1505 1508 1509
f 1409 1505 1513
f 1505 1510 1513
f 1513 1510 1514
f 1514 1475 1515
f 1515 1475 1474
f 1474 1475 1472
f 1493 1517 1494
f 1469 1518 1465
f 1465 1518 1473
f 1518 1474 1473
f 1474 1454 1515
f 1515 1454 1514
f 1454 1516 1514
f 1514 1516 1513
f 1513 1517 1492
f 1492 1517 1493
f 159 162 1490
f 1490 162 1491
f 1463 1490 1415
f 1415 1490 1414
f 1490 1491 1414
f 1491 162 1414
f 1461 1488 1462
f 1488 1487 1462
f 1462 1487 1495
f 1487 1413 1495
f 1466 160 1467
f 160 1489 1467
f 1467 1489 1468
f 1489 1488 1468
f 1468 1488 1469
f 1469 1488 1518
f 1488 1461 1518
f 1518 1461 1474
f 1474 1461 1454
f 1454 1461 1516
f 1461 1495 1516
f 1495 1496 1516
f 1516 1496 1513
f 1496 1460 1513
f 1513 1460 1517
f 1460 1435 1517
f 1166 872 1483
f 1184 1455 1183
f 1455 1509 1183
f 1183 1509 1180
f 1509 1508 1180
f 1180 1508 1160
f 1508 1507 1160
f 1160 1507 1161
f 1507 1506 1161
f 1161 1506 1033
f 1506 1409 1033
f 1193 1192 1499
f 1499 1501 1193
f 1501 1457 1193
f 1193 1457 1184
f 1457 1456 1184
f 1184 1456 1455
f 1483 1485 1166
f 1485 1497 1166
f 1166 1497 1167
f 1497 1498 1167
f 1167 1498 1158
f 1498 1459 1158
f 1158 1459 1159
f 1459 1458 1159
f 1159 1458 1192
f 1458 1500 1192
f 1192 1500 1499
f 151 1524 1525
f 151 1525 1526
f 1526 1527 151
f 1527 153 151
f 1532 1529 1531
f 1531 1529 1528
f 1529 1530 1528
f 1533 1534 1535
f 1535 1534 1523
f 1523 1534 1522
f 1536 1533 1535
f 1542 1541 1550
f 1543 1544 1545
f 1484 1547 1545
f 1547 1548 1545
f 1545 1548 1543
f 1549 1550 1486
f 1486 1550 1481
f 1482 1481 1550
f 1550 1464 1482
f 1503 1464 1550
f 1479 1504 1478
f 1475 1477 1558
f 1558 1477 1551
f 1477 1512 1551
f 1551 1512 1478
f 1472 1475 1558
f 1473 1472 1519
f 1519 1472 1558
f 1519 1471 1473
f 1562 1470 1469
f 1552 1470 1553
f 1466 1467 1554
f 1554 1467 1553
f 1553 1467 1468
f 1466 1554 157
f 156 155 1555
f 1555 155 1553
f 1553 155 1554
f 1554 155 157
f 1555 154 156
f 1555 1556 154
f 154 1556 151
f 1524 151 1556
f 1553 1468 1552
f 1560 1559 1557
f 1563 1542 1549
f 1549 1542 1550
f 1486 1545 1549
f 1545 1544 1549
f 1549 1544 1563
f 1564 1541 1540
f 1540 1541 1539
f 1504 1503 1520
f 1520 1503 1564
f 1503 1550 1564
f 1564 1550 1541
f 1539 1537 1540
f 1537 1538 1540
f 1540 1538 1564
f 1522 1566 1523
f 1523 1566 1535
f 1535 1567 1536
f 1536 1567 1521
f 1538 1567 1564
f 1564 1567 1520
f 1567 1535 1520
f 1520 1535 1565
f 1535 1566 1565
f 1565 1566 1568
f 1469 1465 1562
f 1562 1465 1561
f 1465 1471 1561
f 1561 1471 1559
f 1471 1519 1559
f 1559 1519 1557
f 1519 1558 1557
f 1558 1568 1557
f 1568 1566 1557
f 1568 1558 1565
f 1558 1551 1565
f 1551 1478 1565
f 1565 1478 1520
f 1478 1504 1520
f 1470 1562 1553
f 1553 1562 1555
f 1562 1561 1555
f 1561 1559 1555
f 1555 1559 1556
f 1556 1559 1524
f 1559 1560 1524
f 1524 1560 1525
f 1560 1557 1525
f 1525 1557 1528
f 1528 1557 1531
f 1557 1566 1531
f 1531 1566 1532
f 1566 1522 1532
f 1532 1522 1584
f 1571 1570 1572
f 1542 1563 1571
f 1571 1563 1573
f 1563 1544 1573
f 1537 1539 1574
f 1539 1541 1574
f 1574 1541 1571
f 1571 1541 1542
f 1521 1567 1575
f 1567 1538 1575
f 1575 1538 1574
f 1574 1538 1537
f 1533 1536 1576
f 1576 1536 1575
f 1575 1536 1521
f 1522 1534 1569
f 1569 1534 1576
f 1576 1534 1533
f 1584 1522 1569
f 1577 1532 1584
f 1529 1532 1577
f 1577 1578 1529
f 1578 1530 1529
f 1525 1528 1578
f 1528 1530 1578
f 1578 1526 1525
f 1526 153 1527
f 1579 149 153
f 1580 1581 1526
f 1581 1579 1526
f 1526 1579 153
f 1578 1583 1526
f 1526 1583 1580
f 1578 1582 1583
f 1582 1587 1583
f 1584 1585 1586
f 1585 1587 1586
f 1588 1590 1589
f 1589 1590 1584
f 1584 1590 1585
f 1576 1591 1589
f 1589 1591 1588
f 1592 1593 1576
f 1576 1593 1591
f 1572 1594 1571
f 1571 1594 1576
f 1594 1595 1576
f 1576 1595 1592
f 1571 1576 1574
f 1574 1576 1575
f 1576 1589 1569
f 1569 1589 1584
f 1584 1586 1577
f 1577 1586 1578
f 1586 1587 1578
f 1578 1587 1582
f 1483 872 1546
f 872 871 1546
f 1546 871 1484
f 1484 871 1547
f 871 874 1547
f 1547 874 1548
f 1548 874 1543
f 874 287 1543
f 1543 287 1544
f 348 1571 1573
f 1544 287 1573
f 287 286 1573
f 1573 286 348
f 348 349 1596
f 1596 349 350
f 1597 1598 1570
f 1598 1599 1570
f 1570 1599 1572
f 1571 348 1570
f 348 1596 1570
f 1570 1596 1597
f 173 174 1310
