v -0.000488742 0.0308253 0.1068
v 0.0310869 -0.00149676 0.106799
v 0.0220504 0.0223625 0.106818
v -0.00101813 -0.0440296 0.052071
v -0.00260754 -0.0438519 0.0966744
v -0.0353104 -0.0407374 0.0846138
v -0.0146433 0.0269626 0.106821
v -0.0225321 0.0207093 0.1068
v 0.0808787 0.0373057 0.0904427
v 0.0790707 0.0350774 0.0944921
v 0.0333841 -0.0286517 0.0966786
v 0.0807951 0.0366703 0.0823241
v 0.0346353 -0.0272282 0.0521236
v 0.0277464 -0.034283 0.052052
v 0.0437683 -0.00346766 0.0520004
v 0.042535 0.0120748 0.0520025
v 0.0793278 0.0370214 0.0766471
v 0.0667821 0.0540207 0.0943867
v 0.0550827 0.0674649 0.0927697
v 0.0499377 0.0697116 0.0949036
v -0.0307552 -0.00373941 0.106804
v -0.0285067 0.0114344 0.106802
v 0.077637 0.0357091 0.0959911
v 0.0244647 -0.0185901 0.106837
v 0.0159693 -0.0261119 0.1068
v 0.0270708 -0.0345396 0.0967675
v 0.0789526 0.0383088 0.0947032
v 0.0797988 0.0370609 0.0941078
v 0.0623015 0.0558765 0.0958238
v 0.0352562 0.0775292 0.096057
v -0.00294573 0.0438203 0.0520002
v 0.0369474 0.0793806 0.0766673
v 0.0137097 0.0420134 0.0520026
v -0.0407117 -0.0355045 0.0847137
v -0.0299749 -0.0321946 0.052039
v -0.0364267 -0.0395011 0.0890788
v -0.0378942 -0.0379897 0.0897263
v -0.0111965 -0.0422988 0.0969776
v -0.0117819 -0.0424086 0.0520547
v 0.00201319 -0.0438276 0.0968043
v 0.00851698 -0.0432627 0.0521053
v 0.0182619 -0.0401269 0.0521011
v 0.0149762 -0.0412285 0.0968407
v -0.00527338 -0.0303378 0.106803
v 0.00688889 -0.0299083 0.1068
v 0.0215296 -0.0382743 0.096689
v 0.0803598 0.0390829 0.0925137
v 0.0730595 0.0503521 0.0885561
v 0.0726204 0.048678 0.0931462
v 0.0813061 0.0397235 0.0858213
v 0.0405875 -0.0172367 0.0520401
v -0.0132719 0.0418746 0.0520049
v -0.0232013 0.0374665 0.052086
v -0.0274945 0.0342045 0.0967548
v -0.0287566 0.0333259 0.0521097
v 0.0351786 0.0794493 0.0938294
v 0.0381797 0.0804771 0.0928219
v 0.0375441 0.0809632 0.089269
v 0.0311507 0.0312147 0.0519905
v 0.0729745 0.047059 0.0773064
v -0.04296 0.00904092 0.0968202
v -0.0396664 -0.036274 0.0888324
v -0.0370132 -0.023885 0.052071
v -0.042725 -0.0104429 0.0520636
v -0.021465 -0.0383734 0.0520041
v -0.0238942 -0.0193545 0.106802
v -0.0157064 -0.0262497 0.106801
v -0.0390051 -0.018734 0.0975686
v -0.0199612 -0.0387507 0.0971672
v 0.077096 0.0452156 0.0821725
v 0.0808736 0.0391079 0.0799789
v 0.0742008 0.0478683 0.0796638
v 0.0643523 0.0579626 0.0783043
v 0.0466949 0.0754551 0.0906014
v 0.0389722 0.0796419 0.0936916
v 0.0381517 0.0804929 0.0783622
v 0.039656 0.081087 0.0816278
v 0.0457585 0.0751361 0.0784036
v 0.0496748 0.0697965 0.0766427
v 0.0638133 0.0558121 0.0764422
v 0.0369353 0.0789816 0.0950286
v -0.0318756 0.0301787 0.0967075
v -0.0432664 0.00852551 0.0520973
v -0.0439038 0.00241423 0.0966491
v -0.0440346 -0.00161988 0.0520737
v 0.00836649 -0.0431501 0.0966078
v 0.0800194 0.0363091 0.0781461
v 0.0547645 0.0679226 0.079098
v 0.0651406 0.0591061 0.0815885
v 0.0547974 0.0692776 0.082413
v 0.0670451 0.0562408 0.0915286
v 0.0586818 0.0656704 0.0883482
v 0.0393553 0.0810966 0.0893722
v 0.0353473 0.0798511 0.0793869
v -0.0344728 0.0275318 0.0521082
v -0.03657 0.0244655 0.0965583
v -0.0400378 0.0184774 0.0520948
v -0.0433575 -0.00663927 0.0968222
v 0.0399858 0.0811873 0.0857673
v -0.0400852 0.0177375 0.0969035
v 0.037848 0.0811307 0.0825676
v 0.0798357 0.0386275 0.0777566
f 1 2 3
f 4 5 6
f 7 8 1
f 9 10 11
f 9 11 12
f 11 13 12
f 14 13 11
f 15 16 17
f 18 19 20
f 1 8 21
f 21 8 22
f 23 24 11
f 24 25 26
f 23 11 10
f 27 23 28
f 3 29 30
f 31 32 33
f 6 34 35
f 6 36 37
f 36 6 38
f 5 38 6
f 39 4 6
f 40 4 41
f 41 42 43
f 40 5 4
f 38 5 44
f 45 43 25
f 43 46 25
f 42 46 43
f 47 48 49
f 9 12 50
f 1 3 30
f 2 23 3
f 25 46 26
f 2 24 23
f 51 15 17
f 32 31 52
f 32 52 53
f 54 53 55
f 56 57 58
f 17 16 59
f 59 60 17
f 22 61 21
f 37 62 6
f 63 34 64
f 39 6 65
f 21 66 67
f 66 68 37
f 66 21 68
f 38 69 36
f 9 47 28
f 30 7 1
f 70 71 72
f 73 72 60
f 19 74 75
f 75 20 19
f 28 23 10
f 23 29 3
f 76 77 78
f 33 32 59
f 32 79 59
f 80 60 59
f 81 57 56
f 20 75 81
f 20 81 30
f 30 81 56
f 54 30 56
f 55 82 54
f 61 83 84
f 61 84 21
f 62 34 6
f 85 84 83
f 34 63 35
f 85 64 34
f 35 65 6
f 44 69 38
f 67 69 44
f 68 62 37
f 41 43 86
f 41 86 40
f 40 44 5
f 47 50 48
f 49 18 27
f 50 71 70
f 23 27 29
f 51 87 13
f 71 12 87
f 50 12 71
f 17 87 51
f 88 89 73
f 88 90 89
f 19 91 92
f 11 24 26
f 49 27 47
f 57 93 58
f 54 94 53
f 56 94 54
f 56 58 94
f 30 54 7
f 95 82 55
f 95 96 82
f 97 96 95
f 98 62 68
f 66 37 67
f 69 37 36
f 37 69 67
f 45 40 86
f 24 45 25
f 44 45 67
f 2 45 24
f 67 45 21
f 45 44 40
f 14 46 42
f 26 46 14
f 9 50 47
f 9 28 10
f 29 18 20
f 87 12 13
f 89 72 73
f 72 89 70
f 91 49 48
f 20 30 29
f 80 79 73
f 73 79 88
f 88 79 78
f 88 78 90
f 77 90 78
f 19 92 74
f 99 74 92
f 99 92 90
f 90 77 99
f 61 22 100
f 27 28 47
f 53 94 32
f 94 76 32
f 76 101 77
f 101 94 58
f 59 79 80
f 96 97 100
f 98 34 62
f 98 68 21
f 84 98 21
f 49 91 18
f 19 18 91
f 27 18 29
f 90 92 89
f 70 48 50
f 48 92 91
f 89 48 70
f 32 76 78
f 74 99 93
f 82 96 8
f 100 22 96
f 8 96 22
f 101 58 93
f 79 32 78
f 87 17 71
f 17 102 71
f 60 102 17
f 81 75 57
f 74 57 75
f 93 57 74
f 54 8 7
f 43 45 86
f 93 99 101
f 101 99 77
f 76 94 101
f 60 80 73
f 82 8 54
f 100 97 61
f 83 61 97
f 89 92 48
f 11 26 14
f 60 72 102
f 71 102 72
f 98 84 85
f 34 98 85
f 31 33 65
f 13 14 65
f 59 16 65
f 15 65 16
f 42 41 65
f 63 64 65
f 55 53 65
f 95 55 65
f 85 65 64
f 4 65 41
f 14 42 65
f 31 65 52
f 59 65 33
f 83 65 85
f 39 65 4
f 51 65 15
f 52 65 53
f 97 95 65
f 63 65 35
f 51 13 65
f 83 97 65
f 1 45 2
f 21 45 1
