v 0.089241 0.077453 -0.010631
v 0.08921 0.077316 -0.009482
v 0.089221 0.077282 -0.009486
v 0.089317 0.077429 -0.0118
v 0.089274 0.077567 -0.011782
v 0.089301 0.07734 -0.011132
v 0.08929 0.077282 -0.010651
v 0.089264 0.077144 -0.0095
v 0.088512 0.078234 -0.01171
v 0.088486 0.078093 -0.010569
v 0.088608 0.078054 -0.010571
v 0.08878 0.077981 -0.010576
v 0.088658 0.078188 -0.011713
v 0.088633 0.078195 -0.011712
v 0.08904 0.077949 -0.011736
v 0.088961 0.078029 -0.011727
v 0.088932 0.07788 -0.010585
v 0.088797 0.07813 -0.011717
v 0.088754 0.078157 -0.011714
v 0.089114 0.077875 -0.011744
v 0.089045 0.077775 -0.010595
v 0.089138 0.077835 -0.011749
v 0.089158 0.077624 -0.010611
v 0.089263 0.077601 -0.011778
v 0.089243 0.077666 -0.011769
v 0.089179 0.07777 -0.011757
v 0.08846 0.077951 -0.009427
v 0.08858 0.077913 -0.009429
v 0.088605 0.077905 -0.00943
v 0.088874 0.077767 -0.009439
v 0.088745 0.077847 -0.009433
v 0.088702 0.077874 -0.009431
v 0.088908 0.077746 -0.009441
v 0.088987 0.077666 -0.009448
v 0.089041 0.077612 -0.009453
v 0.089061 0.077592 -0.009455
v 0.089086 0.077552 -0.009459
v 0.089126 0.077486 -0.009465
v 0.08919 0.077382 -0.009475
v 0.088366 0.077962 -0.00937
v 0.088354 0.077966 -0.009381
v 0.088237 0.077964 -0.009283
v 0.087647 0.077854 -0.009455
v 0.08761 0.077825 -0.009459
v 0.087616 0.077812 -0.009328
v 0.087549 0.077778 -0.009465
v 0.087452 0.077704 -0.009475
v 0.087496 0.077718 -0.009323
v 0.08741 0.07765 -0.009482
v 0.087387 0.077622 -0.009486
v 0.087392 0.077606 -0.009323
v 0.088746 0.077756 -0.009104
v 0.088653 0.077841 -0.00919
v 0.088536 0.077853 -0.009101
v 0.088213 0.077744 -0.008825
v 0.088353 0.077716 -0.00881
v 0.088362 0.077763 -0.008869
v 0.088493 0.077692 -0.008826
v 0.088861 0.077129 -0.008712
v 0.088852 0.077269 -0.008741
v 0.088685 0.077288 -0.008637
v 0.089211 0.077269 -0.009324
v 0.089245 0.077128 -0.009328
v 0.089257 0.077134 -0.009399
v 0.089166 0.077259 -0.009164
v 0.089192 0.077119 -0.009161
v 0.089241 0.077126 -0.009304
v 0.088988 0.077258 -0.008868
v 0.089112 0.077114 -0.008984
v 0.089092 0.077256 -0.009011
v 0.089163 0.077115 -0.009078
v 0.088903 0.077124 -0.00874
v 0.088966 0.077119 -0.008798
v 0.089004 0.077118 -0.008847
v 0.088493 0.077316 -0.008569
v 0.088596 0.077161 -0.00856
v 0.088704 0.077146 -0.008607
v 0.08826 0.077217 -0.008505
v 0.088295 0.07721 -0.008502
v 0.088285 0.077352 -0.008546
v 0.088374 0.077196 -0.008508
v 0.08848 0.077179 -0.008532
v 0.088218 0.077225 -0.008508
v 0.088078 0.077393 -0.008569
v 0.088056 0.077257 -0.008522
v 0.087951 0.077279 -0.008551
v 0.087889 0.077436 -0.008637
v 0.087841 0.077306 -0.008603
v 0.087749 0.077328 -0.008648
v 0.087727 0.077478 -0.00874
v 0.087668 0.077349 -0.008705
v 0.087666 0.07735 -0.008708
v 0.087596 0.077516 -0.008867
v 0.087504 0.077399 -0.008871
v 0.087446 0.077419 -0.008953
v 0.087498 0.077551 -0.00901
v 0.087426 0.077428 -0.008997
v 0.08743 0.077581 -0.009164
v 0.087347 0.077461 -0.009167
v 0.087321 0.077478 -0.009264
v 0.087314 0.077486 -0.009328
v 0.087298 0.077509 -0.0095
v 0.089076 0.077542 -0.009328
v 0.089154 0.077411 -0.009324
v 0.088583 0.077772 -0.00898
v 0.088623 0.077673 -0.008871
v 0.088736 0.07766 -0.008941
v 0.088551 0.077906 -0.009283
v 0.088392 0.077927 -0.00921
v 0.088383 0.077877 -0.009066
v 0.088864 0.077595 -0.008993
v 0.088828 0.077653 -0.009028
v 0.088481 0.077787 -0.008944
v 0.08837 0.077806 -0.008932
v 0.088723 0.077841 -0.009306
v 0.088843 0.077756 -0.009265
v 0.088949 0.077653 -0.009229
v 0.088997 0.077595 -0.009214
v 0.088442 0.07795 -0.009381
v 0.088437 0.07795 -0.009376
v 0.088427 0.077951 -0.009368
v 0.088416 0.077952 -0.009363
v 0.088405 0.077954 -0.00936
v 0.087774 0.077871 -0.009229
v 0.087846 0.077942 -0.009441
v 0.087748 0.077888 -0.009337
v 0.087743 0.077897 -0.009448
v 0.087885 0.07795 -0.009439
v 0.087911 0.077929 -0.009264
v 0.088025 0.077977 -0.009434
v 0.088053 0.077965 -0.009306
v 0.088035 0.077979 -0.009433
v 0.08782 0.077851 -0.009124
v 0.088121 0.077814 -0.008924
v 0.088085 0.077773 -0.008871
v 0.087975 0.077801 -0.008941
v 0.087887 0.077827 -0.009027
v 0.088 0.077894 -0.009104
v 0.088186 0.077983 -0.00943
v 0.088085 0.077988 -0.009431
v 0.088118 0.07794 -0.00919
v 0.088158 0.077851 -0.00898
v 0.088231 0.077909 -0.009101
v 0.088345 0.077969 -0.009395
v 0.088339 0.077972 -0.00941
v 0.088212 0.077981 -0.009429
v 0.088338 0.077974 -0.009427
v 0.089045 0.077398 -0.009038
v 0.08898 0.077531 -0.009077
v 0.08895 0.077401 -0.008908
v 0.088897 0.077533 -0.008962
v 0.088826 0.077411 -0.008792
v 0.088787 0.077542 -0.008859
v 0.088674 0.077428 -0.008698
v 0.088653 0.077557 -0.008776
v 0.088499 0.077453 -0.008636
v 0.088499 0.07758 -0.008722
v 0.08831 0.077486 -0.008615
v 0.088333 0.077608 -0.008704
v 0.088122 0.077523 -0.008636
v 0.088167 0.077641 -0.008722
v 0.08795 0.077562 -0.008697
v 0.088015 0.077675 -0.008776
v 0.087802 0.0776 -0.008791
v 0.087885 0.077709 -0.008859
v 0.087682 0.077636 -0.008908
v 0.08778 0.07774 -0.008961
v 0.087593 0.077667 -0.009038
v 0.087701 0.077768 -0.009076
v 0.087531 0.077695 -0.009178
v 0.087647 0.077792 -0.0092
v 0.088459 0.077951 -0.009419
v 0.088455 0.077949 -0.009402
v 0.088447 0.077949 -0.009388
v 0.08904 0.077534 -0.0092
v 0.089113 0.077402 -0.009178
v 0.088398 0.077955 -0.00936
v 0.08839 0.077957 -0.00936
v 0.088378 0.077959 -0.009363
v 0.08743 0.077789 -0.010631
v 0.087463 0.077935 -0.011778
v 0.08744 0.077907 -0.011782
v 0.087312 0.077585 -0.01017
v 0.087323 0.077647 -0.010651
v 0.087351 0.077794 -0.0118
v 0.088364 0.078115 -0.010569
v 0.088237 0.078123 -0.010571
v 0.088049 0.078116 -0.010576
v 0.087871 0.078077 -0.010585
v 0.087729 0.078019 -0.010595
v 0.087569 0.077919 -0.010611
v 0.08814 0.078271 -0.011714
v 0.088238 0.078266 -0.011713
v 0.088264 0.078264 -0.011712
v 0.08839 0.078257 -0.01171
v 0.088087 0.078261 -0.011717
v 0.087898 0.078226 -0.011727
v 0.087796 0.07818 -0.011736
v 0.0877 0.078137 -0.011744
v 0.087663 0.078109 -0.011749
v 0.087602 0.078063 -0.011757
v 0.087542 0.078017 -0.011764
v 0.087508 0.077991 -0.011769
v 0.089214 0.07773 -0.011903
v 0.089273 0.077592 -0.011934
v 0.08829 0.078275 -0.012045
v 0.088174 0.078283 -0.011952
v 0.088292 0.078283 -0.011855
v 0.087891 0.078184 -0.012184
v 0.087945 0.078215 -0.01214
v 0.088035 0.078211 -0.012229
v 0.087492 0.077944 -0.012086
v 0.087375 0.077817 -0.011994
v 0.08745 0.07793 -0.011934
v 0.087369 0.077814 -0.011962
v 0.087359 0.077808 -0.011907
v 0.087657 0.077955 -0.012375
v 0.087507 0.077839 -0.012319
v 0.08756 0.077953 -0.012234
v 0.087454 0.077835 -0.012224
v 0.087419 0.077827 -0.012121
v 0.087907 0.077817 -0.012686
v 0.088137 0.077847 -0.012735
v 0.087922 0.077816 -0.012696
v 0.088011 0.077805 -0.012735
v 0.088335 0.077754 -0.012799
v 0.088317 0.077757 -0.012798
v 0.08837 0.077808 -0.012765
v 0.088236 0.077771 -0.012791
v 0.088121 0.077788 -0.012763
v 0.088602 0.077761 -0.012735
v 0.088564 0.077708 -0.012777
v 0.088359 0.077749 -0.012797
v 0.088805 0.07765 -0.012682
v 0.088663 0.077686 -0.01275
v 0.088597 0.077701 -0.012768
v 0.088949 0.077611 -0.012595
v 0.08887 0.077634 -0.012651
v 0.088964 0.077731 -0.012506
v 0.088803 0.077777 -0.012616
v 0.088977 0.077602 -0.012567
v 0.089089 0.077689 -0.012375
v 0.089113 0.077557 -0.01243
v 0.089172 0.077534 -0.012346
v 0.089179 0.077652 -0.012234
v 0.089203 0.077519 -0.012278
v 0.089239 0.07762 -0.012086
v 0.089269 0.077486 -0.012134
v 0.089295 0.077467 -0.012037
v 0.089302 0.077455 -0.011961
v 0.088058 0.07826 -0.012048
v 0.088218 0.078249 -0.012177
v 0.088148 0.078201 -0.012303
v 0.088283 0.078183 -0.012355
v 0.088586 0.078127 -0.012355
v 0.088435 0.078157 -0.012374
v 0.088446 0.078215 -0.012233
v 0.088326 0.078235 -0.012218
v 0.088452 0.078251 -0.012085
v 0.088455 0.078264 -0.011933
v 0.087768 0.078176 -0.011968
v 0.087833 0.078208 -0.011943
v 0.087968 0.078255 -0.01189
v 0.088109 0.078279 -0.011837
v 0.088413 0.07826 -0.011764
v 0.088423 0.078259 -0.011772
v 0.088434 0.078258 -0.011778
v 0.088447 0.078256 -0.011781
v 0.088906 0.078081 -0.01189
v 0.089015 0.077989 -0.011943
v 0.088974 0.078011 -0.012044
v 0.088824 0.078118 -0.012048
v 0.088719 0.078095 -0.012303
v 0.08867 0.078165 -0.012177
v 0.088828 0.078064 -0.012228
v 0.088913 0.078036 -0.01214
v 0.088783 0.078154 -0.011837
v 0.088724 0.078182 -0.011952
v 0.088613 0.078215 -0.012045
v 0.088614 0.078224 -0.011855
v 0.088485 0.078248 -0.011771
v 0.088497 0.078244 -0.011758
v 0.088505 0.07824 -0.011745
v 0.088511 0.078237 -0.011729
v 0.088565 0.078191 -0.012218
v 0.089136 0.077857 -0.011871
v 0.089109 0.077879 -0.011993
v 0.088605 0.077824 -0.012693
v 0.088382 0.07787 -0.012721
v 0.088157 0.077907 -0.012693
v 0.087956 0.077934 -0.012617
v 0.087721 0.077834 -0.012565
v 0.087788 0.077949 -0.012506
v 0.087653 0.077838 -0.012502
v 0.087593 0.077838 -0.012427
v 0.087554 0.078038 -0.011903
v 0.087592 0.07805 -0.012042
v 0.087648 0.078097 -0.012018
v 0.087654 0.078058 -0.012177
v 0.087761 0.078146 -0.012113
v 0.087743 0.07806 -0.012306
v 0.087839 0.078147 -0.012227
v 0.087862 0.078055 -0.012425
v 0.087945 0.078143 -0.012332
v 0.088015 0.078041 -0.012525
v 0.088079 0.078131 -0.01242
v 0.088198 0.078017 -0.012595
v 0.08824 0.078109 -0.012482
v 0.088403 0.077982 -0.012621
v 0.088421 0.078079 -0.012504
v 0.088606 0.077941 -0.012595
v 0.088599 0.078043 -0.012482
v 0.088786 0.077898 -0.012525
v 0.088758 0.078005 -0.01242
v 0.088933 0.077856 -0.012425
v 0.088888 0.077968 -0.012331
v 0.089046 0.077818 -0.012306
v 0.088987 0.077935 -0.012227
v 0.089129 0.077785 -0.012177
v 0.08906 0.077905 -0.012113
v 0.089184 0.077755 -0.012041
v 0.088394 0.078259 -0.011732
v 0.088401 0.07826 -0.011749
v 0.088408 0.07826 -0.011758
v 0.08839 0.078257 -0.011714
v 0.087707 0.078139 -0.011994
v 0.088453 0.078255 -0.011781
v 0.088461 0.078254 -0.011781
v 0.088473 0.078251 -0.011777
v 0.089241 0.077453 0.010631
v 0.089263 0.077601 0.011778
v 0.089274 0.077567 0.011782
v 0.089264 0.077144 0.0095
v 0.089221 0.077282 0.009486
v 0.089278 0.077221 0.01017
v 0.08929 0.077282 0.010651
v 0.089317 0.077429 0.0118
v 0.08858 0.077913 0.009429
v 0.08846 0.077951 0.009427
v 0.088608 0.078054 0.010571
v 0.088486 0.078093 0.010569
v 0.088605 0.077905 0.00943
v 0.08878 0.077981 0.010576
v 0.088702 0.077874 0.009431
v 0.088932 0.07788 0.010585
v 0.088874 0.077767 0.009439
v 0.088745 0.077847 0.009433
v 0.089045 0.077775 0.010595
v 0.088987 0.077666 0.009448
v 0.088908 0.077746 0.009441
v 0.089158 0.077624 0.010611
v 0.089086 0.077552 0.009459
v 0.089061 0.077592 0.009455
v 0.08921 0.077316 0.009482
v 0.08919 0.077382 0.009475
v 0.089126 0.077486 0.009465
v 0.088754 0.078157 0.011714
v 0.088658 0.078188 0.011713
v 0.088633 0.078195 0.011712
v 0.088512 0.078234 0.01171
v 0.088797 0.07813 0.011717
v 0.088927 0.07805 0.011725
v 0.08896 0.078029 0.011727
v 0.088961 0.078029 0.011727
v 0.08904 0.077949 0.011736
v 0.089114 0.077875 0.011744
v 0.089138 0.077835 0.011749
v 0.089178 0.077771 0.011757
v 0.089179 0.07777 0.011757
v 0.089218 0.077706 0.011764
v 0.089243 0.077666 0.011769
v 0.088421 0.07826 0.011771
v 0.088408 0.07826 0.011758
v 0.088292 0.078283 0.011855
v 0.089064 0.077936 0.011968
v 0.089109 0.077879 0.011993
v 0.087602 0.078062 0.011757
v 0.087505 0.077988 0.011769
v 0.087554 0.078038 0.011903
v 0.087462 0.077935 0.011778
v 0.08744 0.077907 0.011782
v 0.08745 0.07793 0.011934
v 0.088613 0.078215 0.012045
v 0.088724 0.078181 0.011952
v 0.088614 0.078224 0.011854
v 0.089239 0.07762 0.012085
v 0.089303 0.07746 0.011995
v 0.089273 0.077592 0.011934
v 0.089307 0.077454 0.011962
v 0.089314 0.077445 0.011907
v 0.089089 0.077689 0.012375
v 0.089188 0.077527 0.012319
v 0.089179 0.077652 0.012233
v 0.089235 0.077505 0.012224
v 0.089266 0.077485 0.012121
v 0.088595 0.0777 0.012763
v 0.088703 0.077677 0.012736
v 0.088602 0.077761 0.012736
v 0.088792 0.077654 0.012696
v 0.088806 0.07765 0.012687
v 0.088481 0.077726 0.012792
v 0.088369 0.077808 0.012765
v 0.088384 0.077745 0.0128
v 0.088136 0.077847 0.012736
v 0.088153 0.077784 0.012778
v 0.088317 0.077756 0.012793
v 0.087906 0.077817 0.012683
v 0.088054 0.077799 0.012751
v 0.088119 0.077789 0.012769
v 0.087842 0.077824 0.012653
v 0.087954 0.077934 0.012617
v 0.087758 0.077832 0.012595
v 0.087787 0.077949 0.012506
v 0.087729 0.077833 0.012568
v 0.087657 0.077955 0.012376
v 0.087587 0.07784 0.012431
v 0.087524 0.07784 0.012347
v 0.087559 0.077953 0.012234
v 0.087489 0.077836 0.012278
v 0.087491 0.077944 0.012085
v 0.087415 0.077829 0.012134
v 0.087384 0.077821 0.012037
v 0.087374 0.077813 0.011961
v 0.087351 0.077794 0.0118
v 0.088828 0.078064 0.012229
v 0.088952 0.077987 0.012184
v 0.088913 0.078036 0.01214
v 0.089015 0.077989 0.011942
v 0.088906 0.078081 0.01189
v 0.088824 0.078118 0.012047
v 0.088434 0.078158 0.012374
v 0.088586 0.078127 0.012355
v 0.088565 0.078191 0.012219
v 0.08867 0.078165 0.012178
v 0.088783 0.078154 0.011837
v 0.088483 0.078248 0.011772
v 0.088472 0.078251 0.011778
v 0.088455 0.078264 0.011934
v 0.088493 0.078245 0.011764
v 0.088452 0.078251 0.012085
v 0.088445 0.078215 0.012234
v 0.088283 0.078183 0.012355
v 0.087968 0.078255 0.01189
v 0.087832 0.078208 0.011942
v 0.087879 0.078214 0.012044
v 0.088058 0.078261 0.012048
v 0.088147 0.078201 0.012303
v 0.088217 0.078249 0.012177
v 0.088034 0.078211 0.012229
v 0.087945 0.078215 0.01214
v 0.088087 0.078262 0.011717
v 0.088109 0.078279 0.011837
v 0.088137 0.078271 0.011714
v 0.088174 0.078283 0.011952
v 0.088289 0.078275 0.012045
v 0.088238 0.078265 0.011713
v 0.088399 0.07826 0.011745
v 0.088393 0.078259 0.011729
v 0.088264 0.078264 0.011712
v 0.08839 0.078257 0.01171
v 0.088078 0.07826 0.011718
v 0.088325 0.078235 0.012219
v 0.087663 0.078109 0.011749
v 0.087673 0.078128 0.011871
v 0.0877 0.078137 0.011744
v 0.087706 0.078139 0.011993
v 0.087796 0.07818 0.011736
v 0.088156 0.077907 0.012694
v 0.088381 0.07787 0.012722
v 0.088605 0.077824 0.012694
v 0.088802 0.077777 0.012617
v 0.088986 0.0776 0.012565
v 0.088964 0.077731 0.012506
v 0.089051 0.077579 0.012503
v 0.089107 0.077558 0.012427
v 0.089214 0.07773 0.011903
v 0.089184 0.077755 0.012041
v 0.089148 0.077819 0.012018
v 0.089129 0.077785 0.012176
v 0.08906 0.077905 0.012112
v 0.089047 0.077818 0.012305
v 0.088988 0.077935 0.012226
v 0.088933 0.077856 0.012425
v 0.088887 0.077968 0.012331
v 0.088786 0.077898 0.012526
v 0.088758 0.078005 0.012421
v 0.088606 0.077941 0.012596
v 0.088599 0.078043 0.012482
v 0.088402 0.077983 0.012621
v 0.08842 0.078079 0.012505
v 0.088197 0.078017 0.012596
v 0.08824 0.07811 0.012482
v 0.088013 0.078041 0.012526
v 0.088078 0.078131 0.01242
v 0.087861 0.078055 0.012425
v 0.087944 0.078143 0.012332
v 0.087742 0.07806 0.012306
v 0.087839 0.078148 0.012227
v 0.087653 0.078058 0.012177
v 0.087761 0.078146 0.012113
v 0.087591 0.07805 0.012041
v 0.08851 0.078238 0.011732
v 0.088504 0.078241 0.011749
v 0.088497 0.078244 0.011758
v 0.088513 0.078235 0.011713
v 0.088719 0.078095 0.012304
v 0.088459 0.078254 0.011781
v 0.088445 0.078257 0.011781
v 0.088432 0.078258 0.011777
v 0.087898 0.078226 0.011727
v 0.08743 0.077789 0.010631
v 0.08741 0.07765 0.009482
v 0.087388 0.077622 0.009486
v 0.087334 0.077705 0.011132
v 0.087323 0.077647 0.010651
v 0.087298 0.077509 0.0095
v 0.088237 0.078123 0.010571
v 0.088364 0.078115 0.010569
v 0.088049 0.078116 0.010576
v 0.087871 0.078077 0.010585
v 0.087729 0.078019 0.010595
v 0.087569 0.077919 0.010611
v 0.088338 0.077974 0.009427
v 0.088212 0.077981 0.009429
v 0.088186 0.077983 0.00943
v 0.088088 0.077989 0.009431
v 0.088035 0.077978 0.009433
v 0.087846 0.077942 0.009441
v 0.087743 0.077897 0.009448
v 0.087674 0.077866 0.009453
v 0.087647 0.077854 0.009455
v 0.08761 0.077825 0.009459
v 0.087549 0.077779 0.009465
v 0.087455 0.077707 0.009475
v 0.08843 0.07795 0.00937
v 0.088442 0.077949 0.009381
v 0.088551 0.077906 0.009283
v 0.089076 0.077542 0.009328
v 0.089154 0.077411 0.009323
v 0.089211 0.077269 0.009323
v 0.088843 0.077756 0.009264
v 0.088747 0.077756 0.009104
v 0.088653 0.077841 0.00919
v 0.088723 0.077841 0.009306
v 0.088 0.077894 0.009104
v 0.088118 0.07794 0.00919
v 0.088231 0.077909 0.009101
v 0.088494 0.077692 0.008825
v 0.088353 0.077716 0.00881
v 0.088362 0.077763 0.008869
v 0.088214 0.077744 0.008826
v 0.087669 0.07735 0.008712
v 0.087727 0.077478 0.008741
v 0.08789 0.077436 0.008637
v 0.087392 0.077606 0.009324
v 0.08731 0.077487 0.009328
v 0.087301 0.077497 0.009399
v 0.087431 0.077581 0.009164
v 0.087356 0.077459 0.009161
v 0.087313 0.077484 0.009305
v 0.087596 0.077516 0.008868
v 0.087429 0.077425 0.008984
v 0.087498 0.077551 0.009011
v 0.087381 0.077445 0.009078
v 0.087628 0.077361 0.00874
v 0.087567 0.077379 0.008798
v 0.087531 0.077391 0.008847
v 0.088079 0.077393 0.00857
v 0.087927 0.077285 0.00856
v 0.087821 0.07731 0.008607
v 0.088226 0.077223 0.008502
v 0.088218 0.077224 0.008502
v 0.088286 0.077352 0.008546
v 0.088147 0.077238 0.008508
v 0.088042 0.07726 0.008533
v 0.088261 0.077217 0.008505
v 0.088494 0.077316 0.008569
v 0.088466 0.077181 0.008522
v 0.088572 0.077164 0.008551
v 0.088686 0.077288 0.008637
v 0.088684 0.077149 0.008603
v 0.088778 0.077137 0.008648
v 0.088852 0.077269 0.00874
v 0.088861 0.077128 0.008705
v 0.088864 0.077128 0.008708
v 0.088988 0.077258 0.008867
v 0.089033 0.077115 0.008871
v 0.089093 0.077114 0.008953
v 0.089092 0.077255 0.00901
v 0.089115 0.077114 0.008997
v 0.089166 0.077259 0.009164
v 0.089201 0.077118 0.009167
v 0.089232 0.077123 0.009264
v 0.089241 0.077129 0.009328
v 0.087616 0.077813 0.009328
v 0.087496 0.077718 0.009324
v 0.088158 0.077851 0.00898
v 0.088086 0.077772 0.008871
v 0.087976 0.077801 0.008941
v 0.088237 0.077964 0.009283
v 0.088392 0.077927 0.00921
v 0.088383 0.077877 0.009066
v 0.087833 0.077786 0.008993
v 0.087887 0.077827 0.009027
v 0.088259 0.077828 0.008944
v 0.08837 0.077806 0.008932
v 0.088053 0.077965 0.009306
v 0.087911 0.077929 0.009265
v 0.087774 0.077871 0.009229
v 0.087709 0.077834 0.009214
v 0.088358 0.077964 0.009376
v 0.088368 0.077962 0.009368
v 0.088379 0.077959 0.009363
v 0.08839 0.077957 0.00936
v 0.088605 0.077725 0.008924
v 0.088623 0.077673 0.008871
v 0.088736 0.07766 0.008941
v 0.088828 0.077653 0.009027
v 0.088899 0.077651 0.009124
v 0.088949 0.077653 0.009229
v 0.08898 0.07766 0.009337
v 0.088584 0.077772 0.00898
v 0.088536 0.077852 0.009101
v 0.088452 0.077949 0.009395
v 0.088458 0.07795 0.00941
v 0.087593 0.077667 0.009038
v 0.087701 0.077768 0.009077
v 0.087683 0.077636 0.008908
v 0.08778 0.07774 0.008962
v 0.087802 0.0776 0.008792
v 0.087886 0.077709 0.008859
v 0.08795 0.077562 0.008698
v 0.088016 0.077675 0.008776
v 0.088122 0.077523 0.008636
v 0.088168 0.077641 0.008722
v 0.088311 0.077486 0.008615
v 0.088333 0.077608 0.008704
v 0.0885 0.077453 0.008636
v 0.0885 0.077579 0.008722
v 0.088675 0.077428 0.008697
v 0.088654 0.077557 0.008776
v 0.088827 0.07741 0.008792
v 0.088788 0.077542 0.008859
v 0.088951 0.077401 0.008908
v 0.088897 0.077533 0.008961
v 0.089045 0.077398 0.009038
v 0.08898 0.077531 0.009076
v 0.089113 0.077402 0.009178
v 0.08904 0.077534 0.009199
v 0.088338 0.077973 0.009419
v 0.088342 0.077971 0.009402
v 0.088349 0.077968 0.009388
v 0.088354 0.077966 0.009381
v 0.087647 0.077792 0.0092
v 0.087532 0.077695 0.009178
v 0.088398 0.077955 0.00936
v 0.088405 0.077954 0.00936
v 0.088418 0.077952 0.009363
v 0.09996 0.076005 -0.000503
v 0.09996 0.075999 -0.000518
v 0.09881 0.07606 -0.000519
v 0.097669 0.076245 -6.2e-05
v 0.098817 0.076178 -6.2e-05
v 0.098816 0.076165 -0.000164
v 0.098814 0.076128 -0.000349
v 0.097667 0.076225 -0.000213
v 0.097668 0.076232 -0.000163
v 0.097661 0.076138 -0.000503
v 0.097665 0.076194 -0.000361
v 0.097666 0.076212 -0.000314
v 0.09766 0.076124 -0.00054
v 0.097655 0.07606 -0.000633
v 0.098805 0.075966 -0.000669
v 0.097651 0.076 -0.000719
v 0.097648 0.075965 -0.00075
v 0.098797 0.075838 -0.000807
v 0.097644 0.075908 -0.000802
v 0.097638 0.075816 -0.000884
v 0.098788 0.07569 -0.000917
v 0.097634 0.075762 -0.000912
v 0.097631 0.075723 -0.000933
v 0.098779 0.075528 -0.001
v 0.097622 0.075595 -0.001
v 0.099965 0.076111 -6.2e-05
v 0.099965 0.076098 -0.000163
v 0.099964 0.076092 -0.000213
v 0.099964 0.076079 -0.000314
v 0.099963 0.07606 -0.000361
v 0.09996 0.07599 -0.00054
v 0.099957 0.075926 -0.000633
v 0.099954 0.075866 -0.000719
v 0.099953 0.075831 -0.00075
v 0.09995 0.075774 -0.000801
v 0.099946 0.075683 -0.000884
v 0.099948 0.075718 -0.000852
v 0.09995 0.075774 -0.000802
v 0.099936 0.075461 -0.001
v 0.099942 0.07559 -0.000933
v 0.099944 0.075628 -0.000912
v 0.100184 0.075875 -0.000659
v 0.1002 0.075823 -0.000713
v 0.099951 0.075782 0.000795
v 0.099946 0.075683 0.000884
v 0.100088 0.075715 0.000844
v 0.100295 0.07605 -0.000165
v 0.100201 0.076054 -0.00028
v 0.100109 0.076093 -0.000164
v 0.100249 0.07558 -0.000889
v 0.100135 0.075452 -0.00098
v 0.100096 0.075586 -0.000927
v 0.1001 0.075454 -0.000986
v 0.100044 0.075457 -0.000994
v 0.100541 0.075567 -0.000728
v 0.100459 0.075438 -0.000856
v 0.100398 0.075573 -0.000824
v 0.100365 0.075442 -0.000905
v 0.10026 0.075447 -0.00094
v 0.100831 0.075422 -0.000458
v 0.100892 0.075483 -0.000238
v 0.100841 0.075421 -0.000444
v 0.100881 0.07542 -0.000352
v 0.100945 0.075417 -2.6e-05
v 0.100944 0.075417 -3.2e-05
v 0.100922 0.075482 -1e-06
v 0.100937 0.075417 -0.000125
v 0.100908 0.075418 -0.000243
v 0.100893 0.075483 0.000236
v 0.100923 0.075418 0.000208
v 0.100943 0.075417 -1e-06
v 0.100827 0.075422 0.000457
v 0.100896 0.075419 0.000308
v 0.100914 0.075418 0.000242
v 0.100739 0.075426 0.000606
v 0.100797 0.075423 0.000522
v 0.100673 0.075561 0.000598
v 0.100785 0.075556 0.000431
v 0.100711 0.075427 0.000635
v 0.100542 0.075567 0.000728
v 0.100573 0.075433 0.000776
v 0.100488 0.075437 0.000837
v 0.100398 0.075573 0.000824
v 0.100419 0.07544 0.000872
v 0.100249 0.07558 0.000889
v 0.100274 0.075446 0.000942
v 0.100096 0.075586 0.000927
v 0.099942 0.07559 0.000933
v 0.099937 0.07548 0.00099
v 0.100175 0.075451 0.000972
v 0.100099 0.075454 0.000981
v 0.099936 0.075461 0.001
v 0.100456 0.075909 -0.000404
v 0.100402 0.075865 -0.00054
v 0.100366 0.075913 -0.000492
v 0.100583 0.075903 0.000153
v 0.100602 0.075903 -1e-06
v 0.100475 0.075986 -0
v 0.100459 0.075986 -0.000122
v 0.100336 0.076048 -0
v 0.100189 0.07609 -0
v 0.100167 0.075922 -0.000602
v 0.100128 0.076001 -0.000477
v 0.100287 0.075994 -0.00039
v 0.100583 0.075903 -0.000155
v 0.100418 0.075988 -0.00023
v 0.100085 0.07606 -0.000343
v 0.100019 0.076109 -4.1e-05
v 0.100028 0.076109 -3e-05
v 0.100034 0.076108 -1.9e-05
v 0.100037 0.076108 -6e-06
v 0.100128 0.076001 0.000477
v 0.100166 0.075922 0.000602
v 0.100269 0.075917 0.000557
v 0.100287 0.075994 0.00039
v 0.100531 0.075906 0.000291
v 0.100418 0.075988 0.00023
v 0.100456 0.075909 0.000404
v 0.100366 0.075913 0.000492
v 0.099963 0.07606 0.000361
v 0.100085 0.07606 0.000343
v 0.099964 0.076079 0.000314
v 0.100201 0.076054 0.00028
v 0.100295 0.07605 0.000165
v 0.100109 0.076093 0.000164
v 0.099964 0.076092 0.000213
v 0.100026 0.076109 3.3e-05
v 0.100014 0.076109 4.5e-05
v 0.100001 0.07611 5.4e-05
v 0.099984 0.076111 6e-05
v 0.099964 0.076094 0.000196
v 0.099965 0.076111 6.2e-05
v 0.099963 0.076054 0.000378
v 0.10046 0.075986 0.000121
v 0.099953 0.075831 0.00075
v 0.100077 0.075829 0.000744
v 0.099954 0.075866 0.000719
v 0.1002 0.075823 0.000713
v 0.099957 0.075926 0.000633
v 0.100863 0.075553 0.000227
v 0.100891 0.075551 -1e-06
v 0.100862 0.075553 -0.00023
v 0.100785 0.075556 -0.000432
v 0.100708 0.075427 -0.000644
v 0.100673 0.075561 -0.000598
v 0.100645 0.07543 -0.000712
v 0.100569 0.075433 -0.00077
v 0.100088 0.075715 -0.000844
v 0.100228 0.075708 -0.00081
v 0.100215 0.075768 -0.000763
v 0.100364 0.075702 -0.00075
v 0.100321 0.075818 -0.000661
v 0.100495 0.075697 -0.000663
v 0.100436 0.075813 -0.000584
v 0.100615 0.075691 -0.000545
v 0.100542 0.075808 -0.000479
v 0.100717 0.075687 -0.000393
v 0.100631 0.075804 -0.000346
v 0.100787 0.075684 -0.000209
v 0.100693 0.075802 -0.000184
v 0.100813 0.075683 -1e-06
v 0.100716 0.075801 -1e-06
v 0.100787 0.075684 0.000207
v 0.100693 0.075802 0.000182
v 0.100716 0.075687 0.000393
v 0.100631 0.075804 0.000346
v 0.100615 0.075691 0.000545
v 0.100542 0.075808 0.00048
v 0.100495 0.075697 0.000663
v 0.100436 0.075813 0.000584
v 0.100364 0.075702 0.00075
v 0.100321 0.075818 0.000661
v 0.100227 0.075708 0.00081
v 0.099988 0.07611 -5.9e-05
v 0.100004 0.07611 -5.2e-05
v 0.100014 0.076109 -4.5e-05
v 0.099969 0.076111 -6.2e-05
v 0.100531 0.075906 -0.000291
v 0.100037 0.076108 -0
v 0.100037 0.076108 8e-06
v 0.100033 0.076108 2.1e-05
v 0.09996 0.07599 0.00054
v 0.09878 0.075541 0.000992
v 0.098779 0.075528 0.001
v 0.098817 0.076178 6.2e-05
v 0.098816 0.076161 0.000197
v 0.098813 0.076118 0.00038
v 0.098809 0.076046 0.000547
v 0.098805 0.075972 0.000661
v 0.098798 0.075846 0.0008
v 0.098789 0.075698 0.000912
v 0.097666 0.076213 0.00031
v 0.097667 0.076226 0.000213
v 0.097667 0.076228 0.000196
v 0.097669 0.076245 6.2e-05
v 0.097665 0.076194 0.000361
v 0.09766 0.076124 0.00054
v 0.097655 0.07606 0.000633
v 0.097652 0.076016 0.000695
v 0.097651 0.076 0.000719
v 0.097648 0.075965 0.00075
v 0.097622 0.075595 0.001
v 0.097623 0.075614 0.00099
v 0.097631 0.075723 0.000932
v 0.097638 0.075819 0.000882
v 0.097645 0.075915 0.000795
v 0.09761 0.076249 -3.3e-05
v 0.097622 0.076248 -4.5e-05
v 0.097521 0.076244 -0.00016
v 0.097518 0.075977 -0.000743
v 0.097493 0.075865 -0.000843
v 0.097469 0.075739 -0.000925
v 0.097486 0.076154 -0.000474
v 0.097325 0.076166 -0.00038
v 0.097422 0.076216 -0.000272
v 0.097538 0.076207 -0.000341
v 0.097325 0.076166 0.00038
v 0.097422 0.076216 0.000273
v 0.097332 0.076222 0.000156
v 0.097031 0.076109 -0.000141
v 0.097015 0.07611 1e-06
v 0.097082 0.076147 1e-06
v 0.097031 0.076109 0.000144
v 0.096831 0.075652 0.000608
v 0.096884 0.075781 0.000573
v 0.09678 0.075788 0.000406
v 0.097469 0.075739 0.000926
v 0.09745 0.075608 0.000984
v 0.09752 0.075603 0.000995
v 0.09731 0.07575 0.000883
v 0.097282 0.07562 0.000934
v 0.097422 0.07561 0.00098
v 0.097012 0.075771 0.000709
v 0.097104 0.075632 0.000857
v 0.097156 0.075761 0.000812
v 0.097196 0.075626 0.000906
v 0.096859 0.07565 0.000649
v 0.096917 0.075646 0.000712
v 0.096966 0.075642 0.00075
v 0.096712 0.075793 0.000213
v 0.096677 0.075663 0.000341
v 0.096725 0.075659 0.000451
v 0.096622 0.075667 2e-06
v 0.09662 0.075667 3.4e-05
v 0.096689 0.075795 2e-06
v 0.096626 0.075667 0.000118
v 0.09665 0.075665 0.000225
v 0.096625 0.075667 -3.2e-05
v 0.096712 0.075793 -0.00021
v 0.09664 0.075666 -0.000209
v 0.096669 0.075663 -0.000315
v 0.09678 0.075788 -0.000404
v 0.096722 0.07566 -0.000427
v 0.096768 0.075656 -0.000524
v 0.096884 0.075781 -0.000572
v 0.096824 0.075652 -0.000606
v 0.096827 0.075652 -0.000609
v 0.097012 0.075771 -0.000708
v 0.096991 0.07564 -0.000777
v 0.097074 0.075634 -0.000838
v 0.097156 0.075761 -0.000811
v 0.097118 0.075631 -0.000859
v 0.09731 0.07575 -0.000883
v 0.097287 0.075619 -0.000943
v 0.097385 0.075612 -0.000972
v 0.09745 0.075608 -0.000979
v 0.097493 0.075865 0.000843
v 0.097518 0.075977 0.000743
v 0.097201 0.076175 0.000217
v 0.097077 0.076106 0.000274
v 0.097147 0.076101 0.000387
v 0.097521 0.076244 0.00016
v 0.097448 0.076249 0
v 0.097297 0.076225 1e-06
v 0.097191 0.076052 0.000525
v 0.097234 0.076095 0.000479
v 0.097164 0.076177 0.000114
v 0.097152 0.076178 1e-06
v 0.097539 0.076207 0.000341
v 0.097487 0.076154 0.000474
v 0.097437 0.07608 0.000598
v 0.097413 0.076036 0.000655
v 0.097617 0.076248 4e-05
v 0.097609 0.076249 3e-05
v 0.097603 0.076249 1.9e-05
v 0.097601 0.07625 7e-06
v 0.097138 0.076143 -0.000245
v 0.097077 0.076106 -0.000273
v 0.097147 0.076101 -0.000387
v 0.097234 0.076095 -0.000479
v 0.097332 0.076088 -0.000549
v 0.097436 0.07608 -0.000598
v 0.097545 0.076072 -0.000627
v 0.097201 0.076175 -0.000216
v 0.097332 0.076222 -0.000155
v 0.097636 0.076247 -5.5e-05
v 0.097651 0.076246 -6e-05
v 0.097207 0.075886 0.000739
v 0.097266 0.075995 0.000651
v 0.097076 0.075895 0.000645
v 0.09715 0.076004 0.000568
v 0.096959 0.075903 0.000522
v 0.097047 0.076011 0.00046
v 0.096864 0.07591 0.00037
v 0.096964 0.076017 0.000325
v 0.096802 0.075915 0.000194
v 0.096909 0.076021 0.00017
v 0.096781 0.075916 2e-06
v 0.096891 0.076022 1e-06
v 0.096802 0.075915 -0.000191
v 0.096909 0.076021 -0.000168
v 0.096864 0.07591 -0.000368
v 0.096964 0.076017 -0.000324
v 0.096959 0.075903 -0.000521
v 0.097047 0.076011 -0.000459
v 0.097075 0.075895 -0.000645
v 0.09715 0.076004 -0.000568
v 0.097207 0.075886 -0.000739
v 0.097266 0.075995 -0.000651
v 0.097347 0.075875 -0.000804
v 0.09739 0.075986 -0.000708
v 0.09766 0.076245 6.2e-05
v 0.097643 0.076247 5.8e-05
v 0.097629 0.076248 5e-05
v 0.097622 0.076248 4.5e-05
v 0.09739 0.075986 0.000709
v 0.097347 0.075875 0.000805
v 0.097601 0.07625 0
v 0.097601 0.07625 -7e-06
v 0.097604 0.076249 -2e-05
v 0.076937 0.080379 -6.2e-05
v 0.078033 0.08003 -6.2e-05
v 0.078029 0.080018 -0.000164
v 0.078018 0.079983 -0.000349
v 0.076931 0.080361 -0.000213
v 0.076933 0.080367 -0.000163
v 0.076879 0.080203 -0.000633
v 0.076899 0.080264 -0.00054
v 0.077998 0.079918 -0.000519
v 0.076921 0.080331 -0.000361
v 0.076927 0.080349 -0.000314
v 0.07686 0.080147 -0.000719
v 0.077969 0.079828 -0.000669
v 0.076849 0.080113 -0.00075
v 0.07793 0.079705 -0.000807
v 0.07683 0.080059 -0.000802
v 0.076802 0.079972 -0.000884
v 0.077885 0.079564 -0.000917
v 0.076784 0.07992 -0.000912
v 0.076772 0.079884 -0.000933
v 0.077836 0.07941 -0.001
v 0.076731 0.079762 -0.001
v 0.07912 0.07965 -0.000314
v 0.079124 0.079662 -0.000212
v 0.079126 0.079668 -0.000163
v 0.079129 0.079681 -6.2e-05
v 0.079115 0.079633 -0.000359
v 0.079099 0.079579 -0.000501
v 0.079097 0.079573 -0.000518
v 0.079094 0.079565 -0.00054
v 0.079076 0.079505 -0.00063
v 0.079063 0.079464 -0.000692
v 0.079058 0.079446 -0.000719
v 0.079049 0.079415 -0.000747
v 0.079031 0.079357 -0.000802
v 0.079004 0.07927 -0.000884
v 0.07894 0.079058 -0.001
v 0.078979 0.079186 -0.00093
v 0.078989 0.079218 -0.000912
v 0.079185 0.079664 3.3e-05
v 0.079174 0.079667 4.5e-05
v 0.079266 0.079627 0.000159
v 0.079033 0.079365 0.000795
v 0.079004 0.07927 0.000884
v 0.079159 0.079267 0.00084
v 0.079267 0.079532 -0.000472
v 0.079237 0.0796 -0.000339
v 0.079349 0.079566 -0.000271
v 0.079675 0.079328 0.000142
v 0.07969 0.079324 0
v 0.07964 0.079382 0
v 0.079674 0.079329 -0.000142
v 0.079701 0.078827 -0.000606
v 0.079696 0.078972 -0.00057
v 0.079803 0.078795 -0.000446
v 0.079795 0.078942 -0.000403
v 0.07986 0.078922 -0.000211
v 0.079848 0.078782 -0.000337
v 0.079809 0.078794 -0.000431
v 0.079883 0.078915 0
v 0.0799 0.078766 -0
v 0.079903 0.078765 -3.2e-05
v 0.079903 0.078765 -3.3e-05
v 0.079897 0.078767 -0.000112
v 0.079873 0.078774 -0.000223
v 0.079883 0.078771 0.000211
v 0.079861 0.078922 0.000211
v 0.07988 0.078772 0.000225
v 0.079854 0.07878 0.000323
v 0.079796 0.078941 0.000404
v 0.079806 0.078795 0.000429
v 0.079759 0.078809 0.000529
v 0.079697 0.078972 0.000571
v 0.07971 0.078824 0.000604
v 0.079575 0.079009 0.000706
v 0.079573 0.078866 0.000752
v 0.079549 0.078873 0.000777
v 0.079438 0.07905 0.000809
v 0.079464 0.078898 0.000841
v 0.07929 0.079095 0.000881
v 0.07927 0.078957 0.00094
v 0.079263 0.07896 0.000944
v 0.079136 0.079142 0.000923
v 0.079171 0.078987 0.000972
v 0.079289 0.079096 -0.00088
v 0.079268 0.078958 -0.000934
v 0.079135 0.078998 -0.00098
v 0.079676 0.078834 -0.000645
v 0.079619 0.078852 -0.00071
v 0.079574 0.079009 -0.000705
v 0.079571 0.078866 -0.000749
v 0.079437 0.079051 -0.000808
v 0.079438 0.078906 -0.000856
v 0.079352 0.078933 -0.000905
v 0.079175 0.07938 -0.000739
v 0.079506 0.079332 -0.000522
v 0.079294 0.079396 -0.000652
v 0.079481 0.079387 -0.000476
v 0.079287 0.079446 -0.000595
v 0.079421 0.079486 -0.000377
v 0.079159 0.079267 -0.00084
v 0.079136 0.079142 -0.000922
v 0.079106 0.079007 -0.000983
v 0.07954 0.07945 -0.000215
v 0.079631 0.079342 -0.000272
v 0.079564 0.079362 -0.000385
v 0.079336 0.079606 -0
v 0.079468 0.07953 0
v 0.079434 0.07954 -0.000154
v 0.079574 0.079439 -0.000112
v 0.079586 0.079435 0
v 0.079266 0.079627 -0.000159
v 0.079175 0.079667 -4.5e-05
v 0.079185 0.079664 -3.3e-05
v 0.079191 0.079662 -2.1e-05
v 0.079194 0.079661 -8e-06
v 0.079238 0.0796 0.000339
v 0.079115 0.079633 0.00036
v 0.079113 0.079626 0.000377
v 0.079268 0.079532 0.000472
v 0.079288 0.079446 0.000595
v 0.079389 0.079415 0.000547
v 0.079588 0.079397 0.000245
v 0.079631 0.079342 0.000272
v 0.079564 0.079362 0.000385
v 0.079482 0.079387 0.000477
v 0.079422 0.079485 0.000378
v 0.079124 0.079662 0.000212
v 0.07912 0.07965 0.000314
v 0.079349 0.079566 0.000271
v 0.07954 0.079449 0.000216
v 0.079435 0.07954 0.000154
v 0.079161 0.079671 5.5e-05
v 0.079146 0.079676 6e-05
v 0.079124 0.079664 0.000196
v 0.079129 0.079681 6.2e-05
v 0.078979 0.079186 0.00093
v 0.078946 0.079076 0.00099
v 0.079106 0.079007 0.00098
v 0.07894 0.079058 0.001
v 0.079049 0.079415 0.000747
v 0.079175 0.07938 0.00074
v 0.079058 0.079446 0.000719
v 0.079299 0.079343 0.000706
v 0.079076 0.079505 0.00063
v 0.079433 0.079184 -0.000736
v 0.079417 0.079307 -0.000648
v 0.079558 0.079146 -0.000642
v 0.079527 0.079273 -0.000565
v 0.07967 0.079112 -0.000519
v 0.079625 0.079243 -0.000456
v 0.07976 0.079085 -0.000367
v 0.079704 0.079219 -0.000323
v 0.079819 0.079067 -0.000192
v 0.079756 0.079204 -0.000169
v 0.079839 0.079061 0
v 0.079774 0.079198 0
v 0.07982 0.079067 0.000192
v 0.079757 0.079203 0.000169
v 0.079761 0.079085 0.000368
v 0.079705 0.079219 0.000323
v 0.07967 0.079112 0.000519
v 0.079626 0.079243 0.000457
v 0.079559 0.079146 0.000643
v 0.079528 0.079273 0.000566
v 0.079434 0.079184 0.000737
v 0.079418 0.079306 0.000648
v 0.079299 0.079225 0.000802
v 0.079145 0.079676 -6e-05
v 0.07916 0.079671 -5.5e-05
v 0.079174 0.079667 -4.5e-05
v 0.079298 0.079343 -0.000705
v 0.079298 0.079225 -0.000801
v 0.079194 0.079661 -0
v 0.079194 0.079661 7e-06
v 0.079191 0.079662 2.1e-05
v 0.079094 0.079565 0.00054
v 0.07784 0.079422 0.000992
v 0.077836 0.07941 0.001
v 0.078028 0.080014 0.000197
v 0.078033 0.08003 6.2e-05
v 0.078015 0.079973 0.00038
v 0.077993 0.079904 0.000547
v 0.077971 0.079834 0.000661
v 0.077932 0.079713 0.0008
v 0.077887 0.079572 0.000912
v 0.076937 0.080379 6.2e-05
v 0.076932 0.080363 0.000196
v 0.076931 0.080361 0.000213
v 0.076899 0.080264 0.00054
v 0.076921 0.080331 0.000361
v 0.076927 0.080349 0.00031
v 0.076879 0.080203 0.000633
v 0.07686 0.080147 0.000719
v 0.076849 0.080113 0.00075
v 0.076833 0.080066 0.000795
v 0.076831 0.08006 0.000801
v 0.076813 0.080006 0.000852
v 0.076731 0.079762 0.001
v 0.076738 0.07978 0.00099
v 0.076772 0.079884 0.000932
v 0.076802 0.079975 0.000882
v 0.07668 0.080053 -0.000844
v 0.076627 0.079936 -0.000927
v 0.076608 0.08044 0.000165
v 0.076697 0.08041 0.00028
v 0.076797 0.080414 0.000164
v 0.076442 0.080306 0.00054
v 0.076493 0.080338 0.000493
v 0.076408 0.080366 0.000404
v 0.076627 0.079936 0.000927
v 0.076483 0.079984 0.000889
v 0.076543 0.079825 0.000981
v 0.076577 0.079814 0.000986
v 0.076628 0.079796 0.000994
v 0.076205 0.080077 0.000729
v 0.076235 0.079928 0.000855
v 0.076341 0.080032 0.000824
v 0.076324 0.079898 0.000905
v 0.076425 0.079864 0.00094
v 0.075809 0.08007 0.000243
v 0.075835 0.080062 0.000352
v 0.075847 0.080125 0.000238
v 0.075873 0.080049 0.000443
v 0.075882 0.080046 0.000459
v 0.075781 0.08008 0.000124
v 0.075819 0.080134 1e-06
v 0.075774 0.080082 2.5e-05
v 0.075846 0.080125 -0.000236
v 0.075795 0.080075 -0.000209
v 0.075779 0.08008 -3.2e-05
v 0.075886 0.080045 -0.000457
v 0.07582 0.080066 -0.000309
v 0.075803 0.080072 -0.000242
v 0.075914 0.080035 -0.000522
v 0.075973 0.080155 -0.000431
v 0.075969 0.080017 -0.000606
v 0.076079 0.080119 -0.000598
v 0.075996 0.080008 -0.000635
v 0.076204 0.080077 -0.000728
v 0.076127 0.079964 -0.000776
v 0.076208 0.079937 -0.000838
v 0.07634 0.080032 -0.000824
v 0.076273 0.079915 -0.000872
v 0.076482 0.079984 -0.000889
v 0.076411 0.079869 -0.000943
v 0.076505 0.079838 -0.000972
v 0.076577 0.079814 -0.000981
v 0.076595 0.080385 0.00039
v 0.076471 0.080427 0.00023
v 0.076336 0.08039 0.000291
v 0.076286 0.080407 0.000155
v 0.076286 0.080407 -0.000153
v 0.076268 0.080413 1e-06
v 0.076417 0.080444 1e-06
v 0.076431 0.08044 0.000122
v 0.076569 0.080453 0
v 0.076721 0.080439 0
v 0.076649 0.080237 0.000659
v 0.076682 0.080274 0.000602
v 0.076746 0.080335 0.000477
v 0.076807 0.080374 0.000343
v 0.076886 0.080397 4.1e-05
v 0.076878 0.080399 3e-05
v 0.076872 0.080401 1.9e-05
v 0.076869 0.080402 6e-06
v 0.076746 0.080335 -0.000477
v 0.076682 0.080274 -0.000602
v 0.076584 0.080307 -0.000557
v 0.076595 0.080385 -0.00039
v 0.076335 0.08039 -0.000291
v 0.07647 0.080427 -0.00023
v 0.076407 0.080366 -0.000404
v 0.076492 0.080338 -0.000492
v 0.076807 0.080374 -0.000343
v 0.076697 0.080411 -0.00028
v 0.076608 0.08044 -0.000165
v 0.076797 0.080414 -0.000164
v 0.076879 0.080399 -3.3e-05
v 0.076891 0.080395 -4.5e-05
v 0.076904 0.080391 -5.4e-05
v 0.076919 0.080385 -6e-05
v 0.076431 0.08044 -0.000121
v 0.076732 0.080156 -0.000744
v 0.076615 0.080195 -0.000713
v 0.0759 0.080179 -0.000227
v 0.075873 0.080188 1e-06
v 0.0759 0.080179 0.00023
v 0.075973 0.080154 0.000432
v 0.075998 0.080007 0.000643
v 0.07608 0.080119 0.000599
v 0.076058 0.079987 0.000712
v 0.076131 0.079963 0.000771
v 0.076681 0.080053 0.000844
v 0.076548 0.080097 0.00081
v 0.076582 0.080148 0.000764
v 0.076419 0.08014 0.000751
v 0.076501 0.080233 0.000661
v 0.076295 0.080182 0.000664
v 0.076392 0.080269 0.000585
v 0.076181 0.08022 0.000545
v 0.076291 0.080303 0.00048
v 0.076084 0.080252 0.000393
v 0.076206 0.080331 0.000346
v 0.076017 0.080274 0.000209
v 0.076147 0.080351 0.000184
v 0.075992 0.080283 1e-06
v 0.076125 0.080358 1e-06
v 0.076017 0.080275 -0.000207
v 0.076147 0.080351 -0.000182
v 0.076084 0.080252 -0.000393
v 0.076206 0.080331 -0.000346
v 0.07618 0.08022 -0.000545
v 0.076291 0.080303 -0.00048
v 0.076294 0.080182 -0.000663
v 0.076391 0.080269 -0.000584
v 0.076418 0.08014 -0.00075
v 0.0765 0.080233 -0.000661
v 0.076548 0.080097 -0.00081
v 0.076916 0.080386 5.9e-05
v 0.0769 0.080392 5.2e-05
v 0.076891 0.080395 4.5e-05
v 0.076934 0.08038 6.2e-05
v 0.076615 0.080194 0.000713
v 0.07687 0.080402 0
v 0.07687 0.080402 -8e-06
v 0.076873 0.080401 -2.1e-05
v 0.088924 0.076673 0.00181
v 0.088291 0.076769 0.000425
v 0.088734 0.076706 0.001758
v 0.086936 0.077168 0.00483
v 0.088208 0.076933 0.005
v 0.088054 0.076813 0.000486
v 0.088196 0.076787 0.000524
v 0.085773 0.077271 -1.1e-05
v 0.085504 0.077329 6.5e-05
v 0.085856 0.077253 0.000137
v 0.086092 0.07721 0.001105
v 0.086107 0.077201 -1.1e-05
v 0.085933 0.077254 0.001719
v 0.08395 0.077722 0.0025
v 0.084732 0.077577 0.003536
v 0.08575 0.077388 0.00433
v 0.085368 0.077362 -0.000729
v 0.086216 0.077185 -0.001229
v 0.087092 0.077016 -0.001757
v 0.087603 0.076923 -0.002057
v 0.086776 0.077061 0.000137
v 0.086815 0.077054 -1.1e-05
v 0.086704 0.077076 -0.000363
v 0.087235 0.076984 -0.001602
v 0.083459 0.077813 0.001294
v 0.085343 0.077367 0.00068
v 0.083292 0.077844 0
v 0.083293 0.077843 -1.1e-05
v 0.083459 0.077813 -0.001294
v 0.08395 0.077722 -0.0025
v 0.084732 0.077577 -0.003536
v 0.088196 0.076785 -1.1e-05
v 0.088223 0.07693 -0.004998
v 0.088208 0.076933 -0.005
v 0.087311 0.076994 -0.002577
v 0.086936 0.077168 -0.00483
v 0.08575 0.077388 -0.00433
v 0.087955 0.076831 -1.1e-05
v 0.0889 0.076661 -1.1e-05
v 0.089519 0.076552 -0.000453
v 0.08948 0.076697 -0.00483
v 0.091684 0.076288 -0.003536
v 0.090666 0.076477 -0.00433
v 0.090652 0.076372 -0.00087
v 0.089683 0.076524 -0.000305
v 0.089402 0.076576 -1.1e-05
v 0.090446 0.0764 -9.8e-05
v 0.089296 0.076634 0.002738
v 0.090666 0.076477 0.00433
v 0.091684 0.076288 0.003536
v 0.092957 0.076052 0.001294
v 0.093124 0.076021 0
v 0.093123 0.076022 -1.1e-05
v 0.092957 0.076052 -0.001294
v 0.092466 0.076143 -0.0025
v 0.08948 0.076697 0.00483
v 0.088534 0.076762 0.002531
v 0.088223 0.07693 0.004998
v 0.088414 0.076746 0.000337
v 0.088199 0.076787 0.000525
v 0.092466 0.076143 0.0025
v 0.088196 0.076787 0.00052
v 0.087999 0.076822 8.6e-05
v 0.088407 0.077959 -0.009404
v 0.088483 0.078245 -0.011745
v 0.088399 0.078258 -0.011734
v 0.088346 0.07797 -0.009404
v 0.088443 0.07825 0.011734
v 0.08839 0.077962 0.009404
v 0.097645 0.076246 9e-06
v 0.100001 0.07611 3.1e-05
v 0.099989 0.07611 -5.4e-05
v 0.076914 0.080387 5.4e-05
v 0.079152 0.079674 5.3e-05
v 0.076903 0.080391 -3.1e-05
f 1323 1324 1325
f 1375 1317 1377
f 1347 1353 1378
f 329 1380 281
f 1380 282 281
f 9 284 1380
f 284 283 1380
f 1380 283 282
f 323 322 1381
f 322 325 1381
f 1381 325 195
f 1381 324 323
f 1382 147 145
f 145 144 1382
f 144 41 1382
f 120 119 1379
f 119 174 1379
f 174 173 1379
f 173 172 1379
f 1379 172 27
f 329 328 1380
f 328 327 1380
f 41 40 1379
f 1379 40 179
f 179 178 1379
f 178 177 1379
f 1379 177 123
f 123 122 1379
f 122 121 1379
f 1379 121 120
f 439 504 1383
f 373 1383 457
f 508 507 1383
f 373 372 1383
f 372 509 1383
f 1383 509 508
f 507 437 1383
f 437 436 1383
f 1383 436 439
f 460 458 1383
f 1383 458 457
f 339 625 1384
f 625 624 1384
f 1384 624 536
f 505 360 1383
f 504 503 1383
f 503 502 1383
f 1383 502 505
f 611 653 1384
f 653 652 1384
f 652 651 1384
f 651 650 1384
f 1384 650 523
f 536 535 1384
f 1384 535 658
f 658 657 1384
f 657 656 1384
f 1384 656 614
f 614 613 1384
f 613 612 1384
f 1384 612 611
f 662 955 1385
f 955 954 1385
f 954 866 1385
f 787 786 1386
f 786 785 1386
f 1386 785 839
f 790 788 1386
f 1386 788 787
f 839 838 1386
f 838 837 1386
f 832 835 1387
f 835 684 1387
f 834 833 1387
f 1387 833 832
f 987 986 1385
f 866 865 1385
f 865 988 1385
f 1385 988 987
f 986 944 1385
f 944 943 1385
f 1385 943 942
f 942 941 1385
f 941 983 1385
f 1385 983 982
f 982 981 1385
f 981 980 1385
f 1385 980 853
f 1309 1308 1388
f 1308 1311 1388
f 1311 1175 1388
f 1124 1122 1389
f 1389 1122 1121
f 1388 1310 1309
f 1158 1157 1159
f 1157 1014 1159
f 1267 1315 1390
f 1315 1314 1390
f 1390 1314 1313
f 1270 1269 1390
f 1269 1268 1390
f 1390 1268 1267
f 1390 989 1270
f 1 2 3
f 4 5 6
f 5 1 6
f 6 1 7
f 1 3 7
f 7 3 8
f 9 10 11
f 12 13 11
f 13 14 11
f 11 14 9
f 15 16 17
f 16 18 17
f 17 18 12
f 18 19 12
f 12 19 13
f 20 21 22
f 21 23 22
f 5 24 1
f 24 25 1
f 1 25 23
f 25 26 23
f 23 26 22
f 10 27 28
f 10 28 11
f 28 29 11
f 11 29 12
f 30 17 31
f 17 12 31
f 31 12 32
f 12 29 32
f 30 33 17
f 33 21 17
f 17 21 15
f 21 20 15
f 33 34 21
f 21 34 35
f 35 36 21
f 36 37 21
f 21 37 23
f 37 38 23
f 23 38 1
f 38 39 1
f 1 39 2
f 40 41 42
f 43 44 45
f 46 47 48
f 49 50 51
f 52 53 54
f 55 56 57
f 56 58 57
f 59 60 61
f 62 63 64
f 65 66 67
f 68 69 70
f 69 71 70
f 59 72 60
f 72 73 60
f 60 73 68
f 73 74 68
f 68 74 69
f 75 76 61
f 76 77 61
f 61 77 59
f 78 79 80
f 79 81 80
f 80 81 75
f 81 82 75
f 75 82 76
f 78 80 83
f 80 84 83
f 83 84 85
f 85 84 86
f 84 87 86
f 86 87 88
f 88 87 89
f 87 90 89
f 89 90 91
f 91 90 92
f 90 93 92
f 92 93 94
f 94 93 95
f 93 96 95
f 95 96 97
f 96 98 97
f 97 98 99
f 99 98 100
f 98 51 100
f 100 51 101
f 51 50 101
f 101 50 102
f 103 37 36
f 37 103 38
f 103 104 38
f 38 104 39
f 39 104 2
f 104 62 2
f 2 62 3
f 62 64 3
f 3 64 8
f 105 106 107
f 53 108 54
f 108 109 54
f 54 109 110
f 111 112 107
f 112 52 107
f 107 52 105
f 52 54 105
f 105 54 113
f 54 110 113
f 113 110 114
f 115 53 116
f 53 52 116
f 116 52 117
f 52 112 117
f 117 112 118
f 112 111 118
f 29 108 32
f 108 53 32
f 32 53 31
f 53 115 31
f 31 115 30
f 115 116 30
f 30 116 33
f 116 117 33
f 117 34 33
f 119 120 108
f 120 121 108
f 108 121 109
f 121 122 109
f 109 122 123
f 124 125 126
f 125 127 126
f 128 129 130
f 129 131 130
f 130 131 132
f 133 129 124
f 129 128 124
f 124 128 125
f 134 135 55
f 135 134 136
f 136 134 137
f 134 138 137
f 137 138 133
f 139 140 141
f 133 138 129
f 138 141 129
f 129 141 131
f 141 140 131
f 131 140 132
f 55 57 134
f 57 142 134
f 134 142 138
f 142 143 138
f 138 143 141
f 143 42 141
f 141 42 139
f 41 144 42
f 42 144 139
f 144 145 139
f 139 145 146
f 145 147 146
f 148 149 150
f 149 151 150
f 150 151 152
f 151 153 152
f 152 153 154
f 153 155 154
f 154 155 156
f 155 157 156
f 156 157 158
f 157 159 158
f 158 159 160
f 159 161 160
f 160 161 162
f 161 163 162
f 162 163 164
f 163 165 164
f 164 165 166
f 165 167 166
f 166 167 168
f 167 169 168
f 168 169 170
f 169 171 170
f 170 171 48
f 171 45 48
f 48 45 46
f 45 44 46
f 70 148 68
f 148 150 68
f 68 150 60
f 150 152 60
f 60 152 61
f 152 154 61
f 61 154 75
f 154 156 75
f 75 156 80
f 156 158 80
f 80 158 84
f 158 160 84
f 84 160 87
f 160 162 87
f 87 162 90
f 162 164 90
f 90 164 93
f 164 166 93
f 93 166 96
f 166 168 96
f 96 168 98
f 168 170 98
f 98 170 51
f 170 48 51
f 51 48 49
f 48 47 49
f 28 27 172
f 28 172 29
f 172 173 29
f 29 173 108
f 173 174 108
f 108 174 119
f 34 117 35
f 117 118 35
f 35 118 36
f 118 175 36
f 36 175 103
f 175 176 103
f 103 176 104
f 176 65 104
f 104 65 62
f 65 67 62
f 62 67 63
f 123 177 109
f 177 178 109
f 109 178 179
f 106 105 58
f 105 113 58
f 58 113 57
f 113 114 57
f 57 114 142
f 114 110 142
f 142 110 143
f 110 109 143
f 143 109 42
f 109 179 42
f 42 179 40
f 127 43 126
f 43 45 126
f 126 45 124
f 45 171 124
f 124 171 133
f 171 169 133
f 133 169 137
f 169 167 137
f 137 167 136
f 167 165 136
f 136 165 135
f 165 163 135
f 135 163 55
f 163 161 55
f 55 161 56
f 161 159 56
f 56 159 58
f 159 157 58
f 58 157 106
f 157 155 106
f 106 155 107
f 155 153 107
f 107 153 111
f 153 151 111
f 111 151 118
f 151 149 118
f 118 149 175
f 149 148 175
f 175 148 176
f 148 70 176
f 176 70 65
f 70 71 65
f 65 71 66
f 180 181 182
f 102 50 183
f 50 180 183
f 183 180 184
f 180 182 184
f 184 182 185
f 147 186 187
f 128 130 188
f 130 132 188
f 132 140 188
f 140 139 188
f 188 139 187
f 139 146 187
f 187 146 147
f 125 189 127
f 189 190 127
f 191 44 190
f 44 43 190
f 190 43 127
f 50 49 180
f 49 47 180
f 180 47 191
f 47 46 191
f 191 46 44
f 192 188 193
f 188 187 193
f 193 187 194
f 187 186 194
f 194 186 195
f 192 196 188
f 196 189 188
f 188 189 128
f 189 125 128
f 196 197 189
f 197 198 189
f 189 198 190
f 198 199 190
f 190 199 191
f 199 200 191
f 191 200 201
f 201 202 191
f 191 202 180
f 202 203 180
f 180 203 181
f 26 25 204
f 24 5 205
f 206 207 208
f 209 210 211
f 212 213 214
f 213 215 214
f 214 215 216
f 217 218 219
f 218 220 219
f 219 220 212
f 220 221 212
f 212 221 213
f 222 223 224
f 223 225 224
f 226 227 228
f 227 229 228
f 228 229 223
f 229 230 223
f 223 230 225
f 231 232 228
f 232 233 228
f 228 233 226
f 234 235 231
f 235 236 231
f 231 236 232
f 237 238 239
f 238 240 239
f 237 239 241
f 239 242 241
f 241 242 243
f 243 242 244
f 242 245 244
f 244 245 246
f 245 247 246
f 246 247 248
f 248 247 249
f 247 205 249
f 249 205 250
f 205 5 250
f 250 5 4
f 181 214 182
f 214 216 182
f 182 216 185
f 210 251 211
f 251 252 211
f 211 252 253
f 252 254 253
f 255 256 257
f 256 258 257
f 257 258 259
f 258 206 259
f 259 206 260
f 206 208 260
f 209 261 210
f 261 262 210
f 210 262 251
f 262 263 251
f 256 254 258
f 254 252 258
f 258 252 206
f 252 251 206
f 206 251 207
f 251 263 207
f 207 263 264
f 208 265 266
f 208 266 260
f 266 267 260
f 260 267 268
f 269 270 271
f 269 271 272
f 273 274 275
f 274 272 275
f 275 272 276
f 272 271 276
f 277 278 19
f 279 280 278
f 280 13 278
f 278 13 19
f 281 282 280
f 282 283 280
f 280 283 13
f 283 284 13
f 13 284 14
f 284 9 14
f 277 269 278
f 269 272 278
f 278 272 279
f 272 274 279
f 279 274 285
f 274 273 285
f 285 273 255
f 22 286 20
f 286 287 20
f 20 287 15
f 238 234 240
f 234 231 240
f 240 231 288
f 231 228 288
f 288 228 289
f 228 223 289
f 289 223 290
f 223 222 290
f 290 222 291
f 222 292 291
f 291 292 293
f 292 294 293
f 293 294 217
f 294 295 217
f 217 295 218
f 203 202 296
f 202 201 296
f 296 201 297
f 201 298 297
f 297 298 299
f 298 300 299
f 299 300 301
f 300 302 301
f 301 302 303
f 302 304 303
f 303 304 305
f 304 306 305
f 305 306 307
f 306 308 307
f 307 308 309
f 308 310 309
f 309 310 311
f 310 312 311
f 311 312 313
f 312 314 313
f 313 314 315
f 314 316 315
f 315 316 317
f 316 318 317
f 317 318 319
f 318 320 319
f 319 320 321
f 320 287 321
f 321 287 204
f 287 286 204
f 204 286 26
f 286 22 26
f 181 203 214
f 203 296 214
f 214 296 212
f 296 297 212
f 212 297 219
f 297 299 219
f 219 299 217
f 299 301 217
f 217 301 293
f 301 303 293
f 293 303 291
f 303 305 291
f 291 305 290
f 305 307 290
f 290 307 289
f 307 309 289
f 289 309 288
f 309 311 288
f 288 311 240
f 311 313 240
f 240 313 239
f 313 315 239
f 239 315 242
f 315 317 242
f 242 317 245
f 317 319 245
f 245 319 247
f 319 321 247
f 247 321 205
f 321 204 205
f 205 204 24
f 204 25 24
f 322 323 208
f 323 324 208
f 208 324 265
f 195 325 194
f 325 193 194
f 325 322 193
f 322 208 193
f 193 208 192
f 208 207 192
f 192 207 196
f 207 264 196
f 196 264 197
f 264 263 197
f 197 263 198
f 263 262 198
f 198 262 199
f 262 261 199
f 199 261 200
f 261 326 200
f 200 326 201
f 268 327 260
f 327 328 260
f 260 328 329
f 255 257 285
f 257 259 285
f 285 259 279
f 259 260 279
f 279 260 280
f 260 329 280
f 280 329 281
f 201 326 298
f 298 326 300
f 326 261 300
f 300 261 302
f 261 209 302
f 302 209 304
f 209 211 304
f 304 211 306
f 211 253 306
f 306 253 308
f 253 254 308
f 308 254 310
f 254 256 310
f 310 256 312
f 256 255 312
f 312 255 314
f 255 273 314
f 314 273 316
f 273 275 316
f 316 275 318
f 275 276 318
f 318 276 320
f 276 271 320
f 320 271 287
f 271 270 287
f 287 270 15
f 270 269 15
f 15 269 16
f 269 277 16
f 16 277 18
f 277 19 18
f 330 331 332
f 333 334 335
f 334 330 335
f 335 330 336
f 330 332 336
f 336 332 337
f 338 339 340
f 339 341 340
f 338 340 342
f 340 343 342
f 342 343 344
f 345 346 343
f 346 347 343
f 343 347 344
f 348 349 345
f 349 350 345
f 345 350 346
f 351 352 348
f 352 353 348
f 348 353 349
f 334 354 330
f 354 355 330
f 330 355 351
f 355 356 351
f 351 356 352
f 357 343 358
f 343 340 358
f 358 340 359
f 340 341 359
f 359 341 360
f 357 361 343
f 361 362 343
f 343 362 345
f 362 363 345
f 345 363 348
f 363 364 348
f 364 365 348
f 365 366 348
f 348 366 351
f 366 367 351
f 351 367 368
f 368 369 351
f 369 370 351
f 351 370 330
f 370 371 330
f 330 371 331
f 372 373 374
f 375 376 367
f 377 378 379
f 380 381 382
f 383 384 385
f 367 376 368
f 386 387 388
f 387 389 388
f 388 389 390
f 391 392 393
f 392 394 393
f 393 394 386
f 394 395 386
f 386 395 387
f 396 397 398
f 397 399 398
f 398 399 400
f 396 398 401
f 398 402 401
f 401 402 403
f 404 405 402
f 405 406 402
f 402 406 403
f 407 408 404
f 408 409 404
f 404 409 405
f 410 411 412
f 411 413 412
f 412 413 414
f 413 415 414
f 414 415 416
f 416 415 417
f 415 418 417
f 417 418 419
f 418 420 419
f 419 420 421
f 421 420 422
f 420 382 422
f 422 382 423
f 382 381 423
f 423 381 424
f 425 426 427
f 426 375 427
f 331 388 332
f 388 390 332
f 332 390 337
f 428 429 430
f 431 432 433
f 432 434 433
f 433 434 383
f 434 430 383
f 383 430 384
f 430 429 384
f 384 429 435
f 436 437 438
f 439 436 385
f 436 438 385
f 385 438 383
f 438 440 383
f 383 440 433
f 440 441 433
f 433 441 431
f 441 442 431
f 443 444 445
f 443 445 446
f 447 448 449
f 448 446 449
f 449 446 450
f 446 445 450
f 451 452 453
f 452 454 453
f 455 374 454
f 374 456 454
f 454 456 453
f 373 457 374
f 374 457 456
f 457 458 456
f 456 458 459
f 458 460 459
f 451 461 452
f 461 443 452
f 452 443 454
f 443 446 454
f 454 446 455
f 446 448 455
f 455 448 462
f 448 447 462
f 462 447 442
f 463 464 465
f 464 466 465
f 465 466 467
f 410 407 411
f 407 404 411
f 411 404 468
f 404 402 468
f 468 402 469
f 402 398 469
f 469 398 470
f 398 400 470
f 470 400 471
f 400 472 471
f 471 472 473
f 472 474 473
f 473 474 391
f 474 475 391
f 391 475 392
f 371 370 476
f 370 369 476
f 476 369 477
f 369 478 477
f 477 478 479
f 478 480 479
f 479 480 481
f 480 482 481
f 481 482 483
f 482 484 483
f 483 484 485
f 484 486 485
f 485 486 487
f 486 488 487
f 487 488 489
f 488 490 489
f 489 490 491
f 490 492 491
f 491 492 493
f 492 494 493
f 493 494 495
f 494 496 495
f 495 496 497
f 496 498 497
f 497 498 499
f 498 500 499
f 499 500 501
f 500 466 501
f 501 466 379
f 466 464 379
f 379 464 377
f 464 463 377
f 331 371 388
f 371 476 388
f 388 476 386
f 476 477 386
f 386 477 393
f 477 479 393
f 393 479 391
f 479 481 391
f 391 481 473
f 481 483 473
f 473 483 471
f 483 485 471
f 471 485 470
f 485 487 470
f 470 487 469
f 487 489 469
f 469 489 468
f 489 491 468
f 468 491 411
f 491 493 411
f 411 493 413
f 493 495 413
f 413 495 415
f 495 497 415
f 415 497 418
f 497 499 418
f 418 499 420
f 499 501 420
f 420 501 382
f 501 379 382
f 382 379 380
f 379 378 380
f 502 503 385
f 503 504 385
f 385 504 439
f 360 505 359
f 505 358 359
f 505 502 358
f 502 385 358
f 358 385 357
f 385 384 357
f 357 384 361
f 384 435 361
f 361 435 362
f 435 429 362
f 362 429 363
f 429 428 363
f 366 365 428
f 365 364 428
f 428 364 363
f 432 506 434
f 506 425 434
f 434 425 430
f 425 427 430
f 430 427 428
f 427 375 428
f 428 375 366
f 375 367 366
f 437 507 438
f 507 508 438
f 438 508 509
f 442 441 462
f 441 440 462
f 462 440 455
f 440 438 455
f 455 438 374
f 438 509 374
f 374 509 372
f 369 368 478
f 368 376 478
f 478 376 480
f 376 375 480
f 480 375 482
f 375 426 482
f 482 426 484
f 426 425 484
f 484 425 486
f 425 506 486
f 486 506 488
f 506 432 488
f 488 432 490
f 432 431 490
f 490 431 492
f 431 442 492
f 492 442 494
f 442 447 494
f 494 447 496
f 447 449 496
f 496 449 498
f 449 450 498
f 498 450 500
f 450 445 500
f 500 445 466
f 445 444 466
f 466 444 467
f 444 443 467
f 467 443 510
f 443 461 510
f 511 512 513
f 424 381 514
f 381 511 514
f 514 511 515
f 511 513 515
f 515 513 516
f 459 460 517
f 460 518 517
f 459 517 456
f 517 519 456
f 456 519 453
f 520 461 519
f 461 451 519
f 519 451 453
f 521 467 520
f 467 510 520
f 520 510 461
f 522 463 521
f 463 465 521
f 521 465 467
f 381 380 511
f 380 378 511
f 511 378 522
f 378 377 522
f 522 377 463
f 518 523 524
f 518 524 517
f 524 525 517
f 517 525 519
f 525 526 519
f 526 527 519
f 519 527 520
f 527 528 520
f 520 528 521
f 528 529 521
f 521 529 530
f 530 531 521
f 531 532 521
f 521 532 522
f 532 533 522
f 522 533 511
f 533 534 511
f 511 534 512
f 535 536 537
f 353 352 538
f 356 355 539
f 354 334 540
f 541 542 543
f 344 347 544
f 347 346 544
f 545 546 547
f 548 549 550
f 549 551 550
f 552 553 554
f 555 556 557
f 558 559 560
f 561 562 563
f 562 564 563
f 552 565 553
f 565 566 553
f 553 566 561
f 566 567 561
f 561 567 562
f 568 569 554
f 569 570 554
f 554 570 552
f 571 572 573
f 572 574 573
f 573 574 568
f 574 575 568
f 568 575 569
f 571 573 576
f 573 577 576
f 576 577 578
f 578 577 579
f 577 580 579
f 579 580 581
f 581 580 582
f 580 583 582
f 582 583 584
f 584 583 585
f 583 586 585
f 585 586 587
f 587 586 588
f 586 589 588
f 588 589 590
f 589 591 590
f 590 591 592
f 592 591 593
f 591 540 593
f 593 540 594
f 540 334 594
f 594 334 333
f 595 532 531
f 532 595 533
f 595 596 533
f 533 596 534
f 534 596 512
f 596 555 512
f 512 555 513
f 555 557 513
f 513 557 516
f 597 598 599
f 546 600 547
f 600 601 547
f 547 601 602
f 603 604 599
f 604 545 599
f 599 545 597
f 545 547 597
f 597 547 605
f 547 602 605
f 605 602 606
f 607 546 608
f 546 545 608
f 608 545 609
f 545 604 609
f 609 604 610
f 604 603 610
f 611 612 600
f 600 612 601
f 612 613 601
f 601 613 614
f 615 616 548
f 616 615 617
f 617 615 618
f 615 542 618
f 618 542 619
f 542 541 619
f 619 541 620
f 342 344 543
f 344 544 543
f 543 544 541
f 544 346 541
f 541 346 620
f 346 350 620
f 620 350 621
f 350 349 621
f 548 550 615
f 550 622 615
f 615 622 542
f 622 623 542
f 542 623 543
f 623 537 543
f 543 537 342
f 536 624 537
f 537 624 342
f 624 625 342
f 342 625 338
f 625 339 338
f 626 627 628
f 627 629 628
f 628 629 630
f 629 631 630
f 630 631 632
f 631 633 632
f 632 633 634
f 633 635 634
f 634 635 636
f 635 637 636
f 636 637 638
f 637 639 638
f 638 639 640
f 639 641 640
f 640 641 642
f 641 643 642
f 642 643 644
f 643 645 644
f 644 645 646
f 645 647 646
f 646 647 648
f 647 649 648
f 648 649 539
f 649 538 539
f 539 538 356
f 538 352 356
f 563 626 561
f 626 628 561
f 561 628 553
f 628 630 553
f 553 630 554
f 630 632 554
f 554 632 568
f 632 634 568
f 568 634 573
f 634 636 573
f 573 636 577
f 636 638 577
f 577 638 580
f 638 640 580
f 580 640 583
f 640 642 583
f 583 642 586
f 642 644 586
f 586 644 589
f 644 646 589
f 589 646 591
f 646 648 591
f 591 648 540
f 648 539 540
f 540 539 354
f 539 355 354
f 523 650 524
f 650 525 524
f 651 652 600
f 652 653 600
f 600 653 611
f 650 651 525
f 651 600 525
f 525 600 526
f 600 546 526
f 526 546 527
f 546 607 527
f 527 607 528
f 607 608 528
f 528 608 529
f 608 609 529
f 529 609 530
f 609 610 530
f 530 610 531
f 610 654 531
f 531 654 595
f 654 655 595
f 595 655 596
f 655 558 596
f 596 558 555
f 558 560 555
f 555 560 556
f 614 656 601
f 656 657 601
f 601 657 658
f 598 597 551
f 597 605 551
f 551 605 550
f 605 606 550
f 550 606 622
f 606 602 622
f 622 602 623
f 602 601 623
f 623 601 537
f 601 658 537
f 537 658 535
f 349 353 621
f 353 538 621
f 621 538 620
f 538 649 620
f 620 649 619
f 649 647 619
f 619 647 618
f 647 645 618
f 618 645 617
f 645 643 617
f 617 643 616
f 643 641 616
f 616 641 548
f 641 639 548
f 548 639 549
f 639 637 549
f 549 637 551
f 637 635 551
f 551 635 598
f 635 633 598
f 598 633 599
f 633 631 599
f 599 631 603
f 631 629 603
f 603 629 610
f 629 627 610
f 610 627 654
f 627 626 654
f 654 626 655
f 626 563 655
f 655 563 558
f 563 564 558
f 558 564 559
f 659 660 661
f 662 663 664
f 665 666 664
f 666 667 664
f 664 667 662
f 668 669 665
f 669 670 665
f 665 670 666
f 671 661 672
f 661 673 672
f 672 673 674
f 674 673 675
f 673 676 675
f 675 676 677
f 677 676 678
f 676 679 678
f 678 679 680
f 680 679 681
f 679 682 681
f 681 682 683
f 663 684 685
f 663 685 664
f 685 686 664
f 664 686 665
f 686 687 665
f 665 687 688
f 688 659 665
f 659 661 665
f 665 661 668
f 661 671 668
f 660 689 661
f 689 690 661
f 661 690 673
f 690 691 673
f 673 691 676
f 691 692 676
f 676 692 693
f 694 679 695
f 679 676 695
f 695 676 696
f 676 693 696
f 697 682 698
f 682 679 698
f 698 679 699
f 679 694 699
f 700 701 692
f 702 703 704
f 705 706 707
f 692 701 693
f 708 709 710
f 709 711 710
f 710 711 712
f 713 714 715
f 714 716 715
f 715 716 708
f 716 717 708
f 708 717 709
f 718 719 720
f 719 721 720
f 722 723 724
f 723 725 724
f 724 725 719
f 725 726 719
f 719 726 721
f 727 728 724
f 728 729 724
f 724 729 722
f 730 731 727
f 731 732 727
f 727 732 728
f 733 734 735
f 734 736 735
f 733 735 737
f 735 738 737
f 737 738 739
f 739 738 740
f 738 741 740
f 740 741 742
f 741 743 742
f 742 743 744
f 745 746 747
f 744 743 748
f 743 745 748
f 748 745 749
f 745 747 749
f 749 747 750
f 751 752 753
f 752 700 753
f 699 710 698
f 710 712 698
f 698 712 697
f 754 755 756
f 755 757 756
f 756 757 758
f 757 705 758
f 758 705 759
f 705 707 759
f 760 761 762
f 755 763 757
f 763 764 757
f 757 764 705
f 764 762 705
f 705 762 706
f 762 761 706
f 706 761 765
f 766 767 707
f 707 767 759
f 767 768 759
f 759 768 769
f 770 771 772
f 770 772 773
f 774 775 776
f 775 773 776
f 776 773 777
f 773 772 777
f 778 779 780
f 779 781 780
f 782 783 781
f 783 784 781
f 781 784 780
f 785 786 783
f 786 787 783
f 783 787 784
f 787 788 784
f 784 788 789
f 788 790 789
f 778 791 779
f 791 770 779
f 779 770 781
f 770 773 781
f 781 773 782
f 773 775 782
f 782 775 792
f 775 774 792
f 792 774 754
f 793 794 795
f 794 796 795
f 795 796 797
f 734 730 736
f 730 727 736
f 736 727 798
f 727 724 798
f 798 724 799
f 724 719 799
f 799 719 800
f 719 718 800
f 800 718 801
f 718 802 801
f 801 802 803
f 802 804 803
f 803 804 713
f 804 805 713
f 713 805 714
f 694 695 806
f 695 696 806
f 806 696 807
f 696 808 807
f 807 808 809
f 808 810 809
f 809 810 811
f 810 812 811
f 811 812 813
f 812 814 813
f 813 814 815
f 814 816 815
f 815 816 817
f 816 818 817
f 817 818 819
f 818 820 819
f 819 820 821
f 820 822 821
f 821 822 823
f 822 824 823
f 823 824 825
f 824 826 825
f 825 826 827
f 826 828 827
f 827 828 829
f 828 830 829
f 829 830 831
f 830 796 831
f 831 796 704
f 796 794 704
f 704 794 702
f 794 793 702
f 699 694 710
f 694 806 710
f 710 806 708
f 806 807 708
f 708 807 715
f 807 809 715
f 715 809 713
f 809 811 713
f 713 811 803
f 811 813 803
f 803 813 801
f 813 815 801
f 801 815 800
f 815 817 800
f 800 817 799
f 817 819 799
f 799 819 798
f 819 821 798
f 798 821 736
f 821 823 736
f 736 823 735
f 823 825 735
f 735 825 738
f 825 827 738
f 738 827 741
f 827 829 741
f 741 829 743
f 829 831 743
f 743 831 745
f 831 704 745
f 745 704 746
f 704 703 746
f 832 833 707
f 833 834 707
f 707 834 766
f 684 835 685
f 835 686 685
f 835 832 686
f 832 707 686
f 686 707 687
f 707 706 687
f 687 706 688
f 706 765 688
f 688 765 659
f 765 761 659
f 691 690 760
f 690 689 760
f 760 689 761
f 689 660 761
f 761 660 659
f 763 836 764
f 836 751 764
f 764 751 762
f 751 753 762
f 762 753 760
f 753 700 760
f 760 700 691
f 700 692 691
f 769 837 759
f 837 838 759
f 759 838 839
f 754 756 792
f 756 758 792
f 792 758 782
f 758 759 782
f 782 759 783
f 759 839 783
f 783 839 785
f 696 693 808
f 693 701 808
f 808 701 810
f 701 700 810
f 810 700 812
f 700 752 812
f 812 752 814
f 752 751 814
f 814 751 816
f 751 836 816
f 816 836 818
f 836 763 818
f 818 763 820
f 763 755 820
f 820 755 822
f 755 754 822
f 822 754 824
f 754 774 824
f 824 774 826
f 774 776 826
f 826 776 828
f 776 777 828
f 828 777 830
f 777 772 830
f 830 772 796
f 772 771 796
f 796 771 797
f 771 770 797
f 797 770 840
f 770 791 840
f 841 842 750
f 790 843 844
f 845 791 778
f 778 780 845
f 780 784 845
f 845 784 844
f 784 789 844
f 844 789 790
f 840 846 797
f 846 847 797
f 797 847 795
f 847 793 795
f 702 848 849
f 750 747 841
f 747 746 841
f 841 746 849
f 746 703 849
f 849 703 702
f 850 845 851
f 845 844 851
f 851 844 852
f 844 843 852
f 852 843 853
f 850 854 845
f 854 846 845
f 845 846 791
f 846 840 791
f 854 855 846
f 855 856 846
f 846 856 847
f 856 857 847
f 847 857 858
f 858 859 847
f 859 848 847
f 847 848 793
f 848 702 793
f 860 842 861
f 842 841 861
f 861 841 862
f 841 849 862
f 862 849 863
f 849 848 863
f 863 848 864
f 848 859 864
f 865 866 867
f 674 675 868
f 677 678 869
f 680 681 870
f 871 872 873
f 670 669 874
f 669 668 874
f 875 876 877
f 878 879 880
f 879 881 880
f 882 883 884
f 885 886 861
f 886 887 861
f 861 887 860
f 888 889 890
f 891 892 893
f 892 894 893
f 882 895 883
f 895 896 883
f 883 896 891
f 896 897 891
f 891 897 892
f 898 899 884
f 899 900 884
f 884 900 882
f 901 902 903
f 902 904 903
f 903 904 898
f 904 905 898
f 898 905 899
f 901 903 906
f 903 907 906
f 906 907 908
f 908 907 909
f 907 910 909
f 909 910 911
f 911 910 912
f 910 913 912
f 912 913 914
f 914 913 915
f 913 916 915
f 915 916 917
f 917 916 918
f 916 919 918
f 918 919 920
f 919 921 920
f 920 921 922
f 922 921 923
f 921 870 923
f 923 870 924
f 870 681 924
f 924 681 683
f 861 862 885
f 862 863 885
f 885 863 925
f 863 864 925
f 925 864 926
f 864 859 926
f 926 859 858
f 927 928 929
f 876 930 877
f 930 931 877
f 877 931 932
f 933 934 929
f 934 875 929
f 929 875 927
f 875 877 927
f 927 877 935
f 877 932 935
f 935 932 936
f 937 876 938
f 876 875 938
f 938 875 939
f 875 934 939
f 939 934 940
f 934 933 940
f 941 942 930
f 930 942 931
f 942 943 931
f 931 943 944
f 945 946 878
f 946 945 947
f 947 945 948
f 945 872 948
f 948 872 949
f 872 871 949
f 949 871 950
f 666 670 873
f 670 874 873
f 873 874 871
f 874 668 871
f 871 668 950
f 668 671 950
f 950 671 951
f 671 672 951
f 878 880 945
f 880 952 945
f 945 952 872
f 952 953 872
f 872 953 873
f 953 867 873
f 873 867 666
f 866 954 867
f 867 954 666
f 954 955 666
f 666 955 667
f 955 662 667
f 956 957 958
f 957 959 958
f 958 959 960
f 959 961 960
f 960 961 962
f 961 963 962
f 962 963 964
f 963 965 964
f 964 965 966
f 965 967 966
f 966 967 968
f 967 969 968
f 968 969 970
f 969 971 970
f 970 971 972
f 971 973 972
f 972 973 974
f 973 975 974
f 974 975 976
f 975 977 976
f 976 977 978
f 977 979 978
f 978 979 869
f 979 868 869
f 869 868 677
f 868 675 677
f 893 956 891
f 956 958 891
f 891 958 883
f 958 960 883
f 883 960 884
f 960 962 884
f 884 962 898
f 962 964 898
f 898 964 903
f 964 966 903
f 903 966 907
f 966 968 907
f 907 968 910
f 968 970 910
f 910 970 913
f 970 972 913
f 913 972 916
f 972 974 916
f 916 974 919
f 974 976 919
f 919 976 921
f 976 978 921
f 921 978 870
f 978 869 870
f 870 869 680
f 869 678 680
f 853 980 852
f 980 851 852
f 981 982 930
f 982 983 930
f 930 983 941
f 980 981 851
f 981 930 851
f 851 930 850
f 930 876 850
f 850 876 854
f 876 937 854
f 854 937 855
f 937 938 855
f 855 938 856
f 938 939 856
f 856 939 857
f 939 940 857
f 857 940 858
f 940 984 858
f 858 984 926
f 984 985 926
f 926 985 925
f 985 888 925
f 925 888 885
f 888 890 885
f 885 890 886
f 944 986 931
f 986 987 931
f 931 987 988
f 928 927 881
f 927 935 881
f 881 935 880
f 935 936 880
f 880 936 952
f 936 932 952
f 952 932 953
f 932 931 953
f 953 931 867
f 931 988 867
f 867 988 865
f 672 674 951
f 674 868 951
f 951 868 950
f 868 979 950
f 950 979 949
f 979 977 949
f 949 977 948
f 977 975 948
f 948 975 947
f 975 973 947
f 947 973 946
f 973 971 946
f 946 971 878
f 971 969 878
f 878 969 879
f 969 967 879
f 879 967 881
f 967 965 881
f 881 965 928
f 965 963 928
f 928 963 929
f 963 961 929
f 929 961 933
f 961 959 933
f 933 959 940
f 959 957 940
f 940 957 984
f 957 956 984
f 984 956 985
f 956 893 985
f 985 893 888
f 893 894 888
f 888 894 889
f 989 990 991
f 992 993 991
f 993 994 991
f 991 994 989
f 995 996 997
f 996 998 997
f 997 998 992
f 998 999 992
f 992 999 993
f 1000 1001 1002
f 1001 1003 1002
f 1002 1003 1004
f 1004 1003 1005
f 1003 1006 1005
f 1005 1006 1007
f 1007 1006 1008
f 1006 1009 1008
f 1008 1009 1010
f 1011 992 1012
f 992 991 1012
f 1012 991 1013
f 991 990 1013
f 1013 990 1014
f 1011 1015 992
f 1015 1016 992
f 992 1016 997
f 1016 1017 997
f 997 1017 1018
f 1019 1020 1001
f 1018 1019 997
f 1019 1001 997
f 997 1001 995
f 1001 1000 995
f 1020 1021 1001
f 1021 1022 1001
f 1001 1022 1003
f 1022 1023 1003
f 1003 1023 1006
f 1023 1024 1006
f 1025 1009 1026
f 1009 1006 1026
f 1026 1006 1027
f 1006 1024 1027
f 1028 1029 1030
f 1031 1032 1033
f 1034 1035 1036
f 1037 1038 1039
f 1038 1040 1039
f 1041 1042 1043
f 1042 1044 1043
f 1045 1046 1044
f 1046 1047 1044
f 1044 1047 1043
f 1048 1049 1050
f 1050 1051 1048
f 1051 1052 1048
f 1048 1052 1045
f 1052 1053 1045
f 1045 1053 1046
f 1049 1048 1054
f 1048 1055 1054
f 1054 1055 1056
f 1056 1055 1057
f 1055 1058 1057
f 1057 1058 1059
f 1059 1058 1060
f 1058 1061 1060
f 1060 1061 1062
f 1061 1063 1062
f 1062 1063 1064
f 1064 1063 1065
f 1063 1066 1065
f 1065 1066 1067
f 1066 1068 1067
f 1067 1068 1069
f 1069 1068 1070
f 1068 1071 1070
f 1070 1071 1072
f 1073 1074 1075
f 1041 1076 1042
f 1076 1077 1042
f 1042 1077 1078
f 1077 1079 1078
f 1078 1079 1080
f 1079 1081 1080
f 1080 1081 1082
f 1083 1022 1021
f 1084 1085 1086
f 1085 1087 1086
f 1086 1087 1088
f 1022 1083 1023
f 1083 1089 1023
f 1023 1089 1024
f 1024 1089 1027
f 1089 1090 1027
f 1027 1090 1026
f 1090 1091 1026
f 1026 1091 1025
f 1092 1093 1094
f 1095 1096 1097
f 1084 1086 1094
f 1086 1088 1094
f 1094 1088 1092
f 1088 1097 1092
f 1092 1097 1098
f 1097 1096 1098
f 1098 1096 1099
f 1019 1018 1087
f 1018 1034 1087
f 1087 1034 1088
f 1034 1036 1088
f 1088 1036 1097
f 1036 1100 1097
f 1097 1100 1095
f 1101 1102 1100
f 1100 1102 1095
f 1102 1103 1095
f 1095 1103 1104
f 1105 1106 1107
f 1105 1107 1108
f 1108 1109 1110
f 1111 1112 1037
f 1112 1111 1113
f 1113 1111 1114
f 1111 1115 1114
f 1114 1115 1110
f 1116 1117 1118
f 1110 1115 1108
f 1115 1118 1108
f 1108 1118 1105
f 1118 1117 1105
f 1105 1117 1106
f 1037 1039 1111
f 1039 1119 1111
f 1111 1119 1115
f 1119 1120 1115
f 1115 1120 1118
f 1120 1030 1118
f 1118 1030 1116
f 1029 1121 1030
f 1030 1121 1116
f 1121 1122 1116
f 1116 1122 1123
f 1122 1124 1123
f 1071 1125 1126
f 1072 1071 1127
f 1071 1126 1127
f 1127 1126 1128
f 1129 1130 1131
f 1130 1132 1131
f 1131 1132 1133
f 1134 1135 1136
f 1135 1137 1136
f 1136 1137 1138
f 1137 1139 1138
f 1138 1139 1140
f 1139 1141 1140
f 1140 1141 1142
f 1141 1143 1142
f 1142 1143 1144
f 1143 1145 1144
f 1144 1145 1146
f 1145 1147 1146
f 1146 1147 1148
f 1147 1149 1148
f 1148 1149 1150
f 1149 1151 1150
f 1150 1151 1152
f 1151 1153 1152
f 1152 1153 1154
f 1153 1155 1154
f 1154 1155 1156
f 1155 1132 1156
f 1156 1132 1033
f 1132 1130 1033
f 1033 1130 1031
f 1130 1129 1031
f 1080 1134 1078
f 1134 1136 1078
f 1078 1136 1042
f 1136 1138 1042
f 1042 1138 1044
f 1138 1140 1044
f 1044 1140 1045
f 1140 1142 1045
f 1045 1142 1048
f 1142 1144 1048
f 1048 1144 1055
f 1144 1146 1055
f 1055 1146 1058
f 1146 1148 1058
f 1058 1148 1061
f 1148 1150 1061
f 1061 1150 1063
f 1150 1152 1063
f 1063 1152 1066
f 1152 1154 1066
f 1066 1154 1068
f 1154 1156 1068
f 1068 1156 1071
f 1156 1033 1071
f 1071 1033 1125
f 1033 1032 1125
f 1157 1158 1100
f 1158 1159 1100
f 1100 1159 1101
f 1018 1017 1034
f 1017 1016 1034
f 1034 1016 1035
f 1016 1015 1035
f 1035 1015 1036
f 1015 1011 1036
f 1036 1011 1100
f 1011 1012 1100
f 1100 1012 1157
f 1012 1013 1157
f 1157 1013 1014
f 1019 1087 1020
f 1087 1085 1020
f 1020 1085 1021
f 1085 1160 1021
f 1021 1160 1083
f 1160 1161 1083
f 1083 1161 1089
f 1161 1073 1089
f 1089 1073 1090
f 1073 1075 1090
f 1090 1075 1091
f 1104 1162 1095
f 1162 1163 1095
f 1095 1163 1164
f 1093 1092 1040
f 1092 1098 1040
f 1040 1098 1039
f 1098 1099 1039
f 1039 1099 1119
f 1099 1096 1119
f 1119 1096 1120
f 1096 1095 1120
f 1120 1095 1030
f 1095 1164 1030
f 1030 1164 1028
f 1107 1165 1108
f 1165 1133 1108
f 1108 1133 1109
f 1133 1132 1109
f 1109 1132 1110
f 1132 1155 1110
f 1110 1155 1114
f 1155 1153 1114
f 1114 1153 1113
f 1153 1151 1113
f 1113 1151 1112
f 1151 1149 1112
f 1112 1149 1037
f 1149 1147 1037
f 1037 1147 1038
f 1147 1145 1038
f 1038 1145 1040
f 1145 1143 1040
f 1040 1143 1093
f 1143 1141 1093
f 1093 1141 1094
f 1141 1139 1094
f 1094 1139 1084
f 1139 1137 1084
f 1084 1137 1085
f 1137 1135 1085
f 1085 1135 1160
f 1135 1134 1160
f 1160 1134 1161
f 1134 1080 1161
f 1161 1080 1073
f 1080 1082 1073
f 1073 1082 1074
f 1166 1167 1128
f 1123 1124 1168
f 1124 1169 1168
f 1123 1168 1116
f 1168 1170 1116
f 1116 1170 1117
f 1133 1165 1171
f 1165 1107 1171
f 1171 1107 1170
f 1107 1106 1170
f 1170 1106 1117
f 1131 1172 1129
f 1172 1173 1129
f 1129 1173 1031
f 1032 1174 1125
f 1174 1166 1125
f 1125 1166 1126
f 1166 1128 1126
f 1169 1175 1176
f 1169 1176 1168
f 1176 1177 1168
f 1168 1177 1170
f 1178 1171 1179
f 1171 1170 1179
f 1179 1170 1180
f 1170 1177 1180
f 1178 1181 1171
f 1181 1172 1171
f 1171 1172 1133
f 1172 1131 1133
f 1181 1182 1172
f 1182 1183 1172
f 1172 1183 1173
f 1183 1184 1173
f 1173 1184 1185
f 1185 1186 1173
f 1186 1174 1173
f 1173 1174 1031
f 1174 1032 1031
f 1187 1167 1188
f 1167 1166 1188
f 1188 1166 1189
f 1166 1174 1189
f 1189 1174 1190
f 1174 1186 1190
f 1004 1005 1191
f 1007 1008 1192
f 1193 1194 1195
f 1196 1197 1198
f 1188 1189 1199
f 1200 1201 1199
f 1201 1202 1199
f 1199 1202 1188
f 1202 1203 1188
f 1188 1203 1187
f 1204 1205 1206
f 1205 1207 1206
f 1206 1207 1200
f 1207 1208 1200
f 1200 1208 1201
f 1209 1210 1211
f 1210 1212 1211
f 1211 1212 1213
f 1209 1211 1214
f 1211 1215 1214
f 1214 1215 1216
f 1217 1218 1215
f 1218 1219 1215
f 1215 1219 1216
f 1220 1221 1217
f 1221 1222 1217
f 1217 1222 1218
f 1223 1224 1225
f 1224 1226 1225
f 1225 1226 1227
f 1226 1228 1227
f 1227 1228 1229
f 1229 1228 1230
f 1228 1231 1230
f 1230 1231 1232
f 1231 1233 1232
f 1232 1233 1234
f 1234 1233 1235
f 1233 1192 1235
f 1235 1192 1236
f 1192 1008 1236
f 1236 1008 1010
f 1197 1237 1198
f 1237 1238 1198
f 1198 1238 1239
f 1238 1240 1239
f 1241 1242 1243
f 1242 1244 1243
f 1243 1244 1245
f 1244 1193 1245
f 1245 1193 1246
f 1193 1195 1246
f 1196 1247 1197
f 1247 1248 1197
f 1197 1248 1237
f 1248 1249 1237
f 1242 1240 1244
f 1240 1238 1244
f 1244 1238 1193
f 1238 1237 1193
f 1193 1237 1194
f 1237 1249 1194
f 1194 1249 1250
f 1251 1252 1195
f 1195 1252 1246
f 1252 1253 1246
f 1246 1253 1254
f 1255 1256 1257
f 1255 1257 1258
f 1259 1260 1261
f 1260 1258 1261
f 1261 1258 1262
f 1258 1257 1262
f 1263 1264 999
f 1265 1266 1264
f 1266 993 1264
f 1264 993 999
f 1267 1268 1266
f 1268 1269 1266
f 1266 1269 993
f 1269 1270 993
f 993 1270 994
f 1270 989 994
f 1263 1255 1264
f 1255 1258 1264
f 1264 1258 1265
f 1258 1260 1265
f 1265 1260 1271
f 1260 1259 1271
f 1271 1259 1241
f 1002 1272 1000
f 1272 1273 1000
f 1000 1273 995
f 1223 1220 1224
f 1220 1217 1224
f 1224 1217 1274
f 1217 1215 1274
f 1274 1215 1275
f 1215 1211 1275
f 1275 1211 1276
f 1211 1213 1276
f 1276 1213 1277
f 1213 1278 1277
f 1277 1278 1279
f 1278 1280 1279
f 1279 1280 1204
f 1280 1281 1204
f 1204 1281 1205
f 1190 1186 1282
f 1186 1185 1282
f 1282 1185 1283
f 1185 1284 1283
f 1283 1284 1285
f 1284 1286 1285
f 1285 1286 1287
f 1286 1288 1287
f 1287 1288 1289
f 1288 1290 1289
f 1289 1290 1291
f 1290 1292 1291
f 1291 1292 1293
f 1292 1294 1293
f 1293 1294 1295
f 1294 1296 1295
f 1295 1296 1297
f 1296 1298 1297
f 1297 1298 1299
f 1298 1300 1299
f 1299 1300 1301
f 1300 1302 1301
f 1301 1302 1303
f 1302 1304 1303
f 1303 1304 1305
f 1304 1306 1305
f 1305 1306 1307
f 1306 1273 1307
f 1307 1273 1191
f 1273 1272 1191
f 1191 1272 1004
f 1272 1002 1004
f 1189 1190 1199
f 1190 1282 1199
f 1199 1282 1200
f 1282 1283 1200
f 1200 1283 1206
f 1283 1285 1206
f 1206 1285 1204
f 1285 1287 1204
f 1204 1287 1279
f 1287 1289 1279
f 1279 1289 1277
f 1289 1291 1277
f 1277 1291 1276
f 1291 1293 1276
f 1276 1293 1275
f 1293 1295 1275
f 1275 1295 1274
f 1295 1297 1274
f 1274 1297 1224
f 1297 1299 1224
f 1224 1299 1226
f 1299 1301 1226
f 1226 1301 1228
f 1301 1303 1228
f 1228 1303 1231
f 1303 1305 1231
f 1231 1305 1233
f 1305 1307 1233
f 1233 1307 1192
f 1307 1191 1192
f 1192 1191 1007
f 1191 1005 1007
f 1308 1309 1195
f 1309 1310 1195
f 1195 1310 1251
f 1175 1311 1176
f 1311 1177 1176
f 1311 1308 1177
f 1308 1195 1177
f 1177 1195 1180
f 1195 1194 1180
f 1180 1194 1179
f 1194 1250 1179
f 1179 1250 1178
f 1250 1249 1178
f 1178 1249 1181
f 1249 1248 1181
f 1181 1248 1182
f 1248 1247 1182
f 1182 1247 1183
f 1247 1312 1183
f 1183 1312 1184
f 1254 1313 1246
f 1313 1314 1246
f 1246 1314 1315
f 1241 1243 1271
f 1243 1245 1271
f 1271 1245 1265
f 1245 1246 1265
f 1265 1246 1266
f 1246 1315 1266
f 1266 1315 1267
f 1185 1184 1284
f 1184 1312 1284
f 1284 1312 1286
f 1312 1247 1286
f 1286 1247 1288
f 1247 1196 1288
f 1288 1196 1290
f 1196 1198 1290
f 1290 1198 1292
f 1198 1239 1292
f 1292 1239 1294
f 1239 1240 1294
f 1294 1240 1296
f 1240 1242 1296
f 1296 1242 1298
f 1242 1241 1298
f 1298 1241 1300
f 1241 1259 1300
f 1300 1259 1302
f 1259 1261 1302
f 1302 1261 1304
f 1261 1262 1304
f 1304 1262 1306
f 1262 1257 1306
f 1306 1257 1273
f 1257 1256 1273
f 1273 1256 995
f 1256 1255 995
f 995 1255 996
f 1255 1263 996
f 996 1263 998
f 1263 999 998
f 1316 1317 1318
f 1319 1320 1321
f 1320 1322 1321
f 1324 1326 1325
f 1325 1326 1327
f 1328 1329 1330
f 1330 1331 1328
f 1331 1319 1328
f 1328 1319 1326
f 1332 1333 1334
f 1333 1335 1334
f 1319 1321 1326
f 1321 1336 1326
f 1326 1336 1327
f 1336 1337 1327
f 1327 1337 1338
f 1337 1339 1338
f 1338 1339 1333
f 1329 1328 1340
f 1328 1341 1340
f 1340 1341 1342
f 1341 1324 1342
f 1342 1324 1343
f 1324 1323 1343
f 1343 1323 1344
f 1323 1332 1344
f 1344 1332 1345
f 1332 1334 1345
f 1345 1334 1346
f 1347 1348 1335
f 1348 1349 1335
f 1335 1349 1350
f 1349 1351 1350
f 1350 1351 1334
f 1351 1352 1334
f 1334 1352 1346
f 1333 1339 1335
f 1339 1353 1335
f 1335 1353 1347
f 1354 1355 1356
f 1357 1358 1359
f 1358 1356 1359
f 1359 1356 1360
f 1356 1355 1360
f 1355 1361 1360
f 1360 1361 1362
f 1363 1364 1365
f 1366 1367 1361
f 1367 1368 1361
f 1361 1368 1362
f 1368 1369 1362
f 1362 1369 1359
f 1369 1370 1359
f 1359 1370 1357
f 1364 1363 1371
f 1363 1372 1371
f 1371 1372 1373
f 1356 1348 1354
f 1348 1347 1354
f 1354 1347 1374
f 1347 1317 1374
f 1320 1373 1322
f 1373 1372 1322
f 1322 1372 1375
f 1318 1363 1316
f 1363 1365 1316
f 1316 1365 1361
f 1365 1376 1361
f 1361 1376 1366
f 1372 1318 1375
f 1318 1317 1375
f 1317 1347 1377
f 1377 1347 1378
f 1379 27 10
f 10 9 1380
f 41 327 268
f 268 267 41
f 267 266 41
f 41 266 265
f 195 186 1381
f 186 324 1381
f 265 324 41
f 324 186 41
f 41 186 1382
f 186 147 1382
f 1380 327 10
f 327 41 10
f 10 41 1379
f 518 460 1383
f 1384 341 339
f 360 341 1383
f 1383 341 518
f 341 1384 518
f 518 1384 523
f 1385 853 843
f 663 662 1385
f 1385 843 663
f 843 790 663
f 663 790 1386
f 768 767 663
f 1386 837 663
f 837 769 663
f 663 769 768
f 1387 684 663
f 767 766 663
f 766 834 663
f 663 834 1387
f 1253 1252 1162
f 1252 1251 1162
f 1162 1251 1310
f 1388 1175 1169
f 1169 1124 1389
f 1164 1163 1169
f 1163 1162 1169
f 1169 1162 1388
f 1162 1310 1388
f 1121 1029 1389
f 1389 1029 1169
f 1029 1028 1169
f 1169 1028 1164
f 1313 1254 990
f 1254 1159 990
f 1103 1102 1254
f 1102 1101 1254
f 1254 1101 1159
f 1253 1162 1254
f 1162 1104 1254
f 1254 1104 1103
f 1159 1014 990
f 1313 990 1390
f 990 989 1390
