v -0.012957 -0.010133 0.051165
v -0.012858 -0.010244 0.051181
v -0.016264 0.002227 0.050554
v -0.003857 -0.003076 0.052405
v -0.000641 -0.001508 0.052756
v 0.001245 0.00062 0.052937
v -0.006119 -0.015235 0.052135
v -0.005058 -0.015656 0.052265
v 0.00032 -0.011569 0.052854
v -0.003783 -0.01601 0.052413
v -0.002331 -0.016253 0.052574
v -0.009878 -0.013152 0.051641
v -0.002304 -0.0062 0.052579
v -0.01151 -0.01175 0.051399
v -0.006999 -0.004609 0.052027
v -0.01244 -0.010712 0.051249
v -0.009562 -0.013372 0.051685
v -0.008921 -0.013819 0.051775
v -0.007039 -0.01487 0.052022
v 0.001244 0.007538 0.052943
v 0.000168 0.00965 0.052838
v -0.000904 0.010046 0.052728
v -0.009686 -0.002193 0.051668
v -0.008012 -0.002733 0.051896
v -0.005053 0.009924 0.052265
v 0.000951 0.010966 0.052916
v -0.010307 0.012819 0.051579
v -0.010799 0.012367 0.051505
v -0.009297 0.013571 0.051723
v -0.004263 0.015891 0.052358
v -0.005466 0.015519 0.052216
v -0.0032 0.010851 0.052479
v -0.007451 0.014669 0.051969
v -0.007575 0.014595 0.051953
v -0.010783 -0.005483 0.051509
v -0.012854 0.010214 0.051181
v -0.011904 0.011351 0.051337
v 0.001244 0.010199 0.052943
v 0.001244 0.016392 0.052944
v -0.000187 0.011378 0.052802
v 1e-06 0.016449 0.052821
v -0.001324 0.011789 0.052684
v -0.002159 0.016309 0.052595
v -0.003897 0.015964 0.052399
v -0.00212 -0.001042 0.052599
v -0.006287 -0.00329 0.052116
v 0.007585 0.004825 0.053469
v 0.003851 0.011527 0.053182
v 0.005727 0.007844 0.053335
v 0.006873 0.0034 0.05342
v 0.003885 0.006905 0.053185
v 0.003526 0.004524 0.053154
v 0.002044 0.005967 0.05302
v 0.001245 0.005291 0.05294
v 0.000183 0.005648 0.05284
v -0.00097 0.002298 0.052721
v -0.00275 0.009129 0.05253
v 0.002009 0.010588 0.053017
v 0.004891 0.015709 0.053269
v 0.003649 0.016041 0.053165
v 0.002247 0.016264 0.053037
v 0.001516 0.016379 0.052971
v 0.009473 0.013436 0.053589
v 0.009756 0.013243 0.053606
v 0.009383 0.004221 0.053584
v 0.011402 0.011857 0.053698
v 0.012365 0.0108 0.053746
v 0.008768 0.013918 0.053546
v 0.006876 0.014947 0.05342
v 0.006025 0.015274 0.053355
v 0.011177 0.003619 0.053686
v 0.015892 0.004262 0.0539
v 0.015531 0.005433 0.053886
v 0.014686 0.007418 0.053852
v 0.014591 0.007578 0.053848
v 0.013594 0.009265 0.053805
v 0.012863 0.010254 0.053771
v 0.009985 0.003002 0.05362
v 0.015276 -0.006019 0.053876
v 0.015716 -0.004869 0.053893
v 0.016048 -0.00362 0.053905
v 0.016266 -0.002229 0.053913
v 0.016382 -0.001486 0.053917
v 0.01645 -0 0.05392
v 0.016309 0.002158 0.053915
v 0.015963 0.003901 0.053902
v 0.010264 -0.012855 0.053636
v 0.0108 -0.012365 0.053664
v 0.008792 0.002385 0.053548
v 0.011865 -0.011393 0.053722
v 0.013251 -0.009745 0.053789
v 0.013437 -0.009473 0.053798
v 0.013927 -0.008753 0.05382
v 0.014956 -0.006859 0.053863
v 0.00926 -0.013597 0.053577
v 0.000929 -0.004668 0.052914
v 0.001244 -0.005301 0.052944
v 0.002372 0.001177 0.053051
v 0.002499 -0.007827 0.053063
v 0.001417 -0.008307 0.052961
v 0.002513 -0.010486 0.053064
v 0.001245 -0.007402 0.052936
v 0.001244 -0.008821 0.052944
v -0.001653 -0.016366 0.052649
v 1e-06 -0.016449 0.052821
v 0.001244 -0.011877 0.052943
v 0.001244 -0.016368 0.052942
v 0.001965 -0.012117 0.053013
v 0.002153 -0.01631 0.053031
v 0.00361 -0.012666 0.053162
v 0.0039 -0.015964 0.053185
v 0.004254 -0.015894 0.053217
v 0.005432 -0.015531 0.053312
v 0.007414 -0.014688 0.053458
v 0.007578 -0.014591 0.053468
v -0.013284 0.009699 0.05111
v -0.013437 0.009472 0.051083
v -0.008584 -0.00441 0.05182
v -0.013982 0.008665 0.050989
v -0.014992 0.006778 0.050804
v -0.01528 0.006011 0.050748
v -0.015738 0.004795 0.05066
v -0.016079 0.003474 0.050591
v -0.016392 0.001359 0.050528
v -0.015312 -0.005683 0.050743
v -0.016449 0 0.050516
v -0.01631 -0.002143 0.050544
v -0.015972 -0.003861 0.050613
v -0.015899 -0.00423 0.050627
v -0.015552 -0.005369 0.050696
v -0.014719 -0.007351 0.050855
v -0.014628 -0.007506 0.050871
v -0.013638 -0.009198 0.051049
f 30 31 32
f 21 38 26
f 38 39 26
f 26 39 40
f 40 41 42
f 32 44 30
f 53 20 54
f 54 20 55
f 55 22 56
f 58 61 38
f 61 62 38
f 38 62 39
f 96 97 6
f 6 97 98
f 100 102 103
f 9 105 106
f 106 107 108
f 107 109 108
f 110 111 112
f 116 117 2
f 2 36 116
f 1 2 3
f 4 5 6
f 7 8 9
f 8 10 9
f 9 10 11
f 12 13 14
f 13 15 14
f 14 15 16
f 15 2 16
f 12 17 13
f 17 18 13
f 13 18 19
f 20 21 22
f 23 24 25
f 22 21 26
f 27 28 25
f 27 25 29
f 31 33 32
f 32 33 25
f 33 34 25
f 25 34 29
f 35 23 36
f 23 25 36
f 36 25 37
f 25 28 37
f 39 41 40
f 41 43 42
f 42 43 32
f 43 44 32
f 6 45 4
f 45 46 4
f 4 46 15
f 47 48 49
f 50 51 52
f 51 53 52
f 52 53 54
f 20 22 55
f 22 57 56
f 56 57 45
f 57 25 45
f 45 25 46
f 25 24 46
f 58 48 59
f 59 60 58
f 60 61 58
f 63 47 64
f 47 65 64
f 64 65 66
f 65 67 66
f 63 68 47
f 68 69 47
f 47 69 48
f 69 70 48
f 48 70 59
f 71 72 73
f 71 73 65
f 73 74 65
f 65 74 75
f 75 76 65
f 76 77 65
f 65 77 67
f 78 79 80
f 80 81 78
f 81 82 78
f 78 82 83
f 83 84 78
f 84 85 78
f 78 85 71
f 85 86 71
f 71 86 72
f 87 88 89
f 88 90 89
f 89 90 91
f 91 92 89
f 92 93 89
f 89 93 78
f 93 94 78
f 78 94 79
f 49 51 47
f 51 50 47
f 47 50 89
f 50 95 89
f 89 95 87
f 5 96 6
f 97 99 98
f 100 101 95
f 50 98 95
f 98 99 95
f 95 99 100
f 99 102 100
f 102 13 103
f 103 13 9
f 13 19 9
f 9 19 7
f 11 104 9
f 104 105 9
f 105 107 106
f 108 109 110
f 109 111 110
f 112 113 110
f 113 114 110
f 110 114 101
f 114 115 101
f 101 115 95
f 46 118 15
f 118 35 15
f 15 35 2
f 35 36 2
f 117 119 2
f 119 120 2
f 2 120 121
f 121 122 2
f 122 123 2
f 2 123 3
f 3 124 125
f 124 126 125
f 125 126 127
f 127 128 125
f 128 129 125
f 125 129 130
f 130 131 125
f 131 132 125
f 125 132 3
f 132 133 3
f 3 133 1
