v -0.011324 0.106813 -0.101823
v -0.009273 0.106851 -0.103221
v -0.011323 0.10633 -0.101749
v -0.009282 0.106366 -0.10314
v -0.011323 0.106328 -0.101749
v -0.007239 0.106405 -0.104533
v -0.007222 0.106871 -0.104616
v -0.007222 0.10689 -0.104618
v -0.007222 0.10689 -0.10462
v -0.010734 0.106161 -0.106011
v -0.010748 0.105677 -0.105924
v -0.014255 0.104948 -0.107313
v -0.014246 0.105432 -0.107403
v -0.011323 0.099933 -0.137964
v -0.011323 0.100417 -0.138037
v -0.009273 0.10046 -0.139436
v -0.009283 0.099974 -0.139355
v -0.011323 0.099931 -0.137964
v -0.007224 0.100508 -0.140834
v -0.007242 0.100022 -0.140748
v -0.010752 0.099243 -0.142129
v -0.010737 0.099728 -0.142217
v -0.014258 0.098453 -0.143506
v -0.014249 0.098936 -0.143596
v -0.012793 0.110815 -0.074998
v -0.012802 0.111296 -0.075073
v -0.012793 0.111106 -0.073332
v -0.012802 0.111588 -0.073407
v -0.012793 0.111398 -0.071665
v -0.012802 0.11188 -0.071741
v -0.011223 0.112088 -0.071773
v -0.011231 0.111603 -0.071697
v -0.012014 0.1115 -0.071681
v -0.012793 0.111397 -0.071665
v -0.011231 0.111066 -0.074766
v -0.011231 0.111064 -0.074766
v -0.011231 0.111333 -0.073232
v -0.011223 0.11182 -0.073307
v -0.011223 0.111551 -0.074842
v -0.011231 0.111601 -0.071697
v -0.009793 0.11174 -0.074871
v -0.009784 0.111258 -0.074796
v -0.010509 0.111161 -0.074781
v -0.009784 0.111257 -0.074796
v -0.009784 0.111527 -0.073262
v -0.009793 0.112008 -0.073337
v -0.009784 0.111795 -0.071727
v -0.009793 0.112277 -0.071803
v -0.0085 0.111963 -0.071754
v -0.009784 0.111794 -0.071727
v -0.007223 0.112616 -0.071856
v -0.007214 0.112134 -0.07178
v -0.007214 0.112133 -0.07178
v -0.007223 0.112923 -0.0701
v -0.007214 0.112444 -0.070008
v -0.007214 0.112289 -0.070894
v -0.010735 0.111982 -0.069919
v -0.007214 0.112443 -0.070008
v -0.014254 0.111522 -0.069831
v -0.014245 0.112004 -0.069924
v -0.010734 0.112464 -0.070012
v -0.014254 0.11062 -0.074967
v -0.014254 0.110619 -0.074967
v -0.014254 0.11107 -0.072394
v -0.014254 0.111521 -0.069831
v -0.014245 0.111106 -0.075043
v -0.013525 0.110717 -0.074982
v -0.012793 0.110813 -0.074997
v -0.010986 0.110693 -0.07993
v -0.010962 0.110698 -0.079915
v -0.009185 0.111089 -0.079066
v -0.010872 0.110728 -0.079818
v -0.010818 0.110746 -0.079759
v -0.010779 0.110763 -0.079688
v -0.010711 0.110794 -0.079562
v -0.010704 0.1108 -0.079536
v -0.010642 0.110849 -0.079304
v -0.010612 0.111136 -0.077689
v -0.009185 0.111325 -0.077718
v -0.010612 0.110908 -0.078992
v -0.010631 0.110858 -0.079261
v -0.007223 0.11117 -0.080131
v -0.007223 0.110821 -0.082124
v -0.008204 0.111129 -0.079598
v -0.008377 0.110794 -0.081381
v -0.009532 0.110767 -0.080639
v -0.011791 0.110547 -0.080134
v -0.011724 0.110555 -0.08014
v -0.011464 0.110595 -0.080118
v -0.011374 0.110608 -0.080111
v -0.011272 0.110628 -0.080076
v -0.011139 0.110654 -0.08003
v -0.011114 0.110661 -0.080014
v -0.007223 0.111584 -0.077759
v -0.007223 0.111891 -0.076003
v -0.014245 0.110969 -0.075826
v -0.012802 0.110846 -0.077643
v -0.014245 0.110428 -0.078909
v -0.012802 0.110619 -0.078942
v -0.012769 0.110566 -0.079266
v -0.014161 0.110299 -0.079712
v -0.012763 0.110555 -0.079333
v -0.01414 0.110267 -0.079909
v -0.012713 0.110537 -0.079476
v -0.014023 0.110223 -0.08025
v -0.012663 0.110519 -0.079618
v -0.013924 0.110186 -0.080536
v -0.012645 0.110517 -0.079645
v -0.012547 0.110504 -0.079792
v -0.01384 0.110175 -0.080669
v -0.012538 0.110503 -0.079806
v -0.013618 0.110143 -0.081021
v -0.012444 0.110501 -0.07989
v -0.012326 0.110502 -0.079976
v -0.013241 0.110132 -0.081377
v -0.012381 0.1105 -0.079946
v -0.013342 0.110135 -0.081281
v -0.01361 0.110143 -0.081029
v -0.009746 0.11068 -0.080964
v -0.010012 0.110594 -0.081249
v -0.011908 0.110533 -0.080125
v -0.009717 0.11069 -0.080933
v -0.010049 0.110582 -0.081289
v -0.010343 0.110508 -0.081482
v -0.010472 0.110476 -0.081568
v -0.010722 0.110426 -0.081656
v -0.010993 0.110373 -0.081751
v -0.011153 0.110348 -0.081767
v -0.011784 0.110252 -0.081827
v -0.012299 0.110191 -0.081775
v -0.012005 0.110524 -0.080098
v -0.012305 0.11019 -0.081774
v -0.012183 0.110509 -0.08005
v -0.012676 0.11016 -0.08166
v -0.012193 0.110508 -0.080047
v -0.012841 0.110146 -0.081609
v -0.013028 0.11014 -0.081501
v -0.008197 0.110971 -0.077663
v -0.009177 0.110841 -0.077643
v -0.009177 0.110843 -0.077643
v -0.007214 0.111102 -0.077683
v -0.007214 0.111101 -0.077683
v -0.007214 0.111412 -0.075911
v -0.007214 0.111257 -0.076797
v -0.007214 0.111411 -0.075911
v -0.010735 0.110948 -0.075822
v -0.014254 0.110486 -0.075733
v -0.014254 0.110485 -0.075733
v -0.014254 0.110216 -0.077264
v -0.014254 0.109943 -0.078824
v -0.012299 0.109707 -0.081692
v -0.011784 0.109767 -0.081752
v -0.012382 0.109698 -0.081683
v -0.01254 0.109683 -0.081643
v -0.012678 0.109674 -0.081585
v -0.013037 0.109651 -0.081435
v -0.013038 0.109651 -0.081435
v -0.013258 0.109647 -0.08129
v -0.013349 0.109649 -0.081204
v -0.013617 0.109657 -0.08095
v -0.013619 0.109657 -0.080949
v -0.013735 0.109668 -0.080797
v -0.013846 0.109689 -0.080589
v -0.014 0.109718 -0.080301
v -0.014039 0.109736 -0.080171
v -0.014165 0.109793 -0.079749
v -0.014177 0.109812 -0.07963
v -0.009529 0.110283 -0.080567
v -0.009629 0.11024 -0.080738
v -0.009737 0.110199 -0.080888
v -0.009751 0.110193 -0.080908
v -0.010012 0.110112 -0.081166
v -0.010125 0.110077 -0.081277
v -0.010305 0.110031 -0.081401
v -0.010332 0.110025 -0.081414
v -0.010717 0.109942 -0.081589
v -0.010777 0.109929 -0.081616
v -0.011063 0.109876 -0.081691
v -0.01115 0.109863 -0.081698
v -0.007214 0.110338 -0.082056
v -0.007214 0.110336 -0.082055
v -0.008372 0.110309 -0.08131
v -0.009529 0.110281 -0.080567
v -0.007214 0.11069 -0.080042
v -0.007214 0.110514 -0.081049
v -0.008197 0.110649 -0.079509
v -0.009177 0.110609 -0.078977
v -0.009177 0.110726 -0.07831
v -0.010621 0.11065 -0.077613
v -0.011708 0.110507 -0.07759
v -0.012793 0.110364 -0.077568
v -0.012793 0.110363 -0.077568
v -0.012793 0.110252 -0.078209
v -0.012793 0.110138 -0.078858
v -0.012793 0.11013 -0.078907
v -0.012757 0.110087 -0.07918
v -0.012739 0.110066 -0.07931
v -0.012714 0.110055 -0.079392
v -0.012712 0.110054 -0.0794
v -0.012635 0.110037 -0.079556
v -0.0126 0.11003 -0.079625
v -0.012541 0.110024 -0.079704
v -0.01253 0.110023 -0.079718
v -0.012439 0.110021 -0.0798
v -0.012383 0.11002 -0.079851
v -0.012323 0.110021 -0.079889
v -0.012318 0.110021 -0.079892
v -0.012178 0.110029 -0.079954
v -0.012105 0.110033 -0.079986
v -0.012039 0.110039 -0.080005
v -0.012005 0.110043 -0.08001
v -0.01179 0.110067 -0.080039
v -0.011724 0.110074 -0.080048
v -0.011465 0.110113 -0.080026
v -0.011379 0.110126 -0.080019
v -0.011333 0.110134 -0.080008
v -0.011274 0.110146 -0.079985
v -0.011117 0.110178 -0.079924
v -0.011109 0.110179 -0.079921
v -0.011019 0.110201 -0.079865
v -0.010992 0.110209 -0.079839
v -0.010875 0.110244 -0.079732
v -0.01087 0.110245 -0.079727
v -0.010822 0.110263 -0.079664
v -0.010787 0.110279 -0.079599
v -0.010715 0.110312 -0.079465
v -0.01071 0.110316 -0.079449
v -0.010656 0.110355 -0.079268
v -0.010651 0.110364 -0.079219
v -0.010621 0.110422 -0.078907
v -0.010621 0.110536 -0.078256
v -0.010621 0.110649 -0.077613
v -0.012397 0.109433 -0.086026
v -0.014246 0.109338 -0.085127
v -0.011139 0.109685 -0.085567
v -0.010734 0.110061 -0.083734
v -0.009882 0.109937 -0.085108
v -0.009882 0.109599 -0.087041
v -0.007223 0.109447 -0.089989
v -0.011139 0.109516 -0.086533
v -0.010734 0.109232 -0.088468
v -0.014246 0.109019 -0.086948
v -0.007223 0.110468 -0.084148
v -0.007865 0.110339 -0.084383
v -0.007223 0.110783 -0.082341
v -0.008508 0.11021 -0.084619
v -0.008508 0.10969 -0.087594
v -0.007865 0.109732 -0.087854
v -0.007223 0.109775 -0.088114
v -0.008499 0.10921 -0.087504
v -0.008499 0.10947 -0.086022
v -0.008499 0.109729 -0.084541
v -0.007214 0.109986 -0.08407
v -0.007858 0.109857 -0.084306
v -0.008499 0.109728 -0.08454
v -0.007214 0.110146 -0.083157
v -0.007214 0.110305 -0.082245
v -0.010735 0.109579 -0.083641
v -0.007214 0.110304 -0.082245
v -0.014254 0.108854 -0.085037
v -0.014254 0.108533 -0.086869
v -0.014254 0.108532 -0.086869
v -0.014254 0.108693 -0.085953
v -0.010735 0.108747 -0.088393
v -0.007214 0.108964 -0.089918
v -0.007214 0.108963 -0.089917
v -0.007214 0.109295 -0.088024
v -0.007214 0.10913 -0.088971
v -0.007858 0.109252 -0.087764
v -0.007214 0.109294 -0.088024
v -0.012373 0.108954 -0.085942
v -0.011133 0.109202 -0.08549
v -0.00989 0.109451 -0.085036
v -0.011133 0.109035 -0.086443
v -0.00989 0.109117 -0.086944
v -0.00989 0.109116 -0.086944
v -0.00989 0.109283 -0.08599
v -0.00989 0.109449 -0.085036
v -0.009978 0.107712 -0.094903
v -0.009978 0.107711 -0.094903
v -0.012117 0.107699 -0.093294
v -0.009952 0.108197 -0.094996
v -0.012099 0.108185 -0.093382
v -0.014246 0.108174 -0.091767
v -0.014254 0.107688 -0.091687
v -0.012118 0.107428 -0.094849
v -0.014246 0.107627 -0.094887
v -0.014254 0.107144 -0.094794
v -0.014254 0.106848 -0.096482
v -0.014254 0.106847 -0.096482
v -0.014254 0.106995 -0.095638
v -0.014254 0.107143 -0.094794
v -0.014246 0.107334 -0.096558
v -0.010735 0.107319 -0.096556
v -0.007214 0.10779 -0.096629
v -0.007214 0.107791 -0.09663
v -0.007223 0.108273 -0.096705
v -0.007223 0.108544 -0.095158
v -0.007214 0.108064 -0.09507
v -0.007214 0.107928 -0.09585
v -0.009334 0.108053 -0.093465
v -0.007214 0.108063 -0.09507
v -0.011454 0.108043 -0.09186
v -0.011479 0.108523 -0.091935
v -0.009351 0.108533 -0.093547
v -0.007214 0.10861 -0.091948
v -0.007214 0.108608 -0.091948
v -0.009335 0.108325 -0.091904
v -0.007223 0.109091 -0.092023
v -0.007223 0.109379 -0.090375
v -0.007214 0.108901 -0.090283
v -0.007214 0.108755 -0.091116
v -0.010735 0.108433 -0.090193
v -0.007214 0.108899 -0.090283
v -0.014254 0.107967 -0.090104
v -0.014246 0.108449 -0.090196
v -0.010734 0.108914 -0.090286
v -0.014254 0.107826 -0.090895
v -0.014254 0.107965 -0.090103
v -0.008078 0.107131 -0.099719
v -0.00894 0.107015 -0.099701
v -0.008941 0.107016 -0.099701
v -0.007214 0.107247 -0.099737
v -0.007214 0.107248 -0.099737
v -0.007223 0.10773 -0.099813
v -0.008944 0.107499 -0.099777
v -0.007223 0.108037 -0.098057
v -0.007214 0.107558 -0.097965
v -0.007214 0.107403 -0.098851
v -0.010735 0.107088 -0.097874
v -0.007214 0.107557 -0.097964
v -0.014254 0.10662 -0.097784
v -0.014246 0.107102 -0.097877
v -0.010734 0.10757 -0.097967
v -0.014254 0.106303 -0.09959
v -0.014254 0.106302 -0.09959
v -0.014254 0.10646 -0.098687
v -0.014254 0.106618 -0.097784
v -0.014246 0.106789 -0.099666
v -0.011243 0.107191 -0.099729
v -0.011265 0.106704 -0.099652
v -0.012762 0.106503 -0.099621
v -0.012744 0.106764 -0.100989
v -0.011265 0.106703 -0.099652
v -0.012761 0.106277 -0.100907
v -0.014254 0.105851 -0.10216
v -0.014246 0.106336 -0.102249
v -0.014255 0.105483 -0.104263
v -0.014255 0.105482 -0.104263
v -0.014254 0.105667 -0.103211
v -0.014254 0.105485 -0.104263
v -0.014246 0.105971 -0.104328
v -0.01279 0.105907 -0.103007
v -0.012785 0.106392 -0.103075
v -0.007222 0.107258 -0.102517
v -0.007214 0.106778 -0.102429
v -0.007214 0.106412 -0.104523
v -0.007214 0.106093 -0.106348
v -0.007222 0.106574 -0.106426
v -0.008577 0.106752 -0.101495
v -0.007214 0.106777 -0.102429
v -0.008588 0.107233 -0.101582
v -0.009953 0.107208 -0.100648
v -0.009939 0.106728 -0.100563
v -0.009441 0.106872 -0.100133
v -0.009448 0.107354 -0.100212
v -0.012396 0.10553 -0.108303
v -0.011139 0.105784 -0.107844
v -0.009882 0.106039 -0.107386
v -0.009882 0.105701 -0.109318
v -0.007222 0.105553 -0.112267
v -0.011139 0.105615 -0.10881
v -0.010734 0.105333 -0.110746
v -0.014246 0.105112 -0.109224
v -0.007865 0.106444 -0.106662
v -0.008508 0.106314 -0.106897
v -0.008508 0.105794 -0.109872
v -0.007865 0.105838 -0.110132
v -0.007222 0.105881 -0.110392
v -0.008499 0.105315 -0.109782
v -0.008499 0.105574 -0.108301
v -0.008499 0.105833 -0.106819
v -0.007214 0.106092 -0.106348
v -0.007858 0.105962 -0.106584
v -0.008499 0.105832 -0.106819
v -0.014255 0.104627 -0.109145
v -0.014255 0.104626 -0.109145
v -0.014255 0.104787 -0.108229
v -0.014255 0.104947 -0.107313
v -0.010735 0.104847 -0.11067
v -0.007214 0.105071 -0.112196
v -0.007214 0.105069 -0.112196
v -0.007214 0.105402 -0.110303
v -0.007214 0.105236 -0.11125
v -0.007858 0.105357 -0.110042
v -0.007214 0.105401 -0.110303
v -0.008499 0.105314 -0.109782
v -0.012372 0.105051 -0.108219
v -0.011133 0.105302 -0.107767
v -0.009891 0.105553 -0.107314
v -0.011133 0.105135 -0.10872
v -0.009891 0.105219 -0.109221
v -0.009891 0.105217 -0.109221
v -0.009891 0.105384 -0.108268
v -0.009891 0.105551 -0.107314
v -0.011462 0.103017 -0.120547
v -0.011462 0.103016 -0.120547
v -0.011462 0.103302 -0.118915
v -0.011462 0.103588 -0.117283
v -0.011462 0.103589 -0.117284
v -0.011454 0.104075 -0.117359
v -0.011454 0.103503 -0.120623
v -0.010022 0.103697 -0.120654
v -0.010013 0.103216 -0.120578
v -0.010739 0.103116 -0.120563
v -0.010013 0.103214 -0.120578
v -0.010013 0.103501 -0.118947
v -0.010022 0.104268 -0.11739
v -0.010013 0.103787 -0.117314
v -0.008641 0.104456 -0.117419
v -0.00865 0.10397 -0.117343
v -0.009333 0.103878 -0.117329
v -0.010013 0.103785 -0.117314
v -0.00865 0.103319 -0.121066
v -0.00865 0.103317 -0.121066
v -0.00865 0.103643 -0.119205
v -0.00865 0.103969 -0.117343
v -0.008641 0.103804 -0.121142
v -0.007222 0.103997 -0.121172
v -0.007214 0.103515 -0.121097
v -0.007933 0.103416 -0.121082
v -0.007214 0.103514 -0.121097
v -0.007214 0.103996 -0.118349
v -0.007222 0.104955 -0.115692
v -0.007214 0.104476 -0.115601
v -0.010736 0.104001 -0.115509
v -0.007214 0.104475 -0.1156
v -0.014255 0.103527 -0.115418
v -0.014246 0.10401 -0.115511
v -0.010734 0.104482 -0.115602
v -0.014246 0.103536 -0.118213
v -0.014255 0.102577 -0.12084
v -0.014255 0.102575 -0.12084
v -0.014255 0.103051 -0.118129
v -0.014255 0.103526 -0.115418
v -0.014246 0.103062 -0.120916
v -0.012801 0.103258 -0.120946
v -0.012793 0.102777 -0.120871
v -0.013525 0.102676 -0.120855
v -0.012792 0.102775 -0.120871
v -0.012793 0.103093 -0.119064
v -0.012801 0.103892 -0.117331
v -0.012793 0.10341 -0.117256
v -0.012129 0.103499 -0.117269
v -0.012792 0.103409 -0.117255
v -0.009776 0.102557 -0.124526
v -0.007911 0.10267 -0.125371
v -0.007911 0.102671 -0.125371
v -0.01164 0.102444 -0.123681
v -0.011681 0.102922 -0.123756
v -0.0098 0.103036 -0.124608
v -0.007919 0.10315 -0.12546
v -0.007214 0.103047 -0.123775
v -0.007214 0.103046 -0.123775
v -0.009428 0.102745 -0.123728
v -0.007222 0.103529 -0.12385
v -0.007222 0.103804 -0.122279
v -0.007214 0.103325 -0.122187
v -0.007214 0.103186 -0.122981
v -0.010741 0.102847 -0.122095
v -0.007214 0.103323 -0.122187
v -0.014265 0.102371 -0.122004
v -0.014256 0.102854 -0.122097
v -0.010739 0.103329 -0.122188
v -0.014265 0.102027 -0.123965
v -0.014265 0.102026 -0.123965
v -0.014265 0.102198 -0.122984
v -0.014265 0.10237 -0.122004
v -0.014256 0.102512 -0.124043
v -0.012195 0.102147 -0.124931
v -0.010125 0.102267 -0.125897
v -0.010105 0.102753 -0.125982
v -0.012197 0.101824 -0.126767
v -0.012181 0.102309 -0.126853
v -0.014265 0.101381 -0.127634
v -0.014257 0.101864 -0.127724
v -0.014265 0.101034 -0.129585
v -0.014265 0.101033 -0.129584
v -0.014265 0.101207 -0.128609
v -0.014257 0.101692 -0.128692
v -0.014265 0.10138 -0.127634
v -0.014257 0.101519 -0.12966
v -0.010741 0.101517 -0.12966
v -0.010739 0.102001 -0.129736
v -0.007222 0.102483 -0.129811
v -0.007214 0.102001 -0.129736
v -0.007213 0.102 -0.129735
v -0.007214 0.10214 -0.128952
v -0.007222 0.10262 -0.129036
v -0.007214 0.102278 -0.128168
v -0.007222 0.102757 -0.12826
v -0.009428 0.101977 -0.128105
v -0.007214 0.102277 -0.128168
v -0.009452 0.102455 -0.128197
v -0.011681 0.102153 -0.128134
v -0.01164 0.101678 -0.128043
v -0.01164 0.101677 -0.128042
v -0.009777 0.102073 -0.127286
v -0.0098 0.102552 -0.127371
v -0.007919 0.102949 -0.126607
v -0.007911 0.102468 -0.126529
v -0.007911 0.102467 -0.126529
v -0.007911 0.102569 -0.12595
v -0.007919 0.10305 -0.126034
v -0.010736 0.101281 -0.130986
v -0.007213 0.101762 -0.131079
v -0.007214 0.101764 -0.131079
v -0.014255 0.1008 -0.130894
v -0.014247 0.101283 -0.130987
v -0.010734 0.101763 -0.131079
v -0.007222 0.102243 -0.131171
v -0.014247 0.101121 -0.131881
v -0.014255 0.100474 -0.1327
v -0.014255 0.100472 -0.1327
v -0.014255 0.100636 -0.131797
v -0.014255 0.100799 -0.130894
v -0.014247 0.100959 -0.132776
v -0.010736 0.10096 -0.132776
v -0.010734 0.101445 -0.132852
v -0.007222 0.101931 -0.132928
v -0.007213 0.101449 -0.132852
v -0.007213 0.101448 -0.132852
v -0.007214 0.101607 -0.131966
v -0.007222 0.102087 -0.132049
v -0.008078 0.100771 -0.135939
v -0.00894 0.10065 -0.13592
v -0.00894 0.100651 -0.13592
v -0.007213 0.100892 -0.135958
v -0.007213 0.100894 -0.135958
v -0.007222 0.101375 -0.136034
v -0.008943 0.101134 -0.135996
v -0.007213 0.101053 -0.135072
v -0.007222 0.101533 -0.135155
v -0.007213 0.101211 -0.134185
v -0.007222 0.10169 -0.134277
v -0.010736 0.100723 -0.134091
v -0.007213 0.10121 -0.134185
v -0.014256 0.100237 -0.133998
v -0.014247 0.10072 -0.134091
v -0.010734 0.101205 -0.134184
v -0.014247 0.100556 -0.134985
v -0.014256 0.099905 -0.135804
v -0.014256 0.099904 -0.135804
v -0.014256 0.10007 -0.134901
v -0.014256 0.100236 -0.133998
v -0.014247 0.100391 -0.13588
v -0.011246 0.100811 -0.135945
v -0.011269 0.100324 -0.135869
v -0.012747 0.100601 -0.135913
v -0.012764 0.100114 -0.135836
v -0.012747 0.100364 -0.137201
v -0.011269 0.100323 -0.135869
v -0.012764 0.099877 -0.13712
v -0.014256 0.099428 -0.138368
v -0.014248 0.099912 -0.138456
v -0.014257 0.099032 -0.140471
v -0.014257 0.099031 -0.140471
v -0.014257 0.09923 -0.13942
v -0.014257 0.099033 -0.140471
v -0.014248 0.099717 -0.139496
v -0.014256 0.099427 -0.138367
v -0.014248 0.09952 -0.140537
v -0.012791 0.099485 -0.139219
v -0.012786 0.099971 -0.139288
v -0.007212 0.099697 -0.142563
v -0.007221 0.100179 -0.142641
v -0.007213 0.10003 -0.140737
v -0.007221 0.100535 -0.140687
v -0.007213 0.10041 -0.138646
v -0.007221 0.100889 -0.138734
v -0.008576 0.100379 -0.137712
v -0.007213 0.100409 -0.138646
v -0.008586 0.100859 -0.137799
v -0.009951 0.100831 -0.136864
v -0.009937 0.100351 -0.13678
v -0.009439 0.100501 -0.136351
v -0.009447 0.100983 -0.13643
v -0.009884 0.099599 -0.143595
v -0.011136 0.099324 -0.144048
v -0.012387 0.099047 -0.1445
v -0.010734 0.098837 -0.146945
v -0.01425 0.098585 -0.145417
v -0.01425 0.098761 -0.144507
v -0.009885 0.09924 -0.145516
v -0.00722 0.099103 -0.148475
v -0.011136 0.099143 -0.145008
v -0.007863 0.100039 -0.142874
v -0.008506 0.099899 -0.143108
v -0.009884 0.09942 -0.144556
v -0.008505 0.099624 -0.144591
v -0.008505 0.099348 -0.146074
v -0.007863 0.0994 -0.146336
v -0.00722 0.099277 -0.147536
v -0.00722 0.099451 -0.146598
v -0.008497 0.09887 -0.145985
v -0.008497 0.099144 -0.144508
v -0.008497 0.099418 -0.14303
v -0.007212 0.099696 -0.142562
v -0.007856 0.099556 -0.142797
v -0.008497 0.099417 -0.14303
v -0.014258 0.098275 -0.144422
v -0.014258 0.098452 -0.143506
v -0.014258 0.098098 -0.145338
v -0.014258 0.098099 -0.145338
v -0.010735 0.098352 -0.146869
v -0.007211 0.098621 -0.148404
v -0.007211 0.098619 -0.148404
v -0.007212 0.098797 -0.147456
v -0.007212 0.098972 -0.146508
v -0.007855 0.09892 -0.146246
v -0.007212 0.098971 -0.146508
v -0.008497 0.098869 -0.145985
v -0.009893 0.099114 -0.143523
v -0.01113 0.098841 -0.143971
v -0.012364 0.098568 -0.144417
v -0.01113 0.098663 -0.144918
v -0.009893 0.098758 -0.145419
v -0.009893 0.098756 -0.145418
v -0.009893 0.098934 -0.144471
v -0.009893 0.099112 -0.143523
f 1 2 3
f 2 4 3
f 3 4 5
f 4 2 6
f 6 2 7
f 2 8 7
f 7 9 10
f 6 7 11
f 7 10 11
f 11 10 12
f 10 13 12
f 14 15 16
f 17 18 14
f 16 19 20
f 14 16 17
f 16 20 17
f 20 19 21
f 19 22 21
f 21 22 23
f 22 24 23
f 25 26 27
f 26 28 27
f 27 28 29
f 28 30 29
f 31 32 30
f 32 33 30
f 30 33 29
f 33 34 29
f 35 36 37
f 38 39 35
f 37 40 32
f 35 37 38
f 37 32 38
f 38 32 31
f 39 41 35
f 41 42 35
f 35 42 43
f 42 44 43
f 42 41 45
f 41 46 45
f 45 46 47
f 46 48 47
f 49 50 47
f 48 51 47
f 51 52 47
f 47 52 49
f 52 53 49
f 54 55 51
f 55 56 51
f 51 56 52
f 57 58 55
f 59 57 60
f 57 55 60
f 60 55 61
f 55 54 61
f 62 63 64
f 64 65 59
f 62 64 66
f 64 59 66
f 66 59 60
f 66 26 62
f 26 25 62
f 62 25 67
f 25 68 67
f 54 51 48
f 41 39 46
f 39 38 46
f 46 38 48
f 38 31 48
f 48 31 54
f 31 61 54
f 61 31 60
f 31 30 60
f 60 30 66
f 30 28 66
f 66 28 26
f 69 70 71
f 70 72 71
f 72 73 71
f 71 73 74
f 74 75 71
f 75 76 71
f 71 76 77
f 78 79 80
f 79 71 80
f 80 71 81
f 71 77 81
f 82 83 84
f 83 85 84
f 84 85 71
f 85 86 71
f 87 88 86
f 88 89 86
f 86 89 90
f 90 91 86
f 91 92 86
f 86 92 71
f 92 93 71
f 71 93 69
f 94 79 95
f 79 78 95
f 95 78 96
f 78 97 96
f 96 97 98
f 97 99 98
f 99 100 98
f 98 100 101
f 100 102 101
f 101 102 103
f 102 104 103
f 103 104 105
f 104 106 105
f 105 106 107
f 106 108 107
f 108 109 107
f 107 109 110
f 109 111 110
f 110 111 112
f 111 113 112
f 114 115 116
f 115 117 116
f 116 117 113
f 117 118 113
f 113 118 112
f 119 120 121
f 87 86 121
f 86 122 121
f 121 122 119
f 120 123 121
f 123 124 121
f 121 124 125
f 125 126 121
f 126 127 121
f 121 127 128
f 128 129 121
f 129 130 121
f 121 130 131
f 130 132 131
f 131 132 133
f 132 134 133
f 133 134 135
f 134 136 135
f 135 136 114
f 136 137 114
f 114 137 115
f 138 139 140
f 79 94 140
f 94 141 140
f 140 141 138
f 141 142 138
f 95 143 94
f 143 144 94
f 94 144 141
f 143 95 96
f 145 143 146
f 143 96 146
f 146 96 147
f 147 96 98
f 148 147 149
f 147 98 149
f 149 98 150
f 132 130 151
f 156 157 137
f 85 83 180
f 180 181 182
f 85 180 86
f 86 180 168
f 180 182 168
f 168 182 183
f 82 184 83
f 184 185 83
f 83 185 180
f 184 82 84
f 186 184 187
f 184 84 187
f 187 84 71
f 79 140 71
f 140 188 71
f 71 188 187
f 78 189 97
f 189 190 97
f 97 190 191
f 190 192 191
f 97 191 99
f 191 193 99
f 99 193 194
f 80 230 231
f 78 80 189
f 80 231 189
f 189 231 232
f 233 234 235
f 234 236 235
f 235 236 237
f 238 239 240
f 239 241 240
f 240 241 233
f 241 242 233
f 233 242 234
f 243 244 245
f 244 246 245
f 236 245 237
f 245 246 237
f 237 246 238
f 246 247 238
f 238 247 239
f 247 248 239
f 239 248 249
f 250 247 251
f 247 246 251
f 251 246 252
f 244 243 253
f 244 253 246
f 246 253 252
f 253 254 252
f 252 254 255
f 253 243 256
f 243 245 256
f 256 245 257
f 258 259 257
f 260 258 234
f 258 257 234
f 234 257 236
f 257 245 236
f 261 262 263
f 261 263 242
f 263 260 242
f 242 260 234
f 264 261 242
f 241 239 265
f 266 264 265
f 264 242 265
f 265 242 241
f 249 267 239
f 267 268 239
f 239 268 265
f 269 270 267
f 267 249 248
f 269 267 250
f 267 248 250
f 250 248 247
f 271 233 272
f 233 235 272
f 272 235 273
f 235 237 273
f 233 271 240
f 271 274 240
f 240 274 238
f 274 275 238
f 275 276 277
f 277 278 273
f 275 277 238
f 277 273 238
f 238 273 237
f 279 280 281
f 282 279 283
f 279 281 283
f 283 281 284
f 281 285 284
f 279 282 286
f 282 287 286
f 286 287 288
f 289 290 291
f 291 292 288
f 289 291 293
f 291 288 293
f 293 288 287
f 294 289 293
f 295 294 296
f 294 293 296
f 296 293 297
f 298 299 297
f 299 300 297
f 297 300 296
f 301 302 299
f 303 301 304
f 301 299 304
f 304 299 305
f 299 298 305
f 306 307 308
f 309 306 304
f 306 308 304
f 304 308 303
f 310 311 309
f 311 312 309
f 309 312 306
f 313 314 311
f 315 313 316
f 313 311 316
f 316 311 317
f 311 310 317
f 318 319 315
f 285 318 284
f 318 315 284
f 284 315 316
f 293 287 297
f 287 282 297
f 310 309 317
f 309 304 317
f 317 304 316
f 298 297 305
f 297 282 305
f 305 282 304
f 282 283 304
f 304 283 316
f 283 284 316
f 320 321 322
f 323 320 324
f 320 322 324
f 324 322 325
f 322 326 325
f 327 328 325
f 328 329 325
f 325 329 324
f 330 331 328
f 332 330 333
f 330 328 333
f 333 328 334
f 328 327 334
f 335 336 337
f 337 338 332
f 335 337 339
f 337 332 339
f 339 332 333
f 340 341 339
f 341 342 339
f 339 342 335
f 341 340 343
f 344 341 345
f 341 343 345
f 345 343 346
f 343 347 346
f 348 349 350
f 348 350 351
f 351 350 352
f 350 346 352
f 352 346 347
f 351 352 353
f 352 354 353
f 353 354 3
f 354 1 3
f 8 355 7
f 355 356 7
f 7 356 357
f 357 358 7
f 358 359 7
f 7 359 9
f 360 361 356
f 355 362 356
f 362 363 356
f 356 363 360
f 363 364 360
f 364 363 365
f 363 366 365
f 365 366 322
f 366 326 322
f 363 343 366
f 343 340 366
f 366 340 326
f 352 347 354
f 347 343 354
f 354 343 1
f 343 363 1
f 1 363 2
f 363 362 2
f 2 362 8
f 362 355 8
f 325 326 327
f 326 340 327
f 327 340 334
f 340 339 334
f 334 339 333
f 367 13 368
f 13 10 368
f 368 10 369
f 370 371 372
f 371 373 372
f 372 373 367
f 373 374 367
f 367 374 13
f 359 375 9
f 375 376 9
f 10 9 369
f 9 376 369
f 369 376 370
f 376 377 370
f 370 377 371
f 377 378 371
f 371 378 379
f 380 377 381
f 377 376 381
f 381 376 382
f 375 359 358
f 358 383 384
f 375 358 376
f 376 358 382
f 358 384 382
f 382 384 385
f 386 387 388
f 388 389 12
f 386 388 374
f 388 12 374
f 374 12 13
f 390 386 374
f 373 371 391
f 392 390 391
f 390 374 391
f 391 374 373
f 379 393 371
f 393 394 371
f 371 394 391
f 395 396 393
f 380 397 395
f 393 379 378
f 395 393 380
f 393 378 380
f 380 378 377
f 398 367 399
f 367 368 399
f 399 368 400
f 368 369 400
f 367 398 372
f 398 401 372
f 372 401 370
f 401 402 370
f 402 403 404
f 404 405 400
f 402 404 370
f 404 400 370
f 370 400 369
f 406 407 408
f 408 409 410
f 410 411 408
f 411 412 408
f 408 412 406
f 412 413 406
f 413 414 406
f 406 414 415
f 414 416 415
f 414 413 417
f 413 418 417
f 417 418 419
f 420 421 418
f 421 422 418
f 418 422 419
f 422 423 419
f 424 425 426
f 426 427 421
f 421 420 426
f 420 428 426
f 426 428 424
f 428 429 424
f 429 430 424
f 424 430 431
f 430 432 431
f 430 429 433
f 429 434 433
f 433 434 435
f 436 437 435
f 438 436 439
f 436 435 439
f 439 435 440
f 435 434 440
f 438 439 441
f 442 443 444
f 445 438 444
f 438 441 444
f 444 441 442
f 441 446 442
f 446 447 442
f 447 448 442
f 442 448 449
f 448 450 449
f 448 447 451
f 447 452 451
f 451 452 453
f 411 410 452
f 410 454 452
f 452 454 453
f 454 455 453
f 418 413 412
f 434 429 428
f 428 420 434
f 420 418 434
f 434 418 411
f 418 412 411
f 452 447 446
f 446 441 452
f 441 439 452
f 452 439 411
f 439 440 411
f 411 440 434
f 456 457 458
f 459 456 460
f 456 458 460
f 460 458 461
f 458 462 461
f 463 464 465
f 466 463 460
f 463 465 460
f 460 465 459
f 467 468 466
f 468 469 466
f 466 469 463
f 470 471 468
f 472 470 473
f 470 468 473
f 473 468 474
f 468 467 474
f 475 476 477
f 477 478 472
f 475 477 479
f 477 472 479
f 479 472 473
f 480 475 479
f 480 479 481
f 481 479 482
f 481 482 483
f 482 484 483
f 483 484 485
f 484 486 485
f 487 488 489
f 485 486 490
f 491 485 489
f 485 490 489
f 489 490 487
f 490 492 487
f 493 487 492
f 494 495 496
f 497 493 496
f 493 492 496
f 496 492 494
f 496 495 498
f 495 499 498
f 498 499 500
f 499 501 500
f 502 503 500
f 501 504 500
f 504 505 500
f 500 505 502
f 505 506 502
f 502 506 507
f 508 506 505
f 509 510 511
f 512 508 511
f 508 505 511
f 511 505 509
f 511 510 513
f 510 514 513
f 513 514 458
f 514 462 458
f 467 466 474
f 466 460 474
f 474 460 473
f 514 510 482
f 510 509 482
f 482 509 484
f 509 505 484
f 484 505 486
f 462 514 461
f 514 482 461
f 461 482 460
f 482 479 460
f 460 479 473
f 505 504 494
f 494 492 505
f 492 490 505
f 505 490 486
f 504 501 494
f 501 499 494
f 494 499 495
f 515 516 517
f 518 515 519
f 515 517 519
f 519 517 520
f 517 521 520
f 518 519 522
f 523 524 525
f 526 518 525
f 518 522 525
f 525 522 523
f 522 527 523
f 528 523 527
f 529 530 531
f 532 528 531
f 528 527 531
f 531 527 529
f 531 530 533
f 530 534 533
f 533 534 517
f 534 521 517
f 529 527 522
f 534 530 529
f 522 519 520
f 529 522 534
f 522 520 534
f 534 520 521
f 535 536 537
f 538 535 539
f 535 537 539
f 539 537 540
f 537 541 540
f 539 540 542
f 540 543 542
f 542 543 544
f 543 545 544
f 546 547 544
f 548 546 549
f 546 544 549
f 549 544 550
f 544 545 550
f 548 549 551
f 552 553 554
f 555 548 554
f 548 551 554
f 554 551 552
f 551 556 552
f 557 558 559
f 558 560 559
f 559 560 556
f 560 552 556
f 558 557 561
f 562 558 563
f 558 561 563
f 563 561 564
f 561 565 564
f 566 567 568
f 566 568 569
f 564 565 570
f 571 564 568
f 564 570 568
f 568 570 569
f 570 572 569
f 569 572 573
f 572 574 573
f 573 574 14
f 574 15 14
f 575 576 577
f 576 578 577
f 577 578 579
f 578 580 579
f 581 582 579
f 580 583 579
f 583 584 579
f 579 584 581
f 584 585 581
f 585 584 586
f 584 587 586
f 586 587 537
f 587 541 537
f 588 589 22
f 589 590 22
f 591 592 593
f 596 591 590
f 591 593 590
f 590 593 24
f 540 541 543
f 541 545 543
f 584 561 587
f 561 557 587
f 576 597 19
f 597 598 19
f 588 598 599
f 598 600 599
f 599 600 594
f 600 601 594
f 601 602 595
f 595 602 603
f 602 604 603
f 576 19 578
f 19 16 578
f 578 16 580
f 574 572 570
f 570 565 574
f 565 561 574
f 574 561 15
f 561 584 15
f 15 584 16
f 584 583 16
f 16 583 580
f 559 556 551
f 559 551 557
f 549 550 551
f 550 545 551
f 545 541 557
f 557 541 587
f 605 601 606
f 601 600 606
f 606 600 607
f 600 598 607
f 597 576 575
f 575 608 609
f 597 575 598
f 598 575 607
f 575 609 607
f 607 609 610
f 23 24 593
f 611 612 23
f 613 611 614
f 611 23 614
f 614 23 592
f 23 593 592
f 615 614 592
f 591 595 616
f 617 615 616
f 615 592 616
f 616 592 591
f 616 595 618
f 595 603 618
f 618 603 619
f 603 604 619
f 620 621 619
f 619 604 602
f 605 622 620
f 620 619 605
f 619 602 605
f 605 602 601
f 588 623 589
f 623 624 589
f 624 625 589
f 589 625 590
f 590 625 596
f 625 626 596
f 596 626 594
f 626 627 594
f 627 628 629
f 599 594 627
f 629 630 623
f 627 629 599
f 629 623 599
f 599 623 588
f 130 129 151
f 151 129 152
f 151 153 132
f 153 154 132
f 132 154 134
f 154 155 134
f 134 155 136
f 155 156 136
f 136 156 137
f 137 157 115
f 157 158 115
f 115 158 117
f 158 159 117
f 159 160 117
f 117 160 118
f 118 160 112
f 160 161 112
f 112 161 110
f 161 162 110
f 162 163 110
f 110 163 107
f 163 164 107
f 107 164 105
f 164 165 105
f 105 165 103
f 165 166 103
f 103 166 101
f 166 167 101
f 167 150 101
f 101 150 98
f 86 168 122
f 168 169 122
f 122 169 119
f 169 170 119
f 170 171 119
f 119 171 120
f 171 172 120
f 120 172 123
f 172 173 123
f 123 173 124
f 173 174 124
f 174 175 124
f 124 175 125
f 175 176 125
f 125 176 126
f 176 177 126
f 126 177 127
f 177 178 127
f 127 178 128
f 178 179 128
f 179 152 128
f 128 152 129
f 99 194 195
f 99 195 100
f 195 196 100
f 100 196 102
f 196 197 102
f 102 197 104
f 197 198 104
f 198 199 104
f 104 199 106
f 199 200 106
f 106 200 108
f 200 201 108
f 108 201 109
f 201 202 109
f 109 202 111
f 202 203 111
f 111 203 113
f 203 204 113
f 204 205 113
f 113 205 116
f 205 206 116
f 116 206 114
f 206 207 114
f 114 207 135
f 207 208 135
f 135 208 133
f 208 209 133
f 209 210 133
f 133 210 131
f 210 211 131
f 131 211 121
f 211 212 121
f 121 212 87
f 212 213 87
f 87 213 88
f 88 213 214
f 88 214 89
f 214 215 89
f 89 215 90
f 215 216 90
f 90 216 91
f 216 217 91
f 91 217 92
f 217 218 92
f 92 218 93
f 218 219 93
f 219 220 93
f 93 220 69
f 220 221 69
f 69 221 70
f 221 222 70
f 70 222 72
f 222 223 72
f 72 223 73
f 223 224 73
f 73 224 74
f 224 225 74
f 74 225 75
f 225 226 75
f 75 226 76
f 226 227 76
f 76 227 77
f 227 228 77
f 228 229 77
f 77 229 81
f 229 230 81
f 81 230 80
f 22 590 24
f 594 595 596
f 595 591 596
f 22 19 588
f 19 598 588
f 594 601 595
f 551 545 557
