v -0.0260814 -0.0670531 0.0380534
v -0.0273817 -0.0666967 0.0286571
v -0.0254671 -0.0675957 0.0290211
v -0.0248255 -0.0677125 0.036334
v -0.0238573 -0.0678685 0.035936
v -0.0249574 -0.0676908 0.0367373
v -0.024596 -0.0676929 0.0373367
v -0.0257775 -0.0675575 0.036618
v -0.0262943 -0.0674742 0.0363517
v -0.0271294 -0.0669099 0.037375
v -0.0293983 -0.0664342 0.0317241
v -0.0275763 -0.0672665 0.0348409
v -0.0280965 -0.067182 0.03289
v -0.027848 -0.067223 0.031601
v -0.0260435 -0.0675148 0.0295845
v -0.02425 -0.067805 0.029029
v -0.0223295 -0.0681165 0.0294585
v -0.02116 -0.068306 0.030394
v -0.02141 -0.068265 0.030123
v -0.0203443 -0.0684378 0.032131
v -0.020615 -0.068394 0.031228
v -0.0205433 -0.0684055 0.0344302
v -0.023399 -0.0679432 0.0367185
v -0.0231374 -0.0679854 0.0368194
v -0.0228558 -0.0674785 0.0275726
v -0.0200329 -0.0679579 0.0292084
v -0.0255467 -0.0669818 0.0276636
v -0.0271465 -0.0673358 0.030404
v -0.0285141 -0.066511 0.0297815
v -0.0294189 -0.0663658 0.0339935
v -0.0292243 -0.0664273 0.0348293
v -0.0284975 -0.0665688 0.0361177
v -0.0278666 -0.0666064 0.0369177
v -0.0252654 -0.067064 0.0383342
v -0.0230448 -0.0674402 0.0384076
v -0.0198599 -0.068 0.0364181
v -0.0213153 -0.0677147 0.0377156
v -0.0196195 -0.0679797 0.0361884
v -0.0188771 -0.0681211 0.0347208
v -0.0186364 -0.0681151 0.0325776
v -0.0190695 -0.0680393 0.0307894
v -0.0216588 -0.0681367 0.0366343
v -0.02141 -0.068265 0.03584
v -0.0231003 -0.0679446 0.0372506
v -0.0231174 -0.0754764 0.0279295
v -0.021498 -0.075747 0.029111
v -0.0199701 -0.0759861 0.031568
v -0.020093 -0.075975 0.034424
v -0.020635 -0.075887 0.03575
v -0.021498 -0.075747 0.036889
v -0.0233481 -0.0754175 0.0381446
v -0.0259074 -0.0750144 0.0384942
v -0.0299708 -0.0743213 0.0362366
v -0.030766 -0.074246 0.033
v -0.0303757 -0.0742887 0.0308897
v -0.0276357 -0.0747491 0.0277606
v -0.027565 -0.075274 0.027144
v -0.027031 -0.075358 0.026897
v -0.025417 -0.075619 0.026681
v -0.0214877 -0.07626 0.0281828
v -0.021006 -0.076334 0.028532
v -0.020015 -0.076494 0.029841
v -0.0193341 -0.0766091 0.0340394
v -0.019392 -0.076595 0.034635
v -0.020015 -0.076494 0.036159
v -0.0232673 -0.0759706 0.0388556
v -0.023803 -0.075881 0.039103
v -0.025417 -0.075619 0.039319
v -0.0293498 -0.0749853 0.0378128
v -0.029828 -0.074905 0.037468
v -0.030819 -0.074744 0.036159
v -0.0314966 -0.0746367 0.0319554
v -0.031442 -0.074643 0.031365
v -0.030819 -0.074744 0.029841
v -0.025401 -0.075519 0.039493
v -0.027058 -0.07522 0.039285
v -0.02706 -0.07525 0.039272
v -0.028608 -0.074969 0.038635
v -0.028606 -0.074999 0.038623
v -0.029938 -0.074754 0.037601
v -0.029933 -0.074784 0.037591
v -0.030959 -0.074588 0.036253
v -0.030952 -0.074619 0.036247
v -0.0316 -0.074484 0.034684
v -0.031592 -0.074516 0.034681
v -0.031819 -0.074449 0.033
v -0.03181 -0.07448 0.033
v -0.0316 -0.074484 0.031316
v -0.031592 -0.074516 0.031319
v -0.030959 -0.074588 0.029747
v -0.030952 -0.074619 0.029753
v -0.029938 -0.074754 0.028399
v -0.0292303 -0.0748462 0.0277235
v -0.028606 -0.074999 0.027377
v -0.02706 -0.07525 0.026728
v -0.025401 -0.075519 0.026507
v -0.0212644 -0.0755888 0.0273249
v -0.023742 -0.075787 0.026728
v -0.022196 -0.076038 0.027377
v -0.020854 -0.076225 0.028399
v -0.020868 -0.076253 0.028409
v -0.019834 -0.07639 0.029747
v -0.01985 -0.076418 0.029753
v -0.019192 -0.076494 0.031316
v -0.01921 -0.076521 0.031319
v -0.018973 -0.07653 0.033
v -0.018991 -0.076557 0.033
v -0.019192 -0.076494 0.034684
v -0.01921 -0.076521 0.034681
v -0.019834 -0.07639 0.036253
v -0.01985 -0.076418 0.036247
v -0.020854 -0.076225 0.037601
v -0.020868 -0.076253 0.037591
v -0.022185 -0.07601 0.038635
v -0.022196 -0.076038 0.038623
v -0.023734 -0.075759 0.039285
v -0.023742 -0.075787 0.039272
v -0.025396 -0.075489 0.039507
v -0.025417 -0.075617 0.039351
v -0.023794 -0.075879 0.039135
v -0.022282 -0.076124 0.0385
v -0.020983 -0.076335 0.037491
v -0.019987 -0.076496 0.036176
v -0.019361 -0.076597 0.034644
v -0.019147 -0.076632 0.033
v -0.019361 -0.076597 0.031356
v -0.019987 -0.076496 0.029824
v -0.020983 -0.076335 0.028509
v -0.022282 -0.076124 0.0275
v -0.023794 -0.075879 0.026865
v -0.025417 -0.075617 0.026649
v -0.027039 -0.075354 0.026865
v -0.028551 -0.075109 0.0275
v -0.02985 -0.074899 0.028509
v -0.030846 -0.074737 0.029824
v -0.031473 -0.074636 0.031356
v -0.031686 -0.074601 0.033
v -0.031473 -0.074636 0.034644
v -0.030846 -0.074737 0.036176
v -0.02985 -0.074899 0.037491
v -0.028551 -0.075109 0.0385
v -0.027039 -0.075354 0.039135
v -0.025407 -0.075554 0.039467
v -0.023754 -0.075822 0.039247
v -0.022215 -0.076071 0.038601
v -0.020893 -0.076285 0.037573
v -0.019878 -0.07645 0.036234
v -0.01924 -0.076553 0.034674
v -0.019023 -0.076588 0.033
v -0.01924 -0.076553 0.031326
v -0.019878 -0.07645 0.029766
v -0.020893 -0.076285 0.028427
v -0.022215 -0.076071 0.027399
v -0.023754 -0.075822 0.026753
v -0.025407 -0.075554 0.026533
v -0.027059 -0.075287 0.026753
v -0.028598 -0.075037 0.027399
v -0.029921 -0.074823 0.028427
v -0.030935 -0.074659 0.029766
v -0.031573 -0.074556 0.031326
v -0.03179 -0.07452 0.033
v -0.031573 -0.074556 0.034674
v -0.030935 -0.074659 0.036234
v -0.029921 -0.074823 0.037573
v -0.028598 -0.075037 0.038601
v -0.027059 -0.075287 0.039247
v -0.025411 -0.075584 0.039434
v -0.023768 -0.07585 0.039214
v -0.022236 -0.076098 0.038572
v -0.020921 -0.076311 0.037549
v -0.019911 -0.076474 0.036217
v -0.019277 -0.076577 0.034665
v -0.019061 -0.076612 0.033
v -0.019277 -0.076577 0.031335
v -0.019911 -0.076474 0.029783
v -0.020921 -0.076311 0.028451
v -0.022236 -0.076098 0.027428
v -0.023768 -0.07585 0.026786
v -0.025411 -0.075584 0.026567
v -0.027055 -0.075317 0.026786
v -0.028587 -0.075069 0.027428
v -0.029902 -0.074856 0.028451
v -0.030911 -0.074693 0.029783
v -0.031546 -0.07459 0.031335
v -0.031762 -0.074555 0.033
v -0.031546 -0.07459 0.034665
v -0.030911 -0.074693 0.036217
v -0.029902 -0.074856 0.037549
v -0.028587 -0.075069 0.038572
v -0.027055 -0.075317 0.039214
v -0.025415 -0.075605 0.039394
v -0.023781 -0.075869 0.039176
v -0.022259 -0.076116 0.038538
v -0.020951 -0.076328 0.037521
v -0.019948 -0.07649 0.036197
v -0.019318 -0.076592 0.034655
v -0.019103 -0.076627 0.033
v -0.019318 -0.076592 0.031345
v -0.019948 -0.07649 0.029803
v -0.020951 -0.076328 0.028479
v -0.022259 -0.076116 0.027462
v -0.023781 -0.075869 0.026824
v -0.025415 -0.075605 0.026606
v -0.027048 -0.07534 0.026824
v -0.028571 -0.075093 0.027462
v -0.029878 -0.074882 0.028479
v -0.030881 -0.074719 0.029803
v -0.031512 -0.074617 0.031345
v -0.031727 -0.074582 0.033
v -0.031512 -0.074617 0.034655
v -0.030881 -0.074719 0.036197
v -0.029878 -0.074882 0.037521
v -0.028571 -0.075093 0.038538
v -0.027048 -0.07534 0.039176
v -0.0226789 -0.0753567 0.0394858
v -0.0277315 -0.0745393 0.0264485
v -0.0322832 -0.0724032 0.0360762
v -0.0177153 -0.0728761 0.0311514
v -0.0178675 -0.0736527 0.0315515
v -0.017854 -0.0737346 0.0334278
v -0.018024 -0.0737383 0.0358026
v -0.022298 -0.0731865 0.0396345
v -0.0286178 -0.0717466 0.0393879
v -0.0317039 -0.0713984 0.0355105
v -0.02962 -0.0718719 0.0276601
v -0.0210522 -0.0724094 0.0273679
v -0.023568 -0.0711156 0.0397339
v -0.031619 -0.0713029 0.0303111
v -0.0275995 -0.0713439 0.0265469
v -0.0240699 -0.0725276 0.0257237
v -0.0198223 -0.0714897 0.0379882
v -0.0166536 -0.0685468 0.03108
v -0.0255076 -0.0699219 0.0259378
v -0.0293835 -0.0691814 0.0279016
v -0.0314188 -0.0688445 0.033769
v -0.0304312 -0.0692375 0.0367545
v -0.0286198 -0.06971 0.0385517
v -0.026908 -0.0663579 0.0401799
v -0.0213665 -0.0671885 0.0254084
v -0.0161938 -0.0677861 0.0295575
v -0.0208082 -0.0671867 0.0399335
v -0.0297029 -0.0657561 0.037198
v -0.0318091 -0.0657032 0.0312406
v -0.029721 -0.065728 0.028887
v -0.0268838 -0.0662072 0.0262639
v -0.0156847 -0.0679944 0.0327714
v -0.0252188 -0.0652807 0.0421438
v -0.0165694 -0.0667586 0.0387115
v -0.0323014 -0.0650448 0.0361496
v -0.0317157 -0.0651426 0.0286847
v -0.0304086 -0.0652188 0.0267235
v -0.0247127 -0.0656381 0.0238227
v -0.015534 -0.067764 0.030042
v -0.032017 -0.063204 0.033
v -0.0319779 -0.0633525 0.029581
v -0.0219505 -0.064987 0.0241782
v -0.0251882 -0.0644498 0.0240971
v -0.019431 -0.065243 0.025639
v -0.0253815 -0.0642795 0.024737
v -0.027822 -0.063884 0.025639
v -0.0317299 -0.0639561 0.0379639
v -0.030408 -0.063465 0.038005
v -0.029217 -0.063658 0.039338
v -0.031568 -0.063277 0.0355915
v -0.022323 -0.0657422 0.0421338
v -0.0152487 -0.0667956 0.0363891
v -0.019431 -0.065243 0.040361
v -0.0156955 -0.0658475 0.0356275
v -0.016328 -0.065745 0.0371
v -0.0253815 -0.0642795 0.041263
v -0.027822 -0.063884 0.040361
v -0.022739 -0.064707 0.041452
v -0.0157189 -0.0664024 0.0280259
v -0.015236 -0.065922 0.033
v -0.015685 -0.06585 0.0304085
v -0.063765 -0.059075 0.0555
v -0.0650867 -0.0665541 0.0559145
v -0.0703539 -0.0656103 0.0546946
v -0.072575 -0.0648915 0.0500933
v -0.0718691 -0.0650062 0.0441616
v -0.0708986 -0.0656567 0.0418789
v -0.0673366 -0.0657399 0.0403728
v -0.0651063 -0.066595 0.0394547
v -0.0592987 -0.067437 0.0415682
v -0.0588393 -0.0671163 0.0429314
v -0.0565058 -0.0678892 0.0473223
v -0.0570796 -0.067401 0.0484022
v -0.0580867 -0.0674577 0.0518705
v -0.0616504 -0.0668805 0.0551001
v -0.064147 -0.0662501 0.0556684
v -0.063025 -0.059195 0.055889
v -0.064506 -0.058955 0.055889
v -0.0674785 -0.058474 0.055379
v -0.0711882 -0.0578732 0.0495975
v -0.0656742 -0.058766 0.04056
v -0.059751 -0.059725 0.040707
v -0.0574115 -0.0601045 0.042787
v -0.055889 -0.060351 0.045538
v -0.055617 -0.060395 0.04868
v -0.056393 -0.060269 0.051734
v -0.058339 -0.059954 0.0541955
v -0.0626988 -0.0582348 0.037748
v -0.0639187 -0.0610582 0.0595081
v -0.0656637 -0.060606 0.0594778
v -0.071633 -0.056788 0.039868
v -0.074764 -0.0562805 0.046512
v -0.073437 -0.056496 0.04225
v -0.071633 -0.056788 0.056132
v -0.073437 -0.056496 0.05375
v -0.074571 -0.056312 0.050976
v -0.0615931 -0.061676 0.0370247
v -0.057204 -0.059125 0.0573955
v -0.061554 -0.05842 0.0589
v -0.0539829 -0.0629897 0.0429903
v -0.052336 -0.059913 0.048
v -0.053621 -0.0639321 0.0445608
v -0.053598 -0.059709 0.05325
v -0.054263 -0.059601 0.054533
v -0.052991 -0.059807 0.043922
v -0.054263 -0.059601 0.041467
v -0.0555605 -0.0627343 0.0551817
v -0.0631078 -0.0615213 0.0588885
v -0.0718246 -0.0600519 0.0392
v -0.0633783 -0.0640002 0.0369631
v -0.070879 -0.0615496 0.0388115
v -0.0741103 -0.0613512 0.0432594
v -0.0751807 -0.0595564 0.0494789
v -0.074845 -0.0612315 0.0511684
v -0.0725996 -0.0610967 0.0544481
v -0.0635421 -0.0630625 0.058925
v -0.0537538 -0.0646478 0.0459341
v -0.0597296 -0.0636797 0.03811
v -0.069571 -0.062086 0.0577297
v -0.054158 -0.0645821 0.0515951
v -0.0573052 -0.0640721 0.0562974
v -0.0533094 -0.0664416 0.0481749
v -0.0577052 -0.0657299 0.057359
v -0.0707549 -0.0636164 0.0574259
v -0.0717087 -0.0640695 0.0572627
v -0.0755493 -0.0628394 0.0502999
v -0.0761379 -0.0633521 0.0495701
v -0.0745146 -0.0635139 0.042283
v -0.0701524 -0.0643216 0.0379265
v -0.058568 -0.0655905 0.0385734
v -0.0574684 -0.0664435 0.0389471
v -0.061673 -0.0657624 0.0595056
v -0.0538111 -0.0673734 0.0508062
v -0.0552323 -0.0727488 0.044259
v -0.0557599 -0.0766139 0.0486093
v -0.0571058 -0.0752481 0.0543851
v -0.0623464 -0.0743989 0.0585471
v -0.0719843 -0.072838 0.0577167
v -0.0748207 -0.0735266 0.0543149
v -0.0772327 -0.0726772 0.0479838
v -0.0758047 -0.0729573 0.0422369
v -0.0708257 -0.0730258 0.0378901
v -0.0671254 -0.0736258 0.0368159
v -0.061474 -0.0745402 0.0378191
v -0.0719104 -0.0745721 0.0386599
v -0.0672544 -0.0747832 0.0589798
v -0.063673 -0.075907 0.058384
v -0.057229 -0.07695 0.042625
v -0.0599836 -0.0760736 0.0396016
v -0.065673 -0.075583 0.05766
v -0.065632 -0.075589 0.057466
v -0.0623692 -0.0761177 0.0566443
v -0.065885 -0.075548 0.057989
v -0.065758 -0.075569 0.057838
v -0.066419 -0.075462 0.0582
v -0.066226 -0.075493 0.058176
v -0.0592343 -0.0760512 0.0560428
v -0.0673754 -0.0753068 0.0576457
v -0.066044 -0.075523 0.058104
v -0.06708 -0.075355 0.057838
v -0.066954 -0.075375 0.057989
v -0.066795 -0.075401 0.058104
v -0.066613 -0.07543 0.058176
v -0.067166 -0.075341 0.05766
v -0.065799 -0.066647 0.057466
v -0.0734544 -0.0652432 0.0476991
v -0.0583186 -0.0678592 0.0551649
v -0.065759 -0.066654 0.05766
v -0.065673 -0.066668 0.057838
v -0.065547 -0.066688 0.057989
v -0.065388 -0.066714 0.058104
v -0.065206 -0.066744 0.058176
v -0.065012 -0.066775 0.0582
v -0.064819 -0.066806 0.058176
v -0.064637 -0.066836 0.058104
v -0.064478 -0.066862 0.057989
v -0.064351 -0.066882 0.057838
v -0.064266 -0.066896 0.05766
v -0.0635196 -0.0608002 0.0592179
v -0.0639493 -0.0608685 0.0589
v -0.0643415 -0.0607519 0.0589
v -0.065657 -0.057756 0.0591055
v -0.0643183 -0.0585565 0.0588654
v -0.0639659 -0.0591633 0.0589
v -0.0636621 -0.0586374 0.0589
v -0.0638594 -0.0584257 0.0588571
v -0.0632872 -0.0597887 0.0589
v -0.0641196 -0.0587581 0.0589
v -0.0633669 -0.0585885 0.0589
v -0.0638805 -0.0597704 0.0589
v -0.0633641 -0.0589132 0.0588824
v -0.063111 -0.0586528 0.0589
v -0.0636668 -0.0582329 0.0589
v -0.0635415 -0.0592856 0.0589
v -0.0641215 -0.0589736 0.0588
v -0.0631875 -0.0590629 0.0588
v -0.0635205 -0.0590334 0.0588
v -0.0633364 -0.0584519 0.0588069
v -0.0638267 -0.0582918 0.0588
v -0.0640932 -0.058734 0.0588
v -0.06331 -0.0596101 0.0588538
v -0.0633393 -0.0594675 0.0588308
v -0.0634728 -0.0593779 0.05882
v -0.0636175 -0.0593727 0.0588
v -0.0637171 -0.0594189 0.0588
v -0.063768 -0.0594659 0.0588
v -0.0638286 -0.059582 0.0588
v -0.0638103 -0.0597291 0.0588
v -0.0637605 -0.0598134 0.0588
v -0.0636456 -0.059888 0.0588
v -0.0634505 -0.0598888 0.0588111
v -0.0637376 -0.0597057 0.0588692
v -0.0635267 -0.0598882 0.0589
v -0.0633818 -0.0597361 0.0589
v -0.0633393 -0.0597251 0.0588455
v -0.063753 -0.0595461 0.0589
v -0.0633953 -0.0594634 0.058868
v -0.0637027 -0.0597591 0.0589
v -0.0635388 -0.059771 0.0589
v -0.0634254 -0.0596865 0.0588
v -0.0634639 -0.0597571 0.0588
v -0.0635807 -0.0596885 0.0588
v -0.0635628 -0.0596426 0.0588
v -0.0635568 -0.0597581 0.0588
v -0.063626 -0.0594715 0.0588677
v -0.0634507 -0.0596036 0.0589
v -0.0635413 -0.0596892 0.0589
v -0.063498 -0.0597074 0.0589
v -0.0634642 -0.0596945 0.0589
v -0.024459 0.067797 0.034316
v -0.025156 0.067684 0.033382
v -0.024458 0.067797 0.033016
v -0.023527 0.067948 0.033156
v -0.025149 0.067685 0.033617
v -0.023767 0.067909 0.03345
v -0.025039 0.0677025 0.0339865
v -0.0239336 0.0677237 0.0329289
v -0.0241819 0.0675883 0.0334245
v -0.0280617 0.0669599 0.0368772
v -0.0244425 0.0676124 0.041307
v -0.0215158 0.0680829 0.0400916
v -0.0246533 0.0675119 0.0408075
v -0.0202833 0.0685034 0.0370325
v -0.0208712 0.0681245 0.0388837
v -0.020676 0.0681562 0.0358257
v -0.0255494 0.0675338 0.0411741
v -0.0208311 0.0683146 0.0392056
v -0.0261053 0.0675657 0.0332408
v -0.0286389 0.0670899 0.0365932
v -0.028609 0.067166 0.0375047
v -0.0277804 0.0672434 0.0397334
v -0.0270558 0.0674584 0.0404759
v -0.0239541 0.067958 0.0413414
v -0.0228227 0.0680961 0.0409915
v -0.0211303 0.06832 0.0344994
v -0.0254023 0.0678704 0.0327806
v -0.0275473 0.0675822 0.0336901
v -0.0274969 0.0673518 0.0341919
v -0.0288632 0.0673375 0.0359932
v -0.028325 0.0674648 0.0397993
v -0.0257589 0.0678332 0.041437
v -0.0218973 0.0683842 0.0406073
v -0.0202193 0.0686563 0.0377378
v -0.0237244 0.0680584 0.032875
v -0.0291123 0.0673101 0.0375402
v -0.0230886 0.0682722 0.0416802
v -0.0223926 0.0683808 0.0411922
v -0.0198878 0.0688044 0.0366949
v -0.024381 0.0680698 0.0325065
v -0.0206276 0.0686879 0.0393645
v -0.0205238 0.0686887 0.0349332
v -0.0215289 0.0685388 0.0335169
v -0.0222614 0.0684249 0.0332062
v -0.0288685 0.0671396 0.0345914
v -0.0284395 0.0673823 0.039971
v -0.0227646 0.0682147 0.0418704
v -0.0200346 0.0685872 0.0346785
v -0.0259262 0.0673704 0.03216
v -0.0269128 0.067616 0.0328498
v -0.0205407 0.068203 0.040443
v -0.0208403 0.0685469 0.0405012
v -0.0195714 0.0686526 0.0383715
v -0.0232332 0.0681317 0.0322266
v -0.0296209 0.0667459 0.0376261
v -0.0288776 0.0670369 0.0396605
v -0.0247184 0.0677823 0.0423274
v -0.0211196 0.0678119 0.0331024
v -0.0275451 0.0669218 0.0330896
v -0.0295135 0.0665993 0.0369901
v -0.0274592 0.0669883 0.0413715
v -0.0251262 0.0671838 0.0421435
v -0.020495 0.0680801 0.0408213
v -0.0193701 0.0682775 0.0364769
v -0.0232877 0.067605 0.0320413
v -0.0257838 0.0668286 0.0324691
v -0.0278462 0.0666744 0.0334207
v -0.0285086 0.0664391 0.0395245
v -0.0273524 0.0666585 0.0410032
v -0.023754 0.0672427 0.0420152
v -0.0198392 0.068003 0.0348531
v -0.0281266 0.0664974 0.0341096
v -0.0291152 0.0666001 0.0350334
v -0.0208168 0.067648 0.0403029
v -0.0193805 0.0680934 0.0377358
v -0.0285366 0.0663632 0.0349506
v -0.029009 0.066317 0.037116
v -0.0289864 0.06628 0.0381905
v -0.0255982 0.0668579 0.041739
v -0.0220868 0.0674275 0.0413329
v -0.0198916 0.06784 0.0390258
v -0.020297 0.067728 0.034751
v -0.0215206 0.0675153 0.0333464
v -0.0232194 0.0672697 0.0324186
v -0.0253882 0.0668859 0.0325479
v -0.019705 0.0678049 0.0366425
v -0.0196669 0.0678132 0.0400638
v -0.0189771 0.0679248 0.0358552
v -0.0214275 0.0675278 0.0323846
v -0.0255829 0.0668552 0.0316865
v -0.0290071 0.0663003 0.0341663
v -0.0296981 0.0661888 0.0383758
v -0.0272486 0.0665847 0.041847
v -0.0230924 0.0672579 0.0425466
v -0.0241121 0.0740017 0.031704
v -0.0207205 0.0745507 0.0342298
v -0.0200848 0.0746539 0.0384479
v -0.0237678 0.074265 0.0428355
v -0.0267428 0.0735754 0.042529
v -0.0301357 0.0730261 0.0400018
v -0.0307711 0.0729233 0.0357846
v -0.0282777 0.0733269 0.0323474
v -0.0212657 0.075089 0.0416585
v -0.0193387 0.0751487 0.0372426
v -0.0253609 0.0741735 0.0308882
v -0.0297455 0.0734631 0.0326219
v -0.0299227 0.0734344 0.0414308
v -0.027047 0.073912 0.043008
v -0.0194574 0.0755131 0.0387182
v -0.0251537 0.0745642 0.0434238
v -0.026331 0.074331 0.030565
v -0.027873 0.074082 0.030955
v -0.0281683 0.0740506 0.0313519
v -0.0317409 0.0733639 0.0365235
v -0.031887 0.073432 0.038593
v -0.031345 0.073519 0.040107
v -0.027733 0.0741221 0.0430651
v -0.019842 0.0753908 0.0344696
v -0.019729 0.075401 0.034125
v -0.0215963 0.0750254 0.0321017
v -0.021797 0.075066 0.031712
v -0.0232 0.074839 0.030955
v -0.024742 0.074589 0.030565
v -0.019574 0.075223 0.033955
v -0.020435 0.075084 0.032659
v -0.020446 0.075127 0.032662
v -0.02049 0.075075 0.032609
v -0.021652 0.074887 0.031548
v -0.021662 0.07493 0.031552
v -0.021698 0.074879 0.031523
v -0.023097 0.074653 0.030769
v -0.023106 0.074696 0.030773
v -0.023128 0.074648 0.030761
v -0.024686 0.074395 0.030367
v -0.024694 0.074439 0.030372
v -0.029311 0.073646 0.031523
v -0.029358 0.073639 0.031548
v -0.029362 0.073683 0.031552
v -0.030519 0.073451 0.032609
v -0.030574 0.073442 0.032659
v -0.030577 0.073486 0.032662
v -0.031436 0.073302 0.033955
v -0.031489 0.073294 0.034035
v -0.031491 0.073338 0.034037
v -0.019532 0.075275 0.034037
v -0.0189966 0.0753615 0.0354991
v -0.018993 0.075337 0.035483
v -0.019521 0.075232 0.034035
v -0.0189901 0.0753189 0.035479
v -0.019579 0.075349 0.034055
v -0.019003 0.075403 0.03557
v -0.019552 0.075315 0.034044
v -0.019001 0.075385 0.035529
v -0.0190093 0.0754348 0.0356386
v -0.01906 0.075465 0.035611
v -0.0190572 0.0755228 0.0364123
v -0.0191 0.075483 0.03562
v -0.019143 0.075491 0.035629
v -0.032034 0.073298 0.035573
v -0.032025 0.073333 0.035604
v -0.032 0.073369 0.035611
v -0.031929 0.07342 0.035629
v -0.0320422 0.0733443 0.0357265
v -0.031967 0.073399 0.03562
v -0.03147 0.073423 0.034055
v -0.031485 0.073382 0.034044
v -0.032034 0.073293 0.035565
v -0.032027 0.073251 0.035501
v -0.032029 0.073264 0.035514
v -0.03202 0.073207 0.035479
v -0.0320241 0.0732338 0.0354858
v -0.027888 0.074074 0.030914
v -0.026336 0.074326 0.030521
v -0.027901 0.074057 0.030874
v -0.026339 0.07431 0.030479
v -0.027911 0.074031 0.030839
v -0.029301 0.073845 0.031675
v -0.029322 0.073827 0.031641
v -0.02934 0.0738 0.03161
v -0.029353 0.073766 0.031584
v -0.031383 0.073508 0.034105
v -0.031418 0.073488 0.034086
v -0.031447 0.073459 0.034069
v -0.030489 0.073653 0.032761
v -0.030518 0.073633 0.032733
v -0.030543 0.073605 0.032708
v -0.030561 0.07357 0.032687
v -0.030573 0.07353 0.032672
v -0.019689 0.075402 0.034105
v -0.019649 0.075394 0.034086
v -0.019612 0.075375 0.034069
v -0.026335 0.074216 0.030386
v -0.02633 0.074174 0.030372
v -0.027918 0.073917 0.030773
v -0.026339 0.074286 0.030442
v -0.027917 0.073998 0.030809
v -0.02936 0.073726 0.031564
v -0.026338 0.074254 0.03041
v -0.027919 0.07396 0.030787
v -0.027912 0.073873 0.030769
v -0.024697 0.074394 0.030367
v -0.026313 0.074132 0.030367
v -0.026324 0.07413 0.030367
v -0.027882 0.073878 0.030761
v -0.024702 0.074481 0.030386
v -0.024711 0.074518 0.03041
v -0.02472 0.074548 0.030442
v -0.024728 0.074571 0.030479
v -0.024736 0.074585 0.030521
v -0.023118 0.074737 0.030787
v -0.023133 0.074773 0.030809
v -0.023149 0.074803 0.030839
v -0.023166 0.074824 0.030874
v -0.023183 0.074836 0.030914
v -0.021677 0.074971 0.031564
v -0.021696 0.075006 0.031584
v -0.021719 0.075034 0.03161
v -0.021745 0.075054 0.031641
v -0.021771 0.075065 0.031675
v -0.020464 0.075167 0.032672
v -0.020488 0.075202 0.032687
v -0.020517 0.075229 0.032708
v -0.020549 0.075248 0.032733
v -0.020583 0.075257 0.032761
v -0.0305776 0.0734356 0.0415693
v -0.030577 0.073494 0.041569
v -0.030519 0.073451 0.041624
v -0.029358 0.073639 0.042684
v -0.029362 0.07369 0.042679
v -0.029311 0.073646 0.042709
v -0.027912 0.073873 0.043464
v -0.027918 0.073924 0.043457
v -0.02049 0.075075 0.041624
v -0.020435 0.075084 0.041573
v -0.020449 0.075134 0.041569
v -0.019574 0.075223 0.040277
v -0.019521 0.075232 0.040197
v -0.019535 0.075282 0.040194
v -0.019006 0.075416 0.038633
v -0.019041 0.075453 0.038625
v -0.031491 0.073346 0.040194
v -0.031962 0.0729801 0.0390458
v -0.0320396 0.0733339 0.0385633
v -0.032036 0.073306 0.038632
v -0.031978 0.07339 0.038616
v -0.031935 0.073417 0.038605
v -0.0318774 0.0734568 0.0380807
v -0.0190128 0.0754513 0.0385253
v -0.018998 0.075369 0.038724
v -0.01956 0.075327 0.040185
v -0.01899 0.075318 0.038753
v -0.0189915 0.075331 0.0387531
v -0.021767 0.075064 0.042563
v -0.023181 0.074835 0.043325
v -0.021736 0.075049 0.042602
v -0.02316 0.074818 0.04337
v -0.021707 0.075021 0.042636
v -0.031389 0.073505 0.04013
v -0.031428 0.073479 0.040152
v -0.03146 0.073441 0.040171
v -0.0198555 0.0753842 0.0404965
v -0.019595 0.075363 0.040171
v -0.0190024 0.0753981 0.0386846
v -0.020538 0.075243 0.041508
v -0.020502 0.075216 0.041535
v -0.020471 0.075179 0.041556
v -0.031481 0.073396 0.040185
v -0.032031 0.073275 0.038703
v -0.023123 0.07475 0.043439
v -0.023108 0.074703 0.043457
v -0.021664 0.074937 0.042679
v -0.023141 0.074789 0.043409
v -0.021683 0.074983 0.042662
v -0.021652 0.074887 0.042684
v -0.024697 0.074394 0.043865
v -0.024686 0.074395 0.043865
v -0.024695 0.074446 0.043859
v -0.024705 0.074493 0.043839
v -0.024716 0.074534 0.043807
v -0.024726 0.074564 0.043766
v -0.024735 0.074583 0.043718
v -0.023128 0.074648 0.043471
v -0.023097 0.074653 0.043464
v -0.021698 0.074879 0.042709
v -0.027882 0.073878 0.043471
v -0.026324 0.07413 0.043865
v -0.026331 0.074181 0.043859
v -0.026313 0.074132 0.043865
v -0.026336 0.074229 0.043839
v -0.026339 0.074271 0.043807
v -0.026339 0.074303 0.043766
v -0.027919 0.073973 0.043439
v -0.027914 0.074016 0.043409
v -0.027905 0.074049 0.04337
v -0.0280324 0.0740562 0.0432581
v -0.029359 0.07374 0.042662
v -0.029347 0.073784 0.042636
v -0.029329 0.073819 0.042602
v -0.029305 0.073843 0.042563
v -0.03057 0.073544 0.041556
v -0.030553 0.073588 0.041535
v -0.030527 0.073625 0.041508
v -0.030494 0.07365 0.041476
v -0.017791 0.067914 0.038753
v -0.017791 0.067914 0.035479
v -0.018312 0.06783 0.034054
v -0.018377 0.067819 0.033956
v -0.019226 0.067682 0.032671
v -0.019216 0.0676271 0.0326659
v -0.020443 0.067485 0.031555
v -0.0205 0.067476 0.031524
v -0.021892 0.06725 0.030771
v -0.0218855 0.067197 0.0307664
v -0.023485 0.066992 0.030367
v -0.023497 0.06699 0.030367
v -0.025114 0.066728 0.030367
v -0.030821 0.065804 0.035479
v -0.030299 0.065888 0.034054
v -0.030235 0.065899 0.033956
v -0.029319 0.066047 0.03261
v -0.0281606 0.0661796 0.0315506
v -0.028112 0.066243 0.031524
v -0.026682 0.066474 0.030762
v -0.0251144 0.066668 0.0303619
v -0.030821 0.065804 0.038753
v -0.0302989 0.0658877 0.0401792
v -0.029386 0.066036 0.041561
v -0.029319 0.066047 0.041622
v -0.028168 0.066234 0.042677
v -0.028112 0.066243 0.042708
v -0.02672 0.066468 0.043461
v -0.026682 0.066474 0.043471
v -0.025127 0.066726 0.043865
v -0.025114 0.066728 0.043865
v -0.023497 0.06699 0.043865
v -0.018312 0.06783 0.040179
v -0.018377 0.067819 0.040276
v -0.019226 0.067682 0.041561
v -0.019292 0.067671 0.041622
v -0.020443 0.067485 0.042677
v -0.0205 0.067476 0.042708
v -0.021892 0.06725 0.043461
v -0.021929 0.067244 0.043471
v -0.023485 0.066992 0.043865
v -0.0158754 0.0678817 0.0360597
v -0.017514 0.067664 0.038781
v -0.017555 0.067668 0.038777
v -0.017514 0.067663 0.035451
v -0.0175203 0.0676634 0.0354503
v -0.017525 0.067664 0.03878
v -0.017639 0.067699 0.035465
v -0.017579 0.067677 0.038774
v -0.017544 0.067666 0.035454
v -0.0176083 0.0676855 0.0354634
v -0.017739 0.067792 0.038757
v -0.017726 0.067772 0.038758
v -0.017696 0.06774 0.035471
v -0.0177443 0.0677936 0.0354754
v -0.017705 0.067749 0.03876
v -0.017695 0.067741 0.038761
v -0.017669 0.067721 0.035468
v -0.017649 0.067705 0.038766
v -0.017641 0.067701 0.035465
v -0.017641 0.067701 0.038767
v -0.017622 0.067691 0.038769
v -0.017771 0.067847 0.035478
v -0.017772 0.06785 0.035478
v -0.017776 0.067859 0.038754
v -0.017772 0.06785 0.038754
v -0.017764 0.067831 0.038755
v -0.018139 0.067595 0.033986
v -0.030946 0.065512 0.035458
v -0.030918 0.065532 0.035462
v -0.03039 0.065611 0.033986
v -0.0308214 0.0657033 0.0354773
v -0.030295 0.06581 0.034049
v -0.030818 0.065733 0.035478
v -0.030818 0.065737 0.035478
v -0.0308502 0.0656163 0.0354708
v -0.03031 0.065735 0.034035
v -0.030831 0.065671 0.035475
v -0.030897 0.065552 0.035465
v -0.030895 0.065555 0.035465
v -0.030342 0.065667 0.034014
v -0.030875 0.065582 0.035468
v -0.030856 0.065609 0.035471
v -0.030999 0.0654792 0.0354515
v -0.030449 0.065571 0.033953
v -0.031004 0.065478 0.035451
v -0.030515 0.06555 0.033918
v -0.018 0.067577 0.033918
v -0.01807 0.067576 0.033953
v -0.018201 0.067633 0.034014
v -0.018253 0.067688 0.034035
v -0.018291 0.067755 0.034049
v -0.0267111 0.0664126 0.0307664
v -0.020425 0.067409 0.031546
v -0.021103 0.0671373 0.0309496
v -0.0234431 0.0667727 0.0302978
v -0.025963 0.0664208 0.0304324
v -0.0260067 0.0662933 0.030294
v -0.0281753 0.0659809 0.0314535
v -0.0293786 0.0658265 0.0326289
v -0.019093 0.067453 0.0326135
v -0.0182888 0.0674606 0.0312492
v -0.021737 0.066971 0.030491
v -0.0265071 0.0661785 0.0285949
v -0.029562 0.065704 0.032475
v -0.030837 0.065648 0.038758
v -0.030946 0.065512 0.038774
v -0.031005 0.065479 0.038781
v -0.0326661 0.0651972 0.0360714
v -0.030994 0.065482 0.03878
v -0.030967 0.065496 0.038777
v -0.03085 0.06562 0.03876
v -0.03091 0.065539 0.038769
v -0.030895 0.065555 0.038767
v -0.030889 0.065561 0.038766
v -0.030856 0.06561 0.038761
v -0.030831 0.065671 0.038757
v -0.030819 0.065716 0.038755
v -0.030818 0.065737 0.038754
v -0.030817 0.065747 0.038754
v -0.018225 0.067655 0.040208
v -0.018265 0.067706 0.040192
v -0.030327 0.065694 0.040208
v -0.030515 0.06555 0.040314
v -0.030458 0.065566 0.040284
v -0.030405 0.065597 0.040255
v -0.030361 0.065641 0.040229
v -0.030304 0.065756 0.040192
v -0.030295 0.065821 0.040182
v -0.018295 0.067765 0.040182
v -0.018175 0.067614 0.040229
v -0.018119 0.067587 0.040255
v -0.01806 0.067574 0.040284
v -0.019209 0.067617 0.041566
v -0.020428 0.06742 0.042684
v -0.021878 0.067185 0.043468
v -0.023473 0.066926 0.043872
v -0.025117 0.06666 0.043872
v -0.026712 0.066402 0.043468
v -0.028162 0.066167 0.042684
v -0.02938 0.06597 0.041566
v -0.029387 0.065904 0.04158
v -0.028164 0.066102 0.042702
v -0.026709 0.066338 0.043489
v -0.025109 0.066597 0.043894
v -0.02346 0.066864 0.043894
v -0.02186 0.067123 0.043489
v -0.020405 0.067359 0.042702
v -0.019183 0.067557 0.04158
v -0.029405 0.065844 0.041604
v -0.028175 0.066043 0.042731
v -0.026713 0.06628 0.043522
v -0.025105 0.06654 0.04393
v -0.023447 0.066809 0.04393
v -0.021838 0.067069 0.043522
v -0.020376 0.067306 0.042731
v -0.019147 0.067505 0.041604
v -0.029432 0.065791 0.041635
v -0.028195 0.065992 0.04277
v -0.026722 0.06623 0.043566
v -0.025103 0.066492 0.043977
v -0.023433 0.066763 0.043977
v -0.021814 0.067025 0.043566
v -0.020341 0.067264 0.04277
v -0.019104 0.067464 0.041635
v -0.029469 0.065749 0.041672
v -0.028221 0.065951 0.042816
v -0.026737 0.066192 0.04362
v -0.025104 0.066456 0.044034
v -0.023421 0.066729 0.044034
v -0.021788 0.066993 0.04362
v -0.020303 0.067234 0.042816
v -0.019056 0.067436 0.041672
v -0.029513 0.065719 0.041713
v -0.028254 0.065923 0.042868
v -0.026756 0.066166 0.043679
v -0.025108 0.066433 0.044096
v -0.02341 0.066708 0.044096
v -0.021762 0.066975 0.043679
v -0.020264 0.067217 0.042868
v -0.019005 0.067421 0.041713
v -0.029562 0.065704 0.041757
v -0.028291 0.06591 0.042923
v -0.026778 0.066155 0.043741
v -0.025115 0.066424 0.044163
v -0.0234 0.066702 0.044163
v -0.0305203 0.065549 0.0314152
v -0.015949 0.0678461 0.0405347
v -0.0310201 0.0654079 0.0429235
v -0.0208139 0.0670791 0.0449161
v -0.0171608 0.0675575 0.0427349
v -0.0175119 0.0675199 0.0312341
v -0.0159088 0.0677618 0.0336947
v -0.0258 0.066175 0.0282233
v -0.0227222 0.0666647 0.0281998
v -0.0326188 0.0650711 0.034038
v -0.0311128 0.0653179 0.031345
v -0.0326177 0.0650571 0.0401857
v -0.0314178 0.0652679 0.0424139
v -0.0249729 0.0663477 0.0462873
v -0.022259 0.064785 0.045956
v -0.017202 0.065604 0.042998
v -0.015535 0.065874 0.037116
v -0.017202 0.065604 0.031234
v -0.022259 0.064785 0.028276
v -0.025592 0.064245 0.028276
v -0.03065 0.063426 0.031234
v -0.032317 0.063156 0.037116
v -0.025592 0.064245 0.045956
v -0.067319 0.056778 0.0288
v -0.052758 0.059136 0.0452
v -0.053958 0.058942 0.040708
v -0.06662 0.056891 0.036975
v -0.063361 0.057419 0.031818
v -0.057845 0.058312 0.028821
v -0.052758 0.059136 0.0288
v -0.053457 0.059023 0.0355395
v -0.0253985 -0.0751012 0.0686162
v -0.0214589 -0.0757389 0.0670156
v -0.0197912 -0.0760093 0.0630648
v -0.0213681 -0.0757533 0.0590765
v -0.0252703 -0.0751218 0.0573838
v -0.02921 -0.0744838 0.0589837
v -0.0287414 -0.0665395 0.0607475
v -0.0308781 -0.0742132 0.0629348
v -0.0293624 -0.0663692 0.0646358
v -0.0293008 -0.0744692 0.0669243
v -0.0266665 -0.0668061 0.0679568
v -0.019334 -0.0766091 0.0640393
v -0.019392 -0.076595 0.064635
v -0.020015 -0.076494 0.066159
v -0.0232673 -0.0759706 0.0688556
v -0.023803 -0.075881 0.069103
v -0.025417 -0.075619 0.069319
v -0.0293498 -0.0749853 0.0678128
v -0.029828 -0.074905 0.067468
v -0.030819 -0.074744 0.066159
v -0.0314966 -0.0746367 0.0619554
v -0.031442 -0.074643 0.061365
v -0.030819 -0.074744 0.059841
v -0.027565 -0.075274 0.057144
v -0.027031 -0.075358 0.056897
v -0.025417 -0.075619 0.056681
v -0.0214878 -0.07626 0.0581827
v -0.021006 -0.076334 0.058532
v -0.020015 -0.076494 0.059841
v -0.025401 -0.075519 0.056507
v -0.0212654 -0.0758139 0.0573531
v -0.023742 -0.075787 0.056728
v -0.022185 -0.07601 0.057365
v -0.022196 -0.076038 0.057377
v -0.020854 -0.076225 0.058399
v -0.020868 -0.076253 0.058409
v -0.019834 -0.07639 0.059747
v -0.01985 -0.076418 0.059753
v -0.019192 -0.076494 0.061316
v -0.01921 -0.076521 0.061319
v -0.018973 -0.07653 0.063
v -0.018991 -0.076557 0.063
v -0.019192 -0.076494 0.064684
v -0.01921 -0.076521 0.064681
v -0.019834 -0.07639 0.066253
v -0.01985 -0.076418 0.066247
v -0.020854 -0.076225 0.067601
v -0.020868 -0.076253 0.067591
v -0.022185 -0.07601 0.068635
v -0.022196 -0.076038 0.068623
v -0.023734 -0.075759 0.069285
v -0.023742 -0.075787 0.069272
v -0.025396 -0.075489 0.069507
v -0.025401 -0.075519 0.069493
v -0.027058 -0.07522 0.069285
v -0.02706 -0.07525 0.069272
v -0.028608 -0.074969 0.068635
v -0.028606 -0.074999 0.068623
v -0.029938 -0.074754 0.067601
v -0.029933 -0.074784 0.067591
v -0.030959 -0.074588 0.066253
v -0.030952 -0.074619 0.066247
v -0.0316 -0.074484 0.064684
v -0.031592 -0.074516 0.064681
v -0.031819 -0.074449 0.063
v -0.03181 -0.07448 0.063
v -0.0316 -0.074484 0.061316
v -0.031592 -0.074516 0.061319
v -0.030959 -0.074588 0.059747
v -0.030952 -0.074619 0.059753
v -0.029938 -0.074754 0.058399
v -0.0292303 -0.0748461 0.0577235
v -0.028606 -0.074999 0.057377
v -0.02706 -0.07525 0.056728
v -0.025417 -0.075617 0.056649
v -0.027039 -0.075354 0.056865
v -0.028551 -0.075109 0.0575
v -0.02985 -0.074899 0.058509
v -0.030846 -0.074737 0.059824
v -0.031473 -0.074636 0.061356
v -0.031686 -0.074601 0.063
v -0.031473 -0.074636 0.064644
v -0.030846 -0.074737 0.066176
v -0.02985 -0.074899 0.067491
v -0.028551 -0.075109 0.0685
v -0.027039 -0.075354 0.069135
v -0.025417 -0.075617 0.069351
v -0.023794 -0.075879 0.069135
v -0.022282 -0.076124 0.0685
v -0.020983 -0.076335 0.067491
v -0.019987 -0.076496 0.066176
v -0.019361 -0.076597 0.064644
v -0.019147 -0.076632 0.063
v -0.019361 -0.076597 0.061356
v -0.019987 -0.076496 0.059824
v -0.020983 -0.076335 0.058509
v -0.022282 -0.076124 0.0575
v -0.023794 -0.075879 0.056865
v -0.025407 -0.075554 0.069467
v -0.023754 -0.075822 0.069247
v -0.022215 -0.076071 0.068601
v -0.020893 -0.076285 0.067573
v -0.019878 -0.07645 0.066234
v -0.01924 -0.076553 0.064674
v -0.019023 -0.076588 0.063
v -0.01924 -0.076553 0.061326
v -0.019878 -0.07645 0.059766
v -0.020893 -0.076285 0.058427
v -0.022215 -0.076071 0.057399
v -0.023754 -0.075822 0.056753
v -0.025407 -0.075554 0.056533
v -0.027059 -0.075287 0.056753
v -0.028598 -0.075037 0.057399
v -0.029921 -0.074823 0.058427
v -0.030935 -0.074659 0.059766
v -0.031573 -0.074556 0.061326
v -0.03179 -0.07452 0.063
v -0.031573 -0.074556 0.064674
v -0.030935 -0.074659 0.066234
v -0.029921 -0.074823 0.067573
v -0.028598 -0.075037 0.068601
v -0.027059 -0.075287 0.069247
v -0.025411 -0.075584 0.069433
v -0.023768 -0.07585 0.069214
v -0.022236 -0.076098 0.068572
v -0.020921 -0.076311 0.067549
v -0.019911 -0.076474 0.066217
v -0.019277 -0.076577 0.064665
v -0.019061 -0.076612 0.063
v -0.019277 -0.076577 0.061335
v -0.019911 -0.076474 0.059783
v -0.020921 -0.076311 0.058451
v -0.022236 -0.076098 0.057428
v -0.023768 -0.07585 0.056786
v -0.025411 -0.075584 0.056566
v -0.027055 -0.075317 0.056786
v -0.028587 -0.075069 0.057428
v -0.029902 -0.074856 0.058451
v -0.030911 -0.074693 0.059783
v -0.031546 -0.07459 0.061335
v -0.031762 -0.074555 0.063
v -0.031546 -0.07459 0.064665
v -0.030911 -0.074693 0.066217
v -0.029902 -0.074856 0.067549
v -0.028587 -0.075069 0.068572
v -0.027055 -0.075317 0.069214
v -0.025415 -0.075605 0.069394
v -0.023781 -0.075869 0.069176
v -0.022259 -0.076116 0.068538
v -0.020951 -0.076328 0.067521
v -0.019948 -0.07649 0.066197
v -0.019318 -0.076592 0.064655
v -0.019103 -0.076627 0.063
v -0.019318 -0.076592 0.061345
v -0.019948 -0.07649 0.059803
v -0.020951 -0.076328 0.058479
v -0.022259 -0.076116 0.057462
v -0.023781 -0.075869 0.056824
v -0.025415 -0.075605 0.056606
v -0.027048 -0.07534 0.056824
v -0.028571 -0.075093 0.057462
v -0.029878 -0.074882 0.058479
v -0.030881 -0.074719 0.059803
v -0.031512 -0.074617 0.061345
v -0.031727 -0.074582 0.063
v -0.031512 -0.074617 0.064655
v -0.030881 -0.074719 0.066197
v -0.029878 -0.074882 0.067521
v -0.028571 -0.075093 0.068538
v -0.027048 -0.07534 0.069176
v -0.0184476 -0.0760423 0.0639381
v -0.0277315 -0.0745393 0.0564485
v -0.032163 -0.0738201 0.06206
v -0.0295378 -0.0742454 0.0685472
v -0.0187137 -0.0733458 0.0593365
v -0.0178675 -0.0736527 0.0615515
v -0.017854 -0.0737346 0.0634278
v -0.0194367 -0.0734883 0.0678243
v -0.0220095 -0.0734738 0.0697097
v -0.0234985 -0.0729922 0.0697223
v -0.0260015 -0.072587 0.0698521
v -0.0292433 -0.0720615 0.0684032
v -0.0309231 -0.0716107 0.0668207
v -0.0316482 -0.0714986 0.0607334
v -0.0297975 -0.0719717 0.0579692
v -0.0226295 -0.0728818 0.0560942
v -0.0210241 -0.07322 0.0570096
v -0.0186728 -0.0727817 0.0664576
v -0.0237507 -0.0724516 0.0702746
v -0.0282117 -0.0712371 0.0692027
v -0.0275942 -0.0705345 0.0563752
v -0.0275995 -0.0713439 0.0565469
v -0.0249302 -0.0723395 0.0557527
v -0.031807 -0.0706546 0.0631053
v -0.0313073 -0.0692776 0.0640213
v -0.0293823 -0.0692902 0.0680225
v -0.0273022 -0.0695111 0.0694532
v -0.0237437 -0.0700879 0.0700076
v -0.0219754 -0.0703733 0.0695687
v -0.0196195 -0.0707624 0.0680969
v -0.017478 -0.071125 0.0640095
v -0.0180157 -0.071016 0.0604446
v -0.0194727 -0.0707862 0.0580518
v -0.021051 -0.070552 0.056938
v -0.0214122 -0.0671709 0.0553871
v -0.0279174 -0.0694189 0.0567975
v -0.0299271 -0.0690863 0.0585861
v -0.0313252 -0.0690964 0.0614332
v -0.0175685 -0.0677148 0.0599969
v -0.016253 -0.0678791 0.0641233
v -0.0175148 -0.0677309 0.0659313
v -0.0211004 -0.0671555 0.0697792
v -0.0279338 -0.066374 0.0700255
v -0.0318741 -0.0653334 0.0619098
v -0.0313591 -0.0653678 0.0593683
v -0.0287486 -0.0658865 0.0566251
v -0.0233362 -0.0667622 0.0558953
v -0.0167198 -0.067204 0.0688388
v -0.0260066 -0.0661979 0.0716504
v -0.0248643 -0.0662527 0.07195
v -0.022985 -0.066558 0.07195
v -0.032315 -0.065046 0.065958
v -0.0320329 -0.0650921 0.0666787
v -0.031092 -0.065244 0.068317
v -0.031106 -0.065242 0.057701
v -0.0241322 -0.0663709 0.0540068
v -0.0153438 -0.0672664 0.0595748
v -0.0167426 -0.0675686 0.068297
v -0.0152424 -0.0668879 0.0662887
v -0.0164666 -0.0658591 0.0682985
v -0.0224014 -0.0656391 0.0721642
v -0.015413 -0.065894 0.064736
v -0.0181375 -0.0654525 0.069183
v -0.0221418 -0.0649519 0.0540807
v -0.0166109 -0.0665756 0.0572231
v -0.0155273 -0.066011 0.0593493
v -0.015236 -0.065922 0.063
v -0.016844 -0.065662 0.057995
v -0.018036 -0.065469 0.056662
v -0.0303437 -0.0636276 0.0570991
v -0.0251268 -0.0651954 0.0538357
v -0.019431 -0.065243 0.055639
v -0.024514 -0.06442 0.054548
v -0.0320381 -0.063337 0.0600421
v -0.0312361 -0.0634671 0.0583278
v -0.027822 -0.063884 0.055639
v -0.0253491 -0.0644361 0.0718223
v -0.0309169 -0.0642591 0.0687785
v -0.032028 -0.0633498 0.0661397
v -0.029217 -0.063658 0.069338
v -0.031568 -0.063277 0.0655915
v -0.032017 -0.063204 0.063
v -0.030408 -0.063465 0.068005
v -0.0245885 -0.0645433 0.07195
v -0.027822 -0.063884 0.070361
v -0.022739 -0.064707 0.071452
v -0.021003 -0.064988 0.071074
v -0.0266057 -0.0668209 0.0655793
v -0.026013 -0.066912 0.06597
v -0.02699 -0.066754 0.06498
v -0.025908 -0.066929 0.065116
v -0.025839 -0.06694 0.065274
v -0.025811 -0.066945 0.065443
v -0.025879 -0.066934 0.065779
v -0.0267489 -0.067604 0.0656121
v -0.0272235 -0.0675237 0.0650825
v -0.0275235 -0.067682 0.065141
v -0.026992 -0.067768 0.06581
v -0.027328 -0.06763 0.065152
v -0.0276977 -0.0677064 0.0652593
v -0.027566 -0.067682 0.065108
v -0.0278259 -0.0676427 0.0645357
v -0.028034 -0.067609 0.061965
v -0.0262974 -0.0679227 0.0593339
v -0.026194 -0.067907 0.059536
v -0.023233 -0.068387 0.059268
v -0.0208 -0.068781 0.061
v -0.020406 -0.068845 0.064035
v -0.0204567 -0.0688781 0.0650736
v -0.0208 -0.068781 0.065
v -0.0228195 -0.0685029 0.0670656
v -0.022246 -0.068547 0.066464
v -0.0250143 -0.0681404 0.0671465
v -0.02422 -0.068227 0.067
v -0.026268 -0.067929 0.066585
v -0.0262985 -0.067888 0.0663935
v -0.026348 -0.067823 0.066214
v -0.026332 -0.067875 0.066347
v -0.026273 -0.067731 0.066097
v -0.0265927 -0.0672188 0.0655125
v -0.026178 -0.067607 0.066022
v -0.027056 -0.0672065 0.064973
v -0.027026 -0.0670155 0.064974
v -0.0269509 -0.0667169 0.0672526
v -0.0279742 -0.0669131 0.0599766
v -0.0258007 -0.0670168 0.0580595
v -0.021843 -0.0676573 0.0582673
v -0.0211258 -0.0680226 0.059082
v -0.0191923 -0.0680864 0.0612473
v -0.0193969 -0.0680533 0.0652537
v -0.0202412 -0.068167 0.0660216
v -0.0223384 -0.0675774 0.0679407
v -0.021692 -0.067937 0.067242
v -0.0196239 -0.068462 0.0648591
v -0.019922 -0.068223 0.060551
v -0.0223012 -0.0680276 0.0584269
v -0.026527 -0.067153 0.058758
v -0.0286543 -0.0670025 0.0611406
v -0.0276008 -0.0669518 0.0665353
v -0.0253465 -0.0672583 0.067724
v -0.0242283 -0.0679971 0.0678471
v -0.0228548 -0.0678591 0.0678103
v -0.019352 -0.0686249 0.0634838
v -0.0193793 -0.068425 0.0617098
v -0.0236842 -0.0679219 0.0581305
v -0.0253984 -0.0674478 0.0581895
v -0.0289653 -0.0670658 0.0625191
v -0.0288756 -0.0668872 0.0642873
v -0.026599 -0.0673639 0.067326
v -0.0217367 -0.0683748 0.0672269
v -0.0200052 -0.0686534 0.0605263
v -0.0266237 -0.067583 0.0587736
v -0.0282883 -0.0673303 0.0655321
v -0.026551 -0.067488 0.067191
v -0.0269649 -0.0676229 0.066827
v -0.0235932 -0.0683278 0.0674855
v -0.0208503 -0.0686693 0.0663289
v -0.0195075 -0.0688855 0.0629523
v -0.0209156 -0.0686577 0.0596032
v -0.0242501 -0.0681189 0.0582445
v -0.0275578 -0.0675809 0.0596694
v -0.0288973 -0.0673664 0.0630478
v -0.0214834 -0.0686907 0.0664656
v -0.0199637 -0.0689687 0.0634764
v -0.0208685 -0.0688195 0.0602806
v -0.0237539 -0.0683523 0.0586705
v -0.0269686 -0.0678021 0.059539
v -0.0285283 -0.067573 0.0626493
v -0.0272773 -0.0677549 0.0662543
v -0.0253694 -0.0679598 0.0674795
v -0.0202121 -0.0689241 0.0615577
v -0.0223996 -0.0685699 0.0591046
v -0.0256488 -0.0680255 0.058857
v -0.0280717 -0.0676513 0.0611433
v -0.028402 -0.0675723 0.0641788
v -0.017808 0.0655815 0.032665
v -0.017718 0.065596 0.03279
v -0.017413 0.065646 0.033301
v -0.017561 0.065622 0.033048
v -0.017545 0.065624 0.033048
v -0.0176525 0.065607 0.0329165
v -0.017255 0.065671 0.033553
v -0.017257 0.065671 0.03355
v -0.017256 0.065671 0.033551
v -0.017407 0.065646 0.033259
v -0.017332 0.065659 0.033398
v -0.017373 0.065652 0.033351
v -0.017412 0.065646 0.033302
v -0.028981 0.063772 0.042793
v -0.0289775 0.0637725 0.042789
v -0.029145 0.063745 0.042656
v -0.029148 0.063745 0.04266
v -0.029098 0.063753 0.042705
v -0.029106 0.063752 0.042677
v -0.029142 0.063746 0.0426545
v -0.029146 0.063745 0.042654
v -0.028983 0.063772 0.042829
v -0.0290345 0.063763 0.0427865
v -0.028826 0.063797 0.0429575
v -0.0288096 0.0638 0.042937
v -0.028663 0.063823 0.043091
v -0.028805 0.0638 0.042939
v -0.028812 0.063799 0.042933
v -0.028641 0.063827 0.043109
v -0.0286395 0.0638272 0.043084
v -0.028474 0.063854 0.043229
v -0.028476 0.063854 0.04323
v -0.028585 0.063836 0.043139
v -0.0286385 0.0638275 0.043084
v -0.028478 0.063853 0.043224
v -0.028476 0.063854 0.043231
f 58 59 57
f 57 59 60
f 61 62 60
f 60 62 63
f 64 65 63
f 63 65 66
f 67 68 66
f 66 68 69
f 70 71 69
f 69 71 72
f 73 74 72
f 72 74 57
f 249 261 243
f 261 254 243
f 254 255 243
f 256 258 239
f 239 258 273
f 260 257 251
f 251 257 252
f 247 271 238
f 238 271 261
f 248 267 241
f 241 267 265
f 266 246 274
f 274 246 273
f 246 253 273
f 323 302 311
f 303 304 322
f 364 365 366
f 367 368 361
f 369 370 360
f 368 364 361
f 364 366 361
f 361 366 371
f 362 349 363
f 353 372 360
f 360 370 361
f 370 373 361
f 361 373 367
f 374 375 360
f 375 376 360
f 376 377 360
f 360 377 369
f 372 378 360
f 360 378 374
f 382 379 277
f 382 277 383
f 379 278 277
f 286 381 288
f 288 381 289
f 289 381 277
f 392 385 277
f 385 384 277
f 277 384 383
f 387 390 388
f 390 389 388
f 392 391 385
f 391 390 385
f 385 390 386
f 390 387 386
f 396 304 397
f 304 398 397
f 304 404 398
f 393 313 401
f 304 395 404
f 395 394 404
f 399 398 408
f 408 398 404
f 399 405 403
f 399 400 402
f 401 425 393
f 425 404 393
f 393 404 394
f 397 407 396
f 396 407 313
f 407 412 313
f 313 412 406
f 417 416 408
f 408 416 406
f 406 416 313
f 313 416 401
f 411 410 405
f 405 410 412
f 412 413 400
f 413 397 414
f 397 409 414
f 411 399 408
f 409 398 399
f 429 415 431
f 432 427 433
f 427 428 433
f 434 429 431
f 436 438 435
f 435 438 433
f 437 426 432
f 437 439 426
f 439 430 426
f 439 442 440
f 441 442 439
f 442 443 440
f 431 440 434
f 439 440 431
f 446 445 447
f 448 449 445
f 448 450 444
f 523 530 529
f 530 531 529
f 529 531 526
f 531 532 526
f 526 532 528
f 532 533 528
f 528 533 509
f 533 534 509
f 509 534 519
f 534 535 519
f 519 535 521
f 535 536 521
f 521 536 522
f 536 537 522
f 522 537 523
f 537 530 523
f 554 555 556
f 558 559 690
f 690 559 560
f 562 563 561
f 564 565 563
f 563 565 556
f 565 566 556
f 556 566 554
f 694 747 748
f 596 594 748
f 594 597 748
f 691 682 748
f 748 682 706
f 706 692 748
f 748 692 694
f 590 589 592
f 592 589 748
f 748 589 596
f 692 695 694
f 599 691 748
f 597 599 748
f 577 757 644
f 757 758 644
f 767 646 759
f 646 645 759
f 613 760 611
f 611 760 612
f 768 685 760
f 685 711 760
f 760 711 687
f 687 686 760
f 606 602 760
f 602 610 760
f 760 610 612
f 613 611 614
f 760 686 690
f 690 606 760
f 729 776 731
f 776 777 731
f 787 719 778
f 719 718 778
f 850 933 851
f 851 933 833
f 933 855 833
f 788 848 834
f 855 935 870
f 870 935 928
f 928 935 929
f 849 848 850
f 935 946 929
f 929 946 930
f 930 946 931
f 931 946 932
f 932 946 936
f 937 936 948
f 948 936 947
f 947 936 946
f 939 788 949
f 788 934 949
f 941 848 951
f 951 848 950
f 848 938 950
f 943 850 953
f 953 850 952
f 952 850 940
f 944 855 954
f 954 855 942
f 955 946 935
f 957 962 963
f 959 957 958
f 959 960 956
f 960 962 956
f 962 961 963
f 976 977 975
f 975 977 978
f 979 980 978
f 978 980 981
f 982 983 981
f 981 983 984
f 985 986 984
f 984 986 987
f 988 989 987
f 987 989 990
f 991 992 990
f 990 992 975
f 1190 1200 1173
f 1173 1200 1192
f 1181 1196 1194
f 1197 1205 1168
f 1168 1205 1198
f 1203 1209 1179
f 1179 1209 1204
f 1207 1177 1215
f 1215 1177 1212
f 1177 1185 1212
f 1210 1218 1182
f 1182 1218 1211
f 1221 1223 1222
f 1224 1225 1223
f 1225 1226 1223
f 1223 1226 1227
f 1223 1221 1256
f 1265 974 1257
f 974 972 1257
f 1257 972 970
f 1316 1317 1315
f 1316 1319 1317
f 1319 1315 1317
f 1325 1329 1324
f 1324 1329 1328
f 1335 1333 1336
f 1340 1343 1339
f 1343 1340 1344
f 1339 1344 1340
f 4 5 7
f 1 6 7
f 7 6 4
f 1 8 6
f 28 14 11
f 11 14 13
f 3 16 15
f 18 19 26
f 26 19 25
f 25 19 17
f 20 21 26
f 26 21 18
f 36 22 39
f 36 43 22
f 7 5 23
f 7 23 44
f 23 24 44
f 3 25 16
f 25 17 16
f 3 2 27
f 3 27 25
f 11 29 28
f 28 29 15
f 15 29 3
f 3 29 2
f 13 12 11
f 12 31 11
f 11 31 30
f 12 32 31
f 9 10 12
f 12 10 32
f 10 33 32
f 40 39 26
f 26 39 20
f 39 22 20
f 41 40 26
f 36 39 38
f 37 42 36
f 44 24 42
f 24 43 42
f 9 8 10
f 8 1 10
f 44 42 37
f 42 43 36
f 37 35 44
f 44 35 7
f 35 34 7
f 7 34 1
f 45 26 25
f 46 47 26
f 26 47 41
f 46 26 45
f 47 39 40
f 47 40 41
f 47 48 39
f 49 39 48
f 50 36 38
f 38 39 50
f 50 39 49
f 51 37 50
f 37 36 50
f 37 51 35
f 51 52 35
f 34 35 52
f 53 1 52
f 1 34 52
f 33 10 53
f 53 10 1
f 31 32 53
f 32 33 53
f 53 54 11
f 11 30 53
f 53 30 31
f 55 11 54
f 11 55 29
f 56 29 55
f 29 56 2
f 27 2 56
f 45 25 56
f 25 27 56
f 45 60 46
f 46 60 47
f 60 63 47
f 47 63 48
f 48 63 49
f 49 63 50
f 63 66 50
f 50 66 51
f 51 66 52
f 66 69 52
f 52 69 53
f 69 72 53
f 53 72 54
f 54 72 55
f 55 72 56
f 72 57 56
f 56 57 45
f 57 60 45
f 75 76 77
f 76 78 77
f 77 78 79
f 78 80 79
f 79 80 81
f 80 82 81
f 81 82 83
f 82 84 83
f 83 84 85
f 84 86 85
f 85 86 87
f 86 88 87
f 87 88 89
f 88 90 89
f 89 90 91
f 90 92 91
f 91 92 93
f 93 216 94
f 94 216 95
f 95 216 96
f 216 97 96
f 96 97 98
f 98 97 99
f 97 100 99
f 99 100 101
f 100 102 101
f 101 102 103
f 102 104 103
f 103 104 105
f 104 106 105
f 105 106 107
f 106 108 107
f 107 108 109
f 108 110 109
f 109 110 111
f 110 112 111
f 111 112 113
f 112 114 113
f 113 114 115
f 114 116 115
f 115 116 117
f 116 118 117
f 117 118 75
f 118 76 75
f 119 67 120
f 67 66 120
f 120 66 121
f 121 66 122
f 66 65 122
f 122 65 123
f 65 64 123
f 123 64 124
f 64 63 124
f 124 63 125
f 125 63 126
f 63 62 126
f 126 62 127
f 62 61 127
f 127 61 128
f 61 60 128
f 128 60 129
f 129 60 130
f 60 59 130
f 130 59 131
f 59 58 131
f 131 58 132
f 58 57 132
f 132 57 133
f 133 57 134
f 57 74 134
f 134 74 135
f 74 73 135
f 135 73 136
f 73 72 136
f 136 72 137
f 137 72 138
f 72 71 138
f 138 71 139
f 71 70 139
f 139 70 140
f 70 69 140
f 140 69 141
f 141 69 142
f 69 68 142
f 142 68 119
f 68 67 119
f 75 143 117
f 143 144 117
f 117 144 115
f 144 145 115
f 115 145 113
f 145 146 113
f 113 146 111
f 146 147 111
f 111 147 109
f 147 148 109
f 109 148 107
f 148 149 107
f 107 149 105
f 149 150 105
f 105 150 103
f 150 151 103
f 103 151 101
f 151 152 101
f 101 152 99
f 152 153 99
f 99 153 98
f 153 154 98
f 98 154 96
f 154 155 96
f 96 155 95
f 155 156 95
f 95 156 94
f 156 157 94
f 94 157 93
f 157 158 93
f 93 158 91
f 158 159 91
f 91 159 89
f 159 160 89
f 89 160 87
f 160 161 87
f 87 161 85
f 161 162 85
f 85 162 83
f 162 163 83
f 83 163 81
f 163 164 81
f 81 164 79
f 164 165 79
f 79 165 77
f 165 166 77
f 77 166 75
f 166 143 75
f 143 167 144
f 167 168 144
f 144 168 145
f 168 169 145
f 145 169 146
f 169 170 146
f 146 170 147
f 170 171 147
f 147 171 148
f 171 172 148
f 148 172 149
f 172 173 149
f 149 173 150
f 173 174 150
f 150 174 151
f 174 175 151
f 151 175 152
f 175 176 152
f 152 176 153
f 176 177 153
f 153 177 154
f 177 178 154
f 154 178 155
f 178 179 155
f 155 179 156
f 179 180 156
f 156 180 157
f 180 181 157
f 157 181 158
f 181 182 158
f 158 182 159
f 182 183 159
f 159 183 160
f 183 184 160
f 160 184 161
f 184 185 161
f 161 185 162
f 185 186 162
f 162 186 163
f 186 187 163
f 163 187 164
f 187 188 164
f 164 188 165
f 188 189 165
f 165 189 166
f 189 190 166
f 166 190 143
f 190 167 143
f 167 191 168
f 191 192 168
f 168 192 169
f 192 193 169
f 169 193 170
f 193 194 170
f 170 194 171
f 194 195 171
f 171 195 172
f 195 196 172
f 172 196 173
f 196 197 173
f 173 197 174
f 197 198 174
f 174 198 175
f 198 199 175
f 175 199 176
f 199 200 176
f 176 200 177
f 200 201 177
f 177 201 178
f 201 202 178
f 178 202 179
f 202 203 179
f 179 203 180
f 203 204 180
f 180 204 181
f 204 205 181
f 181 205 182
f 205 206 182
f 182 206 183
f 206 207 183
f 183 207 184
f 207 208 184
f 184 208 185
f 208 209 185
f 185 209 186
f 209 210 186
f 186 210 187
f 210 211 187
f 187 211 188
f 211 212 188
f 188 212 189
f 212 213 189
f 189 213 190
f 213 214 190
f 190 214 167
f 214 191 167
f 191 119 192
f 119 120 192
f 192 120 193
f 120 121 193
f 193 121 194
f 121 122 194
f 194 122 195
f 122 123 195
f 195 123 196
f 123 124 196
f 196 124 197
f 124 125 197
f 197 125 198
f 125 126 198
f 198 126 199
f 126 127 199
f 199 127 200
f 127 128 200
f 200 128 201
f 128 129 201
f 201 129 202
f 129 130 202
f 202 130 203
f 130 131 203
f 203 131 204
f 131 132 204
f 204 132 205
f 132 133 205
f 205 133 206
f 133 134 206
f 206 134 207
f 134 135 207
f 207 135 208
f 135 136 208
f 208 136 209
f 136 137 209
f 209 137 210
f 137 138 210
f 210 138 211
f 138 139 211
f 211 139 212
f 139 140 212
f 212 140 213
f 140 141 213
f 213 141 214
f 141 142 214
f 214 142 191
f 142 119 191
f 116 114 215
f 114 112 215
f 112 110 215
f 215 110 221
f 110 108 221
f 108 106 221
f 106 104 221
f 104 102 221
f 221 102 97
f 102 100 97
f 93 92 216
f 92 90 216
f 216 90 217
f 90 88 217
f 88 86 217
f 86 84 217
f 84 82 217
f 82 80 217
f 80 78 217
f 78 76 217
f 76 118 217
f 217 118 215
f 118 116 215
f 216 226 97
f 226 218 97
f 218 219 97
f 219 220 97
f 97 220 221
f 221 222 215
f 222 223 215
f 215 223 217
f 223 224 217
f 228 225 217
f 217 225 216
f 225 230 216
f 230 226 216
f 220 231 221
f 221 227 222
f 227 223 222
f 224 228 217
f 229 230 225
f 227 237 223
f 237 236 223
f 233 226 230
f 226 232 218
f 219 218 220
f 218 231 220
f 231 227 221
f 236 235 223
f 223 235 224
f 235 243 224
f 224 243 228
f 243 234 228
f 234 233 228
f 228 233 225
f 225 233 229
f 229 233 230
f 226 233 239
f 237 227 238
f 239 240 226
f 240 232 226
f 232 246 218
f 246 241 218
f 218 241 231
f 231 241 227
f 241 238 227
f 238 242 237
f 237 242 236
f 242 243 236
f 236 243 235
f 244 245 243
f 243 245 234
f 234 245 233
f 245 239 233
f 241 247 238
f 265 247 241
f 241 246 248
f 266 248 246
f 243 242 249
f 238 261 242
f 261 249 242
f 244 251 245
f 243 250 244
f 244 250 251
f 239 245 252
f 251 252 245
f 240 253 232
f 253 246 232
f 273 240 239
f 243 255 250
f 250 255 251
f 252 256 239
f 259 257 260
f 256 252 258
f 258 252 259
f 252 257 259
f 251 255 260
f 260 255 254
f 261 264 254
f 262 261 263
f 263 261 271
f 264 261 262
f 268 266 274
f 267 248 269
f 269 248 268
f 248 266 268
f 270 271 247
f 267 272 265
f 270 247 272
f 272 247 265
f 240 273 253
f 275 274 273
f 258 275 273
f 292 276 277
f 278 380 279
f 380 281 280
f 281 283 282
f 285 284 286
f 287 286 288
f 289 277 290
f 290 277 291
f 277 276 291
f 292 277 293
f 277 278 293
f 293 278 294
f 278 279 294
f 279 380 294
f 380 280 294
f 294 280 295
f 280 281 295
f 281 282 295
f 282 283 295
f 283 284 295
f 295 284 296
f 296 284 297
f 284 285 297
f 285 286 297
f 297 286 298
f 298 286 299
f 286 287 299
f 287 288 299
f 299 288 300
f 300 288 301
f 288 289 301
f 301 289 291
f 289 290 291
f 325 323 311
f 307 305 323
f 323 305 302
f 327 306 323
f 306 307 323
f 396 308 304
f 308 309 304
f 304 309 327
f 309 310 327
f 327 310 306
f 322 393 303
f 321 312 322
f 312 313 322
f 322 313 393
f 314 315 316
f 316 315 321
f 315 317 321
f 317 318 321
f 321 318 312
f 314 319 315
f 311 302 314
f 302 320 314
f 314 320 319
f 311 324 325
f 325 326 323
f 328 329 327
f 327 329 304
f 329 333 304
f 333 330 304
f 304 330 322
f 322 335 321
f 321 331 316
f 316 332 314
f 314 332 311
f 326 328 323
f 323 328 327
f 328 333 329
f 330 335 322
f 335 334 321
f 334 331 321
f 332 324 311
f 324 343 325
f 343 342 325
f 342 341 325
f 325 341 326
f 326 341 328
f 341 340 328
f 340 339 328
f 328 339 333
f 339 338 333
f 338 346 333
f 333 346 330
f 330 346 337
f 330 337 335
f 335 337 334
f 337 336 334
f 334 336 331
f 336 345 331
f 331 345 316
f 345 344 316
f 316 344 332
f 344 324 332
f 340 341 339
f 338 339 346
f 346 347 337
f 337 347 336
f 347 348 336
f 348 345 336
f 344 345 324
f 324 357 343
f 357 356 343
f 356 355 343
f 343 355 342
f 355 354 342
f 342 354 341
f 354 353 341
f 353 352 341
f 341 352 339
f 352 360 339
f 339 360 346
f 346 360 351
f 351 371 346
f 371 350 346
f 346 350 347
f 350 349 347
f 349 348 347
f 348 363 345
f 363 358 345
f 358 357 345
f 345 357 324
f 357 359 356
f 356 359 355
f 353 360 352
f 360 361 351
f 361 371 351
f 371 349 350
f 349 362 348
f 362 363 348
f 363 359 358
f 358 359 357
f 379 372 278
f 372 353 278
f 353 354 278
f 278 354 380
f 354 355 380
f 355 359 380
f 380 359 281
f 281 359 283
f 359 363 283
f 283 363 284
f 363 349 284
f 284 349 286
f 286 349 381
f 349 371 381
f 371 366 381
f 381 366 277
f 366 365 277
f 372 379 378
f 379 382 378
f 378 382 374
f 382 383 374
f 374 383 375
f 383 384 375
f 375 384 376
f 384 385 376
f 376 385 377
f 385 386 377
f 377 386 369
f 386 387 369
f 369 387 370
f 387 388 370
f 370 388 373
f 388 389 373
f 373 389 367
f 389 390 367
f 367 390 368
f 390 391 368
f 368 391 364
f 391 392 364
f 364 392 365
f 392 277 365
f 393 394 303
f 394 395 303
f 395 304 303
f 398 409 397
f 397 413 407
f 413 412 407
f 412 410 406
f 406 410 408
f 410 411 408
f 399 411 405
f 405 412 403
f 403 412 399
f 412 400 399
f 400 413 402
f 413 414 402
f 414 409 402
f 402 409 399
f 424 423 404
f 423 422 404
f 422 421 404
f 421 420 404
f 404 420 408
f 420 419 408
f 419 418 408
f 418 417 408
f 416 415 401
f 415 429 401
f 429 425 401
f 425 424 404
f 431 417 418
f 431 418 439
f 418 419 439
f 419 420 439
f 420 421 439
f 439 421 430
f 430 421 426
f 421 422 426
f 426 422 432
f 422 423 432
f 423 424 432
f 432 424 427
f 427 424 425
f 427 425 428
f 425 429 428
f 415 416 431
f 416 417 431
f 429 434 428
f 434 435 428
f 428 435 433
f 438 436 433
f 433 436 432
f 436 437 432
f 436 435 442
f 435 434 442
f 442 434 443
f 443 434 440
f 439 437 441
f 437 436 441
f 441 436 442
f 451 472 452
f 452 472 453
f 472 463 453
f 463 465 453
f 453 465 456
f 465 454 456
f 454 455 456
f 456 455 458
f 455 457 458
f 458 457 459
f 457 469 459
f 459 469 452
f 469 451 452
f 451 462 472
f 464 465 463
f 465 460 454
f 460 468 454
f 454 468 455
f 468 461 455
f 455 461 457
f 451 470 462
f 465 466 460
f 466 475 460
f 475 467 460
f 460 467 468
f 468 484 461
f 469 487 451
f 487 478 451
f 478 470 451
f 470 471 462
f 462 471 472
f 472 473 463
f 463 473 464
f 473 474 464
f 464 474 465
f 465 474 466
f 474 475 466
f 475 481 467
f 481 476 467
f 467 476 468
f 468 476 484
f 484 477 461
f 461 477 457
f 477 485 457
f 457 485 469
f 469 485 487
f 471 473 472
f 479 474 473
f 480 481 475
f 481 484 476
f 484 482 477
f 482 485 477
f 486 487 485
f 487 483 478
f 483 470 478
f 483 493 470
f 479 489 474
f 493 471 470
f 471 488 473
f 475 490 480
f 480 495 481
f 481 495 484
f 488 479 473
f 474 500 475
f 500 490 475
f 490 495 480
f 495 496 484
f 496 482 484
f 482 491 485
f 491 486 485
f 486 497 487
f 487 497 483
f 497 493 483
f 493 488 471
f 488 498 479
f 498 499 479
f 479 499 489
f 489 504 474
f 504 500 474
f 496 491 482
f 491 497 486
f 497 492 493
f 490 494 495
f 492 488 493
f 488 503 498
f 499 504 489
f 494 496 495
f 501 508 491
f 491 508 497
f 508 492 497
f 502 516 492
f 492 516 488
f 494 506 496
f 506 518 496
f 518 507 496
f 507 514 496
f 496 514 491
f 491 514 501
f 516 503 488
f 498 504 499
f 505 500 504
f 500 506 490
f 506 494 490
f 508 509 492
f 509 510 492
f 510 502 492
f 518 514 507
f 502 510 516
f 516 521 503
f 521 511 503
f 503 511 498
f 511 512 498
f 498 512 504
f 512 522 504
f 522 513 504
f 504 513 505
f 505 513 500
f 513 523 500
f 500 523 506
f 524 518 506
f 527 508 501
f 509 515 510
f 515 516 510
f 523 517 506
f 517 524 506
f 527 509 508
f 509 519 515
f 515 519 516
f 519 520 516
f 516 520 521
f 511 521 512
f 521 522 512
f 522 523 513
f 524 529 518
f 518 529 514
f 529 525 514
f 525 526 514
f 514 526 501
f 527 528 509
f 520 519 521
f 523 529 517
f 517 529 524
f 529 526 525
f 526 528 501
f 501 528 527
f 533 532 538
f 538 532 539
f 532 531 539
f 539 531 540
f 531 530 540
f 540 530 541
f 530 537 541
f 541 537 542
f 537 536 542
f 542 536 543
f 536 535 543
f 543 535 544
f 535 534 544
f 544 534 545
f 534 533 545
f 545 533 538
f 541 546 540
f 546 547 540
f 540 547 539
f 547 563 539
f 539 563 538
f 563 548 538
f 538 548 545
f 548 549 545
f 545 549 544
f 549 557 544
f 544 557 543
f 557 550 543
f 543 550 542
f 550 551 542
f 551 541 542
f 556 548 563
f 563 547 561
f 561 547 599
f 599 547 552
f 547 546 552
f 546 541 553
f 553 541 560
f 541 551 560
f 551 550 560
f 560 550 690
f 550 557 690
f 557 549 556
f 549 548 556
f 567 568 569
f 570 571 572
f 573 574 575
f 576 577 578
f 579 580 581
f 582 583 584
f 585 586 587
f 589 590 588
f 588 590 591
f 590 592 591
f 593 594 595
f 594 596 595
f 595 596 588
f 596 589 588
f 597 598 599
f 598 600 599
f 600 601 599
f 601 561 599
f 602 606 603
f 603 606 604
f 690 605 606
f 605 607 606
f 607 604 606
f 608 609 610
f 587 611 609
f 611 612 609
f 609 612 610
f 586 613 587
f 613 614 587
f 587 614 611
f 555 554 615
f 554 616 615
f 615 616 617
f 616 618 617
f 617 618 619
f 556 555 620
f 555 615 620
f 620 615 621
f 615 617 621
f 621 617 622
f 617 619 622
f 622 619 623
f 690 557 605
f 557 624 605
f 605 624 607
f 624 625 607
f 607 625 604
f 625 626 604
f 604 626 603
f 626 608 603
f 603 608 602
f 608 610 602
f 556 620 627
f 627 620 628
f 620 621 628
f 628 621 629
f 621 622 629
f 629 622 630
f 622 623 630
f 630 623 631
f 562 561 632
f 561 601 632
f 632 601 633
f 601 600 633
f 633 600 634
f 600 598 634
f 634 598 593
f 598 597 593
f 593 597 594
f 557 556 624
f 556 627 624
f 624 627 625
f 627 628 625
f 625 628 626
f 628 629 626
f 626 629 608
f 629 630 608
f 608 630 609
f 630 631 609
f 609 631 587
f 635 636 637
f 618 638 619
f 638 639 619
f 619 639 623
f 639 640 623
f 623 640 631
f 640 584 631
f 631 584 587
f 584 583 587
f 587 583 585
f 638 641 639
f 641 642 639
f 639 642 640
f 642 581 640
f 640 581 584
f 581 580 584
f 584 580 582
f 641 635 642
f 635 637 642
f 642 637 581
f 637 643 581
f 581 643 579
f 644 645 636
f 645 646 636
f 636 646 637
f 646 647 637
f 637 647 643
f 577 644 578
f 644 636 578
f 578 636 648
f 636 635 648
f 648 635 649
f 635 641 649
f 649 641 650
f 641 638 650
f 650 638 651
f 638 618 651
f 651 618 652
f 618 616 652
f 652 616 566
f 616 554 566
f 574 576 575
f 576 578 575
f 575 578 653
f 578 648 653
f 653 648 654
f 648 649 654
f 654 649 655
f 649 650 655
f 655 650 656
f 650 651 656
f 656 651 657
f 651 652 657
f 657 652 565
f 652 566 565
f 571 573 572
f 573 575 572
f 572 575 658
f 575 653 658
f 658 653 659
f 653 654 659
f 659 654 660
f 654 655 660
f 660 655 661
f 655 656 661
f 661 656 662
f 656 657 662
f 662 657 564
f 657 565 564
f 568 570 569
f 570 572 569
f 569 572 663
f 572 658 663
f 663 658 664
f 658 659 664
f 664 659 665
f 659 660 665
f 665 660 666
f 660 661 666
f 666 661 667
f 661 662 667
f 667 662 563
f 662 564 563
f 591 567 588
f 567 569 588
f 588 569 595
f 569 663 595
f 595 663 593
f 663 664 593
f 593 664 634
f 664 665 634
f 634 665 633
f 665 666 633
f 633 666 632
f 666 667 632
f 632 667 562
f 667 563 562
f 670 671 672
f 673 674 675
f 676 677 678
f 679 680 681
f 682 691 683
f 688 689 686
f 689 690 686
f 689 558 690
f 599 552 691
f 552 683 691
f 681 692 693
f 692 706 693
f 680 694 681
f 694 695 681
f 681 695 692
f 546 697 696
f 696 697 698
f 697 699 698
f 698 699 700
f 559 558 701
f 558 689 701
f 701 689 702
f 689 688 702
f 702 688 703
f 552 704 683
f 704 705 683
f 683 705 682
f 705 693 682
f 682 693 706
f 552 546 704
f 546 696 704
f 704 696 707
f 696 698 707
f 707 698 708
f 698 700 708
f 708 700 709
f 688 686 703
f 686 687 703
f 703 687 710
f 687 711 710
f 710 711 684
f 711 685 684
f 704 707 705
f 707 708 705
f 705 708 693
f 708 709 693
f 693 709 681
f 712 713 714
f 699 715 700
f 715 716 700
f 700 716 709
f 716 678 709
f 709 678 681
f 678 677 681
f 681 677 679
f 715 712 716
f 712 714 716
f 716 714 678
f 714 717 678
f 678 717 676
f 718 719 720
f 719 713 720
f 720 713 721
f 713 712 721
f 721 712 722
f 712 715 722
f 722 715 723
f 715 699 723
f 723 699 724
f 699 697 724
f 724 697 553
f 697 546 553
f 719 725 713
f 725 726 713
f 713 726 714
f 726 727 714
f 714 727 717
f 728 729 730
f 729 731 730
f 731 718 730
f 718 720 730
f 730 720 732
f 720 721 732
f 732 721 733
f 721 722 733
f 733 722 734
f 722 723 734
f 734 723 553
f 723 724 553
f 674 728 675
f 728 730 675
f 675 730 735
f 730 732 735
f 735 732 736
f 732 733 736
f 736 733 737
f 733 734 737
f 737 734 738
f 734 553 738
f 738 553 560
f 671 673 672
f 673 675 672
f 672 675 739
f 675 735 739
f 739 735 740
f 735 736 740
f 740 736 741
f 736 737 741
f 741 737 742
f 737 738 742
f 668 670 669
f 670 672 669
f 669 672 743
f 672 739 743
f 743 739 744
f 739 740 744
f 744 740 745
f 740 741 745
f 745 741 746
f 741 742 746
f 746 742 560
f 742 738 560
f 685 668 684
f 668 669 684
f 684 669 710
f 669 743 710
f 710 743 703
f 743 744 703
f 703 744 702
f 744 745 702
f 702 745 701
f 745 746 701
f 701 746 559
f 746 560 559
f 592 748 591
f 748 749 591
f 591 749 567
f 749 750 567
f 567 750 568
f 750 751 568
f 568 751 570
f 751 752 570
f 570 752 571
f 752 753 571
f 571 753 573
f 753 754 573
f 573 754 574
f 754 755 574
f 574 755 576
f 755 756 576
f 576 756 577
f 756 757 577
f 644 758 759
f 760 613 761
f 613 586 761
f 761 586 762
f 586 585 762
f 762 585 846
f 585 583 846
f 846 583 763
f 583 582 763
f 763 582 764
f 582 580 764
f 764 580 765
f 580 579 765
f 765 579 839
f 579 643 839
f 839 643 766
f 643 647 766
f 766 647 767
f 647 646 767
f 759 645 644
f 768 769 685
f 685 769 668
f 769 770 668
f 668 770 670
f 770 771 670
f 670 771 671
f 771 772 671
f 671 772 673
f 772 773 673
f 673 773 674
f 773 774 674
f 674 774 728
f 774 775 728
f 728 775 729
f 775 776 729
f 731 777 778
f 747 694 779
f 694 680 779
f 779 680 780
f 680 679 780
f 780 679 781
f 679 677 781
f 781 677 782
f 677 676 782
f 782 676 783
f 676 717 783
f 783 717 784
f 717 727 784
f 784 727 785
f 727 726 785
f 785 726 786
f 726 725 786
f 786 725 787
f 725 719 787
f 778 718 731
f 790 791 792
f 788 791 789
f 789 791 793
f 791 790 793
f 797 794 795
f 792 796 790
f 790 796 795
f 796 797 795
f 798 799 800
f 800 801 798
f 799 802 800
f 802 803 800
f 800 803 804
f 803 805 804
f 804 805 806
f 805 807 806
f 806 807 794
f 807 808 794
f 794 808 795
f 798 801 809
f 810 748 747
f 747 811 810
f 811 812 810
f 810 812 809
f 812 813 809
f 809 813 798
f 794 797 814
f 815 816 817
f 818 820 819
f 821 760 761
f 821 761 820
f 822 824 823
f 825 826 827
f 826 828 827
f 827 828 829
f 832 833 855
f 792 791 834
f 791 788 834
f 797 796 835
f 794 814 806
f 801 800 836
f 836 800 804
f 809 838 810
f 838 749 810
f 810 749 748
f 820 761 819
f 761 762 819
f 819 762 846
f 846 763 764
f 764 765 839
f 767 839 766
f 759 758 767
f 767 758 842
f 758 757 842
f 757 756 842
f 756 755 840
f 755 754 840
f 754 753 840
f 840 753 752
f 752 751 838
f 751 750 838
f 838 750 749
f 809 801 838
f 801 837 838
f 838 837 752
f 837 847 752
f 752 847 840
f 847 841 840
f 840 841 756
f 756 841 842
f 842 843 767
f 767 843 839
f 839 843 764
f 843 845 764
f 764 845 846
f 846 823 819
f 819 823 818
f 823 824 818
f 801 836 837
f 837 836 847
f 846 827 823
f 823 827 822
f 827 829 822
f 804 806 836
f 806 814 836
f 836 814 847
f 847 848 841
f 842 844 843
f 843 844 845
f 846 817 827
f 827 817 825
f 817 816 825
f 797 835 814
f 814 835 847
f 846 831 817
f 817 831 815
f 831 830 815
f 796 792 835
f 792 834 835
f 835 834 847
f 834 848 847
f 848 849 841
f 841 849 842
f 849 850 842
f 842 850 844
f 844 850 845
f 845 850 846
f 850 851 846
f 846 851 831
f 851 833 831
f 831 833 830
f 833 832 830
f 822 829 852
f 816 815 853
f 855 854 832
f 854 856 832
f 856 857 832
f 832 857 830
f 853 815 857
f 815 830 857
f 852 829 858
f 816 853 825
f 853 859 825
f 825 859 826
f 859 860 826
f 826 860 828
f 860 861 828
f 828 861 829
f 861 862 829
f 829 862 858
f 818 824 863
f 863 824 852
f 824 822 852
f 818 863 820
f 863 864 820
f 820 864 821
f 864 865 821
f 821 865 760
f 865 866 760
f 760 866 768
f 803 802 867
f 799 798 868
f 811 747 779
f 852 858 869
f 855 870 854
f 857 856 871
f 860 859 872
f 859 853 872
f 862 861 873
f 852 869 863
f 865 864 874
f 769 768 875
f 768 866 875
f 813 812 876
f 812 811 876
f 808 807 877
f 807 805 877
f 793 790 878
f 790 795 878
f 788 789 879
f 811 779 876
f 779 780 876
f 876 780 880
f 780 781 880
f 781 782 880
f 880 782 881
f 782 783 881
f 783 784 881
f 881 784 882
f 784 785 882
f 785 786 882
f 882 786 883
f 786 787 883
f 787 778 883
f 883 778 884
f 778 777 884
f 777 776 884
f 884 776 885
f 776 775 885
f 775 774 885
f 885 774 886
f 774 773 886
f 773 772 886
f 886 772 887
f 772 771 887
f 771 770 887
f 887 770 875
f 770 769 875
f 866 865 875
f 865 874 875
f 875 874 887
f 874 888 887
f 887 888 886
f 888 889 886
f 886 889 885
f 889 890 885
f 885 890 884
f 890 891 884
f 884 891 883
f 891 892 883
f 883 892 882
f 892 893 882
f 882 893 881
f 893 894 881
f 881 894 880
f 894 895 880
f 880 895 876
f 895 868 876
f 876 868 813
f 868 798 813
f 864 863 874
f 863 869 874
f 874 869 888
f 869 896 888
f 888 896 889
f 896 897 889
f 889 897 890
f 897 898 890
f 890 898 891
f 898 899 891
f 891 899 892
f 899 900 892
f 892 900 893
f 900 901 893
f 893 901 894
f 901 902 894
f 894 902 895
f 902 903 895
f 895 903 868
f 903 867 868
f 868 867 799
f 867 802 799
f 858 862 869
f 862 873 869
f 869 873 896
f 873 904 896
f 896 904 897
f 904 905 897
f 897 905 898
f 905 906 898
f 898 906 899
f 906 907 899
f 899 907 900
f 907 908 900
f 900 908 901
f 908 909 901
f 901 909 902
f 909 910 902
f 902 910 903
f 910 911 903
f 903 911 867
f 911 877 867
f 867 877 803
f 877 805 803
f 861 860 873
f 860 872 873
f 873 872 904
f 872 912 904
f 904 912 905
f 912 913 905
f 905 913 906
f 913 914 906
f 906 914 907
f 914 915 907
f 907 915 908
f 915 916 908
f 908 916 909
f 916 917 909
f 909 917 910
f 917 918 910
f 910 918 911
f 918 919 911
f 911 919 877
f 919 878 877
f 877 878 808
f 878 795 808
f 853 857 872
f 857 871 872
f 872 871 912
f 871 920 912
f 912 920 913
f 920 921 913
f 913 921 914
f 921 922 914
f 914 922 915
f 922 923 915
f 915 923 916
f 923 924 916
f 916 924 917
f 924 925 917
f 917 925 918
f 925 926 918
f 918 926 919
f 926 927 919
f 919 927 878
f 927 879 878
f 878 879 793
f 879 789 793
f 856 854 871
f 854 870 871
f 871 870 920
f 870 928 920
f 920 928 921
f 928 929 921
f 921 929 922
f 929 930 922
f 922 930 923
f 930 931 923
f 923 931 924
f 931 932 924
f 924 932 925
f 932 936 925
f 925 936 926
f 926 936 927
f 936 934 927
f 927 934 879
f 879 934 788
f 937 934 936
f 848 788 939
f 848 939 938
f 850 848 941
f 941 940 850
f 943 933 850
f 933 943 855
f 943 942 855
f 935 855 944
f 944 945 935
f 955 947 946
f 948 949 937
f 937 949 934
f 949 950 939
f 939 950 938
f 951 952 941
f 941 952 940
f 953 954 943
f 943 954 942
f 944 954 945
f 954 955 945
f 945 955 935
f 964 1265 965
f 1265 1263 965
f 965 1263 966
f 1263 1262 966
f 966 1262 967
f 1262 1260 967
f 967 1260 968
f 1260 1259 968
f 968 1259 969
f 1259 970 969
f 969 970 971
f 970 972 971
f 971 972 973
f 972 974 973
f 973 974 964
f 974 1265 964
f 968 990 967
f 967 990 966
f 990 975 966
f 966 975 965
f 975 978 965
f 965 978 964
f 978 981 964
f 964 981 973
f 973 981 971
f 981 984 971
f 971 984 969
f 984 987 969
f 969 987 968
f 987 990 968
f 993 994 995
f 994 996 995
f 995 996 997
f 996 998 997
f 997 998 999
f 998 1000 999
f 999 1000 1001
f 1000 1002 1001
f 1001 1002 1003
f 1002 1004 1003
f 1003 1004 1005
f 1004 1006 1005
f 1005 1006 1007
f 1006 1008 1007
f 1007 1008 1009
f 1008 1010 1009
f 1009 1010 1011
f 1010 1012 1011
f 1011 1012 1013
f 1012 1014 1013
f 1013 1014 1015
f 1014 1016 1015
f 1015 1016 1017
f 1016 1018 1017
f 1017 1018 1019
f 1018 1020 1019
f 1019 1020 1021
f 1020 1022 1021
f 1021 1022 1023
f 1022 1024 1023
f 1023 1024 1025
f 1024 1026 1025
f 1025 1026 1027
f 1026 1028 1027
f 1027 1028 1029
f 1028 1030 1029
f 1029 1030 1031
f 1030 1032 1031
f 1031 1032 1033
f 1032 1034 1033
f 1033 1034 1035
f 1035 1135 1036
f 1036 1135 1037
f 1037 1135 993
f 1135 994 993
f 1038 988 1039
f 988 987 1039
f 1039 987 1040
f 1040 987 1041
f 987 986 1041
f 1041 986 1042
f 986 985 1042
f 1042 985 1043
f 985 984 1043
f 1043 984 1044
f 1044 984 1045
f 984 983 1045
f 1045 983 1046
f 983 982 1046
f 1046 982 1047
f 982 981 1047
f 1047 981 1048
f 1048 981 1049
f 981 980 1049
f 1049 980 1050
f 980 979 1050
f 1050 979 1051
f 979 978 1051
f 1051 978 1052
f 1052 978 1053
f 978 977 1053
f 1053 977 1054
f 977 976 1054
f 1054 976 1055
f 976 975 1055
f 1055 975 1056
f 1056 975 1057
f 975 992 1057
f 1057 992 1058
f 992 991 1058
f 1058 991 1059
f 991 990 1059
f 1059 990 1060
f 1060 990 1061
f 990 989 1061
f 1061 989 1038
f 989 988 1038
f 1017 1062 1015
f 1062 1063 1015
f 1015 1063 1013
f 1063 1064 1013
f 1013 1064 1011
f 1064 1065 1011
f 1011 1065 1009
f 1065 1066 1009
f 1009 1066 1007
f 1066 1067 1007
f 1007 1067 1005
f 1067 1068 1005
f 1005 1068 1003
f 1068 1069 1003
f 1003 1069 1001
f 1069 1070 1001
f 1001 1070 999
f 1070 1071 999
f 999 1071 997
f 1071 1072 997
f 997 1072 995
f 1072 1073 995
f 995 1073 993
f 1073 1074 993
f 993 1074 1037
f 1074 1075 1037
f 1037 1075 1036
f 1075 1076 1036
f 1036 1076 1035
f 1076 1077 1035
f 1035 1077 1033
f 1077 1078 1033
f 1033 1078 1031
f 1078 1079 1031
f 1031 1079 1029
f 1079 1080 1029
f 1029 1080 1027
f 1080 1081 1027
f 1027 1081 1025
f 1081 1082 1025
f 1025 1082 1023
f 1082 1083 1023
f 1023 1083 1021
f 1083 1084 1021
f 1021 1084 1019
f 1084 1085 1019
f 1019 1085 1017
f 1085 1062 1017
f 1062 1086 1063
f 1086 1087 1063
f 1063 1087 1064
f 1087 1088 1064
f 1064 1088 1065
f 1088 1089 1065
f 1065 1089 1066
f 1089 1090 1066
f 1066 1090 1067
f 1090 1091 1067
f 1067 1091 1068
f 1091 1092 1068
f 1068 1092 1069
f 1092 1093 1069
f 1069 1093 1070
f 1093 1094 1070
f 1070 1094 1071
f 1094 1095 1071
f 1071 1095 1072
f 1095 1096 1072
f 1072 1096 1073
f 1096 1097 1073
f 1073 1097 1074
f 1097 1098 1074
f 1074 1098 1075
f 1098 1099 1075
f 1075 1099 1076
f 1099 1100 1076
f 1076 1100 1077
f 1100 1101 1077
f 1077 1101 1078
f 1101 1102 1078
f 1078 1102 1079
f 1102 1103 1079
f 1079 1103 1080
f 1103 1104 1080
f 1080 1104 1081
f 1104 1105 1081
f 1081 1105 1082
f 1105 1106 1082
f 1082 1106 1083
f 1106 1107 1083
f 1083 1107 1084
f 1107 1108 1084
f 1084 1108 1085
f 1108 1109 1085
f 1085 1109 1062
f 1109 1086 1062
f 1086 1110 1087
f 1110 1111 1087
f 1087 1111 1088
f 1111 1112 1088
f 1088 1112 1089
f 1112 1113 1089
f 1089 1113 1090
f 1113 1114 1090
f 1090 1114 1091
f 1114 1115 1091
f 1091 1115 1092
f 1115 1116 1092
f 1092 1116 1093
f 1116 1117 1093
f 1093 1117 1094
f 1117 1118 1094
f 1094 1118 1095
f 1118 1119 1095
f 1095 1119 1096
f 1119 1120 1096
f 1096 1120 1097
f 1120 1121 1097
f 1097 1121 1098
f 1121 1122 1098
f 1098 1122 1099
f 1122 1123 1099
f 1099 1123 1100
f 1123 1124 1100
f 1100 1124 1101
f 1124 1125 1101
f 1101 1125 1102
f 1125 1126 1102
f 1102 1126 1103
f 1126 1127 1103
f 1103 1127 1104
f 1127 1128 1104
f 1104 1128 1105
f 1128 1129 1105
f 1105 1129 1106
f 1129 1130 1106
f 1106 1130 1107
f 1130 1131 1107
f 1107 1131 1108
f 1131 1132 1108
f 1108 1132 1109
f 1132 1133 1109
f 1109 1133 1086
f 1133 1110 1086
f 1110 1050 1111
f 1050 1051 1111
f 1111 1051 1112
f 1051 1052 1112
f 1112 1052 1113
f 1052 1053 1113
f 1113 1053 1114
f 1053 1054 1114
f 1114 1054 1115
f 1054 1055 1115
f 1115 1055 1116
f 1055 1056 1116
f 1116 1056 1117
f 1056 1057 1117
f 1117 1057 1118
f 1057 1058 1118
f 1118 1058 1119
f 1058 1059 1119
f 1119 1059 1120
f 1059 1060 1120
f 1120 1060 1121
f 1060 1061 1121
f 1121 1061 1122
f 1061 1038 1122
f 1122 1038 1123
f 1038 1039 1123
f 1123 1039 1124
f 1039 1040 1124
f 1124 1040 1125
f 1040 1041 1125
f 1125 1041 1126
f 1041 1042 1126
f 1126 1042 1127
f 1042 1043 1127
f 1127 1043 1128
f 1043 1044 1128
f 1128 1044 1129
f 1044 1045 1129
f 1129 1045 1130
f 1045 1046 1130
f 1130 1046 1131
f 1046 1047 1131
f 1131 1047 1132
f 1047 1048 1132
f 1132 1048 1133
f 1048 1049 1133
f 1133 1049 1110
f 1049 1050 1110
f 1014 1012 1142
f 1012 1010 1142
f 1010 1008 1142
f 1142 1008 1134
f 1008 1006 1134
f 1006 1004 1134
f 1004 1002 1134
f 1002 1000 1134
f 1134 1000 994
f 1000 998 994
f 998 996 994
f 1035 1034 1135
f 1034 1032 1135
f 1135 1032 1136
f 1032 1030 1136
f 1030 1028 1136
f 1028 1026 1136
f 1026 1024 1136
f 1136 1024 1137
f 1024 1022 1137
f 1022 1020 1137
f 1020 1018 1137
f 1018 1016 1137
f 1137 1016 1142
f 1016 1014 1142
f 1135 1150 994
f 1150 1138 994
f 1138 1139 994
f 1139 1140 994
f 994 1140 1134
f 1140 1141 1134
f 1141 1142 1134
f 1152 1143 1142
f 1143 1144 1142
f 1142 1144 1137
f 1144 1145 1137
f 1145 1146 1137
f 1137 1146 1136
f 1146 1147 1136
f 1147 1148 1136
f 1136 1148 1135
f 1148 1156 1135
f 1156 1149 1135
f 1149 1150 1135
f 1140 1151 1141
f 1141 1152 1142
f 1143 1152 1144
f 1152 1153 1144
f 1144 1153 1145
f 1153 1146 1145
f 1146 1157 1147
f 1147 1154 1148
f 1154 1155 1148
f 1155 1156 1148
f 1153 1158 1146
f 1158 1171 1146
f 1146 1171 1157
f 1154 1166 1156
f 1156 1166 1149
f 1149 1166 1150
f 1166 1165 1150
f 1150 1165 1138
f 1165 1164 1138
f 1138 1164 1139
f 1139 1164 1140
f 1164 1163 1140
f 1140 1163 1151
f 1163 1162 1151
f 1151 1162 1141
f 1162 1161 1141
f 1141 1161 1152
f 1161 1176 1152
f 1176 1160 1152
f 1160 1159 1152
f 1152 1159 1153
f 1153 1159 1158
f 1171 1170 1157
f 1157 1170 1147
f 1170 1169 1147
f 1147 1169 1154
f 1155 1154 1156
f 1158 1159 1176
f 1166 1154 1167
f 1167 1154 1168
f 1167 1168 1166
f 1168 1172 1166
f 1172 1173 1166
f 1166 1173 1165
f 1165 1173 1164
f 1173 1174 1164
f 1174 1175 1164
f 1164 1175 1163
f 1163 1175 1162
f 1162 1175 1161
f 1175 1176 1161
f 1160 1176 1159
f 1176 1177 1158
f 1158 1177 1171
f 1177 1178 1171
f 1178 1179 1171
f 1171 1179 1170
f 1170 1179 1169
f 1179 1180 1169
f 1169 1180 1154
f 1180 1168 1154
f 1176 1175 1182
f 1182 1175 1183
f 1181 1194 1175
f 1194 1184 1175
f 1184 1183 1175
f 1177 1176 1185
f 1185 1176 1186
f 1182 1211 1176
f 1211 1187 1176
f 1187 1186 1176
f 1179 1178 1188
f 1204 1189 1179
f 1179 1189 1180
f 1180 1189 1168
f 1173 1172 1190
f 1198 1190 1168
f 1168 1190 1172
f 1174 1173 1192
f 1174 1181 1175
f 1192 1191 1174
f 1174 1191 1181
f 1192 1193 1191
f 1191 1193 1181
f 1200 1195 1192
f 1195 1196 1192
f 1181 1193 1196
f 1196 1193 1192
f 1198 1199 1190
f 1201 1198 1202
f 1202 1198 1205
f 1190 1199 1200
f 1200 1199 1201
f 1199 1198 1201
f 1204 1197 1189
f 1189 1197 1168
f 1209 1206 1204
f 1205 1197 1206
f 1206 1197 1204
f 1177 1207 1178
f 1207 1208 1178
f 1178 1208 1188
f 1188 1208 1179
f 1208 1203 1179
f 1203 1208 1209
f 1209 1208 1215
f 1215 1208 1207
f 1187 1211 1186
f 1211 1212 1186
f 1186 1212 1185
f 1218 1213 1211
f 1214 1215 1212
f 1213 1216 1211
f 1214 1212 1216
f 1216 1212 1211
f 1184 1194 1183
f 1194 1217 1183
f 1183 1217 1182
f 1217 1210 1182
f 1219 1194 1220
f 1220 1194 1196
f 1210 1217 1218
f 1218 1217 1219
f 1217 1194 1219
f 1230 1232 1231
f 1231 1232 1228
f 1228 1232 1229
f 1233 1235 1234
f 1233 1301 1235
f 1235 1301 1236
f 1301 1307 1236
f 1307 1237 1236
f 1236 1237 1238
f 1238 1237 1239
f 1237 1299 1239
f 1299 1305 1239
f 1305 1298 1239
f 1239 1298 1240
f 1298 1304 1240
f 1304 1297 1240
f 1297 1241 1240
f 1242 1243 1297
f 1297 1243 1241
f 1244 1245 1242
f 1242 1245 1243
f 1246 1247 1244
f 1244 1247 1245
f 1234 1230 1233
f 1230 1231 1233
f 1233 1231 1248
f 1248 1249 1246
f 1246 1249 1247
f 1228 1250 1231
f 1250 1251 1231
f 1231 1251 1248
f 1248 1251 1249
f 1228 1252 1250
f 1228 1254 1252
f 1253 1222 1228
f 1222 1254 1228
f 1256 1221 1253
f 1253 1221 1222
f 1229 1255 1228
f 1228 1255 1253
f 1255 1256 1253
f 1281 1257 970
f 1258 970 1259
f 1279 1259 1260
f 1261 1260 1262
f 1277 1262 1263
f 1264 1263 1265
f 1275 1265 1257
f 1275 1266 1265
f 1266 1264 1265
f 1264 1267 1263
f 1267 1277 1263
f 1277 1268 1262
f 1268 1261 1262
f 1261 1269 1260
f 1269 1279 1260
f 1279 1270 1259
f 1270 1258 1259
f 1258 1271 970
f 1271 1281 970
f 1281 1272 1257
f 1257 1272 1273
f 1273 1275 1257
f 1266 1275 1264
f 1267 1276 1277
f 1268 1277 1261
f 1269 1278 1279
f 1270 1279 1258
f 1271 1280 1281
f 1281 1282 1272
f 1272 1282 1273
f 1273 1282 1275
f 1282 1274 1275
f 1274 1283 1275
f 1275 1283 1264
f 1264 1283 1267
f 1276 1284 1277
f 1277 1284 1261
f 1261 1284 1269
f 1278 1285 1279
f 1279 1285 1258
f 1258 1285 1271
f 1280 1286 1281
f 1281 1286 1282
f 1286 1287 1282
f 1287 1274 1282
f 1274 1290 1283
f 1283 1290 1267
f 1267 1290 1276
f 1290 1291 1276
f 1276 1291 1284
f 1291 1292 1284
f 1284 1292 1269
f 1269 1292 1278
f 1292 1293 1278
f 1278 1293 1285
f 1293 1294 1285
f 1285 1294 1271
f 1271 1294 1280
f 1294 1295 1280
f 1280 1295 1286
f 1286 1288 1287
f 1287 1288 1274
f 1288 1303 1274
f 1274 1289 1290
f 1303 1289 1274
f 1289 1244 1290
f 1244 1296 1290
f 1296 1242 1290
f 1290 1242 1291
f 1242 1297 1291
f 1297 1304 1291
f 1291 1304 1292
f 1304 1298 1292
f 1298 1305 1292
f 1292 1305 1293
f 1305 1299 1293
f 1299 1306 1293
f 1293 1306 1294
f 1306 1300 1294
f 1300 1307 1294
f 1294 1307 1295
f 1307 1301 1295
f 1301 1308 1295
f 1295 1308 1286
f 1308 1302 1286
f 1286 1302 1288
f 1288 1302 1303
f 1308 1233 1302
f 1302 1246 1303
f 1303 1246 1289
f 1289 1246 1244
f 1244 1242 1296
f 1299 1237 1306
f 1306 1237 1300
f 1300 1237 1307
f 1308 1301 1233
f 1233 1248 1302
f 1302 1248 1246
f 1311 1312 1313
f 1313 1312 1314
f 1312 1311 1314
f 1313 1314 1310
f 1310 1314 1309
f 1318 1319 1320
f 1313 1318 1311
f 1311 1318 1321
f 1318 1320 1321
f 1321 1320 1316
f 1320 1319 1316
f 1323 1326 1327
f 1326 1325 1327
f 1327 1325 1328
f 1325 1324 1328
f 1323 1330 1322
f 1330 1331 1322
f 1322 1331 1323
f 1323 1331 1326
f 1326 1331 1325
f 1334 1332 1335
f 1332 1333 1335
f 1336 1333 1323
f 1333 1332 1323
f 1323 1332 1330
f 1337 1334 1338
f 1341 1342 1343
f 1334 1335 1338
f 1335 1342 1338
f 1338 1342 1337
f 1342 1341 1337
f 1337 1341 1343
