v -0.000578 0.02 0.083452
v -0.014705 0.009425 0.083452
v -0.013168 0.009091 0.083452
v -0.016178 0.009974 0.083452
v -0.021625 0.015421 0.083452
v -0.005641 0.010728 0.083452
v -0.022175 0.023105 0.083452
v -0.013168 0.030909 0.083452
v -0.014705 0.030575 0.083452
v -0.007021 0.030025 0.083452
v -0.0116 0.008978 0.083452
v -0.007021 0.009974 0.083452
v -0.020872 0.014041 0.083452
v -0.010031 0.009091 0.083452
v -0.008495 0.009425 0.083452
v -0.016178 0.030025 0.083452
v -0.019929 0.012782 0.083452
v -0.000691 0.018431 0.083452
v -0.002328 0.014041 0.083452
v -0.004382 0.01167 0.083452
v -0.00327 0.012782 0.083452
v -0.022509 0.018431 0.083452
v -0.022175 0.016895 0.083452
v -0.020872 0.025959 0.083452
v -0.021625 0.024578 0.083452
v -0.001574 0.024578 0.083452
v -0.019929 0.027217 0.083452
v -0.000691 0.021568 0.083452
v -0.001025 0.023105 0.083452
v -0.002328 0.025959 0.083452
v -0.00327 0.027217 0.083452
v -0.018817 0.01167 0.083452
v -0.017559 0.010728 0.083452
v -0.004382 0.028329 0.083452
v -0.005641 0.029272 0.083452
v -0.008495 0.030575 0.083452
v -0.017559 0.029272 0.083452
v -0.018817 0.028329 0.083452
v -0.001574 0.015421 0.083452
v -0.001025 0.016895 0.083452
v -0.010031 0.030909 0.083452
v -0.0116 0.031021 0.083452
v -0.022509 0.021568 0.083452
v -0.022621 0.02 0.083452
v -0.004382 0.028329 0.085499
v -0.005641 0.029272 0.085499
v -0.007021 0.030025 0.085499
v -0.008495 0.030575 0.085499
v -0.010031 0.030909 0.085499
v -0.0116 0.031021 0.085499
v -0.013168 0.030909 0.085499
v -0.014705 0.030575 0.085499
v -0.016178 0.030025 0.085499
v -0.017559 0.029272 0.085499
v -0.018817 0.028329 0.085499
v -0.019929 0.027217 0.085499
v -0.020872 0.025959 0.085499
v -0.021625 0.024578 0.085499
v -0.022175 0.023105 0.085499
v -0.022509 0.021568 0.085499
v -0.001574 0.015421 0.085499
v -0.001025 0.016895 0.085499
v -0.000691 0.018431 0.085499
v -0.000578 0.02 0.085499
v -0.000691 0.021568 0.085499
v -0.001025 0.023105 0.085499
v -0.001574 0.024578 0.085499
v -0.002328 0.025959 0.085499
v -0.00327 0.027217 0.085499
v -0.013168 0.009091 0.085499
v -0.0116 0.008978 0.085499
v -0.010031 0.009091 0.085499
v -0.008495 0.009425 0.085499
v -0.007021 0.009974 0.085499
v -0.005641 0.010728 0.085499
v -0.004382 0.01167 0.085499
v -0.00327 0.012782 0.085499
v -0.002328 0.014041 0.085499
v -0.022175 0.016895 0.085499
v -0.021625 0.015421 0.085499
v -0.020872 0.014041 0.085499
v -0.019929 0.012782 0.085499
v -0.018817 0.01167 0.085499
v -0.017559 0.010728 0.085499
v -0.016178 0.009974 0.085499
v -0.014705 0.009425 0.085499
v -0.022509 0.018431 0.085499
v -0.022621 0.02 0.085499
f 65 29 66
f 66 26 67
f 86 3 70
f 59 43 60
f 45 35 46
f 60 44 88
f 82 32 83
f 76 21 77
f 54 38 55
f 57 25 58
f 81 17 82
f 64 28 65
f 69 34 45
f 79 5 80
f 47 36 48
f 53 37 54
f 58 7 59
f 63 1 64
f 67 30 68
f 83 33 84
f 49 42 50
f 62 18 63
f 80 13 81
f 70 11 71
f 51 9 52
f 84 4 85
f 72 15 73
f 55 27 56
f 68 31 69
f 56 24 57
f 61 40 62
f 48 41 49
f 87 23 79
f 52 16 53
f 73 12 74
f 77 19 78
f 78 39 61
f 85 2 86
f 74 6 75
f 71 14 72
f 75 20 76
f 50 8 51
f 46 10 47
f 88 22 87
f 65 28 29
f 66 29 26
f 86 2 3
f 59 7 43
f 45 34 35
f 60 43 44
f 82 17 32
f 76 20 21
f 54 37 38
f 57 24 25
f 81 13 17
f 64 1 28
f 69 31 34
f 79 23 5
f 47 10 36
f 53 16 37
f 58 25 7
f 63 18 1
f 67 26 30
f 83 32 33
f 49 41 42
f 62 40 18
f 80 5 13
f 70 3 11
f 51 8 9
f 84 33 4
f 72 14 15
f 55 38 27
f 68 30 31
f 56 27 24
f 61 39 40
f 48 36 41
f 87 22 23
f 52 9 16
f 73 15 12
f 77 21 19
f 78 19 39
f 85 4 2
f 74 12 6
f 71 11 14
f 75 6 20
f 50 42 8
f 46 35 10
f 88 44 22
