v 0.047554 0.0358299 0.0429169
v 0.0644133 -0.0302721 0.0608237
v 0.0513876 -0.0423102 0.0322179
v 0.06441 0.024489 0.0664635
v 0.0553379 -1.61051e-05 0.0751319
v 0.0475108 -0.0375124 0.0158719
v 0.0536789 0.0169393 -0.010867
v 0.0483602 0.0223633 0.0412676
v 0.0534745 0.0282699 0.0380533
v 0.0466084 -0.0346182 0.044797
v 0.0560802 -0.036721 0.0141941
v 0.0519654 -0.0236675 0.0375119
v 0.0467885 -0.00911726 0.00917272
v 0.0466663 -0.0251351 0.0522527
v 0.0476487 -0.0346748 0.0449342
v 0.0472995 0.0257739 0.052043
v 0.0556415 -0.0411714 0.0471992
v 0.0551365 -0.0316897 0.0621093
v 0.0474578 0.00810517 0.000862508
v 0.0514361 -0.0185124 0.0265582
v 0.0510563 0.00811511 0.0497982
v 0.0398428 -0.026827 0.0424658
v 0.0479189 0.0156361 0.0202291
v 0.0443096 0.0107642 0.00894743
v 0.0443068 0.00817374 0.0071892
v 0.0644433 0.009597 -0.0136529
v 0.0644962 -0.0282758 -0.0042664
v 0.046722 0.0120246 0.00532611
v 0.0471544 -0.0197088 0.0382809
v 0.0465703 0.0194666 0.0593135
v 0.0460189 -0.0323522 0.0490491
v 0.0478291 -0.0093524 -0.00794209
v 0.0476885 -0.0104559 0.0119427
v 0.0515541 -0.00884599 0.015181
v 0.0523301 0.0131959 -0.0104668
v 0.0529561 0.0269644 0.040102
v 0.0399059 0.0283907 0.0488326
v 0.0539104 -0.0148643 -0.00566707
v 0.056043 -0.0129505 -0.0133068
v 0.0560685 0.019992 0.0689223
v 0.0509239 0.0158024 0.0228938
v 0.0518354 0.0189729 0.0273904
v 0.0557256 0.043346 0.0172494
v 0.0572136 0.0370131 0.0435095
v 0.0582286 0.015325 -0.00742738
v 0.0421777 -0.0294158 0.0506588
v 0.058445 0.0385202 0.0150036
v 0.0526434 -0.0377739 0.00934333
v 0.0455051 -0.00831315 0.00678996
v 0.0462667 -0.012686 0.00657356
v 0.0442953 -0.0121997 0.00749705
v 0.0489913 -0.0150315 0.0313743
v 0.0643664 0.0433999 0.0384109
v 0.0491648 0.00449367 -0.00737507
v 0.0465695 -0.000290525 0.0137694
v 0.0468014 0.00224142 0.0564462
v 0.0471652 -0.0300775 0.00775373
v 0.0481231 -0.036603 0.016419
v 0.0494186 -0.00463904 0.0455531
v 0.0475861 0.00630229 0.0644114
v 0.0521547 -0.0168179 0.0688863
v 0.0543454 -0.0425426 0.0429071
v 0.0482808 -0.0264985 0.0588995
v 0.0525056 0.0272927 -0.00554973
v 0.0491018 0.0369159 0.0118
v 0.0476145 -0.0156471 0.0195247
v 0.0505388 0.00531463 0.0137677
v 0.0412994 0.00146799 -0.0133526
v 0.0533678 0.00106114 -0.0136408
v 0.0470463 0.0176082 0.0368392
v 0.0466749 -0.00600575 -0.00433134
v 0.0481529 0.0173479 0.064804
v 0.0489777 -0.0284474 0.00234274
v 0.0643028 0.0203389 -0.00895443
v 0.064378 0.0378135 0.00563685
v 0.0641464 0.0191618 0.068294
v 0.0555784 0.00154208 0.0738242
v 0.0608087 -0.0442887 0.0292718
v 0.0512741 0.00585807 0.045693
v 0.0555776 -0.0440627 0.0191271
v 0.0562892 0.0139158 0.066544
v 0.0700444 -0.0367748 0.0141588
v 0.0547875 0.0412275 0.0149729
v 0.0560582 0.0370413 0.0148845
v 0.0451949 0.018296 0.0546124
v 0.0522118 -0.0287827 0.0365324
v 0.0538104 -0.0167278 -0.0111487
v 0.0401291 -0.0299556 0.0477562
v 0.0609036 -0.0153707 -0.0094317
v 0.0490335 0.0137308 0.0352515
v 0.0514344 0.0119468 0.0215485
v 0.0515011 0.0140462 0.0302426
v 0.0641712 -0.0310347 -0.00136358
v 0.0642295 -0.038784 0.0104162
v 0.0641545 0.0421698 0.0167719
v 0.0655854 -0.0421193 0.043032
v 0.0588117 -0.042094 0.0433728
v 0.0624716 0.0386518 0.0478037
v 0.0644198 0.0041852 0.0728603
v 0.0489306 -0.00420234 -0.00598263
v 0.0470901 0.0209977 0.0510756
v 0.0476652 -0.0121886 0.0662091
v 0.0476954 0.00863184 0.049078
v 0.0483025 0.000386986 0.0696397
v 0.0548216 0.0145886 0.0707623
v 0.0500654 0.0378956 0.0455553
v 0.0527964 0.0439379 0.0259641
v 0.0473173 -0.0114555 -0.00753826
v 0.0477438 0.0329646 0.038765
v 0.042918 0.0297473 0.040538
v 0.0420144 0.0243865 0.0411867
v 0.0526927 0.0155079 -0.00449278
v 0.0457055 0.0333016 0.0140406
v 0.0524224 -0.0224294 -0.00833988
v 0.0419079 0.0253734 0.0485972
v 0.046839 -0.0275793 0.005875
v 0.0479688 -0.0355232 0.0474819
v 0.0484457 -0.0146365 0.0666396
v 0.0428786 0.0308157 0.0356516
v 0.0477464 0.00625938 -0.0116209
v 0.0558265 0.0420751 0.0161218
v 0.064425 0.0140101 0.0699742
v 0.0587887 0.0144422 0.0708296
v 0.05678 0.0133063 0.0721266
v 0.0563621 -0.0133452 0.0719726
v 0.0561233 -0.0307748 0.0619052
v 0.0559302 -0.0420478 0.0158767
v 0.0502431 0.00974566 0.0434652
v 0.0575977 -0.0194786 0.0703463
v 0.0706209 -0.0440456 0.040471
v 0.0708026 -0.0333343 0.0591857
v 0.0619837 -0.0387098 0.0474401
v 0.0700332 0.0367987 0.0456112
v 0.064488 0.0384493 0.0109141
v 0.0555767 0.0192803 0.0703884
v 0.0559187 0.0395934 0.0451863
v 0.0560667 0.0386411 0.0476429
v 0.0560734 0.0182023 -0.00930646
v 0.0511297 -0.0386445 0.0109754
v 0.0448928 0.00378024 0.0615028
v 0.0506231 0.00854939 0.0635798
v 0.0512922 -0.0055316 0.063984
v 0.0475897 0.0198622 0.0381782
v 0.0454901 -0.0223718 0.0413555
v 0.0535831 0.0212868 -0.00795053
v 0.0564241 0.0202013 -0.00894376
v 0.0614807 -0.0181989 0.0678099
v 0.047453 0.00125371 0.012164
v 0.0466427 0.0115617 0.00898884
v 0.0453602 0.00984509 0.00664149
v 0.0489722 -0.00167724 0.0438173
v 0.0514059 -0.0135846 0.0352792
v 0.0514106 0.00243343 0.0435789
v 0.0514685 0.0080351 0.0414281
v 0.064304 -0.0429491 0.016753
v 0.0645567 -0.0200939 0.0684925
v 0.0631832 0.0186706 -0.00923067
v 0.0522556 5.43076e-05 -0.00636246
v 0.0442821 0.0042636 -0.00678448
v 0.0496582 -0.0065198 -0.0126252
v 0.0474781 -0.0172909 0.037893
v 0.0475701 -0.00485416 0.0635514
v 0.0483934 0.0163033 0.0331802
v 0.0480103 -0.0331217 0.0372521
v 0.0533648 0.0353985 0.056642
v 0.0510003 0.0427002 0.0366571
v 0.0478518 -0.00565795 0.0131412
v 0.0541176 -0.0266941 0.0378372
v 0.0477986 0.0332537 0.0479723
v 0.0425596 0.031037 0.0487936
v 0.0462605 0.0318505 0.0516341
v 0.0461446 -0.0198564 0.0593216
v 0.0466112 0.00495882 0.0648945
v 0.0405719 0.0250807 0.0362643
v 0.052532 0.0261037 0.0370792
v 0.0561193 -0.0171538 -0.00754723
v 0.0558692 0.042685 0.0425063
v 0.0574854 -0.0395808 0.0495693
v 0.0532087 0.0285403 -0.00348445
v 0.0499405 0.00927627 0.0678179
v 0.0548104 -0.0207713 0.0682592
v 0.0503647 -0.017514 0.0315922
v 0.0480835 0.00406215 0.0462627
v 0.056152 0.00645975 -0.0157142
v 0.0569239 0.0420433 0.0457576
v 0.0587156 -0.0146368 0.0676647
v 0.0549731 0.0384716 0.0513034
v 0.0687997 -0.0173848 -0.00831204
v 0.0700215 0.0156187 0.067103
v 0.0636183 0.0404215 0.0441606
v 0.056135 -0.0181633 0.068223
v 0.0562037 0.0387351 0.0114262
v 0.0553813 -0.0414688 0.0136978
v 0.0560487 -0.0373931 0.0470966
v 0.0417741 -0.0222485 0.037875
v 0.0458563 -0.0326311 0.0359576
v 0.0534246 -0.015137 -0.00840047
v 0.0468349 -0.0256192 0.0530535
v 0.0439156 -0.0285265 0.0507942
v 0.0468729 -0.0318959 0.0396433
v 0.0488839 -0.0215927 0.041149
v 0.0584962 0.0154426 0.0664711
v 0.0502179 -0.00463886 0.0696387
v 0.0574767 0.0366743 0.0128534
v 0.0564363 -0.0359384 0.0146319
v 0.0566837 0.01355 -0.00748068
v 0.0572773 -0.0377535 0.0432352
v 0.0440829 0.0007221 -0.00477444
v 0.0490025 0.00913454 0.0181763
v 0.049587 -0.00402079 0.0155854
v 0.0514886 -0.00955954 0.0191308
v 0.0645222 -0.0194113 -0.00946746
v 0.0587557 -0.0189916 0.0689412
v 0.0625184 0.0142979 -0.0114878
v 0.0529088 -0.00333022 -0.00453376
v 0.0471503 0.00956412 -0.00714526
v 0.0484755 0.00482195 0.0501271
v 0.0535665 -0.021169 -0.00805771
v 0.0473155 0.0272074 0.00348318
v 0.0465337 0.0269538 0.0530662
v 0.0481211 0.0161533 0.065877
v 0.0465959 0.0336283 0.0357753
v 0.0503208 0.0408106 0.0193889
v 0.0579421 0.0395174 0.00846948
v 0.0605856 0.0333691 0.0582569
v 0.0611264 0.0390187 0.0486247
v 0.0549518 -0.0437501 0.02769
v 0.0550405 -0.0205371 -0.0093484
v 0.0532224 -0.0286731 -0.00317361
v 0.054564 0.00113351 -0.0145103
v 0.0515473 -0.00906908 0.0432751
v 0.0557883 -0.0361205 0.00239203
v 0.0704559 0.0226502 0.0685867
v 0.0564474 -0.0359313 0.0443969
v 0.0564794 0.0175787 0.0656594
v 0.0700908 -0.0142103 0.0691065
v 0.0561666 -0.0146138 0.0668755
v 0.0562426 0.0148194 -0.00774531
v 0.048979 0.0132127 -0.00800736
v 0.0562493 -0.0378456 0.0436292
v 0.0429053 -0.0253848 0.0407631
v 0.0475365 0.00591271 -0.00440062
v 0.0580646 -0.0365509 0.0143839
v 0.0526805 0.00352601 -0.00460849
v 0.0426008 0.00207344 -0.00429769
v 0.0417278 0.0290148 0.0408075
v 0.048127 0.00873472 -0.00420062
v 0.0567149 -0.0169592 -0.00641361
v 0.0560551 0.014615 0.0665431
v 0.0558655 0.038604 0.00618166
v 0.0577545 -0.0184154 -0.00942175
v 0.0468412 -0.0214767 0.0514226
v 0.045698 -0.0188733 0.0579649
v 0.050881 -0.0265547 0.0413031
v 0.0513638 -0.0295719 0.0386548
v 0.0504049 0.0077313 -0.00241243
v 0.0456919 -0.00329301 0.0110355
v 0.0421182 0.000449442 0.0090356
v 0.0418801 0.000493703 0.00965012
v 0.0447164 -0.0052728 0.00798266
v 0.0459494 0.00644396 0.00781352
v 0.082216 0.0324153 0.0461304
v 0.071054 0.0250723 0.024837
v 0.0781019 0.0302322 0.0488801
v 0.0710497 -0.0351323 0.0257181
v 0.0710516 0.0167461 0.0610642
v 0.0710559 -0.00266215 0.0732929
v 0.0829696 0.018924 0.0599767
v 0.082685 0.0226553 0.0582574
v 0.0842045 0.0196983 0.0600886
v 0.0800328 0.0149053 0.0632487
v 0.0700484 -0.00730368 0.0637694
v 0.0700369 0.0317411 0.0162571
v 0.0822705 0.000839829 0.0656513
v 0.0924405 -0.0040779 0.0658216
v 0.070691 -0.0428368 0.0166492
v 0.0710427 -0.0361984 0.0292438
v 0.0675517 -0.0130669 0.023322
v 0.0710497 0.00267603 0.0647541
v 0.0709181 0.0170029 0.0291683
v 0.0710487 -0.0302936 0.0481108
v 0.0781251 -0.0167165 0.06124
v 0.0710523 -0.0229511 0.0294482
v 0.0780838 0.0175735 0.0603807
v 0.0780282 0.0138581 0.058614
v 0.0702167 -0.00407284 0.0726357
v 0.0709385 -0.0165721 0.031159
v 0.0780935 -0.0112749 0.0637102
v 0.0780501 -0.00272153 0.0576853
v 0.0780327 -0.00578522 0.0575602
v 0.0780688 -0.0225888 0.057417
v 0.07805 -0.0153308 0.0577552
v 0.0780501 0.0103733 0.0582413
v 0.078138 -0.0263725 0.0542306
v 0.07805 0.0195685 0.0523881
v 0.0710496 0.0224263 0.0275299
v 0.0782326 0.0253729 0.0553723
v 0.078025 0.022315 0.0577688
v 0.0780507 -0.00599711 0.0532279
v 0.07805 -0.00924953 0.0540968
v 0.0710495 0.00992347 0.0639142
v 0.0780559 -0.0121031 0.0583068
v 0.0780663 -0.0276785 0.0522974
v 0.0780519 0.00113912 0.0480399
v 0.0780472 0.00921756 0.0517376
v 0.0780505 0.0139213 0.051261
v 0.0780426 -0.0233842 0.0516777
v 0.07805 0.0166767 0.0498087
v 0.0780505 0.0198946 0.0443777
v 0.0780443 -0.00483154 0.0442463
v 0.0700735 0.0414686 0.0157128
v 0.0700432 -0.00401691 0.0640059
v 0.0707361 0.0445633 0.0254853
v 0.07805 0.0237269 0.0487116
v 0.0780493 -0.0266244 0.047889
v 0.0710499 0.0342956 0.0195239
v 0.0780394 0.0089168 0.0456532
v 0.0780054 -0.00306926 0.0420248
v 0.0780493 -0.0137767 0.0486582
v 0.078051 -0.0146058 0.0517632
v 0.0780511 -0.0187667 0.045933
v 0.0780504 -0.0183862 0.0480654
v 0.0697088 0.00971307 0.0409976
v 0.07105 0.0358282 0.0256158
v 0.078049 0.0125101 0.0414863
v 0.0780469 0.0112553 0.0428289
v 0.0780514 -0.0153599 0.0429108
v 0.0780499 0.0167925 0.0438861
v 0.0780485 0.0171582 0.0384218
v 0.0780592 -0.00918917 0.0408329
v 0.0780524 -0.0141938 0.0395115
v 0.0780504 0.0219566 0.0402962
v 0.0780501 -0.00814328 0.0382512
v 0.0780531 0.0274606 0.0392322
v 0.0779696 -0.000814175 0.0317384
v 0.07805 0.0257156 0.0411146
v 0.07805 0.0261896 0.0368559
v 0.0780501 -0.0254325 0.0378912
v 0.0780515 -0.0194805 0.0369592
v 0.07805 -0.0255115 0.0389429
v 0.0780361 0.0349959 0.0371542
v 0.113515 -0.0157627 0.00248194
v 0.07805 -0.0279861 0.0358753
v 0.115642 -0.00717713 -0.00196534
v 0.108205 -0.00509631 -0.00132397
v 0.07805 0.0212921 0.035887
v 0.113521 -0.000591246 -0.002317
v 0.106286 0.0075843 -0.00160966
v 0.0780507 0.0195475 0.0348965
v 0.113477 0.00791332 3.551e-05
v 0.0710503 -0.0240913 0.0319966
v 0.0780506 -0.0296502 0.0316481
v 0.0780511 -0.0243681 0.0343295
v 0.113482 0.0129027 0.00185054
v 0.109014 0.0153342 0.00178037
v 0.0780621 -0.036066 0.032041
v 0.07105 -0.0290684 0.0283984
v 0.0664482 -0.0347119 0.0438716
v 0.078047 0.0357996 0.033117
v 0.106583 0.022103 0.00771317
v 0.07805 0.0288002 0.0303993
v 0.113481 0.0249926 0.0120013
v 0.108208 0.0291833 0.017438
v 0.0710533 -0.0252667 0.0337461
v 0.102661 0.0313117 0.0226249
v 0.106397 0.0315524 0.0294302
v 0.0708827 0.00280193 0.0126825
v 0.111185 0.0296684 0.0386779
v 0.0780496 -0.0228348 0.0325717
v 0.0710499 0.03546 0.0333092
v 0.078036 -0.0316516 0.026544
v 0.106373 0.0254299 0.0486195
v 0.106294 0.0210693 0.0534824
v 0.0710518 0.0357528 0.0304532
v 0.110567 0.0171032 0.0555589
v 0.113481 0.0128825 0.0571611
v 0.106722 0.00793489 0.0593942
v 0.0780875 -0.0141212 0.0270311
v 0.113547 0.00497213 0.0605673
v 0.106299 -0.00480202 0.0610455
v 0.0708442 0.0103445 0.0162514
v 0.0698929 0.0309157 0.0609467
v 0.113482 -0.0129027 0.0571495
v 0.0780502 -0.0236525 0.0279083
v 0.115832 -0.0233168 0.051984
v 0.0780508 0.0249918 0.0252996
v 0.108208 -0.0291832 0.041562
v 0.0700278 -0.032715 0.0437058
v 0.07805 -0.0275607 0.0234701
v 0.0780491 -0.0129528 0.0149775
v 0.113477 -0.0294737 0.03738
v 0.108212 -0.0311182 0.034655
v 0.0780458 0.0112886 0.022604
v 0.0780481 0.0199662 0.025408
v 0.106346 -0.0317654 0.030221
v 0.0710494 -0.0298377 0.0346695
v 0.113489 -0.029503 0.0215028
v 0.0780421 0.0351965 0.0228868
v 0.113482 -0.0276506 0.0166042
v 0.111906 -0.0254264 0.0111034
v 0.106321 -0.0231452 0.0073648
v 0.0780249 -0.0338128 0.0179622
v 0.10657 -0.0175819 0.00386767
v 0.106337 -0.0130574 0.00057553
v 0.0710501 0.0267442 0.0283457
v 0.1056 -0.000691089 -0.00226201
v 0.115144 0.00872753 -0.00171244
v 0.0676398 -0.00193581 0.0150963
v 0.0663097 0.00426262 0.0160499
v 0.106547 0.0175441 0.00442248
v 0.106201 0.0207234 0.00493961
v 0.106359 0.026656 0.0121096
v 0.113522 0.0291658 0.0158815
v 0.113539 0.0307931 0.0239156
v 0.106116 0.0316291 0.0349064
v 0.113476 0.0312436 0.0339846
v 0.106502 0.0286687 0.0425192
v 0.113501 0.0278161 0.0436751
v 0.0694996 -0.0441846 0.034772
v 0.113535 0.0252078 0.0484265
v 0.113534 0.021444 0.0526227
v 0.106343 0.0130607 0.0584233
v 0.113487 0.0108404 0.0597159
v 0.106513 0.00302833 0.0608247
v 0.109724 -0.00221833 0.0605782
v 0.113498 -1.666e-05 0.0616544
v 0.110133 -0.00786471 0.0588487
v 0.113522 -0.0134675 0.058709
v 0.106385 -0.0144367 0.0577824
v 0.113481 -0.0175139 0.0544872
v 0.106235 -0.0210645 0.0536178
v 0.11353 -0.0251413 0.048549
v 0.106364 -0.0243354 0.0498979
v 0.113522 -0.0291658 0.0431185
v 0.106212 -0.0278369 0.0455059
v 0.0780329 0.00765433 0.0646228
v 0.110161 -0.0302622 0.0269237
v 0.106398 -0.0301814 0.0198293
v 0.113541 -0.0310198 0.0213663
v 0.113499 -0.0278388 0.0134098
v 0.113534 -0.0214444 0.00637728
v 0.0697206 0.0111375 0.019635
v 0.0710488 -0.0296481 0.0368483
v 0.0979323 0.0340722 0.0492215
v 0.0700067 0.0412395 0.0435149
v 0.0705088 -0.0100968 0.0168322
v 0.0710844 0.0190997 0.0349076
v 0.071263 0.0162754 0.0186362
v 0.0710494 0.0347978 0.0364957
v 0.064567 -0.0137879 0.0710977
v 0.0708164 -0.0145195 0.0208064
v 0.070232 0.0143571 0.0689181
v 0.100085 0.022456 0.00329401
v 0.0710639 -0.0165142 0.0357488
v 0.100881 0.0213712 0.00497393
v 0.100221 0.0317267 0.0393644
v 0.070018 -0.0415477 0.0158243
v 0.101041 0.0195107 0.0551798
v 0.100478 -0.00474872 0.0617581
v 0.0704923 0.0142938 0.0243364
v 0.100523 -0.00644243 -0.00346927
v 0.0999356 -0.0214736 0.00147394
v 0.0681969 0.0382476 0.0145657
v 0.100494 -0.0269408 0.0108946
v 0.100363 -0.0328211 0.0298543
v 0.100398 -0.0278698 0.0462733
v 0.0999852 0.0238827 0.0538369
v 0.100137 -0.0131043 0.0605953
v 0.0999023 -0.000158391 -0.00937208
v 0.0710295 -0.0173785 0.0270968
v 0.0999481 -0.000667836 0.0640633
v 0.0998386 -2.51347e-05 0.0691117
v 0.0999702 0.0192274 -0.00423621
v 0.0999651 -0.0195139 -0.00407689
v 0.0710501 0.0283326 0.0397594
v 0.0681057 -0.00639758 0.0683216
v 0.0999172 0.0334875 0.0101155
v 0.100023 -0.0332882 0.021911
v 0.0999853 0.0356951 0.0255619
v 0.0974378 -0.0395197 0.029521
v 0.100019 -0.0319715 0.0456596
v 0.0999674 0.0388647 0.0293635
v 0.0999837 0.019964 0.0635033
v 0.0999615 -0.0193165 0.0632084
v 0.0677523 0.0143171 0.0299751
v 0.0699762 -0.0144974 -0.0103732
v 0.0678548 -0.0128863 0.0359412
v 0.0710483 -0.0236141 0.0392919
v 0.0710496 -0.032068 0.0446899
v 0.0708163 0.0143848 0.0373065
v 0.0710471 0.0311561 0.0471418
v 0.0696281 0.0124476 -0.0138608
v 0.0702083 -0.0131404 0.0386185
v 0.0710526 0.020947 0.0388838
v 0.0696713 -0.0388547 0.00634327
v 0.0711906 0.0143975 0.0460358
v 0.0699156 -0.0122865 -0.00226584
v 0.0680218 -0.000847697 0.0440363
v 0.07105 0.0252605 0.0405019
v 0.0698625 0.0155823 -0.00727864
v 0.0710502 0.0179755 0.0457327
v 0.0707913 0.0425019 0.043429
v 0.0697469 0.0198148 -0.00954136
v 0.0710913 0.0014337 0.0475595
v 0.0693081 0.031771 -0.001069
v 0.070068 0.0310215 -0.00111454
v 0.0695565 0.00036784 -0.0170222
v 0.06955 0.0231767 -0.00907253
v 0.0699477 0.039041 0.0492656
v 0.0710507 -0.0217866 0.0464427
v 0.0700519 0.0388827 0.011412
v 0.0692555 -0.0383154 0.051147
v 0.07105 0.0255943 0.0470004
v 0.0710498 0.0105365 0.0545939
v 0.081719 0.0222504 0.000285894
v 0.0780355 0.00779457 0.0603938
v 0.0710526 0.0185373 0.0430322
v 0.0825043 0.0351022 0.0196095
v 0.0793802 -0.0083991 0.0649681
v 0.0789498 -0.0287726 0.00707034
v 0.0820129 -0.0362769 0.024345
v 0.0693865 -0.00835842 0.07527
v 0.0799138 0.0347604 0.0402752
v 0.0710578 0.0127653 0.0495284
v 0.071222 -0.0156835 0.0453526
v 0.07105 -0.0180774 0.0480805
v 0.0710678 -0.0254686 0.0229372
v 0.07123 -0.0109452 0.0458782
v 0.0781186 -0.0308699 0.0109421
v 0.0780471 -0.0067445 0.0115572
v 0.0780785 0.000695074 -0.00615033
v 0.078054 -0.00540926 5.80196e-05
v 0.0710493 0.027986 0.0505735
v 0.0651068 -0.0124033 -0.0131359
v 0.0780783 0.0312184 0.012274
v 0.0780648 0.00270131 0.0236943
v 0.0710497 0.0304008 0.011369
v 0.07105 -0.0222497 0.0489786
v 0.06655 0.0358342 0.0180237
v 0.0710664 0.012216 0.0549565
v 0.0711275 0.00972772 0.048195
v 0.0664998 0.0318485 0.016538
v 0.0710571 0.0216979 0.043592
v 0.0665502 -0.0144397 -0.00266601
v 0.07105 0.0295208 0.0497691
v 0.0697295 -0.0349326 0.0404783
v 0.0710559 0.0242128 -0.00708047
v 0.0710509 0.000399845 -0.00579747
v 0.0710422 -0.0172592 -0.00198692
v 0.0708863 -0.00506005 0.0457187
v 0.0782545 0.0153278 -0.00326137
v 0.08928 0.0165574 -0.00299502
v 0.066423 -0.0124481 -0.00664434
v 0.0710496 -0.0271725 0.0525857
v 0.0780494 0.0358631 0.0269564
v 0.0710505 -0.0115436 0.0493663
v 0.0710506 0.0153271 0.0466186
v 0.0781443 0.034123 0.0176259
v 0.0710487 -0.0127613 -0.00336267
v 0.07105 -0.00561622 0.0508974
v 0.0710646 -0.00214747 -0.0148487
v 0.07105 -0.00461621 -0.000428148
v 0.07105 -0.0218535 0.0508648
v 0.0710497 0.0104087 -0.00455456
v 0.0710515 -0.00387242 0.0529256
v 0.07105 -0.00460104 -0.00625339
v 0.07105 0.00746853 -0.00303641
v 0.0707289 -0.0263255 -0.00665961
v 0.0677398 0.0292601 0.0502886
v 0.0700097 0.0264076 0.0509824
v 0.0781652 0.00278057 0.0656641
v 0.0689416 0.0284503 0.0552788
v 0.0784237 -0.00895551 -0.00550073
v 0.07105 0.00235861 -0.0014155
v 0.07105 -0.00085269 -0.00154001
v 0.07105 0.00391526 -0.00035734
v 0.0665125 -0.00588186 0.06332
v 0.0710512 -0.00962853 0.049892
v 0.0710503 -0.00999583 0.00524897
v 0.0710539 0.0156242 -0.00165426
v 0.07105 -0.0104198 0.000297972
v 0.0780483 0.00627623 -0.0057849
v 0.07105 -0.0134041 0.0014904
v 0.07105 6.084e-05 0.00324747
v 0.07105 -0.0200798 0.0531248
v 0.07105 -0.00262343 0.00335736
v 0.07105 0.0069345 0.000696624
v 0.07105 -0.0120567 0.0555494
v 0.0780507 0.022561 0.0177595
v 0.0780501 0.029554 0.0165761
v 0.0710495 0.0192157 0.0545203
v 0.0710498 0.00734662 0.00437156
v 0.0710518 -0.00742422 0.0068163
v 0.071051 -0.0083107 0.00743924
v 0.07805 0.0185158 0.0173175
v 0.0710497 0.0238001 0.0559506
v 0.0712665 -0.00976687 0.00926974
v 0.0780507 -0.0170942 0.00690916
v 0.0710484 0.0248506 0.00465878
v 0.0710503 3.53421e-05 0.00527972
v 0.0710508 0.00143782 0.00580537
v 0.07105 0.00181032 0.00744579
v 0.0710612 -0.00250093 0.00555309
v 0.07105 0.00333614 0.00758836
v 0.07805 0.0239338 0.0138115
v 0.071049 0.00408377 0.00958722
v 0.07105 -0.0167153 0.00402734
v 0.0780502 -0.027448 0.0144334
v 0.0780502 0.016779 0.0120755
v 0.0710502 -0.00500117 0.00580188
v 0.0780499 -0.00877151 0.00911861
v 0.07105 0.0162635 0.0558975
v 0.0780452 -0.00486064 0.0127466
v 0.0710492 0.0141126 0.00753359
v 0.0710478 -0.0195933 0.0565028
v 0.0698874 -0.0206974 0.0686424
v 0.0709102 -0.0033829 0.013123
v 0.078056 0.0247618 0.0105147
v 0.0710519 0.0173349 0.00917271
v 0.07805 0.00454318 0.010525
v 0.0780436 0.00244362 0.0128891
v 0.0710496 0.0289469 0.00845035
v 0.0780513 0.0147364 0.00732581
v 0.0710608 0.000787355 0.0551685
v 0.0796873 0.0300621 0.008266
v 0.0780899 0.030318 0.0103194
v 0.07805 0.0190024 0.00864674
v 0.0710605 -0.0120248 0.00864292
v 0.0781806 0.0259066 0.00467007
v 0.0780512 0.0274679 0.0071151
v 0.07105 0.012654 0.0112237
v 0.07105 0.0188392 0.0109036
v 0.0710546 -0.0144296 0.0132198
v 0.07805 0.0066429 0.00398675
v 0.0780502 -0.0115066 0.00401383
v 0.07805 -0.00852921 0.00168909
v 0.07805 -0.0053987 0.0038085
v 0.0780505 0.00176349 0.00505945
v 0.0710588 -0.0134668 0.00977037
v 0.07105 -0.00462874 0.0559736
v 0.0780487 -0.0121491 -0.00102399
v 0.0780057 0.0122365 0.000395926
v 0.0711683 -0.0010852 0.048694
v 0.0710498 0.0217215 0.0568238
v 0.0780028 -0.0152476 -0.00161171
v 0.0699798 -0.0388682 0.048403
v 0.07105 -0.00208836 0.0574443
v 0.0710522 0.0169022 0.0128244
v 0.0707483 -0.0359581 0.00329189
v 0.0706051 0.0370597 0.00320445
v 0.070833 0.0328994 0.0600983
v 0.0710505 -0.0197571 0.0684206
v 0.069273 0.0132031 0.0713395
v 0.0710496 -0.0287521 0.00815702
v 0.0710524 -0.0164133 0.0609594
v 0.07105 -0.00830118 0.0557721
v 0.078 -0.0158401 0.0544921
v 0.0780283 -0.018284 0.0560583
v 0.07105 0.0173263 0.0578437
v 0.0780961 -0.00350955 -0.00654471
v 0.0710472 -0.0309209 0.0140099
v 0.0780873 -0.00145175 -0.00634644
v 0.0780501 0.00426717 -0.000474639
v 0.07805 0.00937014 -0.000678984
v 0.07805 -9.57211e-05 -0.00268588
v 0.0780501 0.0028931 -0.00197017
v 0.07805 -0.00900936 -0.00195355
v 0.0780507 -0.00162687 0.00508285
v 0.0780463 -0.00105158 0.00904351
v 0.0780508 0.00348528 0.00527821
v 0.0780506 -0.00417242 0.00538431
v 0.0710498 0.032681 0.014948
v 0.0780508 -0.0142601 0.00666024
v 0.0780446 -0.00307551 0.0124495
v 0.0710513 0.0212503 0.0132037
v 0.0780505 0.0233541 0.0117233
v 0.0780492 0.0106656 0.013383
v 0.0780498 0.0198449 0.0149091
v 0.07805 0.0276385 0.0188787
v 0.07805 -0.0268775 0.0207708
v 0.0780507 0.0276408 0.0203845
v 0.0780446 -0.030904 0.0469305
v 0.0999064 -0.0336432 0.0101069
v 0.0782402 -0.0348328 0.0199557
v 0.0780432 -0.0196737 0.0238273
v 0.07805 -0.0291695 0.0249773
v 0.0780503 0.0289903 0.0240738
v 0.0780728 -0.0354705 0.0238964
v 0.0780479 0.033501 0.0307246
v 0.0710497 -0.032926 0.0151806
v 0.07805 0.0178779 0.0285667
v 0.0780913 -0.0356706 0.0288916
v 0.0780489 -0.0218657 0.0305821
v 0.0783198 0.0359891 0.0306989
v 0.078045 -0.0248832 0.0358839
v 0.0780186 -0.0103968 0.0301725
v 0.0780503 0.0159692 0.0496339
v 0.0780335 -0.0326416 0.0444134
v 0.0780501 -0.0274438 0.0463375
v 0.0780494 0.0283175 0.0505076
v 0.0780449 -0.00053667 0.0468172
v 0.0745013 0.00287228 0.0513016
v 0.07805 0.02607 0.0482624
v 0.0780511 -0.0094518 0.0533967
v 0.0780497 0.0289269 0.0511178
v 0.0780511 0.0117185 0.0519577
v 0.07805 0.0215368 0.0526767
v 0.0782256 0.0191115 0.0599259
v 0.0780502 0.0167148 0.0559201
v 0.0780289 0.000298765 0.0579146
v 0.0780958 -0.018462 0.0601518
v 0.0782532 0.0111673 0.0638824
v 0.0710498 -0.0197174 0.0590658
v 0.07105 -0.00575629 0.0589557
v 0.0710471 0.00744268 0.0629613
v 0.0710505 -0.000799285 0.0652525
v 0.0710508 -0.00806623 0.0647687
v 0.07105 -0.0315775 0.0186714
v 0.07105 -0.0269943 0.0239817
v 0.0814248 0.0196494 -0.00106521
v 0.0816697 -0.00171831 -0.00684306
v 0.0710525 -0.022648 0.0267079
v 0.0782566 -0.0325803 0.0134448
v 0.0839633 -0.0304713 0.0091521
v 0.0815296 -0.036016 0.0283868
v 0.0820306 -0.0226439 0.0583153
v 0.0816278 -0.0167155 0.0617463
v 0.0884013 -0.000758628 -0.0064969
v 0.0860402 -0.0326858 0.0130792
v 0.0855584 -0.0367387 0.0265431
v 0.0819098 0.00187243 -0.00683829
v 0.0891427 -0.01765 0.0610449
v 0.0795102 -0.0305613 0.0488216
v 0.0835657 -0.0203445 0.0600267
v 0.07105 -0.0304996 0.0239228
v 0.113533 0.0213369 0.00618605
v 0.0855309 0.00170106 -0.00680551
v 0.0852295 -0.0192231 0.0601233
v 0.0829386 0.0321337 0.0127286
v 0.0852265 0.0197121 -0.00108435
v 0.0710499 -0.0253149 0.0184333
v 0.0896182 -0.0198696 -0.001125
v 0.070785 -0.0157124 0.0250929
v 0.0884929 -0.0257298 0.0557889
v 0.07105 0.0124455 0.0594203
v 0.0930142 -0.0336879 0.0439784
v 0.07105 -0.0108235 0.0610407
v 0.0857407 0.00777939 -0.00620686
v 0.0878528 0.033078 0.0135989
v 0.071052 0.0236457 0.0146728
v 0.0920481 0.021623 0.000125812
v 0.0898997 0.0298859 0.00847757
v 0.0916951 -0.0142952 -0.00418266
v 0.0795576 0.00233877 -0.00709523
v 0.0808812 -0.0196196 0.0600789
v 0.0710487 -0.00687211 0.0630667
v 0.0794647 0.0204638 -0.00098905
v 0.0795487 -0.0365915 0.0271689
v 0.0710509 0.0253086 0.0175157
v 0.0747021 0.00675038 0.046558
v 0.0939605 0.0332408 0.0147611
v 0.0921425 0.0362052 0.0274445
v 0.0930876 0.029005 0.0512663
v 0.0939687 0.0211453 0.0586777
v 0.0938647 0.000382736 0.0675521
v 0.0931013 0.0153283 0.0626487
v 0.0939088 -0.0152284 0.0623344
v 0.0939043 -0.0291689 0.0506718
v 0.0929319 -0.0362185 0.0323234
v 0.0940687 -0.0339484 0.0190797
v 0.094215 -0.0245331 0.00400286
v 0.0981161 -0.00399299 -0.00598616
v 0.0916707 0.00306756 -0.00665069
v 0.0939201 0.0190812 -0.0036996
v 0.0725368 0.00666331 0.0588945
v 0.0714801 0.00138274 0.0562715
v 0.0740173 0.00188763 0.0301568
v 0.0779297 0.00157479 0.0275591
v 0.0741741 0.0003742 0.0275429
v 0.0743422 -0.00064146 0.0307299
v 0.0710496 0.0282247 0.0229563
v 0.07105 0.0297929 0.0258722
v 0.07105 0.0305417 0.0215959
v 0.0710492 -0.0344814 0.02166
v 0.0710489 -0.0128485 0.0625404
v 0.0710512 0.022103 0.0204272
v 0.0912858 -0.0295142 0.0079542
v 0.0924204 0.0321006 0.0465235
v 0.0940355 -1.38135e-05 -0.00991361
v 0.093818 -0.0185977 -0.00383835
v 0.0940577 -0.0341469 0.00982533
v 0.0968282 -0.0344349 0.0491813
v 0.0933302 -0.0196874 0.0612887
v 0.0969883 0.0189518 0.0633238
v 0.0937798 0.0378455 0.0301643
v 0.0937678 0.0320119 0.0102465
v 0.0760966 -0.00820475 0.0389159
v 0.0761267 -0.00863226 0.0406
v 0.0710555 0.0234746 0.0259438
v 0.0722085 0.00668459 0.05534
v 0.074502 0.00679536 0.0529544
v 0.07105 0.0308034 0.0234085
v 0.0764806 0.0004675 0.0239256
v 0.0778383 -0.00806415 0.0175828
v 0.0763589 -0.00259843 0.0298917
v 0.0764667 -0.0112411 0.0257486
v 0.0899984 -0.0306465 0.047251
v 0.0899312 -0.03601 0.0284469
v 0.0899955 -0.0306963 0.0118365
v 0.0899962 0.0176612 -0.00119223
v 0.0899919 0.0306328 0.0116494
v 0.0795548 0.0328611 0.0132271
v 0.0516162 0.0254656 0.0355149
v 0.0484248 0.0217331 0.0355667
v 0.050382 0.026084 0.0362659
v 0.0448535 0.0277407 0.0290962
v 0.0452879 0.0298602 0.0347252
v 0.0481022 0.022333 0.0300366
v 0.0452271 0.0227516 0.036766
v 0.044314 0.0206345 0.0372114
v 0.0423583 0.0267146 0.0361428
v 0.0435887 0.024977 0.0448463
v 0.0462759 0.0235152 0.0450967
v 0.0501045 0.0297252 0.0440263
v 0.048611 -0.0313564 0.0437358
v 0.0428211 -0.0252622 0.0446956
v 0.0431399 -0.0273641 0.035731
v 0.0495596 -0.0284582 0.0359402
v 0.0490126 -0.0230815 0.0365366
v 0.0467613 -0.0229916 0.0367205
v 0.0421845 -0.0249431 0.0352063
v 0.0506423 -0.0241794 0.0289613
v 0.0442867 -0.0219803 0.036498
v 0.0484343 -0.0206156 0.0363121
v 0.0482898 -0.0309085 0.0343112
v 0.0516852 -0.025067 0.0353597
v 0.0409502 -0.0268353 0.0357809
v 0.044557 -0.0276344 0.0291111
v 0.0497245 -0.0244529 0.0296797
v 0.0461002 -0.0217699 0.0301547
v 0.116877 -6.06996e-05 0.00727534
v 0.116767 0.01844 0.018692
v 0.11679 0.0208351 0.0342477
v 0.116758 0.0119883 0.0471945
v 0.11705 -0.0142579 0.0479692
v 0.1165 0.0101168 0.0110976
v 0.116562 -0.0206927 0.0208269
v 0.116542 -0.00416057 0.0507356
v 0.116496 0.0214694 0.00579741
v 0.116535 -0.0265074 0.00922463
v 0.115993 0.0322732 0.0239055
v 0.116488 0.0303824 0.0400519
v 0.115169 -0.032022 0.0324197
v 0.116481 0.0234277 0.0514633
v 0.116493 0.0126421 0.0590428
v 0.115618 -0.00505561 0.0614254
v 0.0438454 0.00461107 -0.016014
v 0.0446189 -0.00534342 -0.0143583
v 0.0534012 0.000844922 -0.0160166
v 0.0454279 0.00384579 -0.00598045
v 0.0900291 0.0202605 -0.00950103
v 0.0914443 0.0165513 -0.00617477
v 0.0906143 0.0036684 -0.00935422
v 0.0866494 -0.0228834 -0.0113287
v 0.0953813 -0.0283041 -0.00151386
v 0.101066 -0.0239427 -0.00215976
v 0.100884 -0.0269821 0.00159294
v 0.0964329 0.0270213 -0.00207556
v 0.0902606 -0.0190782 -0.0104855
v 0.103044 0.0147441 -0.00558867
v 0.104153 0.00311194 -0.0081237
v 0.0929214 0.016531 -0.0105648
v 0.102466 0.00368042 -0.00648623
v 0.106774 -0.0163481 -0.00423155
v 0.105947 -0.013933 -0.0050367
v 0.110353 0.00454194 -0.005352
v 0.0841168 0.0250654 -0.0110341
v 0.080402 -0.0101378 -0.0104408
v 0.0834558 0.00755588 -0.0104884
v 0.0815366 0.0150193 -0.0106117
v 0.0896263 -0.0038348 -0.0104533
v 0.0881829 0.00843814 -0.0110332
v 0.0799987 0.0240496 -0.00999551
v 0.0797751 0.017035 -0.00349791
v 0.0797385 -0.0167049 -0.00397174
v 0.0812319 -0.0318191 -0.00300866
v 0.0797285 -0.0304341 0.00618629
v 0.0793204 -0.0327532 0.00980033
v 0.0851999 -0.0330824 -0.00368035
v 0.103729 0.0228516 -0.00317373
v 0.0931575 -0.00464483 -0.0091364
v 0.103191 -0.00307401 -0.00542423
v 0.0946379 -0.0150959 -0.00568564
v 0.102364 0.0148992 -0.00335531
v 0.092686 0.0273196 0.00172243
v 0.101352 0.0219436 0.00151034
v 0.10467 -0.0184823 -0.003945
v 0.113431 -0.0212796 -0.00364519
v 0.104401 0.0288037 0.0012229
v 0.0943409 0.0286082 0.00042832
v 0.0930237 -0.0276794 0.00184211
v 0.11529 -0.0229398 0.00586044
v 0.113226 0.0181886 0.00425528
v 0.113761 0.0158543 0.00174938
v 0.113271 0.0128215 0.000946295
v 0.106504 0.0079291 -0.000110442
v 0.113608 0.00840662 -0.000934596
v 0.104608 0.00638081 -0.00181799
v 0.106465 -0.0100697 -0.000339858
v 0.113165 -0.00803526 -3.80901e-05
v 0.113935 -0.0110059 -0.000575492
v 0.105809 -0.0159802 0.0017494
v 0.106456 -0.0175019 0.00431722
v 0.11322 -0.0158709 0.00252034
v 0.105181 -0.0218206 0.00595095
v 0.116156 -0.0113105 -0.002842
v 0.116056 0.0229501 0.00369564
v 0.114583 -0.0217788 0.00576963
v 0.104435 0.0171019 -0.00381474
v 0.0904022 -0.030403 0.00519949
v 0.0855644 0.0296035 0.00948597
v 0.0800724 0.0313625 0.0100899
v 0.0893073 0.0204508 -0.000808447
v 0.080498 0.0184416 -0.00151422
v 0.0896356 0.00946193 -0.00595545
v 0.0805134 0.00394196 -0.00755871
v 0.0895426 0.00241346 -0.00702531
v 0.0801598 -0.000488145 -0.00658229
v 0.0895056 0.00109236 -0.00648071
v 0.0900494 -0.00133742 -0.00712761
v 0.0801903 -0.016977 -0.0028293
v 0.0894791 -0.0157863 -0.00396406
v 0.0894935 -0.0175192 -0.0013229
v 0.0895401 -0.0210762 -0.000590156
v 0.0804505 -0.0267322 0.00425533
v 0.114079 -0.00615486 -0.00185888
v 0.115 0.00352494 -0.00241657
v 0.105619 -0.00569715 -0.00191854
v 0.106481 0.0112514 -0.000350355
v 0.106489 0.0163976 0.00218066
v 0.1065 -0.0137445 0.0006021
v 0.103815 0.0142518 0.000754139
v 0.106266 0.0215795 0.00569619
v 0.103718 0.0221504 0.00573298
v 0.115449 0.0226005 0.00614242
v 0.113824 -0.0143808 0.00112669
v 0.103705 0.0014961 -0.00356834
v 0.103451 0.0024284 -0.00726989
v 0.10353 -0.01469 8.51103e-05
v 0.103479 -0.0165926 -0.00207035
v 0.103057 0.0192909 -0.00122315
v 0.101964 -0.0222811 0.00192403
v 0.109037 -0.027617 0.000175311
v 0.114364 -0.0265592 0.00208449
v 0.113762 0.0264883 0.00173658
v 0.113878 0.0215141 -0.00341458
v 0.115833 0.00491648 -0.00360308
v 0.115274 1.972e-05 -0.00540965
v 0.0980526 -0.00545199 -0.0103488
v 0.091628 0.00394969 -0.00935452
v 0.0912515 0.0220722 -0.00334228
v 0.101173 0.0227274 -0.00184103
v 0.09377 -0.0240395 -0.00354711
v 0.0849165 0.03289 -0.0040668
v 0.0798733 -0.0272437 -0.00862656
v 0.0829646 -0.0327171 -0.00376582
v 0.10255 -0.0152808 -0.00417286
v 0.0899859 -0.0187067 -0.00318578
v 0.0921871 -0.0176009 -0.00909819
v 0.103248 -0.0192876 0.00080509
v 0.0907056 -0.0040071 -0.0089735
v 0.103158 -0.00354402 -0.00801206
v 0.088242 0.0370666 0.00729525
v 0.0871877 0.0339371 0.000751403
v 0.0882116 0.0336212 -0.000391164
v 0.0857467 0.0385084 0.00660717
v 0.0808602 0.0313403 -0.00397238
v 0.0796197 0.0330208 0.00988631
v 0.0813608 0.036994 0.00705112
v 0.0902897 -0.0323369 0.0102444
v 0.087011 -0.0362993 0.0042228
v 0.0824661 -0.0380645 0.00715999
v 0.090937 -0.0261848 0.00111083
v 0.0893306 0.0160519 -0.00328421
v 0.0908453 0.0224792 -0.00173093
v 0.0903123 0.0282204 0.00456807
v 0.0898741 0.0319549 0.0102883
v 0.0809273 -0.00953894 -0.0125512
v 0.0835356 -0.00817608 -0.013058
v 0.0858884 -0.00847289 -0.0125272
v 0.0880312 -0.0124889 -0.0109454
v 0.0823112 -0.0151081 -0.0129653
v 0.0802981 0.0112767 -0.0127666
v 0.0835129 0.0149211 -0.0130391
v 0.0869572 0.0135717 -0.0125009
v 0.0857227 0.0080525 -0.0129896
v 0.0501731 0.0278586 0.036146
v 0.0484064 0.0231557 0.0369925
v 0.0437414 0.0239225 0.0369201
v 0.0431666 0.0274918 0.0361396
v 0.0427155 0.0278037 0.0282334
v 0.0421256 0.0238637 0.029121
v 0.0428646 0.0168518 -0.0036095
v 0.0508979 0.0207203 -0.00431168
v 0.0461887 0.0231259 -0.00472004
v 0.0448885 0.014821 -0.00137167
v 0.0492954 0.0156807 -0.00338918
v 0.0500057 0.016004 -0.00100109
v 0.0511019 0.0195463 -0.00180006
v 0.0430581 0.0221459 -0.00399331
v 0.0491367 0.0235902 -0.00252301
v 0.0480734 0.0150391 -0.00080602
v 0.0449854 0.0155172 -0.00092087
v 0.0418813 0.0195702 -0.00178987
v 0.0476536 0.015226 -0.000914339
v 0.0430168 0.0169063 -0.00122473
v 0.0502491 0.0172647 -0.00124119
v 0.0430204 0.0217579 -0.00205562
v 0.0502468 0.0216738 -0.0020158
v 0.0433526 0.0227045 -0.00222569
v 0.0464474 0.0237864 -0.00235636
v 0.0495694 0.0179327 0.0126303
v 0.0444682 0.0179119 0.0152729
v 0.0503851 0.0193048 0.0131273
v 0.0495734 0.0243285 0.00512901
v 0.0495386 0.0261832 0.0140089
v 0.041897 0.0222442 0.0124502
v 0.0439267 0.0254672 0.0119211
v 0.0455732 0.0244604 0.00310051
v 0.0421897 0.0205174 0.0144142
v 0.0493994 0.0183646 0.0137864
v 0.0478007 0.0270134 0.0140424
v 0.0510177 0.023861 0.0138571
v 0.0433009 0.0251259 0.0122923
v 0.0447393 0.019996 0.0222653
v 0.0508314 0.0210834 0.0221091
v 0.0493722 0.0222148 0.0218445
v 0.0438332 0.0249597 0.0213476
v 0.0489383 0.026336 0.0211751
v 0.0421727 0.0255728 0.0213054
v 0.0474666 0.0279694 0.0206258
v 0.0476443 0.0184122 0.0213613
v 0.0442617 0.0188491 0.0200592
v 0.0509226 0.0194048 0.0140005
v 0.0428751 0.0191601 0.0156915
v 0.0423784 0.0207411 0.0207222
v 0.0503739 0.0263542 0.0210634
v 0.0419324 0.0224294 0.0128417
v 0.0445166 0.0276316 0.0202381
v 0.0449186 0.0280782 0.0177895
v 0.0455947 0.0179568 0.0173459
v 0.0463774 0.021801 0.0343788
v 0.0428898 0.0241895 0.0340512
v 0.0445271 0.0289967 0.0330358
v 0.0506648 0.0268907 0.0283747
v 0.0452416 0.0287264 0.0281113
v 0.0441182 0.0211975 0.0294681
v 0.0444176 0.0202863 0.0295377
v 0.0510042 0.0244402 0.0288229
v 0.0480936 0.0202727 0.0296269
v 0.0505536 0.0216204 0.0290608
v 0.0415499 0.0233816 0.0289251
v 0.0468736 0.0299338 0.0279283
v 0.0466774 0.0187548 0.0238513
v 0.0510907 0.0212769 0.0252662
v 0.0420565 0.021053 0.0245147
v 0.0418952 0.0266194 0.0245665
v 0.0462896 0.0293049 0.0232876
v 0.0508888 0.0277496 0.0249379
v 0.0432011 0.0259581 0.0223163
v 0.0465566 0.0206608 0.0234875
v 0.0435536 0.0242318 0.0228287
v 0.0498962 0.0223186 0.0229499
v 0.0504463 0.0258963 0.0223786
v 0.0462168 0.0188055 0.0264447
v 0.0516196 0.0245632 0.0254782
v 0.0417505 0.0267547 0.0253224
v 0.0466953 -0.0222314 0.0367896
v 0.0478591 -0.0201078 0.0296011
v 0.0444067 -0.0151547 -0.00326307
v 0.0513015 -0.0183643 -0.00398982
v 0.0434917 -0.0225841 -0.00471579
v 0.04394 -0.0156789 -0.00104668
v 0.0499291 -0.0158059 -0.00116552
v 0.0421662 -0.0179606 -0.00143681
v 0.0449577 -0.0237792 -0.00241129
v 0.0510477 -0.0179317 -0.00131943
v 0.05112 -0.0208241 -0.0018714
v 0.0500742 -0.0224175 -0.00220249
v 0.0457304 -0.0235369 -0.00234442
v 0.0461841 -0.015024 -0.000864867
v 0.0484135 -0.0156592 -0.0009629
v 0.0507579 -0.0180284 -0.0013585
v 0.0424654 -0.0215869 -0.00200331
v 0.0488042 -0.0233459 -0.00257207
v 0.0421458 -0.0188559 0.00370853
v 0.0431245 -0.0187132 0.0150483
v 0.0420874 -0.023363 0.0126506
v 0.0505615 -0.0244316 0.0126061
v 0.0487951 -0.016496 0.00559959
v 0.0511005 -0.0224857 0.0124238
v 0.0435492 -0.0233466 0.00339375
v 0.0432793 -0.0250019 0.0120939
v 0.0450404 -0.0242562 0.00308182
v 0.0427716 -0.0194787 0.0149478
v 0.0469493 -0.0175193 0.0148113
v 0.0419139 -0.0224471 0.0130665
v 0.048601 -0.0266097 0.0140206
v 0.0455909 -0.0266088 0.0128077
v 0.0509802 -0.0205308 0.0131302
v 0.0485701 -0.0191898 0.022347
v 0.0505367 -0.0216694 0.0219589
v 0.0421988 -0.0257917 0.0212788
v 0.0438962 -0.0255592 0.0219365
v 0.0480902 -0.0261858 0.0210994
v 0.0503909 -0.0270069 0.0207766
v 0.0451966 -0.0190157 0.0217789
v 0.044157 -0.0199443 0.0222364
v 0.0460807 -0.0180647 0.0191817
v 0.0496541 -0.0184786 0.0133977
v 0.0441026 -0.0189415 0.0200479
v 0.0416954 -0.0228665 0.0205688
v 0.045449 -0.0278484 0.0201987
v 0.0439325 -0.0271058 0.0162268
v 0.0491778 -0.0263104 0.0150002
v 0.0430687 -0.0193343 0.0171048
v 0.0501371 -0.0246875 0.0367656
v 0.0466575 -0.0296964 0.035829
v 0.042916 -0.0254077 0.0364349
v 0.0505732 -0.0262721 0.0334839
v 0.0461528 -0.0298008 0.0330183
v 0.0465145 -0.0292351 0.0279845
v 0.0465497 -0.020564 0.0296449
v 0.0422703 -0.0259064 0.0286273
v 0.0435746 -0.0287072 0.0279653
v 0.0438123 -0.0209459 0.0294951
v 0.04176 -0.0229605 0.0288022
v 0.0512606 -0.0216045 0.0275823
v 0.0510648 -0.0260963 0.0285671
v 0.0490512 -0.0290784 0.0277542
v 0.042252 -0.020938 0.0244494
v 0.0465909 -0.0187161 0.0240287
v 0.0460084 -0.0192593 0.0264298
v 0.0511544 -0.0266829 0.0242542
v 0.0482495 -0.0282337 0.0218618
v 0.0469041 -0.0292153 0.0245023
v 0.0412194 -0.0232947 0.0263133
v 0.0419208 -0.0264348 0.0242003
v 0.050922 -0.0212341 0.024071
v 0.0466786 -0.0188896 0.0237501
v 0.0468495 -0.0206215 0.023525
v 0.0435315 -0.0236556 0.0229128
v 0.0489158 -0.0257657 0.0225492
v 0.0484067 -0.0195625 0.0264068
v 0.0516375 -0.0241201 0.025573
v 0.0441829 -0.0286118 0.0247593
v 0.0497147 -0.0284244 0.0247076
v 0.103328 -0.0237867 0.00648327
v 0.115195 -0.0280394 0.0137373
v 0.115777 0.0291626 0.0143508
v 0.103595 0.0306671 0.0186457
v 0.115407 0.023314 0.00700478
v 0.103686 -0.032633 0.0320073
v 0.115184 -0.0314868 0.0231047
v 0.115132 0.0321558 0.0289346
v 0.115334 -0.0319252 0.0348779
v 0.1152 0.0297901 0.0420191
v 0.103739 0.0299179 0.0433632
v 0.103915 -0.0222719 0.053524
v 0.11526 -0.0226858 0.0535881
v 0.115075 0.0193003 0.0558846
v 0.103686 0.0131668 0.0598716
v 0.114993 -0.00103818 0.0618527
v 0.103936 0.00563722 0.0611281
v 0.103852 -0.0299504 0.0139696
v 0.104332 -0.0290022 0.0066617
v 0.115499 -0.0315377 0.0171291
v 0.10887 -0.0298298 0.00390711
v 0.111407 -0.0290812 0.00169892
v 0.112915 -0.0277653 0.00717857
v 0.107341 -0.0257613 0.00372348
v 0.103633 -0.0255114 0.00404595
v 0.115512 -0.0229276 0.00688875
v 0.110195 -0.0249343 0.00401736
v 0.115021 -0.0261904 0.00337976
v 0.108765 0.0254453 0.00336409
v 0.103504 0.0229181 0.00691429
v 0.107115 0.0289467 0.00269009
v 0.113678 0.0262839 0.00326987
v 0.11319 0.0289847 0.00528319
v 0.103862 0.0335323 0.0241293
v 0.108273 0.0277661 0.00965192
v 0.103663 0.0272707 0.00376246
v 0.115311 0.0337676 0.0252494
v 0.103581 0.0330872 0.0362985
v 0.103686 -0.0337912 0.0252281
v 0.115299 -0.0324899 0.0397083
v 0.103671 0.0297385 0.0452835
v 0.115556 0.032244 0.0408016
v 0.103659 -0.0317673 0.0417386
v 0.103631 0.0241498 0.0533925
v 0.115168 0.0226938 0.0547412
v 0.115364 -0.0241748 0.0533701
v 0.103836 -0.022681 0.0547538
v 0.115396 -0.00889783 0.0625316
v 0.115322 0.00923141 0.062183
v 0.103633 -0.0123435 0.0609352
v 0.103769 0.00122788 0.0631403
v 0.109671 0.0250244 0.00842612
v 0.107317 -0.0257425 0.00798975
v 0.109796 -0.0269322 0.00984477
v 0.034575 0.0129951 -0.00625322
v 0.0354438 0.0169795 -0.00438153
v 0.0345418 -0.0143398 -0.00986148
v 0.0353019 -0.0166168 -0.00470903
v 0.0343213 -0.0117114 -0.00590833
v 0.0349882 0.0141851 -0.0136385
v 0.0352164 -0.0146557 -0.013463
v 0.0542704 -0.0196847 -0.0113648
v 0.05715 -0.01031 -0.0149797
v 0.0566881 0.0219555 -0.0103146
v 0.0335036 0.0233558 -0.0033499
v 0.0571246 0.0104844 -0.0193805
v 0.0566965 0.0103402 -0.0150157
v 0.0576259 -0.00873081 -0.0193587
v 0.0540867 -0.0117946 -0.0185968
v 0.0392936 0.0234837 -0.01697
v 0.0381304 0.0132513 -0.0167616
v 0.0341921 -0.0178305 -0.00344388
v 0.0567358 -0.023545 -0.0102835
v -0.021269 0.0100139 -0.0054351
v -0.0238564 -0.00155279 -0.00502795
v -0.0222076 -0.00531046 -0.00483147
v -0.0219743 -0.0102669 -0.00493498
v -0.0169487 -0.017012 -0.00612384
v -0.00935585 -0.0210534 -0.00762212
v -0.0048777 0.022698 -0.0084073
v 0.00220443 -0.0227918 -0.0100332
v -0.00073859 -0.0214631 -0.00900949
v 0.0232979 -0.0238746 -0.0146659
v 0.0110433 0.0180388 -0.0115059
v 0.0211637 -0.0144734 -0.0132427
v 0.0237511 0.0145947 -0.0157343
v 0.00321418 0.0218147 -0.00398198
v -0.0128783 0.0179596 -0.00621861
v 0.0165024 0.0143306 -0.00530201
v -0.0187464 0.0101279 -0.00399838
v 0.0206901 0.00621651 -0.00598552
v 0.021959 -0.000752163 -0.00517528
v -0.0187787 -0.0101025 -0.00399987
v 0.01694 -0.0139292 -0.00515763
v -0.0123654 -0.0175581 -0.004
v 0.00306119 -0.0219707 -0.00396323
v 0.0765017 0.0227381 -0.0104637
v 0.0765001 -0.0229393 -0.0104608
v 0.0764975 0.000728917 -0.0165747
v -0.00110126 -0.0240119 -0.0085161
v 0.00956369 -0.0239541 -0.00311225
v -0.00489292 -0.023747 -0.00036801
v 0.0220871 -0.0240012 -0.0128222
v 0.0339701 -0.023914 -0.00359061
v 0.0381848 -0.0237674 -0.0165872
v 0.0791245 -0.0239717 -0.0106289
v 0.0765382 -0.0238712 -0.00399713
v 0.0694942 -0.0240158 -0.018975
v 0.0846363 -0.0242379 -0.0105037
v 0.0137888 0.0235002 -0.00310456
v 0.0218889 0.0237647 -0.0134409
v 0.0399009 0.0240026 -0.0164626
v 0.0244863 0.0238662 -0.0166312
v 0.055377 0.024001 -0.0107266
v 0.0790968 0.0240397 -0.0108102
v 0.0773489 0.023221 -0.00250036
v 0.0699654 0.024016 -0.0186516
v 0.0216319 -0.00934835 -5.51659e-05
v 0.00529597 0.0233267 -1.492e-05
v -0.0234991 0.00802593 6.70717e-05
v 0.0240393 0.00302449 -0.00053844
v 0.0112045 -0.0216727 -7.27941e-05
v -0.0197526 -0.0151616 -0.00032235
v 0.0987541 -0.00518317 -0.0104506
v 0.069066 -0.0235305 -0.0197577
v 0.0700535 0.0233655 -0.0196436
v -0.0136832 0.020194 -0.00621689
v -0.00880044 0.0226556 -9.66302e-05
v 0.0184448 0.0155477 -0.000313861
v 0.0983137 0.0040227 -0.0107384
v 0.0878066 -0.0084907 -0.0152148
v 0.0847906 0.00747395 -0.0166634
v 0.0867498 0.023181 -0.0107005
v 0.0807833 -0.0115398 -0.0162416
v 0.0821723 0.0152047 -0.0159229
v 0.0872767 -0.021616 -0.0112533
v 0.0828624 -0.00548374 -0.0188194
v 0.0797675 -0.0115293 -0.0186273
v 0.0798487 0.0117245 -0.0172243
v 0.0818401 0.00803718 -0.0149956
v 0.0778995 -0.0210595 -0.00196681
v 0.0799828 -0.0238493 -0.00398848
v 0.0800191 0.0213882 -0.0027113
v 0.0764984 -0.00031937 -0.0035608
v 0.0319226 0.0238473 -0.00320452
v 0.0261423 -0.00243516 -0.00284804
v 0.0283468 -0.0235 -0.003
v 0.0170703 -0.0192656 -0.0030036
v 0.0246152 -0.0145322 -0.0169426
v 0.0897357 0.0370597 0.0257735
v 0.0800257 0.0369688 0.0322142
v 0.0899465 0.0319241 0.0113831
v 0.0899165 0.0322023 0.0477186
v 0.0896594 0.0163589 0.0629125
v 0.0807188 0.00300729 0.066277
v 0.0899529 -0.00835357 0.0658957
v 0.0803788 0.0322441 0.0117611
v 0.0808816 0.037219 0.0191896
v 0.0877461 0.0385378 0.00944737
v 0.0814548 0.0381817 0.00910806
v 0.0875276 0.0372327 0.0185469
v 0.0899498 0.0380693 0.0132659
v 0.0833703 0.0367393 0.0083251
v 0.0886092 0.0365832 0.00877096
v 0.0899792 -0.0319754 0.0113494
v 0.0800422 -0.0361926 0.0271801
v 0.0897799 -0.0366513 0.0227876
v 0.0899498 -0.0357637 0.0389257
v 0.0802887 -0.0360412 0.0377809
v 0.0897969 -0.0271744 0.0557254
v 0.0801469 -0.0271682 0.0538574
v 0.0810264 -0.0159742 0.0625096
v 0.0801949 -0.00246967 0.0658068
v 0.0801051 0.0379131 0.0342136
v 0.0898715 0.0378691 0.0302993
v 0.0809811 -0.0371339 0.0211536
v 0.0896922 -0.0375925 0.0379304
v 0.0898067 0.035783 0.0428227
v 0.0802196 0.0301575 0.0516421
v 0.0801863 -0.0377649 0.0356412
v 0.0899027 0.0273889 0.0561669
v 0.0800622 -0.0309903 0.0519583
v 0.0800752 0.0182691 0.0618489
v 0.0897135 -0.00622576 0.067733
v 0.0898361 0.0145615 0.0646099
v 0.0799049 -0.00119325 0.0680647
v 0.0805932 -0.0380026 0.0125205
v 0.0858894 -0.0384091 0.00820858
v 0.0885605 -0.0383088 0.0121378
v 0.0800546 -0.0322968 0.0115422
v 0.0800512 -0.0353963 0.00910953
v 0.0841727 -0.0345618 0.0089792
v 0.0896354 -0.0362449 0.00860133
v 0.0800606 -0.0191711 0.0615993
v 0.0831177 -0.0338547 0.0128114
v 0.087404 -0.034106 0.0123176
v 0.0823443 0.034364 0.0124125
v 0.08532 0.0326897 0.0105183
f 252 14 172
f 16 72 60
f 117 17 18
f 184 120 239
f 49 50 13
f 198 161 59
f 42 36 70
f 79 21 217
f 25 150 24
f 27 212 93
f 50 108 29
f 13 50 29
f 149 55 29
f 58 15 3
f 103 217 21
f 104 61 5
f 6 62 10
f 71 257 33
f 257 167 33
f 38 20 168
f 165 220 221
f 172 61 118
f 171 119 37
f 837 196 88
f 7 238 138
f 139 193 11
f 88 10 117
f 14 252 46
f 146 145 112
f 51 50 49
f 148 23 67
f 149 24 150
f 150 25 24
f 52 210 151
f 534 26 89
f 239 120 28
f 160 108 49
f 28 120 150
f 49 108 50
f 239 28 143
f 55 13 29
f 28 149 143
f 149 29 252
f 143 149 252
f 101 252 56
f 70 16 103
f 103 16 162
f 217 103 162
f 198 162 102
f 16 60 162
f 79 128 103
f 79 103 21
f 163 70 103
f 118 61 104
f 136 106 165
f 165 221 135
f 166 106 136
f 184 160 69
f 160 87 108
f 184 69 120
f 193 80 6
f 6 80 62
f 63 117 18
f 61 63 18
f 250 64 65
f 32 71 33
f 33 167 66
f 32 33 66
f 148 19 23
f 167 67 34
f 167 34 20
f 160 858 69
f 109 110 36
f 19 112 23
f 23 112 42
f 145 113 109
f 145 109 9
f 112 145 9
f 112 9 36
f 42 112 36
f 106 171 165
f 173 172 104
f 29 195 252
f 176 87 197
f 226 98 4
f 226 4 225
f 122 99 124
f 2 126 147
f 102 203 125
f 15 31 126
f 20 42 128
f 185 166 136
f 61 18 129
f 135 105 5
f 160 507 87
f 62 130 17
f 18 130 131
f 82 243 155
f 44 190 445
f 237 61 191
f 65 192 83
f 84 65 83
f 240 194 117
f 141 180 60
f 88 117 46
f 37 101 220
f 200 22 31
f 182 59 161
f 167 148 67
f 50 51 49
f 67 23 41
f 28 150 149
f 149 150 24
f 209 90 210
f 210 90 151
f 2 147 156
f 189 122 123
f 71 32 215
f 49 13 55
f 149 150 261
f 149 261 55
f 143 252 101
f 220 101 30
f 162 60 203
f 73 57 48
f 201 161 198
f 198 59 217
f 198 217 162
f 229 218 73
f 73 218 57
f 105 104 5
f 43 83 107
f 57 218 164
f 57 164 15
f 7 184 239
f 218 38 168
f 168 20 201
f 201 20 161
f 115 170 16
f 64 219 65
f 116 139 6
f 10 62 117
f 105 221 104
f 113 1 109
f 196 10 88
f 195 837 88
f 195 88 252
f 177 53 190
f 224 75 134
f 146 157 74
f 450 186 125
f 124 99 77
f 2 132 178
f 2 178 126
f 155 78 96
f 96 78 97
f 146 179 145
f 223 177 1
f 1 187 169
f 72 187 40
f 203 180 77
f 182 20 79
f 184 7 64
f 185 136 165
f 184 507 160
f 87 507 114
f 80 276 130
f 80 130 62
f 17 130 18
f 5 129 522
f 206 146 112
f 58 127 243
f 97 15 207
f 234 15 132
f 81 72 235
f 204 47 223
f 189 202 76
f 202 40 76
f 118 61 237
f 136 106 137
f 7 238 239
f 240 62 17
f 117 194 17
f 60 180 141
f 102 162 142
f 162 203 142
f 86 29 12
f 837 195 29
f 114 196 86
f 87 114 86
f 197 87 86
f 197 12 29
f 252 88 46
f 7 239 175
f 22 200 241
f 157 146 45
f 206 45 146
f 23 42 41
f 66 167 20
f 108 87 197
f 108 197 29
f 114 116 196
f 64 7 219
f 260 160 49
f 260 49 55
f 120 261 150
f 111 110 246
f 70 8 16
f 242 216 247
f 242 247 19
f 114 232 139
f 139 232 193
f 38 32 66
f 38 66 20
f 164 218 168
f 170 169 16
f 116 114 139
f 65 219 222
f 83 65 107
f 107 65 222
f 107 222 166
f 166 222 171
f 106 166 171
f 171 220 165
f 14 117 172
f 172 117 63
f 172 63 61
f 220 30 221
f 221 30 173
f 221 173 104
f 172 118 104
f 222 119 171
f 119 174 37
f 174 820 37
f 37 820 101
f 820 143 101
f 113 223 1
f 109 1 169
f 16 169 72
f 60 72 180
f 228 218 229
f 229 73 48
f 39 230 32
f 230 35 216
f 58 57 15
f 6 10 196
f 116 6 196
f 38 228 248
f 135 249 105
f 95 53 177
f 74 75 224
f 121 95 223
f 223 95 177
f 146 74 179
f 179 74 224
f 225 4 76
f 187 226 225
f 187 225 40
f 40 225 76
f 123 122 124
f 99 450 125
f 99 125 77
f 147 126 213
f 126 181 213
f 155 127 78
f 127 227 78
f 227 3 78
f 78 3 97
f 212 228 93
f 228 229 93
f 93 229 48
f 93 48 94
f 214 230 26
f 230 39 26
f 26 39 89
f 230 214 35
f 113 179 224
f 72 169 187
f 203 60 180
f 180 124 77
f 125 203 77
f 178 15 126
f 31 198 126
f 198 102 181
f 126 198 181
f 127 58 3
f 127 3 227
f 97 3 15
f 163 103 128
f 42 163 128
f 59 182 231
f 79 183 59
f 34 67 41
f 34 41 42
f 20 34 42
f 20 128 79
f 231 182 79
f 231 79 59
f 232 80 193
f 250 65 83
f 43 250 83
f 5 61 129
f 114 568 232
f 650 64 250
f 650 250 43
f 313 43 107
f 313 107 166
f 313 166 502
f 502 166 185
f 165 135 233
f 135 5 522
f 35 206 112
f 243 48 205
f 205 48 58
f 205 58 243
f 207 15 234
f 132 15 178
f 186 147 102
f 102 147 181
f 186 102 125
f 235 72 40
f 44 1 177
f 44 187 1
f 113 204 223
f 121 223 47
f 500 157 45
f 45 214 500
f 251 188 89
f 553 89 188
f 127 155 243
f 207 358 97
f 358 207 132
f 186 236 147
f 236 186 450
f 202 189 123
f 44 445 133
f 98 44 133
f 204 134 463
f 47 204 463
f 118 237 61
f 237 191 61
f 249 135 221
f 249 221 105
f 106 136 137
f 192 65 84
f 192 84 83
f 238 7 239
f 7 138 238
f 87 176 197
f 6 139 11
f 6 11 193
f 117 62 240
f 194 240 17
f 140 252 253
f 94 48 243
f 197 86 12
f 251 212 188
f 46 117 14
f 22 198 199
f 31 22 199
f 199 198 31
f 219 7 222
f 222 7 175
f 175 239 143
f 37 220 171
f 22 241 144
f 15 200 31
f 15 164 200
f 257 148 167
f 48 57 58
f 218 228 38
f 224 204 113
f 183 79 217
f 72 81 180
f 180 81 124
f 44 177 190
f 145 179 113
f 228 251 89
f 102 142 203
f 228 212 251
f 89 39 38
f 228 89 248
f 89 38 248
f 214 45 206
f 35 214 206
f 44 98 187
f 98 226 187
f 81 235 202
f 235 40 202
f 81 202 124
f 202 123 124
f 207 234 132
f 181 147 213
f 163 42 70
f 20 182 161
f 183 217 59
f 208 54 159
f 39 32 38
f 204 224 134
f 121 47 95
f 47 463 95
f 216 35 247
f 101 85 30
f 140 172 173
f 30 140 173
f 253 172 140
f 85 140 30
f 85 56 140
f 252 140 56
f 101 56 85
f 252 172 253
f 54 158 208
f 158 100 208
f 159 54 208
f 70 36 8
f 9 109 36
f 254 168 201
f 200 255 254
f 255 168 254
f 164 168 255
f 200 164 255
f 19 256 112
f 256 35 112
f 247 256 19
f 256 247 35
f 71 258 257
f 245 242 19
f 258 245 19
f 71 245 258
f 257 258 148
f 258 19 148
f 259 260 55
f 261 259 55
f 230 244 215
f 32 230 215
f 230 216 244
f 216 242 244
f 244 208 215
f 242 208 244
f 208 71 215
f 242 245 208
f 245 71 208
f 858 160 260
f 259 68 260
f 68 858 260
f 120 68 261
f 68 259 261
f 8 115 16
f 8 111 115
f 111 246 115
f 246 170 115
f 246 110 170
f 110 109 170
f 109 169 170
f 144 201 198
f 22 144 198
f 270 268 766
f 268 271 766
f 301 266 267
f 272 273 236
f 716 274 279
f 189 382 286
f 382 312 286
f 317 318 304
f 324 316 313
f 325 326 697
f 318 319 310
f 696 331 330
f 333 318 325
f 778 335 328
f 696 369 339
f 357 287 351
f 617 367 408
f 367 381 408
f 404 342 403
f 404 344 342
f 345 347 344
f 406 348 347
f 348 407 347
f 407 348 354
f 348 355 354
f 355 410 736
f 130 276 277
f 362 412 413
f 413 412 363
f 413 363 414
f 363 365 414
f 617 408 446
f 368 417 418
f 417 372 418
f 418 372 420
f 420 372 421
f 372 373 421
f 375 421 373
f 422 377 423
f 377 424 379
f 379 424 426
f 424 425 426
f 380 427 856
f 425 380 856
f 429 430 428
f 383 429 428
f 408 381 409
f 435 434 432
f 392 391 387
f 387 391 434
f 392 853 391
f 395 437 853
f 287 454 364
f 438 439 437
f 438 399 439
f 438 439 397
f 400 440 438
f 438 440 399
f 441 401 342
f 401 403 342
f 401 441 400
f 409 381 442
f 404 403 401
f 189 286 452
f 53 311 445
f 360 411 412
f 368 415 417
f 377 422 424
f 446 408 278
f 406 461 348
f 461 453 348
f 461 345 404
f 348 455 355
f 461 404 464
f 355 455 411
f 411 455 412
f 455 365 412
f 464 401 400
f 412 365 363
f 464 400 438
f 465 438 395
f 365 456 366
f 366 456 415
f 465 392 387
f 465 387 466
f 417 456 372
f 466 387 435
f 466 435 433
f 372 456 458
f 372 458 373
f 468 433 431
f 373 458 422
f 468 431 429
f 458 471 422
f 468 429 459
f 459 429 380
f 471 459 425
f 424 471 425
f 442 448 460
f 451 446 743
f 446 278 743
f 450 99 286
f 90 323 154
f 455 453 365
f 458 456 467
f 470 743 287
f 772 469 453
f 474 772 461
f 469 473 453
f 474 461 462
f 155 96 419
f 461 464 683
f 447 280 475
f 460 280 485
f 453 477 365
f 477 479 365
f 480 478 465
f 365 479 456
f 374 324 502
f 480 465 481
f 481 465 466
f 456 482 444
f 456 444 467
f 324 313 502
f 481 466 484
f 471 467 794
f 794 467 483
f 468 459 471
f 278 487 743
f 476 236 286
f 287 743 487
f 287 487 454
f 443 454 488
f 454 493 488
f 280 447 490
f 485 280 490
f 454 487 493
f 409 210 408
f 130 277 489
f 211 210 52
f 209 91 90
f 90 91 92
f 90 154 153
f 90 153 151
f 323 485 490
f 210 409 209
f 500 492 486
f 500 486 497
f 490 496 323
f 525 493 528
f 550 493 498
f 528 493 550
f 503 500 506
f 210 211 408
f 487 152 493
f 490 501 496
f 370 374 502
f 449 370 502
f 323 541 504
f 503 506 505
f 498 323 504
f 497 188 495
f 550 498 504
f 505 506 511
f 710 624 756
f 550 504 643
f 114 507 568
f 507 184 64
f 507 64 508
f 209 409 91
f 710 756 288
f 508 64 650
f 98 509 382
f 232 568 649
f 497 495 82
f 80 232 276
f 232 649 276
f 541 317 514
f 650 43 313
f 788 264 269
f 91 409 442
f 514 317 305
f 512 132 2
f 270 269 268
f 514 305 516
f 502 185 165
f 502 165 651
f 511 506 273
f 651 165 233
f 500 497 82
f 129 18 522
f 18 131 522
f 514 516 715
f 506 500 82
f 233 135 522
f 130 489 281
f 715 516 571
f 98 382 4
f 323 496 524
f 408 211 278
f 531 548 532
f 537 618 535
f 609 381 536
f 528 550 556
f 281 489 538
f 489 525 538
f 492 534 486
f 525 526 538
f 496 501 591
f 311 463 539
f 134 511 463
f 323 540 541
f 463 511 542
f 542 511 273
f 264 297 269
f 291 294 711
f 152 151 498
f 492 26 534
f 544 188 497
f 512 2 616
f 277 746 698
f 388 358 132
f 566 561 548
f 549 645 753
f 553 188 544
f 561 547 548
f 130 281 554
f 486 553 497
f 548 547 564
f 551 599 629
f 523 491 262
f 457 419 546
f 497 553 544
f 561 566 559
f 550 643 560
f 91 442 460
f 463 542 539
f 548 564 575
f 561 559 549
f 82 457 546
f 506 82 546
f 311 539 542
f 542 273 311
f 554 281 563
f 568 561 549
f 587 564 580
f 564 547 580
f 491 449 502
f 559 566 583
f 493 152 498
f 211 52 278
f 297 298 708
f 569 570 572
f 567 564 576
f 549 559 607
f 272 577 312
f 312 577 286
f 577 272 476
f 286 577 476
f 580 547 650
f 599 580 650
f 131 130 554
f 576 564 600
f 574 584 603
f 506 546 388
f 600 564 601
f 575 586 610
f 98 133 509
f 566 594 579
f 568 549 654
f 581 597 628
f 53 445 190
f 621 669 536
f 530 804 536
f 419 96 546
f 188 212 27
f 584 617 603
f 75 511 134
f 602 587 604
f 560 643 656
f 74 157 503
f 188 27 495
f 503 157 500
f 586 617 610
f 26 492 214
f 214 492 500
f 562 617 593
f 534 89 486
f 486 89 553
f 91 460 485
f 311 273 445
f 74 503 75
f 495 94 82
f 94 243 82
f 541 514 624
f 600 601 617
f 617 601 367
f 504 541 624
f 602 604 367
f 82 155 457
f 565 643 640
f 75 503 505
f 96 97 358
f 96 358 546
f 52 152 278
f 154 323 498
f 4 382 189
f 646 132 512
f 561 507 547
f 547 507 508
f 643 504 647
f 507 561 568
f 547 508 650
f 624 514 800
f 147 616 156
f 152 52 151
f 616 147 236
f 649 568 661
f 568 654 661
f 131 554 615
f 131 652 522
f 522 652 267
f 267 233 522
f 189 452 122
f 504 624 304
f 122 452 653
f 304 624 710
f 524 496 745
f 133 570 569
f 616 2 156
f 76 4 189
f 504 304 289
f 504 289 647
f 647 289 756
f 756 289 288
f 318 643 565
f 632 648 381
f 318 565 290
f 593 617 597
f 290 565 640
f 290 640 655
f 290 655 282
f 550 310 578
f 578 310 615
f 615 310 657
f 615 657 658
f 579 594 597
f 509 133 569
f 294 615 658
f 319 528 556
f 319 556 320
f 320 556 585
f 320 585 303
f 585 554 303
f 663 669 638
f 643 318 299
f 642 634 621
f 637 532 530
f 629 630 625
f 643 299 656
f 625 627 626
f 642 621 620
f 638 669 621
f 546 358 388
f 669 668 674
f 656 299 302
f 674 671 613
f 656 302 655
f 530 611 804
f 655 302 711
f 623 621 677
f 676 605 558
f 509 569 572
f 605 676 678
f 677 621 536
f 674 613 536
f 669 674 536
f 613 530 536
f 804 673 390
f 310 550 704
f 655 711 282
f 704 550 588
f 676 536 678
f 367 614 381
f 466 468 484
f 491 502 651
f 615 294 291
f 595 678 393
f 456 479 482
f 704 588 291
f 27 93 495
f 464 465 478
f 478 683 464
f 489 698 682
f 804 390 378
f 588 615 291
f 687 393 394
f 390 685 378
f 378 680 696
f 462 461 683
f 490 328 501
f 277 692 356
f 461 772 453
f 784 684 688
f 393 678 778
f 265 784 688
f 678 536 778
f 649 661 690
f 394 393 778
f 501 328 591
f 394 691 361
f 591 328 295
f 691 394 778
f 696 384 693
f 693 371 369
f 591 295 284
f 631 619 381
f 696 693 369
f 691 778 349
f 591 284 266
f 615 588 713
f 566 660 573
f 339 369 353
f 369 352 353
f 695 692 343
f 548 582 531
f 326 496 697
f 349 334 337
f 349 778 329
f 697 496 557
f 458 467 471
f 628 597 446
f 509 572 382
f 359 689 341
f 349 329 332
f 335 696 333
f 346 349 336
f 697 557 612
f 338 356 340
f 333 696 330
f 338 340 339
f 696 339 331
f 582 564 551
f 335 333 325
f 328 335 325
f 778 328 309
f 331 327 330
f 697 612 709
f 325 318 326
f 709 612 301
f 630 622 625
f 709 301 712
f 326 318 317
f 318 330 319
f 490 329 543
f 330 327 321
f 535 672 558
f 327 698 321
f 558 316 398
f 543 329 314
f 321 698 699
f 555 374 694
f 309 328 707
f 326 317 306
f 318 701 304
f 543 314 596
f 317 304 702
f 310 319 320
f 689 449 341
f 91 485 92
f 154 498 153
f 264 545 533
f 596 314 298
f 318 310 299
f 319 733 307
f 733 303 307
f 264 533 705
f 701 318 290
f 304 701 289
f 702 304 710
f 297 533 596
f 295 328 284
f 705 700 297
f 320 303 294
f 297 596 298
f 308 697 709
f 328 490 517
f 537 622 650
f 131 615 713
f 657 294 658
f 708 266 284
f 328 517 707
f 300 704 292
f 459 380 425
f 707 517 644
f 422 471 424
f 704 291 292
f 707 708 298
f 466 433 468
f 622 599 650
f 415 456 417
f 285 306 712
f 465 395 392
f 707 644 708
f 464 438 465
f 290 282 288
f 516 305 571
f 708 644 266
f 464 404 401
f 710 288 519
f 348 453 455
f 293 571 436
f 406 345 461
f 496 326 306
f 496 306 285
f 496 285 745
f 264 705 297
f 745 285 301
f 712 436 571
f 694 359 341
f 301 285 712
f 694 341 523
f 558 398 762
f 398 555 762
f 317 541 706
f 531 582 551
f 706 541 540
f 643 647 714
f 645 573 753
f 549 742 520
f 706 540 293
f 654 549 520
f 375 373 422
f 402 723 684
f 293 540 715
f 688 684 692
f 277 356 746
f 489 277 698
f 716 717 274
f 717 519 274
f 269 297 268
f 739 558 518
f 518 558 762
f 731 551 748
f 293 715 571
f 748 551 552
f 690 718 723
f 632 618 537
f 618 632 609
f 632 381 609
f 723 718 389
f 475 334 491
f 491 334 264
f 548 562 532
f 562 593 532
f 532 593 530
f 593 597 530
f 528 330 525
f 525 330 322
f 525 322 526
f 718 719 389
f 682 281 315
f 526 322 538
f 281 538 322
f 315 281 322
f 661 527 680
f 529 661 680
f 680 527 696
f 527 470 696
f 389 719 384
f 719 722 384
f 723 729 521
f 438 397 439
f 395 853 392
f 438 437 395
f 722 287 384
f 661 654 529
f 654 520 529
f 435 387 434
f 624 776 756
f 433 432 385
f 430 429 385
f 431 385 429
f 433 385 431
f 661 529 680
f 427 429 428
f 429 383 428
f 527 661 378
f 75 505 511
f 429 427 380
f 661 680 378
f 743 527 378
f 721 728 573
f 377 379 423
f 376 422 423
f 684 784 371
f 422 376 375
f 521 730 725
f 727 732 519
f 784 357 371
f 371 357 369
f 356 769 746
f 357 351 369
f 416 415 368
f 851 366 416
f 414 366 851
f 365 366 414
f 520 742 724
f 351 287 369
f 735 690 402
f 736 412 362
f 360 412 736
f 737 731 748
f 690 723 402
f 411 360 736
f 713 656 655
f 410 355 411
f 495 93 94
f 735 402 686
f 348 407 350
f 734 726 738
f 407 348 350
f 283 735 686
f 406 347 345
f 287 283 384
f 283 686 384
f 344 404 345
f 739 518 749
f 520 654 608
f 654 741 608
f 608 741 685
f 597 617 446
f 741 743 685
f 685 743 378
f 131 713 655
f 435 432 433
f 525 330 510
f 510 330 321
f 698 489 699
f 649 690 784
f 489 510 699
f 388 646 616
f 510 321 699
f 633 446 451
f 366 415 416
f 528 319 563
f 563 319 307
f 766 271 275
f 381 675 442
f 303 554 307
f 554 563 307
f 655 640 747
f 411 736 410
f 489 682 315
f 330 525 322
f 322 525 315
f 525 489 315
f 762 694 523
f 750 448 442
f 445 273 272
f 692 277 396
f 763 269 270
f 763 270 766
f 271 274 275
f 692 396 343
f 523 262 788
f 751 740 625
f 724 742 787
f 738 744 732
f 519 275 274
f 754 531 551
f 343 396 695
f 690 661 718
f 659 591 266
f 133 445 272
f 396 454 695
f 294 755 711
f 454 339 695
f 720 757 515
f 364 265 352
f 529 520 724
f 265 688 352
f 758 521 725
f 731 754 551
f 271 712 571
f 271 571 274
f 312 133 272
f 515 629 625
f 660 721 573
f 684 521 758
f 303 733 726
f 369 287 352
f 294 726 755
f 288 727 519
f 287 364 352
f 443 277 356
f 760 317 702
f 477 761 762
f 443 356 338
f 655 747 785
f 482 788 444
f 467 763 764
f 794 765 471
f 767 468 471
f 275 767 471
f 768 481 484
f 746 769 481
f 790 772 474
f 753 772 790
f 453 751 796
f 571 279 274
f 453 796 477
f 510 489 698
f 327 525 510
f 339 454 338
f 327 510 698
f 493 339 488
f 340 488 339
f 305 800 775
f 305 775 279
f 454 443 338
f 305 279 571
f 702 710 776
f 691 280 296
f 691 296 361
f 361 296 405
f 361 449 341
f 475 349 337
f 592 580 642
f 606 592 642
f 582 548 665
f 623 614 621
f 390 451 685
f 548 575 665
f 800 514 279
f 778 779 777
f 268 284 271
f 778 777 780
f 605 672 558
f 675 605 678
f 442 675 678
f 665 575 671
f 448 759 393
f 679 759 398
f 750 678 590
f 750 590 316
f 316 590 558
f 575 610 671
f 627 622 626
f 619 627 677
f 381 619 536
f 349 490 447
f 349 499 336
f 336 533 700
f 460 687 394
f 687 782 374
f 687 374 694
f 786 448 393
f 681 786 393
f 783 681 324
f 324 681 555
f 386 263 394
f 671 610 613
f 263 386 689
f 263 689 370
f 370 689 359
f 566 573 641
f 583 566 641
f 583 641 673
f 639 583 673
f 639 673 804
f 446 639 804
f 610 617 613
f 655 785 131
f 570 133 312
f 645 607 598
f 607 633 598
f 598 633 390
f 564 551 663
f 564 663 638
f 601 564 638
f 574 564 666
f 601 638 621
f 367 601 621
f 582 564 666
f 666 574 668
f 668 603 674
f 564 587 664
f 551 564 664
f 564 582 666
f 664 587 670
f 602 367 621
f 670 602 621
f 566 548 662
f 566 662 660
f 594 566 636
f 594 636 611
f 597 594 530
f 566 581 667
f 573 566 667
f 667 581 635
f 581 628 635
f 635 628 804
f 628 446 804
f 575 564 582
f 575 582 665
f 586 575 671
f 617 586 671
f 396 277 695
f 454 396 695
f 339 454 695
f 584 574 668
f 330 528 319
f 319 528 563
f 563 281 733
f 563 733 319
f 550 310 556
f 556 310 320
f 574 666 668
f 556 320 585
f 585 320 294
f 554 585 294
f 741 654 608
f 741 608 685
f 743 741 685
f 617 584 668
f 784 684 371
f 357 784 371
f 357 371 693
f 287 357 693
f 688 265 352
f 352 364 353
f 364 339 353
f 661 723 389
f 719 661 389
f 719 389 384
f 722 719 384
f 470 722 696
f 784 735 402
f 402 735 686
f 735 283 384
f 686 735 384
f 283 287 693
f 384 283 693
f 317 524 306
f 306 745 712
f 617 668 669
f 496 325 557
f 557 325 697
f 557 697 308
f 557 308 612
f 612 308 709
f 612 709 266
f 266 709 712
f 540 317 706
f 540 706 293
f 540 293 436
f 778 490 543
f 778 543 329
f 329 543 314
f 314 596 644
f 314 644 298
f 494 349 332
f 513 332 703
f 533 703 297
f 325 496 328
f 328 591 284
f 660 566 636
f 284 659 266
f 284 266 712
f 517 778 309
f 644 309 707
f 644 707 298
f 310 550 560
f 310 560 299
f 566 579 636
f 299 656 302
f 302 713 711
f 643 701 290
f 643 290 640
f 640 290 747
f 785 290 288
f 310 550 578
f 310 578 657
f 657 578 615
f 554 294 657
f 615 554 657
f 550 310 704
f 550 704 588
f 588 704 300
f 612 266 301
f 588 300 292
f 588 292 713
f 713 292 291
f 701 643 289
f 289 643 714
f 289 785 288
f 636 579 611
f 756 710 717
f 717 710 519
f 341 449 523
f 611 579 804
f 579 597 804
f 726 734 755
f 562 548 532
f 753 790 771
f 548 531 532
f 787 771 770
f 572 570 312
f 562 532 637
f 617 562 530
f 562 637 530
f 276 649 784
f 617 530 613
f 551 580 642
f 726 744 738
f 772 728 773
f 761 749 762
f 642 580 634
f 545 491 651
f 763 766 764
f 580 592 634
f 766 275 765
f 634 592 621
f 784 690 735
f 592 606 621
f 533 545 651
f 606 367 621
f 551 564 663
f 276 784 265
f 773 748 774
f 748 552 751
f 564 567 663
f 751 752 796
f 796 752 749
f 718 661 719
f 730 787 770
f 808 730 770
f 808 770 769
f 567 576 663
f 795 762 523
f 795 523 788
f 732 744 793
f 732 793 767
f 576 600 663
f 663 600 669
f 448 786 460
f 774 751 453
f 600 617 669
f 786 783 802
f 580 551 664
f 789 772 773
f 587 580 664
f 790 474 771
f 771 474 462
f 791 683 770
f 770 683 478
f 587 664 670
f 771 791 770
f 604 587 670
f 316 672 313
f 769 480 481
f 746 481 792
f 367 604 621
f 672 537 313
f 604 670 621
f 573 559 641
f 537 650 313
f 468 767 484
f 767 793 484
f 559 583 641
f 275 471 472
f 641 583 673
f 714 647 756
f 471 765 472
f 764 794 483
f 794 764 766
f 583 639 673
f 444 763 467
f 444 788 763
f 673 639 390
f 479 762 482
f 762 795 482
f 639 446 390
f 581 566 667
f 785 714 756
f 566 573 667
f 333 797 318
f 798 797 330
f 318 797 798
f 798 330 318
f 685 451 743
f 597 581 635
f 390 633 451
f 339 493 331
f 581 667 635
f 331 493 525
f 331 525 327
f 280 691 349
f 367 606 621
f 606 620 621
f 597 635 804
f 280 394 296
f 296 394 405
f 405 394 361
f 405 361 449
f 449 361 341
f 781 393 687
f 781 460 393
f 713 291 711
f 712 301 436
f 700 533 297
f 694 374 370
f 694 370 359
f 398 324 555
f 784 402 684
f 265 688 692
f 277 265 692
f 781 687 694
f 443 488 340
f 356 443 340
f 475 337 334
f 599 614 623
f 629 599 623
f 642 580 551
f 781 694 374
f 280 799 394
f 799 386 394
f 759 316 324
f 278 152 487
f 151 153 498
f 800 702 776
f 386 799 689
f 760 702 801
f 689 799 263
f 702 800 801
f 757 551 629
f 689 263 370
f 477 796 761
f 689 370 449
f 715 540 301
f 447 349 346
f 765 275 472
f 447 346 499
f 771 683 791
f 499 346 336
f 789 469 772
f 469 789 773
f 624 800 776
f 499 336 533
f 800 760 801
f 533 336 700
f 533 700 705
f 580 599 551
f 449 491 523
f 329 490 332
f 332 490 494
f 332 494 513
f 332 513 703
f 382 572 312
f 703 513 297
f 297 513 533
f 279 514 715
f 349 447 334
f 334 447 475
f 506 388 616
f 53 95 311
f 334 475 491
f 778 803 805
f 803 804 805
f 797 333 330
f 804 806 805
f 334 491 264
f 804 378 806
f 264 491 545
f 625 622 627
f 776 710 756
f 467 764 483
f 622 619 627
f 785 756 652
f 746 792 768
f 768 792 481
f 770 480 769
f 627 619 677
f 770 478 480
f 619 631 677
f 631 381 677
f 273 506 236
f 95 463 311
f 648 632 609
f 335 805 696
f 473 773 774
f 632 618 609
f 460 263 799
f 473 774 453
f 618 632 537
f 732 767 275
f 276 265 277
f 131 785 652
f 744 768 793
f 744 746 768
f 729 787 730
f 742 771 787
f 460 799 280
f 742 753 771
f 774 748 751
f 536 804 803
f 618 537 672
f 618 672 535
f 756 717 652
f 536 803 778
f 381 648 536
f 648 609 536
f 728 772 753
f 616 646 512
f 599 630 629
f 644 596 651
f 740 515 625
f 630 599 622
f 596 533 651
f 653 286 99
f 92 485 90
f 778 780 335
f 614 599 623
f 796 749 761
f 599 629 623
f 381 614 677
f 614 623 677
f 289 714 785
f 527 743 470
f 747 290 785
f 302 656 713
f 299 560 656
f 517 309 644
f 490 778 517
f 759 589 679
f 284 591 659
f 328 496 591
f 513 703 533
f 494 332 513
f 490 349 494
f 314 543 596
f 589 759 393
f 540 436 301
f 323 317 540
f 805 806 696
f 712 745 301
f 306 524 745
f 759 448 393
f 317 323 524
f 722 384 696
f 806 378 696
f 454 339 364
f 265 364 352
f 654 520 608
f 759 679 398
f 277 443 356
f 759 398 316
f 277 692 695
f 617 671 674
f 575 665 671
f 711 732 282
f 594 611 530
f 566 660 636
f 807 746 744
f 587 602 670
f 281 682 807
f 281 807 733
f 603 617 674
f 574 603 668
f 564 574 666
f 692 808 356
f 356 808 769
f 809 787 729
f 549 607 645
f 506 616 236
f 457 155 419
f 661 529 809
f 661 809 723
f 263 460 394
f 786 681 783
f 460 786 393
f 687 781 782
f 687 460 781
f 336 499 533
f 349 447 499
f 662 548 728
f 728 548 531
f 619 677 536
f 786 681 393
f 626 622 537
f 627 619 622
f 751 552 810
f 750 442 678
f 398 759 324
f 759 589 393
f 759 679 589
f 681 786 802
f 752 811 749
f 558 672 316
f 626 537 811
f 605 675 672
f 811 537 535
f 780 805 335
f 681 802 555
f 780 778 805
f 555 694 762
f 780 779 778
f 262 491 788
f 779 780 777
f 788 491 264
f 614 367 621
f 606 642 620
f 280 349 475
f 708 284 268
f 361 405 449
f 775 800 279
f 760 800 305
f 555 802 374
f 732 711 755
f 469 773 473
f 755 734 738
f 732 755 738
f 771 462 683
f 266 644 233
f 793 768 484
f 288 282 727
f 282 732 727
f 794 766 765
f 482 795 788
f 477 762 479
f 317 760 305
f 388 132 646
f 675 676 672
f 698 746 807
f 682 698 807
f 294 303 726
f 684 723 521
f 733 807 744
f 675 381 676
f 757 629 515
f 672 676 558
f 644 651 233
f 692 758 725
f 739 812 558
f 676 381 536
f 725 730 808
f 692 725 808
f 684 758 692
f 678 448 750
f 724 787 809
f 812 535 558
f 529 724 809
f 802 783 374
f 279 715 267
f 268 297 708
f 271 284 712
f 519 732 275
f 573 728 753
f 751 625 752
f 448 678 595
f 783 324 374
f 788 269 763
f 723 809 729
f 653 452 286
f 678 750 590
f 448 595 393
f 236 450 286
f 590 750 316
f 590 316 558
f 715 301 267
f 549 753 742
f 559 573 645
f 782 781 374
f 531 754 731
f 607 559 645
f 737 773 728
f 731 737 728
f 531 731 728
f 652 717 267
f 721 660 662
f 721 662 728
f 722 470 287
f 720 551 757
f 740 720 515
f 740 751 810
f 720 740 810
f 633 607 598
f 551 720 810
f 773 737 748
f 607 645 598
f 717 716 267
f 446 633 390
f 633 598 390
f 552 551 810
f 811 535 739
f 811 739 749
f 739 535 812
f 716 279 267
f 726 733 744
f 521 729 730
f 625 626 811
f 752 625 811
f 266 233 267
f 749 518 762
f 476 272 236
f 122 653 99
f 90 485 323
f 817 813 815
f 816 817 815
f 818 816 815
f 816 818 817
f 817 818 819
f 818 815 819
f 119 817 174
f 174 814 820
f 814 143 820
f 814 813 175
f 814 175 143
f 813 817 222
f 813 222 175
f 817 119 222
f 174 817 821
f 174 821 819
f 814 174 819
f 814 819 815
f 814 815 813
f 821 817 819
f 111 8 822
f 822 8 823
f 8 824 823
f 36 110 824
f 8 36 824
f 110 111 822
f 824 110 822
f 824 822 823
f 825 254 826
f 241 200 826
f 201 144 254
f 144 241 826
f 254 144 826
f 200 254 825
f 200 825 826
f 832 828 829
f 827 831 833
f 834 833 29
f 86 836 29
f 836 834 29
f 835 836 86
f 196 835 86
f 837 835 196
f 833 837 29
f 827 835 837
f 836 829 834
f 829 833 834
f 839 838 840
f 831 837 833
f 830 833 829
f 838 839 828
f 838 828 827
f 839 840 829
f 828 839 829
f 838 827 833
f 840 838 833
f 829 840 830
f 840 833 830
f 828 835 827
f 836 835 828
f 832 836 828
f 831 827 837
f 832 829 836
f 847 841 845
f 841 842 845
f 842 843 845
f 845 843 844
f 841 846 842
f 844 848 845
f 344 407 841
f 850 344 841
f 841 407 846
f 850 841 847
f 407 849 842
f 846 407 842
f 849 851 842
f 842 851 843
f 850 847 853
f 843 851 852
f 853 847 385
f 847 845 385
f 843 852 844
f 844 852 854
f 845 848 385
f 844 854 855
f 848 844 855
f 385 848 856
f 848 855 856
f 347 407 344
f 342 344 850
f 407 355 736
f 407 736 849
f 441 342 850
f 849 736 851
f 400 441 850
f 851 736 413
f 439 400 850
f 851 413 414
f 439 850 853
f 851 416 852
f 852 416 368
f 434 853 385
f 852 368 420
f 852 420 854
f 432 434 385
f 854 420 421
f 854 421 375
f 854 375 855
f 855 375 423
f 428 385 856
f 855 423 379
f 855 379 856
f 440 400 439
f 368 418 420
f 379 426 856
f 355 407 354
f 736 362 413
f 375 376 423
f 425 856 426
f 427 428 856
f 430 385 428
f 391 853 434
f 437 439 853
f 399 440 439
f 858 857 859
f 54 208 860
f 860 208 158
f 158 208 100
f 860 158 54
f 859 857 120
f 859 120 69
f 857 68 120
f 68 857 858
f 858 859 69
f 961 862 861
f 864 865 889
f 868 877 964
f 975 868 964
f 870 871 872
f 959 875 869
f 972 875 959
f 919 871 870
f 876 875 871
f 879 878 880
f 879 882 878
f 869 864 878
f 991 869 878
f 877 872 880
f 882 881 878
f 881 959 991
f 959 869 991
f 872 871 882
f 965 928 883
f 928 884 883
f 885 928 965
f 886 887 885
f 884 924 977
f 924 922 977
f 898 953 866
f 897 898 866
f 899 900 895
f 954 902 867
f 940 903 943
f 904 903 940
f 905 904 940
f 905 940 939
f 906 907 939
f 907 905 939
f 937 907 908
f 911 910 909
f 914 911 909
f 914 909 912
f 913 914 912
f 918 914 915
f 956 876 919
f 899 956 890
f 900 899 890
f 984 923 924
f 984 924 926
f 928 929 926
f 930 929 928
f 931 932 930
f 933 932 931
f 934 933 931
f 980 934 935
f 909 936 938
f 939 942 908
f 939 940 942
f 909 938 912
f 940 943 942
f 943 944 942
f 903 945 943
f 907 904 905
f 918 946 914
f 874 898 897
f 949 947 892
f 915 949 952
f 953 867 866
f 916 954 898
f 955 956 899
f 917 956 955
f 910 911 936
f 906 939 908
f 912 909 941
f 915 913 912
f 921 978 922
f 921 987 978
f 902 915 867
f 902 918 915
f 943 945 899
f 953 954 867
f 954 918 902
f 916 957 937
f 936 916 937
f 917 907 937
f 957 917 937
f 911 916 936
f 917 904 907
f 916 911 946
f 918 916 946
f 945 903 904
f 917 945 904
f 945 955 899
f 945 917 955
f 917 957 956
f 956 958 876
f 957 958 956
f 876 958 874
f 958 916 874
f 916 898 874
f 957 916 958
f 891 972 959
f 961 962 985
f 952 866 963
f 889 965 864
f 967 950 893
f 969 968 869
f 969 893 968
f 968 963 864
f 952 963 968
f 950 866 952
f 970 950 952
f 949 950 970
f 962 951 896
f 951 919 894
f 971 959 930
f 891 959 971
f 892 972 891
f 947 972 892
f 948 947 873
f 865 901 920
f 867 901 865
f 866 867 865
f 900 890 868
f 919 876 871
f 973 975 974
f 973 900 975
f 973 974 976
f 979 977 978
f 976 977 979
f 976 974 977
f 920 980 981
f 865 920 981
f 886 982 888
f 981 982 886
f 886 888 887
f 951 944 896
f 873 947 894
f 947 951 894
f 980 920 983
f 952 968 983
f 952 949 970
f 950 949 892
f 968 891 971
f 968 893 891
f 863 862 984
f 862 863 960
f 895 986 985
f 875 874 967
f 875 967 969
f 869 875 969
f 874 950 967
f 874 897 950
f 963 865 864
f 897 866 950
f 871 948 873
f 871 960 882
f 871 873 960
f 960 863 882
f 863 881 882
f 863 930 881
f 930 959 881
f 894 872 862
f 894 870 872
f 861 872 877
f 862 872 861
f 919 870 894
f 961 861 877
f 868 961 877
f 868 962 961
f 951 890 919
f 890 962 868
f 890 951 962
f 968 933 934
f 933 968 932
f 980 983 934
f 983 968 934
f 971 930 932
f 968 971 932
f 981 980 982
f 930 863 929
f 929 863 927
f 863 925 927
f 984 925 863
f 935 885 887
f 888 935 887
f 935 931 885
f 862 961 984
f 961 923 984
f 931 928 885
f 961 985 923
f 985 921 923
f 986 921 985
f 926 884 928
f 924 884 926
f 973 979 978
f 973 976 979
f 921 922 924
f 901 983 920
f 901 952 983
f 867 952 901
f 867 915 952
f 942 951 947
f 942 944 951
f 915 912 949
f 938 908 947
f 949 938 947
f 908 942 947
f 912 938 949
f 943 899 944
f 944 899 896
f 896 899 895
f 895 900 986
f 986 900 973
f 946 911 914
f 988 992 878
f 878 989 988
f 878 990 989
f 992 991 878
f 878 991 990
f 989 991 992
f 993 879 880
f 880 994 993
f 996 879 993
f 994 880 995
f 995 996 994
f 989 992 988
f 990 991 989
f 878 965 883
f 877 880 883
f 880 878 883
f 878 864 965
f 977 877 883
f 975 964 977
f 900 868 975
f 966 886 965
f 966 889 886
f 865 981 889
f 973 987 986
f 968 864 869
f 875 972 871
f 872 882 880
f 881 991 878
f 886 885 965
f 977 883 884
f 922 978 977
f 889 981 886
f 919 890 956
f 891 950 892
f 893 950 891
f 894 862 960
f 873 894 960
f 896 895 985
f 907 906 908
f 909 910 936
f 914 913 915
f 918 954 916
f 923 921 924
f 925 926 927
f 984 926 925
f 926 929 927
f 931 930 928
f 934 931 935
f 980 935 888
f 982 980 888
f 973 978 987
f 938 936 937
f 937 908 938
f 941 909 912
f 876 874 875
f 947 948 972
f 953 898 954
f 962 896 985
f 893 969 967
f 964 877 977
f 889 966 965
f 974 975 977
f 866 865 963
f 972 948 871
f 986 987 921
f 882 879 996
f 880 882 995
f 995 882 996
f 994 996 993
f 1056 1001 1002
f 1005 1004 1003
f 1007 1004 1008
f 1014 1003 1006
f 1004 1009 1008
f 1004 1011 1009
f 1010 1003 1014
f 1004 1005 1011
f 1011 1005 1010
f 1006 1012 1015
f 1006 1008 1012
f 1015 1013 1006
f 1016 1014 1006
f 1009 1011 1019
f 1021 1010 1020
f 1021 1011 1010
f 1008 1015 1012
f 1017 1015 1008
f 1008 1009 1017
f 1020 1014 1018
f 1011 1021 1019
f 1048 1027 1023
f 1022 1019 1025
f 1025 1029 1028
f 1023 1013 1022
f 1013 1015 1022
f 1016 1013 1023
f 1027 1016 1023
f 1015 1017 1022
f 1014 1016 1027
f 1017 1009 1022
f 1009 1019 1022
f 1018 1014 1027
f 1028 1018 1027
f 1029 1020 1028
f 1020 1018 1028
f 1019 1021 1025
f 1021 1020 1029
f 1021 1029 1025
f 1030 1023 1045
f 1022 1031 1023
f 1048 1023 1030
f 1022 1024 1031
f 1033 1026 1032
f 1025 1026 1033
f 1026 1025 1032
f 1024 1025 1033
f 1025 1028 1032
f 1028 1034 1032
f 1034 1027 1048
f 1028 1027 1034
f 1037 1035 1036
f 1038 1040 1035
f 1036 1039 1037
f 1039 1040 1038
f 1041 1040 1039
f 1042 1036 1035
f 1046 1042 1035
f 1040 1046 1035
f 1043 1051 1042
f 1051 1044 1042
f 1046 1043 1042
f 1044 1036 1042
f 1047 1039 1036
f 1048 1045 1046
f 1040 1048 1046
f 1044 1047 1036
f 1047 1041 1039
f 1041 1049 1040
f 1050 1048 1040
f 1044 1033 1047
f 1049 1050 1040
f 1050 1041 1047
f 1041 1050 1049
f 1046 1045 1051
f 1033 1050 1047
f 1023 1044 1051
f 1045 1023 1051
f 1023 1031 1044
f 1024 1033 1044
f 1031 1024 1044
f 1048 1030 1045
f 1034 1048 1050
f 1032 1050 1033
f 1032 1034 1050
f 1046 1051 1043
f 1000 999 998
f 997 1000 998
f 1052 998 999
f 1000 1053 999
f 1054 1053 1000
f 997 1054 1000
f 1059 1055 997
f 1055 1056 997
f 1056 1054 997
f 1060 1057 1058
f 1057 1002 1058
f 1063 1056 1055
f 1063 1001 1056
f 1062 1058 1002
f 1061 1059 1060
f 1001 1062 1002
f 1068 1067 1077
f 1064 1065 1075
f 1065 1074 1069
f 1073 1074 1065
f 1073 1065 1064
f 1068 1070 1067
f 1067 1070 1066
f 1066 1071 1064
f 1071 1073 1064
f 1070 1072 1066
f 1072 1071 1066
f 1070 1068 1074
f 1060 998 1052
f 1057 1060 1052
f 1053 1057 1052
f 1053 1002 1057
f 1054 1002 1053
f 1056 1002 1054
f 998 1060 997
f 1060 1059 997
f 1058 1075 1060
f 1075 1061 1060
f 1058 1062 1075
f 1075 1065 1061
f 1065 1059 1061
f 1065 1076 1059
f 1076 1055 1059
f 1001 1077 1062
f 1076 1069 1055
f 1069 1063 1055
f 1063 1077 1001
f 1069 1077 1063
f 1077 1067 1066
f 1069 1076 1065
f 1069 1068 1077
f 1035 1037 1071
f 1037 1073 1071
f 1072 1035 1071
f 1038 1035 1072
f 1037 1039 1073
f 1039 1074 1073
f 1070 1038 1072
f 1039 1070 1074
f 1039 1038 1070
f 1006 1003 1007
f 1003 1004 1007
f 1003 1010 1005
f 1006 1007 1008
f 1010 1014 1020
f 1013 1016 1006
f 1022 1025 1024
f 1053 1052 999
f 1064 1075 1066
f 1074 1068 1069
f 1062 1066 1075
f 1062 1077 1066
f 1080 1081 1082
f 1081 1080 1084
f 1088 1081 1084
f 1082 1094 1085
f 1080 1085 1083
f 1082 1086 1094
f 1086 1082 1095
f 1080 1082 1085
f 1095 1081 1088
f 1082 1081 1095
f 1091 1084 1080
f 1080 1083 1091
f 1087 1088 1084
f 1089 1095 1088
f 1091 1092 1084
f 1093 1084 1092
f 1093 1087 1084
f 1088 1087 1093
f 1089 1088 1093
f 1095 1089 1093
f 1086 1090 1094
f 1096 1098 1097
f 1100 1096 1106
f 1096 1102 1103
f 1102 1104 1109
f 1092 1091 1100
f 1091 1083 1100
f 1093 1092 1100
f 1085 1096 1083
f 1085 1094 1096
f 1099 1095 1101
f 1095 1093 1101
f 1094 1102 1096
f 1094 1090 1104
f 1109 1095 1099
f 1090 1109 1104
f 1090 1095 1109
f 1097 1107 1105
f 1109 1099 1108
f 1097 1098 1107
f 1101 1110 1099
f 1101 1120 1110
f 1098 1103 1109
f 1118 1112 1111
f 1113 1114 1118
f 1115 1116 1112
f 1116 1115 1114
f 1113 1116 1114
f 1111 1117 1118
f 1122 1113 1118
f 1119 1118 1117
f 1120 1119 1111
f 1112 1120 1111
f 1119 1121 1118
f 1110 1120 1112
f 1121 1126 1118
f 1126 1122 1118
f 1116 1110 1112
f 1099 1110 1116
f 1123 1116 1113
f 1124 1113 1122
f 1125 1099 1116
f 1124 1123 1113
f 1124 1116 1123
f 1097 1126 1119
f 1116 1124 1125
f 1106 1097 1119
f 1120 1106 1119
f 1105 1126 1097
f 1105 1122 1126
f 1105 1107 1122
f 1107 1124 1122
f 1098 1109 1124
f 1107 1098 1124
f 1125 1108 1099
f 1124 1108 1125
f 1109 1108 1124
f 1119 1126 1121
f 1129 1127 1078
f 1129 1128 1127
f 1130 1078 1127
f 1131 1128 1129
f 1128 1131 1127
f 1131 1130 1127
f 1131 1132 1130
f 1135 1132 1134
f 1079 1136 1133
f 1137 1134 1136
f 1139 1138 1079
f 1137 1147 1134
f 1147 1135 1134
f 1132 1140 1139
f 1142 1141 1143
f 1149 1142 1138
f 1146 1145 1144
f 1148 1145 1146
f 1114 1145 1148
f 1114 1148 1141
f 1144 1145 1149
f 1149 1150 1142
f 1151 1141 1150
f 1149 1151 1150
f 1151 1152 1141
f 1152 1114 1141
f 1145 1153 1149
f 1153 1151 1149
f 1153 1145 1114
f 1150 1141 1142
f 1136 1129 1078
f 1133 1136 1078
f 1079 1133 1078
f 1136 1134 1129
f 1130 1139 1079
f 1129 1134 1131
f 1143 1136 1079
f 1154 1143 1079
f 1147 1137 1136
f 1143 1147 1136
f 1139 1155 1138
f 1157 1155 1139
f 1148 1135 1147
f 1140 1157 1139
f 1148 1156 1135
f 1156 1132 1135
f 1132 1157 1140
f 1156 1157 1132
f 1154 1138 1143
f 1155 1149 1138
f 1144 1149 1155
f 1141 1148 1147
f 1157 1144 1155
f 1146 1144 1157
f 1148 1146 1156
f 1146 1157 1156
f 1112 1118 1151
f 1118 1152 1151
f 1153 1112 1151
f 1118 1114 1152
f 1115 1112 1153
f 1115 1153 1114
f 1090 1086 1095
f 1100 1106 1120
f 1096 1097 1106
f 1100 1120 1101
f 1096 1103 1098
f 1102 1109 1103
f 1083 1096 1100
f 1093 1100 1101
f 1094 1104 1102
f 1119 1117 1111
f 1132 1139 1130
f 1134 1132 1131
f 1141 1147 1143
f 1142 1143 1138
f 1130 1079 1078
f 1138 1154 1079
f 1162 1160 1161
f 1158 1163 1164
f 1165 1168 1161
f 1160 1165 1161
f 1165 1167 1168
f 1163 1169 1170
f 1167 1171 1168
f 1171 1173 1174
f 1169 1208 1170
f 1176 1211 1175
f 1211 1177 1175
f 1180 1177 1211
f 1179 1177 1180
f 1179 1178 1176
f 1184 1181 1158
f 1181 1182 1158
f 1183 1184 1158
f 1181 1179 1182
f 1184 1179 1181
f 1185 1179 1184
f 1183 1185 1184
f 1186 1162 1187
f 1188 1186 1193
f 1189 1186 1188
f 1189 1162 1186
f 1191 1192 1193
f 1191 1194 1192
f 1192 1188 1193
f 1160 1190 1192
f 1195 1199 1194
f 1196 1177 1197
f 1201 1202 1199
f 1200 1197 1203
f 1172 1206 1202
f 1204 1203 1205
f 1208 1205 1206
f 1160 1162 1189
f 1199 1160 1194
f 1170 1203 1197
f 1176 1158 1182
f 1161 1193 1187
f 1196 1163 1158
f 1168 1201 1198
f 1192 1190 1209
f 1192 1209 1188
f 1209 1186 1188
f 1209 1189 1186
f 1190 1188 1186
f 1189 1190 1186
f 1190 1189 1209
f 1210 1211 1176
f 1178 1210 1176
f 1180 1211 1210
f 1179 1180 1178
f 1184 1210 1181
f 1178 1181 1210
f 1178 1184 1181
f 1180 1210 1184
f 1180 1184 1178
f 1179 1176 1182
f 1177 1179 1185
f 1183 1177 1185
f 1190 1189 1188
f 1160 1189 1190
f 1166 1197 1177
f 1176 1175 1158
f 1161 1191 1193
f 1175 1196 1158
f 1195 1191 1161
f 1200 1163 1196
f 1159 1177 1183
f 1164 1177 1159
f 1166 1177 1164
f 1160 1199 1165
f 1199 1167 1165
f 1170 1197 1166
f 1199 1171 1167
f 1199 1202 1171
f 1205 1203 1170
f 1202 1206 1171
f 1206 1173 1171
f 1173 1205 1170
f 1206 1205 1173
f 1161 1168 1195
f 1168 1198 1195
f 1169 1163 1200
f 1204 1169 1200
f 1168 1172 1201
f 1207 1169 1204
f 1208 1169 1207
f 1174 1208 1172
f 1162 1161 1187
f 1158 1159 1183
f 1158 1164 1159
f 1163 1166 1164
f 1163 1170 1166
f 1171 1172 1168
f 1171 1174 1172
f 1208 1173 1170
f 1173 1208 1174
f 1186 1187 1193
f 1194 1160 1192
f 1175 1177 1196
f 1195 1194 1191
f 1196 1197 1200
f 1198 1199 1195
f 1201 1199 1198
f 1200 1203 1204
f 1172 1202 1201
f 1204 1205 1207
f 1208 1206 1172
f 1207 1205 1208
f 1212 1217 1213
f 1214 1216 1215
f 1216 1213 1215
f 1219 1218 1215
f 1217 1221 1213
f 1213 1221 1222
f 1225 1226 1220
f 1261 1230 1229
f 1233 1234 1232
f 1233 1235 1234
f 1236 1235 1233
f 1239 1238 1236
f 1268 1241 1237
f 1242 1240 1238
f 1268 1243 1241
f 1245 1237 1244
f 1237 1241 1244
f 1247 1231 1245
f 1232 1231 1247
f 1246 1248 1249
f 1233 1232 1247
f 1252 1233 1250
f 1236 1233 1252
f 1251 1238 1253
f 1253 1236 1252
f 1238 1239 1253
f 1239 1236 1253
f 1242 1238 1251
f 1255 1219 1230
f 1217 1254 1221
f 1255 1218 1219
f 1217 1224 1254
f 1224 1256 1254
f 1220 1218 1255
f 1256 1220 1255
f 1220 1256 1224
f 1282 1262 1226
f 1283 1223 1227
f 1225 1282 1226
f 1283 1225 1223
f 1283 1282 1225
f 1257 1258 1259
f 1257 1260 1261
f 1258 1257 1261
f 1261 1260 1240
f 1262 1230 1261
f 1263 1265 1266
f 1262 1265 1230
f 1230 1265 1263
f 1267 1237 1285
f 1268 1267 1302
f 1268 1237 1267
f 1302 1269 1270
f 1271 1269 1302
f 1274 1272 1290
f 1274 1269 1271
f 1274 1271 1272
f 1285 1275 1276
f 1275 1286 1276
f 1275 1278 1286
f 1280 1279 1275
f 1277 1280 1275
f 1272 1263 1290
f 1266 1281 1290
f 1294 1282 1283
f 1237 1284 1285
f 1284 1277 1285
f 1284 1231 1277
f 1232 1280 1277
f 1231 1232 1277
f 1232 1234 1280
f 1234 1235 1280
f 1235 1236 1280
f 1236 1259 1280
f 1236 1257 1259
f 1249 1244 1246
f 1244 1250 1247
f 1244 1249 1251
f 1252 1250 1253
f 1288 1294 1281
f 1294 1289 1287
f 1293 1288 1281
f 1289 1290 1287
f 1291 1288 1293
f 1289 1292 1290
f 1292 1283 1290
f 1282 1291 1293
f 1282 1295 1291
f 1282 1294 1295
f 1296 1283 1292
f 1294 1296 1289
f 1294 1283 1296
f 1297 1296 1292
f 1289 1296 1297
f 1288 1291 1294
f 1295 1294 1291
f 1300 1301 1298
f 1273 1301 1300
f 1301 1255 1298
f 1255 1264 1298
f 1254 1256 1301
f 1256 1255 1301
f 1272 1254 1273
f 1255 1263 1264
f 1272 1273 1300
f 1299 1263 1298
f 1263 1300 1298
f 1263 1272 1300
f 1281 1287 1290
f 1266 1293 1281
f 1267 1303 1302
f 1303 1304 1302
f 1305 1304 1303
f 1258 1304 1305
f 1259 1279 1280
f 1302 1304 1222
f 1229 1213 1222
f 1261 1229 1222
f 1283 1274 1290
f 1266 1265 1293
f 1282 1293 1265
f 1267 1285 1276
f 1286 1267 1276
f 1278 1267 1286
f 1303 1267 1278
f 1275 1303 1278
f 1305 1303 1275
f 1279 1305 1275
f 1258 1305 1279
f 1259 1258 1279
f 1212 1248 1246
f 1249 1248 1212
f 1216 1249 1212
f 1216 1251 1249
f 1241 1243 1246
f 1243 1212 1246
f 1243 1217 1212
f 1243 1228 1217
f 1228 1223 1217
f 1223 1224 1217
f 1223 1220 1224
f 1223 1225 1220
f 1218 1306 1214
f 1306 1242 1214
f 1242 1251 1214
f 1226 1306 1218
f 1228 1243 1270
f 1262 1240 1306
f 1306 1240 1242
f 1270 1243 1268
f 1274 1227 1269
f 1283 1227 1274
f 1227 1270 1269
f 1282 1265 1262
f 1245 1231 1284
f 1237 1245 1284
f 1238 1257 1236
f 1238 1240 1257
f 1216 1212 1213
f 1214 1251 1216
f 1218 1214 1215
f 1221 1271 1222
f 1271 1302 1222
f 1272 1221 1254
f 1272 1271 1221
f 1258 1261 1304
f 1230 1263 1255
f 1219 1215 1229
f 1230 1219 1229
f 1229 1215 1213
f 1227 1223 1228
f 1241 1246 1244
f 1261 1240 1262
f 1263 1299 1264
f 1302 1270 1268
f 1277 1275 1285
f 1263 1266 1290
f 1247 1245 1244
f 1250 1233 1247
f 1244 1251 1253
f 1250 1244 1253
f 1294 1287 1281
f 1297 1292 1289
f 1298 1264 1299
f 1254 1301 1273
f 1304 1261 1222
f 1226 1218 1220
f 1228 1270 1227
f 1262 1306 1226
f 1240 1260 1257
f 1307 1308 1314
f 1309 1307 1314
f 1307 1310 1308
f 1311 1340 1336
f 1310 1311 1336
f 1311 1312 1340
f 1311 1313 1312
f 1307 1318 1315
f 1307 1319 1318
f 1355 1314 1317
f 1320 1355 1317
f 1355 1309 1314
f 1316 1320 1317
f 1316 1321 1320
f 1321 1309 1355
f 1347 1323 1324
f 1325 1324 1326
f 1327 1325 1326
f 1328 1327 1326
f 1328 1329 1327
f 1330 1313 1329
f 1331 1332 1315
f 1333 1324 1334
f 1335 1332 1331
f 1336 1335 1331
f 1339 1334 1327
f 1340 1338 1336
f 1351 1327 1341
f 1342 1338 1340
f 1343 1342 1340
f 1341 1342 1343
f 1346 1344 1345
f 1346 1324 1333
f 1347 1349 1348
f 1349 1345 1348
f 1322 1349 1347
f 1349 1322 1350
f 1319 1309 1321
f 1322 1346 1350
f 1319 1307 1309
f 1324 1346 1322
f 1344 1347 1348
f 1333 1347 1344
f 1314 1315 1317
f 1308 1315 1314
f 1333 1323 1347
f 1331 1315 1308
f 1337 1323 1333
f 1337 1326 1323
f 1336 1331 1308
f 1339 1326 1337
f 1339 1328 1326
f 1339 1351 1328
f 1343 1330 1351
f 1319 1321 1316
f 1350 1346 1345
f 1345 1344 1348
f 1351 1329 1328
f 1330 1329 1351
f 1352 1344 1349
f 1344 1345 1349
f 1346 1345 1344
f 1353 1352 1349
f 1353 1345 1346
f 1345 1353 1349
f 1352 1333 1344
f 1353 1333 1352
f 1346 1333 1353
f 1317 1355 1320
f 1354 1355 1317
f 1316 1317 1320
f 1321 1316 1320
f 1316 1321 1355
f 1315 1354 1317
f 1315 1355 1354
f 1315 1318 1355
f 1316 1355 1318
f 1312 1313 1330
f 1310 1332 1335
f 1338 1310 1335
f 1325 1327 1334
f 1313 1341 1327
f 1325 1334 1324
f 1343 1312 1330
f 1332 1310 1307
f 1310 1338 1311
f 1338 1342 1311
f 1342 1341 1311
f 1341 1313 1311
f 1340 1312 1343
f 1336 1308 1310
f 1319 1316 1318
f 1347 1324 1322
f 1323 1326 1324
f 1329 1313 1327
f 1332 1307 1315
f 1333 1334 1337
f 1337 1334 1339
f 1338 1335 1336
f 1339 1327 1351
f 1351 1341 1343
f 1349 1350 1345
