v -0.0211186 -0.0291581 -0.0245407
v -0.0157282 -0.0272537 -0.0245199
v -4.483e-05 -0.0350417 -0.0243772
v 0.00589034 -0.0315104 -0.0245098
v 0.0259584 -0.0179441 -0.0244975
v 0.0529843 -0.0349567 -0.0245259
v 0.0556186 -0.00981303 -0.0245023
v -0.0308764 -0.00972095 -0.0242484
v -0.0333395 -0.0119375 -0.0244816
v -0.0352946 0.00050578 -0.024255
v 0.0315196 -0.00126035 -0.0244993
v -0.0282388 0.0147527 -0.0243836
v -0.0321419 0.0144412 -0.024521
v 0.0537085 0.0349281 -0.0245297
v 0.0261304 0.0176162 -0.0245089
v -0.0204337 0.0291447 -0.0244874
v -0.0094114 0.0305559 -0.0245464
v 0.0116808 0.0289549 -0.0244986
v -0.00627308 0.0348919 -0.0242565
v 0.0530279 -0.0349663 -0.019989
v 0.0555554 -0.00752157 -0.0199847
v 0.0440013 -0.0350014 -0.0199595
v 0.0440066 0.0349962 -0.0199532
v 0.0535476 0.0346949 -0.0199969
v 0.043956 -0.0349176 -0.0145006
v -0.0189859 -0.0282282 -0.0155095
v 0.00219575 -0.0349344 -0.0147773
v -0.0119856 -0.0325486 -0.0199374
v -0.0289677 -0.0189831 -0.019429
v -0.032805 -0.0063723 -0.0154914
v -0.031175 0.0117862 -0.0156109
v 0.00235569 0.0348863 -0.0149431
v -0.0208929 0.0266338 -0.0157995
v 0.00868846 -0.0212793 -0.014626
v -0.0106902 -0.0197447 -0.0155052
v -0.0217488 -0.00693083 -0.0154684
v -0.0170282 0.0160603 -0.0156588
v 0.00438605 0.0219336 -0.0146256
v -0.00682691 -0.0188493 -0.0129914
v 0.0155454 -0.0128784 -0.0129032
v -0.0209834 -0.00313629 -0.0129452
v 0.0228277 0.00247137 -0.0145162
v 0.0147802 0.0138406 -0.012978
v -0.00741954 0.0189743 -0.0129596
v -0.0144473 -0.028096 -0.0195269
v 0.00966734 -0.0309253 -0.0196461
v -0.0297489 -0.0121496 -0.0194717
v 0.0271325 -0.0159344 -0.0194974
v 0.0312586 0.00606964 -0.0194731
v -0.0290188 0.012857 -0.0194989
v 0.0204618 0.0235326 -0.0195033
v -0.015057 0.0277014 -0.0195014
v 0.00427183 0.0311897 -0.0194738
v -0.0186656 -0.00855985 -0.0206392
v 0.00916157 -0.017578 -0.0210081
v -0.00123934 -0.0224926 -0.0196717
v 0.00085822 0.0202852 -0.0203997
v -0.019194 0.00945366 -0.0199868
v 0.0182517 -0.0108253 -0.0194682
v 0.0208807 0.00625806 -0.0205972
v 0.0439059 0.0349228 -0.0145051
v -0.00682552 0.0162071 -0.0207309
v -0.0178414 0.00585456 -0.0202556
v 0.0185462 -0.00196582 -0.020816
v 0.0137282 0.0124596 -0.0203651
v -0.0008004 -0.0211344 -0.0207506
v 0.0158754 -0.00957944 -0.020134
v 0.0192245 -0.00343501 -0.0134973
v 0.00764121 -0.0172872 -0.0134961
v -0.00716767 -0.0178749 -0.0134962
v -0.0174459 -0.00691601 -0.013503
v -0.0185141 0.00426459 -0.0135176
v -0.0100529 0.0163787 -0.013494
v 0.00426345 0.0181723 -0.0135032
v 0.0143282 0.0126388 -0.0135216
v 0.00643833 -0.0178783 -0.0199827
v -0.00904422 -0.0171729 -0.0199649
v 0.0187831 -0.00589444 -0.0199917
v -0.0176476 -0.00623301 -0.020001
v -0.0180789 0.00550696 -0.0200035
v 0.0150913 0.0115996 -0.0200045
v -0.00839701 0.0174896 -0.0199554
v 0.0048468 0.0179783 -0.02
v 0.0337516 -0.00210378 0.0245288
v 0.0186715 -0.0254689 0.0245085
v 0.0535724 -0.0349108 0.0245318
v -0.00389857 -0.0348233 0.0244622
v 0.0554581 0.0105069 0.024523
v -0.0308208 0.016915 0.02489
v -0.0354659 -0.00114533 0.0244986
v -0.0299989 -0.0185759 0.0248558
v 0.0528866 0.0349724 0.0245331
v 0.0181392 0.0270139 0.0244986
v -0.00494062 0.0349697 0.0248954
v -0.0198624 0.029058 0.0245001
v -0.00975201 -0.0337676 0.0200014
v 0.00076683 -0.0348771 0.0191696
v -0.0167777 -0.0309673 0.0248564
v -0.0237032 -0.026264 0.019954
v -0.0324018 -0.0136225 0.0199745
v -0.0354161 0.00332076 0.0200178
v -0.0289123 0.0201831 0.019976
v -0.0151095 0.0318773 0.0199606
v 0.00042551 0.0349891 0.0200328
v 0.00201921 0.0315615 0.0169948
v 0.0242491 0.0187449 0.0170042
v -0.0301719 -0.00031941 0.0170024
v 0.0309011 -0.00308142 0.017003
v 0.0005235 -0.0313728 0.0169982
v -0.0268004 -0.0145458 0.0170333
v -0.0161509 -0.025735 0.0171555
v 0.0201032 -0.0227449 0.0170307
v -0.0271993 0.0138754 0.0170142
v -0.0152693 0.026267 0.0170438
v 0.0440096 -0.0349705 0.0199673
v 0.0555344 -0.00981919 0.0199654
v 0.0529779 -0.034945 0.0199809
v 0.044 0.0346 0.02
v 0.0533797 0.0347271 0.0199468
v 0.0436607 0.0349961 0.0201866
v 0.0439541 -0.0349574 0.0145056
v 0.00232793 -0.0348008 0.0144677
v 0.00178558 0.0348549 0.0144234
v 0.0439982 0.0349738 0.0147037
v 0.0204497 -0.0248054 0.0250355
v 0.0276688 0.0160611 0.0250093
v 0.0186251 -0.027315 0.0145106
v 0.0330021 -0.00713071 0.0145265
v 0.0438 0.0348 0.0145
v 0.027955 0.0179359 0.0145219
v 0.0136972 0.0297596 0.0145008
v -0.0151349 -0.0263164 0.0199725
v -0.0260811 -0.0155963 0.0200114
v -0.0305545 0.00117691 0.019984
v -0.0218053 0.0216061 0.0201303
v -0.00328061 0.030119 0.0199867
v 0.0799938 -0.00948541 0.0154929
v 0.0799844 -0.0260087 0.0218344
v 0.0799986 -0.0303214 0.0149227
v 0.0800413 -0.0124981 0.0278303
v 0.0800206 -0.0166503 0.029876
v 0.0799995 0.0304187 0.0150143
v 0.0800043 0.0218642 0.0263885
v 0.0800365 0.00943082 0.0159485
v 0.0799451 0.0136636 0.029423
v 0.0440002 -0.0349463 -0.0194837
v 0.0529739 -0.0349111 -0.0199783
v 0.0440013 -0.034862 -0.0149211
v 0.0440084 -0.0349364 0.0149435
v 0.0535 -0.035 0.015
v 0.0529893 -0.0349585 0.0200261
v 0.0533931 -0.0348026 -0.0244073
v 0.0561933 -0.0350968 -0.023643
v 0.0535 -0.035 -0.015
v 0.0559987 -0.0350012 0.0241454
v 0.0530409 -0.0349853 0.0238478
v 0.055998 0.0350051 -0.0241305
v 0.0538332 0.0339801 -0.0245181
v 0.0535094 0.03468 -0.0240882
v 0.0570268 0.0351342 -0.024506
v 0.057528 -0.0343692 -0.0244795
v 0.0440063 0.0349499 -0.014973
v 0.0535 0.035 -0.015
v 0.0530379 0.035 -0.0195
v 0.0440002 0.0349462 0.0194838
v 0.0529907 0.0349212 0.0199642
v 0.0440013 0.0348654 0.0149244
v 0.0533944 0.0347937 0.0244215
v 0.0562158 0.0350977 0.023768
v 0.0531808 0.0349193 0.0145641
v 0.0709556 0.017986 -0.0320227
v 0.0801358 0.0100904 -0.026707
v 0.0679333 0.0244158 -0.0261233
v 0.0798125 0.00598949 -0.0335354
v 0.0721861 0.0113867 -0.035014
v 0.08049 -0.00098768 -0.035098
v 0.0720422 -0.0108512 -0.0350369
v 0.0799758 -0.0101567 -0.0256385
v 0.070915 -0.0192876 -0.0303772
v 0.0676593 -0.0245161 -0.0261925
v 0.0800392 -0.00851935 -0.0306002
v 0.0710898 -0.016013 -0.0334397
v 0.08 -0.00539148 -0.0334811
v 0.0568639 -0.0365195 0.0223009
v 0.057021 -0.0396104 -0.0239159
v 0.0570734 -0.0396218 0.023833
v 0.057016 -0.0351255 0.024507
v 0.0800145 0.00824571 -0.0191369
v 0.0799899 -0.00405963 -0.0156972
v 0.079988 -0.00830438 -0.0192272
v 0.0799882 0.00255987 -0.0149565
v 0.0864063 0.0102215 -0.0248688
v 0.0787889 0.00967213 -0.022621
v 0.086953 0.00817306 -0.018654
v 0.0865 -0.00950546 -0.0217368
v 0.0786701 -0.00940101 -0.0224482
v 0.0864808 -0.0100004 -0.0267825
v 0.0869157 -0.00635625 -0.0332955
v 0.0865701 -0.0067693 -0.0174736
v 0.0867381 -0.00196122 -0.0150899
v 0.0869306 -0.00020246 -0.0356374
v 0.0866689 0.00282805 -0.0152346
v 0.0869914 0.00521949 -0.03393
v 0.0865 0.00883871 -0.0297833
v 0.0868087 -0.00031345 -0.0138682
v 0.080931 0.00300098 -0.0144901
v 0.0808419 -0.00322961 -0.0144269
v 0.0813414 -0.0104427 -0.0209481
v 0.0814775 -0.0119952 -0.0294883
v 0.0869571 -0.0111285 -0.0275841
v 0.0869846 -0.0101235 -0.0201411
v 0.0817352 -0.0074078 -0.0168116
v 0.0869452 -0.00623051 -0.0158236
v 0.0868036 0.00578145 -0.0154267
v 0.0813138 0.00725849 -0.0165865
v 0.0868762 0.0103401 -0.0206642
v 0.0815037 0.0105815 -0.0214399
v 0.0870512 0.0111816 -0.0280758
v 0.0825712 0.0111258 -0.0274075
v 0.0544265 -0.0231429 -0.02
v 0.0445 -0.0345 -0.02
v 0.0445 0.0345 -0.02
v 0.0556245 0.00229768 -0.0200022
v 0.053387 0.0342364 -0.0199974
v 0.0440008 0.0348794 -0.0195348
v 0.053 -0.0345 -0.0145
v 0.0530984 -0.0304838 -0.0140803
v 0.0445 -0.0345 -0.0145
v 0.0535 -0.028 -0.0145
v 0.0445 0.0345 -0.0145
v 0.0529101 0.0288895 -0.0145001
v 0.053 0.0345 -0.0145
v 0.0795 -0.028 -0.0145
v 0.0795037 -0.00759782 -0.0145001
v 0.079543 0.00680284 -0.014501
v 0.0794882 0.02926 -0.0144515
v 0.0532772 0.0329887 -0.0105652
v 0.0532064 0.0329843 0.0105569
v 0.0530919 0.030458 0.0140902
v 0.0532845 -0.0329959 -0.0105271
v 0.053 -0.0345 0.0145
v 0.0531957 -0.0329723 0.0105915
v 0.0529074 -0.0288999 0.0144998
v 0.0546256 -0.0231615 -0.0245
v 0.0624109 -0.0103211 -0.0245046
v 0.0557973 -0.00253446 -0.0244995
v 0.06256 0.010416 -0.0245037
v 0.0644543 -0.0382782 -0.0248493
v 0.0626341 0.0288758 -0.0245156
v 0.0644621 0.0388521 -0.0248582
v 0.0570466 0.0396735 -0.0239924
v 0.077841 -0.0105077 -0.0244877
v 0.0783423 0.0104875 -0.0244964
v 0.0535 0.0315355 -0.0130355
v 0.0796177 0.0314255 -0.0132014
v 0.079719 0.0329922 -0.0104831
v 0.0796219 0.0329791 0.0104905
v 0.0800221 -0.0329946 -0.0107834
v 0.0795661 -0.031146 -0.0135731
v 0.0800831 -0.0330075 0.0108556
v 0.067044 -0.0386817 -0.018702
v 0.0668865 -0.040004 0.00035019
v 0.0638148 -0.0398849 -0.0235159
v 0.0718494 -0.0398426 -0.00366682
v 0.0659744 0.0400204 -0.00748893
v 0.0672293 0.0376077 -0.0223374
v 0.0638505 0.0399059 -0.0228087
v 0.0685672 -0.0340089 -0.0272952
v 0.0719306 0.0395783 -0.0061275
v 0.0678886 0.0347665 -0.0271794
v 0.0720145 -0.0365122 -0.0169335
v 0.0719901 0.0359073 -0.0179175
v 0.0719819 0.0296143 -0.0271995
v 0.0705987 0.0276156 -0.0312779
v 0.0719823 -0.02842 -0.0283796
v 0.0704936 -0.0276001 -0.0309023
v 0.0720088 0.0196178 -0.0349845
v 0.0711412 0.0160357 -0.0371258
v 0.0720123 -0.0165899 -0.0367822
v 0.0710893 -0.0137847 -0.0381068
v 0.071824 0.00255216 -0.0408302
v 0.0568688 0.0365282 -0.0222863
v 0.0569988 0.0397766 0.02269
v 0.0570291 0.0372311 0.0245255
v 0.0572163 -0.039986 0.0220117
v 0.0572141 -0.0399669 -0.0230854
v 0.0648941 -0.0398981 0.0123418
v 0.0637537 -0.0399443 0.0226187
v 0.0572187 0.039977 0.0231047
v 0.0572186 0.0399883 -0.0221652
v 0.0637334 0.0399171 0.0234899
v 0.0720088 -0.0379247 -0.00011062
v 0.0717589 -0.0391953 0.00752231
v 0.0720217 -0.0373296 -0.00669929
v 0.0720133 -0.0373639 0.00649289
v 0.0720376 -0.0356298 -0.0129833
v 0.0720347 -0.0356991 0.0128057
v 0.0719932 -0.0359094 0.0179336
v 0.0720587 -0.0327994 -0.0190308
v 0.0720461 -0.0328998 0.0188578
v 0.0720088 -0.0289856 -0.0244585
v 0.0719704 -0.0295833 0.0271651
v 0.0720274 -0.0268821 0.0269908
v 0.0720189 -0.0243064 -0.0291091
v 0.072037 -0.018927 -0.0328597
v 0.0720488 -0.0177465 0.0360951
v 0.0720547 -0.0190035 0.0328135
v 0.0720572 -0.0128347 -0.0356858
v 0.0720341 -0.0129843 0.0356296
v 0.0720273 -0.00640825 -0.0373826
v 0.0720505 -0.00664775 0.0373361
v 0.0720052 -0.0024697 0.0401604
v 0.0720292 0.00010621 -0.037926
v 0.0720176 -8.588e-05 0.0379259
v 0.0720176 0.0119967 0.0385124
v 0.0720485 0.00642262 0.0373787
v 0.0720285 0.00662186 -0.0373411
v 0.0720815 0.0155889 -0.0347207
v 0.0720973 0.016583 0.0342495
v 0.0719615 0.0274477 0.0297154
v 0.07203 0.0244924 -0.0289542
v 0.0720375 0.0243496 0.0290706
v 0.0720279 0.0291156 -0.024302
v 0.0720232 0.0289825 0.0244613
v 0.072062 0.0327501 0.0191277
v 0.0718972 0.0361814 0.0173073
v 0.072055 0.0368092 0.00978523
v 0.0720979 0.0345012 -0.0161067
v 0.0720148 0.0373678 -0.00647302
v 0.0719019 0.0395562 0.00609377
v 0.0720101 0.0379258 0.00010746
v 0.0799971 -0.0122554 -0.0210508
v 0.0800238 -0.00776448 -0.0153092
v 0.0799997 -0.0304027 -0.0150155
v 0.0799857 -0.0180682 -0.0297235
v 0.0800124 -0.0126503 -0.0277435
v 0.087074 -0.014029 -0.0314656
v 0.0869745 0.01405 -0.0313722
v 0.0800359 0.0123257 -0.0274724
v 0.0799993 0.0270122 -0.0214559
v 0.0799876 0.00958808 -0.0155484
v 0.0799988 0.0303218 -0.0149219
v 0.0800572 0.0172161 -0.0300089
v 0.0814209 -0.0312498 0.0175522
v 0.0969923 -0.031308 0.0187588
v 0.097 -0.0350883 0.00968374
v 0.097 -0.0350883 -0.00968374
v 0.097 -0.0327953 -0.0157934
v 0.0819106 -0.0321152 -0.0154312
v 0.0971434 0.0331648 -0.015275
v 0.097 0.035815 -0.00649947
v 0.0807861 0.0335901 -0.0118003
v 0.0808954 0.0339642 0.0106789
v 0.0812119 0.0356016 0.00119141
v 0.0969106 0.0364078 0.0031532
v 0.0820442 -0.035062 0.00640679
v 0.0970141 -0.0365904 -0.00026269
v 0.0818964 -0.0346017 -0.00857667
v 0.0969913 -0.0271193 -0.0245206
v 0.0813368 -0.0272235 -0.0232208
v 0.0811498 -0.0247919 0.0255576
v 0.097 -0.0200527 -0.0303785
v 0.097 -0.0200527 0.0303785
v 0.097 -0.0251547 0.0263097
v 0.088421 -0.0176441 -0.0314108
v 0.081653 -0.0179268 -0.0309787
v 0.0875632 -0.0163539 0.0317135
v 0.0816303 -0.0179252 0.0308625
v 0.0817567 0.0174862 -0.0309815
v 0.0970057 0.0201391 -0.0304851
v 0.0817755 0.0244023 -0.0259978
v 0.097 0.022695 0.0284587
v 0.0879518 0.0169526 0.0317058
v 0.0816922 0.0225602 0.0275695
v 0.0813922 0.0171984 0.0309844
v 0.0811734 0.0295188 0.0200799
v 0.0970608 0.0294018 0.0216962
v 0.097 0.0274118 -0.023949
v 0.0816736 0.0302992 -0.0187328
v 0.097 0.0340789 0.01279
v 0.088512 0.0176115 -0.0313848
v 0.0888267 0.00791712 0.0353891
v 0.0970247 0.00804807 0.0356298
v 0.097 -0.00163308 0.0363634
v 0.097 -0.00163308 -0.0363634
v 0.0969125 0.00856279 -0.0355436
v 0.088614 0.00846822 -0.0351317
v 0.0886533 -0.00791869 -0.0351458
v 0.0970197 -0.0112199 -0.0347355
v 0.0969756 -0.0111337 0.0348625
v 0.088724 -0.00993374 0.034692
v 0.097 0.0172488 0.0320537
v 0.0969968 -0.0360706 -0.00983215
v 0.0966471 -0.0374341 0.00575756
v 0.0965002 -0.035597 0.0127398
v 0.0966514 -0.0293405 -0.0239865
v 0.0966978 -0.0325444 0.0194174
v 0.0964951 -0.0242156 -0.0290522
v 0.0966608 -0.019938 0.0322111
v 0.0966358 -0.0183921 -0.0331045
v 0.0964924 -0.0123244 0.0358147
v 0.0966537 -0.00625258 -0.0372504
v 0.0966013 0.00035603 0.0378198
v 0.0967236 0.00139634 -0.0378491
v 0.0965805 0.0120993 0.0359008
v 0.0966721 0.0184812 -0.0330845
v 0.0965112 0.0192253 0.0325984
v 0.0965014 0.024341 -0.0289515
v 0.096626 0.0247648 0.0286383
v 0.0966587 0.0296865 -0.0235264
v 0.0969313 0.0332047 0.0181896
v 0.0966439 0.0370823 -0.0076891
v 0.0966573 0.0378637 0.00127802
v 0.09625 -0.0379 0
v 0.09625 -0.0373242 -0.00658127
v 0.09625 -0.0356144 -0.0129626
v 0.09625 -0.0328224 -0.01895
v 0.0961426 -0.0275049 0.0262199
v 0.09625 -0.0129626 -0.0356144
v 0.09625 -0.00658127 0.0373242
v 0.09625 0.00658127 0.0373242
v 0.0962258 0.0099319 -0.036589
v 0.09625 0.0290331 0.0243616
v 0.0961271 0.0347957 -0.015303
v 0.096103 0.0364437 0.010759
v 0.0651518 -0.00854626 -0.0215295
v 0.065064 -0.00625663 -0.0200305
v 0.078973 -0.00608296 -0.0200357
v 0.0650012 0.00666697 -0.0200971
v 0.0789738 0.00608203 -0.0200152
v 0.0646706 0.00929139 -0.0225495
v 0.0799789 0.00822961 0.0194291
v 0.0799758 -0.00851613 0.0193507
v 0.080008 -0.00283513 0.014929
v 0.0800215 0.0052758 0.0162223
v 0.086839 0.0102083 0.0245756
v 0.0799349 0.0101763 0.0257187
v 0.0786135 0.00955725 0.0226146
v 0.0869543 -0.00995398 0.022935
v 0.0799146 -0.0101794 0.0258768
v 0.0866908 0.00881603 0.0200412
v 0.080015 -0.00852553 0.0305841
v 0.0867104 -0.00922418 0.0293243
v 0.0868731 -0.00788713 0.0187378
v 0.0869127 -0.00409367 0.0157083
v 0.086915 -0.00545386 0.0338138
v 0.0799369 -0.00436814 0.0341598
v 0.0870135 -0.0008489 0.035605
v 0.0800421 0.00029155 0.0350672
v 0.0866284 0.00073978 0.0149313
v 0.0799878 0.00500362 0.0339672
v 0.0870316 0.00506643 0.0341659
v 0.0867896 0.00551305 0.0163332
v 0.0800026 0.00881786 0.0300409
v 0.0869102 0.0087942 0.0298799
v 0.0867924 0.00027022 0.0138509
v 0.0809003 -0.0030232 0.0144959
v 0.0808174 0.00313771 0.014411
v 0.0811664 -0.0106018 0.02133
v 0.0869531 -0.0114535 0.0289146
v 0.0826012 -0.0111263 0.0274354
v 0.0867955 -0.0102114 0.0204641
v 0.0813047 -0.0072519 0.0165603
v 0.0867609 -0.00599822 0.0155531
v 0.0868616 0.00678635 0.0160446
v 0.0814901 0.00931558 0.0185619
v 0.0867924 0.0103242 0.021009
v 0.0818044 0.0112754 0.027199
v 0.0868831 0.0111726 0.0275027
v 0.0544265 -0.0231429 0.02
v 0.0444674 -0.0348277 0.0200028
v 0.0556256 -0.00222885 0.0200022
v 0.0445 0.0345 0.02
v 0.0544265 0.0231429 0.02
v 0.044 -0.0345 0.0195
v 0.0445 -0.0345 0.0145
v 0.0445 0.0345 0.0145
v 0.0535 0.028 0.0145
v 0.079543 -0.00680286 0.014501
v 0.0794883 -0.0292605 0.0144514
v 0.0795 0.028 0.0145
v 0.0795037 0.00759782 0.0145001
v 0.0694807 0.0216079 0.0290134
v 0.0655797 0.0268933 0.0254223
v 0.0711723 0.0158703 0.0335331
v 0.0724637 0.00961734 0.0350473
v 0.0720655 -0.0109393 0.0350468
v 0.0707803 -0.0196702 0.0299908
v 0.0676975 -0.024433 0.0261403
v 0.0711073 -0.0163659 0.0331916
v 0.0546256 0.0231615 0.0245
v 0.0624786 -0.0103208 0.0245054
v 0.0538575 -0.0339565 0.0245212
v 0.0557995 0.00227643 0.0245
v 0.062468 0.0103308 0.0245022
v 0.0643993 -0.0389582 0.0248528
v 0.0629269 -0.028843 0.0245177
v 0.0616351 0.0295373 0.0244917
v 0.064308 0.0384622 0.0248186
v 0.0782527 -0.0103809 0.0244985
v 0.0777999 0.0105651 0.0244812
v 0.0795654 0.031146 0.013573
v 0.0535 -0.0315355 0.0130355
v 0.0796159 -0.0314256 0.0132011
v 0.0678345 -0.0377095 0.0209152
v 0.066051 0.0395371 0.0145867
v 0.0677833 -0.0351529 0.0266691
v 0.0688102 0.0338375 0.0270971
v 0.0699465 -0.0305698 0.0293626
v 0.0709045 0.0248449 0.0328446
v 0.0710367 0.010985 0.0389122
v 0.0709772 -0.00190896 0.0399785
v 0.0710084 -0.0142107 0.0380701
v 0.0869967 0.0131412 0.0308467
v 0.0789731 -0.00908592 0.0218841
v 0.0651317 -0.00867785 0.0217559
v 0.0650095 -0.0062244 0.0200367
v 0.078989 -0.00571499 0.0200029
v 0.0789626 0.00604508 0.0200317
v 0.0650825 0.006279 0.0200385
v 0.0651379 0.00855809 0.0215515
v 0.0709346 -0.0240181 0.0329347
v 0.0710082 -0.0106568 0.0361459
v 0.0710323 0.0115979 0.0357944
v 0.0709974 -0.0114045 -0.0361059
v 0.0710136 0.0122731 -0.0358743
v 0.0710015 0.00293723 -0.0399514
v 0.0644848 -0.027568 -0.024942
v 0.0682177 -0.0336987 -0.0275399
v 0.0687918 -0.023915 -0.028042
v 0.0676905 0.0258094 -0.0268551
v 0.0690686 0.0320792 0.0282471
v 0.0687127 -0.0242784 0.0276587
v 0.0816477 0.0132734 0.030373
v 0.0817354 -0.0134007 0.0304756
v 0.0818273 0.0133841 -0.0305389
v 0.0556112 -0.00100334 -0.0243194
v 0.0544265 -0.0231429 0.0243
v 0.0556097 0.00099342 0.0243197
v 0.0799793 0.0337584 0.00170056
v 0.0819778 0.0350882 -0.00632679
v 0.0811878 -0.0355669 -0.00098367
v 0.0799939 -0.0337166 -0.00270871
v 0.405734 -0.00185733 0.0289051
v 0.410722 0.00773387 0.0289733
v 0.406152 0.00348327 0.0287541
v 0.421355 5.943e-05 0.028951
v 0.418211 0.00691822 0.0285969
v 0.408692 0.00835731 -0.0130284
v 0.405999 0.00595559 -0.013
v 0.406595 0.00675795 0.0129179
v 0.404058 0.00238616 -0.0129902
v 0.404168 0.00244579 0.0127567
v 0.409784 0.00821646 0.0131305
v 0.410024 0.0089076 0.0106225
v 0.409947 0.00868338 -0.00998295
v 0.403911 -0.00138283 0.0130921
v 0.404651 -0.00412567 -0.0129372
v 0.413796 0.0095473 -0.010588
v 0.413858 0.00949922 0.010294
v 0.404835 -0.0041379 0.0126751
v 0.41701 0.00896754 0.0129765
v 0.417384 0.00875611 -0.0129974
v 0.405074 -0.00422404 0.00976193
v 0.407217 -0.00728715 0.0106023
v 0.407457 -0.00737115 -0.0100037
v 0.405011 -0.00439049 -0.0102738
v 0.409667 -0.00894798 0.013024
v 0.421162 0.00570938 0.0127709
v 0.421427 0.0052393 -0.0129984
v 0.409264 -0.00869838 -0.0129979
v 0.414842 -0.00948075 -0.0130002
v 0.41524 -0.00946215 0.0128021
v 0.422885 0.00150224 0.0130564
v 0.422748 0.00169353 -0.013
v 0.422885 -0.0010811 0.0127439
v 0.420312 -0.00681847 -0.0130073
v 0.418911 -0.00773194 0.0130444
v 0.42108 -0.00080913 0.00982096
v 0.42266 -0.00142034 -0.0100563
v 0.422846 -0.00100865 -0.013
v 0.421447 -0.00504184 -0.0105921
v 0.42056 -0.00597406 0.0128678
v 0.42139 -0.00505534 0.0105831
v 0.4072 0.0125129 -0.0250013
v 0.400638 0.00477237 -0.0250026
v 0.403579 0.00880985 -0.0200615
v 0.400968 0.00183238 -0.0137765
v 0.409023 0.0128878 -0.0201483
v 0.40046 -0.00481434 -0.0249744
v 0.414417 0.0130535 -0.0201061
v 0.416224 0.0134086 -0.0249984
v 0.407028 -0.0123515 -0.0249908
v 0.407307 -0.0116019 -0.0200075
v 0.422079 0.00993728 -0.0199275
v 0.422195 0.0103553 -0.0250004
v 0.412536 -0.0137397 -0.0200877
v 0.425806 0.00562788 -0.0201459
v 0.426052 0.00524136 -0.0249983
v 0.417085 -0.0131655 -0.0250034
v 0.426339 0.00071525 -0.0200255
v 0.426918 -0.00135625 -0.0250004
v 0.418789 -0.0120571 -0.0200132
v 0.424194 -0.00848957 -0.0249981
v 0.424998 -0.00617113 -0.0200704
v 0.403145 0.0073359 -0.0130345
v 0.409058 0.0120049 -0.0130611
v 0.401733 -0.00529293 -0.0130674
v 0.416642 0.0120631 -0.0130432
v 0.422113 0.00938841 -0.0131593
v 0.408378 -0.011933 -0.0131552
v 0.42581 0.00244388 -0.0130834
v 0.416473 -0.0121822 -0.0130937
v 0.421202 -0.00996374 -0.0128871
v 0.425429 -0.00379125 -0.0130606
v 0.403813 -0.00160531 0.0227847
v 0.406476 0.00418693 0.0229013
v 0.407169 0.00746819 0.0227053
v 0.411298 0.00802993 0.0230023
v 0.416821 0.00912755 0.0226813
v 0.40519 -0.00179572 0.022899
v 0.410277 -0.00891249 0.0227942
v 0.417519 0.0069856 0.0228768
v 0.421597 0.00179173 0.0228894
v 0.422991 0.00164866 0.0227843
v 0.419605 -0.00747154 0.0227093
v 0.414038 -0.00805148 0.0228961
v 0.41974 -0.00551157 0.022945
v 0.408511 -0.00678979 0.0280905
v 0.414572 -0.00794785 0.0289526
v 0.420089 -0.00493773 0.0280414
v 0.4134 0 -0.03
v 0.391431 -0.00205439 -0.0300004
v 0.395188 0.0125117 -0.0300104
v 0.421984 0.0205868 -0.0299805
v 0.431621 0.0128136 -0.0300174
v 0.399417 -0.0168968 -0.0300059
v 0.41839 -0.0214647 -0.0300034
v 0.432042 -0.0115643 -0.0300095
v 0.435042 -0.00423503 -0.0300026
v 0.401697 0.0189866 -0.0294245
v 0.396055 0.0137633 -0.0254893
v 0.392257 0.00659032 -0.0295365
v 0.392324 0.00704784 -0.024995
v 0.403145 0.0194791 -0.0249943
v 0.391527 -0.00231731 -0.0250189
v 0.412268 0.0222428 -0.0250385
v 0.410577 0.0218823 -0.0300142
v 0.393947 -0.0108054 -0.0294503
v 0.39466 -0.0119461 -0.0250021
v 0.423128 0.0198238 -0.0250047
v 0.401018 -0.0180657 -0.0250043
v 0.431023 0.0136503 -0.0250571
v 0.407886 -0.021573 -0.0300016
v 0.409603 -0.0218183 -0.0250209
v 0.435209 0.00353114 -0.0250023
v 0.43528 0.00322306 -0.0294627
v 0.420684 -0.0209604 -0.0250218
v 0.435104 -0.00423898 -0.025576
v 0.426832 -0.0177356 -0.0294559
v 0.431536 -0.0129454 -0.0249809
v 0.419339 -0.00427131 -0.0105086
v 0.420647 -0.0006393 -0.00968462
v 0.41935 -0.00413631 0.0104932
v 0.40907 -0.0058656 -0.0102159
v 0.406713 -0.00287699 -0.00949519
v 0.406868 -0.00308249 0.0102468
v 0.409233 -0.00596859 0.00949506
v 0.414133 0.00724624 -0.0106733
v 0.414035 0.00725685 0.0102456
v 0.410309 0.00659138 0.009
v 0.410309 0.00659138 -0.009
v 0.408405 -0.0350283 0.0200943
v 0.40983 -0.0306825 0.0200596
v 0.423885 -0.0336744 0.020099
v 0.40562 -0.0245298 0.0200418
v 0.433845 -0.0165388 0.0200251
v 0.438435 -0.0250329 0.0200999
v 0.447395 -0.009878 0.020026
v 0.443132 -0.0092629 0.0200632
v 0.431075 -0.00282316 0.0200226
v 0.443293 0.0060047 0.0200984
v 0.427754 0.0115601 0.0200368
v 0.431441 0.015013 0.0200199
v 0.442528 0.0094776 0.0200935
v 0.439907 0.0234544 0.0200564
v 0.447433 0.00937541 0.0199735
v 0.429277 0.0238345 0.0200687
v 0.405266 0.0244556 0.0200469
v 0.427765 0.0320806 0.020081
v 0.409425 0.0296147 0.0200686
v 0.40872 0.0349614 0.0200192
v 0.415863 0.0350212 0.0201557
v 0.38838 -0.0242448 0.0200369
v 0.385464 -0.0202244 0.0199936
v 0.388643 -0.0140752 0.0199984
v 0.384707 -0.00316055 0.0199962
v 0.385143 0.00400915 0.02
v 0.388435 0.0132065 0.0200009
v 0.38569 0.0198952 0.0199999
v 0.388259 0.0241488 0.0200283
v 0.419918 -0.0233409 0.0245011
v 0.371428 -0.0349532 0.0245278
v 0.417657 -0.0349191 0.0245246
v 0.402569 -0.0233599 0.024501
v 0.392514 -0.0236517 0.0245035
v 0.369485 -0.018427 0.0245075
v 0.432359 -0.0298792 0.0245849
v 0.443532 -0.0181411 0.024473
v 0.430989 -0.0231571 0.0245061
v 0.420126 -0.0174779 0.0245009
v 0.403074 -0.017639 0.024492
v 0.391554 -0.0177994 0.0245011
v 0.430379 -0.017391 0.0245042
v 0.448032 -0.00536371 0.0245027
v 0.403458 0.0181472 0.0244991
v 0.369198 0.00699065 0.0245
v 0.3916 0.0176246 0.0244997
v 0.42063 0.01749 0.0245061
v 0.431327 0.0180078 0.0245024
v 0.442183 0.0208206 0.0245074
v 0.371365 0.034787 0.0245022
v 0.419662 0.0231767 0.0244999
v 0.430073 0.0236126 0.0245215
v 0.402331 0.0235934 0.0245069
v 0.392433 0.0235466 0.024507
v 0.416557 0.0349144 0.0245189
v 0.428713 0.0319358 0.0245149
v 0.371353 -0.0349464 0.0200065
v 0.369181 -0.0139373 0.0199767
v 0.3804 -0.0348 0.02
v 0.3804 0.0348 0.02
v 0.369277 0.0160353 0.0199777
v 0.371393 0.0349698 0.0199717
v 0.3806 -0.035 0.0202
v 0.405349 -0.0348733 0.015016
v 0.380384 -0.0349947 0.0150631
v 0.448388 -0.00492483 0.0240296
v 0.447675 -0.00841311 0.0123401
v 0.447929 0.00777423 0.0120698
v 0.447329 0.00859199 0.0243
v 0.371361 0.0349929 0.0243234
v 0.3806 0.035 0.0202
v 0.404525 0.0349964 0.0150139
v 0.380404 0.0350078 0.0150306
v 0.443092 -0.00780286 0.0121279
v 0.443211 0.00830807 0.0123529
v 0.387214 -0.0277715 0.0150043
v 0.40377 -0.0280507 0.0149908
v 0.382078 -0.0210092 0.0150429
v 0.381318 -0.00375576 0.0150091
v 0.384942 -0.0138308 0.0149613
v 0.382173 0.0214352 0.0150833
v 0.384257 0.0139632 0.0149046
v 0.387619 0.0278706 0.0150106
v 0.369056 0.0116439 0.024319
v 0.403326 -0.0182094 0.021997
v 0.392922 -0.0173558 0.0220254
v 0.401744 -0.023599 0.0220072
v 0.391728 -0.0230024 0.0220155
v 0.431235 -0.0180124 0.0220181
v 0.421046 -0.0173948 0.0220292
v 0.42975 -0.0236212 0.0220199
v 0.419429 -0.0229537 0.0220497
v 0.431026 0.0229912 0.0220064
v 0.421051 0.0236241 0.0220199
v 0.429841 0.0173483 0.0220382
v 0.419698 0.0180063 0.0220002
v 0.402356 0.0233863 0.0220336
v 0.391835 0.0234018 0.0219984
v 0.39279 0.0174403 0.022022
v 0.402735 0.0176646 0.0220368
v 0.405338 0.0287721 0.0149091
v 0.408405 0.0350283 -0.0200943
v 0.40983 0.0306825 -0.0200596
v 0.423885 0.0336744 -0.020099
v 0.40562 0.0245298 -0.0200418
v 0.433845 0.0165388 -0.0200251
v 0.438435 0.0250329 -0.0200999
v 0.447395 0.009878 -0.020026
v 0.443132 0.0092629 -0.0200632
v 0.431075 0.00282316 -0.0200226
v 0.443293 -0.0060047 -0.0200984
v 0.427754 -0.0115601 -0.0200368
v 0.431441 -0.015013 -0.0200199
v 0.442528 -0.0094776 -0.0200935
v 0.439907 -0.0234544 -0.0200564
v 0.447433 -0.00937541 -0.0199735
v 0.429277 -0.0238345 -0.0200687
v 0.405266 -0.0244556 -0.0200469
v 0.427765 -0.0320806 -0.020081
v 0.409425 -0.0296147 -0.0200686
v 0.40872 -0.0349614 -0.0200192
v 0.415863 -0.0350212 -0.0201557
v 0.38838 0.0242448 -0.0200369
v 0.385464 0.0202244 -0.0199936
v 0.388643 0.0140752 -0.0199984
v 0.384707 0.00316055 -0.0199962
v 0.385143 -0.00400915 -0.02
v 0.388435 -0.0132065 -0.0200009
v 0.38569 -0.0198952 -0.0199999
v 0.388259 -0.0241488 -0.0200283
v 0.419918 0.0233409 -0.0245011
v 0.371428 0.0349532 -0.0245278
v 0.417657 0.0349191 -0.0245246
v 0.402569 0.0233599 -0.024501
v 0.392514 0.0236517 -0.0245035
v 0.369485 0.018427 -0.0245075
v 0.432359 0.0298792 -0.0245849
v 0.443532 0.0181411 -0.024473
v 0.430989 0.0231571 -0.0245061
v 0.420126 0.0174779 -0.0245009
v 0.403074 0.017639 -0.024492
v 0.391554 0.0177994 -0.0245011
v 0.430379 0.017391 -0.0245042
v 0.448032 0.00536371 -0.0245027
v 0.403458 -0.0181472 -0.0244991
v 0.369198 -0.00699065 -0.0245
v 0.3916 -0.0176246 -0.0244997
v 0.42063 -0.01749 -0.0245061
v 0.431327 -0.0180078 -0.0245024
v 0.442183 -0.0208206 -0.0245074
v 0.371365 -0.034787 -0.0245022
v 0.419662 -0.0231767 -0.0244999
v 0.430073 -0.0236126 -0.0245215
v 0.402331 -0.0235934 -0.0245069
v 0.392433 -0.0235466 -0.024507
v 0.416557 -0.0349144 -0.0245189
v 0.428713 -0.0319358 -0.0245149
v 0.371353 0.0349464 -0.0200065
v 0.369181 0.0139373 -0.0199767
v 0.3804 0.0348 -0.02
v 0.3804 -0.0348 -0.02
v 0.369277 -0.0160353 -0.0199777
v 0.371393 -0.0349698 -0.0199717
v 0.3806 0.035 -0.0202
v 0.405349 0.0348733 -0.015016
v 0.380384 0.0349947 -0.0150631
v 0.448388 0.00492483 -0.0240296
v 0.447675 0.00841311 -0.0123401
v 0.447929 -0.00777423 -0.0120698
v 0.447329 -0.00859199 -0.0243
v 0.371361 -0.0349929 -0.0243234
v 0.3806 -0.035 -0.0202
v 0.404525 -0.0349964 -0.0150139
v 0.380404 -0.0350078 -0.0150306
v 0.443092 0.00780286 -0.0121279
v 0.443211 -0.00830807 -0.0123529
v 0.387214 0.0277715 -0.0150043
v 0.40377 0.0280507 -0.0149908
v 0.382078 0.0210092 -0.0150429
v 0.381318 0.00375576 -0.0150091
v 0.384942 0.0138308 -0.0149613
v 0.382173 -0.0214352 -0.0150833
v 0.384257 -0.0139632 -0.0149046
v 0.387619 -0.0278706 -0.0150106
v 0.369056 -0.0116439 -0.024319
v 0.403326 0.0182094 -0.021997
v 0.392922 0.0173558 -0.0220254
v 0.401744 0.023599 -0.0220072
v 0.391728 0.0230024 -0.0220155
v 0.431235 0.0180124 -0.0220181
v 0.421046 0.0173948 -0.0220292
v 0.42975 0.0236212 -0.0220199
v 0.419429 0.0229537 -0.0220497
v 0.431026 -0.0229912 -0.0220064
v 0.421051 -0.0236241 -0.0220199
v 0.429841 -0.0173483 -0.0220382
v 0.419698 -0.0180063 -0.0220002
v 0.402356 -0.0233863 -0.0220336
v 0.391835 -0.0234018 -0.0219984
v 0.39279 -0.0174403 -0.022022
v 0.402735 -0.0176646 -0.0220368
v 0.405338 -0.0287721 -0.0149091
v 0.344406 0.00948542 0.0154929
v 0.344416 0.0260087 0.0218344
v 0.344402 0.0303214 0.0149227
v 0.344359 0.0124981 0.0278303
v 0.344379 0.0166503 0.029876
v 0.344401 -0.0304187 0.0150143
v 0.344396 -0.0218642 0.0263886
v 0.344364 -0.00943082 0.0159485
v 0.344455 -0.0136636 0.029423
v 0.3804 0.0349463 -0.0194837
v 0.371426 0.0349111 -0.0199783
v 0.380399 0.034862 -0.0149211
v 0.380392 0.0349364 0.0149435
v 0.3709 0.035 0.015
v 0.371411 0.0349585 0.0200261
v 0.371007 0.0348026 -0.0244073
v 0.368207 0.0350968 -0.023643
v 0.3709 0.035 -0.015
v 0.368401 0.0350012 0.0241455
v 0.371359 0.0349853 0.0238478
v 0.368402 -0.0350051 -0.0241306
v 0.370567 -0.03398 -0.0245181
v 0.370891 -0.03468 -0.0240882
v 0.367373 -0.0351342 -0.024506
v 0.366872 0.0343692 -0.0244795
v 0.380394 -0.0349499 -0.014973
v 0.3709 -0.035 -0.015
v 0.371362 -0.035 -0.0195
v 0.3804 -0.0349462 0.0194838
v 0.371409 -0.0349212 0.0199642
v 0.380399 -0.0348654 0.0149244
v 0.371006 -0.0347937 0.0244215
v 0.368184 -0.0350977 0.023768
v 0.371219 -0.0349193 0.0145641
v 0.353444 -0.017986 -0.0320227
v 0.344264 -0.0100904 -0.026707
v 0.356467 -0.0244158 -0.0261233
v 0.344588 -0.00598949 -0.0335354
v 0.352214 -0.0113867 -0.035014
v 0.34391 0.00098768 -0.035098
v 0.352358 0.0108512 -0.0350369
v 0.344424 0.0101567 -0.0256385
v 0.353485 0.0192876 -0.0303773
v 0.356741 0.0245161 -0.0261925
v 0.344361 0.00851935 -0.0306002
v 0.35331 0.016013 -0.0334397
v 0.3444 0.00539148 -0.0334811
v 0.367536 0.0365195 0.0223009
v 0.367379 0.0396104 -0.0239159
v 0.367327 0.0396218 0.023833
v 0.367384 0.0351254 0.024507
v 0.344386 -0.00824571 -0.0191369
v 0.34441 0.00405963 -0.0156972
v 0.344412 0.00830438 -0.0192272
v 0.344412 -0.00255987 -0.0149565
v 0.337994 -0.0102215 -0.0248688
v 0.345611 -0.00967213 -0.022621
v 0.337447 -0.00817306 -0.018654
v 0.3379 0.00950546 -0.0217368
v 0.34573 0.00940101 -0.0224481
v 0.337919 0.0100004 -0.0267825
v 0.337484 0.00635625 -0.0332955
v 0.33783 0.0067693 -0.0174736
v 0.337662 0.00196123 -0.0150899
v 0.337469 0.00020246 -0.0356374
v 0.337731 -0.00282804 -0.0152346
v 0.337409 -0.00521949 -0.03393
v 0.3379 -0.00883871 -0.0297833
v 0.337591 0.00031345 -0.0138682
v 0.343469 -0.00300098 -0.0144901
v 0.343558 0.00322961 -0.0144269
v 0.343059 0.0104427 -0.0209481
v 0.342923 0.0119952 -0.0294883
v 0.337443 0.0111285 -0.0275841
v 0.337415 0.0101235 -0.0201411
v 0.342665 0.0074078 -0.0168116
v 0.337455 0.00623052 -0.0158236
v 0.337596 -0.00578144 -0.0154267
v 0.343086 -0.00725849 -0.0165865
v 0.337524 -0.0103401 -0.0206642
v 0.342896 -0.0105815 -0.0214399
v 0.337349 -0.0111816 -0.0280758
v 0.341829 -0.0111258 -0.0274075
v 0.369974 0.0231429 -0.02
v 0.3799 0.0345 -0.02
v 0.3799 -0.0345 -0.02
v 0.368776 -0.00229773 -0.0200022
v 0.371013 -0.0342364 -0.0199974
v 0.380399 -0.0348794 -0.0195348
v 0.3714 0.0345 -0.0145
v 0.371302 0.0304838 -0.0140803
v 0.3799 0.0345 -0.0145
v 0.3709 0.028 -0.0145
v 0.3799 -0.0345 -0.0145
v 0.37149 -0.0288895 -0.0145001
v 0.3714 -0.0345 -0.0145
v 0.3449 0.028 -0.0145
v 0.344896 0.00759783 -0.0145001
v 0.344857 -0.00680285 -0.014501
v 0.344912 -0.02926 -0.0144515
v 0.371123 -0.0329887 -0.0105652
v 0.371194 -0.0329843 0.0105569
v 0.371308 -0.030458 0.0140902
v 0.371116 0.0329959 -0.0105271
v 0.3714 0.0345 0.0145
v 0.371204 0.0329723 0.0105915
v 0.371493 0.0288999 0.0144998
v 0.369774 0.0231615 -0.0245
v 0.361989 0.0103211 -0.0245046
v 0.368603 0.00253449 -0.0244995
v 0.36184 -0.010416 -0.0245037
v 0.359946 0.0382782 -0.0248493
v 0.361766 -0.0288758 -0.0245156
v 0.359938 -0.0388521 -0.0248582
v 0.367353 -0.0396735 -0.0239924
v 0.346559 0.0105077 -0.0244877
v 0.346058 -0.0104875 -0.0244964
v 0.3709 -0.0315355 -0.0130355
v 0.344782 -0.0314255 -0.0132014
v 0.344681 -0.0329922 -0.0104831
v 0.344778 -0.0329791 0.0104905
v 0.344378 0.0329946 -0.0107834
v 0.344834 0.031146 -0.0135731
v 0.344317 0.0330075 0.0108556
v 0.357356 0.0386817 -0.018702
v 0.357514 0.040004 0.00035019
v 0.360585 0.0398849 -0.0235159
v 0.352551 0.0398426 -0.00366682
v 0.358426 -0.0400204 -0.00748893
v 0.357171 -0.0376077 -0.0223374
v 0.360549 -0.0399059 -0.0228087
v 0.355833 0.0340089 -0.0272952
v 0.352469 -0.0395783 -0.0061275
v 0.356511 -0.0347665 -0.0271794
v 0.352385 0.0365122 -0.0169335
v 0.35241 -0.0359073 -0.0179175
v 0.352418 -0.0296143 -0.0271995
v 0.353801 -0.0276156 -0.0312778
v 0.352418 0.02842 -0.0283796
v 0.353906 0.0276 -0.0309023
v 0.352391 -0.0196178 -0.0349845
v 0.353259 -0.0160358 -0.0371258
v 0.352388 0.0165899 -0.0367822
v 0.353311 0.0137848 -0.0381068
v 0.352576 -0.00255215 -0.0408302
v 0.367531 -0.0365282 -0.0222863
v 0.367401 -0.0397766 0.02269
v 0.367371 -0.0372311 0.0245255
v 0.367184 0.039986 0.0220117
v 0.367186 0.0399669 -0.0230854
v 0.359506 0.0398981 0.0123418
v 0.360646 0.0399443 0.0226187
v 0.367181 -0.039977 0.0231047
v 0.367181 -0.0399883 -0.0221652
v 0.360667 -0.0399171 0.0234899
v 0.352391 0.0379247 -0.00011062
v 0.352641 0.0391953 0.00752231
v 0.352378 0.0373296 -0.00669929
v 0.352387 0.0373639 0.00649289
v 0.352362 0.0356298 -0.0129833
v 0.352365 0.0356991 0.0128057
v 0.352407 0.0359094 0.0179336
v 0.352341 0.0327994 -0.0190308
v 0.352354 0.0328998 0.0188578
v 0.352391 0.0289856 -0.0244585
v 0.35243 0.0295833 0.0271652
v 0.352373 0.0268821 0.0269908
v 0.352381 0.0243064 -0.0291091
v 0.352363 0.018927 -0.0328597
v 0.352351 0.0177465 0.0360951
v 0.352345 0.0190035 0.0328135
v 0.352343 0.0128347 -0.0356858
v 0.352366 0.0129843 0.0356296
v 0.352373 0.00640825 -0.0373826
v 0.352349 0.00664775 0.0373361
v 0.352395 0.0024697 0.0401604
v 0.352371 -0.00010621 -0.037926
v 0.352382 8.588e-05 0.0379259
v 0.352382 -0.0119967 0.0385124
v 0.352352 -0.00642262 0.0373787
v 0.352372 -0.00662186 -0.0373411
v 0.352319 -0.0155889 -0.0347207
v 0.352303 -0.016583 0.0342495
v 0.352439 -0.0274477 0.0297153
v 0.35237 -0.0244924 -0.0289542
v 0.352362 -0.0243496 0.0290706
v 0.352372 -0.0291156 -0.024302
v 0.352377 -0.0289825 0.0244613
v 0.352338 -0.0327501 0.0191277
v 0.352503 -0.0361814 0.0173073
v 0.352345 -0.0368092 0.00978523
v 0.352302 -0.0345012 -0.0161067
v 0.352385 -0.0373678 -0.00647302
v 0.352498 -0.0395562 0.00609377
v 0.35239 -0.0379258 0.00010746
v 0.344403 0.0122554 -0.0210508
v 0.344376 0.00776449 -0.0153092
v 0.3444 0.0304027 -0.0150155
v 0.344414 0.0180682 -0.0297235
v 0.344388 0.0126503 -0.0277435
v 0.337326 0.014029 -0.0314656
v 0.337425 -0.01405 -0.0313722
v 0.344364 -0.0123257 -0.0274724
v 0.344401 -0.0270122 -0.0214559
v 0.344412 -0.0095881 -0.0155484
v 0.344401 -0.0303218 -0.0149219
v 0.344343 -0.0172161 -0.0300089
v 0.342979 0.0312498 0.0175522
v 0.327408 0.0313079 0.0187588
v 0.3274 0.0350883 0.00968374
v 0.3274 0.0350883 -0.00968374
v 0.3274 0.0327953 -0.0157934
v 0.342489 0.0321152 -0.0154312
v 0.327257 -0.0331648 -0.0152751
v 0.3274 -0.035815 -0.00649947
v 0.343614 -0.0335901 -0.0118003
v 0.343505 -0.0339642 0.0106789
v 0.343188 -0.0356016 0.0011914
v 0.327489 -0.0364078 0.0031532
v 0.342356 0.035062 0.00640679
v 0.327386 0.0365904 -0.00026269
v 0.342504 0.0346017 -0.00857667
v 0.327409 0.0271193 -0.0245206
v 0.343063 0.0272235 -0.0232208
v 0.34325 0.0247919 0.0255576
v 0.3274 0.0200527 -0.0303785
v 0.3274 0.0200527 0.0303785
v 0.3274 0.0251547 0.0263097
v 0.335979 0.0176441 -0.0314108
v 0.342747 0.0179268 -0.0309787
v 0.336837 0.0163539 0.0317135
v 0.34277 0.0179252 0.0308625
v 0.342643 -0.0174862 -0.0309815
v 0.327394 -0.0201391 -0.0304851
v 0.342625 -0.0244023 -0.0259978
v 0.3274 -0.022695 0.0284587
v 0.336448 -0.0169526 0.0317058
v 0.342708 -0.0225602 0.0275695
v 0.343008 -0.0171984 0.0309844
v 0.343227 -0.0295188 0.0200799
v 0.327339 -0.0294018 0.0216962
v 0.3274 -0.0274118 -0.023949
v 0.342726 -0.0302992 -0.0187328
v 0.3274 -0.0340789 0.01279
v 0.335888 -0.0176115 -0.0313848
v 0.335573 -0.00791712 0.0353891
v 0.327375 -0.00804807 0.0356298
v 0.3274 0.00163308 0.0363634
v 0.3274 0.00163308 -0.0363634
v 0.327487 -0.00856278 -0.0355436
v 0.335786 -0.00846822 -0.0351317
v 0.335747 0.00791869 -0.0351458
v 0.32738 0.0112198 -0.0347355
v 0.327424 0.0111337 0.0348625
v 0.335676 0.00993374 0.034692
v 0.3274 -0.0172488 0.0320537
v 0.327403 0.0360706 -0.00983215
v 0.327753 0.0374341 0.00575756
v 0.3279 0.035597 0.0127398
v 0.327749 0.0293405 -0.0239865
v 0.327702 0.0325444 0.0194174
v 0.327905 0.0242156 -0.0290522
v 0.327739 0.019938 0.0322111
v 0.327764 0.0183921 -0.0331045
v 0.327908 0.0123244 0.0358147
v 0.327746 0.00625258 -0.0372504
v 0.327799 -0.00035603 0.0378198
v 0.327677 -0.00139634 -0.0378491
v 0.327819 -0.0120993 0.0359008
v 0.327728 -0.0184812 -0.0330845
v 0.327889 -0.0192253 0.0325984
v 0.327899 -0.024341 -0.0289515
v 0.327774 -0.0247648 0.0286383
v 0.327741 -0.0296865 -0.0235264
v 0.327469 -0.0332047 0.0181896
v 0.327756 -0.0370823 -0.0076891
v 0.327743 -0.0378637 0.00127802
v 0.32815 0.0379 0
v 0.32815 0.0373242 -0.00658127
v 0.32815 0.0356144 -0.0129626
v 0.32815 0.0328224 -0.01895
v 0.328257 0.0275049 0.0262199
v 0.32815 0.0129626 -0.0356144
v 0.32815 0.00658127 0.0373242
v 0.32815 -0.00658127 0.0373242
v 0.328174 -0.0099319 -0.036589
v 0.32815 -0.0290331 0.0243616
v 0.328273 -0.0347957 -0.015303
v 0.328297 -0.0364437 0.010759
v 0.359248 0.00854626 -0.0215295
v 0.359336 0.00625663 -0.0200305
v 0.345427 0.00608296 -0.0200357
v 0.359399 -0.00666697 -0.0200971
v 0.345426 -0.00608203 -0.0200152
v 0.359729 -0.00929139 -0.0225495
v 0.344421 -0.00822961 0.0194291
v 0.344424 0.00851613 0.0193508
v 0.344392 0.00283512 0.014929
v 0.344379 -0.0052758 0.0162223
v 0.337561 -0.0102083 0.0245756
v 0.344465 -0.0101763 0.0257187
v 0.345787 -0.00955725 0.0226146
v 0.337446 0.00995398 0.022935
v 0.344486 0.0101794 0.0258768
v 0.337709 -0.00881603 0.0200412
v 0.344385 0.00852553 0.0305841
v 0.33769 0.00922418 0.0293243
v 0.337527 0.00788713 0.0187378
v 0.337487 0.00409366 0.0157083
v 0.337485 0.00545386 0.0338138
v 0.344463 0.00436814 0.0341598
v 0.337387 0.00084892 0.035605
v 0.344358 -0.00029155 0.0350672
v 0.337772 -0.00073979 0.0149313
v 0.344412 -0.00500362 0.0339672
v 0.337368 -0.00506642 0.0341659
v 0.33761 -0.00551306 0.0163332
v 0.344398 -0.00881786 0.0300409
v 0.33749 -0.0087942 0.0298799
v 0.337608 -0.00027023 0.0138509
v 0.3435 0.0030232 0.0144959
v 0.343583 -0.00313771 0.014411
v 0.343234 0.0106018 0.02133
v 0.337447 0.0114535 0.0289146
v 0.341799 0.0111263 0.0274354
v 0.337605 0.0102114 0.0204641
v 0.343095 0.0072519 0.0165603
v 0.337639 0.00599822 0.0155531
v 0.337538 -0.00678635 0.0160446
v 0.34291 -0.00931558 0.0185619
v 0.337608 -0.0103242 0.021009
v 0.342596 -0.0112754 0.027199
v 0.337517 -0.0111726 0.0275026
v 0.369974 0.0231429 0.02
v 0.379933 0.0348277 0.0200028
v 0.368774 0.0022289 0.0200022
v 0.3799 -0.0345 0.02
v 0.369974 -0.0231429 0.02
v 0.3804 0.0345 0.0195
v 0.3799 0.0345 0.0145
v 0.3799 -0.0345 0.0145
v 0.3709 -0.028 0.0145
v 0.344857 0.00680286 0.014501
v 0.344912 0.0292605 0.0144514
v 0.3449 -0.028 0.0145
v 0.344896 -0.00759783 0.0145001
v 0.354919 -0.021608 0.0290133
v 0.35882 -0.0268933 0.0254223
v 0.353228 -0.0158703 0.0335331
v 0.351936 -0.00961733 0.0350473
v 0.352335 0.0109393 0.0350468
v 0.35362 0.0196701 0.0299908
v 0.356703 0.024433 0.0261403
v 0.353293 0.0163659 0.0331916
v 0.369774 -0.0231615 0.0245
v 0.361921 0.0103208 0.0245054
v 0.370543 0.0339564 0.0245212
v 0.368601 -0.00227644 0.0245
v 0.361932 -0.0103308 0.0245022
v 0.360001 0.0389582 0.0248528
v 0.361473 0.028843 0.0245177
v 0.362765 -0.0295373 0.0244917
v 0.360092 -0.0384622 0.0248186
v 0.346147 0.0103809 0.0244985
v 0.3466 -0.0105651 0.0244812
v 0.344835 -0.031146 0.013573
v 0.3709 0.0315355 0.0130355
v 0.344784 0.0314256 0.0132011
v 0.356566 0.0377095 0.0209152
v 0.358349 -0.0395371 0.0145867
v 0.356617 0.0351529 0.0266691
v 0.35559 -0.0338375 0.0270971
v 0.354453 0.0305698 0.0293626
v 0.353496 -0.0248449 0.0328445
v 0.353363 -0.010985 0.0389122
v 0.353423 0.00190894 0.0399785
v 0.353392 0.0142107 0.0380701
v 0.337403 -0.0131412 0.0308467
v 0.345427 0.00908592 0.0218841
v 0.359268 0.00867785 0.0217559
v 0.359391 0.0062244 0.0200367
v 0.345411 0.00571499 0.0200029
v 0.345437 -0.00604508 0.0200317
v 0.359318 -0.006279 0.0200385
v 0.359262 -0.00855809 0.0215515
v 0.353465 0.0240181 0.0329346
v 0.353392 0.0106568 0.0361459
v 0.353368 -0.0115979 0.0357944
v 0.353403 0.0114044 -0.0361059
v 0.353387 -0.0122731 -0.0358743
v 0.353399 -0.00293726 -0.0399514
v 0.359915 0.0275681 -0.024942
v 0.356182 0.0336987 -0.0275399
v 0.355608 0.023915 -0.0280419
v 0.35671 -0.0258094 -0.0268551
v 0.355331 -0.0320792 0.0282471
v 0.355687 0.0242784 0.0276587
v 0.342752 -0.0132735 0.030373
v 0.342665 0.0134007 0.0304756
v 0.342573 -0.0133841 -0.0305389
v 0.368789 0.00100333 -0.0243194
v 0.369974 0.0231429 0.0243
v 0.36879 -0.00099341 0.0243197
v 0.344421 -0.0337584 0.00170056
v 0.342422 -0.0350882 -0.0063268
v 0.343212 0.0355669 -0.00098367
v 0.344406 0.0337166 -0.00270872
v 0.42487 -0.0167894 0.0300027
v 0.416755 0.0218468 0.0300045
v 0.391326 0.00362174 0.0300081
v 0.423669 0.019533 0.0300105
v 0.393121 -0.0091001 0.0299908
v 0.429486 -0.0154224 0.0299958
v 0.434858 -0.00553237 0.0300047
v 0.434691 0.00686583 0.0299407
v 0.429159 0.0154461 0.0298751
v 0.401074 -0.0182939 0.0300185
v 0.420791 -0.0212286 0.0298927
v 0.417173 0.0123014 0.0130485
v 0.425655 0.002507 0.0130033
v 0.405217 0.00971061 0.013011
v 0.406242 -0.010416 0.0130057
v 0.423702 0.00753429 0.0131212
v 0.414675 -0.0128977 0.0130516
v 0.422239 -0.00898989 0.0130445
v 0.425628 -0.00371259 0.0131531
v 0.402358 0.00697135 0.0199222
v 0.407446 0.0122052 0.0221416
v 0.410655 0.012296 0.0132077
v 0.400883 0.0024455 0.012997
v 0.416613 0.0131695 0.0219259
v 0.400568 0.00052068 0.0198551
v 0.402018 -0.0058159 0.0131486
v 0.402423 -0.00650798 0.0199566
v 0.423503 0.00833381 0.020016
v 0.407428 -0.0110801 0.0200012
v 0.426503 -3.702e-05 0.0199379
v 0.415796 -0.0126214 0.0200033
v 0.422213 -0.00898679 0.0199901
v 0.400663 -0.00999255 0.0226191
v 0.409946 -0.0146462 0.0212681
v 0.420356 -0.0130682 0.0214692
v 0.425667 -0.00689909 0.0201305
v 0.398624 0.00362646 0.0224799
v 0.420699 0.0141077 0.0226782
v 0.429052 -0.00039633 0.0227112
v 0.409737 0.0158869 0.0225264
v 0.401651 0.0110165 0.0225655
v 0.427044 0.00874395 0.0226095
v 0.426286 -0.0101599 0.0226142
v 0.406022 0.0143425 0.0250018
v 0.398862 0.0075192 0.0249997
v 0.414926 0.016243 0.0250091
v 0.397282 -0.00225896 0.0225519
v 0.397781 -0.00539537 0.0249773
v 0.425577 0.0110486 0.0250058
v 0.406309 -0.0145754 0.0249979
v 0.429614 0.00086885 0.0249979
v 0.417497 -0.0159238 0.0250219
v 0.427013 -0.00937756 0.0249769
v 0.409515 0.0217552 0.0250026
v 0.396577 0.0143114 0.0250117
v 0.391735 0.00477236 0.0250098
v 0.421258 0.0208489 0.0250158
v 0.392065 -0.00552919 0.024989
v 0.431479 0.0128817 0.0250025
v 0.396747 -0.0148567 0.0250341
v 0.43532 0.00227421 0.0250042
v 0.407471 -0.0214031 0.0250191
v 0.434331 -0.00727422 0.025071
v 0.420182 -0.0213992 0.0250054
v 0.425143 -0.0162608 0.0249803
v 0.395565 0.0132984 0.0293489
v 0.401881 0.0187853 0.0300049
v 0.408802 0.0216307 0.0294555
v 0.402393 0.0191613 0.0255215
v 0.408403 -0.0216465 0.0294445
v 0.429174 -0.0155554 0.0255025
f 1 2 3
f 4 5 6
f 5 7 6
f 8 2 1
f 9 8 1
f 10 8 9
f 11 7 5
f 10 12 8
f 13 12 10
f 14 7 11
f 15 14 11
f 16 12 13
f 16 17 12
f 18 14 15
f 19 14 18
f 17 19 18
f 16 19 17
f 20 21 22
f 21 23 22
f 24 23 21
f 25 22 23
f 26 3 27
f 26 28 3
f 26 29 28
f 30 29 26
f 30 10 29
f 31 10 30
f 32 19 33
f 34 35 27
f 35 36 26
f 36 30 26
f 36 31 30
f 37 31 36
f 33 31 37
f 32 33 38
f 39 35 34
f 40 39 34
f 39 41 35
f 41 36 35
f 42 40 34
f 41 37 36
f 42 43 40
f 44 37 41
f 42 38 43
f 38 44 43
f 38 37 44
f 28 1 3
f 29 1 28
f 29 9 1
f 10 9 29
f 31 13 10
f 33 13 31
f 33 16 13
f 19 16 33
f 4 45 46
f 2 45 4
f 2 47 45
f 8 47 2
f 5 4 46
f 48 5 46
f 11 5 48
f 49 11 48
f 8 50 47
f 12 50 8
f 15 11 49
f 51 15 49
f 12 52 50
f 17 52 12
f 18 15 51
f 53 18 51
f 17 53 52
f 17 18 53
f 54 55 56
f 54 57 55
f 58 57 54
f 55 59 56
f 55 60 59
f 45 56 46
f 54 56 45
f 47 54 45
f 59 48 46
f 56 59 46
f 59 49 48
f 58 54 47
f 60 49 59
f 50 58 47
f 57 51 60
f 51 49 60
f 50 52 58
f 52 57 58
f 53 51 57
f 52 53 57
f 40 41 39
f 41 40 44
f 6 22 3
f 22 27 3
f 22 25 27
f 6 20 22
f 32 23 19
f 23 14 19
f 61 23 32
f 24 14 23
f 25 34 27
f 61 42 25
f 42 34 25
f 61 32 42
f 6 7 20
f 7 21 20
f 7 14 21
f 14 24 21
f 62 63 64
f 64 65 62
f 63 65 66
f 62 65 63
f 64 66 67
f 65 64 67
f 68 69 70
f 71 68 70
f 72 73 71
f 74 75 68
f 73 74 68
f 76 77 70
f 69 76 70
f 78 76 69
f 68 78 69
f 77 71 70
f 79 71 77
f 79 72 71
f 80 72 79
f 81 78 68
f 75 81 68
f 80 73 72
f 82 73 80
f 83 81 75
f 74 83 75
f 82 74 73
f 83 74 82
f 76 78 77
f 78 79 77
f 78 82 79
f 81 83 78
f 83 82 78
f 4 6 3
f 2 4 3
f 25 23 61
f 35 26 27
f 33 37 38
f 57 60 55
f 40 43 44
f 32 38 42
f 63 66 64
f 65 67 66
f 73 68 71
f 82 80 79
f 84 85 86
f 85 87 86
f 88 84 86
f 89 90 91
f 88 92 93
f 94 95 89
f 92 94 93
f 87 96 97
f 98 96 87
f 98 99 96
f 91 99 98
f 91 100 99
f 90 100 91
f 90 101 100
f 89 101 90
f 89 102 101
f 95 102 89
f 95 103 102
f 94 103 95
f 94 104 103
f 105 106 107
f 106 108 109
f 110 107 109
f 111 110 109
f 108 112 109
f 113 114 107
f 114 105 107
f 115 116 117
f 118 116 115
f 118 119 116
f 120 119 118
f 97 86 87
f 115 86 97
f 121 115 122
f 117 86 115
f 92 104 94
f 92 120 104
f 120 123 104
f 120 124 123
f 92 119 120
f 115 121 118
f 125 91 98
f 125 94 91
f 84 126 125
f 126 94 125
f 122 127 121
f 127 128 121
f 128 129 121
f 130 129 128
f 131 129 130
f 123 129 131
f 132 109 97
f 132 111 109
f 133 111 132
f 133 110 111
f 134 110 133
f 134 107 110
f 134 113 107
f 135 113 134
f 135 114 113
f 136 114 135
f 136 105 114
f 132 97 96
f 99 132 96
f 133 132 99
f 100 133 99
f 134 133 100
f 101 134 100
f 102 134 101
f 102 135 134
f 103 135 102
f 103 136 135
f 103 104 136
f 123 105 136
f 104 123 136
f 109 122 97
f 117 116 86
f 116 88 86
f 116 119 88
f 119 92 88
f 109 127 122
f 112 127 109
f 112 128 127
f 108 128 112
f 106 130 108
f 130 128 108
f 105 131 106
f 131 130 106
f 123 131 105
f 125 98 87
f 85 125 87
f 84 125 85
f 84 93 126
f 93 94 126
f 124 129 123
f 129 124 121
f 124 120 118
f 88 93 84
f 106 109 107
f 115 97 122
f 121 124 118
f 94 89 91
f 137 138 139
f 137 140 138
f 140 141 138
f 142 143 144
f 143 145 144
f 146 147 148
f 149 150 151
f 152 153 147
f 153 154 147
f 155 156 151
f 150 155 151
f 153 150 154
f 153 155 150
f 157 158 159
f 157 160 158
f 161 153 152
f 162 163 164
f 165 166 167
f 164 157 159
f 163 157 164
f 168 169 166
f 169 170 166
f 169 157 163
f 170 169 163
f 171 172 173
f 174 172 171
f 175 174 171
f 176 174 175
f 176 175 177
f 178 179 180
f 178 181 179
f 181 182 179
f 181 183 182
f 183 177 182
f 183 176 177
f 184 153 185
f 186 184 185
f 187 184 186
f 153 161 185
f 188 189 190
f 188 191 189
f 172 192 193
f 194 188 193
f 192 194 193
f 190 195 196
f 195 178 196
f 197 181 178
f 197 198 181
f 199 195 190
f 189 199 190
f 198 183 181
f 200 199 189
f 198 201 176
f 191 200 189
f 202 200 191
f 201 174 176
f 201 203 174
f 188 194 191
f 194 202 191
f 203 204 174
f 204 172 174
f 204 192 172
f 195 197 178
f 205 206 207
f 208 209 210
f 211 212 208
f 213 207 212
f 211 213 212
f 213 205 207
f 205 214 206
f 214 215 206
f 214 216 215
f 216 217 215
f 218 219 216
f 220 147 221
f 222 223 221
f 223 220 221
f 224 223 222
f 148 162 225
f 226 227 228
f 227 229 228
f 229 230 228
f 231 232 230
f 229 206 230
f 206 231 230
f 207 206 229
f 233 234 229
f 234 207 229
f 235 236 231
f 206 235 231
f 184 155 153
f 187 155 184
f 237 232 231
f 170 238 239
f 238 232 237
f 170 232 238
f 240 227 226
f 241 242 226
f 242 240 226
f 243 242 241
f 244 161 152
f 245 161 244
f 246 245 244
f 160 247 158
f 247 246 158
f 247 245 246
f 161 248 185
f 249 247 160
f 250 249 160
f 251 250 160
f 245 252 161
f 253 247 249
f 236 254 231
f 236 255 254
f 255 256 254
f 256 257 237
f 258 259 240
f 259 227 240
f 233 229 227
f 259 233 227
f 260 258 240
f 261 262 263
f 261 264 262
f 265 266 267
f 266 250 267
f 268 261 263
f 269 266 265
f 266 270 250
f 271 264 261
f 268 271 261
f 272 273 270
f 266 272 270
f 269 272 266
f 273 274 270
f 275 271 268
f 276 275 268
f 273 277 274
f 277 278 274
f 279 280 281
f 279 275 276
f 277 281 278
f 279 276 280
f 282 251 160
f 169 283 282
f 283 251 282
f 284 283 169
f 262 285 286
f 263 262 286
f 262 287 285
f 287 288 285
f 289 265 290
f 265 267 290
f 291 265 289
f 292 293 264
f 294 292 264
f 292 295 293
f 271 296 264
f 296 294 264
f 295 297 293
f 297 298 293
f 299 296 271
f 297 300 298
f 301 299 271
f 275 301 271
f 300 302 298
f 303 302 300
f 304 301 275
f 305 304 275
f 279 305 275
f 303 306 302
f 307 306 303
f 279 308 305
f 309 306 307
f 279 310 308
f 311 312 309
f 312 306 309
f 281 310 279
f 281 313 310
f 314 312 311
f 315 312 314
f 316 315 314
f 281 317 313
f 281 318 317
f 319 315 316
f 281 277 318
f 319 320 315
f 277 321 318
f 322 320 319
f 273 321 277
f 273 323 321
f 324 320 322
f 273 272 323
f 325 326 324
f 326 320 324
f 327 326 325
f 272 269 328
f 269 329 328
f 330 326 327
f 269 331 329
f 331 269 327
f 269 330 327
f 332 333 334
f 335 332 334
f 336 332 335
f 337 198 210
f 338 218 203
f 339 340 341
f 340 342 341
f 343 340 339
f 344 345 346
f 347 348 349
f 350 351 352
f 353 354 355
f 356 346 357
f 357 347 358
f 348 359 360
f 344 361 345
f 359 362 360
f 363 364 361
f 362 365 366
f 367 363 368
f 369 370 371
f 372 373 374
f 373 375 374
f 374 376 377
f 370 378 371
f 378 379 371
f 378 350 379
f 350 352 379
f 376 353 380
f 351 355 354
f 381 370 369
f 382 383 384
f 385 386 387
f 388 385 201
f 389 385 388
f 384 390 391
f 367 391 390
f 362 389 365
f 389 388 365
f 386 370 381
f 382 373 392
f 372 392 373
f 393 357 394
f 347 357 393
f 357 346 394
f 346 395 394
f 393 348 347
f 345 395 346
f 396 348 393
f 345 397 395
f 396 359 348
f 364 397 345
f 398 359 396
f 364 399 397
f 398 362 359
f 363 399 364
f 400 362 398
f 400 389 362
f 390 399 363
f 390 401 399
f 402 389 400
f 402 385 389
f 403 401 390
f 384 403 390
f 404 385 402
f 404 386 385
f 405 403 384
f 383 405 384
f 406 386 404
f 406 370 386
f 407 405 383
f 392 407 383
f 392 372 407
f 408 370 406
f 408 378 370
f 377 409 372
f 410 378 408
f 410 350 378
f 411 409 377
f 380 411 377
f 412 350 410
f 412 351 350
f 413 411 380
f 355 413 380
f 412 355 351
f 412 413 355
f 292 414 295
f 294 415 292
f 296 416 294
f 395 297 295
f 299 417 296
f 397 300 395
f 301 396 417
f 418 303 300
f 304 398 301
f 305 400 398
f 399 307 303
f 308 419 305
f 401 309 307
f 310 402 419
f 420 311 309
f 313 404 402
f 403 314 420
f 421 316 314
f 317 422 404
f 318 422 317
f 405 319 316
f 405 407 319
f 321 408 406
f 406 422 318
f 409 322 407
f 323 410 408
f 423 324 322
f 328 424 410
f 411 325 423
f 425 327 325
f 329 412 424
f 331 413 329
f 413 331 327
f 282 160 157
f 169 282 157
f 196 252 426
f 426 427 428
f 427 429 430
f 431 193 429
f 193 430 429
f 429 427 426
f 431 429 426
f 432 433 434
f 435 432 434
f 436 437 438
f 439 433 440
f 441 436 438
f 432 441 438
f 442 443 440
f 444 445 433
f 439 444 433
f 446 443 442
f 447 446 442
f 448 446 447
f 449 448 447
f 445 450 434
f 451 452 449
f 450 435 434
f 450 453 435
f 453 441 432
f 454 455 451
f 437 436 455
f 443 439 440
f 456 457 458
f 459 460 461
f 462 460 459
f 463 462 459
f 464 462 463
f 457 464 463
f 456 464 457
f 465 456 458
f 466 465 458
f 467 465 466
f 468 467 466
f 469 467 468
f 151 470 471
f 470 472 471
f 472 473 471
f 474 166 473
f 472 474 473
f 475 167 149
f 165 167 475
f 243 241 476
f 477 478 476
f 478 457 476
f 457 243 476
f 170 239 477
f 239 478 477
f 479 480 243
f 457 479 243
f 458 457 478
f 481 482 478
f 482 458 478
f 284 169 168
f 437 483 484
f 437 454 483
f 454 485 483
f 454 451 485
f 451 486 485
f 451 449 486
f 486 449 487
f 488 440 489
f 442 440 488
f 490 442 488
f 447 442 490
f 487 447 490
f 449 447 487
f 491 284 168
f 187 492 493
f 492 494 493
f 495 284 491
f 494 495 491
f 492 495 494
f 496 187 186
f 497 492 187
f 496 497 187
f 495 498 284
f 498 499 284
f 500 492 497
f 495 501 498
f 155 493 156
f 155 187 493
f 239 481 478
f 502 481 239
f 238 257 502
f 503 504 242
f 504 260 242
f 480 504 503
f 243 480 503
f 262 293 287
f 287 505 288
f 291 506 265
f 326 506 291
f 505 496 288
f 505 507 496
f 508 326 291
f 293 505 287
f 302 509 507
f 264 293 262
f 293 298 505
f 298 507 505
f 298 302 507
f 320 326 508
f 326 330 506
f 330 265 506
f 330 269 265
f 510 320 508
f 302 306 509
f 312 511 512
f 312 315 511
f 513 312 512
f 306 312 513
f 306 513 509
f 315 510 511
f 315 320 510
f 446 367 460
f 443 446 460
f 439 443 460
f 455 514 452
f 469 514 455
f 436 469 455
f 500 515 492
f 515 516 492
f 515 517 516
f 515 518 517
f 440 515 500
f 518 519 520
f 519 438 521
f 438 501 521
f 517 521 516
f 520 521 517
f 513 490 522
f 523 490 513
f 512 523 513
f 512 524 523
f 511 524 512
f 511 485 524
f 511 510 485
f 525 280 182
f 526 527 525
f 527 280 525
f 526 278 527
f 274 278 526
f 440 500 497
f 489 440 497
f 501 484 498
f 501 437 484
f 252 528 161
f 252 178 528
f 178 180 528
f 173 253 249
f 172 253 173
f 528 248 161
f 529 248 528
f 530 529 528
f 276 529 530
f 182 276 530
f 280 276 182
f 250 531 249
f 270 531 250
f 274 531 270
f 274 171 531
f 274 526 171
f 484 499 498
f 532 499 484
f 483 532 484
f 510 532 483
f 485 510 483
f 496 533 497
f 496 509 533
f 522 490 533
f 509 522 533
f 527 281 280
f 278 281 527
f 248 268 263
f 529 268 248
f 276 268 529
f 499 508 291
f 532 508 499
f 510 508 532
f 507 509 496
f 509 513 522
f 373 514 375
f 514 469 534
f 535 367 368
f 460 367 535
f 461 460 535
f 338 381 369
f 536 338 369
f 219 218 536
f 218 338 536
f 365 337 366
f 337 209 366
f 337 210 209
f 147 220 152
f 224 164 159
f 220 537 152
f 223 537 220
f 537 223 159
f 223 224 159
f 493 538 156
f 470 151 156
f 166 474 168
f 538 472 470
f 539 472 538
f 539 168 474
f 472 539 474
f 185 248 286
f 248 263 286
f 288 496 186
f 288 186 285
f 499 289 284
f 499 291 289
f 290 250 251
f 267 250 290
f 167 170 477
f 170 163 232
f 471 473 475
f 473 165 475
f 163 162 230
f 232 163 230
f 477 476 149
f 167 477 149
f 471 475 149
f 225 221 146
f 222 221 225
f 228 162 148
f 228 230 162
f 476 150 149
f 241 150 476
f 154 241 226
f 154 150 241
f 154 226 148
f 226 228 148
f 493 539 538
f 539 494 168
f 494 491 168
f 494 539 493
f 537 246 152
f 246 244 152
f 158 537 159
f 246 537 158
f 286 186 185
f 286 285 186
f 283 289 251
f 289 290 251
f 289 283 284
f 531 173 249
f 531 171 173
f 175 171 526
f 177 526 525
f 175 526 177
f 177 525 182
f 179 530 180
f 179 182 530
f 180 530 528
f 485 486 524
f 524 487 523
f 524 486 487
f 487 490 523
f 533 488 489
f 490 488 533
f 533 489 497
f 195 211 197
f 211 210 197
f 210 198 197
f 199 213 195
f 213 211 195
f 200 213 199
f 203 218 204
f 218 192 204
f 192 216 194
f 218 216 192
f 145 466 144
f 466 458 144
f 145 468 466
f 375 534 145
f 534 468 145
f 142 376 143
f 353 376 142
f 143 375 145
f 143 374 375
f 376 374 143
f 354 353 540
f 354 540 352
f 541 354 352
f 340 352 342
f 343 371 340
f 371 379 340
f 379 352 340
f 371 343 369
f 536 369 343
f 339 536 343
f 219 536 339
f 215 217 341
f 217 339 341
f 206 215 341
f 217 219 339
f 336 208 332
f 208 333 332
f 209 208 336
f 212 333 208
f 212 207 333
f 366 209 335
f 209 336 335
f 360 335 334
f 258 360 334
f 360 366 335
f 349 360 258
f 358 349 258
f 542 358 258
f 260 542 543
f 542 258 543
f 260 356 542
f 344 356 260
f 138 344 139
f 344 260 139
f 361 344 138
f 141 361 138
f 141 368 361
f 535 368 141
f 140 535 141
f 461 535 140
f 137 459 140
f 463 459 137
f 457 463 137
f 459 461 140
f 387 338 203
f 387 381 338
f 201 387 203
f 388 201 198
f 365 388 337
f 388 198 337
f 373 452 514
f 373 382 452
f 448 391 446
f 382 448 452
f 446 391 367
f 431 245 247
f 431 426 245
f 516 495 492
f 516 521 495
f 415 394 414
f 416 393 415
f 393 394 415
f 417 393 416
f 396 393 417
f 397 399 418
f 402 400 419
f 401 403 420
f 405 421 403
f 406 404 422
f 409 411 423
f 412 410 424
f 411 413 425
f 457 137 479
f 137 139 480
f 479 137 480
f 139 504 480
f 139 260 504
f 260 543 258
f 258 334 259
f 334 233 259
f 334 234 233
f 334 333 234
f 333 207 234
f 144 458 482
f 481 142 482
f 142 144 482
f 502 142 481
f 257 353 502
f 353 142 502
f 540 353 257
f 540 257 256
f 352 540 256
f 342 352 255
f 352 256 255
f 342 255 236
f 341 236 235
f 341 342 236
f 206 341 235
f 200 205 213
f 202 214 205
f 200 202 205
f 202 194 214
f 194 216 214
f 462 439 460
f 444 439 462
f 464 444 462
f 445 444 464
f 456 445 464
f 450 445 456
f 453 450 456
f 465 453 456
f 441 453 465
f 467 441 465
f 436 441 467
f 469 436 467
f 440 433 515
f 433 518 515
f 433 519 518
f 433 432 519
f 432 438 519
f 428 190 196
f 430 188 428
f 188 190 428
f 193 188 430
f 438 437 501
f 172 193 253
f 247 193 431
f 253 193 247
f 178 252 196
f 221 147 146
f 225 164 222
f 164 224 222
f 166 165 473
f 243 503 242
f 254 237 231
f 147 154 148
f 149 151 471
f 162 164 225
f 166 170 167
f 198 176 183
f 208 210 211
f 219 217 216
f 148 225 146
f 256 237 254
f 257 238 237
f 260 240 242
f 272 328 323
f 344 346 356
f 347 349 358
f 351 541 352
f 353 355 380
f 356 357 542
f 357 358 542
f 348 360 349
f 361 364 345
f 362 366 360
f 363 361 368
f 374 377 372
f 376 380 377
f 351 354 541
f 382 384 448
f 385 387 201
f 384 391 448
f 367 390 363
f 386 381 387
f 382 392 383
f 372 409 407
f 414 394 295
f 415 414 292
f 416 415 294
f 395 295 394
f 417 416 296
f 300 297 395
f 301 417 299
f 418 300 397
f 398 396 301
f 305 398 304
f 399 303 418
f 419 400 305
f 401 307 399
f 310 419 308
f 420 309 401
f 313 402 310
f 314 311 420
f 421 314 403
f 317 404 313
f 405 316 421
f 321 406 318
f 322 319 407
f 323 408 321
f 423 322 409
f 328 410 323
f 325 324 423
f 425 325 411
f 329 424 328
f 413 412 329
f 413 327 425
f 252 245 426
f 426 428 196
f 427 430 428
f 445 434 433
f 452 448 449
f 453 432 435
f 455 452 451
f 437 455 454
f 238 502 239
f 518 520 517
f 519 521 520
f 501 495 521
f 514 534 375
f 469 468 534
f 470 156 538
f 544 545 546
f 547 548 545
f 545 544 547
f 549 550 551
f 552 553 550
f 554 555 551
f 555 549 551
f 555 556 549
f 552 557 553
f 558 557 552
f 556 559 549
f 554 560 555
f 558 561 557
f 562 560 554
f 559 563 549
f 562 559 560
f 562 563 559
f 564 565 561
f 558 566 567
f 565 568 561
f 569 570 563
f 571 566 558
f 566 568 565
f 571 568 566
f 572 573 571
f 574 575 569
f 574 576 575
f 577 578 572
f 579 580 576
f 580 581 576
f 580 582 581
f 582 577 581
f 583 584 576
f 584 579 576
f 577 583 578
f 583 582 584
f 583 577 582
f 574 569 562
f 553 557 551
f 561 568 557
f 573 578 568
f 585 586 587
f 586 588 587
f 589 585 587
f 586 590 588
f 591 585 589
f 591 592 585
f 593 594 590
f 595 592 591
f 595 596 592
f 593 597 594
f 598 596 595
f 598 599 596
f 593 600 597
f 601 602 599
f 600 603 597
f 600 604 603
f 605 602 601
f 605 604 602
f 604 605 603
f 591 589 587
f 601 598 595
f 597 603 594
f 587 588 606
f 607 587 606
f 607 591 587
f 590 608 588
f 609 591 607
f 610 591 609
f 610 595 591
f 594 611 608
f 590 594 608
f 612 595 610
f 612 601 595
f 611 594 613
f 603 614 613
f 615 601 612
f 615 605 601
f 603 605 614
f 614 605 615
f 552 550 606
f 550 607 606
f 608 552 606
f 550 549 607
f 558 552 608
f 549 563 609
f 571 558 608
f 611 571 608
f 563 610 609
f 570 610 563
f 570 612 610
f 611 572 571
f 575 612 570
f 611 613 572
f 581 615 575
f 615 612 575
f 613 577 572
f 577 615 581
f 613 615 577
f 583 576 574
f 616 617 618
f 619 620 618
f 617 619 618
f 616 621 617
f 622 621 616
f 623 620 619
f 623 624 620
f 624 625 620
f 626 627 622
f 626 628 627
f 628 625 624
f 628 626 625
f 545 617 546
f 545 619 617
f 617 621 546
f 621 544 546
f 621 629 544
f 548 619 545
f 548 623 619
f 621 622 629
f 548 624 623
f 622 627 629
f 627 630 629
f 547 624 548
f 627 628 630
f 628 631 630
f 631 628 547
f 632 633 634
f 635 636 632
f 632 637 633
f 632 638 637
f 639 638 632
f 640 639 632
f 636 640 632
f 641 634 642
f 634 643 642
f 643 644 642
f 645 641 642
f 633 646 643
f 647 648 645
f 633 649 646
f 649 650 646
f 647 635 648
f 651 635 647
f 649 637 650
f 637 652 650
f 653 636 651
f 637 654 652
f 654 655 652
f 656 657 636
f 654 638 655
f 638 658 655
f 659 640 657
f 638 660 658
f 660 661 658
f 661 639 659
f 661 660 639
f 586 585 644
f 585 645 644
f 644 646 586
f 585 592 647
f 650 590 646
f 592 651 647
f 650 652 593
f 596 651 592
f 596 653 651
f 599 653 596
f 652 655 593
f 656 653 599
f 655 658 600
f 602 656 599
f 658 604 600
f 604 661 602
f 661 656 602
f 658 661 604
f 625 574 562
f 620 562 554
f 557 616 551
f 557 568 616
f 568 622 616
f 578 626 622
f 626 583 625
f 662 580 663
f 582 580 662
f 584 582 662
f 579 584 664
f 663 580 579
f 664 663 579
f 664 662 663
f 665 666 567
f 567 666 564
f 666 667 564
f 667 565 564
f 668 565 667
f 668 566 565
f 668 665 566
f 667 666 668
f 669 559 556
f 669 670 559
f 670 671 555
f 671 556 555
f 671 672 556
f 670 672 671
f 669 556 672
f 670 669 672
f 644 645 642
f 661 659 656
f 641 648 634
f 634 633 643
f 633 637 649
f 657 640 636
f 639 660 638
f 629 630 544
f 631 547 630
f 554 551 618
f 578 583 626
f 588 608 606
f 614 615 613
f 560 670 555
f 567 564 561
f 558 567 561
f 566 665 567
f 544 630 547
f 553 551 550
f 569 563 562
f 573 568 571
f 575 570 569
f 576 581 575
f 578 573 572
f 601 599 598
f 594 603 613
f 549 609 607
f 628 624 547
f 632 634 648
f 635 632 648
f 638 654 637
f 646 644 643
f 648 641 645
f 636 635 651
f 656 636 653
f 659 657 656
f 639 640 659
f 646 590 586
f 585 647 645
f 650 593 590
f 655 600 593
f 625 562 620
f 620 554 618
f 616 618 551
f 578 622 568
f 583 574 625
f 584 662 664
f 666 665 668
f 670 560 559
f 673 674 675
f 676 677 675
f 674 676 675
f 677 678 675
f 679 678 677
f 680 679 677
f 681 680 677
f 681 682 680
f 681 683 682
f 683 684 685
f 686 687 685
f 684 686 685
f 684 688 686
f 689 690 688
f 691 690 689
f 692 693 691
f 693 690 691
f 694 677 676
f 695 677 694
f 696 677 695
f 696 697 677
f 698 681 697
f 684 683 699
f 683 681 698
f 699 700 684
f 700 701 684
f 701 689 684
f 689 688 684
f 702 703 704
f 702 705 703
f 705 706 703
f 706 707 703
f 704 708 702
f 709 710 708
f 702 711 712
f 713 707 706
f 709 714 710
f 709 715 714
f 716 712 711
f 717 707 713
f 718 717 713
f 716 711 714
f 715 719 714
f 716 718 712
f 720 719 715
f 721 720 715
f 718 722 717
f 723 716 719
f 724 720 721
f 725 716 723
f 726 722 718
f 727 725 723
f 728 727 723
f 721 728 724
f 727 726 725
f 727 722 726
f 729 730 731
f 730 732 731
f 733 732 730
f 734 732 733
f 704 673 675
f 703 735 704
f 735 673 704
f 735 736 673
f 735 737 736
f 703 729 735
f 675 708 704
f 678 708 675
f 678 709 708
f 679 709 678
f 738 709 679
f 739 738 679
f 740 738 739
f 740 741 738
f 687 721 741
f 740 687 741
f 686 721 687
f 686 728 721
f 690 728 686
f 693 727 690
f 693 742 727
f 743 693 692
f 744 743 692
f 743 742 693
f 745 743 744
f 734 742 743
f 680 682 746
f 746 740 739
f 747 740 746
f 732 745 737
f 731 732 737
f 737 748 736
f 748 749 736
f 750 748 737
f 751 750 737
f 745 751 737
f 751 752 750
f 745 753 751
f 753 754 751
f 745 755 753
f 745 744 755
f 703 707 729
f 707 730 729
f 707 756 730
f 756 733 730
f 756 722 733
f 742 734 733
f 757 758 759
f 705 757 759
f 712 757 705
f 713 706 760
f 758 713 760
f 712 758 757
f 713 758 712
f 760 706 759
f 706 705 759
f 761 762 763
f 710 761 763
f 714 761 710
f 762 711 764
f 711 702 764
f 714 762 761
f 711 762 714
f 764 702 763
f 702 710 763
f 765 766 767
f 720 765 767
f 724 765 720
f 723 719 768
f 766 723 768
f 724 766 765
f 723 766 724
f 768 719 767
f 719 720 767
f 769 770 771
f 716 769 772
f 725 769 716
f 770 718 771
f 726 718 770
f 725 726 769
f 771 718 772
f 718 716 772
f 773 691 689
f 773 744 692
f 755 773 701
f 753 700 754
f 753 701 700
f 753 755 701
f 700 699 754
f 752 751 697
f 751 698 697
f 754 698 751
f 754 699 698
f 752 696 695
f 748 750 694
f 750 752 695
f 694 676 749
f 748 694 749
f 736 674 673
f 749 674 736
f 676 674 749
f 739 679 680
f 747 687 740
f 747 685 687
f 685 747 682
f 734 743 732
f 732 743 745
f 729 731 735
f 735 731 737
f 738 715 709
f 738 741 715
f 741 721 715
f 717 756 707
f 722 756 717
f 742 722 727
f 683 685 682
f 688 690 686
f 681 677 697
f 683 698 699
f 708 710 702
f 702 712 705
f 719 716 714
f 718 713 712
f 728 723 724
f 727 728 690
f 682 747 746
f 744 773 755
f 722 742 733
f 758 760 759
f 762 764 763
f 766 768 767
f 769 771 772
f 726 770 769
f 773 692 691
f 773 689 701
f 752 697 696
f 750 695 694
f 739 680 746
f 774 775 776
f 777 778 776
f 775 777 776
f 778 779 776
f 780 779 778
f 781 780 778
f 782 781 778
f 782 783 781
f 782 784 783
f 784 785 786
f 787 788 786
f 785 787 786
f 785 789 787
f 790 791 789
f 792 791 790
f 793 794 792
f 794 791 792
f 795 778 777
f 796 778 795
f 797 778 796
f 797 798 778
f 799 782 798
f 785 784 800
f 784 782 799
f 800 801 785
f 801 802 785
f 802 790 785
f 790 789 785
f 803 804 805
f 803 806 804
f 806 807 804
f 807 808 804
f 805 809 803
f 810 811 809
f 803 812 813
f 814 808 807
f 810 815 811
f 810 816 815
f 817 813 812
f 818 808 814
f 819 818 814
f 817 812 815
f 816 820 815
f 817 819 813
f 821 820 816
f 822 821 816
f 819 823 818
f 824 817 820
f 825 821 822
f 826 817 824
f 827 823 819
f 828 826 824
f 829 828 824
f 822 829 825
f 828 827 826
f 828 823 827
f 830 831 832
f 831 833 832
f 834 833 831
f 835 833 834
f 805 774 776
f 804 836 805
f 836 774 805
f 836 837 774
f 836 838 837
f 804 830 836
f 776 809 805
f 779 809 776
f 779 810 809
f 780 810 779
f 839 810 780
f 840 839 780
f 841 839 840
f 841 842 839
f 788 822 842
f 841 788 842
f 787 822 788
f 787 829 822
f 791 829 787
f 794 828 791
f 794 843 828
f 844 794 793
f 845 844 793
f 844 843 794
f 846 844 845
f 835 843 844
f 781 783 847
f 847 841 840
f 848 841 847
f 833 846 838
f 832 833 838
f 838 849 837
f 849 850 837
f 851 849 838
f 852 851 838
f 846 852 838
f 852 853 851
f 846 854 852
f 854 855 852
f 846 856 854
f 846 845 856
f 804 808 830
f 808 831 830
f 808 857 831
f 857 834 831
f 857 823 834
f 843 835 834
f 858 859 860
f 806 858 860
f 813 858 806
f 814 807 861
f 859 814 861
f 813 859 858
f 814 859 813
f 861 807 860
f 807 806 860
f 862 863 864
f 811 862 864
f 815 862 811
f 863 812 865
f 812 803 865
f 815 863 862
f 812 863 815
f 865 803 864
f 803 811 864
f 866 867 868
f 821 866 868
f 825 866 821
f 824 820 869
f 867 824 869
f 825 867 866
f 824 867 825
f 869 820 868
f 820 821 868
f 870 871 872
f 817 870 873
f 826 870 817
f 871 819 872
f 827 819 871
f 826 827 870
f 872 819 873
f 819 817 873
f 874 792 790
f 874 845 793
f 856 874 802
f 854 801 855
f 854 802 801
f 854 856 802
f 801 800 855
f 853 852 798
f 852 799 798
f 855 799 852
f 855 800 799
f 853 797 796
f 849 851 795
f 851 853 796
f 795 777 850
f 849 795 850
f 837 775 774
f 850 775 837
f 777 775 850
f 840 780 781
f 848 788 841
f 848 786 788
f 786 848 783
f 835 844 833
f 833 844 846
f 830 832 836
f 836 832 838
f 839 816 810
f 839 842 816
f 842 822 816
f 818 857 808
f 823 857 818
f 843 823 828
f 784 786 783
f 789 791 787
f 782 778 798
f 784 799 800
f 809 811 803
f 803 813 806
f 820 817 815
f 819 814 813
f 829 824 825
f 828 829 791
f 783 848 847
f 845 874 856
f 823 843 834
f 859 861 860
f 863 865 864
f 867 869 868
f 870 872 873
f 827 871 870
f 874 793 792
f 874 790 802
f 853 798 797
f 851 796 795
f 840 781 847
f 875 876 877
f 875 878 876
f 878 879 876
f 880 881 882
f 881 883 882
f 884 885 886
f 887 888 889
f 890 891 885
f 891 892 885
f 893 894 889
f 888 893 889
f 891 888 892
f 891 893 888
f 895 896 897
f 895 898 896
f 899 891 890
f 900 901 902
f 903 904 905
f 902 895 897
f 901 895 902
f 906 907 904
f 907 908 904
f 907 895 901
f 908 907 901
f 909 910 911
f 912 910 909
f 913 912 909
f 914 912 913
f 914 913 915
f 916 917 918
f 916 919 917
f 919 920 917
f 919 921 920
f 921 915 920
f 921 914 915
f 922 891 923
f 924 922 923
f 925 922 924
f 891 899 923
f 926 927 928
f 926 929 927
f 910 930 931
f 932 926 931
f 930 932 931
f 928 933 934
f 933 916 934
f 935 919 916
f 935 936 919
f 937 933 928
f 927 937 928
f 936 921 919
f 938 937 927
f 936 939 914
f 929 938 927
f 940 938 929
f 939 912 914
f 939 941 912
f 926 932 929
f 932 940 929
f 941 942 912
f 942 910 912
f 942 930 910
f 933 935 916
f 943 944 945
f 946 947 948
f 949 950 946
f 951 945 950
f 949 951 950
f 951 943 945
f 943 952 944
f 952 953 944
f 952 954 953
f 954 955 953
f 956 957 954
f 958 885 959
f 960 961 959
f 961 958 959
f 962 961 960
f 886 900 963
f 964 965 966
f 965 967 966
f 967 968 966
f 969 970 968
f 967 944 968
f 944 969 968
f 945 944 967
f 971 972 967
f 972 945 967
f 973 974 969
f 944 973 969
f 922 893 891
f 925 893 922
f 975 970 969
f 908 976 977
f 976 970 975
f 908 970 976
f 978 965 964
f 979 980 964
f 980 978 964
f 981 980 979
f 982 899 890
f 983 899 982
f 984 983 982
f 898 985 896
f 985 984 896
f 985 983 984
f 899 986 923
f 987 985 898
f 988 987 898
f 989 988 898
f 983 990 899
f 991 985 987
f 974 992 969
f 974 993 992
f 993 994 992
f 994 995 975
f 996 997 978
f 997 965 978
f 971 967 965
f 997 971 965
f 998 996 978
f 999 1000 1001
f 999 1002 1000
f 1003 1004 1005
f 1004 988 1005
f 1006 999 1001
f 1007 1004 1003
f 1004 1008 988
f 1009 1002 999
f 1006 1009 999
f 1010 1011 1008
f 1004 1010 1008
f 1007 1010 1004
f 1011 1012 1008
f 1013 1009 1006
f 1014 1013 1006
f 1011 1015 1012
f 1015 1016 1012
f 1017 1018 1019
f 1017 1013 1014
f 1015 1019 1016
f 1017 1014 1018
f 1020 989 898
f 907 1021 1020
f 1021 989 1020
f 1022 1021 907
f 1000 1023 1024
f 1001 1000 1024
f 1000 1025 1023
f 1025 1026 1023
f 1027 1003 1028
f 1003 1005 1028
f 1029 1003 1027
f 1030 1031 1002
f 1032 1030 1002
f 1030 1033 1031
f 1009 1034 1002
f 1034 1032 1002
f 1033 1035 1031
f 1035 1036 1031
f 1037 1034 1009
f 1035 1038 1036
f 1039 1037 1009
f 1013 1039 1009
f 1038 1040 1036
f 1041 1040 1038
f 1042 1039 1013
f 1043 1042 1013
f 1017 1043 1013
f 1041 1044 1040
f 1045 1044 1041
f 1017 1046 1043
f 1047 1044 1045
f 1017 1048 1046
f 1049 1050 1047
f 1050 1044 1047
f 1019 1048 1017
f 1019 1051 1048
f 1052 1050 1049
f 1053 1050 1052
f 1054 1053 1052
f 1019 1055 1051
f 1019 1056 1055
f 1057 1053 1054
f 1019 1015 1056
f 1057 1058 1053
f 1015 1059 1056
f 1060 1058 1057
f 1011 1059 1015
f 1011 1061 1059
f 1062 1058 1060
f 1011 1010 1061
f 1063 1064 1062
f 1064 1058 1062
f 1065 1064 1063
f 1010 1007 1066
f 1007 1067 1066
f 1068 1064 1065
f 1007 1069 1067
f 1069 1007 1065
f 1007 1068 1065
f 1070 1071 1072
f 1073 1070 1072
f 1074 1070 1073
f 1075 936 948
f 1076 956 941
f 1077 1078 1079
f 1078 1080 1079
f 1081 1078 1077
f 1082 1083 1084
f 1085 1086 1087
f 1088 1089 1090
f 1091 1092 1093
f 1094 1084 1095
f 1095 1085 1096
f 1086 1097 1098
f 1082 1099 1083
f 1097 1100 1098
f 1101 1102 1099
f 1100 1103 1104
f 1105 1101 1106
f 1107 1108 1109
f 1110 1111 1112
f 1111 1113 1112
f 1112 1114 1115
f 1108 1116 1109
f 1116 1117 1109
f 1116 1088 1117
f 1088 1090 1117
f 1114 1091 1118
f 1089 1093 1092
f 1119 1108 1107
f 1120 1121 1122
f 1123 1124 1125
f 1126 1123 939
f 1127 1123 1126
f 1122 1128 1129
f 1105 1129 1128
f 1100 1127 1103
f 1127 1126 1103
f 1124 1108 1119
f 1120 1111 1130
f 1110 1130 1111
f 1131 1095 1132
f 1085 1095 1131
f 1095 1084 1132
f 1084 1133 1132
f 1131 1086 1085
f 1083 1133 1084
f 1134 1086 1131
f 1083 1135 1133
f 1134 1097 1086
f 1102 1135 1083
f 1136 1097 1134
f 1102 1137 1135
f 1136 1100 1097
f 1101 1137 1102
f 1138 1100 1136
f 1138 1127 1100
f 1128 1137 1101
f 1128 1139 1137
f 1140 1127 1138
f 1140 1123 1127
f 1141 1139 1128
f 1122 1141 1128
f 1142 1123 1140
f 1142 1124 1123
f 1143 1141 1122
f 1121 1143 1122
f 1144 1124 1142
f 1144 1108 1124
f 1145 1143 1121
f 1130 1145 1121
f 1130 1110 1145
f 1146 1108 1144
f 1146 1116 1108
f 1115 1147 1110
f 1148 1116 1146
f 1148 1088 1116
f 1149 1147 1115
f 1118 1149 1115
f 1150 1088 1148
f 1150 1089 1088
f 1151 1149 1118
f 1093 1151 1118
f 1150 1093 1089
f 1150 1151 1093
f 1030 1152 1033
f 1032 1153 1030
f 1034 1154 1032
f 1133 1035 1033
f 1037 1155 1034
f 1135 1038 1133
f 1039 1134 1155
f 1156 1041 1038
f 1042 1136 1039
f 1043 1138 1136
f 1137 1045 1041
f 1046 1157 1043
f 1139 1047 1045
f 1048 1140 1157
f 1158 1049 1047
f 1051 1142 1140
f 1141 1052 1158
f 1159 1054 1052
f 1055 1160 1142
f 1056 1160 1055
f 1143 1057 1054
f 1143 1145 1057
f 1059 1146 1144
f 1144 1160 1056
f 1147 1060 1145
f 1061 1148 1146
f 1161 1062 1060
f 1066 1162 1148
f 1149 1063 1161
f 1163 1065 1063
f 1067 1150 1162
f 1069 1151 1067
f 1151 1069 1065
f 1020 898 895
f 907 1020 895
f 934 990 1164
f 1164 1165 1166
f 1165 1167 1168
f 1169 931 1167
f 931 1168 1167
f 1167 1165 1164
f 1169 1167 1164
f 1170 1171 1172
f 1173 1170 1172
f 1174 1175 1176
f 1177 1171 1178
f 1179 1174 1176
f 1170 1179 1176
f 1180 1181 1178
f 1182 1183 1171
f 1177 1182 1171
f 1184 1181 1180
f 1185 1184 1180
f 1186 1184 1185
f 1187 1186 1185
f 1183 1188 1172
f 1189 1190 1187
f 1188 1173 1172
f 1188 1191 1173
f 1191 1179 1170
f 1192 1193 1189
f 1175 1174 1193
f 1181 1177 1178
f 1194 1195 1196
f 1197 1198 1199
f 1200 1198 1197
f 1201 1200 1197
f 1202 1200 1201
f 1195 1202 1201
f 1194 1202 1195
f 1203 1194 1196
f 1204 1203 1196
f 1205 1203 1204
f 1206 1205 1204
f 1207 1205 1206
f 889 1208 1209
f 1208 1210 1209
f 1210 1211 1209
f 1212 904 1211
f 1210 1212 1211
f 1213 905 887
f 903 905 1213
f 981 979 1214
f 1215 1216 1214
f 1216 1195 1214
f 1195 981 1214
f 908 977 1215
f 977 1216 1215
f 1217 1218 981
f 1195 1217 981
f 1196 1195 1216
f 1219 1220 1216
f 1220 1196 1216
f 1022 907 906
f 1175 1221 1222
f 1175 1192 1221
f 1192 1223 1221
f 1192 1189 1223
f 1189 1224 1223
f 1189 1187 1224
f 1224 1187 1225
f 1226 1178 1227
f 1180 1178 1226
f 1228 1180 1226
f 1185 1180 1228
f 1225 1185 1228
f 1187 1185 1225
f 1229 1022 906
f 925 1230 1231
f 1230 1232 1231
f 1233 1022 1229
f 1232 1233 1229
f 1230 1233 1232
f 1234 925 924
f 1235 1230 925
f 1234 1235 925
f 1233 1236 1022
f 1236 1237 1022
f 1238 1230 1235
f 1233 1239 1236
f 893 1231 894
f 893 925 1231
f 977 1219 1216
f 1240 1219 977
f 976 995 1240
f 1241 1242 980
f 1242 998 980
f 1218 1242 1241
f 981 1218 1241
f 1000 1031 1025
f 1025 1243 1026
f 1029 1244 1003
f 1064 1244 1029
f 1243 1234 1026
f 1243 1245 1234
f 1246 1064 1029
f 1031 1243 1025
f 1040 1247 1245
f 1002 1031 1000
f 1031 1036 1243
f 1036 1245 1243
f 1036 1040 1245
f 1058 1064 1246
f 1064 1068 1244
f 1068 1003 1244
f 1068 1007 1003
f 1248 1058 1246
f 1040 1044 1247
f 1050 1249 1250
f 1050 1053 1249
f 1251 1050 1250
f 1044 1050 1251
f 1044 1251 1247
f 1053 1248 1249
f 1053 1058 1248
f 1184 1105 1198
f 1181 1184 1198
f 1177 1181 1198
f 1193 1252 1190
f 1207 1252 1193
f 1174 1207 1193
f 1238 1253 1230
f 1253 1254 1230
f 1253 1255 1254
f 1253 1256 1255
f 1178 1253 1238
f 1256 1257 1258
f 1257 1176 1259
f 1176 1239 1259
f 1255 1259 1254
f 1258 1259 1255
f 1251 1228 1260
f 1261 1228 1251
f 1250 1261 1251
f 1250 1262 1261
f 1249 1262 1250
f 1249 1223 1262
f 1249 1248 1223
f 1263 1018 920
f 1264 1265 1263
f 1265 1018 1263
f 1264 1016 1265
f 1012 1016 1264
f 1178 1238 1235
f 1227 1178 1235
f 1239 1222 1236
f 1239 1175 1222
f 990 1266 899
f 990 916 1266
f 916 918 1266
f 911 991 987
f 910 991 911
f 1266 986 899
f 1267 986 1266
f 1268 1267 1266
f 1014 1267 1268
f 920 1014 1268
f 1018 1014 920
f 988 1269 987
f 1008 1269 988
f 1012 1269 1008
f 1012 909 1269
f 1012 1264 909
f 1222 1237 1236
f 1270 1237 1222
f 1221 1270 1222
f 1248 1270 1221
f 1223 1248 1221
f 1234 1271 1235
f 1234 1247 1271
f 1260 1228 1271
f 1247 1260 1271
f 1265 1019 1018
f 1016 1019 1265
f 986 1006 1001
f 1267 1006 986
f 1014 1006 1267
f 1237 1246 1029
f 1270 1246 1237
f 1248 1246 1270
f 1245 1247 1234
f 1247 1251 1260
f 1111 1252 1113
f 1252 1207 1272
f 1273 1105 1106
f 1198 1105 1273
f 1199 1198 1273
f 1076 1119 1107
f 1274 1076 1107
f 957 956 1274
f 956 1076 1274
f 1103 1075 1104
f 1075 947 1104
f 1075 948 947
f 885 958 890
f 962 902 897
f 958 1275 890
f 961 1275 958
f 1275 961 897
f 961 962 897
f 1231 1276 894
f 1208 889 894
f 904 1212 906
f 1276 1210 1208
f 1277 1210 1276
f 1277 906 1212
f 1210 1277 1212
f 923 986 1024
f 986 1001 1024
f 1026 1234 924
f 1026 924 1023
f 1237 1027 1022
f 1237 1029 1027
f 1028 988 989
f 1005 988 1028
f 905 908 1215
f 908 901 970
f 1209 1211 1213
f 1211 903 1213
f 901 900 968
f 970 901 968
f 1215 1214 887
f 905 1215 887
f 1209 1213 887
f 963 959 884
f 960 959 963
f 966 900 886
f 966 968 900
f 1214 888 887
f 979 888 1214
f 892 979 964
f 892 888 979
f 892 964 886
f 964 966 886
f 1231 1277 1276
f 1277 1232 906
f 1232 1229 906
f 1232 1277 1231
f 1275 984 890
f 984 982 890
f 896 1275 897
f 984 1275 896
f 1024 924 923
f 1024 1023 924
f 1021 1027 989
f 1027 1028 989
f 1027 1021 1022
f 1269 911 987
f 1269 909 911
f 913 909 1264
f 915 1264 1263
f 913 1264 915
f 915 1263 920
f 917 1268 918
f 917 920 1268
f 918 1268 1266
f 1223 1224 1262
f 1262 1225 1261
f 1262 1224 1225
f 1225 1228 1261
f 1271 1226 1227
f 1228 1226 1271
f 1271 1227 1235
f 933 949 935
f 949 948 935
f 948 936 935
f 937 951 933
f 951 949 933
f 938 951 937
f 941 956 942
f 956 930 942
f 930 954 932
f 956 954 930
f 883 1204 882
f 1204 1196 882
f 883 1206 1204
f 1113 1272 883
f 1272 1206 883
f 880 1114 881
f 1091 1114 880
f 881 1113 883
f 881 1112 1113
f 1114 1112 881
f 1092 1091 1278
f 1092 1278 1090
f 1279 1092 1090
f 1078 1090 1080
f 1081 1109 1078
f 1109 1117 1078
f 1117 1090 1078
f 1109 1081 1107
f 1274 1107 1081
f 1077 1274 1081
f 957 1274 1077
f 953 955 1079
f 955 1077 1079
f 944 953 1079
f 955 957 1077
f 1074 946 1070
f 946 1071 1070
f 947 946 1074
f 950 1071 946
f 950 945 1071
f 1104 947 1073
f 947 1074 1073
f 1098 1073 1072
f 996 1098 1072
f 1098 1104 1073
f 1087 1098 996
f 1096 1087 996
f 1280 1096 996
f 998 1280 1281
f 1280 996 1281
f 998 1094 1280
f 1082 1094 998
f 876 1082 877
f 1082 998 877
f 1099 1082 876
f 879 1099 876
f 879 1106 1099
f 1273 1106 879
f 878 1273 879
f 1199 1273 878
f 875 1197 878
f 1201 1197 875
f 1195 1201 875
f 1197 1199 878
f 1125 1076 941
f 1125 1119 1076
f 939 1125 941
f 1126 939 936
f 1103 1126 1075
f 1126 936 1075
f 1111 1190 1252
f 1111 1120 1190
f 1186 1129 1184
f 1120 1186 1190
f 1184 1129 1105
f 1169 983 985
f 1169 1164 983
f 1254 1233 1230
f 1254 1259 1233
f 1153 1132 1152
f 1154 1131 1153
f 1131 1132 1153
f 1155 1131 1154
f 1134 1131 1155
f 1135 1137 1156
f 1140 1138 1157
f 1139 1141 1158
f 1143 1159 1141
f 1144 1142 1160
f 1147 1149 1161
f 1150 1148 1162
f 1149 1151 1163
f 1195 875 1217
f 875 877 1218
f 1217 875 1218
f 877 1242 1218
f 877 998 1242
f 998 1281 996
f 996 1072 997
f 1072 971 997
f 1072 972 971
f 1072 1071 972
f 1071 945 972
f 882 1196 1220
f 1219 880 1220
f 880 882 1220
f 1240 880 1219
f 995 1091 1240
f 1091 880 1240
f 1278 1091 995
f 1278 995 994
f 1090 1278 994
f 1080 1090 993
f 1090 994 993
f 1080 993 974
f 1079 974 973
f 1079 1080 974
f 944 1079 973
f 938 943 951
f 940 952 943
f 938 940 943
f 940 932 952
f 932 954 952
f 1200 1177 1198
f 1182 1177 1200
f 1202 1182 1200
f 1183 1182 1202
f 1194 1183 1202
f 1188 1183 1194
f 1191 1188 1194
f 1203 1191 1194
f 1179 1191 1203
f 1205 1179 1203
f 1174 1179 1205
f 1207 1174 1205
f 1178 1171 1253
f 1171 1256 1253
f 1171 1257 1256
f 1171 1170 1257
f 1170 1176 1257
f 1166 928 934
f 1168 926 1166
f 926 928 1166
f 931 926 1168
f 1176 1175 1239
f 910 931 991
f 985 931 1169
f 991 931 985
f 916 990 934
f 959 885 884
f 963 902 960
f 902 962 960
f 904 903 1211
f 981 1241 980
f 992 975 969
f 885 892 886
f 887 889 1209
f 900 902 963
f 904 908 905
f 936 914 921
f 946 948 949
f 957 955 954
f 886 963 884
f 994 975 992
f 995 976 975
f 998 978 980
f 1010 1066 1061
f 1082 1084 1094
f 1085 1087 1096
f 1089 1279 1090
f 1091 1093 1118
f 1094 1095 1280
f 1095 1096 1280
f 1086 1098 1087
f 1099 1102 1083
f 1100 1104 1098
f 1101 1099 1106
f 1112 1115 1110
f 1114 1118 1115
f 1089 1092 1279
f 1120 1122 1186
f 1123 1125 939
f 1122 1129 1186
f 1105 1128 1101
f 1124 1119 1125
f 1120 1130 1121
f 1110 1147 1145
f 1152 1132 1033
f 1153 1152 1030
f 1154 1153 1032
f 1133 1033 1132
f 1155 1154 1034
f 1038 1035 1133
f 1039 1155 1037
f 1156 1038 1135
f 1136 1134 1039
f 1043 1136 1042
f 1137 1041 1156
f 1157 1138 1043
f 1139 1045 1137
f 1048 1157 1046
f 1158 1047 1139
f 1051 1140 1048
f 1052 1049 1158
f 1159 1052 1141
f 1055 1142 1051
f 1143 1054 1159
f 1059 1144 1056
f 1060 1057 1145
f 1061 1146 1059
f 1161 1060 1147
f 1066 1148 1061
f 1063 1062 1161
f 1163 1063 1149
f 1067 1162 1066
f 1151 1150 1067
f 1151 1065 1163
f 990 983 1164
f 1164 1166 934
f 1165 1168 1166
f 1183 1172 1171
f 1190 1186 1187
f 1191 1170 1173
f 1193 1190 1189
f 1175 1193 1192
f 976 1240 977
f 1256 1258 1255
f 1257 1259 1258
f 1239 1233 1259
f 1252 1272 1113
f 1207 1206 1272
f 1208 894 1276
f 1282 1283 1284
f 1282 1285 1283
f 1286 1282 1284
f 1282 1287 1285
f 1288 1289 1285
f 1289 1290 1285
f 1287 1288 1285
f 1291 1282 1286
f 1292 1282 1291
f 1293 1294 1295
f 1294 1296 1295
f 1297 1294 1293
f 1298 1296 1294
f 1299 1298 1294
f 1300 1299 1294
f 1295 1301 1302
f 1302 1303 1295
f 1295 1304 1301
f 1305 1303 1302
f 1305 1293 1303
f 1304 1306 1301
f 1304 1307 1306
f 1307 1308 1306
f 1309 1297 1293
f 1307 1296 1308
f 1296 1310 1308
f 1311 1294 1309
f 1311 1300 1294
f 1296 1298 1310
f 1298 1312 1310
f 1313 1300 1311
f 1313 1299 1300
f 1299 1313 1312
f 1308 1314 1306
f 1310 1315 1308
f 1315 1314 1308
f 1312 1315 1310
f 1316 1315 1312
f 1317 1313 1311
f 1313 1316 1312
f 1317 1316 1313
f 1301 1318 1302
f 1301 1306 1318
f 1319 1309 1305
f 1306 1314 1318
f 1320 1309 1319
f 1320 1311 1309
f 1320 1317 1311
f 1316 1317 1320
f 1321 1302 1322
f 1302 1318 1322
f 1305 1302 1321
f 1319 1305 1321
f 1323 1320 1319
f 1324 1316 1320
f 1321 1322 1325
f 1322 1326 1325
f 1327 1321 1325
f 1322 1318 1326
f 1327 1319 1321
f 1318 1328 1326
f 1328 1329 1326
f 1330 1319 1327
f 1330 1323 1319
f 1328 1314 1329
f 1314 1331 1329
f 1332 1323 1330
f 1332 1320 1323
f 1314 1315 1331
f 1315 1333 1331
f 1334 1320 1332
f 1334 1324 1320
f 1315 1316 1333
f 1316 1324 1333
f 1324 1334 1333
f 1335 1325 1336
f 1325 1326 1336
f 1326 1337 1336
f 1327 1325 1335
f 1338 1327 1335
f 1326 1329 1337
f 1329 1339 1337
f 1330 1327 1338
f 1340 1330 1338
f 1329 1341 1339
f 1331 1341 1329
f 1340 1342 1332
f 1343 1341 1331
f 1333 1343 1331
f 1342 1344 1332
f 1345 1343 1333
f 1346 1345 1333
f 1344 1346 1334
f 1334 1346 1333
f 1336 1347 1348
f 1349 1335 1350
f 1336 1337 1347
f 1337 1284 1347
f 1283 1335 1349
f 1283 1338 1335
f 1285 1338 1283
f 1337 1339 1284
f 1339 1286 1284
f 1290 1338 1285
f 1290 1340 1338
f 1339 1341 1286
f 1289 1340 1290
f 1341 1291 1286
f 1289 1342 1340
f 1341 1343 1291
f 1343 1351 1291
f 1288 1342 1289
f 1288 1344 1342
f 1343 1345 1351
f 1345 1292 1351
f 1287 1344 1288
f 1287 1352 1344
f 1292 1345 1346
f 1346 1287 1282
f 1352 1287 1346
f 1347 1284 1348
f 1348 1283 1349
f 1351 1292 1291
f 1335 1336 1350
f 1352 1346 1344
f 1318 1314 1328
f 1303 1293 1295
f 1304 1296 1307
f 1283 1348 1284
f 1296 1304 1295
f 1309 1293 1305
f 1294 1297 1309
f 1299 1312 1298
f 1340 1332 1330
f 1344 1334 1332
f 1336 1348 1350
f 1349 1350 1348
f 1292 1346 1282
