v -0.0323984 0.0453577 0.0189289
v -0.0323795 0.0453828 0.0333577
v -0.0319779 0.0449425 0.0430182
v -0.0322342 0.0445553 0.0285523
v -0.0317084 0.0449761 0.00954271
v -0.0333128 0.0468254 0.0186739
v -0.0333211 0.046879 0.010591
v -0.0227991 0.050052 0.0350457
v -0.02311 0.0507345 0.0401746
v -0.0243936 0.0493072 0.0441954
v -0.0231099 0.0507344 0.0280457
v -0.0230781 0.0507935 0.0184287
v -0.0231099 0.0507344 0.0350457
v -0.0227991 0.050052 0.0280457
v -0.0228145 0.0500182 0.0109404
v -0.0238821 0.0522976 0.0179145
v 0.0454086 0.0325696 0.0193929
v 0.0447695 0.0322134 0.027609
v 0.0445757 0.0323767 0.0351684
v 0.04476 0.0319443 0.0115932
v 0.0470136 0.0331514 0.00947783
v 0.0468066 0.033334 0.0186694
v 0.0501122 0.0227464 0.0348559
v 0.0507345 0.02311 0.0401746
v 0.0499319 0.0228577 0.0439955
v 0.0507344 0.0231099 0.0350457
v 0.0507344 0.0231099 0.0280457
v 0.0507926 0.0230769 0.0184423
v 0.050061 0.0228099 0.0285736
v 0.0500136 0.0228611 0.0103785
v 0.0523262 0.0238628 0.0109707
v 0.0522378 0.0237801 0.0179416
v -0.0453824 -0.03238 0.0333993
v -0.044766 -0.0319532 0.0350457
v -0.0449997 -0.0320365 0.0428701
v -0.0453575 -0.0323987 0.0189312
v -0.044766 -0.0319532 0.0280457
v -0.0450859 -0.0315457 0.0089138
v -0.04681 -0.0333106 0.018676
v -0.046875 -0.0333256 0.0105963
v -0.050052 -0.0227991 0.0350457
v -0.0507345 -0.02311 0.0401746
v -0.0503352 -0.0220964 0.0441339
v -0.0507344 -0.0231099 0.0350457
v -0.0507344 -0.0231099 0.0280457
v -0.0507955 -0.0230783 0.0184343
v -0.0500521 -0.022782 0.0114851
v -0.050052 -0.0227991 0.0280457
v -0.0522623 -0.0237949 0.0179323
v 0.0325999 -0.0454529 0.0195103
v 0.0321857 -0.0447056 0.0276963
v 0.0323163 -0.044853 0.0360379
v 0.0319287 -0.0448583 0.0102798
v 0.0333268 -0.0468041 0.0186665
v 0.0333407 -0.0468768 0.0107261
v 0.0227991 -0.050052 0.0350457
v 0.02311 -0.0507345 0.0401746
v 0.0228064 -0.0500889 0.0442958
v 0.0231099 -0.0507344 0.0280457
v 0.0230766 -0.0507939 0.0184387
v 0.0231099 -0.0507344 0.0350457
v 0.0227723 -0.0500619 0.011776
v 0.0227991 -0.050052 0.0280457
v 0.0237831 -0.052237 0.0179401
v -0.0327822 0.045093 0.0280457
v -0.0327377 0.0451968 0.0192551
v -0.0327204 0.0450477 0.0371482
v -0.0323412 0.0444865 0.0125313
v -0.0335017 0.0459603 0.0171663
v -0.0343002 0.0471863 0.0142185
v -0.0377804 0.0519683 0.0125299
v -0.0371568 0.0512435 0.0140411
v -0.042116 0.0365279 0.0350457
v -0.041544 0.0360429 0.0350457
v -0.0419474 0.0364521 0.0418201
v -0.0421115 0.0364608 0.0195693
v -0.042116 0.0365279 0.0280457
v -0.041544 0.0360429 0.0280457
v 0.0365279 0.042116 0.0350457
v 0.0360429 0.041544 0.0350457
v 0.0362516 0.0418941 0.0419137
v 0.0365278 0.0421163 0.0196868
v 0.0365279 0.042116 0.0280457
v 0.0360429 0.041544 0.0280457
v 0.0360699 0.0415214 0.0192834
v 0.045093 0.0327822 0.0280457
v 0.0444865 0.0323412 0.0280457
v 0.0444865 0.0323412 0.0125313
v 0.0459581 0.0335047 0.017169
v 0.0471769 0.0342939 0.0142262
v 0.0519683 0.0377804 0.0125299
v 0.0512402 0.0371577 0.014039
v 0.042116 -0.0365279 0.0350457
v 0.0420861 -0.0356169 0.0348147
v 0.0417549 -0.0363216 0.0424047
v 0.0421163 -0.0365278 0.0196868
v 0.042116 -0.0365279 0.0280457
v 0.04152 -0.0360715 0.0191088
v 0.041544 -0.0360429 0.0280457
v 0.0327822 -0.045093 0.0280457
v 0.0323412 -0.0444865 0.0125313
v 0.0323412 -0.0444865 0.0280457
v 0.0335043 -0.0459525 0.0171769
v 0.0342938 -0.0471765 0.0142274
v 0.0377804 -0.0519683 0.0125299
v 0.0371512 -0.0512343 0.0140398
v -0.0365279 -0.042116 0.0350457
v -0.0359559 -0.0416607 0.0346758
v -0.0363 -0.0417231 0.0423304
v -0.0365278 -0.0421163 0.0196868
v -0.0365279 -0.042116 0.0280457
v -0.0360411 -0.0415456 0.0183613
v -0.0360429 -0.041544 0.0280457
v -0.045093 -0.0327822 0.0280457
v -0.0451976 -0.0327384 0.0192581
v -0.0448942 -0.0324267 0.0359591
v -0.0444865 -0.0323412 0.0125313
v -0.0444865 -0.0323412 0.0280457
v -0.0459582 -0.0335018 0.0171768
v -0.0471769 -0.0342938 0.0142262
v -0.0519683 -0.0377804 0.0125299
v -0.0512343 -0.0371512 0.0140398
v 0.0391653 0.0385699 0.0442306
v 0.0453841 0.0310751 0.044357
v 0.0391826 0.0385969 0.013124
v 0.0453944 0.03104 0.0083552
v 0.0468339 0.0288335 0.0113962
v 0.0478864 0.0270468 0.012837
v -0.0319532 0.044766 0.0350457
v -0.0274482 0.0476663 0.0129127
v -0.0260108 0.0484692 0.01022
v -0.0329152 0.0440347 0.044181
v -0.032988 0.044009 0.0125895
v -0.0400527 0.037655 0.0443833
v -0.0402214 0.0377229 0.0132862
v 0.0369673 -0.0407028 0.0442342
v 0.0368218 -0.0408521 0.0129585
v 0.028929 -0.0468023 0.0428984
v 0.0304496 -0.045802 0.00959295
v 0.0289118 -0.0467696 0.00712069
v 0.028852 -0.0468127 0.0113776
v 0.0270758 -0.0478681 0.0128287
v -0.0480388 -0.026782 0.0429509
v -0.047602 -0.0275623 0.0126046
v -0.042157 -0.0352908 0.044511
v -0.0424011 -0.0350364 0.0127916
v 0.0316612 0.044973 0.0350457
v 0.0316612 0.044973 0.0280457
v 0.0231222 0.0499036 0.0350457
v 0.0231222 0.0499036 0.0280457
v 0.01384 0.0532302 0.0350457
v 0.01384 0.0532302 0.0280457
v 0.0534326 0.0130367 0.0280457
v 0.0534326 0.0130367 0.0350457
v 0.00411292 0.054846 0.0350457
v 0.00411292 0.054846 0.0280457
v 0.0549017 0.00328647 0.0280457
v 0.0549017 0.00328647 0.0350457
v -0.00574631 0.054699 0.0350457
v -0.00574631 0.054699 0.0280457
v 0.0546063 -0.00656944 0.0280457
v 0.0546063 -0.00656944 0.0350457
v -0.0154208 0.0527939 0.0350457
v -0.0154208 0.0527939 0.0280457
v 0.0525557 -0.0162142 0.0280457
v 0.0525557 -0.0162142 0.0350457
v 0.0488159 -0.0253378 0.0280457
v 0.0488159 -0.0253378 0.0350457
v 0.0435072 -0.033647 0.0280457
v -0.0463482 0.0296116 0.0280457
v -0.0508907 0.02086 0.0280457
v -0.0463482 0.0296116 0.0350457
v -0.0537975 0.0114378 0.0280457
v -0.0508907 0.02086 0.0350457
v 0.0200912 -0.0511991 0.0280457
v 0.0200912 -0.0511991 0.0350457
v 0.0106264 -0.0539637 0.0280457
v 0.0106264 -0.0539637 0.0350457
v -0.0549753 0.00164812 0.0280457
v -0.0537975 0.0114378 0.0350457
v 0.00082 -0.0549939 0.0280457
v 0.00082 -0.0549939 0.0350457
v -0.0543861 -0.00819459 0.0280457
v -0.0549753 0.00164812 0.0350457
v -0.00901272 -0.0542565 0.0280457
v -0.00901272 -0.0542565 0.0350457
v -0.0520489 -0.0177739 0.0280457
v -0.0543861 -0.00819459 0.0350457
v -0.0185558 -0.0517753 0.0280457
v -0.0185558 -0.0517753 0.0350457
v -0.0520489 -0.0177739 0.0350457
v -0.0275024 -0.04763 0.0280457
v -0.0275024 -0.04763 0.0350457
v -0.0355651 -0.0419538 0.0280457
v 0.0403644 0.0373593 0.0130007
v -0.0245785 0.0491991 0.00799991
v -0.0289245 0.0467763 0.0112583
v -0.0481169 -0.0266231 0.0121602
v -0.0467776 -0.028925 0.0113006
v 0.0360434 0.0415446 0.013436
v -0.0416949 0.0358667 0.0134431
v 0.0415446 -0.0360434 0.013436
v -0.0360429 -0.041544 0.013436
v 0.0484932 0.0259919 0.0103704
v 0.0259772 -0.0484916 0.0103723
v -0.0478632 -0.0271304 0.00947629
v 0.0250536 -0.048991 0.0074104
v -0.0487605 -0.025461 0.006888
v 0.0473472 0.0279786 0.00941925
v 0.0480453 0.0267591 0.00697334
v -0.0279812 0.0473394 0.00941655
v 0.0279659 -0.0473335 0.00938363
v -0.0279287 0.0473885 0.00679672
v -0.0304963 0.0484103 0.0106721
v -0.0284122 0.0498283 0.013595
v -0.0267542 0.050624 0.0104082
v -0.0238709 0.052325 0.0110691
v -0.0306524 0.0486682 0.00701412
v -0.025814 0.0514223 0.0076307
v -0.028602 0.0493656 0.00842312
v 0.0500628 0.0281592 0.0133907
v 0.0484521 0.0304603 0.0115538
v 0.0507649 0.0265997 0.0110371
v 0.0493897 0.0283594 0.00849994
v 0.0512875 0.0259928 0.00752947
v 0.0493733 0.0294762 0.00690236
v -0.0488112 -0.0299217 0.00877701
v -0.0495257 -0.028933 0.0133834
v -0.0523267 -0.0238612 0.0109324
v -0.0504735 -0.0268628 0.00951496
v -0.0485804 -0.0308179 0.00718161
v -0.0512513 -0.0260631 0.00748838
v 0.0281578 -0.0500632 0.0133864
v 0.0304819 -0.0483692 0.0112985
v 0.0265943 -0.0507655 0.011027
v 0.0238628 -0.0523262 0.0109707
v 0.0307922 -0.0485616 0.0070101
v 0.0282497 -0.0494081 0.00852929
v 0.0260088 -0.0512802 0.00751306
v 0.0162448 0.0622605 0.0336712
v 0.0263381 0.058681 0.0332904
v 0.0186152 0.0615306 0.0159842
v 0.0101526 0.0635163 0.0164538
v 0.00660606 0.0640084 0.0337498
v -0.00068306 0.064361 0.0171995
v -0.00307483 0.0643207 0.0342971
v -0.0132291 0.0630171 0.0178685
v -0.0218706 0.0604116 0.0185801
v -0.0220929 0.060367 0.0325259
v -0.0222815 0.0602627 0.012
v -0.0303886 0.0566717 0.0191733
v -0.0249444 0.0595149 0.0345187
v -0.0348269 0.0541244 0.0342482
v -0.0378052 0.0519588 0.0195663
v -0.0405935 0.049876 0.0341986
v -0.0475331 0.0432541 0.0199955
v -0.0472664 0.0437956 0.0345408
v -0.0435279 0.047278 0.0187981
v -0.0531453 0.0362132 0.0224742
v -0.0556043 0.0321543 0.0278609
v -0.052492 0.037272 0.0344213
v 0.0282094 0.0577364 0.0257342
v 0.0276341 0.0581842 0.0150932
v 0.0355 0.0536395 0.0168654
v -0.0214193 0.0593433 0.0134571
v 0.0407792 0.0498244 0.0145348
v -0.0296956 0.0569757 0.012
v -0.0301283 0.0567481 0.0128637
v -0.0213683 0.0575757 0.0119829
v -0.0279516 0.0545433 0.0120151
v 0.0208182 -0.0517171 0.0188038
v 0.0167456 -0.0531756 0.0401746
v 0.0159544 -0.0534209 0.0181713
v 0.0095684 -0.0549904 0.040207
v 0.00639767 -0.0554607 0.017419
v -0.00029137 -0.0558328 0.0404023
v -0.00451337 -0.0556139 0.016717
v -0.0141498 -0.0540086 0.0162682
v -0.0105392 -0.0547928 0.0403611
v -0.0176935 -0.0528678 0.0401746
v -0.0241611 -0.0504034 0.0152132
v -0.0326633 -0.0451742 0.014646
v -0.0339507 -0.0443912 0.04031
v -0.0361497 -0.0424412 0.0197223
v -0.036013 -0.0428724 0.0135865
v -0.044209 0.0339272 0.041086
v -0.0462592 0.0311151 0.0401746
v -0.0424412 0.0361497 0.0197223
v -0.0451759 0.0326609 0.0146453
v -0.0503878 0.0241893 0.0152076
v -0.0539513 0.0143369 0.0162505
v -0.0505074 0.0237521 0.0399903
v -0.0555701 0.00564946 0.0398695
v -0.0556022 0.00484856 0.016696
v -0.055714 -0.00200218 0.0401746
v -0.0556938 -0.00250375 0.0174599
v -0.0549857 -0.00959728 0.0399731
v -0.0531756 -0.0167456 0.0401746
v -0.0517171 -0.0208182 0.0188038
v -0.0547866 -0.0109198 0.0180588
v -0.0428371 0.0359873 0.0136189
v 0.0531405 0.0167586 0.0410909
v 0.0537267 0.0112554 0.0442244
v 0.0504153 -0.0239237 0.0407879
v 0.0440191 -0.0327922 0.0442178
v 0.0510617 -0.020125 0.0441542
v -0.0200331 -0.0510638 0.0442249
v -0.0239543 -0.050402 0.0406753
v -0.0301264 -0.0457854 0.0442846
v -0.0460819 0.0298976 0.0439548
v -0.0508106 0.0206138 0.0443384
v -0.0536708 0.0153025 0.0399411
v -0.0544728 0.00761577 0.0442853
v -0.0543661 -0.00742945 0.0443398
v 0.0517171 0.0208182 0.0188038
v 0.0534191 0.0159641 0.0181727
v 0.0549868 0.00960092 0.0401842
v 0.0554607 0.006398 0.017419
v 0.0558353 -0.00029646 0.0402867
v 0.0556137 -0.00451685 0.0167166
v 0.0539966 -0.0142028 0.0162647
v 0.0547965 -0.0105207 0.0403115
v 0.0528678 -0.0176935 0.0401746
v 0.0503975 -0.0241723 0.0152111
v 0.0451742 -0.0326633 0.014646
v 0.0443973 -0.0339387 0.0404519
v 0.0424412 -0.0361497 0.0197223
v 0.0428724 -0.036013 0.0135865
v 0.0103893 -0.0538238 0.0441169
v 0.00039044 -0.054905 0.0442571
v -0.00967424 -0.0539321 0.0443245
v 0.0339795 0.0443827 0.0400854
v 0.0361497 0.0424412 0.0197223
v 0.0326633 0.0451742 0.014646
v 0.0241871 0.0503888 0.0152081
v 0.0143394 0.0539506 0.0162502
v 0.023724 0.050519 0.0400306
v 0.00569478 0.0555643 0.0401386
v 0.00485127 0.055602 0.0166958
v -0.00200218 0.055714 0.0401746
v -0.00250375 0.0556938 0.0174599
v -0.00959648 0.0549868 0.0399419
v -0.0167456 0.0531756 0.0401746
v -0.0208182 0.0517171 0.0188038
v -0.0109199 0.0547867 0.0180591
v 0.0360129 0.0428724 0.0135865
v 0.0547623 0.00135622 0.0443244
v 0.0541336 -0.0089572 0.0442775
v 0.0256983 0.0487181 0.0443378
v 0.0153362 0.0536584 0.040186
v 0.0090897 0.05424 0.0442314
v -0.00363828 0.0547547 0.0442611
v -0.0153603 0.0526666 0.0442116
v -0.0437924 0.0377674 0.0217212
v -0.0430799 0.0370106 0.0195728
v -0.0429823 0.0370601 0.0241871
v -0.0474856 0.0409873 0.0198818
v -0.0464732 0.0400676 0.0215114
v -0.0473007 0.041252 0.0240876
v -0.0446238 0.0385865 0.0208494
v -0.0378668 -0.0438757 0.0215608
v -0.0370101 -0.043083 0.0195713
v -0.0370473 -0.042992 0.024213
v -0.0409655 -0.0474825 0.0198912
v -0.0403872 -0.0465945 0.0217457
v -0.0412552 -0.0472957 0.0241445
v -0.0386225 -0.0445372 0.0208091
v 0.0438773 -0.0378612 0.0215575
v 0.0430802 -0.0370082 0.0195674
v 0.0429847 -0.0370592 0.0242037
v 0.0474825 -0.0409655 0.0198911
v 0.0465945 -0.0403872 0.0217457
v 0.0472957 -0.0412552 0.0241445
v 0.0445409 -0.0386255 0.0208101
v 0.0378693 0.0438811 0.0215525
v 0.0370089 0.0430795 0.019567
v 0.0370577 0.0429858 0.0241862
v 0.0409655 0.0474825 0.0198911
v 0.0403872 0.0465945 0.0217457
v 0.0412552 0.0472957 0.0241445
v 0.0386256 0.0445414 0.0208102
v -0.0440559 -0.0384302 0.0195135
v -0.0509484 -0.0376186 0.0184868
v -0.0555118 -0.0294498 0.0182148
v -0.0545436 -0.0252865 0.0179895
v -0.0591246 -0.0214132 0.0176259
v -0.0609681 -0.0174784 0.0173847
v -0.0636517 -0.00382446 0.0165088
v -0.055786 -0.0101384 0.0169645
v -0.0561802 0.0103051 0.0155523
v -0.0620947 0.0141636 0.0153973
v -0.0471904 0.0319719 0.0139155
v -0.0530717 0.0349209 0.0139375
v -0.048622 0.0408373 0.013517
v 0.0384347 -0.0440533 0.0195142
v 0.0376182 -0.0509486 0.0184869
v 0.0294679 -0.0554986 0.0182174
v 0.0215527 -0.0589964 0.0176484
v 0.010127 -0.0561329 0.0169806
v 0.00383322 -0.0636511 0.0165094
v -0.0049947 -0.0567019 0.0159292
v -0.0141625 -0.0620949 0.0153974
v -0.0163863 -0.0541982 0.0150935
v -0.0349208 -0.0530718 0.0139375
v -0.0408373 -0.048622 0.013517
v -0.0319659 -0.0471915 0.0139159
v 0.0440534 0.0384345 0.0195142
v 0.0509484 0.0376186 0.0184868
v 0.0555117 0.0294493 0.0182151
v 0.0592752 0.0212762 0.0176135
v 0.0561329 0.010127 0.0169806
v 0.0636517 0.00382446 0.0165088
v 0.0567019 -0.0049947 0.0159292
v 0.0620947 -0.0141636 0.0153973
v 0.0541985 -0.0163825 0.0150938
v 0.0530717 -0.0349209 0.0139375
v 0.048622 -0.0408373 0.013517
v 0.0471915 -0.0319659 0.0139159
v -0.0384508 0.044036 0.0195162
v -0.0376177 0.0509484 0.0184876
v -0.0294944 0.0554725 0.0182284
v -0.0214301 0.0591427 0.0176627
v -0.0101759 0.0557871 0.0169672
v -0.00383327 0.0636511 0.0165094
v 0.0102986 0.0561817 0.0155528
v 0.0141625 0.0620949 0.0153974
v 0.031966 0.0471915 0.0139159
v 0.0349208 0.0530718 0.0139375
v 0.0408373 0.048622 0.013517
v -0.0593526 0.0203829 0.0249962
v -0.0569994 0.0265489 0.029768
v -0.0598243 0.0191084 0.0300228
v -0.0617172 0.0117386 0.0290206
v -0.0624419 0.00670637 0.0300187
v -0.0624801 0.00586767 0.0259397
v -0.0624551 0.00616954 0.0300491
v -0.0628302 -0.00097361 0.0300248
v -0.0615619 -0.0126559 0.0301046
v -0.0627357 -0.0015566 0.0264099
v -0.0596537 -0.0194915 0.0300436
v -0.061559 -0.012698 0.0289914
v -0.0582652 -0.0233101 0.0278253
v -0.0587142 -0.0224217 0.0297412
v -0.0572396 -0.0257304 0.0300423
v -0.0536983 -0.0327777 0.0283521
v -0.0553572 -0.0296169 0.0299526
v -0.0530257 -0.0335023 0.0300426
v -0.0503987 -0.0373868 0.0301356
v -0.0464633 -0.0422334 0.0299737
v -0.0464476 -0.0422311 0.0292422
v -0.0461849 -0.0424593 0.023045
v -0.0537534 -0.0326 0.022236
v -0.0563032 0.0277205 0.0183256
v -0.0555793 0.0295661 0.0226993
v -0.0598019 -0.0193375 0.0213927
v -0.0627293 -0.00498998 0.020385
v -0.0619903 0.0104183 0.0194839
v -0.0593438 0.020431 0.018727
v -0.0521993 0.0344173 0.0168915
v -0.0491735 0.0390002 0.0300576
v -0.0471105 0.0414595 0.0300475
v -0.0496963 0.0383623 0.0300112
v -0.051378 0.0360371 0.0254122
v -0.0510443 0.0364875 0.0300098
v -0.0559556 0.0294059 0.0365628
v -0.0534737 0.0328391 0.0239672
v -0.0203829 -0.0593526 0.0249962
v -0.0265742 -0.0569875 0.0296672
v -0.0191089 -0.0598247 0.0300231
v -0.0117395 -0.0617163 0.0290233
v -0.00670877 -0.0624364 0.0300247
v -0.00586767 -0.0624801 0.0259397
v -0.00616954 -0.0624551 0.0300491
v 0.00111191 -0.0627979 0.0300536
v 0.012659 -0.0615707 0.0301189
v 0.0126612 -0.0615722 0.0290009
v 0.0194915 -0.0596537 0.0300436
v 0.0233101 -0.0582652 0.0278253
v 0.0224144 -0.0587157 0.0297142
v 0.0257304 -0.0572396 0.0300423
v 0.0327779 -0.0536981 0.0283513
v 0.0296075 -0.0553627 0.0299529
v 0.0335098 -0.0530183 0.0300458
v 0.0373848 -0.0504003 0.0301358
v 0.0422328 -0.0464639 0.0299737
v 0.0422312 -0.0464476 0.0292422
v 0.0424593 -0.0461849 0.023045
v 0.0326 -0.0537534 0.022236
v -0.0277202 -0.0563033 0.0183259
v -0.0295622 -0.0555814 0.0227044
v 0.0193375 -0.0598019 0.0213927
v 0.00499589 -0.0627284 0.0203848
v 0.0015566 -0.0627357 0.0264099
v -0.0104183 -0.0619903 0.0194839
v -0.020431 -0.0593438 0.018727
v -0.0344186 -0.0521984 0.0168895
v -0.0390002 -0.0491735 0.0300576
v -0.0414577 -0.0471122 0.0300476
v -0.0383587 -0.0496987 0.0300112
v -0.0360371 -0.051378 0.0254122
v -0.0364875 -0.0510443 0.0300098
v -0.0294092 -0.055953 0.0365494
v -0.032844 -0.0534727 0.0239619
v 0.0593526 -0.0203829 0.0249962
v 0.0569993 -0.026549 0.0297674
v 0.0598238 -0.0191097 0.0300228
v 0.0617171 -0.0117389 0.0290206
v 0.062442 -0.00670636 0.0300187
v 0.0624801 -0.00586767 0.0259397
v 0.0624551 -0.00616954 0.0300491
v 0.0628302 0.00097362 0.0300248
v 0.0615619 0.0126559 0.0301046
v 0.0627357 0.0015566 0.0264099
v 0.0596537 0.0194915 0.0300436
v 0.061559 0.012698 0.0289914
v 0.0582652 0.0233101 0.0278253
v 0.0587142 0.0224217 0.0297412
v 0.0572396 0.0257304 0.0300423
v 0.0536983 0.0327777 0.0283521
v 0.0553572 0.0296169 0.0299526
v 0.0530257 0.0335023 0.0300426
v 0.0503987 0.0373868 0.0301356
v 0.0464633 0.0422334 0.0299737
v 0.0464476 0.0422311 0.0292422
v 0.0461849 0.0424593 0.023045
v 0.0537534 0.0326 0.022236
v 0.0563033 -0.0277205 0.018326
v 0.0555791 -0.0295665 0.0226982
v 0.0598019 0.0193375 0.0213927
v 0.0627293 0.00498998 0.020385
v 0.0619903 -0.0104183 0.0194839
v 0.0593438 -0.020431 0.018727
v 0.0521982 -0.0344187 0.0168894
v 0.0491735 -0.0390002 0.0300576
v 0.0471122 -0.0414577 0.0300476
v 0.0496963 -0.0383623 0.0300112
v 0.051378 -0.0360371 0.0254122
v 0.0510443 -0.0364875 0.0300098
v 0.0559556 -0.0294059 0.0365628
v 0.0534728 -0.0328438 0.023962
v 0.0203829 0.0593526 0.0249962
v 0.0261146 0.0570836 0.0301963
v 0.0191086 0.0598248 0.0300231
v 0.0117393 0.0617163 0.0290234
v 0.00670868 0.0624364 0.0300247
v 0.00586767 0.0624801 0.0259397
v 0.00616954 0.0624551 0.0300491
v -0.00111192 0.0627979 0.0300536
v -0.012659 0.0615707 0.0301189
v -0.0126613 0.0615722 0.0290009
v -0.0194915 0.0596537 0.0300436
v -0.0233101 0.0582652 0.0278253
v -0.0224144 0.0587157 0.0297142
v -0.0257304 0.0572396 0.0300423
v -0.0327761 0.053699 0.0283507
v -0.0296075 0.0553627 0.0299529
v -0.0335098 0.0530183 0.0300459
v -0.0373848 0.0504004 0.0301358
v -0.0422328 0.0464639 0.0299737
v -0.0422322 0.0464469 0.0292422
v -0.042437 0.0462027 0.0230462
v -0.0325961 0.0537556 0.0222371
v 0.0277202 0.0563033 0.0183258
v 0.0296014 0.0555558 0.0226359
v -0.0193376 0.0598019 0.0213925
v -0.0049959 0.0627284 0.0203848
v -0.0015566 0.0627357 0.0264099
v 0.0104183 0.0619903 0.0194839
v 0.020431 0.0593438 0.018727
v 0.0344186 0.0521984 0.0168895
v 0.0390002 0.0491735 0.0300576
v 0.0414577 0.0471122 0.0300476
v 0.0383587 0.0496987 0.0300112
v 0.0360371 0.051378 0.0254122
v 0.0364875 0.0510443 0.0300098
v 0.0294092 0.055953 0.0365494
v 0.032844 0.0534727 0.0239619
v -0.0580913 0.0274931 0.0269667
v -0.061949 0.0173495 0.0335406
v -0.0586183 0.027211 0.0351313
v -0.0615306 0.0186152 0.0159842
v -0.0635096 0.0101896 0.0164528
v -0.0639093 0.00769702 0.0340012
v -0.0643615 -0.0006951 0.0171988
v -0.0643412 -0.00270321 0.0342781
v -0.0634716 -0.0103087 0.0178669
v -0.0605795 -0.0218799 0.0186412
v -0.0604855 -0.0218426 0.0339815
v -0.0632371 -0.0120946 0.0343753
v -0.0566828 -0.030366 0.0191738
v -0.0586194 -0.0265354 0.0333716
v -0.0567481 -0.0301283 0.012
v -0.0602627 -0.0222815 0.012
v -0.0519588 -0.0378052 0.0195663
v -0.0540155 -0.0350072 0.0343322
v -0.0499438 -0.0405101 0.0340163
v -0.0472627 -0.0435446 0.0187975
v -0.0432541 -0.0475331 0.0199955
v -0.0437795 -0.0472787 0.0345073
v -0.0372795 -0.0524879 0.0344452
v -0.0362136 -0.053145 0.0224739
v -0.0321546 -0.0556041 0.0278606
v -0.0539639 0.0350224 0.0170966
v -0.0581093 0.0278005 0.0150798
v -0.0593346 -0.0214022 0.0134627
v -0.0498244 0.0407792 0.0145348
v 0.052492 -0.037272 0.0344213
v 0.0531453 -0.0362132 0.0224742
v 0.0556048 -0.0321535 0.0278626
v 0.0472664 -0.0437956 0.0345408
v 0.0475331 -0.0432541 0.0199955
v 0.0405935 -0.049876 0.0341986
v 0.0435329 -0.0472736 0.0187969
v 0.0348278 -0.0541241 0.0342491
v 0.0378052 -0.0519587 0.0195663
v 0.0303664 -0.0566828 0.0191737
v 0.0249256 -0.059525 0.0345183
v 0.0221288 -0.0603526 0.0324943
v 0.0222815 -0.0602627 0.012
v 0.0218721 -0.0604112 0.01858
v 0.0132349 -0.0630163 0.0178689
v 0.00068284 -0.0643611 0.0171995
v 0.00341561 -0.0643295 0.0346055
v -0.00680852 -0.0639958 0.0339174
v -0.0101524 -0.0635163 0.0164538
v -0.0173151 -0.0619906 0.0343238
v -0.0186152 -0.0615306 0.0159842
v -0.0274034 -0.0581264 0.027158
v -0.0271347 -0.0586809 0.0353229
v -0.0350008 -0.0539803 0.0171057
v -0.0278035 -0.0581077 0.0150769
v 0.0214188 -0.0593447 0.0134563
v -0.0407792 -0.0498244 0.0145348
v 0.0437795 0.0472787 0.0345073
v 0.0432541 0.0475331 0.0199955
v 0.0362136 0.053145 0.0224739
v 0.0321546 0.0556041 0.0278606
v 0.0372795 0.0524879 0.0344452
v 0.0499438 0.0405101 0.0340163
v 0.0472627 0.0435446 0.0187975
v 0.0540155 0.0350072 0.0343322
v 0.0519588 0.0378052 0.0195663
v 0.0586194 0.0265354 0.0333716
v 0.0566828 0.030366 0.0191738
v 0.0604856 0.0218425 0.0339815
v 0.0605795 0.0218795 0.0186397
v 0.0602627 0.0222815 0.012
v 0.0567481 0.0301283 0.012
v 0.0632371 0.0120946 0.0343753
v 0.0634716 0.0103087 0.0178669
v 0.0643615 0.0006951 0.0171988
v 0.0643412 0.00270321 0.0342781
v 0.0639093 -0.00769702 0.0340012
v 0.0635096 -0.0101896 0.0164528
v 0.061949 -0.0173495 0.0335406
v 0.0615306 -0.0186152 0.0159842
v 0.0580912 -0.0274931 0.0269667
v 0.0586186 -0.0272145 0.0351431
v 0.0539602 -0.0350282 0.0170905
v 0.0581093 -0.0278005 0.0150798
v 0.0593346 0.0214021 0.0134627
v 0.0498244 -0.0407792 0.0145348
v -0.0437307 -0.0363088 0.0231934
v -0.0428811 -0.0400703 0.0208063
v -0.0498721 -0.0310565 0.0199923
v -0.0479875 -0.0385742 0.0210049
v -0.0498369 -0.027134 0.0223447
v -0.054701 -0.0183717 0.0199961
v -0.0539461 -0.0179387 0.0216795
v -0.0559599 -0.0257896 0.0200866
v -0.0579024 -0.00200078 0.018796
v -0.0562153 -0.0077286 0.0209007
v -0.0566598 -0.0184389 0.0189403
v -0.0604964 -0.0117928 0.019102
v -0.0568351 0.00215955 0.0202931
v -0.0614297 0.00304916 0.0180633
v -0.0553006 0.0127187 0.0194527
v -0.0556882 0.0172307 0.0170941
v -0.0524147 0.0220019 0.0187913
v -0.0597259 -0.00151312 0.0178382
v -0.0577743 0.0202219 0.0165075
v -0.0485471 0.0316999 0.0158797
v -0.0472304 0.0314557 0.0181088
v -0.0438362 0.0369477 0.0157137
v -0.0475372 0.0373064 0.0151739
v -0.0370028 -0.0439359 0.0156135
v -0.0410501 -0.0490211 0.0148783
v 0.0383209 -0.0418423 0.0234055
v 0.0400733 -0.0428794 0.0208064
v 0.0303851 -0.0480323 0.0226473
v 0.030504 -0.0502582 0.0199314
v 0.0385742 -0.0479875 0.0210049
v 0.018374 -0.0547003 0.0199963
v 0.0209362 -0.0527414 0.0218632
v 0.0257896 -0.0559599 0.0200866
v 0.0115199 -0.0556944 0.0212298
v 0.00202476 -0.0579215 0.018766
v 0.0184386 -0.0566598 0.0189403
v 0.0117928 -0.0604964 0.019102
v -0.00185938 -0.0568532 0.0202504
v -0.00304916 -0.0614297 0.0180633
v -0.0126774 -0.0553109 0.0194532
v -0.0172653 -0.0556299 0.0170997
v -0.022161 -0.0523874 0.0188419
v 0.00151226 -0.0597262 0.0178382
v -0.0202507 -0.0577656 0.0165062
v -0.0319052 -0.0484563 0.0158552
v -0.0314562 -0.0472296 0.0180456
v -0.0373161 -0.047507 0.0151704
v 0.0439359 -0.0370028 0.0156135
v 0.0490211 -0.0410501 0.0148783
v 0.0437173 0.0363095 0.0232048
v 0.0428797 0.0400768 0.0208055
v 0.0498783 0.0310539 0.019991
v 0.0479874 0.0385742 0.0210049
v 0.0498017 0.0271975 0.0223405
v 0.0546983 0.0183789 0.0199969
v 0.0540207 0.0177489 0.0216635
v 0.0559599 0.0257896 0.0200866
v 0.0579171 0.00210947 0.0187829
v 0.0562087 0.00777885 0.0209007
v 0.0566599 0.018438 0.0189402
v 0.0604964 0.0117928 0.019102
v 0.0568016 -0.00225586 0.0202201
v 0.0614297 -0.00304916 0.0180633
v 0.0553093 -0.012682 0.0194578
v 0.0556335 -0.0172528 0.0171014
v 0.0524104 -0.0221 0.0188399
v 0.0597261 0.00151289 0.0178382
v 0.0577656 -0.0202504 0.0165061
v 0.0484561 -0.0319063 0.0158548
v 0.0472292 -0.0314568 0.018045
v 0.047507 -0.0373161 0.0151704
v 0.0370028 0.0439359 0.0156135
v 0.0410501 0.0490211 0.0148783
v -0.0383167 0.0418471 0.0233936
v -0.0396085 0.0432133 0.0208142
v -0.032946 0.046201 0.0228219
v -0.030425 0.0490813 0.0209052
v -0.0387467 0.047894 0.0210403
v -0.0245138 0.0513176 0.0221737
v -0.0183729 0.0547005 0.0199964
v -0.0313528 0.0507004 0.0199164
v -0.0257886 0.0559593 0.0200858
v -0.0144353 0.0548778 0.0213869
v -0.00211102 0.057916 0.0187837
v -0.00495868 0.0566322 0.0206808
v -0.0117927 0.0604964 0.019102
v 0.0058728 0.0564388 0.0199384
v -0.0184382 0.0566599 0.0189404
v 0.00304916 0.0614297 0.0180633
v 0.0126755 0.0553112 0.0194529
v 0.0173524 0.0556407 0.0170885
v 0.022116 0.0523839 0.0187602
v -0.0015117 0.0597263 0.0178381
v 0.0202509 0.0577656 0.0165062
v 0.0319061 0.0484561 0.0158549
v 0.0314568 0.0472292 0.0180449
v 0.0373161 0.047507 0.0151704
v -0.0490174 0.0410672 0.0148653
v 0.0289361 0.0583122 0.0372195
v 0.022553 0.0632215 0.0439164
v 0.0305026 0.0596133 0.0439003
v 0.0131106 0.0656978 0.0433125
v 0.00297218 0.0665827 0.0420039
v -0.0120127 0.0632785 0.0342834
v -0.0033993 0.0670181 0.043891
v -0.0157412 0.0652236 0.0435375
v -0.0275897 0.0611146 0.043819
v -0.0479584 0.0468365 0.0434861
v -0.0378581 0.0553973 0.0435764
v -0.0547881 0.037932 0.0418463
v -0.05755 0.0301321 0.0367639
v -0.0598496 0.0305612 0.0442236
v -0.0627273 0.0219111 0.0415671
v -0.066099 0.00847692 0.0419335
v -0.0659953 -0.0117359 0.0435297
v -0.063033 -0.0230731 0.0438698
v -0.0596955 -0.0290804 0.0414915
v -0.0560326 -0.0367643 0.0435432
v -0.0382576 -0.055193 0.043886
v -0.0301263 -0.0575522 0.036775
v -0.0485149 -0.0462773 0.0431154
v 0.0547881 -0.037932 0.0418463
v 0.05755 -0.0301321 0.0367639
v 0.0479584 -0.0468365 0.0434861
v 0.0378585 -0.055397 0.0435765
v 0.027602 -0.0611086 0.0438228
v 0.0155313 -0.0652892 0.0435809
v 0.0120151 -0.0632782 0.0342829
v 0.00126195 -0.0671416 0.043873
v -0.00998946 -0.0661583 0.0433637
v -0.0215212 -0.063629 0.0438721
v -0.03049 -0.059615 0.0439588
v 0.0382576 0.055193 0.043886
v 0.0485149 0.0462773 0.0431154
v 0.0301263 0.0575522 0.036775
v 0.0560326 0.0367643 0.0435432
v 0.0596955 0.0290804 0.0414915
v 0.063033 0.0230731 0.0438698
v 0.0659953 0.0117359 0.0435297
v 0.0670208 0.00236549 0.0438129
v 0.0660993 -0.00847427 0.0419334
v 0.0598583 -0.0305575 0.0442307
v 0.062729 -0.0219036 0.0415635
v -0.0594868 0.0313098 0.043935
v -0.0656888 0.012888 0.0441858
v 0.0594868 -0.0313098 0.043935
v 0.0656889 -0.0128873 0.0441859
v -0.0670208 -0.00236542 0.0438128
v 0.0291641 0.0587283 0.045107
v 0.0133675 0.0650459 0.0449727
v -5.494e-05 0.0655228 0.0450682
v -0.0147191 0.0647165 0.0449838
v -0.036213 0.0558686 0.0449822
v -0.0579149 0.029958 0.0450884
v -0.050708 0.042923 0.0449747
v -0.0628941 0.0201214 0.0450097
v -0.0584439 0.0289542 0.0450405
v -0.0662471 0.00234669 0.045008
v -0.064272 -0.0163104 0.0449961
v -0.0568602 -0.032809 0.0451367
v -0.0306164 -0.0581966 0.0451418
v -0.0484122 -0.045579 0.0449264
v -0.0310295 -0.0593642 0.0436972
v -0.029142 -0.0587353 0.0451024
v -0.0131934 -0.0650178 0.044984
v 0.0579149 -0.029958 0.0450884
v 0.050708 -0.042923 0.0449747
v 0.036214 -0.0558678 0.0449821
v 0.014724 -0.0647145 0.0449836
v 7.383e-05 -0.0655234 0.0450704
v 0.0628901 -0.020133 0.0450104
v 0.0583832 -0.0288644 0.0450338
v 0.0306164 0.0581966 0.0451418
v 0.0484122 0.045579 0.0449264
v 0.064272 0.0163104 0.0449961
v 0.0568602 0.032809 0.0451367
v 0.0662473 -0.00234933 0.0450079
v 0.0310295 0.0593642 0.0436972
v -0.0237773 0.060059 0.0449929
v -0.037073 0.0529396 0.0449956
v -0.0485974 0.0426964 0.0449881
v -0.0636404 0.0103161 0.044995
v -0.0639689 -0.00852266 0.0449661
v -0.0425915 -0.0484741 0.0449991
v 0.0485974 -0.0426964 0.0449881
v 0.037073 -0.0529396 0.0449956
v 0.0237773 -0.060059 0.0449929
v 0.0425915 0.0484741 0.0449991
v 0.063969 0.00852236 0.0449662
v 0.0636396 -0.010317 0.0449945
v 0.0262981 0.0573176 0.0343444
v 0.0283348 0.0571647 0.0442743
v 0.0194245 0.0606674 0.044068
v 0.0122463 0.0625851 0.0442845
v -0.00086896 0.0638879 0.0442048
v -0.0224598 0.0596785 0.0442665
v -0.0316117 0.0553869 0.0443272
v -0.0406928 0.0491044 0.0442907
v -0.0445851 0.0441462 0.0300001
v -0.0452133 0.044887 0.0442539
v -0.0491975 0.0407484 0.0441917
v -0.0573364 0.0262924 0.0345135
v -0.0571611 0.0283302 0.0441996
v -0.0606674 0.0194245 0.044068
v -0.062587 0.0122511 0.0442292
v -0.0638692 -0.00108433 0.044029
v -0.0596089 -0.0226268 0.0440928
v -0.0566199 -0.0291896 0.044068
v -0.0531092 -0.035292 0.0441582
v -0.0482775 -0.0415843 0.0443131
v -0.0441462 -0.0445851 0.0300001
v -0.0448667 -0.0452308 0.0442112
v -0.04071 -0.0492213 0.0439434
v 0.0491975 -0.0407484 0.0441917
v 0.0445851 -0.0441462 0.0300001
v 0.0452133 -0.044887 0.0442539
v 0.0406928 -0.0491044 0.0442907
v 0.0316117 -0.0553869 0.0443272
v 0.0224598 -0.0596785 0.0442665
v 0.00086621 -0.0638881 0.0442045
v -0.0122608 -0.0625823 0.0442863
v -0.0194245 -0.0606674 0.044068
v -0.0263135 -0.0573256 0.0345731
v -0.0283316 -0.05717 0.0442602
v 0.04071 0.0492213 0.0439434
v 0.0441462 0.0445851 0.0300001
v 0.0448667 0.0452308 0.0442112
v 0.0482775 0.0415843 0.0443131
v 0.0531092 0.035292 0.0441582
v 0.0566199 0.0291896 0.044068
v 0.0596089 0.0226268 0.0440928
v 0.0638698 0.00107621 0.044029
v 0.0625763 -0.0123178 0.0442301
v 0.0606674 -0.0194245 0.044068
v 0.0573368 -0.0262918 0.0345138
v 0.0571583 -0.028335 0.0442128
v -0.0131328 0.0624004 0.0442673
v -0.0566576 0.0293153 0.0441789
v -0.0291052 -0.056827 0.0442855
v -0.0623438 -0.0133555 0.0440626
v 0.0566576 -0.0293153 0.0441789
v 0.0131329 -0.0624004 0.0442672
v 0.0291052 0.056827 0.0442855
v 0.0623438 0.0133555 0.0440626
v -0.0440002 0.035977 0.0444984
v -0.0469933 0.0318798 0.0300073
v -0.0424722 0.0376615 0.0356418
v -0.0375778 -0.042571 0.0343132
v -0.0393016 -0.0409219 0.0443982
v -0.0457528 -0.0337129 0.0444611
v -0.0519534 -0.0230987 0.0444415
v -0.0554572 -0.0121869 0.0444182
v -0.0565317 -0.00492968 0.0444267
v -0.0565184 0.00571786 0.0444319
v -0.0542386 0.0170234 0.0444246
v -0.0499688 0.0269768 0.0444061
v 0.0363071 0.0416822 0.0450473
v 0.0418223 0.03793 0.0450422
v 0.0312898 0.0471818 0.0450328
v 0.0185415 0.0527015 0.0450883
v 0.0479018 0.0287595 0.0450589
v 0.0558299 0.00531843 0.04504
v 0.0530686 0.0193479 0.0450439
v 0.052158 -0.0200866 0.0450605
v 0.0557311 -0.00904832 0.0450417
v 0.0334344 -0.0439048 0.0450402
v 0.0389413 -0.0410844 0.0450334
v 0.0467778 -0.0307341 0.0450406
v 0.0244525 -0.0511306 0.0450462
v 0.0159547 -0.0529936 0.0449971
v 0.00732707 -0.0560493 0.045032
v -0.00721462 -0.0555898 0.0450609
v -0.0503041 -0.0262416 0.0450453
v -0.0472628 -0.0286569 0.0449775
v -0.0547866 -0.0116588 0.0450904
v -0.0272652 -0.0480861 0.0449825
v -0.0252089 -0.0508144 0.0450433
v -0.0387169 -0.0402148 0.0451257
v -0.0321073 -0.0468064 0.0282095
v -0.0258221 -0.0505781 0.0444503
v -0.0331092 -0.0461457 0.0445002
v 0.0424289 -0.0377098 0.0359235
v 0.0389387 -0.0414241 0.0364969
v 0.029651 -0.0486245 0.0444613
v 0.0187537 -0.0536153 0.0444302
v 0.00763114 -0.0562897 0.0444427
v -0.00442147 -0.0567246 0.0444365
v -0.0156301 -0.0545882 0.0444472
v 0.0376 0.0425405 0.034108
v 0.0366044 0.0433547 0.0444968
v 0.0457752 -0.0336748 0.044516
v 0.0470348 -0.0318207 0.0295789
v 0.0420782 0.0381402 0.0358858
v 0.0450572 0.0346988 0.0444387
v 0.0504441 0.0260783 0.0444378
v 0.054538 0.0160741 0.0444161
v 0.0564242 0.00641698 0.0444503
v 0.0566661 -0.0049774 0.0444097
v 0.0547403 -0.0149386 0.0444077
v 0.0511921 -0.0246266 0.0444319
v 0.0321164 0.046836 0.03002
v -0.037886 0.0423241 0.0359667
v -0.0329881 0.0463545 0.044445
v -0.0214217 0.0526189 0.0444524
v -0.0142162 0.0549484 0.0444148
v -0.00745501 0.056309 0.0444446
v 0.0042973 0.0567395 0.0444236
v 0.0138554 0.0550297 0.0444262
v 0.0207765 0.0528635 0.0444213
v 0.0287223 0.0489779 0.0444442
v 0.0397516 -0.0404803 0.0445082
v 0.00119172 0.0558692 0.045073
v -0.013431 0.0540974 0.0451079
v -0.0284886 0.0482624 0.045094
v -0.043164 0.0356523 0.0451344
v -0.051518 0.0218943 0.0450296
v -0.0556215 0.00557746 0.0450842
v 0.0284818 0.0571643 0.0368102
v 0.0288615 0.0569656 0.0379948
v 0.0373698 0.0518195 0.021044
v 0.0571627 -0.0284801 0.0368046
v 0.056965 -0.0288612 0.0379945
v 0.0518195 -0.0373698 0.021044
v -0.0284844 -0.0571659 0.0368098
v -0.0288615 -0.0569656 0.0379948
v -0.0373698 -0.0518195 0.021044
v -0.0571656 0.0284819 0.0368101
v -0.056965 0.0288612 0.0379945
v -0.0518195 0.0373698 0.021044
v -0.0433139 0.0418686 0.0206157
v -0.0418386 -0.0433755 0.0206199
v 0.0433755 -0.0418386 0.0206199
v 0.0418386 0.0433755 0.0206199
v 0.0553154 0.0292003 0.0134103
v 0.054531 0.0280613 0.0120637
v 0.0575611 0.0213663 0.0119743
v 0.0572792 0.0218082 0.0134915
v 0.0301283 -0.0567481 0.012
v 0.029185 -0.0553091 0.0133988
v 0.0280613 -0.054531 0.0120637
v 0.0213663 -0.0575611 0.0119743
v 0.0218082 -0.0572792 0.0134915
v -0.0553154 -0.0292003 0.0134103
v -0.054531 -0.0280613 0.0120637
v -0.0575611 -0.0213663 0.0119743
v -0.0572792 -0.0218082 0.0134915
v -0.0292184 0.055282 0.0134171
v -0.0218058 0.0572802 0.0134959
v -0.0433213 0.0375066 0.0163857
v -0.0453022 0.038927 0.0149505
v -0.0488691 0.0417118 0.0134669
v -0.048203 0.0413647 0.0150042
v -0.0434079 0.0467462 0.0143165
v -0.0458872 0.0452312 0.0131863
v 0.0374832 0.0433463 0.0163861
v 0.0357308 0.0418137 0.0134659
v 0.0389271 0.0453018 0.01495
v 0.0417118 0.0488691 0.0134669
v 0.0418731 0.0480233 0.0149195
v 0.0467926 0.0437364 0.0145306
v 0.0453363 0.0456827 0.0131692
v 0.0433456 -0.0374826 0.0163869
v 0.0418137 -0.0357308 0.0134659
v 0.0452998 -0.0389246 0.0149516
v 0.0488691 -0.0417118 0.0134669
v 0.0482146 -0.0413488 0.0150161
v 0.0433301 -0.0468257 0.0142961
v 0.0463481 -0.0444963 0.0132337
v 0.0435918 -0.0471998 0.0129951
v -0.0374818 -0.0433414 0.0163986
v -0.0357308 -0.0418137 0.0134659
v -0.0389251 -0.0453 0.0149523
v -0.0417118 -0.0488691 0.0134669
v -0.0413488 -0.0482146 0.0150161
v -0.0468257 -0.0433301 0.0142961
v -0.0444963 -0.0463481 0.0132337
v -0.0471998 -0.0435918 0.0129951
v 0.0145636 -0.053814 0.0280457
v 0.0056307 -0.0554648 0.0280457
v -0.00345175 -0.0556429 0.0280457
v -0.0124425 -0.0543436 0.0280457
v -0.021103 -0.0516014 0.0280457
v -0.0292031 -0.0474892 0.0280457
v 0.0145636 -0.053814 0.0350457
v 0.0056307 -0.0554648 0.0350457
v -0.00345175 -0.0556429 0.0350457
v -0.0124425 -0.0543436 0.0350457
v -0.021103 -0.0516014 0.0350457
v -0.0292031 -0.0474892 0.0350457
v 0.053814 0.0145636 0.0280457
v 0.0554648 0.0056307 0.0280457
v 0.0556429 -0.00345175 0.0280457
v 0.0543436 -0.0124425 0.0280457
v 0.0516014 -0.021103 0.0280457
v 0.0474892 -0.0292031 0.0280457
v 0.053814 0.0145636 0.0350457
v 0.0554648 0.0056307 0.0350457
v 0.0556429 -0.00345175 0.0350457
v 0.0543436 -0.0124425 0.0350457
v 0.0516014 -0.021103 0.0350457
v 0.0474892 -0.0292031 0.0350457
v 0.0292031 0.0474892 0.0280457
v 0.021103 0.0516014 0.0280457
v 0.0124425 0.0543436 0.0280457
v 0.00345175 0.0556429 0.0280457
v -0.0056307 0.0554648 0.0280457
v -0.0145636 0.053814 0.0280457
v 0.0292031 0.0474892 0.0350457
v 0.021103 0.0516014 0.0350457
v 0.0124425 0.0543436 0.0350457
v 0.00345175 0.0556429 0.0350457
v -0.0056307 0.0554648 0.0350457
v -0.0145636 0.053814 0.0350457
v -0.0474892 0.0292031 0.0280457
v -0.0516014 0.021103 0.0280457
v -0.0543436 0.0124425 0.0280457
v -0.0556429 0.00345175 0.0280457
v -0.0554648 -0.0056307 0.0280457
v -0.053814 -0.0145636 0.0280457
v -0.0474892 0.0292031 0.0350457
v -0.0516014 0.021103 0.0350457
v -0.0543436 0.0124425 0.0350457
v -0.0556429 0.00345175 0.0350457
v -0.0554648 -0.0056307 0.0350457
v -0.053814 -0.0145636 0.0350457
f 1 2 3
f 1 4 2
f 1 5 4
f 6 7 1
f 7 5 1
f 8 9 10
f 11 12 9
f 13 11 9
f 8 13 9
f 14 15 11
f 15 12 11
f 12 15 16
f 17 18 19
f 17 20 18
f 21 20 22
f 23 24 25
f 23 26 24
f 26 27 24
f 27 28 24
f 29 30 27
f 30 28 27
f 31 32 28
f 30 31 28
f 33 34 35
f 36 33 35
f 33 36 37
f 36 38 37
f 39 40 36
f 40 38 36
f 41 42 43
f 41 44 42
f 44 45 42
f 45 46 42
f 47 45 48
f 47 46 45
f 46 47 49
f 50 51 52
f 50 53 51
f 54 55 50
f 55 53 50
f 56 57 58
f 59 60 57
f 61 59 57
f 56 61 57
f 62 60 63
f 60 62 64
f 65 66 67
f 4 68 65
f 68 66 65
f 69 6 66
f 68 69 66
f 68 70 69
f 70 71 72
f 68 71 70
f 73 74 75
f 76 73 75
f 76 77 73
f 76 78 77
f 79 80 81
f 82 79 81
f 82 83 79
f 82 84 83
f 82 85 84
f 86 17 19
f 87 88 86
f 88 17 86
f 89 22 17
f 88 89 17
f 88 90 89
f 90 91 92
f 88 91 90
f 93 94 95
f 96 93 95
f 96 97 93
f 96 98 99
f 97 96 99
f 100 50 52
f 101 100 102
f 101 50 100
f 103 54 50
f 101 103 50
f 101 104 103
f 104 105 106
f 101 105 104
f 107 108 109
f 110 107 109
f 110 111 107
f 110 112 113
f 111 110 113
f 114 115 116
f 117 114 118
f 117 115 114
f 119 39 115
f 117 119 115
f 117 120 119
f 120 121 122
f 117 121 120
f 80 123 81
f 19 124 123
f 125 19 123
f 84 125 123
f 80 84 123
f 19 18 124
f 18 126 124
f 126 127 124
f 127 128 124
f 128 29 124
f 23 25 124
f 29 23 124
f 3 129 10
f 129 4 10
f 4 130 10
f 130 131 10
f 14 8 10
f 10 131 14
f 4 67 132
f 133 4 132
f 132 134 135
f 75 74 134
f 74 78 134
f 78 135 134
f 94 136 95
f 94 99 136
f 99 137 136
f 101 102 137
f 52 138 136
f 102 52 136
f 139 140 138
f 52 51 138
f 51 139 138
f 141 142 138
f 142 63 138
f 140 141 138
f 56 58 138
f 63 56 138
f 143 41 43
f 143 144 48
f 35 34 143
f 34 37 143
f 37 144 143
f 48 41 143
f 145 116 35
f 146 118 145
f 118 116 145
f 109 108 145
f 108 113 145
f 113 146 145
f 80 147 148
f 147 149 150
f 125 87 19
f 87 18 19
f 149 151 152
f 29 153 154
f 151 155 156
f 153 157 158
f 155 159 160
f 157 161 162
f 159 163 164
f 161 165 166
f 163 8 14
f 165 167 168
f 67 4 129
f 167 169 168
f 170 78 74
f 169 99 94
f 171 170 172
f 102 51 52
f 173 171 174
f 63 175 176
f 175 177 178
f 179 173 180
f 177 181 182
f 183 179 184
f 181 185 186
f 187 183 188
f 185 189 190
f 48 187 191
f 189 192 193
f 116 118 34
f 118 37 34
f 192 194 193
f 194 113 108
f 85 125 84
f 195 88 87
f 125 195 87
f 20 126 18
f 128 30 29
f 196 15 14
f 5 197 4
f 197 130 4
f 133 68 4
f 76 135 78
f 98 137 99
f 53 139 51
f 142 62 63
f 198 47 48
f 38 199 37
f 199 144 37
f 146 117 118
f 112 146 113
f 200 125 85
f 201 135 76
f 202 137 98
f 203 146 112
f 204 30 128
f 205 62 142
f 206 47 198
f 207 62 205
f 208 47 206
f 126 209 127
f 210 30 204
f 5 211 197
f 140 212 141
f 38 206 199
f 131 211 213
f 5 213 211
f 53 140 139
f 209 210 204
f 212 207 205
f 126 210 209
f 140 207 212
f 38 208 206
f 214 7 215
f 16 215 6
f 216 215 217
f 218 7 214
f 217 219 216
f 219 220 216
f 220 218 214
f 219 218 220
f 216 131 130
f 197 214 130
f 197 220 214
f 197 211 220
f 211 131 216
f 220 211 216
f 214 215 130
f 218 5 7
f 213 5 218
f 15 196 217
f 213 219 196
f 213 218 219
f 6 1 66
f 132 67 3
f 66 1 3
f 67 66 3
f 221 222 22
f 222 21 22
f 32 221 22
f 223 221 31
f 224 21 222
f 31 225 223
f 225 224 223
f 226 21 224
f 225 226 224
f 128 127 222
f 221 204 128
f 223 204 221
f 209 224 222
f 127 209 222
f 224 209 204
f 224 204 223
f 21 126 20
f 226 126 21
f 226 210 126
f 30 225 31
f 210 225 30
f 210 226 225
f 227 40 228
f 49 228 39
f 229 230 49
f 230 228 49
f 231 40 227
f 229 232 230
f 232 227 230
f 232 231 227
f 228 198 144
f 199 228 144
f 230 198 228
f 230 206 198
f 199 227 228
f 206 227 199
f 230 227 206
f 231 38 40
f 231 208 38
f 208 229 47
f 232 229 208
f 208 231 232
f 39 36 115
f 115 36 35
f 116 115 35
f 233 234 54
f 234 55 54
f 64 233 54
f 235 233 236
f 237 55 234
f 238 237 234
f 236 239 235
f 239 238 235
f 239 237 238
f 142 141 234
f 233 205 142
f 235 205 233
f 212 234 141
f 212 238 234
f 238 212 205
f 238 205 235
f 237 53 55
f 140 53 237
f 237 239 140
f 207 236 62
f 239 236 207
f 240 241 242
f 243 244 240
f 245 246 244
f 245 247 246
f 247 248 249
f 248 250 249
f 251 252 249
f 249 250 251
f 251 253 252
f 251 254 253
f 254 255 253
f 256 257 258
f 254 258 255
f 257 256 259
f 259 260 261
f 262 263 241
f 264 263 262
f 265 250 248
f 266 263 264
f 250 267 268
f 269 250 265
f 269 270 250
f 271 272 57
f 60 271 57
f 273 274 272
f 271 273 272
f 273 275 274
f 275 276 274
f 277 278 279
f 275 277 276
f 278 280 279
f 278 281 280
f 281 282 283
f 282 284 283
f 284 110 283
f 110 109 283
f 282 285 284
f 286 76 75
f 287 288 286
f 288 76 286
f 289 288 287
f 290 289 287
f 291 290 292
f 293 294 291
f 293 295 296
f 295 297 296
f 298 299 300
f 42 299 298
f 46 299 42
f 289 301 288
f 302 303 25
f 304 305 306
f 132 3 10
f 95 136 305
f 143 43 35
f 307 308 309
f 310 286 75
f 310 287 286
f 292 287 310
f 311 292 310
f 312 292 311
f 313 312 311
f 293 312 313
f 295 293 313
f 314 295 313
f 297 295 314
f 298 297 314
f 43 298 314
f 42 298 43
f 315 302 24
f 28 315 24
f 316 317 302
f 315 316 302
f 316 318 317
f 318 319 317
f 320 321 322
f 318 320 319
f 321 323 322
f 321 324 323
f 324 325 326
f 325 327 326
f 327 96 326
f 96 95 326
f 325 328 327
f 272 329 58
f 57 272 58
f 272 274 329
f 274 330 329
f 274 276 330
f 276 279 331
f 279 280 331
f 280 308 307
f 308 283 309
f 283 109 309
f 332 82 81
f 333 82 332
f 334 333 332
f 335 334 332
f 336 335 337
f 338 339 336
f 338 340 341
f 340 342 341
f 343 344 345
f 9 344 343
f 12 344 9
f 334 346 333
f 24 302 25
f 302 317 303
f 317 347 303
f 317 319 347
f 319 348 347
f 319 322 348
f 322 306 348
f 322 323 306
f 323 304 306
f 304 326 305
f 326 95 305
f 349 332 81
f 337 332 349
f 350 337 349
f 351 350 349
f 338 350 351
f 340 338 351
f 352 340 351
f 342 340 352
f 353 342 352
f 343 342 353
f 10 9 353
f 9 343 353
f 354 355 356
f 357 358 359
f 360 355 354
f 357 360 358
f 360 354 358
f 361 362 363
f 364 365 366
f 367 362 361
f 364 367 365
f 367 361 365
f 368 369 370
f 371 372 373
f 374 369 368
f 371 374 372
f 374 368 372
f 375 376 377
f 378 379 380
f 381 376 375
f 378 381 379
f 381 375 379
f 362 110 284
f 39 362 382
f 383 384 364
f 385 49 39
f 384 386 385
f 385 387 49
f 386 387 385
f 388 389 387
f 388 390 389
f 388 391 390
f 392 390 391
f 393 392 391
f 394 301 392
f 96 327 369
f 54 369 395
f 396 397 371
f 398 64 54
f 399 64 398
f 400 399 398
f 400 401 399
f 400 402 401
f 402 403 401
f 402 404 403
f 405 285 406
f 82 333 376
f 22 376 407
f 408 409 378
f 410 32 22
f 411 32 410
f 412 411 410
f 412 413 411
f 412 414 413
f 414 415 413
f 414 416 415
f 417 328 418
f 355 76 288
f 6 355 419
f 420 421 357
f 421 422 16
f 422 423 16
f 424 423 422
f 424 425 423
f 424 426 425
f 427 425 426
f 427 426 428
f 429 346 427
f 430 431 432
f 433 430 432
f 434 435 433
f 436 435 434
f 436 437 435
f 437 438 439
f 440 441 438
f 442 441 440
f 443 442 440
f 444 442 443
f 445 442 444
f 446 445 444
f 447 445 446
f 448 445 447
f 449 450 448
f 450 445 448
f 366 451 450
f 451 452 445
f 453 454 430
f 452 442 445
f 455 441 442
f 452 455 442
f 456 439 441
f 455 456 441
f 456 435 439
f 457 433 435
f 456 457 435
f 457 458 430
f 458 453 430
f 453 459 454
f 460 359 461
f 462 463 460
f 463 359 460
f 464 463 462
f 465 466 464
f 466 463 464
f 466 359 463
f 466 357 359
f 467 468 469
f 470 467 469
f 471 472 470
f 473 472 471
f 473 474 472
f 474 475 476
f 477 476 475
f 478 476 477
f 479 478 477
f 480 478 479
f 481 478 480
f 482 481 480
f 483 481 482
f 484 481 483
f 485 486 484
f 486 481 484
f 373 487 486
f 487 488 481
f 489 490 467
f 488 478 481
f 491 476 478
f 488 491 478
f 492 493 476
f 491 492 476
f 492 472 493
f 494 470 472
f 492 494 472
f 494 495 467
f 495 489 467
f 489 496 490
f 497 366 498
f 499 500 497
f 500 366 497
f 501 500 499
f 502 503 501
f 503 500 501
f 503 366 500
f 503 364 366
f 504 505 506
f 507 504 506
f 508 509 507
f 510 509 508
f 510 511 509
f 511 512 513
f 514 515 512
f 516 515 514
f 517 516 514
f 518 516 517
f 519 516 518
f 520 519 518
f 521 519 520
f 522 519 521
f 523 524 522
f 524 519 522
f 380 525 524
f 525 526 519
f 527 528 504
f 526 516 519
f 529 515 516
f 526 529 516
f 530 513 515
f 529 530 515
f 530 509 513
f 531 507 509
f 530 531 509
f 531 532 504
f 532 527 504
f 527 533 528
f 534 373 535
f 536 537 534
f 537 373 534
f 538 537 536
f 539 540 538
f 540 537 538
f 540 373 537
f 540 371 373
f 541 542 543
f 544 541 543
f 545 546 544
f 547 546 545
f 547 548 546
f 548 549 550
f 551 550 549
f 552 550 551
f 553 552 551
f 554 552 553
f 555 552 554
f 556 555 554
f 557 555 556
f 558 555 557
f 559 560 558
f 560 555 558
f 359 561 560
f 561 562 555
f 563 564 541
f 562 552 555
f 565 550 552
f 562 565 552
f 566 567 550
f 565 566 550
f 566 546 567
f 568 544 546
f 566 568 546
f 568 569 541
f 569 563 541
f 563 570 564
f 571 380 572
f 573 574 571
f 574 380 571
f 575 574 573
f 576 577 575
f 577 574 575
f 577 380 574
f 577 378 380
f 578 579 580
f 579 578 581
f 582 583 579
f 584 585 583
f 584 586 585
f 587 588 589
f 590 591 588
f 592 590 588
f 587 593 588
f 593 592 588
f 590 594 595
f 594 596 595
f 594 597 596
f 598 599 597
f 600 601 602
f 599 598 601
f 603 604 578
f 605 593 587
f 606 604 603
f 607 608 609
f 610 611 608
f 612 613 610
f 614 615 612
f 615 613 612
f 616 615 614
f 617 616 614
f 618 616 617
f 618 619 616
f 620 619 618
f 621 620 618
f 622 621 623
f 624 625 622
f 626 627 625
f 626 628 627
f 629 628 626
f 630 631 628
f 632 619 620
f 633 631 630
f 634 635 636
f 636 637 638
f 639 640 634
f 641 642 639
f 642 640 639
f 641 643 644
f 645 644 643
f 646 647 645
f 647 648 645
f 648 644 645
f 649 650 646
f 651 650 652
f 653 654 651
f 655 656 654
f 655 657 656
f 658 657 655
f 659 660 657
f 661 647 646
f 662 660 659
f 663 361 363
f 663 664 361
f 365 451 366
f 665 664 663
f 365 666 451
f 666 452 451
f 667 665 663
f 668 665 667
f 669 668 667
f 361 664 365
f 664 666 365
f 666 670 452
f 670 455 452
f 671 668 669
f 672 671 669
f 665 670 666
f 664 665 666
f 668 673 665
f 670 674 455
f 674 456 455
f 675 671 672
f 673 674 670
f 665 673 670
f 668 671 673
f 674 676 456
f 676 457 456
f 677 678 675
f 678 671 675
f 679 678 677
f 680 676 674
f 673 680 674
f 676 681 457
f 681 458 457
f 678 680 671
f 681 453 458
f 682 678 679
f 683 682 679
f 680 681 676
f 681 459 453
f 678 681 680
f 684 682 683
f 682 681 678
f 681 685 459
f 684 685 682
f 685 681 682
f 686 362 284
f 285 686 284
f 285 687 686
f 285 405 687
f 405 633 687
f 688 368 370
f 688 689 368
f 372 487 373
f 690 691 688
f 691 689 688
f 372 692 487
f 692 488 487
f 693 691 690
f 694 693 690
f 368 689 372
f 689 692 372
f 692 695 488
f 695 491 488
f 696 693 694
f 697 693 696
f 691 695 692
f 689 691 692
f 693 698 691
f 695 699 491
f 699 492 491
f 700 697 696
f 698 699 695
f 691 698 695
f 693 697 698
f 699 701 492
f 701 494 492
f 702 703 700
f 703 697 700
f 704 703 702
f 705 701 699
f 698 705 699
f 701 706 494
f 706 495 494
f 703 705 697
f 706 489 495
f 707 703 704
f 708 707 704
f 705 706 701
f 706 496 489
f 703 706 705
f 686 707 708
f 707 706 703
f 706 709 496
f 709 706 707
f 686 709 707
f 327 710 369
f 328 710 327
f 328 417 711
f 710 328 711
f 417 662 711
f 712 375 377
f 712 713 375
f 379 525 380
f 714 713 712
f 379 715 525
f 715 526 525
f 716 714 712
f 717 714 716
f 718 717 716
f 375 713 379
f 713 715 379
f 715 719 526
f 719 529 526
f 720 717 718
f 721 720 718
f 714 719 715
f 713 714 715
f 717 722 714
f 719 723 529
f 723 530 529
f 724 720 721
f 722 723 719
f 714 722 719
f 717 720 722
f 723 725 530
f 725 531 530
f 726 727 724
f 727 720 724
f 728 727 726
f 729 725 723
f 722 729 723
f 725 730 531
f 730 532 531
f 727 729 720
f 730 527 532
f 731 727 728
f 732 731 728
f 729 730 725
f 730 533 527
f 727 730 729
f 710 731 732
f 731 730 727
f 730 733 533
f 733 730 731
f 710 733 731
f 333 734 376
f 346 734 333
f 346 429 735
f 734 346 735
f 429 266 735
f 736 354 356
f 736 737 354
f 358 561 359
f 738 739 736
f 739 737 736
f 358 740 561
f 740 562 561
f 741 739 738
f 742 739 741
f 739 743 737
f 740 744 562
f 744 565 562
f 745 742 741
f 358 737 740
f 354 737 358
f 746 742 745
f 747 746 745
f 743 744 740
f 737 743 740
f 739 742 743
f 744 748 565
f 748 566 565
f 749 746 747
f 750 748 744
f 743 750 744
f 742 746 750
f 748 751 566
f 751 568 566
f 752 753 749
f 753 746 749
f 754 753 752
f 755 751 748
f 750 755 748
f 751 756 568
f 756 569 568
f 753 755 746
f 756 563 569
f 757 753 754
f 758 757 754
f 755 756 751
f 756 570 563
f 753 756 755
f 734 757 758
f 757 756 753
f 756 759 570
f 759 756 757
f 734 759 757
f 301 684 288
f 684 355 288
f 301 760 684
f 301 394 760
f 394 606 760
f 761 241 762
f 763 761 762
f 241 764 762
f 241 240 764
f 240 765 764
f 240 244 765
f 244 246 765
f 246 766 767
f 768 766 252
f 252 253 769
f 255 770 771
f 253 255 771
f 255 257 770
f 257 261 772
f 772 261 773
f 774 580 775
f 583 585 776
f 585 589 777
f 589 588 778
f 588 591 779
f 779 591 595
f 595 596 780
f 781 600 782
f 596 599 783
f 599 600 781
f 783 599 781
f 784 607 785
f 784 786 610
f 612 610 786
f 787 612 786
f 614 612 787
f 787 788 614
f 789 790 617
f 789 791 790
f 791 792 624
f 792 793 626
f 793 794 629
f 634 795 796
f 634 638 795
f 639 634 796
f 795 638 797
f 796 798 639
f 799 643 641
f 645 643 799
f 800 801 649
f 801 802 652
f 802 803 652
f 804 658 805
f 765 767 764
f 772 806 770
f 775 579 807
f 786 784 808
f 805 655 809
f 775 807 774
f 776 810 807
f 779 780 778
f 800 799 798
f 809 803 802
f 804 805 809
f 811 762 812
f 767 813 812
f 767 814 813
f 767 768 814
f 768 769 814
f 769 815 814
f 769 771 815
f 806 816 817
f 763 762 811
f 764 812 762
f 764 767 812
f 771 770 815
f 770 817 815
f 770 806 817
f 774 818 819
f 774 807 818
f 807 820 818
f 810 821 820
f 778 822 821
f 781 823 824
f 807 810 820
f 777 821 810
f 777 778 821
f 780 824 822
f 778 780 822
f 780 783 824
f 825 823 781
f 783 781 824
f 826 793 827
f 808 828 829
f 788 787 830
f 831 788 830
f 789 788 831
f 832 791 831
f 791 789 831
f 827 791 832
f 794 793 826
f 786 808 829
f 830 786 829
f 787 786 830
f 793 792 827
f 792 791 827
f 804 833 834
f 795 835 836
f 837 800 838
f 802 837 839
f 809 839 833
f 804 809 833
f 801 800 837
f 802 801 837
f 809 802 839
f 836 796 795
f 840 835 795
f 798 796 836
f 838 798 836
f 800 798 838
f 813 811 812
f 841 813 814
f 815 841 814
f 842 841 815
f 843 842 815
f 817 843 815
f 816 843 817
f 818 844 819
f 820 844 818
f 820 845 844
f 821 845 820
f 821 822 845
f 824 846 822
f 824 823 846
f 847 829 828
f 848 830 847
f 830 829 847
f 849 830 848
f 831 830 849
f 832 831 849
f 826 827 832
f 835 850 836
f 850 838 836
f 851 837 838
f 851 839 837
f 852 839 851
f 852 833 839
f 834 833 852
f 853 854 855
f 856 545 543
f 543 853 855
f 857 548 545
f 549 548 857
f 553 549 858
f 556 553 858
f 557 556 859
f 558 557 859
f 559 558 860
f 861 559 862
f 462 861 863
f 464 462 863
f 465 464 863
f 543 542 853
f 864 865 866
f 867 434 432
f 432 864 866
f 868 437 434
f 438 437 868
f 443 438 869
f 446 443 870
f 447 446 870
f 448 447 871
f 449 448 872
f 873 449 874
f 502 501 875
f 499 873 875
f 501 499 875
f 432 431 864
f 539 538 876
f 538 536 876
f 536 877 876
f 877 485 878
f 485 484 879
f 484 483 880
f 483 482 880
f 482 479 881
f 479 475 881
f 475 474 882
f 471 883 882
f 469 884 883
f 885 886 884
f 469 885 884
f 469 468 885
f 575 573 887
f 573 888 887
f 888 523 889
f 576 575 887
f 523 522 890
f 522 521 891
f 521 520 892
f 520 517 892
f 517 512 893
f 512 511 894
f 508 895 894
f 506 896 895
f 897 898 896
f 506 897 896
f 506 505 897
f 499 497 498
f 432 434 433
f 434 437 436
f 443 440 438
f 446 444 443
f 498 450 449
f 873 498 449
f 873 499 498
f 462 460 461
f 543 545 544
f 545 548 547
f 553 551 549
f 556 554 553
f 461 560 559
f 861 461 559
f 861 462 461
f 536 534 535
f 469 471 470
f 471 474 473
f 479 477 475
f 482 480 479
f 535 486 485
f 877 535 485
f 877 536 535
f 573 571 572
f 506 508 507
f 508 511 510
f 517 514 512
f 520 518 517
f 572 524 523
f 888 572 523
f 888 573 572
f 580 579 775
f 579 583 776
f 600 602 782
f 249 252 766
f 261 260 773
f 790 618 617
f 607 609 785
f 655 653 803
f 658 655 805
f 638 637 797
f 856 854 811
f 813 856 811
f 857 856 813
f 899 857 813
f 841 899 813
f 858 899 841
f 859 858 841
f 842 859 841
f 860 859 842
f 843 860 842
f 862 860 843
f 863 862 843
f 816 863 843
f 900 863 816
f 855 854 856
f 846 872 822
f 844 867 819
f 867 865 819
f 872 871 822
f 901 846 823
f 874 872 846
f 866 865 867
f 845 868 844
f 868 867 844
f 902 868 845
f 822 902 845
f 869 902 822
f 871 870 822
f 870 869 822
f 875 846 901
f 875 874 846
f 903 876 828
f 876 847 828
f 876 878 847
f 878 879 847
f 879 848 847
f 879 880 848
f 880 849 848
f 880 881 849
f 881 904 849
f 904 832 849
f 904 882 832
f 882 883 832
f 883 826 832
f 883 886 826
f 884 886 883
f 890 838 850
f 889 890 850
f 905 850 835
f 891 838 890
f 895 834 852
f 895 898 834
f 887 889 850
f 905 887 850
f 892 838 891
f 892 893 838
f 893 906 838
f 906 851 838
f 906 894 851
f 894 852 851
f 894 895 852
f 896 898 895
f 907 356 908
f 909 356 907
f 663 363 910
f 911 912 910
f 912 913 667
f 669 667 913
f 914 669 913
f 914 915 672
f 915 916 675
f 916 917 677
f 679 677 917
f 918 679 917
f 918 908 679
f 908 356 683
f 684 683 355
f 919 920 921
f 922 919 921
f 919 923 920
f 924 925 923
f 926 927 924
f 928 929 930
f 931 929 928
f 932 931 928
f 933 931 932
f 934 933 932
f 935 936 937
f 938 939 934
f 935 940 936
f 940 939 938
f 941 942 943
f 910 363 943
f 363 941 943
f 944 945 370
f 690 688 945
f 946 690 945
f 946 947 694
f 947 948 696
f 948 949 700
f 949 950 702
f 950 942 704
f 942 941 704
f 941 363 708
f 686 708 362
f 951 377 952
f 953 370 954
f 944 370 953
f 951 955 377
f 956 712 955
f 956 957 716
f 957 958 718
f 958 959 721
f 959 960 724
f 960 961 726
f 961 962 728
f 962 954 728
f 954 370 732
f 710 732 369
f 952 377 963
f 909 964 736
f 738 736 964
f 965 738 964
f 965 966 741
f 966 967 745
f 967 968 745
f 969 749 747
f 969 970 749
f 970 971 752
f 972 758 754
f 963 758 972
f 963 377 758
f 734 758 376
f 955 951 952
f 952 920 955
f 952 963 972
f 954 962 953
f 964 907 965
f 953 973 944
f 964 909 907
f 908 918 907
f 946 945 973
f 911 910 943
f 124 923 919
f 922 349 919
f 303 924 923
f 351 922 974
f 303 347 924
f 352 351 974
f 975 352 974
f 348 926 924
f 976 353 975
f 348 306 926
f 10 353 976
f 305 930 926
f 134 976 977
f 136 928 930
f 305 136 930
f 310 134 977
f 58 932 928
f 311 977 978
f 313 311 978
f 979 313 978
f 330 934 932
f 314 979 937
f 330 331 934
f 43 314 937
f 307 938 934
f 43 937 936
f 307 309 938
f 145 43 936
f 940 145 936
f 309 940 938
f 349 123 919
f 123 124 919
f 25 923 124
f 25 303 923
f 351 349 922
f 348 924 347
f 353 352 975
f 306 305 926
f 134 132 976
f 132 10 976
f 58 928 136
f 311 310 977
f 329 932 58
f 329 330 932
f 314 313 979
f 307 934 331
f 145 940 309
f 349 81 123
f 310 75 134
f 138 58 136
f 145 35 43
f 109 145 309
f 952 972 921
f 920 952 921
f 923 956 920
f 971 922 921
f 972 971 921
f 957 956 923
f 925 957 923
f 971 970 922
f 969 974 922
f 970 969 922
f 958 957 925
f 924 958 925
f 959 958 924
f 969 968 974
f 968 975 974
f 960 959 924
f 927 960 924
f 968 967 975
f 966 976 975
f 967 966 975
f 926 960 927
f 961 960 926
f 966 965 976
f 962 961 926
f 930 962 926
f 965 977 976
f 953 962 930
f 965 907 977
f 929 953 930
f 973 953 929
f 918 978 977
f 907 918 977
f 946 973 929
f 931 946 929
f 918 917 978
f 917 979 978
f 947 946 931
f 917 916 979
f 933 947 931
f 948 947 933
f 915 937 979
f 916 915 979
f 915 914 937
f 949 948 933
f 934 949 933
f 913 935 937
f 914 913 937
f 950 949 934
f 939 950 934
f 913 912 935
f 942 950 939
f 912 940 935
f 912 911 940
f 943 942 939
f 940 943 939
f 911 943 940
f 542 262 853
f 564 262 542
f 570 264 564
f 759 735 570
f 735 264 570
f 734 735 759
f 980 763 854
f 637 577 981
f 982 577 637
f 982 378 577
f 640 378 982
f 840 981 905
f 797 981 840
f 533 659 528
f 733 711 533
f 711 659 533
f 710 711 733
f 983 804 898
f 609 540 984
f 985 540 609
f 985 371 540
f 613 371 985
f 808 984 828
f 785 984 808
f 496 630 490
f 709 687 496
f 687 630 496
f 686 687 709
f 986 794 886
f 602 503 987
f 988 503 602
f 988 364 503
f 597 364 988
f 825 987 901
f 782 987 825
f 459 603 454
f 685 760 459
f 760 603 459
f 684 760 685
f 989 774 865
f 260 466 990
f 991 466 260
f 991 357 466
f 258 357 991
f 806 990 816
f 773 990 806
f 992 419 360
f 357 992 360
f 421 419 992
f 419 355 360
f 357 421 992
f 16 419 421
f 16 6 419
f 993 382 367
f 364 993 367
f 384 382 993
f 382 362 367
f 364 384 993
f 385 382 384
f 385 39 382
f 994 395 374
f 371 994 374
f 397 395 994
f 395 369 374
f 371 397 994
f 398 395 397
f 398 54 395
f 995 407 381
f 378 995 381
f 409 407 995
f 407 376 381
f 378 409 995
f 410 407 409
f 410 22 407
f 648 409 644
f 648 996 409
f 648 997 996
f 996 410 409
f 996 661 410
f 410 661 646
f 998 997 647
f 661 998 647
f 999 998 661
f 997 999 996
f 997 998 999
f 999 661 996
f 1000 397 616
f 1000 1001 397
f 1000 1002 1001
f 1001 398 397
f 1001 632 398
f 398 632 620
f 1003 1002 619
f 619 632 1003
f 1003 632 1004
f 1002 1004 1001
f 1002 1003 1004
f 1004 632 1001
f 592 384 590
f 592 1005 384
f 592 1006 1005
f 1005 386 384
f 1005 605 386
f 386 605 587
f 1007 1006 593
f 593 605 1007
f 1007 605 1008
f 1005 1006 1008
f 1006 1007 1008
f 605 1005 1008
f 268 421 251
f 268 1009 421
f 1009 422 421
f 1009 265 422
f 422 265 248
f 1010 269 265
f 1009 270 1010
f 270 269 1010
f 1009 1010 265
f 1011 76 355
f 1011 201 76
f 1012 201 1011
f 1013 1012 1014
f 1013 201 1012
f 69 1011 355
f 6 69 355
f 69 70 1011
f 70 1012 1011
f 1012 72 1014
f 70 72 1012
f 1014 72 1015
f 1015 1016 1014
f 1016 1013 1014
f 72 71 1015
f 71 1016 1015
f 1016 135 1013
f 1016 71 133
f 71 68 133
f 1017 82 376
f 1017 85 82
f 1017 1018 85
f 1019 1018 1017
f 1020 1019 1021
f 1020 1018 1019
f 89 1017 376
f 22 89 376
f 89 90 1017
f 90 1019 1017
f 1019 90 1021
f 1021 92 1022
f 1022 1023 1021
f 1023 1020 1021
f 92 91 1022
f 91 1023 1022
f 200 1018 1020
f 1023 125 200
f 195 125 1023
f 1023 91 195
f 1018 200 85
f 1024 96 369
f 1024 98 96
f 1024 1025 98
f 1026 1025 1024
f 1027 1026 1028
f 1027 1025 1026
f 103 1024 369
f 54 103 369
f 103 104 1024
f 104 1026 1024
f 1026 106 1028
f 104 106 1026
f 1028 106 1029
f 1029 1030 1028
f 1030 1027 1028
f 106 105 1029
f 105 1031 1029
f 1031 1030 1029
f 202 1025 1027
f 1030 202 1027
f 1030 1031 137
f 101 137 105
f 1025 202 98
f 1032 110 362
f 1032 112 110
f 1032 1033 112
f 1034 1033 1032
f 1035 1034 1036
f 1035 1033 1034
f 119 1032 362
f 39 119 362
f 119 120 1032
f 120 1034 1032
f 1034 122 1036
f 120 122 1034
f 1036 122 1037
f 1037 1038 1036
f 1038 1035 1036
f 122 121 1037
f 121 1039 1037
f 1039 1038 1037
f 203 1033 1035
f 1038 203 1035
f 1038 1039 203
f 117 146 121
f 1033 203 112
f 420 357 258
f 254 420 258
f 383 364 597
f 594 383 597
f 408 378 640
f 642 408 640
f 396 371 613
f 615 396 613
f 466 465 990
f 990 465 900
f 816 990 900
f 773 260 990
f 259 991 260
f 256 991 259
f 256 258 991
f 454 578 431
f 603 578 454
f 760 606 603
f 431 580 864
f 431 578 580
f 989 864 580
f 989 580 774
f 865 774 819
f 864 989 865
f 577 576 981
f 981 576 905
f 840 905 835
f 797 637 981
f 636 982 637
f 635 982 636
f 635 640 982
f 264 262 564
f 735 266 264
f 262 241 853
f 853 241 761
f 980 853 761
f 980 761 763
f 854 763 811
f 853 980 854
f 528 657 505
f 659 657 528
f 711 662 659
f 505 658 897
f 505 657 658
f 983 897 658
f 983 658 804
f 898 804 834
f 897 983 898
f 540 539 984
f 984 539 903
f 828 984 903
f 785 609 984
f 608 985 609
f 611 985 608
f 611 613 985
f 490 628 468
f 630 628 490
f 687 633 630
f 468 629 885
f 468 628 629
f 986 885 629
f 986 629 794
f 886 794 826
f 885 986 886
f 503 502 987
f 987 502 901
f 825 901 823
f 782 602 987
f 601 988 602
f 598 988 601
f 598 597 988
f 616 396 615
f 616 397 396
f 251 420 254
f 251 421 420
f 590 383 594
f 590 384 383
f 644 408 642
f 644 409 408
f 423 345 344
f 16 423 344
f 12 16 344
f 423 341 345
f 423 339 341
f 425 336 339
f 425 339 423
f 425 335 336
f 425 427 335
f 427 334 335
f 427 346 334
f 389 300 299
f 49 389 299
f 46 49 299
f 389 296 300
f 389 294 296
f 390 291 294
f 390 294 389
f 390 290 291
f 390 392 290
f 392 289 290
f 392 301 289
f 64 273 271
f 60 64 271
f 399 273 64
f 399 275 273
f 403 278 277
f 399 401 275
f 401 277 275
f 403 281 278
f 401 403 277
f 403 406 281
f 406 282 281
f 406 285 282
f 32 316 315
f 28 32 315
f 411 316 32
f 411 318 316
f 415 321 320
f 411 413 318
f 413 320 318
f 415 324 321
f 413 415 320
f 415 418 324
f 418 325 324
f 418 328 325
f 247 422 248
f 424 422 247
f 245 424 247
f 243 424 245
f 243 426 424
f 242 426 243
f 263 426 242
f 263 428 426
f 428 263 266
f 429 428 266
f 387 587 586
f 387 386 587
f 388 387 586
f 584 388 586
f 582 388 584
f 582 391 388
f 581 391 582
f 604 391 581
f 604 393 391
f 393 604 606
f 394 393 606
f 621 398 620
f 400 398 621
f 622 400 621
f 625 400 622
f 625 402 400
f 627 402 625
f 631 402 627
f 631 404 402
f 404 631 633
f 405 404 633
f 410 646 650
f 412 410 650
f 651 412 650
f 654 412 651
f 654 414 412
f 656 414 654
f 660 414 656
f 660 416 414
f 416 660 662
f 417 416 662
f 268 270 1009
f 267 270 268
f 118 114 37
f 114 33 37
f 114 116 33
f 33 116 34
f 59 175 63
f 1040 175 59
f 1040 177 175
f 1041 177 1040
f 1041 181 177
f 1042 181 1041
f 1042 185 181
f 1043 185 1042
f 1043 189 185
f 1044 189 1043
f 1044 192 189
f 1045 192 1044
f 1045 194 192
f 194 111 113
f 1045 111 194
f 1046 1040 59
f 1047 1041 1040
f 1048 1042 1041
f 1049 1043 1042
f 1050 1044 1043
f 1051 1045 1044
f 107 111 1045
f 176 61 56
f 176 1046 61
f 178 1046 176
f 178 1047 1046
f 182 1047 178
f 182 1048 1047
f 186 1048 182
f 186 1049 1048
f 190 1049 186
f 190 1050 1049
f 190 193 1050
f 107 1051 193
f 108 107 193
f 100 51 102
f 51 100 52
f 1052 153 27
f 153 29 27
f 1052 1053 153
f 1054 157 1053
f 1054 161 157
f 1055 161 1054
f 1055 165 161
f 1056 165 1055
f 1056 167 165
f 1057 167 1056
f 1057 169 167
f 97 169 1057
f 97 99 169
f 1058 1052 27
f 1059 1053 1052
f 1060 1054 1053
f 1061 1055 1054
f 1062 1056 1055
f 1063 1057 1056
f 93 97 1057
f 23 1058 26
f 154 1058 23
f 154 1059 1058
f 158 1059 154
f 158 1060 1059
f 162 1060 158
f 162 1061 1060
f 166 1061 162
f 166 1062 1061
f 168 1062 166
f 168 1063 1062
f 94 1063 168
f 94 93 1063
f 18 87 86
f 18 86 19
f 148 1064 83
f 84 148 83
f 148 150 1064
f 150 1065 1064
f 1066 1065 152
f 1067 1066 156
f 156 1068 1067
f 160 1068 156
f 160 1069 1068
f 164 1069 160
f 164 11 1069
f 14 11 164
f 1064 1070 79
f 1065 1071 1070
f 1066 1072 1071
f 1067 1073 1072
f 1068 1074 1073
f 1069 1075 1074
f 11 13 1075
f 147 80 79
f 1070 147 79
f 149 147 1070
f 1071 149 1070
f 1071 151 149
f 1072 151 1071
f 1072 155 151
f 1073 155 1072
f 159 155 1073
f 1074 159 1073
f 1074 1075 159
f 8 163 1075
f 13 8 1075
f 78 1076 77
f 170 1076 78
f 1077 1076 171
f 173 1078 171
f 1078 1077 171
f 173 1079 1078
f 179 1079 173
f 179 1080 1079
f 183 1080 179
f 183 1081 1080
f 187 1081 183
f 187 45 1081
f 48 45 187
f 1076 1082 73
f 1077 1083 1082
f 1078 1084 1083
f 1079 1085 1084
f 1080 1086 1085
f 1081 1087 1086
f 45 44 1087
f 172 74 73
f 1082 172 73
f 1082 174 172
f 1083 174 1082
f 1083 1084 174
f 1084 1085 180
f 1086 184 1085
f 1086 188 184
f 1087 188 1086
f 1087 191 188
f 44 191 1087
f 44 41 191
f 67 129 2
f 65 67 2
f 4 65 2
f 2 129 3
f 15 217 16
f 20 17 22
f 47 229 49
f 60 59 63
f 62 236 64
f 131 196 14
f 132 135 133
f 102 136 137
f 144 198 48
f 80 148 84
f 147 150 148
f 149 152 150
f 29 154 23
f 151 156 152
f 153 158 154
f 155 160 156
f 157 162 158
f 159 164 160
f 161 166 162
f 163 14 164
f 165 168 166
f 169 94 168
f 170 74 172
f 171 172 174
f 173 174 180
f 63 176 56
f 175 178 176
f 179 180 184
f 177 182 178
f 183 184 188
f 181 186 182
f 187 188 191
f 185 190 186
f 48 191 41
f 189 193 190
f 194 108 193
f 131 213 196
f 7 6 215
f 215 16 217
f 216 130 215
f 196 219 217
f 221 32 31
f 128 222 221
f 40 39 228
f 233 64 236
f 142 234 233
f 239 207 140
f 241 263 242
f 243 240 242
f 245 244 243
f 247 766 246
f 247 249 766
f 250 268 251
f 257 255 258
f 257 259 261
f 270 267 250
f 277 279 276
f 281 308 280
f 281 283 308
f 290 287 292
f 291 292 312
f 293 291 312
f 293 296 294
f 297 300 296
f 298 300 297
f 320 322 319
f 324 304 323
f 324 326 304
f 276 331 330
f 280 307 331
f 335 332 337
f 336 337 350
f 338 336 350
f 338 341 339
f 342 345 341
f 343 345 342
f 387 389 49
f 394 392 393
f 404 406 403
f 405 406 404
f 416 418 415
f 417 418 416
f 429 427 428
f 437 439 435
f 438 441 439
f 366 450 498
f 451 445 450
f 454 431 430
f 457 430 433
f 474 493 472
f 474 476 493
f 373 486 535
f 487 481 486
f 490 468 467
f 494 467 470
f 511 513 509
f 512 515 513
f 380 524 572
f 525 519 524
f 528 505 504
f 531 504 507
f 548 567 546
f 548 550 567
f 359 560 461
f 561 555 560
f 564 542 541
f 568 541 544
f 578 604 581
f 582 579 581
f 584 583 582
f 586 589 585
f 587 589 586
f 590 595 591
f 599 596 597
f 599 601 600
f 610 608 607
f 613 611 610
f 619 1000 616
f 621 618 790
f 621 790 623
f 624 622 623
f 626 625 624
f 628 631 627
f 634 636 638
f 640 635 634
f 641 644 642
f 649 646 645
f 650 649 652
f 653 651 652
f 655 654 653
f 657 660 656
f 671 680 673
f 697 705 698
f 720 729 722
f 742 750 743
f 746 755 750
f 246 767 765
f 766 768 767
f 768 252 769
f 253 771 769
f 257 772 770
f 772 773 806
f 585 810 776
f 585 777 810
f 589 778 777
f 588 779 778
f 779 595 780
f 596 783 780
f 781 782 825
f 784 785 808
f 784 610 607
f 788 617 614
f 789 617 788
f 791 623 790
f 791 624 623
f 792 626 624
f 793 629 626
f 795 797 840
f 798 641 639
f 799 641 798
f 645 799 800
f 800 649 645
f 801 652 649
f 803 653 652
f 579 776 807
f 655 803 809
f 856 543 855
f 857 545 856
f 549 857 899
f 549 899 858
f 556 858 859
f 558 859 860
f 559 860 862
f 861 862 863
f 465 863 900
f 867 432 866
f 868 434 867
f 438 868 902
f 438 902 869
f 443 869 870
f 447 870 871
f 448 871 872
f 449 872 874
f 502 875 901
f 873 874 875
f 539 876 903
f 877 878 876
f 485 879 878
f 484 880 879
f 482 881 880
f 475 904 881
f 475 882 904
f 471 882 474
f 469 883 471
f 888 889 887
f 523 890 889
f 576 887 905
f 522 891 890
f 521 892 891
f 517 893 892
f 512 906 893
f 512 894 906
f 508 894 511
f 506 895 508
f 912 663 910
f 912 667 663
f 914 672 669
f 915 675 672
f 916 677 675
f 908 683 679
f 356 355 683
f 945 688 370
f 946 694 690
f 947 696 694
f 948 700 696
f 949 702 700
f 950 704 702
f 941 708 704
f 363 362 708
f 955 712 377
f 956 716 712
f 957 718 716
f 958 721 718
f 959 724 721
f 960 726 724
f 961 728 726
f 954 732 728
f 370 369 732
f 909 736 356
f 965 741 738
f 966 745 741
f 968 747 745
f 969 747 968
f 970 752 749
f 971 754 752
f 972 754 971
f 377 376 758
f 920 956 955
f 973 945 944
f 997 648 647
f 1002 1000 619
f 1006 592 593
f 135 201 1013
f 1016 133 135
f 90 92 1021
f 1023 200 1020
f 91 88 195
f 1030 137 202
f 137 1031 105
f 1039 146 203
f 146 1039 121
f 1046 59 61
f 1047 1040 1046
f 1048 1041 1047
f 1049 1042 1048
f 1050 1043 1049
f 1051 1044 1050
f 107 1045 1051
f 193 1051 1050
f 1053 157 153
f 1058 27 26
f 1059 1052 1058
f 1060 1053 1059
f 1061 1054 1060
f 1062 1055 1061
f 1063 1056 1062
f 93 1057 1063
f 1065 150 152
f 1066 152 156
f 1064 79 83
f 1065 1070 1064
f 1066 1071 1065
f 1067 1072 1066
f 1068 1073 1067
f 1069 1074 1068
f 11 1075 1069
f 1075 163 159
f 1076 170 171
f 1076 73 77
f 1077 1082 1076
f 1078 1083 1077
f 1079 1084 1078
f 1080 1085 1079
f 1081 1086 1080
f 45 1087 1081
f 1084 180 174
f 1085 184 180
