v 0.047554 0.0358299 0.0429169
v 0.0644133 -0.0302721 0.0608237
v 0.0513876 -0.0423102 0.0322179
v 0.06441 0.024489 0.0664635
v 0.0553379 -1.61051e-05 0.0751319
v 0.0475108 -0.0375124 0.0158719
v 0.0536789 0.0169393 -0.010867
v 0.0470141 0.0221858 0.0413878
v 0.0534745 0.0282699 0.0380533
v 0.0466084 -0.0346182 0.044797
v 0.0560802 -0.036721 0.0141941
v 0.0519654 -0.0236675 0.0375119
v 0.0467885 -0.00911726 0.00917272
v 0.0466663 -0.0251351 0.0522527
v 0.0476487 -0.0346748 0.0449342
v 0.0472995 0.0257739 0.052043
v 0.0556415 -0.0411714 0.0471992
v 0.0551365 -0.0316897 0.0621093
v 0.0474578 0.00810517 0.000862508
v 0.0514361 -0.0185124 0.0265582
v 0.0510563 0.00811511 0.0497982
v 0.0398428 -0.026827 0.0424658
v 0.0479189 0.0156361 0.0202291
v 0.0443096 0.0107642 0.00894743
v 0.0443068 0.00817374 0.0071892
v 0.0644433 0.009597 -0.0136529
v 0.0644962 -0.0282758 -0.0042664
v 0.046722 0.0120246 0.00532611
v 0.0471544 -0.0197088 0.0382809
v 0.0465703 0.0194666 0.0593135
v 0.0460189 -0.0323522 0.0490491
v 0.0478291 -0.0093524 -0.00794209
v 0.0476885 -0.0104559 0.0119427
v 0.0515541 -0.00884599 0.015181
v 0.0523301 0.0131959 -0.0104668
v 0.0529561 0.0269644 0.040102
v 0.0399059 0.0283907 0.0488326
v 0.0539104 -0.0148643 -0.00566707
v 0.056043 -0.0129505 -0.0133068
v 0.0560685 0.019992 0.0689223
v 0.0509239 0.0158024 0.0228938
v 0.0518354 0.0189729 0.0273904
v 0.0557256 0.043346 0.0172494
v 0.0572136 0.0370131 0.0435095
v 0.0582286 0.015325 -0.00742738
v 0.0421777 -0.0294158 0.0506588
v 0.058445 0.0385202 0.0150036
v 0.0526434 -0.0377739 0.00934333
v 0.0455051 -0.00831315 0.00678996
v 0.0462667 -0.012686 0.00657356
v 0.0442953 -0.0121997 0.00749705
v 0.0489913 -0.0150315 0.0313743
v 0.0643664 0.0433999 0.0384109
v 0.0491648 0.00449367 -0.00737507
v 0.0465695 -0.000290525 0.0137694
v 0.0468014 0.00224142 0.0564462
v 0.0471652 -0.0300775 0.00775373
v 0.0481231 -0.036603 0.016419
v 0.0494186 -0.00463904 0.0455531
v 0.0475861 0.00630229 0.0644114
v 0.0521547 -0.0168179 0.0688863
v 0.0543454 -0.0425426 0.0429071
v 0.0482808 -0.0264985 0.0588995
v 0.0525056 0.0272927 -0.00554973
v 0.0491018 0.0369159 0.0118
v 0.0476145 -0.0156471 0.0195247
v 0.0505388 0.00531463 0.0137677
v 0.0412994 0.00146799 -0.0133526
v 0.0533678 0.00106114 -0.0136408
v 0.0470463 0.0176082 0.0368392
v 0.0466749 -0.00600575 -0.00433134
v 0.0481529 0.0173479 0.064804
v 0.0489777 -0.0284474 0.00234274
v 0.0643028 0.0203389 -0.00895443
v 0.064378 0.0378135 0.00563685
v 0.0641464 0.0191618 0.068294
v 0.0555784 0.00154208 0.0738242
v 0.0608087 -0.0442887 0.0292718
v 0.0512741 0.00585807 0.045693
v 0.0555776 -0.0440627 0.0191271
v 0.0562892 0.0139158 0.066544
v 0.0700444 -0.0367748 0.0141588
v 0.0547875 0.0412275 0.0149729
v 0.0560582 0.0370413 0.0148845
v 0.0451949 0.018296 0.0546124
v 0.0522118 -0.0287827 0.0365324
v 0.0538104 -0.0167278 -0.0111487
v 0.0401291 -0.0299556 0.0477562
v 0.0609036 -0.0153707 -0.0094317
v 0.0490335 0.0137308 0.0352515
v 0.0514344 0.0119468 0.0215485
v 0.0515011 0.0140462 0.0302426
v 0.0641712 -0.0310347 -0.00136358
v 0.0642295 -0.038784 0.0104162
v 0.0641545 0.0421698 0.0167719
v 0.0655854 -0.0421193 0.043032
v 0.0588117 -0.042094 0.0433728
v 0.0624716 0.0386518 0.0478037
v 0.0644198 0.0041852 0.0728603
v 0.0489306 -0.00420234 -0.00598263
v 0.0470901 0.0209977 0.0510756
v 0.0476652 -0.0121886 0.0662091
v 0.0476954 0.00863184 0.049078
v 0.0483025 0.000386986 0.0696397
v 0.0548216 0.0145886 0.0707623
v 0.0500654 0.0378956 0.0455553
v 0.0527964 0.0439379 0.0259641
v 0.0473173 -0.0114555 -0.00753826
v 0.0441165 -0.0051848 -0.0135113
v 0.0477438 0.0329646 0.038765
v 0.042918 0.0297473 0.040538
v 0.0420144 0.0243865 0.0411867
v 0.0526927 0.0155079 -0.00449278
v 0.0457055 0.0333016 0.0140406
v 0.0524224 -0.0224294 -0.00833988
v 0.0419079 0.0253734 0.0485972
v 0.046839 -0.0275793 0.005875
v 0.0479688 -0.0355232 0.0474819
v 0.0484457 -0.0146365 0.0666396
v 0.0428786 0.0308157 0.0356516
v 0.0477464 0.00625938 -0.0116209
v 0.0558265 0.0420751 0.0161218
v 0.064425 0.0140101 0.0699742
v 0.0587887 0.0144422 0.0708296
v 0.05678 0.0133063 0.0721266
v 0.0563621 -0.0133452 0.0719726
v 0.0561233 -0.0307748 0.0619052
v 0.0559302 -0.0420478 0.0158767
v 0.0502431 0.00974566 0.0434652
v 0.0575977 -0.0194786 0.0703463
v 0.0706209 -0.0440456 0.040471
v 0.0708026 -0.0333343 0.0591857
v 0.0619837 -0.0387098 0.0474401
v 0.0700332 0.0367987 0.0456112
v 0.064488 0.0384493 0.0109141
v 0.0555767 0.0192803 0.0703884
v 0.0559187 0.0395934 0.0451863
v 0.0560667 0.0386411 0.0476429
v 0.0560734 0.0182023 -0.00930646
v 0.0511297 -0.0386445 0.0109754
v 0.0448928 0.00378024 0.0615028
v 0.0506231 0.00854939 0.0635798
v 0.0512922 -0.0055316 0.063984
v 0.0475897 0.0198622 0.0381782
v 0.0454901 -0.0223718 0.0413555
v 0.0535831 0.0212868 -0.00795053
v 0.0564241 0.0202013 -0.00894376
v 0.0614807 -0.0181989 0.0678099
v 0.047453 0.00125371 0.012164
v 0.0466427 0.0115617 0.00898884
v 0.0453602 0.00984509 0.00664149
v 0.0489722 -0.00167724 0.0438173
v 0.0514059 -0.0135846 0.0352792
v 0.0514106 0.00243343 0.0435789
v 0.0514685 0.0080351 0.0414281
v 0.064304 -0.0429491 0.016753
v 0.0645567 -0.0200939 0.0684925
v 0.0631832 0.0186706 -0.00923067
v 0.0525135 0.000321781 -0.00666995
v 0.0442821 0.0042636 -0.00678448
v 0.0496582 -0.0065198 -0.0126252
v 0.0474781 -0.0172909 0.037893
v 0.0475701 -0.00485416 0.0635514
v 0.0483934 0.0163033 0.0331802
v 0.0480103 -0.0331217 0.0372521
v 0.0533648 0.0353985 0.056642
v 0.0510003 0.0427002 0.0366571
v 0.0478518 -0.00565795 0.0131412
v 0.0501947 0.0253848 0.0407631
v 0.0541176 -0.0266941 0.0378372
v 0.0477986 0.0332537 0.0479723
v 0.0425596 0.031037 0.0487936
v 0.0462605 0.0318505 0.0516341
v 0.0461446 -0.0198564 0.0593216
v 0.0466112 0.00495882 0.0648945
v 0.0402559 0.0253007 0.0373291
v 0.052532 0.0261037 0.0370792
v 0.0561193 -0.0171538 -0.00754723
v 0.0558692 0.042685 0.0425063
v 0.0574854 -0.0395808 0.0495693
v 0.0532087 0.0285403 -0.00348445
v 0.0499405 0.00927627 0.0678179
v 0.0548104 -0.0207713 0.0682592
v 0.0503647 -0.017514 0.0315922
v 0.0480835 0.00406215 0.0462627
v 0.056152 0.00645975 -0.0157142
v 0.0569239 0.0420433 0.0457576
v 0.0587156 -0.0146368 0.0676647
v 0.0549731 0.0384716 0.0513034
v 0.0687997 -0.0173848 -0.00831204
v 0.0700215 0.0156187 0.067103
v 0.0636183 0.0404215 0.0441606
v 0.056135 -0.0181633 0.068223
v 0.0562037 0.0387351 0.0114262
v 0.0553813 -0.0414688 0.0136978
v 0.0560487 -0.0373931 0.0470966
v 0.0417741 -0.0222485 0.037875
v 0.0458563 -0.0326311 0.0359576
v 0.0534246 -0.015137 -0.00840047
v 0.0468349 -0.0256192 0.0530535
v 0.0439156 -0.0285265 0.0507942
v 0.0468729 -0.0318959 0.0396433
v 0.0488839 -0.0215927 0.041149
v 0.0584962 0.0154426 0.0664711
v 0.0502179 -0.00463886 0.0696387
v 0.0574767 0.0366743 0.0128534
v 0.0564363 -0.0359384 0.0146319
v 0.0566837 0.01355 -0.00748068
v 0.0572773 -0.0377535 0.0432352
v 0.0440829 0.0007221 -0.00477444
v 0.0490025 0.00913454 0.0181763
v 0.049587 -0.00402079 0.0155854
v 0.0514886 -0.00955954 0.0191308
v 0.0645222 -0.0194113 -0.00946746
v 0.0587557 -0.0189916 0.0689412
v 0.0625184 0.0142979 -0.0114878
v 0.0529088 -0.00333022 -0.00453376
v 0.0471503 0.00956412 -0.00714526
v 0.0484755 0.00482195 0.0501271
v 0.0535665 -0.021169 -0.00805771
v 0.0473155 0.0272074 0.00348318
v 0.0465337 0.0269538 0.0530662
v 0.0481211 0.0161533 0.065877
v 0.0465959 0.0336283 0.0357753
v 0.0503208 0.0408106 0.0193889
v 0.0579421 0.0395174 0.00846948
v 0.0605856 0.0333691 0.0582569
v 0.0611264 0.0390187 0.0486247
v 0.0549518 -0.0437501 0.02769
v 0.0550405 -0.0205371 -0.0093484
v 0.0532224 -0.0286731 -0.00317361
v 0.054564 0.00113351 -0.0145103
v 0.0515473 -0.00906908 0.0432751
v 0.0557883 -0.0361205 0.00239203
v 0.0704559 0.0226502 0.0685867
v 0.0564474 -0.0359313 0.0443969
v 0.0564794 0.0175787 0.0656594
v 0.0700908 -0.0142103 0.0691065
v 0.0561666 -0.0146138 0.0668755
v 0.0562426 0.0148194 -0.00774531
v 0.048979 0.0132127 -0.00800736
v 0.0562493 -0.0378456 0.0436292
v 0.0429053 -0.0253848 0.0407631
v 0.0475365 0.00591271 -0.00440062
v 0.0580646 -0.0365509 0.0143839
v 0.0526805 0.00352601 -0.00460849
v 0.0426008 0.00207344 -0.00429769
v 0.0417278 0.0290148 0.0408075
v 0.048127 0.00873472 -0.00420062
v 0.0567149 -0.0169592 -0.00641361
v 0.0560551 0.014615 0.0665431
v 0.0558655 0.038604 0.00618166
v 0.0577545 -0.0184154 -0.00942175
v 0.0468412 -0.0214767 0.0514226
v 0.045698 -0.0188733 0.0579649
v 0.0512389 -0.0272873 0.0403497
v 0.0513638 -0.0295719 0.0386548
v 0.0504049 0.0077313 -0.00241243
v 0.0456919 -0.00329301 0.0110355
v 0.0421182 0.000449442 0.0090356
v 0.0418801 0.000493703 0.00965012
v 0.0447164 -0.0052728 0.00798266
v 0.0459494 0.00644396 0.00781352
v 0.082216 0.0324153 0.0461304
v 0.07105 0.0299299 0.0288908
v 0.0781019 0.0302322 0.0488801
v 0.0899815 0.031365 0.0472199
v 0.0710497 -0.0351323 0.0257181
v 0.0710516 0.0167461 0.0610642
v 0.0710559 -0.00266215 0.0732929
v 0.0829696 0.018924 0.0599767
v 0.082685 0.0226553 0.0582574
v 0.0842045 0.0196983 0.0600886
v 0.0904686 0.0180079 0.0610215
v 0.0800328 0.0149053 0.0632487
v 0.0700484 -0.00730368 0.0637694
v 0.0700369 0.0317411 0.0162571
v 0.0822705 0.000839829 0.0656513
v 0.0896085 -7.3773e-06 0.0657677
v 0.070691 -0.0428368 0.0166492
v 0.0710427 -0.0361984 0.0292438
v 0.0675517 -0.0130669 0.023322
v 0.0710497 0.00267603 0.0647541
v 0.0709181 0.0170029 0.0291683
v 0.0710487 -0.0302936 0.0481108
v 0.0781251 -0.0167165 0.06124
v 0.0710523 -0.0229511 0.0294482
v 0.0780838 0.0175735 0.0603807
v 0.0780282 0.0138581 0.058614
v 0.0702167 -0.00407284 0.0726357
v 0.0709385 -0.0165721 0.031159
v 0.0780935 -0.0112749 0.0637102
v 0.0780501 -0.00272153 0.0576853
v 0.0780327 -0.00578522 0.0575602
v 0.0780688 -0.0225888 0.057417
v 0.07805 -0.0153308 0.0577552
v 0.0780501 0.0103733 0.0582413
v 0.078138 -0.0263725 0.0542306
v 0.07805 0.0195685 0.0523881
v 0.0710496 0.0224263 0.0275299
v 0.0782326 0.0253729 0.0553723
v 0.078025 0.022315 0.0577688
v 0.0780507 -0.00599711 0.0532279
v 0.07805 -0.00924953 0.0540968
v 0.0710495 0.00992347 0.0639142
v 0.0780559 -0.0121031 0.0583068
v 0.07805 -0.0172739 0.0526384
v 0.0780663 -0.0276785 0.0522974
v 0.0780519 0.00113912 0.0480399
v 0.0780472 0.00921756 0.0517376
v 0.0780505 0.0139213 0.051261
v 0.0780426 -0.0233842 0.0516777
v 0.07805 0.0166767 0.0498087
v 0.0780505 0.0198946 0.0443777
v 0.0780443 -0.00483154 0.0442463
v 0.0700735 0.0414686 0.0157128
v 0.0700432 -0.00401691 0.0640059
v 0.0707361 0.0445633 0.0254853
v 0.07805 0.0237269 0.0487116
v 0.0780493 -0.0266244 0.047889
v 0.0710499 0.0342956 0.0195239
v 0.0780394 0.0089168 0.0456532
v 0.0780054 -0.00306926 0.0420248
v 0.0780493 -0.0137767 0.0486582
v 0.07805 -0.0106241 0.0489112
v 0.0780511 -0.0187667 0.045933
v 0.0780504 -0.0183862 0.0480654
v 0.0697088 0.00971307 0.0409976
v 0.07105 0.0358282 0.0256158
v 0.078049 0.0125101 0.0414863
v 0.0780469 0.0112553 0.0428289
v 0.0780514 -0.0153599 0.0429108
v 0.0780499 0.0167925 0.0438861
v 0.0780485 0.0171582 0.0384218
v 0.0780592 -0.00918917 0.0408329
v 0.0780524 -0.0141938 0.0395115
v 0.0780504 0.0219566 0.0402962
v 0.0780501 -0.00814328 0.0382512
v 0.0780531 0.0274606 0.0392322
v 0.0779696 -0.000814175 0.0317384
v 0.07805 0.0257156 0.0411146
v 0.07805 0.0261896 0.0368559
v 0.0780501 -0.0254325 0.0378912
v 0.0780515 -0.0194805 0.0369592
v 0.07805 -0.0255115 0.0389429
v 0.0780361 0.0349959 0.0371542
v 0.113515 -0.0157627 0.00248194
v 0.07805 -0.0279861 0.0358753
v 0.1135 -0.00922951 -0.000621782
v 0.108205 -0.00509631 -0.00132397
v 0.07805 0.0212921 0.035887
v 0.113521 -0.000591246 -0.002317
v 0.106286 0.0075843 -0.00160966
v 0.0780507 0.0195475 0.0348965
v 0.113477 0.00791332 3.551e-05
v 0.0710503 -0.0240913 0.0319966
v 0.0780506 -0.0296502 0.0316481
v 0.0780511 -0.0243681 0.0343295
v 0.113482 0.0129027 0.00185054
v 0.109014 0.0153342 0.00178037
v 0.0780621 -0.036066 0.032041
v 0.07105 -0.0290684 0.0283984
v 0.0664482 -0.0347119 0.0438716
v 0.078047 0.0357996 0.033117
v 0.106583 0.022103 0.00771317
v 0.07805 0.0297583 0.0312386
v 0.113481 0.0249926 0.0120013
v 0.108208 0.0291833 0.017438
v 0.07105 -0.0289319 0.0315126
v 0.102661 0.0313117 0.0226249
v 0.106397 0.0315524 0.0294302
v 0.0708827 0.00280193 0.0126825
v 0.111185 0.0296684 0.0386779
v 0.0780496 -0.0228348 0.0325717
v 0.0710499 0.03546 0.0333092
v 0.078036 -0.0316516 0.026544
v 0.106373 0.0254299 0.0486195
v 0.106294 0.0210693 0.0534824
v 0.0710518 0.0357528 0.0304532
v 0.110567 0.0171032 0.0555589
v 0.113481 0.0128825 0.0571611
v 0.106722 0.00793489 0.0593942
v 0.0780875 -0.0141212 0.0270311
v 0.113547 0.00497213 0.0605673
v 0.106299 -0.00480202 0.0610455
v 0.0708442 0.0103445 0.0162514
v 0.0698929 0.0309157 0.0609467
v 0.113482 -0.0129027 0.0571495
v 0.0780502 -0.0236525 0.0279083
v 0.113502 -0.0213821 0.0527093
v 0.0780508 0.0249918 0.0252996
v 0.108208 -0.0291832 0.041562
v 0.0700278 -0.032715 0.0437058
v 0.07805 -0.0275607 0.0234701
v 0.0780491 -0.0129528 0.0149775
v 0.113477 -0.0294737 0.03738
v 0.108212 -0.0311182 0.034655
v 0.0780458 0.0112886 0.022604
v 0.0780481 0.0199662 0.025408
v 0.106346 -0.0317654 0.030221
v 0.07105 -0.0332519 0.0324513
v 0.113489 -0.029503 0.0215028
v 0.0780421 0.0351965 0.0228868
v 0.113482 -0.0276506 0.0166042
v 0.111906 -0.0254264 0.0111034
v 0.106321 -0.0231452 0.0073648
v 0.0780249 -0.0338128 0.0179622
v 0.10657 -0.0175819 0.00386767
v 0.106337 -0.0130574 0.00057553
v 0.0710501 0.0267442 0.0283457
v 0.1056 -0.000691089 -0.00226201
v 0.113526 0.0080209 -0.00175708
v 0.0676398 -0.00193581 0.0150963
v 0.0663097 0.00426262 0.0160499
v 0.106547 0.0175441 0.00442248
v 0.106201 0.0207234 0.00493961
v 0.106359 0.026656 0.0121096
v 0.113522 0.0291658 0.0158815
v 0.113539 0.0307931 0.0239156
v 0.106116 0.0316291 0.0349064
v 0.113476 0.0312436 0.0339846
v 0.106502 0.0286687 0.0425192
v 0.113501 0.0278161 0.0436751
v 0.0694996 -0.0441846 0.034772
v 0.113535 0.0252078 0.0484265
v 0.113534 0.021444 0.0526227
v 0.106343 0.0130607 0.0584233
v 0.0710548 -0.0235606 0.0344898
v 0.113487 0.0108404 0.0597159
v 0.106513 0.00302833 0.0608247
v 0.109724 -0.00221833 0.0605782
v 0.113498 -1.666e-05 0.0616544
v 0.110133 -0.00786471 0.0588487
v 0.113522 -0.0134675 0.058709
v 0.106385 -0.0144367 0.0577824
v 0.113481 -0.0175139 0.0544872
v 0.106235 -0.0210645 0.0536178
v 0.11353 -0.0251413 0.048549
v 0.106364 -0.0243354 0.0498979
v 0.113522 -0.0291658 0.0431185
v 0.106212 -0.0278369 0.0455059
v 0.0780329 0.00765433 0.0646228
v 0.113525 -0.0320579 0.0324409
v 0.110161 -0.0302622 0.0269237
v 0.106398 -0.0301814 0.0198293
v 0.113541 -0.0310198 0.0213663
v 0.113499 -0.0278388 0.0134098
v 0.113534 -0.0214444 0.00637728
v 0.0697206 0.0111375 0.019635
v 0.0710499 -0.0308034 0.0355915
v 0.0710492 -0.0306094 0.0371042
v 0.0998911 0.0339071 0.0491237
v 0.0700067 0.0412395 0.0435149
v 0.0705088 -0.0100968 0.0168322
v 0.0710844 0.0190997 0.0349076
v 0.071263 0.0162754 0.0186362
v 0.0710494 0.0347978 0.0364957
v 0.064567 -0.0137879 0.0710977
v 0.0999541 -0.0324935 0.048397
v 0.0997778 -0.0342155 0.049334
v 0.0708164 -0.0145195 0.0208064
v 0.070232 0.0143571 0.0689181
v 0.100085 0.022456 0.00329401
v 0.0710639 -0.0165142 0.0357488
v 0.100881 0.0213712 0.00497393
v 0.100221 0.0317267 0.0393644
v 0.070018 -0.0415477 0.0158243
v 0.101041 0.0195107 0.0551798
v 0.100478 -0.00474872 0.0617581
v 0.0704923 0.0142938 0.0243364
v 0.07105 -0.0269029 0.035447
v 0.100523 -0.00644243 -0.00346927
v 0.0999356 -0.0214736 0.00147394
v 0.0681969 0.0382476 0.0145657
v 0.100494 -0.0269408 0.0108946
v 0.100363 -0.0328211 0.0298543
v 0.100398 -0.0278698 0.0462733
v 0.0999852 0.0238827 0.0538369
v 0.100137 -0.0131043 0.0605953
v 0.0999023 -0.000158391 -0.00937208
v 0.0999787 -0.00384439 -0.00628169
v 0.0710295 -0.0173785 0.0270968
v 0.0999481 -0.000667836 0.0640633
v 0.0998386 -2.51347e-05 0.0691117
v 0.0999702 0.0192274 -0.00423621
v 0.0999651 -0.0195139 -0.00407689
v 0.0710501 0.0283326 0.0397594
v 0.0681057 -0.00639758 0.0683216
v 0.0998875 0.0339531 0.00993731
v 0.0999901 0.032867 0.015032
v 0.100023 -0.0332882 0.021911
v 0.0999853 0.0356951 0.0255619
v 0.0999841 -0.0394304 0.0297846
v 0.0999812 -0.0356999 0.0334516
v 0.0999674 0.0388647 0.0293635
v 0.0999837 0.019964 0.0635033
v 0.0999732 0.0144298 0.0623418
v 0.0999615 -0.0193165 0.0632084
v 0.0677523 0.0143171 0.0299751
v 0.0699762 -0.0144974 -0.0103732
v 0.0678548 -0.0128863 0.0359412
v 0.0710483 -0.0236141 0.0392919
v 0.0710496 -0.032068 0.0446899
v 0.0708163 0.0143848 0.0373065
v 0.0710471 0.0311561 0.0471418
v 0.0696281 0.0124476 -0.0138608
v 0.0702083 -0.0131404 0.0386185
v 0.0710526 0.020947 0.0388838
v 0.0696713 -0.0388547 0.00634327
v 0.0711906 0.0143975 0.0460358
v 0.0699156 -0.0122865 -0.00226584
v 0.0680218 -0.000847697 0.0440363
v 0.07105 0.0252605 0.0405019
v 0.0698625 0.0155823 -0.00727864
v 0.0710502 0.0179755 0.0457327
v 0.0707913 0.0425019 0.043429
v 0.0697469 0.0198148 -0.00954136
v 0.0710913 0.0014337 0.0475595
v 0.0693081 0.031771 -0.001069
v 0.070068 0.0310215 -0.00111454
v 0.0695565 0.00036784 -0.0170222
v 0.0847382 -0.030154 0.0085662
v 0.06955 0.0231767 -0.00907253
v 0.0699477 0.039041 0.0492656
v 0.0710507 -0.0217866 0.0464427
v 0.0706611 -0.0361154 0.00326813
v 0.0700519 0.0388827 0.011412
v 0.0692555 -0.0383154 0.051147
v 0.07105 0.0255943 0.0470004
v 0.0710498 0.0105365 0.0545939
v 0.081719 0.0222504 0.000285894
v 0.0780355 0.00779457 0.0603938
v 0.0710526 0.0185373 0.0430322
v 0.0818816 -0.0324531 0.0129055
v 0.0825043 0.0351022 0.0196095
v 0.0793802 -0.0083991 0.0649681
v 0.0789498 -0.0287726 0.00707034
v 0.0820129 -0.0362769 0.024345
v 0.0693865 -0.00835842 0.07527
v 0.0799138 0.0347604 0.0402752
v 0.0710578 0.0127653 0.0495284
v 0.071222 -0.0156835 0.0453526
v 0.07105 -0.0180774 0.0480805
v 0.0710678 -0.0254686 0.0229372
v 0.07123 -0.0109452 0.0458782
v 0.0781186 -0.0308699 0.0109421
v 0.0780471 -0.0067445 0.0115572
v 0.0780785 0.000695074 -0.00615033
v 0.078054 -0.00540926 5.80196e-05
v 0.0710497 0.0287795 0.0504245
v 0.0651068 -0.0124033 -0.0131359
v 0.0780783 0.0312184 0.012274
v 0.0780648 0.00270131 0.0236943
v 0.0710497 0.0304008 0.011369
v 0.07105 -0.0222497 0.0489786
v 0.06655 0.0358342 0.0180237
v 0.0710664 0.012216 0.0549565
v 0.0711275 0.00972772 0.048195
v 0.0664998 0.0318485 0.016538
v 0.0710571 0.0216979 0.043592
v 0.0665502 -0.0144397 -0.00266601
v 0.07105 0.0295208 0.0497691
v 0.0697295 -0.0349326 0.0404783
v 0.0710559 0.0242128 -0.00708047
v 0.0710509 0.000399845 -0.00579747
v 0.0710422 -0.0172592 -0.00198692
v 0.0708863 -0.00506005 0.0457187
v 0.0782545 0.0153278 -0.00326137
v 0.08928 0.0165574 -0.00299502
v 0.066423 -0.0124481 -0.00664434
v 0.0710496 -0.0271725 0.0525857
v 0.0780504 0.0359724 0.0277426
v 0.0710505 -0.0115436 0.0493663
v 0.0710506 0.0153271 0.0466186
v 0.0781443 0.034123 0.0176259
v 0.0710487 -0.0127613 -0.00336267
v 0.07105 -0.00561622 0.0508974
v 0.0710646 -0.00214747 -0.0148487
v 0.07105 -0.00461621 -0.000428148
v 0.07105 -0.0218535 0.0508648
v 0.0710497 0.0104087 -0.00455456
v 0.0710515 -0.00387242 0.0529256
v 0.07105 -0.00460104 -0.00625339
v 0.07105 0.00746853 -0.00303641
v 0.0707289 -0.0263255 -0.00665961
v 0.0677398 0.0292601 0.0502886
v 0.0700097 0.0264076 0.0509824
v 0.0781652 0.00278057 0.0656641
v 0.0689416 0.0284503 0.0552788
v 0.0784237 -0.00895551 -0.00550073
v 0.07105 0.00235861 -0.0014155
v 0.07105 -0.00085269 -0.00154001
v 0.07105 0.00391526 -0.00035734
v 0.0665125 -0.00588186 0.06332
v 0.0710512 -0.00962853 0.049892
v 0.0710503 -0.00999583 0.00524897
v 0.0710539 0.0156242 -0.00165426
v 0.07105 -0.0104198 0.000297972
v 0.0780483 0.00627623 -0.0057849
v 0.07105 -0.0134041 0.0014904
v 0.07105 6.084e-05 0.00324747
v 0.07105 -0.0200798 0.0531248
v 0.07105 -0.00262343 0.00335736
v 0.07105 0.0069345 0.000696624
v 0.07105 -0.0120567 0.0555494
v 0.0780507 0.022561 0.0177595
v 0.0780501 0.029554 0.0165761
v 0.0710495 0.0192157 0.0545203
v 0.0710498 0.00734662 0.00437156
v 0.0710518 -0.00742422 0.0068163
v 0.07805 -0.0281342 0.0140254
v 0.071051 -0.0083107 0.00743924
v 0.07805 0.0185158 0.0173175
v 0.0710497 0.0238001 0.0559506
v 0.0712665 -0.00976687 0.00926974
v 0.0780507 -0.0170942 0.00690916
v 0.0710484 0.0248506 0.00465878
v 0.0710503 3.53421e-05 0.00527972
v 0.0710508 0.00143782 0.00580537
v 0.07105 0.00181032 0.00744579
v 0.0710612 -0.00250093 0.00555309
v 0.07105 0.00333614 0.00758836
v 0.07805 0.0239338 0.0138115
v 0.071049 0.00408377 0.00958722
v 0.07105 -0.0167153 0.00402734
v 0.0780503 -0.0271411 0.0127001
v 0.0780502 0.016779 0.0120755
v 0.0710502 -0.00500117 0.00580188
v 0.0780499 -0.00877151 0.00911861
v 0.07105 0.0162635 0.0558975
v 0.0780452 -0.00486064 0.0127466
v 0.07105 0.0150889 0.00686526
v 0.0710478 -0.0195933 0.0565028
v 0.0698874 -0.0206974 0.0686424
v 0.0709102 -0.0033829 0.013123
v 0.07105 0.0262721 0.0538656
v 0.078056 0.0247618 0.0105147
v 0.0710519 0.0173349 0.00917271
v 0.0710519 0.0129697 0.00877371
v 0.07805 0.00454318 0.010525
v 0.0780436 0.00244362 0.0128891
v 0.0710496 0.0289469 0.00845035
v 0.0780513 0.0147364 0.00732581
v 0.0710608 0.000787355 0.0551685
v 0.0781307 0.0295277 0.00838088
v 0.0780899 0.030318 0.0103194
v 0.07805 0.0190024 0.00864674
v 0.0710605 -0.0120248 0.00864292
v 0.0781806 0.0259066 0.00467007
v 0.0780512 0.0274679 0.0071151
v 0.07105 0.012654 0.0112237
v 0.07805 -0.0141207 0.00422042
v 0.07105 0.0188392 0.0109036
v 0.07105 -0.0159512 0.0116579
v 0.07805 0.0066429 0.00398675
v 0.0780502 -0.0115066 0.00401383
v 0.07805 -0.00852921 0.00168909
v 0.07805 -0.0157343 0.00566447
v 0.07805 -0.0053987 0.0038085
v 0.0780505 0.00176349 0.00505945
v 0.0710588 -0.0134668 0.00977037
v 0.07105 -0.00462874 0.0559736
v 0.0780487 -0.0121491 -0.00102399
v 0.0780057 0.0122365 0.000395926
v 0.0711683 -0.0010852 0.048694
v 0.0710498 0.0217215 0.0568238
v 0.0780368 -0.0139183 -0.00347948
v 0.0699798 -0.0388682 0.048403
v 0.07105 -0.00208836 0.0574443
v 0.0710522 0.0169022 0.0128244
v 0.07105 -0.0372868 0.00709584
v 0.0706051 0.0370597 0.00320445
v 0.070833 0.0328994 0.0600983
v 0.0710505 -0.0197571 0.0684206
v 0.069273 0.0132031 0.0713395
v 0.0710496 -0.0287521 0.00815702
v 0.0710559 -0.0138083 0.0133853
v 0.0710524 -0.0164133 0.0609594
v 0.07105 -0.00830118 0.0557721
v 0.078 -0.0158401 0.0544921
v 0.0780283 -0.018284 0.0560583
v 0.07105 0.0173263 0.0578437
v 0.0780961 -0.00350955 -0.00654471
v 0.0710472 -0.0309209 0.0140099
v 0.0780873 -0.00145175 -0.00634644
v 0.0780501 0.00426717 -0.000474639
v 0.07805 0.00937014 -0.000678984
v 0.07805 -9.57211e-05 -0.00268588
v 0.0780501 0.0028931 -0.00197017
v 0.07805 -0.00900936 -0.00195355
v 0.0780507 -0.00162687 0.00508285
v 0.0780463 -0.00105158 0.00904351
v 0.0780508 0.00348528 0.00527821
v 0.0780506 -0.00417242 0.00538431
v 0.0710498 0.032681 0.014948
v 0.0780497 -0.0127844 0.0115
v 0.07105 0.0211178 0.0129004
v 0.0780446 -0.00307551 0.0124495
v 0.0780504 0.0132649 0.0117131
v 0.0710511 0.0185705 0.0147137
v 0.0780505 0.0233541 0.0117233
v 0.0780439 0.00919918 0.0146758
v 0.0780498 0.0198449 0.0149091
v 0.07805 0.0276385 0.0188787
v 0.07805 -0.0268775 0.0207708
v 0.07805 0.0291492 0.0226813
v 0.0780507 0.0276408 0.0203845
v 0.0780446 -0.030904 0.0469305
v 0.0999064 -0.0336432 0.0101069
v 0.0782402 -0.0348328 0.0199557
v 0.0780432 -0.0196737 0.0238273
v 0.07805 -0.0291695 0.0249773
v 0.0780503 0.0289903 0.0240738
v 0.0780728 -0.0354705 0.0238964
v 0.0780479 0.033501 0.0307246
v 0.0710497 -0.032926 0.0151806
v 0.07805 0.0237447 0.0286233
v 0.07805 0.0178779 0.0285667
v 0.0780913 -0.0356706 0.0288916
v 0.0780489 -0.0218657 0.0305821
v 0.0783198 0.0359891 0.0306989
v 0.078045 -0.0248832 0.0358839
v 0.0780186 -0.0103968 0.0301725
v 0.0780503 0.0159692 0.0496339
v 0.0780335 -0.0326416 0.0444134
v 0.0780501 -0.0274438 0.0463375
v 0.0780494 0.0283175 0.0505076
v 0.0780449 -0.00053667 0.0468172
v 0.0710499 -0.0205494 0.0588507
v 0.0780497 0.00311362 0.0478648
v 0.07805 0.02607 0.0482624
v 0.0780511 -0.0094518 0.0533967
v 0.0780497 0.0289269 0.0511178
v 0.0780511 0.0117185 0.0519577
v 0.07805 0.0215368 0.0526767
v 0.0782256 0.0191115 0.0599259
v 0.0780502 0.0167148 0.0559201
v 0.0780289 0.000298765 0.0579146
v 0.0780958 -0.018462 0.0601518
v 0.0782532 0.0111673 0.0638824
v 0.07105 -0.0158833 0.0586768
v 0.07105 0.0130823 0.0602124
v 0.07105 -0.00575629 0.0589557
v 0.0710471 0.00744268 0.0629613
v 0.0710505 -0.000799285 0.0652525
v 0.0710508 -0.00806623 0.0647687
v 0.0839523 0.00913562 -0.00576396
v 0.07105 -0.0315775 0.0186714
v 0.07105 -0.0281913 0.0224097
v 0.07105 -0.0260679 0.0255603
v 0.0814248 0.0196494 -0.00106521
v 0.0816697 -0.00171831 -0.00684306
v 0.0710525 -0.022648 0.0267079
v 0.0782566 -0.0325803 0.0134448
v 0.0832 -0.0306263 0.0101695
v 0.0815296 -0.036016 0.0283868
v 0.0820306 -0.0226439 0.0583153
v 0.0816278 -0.0167155 0.0617463
v 0.0833867 -0.0021894 -0.00703575
v 0.0886103 -0.0329795 0.0133165
v 0.0710531 0.0237467 0.0142731
v 0.084588 -0.0364083 0.0276179
v 0.0819098 0.00187243 -0.00683829
v 0.0834341 -0.0163503 0.0622715
v 0.113517 0.032082 0.0295176
v 0.0822669 -0.0305902 0.0493707
v 0.0835657 -0.0203445 0.0600267
v 0.07105 -0.0304996 0.0239228
v 0.113533 0.0213369 0.00618605
v 0.0855309 0.00170106 -0.00680551
v 0.0852295 -0.0192231 0.0601233
v 0.0829386 0.0321337 0.0127286
v 0.0852265 0.0197121 -0.00108435
v 0.0865477 -0.0365576 0.0253228
v 0.0710499 -0.0253149 0.0184333
v 0.0896211 -0.0206311 -0.00089089
v 0.070785 -0.0157124 0.0250929
v 0.0839509 0.030334 0.00824529
v 0.0893785 -0.0295695 0.0511301
v 0.0855502 -0.0203273 0.0600574
v 0.0710491 -0.0345274 0.0219525
v 0.07105 0.0122736 0.0585063
v 0.0937396 -0.0337338 0.0440177
v 0.0902765 -0.0324055 0.0460256
v 0.07105 -0.0108235 0.0610407
v 0.0871665 0.0345063 0.017962
v 0.0888166 0.00967973 -0.00553024
v 0.0880728 0.0323233 0.012645
v 0.0886338 0.00200453 -0.00698313
v 0.07105 0.0288656 0.0171377
v 0.0937364 -0.00461846 0.0656877
v 0.0899458 0.0206862 -0.000676728
v 0.0898997 0.0298859 0.00847757
v 0.0916951 -0.0142952 -0.00418266
v 0.0898687 -0.0364177 0.0273885
v 0.0897838 -0.0180345 0.0605141
v 0.0795576 0.00233877 -0.00709523
v 0.0795457 -0.0203141 0.060024
v 0.0710487 -0.00687211 0.0630667
v 0.0794647 0.0204638 -0.00098905
v 0.0795487 -0.0365915 0.0271689
v 0.0710512 0.0210324 0.0181668
v 0.0783879 -0.0303848 0.0485829
v 0.0748097 0.00432537 0.0463485
v 0.074702 0.00796927 0.0482991
v 0.0939605 0.0332408 0.0147611
v 0.0930558 0.0361689 0.0263732
v 0.0930876 0.029005 0.0512663
v 0.0939687 0.0211453 0.0586777
v 0.093975 0.00361076 0.0653671
v 0.0939364 0.0142462 0.0629421
v 0.0939088 -0.0152284 0.0623344
v 0.0939043 -0.0291689 0.0506718
v 0.0929319 -0.0362185 0.0323234
v 0.0939503 -0.0359472 0.0258009
v 0.0939862 -0.0329915 0.0146901
v 0.0939765 -0.0291458 0.0083514
v 0.0939038 -0.0212032 0.00033697
v 0.0939727 -0.00360094 -0.00636816
v 0.0939916 -0.0147277 -0.00338584
v 0.0940275 0.00415214 -0.00593327
v 0.0939782 0.0149721 -0.00356409
v 0.0940405 0.0213493 0.000328876
v 0.0939174 0.0291832 0.0083071
v 0.0725368 0.00666331 0.0588945
v 0.0734159 0.00326305 0.0519711
v 0.0714801 0.00138274 0.0562715
v 0.0740196 -0.00201884 0.030228
v 0.0740173 0.00188763 0.0301568
v 0.0779297 0.00157479 0.0275591
v 0.0741741 0.0003742 0.0275429
v 0.0769721 0.00142223 0.0312496
v 0.07105 0.0292573 0.0190971
v 0.07105 0.0257252 0.0241583
v 0.07105 0.0297929 0.0258722
v 0.0710524 0.0231229 0.0200632
v 0.07105 0.0305417 0.0215959
v 0.0710563 0.0256696 0.0247688
v 0.07105 -0.032657 0.0234103
v 0.0710489 -0.0128485 0.0625404
v 0.0815274 -0.0189666 0.0601362
v 0.07105 0.0249864 0.0214454
v 0.0912858 -0.0295142 0.0079542
v 0.0939549 0.0359739 0.0331405
v 0.0939895 0.0329435 0.0441609
v 0.0932613 -0.0224518 0.0578912
v 0.0940325 0.0199481 -0.00454681
v 0.0940355 -1.38135e-05 -0.00991361
v 0.0940703 -0.0195198 -0.00479724
v 0.0940577 -0.0341469 0.00982533
v 0.0940444 -0.0394621 0.0292688
v 0.0940405 -0.0340985 0.0492389
v 0.0940328 -0.0199373 0.0635552
v 0.0940414 2.16844e-05 0.068911
v 0.0940556 0.0195181 0.0637974
v 0.0940497 0.0341596 0.0491623
v 0.0940421 0.0394615 0.0297345
v 0.0940389 0.0341075 0.00976285
v 0.0760966 -0.00820475 0.0389159
v 0.0761267 -0.00863226 0.0406
v 0.0710495 0.0279741 0.022414
v 0.0710555 0.0234746 0.0259438
v 0.0719546 0.00632451 0.056001
v 0.0725875 0.00793884 0.0522635
v 0.074502 0.00679536 0.0529544
v 0.07105 0.0308034 0.0234085
v 0.0764806 0.0004675 0.0239256
v 0.0778383 -0.00806415 0.0175828
v 0.0763589 -0.00259843 0.0298917
v 0.0764667 -0.0112411 0.0257486
v 0.0899984 -0.0306465 0.047251
v 0.0900008 -0.0354209 0.0294526
v 0.0899955 -0.0306963 0.0118365
v 0.0899868 -0.0177048 -0.00116114
v 0.0899356 -0.000222977 -0.00614931
v 0.0899962 0.0176612 -0.00119223
v 0.0899919 0.0306328 0.0116494
v 0.0900451 0.0358957 0.0302399
v 0.0795548 0.0328611 0.0132271
v 0.0507773 0.0244356 0.0357714
v 0.0472616 0.0216041 0.0357145
v 0.0465185 0.0305251 0.0339012
v 0.0493137 0.0283486 0.0358307
v 0.0448535 0.0277407 0.0290962
v 0.0440571 0.0284771 0.0357762
v 0.0449215 0.0222009 0.0300682
v 0.0499178 0.0241833 0.0297213
v 0.047948 0.0226785 0.0367983
v 0.0452271 0.0227516 0.036766
v 0.0413642 0.0248667 0.035405
v 0.052149 0.0269203 0.0352715
v 0.0501973 0.0215562 0.0361791
v 0.044314 0.0206345 0.0372114
v 0.0423583 0.0267146 0.0361428
v 0.0435887 0.024977 0.0448463
v 0.0462759 0.0235152 0.0450967
v 0.0468214 0.0314937 0.0436907
v 0.0507905 0.0277118 0.0443929
v 0.048611 -0.0313564 0.0437358
v 0.0424407 -0.0269956 0.0443963
v 0.0495133 -0.0249859 0.0448652
v 0.0467849 -0.023508 0.0451216
v 0.0473047 -0.0293191 0.0358711
v 0.0431399 -0.0273641 0.035731
v 0.0503283 -0.0271922 0.0359764
v 0.0494992 -0.0236391 0.0362503
v 0.0467613 -0.0229916 0.0367205
v 0.0424578 -0.0253503 0.0287547
v 0.0506423 -0.0241794 0.0289613
v 0.0425484 -0.0244702 0.0353312
v 0.0450218 -0.0222493 0.0364598
v 0.0462008 -0.0219601 0.0369166
v 0.0428671 -0.0216419 0.0368579
v 0.0484343 -0.0206156 0.0363121
v 0.0485204 -0.0312088 0.0343305
v 0.0473928 -0.0303177 0.0344021
v 0.0516852 -0.025067 0.0353597
v 0.0409502 -0.0268353 0.0357809
v 0.0433755 -0.0253392 0.0295254
v 0.0469931 -0.0280522 0.0290532
v 0.0497245 -0.0244529 0.0296797
v 0.0461002 -0.0217699 0.0301547
v 0.116661 -0.0215687 0.0241815
v 0.116864 -0.00822932 0.0100019
v 0.116866 0.0057188 0.00885068
v 0.116827 0.0183079 0.0183507
v 0.116866 0.0209676 0.0339108
v 0.116813 0.0123129 0.0470489
v 0.116913 -0.0184916 0.0406165
v 0.117221 -0.00227515 0.0505143
v 0.1165 0.0101168 0.0110976
v 0.116504 -0.0127006 0.0125342
v 0.1165 0.0199722 0.0230106
v 0.1165 0.0190014 0.0384414
v 0.1165 0.00773062 0.0490253
v 0.116542 -0.00416057 0.0507356
v 0.116528 -0.00218279 -0.00291749
v 0.116491 0.0135749 0.000388337
v 0.116496 0.0214694 0.00579741
v 0.116506 -0.0238123 0.00693748
v 0.116505 0.0314457 0.020158
v 0.116494 -0.031262 0.0227589
v 0.116488 0.0303824 0.0400519
v 0.116492 -0.0319945 0.0323293
v 0.11652 -0.0253676 0.0504337
v 0.116481 0.0234277 0.0514633
v 0.116493 0.0126421 0.0590428
v 0.114743 -0.00469503 0.0614707
v 0.116485 -0.00730903 0.0607691
v 0.0438454 0.00461107 -0.016014
v 0.0454164 -0.00546601 -0.015931
v 0.0534012 0.000844922 -0.0160166
v 0.0454279 0.00384579 -0.00598045
v 0.0517986 -0.00072161 -0.00599508
f 254 14 174
f 16 72 60
f 118 17 18
f 186 121 241
f 49 50 13
f 200 162 59
f 42 36 70
f 79 21 219
f 25 151 24
f 27 214 93
f 50 108 29
f 13 50 29
f 150 55 29
f 58 15 3
f 103 219 21
f 104 61 5
f 6 62 10
f 71 259 33
f 259 168 33
f 38 20 170
f 166 222 223
f 174 61 119
f 173 120 37
f 918 198 88
f 7 240 139
f 140 195 11
f 88 10 118
f 14 254 46
f 147 146 113
f 51 50 49
f 149 23 67
f 150 24 151
f 151 25 24
f 52 212 152
f 551 26 89
f 241 121 28
f 161 108 49
f 28 121 151
f 49 108 50
f 241 28 144
f 55 13 29
f 28 150 144
f 150 29 254
f 144 150 254
f 101 254 56
f 70 16 103
f 103 16 163
f 219 103 163
f 200 163 102
f 16 60 163
f 79 129 103
f 79 103 21
f 164 70 103
f 119 61 104
f 137 106 166
f 166 223 136
f 167 106 137
f 186 161 69
f 161 87 108
f 186 69 121
f 195 80 6
f 6 80 62
f 63 118 18
f 61 63 18
f 252 64 65
f 32 71 33
f 33 168 66
f 32 33 66
f 149 19 23
f 168 67 34
f 168 34 20
f 161 109 69
f 110 111 36
f 36 169 8
f 19 113 23
f 23 113 42
f 146 114 110
f 146 110 9
f 113 146 9
f 113 9 36
f 42 113 36
f 106 173 166
f 175 174 104
f 29 197 254
f 178 87 199
f 228 98 4
f 228 4 227
f 123 99 125
f 2 127 148
f 102 205 126
f 15 31 127
f 20 42 129
f 187 167 137
f 61 18 130
f 136 105 5
f 161 521 87
f 62 131 17
f 18 131 132
f 82 245 156
f 44 192 453
f 239 61 193
f 65 194 83
f 84 65 83
f 242 196 118
f 142 182 60
f 88 118 46
f 37 101 222
f 202 22 31
f 184 59 162
f 168 149 67
f 50 51 49
f 67 23 41
f 28 151 150
f 150 151 24
f 211 90 212
f 212 90 152
f 2 148 157
f 191 123 124
f 71 32 217
f 49 13 55
f 150 151 263
f 150 263 55
f 144 254 101
f 222 101 30
f 163 60 205
f 73 57 48
f 203 162 200
f 200 59 219
f 200 219 163
f 231 220 73
f 73 220 57
f 105 104 5
f 43 83 107
f 57 220 165
f 57 165 15
f 7 186 241
f 220 38 170
f 170 20 203
f 203 20 162
f 116 172 16
f 64 221 65
f 117 140 6
f 10 62 118
f 105 223 104
f 114 1 110
f 198 10 88
f 197 918 88
f 197 88 254
f 179 53 192
f 226 75 135
f 147 158 74
f 458 188 126
f 125 99 77
f 2 133 180
f 2 180 127
f 156 78 96
f 96 78 97
f 147 181 146
f 225 179 1
f 1 189 171
f 72 189 40
f 205 182 77
f 184 20 79
f 186 7 64
f 187 137 166
f 186 521 161
f 87 521 115
f 80 280 131
f 80 131 62
f 17 131 18
f 5 130 539
f 208 147 113
f 58 128 245
f 97 15 209
f 236 15 133
f 81 72 237
f 206 47 225
f 191 204 76
f 204 40 76
f 119 61 239
f 137 106 138
f 7 240 241
f 242 62 17
f 118 196 17
f 60 182 142
f 102 163 143
f 163 205 143
f 86 29 12
f 918 197 29
f 115 198 86
f 87 115 86
f 199 87 86
f 199 12 29
f 254 88 46
f 7 241 177
f 22 202 243
f 158 147 45
f 208 45 147
f 23 42 41
f 66 168 20
f 108 87 199
f 108 199 29
f 115 117 198
f 64 7 221
f 262 161 49
f 262 49 55
f 121 263 151
f 112 111 248
f 70 8 16
f 244 218 249
f 244 249 19
f 115 234 140
f 140 234 195
f 38 32 66
f 38 66 20
f 165 220 170
f 172 171 16
f 117 115 140
f 65 221 224
f 83 65 107
f 107 65 224
f 107 224 167
f 167 224 173
f 106 167 173
f 173 222 166
f 14 118 174
f 174 118 63
f 174 63 61
f 222 30 223
f 223 30 175
f 223 175 104
f 174 119 104
f 224 120 173
f 120 176 37
f 176 893 37
f 37 893 101
f 893 144 101
f 114 225 1
f 110 1 171
f 16 171 72
f 60 72 182
f 230 220 231
f 231 73 48
f 39 232 32
f 232 35 218
f 58 57 15
f 6 10 198
f 117 6 198
f 38 230 250
f 136 251 105
f 95 53 179
f 74 75 226
f 122 95 225
f 225 95 179
f 147 74 181
f 181 74 226
f 227 4 76
f 189 228 227
f 189 227 40
f 40 227 76
f 124 123 125
f 99 458 126
f 99 126 77
f 148 127 215
f 127 183 215
f 156 128 78
f 128 229 78
f 229 3 78
f 78 3 97
f 214 230 93
f 230 231 93
f 93 231 48
f 93 48 94
f 216 232 26
f 232 39 26
f 26 39 89
f 232 216 35
f 114 181 226
f 72 171 189
f 205 60 182
f 182 125 77
f 126 205 77
f 180 15 127
f 31 200 127
f 200 102 183
f 127 200 183
f 128 58 3
f 128 3 229
f 97 3 15
f 164 103 129
f 42 164 129
f 59 184 233
f 79 185 59
f 34 67 41
f 34 41 42
f 20 34 42
f 20 129 79
f 233 184 79
f 233 79 59
f 234 80 195
f 252 65 83
f 43 252 83
f 5 61 130
f 115 585 234
f 672 64 252
f 672 252 43
f 318 43 107
f 318 107 167
f 318 167 516
f 516 167 187
f 166 136 235
f 136 5 539
f 35 208 113
f 245 48 207
f 207 48 58
f 207 58 245
f 209 15 236
f 133 15 180
f 188 148 102
f 102 148 183
f 188 102 126
f 237 72 40
f 44 1 179
f 44 189 1
f 114 206 225
f 122 225 47
f 514 158 45
f 45 216 514
f 253 190 89
f 570 89 190
f 128 156 245
f 209 363 97
f 363 209 133
f 188 238 148
f 238 188 458
f 204 191 124
f 44 453 134
f 98 44 134
f 206 135 474
f 47 206 474
f 119 239 61
f 239 193 61
f 251 136 223
f 251 223 105
f 106 137 138
f 194 65 84
f 194 84 83
f 240 7 241
f 7 139 240
f 87 178 199
f 6 140 11
f 6 11 195
f 118 62 242
f 196 242 17
f 141 254 255
f 94 48 245
f 199 86 12
f 253 214 190
f 46 118 14
f 22 200 201
f 31 22 201
f 201 200 31
f 221 7 224
f 224 7 177
f 177 241 144
f 37 222 173
f 22 243 145
f 15 202 31
f 15 165 202
f 259 149 168
f 48 57 58
f 220 230 38
f 226 206 114
f 185 79 219
f 72 81 182
f 182 81 125
f 44 179 192
f 146 181 114
f 230 253 89
f 102 143 205
f 230 214 253
f 89 39 38
f 230 89 250
f 89 38 250
f 216 45 208
f 35 216 208
f 44 98 189
f 98 228 189
f 81 237 204
f 237 40 204
f 81 204 125
f 204 124 125
f 209 236 133
f 183 148 215
f 164 42 70
f 20 184 162
f 185 219 59
f 210 54 160
f 39 32 38
f 206 226 135
f 122 47 95
f 47 474 95
f 218 35 249
f 101 85 30
f 141 174 175
f 30 141 175
f 255 174 141
f 85 141 30
f 85 56 141
f 254 141 56
f 101 56 85
f 254 174 255
f 54 159 210
f 159 100 210
f 160 54 210
f 70 36 8
f 9 110 36
f 256 170 203
f 202 257 256
f 257 170 256
f 165 170 257
f 202 165 257
f 19 258 113
f 258 35 113
f 249 258 19
f 258 249 35
f 71 260 259
f 247 244 19
f 260 247 19
f 71 247 260
f 259 260 149
f 260 19 149
f 261 262 55
f 263 261 55
f 232 246 217
f 32 232 217
f 232 218 246
f 218 244 246
f 246 210 217
f 244 210 246
f 210 71 217
f 244 247 210
f 247 71 210
f 109 161 262
f 261 68 262
f 68 109 262
f 121 68 263
f 68 261 263
f 8 116 16
f 8 112 116
f 112 248 116
f 248 172 116
f 248 111 172
f 111 110 172
f 110 171 172
f 145 203 200
f 22 145 200
f 273 271 274
f 271 275 274
f 305 269 270
f 276 277 238
f 745 278 283
f 191 387 290
f 387 317 290
f 322 323 309
f 329 321 318
f 330 331 724
f 323 324 315
f 723 336 335
f 338 323 330
f 830 340 333
f 723 374 344
f 362 291 356
f 635 372 413
f 372 386 413
f 409 347 408
f 409 349 347
f 350 352 349
f 411 353 352
f 353 412 352
f 412 353 359
f 353 360 359
f 360 415 769
f 131 280 281
f 367 417 418
f 418 417 368
f 418 368 419
f 368 370 419
f 635 413 454
f 373 422 423
f 422 377 423
f 423 377 425
f 425 377 426
f 377 378 426
f 380 426 378
f 427 382 429
f 382 430 384
f 384 430 432
f 430 431 432
f 385 433 948
f 431 385 948
f 435 436 434
f 388 435 434
f 413 386 414
f 441 440 438
f 397 396 392
f 392 396 440
f 397 443 396
f 400 444 443
f 291 464 428
f 445 446 444
f 445 404 446
f 445 446 402
f 369 291 428
f 405 447 445
f 445 447 404
f 448 406 347
f 406 408 347
f 406 448 405
f 414 386 449
f 281 450 451
f 401 281 471
f 409 408 406
f 191 290 462
f 53 316 453
f 365 416 417
f 373 420 422
f 382 427 430
f 454 413 282
f 411 472 353
f 472 463 353
f 472 350 409
f 353 465 360
f 472 409 475
f 360 465 416
f 416 465 417
f 465 370 417
f 475 406 405
f 417 370 368
f 475 405 445
f 476 445 400
f 370 466 371
f 371 466 420
f 476 397 392
f 476 392 477
f 422 466 377
f 477 392 441
f 477 441 439
f 377 466 468
f 377 468 378
f 479 439 437
f 378 468 427
f 479 437 435
f 468 483 427
f 479 435 469
f 469 435 385
f 483 469 431
f 430 483 431
f 449 456 470
f 461 454 777
f 454 282 777
f 458 99 290
f 90 328 155
f 465 463 370
f 468 466 478
f 482 777 291
f 481 480 463
f 486 481 472
f 480 485 463
f 486 472 473
f 156 96 424
f 463 489 490
f 472 475 709
f 455 284 487
f 470 284 499
f 463 490 370
f 490 492 370
f 493 491 476
f 370 492 466
f 379 329 516
f 493 476 494
f 494 476 459
f 459 476 477
f 466 495 452
f 466 452 478
f 329 318 516
f 459 477 498
f 483 478 497
f 497 478 496
f 479 469 483
f 282 501 777
f 488 238 290
f 291 777 501
f 291 501 464
f 451 464 502
f 464 507 502
f 284 455 504
f 499 284 504
f 464 501 507
f 414 212 413
f 131 281 503
f 213 212 52
f 211 91 90
f 90 91 92
f 90 155 154
f 90 154 152
f 328 499 504
f 212 414 211
f 514 506 500
f 514 500 511
f 504 510 328
f 542 507 545
f 567 507 512
f 545 507 567
f 517 514 520
f 212 213 413
f 501 153 507
f 504 515 510
f 375 379 516
f 457 375 516
f 328 558 518
f 517 520 519
f 512 328 518
f 511 190 509
f 567 512 518
f 519 520 527
f 738 644 799
f 567 518 665
f 115 521 585
f 521 186 64
f 521 64 523
f 211 414 91
f 738 799 292
f 523 64 672
f 98 524 387
f 234 585 526
f 511 509 82
f 80 234 280
f 234 526 280
f 558 322 530
f 672 43 318
f 267 266 272
f 91 414 449
f 530 322 310
f 528 133 2
f 273 272 271
f 530 310 532
f 516 187 166
f 516 166 673
f 527 520 277
f 673 166 235
f 514 511 82
f 130 18 539
f 18 132 539
f 530 532 744
f 520 514 82
f 235 136 539
f 131 503 285
f 744 532 588
f 98 387 4
f 328 510 541
f 413 213 282
f 548 565 549
f 554 637 552
f 627 386 553
f 545 567 573
f 285 503 555
f 503 542 555
f 506 551 500
f 542 543 555
f 510 515 608
f 316 474 556
f 135 527 474
f 328 557 558
f 474 527 559
f 559 527 277
f 266 301 272
f 295 298 739
f 153 152 512
f 506 26 551
f 561 190 511
f 528 2 634
f 281 783 725
f 393 363 133
f 583 578 565
f 566 667 794
f 570 190 561
f 578 564 565
f 131 285 571
f 500 570 511
f 565 564 581
f 568 617 649
f 540 505 264
f 467 424 563
f 511 570 561
f 578 583 576
f 567 665 577
f 91 449 470
f 474 559 556
f 565 581 592
f 578 576 566
f 82 467 563
f 520 82 563
f 316 556 559
f 559 277 316
f 571 285 580
f 585 578 566
f 604 581 597
f 581 564 597
f 505 457 516
f 576 583 600
f 507 153 512
f 213 52 282
f 301 302 736
f 586 587 589
f 584 581 593
f 566 576 625
f 276 594 317
f 317 594 290
f 594 276 488
f 290 594 488
f 597 564 672
f 617 597 672
f 132 131 571
f 593 581 618
f 591 601 621
f 520 563 393
f 618 581 619
f 592 603 628
f 98 134 524
f 583 612 596
f 585 566 676
f 598 615 648
f 53 453 192
f 641 692 553
f 547 868 553
f 424 96 563
f 190 214 27
f 601 635 621
f 75 527 135
f 620 604 622
f 577 665 679
f 74 158 517
f 190 27 509
f 517 158 514
f 603 635 628
f 26 506 216
f 216 506 514
f 579 635 610
f 632 617 639
f 551 89 500
f 500 89 570
f 626 537 611
f 91 470 499
f 316 277 453
f 74 517 75
f 509 94 82
f 94 245 82
f 558 530 644
f 618 619 635
f 635 619 372
f 518 558 644
f 620 622 372
f 82 156 467
f 582 665 662
f 75 517 519
f 96 97 363
f 96 363 563
f 52 153 282
f 155 328 512
f 4 387 191
f 668 133 528
f 578 521 564
f 564 521 523
f 665 518 669
f 521 578 585
f 564 523 672
f 644 530 863
f 148 634 157
f 153 52 152
f 526 671 280
f 634 148 238
f 526 585 684
f 585 676 684
f 132 571 633
f 132 674 539
f 539 674 270
f 270 235 539
f 191 462 123
f 518 644 309
f 123 462 675
f 309 644 738
f 654 625 677
f 541 510 782
f 134 587 586
f 634 2 157
f 76 4 191
f 518 309 293
f 518 293 669
f 669 293 799
f 799 293 292
f 323 665 582
f 653 670 386
f 323 582 294
f 610 635 615
f 294 582 662
f 294 662 678
f 294 678 286
f 567 315 595
f 595 315 633
f 633 315 680
f 633 680 681
f 596 612 615
f 524 134 586
f 298 633 681
f 324 545 573
f 324 573 307
f 307 573 602
f 307 602 308
f 602 571 308
f 667 616 658
f 686 692 660
f 665 323 303
f 664 655 641
f 659 549 547
f 649 650 645
f 665 303 679
f 645 647 646
f 664 641 640
f 660 692 641
f 563 363 393
f 692 691 698
f 679 303 306
f 698 694 631
f 679 306 678
f 547 629 868
f 678 306 739
f 643 641 702
f 701 623 575
f 699 702 553
f 524 586 589
f 623 701 703
f 702 641 553
f 698 631 553
f 692 698 553
f 631 547 553
f 868 696 395
f 315 567 732
f 697 700 386
f 678 739 286
f 732 567 605
f 701 553 703
f 372 639 386
f 477 479 498
f 505 516 673
f 633 298 295
f 613 703 398
f 466 492 495
f 732 605 295
f 27 93 509
f 475 476 491
f 491 709 475
f 503 725 708
f 868 395 383
f 605 633 295
f 713 398 399
f 707 706 572
f 395 711 383
f 383 705 723
f 473 472 709
f 504 333 515
f 281 719 361
f 472 481 463
f 781 710 714
f 398 703 830
f 268 781 714
f 703 553 830
f 526 684 716
f 399 398 830
f 515 333 608
f 399 718 717
f 608 333 299
f 718 399 830
f 399 717 366
f 723 389 720
f 720 376 374
f 608 299 288
f 651 638 386
f 723 720 374
f 718 830 354
f 608 288 269
f 633 605 729
f 583 683 590
f 344 374 358
f 374 357 358
f 722 719 348
f 565 599 548
f 331 510 724
f 354 339 342
f 354 830 334
f 724 510 574
f 468 478 483
f 648 615 454
f 524 589 387
f 364 715 346
f 354 334 337
f 340 723 338
f 351 354 341
f 724 574 630
f 343 361 345
f 338 723 335
f 343 345 344
f 723 344 336
f 599 581 568
f 340 338 330
f 333 340 330
f 830 333 314
f 336 332 335
f 724 630 737
f 330 323 331
f 737 630 305
f 650 642 645
f 737 305 740
f 331 323 322
f 323 335 324
f 504 334 560
f 335 332 326
f 552 695 575
f 332 725 326
f 575 321 403
f 560 334 319
f 326 725 726
f 572 379 721
f 314 333 735
f 331 322 311
f 323 728 309
f 560 319 614
f 322 309 730
f 315 324 325
f 715 457 346
f 91 499 92
f 155 512 154
f 266 562 550
f 614 319 302
f 323 315 303
f 324 803 312
f 803 308 312
f 266 550 733
f 728 323 294
f 325 324 307
f 309 728 293
f 730 309 738
f 301 636 614
f 299 333 288
f 733 727 301
f 307 308 298
f 301 614 302
f 313 724 737
f 333 504 533
f 554 642 672
f 132 633 729
f 680 298 681
f 736 269 288
f 333 533 735
f 304 732 296
f 469 385 431
f 735 533 666
f 427 483 430
f 732 295 296
f 735 736 302
f 477 439 479
f 642 617 672
f 420 466 422
f 289 311 740
f 476 400 397
f 735 666 736
f 475 445 476
f 294 286 292
f 532 310 588
f 736 666 269
f 475 409 406
f 738 292 536
f 353 463 465
f 297 588 442
f 411 350 472
f 510 331 311
f 510 311 289
f 510 289 742
f 266 733 301
f 742 289 305
f 740 442 588
f 721 364 346
f 305 289 740
f 721 346 540
f 575 403 807
f 403 572 807
f 322 558 734
f 548 599 568
f 734 558 557
f 665 669 743
f 667 590 794
f 566 776 537
f 734 557 297
f 676 566 537
f 380 378 427
f 407 754 710
f 297 557 744
f 714 710 719
f 281 361 783
f 503 281 725
f 745 746 278
f 746 536 278
f 272 301 271
f 772 575 535
f 535 575 807
f 763 568 747
f 297 744 588
f 747 568 569
f 716 748 754
f 653 637 554
f 637 653 627
f 653 386 627
f 754 748 394
f 487 339 505
f 505 339 266
f 565 579 549
f 579 610 549
f 549 610 547
f 610 615 547
f 545 335 542
f 542 335 327
f 542 327 543
f 748 749 394
f 708 285 320
f 543 327 555
f 285 555 327
f 320 285 327
f 684 544 705
f 546 684 705
f 705 544 723
f 544 482 723
f 749 750 394
f 394 750 389
f 750 753 389
f 754 534 538
f 445 402 446
f 400 443 397
f 445 444 400
f 753 291 389
f 684 676 546
f 676 537 546
f 441 392 440
f 644 827 799
f 439 438 390
f 436 435 390
f 437 390 435
f 439 390 437
f 684 546 705
f 433 435 434
f 435 388 434
f 544 684 383
f 75 519 527
f 435 433 385
f 684 705 383
f 777 544 383
f 752 759 590
f 382 384 429
f 537 522 755
f 381 427 429
f 534 760 538
f 710 781 376
f 427 381 380
f 538 762 756
f 758 764 536
f 781 362 376
f 376 362 374
f 361 814 783
f 362 356 374
f 421 420 373
f 765 371 421
f 419 371 765
f 370 371 419
f 537 776 522
f 729 741 678
f 356 291 374
f 768 716 407
f 769 417 367
f 365 417 769
f 770 763 747
f 716 754 407
f 416 365 769
f 741 679 678
f 415 360 416
f 509 93 94
f 768 407 712
f 353 412 355
f 767 757 771
f 412 353 355
f 287 768 712
f 411 352 350
f 291 287 389
f 287 712 389
f 538 774 762
f 349 409 350
f 772 535 786
f 537 676 611
f 456 761 790
f 676 775 611
f 611 775 711
f 615 635 454
f 775 777 711
f 711 777 383
f 132 729 678
f 441 438 439
f 542 335 525
f 757 779 780
f 525 335 326
f 725 503 726
f 526 716 781
f 788 772 786
f 503 525 726
f 671 526 781
f 393 668 634
f 525 326 726
f 677 454 461
f 510 742 782
f 265 838 375
f 371 420 421
f 545 324 580
f 580 324 312
f 274 275 811
f 811 275 279
f 386 700 449
f 308 571 312
f 571 580 312
f 678 662 785
f 416 769 415
f 503 708 320
f 335 542 327
f 327 542 320
f 542 503 320
f 878 721 540
f 761 456 449
f 453 277 276
f 719 281 401
f 725 783 784
f 278 791 279
f 808 272 273
f 808 273 274
f 275 278 279
f 719 401 348
f 540 264 267
f 792 773 778
f 787 747 569
f 759 875 794
f 401 471 348
f 522 776 843
f 755 522 843
f 762 774 795
f 771 779 796
f 764 796 791
f 536 791 278
f 797 548 568
f 348 471 722
f 716 684 748
f 682 608 269
f 134 453 276
f 471 464 722
f 298 798 739
f 464 344 722
f 751 800 531
f 369 268 357
f 546 537 755
f 268 714 357
f 801 538 756
f 763 797 568
f 275 740 588
f 275 588 278
f 317 134 276
f 531 649 645
f 531 645 778
f 683 752 590
f 710 538 801
f 308 803 757
f 374 291 357
f 298 757 798
f 292 758 536
f 291 369 357
f 450 281 361
f 804 322 730
f 322 804 805
f 490 806 807
f 450 361 343
f 678 785 840
f 495 845 452
f 478 808 809
f 497 810 483
f 451 450 343
f 812 479 483
f 791 812 483
f 813 459 498
f 814 494 459
f 783 814 459
f 815 816 491
f 817 818 709
f 819 481 486
f 820 819 486
f 794 819 820
f 463 823 824
f 588 283 278
f 463 824 489
f 525 503 725
f 332 542 525
f 344 464 343
f 332 525 725
f 507 344 502
f 345 502 344
f 310 864 825
f 310 825 283
f 464 451 343
f 310 283 588
f 804 730 826
f 826 730 738
f 826 738 827
f 718 284 300
f 718 300 717
f 717 300 366
f 366 300 410
f 366 457 346
f 487 354 342
f 609 597 664
f 624 609 664
f 632 639 643
f 599 565 688
f 643 639 641
f 395 461 711
f 565 592 688
f 863 530 283
f 830 831 829
f 271 288 275
f 830 829 832
f 828 340 832
f 700 697 623
f 623 695 575
f 700 623 703
f 449 700 703
f 704 802 833
f 688 592 694
f 456 802 398
f 704 833 403
f 761 703 607
f 761 607 321
f 321 607 575
f 592 628 694
f 647 642 646
f 638 647 699
f 386 638 553
f 354 504 455
f 354 513 341
f 341 550 727
f 727 550 636
f 470 713 399
f 713 835 379
f 713 379 721
f 836 456 398
f 707 836 398
f 837 707 329
f 329 707 572
f 391 838 399
f 694 628 631
f 838 391 715
f 838 715 375
f 375 715 364
f 583 590 663
f 600 583 663
f 600 663 652
f 661 600 652
f 661 696 868
f 454 661 868
f 628 635 631
f 678 840 132
f 587 134 317
f 667 625 616
f 625 654 616
f 616 654 395
f 581 568 686
f 581 686 660
f 619 581 660
f 591 581 689
f 619 660 641
f 372 619 641
f 599 581 689
f 689 591 691
f 691 621 698
f 581 604 687
f 568 581 687
f 581 599 689
f 687 604 693
f 620 372 641
f 693 620 641
f 583 565 685
f 583 685 683
f 612 583 657
f 612 657 629
f 615 612 547
f 583 598 690
f 590 583 690
f 690 598 656
f 598 648 656
f 656 648 868
f 648 454 868
f 592 581 599
f 592 599 688
f 603 592 694
f 635 603 694
f 471 281 722
f 464 471 722
f 344 464 722
f 601 591 691
f 335 545 324
f 324 545 580
f 580 285 803
f 580 803 324
f 567 315 573
f 573 315 325
f 591 689 691
f 790 761 321
f 573 325 307
f 573 307 602
f 602 307 298
f 571 602 298
f 775 676 626
f 775 611 711
f 777 775 711
f 635 601 691
f 839 781 710
f 839 710 376
f 362 839 376
f 362 376 720
f 291 362 720
f 714 268 357
f 369 428 358
f 357 369 358
f 428 344 358
f 684 754 394
f 749 684 394
f 749 394 389
f 753 749 389
f 482 753 723
f 781 768 407
f 407 768 712
f 768 287 389
f 712 768 389
f 287 291 720
f 389 287 720
f 322 541 311
f 311 782 740
f 635 691 692
f 510 330 574
f 574 330 724
f 574 724 313
f 574 313 630
f 630 313 737
f 630 737 269
f 269 737 740
f 557 322 734
f 557 734 297
f 557 297 442
f 830 504 560
f 830 560 334
f 334 560 319
f 319 614 666
f 319 666 302
f 508 354 337
f 529 337 731
f 636 731 301
f 330 510 333
f 333 608 288
f 683 583 657
f 288 682 269
f 288 269 740
f 533 830 314
f 666 314 735
f 666 735 302
f 315 567 577
f 315 577 303
f 583 596 657
f 303 679 306
f 306 741 729
f 306 729 739
f 665 728 294
f 665 294 662
f 662 294 785
f 840 294 292
f 315 567 595
f 315 595 680
f 680 595 633
f 571 298 680
f 633 571 680
f 567 315 732
f 567 732 605
f 605 732 304
f 630 269 305
f 605 304 296
f 605 296 729
f 729 296 295
f 728 665 293
f 293 665 743
f 293 840 292
f 657 596 629
f 799 738 746
f 746 738 536
f 346 457 540
f 803 766 757
f 629 596 868
f 596 615 868
f 757 767 841
f 821 819 789
f 821 789 822
f 579 565 549
f 822 792 823
f 794 820 818
f 565 548 549
f 823 792 824
f 843 817 816
f 589 587 317
f 845 267 808
f 579 549 659
f 784 783 813
f 635 579 547
f 579 659 547
f 280 671 781
f 636 550 673
f 635 547 631
f 568 597 664
f 757 780 771
f 819 875 789
f 788 786 806
f 806 786 807
f 664 597 655
f 562 505 673
f 808 274 809
f 597 609 655
f 811 279 810
f 279 791 810
f 655 609 641
f 781 716 768
f 609 624 641
f 550 562 673
f 624 372 641
f 568 581 686
f 280 781 268
f 789 787 822
f 787 569 792
f 581 584 686
f 792 793 824
f 824 793 788
f 748 684 749
f 774 843 816
f 795 774 815
f 795 815 814
f 807 878 844
f 584 593 686
f 844 878 540
f 844 540 845
f 796 779 846
f 796 846 812
f 593 618 686
f 686 618 692
f 456 836 470
f 847 823 463
f 842 836 866
f 618 635 692
f 847 822 823
f 836 837 866
f 597 568 687
f 848 819 821
f 849 820 486
f 604 597 687
f 849 486 818
f 818 486 473
f 820 849 818
f 850 709 816
f 816 709 491
f 604 687 693
f 817 850 816
f 851 491 493
f 622 604 693
f 321 695 318
f 814 493 494
f 783 459 460
f 372 622 641
f 695 554 318
f 852 460 813
f 622 693 641
f 846 498 853
f 590 576 663
f 554 672 318
f 479 812 498
f 812 853 498
f 576 600 663
f 791 483 484
f 663 600 652
f 743 669 799
f 483 810 484
f 810 791 854
f 855 497 496
f 809 855 496
f 855 809 811
f 600 661 652
f 452 808 478
f 652 661 696
f 845 856 452
f 856 845 808
f 857 844 495
f 696 661 395
f 492 807 495
f 807 857 495
f 661 454 395
f 857 807 844
f 598 583 690
f 840 743 799
f 583 590 690
f 858 824 806
f 338 859 323
f 860 859 335
f 323 859 860
f 860 335 323
f 711 461 777
f 615 598 656
f 395 677 461
f 344 507 336
f 598 690 656
f 336 507 542
f 336 542 332
f 284 718 354
f 372 624 641
f 624 640 641
f 615 656 868
f 284 399 300
f 300 399 410
f 410 399 366
f 410 366 457
f 782 742 305
f 457 366 346
f 470 861 834
f 861 398 713
f 861 470 398
f 729 295 739
f 740 305 442
f 727 636 301
f 721 379 375
f 721 375 364
f 403 329 572
f 781 407 710
f 268 714 719
f 281 268 719
f 861 713 721
f 451 502 345
f 361 451 345
f 487 342 339
f 617 632 643
f 649 617 643
f 664 597 568
f 861 721 379
f 284 862 399
f 862 391 399
f 833 321 329
f 282 153 501
f 152 154 512
f 863 826 827
f 864 863 825
f 391 862 715
f 804 826 865
f 805 804 865
f 715 862 265
f 826 864 865
f 800 568 649
f 715 265 375
f 798 757 841
f 489 858 806
f 715 375 457
f 452 856 808
f 744 557 305
f 810 854 484
f 455 354 351
f 854 791 484
f 455 351 513
f 817 709 850
f 513 351 341
f 848 480 819
f 480 848 821
f 644 863 827
f 513 341 550
f 864 805 865
f 783 460 852
f 550 341 727
f 864 826 863
f 550 727 733
f 597 617 568
f 457 505 540
f 334 504 337
f 337 504 508
f 337 508 529
f 337 529 731
f 387 589 317
f 731 529 301
f 301 529 636
f 283 530 744
f 354 455 339
f 339 455 487
f 520 393 634
f 53 95 316
f 339 487 505
f 830 867 869
f 867 868 869
f 859 338 335
f 868 870 869
f 339 505 266
f 824 858 489
f 868 383 870
f 266 505 562
f 489 806 490
f 645 642 647
f 827 738 799
f 478 809 496
f 642 638 647
f 840 799 674
f 811 497 855
f 812 846 853
f 783 852 813
f 813 460 459
f 815 851 814
f 851 493 814
f 647 638 699
f 815 491 851
f 638 651 699
f 699 651 702
f 651 386 702
f 834 861 835
f 277 520 238
f 95 474 316
f 819 480 481
f 670 653 627
f 340 869 723
f 485 821 822
f 847 485 822
f 653 637 627
f 470 838 862
f 485 847 463
f 637 653 554
f 796 812 791
f 280 268 281
f 132 840 674
f 779 813 846
f 779 784 813
f 845 540 267
f 774 816 815
f 760 843 774
f 776 818 843
f 470 862 284
f 776 794 818
f 822 787 792
f 553 868 867
f 637 554 695
f 637 695 552
f 799 746 674
f 553 867 830
f 386 670 553
f 670 627 553
f 875 819 794
f 634 668 528
f 617 650 649
f 666 614 673
f 773 531 778
f 650 617 642
f 809 274 811
f 614 636 673
f 675 290 99
f 92 499 90
f 830 832 340
f 639 617 643
f 824 788 806
f 617 649 643
f 386 639 702
f 639 643 702
f 293 743 840
f 544 777 482
f 785 294 840
f 802 606 833
f 306 679 741
f 303 577 679
f 533 314 666
f 504 830 533
f 833 606 704
f 288 608 682
f 333 510 608
f 529 731 636
f 508 337 529
f 504 354 508
f 319 560 614
f 606 802 398
f 557 442 305
f 328 322 557
f 869 870 723
f 740 782 305
f 311 541 782
f 802 456 398
f 322 328 541
f 753 389 723
f 870 383 723
f 464 344 428
f 268 369 357
f 775 626 611
f 676 537 626
f 833 704 403
f 281 451 361
f 833 403 321
f 281 719 722
f 635 694 698
f 592 688 694
f 739 796 286
f 612 629 547
f 583 683 657
f 871 784 779
f 604 620 693
f 285 708 871
f 285 871 803
f 621 635 698
f 872 795 814
f 591 621 691
f 707 836 842
f 581 591 689
f 719 872 361
f 361 872 814
f 654 677 395
f 873 843 760
f 566 625 667
f 661 652 696
f 520 634 238
f 467 156 424
f 684 546 873
f 684 873 754
f 838 470 399
f 794 776 874
f 836 707 837
f 470 836 398
f 713 834 835
f 713 470 834
f 341 513 550
f 354 455 513
f 685 565 875
f 875 565 548
f 638 699 553
f 836 707 398
f 750 749 753
f 646 642 554
f 647 638 642
f 792 569 876
f 761 449 703
f 403 833 329
f 802 606 398
f 802 704 606
f 707 842 866
f 793 877 788
f 575 695 321
f 646 554 877
f 623 697 695
f 877 554 552
f 829 828 832
f 828 869 340
f 707 866 706
f 807 572 878
f 828 830 869
f 572 721 878
f 828 831 830
f 264 505 267
f 831 828 829
f 267 505 266
f 639 372 641
f 624 664 640
f 284 354 487
f 736 288 271
f 366 410 457
f 706 866 572
f 825 863 283
f 805 864 310
f 572 866 379
f 739 798 841
f 796 739 841
f 480 821 485
f 841 767 771
f 796 841 771
f 843 818 817
f 818 473 709
f 269 666 235
f 846 813 498
f 292 286 758
f 286 796 758
f 758 796 764
f 497 811 810
f 495 844 845
f 490 807 492
f 322 805 310
f 393 133 668
f 697 701 695
f 725 784 871
f 708 725 871
f 298 308 757
f 803 871 766
f 710 754 538
f 766 871 779
f 697 386 701
f 800 649 531
f 695 701 575
f 666 673 235
f 719 801 756
f 772 879 575
f 701 386 553
f 762 795 872
f 756 762 872
f 719 756 872
f 710 801 719
f 703 456 790
f 755 843 873
f 879 552 575
f 546 755 873
f 866 837 379
f 283 744 270
f 271 301 736
f 275 288 740
f 536 764 791
f 590 759 794
f 789 747 787
f 792 778 793
f 456 703 613
f 837 329 379
f 267 272 808
f 754 873 534
f 534 873 760
f 675 462 290
f 703 790 607
f 776 566 874
f 456 613 398
f 238 458 290
f 607 790 321
f 607 321 575
f 744 305 270
f 566 794 874
f 576 590 667
f 835 861 379
f 548 797 763
f 625 576 658
f 770 789 875
f 763 770 875
f 548 763 875
f 576 667 658
f 674 746 270
f 752 683 685
f 752 685 875
f 759 752 875
f 753 482 291
f 751 568 800
f 773 751 531
f 773 792 876
f 751 773 876
f 677 625 616
f 568 751 876
f 789 770 747
f 625 658 616
f 746 745 270
f 454 677 395
f 677 616 395
f 569 568 876
f 780 779 771
f 877 552 772
f 877 772 788
f 772 552 879
f 745 283 270
f 757 766 779
f 538 760 774
f 781 839 362
f 778 645 646
f 778 646 877
f 793 778 877
f 269 235 270
f 786 535 807
f 862 838 265
f 488 276 238
f 123 675 99
f 90 499 328
f 885 882 883
f 882 880 883
f 884 885 883
f 887 884 883
f 884 886 885
f 885 886 889
f 887 883 888
f 886 887 889
f 887 888 889
f 883 880 888
f 884 887 886
f 120 882 890
f 882 891 880
f 880 891 892
f 881 880 892
f 881 892 893
f 890 881 893
f 176 890 893
f 892 144 893
f 892 891 177
f 892 177 144
f 891 882 224
f 891 224 177
f 882 120 224
f 120 890 176
f 890 882 894
f 890 894 889
f 881 890 889
f 881 889 888
f 882 885 894
f 881 888 880
f 894 885 889
f 112 8 895
f 8 169 898
f 895 8 896
f 8 898 896
f 36 111 897
f 36 897 898
f 169 36 898
f 111 112 895
f 897 111 895
f 898 897 895
f 898 895 896
f 900 899 902
f 899 901 902
f 256 203 901
f 899 256 901
f 243 202 900
f 203 145 901
f 145 243 900
f 901 145 902
f 145 900 902
f 202 256 899
f 202 899 900
f 909 905 906
f 908 910 911
f 904 908 911
f 911 906 912
f 914 913 29
f 86 917 29
f 917 914 29
f 915 917 86
f 198 915 86
f 918 915 198
f 913 918 29
f 916 915 904
f 904 915 918
f 915 916 917
f 911 918 913
f 917 906 914
f 906 911 914
f 914 911 913
f 920 919 921
f 921 919 922
f 910 918 911
f 906 907 912
f 907 911 912
f 920 921 903
f 920 903 904
f 919 920 904
f 903 921 905
f 921 922 906
f 905 921 906
f 919 904 911
f 922 919 911
f 906 922 907
f 922 911 907
f 916 903 905
f 903 916 904
f 917 916 905
f 909 917 905
f 908 904 918
f 909 906 917
f 908 918 910
f 923 924 929
f 924 925 929
f 925 926 929
f 926 927 929
f 929 927 928
f 929 928 930
f 925 931 926
f 932 924 923
f 926 933 927
f 927 934 928
f 936 929 930
f 928 935 936
f 928 936 930
f 937 938 925
f 937 925 924
f 940 937 924
f 925 938 931
f 940 924 932
f 938 939 926
f 931 938 926
f 939 941 926
f 940 932 923
f 926 941 933
f 942 940 923
f 933 941 927
f 942 923 944
f 927 941 943
f 927 943 934
f 944 923 945
f 923 929 945
f 934 943 928
f 928 943 946
f 929 936 945
f 935 928 947
f 928 946 947
f 936 935 947
f 945 936 949
f 936 947 948
f 936 948 949
f 352 412 937
f 937 412 938
f 349 352 937
f 938 412 360
f 347 349 940
f 349 937 940
f 938 360 769
f 938 769 939
f 448 347 940
f 939 769 941
f 405 448 940
f 941 769 418
f 446 405 940
f 941 418 419
f 446 940 942
f 443 446 944
f 446 942 944
f 941 419 765
f 941 765 421
f 941 421 943
f 943 421 373
f 440 443 945
f 443 944 945
f 943 373 425
f 943 425 946
f 438 440 945
f 946 425 426
f 390 438 945
f 946 426 380
f 946 380 947
f 434 390 945
f 947 380 429
f 434 945 949
f 947 429 384
f 947 384 948
f 948 434 949
f 447 405 446
f 373 423 425
f 384 432 948
f 360 412 359
f 769 367 418
f 380 381 429
f 431 948 432
f 433 434 948
f 436 390 434
f 396 443 440
f 444 446 443
f 404 447 446
f 951 950 952
f 54 210 953
f 100 159 954
f 159 54 954
f 953 210 954
f 954 210 100
f 953 954 54
f 952 950 121
f 952 121 69
f 950 68 121
f 950 951 109
f 68 950 109
f 951 952 69
f 109 951 69
