v 0.0320709 -0.0536594 -0.00832307
v 0.0305559 -0.0598802 0.0198746
v 0.0310386 -0.0735085 0.0306768
v 0.0319636 -0.0789284 -0.0323682
v 0.0307524 -0.0970348 -0.0306005
v 0.0320408 -0.108255 -0.0240707
v 0.0311902 -0.115779 0.0129006
v 0.0320045 -0.118451 0.00334624
v 0.0379233 -0.0477781 0.0126764
v 0.0379714 -0.0518874 0.000236268
v 0.0379668 -0.0487226 -0.0134966
v 0.0379142 -0.0549632 -0.018347
v 0.0379719 -0.0525599 0.0215817
v 0.0381447 -0.0534707 -0.0224891
v 0.0370717 -0.0462129 0.030017
v 0.0379758 -0.0635968 0.0269781
v 0.0379737 -0.062502 -0.0269765
v 0.0380009 -0.0610038 0.0233457
v 0.0388261 -0.0642417 -0.0295048
v 0.0380105 -0.0770791 -0.0360525
v 0.0379581 -0.0680576 0.0302358
v 0.0380247 -0.0770335 0.0338821
v 0.0379907 -0.0764461 -0.0321524
v 0.0379005 -0.0715799 -0.0347377
v 0.037903 -0.0720109 0.0349875
v 0.0379855 -0.0876288 0.0389865
v 0.0379882 -0.0995078 0.0343602
v 0.0379709 -0.0983004 -0.0356868
v 0.0380545 -0.0968382 -0.0335777
v 0.0379808 -0.103728 0.0282526
v 0.0380253 -0.109371 -0.024641
v 0.0379974 -0.106965 -0.0306541
v 0.0379887 -0.115238 -0.0209493
v 0.0379848 -0.114319 0.0206785
v 0.0379765 -0.121024 0.0196813
v 0.0380795 -0.121425 -0.0132691
v 0.0379749 -0.122313 0.0134849
v 0.0379127 -0.120849 -0.0167475
v 0.0275715 -0.071587 0.0328744
v 0.027585 -0.0716225 -0.0329586
v 0.0275194 -0.0769541 -0.0354979
v 0.0275245 -0.0926955 -0.0369858
v 0.0274243 -0.0974242 -0.0337995
v 0.0274513 -0.0934491 0.0362759
v 0.0274812 -0.0984588 0.0335681
v 0.0274764 -0.101778 0.0316074
v 0.0275207 -0.113697 -0.023676
v 0.027454 -0.115739 0.0211312
v 0.0275239 -0.122292 0.0150734
v 0.0274853 -0.121023 -0.0166798
v 0.0275917 -0.0764489 0.0358107
v 0.0274939 -0.0487656 0.0135267
v 0.0275414 -0.0486145 -0.0145678
v 0.0275079 -0.0515785 -0.00018831
v 0.0274861 -0.0561485 -0.0198122
v 0.0274964 -0.0550223 -0.0217302
v 0.0274912 -0.0547069 0.0206062
v 0.0301891 -0.103022 0.0257889
v 0.0313302 -0.091967 0.0323654
v 0.0277593 -0.0919712 0.0308576
v 0.030693 -0.0536097 0.0055707
v 0.0296762 -0.0579208 -0.0109287
v 0.0311639 -0.0636302 -0.0246375
v 0.0312374 -0.11723 -0.00775493
v 0.0307691 -0.0587487 -0.00266201
v 0.0303204 -0.0594242 0.00817703
v 0.0301912 -0.0661527 0.0190618
v 0.0303008 -0.0733223 0.0246452
v 0.0298241 -0.0784396 -0.0285741
v 0.029765 -0.0674607 -0.0217286
v 0.030287 -0.0872604 0.0270222
v 0.0301093 -0.0786541 0.0262726
v 0.0306934 -0.0867149 -0.0285919
v 0.0300946 -0.0919996 0.0256434
v 0.0305158 -0.100262 -0.0220888
v 0.0279401 -0.11055 0.0096384
v 0.0305533 -0.106668 0.0235301
v 0.0306883 -0.109998 -0.011592
v 0.0304165 -0.112303 0.00590942
v 0.030175 -0.114718 -0.00139367
v 0.0305247 -0.0407103 -0.0299286
v 0.0135224 -0.0455449 -0.0301452
v 0.0294686 -0.062656 -0.0299756
v 0.0131682 -0.0639517 -0.0297401
v 0.028503 -0.0387229 -0.0253133
v 0.0275269 -0.0522291 0.00564161
v 0.0123644 -0.0582288 -0.0194368
v 0.0275173 -0.065293 -0.0240784
v 0.0125051 -0.057449 0.0169559
v 0.0274991 -0.0681055 0.0272333
v 0.0160022 -0.075596 0.0318178
v 0.0275134 -0.0765218 -0.0312178
v 0.0275066 -0.0825396 0.0320056
v 0.0261878 -0.107384 -0.026222
v 0.0275391 -0.0971575 -0.0302511
v 0.0278323 -0.109471 -0.0196232
v 0.0272229 -0.116479 -0.00559153
v 0.0211363 -0.0940799 -0.0323544
v 0.022126 -0.0979237 0.030652
v 0.0198696 -0.0890365 0.0328971
v 0.0250268 -0.108394 0.0242108
v 0.0122884 -0.0524291 -0.000118256
v 0.0274746 -0.0571849 0.0052727
v 0.0274623 -0.0568478 -0.0101809
v 0.0274345 -0.0633097 0.0189465
v 0.0271191 -0.0612081 -0.0043006
v 0.0277587 -0.0762673 0.0238413
v 0.0276448 -0.0805109 -0.0262617
v 0.0276496 -0.0957436 -0.0240802
v 0.0274589 -0.104525 0.0235375
v 0.0274832 -0.106396 -0.0120066
v 0.0275056 -0.117906 0.00860546
v 0.0281522 -0.1024 0.018841
v 0.0173059 -0.0801783 -0.0327801
v 0.011772 -0.0510579 -0.023656
v 0.0116571 -0.053555 0.0228943
v 0.011844 -0.0564022 0.0294755
v 0.0292566 -0.0621504 0.0299711
v 0.0232072 -0.0395941 0.0278743
v 0.0359871 -0.0459265 0.0240568
v 0.0141374 -0.0460718 0.0298639
v -0.00671777 -0.0245414 0.0335995
v 0.0214784 -0.0121146 0.0320641
v 0.0300752 -0.0359555 0.032478
v 0.0328712 -0.0330525 0.0325294
v 0.00916788 -0.0541303 0.0328837
v 0.0354375 -0.0411587 0.03359
v 0.00511637 -0.0465934 0.0321941
v -0.00796081 -0.0238946 0.0390956
v 0.0264991 -0.0138899 0.0359094
v -0.0151351 -0.0176413 0.0391808
v -0.0215684 -0.00401197 0.0336881
v 0.00860238 -0.0546587 0.0379418
v 0.0134506 -0.0576068 0.037257
v 0.0401565 -0.0492601 0.0376436
v 0.0342357 -0.047089 0.0373275
v 0.0384425 -0.0592183 0.0361607
v 0.0410563 -0.0611573 0.037014
v 0.0230282 -0.00779459 0.0384262
v -0.00230727 -0.0139915 0.0337508
v -0.00275644 -0.0235991 0.0344078
v 0.0151583 -0.00444093 0.0346207
v 0.0175001 0.0105429 0.0342655
v 0.0127052 0.016971 0.0337935
v 0.00952945 0.010737 0.0342079
v -0.00846478 0.0124559 0.0327643
v -0.0118242 0.0176924 0.0342751
v -0.00336746 0.0164245 0.0342345
v -0.0142163 -0.00444926 0.0342741
v -0.0206731 0.00200143 0.0341904
v -0.00668938 -0.0174654 0.0333558
v 0.0122972 -0.00666142 0.0317253
v 0.0178745 -0.0116062 0.0330922
v 0.0160448 -0.0157308 0.0334535
v 0.0117612 -0.064371 0.0368863
v 0.0242932 -0.0702212 0.0318498
v 0.0191438 -0.0684384 0.0372117
v 0.0424078 -0.0559167 0.032239
v -0.00393618 0.0209447 0.0349415
v -0.00397232 0.0223384 0.0398771
v -0.0144938 0.00114147 0.0349069
v -0.00611492 0.0130202 0.0350058
v -0.0117245 0.00955223 0.0299699
v -0.0115182 -0.0074992 0.0323064
v 0.0099928 0.0107468 0.030026
v 0.00205452 -0.0141188 0.0299818
v 0.0222779 -0.0111996 0.0348997
v -0.00609712 -0.0264959 0.0347704
v 0.0154881 -0.0640717 0.0349005
v 0.0309875 -0.0686864 0.0360906
v 0.0338805 -0.0438379 0.0347327
v 0.0333231 -0.0650638 0.0348879
v 0.018729 -0.0412175 0.0324413
v 0.011885 -0.054204 0.0349676
v -0.0178582 0.0166154 0.0301805
v -0.0120035 0.0219851 0.0393788
v -0.0229112 0.0051873 0.0397171
v -0.0209825 -0.014766 0.0355652
v 0.00839392 0.0230442 0.0397657
v -0.000528583 0.0248211 0.0301759
v 0.0203513 0.0120997 0.0393119
v 0.0195979 0.0148106 0.0303473
v 0.00276262 -0.0485794 0.0300033
v 0.0132685 -0.0654997 0.0316729
v 0.0313889 -0.0649158 0.0299987
v 0.0352542 -0.0318856 0.0299997
v -0.0244514 -0.000139918 0.0301652
v 0.0195132 0.0134344 0.0299721
v -0.0220326 -0.002751 0.0395297
v 0.00830872 -0.0460159 0.0347613
v -0.0417924 -0.0781144 0.0221103
v -0.0440431 -0.0791587 0.029137
v -0.0397303 -0.0793798 0.0285056
v -0.0411409 -0.0854107 0.0201078
v -0.0375687 -0.119307 0.0198732
v -0.0462938 -0.117138 0.0161114
v -0.0445586 -0.117926 0.0232148
v -0.0413096 -0.115822 0.0150028
v -0.0468779 -0.116934 0.0214995
v -0.0384613 -0.116174 0.0168074
v -0.0378018 -0.116878 0.0208864
v -0.0388422 -0.116821 0.022063
v -0.0469943 -0.101022 0.0203258
v -0.0471545 -0.102304 0.0231011
v -0.0382637 -0.116497 0.0195175
v -0.0436388 -0.101888 0.017204
v -0.0380908 -0.102218 0.020393
v -0.0463083 -0.114329 0.0218807
v -0.043117 -0.0997481 0.01752
v -0.0434093 -0.102219 0.0265903
v -0.0391809 -0.0926288 0.0199924
v -0.0404328 -0.093246 0.0260217
v -0.0385818 -0.0943816 0.0269961
v -0.0447318 -0.0927491 0.019716
v -0.0429197 -0.0958281 0.0180589
v -0.0386088 -0.101743 0.0190146
v -0.0448974 -0.0949634 0.0189359
v -0.047299 -0.0935493 0.0243916
v -0.0461908 -0.0943591 0.0268079
v -0.0386762 -0.10038 0.0254755
v -0.0437939 -0.0996095 0.0272056
v -0.0460876 -0.0783957 0.0256493
v -0.0383002 -0.0811671 0.0246483
v -0.0444818 -0.0820382 0.0290441
v -0.0436769 -0.0870742 0.0294341
v -0.0445456 -0.0854009 0.0205626
v -0.04724 -0.0862113 0.0229601
v -0.037312 -0.0862529 0.0244618
v -0.0399488 -0.087263 0.0290773
v -0.0465013 -0.0897184 0.0200725
v -0.0424091 -0.0909824 0.0187129
v -0.0380718 -0.0904481 0.0214436
v -0.0378456 -0.0907615 0.0266798
v -0.0406984 -0.092083 0.029143
v -0.0476964 -0.0869353 0.0240897
v -0.0470792 -0.0908154 0.0264316
v -0.0423214 -0.0912611 0.0188862
v -0.0421505 -0.0914872 0.020618
v -0.0454684 -0.0921012 0.0236517
v -0.0454189 -0.0926723 0.0257508
v -0.0405933 -0.0886048 0.0195606
v -0.0373846 -0.0898063 0.0257114
v -0.0448171 -0.0902577 0.028609
v -0.0388269 -0.0788376 -0.0278546
v -0.0405936 -0.0779939 -0.0231513
v -0.0461508 -0.0783205 -0.0257576
v -0.0388597 -0.119681 -0.0222833
v -0.0426792 -0.116647 -0.0143574
v -0.0389943 -0.115992 -0.016022
v -0.037877 -0.116681 -0.0189051
v -0.0470916 -0.119185 -0.0210349
v -0.039425 -0.117375 -0.0230881
v -0.0412576 -0.115868 -0.0151919
v -0.0471133 -0.116812 -0.0199873
v -0.0452716 -0.116006 -0.0159852
v -0.0456474 -0.117212 -0.0227233
v -0.0425527 -0.117342 -0.0238052
v -0.0392096 -0.101789 -0.018242
v -0.0398835 -0.110146 -0.0247896
v -0.047103 -0.102537 -0.0222543
v -0.0452976 -0.102819 -0.0253998
v -0.045226 -0.0993699 -0.0182405
v -0.0396006 -0.101203 -0.0183738
v -0.0411993 -0.100942 -0.0270225
v -0.0385837 -0.101075 -0.025384
v -0.0428279 -0.0926254 -0.0196863
v -0.0400617 -0.0938094 -0.0263409
v -0.0465706 -0.0936091 -0.02532
v -0.0413558 -0.0936276 -0.018417
v -0.0443109 -0.095869 -0.0183814
v -0.0380177 -0.0929164 -0.0207551
v -0.0463593 -0.0950893 -0.0200594
v -0.0393306 -0.0940979 -0.0273996
v -0.0470676 -0.102145 -0.0224392
v -0.0444833 -0.0947456 -0.0276371
v -0.0440814 -0.0971942 -0.0280851
v -0.0426226 -0.0806083 -0.0217981
v -0.0461102 -0.0809345 -0.0241868
v -0.0444729 -0.0819471 -0.0289946
v -0.0453886 -0.0867561 -0.0284161
v -0.0469506 -0.0857302 -0.0214436
v -0.0378347 -0.0864101 -0.0259028
v -0.0426155 -0.085248 -0.0198939
v -0.0384464 -0.0859265 -0.0216207
v -0.0477361 -0.0896481 -0.0218386
v -0.0421264 -0.087054 -0.0299347
v -0.0394452 -0.090565 -0.0194012
v -0.0453961 -0.0917478 -0.0285074
v -0.0381112 -0.0900457 -0.0277522
v -0.0457143 -0.0926139 -0.0257219
v -0.0424434 -0.0915003 -0.0206643
v -0.0386294 -0.0926209 -0.0254235
v -0.0427832 -0.0885442 -0.0188074
v -0.0373804 -0.0895073 -0.0245656
v -0.0472495 -0.0896619 -0.0267572
v -0.041793 -0.10353 -0.0354849
v -0.0414461 -0.0720619 -0.0358219
v -0.041339 -0.0783505 -0.0336504
v -0.0245868 -0.0541941 0.0302906
v -0.0376124 -0.082807 0.0423118
v -0.0257272 -0.0452212 0.0150075
v -0.0411308 -0.0995855 0.0370366
v -0.0245916 -0.0485287 -0.0244719
v -0.0346856 -0.126069 -0.0172043
v -0.0355842 -0.0756397 -0.0272542
v -0.0412039 -0.0841915 0.0395884
v -0.0432607 -0.0793547 0.0326883
v -0.0428824 -0.106649 0.00841927
v -0.0440046 -0.108535 0.0105858
v -0.0244491 -0.126944 0.0136045
v -0.0420522 -0.0768328 0.0200278
v -0.0421949 -0.0638458 0.0197932
v -0.0413513 -0.0700863 0.0346839
v -0.0411238 -0.0816355 -0.0173375
v -0.0417006 -0.0629418 -0.0257607
v -0.0352377 -0.053325 0.0314974
v -0.0415591 -0.114181 -0.00820071
v -0.041215 -0.0736969 -0.0213925
v -0.0329512 -0.0484483 -0.014593
v -0.0375705 -0.0884488 0.0185543
v -0.032653 -0.0439237 -0.017442
v -0.0491572 -0.0725501 0.0268346
v -0.0410817 -0.0947638 -0.0156412
v -0.0245564 -0.128647 -0.00962266
v -0.0245038 -0.119283 0.028256
v -0.0426209 -0.0565114 -0.0196608
v -0.042981 -0.0659704 0.0323642
v -0.0365876 -0.0442992 0.0151572
v -0.0408928 -0.0493478 0.0163194
v -0.0420068 -0.119982 0.00747321
v -0.03667 -0.125459 -0.0132195
v -0.0366904 -0.076276 -0.0224573
v -0.0490939 -0.0661497 -0.0283791
v -0.0329443 -0.12831 0.0129366
v -0.0325848 -0.0781448 -0.0438749
v -0.0329359 -0.046068 -0.0199711
v -0.0380119 -0.0920599 -0.0158183
v -0.0371643 -0.0875988 -0.0189751
v -0.0302485 -0.070909 -0.0383352
v -0.0307714 -0.122418 -0.0153469
v -0.0469353 -0.0645865 0.0280553
v -0.0305533 -0.0999747 -0.0385276
v -0.0363565 -0.105679 0.0377619
v -0.0428735 -0.107086 0.0125721
v -0.0399494 -0.0769351 -0.0116836
v -0.0246346 -0.0763765 -0.0433765
v -0.0244938 -0.0713494 -0.0400077
v -0.0244484 -0.0440705 0.0136513
v -0.0382627 -0.122697 -0.00372285
v -0.0405759 -0.121896 -0.00531558
v -0.0422735 -0.102004 -0.00223231
v -0.0418347 -0.107264 0.0300647
v -0.0408769 -0.0986026 0.0365953
v -0.0395749 -0.0694578 0.00465439
v -0.0414139 -0.0505849 -0.00628165
v -0.0405783 -0.0646842 -0.00474654
v -0.0346549 -0.0721183 0.0425505
v -0.0333224 -0.12134 -0.027764
v -0.0420253 -0.101935 0.0126334
v -0.03883 -0.10106 -0.00571076
v -0.0477064 -0.128351 -0.00148058
v -0.0356324 -0.12864 -0.00108659
v -0.0408471 -0.0501858 -0.017327
v -0.0400223 -0.112674 0.0284314
v -0.0373418 -0.126611 0.00454091
v -0.0334798 -0.0444622 -0.0191375
v -0.0246972 -0.123942 -0.0203617
v -0.0248572 -0.0466891 -0.0191336
v -0.0334215 -0.0411749 -0.00151585
v -0.0281912 -0.0857544 0.0442885
v -0.0380533 -0.069888 -0.00664398
v -0.0332568 -0.0590802 -0.0365194
v -0.0334219 -0.0958983 0.0440566
v -0.0327107 -0.0484478 -0.0138939
v -0.0189556 -0.100863 0.0367657
v -0.0328237 -0.0686066 -0.0368563
v -0.0333862 -0.101402 -0.042027
v -0.0389254 -0.0691501 -0.00422668
v -0.0367887 -0.0784846 0.0287886
v -0.0351896 -0.126159 0.0167038
v -0.0488665 -0.0672647 0.0299856
v -0.0309577 -0.122245 0.0148711
v -0.0423523 -0.108296 0.00732619
v -0.0433961 -0.112756 -0.0119898
v -0.0428524 -0.106537 -0.0119572
v -0.0375656 -0.0934445 -0.0119515
v -0.0374989 -0.0847491 -0.0140457
v -0.0244985 -0.124465 0.0193444
v -0.024745 -0.114061 0.0328084
v -0.0247705 -0.104607 0.0387727
v -0.0248455 -0.0982014 -0.0421778
v -0.0234146 -0.071993 0.0421273
v -0.0301882 -0.0716521 0.0421022
v -0.0216355 -0.0660651 -0.0392756
v -0.0245802 -0.0421372 -0.0041595
v -0.0413348 -0.0487982 0.0122103
v -0.0401418 -0.0654838 -0.00867662
v -0.0407939 -0.0461067 -0.0044237
v -0.0345099 -0.0443436 -0.0144744
v -0.0336169 -0.0398736 7.89623e-05
v -0.0389726 -0.0665566 -0.037519
v -0.0362037 -0.0890094 -0.0439399
v -0.0392773 -0.0715266 -0.0383502
v -0.039572 -0.123221 0.0131878
v -0.0374341 -0.10008 0.00847045
v -0.0448826 -0.128516 0.0051583
v -0.0406819 -0.0751808 -0.0314623
v -0.0458059 -0.0735264 -0.0296268
v -0.0469856 -0.073799 -0.0243797
v -0.0363074 -0.119483 -0.015528
v -0.0432945 -0.10094 -0.0333107
v -0.0365777 -0.123353 0.0224072
v -0.0348824 -0.0771786 0.0266991
v -0.0470921 -0.0663877 -0.0253622
v -0.0419116 -0.112184 0.028048
v -0.0355034 -0.0669925 0.0389298
v -0.0419371 -0.0644182 0.032485
v -0.0412497 -0.12662 -0.00628394
v -0.0423405 -0.0653915 0.0216722
v -0.0329142 -0.124419 0.0138718
v -0.0331734 -0.0988533 -0.0420831
v -0.024575 -0.0450175 -0.0139862
v -0.0302113 -0.0441619 -0.0144177
v -0.03222 -0.0428656 -0.0132811
v -0.0326379 -0.0430353 0.0133703
v -0.0328767 -0.053113 0.030794
v -0.0330698 -0.0991481 0.0420397
v -0.0378682 -0.0765316 -0.0138229
v -0.0314025 -0.0446663 0.0195052
v -0.0336621 -0.0688241 0.0416121
v -0.0181781 -0.0576634 0.0347806
v -0.0270163 -0.0675828 0.0387204
v -0.0316921 -0.0685509 -0.0363975
v -0.0191035 -0.069871 -0.0368086
v -0.0335572 -0.07036 -0.042132
v -0.0348786 -0.0997038 -0.0391097
v -0.0362683 -0.124288 -0.0148183
v -0.0327799 -0.101445 0.0369563
v -0.0329356 -0.100759 0.0407835
v -0.0327611 -0.0713949 0.0378569
v -0.0329502 -0.0679255 0.0374035
v -0.0427855 -0.0583788 -0.00486046
v -0.0434873 -0.0594396 0.0184157
v -0.0383769 -0.0514151 -0.00852925
v -0.0377078 -0.0510193 0.00555197
v -0.0418851 -0.0768425 -0.0196512
v -0.0435099 -0.0736578 0.0223788
v -0.0354169 -0.122938 -0.0213089
v -0.0325758 -0.123932 -0.020224
v -0.0275193 -0.0472008 0.0182215
v -0.0415552 -0.102865 -0.00137143
v -0.0399648 -0.0968435 -0.0107235
v -0.0393936 -0.0944583 0.0119346
v -0.0398571 -0.0750351 0.0107174
v -0.0375941 -0.0797289 0.013588
v -0.0387803 -0.0714276 -0.00230754
v -0.0375315 -0.0735672 -0.00802803
v -0.024696 -0.0982724 0.0429416
v -0.0244433 -0.0465194 0.0201169
v -0.0258168 -0.12422 -0.0186935
v -0.0450871 -0.121818 -0.00335303
v -0.0393557 -0.12763 0.00646411
v -0.0424801 -0.0571237 0.0204649
v -0.0415246 -0.0771183 0.017297
v -0.0414291 -0.0514513 0.0048743
v -0.0409897 -0.0777675 0.0331263
v -0.0386049 -0.0805525 -0.0425332
v -0.0331321 -0.108802 -0.0386182
v -0.0334008 -0.103946 -0.0396752
v -0.04114 -0.101824 0.00567407
v -0.0388053 -0.0742219 -0.0253781
v -0.0412014 -0.0670081 -0.0332428
v -0.0464404 -0.0661881 -0.0310256
v -0.0418427 -0.067689 -0.034044
v -0.042399 -0.0495117 -0.0012226
v -0.0487441 -0.0776559 -0.025296
v -0.0364678 -0.0779055 -0.0261004
v -0.0361577 -0.121084 0.0144913
v -0.0328807 -0.122557 0.0171319
v -0.0336963 -0.0723661 -0.0417629
v -0.0315146 -0.0654541 0.0395926
v -0.0323719 -0.12503 0.0204416
v -0.0357913 -0.118468 -0.0285597
v -0.034144 -0.105902 -0.0386668
v -0.0390595 -0.0471766 -0.00925362
v -0.0341896 -0.0467531 0.0207941
v -0.0386353 -0.0834182 0.0175153
v -0.0328689 -0.130709 -0.00646531
v -0.0318618 -0.048777 0.0141944
v -0.0376334 -0.0773486 0.0225315
v -0.0421645 -0.0619643 0.0256335
v -0.0450845 -0.0642228 0.0285392
v -0.0425479 -0.0618362 -0.0279939
v -0.0421271 -0.0753755 0.0319019
v -0.0401161 -0.0738637 0.0215996
v -0.030503 -0.0485197 -0.0154214
v -0.038782 -0.045364 0.0046626
v -0.0315235 -0.102125 -0.0366839
v -0.0325636 -0.100389 0.0359296
v -0.0323162 -0.122473 -0.0135718
v -0.0317227 -0.0717871 0.0377616
v -0.044877 -0.108745 -0.00870429
v -0.0375578 -0.0995287 0.00236717
v -0.03745 -0.0975046 0.00720344
v -0.024441 -0.124491 0.0200526
v -0.0302444 -0.04607 0.019015
v -0.0264816 -0.126479 -0.0143222
v -0.0419549 -0.122064 -0.00950842
v -0.0353413 -0.123346 0.0208024
v -0.0416845 -0.111501 -0.0272228
v -0.0408792 -0.0491133 -0.0161284
v -0.0424041 -0.0792048 -0.0336247
v -0.0386792 -0.0955869 -0.0408166
v -0.0249401 -0.107538 -0.0386086
v -0.027883 -0.0662998 -0.0390129
v -0.0330007 -0.0630924 -0.0392147
v -0.0340482 -0.0873359 0.043749
v -0.0357776 -0.11819 0.028654
v -0.0345167 -0.129508 -0.000989848
v -0.0374527 -0.0717302 0.00907722
v -0.0336566 -0.105136 0.0409592
v -0.0325526 -0.0706244 0.0359401
v -0.0325206 -0.0493302 -0.0175573
v -0.0189047 -0.0459027 0.014234
v -0.0327722 -0.0485352 0.0170565
v -0.0329408 -0.122099 -0.0157983
v -0.042145 -0.0636552 -0.0202228
v -0.0432092 -0.050047 0.00226104
v -0.0460947 -0.0742519 0.0253914
v -0.0414275 -0.119445 -0.00607494
v -0.0309354 -0.100638 0.0365419
v -0.0369407 -0.119599 -0.0041613
v -0.0462986 -0.119137 0.00260459
v -0.0456071 -0.119208 -0.00365399
v -0.0463783 -0.0747457 -0.0301688
v -0.0408685 -0.119195 -0.00875644
v -0.032285 -0.121424 0.0169379
v -0.018791 -0.112292 -0.036828
v -0.0196109 -0.0850063 -0.0455961
v -0.0236212 -0.122799 0.0163647
v -0.0328791 -0.0461695 0.0140248
v -0.0388783 -0.119585 -0.000212494
v -0.0449409 -0.120358 0.00179923
v -0.0377611 -0.0746664 0.0272937
v -0.0371662 -0.0760477 -0.0288262
v -0.0376361 -0.0763627 0.0295773
v -0.0385949 -0.10327 0.0101192
v -0.0390026 -0.102847 0.0117066
v -0.0385952 -0.117408 -0.00774979
v -0.0414187 -0.105439 0.00579543
v -0.0469856 -0.106028 -0.000462222
v -0.0451879 -0.104476 0.00116371
v -0.0471436 -0.105346 -0.000562404
v -0.0425842 -0.108237 -0.00724992
v -0.0458302 -0.107089 0.00421471
v -0.035532 -0.119513 0.00245066
v -0.00678401 -0.0688504 -0.0324055
v -0.017946 -0.0901482 -0.0250751
v -0.0108981 -0.066102 -0.0302208
v 0.00098051 -0.0677614 -0.031354
v -0.0221392 -0.0980672 -0.00616007
v -0.0179503 -0.0893026 0.03513
v -0.0179484 -0.0539259 -0.0167275
v -0.0179441 -0.0417084 0.00268651
v -0.00603041 -0.0550121 -0.0189059
v -0.00631498 -0.0567292 -0.0226383
v -0.00479549 -0.0548997 -0.0196802
v -0.00896714 -0.0517425 -0.0148854
v -0.0209498 -0.0503591 0.00806389
v -0.0189387 -0.0978681 -0.0318379
v -0.00672952 -0.0493482 -0.000818471
v 0.000608518 -0.0492323 2.88162e-05
v -0.018309 -0.0983761 0.0428293
v -0.0179573 -0.0857776 0.0361982
v -0.0211878 -0.0953796 0.0106276
v -0.0179503 -0.0502444 -0.0026552
v -0.0180819 -0.0858217 -0.0170031
v -0.0179513 -0.0669072 0.0303047
v -0.0108749 -0.0537699 0.0167353
v -0.0179478 -0.0855654 0.022951
v -0.0109162 -0.0546089 -0.0175553
v -0.0109718 -0.0563778 -0.0138409
v -0.0189484 -0.0494482 0.00312141
v -0.0180615 -0.0838508 0.0165731
v -0.0109066 -0.0512965 0.0112951
v -0.0109499 -0.0573163 0.00273819
v -0.0109673 -0.0574432 0.00580179
v -0.0109312 -0.0575963 0.0226053
v -0.01095 -0.0572539 0.0153476
v -0.0109499 -0.0567525 -0.0103563
v -0.01095 -0.0626004 -0.019555
v -0.0179498 -0.0867627 -0.0259275
v -0.0107674 -0.0596127 -0.0253576
v -0.010975 -0.057218 -0.0222982
v -0.0109493 -0.0617756 0.00601114
v -0.01095 -0.0609087 0.00926407
v -0.01095 -0.0626305 0.0239238
v -0.0179505 -0.0510799 -0.00990314
v -0.0109441 -0.0567003 0.0121201
v -0.0109496 -0.0657518 0.012171
v -0.01095 -0.0627609 0.0157124
v -0.010948 -0.0669594 -0.00112816
v -0.0109528 -0.063257 -0.00920442
v -0.0109495 -0.0637308 -0.0139084
v -0.01095 -0.0651814 -0.0166647
v -0.0109495 -0.0706106 -0.0198858
v -0.0109558 -0.0707567 0.00484019
v -0.0190986 -0.0896715 -0.0437604
v -0.0179495 -0.0878416 -0.0435861
v -0.01095 -0.0662743 -0.0237156
v -0.0109476 -0.0664295 0.0228579
v -0.0179501 -0.0954558 -0.0343015
v -0.0109606 -0.0693416 -0.00890726
v -0.0109215 -0.0728738 0.00306129
v -0.0109489 -0.0690781 0.0187764
v -0.0109492 -0.0663957 0.0186968
v -0.0192912 -0.0739967 -0.00970628
v -0.01795 -0.089363 -0.0358305
v -0.010951 -0.0735063 -0.012503
v -0.0109532 -0.0721644 -0.0112474
v -0.0109486 -0.0720982 0.0153679
v -0.0109501 -0.071104 -0.016784
v -0.0109515 -0.0765681 -0.0171529
v -0.0109496 -0.0746908 -0.0219503
v -0.0112787 -0.076532 0.0085949
v -0.010947 -0.0757516 -0.0274548
v -0.0109823 -0.086155 -0.0029304
v -0.0120201 -0.0836819 -0.000747764
v -0.01095 -0.0738702 -0.0257087
v -0.01095 -0.0781286 -0.0261853
v -0.0109499 -0.0771239 0.0254375
v -0.0109485 -0.0780523 0.019485
v -0.01095 -0.0760722 0.0255171
v -0.0109639 -0.0778251 -0.0349914
v 0.0245148 -0.112527 0.0157465
v -0.01095 -0.0791413 0.02799
v 0.0245004 -0.115628 0.00921127
v 0.0191988 -0.116332 0.00506581
v -0.01095 -0.0791005 -0.0212883
v 0.0245211 -0.117317 0.000572446
v -0.0109493 -0.080092 -0.0195443
v 0.0192305 -0.116461 -0.00585196
v 0.0172784 -0.115752 -0.0102628
v -0.0179497 -0.0830177 0.0240927
v -0.0109494 -0.0833694 0.0296515
v -0.0109489 -0.0806849 0.0243709
v 0.017541 -0.113554 -0.013489
v -0.0109379 -0.0829803 0.0360675
v -0.01795 -0.0866188 0.0290677
v -0.0225518 -0.0711489 0.0347204
v -0.010953 -0.0818618 -0.0357975
v 0.0175827 -0.107274 -0.022116
v -0.01095 -0.0837438 -0.0297572
v 0.0244813 -0.102984 -0.025003
v 0.0192077 -0.0975446 -0.0291905
v -0.01795 -0.0835045 0.0289331
v 0.0160242 -0.0916113 -0.0310994
v 0.017397 -0.0855511 -0.0315525
v -0.0181173 -0.102316 -0.00281185
v -0.0237195 -0.0784983 0.011909
v -0.0193947 -0.0461492 -0.0211125
v 0.0221848 -0.0763042 -0.0296631
v -0.0109505 -0.0824418 0.0228366
v -0.0179501 -0.0816699 -0.0354578
v -0.010964 -0.0884747 0.0316499
v 0.0173733 -0.0663655 -0.0254186
v 0.017294 -0.0615051 -0.0210551
v -0.0190298 -0.0576777 -0.0337686
v -0.0179482 -0.0845257 -0.0357522
v 0.0215666 -0.059431 -0.0170876
v 0.0244807 -0.0578313 -0.0128661
v 0.0177208 -0.0555989 -0.00791642
v -0.0109125 -0.0879773 0.0141198
v 0.0245474 -0.0544297 -0.00495347
v 0.0172997 -0.0539564 0.00482091
v -0.0181558 -0.0987425 -0.0103524
v 0.0244816 -0.0578582 0.012919
v -0.0109498 -0.0871057 0.0236516
v 0.0245024 -0.0623034 0.0213958
v -0.0109492 -0.0896857 -0.0249943
v 0.0244825 -0.0726365 0.0276652
v -0.0189722 -0.0713135 0.0327234
v -0.01095 -0.0915462 0.0275571
v -0.0109509 -0.10003 0.0129442
v 0.0172724 -0.0792512 0.0312961
v -0.0109542 -0.0923893 -0.0112927
v 0.0244818 -0.0828676 0.0303982
v -0.0179506 -0.0803481 0.0298408
v 0.0244891 -0.0935147 0.0294983
v -0.0109579 -0.0920924 -0.0352005
v 0.0245374 -0.0977758 0.0290542
v 0.0192138 -0.104727 0.0250232
v -0.0190527 -0.0413473 6.82024e-05
v 0.0172942 -0.109494 0.0210563
v -0.0109751 -0.0970578 0.033806
v 0.01757 -0.111143 0.0175668
v 0.0173428 -0.114434 0.0130416
v 0.0173225 -0.117369 0.000706542
v 0.0245102 -0.115571 -0.0112662
v -0.0213874 -0.0998111 0.000187543
v 0.0171984 -0.11004 -0.0207375
v -0.0183791 -0.0745553 0.0440522
v 0.0173584 -0.102875 -0.0266664
v 0.024522 -0.0991001 -0.029174
v 0.024539 -0.0910662 -0.0307964
v 0.0171161 -0.0800749 -0.0316259
v 0.0244758 -0.0809969 -0.031241
v 0.0175024 -0.0724639 -0.028661
v 0.0245006 -0.0713084 -0.0278077
v -0.0195004 -0.0802543 0.0441877
v 0.0245352 -0.0665584 -0.0251967
v 0.0263902 -0.0617181 -0.0212357
v 0.0173366 -0.0565679 -0.0130405
v -0.0179452 -0.0805241 0.0235636
v 0.0244871 -0.0552774 -0.0108221
v 0.0175074 -0.0541681 -0.00304233
v 0.0229052 -0.0542799 0.00321744
v 0.0244984 -0.0533456 3.566e-05
v 0.021133 -0.0561559 0.00788201
v 0.0245222 -0.0562989 0.0134848
v 0.0173847 -0.0572274 0.0144535
v 0.0244806 -0.0605232 0.0175286
v 0.0172352 -0.0613946 0.0210788
v 0.0245198 -0.0672806 0.0259352
v 0.0173642 -0.0651165 0.0243474
v 0.0172997 -0.0719262 0.0291242
v 0.0245205 -0.0770246 0.0307214
v -0.0109671 -0.0503727 -0.00763357
v 0.02278 -0.0896391 0.0310281
v 0.0245168 -0.0855366 0.032082
v 0.0174367 -0.0887731 0.0313574
v 0.0173632 -0.0998938 0.0284032
v 0.0245236 -0.103954 0.0263571
v 0.0245336 -0.108635 0.0214308
v -0.0192794 -0.0953584 -0.0111434
v -0.0179512 -0.0781693 0.0296525
v -0.0191299 -0.0722412 -0.0420478
v -0.0184912 -0.0981738 0.0100894
v -0.0179156 -0.0800811 -0.0190964
v -0.017737 -0.0963542 -0.0162817
v -0.0179506 -0.0784837 -0.0347936
v 0.0109504 -0.0668777 -0.0326337
v -0.0181836 -0.0942021 0.0145143
v -0.0188595 -0.0479432 -0.0150426
v -0.0179361 -0.0792609 0.0165179
v 0.0148614 -0.11146 -0.0186425
v 0.0113238 -0.0956492 -0.0310832
v 0.0120563 -0.0955354 0.0305979
v 0.0112585 -0.0754545 -0.031682
v -0.018982 -0.0992003 0.0415396
v 0.0111784 -0.0650187 0.0259258
v 0.011959 -0.0598613 -0.0196388
v 0.0111315 -0.0524817 -0.00423911
v -0.0185077 -0.0906551 -0.0142969
v 0.0113756 -0.118227 0.00114525
v 0.0113309 -0.112302 0.0192759
v 0.0111354 -0.117411 -0.0107279
v -0.0189615 -0.0994903 -0.0395879
v 0.0106826 -0.118944 -0.0189162
v 0.0110591 -0.102158 0.0285214
v 0.0113996 -0.0849728 0.0327556
v 0.0106026 -0.0562116 -0.021062
v 0.0114375 -0.0564979 0.0147046
v 0.0108687 -0.124724 -1.79582e-05
v -0.0179705 -0.0879135 0.0173771
v 0.0108949 -0.0659409 0.0335595
v 0.0109763 -0.0999982 0.0328735
v 0.0109322 -0.104789 0.0336975
v -0.0208169 -0.0810423 0.0141942
v 0.0109693 -0.119086 0.0194986
v 0.0109799 -0.114568 0.0211879
v 0.0109062 -0.104853 -0.0334869
v -0.0179499 -0.0752238 -0.0283266
v -0.0190127 -0.0471583 0.00767623
v 0.011016 -0.0853799 0.0388711
v 0.0109836 -0.0893547 -0.0357503
v 0.0109699 -0.0856146 -0.0388528
v 0.0109602 -0.0530486 0.0193347
v 0.0109692 -0.0520743 -0.0166774
v 0.0109645 -0.05122 0.0194871
v 0.0109318 -0.0466564 1.87736e-05
v -0.0212477 -0.0850164 -0.0143168
v -0.0189675 -0.126053 0.0145538
v -0.0179517 -0.0757221 0.0236199
v -0.0184341 -0.074425 0.0111795
v -0.0179504 -0.070329 0.032077
v -0.0181837 -0.077685 -0.0143801
v -0.017953 -0.0678398 -0.0311457
v -0.0193719 -0.128853 -0.0124732
v -0.0180309 -0.0762452 0.0147502
v -0.0179474 -0.0761038 -0.0209415
v -0.0193287 -0.10868 0.038841
v -0.0178094 -0.0689556 -0.0143877
v -0.020048 -0.117223 0.0129364
v -0.0209782 -0.0709642 0.000856314
v -0.01795 -0.0744832 -0.0252539
v -0.022704 -0.104796 -0.0391174
v -0.0209118 -0.100695 -0.0365801
v -0.0191375 -0.122269 -0.015604
v -0.0179498 -0.0692567 -0.0179659
v -0.0179525 -0.069458 -0.0409573
v -0.0191443 -0.124041 0.017894
v -0.0192531 -0.12453 -0.0198379
v -0.0179087 -0.0674397 -0.00142303
v -0.0196919 -0.11605 -0.0317893
v -0.0189409 -0.116104 -0.0310456
v -0.0194774 -0.131306 0.00378186
v -0.0193149 -0.126067 -0.0196476
v -0.0179493 -0.0685702 0.0217966
v -0.0197445 -0.0638757 0.0383282
v -0.01795 -0.0679845 -0.025584
v -0.0179502 -0.0603998 -0.0105216
v -0.00728095 -0.114701 -0.0222676
v -0.0109646 -0.0546016 -0.0077763
v -0.0179474 -0.0719569 -0.0185293
v -0.00711844 -0.102114 0.0324433
v -0.00649567 -0.0953698 -0.035108
v -0.0193129 -0.0623664 -0.0389647
v -0.0100503 -0.107947 0.0287595
v -0.00698706 -0.0906764 0.0362738
v -0.00874986 -0.118958 0.0149249
v -0.0196141 -0.0397341 0.00838336
v -0.00908609 -0.0747058 -0.0347542
v -0.0185441 -0.0463999 -0.0226272
v -0.0179423 -0.065464 -0.0127535
v -0.0179481 -0.0679254 0.0168772
v -0.0179323 -0.0920778 0.0254647
v -0.01777 -0.0691283 0.0109549
v -0.0108814 -0.104076 0.030859
v -0.010953 -0.103447 0.00673389
v -0.0109215 -0.12115 -0.00071617
v -0.010946 -0.114945 0.00539181
v -0.0179507 -0.0644099 -0.0279735
v -0.0109217 -0.102708 -0.0312286
v -0.0109352 -0.0913041 -0.00270478
v -0.0179503 -0.103613 -0.0304116
v -0.01795 -0.066319 0.0197429
v -0.0179336 -0.0600363 -0.012201
v -0.0178725 -0.0667992 -0.00971671
v -0.0179429 -0.0713951 -0.0216896
v -0.0232979 -0.124927 0.0143354
v -0.01795 -0.0652134 -0.0295088
v -0.0192705 -0.0745423 0.0349391
v -0.0179441 -0.122066 -0.0242345
v -0.0179491 -0.120797 -0.000420752
v -0.0181137 -0.0692843 0.00506962
v -0.0107455 -0.118252 -0.0153472
v 0.000280061 -0.117985 -0.0165766
v -0.0224521 -0.118628 0.011225
v -0.0109496 -0.0872361 -0.0359734
v -0.0179486 -0.0629586 0.0152859
v -0.0179494 -0.0683723 -0.015317
v -0.0108557 -0.0973539 -0.03413
v -0.01795 -0.0641059 0.00562887
v -0.0224891 -0.0976664 -0.0328451
v -0.0179354 -0.12985 0.00212118
v -0.01795 -0.115431 0.00459851
v -0.01795 -0.064525 0.0208242
v -0.0179503 -0.119548 -0.0104289
v -0.0179485 -0.0620767 0.00388628
v -0.01795 -0.121256 0.0045799
v -0.0179501 -0.062915 0.0278423
v -0.01795 -0.118032 -0.00748776
v -0.0182711 -0.121675 0.026304
v -0.0179585 -0.117463 0.0154544
v -0.0225732 -0.0637333 -0.0275014
v -0.0209606 -0.0602662 -0.0301097
v -0.0189852 -0.0647559 -0.0298016
v -0.0190058 -0.0608369 -0.0263747
v -0.0108348 -0.0493342 -0.00275917
v -0.0109123 -0.120318 0.00904204
v -0.01795 -0.116414 -0.00237681
v -0.01795 -0.116541 0.000834373
v -0.01795 -0.115355 -0.00393291
v -0.0225131 -0.0481783 0.00342857
v -0.0179497 -0.109757 0.0099815
v -0.0179461 -0.116645 -0.0156426
v -0.01795 -0.114708 0.0104025
v -0.0109517 -0.120781 -0.00629709
v -0.01795 -0.113518 0.0133875
v -0.01795 -0.111753 -7.636e-05
v -0.01795 -0.111644 0.00260798
v -0.01795 -0.114299 -0.00695153
v -0.01795 -0.111688 0.0165779
v -0.01795 -0.0594577 0.0120721
v -0.0109493 -0.0972271 -0.022568
v -0.0179505 -0.0604683 -0.0192009
v -0.0179502 -0.110624 -0.00736146
v -0.0179482 -0.108188 0.00741081
v -0.01095 -0.100991 0.0281251
v -0.017949 -0.107566 0.00829766
v -0.0109506 -0.0990758 -0.017795
v -0.0179503 -0.0590353 -0.0237845
v -0.0177335 -0.105736 0.00975494
v -0.0109493 -0.108101 0.0170809
v -0.0179516 -0.110327 -0.0248653
v -0.01795 -0.0611019 0.022731
v -0.0179497 -0.10972 -4.96863e-05
v -0.0179493 -0.109194 -0.00145184
v -0.01795 -0.107553 -0.00182336
v -0.0179388 -0.109448 0.00248679
v -0.01795 -0.10741 -0.00334909
v -0.01095 -0.101174 -0.0239431
v -0.017951 -0.10541 -0.00409554
v -0.0109497 -0.102316 0.0271312
v -0.0109499 -0.102915 -0.0167892
v -0.0179498 -0.109201 0.00498716
v -0.0109501 -0.105887 0.00875946
v -0.01795 -0.0590929 -0.0162479
v -0.0109548 -0.102256 0.00485074
v -0.0179508 -0.107458 -0.0141256
v -0.017949 -0.0615349 0.0128089
v -0.0191126 -0.0463698 0.0207205
v -0.0180898 -0.101879 0.00337322
v -0.010944 -0.104471 -0.0247729
v -0.0179481 -0.105817 -0.0173468
v -0.01095 -0.104472 -0.00455439
v -0.0109564 -0.10211 -0.00245346
v -0.0179504 -0.106533 -0.0289592
v -0.0109487 -0.107665 -0.0147494
v -0.0179392 -0.059831 -0.000772177
v -0.00931266 -0.106716 -0.0300746
v -0.0109101 -0.104663 -0.0303293
v -0.01095 -0.106342 -0.0190145
v -0.0179395 -0.106364 0.0120124
v -0.0108194 -0.110315 -0.0259213
v -0.0109488 -0.107869 -0.0274812
v -0.01795 -0.103769 -0.0126648
v -0.01095 -0.110788 0.0141058
v -0.01795 -0.104085 -0.0188501
v -0.0179498 -0.105263 0.0160407
v -0.01095 -0.111009 -0.00665798
v -0.0109498 -0.110993 0.0114916
v -0.01095 -0.113316 0.00851277
v -0.01095 -0.109345 0.0157202
v -0.01095 -0.111195 0.00538351
v -0.0109496 -0.10994 -0.00177795
v -0.0179412 -0.105238 0.0134552
v -0.01795 -0.0590291 0.00464437
v -0.0109513 -0.116031 0.0121311
v -0.0109944 -0.114597 -0.0122536
v -0.0178317 -0.0663067 0.00109654
v -0.0179502 -0.0581633 -0.0217053
v -0.0109639 -0.118485 0.0139024
v -0.0190202 -0.06662 0.0388794
v -0.01795 -0.057557 0.00210487
v -0.0179479 -0.102166 -0.0169119
v -0.0182517 -0.111729 0.0359426
v -0.01795 -0.0996379 -0.0411384
v -0.0179506 -0.0572152 0.0212805
v -0.0183059 -0.052245 0.0292958
v -0.0179521 -0.051137 -0.0274489
v -0.0179495 -0.0465911 0.0197801
v -0.019727 -0.0436527 -0.0131784
v -0.0179504 -0.10686 0.0287394
v -0.0179441 -0.101623 0.0137987
v -0.0179476 -0.0540502 0.0164319
v -0.01795 -0.0592328 0.00831673
v -0.01095 -0.0619324 0.0118162
v -0.010825 -0.0580858 0.0232064
v -0.01795 -0.057146 -0.0173095
v -0.0109039 -0.121547 0.00348824
v -0.0179528 -0.101008 0.0309117
v -0.0109127 -0.121347 0.0014306
v -0.01095 -0.115472 -0.00428496
v -0.01095 -0.115674 -0.00938808
v -0.01095 -0.117686 7.67562e-05
v -0.0109499 -0.116968 -0.00291164
v -0.01095 -0.116959 0.00899081
v -0.0109493 -0.109918 0.00161245
v -0.0109537 -0.105957 0.00103949
v -0.0109492 -0.10972 -0.00349959
v -0.0109494 -0.109618 0.00415817
v -0.0179502 -0.100033 -0.0326895
v -0.0109503 -0.103508 0.0127738
v -0.0109554 -0.102552 0.00306544
v -0.0109496 -0.103279 -0.0132754
v -0.0179487 -0.101784 -0.02126
v -0.0109495 -0.103263 -0.0233647
v -0.0109561 -0.100319 -0.00920794
v -0.0109499 -0.0987794 -0.0284228
v -0.01095 -0.0961049 -0.0276447
v -0.01095 -0.0942451 0.0268724
v -0.01095 -0.0923015 -0.0291532
v -0.0109493 -0.0945991 -0.0276462
v -0.0109554 -0.0680876 0.030914
v -0.0107599 -0.0950649 0.0348272
v -0.0109568 -0.0911843 0.0196703
v -0.01095 -0.09004 0.0291669
v -0.0109498 -0.090909 -0.0289935
v -0.0109273 -0.0911246 0.0354672
v -0.0109521 -0.0842556 -0.0335003
v -0.0179503 -0.0998389 0.0329176
v -0.0109519 -0.0895802 -0.0199687
v -0.0109494 -0.0871933 -0.0184333
v -0.0109087 -0.0861295 0.0356702
v -0.0109511 -0.0844309 0.0218664
v -0.0106802 -0.0842798 -0.0359884
v 0.0108466 -0.0656529 -0.034221
v -0.010955 -0.0791308 0.0248869
v -0.0109813 -0.0848337 0.0103972
v -0.0109347 -0.0734137 0.0113831
v -0.0109497 -0.0653567 -0.0159573
v -0.0109665 -0.0706059 0.0326505
v -0.01095 -0.0686787 0.0274538
v -0.0109506 -0.0644756 -0.0283051
v -0.0109551 -0.0681831 0.00054691
v -0.0144987 -0.0636967 -0.00285942
v -0.0109528 -0.0693869 0.0106776
v -0.01095 -0.0667221 -0.0260589
v -0.010949 -0.0616089 0.00946594
v -0.0109503 -0.0638651 -0.0289141
v -0.0109562 -0.0638721 0.0216173
v -0.0109489 -0.0630353 -0.0117053
v -0.0109935 -0.0603916 0.0177496
v -0.01095 -0.0623106 -0.0215231
v -0.0107744 -0.0550628 -0.0190935
v -0.0109476 -0.0621523 0.0275647
v -0.0109498 -0.0590701 -0.0166992
v -0.0109711 -0.0570852 -0.000281983
v -0.0109042 -0.0548591 0.0184801
v -0.0107468 -0.051111 -0.011147
v -0.01795 -0.0563326 0.0159005
v -0.01795 -0.0547799 -0.0130641
v -0.01795 -0.0560477 0.0057737
v -0.0179529 -0.0520344 -0.00742295
v -0.0179495 -0.049748 0.000820414
v -0.0179492 -0.0502361 0.00808707
v -0.01795 -0.0963473 0.0315711
v -0.0105184 -0.050163 0.00867158
v -0.01795 -0.092607 0.0281871
v -0.01795 -0.0894551 0.0260655
v -0.0075751 -0.116054 -0.0196676
v -0.00712869 -0.12186 0.00173625
v -0.0179475 -0.0883055 0.0226463
v -0.0107434 -0.101574 0.0325708
v -0.00503671 -0.105866 0.0304592
v -0.00747039 -0.0866345 0.0360153
v -0.0069694 -0.0566981 0.0226609
v -0.00718033 -0.0522637 0.0157837
v -0.000389734 -0.101703 0.0329699
v -0.0179469 -0.100713 -0.0237557
v -0.0034417 -0.0884787 0.036737
v -0.00709027 -0.121837 -0.0018939
v -0.000349178 -0.0524117 0.0160921
v 0.0245168 -0.0854634 -0.032082
v -0.00673308 -0.0656474 0.030602
v -0.00543429 -0.0549853 0.0203625
v -0.01795 -0.0910953 0.0304963
v 0.0245247 -0.108851 -0.0212854
v -0.00346907 -0.121805 -0.00172251
v -0.0037705 -0.054888 0.0192412
v -0.00606148 -0.102252 -0.0321436
v -0.00377348 -0.116073 -0.0197302
v -0.0179501 -0.0965817 0.0253083
v 0.00062223 -0.1159 0.0206157
v -0.018215 -0.0899164 0.0157098
v 0.000809462 -0.0592088 0.0257395
v -0.00344979 -0.0549546 0.0203453
v -0.0179509 -0.093068 0.0345229
v -0.01795 -0.0564865 -0.0122565
v 0.0047383 -0.0710075 0.0337435
v 0.00127658 -0.0689936 0.0324153
v -0.01795 -0.0539657 0.0108422
v -0.00183359 -0.0970168 -0.0345133
v -0.00325924 -0.121202 -0.00780043
v 0.000295376 -0.0515937 0.013915
v -0.000927783 -0.102335 -0.0323339
v -0.000366116 -0.121982 -0.00202616
v -0.01795 -0.0978453 -0.0288729
v 0.000945571 -0.115665 -0.0207035
v 0.00090005 -0.106505 -0.0298979
v 0.00488529 -0.121603 0.00406504
v 0.00086866 -0.0876331 0.0364164
v -0.00944243 -0.122094 -0.00236041
v -0.00949263 -0.118371 0.0162604
v -0.00945433 -0.054988 0.0203321
v -0.0179513 -0.0519374 0.00689196
v -0.0095353 -0.115977 -0.0204818
v -0.00945134 -0.0878527 0.0365901
v -0.0179491 -0.0974693 -0.0253157
v -0.0106121 -0.066435 0.0303961
v -0.0141903 -0.068649 -0.00431542
v -0.0142979 -0.0666962 -0.00795816
v 0.00495675 -0.10022 -0.0332558
v 0.00405344 -0.0886058 -0.0361717
v 0.00450792 -0.0602707 -0.0252395
v 0.0049754 -0.0496313 -0.00359404
v 0.00410111 -0.0523422 -0.0153087
v 0.00489071 -0.0524225 0.0154306
v 0.00494384 -0.0495359 0.00367564
v 0.00490446 -0.0643459 0.0291818
v 0.00638747 -0.0824644 0.0360291
v 0.00507642 -0.0959703 0.0339342
v 0.00520565 -0.111032 0.024497
v 0.00502749 -0.120931 -0.00417309
v 0.00497822 -0.118555 -0.0149916
v 0.00504077 -0.114657 -0.0213681
v 0.00491747 -0.106695 -0.0291757
v -0.0164632 -0.0561016 -0.00664594
v -0.0175199 -0.0587277 -0.0013669
v -0.0150062 -0.0842921 0.0016398
v -0.0132492 -0.0878885 0.000648382
v -0.01795 -0.0908265 -0.0257284
v -0.01795 -0.0891102 -0.029795
v -0.0179476 -0.0949231 -0.0231284
v -0.01795 -0.093386 -0.0305463
v -0.01795 -0.091609 0.0326534
v -0.0179511 -0.0524672 0.0128681
v -0.00747262 -0.054875 0.0189847
v -0.01795 -0.0935398 -0.0249912
v 0.00398586 -0.118471 0.0152644
v 0.00228584 -0.107063 0.0295014
v 0.00495327 -0.0818382 -0.0359717
v 0.00498871 -0.0708059 -0.0329341
v 0.00437505 -0.0570574 0.022359
v 0.00503259 -0.119535 -0.0199684
v 0.00503551 -0.124914 -9.4758e-06
v 0.00507045 -0.119808 0.0194996
v 0.00505196 -0.10521 0.0341037
v 0.00504414 -0.0857545 0.0394618
v 0.00503473 -0.0521025 0.0204569
v 0.00502663 -0.0461626 -2.27921e-05
v 0.00505556 -0.0511911 -0.0194979
v 0.00504415 -0.065808 -0.0341134
v 0.00504222 -0.0852425 -0.0394614
v 0.00503962 -0.105215 -0.0341195
v -0.0129288 -0.0753375 0.00808103
v -0.0179505 -0.0925695 -0.0279782
v -0.0179445 -0.0890423 -0.0234767
v -0.0170454 -0.0589953 -0.00630884
v -0.0164125 -0.0627318 -0.00792538
v -0.014498 -0.0620415 -0.0067815
v -0.01795 -0.0915733 -0.030807
v 0.00503741 -0.0658156 0.0341159
v -0.0125194 -0.0910741 -0.00047081
v -0.0111616 -0.097422 0.0080571
v -0.0126399 -0.0850748 0.00256253
v -0.0125333 -0.089258 0.0112389
v 0.00098683 -0.0548151 0.0176605
v 0.00099842 -0.0677672 0.030657
v 0.00100079 -0.0855683 0.0354209
v 0.00099548 -0.103182 0.0306859
v 0.00098679 -0.116172 0.0176867
v 0.000935655 -0.121149 0.000201887
v 0.00099622 -0.116182 -0.0176793
v 0.00099185 -0.103332 -0.0306434
v 0.0010445 -0.084739 -0.0358952
v -0.00944524 -0.101754 -0.0328707
v -0.0394654 -0.0804465 -0.0291646
v -0.0431379 -0.0791958 -0.021463
v -0.0392382 -0.079284 -0.0291681
v -0.0441465 -0.0858879 -0.0277408
v -0.044518 -0.0800162 -0.0294544
v -0.0384519 -0.079097 -0.0251814
v -0.0455044 -0.0789691 -0.0270775
v -0.0440367 -0.0848989 -0.0221467
v -0.0411712 -0.0780945 -0.0226637
v -0.0390784 -0.0852649 -0.0241988
v -0.0439471 -0.0782394 -0.022873
v -0.0466392 -0.0788369 -0.0267148
v -0.0405415 -0.0805257 -0.0311965
v -0.0475911 -0.079631 -0.0249383
v -0.0461453 -0.0793801 -0.0307636
v -0.036851 -0.0797126 -0.0269169
v -0.0388027 -0.0788082 -0.0215522
v -0.0444199 -0.0785942 -0.0206818
v -0.0454113 -0.0701389 -0.0249679
v -0.0427241 -0.0698894 -0.023506
v -0.0421786 -0.0712907 -0.0314853
v -0.0382095 -0.0705908 -0.027703
v -0.040389 -0.0712828 0.0313648
v -0.0465593 -0.0706197 0.0270044
v -0.0394867 -0.0701496 0.024995
v -0.0422151 -0.0698923 0.0235172
v -0.0425673 -0.0792685 0.0292659
v -0.0386916 -0.078926 0.026391
v -0.0459953 -0.0785484 0.0244949
v -0.0431503 -0.0782043 0.0227048
v -0.0470166 -0.0803195 0.0264693
v -0.0455685 -0.0791328 0.0280319
v -0.0457375 -0.0803711 0.0285577
v -0.0383577 -0.0860529 0.0241791
v -0.039097 -0.0787012 0.0233759
v -0.0433991 -0.0791415 0.021409
v -0.0480738 -0.0777306 0.0230355
v -0.0405417 -0.0786956 0.020635
v -0.0395968 -0.0804945 0.0304114
v -0.037315 -0.0796558 0.0250711
v -0.0456245 -0.0854882 0.0253395
v -0.0407731 -0.0859217 0.0277566
v -0.0443631 -0.085013 0.0226199
v -0.0408215 -0.0849449 0.0222012
v 0.0277158 -0.105102 0.00872204
v 0.0276636 -0.106528 -0.00257181
v 0.0275835 -0.101612 -0.014267
v 0.0275908 -0.087478 -0.0214284
v 0.0275835 -0.0722748 -0.0169772
v 0.0279979 -0.066084 0.00777588
v 0.0276008 -0.0642226 -0.00319676
v 0.0275099 -0.0959824 0.0186394
v 0.0279466 -0.087185 0.0219064
v 0.0275 -0.0765699 0.0190067
v 0.027557 -0.0679029 0.0124423
v 0.0275033 -0.117395 -0.00768406
v 0.0274712 -0.112528 0.0184556
v 0.0275292 -0.101048 -0.0289938
v 0.0274579 -0.0900298 0.0324809
v 0.0274939 -0.0816554 -0.0319031
v 0.0275207 -0.0685294 -0.0273201
v 0.0275194 -0.0645813 0.02538
v 0.0275299 -0.0526261 0.00106505
v -0.0451546 -0.131011 -0.00463794
v -0.0435837 -0.130934 0.00543908
v -0.0355988 -0.131016 -0.00087183
v -0.0434264 -0.120976 -0.00395441
v -0.0385156 -0.121007 -0.00318975
v 0.00579382 -0.021664 -0.032412
v 0.0236461 -0.0111584 -0.0321231
v 0.0299662 -0.0357638 -0.0319998
v -0.00448463 -0.0242457 -0.0320641
v 0.00828646 -0.0461362 -0.032478
v 0.00426588 -0.0464182 -0.0325294
v 0.0352242 -0.0419158 -0.0322846
v 0.016396 -0.0434604 -0.0320149
v 0.00946278 -0.0535937 -0.0324836
v 0.0329151 -0.0330219 -0.0324935
v 0.0234395 -0.00922292 -0.0390956
v 0.0350315 -0.0392893 -0.034883
v -0.0063411 -0.0295411 -0.0333235
v -0.00600705 -0.0301817 -0.038286
v 0.0216951 0.0107698 -0.038765
v 0.0271766 -0.00735217 -0.0388791
v 0.0227643 0.000496483 -0.0390121
v 0.0224549 -0.00882647 -0.035014
v 0.0169195 0.0139714 -0.0336881
v 0.0364096 -0.0416659 -0.0379418
v 0.0113259 -0.0637031 -0.0372461
v 0.0355603 -0.0472761 -0.037257
v 0.0130214 -0.06147 -0.0375688
v 0.0141569 -0.0564708 -0.0373275
v 0.038532 -0.0589 -0.0371132
v 0.0207614 -0.0674797 -0.0361607
v 0.0205716 -0.0707288 -0.0370141
v 0.00810233 -0.0532437 -0.0355982
v -0.0195535 -0.00672681 -0.0349866
v -0.0129415 -0.0188038 -0.0349027
v 0.0177126 -0.00592966 -0.0326641
v 0.012558 -0.00580297 -0.0338569
v 0.0198736 -0.0130253 -0.0344078
v -0.00373667 -0.021183 -0.0323763
v -0.00722604 -0.0180761 -0.0340034
v -0.019259 -0.0062218 -0.0327328
v -0.0211653 0.00114507 -0.0337935
v -0.0138584 -0.00370865 -0.0344451
v -0.0142672 0.000991781 -0.034427
v -0.00411933 0.0144863 -0.0327643
v -0.00859248 0.0203918 -0.033712
v -0.0110499 0.0140026 -0.0328985
v 0.0125448 0.00828016 -0.0327505
v 0.0115537 0.0161982 -0.0338453
v 0.0164163 -0.00477259 -0.0349111
v -0.000330746 -0.0138 -0.0336103
v 0.00084843 -0.0172455 -0.0339383
v -0.000458606 -0.0212085 -0.0342944
v 0.0418326 -0.0503202 -0.0368863
v 0.0382793 -0.0636863 -0.0318498
v 0.0413836 -0.0589517 -0.0371209
v 0.0113849 -0.0640562 -0.0331061
v 0.020417 -0.0691585 -0.0312854
v 0.0323782 -0.0698877 -0.0361313
v -0.0135361 0.0164592 -0.0349415
v -0.00922791 0.020178 -0.040027
v -0.0185933 0.0108486 -0.0395895
v -0.0037059 0.0168405 -0.0348886
v -0.00929302 0.0127257 -0.0348837
v 0.00425002 0.0211006 -0.0395499
v 0.00644445 0.0201539 -0.0349058
v 0.0084275 0.0118514 -0.0349069
v 0.0127229 0.00811885 -0.0350147
v -0.00605987 0.013046 -0.0350058
v 0.00306209 0.0142225 -0.0300006
v -0.00884062 0.0102026 -0.03
v 0.012863 0.00551266 -0.0347984
v 0.0134818 0.00336441 -0.0299997
v -0.0146508 -0.000767886 -0.030026
v -0.00585866 -0.0135593 -0.0348044
v 0.0095152 -0.0106328 -0.0299818
v -0.00550924 -0.0126858 -0.0299422
v -0.00569938 -0.0242719 -0.0348997
v 0.024239 -0.0123214 -0.0347704
v 0.0392117 -0.0529869 -0.0349005
v 0.0347253 -0.0644915 -0.036434
v 0.0137728 -0.057029 -0.034687
v 0.0285297 -0.0673036 -0.0348879
v 0.021546 -0.0403656 -0.0327291
v 0.0349343 -0.0426962 -0.0351141
v 0.0114027 -0.0521062 -0.0348706
v 0.0348539 -0.0474481 -0.0348499
v -0.00128292 0.0243601 -0.0301805
v 0.0148567 0.0195211 -0.0308557
v -0.00915809 0.0233146 -0.0393788
v 0.0122844 0.0212633 -0.0395111
v -0.016651 0.0179334 -0.030189
v 0.0219164 0.0100532 -0.0305048
v -0.0230576 0.00834858 -0.0397657
v -0.0222117 0.0094041 -0.0304761
v -0.0224761 -0.00637512 -0.0392485
v -0.0239307 -0.00552797 -0.0303473
v 0.0424508 -0.0526926 -0.0330858
v 0.0354934 -0.0332861 -0.0300033
v 0.0376857 -0.0516264 -0.0300009
v 0.0296571 -0.065725 -0.0299987
v -0.0103253 -0.0286936 -0.0385619
v 0.00184185 -0.0474975 -0.0299997
v 0.0168604 0.0177687 -0.0300131
v -0.0228207 -0.00634598 -0.0299721
v 0.0162501 0.0151365 -0.0395297
v -0.00829377 -0.0230697 -0.0390991
v 0.0299686 -0.0358953 -0.0347613
v 0.0105507 -0.0094098 -0.0340742
v 0.0379905 -0.124405 -0.00180441
v 0.0379855 -0.0810591 -0.0386893
v 0.0379846 -0.102616 -0.0347085
v 0.0379741 -0.116866 -0.0225889
v 0.037932 -0.0566126 -0.0267846
v 0.0379876 -0.0544396 0.0225958
v 0.0379774 -0.0891878 0.0384445
v 0.0379843 -0.0680081 0.0347456
v 0.0379758 -0.107063 0.0320585
v 0.0425294 -0.0947764 -0.0374574
v 0.042506 -0.11063 -0.0290762
v 0.0425156 -0.0761766 -0.0374951
v 0.0424457 -0.124202 -0.00701991
v 0.0425077 -0.0595251 -0.0288111
v 0.0425108 -0.0490309 -0.0125502
v 0.0400107 -0.119824 0.0180032
v 0.0379866 -0.0469922 -0.00251675
v 0.0425481 -0.106691 0.0333807
v 0.0414972 -0.0475718 0.00924351
v 0.0425206 -0.0599318 0.0290353
v 0.0425183 -0.0790517 0.038139
f 7 8 64
f 9 10 11
f 18 10 9
f 10 12 11
f 19 14 17
f 15 16 13
f 21 16 15
f 16 18 13
f 12 17 14
f 20 19 17
f 12 20 17
f 21 22 16
f 22 18 16
f 23 20 12
f 20 24 19
f 25 22 21
f 23 29 20
f 26 27 22
f 27 30 22
f 32 29 31
f 35 37 34
f 37 36 34
f 36 38 33
f 44 51 45
f 42 43 41
f 47 97 94
f 50 112 97
f 47 50 97
f 112 49 46
f 49 48 46
f 50 49 112
f 44 27 26
f 54 52 53
f 54 57 52
f 29 43 42
f 12 56 55
f 14 56 12
f 77 58 59
f 59 60 3
f 62 1 61
f 63 1 62
f 69 4 63
f 5 4 73
f 6 5 96
f 64 6 96
f 65 62 61
f 2 66 61
f 2 67 66
f 70 63 62
f 2 68 67
f 3 68 2
f 69 63 70
f 3 71 72
f 60 71 3
f 59 58 74
f 75 96 5
f 7 76 77
f 64 96 78
f 7 80 79
f 83 84 82
f 19 83 81
f 19 84 83
f 115 14 85
f 19 40 84
f 86 102 87
f 87 88 104
f 93 91 90
f 93 99 91
f 60 99 93
f 114 95 92
f 94 95 114
f 94 96 95
f 110 99 60
f 112 99 110
f 97 96 94
f 99 45 100
f 43 98 41
f 99 46 45
f 43 94 98
f 101 46 99
f 112 46 101
f 87 102 54
f 54 102 89
f 104 103 86
f 104 106 103
f 105 86 103
f 106 105 103
f 105 90 86
f 105 107 90
f 108 106 104
f 88 108 104
f 106 107 105
f 88 92 108
f 107 93 90
f 60 93 107
f 95 108 92
f 95 109 108
f 113 60 107
f 95 96 109
f 76 110 113
f 110 60 113
f 112 110 76
f 96 97 111
f 111 97 76
f 97 112 76
f 10 61 1
f 12 10 1
f 63 12 1
f 10 2 61
f 18 2 10
f 18 3 2
f 63 4 23
f 18 22 3
f 22 59 3
f 29 23 4
f 5 29 4
f 30 59 22
f 31 29 5
f 6 31 5
f 30 77 59
f 30 7 77
f 64 31 6
f 34 7 30
f 33 31 64
f 34 36 7
f 36 33 64
f 8 36 64
f 64 80 7
f 66 106 65
f 106 62 65
f 67 106 66
f 106 70 62
f 107 106 67
f 68 107 67
f 106 69 70
f 72 107 68
f 108 69 106
f 109 73 108
f 72 71 107
f 71 74 107
f 74 113 107
f 111 75 109
f 75 73 109
f 78 75 111
f 79 111 76
f 80 78 111
f 79 80 111
f 40 114 84
f 40 41 98
f 24 20 40
f 20 41 40
f 29 28 43
f 28 29 43
f 29 32 43
f 32 94 43
f 32 47 94
f 32 31 47
f 31 33 47
f 81 82 85
f 85 19 81
f 14 19 85
f 84 115 82
f 84 87 115
f 91 117 89
f 114 87 84
f 115 56 14
f 115 87 56
f 87 55 56
f 24 40 19
f 118 15 119
f 118 21 15
f 117 21 118
f 120 13 119
f 13 116 119
f 39 21 117
f 91 39 117
f 45 39 100
f 112 101 99
f 39 22 25
f 51 22 39
f 46 48 27
f 120 119 15
f 119 116 121
f 116 117 121
f 13 120 15
f 57 116 13
f 89 116 57
f 80 97 78
f 64 78 97
f 80 64 97
f 7 79 76
f 58 110 113
f 110 77 113
f 58 77 110
f 60 74 71
f 59 74 60
f 3 107 68
f 107 72 68
f 3 72 107
f 105 67 2
f 67 105 2
f 103 65 61
f 66 103 61
f 66 65 103
f 65 104 62
f 65 62 104
f 70 88 63
f 70 63 88
f 73 69 108
f 69 73 108
f 109 5 73
f 75 109 73
f 75 5 109
f 78 96 75
f 73 4 69
f 36 37 49
f 36 50 38
f 33 38 50
f 48 49 35
f 37 35 49
f 53 52 9
f 11 12 53
f 13 9 52
f 57 13 52
f 20 29 42
f 39 25 21
f 98 94 114
f 121 117 119
f 99 100 91
f 13 18 9
f 27 34 30
f 51 39 45
f 22 51 26
f 53 55 54
f 58 113 74
f 81 83 82
f 86 87 104
f 86 89 102
f 89 86 90
f 88 87 92
f 90 91 89
f 114 92 87
f 87 54 55
f 54 89 57
f 109 96 111
f 63 23 12
f 36 8 7
f 73 69 108
f 77 76 113
f 40 98 114
f 82 115 85
f 89 117 116
f 117 118 119
f 39 91 100
f 45 27 44
f 46 27 45
f 48 34 27
f 36 49 50
f 33 50 47
f 48 35 34
f 53 9 11
f 20 42 41
f 12 55 53
f 44 26 51
f 128 125 123
f 173 124 128
f 124 125 128
f 126 173 128
f 127 124 173
f 133 128 129
f 133 126 128
f 122 132 131
f 133 129 131
f 130 181 139
f 130 135 181
f 157 134 133
f 137 138 135
f 125 127 130
f 143 139 181
f 141 151 122
f 153 154 142
f 157 155 184
f 156 157 184
f 170 157 156
f 138 158 135
f 158 138 170
f 143 181 144
f 144 160 159
f 181 160 144
f 159 160 147
f 148 159 147
f 162 146 147
f 148 146 162
f 189 150 177
f 189 132 150
f 149 161 150
f 131 132 189
f 161 163 162
f 165 162 163
f 164 163 161
f 165 145 162
f 140 166 164
f 165 152 142
f 152 166 140
f 150 161 147
f 161 162 147
f 145 159 148
f 162 145 148
f 145 144 159
f 132 122 149
f 122 151 149
f 151 164 149
f 151 140 164
f 167 139 143
f 142 167 143
f 145 142 143
f 168 141 122
f 154 167 142
f 134 157 169
f 157 170 169
f 137 135 171
f 137 172 170
f 174 126 133
f 173 126 174
f 171 127 173
f 172 171 174
f 169 172 174
f 170 172 169
f 172 137 171
f 175 177 176
f 187 177 175
f 176 180 175
f 178 177 187
f 176 179 180
f 179 182 180
f 179 181 182
f 184 155 178
f 170 156 185
f 181 158 182
f 135 158 181
f 133 134 174
f 163 187 175
f 180 163 175
f 163 164 187
f 165 163 180
f 164 183 187
f 188 165 180
f 166 183 164
f 188 152 165
f 184 183 166
f 188 186 152
f 158 185 166
f 185 184 166
f 186 166 152
f 186 158 166
f 185 156 184
f 171 136 127
f 171 135 136
f 177 160 176
f 160 181 179
f 134 169 174
f 136 135 127
f 131 129 122
f 127 135 130
f 179 176 160
f 178 189 177
f 131 189 178
f 155 131 178
f 155 133 131
f 157 133 155
f 182 186 188
f 158 186 182
f 182 188 180
f 187 183 178
f 123 130 167
f 123 167 154
f 124 127 125
f 168 122 141
f 122 154 141
f 126 128 190
f 126 190 128
f 149 164 161
f 151 153 140
f 141 153 151
f 153 152 140
f 154 153 141
f 154 122 128
f 128 123 154
f 125 130 123
f 128 122 129
f 130 139 167
f 138 137 170
f 153 142 152
f 143 144 145
f 146 148 147
f 149 150 132
f 177 150 147
f 147 160 177
f 165 142 145
f 171 173 174
f 158 170 185
f 183 184 178
f 195 196 198
f 200 195 198
f 201 195 200
f 197 195 202
f 196 197 199
f 205 200 198
f 201 200 205
f 199 197 196
f 202 201 205
f 207 206 216
f 208 197 210
f 198 196 206
f 207 198 206
f 205 198 207
f 196 208 204
f 196 197 208
f 197 202 210
f 206 203 209
f 202 205 220
f 210 202 220
f 205 207 220
f 207 216 220
f 212 213 211
f 216 215 211
f 215 217 214
f 217 203 214
f 203 218 214
f 213 216 211
f 220 216 213
f 219 213 218
f 221 213 219
f 209 203 215
f 213 221 220
f 216 209 215
f 203 219 218
f 204 210 221
f 203 204 219
f 210 220 221
f 215 203 217
f 222 193 191
f 222 192 193
f 224 192 222
f 224 193 192
f 193 225 223
f 224 225 193
f 227 235 226
f 225 229 228
f 240 234 236
f 240 236 230
f 233 234 232
f 232 237 231
f 238 230 237
f 232 238 237
f 238 239 230
f 239 240 230
f 234 212 232
f 212 238 232
f 212 234 240
f 237 230 231
f 223 226 191
f 226 222 191
f 194 226 223
f 226 235 222
f 223 228 194
f 222 235 224
f 230 226 194
f 241 230 194
f 228 232 241
f 235 227 226
f 230 235 226
f 242 232 228
f 236 225 235
f 229 242 228
f 236 243 225
f 234 242 229
f 225 234 229
f 243 234 225
f 241 232 230
f 233 232 242
f 230 236 235
f 234 233 242
f 236 234 243
f 211 214 238
f 214 239 238
f 212 211 238
f 214 218 239
f 218 240 239
f 218 212 240
f 195 197 196
f 195 201 202
f 206 204 203
f 206 209 216
f 208 210 204
f 204 206 196
f 218 213 212
f 215 214 211
f 204 221 219
f 223 191 193
f 225 228 223
f 235 225 224
f 231 230 232
f 228 241 194
f 248 247 249
f 254 251 248
f 247 250 249
f 247 252 250
f 252 247 251
f 248 249 253
f 253 255 248
f 255 254 248
f 257 251 256
f 257 252 251
f 250 253 249
f 274 260 262
f 258 252 259
f 262 255 258
f 255 253 258
f 260 255 262
f 253 250 258
f 254 255 260
f 250 252 258
f 261 254 260
f 259 256 261
f 256 254 261
f 252 257 259
f 257 256 259
f 258 263 262
f 265 259 264
f 258 259 265
f 259 261 264
f 261 260 274
f 271 267 266
f 273 268 267
f 269 271 266
f 272 269 266
f 268 272 266
f 270 271 269
f 272 270 269
f 273 267 271
f 268 274 272
f 273 275 268
f 276 274 268
f 271 265 273
f 275 276 268
f 273 276 275
f 265 276 273
f 262 271 270
f 272 262 270
f 262 263 271
f 258 265 271
f 263 258 271
f 274 262 272
f 261 274 276
f 264 276 265
f 264 261 276
f 244 246 245
f 277 245 246
f 279 278 246
f 244 279 246
f 282 280 244
f 280 279 244
f 286 280 282
f 284 282 283
f 280 285 281
f 287 292 289
f 288 290 285
f 285 291 287
f 291 292 287
f 290 291 285
f 290 288 292
f 283 245 277
f 278 283 277
f 278 281 283
f 279 281 278
f 280 281 279
f 245 283 244
f 283 282 244
f 281 293 283
f 293 284 283
f 281 285 293
f 293 287 284
f 287 282 284
f 287 294 282
f 280 295 285
f 294 289 282
f 289 286 282
f 286 295 280
f 289 295 286
f 295 288 285
f 289 294 287
f 289 288 295
f 266 292 291
f 290 266 291
f 268 266 290
f 266 267 292
f 267 290 292
f 267 268 290
f 251 247 248
f 251 254 256
f 278 277 246
f 287 293 285
f 292 288 289
f 358 304 296
f 315 363 355
f 488 418 437
f 493 527 326
f 491 464 354
f 338 332 318
f 378 397 356
f 841 334 382
f 325 388 389
f 344 404 311
f 385 351 311
f 419 312 442
f 353 313 300
f 314 318 397
f 428 314 371
f 417 416 316
f 329 316 328
f 415 521 302
f 478 320 413
f 401 493 511
f 474 1164 333
f 298 297 407
f 1186 307 381
f 304 437 526
f 442 443 528
f 381 307 417
f 312 419 341
f 449 448 410
f 383 309 308
f 344 308 309
f 451 323 360
f 453 345 454
f 310 324 841
f 348 301 395
f 349 350 461
f 462 404 309
f 309 404 344
f 384 385 446
f 308 344 311
f 383 308 311
f 351 383 311
f 385 311 419
f 446 385 419
f 527 419 442
f 371 314 397
f 318 315 397
f 397 315 465
f 356 397 465
f 491 465 396
f 315 355 465
f 398 328 400
f 401 511 366
f 435 467 403
f 488 462 362
f 462 380 404
f 488 362 418
f 302 521 373
f 302 373 306
f 306 373 357
f 358 296 468
f 469 468 296
f 359 330 550
f 550 470 359
f 451 317 323
f 470 360 405
f 470 405 320
f 462 406 362
f 407 535 408
f 305 407 471
f 305 471 318
f 317 410 323
f 323 410 338
f 448 411 298
f 448 298 305
f 410 448 305
f 410 305 332
f 338 410 332
f 314 338 318
f 311 1186 419
f 382 334 478
f 479 380 404
f 515 394 303
f 515 303 516
f 422 395 424
f 299 426 450
f 396 497 425
f 313 327 426
f 320 338 428
f 328 316 429
f 321 399 400
f 462 807 380
f 357 702 430
f 316 702 431
f 297 433 516
f 375 531 458
f 435 403 376
f 439 302 438
f 440 441 416
f 444 485 355
f 378 371 397
f 404 490 311
f 333 527 493
f 494 322 327
f 487 354 464
f 470 451 360
f 360 323 337
f 502 384 554
f 384 502 385
f 502 554 385
f 453 452 345
f 454 345 456
f 504 503 453
f 505 388 325
f 299 450 459
f 744 422 423
f 462 309 383
f 384 418 554
f 385 554 351
f 446 419 527
f 465 355 497
f 364 352 343
f 495 464 491
f 491 354 356
f 491 356 465
f 518 509 364
f 364 509 352
f 399 398 400
f 372 401 366
f 377 436 402
f 352 509 466
f 352 466 313
f 304 488 437
f 413 320 495
f 495 320 464
f 414 473 315
f 306 357 416
f 401 403 474
f 307 306 417
f 399 511 398
f 411 297 298
f 1186 381 419
f 335 346 347
f 449 460 367
f 483 514 484
f 424 395 369
f 299 432 481
f 299 481 426
f 458 370 392
f 392 370 393
f 449 483 448
f 513 335 297
f 297 335 480
f 297 516 472
f 363 516 336
f 497 485 369
f 371 378 354
f 487 320 371
f 488 304 358
f 435 401 372
f 488 807 462
f 380 807 412
f 373 573 702
f 373 702 357
f 430 702 316
f 400 429 822
f 500 449 410
f 353 427 531
f 393 313 501
f 522 313 432
f 374 363 523
f 498 342 513
f 524 489 301
f 744 496 368
f 496 336 368
f 376 403 401
f 304 526 437
f 438 521 439
f 440 357 430
f 441 440 416
f 527 442 528
f 355 485 444
f 396 465 445
f 465 497 445
f 379 311 490
f 412 307 379
f 380 412 379
f 404 380 379
f 381 417 341
f 419 381 341
f 304 437 477
f 322 494 529
f 460 449 340
f 500 340 449
f 301 489 425
f 323 338 337
f 359 470 320
f 412 415 307
f 437 384 446
f 296 304 510
f 530 508 536
f 530 536 317
f 412 521 415
f 478 330 359
f 478 359 320
f 466 509 413
f 509 478 413
f 473 472 315
f 296 510 512
f 436 296 402
f 402 296 512
f 402 512 467
f 467 512 474
f 403 467 474
f 306 416 417
f 474 493 401
f 312 417 463
f 463 417 316
f 463 316 329
f 493 326 511
f 511 326 475
f 511 475 398
f 475 329 328
f 475 328 398
f 512 1164 474
f 1164 476 333
f 476 446 333
f 333 446 527
f 437 418 384
f 411 513 297
f 407 297 472
f 315 472 363
f 355 363 485
f 482 509 518
f 518 364 343
f 334 519 365
f 519 331 508
f 334 365 330
f 353 352 313
f 302 306 307
f 415 302 307
f 509 482 537
f 509 537 478
f 404 380 420
f 404 420 479
f 319 399 366
f 391 346 335
f 335 347 339
f 421 391 513
f 513 391 335
f 480 335 339
f 449 367 483
f 483 367 514
f 516 303 368
f 336 516 368
f 423 422 424
f 395 301 425
f 395 425 369
f 450 426 506
f 426 486 506
f 458 427 370
f 427 517 370
f 517 300 370
f 370 300 393
f 482 389 388
f 482 518 389
f 389 518 343
f 389 343 390
f 507 519 324
f 519 334 324
f 324 334 841
f 519 507 331
f 411 483 484
f 363 472 516
f 497 355 485
f 485 424 369
f 425 497 369
f 481 313 426
f 327 491 426
f 491 396 486
f 426 491 486
f 427 353 300
f 427 300 517
f 393 300 313
f 338 314 428
f 354 487 520
f 405 360 337
f 405 337 338
f 320 405 338
f 320 428 371
f 520 487 371
f 520 371 354
f 468 469 377
f 316 416 430
f 321 366 399
f 400 328 429
f 412 864 521
f 538 358 468
f 538 468 377
f 539 377 402
f 539 402 467
f 539 467 435
f 372 366 824
f 366 321 824
f 321 400 822
f 331 500 410
f 531 343 499
f 499 343 353
f 499 353 531
f 501 313 522
f 432 313 481
f 489 450 396
f 396 450 486
f 489 396 425
f 523 363 336
f 339 297 480
f 339 433 297
f 411 498 513
f 421 513 342
f 799 460 340
f 340 507 799
f 841 382 540
f 427 458 531
f 501 650 393
f 650 501 432
f 489 524 450
f 496 744 423
f 339 347 434
f 433 339 434
f 433 434 515
f 498 797 798
f 342 498 798
f 525 541 329
f 329 541 328
f 525 329 328
f 541 525 328
f 319 366 511
f 319 511 399
f 401 435 376
f 469 296 436
f 377 469 436
f 380 479 420
f 302 521 438
f 521 302 439
f 416 357 440
f 440 430 416
f 326 527 528
f 390 343 531
f 404 379 490
f 341 417 312
f 322 491 492
f 327 322 492
f 492 491 327
f 510 304 512
f 512 304 477
f 477 437 446
f 474 333 493
f 322 529 447
f 313 494 327
f 313 466 494
f 550 451 470
f 343 352 353
f 484 514 498
f 484 498 411
f 363 374 485
f 485 374 424
f 448 483 411
f 482 540 382
f 396 445 497
f 482 388 540
f 482 382 537
f 382 478 537
f 507 340 500
f 331 507 500
f 433 515 516
f 374 523 496
f 523 336 496
f 374 496 424
f 496 423 424
f 501 522 432
f 486 450 506
f 320 487 464
f 378 356 354
f 334 330 478
f 515 434 394
f 498 514 797
f 421 342 391
f 342 798 391
f 508 331 536
f 528 329 475
f 326 528 475
f 528 463 329
f 443 463 528
f 442 312 443
f 312 463 443
f 350 349 542
f 543 461 542
f 461 350 542
f 545 407 305
f 318 332 305
f 545 298 407
f 305 298 545
f 544 413 495
f 494 546 544
f 546 413 544
f 466 413 546
f 494 466 546
f 359 547 548
f 547 359 550
f 359 548 547
f 547 550 359
f 317 549 410
f 549 331 410
f 536 549 317
f 549 536 331
f 534 530 317
f 330 533 550
f 533 551 550
f 551 534 317
f 533 534 551
f 550 552 451
f 552 551 451
f 551 317 451
f 550 551 552
f 553 383 351
f 553 555 383
f 554 553 351
f 365 519 556
f 519 532 556
f 519 508 532
f 330 365 556
f 508 530 532
f 532 542 556
f 542 330 556
f 530 542 532
f 530 534 542
f 543 330 542
f 534 543 542
f 533 330 543
f 534 533 543
f 555 462 383
f 406 462 555
f 553 361 555
f 361 406 555
f 418 361 554
f 361 553 554
f 318 414 315
f 318 409 414
f 409 535 414
f 535 473 414
f 535 407 473
f 407 472 473
f 447 495 491
f 322 447 491
f 567 565 1089
f 565 568 1089
f 598 563 564
f 569 570 524
f 1027 571 576
f 744 668 583
f 613 614 602
f 618 612 609
f 619 620 1003
f 614 1009 607
f 625 614 619
f 627 628 622
f 1001 663 632
f 668 744 661
f 649 584 644
f 914 659 700
f 769 455 660
f 659 676 700
f 697 635 696
f 697 637 635
f 638 640 637
f 698 642 640
f 642 699 640
f 643 647 699
f 647 746 699
f 699 746 1050
f 702 573 574
f 654 703 704
f 704 703 655
f 704 655 705
f 655 657 705
f 914 700 738
f 662 708 709
f 708 666 709
f 709 666 711
f 711 666 712
f 666 667 712
f 670 712 667
f 713 672 715
f 672 716 674
f 674 716 718
f 716 717 718
f 675 719 717
f 721 722 720
f 738 700 575
f 677 721 720
f 700 676 561
f 685 727 726
f 726 727 681
f 685 687 727
f 731 729 730
f 584 745 714
f 732 691 731
f 731 691 689
f 656 584 714
f 732 692 733
f 732 733 691
f 734 694 635
f 694 696 635
f 692 734 733
f 561 676 735
f 697 696 694
f 346 608 737
f 652 701 703
f 662 706 708
f 672 713 716
f 698 755 642
f 755 698 638
f 755 638 756
f 755 757 643
f 642 755 643
f 756 638 697
f 701 746 703
f 746 747 703
f 756 692 732
f 756 732 748
f 703 747 655
f 655 747 657
f 748 732 731
f 657 749 658
f 658 749 706
f 761 685 726
f 761 726 751
f 708 749 666
f 751 726 725
f 666 749 752
f 666 752 667
f 751 725 723
f 667 752 713
f 763 723 721
f 752 753 713
f 763 721 753
f 753 721 675
f 716 753 717
f 735 740 754
f 743 738 1057
f 738 575 1057
f 348 395 693
f 345 617 457
f 757 759 746
f 746 759 747
f 657 747 749
f 752 749 762
f 765 1057 584
f 1057 575 769
f 764 757 755
f 770 764 755
f 771 770 756
f 770 755 756
f 458 392 710
f 768 756 767
f 739 577 773
f 767 756 760
f 767 760 761
f 754 577 782
f 767 761 775
f 772 776 747
f 747 776 749
f 669 618 801
f 775 761 1093
f 1093 761 766
f 766 761 751
f 749 777 742
f 618 609 801
f 749 742 762
f 753 762 779
f 778 763 781
f 763 753 781
f 774 524 693
f 744 583 693
f 584 1057 769
f 584 769 745
f 736 745 784
f 745 790 784
f 577 739 787
f 782 577 787
f 583 774 693
f 745 769 785
f 702 574 786
f 452 386 387
f 453 454 455
f 452 387 345
f 345 457 456
f 617 782 787
f 745 785 790
f 769 660 785
f 503 700 452
f 799 789 783
f 799 783 794
f 787 793 617
f 452 700 561
f 846 785 795
f 828 785 846
f 803 799 806
f 503 504 575
f 660 455 785
f 787 800 793
f 664 669 801
f 741 664 801
f 617 839 804
f 803 806 805
f 795 617 804
f 794 802 792
f 700 503 575
f 846 795 804
f 805 806 797
f 1020 921 1078
f 846 804 942
f 807 488 808
f 412 807 864
f 808 488 358
f 452 561 386
f 1020 1078 585
f 808 358 538
f 785 828 826
f 521 864 948
f 797 806 798
f 794 792 375
f 373 521 573
f 521 948 573
f 839 613 812
f 538 377 539
f 560 559 566
f 386 561 735
f 812 613 603
f 810 432 299
f 567 566 565
f 539 435 818
f 812 603 814
f 818 435 372
f 798 806 570
f 316 431 951
f 818 372 824
f 504 453 575
f 799 794 375
f 429 316 822
f 316 951 822
f 812 814 1026
f 806 799 375
f 824 321 822
f 702 786 578
f 1026 814 870
f 394 668 303
f 617 793 825
f 831 845 832
f 836 915 834
f 906 676 835
f 828 846 851
f 578 786 837
f 786 826 837
f 793 800 887
f 758 798 855
f 617 838 839
f 559 593 566
f 588 960 1021
f 455 454 795
f 540 802 794
f 789 324 310
f 810 299 913
f 574 1062 1004
f 682 650 432
f 783 789 310
f 861 856 845
f 865 944 821
f 841 540 794
f 856 844 845
f 849 841 794
f 702 578 862
f 608 758 737
f 783 841 794
f 794 841 849
f 845 844 859
f 847 896 926
f 823 788 557
f 750 710 843
f 856 861 865
f 846 942 854
f 386 735 754
f 845 859 873
f 375 750 843
f 855 798 570
f 806 375 843
f 578 858 862
f 303 668 661
f 758 855 570
f 864 856 865
f 883 859 877
f 859 844 877
f 788 741 801
f 865 861 880
f 785 455 795
f 866 868 869
f 593 594 1017
f 868 866 867
f 866 869 867
f 863 859 874
f 583 569 875
f 877 844 538
f 896 877 538
f 583 875 774
f 875 569 774
f 431 702 862
f 874 859 898
f 872 881 901
f 806 843 682
f 898 859 899
f 873 882 907
f 861 891 876
f 864 865 955
f 878 894 925
f 346 737 347
f 347 737 434
f 918 971 835
f 862 851 897
f 391 798 758
f 830 1137 835
f 710 392 843
f 802 505 325
f 881 914 901
f 900 883 902
f 854 942 958
f 367 460 803
f 802 325 792
f 803 460 799
f 882 914 907
f 324 789 507
f 507 789 799
f 857 914 889
f 310 841 783
f 737 758 434
f 905 819 890
f 505 802 388
f 758 570 434
f 388 802 540
f 386 754 782
f 367 803 514
f 792 390 375
f 390 531 375
f 839 812 921
f 898 899 914
f 914 899 659
f 804 839 921
f 900 902 659
f 375 458 750
f 860 942 939
f 514 803 805
f 392 393 650
f 392 650 843
f 453 455 769
f 457 617 795
f 945 432 810
f 856 807 808
f 856 808 844
f 942 804 946
f 807 856 864
f 844 808 538
f 921 812 1131
f 450 913 459
f 913 450 524
f 948 864 963
f 949 538 539
f 949 539 609
f 864 955 963
f 452 453 503
f 801 609 539
f 431 862 950
f 801 539 818
f 952 801 818
f 952 818 824
f 301 348 524
f 951 953 822
f 822 953 564
f 564 824 822
f 862 912 950
f 804 921 602
f 422 744 954
f 602 921 1020
f 744 368 661
f 825 793 1061
f 913 299 459
f 368 303 661
f 804 602 586
f 804 586 946
f 946 586 1078
f 1078 586 585
f 614 942 860
f 930 947 676
f 614 860 587
f 889 914 894
f 587 860 939
f 587 939 957
f 587 957 579
f 846 607 912
f 912 607 959
f 912 959 960
f 912 960 950
f 876 891 894
f 394 434 868
f 575 453 769
f 1009 828 600
f 600 828 851
f 600 851 601
f 601 851 597
f 851 862 597
f 862 1018 597
f 944 895 935
f 965 971 937
f 942 614 595
f 941 932 918
f 936 832 830
f 926 927 922
f 942 595 958
f 922 924 923
f 941 918 917
f 937 971 918
f 843 650 682
f 971 970 976
f 958 595 599
f 976 973 910
f 958 599 957
f 830 908 1137
f 957 599 1021
f 920 918 980
f 979 903 853
f 977 980 835
f 903 979 892
f 980 918 835
f 976 910 835
f 971 976 835
f 910 830 835
f 1137 975 684
f 607 846 1011
f 957 1021 579
f 1011 846 885
f 979 835 892
f 659 911 676
f 751 763 778
f 788 801 952
f 950 960 588
f 749 776 777
f 1011 885 588
f 325 389 792
f 786 1004 986
f 1137 684 673
f 759 772 747
f 885 950 588
f 990 686 994
f 985 984 850
f 684 988 673
f 673 983 1001
f 771 756 768
f 787 622 800
f 574 996 648
f 835 1103 627
f 1060 987 991
f 686 892 627
f 562 1060 991
f 892 835 627
f 948 963 993
f 994 686 627
f 800 622 887
f 887 622 591
f 995 994 627
f 994 995 653
f 1001 678 997
f 997 665 663
f 887 591 581
f 928 916 676
f 1001 997 663
f 995 627 641
f 887 581 563
f 861 962 871
f 632 663 646
f 663 645 646
f 1000 996 636
f 845 879 831
f 620 793 1003
f 641 626 630
f 641 627 623
f 1003 793 852
f 752 762 753
f 925 894 738
f 394 868 668
f 651 992 634
f 641 623 624
f 628 1001 625
f 625 1001 1002
f 639 641 629
f 1003 852 909
f 631 648 633
f 631 633 632
f 1001 632 1002
f 879 859 847
f 628 625 619
f 622 628 619
f 627 622 606
f 1003 909 1019
f 619 614 620
f 1019 909 598
f 927 919 922
f 1019 598 1022
f 620 614 613
f 614 1002 1009
f 787 623 840
f 1002 621 615
f 760 748 761
f 834 974 853
f 760 756 748
f 1002 611 616
f 621 1004 615
f 853 612 690
f 840 623 610
f 615 1004 1005
f 850 669 998
f 606 622 1016
f 620 613 604
f 614 1007 602
f 840 610 893
f 613 602 1008
f 607 1009 600
f 992 741 634
f 386 782 387
f 457 795 456
f 559 842 833
f 893 610 594
f 614 607 595
f 1082 1018 1013
f 559 833 1012
f 1007 614 587
f 602 1007 586
f 1008 602 1020
f 607 1015 959
f 593 833 893
f 591 622 581
f 1012 1006 593
f 601 597 1018
f 593 893 594
f 605 1003 1019
f 622 787 815
f 836 919 949
f 959 1015 960
f 1015 1018 960
f 1017 563 581
f 622 815 1016
f 596 1011 589
f 753 675 717
f 1016 815 943
f 713 753 716
f 1011 588 589
f 1016 1017 594
f 751 723 763
f 919 896 949
f 706 749 708
f 582 604 1022
f 761 731 685
f 748 731 761
f 1016 943 1017
f 587 579 585
f 814 603 870
f 1017 943 563
f 896 538 949
f 756 694 692
f 756 697 694
f 1020 585 1030
f 643 757 746
f 590 870 728
f 793 620 604
f 868 867 668
f 793 604 582
f 793 582 1024
f 559 1012 593
f 1024 582 598
f 1022 728 870
f 998 651 634
f 598 582 1022
f 998 634 823
f 853 690 1086
f 690 850 1086
f 613 839 1014
f 831 879 847
f 1014 839 838
f 942 946 1025
f 944 871 821
f 865 1056 819
f 1014 838 590
f 955 865 819
f 670 667 713
f 695 1036 987
f 590 838 1026
f 991 987 996
f 574 648 1062
f 786 574 1004
f 1027 1028 571
f 1028 1030 571
f 647 643 746
f 566 593 565
f 1053 853 817
f 817 853 1086
f 1044 847 1066
f 590 1026 870
f 1066 847 848
f 514 805 797
f 993 1029 1036
f 1030 1040 571
f 930 915 836
f 915 930 906
f 930 676 906
f 1036 1029 683
f 773 626 788
f 788 626 559
f 845 857 832
f 857 889 832
f 832 889 830
f 889 894 830
f 828 1002 826
f 826 1002 616
f 826 616 837
f 1029 1031 683
f 986 578 611
f 578 837 616
f 611 578 616
f 963 827 983
f 829 963 983
f 983 827 1001
f 827 765 1001
f 694 734 692
f 1031 1032 683
f 683 1032 678
f 1032 1035 678
f 1036 816 820
f 731 689 729
f 731 730 687
f 1035 584 678
f 731 687 685
f 963 955 829
f 955 819 829
f 726 681 724
f 921 1101 1078
f 725 724 679
f 722 721 679
f 723 679 721
f 725 679 723
f 963 829 983
f 719 721 720
f 721 677 720
f 827 963 673
f 721 719 675
f 963 983 673
f 1057 827 673
f 672 674 715
f 671 713 715
f 816 1041 820
f 987 1060 665
f 713 671 670
f 820 1043 1038
f 1060 649 665
f 665 649 663
f 648 1093 1062
f 649 644 663
f 707 706 662
f 1046 658 707
f 705 658 1046
f 657 658 705
f 819 1056 1037
f 950 1023 957
f 644 584 663
f 1049 993 695
f 1050 703 654
f 652 703 1050
f 1051 1044 1066
f 993 1036 695
f 701 652 1050
f 1023 958 957
f 792 389 390
f 1049 695 989
f 643 699 642
f 1048 1039 1052
f 580 1049 989
f 698 640 638
f 584 580 678
f 580 989 678
f 637 697 638
f 1053 817 1065
f 819 955 890
f 740 1042 1070
f 955 1055 890
f 890 1055 988
f 894 914 738
f 1055 1057 988
f 988 1057 673
f 431 950 957
f 726 724 725
f 785 1002 809
f 1039 1058 1059
f 809 1002 615
f 1004 786 1005
f 948 993 1060
f 1068 1053 1065
f 786 809 1005
f 682 945 913
f 809 615 1005
f 956 738 743
f 793 1024 1061
f 658 706 707
f 828 1009 1013
f 828 1013 858
f 1089 568 572
f 858 1013 862
f 676 978 735
f 1018 862 1013
f 957 939 1064
f 701 1050 746
f 1002 785 611
f 786 986 611
f 611 785 826
f 826 786 611
f 1148 998 823
f 1042 740 735
f 434 570 569
f 996 574 688
f 1004 1062 1063
f 571 1067 572
f 1087 566 567
f 1087 567 1089
f 568 571 572
f 996 688 636
f 823 557 560
f 1071 1054 922
f 1034 1145 1073
f 1037 1056 1113
f 1040 1067 571
f 1075 831 847
f 636 688 1000
f 993 963 1029
f 961 887 563
f 871 1076 821
f 688 745 1000
f 960 1077 1021
f 745 632 1000
f 1033 1079 813
f 656 562 645
f 829 819 1037
f 562 991 645
f 1080 820 1038
f 1044 1075 847
f 568 1022 870
f 568 870 571
f 583 434 569
f 813 926 922
f 962 1034 821
f 871 821 1076
f 987 820 1080
f 1018 1082 1039
f 663 584 645
f 960 1039 1077
f 585 1040 1030
f 584 656 645
f 736 574 648
f 1083 613 1008
f 613 1083 1084
f 772 1085 1086
f 736 648 631
f 957 1064 1109
f 777 1115 742
f 742 1087 762
f 779 1088 753
f 1090 778 781
f 1091 1090 781
f 1092 751 778
f 1062 1093 766
f 1094 767 775
f 1073 764 770
f 1112 1073 770
f 759 1098 1099
f 870 576 571
f 759 1099 772
f 809 786 1004
f 621 785 809
f 632 745 631
f 621 809 1004
f 790 632 784
f 633 784 632
f 603 1132 1100
f 603 1100 576
f 745 736 631
f 603 576 870
f 1008 1020 1101
f 995 577 592
f 995 592 653
f 653 741 634
f 773 641 630
f 888 877 941
f 904 888 941
f 879 845 967
f 920 911 918
f 684 743 988
f 845 873 967
f 1131 812 576
f 627 1103 628
f 565 581 568
f 903 974 853
f 978 903 892
f 735 978 892
f 967 873 973
f 740 1081 686
f 982 1081 690
f 1042 892 981
f 1042 981 612
f 612 981 853
f 873 907 973
f 924 919 923
f 916 924 977
f 676 916 835
f 641 787 739
f 641 796 629
f 629 833 1006
f 754 990 994
f 990 1105 669
f 990 669 998
f 1106 740 686
f 985 1106 686
f 1107 985 618
f 618 985 850
f 680 558 994
f 973 907 910
f 558 680 992
f 558 992 664
f 664 992 651
f 861 871 940
f 880 861 940
f 880 940 929
f 938 880 929
f 938 975 1137
f 738 938 1137
f 907 914 910
f 957 1109 951
f 868 434 583
f 944 884 895
f 895 931 684
f 859 847 965
f 859 965 937
f 899 859 937
f 872 859 968
f 899 937 918
f 659 899 918
f 879 859 968
f 968 872 970
f 970 901 976
f 859 883 966
f 847 859 966
f 859 879 968
f 966 883 972
f 900 659 918
f 972 900 918
f 861 845 964
f 861 964 962
f 891 861 934
f 891 934 908
f 894 891 830
f 861 878 969
f 871 861 969
f 969 878 933
f 878 925 933
f 933 925 1137
f 925 738 1137
f 873 859 879
f 873 879 967
f 882 873 973
f 914 882 973
f 688 574 1000
f 745 688 1000
f 632 745 1000
f 881 872 970
f 1002 828 1009
f 1009 828 858
f 1009 858 1013
f 858 578 1082
f 858 1082 1013
f 846 607 851
f 851 607 600
f 872 968 970
f 1070 1042 612
f 851 600 601
f 897 601 1018
f 862 897 1018
f 1055 955 905
f 1055 890 988
f 1057 1055 988
f 914 881 970
f 1108 1060 987
f 1108 987 665
f 649 1108 665
f 649 665 997
f 584 649 997
f 991 562 645
f 656 714 646
f 645 656 646
f 431 957 951
f 714 632 646
f 963 1036 683
f 1031 963 683
f 1031 683 678
f 1035 1031 678
f 765 1035 1001
f 1060 1049 695
f 695 1049 989
f 1049 580 678
f 989 1049 678
f 580 584 997
f 678 580 997
f 613 825 604
f 604 1061 1022
f 914 970 971
f 793 619 852
f 852 619 1003
f 852 1003 605
f 852 605 909
f 909 605 1019
f 909 1019 563
f 563 1019 1022
f 838 613 1014
f 838 1014 590
f 838 590 728
f 627 787 840
f 627 840 623
f 623 840 610
f 610 893 943
f 610 943 594
f 791 641 624
f 811 624 1010
f 833 1010 593
f 619 793 622
f 622 887 581
f 962 861 934
f 581 961 563
f 581 563 1022
f 815 627 606
f 943 606 1016
f 943 1016 594
f 607 846 854
f 607 854 595
f 861 876 934
f 595 958 599
f 599 1023 950
f 599 950 1021
f 942 1007 587
f 942 587 939
f 939 587 1064
f 1109 587 585
f 607 846 912
f 607 912 1015
f 862 1018 1015
f 912 862 1015
f 846 607 1011
f 846 1011 885
f 885 1011 596
f 909 563 598
f 885 596 589
f 885 589 950
f 950 589 588
f 1007 942 586
f 586 942 1025
f 586 1109 585
f 934 876 908
f 1078 1020 1028
f 1028 1020 1030
f 634 741 823
f 1082 1047 1039
f 908 876 1137
f 876 894 1137
f 1039 1048 1110
f 1096 1073 1069
f 1096 1069 1097
f 857 845 832
f 1097 1071 1098
f 845 831 832
f 1098 1071 1099
f 1113 1095 1094
f 1115 560 1087
f 857 832 936
f 1063 1062 1092
f 914 857 830
f 1067 1116 1090
f 857 936 830
f 573 948 1060
f 914 830 910
f 869 868 583
f 847 877 941
f 1039 1059 1052
f 1073 1145 1069
f 1068 1065 1085
f 1085 1065 1086
f 941 877 932
f 842 788 952
f 877 888 932
f 1089 572 1088
f 572 1091 1088
f 932 888 918
f 1060 993 1049
f 888 904 918
f 833 842 952
f 904 659 918
f 847 859 965
f 573 1060 562
f 1069 1066 1097
f 1066 848 1071
f 859 863 965
f 1071 1072 1099
f 1099 1072 1068
f 1029 963 1031
f 1043 1113 1094
f 1074 1043 1094
f 1074 1094 1093
f 1086 1148 1114
f 863 874 965
f 1114 1148 823
f 1114 823 1115
f 1058 1116 1045
f 1045 1116 1067
f 874 898 965
f 572 1067 1091
f 965 898 971
f 740 1106 754
f 1117 1098 759
f 1111 1106 1134
f 1097 759 757
f 898 914 971
f 1117 1097 1098
f 764 1096 757
f 1106 1107 1134
f 877 847 966
f 1118 1073 1096
f 1119 1112 770
f 883 877 966
f 1119 770 1095
f 1095 770 771
f 1112 1119 1095
f 1120 768 1094
f 1094 768 767
f 883 966 972
f 1095 1120 1094
f 902 883 972
f 612 974 609
f 659 902 918
f 974 836 609
f 1135 766 1092
f 902 972 918
f 1116 778 1122
f 1122 778 780
f 871 865 940
f 836 949 609
f 778 1090 780
f 865 880 940
f 940 880 929
f 1025 946 1078
f 753 1088 781
f 1088 1091 1123
f 762 1124 779
f 1087 1124 762
f 1124 1087 1089
f 880 938 929
f 999 1087 742
f 929 938 975
f 742 1115 999
f 1115 1125 999
f 1125 1115 1087
f 1126 1114 777
f 975 938 684
f 776 1086 777
f 1086 1126 777
f 938 738 684
f 1126 1086 1114
f 878 861 969
f 1109 1025 1078
f 861 871 969
f 1127 1099 1085
f 625 1128 614
f 1128 625 1002
f 614 1128 1002
f 988 743 1057
f 894 878 933
f 684 956 743
f 632 790 1002
f 878 969 933
f 1002 790 785
f 1002 785 621
f 577 995 641
f 659 904 918
f 904 917 918
f 894 933 1137
f 577 994 592
f 592 994 653
f 592 653 741
f 1061 1024 598
f 741 653 634
f 754 1129 1104
f 1129 686 990
f 1129 754 686
f 950 588 1021
f 1022 598 728
f 1006 833 593
f 998 669 664
f 998 664 651
f 690 618 850
f 1060 695 987
f 562 991 996
f 574 562 996
f 1129 990 998
f 736 784 633
f 648 736 633
f 773 630 626
f 896 911 920
f 926 896 920
f 941 877 847
f 1129 998 669
f 577 1130 994
f 1130 680 994
f 1081 612 618
f 454 456 795
f 1131 1008 1101
f 1132 1131 1100
f 680 1130 992
f 1083 1008 1133
f 1084 1083 1133
f 992 1130 558
f 1008 1132 1133
f 1079 847 926
f 992 558 664
f 1077 1039 1110
f 772 1127 1085
f 992 664 741
f 999 1125 1087
f 1026 838 598
f 1088 1123 781
f 739 641 639
f 1123 1091 781
f 739 639 796
f 1095 768 1120
f 796 639 629
f 1118 764 1073
f 764 1118 1096
f 921 1131 1101
f 796 629 833
f 1132 1084 1133
f 1062 766 1135
f 833 629 1006
f 867 869 583
f 1132 1008 1131
f 833 1006 1012
f 877 896 847
f 741 788 823
f 623 787 624
f 624 787 791
f 624 791 811
f 624 811 1010
f 668 867 583
f 1010 811 593
f 593 811 833
f 576 812 1026
f 641 739 626
f 626 739 773
f 806 682 913
f 346 391 608
f 524 348 693
f 626 773 788
f 1103 1136 1138
f 1136 1137 1138
f 1137 1139 1138
f 626 788 559
f 1099 1127 772
f 1137 673 1139
f 559 788 842
f 922 919 924
f 1101 1020 1078
f 919 916 924
f 1109 1078 953
f 1089 779 1124
f 1090 1116 1122
f 1090 1122 780
f 1062 1135 1092
f 1092 766 751
f 1094 1121 1093
f 1121 775 1093
f 924 916 977
f 1094 775 1121
f 916 928 977
f 977 928 980
f 928 676 980
f 1104 1129 1105
f 570 806 524
f 391 758 608
f 947 930 906
f 628 1138 1001
f 757 1096 1097
f 1117 759 1097
f 1138 1139 1001
f 930 915 906
f 754 558 1130
f 915 930 836
f 1067 1090 1091
f 573 562 574
f 951 1109 953
f 1058 1092 1116
f 1058 1063 1092
f 1115 823 560
f 1041 1113 1043
f 1056 1095 1113
f 754 1130 577
f 1056 1112 1095
f 1097 1066 1071
f 835 1137 1136
f 915 836 974
f 915 974 834
f 1078 1028 953
f 676 947 835
f 947 906 835
f 913 945 810
f 896 927 926
f 943 893 952
f 1054 813 922
f 835 1136 1103
f 927 896 919
f 893 833 952
f 954 693 395
f 387 782 345
f 911 896 920
f 1099 1068 1085
f 896 926 920
f 676 911 980
f 911 920 980
f 586 1025 1109
f 827 1057 765
f 1064 587 1109
f 599 958 1023
f 595 854 958
f 815 606 943
f 787 627 815
f 1081 886 982
f 581 887 961
f 622 793 887
f 811 1010 833
f 791 624 811
f 787 641 791
f 610 840 893
f 886 1081 686
f 838 728 598
f 617 613 838
f 1022 1061 598
f 604 825 1061
f 1081 740 686
f 613 617 825
f 1035 678 1001
f 1139 673 1001
f 745 632 714
f 562 656 645
f 1055 905 890
f 955 819 905
f 1081 982 690
f 851 601 897
f 574 736 648
f 1081 690 612
f 574 996 1000
f 914 973 976
f 873 967 973
f 1021 1140 579
f 891 908 830
f 861 962 934
f 1141 1063 1058
f 883 900 972
f 578 986 1141
f 578 1141 1082
f 901 914 976
f 1142 1074 1093
f 872 901 970
f 985 1106 1111
f 859 872 968
f 996 1142 648
f 648 1142 1093
f 931 956 684
f 1143 1113 1041
f 884 931 895
f 865 884 944
f 938 929 975
f 806 913 524
f 750 458 710
f 963 829 1143
f 963 1143 1036
f 558 754 994
f 1112 1056 1144
f 1106 985 1107
f 754 1106 686
f 990 1104 1105
f 990 754 1104
f 629 796 833
f 641 739 796
f 964 845 1145
f 1145 845 831
f 916 977 835
f 1106 985 686
f 1032 1031 1035
f 923 919 836
f 924 916 919
f 1071 848 1146
f 1042 735 892
f 690 1081 618
f 1081 886 686
f 1081 982 886
f 985 1111 1134
f 1072 1147 1068
f 853 974 612
f 923 836 1147
f 903 978 974
f 1147 836 834
f 1102 1138 628
f 985 1134 984
f 1086 850 1148
f 1102 1103 1138
f 850 998 1148
f 557 788 560
f 628 1103 1102
f 560 788 559
f 911 659 918
f 904 941 917
f 577 641 773
f 1017 581 565
f 653 592 741
f 984 1134 850
f 1100 1131 576
f 1084 1132 603
f 850 1134 669
f 1021 1077 1110
f 1140 1021 1110
f 1110 1048 1052
f 1140 1110 1052
f 1095 771 768
f 563 943 824
f 1140 1052 1058
f 1140 1058 1045
f 1116 1092 778
f 585 579 1040
f 579 1140 1040
f 1040 1140 1045
f 779 1089 1088
f 777 1114 1115
f 772 1086 776
f 613 1084 603
f 682 432 945
f 978 979 974
f 1004 1063 1141
f 986 1004 1141
f 960 1018 1039
f 1082 1141 1047
f 987 1036 820
f 871 962 821
f 1047 1141 1058
f 978 676 979
f 1079 926 813
f 974 979 853
f 943 952 824
f 996 1080 1038
f 1053 1149 853
f 979 676 835
f 1043 1074 1142
f 1038 1043 1142
f 996 1038 1142
f 987 1080 996
f 981 740 1070
f 1037 1113 1143
f 1149 834 853
f 829 1037 1143
f 1134 1107 669
f 576 1026 564
f 565 593 1017
f 568 581 1022
f 1040 1045 1067
f 821 1034 1073
f 1071 922 1072
f 740 981 892
f 1107 618 669
f 560 566 1087
f 1036 1143 816
f 816 1143 1041
f 954 744 693
f 821 1073 1112
f 1056 865 1144
f 740 892 686
f 981 1070 612
f 981 612 853
f 1026 598 564
f 821 1112 1144
f 884 865 944
f 865 821 1144
f 865 871 944
f 1105 1129 669
f 831 1075 1044
f 931 884 935
f 1051 1069 1145
f 1044 1051 1145
f 831 1044 1145
f 884 944 935
f 953 1028 564
f 1034 962 964
f 1034 964 1145
f 1035 765 584
f 1033 847 1079
f 1054 1033 813
f 1054 1071 1146
f 1033 1054 1146
f 956 931 895
f 847 1033 1146
f 1069 1051 1066
f 931 935 895
f 1028 1027 564
f 738 956 684
f 956 895 684
f 848 847 1146
f 1059 1058 1052
f 1147 834 1053
f 1147 1053 1068
f 1053 834 1149
f 1027 576 564
f 1039 1047 1058
f 820 1041 1043
f 1060 1108 649
f 922 923 1147
f 1072 922 1147
f 563 824 564
f 1065 817 1086
f 774 569 524
f 422 954 395
f 345 782 617
f 1154 1150 1152
f 1150 1155 1152
f 1154 1153 1156
f 1153 1154 1155
f 1159 1153 1155
f 1153 1157 1156
f 1156 1157 1160
f 1159 1155 1158
f 1157 1159 1160
f 1159 1158 1160
f 1154 1156 1161
f 1154 1162 1150
f 1153 1159 1157
f 1164 1162 1154
f 1162 1165 1150
f 1164 1154 1163
f 1150 1165 1155
f 1155 1165 1166
f 1151 1155 1166
f 1151 1166 1167
f 1163 1151 1167
f 1163 1167 446
f 476 1163 446
f 1167 1166 446
f 1166 1165 477
f 1166 477 446
f 1165 1162 512
f 1165 512 477
f 1162 1164 512
f 1164 1163 476
f 1163 1154 1161
f 1163 1161 1160
f 1151 1163 1160
f 1155 1151 1158
f 1151 1160 1158
f 1154 1152 1155
f 1161 1156 1160
f 409 318 1168
f 318 471 1171
f 1168 318 1169
f 318 1171 1169
f 407 408 1170
f 407 1170 1171
f 471 407 1171
f 535 409 1168
f 408 535 1168
f 1170 408 1168
f 1171 1170 1168
f 1171 1168 1169
f 1173 1172 1175
f 1172 1174 1175
f 544 495 1174
f 1172 544 1174
f 529 494 1173
f 495 447 1174
f 447 529 1173
f 1174 447 1175
f 447 1173 1175
f 494 544 1172
f 494 1172 1173
f 1177 1179 1184
f 1182 1180 1181
f 1181 1180 1178
f 1180 1185 1178
f 1185 1184 1179
f 1178 1185 1179
f 1187 1186 311
f 379 1189 311
f 1189 1187 311
f 1188 1189 379
f 307 1188 379
f 1180 307 1186
f 1188 307 1182
f 1182 307 1180
f 1185 1180 1186
f 1189 1184 1187
f 1184 1185 1187
f 1187 1185 1186
f 1191 1190 1192
f 1191 1192 1193
f 1176 1191 1177
f 1191 1176 1181
f 1190 1191 1181
f 1190 1181 1178
f 1191 1193 1177
f 1190 1178 1179
f 1192 1190 1179
f 1177 1193 1179
f 1193 1192 1179
f 1188 1176 1177
f 1188 1182 1181
f 1176 1188 1181
f 1189 1188 1177
f 1183 1189 1177
f 1183 1177 1184
f 1183 1184 1189
f 1194 1195 1202
f 1195 1196 1202
f 1196 1197 1202
f 1202 1197 1198
f 1202 1198 1200
f 1204 1202 1199
f 1199 1202 1200
f 1201 1194 1202
f 1203 1202 1204
f 1204 1199 1200
f 1205 1195 1194
f 1206 1205 1194
f 1195 1205 1196
f 1205 1207 1196
f 1206 1194 1201
f 1208 1206 1201
f 1196 1207 1197
f 1201 1202 1208
f 1197 1207 1209
f 1197 1209 1198
f 1198 1209 1210
f 1208 1202 1211
f 1202 1203 1211
f 1203 1204 1211
f 1198 1210 712
f 1200 1198 712
f 1200 712 1212
f 1211 1204 1212
f 1204 1200 1212
f 640 699 1205
f 637 640 1206
f 640 1205 1206
f 635 637 1206
f 1205 699 1050
f 1205 1050 1207
f 734 635 1206
f 733 734 1206
f 1207 1050 704
f 691 733 1208
f 733 1206 1208
f 1207 704 705
f 729 691 1208
f 730 729 1208
f 1207 705 1046
f 1207 1046 1209
f 1209 1046 707
f 727 730 1208
f 1209 707 662
f 1209 662 1210
f 727 1208 1211
f 1210 662 711
f 724 727 1211
f 1210 711 712
f 679 724 1211
f 720 679 1211
f 712 670 715
f 712 715 1212
f 720 1211 1212
f 1212 715 674
f 674 717 1212
f 717 720 1212
f 662 709 711
f 674 718 717
f 1050 654 704
f 670 671 715
f 719 720 717
f 722 679 720
f 681 727 724
f 687 730 727
f 689 691 729
f 1214 1213 1215
f 461 543 1216
f 349 461 1216
f 349 1216 1217
f 349 1217 542
f 1216 543 1217
f 1217 543 542
f 1215 1213 418
f 1215 418 362
f 1213 361 418
f 1213 1214 406
f 361 1213 406
f 1214 1215 362
f 406 1214 362
f 1227 1220 1218
f 1220 1223 1221
f 1296 1222 1220
f 1222 1223 1220
f 1224 1296 1220
f 1225 1222 1296
f 1226 1222 1225
f 1237 1227 1228
f 1237 1229 1227
f 1228 1219 1235
f 1230 1231 1319
f 1232 1233 1234
f 1235 1236 1234
f 1237 1228 1233
f 1231 1314 1319
f 1240 1238 1314
f 1231 1240 1314
f 1268 1239 1237
f 1242 1239 1268
f 1271 1242 1268
f 1244 1238 1240
f 1271 1293 1242
f 1243 1244 1240
f 1271 1244 1293
f 1223 1245 1231
f 1230 1223 1231
f 1246 1319 1308
f 1247 1319 1246
f 1255 1253 1256
f 1249 1262 1248
f 1262 1235 1248
f 1250 1248 1235
f 1252 1287 1263
f 1251 1263 1264
f 1251 1265 1252
f 1268 1266 1310
f 1267 1268 1310
f 1271 1268 1267
f 1244 1269 1238
f 1244 1270 1269
f 1270 1244 1271
f 1253 1308 1254
f 1253 1246 1308
f 1246 1253 1255
f 1274 1273 1272
f 1254 1274 1272
f 1308 1274 1254
f 1272 1273 1258
f 1257 1258 1275
f 1259 1272 1258
f 1281 1257 1275
f 1259 1276 1272
f 1257 1276 1259
f 1276 1257 1281
f 1277 1261 1278
f 1318 1261 1277
f 1318 1236 1261
f 1260 1279 1261
f 1260 1280 1279
f 1280 1260 1236
f 1234 1236 1318
f 1279 1282 1281
f 1283 1281 1282
f 1286 1281 1283
f 1284 1282 1279
f 1284 1285 1282
f 1286 1256 1281
f 1249 1285 1284
f 1249 1288 1285
f 1286 1255 1256
f 1321 1288 1249
f 1286 1289 1287
f 1263 1288 1321
f 1289 1263 1287
f 1288 1263 1289
f 1278 1275 1258
f 1261 1275 1278
f 1261 1279 1275
f 1279 1281 1275
f 1256 1272 1276
f 1281 1256 1276
f 1256 1254 1272
f 1236 1235 1280
f 1235 1262 1280
f 1262 1284 1280
f 1262 1249 1284
f 1290 1247 1246
f 1287 1252 1246
f 1252 1290 1246
f 1255 1287 1246
f 1291 1250 1235
f 1219 1291 1235
f 1265 1290 1252
f 1218 1290 1265
f 1239 1242 1292
f 1242 1293 1292
f 1243 1240 1294
f 1243 1295 1293
f 1237 1224 1229
f 1297 1224 1237
f 1296 1224 1297
f 1298 1225 1296
f 1298 1226 1225
f 1295 1298 1297
f 1299 1295 1297
f 1292 1295 1299
f 1295 1294 1298
f 1294 1226 1298
f 1293 1295 1292
f 1295 1243 1294
f 1300 1303 1302
f 1301 1303 1300
f 1302 1304 1300
f 1305 1232 1301
f 1232 1303 1301
f 1302 1306 1304
f 1306 1307 1304
f 1306 1309 1307
f 1306 1308 1309
f 1310 1232 1305
f 1310 1266 1232
f 1312 1310 1311
f 1267 1310 1312
f 1271 1267 1313
f 1314 1309 1308
f 1314 1269 1309
f 1238 1269 1314
f 1237 1239 1297
f 1239 1299 1297
f 1269 1270 1315
f 1282 1316 1300
f 1283 1282 1300
f 1304 1283 1300
f 1282 1285 1316
f 1286 1283 1304
f 1285 1311 1316
f 1317 1286 1304
f 1288 1311 1285
f 1317 1289 1286
f 1312 1311 1288
f 1317 1315 1289
f 1270 1313 1288
f 1313 1312 1288
f 1315 1288 1289
f 1315 1270 1288
f 1313 1267 1312
f 1294 1245 1226
f 1294 1241 1245
f 1294 1240 1241
f 1303 1277 1302
f 1277 1273 1302
f 1318 1277 1303
f 1274 1306 1273
f 1274 1308 1306
f 1319 1314 1308
f 1239 1292 1299
f 1241 1240 1245
f 1233 1228 1234
f 1234 1228 1235
f 1245 1240 1231
f 1306 1302 1273
f 1232 1318 1303
f 1234 1318 1232
f 1266 1233 1232
f 1266 1237 1233
f 1268 1237 1266
f 1309 1315 1317
f 1269 1315 1309
f 1316 1301 1300
f 1316 1305 1301
f 1309 1304 1307
f 1309 1317 1304
f 1316 1311 1305
f 1221 1230 1290
f 1221 1290 1218
f 1226 1245 1222
f 1222 1245 1223
f 1291 1219 1250
f 1219 1218 1250
f 1229 1224 1320
f 1224 1220 1320
f 1320 1220 1227
f 1229 1320 1227
f 1280 1284 1279
f 1248 1264 1321
f 1250 1264 1248
f 1264 1263 1321
f 1218 1265 1250
f 1265 1264 1250
f 1265 1251 1264
f 1248 1321 1249
f 1218 1219 1227
f 1220 1221 1218
f 1223 1230 1221
f 1227 1219 1228
f 1230 1319 1290
f 1244 1243 1293
f 1251 1252 1263
f 1253 1254 1256
f 1257 1259 1258
f 1260 1261 1236
f 1277 1278 1258
f 1258 1273 1277
f 1286 1287 1255
f 1298 1296 1297
f 1270 1271 1313
f 1290 1319 1247
f 1311 1310 1305
f 1322 1323 1324
f 1325 1322 1324
f 1322 1326 1323
f 1322 1327 1326
f 1328 1329 1322
f 1330 1328 1322
f 1337 1330 1322
f 1329 1327 1322
f 1331 1332 1324
f 1323 1331 1324
f 1332 1325 1324
f 1323 1333 1331
f 1332 1334 1325
f 1334 1322 1325
f 1326 1333 1323
f 1326 1335 1333
f 1326 1336 1335
f 1334 1337 1322
f 1338 1336 1326
f 1338 1340 1336
f 1339 1330 1337
f 1339 1328 1330
f 1327 1341 1340
f 1339 1342 1328
f 1329 1341 1327
f 1342 1329 1328
f 1329 1342 1341
f 1333 1332 1331
f 1335 1332 1333
f 1336 1332 1335
f 1332 1339 1334
f 1342 1339 1332
f 1332 1340 1342
f 1336 1340 1332
f 1327 1340 1338
f 1334 1339 1337
f 1327 1338 1326
f 1340 1341 1342
