v 0.021161 -2e-06 0.375379
v 0.014483 0.016119 0.375379
v 0.008822 0.012337 0.375379
v 0.005039 0.006676 0.375379
v 0.003711 -2e-06 0.375379
v 0.005039 -0.00668 0.375379
v 0.008822 -0.012341 0.375379
v 0.014483 -0.016124 0.375379
v 0.021161 -0.017452 0.375379
v 0.027838 -0.016124 0.375379
v 0.033499 -0.012341 0.375379
v 0.037282 -0.00668 0.375379
v 0.03861 -2e-06 0.375379
v 0.037282 0.006676 0.375379
v 0.033499 0.012337 0.375379
v 0.027838 0.016119 0.375379
v 0.021161 0.017448 0.375379
v 0.021161 0.017448 0.091382
v 0.027838 0.016119 0.091382
v 0.033499 0.012337 0.091382
v 0.037282 0.006676 0.091382
v 0.03861 -2e-06 0.091382
v 0.037282 -0.00668 0.091382
v 0.033499 -0.012341 0.091382
v 0.027838 -0.016124 0.091382
v 0.021161 -0.017452 0.091382
v 0.014483 -0.016124 0.091382
v 0.008822 -0.012341 0.091382
v 0.005039 -0.00668 0.091382
v 0.003711 -2e-06 0.091382
v 0.005039 0.006676 0.091382
v 0.008822 0.012337 0.091382
v 0.014483 0.016119 0.091382
v 0.003783 -0.001591 0.086405
v 0.038538 -0.001591 0.086405
v 0.004068 -0.003516 0.086405
v 0.004831 -0.006153 0.086405
v 0.005085 -0.00679 0.086405
v 0.007053 -0.010272 0.086405
v 0.008822 -0.012341 0.086405
v 0.01029 -0.013652 0.086405
v 0.011406 -0.014471 0.086405
v 0.014309 -0.01605 0.086405
v 0.017646 -0.017094 0.086405
v 0.01882 -0.017294 0.086405
v 0.021161 -0.017452 0.086405
v 0.023501 -0.017294 0.086405
v 0.024675 -0.017094 0.086405
v 0.028012 -0.01605 0.086405
v 0.030915 -0.014471 0.086405
v 0.032031 -0.013652 0.086405
v 0.033499 -0.012341 0.086405
v 0.035268 -0.010272 0.086405
v 0.037236 -0.00679 0.086405
v 0.038253 -0.003516 0.086405
v 0.03749 -0.006153 0.086405
v 0.003815 0.001903 0.086405
v 0.038539 0.001576 0.086405
v 0.038253 0.003512 0.086405
v 0.037504 0.006112 0.086405
v 0.037236 0.006786 0.086405
v 0.035308 0.010213 0.086405
v 0.033499 0.012337 0.086405
v 0.032105 0.013588 0.086405
v 0.030915 0.014467 0.086405
v 0.028125 0.015998 0.086405
v 0.024675 0.01709 0.086405
v 0.02365 0.017269 0.086405
v 0.021161 0.017448 0.086405
v 0.018997 0.017313 0.086405
v 0.017646 0.01709 0.086405
v 0.014499 0.016126 0.086405
v 0.011406 0.014467 0.086405
v 0.010474 0.013792 0.086405
v 0.008822 0.012337 0.086405
v 0.007209 0.010478 0.086405
v 0.006692 0.009752 0.086405
v 0.004068 0.003512 0.086405
v 0.004935 0.006419 0.086405
v -0.002782 -0.004663 0.06067
v -0.001622 -0.008436 0.060359
v 0.001214 -0.007807 0.06645
v -0.001336 -0.009105 0.060283
v 0.000305 -0.012121 0.059843
v 0.003045 -0.011199 0.066065
v 0.000998 -0.013122 0.059657
v 0.002862 -0.015332 0.059158
v 0.005458 -0.014142 0.065565
v 0.004112 -0.016526 0.058823
v 0.005964 -0.017978 0.058327
v 0.008372 -0.016559 0.064966
v 0.008447 -0.012566 0.079401
v 0.00786 -0.019156 0.057819
v 0.009522 -0.019974 0.057373
v 0.011706 -0.018372 0.064283
v 0.012067 -0.020892 0.056691
v 0.013452 -0.021238 0.05632
v 0.015382 -0.019503 0.063528
v 0.016536 -0.02165 0.055494
v 0.017669 -0.021682 0.05519
v 0.01932 -0.019876 0.062717
v 0.017416 -0.017381 0.078733
v 0.021057 -0.021396 0.054282
v 0.021886 -0.021238 0.05406
v 0.023244 -0.01944 0.06191
v 0.030854 -0.014674 0.077759
v 0.038488 -0.002346 0.049612
v 0.03861 -2e-06 0.049579
v 0.03861 -2e-06 0.058785
v 0.03861 -2e-06 0.067992
v 0.03861 -2e-06 0.077198
v 0.038253 -0.003561 0.077224
v 0.037228 -0.006877 0.077296
v 0.037105 -0.007664 0.059092
v 0.037514 -0.006925 0.049873
v 0.038223 -0.003968 0.058864
v 0.038181 -0.004368 0.049694
v 0.035342 -0.011019 0.059449
v 0.035613 -0.011179 0.050382
v 0.036961 -0.008436 0.050021
v 0.038244 -0.003705 0.068042
v 0.037189 -0.007155 0.068188
v 0.035523 -0.010287 0.068418
v 0.035607 -0.009881 0.077413
v 0.033312 -0.01303 0.068723
v 0.03346 -0.012504 0.077569
v 0.030626 -0.015306 0.069095
v 0.033001 -0.013957 0.059922
v 0.030157 -0.016396 0.060499
v 0.02688 -0.018252 0.061166
v 0.02542 -0.020142 0.053113
v 0.025816 -0.019974 0.053007
v 0.029421 -0.017946 0.052041
v 0.032477 -0.015332 0.051223
v 0.032872 -0.014911 0.051117
v 0.035033 -0.012121 0.050538
v 0.027532 -0.017036 0.069526
v 0.0241 -0.018144 0.070007
v 0.02786 -0.016317 0.077976
v 0.020398 -0.018549 0.070528
v 0.024547 -0.01736 0.078216
v 0.016683 -0.0182 0.071053
v 0.020984 -0.017731 0.078473
v 0.013215 -0.017143 0.071545
v 0.01007 -0.01545 0.071992
v 0.014089 -0.016357 0.078979
v 0.007322 -0.013194 0.072384
v 0.011076 -0.014728 0.079204
v 0.005047 -0.010447 0.072709
v 0.004632 -0.006924 0.079677
v 0.003593 -0.003587 0.079752
v 0.002229 -0.003776 0.073115
v 0.006275 -0.009941 0.07956
v 0.003321 -0.007283 0.072957
v 5.5e-05 -0.004048 0.066692
v -0.002843 -0.004369 0.060686
v 0.003234 -2e-06 0.079788
v -0.003272 -2e-06 0.060801
v -0.000339 -2e-06 0.066765
v 0.001856 -2e-06 0.073168
v 0.006275 0.009937 0.07956
v 0.004632 0.00692 0.079677
v 0.037228 0.006872 0.077296
v 0.038253 0.003556 0.077224
v 0.024547 0.017356 0.078216
v 0.02786 0.016312 0.077976
v 0.030854 0.014669 0.077759
v 0.03346 0.0125 0.077569
v 0.035607 0.009877 0.077413
v 0.011076 0.014724 0.079204
v 0.014089 0.016352 0.078979
v 0.017416 0.017377 0.078733
v 0.003593 0.003583 0.079752
v 0.008447 0.012562 0.079401
v 0.002229 0.003771 0.073115
v 0.003321 0.007278 0.072957
v 0.005047 0.010443 0.072709
v 0.007322 0.01319 0.072384
v 0.01007 0.015446 0.071992
v 0.013215 0.017138 0.071545
v 0.016683 0.018196 0.071053
v 0.020398 0.018545 0.070528
v 0.020984 0.017727 0.078473
v 0.0241 0.018139 0.070007
v 0.027532 0.017032 0.069526
v 0.030626 0.015301 0.069095
v 0.033312 0.013026 0.068723
v 0.035523 0.010283 0.068418
v 0.037189 0.007151 0.068188
v 0.038244 0.0037 0.068042
v 0.015382 0.019499 0.063528
v 0.01932 0.019872 0.062717
v 0.016536 0.021646 0.055494
v 0.008372 0.016554 0.064966
v 0.011706 0.018367 0.064283
v 0.00786 0.019152 0.057819
v 0.013452 0.021233 0.05632
v 0.012067 0.020887 0.056691
v 0.009522 0.01997 0.057373
v 0.005964 0.017974 0.058327
v 0.004112 0.016521 0.058823
v 0.005458 0.014138 0.065565
v 0.002862 0.015328 0.059158
v 0.000998 0.013118 0.059657
v 0.003045 0.011194 0.066065
v 0.000305 0.012116 0.059843
v -0.001336 0.009101 0.060283
v 0.001214 0.007803 0.06645
v -0.002843 0.004364 0.060686
v 5.5e-05 0.004043 0.066692
v -0.002782 0.004658 0.06067
v -0.001622 0.008432 0.060359
v 0.038488 0.002342 0.049612
v 0.038223 0.003963 0.058864
v 0.035613 0.011175 0.050382
v 0.035342 0.011015 0.059449
v 0.037105 0.00766 0.059092
v 0.038181 0.004364 0.049694
v 0.037514 0.00692 0.049873
v 0.036961 0.008432 0.050021
v 0.023244 0.019436 0.06191
v 0.02688 0.018248 0.061166
v 0.02542 0.020138 0.053113
v 0.035033 0.012117 0.050538
v 0.032872 0.014907 0.051117
v 0.033001 0.013953 0.059922
v 0.032477 0.015328 0.051223
v 0.030157 0.016392 0.060499
v 0.029421 0.017942 0.052041
v 0.025816 0.01997 0.053007
v 0.021886 0.021233 0.05406
v 0.021057 0.021392 0.054282
v 0.017669 0.021678 0.05519
v 0.009617 0.032062 0.024825
v 0.02147 0.029621 0.021649
v 0.031518 0.02267 0.018957
v 0.038231 0.012268 0.017158
v 0.040589 -2e-06 0.016526
v 0.038231 -0.012273 0.017158
v 0.031518 -0.022675 0.018957
v 0.02147 -0.029626 0.021649
v 0.009617 -0.032066 0.024825
v -0.002235 -0.029626 0.028001
v -0.012283 -0.022675 0.030693
v -0.018997 -0.012273 0.032492
v -0.021354 -2e-06 0.033124
v -0.018997 0.012268 0.032492
v -0.012283 0.02267 0.030693
v -0.002235 0.029621 0.028001
v -0.002338 0.028482 0.025792
v -0.012 0.021799 0.028381
v -0.018455 0.011796 0.030111
v -0.020722 -2e-06 0.030719
v -0.018455 -0.011801 0.030111
v -0.012 -0.021803 0.028381
v -0.002338 -0.028487 0.025792
v 0.009058 -0.030834 0.022739
v 0.020455 -0.028487 0.019685
v 0.030117 -0.021803 0.017096
v 0.036572 -0.011801 0.015366
v 0.038839 -2e-06 0.014759
v 0.036572 0.011796 0.015366
v 0.030117 0.021799 0.017096
v 0.020455 0.028482 0.019685
v 0.009058 0.030829 0.022739
v 0.009058 0.029431 0.022739
v 0.019938 0.027191 0.019823
v 0.029162 0.02081 0.017352
v 0.035325 0.011261 0.015701
v 0.037489 -2e-06 0.015121
v 0.035325 -0.011266 0.015701
v 0.029162 -0.020815 0.017352
v 0.019938 -0.027195 0.019823
v 0.009058 -0.029436 0.022739
v -0.001821 -0.027195 0.025654
v -0.011045 -0.020815 0.028126
v -0.017208 -0.011266 0.029777
v -0.019372 -2e-06 0.030357
v -0.017208 0.011261 0.029777
v -0.011045 0.02081 0.028126
v -0.001821 0.027191 0.025654
v 0.0086 0.029998 0.021027
v 0.007085 0.029421 0.015374
v 0.005628 0.027714 0.009938
v 0.004286 0.024942 0.004928
v 0.003109 0.021211 0.000537
v 0.002144 0.016665 -0.003067
v 0.001426 0.011478 -0.005745
v 0.000984 0.00585 -0.007394
v 0.019689 0.027714 0.018056
v 0.017961 0.027182 0.01246
v 0.015874 0.025604 0.007193
v 0.013506 0.023043 0.002457
v 0.010951 0.019596 -0.001564
v 0.008305 0.015396 -0.004718
v 0.00567 0.010604 -0.006882
v 0.003148 0.005405 -0.007974
v 0.02909 0.021211 0.015537
v 0.027182 0.020803 0.009989
v 0.024559 0.019596 0.004865
v 0.021323 0.017636 0.000363
v 0.017598 0.014998 -0.003346
v 0.013528 0.011783 -0.006117
v 0.009268 0.008116 -0.007846
v 0.004982 0.004136 -0.008465
v 0.035372 0.011478 0.013854
v 0.033343 0.011258 0.008338
v 0.030362 0.010604 0.00331
v 0.026546 0.009543 -0.001037
v 0.02204 0.008116 -0.004536
v 0.017017 0.006376 -0.007052
v 0.011671 0.004391 -0.00849
v 0.006207 0.002237 -0.008793
v 0.037577 -2e-06 0.013263
v 0.035506 -2e-06 0.007758
v 0.0324 -2e-06 0.002764
v 0.02838 -2e-06 -0.001528
v 0.0236 -2e-06 -0.004954
v 0.018243 -2e-06 -0.007381
v 0.012516 -2e-06 -0.008716
v 0.006638 -2e-06 -0.008909
v 0.035372 -0.011483 0.013854
v 0.033343 -0.011262 0.008338
v 0.030362 -0.010609 0.00331
v 0.026546 -0.009548 -0.001037
v 0.02204 -0.00812 -0.004536
v 0.017017 -0.00638 -0.007052
v 0.011671 -0.004396 -0.00849
v 0.006207 -0.002242 -0.008793
v 0.02909 -0.021215 0.015537
v 0.027182 -0.020808 0.009989
v 0.024559 -0.019601 0.004865
v 0.021323 -0.01764 0.000363
v 0.017598 -0.015002 -0.003346
v 0.013528 -0.011788 -0.006117
v 0.009268 -0.00812 -0.007846
v 0.004982 -0.004141 -0.008465
v 0.019689 -0.027719 0.018056
v 0.017961 -0.027186 0.01246
v 0.015874 -0.025609 0.007193
v 0.013506 -0.023048 0.002457
v 0.010951 -0.019601 -0.001564
v 0.008305 -0.015401 -0.004718
v 0.00567 -0.010609 -0.006882
v 0.003148 -0.005409 -0.007974
v 0.0086 -0.030002 0.021027
v 0.007085 -0.029426 0.015374
v 0.005628 -0.027719 0.009938
v 0.004286 -0.024946 0.004928
v 0.003109 -0.021215 0.000537
v 0.002144 -0.016669 -0.003067
v 0.001426 -0.011483 -0.005745
v 0.000984 -0.005855 -0.007394
v 0.000835 -2e-06 -0.007951
v -0.00249 -0.027719 0.023998
v -0.003791 -0.027186 0.018288
v -0.004617 -0.025609 0.012683
v -0.004934 -0.023048 0.007399
v -0.004732 -0.019601 0.002638
v -0.004017 -0.015401 -0.001416
v -0.002817 -0.010609 -0.004608
v -0.001179 -0.005409 -0.006814
v -0.011891 -0.021215 0.026517
v -0.013012 -0.020808 0.020759
v -0.013302 -0.019601 0.01501
v -0.012751 -0.01764 0.009493
v -0.011379 -0.015002 0.004419
v -0.00924 -0.011788 -1.7e-05
v -0.006415 -0.00812 -0.003644
v -0.003013 -0.004141 -0.006323
v -0.018172 -0.011483 0.028201
v -0.019173 -0.011262 0.022409
v -0.019106 -0.010609 0.016565
v -0.017974 -0.009548 0.010893
v -0.015821 -0.00812 0.005609
v -0.01273 -0.00638 0.000918
v -0.008819 -0.004396 -0.003
v -0.004239 -0.002242 -0.005994
v -0.020378 -2e-06 0.028792
v -0.021336 -2e-06 0.022989
v -0.021144 -2e-06 0.017111
v -0.019808 -2e-06 0.011384
v -0.017381 -2e-06 0.006027
v -0.013955 -2e-06 0.001247
v -0.009663 -2e-06 -0.002773
v -0.004669 -2e-06 -0.005879
v -0.018172 0.011478 0.028201
v -0.019173 0.011258 0.022409
v -0.019106 0.010604 0.016565
v -0.017974 0.009543 0.010892
v -0.015821 0.008116 0.005609
v -0.01273 0.006376 0.000918
v -0.008819 0.004391 -0.003
v -0.004239 0.002237 -0.005994
v -0.011891 0.021211 0.026517
v -0.013012 0.020803 0.020759
v -0.013302 0.019596 0.01501
v -0.012751 0.017636 0.009493
v -0.011379 0.014998 0.004419
v -0.00924 0.011783 -1.7e-05
v -0.006415 0.008116 -0.003644
v -0.003013 0.004136 -0.006323
v -0.00249 0.027714 0.023998
v -0.003791 0.027182 0.018288
v -0.004617 0.025604 0.012683
v -0.004934 0.023043 0.007398
v -0.004732 0.019596 0.002638
v -0.004017 0.015396 -0.001416
v -0.002817 0.010604 -0.004608
v -0.001179 0.005405 -0.006814
v 0.017384 0.024118 0.053809
v 0.0263 0.022282 0.05142
v 0.033858 0.017053 0.049395
v 0.038908 0.009228 0.048042
v 0.040682 -2e-06 0.047567
v 0.038908 -0.009233 0.048042
v 0.033858 -0.017058 0.049395
v 0.026299 -0.022286 0.05142
v 0.017384 -0.024122 0.053809
v 0.008468 -0.022286 0.056198
v 0.00091 -0.017058 0.058224
v -0.004141 -0.009233 0.059577
v -0.005914 -2e-06 0.060052
v -0.004141 0.009228 0.059577
v 0.00091 0.017053 0.058224
v 0.008468 0.022282 0.056198
f 4 5 1
f 2 3 1
f 6 7 1
f 15 16 1
f 14 15 1
f 11 12 1
f 13 14 1
f 9 10 1
f 7 8 1
f 17 2 1
f 8 9 1
f 10 11 1
f 16 17 1
f 3 4 1
f 12 13 1
f 5 6 1
f 278 252 279
f 278 254 253
f 277 255 254
f 276 256 255
f 268 262 269
f 274 256 275
f 266 250 265
f 279 251 280
f 281 251 250
f 272 260 259
f 270 260 271
f 267 263 268
f 270 262 261
f 274 258 257
f 266 264 267
f 273 259 258
f 278 253 252
f 278 277 254
f 277 276 255
f 276 275 256
f 268 263 262
f 274 257 256
f 266 281 250
f 279 252 251
f 281 280 251
f 272 271 260
f 270 261 260
f 267 264 263
f 270 269 262
f 274 273 258
f 266 265 264
f 273 272 259
f 50 139 106
f 64 168 167
f 225 216 224
f 32 4 3
f 33 3 2
f 18 2 17
f 19 17 16
f 20 16 15
f 21 15 14
f 22 14 13
f 23 13 12
f 24 12 11
f 25 11 10
f 26 10 9
f 27 9 8
f 28 8 7
f 29 7 6
f 30 6 5
f 28 39 40
f 29 37 38
f 28 42 27
f 22 35 58
f 26 44 45
f 26 45 46
f 23 53 54
f 25 48 49
f 25 49 50
f 24 51 52
f 26 48 25
f 23 54 56
f 23 55 22
f 27 43 44
f 29 36 37
f 22 59 21
f 151 34 157
f 35 111 58
f 19 65 66
f 18 67 68
f 76 174 161
f 18 71 33
f 33 71 72
f 74 174 75
f 32 74 75
f 32 77 31
f 31 77 79
f 30 78 57
f 30 57 34
f 20 63 64
f 21 60 61
f 121 111 112
f 128 133 134
f 28 40 41
f 99 98 97
f 130 127 137
f 208 211 210
f 207 205 206
f 204 202 203
f 201 194 200
f 93 94 95
f 96 97 98
f 99 100 101
f 45 44 102
f 103 104 105
f 51 50 106
f 213 109 108
f 111 190 164
f 219 214 218
f 116 117 107
f 114 120 115
f 110 214 190
f 173 160 157
f 163 188 169
f 154 153 150
f 190 217 189
f 186 222 185
f 131 132 130
f 229 226 227
f 128 134 135
f 118 136 119
f 223 221 222
f 185 221 184
f 167 185 166
f 38 153 39
f 54 113 56
f 232 192 221
f 145 146 148
f 230 228 229
f 193 191 192
f 165 182 183
f 198 195 191
f 183 181 172
f 70 183 172
f 47 141 48
f 180 194 179
f 87 89 88
f 171 179 170
f 84 86 85
f 71 171 72
f 81 83 82
f 174 177 161
f 41 148 42
f 38 37 150
f 162 175 173
f 161 176 162
f 156 80 155
f 57 173 157
f 166 184 165
f 109 107 108
f 113 123 122
f 116 110 121
f 86 88 85
f 167 65 64
f 163 61 60
f 78 173 57
f 161 77 76
f 170 74 73
f 151 160 152
f 175 159 160
f 147 148 92
f 144 102 146
f 138 139 141
f 127 126 106
f 124 125 123
f 112 122 121
f 93 91 90
f 191 197 198
f 195 199 196
f 201 203 202
f 35 112 111
f 204 206 205
f 155 158 156
f 209 210 211
f 212 208 207
f 119 114 118
f 213 218 214
f 217 219 220
f 215 224 216
f 135 118 128
f 226 225 227
f 129 132 133
f 222 230 223
f 221 231 232
f 192 233 193
f 172 71 70
f 165 68 67
f 152 159 155
f 155 154 152
f 82 149 154
f 85 147 149
f 88 145 147
f 95 142 144
f 98 140 142
f 101 138 140
f 125 129 128
f 123 128 118
f 122 118 114
f 49 141 139
f 22 55 35
f 121 114 116
f 177 208 176
f 23 56 55
f 23 24 53
f 26 47 48
f 18 70 71
f 20 64 65
f 22 58 59
f 32 76 77
f 26 27 44
f 28 41 42
f 31 79 78
f 32 33 73
f 29 38 39
f 24 25 50
f 21 61 62
f 30 34 36
f 18 19 67
f 72 170 73
f 150 152 154
f 126 51 106
f 19 66 67
f 149 92 153
f 56 112 55
f 29 39 28
f 21 59 60
f 142 143 102
f 32 73 74
f 143 45 102
f 18 69 70
f 61 169 62
f 26 46 47
f 151 37 36
f 24 52 53
f 157 34 57
f 33 72 73
f 143 47 46
f 66 165 67
f 21 62 20
f 92 39 153
f 170 178 174
f 115 116 114
f 187 228 186
f 43 148 146
f 176 210 175
f 196 194 195
f 96 95 94
f 65 166 66
f 178 205 177
f 103 101 100
f 68 183 69
f 32 75 76
f 20 65 19
f 20 62 63
f 217 215 216
f 168 186 167
f 179 202 178
f 91 144 145
f 189 216 188
f 58 164 59
f 89 91 88
f 62 168 63
f 131 105 104
f 137 106 139
f 44 146 102
f 181 195 180
f 184 192 182
f 182 191 181
f 173 79 162
f 27 42 43
f 24 50 51
f 77 162 79
f 210 158 159
f 83 85 82
f 54 124 113
f 172 180 171
f 80 82 155
f 53 126 124
f 140 141 143
f 169 187 168
f 164 189 163
f 18 68 69
f 60 164 163
f 188 226 187
f 105 137 138
f 31 78 30
f 92 41 40
f 5 31 30
f 266 290 282
f 322 272 330
f 330 273 338
f 363 277 371
f 274 355 346
f 314 271 322
f 298 267 268
f 306 268 269
f 355 276 363
f 403 266 282
f 281 395 280
f 273 346 338
f 258 242 257
f 262 238 261
f 256 244 255
f 250 234 265
f 255 245 254
f 257 243 256
f 260 238 239
f 250 248 249
f 269 314 306
f 279 379 278
f 277 379 371
f 253 245 246
f 258 240 241
f 259 239 240
f 263 235 236
f 253 247 252
f 264 234 235
f 263 237 262
f 251 247 248
f 30 36 29
f 286 295 287
f 288 295 296
f 288 297 289
f 354 289 297
f 282 291 283
f 284 291 292
f 284 293 285
f 286 293 294
f 294 301 302
f 294 303 295
f 296 303 304
f 297 304 305
f 354 297 305
f 291 298 299
f 291 300 292
f 293 300 301
f 354 305 313
f 299 306 307
f 299 308 300
f 300 309 301
f 302 309 310
f 302 311 303
f 304 311 312
f 305 312 313
f 310 317 318
f 310 319 311
f 311 320 312
f 313 320 321
f 354 313 321
f 307 314 315
f 307 316 308
f 308 317 309
f 354 321 329
f 314 323 315
f 315 324 316
f 317 324 325
f 317 326 318
f 318 327 319
f 320 327 328
f 320 329 321
f 327 334 335
f 327 336 328
f 328 337 329
f 354 329 337
f 323 330 331
f 324 331 332
f 325 332 333
f 325 334 326
f 330 339 331
f 331 340 332
f 332 341 333
f 334 341 342
f 335 342 343
f 335 344 336
f 336 345 337
f 354 337 345
f 342 351 343
f 344 351 352
f 345 352 353
f 354 345 353
f 338 347 339
f 340 347 348
f 341 348 349
f 341 350 342
f 347 357 348
f 348 358 349
f 350 358 359
f 351 359 360
f 351 361 352
f 352 362 353
f 354 353 362
f 346 356 347
f 358 365 366
f 358 367 359
f 360 367 368
f 361 368 369
f 362 369 370
f 354 362 370
f 356 363 364
f 357 364 365
f 369 378 370
f 354 370 378
f 364 371 372
f 364 373 365
f 366 373 374
f 367 374 375
f 368 375 376
f 369 376 377
f 375 382 383
f 375 384 376
f 376 385 377
f 378 385 386
f 354 378 386
f 372 379 380
f 372 381 373
f 374 381 382
f 354 386 394
f 379 388 380
f 380 389 381
f 382 389 390
f 382 391 383
f 384 391 392
f 385 392 393
f 385 394 386
f 390 399 391
f 392 399 400
f 393 400 401
f 393 402 394
f 354 394 402
f 387 396 388
f 388 397 389
f 389 398 390
f 354 402 410
f 396 403 404
f 396 405 397
f 397 406 398
f 398 407 399
f 400 407 408
f 400 409 401
f 402 409 410
f 407 287 408
f 408 288 409
f 409 289 410
f 354 410 289
f 403 283 404
f 405 283 284
f 405 285 406
f 406 286 407
f 237 415 238
f 239 417 240
f 249 411 234
f 236 412 413
f 242 418 419
f 243 421 244
f 246 422 423
f 244 422 245
f 237 413 414
f 249 425 426
f 243 419 420
f 247 425 248
f 234 412 235
f 246 424 247
f 239 415 416
f 240 418 241
f 422 83 81
f 422 84 83
f 421 84 422
f 421 87 86
f 421 89 87
f 421 90 89
f 420 90 421
f 420 94 93
f 420 96 94
f 420 97 96
f 419 99 97
f 419 100 99
f 419 103 100
f 419 104 103
f 418 131 104
f 418 132 131
f 418 133 132
f 417 134 133
f 417 135 134
f 417 136 135
f 416 136 417
f 416 120 119
f 416 115 120
f 416 117 115
f 415 117 416
f 415 108 107
f 415 213 108
f 415 218 213
f 414 219 218
f 414 220 219
f 414 215 220
f 414 224 215
f 413 225 224
f 413 227 225
f 413 229 227
f 412 229 413
f 412 223 230
f 412 231 223
f 411 231 412
f 411 233 232
f 411 193 233
f 411 197 193
f 426 197 411
f 426 199 198
f 426 196 199
f 426 200 196
f 425 201 200
f 425 203 201
f 425 204 203
f 425 206 204
f 424 207 206
f 424 212 207
f 424 211 212
f 424 209 211
f 423 158 209
f 423 156 158
f 422 156 423
f 422 81 80
f 421 86 84
f 420 93 90
f 420 419 97
f 419 418 104
f 418 417 133
f 416 119 136
f 415 107 117
f 415 414 218
f 414 413 224
f 412 230 229
f 411 232 231
f 426 198 197
f 426 425 200
f 425 424 206
f 424 423 209
f 422 80 156
f 280 387 279
f 50 49 139
f 64 63 168
f 225 226 216
f 32 31 4
f 33 32 3
f 18 33 2
f 19 18 17
f 20 19 16
f 21 20 15
f 22 21 14
f 23 22 13
f 24 23 12
f 25 24 11
f 26 25 10
f 27 26 9
f 28 27 8
f 29 28 7
f 30 29 6
f 151 36 34
f 76 75 174
f 74 170 174
f 121 110 111
f 128 129 133
f 99 101 98
f 130 129 127
f 208 212 211
f 207 208 205
f 204 205 202
f 201 202 194
f 213 214 109
f 111 110 190
f 219 217 214
f 110 109 214
f 173 175 160
f 163 189 188
f 154 149 153
f 190 214 217
f 186 228 222
f 229 228 226
f 223 231 221
f 185 222 221
f 167 186 185
f 38 150 153
f 232 233 192
f 145 144 146
f 230 222 228
f 193 197 191
f 165 184 182
f 198 199 195
f 183 182 181
f 70 69 183
f 180 195 194
f 171 180 179
f 71 172 171
f 174 178 177
f 162 176 175
f 161 177 176
f 166 185 184
f 109 116 107
f 113 124 123
f 116 109 110
f 86 87 88
f 151 157 160
f 175 210 159
f 147 145 148
f 144 142 102
f 138 137 139
f 127 125 126
f 124 126 125
f 112 113 122
f 93 95 91
f 35 55 112
f 155 159 158
f 119 120 114
f 135 136 118
f 129 130 132
f 152 160 159
f 155 82 154
f 82 85 149
f 85 88 147
f 88 91 145
f 95 98 142
f 98 101 140
f 101 105 138
f 125 127 129
f 123 125 128
f 122 123 118
f 49 48 141
f 121 122 114
f 177 205 208
f 72 171 170
f 150 151 152
f 126 52 51
f 149 147 92
f 56 113 112
f 142 140 143
f 143 46 45
f 61 163 169
f 151 150 37
f 143 141 47
f 66 166 165
f 92 40 39
f 170 179 178
f 115 117 116
f 187 226 228
f 43 42 148
f 176 208 210
f 196 200 194
f 96 98 95
f 65 167 166
f 178 202 205
f 103 105 101
f 68 165 183
f 217 220 215
f 168 187 186
f 179 194 202
f 91 95 144
f 189 217 216
f 58 111 164
f 89 90 91
f 62 169 168
f 131 130 105
f 137 127 106
f 44 43 146
f 181 191 195
f 184 221 192
f 182 192 191
f 173 78 79
f 77 161 162
f 210 209 158
f 83 84 85
f 54 53 124
f 172 181 180
f 80 81 82
f 53 52 126
f 140 138 141
f 169 188 187
f 164 190 189
f 60 59 164
f 188 216 226
f 105 130 137
f 92 148 41
f 5 4 31
f 266 267 290
f 322 271 272
f 330 272 273
f 363 276 277
f 274 275 355
f 314 270 271
f 298 290 267
f 306 298 268
f 355 275 276
f 403 281 266
f 281 403 395
f 273 274 346
f 258 241 242
f 262 237 238
f 256 243 244
f 250 249 234
f 255 244 245
f 257 242 243
f 260 261 238
f 250 251 248
f 269 270 314
f 279 387 379
f 277 278 379
f 253 254 245
f 258 259 240
f 259 260 239
f 263 264 235
f 253 246 247
f 264 265 234
f 263 236 237
f 251 252 247
f 286 294 295
f 288 287 295
f 288 296 297
f 282 290 291
f 284 283 291
f 284 292 293
f 286 285 293
f 294 293 301
f 294 302 303
f 296 295 303
f 297 296 304
f 291 290 298
f 291 299 300
f 293 292 300
f 299 298 306
f 299 307 308
f 300 308 309
f 302 301 309
f 302 310 311
f 304 303 311
f 305 304 312
f 310 309 317
f 310 318 319
f 311 319 320
f 313 312 320
f 307 306 314
f 307 315 316
f 308 316 317
f 314 322 323
f 315 323 324
f 317 316 324
f 317 325 326
f 318 326 327
f 320 319 327
f 320 328 329
f 327 326 334
f 327 335 336
f 328 336 337
f 323 322 330
f 324 323 331
f 325 324 332
f 325 333 334
f 330 338 339
f 331 339 340
f 332 340 341
f 334 333 341
f 335 334 342
f 335 343 344
f 336 344 345
f 342 350 351
f 344 343 351
f 345 344 352
f 338 346 347
f 340 339 347
f 341 340 348
f 341 349 350
f 347 356 357
f 348 357 358
f 350 349 358
f 351 350 359
f 351 360 361
f 352 361 362
f 346 355 356
f 358 357 365
f 358 366 367
f 360 359 367
f 361 360 368
f 362 361 369
f 356 355 363
f 357 356 364
f 369 377 378
f 364 363 371
f 364 372 373
f 366 365 373
f 367 366 374
f 368 367 375
f 369 368 376
f 375 374 382
f 375 383 384
f 376 384 385
f 378 377 385
f 372 371 379
f 372 380 381
f 374 373 381
f 379 387 388
f 380 388 389
f 382 381 389
f 382 390 391
f 384 383 391
f 385 384 392
f 385 393 394
f 390 398 399
f 392 391 399
f 393 392 400
f 393 401 402
f 387 395 396
f 388 396 397
f 389 397 398
f 396 395 403
f 396 404 405
f 397 405 406
f 398 406 407
f 400 399 407
f 400 408 409
f 402 401 409
f 407 286 287
f 408 287 288
f 409 288 289
f 403 282 283
f 405 404 283
f 405 284 285
f 406 285 286
f 237 414 415
f 239 416 417
f 249 426 411
f 236 235 412
f 242 241 418
f 243 420 421
f 246 245 422
f 244 421 422
f 237 236 413
f 249 248 425
f 243 242 419
f 247 424 425
f 234 411 412
f 246 423 424
f 239 238 415
f 240 417 418
f 280 395 387
