v -0.08558 -0.005767 0.106999
v -0.08558 0.005767 0.106999
v -0.08558 0.005767 0.088
v -0.08558 -0.005767 0.088
v -0.117198 0.045 0.106999
v -0.117198 -0.045 0.106999
v -0.117198 -0.045 0.088
v -0.117198 0.045 0.088
v -0.24 -0.035 0.106999
v -0.24 0.035 0.106999
v -0.24 -0.035 0.088
v -0.24 0.035 0.088
v -0.082997 0.008112 0.088
v -0.243597 0.048696 0.088
v -0.23 -0.045 0.106999
v -0.243597 -0.048689 0.072999
v -0.23 -0.045 0.088
v -0.23 0.045 0.106999
v -0.23 0.045 0.088
v -0.243597 0.048696 0.072999
v -0.082997 0.008112 0.072999
v -0.082997 -0.008105 0.072999
v -0.082997 -0.008105 0.088
v -0.115081 -0.048689 0.072999
v -0.243597 -0.048689 0.088
v -0.115081 0.048696 0.088
v -0.115081 0.048696 0.072999
v -0.115081 -0.048689 0.088
v -0.1039 0.014992 0.106999
v -0.10964 0.01385 0.106999
v -0.114507 0.010598 0.106999
v -0.117758 0.005732 0.106999
v -0.1189 -8e-06 0.106999
v -0.117758 -0.005749 0.106999
v -0.114507 -0.010615 0.106999
v -0.10964 -0.013867 0.106999
v -0.1039 -0.015008 0.106999
v -0.09816 -0.013867 0.106999
v -0.093294 -0.010615 0.106999
v -0.090042 -0.005749 0.106999
v -0.0889 -8e-06 0.106999
v -0.090042 0.005732 0.106999
v -0.093294 0.010598 0.106999
v -0.09816 0.01385 0.106999
v -0.1039 0.014992 0.110013
v -0.10964 0.01385 0.110013
v -0.114507 0.010598 0.110013
v -0.117758 0.005732 0.110013
v -0.1189 -8e-06 0.110013
v -0.117758 -0.005749 0.110013
v -0.114507 -0.010615 0.110013
v -0.10964 -0.013867 0.110013
v -0.1039 -0.015008 0.110013
v -0.09816 -0.013867 0.110013
v -0.093294 -0.010615 0.110013
v -0.090042 -0.005749 0.110013
v -0.0889 -8e-06 0.110013
v -0.090042 0.005732 0.110013
v -0.093294 0.010598 0.110013
v -0.09816 0.01385 0.110013
v -0.1039 0.013151 0.111991
v -0.108936 0.012149 0.111991
v -0.113205 0.009297 0.111991
v -0.116058 0.005027 0.111991
v -0.11706 -8e-06 0.111991
v -0.116058 -0.005044 0.111991
v -0.113205 -0.009314 0.111991
v -0.108936 -0.012166 0.111991
v -0.1039 -0.013168 0.111991
v -0.098864 -0.012166 0.111991
v -0.094595 -0.009314 0.111991
v -0.091742 -0.005044 0.111991
v -0.090741 -8e-06 0.111991
v -0.091742 0.005028 0.111991
v -0.094595 0.009297 0.111991
v -0.098864 0.012149 0.111991
v -0.1039 0.007752 0.111991
v -0.10687 0.007161 0.111991
v -0.109387 0.005479 0.111991
v -0.11107 0.002961 0.111991
v -0.11166 -8e-06 0.111991
v -0.11107 -0.002978 0.111991
v -0.109387 -0.005496 0.111991
v -0.10687 -0.007178 0.111991
v -0.1039 -0.007769 0.111991
v -0.100931 -0.007178 0.111991
v -0.098413 -0.005496 0.111991
v -0.096731 -0.002978 0.111991
v -0.09614 -8e-06 0.111991
v -0.096731 0.002961 0.111991
v -0.098413 0.005479 0.111991
v -0.100931 0.007161 0.111991
v -0.1039 0.002989 0.167498
v -0.105047 0.002761 0.167498
v -0.106019 0.002111 0.167498
v -0.106669 0.001139 0.167498
v -0.106897 -8e-06 0.167498
v -0.106669 -0.001155 0.167498
v -0.106019 -0.002128 0.167498
v -0.105047 -0.002777 0.167498
v -0.1039 -0.003005 0.167498
v -0.102753 -0.002777 0.167498
v -0.101781 -0.002128 0.167498
v -0.101131 -0.001155 0.167498
v -0.100903 -8e-06 0.167498
v -0.101131 0.001139 0.167498
v -0.101781 0.002111 0.167498
v -0.102753 0.002761 0.167498
v -0.1039 0.002989 0.271097
v -0.105047 0.002761 0.271097
v -0.106019 0.002111 0.271097
v -0.106669 0.001139 0.271097
v -0.106897 -8e-06 0.271097
v -0.106669 -0.001155 0.271097
v -0.106019 -0.002128 0.271097
v -0.105047 -0.002777 0.271097
v -0.1039 -0.003005 0.271097
v -0.102753 -0.002777 0.271097
v -0.101781 -0.002128 0.271097
v -0.101131 -0.001155 0.271097
v -0.100903 -8e-06 0.271097
v -0.101131 0.001139 0.271097
v -0.101781 0.002111 0.271097
v -0.102753 0.002761 0.271097
v -0.1039 0.003891 0.271097
v -0.105392 0.003594 0.271097
v -0.106657 0.002749 0.271097
v -0.107503 0.001484 0.271097
v -0.1078 -8e-06 0.271097
v -0.107503 -0.001501 0.271097
v -0.106657 -0.002766 0.271097
v -0.105392 -0.003611 0.271097
v -0.1039 -0.003908 0.271097
v -0.102408 -0.003611 0.271097
v -0.101143 -0.002766 0.271097
v -0.100298 -0.001501 0.271097
v -0.100001 -8e-06 0.271097
v -0.100298 0.001484 0.271097
v -0.101143 0.002749 0.271097
v -0.102408 0.003594 0.271097
v -0.1039 0.003891 0.284477
v -0.105392 0.003594 0.284477
v -0.106657 0.002749 0.284477
v -0.107503 0.001484 0.284477
v -0.1078 -8e-06 0.284477
v -0.107503 -0.001501 0.284477
v -0.106657 -0.002766 0.284477
v -0.105392 -0.003611 0.284477
v -0.1039 -0.003908 0.284477
v -0.102408 -0.003611 0.284477
v -0.101143 -0.002766 0.284477
v -0.100298 -0.001501 0.284477
v -0.100001 -8e-06 0.284477
v -0.100298 0.001484 0.284477
v -0.101143 0.002749 0.284477
v -0.102408 0.003594 0.284477
v -0.1039 -8e-06 0.284477
f 14 27 20
f 5 3 8
f 2 4 3
f 18 12 10
f 25 24 28
f 27 21 24
f 1 7 4
f 9 17 15
f 9 12 11
f 3 23 13
f 15 7 6
f 26 21 27
f 13 22 21
f 18 8 19
f 23 24 22
f 14 16 25
f 12 14 25
f 42 57 41
f 35 50 34
f 43 58 42
f 36 51 35
f 44 59 43
f 37 52 36
f 30 45 29
f 29 60 44
f 38 53 37
f 31 46 30
f 39 54 38
f 32 47 31
f 40 55 39
f 33 48 32
f 41 56 40
f 34 49 33
f 56 73 72
f 50 65 49
f 58 73 57
f 51 66 50
f 59 74 58
f 51 68 67
f 59 76 75
f 53 68 52
f 45 62 61
f 45 76 60
f 53 70 69
f 47 62 46
f 54 71 70
f 47 64 63
f 56 71 55
f 48 65 64
f 63 78 62
f 70 87 86
f 64 79 63
f 72 87 71
f 65 80 64
f 73 88 72
f 65 82 81
f 73 90 89
f 66 83 82
f 75 90 74
f 67 84 83
f 75 92 91
f 69 84 68
f 61 78 77
f 61 92 76
f 70 85 69
f 84 99 83
f 92 107 91
f 85 100 84
f 78 93 77
f 77 108 92
f 86 101 85
f 79 94 78
f 87 102 86
f 80 95 79
f 88 103 87
f 81 96 80
f 89 104 88
f 82 97 81
f 90 105 89
f 83 98 82
f 91 106 90
f 93 124 108
f 102 117 101
f 95 110 94
f 103 118 102
f 96 111 95
f 104 119 103
f 97 112 96
f 105 120 104
f 98 113 97
f 106 121 105
f 99 114 98
f 107 122 106
f 100 115 99
f 108 123 107
f 101 116 100
f 94 109 93
f 122 139 138
f 116 131 115
f 124 139 123
f 117 132 116
f 109 126 125
f 124 125 140
f 118 133 117
f 110 127 126
f 118 135 134
f 112 127 111
f 120 135 119
f 113 128 112
f 121 136 120
f 113 130 129
f 121 138 137
f 114 131 130
f 129 144 128
f 137 152 136
f 130 145 129
f 138 153 137
f 131 146 130
f 139 154 138
f 132 147 131
f 140 155 139
f 133 148 132
f 126 141 125
f 125 156 140
f 134 149 133
f 127 142 126
f 135 150 134
f 128 143 127
f 136 151 135
f 149 150 157
f 142 143 157
f 150 151 157
f 143 144 157
f 151 152 157
f 144 145 157
f 152 153 157
f 145 146 157
f 153 154 157
f 146 147 157
f 154 155 157
f 147 148 157
f 155 156 157
f 148 149 157
f 141 142 157
f 156 141 157
f 30 5 31
f 18 32 31
f 32 18 33
f 9 33 10
f 18 10 33
f 15 34 33
f 5 18 31
f 6 36 35
f 6 39 38
f 1 39 6
f 1 41 40
f 2 41 1
f 2 43 42
f 5 43 2
f 5 29 44
f 5 30 29
f 9 15 33
f 15 6 35
f 6 38 37
f 1 40 39
f 2 42 41
f 5 44 43
f 15 35 34
f 6 37 36
f 14 26 27
f 5 2 3
f 2 1 4
f 18 19 12
f 25 16 24
f 21 22 24
f 24 16 20
f 20 27 24
f 1 6 7
f 9 11 17
f 9 10 12
f 3 4 23
f 15 17 7
f 26 13 21
f 13 23 22
f 18 5 8
f 23 28 24
f 14 20 16
f 23 4 7
f 28 23 7
f 3 13 8
f 13 26 8
f 25 28 17
f 28 7 17
f 8 26 19
f 26 14 19
f 25 17 11
f 12 19 14
f 25 11 12
f 42 58 57
f 35 51 50
f 43 59 58
f 36 52 51
f 44 60 59
f 37 53 52
f 30 46 45
f 29 45 60
f 38 54 53
f 31 47 46
f 39 55 54
f 32 48 47
f 40 56 55
f 33 49 48
f 41 57 56
f 34 50 49
f 56 57 73
f 50 66 65
f 58 74 73
f 51 67 66
f 59 75 74
f 51 52 68
f 59 60 76
f 53 69 68
f 45 46 62
f 45 61 76
f 53 54 70
f 47 63 62
f 54 55 71
f 47 48 64
f 56 72 71
f 48 49 65
f 63 79 78
f 70 71 87
f 64 80 79
f 72 88 87
f 65 81 80
f 73 89 88
f 65 66 82
f 73 74 90
f 66 67 83
f 75 91 90
f 67 68 84
f 75 76 92
f 69 85 84
f 61 62 78
f 61 77 92
f 70 86 85
f 84 100 99
f 92 108 107
f 85 101 100
f 78 94 93
f 77 93 108
f 86 102 101
f 79 95 94
f 87 103 102
f 80 96 95
f 88 104 103
f 81 97 96
f 89 105 104
f 82 98 97
f 90 106 105
f 83 99 98
f 91 107 106
f 93 109 124
f 102 118 117
f 95 111 110
f 103 119 118
f 96 112 111
f 104 120 119
f 97 113 112
f 105 121 120
f 98 114 113
f 106 122 121
f 99 115 114
f 107 123 122
f 100 116 115
f 108 124 123
f 101 117 116
f 94 110 109
f 122 123 139
f 116 132 131
f 124 140 139
f 117 133 132
f 109 110 126
f 124 109 125
f 118 134 133
f 110 111 127
f 118 119 135
f 112 128 127
f 120 136 135
f 113 129 128
f 121 137 136
f 113 114 130
f 121 122 138
f 114 115 131
f 129 145 144
f 137 153 152
f 130 146 145
f 138 154 153
f 131 147 146
f 139 155 154
f 132 148 147
f 140 156 155
f 133 149 148
f 126 142 141
f 125 141 156
f 134 150 149
f 127 143 142
f 135 151 150
f 128 144 143
f 136 152 151
