v -0.00123 -0.088258 -0.015707
v 0.001856 -0.088761 -0.023754
v 0.003545 -0.088781 -0.018393
v 0.002913 -0.088775 -0.022956
v 0.004446 -0.088271 -0.021547
v 0.003852 -0.08877 -0.021318
v 0.004617 -0.088295 -0.019918
v 0.004328 -0.088588 -0.020723
v 0.004156 -0.088709 -0.019675
v 0.00437 -0.088339 -0.018719
v 0.0026 -0.088533 -0.023768
v 0.002371 -0.088779 -0.016933
v 0.003787 -0.088583 -0.022416
v 0.003366 -0.088635 -0.017447
v 0.003825 -0.088201 -0.017486
v -0.001939 -0.088748 -0.016576
v -0.002143 -0.088459 -0.016224
v -0.002068 -0.088079 -0.015929
v 0.00319 -0.088303 -0.016837
v 0.002202 -0.088392 -0.016145
v 0.000535 -0.088777 -0.016158
v 0.003419 -0.088032 -0.023454
v 0.001096 -0.088346 -0.015709
v 0.003946 -0.088093 -0.022731
v -6.4e-05 -0.088301 -0.01553
v -0.000617 -0.088602 -0.015849
v 0.002447 -0.084988 -0.015367
v 0.002921 -0.076902 -0.015455
v -0.004406 -0.075837 -0.017037
v 0.001987 -0.086821 -0.015545
v -0.005019 -0.08245 -0.017518
v 0.002912 -0.07583 -0.015615
v -0.004309 -0.088292 -0.018496
v -0.004719 -0.076901 -0.017254
v -0.005106 -0.08013 -0.017533
v -0.004962 -0.086356 -0.01888
v -0.004907 -0.077437 -0.017461
v -0.005058 -0.078215 -0.017545
v 0.004806 -0.075819 -0.017716
v 0.002048 -0.082954 -0.014917
v 0.002713 -0.077449 -0.015267
v -0.005443 -0.083182 -0.018721
v 0.001656 -0.080533 -0.014642
v -0.005508 -0.080134 -0.018447
v 0.002025 -0.077982 -0.014864
v 0.001193 -0.083002 -0.014648
v 0.001966 -0.075809 -0.015159
v -0.005459 -0.077501 -0.018789
v 0.000793 -0.085947 -0.015015
v -0.005053 -0.086732 -0.020172
v -0.005399 -0.084663 -0.019554
v -0.00572 -0.081352 -0.019646
v 0.000923 -0.077909 -0.014579
v -0.004616 -0.088295 -0.020427
v 0.00108 -0.075823 -0.01488
v -0.005711 -0.079049 -0.019664
v 0.000526 -0.079729 -0.01444
v 5e-05 -0.085313 -0.014847
v -0.005425 -0.08466 -0.020437
v -0.00554 -0.076802 -0.020002
v -0.005654 -0.08264 -0.020336
v 0.000167 -0.076837 -0.014632
v -0.000126 -0.083216 -0.014565
v -0.005715 -0.081279 -0.020394
v -0.00016 -0.082636 -0.01452
v -0.00099 -0.085886 -0.015032
v -0.005006 -0.086279 -0.021363
v -0.000241 -0.081278 -0.014448
v -0.00026 -0.080405 -0.014432
v -0.00574 -0.079367 -0.020443
v -0.005641 -0.081815 -0.021187
v -0.005384 -0.083576 -0.021687
v -0.005627 -0.077689 -0.020307
v -0.002354 -0.075821 -0.015311
v -0.005581 -0.077396 -0.020807
v -0.000211 -0.078951 -0.014469
v -0.001103 -0.082726 -0.014615
v -0.000138 -0.077629 -0.014549
v -0.005401 -0.075821 -0.020198
v -0.000791 -0.076981 -0.014655
v -0.000959 -0.079238 -0.014508
v -0.005264 -0.075811 -0.021325
v -0.005521 -0.080522 -0.02183
v -0.005419 -0.077595 -0.021766
v -0.004745 -0.085596 -0.022524
v -0.001957 -0.084307 -0.015045
v -0.001765 -0.0806 -0.014676
v -0.001896 -0.077872 -0.014838
v -0.003906 -0.08813 -0.022773
v -0.004994 -0.075823 -0.022219
v -0.005234 -0.079371 -0.022546
v -0.005074 -0.082778 -0.022641
v -0.005175 -0.081554 -0.022613
v -0.002707 -0.085867 -0.015692
v -0.001405 -0.075818 -0.01496
v -0.002638 -0.083702 -0.015295
v -0.002429 -0.082581 -0.015051
v -0.005112 -0.078215 -0.022624
v -0.005014 -0.077385 -0.022678
v -0.004628 -0.075815 -0.022951
v -0.002899 -0.083144 -0.015369
v -0.003326 -0.084618 -0.015866
v 0.004635 -0.085768 -0.017689
v -0.003013 -0.082193 -0.015349
v 0.004812 -0.083041 -0.017268
v -0.003049 -0.081277 -0.015332
v 0.004162 -0.084979 -0.016728
v -0.00321 -0.075817 -0.015841
v 0.00447 -0.075812 -0.017153
v -0.003756 -0.081243 -0.01582
v 0.004834 -0.079283 -0.017098
v -0.003971 -0.083478 -0.016225
v 0.004825 -0.078323 -0.017167
v 0.004527 -0.078382 -0.016698
v 0.004175 -0.081672 -0.01623
v 0.003215 -0.086643 -0.01626
v -0.003832 -0.07809 -0.015967
v 0.003946 -0.075818 -0.016481
v -0.004055 -0.086306 -0.017007
v -0.004181 -0.088116 -0.017984
v -0.004673 -0.081906 -0.016879
v 0.003619 -0.083693 -0.015945
v 0.003911 -0.07976 -0.015948
v -0.004689 -0.079868 -0.016824
v 0.003652 -0.077046 -0.015945
v -0.004763 -0.084827 -0.01759
v -0.004672 -0.083072 -0.017051
v 0.003202 -0.082444 -0.015497
v 0.003303 -0.080807 -0.015476
v -0.004752 -0.083742 -0.017317
v 0.003089 -0.083191 -0.015498
v 0.002859 -0.083736 -0.015422
v -0.004672 -0.078246 -0.016922
v 0.003218 -0.075818 -0.024506
v -1.3e-05 -0.075817 -0.014776
v 0.005087 -0.07581 -0.018408
v 0.005349 -0.075842 -0.019288
v 0.005398 -0.075818 -0.020362
v 0.005317 -0.07581 -0.021039
v 0.005093 -0.075822 -0.02199
v 0.004644 -0.075821 -0.022931
v 0.004277 -0.075826 -0.023465
v 0.003834 -0.075819 -0.023974
v 0.002382 -0.07582 -0.02502
v -0.004801 -0.08282 -0.023125
v -0.004838 -0.081479 -0.023237
v -0.004832 -0.079751 -0.023306
v -0.005141 -0.078914 -0.02263
v -0.004857 -0.083727 -0.022853
v 0.004809 -0.077452 -0.017303
v 0.004835 -0.081345 -0.017109
v 0.004841 -0.08024 -0.017075
v 0.000212 -0.08371 -0.014629
v -0.002929 -0.077554 -0.015372
v -0.003158 -0.080429 -0.015342
v -0.003029 -0.07849 -0.015354
v -0.002625 -0.076866 -0.015287
v -0.005736 -0.0804 -0.020424
v -0.005544 -0.083737 -0.020019
v -0.005602 -0.083208 -0.020279
v -0.005061 -0.079057 -0.017516
v 0.002641 -0.079967 -0.015068
v 0.002652 -0.079055 -0.015108
v 0.002654 -0.078348 -0.015145
v 0.002681 -0.082564 -0.01519
v 0.002645 -0.081206 -0.015085
v 0.004668 -0.078201 -0.02344
v -0.002408 -0.085927 -0.024809
v -0.003257 -0.078216 -0.024845
v 0.004396 -0.085809 -0.023024
v 0.004738 -0.083812 -0.02305
v 0.004676 -0.082831 -0.023321
v -0.001491 -0.088188 -0.024607
v -0.002916 -0.076898 -0.024894
v 0.005044 -0.083998 -0.02244
v -0.002683 -0.08255 -0.025157
v -0.002686 -0.07585 -0.024873
v 0.004873 -0.08642 -0.021762
v -0.001306 -0.085936 -0.025234
v -0.002056 -0.08429 -0.025269
v -0.001954 -0.081566 -0.025569
v -0.00271 -0.077441 -0.025084
v -0.002681 -0.078197 -0.025169
v 0.005432 -0.080623 -0.022143
v 0.004744 -0.076876 -0.023046
v -0.002137 -0.077982 -0.025434
v 0.005265 -0.07747 -0.022171
v -0.001363 -0.07977 -0.025771
v -0.000561 -0.086319 -0.02528
v -0.001204 -0.082279 -0.025754
v 0.005477 -0.082727 -0.021616
v 0.000301 -0.088084 -0.024888
v -0.001076 -0.077522 -0.025706
v 0.005097 -0.086499 -0.020335
v 0.005404 -0.084296 -0.021171
v -0.00012 -0.083795 -0.025718
v -0.000487 -0.075815 -0.025555
v 0.005559 -0.077706 -0.021158
v 0.005713 -0.081641 -0.020699
v -0.00046 -0.07864 -0.025852
v 0.005727 -0.079397 -0.020708
v 0.000604 -0.085912 -0.025356
v -0.000373 -0.077746 -0.025793
v 8.5e-05 -0.083212 -0.025774
v 0.000158 -0.082651 -0.025826
v 0.005541 -0.076815 -0.020345
v 0.0056 -0.083195 -0.020099
v 0.001041 -0.083532 -0.025666
v 0.000244 -0.081274 -0.025902
v 0.005126 -0.085896 -0.019118
v 0.005659 -0.082643 -0.020002
v 0.005611 -0.082445 -0.019196
v 0.001369 -0.079874 -0.025792
v 0.005713 -0.081279 -0.01996
v 0.005631 -0.077699 -0.020035
v 0.005717 -0.079486 -0.019957
v 0.001624 -0.086396 -0.025028
v 0.00076 -0.077408 -0.025741
v 0.005615 -0.078376 -0.019112
v 0.004775 -0.086358 -0.0183
v 0.005272 -0.083775 -0.018426
v 0.001802 -0.077518 -0.025513
v 0.001487 -0.082146 -0.025704
v 0.002112 -0.084609 -0.025194
v 0.005494 -0.080162 -0.018412
v 0.002884 -0.086104 -0.0245
v 0.005355 -0.07764 -0.018405
v 0.001755 -0.075819 -0.025271
v 0.004892 -0.083663 -0.017552
v 0.005136 -0.082533 -0.017745
v 0.002419 -0.080681 -0.025384
v 0.00492 -0.076957 -0.017589
v 0.002945 -0.082805 -0.024984
v -0.003891 -0.085715 -0.023728
v -0.004875 -0.076853 -0.02282
v 0.003495 -0.082284 -0.024684
v -0.004475 -0.082188 -0.02372
v 0.003012 -0.081906 -0.025004
v 0.003057 -0.081313 -0.025013
v -0.002932 -0.08818 -0.02382
v -0.004283 -0.077565 -0.023847
v 0.003621 -0.077516 -0.024492
v -0.003969 -0.082345 -0.024266
v 0.003972 -0.084188 -0.023995
v -0.004112 -0.075832 -0.023683
v -0.003127 -0.086361 -0.024236
v 0.004189 -0.081605 -0.024089
v -0.004045 -0.07917 -0.024251
v 0.00411 -0.079179 -0.024185
v -0.003143 -0.083234 -0.024833
v -0.003327 -0.080036 -0.024869
v 0.0047 -0.080258 -0.023499
v -0.002857 -0.083737 -0.024927
v 0.002493 -0.083027 -0.025206
v 0.002452 -0.079269 -0.025334
v 0.002439 -0.082 -0.025324
v 0.002685 -0.083717 -0.025028
v 0.005091 -0.079471 -0.02282
v 0.004961 -0.078003 -0.022878
v 0.005003 -0.082468 -0.022838
v 0.00508 -0.081189 -0.022828
v 0.000233 -0.080367 -0.025906
v -0.000402 -0.082872 -0.025798
v 0.000149 -0.077688 -0.025807
v 0.005747 -0.08041 -0.019904
v 0.005541 -0.083811 -0.020303
v -0.002648 -0.079987 -0.025269
v -0.002655 -0.079051 -0.025239
v -0.00262 -0.081019 -0.025294
v 0.002492 -0.077847 -0.025231
v 0.002455 -0.078646 -0.02531
v 0.004685 -0.081959 -0.023424
v 0.001447 -0.088412 -0.02451
v -0.003733 -0.088786 -0.021663
v -0.002931 -0.088783 -0.017512
v -0.003936 -0.088742 -0.019026
v -0.004518 -0.088419 -0.019597
v -0.004229 -0.088673 -0.020469
v -0.004327 -0.088359 -0.02173
v 0.002324 -0.088274 -0.024172
v -0.00393 -0.088613 -0.018372
v -0.002449 -0.088782 -0.02329
v -0.003233 -0.088559 -0.023204
v -0.001645 -0.088612 -0.024221
v -0.003254 -0.088559 -0.0172
v -3.8e-05 -0.088775 -0.024224
v -0.003271 -0.088116 -0.016775
v -0.000118 -0.088471 -0.024671
v -0.001774 -0.075817 -0.025279
v 0.000887 -0.075819 -0.025504
v -0.00334 -0.075812 -0.024411
v -0.005235 -0.075811 -0.018854
v -0.004908 -0.075825 -0.017885
v -0.003893 -0.075818 -0.016438
v 0.003117 -0.079384 -0.025004
v 0.002899 -0.077456 -0.024975
v 0.002632 -0.076881 -0.02506
v -0.004812 -0.078123 -0.023166
v 0.005153 -0.07867 -0.017737
v 0.005209 -0.079673 -0.017756
v -0.000498 -0.081084 -0.025888
v -0.000189 -0.07696 -0.025726
v -0.000499 -0.0799 -0.02589
v -0.002447 -0.078705 -0.015033
v -0.002419 -0.080087 -0.014957
v -0.003218 -0.082325 -0.024855
v 0.003234 -0.078158 -0.015502
v 0.003274 -0.079225 -0.015477
v 0.00046 -0.075794 -0.015391
v 0.002469 -0.075794 -0.016089
v 0.003889 -0.075794 -0.017382
v -0.002259 -0.075794 -0.01591
v 0.004659 -0.075794 -0.019135
v -0.004217 -0.075794 -0.017871
v 0.004727 -0.075794 -0.020838
v 0.004193 -0.075794 -0.022457
v -0.004808 -0.075794 -0.020576
v 0.002801 -0.075794 -0.024079
v -0.003996 -0.075794 -0.022784
v 0.000186 -0.075794 -0.024996
v -0.002489 -0.075794 -0.024284
v -0.003232 -0.071499 -0.023703
v -0.002 -0.071497 -0.01586
v -0.003377 -0.071504 -0.016816
v -0.001698 -0.071506 -0.024604
v -0.004329 -0.071505 -0.018189
v -0.004756 -0.071502 -0.020247
v 0.001302 -0.071513 -0.024742
v 0.003192 -0.071505 -0.023771
v -0.004346 -0.071501 -0.022139
v -0.004398 -0.071362 -0.020978
v -0.00372 -0.070941 -0.017893
v -0.001599 -0.070685 -0.024662
v -0.004211 -0.070986 -0.021221
v 0.001309 -0.071216 -0.024332
v 0.002403 -0.071124 -0.023796
v -0.003814 -0.071325 -0.01793
v -0.001509 -0.070869 -0.024338
v -0.001657 -0.071215 -0.0242
v -0.004635 -0.070681 -0.021277
v 0.002825 -0.071407 -0.023701
v -0.00448 -0.070679 -0.018509
v -0.004099 -0.070682 -0.022563
v -0.003889 -0.071068 -0.022132
v -0.003597 -0.070936 -0.022666
v -0.000856 -0.071251 -0.024456
v -0.004145 -0.071227 -0.018836
v -0.004334 -0.070862 -0.019228
v -4.9e-05 -0.071061 -0.024544
v -0.000187 -0.070694 -0.024931
v -0.000374 -0.071502 -0.02491
v -0.004732 -0.070682 -0.019872
v -0.003584 -0.0714 -0.022923
v -0.00312 -0.070676 -0.023777
v 0.000272 -0.070756 -0.024712
v -0.004298 -0.071168 -0.019478
v -0.002644 -0.070695 -0.016218
v -0.003512 -0.070682 -0.016971
v 0.000204 -0.071326 -0.024596
v -0.002982 -0.070946 -0.016981
v -0.001909 -0.070944 -0.016237
v 0.001313 -0.070683 -0.024759
v -0.002892 -0.071327 -0.023537
v -0.002953 -0.071325 -0.016865
v -0.001763 -0.071318 -0.016119
v -0.002694 -0.07095 -0.023609
v -0.004354 -0.070943 -0.020397
v 0.002767 -0.07069 -0.024044
v 0.002137 -0.070845 -0.024097
v 0.002083 -0.068808 -0.024529
v -0.004714 -0.068801 -0.021071
v -0.002627 -0.068804 -0.016122
v -0.004151 -0.068806 -0.022609
v -0.002969 -0.068803 -0.023947
v -0.003948 -0.068796 -0.01745
v -0.001787 -0.068798 -0.024648
v -0.004745 -0.068813 -0.019173
v -0.000121 -0.068799 -0.025018
v -0.004277 -0.068163 -0.021633
v -0.004054 -0.068072 -0.018033
v -0.001969 -0.068256 -0.024162
v -0.002502 -0.068582 -0.02392
v -0.003673 -0.068512 -0.017678
v -0.00453 -0.068641 -0.020403
v 0.002463 -0.06853 -0.023873
v 0.001753 -0.068266 -0.024263
v -0.004268 -0.068545 -0.021407
v -0.001653 -0.067991 -0.024739
v -0.001134 -0.068116 -0.024576
v -0.004317 -0.067995 -0.017906
v -0.004036 -0.067982 -0.022894
v -0.000408 -0.067995 -0.025034
v -0.004837 -0.06799 -0.01956
v -0.004274 -0.068584 -0.018878
v -0.003358 -0.068226 -0.023125
v -0.000791 -0.068711 -0.024696
v -0.000656 -0.068414 -0.024558
v -0.003116 -0.068059 -0.023544
v -0.003743 -0.068604 -0.02268
v -0.004506 -0.068104 -0.019518
v 0.000869 -0.067991 -0.024952
v -9.4e-05 -0.068103 -0.02472
v -0.004374 -0.068416 -0.019435
v 0.002351 -0.067989 -0.024458
v 0.000484 -0.068505 -0.024592
v -0.002836 -0.067993 -0.024141
v -0.001947 -0.067988 -0.015716
v -0.003253 -0.067983 -0.016544
v -0.002908 -0.068112 -0.016656
v -0.001734 -0.068111 -0.015979
v -0.002749 -0.068512 -0.016675
v -0.004745 -0.06799 -0.021295
v 0.001161 -0.068098 -0.024585
v -0.001691 -0.068518 -0.016074
v 0.001053 -0.068697 -0.02463
v -0.004414 -0.068318 -0.020404
v 0.003145 -0.068021 -0.023697
v -0.004568 -0.066102 -0.022294
v -0.003561 -0.066101 -0.023735
v 0.002581 -0.066106 -0.024524
v -0.00361 -0.066107 -0.016665
v -0.002322 -0.066089 -0.024627
v -0.001171 -0.066098 -0.025088
v -0.00491 -0.06611 -0.019085
v 0.000568 -0.066096 -0.025192
v -0.005012 -0.066097 -0.020674
v 0.001289 -0.065795 -0.024681
v -0.003137 -0.065801 -0.023643
v -0.004744 -0.065292 -0.02216
v -0.003432 -0.065543 -0.016948
v 0.001949 -0.06555 -0.024449
v -0.002601 -0.065931 -0.024139
v -0.002902 -0.065316 -0.024252
v -0.001994 -0.065568 -0.024445
v -0.004844 -0.065279 -0.018432
v -0.003844 -0.065337 -0.017115
v -0.004152 -0.065291 -0.017138
v -0.004605 -0.065547 -0.021086
v 0.002055 -0.065293 -0.024888
v -0.004673 -0.065836 -0.020686
v -0.004432 -0.065395 -0.022093
v -0.003545 -0.065881 -0.017048
v 0.002114 -0.06536 -0.024551
v -0.002399 -0.065296 -0.024731
v -0.004195 -0.065549 -0.018056
v -0.004437 -0.066094 -0.017868
v -0.001538 -0.065899 -0.024663
v -0.004576 -0.065531 -0.019059
v -0.004352 -0.065795 -0.02187
v -0.004233 -0.065881 -0.018072
v 0.0028 -0.06588 -0.023994
v -0.003833 -0.065287 -0.023618
v -0.001215 -0.065272 -0.025133
v -0.000306 -0.065547 -0.024876
v -0.003902 -0.065801 -0.022758
v -0.00481 -0.065388 -0.019784
v 0.00036 -0.065291 -0.025303
v -0.004633 -0.065881 -0.019239
v -0.003427 -0.065547 -0.02339
v -0.005159 -0.065288 -0.020172
v 5.9e-05 -0.065943 -0.024937
v -0.003097 -0.065297 -0.016078
v -0.002657 -0.06538 -0.016151
v -0.002565 -0.065747 -0.016275
v 0.000801 -0.065381 -0.024922
v -0.002016 -0.065925 -0.015872
v -0.00194 -0.065294 -0.015403
v 9.1e-05 -0.065293 -0.015012
v -0.005381 -0.063391 -0.020181
v -0.001324 -0.063391 -0.014943
v -0.005173 -0.063402 -0.021708
v -0.004681 -0.063392 -0.02284
v -0.002785 -0.063392 -0.015554
v 0.004559 -0.063407 -0.017305
v 0.004093 -0.065292 -0.017072
v 0.003504 -0.063398 -0.016066
v -0.003922 -0.063393 -0.016478
v 0.002989 -0.06529 -0.015983
v -0.004754 -0.063392 -0.017643
v 0.001829 -0.065294 -0.01537
v 0.002133 -0.063393 -0.015224
v -0.005234 -0.063391 -0.018917
v 0.00059 -0.0634 -0.014804
v -0.000262 -0.062764 -0.025245
v 0.000808 -0.062727 -0.025215
v -0.004298 -0.063318 -0.017195
v -0.005013 -0.062993 -0.020231
v -0.003732 -0.063 -0.016837
v -0.000393 -0.063397 -0.025542
v -0.003393 -0.062764 -0.023976
v -0.005082 -0.063313 -0.021346
v -0.003486 -0.062574 -0.024417
v 0.00092 -0.062588 -0.02558
v 0.000613 -0.063084 -0.02518
v -0.002964 -0.063331 -0.024476
v -0.005277 -0.062581 -0.021692
v -0.0032 -0.063095 -0.02406
v -0.005146 -0.062596 -0.018264
v -0.004424 -0.062718 -0.017634
v -0.003372 -0.063388 -0.024375
v -0.002638 -0.062584 -0.025002
v -0.004799 -0.063 -0.021603
v 0.001116 -0.063391 -0.02545
v -0.00235 -0.062718 -0.024702
v -0.005148 -0.062677 -0.021035
v -0.002023 -0.063103 -0.024806
v -0.00458 -0.063096 -0.018057
v 0.001489 -0.063333 -0.025172
v -0.004303 -0.062593 -0.023573
v -0.005095 -0.062623 -0.018836
v 0.002108 -0.062662 -0.02492
v 0.001828 -0.062993 -0.024828
v -0.001342 -0.062586 -0.025498
v -0.005417 -0.062595 -0.019318
v -0.00131 -0.062741 -0.0251
v -0.004369 -0.062742 -0.022783
v 0.002223 -0.062589 -0.025172
v -0.002327 -0.063392 -0.025023
v -0.004835 -0.062812 -0.018665
v 0.002771 -0.063003 -0.024345
v -0.004217 -0.063172 -0.022983
v -0.001306 -0.063316 -0.025186
v 0.002595 -0.063393 -0.024894
v -0.003672 -0.062587 -0.016082
v -0.003633 -0.062663 -0.016436
v -0.002108 -0.062677 -0.015456
v -0.005128 -0.063332 -0.01924
v -0.004106 -0.063405 -0.023652
v -0.002685 -0.062942 -0.015941
v -0.001291 -0.063393 -0.025406
v -0.004989 -0.063096 -0.019493
v -0.00282 -0.06331 -0.015848
v -0.000228 -0.06321 -0.025249
v -0.005464 -0.062595 -0.020602
v -0.004958 -0.058968 -0.023055
v -0.004719 -0.062162 -0.017308
v -0.004914 -0.058169 -0.017186
v -0.004029 -0.058856 -0.024258
v -0.002965 -0.058447 -0.025097
v -0.000123 -0.058175 -0.025929
v -0.00081 -0.05964 -0.025839
v -0.005171 -0.060618 -0.017933
v -0.004941 -0.060618 -0.017466
v -0.005219 -0.0597 -0.017885
v -0.004985 -0.05972 -0.017439
v -0.004685 -0.060618 -0.017038
v -0.004371 -0.060617 -0.016624
v -0.004725 -0.05972 -0.017013
v -0.004425 -0.059708 -0.016597
v 0.000644 -0.060619 -0.025772
v 0.000125 -0.060618 -0.025809
v 0.000683 -0.059717 -0.025839
v 0.000125 -0.05972 -0.025858
v -0.000373 -0.060618 -0.025797
v -0.000374 -0.05972 -0.025848
v -0.00089 -0.060617 -0.025736
v -0.002992 -0.058633 -0.015269
v -0.001852 -0.058837 -0.025596
v -0.003992 -0.058807 -0.016061
v -0.001017 -0.059747 -0.025777
v -0.000123 -0.062162 -0.025699
v -0.005555 -0.058944 -0.018791
v 0.00191 -0.059615 -0.025551
v -0.005735 -0.058876 -0.02002
v 0.002734 -0.05965 -0.025176
v -0.005655 -0.05874 -0.021097
v -0.00548 -0.058768 -0.021855
v -0.004963 -0.061496 -0.022711
v -0.004824 -0.045494 -0.016974
v 0.001514 -0.045494 -0.025759
v -0.003505 -0.045494 -0.015599
v 0.001248 -0.04944 -0.025786
v 0.001277 -0.045994 -0.025781
v 0.000691 -0.049955 -0.025886
v -0.001972 -0.045494 -0.014723
v -2.5e-05 -0.045994 -0.025946
v 1.1e-05 -0.049483 -0.025924
v -0.000636 -0.045494 -0.025911
v -0.004033 -0.046746 -0.024255
v -0.004057 -0.045494 -0.024283
v -0.004736 -0.046785 -0.023362
v -0.005192 -0.045494 -0.022709
v -0.005088 -0.046792 -0.022774
v -0.002531 -0.045494 -0.025365
v -0.003233 -0.052043 -0.024899
v -0.003548 -0.047386 -0.024686
v -0.005473 -0.052037 -0.021849
v -0.005679 -0.045494 -0.021132
v -0.005512 -0.046831 -0.021688
v -0.005703 -0.045494 -0.019182
v 0.002905 -0.071494 -0.016368
v 0.000887 -0.071491 -0.015451
v 0.004383 -0.071505 -0.022024
v 0.004726 -0.071503 -0.020542
v -0.001023 -0.071495 -0.015523
v 0.004599 -0.071506 -0.018958
v 0.004319 -0.070945 -0.019539
v 0.004075 -0.07095 -0.018607
v 0.001208 -0.070777 -0.015838
v 0.003506 -0.070831 -0.022922
v 0.002259 -0.071365 -0.016329
v 0.003393 -0.071103 -0.02293
v 0.004426 -0.071345 -0.019661
v 0.001587 -0.070701 -0.015673
v 0.001669 -0.071045 -0.01615
v 0.00392 -0.071324 -0.022252
v 0.004616 -0.070681 -0.021411
v 0.004372 -0.070681 -0.018275
v 0.004065 -0.070944 -0.021786
v 0.003628 -0.07068 -0.017103
v 0.004049 -0.071325 -0.018405
v 0.001022 -0.07137 -0.015843
v 0.003443 -0.070862 -0.017375
v 0.000103 -0.070691 -0.015417
v 0.000334 -0.071235 -0.015818
v 0.003402 -0.071238 -0.017422
v -0.000439 -0.070862 -0.015759
v 0.004349 -0.07095 -0.020546
v 0.003753 -0.071505 -0.017277
v 0.004357 -0.071326 -0.02096
v -0.001313 -0.070683 -0.01559
v 0.004737 -0.070676 -0.019762
v 0.002776 -0.070678 -0.016327
v -0.000666 -0.071168 -0.015871
v 0.003744 -0.070694 -0.023132
v 0.002385 -0.070938 -0.016514
v 0.004633 -0.06881 -0.018814
v 0.003776 -0.068803 -0.017189
v 0.003535 -0.068802 -0.023427
v 0.002034 -0.068801 -0.015759
v 0.004378 -0.0688 -0.022191
v 0.000345 -0.068801 -0.015397
v 0.004784 -0.068808 -0.02076
v -0.001079 -0.068812 -0.015486
v 0.002805 -0.068642 -0.016608
v 0.0035 -0.068253 -0.022941
v 0.004451 -0.068615 -0.019337
v 0.004404 -0.068112 -0.021387
v 0.004423 -0.068292 -0.019808
v 0.004271 -0.068272 -0.018943
v 0.002064 -0.068097 -0.016083
v 0.002262 -0.068263 -0.016337
v 0.003981 -0.068604 -0.022283
v 0.003268 -0.068605 -0.023249
v 0.001269 -0.067995 -0.015465
v 0.000698 -0.068023 -0.01554
v 0.004547 -0.068047 -0.019148
v 0.004026 -0.068272 -0.022057
v 0.004653 -0.067991 -0.021634
v 0.004064 -0.06797 -0.017494
v 0.004608 -0.067988 -0.018639
v 0.00377 -0.068216 -0.0178
v 0.001368 -0.06858 -0.015934
v 0.000547 -0.068272 -0.015764
v 0.002851 -0.067994 -0.016219
v 0.003843 -0.068605 -0.017842
v -0.000464 -0.067995 -0.015319
v 0.004375 -0.06852 -0.020932
v -0.000229 -0.068591 -0.015667
v 0.003079 -0.06827 -0.016966
v 0.00487 -0.067995 -0.019913
v 0.003 -0.068295 -0.02346
v -0.000551 -0.068064 -0.015602
v -0.000662 -0.068272 -0.015777
v 0.003844 -0.067995 -0.023176
v 0.005013 -0.066103 -0.019691
v 0.0044 -0.066097 -0.017707
v 0.003485 -0.066091 -0.016513
v 0.00195 -0.0661 -0.015527
v 0.004179 -0.066091 -0.023018
v 0.000281 -0.066099 -0.015131
v 0.004903 -0.066095 -0.021395
v -0.001849 -0.066099 -0.015448
v 0.004665 -0.065398 -0.018967
v 0.004005 -0.065379 -0.022872
v -0.001317 -0.065548 -0.015651
v 0.003667 -0.066005 -0.023292
v 0.004624 -0.065738 -0.019444
v 0.004655 -0.066026 -0.018778
v 0.002938 -0.065694 -0.016516
v 0.003532 -0.065692 -0.023246
v 0.002463 -0.065391 -0.016026
v 0.004699 -0.065289 -0.018089
v 0.004206 -0.065386 -0.017835
v 0.004426 -0.065692 -0.018651
v 0.004217 -0.065547 -0.022254
v 0.002633 -0.066008 -0.016127
v 0.000605 -0.065392 -0.015376
v 0.001593 -0.065788 -0.015773
v 0.004869 -0.06529 -0.021854
v 0.004389 -0.065959 -0.022059
v 0.004599 -0.065439 -0.021294
v 0.003497 -0.065395 -0.016879
v 0.003957 -0.065788 -0.017673
v 0.000297 -0.065725 -0.015495
v 0.004709 -0.065873 -0.020748
v 0.005119 -0.065296 -0.020583
v 0.005051 -0.065295 -0.019168
v 0.002986 -0.065297 -0.024349
v 0.003146 -0.065431 -0.02373
v 0.004708 -0.065515 -0.020309
v -0.00034 -0.065972 -0.015385
v -0.001275 -0.065344 -0.015437
v 0.003304 -0.065921 -0.016738
v 0.00409 -0.06529 -0.02329
v 0.005267 -0.063397 -0.019028
v 0.005382 -0.063399 -0.020063
v 0.003563 -0.063394 -0.024214
v 0.004448 -0.063393 -0.02324
v 0.005195 -0.063399 -0.021633
v 0.003281 -0.063325 -0.024234
v 0.005082 -0.06277 -0.019816
v 0.003222 -0.06277 -0.016243
v 0.003906 -0.062857 -0.023382
v 0.002401 -0.062638 -0.015515
v -0.001322 -0.062592 -0.014843
v 5e-05 -0.062583 -0.014717
v -0.000149 -0.063101 -0.015131
v 0.003402 -0.063188 -0.016419
v 0.004896 -0.062602 -0.017649
v 0.004474 -0.062589 -0.023347
v 0.003888 -0.063106 -0.023396
v 0.00502 -0.063188 -0.019572
v 0.004634 -0.062663 -0.022552
v -0.000217 -0.063288 -0.014981
v -0.000724 -0.062823 -0.015139
v 0.004524 -0.063329 -0.022756
v 0.002859 -0.062589 -0.015498
v 0.004765 -0.062636 -0.018006
v 0.00461 -0.062887 -0.018124
v 0.002164 -0.062998 -0.015662
v 0.00454 -0.063 -0.022269
v -0.001724 -0.063193 -0.015423
v 0.005074 -0.062588 -0.02227
v -0.002406 -0.062587 -0.01525
v 0.004853 -0.063226 -0.018652
v 0.001985 -0.063329 -0.015358
v 0.001488 -0.0626 -0.014901
v 0.000844 -0.06272 -0.015135
v 0.00131 -0.063096 -0.015312
v 0.004989 -0.063195 -0.021072
v 0.004213 -0.063143 -0.017374
v 0.003535 -0.062594 -0.024374
v 0.00343 -0.062639 -0.024125
v 0.004946 -0.062812 -0.021268
v 0.005472 -0.062579 -0.020464
v 0.004007 -0.062718 -0.017016
v 0.003741 -0.062595 -0.016172
v 0.005435 -0.062594 -0.019477
v 0.005287 -0.060609 -0.018193
v 0.005317 -0.059702 -0.018117
v 0.004842 -0.062162 -0.01752
v 0.00504 -0.058172 -0.017413
v 0.004524 -0.060598 -0.01679
v 0.004594 -0.059702 -0.016799
v 0.003604 -0.058699 -0.015697
v 0.004817 -0.060618 -0.017249
v 0.004861 -0.05972 -0.017224
v 0.002427 -0.059549 -0.015013
v 0.005059 -0.060618 -0.017684
v 0.0051 -0.05972 -0.017662
v 0.001628 -0.058713 -0.014678
v 0.003477 -0.058791 -0.024729
v 0.004176 -0.058577 -0.024113
v 0.000747 -0.059628 -0.01452
v 0.004853 -0.059103 -0.023208
v -0.000188 -0.059524 -0.014473
v -0.00098 -0.059104 -0.014544
v 0.005414 -0.058688 -0.022075
v 0.005487 -0.060486 -0.021489
v -0.001904 -0.05893 -0.014774
v 0.00574 -0.058608 -0.020464
v 0.005646 -0.05885 -0.019203
v 0.005605 -0.045494 -0.021706
v 0.00555 -0.046747 -0.021626
v -0.002475 -0.052043 -0.015011
v 0.004187 -0.052037 -0.024077
v -0.002133 -0.047383 -0.014837
v -0.001074 -0.046742 -0.014536
v 0.004427 -0.045494 -0.023888
v 0.000231 -0.045494 -0.014405
v 0.004036 -0.046783 -0.024259
v 0.000155 -0.046717 -0.014427
v 0.00326 -0.045494 -0.02493
v 0.001536 -0.046787 -0.014642
v 0.0049 -0.04672 -0.02318
v 0.002755 -0.045494 -0.015034
v 0.001824 -0.047167 -0.014745
v 0.004825 -0.045494 -0.016984
v 0.005714 -0.045494 -0.019206
v 0.005734 -0.047043 -0.020083
v 0.005681 -0.047386 -0.020991
v -0.00276 -0.047214 -0.024997
v -0.002769 -0.051984 -0.025016
v -0.002774 -0.047157 -0.025183
v -0.003009 -0.052226 -0.025064
v -0.002744 -0.052032 -0.025211
v -0.00293 -0.052108 -0.024971
v -0.003363 -0.04747 -0.024765
v -0.004381 -0.047394 -0.023902
v -0.00537 -0.047383 -0.022212
v -0.005393 -0.047535 -0.021995
v -0.005511 -0.05214 -0.021597
v -0.005625 -0.052063 -0.021301
v -0.005436 -0.051994 -0.021367
v -0.005445 -0.047228 -0.021368
v -0.005626 -0.047205 -0.021282
v -0.005456 -0.04698 -0.021526
v -0.004059 -0.046828 -0.024109
v -0.003033 -0.04678 -0.025051
v -0.003045 -0.046872 -0.024904
v 0.005709 -0.052043 -0.020612
v 0.005658 -0.04747 -0.020792
v 0.005456 -0.047382 -0.021971
v 0.004958 -0.047389 -0.023074
v 0.004346 -0.047417 -0.023905
v 0.004043 -0.052128 -0.024193
v 0.003789 -0.052063 -0.024482
v 0.003776 -0.052039 -0.024283
v 0.003757 -0.047228 -0.024293
v 0.003774 -0.047204 -0.024492
v 0.003957 -0.046895 -0.024163
v 0.00551 -0.046827 -0.021435
v 0.005294 -0.046802 -0.022276
v 0.004905 -0.046822 -0.023008
v 0.005686 -0.046829 -0.020519
v 0.00557 -0.04708 -0.020193
v 0.005555 -0.051973 -0.020147
v 0.005728 -0.052042 -0.020061
v 0.00574 -0.052226 -0.020336
v 0.005619 -0.052108 -0.020314
v -0.002641 -0.052106 -0.015208
v -0.002803 -0.052229 -0.015164
v -0.002303 -0.047516 -0.014965
v -0.000195 -0.047383 -0.014428
v 0.001058 -0.047417 -0.014546
v 0.001322 -0.052064 -0.014645
v 0.001305 -0.052249 -0.01458
v 0.001658 -0.052058 -0.014847
v 0.001827 -0.05206 -0.01474
v 0.001688 -0.04724 -0.014883
v 0.001467 -0.046896 -0.014769
v -0.002562 -0.046743 -0.015032
v -0.00248 -0.046855 -0.015171
v -0.001556 -0.046821 -0.01472
v 2e-06 -0.046822 -0.01451
v -0.002786 -0.047141 -0.015351
v -0.002983 -0.047119 -0.015273
v -0.002806 -0.052009 -0.015343
v -0.003026 -0.052003 -0.01529
v -0.003382 -0.045527 -0.023935
v -0.000431 -0.04554 -0.025174
v -0.000382 -0.045494 -0.02448
v 0.001509 -0.045544 -0.024953
v 0.000502 -0.045529 -0.015137
v 0.001798 -0.045529 -0.015484
v -0.001878 -0.045528 -0.024865
v 0.002985 -0.045511 -0.016116
v -0.001032 -0.045524 -0.015224
v 0.003784 -0.045518 -0.01681
v 0.001885 -0.045533 -0.016311
v 0.00227 -0.045571 -0.016518
v -0.002757 -0.045532 -0.015953
v 0.004529 -0.045527 -0.017898
v -0.002676 -0.045536 -0.016809
v 0.005022 -0.045537 -0.019561
v -0.003811 -0.04551 -0.01686
v -0.003009 -0.045568 -0.017098
v -0.004441 -0.045516 -0.01773
v 0.004868 -0.045527 -0.021557
v -0.004906 -0.045527 -0.018895
v 0.004102 -0.045527 -0.023137
v -0.00504 -0.045536 -0.020636
v 0.002686 -0.04553 -0.024477
v -0.004461 -0.045527 -0.022559
v 0.001329 -0.04549 -0.024312
v 0.000632 -0.045994 -0.025541
v 0.000721 -0.049362 -0.025571
v 0.000436 -0.049329 -0.025607
v -0.002546 -0.052054 -0.02443
v -0.002709 -0.048549 -0.024367
v -0.002219 -0.047842 -0.023977
v -0.002829 -0.047142 -0.024311
v -0.004133 -0.047127 -0.023102
v -0.004797 -0.047146 -0.021633
v -0.004809 -0.048548 -0.021502
v -0.004298 -0.047864 -0.021158
v -0.004814 -0.052048 -0.021329
v -0.004889 -0.052053 -0.021007
v -0.004917 -0.046956 -0.021115
v -0.004079 -0.046844 -0.023199
v -0.002379 -0.046949 -0.024579
v 0.004971 -0.052017 -0.02027
v 0.004986 -0.048549 -0.020424
v 0.004403 -0.047842 -0.020196
v 0.004998 -0.047142 -0.020557
v 0.004603 -0.047127 -0.02229
v 0.003663 -0.047146 -0.0236
v 0.003555 -0.048548 -0.023675
v 0.003002 -0.047864 -0.023405
v 0.003459 -0.051975 -0.023768
v 0.003183 -0.051963 -0.024035
v 0.003273 -0.046956 -0.023962
v 0.005004 -0.046949 -0.020033
v 0.004647 -0.046844 -0.022222
v 0.00493 -0.052064 -0.01992
v -0.002716 -0.05206 -0.016021
v -0.002276 -0.048549 -0.015732
v -0.002188 -0.047937 -0.016329
v -0.002171 -0.047147 -0.015668
v -0.000857 -0.047127 -0.015189
v 0.001128 -0.047141 -0.015278
v 0.001255 -0.048548 -0.015346
v 0.001299 -0.047859 -0.015966
v 0.001407 -0.052047 -0.015426
v 0.00175 -0.052054 -0.015525
v 0.001644 -0.046956 -0.015446
v -0.000562 -0.046844 -0.015128
v -0.002622 -0.046943 -0.015911
v -0.003 -0.052091 -0.017114
v 0.001436 -0.045599 -0.024274
v -0.000506 -0.0456 -0.024484
v -0.003728 -0.052061 -0.016933
v -0.004609 -0.052004 -0.018288
v -0.004855 -0.05196 -0.019001
v -0.002256 -0.052002 -0.024619
v -0.000463 -0.052043 -0.025107
v -0.004099 -0.051979 -0.023024
v -0.004411 -0.052046 -0.022439
v -0.004686 -0.05204 -0.021782
v 0.004929 -0.051964 -0.021028
v 0.004519 -0.051979 -0.0223
v 0.004168 -0.052046 -0.022862
v 0.003736 -0.052038 -0.02343
v 0.001534 -0.052023 -0.024909
v 0.004936 -0.05195 -0.019362
v 0.004743 -0.051966 -0.018606
v 0.004416 -0.051976 -0.017848
v 0.004028 -0.051984 -0.017232
v 0.002943 -0.052058 -0.016194
v 0.003428 -0.052049 -0.0166
v 0.004122 -0.052079 -0.017535
v 0.004532 -0.052073 -0.018294
v 0.004725 -0.052075 -0.018839
v -0.001725 -0.051964 -0.015479
v -0.000418 -0.051979 -0.015198
v 0.000197 -0.051967 -0.015183
v 0.000827 -0.05205 -0.015294
v -0.000507 -0.052087 -0.024464
v -0.004683 -0.052079 -0.018745
v -0.004164 -0.052074 -0.017577
v -0.004208 -0.051971 -0.017485
v -0.00492 -0.052054 -0.019681
v -0.004951 -0.05205 -0.020273
v -0.001856 -0.052073 -0.024706
v -0.001193 -0.051986 -0.025022
v -0.001126 -0.052081 -0.024929
v -0.004267 -0.048548 -0.0228
v -0.003232 -0.048546 -0.023978
v -0.004685 -0.048551 -0.021895
v -0.003628 -0.048548 -0.0236
v -0.003137 -0.052072 -0.023956
v -0.003523 -0.052051 -0.023665
v -0.002787 -0.047772 -0.023607
v -0.003356 -0.047764 -0.023069
v -0.004167 -0.047745 -0.021735
v 0.004408 -0.048548 -0.022557
v 0.004911 -0.048546 -0.021072
v 0.003833 -0.048551 -0.023371
v 0.004781 -0.048548 -0.021604
v 0.004844 -0.052072 -0.021001
v 0.004646 -0.052073 -0.021759
v 0.004367 -0.047772 -0.020872
v 0.004185 -0.047764 -0.021633
v 0.003436 -0.047745 -0.023003
v 0.0028 -0.052067 -0.024218
v 0.002335 -0.052051 -0.024542
v 0.003211 -0.052092 -0.023835
v -0.00014 -0.048548 -0.015166
v -0.001677 -0.048546 -0.015472
v 0.000852 -0.048551 -0.015256
v -0.001152 -0.048548 -0.015319
v -0.002406 -0.052054 -0.015851
v -0.001158 -0.052078 -0.015404
v -0.002183 -0.047698 -0.016278
v -0.000788 -0.047839 -0.015844
v -9.9e-05 -0.047767 -0.015747
v -0.002652 -0.052094 -0.01678
v 0.00185 -0.052094 -0.016284
v -0.003664 -0.052109 -0.022318
v -0.002855 -0.052135 -0.023202
v -0.003629 -0.052144 -0.018149
v -0.004202 -0.052115 -0.020342
v -0.004086 -0.052135 -0.020942
v -0.002466 -0.052154 -0.016845
v -0.001277 -0.052129 -0.016214
v -0.000551 -0.052199 -0.016088
v 0.001526 -0.052139 -0.016306
v 0.00028 -0.052141 -0.016021
v 0.002152 -0.052189 -0.016652
v 0.002636 -0.052201 -0.016994
v -0.003078 -0.052204 -0.017426
v 0.003033 -0.052113 -0.017249
v 0.003287 -0.052228 -0.017697
v -0.001989 -0.052129 -0.016514
v 0.00354 -0.052114 -0.017895
v 0.002265 -0.05209 -0.016523
v 0.00372 -0.052213 -0.018397
v 0.003873 -0.052116 -0.018526
v 0.004051 -0.052131 -0.019252
v -0.004091 -0.052201 -0.019661
v -0.003848 -0.052189 -0.018675
v -0.00417 -0.052112 -0.019534
v -0.004124 -0.052184 -0.020469
v 0.003233 -0.054796 -0.017698
v 0.002453 -0.054728 -0.023453
v 0.002228 -0.052132 -0.023679
v 0.000644 -0.054725 -0.016126
v 0.003196 -0.054745 -0.022726
v -0.000387 -0.05473 -0.016102
v 0.003815 -0.052144 -0.021821
v 0.003922 -0.054736 -0.021351
v -0.001383 -0.054727 -0.016316
v -0.002406 -0.054723 -0.016857
v 0.004155 -0.052147 -0.020067
v 0.003838 -0.054832 -0.02125
v 0.004038 -0.054785 -0.020534
v -0.003833 -0.054796 -0.021485
v -0.001485 -0.054828 -0.023891
v -0.00139 -0.054724 -0.024039
v -0.00324 -0.054797 -0.022638
v 0.004043 -0.054799 -0.020062
v 0.004002 -0.054798 -0.019528
v -0.00022 -0.054825 -0.024187
v -0.000151 -0.05473 -0.024264
v 0.000873 -0.054793 -0.024144
v 0.001735 -0.054782 -0.023851
v 0.002609 -0.054832 -0.023207
v 0.003535 -0.054804 -0.022135
v -0.002477 -0.05481 -0.023372
v -0.003998 -0.054799 -0.020827
v -0.003866 -0.047942 -0.022369
v -0.002942 -0.047983 -0.023531
v 0.003834 -0.047942 -0.022425
v 0.004378 -0.047983 -0.021044
v 0.001429 -0.052093 -0.02426
v 0.002835 -0.052138 -0.023224
v 0.000373 -0.047953 -0.015738
v -0.001455 -0.047875 -0.016009
v 0.000749 -0.052097 -0.024363
v 0.000656 -0.052205 -0.024244
v -1.4e-05 -0.052146 -0.024325
v -0.001553 -0.052131 -0.024028
v -0.002178 -0.052171 -0.023685
v -0.0033 -0.052201 -0.022651
v 0.004056 -0.052138 -0.021099
v 0.001438 -0.052158 -0.024069
v 0.003452 -0.052144 -0.022489
v -0.00056 -0.052172 -0.02428
v -0.003798 -0.05219 -0.021811
v 0.000704 -0.047765 -0.015802
v -0.003096 -0.05472 -0.017496
v -0.003682 -0.054758 -0.018402
v -0.004086 -0.054751 -0.020143
v -0.003916 -0.054794 -0.019094
v -0.004001 -0.054823 -0.019934
v 0.003835 -0.054794 -0.018863
v 0.001586 -0.054801 -0.016442
v 0.00022 -0.054826 -0.016162
v -0.001399 -0.054828 -0.016407
v -0.002502 -0.054828 -0.017054
v -0.003199 -0.054828 -0.017767
v 0.002457 -0.054808 -0.016959
v -0.000194 -0.054844 -0.022886
v -0.001509 -0.054844 -0.021785
v -0.000438 -0.054844 -0.02114
v -0.001296 -0.054844 -0.021218
v -0.000679 -0.054844 -0.01929
v -0.000565 -0.054844 -0.018382
v -0.00111 -0.054844 -0.020272
v -0.002092 -0.054844 -0.021616
v 0.00231 -0.054844 -0.020794
v 0.002131 -0.054844 -0.021374
v -0.001878 -0.054844 -0.021049
v -0.000498 -0.054844 -0.017775
v 0.001539 -0.054844 -0.021244
v -0.002255 -0.054844 -0.018646
v 0.002446 -0.054844 -0.018987
v -0.002635 -0.054844 -0.019562
v 0.000788 -0.054844 -0.022767
v 0.001853 -0.054844 -0.018197
v 0.001055 -0.054844 -0.020071
v 0.001718 -0.054844 -0.020663
v 0.00064 -0.054844 -0.021087
v 0.000106 -0.054844 -0.017791
v 3.9e-05 -0.054844 -0.018399
v 0.000438 -0.054844 -0.019192
v 0.000501 -0.055644 -0.019154
v -0.000418 -0.050759 -0.017746
v -0.000614 -0.050709 -0.018064
v -0.000433 -0.050783 -0.018429
v -4.1e-05 -0.050759 -0.018428
v -0.000123 -0.050495 -0.018131
v -0.000383 -0.050514 -0.018046
v -0.0003 -0.050577 -0.018351
v -0.001933 -0.050731 -0.021116
v -0.002054 -0.050698 -0.021348
v -0.002017 -0.050658 -0.021574
v -0.001809 -0.050758 -0.021791
v -0.001454 -0.050731 -0.021719
v -0.001514 -0.050525 -0.021319
v -0.001666 -0.050533 -0.021613
v -0.00131 -0.050705 -0.021402
v 0.001604 -0.050754 -0.020805
v 0.001558 -0.050696 -0.021014
v 0.001632 -0.050754 -0.021272
v 0.001917 -0.050721 -0.021401
v 0.002245 -0.050754 -0.021233
v 0.002291 -0.050696 -0.021023
v 0.002216 -0.050754 -0.020765
v 0.001931 -0.050721 -0.020636
v 0.001802 -0.05049 -0.020933
v -0.001158 -0.055644 -0.020238
v -0.002638 -0.055644 -0.019559
v -0.000461 -0.055644 -0.02108
v -0.000196 -0.055644 -0.022892
v 0.000787 -0.055644 -0.022763
v 0.000638 -0.055644 -0.021021
v 0.001105 -0.055644 -0.020028
v 0.002442 -0.055644 -0.019
v 0.001863 -0.055644 -0.018193
v -0.000617 -0.055644 -0.019312
v -0.002251 -0.055644 -0.01865
v 0.000154 -0.050709 -0.01811
v -5.8e-05 -0.05072 -0.017741
v -0.001578 -0.050758 -0.021043
v 0.000534 -0.055644 -0.020449
v -0.000169 -0.055594 -0.020418
v -0.000208 -0.055615 -0.020142
v -0.000514 -0.055607 -0.019889
v 0.000421 -0.055594 -0.019424
v 0.000182 -0.05561 -0.01945
v -0.000422 -0.055569 -0.020724
v 0.000209 -0.055644 -0.020026
v -0.000163 -0.050517 -0.017917
v -0.001765 -0.050493 -0.021307
v 0.002044 -0.05049 -0.021103
v 0.000427 -0.055444 -0.020208
v 0.000535 -0.055444 -0.020458
v 0.000171 -0.055444 -0.019894
v -0.000236 -0.055444 -0.02022
f 18 17 1
f 13 8 6
f 5 8 13
f 5 7 8
f 10 9 7
f 14 3 9
f 10 14 9
f 8 7 9
f 15 14 10
f 14 12 3
f 19 14 15
f 20 12 14
f 19 20 14
f 4 2 11
f 9 6 8
f 22 11 280
f 21 12 20
f 13 4 11
f 23 21 20
f 22 13 11
f 24 13 22
f 25 21 23
f 13 6 4
f 25 26 21
f 5 13 24
f 16 21 26
f 1 26 25
f 9 3 6
f 17 16 26
f 17 26 1
f 125 28 307
f 165 27 132
f 28 125 32
f 31 42 126
f 166 40 165
f 120 36 33
f 120 126 36
f 29 37 34
f 293 37 29
f 165 40 27
f 161 38 35
f 28 32 41
f 35 44 31
f 126 42 36
f 20 30 23
f 35 38 44
f 166 162 43
f 166 43 40
f 37 293 38
f 41 45 164
f 163 45 162
f 31 44 42
f 32 45 41
f 164 45 163
f 33 36 277
f 27 49 30
f 27 40 46
f 47 45 32
f 162 45 43
f 27 46 49
f 30 49 23
f 42 51 36
f 40 43 46
f 36 50 277
f 38 48 44
f 38 293 48
f 44 52 42
f 23 49 25
f 45 53 43
f 277 50 54
f 36 51 50
f 292 48 293
f 47 55 45
f 44 48 56
f 44 56 52
f 159 42 52
f 51 42 159
f 45 55 53
f 153 46 57
f 49 58 25
f 53 57 43
f 43 57 46
f 49 153 58
f 46 153 49
f 292 60 48
f 79 60 292
f 159 59 51
f 51 59 50
f 48 60 56
f 159 160 59
f 160 61 59
f 135 53 55
f 58 66 25
f 53 62 57
f 153 63 58
f 62 53 135
f 59 67 50
f 58 63 66
f 50 67 54
f 54 67 279
f 65 77 63
f 64 71 61
f 61 71 59
f 59 71 72
f 59 72 67
f 73 75 70
f 60 75 73
f 158 71 64
f 158 70 71
f 25 66 1
f 63 77 66
f 135 80 62
f 62 80 78
f 65 68 77
f 79 75 60
f 76 78 81
f 76 81 69
f 69 81 68
f 82 75 79
f 78 80 81
f 68 81 77
f 82 84 75
f 70 83 71
f 66 18 1
f 95 80 135
f 70 84 83
f 67 85 279
f 75 84 70
f 71 83 72
f 81 87 77
f 67 72 85
f 66 77 86
f 77 87 86
f 66 86 18
f 81 88 87
f 279 85 89
f 81 80 88
f 84 91 83
f 95 88 80
f 90 84 82
f 72 93 92
f 83 93 72
f 86 94 18
f 86 97 96
f 87 97 86
f 72 92 85
f 85 92 149
f 87 305 97
f 83 91 93
f 90 99 84
f 148 84 98
f 91 84 148
f 84 99 98
f 235 99 100
f 100 99 90
f 96 94 86
f 87 88 305
f 305 88 304
f 95 74 88
f 88 157 304
f 96 101 94
f 88 74 157
f 18 94 287
f 101 102 94
f 229 105 103
f 105 107 103
f 103 107 15
f 106 110 104
f 155 110 106
f 101 112 102
f 101 104 112
f 94 102 287
f 74 154 157
f 108 154 74
f 39 109 232
f 232 109 150
f 104 110 112
f 151 115 105
f 150 114 113
f 151 152 115
f 150 109 114
f 111 114 152
f 105 115 107
f 111 113 114
f 15 116 19
f 15 107 116
f 102 119 287
f 156 154 117
f 102 112 119
f 152 114 115
f 108 117 154
f 156 117 155
f 155 117 110
f 109 118 114
f 115 122 107
f 114 123 115
f 287 119 120
f 294 117 108
f 19 116 20
f 110 121 112
f 118 125 114
f 110 124 121
f 117 124 110
f 114 125 123
f 112 126 119
f 107 122 116
f 115 128 122
f 112 127 126
f 130 126 127
f 294 133 117
f 122 27 116
f 112 121 127
f 116 30 20
f 117 133 124
f 116 27 30
f 125 307 123
f 115 129 128
f 122 128 131
f 29 133 294
f 123 129 115
f 122 131 27
f 27 131 132
f 32 125 118
f 119 126 120
f 123 308 129
f 123 307 308
f 29 34 133
f 130 31 126
f 32 118 47
f 137 138 136
f 142 143 141
f 111 152 113
f 163 162 164
f 253 168 250
f 249 167 252
f 143 142 167
f 176 180 253
f 171 175 170
f 253 180 168
f 291 177 169
f 169 177 174
f 24 178 5
f 24 170 178
f 168 179 173
f 176 181 180
f 260 175 171
f 142 141 167
f 167 141 185
f 269 181 176
f 170 175 178
f 260 184 175
f 174 177 182
f 182 186 183
f 261 184 260
f 267 268 269
f 258 184 261
f 168 180 179
f 183 186 268
f 268 186 269
f 177 186 182
f 289 186 177
f 259 185 187
f 259 187 258
f 181 190 180
f 140 187 141
f 141 187 185
f 258 187 184
f 175 195 178
f 269 186 188
f 179 189 173
f 175 184 191
f 180 190 179
f 269 188 181
f 175 191 195
f 173 189 192
f 289 193 186
f 178 194 5
f 186 193 188
f 181 188 190
f 184 199 191
f 191 199 195
f 190 263 179
f 178 195 194
f 179 263 196
f 187 198 184
f 184 201 199
f 179 196 189
f 5 194 7
f 184 198 201
f 301 190 303
f 140 198 187
f 190 188 303
f 190 301 263
f 289 197 193
f 195 266 194
f 188 200 303
f 188 193 200
f 189 202 192
f 199 266 195
f 140 139 198
f 189 196 202
f 200 193 203
f 193 302 203
f 197 302 193
f 205 196 204
f 139 206 198
f 201 198 206
f 196 205 208
f 139 138 206
f 196 208 202
f 194 210 7
f 211 266 207
f 264 302 197
f 194 266 210
f 205 223 208
f 211 212 266
f 262 213 209
f 205 209 223
f 266 212 210
f 264 213 262
f 197 218 264
f 214 265 211
f 7 210 10
f 216 219 265
f 215 219 216
f 206 137 215
f 138 137 206
f 197 290 218
f 202 217 192
f 192 217 273
f 211 265 212
f 215 137 219
f 264 218 213
f 209 213 223
f 202 208 217
f 210 220 10
f 265 219 212
f 208 224 217
f 212 221 210
f 218 222 213
f 208 223 224
f 219 225 212
f 218 290 222
f 210 221 220
f 212 230 221
f 273 226 280
f 217 226 273
f 217 224 226
f 219 227 225
f 212 225 230
f 228 222 290
f 10 103 15
f 220 103 10
f 224 223 254
f 221 103 220
f 257 224 254
f 136 227 137
f 137 227 219
f 221 229 103
f 221 230 229
f 256 254 223
f 213 231 223
f 223 231 256
f 85 149 145
f 213 255 231
f 144 222 228
f 136 232 227
f 213 271 255
f 225 300 230
f 85 234 89
f 222 271 213
f 257 226 224
f 39 232 136
f 225 299 300
f 233 226 257
f 227 299 225
f 222 270 271
f 227 232 299
f 146 237 145
f 270 222 297
f 85 145 234
f 144 297 222
f 280 226 22
f 233 236 226
f 145 237 234
f 238 236 233
f 238 239 236
f 147 237 146
f 297 144 296
f 89 234 240
f 298 241 147
f 298 235 241
f 239 295 236
f 134 296 144
f 296 242 295
f 100 241 235
f 237 243 234
f 226 236 244
f 147 241 248
f 134 242 296
f 100 245 241
f 234 246 240
f 226 244 22
f 236 247 244
f 237 248 243
f 147 248 237
f 295 242 249
f 295 249 236
f 236 249 247
f 243 250 234
f 244 170 22
f 134 143 242
f 234 250 246
f 22 170 24
f 249 252 247
f 248 251 243
f 245 291 241
f 244 171 170
f 242 167 249
f 243 251 306
f 243 306 250
f 291 169 241
f 246 168 240
f 244 172 171
f 246 250 168
f 241 169 248
f 244 272 172
f 247 272 244
f 143 167 242
f 240 168 173
f 248 169 251
f 247 252 272
f 269 176 267
f 297 257 270
f 257 254 270
f 270 256 271
f 254 256 270
f 271 256 255
f 255 256 231
f 259 260 185
f 171 172 185
f 185 172 167
f 172 272 167
f 272 252 167
f 260 171 185
f 281 277 276
f 33 277 281
f 280 11 273
f 279 278 54
f 279 274 278
f 279 283 274
f 277 54 278
f 2 273 11
f 89 283 279
f 283 282 274
f 278 276 277
f 240 283 89
f 284 282 283
f 278 274 276
f 285 275 16
f 285 16 17
f 287 285 17
f 284 286 282
f 240 284 283
f 287 17 18
f 173 284 240
f 281 276 275
f 288 286 284
f 281 275 285
f 120 285 287
f 120 281 285
f 173 288 284
f 192 288 173
f 33 281 120
f 276 274 275
f 273 286 288
f 273 2 286
f 273 288 192
f 291 289 177
f 245 100 291
f 90 82 100
f 29 294 293
f 91 148 93
f 203 263 200
f 200 263 303
f 303 263 301
f 121 124 127
f 274 282 6
f 275 3 12
f 275 12 21
f 274 6 3
f 282 286 4
f 282 4 6
f 274 3 275
f 286 2 4
f 275 21 16
f 309 55 47
f 310 309 47
f 309 135 55
f 310 47 118
f 309 95 135
f 311 118 109
f 311 310 118
f 312 95 309
f 312 74 95
f 311 109 39
f 312 108 74
f 313 311 39
f 313 39 136
f 312 294 108
f 138 313 136
f 314 294 312
f 314 293 294
f 315 313 138
f 139 315 138
f 314 292 293
f 316 315 139
f 140 316 139
f 317 292 314
f 141 316 140
f 79 292 317
f 143 318 316
f 143 316 141
f 82 79 317
f 134 318 143
f 100 82 317
f 100 317 319
f 144 318 134
f 144 320 318
f 228 320 144
f 290 320 228
f 291 100 319
f 291 319 321
f 197 320 290
f 289 291 321
f 197 321 320
f 197 289 321
f 321 319 322
f 312 323 324
f 321 322 325
f 314 312 324
f 314 324 326
f 320 325 351
f 320 321 325
f 317 314 326
f 317 326 327
f 320 351 328
f 318 320 328
f 318 328 329
f 317 327 330
f 319 317 330
f 319 330 322
f 342 332 358
f 360 337 364
f 332 337 360
f 341 335 336
f 363 339 325
f 341 328 335
f 337 326 364
f 353 325 322
f 340 345 334
f 338 346 339
f 345 344 334
f 342 348 332
f 347 337 332
f 343 345 340
f 349 346 338
f 332 348 347
f 339 351 325
f 333 355 338
f 331 330 327
f 352 348 342
f 355 349 338
f 334 353 331
f 339 346 351
f 353 330 331
f 344 353 334
f 347 326 337
f 350 355 333
f 341 329 328
f 348 356 347
f 357 358 621
f 349 359 346
f 621 360 361
f 358 360 621
f 347 327 326
f 362 355 350
f 359 351 346
f 345 363 344
f 361 364 365
f 343 366 345
f 353 322 330
f 352 367 348
f 344 363 353
f 364 324 365
f 354 366 343
f 366 363 345
f 360 364 361
f 349 335 359
f 348 367 356
f 356 327 347
f 355 335 349
f 367 331 356
f 333 366 354
f 359 328 351
f 356 331 327
f 362 369 355
f 340 334 352
f 352 334 367
f 355 369 335
f 333 338 366
f 335 328 359
f 358 332 360
f 338 339 366
f 334 331 367
f 364 326 324
f 363 325 353
f 366 339 363
f 336 335 369
f 370 362 378
f 371 340 377
f 377 340 352
f 368 362 370
f 373 340 371
f 373 343 340
f 373 354 343
f 374 354 373
f 372 358 357
f 375 358 372
f 376 333 374
f 374 333 354
f 375 342 358
f 377 342 375
f 378 333 376
f 378 350 333
f 378 362 350
f 377 352 342
f 387 384 416
f 385 415 386
f 388 389 406
f 385 370 415
f 383 375 411
f 390 393 380
f 387 371 384
f 380 394 383
f 381 396 382
f 389 397 381
f 391 395 379
f 382 396 374
f 379 399 387
f 393 400 380
f 388 402 389
f 396 376 374
f 397 396 381
f 398 395 391
f 392 401 388
f 401 402 388
f 399 373 387
f 380 403 394
f 400 403 380
f 387 373 371
f 383 394 375
f 402 405 389
f 389 405 397
f 406 398 391
f 376 396 378
f 395 399 379
f 408 409 410
f 394 377 375
f 409 411 414
f 401 413 402
f 412 400 393
f 397 405 396
f 411 372 414
f 405 415 396
f 413 405 402
f 415 378 396
f 403 384 394
f 395 382 399
f 412 379 400
f 400 416 403
f 384 377 394
f 379 416 400
f 399 374 373
f 382 374 399
f 416 384 403
f 404 413 401
f 406 389 398
f 384 371 377
f 398 381 395
f 411 375 372
f 389 381 398
f 409 383 411
f 413 386 405
f 378 415 370
f 408 380 409
f 381 382 395
f 412 391 379
f 379 387 416
f 386 415 405
f 417 413 404
f 390 380 408
f 417 386 413
f 380 383 409
f 418 412 426
f 418 391 412
f 419 391 418
f 419 406 391
f 421 408 673
f 673 408 407
f 422 406 419
f 423 388 422
f 422 388 406
f 421 390 408
f 446 390 421
f 423 392 388
f 424 390 446
f 425 392 423
f 424 393 390
f 425 401 392
f 426 393 424
f 420 404 425
f 425 404 401
f 426 412 393
f 431 427 465
f 428 432 419
f 435 436 437
f 434 432 428
f 432 422 419
f 444 453 433
f 436 445 430
f 442 446 421
f 427 420 461
f 434 447 432
f 461 420 425
f 435 448 436
f 441 449 438
f 430 450 442
f 445 450 430
f 451 427 431
f 448 445 436
f 451 420 427
f 438 449 440
f 442 450 446
f 440 418 426
f 453 434 433
f 452 441 429
f 449 418 440
f 447 422 432
f 453 454 434
f 435 456 448
f 441 455 449
f 454 447 434
f 450 424 446
f 452 433 441
f 445 458 450
f 448 458 445
f 455 418 449
f 433 459 441
f 460 456 435
f 447 423 422
f 450 458 424
f 454 461 447
f 441 459 455
f 455 419 418
f 461 425 447
f 457 465 453
f 425 423 447
f 465 454 453
f 463 430 464
f 462 437 467
f 459 428 455
f 437 436 467
f 467 436 463
f 444 433 452
f 456 440 448
f 436 430 463
f 458 426 424
f 464 421 466
f 465 427 454
f 448 440 458
f 466 421 673
f 428 419 455
f 433 434 459
f 429 441 460
f 460 441 456
f 430 442 464
f 454 427 461
f 458 440 426
f 434 428 459
f 441 438 456
f 442 421 464
f 457 443 465
f 439 443 457
f 456 438 440
f 443 431 465
f 477 437 462
f 489 453 530
f 489 457 453
f 503 439 457
f 471 429 460
f 470 468 483
f 471 460 469
f 468 470 467
f 470 473 467
f 471 472 429
f 467 473 462
f 683 474 475
f 473 477 462
f 474 476 475
f 479 437 477
f 437 479 435
f 476 481 478
f 478 481 480
f 482 435 479
f 481 483 480
f 480 483 468
f 482 460 435
f 469 460 482
f 531 491 527
f 487 491 531
f 485 494 484
f 493 485 513
f 498 499 525
f 495 500 521
f 527 491 469
f 525 499 488
f 505 502 487
f 501 504 492
f 490 506 497
f 492 504 490
f 486 479 477
f 499 507 488
f 469 491 471
f 494 508 533
f 507 486 488
f 489 508 503
f 533 508 489
f 502 491 487
f 509 505 496
f 504 506 490
f 493 511 485
f 517 511 493
f 498 510 499
f 506 495 497
f 511 512 485
f 510 519 499
f 514 510 498
f 501 515 504
f 485 512 494
f 509 516 505
f 500 495 518
f 519 507 499
f 512 508 494
f 505 516 502
f 520 512 511
f 501 513 515
f 515 506 504
f 516 521 502
f 479 486 482
f 471 491 472
f 520 508 512
f 711 508 520
f 506 522 495
f 735 525 526
f 523 508 711
f 524 525 735
f 503 508 523
f 507 527 486
f 502 528 491
f 521 528 502
f 525 529 526
f 509 492 516
f 518 522 530
f 495 522 518
f 519 531 507
f 486 527 482
f 510 487 519
f 531 527 507
f 515 533 506
f 492 490 516
f 487 531 519
f 513 484 515
f 491 528 472
f 533 522 506
f 514 496 510
f 534 496 514
f 505 487 510
f 525 488 529
f 484 533 515
f 473 532 477
f 522 489 530
f 496 505 510
f 482 527 469
f 529 488 532
f 488 486 532
f 533 489 522
f 532 486 477
f 484 494 533
f 490 497 516
f 516 497 521
f 513 485 484
f 498 525 524
f 521 500 528
f 497 495 521
f 496 568 509
f 536 498 524
f 568 535 509
f 535 538 509
f 509 538 492
f 561 493 513
f 538 539 492
f 539 501 492
f 542 543 544
f 544 543 545
f 536 542 498
f 546 547 548
f 549 548 547
f 550 551 552
f 552 551 553
f 561 550 493
f 560 555 556
f 556 555 554
f 735 557 524
f 539 558 501
f 501 558 513
f 557 559 524
f 558 560 513
f 513 560 556
f 541 560 558
f 559 549 524
f 556 561 513
f 524 549 547
f 537 549 559
f 547 536 524
f 550 552 493
f 542 544 498
f 552 563 493
f 544 562 498
f 493 563 517
f 498 562 514
f 562 564 514
f 563 565 517
f 514 564 534
f 564 566 534
f 534 566 496
f 566 567 496
f 496 567 568
f 567 535 568
f 569 537 559
f 570 784 565
f 570 565 563
f 571 559 557
f 571 569 559
f 850 571 557
f 570 552 572
f 570 563 552
f 573 570 572
f 833 850 557
f 574 572 552
f 571 850 848
f 574 552 540
f 575 571 848
f 577 574 540
f 573 576 570
f 810 579 580
f 579 581 580
f 581 583 582
f 583 589 582
f 801 800 535
f 800 586 538
f 577 540 541
f 578 570 576
f 578 576 577
f 578 577 541
f 578 541 558
f 584 578 558
f 584 558 539
f 797 584 539
f 796 797 539
f 795 584 797
f 810 584 795
f 585 796 539
f 586 539 538
f 586 585 539
f 580 584 810
f 800 538 535
f 582 580 581
f 587 535 567
f 801 535 587
f 803 587 567
f 804 803 567
f 804 567 566
f 588 582 589
f 588 589 807
f 588 566 564
f 588 804 566
f 588 807 804
f 590 588 564
f 590 564 562
f 590 562 544
f 569 590 544
f 569 544 537
f 295 239 296
f 239 238 296
f 238 233 296
f 233 257 296
f 296 257 297
f 147 146 298
f 146 145 298
f 298 145 235
f 235 92 99
f 149 92 235
f 99 92 98
f 98 92 148
f 92 93 148
f 145 149 235
f 152 151 113
f 113 151 150
f 151 105 150
f 150 105 232
f 232 230 299
f 229 230 232
f 299 230 300
f 105 229 232
f 258 261 259
f 261 260 259
f 262 205 264
f 209 205 262
f 196 263 302
f 302 263 203
f 205 204 264
f 264 196 302
f 204 196 264
f 69 68 76
f 68 65 76
f 76 65 78
f 65 63 78
f 62 153 57
f 78 153 62
f 63 153 78
f 155 106 156
f 156 104 154
f 106 104 156
f 104 101 154
f 154 96 157
f 157 97 304
f 96 97 157
f 101 96 154
f 97 305 304
f 265 214 216
f 216 211 215
f 214 211 216
f 266 199 206
f 211 207 215
f 206 199 201
f 215 266 206
f 207 266 215
f 267 176 268
f 268 176 183
f 183 176 182
f 253 250 174
f 174 306 169
f 250 306 174
f 182 253 174
f 169 306 251
f 176 253 182
f 158 64 70
f 70 61 73
f 64 61 70
f 159 52 60
f 61 160 73
f 60 52 56
f 73 160 60
f 160 159 60
f 35 31 161
f 161 31 38
f 38 31 37
f 130 127 34
f 34 127 133
f 37 130 34
f 133 127 124
f 31 130 37
f 162 166 164
f 166 165 164
f 164 165 41
f 132 131 28
f 28 128 307
f 131 128 28
f 307 128 308
f 41 132 28
f 128 129 308
f 165 132 41
f 311 619 591
f 310 311 591
f 310 591 592
f 316 318 329
f 309 310 592
f 316 329 593
f 315 316 593
f 315 593 594
f 309 592 595
f 312 309 595
f 313 594 596
f 313 315 594
f 312 595 323
f 311 596 619
f 311 313 596
f 605 601 626
f 601 592 619
f 619 592 591
f 608 598 597
f 602 606 341
f 599 605 626
f 324 323 365
f 598 603 597
f 609 602 600
f 606 593 341
f 607 609 600
f 341 593 329
f 610 598 608
f 598 611 603
f 605 612 601
f 609 606 602
f 610 613 598
f 599 615 605
f 611 596 603
f 612 592 601
f 615 612 605
f 613 616 598
f 598 616 611
f 604 617 599
f 607 618 609
f 616 619 611
f 609 620 606
f 617 615 599
f 611 619 596
f 614 617 604
f 368 369 362
f 620 594 606
f 606 594 593
f 618 620 609
f 615 595 612
f 595 592 612
f 607 597 618
f 623 626 610
f 369 602 336
f 610 626 613
f 618 603 620
f 617 624 615
f 368 600 369
f 622 597 607
f 624 323 615
f 613 626 616
f 600 602 369
f 615 323 595
f 626 601 616
f 602 341 336
f 621 361 614
f 614 361 617
f 603 594 620
f 597 603 618
f 617 361 624
f 601 619 616
f 604 599 623
f 608 597 622
f 361 365 624
f 603 596 594
f 625 607 368
f 623 599 626
f 624 365 323
f 607 600 368
f 628 608 627
f 628 610 608
f 629 368 370
f 630 623 628
f 628 623 610
f 629 625 368
f 630 604 623
f 631 625 629
f 631 607 625
f 632 614 630
f 630 614 604
f 633 607 631
f 634 614 632
f 634 621 614
f 633 622 607
f 627 622 633
f 357 621 372
f 372 621 634
f 627 608 622
f 662 643 644
f 636 643 662
f 645 646 655
f 417 648 636
f 638 648 417
f 646 641 655
f 640 637 639
f 643 629 644
f 642 653 635
f 651 650 647
f 650 652 647
f 641 653 642
f 646 654 641
f 653 630 635
f 647 652 640
f 648 643 636
f 654 653 641
f 640 656 637
f 652 656 640
f 643 631 629
f 657 646 645
f 656 628 637
f 637 628 627
f 653 632 630
f 638 658 648
f 654 659 653
f 646 663 654
f 648 658 643
f 650 660 652
f 659 632 653
f 658 631 643
f 417 662 386
f 663 664 654
f 662 385 386
f 661 647 649
f 657 663 646
f 660 635 652
f 652 635 656
f 649 647 638
f 664 659 654
f 655 641 650
f 647 639 638
f 659 634 632
f 635 628 656
f 665 417 404
f 641 660 650
f 638 639 658
f 417 636 662
f 658 633 631
f 639 637 658
f 661 651 647
f 657 407 663
f 641 642 660
f 642 635 660
f 662 644 385
f 663 410 664
f 637 633 658
f 647 640 639
f 385 629 370
f 644 629 385
f 410 414 664
f 635 630 628
f 664 414 659
f 408 410 407
f 407 410 663
f 637 627 633
f 665 649 417
f 659 372 634
f 414 372 659
f 649 638 417
f 414 410 409
f 666 651 661
f 667 651 666
f 667 650 651
f 668 650 667
f 668 655 650
f 669 655 668
f 420 665 404
f 670 665 420
f 669 645 655
f 671 645 669
f 672 649 670
f 670 649 665
f 671 657 645
f 673 657 671
f 666 661 672
f 672 661 649
f 673 407 657
f 420 677 670
f 678 679 696
f 683 684 674
f 676 466 702
f 674 685 678
f 463 703 467
f 680 687 704
f 478 688 682
f 480 688 478
f 682 689 680
f 679 666 696
f 675 686 681
f 463 676 703
f 690 675 705
f 464 676 463
f 466 673 702
f 668 687 669
f 686 691 681
f 689 687 680
f 464 466 676
f 681 691 677
f 690 692 675
f 677 691 670
f 692 686 675
f 688 689 682
f 689 669 687
f 666 679 667
f 685 694 678
f 475 693 683
f 683 693 684
f 674 694 685
f 684 694 674
f 688 695 689
f 694 679 678
f 691 672 670
f 692 696 686
f 686 696 691
f 694 667 679
f 697 698 690
f 468 688 480
f 698 692 690
f 439 700 443
f 475 682 693
f 693 694 684
f 695 702 689
f 443 700 431
f 689 702 669
f 468 703 688
f 700 451 431
f 698 674 692
f 702 671 669
f 674 701 692
f 693 680 694
f 701 696 692
f 699 705 439
f 704 667 694
f 705 700 439
f 680 704 694
f 703 676 688
f 478 682 475
f 696 666 691
f 688 676 695
f 681 451 700
f 676 702 695
f 682 680 693
f 451 677 420
f 701 678 696
f 675 681 700
f 691 666 672
f 671 702 673
f 704 687 667
f 705 675 700
f 667 687 668
f 683 674 698
f 467 703 468
f 674 678 701
f 681 677 451
f 476 478 475
f 708 705 699
f 503 457 489
f 707 706 698
f 706 683 698
f 474 683 706
f 523 439 503
f 439 523 699
f 429 472 452
f 523 708 699
f 472 528 452
f 708 709 705
f 528 500 452
f 452 500 444
f 705 709 690
f 518 444 500
f 709 710 690
f 530 444 518
f 444 530 453
f 710 697 690
f 707 697 710
f 697 707 698
f 734 724 721
f 719 476 474
f 723 707 741
f 722 727 711
f 725 470 483
f 720 729 746
f 746 729 712
f 723 706 707
f 729 730 712
f 715 731 713
f 724 732 714
f 726 733 718
f 716 735 717
f 713 731 719
f 711 727 709
f 733 725 718
f 712 730 723
f 735 526 717
f 730 736 723
f 714 732 722
f 736 706 723
f 717 526 726
f 731 737 719
f 732 727 722
f 738 715 728
f 737 476 719
f 734 746 724
f 709 727 710
f 724 745 732
f 476 737 481
f 526 529 726
f 745 741 732
f 529 733 726
f 730 742 736
f 474 706 736
f 532 733 529
f 740 737 731
f 743 744 517
f 715 739 731
f 746 745 724
f 470 532 473
f 517 744 511
f 733 532 725
f 725 532 470
f 732 741 727
f 739 740 731
f 744 520 511
f 742 474 736
f 741 710 727
f 729 747 730
f 712 745 746
f 523 711 708
f 720 747 729
f 738 739 715
f 747 742 730
f 737 483 481
f 743 721 744
f 740 725 737
f 744 714 520
f 739 718 740
f 719 474 742
f 725 483 737
f 714 722 520
f 720 713 747
f 712 741 745
f 718 725 740
f 748 715 720
f 722 711 520
f 708 711 709
f 726 718 739
f 738 717 739
f 713 719 747
f 747 719 742
f 715 713 720
f 712 723 741
f 721 724 744
f 741 707 710
f 717 726 739
f 728 715 748
f 724 714 744
f 749 720 746
f 750 752 720
f 720 754 748
f 755 756 754
f 754 756 748
f 748 756 728
f 756 759 728
f 754 757 755
f 755 757 758
f 752 754 720
f 760 750 761
f 751 761 750
f 517 565 743
f 728 759 738
f 759 762 738
f 565 763 743
f 763 764 743
f 738 762 765
f 743 764 721
f 738 765 717
f 764 766 721
f 765 767 717
f 721 766 734
f 767 716 717
f 767 768 716
f 766 769 734
f 769 770 734
f 768 771 716
f 734 770 746
f 769 772 770
f 716 771 735
f 770 772 746
f 771 557 735
f 746 772 749
f 772 773 749
f 773 750 749
f 749 750 720
f 773 751 750
f 815 769 766
f 776 833 557
f 815 766 764
f 843 575 848
f 816 764 777
f 771 776 557
f 778 776 771
f 817 777 764
f 818 817 764
f 778 771 768
f 835 768 767
f 781 575 779
f 835 767 765
f 818 764 763
f 836 765 838
f 838 765 762
f 784 818 763
f 784 780 782
f 784 782 821
f 784 821 818
f 784 763 565
f 843 779 575
f 779 783 781
f 783 785 781
f 836 835 765
f 835 778 768
f 826 775 774
f 775 824 774
f 824 786 774
f 786 780 774
f 786 782 780
f 816 815 764
f 815 814 769
f 814 792 772
f 840 838 762
f 787 781 785
f 759 840 762
f 787 785 788
f 787 840 759
f 787 788 840
f 787 759 756
f 789 756 755
f 789 787 756
f 789 755 753
f 789 753 751
f 790 789 751
f 790 751 773
f 830 829 772
f 790 773 772
f 790 772 829
f 791 790 829
f 812 830 772
f 774 790 791
f 774 791 826
f 792 812 772
f 814 772 769
f 560 541 555
f 794 793 795
f 797 794 795
f 797 796 798
f 797 798 794
f 796 585 798
f 799 585 586
f 587 802 801
f 804 805 803
f 804 807 806
f 805 804 806
f 808 807 589
f 808 806 807
f 579 810 811
f 809 579 811
f 809 581 579
f 795 811 810
f 793 811 795
f 830 812 831
f 813 812 792
f 817 818 819
f 818 821 820
f 819 818 820
f 822 821 782
f 822 820 821
f 782 786 825
f 825 822 782
f 823 775 826
f 823 824 775
f 825 786 824
f 791 827 826
f 829 828 827
f 829 827 791
f 829 831 828
f 829 830 831
f 833 776 832
f 834 776 778
f 837 836 838
f 837 838 839
f 838 840 839
f 840 788 841
f 839 840 841
f 842 788 785
f 842 841 788
f 785 783 846
f 846 842 785
f 845 843 844
f 845 779 843
f 779 845 846
f 846 783 779
f 847 843 848
f 847 844 843
f 849 847 848
f 850 849 848
f 833 832 849
f 850 833 849
f 852 853 876
f 570 876 854
f 570 852 876
f 855 781 787
f 578 852 570
f 584 851 857
f 856 855 787
f 584 580 851
f 578 857 852
f 858 856 787
f 578 584 857
f 859 781 855
f 860 858 787
f 859 575 781
f 860 787 789
f 861 856 858
f 862 861 858
f 863 575 859
f 864 860 789
f 863 571 575
f 864 789 790
f 866 864 790
f 867 569 571
f 867 863 865
f 867 571 863
f 867 865 868
f 869 569 867
f 774 866 790
f 870 866 774
f 590 569 869
f 871 590 869
f 872 870 774
f 780 872 774
f 873 590 871
f 588 590 873
f 780 874 872
f 582 588 873
f 582 873 875
f 784 874 780
f 570 874 784
f 570 854 874
f 580 582 875
f 580 875 851
f 577 576 879
f 576 877 879
f 877 576 573
f 878 877 572
f 877 573 572
f 574 878 572
f 574 879 878
f 577 879 574
f 753 761 751
f 753 758 761
f 758 760 761
f 753 755 758
f 758 757 760
f 754 752 757
f 760 752 750
f 757 752 760
f 556 554 561
f 554 551 561
f 554 555 551
f 551 550 561
f 555 553 551
f 553 540 552
f 541 540 555
f 555 540 553
f 547 546 536
f 546 543 536
f 543 542 536
f 548 545 546
f 546 545 543
f 545 537 544
f 549 537 548
f 548 537 545
f 892 793 926
f 926 793 794
f 880 926 798
f 798 926 794
f 585 880 798
f 585 881 880
f 585 799 881
f 881 883 882
f 799 883 881
f 883 799 586
f 801 885 884
f 800 801 884
f 586 884 883
f 586 800 884
f 885 801 802
f 888 886 587
f 887 885 886
f 886 802 587
f 885 802 886
f 889 888 803
f 803 888 587
f 805 889 803
f 805 806 889
f 806 890 889
f 806 808 890
f 808 589 890
f 890 589 891
f 589 583 891
f 583 581 891
f 581 809 891
f 891 811 892
f 809 811 891
f 811 793 892
f 812 893 831
f 893 906 831
f 812 894 893
f 812 813 894
f 894 896 895
f 813 896 894
f 896 813 792
f 816 898 897
f 815 816 897
f 814 815 897
f 792 897 896
f 792 814 897
f 901 899 777
f 900 898 899
f 899 816 777
f 898 816 899
f 817 978 777
f 978 901 777
f 902 978 819
f 819 978 817
f 819 820 902
f 820 903 902
f 820 822 903
f 904 905 826
f 905 823 826
f 905 824 823
f 905 825 824
f 903 822 905
f 905 822 825
f 826 827 904
f 904 827 906
f 906 827 828
f 831 906 828
f 776 983 832
f 983 907 832
f 776 908 983
f 776 834 908
f 834 909 908
f 834 910 909
f 910 985 909
f 910 834 778
f 835 836 912
f 835 912 911
f 778 835 911
f 778 911 910
f 915 913 837
f 914 912 913
f 913 836 837
f 912 836 913
f 839 916 837
f 916 915 837
f 839 841 916
f 841 917 916
f 841 842 917
f 846 918 842
f 842 918 917
f 845 918 846
f 844 918 845
f 844 919 918
f 844 847 919
f 907 863 919
f 919 847 907
f 907 847 849
f 832 907 849
f 876 921 854
f 922 853 852
f 877 878 879
f 867 923 869
f 923 952 869
f 891 892 851
f 892 857 851
f 869 952 871
f 952 924 871
f 924 925 871
f 871 925 873
f 925 953 873
f 953 954 873
f 873 889 890
f 954 889 873
f 892 926 857
f 926 956 857
f 857 956 852
f 890 875 873
f 890 891 875
f 956 927 852
f 891 851 875
f 880 959 963
f 881 959 880
f 963 961 928
f 959 961 963
f 961 958 928
f 928 958 929
f 929 960 930
f 958 960 929
f 930 886 888
f 960 886 930
f 893 894 931
f 894 968 931
f 931 970 932
f 968 970 931
f 970 967 932
f 932 967 933
f 933 969 934
f 967 969 933
f 934 899 901
f 969 899 934
f 905 904 870
f 904 866 870
f 854 935 874
f 935 977 874
f 906 936 904
f 977 902 874
f 874 902 903
f 904 936 866
f 936 937 866
f 866 937 864
f 937 938 864
f 903 872 874
f 903 905 872
f 938 939 864
f 864 939 860
f 939 941 860
f 860 941 858
f 905 870 872
f 941 940 858
f 944 937 936
f 939 942 941
f 942 938 943
f 937 943 938
f 944 943 937
f 906 944 936
f 942 939 938
f 983 908 945
f 908 980 945
f 945 982 946
f 980 982 945
f 982 979 946
f 946 979 947
f 947 981 948
f 979 981 947
f 948 913 915
f 981 913 948
f 856 916 917
f 917 855 856
f 917 918 855
f 918 859 855
f 918 863 859
f 918 919 863
f 922 852 927
f 922 927 949
f 867 868 923
f 923 868 920
f 952 951 924
f 924 950 925
f 924 951 950
f 923 951 952
f 925 950 953
f 926 880 955
f 956 957 927
f 956 955 957
f 926 955 956
f 963 962 880
f 928 929 963
f 882 883 964
f 964 884 965
f 883 884 964
f 965 884 966
f 884 885 966
f 966 885 887
f 931 971 893
f 893 971 906
f 931 972 971
f 932 933 972
f 978 934 901
f 931 932 972
f 895 896 973
f 973 897 974
f 896 897 973
f 974 897 975
f 897 898 975
f 975 898 900
f 1007 862 940
f 862 858 940
f 921 1046 935
f 854 921 935
f 977 976 902
f 902 976 978
f 947 948 946
f 946 948 984
f 945 984 983
f 945 946 984
f 985 910 1049
f 1049 911 986
f 910 911 1049
f 986 911 987
f 987 912 1061
f 911 912 987
f 1061 912 914
f 988 865 907
f 865 863 907
f 856 861 916
f 916 861 989
f 955 880 1053
f 957 949 927
f 957 955 1053
f 957 1053 949
f 929 930 990
f 963 929 990
f 963 990 991
f 951 923 920
f 992 951 920
f 950 951 992
f 1013 950 992
f 953 950 1013
f 993 953 1013
f 962 963 991
f 954 953 993
f 889 993 994
f 889 954 993
f 888 994 990
f 888 889 994
f 962 991 1053
f 880 962 1053
f 930 888 990
f 999 997 996
f 1001 1000 1003
f 998 989 1007
f 1007 1000 998
f 1001 1003 1004
f 1004 1006 1008
f 992 920 1002
f 1013 1012 1011
f 1007 1003 1000
f 1003 1006 1004
f 1006 1009 1008
f 1009 1010 1008
f 1011 993 1013
f 1011 1014 993
f 995 1002 920
f 1012 1013 992
f 995 920 988
f 1005 995 988
f 1015 1073 1001
f 1000 1068 998
f 1073 1068 1000
f 1037 1016 1017
f 1017 1016 1047
f 998 1018 999
f 1068 1018 998
f 1016 1019 1047
f 1047 1019 1058
f 999 1020 997
f 1018 1020 999
f 1058 1039 1021
f 1019 1039 1058
f 997 1023 996
f 1039 1022 1021
f 1020 1023 997
f 1021 1022 1056
f 996 1023 1005
f 1023 1024 1005
f 1022 1027 1056
f 1056 1027 1025
f 1027 1032 1025
f 1025 1033 1010
f 1032 1033 1025
f 1010 1067 1008
f 1033 1067 1010
f 1008 1015 1004
f 1067 1015 1008
f 1004 1015 1001
f 1001 1073 1000
f 1030 1029 1034
f 1030 1034 1035
f 1035 1034 1036
f 1037 1038 1016
f 1016 1038 1019
f 1039 1019 1038
f 1029 1030 1040
f 1032 1027 1026
f 1027 1022 1026
f 1026 1022 1039
f 887 960 1042
f 886 960 887
f 960 958 1042
f 1042 961 1043
f 958 961 1042
f 961 959 1043
f 1043 881 882
f 959 881 1043
f 965 966 1042
f 900 969 1044
f 899 969 900
f 969 967 1044
f 1044 970 1045
f 967 970 1044
f 970 968 1045
f 1045 894 895
f 968 894 1045
f 1056 1025 971
f 972 1056 971
f 935 1046 977
f 1021 1056 972
f 1007 940 941
f 1003 1007 941
f 1058 1021 972
f 933 1058 972
f 1003 941 942
f 1006 1003 942
f 1047 1058 933
f 934 1047 933
f 978 1047 934
f 1006 942 943
f 1009 1006 943
f 978 1017 1047
f 944 1009 943
f 1010 1009 944
f 976 1017 978
f 977 1017 976
f 1046 1017 977
f 1010 944 906
f 1025 1010 906
f 971 1025 906
f 974 975 1044
f 914 913 1048
f 913 981 1048
f 981 979 1048
f 1048 979 986
f 986 982 1049
f 979 982 986
f 982 980 1049
f 1049 908 909
f 980 908 1049
f 1005 907 983
f 988 907 1005
f 998 948 915
f 998 915 916
f 998 916 989
f 999 984 948
f 999 948 998
f 996 984 999
f 1005 983 984
f 1005 984 996
f 987 1061 1048
f 909 985 1049
f 1061 914 1048
f 921 876 1046
f 1046 876 1050
f 1050 876 949
f 876 853 949
f 853 922 949
f 920 868 988
f 868 865 988
f 990 1055 991
f 1057 1017 1046
f 1052 1050 949
f 1053 1059 949
f 991 1054 1053
f 1051 1050 1052
f 994 1060 990
f 1055 990 1060
f 1014 994 993
f 1050 1057 1046
f 1051 1057 1050
f 1052 949 1059
f 965 1042 1043
f 887 1042 966
f 964 1043 882
f 1043 964 965
f 974 1044 1045
f 900 1044 975
f 973 1045 895
f 1045 973 974
f 989 861 1007
f 861 862 1007
f 987 1048 986
f 991 1040 1054
f 1054 1030 1053
f 1040 1030 1054
f 1005 1024 995
f 995 1062 1002
f 1024 1062 995
f 1053 1030 1059
f 1030 1035 1059
f 1002 1063 992
f 1062 1063 1002
f 1059 1035 1052
f 992 1063 1012
f 1052 1036 1051
f 1035 1036 1052
f 1051 1036 1057
f 1063 1065 1012
f 1012 1065 1011
f 1036 1037 1057
f 1065 1064 1011
f 1057 1037 1017
f 1011 1064 1014
f 1064 1041 1014
f 1014 1041 994
f 994 1041 1060
f 1041 1028 1060
f 1028 1031 1060
f 1060 1031 1055
f 1055 1031 991
f 1031 1040 991
f 1065 1066 1064
f 1066 1041 1064
f 1018 1068 1069
f 1018 1069 1020
f 1020 1069 1070
f 1020 1070 1023
f 1023 1070 1024
f 1070 1071 1024
f 1024 1071 1062
f 1071 1072 1062
f 1065 1063 1072
f 1062 1072 1063
f 1040 1075 1029
f 1029 1075 1074
f 1076 1077 1080
f 1040 1081 1075
f 1039 1082 1026
f 1039 1083 1082
f 1077 1084 1080
f 1026 1082 1032
f 1038 1083 1039
f 1085 1070 1095
f 1095 1070 1069
f 1032 1082 1033
f 1040 1031 1081
f 1038 1086 1083
f 1078 1087 1079
f 1082 1088 1033
f 1067 1088 1015
f 1033 1088 1067
f 1084 1089 1080
f 1085 1071 1070
f 1031 1028 1081
f 1087 1071 1079
f 1079 1071 1085
f 1028 1041 1081
f 1081 1041 1084
f 1087 1072 1071
f 1084 1041 1089
f 1041 1066 1089
f 1038 1090 1086
f 1037 1090 1038
f 1036 1090 1037
f 1089 1065 1087
f 1087 1065 1072
f 1015 1091 1073
f 1088 1091 1015
f 1089 1066 1065
f 1082 1092 1088
f 1093 1092 1082
f 1036 1074 1090
f 1034 1074 1036
f 1090 1094 1086
f 1086 1092 1093
f 1086 1094 1092
f 1091 1068 1073
f 1034 1029 1074
f 1097 1095 1091
f 1096 1095 1097
f 1091 1095 1068
f 1068 1095 1069
f 1097 1079 1096
f 1078 1079 1097
f 1076 1075 1077
f 1074 1075 1076
f 1085 1099 1100
f 1079 1085 1100
f 1079 1100 1101
f 1079 1101 1102
f 1096 1079 1102
f 1099 1135 1145
f 1099 1145 1104
f 1100 1099 1104
f 1100 1104 1105
f 1105 1101 1100
f 1101 1105 1102
f 1105 1104 1103
f 1103 1104 1145
f 1081 1106 1107
f 1081 1084 1106
f 1081 1107 1108
f 1081 1108 1109
f 1075 1081 1109
f 1075 1109 1110
f 1109 1108 1112
f 1112 1110 1109
f 1112 1108 1146
f 1112 1113 1110
f 1111 1113 1112
f 1146 1111 1112
f 1093 1121 1114
f 1086 1114 1115
f 1086 1093 1114
f 1086 1115 1116
f 1086 1116 1117
f 1083 1086 1117
f 1120 1119 1147
f 1120 1147 1121
f 1122 1121 1147
f 1122 1115 1114
f 1121 1122 1114
f 1080 1089 1123
f 1123 1089 1124
f 1080 1123 1125
f 1076 1080 1125
f 1126 1076 1125
f 1074 1076 1126
f 1127 1090 1126
f 1090 1074 1126
f 1094 1090 1128
f 1128 1090 1127
f 1092 1128 1129
f 1092 1094 1128
f 1130 1092 1129
f 1088 1092 1130
f 1131 1088 1130
f 1091 1088 1131
f 1097 1131 1098
f 1097 1091 1131
f 1097 1098 1132
f 1078 1097 1132
f 1087 1132 1133
f 1087 1078 1132
f 1124 1087 1133
f 1089 1087 1124
f 1096 1102 1134
f 1095 1096 1134
f 1095 1134 1135
f 1095 1135 1099
f 1085 1095 1099
f 1077 1110 1113
f 1077 1075 1110
f 1077 1113 1136
f 1084 1077 1136
f 1084 1136 1106
f 1083 1117 1118
f 1082 1118 1119
f 1082 1083 1118
f 1082 1119 1120
f 1082 1120 1121
f 1093 1082 1121
f 1128 1137 1129
f 1123 1133 1132
f 1123 1124 1133
f 1123 1132 1140
f 1129 1131 1130
f 1129 1098 1131
f 1142 1132 1098
f 1142 1098 1141
f 1143 1137 1128
f 1125 1143 1128
f 1129 1141 1098
f 1144 1132 1142
f 1126 1125 1128
f 1126 1128 1127
f 1137 1141 1129
f 1140 1143 1125
f 1140 1125 1123
f 1140 1132 1144
f 1102 1105 1103
f 1134 1102 1103
f 1134 1103 1145
f 1145 1135 1134
f 1111 1136 1113
f 1136 1111 1146
f 1146 1106 1136
f 1146 1107 1106
f 1107 1146 1108
f 1116 1122 1117
f 1116 1115 1122
f 1147 1117 1122
f 1147 1119 1118
f 1117 1147 1118
f 1148 1141 1137
f 1138 1148 1137
f 1148 1139 1144
f 1142 1148 1144
f 1143 1149 1137
f 1150 1140 1144
f 1151 1150 1144
f 1151 1144 1139
f 1151 1139 1138
f 1149 1151 1138
f 1149 1138 1137
f 1148 1142 1141
f 1138 1139 1148
f 1149 1143 1151
f 1151 1140 1150
f 1143 1140 1151
