v 0.0225689 -0.0395566 0.093692
v 0.0349857 -0.0291754 0.0937601
v 0.0278036 -0.0243115 0.100943
v 0.0433617 -0.0139189 0.0938607
v -0.0277001 0.124 0.00612191
v -0.0723802 0.123999 0.0545288
v -0.0513802 0.123999 0.0457533
v 0.0452131 0.031664 0.00111872
v -0.0370906 0.123998 -0.0318319
v -0.0281717 0.124 -0.0105193
v -0.0861436 0.123968 -0.0552066
v -0.0742379 0.123996 -0.0545801
v 0.0218268 0.0299403 0.100929
v -0.0548461 0.124009 -0.0479598
v 0.0379847 -0.0364881 0.0652637
v 0.0290268 -0.0392658 0.0847768
v 0.0264266 -0.0457158 0.0657169
v 0.0340658 -0.0436073 0.000539473
v 0.0387193 -0.0298809 0.084476
v -0.109295 0.124003 0.0484872
v -0.0922486 0.124 0.054293
v 0.0352073 -0.0108453 0.100914
v 0.0165641 -0.00761799 0.108349
v 0.0435987 -0.0202372 0.0870457
v 0.0225794 -0.0504143 0.00055807
v -0.0765705 0.0398249 -0.045276
v 0.0438956 -0.033551 0.000520998
v 0.00204916 0.037664 0.10079
v -0.033068 0.123999 0.025663
v 0.0413396 0.0323563 0.066298
v 0.0543498 0.0103732 0.000641957
v 0.0487373 0.0204309 0.0656663
v 0.0528774 0.00183914 0.0649284
v 0.0186238 -0.0443663 0.0869201
v 0.0454452 -0.0267077 0.065418
v -0.0734579 0.06948 -0.0505589
v -0.0689704 0.0884986 -0.0517807
v 0.0504052 -0.0228559 0.000627428
v -0.122193 0.0955317 0.0368938
v -0.0349356 -0.012055 0.100886
v -0.0370272 0.00274428 0.100844
v -0.0151649 0.00910898 0.108663
v -0.032575 0.0174211 0.100906
v -0.120391 0.123968 0.0403303
v -0.12909 0.123972 0.0297955
v 0.0456334 0.00456764 0.0929286
v 0.0367035 0.003599 0.100953
v 0.048049 0.00329215 0.0873991
v 0.0191766 0.00156805 0.108031
v 0.0129463 -0.015115 0.107815
v 0.00379674 -0.00707858 0.110758
v 0.00885151 0.00247627 0.110543
v 0.0134306 -0.034342 0.10098
v -0.119318 0.0435436 0.0286429
v -0.0418584 -0.0209428 0.0896924
v -0.0287434 -0.0230392 0.100935
v -0.0133221 -0.0098899 0.108975
v -0.00576515 0.0182159 0.1081
v -0.137607 0.123998 0.0032398
v -0.136655 0.104576 0.00798006
v -0.134661 0.123981 0.0181685
v -0.063776 0.107927 -0.0515011
v -0.0724709 0.105766 -0.0538652
v -0.103567 0.123994 -0.0510597
v -0.113556 0.123983 -0.0457284
v 0.0540366 -0.0112615 0.000537692
v 0.0551395 -0.00281443 0.000578568
v 0.0502325 0.0231439 0.000568287
v -0.0871983 0.0796108 -0.0524394
v -0.0824021 0.0929204 -0.0539049
v 0.00915327 -0.0520799 0.0654662
v -0.118237 0.0289715 -0.0185448
v -0.114342 0.028618 -0.0241153
v -0.0316712 -0.045195 0.000872734
v -0.0160194 0.00129525 0.109144
v 0.0424346 0.0183174 0.0921958
v 0.0450462 0.0183266 0.0855205
v 0.0505718 -0.0147427 0.0665108
v 0.0474745 -0.0095727 0.0861654
v 0.00771587 0.0171866 0.108234
v -0.00434596 0.00296304 0.111052
v 0.0152835 0.0100143 0.108356
v -0.0327777 -0.0339139 0.090005
v -0.121548 0.037507 0.0222519
v -0.0223471 -0.0476243 0.0661523
v -0.0235224 -0.0499681 0.000617043
v -0.0106811 -0.0542888 0.000561746
v 0.00571549 -0.048166 0.0861433
v -0.132118 0.123998 -0.0240179
v -0.136445 0.123998 -0.011417
v -0.125335 0.124 -0.0346699
v 0.01495 -0.0531372 0.000568479
v 0.00407301 -0.0551497 0.000622712
v -0.0860069 0.0375729 -0.0448194
v 0.0317744 0.0338598 0.0916756
v -0.107874 0.0301999 -0.0323392
v -0.0950795 0.0309477 -0.0397723
v -0.0319924 -0.041577 0.0668301
v -0.120676 0.026656 0.00308607
v -0.132852 0.08527 0.0175676
v -0.128322 0.0524202 0.0153927
v -0.12722 0.0651773 0.023866
v -0.129377 0.0959188 0.0271857
v -0.12201 0.0745207 0.0337353
v -0.12359 0.0421127 -0.0211134
v -0.126198 0.0363929 -0.00920672
v -0.130713 0.06118 -0.0132701
v -0.123064 0.0358186 -0.0177239
v -0.120488 0.0276725 -0.00954927
v 0.0383281 0.0297736 0.0856361
v 0.00276386 0.0122881 0.109876
v 0.0325199 0.0171497 0.100966
v -0.00480175 -0.0165821 0.108757
v -0.0161754 -0.0332713 0.100932
v -0.00130444 -0.0367864 0.100922
v -0.00662394 -0.0462178 0.0914974
v -0.00734275 -0.0521239 0.0669492
v -0.0942551 0.106407 -0.0534897
v -0.136806 0.0989925 -0.00369424
v -0.127978 0.0398431 -0.0044483
v -0.130818 0.0522117 -0.00148325
v -0.0810356 0.0566239 -0.0491713
v -0.113825 0.0386823 -0.0327643
v -0.105099 0.0354588 -0.037803
v -0.0976605 0.0852413 -0.0510581
v -0.105004 0.073322 -0.0467454
v -0.105042 0.102325 -0.0496378
v -0.0959132 0.0383645 -0.043246
v -0.125088 0.0380429 0.0147857
v -0.121732 0.0312471 0.0143147
v -0.135274 0.084244 0.00617867
v -0.132355 0.0634132 0.0070059
v -0.127128 0.0647481 -0.0238863
v 0.00712987 -0.0452175 0.0930405
v 0.00410448 -0.019016 0.107912
v -0.0176536 -0.0435023 0.0908335
v -0.0261703 -0.0390147 0.0905425
v -0.131688 0.0870915 -0.0208239
v -0.129765 0.106224 -0.0276716
v -0.105467 0.0423271 -0.0402281
v -0.127336 0.0382521 0.00600866
v -0.124648 0.0319992 0.00332728
v -0.118012 0.0367743 -0.0271656
v -0.135538 0.0973064 -0.0117315
v -0.134277 0.0743398 -0.00428955
v -0.119562 0.0540339 -0.0315304
v -0.124401 0.0824655 -0.0325574
v -0.121956 0.10226 -0.0378733
v -0.114429 0.0877588 -0.0429899
v -0.112995 0.0602612 -0.0394249
v -0.133811 0.107879 -0.019222
v -0.0937211 0.0530713 -0.0472531
f 1 2 3
f 3 2 4
f 5 6 7
f 8 9 10
f 11 5 12
f 7 6 13
f 5 8 10
f 14 10 9
f 15 16 17
f 15 17 18
f 15 19 16
f 20 21 5
f 22 3 4
f 23 3 22
f 2 24 4
f 14 12 5
f 14 5 10
f 25 26 18
f 27 18 26
f 6 28 13
f 29 30 5
f 31 32 33
f 16 34 17
f 15 18 27
f 15 35 19
f 35 15 27
f 1 16 2
f 16 19 2
f 27 26 36
f 36 37 38
f 39 40 41
f 42 21 20
f 20 43 42
f 39 44 45
f 20 41 43
f 41 42 43
f 19 24 2
f 4 46 47
f 46 4 48
f 49 22 47
f 22 49 23
f 22 4 47
f 3 23 50
f 51 23 52
f 53 1 3
f 40 54 55
f 56 57 40
f 6 5 21
f 6 21 28
f 28 21 58
f 59 60 61
f 12 14 62
f 63 62 37
f 64 65 5
f 5 11 64
f 11 12 63
f 37 62 66
f 7 29 5
f 14 31 67
f 68 31 14
f 32 8 30
f 66 38 37
f 69 70 36
f 18 17 25
f 17 34 71
f 1 34 16
f 35 27 38
f 20 44 41
f 20 5 44
f 44 39 41
f 72 73 74
f 75 40 57
f 48 76 46
f 48 77 76
f 24 35 78
f 24 19 35
f 79 24 78
f 79 48 4
f 79 78 33
f 42 58 21
f 80 13 28
f 57 51 81
f 52 49 82
f 56 40 55
f 83 56 55
f 84 83 55
f 85 86 87
f 88 71 34
f 5 61 45
f 5 45 44
f 59 61 5
f 12 62 63
f 89 90 5
f 89 5 91
f 26 92 93
f 93 94 26
f 26 25 92
f 7 13 95
f 30 8 5
f 68 9 8
f 68 14 9
f 67 33 66
f 31 68 32
f 77 48 32
f 32 48 33
f 93 87 94
f 96 97 86
f 73 96 74
f 96 86 74
f 97 94 87
f 70 11 63
f 78 38 66
f 71 25 17
f 36 38 27
f 98 83 99
f 100 101 102
f 103 104 39
f 105 106 107
f 108 106 105
f 74 99 109
f 109 72 74
f 99 74 98
f 40 75 41
f 110 32 30
f 79 4 24
f 81 42 75
f 52 80 111
f 52 82 80
f 49 47 112
f 82 49 112
f 13 80 82
f 57 113 51
f 23 49 52
f 114 115 113
f 114 116 115
f 114 57 56
f 114 113 57
f 117 85 87
f 62 14 67
f 118 64 11
f 119 60 59
f 120 121 107
f 91 5 65
f 36 122 69
f 93 92 71
f 95 29 7
f 29 95 110
f 110 30 29
f 80 28 58
f 68 8 32
f 67 31 33
f 93 71 117
f 123 124 96
f 125 126 127
f 97 87 86
f 128 97 124
f 35 38 78
f 78 66 33
f 84 129 130
f 130 83 84
f 100 131 132
f 54 102 84
f 103 102 104
f 39 104 40
f 103 100 102
f 45 103 39
f 132 101 100
f 100 60 131
f 133 105 107
f 75 57 81
f 41 75 42
f 32 110 77
f 48 79 33
f 81 111 58
f 58 42 81
f 112 13 82
f 95 13 112
f 134 1 53
f 134 34 1
f 88 34 134
f 50 53 3
f 53 50 135
f 115 116 134
f 115 134 53
f 117 136 85
f 85 98 74
f 74 86 85
f 117 88 116
f 114 137 136
f 137 56 83
f 137 114 56
f 63 36 70
f 60 100 61
f 133 107 138
f 139 89 91
f 63 37 36
f 122 36 26
f 76 47 46
f 112 47 76
f 117 71 88
f 87 93 117
f 124 123 140
f 97 96 124
f 127 65 64
f 25 71 92
f 141 106 142
f 120 106 141
f 130 99 83
f 60 119 131
f 141 129 101
f 55 54 84
f 54 104 102
f 105 143 108
f 95 112 76
f 76 110 95
f 77 110 76
f 51 52 81
f 81 52 111
f 135 50 51
f 51 113 135
f 135 115 53
f 98 137 83
f 137 85 136
f 137 98 85
f 116 136 117
f 116 114 136
f 61 103 45
f 90 59 5
f 90 119 59
f 144 119 90
f 145 131 119
f 107 121 145
f 120 107 106
f 143 146 123
f 146 143 105
f 146 105 133
f 147 133 138
f 148 91 65
f 139 91 148
f 147 139 148
f 125 64 118
f 127 64 125
f 126 149 127
f 150 140 123
f 147 148 149
f 141 121 120
f 142 99 130
f 121 141 132
f 132 141 101
f 101 84 102
f 101 129 84
f 54 40 104
f 103 61 100
f 108 109 106
f 109 108 72
f 58 111 80
f 23 51 50
f 115 135 113
f 116 88 134
f 62 67 66
f 89 151 90
f 146 150 123
f 138 139 147
f 124 140 128
f 128 140 152
f 152 140 126
f 147 150 146
f 147 149 150
f 147 146 133
f 132 145 121
f 109 142 106
f 89 139 151
f 97 128 94
f 128 152 94
f 150 149 126
f 65 149 148
f 65 127 149
f 131 145 132
f 107 144 138
f 142 109 99
f 11 70 69
f 69 118 11
f 72 143 73
f 143 72 108
f 126 140 150
f 152 125 69
f 130 141 142
f 130 129 141
f 151 144 90
f 107 145 144
f 138 144 151
f 139 138 151
f 126 125 152
f 69 125 118
f 144 145 119
f 94 152 122
f 94 122 26
f 96 143 123
f 143 96 73
f 152 69 122
