v -0.047823 -0.001 -0.010823
v -0.047823 0.001 -0.010823
v -0.047834 0 -0.0138
v -0.0469 0 -0.0138
v -0.0469 0.001 -0.010823
v -0.0469 -0.001 -0.010823
v -0.0469 0.0065 -0.0055
v -0.0469 0.0065 -0.0148
v -0.0469 -0.0065 -0.0148
v -0.0469 -0.0065 -0.0055
v -0.04739 -0.0065 -0.0055
v -0.04739 -0.0065 -0.0148
v -0.047554 0.005166 -0.0055
v -0.04739 0.0065 -0.0055
v -0.047747 -0.002884 -0.0055
v -0.04739 0.0065 -0.0148
v -0.046587 -0.010851 -0.0148
v -0.047655 -0.002883 0.0038
v -0.047688 0.003732 0.0038
v -0.045916 0.013035 0.0038
v -0.046413 0.011571 0.0038
v -0.047457 0.00515 0.0038
v -0.01636 0.044949 0.0038
v -0.013354 0.045932 0.0038
v -0.013354 0.045932 -0.0148
v -0.005461 0.047521 0.0038
v -0.005461 0.047521 -0.0148
v 0.002587 0.047764 0.0038
v 0.002587 0.047764 -0.0148
v 0.010561 0.046653 0.0038
v 0.010561 0.046653 -0.0148
v 0.018236 0.044221 0.0038
v 0.018236 0.044221 -0.0148
v 0.025395 0.040536 0.0038
v 0.025395 0.040536 -0.0148
v 0.031834 0.035702 0.0038
v 0.031834 0.035702 -0.0148
v 0.037371 0.029857 0.0038
v 0.037371 0.029857 -0.0148
v 0.04185 0.023166 0.0038
v 0.04185 0.023166 -0.0148
v 0.045142 0.015819 0.0038
v 0.045142 0.015819 -0.0148
v 0.047156 0.008023 0.0038
v 0.047156 0.008023 -0.0148
v 0.047834 -0 0.0038
v 0.047834 -0 -0.0148
v -0.020825 0.042943 0.0038
v -0.020869 0.043041 -0.0148
v -0.022741 0.042082 0.0038
v -0.027793 0.038931 -0.0148
v -0.027725 0.038827 0.0038
v -0.02939 0.03774 0.0038
v -0.033929 0.033718 -0.0148
v -0.033848 0.03363 0.0038
v -0.035229 0.032357 0.0038
v -0.039103 0.02755 -0.0148
v -0.039013 0.02748 0.0038
v -0.040097 0.026083 0.0038
v -0.04317 0.020601 -0.0148
v -0.043074 0.020549 0.0038
v -0.043859 0.01909 0.0038
v -0.046014 0.013068 -0.0148
v -0.047648 -0.004209 0.0038
v -0.046502 -0.010837 0.0038
v -0.046295 -0.012034 0.0038
v -0.044107 -0.018511 -0.0148
v -0.044032 -0.018485 0.0038
v -0.043666 -0.019527 0.0038
v -0.040377 -0.025647 -0.0148
v -0.040314 -0.025612 0.0038
v -0.039834 -0.026482 0.0038
v -0.035503 -0.032056 -0.0148
v -0.035452 -0.032015 0.0038
v -0.034904 -0.032708 0.0038
v -0.029624 -0.037556 -0.0148
v -0.029585 -0.037513 0.0038
v -0.029012 -0.038031 0.0038
v -0.022905 -0.041993 -0.0148
v -0.022878 -0.04195 0.0038
v -0.02232 -0.042307 0.0038
v -0.015537 -0.04524 -0.0148
v -0.015521 -0.045201 0.0038
v -0.015013 -0.045417 0.0038
v -0.007729 -0.047205 -0.0148
v -0.007721 -0.047171 0.0038
v -0.007292 -0.047275 0.0038
v 0.000298 -0.047833 -0.0148
v 0.000299 -0.047806 0.0038
v 0.00063 -0.04783 0.0038
v 0.008316 -0.047105 -0.0148
v 0.008314 -0.047087 0.0038
v 0.008534 -0.047066 0.0038
v 0.016099 -0.045043 -0.0148
v 0.016097 -0.045034 0.0038
v 0.016203 -0.045006 0.0038
v 0.023426 -0.041705 -0.0148
v 0.023426 -0.041705 0.0038
f 4 3 5
f 3 2 5
f 6 1 4
f 1 3 4
f 5 2 6
f 2 1 6
f 7 8 4
f 8 9 4
f 4 9 6
f 9 10 6
f 6 10 5
f 10 7 5
f 5 7 4
f 10 9 11
f 9 12 11
f 13 14 7
f 13 7 15
f 7 10 15
f 15 10 11
f 8 7 16
f 7 14 16
f 95 94 96
f 1 2 3
f 11 12 17
f 18 19 15
f 19 13 15
f 20 14 21
f 14 13 21
f 21 13 22
f 13 19 22
f 23 24 25
f 24 26 25
f 25 26 27
f 26 28 27
f 27 28 29
f 28 30 29
f 29 30 31
f 30 32 31
f 31 32 33
f 32 34 33
f 33 34 35
f 34 36 35
f 35 36 37
f 36 38 37
f 37 38 39
f 38 40 39
f 39 40 41
f 40 42 41
f 41 42 43
f 42 44 43
f 43 44 45
f 44 46 45
f 45 46 47
f 23 25 48
f 25 49 48
f 48 49 50
f 49 51 50
f 50 51 52
f 52 51 53
f 51 54 53
f 53 54 55
f 55 54 56
f 54 57 56
f 56 57 58
f 58 57 59
f 57 60 59
f 59 60 61
f 61 60 62
f 60 63 62
f 62 63 20
f 63 16 20
f 20 16 14
f 18 15 64
f 15 11 64
f 64 11 65
f 11 17 65
f 65 17 66
f 17 67 66
f 66 67 68
f 68 67 69
f 67 70 69
f 69 70 71
f 71 70 72
f 70 73 72
f 72 73 74
f 74 73 75
f 73 76 75
f 75 76 77
f 77 76 78
f 76 79 78
f 78 79 80
f 80 79 81
f 79 82 81
f 81 82 83
f 83 82 84
f 82 85 84
f 84 85 86
f 86 85 87
f 85 88 87
f 87 88 89
f 89 88 90
f 88 91 90
f 90 91 92
f 92 91 93
f 91 94 93
f 93 94 95
f 94 97 96
f 96 97 98
