v 0.0547799 0.00875545 0.000695036
v 0.0549849 0.00179704 0.0600771
v 0.0549358 -0.194003 -0.0050002
v 0.0541351 0.00944441 0.0628215
v 0.031051 -0.126082 -0.0455013
v 0.047601 0.0280333 0.000489744
v 0.0502436 0.0226741 0.0632384
v 0.0212053 -0.126588 -0.0508097
v 0.0399461 -0.124494 -0.0379263
v 0.0484134 -0.123261 -0.026532
v -0.0518832 -0.194 -0.0183946
v -0.0500141 -0.121697 -0.0232611
v -0.0466703 -0.194 -0.0294255
v -0.0439629 0.0332954 0.000489695
v -0.036151 0.0416476 0.0644805
v -0.0320994 0.0449999 0.000508252
v -0.0152371 -0.0171926 0.125084
v -0.0237602 -0.194 0.0497122
v -0.010578 -0.194 0.054149
v -0.0254664 -0.0161975 0.121439
v 0.0307019 -0.0160908 0.118495
v 0.0218367 -0.194 0.0506868
v 0.0369534 -0.194 0.041087
v 0.016094 0.0527631 0.0641438
v 0.0285992 0.047274 0.000499651
v 0.013564 0.053444 0.000497281
v 0.0287201 0.0470227 0.0647734
v 0.00351193 -0.12558 -0.054882
v 0.0114522 -0.126129 -0.0537865
v -0.0138711 -0.126413 -0.0533398
v 0.0390762 0.0387882 0.000497352
v -0.0439361 -0.0117967 0.108632
v -0.0462278 -0.00365254 0.107627
v -0.0487421 -0.193999 0.0259655
v -0.0548289 0.00642324 0.000591963
v -0.0534466 -0.118112 -0.0131661
v -0.0551534 -0.19401 0.00510135
v -0.0545204 -0.194 -0.00818656
v -0.0358292 -0.125777 -0.0418274
v -0.0511798 0.0205574 0.000498796
v -0.00343009 -0.125759 -0.0548761
v -0.0179118 0.0521237 0.000504139
v -0.0214171 0.0509056 0.0645642
v -0.00776943 0.0545048 0.0645032
v -0.00246019 0.05522 0.000492765
v -0.0512272 0.0203715 0.0627504
v 0.053404 -0.118713 -0.0135225
v 0.000751583 -0.00741707 0.129075
v -0.00348431 -0.0167312 0.127099
v 0.00626452 -0.0182407 0.126383
v 0.00559829 -0.194 0.0549029
v 0.0379164 -0.0147356 0.113617
v 0.0462819 -0.00300058 0.107483
v 0.0477805 -0.194 0.0274755
v 0.0534314 -0.194 0.013614
v 0.0446073 -0.0117334 0.107859
v -0.0100452 -0.00110755 0.128719
v -0.00688605 0.00774291 0.128603
v -0.0150385 0.0113995 0.126577
v -0.0366572 -0.01521 0.114621
v 0.0445974 0.0322464 0.0639897
v 0.0517857 0.00163012 0.0815724
v 0.0494481 0.017366 0.0790175
v 0.0282936 -0.194 -0.0472499
v 0.0458178 -0.194 -0.0305876
v 0.0373247 -0.194 -0.0405746
v -0.0517812 0.00221134 0.0817068
v -0.054916 0.00463229 0.0610593
v -0.0374301 -0.194 0.0406659
v -0.0276795 -0.126212 -0.0476675
v -0.0452128 0.0314492 0.0634568
v -0.0395945 0.0333466 0.0831425
v -0.00855073 0.0509026 0.0845959
v -0.0197877 0.0474677 0.0851107
v -0.0130229 0.0448056 0.107063
v -0.025218 0.0448655 0.0847447
v -0.0313187 0.0409526 0.0839825
v 0.00337921 0.0550079 0.0644398
v 0.0517594 -0.194 -0.0190919
v 0.0190505 -0.0172288 0.123856
v -0.014125 -0.0095805 0.127168
v 0.0298218 -0.00866372 0.120929
v 0.0240752 -0.00408641 0.1245
v 0.00397345 0.000518457 0.129489
v -0.0208855 -0.000462331 0.12582
v -0.0129757 -0.194 -0.0535885
v -4.27424e-05 -0.194 -0.0550966
v 0.0364876 0.0411348 0.0655198
v -0.0430603 -0.123826 -0.0343229
v 0.00901678 0.0126839 0.127561
v 0.00261172 0.00856949 0.128877
v 0.0118591 -0.00831063 0.127792
v 0.0137665 0.0204527 0.124378
v 0.0176171 0.00425055 0.126807
v 0.0260309 0.00970153 0.122739
v 0.0459354 0.00673847 0.107678
v 0.0392982 -0.00592915 0.114605
v 0.0363838 0.0032781 0.117268
v -0.0255566 0.00795001 0.123264
v -0.0236907 0.0215258 0.120405
v -0.0323034 0.015809 0.1176
v -0.00434828 0.0171063 0.126883
v -0.0144221 0.0199306 0.124302
v 0.0486098 0.0101519 0.0933213
v -0.0462521 0.00699219 0.106752
v -0.0427638 0.00539408 0.111331
v -0.0267486 -0.194 -0.0482902
v 0.016019 -0.194 -0.0528808
v -0.0514251 0.0132731 0.0747568
v -0.0465312 0.023048 0.0822049
v -0.0374757 0.0275452 0.107331
v -0.0425322 0.018274 0.107673
v -0.0266734 0.0324841 0.112352
v -0.0311617 0.0343971 0.107352
v 0.00196963 0.0512017 0.0866911
v -0.0440648 0.0154429 0.10713
v 0.000309921 0.0235193 0.124821
v 0.0331091 0.0137207 0.117691
v -0.0302799 0.00225558 0.121284
v -0.0362039 0.00731356 0.116785
v -0.0313528 -0.00896166 0.119999
v -0.0381205 -0.194 -0.0397839
v 0.0438507 0.0239595 0.0918484
v 0.0399564 0.0325702 0.084039
v -0.017877 0.0426078 0.107975
v -0.00582199 0.0430587 0.110978
v -0.00952703 0.0376232 0.115319
v -0.0171561 0.0323609 0.117111
v -0.0244552 0.0394989 0.107471
v -0.0387607 0.0166246 0.112248
v -0.032079 0.0257153 0.113308
v 0.0169924 0.0287418 0.119516
v 0.00312588 0.0325689 0.119968
v -0.00276387 0.046319 0.107409
v 0.0114487 0.0500631 0.0856468
v 0.0424678 0.0187545 0.107658
v 0.0365812 0.0285008 0.107512
v 0.0341516 0.0224739 0.113524
v -0.0374517 -0.00313331 0.116357
v 0.00294327 0.0404966 0.113812
v -0.0117918 0.0286979 0.120959
v 0.01203 0.0394531 0.11315
v 0.0204365 0.0372159 0.111937
v 0.00874197 0.0456755 0.107309
v 0.0277535 0.0252894 0.116309
v 0.0242468 0.019117 0.120984
v 0.0393956 0.0156438 0.11198
v 0.0200004 0.0467444 0.0881052
v 0.026041 0.038696 0.106945
v 0.0196621 0.0420999 0.107295
v 0.0249062 0.0313688 0.114376
v 0.0317282 0.0340296 0.107127
f 1 2 3
f 1 4 2
f 5 6 1
f 6 7 1
f 5 8 6
f 9 1 10
f 11 12 13
f 14 15 16
f 17 18 19
f 20 18 17
f 21 22 23
f 24 25 26
f 25 24 27
f 28 25 29
f 28 26 25
f 16 30 14
f 8 31 6
f 29 31 8
f 29 25 31
f 7 4 1
f 5 1 9
f 32 33 34
f 35 12 36
f 37 35 38
f 39 35 40
f 16 41 30
f 42 41 16
f 16 43 42
f 44 42 43
f 44 45 42
f 46 40 35
f 3 47 1
f 48 49 50
f 49 51 50
f 49 19 51
f 52 21 23
f 53 54 55
f 53 56 54
f 52 23 56
f 57 58 59
f 18 20 60
f 28 45 26
f 7 6 61
f 2 4 62
f 4 7 63
f 8 5 64
f 9 65 66
f 10 65 9
f 66 5 9
f 33 67 37
f 67 68 37
f 36 11 38
f 32 69 60
f 36 12 11
f 38 35 36
f 68 35 37
f 70 39 40
f 15 71 72
f 41 42 45
f 41 45 28
f 73 43 74
f 73 74 75
f 76 43 15
f 15 77 76
f 43 16 15
f 78 26 45
f 78 24 26
f 79 47 3
f 1 47 10
f 80 51 22
f 80 50 51
f 81 49 48
f 82 83 80
f 21 80 22
f 56 23 54
f 55 3 2
f 2 62 55
f 84 57 48
f 57 81 48
f 33 37 34
f 85 57 59
f 69 18 60
f 86 41 87
f 53 55 62
f 31 61 6
f 61 31 88
f 31 25 88
f 32 34 69
f 35 39 89
f 14 71 15
f 44 78 45
f 79 10 47
f 90 91 84
f 49 17 19
f 92 48 50
f 49 81 17
f 93 94 95
f 80 21 82
f 96 97 53
f 96 98 97
f 99 100 101
f 81 57 85
f 102 103 59
f 90 94 93
f 85 59 99
f 41 28 87
f 62 96 53
f 62 104 96
f 5 66 64
f 65 10 79
f 105 33 106
f 67 33 105
f 30 70 14
f 70 40 14
f 79 107 86
f 66 65 79
f 79 19 18
f 23 22 79
f 79 108 64
f 79 55 54
f 79 22 51
f 79 51 19
f 79 54 23
f 79 86 87
f 79 64 66
f 87 108 79
f 79 3 55
f 109 110 46
f 71 40 46
f 40 71 14
f 110 72 71
f 111 110 112
f 110 71 46
f 107 70 30
f 76 74 43
f 111 113 114
f 43 73 44
f 115 44 73
f 116 109 105
f 68 109 46
f 68 46 35
f 102 91 117
f 48 92 84
f 94 90 84
f 94 83 95
f 95 98 118
f 80 83 92
f 97 52 56
f 84 58 57
f 84 91 58
f 119 99 101
f 120 119 101
f 58 102 59
f 117 90 93
f 91 90 117
f 117 103 102
f 85 121 81
f 28 108 87
f 108 28 29
f 41 86 30
f 89 12 35
f 39 122 89
f 7 123 63
f 88 124 61
f 4 63 104
f 104 62 4
f 64 108 8
f 108 29 8
f 116 105 106
f 105 109 67
f 38 122 107
f 79 38 107
f 38 13 122
f 38 11 13
f 38 34 37
f 38 69 34
f 18 69 38
f 38 79 18
f 122 39 107
f 110 109 116
f 75 74 125
f 126 75 125
f 127 126 125
f 113 128 125
f 113 125 129
f 111 112 130
f 131 111 130
f 100 128 113
f 113 131 100
f 113 111 131
f 111 72 110
f 44 115 78
f 68 67 109
f 125 128 127
f 132 133 93
f 126 134 75
f 135 78 115
f 135 24 78
f 134 115 73
f 136 137 138
f 95 83 98
f 92 50 80
f 21 52 97
f 97 82 21
f 101 131 130
f 103 100 59
f 106 33 139
f 120 101 130
f 58 91 102
f 126 127 140
f 140 127 133
f 141 117 133
f 117 141 103
f 121 60 20
f 89 122 13
f 89 13 12
f 27 88 25
f 121 139 60
f 39 70 107
f 77 129 76
f 74 76 129
f 74 129 125
f 114 129 77
f 77 15 72
f 127 128 141
f 94 92 83
f 94 84 92
f 142 132 143
f 142 133 132
f 144 140 142
f 135 115 144
f 145 146 118
f 118 138 145
f 95 118 146
f 93 95 146
f 136 138 147
f 53 97 56
f 97 98 82
f 82 98 83
f 112 110 116
f 106 139 120
f 99 59 100
f 100 141 128
f 141 133 127
f 20 81 121
f 20 17 81
f 148 149 27
f 124 123 61
f 7 61 123
f 60 139 32
f 139 33 32
f 107 30 86
f 129 114 113
f 72 114 77
f 72 111 114
f 140 134 126
f 134 73 75
f 150 144 142
f 150 142 143
f 150 149 148
f 136 123 137
f 151 143 132
f 124 137 123
f 151 138 137
f 106 112 116
f 141 100 103
f 120 139 119
f 121 119 139
f 119 121 85
f 99 119 85
f 117 93 133
f 63 136 104
f 123 136 63
f 134 140 144
f 115 134 144
f 136 96 104
f 145 138 151
f 132 93 146
f 152 137 124
f 96 136 147
f 147 138 118
f 106 130 112
f 130 106 120
f 101 100 131
f 142 140 133
f 88 149 152
f 88 27 149
f 24 148 27
f 152 151 137
f 150 143 149
f 148 24 135
f 144 150 148
f 132 145 151
f 132 146 145
f 152 124 88
f 98 96 147
f 98 147 118
f 143 151 149
f 151 152 149
f 148 135 144
