v -0.00122674 -0.0946137 -3.24928e-05
v 0.0710809 0.00844602 0.00133993
v 0.071567 -0.00127396 0.0013494
v -0.00051723 0.0946704 -6.42576e-06
v 0.0706646 -0.0115626 0.00133336
v -0.135131 -0.0658707 0.00751985
v -0.136305 -0.0659457 3.26395e-07
v -0.131625 -0.0687992 -5.27309e-07
v 0.0543353 -0.0469489 0.00104792
v 0.0619449 -0.0359785 0.00118116
v 0.0673593 -0.0245271 0.00127621
v 0.0526517 -0.0163561 0.14
v 0.0548547 0.00447165 0.14
v -0.0549666 0.00345713 0.14
v 0.0391015 0.0387489 0.14
v 0.00777804 -0.0910717 0.00846191
v 0.0395665 -0.0384696 0.140003
v -0.029337 -0.0466451 0.140001
v 0.000349224 -0.0550819 0.14
v 0.0686186 0.0208178 0.00129774
v 0.0635871 0.0329931 0.00120988
v 0.0525783 0.048771 0.00101755
v 0.05859 0.0412413 0.00112268
v 0.0509475 0.0207886 0.14
v -0.0218528 0.0506849 0.14
v -0.0317059 0.0450099 0.14
v 0.0317161 0.0450507 0.14
v 0.00485769 0.0549582 0.14
v -0.00886536 0.0543586 0.140002
v 0.0276805 -0.0476799 0.14
v -0.054766 -0.0054659 0.14
v -0.0528838 -0.015585 0.14
v -0.122615 0.00563594 0.0611487
v -0.122711 -0.00614431 0.060957
v 0.0143701 -0.0532489 0.139999
v -0.071675 -0.0756205 0.0575204
v -0.111235 -0.0474773 0.0590551
v -0.137824 -0.0624363 0.00755269
v -0.133699 0.0669321 0.00741502
v -0.13583 0.0663151 8.33834e-07
v -0.136293 0.0646171 0.00756638
v -0.131612 0.0688472 7.4968e-07
v 0.0031716 0.0933497 0.00863144
v 0.00408648 0.0939818 0.000170711
v 0.0474762 -0.0279259 0.14
v 0.0462474 0.0300326 0.14
v 0.0548768 -0.00456585 0.14
v -0.129159 0.0686836 0.00744486
v -0.0477037 0.0275963 0.14
v -0.0528609 0.0157105 0.14
v 0.0200202 0.0514462 0.139999
v 0.00648893 0.0735192 0.08108
v 0.00826788 -0.0918247 0.00024289
v -0.0464371 -0.0299037 0.14
v -0.140043 0.0607227 -1.6486e-07
v 0.00769447 0.0922715 0.000234291
v -0.00159938 0.0936322 0.00849181
v 0.00734398 0.0914466 0.00831775
v -0.148808 -0.0420547 -7.21858e-08
v -0.149244 -0.0371861 0.00781712
v -0.152578 -0.0248176 1.68373e-07
v 0.00907648 0.0737151 0.0784549
v -0.121673 -0.0147367 0.0614178
v 0.00678171 -0.0735316 0.0809757
v -0.130951 -0.0681401 0.00766805
v -0.0189172 -0.051755 0.14
v -0.00908423 -0.0542971 0.14
v -0.0658985 -0.0765477 0.0589793
v -0.0376956 -0.0401377 0.14
v -0.143472 -0.0548617 -4.38612e-08
v -0.145452 -0.0485961 0.00768247
v -0.1203 -0.0235449 0.0615099
v -0.118609 -0.03105 0.06134
v -0.114761 -0.0419663 0.0601784
v -0.154079 -0.00554168 -3.75503e-07
v -0.152725 -0.0137992 0.00819143
v -0.153166 -0.00203576 0.00835078
v -0.142117 0.0555469 0.00762839
v 0.0535544 0.0128185 0.14
v -0.109983 0.0486112 0.0588796
v 0.00366946 -0.0932492 0.00847566
v 0.00349566 -0.0942157 0.000177738
v 0.00906588 -0.073708 0.0785962
v -0.117004 -0.0366378 0.0608364
v -0.151587 -0.0248333 0.00804774
v -0.15241 0.0258275 -1.09161e-08
v -0.153841 0.0105757 0
v -0.15202 0.0217804 0.00810954
v -0.121149 0.0181378 0.0615703
v -0.0400853 0.0378337 0.14
v -0.113238 0.0447149 0.0596848
v -0.000866581 -0.0937369 0.00817823
v -0.141842 -0.0559592 0.00761703
v -0.149634 0.0355816 0.00786878
v -0.14929 0.0402499 3.01802e-07
v -0.152949 0.0100689 0.00821985
v -0.145377 0.0508924 -1.27878e-07
v -0.11571 0.0395945 0.0607111
v -0.0231112 -0.0759725 0.0689683
v -0.117233 0.035881 0.060957
v -0.146172 0.0467529 0.00770437
v -0.119414 0.0287903 0.0611397
f 1 2 3
f 4 2 1
f 3 5 1
f 6 7 8
f 9 1 10
f 1 11 10
f 12 13 14
f 13 15 14
f 2 13 3
f 16 9 17
f 14 18 19
f 20 2 4
f 21 20 4
f 22 23 4
f 23 21 4
f 1 5 11
f 13 24 15
f 20 21 24
f 25 26 14
f 15 27 14
f 14 28 25
f 29 25 28
f 30 17 14
f 31 32 14
f 33 34 14
f 14 34 31
f 35 30 14
f 19 35 14
f 36 18 37
f 7 6 38
f 39 40 41
f 42 40 39
f 4 43 44
f 17 45 14
f 9 45 17
f 10 45 9
f 14 45 12
f 11 45 10
f 12 45 11
f 21 23 46
f 13 47 3
f 12 47 13
f 25 29 48
f 14 49 50
f 51 28 14
f 27 51 14
f 52 29 28
f 9 53 1
f 32 54 14
f 55 41 40
f 56 44 43
f 4 44 56
f 57 43 4
f 52 43 57
f 56 22 4
f 56 58 22
f 58 15 22
f 59 60 61
f 24 46 15
f 24 21 46
f 47 5 3
f 5 12 11
f 48 4 42
f 4 48 57
f 29 52 57
f 39 26 25
f 51 27 62
f 9 16 53
f 34 63 31
f 35 19 64
f 37 6 36
f 8 65 6
f 6 65 36
f 18 66 19
f 67 19 66
f 66 68 67
f 37 69 54
f 70 71 59
f 72 73 32
f 54 74 37
f 56 43 58
f 75 76 77
f 61 76 75
f 78 41 55
f 79 24 13
f 24 79 20
f 2 79 13
f 20 79 2
f 15 46 22
f 22 46 23
f 47 12 5
f 25 48 39
f 57 48 29
f 39 80 26
f 58 43 62
f 58 62 27
f 81 53 16
f 81 82 53
f 53 82 1
f 16 83 81
f 30 83 16
f 36 66 18
f 68 66 36
f 8 36 65
f 1 36 8
f 68 36 1
f 37 18 69
f 69 18 14
f 54 69 14
f 71 74 84
f 7 38 70
f 59 71 60
f 58 27 15
f 61 60 85
f 85 76 61
f 86 87 88
f 50 89 14
f 39 48 42
f 14 26 90
f 39 41 80
f 41 91 80
f 52 62 43
f 51 52 28
f 62 52 51
f 30 16 17
f 64 83 35
f 30 35 83
f 68 1 92
f 82 92 1
f 74 71 93
f 93 71 70
f 6 37 74
f 38 93 70
f 84 54 32
f 73 84 32
f 86 94 95
f 33 96 77
f 75 96 87
f 77 96 75
f 87 96 88
f 97 78 55
f 90 49 14
f 49 91 98
f 90 91 49
f 26 80 90
f 91 90 80
f 72 63 85
f 64 81 83
f 92 64 99
f 93 38 74
f 71 84 60
f 60 84 73
f 60 73 72
f 33 77 34
f 34 76 63
f 98 91 78
f 78 100 98
f 97 101 78
f 95 101 97
f 63 72 31
f 72 32 31
f 68 92 99
f 19 68 99
f 67 68 19
f 92 81 64
f 92 82 81
f 99 64 19
f 84 74 54
f 38 6 74
f 63 76 85
f 76 34 77
f 85 60 72
f 86 88 94
f 78 101 100
f 102 89 50
f 33 14 89
f 91 41 78
f 95 94 101
f 49 98 50
f 100 50 98
f 102 50 100
f 88 96 33
f 33 89 88
f 101 102 100
f 94 88 102
f 89 102 88
f 101 94 102
f 4 1 86
f 4 86 42
f 1 8 86
f 59 86 70
f 75 86 61
f 55 86 97
f 55 40 86
f 42 86 40
f 8 7 86
f 61 86 59
f 97 86 95
f 70 86 7
f 87 86 75
