v -1.18901 6.00632 62.7489
v -1.18901 6.00228 64.4155
v -1.1 6.01635 62.7489
v -1.18901 5.99825 66.0822
v -1.1 6.00424 67.7489
v -1.18901 5.99421 67.7488
v -1.27355 5.96463 67.7488
v -1.27355 5.96866 66.0821
v -1.3494 5.91697 67.7487
v -1.3494 5.92101 66.082
v -1.41273 5.85364 67.7485
v -1.41273 5.85767 66.0818
v -1.46039 5.77779 67.7483
v -1.46039 5.78183 66.0817
v -1.48997 5.69325 67.7481
v -1.48997 5.69729 66.0815
v -1.5 5.60424 67.7479
v -1.48997 5.70132 64.4148
v -1.5 5.61635 62.7479
v -1.48997 5.70536 62.7481
v -1.46039 5.7899 62.7483
v -1.46039 5.78587 64.415
v -1.41273 5.86574 62.7485
v -1.41273 5.86171 64.4152
v -1.3494 5.92908 62.7487
v -1.3494 5.92505 64.4153
v -1.27355 5.97674 62.7488
v -1.27355 5.9727 64.4155
v -1 6.00424 67.7489
v -1.5 5.40424 67.7474
v -1.1 5.00424 67.7465
v -1.48997 5.31523 67.7472
v -1.46039 5.23069 67.747
v -1.41273 5.15485 67.7468
v -1.3494 5.09151 67.7467
v -1.27355 5.04386 67.7465
v -1.18901 5.01427 67.7465
v 1.1 5.00424 67.7465
v 1 6.00424 67.7489
v -1 7.00424 67.7513
v 1 7.00424 67.7513
v 1.18901 5.01427 67.7465
v 1.27355 5.04386 67.7465
v 1.3494 5.09151 67.7467
v 1.41273 5.15485 67.7468
v 1.46039 5.23069 67.747
v 1.48997 5.31523 67.7472
v 1.5 5.40424 67.7474
v 1.5 5.60424 67.7479
v 1.48997 5.69325 67.7481
v 1.46039 5.77779 67.7483
v 1.41273 5.85364 67.7485
v 1.1 6.00424 67.7489
v 1.3494 5.91697 67.7487
v 1.27355 5.96463 67.7488
v 1.18901 5.99421 67.7488
v -1.5 5.41635 62.7474
v -1.48997 5.32734 62.7472
v -1.48997 5.32331 64.4139
v -1.48997 5.31927 66.0805
v -1.46039 5.23472 66.0803
v -1.41273 5.15888 66.0802
v -1.3494 5.09555 66.08
v -1.27355 5.04789 66.0799
v -1.18901 5.01831 66.0798
v -1.18901 5.02234 64.4132
v -1.1 5.01635 62.7465
v -1.18901 5.02638 62.7465
v -1.27355 5.05596 62.7466
v -1.27355 5.05193 64.4132
v -1.3494 5.10362 62.7467
v -1.3494 5.09958 64.4133
v -1.41273 5.16695 62.7468
v -1.41273 5.16292 64.4135
v -1.46039 5.2428 62.747
v -1.46039 5.23876 64.4137
v 1.18901 5.99825 66.0822
v 1.18901 6.00228 64.4155
v 1.1 6.01635 62.7489
v 1.18901 6.00632 62.7489
v 1.27355 5.97674 62.7488
v 1.27355 5.9727 64.4155
v 1.3494 5.92908 62.7487
v 1.3494 5.92505 64.4153
v 1.41273 5.86574 62.7485
v 1.41273 5.86171 64.4152
v 1.46039 5.7899 62.7483
v 1.46039 5.78587 64.415
v 1.48997 5.70536 62.7481
v 1.48997 5.70132 64.4148
v 1.5 5.61635 62.7479
v 1.48997 5.69729 66.0815
v 1.46039 5.78183 66.0817
v 1.41273 5.85767 66.0818
v 1.3494 5.92101 66.082
v 1.27355 5.96866 66.0821
v 1.5 5.41635 62.7474
v 1.48997 5.31927 66.0805
v 1.48997 5.32331 64.4139
v 1.48997 5.32734 62.7472
v 1.46039 5.2428 62.747
v 1.46039 5.23876 64.4137
v 1.41273 5.16695 62.7468
v 1.41273 5.16292 64.4135
v 1.3494 5.10362 62.7467
v 1.3494 5.09958 64.4133
v 1.27355 5.05596 62.7466
v 1.27355 5.05193 64.4132
v 1.18901 5.02638 62.7465
v 1.18901 5.02234 64.4132
v 1.1 5.01635 62.7465
v 1.18901 5.01831 66.0798
v 1.27355 5.04789 66.0799
v 1.3494 5.09555 66.08
v 1.41273 5.15888 66.0802
v 1.46039 5.23472 66.0803
v -1 6.01635 62.7489
v -1 7.01635 62.7513
v 1 6.01635 62.7489
v 1 7.01635 62.7513
v -4.98102 9.51281 64.2123
v -4.98102 9.01282 64.2111
v -4.97084 9.51316 64.07
v -4.97084 9.01316 64.0687
v -4.98102 9.5135 63.9276
v -4.98102 9.0135 63.9264
v -5.01135 9.51384 63.7882
v -5.01135 9.01384 63.787
v -5.06121 9.51416 63.6545
v -5.06121 9.01417 63.6533
v -5.12958 9.51447 63.5293
v -5.12958 9.01447 63.5281
v -5.21509 9.51474 63.4151
v -5.21509 9.01475 63.4139
v -5.31598 9.51499 63.3142
v -5.31598 9.01499 63.313
v -5.4302 9.5152 63.2287
v -5.4302 9.0152 63.2275
v -5.55542 9.51536 63.1603
v -5.55542 9.01536 63.1591
v -5.68911 9.51548 63.1105
v -5.68911 9.01548 63.1093
v -5.82852 9.51556 63.0801
v -5.82852 9.01556 63.0789
v -5.97084 9.51558 63.07
v -5.97084 9.01558 63.0687
v -6.11315 9.51556 63.0801
v -6.11315 9.01556 63.0789
v -6.25257 9.51548 63.1105
v -6.25257 9.01548 63.1093
v -6.38625 9.51536 63.1603
v -6.38625 9.01536 63.1591
v -6.51148 9.5152 63.2287
v -6.51148 9.0152 63.2275
v -6.6257 9.51499 63.3142
v -6.6257 9.01499 63.313
v -6.72659 9.51474 63.4151
v -6.72659 9.01475 63.4139
v -6.81209 9.51447 63.5293
v -6.81209 9.01447 63.5281
v -6.88047 9.51416 63.6545
v -6.88047 9.01417 63.6533
v -6.93033 9.51384 63.7882
v -6.93033 9.01384 63.787
v -6.96066 9.5135 63.9276
v -6.96066 9.0135 63.9264
v -6.97084 9.51316 64.07
v -6.97084 9.01316 64.0687
v -6.96066 9.51281 64.2123
v -6.96066 9.01282 64.2111
v -6.93033 9.51248 64.3517
v -6.93033 9.01248 64.3505
v -6.88047 9.51215 64.4854
v -6.88047 9.01215 64.4842
v -6.81209 9.51185 64.6106
v -6.81209 9.01185 64.6094
v -6.72659 9.51157 64.7248
v -6.72659 9.01157 64.7236
v -6.6257 9.51133 64.8257
v -6.6257 9.01133 64.8245
v -6.51148 9.51112 64.9112
v -6.51148 9.01112 64.91
v -6.38625 9.51096 64.9796
v -6.38625 9.01096 64.9784
v -6.25257 9.51084 65.0294
v -6.25257 9.01084 65.0282
v -6.11315 9.51076 65.0598
v -6.11315 9.01076 65.0586
v -5.97084 9.51074 65.0699
v -5.97084 9.01074 65.0687
v -5.82852 9.51076 65.0598
v -5.82852 9.01076 65.0586
v -5.68911 9.51084 65.0294
v -5.68911 9.01084 65.0282
v -5.55542 9.51096 64.9796
v -5.55542 9.01096 64.9784
v -5.4302 9.51112 64.9112
v -5.4302 9.01112 64.91
v -5.31598 9.51133 64.8257
v -5.31598 9.01133 64.8245
v -5.21509 9.51157 64.7248
v -5.21509 9.01157 64.7236
v -5.12958 9.51185 64.6106
v -5.12958 9.01185 64.6094
v -5.06121 9.51215 64.4854
v -5.06121 9.01215 64.4842
v -5.01135 9.51248 64.3517
v -5.01135 9.01248 64.3505
v -1.98102 9.50918 65.7123
v -1.98102 9.00918 65.7111
v -1.97084 9.50953 65.5699
v -1.97084 9.00953 65.5687
v -1.98102 9.50987 65.4276
v -1.98102 9.00987 65.4264
v -2.01135 9.51021 65.2882
v -2.01135 9.01021 65.287
v -2.06121 9.51053 65.1545
v -2.06121 9.01053 65.1533
v -2.12959 9.51084 65.0293
v -2.12959 9.01084 65.0281
v -2.21509 9.51111 64.9151
v -2.21509 9.01111 64.9139
v -2.31598 9.51136 64.8142
v -2.31598 9.01136 64.813
v -2.4302 9.51156 64.7287
v -2.4302 9.01157 64.7275
v -2.55542 9.51173 64.6603
v -2.55542 9.01173 64.6591
v -2.68911 9.51185 64.6105
v -2.68911 9.01185 64.6092
v -2.82852 9.51192 64.5801
v -2.82852 9.01193 64.5789
v -2.97084 9.51195 64.57
v -2.97084 9.01195 64.5687
v -3.11315 9.51192 64.5801
v -3.11315 9.01193 64.5789
v -3.25257 9.51185 64.6105
v -3.25257 9.01185 64.6092
v -3.38625 9.51173 64.6603
v -3.38625 9.01173 64.6591
v -3.51148 9.51156 64.7287
v -3.51148 9.01157 64.7275
v -3.6257 9.51136 64.8142
v -3.6257 9.01136 64.813
v -3.72659 9.51111 64.9151
v -3.72659 9.01111 64.9139
v -3.81209 9.51084 65.0293
v -3.81209 9.01084 65.0281
v -3.88047 9.51053 65.1545
v -3.88047 9.01053 65.1533
v -3.93033 9.51021 65.2882
v -3.93033 9.01021 65.287
v -3.96066 9.50987 65.4276
v -3.96066 9.00987 65.4264
v -3.97084 9.50953 65.5699
v -3.97084 9.00953 65.5687
v -3.96066 9.50918 65.7123
v -3.96066 9.00918 65.7111
v -3.93033 9.50885 65.8517
v -3.93033 9.00885 65.8505
v -3.88047 9.50852 65.9854
v -3.88047 9.00852 65.9842
v -3.81209 9.50822 66.1106
v -3.81209 9.00822 66.1094
v -3.72659 9.50794 66.2248
v -3.72659 9.00794 66.2236
v -3.6257 9.5077 66.3257
v -3.6257 9.0077 66.3245
v -3.51148 9.50749 66.4112
v -3.51148 9.00749 66.41
v -3.38625 9.50732 66.4796
v -3.38625 9.00733 66.4784
v -3.25257 9.5072 66.5294
v -3.25257 9.00721 66.5282
v -3.11315 9.50713 66.5598
v -3.11315 9.00713 66.5586
v -2.97084 9.50711 66.5699
v -2.97084 9.00711 66.5687
v -2.82852 9.50713 66.5598
v -2.82852 9.00713 66.5586
v -2.68911 9.5072 66.5294
v -2.68911 9.00721 66.5282
v -2.55542 9.50732 66.4796
v -2.55542 9.00733 66.4784
v -2.4302 9.50749 66.4112
v -2.4302 9.00749 66.41
v -2.31598 9.5077 66.3257
v -2.31598 9.0077 66.3245
v -2.21509 9.50794 66.2248
v -2.21509 9.00794 66.2236
v -2.12959 9.50822 66.1106
v -2.12959 9.00822 66.1094
v -2.06121 9.50852 65.9854
v -2.06121 9.00852 65.9842
v -2.01135 9.50885 65.8517
v -2.01135 9.00885 65.8505
v 4.0272 9.50241 68.5073
v 4.0272 9.00242 68.5061
v 4.00928 9.50274 68.3715
v 4.00928 9.00274 68.3703
v 3.97296 9.50306 68.2394
v 3.97296 9.00306 68.2382
v 3.91893 9.50337 68.1135
v 3.91893 9.00337 68.1123
v 3.8482 9.50365 67.9962
v 3.8482 9.00365 67.995
v 3.7621 9.50391 67.8896
v 3.7621 9.00391 67.8884
v 3.66224 9.50414 67.7959
v 3.66224 9.00414 67.7946
v 3.5505 9.50433 67.7166
v 3.5505 9.00433 67.7154
v 3.42898 9.50448 67.6533
v 3.42898 9.00448 67.6521
v 3.29995 9.50459 67.6073
v 3.29995 9.00459 67.6061
v 3.16584 9.50466 67.5793
v 3.16584 9.00466 67.5781
v 3.02916 9.50468 67.5699
v 3.02916 9.00469 67.5687
v 2.89249 9.50466 67.5793
v 2.89249 9.00466 67.5781
v 2.75837 9.50459 67.6073
v 2.75837 9.00459 67.6061
v 2.62934 9.50448 67.6533
v 2.62934 9.00448 67.6521
v 2.50782 9.50433 67.7166
v 2.50782 9.00433 67.7154
v 2.39608 9.50414 67.7959
v 2.39608 9.00414 67.7946
v 2.29622 9.50391 67.8896
v 2.29622 9.00391 67.8884
v 2.21012 9.50365 67.9962
v 2.21012 9.00365 67.995
v 2.13939 9.50337 68.1135
v 2.13939 9.00337 68.1123
v 2.08536 9.50306 68.2394
v 2.08536 9.00306 68.2382
v 2.04904 9.50274 68.3715
v 2.04904 9.00274 68.3703
v 2.03112 9.50241 68.5073
v 2.03112 9.00242 68.5061
v -3.179 9.01442 63.5468
v -3.31326 9.01452 63.5083
v -3.44084 9.01466 63.4514
v -3.55925 9.01484 63.3773
v -5.68911 9.00822 66.1092
v -5.55542 9.0081 66.1591
v -5.4302 9.00793 66.2275
v -5.31598 9.00773 66.313
v -5.21509 9.00748 66.4139
v -5.12958 9.00721 66.5281
v -5.06121 9.0069 66.6533
v -5.01135 9.00658 66.787
v -4.98102 9.00624 66.9264
v -4.97084 9.0059 67.0687
v -3.24163 9.00459 67.6061
v -4.98102 9.00555 67.211
v -3.37066 9.00448 67.6521
v -5.01135 9.00521 67.3505
v -3.49218 9.00433 67.7154
v -5.06121 9.00489 67.4841
v -3.60392 9.00414 67.7946
v -5.12958 9.00459 67.6094
v -3.70378 9.00391 67.8884
v -5.21509 9.00431 67.7236
v -3.78988 9.00365 67.995
v -5.31598 9.00407 67.8245
v -3.86061 9.00337 68.1123
v -5.4302 9.00386 67.91
v -3.91464 9.00306 68.2382
v -5.55542 9.00369 67.9784
v -5.5 9.00242 68.5061
v -5.68911 9.00357 68.0282
v -5.66795 9.00244 68.4967
v -5.82852 9.0035 68.0585
v -5.83378 9.00251 68.4685
v -5.99542 9.00262 68.422
v -6.15083 9.00278 68.3576
v -5.97084 9.00348 68.0687
v -6.29805 9.00297 68.2762
v -6.11315 9.0035 68.0585
v -6.43524 9.00321 68.1789
v -6.25257 9.00357 68.0282
v -6.56066 9.00348 68.0668
v -6.38625 9.00369 67.9784
v -6.51148 9.00386 67.91
v -5.82852 9.00829 66.0789
v -5.97084 9.00832 66.0687
v -6.11315 9.00829 66.0789
v -6.25257 9.00822 66.1092
v -6.38625 9.0081 66.1591
v -6.51148 9.00793 66.2275
v -6.6257 9.00773 66.313
v -6.72659 9.00748 66.4139
v -6.81209 9.00721 66.5281
v -6.88047 9.0069 66.6533
v -6.93033 9.00658 66.787
v -7 9.00605 67.0061
v -6.96066 9.00624 66.9264
v -6.97084 9.0059 67.0687
v -6.99057 9.00564 67.1741
v -6.96066 9.00555 67.211
v -6.96239 9.00524 67.3399
v -6.93033 9.00521 67.3505
v -6.91582 9.00485 67.5016
v -6.88047 9.00489 67.4841
v -6.81209 9.00459 67.6094
v -6.85145 9.00447 67.657
v -6.72659 9.00431 67.7236
v -6.77009 9.00412 67.8042
v -6.6257 9.00407 67.8245
v -6.67275 9.00378 67.9414
v -7 9.01452 63.5073
v -6.99057 9.01493 63.3394
v -6.96239 9.01533 63.1736
v -6.91582 9.01572 63.0119
v -6.85145 9.0161 62.8565
v -6.77009 9.01645 62.7093
v -6.67275 9.01678 62.5721
v -6.56066 9.01709 62.4467
v -6.43524 9.01736 62.3346
v -6.29805 9.0176 62.2373
v -5.5 9.01815 62.0074
v -6.15083 9.01779 62.1559
v -5.99542 9.01795 62.0915
v -5.83378 9.01806 62.045
v -5.66795 9.01813 62.0168
v -3.97016 9.01688 62.5319
v -3.95527 9.01722 62.393
v -3.96555 9.01654 62.6715
v -3.94153 9.01621 62.8091
v -3.89857 9.01589 62.942
v -3.83751 9.01558 63.0676
v -3.75954 9.0153 63.1835
v -3.66618 9.01505 63.2874
v -0.196016 9.00826 66.0944
v -0.196016 9.0108 65.0431
v -0.331115 9.0109 65.0016
v -0.459019 9.01105 64.9415
v -0.577173 9.01124 64.864
v -0.683217 9.01146 64.7705
v -0.775034 9.01172 64.6631
v -0.85079 9.01201 64.5438
v -0.908972 9.01232 64.415
v -0.948417 9.01265 64.2793
v -0.968339 9.01299 64.1394
v -2.76268 9.01442 63.5468
v -0.968339 9.01333 63.9981
v -2.62842 9.01452 63.5083
v -0.948417 9.01367 63.8582
v -2.50084 9.01466 63.4514
v -0.908972 9.014 63.7225
v -2.38243 9.01484 63.3773
v -0.85079 9.01431 63.5937
v -2.2755 9.01505 63.2874
v -0.775034 9.0146 63.4744
v -2.18214 9.0153 63.1835
v -0.683217 9.01486 63.3669
v -2.10417 9.01558 63.0676
v -0.577173 9.01509 63.2735
v -2.04311 9.01589 62.942
v -0.459019 9.01527 63.196
v -2.00015 9.01621 62.8091
v -0.331115 9.01542 63.1359
v -1.97613 9.01654 62.6715
v -0.196016 9.01552 63.0944
v -1.97152 9.01688 62.5319
v -0.0564201 9.01557 63.0724
v -1.98641 9.01722 62.393
v -2.0205 9.01755 62.2575
v 0.0848853 9.01558 63.0703
v 2.07882 9.01755 62.2575
v 2.04473 9.01722 62.393
v 0.225078 9.01554 63.0881
v 2.02984 9.01688 62.5319
v 2.03445 9.01654 62.6715
v 0.361357 9.01544 63.1255
v 2.05847 9.01621 62.8091
v 0.491003 9.01531 63.1818
v 2.10143 9.01589 62.942
v 0.611424 9.01513 63.2557
v 2.16249 9.01558 63.0676
v 0.720217 9.01491 63.3459
v 2.24046 9.0153 63.1835
v 0.815208 9.01466 63.4506
v 2.33382 9.01505 63.2874
v 0.8945 9.01437 63.5676
v 2.44075 9.01484 63.3773
v 0.95651 9.01407 63.6945
v 2.55916 9.01466 63.4514
v 1 9.01374 63.829
v 2.68674 9.01452 63.5083
v 2.821 9.01442 63.5468
v 1 9.01258 64.3085
v 2.74743 9.01185 64.6092
v 2.61375 9.01173 64.6591
v 2.48852 9.01157 64.7275
v 0.95651 9.01225 64.4429
v 2.3743 9.01136 64.813
v 0.8945 9.01195 64.5699
v 2.27341 9.01111 64.9139
v 0.815208 9.01166 64.6869
v 2.18791 9.01084 65.0281
v 0.720217 9.01141 64.7915
v 2.11953 9.01053 65.1533
v 0.611424 9.01119 64.8817
v 2.06967 9.01021 65.287
v 0.491003 9.01101 64.9557
v 2.03934 9.00987 65.4264
v 0.361357 9.01088 65.0119
v 2.02916 9.00953 65.5687
v 0.225078 9.01079 65.0494
v 0.225078 9.00827 66.0881
v 0.0848853 9.00831 66.0703
v 0.0848853 9.01074 65.0672
v -0.0564201 9.01075 65.0651
v -0.331115 9.00815 66.1359
v -0.459019 9.00801 66.196
v -0.577173 9.00782 66.2735
v -0.683217 9.0076 66.3669
v -0.775034 9.00734 66.4744
v -0.85079 9.00705 66.5937
v -0.908972 9.00673 66.7225
v -0.948417 9.00641 66.8582
v -0.968339 9.00607 66.9981
v -2.70005 9.00459 67.6061
v -0.968339 9.00572 67.1394
v -2.57102 9.00448 67.6521
v -0.948417 9.00539 67.2793
v -2.4495 9.00433 67.7154
v -0.908972 9.00506 67.415
v -2.33776 9.00414 67.7946
v -0.85079 9.00475 67.5438
v -2.2379 9.00391 67.8884
v -0.775034 9.00446 67.6631
v -2.1518 9.00365 67.995
v -0.683217 9.0042 67.7705
v -2.08107 9.00337 68.1123
v -0.577173 9.00397 67.8639
v -2.02704 9.00306 68.2382
v -0.459019 9.00378 67.9415
v -1.99072 9.00274 68.3703
v -0.331115 9.00364 68.0016
v -1.9728 9.00242 68.5061
v -0.196016 9.00354 68.043
v -0.0564201 9.00348 68.0651
v 0.0848853 9.00348 68.0672
v 0.225078 9.00352 68.0493
v 0.361357 9.00361 68.0119
v 0.491003 9.00375 67.9557
v 0.611424 9.00393 67.8817
v 0.720217 9.00415 67.7915
v 0.815208 9.0044 67.6869
v 0.8945 9.00468 67.5699
v 0.95651 9.00499 67.4429
v 1 9.00532 67.3085
v -2.83416 9.00466 67.5781
v -2.97084 9.00469 67.5687
v -3.10751 9.00466 67.5781
v -3.04068 9.01438 63.5663
v -2.901 9.01438 63.5663
v -0.0564201 9.00831 66.0724
v 0.361357 9.00818 66.1255
v 2.03934 9.00918 65.7111
v 0.491003 9.00804 66.1818
v 2.06967 9.00885 65.8505
v 0.611424 9.00786 66.2557
v 2.11953 9.00852 65.9842
v 0.720217 9.00765 66.3459
v 2.18791 9.00822 66.1094
v 0.815208 9.00739 66.4506
v 2.27341 9.00794 66.2236
v 0.8945 9.00711 66.5676
v 2.3743 9.0077 66.3245
v 0.95651 9.0068 66.6945
v 2.48852 9.00749 66.41
v 1 9.00648 66.829
v 2.61375 9.00733 66.4784
v 2.74743 9.00721 66.5282
v 2.88685 9.00713 66.5586
v 3.02916 9.00711 66.5687
v 4.01898 9.00918 65.7111
v 5.81186 9.00826 66.0926
v 4.02916 9.00953 65.5687
v 5.80398 9.0108 65.0431
v 4.01898 9.00987 65.4264
v 5.66888 9.0109 65.0016
v 3.98865 9.01021 65.287
v 5.54098 9.01105 64.9415
v 3.93879 9.01053 65.1533
v 5.42283 9.01124 64.864
v 3.87041 9.01084 65.0281
v 5.31678 9.01146 64.7705
v 3.78491 9.01111 64.9139
v 5.22497 9.01172 64.6631
v 3.68402 9.01136 64.813
v 5.14921 9.01201 64.5438
v 3.5698 9.01157 64.7275
v 5.09103 9.01232 64.415
v 3.44458 9.01173 64.6591
v 5.05158 9.01265 64.2793
v 3.31089 9.01185 64.6092
v 5.03166 9.01299 64.1394
v 3.23732 9.01442 63.5468
v 5.03166 9.01333 63.9981
v 3.37158 9.01452 63.5083
v 5.05158 9.01367 63.8582
v 3.49916 9.01466 63.4514
v 5.09103 9.014 63.7225
v 3.61757 9.01484 63.3773
v 5.14921 9.01431 63.5937
v 3.7245 9.01505 63.2874
v 5.22497 9.0146 63.4744
v 3.81786 9.0153 63.1835
v 5.31678 9.01486 63.3669
v 3.89583 9.01558 63.0676
v 5.42283 9.01509 63.2735
v 3.95689 9.01589 62.942
v 5.54098 9.01527 63.196
v 3.99985 9.01621 62.8091
v 5.66888 9.01542 63.1359
v 4.02387 9.01654 62.6715
v 5.80398 9.01552 63.0944
v 4.02848 9.01688 62.5319
v 5.5 9.01815 62.0074
v 4.01359 9.01722 62.393
v 3.9795 9.01755 62.2575
v 3.92686 9.01786 62.1281
v 3.85671 9.01815 62.0074
v 5.67711 9.00816 66.1328
v 3.98865 9.00885 65.8505
v 5.54933 9.00802 66.1914
v 3.93879 9.00852 65.9842
v 5.43103 9.00784 66.2673
v 5.32455 9.00762 66.3591
v 3.87041 9.00822 66.1094
v 5.232 9.00736 66.465
v 3.78491 9.00794 66.2236
v 5.15521 9.00707 66.5827
v 3.68402 9.0077 66.3245
v 5.09568 9.00676 66.7101
v 3.5698 9.00749 66.41
v 3.44458 9.00733 66.4784
v 5.05461 9.00644 66.8446
v 3.31089 9.00721 66.5282
v 5.03281 9.0061 66.9834
v 5.03069 9.00576 67.124
v 5.04831 9.00542 67.2635
v 5.08532 9.0051 67.3991
v 5.14098 9.00478 67.5282
v 3.17148 9.00713 66.5586
v 2.88685 9.01193 64.5789
v 2.95932 9.01438 63.5663
v 3.02916 9.01195 64.5687
v 3.099 9.01438 63.5663
v 3.17148 9.01193 64.5789
v 5.2142 9.00449 67.6482
v 5.30352 9.00423 67.7568
v 5.40719 9.004 67.8518
v 5.52315 9.00381 67.9313
v 5.5 9.00242 68.5061
v 5.64911 9.00366 67.9937
v 5.78259 9.00355 68.0379
v 5.65894 9.00244 68.4977
v 5.81609 9.0025 68.4725
v 5.96968 9.0026 68.4307
v 5.92094 9.00349 68.0629
v 6.11798 9.00274 68.3729
v 6.25933 9.00292 68.2997
v 6.06142 9.00348 68.0682
v 6.39212 9.00313 68.212
v 6.20127 9.00351 68.0538
v 6.51487 9.00337 68.1107
v 6.33772 9.00359 68.0199
v 6.46807 9.00372 67.9673
v 6.6262 9.00365 67.9969
v 6.58974 9.00389 67.8968
v 6.72484 9.00395 67.872
v 6.70034 9.0041 67.81
v 6.80969 9.00428 67.7374
v 6.79766 9.00435 67.7086
v 6.8798 9.00462 67.5945
v 5.94358 9.01075 65.0651
v 5.95089 9.00831 66.0718
v 6.08489 9.01074 65.0672
v 6.09148 9.00831 66.0707
v 6.22508 9.01079 65.0494
v 6.23083 9.00827 66.0893
v 6.36136 9.01088 65.0119
v 6.3662 9.00818 66.1272
v 6.491 9.01101 64.9557
v 6.4949 9.00804 66.1838
v 6.61142 9.01119 64.8817
v 6.6144 9.00786 66.2579
v 6.72022 9.01141 64.7915
v 6.72234 9.00764 66.348
v 6.81521 9.01166 64.6869
v 6.81657 9.00739 66.4523
v 6.8945 9.01195 64.5699
v 6.89524 9.00711 66.5688
v 6.95651 9.01225 64.4429
v 6.95678 9.0068 66.6952
v 7 9.01258 64.3085
v 7 9.00648 66.829
v 5.94358 9.01557 63.0724
v 6.43524 9.01736 62.3346
v 6.29805 9.0176 62.2373
v 6.15083 9.01779 62.1559
v 5.99542 9.01795 62.0915
v 6.08489 9.01558 63.0703
v 6.67275 9.01678 62.5721
v 6.56066 9.01709 62.4467
v 6.77009 9.01645 62.7093
v 6.22508 9.01554 63.0881
v 6.85145 9.0161 62.8565
v 6.36136 9.01544 63.1255
v 6.91582 9.01572 63.0119
v 6.491 9.01531 63.1818
v 6.96239 9.01533 63.1736
v 6.61142 9.01513 63.2557
v 6.72022 9.01491 63.3459
v 6.99057 9.01493 63.3394
v 6.81521 9.01466 63.4506
v 7 9.01452 63.5073
v 6.8945 9.01437 63.5676
v 6.95651 9.01407 63.6945
v 7 9.01374 63.829
v 5.83378 9.01806 62.045
v 5.66795 9.01813 62.0168
v -2.07314 9.01786 62.1281
v 2.13146 9.01786 62.1281
v -2.14329 9.01815 62.0074
v 2.20161 9.01815 62.0074
v -3.92118 9.01755 62.2575
v -3.86854 9.01786 62.1281
v -3.79839 9.01815 62.0074
v -3.96888 9.00242 68.5061
v -3.95096 9.00274 68.3703
v 7 9.50648 66.8302
v 6.95678 9.5068 66.6964
v 6.89524 9.50711 66.57
v 6.81657 9.50739 66.4535
v 6.72234 9.50764 66.3492
v 6.6144 9.50786 66.2591
v 6.4949 9.50804 66.185
v 6.3662 9.50817 66.1285
v 6.23083 9.50827 66.0905
v 6.09148 9.50831 66.0719
v 5.95089 9.50831 66.073
v 5.81186 9.50826 66.0938
v 5.67711 9.50816 66.134
v 5.54933 9.50802 66.1926
v 5.43103 9.50784 66.2685
v 5.32455 9.50761 66.3604
v 5.232 9.50736 66.4662
v 5.15521 9.50707 66.5839
v 5.09568 9.50676 66.7113
v 5.05461 9.50644 66.8458
v 5.03281 9.5061 66.9846
v 5.03069 9.50576 67.1252
v 5.04831 9.50542 67.2647
v 5.08532 9.50509 67.4003
v 5.14098 9.50478 67.5294
v 5.2142 9.50449 67.6495
v 5.30352 9.50423 67.758
v 5.40719 9.504 67.853
v 5.52315 9.50381 67.9325
v 5.64911 9.50366 67.9949
v 5.78259 9.50355 68.0391
v 5.92094 9.50349 68.0641
v 6.06142 9.50347 68.0694
v 6.20127 9.50351 68.055
v 6.33772 9.50359 68.0211
v 6.46807 9.50372 67.9685
v 6.58974 9.50389 67.898
v 6.70034 9.5041 67.8112
v 6.79766 9.50435 67.7098
v 6.8798 9.50462 67.5957
v 7 9.50605 67.0073
v 6.99239 9.50568 67.1582
v 6.96964 9.50532 67.3076
v 6.93199 9.50496 67.4539
v 2.20161 9.51815 62.0086
v 2.13146 9.51786 62.1294
v 2.07882 9.51755 62.2587
v 2.04473 9.51722 62.3942
v 2.02984 9.51688 62.5331
v 2.03445 9.51654 62.6727
v 2.05847 9.51621 62.8103
v 2.10143 9.51589 62.9432
v 2.16249 9.51558 63.0688
v 2.24046 9.5153 63.1847
v 2.33382 9.51505 63.2886
v 2.44075 9.51483 63.3785
v 2.55916 9.51465 63.4526
v 2.68674 9.51452 63.5095
v 2.821 9.51442 63.548
v 2.95932 9.51438 63.5675
v 3.099 9.51438 63.5675
v 3.23732 9.51442 63.548
v 3.37158 9.51452 63.5095
v 3.49916 9.51465 63.4526
v 3.61757 9.51483 63.3785
v 3.7245 9.51505 63.2886
v 3.81786 9.5153 63.1847
v 3.89583 9.51558 63.0688
v 3.95689 9.51589 62.9432
v 3.99985 9.51621 62.8103
v 4.02387 9.51654 62.6727
v 4.02848 9.51688 62.5331
v 4.01359 9.51722 62.3942
v 3.9795 9.51755 62.2587
v 3.92686 9.51786 62.1294
v 3.85671 9.51815 62.0086
v -1.9728 9.50241 68.5073
v -1.99072 9.50274 68.3715
v -2.02704 9.50306 68.2394
v -2.08107 9.50337 68.1135
v -2.1518 9.50365 67.9962
v -2.2379 9.50391 67.8896
v -2.33776 9.50414 67.7959
v -2.4495 9.50433 67.7166
v -2.57102 9.50448 67.6533
v -2.70005 9.50459 67.6073
v -2.83416 9.50466 67.5793
v -2.97084 9.50468 67.5699
v -3.10751 9.50466 67.5793
v -3.24163 9.50459 67.6073
v -3.37066 9.50448 67.6533
v -3.49218 9.50433 67.7166
v -3.60392 9.50414 67.7959
v -3.70378 9.50391 67.8896
v -3.78988 9.50365 67.9962
v -3.86061 9.50337 68.1135
v -3.91464 9.50306 68.2394
v -3.95096 9.50274 68.3715
v -3.96888 9.50241 68.5073
v -4.98102 9.50555 67.2123
v -4.97084 9.50589 67.0699
v -4.98102 9.50624 66.9276
v -5.01135 9.50658 66.7882
v -5.06121 9.5069 66.6545
v -5.12958 9.5072 66.5293
v -5.21509 9.50748 66.4151
v -5.31598 9.50772 66.3142
v -5.4302 9.50793 66.2287
v -5.55542 9.5081 66.1603
v -5.68911 9.50822 66.1105
v -5.82852 9.50829 66.0801
v -5.97084 9.50832 66.0699
v -6.11315 9.50829 66.0801
v -6.25257 9.50822 66.1105
v -6.38625 9.5081 66.1603
v -6.51148 9.50793 66.2287
v -6.6257 9.50772 66.3142
v -6.72659 9.50748 66.4151
v -6.81209 9.5072 66.5293
v -6.88047 9.5069 66.6545
v -6.93033 9.50658 66.7882
v -6.96066 9.50624 66.9276
v -6.97084 9.50589 67.0699
v -6.96066 9.50555 67.2123
v -6.93033 9.50521 67.3517
v -6.88047 9.50489 67.4854
v -6.81209 9.50459 67.6106
v -6.72659 9.50431 67.7248
v -6.6257 9.50406 67.8257
v -6.51148 9.50386 67.9112
v -6.38625 9.50369 67.9796
v -6.25257 9.50357 68.0294
v -6.11315 9.5035 68.0598
v -5.97084 9.50347 68.0699
v -5.82852 9.5035 68.0598
v -5.68911 9.50357 68.0294
v -5.55542 9.50369 67.9796
v -5.4302 9.50386 67.9112
v -5.31598 9.50406 67.8257
v -5.21509 9.50431 67.7248
v -5.12958 9.50459 67.6106
v -5.06121 9.50489 67.4854
v -5.01135 9.50521 67.3517
v 1 9.50648 66.8302
v 0.95651 9.5068 66.6957
v 0.8945 9.50711 66.5688
v 0.815208 9.50739 66.4518
v 0.720217 9.50764 66.3471
v 0.611424 9.50786 66.2569
v 0.491003 9.50804 66.183
v 0.361357 9.50818 66.1267
v 0.225078 9.50827 66.0893
v 0.0848853 9.50831 66.0715
v -0.0564201 9.50831 66.0736
v -0.196016 9.50825 66.0956
v -0.331115 9.50815 66.1371
v -0.459019 9.50801 66.1972
v -0.577173 9.50782 66.2747
v -0.683217 9.50759 66.3681
v -0.775034 9.50733 66.4756
v -0.85079 9.50704 66.5949
v -0.908972 9.50673 66.7237
v -0.948417 9.5064 66.8594
v -0.968339 9.50607 66.9993
v -0.968339 9.50572 67.1406
v -0.948417 9.50539 67.2805
v -0.908972 9.50506 67.4162
v -0.85079 9.50474 67.545
v -0.775034 9.50446 67.6643
v -0.683217 9.5042 67.7717
v -0.577173 9.50397 67.8652
v -0.459019 9.50378 67.9427
v -0.331115 9.50364 68.0028
v -0.196016 9.50354 68.0443
v -0.0564201 9.50348 68.0663
v 0.0848853 9.50348 68.0684
v 0.225078 9.50352 68.0506
v 0.361357 9.50361 68.0132
v 0.491003 9.50375 67.9569
v 0.611424 9.50393 67.8829
v 0.720217 9.50414 67.7927
v 0.815208 9.5044 67.6881
v 0.8945 9.50468 67.5711
v 0.95651 9.50499 67.4441
v 1 9.50531 67.3097
v 4.01898 9.50918 65.7123
v 4.02916 9.50953 65.5699
v 4.01898 9.50987 65.4276
v 3.98865 9.51021 65.2882
v 3.93879 9.51053 65.1545
v 3.87041 9.51084 65.0293
v 3.78491 9.51111 64.9151
v 3.68402 9.51136 64.8142
v 3.5698 9.51156 64.7287
v 3.44458 9.51173 64.6603
v 3.31089 9.51185 64.6105
v 3.17148 9.51192 64.5801
v 3.02916 9.51195 64.57
v 2.88685 9.51192 64.5801
v 2.74743 9.51185 64.6105
v 2.61375 9.51173 64.6603
v 2.48852 9.51156 64.7287
v 2.3743 9.51136 64.8142
v 2.27341 9.51111 64.9151
v 2.18791 9.51084 65.0293
v 2.11953 9.51053 65.1545
v 2.06967 9.51021 65.2882
v 2.03934 9.50987 65.4276
v 2.02916 9.50953 65.5699
v 2.03934 9.50918 65.7123
v 2.06967 9.50885 65.8517
v 2.11953 9.50852 65.9854
v 2.18791 9.50822 66.1106
v 2.27341 9.50794 66.2248
v 2.3743 9.5077 66.3257
v 2.48852 9.50749 66.4112
v 2.61375 9.50732 66.4796
v 2.74743 9.5072 66.5294
v 2.88685 9.50713 66.5598
v 3.02916 9.50711 66.5699
v 3.17148 9.50713 66.5598
v 3.31089 9.5072 66.5294
v 3.44458 9.50732 66.4796
v 3.5698 9.50749 66.4112
v 3.68402 9.5077 66.3257
v 3.78491 9.50794 66.2248
v 3.87041 9.50822 66.1106
v 3.93879 9.50852 65.9854
v 3.98865 9.50885 65.8517
v 7 9.51374 63.8302
v 6.95651 9.51407 63.6958
v 6.8945 9.51437 63.5688
v 6.81521 9.51466 63.4518
v 6.72022 9.51491 63.3472
v 6.61142 9.51513 63.257
v 6.491 9.51531 63.183
v 6.36136 9.51544 63.1267
v 6.22508 9.51553 63.0893
v 6.08489 9.51558 63.0715
v 5.94358 9.51557 63.0736
v 5.80398 9.51552 63.0956
v 5.66888 9.51542 63.1371
v 5.54098 9.51527 63.1972
v 5.42283 9.51509 63.2747
v 5.31678 9.51486 63.3682
v 5.22497 9.5146 63.4756
v 5.14921 9.51431 63.5949
v 5.09103 9.514 63.7237
v 5.05158 9.51367 63.8594
v 5.03166 9.51333 63.9993
v 5.03166 9.51299 64.1406
v 5.05158 9.51265 64.2805
v 5.09103 9.51232 64.4162
v 5.14921 9.51201 64.545
v 5.22497 9.51172 64.6643
v 5.31678 9.51146 64.7717
v 5.42283 9.51123 64.8652
v 5.54098 9.51105 64.9427
v 5.66888 9.5109 65.0028
v 5.80398 9.5108 65.0443
v 5.94358 9.51075 65.0663
v 6.08489 9.51074 65.0684
v 6.22508 9.51079 65.0506
v 6.36136 9.51088 65.0132
v 6.491 9.51101 64.9569
v 6.61142 9.51119 64.8829
v 6.72022 9.51141 64.7928
v 6.81521 9.51166 64.6881
v 6.8945 9.51195 64.5711
v 6.95651 9.51225 64.4441
v 7 9.51258 64.3097
v 1 9.51258 64.3097
v 1 9.51374 63.8302
v 0.95651 9.51407 63.6958
v 0.8945 9.51437 63.5688
v 0.815208 9.51466 63.4518
v 0.720217 9.51491 63.3472
v 0.611424 9.51513 63.257
v 0.491003 9.51531 63.183
v 0.361357 9.51544 63.1267
v 0.225078 9.51553 63.0893
v 0.0848853 9.51558 63.0715
v -0.0564201 9.51557 63.0736
v -0.196016 9.51552 63.0956
v -0.331115 9.51542 63.1371
v -0.459019 9.51527 63.1972
v -0.577173 9.51509 63.2747
v -0.683217 9.51486 63.3682
v -0.775034 9.5146 63.4756
v -0.85079 9.51431 63.5949
v -0.908972 9.514 63.7237
v -0.948417 9.51367 63.8594
v -0.968339 9.51333 63.9993
v -0.968339 9.51299 64.1406
v -0.948417 9.51265 64.2805
v -0.908972 9.51232 64.4162
v -0.85079 9.51201 64.545
v -0.775034 9.51172 64.6643
v -0.683217 9.51146 64.7717
v -0.577173 9.51123 64.8652
v -0.459019 9.51105 64.9427
v -0.331115 9.5109 65.0028
v -0.196016 9.5108 65.0443
v -0.0564201 9.51075 65.0663
v 0.0848853 9.51074 65.0684
v 0.225078 9.51079 65.0506
v 0.361357 9.51088 65.0132
v 0.491003 9.51101 64.9569
v 0.611424 9.51119 64.8829
v 0.720217 9.51141 64.7928
v 0.815208 9.51166 64.6881
v 0.8945 9.51195 64.5711
v 0.95651 9.51225 64.4441
v -3.79839 9.51815 62.0086
v -3.86854 9.51786 62.1294
v -3.92118 9.51755 62.2587
v -3.95527 9.51722 62.3942
v -3.97016 9.51688 62.5331
v -3.96555 9.51654 62.6727
v -3.94153 9.51621 62.8103
v -3.89857 9.51589 62.9432
v -3.83751 9.51558 63.0688
v -3.75954 9.5153 63.1847
v -3.66618 9.51505 63.2886
v -3.55925 9.51483 63.3785
v -3.44084 9.51465 63.4526
v -3.31326 9.51452 63.5095
v -3.179 9.51442 63.548
v -3.04068 9.51438 63.5675
v -2.901 9.51438 63.5675
v -2.76268 9.51442 63.548
v -2.62842 9.51452 63.5095
v -2.50084 9.51465 63.4526
v -2.38243 9.51483 63.3785
v -2.2755 9.51505 63.2886
v -2.18214 9.5153 63.1847
v -2.10417 9.51558 63.0688
v -2.04311 9.51589 62.9432
v -2.00015 9.51621 62.8103
v -1.97613 9.51654 62.6727
v -1.97152 9.51688 62.5331
v -1.98641 9.51722 62.3942
v -2.0205 9.51755 62.2587
v -2.07314 9.51786 62.1294
v -2.14329 9.51815 62.0086
v -5.5 7.01816 62.0025
v 5.5 7.01816 62.0025
v 7 7.01453 63.5025
v 6.99057 7.01493 63.3346
v 6.96239 7.01533 63.1687
v 6.91582 7.01573 63.0071
v 6.85145 7.0161 62.8517
v 6.77009 7.01646 62.7045
v 6.67275 7.01679 62.5673
v 6.56066 7.01709 62.4418
v 6.43524 7.01737 62.3298
v 6.29805 7.0176 62.2324
v 6.15083 7.0178 62.1511
v 5.99542 7.01795 62.0867
v 5.83378 7.01807 62.0401
v 5.66795 7.01814 62.0119
v 7 7.00605 67.0013
v 5.5 7.00242 68.5013
v 5.66795 7.00244 68.4919
v 5.83378 7.00251 68.4637
v 5.99542 7.00263 68.4171
v 6.15083 7.00278 68.3527
v 6.29805 7.00298 68.2714
v 6.43524 7.00321 68.174
v 6.56066 7.00349 68.062
v 6.67275 7.00379 67.9365
v 6.77009 7.00412 67.7993
v 6.85145 7.00448 67.6521
v 6.91582 7.00485 67.4967
v 6.96239 7.00525 67.3351
v 6.99057 7.00565 67.1692
v -5.5 7.00242 68.5013
v -7 7.00605 67.0013
v -6.99057 7.00565 67.1692
v -6.96239 7.00525 67.3351
v -6.91582 7.00485 67.4967
v -6.85145 7.00448 67.6521
v -6.77009 7.00412 67.7993
v -6.67275 7.00379 67.9365
v -6.56066 7.00349 68.062
v -6.43524 7.00321 68.174
v -6.29805 7.00298 68.2714
v -6.15083 7.00278 68.3527
v -5.99542 7.00263 68.4171
v -5.83378 7.00251 68.4637
v -5.66795 7.00244 68.4919
v -7 7.01453 63.5025
v -5.66795 7.01814 62.0119
v -5.83378 7.01807 62.0401
v -5.99542 7.01795 62.0867
v -6.15083 7.0178 62.1511
v -6.29805 7.0176 62.2324
v -6.43524 7.01737 62.3298
v -6.56066 7.01709 62.4418
v -6.67275 7.01679 62.5673
v -6.77009 7.01646 62.7045
v -6.85145 7.0161 62.8517
v -6.91582 7.01573 63.0071
v -6.96239 7.01533 63.1687
v -6.99057 7.01493 63.3346
f 1 2 3
f 3 2 4
f 3 4 5
f 5 4 6
f 6 4 7
f 7 4 8
f 7 8 9
f 9 8 10
f 9 10 11
f 11 10 12
f 11 12 13
f 13 12 14
f 13 14 15
f 15 14 16
f 15 16 17
f 17 16 18
f 17 18 19
f 19 18 20
f 20 18 21
f 21 18 22
f 21 22 23
f 23 22 24
f 23 24 25
f 25 24 26
f 25 26 27
f 27 26 28
f 27 28 1
f 1 28 2
f 8 4 2
f 8 2 28
f 10 8 28
f 10 28 26
f 12 10 26
f 12 26 24
f 14 12 24
f 14 24 22
f 16 14 22
f 16 22 18
f 6 7 5
f 5 7 9
f 5 9 11
f 5 11 29
f 29 11 13
f 29 13 15
f 15 17 29
f 29 17 30
f 29 30 31
f 31 30 32
f 31 32 33
f 33 34 31
f 31 34 35
f 31 35 36
f 36 37 31
f 31 38 29
f 29 38 39
f 29 39 40
f 40 39 41
f 42 43 38
f 38 43 44
f 38 44 45
f 45 46 38
f 38 46 47
f 38 47 48
f 38 48 39
f 39 48 49
f 39 49 50
f 50 51 39
f 39 51 52
f 39 52 53
f 53 52 54
f 53 54 55
f 55 56 53
f 17 19 30
f 30 19 57
f 58 59 57
f 57 59 60
f 57 60 30
f 30 60 32
f 32 60 33
f 33 60 61
f 33 61 34
f 34 61 62
f 34 62 35
f 35 62 63
f 35 63 36
f 36 63 64
f 36 64 37
f 37 64 65
f 37 65 31
f 31 65 66
f 31 66 67
f 67 66 68
f 68 66 69
f 69 66 70
f 69 70 71
f 71 70 72
f 71 72 73
f 73 72 74
f 73 74 75
f 75 74 76
f 75 76 58
f 58 76 59
f 61 60 59
f 61 59 76
f 62 61 76
f 62 76 74
f 63 62 74
f 63 74 72
f 64 63 72
f 64 72 70
f 65 64 70
f 65 70 66
f 56 77 53
f 53 77 78
f 53 78 79
f 79 78 80
f 80 78 81
f 81 78 82
f 81 82 83
f 83 82 84
f 83 84 85
f 85 84 86
f 85 86 87
f 87 86 88
f 87 88 89
f 89 88 90
f 89 90 91
f 91 90 92
f 91 92 49
f 49 92 50
f 50 92 51
f 51 92 93
f 51 93 52
f 52 93 94
f 52 94 54
f 54 94 95
f 54 95 55
f 55 95 96
f 55 96 56
f 56 96 77
f 82 78 77
f 82 77 96
f 84 82 96
f 84 96 95
f 86 84 95
f 86 95 94
f 88 86 94
f 88 94 93
f 90 88 93
f 90 93 92
f 91 49 97
f 97 49 48
f 47 98 48
f 48 98 99
f 48 99 97
f 97 99 100
f 100 99 101
f 101 99 102
f 101 102 103
f 103 102 104
f 103 104 105
f 105 104 106
f 105 106 107
f 107 106 108
f 107 108 109
f 109 108 110
f 109 110 111
f 111 110 112
f 111 112 38
f 38 112 42
f 42 112 43
f 43 112 113
f 43 113 44
f 44 113 114
f 44 114 45
f 45 114 115
f 45 115 46
f 46 115 116
f 46 116 47
f 47 116 98
f 102 99 98
f 102 98 116
f 104 102 116
f 104 116 115
f 106 104 115
f 106 115 114
f 108 106 114
f 108 114 113
f 110 108 113
f 110 113 112
f 5 29 3
f 3 29 117
f 117 29 118
f 118 29 40
f 79 119 53
f 53 119 39
f 39 119 41
f 41 119 120
f 57 19 117
f 117 19 20
f 117 20 21
f 21 23 117
f 117 23 3
f 3 23 25
f 3 25 27
f 27 1 3
f 118 120 117
f 117 120 119
f 117 119 67
f 67 119 111
f 111 119 97
f 111 97 100
f 79 85 119
f 119 85 87
f 119 87 89
f 80 81 79
f 79 81 83
f 79 83 85
f 89 91 119
f 119 91 97
f 100 101 111
f 111 101 103
f 111 103 105
f 105 107 111
f 111 107 109
f 68 69 67
f 67 69 71
f 67 71 73
f 73 75 67
f 67 75 58
f 67 58 57
f 67 57 117
f 31 67 38
f 38 67 111
f 121 122 123
f 123 122 124
f 123 124 125
f 125 124 126
f 125 126 127
f 127 126 128
f 127 128 129
f 129 128 130
f 129 130 131
f 131 130 132
f 131 132 133
f 133 132 134
f 133 134 135
f 135 134 136
f 135 136 137
f 137 136 138
f 137 138 139
f 139 138 140
f 139 140 141
f 141 140 142
f 141 142 143
f 143 142 144
f 143 144 145
f 145 144 146
f 145 146 147
f 147 146 148
f 147 148 149
f 149 148 150
f 149 150 151
f 151 150 152
f 151 152 153
f 153 152 154
f 153 154 155
f 155 154 156
f 155 156 157
f 157 156 158
f 157 158 159
f 159 158 160
f 159 160 161
f 161 160 162
f 161 162 163
f 163 162 164
f 163 164 165
f 165 164 166
f 165 166 167
f 167 166 168
f 167 168 169
f 169 168 170
f 169 170 171
f 171 170 172
f 171 172 173
f 173 172 174
f 173 174 175
f 175 174 176
f 175 176 177
f 177 176 178
f 177 178 179
f 179 178 180
f 179 180 181
f 181 180 182
f 181 182 183
f 183 182 184
f 183 184 185
f 185 184 186
f 185 186 187
f 187 186 188
f 187 188 189
f 189 188 190
f 189 190 191
f 191 190 192
f 191 192 193
f 193 192 194
f 193 194 195
f 195 194 196
f 195 196 197
f 197 196 198
f 197 198 199
f 199 198 200
f 199 200 201
f 201 200 202
f 201 202 203
f 203 202 204
f 203 204 205
f 205 204 206
f 205 206 207
f 207 206 208
f 207 208 121
f 121 208 122
f 125 165 123
f 123 165 167
f 123 167 121
f 121 167 169
f 121 169 207
f 207 169 171
f 207 171 205
f 205 171 173
f 205 173 203
f 203 173 175
f 203 175 201
f 201 175 177
f 201 177 199
f 199 177 179
f 199 179 197
f 197 179 181
f 197 181 195
f 195 181 183
f 195 183 193
f 193 183 185
f 193 185 191
f 191 185 187
f 191 187 189
f 165 125 163
f 163 125 127
f 163 127 161
f 161 127 129
f 161 129 159
f 159 129 131
f 159 131 157
f 157 131 133
f 157 133 155
f 155 133 135
f 155 135 153
f 153 135 137
f 153 137 151
f 151 137 139
f 151 139 149
f 149 139 141
f 149 141 147
f 147 141 143
f 147 143 145
f 209 210 211
f 211 210 212
f 211 212 213
f 213 212 214
f 213 214 215
f 215 214 216
f 215 216 217
f 217 216 218
f 217 218 219
f 219 218 220
f 219 220 221
f 221 220 222
f 221 222 223
f 223 222 224
f 223 224 225
f 225 224 226
f 225 226 227
f 227 226 228
f 227 228 229
f 229 228 230
f 229 230 231
f 231 230 232
f 231 232 233
f 233 232 234
f 233 234 235
f 235 234 236
f 235 236 237
f 237 236 238
f 237 238 239
f 239 238 240
f 239 240 241
f 241 240 242
f 241 242 243
f 243 242 244
f 243 244 245
f 245 244 246
f 245 246 247
f 247 246 248
f 247 248 249
f 249 248 250
f 249 250 251
f 251 250 252
f 251 252 253
f 253 252 254
f 253 254 255
f 255 254 256
f 255 256 257
f 257 256 258
f 257 258 259
f 259 258 260
f 259 260 261
f 261 260 262
f 261 262 263
f 263 262 264
f 263 264 265
f 265 264 266
f 265 266 267
f 267 266 268
f 267 268 269
f 269 268 270
f 269 270 271
f 271 270 272
f 271 272 273
f 273 272 274
f 273 274 275
f 275 274 276
f 275 276 277
f 277 276 278
f 277 278 279
f 279 278 280
f 279 280 281
f 281 280 282
f 281 282 283
f 283 282 284
f 283 284 285
f 285 284 286
f 285 286 287
f 287 286 288
f 287 288 289
f 289 288 290
f 289 290 291
f 291 290 292
f 291 292 293
f 293 292 294
f 293 294 295
f 295 294 296
f 295 296 209
f 209 296 210
f 213 253 211
f 211 253 255
f 211 255 209
f 209 255 257
f 209 257 295
f 295 257 259
f 295 259 293
f 293 259 261
f 293 261 291
f 291 261 263
f 291 263 289
f 289 263 265
f 289 265 287
f 287 265 267
f 287 267 285
f 285 267 269
f 285 269 283
f 283 269 271
f 283 271 281
f 281 271 273
f 281 273 279
f 279 273 275
f 279 275 277
f 253 213 251
f 251 213 215
f 251 215 249
f 249 215 217
f 249 217 247
f 247 217 219
f 247 219 245
f 245 219 221
f 245 221 243
f 243 221 223
f 243 223 241
f 241 223 225
f 241 225 239
f 239 225 227
f 239 227 237
f 237 227 229
f 237 229 235
f 235 229 231
f 235 231 233
f 297 298 299
f 299 298 300
f 299 300 301
f 301 300 302
f 301 302 303
f 303 302 304
f 303 304 305
f 305 304 306
f 305 306 307
f 307 306 308
f 307 308 309
f 309 308 310
f 309 310 311
f 311 310 312
f 311 312 313
f 313 312 314
f 313 314 315
f 315 314 316
f 315 316 317
f 317 316 318
f 317 318 319
f 319 318 320
f 319 320 321
f 321 320 322
f 321 322 323
f 323 322 324
f 323 324 325
f 325 324 326
f 325 326 327
f 327 326 328
f 327 328 329
f 329 328 330
f 329 330 331
f 331 330 332
f 331 332 333
f 333 332 334
f 333 334 335
f 335 334 336
f 335 336 337
f 337 336 338
f 337 338 339
f 339 338 340
f 339 340 341
f 341 340 342
f 341 297 339
f 339 297 299
f 339 299 337
f 337 299 301
f 337 301 335
f 335 301 303
f 335 303 333
f 333 303 305
f 333 305 331
f 331 305 307
f 331 307 329
f 329 307 309
f 329 309 327
f 327 309 311
f 327 311 325
f 325 311 313
f 325 313 323
f 323 313 315
f 323 315 321
f 321 315 317
f 321 317 319
f 122 238 124
f 124 238 343
f 124 343 126
f 126 343 344
f 126 344 128
f 128 344 345
f 128 345 346
f 238 122 240
f 240 122 208
f 240 208 242
f 242 208 206
f 242 206 244
f 244 206 204
f 244 204 246
f 246 204 202
f 246 202 248
f 248 202 200
f 248 200 250
f 250 200 198
f 250 198 252
f 252 198 196
f 252 196 254
f 254 196 194
f 254 194 256
f 256 194 347
f 256 347 258
f 258 347 348
f 258 348 260
f 260 348 349
f 260 349 262
f 262 349 350
f 262 350 264
f 264 350 351
f 264 351 266
f 266 351 352
f 266 352 268
f 268 352 353
f 268 353 270
f 270 353 354
f 270 354 272
f 272 354 355
f 272 355 274
f 274 355 356
f 274 356 357
f 357 356 358
f 357 358 359
f 359 358 360
f 359 360 361
f 361 360 362
f 361 362 363
f 363 362 364
f 363 364 365
f 365 364 366
f 365 366 367
f 367 366 368
f 367 368 369
f 369 368 370
f 369 370 371
f 371 370 372
f 371 372 373
f 373 372 374
f 373 374 375
f 375 374 376
f 375 376 377
f 377 376 378
f 378 376 379
f 379 376 380
f 379 380 381
f 381 380 382
f 381 382 383
f 383 382 384
f 383 384 385
f 385 384 386
f 385 386 387
f 347 194 388
f 388 194 192
f 388 192 389
f 389 192 190
f 389 190 188
f 389 188 390
f 390 188 186
f 390 186 391
f 391 186 184
f 391 184 392
f 392 184 182
f 392 182 393
f 393 182 180
f 393 180 394
f 394 180 178
f 394 178 395
f 395 178 176
f 395 176 396
f 396 176 174
f 396 174 397
f 397 174 172
f 397 172 398
f 398 172 399
f 398 399 400
f 400 399 401
f 401 399 402
f 401 402 403
f 403 402 404
f 403 404 405
f 405 404 406
f 405 406 407
f 407 406 408
f 408 406 409
f 408 409 410
f 410 409 411
f 410 411 412
f 412 411 413
f 412 413 387
f 387 413 385
f 172 170 399
f 399 170 168
f 399 168 414
f 414 168 166
f 414 166 164
f 164 162 414
f 414 162 160
f 414 160 158
f 414 158 415
f 415 158 156
f 415 156 416
f 416 156 154
f 416 154 417
f 417 154 152
f 417 152 150
f 417 150 418
f 418 150 148
f 418 148 419
f 419 148 146
f 419 146 420
f 420 146 421
f 421 146 144
f 421 144 422
f 422 144 423
f 423 144 424
f 423 424 425
f 425 424 426
f 426 424 427
f 427 424 428
f 144 142 424
f 424 142 429
f 424 429 430
f 429 142 431
f 431 142 140
f 431 140 432
f 432 140 138
f 432 138 433
f 433 138 136
f 433 136 434
f 434 136 134
f 434 134 435
f 435 134 132
f 435 132 436
f 436 132 130
f 436 130 346
f 346 130 128
f 210 437 212
f 212 437 438
f 212 438 214
f 214 438 439
f 214 439 216
f 216 439 440
f 216 440 218
f 218 440 441
f 218 441 220
f 220 441 442
f 220 442 222
f 222 442 443
f 222 443 224
f 224 443 444
f 224 444 226
f 226 444 445
f 226 445 228
f 228 445 446
f 228 446 230
f 230 446 447
f 230 447 448
f 448 447 449
f 448 449 450
f 450 449 451
f 450 451 452
f 452 451 453
f 452 453 454
f 454 453 455
f 454 455 456
f 456 455 457
f 456 457 458
f 458 457 459
f 458 459 460
f 460 459 461
f 460 461 462
f 462 461 463
f 462 463 464
f 464 463 465
f 464 465 466
f 466 465 467
f 466 467 468
f 468 467 469
f 468 469 470
f 470 469 471
f 471 469 472
f 471 472 473
f 473 472 474
f 474 472 475
f 474 475 476
f 476 475 477
f 477 475 478
f 477 478 479
f 479 478 480
f 479 480 481
f 481 480 482
f 481 482 483
f 483 482 484
f 483 484 485
f 485 484 486
f 485 486 487
f 487 486 488
f 487 488 489
f 489 488 490
f 489 490 491
f 491 490 492
f 491 492 493
f 493 492 494
f 494 492 495
f 494 495 496
f 496 495 497
f 497 495 498
f 498 495 499
f 498 499 500
f 500 499 501
f 500 501 502
f 502 501 503
f 502 503 504
f 504 503 505
f 504 505 506
f 506 505 507
f 506 507 508
f 508 507 509
f 508 509 510
f 510 509 511
f 510 511 512
f 512 511 513
f 512 513 514
f 514 513 515
f 515 513 516
f 515 516 517
f 437 210 518
f 518 210 296
f 518 296 519
f 519 296 294
f 519 294 520
f 520 294 292
f 520 292 521
f 521 292 290
f 521 290 522
f 522 290 288
f 522 288 523
f 523 288 286
f 523 286 524
f 524 286 284
f 524 284 525
f 525 284 282
f 525 282 526
f 526 282 527
f 526 527 528
f 528 527 529
f 528 529 530
f 530 529 531
f 530 531 532
f 532 531 533
f 532 533 534
f 534 533 535
f 534 535 536
f 536 535 537
f 536 537 538
f 538 537 539
f 538 539 540
f 540 539 541
f 540 541 542
f 542 541 543
f 542 543 544
f 544 543 545
f 544 545 546
f 546 545 547
f 547 545 548
f 548 545 342
f 548 342 549
f 549 342 550
f 550 342 340
f 550 340 551
f 551 340 338
f 551 338 552
f 552 338 336
f 552 336 553
f 553 336 334
f 553 334 554
f 554 334 332
f 554 332 555
f 555 332 330
f 555 330 556
f 556 330 328
f 556 328 557
f 557 328 326
f 557 326 324
f 282 280 527
f 527 280 558
f 558 280 278
f 558 278 559
f 559 278 560
f 560 278 276
f 560 276 357
f 357 276 274
f 238 236 343
f 343 236 561
f 561 236 234
f 561 234 562
f 562 234 232
f 562 232 448
f 448 232 230
f 438 437 517
f 517 437 563
f 517 563 515
f 514 564 512
f 512 564 565
f 565 564 566
f 565 566 567
f 567 566 568
f 567 568 569
f 569 568 570
f 569 570 571
f 571 570 572
f 571 572 573
f 573 572 574
f 573 574 575
f 575 574 576
f 575 576 577
f 577 576 578
f 577 578 579
f 579 578 580
f 580 578 324
f 580 324 581
f 581 324 322
f 581 322 582
f 582 322 320
f 582 320 318
f 578 557 324
f 583 584 585
f 585 584 586
f 585 586 587
f 587 586 588
f 587 588 589
f 589 588 590
f 589 590 591
f 591 590 592
f 591 592 593
f 593 592 594
f 593 594 595
f 595 594 596
f 595 596 597
f 597 596 598
f 597 598 599
f 599 598 600
f 599 600 601
f 601 600 602
f 601 602 603
f 603 602 604
f 603 604 605
f 605 604 606
f 605 606 607
f 607 606 608
f 607 608 609
f 609 608 610
f 609 610 611
f 611 610 612
f 611 612 613
f 613 612 614
f 613 614 615
f 615 614 616
f 615 616 617
f 617 616 618
f 617 618 619
f 619 618 620
f 619 620 621
f 621 620 622
f 621 622 623
f 623 622 624
f 623 624 625
f 625 624 626
f 625 626 627
f 627 626 628
f 628 626 629
f 629 626 630
f 584 583 631
f 631 583 632
f 631 632 633
f 633 632 634
f 633 634 635
f 635 634 636
f 636 634 637
f 636 637 638
f 638 637 639
f 638 639 640
f 640 639 641
f 640 641 642
f 642 641 643
f 642 643 644
f 642 644 645
f 645 644 646
f 645 646 647
f 647 646 648
f 648 646 316
f 648 316 649
f 649 316 314
f 649 314 650
f 650 314 312
f 650 312 651
f 651 312 310
f 651 310 308
f 646 652 316
f 316 652 318
f 318 652 582
f 496 653 494
f 494 653 654
f 654 653 655
f 654 655 656
f 656 655 657
f 656 657 605
f 605 657 603
f 651 308 658
f 658 308 306
f 658 306 659
f 659 306 304
f 659 304 660
f 660 304 302
f 660 302 661
f 661 302 662
f 661 662 663
f 663 662 664
f 664 662 665
f 664 665 666
f 302 300 662
f 662 300 298
f 666 667 664
f 664 667 668
f 668 667 669
f 668 669 670
f 668 670 671
f 671 670 672
f 671 672 673
f 673 672 674
f 673 674 675
f 675 674 676
f 676 674 677
f 676 677 678
f 678 677 679
f 678 679 680
f 680 679 681
f 680 681 682
f 682 681 683
f 586 584 684
f 684 584 685
f 684 685 686
f 686 685 687
f 686 687 688
f 688 687 689
f 688 689 690
f 690 689 691
f 690 691 692
f 692 691 693
f 692 693 694
f 694 693 695
f 694 695 696
f 696 695 697
f 696 697 698
f 698 697 699
f 698 699 700
f 700 699 701
f 700 701 702
f 702 701 703
f 702 703 704
f 704 703 705
f 706 707 624
f 624 707 708
f 624 708 626
f 626 708 709
f 626 709 710
f 711 712 706
f 706 712 713
f 706 713 707
f 712 711 714
f 714 711 715
f 714 715 716
f 716 715 717
f 716 717 718
f 718 717 719
f 718 719 720
f 720 719 721
f 720 721 722
f 720 722 723
f 723 722 724
f 723 724 725
f 725 724 726
f 725 726 727
f 727 728 725
f 710 729 626
f 626 729 730
f 471 473 731
f 731 473 732
f 731 732 733
f 733 732 734
f 430 735 424
f 424 735 736
f 424 736 737
f 738 739 373
f 373 739 371
f 740 705 741
f 741 705 703
f 741 703 742
f 742 703 701
f 742 701 743
f 743 701 699
f 743 699 744
f 744 699 697
f 744 697 745
f 745 697 695
f 745 695 746
f 746 695 693
f 746 693 747
f 747 693 691
f 747 691 748
f 748 691 689
f 748 689 749
f 749 689 687
f 749 687 750
f 750 687 685
f 750 685 751
f 751 685 584
f 751 584 752
f 752 584 631
f 752 631 753
f 753 631 633
f 753 633 754
f 754 633 635
f 754 635 755
f 755 635 636
f 755 636 756
f 756 636 638
f 756 638 757
f 757 638 640
f 757 640 758
f 758 640 642
f 758 642 759
f 759 642 645
f 759 645 760
f 760 645 647
f 760 647 761
f 761 647 648
f 761 648 762
f 762 648 649
f 762 649 763
f 763 649 650
f 763 650 764
f 764 650 651
f 764 651 765
f 765 651 658
f 765 658 766
f 766 658 659
f 766 659 767
f 767 659 660
f 767 660 768
f 768 660 661
f 768 661 769
f 769 661 663
f 769 663 770
f 770 663 664
f 770 664 771
f 771 664 668
f 771 668 772
f 772 668 671
f 772 671 773
f 773 671 673
f 773 673 774
f 774 673 675
f 774 675 775
f 775 675 676
f 775 676 776
f 776 676 678
f 776 678 777
f 777 678 680
f 777 680 778
f 778 680 682
f 778 682 779
f 779 682 683
f 740 741 780
f 780 741 742
f 780 742 743
f 743 744 780
f 780 744 745
f 780 745 781
f 781 745 746
f 781 746 747
f 747 748 781
f 781 748 749
f 781 749 750
f 750 751 781
f 781 751 752
f 781 752 753
f 753 754 781
f 781 754 755
f 781 755 756
f 756 757 781
f 781 757 758
f 781 758 759
f 759 760 781
f 781 760 761
f 781 761 762
f 762 763 781
f 781 763 764
f 781 764 765
f 765 766 781
f 781 766 767
f 781 767 768
f 768 769 781
f 781 769 770
f 781 770 771
f 771 772 781
f 781 772 773
f 781 773 782
f 782 773 774
f 782 774 775
f 775 776 782
f 782 776 777
f 782 777 783
f 783 777 778
f 783 778 779
f 784 734 785
f 785 734 732
f 785 732 786
f 786 732 473
f 786 473 787
f 787 473 474
f 787 474 788
f 788 474 476
f 788 476 789
f 789 476 477
f 789 477 790
f 790 477 479
f 790 479 791
f 791 479 481
f 791 481 792
f 792 481 483
f 792 483 793
f 793 483 485
f 793 485 794
f 794 485 487
f 794 487 795
f 795 487 489
f 795 489 796
f 796 489 491
f 796 491 797
f 797 491 493
f 797 493 798
f 798 493 494
f 798 494 799
f 799 494 654
f 799 654 800
f 800 654 656
f 800 656 801
f 801 656 605
f 801 605 802
f 802 605 607
f 802 607 803
f 803 607 609
f 803 609 804
f 804 609 611
f 804 611 805
f 805 611 613
f 805 613 806
f 806 613 615
f 806 615 807
f 807 615 617
f 807 617 808
f 808 617 619
f 808 619 809
f 809 619 621
f 809 621 810
f 810 621 623
f 810 623 811
f 811 623 625
f 811 625 812
f 812 625 627
f 812 627 813
f 813 627 628
f 813 628 814
f 814 628 629
f 814 629 815
f 815 629 630
f 815 784 814
f 814 784 785
f 814 785 813
f 813 785 786
f 813 786 812
f 812 786 787
f 812 787 811
f 811 787 788
f 811 788 810
f 810 788 789
f 810 789 809
f 809 789 790
f 809 790 808
f 808 790 791
f 808 791 807
f 807 791 792
f 807 792 806
f 806 792 793
f 806 793 805
f 805 793 794
f 805 794 804
f 804 794 795
f 804 795 803
f 803 795 796
f 803 796 802
f 802 796 797
f 802 797 801
f 801 797 798
f 801 798 800
f 800 798 799
f 816 545 817
f 817 545 543
f 817 543 818
f 818 543 541
f 818 541 819
f 819 541 539
f 819 539 820
f 820 539 537
f 820 537 821
f 821 537 535
f 821 535 822
f 822 535 533
f 822 533 823
f 823 533 531
f 823 531 824
f 824 531 529
f 824 529 825
f 825 529 527
f 825 527 826
f 826 527 558
f 826 558 827
f 827 558 559
f 827 559 828
f 828 559 560
f 828 560 829
f 829 560 357
f 829 357 830
f 830 357 359
f 830 359 831
f 831 359 361
f 831 361 832
f 832 361 363
f 832 363 833
f 833 363 365
f 833 365 834
f 834 365 367
f 834 367 835
f 835 367 369
f 835 369 836
f 836 369 371
f 836 371 837
f 837 371 739
f 837 739 838
f 838 739 738
f 838 816 837
f 837 816 817
f 837 817 836
f 836 817 818
f 836 818 835
f 835 818 819
f 835 819 834
f 834 819 820
f 834 820 833
f 833 820 821
f 833 821 832
f 832 821 822
f 832 822 831
f 831 822 823
f 831 823 830
f 830 823 824
f 830 824 829
f 829 824 825
f 829 825 828
f 828 825 826
f 828 826 827
f 839 358 840
f 840 358 356
f 840 356 841
f 841 356 355
f 841 355 842
f 842 355 354
f 842 354 843
f 843 354 353
f 843 353 844
f 844 353 352
f 844 352 845
f 845 352 351
f 845 351 846
f 846 351 350
f 846 350 847
f 847 350 349
f 847 349 848
f 848 349 348
f 848 348 849
f 849 348 347
f 849 347 850
f 850 347 388
f 850 388 851
f 851 388 389
f 851 389 852
f 852 389 390
f 852 390 853
f 853 390 391
f 853 391 854
f 854 391 392
f 854 392 855
f 855 392 393
f 855 393 856
f 856 393 394
f 856 394 857
f 857 394 395
f 857 395 858
f 858 395 396
f 858 396 859
f 859 396 397
f 859 397 860
f 860 397 398
f 860 398 861
f 861 398 400
f 861 400 862
f 862 400 401
f 862 401 863
f 863 401 403
f 863 403 864
f 864 403 405
f 864 405 865
f 865 405 407
f 865 407 866
f 866 407 408
f 866 408 867
f 867 408 410
f 867 410 868
f 868 410 412
f 868 412 869
f 869 412 387
f 869 387 870
f 870 387 386
f 870 386 871
f 871 386 384
f 871 384 872
f 872 384 382
f 872 382 873
f 873 382 380
f 873 380 874
f 874 380 376
f 874 376 875
f 875 376 374
f 875 374 876
f 876 374 372
f 876 372 877
f 877 372 370
f 877 370 878
f 878 370 368
f 878 368 879
f 879 368 366
f 879 366 880
f 880 366 364
f 880 364 881
f 881 364 362
f 881 362 882
f 882 362 360
f 882 360 839
f 839 360 358
f 841 861 840
f 840 861 862
f 840 862 839
f 839 862 863
f 839 863 882
f 882 863 864
f 882 864 881
f 881 864 865
f 881 865 880
f 880 865 866
f 880 866 879
f 879 866 867
f 879 867 878
f 878 867 868
f 878 868 877
f 877 868 869
f 877 869 876
f 876 869 870
f 876 870 875
f 875 870 871
f 875 871 874
f 874 871 872
f 874 872 873
f 861 841 860
f 860 841 842
f 860 842 859
f 859 842 843
f 859 843 858
f 858 843 844
f 858 844 857
f 857 844 845
f 857 845 856
f 856 845 846
f 856 846 855
f 855 846 847
f 855 847 854
f 854 847 848
f 854 848 853
f 853 848 849
f 853 849 852
f 852 849 850
f 852 850 851
f 883 578 884
f 884 578 576
f 884 576 885
f 885 576 574
f 885 574 886
f 886 574 572
f 886 572 887
f 887 572 570
f 887 570 888
f 888 570 568
f 888 568 889
f 889 568 566
f 889 566 890
f 890 566 564
f 890 564 891
f 891 564 514
f 891 514 892
f 892 514 515
f 892 515 893
f 893 515 563
f 893 563 894
f 894 563 437
f 894 437 895
f 895 437 518
f 895 518 896
f 896 518 519
f 896 519 897
f 897 519 520
f 897 520 898
f 898 520 521
f 898 521 899
f 899 521 522
f 899 522 900
f 900 522 523
f 900 523 901
f 901 523 524
f 901 524 902
f 902 524 525
f 902 525 903
f 903 525 526
f 903 526 904
f 904 526 528
f 904 528 905
f 905 528 530
f 905 530 906
f 906 530 532
f 906 532 907
f 907 532 534
f 907 534 908
f 908 534 536
f 908 536 909
f 909 536 538
f 909 538 910
f 910 538 540
f 910 540 911
f 911 540 542
f 911 542 912
f 912 542 544
f 912 544 913
f 913 544 546
f 913 546 914
f 914 546 547
f 914 547 915
f 915 547 548
f 915 548 916
f 916 548 549
f 916 549 917
f 917 549 550
f 917 550 918
f 918 550 551
f 918 551 919
f 919 551 552
f 919 552 920
f 920 552 553
f 920 553 921
f 921 553 554
f 921 554 922
f 922 554 555
f 922 555 923
f 923 555 556
f 923 556 924
f 924 556 557
f 557 578 924
f 924 578 883
f 923 924 905
f 905 924 883
f 905 883 884
f 884 885 905
f 905 885 886
f 905 886 887
f 887 888 905
f 905 888 889
f 905 889 890
f 890 891 905
f 905 891 904
f 904 891 903
f 903 891 902
f 902 891 901
f 901 891 900
f 900 891 899
f 899 891 892
f 899 892 898
f 898 892 897
f 897 892 896
f 896 892 895
f 895 892 894
f 894 892 893
f 906 907 905
f 905 907 908
f 905 908 909
f 909 910 905
f 905 910 911
f 905 911 912
f 912 913 905
f 905 913 914
f 905 914 915
f 915 916 905
f 905 916 917
f 905 917 918
f 918 919 905
f 905 919 920
f 905 920 921
f 921 922 905
f 905 922 923
f 925 583 926
f 926 583 585
f 926 585 927
f 927 585 587
f 927 587 928
f 928 587 589
f 928 589 929
f 929 589 591
f 929 591 930
f 930 591 593
f 930 593 931
f 931 593 595
f 931 595 932
f 932 595 597
f 932 597 933
f 933 597 599
f 933 599 934
f 934 599 601
f 934 601 935
f 935 601 603
f 935 603 936
f 936 603 657
f 936 657 937
f 937 657 655
f 937 655 938
f 938 655 653
f 938 653 939
f 939 653 496
f 939 496 940
f 940 496 497
f 940 497 941
f 941 497 498
f 941 498 942
f 942 498 500
f 942 500 943
f 943 500 502
f 943 502 944
f 944 502 504
f 944 504 945
f 945 504 506
f 945 506 946
f 946 506 508
f 946 508 947
f 947 508 510
f 947 510 948
f 948 510 512
f 948 512 949
f 949 512 565
f 949 565 950
f 950 565 567
f 950 567 951
f 951 567 569
f 951 569 952
f 952 569 571
f 952 571 953
f 953 571 573
f 953 573 954
f 954 573 575
f 954 575 955
f 955 575 577
f 955 577 956
f 956 577 579
f 956 579 957
f 957 579 580
f 957 580 958
f 958 580 581
f 958 581 959
f 959 581 582
f 959 582 960
f 960 582 652
f 960 652 961
f 961 652 646
f 961 646 962
f 962 646 644
f 962 644 963
f 963 644 643
f 963 643 964
f 964 643 641
f 964 641 965
f 965 641 639
f 965 639 966
f 966 639 637
f 966 637 967
f 967 637 634
f 967 634 968
f 968 634 632
f 968 632 925
f 925 632 583
f 927 947 926
f 926 947 948
f 926 948 925
f 925 948 949
f 925 949 968
f 968 949 950
f 968 950 967
f 967 950 951
f 967 951 966
f 966 951 952
f 966 952 965
f 965 952 953
f 965 953 964
f 964 953 954
f 964 954 963
f 963 954 955
f 963 955 962
f 962 955 956
f 962 956 961
f 961 956 957
f 961 957 960
f 960 957 958
f 960 958 959
f 947 927 946
f 946 927 928
f 946 928 945
f 945 928 929
f 945 929 944
f 944 929 930
f 944 930 943
f 943 930 931
f 943 931 942
f 942 931 932
f 942 932 941
f 941 932 933
f 941 933 940
f 940 933 934
f 940 934 939
f 939 934 935
f 939 935 938
f 938 935 936
f 938 936 937
f 969 728 970
f 970 728 727
f 970 727 971
f 971 727 726
f 971 726 972
f 972 726 724
f 972 724 973
f 973 724 722
f 973 722 974
f 974 722 721
f 974 721 975
f 975 721 719
f 975 719 976
f 976 719 717
f 976 717 977
f 977 717 715
f 977 715 978
f 978 715 711
f 978 711 979
f 979 711 706
f 979 706 980
f 980 706 624
f 980 624 981
f 981 624 622
f 981 622 982
f 982 622 620
f 982 620 983
f 983 620 618
f 983 618 984
f 984 618 616
f 984 616 985
f 985 616 614
f 985 614 986
f 986 614 612
f 986 612 987
f 987 612 610
f 987 610 988
f 988 610 608
f 988 608 989
f 989 608 606
f 989 606 990
f 990 606 604
f 990 604 991
f 991 604 602
f 991 602 992
f 992 602 600
f 992 600 993
f 993 600 598
f 993 598 994
f 994 598 596
f 994 596 995
f 995 596 594
f 995 594 996
f 996 594 592
f 996 592 997
f 997 592 590
f 997 590 998
f 998 590 588
f 998 588 999
f 999 588 586
f 999 586 1000
f 1000 586 684
f 1000 684 1001
f 1001 684 686
f 1001 686 1002
f 1002 686 688
f 1002 688 1003
f 1003 688 690
f 1003 690 1004
f 1004 690 692
f 1004 692 1005
f 1005 692 694
f 1005 694 1006
f 1006 694 696
f 1006 696 1007
f 1007 696 698
f 1007 698 1008
f 1008 698 700
f 1008 700 1009
f 1009 700 702
f 1009 702 1010
f 1010 702 704
f 1010 969 991
f 991 969 970
f 991 970 971
f 971 972 991
f 991 972 973
f 991 973 974
f 974 975 991
f 991 975 976
f 991 976 977
f 978 985 977
f 977 985 986
f 977 986 987
f 979 980 978
f 978 980 981
f 978 981 982
f 982 983 978
f 978 983 984
f 978 984 985
f 987 988 977
f 977 988 989
f 977 989 990
f 990 991 977
f 992 993 991
f 991 993 994
f 991 994 995
f 995 996 991
f 991 996 997
f 991 997 998
f 998 999 991
f 991 999 1000
f 991 1000 1001
f 1001 1002 991
f 991 1002 1003
f 991 1003 1004
f 1004 1005 991
f 991 1005 1006
f 991 1006 1007
f 1007 1008 991
f 991 1008 1009
f 991 1009 1010
f 495 492 1011
f 1011 492 1012
f 1012 492 1013
f 1013 492 490
f 1013 490 1014
f 1014 490 488
f 1014 488 1015
f 1015 488 486
f 1015 486 1016
f 1016 486 484
f 1016 484 1017
f 1017 484 482
f 1017 482 1018
f 1018 482 480
f 1018 480 1019
f 1019 480 478
f 1019 478 1020
f 1020 478 475
f 1020 475 1021
f 1021 475 472
f 1021 472 1022
f 1022 472 469
f 1022 469 1023
f 1023 469 467
f 1023 467 1024
f 1024 467 465
f 1024 465 1025
f 1025 465 463
f 1025 463 1026
f 1026 463 461
f 1026 461 1027
f 1027 461 459
f 1027 459 1028
f 1028 459 457
f 1028 457 1029
f 1029 457 455
f 1029 455 1030
f 1030 455 453
f 1030 453 1031
f 1031 453 451
f 1031 451 1032
f 1032 451 449
f 1032 449 1033
f 1033 449 447
f 1033 447 1034
f 1034 447 446
f 1034 446 1035
f 1035 446 445
f 1035 445 1036
f 1036 445 444
f 1036 444 1037
f 1037 444 443
f 1037 443 1038
f 1038 443 442
f 1038 442 1039
f 1039 442 441
f 1039 441 1040
f 1040 441 440
f 1040 440 1041
f 1041 440 439
f 1041 439 1042
f 1042 439 438
f 1042 438 1043
f 1043 438 517
f 1043 517 1044
f 1044 517 516
f 1044 516 1045
f 1045 516 513
f 1045 513 1046
f 1046 513 511
f 1046 511 1047
f 1047 511 509
f 1047 509 1048
f 1048 509 507
f 1048 507 1049
f 1049 507 505
f 1049 505 1050
f 1050 505 503
f 1050 503 1051
f 1051 503 501
f 1051 501 1052
f 1052 501 499
f 1052 499 1011
f 1011 499 495
f 1011 1012 1034
f 1034 1012 1013
f 1034 1013 1014
f 1014 1015 1034
f 1034 1015 1016
f 1034 1016 1017
f 1017 1018 1034
f 1034 1018 1019
f 1034 1019 1020
f 1021 1028 1020
f 1020 1028 1029
f 1020 1029 1030
f 1022 1023 1021
f 1021 1023 1024
f 1021 1024 1025
f 1025 1026 1021
f 1021 1026 1027
f 1021 1027 1028
f 1030 1031 1020
f 1020 1031 1032
f 1020 1032 1033
f 1033 1034 1020
f 1035 1036 1034
f 1034 1036 1037
f 1034 1037 1038
f 1038 1039 1034
f 1034 1039 1040
f 1034 1040 1041
f 1041 1042 1034
f 1034 1042 1043
f 1034 1043 1044
f 1044 1045 1034
f 1034 1045 1046
f 1034 1046 1047
f 1047 1048 1034
f 1034 1048 1049
f 1034 1049 1050
f 1050 1051 1034
f 1034 1051 1052
f 1034 1052 1011
f 1053 737 1054
f 1054 737 736
f 1054 736 1055
f 1055 736 735
f 1055 735 1056
f 1056 735 430
f 1056 430 1057
f 1057 430 429
f 1057 429 1058
f 1058 429 431
f 1058 431 1059
f 1059 431 432
f 1059 432 1060
f 1060 432 433
f 1060 433 1061
f 1061 433 434
f 1061 434 1062
f 1062 434 435
f 1062 435 1063
f 1063 435 436
f 1063 436 1064
f 1064 436 346
f 1064 346 1065
f 1065 346 345
f 1065 345 1066
f 1066 345 344
f 1066 344 1067
f 1067 344 343
f 1067 343 1068
f 1068 343 561
f 1068 561 1069
f 1069 561 562
f 1069 562 1070
f 1070 562 448
f 1070 448 1071
f 1071 448 450
f 1071 450 1072
f 1072 450 452
f 1072 452 1073
f 1073 452 454
f 1073 454 1074
f 1074 454 456
f 1074 456 1075
f 1075 456 458
f 1075 458 1076
f 1076 458 460
f 1076 460 1077
f 1077 460 462
f 1077 462 1078
f 1078 462 464
f 1078 464 1079
f 1079 464 466
f 1079 466 1080
f 1080 466 468
f 1080 468 1081
f 1081 468 470
f 1081 470 1082
f 1082 470 471
f 1082 471 1083
f 1083 471 731
f 1083 731 1084
f 1084 731 733
f 1084 1053 1083
f 1083 1053 1054
f 1083 1054 1082
f 1082 1054 1055
f 1082 1055 1081
f 1081 1055 1056
f 1081 1056 1080
f 1080 1056 1057
f 1080 1057 1079
f 1079 1057 1058
f 1079 1058 1078
f 1078 1058 1059
f 1078 1059 1077
f 1077 1059 1060
f 1077 1060 1076
f 1076 1060 1061
f 1076 1061 1075
f 1075 1061 1062
f 1075 1062 1074
f 1074 1062 1063
f 1074 1063 1073
f 1073 1063 1064
f 1073 1064 1072
f 1072 1064 1065
f 1072 1065 1071
f 1071 1065 1066
f 1071 1066 1070
f 1070 1066 1067
f 1070 1067 1069
f 1069 1067 1068
f 1085 733 1086
f 1086 733 734
f 1086 734 630
f 630 734 815
f 815 734 784
f 424 737 1085
f 1085 737 733
f 1053 1084 737
f 737 1084 733
f 630 626 1086
f 725 1087 723
f 723 1087 1088
f 723 1088 720
f 720 1088 1089
f 720 1089 718
f 718 1089 1090
f 718 1090 716
f 716 1090 1091
f 716 1091 714
f 714 1091 1092
f 714 1092 712
f 712 1092 1093
f 712 1093 713
f 713 1093 1094
f 713 1094 707
f 707 1094 1095
f 707 1095 708
f 708 1095 1096
f 708 1096 709
f 709 1096 1097
f 709 1097 710
f 710 1097 1098
f 710 1098 729
f 729 1098 1099
f 729 1099 730
f 730 1099 1100
f 730 1100 626
f 626 1100 1086
f 1087 704 1101
f 1101 704 705
f 1101 705 780
f 780 705 740
f 725 728 1087
f 1087 728 704
f 969 1010 728
f 728 1010 704
f 662 1102 665
f 665 1102 1103
f 665 1103 666
f 666 1103 1104
f 666 1104 667
f 667 1104 1105
f 667 1105 669
f 669 1105 1106
f 669 1106 670
f 670 1106 1107
f 670 1107 672
f 672 1107 1108
f 672 1108 674
f 674 1108 1109
f 674 1109 677
f 677 1109 1110
f 677 1110 679
f 679 1110 1111
f 679 1111 681
f 681 1111 1112
f 681 1112 683
f 683 1112 1113
f 683 1113 783
f 783 1113 1114
f 783 1114 782
f 782 1114 1115
f 782 1115 781
f 781 1115 1101
f 781 1101 780
f 783 779 683
f 1102 545 1116
f 1116 545 738
f 1116 738 373
f 662 298 1102
f 1102 298 342
f 1102 342 545
f 297 341 298
f 298 341 342
f 816 838 545
f 545 838 738
f 399 1117 402
f 402 1117 1118
f 402 1118 404
f 404 1118 1119
f 404 1119 406
f 406 1119 1120
f 406 1120 409
f 409 1120 1121
f 409 1121 411
f 411 1121 1122
f 411 1122 413
f 413 1122 1123
f 413 1123 385
f 385 1123 1124
f 385 1124 383
f 383 1124 1125
f 383 1125 381
f 381 1125 1126
f 381 1126 379
f 379 1126 1127
f 379 1127 378
f 378 1127 1128
f 378 1128 377
f 377 1128 1129
f 377 1129 375
f 375 1129 1130
f 375 1130 373
f 373 1130 1116
f 1131 1117 414
f 414 1117 399
f 424 1085 428
f 428 1085 1132
f 428 1132 427
f 427 1132 1133
f 427 1133 426
f 426 1133 1134
f 426 1134 425
f 425 1134 1135
f 425 1135 423
f 423 1135 1136
f 423 1136 422
f 422 1136 1137
f 422 1137 421
f 421 1137 1138
f 421 1138 420
f 420 1138 1139
f 420 1139 419
f 419 1139 1140
f 419 1140 418
f 418 1140 1141
f 418 1141 417
f 417 1141 1142
f 417 1142 416
f 416 1142 1143
f 416 1143 415
f 415 1143 1144
f 415 1144 414
f 414 1144 1131
f 41 1116 40
f 40 1116 1120
f 40 1120 1119
f 120 1087 41
f 41 1087 1101
f 41 1101 1115
f 118 1086 120
f 120 1086 1090
f 120 1090 1089
f 40 1131 118
f 118 1131 1144
f 118 1144 1143
f 1143 1142 118
f 118 1142 1085
f 118 1085 1086
f 1142 1141 1085
f 1085 1141 1140
f 1085 1140 1139
f 1139 1138 1085
f 1085 1138 1137
f 1085 1137 1136
f 1136 1135 1085
f 1085 1135 1134
f 1085 1134 1133
f 1133 1132 1085
f 1100 1099 1086
f 1086 1099 1098
f 1086 1098 1097
f 1097 1096 1086
f 1086 1096 1095
f 1086 1095 1094
f 1094 1093 1086
f 1086 1093 1092
f 1086 1092 1091
f 1091 1090 1086
f 1089 1088 120
f 120 1088 1087
f 1115 1114 41
f 41 1114 1113
f 41 1113 1102
f 1102 1113 1112
f 1102 1112 1111
f 1111 1110 1102
f 1102 1110 1109
f 1102 1109 1108
f 1108 1107 1102
f 1102 1107 1106
f 1102 1106 1105
f 1105 1104 1102
f 1102 1104 1103
f 1102 1116 41
f 1130 1129 1116
f 1116 1129 1128
f 1116 1128 1127
f 1127 1126 1116
f 1116 1126 1125
f 1116 1125 1124
f 1124 1123 1116
f 1116 1123 1122
f 1116 1122 1121
f 1121 1120 1116
f 1119 1118 40
f 40 1118 1117
f 40 1117 1131
