v -3.8221 13.1344 -123.444
v -6.00806 13.1158 -123.246
v -8.45129 12.8951 -122.853
v -1.93071 13.4352 -123.781
v -6.42276 13.2938 -123.415
v -16.3416 12.4849 -120.888
v -16.3197 12.2249 -120.63
v -16.3231 12.0259 -120.579
v -14.5111 12.2122 -121.216
v -16.32 11.9993 -120.579
v -16.3232 11.9989 -120.578
v -13.2675 12.464 -121.633
v -0.817655 13.1183 -123.517
v -11.6807 12.7334 -122.128
v -11.3175 12.9959 -122.493
v 13.6809 10.918 -120.593
v 13.6722 12.3891 -120.638
v 7.16091 12.8901 -122.58
v 1.35224 13.3257 -123.558
v 2.51184 13.416 -123.67
v 13.721 12.6095 -120.964
v 7.13473 13.1977 -122.871
v 3.11528 13.0426 -123.261
v 10.3406 12.6861 -121.75
v 5.41878 13.2118 -123.093
v -16.3232 12.4654 -120.578
v -16.432 12.4088 -120.152
v -16.9851 12.3118 -119.694
v -23.3215 11.6781 -119.658
v -31.4339 12.9575 -141.829
v -29.2486 11.4999 -125.079
v -30.2352 11.4774 -126.281
v -31.3534 11.3397 -126.771
v -32.8087 11.0787 -126.701
v -34.656 11.7496 -137.364
v -34.2199 10.7244 -125.713
v -36.1845 9.89824 -122.004
v -34.7506 10.1064 -120.01
v -34.8076 10.4548 -123.992
v -34.7677 20.3372 -212.635
v -36.2198 17.8486 -197.242
v -36.1956 20.0772 -215.152
v 5.2469 19.1381 -180.097
v -0.664862 21.5148 -202.968
v -1.74562 22.631 -213.981
v 13.2434 22.5749 -213.986
v 16.8303 22.0377 -209.266
v 10.0348 17.422 -164.445
v 14.4131 12.4217 -119.674
v 13.725 12.5322 -120.23
v 25.2599 17.6987 -173.716
v 24.2938 17.1636 -168.272
v 24.4042 20.0892 -193.312
v 25.8836 22.0401 -210.672
v 26.9015 21.9982 -211.523
v 27.706 21.7397 -210.779
v 22.8265 11.5542 -119.658
v 27.2685 10.9253 -119.658
v 27.1002 11.2318 -122.112
v 31.5887 10.2527 -119.753
v 28.0419 11.0014 -121.361
v 30.9567 10.5525 -121.626
v 31.8332 10.5051 -122.658
v 32.9909 10.0409 -120.751
v 33.5747 9.98908 -122.121
v 33.58 12.0971 -142.087
v 32.1456 10.5676 -123.858
v 31.5626 10.8906 -125.693
v 31.9697 10.713 -124.915
v 30.3807 12.5361 -138.858
v 30.5066 11.1548 -126.56
v 28.8047 11.4939 -126.824
v 27.2695 11.6567 -126.018
v 26.2623 14.2489 -146.608
v 26.5882 11.638 -124.943
v 26.4213 11.5481 -123.953
v 26.591 11.4082 -122.97
v 33.5798 15.0625 -169.608
v 31.5862 14.5111 -159.07
v 30.3781 17.5814 -182.407
v 33.5763 20.3495 -214.864
v 33.2538 20.6279 -215.926
v 32.5089 21.0296 -216.828
v 32.1647 20.7348 -213.351
v 31.4767 21.4684 -217.361
v 31.647 21.0928 -214.783
v 30.68 21.7418 -217.458
v 29.1137 22.2011 -217.458
v 29.124 22.1985 -217.458
v 30.487 21.6015 -215.781
v 29.3459 21.9588 -216.005
v 29.1226 22.1946 -217.423
v 28.8588 22.0865 -215.975
v 27.5474 22.5901 -217.458
v 28.1175 22.247 -215.767
v 26.9611 22.7107 -217.458
v 27.1913 22.3894 -215.129
v 26.4282 22.7813 -217.448
v 26.5568 22.3585 -214.053
v 26.4248 22.2365 -212.887
v 26.4477 22.7869 -217.458
v 25.9213 22.83 -217.458
v 25.2956 22.8511 -217.458
v 24.1939 22.8641 -217.458
v 22.4131 22.8794 -217.458
v 19.3557 22.9035 -217.458
v 13.2434 22.9427 -217.458
v 13.2434 22.6265 -214.474
v -16.7566 22.5797 -213.986
v -5.37465 22.6261 -213.96
v -29.0074 21.6739 -209.372
v -26.5745 18.4726 -179.726
v -16.7566 22.6313 -214.473
v -9.71441 22.6118 -213.933
v -16.7566 22.9469 -217.458
v -22.0916 22.9151 -217.458
v -24.7621 22.8957 -217.458
v -25.4303 22.8905 -217.458
v -27.0816 22.7568 -216.41
v -26.0654 22.8853 -217.458
v -26.6122 22.8791 -217.458
v -27.0843 22.8701 -217.458
v -28.1367 22.8166 -217.455
v -28.8947 22.7063 -217.458
v -29.4977 22.5782 -217.458
v -29.4975 22.5786 -217.451
v -29.2016 22.2181 -214.044
v -29.9417 22.4699 -217.458
v -30.428 22.3445 -217.458
v -29.9203 22.1972 -215.253
v -31.5298 22.0397 -217.458
v -31.5987 21.8402 -216.033
v -33.32 21.4743 -217.458
v -34.115 21.1827 -217.362
v -33.2633 21.2745 -215.709
v -35.1465 20.7231 -216.83
v -34.4984 20.6742 -214.466
v -35.7112 20.4141 -216.199
v -36.2196 14.0118 -163.639
v -33.6338 14.2407 -158.395
v -32.3562 15.9959 -170.487
v -35.7078 9.94603 -120.875
v -33.74 10.2419 -119.685
v -27.5713 11.1496 -119.658
v -29.1361 11.301 -123.108
v -30.2208 10.9798 -121.628
v -31.9743 10.6517 -121.05
v -33.402 10.4684 -121.515
v -34.3462 10.3952 -122.404
v 29.5119 10.7363 -121.085
v 30.6875 20.9047 -210.639
v 31.7619 20.6667 -211.695
v 29.0004 21.3503 -210.271
v 29.5008 21.0187 -208.643
v 28.5016 16.8601 -172.335
v 27.8153 15.3089 -158.049
v -30.5683 21.4415 -210.595
v -29.3813 21.89 -211.783
v -29.0553 22.1319 -213.103
v -32.3628 20.8831 -210.296
v -31.9289 19.0289 -194.499
v -30.4884 15.5969 -163.075
v -28.9565 17.4936 -175.753
v -33.9347 20.455 -211.088
v -34.1634 16.7631 -181.687
v 18.4907 16.6752 -160.853
v 18.4207 19.3212 -184.734
v -5.67675 19.4795 -183.153
v -11.6094 18.0669 -170.322
v -17.1459 22.5734 -213.96
v -19.3581 21.0697 -200.171
v -15.7431 15.5926 -148.574
v -28.2043 14.4535 -149.246
v -23.3863 16.092 -156.975
v -23.5323 17.8153 -171.985
v -14.32 7.61222 -139.158
v -14.7006 10.6122 -139.133
v -14.8376 7.61222 -139.09
v -15.32 7.61222 -138.89
v -15.5841 10.6122 -138.727
v -15.7342 7.61222 -138.572
v -16.0521 7.61222 -138.158
v -16.2486 10.6122 -137.779
v -16.2519 7.61222 -137.676
v -16.32 7.61222 -137.158
v 12.5401 10.6122 -139.03
v 0.546446 10.627 -123.842
v 4.16096 10.6351 -123.416
v 13.5987 10.6122 -137.835
v -4.72871 10.6145 -123.832
v -10.1743 10.6202 -122.894
v 11.68 7.61222 -139.158
v 13.68 7.61222 -137.158
v 13.6119 7.61222 -137.676
v 13.4121 7.61222 -138.158
v 13.0942 7.61222 -138.572
v 12.68 7.61222 -138.89
v 12.1976 7.61222 -139.09
v 3.21352 10.9092 -123.261
v 5.83327 10.9263 -122.839
v 8.76971 10.9287 -122.18
v 11.1236 10.9747 -121.483
v 7.13912 10.6319 -122.901
v 10.4481 10.6527 -121.947
v 13.6797 10.6593 -120.869
v 1.4253 10.7556 -123.536
v -1.32 10.6978 -123.722
v -0.990833 10.9272 -123.534
v 5.826 10.714 -123.019
v -4.34347 10.9979 -123.386
v -7.2112 10.7558 -123.178
v -13.4305 10.6412 -121.9
v -16.32 10.643 -120.906
v -16.32 10.864 -120.639
v -16.32 11.1122 -120.579
v -16.3228 11.0464 -120.582
v -8.15587 10.9632 -122.899
v -11.5 10.7435 -122.288
v -10.5977 10.9956 -122.366
v -4.20961 10.6275 -123.767
v -3.61063 10.6621 -123.701
v -4.5514 10.7299 -123.523
v -13.5432 10.9308 -121.563
v 13.7093 7.61224 -120.279
v 14.3869 7.61223 -119.675
v 30.7213 7.61222 -123.735
v 33.58 7.61222 -122.558
v 30.5843 7.61222 -124.657
v 30.303 7.61222 -212.13
v 33.58 7.61222 -214.558
v 30.6139 7.61222 -212.565
v 30.0027 7.61222 -125.216
v 30.0027 7.61222 -211.9
v 29.653 7.61222 -211.755
v 29.653 7.61222 -125.361
v 29.2777 7.61222 -125.41
v 28.9024 7.61222 -125.361
v 28.5527 7.61222 -125.216
v 28.14 7.61222 -124.877
v 27.8341 7.61222 -124.185
v 27.9151 7.61222 -123.433
v 28.3612 7.61222 -122.822
v 29.0529 7.61222 -122.517
v 29.8048 7.61222 -122.598
v 30.4155 7.61222 -123.044
v 31.141 7.61223 -119.683
v 32.265 7.61223 -120.108
v 33.3333 7.61223 -121.286
v -30.5171 7.61222 -213.531
v 27.8771 7.61222 -213.531
v -30.4677 7.61222 -213.156
v 27.8277 7.61222 -213.156
v -30.5171 7.61222 -212.78
v 27.8771 7.61222 -212.78
v -30.662 7.61222 -212.431
v 28.022 7.61222 -212.431
v 28.2524 7.61222 -212.13
v 28.5527 7.61222 -211.9
v 28.9024 7.61222 -211.755
v 29.2777 7.61222 -211.706
v 28.022 7.61222 -213.881
v -30.662 7.61222 -213.881
v 28.2524 7.61222 -214.181
v -31.0012 7.61222 -214.293
v 31.4077 7.61223 -217.411
v -31.6929 7.61222 -214.599
v -32.4448 7.61222 -214.518
v -33.0555 7.61222 -214.072
v -33.753 7.61223 -217.439
v -34.88 7.61222 -217.022
v -33.3613 7.61222 -213.381
v -35.9567 7.61222 -215.867
v -36.22 7.61222 -214.558
v -33.2803 7.61222 -212.629
v -32.943 7.61222 -212.13
v -36.22 7.61222 -122.558
v -33.0555 7.61222 -124.877
v -32.6427 7.61222 -125.216
v -32.6427 7.61222 -211.9
v -32.293 7.61222 -211.755
v -31.9177 7.61222 -211.706
v -32.293 7.61222 -125.361
v -31.9177 7.61222 -125.41
v -31.5424 7.61222 -125.361
v -31.1927 7.61222 -125.216
v -30.738 7.61222 -124.822
v -30.4651 7.61222 -124.117
v -30.5815 7.61222 -123.369
v -33.752 7.61223 -119.677
v -31.056 7.61222 -122.78
v -31.7613 7.61222 -122.508
v -32.7007 7.61222 -122.703
v -34.894 7.61222 -120.101
v -31.5424 7.61222 -211.755
v -31.1927 7.61222 -211.9
v -30.8924 7.61222 -212.13
v -33.3613 7.61222 -124.185
v -33.2803 7.61222 -123.433
v -35.9708 7.61222 -121.279
v 30.7303 7.61222 -213.312
v 33.4219 7.61222 -215.551
v 30.4575 7.61222 -214.017
v 32.7392 7.61222 -216.623
v 29.8685 7.61222 -214.492
v 28.9426 7.61222 -214.598
v -16.32 7.61222 -120.658
v -17.0532 7.61223 -119.673
v -16.5314 7.61222 -120.028
v -16.3541 7.61222 -120.399
v -16.7566 14.4916 -217.458
v -16.7566 14.5821 -217.45
v -1.75659 14.4916 -217.458
v -2.54607 14.583 -217.449
v -2.54607 14.6713 -217.425
v -2.15133 14.8716 -217.275
v -0.967118 14.6759 -217.419
v -0.967118 14.8015 -217.35
v -0.967118 14.9611 -217.13
v -1.75659 14.9882 -217.016
v 13.2434 14.9696 -217.105
v -16.7566 14.7709 -217.382
v -15.1776 14.583 -217.449
v -13.5987 14.583 -217.449
v -12.0197 14.583 -217.449
v -12.8092 14.8181 -217.334
v -12.0197 14.6713 -217.425
v -12.0197 14.7246 -217.4
v -12.0197 14.9611 -217.13
v -16.7566 14.9882 -217.016
v -10.4408 14.9611 -217.13
v -8.86185 14.9611 -217.13
v -9.05922 14.8866 -217.258
v -16.7566 14.9431 -217.18
v -7.28291 14.9611 -217.13
v 13.2434 14.9248 -217.213
v 10.0855 14.9611 -217.13
v 8.50657 14.9611 -217.13
v 8.11183 14.8783 -217.266
v 9.26745 14.7186 -217.412
v 10.0855 14.583 -217.449
v 8.50657 14.583 -217.449
v 13.2434 14.4916 -217.458
v 6.92762 14.583 -217.449
v 5.34867 14.583 -217.449
v 5.34867 14.6713 -217.425
v 3.76972 14.6713 -217.425
v 3.76972 14.7246 -217.4
v 2.19078 14.7246 -217.4
v 13.2434 14.8085 -217.368
v 3.76972 14.583 -217.449
v 2.19078 14.6713 -217.425
v 1.00657 14.8716 -217.275
v -10.4408 14.583 -217.449
v -8.86185 14.583 -217.449
v -10.4408 14.6713 -217.425
v -8.86185 14.6713 -217.425
v -10.4408 14.7246 -217.4
v -8.86185 14.7246 -217.4
v -7.28291 14.583 -217.449
v -7.28291 14.6713 -217.425
v -7.28291 14.7246 -217.4
v -4.12501 14.583 -217.449
v -4.12501 14.6713 -217.425
v -4.51975 14.8431 -217.311
v 1.4013 14.6051 -217.443
v 0.61183 14.9611 -217.13
v 3.76972 14.9611 -217.13
v 5.34867 14.9611 -217.13
v 6.92762 14.9611 -217.13
v -5.70396 14.9611 -217.13
v -5.70396 14.583 -217.449
v -5.70396 14.6713 -217.425
v 2.19078 14.9611 -217.13
v 3.96709 14.8449 -217.305
v 6.13815 14.698 -217.412
v 7.71709 14.698 -217.412
v -16.7566 15.284 -215.288
v 13.2434 15.2485 -215.481
v -1.75659 15.7993 -213.962
v 13.2434 15.7053 -214.15
v 13.2434 16.0141 -213.583
v -1.75659 16.0451 -213.534
v 13.2434 16.2588 -213.235
v -1.75659 16.3241 -213.154
v -1.75659 17.6688 -212.16
v 13.2434 16.992 -212.5
v 13.2434 18.1301 -212.009
v -1.75659 18.7424 -211.887
v 13.2434 19.174 -211.841
v -1.75659 19.174 -211.841
v -16.7566 19.174 -211.841
v -16.7566 17.6866 -212.132
v -16.7566 16.7514 -212.72
v -16.7566 16.2588 -213.235
v -16.7566 16.0141 -213.583
v -16.7566 15.7053 -214.15
v 13.2434 19.7057 -212.278
v 13.2434 19.6851 -212.185
v -1.75659 19.7057 -212.278
v -0.0899247 19.6846 -212.184
v -0.923258 19.6654 -212.14
v -1.75659 19.6462 -212.097
v -2.17326 19.5212 -211.952
v -3.42326 19.2954 -211.848
v -16.7566 19.2687 -211.844
v -5.08992 19.2954 -211.848
v -6.75659 19.2954 -211.848
v -13.4233 19.6462 -212.097
v -15.0899 19.6462 -212.097
v -15.0899 19.6846 -212.184
v 13.2434 19.5336 -211.941
v 11.5767 19.6846 -212.184
v 9.91008 19.6846 -212.184
v 8.24341 19.6846 -212.184
v 9.91008 19.6462 -212.097
v 8.24341 19.6462 -212.097
v 9.07674 19.4712 -211.92
v 8.24341 19.6134 -212.045
v 6.57674 19.4902 -211.934
v 13.2434 19.3021 -211.848
v 8.24341 19.2954 -211.848
v 6.57674 19.2954 -211.848
v 3.66008 19.42 -211.889
v 11.5767 19.6462 -212.097
v -11.7566 19.2954 -211.848
v -11.9649 19.5009 -211.939
v -8.63159 19.4795 -211.929
v -15.8559 19.3567 -211.861
v -16.7566 19.5636 -211.966
v -16.7566 19.7057 -212.278
v -13.4233 19.6846 -212.184
v -11.7566 19.6462 -212.097
v -3.00659 19.3416 -211.86
v -10.0899 19.6846 -212.184
v -11.7566 19.6846 -212.184
v -10.0899 19.2954 -211.848
v -8.42326 19.2954 -211.848
v -8.42326 19.6846 -212.184
v -8.42326 19.6462 -212.097
v -10.0899 19.6462 -212.097
v -9.25659 19.6134 -212.045
v -5.08992 19.6846 -212.184
v -3.42326 19.6846 -212.184
v 3.24341 19.6846 -212.184
v 4.91008 19.6846 -212.184
v 6.57674 19.6846 -212.184
v 6.57674 19.6462 -212.097
v -5.92326 19.4712 -211.92
v -6.75659 19.6134 -212.045
v -3.42326 19.6298 -212.071
v -5.08992 19.6462 -212.097
v -6.75659 19.6462 -212.097
v -6.75659 19.6846 -212.184
v 1.57674 19.6462 -212.097
v 1.57674 19.6846 -212.184
v 3.24341 19.6462 -212.097
v 4.91008 19.6462 -212.097
v 0.743409 19.6134 -212.045
v 3.24341 19.6134 -212.045
v 4.91008 19.6134 -212.045
v 6.57674 19.6134 -212.045
v 0.326742 19.42 -211.889
v 13.2434 19.9604 -214.305
v 13.2434 20.3118 -214.725
v 13.2434 20.5189 -214.739
v 13.2434 22.14 -214.535
v 13.2434 22.4857 -214.377
v 13.2434 22.5757 -214.083
v -16.7566 19.9604 -214.305
v -0.493504 22.6307 -214.079
v 1.12838 22.6288 -214.08
v 2.75391 22.6257 -214.08
v 4.92438 22.5922 -214.208
v 1.97916 22.5835 -214.252
v 6.08764 22.4606 -214.407
v 8.21419 22.4191 -214.43
v 11.5053 22.5873 -214.083
v 9.75837 22.5978 -214.082
v 8.00829 22.6069 -214.082
v 8.85041 22.5431 -214.292
v 7.45596 22.546 -214.287
v 11.1063 22.3137 -214.488
v -1.1653 22.6258 -214.13
v -1.74561 22.1959 -214.528
v 6.25504 22.2991 -214.5
v 8.00651 22.2915 -214.501
v -16.7566 22.1448 -214.535
v -16.7566 22.2393 -214.513
v -2.11086 22.3158 -214.498
v -0.493785 22.3152 -214.498
v -2.11086 22.403 -214.453
v -0.493714 22.4023 -214.453
v -2.11086 22.4797 -214.393
v 0.289389 22.4785 -214.393
v -13.5157 22.2847 -214.501
v -11.8863 22.2929 -214.5
v -13.5162 22.372 -214.457
v -11.8867 22.3801 -214.456
v -13.5166 22.4489 -214.396
v -11.8871 22.457 -214.395
v -13.9965 22.5549 -214.254
v -12.4544 22.5421 -214.287
v -11.8879 22.5898 -214.177
v -13.5176 22.6002 -214.082
v -11.888 22.6083 -214.081
v -10.2555 22.6153 -214.081
v -8.62187 22.621 -214.08
v -7.81641 22.6049 -214.176
v -7.53904 22.5605 -214.285
v -4.22464 22.5873 -214.251
v -3.73146 22.4791 -214.393
v -16.7566 22.352 -214.464
v -15.1638 22.4016 -214.433
v -16.7566 22.556 -214.227
v -6.98885 22.6255 -214.08
v -5.84123 22.585 -214.251
v 6.25651 22.6146 -214.081
v 4.50455 22.6209 -214.08
v 7.12117 22.5926 -214.177
v 4.50339 22.3054 -214.499
v 1.12781 22.3133 -214.498
v 1.12795 22.4005 -214.454
v -3.73131 22.3151 -214.498
v -3.73139 22.4023 -214.453
v -6.98798 22.3099 -214.498
v -8.62072 22.3055 -214.499
v -10.2541 22.2998 -214.5
v -10.2544 22.387 -214.455
v -5.35818 22.6287 -214.079
v 2.75306 22.3101 -214.498
v 2.41658 22.4465 -214.422
v -0.30932 22.5653 -214.288
v -5.35775 22.4003 -214.454
v -5.3576 22.3132 -214.498
v -6.9882 22.3971 -214.454
v -8.62101 22.3927 -214.455
v -5.35788 22.4771 -214.393
v -6.9884 22.4739 -214.394
v -8.62127 22.4695 -214.394
v -10.2548 22.4638 -214.395
v -9.87954 22.5895 -214.208
v -8.6215 22.5331 -214.32
v -10.7809 22.5496 -214.286
v -16.7566 20.5189 -214.739
v -16.7566 20.0248 -214.502
v -11.302 19.9935 -214.431
v -8.57477 19.9935 -214.431
v -0.392955 20.3883 -214.738
v 2.33432 20.3883 -214.738
v 5.06159 20.3883 -214.738
v 7.78886 20.3883 -214.738
v 6.42523 20.1576 -214.628
v 5.06159 19.9935 -214.431
v 7.78886 19.9935 -214.431
v 13.2434 20.0377 -214.531
v 10.5161 20.1039 -214.591
v 10.5161 20.3254 -214.721
v -14.0293 20.0258 -214.488
v -16.7566 20.2804 -214.72
v -3.12023 20.3883 -214.738
v -5.8475 20.3883 -214.738
v -8.57477 20.3883 -214.738
v -9.93841 20.1462 -214.616
v -0.392955 19.9935 -214.431
v 2.33432 19.9935 -214.431
v -5.8475 19.9935 -214.431
v -3.12023 19.9935 -214.431
v 2.33432 20.1039 -214.591
v -2.43841 20.1321 -214.608
v -6.52932 20.155 -214.631
v 0.970681 20.2343 -214.687
v -14.0293 20.2061 -214.671
v -29.233 9.5122 -122.958
v -29.9416 9.51221 -121.883
v -31.0691 9.51223 -121.22
v -32.0834 9.51222 -121.115
v -33.0529 9.51219 -121.328
v -34.1065 9.51221 -122.108
v -34.7016 9.51225 -123.272
v -34.7213 9.5122 -124.575
v -34.1349 9.51223 -125.778
v -33.0644 9.51219 -126.593
v -31.7305 9.51222 -126.822
v -30.4856 9.51221 -126.445
v -29.5348 9.51222 -125.555
v -29.0625 9.51223 -124.281
v -30.4651 9.51222 -123.804
v -30.738 9.51222 -123.098
v -31.3269 9.51222 -122.624
v -32.0742 9.51222 -122.508
v -32.7795 9.51222 -122.78
v -33.2539 9.51222 -123.369
v -33.3703 9.51222 -124.117
v -33.0975 9.51222 -124.822
v -32.5085 9.51222 -125.296
v -31.7613 9.51222 -125.413
v -31.0559 9.51222 -125.14
v -30.5815 9.51222 -124.551
v 31.986 9.51227 -123.009
v 32.1277 9.51222 -123.96
v 31.9745 9.51218 -124.939
v 31.2234 9.51223 -126.071
v 30.0948 9.51223 -126.707
v 28.7898 9.51221 -126.788
v 27.5345 9.51223 -126.241
v 26.7122 9.51223 -125.237
v 26.4086 9.51221 -123.958
v 26.7332 9.51223 -122.63
v 27.5769 9.51224 -121.654
v 28.7836 9.5122 -121.134
v 30.0916 9.51223 -121.212
v 31.2217 9.51223 -121.847
v 30.7303 9.51222 -123.804
v 30.4575 9.51222 -123.098
v 29.8685 9.51222 -122.624
v 29.1213 9.51222 -122.508
v 28.4159 9.51222 -122.78
v 27.9415 9.51222 -123.369
v 27.8251 9.51222 -124.117
v 28.098 9.51222 -124.822
v 28.6869 9.51222 -125.296
v 29.4342 9.51222 -125.413
v 30.1395 9.51222 -125.14
v 30.6139 9.51222 -124.551
v 31.9628 12.5122 -212.148
v 31.247 12.5122 -211.074
v 30.1196 12.5122 -210.411
v 28.8074 12.5122 -210.329
v 27.5608 12.5122 -210.851
v 26.7005 12.5122 -211.9
v 26.4106 12.5122 -213.162
v 26.7182 12.5122 -214.457
v 27.3219 12.5122 -215.229
v 28.1351 12.5122 -215.788
v 29.4785 12.5122 -216.019
v 30.7555 12.5122 -215.616
v 31.4609 12.5122 -214.988
v 31.9717 12.5122 -214.137
v 32.1277 12.5122 -213.156
v 30.7303 12.5122 -212.999
v 30.4575 12.5122 -212.294
v 29.8685 12.5122 -211.819
v 29.1213 12.5122 -211.703
v 28.4159 12.5122 -211.976
v 27.9415 12.5122 -212.565
v 27.8251 12.5122 -213.312
v 28.098 12.5122 -214.017
v 28.687 12.5122 -214.492
v 29.4342 12.5122 -214.608
v 30.1395 12.5122 -214.335
v 30.6139 12.5122 -213.746
v -29.9417 12.5122 -211.078
v -31.0778 12.5122 -210.413
v -32.3971 12.5122 -210.328
v -33.617 12.5122 -210.845
v -34.4768 12.5122 -211.86
v -34.7854 12.5122 -213.156
v -34.4782 12.5122 -214.447
v -33.6284 12.5122 -215.457
v -32.4183 12.5122 -215.979
v -31.098 12.5122 -215.904
v -29.9468 12.5122 -215.239
v -29.2133 12.5122 -214.116
v -29.0713 12.5122 -212.825
v -29.3709 12.5122 -211.877
v -30.4651 12.5122 -212.999
v -30.738 12.5122 -212.294
v -31.3269 12.5122 -211.819
v -32.0742 12.5122 -211.703
v -32.7795 12.5122 -211.976
v -33.2539 12.5122 -212.565
v -33.3703 12.5122 -213.312
v -33.0975 12.5122 -214.017
v -32.5085 12.5122 -214.492
v -31.7613 12.5122 -214.608
v -31.0559 12.5122 -214.335
v -30.5815 12.5122 -213.746
f 2 5 3
f 15 6 7
f 7 8 9
f 9 8 10
f 10 8 11
f 7 9 12
f 13 4 1
f 5 2 4
f 4 2 1
f 5 15 14
f 5 14 3
f 12 14 15
f 12 15 7
f 13 19 4
f 4 19 20
f 24 17 21
f 25 22 20
f 24 21 22
f 25 20 19
f 24 22 18
f 18 22 25
f 23 18 25
f 23 25 19
f 23 19 13
f 26 6 27
f 27 6 28
f 144 29 173
f 144 173 31
f 31 173 30
f 31 30 32
f 32 30 33
f 33 30 34
f 34 30 35
f 34 35 36
f 36 35 39
f 39 35 37
f 39 37 38
f 39 38 149
f 28 6 174
f 41 40 42
f 172 6 15
f 172 15 169
f 169 15 5
f 169 5 4
f 169 4 168
f 168 4 44
f 44 4 20
f 44 20 43
f 45 44 46
f 46 44 47
f 22 48 43
f 22 43 20
f 48 22 21
f 48 21 49
f 21 50 49
f 52 51 53
f 53 51 54
f 54 51 56
f 54 56 55
f 57 58 59
f 60 61 58
f 60 62 150
f 60 63 62
f 63 60 67
f 67 60 64
f 64 65 66
f 64 66 67
f 67 66 69
f 69 66 68
f 68 70 71
f 71 70 72
f 72 70 73
f 73 70 156
f 73 156 74
f 73 74 75
f 75 74 57
f 75 57 76
f 76 57 77
f 77 57 59
f 66 78 68
f 68 78 79
f 81 152 78
f 78 80 79
f 152 81 84
f 84 81 82
f 84 82 83
f 84 83 85
f 87 90 85
f 85 90 86
f 88 89 87
f 87 89 90
f 90 89 91
f 91 89 92
f 91 92 93
f 93 92 88
f 93 88 95
f 95 88 94
f 95 94 97
f 97 96 98
f 97 98 99
f 99 98 100
f 100 98 54
f 100 54 55
f 94 96 97
f 96 101 98
f 98 101 102
f 98 102 54
f 54 47 53
f 53 47 167
f 53 167 52
f 52 167 166
f 52 166 57
f 57 166 49
f 102 103 54
f 54 103 104
f 54 104 47
f 47 104 105
f 47 105 106
f 47 106 107
f 47 107 108
f 108 46 47
f 109 110 45
f 45 110 44
f 123 111 112
f 113 119 109
f 109 119 170
f 170 44 114
f 114 44 110
f 113 115 119
f 119 115 116
f 119 116 117
f 119 117 118
f 119 118 120
f 119 120 121
f 121 122 119
f 119 122 123
f 123 124 127
f 123 127 159
f 125 126 124
f 124 126 127
f 125 128 126
f 126 128 130
f 130 128 129
f 130 129 132
f 132 129 131
f 132 131 133
f 132 133 135
f 135 133 134
f 135 134 137
f 137 134 136
f 137 136 40
f 40 136 138
f 40 138 42
f 41 139 165
f 112 163 29
f 174 29 28
f 140 139 35
f 35 139 37
f 142 38 37
f 38 143 147
f 147 143 144
f 144 145 146
f 146 147 144
f 147 148 38
f 38 148 149
f 31 145 144
f 60 150 61
f 61 59 58
f 152 151 154
f 152 154 80
f 154 151 153
f 80 154 155
f 156 51 74
f 154 153 56
f 154 56 155
f 155 56 51
f 155 51 156
f 74 51 52
f 74 52 57
f 86 84 85
f 157 111 158
f 158 111 159
f 159 111 123
f 157 160 161
f 157 161 163
f 163 161 162
f 161 160 164
f 161 164 40
f 161 40 165
f 161 165 162
f 162 165 141
f 130 127 126
f 79 70 68
f 156 70 79
f 48 49 166
f 170 168 44
f 171 169 168
f 171 168 170
f 172 169 175
f 173 162 30
f 30 162 140
f 30 140 35
f 155 156 79
f 6 172 174
f 29 174 112
f 174 172 175
f 29 163 173
f 173 163 162
f 175 169 123
f 123 169 171
f 162 141 140
f 80 155 79
f 48 166 167
f 112 174 175
f 139 140 165
f 165 140 141
f 43 48 167
f 112 175 123
f 152 80 78
f 41 165 40
f 47 43 167
f 44 43 47
f 157 163 112
f 157 112 111
f 109 170 114
f 114 110 109
f 171 170 119
f 123 171 119
f 88 92 89
f 176 177 178
f 178 177 179
f 179 177 180
f 179 180 181
f 181 180 182
f 182 180 183
f 182 183 184
f 184 183 185
f 183 177 190
f 177 183 180
f 190 177 186
f 190 186 189
f 190 189 187
f 187 189 188
f 188 189 203
f 203 189 204
f 204 189 205
f 183 190 191
f 183 191 212
f 212 213 183
f 176 192 177
f 177 192 186
f 193 189 194
f 194 189 195
f 195 189 196
f 196 189 186
f 196 186 197
f 197 186 198
f 198 186 192
f 204 205 202
f 202 205 16
f 206 207 187
f 206 208 207
f 199 208 206
f 199 206 188
f 199 188 209
f 199 209 200
f 200 209 201
f 206 187 188
f 188 203 209
f 209 203 201
f 201 203 204
f 201 204 202
f 214 213 223
f 216 214 215
f 211 217 218
f 210 217 211
f 214 223 215
f 212 191 218
f 218 191 211
f 211 222 210
f 210 222 208
f 220 190 187
f 220 187 207
f 220 207 221
f 221 207 208
f 221 208 222
f 221 222 220
f 190 220 222
f 190 222 211
f 191 190 211
f 217 219 218
f 218 223 212
f 212 223 213
f 219 223 218
f 224 50 16
f 16 50 17
f 17 50 21
f 50 224 225
f 50 225 49
f 49 225 57
f 57 225 58
f 58 225 246
f 58 246 60
f 227 226 228
f 227 228 229
f 227 229 230
f 230 229 231
f 228 232 229
f 229 232 233
f 233 232 234
f 234 232 235
f 234 235 195
f 195 235 236
f 195 236 194
f 194 236 237
f 194 237 238
f 194 238 193
f 193 238 239
f 239 240 193
f 193 240 225
f 193 225 224
f 225 240 241
f 241 242 225
f 225 242 246
f 246 242 243
f 246 243 244
f 244 245 246
f 246 245 247
f 247 245 248
f 248 245 226
f 248 226 227
f 249 250 251
f 251 250 252
f 251 252 253
f 253 252 254
f 253 254 255
f 255 254 256
f 255 256 176
f 176 256 192
f 192 256 257
f 192 257 198
f 198 257 258
f 198 258 197
f 197 258 259
f 197 259 196
f 196 259 260
f 196 260 234
f 250 249 261
f 261 249 262
f 261 262 263
f 263 262 264
f 263 264 265
f 265 264 269
f 269 264 266
f 269 266 267
f 267 268 269
f 269 268 270
f 270 268 272
f 272 268 271
f 272 271 273
f 273 271 274
f 273 274 275
f 273 275 276
f 276 275 277
f 277 275 278
f 278 275 279
f 278 279 280
f 281 181 280
f 280 181 182
f 280 182 282
f 282 182 283
f 283 182 184
f 283 184 284
f 284 184 285
f 285 184 185
f 285 185 286
f 286 185 287
f 287 185 307
f 287 307 288
f 288 307 290
f 290 307 289
f 290 289 291
f 291 289 292
f 292 289 293
f 281 294 181
f 181 294 179
f 179 294 295
f 179 295 178
f 178 295 296
f 178 296 176
f 176 296 255
f 282 278 280
f 277 297 276
f 276 297 298
f 292 293 298
f 298 293 299
f 231 300 230
f 230 300 301
f 301 300 303
f 303 300 302
f 303 302 265
f 265 302 304
f 304 305 265
f 305 263 265
f 195 196 234
f 185 306 307
f 307 306 308
f 308 306 309
f 299 276 298
f 27 11 26
f 26 11 8
f 26 8 7
f 11 27 309
f 309 27 308
f 308 27 28
f 308 28 307
f 11 309 216
f 216 309 306
f 216 306 214
f 26 7 6
f 183 213 185
f 185 213 306
f 213 214 306
f 16 17 202
f 202 17 24
f 202 24 18
f 202 18 201
f 201 18 200
f 200 18 23
f 200 23 199
f 199 23 13
f 199 13 208
f 189 193 205
f 205 193 224
f 205 224 16
f 13 1 208
f 208 1 210
f 210 1 2
f 210 2 3
f 210 3 217
f 217 3 14
f 217 14 219
f 219 14 12
f 219 12 223
f 223 12 9
f 223 9 10
f 223 10 215
f 215 10 11
f 215 11 216
f 28 29 307
f 307 29 144
f 307 144 289
f 289 144 143
f 310 311 312
f 312 311 313
f 312 313 316
f 316 313 314
f 316 314 315
f 316 315 317
f 318 315 319
f 318 319 320
f 320 319 378
f 321 322 311
f 311 322 323
f 311 323 324
f 324 323 325
f 324 325 326
f 326 325 327
f 325 333 328
f 328 333 329
f 328 329 330
f 330 329 331
f 330 331 332
f 364 315 314
f 322 321 323
f 329 319 331
f 331 319 334
f 331 334 332
f 332 334 364
f 320 335 336
f 320 336 337
f 337 336 338
f 338 339 376
f 376 339 340
f 376 340 341
f 341 340 342
f 341 342 343
f 343 342 344
f 343 344 345
f 345 344 346
f 345 346 347
f 347 346 348
f 347 348 374
f 374 348 352
f 339 349 342
f 339 342 340
f 342 312 344
f 344 312 350
f 344 350 346
f 346 350 351
f 346 351 348
f 348 351 352
f 352 317 315
f 311 353 354
f 354 353 355
f 354 355 356
f 356 355 357
f 356 357 358
f 358 357 332
f 311 354 359
f 359 354 356
f 359 356 360
f 360 356 358
f 360 358 361
f 361 358 332
f 311 362 313
f 313 362 363
f 313 363 314
f 314 363 364
f 312 316 365
f 365 316 352
f 352 316 317
f 320 366 318
f 318 366 352
f 318 352 315
f 367 320 368
f 368 320 369
f 368 369 338
f 333 325 321
f 353 311 324
f 325 323 321
f 351 365 352
f 319 315 370
f 370 315 364
f 339 338 349
f 336 335 349
f 369 320 337
f 338 336 349
f 330 332 328
f 328 332 325
f 332 357 325
f 325 357 327
f 353 324 326
f 357 355 327
f 327 355 326
f 311 359 371
f 371 359 360
f 371 360 372
f 372 360 361
f 372 361 364
f 364 361 332
f 355 353 326
f 311 371 362
f 362 371 372
f 362 372 363
f 363 372 364
f 370 364 334
f 370 334 319
f 352 366 373
f 352 373 374
f 374 373 367
f 374 367 368
f 374 368 338
f 351 350 365
f 365 350 312
f 373 366 320
f 347 374 375
f 347 375 345
f 345 375 343
f 343 375 341
f 367 373 320
f 375 374 376
f 375 376 341
f 337 338 369
f 374 338 376
f 377 378 319
f 377 319 329
f 378 377 380
f 380 377 379
f 380 379 381
f 381 379 382
f 381 382 383
f 383 382 384
f 383 384 386
f 386 384 393
f 386 393 385
f 386 385 387
f 387 385 388
f 387 388 389
f 389 388 390
f 390 388 391
f 391 388 392
f 392 388 385
f 392 385 393
f 393 384 394
f 394 384 382
f 394 382 395
f 395 382 379
f 395 379 396
f 396 379 377
f 397 398 399
f 399 398 400
f 399 400 401
f 402 401 458
f 402 458 403
f 433 462 390
f 433 390 404
f 404 390 405
f 404 405 406
f 406 405 407
f 406 407 448
f 448 407 427
f 408 426 409
f 408 409 410
f 410 409 429
f 411 412 398
f 398 412 413
f 398 413 414
f 414 413 415
f 414 415 416
f 416 415 417
f 416 417 418
f 418 417 419
f 417 411 420
f 417 420 421
f 421 420 389
f 421 389 422
f 422 389 390
f 422 390 423
f 411 424 412
f 412 424 413
f 390 391 405
f 429 428 405
f 405 428 425
f 425 428 426
f 425 426 427
f 429 430 410
f 410 430 431
f 410 431 408
f 408 431 432
f 408 432 426
f 426 432 441
f 426 441 427
f 448 433 406
f 406 433 404
f 399 434 430
f 430 434 435
f 430 435 431
f 431 435 432
f 405 436 437
f 437 436 427
f 427 407 437
f 437 407 405
f 399 438 434
f 434 438 439
f 434 439 440
f 440 439 441
f 442 399 443
f 443 399 401
f 443 401 402
f 411 417 415
f 411 415 424
f 424 415 413
f 444 398 445
f 445 398 446
f 445 446 447
f 447 446 416
f 447 416 418
f 446 398 414
f 403 462 433
f 403 433 448
f 450 403 448
f 449 448 427
f 449 427 441
f 402 403 450
f 451 450 448
f 451 448 452
f 452 448 449
f 452 449 439
f 439 449 441
f 442 443 450
f 450 443 402
f 442 450 451
f 399 442 453
f 453 442 451
f 453 451 452
f 409 426 429
f 429 426 428
f 436 405 425
f 401 400 454
f 454 400 455
f 454 455 456
f 456 455 444
f 456 444 457
f 457 444 445
f 457 445 447
f 458 401 454
f 458 454 459
f 459 454 456
f 459 456 460
f 460 456 457
f 460 457 461
f 461 457 447
f 461 447 418
f 403 458 462
f 462 458 459
f 462 459 423
f 423 459 460
f 423 460 419
f 419 460 461
f 419 461 418
f 462 423 390
f 416 446 414
f 417 421 419
f 419 421 422
f 419 422 423
f 400 398 455
f 455 398 444
f 399 453 438
f 438 453 452
f 438 452 439
f 425 427 436
f 435 434 440
f 435 440 432
f 432 440 441
f 389 420 411
f 389 411 398
f 398 397 389
f 389 397 387
f 387 397 386
f 386 397 463
f 386 463 383
f 383 463 381
f 381 463 380
f 380 463 555
f 380 555 378
f 378 555 464
f 378 464 107
f 107 464 465
f 107 465 466
f 107 466 108
f 108 466 467
f 108 467 468
f 108 468 46
f 342 349 107
f 107 349 335
f 335 320 107
f 107 320 378
f 397 399 463
f 463 399 469
f 469 399 430
f 45 46 470
f 470 46 468
f 470 468 471
f 471 468 472
f 471 472 474
f 474 472 473
f 474 473 475
f 475 473 481
f 475 481 476
f 467 477 468
f 468 477 478
f 468 478 479
f 479 478 480
f 479 480 519
f 519 480 481
f 481 480 476
f 477 467 478
f 480 467 482
f 467 466 482
f 474 483 471
f 471 483 470
f 484 485 466
f 466 485 486
f 466 486 482
f 482 486 476
f 487 488 484
f 484 488 489
f 484 489 490
f 490 489 491
f 490 491 492
f 492 491 493
f 492 493 494
f 494 493 532
f 470 483 45
f 488 512 495
f 488 495 496
f 496 495 497
f 496 497 498
f 498 497 499
f 498 499 500
f 500 499 501
f 500 501 502
f 502 501 503
f 503 501 504
f 503 504 505
f 505 504 109
f 505 109 506
f 506 109 507
f 506 507 508
f 509 508 516
f 516 510 511
f 511 510 493
f 511 493 491
f 513 512 514
f 501 514 504
f 514 109 504
f 109 45 507
f 507 45 515
f 507 515 508
f 508 515 516
f 510 532 493
f 468 517 518
f 518 517 519
f 518 519 473
f 473 472 518
f 518 472 468
f 484 520 485
f 485 520 475
f 475 531 474
f 484 490 521
f 521 490 492
f 521 492 522
f 522 492 494
f 510 483 532
f 488 523 489
f 489 523 524
f 489 524 491
f 491 524 511
f 525 488 526
f 526 488 527
f 526 527 528
f 528 527 498
f 528 498 500
f 482 476 480
f 467 480 478
f 517 468 479
f 45 483 529
f 529 483 510
f 529 510 516
f 484 521 530
f 530 521 522
f 530 522 531
f 531 522 494
f 531 494 532
f 474 532 483
f 501 499 514
f 514 499 513
f 495 512 513
f 499 497 513
f 527 488 496
f 497 495 513
f 485 475 486
f 486 475 476
f 481 473 519
f 519 517 479
f 530 531 520
f 520 531 475
f 531 532 474
f 530 520 484
f 524 523 533
f 533 523 534
f 533 534 535
f 535 534 525
f 535 525 536
f 536 525 526
f 536 526 528
f 511 524 537
f 537 524 533
f 537 533 538
f 538 533 535
f 538 535 539
f 539 535 536
f 539 536 540
f 540 536 528
f 540 528 500
f 516 515 529
f 529 515 45
f 534 523 488
f 511 537 516
f 516 537 509
f 509 541 508
f 508 541 506
f 506 541 505
f 509 537 538
f 525 534 488
f 509 538 542
f 542 538 539
f 542 539 543
f 543 539 540
f 543 540 502
f 502 540 500
f 509 542 541
f 541 542 543
f 541 543 503
f 541 503 505
f 496 498 527
f 502 503 543
f 487 484 544
f 544 484 465
f 465 484 466
f 545 558 469
f 469 558 546
f 469 546 547
f 547 546 563
f 547 563 570
f 571 569 548
f 571 548 549
f 549 548 465
f 549 465 550
f 550 465 551
f 550 551 552
f 553 552 554
f 553 554 463
f 463 554 555
f 555 556 464
f 464 556 557
f 464 557 465
f 465 557 551
f 558 545 572
f 572 545 559
f 465 560 544
f 544 560 561
f 544 561 562
f 562 561 563
f 572 563 558
f 469 564 463
f 463 564 565
f 463 565 553
f 553 565 552
f 546 558 563
f 547 566 469
f 469 566 567
f 469 567 564
f 564 567 569
f 564 569 568
f 547 570 566
f 566 570 569
f 566 569 567
f 552 565 568
f 568 565 564
f 556 555 554
f 556 554 552
f 569 570 560
f 569 560 548
f 548 560 465
f 569 571 568
f 568 571 552
f 557 556 552
f 572 559 544
f 560 570 561
f 561 570 563
f 550 552 571
f 550 571 549
f 557 552 551
f 544 562 572
f 572 562 563
f 429 391 430
f 430 391 392
f 391 429 405
f 430 392 469
f 469 392 393
f 469 393 394
f 469 394 395
f 395 396 469
f 469 396 545
f 545 396 377
f 545 377 559
f 559 377 329
f 559 329 115
f 559 115 544
f 544 115 487
f 487 115 113
f 487 113 488
f 488 113 512
f 512 113 514
f 514 113 109
f 329 333 115
f 333 321 115
f 321 311 115
f 115 311 310
f 145 573 574
f 145 574 146
f 146 574 575
f 146 575 147
f 147 575 576
f 147 576 577
f 147 577 148
f 148 577 578
f 148 578 149
f 149 578 579
f 149 579 39
f 39 579 580
f 39 580 36
f 36 580 581
f 36 581 582
f 36 582 34
f 34 582 583
f 34 583 33
f 33 583 584
f 33 584 32
f 32 584 585
f 32 585 31
f 31 585 586
f 31 586 145
f 145 586 573
f 587 573 586
f 573 587 588
f 573 588 574
f 574 588 589
f 574 589 575
f 575 589 590
f 575 590 576
f 576 590 577
f 577 590 591
f 577 591 578
f 578 591 592
f 578 592 579
f 579 592 593
f 579 593 580
f 580 593 594
f 580 594 581
f 581 594 595
f 581 595 582
f 582 595 583
f 583 595 596
f 583 596 584
f 584 596 597
f 584 597 585
f 585 597 598
f 585 598 586
f 586 598 587
f 599 63 67
f 599 67 600
f 600 67 601
f 601 67 69
f 601 69 68
f 601 68 602
f 602 68 71
f 602 71 603
f 603 71 72
f 603 72 604
f 604 72 605
f 605 72 73
f 605 73 606
f 606 73 75
f 606 75 607
f 607 75 76
f 607 76 77
f 607 77 608
f 608 77 59
f 608 59 609
f 609 59 61
f 609 61 610
f 610 61 150
f 610 150 611
f 611 150 62
f 611 62 612
f 612 62 63
f 612 63 599
f 613 599 600
f 613 600 601
f 599 613 614
f 599 614 612
f 612 614 615
f 612 615 611
f 611 615 616
f 611 616 610
f 610 616 617
f 610 617 609
f 609 617 608
f 608 617 618
f 608 618 607
f 607 618 619
f 607 619 606
f 606 619 620
f 606 620 605
f 605 620 621
f 605 621 604
f 604 621 622
f 604 622 603
f 603 622 623
f 603 623 602
f 602 623 624
f 602 624 601
f 601 624 613
f 84 625 152
f 152 625 626
f 152 626 151
f 151 626 627
f 151 627 153
f 153 627 628
f 153 628 629
f 153 629 56
f 56 629 55
f 55 629 630
f 55 630 100
f 100 630 631
f 100 631 99
f 99 631 632
f 99 632 97
f 97 632 633
f 97 633 634
f 97 634 95
f 95 634 93
f 93 634 635
f 93 635 91
f 91 635 90
f 90 635 636
f 90 636 86
f 86 636 637
f 86 637 638
f 86 638 84
f 84 638 639
f 84 639 625
f 640 625 639
f 640 639 638
f 625 640 641
f 625 641 626
f 626 641 642
f 626 642 627
f 627 642 643
f 627 643 628
f 628 643 644
f 628 644 629
f 629 644 630
f 630 644 645
f 630 645 631
f 631 645 646
f 631 646 632
f 632 646 647
f 632 647 633
f 633 647 648
f 633 648 634
f 634 648 635
f 635 648 649
f 635 649 636
f 636 649 650
f 636 650 637
f 637 650 651
f 637 651 638
f 638 651 640
f 158 652 157
f 157 652 653
f 157 653 160
f 160 653 654
f 160 654 655
f 160 655 164
f 164 655 656
f 164 656 40
f 40 656 657
f 40 657 137
f 137 657 658
f 137 658 659
f 137 659 135
f 135 659 660
f 135 660 132
f 132 660 661
f 132 661 130
f 130 661 662
f 130 662 663
f 130 663 127
f 127 663 159
f 159 663 664
f 159 664 158
f 158 664 665
f 158 665 652
f 666 664 663
f 664 666 665
f 665 666 667
f 665 667 652
f 652 667 668
f 652 668 653
f 653 668 669
f 653 669 654
f 654 669 670
f 654 670 655
f 655 670 656
f 656 670 671
f 656 671 657
f 657 671 672
f 657 672 658
f 658 672 673
f 658 673 659
f 659 673 674
f 659 674 660
f 660 674 675
f 660 675 661
f 661 675 676
f 661 676 662
f 662 676 677
f 662 677 663
f 663 677 666
f 624 228 613
f 613 228 226
f 613 226 614
f 614 226 245
f 614 245 615
f 615 245 244
f 615 244 616
f 616 244 243
f 616 243 617
f 617 243 242
f 617 242 618
f 618 242 241
f 618 241 619
f 619 241 240
f 619 240 620
f 620 240 239
f 620 239 621
f 621 239 238
f 621 238 237
f 621 237 622
f 622 237 236
f 622 236 235
f 622 235 623
f 623 235 232
f 623 232 228
f 623 228 624
f 677 249 666
f 666 249 251
f 666 251 253
f 666 253 667
f 667 253 255
f 667 255 296
f 667 296 668
f 668 296 295
f 668 295 294
f 668 294 669
f 669 294 281
f 669 281 280
f 669 280 670
f 670 280 279
f 670 279 275
f 670 275 671
f 671 275 274
f 671 274 672
f 672 274 271
f 672 271 673
f 673 271 268
f 673 268 674
f 674 268 267
f 674 267 675
f 675 267 266
f 675 266 676
f 676 266 264
f 676 264 677
f 677 264 262
f 677 262 249
f 598 287 587
f 587 287 288
f 587 288 588
f 588 288 290
f 588 290 589
f 589 290 291
f 589 291 590
f 590 291 292
f 590 292 591
f 591 292 592
f 592 292 298
f 592 298 593
f 593 298 297
f 593 297 594
f 594 297 277
f 594 277 595
f 595 277 278
f 595 278 282
f 595 282 596
f 596 282 283
f 596 283 284
f 596 284 597
f 597 284 285
f 597 285 286
f 597 286 598
f 598 286 287
f 651 300 640
f 640 300 231
f 640 231 641
f 641 231 229
f 641 229 642
f 642 229 233
f 642 233 234
f 642 234 643
f 643 234 260
f 643 260 259
f 643 259 644
f 644 259 258
f 644 258 257
f 644 257 645
f 645 257 256
f 645 256 254
f 645 254 646
f 646 254 252
f 646 252 250
f 646 250 647
f 647 250 261
f 647 261 263
f 647 263 648
f 648 263 305
f 648 305 649
f 649 305 304
f 649 304 650
f 650 304 302
f 650 302 651
f 651 302 300
f 81 230 301
f 81 301 82
f 82 301 303
f 82 303 83
f 83 303 265
f 83 265 85
f 85 265 87
f 107 106 342
f 342 106 87
f 342 87 265
f 106 105 87
f 87 105 88
f 88 105 104
f 88 104 94
f 94 104 103
f 94 103 96
f 96 103 102
f 96 102 101
f 342 265 312
f 312 265 269
f 312 269 310
f 310 269 133
f 310 133 116
f 116 133 117
f 117 133 131
f 117 131 129
f 128 120 129
f 129 120 118
f 129 118 117
f 120 128 121
f 121 128 125
f 121 125 122
f 122 125 124
f 122 124 123
f 116 115 310
f 133 269 134
f 134 269 270
f 134 270 136
f 136 270 272
f 136 272 138
f 138 272 42
f 42 272 273
f 276 139 273
f 276 37 139
f 273 139 41
f 41 42 273
f 37 276 299
f 37 299 142
f 142 299 293
f 142 293 38
f 38 293 289
f 38 289 143
f 60 246 247
f 60 247 64
f 64 247 248
f 64 248 65
f 65 248 227
f 230 65 227
f 81 78 230
f 230 78 66
f 230 66 65
