v -1.53409 4.74617 -6.79123
v -1.50339 8.48975e-07 -6.77259
v -1.48579 4.92992 -6.57102
v -2.94584 6.0016 -8.60492
v -2.77697 6.37695 -7.39551
v -1.65731 5.32993 -6.7863
v -2.25501 6.04277 -7.19868
v -2.75119 5.91562 -11.7017
v -3.818 6.48643 -10.8692
v -3.58361 6.47621 -8.72967
v -3.34909 6.24413 -10.3544
v -2.98488 5.70013 -9.13094
v -3.03772 5.80174 -10.7356
v -2.2634 5.82596 -12.4693
v -2.89869 6.40088 -12.372
v -2.2681 6.1232 -13.0527
v -2.26413 6.1105 -28.9
v -2.26413 0 -12.3739
v -2.26413 0 -30.5105
v -2.84975 -1.45989e-05 -11.3161
v -3.04758 -4.33801e-06 -9.62206
v -2.52745 -1.0137e-05 -7.98246
v -1.84805 5.70406 -6.70339
v -2.44036 6.27028 -1.47176
v -1.80481 5.62613 8.35469
v -2.3444 6.07214 -29.6107
v -2.26592 5.23889 -30.3914
v -3.03207 5.09279 -30.8225
v -3.15357 6.06423 -30.1653
v -3.03614 6.46102 -29.2413
v -36.9913 4.37767 32.2195
v -36.7355 4.37766 30.5772
v -33.6355 4.37767 28.0536
v -31.9754 4.37767 28.1362
v -30.4925 4.37767 28.887
v -29.4431 4.37766 30.176
v -29.0087 4.37767 31.7805
v -29.2645 4.37766 33.4228
v -30.1662 4.37766 34.8192
v -31.5578 4.37767 35.7281
v -32.495 4.63908 35.9129
v -34.0246 4.37767 35.8638
v -35.1506 4.37522 35.3445
v -36.1 4.37766 34.5236
v -36.7057 4.37521 33.4416
v -35.2627 5.89123 33.5411
v -35.937 5.23342 34.1077
v -33.9456 5.9576 29.5752
v -35.4417 5.9661 31.1391
v -34.9328 5.58702 29.3425
v -34.496 4.68024 28.352
v -33.0817 5.6182 28.7617
v -32.299 5.25267 28.4485
v -31.1158 5.01097 28.7625
v -31.614 5.95182 29.7623
v -30.4273 5.9576 32.3935
v -29.3387 5.01097 32.7915
v -30.1547 5.6182 33.5484
v -30.2748 5.25267 34.3828
v -31.1383 5.01097 35.2505
v -31.7636 5.95686 34.3096
v -34.194 5.94105 34.3834
v -36.2938 5.23341 30.5103
v -35.79 4.62469 29.1881
v -36.6224 5.24341 32.3559
v -36.0124 5.74272 32.2782
v -34.8258 5.23342 35.12
v -33.3989 5.23342 35.5929
v -32.2468 5.6182 35.1505
v -29.4057 5.25267 31.5692
v -29.9454 5.6182 30.9216
v -30.6481 5.6182 29.7724
v -29.9619 5.01097 29.8087
v -36.9427 0 32.9482
v -36.8455 0 30.8297
v -36.037 0 29.3668
v -34.7035 0 28.3592
v -32.6835 0 27.9572
v -31 0 28.5359
v -30.3235 0 29.0274
v -29.7639 0 29.6489
v -29.3458 0 30.3731
v -29.011 0 31.505
v -29.1545 0 33.1703
v -29.963 0 34.6332
v -31.2966 0 35.6408
v -32.9247 0 36.0189
v -34.5658 0 35.7021
v -35.9363 0 34.7452
v -14.9913 4.37767 47.2195
v -14.7355 4.37767 45.5772
v -11.6356 4.37766 43.0536
v -9.97544 4.37767 43.1362
v -8.49249 4.37766 43.887
v -7.4431 4.37767 45.176
v -7.00874 4.37767 46.7805
v -7.26451 4.37767 48.4228
v -8.16617 4.37766 49.8192
v -9.55783 4.37767 50.7281
v -10.495 4.63908 50.9129
v -12.0246 4.37767 50.8638
v -13.1506 4.37522 50.3445
v -14.1 4.37766 49.5236
v -14.7057 4.37521 48.4416
v -13.2627 5.89123 48.5411
v -13.937 5.23342 49.1077
v -11.9456 5.9576 44.5752
v -13.4417 5.9661 46.1391
v -12.9328 5.58702 44.3425
v -12.496 4.68024 43.352
v -11.0817 5.6182 43.7617
v -10.299 5.25267 43.4485
v -9.11583 5.01097 43.7625
v -9.61403 5.95182 44.7623
v -8.42732 5.9576 47.3935
v -7.3387 5.01097 47.7915
v -8.1547 5.6182 48.5484
v -8.2748 5.25267 49.3828
v -9.13831 5.01097 50.2505
v -9.76363 5.95686 49.3096
v -12.194 5.94105 49.3834
v -14.2938 5.23342 45.5103
v -13.79 4.62469 44.1881
v -14.6224 5.24341 47.3559
v -14.0124 5.74272 47.2782
v -12.8258 5.23342 50.12
v -11.3989 5.23342 50.5929
v -10.2468 5.6182 50.1505
v -7.40571 5.25267 46.5692
v -7.94544 5.6182 45.9216
v -8.64815 5.6182 44.7724
v -7.96191 5.01096 44.8087
v -14.9427 0 47.9482
v -14.8455 0 45.8297
v -14.037 0 44.3668
v -12.7034 0 43.3592
v -10.6835 0 42.9572
v -9 0 43.5359
v -7.78385 0 44.5301
v -7.01096 0 46.505
v -7.15449 0 48.1703
v -7.96295 0 49.6332
v -9.29655 0 50.6408
v -10.9247 0 51.0189
v -12.5658 0 50.7021
v -13.9363 0 49.7452
v 7.00874 4.37767 37.2195
v 7.26451 4.37767 35.5772
v 10.3644 4.37766 33.0536
v 12.0246 4.37767 33.1362
v 13.5075 4.37766 33.887
v 14.5569 4.37767 35.176
v 14.9913 4.37767 36.7805
v 14.7355 4.37767 38.4228
v 13.8338 4.37766 39.8192
v 12.4422 4.37767 40.7281
v 11.505 4.63908 40.9129
v 9.97544 4.37767 40.8638
v 8.84938 4.37522 40.3445
v 7.90005 4.37766 39.5236
v 7.29429 4.37521 38.4416
v 8.73728 5.89123 38.5411
v 8.06299 5.23342 39.1077
v 10.0544 5.9576 34.5752
v 8.55832 5.9661 36.1391
v 9.06718 5.58702 34.3425
v 9.50398 4.68024 33.352
v 10.9183 5.6182 33.7617
v 11.701 5.25267 33.4485
v 12.8842 5.01097 33.7625
v 12.386 5.95182 34.7623
v 13.5727 5.9576 37.3935
v 14.6613 5.01097 37.7915
v 13.8453 5.6182 38.5484
v 13.7252 5.25267 39.3828
v 12.8617 5.01097 40.2505
v 12.2364 5.95686 39.3096
v 9.80595 5.94105 39.3834
v 7.7062 5.23342 35.5103
v 8.21001 4.62469 34.1881
v 7.37759 5.24341 37.3559
v 7.98764 5.74272 37.2782
v 9.17417 5.23342 40.12
v 10.6011 5.23342 40.5929
v 11.7532 5.6182 40.1505
v 14.5943 5.25267 36.5692
v 14.0546 5.6182 35.9216
v 13.3519 5.6182 34.7724
v 14.0381 5.01096 34.8087
v 7.05729 0 37.9482
v 7.08741 0 36.1684
v 7.34582 0 35.3731
v 7.76393 0 34.6489
v 8.32348 0 34.0274
v 9 0 33.5359
v 9.76393 0 33.1958
v 10.5819 0 33.0219
v 11.7619 0 33.0532
v 13.3013 0 33.7043
v 14.4428 0 34.9253
v 14.989 0 36.505
v 14.8455 0 38.1703
v 14.037 0 39.6332
v 12.7034 0 40.6408
v 11.0753 0 41.0189
v 9.43416 0 40.7021
v 8.06375 0 39.7452
v 29.0087 4.37767 22.2195
v 29.2645 4.37766 20.5772
v 32.3645 4.37767 18.0536
v 34.0246 4.37767 18.1362
v 35.5075 4.37767 18.887
v 36.5569 4.37766 20.176
v 36.9913 4.37766 21.7805
v 36.7355 4.37766 23.4228
v 35.8338 4.37767 24.8192
v 34.4422 4.37766 25.7281
v 33.5049 4.63908 25.9129
v 31.9754 4.37767 25.8638
v 30.8494 4.37521 25.3445
v 29.9001 4.37766 24.5236
v 29.2943 4.37521 23.4416
v 30.7373 5.89123 23.5411
v 30.063 5.23342 24.1077
v 32.0544 5.9576 19.5752
v 30.5583 5.9661 21.1391
v 31.0672 5.58702 19.3425
v 31.504 4.68024 18.352
v 32.9183 5.6182 18.7617
v 33.701 5.25267 18.4485
v 34.8842 5.01097 18.7625
v 34.386 5.95182 19.7623
v 35.5727 5.9576 22.3935
v 36.6613 5.01097 22.7915
v 35.8453 5.6182 23.5484
v 35.7252 5.25267 24.3828
v 34.8617 5.01097 25.2505
v 34.2364 5.95686 24.3096
v 31.806 5.94105 24.3834
v 29.7062 5.23342 20.5103
v 30.21 4.62469 19.1881
v 29.3776 5.2434 22.3559
v 29.9876 5.74272 22.2782
v 31.1742 5.23342 25.12
v 32.6011 5.23342 25.5929
v 33.7532 5.6182 25.1505
v 36.5943 5.25268 21.5692
v 36.0546 5.6182 20.9216
v 35.3519 5.6182 19.7724
v 36.0381 5.01097 19.8088
v 29.011 0 22.495
v 29.1545 0 20.8297
v 29.963 0 19.3668
v 31.2965 0 18.3592
v 32.9247 0 17.9811
v 34.5658 0 18.2979
v 35.9363 0 19.2548
v 36.799 0 20.6864
v 37.0048 0 22.3452
v 36.5182 0 23.9442
v 35.4232 0 25.2071
v 33.9093 0 25.9155
v 32.2381 0 25.9468
v 30.6987 0 25.2957
v 29.5572 0 24.0747
v -30.9586 2.5 31.9316
v -34.9896 2.5 31.5378
v -34.7337 2.5 33.08
v -31.5081 2.5 33.3951
v -33.1931 2.5 34.072
v -34.2642 2.5 30.4307
v -31.7968 2.5 30.3022
v -33.3101 2.5 30.0088
v 35.0414 2.5 21.9316
v 31.0104 2.5 21.5378
v 31.2663 2.5 23.08
v 34.4919 2.5 23.3951
v 32.8069 2.5 24.072
v 31.7358 2.5 20.4307
v 34.2032 2.5 20.3022
v 32.6899 2.5 20.0088
v -8.95858 2.5 46.9316
v -12.9896 2.5 46.5378
v -12.7337 2.5 48.08
v -9.5081 2.5 48.3951
v -11.1931 2.5 49.072
v -12.2641 2.5 45.4307
v -9.79679 2.5 45.3022
v -11.3101 2.5 45.0088
v 13.0414 2.5 36.9316
v 9.01043 2.5 36.5378
v 9.2663 2.5 38.08
v 12.4919 2.5 38.3951
v 10.8069 2.5 39.072
v 12.5693 2.5 35.7358
v 9.73585 2.5 35.4307
v 11.727 2.5 35.1206
v 10.6899 2.5 35.0088
v -12.9896 -3 47.4622
v -12.843 -3 46.1851
v -11.9614 -3 45.1979
v -10.6899 -3 45.0088
v -9.73585 -3 45.4307
v -9.01043 -3 46.5378
v -9.15695 -3 47.8149
v -10.0386 -3 48.8021
v -11.3101 -3 48.9912
v -12.2641 -3 48.5693
v 9.01043 -3 37.4622
v 9.15695 -3 36.1851
v 10.0386 -3 35.1979
v 11.3101 -3 35.0088
v 12.2641 -3 35.4307
v 12.9896 -3 36.5378
v 12.843 -3 37.8149
v 11.9614 -3 38.8021
v 10.6899 -3 38.9912
v 9.73585 -3 38.5693
v -34.9896 -3 32.4622
v -34.843 -3 31.1851
v -33.9614 -3 30.1979
v -32.6899 -3 30.0088
v -31.7358 -3 30.4307
v -31.0104 -3 31.5378
v -31.157 -3 32.8149
v -32.0386 -3 33.8021
v -33.3101 -3 33.9912
v -34.2642 -3 33.5693
v 31.0104 -3 22.4622
v 31.157 -3 21.1851
v 32.0386 -3 20.1979
v 33.3101 -3 20.0088
v 34.2642 -3 20.4307
v 34.9896 -3 21.5378
v 34.843 -3 22.8149
v 33.9614 -3 23.8021
v 32.6899 -3 23.9912
v 31.7358 -3 23.5693
v 44 -4.37945 4.16947
v 44 -4.45414 2.84799
v 39 -4.54142 3.51091
v 39 -4.12725 2.25379
v 44 -3.91421 2.02825
v 44 -3.5 1.71041
v 39 -3.3149 1.59941
v 44 -3.01764 1.51061
v 44 -2.5 1.44246
v 39 -2.2842 1.43889
v 44 -1.98236 1.51061
v 44 -1.5 1.71041
v 39 -1.31133 1.81521
v 44 -1.08579 2.02825
v 44 -0.510426 2.98022
v 39 -0.545857 2.84799
v 44 -0.766304 4.52245
v 39 -0.697856 4.40389
v 44 -2.03776 5.43203
v 39 -1.90553 5.3966
v 44 -3.57999 5.17616
v 39 -3.22701 5.32191
v 39 -4.06933 4.70661
v 44 -4.37945 -51.8305
v 44 -4.45414 -53.152
v 39 -4.54142 -52.4891
v 44 -3.46143 -54.3597
v 39 -3.9919 -53.9526
v 44 -1.90553 -54.5117
v 39 -2.56845 -54.599
v 44 -0.697857 -53.519
v 39 -1.1049 -54.0494
v 44 -0.545856 -51.9631
v 39 -0.458582 -52.626
v 39 -0.872754 -51.3689
v 44 -1.08579 -51.1433
v 44 -1.5 -50.8255
v 39 -1.68511 -50.7145
v 44 -1.98236 -50.6257
v 44 -2.5 -50.5575
v 39 -2.71581 -50.554
v 44 -3.01764 -50.6257
v 44 -3.5 -50.8255
v 44 -3.91421 -51.1433
v 39 -3.8951 -51.0656
v -44 -4.37945 5.27299
v -44 -4.45414 6.59447
v -39 -4.54142 5.93155
v -44 -3.46143 7.80214
v -39 -3.9919 7.3951
v -44 -1.90553 7.95414
v -39 -2.56845 8.04142
v -44 -0.697856 6.96143
v -39 -1.1049 7.4919
v -44 -0.545857 5.40553
v -39 -0.458582 6.06845
v -39 -0.872752 4.81133
v -44 -1.08579 4.58579
v -44 -1.5 4.26795
v -39 -1.6851 4.15695
v -44 -1.98236 4.06815
v -44 -2.5 4
v -39 -2.7158 3.99642
v -44 -3.01764 4.06815
v -44 -3.5 4.26795
v -44 -3.91421 4.58579
v -39 -3.8951 4.5081
v -44 -4.37945 -53.2846
v -44 -4.45414 -51.9631
v -39 -4.54142 -52.626
v -39 -4.12725 -51.3689
v -44 -3.91421 -51.1433
v -44 -3.5 -50.8255
v -39 -3.31489 -50.7145
v -44 -3.01764 -50.6257
v -44 -2.5 -50.5575
v -39 -2.28419 -50.554
v -44 -1.98236 -50.6257
v -44 -1.5 -50.8255
v -39 -1.31132 -50.9303
v -44 -1.08579 -51.1433
v -44 -0.510425 -52.0953
v -39 -0.545856 -51.9631
v -44 -0.766303 -53.6375
v -39 -0.697857 -53.519
v -44 -2.03776 -54.5471
v -39 -1.90553 -54.5117
v -44 -3.57999 -54.2912
v -39 -3.22701 -54.437
v -39 -4.06934 -53.8217
v 37.5 -5 -55.68
v 37.5 -5.0292 -49.3862
v 37.5 -6.00889 -54.5797
v 37.5 -6.23073 -51.0662
v 37.5 -6.51714 -52.629
v 37.5 0.0174681 -49.4058
v 37.5 0 -55.68
v 37.5 1.17534 -50.9345
v 37.5 1.1064 -54.4002
v 37.5 1.51714 -52.4861
v 44 -5.05554 -55.6993
v 44 -6.39955 -53.6508
v 44 -6.4237 -51.6932
v 44 -5.78186 -50.2398
v 44 -5 -49.435
v 44 0.0338938 -55.6918
v 44 1.33945 -53.846
v 44 1.45195 -51.8333
v 44 0.862197 -50.358
v 44 0 -49.435
v 44 -5 -57.5575
v 36.9131 -5 -57.5575
v 36.9131 -5 -47.558
v 44 -5 0.319962
v 28.55 -5 -9
v 28.55 -5 -45.9
v 37.5 -5 0.319962
v 24 -5 8
v 13.45 -5 -9
v -3.45 -5 8
v 1.96672 -5 -8.91837
v 0.701692 -5 -8.51277
v -0.459499 -5 -9.47599
v -3.45 -5 -28.9
v -0.205924 -5 -10.9632
v 0.798813 -5 -11.4526
v 1.73826 -5 -11.2569
v 13.45 -5 -45.9
v 37.5 -5 6.56496
v 42 -5 8
v 44 -5 6.56496
v 44 -5 33
v 42 -5 33
v 24 -5 33
v 20 -5 23
v 2 -5 23
v -20 -5 33
v -18.55 -5 8
v -24 -5 18
v -37.5 -5 9.1225
v -42 -5 18
v -44 -5.0292 9.17137
v -44 -5 43
v -42 -5 43
v 22 -5 33
v 20 -5 48
v 22 -5 48
v -2 -5 33
v 2 -5 48
v 0 -5 48
v 0 -5 58
v -2 -5 58
v -20 -5 58
v -22 -5 43
v -24 -5 43
v -22 -5 58
v -37.5 -5 2.8775
v -25.45 -5 -7
v -18.55 -5 -28.9
v -25.45 -5 -43.9
v -40.55 -5 -7
v -44 -5 2.8775
v -44 -5 -49.435
v -40.55 -5 -43.9
v -37.5 -5.01177 -49.3997
v -36.9131 -5 -47.558
v -37.5 -5 -55.68
v -36.9131 -5 -57.5575
v -44 -5 -57.5575
v -44 -5 -55.68
v -29.0869 -5 -47.558
v -29.0869 -5 -57.5575
v 29.0869 -5 -57.5575
v 29.0869 -5 -47.558
v 2.45745 -5 -10.14
v 37.5 0.00325796 6.6093
v 37.5 0 0.319962
v 37.5 1.17534 5.06553
v 37.5 1.1064 1.59979
v 37.5 1.51714 3.51391
v 44 0 0.319962
v 44 0.781856 1.12472
v 44 1.4237 2.57814
v 44 1.45195 4.16671
v 44 0.862198 5.64203
v 44 0 6.56496
v 44 -6.1064 1.59979
v 37.5 -6.00889 1.42026
v 44 -6.51842 3.94635
v 37.5 -6.53872 3.74306
v 44 -5.78186 5.7602
v 37.5 -5.8622 5.64203
v 44 -3.90059 -24.1823
v 44 -3.75574 -23.8325
v 44 -3.5253 -23.5322
v 44 -3.225 -23.3018
v 44 0 33
v 44 -1.09941 -24.1823
v 44 -1.24426 -23.8325
v 44 -1.4747 -23.5322
v 44 -1.775 -23.3018
v 44 -2.12471 -23.1569
v 44 -2.5 -23.1075
v 44 -2.87529 -23.1569
v 44 0 -57.5575
v 44 -1.09941 -24.9328
v 44 -1.24426 -25.2825
v 44 -1.4747 -25.5828
v 44 -1.775 -25.8133
v 44 -3.90059 -24.9328
v 44 -3.95 -24.5575
v 44 -3.75574 -25.2825
v 44 -3.5253 -25.5828
v 44 -3.225 -25.8133
v 44 -2.87529 -25.9581
v 44 -2.5 -26.0075
v 44 -2.12471 -25.9581
v 44 -1.05 -24.5575
v -37.5 -5.8622 -54.7571
v -37.5 -6.33945 -51.2691
v -37.5 -6.45195 -53.2818
v -37.5 0 -55.68
v -37.5 0.0198047 -49.3756
v -37.5 0.781855 -54.8753
v -37.5 1.23073 -51.0662
v -37.5 1.51842 -53.0614
v -44 -5.8622 -50.358
v -44 -6.45195 -51.8333
v -44 -6.4237 -53.4219
v -44 -5.78186 -54.8753
v -44 0 -49.435
v -44 1.00889 -50.5353
v -44 1.51714 -52.4861
v -44 1.23073 -54.0489
v -44 0.0555411 -55.6993
v -37.5 0 9.1225
v -37.5 0 2.8775
v -37.5 0.781856 3.68226
v -37.5 1.1064 7.84268
v -37.5 1.51842 5.49611
v -44 0 9.1225
v -44 1.00889 8.0222
v -44 1.51714 6.07145
v -44 1.1064 4.15732
v -44 0 2.8775
v -44 -6.39955 7.09322
v -37.5 -6.00889 8.0222
v -44 -6.4237 5.13568
v -37.5 -6.53872 5.6994
v -44 -5.78186 3.68226
v -37.5 -5.8622 3.80043
v -44 0 43
v -44 0 -57.5575
v -33 -5.0883 -49.558
v -32.2315 -4.96683 -52.558
v 33 -5.0883 -49.558
v 33.7685 -4.96684 -52.558
v 36.0516 4.44089e-15 -57.5575
v 29.9484 3.88578e-15 -57.5575
v 36.0516 4.44089e-15 -57.558
v 29.9484 3.88578e-15 -57.558
v 35.3954 0.531079 -57.558
v 36.0516 4.44089e-15 -47.558
v 33.7437 1.23851 -57.558
v 34.7683 0.931005 -47.558
v 32.6516 1.25454 -47.558
v 31.6718 1.06164 -57.558
v 30.9561 0.769538 -47.558
v 30.6046 0.531079 -57.558
v -1.45 0 8
v 1.38626 0 -8.58325
v -1.51815 0 8.51764
v 13.45 0 -7
v -1.71795 0 9
v 22 0 33
v -2.03579 0 9.41421
v -2.45 0 9.73205
v -2.93236 0 9.93185
v -3.45 0 10
v -18.55 0 10
v -22 0 43
v -22 0 58
v 0 0 58
v 0 0 48
v -19.0676 0 9.93185
v -19.55 0 9.73205
v -19.9642 0 9.41421
v -20.4888 0 8.63755
v -41.4101 0 -5.12822
v -20.5156 0 -29.2908
v -23.4844 0 -6.60921
v -23.9581 0 -5.6049
v -20.0419 0 -30.2951
v -18.9307 0 -30.8749
v -3.45 0 -30.9
v -23.4751 0 -44.2807
v 11.5181 0 -46.4176
v -23.7179 0 -44.9
v 11.7179 0 -46.9
v -29.9484 -5.55112e-16 -57.5575
v -24.5899 2.25039e-17 -45.7718
v -29.9484 -5.55112e-16 -47.558
v -36.0516 -1.11022e-15 -47.558
v 11.45 0 -45.9
v -2.85904 0 -30.8212
v 2.35919 -1.38911e-08 -10.5815
v 1.2904 0 -11.4424
v 0.17228 0 -11.2569
v -0.546917 0 -10.14
v 0.0829426 0 -8.76906
v 30.4218 -1.81111e-17 -8.13993
v 29.1875 0 -7.06117
v 12.4886 0 -7.19786
v 2.23162 9.67686e-09 -9.2631
v 11.5112 -2.44551e-10 -8.36245
v 12.56 -1.02616e-17 -47.7827
v 28.9408 -2.72363e-16 -47.8656
v 29.8 -0.00755589 -47.5009
v 30.4888 -5.2698e-16 -46.5376
v -42.3931 0 -6.18511
v -42.55 0 -7
v -42.5156 0 -44.2908
v -42.0419 0 -45.2951
v -40.9307 2.44564e-17 -45.8749
v -36.0516 -1.11022e-15 -57.5575
v -25.0693 0 -5.02513
v 22 0 48
v -33.6245 -5 -57.5575
v -36.9131 -5 -57.558
v -33.6245 -5 -57.558
v -32.3755 -5 -57.5575
v -32.3755 -5 -57.558
v -29.0869 -5 -57.558
v -36.4486 -5.75133 -57.558
v -35.0456 -7.00306 -57.558
v -35.964 -6.36084 -47.558
v -32.4397 -7.47085 -57.558
v -33.5603 -7.47085 -47.558
v -31.344 -7.14426 -47.558
v -30.4309 -6.63526 -57.558
v -29.8176 -6.10745 -47.558
v -29.5514 -5.75133 -57.558
v -32.7887 -5.08881 -57.558
v -33.2113 -5.08881 -57.558
v 32.3755 -5 -57.5575
v 29.0869 -5 -57.558
v 32.3755 -5 -57.558
v 33.6245 -5 -57.5575
v 33.6245 -5 -57.558
v 36.9131 -5 -57.558
v 29.5514 -5.75133 -57.558
v 30.9544 -7.00306 -57.558
v 30.036 -6.36084 -47.558
v 33.5603 -7.47085 -57.558
v 32.4397 -7.47085 -47.558
v 34.656 -7.14426 -47.558
v 35.5691 -6.63526 -57.558
v 36.1824 -6.10745 -47.558
v 36.4486 -5.75133 -57.558
v 33.2113 -5.08881 -57.558
v 32.7887 -5.08881 -57.558
v -29.9484 -5.55112e-16 -57.558
v -36.0516 -1.11022e-15 -57.558
v -30.6046 0.531079 -57.558
v -32.2563 1.23851 -57.558
v -31.2317 0.931004 -47.558
v -33.3484 1.25454 -47.558
v -34.3282 1.06164 -57.558
v -35.0439 0.76954 -47.558
v -35.3954 0.531079 -57.558
v -31.2246 -4.10682 -52.558
v -31.6629 -4.60688 -57.5575
v -31.2288 -4.02896 -57.5575
v -31.051 -3.54878 -57.5575
v -31.0039 -2.82756 -52.558
v -31.0009 -3.03918 -57.5575
v -31.0819 -2.53357 -57.5575
v -31.3951 -1.88222 -52.558
v -31.2886 -2.06509 -57.5575
v -31.6075 -1.66444 -57.5575
v -32.2409 -1.22715 -52.558
v -32.0176 -1.3579 -57.5575
v -32.4922 -1.16555 -57.5575
v -33.2587 -1.09578 -57.5575
v -33.2572 -1.10717 -52.558
v -34.3722 -1.58916 -52.558
v -34.4684 -1.68247 -57.5575
v -35.0369 -2.97099 -52.558
v -35.041 -3.10495 -57.5575
v -34.6759 -4.21797 -52.558
v -33.7908 -4.96905 -52.558
v -34.4615 -4.52463 -57.5575
v -34.4872 -2.84643 -52.558
v -33.524 -1.68523 -52.558
v -33.9632 -4.26119 -52.558
v -32.476 -4.51477 -52.558
v -31.5128 -3.35357 -52.558
v -32.0368 -1.93881 -52.558
v 34.7754 -4.10683 -52.558
v 34.5519 -4.42564 -57.5575
v 34.9753 -2.58654 -52.558
v 35.009 -3.25059 -57.5575
v 34.7109 -1.98711 -57.5575
v 34.0077 -1.31294 -52.558
v 33.5159 -1.13496 -57.5575
v 32.2244 -1.18645 -52.558
v 32.4922 -1.16555 -57.5575
v 32.0176 -1.3579 -57.5575
v 31.6075 -1.66444 -57.5575
v 31.1761 -2.24437 -52.558
v 31.2886 -2.06509 -57.5575
v 31.0819 -2.53357 -57.5575
v 30.991 -3.25059 -52.558
v 31.0009 -3.03918 -57.5575
v 31.051 -3.54878 -57.5575
v 31.3241 -4.21796 -52.558
v 31.2288 -4.02896 -57.5575
v 32.2092 -4.96905 -52.558
v 31.734 -4.6671 -57.5575
v 31.5128 -2.84643 -52.558
v 32.1382 -1.92025 -52.558
v 32.8435 -1.64741 -52.558
v 32.0368 -4.26119 -52.558
v 33.524 -4.51477 -52.558
v 34.4872 -3.35357 -52.558
v 33.9632 -1.93881 -52.558
v 31.52 -3.14962 -49.558
v 32.1277 -4.33093 -49.558
v 33.2248 -4.54359 -49.558
v 34.0816 -4.11145 -49.558
v 34.48 -3.05038 -49.558
v 34.1378 -2.18349 -49.558
v 33.14 -1.59782 -49.558
v 31.9184 -2.08855 -49.558
v -34.48 -3.14962 -49.558
v -33.8723 -4.33093 -49.558
v -32.7752 -4.54359 -49.558
v -31.9184 -4.11145 -49.558
v -31.52 -3.05038 -49.558
v -32.1277 -1.86907 -49.558
v -33.2248 -1.65641 -49.558
v -34.0816 -2.08855 -49.558
v 39 -3.98723 -24.304
v 39 -3.02402 -23.1428
v 39 -1.53678 -23.3963
v 39 -1.01277 -24.8111
v 39 -1.97599 -25.9723
v 39 -3.46322 -25.7187
v -18.55 4.5 8
v -18.55 4.5 -28.9
v -3.45 4.5 8
v -3.45 4.5 -28.9
v -40.55 4.5 -7
v -40.55 4.5 -43.9
v -25.45 4.5 -7
v -25.45 4.5 -43.9
v 28.55 4.5 -45.9
v 28.55 4.5 -9
v 13.45 4.5 -45.9
v 13.45 4.5 -9
v 28.55 6.5 -9
v 29.0676 6.43185 -27.45
v 28.55 6.5 -45.9
v 30.332 5.37941 -32.0625
v 30.55 4.5 -45.9
v 30.4819 5.01764 -27.45
v 30.55 4.5 -9
v 30.1231 5.70711 -18.225
v 29.8252 6.04712 -8.72627
v 29.3088 6.33195 -18.225
v 29.7571 6.07313 -32.0625
v 13.45 6.5 -45.9
v 21 6.33195 -46.6588
v 29.1834 5.75023 -47.3916
v 28.9296 5.09441 -47.8127
v 28.55 4.5 -47.9
v 13.0689 4.73857 -47.8579
v 13.1453 5.30355 -47.7384
v 29.5581 5.92715 -46.904
v 30.1077 5.48122 -46.7251
v 29.7282 6.11615 -46.2376
v 29.0474 6.41261 -46.3899
v 28.6823 6.09056 -47.1291
v 30.4632 5.12161 -46.2316
v 30.1952 4.85463 -47.0261
v 29.5408 4.90909 -47.6087
v 12.9324 6.43185 -27.45
v 13.45 6.5 -9
v 12.7724 6.38133 -8.70681
v 11.8769 5.70711 -22.8375
v 11.5181 5.01764 -18.225
v 11.45 4.5 -9
v 11.5181 5.01764 -27.45
v 11.45 4.5 -45.9
v 11.7974 5.60355 -32.0625
v 12.1748 6.04712 -46.1737
v 12.6912 6.33195 -36.675
v 12.3464 6.15259 -22.8375
v 11.5537 5.11452 -46.3401
v 12.3105 5.73733 -47.0406
v 13.1124 6.11615 -47.0782
v 12.9235 6.40325 -46.3729
v 12.3239 4.85465 -47.5452
v 11.7926 4.87195 -46.9769
v 13.3234 6.34626 -8.20721
v 13.125 5.66083 -7.36813
v 21 5.01764 -7.06815
v 13.0363 4.88547 -7.06148
v 13.45 4.5 -7
v 28.9311 4.73857 -7.0421
v 12.2948 5.56224 -7.71376
v 11.5523 4.92579 -8.3752
v 11.8642 5.70816 -8.57107
v 12.6249 6.05774 -8.01878
v 12.2273 4.86586 -7.41836
v 30.4463 5.11452 -8.55988
v 29.6895 5.73734 -7.85936
v 28.8763 5.32944 -7.18291
v 28.861 6.11277 -7.80441
v 29.0359 6.41473 -8.50511
v 29.6761 4.85464 -7.35476
v 30.2074 4.87195 -7.92306
v -18.55 6.5 -28.9
v -18.9916 4.99442 -30.8224
v -18.8237 5.77521 -30.4471
v -19.3628 6.32862 -29.2564
v -19.3088 6.33195 -15.0625
v -19.0676 6.43185 -10.45
v -18.55 6.5 8
v -20.0971 5.77521 8.27372
v -20.382 5.25882 -1.225
v -20.55 4.5 8
v -20.4819 5.01764 -10.45
v -20.55 4.5 -28.9
v -20.5012 4.88794 -29.2764
v -20.1952 5.62609 -29.2546
v -19.8089 6.0334 -8.14375
v -20.2821 5.5 -15.0625
v -19.1443 6.28882 -29.7197
v -19.7032 5.57304 -30.1787
v -20.182 4.80439 -30.0719
v -19.5392 4.81577 -30.6224
v -18.7939 6.38056 8.7048
v -18.8479 5.19951 9.87187
v -11 5.01764 9.93185
v -3.03611 4.70608 9.95426
v -3.19283 5.75834 9.5677
v -3.14168 6.44662 8.53209
v -18.9234 4.56018 9.975
v -18.9223 6.00699 9.30221
v -19.2891 6.35539 8.34663
v -19.7873 5.63952 9.14064
v -19.7219 4.80438 9.632
v -20.2724 4.81577 8.98923
v -20.4574 5.01738 8.4702
v -1.48691 4.79721 8.36357
v -2.50279 6.18637 8.64986
v -2.29683 5.57304 9.27871
v -1.818 4.80438 9.17185
v -2.76893 4.95972 9.87829
v -25.45 6.5 -7
v -40.55 6.5 -7
v -33 6.33195 -6.24118
v -40.877 5.04656 -5.06142
v -25.0592 5.71539 -5.40526
v -25.1521 6.37187 -6.30049
v -24.6572 6.34626 -6.87335
v -24.9324 6.43185 -25.45
v -25.45 6.5 -43.9
v -24.1393 5.99367 -30.0625
v -23.618 5.25882 -34.675
v -23.45 4.5 -43.9
v -23.5181 5.01764 -25.45
v -23.45 4.5 -7
v -23.5085 4.9233 -6.6124
v -23.7974 5.60355 -20.8375
v -23.8338 5.67822 -6.66244
v -24.5706 6.282 -20.8375
v -24.1638 5.56225 -5.84484
v -24.8829 4.93461 -5.07662
v -24.4688 6.05774 -6.17493
v -23.8684 4.86586 -5.77734
v -40.55 6.5 -43.9
v -33 6.33195 -44.6588
v -24.8166 5.75023 -45.3916
v -25.0704 5.09441 -45.8127
v -25.45 4.5 -45.9
v -40.9311 4.73856 -45.8579
v -40.8547 5.30355 -45.7384
v -24.4419 5.92715 -44.904
v -23.8923 5.48122 -44.7251
v -24.2718 6.11615 -44.2376
v -24.9526 6.41261 -44.3899
v -25.3177 6.09056 -45.1291
v -23.5368 5.12161 -44.2316
v -23.8048 4.85463 -45.0261
v -24.4592 4.90909 -45.6087
v -41.0676 6.43185 -25.45
v -42.332 5.37941 -20.8375
v -42.55 4.5 -7
v -42.4819 5.01764 -25.45
v -42.55 4.5 -43.9
v -42.1231 5.70711 -34.675
v -41.8252 6.04713 -44.1737
v -41.3088 6.33195 -34.675
v -41.7571 6.07313 -20.8375
v -42.4463 5.11452 -44.3401
v -41.6895 5.73734 -45.0406
v -40.8876 6.11615 -45.0782
v -41.0765 6.40325 -44.3729
v -41.6761 4.85465 -45.5452
v -42.2074 4.87195 -44.9769
v -41.5073 5.73586 -5.67657
v -42.1077 5.48122 -6.17493
v -41.7282 6.11615 -6.66244
v -41.0474 6.41261 -6.51007
v -40.8237 6.04712 -5.72479
v -42.4632 5.12161 -6.66842
v -42.1952 4.85464 -5.87391
v -41.5408 4.90908 -5.29131
v -20 -3 33
v -2 -3 33
v -2 -3 58
v -20 -3 58
v 2 -3 23
v 20 -3 23
v 20 -3 48
v 2 -3 48
v -42 -3 18
v -24 -3 18
v -24 -3 43
v -42 -3 43
v 24 -3 8
v 42 -3 8
v 42 -3 33
v 24 -3 33
f 2 1 3
f 23 6 7
f 7 6 4
f 1 4 6
f 9 10 11
f 9 11 15
f 5 7 10
f 10 7 4
f 10 4 11
f 15 11 8
f 11 13 8
f 4 12 11
f 11 12 13
f 8 14 15
f 14 16 15
f 16 14 17
f 17 14 27
f 14 18 27
f 27 18 19
f 17 27 26
f 14 8 18
f 18 8 20
f 20 8 13
f 20 13 21
f 21 13 12
f 21 12 22
f 22 12 4
f 4 1 22
f 22 1 2
f 1 6 3
f 3 6 23
f 24 23 7
f 24 7 5
f 24 5 10
f 10 886 24
f 886 895 24
f 895 25 24
f 24 25 23
f 23 25 3
f 25 894 3
f 30 17 26
f 27 29 26
f 26 29 30
f 27 28 29
f 49 48 50
f 50 48 52
f 50 52 51
f 51 52 53
f 51 53 33
f 33 53 34
f 53 54 34
f 34 54 35
f 48 55 52
f 55 56 71
f 71 56 70
f 70 56 58
f 70 58 57
f 57 58 59
f 57 59 38
f 38 59 39
f 59 60 39
f 39 60 40
f 56 61 58
f 67 47 44
f 67 62 47
f 62 46 47
f 62 49 46
f 31 65 32
f 32 65 63
f 32 63 64
f 64 63 50
f 64 50 51
f 65 31 45
f 65 45 47
f 47 45 44
f 65 66 63
f 63 66 49
f 63 49 50
f 66 65 46
f 46 65 47
f 49 66 46
f 44 43 67
f 67 68 62
f 62 68 69
f 62 69 61
f 43 42 67
f 67 42 68
f 42 41 68
f 68 41 69
f 41 40 60
f 41 60 69
f 69 60 59
f 69 59 61
f 61 59 58
f 38 37 57
f 57 37 70
f 71 72 55
f 37 36 70
f 70 36 73
f 70 73 71
f 71 73 72
f 36 35 73
f 73 35 54
f 73 54 72
f 72 54 53
f 72 53 55
f 55 53 52
f 74 31 75
f 75 31 32
f 75 32 76
f 76 32 64
f 76 64 77
f 77 64 51
f 77 51 33
f 77 33 78
f 78 33 34
f 78 34 79
f 79 34 35
f 79 35 80
f 80 35 81
f 81 35 36
f 81 36 82
f 82 36 83
f 83 36 37
f 83 37 84
f 84 37 38
f 84 38 85
f 85 38 39
f 85 39 86
f 86 39 40
f 86 40 87
f 87 40 41
f 87 41 42
f 87 42 88
f 88 42 43
f 88 43 89
f 89 43 44
f 89 44 74
f 74 44 45
f 74 45 31
f 49 56 48
f 48 56 55
f 56 49 61
f 61 49 62
f 108 107 109
f 109 107 111
f 109 111 110
f 110 111 112
f 110 112 92
f 92 112 93
f 112 113 93
f 93 113 94
f 107 114 111
f 114 115 130
f 130 115 129
f 129 115 117
f 129 117 116
f 116 117 118
f 116 118 97
f 97 118 98
f 118 119 98
f 98 119 99
f 115 120 117
f 126 106 103
f 126 121 106
f 121 105 106
f 121 108 105
f 90 124 91
f 91 124 122
f 91 122 123
f 123 122 109
f 123 109 110
f 124 90 104
f 124 104 106
f 106 104 103
f 124 125 122
f 122 125 108
f 122 108 109
f 125 124 105
f 105 124 106
f 108 125 105
f 103 102 126
f 126 127 121
f 121 127 128
f 121 128 120
f 102 101 126
f 126 101 127
f 101 100 127
f 127 100 128
f 100 99 119
f 100 119 128
f 128 119 118
f 128 118 120
f 120 118 117
f 97 96 116
f 116 96 129
f 130 131 114
f 96 95 129
f 129 95 132
f 129 132 130
f 130 132 131
f 95 94 132
f 132 94 113
f 132 113 131
f 131 113 112
f 131 112 114
f 114 112 111
f 133 90 134
f 134 90 91
f 134 91 135
f 135 91 123
f 135 123 136
f 136 123 110
f 136 110 92
f 136 92 137
f 137 92 93
f 137 93 138
f 138 93 94
f 138 94 139
f 139 94 95
f 139 95 140
f 140 95 96
f 140 96 141
f 141 96 97
f 141 97 142
f 142 97 98
f 142 98 143
f 143 98 99
f 143 99 144
f 144 99 100
f 144 100 101
f 144 101 145
f 145 101 102
f 145 102 146
f 146 102 103
f 146 103 133
f 133 103 104
f 133 104 90
f 108 115 107
f 107 115 114
f 115 108 120
f 120 108 121
f 165 164 166
f 166 164 168
f 166 168 167
f 167 168 169
f 167 169 149
f 149 169 150
f 169 170 150
f 150 170 151
f 164 171 168
f 171 172 187
f 187 172 186
f 186 172 174
f 186 174 173
f 173 174 175
f 173 175 154
f 154 175 155
f 175 176 155
f 155 176 156
f 172 177 174
f 183 163 160
f 183 178 163
f 178 162 163
f 178 165 162
f 147 181 148
f 148 181 179
f 148 179 180
f 180 179 166
f 180 166 167
f 181 147 161
f 181 161 163
f 163 161 160
f 181 182 179
f 179 182 165
f 179 165 166
f 182 181 162
f 162 181 163
f 165 182 162
f 160 159 183
f 183 184 178
f 178 184 185
f 178 185 177
f 159 158 183
f 183 158 184
f 158 157 184
f 184 157 185
f 157 156 176
f 157 176 185
f 185 176 175
f 185 175 177
f 177 175 174
f 154 153 173
f 173 153 186
f 187 188 171
f 153 152 186
f 186 152 189
f 186 189 187
f 187 189 188
f 152 151 189
f 189 151 170
f 189 170 188
f 188 170 169
f 188 169 171
f 171 169 168
f 190 147 191
f 191 147 148
f 191 148 192
f 192 148 193
f 193 148 180
f 193 180 194
f 194 180 195
f 195 180 167
f 195 167 196
f 196 167 149
f 196 149 197
f 197 149 198
f 198 149 150
f 198 150 199
f 199 150 151
f 199 151 200
f 200 151 152
f 200 152 201
f 201 152 153
f 201 153 202
f 202 153 154
f 202 154 203
f 203 154 155
f 203 155 204
f 204 155 156
f 204 156 205
f 205 156 157
f 205 157 158
f 205 158 206
f 206 158 159
f 206 159 207
f 207 159 160
f 207 160 190
f 190 160 161
f 190 161 147
f 165 172 164
f 164 172 171
f 172 165 177
f 177 165 178
f 226 225 227
f 227 225 229
f 227 229 228
f 228 229 230
f 228 230 210
f 210 230 211
f 230 231 211
f 211 231 212
f 225 232 229
f 232 233 248
f 248 233 247
f 247 233 235
f 247 235 234
f 234 235 236
f 234 236 215
f 215 236 216
f 236 237 216
f 216 237 217
f 233 238 235
f 244 224 221
f 244 239 224
f 239 223 224
f 239 226 223
f 208 242 209
f 209 242 240
f 209 240 241
f 241 240 227
f 241 227 228
f 242 208 222
f 242 222 224
f 224 222 221
f 242 243 240
f 240 243 226
f 240 226 227
f 243 242 223
f 223 242 224
f 226 243 223
f 221 220 244
f 244 245 239
f 239 245 246
f 239 246 238
f 220 219 244
f 244 219 245
f 219 218 245
f 245 218 246
f 218 217 237
f 218 237 246
f 246 237 236
f 246 236 238
f 238 236 235
f 215 214 234
f 234 214 247
f 248 249 232
f 214 213 247
f 247 213 250
f 247 250 248
f 248 250 249
f 213 212 250
f 250 212 231
f 250 231 249
f 249 231 230
f 249 230 232
f 232 230 229
f 251 208 252
f 252 208 209
f 252 209 253
f 253 209 241
f 253 241 254
f 254 241 228
f 254 228 210
f 254 210 255
f 255 210 211
f 255 211 256
f 256 211 212
f 256 212 257
f 257 212 213
f 257 213 258
f 258 213 214
f 258 214 259
f 259 214 215
f 259 215 260
f 260 215 216
f 260 216 261
f 261 216 217
f 261 217 262
f 262 217 218
f 262 218 263
f 263 218 219
f 263 219 264
f 264 219 220
f 264 220 221
f 264 221 265
f 265 221 222
f 265 222 251
f 251 222 208
f 226 233 225
f 225 233 232
f 233 226 238
f 238 226 239
f 267 266 268
f 268 266 269
f 268 269 270
f 266 267 272
f 272 267 271
f 272 271 273
f 275 274 276
f 276 274 277
f 276 277 278
f 274 275 280
f 280 275 279
f 280 279 281
f 283 282 284
f 284 282 285
f 284 285 286
f 282 283 288
f 288 283 287
f 288 287 289
f 291 290 292
f 292 290 293
f 292 293 294
f 290 291 295
f 295 291 296
f 295 296 297
f 297 296 298
f 284 299 283
f 283 299 300
f 283 300 287
f 287 300 301
f 287 301 289
f 289 301 302
f 289 302 288
f 288 302 303
f 288 303 304
f 288 304 282
f 282 304 305
f 282 305 285
f 285 305 306
f 285 306 286
f 286 306 307
f 286 307 308
f 286 308 284
f 284 308 299
f 292 309 291
f 291 309 310
f 291 310 296
f 296 310 311
f 296 311 298
f 298 311 312
f 298 312 297
f 297 312 313
f 297 313 295
f 295 313 314
f 295 314 290
f 290 314 315
f 290 315 293
f 293 315 316
f 293 316 294
f 294 316 317
f 294 317 318
f 294 318 292
f 292 318 309
f 268 319 267
f 267 319 320
f 267 320 271
f 271 320 321
f 271 321 273
f 273 321 322
f 273 322 272
f 272 322 323
f 272 323 324
f 272 324 266
f 266 324 325
f 266 325 269
f 269 325 326
f 269 326 270
f 270 326 327
f 270 327 328
f 270 328 268
f 268 328 319
f 276 329 275
f 275 329 330
f 275 330 279
f 279 330 331
f 279 331 281
f 281 331 332
f 281 332 280
f 280 332 333
f 280 333 334
f 280 334 274
f 274 334 335
f 274 335 277
f 277 335 336
f 277 336 278
f 278 336 337
f 278 337 338
f 278 338 276
f 276 338 329
f 341 339 340
f 341 340 342
f 342 340 343
f 342 343 345
f 345 343 344
f 345 344 346
f 345 346 348
f 348 346 347
f 348 347 349
f 348 349 351
f 351 349 350
f 351 350 352
f 351 352 354
f 354 352 353
f 354 353 356
f 356 353 355
f 356 355 358
f 358 355 357
f 358 357 360
f 360 357 359
f 360 359 361
f 361 359 339
f 361 339 341
f 364 362 363
f 364 363 366
f 366 363 365
f 366 365 368
f 368 365 367
f 368 367 370
f 370 367 369
f 370 369 372
f 372 369 371
f 372 371 373
f 373 371 374
f 373 374 376
f 376 374 375
f 376 375 377
f 376 377 379
f 379 377 378
f 379 378 380
f 379 380 383
f 383 380 381
f 383 381 382
f 383 382 362
f 383 362 364
f 386 384 385
f 386 385 388
f 388 385 387
f 388 387 390
f 390 387 389
f 390 389 392
f 392 389 391
f 392 391 394
f 394 391 393
f 394 393 395
f 395 393 396
f 395 396 398
f 398 396 397
f 398 397 399
f 398 399 401
f 401 399 400
f 401 400 402
f 401 402 405
f 405 402 403
f 405 403 404
f 405 404 384
f 405 384 386
f 408 406 407
f 408 407 409
f 409 407 410
f 409 410 412
f 412 410 411
f 412 411 413
f 412 413 415
f 415 413 414
f 415 414 416
f 415 416 418
f 418 416 417
f 418 417 419
f 418 419 421
f 421 419 420
f 421 420 423
f 423 420 422
f 423 422 425
f 425 422 424
f 425 424 427
f 427 424 426
f 427 426 428
f 428 426 406
f 428 406 408
f 430 429 431
f 430 431 432
f 432 431 433
f 435 434 437
f 437 434 436
f 437 436 438
f 429 439 431
f 431 439 440
f 431 440 433
f 433 440 441
f 433 441 432
f 432 441 442
f 432 442 430
f 430 442 443
f 444 435 437
f 444 437 445
f 445 437 438
f 445 438 446
f 446 438 436
f 446 436 447
f 447 436 434
f 447 434 448
f 439 429 449
f 449 429 450
f 450 429 451
f 451 429 430
f 451 430 443
f 443 452 451
f 451 452 453
f 451 453 454
f 452 455 453
f 453 455 456
f 453 456 457
f 457 456 458
f 457 458 459
f 459 458 460
f 460 458 461
f 461 458 462
f 461 462 463
f 463 462 464
f 464 462 465
f 465 462 466
f 465 466 457
f 455 467 456
f 456 467 468
f 468 467 469
f 468 469 470
f 470 471 468
f 472 473 456
f 456 473 474
f 456 474 458
f 458 474 475
f 458 475 476
f 476 475 477
f 476 477 478
f 478 477 479
f 478 479 480
f 480 479 481
f 481 479 482
f 472 483 473
f 473 483 484
f 484 483 485
f 475 474 486
f 486 474 487
f 486 487 488
f 489 490 488
f 488 490 486
f 491 492 475
f 475 492 493
f 475 493 477
f 491 494 492
f 478 495 476
f 476 495 496
f 476 496 497
f 497 496 498
f 497 498 462
f 462 498 466
f 496 495 499
f 499 495 500
f 499 500 501
f 499 501 502
f 502 501 503
f 502 503 504
f 504 503 505
f 504 505 506
f 506 505 507
f 507 505 508
f 504 509 502
f 502 509 498
f 498 509 510
f 498 510 466
f 466 510 511
f 466 511 512
f 466 512 454
f 454 512 451
f 513 465 457
f 457 459 513
f 515 514 517
f 517 514 516
f 517 516 518
f 519 515 520
f 520 515 517
f 520 517 521
f 521 517 518
f 521 518 522
f 522 518 516
f 522 516 523
f 523 516 514
f 523 514 524
f 455 452 526
f 526 452 525
f 526 525 528
f 528 525 527
f 528 527 530
f 530 527 529
f 530 529 467
f 467 529 469
f 467 455 530
f 530 455 526
f 530 526 528
f 339 469 340
f 340 469 452
f 340 452 531
f 340 531 343
f 343 531 532
f 343 532 344
f 344 532 533
f 344 533 534
f 469 339 470
f 470 339 359
f 470 359 357
f 470 357 535
f 357 355 535
f 535 355 524
f 524 355 353
f 524 353 519
f 519 353 536
f 536 353 352
f 536 352 537
f 537 352 350
f 537 350 538
f 538 350 539
f 539 350 349
f 539 349 540
f 540 349 347
f 540 347 541
f 541 347 542
f 542 347 346
f 542 346 534
f 534 346 344
f 362 443 363
f 363 443 439
f 363 439 449
f 363 449 365
f 365 449 367
f 367 449 543
f 367 543 369
f 369 543 444
f 369 444 371
f 371 444 448
f 371 448 544
f 371 544 374
f 374 544 545
f 374 545 375
f 375 545 546
f 375 546 547
f 443 362 548
f 443 548 549
f 362 382 548
f 548 382 550
f 550 382 381
f 550 381 551
f 551 381 552
f 552 381 380
f 552 380 553
f 553 380 378
f 553 378 554
f 554 378 555
f 555 378 377
f 555 377 547
f 547 377 375
f 448 444 447
f 447 444 445
f 447 445 446
f 544 448 556
f 556 448 519
f 556 519 536
f 524 519 523
f 523 519 520
f 523 520 522
f 522 520 521
f 452 469 525
f 525 469 529
f 525 529 527
f 531 452 549
f 549 452 443
f 439 443 442
f 439 442 440
f 440 442 441
f 505 503 557
f 557 503 558
f 557 558 559
f 561 560 562
f 561 562 563
f 563 562 564
f 503 501 565
f 503 565 558
f 558 565 566
f 558 566 559
f 559 566 567
f 559 567 557
f 557 567 568
f 557 568 505
f 505 568 508
f 569 561 570
f 570 561 563
f 570 563 571
f 571 563 564
f 571 564 572
f 572 564 562
f 572 562 573
f 573 562 560
f 574 575 577
f 577 575 576
f 577 576 578
f 579 574 580
f 580 574 577
f 580 577 581
f 581 577 578
f 581 578 582
f 582 578 576
f 582 576 583
f 583 576 575
f 478 480 585
f 585 480 584
f 585 584 587
f 587 584 586
f 587 586 589
f 589 586 588
f 589 588 495
f 495 588 500
f 478 585 495
f 495 585 589
f 589 585 587
f 384 500 385
f 385 500 480
f 385 480 481
f 385 481 387
f 387 481 389
f 389 481 590
f 389 590 391
f 391 590 579
f 391 579 393
f 393 579 583
f 393 583 396
f 396 583 569
f 396 569 419
f 419 569 420
f 420 569 573
f 420 573 591
f 500 384 404
f 500 404 410
f 410 404 411
f 411 404 403
f 411 403 413
f 413 403 402
f 413 402 414
f 414 402 400
f 414 400 416
f 416 400 399
f 416 399 417
f 417 399 397
f 417 397 419
f 419 397 396
f 406 507 407
f 407 507 508
f 407 508 501
f 501 508 565
f 565 508 568
f 565 568 566
f 566 568 567
f 507 406 426
f 507 426 424
f 507 424 591
f 424 422 591
f 422 420 591
f 500 410 501
f 501 410 407
f 480 500 588
f 480 588 584
f 584 588 586
f 583 579 582
f 582 579 580
f 582 580 581
f 573 569 570
f 573 570 572
f 572 570 571
f 592 729 593
f 594 756 595
f 596 597 598
f 598 597 599
f 598 600 596
f 596 600 603
f 596 603 601
f 603 600 602
f 603 602 604
f 604 602 605
f 604 605 606
f 606 605 607
f 606 607 597
f 597 607 599
f 597 656 606
f 598 599 600
f 600 599 607
f 600 607 602
f 602 607 605
f 656 601 606
f 606 601 603
f 606 603 604
f 608 609 2
f 610 611 608
f 608 611 651
f 612 197 610
f 610 197 198
f 610 198 611
f 611 198 613
f 613 198 199
f 197 612 196
f 196 612 614
f 196 614 195
f 195 614 194
f 194 614 615
f 194 615 193
f 193 615 616
f 193 616 192
f 192 616 617
f 192 617 138
f 138 617 137
f 137 617 618
f 137 618 136
f 136 618 619
f 136 619 135
f 135 619 134
f 134 619 133
f 133 619 620
f 133 620 146
f 146 620 145
f 145 620 144
f 144 620 621
f 144 621 143
f 143 621 142
f 142 621 141
f 141 621 622
f 141 622 140
f 140 622 139
f 139 622 190
f 139 190 191
f 139 191 138
f 138 191 192
f 623 82 618
f 618 82 83
f 618 83 619
f 619 83 84
f 82 623 81
f 81 623 624
f 81 624 80
f 80 624 625
f 80 625 79
f 79 625 626
f 79 626 78
f 78 626 574
f 78 574 77
f 77 574 76
f 76 574 579
f 76 579 75
f 75 579 590
f 75 590 74
f 74 590 89
f 89 590 88
f 88 590 87
f 87 590 619
f 87 619 86
f 86 619 85
f 85 619 84
f 574 626 575
f 575 626 664
f 575 664 627
f 628 629 626
f 626 629 630
f 629 628 634
f 634 628 631
f 634 631 632
f 634 632 633
f 634 633 635
f 634 635 636
f 636 635 637
f 636 637 639
f 639 637 638
f 639 638 640
f 639 640 641
f 635 633 642
f 642 633 643
f 643 19 642
f 642 19 653
f 653 19 644
f 18 645 19
f 20 647 18
f 18 647 646
f 647 20 21
f 647 21 22
f 647 22 648
f 648 22 2
f 648 2 609
f 601 657 649
f 601 649 448
f 448 649 519
f 519 649 515
f 515 649 650
f 515 650 514
f 514 650 254
f 254 650 253
f 253 650 611
f 253 611 252
f 252 611 613
f 252 613 251
f 251 613 265
f 265 613 264
f 264 613 263
f 263 613 535
f 263 535 262
f 262 535 261
f 261 535 260
f 260 535 259
f 259 535 524
f 259 524 258
f 258 524 257
f 257 524 514
f 257 514 256
f 256 514 255
f 255 514 254
f 608 651 609
f 609 651 652
f 652 651 653
f 652 653 644
f 637 654 638
f 638 654 597
f 597 654 655
f 597 655 656
f 656 657 601
f 575 627 583
f 583 627 658
f 658 659 583
f 583 659 569
f 569 659 660
f 660 661 569
f 661 662 569
f 569 662 561
f 561 662 641
f 561 641 560
f 560 641 663
f 560 663 591
f 662 639 641
f 626 630 664
f 444 543 435
f 435 543 596
f 435 596 601
f 591 573 560
f 665 205 622
f 622 205 206
f 613 202 665
f 665 202 203
f 448 434 601
f 601 434 435
f 199 200 613
f 613 200 201
f 613 201 202
f 665 203 204
f 204 205 665
f 206 207 622
f 622 207 190
f 18 646 645
f 645 644 19
f 506 666 667
f 667 666 668
f 669 510 670
f 670 510 671
f 667 672 506
f 506 672 674
f 506 674 504
f 674 672 673
f 674 673 676
f 676 673 675
f 676 675 677
f 677 675 678
f 677 678 679
f 679 678 680
f 679 680 510
f 510 680 671
f 510 509 679
f 671 680 670
f 670 680 681
f 681 680 678
f 681 678 673
f 673 678 675
f 681 673 682
f 682 673 672
f 682 672 668
f 668 672 667
f 509 504 679
f 679 504 674
f 679 674 677
f 677 674 676
f 511 683 684
f 684 683 685
f 686 450 687
f 687 450 688
f 684 689 511
f 511 689 691
f 511 691 512
f 691 689 690
f 691 690 693
f 693 690 692
f 693 692 694
f 694 692 695
f 694 695 696
f 696 695 697
f 696 697 450
f 450 697 688
f 450 451 696
f 688 697 687
f 687 697 698
f 698 697 695
f 698 695 690
f 690 695 692
f 698 690 699
f 699 690 689
f 699 689 685
f 685 689 684
f 451 512 696
f 696 512 691
f 696 691 694
f 694 691 693
f 638 663 700
f 700 663 701
f 700 702 638
f 638 702 704
f 638 704 640
f 704 702 703
f 704 703 705
f 705 703 706
f 705 706 707
f 707 706 708
f 707 708 663
f 663 708 701
f 663 641 707
f 700 701 702
f 702 701 708
f 702 708 703
f 703 708 706
f 641 640 707
f 707 640 704
f 707 704 705
f 729 592 682
f 729 682 666
f 666 682 668
f 682 592 681
f 681 592 593
f 681 593 669
f 669 593 710
f 710 593 709
f 710 709 711
f 711 709 712
f 712 709 713
f 712 713 714
f 714 713 715
f 715 713 716
f 715 716 717
f 717 716 718
f 718 716 719
f 718 719 720
f 720 719 721
f 721 719 722
f 722 719 723
f 722 723 724
f 722 724 725
f 725 724 726
f 725 726 727
f 727 726 728
f 727 728 730
f 730 728 729
f 730 729 666
f 669 670 681
f 731 726 724
f 731 724 732
f 732 724 723
f 732 723 719
f 726 731 728
f 728 731 733
f 728 733 729
f 729 733 734
f 729 734 593
f 593 734 709
f 709 734 735
f 709 735 713
f 713 735 736
f 713 736 716
f 716 736 719
f 719 736 732
f 756 594 699
f 756 699 683
f 683 699 685
f 699 594 698
f 698 594 595
f 698 595 686
f 686 595 738
f 738 595 737
f 738 737 740
f 740 737 739
f 740 739 741
f 741 739 742
f 741 742 743
f 743 742 744
f 743 744 745
f 745 744 746
f 746 744 747
f 747 744 748
f 747 748 749
f 749 748 750
f 750 748 751
f 750 751 752
f 752 751 753
f 753 751 754
f 753 754 755
f 755 754 757
f 757 754 756
f 757 756 683
f 686 687 698
f 758 751 748
f 758 748 759
f 759 748 744
f 759 744 760
f 760 744 742
f 751 758 754
f 754 758 761
f 754 761 756
f 756 761 762
f 756 762 595
f 595 762 737
f 737 762 763
f 737 763 739
f 739 763 764
f 739 764 742
f 742 764 760
f 669 710 510
f 510 710 755
f 755 710 711
f 755 711 753
f 753 711 712
f 753 712 752
f 752 712 714
f 752 714 750
f 750 714 715
f 750 715 749
f 749 715 717
f 749 717 747
f 747 717 718
f 747 718 746
f 746 718 720
f 746 720 745
f 745 720 721
f 745 721 597
f 597 721 638
f 638 721 722
f 638 722 663
f 663 722 591
f 591 722 725
f 591 725 727
f 591 727 507
f 727 730 507
f 666 506 730
f 730 506 507
f 745 597 743
f 743 597 596
f 743 596 543
f 449 741 543
f 450 738 449
f 450 686 738
f 738 740 449
f 449 740 741
f 741 743 543
f 755 757 510
f 510 757 511
f 511 757 683
f 758 765 761
f 761 765 766
f 761 766 762
f 762 766 767
f 762 767 768
f 762 768 763
f 763 768 769
f 763 769 764
f 764 769 770
f 764 770 771
f 764 771 760
f 760 771 759
f 759 771 772
f 759 772 758
f 758 772 765
f 765 769 766
f 766 769 768
f 766 768 767
f 769 765 770
f 770 765 772
f 770 772 771
f 731 773 733
f 733 773 774
f 733 774 734
f 734 774 775
f 734 775 776
f 734 776 735
f 735 776 777
f 735 777 736
f 736 777 778
f 736 778 732
f 732 778 779
f 732 779 780
f 732 780 731
f 731 780 773
f 773 777 774
f 774 777 776
f 774 776 775
f 777 773 778
f 778 773 780
f 778 780 779
f 364 372 383
f 383 372 373
f 383 373 376
f 383 376 379
f 372 364 370
f 370 364 366
f 370 366 368
f 341 354 356
f 341 356 361
f 361 356 360
f 360 356 358
f 354 341 342
f 354 342 351
f 351 342 345
f 351 345 348
f 548 781 549
f 549 781 531
f 531 781 532
f 532 781 533
f 533 781 782
f 533 782 534
f 534 782 542
f 542 782 541
f 541 782 540
f 540 782 783
f 540 783 539
f 539 783 538
f 538 783 537
f 537 783 536
f 536 783 784
f 536 784 556
f 556 784 544
f 544 784 545
f 545 784 546
f 546 784 785
f 546 785 547
f 547 785 555
f 555 785 554
f 554 785 553
f 553 785 786
f 553 786 552
f 552 786 551
f 551 786 550
f 550 786 548
f 548 786 781
f 781 784 783
f 781 783 782
f 784 781 786
f 784 786 785
f 386 394 405
f 405 394 395
f 405 395 398
f 405 398 401
f 394 386 392
f 392 386 388
f 392 388 390
f 787 788 789
f 789 788 790
f 791 792 793
f 793 792 794
f 795 796 797
f 797 796 798
f 3 894 2
f 2 894 608
f 644 513 652
f 652 513 459
f 652 459 609
f 609 459 460
f 609 460 648
f 648 460 461
f 648 461 647
f 647 461 463
f 647 463 646
f 646 463 464
f 646 464 645
f 645 464 465
f 645 465 644
f 644 465 513
f 408 421 423
f 408 423 428
f 428 423 427
f 427 423 425
f 421 408 409
f 421 409 418
f 418 409 412
f 418 412 415
f 858 808 799
f 799 808 800
f 799 800 801
f 801 800 820
f 819 820 809
f 819 809 822
f 822 809 802
f 822 802 803
f 803 802 804
f 803 804 805
f 805 804 854
f 854 806 807
f 807 806 808
f 807 808 858
f 809 820 800
f 800 808 809
f 809 808 806
f 809 806 802
f 802 806 804
f 804 806 854
f 810 801 811
f 811 801 820
f 811 820 821
f 821 812 816
f 816 812 813
f 816 813 814
f 814 815 816
f 821 816 839
f 821 839 811
f 811 839 840
f 811 840 810
f 812 817 818
f 818 817 819
f 818 819 822
f 821 820 817
f 821 817 812
f 812 824 813
f 817 820 819
f 823 824 812
f 823 812 818
f 822 823 818
f 840 835 810
f 810 835 825
f 810 825 826
f 826 825 827
f 827 836 851
f 851 836 828
f 851 828 850
f 850 828 829
f 850 829 830
f 830 829 831
f 830 831 832
f 832 831 837
f 837 833 834
f 834 833 835
f 834 835 840
f 836 827 825
f 825 835 836
f 836 835 828
f 828 835 833
f 831 833 837
f 829 828 833
f 829 833 831
f 837 834 838
f 816 838 839
f 834 840 838
f 842 837 838
f 838 840 839
f 841 842 838
f 841 838 816
f 815 841 816
f 799 826 858
f 858 826 843
f 858 843 857
f 857 843 844
f 845 844 846
f 845 846 847
f 847 848 845
f 845 848 856
f 845 856 844
f 844 856 857
f 853 849 850
f 850 849 851
f 846 844 853
f 844 843 852
f 852 843 827
f 827 843 826
f 827 851 852
f 852 851 849
f 849 853 844
f 844 852 849
f 854 807 855
f 856 855 857
f 807 858 855
f 860 854 855
f 855 858 857
f 859 860 855
f 859 855 856
f 848 859 856
f 655 814 813
f 655 813 656
f 656 813 824
f 656 824 823
f 656 823 657
f 657 823 822
f 657 822 803
f 803 805 657
f 657 805 649
f 649 805 854
f 649 854 860
f 649 860 859
f 649 859 650
f 650 859 848
f 848 847 650
f 650 847 611
f 801 810 799
f 799 810 826
f 28 862 863
f 28 863 29
f 29 863 877
f 29 877 30
f 30 877 861
f 864 865 861
f 861 865 866
f 861 866 867
f 867 866 889
f 889 875 868
f 868 875 869
f 868 869 893
f 893 869 870
f 870 869 871
f 870 871 872
f 872 871 873
f 874 873 876
f 874 876 875
f 874 875 864
f 864 875 865
f 875 889 866
f 871 876 873
f 865 875 866
f 869 875 876
f 869 876 871
f 864 861 877
f 877 863 878
f 863 862 878
f 878 879 874
f 874 879 873
f 880 879 878
f 877 878 874
f 878 862 880
f 864 877 874
f 886 867 881
f 881 888 885
f 885 888 882
f 885 882 883
f 883 882 887
f 887 884 883
f 883 884 898
f 883 898 885
f 881 885 886
f 881 867 889
f 889 868 890
f 868 893 890
f 891 887 882
f 890 891 882
f 892 891 890
f 888 890 882
f 890 893 892
f 889 890 888
f 881 889 888
f 30 9 15
f 15 16 17
f 17 30 15
f 895 886 885
f 895 885 896
f 885 898 896
f 896 897 25
f 25 897 894
f 898 897 896
f 895 896 25
f 628 872 873
f 628 873 631
f 631 873 879
f 631 879 880
f 631 880 632
f 632 880 862
f 862 28 632
f 632 28 633
f 27 19 28
f 28 19 643
f 28 643 633
f 886 10 867
f 867 10 861
f 861 10 9
f 861 9 30
f 899 900 901
f 901 900 954
f 901 954 955
f 901 955 903
f 903 955 902
f 903 902 918
f 901 903 904
f 901 904 899
f 905 916 899
f 899 916 906
f 899 906 907
f 907 906 931
f 930 931 908
f 930 908 933
f 933 908 909
f 933 909 910
f 910 909 911
f 910 911 912
f 912 911 913
f 915 913 914
f 915 914 905
f 905 914 916
f 908 931 906
f 908 916 914
f 911 914 913
f 916 908 906
f 909 908 914
f 909 914 911
f 920 917 918
f 918 917 903
f 913 915 920
f 915 905 919
f 919 905 904
f 904 905 899
f 904 903 919
f 919 903 917
f 917 920 915
f 915 919 917
f 921 907 922
f 922 907 931
f 922 931 932
f 932 923 927
f 927 923 924
f 927 924 925
f 925 926 927
f 932 927 947
f 932 947 922
f 922 947 948
f 922 948 921
f 923 928 929
f 929 928 930
f 929 930 933
f 932 931 928
f 932 928 923
f 923 935 924
f 928 931 930
f 934 935 923
f 934 923 929
f 933 934 929
f 948 943 921
f 921 943 936
f 921 936 900
f 900 936 954
f 953 954 944
f 953 944 956
f 956 944 937
f 956 937 938
f 938 937 939
f 938 939 940
f 940 939 945
f 945 941 942
f 942 941 943
f 942 943 948
f 944 954 936
f 936 943 944
f 944 943 941
f 944 941 937
f 937 941 939
f 939 941 945
f 945 942 946
f 927 946 947
f 942 948 946
f 950 945 946
f 946 948 947
f 949 950 946
f 949 946 927
f 926 949 927
f 951 902 955
f 952 951 953
f 952 953 956
f 955 954 951
f 951 958 902
f 951 954 953
f 957 958 951
f 957 951 952
f 956 957 952
f 629 912 913
f 629 913 630
f 630 913 920
f 630 920 918
f 630 918 664
f 918 902 664
f 664 902 627
f 627 902 958
f 627 958 957
f 627 957 658
f 658 957 956
f 658 956 659
f 659 956 938
f 938 940 659
f 659 940 660
f 900 899 921
f 921 899 907
f 611 847 651
f 651 847 846
f 651 846 853
f 651 853 653
f 653 853 850
f 653 850 830
f 830 832 653
f 653 832 642
f 642 832 635
f 635 832 837
f 635 837 637
f 637 837 842
f 637 842 654
f 654 842 841
f 654 841 815
f 815 814 654
f 654 814 655
f 660 940 945
f 660 945 661
f 661 945 950
f 661 950 949
f 661 949 662
f 662 949 926
f 926 925 662
f 662 925 639
f 639 925 924
f 639 924 935
f 639 935 934
f 639 934 636
f 636 934 634
f 634 934 933
f 634 933 910
f 910 912 634
f 634 912 629
f 608 894 610
f 610 894 612
f 612 894 897
f 612 897 614
f 614 897 615
f 615 897 898
f 615 898 616
f 616 898 884
f 616 884 617
f 884 887 617
f 617 887 618
f 618 887 623
f 623 887 624
f 624 887 891
f 624 891 625
f 625 891 626
f 626 891 892
f 626 892 893
f 626 893 870
f 870 872 626
f 626 872 628
f 458 476 789
f 789 476 787
f 462 458 790
f 790 458 789
f 497 462 788
f 788 462 790
f 476 497 787
f 787 497 788
f 496 499 793
f 793 499 791
f 498 496 794
f 794 496 793
f 502 498 792
f 792 498 794
f 499 502 791
f 791 502 792
f 457 466 798
f 798 466 797
f 453 457 796
f 796 457 798
f 454 453 795
f 795 453 796
f 466 454 797
f 797 454 795
f 475 486 959
f 959 486 960
f 486 490 960
f 960 490 961
f 491 475 962
f 962 475 959
f 299 962 959
f 299 959 300
f 300 959 301
f 301 959 302
f 302 959 960
f 302 960 303
f 303 960 304
f 304 960 961
f 304 961 305
f 305 961 306
f 306 961 307
f 307 961 962
f 307 962 308
f 308 962 299
f 474 473 963
f 963 473 964
f 473 484 964
f 964 484 965
f 487 474 966
f 966 474 963
f 309 966 963
f 309 963 310
f 310 963 311
f 311 963 312
f 312 963 964
f 312 964 313
f 313 964 314
f 314 964 965
f 314 965 315
f 315 965 316
f 316 965 317
f 317 965 966
f 317 966 318
f 318 966 309
f 479 477 967
f 967 477 968
f 477 493 968
f 968 493 969
f 482 479 970
f 970 479 967
f 319 970 967
f 319 967 320
f 320 967 321
f 321 967 322
f 322 967 968
f 322 968 323
f 323 968 324
f 324 968 969
f 324 969 325
f 325 969 326
f 326 969 327
f 327 969 970
f 327 970 328
f 328 970 319
f 456 468 971
f 971 468 972
f 468 471 972
f 972 471 973
f 472 456 974
f 974 456 971
f 329 974 971
f 329 971 330
f 330 971 331
f 331 971 332
f 332 971 972
f 332 972 333
f 333 972 334
f 334 972 973
f 334 973 335
f 335 973 336
f 336 973 337
f 337 973 974
f 337 974 338
f 338 974 329
f 491 962 494
f 494 962 620
f 620 962 961
f 620 961 621
f 621 961 489
f 489 961 490
f 487 966 488
f 488 966 622
f 622 966 965
f 622 965 665
f 665 965 485
f 485 965 484
f 482 970 481
f 481 970 590
f 590 970 969
f 590 969 619
f 619 969 492
f 492 969 493
f 472 974 483
f 483 974 613
f 613 974 973
f 613 973 535
f 535 973 470
f 470 973 471
f 620 619 494
f 494 619 492
f 622 621 488
f 488 621 489
f 613 665 483
f 483 665 485
