v -0.0173283 -0.0161346 0.0382332
v -0.024038 -0.0161125 0.0382664
v -0.0257225 -0.0161062 0.0382731
v -0.0173283 -0.0157714 0.0380541
v -0.0169414 -0.016122 0.0382465
v -0.0169414 -0.016122 0.0383195
v -0.0173283 -0.0161346 0.0383394
v -0.0193404 -0.0161283 0.0383261
v -0.0320891 -0.0158946 0.0386115
v -0.0320891 -0.0156988 0.0381602
v -0.0307451 -0.0157209 0.0381536
v -0.013304 -0.00645173 0.094295
v -0.013304 -0.00633487 0.0949652
v -0.0139748 -0.00644541 0.094295
v -0.0173283 -0.0150987 0.0379081
v -0.0168201 -0.0157714 0.0381602
v -0.0163996 -0.0150987 0.0386115
v -0.0167272 -0.0157841 0.0385717
v -0.01026 -0.00606643 0.0951444
v -0.01026 -0.00606643 0.0956421
v -0.0112919 -0.00645173 0.094295
v -0.0112919 -0.00633803 0.0949652
v -0.0327572 -0.0158062 0.0386115
v -0.0327572 -0.0156546 0.0381669
v -0.0139748 -0.00631277 0.0949652
v -0.0146455 -0.00651173 0.0936248
v -0.0327572 -0.0150987 0.0380541
v -0.0294037 -0.0150987 0.0380209
v -0.0112919 -0.00620855 0.0956421
v -0.013304 -0.00620539 0.0956421
v -0.0173283 0.0150932 0.0379081
v -0.0167247 0.0150932 0.0380939
v -0.0167247 -0.0150987 0.0380939
v -0.034772 0.000331981 0.0380142
v -0.0102755 -0.00604748 0.096027
v -0.0163971 -0.0144292 0.0386115
v -0.01633 -0.0144292 0.039003
v -0.0162913 -0.0144292 0.0393348
v -0.0162242 -0.0144292 0.039952
v -0.016299 -0.0148398 0.0394344
v -0.0134382 -0.00838767 0.0634438
v -0.0100201 -0.00503372 0.0963124
v -0.0109333 -0.00675491 0.0884021
v -0.0101569 -0.00570324 0.0956421
v -0.00992469 -0.00503372 0.0976529
v -0.00957644 -0.00409259 0.101674
v -0.0106186 -0.00606959 0.0961266
v -0.0334692 -0.0155819 0.0386314
v -0.0338278 -0.0154777 0.0384257
v -0.0338278 -0.0154777 0.0382332
v -0.0334305 -0.0155535 0.0381934
v -0.0146455 -0.00636014 0.094295
v -0.0153162 -0.006537 0.0929545
v -0.0153162 -0.00636014 0.0936248
v -0.0334305 -0.0150987 0.0380806
v -0.013304 -0.00608854 0.0962062
v -0.013304 -0.0060159 0.096538
v -0.0138122 -0.00606959 0.0961067
v -0.0140109 -0.00613591 0.0956886
v -0.0334305 -0.0144292 0.0380607
v -0.0340987 -0.0144292 0.0380806
v -0.0126308 -0.00602222 0.0965645
v -0.0294037 0.0150932 0.0380209
v -0.0320891 0.0156995 0.0381602
v -0.0173283 0.0157659 0.0380541
v -0.0168201 0.0157659 0.0381602
v -0.0163971 0.0144236 0.0386115
v -0.0340987 -0.0137534 0.0380673
v -0.034772 -0.0124112 0.038074
v -0.0352543 -0.0124112 0.0381735
v -0.035293 0.000331981 0.0381337
v -0.0352543 0.0124056 0.0381735
v -0.034772 0.0124056 0.038074
v -0.0340987 0.0137478 0.0380673
v -0.0334305 0.0144236 0.0380607
v -0.0327572 0.0150932 0.0380541
v -0.00957902 -0.00407364 0.102139
v -0.0101388 -0.00549165 0.0983231
v -0.0102059 -0.00541901 0.0988407
v -0.0106186 -0.00561166 0.0983231
v -0.0106186 -0.00575693 0.0976529
v -0.01633 0.0144236 0.039003
v -0.0156386 -0.0104026 0.0442455
v -0.0156386 -0.0110721 0.0442455
v -0.0156438 -0.0117416 0.0442854
v -0.0156515 -0.0120922 0.0443119
v -0.0138819 -0.00838767 0.0594157
v -0.0133556 -0.00771814 0.064114
v -0.0100846 -0.00503372 0.0956421
v -0.0096074 -0.00347675 0.100626
v -0.00963577 -0.00369782 0.100374
v -0.00952743 -0.0036915 0.101674
v -0.00997113 -0.00503372 0.0969826
v -0.0095687 -0.00301882 0.101004
v -0.00959708 -0.00407048 0.101163
v -0.00940618 -0.00301882 0.103021
v -0.0112919 -0.0060917 0.0962062
v -0.0337169 -0.0154114 0.0388703
v -0.0344521 -0.0147798 0.0389831
v -0.0344985 -0.0148366 0.0386115
v -0.0345011 -0.0148398 0.0382266
v -0.0340703 -0.0150798 0.0381802
v -0.0142585 -0.00602853 0.0959408
v -0.0144752 -0.00609485 0.0954961
v -0.0150943 -0.00608854 0.0947927
v -0.0153188 -0.00615802 0.0942817
v -0.0157057 -0.00606959 0.0940495
v -0.0126308 -0.00593063 0.0969826
v -0.0126308 -0.00577272 0.0976529
v -0.013304 -0.00590852 0.0969826
v -0.013304 -0.00571903 0.0976529
v -0.0140109 -0.00597485 0.096319
v -0.0346404 -0.0144292 0.0381868
v -0.0348261 -0.0138102 0.0381602
v -0.034772 -0.0130838 0.0380806
v -0.0112919 -0.00577588 0.0976529
v -0.0327572 0.015649 0.0381669
v -0.0320891 0.015889 0.0386115
v -0.0252014 0.0161006 0.0382731
v -0.024038 0.0161069 0.0382664
v -0.0173283 0.0161291 0.0382332
v -0.0169414 0.0161164 0.0382465
v -0.0163996 0.0150932 0.0386115
v -0.0352621 -0.0117416 0.0381735
v -0.0352286 -0.0130838 0.0381802
v -0.0354633 -0.0124112 0.0386115
v -0.0354891 -0.0117416 0.0386115
v -0.0352905 0.0016742 0.0381403
v -0.0352621 0.0117361 0.0381735
v -0.0355201 0.0016742 0.0386115
v -0.0354891 0.0117361 0.0386115
v -0.0352286 0.0130783 0.0381802
v -0.034772 0.0130783 0.0380806
v -0.0354633 0.0124056 0.0386115
v -0.0340987 0.0144236 0.0380806
v -0.0334305 0.0150932 0.0380806
v -0.00994791 -0.00413996 0.102265
v -0.0101285 -0.00476212 0.100838
v -0.00951969 -0.00352728 0.103021
v -0.00955064 -0.00342622 0.103459
v -0.0106186 -0.00500845 0.10034
v -0.0106186 -0.00522636 0.0996636
v -0.0106186 -0.00534953 0.0992654
v -0.0106186 -0.00544743 0.0989336
v -0.01196 -0.00561166 0.0983231
v -0.01196 -0.00577588 0.0976529
v -0.0112919 -0.00544743 0.0989336
v -0.0162913 0.0144236 0.0393348
v -0.0139025 0.00838211 0.0594157
v -0.0157315 0.0117361 0.0439801
v -0.0157289 0.0110665 0.0439801
v -0.0134356 0.00770942 0.0634438
v -0.013366 0.00770942 0.064114
v -0.0101001 0.00502815 0.0956421
v -0.00977249 0.00301325 0.0989934
v -0.00950679 -0.00301882 0.101674
v -0.00931847 -0.00234929 0.103692
v -0.00945004 -0.00301882 0.102351
v -0.00938039 0.00100151 0.103021
v -0.0092514 0.000331981 0.104362
v -0.00937781 -0.00234929 0.103021
v -0.00946036 -0.00303461 0.103685
v -0.0169904 -0.00603801 0.0919458
v -0.016299 -0.00602222 0.0932531
v -0.0344263 -0.0120701 0.044292
v -0.0346275 -0.0116406 0.0446503
v -0.0350583 -0.0113184 0.0441261
v -0.0349757 -0.0138702 0.0392817
v -0.03479 -0.0144292 0.0386115
v -0.0176688 -0.00604117 0.090612
v -0.035177 -0.0136239 0.0382133
v -0.0350609 -0.0140155 0.0386115
v -0.0146764 -0.00595905 0.0956886
v -0.0139748 -0.0057822 0.0969826
v -0.0149215 -0.0060159 0.0952373
v -0.0144365 -0.00543796 0.0974803
v -0.0150324 -0.00540638 0.0967371
v -0.0126308 -0.00559903 0.0983231
v -0.0126308 -0.00543796 0.0988805
v -0.0131286 -0.00540638 0.0987744
v -0.0133324 -0.00549165 0.0983629
v -0.0334305 0.0155543 0.0381934
v -0.0327572 0.0158101 0.0386115
v -0.0252014 0.0161006 0.0382797
v -0.0146455 0.00651564 0.0936248
v -0.0139748 0.00631036 0.0949652
v -0.0139748 0.00643984 0.094295
v -0.0139748 0.00655985 0.0936248
v -0.024038 0.0161069 0.038293
v -0.0193404 0.0161227 0.0383261
v -0.0173283 0.0161291 0.0383394
v -0.0169414 0.0161164 0.0383195
v -0.0167272 0.0157722 0.0385717
v -0.0102549 0.00606087 0.0956421
v -0.0102575 0.00606087 0.0951312
v -0.0134382 0.00838211 0.0634438
v -0.016299 0.0148311 0.0394344
v -0.010162 0.00569768 0.0956421
v -0.0353704 -0.0130838 0.0386115
v -0.0354891 -0.0124112 0.0392817
v -0.0355562 -0.0117416 0.0392817
v -0.0355691 -0.0110721 0.0392817
v -0.0355691 0.0110665 0.0392817
v -0.0355562 0.0117361 0.0392817
v -0.035177 0.0136215 0.0382133
v -0.0348287 0.0138078 0.0381602
v -0.0354891 0.0124056 0.0392817
v -0.035373 0.0130783 0.0386115
v -0.034643 0.0144236 0.0381868
v -0.0340729 0.0150742 0.0381802
v -0.0338304 0.0154753 0.0382332
v -0.0106186 -0.00418417 0.102325
v -0.0106186 -0.00448736 0.101674
v -0.0106186 -0.00466421 0.101256
v -0.00994791 -0.00396942 0.102597
v -0.0106186 -0.0047937 0.100924
v -0.00994791 -0.00346727 0.103526
v -0.00994791 -0.00374835 0.103021
v -0.00950679 -0.00282301 0.104183
v -0.00994791 -0.00323357 0.103864
v -0.0112919 -0.00500845 0.10034
v -0.01196 -0.00522636 0.0996636
v -0.0112919 -0.00479685 0.100924
v -0.01196 -0.00534953 0.0992654
v -0.01196 -0.00544743 0.098927
v -0.0136368 0.00872319 0.0617516
v -0.0135156 0.00838211 0.0627669
v -0.0100459 0.00502815 0.0963124
v -0.00953774 0.00368594 0.101674
v -0.00932621 0.00234372 0.103692
v -0.00925398 0.00100151 0.104362
v -0.0092514 -0.00100707 0.104362
v -0.00926172 -0.0016766 0.104362
v -0.00921529 0.000331981 0.105032
v -0.00921529 -0.000334388 0.105032
v -0.00941392 -0.00237455 0.104389
v -0.0163145 -0.00536216 0.0946202
v -0.016993 -0.00536848 0.093293
v -0.0157418 -0.00544428 0.0954696
v -0.0345191 -0.0115079 0.0451215
v -0.0349809 -0.0110847 0.0446902
v -0.0351718 -0.01087 0.0444911
v -0.0352079 -0.0110847 0.0439336
v -0.0351589 -0.0135355 0.0392817
v -0.0352053 -0.0136807 0.0386115
v -0.0135775 -0.00535269 0.0986151
v -0.0138045 -0.00543164 0.0981705
v -0.0140057 -0.00552955 0.0976861
v -0.0142534 -0.00534321 0.0979316
v -0.0148828 -0.00530532 0.0971817
v -0.0156128 -0.0053369 0.0959142
v -0.0126308 -0.00533058 0.099219
v -0.0126308 -0.00517583 0.0996636
v -0.0133324 -0.00527058 0.099
v -0.0338304 0.0154753 0.0384323
v -0.0334692 0.0155764 0.038638
v -0.0153162 0.00635773 0.0936248
v -0.0153162 0.00653459 0.0929545
v -0.0146455 0.00636089 0.094295
v -0.014016 0.00613666 0.0956952
v -0.01382 0.00606718 0.0961133
v -0.013304 0.00601349 0.0965579
v -0.013304 0.00608613 0.0962195
v -0.013304 0.00620614 0.0956421
v -0.013304 0.00632931 0.0949652
v -0.013304 0.00656301 0.0936248
v -0.0112919 0.00644932 0.094295
v -0.0109411 0.00671145 0.0926625
v -0.0102704 0.00604508 0.0960602
v -0.00957902 0.00406807 0.102152
v -0.00957644 0.00408702 0.101674
v -0.00999434 0.00502815 0.0969826
v -0.00959708 0.00406492 0.101203
v -0.00994533 0.00502815 0.0976529
v -0.035324 -0.0130838 0.0392817
v -0.0354298 -0.0104026 0.0439801
v -0.0354943 -0.0104026 0.0433099
v -0.0355329 -0.0104026 0.0426396
v -0.0355278 -0.0117416 0.039952
v -0.0355587 -0.00972673 0.0433099
v -0.0355665 -0.00972673 0.0426396
v -0.0355639 -0.0110721 0.039952
v -0.0355691 -0.00906036 0.0433099
v -0.0355691 0.00905479 0.0433099
v -0.0355665 0.0110665 0.039952
v -0.0355587 0.00972116 0.0433099
v -0.0355329 0.010397 0.0426396
v -0.0355278 0.0117361 0.039952
v -0.0345037 0.0148342 0.0382266
v -0.0352053 0.0136752 0.0386115
v -0.0350634 0.0140099 0.0386115
v -0.035324 0.0130783 0.0392817
v -0.0354943 0.010397 0.0433099
v -0.0354323 0.010397 0.0439801
v -0.0112919 -0.00418102 0.102318
v -0.0112919 -0.00448736 0.101674
v -0.0106186 -0.00401048 0.102656
v -0.0112919 -0.00400732 0.10265
v -0.0112919 -0.00466421 0.101263
v -0.0106186 -0.00347991 0.103532
v -0.0106186 -0.00380204 0.103021
v -0.00949905 -0.00216612 0.10482
v -0.00994791 -0.00257983 0.104601
v -0.00994791 -0.00289565 0.104262
v -0.0106186 -0.00290196 0.104269
v -0.0106186 -0.00323673 0.103871
v -0.01196 -0.00499582 0.10034
v -0.01196 -0.00478738 0.100891
v -0.00941134 0.00301325 0.103021
v -0.00946036 0.0030322 0.103692
v -0.00926688 0.0016742 0.104362
v -0.00929526 -0.00100707 0.105032
v -0.00929526 0.00100151 0.105032
v -0.00941134 0.000331981 0.10553
v -0.00941134 -0.000334388 0.10553
v -0.0094423 -0.0016387 0.105039
v -0.0151356 -0.00484738 0.0976529
v -0.0157109 -0.00476527 0.0967703
v -0.0163764 -0.00477159 0.0954231
v -0.0170316 -0.00476212 0.0940495
v -0.0176482 -0.00534006 0.091906
v -0.0350867 -0.010671 0.0449423
v -0.0183911 -0.00545375 0.0900678
v -0.0182931 -0.00528637 0.0905124
v -0.0352466 -0.010431 0.0446902
v -0.013304 -0.00500529 0.0996636
v -0.0136549 -0.00470527 0.100022
v -0.0142817 -0.00467684 0.099292
v -0.0150195 -0.00473685 0.0980577
v -0.0125147 -0.00474948 0.100798
v -0.0126952 -0.00487265 0.1004
v -0.0129609 -0.00469579 0.100672
v -0.0345011 0.0148342 0.0386115
v -0.0344547 0.0147805 0.0389831
v -0.033722 0.015409 0.0388769
v -0.0153213 0.00615561 0.0942884
v -0.0150995 0.00608613 0.0947927
v -0.0149266 0.00601349 0.095244
v -0.0144804 0.00609245 0.0955028
v -0.0142688 0.00602613 0.0959474
v -0.014016 0.00597244 0.0963257
v -0.013304 0.00571663 0.0976529
v -0.013304 0.00590612 0.0969826
v -0.0126308 0.00602297 0.0965911
v -0.0126308 0.00577032 0.0976529
v -0.0126308 0.00593454 0.0969826
v -0.0126308 0.00609245 0.0962593
v -0.0126308 0.00621246 0.0956421
v -0.01196 0.00633247 0.0949652
v -0.0112919 0.00633247 0.0949652
v -0.0106186 0.00607034 0.0961797
v -0.0106186 0.00576084 0.0976529
v -0.0102033 0.0054166 0.0988474
v -0.0101362 0.00548924 0.0983231
v -0.0101207 0.00475971 0.100845
v -0.00994791 0.00413755 0.102272
v -0.00994791 0.00397333 0.10261
v -0.00954806 0.00342065 0.103459
v -0.00951969 0.00352487 0.103021
v -0.0353756 -0.00972673 0.0446503
v -0.0355278 -0.00972673 0.0439801
v -0.0355407 -0.00906036 0.0439801
v -0.0355407 0.00905479 0.0439801
v -0.0355665 0.00972116 0.0426396
v -0.0355278 0.00972116 0.0439801
v -0.0347926 0.0144236 0.0386115
v -0.0351615 0.0135362 0.0392817
v -0.0349783 0.013871 0.0392817
v -0.0352105 0.0110792 0.0439336
v -0.0353782 0.00972116 0.0446503
v -0.0352466 0.0104254 0.0446902
v -0.0351718 0.0108644 0.0444977
v -0.01196 -0.00415259 0.102245
v -0.01196 -0.00443998 0.101674
v -0.01196 -0.00464842 0.10123
v -0.0112919 -0.00346727 0.103513
v -0.0112919 -0.00378941 0.103021
v -0.00957644 -0.00138605 0.105391
v -0.00994791 -0.00224507 0.10488
v -0.0106186 -0.00257983 0.104601
v -0.0106186 -0.00224507 0.10488
v -0.0112919 -0.00287986 0.104243
v -0.0112919 -0.00321462 0.103851
v -0.00950679 0.0028206 0.104183
v -0.0094165 0.00236899 0.104389
v -0.00949131 -0.00100707 0.105457
v -0.00949647 0.00216371 0.10482
v -0.0094423 0.00163314 0.105039
v -0.00948873 0.00100151 0.105464
v -0.00994791 0.000331981 0.105702
v -0.0155948 -0.00462316 0.0972149
v -0.0162707 -0.00460421 0.0958678
v -0.0157418 -0.0041747 0.0975069
v -0.0163867 -0.00415575 0.0961266
v -0.016931 -0.00455052 0.0945007
v -0.0176714 -0.00471158 0.0926426
v -0.035146 -0.0102257 0.0450817
v -0.018306 -0.00457263 0.0912026
v -0.0190206 -0.00473685 0.0893047
v -0.013304 -0.00477791 0.100181
v -0.0131467 -0.00413364 0.101528
v -0.0135955 -0.00399468 0.101296
v -0.0143669 -0.00408627 0.100088
v -0.0148776 -0.00459473 0.0985089
v -0.0137684 -0.00413364 0.100845
v -0.0150711 -0.00414628 0.0988341
v -0.0126952 -0.00459789 0.101017
v -0.0124631 -0.00409259 0.102126
v -0.0126669 -0.00423786 0.101721
v -0.0129119 -0.004001 0.101973
v -0.0350583 0.0113129 0.0441261
v -0.0346301 0.0116413 0.0446503
v -0.0344289 0.0120645 0.0442986
v -0.0176688 0.00603876 0.0906186
v -0.0169904 0.00603244 0.0919458
v -0.0163016 0.00601981 0.0932598
v -0.0157109 0.00606718 0.0940495
v -0.0146816 0.00595665 0.0956952
v -0.0144391 0.00543239 0.097487
v -0.0139748 0.00578295 0.0969826
v -0.0131364 0.00540397 0.098781
v -0.0126308 0.00543555 0.0988938
v -0.0126308 0.00559662 0.0983231
v -0.0112919 0.00602297 0.0965911
v -0.0112919 0.00609245 0.0962593
v -0.0112919 0.00593454 0.0969826
v -0.01196 0.00577663 0.0976529
v -0.01196 0.00560925 0.0983231
v -0.0112919 0.00577979 0.0976529
v -0.0112919 0.00621246 0.0956421
v -0.0106186 0.00561241 0.0983231
v -0.0106186 0.00544503 0.0989469
v -0.0106186 0.00534712 0.0992787
v -0.0106186 0.00522711 0.0996636
v -0.0106186 0.00479445 0.100938
v -0.0106186 0.00466181 0.10127
v -0.0106186 0.0050092 0.10034
v -0.0106186 0.00448811 0.101674
v -0.0106186 0.00418177 0.102338
v -0.0106186 0.00401438 0.10267
v -0.00994791 0.00375542 0.103021
v -0.00994791 0.00346487 0.103532
v -0.00994791 0.00323116 0.103864
v -0.0351899 -0.00906036 0.0452144
v -0.0353936 -0.00906036 0.0446503
v -0.0183576 -0.00412417 0.0913353
v -0.017674 -0.00344832 0.0933129
v -0.0185382 -0.0036915 0.0909438
v -0.0189587 -0.0036915 0.0898024
v -0.0353936 0.00905479 0.0446503
v -0.035146 0.0102202 0.0450817
v -0.0351899 0.00905479 0.0452144
v -0.0192785 0.00368594 0.088933
v -0.0189587 0.00368594 0.0898024
v -0.0185382 0.00368594 0.0909438
v -0.017674 0.00344276 0.0933129
v -0.0183576 0.0041186 0.0913353
v -0.0350867 0.0106654 0.0449423
v -0.0349835 0.0110792 0.0446902
v -0.01196 -0.0039631 0.102583
v -0.0118414 -0.00342306 0.103446
v -0.00994791 -0.000334388 0.105696
v -0.00994791 -0.00100707 0.105543
v -0.00994791 -0.00140816 0.105404
v -0.00994791 -0.00174292 0.105218
v -0.0106186 -0.00174292 0.105218
v -0.0112919 -0.00254509 0.104574
v -0.0112919 -0.00221033 0.104853
v -0.01196 -0.00279143 0.104136
v -0.00994791 0.00289324 0.104269
v -0.00994791 0.00257743 0.104601
v -0.00994791 0.00224266 0.104886
v -0.00957386 0.00138365 0.105391
v -0.00994791 0.00100151 0.10555
v -0.0106186 0.00100151 0.105543
v -0.0106186 0.000331981 0.105696
v -0.0106186 -0.000334388 0.105696
v -0.0149524 -0.00397889 0.0992787
v -0.0156335 -0.00398521 0.0979515
v -0.0162887 -0.00391889 0.0965712
v -0.0170239 -0.00410206 0.0947064
v -0.0176508 -0.00389678 0.0932598
v -0.0130177 -0.00339464 0.102743
v -0.0136626 -0.00337885 0.102046
v -0.0142172 -0.00392205 0.10054
v -0.0122902 -0.00335358 0.103353
v -0.0126669 -0.00386204 0.102351
v -0.0126308 -0.00350517 0.102889
v -0.0345191 0.0115024 0.0451215
v -0.016993 0.00536291 0.093293
v -0.0164332 0.00547029 0.0941756
v -0.0163171 0.0053566 0.0946268
v -0.0156154 0.00533449 0.0959208
v -0.0150324 0.00540081 0.0967371
v -0.0146558 0.00551451 0.0969694
v -0.0140083 0.00552714 0.0976861
v -0.014888 0.00530291 0.0971883
v -0.0142559 0.00533765 0.0979316
v -0.0135826 0.00535028 0.0986217
v -0.0138097 0.00542924 0.0981705
v -0.0133376 0.00526817 0.0990066
v -0.0126308 0.00491446 0.10034
v -0.0126308 0.00517658 0.0996636
v -0.0126308 0.00533133 0.0992323
v -0.01196 0.00535028 0.0992787
v -0.01196 0.00544503 0.0989469
v -0.0112919 0.00535028 0.0992853
v -0.0112919 0.00523027 0.0996636
v -0.0112919 0.00479445 0.100938
v -0.0112919 0.00466181 0.10127
v -0.0112919 0.0050092 0.10034
v -0.0112919 0.00448495 0.101674
v -0.0112919 0.00417861 0.102325
v -0.0112919 0.00400807 0.102656
v -0.0106186 0.00380595 0.103021
v -0.0106186 0.0034775 0.103539
v -0.0106186 0.00323432 0.103878
v -0.0192785 -0.0036915 0.088933
v -0.0200137 -0.0036915 0.0869157
v -0.0316815 -0.00637593 0.0548567
v -0.0316815 0.00637036 0.0548567
v -0.0162552 -0.00301882 0.0971485
v -0.0165725 -0.00301882 0.0963124
v -0.0168253 -0.00301882 0.0956421
v -0.0163971 -0.00234929 0.0968499
v -0.0176791 -0.00301882 0.0933261
v -0.0190231 0.00473444 0.0893047
v -0.0200137 0.00368594 0.0869157
v -0.0163971 0.00234372 0.0968499
v -0.0175553 0.00301325 0.0936646
v -0.0169723 0.00301325 0.095244
v -0.0168253 0.00301325 0.0956421
v -0.0165725 0.00301325 0.0963124
v -0.0162552 0.00301325 0.0971485
v -0.0176508 0.00389122 0.0932598
v -0.0182957 0.0052808 0.0905191
v -0.017674 0.00470918 0.0926426
v -0.0183937 0.00545134 0.0900744
v -0.0120245 -0.00361571 0.103081
v -0.0120245 -0.00317041 0.103678
v -0.0106186 -0.00100707 0.105543
v -0.0106186 -0.00140816 0.105404
v -0.0118259 -0.0021219 0.10478
v -0.0123341 -0.00270932 0.104057
v -0.0120142 -0.00234613 0.104508
v -0.0106186 0.00289956 0.104269
v -0.0106186 0.00257743 0.104601
v -0.0106186 0.00224266 0.104886
v -0.00994791 0.00174367 0.105218
v -0.00994791 0.00140575 0.105404
v -0.0106186 0.00140575 0.105404
v -0.0112919 0.000331981 0.105643
v -0.0112919 -0.000334388 0.105643
v -0.0143927 -0.00347359 0.100818
v -0.0142611 -0.00327778 0.10127
v -0.014955 -0.00329358 0.0999556
v -0.0157212 -0.00353675 0.0981439
v -0.0161881 -0.0036915 0.0969627
v -0.0163558 -0.00347043 0.0967304
v -0.0126308 -0.00323989 0.103227
v -0.0125869 -0.0028767 0.103672
v -0.0130383 -0.00275669 0.103433
v -0.0136678 -0.00272511 0.102723
v -0.0176482 0.00533449 0.0919126
v -0.0170342 0.00475971 0.0940495
v -0.016379 0.00476918 0.0954231
v -0.0155974 0.00462075 0.0972215
v -0.0157109 0.00476287 0.0967703
v -0.0151382 0.00484498 0.0976529
v -0.0150221 0.00473444 0.0980577
v -0.0142843 0.00467444 0.0992986
v -0.0140083 0.00526501 0.0983629
v -0.0137916 0.00478182 0.0996636
v -0.0136471 0.00469654 0.100009
v -0.0129687 0.00469339 0.100672
v -0.0126308 0.00473444 0.100772
v -0.01196 0.00478497 0.100905
v -0.01196 0.00499973 0.10034
v -0.01196 0.00522711 0.0996636
v -0.01196 0.00464601 0.101236
v -0.01196 0.00444073 0.101674
v -0.01196 0.00415019 0.102252
v -0.01196 0.0039607 0.10259
v -0.0112919 0.003787 0.103021
v -0.0112919 0.00346487 0.103519
v -0.0112919 0.00321221 0.103858
v -0.0155741 -0.0016766 0.0991128
v -0.0155741 0.0016742 0.0991128
v -0.0156722 -0.0027788 0.098708
v -0.0149834 -0.00203347 0.100679
v -0.0149911 -0.0016766 0.100699
v -0.0161004 -0.00234929 0.0976529
v -0.0170239 0.00409965 0.0947064
v -0.018306 0.00456706 0.0912026
v -0.0149911 0.0016742 0.100699
v -0.0161004 0.00234372 0.0976529
v -0.0149834 0.00202791 0.100679
v -0.0156722 0.00277323 0.0987146
v -0.0163558 0.00346487 0.0967304
v -0.0162913 0.00391332 0.0965712
v -0.0163867 0.00415334 0.0961266
v -0.01131 -0.00105129 0.105477
v -0.0110959 -0.00138605 0.105391
v -0.01131 -0.00163555 0.105218
v -0.0115421 -0.00130394 0.105357
v -0.0120142 -0.00173661 0.104946
v -0.0122748 -0.00199558 0.104687
v -0.0125869 -0.00231455 0.104196
v -0.012783 -0.00251667 0.103878
v -0.0112919 0.00287745 0.104243
v -0.0112919 0.00254269 0.104581
v -0.0112919 0.00220792 0.104853
v -0.0106186 0.00174052 0.105218
v -0.011101 0.00138365 0.105391
v -0.01131 0.00104572 0.105477
v -0.0117898 0.000853076 0.10543
v -0.011991 0.000290925 0.105464
v -0.011991 -0.000296491 0.105464
v -0.0117898 -0.000855483 0.10543
v -0.0143823 -0.00282933 0.101475
v -0.0145139 -0.00304092 0.101031
v -0.014857 -0.00305356 0.100347
v -0.0150376 -0.00284828 0.100135
v -0.0156206 -0.0032241 0.0985886
v -0.0134872 -0.0024693 0.103174
v -0.0130125 -0.00206821 0.10407
v -0.013642 -0.00202084 0.103367
v -0.0137426 -0.00228613 0.102982
v -0.0156335 0.00397964 0.0979581
v -0.0157418 0.00417229 0.0975069
v -0.0162707 0.0046018 0.0958678
v -0.014955 0.00397649 0.0992853
v -0.0148802 0.00458917 0.0985089
v -0.0143669 0.00408071 0.100095
v -0.0135981 0.00398912 0.101296
v -0.0134175 0.00457338 0.10046
v -0.0131493 0.00412808 0.101528
v -0.0129171 0.00399859 0.10198
v -0.0124682 0.00408702 0.102132
v -0.0126308 0.00457338 0.101104
v -0.0122954 0.00335117 0.103353
v -0.0120271 0.0036133 0.103088
v -0.0118491 0.00342065 0.103453
v -0.0142921 -0.000334388 0.10263
v -0.0142921 0.000331981 0.10263
v -0.0149395 -0.00248193 0.100579
v -0.0143823 -0.0016766 0.102185
v -0.0142792 -0.00100707 0.10261
v -0.0144133 -0.00100707 0.102278
v -0.0144133 0.00100151 0.102278
v -0.0149395 0.00247637 0.100579
v -0.0142792 0.00100151 0.102617
v -0.0143823 0.0016742 0.102185
v -0.0156206 0.00322169 0.0985952
v -0.0157212 0.00353435 0.0981506
v -0.011991 -0.00105129 0.105284
v -0.0124734 -0.00155028 0.10482
v -0.0126694 -0.00173661 0.104561
v -0.01196 0.00278902 0.104143
v -0.0118311 0.00211949 0.104787
v -0.01131 0.00162998 0.105218
v -0.0115473 0.00130153 0.105357
v -0.011991 0.00104572 0.105284
v -0.0122386 0.000486731 0.105344
v -0.0123057 4.14315e-05 0.105377
v -0.0123057 -4.38386e-05 0.105377
v -0.0122361 -0.000492296 0.105344
v -0.0142559 -0.00254825 0.10192
v -0.0143411 -0.00209979 0.102079
v -0.014452 -0.0023335 0.101694
v -0.0129197 -0.00124709 0.104654
v -0.0131235 -0.0016766 0.104196
v -0.0137039 -0.0016766 0.103466
v -0.0139567 -0.0016766 0.103021
v -0.0134614 -0.0016766 0.103798
v -0.0135801 -0.00114919 0.103937
v -0.0149628 0.0033038 0.0999689
v -0.0142637 0.00327538 0.10127
v -0.0143952 0.00347118 0.100825
v -0.0142172 0.00391964 0.10054
v -0.0136626 0.00337644 0.102046
v -0.0130203 0.00339223 0.102743
v -0.0126308 0.00350276 0.102895
v -0.0126669 0.00385964 0.102351
v -0.0126308 0.00323748 0.103227
v -0.0123367 0.00270691 0.104057
v -0.0120271 0.003168 0.103678
v -0.014145 -0.000334388 0.103021
v -0.014145 0.000331981 0.103021
v -0.0142276 -0.0016766 0.102517
v -0.0141012 -0.00100707 0.103021
v -0.0138561 -0.000334388 0.103692
v -0.0150376 0.00285534 0.100135
v -0.0143411 0.00210686 0.102079
v -0.0138561 0.000331981 0.103692
v -0.0141012 0.00100151 0.103021
v -0.0142276 0.0016742 0.102517
v -0.0126694 -0.00101655 0.104913
v -0.0120168 0.00234372 0.104515
v -0.0120168 0.00173104 0.104946
v -0.0122773 0.00199317 0.104687
v -0.0124734 0.00154471 0.10482
v -0.0126694 0.00101098 0.104919
v -0.0130177 0.000796229 0.104747
v -0.0125714 0.000290925 0.105165
v -0.0130693 0.000331981 0.104793
v -0.0130693 -0.000334388 0.104793
v -0.0125714 -0.000296491 0.105165
v -0.0130177 -0.000798637 0.104747
v -0.0132989 -0.000975493 0.104349
v -0.0136471 -0.000700734 0.104037
v -0.0137658 -0.000956544 0.103705
v -0.014452 0.00233425 0.101701
v -0.0142611 0.00255216 0.101933
v -0.0143849 0.00282692 0.101482
v -0.0141347 0.00303852 0.101701
v -0.0136704 0.0027227 0.102729
v -0.0134666 0.00317116 0.102497
v -0.0130409 0.00275428 0.10344
v -0.0125895 0.00287429 0.103672
v -0.012783 0.00251111 0.103884
v -0.0125895 0.00231214 0.104196
v -0.0136678 -0.000334388 0.10407
v -0.0136678 0.000331981 0.10407
v -0.0139593 0.0016742 0.103021
v -0.0136446 0.00201843 0.103367
v -0.0136471 0.000695169 0.104037
v -0.0137684 0.000954137 0.103705
v -0.0130125 0.00206581 0.104077
v -0.0126694 0.00173104 0.104561
v -0.0129197 0.00124469 0.104661
v -0.0132989 0.000969928 0.104349
v -0.0134047 0.000331981 0.104408
v -0.0134047 -0.000334388 0.104408
v -0.0134898 0.00246373 0.103174
v -0.0137065 0.0016742 0.103466
v -0.0135801 0.00114363 0.103944
v -0.0134614 0.0016742 0.103805
v -0.013126 0.0016742 0.104196
f 1 2 3
f 1 3 4
f 1 4 5
f 1 5 6
f 1 6 7
f 1 7 8
f 1 8 2
f 2 8 3
f 3 9 10
f 3 10 11
f 3 11 4
f 3 8 12
f 3 12 13
f 3 13 14
f 3 14 9
f 4 11 15
f 4 15 16
f 4 16 5
f 5 16 17
f 5 17 18
f 5 18 19
f 5 19 20
f 5 20 6
f 7 6 21
f 7 21 22
f 7 22 12
f 7 12 8
f 9 23 24
f 9 24 10
f 9 14 25
f 9 25 26
f 9 26 23
f 10 27 28
f 10 28 15
f 10 15 11
f 10 24 27
f 12 22 13
f 13 22 29
f 13 29 30
f 13 30 14
f 14 30 25
f 15 31 32
f 15 32 33
f 15 33 16
f 15 28 34
f 15 34 31
f 16 33 17
f 6 20 35
f 6 35 21
f 17 33 36
f 17 36 37
f 17 37 38
f 17 38 39
f 17 39 40
f 17 40 41
f 17 41 42
f 17 42 43
f 17 43 44
f 17 44 19
f 17 19 18
f 19 44 45
f 19 45 46
f 19 46 20
f 21 35 47
f 21 47 22
f 22 47 29
f 23 48 49
f 23 49 50
f 23 50 51
f 23 51 24
f 23 26 52
f 23 52 53
f 23 53 54
f 23 54 48
f 24 51 55
f 24 55 27
f 25 52 26
f 25 30 56
f 25 56 57
f 25 57 58
f 25 58 59
f 25 59 52
f 27 60 34
f 27 34 28
f 27 55 61
f 27 61 60
f 30 29 62
f 30 62 56
f 31 34 63
f 31 63 64
f 31 64 65
f 31 65 66
f 31 66 32
f 33 32 67
f 33 67 36
f 34 60 68
f 34 68 69
f 34 69 70
f 34 70 71
f 34 71 72
f 34 72 73
f 34 73 74
f 34 74 75
f 34 75 76
f 34 76 63
f 20 46 77
f 20 77 35
f 35 77 78
f 35 78 79
f 35 79 80
f 35 80 81
f 35 81 47
f 36 67 82
f 36 82 37
f 37 82 83
f 37 83 84
f 37 84 85
f 37 85 38
f 38 85 86
f 38 86 39
f 39 86 41
f 39 41 40
f 41 86 85
f 41 85 87
f 41 87 88
f 41 88 89
f 41 89 42
f 42 90 91
f 42 91 92
f 42 92 93
f 42 93 44
f 42 44 43
f 42 89 94
f 42 94 90
f 44 93 45
f 45 93 92
f 45 92 95
f 45 95 46
f 46 95 92
f 46 92 96
f 46 96 77
f 47 81 29
f 29 81 97
f 29 97 62
f 48 98 49
f 48 54 98
f 49 98 99
f 49 99 100
f 49 100 101
f 49 101 50
f 50 101 102
f 50 102 55
f 50 55 51
f 52 59 103
f 52 103 104
f 52 104 53
f 53 104 54
f 54 104 105
f 54 105 106
f 54 106 107
f 54 107 98
f 55 102 61
f 56 62 57
f 57 62 108
f 57 108 109
f 57 109 110
f 57 110 58
f 58 110 111
f 58 111 112
f 58 112 103
f 58 103 59
f 60 61 68
f 61 102 113
f 61 113 114
f 61 114 115
f 61 115 68
f 62 97 116
f 62 116 108
f 63 76 64
f 64 117 118
f 64 118 119
f 64 119 65
f 64 76 117
f 65 119 120
f 65 120 121
f 65 121 122
f 65 122 66
f 66 122 123
f 66 123 32
f 32 123 67
f 68 115 69
f 69 115 70
f 70 124 71
f 70 115 125
f 70 125 126
f 70 126 127
f 70 127 124
f 71 128 129
f 71 129 72
f 71 124 127
f 71 127 130
f 71 130 131
f 71 131 128
f 72 132 133
f 72 133 73
f 72 129 131
f 72 131 134
f 72 134 132
f 73 133 74
f 74 133 135
f 74 135 75
f 75 135 76
f 76 135 136
f 76 136 117
f 77 137 138
f 77 138 79
f 77 79 78
f 77 96 139
f 77 139 140
f 77 140 137
f 79 141 142
f 79 142 143
f 79 143 144
f 79 144 80
f 79 138 141
f 80 145 146
f 80 146 116
f 80 116 97
f 80 97 81
f 80 144 147
f 80 147 145
f 67 123 82
f 82 123 148
f 82 148 149
f 82 149 150
f 82 150 151
f 82 151 83
f 84 83 87
f 84 87 85
f 87 149 152
f 87 152 88
f 87 83 149
f 88 152 153
f 88 153 89
f 89 154 155
f 89 155 94
f 89 153 154
f 90 94 156
f 90 156 157
f 90 157 158
f 90 158 92
f 90 92 91
f 92 158 157
f 92 157 96
f 94 159 160
f 94 160 161
f 94 161 156
f 94 155 159
f 96 157 162
f 96 162 139
f 98 163 99
f 98 107 164
f 98 164 163
f 99 165 166
f 99 166 167
f 99 167 168
f 99 168 169
f 99 169 100
f 99 163 170
f 99 170 165
f 100 169 101
f 101 171 113
f 101 113 102
f 101 169 172
f 101 172 171
f 103 173 104
f 103 112 174
f 103 174 173
f 104 173 175
f 104 175 105
f 105 175 107
f 105 107 106
f 107 175 176
f 107 176 177
f 107 177 164
f 108 116 146
f 108 146 109
f 109 146 145
f 109 145 178
f 109 178 110
f 110 178 111
f 111 178 179
f 111 179 180
f 111 180 181
f 111 181 174
f 111 174 112
f 113 171 114
f 114 171 115
f 115 171 125
f 117 136 182
f 117 182 183
f 117 183 118
f 118 184 119
f 118 183 185
f 118 185 186
f 118 186 187
f 118 187 188
f 118 188 184
f 119 184 189
f 119 189 120
f 120 189 190
f 120 190 121
f 121 190 191
f 121 191 192
f 121 192 122
f 122 193 123
f 122 192 194
f 122 194 195
f 122 195 193
f 123 196 197
f 123 197 148
f 123 193 195
f 123 195 198
f 123 198 196
f 125 171 126
f 126 199 200
f 126 200 201
f 126 201 127
f 126 171 199
f 127 201 202
f 127 202 130
f 128 131 129
f 130 202 203
f 130 203 131
f 131 203 204
f 131 204 134
f 132 134 205
f 132 205 133
f 133 206 135
f 133 205 206
f 134 204 207
f 134 207 208
f 134 208 205
f 135 206 209
f 135 209 210
f 135 210 136
f 136 210 211
f 136 211 182
f 137 212 213
f 137 213 214
f 137 214 138
f 137 140 215
f 137 215 212
f 138 214 216
f 138 216 141
f 139 162 140
f 140 217 218
f 140 218 215
f 140 162 219
f 140 219 220
f 140 220 217
f 141 221 222
f 141 222 142
f 141 216 223
f 141 223 221
f 142 222 224
f 142 224 143
f 143 224 147
f 143 147 144
f 145 147 225
f 145 225 178
f 148 197 196
f 148 196 226
f 148 226 227
f 148 227 149
f 149 227 152
f 149 83 151
f 149 151 150
f 152 227 196
f 152 196 153
f 153 196 154
f 154 198 228
f 154 228 229
f 154 229 230
f 154 230 231
f 154 231 159
f 154 159 155
f 154 196 198
f 156 161 157
f 157 232 233
f 157 233 162
f 157 161 232
f 159 231 160
f 160 231 234
f 160 234 235
f 160 235 232
f 160 232 161
f 162 233 236
f 162 236 219
f 163 164 237
f 163 237 238
f 163 238 170
f 164 177 239
f 164 239 237
f 165 240 166
f 165 170 238
f 165 238 240
f 166 240 241
f 166 241 167
f 167 241 242
f 167 242 243
f 167 243 244
f 167 244 168
f 168 244 172
f 168 172 169
f 171 172 245
f 171 245 199
f 172 244 245
f 173 174 176
f 173 176 175
f 174 181 246
f 174 246 247
f 174 247 248
f 174 248 176
f 176 248 247
f 176 247 249
f 176 249 250
f 176 250 177
f 177 251 239
f 177 250 251
f 178 225 179
f 179 225 224
f 179 224 222
f 179 222 252
f 179 252 180
f 180 246 181
f 180 252 253
f 180 253 254
f 180 254 246
f 182 211 183
f 183 211 255
f 183 255 256
f 183 256 257
f 183 257 258
f 183 258 259
f 183 259 185
f 184 188 189
f 185 259 260
f 185 260 186
f 186 260 261
f 186 261 262
f 186 262 263
f 186 263 264
f 186 264 187
f 187 264 265
f 187 265 188
f 188 265 266
f 188 266 189
f 189 266 190
f 190 266 191
f 191 266 267
f 191 267 268
f 191 268 192
f 192 268 269
f 192 269 194
f 194 269 270
f 194 270 271
f 194 271 195
f 195 271 198
f 196 227 226
f 198 272 228
f 198 271 273
f 198 273 274
f 198 274 272
f 199 245 275
f 199 275 200
f 200 275 276
f 200 276 277
f 200 277 278
f 200 278 279
f 200 279 201
f 201 279 278
f 201 278 280
f 201 280 281
f 201 281 282
f 201 282 202
f 202 282 281
f 202 281 283
f 202 283 284
f 202 284 203
f 203 284 285
f 203 285 204
f 204 285 286
f 204 286 287
f 204 287 288
f 204 288 207
f 205 289 209
f 205 209 206
f 205 208 290
f 205 290 291
f 205 291 289
f 207 292 208
f 207 288 287
f 207 287 293
f 207 293 294
f 207 294 292
f 208 292 290
f 209 289 210
f 210 289 211
f 211 289 255
f 212 295 296
f 212 296 213
f 212 215 218
f 212 218 297
f 212 297 298
f 212 298 295
f 213 296 299
f 213 299 214
f 214 299 223
f 214 223 216
f 217 300 301
f 217 301 297
f 217 297 218
f 217 220 300
f 219 236 302
f 219 302 303
f 219 303 304
f 219 304 220
f 220 304 305
f 220 305 306
f 220 306 300
f 221 307 222
f 221 223 307
f 223 299 308
f 223 308 307
f 222 307 252
f 224 225 147
f 228 272 273
f 228 273 229
f 229 273 271
f 229 271 309
f 229 309 230
f 230 309 310
f 230 310 311
f 230 311 231
f 231 311 234
f 232 235 233
f 233 235 312
f 233 312 236
f 234 313 314
f 234 314 315
f 234 315 235
f 234 311 313
f 236 312 316
f 236 316 302
f 237 239 251
f 237 251 317
f 237 317 318
f 237 318 238
f 238 318 319
f 238 319 320
f 238 320 321
f 238 321 240
f 240 321 241
f 241 322 242
f 241 321 323
f 241 323 324
f 241 324 322
f 242 322 325
f 242 325 276
f 242 276 243
f 243 276 275
f 243 275 244
f 244 275 245
f 246 254 326
f 246 326 327
f 246 327 249
f 246 249 247
f 249 327 328
f 249 328 250
f 250 328 329
f 250 329 317
f 250 317 251
f 252 307 253
f 253 307 308
f 253 308 330
f 253 330 331
f 253 331 254
f 254 331 332
f 254 332 326
f 255 333 334
f 255 334 335
f 255 335 256
f 255 289 333
f 256 335 257
f 257 336 337
f 257 337 338
f 257 338 339
f 257 339 258
f 257 335 336
f 258 339 259
f 259 339 340
f 259 340 260
f 260 340 261
f 261 340 341
f 261 341 342
f 261 342 343
f 261 343 262
f 262 344 263
f 262 343 345
f 262 345 346
f 262 346 344
f 263 344 347
f 263 347 264
f 264 347 348
f 264 348 265
f 265 349 266
f 265 348 349
f 266 349 267
f 267 349 350
f 267 350 268
f 268 350 351
f 268 351 269
f 269 351 352
f 269 352 353
f 269 353 354
f 269 354 270
f 270 354 353
f 270 353 355
f 270 355 356
f 270 356 357
f 270 357 358
f 270 358 359
f 270 359 309
f 270 309 271
f 272 274 273
f 276 325 360
f 276 360 361
f 276 361 277
f 277 361 278
f 278 361 280
f 280 361 362
f 280 362 283
f 280 283 281
f 283 362 363
f 283 363 284
f 284 363 286
f 284 286 364
f 284 364 285
f 285 364 286
f 286 363 365
f 286 365 287
f 287 365 293
f 289 291 366
f 289 366 333
f 290 292 367
f 290 367 291
f 291 367 368
f 291 368 366
f 292 294 369
f 292 369 367
f 293 365 294
f 294 365 370
f 294 370 371
f 294 371 372
f 294 372 369
f 295 373 374
f 295 374 296
f 295 298 373
f 296 374 375
f 296 375 299
f 297 301 298
f 299 375 308
f 300 376 377
f 300 377 301
f 300 306 376
f 301 377 298
f 302 316 378
f 302 378 379
f 302 379 303
f 303 380 305
f 303 305 304
f 303 379 381
f 303 381 380
f 305 382 383
f 305 383 306
f 305 380 382
f 306 383 376
f 308 375 330
f 309 359 310
f 310 384 385
f 310 385 311
f 310 359 358
f 310 358 384
f 311 385 313
f 235 315 312
f 312 315 386
f 312 386 316
f 313 385 387
f 313 387 388
f 313 388 389
f 313 389 314
f 314 389 390
f 314 390 315
f 316 386 378
f 317 329 318
f 318 329 391
f 318 391 319
f 319 391 392
f 319 392 320
f 320 392 393
f 320 393 394
f 320 394 395
f 320 395 396
f 320 396 324
f 320 324 321
f 321 324 323
f 322 397 325
f 322 324 396
f 322 396 398
f 322 398 399
f 322 399 397
f 325 397 360
f 326 332 400
f 326 400 327
f 327 400 332
f 327 332 401
f 327 401 402
f 327 402 328
f 328 403 404
f 328 404 329
f 328 402 405
f 328 405 403
f 329 404 406
f 329 406 391
f 330 332 331
f 330 375 374
f 330 374 407
f 330 407 332
f 332 407 408
f 332 408 409
f 332 409 410
f 332 410 401
f 333 366 334
f 334 366 368
f 334 368 411
f 334 411 412
f 334 412 413
f 334 413 414
f 334 414 415
f 334 415 416
f 334 416 335
f 335 416 417
f 335 417 336
f 336 417 338
f 336 338 337
f 338 418 340
f 338 340 339
f 338 417 419
f 338 419 418
f 340 418 420
f 340 420 341
f 341 420 342
f 342 420 421
f 342 421 422
f 342 422 343
f 343 422 423
f 343 423 345
f 344 424 425
f 344 425 347
f 344 346 426
f 344 426 424
f 345 427 346
f 345 423 428
f 345 428 427
f 346 427 429
f 346 429 426
f 347 425 430
f 347 430 348
f 348 430 350
f 348 350 349
f 350 430 351
f 351 430 425
f 351 425 424
f 351 424 352
f 352 431 353
f 352 424 431
f 353 431 432
f 353 432 433
f 353 433 434
f 353 434 355
f 355 435 436
f 355 436 356
f 355 434 437
f 355 437 435
f 356 436 438
f 356 438 439
f 356 439 357
f 357 439 440
f 357 440 441
f 357 441 358
f 358 441 442
f 358 442 443
f 358 443 384
f 360 444 445
f 360 445 361
f 360 397 446
f 360 446 447
f 360 447 448
f 360 448 449
f 360 449 444
f 361 445 362
f 362 445 450
f 362 450 363
f 363 450 365
f 365 450 370
f 367 369 411
f 367 411 368
f 369 372 411
f 370 451 371
f 370 450 452
f 370 452 453
f 370 453 454
f 370 454 455
f 370 455 456
f 370 456 457
f 370 457 451
f 371 451 458
f 371 458 372
f 372 458 459
f 372 459 411
f 373 408 407
f 373 407 374
f 373 298 460
f 373 460 408
f 298 377 460
f 376 461 377
f 376 383 461
f 377 461 460
f 378 386 462
f 378 462 463
f 378 463 464
f 378 464 465
f 378 465 379
f 379 465 466
f 379 466 381
f 380 467 382
f 380 381 468
f 380 468 467
f 382 467 469
f 382 469 461
f 382 461 383
f 384 443 470
f 384 470 471
f 384 471 387
f 384 387 385
f 315 390 462
f 315 462 386
f 387 472 473
f 387 473 388
f 387 471 472
f 388 473 389
f 389 473 474
f 389 474 390
f 390 474 475
f 390 475 476
f 390 476 477
f 390 477 462
f 391 406 478
f 391 478 393
f 391 393 392
f 393 478 479
f 393 479 394
f 394 480 481
f 394 481 396
f 394 396 395
f 394 479 480
f 396 481 398
f 397 399 446
f 398 481 482
f 398 482 399
f 399 482 446
f 401 410 402
f 402 410 483
f 402 483 484
f 402 484 485
f 402 485 403
f 402 403 405
f 403 485 478
f 403 478 404
f 404 478 406
f 408 410 409
f 408 460 486
f 408 486 487
f 408 487 410
f 410 487 488
f 410 488 483
f 411 459 412
f 412 459 489
f 412 489 490
f 412 490 413
f 413 490 414
f 414 490 491
f 414 491 415
f 415 491 416
f 416 491 492
f 416 492 493
f 416 493 494
f 416 494 417
f 417 494 495
f 417 495 419
f 418 419 420
f 419 496 420
f 419 495 494
f 419 494 497
f 419 497 498
f 419 498 499
f 419 499 500
f 419 500 496
f 420 496 500
f 420 500 499
f 420 499 421
f 421 499 501
f 421 501 502
f 421 502 503
f 421 503 504
f 421 504 422
f 422 504 505
f 422 505 506
f 422 506 423
f 423 506 428
f 424 426 431
f 427 428 429
f 428 431 429
f 428 506 431
f 429 431 426
f 431 506 432
f 432 506 507
f 432 507 433
f 433 507 434
f 434 507 508
f 434 508 437
f 435 509 510
f 435 510 436
f 435 437 511
f 435 511 509
f 436 510 438
f 437 508 511
f 438 510 512
f 438 512 439
f 439 512 513
f 439 513 440
f 440 513 514
f 440 514 515
f 440 515 442
f 440 442 441
f 442 515 516
f 442 516 443
f 443 517 470
f 443 516 517
f 444 452 450
f 444 450 445
f 444 449 518
f 444 518 519
f 444 519 520
f 444 520 521
f 444 521 452
f 446 482 447
f 447 482 522
f 447 522 523
f 447 523 524
f 447 524 525
f 447 525 526
f 447 526 518
f 447 518 449
f 447 449 448
f 451 457 527
f 451 527 458
f 452 521 528
f 452 528 453
f 453 528 529
f 453 529 530
f 453 530 456
f 453 456 454
f 454 456 455
f 456 530 529
f 456 529 531
f 456 531 532
f 456 532 533
f 456 533 534
f 456 534 535
f 456 535 457
f 457 535 527
f 458 536 459
f 458 527 537
f 458 537 536
f 459 536 538
f 459 538 489
f 460 461 539
f 460 539 486
f 461 486 539
f 461 469 540
f 461 540 486
f 462 477 541
f 462 541 463
f 463 541 542
f 463 542 464
f 464 542 466
f 464 466 465
f 381 466 468
f 467 468 543
f 467 543 469
f 469 544 486
f 469 486 540
f 469 543 545
f 469 545 544
f 470 546 471
f 470 517 546
f 471 546 547
f 471 547 548
f 471 548 472
f 472 548 549
f 472 549 473
f 473 550 474
f 473 549 550
f 474 551 475
f 474 550 551
f 476 552 553
f 476 553 477
f 476 475 552
f 477 553 541
f 478 485 554
f 478 554 555
f 478 555 556
f 478 556 479
f 479 557 480
f 479 556 557
f 480 558 559
f 480 559 481
f 480 557 558
f 481 559 482
f 482 559 522
f 483 488 486
f 483 486 560
f 483 560 561
f 483 561 562
f 483 562 484
f 484 562 563
f 484 563 555
f 484 555 485
f 485 555 554
f 486 488 487
f 486 544 560
f 489 538 564
f 489 564 490
f 490 565 566
f 490 566 567
f 490 567 492
f 490 492 491
f 490 564 565
f 492 567 568
f 492 568 569
f 492 569 493
f 493 569 497
f 493 497 494
f 497 569 570
f 497 570 571
f 497 571 498
f 498 572 499
f 498 571 573
f 498 573 572
f 499 572 574
f 499 574 575
f 499 575 501
f 501 575 502
f 502 575 576
f 502 576 577
f 502 577 503
f 503 577 578
f 503 578 504
f 504 578 579
f 504 579 505
f 505 579 508
f 505 508 507
f 505 507 506
f 508 579 511
f 509 511 578
f 509 578 577
f 509 577 510
f 510 577 580
f 510 580 512
f 511 579 578
f 512 580 581
f 512 581 513
f 513 581 582
f 513 582 514
f 514 582 583
f 514 583 584
f 514 584 515
f 515 584 516
f 516 584 585
f 516 585 517
f 517 585 586
f 517 586 546
f 518 526 525
f 518 525 519
f 519 525 587
f 519 587 588
f 519 588 528
f 519 528 521
f 519 521 520
f 522 589 590
f 522 590 523
f 522 559 589
f 523 590 524
f 524 590 591
f 524 591 592
f 524 592 525
f 525 592 591
f 525 591 587
f 527 535 593
f 527 593 594
f 527 594 537
f 528 588 529
f 529 588 595
f 529 595 596
f 529 596 532
f 529 532 531
f 532 596 595
f 532 595 597
f 532 597 533
f 533 597 534
f 534 597 598
f 534 598 599
f 534 599 535
f 535 599 593
f 536 564 538
f 536 537 565
f 536 565 564
f 537 593 600
f 537 600 601
f 537 601 565
f 537 594 593
f 541 602 603
f 541 603 542
f 541 553 602
f 542 603 466
f 466 604 468
f 466 603 604
f 468 604 543
f 543 604 605
f 543 605 606
f 543 606 607
f 543 607 545
f 544 545 607
f 544 607 608
f 544 608 609
f 544 609 562
f 544 562 561
f 544 561 560
f 546 586 610
f 546 610 547
f 547 610 611
f 547 611 548
f 548 611 612
f 548 612 613
f 548 613 549
f 549 613 551
f 549 551 550
f 551 613 614
f 551 614 475
f 475 614 615
f 475 615 552
f 552 615 616
f 552 616 617
f 552 617 618
f 552 618 553
f 553 618 619
f 553 619 602
f 555 563 620
f 555 620 621
f 555 621 556
f 556 622 623
f 556 623 557
f 556 621 620
f 556 620 622
f 557 623 624
f 557 624 559
f 557 559 558
f 559 624 589
f 562 625 563
f 562 609 626
f 562 626 625
f 563 625 627
f 563 627 628
f 563 628 620
f 565 601 629
f 565 629 630
f 565 630 631
f 565 631 566
f 566 631 567
f 567 630 632
f 567 632 570
f 567 570 568
f 567 631 630
f 568 570 569
f 570 633 571
f 570 632 633
f 571 574 573
f 571 633 634
f 571 634 635
f 571 635 574
f 572 573 574
f 574 636 575
f 574 635 637
f 574 637 636
f 575 636 637
f 575 637 638
f 575 638 639
f 575 639 640
f 575 640 576
f 576 640 581
f 576 581 580
f 576 580 577
f 581 640 582
f 582 640 639
f 582 639 583
f 583 641 642
f 583 642 643
f 583 643 584
f 583 639 641
f 584 643 585
f 585 643 586
f 586 643 610
f 587 591 644
f 587 644 645
f 587 645 588
f 589 624 646
f 589 646 590
f 590 646 647
f 590 647 648
f 590 648 649
f 590 649 591
f 591 649 644
f 593 599 600
f 588 645 595
f 595 645 650
f 595 650 597
f 597 651 598
f 597 650 652
f 597 652 653
f 597 653 651
f 598 654 599
f 598 651 654
f 599 654 655
f 599 655 600
f 600 655 629
f 600 629 601
f 602 619 605
f 602 605 603
f 603 605 604
f 605 619 656
f 605 656 606
f 606 656 657
f 606 657 607
f 607 658 626
f 607 626 608
f 607 657 658
f 608 626 609
f 610 643 659
f 610 659 611
f 611 659 660
f 611 660 612
f 612 660 661
f 612 661 613
f 613 661 614
f 614 662 615
f 614 661 662
f 615 662 616
f 616 662 663
f 616 663 664
f 616 664 617
f 617 664 665
f 617 665 666
f 617 666 618
f 618 666 667
f 618 667 619
f 619 667 656
f 620 628 668
f 620 668 669
f 620 669 670
f 620 670 623
f 620 623 622
f 623 670 669
f 623 669 646
f 623 646 624
f 625 626 627
f 626 658 671
f 626 671 672
f 626 672 627
f 627 673 674
f 627 674 669
f 627 669 668
f 627 668 628
f 627 672 675
f 627 675 676
f 627 676 673
f 629 655 677
f 629 677 632
f 629 632 630
f 632 677 678
f 632 678 679
f 632 679 680
f 632 680 634
f 632 634 633
f 634 680 635
f 635 681 682
f 635 682 638
f 635 638 637
f 635 680 681
f 638 682 683
f 638 683 641
f 638 641 684
f 638 684 639
f 639 684 641
f 641 643 642
f 641 683 682
f 641 682 685
f 641 685 686
f 641 686 659
f 641 659 687
f 641 687 643
f 643 687 659
f 644 649 688
f 644 688 689
f 644 689 645
f 646 669 647
f 647 669 690
f 647 690 691
f 647 691 648
f 648 691 692
f 648 692 688
f 648 688 649
f 645 689 650
f 650 689 652
f 651 693 654
f 651 653 694
f 651 694 693
f 652 689 695
f 652 695 696
f 652 696 653
f 653 696 697
f 653 697 694
f 654 693 655
f 655 693 677
f 656 698 657
f 656 667 698
f 657 698 671
f 657 671 658
f 659 686 699
f 659 699 660
f 660 700 662
f 660 662 661
f 660 699 701
f 660 701 700
f 662 700 663
f 663 700 702
f 663 702 703
f 663 703 664
f 664 703 704
f 664 704 705
f 664 705 665
f 665 705 706
f 665 706 707
f 665 707 666
f 666 707 708
f 666 708 667
f 667 708 709
f 667 709 698
f 669 674 690
f 671 710 676
f 671 676 672
f 671 698 709
f 671 709 710
f 672 676 675
f 673 676 711
f 673 711 712
f 673 712 674
f 674 712 690
f 676 710 711
f 677 693 713
f 677 713 714
f 677 714 715
f 677 715 678
f 678 715 716
f 678 716 717
f 678 717 681
f 678 681 680
f 678 680 679
f 681 717 718
f 681 718 682
f 682 718 719
f 682 719 720
f 682 720 685
f 685 720 686
f 686 720 719
f 686 719 721
f 686 721 722
f 686 722 701
f 686 701 699
f 688 692 695
f 688 695 689
f 690 712 691
f 691 712 711
f 691 711 692
f 692 711 723
f 692 723 724
f 692 724 695
f 693 694 713
f 694 714 713
f 694 697 725
f 694 725 726
f 694 726 714
f 695 724 727
f 695 727 696
f 696 727 728
f 696 728 697
f 697 728 725
f 700 701 702
f 701 722 729
f 701 729 730
f 701 730 702
f 702 730 731
f 702 731 703
f 703 731 704
f 704 706 705
f 704 731 732
f 704 732 727
f 704 727 733
f 704 733 706
f 706 733 734
f 706 734 707
f 707 734 709
f 707 709 708
f 709 734 711
f 709 711 710
f 711 734 723
f 714 716 715
f 714 726 717
f 714 717 716
f 717 726 735
f 717 735 719
f 717 719 718
f 719 735 729
f 719 729 721
f 721 729 722
f 723 734 733
f 723 733 724
f 725 736 726
f 725 728 736
f 726 736 737
f 726 737 738
f 726 738 729
f 726 729 735
f 724 733 727
f 727 737 728
f 727 732 737
f 728 737 736
f 729 738 739
f 729 739 731
f 729 731 730
f 731 739 737
f 731 737 732
f 737 739 738
