# https://github.com/mikedh/trimesh
mtllib material.mtl

o body2272276-mesh
usemtl material_0
v 0.00216253 0.02404697 0.00000340
v 0.01793963 0.01609945 0.00001623
v 0.00000000 0.00000000 0.00000000
v -0.02361499 0.00459770 0.00000301
v -0.01476629 0.01908848 0.00001447
v 0.02315869 0.00626582 0.00001506
v 0.02209113 -0.00879821 -0.00000031
v -0.02003811 -0.01322012 0.00001550
v 0.01265528 -0.02029201 -0.00000435
v -0.00398608 -0.02379994 0.00000967
v -0.01322732 -0.01992532 0.00001862
v -0.00673937 0.02312636 0.00052827
v 0.00341891 0.02413688 0.00229823
v -0.00726199 0.02301781 0.00229731
v 0.01107544 0.02138684 0.00051308
v 0.01613836 0.01822976 0.00231079
v -0.01523579 0.01883157 0.00229648
v -0.02083311 0.01209519 0.00053264
v -0.02278070 0.00871025 0.00230495
v 0.02263817 0.00837655 0.00229693
v -0.02399814 -0.00364317 0.00056589
v 0.02418282 -0.00051332 0.00230314
v 0.02410887 -0.00276842 0.00059365
v -0.02399423 -0.00447198 0.00228897
v 0.02189517 -0.00999138 0.00230253
v 0.01875192 -0.01565233 0.00048674
v -0.01928215 -0.01459511 0.00229676
v 0.01702035 -0.01711633 0.00229693
v -0.01261872 -0.02057720 0.00229694
v 0.00959858 -0.02219064 0.00230297
v 0.00781774 -0.02301689 0.00052735
v -0.00194232 -0.02426526 0.00229431
v -0.01370893 0.02874303 0.00230021
v -0.00183449 0.03201516 0.00230640
v 0.01198907 0.02963006 0.00229486
v 0.02109215 0.02390175 0.00230045
v -0.02678983 0.01704020 0.00230000
v -0.02188533 0.02317946 0.00230040
v 0.02748923 0.01607469 0.00230021
v -0.03150893 0.00572997 0.00230577
v 0.03120385 0.00648303 0.00230160
v -0.03120999 -0.00632997 0.00230018
v 0.03143367 -0.00654801 0.00230494
v -0.02756372 -0.01597172 0.00230337
v -0.02053862 -0.02436433 0.00230122
v 0.02576284 -0.01871741 0.00230004
v -0.00885593 -0.03082114 0.00230467
v 0.01857798 -0.02589091 0.00230154
v 0.00682477 -0.03138296 0.00230398
v -0.00577353 0.03217698 -0.00100000
v 0.00264274 0.03265282 -0.00092278
v -0.01326058 0.02996180 -0.00092632
v 0.01281598 0.03027119 -0.00101303
v -0.02230517 0.02413006 -0.00096884
v 0.01976307 0.02604061 -0.00100000
v 0.02559662 0.02055450 -0.00110532
v -0.02758368 0.01754516 -0.00100000
v -0.03122534 0.01013222 -0.00096684
v 0.02977506 0.01349584 -0.00100000
v 0.03233458 0.00594676 -0.00098517
v -0.03282483 0.00169452 -0.00122565
v -0.03229869 -0.00588083 -0.00096998
v 0.03271620 -0.00255996 -0.00115505
v 0.03096785 -0.01095040 -0.00097216
v -0.02977506 -0.01349584 -0.00100000
v -0.02576938 -0.02033757 -0.00102740
v 0.02603401 -0.01998097 -0.00094698
v -0.01600834 -0.02882585 -0.00108828
v 0.01850563 -0.02709826 -0.00093816
v 0.00600253 -0.03249373 -0.00084135
v -0.00498714 -0.03230820 -0.00100000
v -0.00908411 0.03244502 -0.00041554
v 0.00224170 0.03360554 -0.00055196
v 0.01272087 0.03122599 -0.00043701
v -0.01855520 0.02811873 -0.00062128
v 0.01975534 0.02713323 -0.00046632
v -0.02455386 0.02284036 -0.00038829
v 0.02588494 0.02158692 -0.00049724
v -0.02938397 0.01656155 -0.00059508
v 0.03024961 0.01457968 -0.00048801
v -0.03316931 0.00598587 -0.00028770
v 0.03292939 0.00706558 -0.00041504
v 0.03351214 -0.00099295 -0.00030258
v -0.03318911 -0.00534125 -0.00033497
v -0.03087124 -0.01325551 -0.00059488
v 0.03226626 -0.00956718 -0.00039397
v 0.02861195 -0.01771428 -0.00059028
v -0.02689466 -0.02015094 -0.00033108
v -0.02005661 -0.02707658 -0.00050926
v 0.02425198 -0.02327050 -0.00055299
v 0.01622177 -0.02955162 -0.00046449
v -0.01142130 -0.03162294 -0.00054781
v 0.00626182 -0.03302616 -0.00043452
v -0.00278688 -0.03349506 -0.00059331
v -0.00348050 0.03156978 0.00516066
v 0.00417755 0.03150865 0.00513319
v -0.01407468 0.02872128 0.00500886
v 0.01308983 0.02900965 0.00511741
v 0.01928840 0.02520266 0.00509457
v -0.02234715 0.02272905 0.00489466
v 0.02504605 0.01968742 0.00506834
v -0.02763903 0.01576128 0.00509334
v 0.02868273 0.01368793 0.00507530
v -0.03143155 0.00600845 0.00511210
v 0.03136131 0.00561089 0.00513696
v -0.03153684 -0.00450685 0.00511261
v 0.03169774 -0.00198854 0.00508153
v 0.03025224 -0.01001570 0.00508878
v -0.02939918 -0.01198835 0.00505696
v -0.02581705 -0.01869836 0.00510130
v 0.02722725 -0.01640663 0.00503088
v -0.01911168 -0.02547841 0.00509053
v 0.01996426 -0.02492286 0.00552036
v -0.01217293 -0.02941053 0.00497446
v -0.00382579 -0.03165825 0.00514276
v 0.00959931 -0.03045176 0.00495499
v 0.00390453 -0.03204556 0.00425223
v -0.00093627 0.03187488 0.00843097
v -0.01340922 0.02861460 0.00851869
v 0.01214004 0.02919976 0.00842650
v 0.02223000 0.02270060 0.00843461
v -0.02188345 0.02295656 0.00848979
v -0.02806282 0.01461587 0.00849763
v 0.02869043 0.01300423 0.00850000
v 0.03108519 0.00529289 0.00899368
v -0.03136186 0.00440196 0.00845932
v 0.03118509 -0.00611682 0.00845336
v -0.03051512 -0.00899549 0.00849385
v 0.02657888 -0.01690603 0.00850000
v -0.02454555 -0.01993288 0.00843100
v 0.02006309 -0.02466193 0.00838286
v -0.01769885 -0.02586047 0.00899422
v -0.01195331 -0.02924357 0.00846688
v 0.00829121 -0.03053223 0.00848724
v -0.00185901 -0.03161965 0.00851913
v 0.00000000 0.00000000 0.00900000
v 0.01601022 0.02668081 0.00900019
v -0.01168481 0.02901204 0.00900071
v -0.02193410 0.02207007 0.00900019
v 0.02562011 0.01812879 0.00899964
v -0.02937159 0.01088224 0.00900139
v -0.03099601 -0.00415157 0.00900068
v 0.02944287 -0.01087352 0.00899999
v 0.01199367 -0.02888832 0.00900061
v 0.02193410 -0.02207007 0.00900019
v 0.00335503 0.03122522 0.00900029
v -0.02562020 -0.01812866 0.00899965
v -0.00319191 -0.03120942 0.00900190
f 1 2 3
f 3 4 5
f 6 3 2
f 7 3 6
f 8 4 3
f 3 9 10
f 11 8 3
f 7 9 3
f 12 13 1
f 14 13 12
f 13 15 1
f 5 14 12
f 13 16 15
f 17 14 5
f 16 2 15
f 18 17 5
f 19 17 18
f 20 6 2
f 16 20 2
f 4 19 18
f 21 19 4
f 22 23 6
f 20 22 6
f 24 19 21
f 22 25 23
f 8 24 21
f 25 26 23
f 27 24 8
f 25 28 26
f 11 27 8
f 29 27 11
f 30 31 26
f 28 30 26
f 10 29 11
f 32 29 10
f 30 32 31
f 32 10 31
f 14 33 34
f 13 14 34
f 35 13 34
f 16 13 35
f 33 14 17
f 36 16 35
f 17 37 38
f 39 16 36
f 19 37 17
f 19 40 37
f 20 16 39
f 41 20 39
f 22 20 41
f 24 40 19
f 24 42 40
f 43 22 41
f 43 25 22
f 24 27 44
f 45 44 27
f 43 46 25
f 46 28 25
f 29 45 27
f 47 45 29
f 46 48 28
f 48 30 28
f 32 47 29
f 48 49 30
f 49 32 30
f 49 47 32
f 34 50 51
f 34 52 50
f 35 34 51
f 53 35 51
f 34 33 52
f 33 54 52
f 53 55 35
f 33 38 54
f 56 36 55
f 38 37 57
f 39 36 56
f 37 58 57
f 59 39 56
f 37 40 58
f 41 39 59
f 60 41 59
f 40 61 58
f 40 62 61
f 43 41 60
f 63 43 60
f 40 42 62
f 64 43 63
f 42 65 62
f 44 66 65
f 42 44 65
f 46 43 64
f 67 46 64
f 45 68 66
f 44 45 66
f 48 46 67
f 69 48 67
f 45 47 68
f 49 48 69
f 70 49 69
f 47 71 68
f 47 70 71
f 47 49 70
f 50 72 73
f 51 50 73
f 53 51 73
f 74 53 73
f 52 72 50
f 52 75 72
f 55 53 74
f 76 55 74
f 54 75 52
f 54 77 75
f 76 78 55
f 54 79 77
f 57 79 54
f 59 56 78
f 80 59 78
f 58 79 57
f 58 81 79
f 80 82 59
f 58 61 81
f 82 83 60
f 62 84 61
f 62 85 84
f 86 64 63
f 65 85 62
f 87 64 86
f 66 85 65
f 87 67 64
f 66 88 85
f 66 89 88
f 90 67 87
f 68 89 66
f 90 69 67
f 91 69 90
f 68 92 89
f 91 70 69
f 93 70 91
f 71 92 68
f 71 94 92
f 94 70 93
f 70 94 71
f 84 81 61
f 72 95 73
f 95 96 73
f 97 95 72
f 96 74 73
f 75 97 72
f 96 98 74
f 98 99 76
f 77 100 75
f 100 97 75
f 99 101 78
f 102 100 77
f 101 103 80
f 104 102 79
f 103 105 82
f 106 104 81
f 105 107 83
f 107 108 86
f 109 106 84
f 110 109 85
f 108 111 87
f 111 90 87
f 112 110 88
f 111 113 90
f 113 91 90
f 114 112 89
f 94 115 92
f 115 114 92
f 116 93 91
f 113 116 91
f 116 117 93
f 93 117 94
f 117 115 94
f 116 115 117
f 95 118 96
f 97 119 95
f 118 120 96
f 120 98 96
f 100 119 97
f 120 121 98
f 121 99 98
f 122 119 100
f 121 101 99
f 102 122 100
f 123 122 102
f 121 124 101
f 124 103 101
f 104 123 102
f 125 105 124
f 126 123 104
f 106 126 104
f 125 127 105
f 127 107 105
f 128 126 106
f 127 108 107
f 109 128 106
f 110 128 109
f 127 129 108
f 129 111 108
f 130 128 110
f 131 113 129
f 112 130 110
f 114 132 112
f 132 130 112
f 133 132 114
f 134 116 131
f 115 133 114
f 135 133 115
f 134 135 116
f 135 115 116
f 136 137 138
f 139 136 138
f 136 140 137
f 141 142 139
f 136 143 140
f 136 132 144
f 136 142 132
f 145 143 136
f 144 145 136
f 5 12 1
f 15 2 1
f 4 18 5
f 23 7 6
f 8 21 4
f 23 26 7
f 26 9 7
f 26 31 9
f 31 10 9
f 119 138 118
f 138 146 118
f 146 120 118
f 146 137 120
f 122 138 119
f 137 121 120
f 139 138 122
f 137 140 121
f 123 139 122
f 141 139 123
f 140 124 121
f 126 141 123
f 140 125 124
f 128 142 126
f 142 141 126
f 125 143 127
f 130 147 128
f 147 142 128
f 143 129 127
f 143 145 129
f 145 131 129
f 132 147 130
f 145 144 131
f 144 134 131
f 135 148 133
f 148 132 133
f 144 148 134
f 148 135 134
f 83 86 63
f 1 3 5
f 3 10 11
f 33 17 38
f 24 44 42
f 55 36 35
f 38 57 54
f 78 56 55
f 82 60 59
f 83 63 60
f 98 76 74
f 99 78 76
f 102 77 79
f 101 80 78
f 104 79 81
f 103 82 80
f 106 81 84
f 105 83 82
f 107 86 83
f 109 84 85
f 110 85 88
f 108 87 86
f 112 88 89
f 114 89 92
f 119 118 95
f 105 103 124
f 113 111 129
f 116 113 131
f 137 146 138
f 142 136 139
f 143 125 140
f 132 148 144
f 142 147 132

