v -0.034 0.048 0.052
v -0.06 0.036 -0.062
v 0.006 0.105 -0.014
v -0.042 0.012 0.04
v 0.046 0.044 0.026
v -0.061 0.097 0.012
v 0.007 0.097 -0.035
v -0.047 0.011 -0.035
v 0.014 0.097 0.033
v 0.033 0.012 0.003
v 0.018 0.033 0.046
v -0.072 0.044 0.027
v 0.02 0.047 -0.062
v 0.035 0.097 -0.005
v -0.049 0.1 -0.024
v 0.039 0.031 -0.062
v -0.033 0.097 0.035
v 0.008 0.011 -0.036
v 0.001 0.033 0.049
v 0.006 0.048 0.052
v 0.04 0.03 0.027
v 0.016 0.012 0.029
v -0.052 0.045 0.046
v -0.079 0.043 -0.01
v 0.018 0.097 -0.031
v -0.049 0.047 -0.062
v 0.033 0.097 0.013
v -0.041 0.105 0.004
v -0.036 0.1 -0.031
v -0.069 0.013 -0.036
v 0.049 0.031 -0.004
v -0.033 0.012 0.042
v 0.032 0.012 -0.01
v 0.007 0.011 -0.036
v 0.023 0.045 0.047
v 0.003 0.099 0.034
v 0.013 0.044 0.051
v -0.035 0.045 0.052
v 0.029 0.012 0.017
v 0.025 0.03 0.041
v -0.061 0.031 0.035
v -0.046 0.048 0.048
v -0.046 0.097 0.03
v -0.079 0.048 0.004
v -0.058 0.098 -0.016
v 0.029 0.042 -0.062
v 0.026 0.098 -0.024
v 0.006 0.1 -0.032
v -0.034 0.097 -0.035
v -0.046 0.097 -0.03
v 0.025 0.098 0.025
v 0.052 0.048 0.004
v 0.033 0.1 0.003
v -0.035 0.105 -0.012
v -0.064 0.032 -0.052
v -0.053 0.012 0.024
v 0.048 0.03 0.009
v -0.047 0.011 -0.034
v 0.009 0.029 0.047
v 0.025 0.012 -0.022
v 0.048 0.031 -0.01
v -0.032 0.104 0.019
v 0.018 0.048 0.048
v -0.032 0.033 0.049
v -0.037 0.033 0.048
v 0.034 0.031 0.034
v 0.024 0.033 0.043
v -0.064 0.044 0.037
v -0.054 0.033 0.041
v -0.076 0.048 0.018
v -0.073 0.028 0.013
v -0.077 0.048 -0.014
v -0.062 0.097 0
v -0.059 0.1 -0.006
v 0.022 0.046 -0.062
v 0.033 0.097 -0.013
v 0.035 0.037 -0.062
v 0.02 0.1 -0.026
v -0.052 0.046 -0.062
v -0.055 0.097 -0.022
v 0.048 0.049 0.021
v 0.014 0.1 0.029
v 0.034 0.048 0.039
v 0.035 0.097 0.004
v 0.026 0.1 0.019
v -0.067 0.029 0.027
v 0.049 0.031 -0.003
v 0.046 0.032 0.018
v 0.003 0.011 -0.035
v 0.007 0.031 0.048
v 0.053 0.044 -0.004
v -0.031 0.1 0.032
v 0.013 0.105 0.004
v -0.054 0.101 0.017
v -0.048 0.033 0.044
v 0.035 0.033 0.035
v -0.059 0.048 0.041
v -0.069 0.048 0.031
v -0.06 0.029 0.035
v -0.057 0.033 0.039
v -0.076 0.032 0.006
v -0.077 0.044 0.015
v -0.061 0.097 -0.009
v -0.059 0.1 0.005
v 0.031 0.1 -0.012
v 0.051 0.044 0.011
v 0.004 0.104 0.019
v -0.068 0.028 0.024
v -0.071 0.033 0.023
v -0.068 0.033 0.028
v 0.044 0.032 0.022
v 0.051 0.048 -0.01
v 0.049 0.032 0.005
v -0.042 0.1 0.029
v -0.054 0.098 0.022
v 0.035 0.032 0.034
v 0.039 0.033 0.03
v 0.035 0.045 0.039
v 0.027 0.033 0.041
v 0.034 0.032 0.035
v -0.079 0.044 0.004
v -0.076 0.032 -0.004
v -0.075 0.032 0.012
v 0.018 0.103 -0.012
v -0.07 0.032 0.024
f 20 17 1
f 30 16 8
f 30 2 16
f 32 18 22
f 33 10 18
f 33 31 10
f 34 8 16
f 34 16 18
f 36 20 9
f 36 17 20
f 37 20 19
f 37 11 35
f 38 20 1
f 38 19 20
f 39 22 18
f 39 18 10
f 42 1 17
f 42 38 1
f 42 23 38
f 43 42 17
f 43 23 42
f 46 7 25
f 48 25 7
f 48 29 3
f 49 7 13
f 49 13 26
f 49 48 7
f 49 29 48
f 50 15 29
f 50 29 49
f 54 3 29
f 54 29 15
f 55 30 24
f 55 24 2
f 55 2 30
f 57 39 10
f 58 32 4
f 58 4 56
f 58 56 30
f 58 30 8
f 59 32 22
f 59 40 11
f 59 22 40
f 59 11 37
f 60 33 18
f 60 18 16
f 60 16 33
f 61 33 16
f 61 31 33
f 63 37 35
f 63 35 9
f 63 9 20
f 63 20 37
f 64 32 19
f 64 19 38
f 65 38 23
f 65 64 38
f 65 4 32
f 65 32 64
f 66 39 21
f 66 40 22
f 66 22 39
f 67 35 11
f 67 11 40
f 70 6 44
f 71 30 56
f 72 45 2
f 72 2 24
f 72 24 44
f 73 44 6
f 73 72 44
f 74 15 45
f 74 54 15
f 74 28 54
f 75 13 7
f 75 7 46
f 76 16 47
f 77 46 25
f 77 25 47
f 77 47 16
f 78 47 25
f 78 25 48
f 78 48 3
f 79 50 49
f 79 26 13
f 79 49 26
f 79 77 16
f 79 16 2
f 79 13 75
f 79 75 46
f 79 46 77
f 80 45 15
f 80 15 50
f 80 2 45
f 80 79 2
f 80 50 79
f 81 27 51
f 82 36 9
f 82 9 51
f 83 51 9
f 83 9 35
f 83 81 51
f 83 5 81
f 84 52 14
f 84 53 27
f 84 14 53
f 84 81 52
f 84 27 81
f 85 51 27
f 85 27 53
f 85 82 51
f 86 56 4
f 87 57 10
f 87 10 31
f 88 21 39
f 88 39 57
f 89 18 32
f 89 32 58
f 89 34 18
f 89 58 8
f 89 8 34
f 90 19 32
f 90 32 59
f 90 59 37
f 90 37 19
f 91 31 61
f 91 61 16
f 91 87 31
f 91 14 52
f 92 17 36
f 93 54 28
f 93 3 54
f 93 85 53
f 94 62 28
f 95 65 23
f 95 4 65
f 95 69 4
f 95 23 69
f 97 68 23
f 97 23 43
f 98 12 68
f 98 68 97
f 98 70 12
f 98 6 70
f 99 86 4
f 99 41 86
f 100 68 41
f 100 69 23
f 100 23 68
f 100 41 99
f 100 99 4
f 100 4 69
f 101 30 71
f 102 12 70
f 102 70 44
f 103 45 72
f 103 72 73
f 103 74 45
f 103 73 74
f 104 74 73
f 104 73 6
f 104 6 94
f 104 94 28
f 104 28 74
f 105 53 14
f 105 14 76
f 105 76 47
f 105 47 78
f 105 93 53
f 106 52 81
f 106 81 5
f 106 91 52
f 106 57 91
f 106 88 57
f 106 5 88
f 107 36 82
f 107 92 36
f 107 62 92
f 107 93 28
f 107 28 62
f 107 82 85
f 107 85 93
f 108 71 56
f 108 56 86
f 109 12 102
f 109 71 108
f 110 68 12
f 110 86 41
f 110 41 68
f 110 12 109
f 111 88 5
f 111 5 21
f 111 21 88
f 112 91 16
f 112 16 76
f 112 76 14
f 112 14 91
f 113 91 57
f 113 57 87
f 113 87 91
f 114 43 17
f 114 17 92
f 114 92 62
f 114 62 94
f 115 94 6
f 115 6 98
f 115 114 94
f 115 43 114
f 115 98 97
f 115 97 43
f 116 66 21
f 116 21 96
f 117 96 21
f 117 21 5
f 117 5 96
f 118 96 5
f 118 5 83
f 118 83 35
f 118 35 67
f 119 67 40
f 119 40 96
f 119 118 67
f 119 96 118
f 120 96 40
f 120 40 66
f 120 116 96
f 120 66 116
f 121 44 24
f 121 24 101
f 121 102 44
f 122 101 24
f 122 24 30
f 122 30 101
f 123 101 71
f 123 121 101
f 123 102 121
f 123 109 102
f 123 71 109
f 124 105 78
f 124 78 3
f 124 3 93
f 124 93 105
f 125 109 108
f 125 108 86
f 125 110 109
f 125 86 110
