v -0.079 -0.044 -0.006
v 0.053 -0.044 0
v -0.03 -0.1 0.032
v 0.002 -0.097 -0.035
v -0.033 -0.034 0.049
v -0.058 -0.1 -0.011
v 0.027 -0.1 0.018
v 0.041 -0.031 -0.062
v -0.071 -0.048 0.028
v 0.008 -0.047 0.052
v 0.006 -0.106 0
v -0.059 -0.037 -0.062
v 0.034 -0.098 -0.009
v 0.043 -0.033 0.023
v -0.072 -0.033 0.022
v -0.048 -0.048 0.048
v -0.055 -0.097 0.021
v 0.007 -0.097 0.035
v -0.031 -0.1 -0.033
v -0.039 -0.105 0.008
v -0.075 -0.048 -0.02
v 0.021 -0.046 -0.062
v 0.022 -0.097 -0.028
v 0.051 -0.048 -0.01
v 0.033 -0.097 0.012
v 0.019 -0.104 -0.004
v 0.049 -0.032 0.004
v 0.009 -0.034 0.049
v 0.037 -0.048 0.037
v -0.078 -0.044 0.011
v -0.063 -0.031 -0.059
v -0.035 -0.045 0.052
v -0.061 -0.045 0.04
v -0.042 -0.098 0.031
v 0.006 -0.101 0.032
v -0.045 -0.098 -0.03
v -0.06 -0.1 0.002
v -0.036 -0.104 -0.016
v -0.062 -0.097 -0.003
v -0.049 -0.047 -0.062
v 0.028 -0.097 -0.021
v 0.029 -0.042 -0.062
v 0.034 -0.099 0.004
v 0.02 -0.103 0.011
v 0.009 -0.104 -0.019
v 0.049 -0.044 0.02
v -0.053 -0.03 -0.038
v 0.03 -0.033 0.039
v 0.019 -0.098 0.03
v -0.076 -0.033 0.007
v -0.072 -0.044 0.027
v -0.061 -0.097 0.011
v -0.011 -0.031 -0.062
v -0.058 -0.097 -0.017
v -0.048 -0.034 0.045
v -0.034 -0.048 0.052
v -0.05 -0.098 0.027
v -0.033 -0.097 0.035
v 0.006 -0.104 0.019
v -0.047 -0.104 -0.003
v -0.024 -0.105 -0.008
v -0.041 -0.1 -0.03
v -0.079 -0.048 -0.006
v -0.034 -0.097 -0.035
v -0.052 -0.046 -0.062
v 0.035 -0.037 -0.062
v 0.012 -0.097 -0.033
v 0.052 -0.048 0.007
v 0.031 -0.1 -0.011
v 0.009 -0.1 -0.032
v 0.042 -0.044 0.031
v 0.028 -0.097 0.022
v 0.013 -0.03 -0.038
v 0.022 -0.045 0.047
v 0.022 -0.048 0.047
v 0.017 -0.1 0.028
v -0.076 -0.033 -0.005
v -0.064 -0.031 -0.041
v -0.078 -0.048 0.01
v -0.061 -0.034 0.036
v -0.062 -0.031 -0.06
v -0.051 -0.1 -0.022
v -0.052 -0.097 -0.025
v -0.058 -0.048 0.042
v -0.055 -0.1 0.016
v -0.046 -0.101 0.025
v -0.033 -0.103 0.02
v 0.021 -0.1 -0.025
v 0.046 -0.048 0.024
v 0.033 -0.045 0.041
v 0.041 -0.031 -0.053
v -0.064 -0.031 -0.044
f 24 13 8
f 24 8 2
f 24 2 13
f 27 2 8
f 31 21 1
f 32 28 5
f 32 10 28
f 39 6 37
f 40 22 4
f 41 23 8
f 41 8 13
f 43 25 7
f 44 11 26
f 44 43 7
f 44 26 43
f 45 26 11
f 45 38 19
f 46 27 14
f 46 2 27
f 48 14 27
f 48 5 28
f 48 47 15
f 48 15 5
f 49 18 35
f 50 30 15
f 50 1 30
f 50 15 47
f 51 15 30
f 51 9 33
f 52 17 9
f 52 39 37
f 54 21 31
f 54 31 12
f 54 39 21
f 54 6 39
f 55 32 5
f 55 16 32
f 55 33 16
f 55 5 15
f 56 18 10
f 56 10 32
f 56 32 16
f 57 9 17
f 57 34 16
f 58 35 18
f 58 3 35
f 58 18 56
f 58 34 3
f 58 56 16
f 58 16 34
f 59 20 11
f 59 11 44
f 60 37 6
f 60 38 20
f 61 11 20
f 61 20 38
f 61 45 11
f 61 38 45
f 62 19 38
f 63 1 21
f 63 21 39
f 63 30 1
f 64 40 4
f 64 4 19
f 64 19 62
f 64 62 36
f 65 64 36
f 65 40 64
f 66 8 23
f 66 23 42
f 66 53 8
f 66 42 22
f 66 65 12
f 66 12 53
f 66 22 40
f 66 40 65
f 67 42 23
f 67 22 42
f 68 43 13
f 68 13 2
f 68 2 46
f 68 46 25
f 68 25 43
f 69 43 26
f 69 13 43
f 69 26 45
f 69 41 13
f 70 45 19
f 70 19 4
f 70 67 23
f 70 4 22
f 70 22 67
f 71 46 14
f 71 14 48
f 72 29 49
f 72 49 7
f 72 7 25
f 73 48 27
f 73 47 48
f 73 53 47
f 73 8 53
f 74 48 28
f 74 28 10
f 75 10 18
f 75 18 49
f 75 74 10
f 76 49 35
f 76 7 49
f 76 35 59
f 76 59 44
f 76 44 7
f 77 31 1
f 77 1 50
f 78 50 47
f 79 51 30
f 79 9 51
f 79 52 9
f 79 30 63
f 79 63 39
f 79 39 52
f 80 51 33
f 80 15 51
f 80 55 15
f 80 33 55
f 81 53 12
f 81 12 31
f 81 31 47
f 81 47 53
f 82 6 54
f 82 36 62
f 82 62 38
f 82 60 6
f 82 38 60
f 83 54 12
f 83 65 36
f 83 12 65
f 83 82 54
f 83 36 82
f 84 33 9
f 84 9 57
f 84 57 16
f 84 16 33
f 85 57 17
f 85 17 52
f 85 52 37
f 85 60 20
f 85 37 60
f 86 85 20
f 86 57 85
f 86 3 34
f 86 34 57
f 87 59 35
f 87 35 3
f 87 20 59
f 87 86 20
f 87 3 86
f 88 23 41
f 88 41 69
f 88 70 23
f 88 69 45
f 88 45 70
f 89 71 29
f 89 46 71
f 89 29 72
f 89 72 25
f 89 25 46
f 90 71 48
f 90 29 71
f 90 48 74
f 90 74 75
f 90 75 49
f 90 49 29
f 91 73 27
f 91 27 8
f 91 8 73
f 92 50 78
f 92 78 47
f 92 47 31
f 92 31 77
f 92 77 50
