v 0.045679 -0.044059 -0.30946
v 0.046462 -0.0442 -0.311391
v 0.047178 -0.044102 -0.313304
v 0.030557 -0.031997 -0.342628
v 0.025452 -0.031751 -0.343638
v 0.03433 -0.031744 -0.341717
v -0.026551 -0.027499 -0.272309
v -0.026115 -0.027461 -0.271939
v -0.023997 -0.029854 -0.27743
v -0.027411 -0.026537 -0.270771
v -0.028022 -0.025149 -0.269006
v -0.028255 -0.023512 -0.266719
v -0.026605 -0.026702 -0.27008
v -0.039748 -0.034196 -0.089248
v -0.0402 -0.032748 -0.091409
v -0.039574 -0.03521 -0.087495
v -0.044006 0.00922 -0.124828
v -0.044092 0.009023 -0.122824
v -0.043769 0.00926 -0.126947
v 0.047975 -0.043678 -0.316723
v 0.04792 -0.044121 -0.316743
v 0.048231 -0.04382 -0.320776
v 0.047639 -0.044808 -0.317766
v 0.047438 -0.042539 -0.317693
v 0.047224 -0.042228 -0.323691
v 0.047705 -0.044085 -0.315283
v 0.047642 -0.042767 -0.325348
v 0.047688 -0.044494 -0.323633
v 0.047523 -0.043206 -0.326856
v 0.046711 -0.044663 -0.313016
v 0.047424 -0.043821 -0.326485
v 0.046999 -0.043693 -0.312481
v 0.045746 -0.045187 -0.328123
v 0.046969 -0.045356 -0.321542
v 0.046837 -0.041181 -0.328469
v 0.046668 -0.042622 -0.313661
v 0.046997 -0.042221 -0.328643
v 0.046131 -0.043492 -0.330284
v 0.04566 -0.045075 -0.311197
v 0.045251 -0.038404 -0.331293
v 0.045391 -0.044543 -0.309591
v 0.045447 -0.039067 -0.329416
v 0.045225 -0.042535 -0.309893
v 0.042522 -0.047308 -0.314414
v 0.042874 -0.047302 -0.323503
v 0.045461 -0.039445 -0.331956
v 0.045469 -0.043575 -0.30906
v 0.044402 -0.043565 -0.333198
v 0.043779 -0.037241 -0.334588
v 0.043393 -0.036121 -0.334172
v 0.042211 -0.045252 -0.334019
v 0.03923 -0.047501 -0.33085
v 0.041982 -0.043579 -0.336168
v 0.042523 -0.035585 -0.334003
v 0.041912 -0.035381 -0.336781
v 0.031848 -0.043615 -0.285142
v 0.031744 -0.044557 -0.286015
v 0.040878 -0.033671 -0.337228
v 0.038788 -0.049025 -0.319711
v 0.038379 -0.048919 -0.315991
v 0.039151 -0.033238 -0.339263
v 0.03819 -0.048632 -0.326884
v 0.039502 -0.043183 -0.338529
v 0.038662 -0.04511 -0.337716
v 0.039221 -0.032599 -0.338977
v 0.038052 -0.032064 -0.338231
v 0.021393 -0.048802 -0.285387
v 0.038853 -0.032288 -0.338635
v 0.039751 -0.010944 0.061391
v 0.039508 -0.000937 0.062316
v 0.039559 -0.001183 0.063156
v 0.039671 -0.021391 0.057866
v 0.039568 -0.018177 0.05877
v 0.039299 -0.017189 0.060301
v 0.039628 -0.026676 0.054676
v 0.039475 -0.024861 0.054946
v 0.039357 -0.031133 0.051009
v 0.039652 -0.03426 0.046474
v 0.03957 -0.037022 0.039709
v 0.039641 -0.037362 0.040878
v 0.039511 -0.029001 0.051466
v 0.039476 -0.044763 -0.041294
v 0.039578 -0.044025 -0.048467
v 0.03967 -0.042708 -0.010097
v 0.039543 -0.032788 0.047216
v 0.039431 -0.04067 0.02799
v 0.039632 -0.03926 0.035303
v 0.03967 -0.039387 0.031156
v 0.039212 -0.04492 -0.055439
v 0.039407 -0.043175 -0.003442
v 0.039236 -0.022033 0.058249
v 0.039303 -0.006771 0.062765
v 0.038894 -0.011344 0.059685
v 0.038666 -0.000471 0.060943
v 0.03874 -0.017095 0.057783
v 0.038999 0.002108 0.063109
v 0.038731 -0.02165 0.05578
v 0.039128 -0.012287 0.061893
v 0.038672 -0.025899 0.05288
v 0.036105 -0.044228 -0.340229
v 0.036186 -0.04262 -0.340746
v 0.03851 -0.029098 0.049716
v 0.0383 -0.033021 0.044453
v 0.038502 -0.036038 0.03884
v 0.038261 -0.037524 0.032747
v 0.038219 -0.038566 0.024652
v 0.038255 -0.041877 -0.024535
v 0.038445 -0.042763 -0.048185
v 0.038254 -0.040364 0.002911
v 0.034856 -0.042066 0.040562
v 0.036133 -0.038953 0.044731
v 0.033412 -0.030896 0.05745
v 0.035628 -0.026433 0.058601
v 0.033234 -0.00491 0.066076
v 0.036308 -0.045368 -0.106919
v 0.03711 -0.04467 -0.091898
v 0.038037 0.002968 0.061821
v 0.038227 0.004411 0.063825
v 0.034193 -0.049136 -0.055496
v 0.037165 0.005858 0.065007
v 0.03365 -0.045175 -0.340598
v 0.036216 -0.032378 -0.341042
v 0.038106 -0.015604 0.058052
v 0.038303 -0.010837 0.059287
v 0.037449 -0.03204 -0.339838
v 0.038062 -0.021389 0.05553
v 0.036648 -0.045821 -0.093074
v 0.0381 -0.006795 0.06002
v 0.037973 -0.025393 0.052817
v 0.036115 -0.043498 -0.093707
v 0.037474 -0.042736 -0.059202
v 0.037722 -0.035812 0.038881
v 0.030102 -0.042103 -0.283696
v 0.03271 -0.04844 -0.333639
v 0.03659 0.007418 0.064825
v 0.036389 0.006533 0.0627
v 0.032584 -0.049082 -0.330685
v 0.030492 -0.049249 -0.107674
v 0.034599 -0.043175 -0.109034
v 0.033674 -0.044931 0.032749
v 0.034434 -0.032781 -0.341933
v 0.033472 -0.048092 -0.003876
v 0.032555 -0.037569 0.051647
v 0.03344 -0.049658 -0.038917
v 0.032172 -0.033848 0.055878
v 0.03281 -0.022005 0.06272
v 0.032793 0.010911 0.067355
v 0.032381 -0.015026 0.064981
v 0.032975 -0.043358 -0.342068
v 0.032501 -0.044545 -0.171399
v 0.026458 -0.047035 -0.285557
v 0.033052 -0.045752 -0.157287
v 0.034679 0.009691 0.065929
v 0.033825 0.009953 0.064268
v 0.018724 -0.04905 -0.285969
v 0.035745 0.006379 0.062457
v 0.03053 -0.032787 -0.343244
v 0.028664 -0.000374 0.068301
v 0.031571 -0.042404 0.045379
v 0.032685 0.011331 0.066486
v 0.031399 -0.043059 -0.175825
v 0.029251 -0.0301 0.060758
v 0.03051 -0.051472 -0.054
v 0.031512 0.011023 0.064711
v 0.026288 -0.049367 -0.155281
v 0.030406 0.01274 0.067756
v 0.030674 0.012332 0.065685
v 0.029262 -0.043777 -0.342989
v 0.028666 0.012834 0.069161
v 0.027575 -0.045343 -0.341974
v 0.02785 -0.052804 -0.057211
v 0.028928 -0.046508 0.039085
v 0.028971 -0.04779 0.031803
v 0.028557 -0.050811 -0.001744
v 0.027095 -0.044257 -0.266925
v 0.027096 -0.043604 -0.264878
v 0.029449 -0.051968 -0.037548
v 0.026667 -0.04478 -0.267239
v 0.028463 -0.025121 0.063694
v 0.028676 -0.017492 0.06611
v 0.029354 -0.043658 -0.279424
v 0.029801 -0.044581 -0.28195
v 0.027357 -0.048662 -0.334593
v 0.025077 -0.010228 0.068676
v 0.026399 -0.042396 -0.265222
v 0.025659 -0.041993 -0.266346
v 0.026929 -0.032487 -0.343772
v 0.024877 -0.047547 -0.337825
v 0.026786 -0.045806 0.044499
v 0.027499 -0.040595 0.052388
v 0.024658 -0.036032 0.059065
v 0.02714 0.013383 0.066631
v 0.027158 0.013872 0.067397
v 0.027896 -0.04459 -0.275709
v 0.021973 -0.047196 -0.266906
v 0.027593 0.013712 0.069131
v 0.020392 -0.048326 -0.275552
v 0.025859 -0.044477 -0.342936
v 0.025956 -0.042903 -0.343491
v 0.027918 -0.041833 -0.279886
v 0.02776 -0.042092 -0.277218
v 0.023422 0.013573 0.070954
v 0.027943 -0.043807 -0.273653
v 0.024047 -0.05141 -0.126212
v 0.021219 -0.048928 -0.333341
v 0.027249 -0.043465 -0.269638
v 0.025899 0.014101 0.069344
v 0.02653 -0.042159 -0.270728
v 0.016571 -0.04905 -0.329883
v 0.019786 -0.050598 0.037705
v 0.022438 -0.045197 0.049548
v 0.021863 -0.048064 0.044258
v 0.020055 -0.043558 0.053598
v 0.022549 -0.027389 0.06533
v 0.019815 -0.018101 0.068993
v 0.022401 -0.053248 -0.001694
v 0.023673 -0.03279 -0.343857
v 0.022866 -0.03206 -0.343308
v 0.020218 -0.055604 -0.037925
v 0.026078 -0.041925 -0.273294
v 0.02317 0.004019 0.070394
v 0.020614 -0.055531 -0.056154
v 0.019172 0.014612 0.07207
v 0.017853 0.015197 0.071782
v 0.021997 -0.042717 -0.34335
v 0.022304 -0.044901 -0.342535
v 0.020289 -0.049913 -0.198322
v 0.024781 -0.032019 -0.342399
v 0.018441 -0.048713 -0.264441
v 0.018436 0.014657 0.069279
v 0.015496 -0.050955 -0.192411
v 0.019011 -0.031999 -0.341691
v 0.015189 0.007353 0.072527
v 0.014551 0.015591 0.070769
v 0.019562 -0.032781 -0.343263
v 0.016906 -0.032089 -0.342093
v 0.014553 -0.049358 0.046908
v 0.017351 -0.041104 0.057562
v 0.014911 -0.036976 0.062136
v 0.014882 -0.031717 0.065495
v 0.014848 -0.025746 0.068091
v 0.015078 -0.01073 0.071187
v 0.015754 -0.055218 -0.004694
v 0.018935 -0.045141 -0.34158
v 0.01863 -0.043206 -0.342619
v 0.015718 -0.056737 -0.056718
v 0.015248 -0.047482 -0.335054
v 0.003224 -0.049132 -0.276563
v 0.015672 -0.032803 -0.342013
v 0.016252 -0.049128 -0.263476
v 0.01489 -0.045211 -0.339982
v 0.015252 -0.043409 -0.341337
v 0.012818 -0.048364 -0.329994
v 0.014222 0.015032 0.073109
v 0.012904 -0.031972 -0.338963
v 0.011757 -0.052212 0.038474
v 0.009751 -0.046478 0.053646
v 0.009762 -0.042464 0.058492
v 0.012151 -0.019212 0.070342
v 0.010055 -0.055146 0.008236
v 0.009915 -0.057637 -0.037846
v 0.008852 -0.057897 -0.053793
v 0.008263 -0.055859 -0.104703
v 0.008868 0.005963 0.073336
v 0.012323 -0.044432 -0.339241
v 0.012059 -0.04291 -0.339649
v 0.01197 -0.032759 -0.34005
v 0.009891 -0.032091 -0.338059
v 0.007722 -0.045347 -0.334111
v 0.004198 -0.05063 -0.22686
v 0.008241 0.015912 0.073393
v 0.008306 0.015279 0.073972
v 0.009498 -0.044436 -0.337063
v 0.000112 -0.048962 -0.298936
v 0.008931 -0.04269 -0.337258
v 0.007004 -0.050493 0.047272
v 0.005288 -0.052825 0.039485
v 0.004625 -0.038148 0.063067
v 0.004614 -0.032798 0.06649
v 0.004603 -0.026738 0.069133
v 0.004595 -0.019801 0.071062
v 0.004967 -0.011345 0.07234
v 0.001246 -0.0567 -0.003973
v 0.007305 -0.031969 -0.333974
v 0.008281 -0.032868 -0.337176
v 0.002976 0.015634 0.074286
v 0.006701 -0.043399 -0.334749
v 0.000537 0.016252 0.072169
v 0.001127 0.007697 0.073873
v 0.005678 -0.032113 -0.333519
v -0.004998 -0.048559 -0.296276
v 0.005015 -0.0328 -0.333229
v 0.005056 -0.044598 -0.331374
v -0.000453 -0.050842 0.047465
v -0.000416 -0.047085 0.053995
v -0.000411 -0.043041 0.058884
v -0.000656 -0.053412 0.035822
v -0.000389 -0.058491 -0.048724
v 0.004544 -0.043179 -0.331673
v -0.008905 -0.046901 -0.298197
v -0.000475 -0.056441 -0.101527
v -0.000133 0.01612 0.073711
v -0.018817 -0.031927 -0.289112
v -0.008853 -0.045321 -0.305391
v -0.005784 -0.048613 -0.289989
v -0.0102 -0.044171 -0.30521
v -0.014626 -0.042704 -0.298213
v -0.006722 -0.048886 -0.268359
v -0.002037 0.015602 0.074321
v -0.008267 -0.052639 0.038958
v -0.005288 -0.03809 0.063034
v -0.005299 -0.032745 0.06645
v -0.00531 -0.026692 0.069089
v -0.005316 -0.019768 0.071017
v -0.005051 -0.011363 0.072329
v -0.008455 -0.056205 -0.003651
v -0.007708 0.015088 0.074054
v -0.007888 -0.050322 -0.22347
v -0.019938 -0.032177 -0.288984
v -0.018162 -0.032894 -0.292748
v -0.00844 0.015844 0.073521
v -0.011366 0.015778 0.071315
v -0.003363 0.01567 0.071386
v -0.010568 -0.055326 -0.109739
v -0.009438 -0.057877 -0.048716
v -0.009873 -0.050137 0.047178
v -0.009859 -0.046398 0.053655
v -0.00986 -0.04239 0.058492
v -0.00934 -0.04805 -0.287914
v -0.010882 0.015302 0.070692
v -0.01168 -0.047517 -0.282198
v -0.016705 -0.054719 -0.002732
v -0.012513 0.014732 0.07346
v -0.016503 -0.051236 0.038076
v -0.014043 -0.037006 0.062248
v -0.014052 -0.030393 0.066329
v -0.015356 -0.022842 0.068878
v -0.014099 -0.017301 0.070415
v -0.014436 -0.009821 0.071366
v -0.014275 -0.044289 -0.296446
v -0.012887 -0.046885 -0.286421
v -0.014423 -0.048809 -0.226814
v -0.019544 0.014908 0.069526
v -0.016458 0.015192 0.072307
v -0.015017 -0.046327 -0.279188
v -0.019744 -0.055628 -0.053685
v -0.019807 -0.055508 -0.037441
v -0.01797 -0.048408 0.046488
v -0.017974 -0.044703 0.052827
v -0.017981 -0.040783 0.05753
v -0.019596 -0.053457 -0.104001
v -0.016364 -0.045367 -0.281619
v -0.020048 0.014332 0.071844
v -0.022635 0.005052 0.070594
v -0.016323 -0.043354 -0.293141
v -0.016769 -0.045367 -0.275551
v -0.019344 -0.043753 -0.273701
v -0.018632 -0.041883 -0.289681
v -0.019552 -0.039931 -0.28961
v -0.022887 -0.052886 -0.002286
v -0.022624 -0.049361 0.037641
v -0.022504 -0.035766 0.060107
v -0.022043 -0.029954 0.064039
v -0.022317 -0.024268 0.066395
v -0.022266 -0.017551 0.068295
v -0.02231 -0.009452 0.069534
v -0.020174 -0.042452 -0.278314
v -0.026209 0.013919 0.069483
v -0.022053 -0.031417 -0.283412
v -0.027757 -0.052348 -0.061087
v -0.021033 -0.040036 -0.285281
v -0.022267 -0.042456 -0.256738
v -0.023781 -0.039506 -0.267155
v -0.024261 -0.046848 0.044119
v -0.027106 -0.043439 0.048282
v -0.027196 -0.039806 0.053376
v -0.023827 -0.031066 -0.281154
v -0.023907 -0.035624 -0.281688
v -0.02407 -0.036898 -0.279855
v -0.024222 -0.03172 -0.281376
v -0.029473 -0.047783 -0.121975
v -0.023655 -0.02984 -0.276624
v -0.020911 -0.031249 -0.282684
v -0.021075 -0.0312 -0.282782
v -0.027528 0.013141 0.066387
v -0.016404 0.014772 0.069723
v -0.026913 0.013733 0.067328
v -0.028254 0.012949 0.069207
v -0.030993 -0.04367 -0.151596
v -0.030271 -0.051268 -0.040889
v -0.026514 -0.034856 -0.269173
v -0.029642 -0.050164 -0.004276
v -0.030019 -0.047443 0.028189
v -0.029668 -0.046414 0.036589
v -0.029571 -0.034322 0.057168
v -0.029684 -0.028681 0.061151
v -0.030337 -0.023118 0.063409
v -0.030694 -0.017153 0.065163
v -0.032249 -0.010405 0.06578
v -0.029027 -0.002244 0.067922
v -0.02625 -0.029872 -0.276793
v -0.026574 -0.033173 -0.27577
v -0.02817 -0.029438 -0.27337
v -0.026978 -0.035433 -0.260205
v -0.026601 -0.027526 -0.272412
v -0.025332 -0.028817 -0.27496
v -0.024564 -0.029423 -0.274329
v -0.026191 -0.028027 -0.273243
v -0.028986 0.013152 0.068174
v -0.031892 -0.050035 -0.057745
v -0.02975 -0.026776 -0.269645
v -0.028356 -0.027541 -0.271863
v -0.029894 -0.027225 -0.268828
v -0.027297 -0.026537 -0.270788
v -0.029447 -0.030764 -0.257685
v -0.032202 -0.043428 0.042079
v -0.039022 -0.035162 -0.106248
v -0.03023 0.01247 0.066111
v -0.029913 -0.024985 -0.268362
v -0.037596 -0.039371 -0.101417
v -0.03556 -0.043512 -0.097386
v -0.029289 -0.022854 -0.266548
v -0.030323 -0.019516 -0.263779
v -0.029051 -0.021659 -0.264581
v -0.03312 -0.048956 -0.017817
v -0.03124 0.011602 0.065156
v -0.033407 -0.04774 -0.077664
v -0.034695 -0.046085 -0.082695
v -0.033216 0.010292 0.067052
v -0.031674 0.011786 0.067034
v -0.034064 -0.025427 0.06026
v -0.032315 -0.019707 -0.26361
v -0.031305 -0.015381 -0.260527
v -0.032855 -0.030857 0.057729
v -0.033238 -0.036383 0.052244
v -0.03474 -0.038754 0.047506
v -0.033366 -0.044771 0.034366
v -0.033616 -0.046237 0.019938
v -0.031581 -0.017081 -0.262127
v -0.032507 -0.02334 -0.254053
v -0.033236 0.010326 0.064806
v -0.033185 -0.019159 -0.262084
v -0.036789 0.005388 0.065159
v -0.034351 -0.04866 -0.044497
v -0.032923 -0.012637 -0.259219
v -0.033462 0.010453 0.065999
v -0.034503 -0.048172 -0.056008
v -0.033234 -0.008098 -0.25633
v -0.033765 0.008909 0.063548
v -0.036005 -0.040793 0.041438
v -0.041606 -0.029186 -0.096327
v -0.03421 -0.013839 -0.259726
v -0.03508 -0.015836 -0.248562
v -0.036378 -0.04637 -0.016468
v -0.034352 -0.006218 -0.255991
v -0.035304 0.008663 0.065261
v -0.035604 -0.01106 -0.257148
v -0.035763 -0.005477 -0.255643
v -0.039351 -0.011739 0.06174
v -0.039067 -0.015821 0.060852
v -0.035648 0.007348 0.063155
v -0.034643 -6.7e-05 -0.252902
v -0.039353 -0.019542 0.059205
v -0.038986 -0.025036 0.056645
v -0.038988 -0.030114 0.05247
v -0.035486 -0.009574 -0.257328
v -0.036557 0.006821 0.065088
v -0.036943 -0.042488 0.031868
v -0.036605 0.004417 0.061852
v -0.035441 -0.000335 -0.253457
v -0.043091 -0.022326 -0.101189
v -0.037013 -0.045724 -0.052547
v -0.036156 -0.042385 -0.033931
v -0.03707 -0.04121 -0.032922
v -0.03359 -0.045248 -0.033892
v -0.035699 0.002523 -0.251625
v -0.035621 0.004944 -0.249043
v -0.03716 -3.4e-05 -0.253238
v -0.036925 -0.036197 -0.084431
v -0.036736 -0.038965 -0.068724
v -0.034441 -0.043308 -0.064236
v -0.037088 -0.04254 -0.084947
v -0.037374 -0.005703 -0.244707
v -0.036338 0.005447 -0.248635
v -0.037547 0.002329 -0.251644
v -0.037457 0.005422 0.064057
v -0.039271 -0.004406 0.063018
v -0.042152 -0.002533 -0.124782
v -0.037378 0.004252 -0.250005
v -0.036731 0.007443 -0.245421
v -0.036074 0.007324 -0.245205
v -0.03753 0.003951 0.062262
v -0.037682 0.000235 -0.252436
v -0.036808 0.008503 -0.242577
v -0.036294 0.008652 -0.240374
v -0.042405 -0.012887 -0.144558
v -0.037627 0.005869 -0.247983
v -0.036863 -0.041209 -0.015942
v -0.036763 -0.040625 0.003165
v -0.036414 -0.041116 0.001391
v -0.037158 0.009045 -0.240025
v -0.039015 -0.034495 0.047277
v -0.038241 0.007655 -0.244734
v -0.037191 0.009198 -0.236428
v -0.039349 -0.036995 0.04211
v -0.039273 -0.039094 0.036896
v -0.039345 -0.04033 0.029636
v -0.039154 -0.042131 0.009787
v -0.038774 0.0019 0.063678
v -0.039329 -0.043125 -0.023985
v -0.037382 -0.038551 -0.068859
v -0.038493 0.00894 -0.240074
v -0.037514 -0.032815 0.045189
v -0.037003 -0.031223 0.047803
v -0.03692 -0.035088 0.04191
v -0.037432 -0.040453 -0.05194
v -0.036914 -0.040925 -0.048725
v -0.037546 -0.036906 -0.079963
v -0.037705 -0.035953 -0.083695
v -0.038047 -0.034342 -0.087809
v -0.039488 -0.037916 -0.083248
v -0.03826 -0.030841 -0.093162
v -0.038039 -0.032663 -0.090641
v -0.037655 -0.040284 0.001511
v -0.039403 -0.042509 -0.047533
v -0.038899 0.009043 -0.236882
v -0.037995 -0.041022 -0.01188
v -0.037885 -0.041222 -0.037232
v -0.037999 -0.027762 0.051163
v -0.037014 -0.027896 0.051342
v -0.037826 0.000257 0.060909
v -0.037379 -0.024843 0.053595
v -0.039315 -0.040975 -0.065116
v -0.038608 0.002288 0.063022
v -0.038299 0.001454 0.061726
v -0.038175 -0.035029 0.041873
v -0.037253 -0.036362 0.038334
v -0.037983 -0.030519 0.048326
v -0.038399 0.005008 -0.248312
v -0.038172 -0.017997 0.057342
v -0.037358 -0.017984 0.057454
v -0.037671 -0.021296 0.055703
v -0.038335 -0.02499 0.053717
v -0.038054 -0.038959 0.024753
v -0.037197 -0.038584 0.027946
v -0.037806 -0.03827 0.029614
v -0.037983 -0.040418 -0.054889
v -0.038227 -0.037215 0.036663
v -0.037263 -0.037445 0.034498
v -0.03748 -0.01424 0.058672
v -0.038489 -0.014632 0.058644
v -0.038776 0.00848 -0.241876
v -0.037851 -0.0084 0.059895
v -0.039291 -0.037857 -0.079575
v -0.03914 -0.036457 -0.084079
v -0.039252 -0.040149 -0.063505
v -0.039257 -0.041693 -0.048527
v -0.038303 -0.033042 0.045497
v -0.043248 0.008974 -0.12682
v -0.038561 -0.009564 0.059918
v -0.039218 -0.042126 -0.036639
v -0.039185 -0.042088 -0.017522
v -0.038585 -0.001319 0.061005
v -0.03885 0.007178 -0.244421
v -0.038517 -0.032703 -0.090558
v -0.03853 -0.021202 0.056314
v -0.039108 -0.041439 0.00018
v -0.038499 -0.033516 -0.089423
v -0.039183 -0.040044 0.024271
v -0.039276 -0.039233 0.03242
v -0.039145 -0.036966 0.040172
v -0.039136 -0.033287 0.046767
v -0.039362 -0.001006 0.062561
v -0.03915 -0.027576 0.053048
v -0.03903 -0.030284 -0.093531
v -0.039105 -0.030435 -0.093387
v -0.039436 -0.023746 0.056398
v -0.040111 -0.032694 -0.091397
v -0.038837 -0.031581 -0.092074
v -0.040427 -0.034027 -0.090633
v -0.039306 -0.017714 0.059111
v -0.03928 0.00842 -0.239369
v -0.039353 -0.01048 0.061162
v -0.042367 -0.001734 -0.173745
v -0.040368 -0.031384 -0.092933
v -0.042381 0.008636 -0.189285
v -0.039387 -0.031863 0.049746
v -0.039627 -0.02632 -0.097123
v -0.040082 -0.026769 -0.096799
v -0.041115 -0.028332 -0.095913
v -0.039803 -0.036115 -0.086533
v -0.045697 0.009095 -0.124832
v -0.042399 -0.023496 -0.099461
v -0.040678 -0.01957 -0.101737
v -0.041598 -0.01941 -0.101485
v -0.040782 -0.030073 -0.094365
v -0.041149 -0.02948 -0.095149
v -0.04325 0.000855 -0.111112
v -0.042755 -0.020402 -0.101188
v -0.041951 -0.011262 -0.10603
v -0.04254 -0.011248 -0.105319
v -0.044906 -0.011682 -0.106027
v -0.04393 -0.012986 -0.104775
v -0.045231 -0.004377 -0.11888
v -0.046236 0.008205 -0.123169
v -0.043657 0.000631 -0.110281
v -0.044028 -0.001774 -0.109064
v -0.045191 -0.001302 -0.109373
v -0.044119 0.000682 -0.110289
v -0.04332 0.008667 -0.122687
v -0.043985 0.009012 -0.122822
v -0.043516 0.004902 -0.114312
v -0.044291 0.003529 -0.1125
v -0.0443 0.008328 -0.119885
v -0.043609 0.007768 -0.118915
v -0.044405 0.005453 -0.114573
v -0.044983 0.008944 -0.122796
v -0.044339 0.007087 -0.117125
v -0.045878 -0.001203 -0.109736
v -0.046278 0.001471 -0.111654
v -0.04548 0.001258 -0.110826
v -0.045459 0.008281 -0.120161
v -0.045583 0.004143 -0.113252
v -0.045867 0.007343 -0.117966
v -0.045548 0.005941 -0.115479
v -0.046142 0.008337 -0.121288
v -0.046363 0.00536 -0.115463
f 1 2 3
f 4 5 6
f 7 8 9
f 10 11 7
f 11 12 13
f 14 15 16
f 17 18 19
f 20 21 22
f 21 23 22
f 24 20 22
f 25 24 22
f 26 21 20
f 27 25 22
f 23 28 22
f 29 27 22
f 28 29 22
f 21 30 23
f 31 29 28
f 20 32 26
f 32 3 26
f 24 32 20
f 3 30 21
f 33 31 28
f 34 28 23
f 35 27 29
f 24 36 32
f 37 35 29
f 37 29 31
f 34 33 28
f 38 37 31
f 30 39 23
f 32 30 3
f 32 2 30
f 40 27 35
f 2 41 30
f 42 25 27
f 36 43 32
f 40 42 27
f 33 38 31
f 44 45 34
f 37 46 35
f 46 40 35
f 23 44 34
f 38 46 37
f 47 1 32
f 39 44 23
f 1 41 32
f 41 2 32
f 43 47 32
f 41 39 30
f 45 33 34
f 48 46 38
f 33 48 38
f 49 40 46
f 49 50 40
f 48 49 46
f 51 48 33
f 45 52 33
f 52 51 33
f 53 49 48
f 50 54 40
f 54 42 40
f 53 55 49
f 51 53 48
f 56 1 47
f 56 57 1
f 55 58 49
f 58 50 49
f 57 41 1
f 57 39 41
f 59 45 44
f 57 44 39
f 60 59 44
f 53 61 55
f 59 62 45
f 62 52 45
f 58 54 50
f 63 61 53
f 64 63 53
f 51 64 53
f 55 65 58
f 61 65 55
f 58 66 54
f 67 60 44
f 52 64 51
f 65 68 58
f 68 66 58
f 69 70 71
f 72 73 69
f 74 72 69
f 75 76 72
f 75 77 78
f 79 78 80
f 81 76 75
f 78 81 75
f 82 83 84
f 85 81 78
f 86 84 87
f 88 79 80
f 79 85 78
f 72 76 73
f 80 87 88
f 82 89 83
f 86 90 84
f 90 82 84
f 72 91 75
f 87 84 88
f 74 91 72
f 71 92 69
f 93 94 70
f 69 93 70
f 73 93 69
f 95 93 73
f 96 71 70
f 97 95 73
f 76 97 73
f 69 98 74
f 99 97 76
f 92 98 69
f 81 99 76
f 100 101 63
f 102 99 81
f 85 102 81
f 103 102 85
f 79 103 85
f 104 103 79
f 105 104 79
f 88 105 79
f 106 105 88
f 107 84 83
f 108 107 83
f 107 109 84
f 109 88 84
f 109 106 88
f 80 110 87
f 111 110 80
f 78 111 80
f 94 96 70
f 75 112 77
f 91 113 75
f 113 112 75
f 64 100 63
f 71 114 92
f 115 116 89
f 116 83 89
f 94 117 96
f 118 71 96
f 119 89 82
f 118 120 71
f 63 101 61
f 117 118 96
f 121 100 64
f 116 108 83
f 122 65 61
f 93 123 124
f 122 125 65
f 43 56 47
f 97 126 95
f 95 123 93
f 119 127 89
f 128 94 93
f 125 68 65
f 124 128 93
f 99 129 97
f 125 66 68
f 120 114 71
f 102 129 99
f 129 126 97
f 126 123 95
f 101 122 61
f 130 108 116
f 108 131 107
f 104 132 103
f 105 132 104
f 133 56 43
f 130 131 108
f 62 134 52
f 135 120 118
f 52 134 64
f 127 115 89
f 136 135 118
f 117 136 118
f 59 137 62
f 119 138 127
f 130 139 131
f 87 140 86
f 110 140 87
f 140 90 86
f 101 141 122
f 137 134 62
f 140 142 90
f 142 82 90
f 78 143 111
f 142 144 82
f 134 121 64
f 77 143 78
f 144 119 82
f 145 143 77
f 112 145 77
f 91 146 113
f 4 66 125
f 74 146 91
f 147 114 120
f 98 148 74
f 148 146 74
f 100 149 101
f 115 150 116
f 92 114 98
f 114 148 98
f 121 149 100
f 151 44 57
f 127 152 115
f 150 130 116
f 153 120 135
f 153 147 120
f 136 154 135
f 154 153 135
f 138 152 127
f 155 137 59
f 156 154 136
f 157 122 141
f 157 4 122
f 4 125 122
f 158 114 147
f 111 159 110
f 160 147 153
f 143 159 111
f 150 161 130
f 149 141 101
f 113 162 112
f 144 163 119
f 154 160 153
f 146 162 113
f 156 164 154
f 161 139 130
f 138 165 152
f 166 147 160
f 149 157 141
f 154 167 160
f 164 167 154
f 151 67 44
f 121 168 149
f 169 158 147
f 170 168 121
f 163 171 119
f 171 138 119
f 110 172 140
f 159 172 110
f 172 173 140
f 173 174 140
f 174 142 140
f 175 150 115
f 152 175 115
f 174 144 142
f 175 176 150
f 174 177 144
f 178 175 152
f 177 163 144
f 134 170 121
f 67 155 60
f 155 59 60
f 146 179 162
f 168 157 149
f 180 179 146
f 181 182 56
f 182 57 56
f 148 180 146
f 137 183 134
f 166 169 147
f 133 181 56
f 114 184 148
f 184 180 148
f 167 166 160
f 185 186 161
f 158 184 114
f 187 4 157
f 188 170 134
f 183 188 134
f 182 151 57
f 189 172 159
f 190 189 159
f 143 190 159
f 145 191 143
f 191 190 143
f 177 171 163
f 162 191 145
f 112 162 145
f 192 193 167
f 194 182 181
f 195 178 152
f 165 195 152
f 176 161 150
f 196 169 166
f 193 196 166
f 167 193 166
f 194 197 182
f 197 151 182
f 198 199 168
f 170 198 168
f 200 201 133
f 201 181 133
f 202 158 169
f 168 187 157
f 199 187 168
f 203 194 181
f 185 161 176
f 201 203 181
f 204 165 138
f 171 204 138
f 137 205 183
f 206 175 203
f 193 207 196
f 201 208 203
f 175 194 203
f 175 178 194
f 208 206 203
f 209 205 137
f 178 197 194
f 176 175 206
f 172 210 173
f 211 212 189
f 190 211 189
f 213 211 190
f 191 213 190
f 214 191 162
f 179 214 162
f 180 214 179
f 215 214 180
f 184 215 180
f 210 216 173
f 216 174 173
f 208 176 206
f 217 218 187
f 200 208 201
f 219 177 174
f 216 219 174
f 218 4 187
f 208 185 176
f 220 208 200
f 195 197 178
f 202 221 158
f 219 171 177
f 219 222 171
f 186 185 208
f 223 169 196
f 223 202 169
f 220 186 208
f 199 217 187
f 224 223 196
f 207 224 196
f 225 217 199
f 226 225 199
f 198 226 199
f 204 227 165
f 222 204 171
f 170 226 198
f 218 228 4
f 229 195 165
f 221 184 158
f 197 67 151
f 226 170 188
f 205 188 183
f 189 210 172
f 212 210 189
f 230 193 192
f 222 231 204
f 218 232 228
f 227 229 165
f 233 221 202
f 193 224 207
f 234 224 193
f 235 236 218
f 217 235 218
f 235 217 225
f 231 227 204
f 229 197 195
f 211 237 212
f 213 237 211
f 191 238 213
f 239 238 191
f 214 240 191
f 240 239 191
f 241 240 214
f 215 241 214
f 184 242 215
f 221 242 184
f 243 216 210
f 244 245 226
f 245 225 226
f 243 219 216
f 188 244 226
f 219 246 222
f 247 188 205
f 230 234 193
f 233 242 221
f 247 244 188
f 223 233 202
f 245 235 225
f 248 137 155
f 246 231 222
f 237 210 212
f 236 232 218
f 235 249 236
f 250 155 67
f 250 229 227
f 245 249 235
f 250 67 197
f 251 245 244
f 251 252 245
f 251 244 247
f 253 205 209
f 231 250 227
f 253 247 205
f 229 250 197
f 224 254 223
f 236 255 232
f 252 249 245
f 237 256 210
f 213 257 237
f 238 258 213
f 258 257 213
f 239 258 238
f 215 259 241
f 242 259 215
f 256 260 210
f 260 243 210
f 261 219 243
f 254 233 223
f 261 246 219
f 261 262 246
f 262 263 246
f 264 242 233
f 248 209 137
f 250 248 155
f 265 252 251
f 265 266 252
f 267 268 236
f 249 267 236
f 269 251 247
f 231 270 250
f 266 267 252
f 267 249 252
f 268 255 236
f 270 248 250
f 271 272 254
f 224 271 254
f 234 271 224
f 270 231 246
f 263 270 246
f 272 233 254
f 272 264 233
f 273 265 251
f 269 273 251
f 248 274 209
f 273 266 265
f 273 275 266
f 237 276 256
f 276 277 256
f 257 276 237
f 239 278 258
f 240 279 239
f 279 278 239
f 241 280 240
f 280 279 240
f 259 281 241
f 281 280 241
f 242 282 259
f 282 281 259
f 264 282 242
f 277 260 256
f 275 267 266
f 260 283 243
f 283 261 243
f 284 255 268
f 253 269 247
f 267 285 268
f 275 285 267
f 271 286 272
f 269 287 273
f 288 271 234
f 287 275 273
f 289 264 272
f 285 290 268
f 274 291 209
f 291 253 209
f 292 290 285
f 290 284 268
f 287 285 275
f 293 287 269
f 276 294 277
f 295 294 276
f 257 295 276
f 296 295 257
f 258 296 257
f 278 296 258
f 297 283 277
f 283 260 277
f 287 292 285
f 298 261 283
f 293 299 287
f 298 262 261
f 291 300 253
f 299 292 287
f 298 301 262
f 301 263 262
f 302 286 271
f 289 282 264
f 290 303 284
f 302 271 288
f 301 270 263
f 286 289 272
f 253 304 269
f 300 304 253
f 304 293 269
f 305 274 248
f 304 306 293
f 306 299 293
f 306 307 299
f 308 305 248
f 302 309 286
f 277 310 297
f 294 310 277
f 278 311 296
f 279 312 278
f 312 311 278
f 280 313 279
f 313 312 279
f 281 314 280
f 314 313 280
f 282 315 281
f 315 314 281
f 289 315 282
f 316 298 283
f 309 289 286
f 309 317 289
f 318 308 248
f 270 318 248
f 301 318 270
f 317 315 289
f 319 303 290
f 292 319 290
f 320 319 292
f 299 320 292
f 288 321 302
f 321 309 302
f 321 317 309
f 322 288 323
f 324 318 301
f 298 324 301
f 325 324 298
f 316 325 298
f 294 326 310
f 327 326 294
f 295 327 294
f 328 327 295
f 296 328 295
f 311 328 296
f 310 316 297
f 316 283 297
f 305 291 274
f 305 329 291
f 307 320 299
f 330 322 323
f 322 321 288
f 308 331 305
f 332 325 316
f 333 315 317
f 326 334 310
f 311 335 328
f 336 335 311
f 312 336 311
f 313 336 312
f 337 336 313
f 314 337 313
f 338 337 314
f 315 338 314
f 339 338 315
f 333 339 315
f 331 329 305
f 340 304 300
f 341 300 291
f 329 341 291
f 342 331 308
f 318 342 308
f 331 341 329
f 340 306 304
f 343 322 330
f 321 333 317
f 344 333 321
f 341 340 300
f 340 307 306
f 324 342 318
f 345 341 331
f 346 324 325
f 347 346 325
f 332 347 325
f 310 332 316
f 334 332 310
f 326 348 334
f 349 348 326
f 327 349 326
f 350 349 327
f 328 350 327
f 335 350 328
f 344 321 322
f 351 342 324
f 352 340 341
f 353 354 333
f 355 307 340
f 352 341 345
f 356 345 342
f 345 331 342
f 346 351 324
f 344 353 333
f 352 355 340
f 356 357 345
f 357 352 345
f 351 356 342
f 358 307 355
f 352 358 355
f 358 359 307
f 360 347 332
f 354 339 333
f 348 361 334
f 335 362 350
f 336 363 335
f 363 362 335
f 364 363 336
f 337 364 336
f 338 365 337
f 339 366 338
f 366 365 338
f 354 366 339
f 343 344 322
f 359 320 307
f 367 358 352
f 357 367 352
f 368 344 343
f 368 353 344
f 319 369 303
f 370 356 351
f 371 359 358
f 367 371 358
f 372 373 357
f 334 360 332
f 361 360 334
f 348 374 361
f 375 374 348
f 349 375 348
f 376 375 349
f 350 376 349
f 362 376 350
f 365 364 337
f 377 369 319
f 373 367 357
f 346 370 351
f 378 359 371
f 379 378 371
f 380 377 319
f 320 380 319
f 380 320 359
f 378 380 359
f 381 372 357
f 379 371 367
f 9 382 383
f 384 9 383
f 373 379 367
f 370 357 356
f 369 9 384
f 385 343 386
f 385 387 343
f 353 388 354
f 387 368 343
f 377 9 369
f 368 388 353
f 389 373 372
f 390 370 346
f 347 390 346
f 391 379 373
f 360 392 347
f 392 390 347
f 370 381 357
f 393 392 360
f 361 393 360
f 394 393 361
f 374 394 361
f 362 395 376
f 396 395 362
f 363 396 362
f 364 397 363
f 397 396 363
f 398 397 364
f 365 398 364
f 399 398 365
f 366 399 365
f 400 399 366
f 354 400 366
f 377 401 9
f 402 378 379
f 402 403 378
f 403 380 378
f 9 8 382
f 380 401 377
f 391 402 379
f 389 404 373
f 403 401 380
f 404 391 373
f 405 7 9
f 406 405 9
f 401 406 9
f 388 400 354
f 8 13 407
f 401 408 406
f 409 368 387
f 410 381 370
f 381 389 372
f 411 412 401
f 412 408 401
f 412 405 408
f 413 402 391
f 414 8 7
f 405 414 7
f 412 10 405
f 403 411 401
f 415 391 404
f 416 394 374
f 375 416 374
f 413 403 402
f 11 13 8
f 417 415 404
f 414 11 8
f 418 387 385
f 412 11 10
f 418 409 387
f 412 419 11
f 415 413 391
f 388 368 409
f 390 410 370
f 420 404 389
f 421 420 389
f 422 12 11
f 423 424 12
f 392 425 390
f 419 422 11
f 422 423 12
f 426 418 385
f 427 428 381
f 428 389 381
f 388 429 400
f 411 419 412
f 430 409 418
f 397 431 396
f 419 432 422
f 423 433 424
f 431 434 396
f 413 411 403
f 432 423 422
f 434 395 396
f 430 388 409
f 430 429 388
f 410 427 381
f 435 376 395
f 434 435 395
f 436 375 376
f 435 436 376
f 394 437 393
f 437 438 393
f 436 416 375
f 416 437 394
f 438 392 393
f 439 433 423
f 420 417 404
f 440 413 415
f 438 425 392
f 428 421 389
f 432 439 423
f 411 432 419
f 441 418 426
f 442 432 411
f 413 442 411
f 443 399 400
f 429 443 400
f 425 444 390
f 439 445 433
f 417 440 415
f 440 442 413
f 444 410 390
f 446 429 430
f 432 445 439
f 444 447 410
f 445 448 433
f 449 441 426
f 447 427 410
f 436 450 416
f 446 430 418
f 441 446 418
f 451 440 417
f 432 452 445
f 453 442 440
f 454 444 425
f 455 448 445
f 456 429 446
f 442 452 432
f 457 452 442
f 453 457 442
f 452 458 445
f 458 455 445
f 399 459 398
f 459 460 398
f 460 397 398
f 461 441 449
f 455 462 448
f 460 463 397
f 463 431 397
f 428 427 447
f 456 446 441
f 461 456 441
f 431 464 434
f 464 465 434
f 465 435 434
f 457 466 452
f 465 436 435
f 466 458 452
f 450 437 416
f 467 443 429
f 450 468 437
f 468 438 437
f 469 461 449
f 470 462 455
f 471 453 440
f 451 471 440
f 456 467 429
f 468 454 438
f 454 425 438
f 472 428 447
f 458 470 455
f 473 474 475
f 470 476 462
f 476 477 462
f 458 478 470
f 479 480 481
f 472 447 444
f 482 420 421
f 478 476 470
f 478 458 466
f 483 457 453
f 484 477 476
f 482 428 472
f 478 485 476
f 461 486 456
f 487 399 443
f 486 467 456
f 487 459 399
f 485 489 476
f 490 491 477
f 469 492 461
f 457 478 466
f 472 444 454
f 489 484 476
f 493 478 457
f 484 490 477
f 494 495 491
f 496 483 453
f 482 421 428
f 489 497 484
f 463 464 431
f 498 499 500
f 490 494 491
f 497 490 484
f 492 486 461
f 501 495 494
f 493 457 483
f 502 436 465
f 497 503 490
f 501 504 495
f 502 450 436
f 502 505 450
f 506 468 450
f 505 506 450
f 506 507 468
f 508 454 468
f 507 508 468
f 471 496 453
f 503 494 490
f 509 443 467
f 508 510 454
f 479 511 480
f 503 512 494
f 512 501 494
f 486 509 467
f 513 514 515
f 511 516 517
f 518 511 479
f 519 518 479
f 510 472 454
f 479 520 519
f 521 420 482
f 522 523 479
f 498 524 499
f 512 504 501
f 510 525 472
f 493 485 478
f 512 526 504
f 527 498 474
f 516 528 517
f 528 474 517
f 529 530 514
f 531 492 469
f 529 532 530
f 523 520 479
f 527 524 498
f 533 482 472
f 525 533 472
f 534 486 492
f 535 534 492
f 536 515 537
f 538 514 513
f 536 513 515
f 528 527 474
f 538 529 514
f 539 489 485
f 531 535 492
f 540 541 542
f 543 532 529
f 539 497 489
f 524 544 545
f 544 546 545
f 547 516 511
f 548 537 549
f 546 548 549
f 543 542 532
f 540 550 541
f 551 550 540
f 548 536 537
f 547 528 516
f 493 539 485
f 534 509 486
f 533 521 482
f 552 512 503
f 551 553 550
f 554 511 518
f 555 554 518
f 519 555 518
f 554 547 511
f 539 503 497
f 554 556 547
f 556 557 547
f 16 555 519
f 558 538 513
f 536 558 513
f 504 559 495
f 560 531 553
f 557 528 547
f 527 544 524
f 520 16 519
f 557 561 528
f 561 562 528
f 563 535 531
f 560 553 551
f 562 527 528
f 564 503 539
f 523 565 520
f 566 542 543
f 562 567 527
f 14 16 520
f 568 14 520
f 567 544 527
f 560 563 531
f 566 540 542
f 567 569 544
f 569 546 544
f 569 570 546
f 570 548 546
f 509 487 443
f 570 571 548
f 571 536 548
f 565 568 520
f 571 572 536
f 564 539 493
f 572 558 536
f 573 534 535
f 572 538 558
f 574 529 538
f 572 574 538
f 575 565 523
f 574 543 529
f 563 573 535
f 574 566 543
f 564 552 503
f 566 551 540
f 575 576 565
f 574 577 566
f 578 14 568
f 573 509 534
f 579 568 565
f 580 420 521
f 577 581 566
f 580 417 420
f 581 551 566
f 582 512 552
f 583 560 551
f 581 583 551
f 584 483 496
f 582 526 512
f 582 564 493
f 583 563 560
f 583 573 563
f 585 578 568
f 576 585 568
f 564 582 552
f 584 493 483
f 586 582 493
f 573 487 509
f 587 502 465
f 463 577 464
f 588 589 576
f 587 574 572
f 590 585 576
f 555 591 554
f 459 463 460
f 464 587 465
f 587 577 574
f 577 587 464
f 589 590 576
f 507 570 569
f 16 591 555
f 587 505 502
f 505 572 571
f 505 587 572
f 510 567 562
f 573 459 487
f 510 569 567
f 463 583 581
f 510 507 569
f 507 510 508
f 506 505 571
f 570 506 571
f 525 557 556
f 463 581 577
f 459 573 583
f 510 562 561
f 525 510 561
f 557 525 561
f 506 570 507
f 521 556 554
f 521 525 556
f 525 521 533
f 459 583 463
f 591 521 554
f 584 586 493
f 591 580 521
f 578 591 16
f 578 15 591
f 15 580 591
f 586 592 526
f 582 586 526
f 593 590 589
f 594 595 588
f 451 417 580
f 596 15 578
f 590 596 578
f 597 580 15
f 596 597 15
f 19 559 504
f 595 589 588
f 559 598 488
f 597 451 580
f 599 593 589
f 595 599 589
f 592 19 504
f 526 592 504
f 590 597 596
f 600 601 594
f 602 496 471
f 601 595 594
f 593 597 590
f 593 451 597
f 603 599 595
f 601 603 595
f 496 604 584
f 605 586 584
f 471 451 593
f 606 607 601
f 603 602 599
f 602 604 496
f 608 603 601
f 607 608 601
f 602 593 599
f 602 471 593
f 609 607 606
f 19 610 559
f 611 610 19
f 612 613 606
f 614 615 610
f 611 614 610
f 18 611 17
f 612 616 613
f 19 617 17
f 617 18 17
f 18 614 611
f 614 618 615
f 618 612 615
f 618 616 612
f 617 614 18
f 608 619 603
f 613 609 606
f 609 608 607
f 592 617 19
f 619 602 603
f 604 620 584
f 621 608 609
f 613 621 609
f 617 622 614
f 623 621 613
f 622 624 614
f 625 623 613
f 624 618 614
f 616 625 613
f 624 616 618
f 624 625 616
f 620 605 584
f 605 592 586
f 626 622 617
f 592 626 617
f 621 619 608
f 620 602 619
f 620 604 602
f 627 605 620
f 621 620 619
f 626 624 622
f 623 620 621
f 625 627 623
f 624 627 625
f 627 620 623
f 605 626 592
f 626 627 624
f 605 627 626
