v 0.2022 -0.014541 -0.040176
v 0.235654 0.009437 -0.039331
v 0.2022 0.014018 -0.058046
v 0.228064 -0.010649 -0.058884
v 0.2022 0.013034 -0.036397
v 0.23551 -0.009828 -0.039319
v 0.227824 0.010925 -0.058882
v 0.2022 -0.012499 -0.05917
v 0.23244 0.012704 -0.040082
v 0.2022 0.011713 -0.059266
v 0.229441 -0.007959 -0.058919
v 0.23169 -0.012909 -0.040198
v 0.202509 -0.01176 -0.0358
v 0.223464 0.011846 -0.0362
v 0.2022 0.014541 -0.040176
v 0.224934 0.012776 -0.05817
v 0.23003 0.010866 -0.052914
v 0.2022 -0.011943 -0.035835
v 0.2022 -0.014055 -0.057941
v 0.230906 -0.009175 -0.053509
v 0.231239 -0.007054 -0.053175
v 0.22916 0.008214 -0.059237
v 0.229337 -0.011399 -0.052939
v 0.226981 0.01124 -0.03663
v 0.218722 0.011429 -0.035632
v 0.2022 0.014224 -0.052727
v 0.22313 0.013294 -0.038262
v 0.227283 0.012688 -0.053652
v 0.225398 0.011643 -0.059291
v 0.22517 0.012903 -0.053072
v 0.2022 -0.013031 -0.036383
v 0.2022 0.011926 -0.035814
v 0.223347 -0.011835 -0.03639
v 0.2022 -0.012349 -0.059222
v 0.225074 -0.013014 -0.053672
v 0.225586 -0.011535 -0.059286
v 0.231212 0.007082 -0.053236
v 0.230938 0.009146 -0.053471
v 0.226039 0.011621 -0.036513
v 0.228182 0.009257 -0.036792
v 0.219904 0.011893 -0.035771
v 0.2022 0.012816 -0.059104
v 0.227314 0.008489 -0.059716
v 0.221115 -0.013399 -0.039412
v 0.2022 -0.011441 -0.035801
v 0.227092 -0.011303 -0.036837
v 0.218595 -0.011731 -0.035816
v 0.2022 -0.014202 -0.052777
v 0.226186 -0.012349 -0.0584
v 0.228308 -0.008568 -0.059628
v 0.227264 0.011066 -0.036665
v 0.223016 0.011831 -0.036146
v 0.2022 0.012137 -0.059228
v 0.225145 -0.012048 -0.037054
v 0.2022 0.010352 -0.035812
v 0.228303 -0.009197 -0.036965
v 0.226978 -0.012764 -0.052851
v 0.202507 -0.01232 -0.059227
v 0.22794 0.010221 -0.036754
v 0.203892 0.01199 -0.059248
f 15 10 5
f 17 9 2
f 17 7 9
f 19 1 10
f 20 11 6
f 20 6 4
f 20 4 11
f 21 11 2
f 21 2 6
f 21 6 11
f 23 4 6
f 23 6 12
f 24 2 9
f 26 3 10
f 26 16 3
f 26 10 15
f 27 9 15
f 27 15 5
f 28 16 9
f 28 9 7
f 28 7 16
f 29 3 16
f 29 16 7
f 30 15 9
f 30 9 16
f 30 26 15
f 30 16 26
f 31 18 10
f 31 10 1
f 32 5 10
f 34 19 10
f 34 8 19
f 35 12 1
f 36 8 34
f 36 19 8
f 37 22 2
f 37 2 11
f 37 11 22
f 38 17 2
f 38 2 22
f 38 22 7
f 38 7 17
f 39 24 9
f 39 27 14
f 39 9 27
f 40 6 2
f 41 27 5
f 41 14 27
f 41 32 25
f 41 5 32
f 42 10 3
f 42 3 29
f 43 29 7
f 43 7 22
f 43 34 10
f 44 31 1
f 44 1 12
f 44 33 31
f 45 32 10
f 45 10 18
f 45 18 13
f 45 13 25
f 46 12 6
f 47 18 31
f 47 31 33
f 47 13 18
f 47 25 13
f 47 33 46
f 48 35 1
f 48 1 19
f 48 19 35
f 49 23 12
f 49 4 23
f 49 36 4
f 49 35 19
f 49 19 36
f 50 11 4
f 50 4 36
f 50 43 22
f 50 22 11
f 51 39 14
f 51 24 39
f 51 2 24
f 52 41 25
f 52 14 41
f 52 25 47
f 52 51 14
f 52 47 46
f 52 46 51
f 53 42 29
f 53 10 42
f 53 43 10
f 54 44 12
f 54 33 44
f 54 46 33
f 54 12 46
f 55 45 25
f 55 25 32
f 55 32 45
f 56 46 6
f 56 6 40
f 56 51 46
f 57 49 12
f 57 12 35
f 57 35 49
f 58 50 36
f 58 36 34
f 58 34 43
f 58 43 50
f 59 40 2
f 59 2 51
f 59 56 40
f 59 51 56
f 60 53 29
f 60 29 43
f 60 43 53
