v -0.034872 0.005848 -0.33
v -0.004429 0.001941 0.053953
v 0.032545 -0.015394 -0.33
v 0.021367 0.023045 -0.319241
v -0.020322 -0.021165 -0.315873
v 0.029133 0.019823 -0.33
v -0.023461 0.016351 0.033806
v -0.03038 -0.016346 -0.326519
v 0.026043 -0.020368 -0.094086
v -0.031125 0.016838 -0.33
v 0.027311 0.023228 -0.094634
v -0.034537 -0.006364 -0.329243
v 0.03085 -0.017093 -0.33
v -0.023766 -0.011854 0.033704
v 0.032788 -0.012799 -0.33
v -0.02911 0.019901 -0.33
v -0.03431 0.009024 -0.33
v 0.034813 0.020986 -0.133089
v 0.009313 0.019021 0.008193
v -0.029032 -0.017736 -0.325401
v 0.018051 -0.021748 -0.31451
v 0.037685 -0.015566 -0.15762
v -0.034848 -0.004265 -0.329473
v 0.011396 -0.014862 0.004855
v -0.004213 -0.019747 -0.074673
v -0.019365 0.002365 0.046722
v -0.029445 -0.008598 -0.1501
v 0.032879 0.013344 -0.33
v 0.017938 0.023921 -0.316636
v -0.030492 0.018382 -0.33
v -0.002072 0.023685 -0.079724
v -0.024231 0.015032 0.033878
v 0.028957 0.019897 -0.329733
v 0.029741 0.023073 -0.108254
v 0.005971 0.007384 0.049943
v -0.02512 -0.013361 -0.058406
v -0.023754 -0.01824 -0.240924
v 0.032625 -0.018608 -0.118977
v -0.013713 -0.021799 -0.311474
v 0.038693 -0.013024 -0.171879
v 0.034527 -0.016148 -0.245543
v 0.008779 -0.002604 0.047853
v -0.021304 -0.017202 -0.150458
v -0.00661 -0.014904 0.010626
v -0.01558 -0.005502 0.048682
v -0.015967 0.009235 0.048878
v -0.025616 -0.012659 -0.058109
v -0.032193 -0.006629 -0.242384
v 0.03829 0.01699 -0.17233
v -0.026551 0.017986 -0.150515
v -0.02197 0.022928 -0.319885
v 0.020078 0.023645 -0.0788
v -0.006316 0.019008 0.01076
v -0.02665 0.013905 -0.058266
v -0.032164 0.009407 -0.242565
v -0.024678 0.002195 0.034045
v 0.024749 0.023145 -0.227582
v 0.013962 0.006349 0.039366
v 0.026684 0.023765 -0.097222
v -0.021426 0.016645 0.035603
v -0.023842 -0.019929 -0.318668
v -0.0248 -0.015716 -0.149712
v 0.021084 -0.020964 -0.316432
v 0.029177 -0.019809 -0.106114
v 0.035335 -0.017425 -0.136874
v -0.002158 -0.021785 -0.307967
v -0.015659 -0.021759 -0.312657
v 0.000839 -0.020376 -0.08674
v 0.038364 -0.013852 -0.173374
v 0.036179 0.001292 -0.25303
v -0.021765 -0.012493 0.035383
v 0.001167 0.002194 0.053463
v 0.014104 -0.001878 0.039386
v -0.012325 -0.020675 -0.204885
v 0.020469 -0.020038 -0.078522
v -0.023053 -0.008725 0.039705
v -0.014985 -0.003695 0.050195
v -0.003216 0.005993 0.053732
v -0.021083 0.010782 0.043809
v -0.027227 -0.013992 -0.150381
v 0.031932 0.018146 -0.33
v 0.037987 0.001599 -0.143861
v -0.028379 0.018411 -0.242686
v -0.023609 0.021018 -0.242778
v -0.006096 0.02276 -0.068159
v -0.014339 0.024029 -0.314133
v -0.001182 0.019035 0.012266
v -0.032599 0.013229 -0.33
v -0.029468 0.011671 -0.150414
v -0.027132 -0.002706 -0.058021
v -0.032425 0.005296 -0.24253
v 0.0333 0.021241 -0.117934
v 0.01098 0.002174 0.047104
v 0.012109 0.01863 0.003953
v 0.012204 0.007563 0.041687
v 0.024774 0.023877 -0.089742
v -0.008734 0.018971 0.00919
v -0.02715 -0.018514 -0.322038
v -0.023083 -0.020229 -0.31801
v 0.021417 -0.021168 -0.219411
v 0.031075 -0.018806 -0.108469
v 0.026408 -0.019832 -0.232949
v 0.024103 -0.020599 -0.225849
v 0.033075 -0.017262 -0.235193
v 0.015007 -0.021768 -0.312118
v -0.00035 -0.021171 -0.209651
v -0.008054 -0.021181 -0.214037
v 0.03849 -0.013892 -0.160428
v 0.035378 -0.014702 -0.253261
v 0.034882 -0.008685 -0.278953
v 0.033526 0.001204 -0.323958
v 0.039281 0.001562 -0.169506
v 0.006402 -0.014897 0.010655
v -0.000188 -0.002441 0.052847
v 0.012188 -0.002121 0.043995
v 0.036025 -0.016333 -0.132844
v -0.020871 -0.019402 -0.242777
v -0.011023 -0.020775 -0.201603
v -2.3e-05 -0.014871 0.012344
v 0.006409 -0.019771 -0.074176
v -0.023643 -0.011248 0.035355
v -0.020762 -0.009963 0.040391
v -0.008012 0.005967 0.053189
v -0.015599 0.002186 0.050017
v -0.018377 -0.006025 0.046824
v 0.003858 0.00599 0.052201
v -0.003741 0.007399 0.052653
v -0.019122 0.00963 0.046507
v -0.023603 0.014896 0.036801
v -0.023366 0.002156 0.039711
v 0.035407 0.017212 -0.253125
v 0.03484 0.018476 -0.245728
v 0.038022 0.017937 -0.15195
v 0.01441 0.00202 0.039725
v -0.024499 0.021899 -0.322038
v -0.024255 0.017603 -0.058376
v -0.019014 0.023601 -0.317307
v 0.003827 0.018971 0.011679
v -0.032418 -0.00265 -0.242486
v -0.029843 0.004262 -0.150338
v 0.030215 0.022309 -0.104287
v 0.007657 -0.001617 0.050048
v 0.008811 0.007643 0.046516
v 0.012649 0.005819 0.044021
v 0.002116 0.023902 -0.087185
v 0.012451 0.018998 0.000614
v 0.011162 0.023971 -0.312118
v 0.028057 -0.019436 -0.096587
v 0.027763 -0.019241 -0.241897
v 0.009347 -0.021187 -0.216025
v -0.007381 -0.021789 -0.308986
v 0.035748 0.009983 -0.257243
v 0.033461 -0.001461 -0.323828
v 0.008871 -0.014559 0.009342
v -0.011774 -0.003198 0.051553
v 0.034525 -0.01702 -0.123251
v 0.037076 -0.015715 -0.141433
v -0.013813 -0.006384 0.047204
v -0.017449 -0.004471 0.04831
v -0.012152 0.008029 0.051241
v -0.020375 -0.007206 0.044031
v 0.000448 0.006588 0.052961
v 0.007662 0.005983 0.050023
v 0.000893 0.007648 0.051502
v -0.022752 0.016262 0.036289
v -0.022573 0.013207 0.040302
v 0.038451 0.017153 -0.161024
v 0.037644 0.018708 -0.157296
v 0.036218 0.019899 -0.13722
v 0.024436 -0.009231 -0.0419
v -0.004544 0.023166 -0.075652
v -0.014235 0.022918 -0.201547
v -0.015433 0.023978 -0.314778
v 0.02228 0.014063 -0.03246
v 0.006603 0.002186 0.051099
v 0.004687 -0.001996 0.051541
v 0.010098 0.006851 0.046785
v -0.012761 0.024027 -0.313163
v -0.000448 0.023824 -0.08731
v 0.028376 -0.018136 -0.324432
v -0.000463 -0.021781 -0.307931
v 0.033459 0.003278 -0.324265
v 0.032942 -0.011308 -0.327464
v -0.002707 -0.002533 0.052784
v -0.00731 -0.001499 0.053366
v 0.037961 -0.014999 -0.151757
v -0.02001 0.012033 0.044085
v 0.036673 0.018848 -0.137066
v 0.023519 -0.00939 -0.036943
v -0.012853 0.023204 -0.19864
v -0.010841 0.023667 -0.204423
v 0.030558 -0.017245 -0.32907
v 0.025509 0.012332 -0.048849
v 0.032691 -0.017338 -0.113338
v -0.012077 0.023407 -0.202387
v 0.034127 0.019724 -0.120478
v 0.02407 0.013074 -0.040047
f 13 8 12
f 15 3 13
f 15 13 1
f 15 1 10
f 17 10 1
f 20 13 5
f 20 8 13
f 21 5 13
f 23 13 12
f 23 1 13
f 27 12 8
f 29 4 6
f 29 6 16
f 30 16 6
f 30 6 28
f 30 28 15
f 30 15 10
f 32 7 30
f 33 18 6
f 33 6 4
f 33 4 18
f 36 20 14
f 36 14 8
f 36 8 20
f 40 3 15
f 41 13 3
f 41 3 22
f 47 14 27
f 48 27 23
f 48 23 12
f 48 12 27
f 50 30 7
f 50 7 16
f 51 29 16
f 54 32 30
f 54 30 10
f 55 17 1
f 55 1 32
f 57 34 18
f 57 18 4
f 57 4 29
f 57 29 34
f 59 34 29
f 59 11 34
f 60 35 19
f 62 14 20
f 62 20 37
f 62 43 14
f 62 37 43
f 63 21 13
f 67 5 21
f 67 21 39
f 71 25 44
f 71 43 25
f 71 14 43
f 74 25 43
f 74 5 67
f 75 9 24
f 75 68 9
f 78 2 72
f 80 14 47
f 80 47 27
f 80 27 8
f 80 8 14
f 81 28 6
f 83 50 16
f 83 16 30
f 83 30 50
f 84 7 51
f 85 51 7
f 85 60 31
f 85 7 60
f 87 52 31
f 87 53 60
f 87 31 53
f 88 54 10
f 88 10 17
f 88 17 54
f 89 54 17
f 89 32 54
f 89 55 32
f 89 17 55
f 90 27 14
f 90 14 56
f 90 23 27
f 91 32 1
f 92 18 34
f 95 94 19
f 95 58 94
f 96 52 19
f 96 11 59
f 96 59 29
f 97 60 53
f 97 53 31
f 97 31 60
f 98 61 37
f 98 37 20
f 98 20 61
f 99 61 20
f 99 20 5
f 99 43 37
f 99 37 61
f 100 64 9
f 100 21 64
f 101 64 38
f 101 73 24
f 102 64 63
f 102 38 64
f 103 64 21
f 103 21 63
f 103 63 64
f 104 41 22
f 104 22 65
f 104 13 41
f 105 66 39
f 105 39 21
f 105 21 100
f 106 9 68
f 107 68 67
f 107 67 39
f 107 106 68
f 107 39 106
f 108 69 40
f 108 22 69
f 109 69 22
f 109 22 3
f 109 3 40
f 109 40 69
f 110 40 15
f 111 15 28
f 112 110 70
f 112 40 110
f 112 108 40
f 112 82 108
f 113 42 71
f 113 75 24
f 114 71 42
f 114 72 2
f 115 42 24
f 115 24 73
f 117 74 43
f 117 5 74
f 117 99 5
f 117 43 99
f 118 68 25
f 118 25 74
f 118 74 67
f 118 67 68
f 119 44 25
f 119 71 44
f 119 75 113
f 119 113 71
f 120 25 68
f 120 68 75
f 120 119 25
f 120 75 119
f 121 76 56
f 121 56 14
f 121 14 71
f 122 121 71
f 122 76 121
f 123 2 78
f 125 45 77
f 125 122 45
f 128 79 26
f 128 124 46
f 128 26 124
f 129 7 32
f 129 32 56
f 130 76 26
f 130 26 79
f 130 129 56
f 130 56 76
f 131 28 81
f 132 81 6
f 132 6 18
f 132 131 81
f 132 49 131
f 133 82 112
f 134 116 82
f 134 115 73
f 135 84 51
f 135 51 16
f 135 16 84
f 136 84 16
f 136 16 7
f 136 7 84
f 137 29 51
f 138 19 52
f 138 52 87
f 138 87 60
f 138 60 19
f 139 90 56
f 139 23 90
f 139 91 1
f 139 1 23
f 140 56 32
f 140 32 91
f 140 139 56
f 140 91 139
f 141 92 34
f 141 34 11
f 142 115 93
f 142 42 115
f 143 95 19
f 143 19 35
f 144 58 95
f 144 134 58
f 144 93 115
f 144 115 134
f 145 31 52
f 145 52 96
f 146 96 19
f 146 19 94
f 146 11 96
f 146 141 11
f 146 94 141
f 147 96 29
f 147 29 86
f 148 101 24
f 148 24 9
f 148 9 64
f 148 64 101
f 149 65 38
f 149 38 102
f 149 102 63
f 150 105 100
f 150 100 9
f 150 9 106
f 151 106 39
f 151 39 66
f 151 66 106
f 152 112 70
f 152 28 131
f 152 131 49
f 152 49 112
f 153 15 111
f 153 111 70
f 153 70 110
f 154 113 24
f 154 24 42
f 154 42 113
f 155 77 45
f 155 124 77
f 155 123 124
f 156 38 65
f 156 65 116
f 156 101 38
f 157 82 116
f 157 116 65
f 157 65 22
f 158 114 45
f 158 45 122
f 158 122 71
f 158 71 114
f 159 124 26
f 159 77 124
f 159 125 77
f 160 124 123
f 160 46 124
f 160 123 78
f 160 78 127
f 161 26 76
f 161 159 26
f 161 125 159
f 161 76 122
f 161 122 125
f 162 78 72
f 162 72 126
f 162 127 78
f 162 126 35
f 163 35 126
f 163 93 144
f 164 35 60
f 164 60 127
f 164 162 35
f 164 127 162
f 165 60 7
f 165 7 129
f 166 130 79
f 166 129 130
f 166 165 129
f 167 133 112
f 167 112 49
f 168 132 18
f 168 49 132
f 168 167 49
f 168 133 167
f 169 18 92
f 169 168 18
f 169 133 168
f 170 134 73
f 170 116 134
f 170 156 116
f 171 85 31
f 172 137 51
f 172 51 85
f 173 86 29
f 173 29 137
f 174 141 94
f 174 94 58
f 174 58 92
f 174 92 141
f 175 126 72
f 175 163 126
f 175 142 93
f 175 93 163
f 176 114 42
f 176 42 142
f 176 72 114
f 176 175 72
f 176 142 175
f 177 144 95
f 177 95 143
f 177 163 144
f 177 143 35
f 177 35 163
f 178 145 96
f 178 86 145
f 178 147 86
f 178 96 147
f 179 145 86
f 179 31 145
f 179 173 31
f 179 86 173
f 180 65 149
f 180 149 63
f 181 150 106
f 181 106 66
f 181 66 105
f 181 105 150
f 182 111 28
f 182 28 152
f 182 152 70
f 182 70 111
f 183 153 110
f 183 110 15
f 183 15 153
f 184 155 45
f 184 45 114
f 185 2 123
f 185 123 155
f 185 155 184
f 185 184 114
f 185 114 2
f 186 108 82
f 186 82 157
f 186 157 22
f 186 22 108
f 187 46 160
f 187 165 166
f 187 160 127
f 187 128 46
f 187 127 60
f 187 60 165
f 187 166 79
f 187 79 128
f 188 134 82
f 188 82 133
f 188 133 169
f 188 169 92
f 189 170 73
f 189 73 101
f 189 156 170
f 190 85 171
f 190 172 85
f 190 137 172
f 191 171 31
f 191 173 137
f 191 31 173
f 192 104 65
f 192 65 180
f 192 13 104
f 192 180 63
f 192 63 13
f 193 58 134
f 193 134 188
f 194 189 101
f 194 101 156
f 194 156 189
f 195 190 171
f 195 137 190
f 195 191 137
f 195 171 191
f 196 193 188
f 196 188 92
f 197 92 58
f 197 58 193
f 197 196 92
f 197 193 196
