v -0.00129307 -0.0468965 -0.0332738
v 0.000365622 -0.0465163 -0.0471322
v -0.00150333 -0.0474327 -0.047088
v -0.00726426 -0.0408573 -0.0414758
v 0.00645408 -0.0416785 -0.0426466
v 0.00655001 -0.0417883 -0.0467018
v -0.00717051 -0.0410699 -0.046426
v 0.000954446 -0.0478281 -0.0382956
v 0.00978 -0.041593 -0.045925
v 0.00768388 -0.036118 -0.0436999
v 0.00691063 -0.0412142 -0.0464174
v -0.00824842 -0.0405427 -0.0429234
v -0.000318048 0.00164326 -0.0440189
v 0.00292442 -0.030283 -0.0461744
v -0.00217539 -0.0296755 -0.0441862
v 0.037485 -0.041652 -0.04
v -0.022718 -0.047782 -0.0304342
v -0.0382163 -0.0402833 -0.0403337
v -0.0100214 -0.00554497 -0.043292
v -0.0182032 -0.00943507 -0.0407252
v -0.0205342 -0.0231313 -0.0415215
v 0.00537577 0.00734645 -0.0411361
v 0.00941094 0.00940969 -0.0421077
v 0.00744618 -0.039748 -0.0321089
v 0.0355435 0.0030955 -0.037275
v 0.0377201 -0.00827348 -0.0372262
v -0.0163999 -0.00830224 -0.0394757
v 0.00705743 -0.0412322 -0.0421953
v -0.0201195 -0.041806 -0.0396647
v -0.0298722 -0.0230743 -0.0386723
v 0.007533 -0.036963 -0.039824
v 0.01925 -0.0230863 -0.038466
v 0.0377364 0.0098936 -0.0359647
v 0.00264772 -0.0297596 -0.0404835
v -0.005834 -0.033046 -0.040026
v 0.00109474 -0.00902578 -0.0388374
v -0.00566506 -0.0327247 0.040174
v 0.0243778 -0.0488799 -0.0284349
v 0.00141603 -0.0301034 0.0406026
v 0.006177 -0.033481 0.040085
v -0.00298583 -0.0113108 -0.0406111
v 0.006959 -0.034734 -0.032215
v -0.006879 -0.03472 0.03232
v -0.00955616 -0.00969754 -0.0381558
v 0.0391634 -0.0479029 -0.0390987
v -0.00204333 0.0060822 -0.0397197
v -0.00362883 0.0114971 -0.0395218
v 0.00173044 0.00668774 -0.0393318
v 0.00136503 0.000279478 -0.0394387
v -0.00303521 0.00283896 -0.0393202
v 0.001916 0.006323 -0.039401
v -0.00323867 0.0162363 -0.0398024
v 0.00104145 -0.0028377 -0.0392751
v 0.003253 0.004452 -0.039317
v 0.00332859 0.00264637 -0.0388731
v 0.03994 -0.041652 -0.037672
v -0.00633244 0.0106304 -0.039047
v 0.00315581 0.0057748 -0.0394483
v 0.00189 0.006503 -0.039372
v 0.001956 0.006703 -0.039312
v 0.00333487 0.00194945 -0.0392597
v 0.001713 0.006697 -0.039301
v -0.0034488 0.000119055 -0.0393473
v 0.006544 0.005276 -0.038933
v 0.00333 0.004447 -0.039254
v -0.003133 0.004168 -0.039228
v 0.000213719 0.00720012 -0.0378949
v 0.003344 0.004663 -0.039234
v 0.040067 -0.041653 -0.037713
v 0.003418 0.00443 -0.039173
v 0.0121382 0.00634549 -0.0377992
v -0.000224416 0.0100851 -0.0398129
v 0.003404 0.004742 -0.039204
v -0.00324352 0.00495278 -0.0392379
v 0.0037683 0.00445117 -0.0383766
v 0.00921511 0.0105528 -0.0386677
v 0.000199497 -0.00490834 -0.0397027
v 0.00659025 0.0144815 -0.037811
v -0.0035739 0.0146194 -0.0391864
v 0.004036 0.004936 -0.039057
v 0.004137 0.004941 -0.039046
v -0.00343032 0.0021077 -0.0389843
v -0.003242 0.002347 -0.039036
v -0.003346 0.002316 -0.038748
v 0.004271 0.004855 -0.038926
v -0.003533 0.004685 -0.038964
v -0.003616 0.00204 -0.038937
v -0.00908182 0.00631306 -0.0386833
v -0.000235334 0.0169779 -0.0386221
v -0.003699 0.004762 -0.038913
v 0.004016 0.004795 -0.038926
v 0.0102107 -0.0107802 -0.038985
v -0.003453 0.002162 -0.038941
v 0.00408632 0.00454045 -0.0383413
v 0.0106876 -0.00445567 -0.0381085
v -0.008268 0.004837 -0.038155
v -0.00376633 0.00474681 -0.0388028
v 0.0130139 0.00146663 -0.0374001
v -0.0376245 -0.0241092 -0.0377327
v 0.00571607 -0.000280108 -0.0385812
v 0.000140813 0.0119827 -0.0376661
v 0.0158558 -0.00283101 -0.0351075
v 0.0104944 -0.00319302 -0.0382583
v -0.012329 0.0102492 -0.0375498
v -0.0196444 -0.0233595 -0.0385693
v -0.0104326 0.00709876 -0.0371146
v -0.00308229 0.00310255 -0.0378504
v 0.00485372 0.00228091 -0.0376369
v -0.00935348 0.00486008 -0.0375767
v 0.0142946 -0.0416399 -0.0412066
v 0.0189402 -0.0112009 -0.0356941
v 0.011888 -0.000107 -0.037297
v 0.0056532 -0.00942496 -0.0385156
v -0.0214947 -0.0392804 -0.0356419
v -0.013512 0.011839 -0.036612
v 0.0117996 0.0166699 -0.0375732
v -0.0138175 0.00100123 -0.0371466
v -0.010892 -0.002907 -0.035858
v -0.0125021 -0.00347633 -0.0375795
v 0.0257307 -0.0251551 -0.0373232
v 0.0933276 0.00303574 -0.0386143
v 0.0938631 -0.00965186 -0.0368325
v 0.0758026 0.00768199 -0.0376336
v -0.0171724 0.00649301 -0.0355186
v 0.0153036 0.011936 -0.0347579
v -0.00504555 0.0019462 -0.0390466
v 0.0945056 0.00984213 -0.0357755
v -0.0258692 -0.0248344 -0.0369881
v -0.0148273 -0.00922548 -0.0350811
v 0.0157698 0.00851786 -0.0347812
v 0.0138473 0.0114369 -0.0370352
v 0.0116187 0.0151095 -0.0379624
v 0.0195562 -0.00443768 -0.0346312
v -0.0382252 -0.0242931 -0.0365895
v 0.013948 -0.00526749 -0.03561
v -0.0172225 0.0146944 -0.0346563
v -0.00137003 -0.0616145 -0.0377842
v -0.00233122 0.0260822 -0.0373786
v -0.041298 -0.0472463 -0.0372259
v 0.0747351 -0.00788829 -0.0360277
v -0.0319734 -0.0205071 -0.0354801
v -0.0186163 -0.000222394 -0.0343502
v 0.0280488 -0.0416255 -0.0370436
v -0.0259711 -0.0125688 -0.0366186
v 0.0185481 0.0163692 -0.0349571
v 0.0229281 -0.0615022 -0.0303476
v -0.00138098 -0.0613956 -0.0220165
v -0.0189783 -0.00311782 -0.0344119
v 0.00388857 0.0273916 -0.0369944
v 0.009977 0.026055 -0.036095
v 0.0762738 -0.0088098 -0.0378475
v 0.0928336 -0.0235901 -0.0308421
v 0.092471 0.014236 -0.035624
v 0.021847 -0.000111787 -0.0326322
v -0.0148789 -0.00507446 -0.0364363
v -0.0299264 -0.0417933 -0.0324929
v 0.0404057 -0.022531 -0.0320736
v 0.0538711 0.0076304 -0.0360991
v 0.02971 -0.0539908 -0.0366717
v 0.0287499 -0.0614458 -0.0366559
v 0.0540274 -0.0060299 -0.0355441
v 0.0299341 0.0252367 -0.0293379
v -0.0147709 0.00968841 -0.0357492
v -0.018233 0.00184324 -0.0344446
v -0.0204198 0.0116472 -0.0333888
v -0.0218469 -0.00416134 -0.0330295
v -0.0146191 0.0167307 -0.0364134
v 0.0278119 -0.0235034 -0.0332667
v 0.0187515 0.0267477 -0.0325111
v -0.019644 0.006647 -0.0337744
v 0.043032 -0.041666 -0.023855
v 0.040779 -0.041655 -0.034346
v -0.0173979 -0.0114599 -0.0365419
v 0.0473612 -0.0479093 -0.00121112
v -0.037277 -0.0477538 -0.0088818
v -0.0424214 -0.0239169 -0.0179005
v -0.0302676 -0.0133718 -0.0329827
v -0.0229592 -0.00478772 -0.0318923
v 0.0225364 0.0108164 -0.0328834
v 0.0182133 0.0049099 -0.0348663
v 0.0250227 -0.0536633 -0.0306824
v 0.02316 -0.061662 -0.029473
v 0.0399114 -0.061564 -0.0252975
v -0.0254754 0.0147398 -0.0283953
v 0.0200066 -0.0094271 -0.0323049
v -0.0385838 -0.0222944 -0.027394
v 0.074632 -0.014115 -0.033398
v 0.0945367 -0.0155861 0.0344346
v 0.0939164 -0.0360097 0.0123343
v 0.0946438 -0.0285954 -0.0248597
v 0.0177877 0.0103105 -0.0354515
v 0.024806 0.0151635 -0.0310115
v 0.0763448 0.0190996 -0.0332117
v -0.037705 -0.022366 -0.030438
v 0.0542521 -0.0125374 -0.0339027
v -0.0122758 0.0277427 -0.0347949
v -0.0274259 -0.0231933 -0.0331132
v -0.0180883 0.0154376 -0.0352665
v -0.0278275 -0.024894 -0.0351446
v -0.0313188 0.00487177 -0.023104
v 0.0195322 0.00211365 -0.0330005
v 0.00947653 0.028412 -0.0353963
v -0.0238854 -0.0114756 -0.0324689
v 0.0216496 0.00567675 -0.0334269
v 0.0207649 0.00140856 -0.0336736
v 0.0403045 -0.0389299 -0.0218961
v 0.0592245 0.006992 -0.0335948
v 0.0281425 -0.0248431 -0.0343798
v -0.0337213 -0.0191626 -0.0321212
v 0.0238764 -0.00308421 -0.0292214
v 0.0579602 -0.00595556 -0.0349318
v 0.0213334 0.00655545 -0.0339051
v 0.0225454 0.0208886 -0.0342208
v -0.0242651 0.00176131 -0.0309545
v 0.02292 -0.003636 -0.03221
v 0.0584762 0.0148243 -0.0312516
v -0.027427 0.0101377 -0.0282163
v 0.0225187 0.00469254 -0.0315512
v -0.039629 -0.0149061 -0.0185396
v -0.00101589 -0.0516127 -0.0341636
v 0.0417213 -0.0151962 -0.033988
v -0.0242255 -0.0102006 -0.0313625
v 0.0262937 -0.0116264 -0.030735
v 0.0753024 -0.023084 -0.0301114
v 0.0931658 0.0218428 -0.0315527
v 0.076813 0.023933 -0.029993
v 0.00732924 -0.0347472 0.0322899
v -0.0281888 0.000646056 -0.0275867
v -0.0248487 0.0161345 -0.030696
v -0.0242606 0.0116377 -0.0309377
v 0.0596072 -0.000902321 -0.025193
v -0.0264732 -0.00311646 -0.0283809
v 0.0295726 -0.0105288 -0.0269145
v 0.057419 -0.01846 -0.029685
v 0.0582602 -0.0209169 -0.0277324
v -0.0154914 -0.0345825 0.0296401
v -0.00749266 -0.0347961 -0.0325195
v -0.0271547 -0.0099008 -0.0283979
v 0.0298439 -0.0197463 -0.0291347
v 0.02301 -0.039644 -0.0345754
v 0.0289606 0.0167499 -0.0260172
v 0.0533924 -0.029328 -0.0219108
v 0.0300649 0.0273168 -0.0269527
v 0.02959 -0.00361182 -0.0265853
v 0.0262454 0.0107922 -0.0297819
v -0.0210555 0.0263949 -0.0313376
v 0.058397 0.0202319 -0.0281552
v 0.025566 0.001833 -0.027541
v 0.029655 0.016822 -0.027936
v -0.0328694 -0.0417293 -0.0296983
v -0.0274775 0.00541552 -0.0284466
v -0.00171367 0.0343586 -0.0299466
v 0.0309902 -0.0246285 -0.0297049
v 0.0276615 -0.0516748 -0.0195101
v 0.0172883 -0.0519679 -0.0136305
v -0.00545388 -0.0521191 -0.0205486
v 0.00523926 0.0338504 -0.0297132
v 0.0295371 -0.0052041 -0.0240283
v 0.0746052 -0.00205054 -0.0267488
v 0.0468746 -0.061715 0.000728583
v 0.0313363 -0.04175 -0.0306357
v 0.0294314 0.0138587 -0.0254685
v 0.0272576 0.0260622 -0.0258546
v 0.0338629 -0.0414141 -0.0253835
v 0.0200318 -0.0612629 -0.00952623
v 0.0228056 -0.0619615 0.0297423
v 0.0307603 0.0274318 -0.0208884
v 0.0295647 -0.00984491 -0.0234213
v 0.0412513 -0.0200746 -0.03209
v -0.0244775 -0.0615743 -0.0296472
v -0.0349544 -0.0245318 -0.027678
v 0.0391997 -0.0416179 -0.017665
v -0.0270777 0.0301305 -0.0243109
v -0.004687 0.028393 -0.028472
v -0.000490604 0.0302352 -0.0295459
v 0.0126779 0.033784 -0.027612
v 0.0337034 -0.023122 -0.0268829
v -0.0311404 0.0118331 -0.0230366
v -0.0294679 0.00645564 -0.0263701
v -0.0299171 0.00192923 -0.0249793
v -0.0330868 5.65534e-05 -0.0204235
v 0.0362776 -0.0252235 -0.0272447
v 0.0538235 0.0270917 -0.0232716
v 0.0539487 0.0187905 -0.0308442
v 0.0134541 0.0283632 -0.0256939
v 0.0084495 0.0327202 -0.0274257
v -0.0289152 0.0166012 -0.0260649
v 0.0296133 0.00152548 -0.0264175
v 0.0296384 0.0155355 -0.0263853
v -0.0278155 0.037765 -0.0135369
v 0.0296125 0.00874149 -0.0255152
v 0.00019767 0.0318084 -0.0282255
v -0.00503505 0.0288447 -0.027152
v 0.003229 0.028808 -0.027173
v -0.00209858 0.0310858 -0.0285046
v 0.029605 0.009831 -0.023268
v 0.0294278 -0.000576352 -0.0240535
v -0.0325596 0.0153455 -0.0228682
v 0.0425631 -0.0540228 -0.019722
v 0.00957686 0.0377089 -0.0197774
v 0.0944225 0.0292746 -0.0226311
v 0.029579 0.006717 -0.023327
v -0.0293753 -0.00466648 -0.0261456
v 0.029607 0.00405591 -0.0233165
v 0.0580715 0.0243128 -0.0249002
v -0.000357291 0.036449 -0.0205802
v -0.0213489 0.0311177 -0.0240837
v 0.0591562 -0.0236956 -0.0248826
v 0.00979 0.031083 -0.026795
v -0.0291737 -0.0515664 -0.0175989
v 0.011685 0.0315189 -0.0255043
v 0.0764841 -0.0280316 -0.0262515
v -0.0356091 -0.0144261 -0.0271089
v -0.0309123 0.0281479 -0.0207278
v 0.0303263 0.0226056 -0.025514
v -0.0344808 -0.0365555 -0.0213411
v -0.0346663 -0.023707 -0.0267167
v 0.00760304 0.0283883 -0.0309094
v 0.0124234 0.0288626 -0.0249807
v 0.0295796 1.88748e-05 -0.0260385
v -0.031133 -0.0232122 -0.0292103
v -0.029449 0.0328834 -0.0191357
v -0.031591 0.010525 -0.023533
v 0.0544541 -0.0269848 -0.0231388
v -0.0311638 0.0311635 -0.0190001
v 0.0596303 0.0130977 -0.0216781
v 0.00257149 0.031141 -0.0264469
v 0.0185298 0.0283218 -0.0170049
v 0.0377458 -0.0249004 -0.0246052
v 0.013136 0.0336901 -0.0249785
v -0.0335964 0.0170043 -0.0186925
v 0.0414856 -0.0287766 -0.023503
v 0.0234976 0.0286645 -0.016825
v 0.0295442 0.0122851 -0.0235892
v 0.0927462 -0.0343741 -0.0175739
v -0.025208 0.02843 -0.014852
v -0.0342879 0.0284655 -0.0125814
v 0.0762039 0.0339594 -0.0179183
v 0.022046 0.0283333 -0.0187744
v 0.017564 0.031058 -0.022539
v 0.0196618 0.0317968 -0.0201601
v 0.0312748 0.0252119 -0.0240281
v -0.0342597 -0.0120141 -0.0215469
v -0.0359111 -0.00491734 -0.0148677
v -0.0310441 -0.00330478 -0.0241596
v 0.0484153 -0.0334622 -0.0183942
v -0.0392988 -0.0244459 -0.0202089
v -0.0340199 0.0333046 -0.0209081
v -0.0311391 0.0272824 -0.0222602
v 0.029831 0.028346 -0.017355
v 0.0287211 0.0283037 -0.0118903
v -0.032245 0.033838 -0.021387
v -0.0362068 0.000169176 -0.014594
v -0.034446 0.006725 -0.018254
v -0.032549 0.033518 -0.021497
v 0.0762578 -0.0322339 -0.0208275
v 0.0929772 0.0319964 -0.0212786
v 0.0412418 -0.0325823 -0.0191679
v -0.0349217 0.0100962 -0.0175508
v -0.032547 0.033627 -0.021394
v -0.032489 0.033696 -0.02135
v 0.0169302 0.0360236 -0.0146975
v -0.038275 -0.0221259 -0.0192962
v -0.0349729 -0.0032889 -0.0178835
v -0.0348518 -0.00983171 -0.0156817
v 0.0372181 0.0329527 -0.0149603
v 0.0417144 -0.0316971 -0.0192492
v 0.00481522 -0.0519161 -0.0211297
v 0.0541216 -0.0303823 -0.0180752
v 0.0592786 0.0288423 -0.0185338
v -0.0371168 0.0273808 -0.020232
v 0.053922 0.032329 -0.016916
v -0.0147026 -0.0613521 -0.0163257
v 0.0589922 -0.0306461 -0.0151431
v -0.00815265 0.0366361 -0.0193956
v -0.000901511 -0.0597397 -0.0207352
v -0.003609 -0.0538 -0.019709
v -0.0391273 -0.0417738 -0.0203781
v 0.0378479 -0.031848 -0.0164462
v 0.0224597 0.0327552 -0.0184411
v 0.02271 0.0313111 -0.0143718
v -0.0318948 0.0285716 -0.0188889
v -0.041741 -0.041497 -0.019777
v 0.008245 -0.059529 -0.018309
v -0.0411467 -0.0151423 -0.0180032
v -0.0354056 0.027294 -0.014978
v -0.020215 0.0381487 0.0216363
v 0.023563 0.031044 -0.016255
v 0.0595764 -0.0201328 -0.0166595
v 0.0596535 0.0244896 -0.00734447
v 0.04608 -0.0395223 -0.0219123
v -0.0334088 0.028886 -0.0147771
v 0.031187 0.0308089 -0.0165293
v -0.0348978 0.0171835 -0.0133275
v -0.0357247 -0.0103049 -0.0159873
v -0.034233 0.014972 -0.014995
v 0.0107622 -0.0609316 -0.0177176
v -0.0365025 0.0265707 -0.0192282
v -0.0409987 -0.0416904 -0.0139361
v -0.0357135 0.0328637 -0.00854359
v -0.0402196 0.0277162 -0.018674
v 0.0749684 -0.0349723 -0.014146
v 0.092513 0.035661 -0.014207
v -0.034566 0.019921 -0.014217
v 0.0465835 -0.0554837 -0.00954768
v 0.0194263 0.0376359 -0.00993415
v -0.00838959 0.0363811 -0.0139113
v -0.0402562 0.0300744 -0.0167223
v -0.0144935 -0.0601688 -0.0144205
v 0.00502297 -0.0541607 -0.0198454
v 0.022416 -0.0346269 -0.0259874
v 0.0745602 -0.0245094 -0.00834211
v -0.0365805 0.0107377 -0.0147901
v -0.036279 0.011499 -0.014771
v 0.040245 0.0353449 -0.0125626
v -0.0366045 0.00609741 -0.0149786
v -0.0366986 0.00105314 -0.0146756
v -0.036106 0.001815 -0.014636
v -0.0320917 0.0329014 -0.0194285
v -0.0397181 0.0269975 -0.0155848
v -0.0348176 0.0118643 -0.0151777
v -0.0344971 0.02608 -0.0142796
v 0.037754 -0.05391 -0.009831
v -0.037067 0.0155365 -0.01402
v -0.0367117 0.0165298 -0.0139239
v -0.0390365 -0.0615416 0.000956269
v 0.0500225 0.033515 -0.0146274
v -0.0365703 -0.0031521 -0.0141298
v -0.036261 -0.003218 -0.014491
v -0.0126092 -0.0534262 -0.0157115
v -0.0389722 0.0206219 -0.0156627
v -0.0380772 -0.0120549 -0.0142028
v 0.043675 -0.041712 -0.0030898
v -0.0352459 0.00450749 -0.0142728
v 0.050194 0.033546 -0.014707
v 0.052894 0.0332917 -0.0148425
v 0.0539086 0.0341971 -0.0116878
v -0.014219 -0.053696 -0.01419
v -0.037283 0.033836 -0.011945
v 0.0247872 0.0316084 -0.0133966
v -0.0389074 0.0201848 -0.0182552
v -0.0392267 0.0262767 -0.0168054
v 0.0761792 -0.0369807 -0.0103741
v 0.0248165 0.0337468 -0.0178422
v -0.037817 0.032954 -0.012312
v 0.0753817 0.0365582 -0.00854914
v -0.0393503 0.0243951 -0.0152374
v -0.038671 0.025328 -0.015124
v 0.0747377 0.0288143 -0.0243177
v -0.0393632 0.0283396 -0.0121751
v -0.0413907 -0.0147798 -0.00901013
v -0.0382837 0.0264476 -0.014654
v -0.035884 0.011666 -0.014883
v -0.036039 0.011798 -0.014557
v -0.0378603 0.0257077 -0.0145874
v -0.03601 0.011634 -0.014833
v -0.036085 0.011642 -0.014731
v 0.0260161 0.0283229 0.00479663
v 0.0184696 0.0283257 0.0169763
v 0.0176442 0.0370778 0.00769139
v -0.0287428 0.0284084 0.0177311
v -7.77728e-05 0.0365627 -0.0135729
v -0.038359 -0.011413 -0.014425
v -0.0411351 -0.00925825 -0.0147236
v -0.036558 0.01123 -0.01465
v -0.0408205 -0.011674 -0.0140501
v -0.036574 0.006395 -0.014579
v -0.036615 0.01168 -0.014288
v -0.036494 0.000477 -0.014623
v -0.0349079 0.00824953 -0.0138534
v -0.035929 -0.003137 -0.01462
v 0.051108 0.033516 -0.014692
v 0.051099 0.033426 -0.014649
v 0.0585996 -0.0343872 -0.00572833
v -0.0408832 0.0225809 -0.0148787
v -0.035822 -0.003134 -0.014671
v -0.0356998 0.00190623 -0.0147997
v -0.0357244 0.00727554 -0.0143162
v -0.0371564 0.0107673 -0.0142863
v -0.035929 -0.003105 -0.014523
v -0.036756 0.006316 -0.014444
v -0.036667 0.006352 -0.014505
v -0.036773 0.011275 -0.014407
v -0.036504 0.001492 -0.014642
v 0.0502344 0.0335947 -0.0144283
v -0.036676 0.001412 -0.014506
v -0.036584 0.001455 -0.014579
v -0.036585 0.00052 -0.014559
v -0.035941 -0.00012 -0.014322
v -0.03667 0.000458 -0.014427
v -0.0346321 -0.00297081 -0.014454
v -0.0410347 0.0242208 -0.0144895
v -0.036075 2.5e-05 -0.014437
v -0.0368185 0.00191218 -0.0142372
v -0.036164 -1.2e-05 -0.014367
v 0.0504434 0.0337227 -0.0141071
v -0.037126 0.006177 -0.014244
v -0.036316 4.1e-05 -0.014347
v 0.0498859 0.03405 -0.0133766
v 0.0500735 0.03384 -0.0138895
v 0.0513773 0.0342176 -0.0128531
v -0.037302 0.000711 -0.01417
v -0.036864 0.006388 -0.0143265
v -0.034785 -0.005706 -0.013706
v -0.0349909 0.0139703 -0.0139913
v -0.0397127 -0.00108907 -0.0137847
v -0.03664 0.004564 -0.014174
v -0.037315 0.005827 -0.014197
v -0.037305 0.01098 -0.014196
v -0.037408 0.005759 -0.014166
v -0.037517 0.005837 -0.014148
v -0.03746 0.010973 -0.014152
v -0.037395 0.011049 -0.014169
v -0.0413556 -0.00574942 -0.0128542
v -0.037709 0.005932 -0.014125
v -0.037685 0.010932 -0.014126
v -0.0347804 -0.000945324 -0.0138516
v -0.0364295 0.0328682 -0.00892826
v -0.0389151 0.0203726 -0.0142796
v -0.0369738 -0.00420417 -0.0138946
v -0.0364084 -0.00498266 -0.0138087
v -0.0413611 0.0151427 -0.0136839
v 0.015433 -0.0573564 -0.0115927
v -0.03697 -0.004462 -0.013763
v -0.0411455 0.0187816 -0.0129659
v -0.041056 -0.005971 -0.013342
v -0.03706 -0.004424 -0.013713
v -0.037189 -0.00441 -0.013636
v -0.0165415 -0.0522703 -0.0131046
v -0.037382 -0.003883 -0.013634
v -0.0406111 0.0257581 -0.0132843
v -0.037522 -0.004587 -0.013456
v -0.0389892 -0.0132494 -0.0112733
v -0.037492 -0.003891 -0.013579
v -0.037599 -0.00382 -0.013547
v -0.037585 -0.00411 -0.01353
v -0.0384721 -0.03635 -0.0126689
v -0.0376399 -0.00372224 -0.0135283
v 0.052119 0.0343912 -0.0122355
v 0.0493874 0.0344503 -0.0123553
v 0.0422872 -0.0339304 -0.0103755
v -0.041397 -0.011158 -0.006846
v -0.0362621 0.031185 -0.00714509
v -0.0208814 -0.0613274 -0.00679414
v -0.0425566 -0.0146508 -0.000696272
v 0.0503027 0.0344224 -0.0123392
v -0.0387874 -0.0140429 -0.011564
v 0.0932403 -0.0380033 -0.00494778
v 0.0939851 0.0362848 -0.0104283
v 0.0766288 0.0384905 -0.00272873
v 0.0278271 0.0314653 -0.0059472
v 0.0495388 0.0348905 -0.0110831
v -0.037637 0.033323 -0.012141
v 0.0401735 0.035452 -0.00410685
v 0.049785 0.03451 -0.012033
v -0.037654 0.033232 -0.012079
v 0.0521416 0.0354576 -0.00876669
v 0.0538758 0.0357115 -0.00731994
v 0.050671 0.034594 -0.011689
v 0.0500149 0.0352071 -0.0100365
v 0.0514182 0.034786 -0.0111986
v -0.0411419 -0.0122739 -0.0125309
v -0.03741 0.033585 -0.011406
v -0.037587 0.03341 -0.012096
v 0.0497878 0.0345497 -0.0120148
v -0.040102 -0.0125143 -0.0118368
v 0.0212132 0.0377379 0.00900786
v 0.0267746 0.0287971 -0.0080239
v -0.0442348 -0.0155498 -0.0089908
v 0.0493665 0.0352424 -0.00996295
v 0.050901 0.035108 -0.010124
v 0.0513293 0.0350114 -0.0104971
v 0.051286 0.034933 -0.0105615
v -0.0256094 0.0364578 -0.0146775
v -0.038309 0.034064 -0.005629
v -0.0364687 -0.0117114 -0.00980682
v 0.049959 0.035156 -0.009979
v 0.049733 0.035241 -0.009763
v 0.0381343 -0.0535181 -0.0014835
v 0.050699 0.035359 -0.009523
v 0.0514544 0.035246 -0.00967504
v 0.0288025 0.0335248 -0.00961397
v 0.05005 -0.036371 -0.004968
v 0.0301389 0.0336311 -0.00452561
v 0.0578474 0.0333259 -0.0110339
v 0.050574 0.035409 -0.009092
v 0.04972 0.035378 -0.009589
v 0.0499179 0.0354886 -0.0090121
v 0.050191 0.035427 -0.008943
v 0.049723 0.03533 -0.009384
v -0.0369241 0.0267364 -0.00722499
v -0.0317427 -0.0345635 -0.013582
v -0.0394496 -0.0261635 -0.00903281
v -0.0411443 0.0252564 -0.0105004
v 0.0501239 0.035608 -0.0083927
v -0.0375587 -0.0140718 -0.000501688
v -0.0371202 -0.0177465 -0.00948334
v 0.0539823 -0.0356894 -0.00499727
v 0.0508191 0.0357138 -0.00775099
v 0.0219461 -0.0518254 0.00521515
v -0.0367693 0.0288859 -0.000351705
v 0.0512295 0.0358067 -0.00728481
v 0.0497451 0.0361583 -0.00577268
v 0.0504945 0.0359551 -0.00664543
v 0.0539733 0.0361851 -0.00143425
v 0.0200215 -0.0598862 -0.0036684
v -0.0188384 -0.0584328 -0.00525598
v 0.0204597 -0.0532601 -0.000431785
v -0.03737 0.0323321 -0.00141283
v 0.0314681 0.034714 -0.00535523
v 0.0508083 0.0360559 -0.00593411
v 0.0522571 0.0362552 -0.00436014
v 0.0746526 0.0243674 -0.00936222
v 0.0424762 -0.0415232 -0.00158857
v -0.0431796 -0.0415464 -0.00161735
v 0.0759094 -0.0384013 0.00269381
v 0.0595814 0.0334482 0.0029668
v -0.0202542 -0.0532503 0.00187471
v 0.0340999 -0.0346917 0.00133208
v -0.0326863 -0.0515665 0.00701157
v -0.0299232 -0.0345615 0.0151921
v 0.0279351 0.0288079 0.00381309
v 0.0290308 0.0313919 -0.00469421
v -0.0403126 -0.0361193 -0.0050547
v -0.037023 0.0327349 -0.000236186
v -0.0400972 -0.0121087 -0.00712544
v -0.0421128 -0.0412881 0.0048355
v 0.028694 0.03103 -1.8e-05
v 0.027372 0.0320179 0.00578754
v -0.040474 -0.014474 -1.9e-05
v 0.049504 0.036524 -0.002854
v 0.0500728 0.0364521 -0.00322294
v 0.0515538 0.0363793 -0.00336014
v -0.0259706 0.0367723 0.0131125
v 0.047559 -0.0406601 -0.00103939
v -0.0384722 0.0343167 0.00490077
v 0.0559643 0.0358351 -0.00182124
v 0.0488464 -0.0372027 -0.00373074
v 0.0418226 0.0368622 0.00371109
v 0.0470986 -0.0548362 0.00829887
v 0.0524642 0.0364868 -0.00158112
v 0.049445 0.036544 -0.001472
v 0.0475515 -0.0393625 0.00131958
v -0.0206105 -0.0608503 0.00330496
v 0.0439161 -0.041016 0.00240189
v -0.0408775 0.0263682 -0.00165703
v 0.092378 -0.038436 0.002135
v 0.0929955 0.038329 -0.00206373
v 0.0929762 -0.0380983 0.00416997
v 0.0747579 -0.0364864 0.00664413
v 0.052404 0.036511 -0.000278
v -0.0410573 -0.0142655 -0.000536329
v 0.0516332 0.0365344 -0.000746128
v 0.0498569 0.036597 -0.000335832
v 0.052021 0.036484 -0.000257
v 0.049803 0.036666 0.000455
v 0.052058 0.0365457 -0.000170713
v 0.030246 0.0341267 0.00488793
v -0.0212917 -0.0522619 -0.00116631
v 0.028715 0.032508 0.003324
v -0.0368873 0.0328624 0.00714062
v -0.0402561 -0.0367114 0.00432784
v 0.0287303 0.028322 0.00610507
v -0.038935 0.027294 0.005509
v 0.0539321 0.036435 0.0025033
v -0.047579 -0.0476945 3.0999e-05
v 0.0493101 0.0365496 0.00201427
v -0.0363841 0.0265361 0.00810167
v -0.0403994 -0.0139363 0.00248298
v 0.0587041 0.0325425 0.0121037
v 0.093947 0.0370921 0.00810597
v 0.0414389 -0.0356277 -0.000582901
v -0.0363316 -0.0140343 0.0100513
v 0.0537964 -0.0345953 0.0123448
v 0.0524255 0.0360712 0.00582543
v -0.0326473 -0.0477717 0.0203834
v 0.0390589 -0.0479105 -0.00605529
v 0.047529 -0.041675 0.024127
v 0.0425625 -0.0342845 0.0095126
v 0.0271166 0.0327762 0.0104027
v 0.0382605 0.0341722 0.012592
v -0.0413775 0.025271 0.00856509
v -0.0410457 -0.0148743 0.0176488
v -0.0449431 -0.0154403 0.00329216
v -0.0407317 -0.0119898 0.00695761
v -0.0415526 -0.00980802 0.0113812
v 0.027383 0.031038 0.008615
v -0.0356876 0.0311132 0.00893897
v -0.0376827 0.0274703 0.00694027
v -0.036553 0.0272417 0.0142215
v 0.0509166 0.0362322 0.00491645
v 0.0227865 -0.0346632 0.0247456
v 0.028713 0.03375 0.009628
v 0.0584782 -0.0338923 0.00677337
v 0.0942711 0.03405 0.0153126
v 0.0760296 0.036558 0.0117802
v 0.0321946 -0.0516773 0.0133083
v -0.016635 -0.0523536 0.0129918
v -0.0421281 -0.0415392 0.0183975
v 0.052362 0.035973 0.006255
v 0.0595675 -0.0248423 0.0070455
v 0.0537891 0.0354458 0.00754795
v -0.0394184 -0.0126612 0.0093554
v -0.0392996 -0.0366122 0.00986781
v 0.030704 0.0321949 0.0129178
v 0.0508426 0.035848 0.00718351
v -0.0406705 0.0250138 0.00807752
v -0.0176741 -0.0613739 0.0125218
v 0.0511739 0.0353654 0.00920503
v 0.0524174 0.035614 0.0081014
v -0.0373632 -0.0137699 0.00904631
v -0.0339516 0.0288683 0.0144059
v 0.0495714 0.0352705 0.00998827
v 0.0428273 -0.0615067 0.0196611
v 0.0292457 0.0311259 0.011683
v 0.0426891 -0.0542246 0.0203042
v 0.0539268 0.0344389 0.0121571
v 0.0220315 0.0296807 0.0177752
v 0.0762692 -0.0349612 0.0164741
v -0.041336 0.0250279 0.0141568
v 0.0416201 -0.0415427 0.00877304
v 0.0168455 -0.0598335 0.0111775
v -0.0180339 -0.0587525 0.00829939
v -0.0385281 -0.0242683 0.0364537
v -0.0405912 -0.0119256 0.00996294
v 0.039466 -0.0479145 0.0388065
v -0.040261 -0.041512 0.036845
v 0.043136 -0.041667 0.024127
v 0.0747019 0.0359461 0.00869752
v 0.0375208 -0.0319161 0.0156093
v 0.0338375 -0.0534777 0.0176422
v 0.047573 -0.034431 0.019942
v -0.0389059 -0.012963 0.0121548
v -0.0373417 0.0337338 0.0115948
v -0.0411969 -0.0123198 0.0122629
v 0.014235 -0.059545 0.014274
v -0.0110391 -0.0595457 0.0166144
v -0.0377516 -0.0111615 0.0149512
v -0.03755 -0.03666 0.015133
v 0.0123512 -0.0521387 0.0176329
v -0.0412504 -0.0105994 0.0151092
v 0.0545019 -0.0340649 0.0110165
v -0.0401607 0.0273839 0.0158838
v 0.0749408 -0.0299427 0.0230106
v 0.0349426 -0.0405491 0.0229624
v 0.0925552 0.0358883 0.0137654
v 0.0539137 0.0291291 0.0215064
v -0.0344941 0.0266286 0.0151147
v -0.00809594 -0.0517621 0.0209596
v -0.0398741 0.0308661 0.0179178
v 0.0363642 0.0321585 0.0170443
v 0.0237486 0.0285855 0.0163964
v 0.0177053 0.0282626 0.0234883
v -0.0412426 -0.0054244 0.0130305
v -0.0404475 -0.0118502 0.0140265
v -0.000153375 0.0364792 0.0146839
v -0.00867023 0.03655 0.0160467
v -0.0221783 -0.0515716 0.0253832
v -0.0328195 0.0329106 0.015333
v 0.0395244 0.0347178 0.013167
v -0.038644 -0.01178 0.014185
v -0.0409754 0.0185564 0.0132761
v -0.0404914 -0.00465101 0.0133053
v -0.040812 -0.000625 0.01408
v -0.037319 -0.003243 0.013726
v -0.038204 0.01973 0.01386
v 0.0538482 -0.0257352 0.025816
v 0.0199761 -0.0611669 0.00982839
v -0.0410312 0.0136999 0.0140532
v -0.0374264 -0.00417329 0.0136915
v -0.037599 -0.003823 0.01366
v -0.037376 -0.003792 0.013745
v -0.0373639 0.0160733 0.0139539
v -0.0349372 0.0181568 0.0134278
v 0.074576 -0.0217058 0.0135362
v 0.0595832 -0.013009 0.0218538
v 0.0603942 0.0216962 0.0148815
v -0.0351 -0.00511515 0.0139962
v -0.0407552 0.0246288 0.014639
v -0.0373806 -0.0117826 0.0153666
v -0.036683 0.016578 0.013971
v -0.037266 0.014988 0.014081
v -0.036856 -0.00447 0.013976
v -0.0375952 0.0157218 0.0139388
v -0.038803 0.020072 0.014027
v -0.036826 -0.00441 0.014073
v -0.0366814 0.0164561 0.014105
v -0.03725 0.015535 0.014056
v -0.0365256 -0.00476948 0.0143679
v -0.038151 0.020043 0.014348
v -0.0365245 0.016516 0.014168
v -0.036738 -0.004446 0.014152
v -0.036688 0.016433 0.014135
v -0.039076 0.020242 0.014056
v -0.039305 0.0203036 0.0140354
v -0.039291 0.020334 0.014055
v -0.036828 -0.000264 0.014243
v -0.03712 0.015485 0.014116
v -0.038789 0.020138 0.014101
v -0.03883 0.020254 0.014201
v -0.0367777 -0.00436322 0.0141685
v -0.039652 0.021855 0.014945
v -0.038693 0.020121 0.014144
v -0.0370676 0.0155943 0.0141594
v 0.020901 0.033681 0.0220359
v -0.0352249 -0.00289019 0.0146975
v -0.0364509 0.0149147 0.0143723
v -0.036923 0.015504 0.014243
v -0.0365504 0.016442 0.0143469
v -0.0322448 -0.00312994 0.0193045
v -0.036222 0.004231 0.01427
v -0.037732 0.000991 0.01424
v -0.0373518 0.0113099 0.0143228
v -0.038594 0.020119 0.014231
v -0.037534 0.001087 0.014263
v -0.037673 0.001081 0.014243
v -0.037438 0.000837 0.01427
v -0.037308 0.001227 0.014299
v -0.036875 0.000276 0.014343
v -0.0348626 0.00314088 0.0142316
v -0.0408371 0.0223182 0.0149587
v -0.037288 0.000708 0.014299
v -0.037126 0.000725 0.014372
v 0.012509 -0.061551 0.018374
v -0.036834 0.011187 0.014505
v -0.037021 0.000691 0.014411
v -0.0360028 0.00766524 0.0141866
v -0.0318101 0.0328554 0.0199648
v -0.0346941 0.0138782 0.0138327
v -0.036853 0.001433 0.01446
v -0.036909 0.011248 0.014439
v -0.036199 0.004877 0.014516
v -0.036912 0.005439 0.014404
v -0.036688 0.005902 0.014701
v -0.0373373 0.00589936 0.0143095
v -0.0361879 0.000172452 0.0146832
v -0.036904 0.00626725 0.014472
v -0.036715 0.005464 0.014545
v -0.036739 0.000522 0.01453
v -0.0365941 0.001546 0.0148543
v -0.0351632 0.00850674 0.0139964
v -0.0362692 -0.00228083 0.01397
v -0.036639 0.000477 0.014585
v -0.036124 0.005144 0.014861
v -0.036548 0.000434 0.014637
v -0.036601 0.006413 0.014649
v -0.036573 0.005468 0.014694
v -0.0320798 0.016963 0.0204389
v -0.036634 0.006321 0.014677
v -0.036463 0.006504 0.0147
v -0.03641 0.006393 0.014967
v -0.0376419 0.0263804 0.0148389
v -0.0356604 0.0116977 0.0151323
v -0.0428966 -0.0246791 0.0174901
v -0.031898 0.026929 0.019535
v -0.0386803 0.020504 0.0152053
v -0.0383938 0.0255428 0.0149638
v -0.0368746 0.016033 0.0152319
v -0.0404911 -0.0109825 0.0147753
v -0.0424683 -0.0160904 0.0153022
v -0.025194 0.035646 0.016272
v 0.057994 -0.0290846 0.0191857
v -0.032352 0.000285881 0.0226902
v -0.0396907 0.0239157 0.0151463
v -0.03307 0.00150708 0.0215264
v -0.0342435 -0.00960112 0.0156561
v -0.0296532 0.00681629 0.0233544
v 0.00926035 -0.0594855 0.0179769
v 0.0165553 -0.0551684 0.0115995
v -0.038778 0.020563 0.015541
v -0.041579 -0.041503 0.01994
v -0.0380986 -0.0416033 0.0208218
v -0.0391 0.021674 0.015949
v -0.0396249 0.0206779 0.0174135
v 0.0761488 0.0313105 0.02208
v 0.0305626 0.0280307 0.0202788
v 0.0169294 0.0283412 0.0264642
v -0.0394796 0.0266573 0.0163186
v 0.0224895 0.031083 0.0172654
v 0.00728963 0.0283499 0.0262085
v -0.020024 0.03625 0.016272
v 0.0177268 0.0328483 0.023114
v -0.00111009 0.0363163 0.0210809
v 0.016465 0.0358078 0.0161256
v -0.000391714 0.0365934 0.0207771
v 0.0218577 0.0282474 0.0284421
v 0.0490292 -0.0324277 0.0187609
v -0.0347764 -0.00989941 0.0170307
v -0.0358012 0.0273807 0.0206028
v 0.0364455 -0.0416016 0.0224826
v -0.00871 -0.052103 0.019468
v 0.0594227 -0.0306326 0.0153518
v -0.033625 -0.004367 0.020637
v 0.0381974 -0.0416508 0.0257165
v -0.0398801 0.0273126 0.0182733
v -0.0288621 0.0328663 0.0200743
v 0.0581133 -0.0261599 0.023006
v 0.0148791 0.0337853 0.0264269
v 0.0586819 0.0234676 0.025294
v -0.0314953 0.031158 0.0199609
v -0.0387534 -0.0150737 0.0229177
v 0.0575309 0.028066 0.0211379
v -0.0380653 0.0264212 0.0191963
v -0.03589 0.027286 0.018998
v -0.035344 0.032389 0.020626
v -0.0382772 -0.0143977 0.0187954
v -0.0405504 -0.0149133 0.0182341
v -0.0388856 0.020176 0.018469
v 0.0933873 -0.0325403 0.0199943
v 0.094633 0.0248681 0.0276422
v -0.02991 0.028824 0.020923
v -0.00680355 -0.0568377 0.0183696
v -0.0320158 0.0199634 0.0194036
v 0.0924945 0.0325645 0.020467
v -0.00556548 -0.0614617 0.0211453
v 0.016626 0.030929 0.021872
v 0.0924486 -0.0290004 0.0254989
v -0.0391208 0.0274157 0.0196745
v 0.0036835 -0.0580839 0.0191279
v -0.00270023 -0.053339 0.0201797
v 0.0409695 -0.0320508 0.0198076
v 0.0415989 -0.0323495 0.01909
v 0.041897 -0.041664 0.024165
v -0.032643 -0.011137 0.023161
v 0.003863 -0.052128 0.020984
v -0.0308295 -0.00294579 0.0227328
v -0.03027 0.0302877 0.0192977
v 0.00574687 -0.0614791 0.021329
v 0.0192857 0.0318077 0.0214157
v -0.0316754 0.0285521 0.0198217
v -0.0312881 -0.0115335 0.0255426
v -0.0313146 0.0100033 0.0238135
v 0.0368073 0.024552 0.0285561
v 0.0746174 -0.0149267 0.0333711
v 0.074727 0.024072 0.027347
v 0.0594762 0.0147576 0.0301755
v 0.0316141 0.0285843 0.0251621
v -0.0386799 -0.023239 0.019439
v -0.0262639 0.00680491 0.0293927
v -0.031708 0.005609 0.023515
v -0.0339695 0.0111118 0.0202532
v 0.0190602 0.0326262 0.0191568
v -0.031514 0.001209 0.023741
v -0.0314034 0.0338333 0.0220915
v 0.0056274 -0.0516845 0.0218899
v -0.0225236 -0.0615806 0.0312495
v -0.005301 0.031074 0.028075
v 0.00488712 0.0328072 0.0283829
v 0.0373361 -0.0248257 0.0247573
v 0.0113884 0.0336888 0.028162
v -0.0326799 -0.0367175 0.0244711
v 0.0255381 0.0271217 0.0271555
v 0.00429024 0.0326671 0.0284643
v -0.00243647 0.032771 0.0287305
v -0.038503 -0.041509 0.025126
v 0.0420874 -0.0308574 0.0206514
v -0.0292396 0.0271446 0.0233717
v -0.0265973 -0.00491751 0.0265471
v 0.00358996 -0.061638 0.0379352
v -0.0215564 0.0339726 0.0255186
v -0.0247147 0.0283802 0.0236625
v -0.00534082 0.0288352 0.0274366
v 0.0298619 -0.021957 0.0275132
v -0.0375501 -0.0248839 0.0247845
v 0.0277202 -0.0478322 0.0262424
v -0.00337354 0.0283968 0.0287318
v -0.0313194 -0.00419752 0.0241865
v 0.000969688 0.0340994 0.0299149
v 0.0596252 0.0092102 0.0235481
v 0.0746325 0.0177261 0.0200776
v 0.0406967 -0.0242624 0.0308308
v 0.0764376 0.0260238 0.0283429
v 0.0319891 0.0251746 0.0247869
v -0.0387955 -0.0224459 0.0270217
v -0.02973 0.01607 0.025948
v 0.00894831 -0.0516444 0.0322128
v -0.006175 -0.051612 0.032513
v 0.054085 -0.0226469 0.0272914
v 0.0299123 0.0245812 0.0230173
v 0.0412634 -0.0416449 0.0248956
v -0.0292886 0.0117645 0.0259838
v 0.0239857 -0.0540421 0.0308601
v 0.0295584 -0.00522741 0.0241604
v 0.0295878 -0.00328274 0.0249943
v 0.0296235 0.0109345 0.0256731
v 0.0295714 0.0166637 0.023924
v -0.0243497 0.0290372 0.0251634
v 0.0580723 -0.0203707 0.0282884
v 0.0293862 -0.0614081 0.0369755
v 0.0292608 -0.0617826 0.0363492
v 0.041935 -0.025753 0.026624
v -0.0277687 0.00189558 0.0253805
v -0.03294 0.00551336 0.0213896
v 0.0745917 -0.00725211 0.0243918
v 0.059606 -0.001702 0.025076
v -0.0328879 -0.0228618 0.0275308
v 0.035915 -0.054436 0.030492
v -0.0218342 0.0278959 0.0291177
v 0.0398829 -0.0416287 0.0380309
v 0.0294906 0.0157113 0.0275687
v 0.0096799 0.0291865 0.0257972
v 0.0296537 0.000543951 0.0264166
v 0.000228584 0.0326607 0.0265377
v -0.0211366 -0.00949561 0.0313093
v -0.0276844 -0.00337077 0.0282181
v -0.0323438 0.000391765 0.019954
v 0.0294747 0.00398991 0.023793
v -0.0287339 0.00598247 0.0272554
v 0.093689 -0.026046 0.027273
v -0.0275925 0.00177932 0.0280191
v 0.0595167 -0.00821764 0.0329185
v 0.0748103 0.0134797 0.0352645
v -0.0361992 -0.0145061 0.0267019
v 0.009844 0.031068 0.026903
v 0.092483 0.0280726 0.026311
v -0.0327241 -0.0414681 0.0273102
v 0.029569 -0.00974094 0.024656
v 0.0274061 -0.0368289 0.029989
v -0.0354039 -0.0243411 0.0271154
v -0.0355602 -0.0415175 0.0284363
v 0.029895 0.02655 0.028169
v 0.028517 -7.47715e-05 0.0257196
v 0.0294079 0.00982149 0.0240333
v 0.0294675 0.0147584 0.0239589
v -0.0237254 0.00494873 0.0310301
v 0.00773084 0.0303643 0.0265542
v 0.0296201 0.00658214 0.0261144
v -0.03901 -0.0477484 0.0392299
v 0.029577 -0.017154 0.030609
v -0.0245321 -0.00483539 0.0307893
v 0.0124983 0.0325128 0.0261191
v 0.0230335 -0.0535771 0.0298467
v 0.024778 0.00199399 0.0290919
v -0.0279383 0.0148495 0.0255734
v -0.0281717 0.0149499 0.0274218
v 0.029627 0.016335 0.026256
v 0.0293591 -0.0108165 0.0278586
v 0.0574988 0.0190706 0.0296686
v -0.0350441 -0.0248787 0.0278698
v 0.0296189 0.00505523 0.0261501
v 0.027221 0.024838 0.029866
v 0.036732 -0.0252869 0.0267753
v 0.005738 0.031069 0.028041
v 0.0752973 -0.0183905 0.0329587
v 0.00825028 0.0285151 0.0278743
v 0.028271 -0.041628 0.032348
v -0.0262747 0.0167877 0.0285197
v 0.0233464 0.014805 0.0319377
v 0.0262155 0.0164283 0.0296504
v -0.025968 0.000502 0.029733
v -0.0224473 0.0115247 0.0326147
v 0.0413406 -0.0217843 0.0303131
v -0.0270789 0.0100416 0.0289989
v 0.021779 -9.60371e-05 0.0326584
v 0.0204889 0.00978805 0.0336546
v 0.0350442 -0.0245304 0.0276894
v 0.0346191 -0.0416494 0.0291468
v 0.0212876 0.000331965 0.0337876
v 0.0245868 0.00512582 0.0310595
v 0.026873 -0.004396 0.029119
v -0.001379 0.0299536 0.0275703
v 0.025932 0.015385 0.030006
v 0.032805 -0.023092 0.0278237
v -0.0360396 -0.0194237 0.0286862
v -0.0327446 -0.013661 0.027083
v 0.000456 0.031091 0.028618
v 0.0538838 -0.0159597 0.0319835
v 0.0766928 -0.0236666 0.030485
v 0.092499 0.023895 0.030114
v 0.0186962 0.02697 0.0324394
v 0.034581 -0.025175 0.028299
v -0.023374 -0.0411197 0.0354751
v -0.0325463 -0.0174877 0.0324786
v 0.0924298 -0.0221656 0.0315631
v 0.029139 0.00688739 0.0250056
v 0.0584435 -0.0146846 0.0314139
v 0.00271234 0.0282071 0.0359512
v 0.0261263 0.0238974 0.0311347
v 0.0315814 -0.0244311 0.0292435
v 0.0250742 -0.0044715 0.0309478
v -0.0319292 -0.0238395 0.0288243
v -0.0186757 -0.00296172 0.0326951
v 0.0418486 -0.0165415 0.0332869
v 0.0539034 0.022628 0.0289526
v -0.0209255 -0.00395374 0.0337833
v 0.0219882 -0.00961201 0.0307117
v 0.019548 -0.00521828 0.0325013
v -0.0250556 0.0153048 0.0305621
v -0.0171857 0.0265927 0.0332672
v -0.0279452 -0.0109143 0.0290003
v 0.0252856 0.0105094 0.0307024
v 0.0173383 0.00456915 0.0340741
v 0.0225551 0.0116739 0.0324844
v 0.012768 0.00970435 0.0358992
v 0.0181482 0.0146695 0.0331181
v -0.0117688 -0.0478132 0.0361753
v 0.058768 0.011827 0.032167
v -0.029434 -0.0244898 0.0312432
v -0.00194837 0.0283853 0.0305976
v 0.000222646 0.0334343 0.0304797
v 0.0925119 0.0195472 0.0331657
v 0.0243527 0.0013372 0.0313701
v -0.0278883 -0.0415293 0.0363806
v 0.027241 -0.022629 0.033143
v 0.0250982 0.0113047 0.0306828
v 0.0218893 -0.0118858 0.034233
v -0.022935 -0.036697 0.033485
v -0.0184842 0.00564485 0.0350861
v 0.0183302 0.0117821 0.0333091
v -0.0170504 -0.0030411 0.0356382
v -0.0220568 -0.0104755 0.0361144
v 0.0287581 -0.0541444 0.0367737
v -0.0224757 0.0164458 0.0324423
v 0.024459 0.021771 0.033432
v -0.020922 0.001862 0.033229
v -0.0222978 0.00649861 0.0326287
v -0.0178538 0.0117449 0.0352409
v 0.075972 0.0181237 0.0337172
v -0.019898 -0.041523 0.037883
v -0.0350852 -0.0216573 0.0352907
v 0.0248903 0.00645525 0.0308866
v 0.0539427 0.0135778 0.0326016
v 0.0198416 0.0163825 0.0342568
v 0.0291608 -0.0242594 0.0316908
v 0.040942 -0.018171 0.033184
v -0.00950749 0.00956812 0.0369126
v -0.015614 -0.009648 0.035578
v 0.0538766 0.00815156 0.0360672
v -0.0249053 0.00987388 0.0288157
v 0.0928381 -0.0157221 0.0350997
v 0.0261308 -0.0403331 0.0327854
v -0.014341 -0.00492167 0.0366591
v 0.0184819 0.0167243 0.0329127
v 0.0581278 0.00545813 0.0345982
v -0.0220739 0.000188531 0.0328796
v 0.00550694 -0.0434331 0.0326187
v -0.00741767 -0.0396143 0.0322096
v -0.00312848 -0.0451132 0.0329638
v -0.028249 -0.0246739 0.034074
v 0.076681 -0.016145 0.034969
v 0.0370259 0.00748935 0.037022
v 0.019464 -0.004669 0.034482
v 0.0219945 0.0153371 0.0331007
v 0.0202357 -0.00283198 0.0327201
v -0.0182029 0.0010651 0.0352604
v 0.0139809 0.0260838 0.0349267
v 0.0120377 -0.0478521 0.036344
v 0.00696006 -0.041129 0.0417192
v 0.0214864 0.0105435 0.0335124
v -0.0065794 -0.0414705 0.0422412
v 0.0581608 -0.00505481 0.0344783
v -0.0208297 -0.0112262 0.0346073
v 0.053845 -0.007127 0.03593
v -0.0132902 0.00695507 0.0356718
v 0.0155114 0.00203152 0.0349503
v 0.0024775 -0.0458368 0.0471517
v 0.0271289 -0.0231391 0.033551
v -0.0230119 -0.0237103 0.0373142
v -0.0269874 -0.0229239 0.0335423
v 0.0388479 -0.0160724 0.0361908
v 0.0199783 0.00531827 0.0342728
v 0.0158856 0.00601717 0.0364571
v 0.01744 0.00135 0.035593
v 0.0269394 -0.0236062 0.0345224
v -0.017204 0.005138 0.03551
v 0.04011 -0.0157744 0.0344991
v 0.0186242 -0.00444785 0.0352567
v 0.019111 -0.011116 0.035429
v 0.0183255 0.0175334 0.0368746
v 0.0932801 0.0154101 0.0350369
v 0.0543094 -0.0102674 0.0342239
v -0.0330723 -0.0199103 0.0342131
v 0.057461 0.003772 0.034837
v 0.014283 -0.0416451 0.0407101
v 0.0539511 0.0034079 0.0351107
v -0.0165265 0.01042 0.0362127
v 0.0391 -0.00878343 0.0363429
v 0.00262807 -0.00529164 0.0385545
v 0.0124671 0.016717 0.0374779
v -0.00953945 0.0268529 0.0360489
v 0.0575296 -0.00163379 0.0350115
v -0.013379 0.00217737 0.0360685
v -0.027618 -0.01736 0.036013
v -0.0178108 0.0145642 0.0341591
v -0.0250265 -0.0203513 0.0385955
v -0.014676 0.000426 0.036737
v 0.0102973 -0.00920028 0.0365163
v -0.0252018 -0.0248874 0.0375136
v 0.012238 0.0105889 0.0379721
v 0.0940112 0.00605324 0.0370723
v 0.0153866 0.0145959 0.0358345
v 0.00883212 0.00187423 0.0383865
v 0.0276493 -0.0247537 0.035598
v 0.006687 -0.047849 0.04659
v 0.00785274 0.0272738 0.0363538
v 0.0762397 0.0108342 0.0368502
v 0.0127168 0.0071344 0.0362423
v 0.011348 0.016798 0.035867
v 0.008939 -0.005103 0.038199
v 0.01296 -0.000187137 0.035427
v -0.00779623 -0.0374567 0.0403489
v 0.0278909 -0.041632 0.0370154
v -0.00932105 0.0119183 0.036688
v -0.0113809 -0.00343176 0.0379696
v -0.0108061 0.000115354 0.0380439
v 0.0756102 -0.00842731 0.0371954
v -0.0270648 -0.0250628 0.0362535
v -0.0284132 -0.0131702 0.0349291
v 0.0105671 -0.000181951 0.0378631
v -0.012005 -0.0102835 0.0380696
v 0.0934123 -0.00867575 0.0371916
v 0.0923486 0.00726566 0.0379088
v -0.00870841 -0.0049538 0.0384571
v -0.013523 -0.000118765 0.0353955
v 0.011532 0.010818 0.041244
v 0.0137744 -0.0107512 0.0379074
v 0.0931037 -0.00120765 0.0383469
v -0.0121286 -0.0117835 0.0387499
v -0.016026 0.00480447 0.0358131
v 0.012817 -0.003284 0.037377
v 0.0126392 0.00158027 0.0375137
v -0.00175732 0.0269976 0.0373056
v 0.0262087 -0.0251685 0.0370902
v -0.0132614 0.0158693 0.0374169
v 0.00785196 0.00973562 0.0386392
v -0.0075448 0.0153665 0.0389826
v 0.005145 -0.002899 0.037282
v 0.005176 0.01192 0.037284
v -0.0114791 0.00685611 0.0376596
v -0.003896 0.014583 0.037434
v 0.004335 0.016884 0.037407
v -0.036293 -0.023701 0.037939
v -0.0132481 -0.00506484 0.0356826
v -0.03862 -0.0257748 0.0372986
v -0.00216288 0.00977062 0.0393697
v -0.0145029 0.0168726 0.0359586
v -0.00427889 -0.00268638 0.0378925
v -0.017099 -0.022413 0.039278
v -0.0212275 -0.0104861 0.0392779
v 0.00875776 -0.00303604 0.0385414
v 0.00117681 0.00717205 0.0386167
v 0.00961611 0.0118447 0.0382161
v 0.0236252 -0.0246537 0.0377279
v 0.075478 0.001826 0.037678
v 0.036451 -0.001199 0.037405
v 0.0083254 0.000403242 0.0387921
v -0.000323517 -0.00901766 0.0376656
v -0.00435805 0.0021578 0.0377227
v 0.00962773 -0.00482412 0.0383797
v 0.013618 0.0155849 0.0373573
v 0.00429229 0.00458912 0.0381951
v 0.00348248 0.00254482 0.0380149
v 0.00929 0.01126 0.038533
v 0.009655 0.0163 0.038429
v -0.003966 0.004748 0.037338
v 0.00378 0.002148 0.03738
v 0.076759 -0.00394 0.038292
v -0.00829 0.015009 0.038603
v -0.00291044 -0.0478291 0.0470842
v 0.000505 0.011893 0.03924
v -0.00620043 0.0117096 0.0390377
v -0.00407315 0.0168649 0.0391126
v 0.0285362 0.000849565 0.0393484
v -0.00357224 0.00469894 0.0390131
v 0.00751905 -0.0365684 0.0400069
v -0.003539 0.002178 0.038822
v 0.003522 0.004376 0.039138
v -0.00288793 0.00331587 0.0375644
v 0.00329799 0.00346959 0.0394256
v -0.00299667 0.00338608 0.0393535
v 0.03728 -0.041664 0.040195
v -0.0372083 -0.025568 0.0387232
v 0.009376 0.006322 0.03849
v 0.076649 0.00298666 0.0384503
v -0.0032788 0.0055599 0.0397064
v 0.00941392 0.00503598 0.0384201
v 0.00170733 0.00670717 0.0395903
v -0.005846 0.010132 0.039101
v -0.00569202 -0.000294134 0.0384863
v -0.00126662 0.0146108 0.0392683
v 0.00593953 -0.0041102 0.0391856
v 0.00702888 0.0150396 0.0389961
v -0.0346428 -0.022678 0.037178
v 0.00737212 -0.0109085 0.0397867
v -0.00353475 0.00177998 0.0393743
v -0.003061 0.005028 0.039395
v -0.00386656 -0.00912778 0.0381668
v 0.003443 0.016476 0.03941
v -0.00118587 -0.003934 0.0398423
v 0.004097 0.001951 0.039002
v -0.03752 -0.041518 0.040057
v -0.003167 0.016467 0.039414
v -0.002668 0.001562 0.039453
v -0.00266573 -0.0102817 0.0400835
v 0.003191 0.00169989 0.0394656
v -0.0165325 -0.0245749 0.0430319
v -0.003703 0.001991 0.039047
v -0.003541 0.002111 0.039013
v 0.000184616 9.96943e-05 0.039564
v -0.00322 0.002246 0.0392
v 0.002979 0.010121 0.039448
v 0.001426 0.015099 0.039574
v -0.00313 0.002581 0.03921
v 0.0039105 0.0019645 0.039073
v -0.003229 0.002403 0.03913
v 0.003607 0.004499 0.039106
v 0.003525 0.004417 0.039165
v 0.003438 0.004259 0.03922
v -0.003165 0.002455 0.039202
v 0.003686 0.004577 0.039081
v 0.00336472 0.00474428 0.039382
v -0.001015 0.000268 0.039538
v -6.1e-05 0.00688 0.039558
v 0.003392 0.004219 0.039304
v -0.003055 0.004307 0.03943
v 0.003313 0.004188 0.039428
v -0.003018 0.004451 0.039433
v -0.00307 0.004534 0.039381
v 0.000126 0.016545 0.039474
v -0.0012305 0.0067045 0.0394485
v -0.00146639 0.00689034 0.039283
v 0.0027037 0.0114374 0.0395174
v -0.001288 0.006622 0.039486
v 0.001533 0.006519 0.039521
v -0.001472 0.006644 0.039447
v 0.000124 0.016434 0.039524
v 0.000124 0.016333 0.03955
v -0.00121 0.006565 0.039523
v -0.011995 -0.0415599 0.0419614
v 0.00705922 -0.0413409 0.0432621
v 0.00579104 -0.0325052 0.0429844
v -0.0127503 -0.00633369 0.0421987
v 0.000166954 -0.0112714 0.0405391
v -0.00998893 -0.00464602 0.0407828
v -0.0063387 -0.0419824 0.0467932
v 0.00687609 -0.0413982 0.0466301
v -0.009151 -0.041569 0.046147
v 0.00723843 0.00892608 0.0410645
v -0.00473841 -0.0310418 0.0430758
v -0.004515 -0.000847 0.043025
v -0.0145263 -0.00821004 0.042334
v 0.003843 0.005343 0.043234
v -0.00703057 -0.0410158 0.0431902
v -0.00733402 -0.0346405 0.0460125
v 0.00564554 -0.0318368 0.0460869
v -0.007155 -0.003784 0.043811
v -0.00182098 0.000376947 0.0440282
v 0.00532482 0.00606198 0.04334
v -0.001897 -0.030568 0.046245
f 3 1 2
f 2 8 3
f 1 6 2
f 4 1 3
f 1 5 6
f 5 11 6
f 7 4 3
f 9 6 11
f 5 10 11
f 12 4 7
f 15 13 14
f 16 45 6
f 45 2 6
f 9 16 6
f 3 18 7
f 10 9 11
f 19 13 15
f 10 15 14
f 19 15 7
f 15 12 7
f 23 9 10
f 23 10 14
f 13 23 14
f 21 19 7
f 45 38 2
f 38 8 2
f 8 17 3
f 17 139 3
f 139 18 3
f 23 16 9
f 18 21 7
f 20 19 21
f 18 99 21
f 110 10 5
f 22 27 15
f 22 23 13
f 10 22 15
f 27 12 15
f 110 22 10
f 19 20 13
f 27 22 13
f 20 27 13
f 1 24 5
f 28 110 5
f 25 26 23
f 26 16 23
f 24 28 5
f 29 4 12
f 105 29 12
f 27 105 12
f 30 141 21
f 32 213 110
f 213 22 110
f 237 1 4
f 24 31 28
f 34 35 41
f 39 37 34
f 99 30 21
f 37 35 34
f 177 27 20
f 40 39 34
f 41 92 34
f 29 114 4
f 36 92 41
f 114 41 35
f 42 40 34
f 4 114 35
f 43 237 35
f 237 4 35
f 37 43 35
f 44 36 41
f 92 31 34
f 31 42 34
f 24 42 31
f 143 120 110
f 120 32 110
f 22 213 23
f 240 28 31
f 48 49 46
f 63 50 46
f 50 74 46
f 51 49 48
f 51 58 49
f 58 54 49
f 54 55 49
f 26 56 16
f 74 88 46
f 48 59 51
f 59 60 51
f 60 58 51
f 113 92 36
f 55 61 49
f 63 46 49
f 62 48 59
f 48 60 59
f 62 60 48
f 54 65 55
f 66 74 50
f 68 54 58
f 48 60 62
f 68 65 54
f 69 45 16
f 56 69 16
f 70 65 54
f 71 58 60
f 70 55 65
f 68 70 65
f 100 63 49
f 58 73 68
f 73 54 68
f 107 66 50
f 75 70 68
f 66 107 74
f 67 48 46
f 100 49 61
f 73 75 68
f 58 75 73
f 47 76 72
f 88 67 46
f 75 55 70
f 64 80 58
f 67 60 48
f 80 75 58
f 64 81 80
f 78 79 52
f 126 82 63
f 67 71 60
f 63 82 50
f 82 83 50
f 47 72 57
f 83 84 50
f 64 85 81
f 85 80 81
f 97 74 86
f 87 82 126
f 97 90 74
f 81 91 80
f 91 75 80
f 93 83 82
f 114 173 41
f 95 77 53
f 132 78 52
f 94 85 64
f 86 90 97
f 82 84 83
f 92 240 31
f 85 94 81
f 94 91 81
f 87 93 82
f 71 64 58
f 116 52 89
f 107 86 74
f 85 91 94
f 93 84 82
f 96 88 74
f 107 97 86
f 82 84 93
f 87 84 82
f 97 74 90
f 94 75 91
f 126 84 87
f 44 129 36
f 173 44 41
f 99 18 139
f 71 94 64
f 144 177 20
f 116 132 52
f 53 102 103
f 130 163 72
f 97 96 74
f 101 76 47
f 104 47 57
f 95 135 77
f 77 119 53
f 135 155 77
f 117 126 63
f 142 117 63
f 103 95 53
f 72 104 57
f 155 119 77
f 84 107 50
f 108 61 55
f 126 107 84
f 107 109 97
f 98 100 61
f 76 130 72
f 78 136 79
f 123 121 151
f 105 128 29
f 144 20 21
f 177 144 21
f 128 156 29
f 106 67 88
f 108 98 61
f 109 96 97
f 165 101 47
f 118 53 119
f 104 115 47
f 88 124 106
f 79 198 52
f 125 131 76
f 164 107 126
f 127 122 121
f 180 218 94
f 163 104 72
f 100 142 63
f 111 240 92
f 115 165 47
f 122 151 121
f 67 130 71
f 101 125 76
f 197 128 105
f 96 109 88
f 120 168 32
f 191 76 131
f 151 140 123
f 103 135 95
f 98 112 100
f 112 154 100
f 213 33 23
f 212 204 71
f 100 102 53
f 163 130 67
f 149 89 138
f 102 133 103
f 240 110 28
f 180 94 71
f 33 25 23
f 101 136 78
f 75 108 55
f 94 108 75
f 164 109 107
f 129 155 36
f 25 33 26
f 198 167 52
f 135 36 155
f 165 115 104
f 146 147 137
f 8 146 137
f 156 114 29
f 89 196 138
f 109 124 88
f 139 134 99
f 89 145 116
f 136 198 79
f 145 132 116
f 99 141 30
f 208 120 143
f 677 38 45
f 150 89 149
f 33 158 26
f 106 163 67
f 165 136 101
f 118 100 53
f 152 151 122
f 123 153 121
f 158 161 26
f 168 213 32
f 196 149 138
f 154 112 98
f 185 92 113
f 154 102 100
f 78 125 101
f 204 180 71
f 167 89 52
f 222 44 173
f 218 108 94
f 128 199 156
f 26 157 56
f 185 111 92
f 127 190 122
f 162 33 213
f 262 78 132
f 89 241 145
f 142 100 118
f 159 183 160
f 163 165 104
f 133 135 103
f 155 166 119
f 221 26 161
f 284 161 158
f 89 246 196
f 166 148 119
f 168 120 208
f 169 89 150
f 201 205 98
f 170 124 109
f 171 45 69
f 172 171 69
f 56 172 69
f 164 126 117
f 205 154 98
f 174 677 45
f 171 174 45
f 175 666 139
f 17 175 139
f 157 172 56
f 666 176 139
f 142 164 117
f 270 8 137
f 147 270 137
f 270 17 8
f 125 179 131
f 181 159 160
f 146 181 160
f 108 201 98
f 178 166 155
f 209 141 99
f 196 202 149
f 149 169 150
f 179 76 191
f 140 449 123
f 176 134 139
f 182 146 160
f 183 182 160
f 218 201 108
f 287 89 167
f 232 118 119
f 130 212 71
f 36 185 113
f 221 269 26
f 176 186 134
f 151 187 140
f 910 188 190
f 127 910 190
f 188 189 190
f 135 185 36
f 186 99 134
f 203 222 173
f 197 199 128
f 192 132 145
f 225 121 153
f 186 194 99
f 179 191 131
f 262 125 78
f 169 241 89
f 195 221 161
f 123 225 153
f 193 225 123
f 141 177 21
f 27 197 105
f 194 209 99
f 148 232 119
f 253 213 168
f 232 142 118
f 261 143 110
f 179 130 76
f 192 262 132
f 259 449 140
f 170 106 124
f 165 184 136
f 225 127 121
f 449 193 123
f 207 211 161
f 284 207 161
f 211 195 161
f 269 157 26
f 8 38 146
f 287 246 89
f 240 261 110
f 200 170 109
f 206 171 172
f 157 206 172
f 203 173 114
f 151 224 187
f 224 151 152
f 199 321 156
f 187 259 140
f 223 240 111
f 222 129 44
f 202 169 149
f 321 199 197
f 162 158 33
f 261 208 143
f 229 167 198
f 162 284 158
f 217 165 163
f 184 198 136
f 154 210 102
f 284 216 207
f 141 209 177
f 102 215 133
f 200 251 170
f 218 180 204
f 250 114 156
f 208 253 168
f 27 219 197
f 280 109 164
f 142 214 164
f 256 368 220
f 196 318 202
f 106 170 163
f 219 27 177
f 220 24 1
f 226 225 193
f 194 186 209
f 227 40 42
f 411 227 42
f 241 192 145
f 182 397 146
f 397 147 146
f 185 223 111
f 201 288 205
f 237 220 1
f 142 280 214
f 24 411 42
f 220 411 24
f 228 280 142
f 184 229 198
f 217 230 165
f 279 170 251
f 122 190 152
f 449 226 193
f 147 373 270
f 166 232 148
f 233 223 185
f 238 203 114
f 234 195 211
f 235 234 211
f 278 165 230
f 206 157 269
f 261 253 208
f 43 236 237
f 321 250 156
f 219 321 197
f 239 213 253
f 207 308 211
f 229 287 167
f 242 221 195
f 326 231 207
f 186 313 209
f 320 297 154
f 308 235 211
f 214 280 164
f 244 133 215
f 238 222 203
f 288 154 205
f 102 244 215
f 245 291 179
f 238 129 222
f 247 216 284
f 209 313 177
f 297 210 154
f 378 114 250
f 258 135 133
f 201 248 288
f 389 308 207
f 231 389 207
f 249 213 239
f 233 249 239
f 278 184 165
f 247 207 216
f 184 298 229
f 242 269 221
f 178 232 166
f 252 257 318
f 178 303 232
f 38 181 146
f 254 411 220
f 255 254 220
f 368 255 220
f 125 334 179
f 200 109 280
f 291 130 179
f 258 185 135
f 334 125 262
f 243 162 213
f 224 259 187
f 259 613 449
f 312 224 152
f 449 225 226
f 260 266 182
f 183 260 182
f 282 253 261
f 244 258 133
f 249 315 213
f 179 262 245
f 263 241 169
f 264 272 261
f 218 248 201
f 252 276 257
f 232 281 142
f 265 397 182
f 266 265 182
f 240 264 261
f 267 263 169
f 233 240 223
f 210 244 102
f 185 268 233
f 315 243 213
f 258 268 185
f 276 318 257
f 196 273 318
f 273 252 318
f 321 271 250
f 272 264 240
f 253 277 239
f 235 195 234
f 217 278 230
f 202 267 169
f 281 228 142
f 293 275 274
f 162 283 284
f 285 286 275
f 298 287 229
f 282 277 253
f 288 320 154
f 273 290 252
f 291 204 212
f 241 289 192
f 247 370 207
f 291 218 204
f 293 294 275
f 296 130 291
f 303 345 232
f 159 299 183
f 163 359 217
f 252 300 276
f 225 301 127
f 130 302 212
f 239 240 233
f 239 379 240
f 379 272 240
f 233 244 249
f 288 291 249
f 262 289 249
f 291 262 249
f 244 288 249
f 292 307 295
f 238 155 129
f 155 303 178
f 334 262 179
f 181 299 159
f 306 375 275
f 317 271 321
f 370 326 207
f 275 319 285
f 294 319 275
f 309 311 292
f 310 256 220
f 237 310 220
f 236 592 237
f 592 310 237
f 301 910 127
f 243 283 162
f 311 309 292
f 449 357 225
f 286 330 275
f 330 306 275
f 275 314 274
f 314 293 274
f 272 282 261
f 296 302 130
f 419 314 275
f 271 347 250
f 359 163 170
f 262 291 245
f 316 114 378
f 305 370 247
f 327 311 292
f 330 286 285
f 332 206 269
f 314 382 293
f 307 292 295
f 316 343 114
f 343 238 114
f 357 301 225
f 324 242 195
f 273 196 246
f 307 292 293
f 292 294 293
f 375 419 275
f 313 219 177
f 291 304 218
f 262 192 289
f 322 327 292
f 307 322 292
f 289 241 249
f 304 248 218
f 292 319 294
f 311 319 292
f 359 323 217
f 277 379 239
f 302 291 212
f 176 313 186
f 324 195 235
f 284 305 247
f 347 378 250
f 308 324 235
f 325 307 293
f 382 325 293
f 470 170 279
f 233 268 244
f 268 258 244
f 288 304 291
f 219 363 321
f 243 415 283
f 244 320 288
f 315 342 243
f 677 181 38
f 329 277 282
f 287 331 246
f 331 273 246
f 412 259 224
f 402 412 224
f 270 175 17
f 470 359 170
f 317 347 271
f 304 288 248
f 242 332 269
f 210 297 244
f 297 320 244
f 302 296 291
f 444 318 276
f 329 379 277
f 356 312 152
f 335 356 152
f 338 357 449
f 311 333 319
f 477 434 280
f 434 200 280
f 241 315 249
f 336 328 327
f 337 336 327
f 322 337 327
f 319 333 285
f 333 339 285
f 341 340 311
f 342 366 243
f 356 224 312
f 327 341 311
f 272 329 282
f 259 389 231
f 231 326 259
f 315 241 263
f 342 315 263
f 300 444 276
f 323 278 217
f 200 279 251
f 281 280 228
f 190 335 152
f 298 331 287
f 267 342 263
f 285 380 330
f 541 329 272
f 358 171 206
f 356 402 224
f 344 345 303
f 346 635 391
f 635 171 391
f 635 174 171
f 358 391 171
f 176 385 313
f 541 379 329
f 339 380 285
f 349 348 273
f 202 350 267
f 444 351 318
f 351 202 318
f 284 370 305
f 340 341 311
f 351 350 202
f 328 381 327
f 381 341 327
f 332 358 206
f 369 242 324
f 283 437 284
f 331 314 273
f 314 349 273
f 352 290 273
f 323 359 278
f 200 416 279
f 477 280 281
f 308 369 324
f 437 370 284
f 347 317 321
f 348 355 273
f 355 352 273
f 366 415 243
f 267 393 342
f 354 470 279
f 360 361 352
f 362 330 380
f 363 347 321
f 326 613 259
f 367 358 332
f 365 344 238
f 344 155 238
f 364 345 344
f 393 366 342
f 529 256 310
f 341 333 311
f 395 238 343
f 364 232 345
f 155 344 303
f 421 184 278
f 373 544 270
f 355 360 352
f 355 361 360
f 348 360 355
f 242 367 332
f 348 361 360
f 385 219 313
f 410 368 256
f 348 352 361
f 371 348 349
f 375 574 419
f 415 372 283
f 372 437 283
f 374 369 308
f 325 322 307
f 397 376 147
f 399 316 378
f 290 300 252
f 306 462 375
f 331 382 314
f 348 290 352
f 330 462 306
f 347 219 378
f 256 377 410
f 359 421 278
f 219 383 378
f 416 354 279
f 383 399 378
f 377 376 410
f 371 401 348
f 434 416 200
f 412 389 259
f 314 386 349
f 379 672 272
f 537 343 316
f 290 387 300
f 389 374 308
f 390 326 370
f 242 346 367
f 419 386 314
f 441 398 331
f 398 382 331
f 384 410 376
f 256 376 377
f 396 184 421
f 397 384 376
f 376 373 147
f 442 401 371
f 398 442 371
f 325 400 322
f 517 281 232
f 363 219 347
f 358 367 346
f 346 391 358
f 281 517 353
f 184 396 298
f 385 383 219
f 585 370 437
f 394 404 331
f 299 405 183
f 385 399 383
f 350 393 267
f 549 301 357
f 392 325 382
f 404 441 331
f 300 406 444
f 395 365 238
f 399 537 316
f 407 574 375
f 462 407 375
f 376 409 373
f 410 255 368
f 408 348 401
f 529 430 256
f 402 356 335
f 338 403 357
f 413 414 359
f 353 417 281
f 414 421 359
f 470 413 359
f 417 418 477
f 420 408 401
f 385 615 399
f 441 442 398
f 398 422 382
f 422 591 382
f 591 392 382
f 543 400 325
f 442 420 401
f 417 477 281
f 416 470 354
f 505 424 298
f 397 410 384
f 256 409 376
f 430 409 256
f 426 175 270
f 544 426 270
f 425 331 298
f 427 372 415
f 386 371 349
f 396 505 298
f 424 425 298
f 428 429 364
f 362 462 330
f 410 523 255
f 431 442 441
f 537 432 343
f 333 380 339
f 521 520 344
f 369 598 242
f 427 435 372
f 435 436 372
f 436 539 372
f 539 437 372
f 425 394 331
f 326 390 613
f 429 476 364
f 543 325 392
f 432 395 343
f 344 428 364
f 520 428 344
f 476 491 364
f 491 232 364
f 265 523 397
f 388 440 341
f 491 517 232
f 554 366 393
f 677 579 181
f 672 433 272
f 386 422 398
f 371 386 398
f 523 410 397
f 438 409 430
f 400 337 322
f 439 348 408
f 433 541 272
f 341 440 388
f 381 440 341
f 452 420 442
f 387 406 300
f 443 402 335
f 350 351 393
f 445 439 408
f 447 448 442
f 341 568 333
f 431 519 442
f 440 568 341
f 582 351 444
f 403 549 357
f 448 455 442
f 519 447 442
f 449 446 338
f 432 365 395
f 420 450 408
f 439 290 348
f 455 452 442
f 451 615 385
f 519 475 447
f 414 453 421
f 466 464 365
f 475 492 447
f 453 454 421
f 456 453 414
f 457 456 453
f 459 458 328
f 458 381 328
f 362 460 328
f 460 459 328
f 336 407 328
f 407 462 328
f 462 362 328
f 337 461 336
f 574 407 336
f 461 574 336
f 365 463 466
f 455 422 386
f 414 457 456
f 404 519 441
f 465 414 413
f 447 455 448
f 456 454 453
f 465 468 414
f 421 505 396
f 353 469 417
f 457 454 456
f 547 432 537
f 386 452 455
f 471 476 429
f 414 454 457
f 435 472 436
f 472 473 436
f 496 472 435
f 472 473 435
f 485 496 435
f 427 485 435
f 473 496 436
f 492 455 447
f 472 496 473
f 549 910 301
f 441 519 431
f 478 470 416
f 470 479 413
f 432 463 365
f 480 471 476
f 481 482 416
f 483 413 465
f 484 418 417
f 468 454 414
f 486 487 417
f 487 484 417
f 482 467 416
f 413 468 465
f 429 480 471
f 469 488 417
f 487 486 484
f 452 386 420
f 386 450 420
f 487 418 484
f 467 478 416
f 517 489 353
f 490 488 469
f 353 488 469
f 471 491 476
f 500 496 485
f 480 491 471
f 486 418 487
f 482 478 467
f 482 481 467
f 493 353 489
f 428 491 480
f 429 428 480
f 353 490 488
f 544 373 409
f 490 417 488
f 454 505 421
f 494 486 417
f 493 495 353
f 497 481 416
f 479 483 413
f 474 369 374
f 486 494 418
f 481 478 482
f 413 483 468
f 461 634 574
f 434 497 416
f 481 503 478
f 497 503 481
f 498 495 493
f 485 499 500
f 499 496 500
f 498 353 495
f 501 436 496
f 502 417 490
f 483 479 468
f 353 502 490
f 531 455 492
f 489 495 493
f 504 344 365
f 489 498 495
f 489 506 498
f 468 505 454
f 506 353 498
f 502 494 417
f 506 502 353
f 428 517 491
f 418 494 477
f 503 497 478
f 508 497 434
f 509 468 479
f 507 508 434
f 477 494 434
f 510 497 508
f 432 466 463
f 510 511 508
f 507 510 508
f 494 507 434
f 512 513 509
f 512 468 509
f 497 515 478
f 512 513 468
f 479 512 509
f 517 506 489
f 515 510 507
f 513 516 468
f 511 497 510
f 512 516 513
f 515 497 511
f 516 512 479
f 516 505 468
f 515 511 510
f 494 515 507
f 478 516 470
f 506 515 494
f 522 516 478
f 516 522 505
f 516 479 470
f 515 522 478
f 506 522 515
f 423 299 181
f 502 506 494
f 522 424 505
f 464 504 365
f 432 562 466
f 475 594 492
f 504 521 344
f 394 519 404
f 521 524 520
f 428 538 517
f 450 445 408
f 427 499 485
f 514 526 464
f 519 525 475
f 527 520 524
f 528 527 524
f 464 521 504
f 619 411 254
f 619 227 411
f 530 428 520
f 466 562 464
f 528 520 527
f 532 528 521
f 528 527 521
f 527 524 521
f 522 525 519
f 394 522 519
f 579 423 181
f 526 506 464
f 594 531 492
f 529 438 430
f 538 506 517
f 528 532 520
f 522 425 424
f 534 535 530
f 520 534 530
f 534 428 530
f 532 521 464
f 506 532 464
f 532 536 520
f 536 534 520
f 562 514 464
f 427 540 499
f 534 535 428
f 535 538 428
f 506 514 522
f 536 535 534
f 536 538 535
f 425 522 394
f 415 540 427
f 610 554 393
f 506 536 532
f 506 538 536
f 531 422 455
f 405 260 183
f 474 598 369
f 605 585 437
f 176 569 385
f 518 386 419
f 584 610 393
f 514 506 526
f 539 436 501
f 525 594 475
f 432 566 562
f 547 533 432
f 574 518 419
f 540 501 499
f 623 380 333
f 499 501 496
f 501 546 539
f 542 525 522
f 514 542 522
f 533 566 432
f 351 584 393
f 529 409 438
f 562 542 514
f 545 451 385
f 601 392 591
f 546 561 539
f 525 542 594
f 548 443 335
f 338 549 403
f 550 549 338
f 540 546 501
f 552 540 415
f 381 551 440
f 190 548 335
f 446 550 338
f 445 553 439
f 598 346 242
f 555 546 540
f 556 553 445
f 539 557 437
f 557 558 437
f 558 605 437
f 559 561 546
f 563 556 445
f 594 422 531
f 553 564 439
f 565 559 546
f 564 563 439
f 623 362 380
f 546 555 565
f 450 563 445
f 556 564 553
f 555 559 565
f 553 563 564
f 556 563 553
f 565 555 540
f 552 565 540
f 637 370 585
f 591 422 594
f 409 607 544
f 565 561 559
f 593 547 537
f 554 415 366
f 387 567 406
f 551 568 440
f 560 561 565
f 529 607 409
f 552 570 565
f 415 570 552
f 570 560 565
f 389 474 374
f 646 591 594
f 560 573 561
f 572 557 539
f 569 545 385
f 561 572 539
f 573 572 561
f 571 572 573
f 560 571 573
f 450 575 563
f 575 439 563
f 575 290 439
f 573 581 572
f 581 557 572
f 626 566 533
f 571 573 572
f 571 581 573
f 577 560 570
f 581 571 560
f 578 577 570
f 580 581 560
f 577 580 560
f 578 580 560
f 577 578 560
f 583 638 346
f 584 582 444
f 598 583 346
f 586 580 578
f 580 586 581
f 406 584 444
f 586 595 581
f 593 533 547
f 587 586 578
f 624 593 537
f 265 606 523
f 659 607 529
f 578 588 587
f 588 589 587
f 588 586 587
f 626 533 593
f 590 588 578
f 570 590 578
f 666 569 176
f 672 614 433
f 697 619 254
f 255 697 254
f 570 588 590
f 570 595 588
f 518 609 386
f 566 626 562
f 603 595 570
f 415 603 570
f 589 586 588
f 595 589 588
f 595 586 589
f 596 711 597
f 576 596 597
f 443 616 402
f 543 625 400
f 595 557 581
f 595 599 557
f 663 623 333
f 568 663 333
f 637 617 370
f 558 557 599
f 603 599 595
f 423 405 299
f 626 542 562
f 399 624 537
f 617 390 370
f 550 648 549
f 624 626 593
f 604 602 599
f 602 558 599
f 603 604 599
f 523 608 255
f 608 600 255
f 596 576 597
f 682 594 542
f 574 609 518
f 601 543 392
f 584 351 582
f 608 523 606
f 611 558 602
f 406 567 584
f 604 611 602
f 612 605 558
f 603 611 604
f 611 612 558
f 460 362 623
f 629 551 381
f 458 629 381
f 701 474 389
f 412 701 389
f 629 568 551
f 684 569 666
f 612 611 603
f 652 542 626
f 682 646 594
f 600 697 255
f 616 443 548
f 729 550 446
f 652 682 542
f 648 671 549
f 449 729 446
f 190 189 548
f 616 650 402
f 650 412 402
f 671 910 549
f 613 729 449
f 605 637 585
f 701 892 474
f 618 607 659
f 620 529 310
f 592 620 310
f 236 621 592
f 609 689 386
f 689 450 386
f 554 639 415
f 603 632 612
f 545 615 451
f 415 632 603
f 541 672 379
f 615 627 399
f 627 624 399
f 568 622 663
f 628 629 551
f 629 628 551
f 629 622 568
f 633 612 632
f 415 631 632
f 633 605 612
f 684 545 569
f 634 609 574
f 636 575 450
f 636 290 575
f 632 605 633
f 630 652 626
f 405 640 260
f 423 640 405
f 614 635 433
f 768 606 265
f 607 644 544
f 642 631 415
f 639 642 415
f 598 638 583
f 643 638 598
f 641 665 605
f 665 637 605
f 433 645 541
f 618 644 607
f 632 641 605
f 642 632 631
f 647 616 548
f 642 641 632
f 649 647 548
f 567 658 584
f 658 610 584
f 189 649 548
f 645 679 541
f 679 672 541
f 892 694 474
f 624 630 626
f 639 654 642
f 654 641 642
f 654 653 641
f 653 651 641
f 651 665 641
f 645 433 635
f 653 655 651
f 654 656 653
f 655 657 651
f 656 657 653
f 657 655 653
f 656 655 657
f 667 654 639
f 579 640 423
f 659 529 620
f 621 620 592
f 643 346 638
f 643 635 346
f 644 426 544
f 474 742 598
f 660 623 663
f 680 460 623
f 869 608 606
f 660 680 623
f 624 669 630
f 688 543 601
f 688 625 543
f 768 869 606
f 266 768 265
f 658 554 610
f 635 643 174
f 614 643 635
f 661 609 634
f 664 450 689
f 661 689 609
f 630 669 652
f 669 685 652
f 657 665 651
f 667 656 654
f 667 657 656
f 667 665 657
f 662 624 627
f 662 669 624
f 668 601 591
f 646 668 591
f 643 645 635
f 636 387 290
f 637 670 617
f 694 742 474
f 696 550 729
f 652 686 682
f 721 645 614
f 645 643 614
f 775 701 412
f 650 775 412
f 390 777 613
f 777 970 613
f 970 729 613
f 617 777 390
f 721 614 672
f 673 596 597
f 711 673 597
f 674 643 598
f 742 674 598
f 675 702 665
f 667 675 665
f 702 637 665
f 676 666 175
f 426 676 175
f 649 616 647
f 550 671 648
f 696 671 550
f 618 723 644
f 691 667 639
f 681 639 554
f 664 636 450
f 683 545 684
f 691 675 667
f 685 686 652
f 673 711 596
f 707 668 646
f 687 718 629
f 668 688 601
f 759 400 625
f 688 759 625
f 703 685 669
f 663 680 660
f 629 752 622
f 690 664 689
f 692 227 619
f 698 723 618
f 869 600 608
f 400 461 337
f 759 461 400
f 693 658 567
f 659 698 618
f 627 704 662
f 706 675 691
f 616 719 650
f 189 616 649
f 620 698 659
f 699 627 615
f 545 699 615
f 666 854 684
f 706 700 675
f 700 702 675
f 718 752 629
f 703 669 662
f 704 703 662
f 942 629 458
f 639 713 691
f 713 706 691
f 681 760 639
f 751 681 554
f 658 751 554
f 693 715 658
f 706 702 700
f 705 658 715
f 734 387 636
f 768 722 869
f 731 640 579
f 664 690 636
f 690 734 636
f 708 644 723
f 860 683 684
f 887 643 674
f 709 717 702
f 710 709 702
f 854 860 684
f 710 702 706
f 713 710 706
f 677 731 579
f 703 725 685
f 872 704 627
f 760 713 639
f 713 709 710
f 699 872 627
f 708 426 644
f 640 714 260
f 714 266 260
f 725 686 685
f 646 682 707
f 686 754 682
f 715 693 567
f 716 714 640
f 695 910 671
f 718 687 629
f 622 752 663
f 828 661 634
f 719 616 189
f 696 746 671
f 717 709 713
f 762 720 682
f 769 762 682
f 754 769 682
f 666 724 854
f 726 965 174
f 965 677 174
f 643 726 174
f 676 1028 666
f 1028 727 666
f 727 724 666
f 728 726 643
f 678 728 643
f 892 742 694
f 702 670 637
f 735 686 725
f 650 744 775
f 707 682 668
f 459 942 458
f 929 629 942
f 679 730 672
f 705 751 658
f 712 688 668
f 887 732 643
f 946 426 708
f 733 725 703
f 828 689 661
f 732 678 643
f 683 699 545
f 741 686 735
f 704 733 703
f 736 869 722
f 698 737 723
f 738 733 704
f 734 750 387
f 737 708 723
f 872 739 704
f 733 735 725
f 869 740 600
f 745 672 730
f 719 744 650
f 743 734 690
f 720 668 682
f 747 702 717
f 748 712 668
f 720 748 668
f 929 879 629
f 879 718 629
f 876 705 715
f 743 750 734
f 680 882 460
f 965 731 677
f 748 930 712
f 735 755 741
f 733 755 735
f 645 894 679
f 745 890 672
f 890 721 672
f 758 749 698
f 620 758 698
f 688 900 759
f 752 680 663
f 721 894 645
f 760 717 713
f 738 761 733
f 761 755 733
f 882 884 460
f 884 459 460
f 741 754 686
f 828 690 689
f 764 754 763
f 774 766 762
f 767 674 742
f 722 768 736
f 770 771 763
f 771 765 763
f 770 772 771
f 764 769 754
f 770 765 771
f 778 770 763
f 772 765 770
f 765 764 763
f 769 784 762
f 784 773 762
f 773 774 762
f 776 892 701
f 775 776 701
f 927 688 712
f 842 772 770
f 766 795 762
f 842 765 772
f 762 821 720
f 927 900 688
f 773 781 774
f 842 764 765
f 692 619 697
f 621 758 620
f 769 782 784
f 885 757 756
f 801 842 770
f 778 783 770
f 785 795 766
f 786 801 770
f 782 773 784
f 783 786 770
f 787 774 781
f 788 804 784
f 804 773 784
f 773 788 784
f 778 789 783
f 787 781 773
f 788 773 782
f 787 809 774
f 766 790 785
f 791 787 781
f 786 792 783
f 789 786 783
f 793 787 773
f 741 763 754
f 785 794 795
f 857 748 720
f 791 809 787
f 842 797 764
f 807 798 788
f 794 796 795
f 790 799 785
f 782 807 788
f 774 790 766
f 792 786 789
f 795 800 796
f 792 801 786
f 796 802 795
f 800 802 796
f 790 803 799
f 794 800 795
f 798 804 788
f 876 751 705
f 785 800 794
f 805 715 567
f 787 791 793
f 807 804 798
f 769 807 782
f 789 801 792
f 800 785 799
f 808 804 798
f 809 793 773
f 864 720 779
f 806 810 842
f 835 769 764
f 811 835 764
f 812 811 764
f 797 812 764
f 835 827 769
f 813 829 769
f 827 813 769
f 829 807 769
f 803 814 799
f 803 800 799
f 804 809 773
f 814 803 790
f 809 787 793
f 803 856 800
f 807 808 804
f 741 778 763
f 795 821 762
f 814 856 803
f 787 809 791
f 808 858 804
f 739 738 704
f 815 816 812
f 816 811 812
f 797 816 812
f 797 817 816
f 817 815 816
f 815 818 816
f 818 811 816
f 797 819 817
f 818 820 811
f 802 821 795
f 807 858 808
f 819 822 817
f 817 818 815
f 790 856 814
f 819 823 822
f 830 820 818
f 797 836 819
f 825 831 813
f 826 823 822
f 823 817 822
f 827 841 813
f 840 818 817
f 853 829 813
f 823 840 817
f 720 864 857
f 820 832 811
f 832 833 835
f 834 837 835
f 831 853 813
f 823 826 840
f 819 826 823
f 840 830 818
f 832 835 811
f 837 827 835
f 755 859 741
f 670 777 617
f 858 809 804
f 819 840 826
f 842 836 797
f 832 835 833
f 838 835 833
f 839 840 819
f 913 790 774
f 836 839 819
f 841 825 813
f 840 820 830
f 825 853 831
f 832 838 835
f 738 755 761
f 789 842 801
f 836 843 839
f 844 838 832
f 738 859 755
f 845 843 839
f 844 835 838
f 843 840 839
f 836 845 843
f 834 846 837
f 835 847 838
f 846 827 837
f 847 834 835
f 842 1006 836
f 844 847 835
f 849 846 834
f 846 850 827
f 856 802 800
f 845 840 843
f 848 774 809
f 849 850 846
f 810 1006 842
f 848 913 774
f 834 851 849
f 852 743 690
f 850 841 827
f 836 840 845
f 851 846 849
f 846 851 850
f 844 834 847
f 851 841 850
f 857 852 748
f 821 779 720
f 855 930 748
f 820 844 832
f 858 848 809
f 748 852 690
f 866 778 741
f 841 853 825
f 739 951 738
f 266 824 768
f 821 864 779
f 859 866 741
f 802 864 821
f 861 828 634
f 461 861 634
f 751 760 681
f 863 840 836
f 760 747 717
f 993 841 851
f 932 941 841
f 856 864 802
f 993 834 844
f 993 851 834
f 841 941 853
f 863 865 840
f 864 874 857
f 862 742 892
f 1006 863 836
f 857 878 852
f 852 878 743
f 738 866 859
f 780 888 738
f 750 944 387
f 737 946 708
f 993 867 841
f 768 868 736
f 698 912 737
f 993 844 820
f 868 869 736
f 752 882 680
f 699 871 872
f 908 856 790
f 862 767 742
f 702 902 670
f 873 856 870
f 872 951 739
f 951 780 738
f 873 864 856
f 914 695 671
f 746 914 671
f 874 873 870
f 856 874 870
f 874 878 857
f 888 866 738
f 913 908 790
f 873 874 864
f 909 719 189
f 696 914 746
f 875 914 696
f 461 880 459
f 884 756 459
f 756 461 459
f 881 861 461
f 756 757 461
f 757 881 461
f 881 828 861
f 883 954 881
f 954 828 881
f 884 885 756
f 757 883 881
f 886 876 715
f 877 886 715
f 752 718 753
f 919 869 868
f 908 874 856
f 747 902 702
f 878 895 743
f 895 750 743
f 889 748 690
f 768 928 868
f 919 740 869
f 698 891 912
f 1129 841 867
f 1034 829 853
f 767 887 674
f 760 751 747
f 753 882 752
f 890 894 721
f 893 842 789
f 896 461 759
f 874 903 878
f 880 942 459
f 976 697 600
f 945 976 600
f 740 945 600
f 946 676 426
f 824 928 768
f 903 895 878
f 1034 807 829
f 1129 932 841
f 716 640 731
f 898 805 567
f 897 862 892
f 899 777 670
f 930 927 712
f 749 891 698
f 901 907 683
f 805 877 715
f 902 899 670
f 903 855 748
f 904 903 748
f 889 904 748
f 860 901 683
f 900 896 759
f 973 751 876
f 1016 951 872
f 875 696 729
f 871 683 907
f 911 927 930
f 908 903 874
f 930 690 828
f 938 907 906
f 895 918 750
f 914 910 695
f 915 946 737
f 897 767 862
f 957 913 848
f 913 903 908
f 916 718 879
f 903 918 895
f 928 919 868
f 891 920 912
f 871 699 683
f 854 901 860
f 913 855 903
f 872 871 907
f 938 872 907
f 896 1003 461
f 1003 880 461
f 904 918 903
f 889 918 904
f 732 887 922
f 923 728 922
f 728 732 922
f 917 719 909
f 780 924 888
f 918 905 750
f 912 915 737
f 919 925 740
f 883 885 884
f 885 883 757
f 1065 938 906
f 980 923 922
f 842 926 806
f 840 992 820
f 992 993 820
f 957 930 913
f 930 855 913
f 956 922 887
f 387 898 567
f 1035 807 1034
f 931 924 780
f 967 842 893
f 929 916 879
f 933 747 751
f 931 780 951
f 749 920 891
f 994 776 775
f 934 994 775
f 744 934 775
f 1011 892 776
f 777 969 970
f 935 729 970
f 936 969 777
f 882 883 884
f 1035 858 807
f 921 980 922
f 956 921 922
f 926 810 806
f 920 919 912
f 767 956 887
f 941 981 853
f 939 867 993
f 957 690 930
f 728 678 732
f 1053 941 932
f 953 929 942
f 944 905 918
f 957 889 690
f 889 944 918
f 920 925 919
f 937 933 751
f 888 778 866
f 266 928 824
f 945 925 920
f 962 1061 927
f 944 750 905
f 925 945 740
f 961 930 828
f 911 962 927
f 1061 947 927
f 947 900 927
f 882 948 883
f 894 949 679
f 949 730 679
f 188 909 189
f 935 875 729
f 749 945 920
f 950 898 387
f 907 1065 906
f 919 915 912
f 953 1003 896
f 900 947 896
f 947 953 896
f 938 955 872
f 933 1084 747
f 957 944 889
f 948 954 883
f 888 958 778
f 958 789 778
f 863 943 865
f 266 959 928
f 944 960 387
f 961 911 930
f 961 962 911
f 949 963 730
f 854 1013 901
f 236 758 621
f 964 955 938
f 966 961 828
f 954 966 828
f 914 1015 910
f 968 950 387
f 967 893 789
f 928 915 919
f 960 968 387
f 1012 935 970
f 967 926 842
f 956 971 921
f 886 952 876
f 955 1016 872
f 865 1010 840
f 958 1030 789
f 937 751 973
f 1035 975 858
f 959 946 915
f 758 977 749
f 744 719 917
f 875 1015 914
f 972 1015 875
f 1008 939 993
f 1008 993 940
f 957 960 944
f 979 973 876
f 1045 753 718
f 1026 916 929
f 971 980 921
f 1019 964 938
f 1026 718 916
f 907 1013 1065
f 928 959 915
f 977 945 749
f 978 767 897
f 977 976 945
f 952 979 876
f 898 877 805
f 899 936 777
f 1002 1022 984
f 985 1023 1075
f 1000 1024 985
f 1131 745 730
f 753 1031 882
f 957 987 960
f 1064 1013 854
f 892 988 897
f 1131 890 745
f 974 1064 854
f 1090 1004 888
f 989 990 714
f 990 266 714
f 767 991 956
f 995 1011 776
f 994 995 776
f 996 938 1065
f 902 1038 899
f 926 1006 810
f 997 989 714
f 716 997 714
f 1053 981 941
f 1057 894 890
f 988 978 897
f 924 931 888
f 931 1090 888
f 1026 1001 718
f 957 998 987
f 980 999 728
f 923 980 728
f 999 726 728
f 1001 1045 718
f 1000 973 979
f 1030 967 789
f 747 1038 902
f 1002 1040 1007
f 1027 985 1075
f 1010 992 840
f 1003 942 880
f 967 1005 926
f 1004 958 888
f 901 1013 907
f 1003 953 942
f 1008 940 993
f 975 848 858
f 188 1009 909
f 935 972 875
f 1090 931 951
f 969 995 970
f 995 994 970
f 994 1012 970
f 936 1011 969
f 1011 995 969
f 943 1010 865
f 1014 929 953
f 1099 960 987
f 1009 917 909
f 996 1019 938
f 950 877 898
f 1014 1026 929
f 1018 730 963
f 934 1012 994
f 1033 1002 1007
f 976 692 697
f 955 1020 1016
f 1042 1056 949
f 894 1042 949
f 983 1086 1017
f 863 1010 943
f 1002 1029 1040
f 1032 982 731
f 984 1029 1002
f 1021 933 937
f 724 974 854
f 1045 1031 753
f 1027 1029 985
f 985 1029 1000
f 965 1032 731
f 1047 957 848
f 952 986 979
f 1040 1059 1007
f 1056 1063 949
f 1135 863 1006
f 1017 984 983
f 1036 979 986
f 1017 1037 984
f 1037 1029 984
f 1019 1039 964
f 1041 937 973
f 1000 1041 973
f 1000 979 1036
f 1068 744 917
f 1029 1027 1040
f 1121 1040 1027
f 1105 1091 985
f 1049 1000 1036
f 894 1057 1042
f 1018 1131 730
f 1043 1014 953
f 1025 1008 993
f 1020 955 964
f 1039 1020 964
f 1026 1045 1001
f 982 1112 731
f 1112 716 731
f 1030 1005 967
f 1014 1043 1026
f 1046 890 1131
f 975 1047 848
f 1088 975 1035
f 1049 1036 986
f 1050 1010 863
f 1024 1109 985
f 1109 1093 985
f 1002 1054 1022
f 985 1055 1023
f 1000 1048 1024
f 1046 1057 890
f 1031 948 882
f 1144 1080 984
f 1052 956 991
f 1033 1102 1002
f 1060 983 984
f 1093 1105 985
f 1062 1048 1000
f 1066 947 1061
f 1061 1045 1026
f 1043 1061 1026
f 767 1052 991
f 1067 767 978
f 1084 1122 747
f 1045 948 1031
f 188 917 1009
f 1068 1044 744
f 1015 1069 910
f 1071 1056 1042
f 1052 971 956
f 1043 1066 1061
f 1088 1047 975
f 1066 1043 953
f 1011 988 892
f 1072 951 1016
f 1053 1051 981
f 1057 1071 1042
f 1073 1013 1064
f 1060 984 1080
f 1062 1000 1049
f 1058 1002 1102
f 1059 1040 1121
f 188 1074 917
f 1022 1144 984
f 1087 1086 983
f 1080 1087 983
f 1070 952 886
f 1037 1018 963
f 1029 1037 963
f 949 1029 963
f 947 1066 953
f 1081 1019 996
f 1074 1068 917
f 972 1069 1015
f 1011 1076 988
f 1061 966 1045
f 1077 886 877
f 1041 1021 937
f 966 962 961
f 966 1061 962
f 1029 1041 1000
f 1029 949 1063
f 1041 1078 1021
f 1075 1121 1027
f 1038 936 899
f 1081 1039 1019
f 1070 986 952
f 1058 1054 1002
f 1091 1055 985
f 1056 1079 1063
f 1154 1129 867
f 939 1154 867
f 981 1034 853
f 1082 1006 926
f 1005 1082 926
f 1086 1037 1017
f 1071 1079 1056
f 1060 1080 983
f 966 954 1045
f 954 948 1045
f 1083 1052 767
f 1067 1083 767
f 1116 939 1008
f 1135 1050 863
f 1025 1116 1008
f 1078 933 1021
f 1044 934 744
f 957 1089 998
f 1065 1081 996
f 1081 1020 1039
f 1010 1182 992
f 1182 993 992
f 1057 1079 1071
f 968 1100 950
f 1100 968 960
f 1007 1155 1033
f 1059 1092 1007
f 1092 1155 1007
f 1050 1135 1010
f 1070 1133 986
f 1133 1049 986
f 1094 1075 1023
f 1055 1094 1023
f 1095 1109 1024
f 1048 1095 1024
f 1012 972 935
f 1096 1028 676
f 946 1096 676
f 1100 960 1099
f 1088 1113 1047
f 1030 1085 1005
f 1047 1089 957
f 1147 1032 965
f 726 1147 965
f 1100 877 950
f 1067 978 988
f 1076 1067 988
f 1122 1038 747
f 1079 1124 1063
f 1124 1029 1063
f 1065 1098 1081
f 1100 1099 877
f 1099 1077 877
f 1053 932 1129
f 1159 1098 1065
f 1101 1170 910
f 1069 1101 910
f 1091 1149 1055
f 1103 1020 1081
f 1124 1104 1041
f 1029 1124 1041
f 1233 958 1004
f 1106 1018 1037
f 1208 1013 1073
f 1202 1057 1046
f 1032 1147 266
f 1062 1143 1048
f 999 980 971
f 1160 999 971
f 1012 1118 972
f 1098 1103 1081
f 1214 1006 1082
f 1107 1090 951
f 1072 1107 951
f 1038 1097 936
f 990 989 266
f 987 1077 1099
f 1233 1030 958
f 227 692 976
f 236 977 758
f 982 1032 266
f 972 1101 1069
f 1118 1101 972
f 1057 1124 1079
f 1085 1110 1005
f 1214 1135 1006
f 1013 1111 1065
f 989 1112 266
f 1112 982 266
f 1103 1016 1020
f 1114 933 1078
f 1110 1082 1005
f 1135 1115 1010
f 1051 1117 981
f 1176 1051 1053
f 1155 1102 1033
f 1119 1072 1016
f 974 1120 1064
f 1104 1078 1041
f 1103 1119 1016
f 1202 1124 1057
f 1179 1049 1133
f 1123 1143 1049
f 1111 1159 1065
f 1083 1125 1052
f 1126 1053 1129
f 1108 1116 1025
f 1090 1127 1004
f 933 1128 1084
f 1128 1122 1084
f 1184 1034 981
f 1049 1143 1062
f 1132 1030 1233
f 1038 1134 1097
f 1152 1127 1090
f 1166 1160 971
f 1025 993 1182
f 1125 971 1052
f 1184 1035 1034
f 1136 227 976
f 1137 1138 977
f 236 1137 977
f 43 1137 236
f 1159 1139 1098
f 1130 1074 188
f 1068 1140 1044
f 1089 987 998
f 1106 1131 1018
f 1152 1090 1107
f 1113 1236 1047
f 1179 1123 1049
f 1141 1128 933
f 1097 1134 936
f 1259 1028 1096
f 1184 1088 1035
f 1195 1070 886
f 1077 1195 886
f 43 1201 1137
f 1148 1265 227
f 1136 1148 227
f 1142 1087 1080
f 1139 1103 1098
f 1171 1067 1076
f 1122 1134 1038
f 37 1201 43
f 1145 1115 1135
f 1112 997 716
f 1147 959 266
f 1093 1149 1105
f 1201 1150 1137
f 1265 40 227
f 1187 1037 1086
f 1064 1172 1073
f 1144 1167 1080
f 1149 1091 1105
f 1125 1166 971
f 1150 1138 1137
f 1011 1151 1076
f 1156 1148 1136
f 1150 1335 1138
f 1146 1133 1070
f 997 1112 989
f 1184 1113 1088
f 1161 1059 1121
f 1167 1142 1080
f 1203 1184 981
f 1117 1203 981
f 1138 1136 976
f 1138 976 977
f 1151 1171 1076
f 1200 1144 1022
f 1054 1200 1022
f 1197 1075 1094
f 1335 1156 1138
f 1010 1115 1182
f 1134 1011 936
f 1140 1068 1074
f 1130 1140 1074
f 1138 1156 1136
f 1157 1104 1124
f 724 1120 974
f 1114 1169 933
f 1169 1141 933
f 1197 1121 1075
f 1104 1157 1078
f 1161 1092 1059
f 1089 1180 987
f 1132 1085 1030
f 1197 1162 1121
f 1162 1161 1121
f 1164 1157 1124
f 1120 1172 1064
f 1165 1108 1025
f 1083 1166 1125
f 1037 1168 1106
f 1134 1151 1011
f 1169 1114 1078
f 1157 1169 1078
f 1175 1134 1122
f 1087 1187 1086
f 1153 1083 1067
f 1163 1058 1102
f 1202 1193 1124
f 1193 1164 1124
f 1184 1236 1113
f 939 1229 1154
f 1236 1089 1047
f 1171 1153 1067
f 1128 1175 1122
f 1177 1166 1083
f 1178 1187 1087
f 1183 1208 1073
f 1154 1126 1129
f 1134 1181 1151
f 1173 1181 1134
f 1287 1233 1004
f 1155 1163 1102
f 1118 1170 1101
f 1196 1170 1118
f 1172 1185 1073
f 1185 1183 1073
f 1181 1171 1151
f 1175 1173 1134
f 1188 1159 1158
f 1189 1149 1093
f 1211 1130 188
f 1044 1206 934
f 1170 1190 910
f 1180 1222 987
f 1219 1165 1025
f 1191 1048 1143
f 1174 1046 1131
f 1153 1177 1083
f 1189 1055 1149
f 1127 1287 1004
f 1190 188 910
f 1159 1207 1139
f 1236 1180 1089
f 726 1194 1147
f 1012 1196 1118
f 1242 1093 1109
f 1146 1198 1133
f 1198 1179 1133
f 1087 1199 1178
f 1191 1109 1095
f 1048 1191 1095
f 1123 1191 1143
f 1175 1171 1181
f 1175 1181 1173
f 1201 1152 1107
f 1116 1229 939
f 1174 1202 1046
f 1237 1214 1082
f 1110 1237 1082
f 1145 1182 1115
f 1195 1146 1070
f 1222 1077 987
f 724 1283 1120
f 1188 1207 1159
f 1204 1110 1085
f 1072 1201 1107
f 1205 1135 1214
f 1140 1206 1044
f 1108 1229 1116
f 1126 1176 1053
f 1176 1117 1051
f 1135 1186 1145
f 1164 1169 1157
f 1132 1204 1085
f 1251 1155 1092
f 1187 1216 1037
f 1013 1208 1111
f 1162 1092 1161
f 1128 1153 1171
f 1128 1171 1175
f 1224 1236 1184
f 1058 1209 1054
f 1142 1167 1087
f 1210 1127 1152
f 1216 1168 1037
f 1206 1012 934
f 1213 1132 1233
f 1207 1103 1139
f 1250 1123 1179
f 1195 1198 1146
f 1169 1215 1141
f 1054 1209 1200
f 1221 1058 1163
f 1250 1191 1123
f 1177 1160 1166
f 1206 1140 1130
f 1211 1206 1130
f 1196 1212 1170
f 1217 1211 188
f 1190 1217 188
f 1117 1261 1203
f 1218 1210 1152
f 1182 1219 1025
f 1279 1205 1214
f 1216 1106 1168
f 1202 1223 1193
f 1240 1220 1144
f 1221 1163 1155
f 1220 1167 1144
f 1242 1189 1093
f 1185 1208 1183
f 959 1096 946
f 1216 1131 1106
f 1189 1225 1055
f 1283 1185 1172
f 1120 1283 1172
f 1218 1152 1201
f 1184 1226 1224
f 1141 1177 1153
f 1128 1141 1153
f 1227 1144 1200
f 1241 1197 1094
f 1055 1225 1094
f 1228 1109 1191
f 1205 1182 1145
f 1230 1184 1203
f 1227 1240 1144
f 1228 1242 1109
f 1195 1231 1198
f 1231 1179 1198
f 1232 1283 724
f 1219 1108 1165
f 1248 1219 1182
f 1279 1227 1200
f 1209 1279 1200
f 1192 1221 1155
f 1205 1145 1186
f 1236 1222 1180
f 1212 1190 1170
f 1215 1263 1141
f 727 1234 724
f 1167 1199 1087
f 1238 1159 1111
f 1092 1276 1251
f 1252 1192 1155
f 1280 1184 1230
f 1162 1276 1092
f 1012 1244 1196
f 1247 1233 1287
f 1244 1012 1206
f 1219 1229 1108
f 1210 1287 1127
f 1077 1222 1195
f 1141 1245 1177
f 1245 1160 1177
f 1058 1246 1209
f 1249 1199 1167
f 1252 1155 1251
f 1188 1103 1207
f 1202 1243 1223
f 1234 1272 724
f 1272 1232 724
f 1268 1219 1248
f 1253 1189 1242
f 1254 1250 1179
f 1268 1255 1219
f 1256 1252 1155
f 1252 1256 1155
f 1240 1167 1220
f 1274 1212 1196
f 1205 1186 1135
f 1224 1262 1236
f 1244 1274 1196
f 1240 1249 1167
f 1246 1058 1221
f 727 1028 1234
f 1222 1231 1195
f 1258 1226 1184
f 1147 1259 1096
f 959 1147 1096
f 1263 1245 1141
f 1261 1260 1203
f 1194 1259 1147
f 1247 1178 1233
f 1178 1213 1233
f 1176 1261 1117
f 1238 1158 1159
f 1237 1279 1214
f 1223 1243 1193
f 1243 1164 1193
f 1265 1131 1216
f 1268 1264 1255
f 1178 1247 1187
f 1213 1204 1132
f 1266 1268 1248
f 1267 1252 1251
f 1270 1264 1268
f 1265 1174 1131
f 1262 1179 1231
f 1267 1269 1252
f 1208 1239 1111
f 1229 1321 1154
f 1271 1245 1263
f 1225 1235 1094
f 1231 1222 1236
f 1262 1231 1236
f 1241 1126 1154
f 1321 1241 1154
f 1126 1241 1094
f 1235 1126 1094
f 1230 1228 1191
f 1280 1230 1191
f 1279 1237 1227
f 1237 1240 1227
f 1230 1203 1228
f 1203 1242 1228
f 1245 999 1160
f 1260 1242 1203
f 1271 999 1245
f 1273 1162 1197
f 1243 1338 1169
f 1164 1243 1169
f 1274 1244 1206
f 1257 1274 1206
f 1212 1217 1190
f 1072 1150 1201
f 1273 1276 1162
f 1257 1206 1211
f 1217 1257 1211
f 1235 1176 1126
f 1204 1237 1110
f 1280 1258 1184
f 1028 1272 1234
f 1264 1219 1255
f 1224 1226 1262
f 1277 1273 1197
f 1202 1174 1243
f 1235 1278 1176
f 1205 1285 1182
f 1250 1282 1191
f 1282 1280 1191
f 1192 1295 1221
f 1187 1284 1216
f 1241 1277 1197
f 1275 1229 1219
f 1279 1285 1205
f 1278 1261 1176
f 1243 1174 1338
f 1295 1246 1221
f 1281 1249 1240
f 1282 1250 1254
f 1338 1215 1169
f 1274 1257 1217
f 1274 1217 1212
f 1285 1248 1182
f 1329 1103 1188
f 1294 1247 1287
f 1264 1275 1219
f 1185 1239 1208
f 1264 1286 1275
f 1179 1288 1254
f 1242 1322 1253
f 1272 1283 1232
f 1252 1290 1192
f 1334 1238 1111
f 1239 1332 1111
f 1332 1334 1111
f 1119 1150 1072
f 1028 1291 1272
f 1292 1262 1226
f 1238 1188 1158
f 1288 1282 1254
f 1148 1174 1265
f 1226 1258 1280
f 1284 1265 1216
f 1289 1237 1204
f 1329 1119 1103
f 1247 1294 1187
f 1294 1284 1187
f 1277 1276 1273
f 1218 1294 1210
f 1290 1295 1192
f 1178 1199 1249
f 1289 1204 1213
f 1293 1285 1279
f 1296 1283 1272
f 1297 1266 1248
f 1297 1285 1266
f 1285 1298 1266
f 1178 1289 1213
f 1246 1299 1209
f 1298 1300 1266
f 1189 1301 1225
f 1302 1280 1282
f 1300 1268 1266
f 1275 1321 1229
f 1303 1270 1268
f 1252 1304 1290
f 1300 1305 1268
f 1306 1307 1267
f 1297 1298 1285
f 1308 1269 1267
f 1262 1288 1179
f 1285 1300 1298
f 1299 1279 1209
f 1309 1303 1268
f 1305 1309 1268
f 1251 1310 1267
f 1310 1306 1267
f 1304 1295 1290
f 1281 1178 1249
f 1284 40 1265
f 1289 1281 1240
f 1248 1285 1297
f 1252 1295 1304
f 37 1218 1201
f 1322 1189 1253
f 1310 1307 1306
f 1311 1310 1251
f 1260 1322 1242
f 1311 1306 1310
f 1305 1303 1309
f 1311 1307 1306
f 1311 1267 1307
f 1300 1309 1305
f 1300 1303 1309
f 1237 1289 1240
f 999 1271 726
f 1313 1241 1321
f 1300 1270 1303
f 1299 1312 1279
f 1235 1261 1278
f 1312 1293 1279
f 1314 1308 1267
f 1311 1251 1276
f 1314 1269 1308
f 37 1294 1218
f 1315 1264 1270
f 1316 1269 1314
f 1308 1316 1314
f 1315 1317 1264
f 1329 1150 1119
f 1293 1300 1285
f 1318 1286 1264
f 1267 1316 1314
f 1277 1311 1276
f 1295 1299 1246
f 1289 1178 1281
f 1322 1301 1189
f 1288 1302 1282
f 1317 1318 1264
f 1319 1288 1262
f 1293 1270 1300
f 1321 1320 1313
f 1292 1319 1262
f 1315 1318 1317
f 1261 1322 1260
f 1301 1235 1225
f 1269 1295 1252
f 1317 1286 1318
f 1238 1329 1188
f 1311 1316 1267
f 1316 1324 1269
f 1323 1315 1270
f 1311 1324 1316
f 1323 1317 1315
f 1323 1286 1317
f 1325 1321 1320
f 1294 1287 1210
f 1324 1295 1269
f 1321 1275 1325
f 1291 1296 1272
f 1323 1275 1286
f 1277 1324 1311
f 1293 1323 1270
f 1321 1323 1320
f 1325 1323 1321
f 1326 1319 1292
f 1302 1226 1280
f 1324 1299 1295
f 1312 1323 1293
f 1320 1323 1313
f 1323 1325 1320
f 1326 1327 1288
f 1319 1326 1288
f 1327 1326 1292
f 1322 1261 1235
f 1302 1292 1226
f 1322 1235 1301
f 1328 1313 1323
f 1325 1328 1323
f 1324 1277 1241
f 1326 1327 1319
f 1327 1302 1288
f 1302 1327 1292
f 1323 1325 1275
f 1328 1323 1312
f 1299 1313 1328
f 1312 1299 1328
f 1241 1299 1324
f 1313 1299 1241
f 1334 1329 1238
f 1283 1296 1185
f 1294 1333 1284
f 1174 1330 1338
f 1330 1331 1338
f 1284 1333 40
f 1333 39 40
f 1333 1294 37
f 1348 1215 1338
f 1185 1341 1239
f 39 1333 37
f 1271 1194 726
f 1335 1291 1028
f 1259 1335 1028
f 1263 1336 1271
f 1337 1296 1291
f 1336 1194 1271
f 1335 1337 1291
f 1341 1332 1239
f 1339 1329 1334
f 1331 1339 1338
f 1185 1296 1341
f 1332 1340 1334
f 1338 1339 1334
f 1340 1338 1334
f 1148 1330 1174
f 1348 1263 1215
f 1338 1342 1348
f 1329 1343 1150
f 1156 1330 1148
f 1343 1335 1150
f 1343 1329 1339
f 1344 1343 1339
f 1330 1345 1331
f 1336 1345 1330
f 1341 1346 1332
f 1346 1347 1332
f 1345 1336 1263
f 1347 1340 1332
f 1349 1344 1339
f 1345 1339 1331
f 1344 1335 1343
f 1345 1349 1339
f 1348 1345 1263
f 1296 1346 1341
f 1347 1342 1338
f 1156 1336 1330
f 1347 1338 1340
f 1347 1348 1342
f 1337 1344 1346
f 1296 1337 1346
f 1347 1345 1348
f 1344 1347 1346
f 1344 1349 1347
f 1349 1345 1347
f 1336 1156 1194
f 1335 1344 1337
f 1156 1259 1194
f 1156 1335 1259
