v 0.143985 -0.0856073 0.00372447
v 0.143985 -0.0858924 0.00362592
v 0.143985 -0.0858233 0.00363501
v 0.143985 -0.0855494 0.00376897
v 0.143985 -0.0854219 0.00386679
v 0.143985 -0.0852796 0.00405225
v 0.143985 -0.0851901 0.00426823
v 0.143985 -0.0853672 0.003938
v 0.143985 -0.0851596 0.0045
v 0.143985 -0.0851847 0.00430931
v 0.143985 -0.0852796 0.00494775
v 0.143985 -0.0851901 0.00473177
v 0.143985 -0.0853672 0.005062
v 0.143985 -0.0854219 0.00513321
v 0.143985 -0.0856073 0.00527553
v 0.143985 -0.0858233 0.00536499
v 0.143985 -0.0855494 0.00523103
v 0.143985 -0.0860551 0.0053955
v 0.143985 -0.0858924 0.00537408
v 0.143985 -0.0865028 0.00527553
v 0.143985 -0.0862869 0.00536499
v 0.143985 -0.0865608 0.00523103
v 0.143985 -0.0866883 0.00513321
v 0.143985 -0.0868306 0.00494775
v 0.143985 -0.0869201 0.00473177
v 0.143985 -0.0867429 0.005062
v 0.143985 -0.0869506 0.0045
v 0.143985 -0.0869255 0.00469069
v 0.143985 -0.0868306 0.00405225
v 0.143985 -0.0869201 0.00426823
v 0.143985 -0.0867429 0.003938
v 0.143985 -0.0866883 0.00386679
v 0.143985 -0.0865608 0.00376897
v 0.143985 -0.0865028 0.00372447
v 0.143985 -0.0860551 0.0036045
v 0.143985 -0.0862869 0.00363501
v 0.144055 -0.0855253 0.00393739
v 0.144137 -0.0862348 0.00506261
v 0.144055 -0.0865849 0.00506261
v 0.144137 -0.0862348 0.00393739
v 0.144055 -0.0865849 0.00393739
v 0.144137 -0.086614 0.00430915
v 0.144137 -0.086614 0.00469085
v 0.144137 -0.0858754 0.00506261
v 0.144055 -0.0855253 0.00506261
v 0.144137 -0.0854961 0.00469085
v 0.144137 -0.0854961 0.00430915
v 0.144137 -0.0858754 0.00393739
v 0.144223 -0.0862447 0.00430915
v 0.144223 -0.0862447 0.00469085
v 0.144223 -0.0858655 0.00430915
v 0.144223 -0.0858655 0.00469085
v 0.143595 -0.0860551 0.0035
v 0.143595 -0.0863139 0.00353407
v 0.143595 -0.0867622 0.00379289
v 0.143595 -0.0865551 0.00363397
v 0.143595 -0.0869211 0.004
v 0.143595 -0.087021 0.00424118
v 0.143595 -0.087021 0.00475882
v 0.143595 -0.0870551 0.0045
v 0.143595 -0.0867622 0.00520711
v 0.143595 -0.0869211 0.005
v 0.143595 -0.0865551 0.00536603
v 0.143595 -0.0863139 0.00546593
v 0.143595 -0.0857963 0.00546593
v 0.143595 -0.0860551 0.0055
v 0.143595 -0.085348 0.00520711
v 0.143595 -0.0855551 0.00536603
v 0.143595 -0.0851891 0.005
v 0.143595 -0.0850892 0.00475882
v 0.143595 -0.0850892 0.00424118
v 0.143595 -0.0850551 0.0045
v 0.143595 -0.085348 0.00379289
v 0.143595 -0.0851891 0.004
v 0.143595 -0.0855551 0.00363397
v 0.143595 -0.0857963 0.00353407
v 0.142045 -0.0860551 0.0055
v 0.142045 -0.0863139 0.00546593
v 0.142045 -0.0865551 0.00536603
v 0.142045 -0.0867622 0.00520711
v 0.142045 -0.0869211 0.005
v 0.142045 -0.087021 0.00475882
v 0.142045 -0.0870551 0.0045
v 0.142045 -0.087021 0.00424118
v 0.142045 -0.0869211 0.004
v 0.142045 -0.0867622 0.00379289
v 0.142045 -0.0865551 0.00363397
v 0.142045 -0.0863139 0.00353407
v 0.142045 -0.0860551 0.0035
v 0.142045 -0.0857963 0.00353407
v 0.142045 -0.0855551 0.00363397
v 0.142045 -0.085348 0.00379289
v 0.142045 -0.0851891 0.004
v 0.142045 -0.0850892 0.00424118
v 0.142045 -0.0850551 0.0045
v 0.142045 -0.0850892 0.00475882
v 0.142045 -0.0851891 0.005
v 0.142045 -0.085348 0.00520711
v 0.142045 -0.0855551 0.00536603
v 0.142045 -0.0857963 0.00546593
v 0.142045 -0.0848051 -0.00216506
v 0.142045 -0.0855551 -0.00363397
v 0.142045 -0.085348 -0.00379289
v 0.142045 -0.0857963 -0.00353407
v 0.142045 -0.0860551 -0.0025
v 0.142045 -0.0867021 -0.00241481
v 0.142045 -0.0863139 -0.00353407
v 0.142045 -0.0865551 -0.00363397
v 0.142045 -0.0873051 -0.00216506
v 0.142045 -0.0878229 -0.00176777
v 0.142045 -0.0867622 -0.00379289
v 0.142045 -0.085408 0.00241481
v 0.142045 -0.085408 -0.00241481
v 0.142045 -0.0860551 -0.0035
v 0.142045 -0.0869211 -0.004
v 0.142045 -0.0860551 0.0025
v 0.142045 -0.0743551 -0.0081
v 0.142045 -0.0851891 -0.005
v 0.142045 -0.085348 -0.00520711
v 0.142045 -0.0851891 -0.004
v 0.142045 -0.0735551 0.0073
v 0.142045 -0.08389 -0.00125
v 0.142045 -0.0743551 0.0081
v 0.142045 -0.0905551 -0.0081
v 0.142045 -0.0857963 -0.00546593
v 0.142045 -0.0855551 -0.00536603
v 0.142045 -0.0735551 -0.0073
v 0.142045 -0.0850551 -0.0045
v 0.142045 -0.0842873 -0.00176777
v 0.142045 -0.0878229 0.00176777
v 0.142045 -0.0873051 0.00216506
v 0.142045 -0.0867021 0.00241481
v 0.142045 -0.08389 0.00125
v 0.142045 -0.0905551 0.0081
v 0.142045 -0.0913551 -0.0073
v 0.142045 -0.0867622 -0.00520711
v 0.142045 -0.0860551 -0.0055
v 0.142045 -0.0863139 -0.00546593
v 0.142045 -0.0850892 -0.00424118
v 0.142045 -0.0835551 -5.91053e-16
v 0.142045 -0.0836403 -0.000647048
v 0.142045 -0.0848051 0.00216506
v 0.142045 -0.0913551 0.0073
v 0.142045 -0.0865551 -0.00536603
v 0.142045 -0.0882201 0.00125
v 0.142045 -0.0842873 0.00176777
v 0.142045 -0.0836403 0.000647048
v 0.142045 -0.0869211 -0.005
v 0.142045 -0.087021 -0.00475882
v 0.142045 -0.0850892 -0.00475882
v 0.142045 -0.0882201 -0.00125
v 0.142045 -0.0884699 0.000647048
v 0.142045 -0.087021 -0.00424118
v 0.142045 -0.0885551 -5.70127e-16
v 0.142045 -0.0870551 -0.0045
v 0.142045 -0.0884699 -0.000647048
v 0.135545 -0.0735551 0.0073
v 0.135545 -0.0735551 -0.0073
v 0.135375 -0.0952253 -0.0081
v 0.13616 -0.0936839 -0.0081
v 0.136824 -0.0941312 -0.0073
v 0.137295 -0.0923782 -0.0081
v 0.137831 -0.0929727 -0.0073
v 0.138712 -0.0913859 -0.0081
v 0.139088 -0.0920923 -0.0073
v 0.140328 -0.0907659 -0.0081
v 0.140521 -0.0915422 -0.0073
v 0.136127 -0.0954989 -0.0073
v 0.140328 -0.0907659 0.0081
v 0.140521 -0.0915422 0.0073
v 0.138712 -0.0913859 0.0081
v 0.139088 -0.0920923 0.0073
v 0.137295 -0.0923782 0.0081
v 0.137831 -0.0929727 0.0073
v 0.13616 -0.0936839 0.0081
v 0.136824 -0.0941312 0.0073
v 0.135375 -0.0952253 0.0081
v 0.136127 -0.0954989 0.0073
v 0.143595 -0.0860551 -0.0035
v 0.143595 -0.0863139 -0.00353407
v 0.143595 -0.0865551 -0.00363397
v 0.143595 -0.0867622 -0.00379289
v 0.143595 -0.0869211 -0.004
v 0.143595 -0.087021 -0.00424118
v 0.143595 -0.0870551 -0.0045
v 0.143595 -0.087021 -0.00475882
v 0.143595 -0.0869211 -0.005
v 0.143595 -0.0867622 -0.00520711
v 0.143595 -0.0865551 -0.00536603
v 0.143595 -0.0863139 -0.00546593
v 0.143595 -0.0860551 -0.0055
v 0.143595 -0.0857963 -0.00546593
v 0.143595 -0.0855551 -0.00536603
v 0.143595 -0.085348 -0.00520711
v 0.143595 -0.0851891 -0.005
v 0.143595 -0.0850892 -0.00475882
v 0.143595 -0.0850551 -0.0045
v 0.143595 -0.0850892 -0.00424118
v 0.143595 -0.0851891 -0.004
v 0.143595 -0.085348 -0.00379289
v 0.143595 -0.0855551 -0.00363397
v 0.143595 -0.0857963 -0.00353407
v 0.143985 -0.0860551 -0.0053955
v 0.143985 -0.0862869 -0.00536499
v 0.143985 -0.0865028 -0.00527553
v 0.143985 -0.0865608 -0.00523103
v 0.143985 -0.0867429 -0.005062
v 0.143985 -0.0866883 -0.00513321
v 0.143985 -0.0868306 -0.00494775
v 0.143985 -0.0869201 -0.00473177
v 0.143985 -0.0869506 -0.0045
v 0.143985 -0.0869255 -0.00430931
v 0.143985 -0.0869201 -0.00426823
v 0.143985 -0.0868306 -0.00405225
v 0.143985 -0.0867429 -0.003938
v 0.143985 -0.0865608 -0.00376897
v 0.143985 -0.0866883 -0.00386679
v 0.143985 -0.0865028 -0.00372447
v 0.143985 -0.0862869 -0.00363501
v 0.143985 -0.0860551 -0.0036045
v 0.143985 -0.0858924 -0.00362592
v 0.143985 -0.0858233 -0.00363501
v 0.143985 -0.0856073 -0.00372447
v 0.143985 -0.0855494 -0.00376897
v 0.143985 -0.0853672 -0.003938
v 0.143985 -0.0854219 -0.00386679
v 0.143985 -0.0852796 -0.00405225
v 0.143985 -0.0851901 -0.00426823
v 0.143985 -0.0851596 -0.0045
v 0.143985 -0.0851847 -0.00469069
v 0.143985 -0.0851901 -0.00473177
v 0.143985 -0.0852796 -0.00494775
v 0.143985 -0.0853672 -0.005062
v 0.143985 -0.0855494 -0.00523103
v 0.143985 -0.0854219 -0.00513321
v 0.143985 -0.0856073 -0.00527553
v 0.143985 -0.0858233 -0.00536499
v 0.143985 -0.0858924 -0.00537408
v 0.144055 -0.0855253 -0.00506261
v 0.144137 -0.0862348 -0.00393739
v 0.144055 -0.0865849 -0.00393739
v 0.144137 -0.0862348 -0.00506261
v 0.144055 -0.0865849 -0.00506261
v 0.144137 -0.086614 -0.00469085
v 0.144137 -0.086614 -0.00430915
v 0.144137 -0.0858754 -0.00393739
v 0.144055 -0.0855253 -0.00393739
v 0.144137 -0.0854961 -0.00430915
v 0.144137 -0.0854961 -0.00469085
v 0.144137 -0.0858754 -0.00506261
v 0.144223 -0.0862447 -0.00469085
v 0.144223 -0.0862447 -0.00430915
v 0.144223 -0.0858655 -0.00469085
v 0.144223 -0.0858655 -0.00430915
v 0.145845 -0.0860551 -0.0025
v 0.145845 -0.085408 -0.00241481
v 0.145845 -0.0848051 -0.00216506
v 0.145845 -0.0842873 -0.00176777
v 0.145845 -0.08389 -0.00125
v 0.145845 -0.0836403 -0.000647048
v 0.145845 -0.0835551 -5.99679e-16
v 0.145845 -0.0836403 0.000647048
v 0.145845 -0.08389 0.00125
v 0.145845 -0.0842873 0.00176777
v 0.145845 -0.0848051 0.00216506
v 0.145845 -0.085408 0.00241481
v 0.145845 -0.0860551 0.0025
v 0.145845 -0.0867021 0.00241481
v 0.145845 -0.0873051 0.00216506
v 0.145845 -0.0878229 0.00176777
v 0.145845 -0.0882201 0.00125
v 0.145845 -0.0884699 0.000647048
v 0.145845 -0.0885551 -5.92248e-16
v 0.145845 -0.0884699 -0.000647048
v 0.145845 -0.0882201 -0.00125
v 0.145845 -0.0878229 -0.00176777
v 0.145845 -0.0873051 -0.00216506
v 0.145845 -0.0867021 -0.00241481
v 0.146045 -0.0860551 0.0027
v 0.146045 -0.0853563 0.002608
v 0.146045 -0.0847051 0.00233827
v 0.146045 -0.0841459 0.00190919
v 0.146045 -0.0837168 0.00135
v 0.146045 -0.0834471 0.000698811
v 0.146045 -0.0833551 -6.00481e-16
v 0.146045 -0.0834471 -0.000698811
v 0.146045 -0.0837168 -0.00135
v 0.146045 -0.0841459 -0.00190919
v 0.146045 -0.0847051 -0.00233827
v 0.146045 -0.0853563 -0.002608
v 0.146045 -0.0860551 -0.0027
v 0.146045 -0.0867539 -0.002608
v 0.146045 -0.0874051 -0.00233827
v 0.146045 -0.0879643 -0.00190919
v 0.146045 -0.0883934 -0.00135
v 0.146045 -0.0886631 -0.000698811
v 0.146045 -0.0887551 -5.92456e-16
v 0.146045 -0.0886631 0.000698811
v 0.146045 -0.0883934 0.00135
v 0.146045 -0.0879643 0.00190919
v 0.146045 -0.0874051 0.00233827
v 0.146045 -0.0867539 0.002608
v 0.145896 -0.0854063 0.0024214
v 0.145896 -0.0848017 0.00217097
v 0.145896 -0.0842825 0.00177259
v 0.145896 -0.0838841 0.00125341
v 0.145896 -0.0836337 0.000648811
v 0.145896 -0.0835483 -5.99975e-16
v 0.145896 -0.0836337 -0.000648811
v 0.145896 -0.0838841 -0.00125341
v 0.145896 -0.0842825 -0.00177259
v 0.145896 -0.0848017 -0.00217097
v 0.145896 -0.0854063 -0.0024214
v 0.145896 -0.0860551 -0.00250682
v 0.145896 -0.0867039 -0.0024214
v 0.145896 -0.0873085 -0.00217097
v 0.145896 -0.0878277 -0.00177259
v 0.145896 -0.0882261 -0.00125341
v 0.145896 -0.0884765 -0.000648811
v 0.145896 -0.0885619 -5.9358e-16
v 0.145896 -0.0884765 0.000648811
v 0.145896 -0.0882261 0.00125341
v 0.145896 -0.0878277 0.00177259
v 0.145896 -0.0873085 0.00217097
v 0.145896 -0.0867039 0.0024214
v 0.145896 -0.0860551 0.00250682
v 0.145945 -0.0854011 0.0024407
v 0.145945 -0.0847917 0.00218827
v 0.145945 -0.0842684 0.00178671
v 0.145945 -0.0838668 0.0012634
v 0.145945 -0.0836144 0.000653983
v 0.145945 -0.0835283 -6.00129e-16
v 0.145945 -0.0836144 -0.000653983
v 0.145945 -0.0838668 -0.0012634
v 0.145945 -0.0842684 -0.00178671
v 0.145945 -0.0847917 -0.00218827
v 0.145945 -0.0854011 -0.0024407
v 0.145945 -0.0860551 -0.0025268
v 0.145945 -0.0867091 -0.0024407
v 0.145945 -0.0873185 -0.00218827
v 0.145945 -0.0878418 -0.00178671
v 0.145945 -0.0882434 -0.0012634
v 0.145945 -0.0884958 -0.000653983
v 0.145945 -0.0885819 -5.93683e-16
v 0.145945 -0.0884958 0.000653983
v 0.145945 -0.0882434 0.0012634
v 0.145945 -0.0878418 0.00178671
v 0.145945 -0.0873185 0.00218827
v 0.145945 -0.0867091 0.0024407
v 0.145945 -0.0860551 0.0025268
v 0.145986 -0.0853929 0.0024714
v 0.145986 -0.0847758 0.00221579
v 0.145986 -0.0842459 0.00180919
v 0.145986 -0.0838393 0.00127929
v 0.145986 -0.0835837 0.000662209
v 0.145986 -0.0834965 -6.00284e-16
v 0.145986 -0.0835837 -0.000662209
v 0.145986 -0.0838393 -0.00127929
v 0.145986 -0.0842459 -0.00180919
v 0.145986 -0.0847758 -0.00221579
v 0.145986 -0.0853929 -0.0024714
v 0.145986 -0.0860551 -0.00255858
v 0.145986 -0.0867173 -0.0024714
v 0.145986 -0.0873344 -0.00221579
v 0.145986 -0.0878643 -0.00180919
v 0.145986 -0.0882709 -0.00127929
v 0.145986 -0.0885265 -0.000662209
v 0.145986 -0.0886137 -5.93756e-16
v 0.145986 -0.0885265 0.000662209
v 0.145986 -0.0882709 0.00127929
v 0.145986 -0.0878643 0.00180919
v 0.145986 -0.0873344 0.00221579
v 0.145986 -0.0867173 0.0024714
v 0.145986 -0.0860551 0.00255858
v 0.146018 -0.0853822 0.00251141
v 0.146018 -0.0847551 0.00225167
v 0.146018 -0.0842166 0.00183848
v 0.146018 -0.0838034 0.0013
v 0.146018 -0.0835437 0.00067293
v 0.146018 -0.0834551 -6.00428e-16
v 0.146018 -0.0835437 -0.00067293
v 0.146018 -0.0838034 -0.0013
v 0.146018 -0.0842166 -0.00183848
v 0.146018 -0.0847551 -0.00225167
v 0.146018 -0.0853822 -0.00251141
v 0.146018 -0.0860551 -0.0026
v 0.146018 -0.086728 -0.00251141
v 0.146018 -0.0873551 -0.00225167
v 0.146018 -0.0878936 -0.00183848
v 0.146018 -0.0883068 -0.0013
v 0.146018 -0.0885665 -0.00067293
v 0.146018 -0.0886551 -5.93795e-16
v 0.146018 -0.0885665 0.00067293
v 0.146018 -0.0883068 0.0013
v 0.146018 -0.0878936 0.00183848
v 0.146018 -0.0873551 0.00225167
v 0.146018 -0.086728 0.00251141
v 0.146018 -0.0860551 0.0026
v 0.146038 -0.0853697 0.002558
v 0.146038 -0.084731 0.00229344
v 0.146038 -0.0841825 0.00187259
v 0.146038 -0.0837616 0.00132412
v 0.146038 -0.0834971 0.000685414
v 0.146038 -0.0834069 -6.00551e-16
v 0.146038 -0.0834971 -0.000685414
v 0.146038 -0.0837616 -0.00132412
v 0.146038 -0.0841825 -0.00187259
v 0.146038 -0.084731 -0.00229344
v 0.146038 -0.0853697 -0.002558
v 0.146038 -0.0860551 -0.00264824
v 0.146038 -0.0867405 -0.002558
v 0.146038 -0.0873792 -0.00229344
v 0.146038 -0.0879277 -0.00187259
v 0.146038 -0.0883485 -0.00132412
v 0.146038 -0.0886131 -0.000685414
v 0.146038 -0.0887033 -5.93795e-16
v 0.146038 -0.0886131 0.000685414
v 0.146038 -0.0883485 0.00132412
v 0.146038 -0.0879277 0.00187259
v 0.146038 -0.0873792 0.00229344
v 0.146038 -0.0867405 0.002558
v 0.146038 -0.0860551 0.00264824
v 0.146045 -0.0881801 0.00368061
v 0.146045 -0.0871551 0.00410518
v 0.146045 -0.0839301 -0.00368061
v 0.146045 -0.0849551 -0.00410518
v 0.146045 -0.0860551 -0.00425
v 0.146045 -0.0871551 -0.00410518
v 0.146045 -0.0890603 0.0030052
v 0.146045 -0.0860551 0.00425
v 0.146045 -0.0881801 -0.00368061
v 0.146045 -0.0890603 -0.0030052
v 0.146045 -0.0897357 0.002125
v 0.146045 -0.0823745 -0.002125
v 0.146045 -0.0830499 -0.0030052
v 0.146045 -0.0897357 -0.002125
v 0.146045 -0.0901603 -0.00109998
v 0.146045 -0.0903051 -5.76452e-16
v 0.146045 -0.0818051 -5.96829e-16
v 0.146045 -0.0819499 -0.00109998
v 0.146045 -0.0901603 0.00109998
v 0.146045 -0.0849551 0.00410518
v 0.146045 -0.0839301 0.00368061
v 0.146045 -0.0830499 0.0030052
v 0.146045 -0.0823745 0.002125
v 0.146045 -0.0819499 0.00109998
v 0.150795 -0.0860551 -0.00425
v 0.150795 -0.0849551 -0.00410518
v 0.150795 -0.0839301 -0.00368061
v 0.150795 -0.0830499 -0.0030052
v 0.150795 -0.0823745 -0.002125
v 0.150795 -0.0819499 -0.00109998
v 0.150795 -0.0818051 -6.17357e-16
v 0.150795 -0.0819499 0.00109998
v 0.150795 -0.0823745 0.002125
v 0.150795 -0.0830499 0.0030052
v 0.150795 -0.0839301 0.00368061
v 0.150795 -0.0849551 0.00410518
v 0.150795 -0.0860551 0.00425
v 0.150795 -0.0871551 0.00410518
v 0.150795 -0.0881801 0.00368061
v 0.150795 -0.0890603 0.0030052
v 0.150795 -0.0897357 0.002125
v 0.150795 -0.0901603 0.00109998
v 0.150795 -0.0903051 -6.00755e-16
v 0.150795 -0.0901603 -0.00109998
v 0.150795 -0.0897357 -0.002125
v 0.150795 -0.0890603 -0.0030052
v 0.150795 -0.0881801 -0.00368061
v 0.150795 -0.0871551 -0.00410518
v 0.151045 -0.0860551 -0.004
v 0.151045 -0.0850198 -0.0038637
v 0.151045 -0.0840551 -0.0034641
v 0.151045 -0.0832267 -0.00282843
v 0.151045 -0.082591 -0.002
v 0.151045 -0.0821914 -0.00103528
v 0.151045 -0.0820551 -6.175e-16
v 0.151045 -0.0821914 0.00103528
v 0.151045 -0.082591 0.002
v 0.151045 -0.0832267 0.00282843
v 0.151045 -0.0840551 0.0034641
v 0.151045 -0.0850198 0.0038637
v 0.151045 -0.0860551 0.004
v 0.151045 -0.0870904 0.0038637
v 0.151045 -0.0880551 0.0034641
v 0.151045 -0.0888835 0.00282843
v 0.151045 -0.0895192 0.002
v 0.151045 -0.0899188 0.00103528
v 0.151045 -0.0900551 -6.01875e-16
v 0.151045 -0.0899188 -0.00103528
v 0.151045 -0.0895192 -0.002
v 0.151045 -0.0888835 -0.00282843
v 0.151045 -0.0880551 -0.0034641
v 0.151045 -0.0870904 -0.0038637
v 0.151036 -0.0850031 -0.0039262
v 0.151036 -0.0840227 -0.00352014
v 0.151036 -0.0831809 -0.00287418
v 0.151036 -0.082535 -0.00203235
v 0.151036 -0.0821289 -0.00105202
v 0.151036 -0.0819904 -6.17359e-16
v 0.151036 -0.0821289 0.00105202
v 0.151036 -0.082535 0.00203235
v 0.151036 -0.0831809 0.00287418
v 0.151036 -0.0840227 0.00352014
v 0.151036 -0.0850031 0.0039262
v 0.151036 -0.0860551 0.0040647
v 0.151036 -0.0871071 0.0039262
v 0.151036 -0.0880874 0.00352014
v 0.151036 -0.0889293 0.00287418
v 0.151036 -0.0895752 0.00203235
v 0.151036 -0.0899813 0.00105202
v 0.151036 -0.0901198 -5.99769e-16
v 0.151036 -0.0899813 -0.00105202
v 0.151036 -0.0895752 -0.00203235
v 0.151036 -0.0889293 -0.00287418
v 0.151036 -0.0880874 -0.00352014
v 0.151036 -0.0871071 -0.0039262
v 0.151036 -0.0860551 -0.0040647
v 0.151011 -0.0849875 -0.00398444
v 0.151011 -0.0839926 -0.00357235
v 0.151011 -0.0831383 -0.00291682
v 0.151011 -0.0824827 -0.0020625
v 0.151011 -0.0820706 -0.00106763
v 0.151011 -0.0819301 -6.17412e-16
v 0.151011 -0.0820706 0.00106763
v 0.151011 -0.0824827 0.0020625
v 0.151011 -0.0831383 0.00291682
v 0.151011 -0.0839926 0.00357235
v 0.151011 -0.0849875 0.00398444
v 0.151011 -0.0860551 0.004125
v 0.151011 -0.0871227 0.00398444
v 0.151011 -0.0881176 0.00357235
v 0.151011 -0.0889719 0.00291682
v 0.151011 -0.0896274 0.0020625
v 0.151011 -0.0900395 0.00106763
v 0.151011 -0.0901801 -5.99561e-16
v 0.151011 -0.0900395 -0.00106763
v 0.151011 -0.0896274 -0.0020625
v 0.151011 -0.0889719 -0.00291682
v 0.151011 -0.0881176 -0.00357235
v 0.151011 -0.0871227 -0.00398444
v 0.151011 -0.0860551 -0.004125
v 0.150971 -0.0849741 -0.00403446
v 0.150971 -0.0839667 -0.00361719
v 0.150971 -0.0831017 -0.00295343
v 0.150971 -0.0824379 -0.00208839
v 0.150971 -0.0820206 -0.00108103
v 0.150971 -0.0818783 -6.1741e-16
v 0.150971 -0.0820206 0.00108103
v 0.150971 -0.0824379 0.00208839
v 0.150971 -0.0831017 0.00295343
v 0.150971 -0.0839667 0.00361719
v 0.150971 -0.0849741 0.00403446
v 0.150971 -0.0860551 0.00417678
v 0.150971 -0.0871361 0.00403446
v 0.150971 -0.0881435 0.00361719
v 0.150971 -0.0890085 0.00295343
v 0.150971 -0.0896723 0.00208839
v 0.150971 -0.0900895 0.00108103
v 0.150971 -0.0902319 -5.99335e-16
v 0.150971 -0.0900895 -0.00108103
v 0.150971 -0.0896723 -0.00208839
v 0.150971 -0.0890085 -0.00295343
v 0.150971 -0.0881435 -0.00361719
v 0.150971 -0.0871361 -0.00403446
v 0.150971 -0.0860551 -0.00417678
v 0.15092 -0.0849638 -0.00407283
v 0.15092 -0.0839468 -0.0036516
v 0.15092 -0.0830736 -0.00298152
v 0.15092 -0.0824035 -0.00210825
v 0.15092 -0.0819823 -0.00109131
v 0.15092 -0.0818386 -6.17353e-16
v 0.15092 -0.0819823 0.00109131
v 0.15092 -0.0824035 0.00210825
v 0.15092 -0.0830736 0.00298152
v 0.15092 -0.0839468 0.0036516
v 0.15092 -0.0849638 0.00407283
v 0.15092 -0.0860551 0.00421651
v 0.15092 -0.0871464 0.00407283
v 0.15092 -0.0881633 0.0036516
v 0.15092 -0.0890366 0.00298152
v 0.15092 -0.0897067 0.00210825
v 0.15092 -0.0901279 0.00109131
v 0.15092 -0.0902716 -5.99106e-16
v 0.15092 -0.0901279 -0.00109131
v 0.15092 -0.0897067 -0.00210825
v 0.15092 -0.0890366 -0.00298152
v 0.15092 -0.0881633 -0.0036516
v 0.15092 -0.0871464 -0.00407283
v 0.15092 -0.0860551 -0.00421651
v 0.150859 -0.0849573 -0.00409696
v 0.150859 -0.0839343 -0.00367323
v 0.150859 -0.0830559 -0.00299918
v 0.150859 -0.0823819 -0.00212074
v 0.150859 -0.0819581 -0.00109778
v 0.150859 -0.0818136 -6.17247e-16
v 0.150859 -0.0819581 0.00109778
v 0.150859 -0.0823819 0.00212074
v 0.150859 -0.0830559 0.00299918
v 0.150859 -0.0839343 0.00367323
v 0.150859 -0.0849573 0.00409696
v 0.150859 -0.0860551 0.00424148
v 0.150859 -0.0871529 0.00409696
v 0.150859 -0.0881758 0.00367323
v 0.150859 -0.0890543 0.00299918
v 0.150859 -0.0897283 0.00212074
v 0.150859 -0.090152 0.00109778
v 0.150859 -0.0902966 -5.98891e-16
v 0.150859 -0.090152 -0.00109778
v 0.150859 -0.0897283 -0.00212074
v 0.150859 -0.0890543 -0.00299918
v 0.150859 -0.0881758 -0.00367323
v 0.150859 -0.0871529 -0.00409696
v 0.150859 -0.0860551 -0.00424148
v 0.137336 -0.0743551 -0.0081
v 0.135545 -0.0743551 -0.0081
v 0.134287 -0.0745095 -0.0081
v 0.134093 -0.0737333 -0.0073
v 0.133103 -0.0749638 -0.0081
v 0.132728 -0.0742574 -0.0073
v 0.132065 -0.0756907 -0.0081
v 0.13153 -0.0750962 -0.0073
v 0.131234 -0.0766473 -0.0081
v 0.13057 -0.0761999 -0.0073
v 0.130658 -0.0777766 -0.0081
v 0.129907 -0.077503 -0.0073
v 0.132724 -0.0748337 -0.0081
v 0.131598 -0.0757247 -0.0081
v 0.134042 -0.0742644 -0.0081
v 0.130741 -0.0768768 -0.0081
v 0.130211 -0.0782113 -0.0081
v 0.136888 -0.0742218 -0.0081
v 0.135462 -0.0740557 -0.0081
v 0.130045 -0.0794602 -0.0081
v 0.130373 -0.0921229 -0.0081
v 0.128947 -0.0919569 -0.0081
v 0.131714 -0.083502 -0.0081
v 0.134201 -0.0848884 -0.0081
v 0.135627 -0.0850545 -0.0081
v 0.13286 -0.0935093 -0.0081
v 0.130823 -0.0823761 -0.0081
v 0.131707 -0.0926524 -0.0081
v 0.132866 -0.0843589 -0.0081
v 0.133751 -0.0946352 -0.0081
v 0.130045 -0.0796375 -0.0081
v 0.137048 -0.0848458 -0.0081
v 0.138366 -0.0842765 -0.0081
v 0.130254 -0.081058 -0.0081
v 0.13432 -0.0959533 -0.0081
v 0.134528 -0.0975511 -0.0081
v 0.134529 -0.0973738 -0.0081
v 0.126208 -0.0927348 -0.0081
v 0.125082 -0.0936258 -0.0081
v 0.140878 -0.0808988 -0.0081
v 0.141044 -0.0794727 -0.0081
v 0.127526 -0.0921656 -0.0081
v 0.139375 -0.0756082 -0.0081
v 0.138223 -0.0747513 -0.0081
v 0.140348 -0.0822334 -0.0081
v 0.139492 -0.0833855 -0.0081
v 0.140266 -0.076734 -0.0081
v 0.140835 -0.0780521 -0.0081
v 0.124756 -0.0939941 -0.0081
v 0.132866 -0.0843589 -0.0091
v 0.131714 -0.083502 -0.0091
v 0.130823 -0.0823761 -0.0091
v 0.130254 -0.081058 -0.0091
v 0.130211 -0.0782113 -0.0091
v 0.130045 -0.0795551 -0.0091
v 0.130741 -0.0768768 -0.0091
v 0.131598 -0.0757247 -0.0091
v 0.132724 -0.0748337 -0.0091
v 0.134042 -0.0742644 -0.0091
v 0.135462 -0.0740557 -0.0091
v 0.138223 -0.0747513 -0.0091
v 0.136888 -0.0742218 -0.0091
v 0.139375 -0.0756082 -0.0091
v 0.140266 -0.076734 -0.0091
v 0.140835 -0.0780521 -0.0091
v 0.141044 -0.0794727 -0.0091
v 0.140878 -0.0808988 -0.0091
v 0.140348 -0.0822334 -0.0091
v 0.139492 -0.0833855 -0.0091
v 0.138366 -0.0842765 -0.0091
v 0.137048 -0.0848458 -0.0091
v 0.135627 -0.0850545 -0.0091
v 0.134201 -0.0848884 -0.0091
v 0.130045 -0.0796375 -0.0091
v 0.133751 -0.077814 -0.0091
v 0.134262 -0.077409 -0.0091
v 0.137339 -0.0812962 -0.0091
v 0.136827 -0.0817012 -0.0091
v 0.13312 -0.0789443 -0.0091
v 0.133361 -0.0783377 -0.0091
v 0.134862 -0.0771502 -0.0091
v 0.136155 -0.0771309 -0.0091
v 0.136762 -0.0773715 -0.0091
v 0.137949 -0.0788719 -0.0091
v 0.138044 -0.0795176 -0.0091
v 0.136228 -0.0819599 -0.0091
v 0.134327 -0.0817386 -0.0091
v 0.133804 -0.0813491 -0.0091
v 0.135507 -0.0770554 -0.0091
v 0.137969 -0.0801659 -0.0091
v 0.137728 -0.0807725 -0.0091
v 0.135582 -0.0820548 -0.0091
v 0.134934 -0.0819793 -0.0091
v 0.133399 -0.0808374 -0.0091
v 0.137286 -0.077761 -0.0091
v 0.137691 -0.0782728 -0.0091
v 0.133045 -0.0795925 -0.0091
v 0.133045 -0.0795551 -0.0091
v 0.13314 -0.0802382 -0.0091
v 0.136762 -0.0773715 -0.0133
v 0.137286 -0.077761 -0.0133
v 0.137691 -0.0782728 -0.0133
v 0.137949 -0.0788719 -0.0133
v 0.138044 -0.0795176 -0.0133
v 0.137969 -0.0801659 -0.0133
v 0.137728 -0.0807725 -0.0133
v 0.137339 -0.0812962 -0.0133
v 0.136827 -0.0817012 -0.0133
v 0.136228 -0.0819599 -0.0133
v 0.135582 -0.0820548 -0.0133
v 0.134934 -0.0819793 -0.0133
v 0.134327 -0.0817386 -0.0133
v 0.133804 -0.0813491 -0.0133
v 0.133399 -0.0808374 -0.0133
v 0.13314 -0.0802382 -0.0133
v 0.13312 -0.0789443 -0.0133
v 0.133045 -0.0795925 -0.0133
v 0.133361 -0.0783377 -0.0133
v 0.133751 -0.077814 -0.0133
v 0.134262 -0.077409 -0.0133
v 0.134862 -0.0771502 -0.0133
v 0.135507 -0.0770554 -0.0133
v 0.136155 -0.0771309 -0.0133
v 0.134425 -0.0815639 -0.0135
v 0.134983 -0.0817854 -0.0135
v 0.135579 -0.0818548 -0.0135
v 0.136173 -0.0817675 -0.0135
v 0.136724 -0.0815295 -0.0135
v 0.137195 -0.0811569 -0.0135
v 0.137554 -0.0806751 -0.0135
v 0.137775 -0.080117 -0.0135
v 0.137844 -0.0795206 -0.0135
v 0.137757 -0.0789266 -0.0135
v 0.137519 -0.0783754 -0.0135
v 0.137146 -0.0779046 -0.0135
v 0.136665 -0.0775462 -0.0135
v 0.136107 -0.0773248 -0.0135
v 0.13551 -0.0772553 -0.0135
v 0.134916 -0.0773426 -0.0135
v 0.134365 -0.0775807 -0.0135
v 0.133894 -0.0779533 -0.0135
v 0.133536 -0.0784351 -0.0135
v 0.133314 -0.0789931 -0.0135
v 0.133245 -0.0795551 -0.0135
v 0.133245 -0.0795895 -0.0135
v 0.133332 -0.0801836 -0.0135
v 0.13357 -0.0807348 -0.0135
v 0.133943 -0.0812056 -0.0135
v 0.135545 -0.0795551 -0.0135
v 0.137336 -0.0743551 0.0081
v 0.135545 -0.0743551 0.0081
v 0.129907 -0.077503 0.0073
v 0.13057 -0.0761999 0.0073
v 0.13153 -0.0750962 0.0073
v 0.132728 -0.0742574 0.0073
v 0.134093 -0.0737333 0.0073
v 0.130658 -0.0777766 0.0081
v 0.131234 -0.0766473 0.0081
v 0.132065 -0.0756907 0.0081
v 0.133103 -0.0749638 0.0081
v 0.134287 -0.0745095 0.0081
v 0.130211 -0.0782113 0.0081
v 0.130741 -0.0768768 0.0081
v 0.131598 -0.0757247 0.0081
v 0.132724 -0.0748337 0.0081
v 0.134042 -0.0742644 0.0081
v 0.135462 -0.0740557 0.0081
v 0.136888 -0.0742218 0.0081
v 0.130045 -0.0794602 0.0081
v 0.132866 -0.0843589 0.0081
v 0.131714 -0.083502 0.0081
v 0.128947 -0.0919569 0.0081
v 0.134201 -0.0848884 0.0081
v 0.130373 -0.0921229 0.0081
v 0.131707 -0.0926524 0.0081
v 0.13286 -0.0935093 0.0081
v 0.135627 -0.0850545 0.0081
v 0.13432 -0.0959533 0.0081
v 0.134529 -0.0973738 0.0081
v 0.133751 -0.0946352 0.0081
v 0.130823 -0.0823761 0.0081
v 0.130254 -0.081058 0.0081
v 0.130045 -0.0796375 0.0081
v 0.137048 -0.0848458 0.0081
v 0.138366 -0.0842765 0.0081
v 0.134528 -0.0975511 0.0081
v 0.126208 -0.0927348 0.0081
v 0.127526 -0.0921656 0.0081
v 0.141044 -0.0794727 0.0081
v 0.124756 -0.0939941 0.0081
v 0.125082 -0.0936258 0.0081
v 0.140348 -0.0822334 0.0081
v 0.139492 -0.0833855 0.0081
v 0.140878 -0.0808988 0.0081
v 0.138223 -0.0747513 0.0081
v 0.140266 -0.076734 0.0081
v 0.140835 -0.0780521 0.0081
v 0.139375 -0.0756082 0.0081
v 0.132866 -0.0843589 0.0091
v 0.131714 -0.083502 0.0091
v 0.130823 -0.0823761 0.0091
v 0.130254 -0.081058 0.0091
v 0.130045 -0.0796375 0.0091
v 0.130211 -0.0782113 0.0091
v 0.130741 -0.0768768 0.0091
v 0.131598 -0.0757247 0.0091
v 0.132724 -0.0748337 0.0091
v 0.134042 -0.0742644 0.0091
v 0.135462 -0.0740557 0.0091
v 0.136888 -0.0742218 0.0091
v 0.138223 -0.0747513 0.0091
v 0.139375 -0.0756082 0.0091
v 0.140266 -0.076734 0.0091
v 0.140835 -0.0780521 0.0091
v 0.141044 -0.0794727 0.0091
v 0.141045 -0.0795551 0.0091
v 0.140878 -0.0808988 0.0091
v 0.140348 -0.0822334 0.0091
v 0.139492 -0.0833855 0.0091
v 0.138366 -0.0842765 0.0091
v 0.137048 -0.0848458 0.0091
v 0.135627 -0.0850545 0.0091
v 0.134201 -0.0848884 0.0091
v 0.136155 -0.0771309 0.0091
v 0.135507 -0.0770554 0.0091
v 0.133751 -0.077814 0.0091
v 0.133361 -0.0783377 0.0091
v 0.13314 -0.0802382 0.0091
v 0.133399 -0.0808374 0.0091
v 0.136762 -0.0773715 0.0091
v 0.134862 -0.0771502 0.0091
v 0.134262 -0.077409 0.0091
v 0.13312 -0.0789443 0.0091
v 0.133045 -0.0795925 0.0091
v 0.134934 -0.0819793 0.0091
v 0.135582 -0.0820548 0.0091
v 0.137969 -0.0801659 0.0091
v 0.138045 -0.0795551 0.0091
v 0.138044 -0.0795176 0.0091
v 0.137949 -0.0788719 0.0091
v 0.137691 -0.0782728 0.0091
v 0.137286 -0.077761 0.0091
v 0.133804 -0.0813491 0.0091
v 0.134327 -0.0817386 0.0091
v 0.136228 -0.0819599 0.0091
v 0.136827 -0.0817012 0.0091
v 0.137339 -0.0812962 0.0091
v 0.137728 -0.0807725 0.0091
v 0.136762 -0.0773715 0.0133
v 0.137286 -0.077761 0.0133
v 0.137691 -0.0782728 0.0133
v 0.137949 -0.0788719 0.0133
v 0.138044 -0.0795176 0.0133
v 0.137969 -0.0801659 0.0133
v 0.137728 -0.0807725 0.0133
v 0.137339 -0.0812962 0.0133
v 0.136827 -0.0817012 0.0133
v 0.136228 -0.0819599 0.0133
v 0.135582 -0.0820548 0.0133
v 0.134934 -0.0819793 0.0133
v 0.134327 -0.0817386 0.0133
v 0.133804 -0.0813491 0.0133
v 0.133399 -0.0808374 0.0133
v 0.13314 -0.0802382 0.0133
v 0.133045 -0.0795925 0.0133
v 0.13312 -0.0789443 0.0133
v 0.133361 -0.0783377 0.0133
v 0.133751 -0.077814 0.0133
v 0.134262 -0.077409 0.0133
v 0.134862 -0.0771502 0.0133
v 0.135507 -0.0770554 0.0133
v 0.136155 -0.0771309 0.0133
v 0.136665 -0.0775462 0.0135
v 0.137146 -0.0779046 0.0135
v 0.137519 -0.0783754 0.0135
v 0.137757 -0.0789266 0.0135
v 0.137844 -0.0795206 0.0135
v 0.137845 -0.0795551 0.0135
v 0.137775 -0.080117 0.0135
v 0.137554 -0.0806751 0.0135
v 0.137195 -0.0811569 0.0135
v 0.136724 -0.0815295 0.0135
v 0.136173 -0.0817675 0.0135
v 0.135579 -0.0818548 0.0135
v 0.134983 -0.0817854 0.0135
v 0.134425 -0.0815639 0.0135
v 0.133943 -0.0812056 0.0135
v 0.13357 -0.0807348 0.0135
v 0.133332 -0.0801836 0.0135
v 0.133245 -0.0795895 0.0135
v 0.133314 -0.0789931 0.0135
v 0.133536 -0.0784351 0.0135
v 0.133894 -0.0779533 0.0135
v 0.134365 -0.0775807 0.0135
v 0.134916 -0.0773426 0.0135
v 0.13551 -0.0772553 0.0135
v 0.136107 -0.0773248 0.0135
v 0.135545 -0.0795551 0.0135
v 0.123391 -0.0954041 -0.0073
v 0.124143 -0.0956777 -0.0081
v 0.129112 -0.102956 -0.0081
v 0.130532 -0.102747 -0.0081
v 0.129932 -0.102577 -0.0081
v 0.131227 -0.102169 -0.0081
v 0.127685 -0.10279 -0.0081
v 0.128576 -0.102636 -0.0081
v 0.13185 -0.102178 -0.0081
v 0.133833 -0.100135 -0.0081
v 0.134362 -0.0988 -0.0081
v 0.133916 -0.0992347 -0.0081
v 0.123738 -0.0989592 -0.0081
v 0.124308 -0.100277 -0.0081
v 0.124316 -0.0996538 -0.0081
v 0.125046 -0.100799 -0.0081
v 0.132372 -0.10144 -0.0081
v 0.132976 -0.101287 -0.0081
v 0.133289 -0.100439 -0.0081
v 0.124225 -0.0947779 -0.0081
v 0.123849 -0.097003 -0.0081
v 0.123696 -0.0961125 -0.0081
v 0.12353 -0.0975386 -0.0081
v 0.123908 -0.0983592 -0.0081
v 0.125199 -0.101403 -0.0081
v 0.126351 -0.10226 -0.0081
v 0.126047 -0.101716 -0.0081
v 0.127251 -0.102343 -0.0081
v 0.134667 -0.0995083 -0.0073
v 0.123052 -0.0969333 -0.0073
v 0.12312 -0.0984981 -0.0073
v 0.123591 -0.0999919 -0.0073
v 0.124433 -0.101313 -0.0073
v 0.125588 -0.102371 -0.0073
v 0.126977 -0.103094 -0.0073
v 0.128506 -0.103433 -0.0073
v 0.130071 -0.103365 -0.0073
v 0.131565 -0.102894 -0.0073
v 0.132886 -0.102052 -0.0073
v 0.133944 -0.100898 -0.0073
v 0.134667 -0.0995083 0.0073
v 0.133944 -0.100898 0.0073
v 0.132886 -0.102052 0.0073
v 0.131565 -0.102894 0.0073
v 0.130071 -0.103365 0.0073
v 0.128506 -0.103433 0.0073
v 0.126977 -0.103094 0.0073
v 0.125588 -0.102371 0.0073
v 0.124433 -0.101313 0.0073
v 0.123591 -0.0999919 0.0073
v 0.12312 -0.0984981 0.0073
v 0.123052 -0.0969333 0.0073
v 0.123391 -0.0954041 0.0073
v 0.124143 -0.0956777 0.0081
v 0.133916 -0.0992347 0.0081
v 0.133289 -0.100439 0.0081
v 0.132372 -0.10144 0.0081
v 0.131227 -0.102169 0.0081
v 0.129932 -0.102577 0.0081
v 0.128576 -0.102636 0.0081
v 0.127251 -0.102343 0.0081
v 0.126047 -0.101716 0.0081
v 0.125046 -0.100799 0.0081
v 0.124316 -0.0996538 0.0081
v 0.123908 -0.0983592 0.0081
v 0.123849 -0.097003 0.0081
v 0.129112 -0.102956 0.0081
v 0.127685 -0.10279 0.0081
v 0.132976 -0.101287 0.0081
v 0.13185 -0.102178 0.0081
v 0.130532 -0.102747 0.0081
v 0.126351 -0.10226 0.0081
v 0.12353 -0.0975386 0.0081
v 0.123696 -0.0961125 0.0081
v 0.124225 -0.0947779 0.0081
v 0.133833 -0.100135 0.0081
v 0.125199 -0.101403 0.0081
v 0.124308 -0.100277 0.0081
v 0.123738 -0.0989592 0.0081
v 0.134362 -0.0988 0.0081
v 0.126351 -0.10226 -0.0091
v 0.125199 -0.101403 -0.0091
v 0.124308 -0.100277 -0.0091
v 0.123738 -0.0989592 -0.0091
v 0.123529 -0.0974562 -0.0091
v 0.123696 -0.0961125 -0.0091
v 0.125082 -0.0936258 -0.0091
v 0.124225 -0.0947779 -0.0091
v 0.126208 -0.0927348 -0.0091
v 0.127526 -0.0921656 -0.0091
v 0.128947 -0.0919569 -0.0091
v 0.130373 -0.0921229 -0.0091
v 0.131707 -0.0926524 -0.0091
v 0.13286 -0.0935093 -0.0091
v 0.133751 -0.0946352 -0.0091
v 0.13432 -0.0959533 -0.0091
v 0.134362 -0.0988 -0.0091
v 0.134529 -0.0973738 -0.0091
v 0.133833 -0.100135 -0.0091
v 0.132976 -0.101287 -0.0091
v 0.13185 -0.102178 -0.0091
v 0.130532 -0.102747 -0.0091
v 0.129112 -0.102956 -0.0091
v 0.127685 -0.10279 -0.0091
v 0.12353 -0.0975386 -0.0091
v 0.126351 -0.10226 0.0091
v 0.125199 -0.101403 0.0091
v 0.124308 -0.100277 0.0091
v 0.123738 -0.0989592 0.0091
v 0.12353 -0.0975386 0.0091
v 0.123696 -0.0961125 0.0091
v 0.124225 -0.0947779 0.0091
v 0.125082 -0.0936258 0.0091
v 0.126208 -0.0927348 0.0091
v 0.127526 -0.0921656 0.0091
v 0.128947 -0.0919569 0.0091
v 0.130373 -0.0921229 0.0091
v 0.131707 -0.0926524 0.0091
v 0.13286 -0.0935093 0.0091
v 0.133751 -0.0946352 0.0091
v 0.13432 -0.0959533 0.0091
v 0.134529 -0.0973738 0.0091
v 0.134362 -0.0988 0.0091
v 0.133833 -0.100135 0.0091
v 0.132976 -0.101287 0.0091
v 0.13185 -0.102178 0.0091
v 0.130532 -0.102747 0.0091
v 0.129112 -0.102956 0.0091
v 0.127685 -0.10279 0.0091
v 0.128819 -0.0949651 0.0091
v 0.128181 -0.0951044 0.0091
v 0.127601 -0.095404 0.0091
v 0.129877 -0.099808 0.0091
v 0.130457 -0.0995085 0.0091
v 0.127119 -0.0958434 0.0091
v 0.129239 -0.0999474 0.0091
v 0.130642 -0.095546 0.0091
v 0.130093 -0.0951937 0.0091
v 0.129471 -0.0949955 0.0091
v 0.126568 -0.0970146 0.0091
v 0.126538 -0.0976666 0.0091
v 0.127416 -0.0993664 0.0091
v 0.127966 -0.0997188 0.0091
v 0.128588 -0.0999169 0.0091
v 0.13149 -0.0978978 0.0091
v 0.131529 -0.0974562 0.0091
v 0.131381 -0.0966083 0.0091
v 0.13152 -0.0972459 0.0091
v 0.126767 -0.0963928 0.0091
v 0.126677 -0.0983041 0.0091
v 0.126977 -0.0988839 0.0091
v 0.131292 -0.0985197 0.0091
v 0.131081 -0.0960285 0.0091
v 0.130939 -0.099069 0.0091
v 0.131081 -0.0960285 0.0133
v 0.130642 -0.095546 0.0133
v 0.130093 -0.0951937 0.0133
v 0.129471 -0.0949955 0.0133
v 0.128819 -0.0949651 0.0133
v 0.128181 -0.0951044 0.0133
v 0.127601 -0.095404 0.0133
v 0.127119 -0.0958434 0.0133
v 0.126767 -0.0963928 0.0133
v 0.126568 -0.0970146 0.0133
v 0.126538 -0.0976666 0.0133
v 0.126677 -0.0983041 0.0133
v 0.126977 -0.0988839 0.0133
v 0.127416 -0.0993664 0.0133
v 0.127966 -0.0997188 0.0133
v 0.128588 -0.0999169 0.0133
v 0.129239 -0.0999474 0.0133
v 0.129877 -0.099808 0.0133
v 0.130457 -0.0995085 0.0133
v 0.130939 -0.099069 0.0133
v 0.131292 -0.0985197 0.0133
v 0.13152 -0.0972459 0.0133
v 0.13149 -0.0978978 0.0133
v 0.131381 -0.0966083 0.0133
v 0.127141 -0.0987697 0.0135
v 0.126865 -0.0982363 0.0135
v 0.126737 -0.0976497 0.0135
v 0.126765 -0.09705 0.0135
v 0.126948 -0.0964779 0.0135
v 0.127272 -0.0959725 0.0135
v 0.127716 -0.0955682 0.0135
v 0.128249 -0.0952926 0.0135
v 0.128836 -0.0951644 0.0135
v 0.129435 -0.0951924 0.0135
v 0.130008 -0.0953747 0.0135
v 0.130513 -0.0956988 0.0135
v 0.130917 -0.0961427 0.0135
v 0.131193 -0.0966761 0.0135
v 0.131321 -0.0972627 0.0135
v 0.131293 -0.0978625 0.0135
v 0.131111 -0.0984346 0.0135
v 0.130787 -0.09894 0.0135
v 0.130343 -0.0993443 0.0135
v 0.129809 -0.0996199 0.0135
v 0.129223 -0.0997481 0.0135
v 0.128623 -0.0997201 0.0135
v 0.128051 -0.0995378 0.0135
v 0.127545 -0.0992136 0.0135
v 0.129029 -0.0974562 0.0135
v 0.128819 -0.0949651 -0.0091
v 0.129471 -0.0949955 -0.0091
v 0.128181 -0.0951044 -0.0091
v 0.127601 -0.095404 -0.0091
v 0.127966 -0.0997188 -0.0091
v 0.127416 -0.0993664 -0.0091
v 0.126568 -0.0970146 -0.0091
v 0.126767 -0.0963928 -0.0091
v 0.130093 -0.0951937 -0.0091
v 0.130642 -0.095546 -0.0091
v 0.131081 -0.0960285 -0.0091
v 0.130939 -0.099069 -0.0091
v 0.130457 -0.0995085 -0.0091
v 0.129239 -0.0999474 -0.0091
v 0.128588 -0.0999169 -0.0091
v 0.126977 -0.0988839 -0.0091
v 0.126538 -0.0976666 -0.0091
v 0.126529 -0.0974562 -0.0091
v 0.127119 -0.0958434 -0.0091
v 0.13149 -0.0978978 -0.0091
v 0.131292 -0.0985197 -0.0091
v 0.129877 -0.099808 -0.0091
v 0.126677 -0.0983041 -0.0091
v 0.131381 -0.0966083 -0.0091
v 0.13152 -0.0972459 -0.0091
v 0.131081 -0.0960285 -0.0133
v 0.130642 -0.095546 -0.0133
v 0.130093 -0.0951937 -0.0133
v 0.129471 -0.0949955 -0.0133
v 0.128819 -0.0949651 -0.0133
v 0.128181 -0.0951044 -0.0133
v 0.127601 -0.095404 -0.0133
v 0.127119 -0.0958434 -0.0133
v 0.126767 -0.0963928 -0.0133
v 0.126568 -0.0970146 -0.0133
v 0.126538 -0.0976666 -0.0133
v 0.126677 -0.0983041 -0.0133
v 0.126977 -0.0988839 -0.0133
v 0.127416 -0.0993664 -0.0133
v 0.127966 -0.0997188 -0.0133
v 0.128588 -0.0999169 -0.0133
v 0.129239 -0.0999474 -0.0133
v 0.129877 -0.099808 -0.0133
v 0.130457 -0.0995085 -0.0133
v 0.130939 -0.099069 -0.0133
v 0.131292 -0.0985197 -0.0133
v 0.13149 -0.0978978 -0.0133
v 0.13152 -0.0972459 -0.0133
v 0.131381 -0.0966083 -0.0133
v 0.130917 -0.0961427 -0.0135
v 0.130513 -0.0956988 -0.0135
v 0.130008 -0.0953747 -0.0135
v 0.129435 -0.0951924 -0.0135
v 0.128836 -0.0951644 -0.0135
v 0.128249 -0.0952926 -0.0135
v 0.127716 -0.0955682 -0.0135
v 0.127272 -0.0959725 -0.0135
v 0.126948 -0.0964779 -0.0135
v 0.126765 -0.09705 -0.0135
v 0.126737 -0.0976497 -0.0135
v 0.126865 -0.0982363 -0.0135
v 0.127141 -0.0987697 -0.0135
v 0.127545 -0.0992136 -0.0135
v 0.128051 -0.0995378 -0.0135
v 0.128623 -0.0997201 -0.0135
v 0.129223 -0.0997481 -0.0135
v 0.129809 -0.0996199 -0.0135
v 0.130343 -0.0993443 -0.0135
v 0.130787 -0.09894 -0.0135
v 0.131111 -0.0984346 -0.0135
v 0.131293 -0.0978625 -0.0135
v 0.131321 -0.0972627 -0.0135
v 0.131193 -0.0966761 -0.0135
v 0.129029 -0.0974562 -0.0135
v 0.136127 -0.0954989 -0.0036
v 0.136127 -0.0954989 0.0036
v 0.136589 -0.0942273 0.0036
v 0.136589 -0.0942273 -0.0036
v 0.136824 -0.0941312 0.0036
v 0.136948 -0.0939534 -0.0036
v 0.136948 -0.0939534 0.0036
v 0.136824 -0.0941312 -0.0036
v 0.136557 -0.0938992 0.0036
v 0.136504 -0.093832 0.0036
v 0.136609 -0.0941446 0.0036
v 0.136611 -0.0940595 0.0036
v 0.136593 -0.0939763 0.0036
v 0.136439 -0.0937781 0.0036
v 0.136362 -0.0937402 0.0036
v 0.136611 -0.0940595 -0.0036
v 0.136439 -0.0937781 -0.0036
v 0.136504 -0.093832 -0.0036
v 0.136593 -0.0939763 -0.0036
v 0.136557 -0.0938992 -0.0036
v 0.136609 -0.0941446 -0.0036
v 0.136362 -0.0937402 -0.0036
v 0.125443 -0.089766 -0.0036
v 0.125313 -0.090123 -0.0036
v 0.125313 -0.090123 0.0036
v 0.125443 -0.089766 0.0036
v 0.1258 -0.0898959 -0.0036
v 0.1258 -0.0898959 0.0036
v 0.125359 -0.090035 0.0036
v 0.125359 -0.090035 -0.0036
v 0.125426 -0.0899619 0.0036
v 0.125426 -0.0899619 -0.0036
v 0.12551 -0.0899086 0.0036
v 0.12551 -0.0899086 -0.0036
v 0.125604 -0.0898788 0.0036
v 0.125604 -0.0898788 -0.0036
v 0.125703 -0.0898745 0.0036
v 0.125703 -0.0898745 -0.0036
v 0.151045 -0.0836972 -6.03194e-16
v 0.151045 -0.0848761 -0.002042
v 0.151045 -0.0848761 0.002042
v 0.151045 -0.087234 0.002042
v 0.151045 -0.088413 -6.07326e-16
v 0.151045 -0.087234 -0.002042
v 0.148545 -0.0842867 -0.001021
v 0.148545 -0.0836972 -5.96752e-16
v 0.148545 -0.0848761 -0.002042
v 0.148545 -0.0860551 -0.002042
v 0.148545 -0.087234 -0.002042
v 0.148545 -0.0878235 -0.001021
v 0.148545 -0.088413 -6.00883e-16
v 0.148545 -0.0878235 0.001021
v 0.148545 -0.087234 0.002042
v 0.148545 -0.0860551 0.002042
v 0.148545 -0.0848761 0.002042
v 0.148545 -0.0842867 0.001021
v 0.148545 -0.0870761 0.00176842
v 0.148545 -0.0865836 0.00197242
v 0.148545 -0.087499 0.00144391
v 0.148545 -0.0865836 -0.00197242
v 0.148545 -0.0870761 -0.00176842
v 0.148545 -0.087499 -0.00144391
v 0.148545 -0.0880275 -0.000528509
v 0.148545 -0.0880971 -5.99159e-16
v 0.148545 -0.0880275 0.000528509
v 0.148545 -0.0855266 0.00197242
v 0.148545 -0.0850341 0.00176842
v 0.148545 -0.0846112 0.00144391
v 0.148545 -0.0840827 0.000528509
v 0.148545 -0.0840131 -6.07136e-16
v 0.148545 -0.0840827 -0.000528509
v 0.148545 -0.0846112 -0.00144391
v 0.148545 -0.0850341 -0.00176842
v 0.148545 -0.0855266 -0.00197242
v 0.147366 -0.0860551 -5.99742e-16
f 712 693 730
f 693 694 730
f 730 694 732
f 694 689 732
f 732 689 733
f 689 690 733
f 733 690 734
f 690 695 734
f 734 695 735
f 695 703 735
f 735 703 736
f 703 696 736
f 736 696 737
f 696 697 737
f 737 697 714
f 697 709 714
f 714 709 715
f 709 710 715
f 715 710 716
f 710 698 716
f 716 698 717
f 698 699 717
f 717 699 718
f 699 704 718
f 718 704 719
f 704 705 719
f 719 705 720
f 705 691 720
f 720 691 721
f 691 692 721
f 721 692 722
f 692 700 722
f 722 700 723
f 700 706 723
f 723 706 724
f 706 707 724
f 724 707 725
f 707 701 725
f 725 701 726
f 701 702 726
f 726 702 727
f 702 708 727
f 727 708 728
f 708 713 728
f 728 713 729
f 713 711 729
f 729 711 731
f 711 712 731
f 731 712 730
f 757 758 731
f 758 759 731
f 759 760 731
f 731 760 729
f 760 761 729
f 729 761 728
f 761 762 728
f 728 762 727
f 762 738 727
f 727 738 726
f 738 739 726
f 726 739 725
f 739 740 725
f 725 740 724
f 740 741 724
f 724 741 723
f 741 742 723
f 723 742 722
f 742 743 722
f 722 743 721
f 743 744 721
f 721 744 720
f 744 745 720
f 720 745 719
f 745 746 719
f 719 746 718
f 746 747 718
f 718 747 717
f 747 748 717
f 717 748 716
f 748 749 716
f 716 749 715
f 749 750 715
f 715 750 714
f 750 751 714
f 714 751 737
f 751 752 737
f 737 752 736
f 752 753 736
f 736 753 735
f 753 754 735
f 735 754 734
f 754 755 734
f 734 755 733
f 755 756 733
f 733 756 732
f 756 757 732
f 732 757 730
f 757 731 730
f 852 853 867
f 853 854 867
f 867 854 866
f 854 855 866
f 866 855 865
f 855 856 865
f 865 856 864
f 856 844 864
f 864 844 863
f 844 838 863
f 863 838 886
f 838 839 886
f 886 839 885
f 839 845 885
f 885 845 884
f 845 846 884
f 884 846 883
f 846 840 883
f 883 840 882
f 840 841 882
f 882 841 881
f 841 847 881
f 881 847 880
f 847 848 880
f 880 848 879
f 848 842 879
f 879 842 878
f 842 843 878
f 878 843 877
f 843 857 877
f 877 857 876
f 857 858 876
f 876 858 875
f 858 849 875
f 875 849 874
f 849 850 874
f 874 850 873
f 850 859 873
f 873 859 872
f 859 860 872
f 872 860 871
f 860 861 871
f 871 861 870
f 861 862 870
f 870 862 869
f 862 851 869
f 869 851 868
f 851 852 868
f 868 852 867
f 892 893 868
f 893 894 868
f 868 894 869
f 894 895 869
f 869 895 870
f 895 896 870
f 870 896 871
f 896 897 871
f 871 897 872
f 897 898 872
f 872 898 873
f 898 899 873
f 873 899 874
f 899 900 874
f 874 900 875
f 900 901 875
f 875 901 876
f 901 902 876
f 876 902 877
f 902 903 877
f 877 903 878
f 903 904 878
f 878 904 879
f 904 905 879
f 879 905 880
f 905 906 880
f 880 906 881
f 906 907 881
f 881 907 882
f 907 908 882
f 882 908 883
f 908 909 883
f 883 909 884
f 909 910 884
f 884 910 885
f 910 911 885
f 885 911 886
f 911 887 886
f 886 887 863
f 887 888 863
f 863 888 864
f 888 889 864
f 864 889 865
f 889 890 865
f 865 890 866
f 890 891 866
f 866 891 867
f 891 892 867
f 867 892 868
f 1133 1122 1150
f 1122 1123 1150
f 1150 1123 1149
f 1123 1134 1149
f 1149 1134 1148
f 1134 1119 1148
f 1148 1119 1147
f 1119 1118 1147
f 1147 1118 1146
f 1118 1116 1146
f 1146 1116 1145
f 1116 1117 1145
f 1145 1117 1144
f 1117 1124 1144
f 1144 1124 1143
f 1124 1125 1143
f 1143 1125 1142
f 1125 1126 1142
f 1142 1126 1141
f 1126 1139 1141
f 1141 1139 1164
f 1139 1140 1164
f 1164 1140 1163
f 1140 1135 1163
f 1163 1135 1162
f 1135 1136 1162
f 1162 1136 1161
f 1136 1127 1161
f 1161 1127 1160
f 1127 1128 1160
f 1160 1128 1159
f 1128 1137 1159
f 1159 1137 1158
f 1137 1129 1158
f 1158 1129 1157
f 1129 1130 1157
f 1157 1130 1156
f 1130 1120 1156
f 1156 1120 1155
f 1120 1121 1155
f 1155 1121 1154
f 1121 1131 1154
f 1154 1131 1153
f 1131 1138 1153
f 1153 1138 1152
f 1138 1132 1152
f 1152 1132 1151
f 1132 1133 1151
f 1151 1133 1150
f 1141 1166 1142
f 1166 1167 1142
f 1142 1167 1143
f 1167 1168 1143
f 1143 1168 1144
f 1168 1169 1144
f 1144 1169 1145
f 1169 1170 1145
f 1145 1170 1146
f 1170 1171 1146
f 1146 1171 1147
f 1171 1172 1147
f 1147 1172 1148
f 1172 1173 1148
f 1148 1173 1149
f 1173 1174 1149
f 1149 1174 1150
f 1174 1175 1150
f 1150 1175 1151
f 1175 1176 1151
f 1151 1176 1152
f 1176 1177 1152
f 1152 1177 1153
f 1177 1178 1153
f 1153 1178 1154
f 1178 1179 1154
f 1154 1179 1155
f 1179 1180 1155
f 1155 1180 1156
f 1180 1181 1156
f 1156 1181 1157
f 1181 1182 1157
f 1157 1182 1158
f 1182 1183 1158
f 1158 1183 1159
f 1183 1184 1159
f 1159 1184 1160
f 1184 1185 1160
f 1160 1185 1161
f 1185 1186 1161
f 1161 1186 1162
f 1186 1187 1162
f 1162 1187 1163
f 1187 1188 1163
f 1163 1188 1164
f 1188 1165 1164
f 1164 1165 1141
f 1165 1166 1141
f 1079 1092 1078
f 1092 1093 1078
f 1078 1093 1077
f 1093 1094 1077
f 1077 1094 1076
f 1094 1095 1076
f 1076 1095 1075
f 1095 1096 1075
f 1075 1096 1074
f 1096 1097 1074
f 1074 1097 1073
f 1097 1098 1073
f 1073 1098 1072
f 1098 1099 1072
f 1072 1099 1071
f 1099 1100 1071
f 1071 1100 1070
f 1100 1101 1070
f 1070 1101 1069
f 1101 1102 1069
f 1069 1102 1068
f 1102 1103 1068
f 1068 1103 1067
f 1103 1104 1067
f 1067 1104 1090
f 1104 1105 1090
f 1090 1105 1088
f 1105 1106 1088
f 1088 1106 1089
f 1106 1107 1089
f 1089 1107 1087
f 1107 1108 1087
f 1087 1108 1086
f 1108 1109 1086
f 1086 1109 1085
f 1109 1110 1085
f 1085 1110 1084
f 1110 1111 1084
f 1084 1111 1083
f 1111 1112 1083
f 1083 1112 1082
f 1112 1113 1082
f 1082 1113 1081
f 1113 1114 1081
f 1081 1114 1080
f 1114 1091 1080
f 1080 1091 1079
f 1091 1092 1079
f 1058 1060 1088
f 1060 1059 1088
f 1088 1059 1090
f 1059 1065 1090
f 1090 1065 1067
f 1065 1049 1067
f 1067 1049 1068
f 1049 1050 1068
f 1068 1050 1069
f 1050 1051 1069
f 1069 1051 1070
f 1051 1042 1070
f 1070 1042 1071
f 1042 1043 1071
f 1071 1043 1072
f 1043 1044 1072
f 1072 1044 1073
f 1044 1047 1073
f 1073 1047 1074
f 1047 1061 1074
f 1074 1061 1075
f 1061 1052 1075
f 1075 1052 1076
f 1052 1053 1076
f 1076 1053 1077
f 1053 1062 1077
f 1077 1062 1078
f 1062 1063 1078
f 1078 1063 1079
f 1063 1054 1079
f 1079 1054 1080
f 1054 1055 1080
f 1080 1055 1081
f 1055 1056 1081
f 1081 1056 1082
f 1056 1048 1082
f 1082 1048 1083
f 1048 1045 1083
f 1083 1045 1084
f 1045 1046 1084
f 1084 1046 1085
f 1046 1066 1085
f 1085 1066 1086
f 1066 1064 1086
f 1086 1064 1087
f 1064 1057 1087
f 1087 1057 1089
f 1057 1058 1089
f 1089 1058 1088
f 759 758 763
f 762 761 763
f 761 760 763
f 763 760 759
f 740 739 763
f 739 738 763
f 763 738 762
f 743 742 763
f 742 741 763
f 763 741 740
f 746 745 763
f 745 744 763
f 763 744 743
f 749 748 763
f 748 747 763
f 763 747 746
f 752 751 763
f 751 750 763
f 763 750 749
f 755 754 763
f 754 753 763
f 763 753 752
f 758 757 763
f 757 756 763
f 763 756 755
f 893 892 912
f 896 895 912
f 895 894 912
f 912 894 893
f 899 898 912
f 898 897 912
f 912 897 896
f 902 901 912
f 901 900 912
f 912 900 899
f 905 904 912
f 904 903 912
f 912 903 902
f 908 907 912
f 907 906 912
f 912 906 905
f 911 910 912
f 910 909 912
f 912 909 908
f 889 888 912
f 888 887 912
f 912 887 911
f 892 891 912
f 891 890 912
f 912 890 889
f 1180 1179 1189
f 1179 1178 1189
f 1189 1178 1177
f 1183 1182 1189
f 1182 1181 1189
f 1189 1181 1180
f 1186 1185 1189
f 1185 1184 1189
f 1189 1184 1183
f 1165 1188 1189
f 1188 1187 1189
f 1189 1187 1186
f 1168 1167 1189
f 1167 1166 1189
f 1189 1166 1165
f 1171 1170 1189
f 1170 1169 1189
f 1189 1169 1168
f 1174 1173 1189
f 1173 1172 1189
f 1189 1172 1171
f 1177 1176 1189
f 1176 1175 1189
f 1189 1175 1174
f 1106 1105 1115
f 1105 1104 1115
f 1115 1104 1103
f 1109 1108 1115
f 1108 1107 1115
f 1115 1107 1106
f 1112 1111 1115
f 1111 1110 1115
f 1115 1110 1109
f 1091 1114 1115
f 1114 1113 1115
f 1115 1113 1112
f 1094 1093 1115
f 1093 1092 1115
f 1115 1092 1091
f 1097 1096 1115
f 1096 1095 1115
f 1115 1095 1094
f 1100 1099 1115
f 1099 1098 1115
f 1115 1098 1097
f 1103 1102 1115
f 1102 1101 1115
f 1115 1101 1100
f 1264 1263 1262
f 1237 1263 1264
f 1264 1234 1260
f 1261 1234 1264
f 1262 1261 1264
f 1264 1258 1245
f 1259 1258 1264
f 1260 1259 1264
f 1264 1256 1255
f 1257 1256 1264
f 1245 1257 1264
f 1264 1247 1246
f 1243 1247 1264
f 1255 1243 1264
f 1264 1241 1254
f 1248 1241 1264
f 1246 1248 1264
f 1264 1252 1239
f 1253 1252 1264
f 1254 1253 1264
f 1264 1250 1249
f 1251 1250 1264
f 1239 1251 1264
f 1249 1237 1264
f 471 495 472
f 495 496 472
f 472 496 473
f 496 497 473
f 473 497 474
f 497 498 474
f 474 498 475
f 498 499 475
f 475 499 476
f 499 500 476
f 476 500 477
f 500 501 477
f 477 501 478
f 501 502 478
f 478 502 479
f 502 503 479
f 479 503 480
f 503 504 480
f 480 504 481
f 504 505 481
f 481 505 482
f 505 506 482
f 482 506 483
f 506 507 483
f 483 507 484
f 507 508 484
f 484 508 485
f 508 509 485
f 485 509 486
f 509 510 486
f 486 510 487
f 510 511 487
f 487 511 488
f 511 512 488
f 488 512 489
f 512 513 489
f 489 513 490
f 513 514 490
f 490 514 491
f 514 515 491
f 491 515 492
f 515 516 492
f 492 516 493
f 516 517 493
f 493 517 494
f 517 518 494
f 494 518 471
f 518 495 471
f 518 519 495
f 519 520 495
f 495 520 496
f 520 521 496
f 496 521 497
f 521 522 497
f 497 522 498
f 522 523 498
f 498 523 499
f 523 524 499
f 499 524 500
f 524 525 500
f 500 525 501
f 525 526 501
f 501 526 502
f 526 527 502
f 502 527 503
f 527 528 503
f 503 528 504
f 528 529 504
f 504 529 505
f 529 530 505
f 505 530 506
f 530 531 506
f 506 531 507
f 531 532 507
f 507 532 508
f 532 533 508
f 508 533 509
f 533 534 509
f 509 534 510
f 534 535 510
f 510 535 511
f 535 536 511
f 511 536 512
f 536 537 512
f 512 537 513
f 537 538 513
f 513 538 514
f 538 539 514
f 514 539 515
f 539 540 515
f 515 540 516
f 540 541 516
f 516 541 517
f 541 542 517
f 517 542 518
f 542 519 518
f 542 543 519
f 543 544 519
f 519 544 520
f 544 545 520
f 520 545 521
f 545 546 521
f 521 546 522
f 546 547 522
f 522 547 523
f 547 548 523
f 523 548 524
f 548 549 524
f 524 549 525
f 549 550 525
f 525 550 526
f 550 551 526
f 526 551 527
f 551 552 527
f 527 552 528
f 552 553 528
f 528 553 529
f 553 554 529
f 529 554 530
f 554 555 530
f 530 555 531
f 555 556 531
f 531 556 532
f 556 557 532
f 532 557 533
f 557 558 533
f 533 558 534
f 558 559 534
f 534 559 535
f 559 560 535
f 535 560 536
f 560 561 536
f 536 561 537
f 561 562 537
f 537 562 538
f 562 563 538
f 538 563 539
f 563 564 539
f 539 564 540
f 564 565 540
f 540 565 541
f 565 566 541
f 541 566 542
f 566 543 542
f 566 567 543
f 567 568 543
f 543 568 544
f 568 569 544
f 544 569 545
f 569 570 545
f 545 570 546
f 570 571 546
f 546 571 547
f 571 572 547
f 547 572 548
f 572 573 548
f 548 573 549
f 573 574 549
f 549 574 550
f 574 575 550
f 550 575 551
f 575 576 551
f 551 576 552
f 576 577 552
f 552 577 553
f 577 578 553
f 553 578 554
f 578 579 554
f 554 579 555
f 579 580 555
f 555 580 556
f 580 581 556
f 556 581 557
f 581 582 557
f 557 582 558
f 582 583 558
f 558 583 559
f 583 584 559
f 559 584 560
f 584 585 560
f 560 585 561
f 585 586 561
f 561 586 562
f 586 587 562
f 562 587 563
f 587 588 563
f 563 588 564
f 588 589 564
f 564 589 565
f 589 590 565
f 565 590 566
f 590 567 566
f 590 591 567
f 591 592 567
f 567 592 568
f 592 593 568
f 568 593 569
f 593 594 569
f 569 594 570
f 594 595 570
f 570 595 571
f 595 596 571
f 571 596 572
f 596 597 572
f 572 597 573
f 597 598 573
f 573 598 574
f 598 599 574
f 574 599 575
f 599 600 575
f 575 600 576
f 600 601 576
f 576 601 577
f 601 602 577
f 577 602 578
f 602 603 578
f 578 603 579
f 603 604 579
f 579 604 580
f 604 605 580
f 580 605 581
f 605 606 581
f 581 606 582
f 606 607 582
f 582 607 583
f 607 608 583
f 583 608 584
f 608 609 584
f 584 609 585
f 609 610 585
f 585 610 586
f 610 611 586
f 586 611 587
f 611 612 587
f 587 612 588
f 612 613 588
f 588 613 589
f 613 614 589
f 589 614 590
f 614 591 590
f 614 448 591
f 448 449 591
f 591 449 592
f 449 450 592
f 592 450 593
f 450 451 593
f 593 451 594
f 451 452 594
f 594 452 595
f 452 453 595
f 595 453 596
f 453 454 596
f 596 454 597
f 454 455 597
f 597 455 598
f 455 456 598
f 598 456 599
f 456 457 599
f 599 457 600
f 457 458 600
f 600 458 601
f 458 459 601
f 601 459 602
f 459 460 602
f 602 460 603
f 460 461 603
f 603 461 604
f 461 462 604
f 604 462 605
f 462 463 605
f 605 463 606
f 463 464 606
f 606 464 607
f 464 465 607
f 607 465 608
f 465 466 608
f 608 466 609
f 466 467 609
f 609 467 610
f 467 468 610
f 610 468 611
f 468 469 611
f 611 469 612
f 469 470 612
f 612 470 613
f 470 447 613
f 613 447 614
f 447 448 614
f 266 303 265
f 303 304 265
f 265 304 264
f 304 305 264
f 264 305 263
f 305 306 263
f 263 306 262
f 306 307 262
f 262 307 261
f 307 308 261
f 261 308 260
f 308 309 260
f 260 309 259
f 309 310 259
f 259 310 258
f 310 311 258
f 258 311 257
f 311 312 257
f 257 312 256
f 312 313 256
f 256 313 255
f 313 314 255
f 255 314 278
f 314 315 278
f 278 315 277
f 315 316 277
f 277 316 276
f 316 317 276
f 276 317 275
f 317 318 275
f 275 318 274
f 318 319 274
f 274 319 273
f 319 320 273
f 273 320 272
f 320 321 272
f 272 321 271
f 321 322 271
f 271 322 270
f 322 323 270
f 270 323 269
f 323 324 269
f 269 324 268
f 324 325 268
f 268 325 267
f 325 326 267
f 267 326 266
f 326 303 266
f 303 327 304
f 327 328 304
f 304 328 305
f 328 329 305
f 305 329 306
f 329 330 306
f 306 330 307
f 330 331 307
f 307 331 308
f 331 332 308
f 308 332 309
f 332 333 309
f 309 333 310
f 333 334 310
f 310 334 311
f 334 335 311
f 311 335 312
f 335 336 312
f 312 336 313
f 336 337 313
f 313 337 314
f 337 338 314
f 314 338 315
f 338 339 315
f 315 339 316
f 339 340 316
f 316 340 317
f 340 341 317
f 317 341 318
f 341 342 318
f 318 342 319
f 342 343 319
f 319 343 320
f 343 344 320
f 320 344 321
f 344 345 321
f 321 345 322
f 345 346 322
f 322 346 323
f 346 347 323
f 323 347 324
f 347 348 324
f 324 348 325
f 348 349 325
f 325 349 326
f 349 350 326
f 326 350 303
f 350 327 303
f 327 351 328
f 351 352 328
f 328 352 329
f 352 353 329
f 329 353 330
f 353 354 330
f 330 354 331
f 354 355 331
f 331 355 332
f 355 356 332
f 332 356 333
f 356 357 333
f 333 357 334
f 357 358 334
f 334 358 335
f 358 359 335
f 335 359 336
f 359 360 336
f 336 360 337
f 360 361 337
f 337 361 338
f 361 362 338
f 338 362 339
f 362 363 339
f 339 363 340
f 363 364 340
f 340 364 341
f 364 365 341
f 341 365 342
f 365 366 342
f 342 366 343
f 366 367 343
f 343 367 344
f 367 368 344
f 344 368 345
f 368 369 345
f 345 369 346
f 369 370 346
f 346 370 347
f 370 371 347
f 347 371 348
f 371 372 348
f 348 372 349
f 372 373 349
f 349 373 350
f 373 374 350
f 350 374 327
f 374 351 327
f 351 375 352
f 375 376 352
f 352 376 353
f 376 377 353
f 353 377 354
f 377 378 354
f 354 378 355
f 378 379 355
f 355 379 356
f 379 380 356
f 356 380 357
f 380 381 357
f 357 381 358
f 381 382 358
f 358 382 359
f 382 383 359
f 359 383 360
f 383 384 360
f 360 384 361
f 384 385 361
f 361 385 362
f 385 386 362
f 362 386 363
f 386 387 363
f 363 387 364
f 387 388 364
f 364 388 365
f 388 389 365
f 365 389 366
f 389 390 366
f 366 390 367
f 390 391 367
f 367 391 368
f 391 392 368
f 368 392 369
f 392 393 369
f 369 393 370
f 393 394 370
f 370 394 371
f 394 395 371
f 371 395 372
f 395 396 372
f 372 396 373
f 396 397 373
f 373 397 374
f 397 398 374
f 374 398 351
f 398 375 351
f 375 399 376
f 399 400 376
f 376 400 377
f 400 401 377
f 377 401 378
f 401 402 378
f 378 402 379
f 402 403 379
f 379 403 380
f 403 404 380
f 380 404 381
f 404 405 381
f 381 405 382
f 405 406 382
f 382 406 383
f 406 407 383
f 383 407 384
f 407 408 384
f 384 408 385
f 408 409 385
f 385 409 386
f 409 410 386
f 386 410 387
f 410 411 387
f 387 411 388
f 411 412 388
f 388 412 389
f 412 413 389
f 389 413 390
f 413 414 390
f 390 414 391
f 414 415 391
f 391 415 392
f 415 416 392
f 392 416 393
f 416 417 393
f 393 417 394
f 417 418 394
f 394 418 395
f 418 419 395
f 395 419 396
f 419 420 396
f 396 420 397
f 420 421 397
f 397 421 398
f 421 422 398
f 398 422 375
f 422 399 375
f 399 280 400
f 280 281 400
f 400 281 401
f 281 282 401
f 401 282 402
f 282 283 402
f 402 283 403
f 283 284 403
f 403 284 404
f 284 285 404
f 404 285 405
f 285 286 405
f 405 286 406
f 286 287 406
f 406 287 407
f 287 288 407
f 407 288 408
f 288 289 408
f 408 289 409
f 289 290 409
f 409 290 410
f 290 291 410
f 410 291 411
f 291 292 411
f 411 292 412
f 292 293 412
f 412 293 413
f 293 294 413
f 413 294 414
f 294 295 414
f 414 295 415
f 295 296 415
f 415 296 416
f 296 297 416
f 416 297 417
f 297 298 417
f 417 298 418
f 298 299 418
f 418 299 419
f 299 300 419
f 419 300 420
f 300 301 420
f 420 301 421
f 301 302 421
f 421 302 422
f 302 279 422
f 422 279 399
f 279 280 399
f 447 426 448
f 426 425 448
f 448 425 449
f 425 435 449
f 449 435 450
f 435 434 450
f 450 434 451
f 434 440 451
f 451 440 452
f 440 439 452
f 452 439 453
f 439 446 453
f 453 446 454
f 446 445 454
f 454 445 455
f 445 444 455
f 455 444 456
f 444 443 456
f 456 443 457
f 443 442 457
f 457 442 458
f 442 430 458
f 458 430 459
f 430 424 459
f 459 424 460
f 424 423 460
f 460 423 461
f 423 429 461
f 461 429 462
f 429 433 462
f 462 433 463
f 433 441 463
f 463 441 464
f 441 438 464
f 464 438 465
f 438 437 465
f 465 437 466
f 437 436 466
f 466 436 467
f 436 432 467
f 467 432 468
f 432 431 468
f 468 431 469
f 431 428 469
f 469 428 470
f 428 427 470
f 470 427 447
f 427 426 447
f 255 113 256
f 113 101 256
f 256 101 257
f 101 129 257
f 257 129 258
f 129 122 258
f 258 122 259
f 122 141 259
f 259 141 260
f 141 140 260
f 260 140 261
f 140 147 261
f 261 147 262
f 147 133 262
f 262 133 263
f 133 146 263
f 263 146 264
f 146 142 264
f 264 142 265
f 142 112 265
f 265 112 266
f 112 116 266
f 266 116 267
f 116 132 267
f 267 132 268
f 132 131 268
f 268 131 269
f 131 130 269
f 269 130 270
f 130 145 270
f 270 145 271
f 145 152 271
f 271 152 272
f 152 154 272
f 272 154 273
f 154 156 273
f 273 156 274
f 156 151 274
f 274 151 275
f 151 110 275
f 275 110 276
f 110 109 276
f 276 109 277
f 109 106 277
f 277 106 278
f 106 105 278
f 278 105 255
f 105 113 255
f 1240 1232 1239
f 1232 1233 1239
f 1239 1233 1238
f 1242 1231 1241
f 1231 1232 1241
f 1241 1232 1240
f 1244 1230 1243
f 1230 1231 1243
f 1243 1231 1242
f 1235 1228 1245
f 1228 1230 1245
f 1245 1230 1244
f 1242 1241 1248
f 1248 1246 1242
f 1246 1247 1242
f 1242 1247 1243
f 1240 1239 1252
f 1252 1253 1240
f 1253 1254 1240
f 1240 1254 1241
f 1238 1237 1249
f 1249 1250 1238
f 1250 1251 1238
f 1238 1251 1239
f 1236 1234 1261
f 1261 1262 1236
f 1262 1263 1236
f 1236 1263 1237
f 1235 1245 1258
f 1258 1259 1235
f 1259 1260 1235
f 1235 1260 1234
f 1244 1243 1255
f 1255 1256 1244
f 1256 1257 1244
f 1244 1257 1245
f 1238 1233 1237
f 1233 1229 1237
f 1237 1229 1236
f 1236 1229 1234
f 1229 1228 1234
f 1234 1228 1235
f 302 424 279
f 424 430 279
f 279 430 280
f 430 442 280
f 280 442 281
f 442 443 281
f 281 443 282
f 443 444 282
f 282 444 283
f 444 445 283
f 283 445 284
f 445 446 284
f 284 446 285
f 446 439 285
f 285 439 286
f 439 440 286
f 286 440 287
f 440 434 287
f 287 434 288
f 434 435 288
f 288 435 289
f 435 425 289
f 289 425 290
f 425 426 290
f 290 426 291
f 426 427 291
f 291 427 292
f 427 428 292
f 292 428 293
f 428 431 293
f 293 431 294
f 431 432 294
f 294 432 295
f 432 436 295
f 295 436 296
f 436 437 296
f 296 437 297
f 437 438 297
f 297 438 298
f 438 441 298
f 298 441 299
f 441 433 299
f 299 433 300
f 433 429 300
f 300 429 301
f 429 423 301
f 301 423 302
f 423 424 302
f 484 485 1231
f 1230 481 482
f 493 494 1233
f 494 471 1233
f 1233 471 1229
f 471 472 1229
f 1229 472 473
f 489 490 1232
f 490 491 1232
f 1232 491 1233
f 491 492 1233
f 1233 492 493
f 485 486 1231
f 486 487 1231
f 1231 487 1232
f 487 488 1232
f 1232 488 489
f 1230 482 1231
f 482 483 1231
f 1231 483 484
f 477 478 1228
f 478 479 1228
f 1228 479 1230
f 479 480 1230
f 1230 480 481
f 473 474 1229
f 474 475 1229
f 1229 475 1228
f 475 476 1228
f 1228 476 477
f 1 4 37
f 18 21 38
f 20 22 39
f 34 36 40
f 34 40 33
f 42 29 41
f 29 31 41
f 41 31 32
f 25 28 43
f 28 27 43
f 43 27 42
f 27 30 42
f 42 30 29
f 22 23 39
f 23 26 39
f 39 26 43
f 26 24 43
f 43 24 25
f 17 15 44
f 15 16 44
f 44 16 19
f 46 11 45
f 11 13 45
f 45 13 14
f 7 10 47
f 10 9 47
f 47 9 46
f 9 12 46
f 46 12 11
f 4 5 37
f 5 8 37
f 37 8 47
f 8 6 47
f 47 6 7
f 35 2 48
f 2 3 48
f 32 33 41
f 33 40 41
f 41 40 42
f 40 49 42
f 42 49 43
f 49 50 43
f 43 50 39
f 50 38 39
f 39 38 20
f 38 21 20
f 36 35 40
f 35 48 40
f 40 48 49
f 48 51 49
f 49 51 50
f 51 52 50
f 50 52 38
f 52 44 38
f 38 44 18
f 44 19 18
f 3 1 48
f 1 37 48
f 48 37 51
f 37 47 51
f 51 47 52
f 47 46 52
f 52 46 44
f 46 45 44
f 44 45 17
f 45 14 17
f 75 3 76
f 3 2 76
f 76 2 53
f 73 4 75
f 4 1 75
f 75 1 3
f 71 6 74
f 6 8 74
f 74 8 73
f 8 5 73
f 73 5 4
f 69 12 70
f 12 9 70
f 70 9 72
f 9 10 72
f 72 10 71
f 10 7 71
f 71 7 6
f 67 13 69
f 13 11 69
f 69 11 12
f 65 15 68
f 15 17 68
f 68 17 67
f 17 14 67
f 67 14 13
f 63 21 64
f 21 18 64
f 64 18 66
f 18 19 66
f 66 19 65
f 19 16 65
f 65 16 15
f 61 22 63
f 22 20 63
f 63 20 21
f 59 24 62
f 24 26 62
f 62 26 61
f 26 23 61
f 61 23 22
f 57 30 58
f 30 27 58
f 58 27 60
f 27 28 60
f 60 28 59
f 28 25 59
f 59 25 24
f 55 31 57
f 31 29 57
f 57 29 30
f 2 35 53
f 35 36 53
f 53 36 54
f 36 34 54
f 54 34 56
f 34 33 56
f 56 33 55
f 33 32 55
f 55 32 31
f 66 78 64
f 78 79 64
f 64 79 63
f 79 80 63
f 63 80 61
f 80 81 61
f 61 81 62
f 81 82 62
f 62 82 59
f 82 83 59
f 59 83 60
f 83 84 60
f 60 84 58
f 84 85 58
f 58 85 57
f 85 86 57
f 57 86 55
f 86 87 55
f 55 87 56
f 87 88 56
f 56 88 54
f 88 89 54
f 54 89 53
f 89 90 53
f 53 90 76
f 90 91 76
f 76 91 75
f 91 92 75
f 75 92 73
f 92 93 73
f 73 93 74
f 93 94 74
f 74 94 71
f 94 95 71
f 71 95 72
f 95 96 72
f 72 96 70
f 96 97 70
f 70 97 69
f 97 98 69
f 69 98 67
f 98 99 67
f 67 99 68
f 99 100 68
f 68 100 65
f 100 77 65
f 65 77 66
f 77 78 66
f 236 234 239
f 220 219 240
f 218 216 241
f 205 204 242
f 205 242 206
f 244 209 243
f 209 207 243
f 243 207 208
f 213 212 245
f 212 211 245
f 245 211 244
f 211 210 244
f 244 210 209
f 216 217 241
f 217 215 241
f 241 215 245
f 215 214 245
f 245 214 213
f 224 223 246
f 223 222 246
f 246 222 221
f 248 227 247
f 227 225 247
f 247 225 226
f 231 230 249
f 230 229 249
f 249 229 248
f 229 228 248
f 248 228 227
f 234 235 239
f 235 233 239
f 239 233 249
f 233 232 249
f 249 232 231
f 203 238 250
f 238 237 250
f 208 206 243
f 206 242 243
f 243 242 244
f 242 251 244
f 244 251 245
f 251 252 245
f 245 252 241
f 252 240 241
f 241 240 218
f 240 219 218
f 204 203 242
f 203 250 242
f 242 250 251
f 250 253 251
f 251 253 252
f 253 254 252
f 252 254 240
f 254 246 240
f 240 246 220
f 246 221 220
f 237 236 250
f 236 239 250
f 250 239 253
f 239 249 253
f 253 249 254
f 249 248 254
f 254 248 246
f 248 247 246
f 246 247 224
f 247 226 224
f 193 237 192
f 237 238 192
f 192 238 191
f 194 234 193
f 234 236 193
f 193 236 237
f 196 232 195
f 232 233 195
f 195 233 194
f 233 235 194
f 194 235 234
f 199 228 198
f 228 229 198
f 198 229 197
f 229 230 197
f 197 230 196
f 230 231 196
f 196 231 232
f 200 225 199
f 225 227 199
f 199 227 228
f 202 223 201
f 223 224 201
f 201 224 200
f 224 226 200
f 200 226 225
f 181 219 180
f 219 220 180
f 180 220 179
f 220 221 179
f 179 221 202
f 221 222 202
f 202 222 223
f 182 216 181
f 216 218 181
f 181 218 219
f 184 214 183
f 214 215 183
f 183 215 182
f 215 217 182
f 182 217 216
f 187 210 186
f 210 211 186
f 186 211 185
f 211 212 185
f 185 212 184
f 212 213 184
f 184 213 214
f 188 207 187
f 207 209 187
f 187 209 210
f 238 203 191
f 203 204 191
f 191 204 190
f 204 205 190
f 190 205 189
f 205 206 189
f 189 206 188
f 206 208 188
f 188 208 207
f 179 107 180
f 107 108 180
f 180 108 181
f 108 111 181
f 181 111 182
f 111 115 182
f 182 115 183
f 115 153 183
f 183 153 184
f 153 155 184
f 184 155 185
f 155 149 185
f 185 149 186
f 149 148 186
f 186 148 187
f 148 136 187
f 187 136 188
f 136 144 188
f 188 144 189
f 144 138 189
f 189 138 190
f 138 137 190
f 190 137 191
f 137 125 191
f 191 125 192
f 125 126 192
f 192 126 193
f 126 119 193
f 193 119 194
f 119 118 194
f 194 118 195
f 118 150 195
f 195 150 196
f 150 128 196
f 196 128 197
f 128 139 197
f 197 139 198
f 139 120 198
f 198 120 199
f 120 103 199
f 199 103 200
f 103 102 200
f 200 102 201
f 102 104 201
f 201 104 202
f 104 114 202
f 202 114 179
f 114 107 179
f 675 676 615
f 615 676 632
f 676 674 632
f 632 674 633
f 674 673 633
f 633 673 629
f 673 672 629
f 629 672 627
f 672 671 627
f 627 671 628
f 671 670 628
f 628 670 630
f 670 668 630
f 630 668 631
f 631 668 634
f 668 669 634
f 634 669 645
f 615 658 675
f 658 657 675
f 675 657 677
f 657 661 677
f 677 661 678
f 661 662 678
f 678 662 679
f 662 655 679
f 679 655 680
f 655 654 680
f 680 654 681
f 654 659 681
f 681 659 682
f 659 660 682
f 682 660 683
f 660 647 683
f 683 647 684
f 647 646 684
f 684 646 685
f 646 639 685
f 685 639 686
f 639 638 686
f 686 638 687
f 638 643 687
f 687 643 664
f 643 637 664
f 664 637 665
f 637 641 665
f 665 641 666
f 641 648 666
f 666 648 667
f 648 645 667
f 667 645 688
f 645 669 688
f 808 803 830
f 830 803 829
f 803 811 829
f 829 811 828
f 811 810 828
f 828 810 827
f 810 812 827
f 827 812 826
f 812 809 826
f 826 809 825
f 809 764 825
f 825 764 824
f 764 782 824
f 782 781 824
f 824 781 823
f 781 780 823
f 823 780 822
f 780 779 822
f 822 779 821
f 779 778 821
f 821 778 820
f 778 777 820
f 820 777 819
f 777 776 819
f 819 776 818
f 776 783 818
f 818 783 817
f 830 831 808
f 831 832 808
f 808 832 806
f 832 833 806
f 806 833 807
f 833 834 807
f 807 834 799
f 834 835 799
f 799 835 798
f 835 836 798
f 798 836 791
f 836 837 791
f 791 837 787
f 837 813 787
f 787 813 784
f 813 814 784
f 784 814 785
f 814 815 785
f 785 815 795
f 815 816 795
f 795 816 796
f 816 817 796
f 796 817 797
f 817 783 797
f 1009 1010 650
f 650 1010 651
f 1010 1008 651
f 651 1008 649
f 1008 1007 649
f 649 1007 644
f 1007 1006 644
f 644 1006 640
f 1006 1005 640
f 640 1005 642
f 1005 1004 642
f 642 1004 635
f 1004 1003 635
f 635 1003 636
f 1003 1002 636
f 636 1002 656
f 1002 1001 656
f 656 1001 652
f 1001 999 652
f 652 999 653
f 653 999 663
f 999 1000 663
f 663 1000 932
f 1000 998 932
f 932 998 934
f 998 997 934
f 934 997 935
f 650 923 1009
f 923 922 1009
f 1009 922 1011
f 922 930 1011
f 1011 930 1012
f 930 921 1012
f 1012 921 1013
f 921 916 1013
f 1013 916 1014
f 916 915 1014
f 1014 915 1015
f 915 919 1015
f 1015 919 1016
f 919 938 1016
f 1016 938 993
f 938 937 993
f 993 937 994
f 937 926 994
f 994 926 995
f 926 925 995
f 995 925 996
f 925 935 996
f 996 935 1017
f 935 997 1017
f 1034 792 1033
f 792 794 1033
f 1033 794 1032
f 794 790 1032
f 1032 790 1031
f 790 789 1031
f 1031 789 1030
f 789 788 1030
f 1030 788 1029
f 788 786 1029
f 1029 786 1028
f 786 802 1028
f 1028 802 1027
f 802 801 1027
f 1027 801 1026
f 801 805 1026
f 1026 805 1025
f 805 804 1025
f 1025 804 1024
f 804 987 1024
f 987 986 1024
f 1024 986 1023
f 986 985 1023
f 1023 985 1022
f 985 991 1022
f 1022 991 1021
f 991 990 1021
f 1021 990 1020
f 990 989 1020
f 1020 989 1019
f 989 984 1019
f 1019 984 1018
f 984 980 1018
f 1018 980 1041
f 980 979 1041
f 1041 979 1040
f 979 983 1040
f 1040 983 1039
f 983 982 1039
f 1039 982 1038
f 982 981 1038
f 1038 981 1037
f 981 988 1037
f 1037 988 1036
f 988 992 1036
f 1036 992 1035
f 992 800 1035
f 1035 800 1034
f 800 793 1034
f 1034 793 792
f 966 965 964
f 966 964 978
f 964 963 978
f 978 963 977
f 963 962 977
f 977 962 976
f 962 961 976
f 976 961 975
f 961 960 975
f 975 960 974
f 960 959 974
f 974 959 973
f 959 958 973
f 973 958 972
f 958 957 972
f 972 957 971
f 957 956 971
f 971 956 970
f 956 955 970
f 970 955 969
f 955 954 969
f 969 954 968
f 954 953 968
f 968 953 967
f 965 913 942
f 965 942 964
f 942 943 964
f 964 943 963
f 943 944 963
f 963 944 962
f 944 945 962
f 962 945 961
f 945 946 961
f 961 946 960
f 946 947 960
f 960 947 959
f 947 948 959
f 959 948 958
f 948 949 958
f 958 949 957
f 949 950 957
f 957 950 956
f 950 951 956
f 956 951 955
f 951 952 955
f 955 952 954
f 952 941 954
f 954 941 953
f 764 809 123
f 809 812 123
f 123 812 810
f 799 134 807
f 134 806 807
f 801 783 805
f 783 804 805
f 810 811 123
f 811 803 123
f 123 803 134
f 803 808 134
f 134 808 806
f 793 800 177
f 786 795 796
f 177 175 791
f 175 173 791
f 791 173 798
f 173 171 798
f 798 171 799
f 171 169 799
f 799 169 134
f 790 794 791
f 801 802 783
f 802 786 783
f 783 786 797
f 786 796 797
f 791 794 177
f 794 792 177
f 177 792 793
f 790 791 789
f 791 787 789
f 789 787 788
f 787 784 788
f 788 784 786
f 784 785 786
f 786 785 795
f 1196 1202 1198
f 1191 1192 1194
f 1192 1200 1194
f 1194 1200 1196
f 1200 1201 1196
f 1196 1201 1202
f 1198 1199 1196
f 1199 1203 1196
f 1196 1203 1204
f 1193 1190 1197
f 1211 1206 1195
f 1206 1207 1195
f 1195 1207 1209
f 1209 1208 1195
f 1208 1205 1195
f 1195 1205 1197
f 1205 1210 1197
f 1197 1210 1193
f 1212 1216 1215
f 1216 1217 1215
f 941 168 953
f 168 1190 953
f 178 953 1191
f 953 1190 1191
f 1191 1190 1192
f 1190 1193 1192
f 1190 168 1197
f 168 161 1197
f 1197 161 1195
f 161 163 1195
f 1195 163 1196
f 178 1191 176
f 1191 1194 176
f 176 1194 174
f 1194 1196 174
f 1196 163 174
f 174 163 172
f 163 165 172
f 172 165 170
f 165 167 170
f 170 167 143
f 167 135 143
f 135 156 154
f 149 155 135
f 155 153 135
f 135 153 115
f 135 154 143
f 154 152 143
f 143 152 145
f 103 120 101
f 83 143 84
f 143 145 84
f 84 145 85
f 145 130 85
f 85 130 86
f 127 121 120
f 121 94 93
f 138 144 124
f 144 136 124
f 124 136 135
f 136 148 135
f 135 148 149
f 83 82 143
f 82 81 143
f 143 81 134
f 81 80 134
f 134 80 79
f 79 78 134
f 78 77 134
f 134 77 123
f 77 100 123
f 123 100 99
f 123 96 121
f 96 95 121
f 121 95 94
f 142 146 93
f 146 133 93
f 93 133 121
f 133 147 121
f 121 147 140
f 120 139 127
f 139 128 127
f 127 128 117
f 128 150 117
f 117 150 118
f 117 125 124
f 125 137 124
f 124 137 138
f 99 98 123
f 98 97 123
f 123 97 96
f 140 141 121
f 141 122 121
f 121 122 120
f 122 129 120
f 120 129 101
f 118 119 117
f 119 126 117
f 117 126 125
f 86 130 87
f 130 131 87
f 87 131 88
f 131 132 88
f 88 132 89
f 132 116 89
f 89 116 90
f 116 112 90
f 90 112 91
f 142 93 112
f 93 92 112
f 112 92 91
f 156 135 151
f 135 115 151
f 151 115 110
f 115 111 110
f 110 111 109
f 111 108 109
f 109 108 106
f 108 107 106
f 106 107 105
f 107 114 105
f 105 114 113
f 114 104 113
f 113 104 101
f 104 102 101
f 101 102 103
f 158 157 127
f 157 121 127
f 157 158 618
f 157 618 770
f 618 620 770
f 770 620 769
f 620 622 769
f 769 622 768
f 622 624 768
f 768 624 767
f 624 626 767
f 767 626 766
f 913 1213 1212
f 1213 913 1214
f 913 965 1214
f 1214 965 1215
f 965 766 1215
f 1215 766 1212
f 766 626 1212
f 1212 626 913
f 661 657 117
f 657 658 117
f 117 658 615
f 659 654 124
f 654 655 124
f 124 655 117
f 655 662 117
f 117 662 661
f 656 652 634
f 652 653 634
f 634 653 663
f 159 650 651
f 651 649 159
f 649 639 159
f 159 639 160
f 639 162 160
f 162 639 164
f 639 646 164
f 164 646 166
f 646 647 166
f 166 647 124
f 647 660 124
f 124 660 659
f 656 634 636
f 634 645 636
f 636 645 648
f 649 644 639
f 644 640 639
f 639 640 638
f 640 642 638
f 638 642 643
f 642 635 643
f 643 635 637
f 635 636 637
f 637 636 641
f 636 648 641
f 1217 1226 1215
f 1226 1224 1215
f 1215 1224 1222
f 1222 1220 1215
f 1220 1218 1215
f 1215 1218 1214
f 1223 1225 1212
f 1225 1227 1212
f 1212 1227 1216
f 1213 1219 1212
f 1219 1221 1212
f 1212 1221 1223
f 1211 1195 1204
f 1195 1196 1204
f 168 159 161
f 159 160 161
f 161 160 163
f 160 162 163
f 163 162 165
f 162 164 165
f 165 164 167
f 164 166 167
f 167 166 135
f 166 124 135
f 159 168 650
f 168 941 650
f 650 941 924
f 924 941 952
f 924 952 931
f 952 951 931
f 931 951 929
f 951 950 929
f 929 950 918
f 950 949 918
f 918 949 917
f 949 948 917
f 917 948 920
f 948 947 920
f 920 947 940
f 947 946 940
f 940 946 939
f 946 945 939
f 939 945 928
f 945 944 928
f 928 944 927
f 944 943 927
f 927 943 936
f 943 942 936
f 936 942 933
f 942 913 933
f 933 913 914
f 689 671 690
f 671 672 690
f 690 672 695
f 672 673 695
f 695 673 703
f 673 674 703
f 703 674 696
f 674 676 696
f 696 676 697
f 676 675 697
f 697 675 709
f 675 677 709
f 709 677 710
f 677 678 710
f 710 678 698
f 678 679 698
f 698 679 699
f 679 680 699
f 699 680 704
f 680 681 704
f 704 681 705
f 681 682 705
f 705 682 691
f 682 683 691
f 691 683 692
f 683 684 692
f 692 684 700
f 684 685 700
f 700 685 706
f 685 686 706
f 706 686 707
f 686 687 707
f 707 687 701
f 687 664 701
f 701 664 702
f 664 665 702
f 702 665 708
f 665 666 708
f 708 666 713
f 666 667 713
f 713 667 711
f 667 688 711
f 711 688 712
f 688 669 712
f 712 669 693
f 669 668 693
f 693 668 694
f 668 670 694
f 694 670 689
f 670 671 689
f 615 632 616
f 632 633 616
f 616 633 617
f 633 629 617
f 617 629 619
f 629 627 619
f 619 627 621
f 627 628 621
f 621 628 623
f 628 630 623
f 623 630 625
f 630 631 625
f 625 631 634
f 764 765 782
f 765 781 782
f 781 765 780
f 765 775 780
f 780 775 779
f 775 774 779
f 779 774 778
f 774 773 778
f 778 773 777
f 773 772 777
f 777 772 776
f 772 771 776
f 776 771 783
f 838 824 839
f 824 823 839
f 839 823 845
f 823 822 845
f 845 822 846
f 822 821 846
f 846 821 840
f 821 820 840
f 840 820 841
f 820 819 841
f 841 819 847
f 819 818 847
f 847 818 848
f 818 817 848
f 848 817 842
f 817 816 842
f 842 816 843
f 816 815 843
f 843 815 857
f 815 814 857
f 857 814 858
f 814 813 858
f 858 813 849
f 813 837 849
f 849 837 850
f 837 836 850
f 850 836 859
f 836 835 859
f 859 835 860
f 835 834 860
f 860 834 861
f 834 833 861
f 861 833 862
f 833 832 862
f 862 832 851
f 832 831 851
f 851 831 852
f 831 830 852
f 852 830 853
f 830 829 853
f 853 829 854
f 829 828 854
f 854 828 855
f 828 827 855
f 855 827 856
f 827 826 856
f 856 826 844
f 826 825 844
f 844 825 838
f 825 824 838
f 1217 1216 1227
f 1217 1227 1226
f 1227 1225 1226
f 1226 1225 1224
f 1225 1223 1224
f 1224 1223 1222
f 1223 1221 1222
f 1222 1221 1220
f 1221 1219 1220
f 1220 1219 1218
f 1219 1213 1218
f 1218 1213 1214
f 1192 1193 1210
f 1192 1210 1200
f 1210 1205 1200
f 1200 1205 1201
f 1205 1208 1201
f 1201 1208 1202
f 1208 1209 1202
f 1202 1209 1198
f 1209 1207 1198
f 1198 1207 1199
f 1207 1206 1199
f 1199 1206 1203
f 1206 1211 1203
f 1203 1211 1204
f 663 932 914
f 932 934 914
f 914 934 933
f 934 935 933
f 933 935 936
f 935 925 936
f 936 925 927
f 925 926 927
f 927 926 928
f 926 937 928
f 928 937 939
f 937 938 939
f 939 938 940
f 938 919 940
f 940 919 920
f 919 915 920
f 920 915 917
f 915 916 917
f 917 916 918
f 916 921 918
f 918 921 929
f 921 930 929
f 929 930 931
f 930 922 931
f 931 922 924
f 922 923 924
f 924 923 650
f 1116 1003 1117
f 1003 1004 1117
f 1117 1004 1124
f 1004 1005 1124
f 1124 1005 1125
f 1005 1006 1125
f 1125 1006 1126
f 1006 1007 1126
f 1126 1007 1139
f 1007 1008 1139
f 1139 1008 1140
f 1008 1010 1140
f 1140 1010 1135
f 1010 1009 1135
f 1135 1009 1136
f 1009 1011 1136
f 1136 1011 1127
f 1011 1012 1127
f 1127 1012 1128
f 1012 1013 1128
f 1128 1013 1137
f 1013 1014 1137
f 1137 1014 1129
f 1014 1015 1129
f 1129 1015 1130
f 1015 1016 1130
f 1130 1016 1120
f 1016 993 1120
f 1120 993 1121
f 993 994 1121
f 1121 994 1131
f 994 995 1131
f 1131 995 1138
f 995 996 1138
f 1138 996 1132
f 996 1017 1132
f 1132 1017 1133
f 1017 997 1133
f 1133 997 1122
f 997 998 1122
f 1122 998 1123
f 998 1000 1123
f 1123 1000 1134
f 1000 999 1134
f 1134 999 1119
f 999 1001 1119
f 1119 1001 1118
f 1001 1002 1118
f 1118 1002 1116
f 1002 1003 1116
f 967 800 992
f 987 804 966
f 967 992 968
f 992 988 968
f 968 988 969
f 988 981 969
f 969 981 970
f 981 982 970
f 970 982 971
f 982 983 971
f 971 983 972
f 983 979 972
f 972 979 973
f 979 980 973
f 973 980 974
f 980 984 974
f 974 984 975
f 984 989 975
f 975 989 976
f 989 990 976
f 976 990 977
f 990 991 977
f 977 991 978
f 991 985 978
f 978 985 966
f 985 986 966
f 966 986 987
f 1059 1060 1034
f 1060 1058 1034
f 1034 1058 1035
f 1058 1057 1035
f 1035 1057 1036
f 1057 1064 1036
f 1036 1064 1037
f 1064 1066 1037
f 1037 1066 1038
f 1066 1046 1038
f 1038 1046 1039
f 1046 1045 1039
f 1039 1045 1040
f 1045 1048 1040
f 1040 1048 1041
f 1048 1056 1041
f 1041 1056 1018
f 1056 1055 1018
f 1018 1055 1019
f 1055 1054 1019
f 1019 1054 1020
f 1054 1063 1020
f 1020 1063 1021
f 1063 1062 1021
f 1021 1062 1022
f 1062 1053 1022
f 1022 1053 1023
f 1053 1052 1023
f 1023 1052 1024
f 1052 1061 1024
f 1024 1061 1025
f 1061 1047 1025
f 1025 1047 1026
f 1047 1044 1026
f 1026 1044 1027
f 1044 1043 1027
f 1027 1043 1028
f 1043 1042 1028
f 1028 1042 1029
f 1042 1051 1029
f 1029 1051 1030
f 1051 1050 1030
f 1030 1050 1031
f 1050 1049 1031
f 1031 1049 1032
f 1049 1065 1032
f 1032 1065 1033
f 1065 1059 1033
f 1033 1059 1034
f 123 121 764
f 121 157 764
f 764 157 765
f 765 157 770
f 765 770 775
f 770 769 775
f 775 769 774
f 769 768 774
f 774 768 773
f 768 767 773
f 773 767 772
f 767 766 772
f 772 766 771
f 965 966 804
f 965 804 766
f 804 783 766
f 766 783 771
f 178 177 953
f 177 800 953
f 953 800 967
f 143 134 170
f 134 169 170
f 170 169 172
f 169 171 172
f 172 171 174
f 171 173 174
f 174 173 176
f 173 175 176
f 176 175 178
f 175 177 178
f 127 117 158
f 117 615 158
f 158 615 616
f 625 626 624
f 625 624 623
f 624 622 623
f 623 622 621
f 622 620 621
f 621 620 619
f 620 618 619
f 619 618 617
f 618 158 617
f 617 158 616
f 663 914 913
f 663 913 634
f 913 626 634
f 634 626 625
