v 0.0272508 0.11965 0.0204224
v 0.0224352 0.12462 0.0187389
v 0.0217397 0.122326 0.0313765
v 0.0244226 0.117237 -0.0399657
v 0.0183772 0.123 -0.0418945
v 0.0205473 0.124938 -0.0312727
v 0.0288334 0.0917588 -0.0346275
v 0.032163 0.0943758 -0.0251107
v 0.0310837 0.089155 -0.0241681
v 0.0293593 -0.0326145 -0.0495724
v 0.0293843 -0.0370384 -0.0462247
v 0.0269606 -0.0387723 -0.0555688
v 0.0304975 0.097287 0.0424883
v 0.0303084 0.0979044 0.0430382
v 0.0294871 0.0933869 0.0444829
v 0.0321087 0.106953 -0.0263948
v 0.0314617 0.109945 -0.0265082
v 0.0307342 0.114064 0.0225077
v 0.017332 0.128084 0.017796
v 0.0265357 0.119281 -0.028887
v 0.0273343 0.0763912 -0.0349627
v 0.0304702 0.0757248 -0.0225534
v 0.0306557 0.0698217 -0.0229136
v 0.027322 0.0816948 -0.0345212
v 0.0302948 0.0821467 -0.0232613
v -0.0129998 0.130085 0.0334266
v 0.0279968 0.0863668 0.0463525
v 0.0272693 -0.0185547 0.0646923
v 0.0269606 -0.0184742 0.0651959
v 0.0269606 -0.0257267 0.062686
v -0.0125571 0.0328744 -0.0628844
v 0.0273941 0.0308388 -0.0595522
v 0.0272693 0.0237408 -0.0629708
v 0.0324111 0.0902539 0.0306187
v 0.0334219 0.09454 0.0294078
v 0.0130286 0.125808 -0.0431421
v 0.0141703 0.12854 -0.0327938
v 0.027572 0.112211 -0.038383
v 0.0276849 0.0302519 -0.0587991
v -0.0126644 0.0569353 -0.0460007
v -0.0126814 0.067436 -0.0411878
v 0.0271944 0.0631759 -0.0389828
v 0.0301488 0.11354 -0.026976
v -0.0127967 -0.0411793 0.0578031
v 0.0269358 -0.039128 0.0553538
v 0.0269606 -0.0324447 0.0594985
v 0.0272693 -0.0324602 0.0589603
v 0.0301705 -0.027764 0.0486938
v 0.0302377 -0.0227959 0.0508995
v 0.0293896 -0.0229095 -0.0546019
v 0.0269606 -0.026649 -0.0623061
v 0.0269606 -0.0198411 -0.0647948
v -0.0126079 0.0473754 -0.0528578
v 0.0272817 0.0451289 -0.0499315
v 0.0274092 0.0406043 -0.0533203
v 0.0274981 0.035822 -0.0563944
v 0.02785 0.0351551 -0.055215
v 0.0275264 0.0453159 -0.0490288
v 0.0277293 0.0403149 -0.0521869
v 0.0269017 0.00914013 -0.0672072
v 0.027038 0.0164345 -0.0656434
v 0.0273941 0.0162662 -0.0650647
v -0.0127685 0.0751657 -0.0390474
v 0.027043 0.0756428 -0.035579
v 0.0271945 0.069572 -0.0367716
v 0.0272693 -0.0505395 0.0444425
v 0.0269606 -0.0507797 0.0448633
v 0.0269606 -0.0556616 0.0386479
v -0.0127872 -0.0506449 0.0496954
v -0.0127706 -0.0587497 0.0397815
v 0.0300993 0.100873 -0.0357587
v 0.029546 0.106262 -0.0368745
v 0.0288169 0.109146 -0.037531
v 0.0269606 -0.0135489 -0.0663927
v 0.0270735 -0.00551706 -0.0673878
v 0.029696 -0.00696993 -0.0575551
v 0.029347 0.105745 -0.037218
v 0.0272407 0.112125 -0.0389251
v 0.0241001 0.116952 -0.0405217
v 0.0298638 -0.0556275 -0.0137064
v 0.0299251 -0.0564257 -0.00834429
v 0.0272693 -0.0667098 -0.008892
v 0.0338693 0.0976089 0.0279667
v 0.0307811 0.100548 0.0409297
v 0.0272693 0.00401014 0.0671896
v 0.0274981 0.00381744 0.0666988
v 0.0282097 0.0861576 0.0457752
v 0.00724101 0.128831 0.0324826
v 0.0281025 0.112159 0.03792
v 0.0172288 0.125041 0.0329068
v 0.027424 -0.0032798 0.0668995
v 0.0272693 -0.0449099 0.050134
v 0.0269606 -0.0450675 0.0506149
v 0.0300773 -0.0443259 0.0349113
v 0.0300797 -0.0421864 0.0374611
v 0.0300813 -0.052295 0.0211535
v 0.0300819 -0.0501494 0.0258182
v 0.0272693 -0.059631 0.0312214
v 0.0300782 -0.0474062 0.0305846
v 0.0272693 -0.0554135 0.0381936
v 0.0272693 -0.0672956 -0.00070091
v 0.0269606 -0.0677555 -0.000662599
v 0.0269606 -0.0671707 -0.00891638
v 0.0269302 -0.065606 -0.017148
v 0.0272693 -0.0651324 -0.0170009
v 0.0271673 -0.0626972 -0.024914
v 0.0297543 -0.0534098 -0.0219368
v 0.0271245 -0.0594191 -0.0321077
v 0.0296412 -0.0503254 -0.0292236
v 0.0271245 -0.0549743 -0.0392489
v -0.0129841 -0.0245512 -0.0666182
v 0.0265805 -0.0198125 -0.0652225
v 0.0265805 -0.0263806 -0.0628672
v 0.029555 -0.0123507 -0.0572232
v 0.0294557 -0.0177264 -0.0562212
v 0.0271245 0.00170267 -0.0675185
v 0.0298687 -0.00160759 -0.0572415
v 0.0309411 0.0238078 -0.0470001
v 0.030821 0.0186626 -0.050016
v 0.011702 0.130492 0.0173783
v 0.0115105 0.128318 0.030005
v 0.0274439 0.114961 0.0342064
v 0.0288974 0.111748 0.0356461
v 0.0321211 0.110795 0.0238173
v 0.0326444 0.101682 -0.0260623
v 0.0181852 0.122419 -0.0424864
v 0.0128111 0.125174 -0.0437087
v -0.0127647 0.131801 -0.0353432
v 0.00706803 0.13057 -0.0339146
v 0.0056858 0.127719 -0.0441622
v -0.0127482 -0.0692342 0.0155204
v 0.0269606 -0.0658047 0.0161802
v 0.0269606 -0.0633462 0.0240481
v 0.0278406 0.0864512 -0.0342985
v 0.0304227 0.106005 0.0383901
v 0.0336641 0.104382 0.0260932
v 0.0267789 0.00168985 -0.0679521
v -0.0128963 -0.00204504 -0.070951
v -0.0128037 0.0100124 -0.0702548
v 0.0116759 0.127699 0.0323781
v 0.0169518 0.125863 0.0303847
v -0.0127725 -0.0700356 -0.011378
v 0.00732433 0.129362 0.0301095
v 0.0295403 0.107597 0.0399988
v 0.0304207 0.101202 0.0420267
v 0.0285762 0.10894 -0.0379742
v 0.0269313 0.0804875 -0.0350839
v 0.00586652 0.126854 -0.0447198
v -0.0129998 0.127953 -0.0460423
v 0.0272548 0.0858849 -0.0349247
v 0.00633984 0.131703 0.0174642
v 0.0271943 0.0567969 -0.0419963
v 0.0274365 0.0571216 -0.0412891
v 0.0274364 0.0509666 -0.0450074
v 0.0309296 0.0341426 -0.0402104
v 0.0309457 0.0291526 -0.0438057
v 0.0297149 0.101163 -0.0362899
v -0.0126448 0.0046491 0.0708167
v 0.0213946 0.121894 0.0337966
v 0.0241362 0.118953 0.0348735
v -0.0129998 0.132828 0.0192174
v -0.0129998 0.130625 0.0310493
v 0.0246659 0.119189 0.0324742
v 0.0262837 0.115841 0.0361949
v 0.0297685 0.0932348 0.0437595
v 0.0274368 0.0700549 -0.0361499
v 0.0274366 0.0635862 -0.0383121
v 0.0306152 0.0637195 -0.0247621
v 0.0304828 0.0574687 -0.0276409
v 0.0304059 0.0512055 -0.0309838
v 0.0274981 0.0233782 -0.0625685
v 0.0306203 0.0141805 -0.0523426
v 0.0269749 -0.0112179 0.0668102
v -0.0127174 -0.00722718 0.0705869
v -0.0127689 -0.0190358 0.0683517
v 0.0269606 -0.0330349 -0.0591589
v 0.0271942 0.0506915 -0.0457667
v 0.0306591 0.0416467 -0.035797
v 0.0283018 0.0913804 -0.0350779
v -0.0125231 0.0395488 -0.0589136
v 0.0271245 -0.00353628 0.0674428
v -0.0129532 -0.0133163 -0.0697012
v 0.0265805 -0.0126757 -0.0669715
v -0.0126883 0.0217223 -0.0675402
v 0.0310449 0.081834 0.0329417
v 0.030854 0.00223553 0.0531766
v 0.0273941 -0.0112821 0.0661048
v -0.0127548 -0.0709218 0.00209278
v 0.0265805 -0.00535208 -0.0679637
v 0.0305369 -0.00948071 0.0537283
v 0.0307335 -0.00326979 0.0536697
v 0.0272693 -0.025724 0.0621918
v 0.030435 -0.0132492 0.0533505
v 0.0303993 -0.0146422 0.0531337
v 0.0272693 -0.039162 0.0547341
v 0.0301242 -0.0323943 0.0459694
v 0.0300807 -0.0406032 0.0391554
v 0.0269606 -0.0599831 0.0315356
v 0.0272693 -0.0629573 0.0237772
v 0.0272891 -0.0653445 0.0159548
v 0.0269606 -0.0673311 0.00771248
v 0.0272741 -0.0668875 0.00748944
v 0.0300687 -0.0549546 0.0129583
v 0.0300472 -0.0560794 0.00730115
v 0.029976 -0.0567492 -0.00302613
v 0.0267789 -0.063153 -0.0251289
v 0.0270025 -0.0511057 -0.0444264
v 0.0267654 -0.0554551 -0.0393359
v 0.0267789 -0.0597848 -0.0323406
v 0.0269606 -0.0450773 -0.0505959
v 0.0265805 -0.0508212 -0.0454236
v 0.0265805 -0.0395168 -0.0555447
v 0.0265805 -0.0331018 -0.0595833
v 0.029513 -0.0455631 -0.0370269
v 0.0294339 -0.041107 -0.0423742
v 0.0272693 0.00852662 -0.0667555
v 0.0300869 0.00379324 -0.0562609
v -0.0129106 -0.0538703 -0.0462406
v -0.0129493 -0.0448071 -0.055042
v 0.0265805 -0.0452509 -0.050983
v -0.0129785 -0.035137 -0.0616538
v -0.0128592 -0.0611719 -0.0359792
v -0.0128108 -0.0666855 -0.0242497
v -0.0127561 -0.0650796 0.0282639
v -0.0127943 -0.0303034 0.0641864
v -0.0129998 0.128847 -0.0454135
v 0.0294924 -0.0446153 -0.0382938
f 1 2 3
f 4 5 6
f 7 8 9
f 10 11 12
f 13 14 15
f 16 17 18
f 19 2 20
f 21 22 23
f 21 24 25
f 26 27 15
f 28 29 30
f 31 32 33
f 1 18 17
f 34 35 13
f 5 36 37
f 38 4 20
f 33 32 39
f 40 41 42
f 43 20 2
f 44 45 46
f 47 48 49
f 50 51 52
f 53 54 55
f 56 57 39
f 54 58 59
f 60 61 62
f 63 64 65
f 66 67 68
f 67 69 70
f 8 7 71
f 71 72 16
f 72 73 17
f 74 75 76
f 77 72 71
f 78 79 4
f 80 81 82
f 35 83 84
f 85 86 87
f 88 89 90
f 91 86 85
f 92 93 67
f 66 94 95
f 96 97 98
f 99 100 98
f 101 102 103
f 82 103 104
f 105 106 107
f 107 106 108
f 109 108 110
f 111 112 113
f 114 115 52
f 75 116 117
f 39 118 119
f 19 120 121
f 122 123 124
f 125 16 124
f 126 127 36
f 93 45 44
f 128 129 130
f 120 19 6
f 83 35 9
f 131 132 133
f 134 9 25
f 25 9 35
f 123 135 136
f 137 138 139
f 140 90 141
f 142 104 103
f 121 143 88
f 135 144 145
f 146 78 38
f 73 38 43
f 84 145 14
f 136 83 8
f 21 64 147
f 146 73 72
f 130 148 149
f 150 134 24
f 151 129 128
f 83 136 135
f 152 153 154
f 129 37 36
f 141 3 2
f 59 155 156
f 79 157 127
f 88 145 144
f 79 126 5
f 27 26 158
f 89 88 144
f 22 25 34
f 159 89 160
f 14 88 26
f 161 162 143
f 90 159 3
f 120 151 143
f 163 122 18
f 163 3 159
f 123 89 144
f 122 163 160
f 122 164 89
f 87 165 15
f 151 120 37
f 65 166 167
f 166 23 168
f 55 59 57
f 153 169 170
f 171 119 172
f 173 174 175
f 50 10 176
f 177 154 58
f 154 170 178
f 179 7 134
f 31 180 56
f 158 174 181
f 182 183 112
f 167 168 169
f 58 178 155
f 139 184 61
f 185 34 165
f 26 15 14
f 178 186 155
f 157 71 7
f 88 14 145
f 89 164 160
f 159 90 89
f 40 152 177
f 187 173 29
f 102 188 142
f 189 183 182
f 56 180 55
f 54 53 177
f 42 41 65
f 190 191 91
f 191 186 86
f 192 30 46
f 193 187 28
f 192 49 194
f 47 46 45
f 195 196 48
f 92 197 196
f 197 92 66
f 100 68 198
f 98 198 133
f 199 133 132
f 200 132 201
f 202 201 102
f 199 200 203
f 200 202 204
f 205 101 82
f 204 202 101
f 106 105 104
f 108 106 206
f 207 110 208
f 108 209 208
f 210 207 211
f 212 12 210
f 213 176 12
f 214 110 207
f 213 113 51
f 113 112 52
f 210 12 11
f 207 210 215
f 112 183 74
f 183 189 75
f 189 137 116
f 61 33 171
f 137 60 216
f 116 216 217
f 195 45 93
f 187 91 181
f 57 156 118
f 184 33 61
f 218 211 208
f 219 212 220
f 221 213 212
f 222 208 209
f 223 206 104
f 102 201 188
f 201 132 131
f 224 133 198
f 198 68 70
f 67 93 69
f 42 167 153
f 225 46 30
f 174 173 181
f 148 130 36
f 113 213 221
f 220 211 218
f 209 206 223
f 217 216 62
f 175 225 30
f 137 189 138
f 64 21 166
f 88 143 162
f 87 86 186
f 41 40 158
f 1 3 163
f 4 6 20
f 7 9 134
f 10 12 176
f 13 15 165
f 16 18 124
f 19 20 6
f 21 23 166
f 21 25 22
f 28 30 192
f 31 33 184
f 1 17 43
f 34 13 165
f 5 37 6
f 38 20 43
f 33 39 171
f 40 42 152
f 43 2 1
f 44 46 225
f 47 49 192
f 50 52 115
f 53 55 180
f 56 39 32
f 54 59 55
f 60 62 216
f 63 65 41
f 66 68 100
f 67 70 68
f 8 71 125
f 71 16 125
f 72 17 16
f 74 76 114
f 77 71 157
f 78 4 38
f 80 82 105
f 35 84 13
f 85 87 27
f 88 90 140
f 91 85 181
f 92 67 66
f 94 100 99
f 100 94 66
f 96 98 199
f 99 98 97
f 101 103 82
f 82 104 105
f 105 107 80
f 107 108 109
f 109 110 214
f 114 52 74
f 75 117 76
f 39 119 171
f 19 121 141
f 122 124 18
f 125 124 136
f 126 36 5
f 93 44 69
f 128 130 226
f 120 6 37
f 83 9 8
f 131 133 224
f 134 25 24
f 25 35 34
f 123 136 124
f 137 139 60
f 140 141 121
f 121 88 140
f 135 145 84
f 146 38 73
f 73 43 17
f 84 14 13
f 136 8 125
f 21 147 24
f 146 72 77
f 130 149 226
f 150 24 147
f 151 128 161
f 83 135 84
f 152 154 177
f 129 36 130
f 141 2 19
f 59 156 57
f 148 63 149
f 63 147 64
f 150 63 179
f 179 148 157
f 63 148 179
f 63 150 147
f 127 157 148
f 79 127 126
f 146 77 78
f 78 157 79
f 157 78 77
f 79 5 4
f 27 158 85
f 22 34 185
f 161 143 151
f 90 3 141
f 120 143 121
f 163 18 1
f 163 159 160
f 123 144 135
f 122 160 164
f 122 89 123
f 87 15 27
f 151 37 129
f 65 167 42
f 166 168 167
f 55 57 56
f 153 170 154
f 171 172 62
f 173 175 29
f 50 176 51
f 177 58 54
f 154 178 58
f 179 134 150
f 31 56 32
f 158 181 85
f 182 112 111
f 167 169 153
f 58 155 59
f 139 61 60
f 185 165 87
f 109 119 107
f 107 119 80
f 109 172 119
f 80 118 81
f 81 118 205
f 80 119 118
f 205 118 204
f 204 118 203
f 203 186 96
f 96 186 97
f 97 186 99
f 99 191 94
f 186 191 99
f 94 191 95
f 95 191 197
f 197 191 196
f 196 191 48
f 191 190 48
f 48 190 49
f 49 193 194
f 190 193 49
f 186 169 185
f 185 23 22
f 185 168 23
f 227 172 214
f 214 172 109
f 11 172 215
f 215 172 227
f 50 172 10
f 10 172 11
f 114 117 115
f 115 217 50
f 117 217 115
f 117 114 76
f 172 50 217
f 155 186 156
f 156 186 118
f 169 186 170
f 170 186 178
f 203 118 186
f 185 169 168
f 157 7 179
f 40 177 53
f 187 29 28
f 102 142 103
f 189 182 138
f 190 91 187
f 191 86 91
f 192 46 47
f 187 193 190
f 193 28 194
f 192 194 28
f 47 45 195
f 195 48 47
f 92 196 195
f 197 66 95
f 100 198 98
f 98 133 199
f 199 132 200
f 200 201 202
f 202 102 101
f 199 203 96
f 200 204 203
f 205 82 81
f 204 101 205
f 106 104 206
f 108 206 209
f 207 208 211
f 108 208 110
f 210 211 220
f 212 210 220
f 213 12 212
f 214 207 227
f 213 51 176
f 113 52 51
f 210 11 215
f 207 215 227
f 112 74 52
f 183 75 74
f 189 116 75
f 61 171 62
f 137 216 116
f 116 217 117
f 195 93 92
f 187 181 173
f 57 118 39
f 218 208 222
f 221 212 219
f 223 104 142
f 201 131 188
f 198 70 224
f 42 153 152
f 148 36 127
f 113 221 111
f 220 218 219
f 209 223 222
f 217 62 172
f 175 30 29
f 64 166 65
f 88 162 26
f 87 186 185
f 128 63 161
f 161 63 162
f 162 63 26
f 26 63 158
f 158 53 174
f 174 53 175
f 175 44 225
f 44 175 69
f 69 175 70
f 175 184 70
f 70 131 224
f 131 142 188
f 142 184 223
f 223 221 222
f 184 182 223
f 222 219 218
f 219 222 221
f 221 182 111
f 182 139 138
f 184 139 182
f 184 180 31
f 184 175 180
f 180 175 53
f 221 223 182
f 131 184 142
f 70 184 131
f 149 128 226
f 63 128 149
f 63 41 158
f 53 158 40
