v 0.0272507 -0.11965 0.0204224
v 0.0217397 -0.122326 0.0313765
v 0.0224352 -0.12462 0.0187389
v 0.0244226 -0.117237 -0.0399657
v 0.0205472 -0.124938 -0.0312727
v 0.0183772 -0.123 -0.0418945
v 0.0288334 -0.0917588 -0.0346275
v 0.0310837 -0.089155 -0.0241681
v 0.032163 -0.0943758 -0.0251107
v 0.0293593 0.0326145 -0.0495724
v 0.0269606 0.0387723 -0.0555688
v 0.0293843 0.0370384 -0.0462247
v 0.0304975 -0.097287 0.0424883
v 0.0294871 -0.0933869 0.0444829
v 0.0303084 -0.0979044 0.0430382
v 0.0321086 -0.106953 -0.0263948
v 0.0307342 -0.114064 0.0225077
v 0.0314617 -0.109945 -0.0265082
v 0.017332 -0.128084 0.017796
v 0.0265357 -0.119281 -0.028887
v 0.0273343 -0.0763912 -0.0349627
v 0.0306557 -0.0698217 -0.0229136
v 0.0304702 -0.0757248 -0.0225534
v 0.0302948 -0.0821467 -0.0232613
v 0.027322 -0.0816948 -0.0345212
v -0.0129998 -0.130085 0.0334266
v 0.0279968 -0.0863668 0.0463525
v 0.0272693 0.0185547 0.0646923
v 0.0269606 0.0257267 0.062686
v 0.0269606 0.0184742 0.0651959
v -0.0125571 -0.0328744 -0.0628844
v 0.0272693 -0.0237408 -0.0629708
v 0.0273941 -0.0308388 -0.0595522
v 0.0324111 -0.0902539 0.0306187
v 0.0334219 -0.09454 0.0294078
v 0.0141703 -0.12854 -0.0327938
v 0.0130286 -0.125808 -0.0431421
v 0.0275719 -0.112211 -0.038383
v 0.0276849 -0.0302519 -0.0587991
v -0.0126644 -0.0569352 -0.0460007
v 0.0271944 -0.0631759 -0.0389828
v -0.0126814 -0.067436 -0.0411878
v 0.0301488 -0.11354 -0.026976
v -0.0127967 0.0411793 0.0578031
v 0.0269606 0.0324447 0.0594985
v 0.0269358 0.039128 0.0553538
v 0.0272693 0.0324602 0.0589603
v 0.0302377 0.0227959 0.0508995
v 0.0301705 0.027764 0.0486938
v 0.0293896 0.0229095 -0.0546019
v 0.0269606 0.0198411 -0.0647948
v 0.0269606 0.026649 -0.0623061
v -0.0126079 -0.0473754 -0.0528578
v 0.0274092 -0.0406043 -0.0533203
v 0.0272817 -0.0451289 -0.0499315
v 0.0274981 -0.035822 -0.0563944
v 0.02785 -0.0351551 -0.055215
v 0.0277293 -0.0403149 -0.0521869
v 0.0275264 -0.0453159 -0.0490288
v 0.0269017 -0.00914014 -0.0672072
v 0.0273941 -0.0162662 -0.0650647
v 0.027038 -0.0164345 -0.0656434
v -0.0127685 -0.0751657 -0.0390474
v 0.0271945 -0.069572 -0.0367716
v 0.027043 -0.0756428 -0.035579
v 0.0272693 0.0505395 0.0444425
v 0.0269606 0.0556616 0.0386479
v 0.0269606 0.0507797 0.0448633
v -0.0127706 0.0587497 0.0397815
v -0.0127872 0.0506449 0.0496954
v 0.0300993 -0.100873 -0.0357587
v 0.029546 -0.106263 -0.0368745
v 0.0288168 -0.109146 -0.037531
v 0.0269606 0.0135489 -0.0663927
v 0.029696 0.00696992 -0.0575551
v 0.0270735 0.00551706 -0.0673878
v 0.029347 -0.105745 -0.037218
v 0.0272407 -0.112125 -0.0389251
v 0.0241001 -0.116952 -0.0405217
v 0.0298638 0.0556275 -0.0137064
v 0.0272693 0.0667098 -0.008892
v 0.0299251 0.0564257 -0.00834429
v 0.0307811 -0.100548 0.0409297
v 0.0338693 -0.0976089 0.0279667
v 0.0272693 -0.00401015 0.0671896
v 0.0282097 -0.0861576 0.0457752
v 0.0274981 -0.00381744 0.0666988
v 0.00724098 -0.128831 0.0324826
v 0.0172288 -0.125041 0.0329068
v 0.0281025 -0.112159 0.03792
v 0.027424 0.0032798 0.0668995
v 0.0272693 0.0449099 0.050134
v 0.0269606 0.0450675 0.0506149
v 0.0300797 0.0421864 0.0374611
v 0.0300773 0.0443259 0.0349113
v 0.0300813 0.052295 0.0211535
v 0.0272693 0.059631 0.0312214
v 0.0300819 0.0501494 0.0258182
v 0.0300782 0.0474062 0.0305846
v 0.0272693 0.0554135 0.0381936
v 0.0272693 0.0672955 -0.00070091
v 0.0269606 0.0671707 -0.00891638
v 0.0269606 0.0677555 -0.000662599
v 0.0269302 0.065606 -0.017148
v 0.0272693 0.0651324 -0.0170009
v 0.0297544 0.0534098 -0.0219368
v 0.0271673 0.0626972 -0.024914
v 0.0271245 0.0594191 -0.0321077
v 0.0296412 0.0503254 -0.0292236
v 0.0271245 0.0549743 -0.0392489
v -0.0129841 0.0245512 -0.0666182
v 0.0265805 0.0263806 -0.0628672
v 0.0265805 0.0198125 -0.0652225
v 0.029555 0.0123507 -0.0572232
v 0.0294557 0.0177264 -0.0562212
v 0.0298687 0.00160759 -0.0572415
v 0.0271245 -0.00170267 -0.0675185
v 0.030821 -0.0186626 -0.050016
v 0.0309411 -0.0238078 -0.0470001
v 0.0115105 -0.128318 0.030005
v 0.011702 -0.130492 0.0173783
v 0.0274439 -0.114961 0.0342064
v 0.0321211 -0.110795 0.0238173
v 0.0288974 -0.111748 0.0356461
v 0.0326444 -0.101682 -0.0260623
v 0.0181852 -0.12242 -0.0424864
v 0.012811 -0.125174 -0.0437087
v -0.0127647 -0.131801 -0.0353432
v 0.00568578 -0.127719 -0.0441622
v 0.00706801 -0.13057 -0.0339146
v -0.0127482 0.0692342 0.0155204
v 0.0269606 0.0633462 0.0240481
v 0.0269606 0.0658047 0.0161802
v 0.0278406 -0.0864512 -0.0342985
v 0.0336641 -0.104382 0.0260932
v 0.0304227 -0.106005 0.0383901
v 0.0267789 -0.00168986 -0.0679521
v -0.0128037 -0.0100124 -0.0702548
v -0.0128963 0.00204504 -0.070951
v 0.0116759 -0.127699 0.0323781
v 0.0169518 -0.125863 0.0303847
v -0.0127725 0.0700356 -0.011378
v 0.00732431 -0.129362 0.0301095
v 0.0304206 -0.101202 0.0420267
v 0.0295403 -0.107597 0.0399988
v 0.0285762 -0.10894 -0.0379742
v 0.0269313 -0.0804875 -0.0350839
v -0.0129998 -0.127953 -0.0460423
v 0.0058665 -0.126854 -0.0447198
v 0.0272547 -0.0858849 -0.0349247
v 0.00633982 -0.131703 0.0174642
v 0.0271942 -0.0567969 -0.0419963
v 0.0274364 -0.0509666 -0.0450074
v 0.0274365 -0.0571216 -0.0412891
v 0.0309457 -0.0291526 -0.0438057
v 0.0309296 -0.0341426 -0.0402104
v 0.0297149 -0.101163 -0.0362899
v -0.0126448 -0.0046491 0.0708167
v 0.0213946 -0.121894 0.0337966
v 0.0241362 -0.118953 0.0348735
v -0.0129998 -0.132828 0.0192174
v -0.0129998 -0.130625 0.0310493
v 0.0246659 -0.119189 0.0324742
v 0.0262837 -0.115841 0.0361949
v 0.0297684 -0.0932348 0.0437595
v 0.0274366 -0.0635862 -0.0383121
v 0.0274368 -0.0700549 -0.0361499
v 0.0306152 -0.0637195 -0.0247621
v 0.0304059 -0.0512055 -0.0309838
v 0.0304827 -0.0574687 -0.0276409
v 0.0274981 -0.0233782 -0.0625685
v 0.0306203 -0.0141805 -0.0523426
v 0.0269749 0.0112179 0.0668102
v -0.0127689 0.0190358 0.0683517
v -0.0127174 0.00722718 0.0705869
v 0.0269606 0.0330349 -0.0591589
v 0.0271942 -0.0506915 -0.0457667
v 0.0306591 -0.0416467 -0.035797
v 0.0283018 -0.0913804 -0.0350779
v -0.0125231 -0.0395488 -0.0589136
v 0.0271245 0.00353628 0.0674428
v -0.0129532 0.0133163 -0.0697012
v 0.0265805 0.0126757 -0.0669715
v -0.0126883 -0.0217223 -0.0675402
v 0.0310449 -0.081834 0.0329417
v 0.030854 -0.00223554 0.0531766
v 0.0273941 0.0112821 0.0661048
v -0.0127548 0.0709218 0.00209278
v 0.0265805 0.00535207 -0.0679637
v 0.0305369 0.00948071 0.0537283
v 0.0307335 0.00326978 0.0536697
v 0.0272693 0.025724 0.0621918
v 0.030435 0.0132492 0.0533505
v 0.0303993 0.0146422 0.0531337
v 0.0272693 0.039162 0.0547341
v 0.0301242 0.0323943 0.0459694
v 0.0300807 0.0406032 0.0391554
v 0.0269606 0.0599831 0.0315356
v 0.0272693 0.0629573 0.0237772
v 0.0272891 0.0653445 0.0159548
v 0.0269606 0.0673311 0.00771248
v 0.0272741 0.0668875 0.00748944
v 0.0300687 0.0549546 0.0129583
v 0.0300472 0.0560794 0.00730115
v 0.029976 0.0567492 -0.00302613
v 0.0267789 0.063153 -0.0251289
v 0.0270025 0.0511057 -0.0444264
v 0.0267654 0.0554551 -0.0393359
v 0.0267789 0.0597848 -0.0323406
v 0.0269606 0.0450773 -0.0505959
v 0.0265805 0.0508212 -0.0454236
v 0.0265805 0.0395168 -0.0555447
v 0.0265805 0.0331018 -0.0595833
v 0.029513 0.0455631 -0.0370269
v 0.0294339 0.041107 -0.0423742
v 0.0272693 -0.00852663 -0.0667555
v 0.0300869 -0.00379324 -0.0562609
v -0.0129106 0.0538703 -0.0462406
v -0.0129493 0.0448071 -0.055042
v 0.0265805 0.0452509 -0.050983
v -0.0129785 0.035137 -0.0616538
v -0.0128592 0.0611719 -0.0359792
v -0.0128107 0.0666855 -0.0242497
v -0.0127561 0.0650796 0.0282639
v -0.0127943 0.0303034 0.0641864
v -0.0129998 -0.128847 -0.0454135
v 0.0294924 0.0446153 -0.0382938
f 1 2 3
f 4 5 6
f 7 8 9
f 10 11 12
f 13 14 15
f 16 17 18
f 19 20 3
f 21 22 23
f 21 24 25
f 26 14 27
f 28 29 30
f 31 32 33
f 1 18 17
f 34 13 35
f 6 36 37
f 38 20 4
f 32 39 33
f 40 41 42
f 43 3 20
f 44 45 46
f 47 48 49
f 50 51 52
f 53 54 55
f 56 39 57
f 55 58 59
f 60 61 62
f 63 64 65
f 66 67 68
f 68 69 70
f 9 71 7
f 71 16 72
f 72 18 73
f 74 75 76
f 77 71 72
f 78 4 79
f 80 81 82
f 35 83 84
f 85 86 87
f 88 89 90
f 91 85 87
f 92 68 93
f 66 94 95
f 96 97 98
f 99 97 100
f 101 102 103
f 81 104 102
f 105 106 107
f 106 108 107
f 109 110 108
f 111 112 113
f 114 51 115
f 76 116 117
f 39 118 119
f 19 120 121
f 122 123 124
f 125 123 16
f 126 37 127
f 93 44 46
f 128 129 130
f 121 5 19
f 84 8 35
f 131 132 133
f 134 24 8
f 24 35 8
f 124 135 136
f 137 138 139
f 140 141 89
f 142 102 104
f 120 88 143
f 136 144 145
f 146 38 78
f 73 43 38
f 83 15 144
f 135 9 84
f 21 147 65
f 146 72 73
f 129 148 149
f 150 25 134
f 151 128 130
f 84 136 135
f 152 153 154
f 130 37 36
f 141 3 2
f 58 155 156
f 79 127 157
f 88 145 144
f 79 6 126
f 27 158 26
f 90 145 88
f 23 34 24
f 159 160 90
f 15 26 88
f 161 143 162
f 89 2 159
f 121 143 151
f 163 17 122
f 163 159 2
f 124 145 90
f 122 160 163
f 122 90 164
f 86 14 165
f 151 36 121
f 64 166 167
f 167 168 22
f 54 57 58
f 154 169 170
f 171 172 118
f 173 174 175
f 50 176 10
f 177 59 153
f 153 178 169
f 179 134 7
f 31 56 180
f 158 181 175
f 182 113 183
f 166 170 168
f 59 156 178
f 138 62 184
f 185 165 34
f 26 15 14
f 178 156 186
f 157 7 71
f 88 144 15
f 90 160 164
f 159 90 89
f 40 177 152
f 187 30 173
f 103 142 188
f 189 182 183
f 56 54 180
f 55 177 53
f 41 64 42
f 190 91 191
f 191 87 186
f 192 45 29
f 193 28 187
f 192 194 48
f 47 46 45
f 195 49 196
f 92 196 197
f 197 66 92
f 100 198 67
f 97 132 198
f 199 133 132
f 200 201 133
f 202 103 201
f 199 203 200
f 200 204 202
f 205 81 101
f 204 101 202
f 107 104 105
f 108 206 107
f 207 208 110
f 108 208 209
f 210 211 207
f 212 210 11
f 213 11 176
f 214 207 110
f 213 52 112
f 112 51 113
f 210 12 11
f 207 215 210
f 113 74 183
f 183 76 189
f 189 117 137
f 62 171 32
f 137 216 60
f 117 217 216
f 195 93 46
f 187 181 91
f 57 119 155
f 184 62 32
f 218 208 211
f 219 220 212
f 221 212 213
f 222 209 208
f 223 104 206
f 103 188 201
f 201 131 133
f 224 198 132
f 198 69 67
f 68 70 93
f 41 154 166
f 225 29 45
f 175 181 173
f 149 37 129
f 112 221 213
f 220 218 211
f 209 223 206
f 217 61 216
f 174 29 225
f 137 139 189
f 65 167 21
f 88 162 143
f 86 186 87
f 42 158 40
f 1 163 2
f 4 20 5
f 7 134 8
f 10 176 11
f 13 165 14
f 16 123 17
f 19 5 20
f 21 167 22
f 21 23 24
f 28 192 29
f 31 184 32
f 1 43 18
f 34 165 13
f 6 5 36
f 38 43 20
f 32 171 39
f 40 152 41
f 43 1 3
f 44 225 45
f 47 192 48
f 50 115 51
f 53 180 54
f 56 33 39
f 55 54 58
f 60 216 61
f 63 42 64
f 66 100 67
f 68 67 69
f 9 125 71
f 71 125 16
f 72 16 18
f 74 114 75
f 77 157 71
f 78 38 4
f 80 105 81
f 35 13 83
f 85 27 86
f 88 140 89
f 91 181 85
f 92 66 68
f 95 99 100
f 100 66 95
f 96 199 97
f 99 98 97
f 101 81 102
f 81 105 104
f 105 80 106
f 106 109 108
f 109 214 110
f 114 74 51
f 76 75 116
f 39 171 118
f 19 141 120
f 122 17 123
f 125 135 123
f 126 6 37
f 93 70 44
f 128 226 129
f 121 36 5
f 84 9 8
f 131 224 132
f 134 25 24
f 24 34 35
f 124 123 135
f 137 60 138
f 140 120 141
f 120 140 88
f 136 83 144
f 146 73 38
f 73 18 43
f 83 13 15
f 135 125 9
f 21 25 147
f 146 77 72
f 129 226 148
f 150 147 25
f 151 161 128
f 84 83 136
f 152 177 153
f 130 129 37
f 141 19 3
f 58 57 155
f 149 148 63
f 63 65 147
f 150 179 63
f 179 157 149
f 63 179 149
f 63 147 150
f 127 149 157
f 79 126 127
f 146 78 77
f 78 79 157
f 157 77 78
f 79 4 6
f 27 85 158
f 23 185 34
f 161 151 143
f 89 141 2
f 121 120 143
f 163 1 17
f 163 160 159
f 124 136 145
f 122 164 160
f 122 124 90
f 86 27 14
f 151 130 36
f 64 41 166
f 167 166 168
f 54 56 57
f 154 153 169
f 171 61 172
f 173 30 174
f 50 52 176
f 177 55 59
f 153 59 178
f 179 150 134
f 31 33 56
f 158 85 181
f 182 111 113
f 166 154 170
f 59 58 156
f 138 60 62
f 185 86 165
f 109 106 118
f 106 80 118
f 109 118 172
f 80 82 119
f 82 205 119
f 80 119 118
f 205 204 119
f 204 203 119
f 203 96 186
f 96 98 186
f 98 99 186
f 99 95 191
f 186 99 191
f 95 94 191
f 94 197 191
f 197 196 191
f 196 49 191
f 191 49 190
f 49 48 190
f 48 194 193
f 190 48 193
f 186 185 170
f 185 23 22
f 185 22 168
f 227 214 172
f 214 109 172
f 12 215 172
f 215 227 172
f 50 10 172
f 10 12 172
f 114 115 116
f 115 50 217
f 116 115 217
f 116 75 114
f 172 217 50
f 156 155 186
f 155 119 186
f 170 169 186
f 169 178 186
f 203 186 119
f 185 168 170
f 157 179 7
f 40 53 177
f 187 28 30
f 103 102 142
f 189 139 182
f 190 187 91
f 191 91 87
f 192 47 45
f 187 190 193
f 193 194 28
f 192 28 194
f 47 195 46
f 195 47 49
f 92 195 196
f 197 94 66
f 100 97 198
f 97 199 132
f 199 200 133
f 200 202 201
f 202 101 103
f 199 96 203
f 200 203 204
f 205 82 81
f 204 205 101
f 107 206 104
f 108 209 206
f 207 211 208
f 108 110 208
f 210 220 211
f 212 220 210
f 213 212 11
f 214 227 207
f 213 176 52
f 112 52 51
f 210 215 12
f 207 227 215
f 113 51 74
f 183 74 76
f 189 76 117
f 62 61 171
f 137 117 216
f 117 116 217
f 195 92 93
f 187 173 181
f 57 39 119
f 218 222 208
f 221 219 212
f 223 142 104
f 201 188 131
f 198 224 69
f 41 152 154
f 149 127 37
f 112 111 221
f 220 219 218
f 209 222 223
f 217 172 61
f 174 30 29
f 65 64 167
f 88 26 162
f 86 185 186
f 128 161 63
f 161 162 63
f 162 26 63
f 26 158 63
f 158 175 53
f 175 174 53
f 174 225 44
f 44 70 174
f 70 69 174
f 174 69 184
f 69 224 131
f 131 188 142
f 142 223 184
f 223 222 221
f 184 223 182
f 222 218 219
f 219 221 222
f 221 111 182
f 182 139 138
f 184 182 138
f 184 31 180
f 184 180 174
f 180 53 174
f 221 182 223
f 131 142 184
f 69 131 184
f 148 226 128
f 63 148 128
f 63 158 42
f 53 40 158
