v -0.0363292 0.0500632 0.0047
v -0.0349851 0.0488192 0.0047
v -0.0349851 0.0488192 -0.0047
v -0.0373318 0.0515958 0.0047
v -0.0363292 0.0500632 -0.0047
v -0.0379331 0.0533257 0.0047
v -0.0373318 0.0515958 -0.0047
v -0.0380971 0.0551498 0.0047
v -0.0379331 0.0533257 -0.0047
v -0.0378142 0.0569592 0.0047
v -0.0380971 0.0551498 -0.0047
v -0.0371012 0.0586462 0.0047
v -0.0378142 0.0569592 -0.0047
v -0.0360005 0.06011 0.0047
v -0.0371012 0.0586462 -0.0047
v -0.0360005 0.06011 -0.0047
v -0.0365411 0.0596605 0.0047
v -0.0371668 0.0593399 0.0047
v -0.0365411 0.0596605 -0.0047
v -0.0378475 0.0591637 0.0047
v -0.0371668 0.0593399 -0.0047
v -0.0378475 0.0591637 -0.0047
v -0.0446213 0.0581868 -0.0047
v -0.0446213 0.0581868 0.0047
v -0.045364 0.0581668 0.0047
v -0.0460913 0.0583187 0.0047
v -0.045364 0.0581668 -0.0047
v -0.046764 0.0586342 0.0047
v -0.0460913 0.0583187 -0.0047
v -0.046764 0.0586342 -0.0047
v -0.0559884 0.064352 0.0047
v -0.0559884 0.064352 -0.0047
v -0.0562628 0.0644775 -0.0047
v -0.0562628 0.0644775 0.0047
v -0.0565598 0.0645305 -0.0047
v -0.0565598 0.0645305 0.0047
v -0.0568607 0.0645078 -0.0047
v -0.0568607 0.0645078 0.0047
v -0.0571464 0.0644107 -0.0047
v -0.0571464 0.0644107 0.0047
v -0.0573988 0.0642455 -0.0047
v -0.0573988 0.0642455 0.0047
v -0.0576021 0.0640225 -0.0047
v -0.0576021 0.0640225 0.0047
v -0.0577433 0.0637559 -0.0047
v -0.0577433 0.0637559 0.0047
v -0.0578135 0.0634624 -0.0047
v -0.0578135 0.0634624 0.0047
v -0.0578083 0.0631608 -0.0047
v -0.0578083 0.0631608 0.0047
v -0.0574007 0.0603346 -0.0047
v -0.0574007 0.0603346 0.0047
v -0.0573904 0.0594993 0.0047
v -0.0575966 0.0586897 0.0047
v -0.0573904 0.0594993 -0.0047
v -0.0580054 0.0579612 0.0047
v -0.0575966 0.0586897 -0.0047
v -0.0585887 0.0573633 0.0047
v -0.0580054 0.0579612 -0.0047
v -0.059307 0.0569367 0.0047
v -0.0585887 0.0573633 -0.0047
v -0.0601112 0.0567105 0.0047
v -0.059307 0.0569367 -0.0047
v -0.0601112 0.0567105 -0.0047
v -0.0628825 0.0563108 -0.0047
v -0.0628825 0.0563108 0.0047
v -0.0643142 0.0559188 -0.0047
v -0.0643142 0.0559188 0.0047
v -0.0656059 0.0551873 -0.0047
v -0.0656059 0.0551873 0.0047
v -0.0666785 0.054161 -0.0047
v -0.0666785 0.054161 0.0047
v -0.0674663 0.0529028 -0.0047
v -0.0674663 0.0529028 0.0047
v -0.067921 0.0514897 -0.0047
v -0.067921 0.0514897 0.0047
v -0.0680149 0.0500082 -0.0047
v -0.0680149 0.0500082 0.0047
v -0.0677423 0.048549 -0.0047
v -0.0677423 0.048549 0.0047
v -0.0671197 0.0472014 -0.0047
v -0.0671197 0.0472014 0.0047
v -0.0661853 0.0460479 -0.0047
v -0.0661853 0.0460479 0.0047
v -0.0649963 0.0451591 -0.0047
v -0.0649963 0.0451591 0.0047
v -0.0636255 0.0445894 -0.0047
v -0.0636255 0.0445894 0.0047
v -0.0621568 0.0443737 -0.0047
v -0.0621568 0.0443737 0.0047
v -0.0606801 0.0445252 -0.0047
v -0.0606801 0.0445252 0.0047
v -0.0592858 0.0450346 -0.0047
v -0.0592858 0.0450346 0.0047
v -0.0580592 0.0458707 -0.0047
v -0.0580592 0.0458707 0.0047
v -0.0373124 0.04939 -0.0047
v -0.0575593 0.046232 -0.0047
v -0.0569994 0.0464906 -0.0047
v -0.0564003 0.0466371 -0.0047
v -0.036496 0.0494025 -0.0047
v -0.035703 0.049208 -0.0047
v -0.0569994 0.0464906 0.0047
v -0.0575593 0.046232 0.0047
v -0.0373124 0.04939 0.0047
v -0.036496 0.0494025 0.0047
v -0.0564003 0.0466371 0.0047
v -0.035703 0.049208 0.0047
f 16 14 15
f 14 12 15
f 15 12 13
f 12 10 13
f 13 10 11
f 10 8 11
f 11 8 9
f 8 6 9
f 9 6 7
f 6 4 7
f 7 4 5
f 4 1 5
f 5 1 3
f 1 2 3
f 95 96 94
f 95 94 93
f 94 92 93
f 93 92 91
f 92 90 91
f 91 90 89
f 90 88 89
f 89 88 87
f 88 86 87
f 87 86 85
f 86 84 85
f 85 84 83
f 84 82 83
f 83 82 81
f 82 80 81
f 81 80 79
f 80 78 79
f 79 78 77
f 78 76 77
f 77 76 75
f 76 74 75
f 75 74 73
f 74 72 73
f 73 72 71
f 72 70 71
f 71 70 69
f 70 68 69
f 69 68 67
f 68 66 67
f 67 66 65
f 49 50 48
f 49 48 47
f 48 46 47
f 47 46 45
f 46 44 45
f 45 44 43
f 44 42 43
f 43 42 41
f 42 40 41
f 41 40 39
f 40 38 39
f 39 38 37
f 38 36 37
f 37 36 35
f 36 34 35
f 35 34 33
f 34 31 33
f 33 31 32
f 22 20 21
f 20 18 21
f 21 18 19
f 18 17 19
f 19 17 16
f 17 14 16
f 20 22 24
f 22 23 24
f 30 28 29
f 28 26 29
f 29 26 27
f 26 25 27
f 27 25 23
f 25 24 23
f 32 31 30
f 31 28 30
f 49 51 50
f 51 52 50
f 64 62 63
f 62 60 63
f 63 60 61
f 60 58 61
f 61 58 59
f 58 56 59
f 59 56 57
f 56 54 57
f 57 54 55
f 54 53 55
f 55 53 51
f 53 52 51
f 29 27 55
f 59 97 61
f 97 100 61
f 5 3 102
f 67 65 98
f 11 9 57
f 9 7 57
f 57 7 5
f 98 65 99
f 65 64 99
f 99 64 100
f 64 63 100
f 100 63 61
f 59 57 97
f 57 5 97
f 97 5 101
f 5 102 101
f 29 55 30
f 55 51 30
f 30 51 49
f 23 22 15
f 98 95 67
f 95 93 67
f 67 93 69
f 93 71 69
f 22 21 15
f 21 19 15
f 15 19 16
f 15 13 23
f 13 11 23
f 23 11 27
f 11 57 27
f 27 57 55
f 81 79 77
f 89 87 73
f 87 85 73
f 73 85 75
f 71 93 73
f 93 91 73
f 73 91 89
f 75 85 77
f 85 83 77
f 77 83 81
f 45 43 41
f 37 35 47
f 35 33 47
f 47 33 49
f 33 32 49
f 49 32 30
f 45 41 47
f 41 39 47
f 47 39 37
f 105 106 1
f 106 108 1
f 1 108 2
f 25 26 53
f 26 28 53
f 53 28 52
f 54 6 8
f 107 105 56
f 105 1 56
f 56 1 54
f 1 4 54
f 54 4 6
f 12 14 17
f 52 28 50
f 28 31 50
f 50 31 34
f 53 54 25
f 54 8 25
f 25 8 24
f 8 10 24
f 24 10 20
f 10 12 20
f 20 12 18
f 12 17 18
f 56 58 107
f 58 60 107
f 107 60 103
f 60 62 103
f 103 62 104
f 62 66 104
f 104 66 96
f 66 68 96
f 96 68 94
f 68 70 94
f 94 70 72
f 72 74 94
f 74 76 94
f 94 76 78
f 78 80 82
f 44 46 34
f 46 48 34
f 34 48 50
f 82 84 78
f 84 86 78
f 78 86 88
f 34 36 44
f 36 38 44
f 44 38 42
f 38 40 42
f 88 90 78
f 90 92 78
f 78 92 94
f 3 2 102
f 2 108 102
f 102 108 101
f 108 106 101
f 101 106 97
f 106 105 97
f 97 105 100
f 105 107 100
f 100 107 99
f 107 103 99
f 99 103 98
f 103 104 98
f 98 104 95
f 104 96 95
f 62 64 66
f 64 65 66
