v 0.238701 0.157035 4.17417e-10
v 0.238701 0.159239 -0.0208098
v 0.238701 0.163379 4.17417e-10
v 0.238701 0.153378 -0.0183821
v 0.238701 0.147451 -0.0384515
v 0.238701 0.142966 -0.0339656
v 0.238701 0.12981 -0.0502393
v 0.238701 0.127382 -0.0443782
v 0.238701 0.109 -0.0543787
v 0.238701 0.090618 -0.0443782
v 0.238701 0.0881902 -0.0502393
v 0.238701 0.0750344 -0.0339656
v 0.238701 0.0705485 -0.0384515
v 0.238701 0.0646218 -0.0183821
v 0.238701 0.0587607 -0.0208098
v 0.238701 0.0609654 4.17417e-10
v 0.238701 0.0546213 4.17417e-10
v 0.238701 0.0646218 0.018382
v 0.238701 0.0587607 0.0208098
v 0.238701 0.0750344 0.0339656
v 0.238701 0.0705484 0.0384515
v 0.238701 0.0906179 0.0443782
v 0.238701 0.0881902 0.0502393
v 0.238701 0.109 0.0543787
v 0.238701 0.109 0.0480346
v 0.238701 0.12981 0.0502393
v 0.238701 0.127382 0.0443782
v 0.238701 0.147452 0.0384515
v 0.2932 0.0646218 -0.0183821
v 0.238701 0.142966 0.0339656
v 0.238701 0.159239 0.0208098
v 0.238701 0.153378 0.018382
v 0.189201 0.159239 0.0208098
v 0.189201 0.12981 -0.0502393
v 0.189201 0.0587607 -0.0208098
v 0.189201 0.163379 2.5811e-09
v 0.189201 0.147452 0.0384515
v 0.189201 0.12981 0.0502393
v 0.189201 0.109 0.0543787
v 0.189201 0.0881902 0.0502393
v 0.189201 0.0705484 0.0384515
v 0.189201 0.0587607 0.0208098
v 0.189201 0.0546213 2.5811e-09
v 0.189201 0.0705485 -0.0384515
v 0.189201 0.0881902 -0.0502393
v 0.189201 0.109 -0.0543787
v 0.189201 0.147451 -0.0384515
v 0.189201 0.159239 -0.0208098
v 0.2932 0.0807933 0.0282067
v 0.304 0.0937347 0.0368538
v 0.2932 0.0937347 0.0368538
v 0.2932 0.109 0.0480346
v 0.238701 0.109 -0.0480346
v 0.2932 0.090618 -0.0443782
v 0.2932 0.0750344 0.0339656
v 0.2932 0.153378 0.018382
v 0.2932 0.127382 -0.0443782
v 0.2932 0.0609654 -1.96482e-09
v 0.2932 0.153378 -0.0183821
v 0.2932 0.127382 0.0443782
v 0.2932 0.0750344 -0.0339656
v 0.2932 0.0906179 0.0443782
v 0.2932 0.157035 -1.96482e-09
v 0.2932 0.109 -0.0480346
v 0.2932 0.0646218 0.018382
v 0.2932 0.142966 0.0339656
v 0.2932 0.142966 -0.0339656
v 0.2932 0.145854 -0.0152653
v 0.2932 0.14889 -1.96482e-09
v 0.2932 0.124265 -0.0368538
v 0.2932 0.137207 -0.0282067
v 0.2932 0.109 -0.0398903
v 0.2932 0.0937347 -0.0368538
v 0.2932 0.0721462 -0.0152653
v 0.2932 0.0807933 -0.0282067
v 0.2932 0.0721462 0.0152653
v 0.2932 0.0691097 -1.96482e-09
v 0.2932 0.124265 0.0368538
v 0.2932 0.109 0.0398903
v 0.2932 0.145854 0.0152653
v 0.2932 0.137207 0.0282067
v 0.304 0.0807933 0.0282067
v 0.304 0.0807933 -0.0282067
v 0.304 0.137207 -0.0282067
v 0.304 0.109 -0.0398903
v 0.304 0.109 0.0398903
v 0.304 0.0937347 -0.0368538
v 0.304 0.124265 0.0368538
v 0.304 0.137207 0.0282067
v 0.304 0.0721462 -0.0152653
v 0.304 0.145854 0.0152653
v 0.304 0.0691097 -2.4369e-09
v 0.304 0.145854 -0.0152653
v 0.304 0.14889 -2.4369e-09
v 0.304 0.0721462 0.0152653
v 0.304 0.124265 -0.0368538
f 1 2 3
f 4 5 2
f 6 7 5
f 8 9 7
f 9 10 11
f 11 12 13
f 13 14 15
f 15 16 17
f 17 18 19
f 19 20 21
f 21 22 23
f 22 24 23
f 25 26 24
f 27 28 26
f 12 29 14
f 30 31 28
f 32 3 31
f 33 34 35
f 33 3 36
f 28 33 37
f 26 37 38
f 24 38 39
f 23 39 40
f 21 40 41
f 19 41 42
f 17 42 43
f 15 43 35
f 13 35 44
f 11 44 45
f 9 45 46
f 7 46 34
f 5 34 47
f 2 47 48
f 3 48 36
f 49 50 51
f 22 52 25
f 53 54 10
f 18 55 20
f 30 56 32
f 6 57 8
f 14 58 16
f 1 59 4
f 25 60 27
f 10 61 12
f 20 62 22
f 32 63 1
f 8 64 53
f 16 65 18
f 27 66 30
f 4 67 6
f 68 63 69
f 68 67 59
f 70 67 71
f 72 57 70
f 73 64 72
f 73 61 54
f 74 61 75
f 74 58 29
f 76 58 77
f 76 55 65
f 51 55 49
f 51 52 62
f 78 52 79
f 78 66 60
f 80 66 81
f 69 56 80
f 82 83 84
f 70 85 72
f 51 86 79
f 72 87 73
f 79 88 78
f 73 83 75
f 78 89 81
f 75 90 74
f 81 91 80
f 74 92 77
f 69 93 68
f 80 94 69
f 77 95 76
f 68 84 71
f 76 82 49
f 71 96 70
f 1 4 2
f 4 6 5
f 6 8 7
f 8 53 9
f 9 53 10
f 11 10 12
f 13 12 14
f 15 14 16
f 17 16 18
f 19 18 20
f 21 20 22
f 22 25 24
f 25 27 26
f 27 30 28
f 12 61 29
f 30 32 31
f 32 1 3
f 33 36 48
f 48 47 34
f 34 46 45
f 45 44 35
f 35 43 42
f 42 41 40
f 40 39 38
f 38 37 33
f 33 48 34
f 34 45 35
f 35 42 40
f 40 38 35
f 38 33 35
f 33 31 3
f 28 31 33
f 26 28 37
f 24 26 38
f 23 24 39
f 21 23 40
f 19 21 41
f 17 19 42
f 15 17 43
f 13 15 35
f 11 13 44
f 9 11 45
f 7 9 46
f 5 7 34
f 2 5 47
f 3 2 48
f 49 82 50
f 22 62 52
f 53 64 54
f 18 65 55
f 30 66 56
f 6 67 57
f 14 29 58
f 1 63 59
f 25 52 60
f 10 54 61
f 20 55 62
f 32 56 63
f 8 57 64
f 16 58 65
f 27 60 66
f 4 59 67
f 68 59 63
f 68 71 67
f 70 57 67
f 72 64 57
f 73 54 64
f 73 75 61
f 74 29 61
f 74 77 58
f 76 65 58
f 76 49 55
f 51 62 55
f 51 79 52
f 78 60 52
f 78 81 66
f 80 56 66
f 69 63 56
f 84 93 94
f 94 91 89
f 89 88 86
f 86 50 82
f 82 95 92
f 92 90 83
f 83 87 85
f 85 96 84
f 84 94 89
f 89 86 82
f 82 92 83
f 83 85 84
f 84 89 82
f 70 96 85
f 51 50 86
f 72 85 87
f 79 86 88
f 73 87 83
f 78 88 89
f 75 83 90
f 81 89 91
f 74 90 92
f 69 94 93
f 80 91 94
f 77 92 95
f 68 93 84
f 76 95 82
f 71 84 96
