v 0.015 0.053 -0.015
v 0.015 0.053 -0.012
v 0.015 0.056 -0.012
v 0.015 0.056 -0.015
v 0.035 0.053 -0.015
v 0.035 0.056 -0.015
v 0.035 0.053 -0.012
v 0.035 0.056 -0.012
v 0.02 -0.00756066 -0.0195607
v 0.02 -0.00707403 -0.0198858
v 0.03 -0.00707403 -0.0198858
v 0.03 -0.00756066 -0.0195607
v 0.03 -0.0065 -0.02
v 0.02 -0.0065 -0.02
v 0.02 -0.00788582 -0.019074
v 0.02 -0.008 -0.0185
v 0.03 -0.00788582 -0.019074
v 0.03 -0.008 -0.0185
v 0.02 -0.0065 -0.015
v 0.02 -0.003 -0.015
v 0.02 -0.00502165 -0.0163451
v 0.02 -0.00461612 -0.0166161
v 0.02 -0.0055 -0.01625
v 0.02 -0.00425 -0.0175
v 0.02 -0.00434515 -0.0170216
v 0.02 -0.003 -0.02
v 0.02 -0.00597835 -0.0163451
v 0.02 -0.00707403 -0.0151142
v 0.02 -0.00638388 -0.0166161
v 0.02 -0.00756066 -0.0154393
v 0.02 -0.00665485 -0.0170216
v 0.02 -0.008 -0.0165
v 0.02 -0.00788582 -0.015926
v 0.02 -0.00675 -0.0175
v 0.02 -0.00461612 -0.0183839
v 0.02 -0.00434515 -0.0179784
v 0.02 -0.0055 -0.01875
v 0.02 -0.00502165 -0.0186549
v 0.02 -0.00597835 -0.0186549
v 0.02 -0.00638388 -0.0183839
v 0.02 -0.00665485 -0.0179784
v 0.03 -0.008 -0.0165
v 0.03 -0.00756066 -0.0154393
v 0.03 -0.00707403 -0.0151142
v 0.03 -0.0065 -0.015
v 0.03 -0.00788582 -0.015926
v 0.03 -0.00665485 -0.0179784
v 0.03 -0.00597835 -0.0186549
v 0.03 -0.00638388 -0.0183839
v 0.03 -0.00502165 -0.0186549
v 0.03 -0.00434515 -0.0179784
v 0.03 -0.00461612 -0.0183839
v 0.03 -0.0055 -0.01875
v 0.03 -0.00675 -0.0175
v 0.03 -0.00425 -0.0175
v 0.03 -0.00665485 -0.0170216
v 0.03 -0.00434515 -0.0170216
v 0.03 -0.00502165 -0.0163451
v 0.03 -0.00461612 -0.0166161
v 0.03 -0.00597835 -0.0163451
v 0.03 -0.00638388 -0.0166161
v 0.03 -0.0055 -0.01625
v 0.03 -0.003 -0.02
v 0.03 -0.003 -0.015
v -0.003 -0.003 -0.02
v -0.003 -0.003 0.003
v 0.053 -0.003 0.003
v 0.053 -0.003 -0.02
v 0.05 0.05 0
v 0 0.05 0
v 0 0.05 -0.02
v 0.05 0.05 -0.02
v 0.05 0 0
v 0.05 0 -0.02
v 0 0 0
v 0 0 -0.02
v 0.025 0 -0.02
v 0.0085 -0.003 -0.02
v 0.0415 -0.003 -0.02
v 0.053 0.053 -0.02
v -0.003 0.053 -0.02
v -0.003 0.053 0.003
v 0.053 0.053 0.003
f 1 2 3
f 3 4 1
f 5 1 4
f 4 6 5
f 7 5 6
f 6 8 7
f 2 7 8
f 8 3 2
f 4 3 8
f 8 6 4
f 9 10 11
f 9 11 12
f 13 11 10
f 13 10 14
f 9 12 15
f 16 15 17
f 17 18 16
f 15 12 17
f 19 20 21
f 21 20 22
f 23 19 21
f 24 25 20
f 25 22 20
f 20 26 24
f 19 23 27
f 28 29 30
f 29 28 19
f 29 31 32
f 32 33 29
f 31 34 32
f 29 33 30
f 19 27 29
f 35 36 26
f 37 38 14
f 26 38 35
f 14 39 37
f 14 38 26
f 36 24 26
f 40 39 14
f 34 41 16
f 41 40 16
f 34 16 32
f 15 40 9
f 40 15 16
f 10 9 40
f 40 14 10
f 32 16 18
f 18 42 32
f 43 44 28
f 43 28 30
f 44 45 19
f 44 19 28
f 43 30 33
f 42 46 33
f 33 32 42
f 46 43 33
f 47 41 34
f 48 39 40
f 49 40 41
f 50 38 37
f 51 36 35
f 52 35 38
f 53 37 39
f 34 54 47
f 40 49 48
f 49 41 47
f 37 53 50
f 35 52 51
f 52 38 50
f 53 39 48
f 36 55 24
f 56 54 34
f 57 25 24
f 58 21 22
f 59 22 25
f 60 27 23
f 56 31 29
f 61 29 27
f 62 23 21
f 24 55 57
f 22 59 58
f 59 25 57
f 23 62 60
f 29 61 56
f 61 27 60
f 62 21 58
f 56 34 31
f 36 51 55
f 13 63 50
f 50 63 52
f 53 13 50
f 55 51 63
f 51 52 63
f 63 64 55
f 13 53 48
f 11 49 12
f 49 11 13
f 49 47 18
f 18 17 49
f 47 54 18
f 49 17 12
f 13 48 49
f 59 57 64
f 62 58 45
f 64 58 59
f 45 60 62
f 45 58 64
f 57 55 64
f 61 60 45
f 54 56 42
f 56 61 42
f 54 42 18
f 61 43 46
f 61 46 42
f 61 44 43
f 61 45 44
f 64 20 19
f 19 45 64
f 65 26 20
f 66 20 67
f 20 66 65
f 63 68 64
f 64 67 20
f 67 64 68
f 69 70 71
f 71 72 69
f 73 69 72
f 72 74 73
f 75 73 74
f 74 76 75
f 70 75 76
f 76 71 70
f 77 26 78
f 13 14 77
f 77 79 63
f 80 74 72
f 74 80 68
f 79 77 74
f 80 72 71
f 26 77 14
f 76 81 71
f 81 76 65
f 71 81 80
f 78 76 77
f 74 68 79
f 77 63 13
f 65 76 78
f 81 65 66
f 66 82 81
f 80 5 7
f 5 80 1
f 83 7 2
f 7 83 80
f 1 81 2
f 81 1 80
f 2 82 83
f 82 2 81
f 68 80 83
f 83 67 68
f 66 67 83
f 83 82 66
f 69 73 75
f 75 70 69
