v 10.025 -38.1484 33
v 10.025 -38.1484 38
v 10.025 -36.1484 38
v 10.025 -36.1484 33
v 10.025 36.1484 33
v 10.025 36.1484 38
v 10.025 38.1484 38
v 10.025 38.1484 33
v 5.025 -36.1484 38
v 5.025 -38.1484 38
v 5.025 -38.1484 28
v 5.025 -36.1484 28
v 5.025 38.1484 38
v 5.025 36.1484 38
v 5.025 36.1484 28
v 5.025 38.1484 28
v 17.025 -36.1484 25.5
v 17.025 -36.1484 5.5
v 16.8347 -36.1484 26.4567
v 14.525 -36.1484 28
v -22.025 -36.1484 3
v 18.5683 -36.1484 3.1903
v 19.525 -36.1484 3
v 17.2153 -36.1484 4.54329
v 17.7572 -36.1484 3.73223
v -22.025 -36.1484 38
v 16.2928 -36.1484 27.2678
v 15.4817 -36.1484 27.8097
v -22.025 36.1484 38
v -22.025 36.1484 3
v 17.025 36.1484 5.5
v 17.025 36.1484 25.5
v 14.525 36.1484 28
v 16.2928 36.1484 27.2678
v 15.4817 36.1484 27.8097
v 16.8347 36.1484 26.4567
v 17.7572 36.1484 3.73223
v 17.2153 36.1484 4.54329
v 19.525 36.1484 3
v 18.5683 36.1484 3.1903
v -22.025 -38.1484 38
v -25.025 -32.9523 38
v -25.025 32.9523 38
v -22.025 38.1484 38
v 16.8347 38.1484 26.4567
v 16.2928 38.1484 27.2678
v 17.025 38.1484 25.5
v 15.4817 38.1484 27.8097
v 14.525 38.1484 28
v 17.025 38.1484 5.5
v 21.8347 38.1484 31.4567
v 21.8347 36.1484 31.4567
v 21.2928 36.1484 32.2678
v 21.2928 38.1484 32.2678
v 22.025 38.1484 30.5
v 22.025 36.1484 30.5
v 20.4817 38.1484 32.8097
v 20.4817 36.1484 32.8097
v 19.525 36.1484 33
v 19.525 38.1484 33
v 21.8347 -36.1484 31.4567
v 21.8347 -38.1484 31.4567
v 21.2928 -38.1484 32.2678
v 21.2928 -36.1484 32.2678
v 22.025 -36.1484 30.5
v 22.025 -38.1484 30.5
v 20.4817 -38.1484 32.8097
v 20.4817 -36.1484 32.8097
v 19.525 -38.1484 33
v 19.525 -36.1484 33
v 22.025 38.1484 5.5
v 22.025 36.1484 38
v 22.025 -36.1484 38
v 22.025 -38.1484 5.5
v 16.2928 -38.1484 27.2678
v 16.8347 -38.1484 26.4567
v 17.025 -38.1484 25.5
v 15.4817 -38.1484 27.8097
v 14.525 -38.1484 28
v 17.025 -38.1484 5.5
v 17.7572 -38.1484 3.73223
v 17.2153 -38.1484 4.54329
v 17.7572 38.1484 3.73223
v 17.2153 38.1484 4.54329
v 21.8347 38.1484 4.54329
v 21.8347 -38.1484 4.54329
v 21.2928 -38.1484 3.73223
v 21.2928 38.1484 3.73223
v 20.4817 -38.1484 3.1903
v 20.4817 38.1484 3.1903
v 18.5683 -38.1484 3.1903
v 19.525 -38.1484 3
v 18.5683 38.1484 3.1903
v 19.525 38.1484 3
v -22.025 -38.1484 0
v 22.025 -38.1484 0
v 22.025 38.1484 38
v 22.025 -38.1484 38
v 25.025 -32.9523 38
v 25.025 32.9523 38
v -25.025 32.9523 15
v -25.025 -32.9523 15
v 25.025 -32.9523 15
v 25.025 32.9523 15
v -44.05 4.44089e-15 15
v 44.05 0 15
v -44.05 4.28043e-15 0
v -22.025 38.1484 0
v 22.025 38.1484 0
v 44.05 0 0
f 1 2 3
f 3 4 1
f 5 6 7
f 7 8 5
f 9 10 11
f 11 12 9
f 13 14 15
f 15 16 13
f 12 17 18
f 19 17 20
f 21 22 23
f 21 24 25
f 21 25 22
f 24 21 18
f 26 9 12
f 27 20 28
f 12 18 21
f 26 12 21
f 20 17 12
f 20 27 19
f 15 14 29
f 30 15 29
f 31 15 30
f 15 32 33
f 33 34 35
f 33 36 34
f 15 31 32
f 36 33 32
f 30 37 38
f 30 39 40
f 30 40 37
f 30 38 31
f 41 26 42
f 41 10 9
f 42 29 43
f 29 42 26
f 43 29 44
f 29 13 44
f 29 14 13
f 26 41 9
f 34 36 45
f 34 45 46
f 36 32 47
f 36 47 45
f 34 46 48
f 33 35 48
f 48 49 33
f 35 34 48
f 47 32 31
f 31 50 47
f 51 52 53
f 54 51 53
f 55 56 52
f 51 55 52
f 57 54 53
f 57 58 59
f 59 60 57
f 57 53 58
f 60 59 5
f 5 8 60
f 61 62 63
f 64 61 63
f 65 66 62
f 61 65 62
f 67 64 63
f 68 67 69
f 69 70 68
f 68 64 67
f 65 56 71
f 55 71 56
f 72 65 73
f 72 56 65
f 65 74 66
f 71 74 65
f 30 21 23
f 23 39 30
f 75 76 19
f 75 19 27
f 76 77 17
f 76 17 19
f 75 27 78
f 79 78 28
f 28 20 79
f 78 27 28
f 17 80 18
f 80 17 77
f 25 24 81
f 82 81 24
f 22 25 81
f 18 80 82
f 24 18 82
f 83 84 37
f 38 37 84
f 40 83 37
f 50 31 38
f 84 50 38
f 74 85 86
f 87 86 88
f 89 87 90
f 22 91 92
f 92 23 22
f 22 81 91
f 89 23 92
f 89 39 23
f 88 86 85
f 90 87 88
f 93 40 39
f 39 94 93
f 93 83 40
f 90 94 39
f 89 90 39
f 74 71 85
f 79 76 75
f 79 11 77
f 77 11 80
f 95 80 11
f 95 82 80
f 41 11 10
f 11 41 95
f 76 79 77
f 75 78 79
f 91 81 96
f 92 96 89
f 96 92 91
f 89 96 87
f 81 95 96
f 86 87 96
f 74 86 96
f 81 82 95
f 12 11 79
f 79 20 12
f 70 69 1
f 1 4 70
f 16 15 33
f 33 49 16
f 55 51 97
f 97 54 57
f 54 97 51
f 60 7 97
f 8 7 60
f 60 97 57
f 59 6 5
f 59 58 72
f 72 6 59
f 52 72 53
f 58 53 72
f 72 52 56
f 98 2 69
f 69 2 1
f 69 67 98
f 62 66 98
f 63 98 67
f 98 63 62
f 61 64 73
f 68 73 64
f 73 65 61
f 4 3 70
f 73 68 70
f 3 73 70
f 98 73 2
f 97 6 72
f 3 2 73
f 73 99 72
f 99 73 98
f 72 100 97
f 100 72 99
f 97 7 6
f 101 102 42
f 42 43 101
f 103 104 100
f 100 99 103
f 105 102 101
f 103 106 104
f 30 29 26
f 26 21 30
f 105 107 102
f 102 107 95
f 102 41 42
f 41 102 95
f 108 101 44
f 101 108 107
f 44 101 43
f 105 101 107
f 109 90 88
f 90 109 94
f 93 94 109
f 109 83 93
f 85 71 109
f 84 83 108
f 85 109 88
f 109 108 83
f 16 47 50
f 45 49 46
f 47 49 45
f 108 16 50
f 50 84 108
f 48 46 49
f 16 44 13
f 44 16 108
f 47 16 49
f 106 110 104
f 100 104 55
f 110 109 104
f 109 71 104
f 55 97 100
f 71 55 104
f 74 96 103
f 98 66 99
f 74 103 66
f 103 110 106
f 110 103 96
f 103 99 66
f 109 107 108
f 95 107 96
f 107 109 110
f 96 107 110
