v 4.5 -3 2.5
v 4.34776 -3 1.73463
v 4.34776 0 1.73463
v 3.91421 -3 1.08579
v 3.26537 -3 0.652241
v 3.26537 0 0.652241
v 3.91421 0 1.08579
v 2.5 -3 0.5
v 1.73463 -3 0.652241
v 1.73463 0 0.652241
v 1.08579 -3 1.08579
v 0.652241 -3 1.73463
v 0.652241 0 1.73463
v 1.08579 0 1.08579
v 2.5 0 0.5
v 4.5 0 2.5
v 0.5 -3 2.5
v 0.5 0 2.5
v 4.34776 0 3.26537
v 0.652241 -3 3.26537
v 0.652241 0 3.26537
v 1.08579 -3 3.91421
v 1.73463 -3 4.34776
v 1.73463 0 4.34776
v 1.08579 0 3.91421
v 2.5 -3 4.5
v 3.26537 -3 4.34776
v 3.26537 0 4.34776
v 3.91421 -3 3.91421
v 4.34776 -3 3.26537
v 3.91421 0 3.91421
v 2.5 0 4.5
v 0 70 2.5
v 0.190301 70 1.54329
v 0 0 2.5
v 0.190301 0 1.54329
v 0.732233 70 0.732233
v 0.732233 0 0.732233
v 1.54329 70 0.190301
v 2.5 70 0
v 2.5 0 0
v 1.54329 0 0.190301
v 0.5 73 2.5
v 0.652241 73 1.73463
v 0.652241 70 1.73463
v 1.08579 73 1.08579
v 1.73463 73 0.652241
v 1.73463 70 0.652241
v 1.08579 70 1.08579
v 2.5 73 0.5
v 3.26537 73 0.652241
v 3.26537 70 0.652241
v 3.91421 73 1.08579
v 4.34776 73 1.73463
v 4.34776 70 1.73463
v 3.91421 70 1.08579
v 2.5 70 0.5
v 0.5 70 2.5
v 4.5 73 2.5
v 4.5 70 2.5
v 0.652241 70 3.26537
v 4.34776 73 3.26537
v 4.34776 70 3.26537
v 3.91421 73 3.91421
v 3.26537 73 4.34776
v 3.26537 70 4.34776
v 3.91421 70 3.91421
v 2.5 73 4.5
v 1.73463 73 4.34776
v 1.73463 70 4.34776
v 1.08579 73 3.91421
v 0.652241 73 3.26537
v 1.08579 70 3.91421
v 2.5 70 4.5
v 33 0 43.55
v 35 0 43.55
v 35 70 43.55
v 33 70 43.55
v 0 0 38.55
v 35 0 0
v 33 0 38.55
v 2.1903 68 3.54329
v 2.1903 2 3.54329
v 2.73223 2 2.73223
v 2.73223 68 2.73223
v 2 68 4.5
v 2 2 4.5
v 3.54329 2 2.1903
v 3.54329 68 2.1903
v 4.5 2 2
v 4.5 68 2
v 2 68 38.55
v 33 68 2
v 33 68 38.55
v 33 2 2
v 35 70 0
v 33 70 38.55
v 0 70 38.55
v 2 2 38.55
v 33 2 38.55
v 35 20.875 28.55
v 35 50.875 28.55
v 45 50.875 28.55
v 45 20.875 28.55
v 35 20.875 33.55
v 45 20.875 33.55
v 35 50.875 33.55
v 45 50.875 33.55
f 1 2 3
f 4 5 6
f 2 4 7
f 8 9 10
f 11 12 13
f 9 11 14
f 5 8 15
f 3 16 1
f 6 7 4
f 3 2 7
f 10 15 8
f 13 14 11
f 10 9 14
f 6 5 15
f 17 18 12
f 1 16 19
f 17 20 21
f 22 23 24
f 20 22 25
f 26 27 28
f 29 30 19
f 27 29 31
f 23 26 32
f 21 18 17
f 24 25 22
f 21 20 25
f 28 32 26
f 19 31 29
f 28 27 31
f 24 23 32
f 30 1 19
f 18 13 12
f 33 34 35
f 34 36 35
f 36 34 37
f 36 37 38
f 39 40 41
f 38 37 42
f 41 42 39
f 42 37 39
f 43 44 45
f 46 47 48
f 44 46 49
f 50 51 52
f 53 54 55
f 51 53 56
f 47 50 57
f 45 58 43
f 48 49 46
f 45 44 49
f 52 57 50
f 55 56 53
f 52 51 56
f 48 47 57
f 59 60 54
f 43 58 61
f 59 62 63
f 64 65 66
f 62 64 67
f 68 69 70
f 71 72 61
f 69 71 73
f 65 68 74
f 63 60 59
f 66 67 64
f 63 62 67
f 70 74 68
f 61 73 71
f 70 69 73
f 66 65 74
f 72 43 61
f 60 55 54
f 75 76 77
f 77 78 75
f 13 36 38
f 14 38 42
f 14 13 38
f 10 41 15
f 41 10 42
f 42 10 14
f 79 35 25
f 35 36 18
f 21 35 18
f 25 24 79
f 21 25 35
f 36 13 18
f 32 79 24
f 41 7 6
f 7 41 80
f 3 80 16
f 80 3 7
f 16 80 19
f 31 81 79
f 31 79 28
f 81 19 80
f 76 75 81
f 81 80 76
f 81 31 19
f 79 32 28
f 6 15 41
f 82 83 84
f 85 82 84
f 83 82 86
f 87 83 86
f 88 85 84
f 89 88 90
f 90 91 89
f 89 85 88
f 82 85 86
f 91 92 86
f 86 85 89
f 91 93 94
f 91 86 89
f 92 91 94
f 90 95 93
f 93 91 90
f 96 80 41
f 41 40 96
f 12 11 9
f 12 9 5
f 20 12 30
f 17 12 20
f 23 22 20
f 20 30 23
f 8 5 9
f 5 4 2
f 2 1 5
f 5 1 30
f 27 26 29
f 29 26 23
f 30 29 23
f 30 12 5
f 59 54 53
f 53 51 59
f 50 59 51
f 62 59 65
f 65 64 62
f 59 50 65
f 50 47 65
f 43 65 46
f 44 43 46
f 65 43 72
f 69 68 71
f 68 65 71
f 72 71 65
f 65 47 46
f 96 56 55
f 56 96 40
f 96 55 60
f 52 40 57
f 40 52 56
f 57 40 48
f 77 97 78
f 97 77 96
f 63 97 96
f 97 67 98
f 63 67 97
f 96 60 63
f 66 98 67
f 48 39 49
f 39 48 40
f 49 39 37
f 37 34 45
f 45 34 58
f 37 45 49
f 70 73 98
f 74 70 98
f 58 33 61
f 33 58 34
f 33 73 61
f 73 33 98
f 74 98 66
f 99 81 100
f 92 94 97
f 98 79 99
f 81 99 79
f 97 98 92
f 99 92 98
f 95 90 100
f 87 90 88
f 90 99 100
f 84 83 87
f 99 90 87
f 87 88 84
f 33 35 79
f 79 98 33
f 101 102 103
f 103 104 101
f 105 101 104
f 104 106 105
f 107 105 106
f 106 108 107
f 102 107 108
f 108 103 102
f 106 104 103
f 103 108 106
f 78 94 75
f 94 78 97
f 95 100 93
f 100 94 93
f 81 75 100
f 100 75 94
f 87 86 92
f 92 99 87
f 80 101 76
f 101 80 96
f 76 105 77
f 105 76 101
f 102 96 77
f 96 102 101
f 107 77 105
f 77 107 102
