v 5 12.5 0
v 5 12.5 5
v -15 12.5 5
v -15 12.5 0
v -15 6.5 5
v -15 6.5 0
v -5 6.5 5
v -5 6.5 0
v -5 -12.5 5
v -5 -12.5 0
v 5 -12.5 5
v 5 -12.5 0
v -20.2929 -35.1484 5
v -20.2929 -35.1484 15
v 20.2929 -35.1484 15
v 20.2929 -35.1484 5
v 40.5859 -4.44089e-15 15
v 40.5859 -4.44089e-15 5
v 20.2929 35.1484 15
v 20.2929 35.1484 5
v -20.2929 35.1484 15
v -20.2929 35.1484 5
v -40.5859 8.88178e-15 15
v -40.5859 8.88178e-15 5
v -22.025 -38.1484 0
v 22.025 -38.1484 0
v 22.025 -38.1484 15
v -22.025 -38.1484 15
v -44.05 4.44089e-15 15
v -44.05 4.28043e-15 0
v -22.025 38.1484 0
v -22.025 38.1484 15
v 22.025 38.1484 0
v 22.025 38.1484 15
v 44.05 0 0
v 44.05 0 15
f 1 2 3
f 3 4 1
f 4 3 5
f 5 6 4
f 6 5 7
f 7 8 6
f 8 7 9
f 9 10 8
f 10 9 11
f 11 12 10
f 12 11 2
f 2 1 12
f 13 14 15
f 15 16 13
f 16 15 17
f 17 18 16
f 18 17 19
f 19 20 18
f 20 19 21
f 21 22 20
f 22 21 23
f 23 24 22
f 24 23 14
f 14 13 24
f 11 9 16
f 13 16 9
f 18 11 16
f 20 2 18
f 11 18 2
f 22 2 20
f 5 9 7
f 24 13 9
f 5 24 9
f 5 3 24
f 22 24 3
f 3 2 22
f 25 26 27
f 27 28 25
f 29 30 28
f 25 28 30
f 31 30 29
f 29 32 31
f 33 31 32
f 32 34 33
f 35 33 34
f 34 36 35
f 26 35 36
f 36 27 26
f 29 28 14
f 14 28 15
f 29 14 23
f 21 32 29
f 32 21 19
f 21 29 23
f 17 15 36
f 27 15 28
f 36 15 27
f 19 36 34
f 36 19 17
f 19 34 32
f 10 25 30
f 26 25 10
f 6 10 30
f 31 4 30
f 6 30 4
f 4 31 1
f 10 6 8
f 35 26 12
f 10 12 26
f 1 35 12
f 31 33 1
f 35 1 33
