v 9 1.22574 62
v 8.46683 1.62828 62
v 7.83603 2.07227 62
v 6.32575 2.97085 62
v 4.55746 3.69396 62
v 3.60447 3.91697 62
v 2.63372 4 62
v 1.91585 4.08382 62.8691
v 1.40016 4.26082 63.8063
v 1.09692 4.54339 64.7721
v 1 4.93207 65.7266
v 1.92705 4.79913 65.789
v 2.76336 4.4133 65.9698
v 3.42705 3.81235 66.2515
v 3.85317 3.05512 66.6065
v 4 2.21572 67
v 4.08553 1.63188 66.0793
v 4.35402 1.24288 65.1539
v 4.80595 1.03879 64.278
v 5.42697 0.986902 63.5029
v 6.18919 1.03306 62.8649
v 7.06186 1.11875 62.3914
v 8.01092 1.19554 62.099
v 2.86754 3.9802 62.7558
v 2.21679 4.15231 63.719
v 6.97177 1.96239 62.2981
v 5.65573 3.07663 62.2532
v 5.83264 2.71386 62.4827
v 6.08033 1.91219 62.7792
v 4.3182 3.60841 62.4323
v 4.79649 3.10398 62.8972
v 5.02122 2.73397 63.115
v 5.32184 1.90447 63.4047
v 3.5426 3.70312 63.2188
v 4.11381 3.2049 63.6342
v 4.37736 2.83127 63.8388
v 4.71579 1.98343 64.1346
v 2.97482 3.89009 64.0727
v 3.61274 3.40173 64.4243
v 3.90453 3.03163 64.6148
v 4.27171 2.18704 64.9308
v 1.818 4.44362 64.734
v 2.61295 4.18292 64.9683
v 3.28426 3.70823 65.2495
v 3.59303 3.35088 65.4243
v 3.98663 2.53832 65.764
v 4 2.57898 67.7164
v 4 2.45298 67.4801
v 4 2.33188 67.2413
v 1 5.24532 66.3391
v 1 5.59994 66.9286
v 1 5.99425 67.4923
v 1.831 5.90043 67.5629
v 2.59696 5.62631 67.769
v 3.23795 5.19334 68.0946
v 3.70379 4.6354 68.5142
v 3.95804 3.99617 68.9949
v 3.97931 3.29448 68.2388
v 1.92705 5.29174 66.7126
v 2.76336 4.9266 66.9323
v 3.42705 4.35788 67.2744
v 3.85317 3.64125 67.7055
v 1 -5.99425 67.4923
v 1 -5.59994 66.9286
v 1 -5.24532 66.3391
v 1 -4.93207 65.7266
v 1.92705 -4.79913 65.789
v 2.76336 -4.4133 65.9698
v 3.42705 -3.81235 66.2515
v 3.85317 -3.05512 66.6065
v 4 -2.21572 67
v 4 -2.33188 67.2413
v 4 -2.45298 67.4801
v 4 -2.57898 67.7164
v 3.97837 -3.3217 68.2627
v 3.95804 -3.99617 68.9949
v 3.70379 -4.6354 68.5142
v 3.23795 -5.19334 68.0946
v 2.59696 -5.62631 67.769
v 1.831 -5.90043 67.5629
v 1.92705 -5.29174 66.7126
v 2.76336 -4.9266 66.9323
v 3.42705 -4.35788 67.2744
v 3.85317 -3.64125 67.7055
v 2.63372 -4 62
v 3.60447 -3.91697 62
v 4.55746 -3.69396 62
v 6.32575 -2.97085 62
v 7.83603 -2.07227 62
v 8.46683 -1.62828 62
v 9 -1.22574 62
v 8.011 -1.19529 62.099
v 7.06164 -1.1198 62.391
v 6.18925 -1.03275 62.8652
v 5.42686 -0.986842 63.5025
v 4.80606 -1.03903 64.2783
v 4.35348 -1.24209 65.1537
v 4.08551 -1.63186 66.0793
v 1.0968 -4.54333 64.7722
v 1.39991 -4.26066 63.8062
v 1.915 -4.08321 62.8688
v 7.54143 -1.99564 62.0959
v 4.4333 -2.08718 64.6
v 4.07704 -2.9369 64.2934
v 3.79588 -3.30881 64.0974
v 3.18079 -3.80189 63.7179
v 2.45068 -4.06841 63.3166
v 3.22352 -3.93904 62.3661
v 3.85195 -3.65237 62.8683
v 4.38609 -3.15073 63.3073
v 4.63369 -2.77875 63.5174
v 4.9577 -1.93665 63.8091
v 4.73573 -3.59025 62.1073
v 5.16598 -3.08384 62.5901
v 5.36964 -2.71761 62.8131
v 5.64864 -1.90003 63.1047
v 6.49206 -1.93426 62.5287
v 6.2759 -2.72298 62.2258
v 4.07768 -2.3849 65.4405
v 3.69389 -3.21374 65.1093
v 3.3908 -3.57644 64.9286
v 2.72756 -4.05714 64.6198
v 1.94015 -4.31665 64.3395
v 3.93006 -2.67871 66.0236
v 3.52786 -3.47569 65.6779
v 3.21669 -3.82647 65.5086
v 2.54175 -4.29638 65.2488
v 1.74491 -4.55925 65.0497
v 3.95804 -4.66555 70.202
v 3.95804 -4.97937 71.5462
v 3.95804 -4.9137 72.925
v 3.95804 -4.47356 74.2332
v 3.95804 -3.69249 75.3713
v 3.95804 -2.63001 76.2524
v 3.95804 -1.3671 76.8095
v 3.95804 0 77
v 3.95804 1.3671 76.8095
v 3.95804 2.63001 76.2524
v 3.95804 3.69249 75.3713
v 3.95804 4.47356 74.2332
v 3.95804 4.9137 72.925
v 3.95804 4.97937 71.5462
v 3.95804 4.66555 70.202
v 1 6.87374 68.9997
v 1 7.38104 70.6695
v 1 7.48871 72.4114
v 1 7.1909 74.1309
v 1 6.50374 75.7351
v 1 5.46444 77.1371
v 1 4.12927 78.2609
v 1 2.57052 79.0457
v 1 0.872588 79.4491
v 1 -0.872588 79.4491
v 1 -2.57052 79.0457
v 1 -4.12927 78.2609
v 1 -5.46444 77.1371
v 1 -6.50374 75.7351
v 1 -7.1909 74.1309
v 1 -7.48871 72.4114
v 1 -7.38104 70.6695
v 1 -6.87374 68.9997
v 3.60601 3.2958 76.9972
v 3.60601 -3.2958 76.9972
v 3.60601 -5.48632 69.6053
v 2.93649 -6.2242 69.2832
v 2.03105 -6.70625 69.0728
v 3.60601 -5.89123 70.9381
v 2.93649 -6.68357 70.7952
v 2.03105 -7.2012 70.7019
v 3.60601 -5.97716 72.3283
v 2.93649 -6.78106 72.3725
v 2.03105 -7.30624 72.4013
v 3.60601 -5.73946 73.7008
v 2.93649 -6.5114 73.9296
v 2.03105 -7.01569 74.079
v 3.60601 -5.191 74.9812
v 2.93649 -5.88917 75.3822
v 2.03105 -6.34527 75.6441
v 3.60601 -4.36148 76.1002
v 2.93649 -4.94808 76.6517
v 2.03105 -5.3313 77.0119
v 3.60601 -2.05168 77.6236
v 2.93649 -2.32762 78.38
v 2.03105 -2.50789 78.8741
v 2.03105 -4.02866 78.1084
v 2.93649 -3.73907 77.6693
v 3.60601 -0.696462 77.9455
v 2.93649 -0.790133 78.7452
v 2.03105 -0.851327 79.2676
v 3.60601 0.696462 77.9455
v 2.93649 0.790133 78.7452
v 2.03105 0.851327 79.2676
v 3.60601 2.05168 77.6236
v 2.93649 2.32762 78.38
v 2.03105 2.50789 78.8741
v 2.93649 3.73907 77.6693
v 2.03105 4.02866 78.1084
v 3.60601 5.191 74.9812
v 2.93649 5.88917 75.3822
v 2.03105 6.34527 75.6441
v 2.03105 5.3313 77.0119
v 2.93649 4.94808 76.6517
v 3.60601 4.36148 76.1002
v 3.60601 5.73946 73.7008
v 2.93649 6.5114 73.9296
v 2.03105 7.01569 74.079
v 3.60601 5.97716 72.3283
v 2.93649 6.78106 72.3725
v 2.03105 7.30624 72.4013
v 3.60601 5.89123 70.9381
v 2.93649 6.68357 70.7952
v 2.03105 7.2012 70.7019
v 3.60601 5.48632 69.6053
v 2.93649 6.2242 69.2832
v 2.03105 6.70625 69.0728
v 4 -1.76741 67.3228
v 4 -0.898323 67.0814
v 4 0 67
v 4 0.898323 67.0814
v 4 1.76741 67.3228
v -4 -2.57898 67.7164
v -3.97709 -3.3456 68.2842
v -3.95804 -3.99617 68.9949
v -3.95804 -4.66555 70.202
v -3.95804 -4.97937 71.5462
v -3.95804 -4.9137 72.925
v -3.95804 -4.47356 74.2332
v -3.95804 -3.69249 75.3713
v -3.95804 -2.63001 76.2524
v -3.95804 -1.3671 76.8095
v -3.95804 0 77
v -3.95804 1.3671 76.8095
v -3.95804 2.63001 76.2524
v -3.95804 3.69249 75.3713
v -3.95804 4.47356 74.2332
v -3.95804 4.9137 72.925
v -3.95804 4.97937 71.5462
v -3.95804 4.66555 70.202
v -3.95804 3.99617 68.9949
v -3.97822 3.3253 68.266
v -4 2.57898 67.7164
v -4 1.76741 67.3228
v -4 0.898323 67.0814
v -4 0 67
v -4 -0.898323 67.0814
v -4 -1.76741 67.3228
v -1 -5.99425 67.4923
v -1 -5.59994 66.9286
v -1 -5.24532 66.3391
v -1 -4.93207 65.7266
v -1.09692 -4.54339 64.7721
v -1.40016 -4.26082 63.8063
v -1.91585 -4.08382 62.8691
v -2.63372 -4 62
v -9 -1.22574 62
v -8.99049 -1.2331 62
v -8.45675 -1.63566 62
v -7.82604 -2.07899 62
v -6.31761 -2.97502 62
v -4.55286 -3.69534 62
v -3.60209 -3.91736 62
v -1.92705 -4.79913 65.789
v -2.76336 -4.4133 65.9698
v -3.42705 -3.81235 66.2515
v -3.85317 -3.05512 66.6065
v -4 -2.21572 67
v -4.08553 -1.63188 66.0793
v -4.35402 -1.24288 65.1539
v -4.80595 -1.03879 64.278
v -5.42697 -0.986902 63.5029
v -6.18919 -1.03306 62.8649
v -7.06186 -1.11875 62.3914
v -8.01092 -1.19554 62.099
v -2.86754 -3.9802 62.7558
v -2.21679 -4.15231 63.719
v -6.97177 -1.96239 62.2981
v -5.65573 -3.07663 62.2532
v -5.83264 -2.71386 62.4827
v -6.08033 -1.91219 62.7792
v -4.3182 -3.60841 62.4323
v -4.79649 -3.10398 62.8972
v -5.02122 -2.73397 63.115
v -5.32184 -1.90447 63.4047
v -3.5426 -3.70312 63.2188
v -4.11381 -3.2049 63.6342
v -4.37736 -2.83127 63.8388
v -4.71579 -1.98343 64.1346
v -2.97482 -3.89009 64.0727
v -3.61274 -3.40173 64.4243
v -3.90453 -3.03163 64.6148
v -4.27171 -2.18704 64.9308
v -1.818 -4.44362 64.734
v -2.61295 -4.18292 64.9683
v -3.28426 -3.70823 65.2495
v -3.59303 -3.35088 65.4243
v -3.98663 -2.53832 65.764
v -4 -2.45298 67.4801
v -4 -2.33188 67.2413
v -1.831 -5.90043 67.5629
v -2.59696 -5.62631 67.769
v -3.23795 -5.19334 68.0946
v -3.70379 -4.6354 68.5142
v -1.92705 -5.29174 66.7126
v -2.76336 -4.9266 66.9323
v -3.42705 -4.35788 67.2744
v -3.85317 -3.64125 67.7055
v -1 5.99425 67.4923
v -1 5.59994 66.9286
v -1 5.24532 66.3391
v -1 4.93207 65.7266
v -1.92705 4.79913 65.789
v -2.76336 4.4133 65.9698
v -3.42705 3.81235 66.2515
v -3.85317 3.05512 66.6065
v -4 2.21572 67
v -4 2.33188 67.2413
v -4 2.45298 67.4801
v -3.70379 4.6354 68.5142
v -3.23795 5.19334 68.0946
v -2.59696 5.62631 67.769
v -1.831 5.90043 67.5629
v -1.92705 5.29174 66.7126
v -2.76336 4.9266 66.9323
v -3.42705 4.35788 67.2744
v -3.85317 3.64125 67.7055
v -2.63372 4 62
v -3.60447 3.91697 62
v -4.55746 3.69396 62
v -6.32575 2.97085 62
v -7.83603 2.07227 62
v -8.46683 1.62828 62
v -9 1.22574 62
v -8.011 1.19529 62.099
v -7.06164 1.1198 62.391
v -6.18925 1.03275 62.8652
v -5.42686 0.986842 63.5025
v -4.80606 1.03903 64.2783
v -4.35348 1.24209 65.1537
v -4.08551 1.63186 66.0793
v -1.0968 4.54333 64.7722
v -1.39991 4.26066 63.8062
v -1.915 4.08321 62.8688
v -7.54143 1.99564 62.0959
v -4.4333 2.08718 64.6
v -4.07704 2.9369 64.2934
v -3.79588 3.30881 64.0974
v -3.18079 3.80189 63.7179
v -2.45068 4.06841 63.3166
v -3.22352 3.93904 62.3661
v -3.85195 3.65237 62.8683
v -4.38609 3.15073 63.3073
v -4.63369 2.77875 63.5174
v -4.9577 1.93665 63.8091
v -4.73573 3.59025 62.1073
v -5.16598 3.08384 62.5901
v -5.36964 2.71761 62.8131
v -5.64864 1.90003 63.1047
v -6.49206 1.93426 62.5287
v -6.2759 2.72298 62.2258
v -4.07768 2.3849 65.4405
v -3.69389 3.21374 65.1093
v -3.3908 3.57644 64.9286
v -2.72756 4.05714 64.6198
v -1.94015 4.31665 64.3395
v -3.93006 2.67871 66.0236
v -3.52786 3.47569 65.6779
v -3.21669 3.82647 65.5086
v -2.54175 4.29638 65.2488
v -1.74491 4.55925 65.0497
v -1 -6.87374 68.9997
v -1 -7.38104 70.6695
v -1 -7.48871 72.4114
v -1 -7.1909 74.1309
v -1 -6.50374 75.7351
v -1 -5.46444 77.1371
v -1 -4.12927 78.2609
v -1 -2.57052 79.0457
v -1 -0.872588 79.4491
v -1 0.872588 79.4491
v -1 2.57052 79.0457
v -1 4.12927 78.2609
v -1 5.46444 77.1371
v -1 6.50374 75.7351
v -1 7.1909 74.1309
v -1 7.48871 72.4114
v -1 7.38104 70.6695
v -1 6.87374 68.9997
v -3.60601 -3.2958 76.9972
v -3.60601 3.2958 76.9972
v -3.60601 5.48632 69.6053
v -2.93649 6.2242 69.2832
v -2.03105 6.70625 69.0728
v -3.60601 5.89123 70.9381
v -2.93649 6.68357 70.7952
v -2.03105 7.2012 70.7019
v -3.60601 5.97716 72.3283
v -2.93649 6.78106 72.3725
v -2.03105 7.30624 72.4013
v -3.60601 5.73946 73.7008
v -2.93649 6.5114 73.9296
v -2.03105 7.01569 74.079
v -3.60601 5.191 74.9812
v -2.93649 5.88917 75.3822
v -2.03105 6.34527 75.6441
v -3.60601 4.36148 76.1002
v -2.93649 4.94808 76.6517
v -2.03105 5.3313 77.0119
v -3.60601 2.05168 77.6236
v -2.93649 2.32762 78.38
v -2.03105 2.50789 78.8741
v -2.03105 4.02866 78.1084
v -2.93649 3.73907 77.6693
v -3.60601 0.696462 77.9455
v -2.93649 0.790133 78.7452
v -2.03105 0.851327 79.2676
v -3.60601 -0.696462 77.9455
v -2.93649 -0.790133 78.7452
v -2.03105 -0.851327 79.2676
v -3.60601 -2.05168 77.6236
v -2.93649 -2.32762 78.38
v -2.03105 -2.50789 78.8741
v -2.93649 -3.73907 77.6693
v -2.03105 -4.02866 78.1084
v -3.60601 -5.191 74.9812
v -2.93649 -5.88917 75.3822
v -2.03105 -6.34527 75.6441
v -2.03105 -5.3313 77.0119
v -2.93649 -4.94808 76.6517
v -3.60601 -4.36148 76.1002
v -3.60601 -5.73946 73.7008
v -2.93649 -6.5114 73.9296
v -2.03105 -7.01569 74.079
v -3.60601 -5.97716 72.3283
v -2.93649 -6.78106 72.3725
v -2.03105 -7.30624 72.4013
v -3.60601 -5.89123 70.9381
v -2.93649 -6.68357 70.7952
v -2.03105 -7.2012 70.7019
v -3.60601 -5.48632 69.6053
v -2.93649 -6.2242 69.2832
v -2.03105 -6.70625 69.0728
f 1 2 23
f 23 2 3
f 23 3 26
f 26 3 4
f 26 4 28
f 28 4 27
f 28 27 31
f 31 27 30
f 31 30 34
f 34 30 6
f 34 6 24
f 24 6 8
f 24 8 9
f 4 5 27
f 27 5 30
f 5 6 30
f 6 7 8
f 24 9 25
f 25 9 10
f 25 10 42
f 42 10 12
f 42 12 43
f 43 12 13
f 43 13 44
f 44 13 14
f 44 14 45
f 45 14 15
f 45 15 46
f 46 15 16
f 46 16 17
f 10 11 12
f 17 18 46
f 46 18 41
f 46 41 45
f 45 41 40
f 45 40 44
f 44 40 39
f 44 39 43
f 43 39 38
f 43 38 42
f 42 38 25
f 18 19 41
f 41 19 37
f 41 37 40
f 40 37 36
f 40 36 35
f 40 35 39
f 39 35 34
f 39 34 38
f 38 34 25
f 25 34 24
f 19 20 37
f 37 20 33
f 37 33 36
f 36 33 32
f 36 32 31
f 36 31 35
f 35 31 34
f 20 21 33
f 33 21 29
f 33 29 32
f 32 29 28
f 32 28 31
f 21 22 29
f 29 22 26
f 29 26 28
f 22 23 26
f 48 15 47
f 47 15 62
f 47 62 58
f 58 62 57
f 57 62 56
f 56 62 61
f 56 61 55
f 55 61 60
f 55 60 54
f 54 60 59
f 54 59 53
f 53 59 51
f 53 51 52
f 48 49 15
f 15 49 16
f 15 14 62
f 62 14 61
f 14 13 61
f 61 13 60
f 13 12 60
f 60 12 59
f 12 11 59
f 59 11 50
f 59 50 51
f 63 64 80
f 80 64 81
f 80 81 79
f 79 81 82
f 79 82 78
f 78 82 83
f 78 83 77
f 77 83 84
f 77 84 76
f 76 84 75
f 75 84 74
f 74 84 70
f 74 70 73
f 73 70 72
f 72 70 71
f 64 65 81
f 81 65 67
f 81 67 68
f 65 66 67
f 81 68 82
f 82 68 69
f 82 69 83
f 83 69 70
f 83 70 84
f 86 108 85
f 85 108 107
f 85 107 101
f 101 107 100
f 100 107 123
f 100 123 99
f 99 123 128
f 99 128 66
f 66 128 67
f 67 128 127
f 67 127 68
f 68 127 126
f 68 126 69
f 69 126 125
f 69 125 70
f 70 125 124
f 70 124 71
f 71 124 98
f 98 124 119
f 98 119 97
f 97 119 103
f 97 103 96
f 96 103 112
f 96 112 95
f 95 112 116
f 95 116 94
f 94 116 117
f 94 117 93
f 93 117 102
f 93 102 92
f 92 102 90
f 92 90 91
f 86 87 108
f 108 87 109
f 108 109 107
f 107 109 106
f 107 106 123
f 123 106 122
f 123 122 128
f 128 122 127
f 109 87 113
f 113 87 88
f 113 88 114
f 114 88 118
f 114 118 115
f 115 118 117
f 115 117 116
f 88 89 118
f 118 89 102
f 118 102 117
f 89 90 102
f 103 104 112
f 112 104 111
f 112 111 116
f 116 111 115
f 104 105 110
f 104 110 111
f 111 110 115
f 115 110 114
f 104 103 120
f 120 103 119
f 120 119 125
f 125 119 124
f 105 106 109
f 105 109 110
f 110 109 114
f 114 109 113
f 105 104 120
f 105 120 121
f 121 120 126
f 126 120 125
f 106 105 121
f 106 121 122
f 122 121 127
f 127 121 126
f 76 129 77
f 77 129 164
f 77 164 78
f 78 164 165
f 78 165 79
f 79 165 166
f 79 166 80
f 80 166 161
f 80 161 63
f 164 129 167
f 167 129 130
f 167 130 170
f 170 130 131
f 170 131 173
f 173 131 132
f 173 132 176
f 176 132 133
f 176 133 179
f 179 133 163
f 179 163 186
f 186 163 183
f 186 183 184
f 184 183 189
f 184 189 153
f 153 189 152
f 152 189 192
f 152 192 151
f 151 192 195
f 151 195 150
f 150 195 197
f 150 197 149
f 149 197 201
f 149 201 148
f 148 201 200
f 148 200 147
f 147 200 206
f 147 206 146
f 146 206 209
f 146 209 145
f 145 209 212
f 145 212 144
f 144 212 215
f 144 215 53
f 53 215 54
f 54 215 214
f 54 214 55
f 55 214 213
f 55 213 56
f 56 213 143
f 56 143 57
f 133 134 163
f 163 134 182
f 163 182 183
f 183 182 188
f 183 188 189
f 189 188 192
f 134 135 182
f 182 135 187
f 182 187 188
f 188 187 191
f 188 191 192
f 192 191 195
f 135 136 187
f 187 136 190
f 187 190 191
f 191 190 194
f 191 194 195
f 195 194 197
f 136 137 190
f 190 137 193
f 190 193 194
f 194 193 196
f 194 196 197
f 197 196 201
f 137 138 193
f 193 138 162
f 193 162 196
f 196 162 202
f 196 202 201
f 201 202 200
f 138 139 162
f 162 139 203
f 162 203 202
f 202 203 199
f 202 199 200
f 200 199 206
f 203 139 198
f 198 139 140
f 198 140 204
f 204 140 141
f 204 141 207
f 207 141 142
f 207 142 210
f 210 142 143
f 210 143 213
f 53 52 144
f 153 154 184
f 184 154 185
f 184 185 186
f 186 185 180
f 186 180 179
f 179 180 176
f 154 155 185
f 185 155 181
f 185 181 180
f 180 181 177
f 180 177 176
f 176 177 173
f 155 156 181
f 181 156 178
f 181 178 177
f 177 178 174
f 177 174 173
f 173 174 170
f 156 157 178
f 178 157 175
f 178 175 174
f 174 175 171
f 174 171 170
f 170 171 167
f 157 158 175
f 175 158 172
f 175 172 171
f 171 172 168
f 171 168 167
f 167 168 164
f 158 159 172
f 172 159 169
f 172 169 168
f 168 169 165
f 168 165 164
f 159 160 169
f 169 160 166
f 169 166 165
f 160 161 166
f 203 198 199
f 199 198 205
f 199 205 206
f 206 205 209
f 198 204 205
f 205 204 208
f 205 208 209
f 209 208 212
f 204 207 208
f 208 207 211
f 208 211 212
f 212 211 215
f 207 210 211
f 211 210 214
f 211 214 215
f 213 214 210
f 58 241 47
f 47 241 242
f 47 242 220
f 220 242 219
f 219 242 243
f 219 243 244
f 241 58 240
f 240 58 57
f 240 57 239
f 239 57 143
f 239 143 238
f 238 143 142
f 238 142 237
f 237 142 141
f 237 141 236
f 236 141 140
f 236 140 235
f 235 140 139
f 235 139 234
f 234 139 138
f 234 138 233
f 233 138 137
f 233 137 232
f 232 137 136
f 232 136 231
f 231 136 135
f 231 135 230
f 230 135 134
f 230 134 229
f 229 134 133
f 229 133 228
f 228 133 132
f 228 132 227
f 227 132 131
f 227 131 226
f 226 131 130
f 226 130 225
f 225 130 129
f 225 129 224
f 224 129 76
f 224 76 223
f 223 76 222
f 222 76 75
f 222 75 221
f 221 75 74
f 221 74 216
f 217 245 216
f 216 245 246
f 216 246 221
f 217 218 245
f 245 218 244
f 244 218 219
f 74 73 216
f 216 73 72
f 216 72 71
f 218 217 71
f 71 217 216
f 85 101 254
f 254 101 253
f 253 101 100
f 253 100 252
f 252 100 251
f 251 100 99
f 251 99 250
f 250 99 66
f 250 66 65
f 64 248 65
f 65 248 249
f 65 249 250
f 63 247 64
f 64 247 248
f 255 256 273
f 273 256 257
f 273 257 258
f 273 258 276
f 276 258 259
f 276 259 278
f 278 259 277
f 278 277 281
f 281 277 280
f 281 280 284
f 284 280 261
f 284 261 274
f 274 261 253
f 274 253 252
f 259 260 277
f 277 260 280
f 260 261 280
f 261 254 253
f 274 252 275
f 275 252 251
f 275 251 292
f 292 251 262
f 292 262 293
f 293 262 263
f 293 263 294
f 294 263 264
f 294 264 295
f 295 264 265
f 295 265 296
f 296 265 266
f 296 266 267
f 251 250 262
f 267 268 296
f 296 268 291
f 296 291 295
f 295 291 290
f 295 290 294
f 294 290 289
f 294 289 293
f 293 289 288
f 293 288 292
f 292 288 275
f 268 269 291
f 291 269 287
f 291 287 290
f 290 287 286
f 290 286 285
f 290 285 289
f 289 285 284
f 289 284 288
f 288 284 275
f 275 284 274
f 269 270 287
f 287 270 283
f 287 283 286
f 286 283 282
f 286 282 281
f 286 281 285
f 285 281 284
f 270 271 283
f 283 271 279
f 283 279 282
f 282 279 278
f 282 278 281
f 271 272 279
f 279 272 276
f 279 276 278
f 272 273 276
f 297 265 221
f 221 265 306
f 221 306 222
f 222 306 223
f 223 306 302
f 302 306 305
f 302 305 301
f 301 305 304
f 301 304 300
f 300 304 303
f 300 303 299
f 299 303 248
f 299 248 247
f 297 298 265
f 265 298 266
f 265 264 306
f 306 264 305
f 264 263 305
f 305 263 304
f 263 262 304
f 304 262 303
f 262 250 303
f 303 250 249
f 303 249 248
f 307 308 321
f 321 308 322
f 321 322 320
f 320 322 323
f 320 323 319
f 319 323 324
f 319 324 318
f 318 324 325
f 318 325 239
f 239 325 240
f 240 325 241
f 241 325 314
f 241 314 317
f 317 314 316
f 316 314 315
f 308 309 322
f 322 309 311
f 322 311 312
f 309 310 311
f 322 312 323
f 323 312 313
f 323 313 324
f 324 313 314
f 324 314 325
f 327 349 326
f 326 349 348
f 326 348 342
f 342 348 341
f 341 348 364
f 341 364 340
f 340 364 369
f 340 369 310
f 310 369 311
f 311 369 368
f 311 368 312
f 312 368 367
f 312 367 313
f 313 367 366
f 313 366 314
f 314 366 365
f 314 365 315
f 315 365 339
f 339 365 360
f 339 360 338
f 338 360 344
f 338 344 337
f 337 344 353
f 337 353 336
f 336 353 357
f 336 357 335
f 335 357 358
f 335 358 334
f 334 358 343
f 334 343 333
f 333 343 331
f 333 331 332
f 327 328 349
f 349 328 350
f 349 350 348
f 348 350 347
f 348 347 364
f 364 347 363
f 364 363 369
f 369 363 368
f 350 328 354
f 354 328 329
f 354 329 355
f 355 329 359
f 355 359 356
f 356 359 358
f 356 358 357
f 329 330 359
f 359 330 343
f 359 343 358
f 330 331 343
f 344 345 353
f 353 345 352
f 353 352 357
f 357 352 356
f 345 346 351
f 345 351 352
f 352 351 356
f 356 351 355
f 345 344 361
f 361 344 360
f 361 360 366
f 366 360 365
f 346 347 350
f 346 350 351
f 351 350 355
f 355 350 354
f 346 345 361
f 346 361 362
f 362 361 367
f 367 361 366
f 347 346 362
f 347 362 363
f 363 362 368
f 368 362 367
f 239 238 318
f 318 238 390
f 318 390 319
f 319 390 391
f 319 391 320
f 320 391 392
f 320 392 321
f 321 392 387
f 321 387 307
f 390 238 393
f 393 238 237
f 393 237 396
f 396 237 236
f 396 236 399
f 399 236 235
f 399 235 402
f 402 235 234
f 402 234 405
f 405 234 389
f 405 389 412
f 412 389 409
f 412 409 410
f 410 409 415
f 410 415 379
f 379 415 378
f 378 415 418
f 378 418 377
f 377 418 421
f 377 421 376
f 376 421 423
f 376 423 375
f 375 423 427
f 375 427 374
f 374 427 426
f 374 426 373
f 373 426 432
f 373 432 372
f 372 432 435
f 372 435 371
f 371 435 438
f 371 438 370
f 370 438 441
f 370 441 299
f 299 441 300
f 300 441 440
f 300 440 301
f 301 440 439
f 301 439 302
f 302 439 224
f 302 224 223
f 234 233 389
f 389 233 408
f 389 408 409
f 409 408 414
f 409 414 415
f 415 414 418
f 233 232 408
f 408 232 413
f 408 413 414
f 414 413 417
f 414 417 418
f 418 417 421
f 232 231 413
f 413 231 416
f 413 416 417
f 417 416 420
f 417 420 421
f 421 420 423
f 231 230 416
f 416 230 419
f 416 419 420
f 420 419 422
f 420 422 423
f 423 422 427
f 230 229 419
f 419 229 388
f 419 388 422
f 422 388 428
f 422 428 427
f 427 428 426
f 229 228 388
f 388 228 429
f 388 429 428
f 428 429 425
f 428 425 426
f 426 425 432
f 429 228 424
f 424 228 227
f 424 227 430
f 430 227 226
f 430 226 433
f 433 226 225
f 433 225 436
f 436 225 224
f 436 224 439
f 299 247 370
f 379 380 410
f 410 380 411
f 410 411 412
f 412 411 406
f 412 406 405
f 405 406 402
f 380 381 411
f 411 381 407
f 411 407 406
f 406 407 403
f 406 403 402
f 402 403 399
f 381 382 407
f 407 382 404
f 407 404 403
f 403 404 400
f 403 400 399
f 399 400 396
f 382 383 404
f 404 383 401
f 404 401 400
f 400 401 397
f 400 397 396
f 396 397 393
f 383 384 401
f 401 384 398
f 401 398 397
f 397 398 394
f 397 394 393
f 393 394 390
f 384 385 398
f 398 385 395
f 398 395 394
f 394 395 391
f 394 391 390
f 385 386 395
f 395 386 392
f 395 392 391
f 386 387 392
f 429 424 425
f 425 424 431
f 425 431 432
f 432 431 435
f 424 430 431
f 431 430 434
f 431 434 435
f 435 434 438
f 430 433 434
f 434 433 437
f 434 437 438
f 438 437 441
f 433 436 437
f 437 436 440
f 437 440 441
f 439 440 436
f 241 317 242
f 242 317 316
f 242 316 315
f 244 243 315
f 315 243 242
f 10 340 11
f 11 340 310
f 11 310 309
f 340 10 341
f 341 10 9
f 341 9 8
f 341 8 342
f 342 8 7
f 342 7 326
f 308 51 309
f 309 51 50
f 309 50 11
f 307 52 308
f 308 52 51
f 332 255 333
f 333 255 273
f 333 273 272
f 333 272 334
f 334 272 271
f 334 271 335
f 335 271 336
f 336 271 270
f 336 270 337
f 337 270 269
f 337 269 268
f 337 268 338
f 338 268 267
f 338 267 339
f 339 267 266
f 339 266 244
f 244 315 339
f 298 246 266
f 266 246 245
f 266 245 244
f 298 297 246
f 246 297 221
f 91 1 92
f 92 1 23
f 92 23 22
f 92 22 93
f 93 22 21
f 93 21 94
f 94 21 95
f 95 21 20
f 95 20 96
f 96 20 19
f 96 19 18
f 96 18 97
f 97 18 17
f 97 17 98
f 98 17 16
f 98 16 218
f 218 71 98
f 49 220 16
f 16 220 219
f 16 219 218
f 49 48 220
f 220 48 47
f 247 63 370
f 370 63 161
f 370 161 371
f 371 161 160
f 371 160 372
f 372 160 159
f 372 159 373
f 373 159 158
f 373 158 374
f 374 158 157
f 374 157 375
f 375 157 156
f 375 156 376
f 376 156 155
f 376 155 377
f 377 155 154
f 377 154 378
f 378 154 153
f 378 153 379
f 379 153 152
f 379 152 380
f 380 152 151
f 380 151 381
f 381 151 150
f 381 150 382
f 382 150 149
f 382 149 383
f 383 149 148
f 383 148 384
f 384 148 147
f 384 147 385
f 385 147 146
f 385 146 386
f 386 146 145
f 386 145 387
f 387 145 144
f 387 144 307
f 307 144 52
