v -4.09267 3.08716 0
v -8.21171 -0.159968 0.00624602
v -4.09267 -3.08716 0
v 10.0109 -1.19554 -0.0989783
v 8.09267 -3.08716 0
v 12.2205 0.157933 0.00723187
v 9.60947 2.22158 0
v 15.0115 1.02146 62
v 13.8666 5.8403 62
v 11.2186 10.0267 62
v 7.35514 13.126 62
v 2.69449 14.803 62
v -2.2577 14.8759 62
v -6.96568 13.3368 62
v -10.9186 10.3525 62
v -13.6887 6.24584 62
v -14.975 1.46277 62
v -14.6385 -3.47898 62
v -12.7159 -8.04331 62
v -9.4154 -11.7363 62
v -5.09448 -14.1575 62
v -0.221416 -15.0447 62
v 4.67565 -14.3013 62
v 9.06595 -12.0083 62
v 12.4737 -8.41403 62
v 14.5298 -3.90826 62
v -1.1236 0.0757525 62
v -14.975 -1.46277 2.81623e-09
v -14.6385 3.47898 1.60442e-09
v -13.1921 7.13921 0
v -11.2186 10.0267 -0
v -7.35514 13.126 -0
v -2.69449 14.803 -6.88197e-07
v 2.2577 14.8759 -1.13721e-08
v 6.96568 13.3368 6.81114e-07
v 10.9186 10.3525 -0
v 13.6887 6.24584 -4.26038e-06
v 14.7954 2.46892 0
v 15.0115 -1.02146 1.33905e-09
v 14.1873 -4.87049 0
v 12.7159 -8.04331 -0
v 9.4154 -11.7363 -5.62693e-07
v 5.09448 -14.1575 1.64151e-08
v 0.221416 -15.0447 6.89974e-07
v -4.67565 -14.3013 -0
v -9.06595 -12.0083 -0
v -12.4737 -8.41403 -5.52513e-06
v -14.1873 -4.87049 0
v -14.975 1.46277 5
v -13.6887 6.24584 5
v -11.8371 9.21319 5
v -9.06595 12.0083 5
v -4.67565 14.3013 5
v 0.221416 15.0447 5
v 5.09448 14.1575 5
v 9.4154 11.7363 5
v 12.7159 8.04331 5
v 14.6385 3.47898 5
v 15 0 5
v 14.5298 -3.90826 5
v 13.1921 -7.13921 5
v 10.9186 -10.3525 5
v 6.96568 -13.3368 5
v 2.2577 -14.8759 5
v -2.69449 -14.803 5
v -7.35514 -13.126 5
v -11.2186 -10.0267 5
v -13.8666 -5.8403 5
v -14.7954 -2.46892 5
v 14.975 1.46277 57
v 13.6887 6.24584 57
v 10.9186 10.3525 57
v 6.96568 13.3368 57
v 2.2577 14.8759 57
v -2.69449 14.803 57
v -7.35514 13.126 57
v -11.2186 10.0267 57
v -13.8666 5.8403 57
v -15.0115 1.02146 57
v -14.7954 -2.46892 57
v -13.6887 -6.24584 57
v -10.9186 -10.3525 57
v -6.96568 -13.3368 57
v -2.2577 -14.8759 57
v 2.69449 -14.803 57
v 7.35514 -13.126 57
v 10.1592 -11.0359 57
v 12.7159 -8.04331 57
v 14.6385 -3.47898 57
v 0.560955 13.9797 56.9877
v -4.66738 12.5538 56.9969
v -6.47551 10.5963 56.9967
v 0.815242 11.1231 56.9921
v 4.50106 10.0762 56.994
v 7.65704 8.05466 56.9962
v 9.94604 5.30496 56.9714
v 12.1395 0.899604 57.0082
v 12.9654 1.19358 56.9901
v 13.0305 3.41341 56.9854
v 12.0882 6.66922 56.9989
v -13.7376 -2.81782 5.01117
v -12.3769 -6.25872 5.00615
v -10.9508 -8.3043 5.0082
v -7.11659 -10.8807 4.98864
v -6.76177 -9.84556 5.00215
v -10.8907 -1.66157 5.01062
v -10.9842 0.74461 5.03785
v -10.4869 3.87447 5.04208
v -11.308 1.38591 5.78811
v -11.8067 0.00151617 6.33673
v -12.7141 0 6.48464
v -13.1249 0 6.36364
v -13.1123 4.5478e-10 6.36933
v -13.1115 2.57395e-10 6.36969
v -13.1111 1.25078e-10 6.36986
v -13.1109 4.98582e-11 6.36995
v -13.1108 1.55353e-05 6.37
v -13.1122 0.000739914 6.3693
v -13.1208 0.00570613 6.36487
v -13.2237 0.108154 6.3031
v -13.2778 4.25424 5.11907
v -10.9354 -8.75764 6.22202
v -9.36597 -10.3473 5.72085
v -2.83406 -13.7217 7.22795
v 6.57191 -12.3757 8.23313
v 12.9569 -5.33832 9.23818
v 13.3848 4.15398 10.2436
v 5.67842 12.8074 11.4937
v -3.7946 13.4871 12.504
v -11.5248 7.96948 13.5138
v -13.9608 -1.21002 14.5234
v -9.98315 -9.83576 15.532
v 0.846594 -13.9848 16.7777
v 9.57481 -10.2296 17.783
v 13.9002 -1.77065 18.7888
v 11.8356 7.5033 19.7951
v 4.33056 13.3288 20.802
v -7.17875 12.0309 22.0594
v -13.2032 4.68915 23.0691
v -13.1616 -4.8086 24.078
v -7.07213 -12.0985 25.0859
v 2.26939 -13.8303 26.0929
v 11.9121 -7.37549 27.3332
v 13.8797 1.91786 28.3402
v 9.46773 10.3304 29.3474
v 0.704497 13.9959 30.3555
v -8.38407 11.2302 31.3642
v -13.9685 1.08395 32.6235
v -11.4511 -8.07491 33.6319
v -3.66925 -13.5243 34.6386
v 5.80153 -12.7573 35.6442
v 12.6069 -6.12416 36.6491
v 12.8982 5.47119 37.8923
v 6.4457 12.4411 38.9007
v -2.96932 13.6944 39.9101
v -11.0209 8.65577 40.9195
v -14.0101 -0.361073 41.9289
v -8.94631 -10.783 43.184
v -0.0109139 -14.0123 44.1896
v 8.93137 -10.7986 45.1947
v 13.7679 -2.61834 46.1997
v 11.0249 8.6443 47.4455
v 2.97912 13.6903 48.4555
v -6.4367 12.4458 49.4651
v -12.8955 5.48314 50.4752
v -13.4311 -4.00035 51.4844
v -5.82043 -12.744 52.7342
v 3.64884 -13.5279 53.7398
v 11.4411 -8.09041 54.7448
v 13.973 1.0677 55.7504
v 11.671 7.79845 56.2747
v 9.84386 9.94495 56.9894
v 6.89795 12.2856 57.0022
v -5.35703 -12.9774 6.87459
v -3.75768 -12.2366 8.33439
v -7.17188 -10.2969 7.91853
v -4.29179 -10.1282 6.96976
v -4.42042 -10.2614 5.96331
v -4.6729 -12.0996 5.29844
v -6.47021 -12.2454 5.80885
v -6.82591 -8.66109 6.48038
v -6.07856 -9.41319 7.25809
v -7.91649 -10.8397 7.60332
v -7.68378 -11.7136 6.6733
v -8.60572 -7.599 5.00097
v -6.8243 -8.87513 5.63531
v -7.40751 -8.8443 7.43947
v -9.36955 -10.1387 6.98552
v -9.26218 -6.00623 5.59149
v -11.4926 -7.12185 6.97999
v -10.1044 -4.70039 5.00298
v -9.46109 -6.02415 6.58037
v -9.99577 -6.23966 7.10918
v -10.3941 -7.03054 7.38901
v -10.9527 -3.60316 6.64305
v -12.1747 -3.03927 6.87912
v -12.8871 -3.98692 6.58078
v -12.7082 -6.00087 5.89043
v -10.7534 -2.49616 5.60677
v -13.5576 -1.88822 6.21142
v -14.0337 0.756151 5.0189
v -4.34799 -12.8025 7.98362
v 0.127312 -12.6377 8.81388
v -3.86919 -10.9232 7.98481
v -1.74131 -10.8923 6.83914
v -3.77151 -11.4285 5.39182
v -3.14344 -13.4343 6.1619
v -0.605851 -13.9929 7.45494
v 0.479687 -11.5608 8.52907
v -1.64272 -11.0994 7.83642
v -1.36764 -11.152 6.32098
v -1.90169 -13.1082 5.75923
v -0.778152 -13.7764 6.42934
v 1.60965 -13.9023 7.72223
v 0.226246 -13.5127 8.48565
v 1.26226 -10.8655 7.46039
v 0.633931 -11.5664 6.18135
v 0.00464875 -12.542 5.77268
v 1.62011 -13.7148 6.69726
v 4.1726 -13.4052 7.88645
v 3.31942 -10.8135 8.73113
v 3.1186 -10.5495 7.44817
v 4.38571 -11.1969 6.40658
v 2.56182 -13.0325 6.26857
v 3.98417 -13.2162 6.94113
v 4.77786 -12.6486 8.98809
v 6.81948 -10.8283 9.58902
v 3.51636 -11.9936 9.21341
v 6.11777 -9.8231 9.28117
v 4.93969 -9.8693 8.50374
v 4.33686 -10.3668 7.07791
v 6.15985 -12.3512 7.18802
v 8.46406 -11.1603 8.46414
v 6.46725 -8.82137 8.21463
v 7.54143 -8.51964 7.39593
v 7.91304 -9.0478 6.91023
v 6.40343 -11.2856 6.56498
v 6.7792 -11.4195 6.76646
v 8.16322 -11.1224 7.43403
v 10.0993 -9.68719 8.73499
v 8.77407 -10.2794 9.49193
v 8.23041 -7.75519 9.48573
v 7.92331 -7.62716 8.20233
v 9.98077 -9.5466 7.70434
v 11.7761 -7.64394 8.89774
v 11.2851 -6.0408 10.3437
v 8.98644 -8.68167 9.96826
v 10.1782 -5.51228 10.0358
v 9.17336 -6.13877 9.25797
v 9.25809 -6.27679 7.94872
v 10.5014 -5.85811 7.41127
v 10.1789 -8.17578 7.14863
v 11.4829 -7.66248 7.94773
v 11.7271 -6.7293 9.99287
v 9.98441 -4.47289 8.96891
v 10.7624 -3.69509 8.1476
v 12.6096 -5.6072 8.19348
v 13.6389 -3.1934 9.47383
v 10.9865 -2.67233 10.2401
v 10.6563 -2.71417 8.95636
v 12.3291 -4.28315 7.64792
v 13.3739 -3.38552 8.43972
v 13.9557 -1.02816 9.74724
v 13.3102 -2.34567 10.4984
v 12.7952 0.355771 11.1013
v 12.0961 -3.12784 10.7199
v 11.5715 0.267995 10.7933
v 11.0062 -0.800554 10.0125
v 11.148 -0.880353 8.70281
v 11.8624 -1.94331 7.91661
v 13.776 -1.00982 8.71174
v 13.9422 1.64796 9.90817
v 10.8927 1.04741 9.72319
v 11.3652 2.11336 8.68893
v 13.2838 0.0225463 8.27942
v 13.7346 1.39329 8.95391
v 13.3297 2.26029 10.998
v 10.8737 3.10621 10.9943
v 10.6067 2.90822 9.71104
v 13.2933 3.69907 9.1991
v 12.5412 6.24204 10.4835
v 10.9435 6.6329 11.8557
v 12.0691 3.24045 11.4718
v 9.92469 5.95077 11.5478
v 9.96114 4.74386 10.7669
v 10.1243 4.74338 9.45704
v 12.2967 4.13862 8.57734
v 12.4986 4.48414 8.77932
v 12.4705 5.89934 9.4458
v 11.4086 8.10285 10.7582
v 11.761 6.66114 11.5046
v 8.94959 6.29388 10.4775
v 9.85682 6.08775 9.20064
v 11.5877 4.56011 8.65459
v 11.2694 7.99017 9.71895
v 9.9947 9.81722 10.96
v 7.92098 8.07527 11.7482
v 7.78469 7.77317 10.4652
v 7.75982 9.18393 9.42181
v 10.2417 8.46024 9.28407
v 9.71021 9.81184 9.95954
v 7.99684 11.5393 11.1397
v 8.84936 10.2202 12.0033
v 6.24834 11.1653 12.608
v 8.88033 8.79601 12.2279
v 5.70145 10.0685 12.3002
v 6.31551 9.04759 11.5209
v 7.05254 8.74671 10.0924
v 7.89823 11.3122 10.2047
v 4.66781 9.8924 11.2318
v 3.87853 10.6986 10.4153
v 4.16423 11.2781 9.92916
v 6.84903 11.0189 9.58402
v 6.78734 11.4125 9.78575
v 5.86444 12.4876 10.4526
v 3.62522 13.5158 11.7677
v 4.83534 12.6231 12.5108
v 2.89331 10.935 12.5026
v 2.92462 10.6046 11.2196
v 3.60797 13.3367 10.7262
v 1.43093 13.9353 11.9662
v -0.0708444 12.797 13.3605
v 3.34714 12.0415 12.9851
v -0.00483154 11.5729 13.0526
v 1.01931 10.9895 12.2749
v 1.10073 11.1299 10.9659
v 0.145587 12.0214 10.4276
v 2.53262 13.0404 10.2884
v 1.25015 13.7464 10.965
v -1.22083 13.986 12.1486
v 0.327056 13.5138 13.0092
v -0.831424 10.9066 11.986
v -1.90169 11.2178 11.1672
v -1.10776 13.7511 11.2107
v -2.89198 10.9322 13.2572
v -2.69853 10.6614 11.9737
v -3.96209 11.3518 10.9351
v -1.73501 12.8573 10.591
v -2.0277 13.1228 10.7923
v -3.42465 13.3656 11.46
v -5.88786 12.7082 12.7476
v -4.29912 12.8169 13.5166
v -6.39399 11.089 14.1155
v -3.04349 12.1184 13.7396
v -5.73307 10.0557 13.8075
v -4.54631 10.058 13.0293
v -4.54531 10.2199 11.7203
v -5.65065 12.5964 11.7134
v -7.8261 11.6019 13.0118
v -6.11512 9.07235 12.7403
v -7.18508 8.82409 11.9187
v -7.53524 9.36643 11.4337
v -6.33068 11.6781 11.2929
v -7.73747 11.444 11.9781
v -9.8752 9.97869 13.1581
v -8.34503 10.6328 14.0153
v -7.91699 8.0727 14.0115
v -7.61448 7.93362 12.728
v -9.60591 9.90111 12.217
v -11.0531 6.45494 14.8729
v -8.61623 9.04778 14.491
v -9.96766 5.88338 14.565
v -8.92229 6.49338 13.7839
v -9.0003 6.636 12.4744
v -10.277 6.24238 11.9405
v -9.52467 8.80945 11.5981
v -9.91545 8.83269 11.7986
v -11.1492 8.13056 12.4673
v -12.6441 6.02679 13.7575
v -11.4687 7.15896 14.522
v -9.80221 4.86461 13.4946
v -10.6097 4.12239 12.6729
v -12.3728 6.12502 12.7192
v -13.4248 3.95104 14.018
v -10.8738 3.10674 14.7658
v -10.5426 3.13362 13.4825
v -11.7721 2.43039 12.4399
v -12.3095 4.99125 12.2977
v -13.2498 3.90155 12.9836
v -13.9722 1.36574 14.1684
v -13.2027 2.89155 15.0216
v -12.7954 0.150555 15.6269
v -11.9598 3.62454 15.2431
v -11.5701 0.192069 15.319
v -10.9637 1.23403 14.5382
v -11.1021 1.32054 13.2284
v -13.7108 1.52381 13.2235
v -10.9234 -0.616551 14.2489
v -11.257 -1.68418 13.4309
v -11.9024 -1.71096 12.9452
v -12.9537 0.733211 12.6046
v -13.2705 0.503473 12.8051
v -13.7762 -0.823843 13.4747
v -13.5817 -3.42942 14.7662
v -13.4052 -1.76054 15.5266
v -10.9914 -2.67279 15.5195
v -10.7162 -2.48798 14.2365
v -13.442 -3.14519 13.7247
v -12.8663 -5.50314 15.0226
v -11.2061 -6.17523 16.3789
v -12.1867 -2.77732 15.9993
v -10.1618 -5.533 16.0707
v -10.1473 -4.33409 15.2907
v -10.3101 -4.32776 13.9811
v -10.6289 -5.6131 13.4457
v -12.6746 -3.97092 13.3029
v -12.7076 -5.40849 13.9878
v -11.621 -7.87614 15.1792
v -12.0265 -6.16638 16.0273
v -9.18887 -5.93371 15.0032
v -8.94663 -7.03257 14.1862
v -11.5468 -7.55007 14.2302
v -8.23256 -7.75646 16.274
v -8.08493 -7.45919 14.9908
v -8.10078 -8.88716 13.9503
v -10.4619 -7.67603 13.6106
v -10.5608 -8.05354 13.8108
v -10.1042 -9.403 14.482
v -8.27 -11.3078 15.7718
v -9.22919 -9.88087 16.5319
v -6.7002 -10.9035 17.1318
v -9.20358 -8.4553 16.7563
v -6.10989 -9.82893 16.8239
v -6.67085 -8.79296 16.0464
v -6.81414 -8.86917 14.7372
v -8.36963 -10.9766 14.7298
v -6.3976 -12.4458 16.0287
v -5.05548 -9.70004 15.7574
v -4.31318 -10.5286 14.9382
v -4.62311 -11.0952 14.4525
v -7.25015 -11.1274 14.309
v -6.34117 -12.2674 14.9958
v -4.36693 -13.3119 16.2269
v -5.3478 -12.4115 17.0343
v -3.31909 -10.8099 17.0286
v -3.34044 -10.4777 15.7451
v -4.10497 -13.1729 15.2375
v -1.79953 -13.9241 16.4275
v -0.425559 -12.7934 17.8872
v -3.81887 -11.8965 17.5108
v -0.440447 -11.5669 17.5793
v -1.45269 -10.9415 16.8007
v -1.53916 -11.0784 15.4916
v -0.607501 -12.0098 14.9549
v -3.1852 -12.5791 14.617
v -3.02221 -12.9339 14.8172
v -1.81176 -13.6845 15.4887
v -0.847749 -13.4942 17.5364
v 0.399947 -10.9338 16.5117
v 1.43827 -11.2885 15.6899
v 0.526524 -13.7917 15.7352
v 3.00281 -13.6682 17.0334
v 2.45791 -11.0366 17.783
v 2.27449 -10.7588 16.4994
v 1.60099 -12.9539 15.19
v 2.91936 -13.4966 16.0026
v 5.13251 -13.0345 17.2369
v 3.77332 -12.9775 18.0406
v 5.9766 -11.3186 18.6445
v 2.53357 -12.2347 18.262
v 5.35673 -10.2601 18.3366
v 4.14575 -10.2263 17.5553
v 4.13646 -10.3887 16.2457
v 3.4948 -11.5008 15.4589
v 5.21348 -12.7771 16.2448
v 7.51377 -11.8601 17.4385
v 5.75331 -9.3084 17.266
v 6.92072 -9.26 16.2321
v 5.89274 -11.9046 15.8226
v 7.30953 -11.7106 16.4952
v 7.92183 -10.9568 18.5411
v 7.59175 -8.38235 18.537
v 7.29653 -8.23011 17.2537
v 9.18056 -10.3028 16.7403
v 11.0781 -8.57025 18.0153
v 10.7836 -6.88848 19.3981
v 8.24124 -9.39489 19.0146
v 9.72172 -6.27587 19.0903
v 8.65737 -6.8393 18.3097
v 8.72907 -6.9859 16.9998
v 9.14323 -9.20571 16.1196
v 9.54315 -9.23364 16.3216
v 10.7964 -8.58947 16.9882
v 12.2798 -6.71242 18.2899
v 11.1703 -7.60911 19.047
v 9.60039 -5.24651 18.0203
v 9.81479 -6.15436 16.7429
v 9.20688 -8.38479 16.1966
v 12.136 -6.59765 17.2588
v 13.3584 -4.32037 18.4485
v 10.7446 -3.53731 19.2909
v 10.4135 -3.54813 18.0081
v 11.6686 -2.90182 16.9647
v 12.1172 -5.44391 16.8275
v 13.0899 -4.38379 17.5012
v 13.0797 -3.42106 19.5463
v 12.7771 -0.676407 20.1503
v 11.8166 -4.07457 19.7713
v 11.5514 -0.669126 19.8425
v 10.9077 -1.66733 19.0637
v 10.9638 -2.46031 17.6354
v 13.6364 -2.10484 17.7461
v 13.9992 0.470201 19.0262
v 10.9365 0.184292 18.7746
v 11.3107 1.2469 17.9578
v 11.9569 1.246 17.4716
v 12.9108 -1.28067 17.1261
v 13.237 -1.04901 17.3281
v 13.794 0.243325 17.9939
v 13.7398 2.65392 19.3034
v 13.4598 1.23828 20.0533
v 11.0872 2.23746 20.0454
v 10.8048 2.06279 18.7623
v 13.5614 2.63555 18.266
v 13.0352 5.21428 19.4578
v 11.4496 5.71799 20.9031
v 12.28 2.321 20.5281
v 10.3804 5.11789 20.5952
v 10.3093 3.94227 19.8178
v 10.4711 3.93148 18.5087
v 10.8494 5.18115 17.9703
v 12.8154 3.49781 17.8321
v 12.8871 4.94595 18.507
v 12.2683 5.6779 20.552
v 9.41675 5.5658 19.5288
v 9.22527 6.65954 18.7092
v 11.8563 7.05467 18.7519
v 10.4809 9.29359 20.0378
v 8.5281 7.42533 20.8
v 8.37096 7.1318 19.5165
v 8.43355 8.56867 18.4775
v 10.7714 7.23163 18.1329
v 10.8785 7.6139 18.3345
v 10.4863 8.96605 19.0006
v 8.89685 10.8008 20.3148
v 9.59817 9.51867 21.0593
v 7.11804 10.639 21.6588
v 9.52874 8.08136 21.2819
v 6.4817 9.59028 21.351
v 7.0155 8.52085 20.5718
v 7.1616 8.59121 19.2624
v 8.78723 10.662 19.2725
v 6.69214 12.3414 20.4663
v 5.43625 9.49546 20.2832
v 4.74377 10.3443 19.461
v 5.07529 10.8981 18.9761
v 7.67396 10.8432 18.8364
v 6.79492 12.0137 19.5123
v 5.85352 12.1844 21.5578
v 3.74323 10.6695 21.5543
v 3.75212 10.3367 20.2706
v 4.65411 12.9866 19.7579
v 2.14401 13.8439 21.0485
v 0.903341 12.7673 22.416
v 4.31542 11.7257 22.0329
v 0.870531 11.5412 22.1081
v 1.88164 10.8728 21.3267
v 1.97553 11.0057 20.0172
v 1.055 11.9775 19.4836
v 3.70163 12.4348 19.1399
v 3.54514 12.7966 19.341
v 2.38329 13.5906 20.0075
v -0.0328782 13.9932 21.3244
v 1.35092 13.4514 22.0651
v 0.031962 10.9427 21.0374
v -0.994962 11.3392 20.2164
v -0.011684 13.8173 20.2798
v -2.2493 13.8275 21.5162
v -2.01804 11.1281 22.3084
v -1.84806 10.8428 21.0251
v -1.08599 13.0108 19.7154
v -2.40058 13.5902 20.5177
v -4.81026 13.1895 21.6986
v -3.23746 13.1228 22.564
v -5.51545 11.5459 23.1692
v -2.03567 12.3307 22.7861
v -4.93736 10.4651 22.8615
v -3.73799 10.3804 22.081
v -3.72159 10.5427 20.7714
v -3.0195 11.6355 19.9823
v -4.67634 12.9782 20.7644
v -5.38004 9.52581 21.7916
v -6.57388 9.50922 20.7616
v -5.40872 12.1279 20.3474
v -6.81142 12.0014 21.0148
v -8.94626 10.7602 22.3309
v -7.51039 11.2419 23.0705
v -7.25482 8.6794 23.0624
v -6.96783 8.51363 21.7794
v -8.80221 10.6511 21.2866
v -10.5545 9.21032 22.5212
v -10.4907 7.32531 23.9215
v -7.88364 9.69964 23.5431
v -9.45384 6.67189 23.6137
v -8.38098 7.17789 22.8351
v -8.44763 7.32655 21.5256
v -8.78052 9.55583 20.6462
v -9.168 9.61143 20.8462
v -10.4973 8.95676 21.5232
v -12.1274 7.07264 22.709
v -10.8473 8.06239 23.5703
v -9.38335 5.62067 22.5459
v -9.55344 6.55149 21.2661
v -8.86398 8.74993 20.7212
v -11.8673 7.03406 21.7712
v -10.5958 3.95644 23.817
v -10.2636 3.95586 22.5338
v -11.5539 3.33307 21.4939
v -11.8908 5.914 21.3537
v -12.8932 4.92365 22.0221
v -13.7774 2.52153 23.3071
v -12.9441 3.90564 24.0754
v -12.7426 1.19321 24.6745
v -11.6532 4.51442 24.2997
v -11.5176 1.13821 24.3664
v -10.8362 2.09852 23.5892
v -10.8652 2.86751 22.1656
v -13.5458 2.66541 22.2731
v -13.9915 0.305855 23.5655
v -10.936 0.248439 23.3003
v -11.3511 -0.780513 22.4805
v -11.9963 -0.751781 21.9948
v -12.8518 1.79581 21.6512
v -13.1866 1.58737 21.8517
v -13.8075 0.291695 22.5367
v -13.848 -2.30751 23.7201
v -13.4974 -0.683531 24.5767
v -11.1633 -1.79994 24.5714
v -10.8749 -1.63354 23.2877
v -13.6313 -2.1271 22.7782
v -11.662 -5.27763 25.4307
v -12.3597 -1.82747 25.0532
v -10.5681 -4.72258 25.1229
v -10.4566 -3.53235 24.3437
v -10.6177 -3.51484 23.0344
v -11.0393 -4.76843 22.4985
v -12.683 -3.09192 22.2348
v -13.0805 -4.40688 23.0293
v -12.2165 -6.85306 24.3143
v -12.4768 -5.20972 25.08
v -9.63206 -5.19102 24.0545
v -9.49272 -6.27713 23.2324
v -12.1461 -6.55847 23.2777
v -10.9762 -8.68104 24.5729
v -8.81463 -7.08205 25.3257
v -8.6463 -6.79497 24.0422
v -10.9162 -7.15698 22.7322
v -10.8331 -8.56383 23.5427
v -9.17762 -10.6234 24.7319
v -9.97672 -9.11679 25.5829
v -7.51072 -10.3635 26.1874
v -9.85938 -7.6754 25.8042
v -6.83549 -9.33951 25.8795
v -7.34093 -8.23785 25.0981
v -7.4909 -8.30109 23.7886
v -8.77483 -8.21445 23.0013
v -9.16244 -10.3161 23.785
v -5.80744 -9.27441 24.8088
v -5.24292 -10.3036 23.7757
v -8.07346 -10.5474 23.3656
v -7.28725 -11.724 24.0361
v -5.03225 -13.0735 25.3203
v -6.32199 -11.9518 26.0847
v -4.16545 -10.5149 26.0797
v -4.15847 -10.1831 24.7966
v -5.19885 -12.7849 24.2825
v -2.92094 -13.6858 25.5804
v -1.41506 -12.7169 26.9407
v -4.7825 -11.5468 26.5579
v -1.33705 -11.4936 26.6328
v -2.30326 -10.7899 25.8533
v -2.40292 -10.9191 24.5435
v -4.21984 -12.27 23.6621
v -4.06838 -12.641 23.8639
v -2.89378 -13.502 24.5501
v -0.269902 -14.0359 25.7444
v -1.89137 -13.3821 26.5895
v -0.463819 -10.93 25.5631
v -1.18716 -11.5234 24.2851
v -3.45785 -11.9635 23.7388
v -0.505092 -13.7903 24.7923
v 1.57507 -11.202 26.8338
v 1.41914 -10.9095 25.551
v 2.55616 -11.7498 24.5078
v 0.477524 -13.2749 24.3711
v 1.83831 -13.6818 25.0427
v 4.46767 -13.278 26.3271
v 2.71438 -13.245 27.0895
v 6.55205 -10.7977 27.9375
v 1.57464 -12.3996 27.315
v 4.50097 -10.6599 27.3848
v 3.32459 -10.5222 26.6065
v 2.6401 -10.9224 25.1786
v 4.12316 -13.1691 25.2877
v 6.46692 -12.41 26.5872
v 4.99821 -9.72911 26.3173
v 6.11364 -9.59681 25.5
v 6.39847 -10.1765 25.014
v 4.55118 -12.1501 24.6682
v 4.90435 -12.34 24.8703
v 6.35685 -12.2585 25.5565
v 8.35285 -11.2471 26.7928
v 7.05553 -11.5282 27.5957
v 6.90692 -8.95603 27.5883
v 6.62486 -8.78039 26.305
v 8.38413 -10.9632 25.7993
v 10.3386 -9.49911 26.9894
v 11.0182 -6.1736 28.6884
v 9.17862 -7.05059 28.1378
v 8.09256 -7.50617 27.3606
v 8.15454 -7.65592 26.0514
v 9.44303 -7.44313 25.5131
v 8.80578 -9.94605 25.3757
v 10.1233 -9.38488 26.0486
v 10.5162 -8.49625 28.0948
v 9.15469 -5.98799 27.0716
v 10.0495 -5.33543 26.2516
v 11.559 -7.53408 26.2929
v 12.8928 -5.44162 27.5941
v 10.4293 -4.36852 28.3428
v 10.0965 -4.35758 27.0591
v 11.4125 -3.779 26.0203
v 11.2439 -6.47319 25.6749
v 11.6361 -6.39679 25.8769
v 12.7068 -5.40671 26.5637
v 13.6075 -3.32712 27.8036
v 12.7791 -4.40463 28.6019
v 12.6329 0.063474 29.4408
v 11.4685 -1.56918 28.8947
v 10.7442 -2.52412 28.115
v 10.8719 -2.62436 26.8057
v 13.4448 -3.12777 26.8064
v 14.0223 -0.698868 27.9983
v 10.9209 -0.680348 27.826
v 11.3765 0.314254 27.0036
v 12.0199 0.261723 26.5187
v 13.1197 -2.08322 26.3803
v 13.7799 -0.798464 27.0542
v 13.5177 0.13241 29.1005
v 11.2256 1.35697 29.0971
v 10.9311 1.20215 27.8135
v 13.7095 1.54489 27.2989
v 13.3929 4.09943 28.5798
v 10.9415 6.31838 30.1975
v 10.7374 4.31892 29.6509
v 10.5845 3.11682 28.8695
v 10.7453 3.09125 27.56
v 11.2102 4.34559 27.0264
v 12.7918 2.16716 26.6819
v 13.0466 2.47043 26.8833
v 13.248 3.8562 27.5491
v 12.569 6.15298 28.8584
v 12.6626 4.73263 29.6079
v 9.82998 4.80706 28.5802
v 9.72956 5.9081 27.76
v 12.3989 6.09701 27.8201
v 11.2315 8.42369 29.0065
v 9.09159 6.72787 29.8511
v 8.91037 6.44991 28.5679
v 11.1888 6.72916 27.2589
v 11.1373 8.15104 28.0596
v 10.3442 8.70117 30.1064
v 6.36309 10.9134 30.955
v 7.2084 9.05122 30.4039
v 7.66006 7.94052 29.6239
v 7.81299 7.9975 28.314
v 9.10601 7.8486 27.5248
v 9.5901 9.9166 28.305
v 7.69767 11.7023 29.5921
v 6.16728 9.03531 29.3345
v 5.62244 10.1004 28.3047
v 8.23084 10.1293 27.7654
v 7.76682 11.4055 28.5556
v 5.76218 12.752 29.8699
v 6.76265 11.7062 30.6137
v 4.57979 10.3435 30.6052
v 4.55804 10.0128 29.3221
v 5.68436 12.5942 28.8268
v 3.25461 13.6566 30.0148
v 0.138124 12.6295 31.7092
v 1.81092 11.4288 31.156
v 2.7356 10.6908 30.3779
v 2.83927 10.8164 29.0683
v 4.56684 12.4736 28.3895
v 3.40469 13.373 29.065
v 2.44261 13.2934 31.1127
v 0.89544 10.9011 30.0887
v 1.65814 11.4651 28.8085
v 3.61935 12.0795 28.2782
v 1.08445 13.7524 29.3118
v -1.53722 13.9238 30.6024
v -1.13328 11.2527 31.3597
v -0.98704 10.9545 30.0766
v -2.12676 11.8353 29.038
v 0.0508528 13.2797 28.8964
v -1.26508 13.7422 29.5624
v -3.70169 13.4947 30.8795
v -2.22818 13.3355 31.6194
v -6.09427 11.0622 32.4598
v -4.07321 10.8341 31.9099
v -2.92193 10.6442 31.1342
v -2.24142 11.0112 29.7102
v -3.65088 13.3264 29.8353
v -6.22644 12.5822 31.0239
v -4.61018 9.92053 30.843
v -5.71551 9.83826 30.0231
v -5.97552 10.4292 29.5376
v -4.07298 12.3211 29.1945
v -4.41106 12.5286 29.3953
v -5.88191 12.4818 30.0707
v -6.57728 11.8066 32.1192
v -6.54779 9.21837 32.1143
v -6.271 9.03324 30.8307
v -7.91716 11.2974 30.3186
v -10.0662 9.74326 31.6141
v -10.7606 6.61914 33.2122
v -8.9108 7.38809 32.6664
v -7.78946 7.81842 31.8865
v -7.84472 7.97102 30.5771
v -9.15962 7.79151 30.0419
v -8.37746 10.0105 29.7775
v -9.72211 9.79661 30.5696
v -11.4479 8.04726 31.8832
v -10.1916 8.88468 32.6236
v -8.91373 6.3467 31.5974
v -9.82601 5.74282 30.7751
v -11.2841 7.97286 30.8393
v -12.5902 6.14339 32.0707
v -10.2485 4.778 32.8685
v -9.91676 4.7536 31.585
v -11.2436 6.63235 30.2747
v -12.4785 5.88595 31.0763
v -13.5479 3.68195 32.2608
v -12.5854 4.92509 33.1252
v -12.6281 0.411483 33.9693
v -11.3982 2.00551 33.4225
v -10.6334 2.94464 32.6408
v -10.7564 3.05134 31.3314
v -11.2452 4.24486 30.5436
v -13.2979 3.6749 31.3256
v -10.8856 1.11089 32.3516
v -11.5601 0.145105 31.3191
v -13.0283 2.58189 30.9083
v -13.7351 1.3713 31.5766
v -13.9506 -1.09863 32.886
v -13.5153 0.383857 33.6283
v -11.2739 -0.909777 33.6224
v -10.9731 -0.769872 32.3393
v -13.7766 -1.03136 31.8453
v -13.6128 -3.30408 33.076
v -11.167 -5.90612 34.7266
v -10.9023 -3.87571 34.1751
v -10.6987 -2.69585 33.3953
v -10.8587 -2.66344 32.0854
v -12.872 -1.6364 31.2048
v -13.1389 -1.93225 31.4062
v -13.3714 -3.39808 32.0823
v -12.7742 -5.82388 33.2726
v -12.8423 -4.2106 34.1315
v -10.0092 -4.41387 33.1059
v -10.8626 -4.02409 31.8274
v -12.2609 -2.18159 31.2812
v -12.5973 -5.62899 32.3326
v -9.35238 -6.36348 34.3766
v -9.1592 -6.09411 33.0936
v -9.40794 -7.48944 32.0512
v -11.6964 -6.29507 31.914
v -11.4694 -7.68217 32.5835
v -10.0059 -9.80136 33.8624
v -10.6792 -8.29229 34.6329
v -6.79486 -10.6462 35.4797
v -7.57634 -8.74658 34.9271
v -7.97045 -7.63261 34.1492
v -8.62875 -7.1986 32.7222
v -9.99984 -9.51292 32.8309
v -8.32847 -11.2468 34.1227
v -6.51882 -8.78307 33.8601
v -5.91013 -9.72293 33.0422
v -6.30445 -10.2344 32.5564
v -8.89072 -9.45011 32.2106
v -8.90552 -9.85054 32.4126
v -8.20758 -11.1048 33.0964
v -6.10497 -12.6421 34.2849
v -7.22714 -11.4207 35.138
v -4.98083 -10.1535 35.1312
v -4.94851 -9.8225 33.8478
v -6.13697 -12.3599 33.3399
v -0.674918 -12.6124 36.2305
v -2.26666 -11.3505 35.6808
v -3.15731 -10.5767 34.9034
v -3.26397 -10.6985 33.5944
v -2.50183 -11.7612 33.0562
v -5.02595 -12.2962 32.9191
v -3.9599 -13.2245 33.5898
v -1.44787 -13.9326 34.8697
v -2.97253 -13.1893 35.6378
v -1.32601 -10.8591 34.6144
v -0.348551 -11.373 33.7938
v -1.66363 -13.699 33.8355
v 0.749014 -13.9741 35.1323
v 0.690192 -11.2859 35.8856
v 0.552783 -10.9826 34.6018
v 1.6511 -11.9073 33.5628
v -0.843338 -12.9471 33.2171
v -0.600424 -13.2651 33.4191
v 0.740177 -13.7889 34.1032
v 3.38256 -13.6254 35.2971
v 1.69307 -13.4098 36.1443
v 5.64119 -11.3044 36.9837
v 3.66637 -10.9792 36.4382
v 2.48408 -10.753 35.658
v 2.45016 -10.9117 34.3485
v 3.12962 -13.442 34.3468
v 4.21613 -10.0978 35.3687
v 5.30951 -10.0672 34.5464
v 5.54739 -10.6672 34.0616
v 3.93625 -12.6875 33.9241
v 5.35956 -12.7211 34.5958
v 7.7759 -11.6523 35.8767
v 6.09248 -12.0685 36.6432
v 6.17793 -9.47101 36.6399
v 5.90931 -9.27493 35.3564
v 7.43151 -11.6252 34.8405
v 9.48255 -10.2912 36.1415
v 10.5071 -7.01694 37.7411
v 8.61788 -7.72419 37.1937
v 7.47321 -8.1171 36.4123
v 7.52117 -8.2728 35.1027
v 8.8509 -8.13606 34.5691
v 7.59033 -10.5222 34.2238
v 7.97845 -10.6142 34.4256
v 9.34968 -10.1628 35.1104
v 11.3098 -8.31731 36.309
v 9.83965 -9.26798 37.1507
v 8.65592 -6.6933 36.123
v 9.60297 -6.11159 35.3039
v 10.9671 -8.38179 35.3536
v 10.0534 -5.1833 37.3938
v 9.72419 -5.14293 36.1107
v 11.0647 -4.70202 35.0674
v 11.1016 -7.29539 34.9285
v 12.2279 -6.40224 35.6014
v 13.4227 -4.01279 36.8843
v 12.3767 -5.43633 37.649
v 12.6013 -0.883075 38.4981
v 11.3039 -2.47022 37.9462
v 10.5084 -3.36267 37.1665
v 10.6272 -3.47441 35.857
v 13.1291 -4.2383 35.8462
v 13.8659 -1.88692 37.1509
v 10.83 -1.53948 36.8772
v 11.3676 -0.546921 36.061
v 12.0059 -0.647532 35.5749
v 12.5524 -3.28085 35.2308
v 12.9092 -3.10979 35.4321
v 13.6813 -1.88549 36.118
v 14.0051 0.335096 37.3598
v 13.4889 -0.891673 38.1566
v 11.3024 0.463133 38.1481
v 10.996 0.336255 36.8651
v 13.7957 0.508292 36.3603
v 13.7219 2.96981 37.547
v 11.3944 5.4475 39.2507
v 11.0541 3.42292 38.6983
v 10.7999 2.27043 37.9206
v 10.9582 2.23351 36.6112
v 11.5272 3.4113 36.0733
v 13.2075 1.42158 35.933
v 13.5052 2.84171 36.607
v 13.006 3.68037 38.6551
v 10.1748 4.01411 37.6315
v 10.155 5.13208 36.8133
v 12.8233 5.08654 36.8523
v 11.8874 7.38394 38.1595
v 9.59227 5.99018 38.9026
v 9.39014 5.72604 37.6193
v 9.67785 7.13594 36.5805
v 11.7683 5.46233 36.2377
v 11.9374 5.81627 36.4384
v 11.7533 7.25526 37.1256
v 10.5668 9.19595 38.3691
v 10.9783 7.89001 39.1621
v 7.23749 10.3515 40.0016
v 7.91913 8.4417 39.4524
v 8.26791 7.31291 38.6748
v 8.42292 7.3599 37.3656
v 10.3233 9.1672 37.3668
v 8.65659 11.0529 38.555
v 6.86233 8.52015 38.3858
v 6.30545 9.47174 37.5649
v 6.72047 9.96623 37.0797
v 9.29266 9.49141 36.9377
v 8.60828 10.7847 37.6123
v 7.69087 11.1142 39.6613
v 5.37568 9.94732 39.6571
v 5.33206 9.61722 38.3735
v 6.6528 12.0848 37.8588
v 4.38364 13.3028 39.1461
v 1.17966 12.5788 40.7554
v 2.68382 11.2596 40.2099
v 3.57071 10.4422 39.4293
v 3.68359 10.559 38.1198
v 2.9357 11.6611 37.5854
v 5.599 11.7043 37.2445
v 5.50855 12.0834 37.4446
v 4.50242 13.0463 38.1109
v 2.22783 13.8155 39.4209
v 3.45953 13.0702 40.1671
v 1.75413 10.8012 39.1402
v 0.80888 11.353 38.318
v 2.18685 13.6432 38.38
v -0.404432 14.0332 39.5633
v -0.242364 11.3055 40.4112
v -0.118214 10.9971 39.1278
v 0.982249 13.0177 37.8173
v -0.223035 13.7956 38.6178
v -1.13962 13.467 40.6675
v -5.21798 11.5068 41.5129
v -3.23629 11.1108 40.965
v -2.05774 10.8397 40.1838
v -2.01607 10.9972 38.8742
v -1.15741 11.964 38.0859
v -2.56114 13.5558 38.8658
v -5.11232 13.0411 40.1581
v -3.81396 10.2553 39.8945
v -4.98411 10.4313 38.8628
v -3.43955 12.8277 38.4509
v -4.82739 12.9313 39.1178
v -7.09041 12.0641 40.428
v -5.63471 12.2905 41.1718
v -5.79813 9.7121 41.1651
v -5.54022 9.50379 39.8821
v -6.99509 11.9146 39.3859
v -9.27857 10.5353 40.5723
v -10.233 7.40607 42.2695
v -8.29187 8.06999 41.7174
v -7.14636 8.40641 40.938
v -7.18823 8.56396 39.6285
v -7.15797 10.8234 38.7478
v -7.53878 10.9341 38.9488
v -8.95034 10.499 39.6238
v -9.44896 9.66274 41.6739
v -8.3823 7.0279 40.6486
v -8.40765 7.96855 39.3697
v -7.37406 10.0363 38.8237
v -10.6043 8.82586 39.8729
v -12.2577 6.78158 41.1681
v -9.84134 5.57687 41.9195
v -9.51406 5.52296 40.6364
v -10.8789 5.12406 39.5947
v -10.8155 7.70972 39.4569
v -11.9527 6.9056 40.1244
v -13.1536 4.77469 41.4328
v -12.1612 5.9092 42.1764
v -12.552 1.39688 43.0218
v -11.1942 2.93399 42.4695
v -10.3698 3.77728 41.6921
v -10.2732 4.55419 40.266
v -12.9769 4.73771 40.3917
v -13.869 2.17386 41.5817
v -10.7598 1.96644 41.4029
v -11.3333 1.00833 40.5844
v -11.9661 1.13685 40.0986
v -12.4063 3.80072 39.7533
v -12.7716 3.63923 39.9549
v -13.5846 2.40359 40.6298
v -13.4381 1.43981 42.6803
v -11.3087 -0.0195392 42.6741
v -10.9975 0.0983102 41.3907
v -13.7979 0.0584518 40.8801
v -13.767 -2.59717 42.1768
v -11.6145 -4.96443 43.7728
v -11.1829 -2.98689 43.224
v -10.8832 -1.84202 42.4463
v -11.0397 -1.79977 41.1369
v -11.6558 -2.9566 40.5994
v -13.0135 -1.05132 40.3368
v -13.6157 -2.27745 41.1309
v -13.1784 -4.70672 42.4362
v -13.1445 -3.16647 43.1812
v -10.3277 -3.60957 42.1572
v -10.3583 -4.70998 41.3361
v -13.0229 -4.60472 41.3978
v -12.2835 -6.73548 42.6273
v -9.81902 -5.60651 43.4285
v -9.60766 -5.34923 42.1449
v -11.9009 -5.35923 40.8364
v -12.0096 -6.78956 41.6364
v -10.8233 -8.94212 42.826
v -11.2826 -7.44126 43.6867
v -7.64513 -10.0587 44.527
v -8.22484 -8.14431 43.9816
v -8.54751 -6.98008 43.2007
v -8.7052 -7.01952 41.8912
v -9.95375 -6.73927 41.1052
v -10.6823 -8.73662 41.8875
v -7.19515 -8.24476 42.9116
v -6.80685 -9.3433 41.8771
v -9.63769 -9.14211 41.4676
v -9.05493 -10.4202 42.1372
v -7.10504 -12.07 43.4103
v -8.13305 -10.8 44.1862
v -5.76658 -9.72758 44.1826
v -5.70895 -9.40024 42.8992
v -7.15306 -11.8015 42.3842
v -5.10262 -13.0321 43.6736
v -1.64447 -12.527 45.2847
v -3.12228 -11.1432 44.7364
v -3.97877 -10.2907 43.9552
v -4.09747 -10.4024 42.6455
v -6.09088 -11.4559 41.7658
v -5.99985 -11.8458 41.9678
v -5.0077 -12.869 42.6505
v -2.61144 -13.7944 43.8381
v -3.9679 -12.9209 44.6932
v -2.1788 -10.7221 43.6659
v -2.97855 -11.196 42.3891
v -5.28446 -11.2759 41.8432
v -2.68208 -13.5386 42.8944
v -0.207308 -11.3096 44.9366
v -0.31604 -10.9964 43.6536
v 0.671097 -12.0043 42.6101
v -1.63127 -13.1836 42.4722
v -0.355564 -13.7992 43.143
v 2.23404 -13.8276 44.4186
v 0.59244 -13.5059 45.1918
v 4.77632 -11.6937 46.0409
v 2.77599 -11.2327 45.4886
v 1.62723 -10.913 44.7094
v 0.885288 -11.2007 43.2808
v 1.98827 -13.6539 43.3887
v 4.37194 -13.294 44.6857
v 3.40484 -10.395 44.4201
v 4.53214 -10.4387 43.6037
v 4.72384 -11.0557 43.1176
v 2.59614 -12.7118 42.7726
v 2.91067 -12.9555 42.9743
v 4.33089 -13.1131 43.6575
v 6.80637 -12.2791 44.8501
v 5.15977 -12.494 45.6993
v 5.41042 -9.93351 45.6909
v 5.16081 -9.71499 44.4078
v 6.54511 -12.1531 43.9013
v 9.91783 -7.81934 46.7927
v 7.95441 -8.40536 46.2408
v 6.80972 -8.68534 45.4635
v 6.84675 -8.84349 44.154
v 8.15328 -8.83481 43.6159
v 7.11816 -11.216 43.4767
v 8.50533 -10.8703 44.1486
v 10.5441 -9.22185 45.4272
v 9.04729 -10.0435 46.1976
v 8.0974 -7.3536 45.1743
v 9.08907 -6.84438 44.3555
v 10.2202 -9.26756 44.3939
v 11.8408 -7.45807 45.697
v 9.61228 -5.95682 46.4455
v 9.28574 -5.89271 45.1621
v 10.6781 -5.52711 44.1233
v 10.0955 -8.14909 43.7796
v 10.4896 -8.14176 43.9807
v 11.6887 -7.35631 44.6647
v 13.0823 -5.09426 45.8616
v 11.9294 -6.35958 46.7051
v 12.4843 -1.92201 47.5439
v 11.074 -3.36871 46.9957
v 10.2137 -4.18486 46.2176
v 10.3243 -4.30324 44.9084
v 12.7824 -5.21352 44.9079
v 10.6763 -2.39076 45.9286
v 11.2833 -1.47372 45.1073
v 11.9103 -1.62786 44.6221
v 12.6232 -4.13626 44.4812
v 13.4765 -2.97272 45.1541
v 14.0038 -0.374699 46.4361
v 13.369 -1.99139 47.2037
v 11.2989 -0.426448 47.1999
v 10.9835 -0.533176 45.9163
v 13.7803 -0.645014 45.3996
v 13.8773 1.79965 46.7082
v 11.8041 4.50475 48.2987
v 11.2852 2.57318 47.7535
v 10.9444 1.41173 46.9721
v 11.0992 1.36169 45.6626
v 11.7567 2.52415 45.1287
v 12.9735 0.143705 44.7866
v 13.2732 0.394619 44.987
v 13.699 1.76694 45.6721
v 13.4343 3.97497 46.9139
v 13.2519 2.67701 47.7105
v 10.4646 3.19984 46.683
v 10.5418 4.29283 45.861
v 13.1795 4.10884 45.914
v 12.4787 6.43358 47.0955
v 10.0353 5.21337 47.954
v 9.81332 4.9661 46.6706
v 12.1118 4.87316 45.3603
v 12.2854 6.28242 46.1595
v 11.5796 6.97021 48.2099
v 8.01062 9.76999 49.0566
v 8.53861 7.81043 48.5075
v 8.81432 6.6359 47.7265
v 8.97412 6.66817 46.4169
v 10.2229 6.32274 45.6283
v 11.0396 8.27264 46.4061
v 9.54587 10.2321 47.7181
v 7.51362 7.95295 47.4373
v 7.1499 9.08449 46.4064
v 9.98857 8.75151 45.9933
v 9.44249 10.0833 46.6796
v 7.80614 11.6322 47.9218
v 8.52974 10.4901 48.7154
v 6.1505 9.49344 48.7079
v 6.07719 9.17028 47.4249
v 7.55556 11.5538 46.92
v 5.48801 12.9223 48.1038
v 2.12219 12.4517 49.8122
v 3.5786 11.0034 49.2598
v 4.38325 10.126 48.4809
v 4.50586 10.2333 47.1713
v 6.54346 11.2062 46.291
v 6.47797 11.595 46.4914
v 5.47742 12.6632 47.1654
v 4.49612 12.7452 49.2162
v 2.60008 10.6248 48.1914
v 3.43592 11.0627 46.912
v 5.74446 11.0507 46.3665
v 3.24946 13.4078 47.4131
v 0.767711 13.9847 48.7001
v 0.653066 11.2922 49.4623
v 0.749847 10.9748 48.1792
v -0.217261 12.0233 47.1383
v 2.13796 13.1081 46.9995
v 0.921119 13.7735 47.6668
v -1.46258 13.9181 48.9688
v -0.0808564 13.5205 49.7201
v -4.28741 11.8796 50.5638
v -2.31297 11.3394 50.012
v -1.19407 10.9721 49.2349
v -0.460413 11.2279 47.81
v -1.4634 13.7384 47.9331
v -4.03412 13.447 49.1125
v -2.99096 10.5214 48.9457
v -4.10055 10.6133 48.1267
v -4.26562 11.2375 47.6411
v -2.07457 12.8092 47.2963
v -2.37717 13.0663 47.4973
v -3.83409 13.2524 48.1713
v -4.64272 12.6924 50.2226
v -5.01501 10.1352 50.2168
v -4.77153 9.90837 48.9334
v -6.02776 12.4105 48.4201
v -8.33384 11.2578 49.711
v -9.58393 8.22869 51.3151
v -7.62583 8.70806 50.7675
v -6.46182 8.94841 49.9891
v -6.49301 9.10748 48.6798
v -7.80795 9.14552 48.1429
v -6.69692 11.2066 47.88
v -8.05169 11.2138 48.6727
v -9.99819 9.79125 49.9759
v -8.65392 10.3886 50.7245
v -7.80252 7.66987 49.7
v -8.8012 7.21335 48.8784
v -9.87075 9.66466 48.9386
v -11.6955 7.76564 50.122
v -9.36858 6.3307 50.9713
v -9.0444 6.25477 49.6876
v -10.0639 8.3118 48.3786
v -11.391 7.78163 49.1773
v -11.6586 6.83612 51.2291
v -12.403 2.40788 52.0704
v -10.9415 3.77516 51.525
v -10.0383 4.5824 50.7436
v -10.1432 4.7068 49.434
v -10.4419 5.95398 48.6475
v -12.5495 5.73668 49.4276
v -13.6013 3.35053 50.7206
v -10.5758 2.81089 50.4544
v -11.3907 1.974 49.4203
v -12.4611 4.60139 49.011
v -13.3466 3.52996 49.6789
v -13.9447 1.17077 50.9811
v -13.2836 2.51982 51.7294
v -11.2752 0.8748 51.7254
v -10.9561 0.967063 50.4422
v -13.7628 1.17168 49.9444
v -13.9581 -1.49977 51.1324
v -11.9616 -4.06676 52.8283
v -11.376 -2.11941 52.2787
v -10.9895 -0.978388 51.4979
v -11.1423 -0.92125 50.1883
v -12.9684 0.40668 49.308
v -13.278 0.151449 49.51
v -13.739 -1.24649 50.1838
v -13.3442 -2.14642 52.2355
v -10.5805 -2.78375 51.2088
v -11.3598 -2.27225 49.9314
v -12.4506 -0.235433 49.3852
v -13.3329 -3.56156 50.4349
v -12.6118 -6.099 51.7281
v -10.2374 -4.8118 52.4792
v -10.0044 -4.57623 51.1962
v -10.4725 -5.90774 50.1529
v -12.545 -4.36918 50.0158
v -12.5423 -5.76753 50.6846
v -11.4908 -7.98662 51.9857
v -11.8545 -6.5 52.7346
v -8.37994 -9.45067 53.5835
v -8.85229 -7.45113 53.0309
v -9.07105 -6.28255 52.2522
v -9.65678 -5.7445 50.8238
v -11.3591 -7.85584 50.9505
v -10.105 -9.70382 52.1796
v -7.82007 -7.64782 51.9629
v -7.36207 -8.67711 51.1461
v -7.83107 -9.12129 50.6602
v -10.2605 -7.94086 50.3146
v -10.3381 -8.33317 50.5166
v -9.80617 -9.70433 51.1905
v -8.12866 -11.4473 52.3793
v -8.92885 -10.1478 53.2418
v -6.51911 -9.24316 53.2338
v -6.43384 -8.92231 51.9507
v -8.01975 -11.2331 51.442
v -2.63829 -12.351 54.3348
v -4.02641 -10.8501 53.7833
v -4.78223 -9.94739 53.0063
v -4.90748 -10.0506 51.6968
v -4.32335 -11.2185 51.1587
v -6.90923 -11.3461 51.0204
v -6.00676 -12.4282 51.6902
v -3.76342 -13.4785 52.9893
v -5.01311 -12.5546 53.7403
v -3.01837 -10.5138 52.7171
v -2.12701 -11.1773 51.8977
v -3.75882 -13.2883 51.9569
v -1.58802 -13.9184 53.1886
v -1.09538 -11.2547 53.9883
v -1.18244 -10.9334 52.705
v -0.239539 -12.0207 51.6661
v -2.85645 -12.6558 51.3216
v -2.67272 -13.0065 51.5228
v -1.39194 -13.7274 52.1976
v 1.06244 -13.9995 53.3912
v -0.432836 -13.511 54.2478
v 3.79012 -12.0501 55.0864
v 1.87802 -11.4218 54.5392
v 0.759866 -11.0113 53.7605
v 0.702271 -11.1628 52.4512
v 0.960619 -13.7702 52.449
v 2.57362 -10.6344 53.4714
v 3.6615 -10.7747 52.6496
v 3.80116 -11.4049 52.1646
v 1.87405 -13.151 52.0247
v 3.27323 -13.4082 52.6957
v 5.75851 -12.7675 53.9688
v 4.11886 -12.8744 54.7462
v 4.61052 -10.3244 54.7427
v 4.37556 -10.0886 53.4592
v 5.50184 -12.6527 52.9427
v 7.69272 -11.691 54.2397
v 9.26145 -8.59428 55.8421
v 7.29678 -8.9845 55.2966
v 6.10276 -9.19325 54.5149
v 6.12602 -9.35437 53.2054
v 7.46123 -9.42905 52.6718
v 5.85554 -11.5776 52.3286
v 6.21563 -11.734 52.5293
v 7.61869 -11.5201 53.212
v 9.76356 -10.0889 54.4023
v 8.25968 -10.7023 55.2536
v 7.49493 -7.97318 54.2258
v 8.51285 -7.55622 53.4046
v 9.50283 -10.0133 53.4555
v 9.11167 -6.6992 55.4967
v 8.79213 -6.6088 54.2134
v 10.1881 -6.37956 53.1708
v 9.80449 -8.96226 53.0294
v 11.0554 -8.25942 53.7011
v 12.5818 -6.15593 54.9789
v 11.3684 -7.31067 55.7523
v 9.84789 -4.97439 55.2693
v 10.333 -4.30932 54.1182
v 12.294 -6.26014 53.9479
v 13.3779 -4.10632 55.2533
v 12.8292 -4.10782 56.1317
v 10.7782 -4.21091 56.0501
v 11.1401 -2.33486 54.163
v 11.7545 -2.53478 53.677
v 11.8866 -5.20051 53.3354
v 12.2628 -5.0959 53.5358
v 13.2103 -4.03597 54.2192
v 13.957 -1.51962 55.4127
v 13.6523 -0.695203 56.3457
v 12.4752 -2.50759 56.6572
v 11.5027 -0.610973 56.4605
v 10.7533 -2.5193 55.3795
v 10.9121 -1.39901 54.9677
v 13.7023 -1.67945 54.4616
v 10.9809 0.498319 55.6961
v 11.9181 1.56195 54.1768
v 13.0441 -0.538559 53.9087
v 13.7823 0.664219 54.7069
v 10.7875 2.45795 56.3545
v 11.1178 1.49089 54.8514
v 13.4669 2.99458 54.9539
v 13.3538 4.31636 56.1351
v 10.1521 4.24047 56.2833
v 10.3547 4.22537 55.2164
v 10.6866 5.51414 54.6819
v 11.2631 6.45786 54.7255
v 12.704 3.87071 54.542
v 12.7637 5.28478 55.225
v 9.29062 5.92776 55.7389
v 11.6394 7.42114 55.4671
v 8.1845 7.34173 56.2112
v 8.19908 8.78867 55.1833
v 10.2046 9.28504 55.7127
v 6.87378 8.56932 56.5114
v 7.71303 8.31137 55.7041
v 8.48292 10.8802 55.9604
v 4.78342 11.0356 55.6815
v 8.84095 9.57804 55.1709
v 6.51394 12.1749 56.2177
v 4.47271 10.2807 56.3647
v 5.3527 12.1579 55.7965
v 4.35298 13.0619 56.4285
v 1.65892 11.2241 56.5302
v 3.18306 12.3952 55.8642
v 0.996192 13.4422 56.4161
v 0.76711 12.0033 56.1815
v -3.23432 11.5835 56.6752
v -2.26429 12.7405 56.4963
v -12.3133 2.4696 5.57387
v -12.8166 5.31979 5.0343
v -12.9152 0.284854 6.33431
v -13.6007 1.17751 5.87497
v -12.3053 0.00109451 6.48625
f 7 6 4
f 3 2 1
f 8 27 26
f 26 27 25
f 25 27 24
f 24 27 23
f 23 27 22
f 22 27 21
f 21 27 20
f 20 27 19
f 19 27 18
f 8 9 27
f 27 9 10
f 27 10 11
f 27 11 12
f 27 12 13
f 13 14 27
f 27 14 15
f 27 15 16
f 27 16 17
f 27 17 18
f 6 37 38
f 6 38 39
f 6 7 37
f 37 7 36
f 36 7 35
f 35 7 34
f 34 7 33
f 33 7 32
f 32 7 1
f 32 1 31
f 31 1 30
f 30 1 2
f 2 28 29
f 2 47 48
f 2 48 28
f 2 3 47
f 47 3 46
f 46 3 45
f 45 3 44
f 44 3 43
f 43 3 42
f 42 3 5
f 42 5 41
f 41 5 4
f 41 4 40
f 40 4 6
f 6 39 40
f 29 30 2
f 49 29 28
f 49 28 69
f 69 28 68
f 68 28 48
f 68 48 47
f 68 47 67
f 67 47 46
f 67 46 66
f 66 46 45
f 66 45 65
f 65 45 44
f 65 44 64
f 64 44 43
f 64 43 63
f 63 43 42
f 63 42 62
f 62 42 41
f 62 41 61
f 61 41 60
f 60 41 40
f 60 40 39
f 60 39 59
f 59 39 58
f 58 39 38
f 58 38 37
f 58 37 57
f 57 37 36
f 57 36 56
f 56 36 35
f 56 35 55
f 55 35 34
f 55 34 54
f 54 34 33
f 54 33 53
f 53 33 32
f 53 32 52
f 52 32 31
f 52 31 51
f 51 31 50
f 50 31 30
f 50 30 29
f 50 29 49
f 26 89 8
f 8 89 70
f 8 70 9
f 9 70 71
f 9 71 10
f 10 71 72
f 10 72 11
f 11 72 73
f 11 73 12
f 12 73 74
f 12 74 13
f 13 74 75
f 13 75 14
f 14 75 76
f 14 76 15
f 15 76 77
f 15 77 16
f 16 77 78
f 16 78 17
f 17 78 79
f 17 79 18
f 18 79 80
f 18 80 81
f 18 81 19
f 19 81 82
f 19 82 20
f 20 82 83
f 20 83 21
f 21 83 84
f 21 84 22
f 22 84 85
f 22 85 23
f 23 85 86
f 23 86 24
f 24 86 87
f 24 87 25
f 25 87 88
f 25 88 26
f 26 88 89
f 173 73 72
f 173 72 172
f 172 72 100
f 100 72 71
f 100 71 99
f 99 71 70
f 99 70 98
f 98 70 97
f 97 70 89
f 97 89 88
f 73 173 74
f 74 173 90
f 74 90 75
f 75 90 91
f 75 91 76
f 76 91 92
f 76 92 77
f 92 78 77
f 92 79 78
f 92 81 80
f 92 82 81
f 82 92 83
f 83 92 93
f 83 93 94
f 83 94 95
f 83 95 96
f 83 96 97
f 83 97 84
f 84 97 85
f 85 97 86
f 86 97 87
f 87 97 88
f 80 79 92
f 198 101 102
f 90 1428 1431
f 90 1431 1434
f 1434 1432 1433
f 1304 1299 1298
f 1298 1299 1280
f 1280 1299 1276
f 1232 1227 1226
f 1226 1227 1208
f 1208 1227 1204
f 1122 1118 1117
f 1117 1118 1098
f 1098 1118 1095
f 1050 1045 1044
f 1044 1045 1026
f 1026 1045 1022
f 866 862 861
f 861 862 842
f 842 862 839
f 794 789 788
f 788 789 771
f 771 789 767
f 684 680 679
f 679 680 659
f 659 680 656
f 608 604 603
f 603 604 583
f 583 604 580
f 493 488 487
f 487 488 468
f 468 488 464
f 299 294 293
f 293 294 274
f 274 294 270
f 223 218 217
f 217 218 206
f 105 206 104
f 104 206 179
f 104 179 180
f 123 103 104
f 123 104 180
f 105 185 186
f 182 181 187
f 101 198 200
f 101 200 201
f 186 185 189
f 189 185 191
f 189 191 199
f 199 191 106
f 107 199 106
f 108 109 107
f 196 110 1439
f 196 1439 111
f 196 111 112
f 196 112 200
f 200 112 120
f 120 112 119
f 119 112 113
f 119 113 118
f 118 113 114
f 118 114 115
f 115 116 118
f 118 116 117
f 120 1438 200
f 1438 121 201
f 1438 201 200
f 122 123 188
f 188 123 184
f 1408 171 100
f 100 171 172
f 1408 100 99
f 99 98 1395
f 99 1395 170
f 170 1395 1394
f 98 97 1396
f 668 690 669
f 651 669 652
f 631 652 632
f 613 632 614
f 592 614 593
f 575 593 576
f 554 576 555
f 537 555 538
f 516 538 517
f 497 517 498
f 476 498 477
f 459 477 460
f 439 460 440
f 421 440 422
f 400 422 401
f 382 401 383
f 360 383 361
f 343 361 344
f 322 344 323
f 304 323 305
f 282 305 283
f 265 283 266
f 246 266 247
f 227 247 228
f 175 203 176
f 97 1405 1397
f 1397 1405 1401
f 1401 1405 1406
f 1405 97 96
f 1405 96 1409
f 96 95 1415
f 1415 95 1417
f 1417 1420 1421
f 1417 95 1420
f 1420 1426 1421
f 1421 1426 1423
f 1421 1423 1418
f 1420 95 94
f 1426 1429 1432
f 1426 1432 1423
f 1426 94 93
f 1426 93 1429
f 1429 93 1432
f 1432 93 1433
f 1434 1433 92
f 93 92 1433
f 1434 92 91
f 1434 91 90
f 90 173 1428
f 1428 173 1425
f 1425 173 1422
f 1422 173 172
f 1422 172 1419
f 1419 172 171
f 1419 171 1416
f 1416 171 1414
f 1414 171 1408
f 1414 1408 1407
f 1407 1408 170
f 1407 170 1404
f 1404 170 1394
f 1404 1394 1400
f 1400 1394 1393
f 1393 1394 1386
f 1393 1386 1381
f 1393 1381 1385
f 1385 1381 169
f 1385 169 1380
f 1380 169 1371
f 1380 1371 1375
f 1375 1371 1370
f 1370 1371 1362
f 1370 1362 1357
f 1370 1357 1361
f 1361 1357 168
f 1361 168 1356
f 1356 168 1345
f 1356 1345 1351
f 1351 1345 1344
f 1344 1345 1338
f 1344 1338 1337
f 1337 1338 1333
f 1337 1333 167
f 1337 167 1332
f 1332 167 1321
f 1332 1321 1325
f 1325 1321 1320
f 1320 1321 1314
f 1320 1314 1313
f 1313 1314 1307
f 1313 1307 1301
f 1313 1301 1306
f 1306 1301 166
f 1306 166 1300
f 1300 166 1288
f 1300 1288 1295
f 1295 1288 1287
f 1287 1288 1283
f 1287 1283 1278
f 1287 1278 1282
f 1282 1278 165
f 1282 165 1277
f 1277 165 1266
f 1277 1266 1270
f 1270 1266 1265
f 1265 1266 1261
f 1265 1261 1253
f 1265 1253 1260
f 1260 1253 164
f 1260 164 1252
f 1252 164 1242
f 1252 1242 1248
f 1248 1242 1241
f 1241 1242 1235
f 1241 1235 1229
f 1241 1229 1234
f 1234 1229 163
f 1234 163 1228
f 1228 163 1216
f 1228 1216 1223
f 1223 1216 1215
f 1215 1216 1211
f 1215 1211 1210
f 1210 1211 1206
f 1210 1206 162
f 1210 162 1205
f 1205 162 1194
f 1205 1194 1198
f 1198 1194 1193
f 1193 1194 1189
f 1193 1189 1188
f 1188 1189 1180
f 1188 1180 1175
f 1188 1175 1179
f 1179 1175 161
f 1179 161 1174
f 1174 161 1163
f 1174 1163 1169
f 1169 1163 1162
f 1162 1163 1156
f 1162 1156 1151
f 1162 1151 1155
f 1155 1151 160
f 1155 160 1150
f 1150 160 1139
f 1150 1139 1143
f 1143 1139 1138
f 1138 1139 1132
f 1138 1132 1125
f 1138 1125 1131
f 1131 1125 159
f 1131 159 1124
f 1124 159 1114
f 1124 1114 1119
f 1119 1114 1113
f 1113 1114 1106
f 1113 1106 1101
f 1113 1101 1105
f 1105 1101 158
f 1105 158 1100
f 1100 158 1089
f 1100 1089 1096
f 1096 1089 1088
f 1088 1089 1084
f 1088 1084 1083
f 1083 1084 1079
f 1083 1079 1071
f 1083 1071 1078
f 1078 1071 157
f 1078 157 1070
f 1070 157 1060
f 1070 1060 1066
f 1066 1060 1059
f 1059 1060 1053
f 1059 1053 1047
f 1059 1047 1052
f 1052 1047 156
f 1052 156 1046
f 1046 156 1034
f 1046 1034 1041
f 1041 1034 1033
f 1033 1034 1029
f 1033 1029 1024
f 1033 1024 1028
f 1028 1024 155
f 1028 155 1023
f 1023 155 1012
f 1023 1012 1016
f 1016 1012 1011
f 1011 1012 1007
f 1011 1007 998
f 1011 998 1006
f 1006 998 154
f 1006 154 997
f 997 154 988
f 997 988 993
f 993 988 987
f 987 988 981
f 987 981 980
f 980 981 974
f 980 974 153
f 980 153 973
f 973 153 962
f 973 962 969
f 969 962 961
f 961 962 957
f 961 957 956
f 956 957 950
f 956 950 943
f 956 943 949
f 949 943 152
f 949 152 942
f 942 152 933
f 942 933 937
f 937 933 932
f 932 933 924
f 932 924 919
f 932 919 923
f 923 919 151
f 923 151 918
f 918 151 907
f 918 907 913
f 913 907 906
f 906 907 900
f 906 900 895
f 906 895 899
f 899 895 150
f 899 150 894
f 894 150 883
f 894 883 887
f 887 883 882
f 882 883 876
f 882 876 869
f 882 869 875
f 875 869 149
f 875 149 868
f 868 149 858
f 868 858 863
f 863 858 857
f 857 858 850
f 857 850 849
f 849 850 845
f 849 845 148
f 849 148 844
f 844 148 833
f 844 833 840
f 840 833 832
f 832 833 828
f 832 828 827
f 827 828 823
f 827 823 815
f 827 815 822
f 822 815 147
f 822 147 814
f 814 147 804
f 814 804 810
f 810 804 803
f 803 804 797
f 803 797 791
f 803 791 796
f 796 791 146
f 796 146 790
f 790 146 779
f 790 779 785
f 785 779 778
f 778 779 774
f 778 774 769
f 778 769 773
f 773 769 145
f 773 145 768
f 768 145 757
f 768 757 761
f 761 757 756
f 756 757 752
f 756 752 743
f 756 743 751
f 751 743 144
f 751 144 742
f 742 144 733
f 742 733 738
f 738 733 732
f 732 733 726
f 732 726 725
f 725 726 719
f 725 719 143
f 725 143 718
f 718 143 707
f 718 707 714
f 714 707 706
f 706 707 702
f 706 702 701
f 701 702 695
f 701 695 687
f 701 687 694
f 694 687 142
f 694 142 686
f 686 142 676
f 686 676 681
f 681 676 675
f 675 676 667
f 675 667 662
f 675 662 666
f 666 662 141
f 666 141 661
f 661 141 649
f 661 649 657
f 657 649 648
f 648 649 644
f 648 644 639
f 648 639 643
f 643 639 140
f 643 140 638
f 638 140 626
f 638 626 630
f 630 626 625
f 625 626 619
f 625 619 611
f 625 611 618
f 618 611 139
f 618 139 610
f 610 139 600
f 610 600 605
f 605 600 599
f 599 600 591
f 599 591 590
f 590 591 586
f 590 586 138
f 590 138 585
f 585 138 573
f 585 573 581
f 581 573 572
f 572 573 568
f 572 568 567
f 567 568 563
f 567 563 553
f 567 553 562
f 562 553 137
f 562 137 552
f 552 137 543
f 552 543 548
f 548 543 542
f 542 543 535
f 542 535 528
f 542 528 534
f 534 528 136
f 534 136 527
f 527 136 515
f 527 515 523
f 523 515 514
f 514 515 510
f 514 510 503
f 514 503 509
f 509 503 135
f 509 135 502
f 502 135 490
f 502 490 495
f 495 490 489
f 489 490 484
f 489 484 475
f 489 475 483
f 483 475 134
f 483 134 474
f 474 134 466
f 474 466 470
f 470 466 465
f 465 466 457
f 465 457 456
f 456 457 452
f 456 452 133
f 456 133 451
f 451 133 438
f 451 438 447
f 447 438 437
f 437 438 433
f 437 433 432
f 432 433 427
f 432 427 419
f 432 419 426
f 426 419 132
f 426 132 418
f 418 132 408
f 418 408 412
f 412 408 407
f 407 408 399
f 407 399 394
f 407 394 398
f 398 394 131
f 398 131 393
f 393 131 380
f 393 380 387
f 387 380 379
f 379 380 374
f 379 374 369
f 379 369 373
f 373 369 130
f 373 130 368
f 368 130 355
f 368 355 359
f 359 355 354
f 354 355 349
f 354 349 341
f 354 341 348
f 348 341 129
f 348 129 340
f 340 129 330
f 340 330 334
f 334 330 329
f 329 330 321
f 329 321 320
f 320 321 316
f 320 316 128
f 320 128 315
f 315 128 302
f 315 302 309
f 309 302 301
f 301 302 296
f 301 296 295
f 295 296 290
f 295 290 281
f 295 281 289
f 289 281 127
f 289 127 280
f 280 127 272
f 280 272 276
f 276 272 271
f 271 272 263
f 271 263 258
f 271 258 262
f 262 258 126
f 262 126 257
f 257 126 245
f 257 245 253
f 253 245 244
f 244 245 240
f 244 240 233
f 244 233 239
f 239 233 125
f 239 125 232
f 232 125 220
f 232 220 225
f 225 220 219
f 219 220 214
f 219 214 208
f 219 208 213
f 213 208 124
f 213 124 207
f 207 124 174
f 207 174 180
f 180 174 184
f 180 184 123
f 123 122 103
f 103 122 198
f 103 198 102
f 174 202 184
f 184 202 183
f 184 183 188
f 202 174 124
f 202 124 215
f 215 124 208
f 215 208 214
f 215 214 226
f 226 214 220
f 226 220 125
f 226 125 241
f 241 125 233
f 241 233 240
f 241 240 254
f 254 240 245
f 254 245 126
f 254 126 264
f 264 126 258
f 264 258 263
f 264 263 277
f 277 263 272
f 277 272 127
f 277 127 291
f 291 127 281
f 291 281 290
f 291 290 303
f 303 290 296
f 303 296 302
f 303 302 317
f 317 302 128
f 317 128 316
f 317 316 331
f 331 316 321
f 331 321 330
f 331 330 342
f 342 330 129
f 342 129 341
f 342 341 356
f 356 341 349
f 356 349 355
f 356 355 370
f 370 355 130
f 370 130 369
f 370 369 381
f 381 369 374
f 381 374 380
f 381 380 395
f 395 380 131
f 395 131 394
f 395 394 409
f 409 394 399
f 409 399 408
f 409 408 420
f 420 408 132
f 420 132 419
f 420 419 434
f 434 419 427
f 434 427 433
f 434 433 448
f 448 433 438
f 448 438 133
f 448 133 458
f 458 133 452
f 458 452 457
f 458 457 471
f 471 457 466
f 471 466 134
f 471 134 485
f 485 134 475
f 485 475 484
f 485 484 496
f 496 484 490
f 496 490 135
f 496 135 511
f 511 135 503
f 511 503 510
f 511 510 524
f 524 510 515
f 524 515 136
f 524 136 536
f 536 136 528
f 536 528 535
f 536 535 549
f 549 535 543
f 549 543 137
f 549 137 564
f 564 137 553
f 564 553 563
f 564 563 574
f 574 563 568
f 574 568 573
f 574 573 587
f 587 573 138
f 587 138 586
f 587 586 601
f 601 586 591
f 601 591 600
f 601 600 612
f 612 600 139
f 612 139 611
f 612 611 627
f 627 611 619
f 627 619 626
f 627 626 640
f 640 626 140
f 640 140 639
f 640 639 650
f 650 639 644
f 650 644 649
f 650 649 663
f 663 649 141
f 663 141 662
f 663 662 677
f 677 662 667
f 677 667 676
f 677 676 688
f 688 676 142
f 688 142 687
f 688 687 703
f 703 687 695
f 703 695 702
f 703 702 715
f 715 702 707
f 715 707 143
f 715 143 727
f 727 143 719
f 727 719 726
f 727 726 739
f 739 726 733
f 739 733 144
f 739 144 753
f 753 144 743
f 753 743 752
f 753 752 762
f 762 752 757
f 762 757 145
f 762 145 775
f 775 145 769
f 775 769 774
f 775 774 786
f 786 774 779
f 786 779 146
f 786 146 798
f 798 146 791
f 798 791 797
f 798 797 811
f 811 797 804
f 811 804 147
f 811 147 824
f 824 147 815
f 824 815 823
f 824 823 834
f 834 823 828
f 834 828 833
f 834 833 846
f 846 833 148
f 846 148 845
f 846 845 859
f 859 845 850
f 859 850 858
f 859 858 870
f 870 858 149
f 870 149 869
f 870 869 884
f 884 869 876
f 884 876 883
f 884 883 896
f 896 883 150
f 896 150 895
f 896 895 908
f 908 895 900
f 908 900 907
f 908 907 920
f 920 907 151
f 920 151 919
f 920 919 934
f 934 919 924
f 934 924 933
f 934 933 944
f 944 933 152
f 944 152 943
f 944 943 958
f 958 943 950
f 958 950 957
f 958 957 970
f 970 957 962
f 970 962 153
f 970 153 982
f 982 153 974
f 982 974 981
f 982 981 994
f 994 981 988
f 994 988 154
f 994 154 1008
f 1008 154 998
f 1008 998 1007
f 1008 1007 1017
f 1017 1007 1012
f 1017 1012 155
f 1017 155 1030
f 1030 155 1024
f 1030 1024 1029
f 1030 1029 1042
f 1042 1029 1034
f 1042 1034 156
f 1042 156 1054
f 1054 156 1047
f 1054 1047 1053
f 1054 1053 1067
f 1067 1053 1060
f 1067 1060 157
f 1067 157 1080
f 1080 157 1071
f 1080 1071 1079
f 1080 1079 1090
f 1090 1079 1084
f 1090 1084 1089
f 1090 1089 1102
f 1102 1089 158
f 1102 158 1101
f 1102 1101 1115
f 1115 1101 1106
f 1115 1106 1114
f 1115 1114 1126
f 1126 1114 159
f 1126 159 1125
f 1126 1125 1140
f 1140 1125 1132
f 1140 1132 1139
f 1140 1139 1152
f 1152 1139 160
f 1152 160 1151
f 1152 1151 1164
f 1164 1151 1156
f 1164 1156 1163
f 1164 1163 1176
f 1176 1163 161
f 1176 161 1175
f 1176 1175 1190
f 1190 1175 1180
f 1190 1180 1189
f 1190 1189 1199
f 1199 1189 1194
f 1199 1194 162
f 1199 162 1212
f 1212 162 1206
f 1212 1206 1211
f 1212 1211 1224
f 1224 1211 1216
f 1224 1216 163
f 1224 163 1236
f 1236 163 1229
f 1236 1229 1235
f 1236 1235 1249
f 1249 1235 1242
f 1249 1242 164
f 1249 164 1262
f 1262 164 1253
f 1262 1253 1261
f 1262 1261 1271
f 1271 1261 1266
f 1271 1266 165
f 1271 165 1284
f 1284 165 1278
f 1284 1278 1283
f 1284 1283 1296
f 1296 1283 1288
f 1296 1288 166
f 1296 166 1308
f 1308 166 1301
f 1308 1301 1307
f 1308 1307 1322
f 1322 1307 1314
f 1322 1314 1321
f 1322 1321 1334
f 1334 1321 167
f 1334 167 1333
f 1334 1333 1346
f 1346 1333 1338
f 1346 1338 1345
f 1346 1345 1358
f 1358 1345 168
f 1358 168 1357
f 1358 1357 1372
f 1372 1357 1362
f 1372 1362 1371
f 1372 1371 1382
f 1382 1371 169
f 1382 169 1381
f 1382 1381 1387
f 1387 1381 1386
f 1387 1386 1395
f 1395 1386 1394
f 202 175 176
f 202 176 183
f 1387 1395 1396
f 1396 1395 98
f 175 202 215
f 175 215 203
f 203 215 226
f 203 226 228
f 228 226 227
f 227 226 241
f 227 241 247
f 247 241 254
f 247 254 246
f 246 254 264
f 246 264 266
f 266 264 265
f 265 264 277
f 265 277 283
f 283 277 291
f 283 291 282
f 282 291 303
f 282 303 305
f 305 303 304
f 304 303 317
f 304 317 323
f 323 317 331
f 323 331 322
f 322 331 342
f 322 342 344
f 344 342 343
f 343 342 356
f 343 356 361
f 361 356 370
f 361 370 360
f 360 370 381
f 360 381 383
f 383 381 382
f 382 381 395
f 382 395 401
f 401 395 409
f 401 409 400
f 400 409 420
f 400 420 422
f 422 420 421
f 421 420 434
f 421 434 440
f 440 434 448
f 440 448 439
f 439 448 458
f 439 458 460
f 460 458 459
f 459 458 471
f 459 471 477
f 477 471 485
f 477 485 476
f 476 485 496
f 476 496 498
f 498 496 497
f 497 496 511
f 497 511 517
f 517 511 524
f 517 524 516
f 516 524 536
f 516 536 538
f 538 536 537
f 537 536 549
f 537 549 555
f 555 549 564
f 555 564 554
f 554 564 574
f 554 574 576
f 576 574 575
f 575 574 587
f 575 587 593
f 593 587 601
f 593 601 592
f 592 601 612
f 592 612 614
f 614 612 613
f 613 612 627
f 613 627 632
f 632 627 640
f 632 640 631
f 631 640 650
f 631 650 652
f 652 650 651
f 651 650 663
f 651 663 669
f 669 663 677
f 669 677 668
f 668 677 688
f 668 688 690
f 690 688 689
f 689 688 703
f 689 703 715
f 689 715 708
f 708 715 727
f 708 727 728
f 728 727 739
f 728 739 753
f 728 753 744
f 744 753 762
f 744 762 763
f 763 762 775
f 763 775 786
f 763 786 780
f 780 786 798
f 780 798 799
f 799 798 811
f 799 811 824
f 799 824 816
f 816 824 834
f 816 834 835
f 835 834 846
f 835 846 859
f 835 859 851
f 851 859 870
f 851 870 871
f 871 870 884
f 871 884 896
f 871 896 888
f 888 896 908
f 888 908 909
f 909 908 920
f 909 920 934
f 909 934 925
f 925 934 944
f 925 944 945
f 945 944 958
f 945 958 970
f 945 970 963
f 963 970 982
f 963 982 983
f 983 982 994
f 983 994 1008
f 983 1008 999
f 999 1008 1017
f 999 1017 1018
f 1018 1017 1030
f 1018 1030 1042
f 1018 1042 1035
f 1035 1042 1054
f 1035 1054 1055
f 1055 1054 1067
f 1055 1067 1080
f 1055 1080 1072
f 1072 1080 1090
f 1072 1090 1091
f 1091 1090 1102
f 1091 1102 1115
f 1091 1115 1107
f 1107 1115 1126
f 1107 1126 1127
f 1127 1126 1140
f 1127 1140 1152
f 1127 1152 1144
f 1144 1152 1164
f 1144 1164 1165
f 1165 1164 1176
f 1165 1176 1190
f 1165 1190 1181
f 1181 1190 1199
f 1181 1199 1200
f 1200 1199 1212
f 1200 1212 1224
f 1200 1224 1217
f 1217 1224 1236
f 1217 1236 1237
f 1237 1236 1249
f 1237 1249 1262
f 1237 1262 1254
f 1254 1262 1271
f 1254 1271 1272
f 1272 1271 1284
f 1272 1284 1296
f 1272 1296 1289
f 1289 1296 1308
f 1289 1308 1309
f 1309 1308 1322
f 1309 1322 1334
f 1309 1334 1326
f 1326 1334 1346
f 1326 1346 1347
f 1347 1346 1358
f 1347 1358 1372
f 1347 1372 1363
f 1363 1372 1382
f 1363 1382 1396
f 1396 1382 1387
f 176 204 187
f 204 182 187
f 204 176 203
f 204 203 209
f 209 203 228
f 209 228 221
f 221 228 229
f 229 228 247
f 229 247 242
f 242 247 248
f 248 247 266
f 248 266 259
f 259 266 267
f 267 266 283
f 267 283 278
f 278 283 284
f 284 283 305
f 284 305 297
f 297 305 306
f 306 305 323
f 306 323 318
f 318 323 324
f 324 323 344
f 324 344 335
f 335 344 345
f 345 344 361
f 345 361 357
f 357 361 362
f 362 361 383
f 362 383 375
f 375 383 384
f 384 383 401
f 384 401 396
f 396 401 402
f 402 401 422
f 402 422 413
f 413 422 423
f 423 422 440
f 423 440 435
f 435 440 441
f 441 440 460
f 441 460 453
f 453 460 461
f 461 460 477
f 461 477 472
f 472 477 478
f 478 477 498
f 478 498 491
f 491 498 499
f 499 498 517
f 499 517 512
f 512 517 518
f 518 517 538
f 518 538 529
f 529 538 539
f 539 538 555
f 539 555 550
f 550 555 556
f 556 555 576
f 556 576 569
f 569 576 577
f 577 576 593
f 577 593 588
f 588 593 594
f 594 593 614
f 594 614 606
f 606 614 615
f 615 614 632
f 615 632 628
f 628 632 633
f 633 632 652
f 633 652 645
f 645 652 653
f 653 652 669
f 653 669 664
f 664 669 670
f 670 669 690
f 670 690 682
f 682 690 691
f 691 690 689
f 691 689 704
f 704 689 709
f 709 689 708
f 709 708 720
f 720 708 729
f 729 708 728
f 729 728 740
f 740 728 745
f 745 728 744
f 745 744 758
f 758 744 764
f 764 744 763
f 764 763 776
f 776 763 781
f 781 763 780
f 781 780 792
f 792 780 800
f 800 780 799
f 800 799 812
f 812 799 817
f 817 799 816
f 817 816 829
f 829 816 836
f 836 816 835
f 836 835 847
f 847 835 852
f 852 835 851
f 852 851 864
f 864 851 872
f 872 851 871
f 872 871 885
f 885 871 889
f 889 871 888
f 889 888 901
f 901 888 910
f 910 888 909
f 910 909 921
f 921 909 926
f 926 909 925
f 926 925 938
f 938 925 946
f 946 925 945
f 946 945 959
f 959 945 964
f 964 945 963
f 964 963 975
f 975 963 984
f 984 963 983
f 984 983 995
f 995 983 1000
f 1000 983 999
f 1000 999 1013
f 1013 999 1019
f 1019 999 1018
f 1019 1018 1031
f 1031 1018 1036
f 1036 1018 1035
f 1036 1035 1048
f 1048 1035 1056
f 1056 1035 1055
f 1056 1055 1068
f 1068 1055 1073
f 1073 1055 1072
f 1073 1072 1085
f 1085 1072 1092
f 1092 1072 1091
f 1092 1091 1103
f 1103 1091 1108
f 1108 1091 1107
f 1108 1107 1120
f 1120 1107 1128
f 1128 1107 1127
f 1128 1127 1141
f 1141 1127 1145
f 1145 1127 1144
f 1145 1144 1157
f 1157 1144 1166
f 1166 1144 1165
f 1166 1165 1177
f 1177 1165 1182
f 1182 1165 1181
f 1182 1181 1195
f 1195 1181 1201
f 1201 1181 1200
f 1201 1200 1213
f 1213 1200 1218
f 1218 1200 1217
f 1218 1217 1230
f 1230 1217 1238
f 1238 1217 1237
f 1238 1237 1250
f 1250 1237 1255
f 1255 1237 1254
f 1255 1254 1267
f 1267 1254 1273
f 1273 1254 1272
f 1273 1272 1285
f 1285 1272 1290
f 1290 1272 1289
f 1290 1289 1302
f 1302 1289 1310
f 1310 1289 1309
f 1310 1309 1323
f 1323 1309 1327
f 1327 1309 1326
f 1327 1326 1339
f 1339 1326 1348
f 1348 1326 1347
f 1348 1347 1359
f 1359 1347 1364
f 1364 1347 1363
f 1364 1363 1376
f 1376 1363 1388
f 1388 1363 1396
f 1388 1396 1397
f 1397 1396 97
f 204 177 182
f 210 204 209
f 221 229 230
f 242 248 249
f 259 267 268
f 278 284 285
f 297 306 307
f 318 324 325
f 335 345 346
f 357 362 363
f 375 384 385
f 396 402 403
f 413 423 424
f 435 441 442
f 453 461 462
f 472 478 479
f 491 499 500
f 512 518 519
f 529 539 540
f 550 556 557
f 569 577 578
f 588 594 595
f 606 615 616
f 628 633 634
f 645 653 654
f 664 670 671
f 682 691 692
f 704 709 710
f 720 729 730
f 740 745 746
f 758 764 765
f 776 781 782
f 792 800 801
f 812 817 818
f 829 836 837
f 847 852 853
f 864 872 873
f 885 889 890
f 901 910 911
f 921 926 927
f 938 946 947
f 959 964 965
f 975 984 985
f 995 1000 1001
f 1013 1019 1020
f 1031 1036 1037
f 1048 1056 1057
f 1068 1073 1074
f 1085 1092 1093
f 1103 1108 1109
f 1120 1128 1129
f 1141 1145 1146
f 1157 1166 1167
f 1177 1182 1183
f 1195 1201 1202
f 1213 1218 1219
f 1230 1238 1239
f 1250 1255 1256
f 1267 1273 1274
f 1285 1290 1291
f 1302 1310 1311
f 1323 1327 1328
f 1339 1348 1349
f 1359 1364 1365
f 1376 1388 1383
f 177 181 182
f 177 204 210
f 210 209 216
f 216 209 221
f 230 229 234
f 234 229 242
f 249 248 255
f 255 248 259
f 268 267 273
f 273 267 278
f 285 284 292
f 292 284 297
f 307 306 310
f 310 306 318
f 325 324 332
f 332 324 335
f 346 345 350
f 350 345 357
f 363 362 371
f 371 362 375
f 385 384 388
f 388 384 396
f 403 402 410
f 410 402 413
f 424 423 428
f 428 423 435
f 442 441 449
f 449 441 453
f 462 461 467
f 467 461 472
f 479 478 486
f 486 478 491
f 500 499 504
f 504 499 512
f 519 518 525
f 525 518 529
f 540 539 544
f 544 539 550
f 557 556 565
f 565 556 569
f 578 577 582
f 582 577 588
f 595 594 602
f 602 594 606
f 616 615 620
f 620 615 628
f 634 633 641
f 641 633 645
f 654 653 658
f 658 653 664
f 671 670 678
f 678 670 682
f 692 691 696
f 696 691 704
f 710 709 716
f 716 709 720
f 730 729 734
f 734 729 740
f 746 745 754
f 754 745 758
f 765 764 770
f 770 764 776
f 782 781 787
f 787 781 792
f 801 800 805
f 805 800 812
f 818 817 825
f 825 817 829
f 837 836 841
f 841 836 847
f 853 852 860
f 860 852 864
f 873 872 877
f 877 872 885
f 890 889 897
f 897 889 901
f 911 910 914
f 914 910 921
f 927 926 935
f 935 926 938
f 947 946 951
f 951 946 959
f 965 964 971
f 971 964 975
f 985 984 989
f 989 984 995
f 1001 1000 1009
f 1009 1000 1013
f 1020 1019 1025
f 1025 1019 1031
f 1037 1036 1043
f 1043 1036 1048
f 1057 1056 1061
f 1061 1056 1068
f 1074 1073 1081
f 1081 1073 1085
f 1093 1092 1097
f 1097 1092 1103
f 1109 1108 1116
f 1116 1108 1120
f 1129 1128 1133
f 1133 1128 1141
f 1146 1145 1153
f 1153 1145 1157
f 1167 1166 1170
f 1170 1166 1177
f 1183 1182 1191
f 1191 1182 1195
f 1202 1201 1207
f 1207 1201 1213
f 1219 1218 1225
f 1225 1218 1230
f 1239 1238 1243
f 1243 1238 1250
f 1256 1255 1263
f 1263 1255 1267
f 1274 1273 1279
f 1279 1273 1285
f 1291 1290 1297
f 1297 1290 1302
f 1311 1310 1315
f 1315 1310 1323
f 1328 1327 1335
f 1335 1327 1339
f 1349 1348 1352
f 1352 1348 1359
f 1365 1364 1373
f 1373 1364 1376
f 1383 1388 1398
f 1398 1388 1397
f 1398 1397 1401
f 177 178 186
f 177 186 181
f 177 210 205
f 205 210 216
f 216 221 222
f 222 221 230
f 234 242 243
f 243 242 249
f 255 259 260
f 260 259 268
f 273 278 279
f 279 278 285
f 292 297 298
f 298 297 307
f 310 318 319
f 319 318 325
f 332 335 336
f 336 335 346
f 350 357 358
f 358 357 363
f 371 375 376
f 376 375 385
f 388 396 397
f 397 396 403
f 410 413 414
f 414 413 424
f 428 435 436
f 436 435 442
f 449 453 454
f 454 453 462
f 467 472 473
f 473 472 479
f 486 491 492
f 492 491 500
f 504 512 513
f 513 512 519
f 525 529 530
f 530 529 540
f 544 550 551
f 551 550 557
f 565 569 570
f 570 569 578
f 582 588 589
f 589 588 595
f 602 606 607
f 607 606 616
f 620 628 629
f 629 628 634
f 641 645 646
f 646 645 654
f 658 664 665
f 665 664 671
f 678 682 683
f 683 682 692
f 696 704 705
f 705 704 710
f 716 720 721
f 721 720 730
f 734 740 741
f 741 740 746
f 754 758 759
f 759 758 765
f 770 776 777
f 777 776 782
f 787 792 793
f 793 792 801
f 805 812 813
f 813 812 818
f 825 829 830
f 830 829 837
f 841 847 848
f 848 847 853
f 860 864 865
f 865 864 873
f 877 885 886
f 886 885 890
f 897 901 902
f 902 901 911
f 914 921 922
f 922 921 927
f 935 938 939
f 939 938 947
f 951 959 960
f 960 959 965
f 971 975 976
f 976 975 985
f 989 995 996
f 996 995 1001
f 1009 1013 1014
f 1014 1013 1020
f 1025 1031 1032
f 1032 1031 1037
f 1043 1048 1049
f 1049 1048 1057
f 1061 1068 1069
f 1069 1068 1074
f 1081 1085 1086
f 1086 1085 1093
f 1097 1103 1104
f 1104 1103 1109
f 1116 1120 1121
f 1121 1120 1129
f 1133 1141 1142
f 1142 1141 1146
f 1153 1157 1158
f 1158 1157 1167
f 1170 1177 1178
f 1178 1177 1183
f 1191 1195 1196
f 1196 1195 1202
f 1207 1213 1214
f 1214 1213 1219
f 1225 1230 1231
f 1231 1230 1239
f 1243 1250 1251
f 1251 1250 1256
f 1263 1267 1268
f 1268 1267 1274
f 1279 1285 1286
f 1286 1285 1291
f 1297 1302 1303
f 1303 1302 1311
f 1315 1323 1324
f 1324 1323 1328
f 1335 1339 1340
f 1340 1339 1349
f 1352 1359 1360
f 1360 1359 1365
f 1373 1376 1377
f 1377 1376 1383
f 1399 1398 1401
f 178 177 205
f 211 205 216
f 222 230 231
f 231 230 234
f 243 249 250
f 250 249 255
f 260 268 269
f 269 268 273
f 279 285 286
f 286 285 292
f 298 307 308
f 308 307 310
f 319 325 326
f 326 325 332
f 336 346 347
f 347 346 350
f 358 363 364
f 364 363 371
f 376 385 386
f 386 385 388
f 397 403 404
f 404 403 410
f 414 424 425
f 425 424 428
f 436 442 443
f 443 442 449
f 454 462 463
f 463 462 467
f 473 479 480
f 480 479 486
f 492 500 501
f 501 500 504
f 513 519 520
f 520 519 525
f 530 540 541
f 541 540 544
f 551 557 558
f 558 557 565
f 570 578 579
f 579 578 582
f 589 595 596
f 596 595 602
f 607 616 617
f 617 616 620
f 629 634 635
f 635 634 641
f 646 654 655
f 655 654 658
f 665 671 672
f 672 671 678
f 683 692 693
f 693 692 696
f 705 710 711
f 711 710 716
f 721 730 731
f 731 730 734
f 741 746 747
f 747 746 754
f 759 765 766
f 766 765 770
f 777 782 783
f 783 782 787
f 793 801 802
f 802 801 805
f 813 818 819
f 819 818 825
f 830 837 838
f 838 837 841
f 848 853 854
f 854 853 860
f 865 873 874
f 874 873 877
f 886 890 891
f 891 890 897
f 902 911 912
f 912 911 914
f 922 927 928
f 928 927 935
f 939 947 948
f 948 947 951
f 960 965 966
f 966 965 971
f 976 985 986
f 986 985 989
f 996 1001 1002
f 1002 1001 1009
f 1014 1020 1021
f 1021 1020 1025
f 1032 1037 1038
f 1038 1037 1043
f 1049 1057 1058
f 1058 1057 1061
f 1069 1074 1075
f 1075 1074 1081
f 1086 1093 1094
f 1094 1093 1097
f 1104 1109 1110
f 1110 1109 1116
f 1121 1129 1130
f 1130 1129 1133
f 1142 1146 1147
f 1147 1146 1153
f 1158 1167 1168
f 1168 1167 1170
f 1178 1183 1184
f 1184 1183 1191
f 1196 1202 1203
f 1203 1202 1207
f 1214 1219 1220
f 1220 1219 1225
f 1231 1239 1240
f 1240 1239 1243
f 1251 1256 1257
f 1257 1256 1263
f 1268 1274 1275
f 1275 1274 1279
f 1286 1291 1292
f 1292 1291 1297
f 1303 1311 1312
f 1312 1311 1315
f 1324 1328 1329
f 1329 1328 1335
f 1340 1349 1350
f 1350 1349 1352
f 1360 1365 1366
f 1366 1365 1373
f 1377 1383 1384
f 1384 1383 1398
f 1384 1398 1399
f 1399 1401 1406
f 105 186 206
f 206 186 178
f 206 178 211
f 206 211 217
f 217 231 223
f 223 231 235
f 223 235 236
f 236 235 250
f 236 250 251
f 251 250 256
f 251 256 270
f 270 256 269
f 270 269 274
f 274 286 293
f 293 308 299
f 299 308 311
f 299 311 312
f 312 311 326
f 312 326 327
f 327 326 333
f 327 333 337
f 337 333 347
f 337 347 351
f 337 351 352
f 352 351 364
f 352 364 365
f 365 364 372
f 365 372 377
f 377 372 386
f 377 386 389
f 377 389 390
f 390 389 404
f 390 404 405
f 405 404 411
f 405 411 415
f 415 411 425
f 415 425 429
f 415 429 430
f 430 429 443
f 430 443 444
f 444 443 450
f 444 450 464
f 464 450 463
f 464 463 468
f 468 480 487
f 487 501 493
f 493 501 505
f 493 505 506
f 506 505 520
f 506 520 521
f 521 520 526
f 521 526 531
f 531 526 541
f 531 541 545
f 531 545 546
f 546 545 558
f 546 558 559
f 559 558 566
f 559 566 580
f 580 566 579
f 580 579 583
f 583 596 603
f 603 617 608
f 608 617 621
f 608 621 622
f 622 621 635
f 622 635 636
f 636 635 642
f 636 642 656
f 656 642 655
f 656 655 659
f 659 672 679
f 679 693 684
f 684 693 697
f 684 697 698
f 698 697 711
f 698 711 712
f 712 711 717
f 712 717 722
f 722 717 731
f 722 731 735
f 722 735 736
f 736 735 747
f 736 747 748
f 748 747 755
f 748 755 767
f 767 755 766
f 767 766 771
f 771 783 788
f 788 802 794
f 794 802 806
f 794 806 807
f 807 806 819
f 807 819 820
f 820 819 826
f 820 826 839
f 839 826 838
f 839 838 842
f 842 854 861
f 861 874 866
f 866 874 878
f 866 878 879
f 879 878 891
f 879 891 892
f 892 891 898
f 892 898 903
f 903 898 912
f 903 912 915
f 903 915 916
f 916 915 928
f 916 928 929
f 929 928 936
f 929 936 940
f 940 936 948
f 940 948 952
f 940 952 953
f 953 952 966
f 953 966 967
f 967 966 972
f 967 972 977
f 977 972 986
f 977 986 990
f 977 990 991
f 991 990 1002
f 991 1002 1003
f 1003 1002 1010
f 1003 1010 1022
f 1022 1010 1021
f 1022 1021 1026
f 1026 1038 1044
f 1044 1058 1050
f 1050 1058 1062
f 1050 1062 1063
f 1063 1062 1075
f 1063 1075 1076
f 1076 1075 1082
f 1076 1082 1095
f 1095 1082 1094
f 1095 1094 1098
f 1098 1110 1117
f 1117 1130 1122
f 1122 1130 1134
f 1122 1134 1135
f 1135 1134 1147
f 1135 1147 1148
f 1148 1147 1154
f 1148 1154 1159
f 1159 1154 1168
f 1159 1168 1171
f 1159 1171 1172
f 1172 1171 1184
f 1172 1184 1185
f 1185 1184 1192
f 1185 1192 1204
f 1204 1192 1203
f 1204 1203 1208
f 1208 1220 1226
f 1226 1240 1232
f 1232 1240 1244
f 1232 1244 1245
f 1245 1244 1257
f 1245 1257 1258
f 1258 1257 1264
f 1258 1264 1276
f 1276 1264 1275
f 1276 1275 1280
f 1280 1292 1298
f 1298 1312 1304
f 1304 1312 1316
f 1304 1316 1317
f 1317 1316 1329
f 1317 1329 1330
f 1330 1329 1336
f 1330 1336 1341
f 1341 1336 1350
f 1341 1350 1353
f 1341 1353 1354
f 1354 1353 1366
f 1354 1366 1367
f 1367 1366 1374
f 1367 1374 1378
f 1378 1374 1384
f 1378 1384 1389
f 1378 1389 1390
f 1390 1389 1406
f 1390 1406 1402
f 178 205 211
f 211 216 217
f 217 216 222
f 217 222 231
f 231 234 235
f 235 234 243
f 235 243 250
f 250 255 256
f 256 255 260
f 256 260 269
f 269 273 274
f 274 273 279
f 274 279 286
f 286 292 293
f 293 292 298
f 293 298 308
f 308 310 311
f 311 310 319
f 311 319 326
f 326 332 333
f 333 332 336
f 333 336 347
f 347 350 351
f 351 350 358
f 351 358 364
f 364 371 372
f 372 371 376
f 372 376 386
f 386 388 389
f 389 388 397
f 389 397 404
f 404 410 411
f 411 410 414
f 411 414 425
f 425 428 429
f 429 428 436
f 429 436 443
f 443 449 450
f 450 449 454
f 450 454 463
f 463 467 468
f 468 467 473
f 468 473 480
f 480 486 487
f 487 486 492
f 487 492 501
f 501 504 505
f 505 504 513
f 505 513 520
f 520 525 526
f 526 525 530
f 526 530 541
f 541 544 545
f 545 544 551
f 545 551 558
f 558 565 566
f 566 565 570
f 566 570 579
f 579 582 583
f 583 582 589
f 583 589 596
f 596 602 603
f 603 602 607
f 603 607 617
f 617 620 621
f 621 620 629
f 621 629 635
f 635 641 642
f 642 641 646
f 642 646 655
f 655 658 659
f 659 658 665
f 659 665 672
f 672 678 679
f 679 678 683
f 679 683 693
f 693 696 697
f 697 696 705
f 697 705 711
f 711 716 717
f 717 716 721
f 717 721 731
f 731 734 735
f 735 734 741
f 735 741 747
f 747 754 755
f 755 754 759
f 755 759 766
f 766 770 771
f 771 770 777
f 771 777 783
f 783 787 788
f 788 787 793
f 788 793 802
f 802 805 806
f 806 805 813
f 806 813 819
f 819 825 826
f 826 825 830
f 826 830 838
f 838 841 842
f 842 841 848
f 842 848 854
f 854 860 861
f 861 860 865
f 861 865 874
f 874 877 878
f 878 877 886
f 878 886 891
f 891 897 898
f 898 897 902
f 898 902 912
f 912 914 915
f 915 914 922
f 915 922 928
f 928 935 936
f 936 935 939
f 936 939 948
f 948 951 952
f 952 951 960
f 952 960 966
f 966 971 972
f 972 971 976
f 972 976 986
f 986 989 990
f 990 989 996
f 990 996 1002
f 1002 1009 1010
f 1010 1009 1014
f 1010 1014 1021
f 1021 1025 1026
f 1026 1025 1032
f 1026 1032 1038
f 1038 1043 1044
f 1044 1043 1049
f 1044 1049 1058
f 1058 1061 1062
f 1062 1061 1069
f 1062 1069 1075
f 1075 1081 1082
f 1082 1081 1086
f 1082 1086 1094
f 1094 1097 1098
f 1098 1097 1104
f 1098 1104 1110
f 1110 1116 1117
f 1117 1116 1121
f 1117 1121 1130
f 1130 1133 1134
f 1134 1133 1142
f 1134 1142 1147
f 1147 1153 1154
f 1154 1153 1158
f 1154 1158 1168
f 1168 1170 1171
f 1171 1170 1178
f 1171 1178 1184
f 1184 1191 1192
f 1192 1191 1196
f 1192 1196 1203
f 1203 1207 1208
f 1208 1207 1214
f 1208 1214 1220
f 1220 1225 1226
f 1226 1225 1231
f 1226 1231 1240
f 1240 1243 1244
f 1244 1243 1251
f 1244 1251 1257
f 1257 1263 1264
f 1264 1263 1268
f 1264 1268 1275
f 1275 1279 1280
f 1280 1279 1286
f 1280 1286 1292
f 1292 1297 1298
f 1298 1297 1303
f 1298 1303 1312
f 1312 1315 1316
f 1316 1315 1324
f 1316 1324 1329
f 1329 1335 1336
f 1336 1335 1340
f 1336 1340 1350
f 1350 1352 1353
f 1353 1352 1360
f 1353 1360 1366
f 1366 1373 1374
f 1374 1373 1377
f 1374 1377 1384
f 1389 1384 1399
f 1389 1399 1406
f 179 206 218
f 218 223 237
f 237 223 236
f 237 236 251
f 237 251 252
f 252 251 270
f 252 270 261
f 261 270 294
f 261 294 287
f 287 294 299
f 287 299 313
f 313 299 312
f 313 312 327
f 313 327 338
f 338 327 337
f 338 337 352
f 338 352 366
f 366 352 365
f 366 365 377
f 366 377 391
f 391 377 390
f 391 390 405
f 391 405 416
f 416 405 415
f 416 415 430
f 416 430 445
f 445 430 444
f 445 444 464
f 445 464 455
f 455 464 488
f 455 488 481
f 481 488 493
f 481 493 507
f 507 493 506
f 507 506 521
f 507 521 532
f 532 521 531
f 532 531 546
f 532 546 560
f 560 546 559
f 560 559 580
f 560 580 571
f 571 580 604
f 571 604 597
f 597 604 608
f 597 608 623
f 623 608 622
f 623 622 636
f 623 636 637
f 637 636 656
f 637 656 647
f 647 656 680
f 647 680 673
f 673 680 684
f 673 684 699
f 699 684 698
f 699 698 712
f 699 712 723
f 723 712 722
f 723 722 736
f 723 736 749
f 749 736 748
f 749 748 767
f 749 767 760
f 760 767 789
f 760 789 772
f 789 794 808
f 808 794 807
f 808 807 820
f 808 820 821
f 821 820 839
f 821 839 831
f 831 839 862
f 831 862 855
f 855 862 866
f 855 866 880
f 880 866 879
f 880 879 892
f 880 892 904
f 904 892 903
f 904 903 916
f 904 916 930
f 930 916 929
f 930 929 940
f 930 940 954
f 954 940 953
f 954 953 967
f 954 967 978
f 978 967 977
f 978 977 991
f 978 991 1004
f 1004 991 1003
f 1004 1003 1022
f 1004 1022 1015
f 1015 1022 1045
f 1015 1045 1039
f 1039 1045 1050
f 1039 1050 1064
f 1064 1050 1063
f 1064 1063 1076
f 1064 1076 1077
f 1077 1076 1095
f 1077 1095 1087
f 1087 1095 1118
f 1087 1118 1111
f 1111 1118 1122
f 1111 1122 1136
f 1136 1122 1135
f 1136 1135 1148
f 1136 1148 1160
f 1160 1148 1159
f 1160 1159 1172
f 1160 1172 1186
f 1186 1172 1185
f 1186 1185 1204
f 1186 1204 1197
f 1197 1204 1227
f 1197 1227 1221
f 1221 1227 1232
f 1221 1232 1246
f 1246 1232 1245
f 1246 1245 1258
f 1246 1258 1259
f 1259 1258 1276
f 1259 1276 1269
f 1269 1276 1299
f 1269 1299 1293
f 1293 1299 1304
f 1293 1304 1318
f 1318 1304 1317
f 1318 1317 1330
f 1318 1330 1342
f 1342 1330 1341
f 1342 1341 1354
f 1342 1354 1368
f 1368 1354 1367
f 1368 1367 1378
f 1368 1378 1391
f 1391 1378 1390
f 1391 1390 1402
f 1391 1402 1403
f 1403 1402 1411
f 1403 1411 1412
f 1412 1411 1418
f 1412 1418 1424
f 1424 1418 1423
f 1424 1423 1430
f 1430 1423 1432
f 1430 1432 1434
f 207 180 179
f 207 179 212
f 181 189 192
f 187 181 192
f 187 192 193
f 176 187 193
f 176 193 194
f 183 176 194
f 183 194 190
f 188 183 190
f 181 186 189
f 198 122 190
f 190 122 188
f 192 189 199
f 192 199 195
f 195 199 110
f 110 199 109
f 109 199 107
f 193 192 195
f 194 193 195
f 194 195 196
f 196 195 110
f 190 194 196
f 190 196 197
f 197 196 200
f 200 198 197
f 197 198 190
f 212 179 218
f 212 218 224
f 224 218 237
f 224 237 238
f 238 237 252
f 275 261 287
f 275 287 288
f 288 287 300
f 300 287 313
f 300 313 314
f 314 313 328
f 328 313 338
f 328 338 339
f 339 338 353
f 353 338 366
f 353 366 367
f 367 366 378
f 378 366 391
f 378 391 392
f 392 391 406
f 406 391 416
f 406 416 417
f 417 416 431
f 431 416 445
f 431 445 446
f 446 445 455
f 469 455 481
f 469 481 482
f 482 481 494
f 494 481 507
f 494 507 508
f 508 507 522
f 522 507 532
f 522 532 533
f 533 532 547
f 547 532 560
f 547 560 561
f 561 560 571
f 584 571 597
f 584 597 598
f 598 597 609
f 609 597 623
f 609 623 624
f 624 623 637
f 660 647 673
f 660 673 674
f 674 673 685
f 685 673 699
f 685 699 700
f 700 699 713
f 713 699 723
f 713 723 724
f 724 723 737
f 737 723 749
f 737 749 750
f 750 749 760
f 784 772 789
f 784 789 795
f 795 789 808
f 795 808 809
f 809 808 821
f 843 831 855
f 843 855 856
f 856 855 867
f 867 855 880
f 867 880 881
f 881 880 893
f 893 880 904
f 893 904 905
f 905 904 917
f 917 904 930
f 917 930 931
f 931 930 941
f 941 930 954
f 941 954 955
f 955 954 968
f 968 954 978
f 968 978 979
f 979 978 992
f 992 978 1004
f 992 1004 1005
f 1005 1004 1015
f 1027 1015 1039
f 1027 1039 1040
f 1040 1039 1051
f 1051 1039 1064
f 1051 1064 1065
f 1065 1064 1077
f 1099 1087 1111
f 1099 1111 1112
f 1112 1111 1123
f 1123 1111 1136
f 1123 1136 1137
f 1137 1136 1149
f 1149 1136 1160
f 1149 1160 1161
f 1161 1160 1173
f 1173 1160 1186
f 1173 1186 1187
f 1187 1186 1197
f 1209 1197 1221
f 1209 1221 1222
f 1222 1221 1233
f 1233 1221 1246
f 1233 1246 1247
f 1247 1246 1259
f 1281 1269 1293
f 1281 1293 1294
f 1294 1293 1305
f 1305 1293 1318
f 1305 1318 1319
f 1319 1318 1331
f 1331 1318 1342
f 1331 1342 1343
f 1343 1342 1355
f 1355 1342 1368
f 1355 1368 1369
f 1369 1368 1379
f 1379 1368 1391
f 1379 1391 1392
f 1392 1391 1403
f 1413 1403 1412
f 1427 1424 1430
f 1427 1430 1431
f 1431 1430 1434
f 207 212 213
f 213 212 224
f 213 224 219
f 219 224 225
f 225 224 238
f 225 238 232
f 232 238 239
f 239 238 252
f 239 252 244
f 244 252 253
f 253 252 261
f 253 261 257
f 257 261 262
f 262 261 275
f 262 275 271
f 271 275 276
f 276 275 288
f 276 288 280
f 280 288 289
f 289 288 300
f 289 300 295
f 295 300 301
f 301 300 314
f 301 314 309
f 309 314 315
f 315 314 328
f 315 328 320
f 320 328 329
f 329 328 339
f 329 339 334
f 334 339 340
f 340 339 353
f 340 353 348
f 348 353 354
f 354 353 367
f 354 367 359
f 359 367 368
f 368 367 378
f 368 378 373
f 373 378 379
f 379 378 392
f 379 392 387
f 387 392 393
f 393 392 406
f 393 406 398
f 398 406 407
f 407 406 417
f 407 417 412
f 412 417 418
f 418 417 431
f 418 431 426
f 426 431 432
f 432 431 446
f 432 446 437
f 437 446 447
f 447 446 455
f 447 455 451
f 451 455 456
f 456 455 469
f 456 469 465
f 465 469 470
f 470 469 482
f 470 482 474
f 474 482 483
f 483 482 494
f 483 494 489
f 489 494 495
f 495 494 508
f 495 508 502
f 502 508 509
f 509 508 522
f 509 522 514
f 514 522 523
f 523 522 533
f 523 533 527
f 527 533 534
f 534 533 547
f 534 547 542
f 542 547 548
f 548 547 561
f 548 561 552
f 552 561 562
f 562 561 571
f 562 571 567
f 567 571 572
f 572 571 584
f 572 584 581
f 581 584 585
f 585 584 598
f 585 598 590
f 590 598 599
f 599 598 609
f 599 609 605
f 605 609 610
f 610 609 624
f 610 624 618
f 618 624 625
f 625 624 637
f 625 637 630
f 630 637 638
f 638 637 647
f 638 647 643
f 643 647 648
f 648 647 660
f 648 660 657
f 657 660 661
f 661 660 674
f 661 674 666
f 666 674 675
f 675 674 685
f 675 685 681
f 681 685 686
f 686 685 700
f 686 700 694
f 694 700 701
f 701 700 713
f 701 713 706
f 706 713 714
f 714 713 724
f 714 724 718
f 718 724 725
f 725 724 737
f 725 737 732
f 732 737 738
f 738 737 750
f 738 750 742
f 742 750 751
f 751 750 760
f 751 760 756
f 756 760 761
f 761 760 772
f 761 772 768
f 768 772 773
f 773 772 784
f 773 784 778
f 778 784 785
f 785 784 795
f 785 795 790
f 790 795 796
f 796 795 809
f 796 809 803
f 803 809 810
f 810 809 821
f 810 821 814
f 814 821 822
f 822 821 831
f 822 831 827
f 827 831 832
f 832 831 843
f 832 843 840
f 840 843 844
f 844 843 856
f 844 856 849
f 849 856 857
f 857 856 867
f 857 867 863
f 863 867 868
f 868 867 881
f 868 881 875
f 875 881 882
f 882 881 893
f 882 893 887
f 887 893 894
f 894 893 905
f 894 905 899
f 899 905 906
f 906 905 917
f 906 917 913
f 913 917 918
f 918 917 931
f 918 931 923
f 923 931 932
f 932 931 941
f 932 941 937
f 937 941 942
f 942 941 955
f 942 955 949
f 949 955 956
f 956 955 968
f 956 968 961
f 961 968 969
f 969 968 979
f 969 979 973
f 973 979 980
f 980 979 992
f 980 992 987
f 987 992 993
f 993 992 1005
f 993 1005 997
f 997 1005 1006
f 1006 1005 1015
f 1006 1015 1011
f 1011 1015 1016
f 1016 1015 1027
f 1016 1027 1023
f 1023 1027 1028
f 1028 1027 1040
f 1028 1040 1033
f 1033 1040 1041
f 1041 1040 1051
f 1041 1051 1046
f 1046 1051 1052
f 1052 1051 1065
f 1052 1065 1059
f 1059 1065 1066
f 1066 1065 1077
f 1066 1077 1070
f 1070 1077 1078
f 1078 1077 1087
f 1078 1087 1083
f 1083 1087 1088
f 1088 1087 1099
f 1088 1099 1096
f 1096 1099 1100
f 1100 1099 1112
f 1100 1112 1105
f 1105 1112 1113
f 1113 1112 1123
f 1113 1123 1119
f 1119 1123 1124
f 1124 1123 1137
f 1124 1137 1131
f 1131 1137 1138
f 1138 1137 1149
f 1138 1149 1143
f 1143 1149 1150
f 1150 1149 1161
f 1150 1161 1155
f 1155 1161 1162
f 1162 1161 1173
f 1162 1173 1169
f 1169 1173 1174
f 1174 1173 1187
f 1174 1187 1179
f 1179 1187 1188
f 1188 1187 1197
f 1188 1197 1193
f 1193 1197 1198
f 1198 1197 1209
f 1198 1209 1205
f 1205 1209 1210
f 1210 1209 1222
f 1210 1222 1215
f 1215 1222 1223
f 1223 1222 1233
f 1223 1233 1228
f 1228 1233 1234
f 1234 1233 1247
f 1234 1247 1241
f 1241 1247 1248
f 1248 1247 1259
f 1248 1259 1252
f 1252 1259 1260
f 1260 1259 1269
f 1260 1269 1265
f 1265 1269 1270
f 1270 1269 1281
f 1270 1281 1277
f 1277 1281 1282
f 1282 1281 1294
f 1282 1294 1287
f 1287 1294 1295
f 1295 1294 1305
f 1295 1305 1300
f 1300 1305 1306
f 1306 1305 1319
f 1306 1319 1313
f 1313 1319 1320
f 1320 1319 1331
f 1320 1331 1325
f 1325 1331 1332
f 1332 1331 1343
f 1332 1343 1337
f 1337 1343 1344
f 1344 1343 1355
f 1344 1355 1351
f 1351 1355 1356
f 1356 1355 1369
f 1356 1369 1361
f 1361 1369 1370
f 1370 1369 1379
f 1370 1379 1375
f 1375 1379 1380
f 1380 1379 1392
f 1380 1392 1385
f 1385 1392 1393
f 1393 1392 1403
f 1393 1403 1400
f 1400 1403 1404
f 1404 1403 1413
f 1404 1413 1407
f 1407 1413 1414
f 1414 1413 1412
f 1414 1412 1416
f 1416 1412 1424
f 1416 1424 1419
f 1419 1424 1422
f 1422 1424 1427
f 1422 1427 1425
f 1425 1427 1428
f 1428 1427 1431
f 1408 99 170
f 1415 1409 96
f 1406 1405 1409
f 1406 1409 1410
f 1410 1409 1415
f 1415 1417 1421
f 1402 1406 1410
f 1402 1410 1411
f 1411 1410 1415
f 1411 1415 1421
f 1411 1421 1418
f 94 1426 1420
f 69 101 49
f 49 101 201
f 101 69 68
f 101 68 102
f 102 68 67
f 102 67 103
f 103 67 104
f 104 67 66
f 104 66 65
f 104 65 105
f 105 65 64
f 105 64 63
f 105 63 62
f 105 62 61
f 105 61 185
f 185 61 60
f 185 60 59
f 185 59 191
f 191 59 106
f 106 59 107
f 107 59 108
f 108 59 58
f 58 57 108
f 108 57 56
f 108 56 55
f 55 54 108
f 108 54 53
f 108 53 52
f 108 52 51
f 108 51 1436
f 1436 51 50
f 1436 50 121
f 121 50 49
f 121 49 201
f 1439 1437 111
f 1435 121 1438
f 1438 120 1437
f 120 119 1437
f 1437 119 111
f 111 119 118
f 111 118 117
f 117 116 111
f 111 116 112
f 112 116 113
f 113 116 115
f 113 115 114
f 1435 109 1436
f 109 108 1436
f 1437 1435 1438
f 121 1435 1436
f 1439 110 109
f 1437 1439 109
f 1435 1437 109
